<?xml version="1.0" encoding="utf-8"?>
<!-- Generator: Adobe Illustrator 19.2.1, SVG Export Plug-In . SVG Version: 6.00 Build 0)  -->
<svg version="1.1" baseProfile="basic" id="Layer_1"
	 xmlns="http://www.w3.org/2000/svg" xmlns:xlink="http://www.w3.org/1999/xlink" x="0px" y="0px" viewBox="0 0 2048 1000"
	 xml:space="preserve">
<rect fill="#B9E5FB" width="2048" height="1000"/>
<rect fill="#4EA8DE" width="2049" height="1000"/>
<rect x="1" y="710" fill="#116BB4" width="2047" height="288.9"/>
<line fill="none" stroke="#343636" stroke-width="5.0032" stroke-miterlimit="10" x1="48.187" y1="51.9" x2="2010" y2="51.9"/>
<g>
	<g>
		<g>
			<polygon fill="#FFFFFF" points="1382.631,896.724 1382.631,520.458 1382.631,324.037 1227.635,183.276 665.369,183.276 
				665.369,896.724 			"/>
			<g>
				<polygon fill="#2C5871" points="1227.635,324.037 1382.631,324.037 1227.635,183.276 				"/>
				<polygon fill="#D1ECFB" points="1382.631,324.037 1227.635,324.037 1382.631,464.775 				"/>
			</g>
		</g>
	</g>
</g>
<g>
	<rect x="723.841" y="272.485" fill="none" width="501.066" height="421.185"/>
	<path d="M733.84,279.648c3.959,0,7.158,3.16,7.158,7.119c0,3.959-3.199,7.159-7.158,7.159c-3.96,0-7.119-3.2-7.119-7.159
		C726.721,282.808,729.88,279.648,733.84,279.648z"/>
	<path d="M765.839,272.489h4.2l11.157,28.555h-4.199l-3.119-8.599H761.8l-3.199,8.599h-3.919L765.839,272.489z M763,289.247h9.678
		l-4.759-13.318h-0.08L763,289.247z"/>
	<path d="M783.641,272.489h3.399v28.555h-3.399V272.489z"/>
	<path d="M792.521,272.489h3.399v28.555h-3.399V272.489z"/>
	<path d="M838.675,301.044h-3.959l-6.519-23.996h-0.08l-6.6,23.996h-3.959l-7.318-28.555h3.879l5.6,23.756h0.079l6.399-23.756h4.119
		l6.319,23.756h0.08l5.799-23.756h3.799L838.675,301.044z"/>
	<path d="M867.677,300.964c-0.601,0.36-1.44,0.56-2.439,0.56c-1.76,0-2.88-0.96-2.88-3.2c-1.88,2.24-4.399,3.2-7.278,3.2
		c-3.76,0-6.839-1.64-6.839-5.799c0-4.679,3.479-5.719,6.998-6.359c3.72-0.76,6.959-0.44,6.959-3.039c0-3-2.479-3.439-4.599-3.439
		c-2.88,0-5,0.88-5.159,3.919h-3.399c0.199-5.119,4.119-6.918,8.758-6.918c3.72,0,7.759,0.84,7.759,5.679v10.638
		c0,1.6,0,2.32,1.08,2.32c0.32,0,0.68-0.08,1.04-0.2V300.964z M862.157,290.366c-2.64,1.959-10.318,0.04-10.318,5.119
		c0,2.24,1.92,3.04,4,3.04c4.479,0,6.318-2.76,6.318-4.679V290.366z"/>
	<path d="M875.559,280.368h4.119v3h-4.119v12.838c0,1.6,0.439,1.84,2.56,1.84h1.56v3h-2.6c-3.52,0-4.919-0.72-4.919-4.519v-13.158
		h-3.52v-3h3.52v-6.199h3.399V280.368z"/>
	<path d="M885.519,294.525c0.12,3.04,2.8,4,5.559,4c2.12,0,4.999-0.48,4.999-3.08c0-5.319-13.518-1.72-13.518-9.678
		c0-4.159,4.079-5.879,7.719-5.879c4.64,0,8.159,1.439,8.479,6.479h-3.399c-0.199-2.639-2.6-3.479-4.799-3.479
		c-2.04,0-4.399,0.56-4.399,2.639c0,2.4,3.6,2.88,6.759,3.6c3.399,0.76,6.759,1.919,6.759,5.879c0,4.959-4.599,6.519-8.798,6.519
		c-4.64,0-8.559-1.88-8.759-6.999H885.519z"/>
	<path d="M912.357,279.888c6.559,0,10.038,4.759,10.038,10.838c0,6.039-3.479,10.798-10.038,10.798
		c-6.56,0-10.038-4.759-10.038-10.798C902.319,284.647,905.798,279.888,912.357,279.888z M912.357,298.525
		c3.56,0,6.438-2.8,6.438-7.799s-2.879-7.838-6.438-7.838s-6.439,2.839-6.439,7.838S908.798,298.525,912.357,298.525z"/>
	<path d="M926.398,280.368h3.199v3.28h0.08c1.439-2.56,3.72-3.759,6.719-3.759c5.439,0,7.119,3.119,7.119,7.559v13.598h-3.399
		v-13.998c0-2.56-1.6-4.159-4.199-4.159c-4.12,0-6.119,2.759-6.119,6.479v11.678h-3.399V280.368z"/>
	<path d="M960.318,272.489h3.799v12.278h15.038v-12.278h3.799v28.555h-3.799v-13.078h-15.038v13.078h-3.799V272.489z"/>
	<path d="M1006.274,294.485c-0.92,4.6-4.159,7.039-8.839,7.039c-6.599,0-9.718-4.599-9.918-10.878
		c0-6.239,4.079-10.758,9.719-10.758c7.318,0,9.558,6.839,9.358,11.838h-15.478c-0.12,3.599,1.92,6.799,6.438,6.799
		c2.84,0,4.76-1.32,5.359-4.04H1006.274z M1002.995,288.727c-0.2-3.24-2.56-5.839-5.959-5.839c-3.52,0-5.719,2.639-5.919,5.839
		H1002.995z"/>
	<path d="M1028.434,300.964c-0.6,0.36-1.439,0.56-2.439,0.56c-1.76,0-2.879-0.96-2.879-3.2c-1.88,2.24-4.399,3.2-7.279,3.2
		c-3.76,0-6.839-1.64-6.839-5.799c0-4.679,3.479-5.719,6.999-6.359c3.719-0.76,6.959-0.44,6.959-3.039c0-3-2.479-3.439-4.6-3.439
		c-2.88,0-4.999,0.88-5.159,3.919h-3.399c0.2-5.119,4.119-6.918,8.759-6.918c3.719,0,7.759,0.84,7.759,5.679v10.638
		c0,1.6,0,2.32,1.079,2.32c0.32,0,0.681-0.08,1.04-0.2V300.964z M1022.915,290.366c-2.64,1.959-10.318,0.04-10.318,5.119
		c0,2.24,1.92,3.04,3.999,3.04c4.479,0,6.319-2.76,6.319-4.679V290.366z"/>
	<path d="M1031.797,272.489h3.399v28.555h-3.399V272.489z"/>
	<path d="M1045.195,280.368h4.119v3h-4.119v12.838c0,1.6,0.439,1.84,2.56,1.84h1.56v3h-2.6c-3.52,0-4.919-0.72-4.919-4.519v-13.158
		h-3.52v-3h3.52v-6.199h3.399V280.368z"/>
	<path d="M1053.075,272.489h3.399v10.918h0.08c1.08-2.52,4.079-3.519,6.52-3.519c5.438,0,7.118,3.119,7.118,7.559v13.598h-3.399
		v-13.998c0-2.56-1.6-4.159-4.199-4.159c-4.119,0-6.119,2.759-6.119,6.479v11.678h-3.399V272.489z"/>
	<path d="M748.761,328.368h3.399v2.8h0.08c1.12-2.28,3.72-3.279,6.599-3.279c6.359,0,9.519,5.039,9.519,10.878
		c0,5.879-3.119,10.758-9.438,10.758c-2.079,0-5.199-0.8-6.679-3.24h-0.08v10.678h-3.399V328.368z M758.359,330.888
		c-4.6,0-6.319,3.959-6.319,7.798c0,4.04,1.84,7.839,6.52,7.839c4.639,0,6.198-3.959,6.198-7.999
		C764.758,334.647,762.759,330.888,758.359,330.888z"/>
	<path d="M789.998,342.485c-0.92,4.6-4.16,7.039-8.839,7.039c-6.599,0-9.719-4.599-9.918-10.878c0-6.239,4.079-10.758,9.718-10.758
		c7.319,0,9.559,6.839,9.358,11.838H774.84c-0.12,3.599,1.92,6.799,6.439,6.799c2.839,0,4.759-1.32,5.359-4.04H789.998z
		 M786.718,336.727c-0.199-3.24-2.56-5.839-5.959-5.839c-3.519,0-5.719,2.639-5.919,5.839H786.718z"/>
	<path d="M793.72,328.368h3.2v4.359H797c1.64-3.359,3.919-4.959,7.599-4.839v3.599c-5.479,0-7.479,3.08-7.479,8.359v9.198h-3.399
		V328.368z"/>
	<path d="M809.239,342.525c0.12,3.04,2.8,4,5.56,4c2.119,0,4.999-0.48,4.999-3.08c0-5.319-13.518-1.72-13.518-9.678
		c0-4.159,4.079-5.879,7.719-5.879c4.639,0,8.158,1.439,8.479,6.479h-3.399c-0.2-2.639-2.6-3.479-4.8-3.479
		c-2.039,0-4.398,0.56-4.398,2.639c0,2.4,3.599,2.88,6.759,3.6c3.399,0.76,6.759,1.919,6.759,5.879c0,4.959-4.6,6.519-8.799,6.519
		c-4.64,0-8.559-1.88-8.759-6.999H809.239z"/>
	<path d="M836.078,327.888c6.56,0,10.039,4.759,10.039,10.838c0,6.039-3.479,10.798-10.039,10.798
		c-6.559,0-10.038-4.759-10.038-10.798C826.04,332.647,829.52,327.888,836.078,327.888z M836.078,346.525
		c3.56,0,6.439-2.8,6.439-7.799s-2.88-7.838-6.439-7.838s-6.438,2.839-6.438,7.838S832.519,346.525,836.078,346.525z"/>
	<path d="M850.119,328.368h3.199v3.28h0.08c1.44-2.56,3.72-3.759,6.72-3.759c5.438,0,7.118,3.119,7.118,7.559v13.598h-3.399v-13.998
		c0-2.56-1.6-4.159-4.199-4.159c-4.119,0-6.119,2.759-6.119,6.479v11.678h-3.399V328.368z"/>
	<path d="M872.359,328.368h3.199v3.28h0.08c1.44-2.56,3.72-3.759,6.72-3.759c5.438,0,7.118,3.119,7.118,7.559v13.598h-3.399v-13.998
		c0-2.56-1.6-4.159-4.199-4.159c-4.119,0-6.119,2.759-6.119,6.479v11.678h-3.399V328.368z"/>
	<path d="M912.237,342.485c-0.92,4.6-4.16,7.039-8.839,7.039c-6.599,0-9.719-4.599-9.918-10.878c0-6.239,4.079-10.758,9.718-10.758
		c7.319,0,9.559,6.839,9.358,11.838h-15.478c-0.12,3.599,1.92,6.799,6.439,6.799c2.839,0,4.759-1.32,5.359-4.04H912.237z
		 M908.957,336.727c-0.199-3.24-2.56-5.839-5.959-5.839c-3.519,0-5.719,2.639-5.919,5.839H908.957z"/>
	<path d="M916.279,320.489h3.399v28.555h-3.399V320.489z"/>
	<path d="M950.116,335.007c-0.52-2.6-2.279-4.119-5.119-4.119c-4.919,0-6.438,3.919-6.438,8.079c0,3.839,1.72,7.559,6.039,7.559
		c3.319,0,5.239-1.88,5.679-5.039h3.479c-0.76,5.079-3.879,8.039-9.118,8.039c-6.319,0-9.679-4.359-9.679-10.558
		c0-6.199,3.199-11.078,9.759-11.078c4.719,0,8.398,2.199,8.918,7.119H950.116z"/>
	<path d="M975.875,348.964c-0.6,0.36-1.439,0.56-2.439,0.56c-1.76,0-2.879-0.96-2.879-3.2c-1.88,2.24-4.399,3.2-7.279,3.2
		c-3.76,0-6.839-1.64-6.839-5.799c0-4.679,3.479-5.719,6.999-6.359c3.719-0.76,6.959-0.44,6.959-3.039c0-3-2.479-3.439-4.6-3.439
		c-2.88,0-4.999,0.88-5.159,3.919h-3.399c0.2-5.119,4.119-6.918,8.759-6.918c3.719,0,7.759,0.84,7.759,5.679v10.638
		c0,1.6,0,2.32,1.079,2.32c0.32,0,0.681-0.08,1.04-0.2V348.964z M970.356,338.366c-2.64,1.959-10.318,0.04-10.318,5.119
		c0,2.24,1.92,3.04,3.999,3.04c4.479,0,6.319-2.76,6.319-4.679V338.366z"/>
	<path d="M979.038,328.368h3.199v3.28h0.08c1.439-2.56,3.72-3.759,6.719-3.759c5.439,0,7.119,3.119,7.119,7.559v13.598h-3.399
		v-13.998c0-2.56-1.6-4.159-4.199-4.159c-4.12,0-6.119,2.759-6.119,6.479v11.678h-3.399V328.368z"/>
	<path d="M1015.997,324.648h-3.399v-4.159h3.399V324.648z M1012.598,328.368h3.399v20.677h-3.399V328.368z"/>
	<path d="M1039.754,349.044h-3.399v-2.799h-0.08c-1.12,2.279-3.719,3.279-6.599,3.279c-6.359,0-9.519-5.039-9.519-10.878
		c0-5.839,3.119-10.758,9.438-10.758c2.08,0,5.199,0.8,6.679,3.239h0.08v-10.638h3.399V349.044z M1030.155,346.525
		c4.6,0,6.319-3.959,6.319-7.799c0-4.039-1.84-7.838-6.519-7.838c-4.64,0-6.199,3.959-6.199,7.999
		C1023.757,342.766,1025.756,346.525,1030.155,346.525z"/>
	<path d="M1062.634,342.485c-0.92,4.6-4.16,7.039-8.839,7.039c-6.599,0-9.719-4.599-9.918-10.878c0-6.239,4.079-10.758,9.718-10.758
		c7.319,0,9.559,6.839,9.358,11.838h-15.478c-0.12,3.599,1.92,6.799,6.439,6.799c2.839,0,4.759-1.32,5.359-4.04H1062.634z
		 M1059.354,336.727c-0.199-3.24-2.56-5.839-5.959-5.839c-3.519,0-5.719,2.639-5.919,5.839H1059.354z"/>
	<path d="M1066.476,328.368h3.199v3.28h0.08c1.44-2.56,3.72-3.759,6.72-3.759c5.438,0,7.118,3.119,7.118,7.559v13.598h-3.399
		v-13.998c0-2.56-1.6-4.159-4.199-4.159c-4.119,0-6.119,2.759-6.119,6.479v11.678h-3.399V328.368z"/>
	<path d="M1093.436,328.368h4.119v3h-4.119v12.838c0,1.6,0.439,1.84,2.56,1.84h1.56v3h-2.6c-3.52,0-4.919-0.72-4.919-4.519v-13.158
		h-3.52v-3h3.52v-6.199h3.399V328.368z"/>
	<path d="M1104.915,324.648h-3.399v-4.159h3.399V324.648z M1101.516,328.368h3.399v20.677h-3.399V328.368z"/>
	<path d="M1111.595,331.367h-3.479v-3h3.479v-3.079c0-3.359,2-5.119,5.719-5.119c0.641,0,1.561,0.12,2.2,0.32v2.959
		c-0.6-0.2-1.32-0.28-1.92-0.28c-1.64,0-2.6,0.52-2.6,2.319v2.879h3.999v3h-3.999v17.677h-3.399V331.367z"/>
	<path d="M1130.153,351.804c-1.6,3.999-2.96,5.519-5.999,5.519c-0.8,0-1.6-0.08-2.359-0.36v-3.119c0.64,0.2,1.319,0.48,1.999,0.48
		c1.4,0,2.16-0.64,2.8-1.88l1.399-3.52l-8.198-20.557h3.839l6.039,16.917h0.08l5.799-16.917h3.6L1130.153,351.804z"/>
	<path d="M1171.472,348.964c-0.601,0.36-1.44,0.56-2.439,0.56c-1.76,0-2.88-0.96-2.88-3.2c-1.88,2.24-4.399,3.2-7.278,3.2
		c-3.76,0-6.839-1.64-6.839-5.799c0-4.679,3.479-5.719,6.998-6.359c3.72-0.76,6.959-0.44,6.959-3.039c0-3-2.479-3.439-4.599-3.439
		c-2.88,0-5,0.88-5.159,3.919h-3.399c0.199-5.119,4.119-6.918,8.758-6.918c3.72,0,7.759,0.84,7.759,5.679v10.638
		c0,1.6,0,2.32,1.08,2.32c0.32,0,0.68-0.08,1.04-0.2V348.964z M1165.952,338.366c-2.64,1.959-10.318,0.04-10.318,5.119
		c0,2.24,1.92,3.04,4,3.04c4.479,0,6.318-2.76,6.318-4.679V338.366z"/>
	<path d="M767.118,397.044h-3.399v-2.799h-0.08c-1.12,2.279-3.72,3.279-6.6,3.279c-6.358,0-9.518-5.039-9.518-10.878
		c0-5.839,3.119-10.758,9.438-10.758c2.08,0,5.199,0.8,6.68,3.239h0.08v-10.638h3.399V397.044z M757.52,394.525
		c4.599,0,6.318-3.959,6.318-7.799c0-4.039-1.839-7.838-6.519-7.838c-4.639,0-6.199,3.959-6.199,7.999
		C751.12,390.766,753.12,394.525,757.52,394.525z"/>
	<path d="M789.998,390.485c-0.92,4.6-4.16,7.039-8.839,7.039c-6.599,0-9.719-4.599-9.918-10.878c0-6.239,4.079-10.758,9.718-10.758
		c7.319,0,9.559,6.839,9.358,11.838H774.84c-0.12,3.599,1.92,6.799,6.439,6.799c2.839,0,4.759-1.32,5.359-4.04H789.998z
		 M786.718,384.727c-0.199-3.24-2.56-5.839-5.959-5.839c-3.519,0-5.719,2.639-5.919,5.839H786.718z"/>
	<path d="M803.158,397.044h-3.639l-7.679-20.677h3.799l5.799,17.237h0.08l5.64-17.237h3.559L803.158,397.044z"/>
	<path d="M817.439,372.648h-3.399v-4.159h3.399V372.648z M814.04,376.368h3.399v20.677h-3.399V376.368z"/>
	<path d="M841.036,396.964c-0.6,0.36-1.439,0.56-2.439,0.56c-1.76,0-2.879-0.96-2.879-3.2c-1.88,2.24-4.399,3.2-7.279,3.2
		c-3.76,0-6.839-1.64-6.839-5.799c0-4.679,3.479-5.719,6.999-6.359c3.719-0.76,6.959-0.44,6.959-3.039c0-3-2.479-3.439-4.6-3.439
		c-2.88,0-4.999,0.88-5.159,3.919h-3.399c0.2-5.119,4.119-6.918,8.759-6.918c3.719,0,7.759,0.84,7.759,5.679v10.638
		c0,1.6,0,2.32,1.079,2.32c0.32,0,0.681-0.08,1.04-0.2V396.964z M835.518,386.366c-2.64,1.959-10.318,0.04-10.318,5.119
		c0,2.24,1.92,3.04,3.999,3.04c4.479,0,6.319-2.76,6.319-4.679V386.366z"/>
	<path d="M848.918,376.368h4.119v3h-4.119v12.838c0,1.6,0.44,1.84,2.56,1.84h1.56v3h-2.6c-3.519,0-4.919-0.72-4.919-4.519v-13.158
		h-3.52v-3h3.52v-6.199h3.399V376.368z"/>
	<path d="M860.398,372.648h-3.399v-4.159h3.399V372.648z M856.999,376.368h3.399v20.677h-3.399V376.368z"/>
	<path d="M874.597,375.888c6.559,0,10.038,4.759,10.038,10.838c0,6.039-3.479,10.798-10.038,10.798
		c-6.56,0-10.038-4.759-10.038-10.798C864.559,380.647,868.037,375.888,874.597,375.888z M874.597,394.525
		c3.56,0,6.438-2.8,6.438-7.799s-2.879-7.838-6.438-7.838s-6.439,2.839-6.439,7.838S871.037,394.525,874.597,394.525z"/>
	<path d="M888.638,376.368h3.199v3.28h0.08c1.439-2.56,3.72-3.759,6.719-3.759c5.439,0,7.119,3.119,7.119,7.559v13.598h-3.399
		v-13.998c0-2.56-1.6-4.159-4.199-4.159c-4.12,0-6.119,2.759-6.119,6.479v11.678h-3.399V376.368z"/>
	<path d="M733.84,471.648c3.959,0,7.158,3.16,7.158,7.119c0,3.959-3.199,7.159-7.158,7.159c-3.96,0-7.119-3.2-7.119-7.159
		C726.721,474.808,729.88,471.648,733.84,471.648z"/>
	<path d="M774.598,472.848c-0.439-4.119-3.119-5.839-7.078-5.839c-3.24,0-6.399,1.16-6.399,4.879c0,7.039,18.277,2.08,18.277,13.317
		c0,6.079-5.959,8.519-11.158,8.519c-6.399,0-11.798-3.159-11.798-10.078h3.599c0,4.799,4,6.879,8.319,6.879
		c3.439,0,7.238-1.08,7.238-5.199c0-7.839-18.277-2.68-18.277-13.158c0-5.759,5.119-8.358,10.358-8.358
		c5.839,0,10.318,2.759,10.519,9.038H774.598z"/>
	<path d="M783.561,472.368h3.399v2.8h0.08c1.12-2.28,3.72-3.279,6.599-3.279c6.359,0,9.519,5.039,9.519,10.878
		c0,5.879-3.119,10.758-9.438,10.758c-2.079,0-5.199-0.8-6.679-3.24h-0.08v10.678h-3.399V472.368z M793.159,474.888
		c-4.6,0-6.319,3.959-6.319,7.798c0,4.04,1.84,7.839,6.52,7.839c4.639,0,6.198-3.959,6.198-7.999
		C799.558,478.647,797.559,474.888,793.159,474.888z"/>
	<path d="M824.798,486.485c-0.92,4.6-4.16,7.039-8.839,7.039c-6.599,0-9.719-4.599-9.918-10.878c0-6.239,4.079-10.758,9.718-10.758
		c7.319,0,9.559,6.839,9.358,11.838H809.64c-0.12,3.599,1.92,6.799,6.439,6.799c2.839,0,4.759-1.32,5.359-4.04H824.798z
		 M821.518,480.727c-0.199-3.24-2.56-5.839-5.959-5.839c-3.519,0-5.719,2.639-5.919,5.839H821.518z"/>
	<path d="M842.678,479.007c-0.521-2.6-2.28-4.119-5.119-4.119c-4.919,0-6.439,3.919-6.439,8.079c0,3.839,1.72,7.559,6.039,7.559
		c3.319,0,5.239-1.88,5.68-5.039h3.479c-0.761,5.079-3.88,8.039-9.119,8.039c-6.318,0-9.678-4.359-9.678-10.558
		c0-6.199,3.199-11.078,9.758-11.078c4.72,0,8.398,2.199,8.919,7.119H842.678z"/>
	<path d="M853.719,468.648h-3.399v-4.159h3.399V468.648z M850.319,472.368h3.399v20.677h-3.399V472.368z"/>
	<path d="M877.315,492.964c-0.6,0.36-1.439,0.56-2.439,0.56c-1.76,0-2.879-0.96-2.879-3.2c-1.88,2.24-4.399,3.2-7.279,3.2
		c-3.76,0-6.839-1.64-6.839-5.799c0-4.679,3.479-5.719,6.999-6.359c3.719-0.76,6.959-0.44,6.959-3.039c0-3-2.479-3.439-4.6-3.439
		c-2.88,0-4.999,0.88-5.159,3.919h-3.399c0.2-5.119,4.119-6.918,8.759-6.918c3.719,0,7.759,0.84,7.759,5.679v10.638
		c0,1.6,0,2.32,1.079,2.32c0.32,0,0.681-0.08,1.04-0.2V492.964z M871.797,482.366c-2.64,1.959-10.318,0.04-10.318,5.119
		c0,2.24,1.92,3.04,3.999,3.04c4.479,0,6.319-2.76,6.319-4.679V482.366z"/>
	<path d="M880.679,464.489h3.399v28.555h-3.399V464.489z"/>
	<path d="M892.957,468.648h-3.399v-4.159h3.399V468.648z M889.558,472.368h3.399v20.677h-3.399V472.368z"/>
	<path d="M896.558,490.445l12.478-15.078h-11.678v-3h16.077v2.32l-12.638,15.357h13.197v3h-17.437V490.445z"/>
	<path d="M935.074,486.485c-0.92,4.6-4.16,7.039-8.839,7.039c-6.599,0-9.719-4.599-9.918-10.878c0-6.239,4.079-10.758,9.718-10.758
		c7.319,0,9.559,6.839,9.358,11.838h-15.478c-0.12,3.599,1.92,6.799,6.439,6.799c2.839,0,4.759-1.32,5.359-4.04H935.074z
		 M931.794,480.727c-0.199-3.24-2.56-5.839-5.959-5.839c-3.519,0-5.719,2.639-5.919,5.839H931.794z"/>
	<path d="M957.394,493.044h-3.399v-2.799h-0.08c-1.12,2.279-3.72,3.279-6.6,3.279c-6.358,0-9.518-5.039-9.518-10.878
		c0-5.839,3.119-10.758,9.438-10.758c2.08,0,5.199,0.8,6.68,3.239h0.08v-10.638h3.399V493.044z M947.795,490.525
		c4.599,0,6.318-3.959,6.318-7.799c0-4.039-1.839-7.838-6.519-7.838c-4.639,0-6.199,3.959-6.199,7.999
		C941.396,486.766,943.396,490.525,947.795,490.525z"/>
	<path d="M973.876,472.368h3.399v2.8h0.08c1.12-2.28,3.72-3.279,6.599-3.279c6.359,0,9.519,5.039,9.519,10.878
		c0,5.879-3.119,10.758-9.438,10.758c-2.079,0-5.199-0.8-6.679-3.24h-0.08v10.678h-3.399V472.368z M983.475,474.888
		c-4.6,0-6.319,3.959-6.319,7.798c0,4.04,1.84,7.839,6.52,7.839c4.639,0,6.198-3.959,6.198-7.999
		C989.873,478.647,987.874,474.888,983.475,474.888z"/>
	<path d="M1015.113,486.485c-0.92,4.6-4.16,7.039-8.839,7.039c-6.599,0-9.719-4.599-9.918-10.878c0-6.239,4.079-10.758,9.718-10.758
		c7.319,0,9.559,6.839,9.358,11.838h-15.478c-0.12,3.599,1.92,6.799,6.439,6.799c2.839,0,4.759-1.32,5.359-4.04H1015.113z
		 M1011.833,480.727c-0.199-3.24-2.56-5.839-5.959-5.839c-3.519,0-5.719,2.639-5.919,5.839H1011.833z"/>
	<path d="M1018.835,472.368h3.2v4.359h0.08c1.64-3.359,3.919-4.959,7.599-4.839v3.599c-5.479,0-7.479,3.08-7.479,8.359v9.198h-3.399
		V472.368z"/>
	<path d="M1034.354,486.525c0.12,3.04,2.8,4,5.56,4c2.119,0,4.999-0.48,4.999-3.08c0-5.319-13.518-1.72-13.518-9.678
		c0-4.159,4.079-5.879,7.719-5.879c4.639,0,8.158,1.439,8.479,6.479h-3.399c-0.2-2.639-2.6-3.479-4.8-3.479
		c-2.039,0-4.398,0.56-4.398,2.639c0,2.4,3.599,2.88,6.759,3.6c3.399,0.76,6.759,1.919,6.759,5.879c0,4.959-4.6,6.519-8.799,6.519
		c-4.64,0-8.559-1.88-8.759-6.999H1034.354z"/>
	<path d="M1061.193,471.888c6.56,0,10.039,4.759,10.039,10.838c0,6.039-3.479,10.798-10.039,10.798
		c-6.559,0-10.038-4.759-10.038-10.798C1051.155,476.647,1054.635,471.888,1061.193,471.888z M1061.193,490.525
		c3.56,0,6.439-2.8,6.439-7.799s-2.88-7.838-6.439-7.838s-6.438,2.839-6.438,7.838S1057.634,490.525,1061.193,490.525z"/>
	<path d="M1075.234,472.368h3.199v3.28h0.08c1.44-2.56,3.72-3.759,6.72-3.759c5.438,0,7.118,3.119,7.118,7.559v13.598h-3.399
		v-13.998c0-2.56-1.6-4.159-4.199-4.159c-4.119,0-6.119,2.759-6.119,6.479v11.678h-3.399V472.368z"/>
	<path d="M1097.475,472.368h3.199v3.28h0.08c1.44-2.56,3.72-3.759,6.72-3.759c5.438,0,7.118,3.119,7.118,7.559v13.598h-3.399
		v-13.998c0-2.56-1.6-4.159-4.199-4.159c-4.119,0-6.119,2.759-6.119,6.479v11.678h-3.399V472.368z"/>
	<path d="M1137.353,486.485c-0.92,4.6-4.16,7.039-8.839,7.039c-6.599,0-9.719-4.599-9.918-10.878c0-6.239,4.079-10.758,9.718-10.758
		c7.319,0,9.559,6.839,9.358,11.838h-15.478c-0.12,3.599,1.92,6.799,6.439,6.799c2.839,0,4.759-1.32,5.359-4.04H1137.353z
		 M1134.072,480.727c-0.199-3.24-2.56-5.839-5.959-5.839c-3.519,0-5.719,2.639-5.919,5.839H1134.072z"/>
	<path d="M1141.395,464.489h3.399v28.555h-3.399V464.489z"/>
	<path d="M1181.671,493.044h-3.6l-4.199-16.437h-0.08l-4.159,16.437h-3.68l-6.639-20.677h3.76l4.679,16.917h0.08l4.159-16.917h3.72
		l4.319,16.917h0.08l4.639-16.917h3.52L1181.671,493.044z"/>
	<path d="M1195.113,468.648h-3.399v-4.159h3.399V468.648z M1191.714,472.368h3.399v20.677h-3.399V472.368z"/>
	<path d="M1200.594,464.489h3.399v28.555h-3.399V464.489z"/>
	<path d="M1209.473,464.489h3.399v28.555h-3.399V464.489z"/>
	<path d="M748.761,520.367h3.399v2.8h0.08c1.12-2.279,3.72-3.279,6.599-3.279c6.359,0,9.519,5.039,9.519,10.878
		c0,5.879-3.119,10.758-9.438,10.758c-2.079,0-5.199-0.8-6.679-3.239h-0.08v10.679h-3.399V520.367z M758.359,522.887
		c-4.6,0-6.319,3.96-6.319,7.799c0,4.039,1.84,7.839,6.52,7.839c4.639,0,6.198-3.959,6.198-7.999
		C764.758,526.646,762.759,522.887,758.359,522.887z"/>
	<path d="M790.678,540.964c-0.601,0.36-1.44,0.56-2.439,0.56c-1.76,0-2.88-0.959-2.88-3.199c-1.88,2.24-4.399,3.199-7.278,3.199
		c-3.76,0-6.839-1.64-6.839-5.799c0-4.679,3.479-5.719,6.998-6.358c3.72-0.76,6.959-0.44,6.959-3.04
		c0-2.999-2.479-3.439-4.599-3.439c-2.88,0-5,0.88-5.159,3.92h-3.399c0.199-5.119,4.119-6.919,8.758-6.919
		c3.72,0,7.759,0.84,7.759,5.679v10.639c0,1.6,0,2.319,1.08,2.319c0.32,0,0.68-0.08,1.04-0.2V540.964z M785.158,530.366
		c-2.64,1.959-10.318,0.039-10.318,5.119c0,2.239,1.92,3.039,4,3.039c4.479,0,6.318-2.76,6.318-4.68V530.366z"/>
	<path d="M793.72,520.367h3.2v4.359H797c1.64-3.359,3.919-4.959,7.599-4.839v3.6c-5.479,0-7.479,3.079-7.479,8.358v9.198h-3.399
		V520.367z"/>
	<path d="M811.879,520.367h4.119v3h-4.119v12.838c0,1.6,0.44,1.84,2.56,1.84h1.56v2.999h-2.6c-3.519,0-4.919-0.72-4.919-4.52
		v-13.157h-3.52v-3h3.52v-6.199h3.399V520.367z"/>
	<path d="M823.359,516.647h-3.399v-4.159h3.399V516.647z M819.96,520.367h3.399v20.677h-3.399V520.367z"/>
	<path d="M842.677,527.006c-0.521-2.599-2.28-4.119-5.119-4.119c-4.919,0-6.439,3.92-6.439,8.079c0,3.839,1.72,7.559,6.039,7.559
		c3.319,0,5.239-1.88,5.68-5.039h3.479c-0.761,5.079-3.88,8.038-9.119,8.038c-6.318,0-9.678-4.358-9.678-10.558
		s3.199-11.078,9.758-11.078c4.72,0,8.398,2.199,8.919,7.118H842.677z"/>
	<path d="M853.718,516.647h-3.399v-4.159h3.399V516.647z M850.318,520.367h3.399v20.677h-3.399V520.367z"/>
	<path d="M859.118,520.367h3.399v2.8h0.08c1.119-2.279,3.719-3.279,6.599-3.279c6.358,0,9.519,5.039,9.519,10.878
		c0,5.879-3.12,10.758-9.438,10.758c-2.08,0-5.199-0.8-6.679-3.239h-0.08v10.679h-3.399V520.367z M868.716,522.887
		c-4.599,0-6.318,3.96-6.318,7.799c0,4.039,1.84,7.839,6.519,7.839c4.64,0,6.199-3.959,6.199-7.999
		C875.115,526.646,873.115,522.887,868.716,522.887z"/>
	<path d="M901.034,540.964c-0.601,0.36-1.44,0.56-2.439,0.56c-1.76,0-2.88-0.959-2.88-3.199c-1.88,2.24-4.399,3.199-7.278,3.199
		c-3.76,0-6.839-1.64-6.839-5.799c0-4.679,3.479-5.719,6.998-6.358c3.72-0.76,6.959-0.44,6.959-3.04
		c0-2.999-2.479-3.439-4.599-3.439c-2.88,0-5,0.88-5.159,3.92h-3.399c0.199-5.119,4.119-6.919,8.758-6.919
		c3.72,0,7.759,0.84,7.759,5.679v10.639c0,1.6,0,2.319,1.08,2.319c0.32,0,0.68-0.08,1.04-0.2V540.964z M895.515,530.366
		c-2.64,1.959-10.318,0.039-10.318,5.119c0,2.239,1.92,3.039,4,3.039c4.479,0,6.318-2.76,6.318-4.68V530.366z"/>
	<path d="M908.916,520.367h4.119v3h-4.119v12.838c0,1.6,0.439,1.84,2.56,1.84h1.56v2.999h-2.6c-3.52,0-4.919-0.72-4.919-4.52
		v-13.157h-3.52v-3h3.52v-6.199h3.399V520.367z"/>
	<path d="M934.434,534.485c-0.92,4.599-4.16,7.038-8.839,7.038c-6.599,0-9.719-4.599-9.918-10.878
		c0-6.238,4.079-10.758,9.718-10.758c7.319,0,9.559,6.839,9.358,11.838h-15.478c-0.12,3.6,1.92,6.799,6.439,6.799
		c2.839,0,4.759-1.32,5.359-4.039H934.434z M931.153,528.726c-0.199-3.239-2.56-5.839-5.959-5.839c-3.519,0-5.719,2.64-5.919,5.839
		H931.153z"/>
	<path d="M952.995,516.647h-3.399v-4.159h3.399V516.647z M949.596,520.367h3.399v20.677h-3.399V520.367z"/>
	<path d="M958.275,520.367h3.199v3.279h0.08c1.439-2.56,3.72-3.759,6.719-3.759c5.439,0,7.119,3.119,7.119,7.559v13.598h-3.399
		v-13.998c0-2.56-1.6-4.159-4.199-4.159c-4.12,0-6.119,2.76-6.119,6.479v11.678h-3.399V520.367z"/>
	<path d="M1000.554,519.888c6.559,0,10.038,4.759,10.038,10.838c0,6.039-3.479,10.798-10.038,10.798
		c-6.56,0-10.038-4.759-10.038-10.798C990.516,524.646,993.994,519.888,1000.554,519.888z M1000.554,538.524
		c3.56,0,6.438-2.8,6.438-7.799s-2.879-7.839-6.438-7.839s-6.439,2.84-6.439,7.839S996.994,538.524,1000.554,538.524z"/>
	<path d="M1014.715,520.367h3.399v2.8h0.08c1.119-2.279,3.719-3.279,6.599-3.279c6.358,0,9.519,5.039,9.519,10.878
		c0,5.879-3.12,10.758-9.438,10.758c-2.08,0-5.199-0.8-6.679-3.239h-0.08v10.679h-3.399V520.367z M1024.312,522.887
		c-4.599,0-6.318,3.96-6.318,7.799c0,4.039,1.84,7.839,6.519,7.839c4.64,0,6.199-3.959,6.199-7.999
		C1030.712,526.646,1028.712,522.887,1024.312,522.887z"/>
	<path d="M1055.951,534.485c-0.92,4.599-4.16,7.038-8.839,7.038c-6.599,0-9.719-4.599-9.918-10.878
		c0-6.238,4.079-10.758,9.718-10.758c7.319,0,9.559,6.839,9.358,11.838h-15.478c-0.12,3.6,1.92,6.799,6.439,6.799
		c2.839,0,4.759-1.32,5.359-4.039H1055.951z M1052.671,528.726c-0.199-3.239-2.56-5.839-5.959-5.839
		c-3.519,0-5.719,2.64-5.919,5.839H1052.671z"/>
	<path d="M1059.793,520.367h3.199v3.279h0.08c1.44-2.56,3.72-3.759,6.72-3.759c5.438,0,7.118,3.119,7.118,7.559v13.598h-3.399
		v-13.998c0-2.56-1.6-4.159-4.199-4.159c-4.119,0-6.119,2.76-6.119,6.479v11.678h-3.399V520.367z"/>
	<path d="M1085.633,516.647h-3.399v-4.159h3.399V516.647z M1082.233,520.367h3.399v20.677h-3.399V520.367z"/>
	<path d="M1090.913,520.367h3.199v3.279h0.08c1.439-2.56,3.72-3.759,6.719-3.759c5.439,0,7.119,3.119,7.119,7.559v13.598h-3.399
		v-13.998c0-2.56-1.6-4.159-4.199-4.159c-4.12,0-6.119,2.76-6.119,6.479v11.678h-3.399V520.367z"/>
	<path d="M1130.989,539.284c0,6.759-3.039,10.158-9.598,10.158c-3.88,0-8.359-1.6-8.559-6.079h3.399
		c0.119,2.439,3.159,3.359,5.358,3.359c4.439,0,6.199-3.199,6.199-7.838v-1.36h-0.08c-1.159,2.52-3.799,3.76-6.438,3.76
		c-6.159,0-9.238-4.84-9.238-10.479c0-4.879,2.359-10.918,9.558-10.918c2.6,0,4.92,1.159,6.159,3.439h0.04v-2.96h3.199V539.284z
		 M1127.63,530.286c0-3.64-1.6-7.399-5.879-7.399c-4.359,0-6.119,3.56-6.119,7.519c0,3.72,1.36,7.879,5.839,7.879
		C1125.95,538.284,1127.63,534.165,1127.63,530.286z"/>
	<path d="M1136.872,536.604h4.439v4.039c0,3.04-1.32,5.359-4.399,6.279v-2c1.76-0.64,2.439-2.56,2.319-3.879h-2.359V536.604z"/>
	<path d="M752.24,564.648h-3.399v-4.16h3.399V564.648z M748.841,568.367h3.399v20.677h-3.399V568.367z"/>
	<path d="M757.521,568.367h3.199v3.279h0.08c1.439-2.56,3.72-3.759,6.719-3.759c5.439,0,7.119,3.119,7.119,7.559v13.598h-3.399
		v-13.998c0-2.56-1.6-4.159-4.199-4.159c-4.12,0-6.119,2.76-6.119,6.479v11.678h-3.399V568.367z"/>
	<path d="M789.078,589.044h-3.639l-7.679-20.677h3.799l5.799,17.237h0.08l5.64-17.237h3.559L789.078,589.044z"/>
	<path d="M817.397,582.485c-0.92,4.599-4.16,7.038-8.839,7.038c-6.599,0-9.719-4.599-9.918-10.878
		c0-6.238,4.079-10.758,9.718-10.758c7.319,0,9.559,6.839,9.358,11.838h-15.478c-0.12,3.6,1.92,6.799,6.439,6.799
		c2.839,0,4.759-1.32,5.359-4.039H817.397z M814.117,576.726c-0.199-3.239-2.56-5.839-5.959-5.839c-3.519,0-5.719,2.64-5.919,5.839
		H814.117z"/>
	<path d="M823.319,582.525c0.12,3.039,2.8,3.999,5.559,3.999c2.12,0,4.999-0.479,4.999-3.079c0-5.319-13.518-1.72-13.518-9.679
		c0-4.159,4.079-5.879,7.719-5.879c4.64,0,8.159,1.439,8.479,6.479h-3.399c-0.199-2.64-2.6-3.479-4.799-3.479
		c-2.04,0-4.399,0.561-4.399,2.64c0,2.399,3.6,2.88,6.759,3.6c3.399,0.76,6.759,1.92,6.759,5.879c0,4.959-4.599,6.519-8.798,6.519
		c-4.64,0-8.559-1.879-8.759-6.998H823.319z"/>
	<path d="M845.959,568.367h4.119v3h-4.119v12.838c0,1.6,0.439,1.84,2.56,1.84h1.56v2.999h-2.6c-3.52,0-4.919-0.72-4.919-4.52
		v-13.157h-3.52v-3h3.52v-6.198h3.399V568.367z"/>
	<path d="M857.438,564.648h-3.399v-4.16h3.399V564.648z M854.039,568.367h3.399v20.677h-3.399V568.367z"/>
	<path d="M880.556,587.284c0,6.759-3.04,10.158-9.599,10.158c-3.879,0-8.358-1.6-8.559-6.079h3.399
		c0.12,2.439,3.159,3.359,5.359,3.359c4.439,0,6.199-3.199,6.199-7.838v-1.36h-0.08c-1.16,2.52-3.8,3.76-6.439,3.76
		c-6.159,0-9.238-4.84-9.238-10.479c0-4.879,2.359-10.918,9.559-10.918c2.6,0,4.919,1.159,6.159,3.439h0.04v-2.96h3.199V587.284z
		 M877.196,578.286c0-3.64-1.6-7.399-5.879-7.399c-4.359,0-6.119,3.56-6.119,7.519c0,3.72,1.359,7.879,5.839,7.879
		S877.196,582.165,877.196,578.286z"/>
	<path d="M903.995,588.964c-0.601,0.36-1.44,0.56-2.439,0.56c-1.76,0-2.88-0.959-2.88-3.199c-1.88,2.24-4.399,3.199-7.278,3.199
		c-3.76,0-6.839-1.64-6.839-5.799c0-4.679,3.479-5.719,6.998-6.358c3.72-0.76,6.959-0.44,6.959-3.04
		c0-2.999-2.479-3.439-4.599-3.439c-2.88,0-5,0.88-5.159,3.92h-3.399c0.199-5.119,4.119-6.919,8.758-6.919
		c3.72,0,7.759,0.84,7.759,5.679v10.639c0,1.6,0,2.319,1.08,2.319c0.32,0,0.68-0.08,1.04-0.2V588.964z M898.476,578.366
		c-2.64,1.959-10.318,0.039-10.318,5.119c0,2.239,1.92,3.039,4,3.039c4.479,0,6.318-2.76,6.318-4.68V578.366z"/>
	<path d="M911.877,568.367h4.119v3h-4.119v12.838c0,1.6,0.439,1.84,2.56,1.84h1.56v2.999h-2.6c-3.52,0-4.919-0.72-4.919-4.52
		v-13.157h-3.52v-3h3.52v-6.198h3.399V568.367z"/>
	<path d="M923.356,564.648h-3.399v-4.16h3.399V564.648z M919.957,568.367h3.399v20.677h-3.399V568.367z"/>
	<path d="M928.637,568.367h3.199v3.279h0.08c1.439-2.56,3.72-3.759,6.719-3.759c5.439,0,7.119,3.119,7.119,7.559v13.598h-3.399
		v-13.998c0-2.56-1.6-4.159-4.199-4.159c-4.12,0-6.119,2.76-6.119,6.479v11.678h-3.399V568.367z"/>
	<path d="M968.713,587.284c0,6.759-3.039,10.158-9.598,10.158c-3.88,0-8.359-1.6-8.559-6.079h3.399
		c0.119,2.439,3.159,3.359,5.358,3.359c4.439,0,6.199-3.199,6.199-7.838v-1.36h-0.08c-1.159,2.52-3.799,3.76-6.438,3.76
		c-6.159,0-9.238-4.84-9.238-10.479c0-4.879,2.359-10.918,9.558-10.918c2.6,0,4.92,1.159,6.159,3.439h0.04v-2.96h3.199V587.284z
		 M965.354,578.286c0-3.64-1.6-7.399-5.879-7.399c-4.359,0-6.119,3.56-6.119,7.519c0,3.72,1.36,7.879,5.839,7.879
		C963.674,586.284,965.354,582.165,965.354,578.286z"/>
	<path d="M974.596,584.604h4.439v4.039c0,3.04-1.32,5.359-4.399,6.279v-2c1.76-0.64,2.439-2.56,2.319-3.879h-2.359V584.604z"/>
	<path d="M1010.113,575.006c-0.52-2.599-2.279-4.119-5.119-4.119c-4.919,0-6.438,3.92-6.438,8.079c0,3.839,1.72,7.559,6.039,7.559
		c3.319,0,5.239-1.88,5.679-5.039h3.479c-0.76,5.079-3.879,8.038-9.118,8.038c-6.319,0-9.679-4.358-9.679-10.558
		s3.199-11.078,9.759-11.078c4.719,0,8.398,2.199,8.918,7.118H1010.113z"/>
	<path d="M1026.474,567.888c6.56,0,10.039,4.759,10.039,10.838c0,6.039-3.479,10.798-10.039,10.798
		c-6.559,0-10.038-4.759-10.038-10.798C1016.436,572.646,1019.915,567.888,1026.474,567.888z M1026.474,586.524
		c3.56,0,6.439-2.8,6.439-7.799s-2.88-7.839-6.439-7.839s-6.438,2.84-6.438,7.839S1022.914,586.524,1026.474,586.524z"/>
	<path d="M1040.395,568.367h3.2v4.359h0.08c1.64-3.359,3.919-4.959,7.599-4.839v3.6c-5.479,0-7.479,3.079-7.479,8.358v9.198h-3.399
		V568.367z"/>
	<path d="M1053.715,568.367h3.199v4.359h0.08c1.64-3.359,3.919-4.959,7.599-4.839v3.6c-5.479,0-7.479,3.079-7.479,8.358v9.198
		h-3.399V568.367z"/>
	<path d="M1084.792,582.485c-0.92,4.599-4.16,7.038-8.839,7.038c-6.599,0-9.719-4.599-9.918-10.878
		c0-6.238,4.079-10.758,9.718-10.758c7.319,0,9.559,6.839,9.358,11.838h-15.478c-0.12,3.6,1.92,6.799,6.439,6.799
		c2.839,0,4.759-1.32,5.359-4.039H1084.792z M1081.512,576.726c-0.199-3.239-2.56-5.839-5.959-5.839
		c-3.519,0-5.719,2.64-5.919,5.839H1081.512z"/>
	<path d="M1102.672,575.006c-0.521-2.599-2.28-4.119-5.119-4.119c-4.919,0-6.439,3.92-6.439,8.079c0,3.839,1.72,7.559,6.039,7.559
		c3.319,0,5.239-1.88,5.68-5.039h3.479c-0.761,5.079-3.88,8.038-9.119,8.038c-6.318,0-9.678-4.358-9.678-10.558
		s3.199-11.078,9.758-11.078c4.72,0,8.398,2.199,8.919,7.118H1102.672z"/>
	<path d="M1114.833,568.367h4.119v3h-4.119v12.838c0,1.6,0.439,1.84,2.56,1.84h1.56v2.999h-2.6c-3.52,0-4.919-0.72-4.919-4.52
		v-13.157h-3.52v-3h3.52v-6.198h3.399V568.367z"/>
	<path d="M1126.312,564.648h-3.399v-4.16h3.399V564.648z M1122.913,568.367h3.399v20.677h-3.399V568.367z"/>
	<path d="M1131.593,568.367h3.199v3.279h0.08c1.439-2.56,3.72-3.759,6.719-3.759c5.439,0,7.119,3.119,7.119,7.559v13.598h-3.399
		v-13.998c0-2.56-1.6-4.159-4.199-4.159c-4.12,0-6.119,2.76-6.119,6.479v11.678h-3.399V568.367z"/>
	<path d="M1171.669,587.284c0,6.759-3.039,10.158-9.598,10.158c-3.88,0-8.359-1.6-8.559-6.079h3.399
		c0.119,2.439,3.159,3.359,5.358,3.359c4.439,0,6.199-3.199,6.199-7.838v-1.36h-0.08c-1.159,2.52-3.799,3.76-6.438,3.76
		c-6.159,0-9.238-4.84-9.238-10.479c0-4.879,2.359-10.918,9.558-10.918c2.6,0,4.92,1.159,6.159,3.439h0.04v-2.96h3.199V587.284z
		 M1168.31,578.286c0-3.64-1.6-7.399-5.879-7.399c-4.359,0-6.119,3.56-6.119,7.519c0,3.72,1.36,7.879,5.839,7.879
		C1166.63,586.284,1168.31,582.165,1168.31,578.286z"/>
	<path d="M1177.552,584.604h4.439v4.039c0,3.04-1.32,5.359-4.399,6.279v-2c1.76-0.64,2.439-2.56,2.319-3.879h-2.359V584.604z"/>
	<path d="M766.958,636.964c-0.601,0.36-1.44,0.56-2.439,0.56c-1.76,0-2.88-0.959-2.88-3.199c-1.88,2.24-4.399,3.199-7.278,3.199
		c-3.76,0-6.839-1.64-6.839-5.799c0-4.679,3.479-5.719,6.998-6.358c3.72-0.76,6.959-0.44,6.959-3.04
		c0-2.999-2.479-3.439-4.599-3.439c-2.88,0-5,0.88-5.159,3.92h-3.399c0.199-5.119,4.119-6.919,8.758-6.919
		c3.72,0,7.759,0.84,7.759,5.679v10.639c0,1.6,0,2.319,1.08,2.319c0.32,0,0.68-0.08,1.04-0.2V636.964z M761.438,626.366
		c-2.64,1.959-10.318,0.039-10.318,5.119c0,2.239,1.92,3.039,4,3.039c4.479,0,6.318-2.76,6.318-4.68V626.366z"/>
	<path d="M770.12,616.367h3.199v3.279h0.08c1.44-2.56,3.72-3.759,6.72-3.759c5.438,0,7.118,3.119,7.118,7.559v13.598h-3.399v-13.998
		c0-2.56-1.6-4.159-4.199-4.159c-4.119,0-6.119,2.76-6.119,6.479v11.678h-3.399V616.367z"/>
	<path d="M810.838,637.044h-3.399v-2.8h-0.08c-1.12,2.28-3.72,3.279-6.6,3.279c-6.358,0-9.518-5.039-9.518-10.878
		s3.119-10.758,9.438-10.758c2.08,0,5.199,0.8,6.68,3.239h0.08v-10.639h3.399V637.044z M801.239,634.524
		c4.599,0,6.318-3.959,6.318-7.799c0-4.039-1.839-7.839-6.519-7.839c-4.639,0-6.199,3.96-6.199,7.999
		C794.84,630.765,796.84,634.524,801.239,634.524z"/>
	<path d="M841.238,623.006c-0.521-2.599-2.28-4.119-5.119-4.119c-4.919,0-6.439,3.92-6.439,8.079c0,3.839,1.72,7.559,6.039,7.559
		c3.319,0,5.239-1.88,5.68-5.039h3.479c-0.761,5.079-3.88,8.038-9.119,8.038c-6.318,0-9.678-4.358-9.678-10.558
		s3.199-11.078,9.758-11.078c4.72,0,8.398,2.199,8.919,7.118H841.238z"/>
	<path d="M848.88,608.488h3.399v28.556h-3.399V608.488z"/>
	<path d="M866.478,615.888c6.56,0,10.039,4.759,10.039,10.838c0,6.039-3.479,10.798-10.039,10.798
		c-6.559,0-10.038-4.759-10.038-10.798C856.439,620.646,859.919,615.888,866.478,615.888z M866.478,634.524
		c3.56,0,6.439-2.8,6.439-7.799s-2.88-7.839-6.439-7.839s-6.438,2.84-6.438,7.839S862.918,634.524,866.478,634.524z"/>
	<path d="M882.599,630.525c0.12,3.039,2.8,3.999,5.559,3.999c2.12,0,4.999-0.479,4.999-3.079c0-5.319-13.518-1.72-13.518-9.679
		c0-4.159,4.079-5.879,7.719-5.879c4.64,0,8.159,1.439,8.479,6.479h-3.399c-0.199-2.64-2.6-3.479-4.799-3.479
		c-2.04,0-4.399,0.561-4.399,2.64c0,2.399,3.6,2.88,6.759,3.6c3.399,0.76,6.759,1.92,6.759,5.879c0,4.959-4.599,6.519-8.798,6.519
		c-4.64,0-8.559-1.879-8.759-6.998H882.599z"/>
	<path d="M904.118,612.648h-3.399v-4.16h3.399V612.648z M900.719,616.367h3.399v20.677h-3.399V616.367z"/>
	<path d="M909.398,616.367h3.199v3.279h0.08c1.439-2.56,3.72-3.759,6.719-3.759c5.439,0,7.119,3.119,7.119,7.559v13.598h-3.399
		v-13.998c0-2.56-1.6-4.159-4.199-4.159c-4.12,0-6.119,2.76-6.119,6.479v11.678h-3.399V616.367z"/>
	<path d="M949.475,635.284c0,6.759-3.039,10.158-9.598,10.158c-3.88,0-8.359-1.6-8.559-6.079h3.399
		c0.119,2.439,3.159,3.359,5.358,3.359c4.439,0,6.199-3.199,6.199-7.838v-1.36h-0.08c-1.159,2.52-3.799,3.76-6.438,3.76
		c-6.159,0-9.238-4.84-9.238-10.479c0-4.879,2.359-10.918,9.558-10.918c2.6,0,4.92,1.159,6.159,3.439h0.04v-2.96h3.199V635.284z
		 M946.115,626.286c0-3.64-1.6-7.399-5.879-7.399c-4.359,0-6.119,3.56-6.119,7.519c0,3.72,1.36,7.879,5.839,7.879
		C944.436,634.284,946.115,630.165,946.115,626.286z"/>
	<path d="M984.034,636.964c-0.6,0.36-1.439,0.56-2.439,0.56c-1.76,0-2.879-0.959-2.879-3.199c-1.88,2.24-4.399,3.199-7.279,3.199
		c-3.76,0-6.839-1.64-6.839-5.799c0-4.679,3.479-5.719,6.999-6.358c3.719-0.76,6.959-0.44,6.959-3.04c0-2.999-2.479-3.439-4.6-3.439
		c-2.88,0-4.999,0.88-5.159,3.92h-3.399c0.2-5.119,4.119-6.919,8.759-6.919c3.719,0,7.759,0.84,7.759,5.679v10.639
		c0,1.6,0,2.319,1.079,2.319c0.32,0,0.681-0.08,1.04-0.2V636.964z M978.516,626.366c-2.64,1.959-10.318,0.039-10.318,5.119
		c0,2.239,1.92,3.039,3.999,3.039c4.479,0,6.319-2.76,6.319-4.68V626.366z"/>
	<path d="M1016.794,637.044h-3.399v-2.8h-0.08c-1.12,2.28-3.719,3.279-6.599,3.279c-6.359,0-9.519-5.039-9.519-10.878
		s3.119-10.758,9.438-10.758c2.08,0,5.199,0.8,6.679,3.239h0.08v-10.639h3.399V637.044z M1007.195,634.524
		c4.6,0,6.319-3.959,6.319-7.799c0-4.039-1.84-7.839-6.519-7.839c-4.64,0-6.199,3.96-6.199,7.999
		C1000.797,630.765,1002.796,634.524,1007.195,634.524z"/>
	<path d="M1039.674,630.485c-0.92,4.599-4.16,7.038-8.839,7.038c-6.599,0-9.719-4.599-9.918-10.878
		c0-6.238,4.079-10.758,9.718-10.758c7.319,0,9.559,6.839,9.358,11.838h-15.478c-0.12,3.6,1.92,6.799,6.439,6.799
		c2.839,0,4.759-1.32,5.359-4.039H1039.674z M1036.394,624.726c-0.199-3.239-2.56-5.839-5.959-5.839
		c-3.519,0-5.719,2.64-5.919,5.839H1036.394z"/>
	<path d="M1052.834,637.044h-3.639l-7.679-20.677h3.799l5.799,17.237h0.08l5.64-17.237h3.559L1052.834,637.044z"/>
	<path d="M1067.115,612.648h-3.399v-4.16h3.399V612.648z M1063.716,616.367h3.399v20.677h-3.399V616.367z"/>
	<path d="M1090.712,636.964c-0.6,0.36-1.439,0.56-2.439,0.56c-1.76,0-2.879-0.959-2.879-3.199c-1.88,2.24-4.399,3.199-7.279,3.199
		c-3.76,0-6.839-1.64-6.839-5.799c0-4.679,3.479-5.719,6.999-6.358c3.719-0.76,6.959-0.44,6.959-3.04c0-2.999-2.479-3.439-4.6-3.439
		c-2.88,0-4.999,0.88-5.159,3.92h-3.399c0.2-5.119,4.119-6.919,8.759-6.919c3.719,0,7.759,0.84,7.759,5.679v10.639
		c0,1.6,0,2.319,1.079,2.319c0.32,0,0.681-0.08,1.04-0.2V636.964z M1085.193,626.366c-2.64,1.959-10.318,0.039-10.318,5.119
		c0,2.239,1.92,3.039,3.999,3.039c4.479,0,6.319-2.76,6.319-4.68V626.366z"/>
	<path d="M1098.594,616.367h4.119v3h-4.119v12.838c0,1.6,0.44,1.84,2.56,1.84h1.56v2.999h-2.6c-3.519,0-4.919-0.72-4.919-4.52
		v-13.157h-3.52v-3h3.52v-6.198h3.399V616.367z"/>
	<path d="M1110.074,612.648h-3.399v-4.16h3.399V612.648z M1106.675,616.367h3.399v20.677h-3.399V616.367z"/>
	<path d="M1124.272,615.888c6.559,0,10.038,4.759,10.038,10.838c0,6.039-3.479,10.798-10.038,10.798
		c-6.56,0-10.038-4.759-10.038-10.798C1114.234,620.646,1117.713,615.888,1124.272,615.888z M1124.272,634.524
		c3.56,0,6.438-2.8,6.438-7.799s-2.879-7.839-6.438-7.839s-6.439,2.84-6.439,7.839S1120.713,634.524,1124.272,634.524z"/>
	<path d="M1138.313,616.367h3.199v3.279h0.08c1.439-2.56,3.72-3.759,6.719-3.759c5.439,0,7.119,3.119,7.119,7.559v13.598h-3.399
		v-13.998c0-2.56-1.6-4.159-4.199-4.159c-4.12,0-6.119,2.76-6.119,6.479v11.678h-3.399V616.367z"/>
</g>
<g>
	<g>
		<g>
			<path fill="#074164" d="M1421.599,952.35c-0.022,0.007-0.03,0.03-0.044,0.044c-9.929,9.886-26.001,9.843-35.895-0.079
				l-77.393-77.761c-9.872-9.931-9.836-25.974,0.044-35.854c0.02-0.014,0.035-0.029,0.041-0.043
				c9.941-9.893,26.013-9.858,35.891,0.078l77.405,77.763C1431.51,926.428,1431.485,942.457,1421.599,952.35L1421.599,952.35z"/>
			<path fill="#2C5871" d="M1410.556,951.867c-3.812,3.8-10.048,3.78-13.869-0.056l-77.393-77.764
				c-3.805-3.83-3.805-10.05,0.014-13.872c3.858-3.837,10.093-3.824,13.912,0.013l77.397,77.763
				c3.803,3.837,3.803,10.05-0.018,13.879L1410.556,951.867z"/>
			<path fill="#074164" d="M1157.305,687.374c0-0.007,0-0.007,0-0.007c18.808-18.813,43.793-29.141,70.332-29.099
				c54.694,0.1,99.115,44.679,99.016,99.366c-0.044,26.393-10.375,51.241-29.083,69.955c-18.802,18.798-43.764,29.119-70.292,29.083
				c-26.461-0.043-51.349-10.427-70.077-29.211c-18.724-18.793-29.012-43.711-28.963-70.176
				C1128.286,730.906,1138.602,706.072,1157.305,687.374L1157.305,687.374z"/>
			<g>
				<path fill="none" d="M1289.207,819.19"/>
			</g>
			<path fill="#D1ECFB" d="M1175.27,705.304c-13.923,13.923-21.609,32.408-21.653,52.046c-0.077,40.7,32.97,73.876,73.676,73.941
				c19.746,0.035,38.33-7.652,52.352-21.667l0,0c13.92-13.923,21.604-32.394,21.64-52.018c0.034-19.682-7.632-38.224-21.573-52.216
				c-13.939-13.995-32.457-21.71-52.149-21.746C1207.849,683.614,1189.27,691.302,1175.27,705.304L1175.27,705.304z"/>
			<path fill="#FFFFFF" d="M1279.713,705.39c-13.939-13.995-32.457-21.71-52.149-21.746c-5.544-0.007-10.994,0.612-16.281,1.793
				c-8.035,3.631-15.44,8.707-21.873,15.155c-13.926,13.915-21.606,32.4-21.642,52.047c-0.077,40.692,32.977,73.869,73.677,73.947
				c5.546,0.007,11.005-0.613,16.292-1.793c8.048-3.644,15.468-8.727,21.909-15.168l0,0c13.92-13.923,21.604-32.394,21.64-52.018
				C1301.32,737.924,1293.654,719.382,1279.713,705.39z"/>
			<g>
				<path fill="#0E303F" d="M1318.293,849.091c-4.958,4.948-12.994,4.926-17.945-0.041l-15.805-16.315
					c-4.94-4.967-4.933-12.983,0.015-17.93c0,0,0.021-0.007,0.03-0.021c4.964-4.94,12.989-4.933,17.944,0.044l15.805,16.32
					c4.937,4.955,4.929,12.977-0.018,17.923C1318.318,849.07,1318.296,849.084,1318.293,849.091z"/>
			</g>
			<g>
				<path fill="#2C5871" d="M1227.625,663.878c51.602,0.099,93.509,42.159,93.416,93.749c-0.053,24.92-9.797,48.352-27.443,65.998
					c-17.681,17.693-41.163,27.432-66.129,27.432c-0.056,0-0.117,0-0.175,0l0.022-12.485c0.049,0,0.106,0,0.153,0
					c21.631,0,41.97-8.442,57.294-23.781c15.298-15.288,23.747-35.596,23.794-57.185c0.078-44.708-36.239-81.15-80.956-81.243
					L1227.625,663.878L1227.625,663.878z"/>
			</g>
		</g>
	</g>
</g>
</svg>
