<?xml version="1.0" encoding="utf-8"?>
<!-- Generator: Adobe Illustrator 19.2.1, SVG Export Plug-In . SVG Version: 6.00 Build 0)  -->
<svg version="1.1" baseProfile="basic" id="Layer_1"
	 xmlns="http://www.w3.org/2000/svg" xmlns:xlink="http://www.w3.org/1999/xlink" x="0px" y="0px" viewBox="0 0 2048 1000"
	 xml:space="preserve">
<rect fill="#B9E5FB" width="2048" height="1000"/>
<line fill="none" stroke="#343636" stroke-width="7.1988" stroke-miterlimit="10" x1="48.187" y1="51.9" x2="2008.374" y2="51.9"/>
<g>
	<rect x="801.018" y="177.706" fill="none" width="709.384" height="44.807"/>
	<path d="M804.055,177.701h14.17c7.877,0,10.87,4.973,10.87,10.077c0,5.105-2.993,10.078-10.87,10.078h-7.261v11.266h-6.909V177.701
		z M810.963,192.487h5.369c3.168,0,6.073-0.704,6.073-4.709c0-4.004-2.905-4.708-6.073-4.708h-5.369V192.487z"/>
	<path d="M832.742,186.37h5.941v4.225h0.088c1.188-2.86,4.137-4.84,7.261-4.84c0.484,0,0.924,0.088,1.364,0.22v5.809
		c-0.572-0.132-1.496-0.22-2.244-0.22c-4.621,0-6.161,3.256-6.161,7.305v10.253h-6.249V186.37z"/>
	<path d="M855.006,199.264c0.176,4.004,2.068,5.765,5.589,5.765c2.508,0,4.533-1.54,4.929-2.948h5.501
		c-1.76,5.413-5.501,7.657-10.649,7.657c-7.173,0-11.618-4.929-11.618-11.97c0-6.821,4.708-12.014,11.618-12.014
		c7.745,0,11.529,6.513,11.045,13.51H855.006z M865.172,195.304c-0.572-3.168-1.936-4.841-4.973-4.841
		c-4.048,0-5.061,3.081-5.193,4.841H865.172z"/>
	<path d="M875.069,194.423h13.246v5.369h-13.246V194.423z"/>
	<path d="M893.021,186.37h5.941v4.225h0.088c1.188-2.86,4.137-4.84,7.261-4.84c0.484,0,0.924,0.088,1.364,0.22v5.809
		c-0.572-0.132-1.496-0.22-2.244-0.22c-4.621,0-6.161,3.256-6.161,7.305v10.253h-6.249V186.37z"/>
	<path d="M915.285,199.264c0.176,4.004,2.068,5.765,5.589,5.765c2.508,0,4.533-1.54,4.929-2.948h5.501
		c-1.76,5.413-5.501,7.657-10.649,7.657c-7.173,0-11.618-4.929-11.618-11.97c0-6.821,4.708-12.014,11.618-12.014
		c7.745,0,11.529,6.513,11.045,13.51H915.285z M925.451,195.304c-0.572-3.168-1.936-4.841-4.973-4.841
		c-4.048,0-5.061,3.081-5.193,4.841H925.451z"/>
	<path d="M935.568,177.701h6.249v31.42h-6.249V177.701z"/>
	<path d="M951.893,199.264c0.176,4.004,2.068,5.765,5.589,5.765c2.508,0,4.533-1.54,4.929-2.948h5.501
		c-1.76,5.413-5.501,7.657-10.649,7.657c-7.173,0-11.618-4.929-11.618-11.97c0-6.821,4.708-12.014,11.618-12.014
		c7.745,0,11.529,6.513,11.045,13.51H951.893z M962.058,195.304c-0.572-3.168-1.936-4.841-4.973-4.841
		c-4.048,0-5.061,3.081-5.193,4.841H962.058z"/>
	<path d="M971.735,193.367c0.352-5.809,5.589-7.613,10.693-7.613c4.533,0,9.99,1.012,9.99,6.469v11.838
		c0,2.068,0.22,4.136,0.792,5.061h-6.337c-0.22-0.704-0.396-1.452-0.44-2.2c-1.98,2.068-4.841,2.816-7.657,2.816
		c-4.356,0-7.745-2.156-7.745-6.821c0.088-10.341,15.402-4.796,15.138-9.901c0-2.64-1.848-3.08-4.049-3.08
		c-2.42,0-3.917,0.968-4.136,3.432H971.735z M986.169,197.988c-1.056,0.924-3.256,0.968-5.193,1.32
		c-1.936,0.352-3.696,1.056-3.696,3.345c0,2.288,1.804,2.904,3.829,2.904c4.885,0,5.061-3.829,5.061-5.237V197.988z"/>
	<path d="M1002.095,201.729c0,2.685,2.376,3.829,4.797,3.829c1.76,0,4.093-0.704,4.093-2.904c0-1.893-2.641-2.597-7.085-3.521
		c-3.653-0.836-7.217-2.024-7.217-6.073c0-5.809,5.017-7.305,9.901-7.305c4.929,0,9.549,1.672,10.034,7.261h-5.941
		c-0.176-2.42-2.024-3.08-4.269-3.08c-1.408,0-3.477,0.22-3.477,2.112c0,2.244,3.564,2.552,7.085,3.388
		c3.652,0.836,7.217,2.156,7.217,6.381c0,5.985-5.237,7.921-10.386,7.921c-5.281,0-10.474-1.98-10.693-8.009H1002.095z"/>
	<path d="M1026.031,199.264c0.176,4.004,2.068,5.765,5.588,5.765c2.509,0,4.533-1.54,4.93-2.948h5.5
		c-1.76,5.413-5.5,7.657-10.648,7.657c-7.174,0-11.618-4.929-11.618-11.97c0-6.821,4.708-12.014,11.618-12.014
		c7.744,0,11.529,6.513,11.045,13.51H1026.031z M1036.196,195.304c-0.571-3.168-1.937-4.841-4.973-4.841
		c-4.048,0-5.061,3.081-5.192,4.841H1036.196z"/>
	<path d="M1059.029,177.701h13.555c8.141,0,14.258,5.148,14.258,15.534c0,9.109-4.665,15.886-14.258,15.886h-13.555V177.701z
		 M1065.938,203.313h6.161c4.004,0,7.833-2.465,7.833-9.417c0-6.337-2.244-10.386-9.065-10.386h-4.929V203.313z"/>
	<path d="M1096.122,199.264c0.177,4.004,2.068,5.765,5.589,5.765c2.508,0,4.533-1.54,4.929-2.948h5.501
		c-1.76,5.413-5.501,7.657-10.649,7.657c-7.173,0-11.618-4.929-11.618-11.97c0-6.821,4.709-12.014,11.618-12.014
		c7.745,0,11.529,6.513,11.046,13.51H1096.122z M1106.287,195.304c-0.571-3.168-1.936-4.841-4.973-4.841
		c-4.048,0-5.061,3.081-5.192,4.841H1106.287z"/>
	<path d="M1121.07,201.729c0,2.685,2.375,3.829,4.796,3.829c1.761,0,4.093-0.704,4.093-2.904c0-1.893-2.641-2.597-7.085-3.521
		c-3.653-0.836-7.218-2.024-7.218-6.073c0-5.809,5.018-7.305,9.902-7.305c4.928,0,9.549,1.672,10.033,7.261h-5.941
		c-0.176-2.42-2.023-3.08-4.268-3.08c-1.408,0-3.477,0.22-3.477,2.112c0,2.244,3.564,2.552,7.084,3.388
		c3.652,0.836,7.217,2.156,7.217,6.381c0,5.985-5.236,7.921-10.385,7.921c-5.281,0-10.474-1.98-10.693-8.009H1121.07z"/>
	<path d="M1146.281,182.85h-6.249v-5.148h6.249V182.85z M1140.032,186.37h6.249v22.751h-6.249V186.37z"/>
	<path d="M1173.079,207.669c0,3.74-1.364,10.077-11.794,10.077c-4.488,0-9.682-2.156-10.033-7.305h6.205
		c0.572,2.332,2.42,3.125,4.664,3.125c3.477,0,5.061-2.333,5.018-5.633v-2.993h-0.088c-1.365,2.42-4.049,3.521-6.822,3.521
		c-6.864,0-9.725-5.193-9.725-11.441c0-5.897,3.432-11.266,9.77-11.266c2.992,0,5.236,1.012,6.777,3.652h0.088v-3.037h5.94V207.669z
		 M1167.139,197.46c0-3.697-1.277-6.997-5.325-6.997c-3.521,0-5.062,3.081-5.062,6.469c0,3.257,1.189,6.821,5.062,6.821
		C1165.378,203.753,1167.139,200.716,1167.139,197.46z"/>
	<path d="M1178.092,186.37h5.941v3.168h0.131c1.584-2.596,4.312-3.784,6.953-3.784c6.646,0,8.317,3.74,8.317,9.373v13.994h-6.249
		v-12.85c0-3.741-1.056-5.589-4.004-5.589c-3.389,0-4.842,1.892-4.842,6.513v11.926h-6.248V186.37z"/>
	<path d="M1238.021,188.263c-0.483-3.125-3.477-5.501-6.864-5.501c-6.205,0-8.538,5.281-8.538,10.782
		c0,5.237,2.333,10.518,8.538,10.518c4.225,0,6.601-2.86,7.129-7.041h6.688c-0.703,7.877-6.072,12.85-13.817,12.85
		c-9.682,0-15.446-7.261-15.446-16.326c0-9.33,5.765-16.59,15.446-16.59c6.864,0,12.718,4.048,13.554,11.31H1238.021z"/>
	<path d="M1249.02,177.701h6.248v11.837h0.133c1.584-2.596,4.312-3.784,6.645-3.784c6.645,0,8.316,3.74,8.316,9.373v13.994h-6.248
		v-12.85c0-3.741-1.057-5.589-4.005-5.589c-3.388,0-4.841,1.892-4.841,6.513v11.926h-6.248V177.701z"/>
	<path d="M1274.846,193.367c0.353-5.809,5.59-7.613,10.693-7.613c4.533,0,9.99,1.012,9.99,6.469v11.838
		c0,2.068,0.22,4.136,0.792,5.061h-6.337c-0.221-0.704-0.396-1.452-0.439-2.2c-1.98,2.068-4.842,2.816-7.658,2.816
		c-4.355,0-7.744-2.156-7.744-6.821c0.088-10.341,15.402-4.796,15.138-9.901c0-2.64-1.849-3.08-4.048-3.08
		c-2.421,0-3.918,0.968-4.137,3.432H1274.846z M1289.28,197.988c-1.056,0.924-3.257,0.968-5.192,1.32
		c-1.937,0.352-3.697,1.056-3.697,3.345c0,2.288,1.805,2.904,3.829,2.904c4.884,0,5.061-3.829,5.061-5.237V197.988z"/>
	<path d="M1300.365,186.37h5.941v3.168h0.132c1.585-2.596,4.312-3.784,6.953-3.784c6.646,0,8.317,3.74,8.317,9.373v13.994h-6.249
		v-12.85c0-3.741-1.056-5.589-4.005-5.589c-3.389,0-4.84,1.892-4.84,6.513v11.926h-6.25V186.37z"/>
	<path d="M1348.328,207.669c0,3.74-1.364,10.077-11.794,10.077c-4.488,0-9.681-2.156-10.033-7.305h6.204
		c0.572,2.332,2.421,3.125,4.666,3.125c3.477,0,5.061-2.333,5.016-5.633v-2.993h-0.088c-1.363,2.42-4.049,3.521-6.82,3.521
		c-6.865,0-9.726-5.193-9.726-11.441c0-5.897,3.433-11.266,9.769-11.266c2.993,0,5.237,1.012,6.777,3.652h0.088v-3.037h5.941
		V207.669z M1342.387,197.46c0-3.697-1.275-6.997-5.324-6.997c-3.521,0-5.061,3.081-5.061,6.469c0,3.257,1.188,6.821,5.061,6.821
		C1340.627,203.753,1342.387,200.716,1342.387,197.46z"/>
	<path d="M1358.489,199.264c0.177,4.004,2.068,5.765,5.589,5.765c2.508,0,4.533-1.54,4.929-2.948h5.501
		c-1.76,5.413-5.501,7.657-10.649,7.657c-7.173,0-11.618-4.929-11.618-11.97c0-6.821,4.709-12.014,11.618-12.014
		c7.745,0,11.529,6.513,11.046,13.51H1358.489z M1368.654,195.304c-0.571-3.168-1.936-4.841-4.973-4.841
		c-4.048,0-5.061,3.081-5.192,4.841H1368.654z"/>
	<path d="M1383.438,201.729c0,2.685,2.375,3.829,4.796,3.829c1.761,0,4.093-0.704,4.093-2.904c0-1.893-2.641-2.597-7.085-3.521
		c-3.653-0.836-7.218-2.024-7.218-6.073c0-5.809,5.018-7.305,9.902-7.305c4.928,0,9.549,1.672,10.033,7.261h-5.941
		c-0.176-2.42-2.023-3.08-4.268-3.08c-1.408,0-3.477,0.22-3.477,2.112c0,2.244,3.564,2.552,7.084,3.388
		c3.652,0.836,7.217,2.156,7.217,6.381c0,5.985-5.236,7.921-10.385,7.921c-5.281,0-10.474-1.98-10.693-8.009H1383.438z"/>
</g>
<path fill="#1365A8" d="M775.823,201.857c0,45.973-37.268,83.241-83.241,83.241c-45.973,0-83.241-37.268-83.241-83.241
	c0-45.973,37.268-83.241,83.241-83.241C738.555,118.616,775.823,155.884,775.823,201.857"/>
<path fill="#1365A8" d="M775.823,766.004c0,45.973-37.268,83.242-83.241,83.242c-45.973,0-83.241-37.269-83.241-83.242
	s37.268-83.24,83.241-83.24C738.555,682.764,775.823,720.031,775.823,766.004"/>
<path fill="#1365A8" d="M775.823,488.946c0,45.972-37.268,83.242-83.241,83.242c-45.973,0-83.241-37.269-83.241-83.242
	c0-45.973,37.268-83.241,83.241-83.241C738.555,405.705,775.823,442.973,775.823,488.946"/>
<g>
	<rect x="801.018" y="466.511" fill="none" width="649.387" height="44.871"/>
	<path d="M804.055,466.506h14.17c7.877,0,10.87,4.973,10.87,10.077c0,5.105-2.993,10.078-10.87,10.078h-7.261v11.266h-6.909V466.506
		z M810.963,481.292h5.369c3.168,0,6.073-0.704,6.073-4.709c0-4.004-2.905-4.708-6.073-4.708h-5.369V481.292z"/>
	<path d="M843.788,474.559c7.173,0,11.794,4.752,11.794,12.014c0,7.217-4.621,11.97-11.794,11.97c-7.129,0-11.75-4.753-11.75-11.97
		C832.038,479.312,836.659,474.559,843.788,474.559z M843.788,493.833c4.269,0,5.545-3.608,5.545-7.261
		c0-3.653-1.276-7.305-5.545-7.305c-4.225,0-5.501,3.652-5.501,7.305C838.287,490.225,839.563,493.833,843.788,493.833z"/>
	<path d="M864.466,490.533c0,2.685,2.376,3.829,4.797,3.829c1.76,0,4.093-0.704,4.093-2.904c0-1.893-2.641-2.597-7.085-3.521
		c-3.653-0.836-7.217-2.024-7.217-6.073c0-5.809,5.017-7.305,9.901-7.305c4.929,0,9.549,1.672,10.034,7.261h-5.941
		c-0.176-2.42-2.024-3.08-4.269-3.08c-1.408,0-3.477,0.22-3.477,2.112c0,2.244,3.564,2.552,7.085,3.388
		c3.652,0.836,7.217,2.156,7.217,6.381c0,5.985-5.237,7.921-10.386,7.921c-5.281,0-10.474-1.98-10.693-8.009H864.466z"/>
	<path d="M891.174,475.175h4.577v4.181h-4.577v11.266c0,2.112,0.528,2.641,2.641,2.641c0.704,0,1.364-0.044,1.936-0.176v4.885
		c-1.056,0.176-2.42,0.22-3.652,0.22c-3.873,0-7.173-0.836-7.173-5.413v-13.422h-3.784v-4.181h3.784v-6.821h6.249V475.175z"/>
	<path d="M898.697,483.228h13.246v5.369h-13.246V483.228z"/>
	<path d="M916.649,475.175h5.941v4.225h0.088c1.188-2.86,4.137-4.84,7.261-4.84c0.484,0,0.924,0.088,1.364,0.22v5.809
		c-0.572-0.132-1.496-0.22-2.244-0.22c-4.621,0-6.161,3.256-6.161,7.305v10.253h-6.249V475.175z"/>
	<path d="M938.913,488.069c0.176,4.004,2.068,5.765,5.589,5.765c2.508,0,4.533-1.54,4.929-2.948h5.501
		c-1.76,5.413-5.501,7.657-10.649,7.657c-7.173,0-11.618-4.929-11.618-11.97c0-6.821,4.708-12.014,11.618-12.014
		c7.745,0,11.529,6.513,11.045,13.51H938.913z M949.079,484.108c-0.572-3.168-1.936-4.841-4.973-4.841
		c-4.048,0-5.061,3.081-5.193,4.841H949.079z"/>
	<path d="M959.196,466.506h6.249v31.42h-6.249V466.506z"/>
	<path d="M975.521,488.069c0.176,4.004,2.068,5.765,5.589,5.765c2.508,0,4.533-1.54,4.929-2.948h5.501
		c-1.76,5.413-5.501,7.657-10.649,7.657c-7.173,0-11.618-4.929-11.618-11.97c0-6.821,4.708-12.014,11.618-12.014
		c7.745,0,11.529,6.513,11.045,13.51H975.521z M985.686,484.108c-0.572-3.168-1.936-4.841-4.973-4.841
		c-4.048,0-5.061,3.081-5.193,4.841H985.686z"/>
	<path d="M995.363,482.172c0.352-5.809,5.589-7.613,10.693-7.613c4.533,0,9.99,1.012,9.99,6.469v11.838
		c0,2.068,0.22,4.136,0.792,5.061h-6.337c-0.22-0.704-0.396-1.452-0.44-2.2c-1.98,2.068-4.841,2.816-7.657,2.816
		c-4.356,0-7.745-2.156-7.745-6.821c0.088-10.341,15.402-4.796,15.138-9.901c0-2.64-1.848-3.08-4.049-3.08
		c-2.42,0-3.917,0.968-4.136,3.432H995.363z M1009.797,486.792c-1.056,0.924-3.256,0.968-5.193,1.32
		c-1.936,0.352-3.696,1.056-3.696,3.345c0,2.288,1.804,2.904,3.829,2.904c4.885,0,5.061-3.829,5.061-5.237V486.792z"/>
	<path d="M1025.723,490.533c0,2.685,2.377,3.829,4.797,3.829c1.761,0,4.094-0.704,4.094-2.904c0-1.893-2.641-2.597-7.086-3.521
		c-3.652-0.836-7.217-2.024-7.217-6.073c0-5.809,5.017-7.305,9.901-7.305c4.929,0,9.55,1.672,10.034,7.261h-5.941
		c-0.176-2.42-2.024-3.08-4.269-3.08c-1.408,0-3.477,0.22-3.477,2.112c0,2.244,3.564,2.552,7.085,3.388
		c3.652,0.836,7.217,2.156,7.217,6.381c0,5.985-5.236,7.921-10.385,7.921c-5.281,0-10.474-1.98-10.694-8.009H1025.723z"/>
	<path d="M1049.658,488.069c0.177,4.004,2.068,5.765,5.59,5.765c2.508,0,4.532-1.54,4.928-2.948h5.502
		c-1.761,5.413-5.502,7.657-10.65,7.657c-7.173,0-11.617-4.929-11.617-11.97c0-6.821,4.709-12.014,11.617-12.014
		c7.746,0,11.529,6.513,11.046,13.51H1049.658z M1059.824,484.108c-0.572-3.168-1.936-4.841-4.973-4.841
		c-4.049,0-5.061,3.081-5.193,4.841H1059.824z"/>
	<path d="M1082.658,466.506h13.553c8.142,0,14.259,5.148,14.259,15.534c0,9.109-4.665,15.886-14.259,15.886h-13.553V466.506z
		 M1089.566,492.118h6.161c4.005,0,7.833-2.465,7.833-9.417c0-6.337-2.244-10.386-9.065-10.386h-4.929V492.118z"/>
	<path d="M1119.75,488.069c0.176,4.004,2.068,5.765,5.589,5.765c2.509,0,4.532-1.54,4.929-2.948h5.501
		c-1.761,5.413-5.501,7.657-10.649,7.657c-7.174,0-11.617-4.929-11.617-11.97c0-6.821,4.708-12.014,11.617-12.014
		c7.745,0,11.529,6.513,11.045,13.51H1119.75z M1129.916,484.108c-0.572-3.168-1.937-4.841-4.973-4.841
		c-4.049,0-5.061,3.081-5.193,4.841H1129.916z"/>
	<path d="M1144.697,490.533c0,2.685,2.377,3.829,4.797,3.829c1.76,0,4.093-0.704,4.093-2.904c0-1.893-2.641-2.597-7.085-3.521
		c-3.652-0.836-7.217-2.024-7.217-6.073c0-5.809,5.016-7.305,9.9-7.305c4.93,0,9.55,1.672,10.034,7.261h-5.94
		c-0.177-2.42-2.025-3.08-4.27-3.08c-1.408,0-3.477,0.22-3.477,2.112c0,2.244,3.564,2.552,7.086,3.388
		c3.652,0.836,7.217,2.156,7.217,6.381c0,5.985-5.236,7.921-10.386,7.921c-5.28,0-10.474-1.98-10.693-8.009H1144.697z"/>
	<path d="M1169.909,471.654h-6.249v-5.148h6.249V471.654z M1163.66,475.175h6.249v22.751h-6.249V475.175z"/>
	<path d="M1196.707,496.474c0,3.741-1.364,10.077-11.794,10.077c-4.488,0-9.681-2.156-10.033-7.304h6.204
		c0.572,2.332,2.421,3.125,4.666,3.125c3.477,0,5.061-2.332,5.016-5.633v-2.993h-0.088c-1.363,2.42-4.049,3.521-6.82,3.521
		c-6.865,0-9.726-5.193-9.726-11.441c0-5.897,3.433-11.266,9.769-11.266c2.993,0,5.237,1.012,6.777,3.652h0.088v-3.037h5.941
		V496.474z M1190.766,486.265c0-3.697-1.275-6.997-5.324-6.997c-3.521,0-5.061,3.081-5.061,6.469c0,3.257,1.188,6.821,5.061,6.821
		C1189.006,492.558,1190.766,489.521,1190.766,486.265z"/>
	<path d="M1201.72,475.175h5.94v3.168h0.133c1.584-2.596,4.312-3.784,6.953-3.784c6.645,0,8.316,3.74,8.316,9.373v13.994h-6.248
		v-12.85c0-3.741-1.057-5.589-4.006-5.589c-3.388,0-4.84,1.892-4.84,6.513v11.926h-6.249V475.175z"/>
	<path d="M1261.65,477.067c-0.484-3.125-3.477-5.501-6.865-5.501c-6.205,0-8.537,5.281-8.537,10.782
		c0,5.237,2.332,10.518,8.537,10.518c4.225,0,6.601-2.86,7.129-7.041h6.689c-0.705,7.877-6.073,12.85-13.818,12.85
		c-9.682,0-15.446-7.261-15.446-16.326c0-9.33,5.765-16.59,15.446-16.59c6.865,0,12.718,4.048,13.554,11.31H1261.65z"/>
	<path d="M1272.646,466.506h6.25v11.837h0.131c1.584-2.596,4.312-3.784,6.646-3.784c6.646,0,8.317,3.74,8.317,9.373v13.994h-6.249
		v-12.85c0-3.741-1.056-5.589-4.005-5.589c-3.389,0-4.84,1.892-4.84,6.513v11.926h-6.25V466.506z"/>
	<path d="M1298.475,482.172c0.352-5.809,5.588-7.613,10.693-7.613c4.532,0,9.989,1.012,9.989,6.469v11.838
		c0,2.068,0.22,4.136,0.792,5.061h-6.337c-0.22-0.704-0.396-1.452-0.44-2.2c-1.98,2.068-4.84,2.816-7.656,2.816
		c-4.357,0-7.746-2.156-7.746-6.821c0.088-10.341,15.402-4.796,15.139-9.901c0-2.64-1.848-3.08-4.049-3.08
		c-2.42,0-3.916,0.968-4.137,3.432H1298.475z M1312.908,486.792c-1.057,0.924-3.256,0.968-5.193,1.32
		c-1.936,0.352-3.695,1.056-3.695,3.345c0,2.288,1.804,2.904,3.828,2.904c4.885,0,5.061-3.829,5.061-5.237V486.792z"/>
	<path d="M1323.994,475.175h5.94v3.168h0.132c1.584-2.596,4.312-3.784,6.953-3.784c6.645,0,8.316,3.74,8.316,9.373v13.994h-6.248
		v-12.85c0-3.741-1.057-5.589-4.005-5.589c-3.388,0-4.841,1.892-4.841,6.513v11.926h-6.248V475.175z"/>
	<path d="M1371.956,496.474c0,3.741-1.364,10.077-11.794,10.077c-4.488,0-9.682-2.156-10.033-7.304h6.205
		c0.572,2.332,2.42,3.125,4.664,3.125c3.477,0,5.061-2.332,5.018-5.633v-2.993h-0.088c-1.365,2.42-4.049,3.521-6.822,3.521
		c-6.864,0-9.725-5.193-9.725-11.441c0-5.897,3.432-11.266,9.77-11.266c2.992,0,5.236,1.012,6.777,3.652h0.088v-3.037h5.94V496.474z
		 M1366.016,486.265c0-3.697-1.277-6.997-5.325-6.997c-3.521,0-5.062,3.081-5.062,6.469c0,3.257,1.189,6.821,5.062,6.821
		C1364.255,492.558,1366.016,489.521,1366.016,486.265z"/>
	<path d="M1382.117,488.069c0.176,4.004,2.068,5.765,5.589,5.765c2.509,0,4.532-1.54,4.929-2.948h5.501
		c-1.761,5.413-5.501,7.657-10.649,7.657c-7.174,0-11.617-4.929-11.617-11.97c0-6.821,4.708-12.014,11.617-12.014
		c7.745,0,11.529,6.513,11.045,13.51H1382.117z M1392.283,484.108c-0.572-3.168-1.937-4.841-4.973-4.841
		c-4.049,0-5.061,3.081-5.193,4.841H1392.283z"/>
	<path d="M1407.064,490.533c0,2.685,2.377,3.829,4.797,3.829c1.76,0,4.093-0.704,4.093-2.904c0-1.893-2.641-2.597-7.085-3.521
		c-3.652-0.836-7.217-2.024-7.217-6.073c0-5.809,5.016-7.305,9.9-7.305c4.93,0,9.55,1.672,10.034,7.261h-5.94
		c-0.177-2.42-2.025-3.08-4.27-3.08c-1.408,0-3.477,0.22-3.477,2.112c0,2.244,3.564,2.552,7.086,3.388
		c3.652,0.836,7.217,2.156,7.217,6.381c0,5.985-5.236,7.921-10.386,7.921c-5.28,0-10.474-1.98-10.693-8.009H1407.064z"/>
</g>
<g>
	<rect x="801.018" y="747.102" fill="none" width="916.374" height="37.806"/>
	<path d="M826.762,774.953c-2.464,3.168-5.589,4.312-8.625,4.312c-9.682,0-15.446-7.262-15.446-16.326
		c0-9.33,5.765-16.591,15.446-16.591c6.425,0,12.542,3.917,13.246,11.089h-6.601c-0.836-3.52-3.345-5.28-6.645-5.28
		c-6.205,0-8.538,5.28-8.538,10.782c0,5.236,2.333,10.518,8.538,10.518c4.533,0,7.085-2.377,7.481-6.777h-6.953v-5.148h13.202
		v16.986h-4.401L826.762,774.953z"/>
	<path d="M847.835,755.15c7.173,0,11.794,4.752,11.794,12.014c0,7.217-4.621,11.969-11.794,11.969
		c-7.129,0-11.75-4.752-11.75-11.969C836.086,759.902,840.707,755.15,847.835,755.15z M847.835,774.424
		c4.269,0,5.545-3.607,5.545-7.26c0-3.653-1.276-7.306-5.545-7.306c-4.225,0-5.501,3.652-5.501,7.306
		C842.334,770.816,843.611,774.424,847.835,774.424z"/>
	<path d="M874.719,755.15c7.173,0,11.794,4.752,11.794,12.014c0,7.217-4.621,11.969-11.794,11.969
		c-7.129,0-11.75-4.752-11.75-11.969C862.97,759.902,867.59,755.15,874.719,755.15z M874.719,774.424
		c4.269,0,5.545-3.607,5.545-7.26c0-3.653-1.276-7.306-5.545-7.306c-4.225,0-5.501,3.652-5.501,7.306
		C869.218,770.816,870.495,774.424,874.719,774.424z"/>
	<path d="M906.796,775.613h-0.088c-1.453,2.464-3.961,3.52-6.909,3.52c-6.865,0-10.209-5.853-10.209-12.189
		c0-6.117,3.389-11.793,10.078-11.793c2.684,0,5.325,1.144,6.733,3.388h0.088v-11.441h6.249v31.421h-5.941V775.613z
		 M901.339,759.858c-4.092,0-5.5,3.564-5.5,7.261c0,3.564,1.628,7.305,5.5,7.305c4.093,0,5.369-3.607,5.369-7.348
		C906.708,763.379,905.388,759.858,901.339,759.858z"/>
	<path d="M934.822,768.66c0.176,4.004,2.068,5.764,5.589,5.764c2.508,0,4.533-1.539,4.929-2.947h5.501
		c-1.76,5.412-5.501,7.656-10.649,7.656c-7.173,0-11.618-4.928-11.618-11.969c0-6.822,4.708-12.014,11.618-12.014
		c7.745,0,11.529,6.512,11.045,13.51H934.822z M944.987,764.699c-0.572-3.168-1.936-4.841-4.973-4.841
		c-4.048,0-5.061,3.081-5.193,4.841H944.987z"/>
	<path d="M960.737,766.547l-7.481-10.781h7.129l4.005,5.941l3.96-5.941h6.909l-7.481,10.65l8.405,12.102h-7.129l-4.753-7.174
		l-4.752,7.174h-6.997L960.737,766.547z"/>
	<path d="M978.292,762.763c0.352-5.809,5.589-7.612,10.693-7.612c4.533,0,9.99,1.012,9.99,6.469v11.838
		c0,2.068,0.22,4.136,0.792,5.061h-6.337c-0.22-0.705-0.396-1.453-0.44-2.201c-1.98,2.068-4.841,2.816-7.657,2.816
		c-4.356,0-7.745-2.156-7.745-6.82c0.088-10.342,15.402-4.797,15.138-9.902c0-2.64-1.848-3.08-4.049-3.08
		c-2.42,0-3.917,0.969-4.136,3.433H978.292z M992.726,767.383c-1.056,0.925-3.256,0.969-5.193,1.32
		c-1.936,0.353-3.696,1.057-3.696,3.346c0,2.287,1.804,2.904,3.829,2.904c4.885,0,5.061-3.829,5.061-5.237V767.383z"/>
	<path d="M1003.987,755.766h5.897v3.08h0.088c1.628-2.332,3.961-3.695,6.953-3.695c2.86,0,5.413,1.012,6.645,3.783
		c1.364-1.979,3.696-3.783,6.865-3.783c4.84,0,8.316,2.244,8.316,8.141v15.227h-6.248v-12.895c0-3.036-0.264-5.545-3.829-5.545
		c-3.521,0-4.181,2.949-4.181,5.766v12.674h-6.249v-12.762c0-2.641,0.176-5.678-3.785-5.678c-1.232,0-4.225,0.793-4.225,5.236
		v13.203h-6.249V755.766z"/>
	<path d="M1043.676,755.766h5.94v2.904h0.088c1.54-2.464,3.96-3.52,6.776-3.52c7.129,0,10.342,5.764,10.342,12.232
		c0,6.074-3.301,11.75-9.989,11.75c-2.772,0-5.28-1.188-6.821-3.432h-0.088v10.825h-6.248V755.766z M1060.574,767.207
		c0-3.652-1.453-7.349-5.457-7.349c-4.093,0-5.413,3.652-5.413,7.349c0,3.697,1.408,7.217,5.456,7.217
		C1059.254,774.424,1060.574,770.904,1060.574,767.207z"/>
	<path d="M1070.734,747.097h6.25v31.421h-6.25V747.097z"/>
	<path d="M1087.06,768.66c0.177,4.004,2.068,5.764,5.589,5.764c2.508,0,4.533-1.539,4.929-2.947h5.501
		c-1.76,5.412-5.501,7.656-10.649,7.656c-7.173,0-11.618-4.928-11.618-11.969c0-6.822,4.709-12.014,11.618-12.014
		c7.745,0,11.529,6.512,11.046,13.51H1087.06z M1097.225,764.699c-0.571-3.168-1.936-4.841-4.973-4.841
		c-4.048,0-5.061,3.081-5.192,4.841H1097.225z"/>
	<path d="M1130.443,755.15c7.174,0,11.795,4.752,11.795,12.014c0,7.217-4.621,11.969-11.795,11.969
		c-7.129,0-11.749-4.752-11.749-11.969C1118.694,759.902,1123.314,755.15,1130.443,755.15z M1130.443,774.424
		c4.27,0,5.545-3.607,5.545-7.26c0-3.653-1.275-7.306-5.545-7.306c-4.225,0-5.5,3.652-5.5,7.306
		C1124.943,770.816,1126.219,774.424,1130.443,774.424z"/>
	<path d="M1147.646,759.946h-3.74v-4.181h3.74v-1.76c0-4.049,2.508-6.909,7.613-6.909c1.1,0,2.244,0.132,3.301,0.176v4.665
		c-0.748-0.088-1.541-0.133-2.289-0.133c-1.717,0-2.377,0.705-2.377,2.598v1.363h4.313v4.181h-4.313v18.571h-6.248V759.946z"/>
	<path d="M1194.773,757.658c-0.484-3.125-3.477-5.501-6.865-5.501c-6.205,0-8.537,5.28-8.537,10.782
		c0,5.236,2.332,10.518,8.537,10.518c4.225,0,6.601-2.861,7.129-7.041h6.689c-0.705,7.877-6.073,12.85-13.818,12.85
		c-9.682,0-15.446-7.262-15.446-16.326c0-9.33,5.765-16.591,15.446-16.591c6.865,0,12.718,4.048,13.554,11.31H1194.773z"/>
	<path d="M1205.77,747.097h6.25v11.837h0.131c1.584-2.596,4.312-3.783,6.646-3.783c6.646,0,8.317,3.74,8.317,9.373v13.994h-6.249
		v-12.85c0-3.741-1.056-5.59-4.005-5.59c-3.389,0-4.84,1.893-4.84,6.514v11.926h-6.25V747.097z"/>
	<path d="M1231.598,762.763c0.352-5.809,5.588-7.612,10.693-7.612c4.532,0,9.989,1.012,9.989,6.469v11.838
		c0,2.068,0.22,4.136,0.792,5.061h-6.337c-0.22-0.705-0.396-1.453-0.44-2.201c-1.98,2.068-4.84,2.816-7.656,2.816
		c-4.357,0-7.746-2.156-7.746-6.82c0.088-10.342,15.402-4.797,15.139-9.902c0-2.64-1.848-3.08-4.049-3.08
		c-2.42,0-3.916,0.969-4.137,3.433H1231.598z M1246.031,767.383c-1.057,0.925-3.256,0.969-5.193,1.32
		c-1.936,0.353-3.695,1.057-3.695,3.346c0,2.287,1.804,2.904,3.828,2.904c4.885,0,5.061-3.829,5.061-5.237V767.383z"/>
	<path d="M1257.117,755.766h5.94v3.168h0.132c1.584-2.596,4.312-3.783,6.953-3.783c6.645,0,8.316,3.74,8.316,9.373v13.994h-6.248
		v-12.85c0-3.741-1.057-5.59-4.005-5.59c-3.388,0-4.841,1.893-4.841,6.514v11.926h-6.248V755.766z"/>
	<path d="M1305.079,777.064c0,3.74-1.364,10.078-11.794,10.078c-4.488,0-9.682-2.156-10.033-7.305h6.205
		c0.572,2.332,2.42,3.124,4.664,3.124c3.477,0,5.061-2.333,5.018-5.633v-2.993h-0.088c-1.365,2.421-4.049,3.521-6.822,3.521
		c-6.864,0-9.725-5.193-9.725-11.441c0-5.897,3.432-11.266,9.77-11.266c2.992,0,5.236,1.012,6.777,3.652h0.088v-3.037h5.94V777.064z
		 M1299.139,766.855c0-3.697-1.277-6.997-5.325-6.997c-3.521,0-5.062,3.081-5.062,6.469c0,3.257,1.189,6.821,5.062,6.821
		C1297.378,773.148,1299.139,770.111,1299.139,766.855z"/>
	<path d="M1315.24,768.66c0.176,4.004,2.068,5.764,5.589,5.764c2.509,0,4.532-1.539,4.929-2.947h5.501
		c-1.761,5.412-5.501,7.656-10.649,7.656c-7.174,0-11.617-4.928-11.617-11.969c0-6.822,4.708-12.014,11.617-12.014
		c7.745,0,11.529,6.512,11.045,13.51H1315.24z M1325.406,764.699c-0.572-3.168-1.937-4.841-4.973-4.841
		c-4.049,0-5.061,3.081-5.193,4.841H1325.406z"/>
	<path d="M1348.239,747.097h16.942c5.633,0,9.197,3.917,9.197,8.669c0,3.697-1.452,6.469-4.973,7.877v0.088
		c3.389,0.925,4.356,4.137,4.576,7.35c0.133,1.98,0.045,5.721,1.32,7.438h-6.908c-0.793-1.98-0.748-5.018-1.101-7.525
		c-0.484-3.301-1.761-4.753-5.237-4.753h-6.908v12.278h-6.909V747.097z M1355.148,761.311h7.568c3.125,0,4.753-1.32,4.753-4.488
		c0-3.037-1.628-4.357-4.753-4.357h-7.568V761.311z"/>
	<path d="M1384.495,768.66c0.177,4.004,2.068,5.764,5.589,5.764c2.508,0,4.533-1.539,4.929-2.947h5.501
		c-1.76,5.412-5.501,7.656-10.649,7.656c-7.173,0-11.618-4.928-11.618-11.969c0-6.822,4.709-12.014,11.618-12.014
		c7.745,0,11.529,6.512,11.046,13.51H1384.495z M1394.66,764.699c-0.571-3.168-1.936-4.841-4.973-4.841
		c-4.048,0-5.061,3.081-5.192,4.841H1394.66z"/>
	<path d="M1426.781,786.526h-6.249v-10.87h-0.088c-1.452,2.465-4.401,3.477-7.173,3.477c-4.182,0-9.638-3.036-9.638-11.838
		c0-6.248,3.3-12.145,10.21-12.145c2.816,0,5.5,1.012,6.908,3.52h0.088v-2.904h5.941V786.526z M1415.295,774.424
		c4.049,0,5.457-3.432,5.457-7.172c0-3.521-1.408-7.394-5.324-7.394c-4.093,0-5.545,3.608-5.545,7.306
		C1409.883,770.816,1411.203,774.424,1415.295,774.424z"/>
	<path d="M1452.828,778.518h-5.939v-3.169h-0.133c-1.584,2.597-4.312,3.784-6.953,3.784c-6.645,0-8.316-3.74-8.316-9.373v-13.994
		h6.248v12.85c0,3.74,1.057,5.59,4.005,5.59c3.388,0,4.841-1.893,4.841-6.514v-11.926h6.248V778.518z"/>
	<path d="M1462.726,768.66c0.177,4.004,2.068,5.764,5.589,5.764c2.508,0,4.533-1.539,4.929-2.947h5.501
		c-1.76,5.412-5.501,7.656-10.649,7.656c-7.173,0-11.618-4.928-11.618-11.969c0-6.822,4.709-12.014,11.618-12.014
		c7.745,0,11.529,6.512,11.046,13.51H1462.726z M1472.891,764.699c-0.571-3.168-1.936-4.841-4.973-4.841
		c-4.048,0-5.061,3.081-5.192,4.841H1472.891z"/>
	<path d="M1487.674,771.124c0,2.685,2.375,3.829,4.796,3.829c1.761,0,4.093-0.705,4.093-2.904c0-1.893-2.641-2.598-7.085-3.521
		c-3.653-0.836-7.218-2.023-7.218-6.072c0-5.809,5.018-7.305,9.902-7.305c4.928,0,9.549,1.672,10.033,7.26h-5.941
		c-0.176-2.42-2.023-3.08-4.268-3.08c-1.408,0-3.477,0.221-3.477,2.113c0,2.244,3.564,2.552,7.084,3.388
		c3.652,0.837,7.217,2.156,7.217,6.381c0,5.985-5.236,7.921-10.385,7.921c-5.281,0-10.474-1.98-10.693-8.009H1487.674z"/>
	<path d="M1514.381,755.766h4.576v4.181h-4.576v11.266c0,2.112,0.528,2.641,2.641,2.641c0.704,0,1.364-0.044,1.936-0.177v4.885
		c-1.056,0.177-2.42,0.221-3.652,0.221c-3.872,0-7.172-0.836-7.172-5.413v-13.422h-3.785v-4.181h3.785v-6.82h6.248V755.766z"/>
	<path d="M1534.84,747.097h22.09v5.809h-15.182v7.261h13.158v5.369h-13.158v12.982h-6.908V747.097z"/>
	<path d="M1571.316,755.15c7.172,0,11.793,4.752,11.793,12.014c0,7.217-4.621,11.969-11.793,11.969
		c-7.129,0-11.75-4.752-11.75-11.969C1559.566,759.902,1564.188,755.15,1571.316,755.15z M1571.316,774.424
		c4.268,0,5.545-3.607,5.545-7.26c0-3.653-1.277-7.306-5.545-7.306c-4.225,0-5.502,3.652-5.502,7.306
		C1565.814,770.816,1567.092,774.424,1571.316,774.424z"/>
	<path d="M1587.154,755.766h5.941v4.225h0.088c1.188-2.86,4.137-4.84,7.26-4.84c0.484,0,0.925,0.088,1.365,0.219v5.81
		c-0.572-0.132-1.496-0.22-2.244-0.22c-4.621,0-6.162,3.256-6.162,7.305v10.254h-6.248V755.766z"/>
	<path d="M1604.445,755.766h5.897v3.08h0.088c1.628-2.332,3.96-3.695,6.953-3.695c2.86,0,5.413,1.012,6.646,3.783
		c1.363-1.979,3.695-3.783,6.864-3.783c4.841,0,8.317,2.244,8.317,8.141v15.227h-6.249v-12.895c0-3.036-0.265-5.545-3.829-5.545
		c-3.52,0-4.18,2.949-4.18,5.766v12.674h-6.249v-12.762c0-2.641,0.176-5.678-3.784-5.678c-1.232,0-4.225,0.793-4.225,5.236v13.203
		h-6.25V755.766z"/>
</g>
<g>
	<path fill="#F9B256" d="M732.657,242.468c0,3.903-3.167,7.069-7.071,7.069h-66c-3.906,0-7.072-3.167-7.072-7.069v-80.143
		c0-3.908,3.167-7.072,7.072-7.072h66c3.904,0,7.071,3.164,7.071,7.072V242.468z"/>
	<path fill="#FFFFFF" d="M727.525,237.335c0,3.406-2.762,6.166-6.166,6.166H663.81c-3.405,0-6.165-2.761-6.165-6.166v-69.881
		c0-3.404,2.76-6.164,6.165-6.164h57.549c3.404,0,6.166,2.76,6.166,6.164V237.335z"/>
	<path fill="#D1D3D4" d="M683.409,186.356c0,2.416-1.958,4.374-4.375,4.374h-8.749c-2.415,0-4.372-1.958-4.372-4.374v-8.748
		c0-2.415,1.958-4.372,4.372-4.372h8.749c2.416,0,4.375,1.957,4.375,4.372V186.356z"/>
	<path fill="#D1D3D4" d="M683.409,206.769c0,2.416-1.958,4.374-4.375,4.374h-8.749c-2.415,0-4.372-1.958-4.372-4.374v-8.749
		c0-2.416,1.958-4.372,4.372-4.372h8.749c2.416,0,4.375,1.956,4.375,4.372V206.769z"/>
	<path fill="#D1D3D4" d="M683.409,227.181c0,2.416-1.958,4.372-4.375,4.372h-8.749c-2.415,0-4.372-1.956-4.372-4.372v-8.749
		c0-2.416,1.958-4.374,4.372-4.374h8.749c2.416,0,4.375,1.958,4.375,4.374V227.181z"/>
	<path fill="#686472" d="M702.609,152.681h-0.742c-0.728,0-1.317-0.587-1.317-1.314v-0.048c0-1.8-1.46-3.262-3.261-3.262h-9.408
		c-1.799,0-3.258,1.461-3.258,3.262v0.048c0,0.726-0.593,1.314-1.318,1.314h-0.744c-5.53,0-10.014,4.487-10.014,10.018v0.132
		c0,1.775,1.437,3.212,3.213,3.212h33.654c1.773,0,3.211-1.437,3.211-3.212v-0.132C712.625,157.168,708.139,152.681,702.609,152.681
		z M692.585,153.46c-1.172,0-2.121-0.95-2.121-2.125c0-1.169,0.949-2.12,2.121-2.12c1.172,0,2.122,0.95,2.122,2.12
		C694.707,152.509,693.757,153.46,692.585,153.46z"/>
	<g>
		<path fill="#109D59" d="M674.609,209.667l-5.619-8.445c-0.475-0.711-0.282-1.672,0.43-2.147c0.71-0.479,1.672-0.283,2.146,0.433
			l3.146,4.722l9.413-13.033c0.502-0.695,1.47-0.85,2.162-0.349c0.697,0.5,0.851,1.469,0.351,2.161L674.609,209.667z"/>
	</g>
	<g>
		<path fill="#109D59" d="M674.609,188.821l-5.619-8.443c-0.475-0.71-0.282-1.674,0.43-2.147c0.71-0.477,1.672-0.283,2.146,0.431
			l3.146,4.723l9.413-13.032c0.502-0.697,1.47-0.851,2.162-0.35c0.697,0.501,0.851,1.469,0.351,2.161L674.609,188.821z"/>
	</g>
	<g>
		<path fill="#109D59" d="M674.609,229.822l-5.619-8.443c-0.475-0.712-0.282-1.673,0.43-2.147c0.71-0.479,1.672-0.283,2.146,0.431
			l3.146,4.722l9.413-13.032c0.502-0.697,1.47-0.852,2.162-0.349c0.697,0.499,0.851,1.466,0.351,2.161L674.609,229.822z"/>
	</g>
</g>
<g>
	<path fill-rule="evenodd" clip-rule="evenodd" fill="#3D566E" d="M746.178,521.896c-1.825,3.254-3.977,6.13-6.492,8.646
		l-0.157,0.142c-2.484,2.468-5.329,4.574-8.504,6.366c-1.998,1.102-4.199,1.493-6.321,1.195c-2.105-0.283-4.135-1.274-5.738-2.878
		l-0.015-0.015v0.015l-18.833-18.848l-6.352-6.35l17.575-17.576l7.153-1.571c1.856-0.409,3.647-1.069,5.329-1.903l20.687,20.703
		c1.604,1.62,2.579,3.647,2.879,5.753C747.685,517.7,747.293,519.916,746.178,521.896z"/>
	<polygon fill-rule="evenodd" clip-rule="evenodd" fill="#D1D1D1" points="685.31,481.417 668.774,464.865 663.333,465.101 
		648.981,447.478 656.685,439.776 674.307,454.144 674.055,459.598 685.657,471.215 690.593,476.151 	"/>
	<path fill-rule="evenodd" clip-rule="evenodd" fill="#2C3E50" d="M746.178,521.896c-1.825,3.254-3.977,6.13-6.492,8.646
		l-0.157,0.142c-2.484,2.468-5.329,4.574-8.504,6.366c-1.998,1.102-4.199,1.493-6.321,1.195c-2.105-0.283-4.135-1.274-5.738-2.878
		l-0.015-0.015v0.015l-18.833-18.848l-6.352-6.35l3.616-3.616l25.185,25.198l0,0c0.816,0.802,1.806,1.306,2.845,1.432
		c0.471,0.079,0.959,0.062,1.43,0l-28.028-28.061l12.527-12.529l29.034,29.049c0.473-0.723,0.928-1.46,1.354-2.232
		c0.549-0.989,0.754-2.091,0.614-3.128c-0.143-1.022-0.63-2.028-1.446-2.845l-22.402-22.417c1.856-0.409,3.647-1.069,5.329-1.903
		l20.687,20.703c1.604,1.62,2.579,3.647,2.879,5.753C747.685,517.7,747.293,519.916,746.178,521.896z"/>
	<path fill-rule="evenodd" clip-rule="evenodd" fill="#D1D1D1" d="M717.079,469.58c-4.448-4.401-7.294-10.579-4.008-13.849
		l13.488-13.487l-1.856-1.855c-5.878-5.895-24.743,4.418-31.173,14.038c-3.269,4.874-4.244,12.072,0.692,18.078l-43.779,43.749
		c-1.589,1.586-2.564,3.599-2.845,5.705c-1.164,8.3,8.863,18.329,17.149,17.182c2.106-0.299,4.118-1.258,5.721-2.846l43.545-43.512
		c5.517,5.455,12.937,3.867,18.203,0.362c9.62-6.414,19.933-25.293,14.054-31.173l-1.855-1.855l-13.488,13.488
		C727.644,476.875,721.466,474.03,717.079,469.58L717.079,469.58z M657.581,529.128c-3.963-3.994-3.963-10.438,0.015-14.432
		c3.977-3.962,10.438-3.962,14.415,0.016c3.978,3.978,3.978,10.438-0.017,14.416C668.018,533.106,661.573,533.106,657.581,529.128z"
		/>
	<path fill-rule="evenodd" clip-rule="evenodd" fill="#DAE1E6" d="M652.566,534.032l4.967-4.969
		c-3.916-3.977-3.899-10.405,0.062-14.367c3.963-3.945,10.376-3.962,14.352-0.032l45.132-45.084
		c-4.448-4.401-7.294-10.579-4.008-13.849l13.488-13.487l-1.856-1.839c-5.878-5.911-24.743,4.401-31.173,14.022
		c-3.269,4.874-4.244,12.072,0.692,18.078l-43.779,43.749c-1.589,1.586-2.564,3.599-2.845,5.705
		C647.017,526.078,649.203,530.636,652.566,534.032z"/>
</g>
<g>
	<polygon fill-rule="evenodd" clip-rule="evenodd" fill="#DAE1E6" points="717.619,721.144 716.228,719.77 716.259,719.77 	"/>
	<path fill-rule="evenodd" clip-rule="evenodd" fill="#DAE1E6" d="M732.107,819.908h-70.435c-3.708,0-6.735-3.027-6.735-6.735
		v-97.744c0-3.692,3.027-6.72,6.735-6.72h48.007l29.147,29.163v75.301C738.827,816.881,735.815,819.908,732.107,819.908z"/>
	<polygon fill-rule="evenodd" clip-rule="evenodd" fill="#B3B3B3" points="728.509,727.538 738.827,737.872 738.827,763.081 
		711.718,735.973 	"/>
	<path fill-rule="evenodd" clip-rule="evenodd" fill="#ECF0F1" d="M738.827,737.857h-22.428c-3.708,0-6.719-2.997-6.719-6.704
		v-22.444L738.827,737.857z"/>
	<path fill-rule="evenodd" clip-rule="evenodd" fill="#2C3E50" d="M720.198,779.593l2.116,2.147l2.812-1.097l1.065,2.827
		l3.012,0.139l-0.17,3.012l2.688,1.344l-1.375,2.688l1.916,2.332l-2.364,1.885l0.788,2.92l-2.904,0.756l-0.463,2.982l-2.981-0.493
		l-1.622,2.548l-2.518-1.668l-2.518,1.668l-1.638-2.548l-2.981,0.493l-0.448-2.982l-2.92-0.756l0.803-2.92l-2.363-1.885l1.916-2.332
		l-1.391-2.688l2.704-1.344l-0.17-3.012l3.012-0.139l1.065-2.827l2.811,1.097L720.198,779.593L720.198,779.593z M720.198,783.006
		c-4.804,0-8.712,3.893-8.712,8.697c0,4.819,3.908,8.711,8.712,8.711c4.804,0,8.712-3.892,8.712-8.711
		C728.91,786.899,725.002,783.006,720.198,783.006L720.198,783.006z M720.198,784.318c-4.078,0-7.399,3.307-7.399,7.385
		c0,4.093,3.321,7.398,7.399,7.398c4.078,0,7.383-3.306,7.383-7.398C727.581,787.625,724.276,784.318,720.198,784.318z"/>
	<rect x="670.878" y="752.994" fill-rule="evenodd" clip-rule="evenodd" fill="#2C3E50" width="48.084" height="1.931"/>
	<rect x="670.878" y="763.344" fill-rule="evenodd" clip-rule="evenodd" fill="#2C3E50" width="52.007" height="1.93"/>
	<rect x="670.878" y="774.342" fill-rule="evenodd" clip-rule="evenodd" fill="#2C3E50" width="40.964" height="1.914"/>
</g>
</svg>
