<?xml version="1.0" encoding="utf-8"?>
<!-- Generator: Adobe Illustrator 19.2.0, SVG Export Plug-In . SVG Version: 6.00 Build 0)  -->
<svg version="1.1" id="Layer_1" xmlns="http://www.w3.org/2000/svg" xmlns:xlink="http://www.w3.org/1999/xlink" x="0px" y="0px"
	 viewBox="0 0 2048 1000" style="enable-background:new 0 0 2048 1000;" xml:space="preserve">
<style type="text/css">
	.st0{fill:#B9E5FB;}
	.st1{fill:#4EA8DE;}
	.st2{fill:none;}
	.st3{enable-background:new    ;}
	.st4{fill:#FFFFFF;}
	.st5{fill:none;stroke:#343636;stroke-width:3.3031;stroke-miterlimit:10;}
	.st6{fill:#333333;}
	.st7{fill:#116BB4;}
	.st8{fill:#A1B400;}
	.st9{fill:#C2D64C;}
	.st10{fill:#0E303F;}
	.st11{fill:#D1ECFB;}
	.st12{fill:#2C5871;}
	.st13{opacity:0.5;}
	.st14{fill:#15B0BF;}
	.st15{fill:#A6DAE9;}
	.st16{fill:#2C3E50;}
	.st17{fill:#89C240;}
</style>
<rect class="st0" width="2048" height="1000"/>
<polygon class="st1" points="0,1001.8 512,1001.8 512,85 544.4,53.7 512,28 512,0 0,0 "/>
<polygon class="st1" points="1024,1001.8 1536,1001.8 1536,83.1 1571.6,53.7 1536,27.6 1536,0 1024,0 1024,31 1060.4,53.7 
	1024,83.5 "/>
<rect x="55.3" y="201.3" class="st2" width="426.1" height="443.4"/>
<g class="st3">
	<path class="st4" d="M75,208.7c-0.7-3.4-3.4-5.2-6.8-5.2c-5.8,0-8.2,4.8-8.2,9.8c0,5.5,2.4,10.2,8.3,10.2c4.2,0,6.7-3,7-7h3.2
		c-0.6,6.1-4.4,9.7-10.5,9.7c-7.5,0-11.2-5.6-11.2-12.6s4-12.8,11.5-12.8c5.1,0,9.3,2.7,10,7.9H75z"/>
	<path class="st4" d="M97.6,225.6c-0.5,0.3-1.2,0.5-2.1,0.5c-1.5,0-2.4-0.8-2.4-2.7c-1.6,1.9-3.7,2.7-6.2,2.7
		c-3.2,0-5.8-1.4-5.8-4.9c0-4,3-4.9,5.9-5.4c3.2-0.6,5.9-0.4,5.9-2.6c0-2.5-2.1-2.9-3.9-2.9c-2.4,0-4.2,0.7-4.4,3.3h-2.9
		c0.2-4.4,3.5-5.9,7.4-5.9c3.2,0,6.6,0.7,6.6,4.8v9c0,1.4,0,2,0.9,2c0.3,0,0.6-0.1,0.9-0.2V225.6z M92.9,216.5
		c-2.2,1.7-8.8,0-8.8,4.4c0,1.9,1.6,2.6,3.4,2.6c3.8,0,5.4-2.3,5.4-4V216.5z"/>
	<path class="st4" d="M100.3,208h2.7v2.8h0.1c1.2-2.2,3.2-3.2,5.7-3.2c4.6,0,6.1,2.7,6.1,6.4v11.6H112v-11.9c0-2.2-1.4-3.5-3.6-3.5
		c-3.5,0-5.2,2.3-5.2,5.5v9.9h-2.9V208z"/>
	<path class="st4" d="M128.7,201.3h2.9v9.1h0.1c1-1.9,3.2-2.8,5.6-2.8c5.4,0,8.1,4.3,8.1,9.2c0,5-2.7,9.1-8,9.1
		c-1.8,0-4.4-0.7-5.7-2.8h-0.1v2.3h-2.9V201.3z M136.9,210.2c-3.9,0-5.4,3.4-5.4,6.6c0,3.4,1.6,6.7,5.5,6.7c3.9,0,5.3-3.4,5.3-6.8
		C142.3,213.4,140.6,210.2,136.9,210.2z"/>
	<path class="st4" d="M163.8,220c-0.8,3.9-3.5,6-7.5,6c-5.6,0-8.3-3.9-8.4-9.2c0-5.3,3.5-9.1,8.3-9.1c6.2,0,8.1,5.8,8,10.1h-13.2
		c-0.1,3.1,1.6,5.8,5.5,5.8c2.4,0,4-1.1,4.6-3.4H163.8z M161,215.1c-0.2-2.8-2.2-5-5.1-5c-3,0-4.9,2.2-5,5H161z"/>
	<path class="st4" d="M179.6,204.9h-2.9v-3.5h2.9V204.9z M176.7,208h2.9v17.6h-2.9V208z"/>
	<path class="st4" d="M199.8,225.6h-2.9v-2.4h-0.1c-1,1.9-3.2,2.8-5.6,2.8c-5.4,0-8.1-4.3-8.1-9.2c0-5,2.7-9.1,8-9.1
		c1.8,0,4.4,0.7,5.7,2.8h0.1v-9h2.9V225.6z M191.6,223.5c3.9,0,5.4-3.4,5.4-6.6c0-3.4-1.6-6.7-5.5-6.7c-3.9,0-5.3,3.4-5.3,6.8
		C186.2,220.3,187.9,223.5,191.6,223.5z"/>
	<path class="st4" d="M219.2,220c-0.8,3.9-3.5,6-7.5,6c-5.6,0-8.3-3.9-8.4-9.2c0-5.3,3.5-9.1,8.3-9.1c6.2,0,8.1,5.8,8,10.1h-13.2
		c-0.1,3.1,1.6,5.8,5.5,5.8c2.4,0,4-1.1,4.6-3.4H219.2z M216.4,215.1c-0.2-2.8-2.2-5-5.1-5c-3,0-4.9,2.2-5,5H216.4z"/>
	<path class="st4" d="M222.5,208h2.7v2.8h0.1c1.2-2.2,3.2-3.2,5.7-3.2c4.6,0,6.1,2.7,6.1,6.4v11.6h-2.9v-11.9c0-2.2-1.4-3.5-3.6-3.5
		c-3.5,0-5.2,2.3-5.2,5.5v9.9h-2.9V208z"/>
	<path class="st4" d="M245.4,208h3.5v2.5h-3.5v10.9c0,1.4,0.4,1.6,2.2,1.6h1.3v2.5h-2.2c-3,0-4.2-0.6-4.2-3.8v-11.2h-3V208h3v-5.3
		h2.9V208z"/>
	<path class="st4" d="M255.2,204.9h-2.9v-3.5h2.9V204.9z M252.3,208h2.9v17.6h-2.9V208z"/>
	<path class="st4" d="M260.8,210.6h-3V208h3v-2.6c0-2.9,1.7-4.4,4.9-4.4c0.5,0,1.3,0.1,1.9,0.3v2.5c-0.5-0.2-1.1-0.2-1.6-0.2
		c-1.4,0-2.2,0.4-2.2,2v2.4h3.4v2.5h-3.4v15h-2.9V210.6z M269.9,204.9v-3.5h2.9v3.5H269.9z M269.9,225.6V208h2.9v17.6H269.9z"/>
	<path class="st4" d="M292.2,220c-0.8,3.9-3.5,6-7.5,6c-5.6,0-8.3-3.9-8.4-9.2c0-5.3,3.5-9.1,8.3-9.1c6.2,0,8.1,5.8,8,10.1h-13.2
		c-0.1,3.1,1.6,5.8,5.5,5.8c2.4,0,4-1.1,4.6-3.4H292.2z M289.5,215.1c-0.2-2.8-2.2-5-5.1-5c-3,0-4.9,2.2-5,5H289.5z"/>
	<path class="st4" d="M311.2,225.6h-2.9v-2.4h-0.1c-1,1.9-3.2,2.8-5.6,2.8c-5.4,0-8.1-4.3-8.1-9.2c0-5,2.7-9.1,8-9.1
		c1.8,0,4.4,0.7,5.7,2.8h0.1v-9h2.9V225.6z M303.1,223.5c3.9,0,5.4-3.4,5.4-6.6c0-3.4-1.6-6.7-5.5-6.7c-3.9,0-5.3,3.4-5.3,6.8
		C297.6,220.3,299.3,223.5,303.1,223.5z"/>
	<path class="st4" d="M329.1,208h3.5v2.5h-3.5v10.9c0,1.4,0.4,1.6,2.2,1.6h1.3v2.5h-2.2c-3,0-4.2-0.6-4.2-3.8v-11.2h-3V208h3v-5.3
		h2.9V208z"/>
	<path class="st4" d="M335.8,201.3h2.9v9.3h0.1c0.9-2.1,3.5-3,5.5-3c4.6,0,6.1,2.7,6.1,6.4v11.6h-2.9v-11.9c0-2.2-1.4-3.5-3.6-3.5
		c-3.5,0-5.2,2.3-5.2,5.5v9.9h-2.9V201.3z"/>
	<path class="st4" d="M354.6,208h2.7v3.7h0.1c1.4-2.9,3.3-4.2,6.5-4.1v3.1c-4.7,0-6.4,2.6-6.4,7.1v7.8h-2.9V208z"/>
	<path class="st4" d="M373.6,207.6c5.6,0,8.5,4,8.5,9.2c0,5.1-3,9.2-8.5,9.2c-5.6,0-8.5-4-8.5-9.2
		C365.1,211.7,368.1,207.6,373.6,207.6z M373.6,223.5c3,0,5.5-2.4,5.5-6.6c0-4.2-2.4-6.7-5.5-6.7c-3,0-5.5,2.4-5.5,6.7
		C368.2,221.1,370.6,223.5,373.6,223.5z"/>
	<path class="st4" d="M400.1,225.6h-2.7v-2.8h-0.1c-1.2,2.2-3.2,3.2-5.7,3.2c-4.6,0-6.1-2.7-6.1-6.4V208h2.9v11.9
		c0,2.2,1.4,3.5,3.6,3.5c3.5,0,5.2-2.3,5.2-5.5V208h2.9V225.6z"/>
	<path class="st4" d="M419.6,224.1c0,5.7-2.6,8.6-8.2,8.6c-3.3,0-7.1-1.4-7.3-5.2h2.9c0.1,2.1,2.7,2.9,4.6,2.9
		c3.8,0,5.3-2.7,5.3-6.7v-1.2h-0.1c-1,2.1-3.2,3.2-5.5,3.2c-5.2,0-7.9-4.1-7.9-8.9c0-4.1,2-9.3,8.1-9.3c2.2,0,4.2,1,5.2,2.9h0V208
		h2.7V224.1z M416.8,216.5c0-3.1-1.4-6.3-5-6.3c-3.7,0-5.2,3-5.2,6.4c0,3.2,1.2,6.7,5,6.7S416.8,219.8,416.8,216.5z"/>
	<path class="st4" d="M424,201.3h2.9v9.3h0.1c0.9-2.1,3.5-3,5.5-3c4.6,0,6.1,2.7,6.1,6.4v11.6h-2.9v-11.9c0-2.2-1.4-3.5-3.6-3.5
		c-3.5,0-5.2,2.3-5.2,5.5v9.9H424V201.3z"/>
</g>
<g class="st3">
	<path class="st4" d="M63.8,258.2c3.4,0,6.1,2.7,6.1,6.1s-2.7,6.1-6.1,6.1s-6.1-2.7-6.1-6.1S60.4,258.2,63.8,258.2z"/>
	<path class="st4" d="M101.5,259.5c-0.7-3.4-3.4-5.2-6.8-5.2c-5.8,0-8.2,4.8-8.2,9.8c0,5.5,2.4,10.2,8.3,10.2c4.2,0,6.7-3,7-7h3.2
		c-0.6,6.1-4.4,9.7-10.5,9.7c-7.5,0-11.2-5.6-11.2-12.6s4-12.8,11.5-12.8c5.1,0,9.3,2.7,10,7.9H101.5z"/>
	<path class="st4" d="M116.1,258.4c5.6,0,8.5,4,8.5,9.2c0,5.1-3,9.2-8.5,9.2c-5.6,0-8.5-4-8.5-9.2
		C107.5,262.5,110.5,258.4,116.1,258.4z M116.1,274.3c3,0,5.5-2.4,5.5-6.6c0-4.2-2.4-6.7-5.5-6.7c-3,0-5.5,2.4-5.5,6.7
		C110.6,271.9,113,274.3,116.1,274.3z"/>
	<path class="st4" d="M128,258.8h2.7v2.6h0.1c1.3-2,3.2-3,5.7-3c2.2,0,4.1,0.8,4.8,3c1.2-1.9,3.2-3,5.5-3c3.5,0,5.8,1.5,5.8,5.1
		v12.9h-2.9v-11.5c0-2.2-0.6-3.9-3.4-3.9c-2.8,0-4.6,1.8-4.6,4.5v10.9h-2.9v-11.5c0-2.3-0.7-3.9-3.3-3.9c-3.4,0-4.7,3.1-4.7,4.5
		v10.9H128V258.8z"/>
	<path class="st4" d="M157.1,258.8h2.9v2.4h0.1c1-1.9,3.2-2.8,5.6-2.8c5.4,0,8.1,4.3,8.1,9.2c0,5-2.7,9.1-8,9.1
		c-1.8,0-4.4-0.7-5.7-2.8H160v9.1h-2.9V258.8z M165.3,261c-3.9,0-5.4,3.4-5.4,6.6c0,3.4,1.6,6.7,5.5,6.7c3.9,0,5.3-3.4,5.3-6.8
		C170.7,264.2,169,261,165.3,261z"/>
	<path class="st4" d="M177.3,252.1h2.9v24.3h-2.9V252.1z"/>
	<path class="st4" d="M200.3,276.4c-0.5,0.3-1.2,0.5-2.1,0.5c-1.5,0-2.4-0.8-2.4-2.7c-1.6,1.9-3.7,2.7-6.2,2.7
		c-3.2,0-5.8-1.4-5.8-4.9c0-4,3-4.9,5.9-5.4c3.2-0.6,5.9-0.4,5.9-2.6c0-2.5-2.1-2.9-3.9-2.9c-2.4,0-4.2,0.7-4.4,3.3h-2.9
		c0.2-4.4,3.5-5.9,7.4-5.9c3.2,0,6.6,0.7,6.6,4.8v9c0,1.4,0,2,0.9,2c0.3,0,0.6-0.1,0.9-0.2V276.4z M195.6,267.3
		c-2.2,1.7-8.8,0-8.8,4.4c0,1.9,1.6,2.6,3.4,2.6c3.8,0,5.4-2.3,5.4-4V267.3z"/>
	<path class="st4" d="M206,255.7h-2.9v-3.5h2.9V255.7z M203.1,258.8h2.9v17.6h-2.9V258.8z"/>
	<path class="st4" d="M210.5,258.8h2.7v2.8h0.1c1.2-2.2,3.2-3.2,5.7-3.2c4.6,0,6.1,2.7,6.1,6.4v11.6h-2.9v-11.9
		c0-2.2-1.4-3.5-3.6-3.5c-3.5,0-5.2,2.3-5.2,5.5v9.9h-2.9V258.8z"/>
	<path class="st4" d="M233.4,258.8h3.5v2.5h-3.5v10.9c0,1.4,0.4,1.6,2.2,1.6h1.3v2.5h-2.2c-3,0-4.2-0.6-4.2-3.8v-11.2h-3v-2.5h3
		v-5.3h2.9V258.8z"/>
	<path class="st4" d="M241.9,270.9c0.1,2.6,2.4,3.4,4.7,3.4c1.8,0,4.2-0.4,4.2-2.6c0-4.5-11.5-1.5-11.5-8.2c0-3.5,3.5-5,6.6-5
		c3.9,0,6.9,1.2,7.2,5.5h-2.9c-0.2-2.2-2.2-3-4.1-3c-1.7,0-3.7,0.5-3.7,2.2c0,2,3.1,2.4,5.7,3.1c2.9,0.6,5.7,1.6,5.7,5
		c0,4.2-3.9,5.5-7.5,5.5c-3.9,0-7.3-1.6-7.4-5.9H241.9z"/>
</g>
<g class="st3">
	<path class="st4" d="M63.8,309c3.4,0,6.1,2.7,6.1,6.1s-2.7,6.1-6.1,6.1s-6.1-2.7-6.1-6.1S60.4,309,63.8,309z"/>
	<path class="st4" d="M84.4,302.9h8.3c7.5,0,11.7,3.8,11.7,11.6c0,8.1-3.6,12.7-11.7,12.7h-8.3V302.9z M87.6,324.5H93
		c2.2,0,8.2-0.6,8.2-9.6c0-5.8-2.1-9.3-8.1-9.3h-5.4V324.5z"/>
	<path class="st4" d="M122.9,321.6c-0.8,3.9-3.5,6-7.5,6c-5.6,0-8.3-3.9-8.4-9.2c0-5.3,3.5-9.1,8.3-9.1c6.2,0,8.1,5.8,8,10.1H110
		c-0.1,3.1,1.6,5.8,5.5,5.8c2.4,0,4-1.1,4.6-3.4H122.9z M120.1,316.7c-0.2-2.8-2.2-5-5.1-5c-3,0-4.9,2.2-5,5H120.1z"/>
	<path class="st4" d="M134.1,327.2H131l-6.5-17.6h3.2l4.9,14.7h0.1l4.8-14.7h3L134.1,327.2z"/>
	<path class="st4" d="M146.2,306.5h-2.9v-3.5h2.9V306.5z M143.3,309.6h2.9v17.6h-2.9V309.6z"/>
	<path class="st4" d="M166.2,327.2c-0.5,0.3-1.2,0.5-2.1,0.5c-1.5,0-2.4-0.8-2.4-2.7c-1.6,1.9-3.7,2.7-6.2,2.7
		c-3.2,0-5.8-1.4-5.8-4.9c0-4,3-4.9,5.9-5.4c3.2-0.6,5.9-0.4,5.9-2.6c0-2.5-2.1-2.9-3.9-2.9c-2.4,0-4.2,0.7-4.4,3.3h-2.9
		c0.2-4.4,3.5-5.9,7.4-5.9c3.2,0,6.6,0.7,6.6,4.8v9c0,1.4,0,2,0.9,2c0.3,0,0.6-0.1,0.9-0.2V327.2z M161.6,318.1
		c-2.2,1.7-8.8,0-8.8,4.4c0,1.9,1.6,2.6,3.4,2.6c3.8,0,5.4-2.3,5.4-4V318.1z"/>
	<path class="st4" d="M172.9,309.6h3.5v2.5h-3.5v10.9c0,1.4,0.4,1.6,2.2,1.6h1.3v2.5h-2.2c-3,0-4.2-0.6-4.2-3.8v-11.2h-3v-2.5h3
		v-5.3h2.9V309.6z"/>
	<path class="st4" d="M182.7,306.5h-2.9v-3.5h2.9V306.5z M179.8,309.6h2.9v17.6h-2.9V309.6z"/>
	<path class="st4" d="M194.8,309.2c5.6,0,8.5,4,8.5,9.2c0,5.1-3,9.2-8.5,9.2c-5.6,0-8.5-4-8.5-9.2
		C186.2,313.3,189.2,309.2,194.8,309.2z M194.8,325.1c3,0,5.5-2.4,5.5-6.6c0-4.2-2.4-6.7-5.5-6.7c-3,0-5.5,2.4-5.5,6.7
		C189.3,322.7,191.7,325.1,194.8,325.1z"/>
	<path class="st4" d="M206.7,309.6h2.7v2.8h0.1c1.2-2.2,3.2-3.2,5.7-3.2c4.6,0,6.1,2.7,6.1,6.4v11.6h-2.9v-11.9
		c0-2.2-1.4-3.5-3.6-3.5c-3.5,0-5.2,2.3-5.2,5.5v9.9h-2.9V309.6z"/>
	<path class="st4" d="M227.4,321.7c0.1,2.6,2.4,3.4,4.7,3.4c1.8,0,4.2-0.4,4.2-2.6c0-4.5-11.5-1.5-11.5-8.2c0-3.5,3.5-5,6.6-5
		c3.9,0,6.9,1.2,7.2,5.5h-2.9c-0.2-2.2-2.2-3-4.1-3c-1.7,0-3.7,0.5-3.7,2.2c0,2,3.1,2.4,5.7,3.1c2.9,0.6,5.7,1.6,5.7,5
		c0,4.2-3.9,5.5-7.5,5.5c-3.9,0-7.3-1.6-7.4-5.9H227.4z"/>
</g>
<g class="st3">
	<path class="st4" d="M63.8,359.8c3.4,0,6.1,2.7,6.1,6.1s-2.7,6.1-6.1,6.1s-6.1-2.7-6.1-6.1S60.4,359.8,63.8,359.8z"/>
	<path class="st4" d="M84.5,353.7h3.2V378h-3.2V353.7z"/>
	<path class="st4" d="M92.7,360.4h2.7v2.8h0.1c1.2-2.2,3.2-3.2,5.7-3.2c4.6,0,6.1,2.7,6.1,6.4V378h-2.9v-11.9c0-2.2-1.4-3.5-3.6-3.5
		c-3.5,0-5.2,2.3-5.2,5.5v9.9h-2.9V360.4z"/>
	<path class="st4" d="M113.4,372.5c0.1,2.6,2.4,3.4,4.7,3.4c1.8,0,4.2-0.4,4.2-2.6c0-4.5-11.5-1.5-11.5-8.2c0-3.5,3.5-5,6.6-5
		c3.9,0,6.9,1.2,7.2,5.5h-2.9c-0.2-2.2-2.2-3-4.1-3c-1.7,0-3.7,0.5-3.7,2.2c0,2,3.1,2.4,5.7,3.1c2.9,0.6,5.7,1.6,5.7,5
		c0,4.2-3.9,5.5-7.5,5.5c-3.9,0-7.3-1.6-7.4-5.9H113.4z"/>
	<path class="st4" d="M128.7,360.4h2.9v2.4h0.1c1-1.9,3.2-2.8,5.6-2.8c5.4,0,8.1,4.3,8.1,9.2c0,5-2.7,9.1-8,9.1
		c-1.8,0-4.4-0.7-5.7-2.8h-0.1v9.1h-2.9V360.4z M136.9,362.6c-3.9,0-5.4,3.4-5.4,6.6c0,3.4,1.6,6.7,5.5,6.7c3.9,0,5.3-3.4,5.3-6.8
		C142.3,365.8,140.6,362.6,136.9,362.6z"/>
	<path class="st4" d="M163.8,372.4c-0.8,3.9-3.5,6-7.5,6c-5.6,0-8.3-3.9-8.4-9.2c0-5.3,3.5-9.1,8.3-9.1c6.2,0,8.1,5.8,8,10.1h-13.2
		c-0.1,3.1,1.6,5.8,5.5,5.8c2.4,0,4-1.1,4.6-3.4H163.8z M161,367.5c-0.2-2.8-2.2-5-5.1-5c-3,0-4.9,2.2-5,5H161z"/>
	<path class="st4" d="M179,366.1c-0.4-2.2-1.9-3.5-4.4-3.5c-4.2,0-5.5,3.3-5.5,6.9c0,3.3,1.5,6.4,5.1,6.4c2.8,0,4.5-1.6,4.8-4.3h3
		c-0.6,4.3-3.3,6.8-7.8,6.8c-5.4,0-8.2-3.7-8.2-9s2.7-9.4,8.3-9.4c4,0,7.1,1.9,7.6,6.1H179z"/>
	<path class="st4" d="M189.3,360.4h3.5v2.5h-3.5v10.9c0,1.4,0.4,1.6,2.2,1.6h1.3v2.5h-2.2c-3,0-4.2-0.6-4.2-3.8V363h-3v-2.5h3v-5.3
		h2.9V360.4z"/>
	<path class="st4" d="M199.1,357.3h-2.9v-3.5h2.9V357.3z M196.2,360.4h2.9V378h-2.9V360.4z"/>
	<path class="st4" d="M211.2,360c5.6,0,8.5,4,8.5,9.2c0,5.1-3,9.2-8.5,9.2c-5.6,0-8.5-4-8.5-9.2C202.6,364.1,205.6,360,211.2,360z
		 M211.2,375.9c3,0,5.5-2.4,5.5-6.6c0-4.2-2.4-6.7-5.5-6.7c-3,0-5.5,2.4-5.5,6.7C205.7,373.5,208.1,375.9,211.2,375.9z"/>
	<path class="st4" d="M223.1,360.4h2.7v2.8h0.1c1.2-2.2,3.2-3.2,5.7-3.2c4.6,0,6.1,2.7,6.1,6.4V378h-2.9v-11.9
		c0-2.2-1.4-3.5-3.6-3.5c-3.5,0-5.2,2.3-5.2,5.5v9.9h-2.9V360.4z"/>
	<path class="st4" d="M243.8,372.5c0.1,2.6,2.4,3.4,4.7,3.4c1.8,0,4.2-0.4,4.2-2.6c0-4.5-11.5-1.5-11.5-8.2c0-3.5,3.5-5,6.6-5
		c3.9,0,6.9,1.2,7.2,5.5h-2.9c-0.2-2.2-2.2-3-4.1-3c-1.7,0-3.7,0.5-3.7,2.2c0,2,3.1,2.4,5.7,3.1c2.9,0.6,5.7,1.6,5.7,5
		c0,4.2-3.9,5.5-7.5,5.5c-3.9,0-7.3-1.6-7.4-5.9H243.8z"/>
</g>
<g class="st3">
	<path class="st4" d="M63.8,410.6c3.4,0,6.1,2.7,6.1,6.1s-2.7,6.1-6.1,6.1s-6.1-2.7-6.1-6.1S60.4,410.6,63.8,410.6z"/>
	<path class="st4" d="M101.5,411.9c-0.7-3.4-3.4-5.2-6.8-5.2c-5.8,0-8.2,4.8-8.2,9.8c0,5.5,2.4,10.2,8.3,10.2c4.2,0,6.7-3,7-7h3.2
		c-0.6,6.1-4.4,9.7-10.5,9.7c-7.5,0-11.2-5.6-11.2-12.6s4-12.8,11.5-12.8c5.1,0,9.3,2.7,10,7.9H101.5z"/>
	<path class="st4" d="M108.4,411.2h2.7v3.7h0.1c1.4-2.9,3.3-4.2,6.5-4.1v3.1c-4.7,0-6.4,2.6-6.4,7.1v7.8h-2.9V411.2z"/>
	<path class="st4" d="M134.8,423.2c-0.8,3.9-3.5,6-7.5,6c-5.6,0-8.3-3.9-8.4-9.2c0-5.3,3.5-9.1,8.3-9.1c6.2,0,8.1,5.8,8,10.1h-13.2
		c-0.1,3.1,1.6,5.8,5.5,5.8c2.4,0,4-1.1,4.6-3.4H134.8z M132,418.3c-0.2-2.8-2.2-5-5.1-5c-3,0-4.9,2.2-5,5H132z"/>
	<path class="st4" d="M153.6,428.8c-0.5,0.3-1.2,0.5-2.1,0.5c-1.5,0-2.4-0.8-2.4-2.7c-1.6,1.9-3.7,2.7-6.2,2.7
		c-3.2,0-5.8-1.4-5.8-4.9c0-4,3-4.9,5.9-5.4c3.2-0.6,5.9-0.4,5.9-2.6c0-2.5-2.1-2.9-3.9-2.9c-2.4,0-4.2,0.7-4.4,3.3h-2.9
		c0.2-4.4,3.5-5.9,7.4-5.9c3.2,0,6.6,0.7,6.6,4.8v9c0,1.4,0,2,0.9,2c0.3,0,0.6-0.1,0.9-0.2V428.8z M148.9,419.7
		c-2.2,1.7-8.8,0-8.8,4.4c0,1.9,1.6,2.6,3.4,2.6c3.8,0,5.4-2.3,5.4-4V419.7z"/>
	<path class="st4" d="M160.3,411.2h3.5v2.5h-3.5v10.9c0,1.4,0.4,1.6,2.2,1.6h1.3v2.5h-2.2c-3,0-4.2-0.6-4.2-3.8v-11.2h-3v-2.5h3V406
		h2.9V411.2z"/>
	<path class="st4" d="M182,423.2c-0.8,3.9-3.5,6-7.5,6c-5.6,0-8.3-3.9-8.4-9.2c0-5.3,3.5-9.1,8.3-9.1c6.2,0,8.1,5.8,8,10.1h-13.2
		c-0.1,3.1,1.6,5.8,5.5,5.8c2.4,0,4-1.1,4.6-3.4H182z M179.2,418.3c-0.2-2.8-2.2-5-5.1-5c-3,0-4.9,2.2-5,5H179.2z"/>
	<path class="st4" d="M195.2,404.5h3.4l12.8,19.7h0.1v-19.7h3.1v24.3H211l-12.7-19.5h-0.1v19.5h-3.1V404.5z"/>
	<path class="st4" d="M226.9,410.8c5.6,0,8.5,4,8.5,9.2c0,5.1-3,9.2-8.5,9.2c-5.6,0-8.5-4-8.5-9.2
		C218.3,414.9,221.3,410.8,226.9,410.8z M226.9,426.7c3,0,5.5-2.4,5.5-6.6c0-4.2-2.4-6.7-5.5-6.7c-3,0-5.5,2.4-5.5,6.7
		C221.4,424.3,223.8,426.7,226.9,426.7z"/>
	<path class="st4" d="M238.8,411.2h2.7v2.8h0.1c1.2-2.2,3.2-3.2,5.7-3.2c4.6,0,6.1,2.7,6.1,6.4v11.6h-2.9v-11.9
		c0-2.2-1.4-3.5-3.6-3.5c-3.5,0-5.2,2.3-5.2,5.5v9.9h-2.9V411.2z"/>
	<path class="st4" d="M269.6,416.9c-0.4-2.2-1.9-3.5-4.4-3.5c-4.2,0-5.5,3.3-5.5,6.9c0,3.3,1.5,6.4,5.1,6.4c2.8,0,4.5-1.6,4.8-4.3h3
		c-0.6,4.3-3.3,6.8-7.8,6.8c-5.4,0-8.2-3.7-8.2-9s2.7-9.4,8.3-9.4c4,0,7.1,1.9,7.6,6.1H269.6z"/>
	<path class="st4" d="M283.5,410.8c5.6,0,8.5,4,8.5,9.2c0,5.1-3,9.2-8.5,9.2c-5.6,0-8.5-4-8.5-9.2C275,414.9,278,410.8,283.5,410.8z
		 M283.5,426.7c3,0,5.5-2.4,5.5-6.6c0-4.2-2.4-6.7-5.5-6.7c-3,0-5.5,2.4-5.5,6.7C278.1,424.3,280.5,426.7,283.5,426.7z"/>
	<path class="st4" d="M295.5,411.2h2.7v2.8h0.1c1.2-2.2,3.2-3.2,5.7-3.2c4.6,0,6.1,2.7,6.1,6.4v11.6h-2.9v-11.9
		c0-2.2-1.4-3.5-3.6-3.5c-3.5,0-5.2,2.3-5.2,5.5v9.9h-2.9V411.2z"/>
	<path class="st4" d="M315.6,413.8h-3v-2.5h3v-2.6c0-2.9,1.7-4.4,4.9-4.4c0.5,0,1.3,0.1,1.9,0.3v2.5c-0.5-0.2-1.1-0.2-1.6-0.2
		c-1.4,0-2.2,0.4-2.2,2v2.4h3.4v2.5h-3.4v15h-2.9V413.8z"/>
	<path class="st4" d="M332,410.8c5.6,0,8.5,4,8.5,9.2c0,5.1-3,9.2-8.5,9.2c-5.6,0-8.5-4-8.5-9.2C323.5,414.9,326.5,410.8,332,410.8z
		 M332,426.7c3,0,5.5-2.4,5.5-6.6c0-4.2-2.4-6.7-5.5-6.7c-3,0-5.5,2.4-5.5,6.7C326.6,424.3,329,426.7,332,426.7z"/>
	<path class="st4" d="M343.9,411.2h2.7v3.7h0.1c1.4-2.9,3.3-4.2,6.5-4.1v3.1c-4.7,0-6.4,2.6-6.4,7.1v7.8h-2.9V411.2z"/>
	<path class="st4" d="M355.3,411.2h2.7v2.6h0.1c1.3-2,3.2-3,5.7-3c2.2,0,4.1,0.8,4.8,3c1.2-1.9,3.2-3,5.5-3c3.5,0,5.8,1.5,5.8,5.1
		v12.9H377v-11.5c0-2.2-0.6-3.9-3.4-3.9c-2.8,0-4.6,1.8-4.6,4.5v10.9h-2.9v-11.5c0-2.3-0.7-3.9-3.3-3.9c-3.4,0-4.7,3.1-4.7,4.5v10.9
		h-2.9V411.2z"/>
	<path class="st4" d="M399.9,428.8c-0.5,0.3-1.2,0.5-2.1,0.5c-1.5,0-2.4-0.8-2.4-2.7c-1.6,1.9-3.7,2.7-6.2,2.7
		c-3.2,0-5.8-1.4-5.8-4.9c0-4,3-4.9,5.9-5.4c3.2-0.6,5.9-0.4,5.9-2.6c0-2.5-2.1-2.9-3.9-2.9c-2.4,0-4.2,0.7-4.4,3.3H384
		c0.2-4.4,3.5-5.9,7.4-5.9c3.2,0,6.6,0.7,6.6,4.8v9c0,1.4,0,2,0.9,2c0.3,0,0.6-0.1,0.9-0.2V428.8z M395.2,419.7
		c-2.2,1.7-8.8,0-8.8,4.4c0,1.9,1.6,2.6,3.4,2.6c3.8,0,5.4-2.3,5.4-4V419.7z"/>
	<path class="st4" d="M402.5,411.2h2.7v2.8h0.1c1.2-2.2,3.2-3.2,5.7-3.2c4.6,0,6.1,2.7,6.1,6.4v11.6h-2.9v-11.9
		c0-2.2-1.4-3.5-3.6-3.5c-3.5,0-5.2,2.3-5.2,5.5v9.9h-2.9V411.2z"/>
	<path class="st4" d="M433.4,416.9c-0.4-2.2-1.9-3.5-4.4-3.5c-4.2,0-5.5,3.3-5.5,6.9c0,3.3,1.5,6.4,5.1,6.4c2.8,0,4.5-1.6,4.8-4.3h3
		c-0.6,4.3-3.3,6.8-7.8,6.8c-5.4,0-8.2-3.7-8.2-9s2.7-9.4,8.3-9.4c4,0,7.1,1.9,7.6,6.1H433.4z"/>
	<path class="st4" d="M454.7,423.2c-0.8,3.9-3.5,6-7.5,6c-5.6,0-8.3-3.9-8.4-9.2c0-5.3,3.5-9.1,8.3-9.1c6.2,0,8.1,5.8,8,10.1h-13.2
		c-0.1,3.1,1.6,5.8,5.5,5.8c2.4,0,4-1.1,4.6-3.4H454.7z M451.9,418.3c-0.2-2.8-2.2-5-5.1-5c-3,0-4.9,2.2-5,5H451.9z"/>
</g>
<g class="st3">
	<path class="st4" d="M82.9,445.3h3.4L99.1,465h0.1v-19.7h3.1v24.3h-3.5l-12.7-19.5H86v19.5h-3.1V445.3z"/>
	<path class="st4" d="M114.6,451.6c5.6,0,8.5,4,8.5,9.2c0,5.1-3,9.2-8.5,9.2c-5.6,0-8.5-4-8.5-9.2
		C106.1,455.7,109,451.6,114.6,451.6z M114.6,467.5c3,0,5.5-2.4,5.5-6.6c0-4.2-2.4-6.7-5.5-6.7c-3,0-5.5,2.4-5.5,6.7
		C109.1,465.1,111.6,467.5,114.6,467.5z"/>
	<path class="st4" d="M130.6,452h3.5v2.5h-3.5v10.9c0,1.4,0.4,1.6,2.2,1.6h1.3v2.5h-2.2c-3,0-4.2-0.6-4.2-3.8v-11.2h-3V452h3v-5.3
		h2.9V452z"/>
	<path class="st4" d="M140.3,448.9h-2.9v-3.5h2.9V448.9z M137.4,452h2.9v17.6h-2.9V452z"/>
	<path class="st4" d="M146,454.6h-3V452h3v-2.6c0-2.9,1.7-4.4,4.9-4.4c0.5,0,1.3,0.1,1.9,0.3v2.5c-0.5-0.2-1.1-0.2-1.6-0.2
		c-1.4,0-2.2,0.4-2.2,2v2.4h3.4v2.5h-3.4v15H146V454.6z M155,448.9v-3.5h2.9v3.5H155z M155,469.6V452h2.9v17.6H155z"/>
	<path class="st4" d="M174.3,457.7c-0.4-2.2-1.9-3.5-4.4-3.5c-4.2,0-5.5,3.3-5.5,6.9c0,3.3,1.5,6.4,5.1,6.4c2.8,0,4.5-1.6,4.8-4.3h3
		c-0.6,4.3-3.3,6.8-7.8,6.8c-5.4,0-8.2-3.7-8.2-9s2.7-9.4,8.3-9.4c4,0,7.1,1.9,7.6,6.1H174.3z"/>
	<path class="st4" d="M196.2,469.6c-0.5,0.3-1.2,0.5-2.1,0.5c-1.5,0-2.4-0.8-2.4-2.7c-1.6,1.9-3.7,2.7-6.2,2.7
		c-3.2,0-5.8-1.4-5.8-4.9c0-4,3-4.9,5.9-5.4c3.2-0.6,5.9-0.4,5.9-2.6c0-2.5-2.1-2.9-3.9-2.9c-2.4,0-4.2,0.7-4.4,3.3h-2.9
		c0.2-4.4,3.5-5.9,7.4-5.9c3.2,0,6.6,0.7,6.6,4.8v9c0,1.4,0,2,0.9,2c0.3,0,0.6-0.1,0.9-0.2V469.6z M191.6,460.5
		c-2.2,1.7-8.8,0-8.8,4.4c0,1.9,1.6,2.6,3.4,2.6c3.8,0,5.4-2.3,5.4-4V460.5z"/>
	<path class="st4" d="M202.9,452h3.5v2.5h-3.5v10.9c0,1.4,0.4,1.6,2.2,1.6h1.3v2.5h-2.2c-3,0-4.2-0.6-4.2-3.8v-11.2h-3V452h3v-5.3
		h2.9V452z"/>
	<path class="st4" d="M212.7,448.9h-2.9v-3.5h2.9V448.9z M209.8,452h2.9v17.6h-2.9V452z"/>
	<path class="st4" d="M224.8,451.6c5.6,0,8.5,4,8.5,9.2c0,5.1-3,9.2-8.5,9.2c-5.6,0-8.5-4-8.5-9.2
		C216.2,455.7,219.2,451.6,224.8,451.6z M224.8,467.5c3,0,5.5-2.4,5.5-6.6c0-4.2-2.4-6.7-5.5-6.7c-3,0-5.5,2.4-5.5,6.7
		C219.3,465.1,221.7,467.5,224.8,467.5z"/>
	<path class="st4" d="M236.7,452h2.7v2.8h0.1c1.2-2.2,3.2-3.2,5.7-3.2c4.6,0,6.1,2.7,6.1,6.4v11.6h-2.9v-11.9c0-2.2-1.4-3.5-3.6-3.5
		c-3.5,0-5.2,2.3-5.2,5.5v9.9h-2.9V452z"/>
	<path class="st4" d="M269.8,476.4c-3.3-5.1-5.3-10-5.3-15.9c0-5.3,1.8-11,5.3-15.7h2.2c-3.3,5.1-4.5,10.1-4.5,15.7
		c0,5.7,1.3,10.7,4.5,15.9H269.8z"/>
	<path class="st4" d="M274.3,445.3h3.4l12.8,19.7h0.1v-19.7h3.1v24.3h-3.5l-12.7-19.5h-0.1v19.5h-3.1V445.3z"/>
	<path class="st4" d="M316,452.7c-0.7-3.4-3.4-5.2-6.8-5.2c-5.8,0-8.2,4.8-8.2,9.8c0,5.5,2.4,10.2,8.3,10.2c4.2,0,6.7-3,7-7h3.2
		c-0.6,6.1-4.4,9.7-10.5,9.7c-7.5,0-11.2-5.6-11.2-12.6s4-12.8,11.5-12.8c5.1,0,9.3,2.7,10,7.9H316z"/>
	<path class="st4" d="M323.4,445.3h3.4l12.8,19.7h0.1v-19.7h3.1v24.3h-3.5l-12.7-19.5h-0.1v19.5h-3.1V445.3z"/>
	<path class="st4" d="M345,476.4c3.3-5.1,4.5-10.1,4.5-15.7c0-5.7-1.3-10.7-4.5-15.9h2.2c3.3,5.1,5.3,10,5.3,15.9
		c0,5.3-1.8,11-5.3,15.7H345z"/>
</g>
<line class="st5" x1="62.7" y1="53.7" x2="475.4" y2="53.7"/>
<rect x="62" y="76" class="st2" width="430.4" height="48.6"/>
<g class="st3">
	<path class="st4" d="M65.5,76h5.8v32.8h-5.8V76z"/>
	<path class="st4" d="M99.9,108.8h-5v-3.2h-0.1c-1.4,2.8-4.4,3.9-7.4,3.9c-7.5,0-11.1-5.6-11.1-12.7c0-8.6,5.1-12.4,10.3-12.4
		c2.9,0,6.3,1.1,7.9,3.7h0.1V76h5.2V108.8z M88.2,105.3c4.6,0,6.7-4.3,6.7-8.4c0-5.3-2.5-8.4-6.6-8.4c-4.9,0-6.7,4.4-6.7,8.6
		C81.6,101.3,83.6,105.3,88.2,105.3z"/>
	<path class="st4" d="M109.7,98.3c0,3.7,2,7,6.4,7c3.1,0,4.9-1.3,5.8-4h5c-1.1,5.2-5.6,8.1-10.8,8.1c-7.5,0-11.6-5.2-11.6-12.5
		c0-6.8,4.4-12.6,11.5-12.6c7.5,0,12.1,6.8,11.2,13.9H109.7z M122,94.8c-0.2-3.3-2.4-6.3-6-6.3c-3.6,0-6.1,2.8-6.3,6.3H122z"/>
	<path class="st4" d="M131.2,85h5v3.5l0.1,0.1c1.6-2.6,4.3-4.2,7.4-4.2c5.2,0,8.4,2.7,8.4,8.1v16.3h-5.2v-15
		c-0.1-3.7-1.5-5.3-4.6-5.3c-3.5,0-5.8,2.8-5.8,6.3v14h-5.2V85z"/>
	<path class="st4" d="M155.2,85h4v-7.1h5.2V85h4.7v3.9h-4.7v12.7c0,2.2,0.2,3.3,2.5,3.3c0.7,0,1.5,0,2.2-0.2v4
		c-1.1,0.1-2.3,0.3-3.4,0.3c-5.5,0-6.4-2.1-6.6-6.1v-14h-4V85z"/>
	<path class="st4" d="M173.1,76h5.2v5h-5.2V76z M173.1,85h5.2v23.8h-5.2V85z"/>
	<path class="st4" d="M181.7,85h3.9v-2c0-6.1,3.2-7.1,6.6-7.1c1.7,0,2.9,0.1,3.7,0.3v4.1c-0.7-0.2-1.4-0.3-2.4-0.3
		c-1.4,0-2.6,0.5-2.6,2.5V85h4.5v3.9h-4.5v19.9h-5.2V88.9h-3.9V85z M198.6,76h5.2v5h-5.2V76z M198.6,85h5.2v23.8h-5.2V85z"/>
	<path class="st4" d="M225.6,93c-0.4-2.9-2.5-4.5-5.4-4.5c-2.7,0-6.5,1.5-6.5,8.6c0,4,1.7,8.1,6.3,8.1c3.1,0,5.2-2,5.7-5.4h5.2
		c-1,6.2-4.8,9.6-10.9,9.6c-7.5,0-11.5-5.3-11.5-12.3c0-7.2,3.9-12.8,11.7-12.8c5.5,0,10.2,2.8,10.7,8.6H225.6z"/>
	<path class="st4" d="M255.1,103.5c0,1.3,0.3,1.8,1.2,1.8h0.6c0.2,0,0.5,0,0.7-0.1v3.6c-0.8,0.3-2.4,0.6-3.3,0.6
		c-2.2,0-3.6-0.7-4-2.9c-2.1,2-5.4,2.9-8.2,2.9c-4.3,0-8.1-2.3-8.1-6.9c0-5.9,4.7-6.9,9.2-7.4c3.8-0.7,7.1-0.2,7.1-3.4
		c0-2.8-2.9-3.2-4.9-3.2c-2.9,0-5,1.2-5.2,3.8h-5.2c0.4-6.1,5.5-7.9,10.8-7.9c4.6,0,9.5,1.9,9.5,6.9V103.5z M249.8,96.9
		c-1.6,1.1-4.1,1-6.4,1.4c-2.3,0.4-4.3,1.2-4.3,4c0,2.4,3,3,4.8,3c2.3,0,5.9-1.2,5.9-4.5V96.9z"/>
	<path class="st4" d="M258.3,85h4v-7.1h5.2V85h4.7v3.9h-4.7v12.7c0,2.2,0.2,3.3,2.5,3.3c0.7,0,1.5,0,2.2-0.2v4
		c-1.1,0.1-2.3,0.3-3.4,0.3c-5.5,0-6.4-2.1-6.6-6.1v-14h-4V85z"/>
	<path class="st4" d="M276.2,76h5.2v5h-5.2V76z M276.2,85h5.2v23.8h-5.2V85z"/>
	<path class="st4" d="M286,96.9c0-7.2,4.4-12.5,12-12.5s12,5.3,12,12.5c0,7.3-4.4,12.6-12,12.6S286,104.2,286,96.9z M304.8,96.9
		c0-4.1-2.1-8.4-6.8-8.4s-6.8,4.3-6.8,8.4c0,4.1,2.1,8.4,6.8,8.4S304.8,101,304.8,96.9z"/>
	<path class="st4" d="M314.4,85h5v3.5l0.1,0.1c1.6-2.6,4.3-4.2,7.4-4.2c5.2,0,8.4,2.7,8.4,8.1v16.3h-5.2v-15
		c-0.1-3.7-1.5-5.3-4.6-5.3c-3.5,0-5.8,2.8-5.8,6.3v14h-5.2V85z"/>
</g>
<rect x="556.3" y="201.3" class="st2" width="426.1" height="443.4"/>
<g class="st3">
	<path class="st6" d="M564.8,207.4c3.4,0,6.1,2.7,6.1,6.1s-2.7,6.1-6.1,6.1s-6.1-2.7-6.1-6.1S561.4,207.4,564.8,207.4z"/>
	<path class="st6" d="M585.5,201.3h3.2v24.3h-3.2V201.3z"/>
	<path class="st6" d="M593.7,208h2.7v2.6h0.1c1.3-2,3.2-3,5.7-3c2.2,0,4.1,0.8,4.8,3c1.2-1.9,3.2-3,5.5-3c3.5,0,5.8,1.5,5.8,5.1
		v12.9h-2.9v-11.5c0-2.2-0.6-3.9-3.4-3.9c-2.8,0-4.6,1.8-4.6,4.5v10.9h-2.9v-11.5c0-2.3-0.7-3.9-3.3-3.9c-3.4,0-4.7,3.1-4.7,4.5
		v10.9h-2.9V208z"/>
	<path class="st6" d="M622.7,208h2.7v2.6h0.1c1.3-2,3.2-3,5.7-3c2.2,0,4.1,0.8,4.8,3c1.2-1.9,3.2-3,5.5-3c3.5,0,5.8,1.5,5.8,5.1
		v12.9h-2.9v-11.5c0-2.2-0.6-3.9-3.4-3.9c-2.8,0-4.6,1.8-4.6,4.5v10.9h-2.9v-11.5c0-2.3-0.7-3.9-3.3-3.9c-3.4,0-4.7,3.1-4.7,4.5
		v10.9h-2.9V208z"/>
	<path class="st6" d="M666.7,220c-0.8,3.9-3.5,6-7.5,6c-5.6,0-8.3-3.9-8.4-9.2c0-5.3,3.5-9.1,8.3-9.1c6.2,0,8.1,5.8,8,10.1h-13.2
		c-0.1,3.1,1.6,5.8,5.5,5.8c2.4,0,4-1.1,4.6-3.4H666.7z M663.9,215.1c-0.2-2.8-2.2-5-5.1-5c-3,0-4.9,2.2-5,5H663.9z"/>
	<path class="st6" d="M685.7,225.6h-2.9v-2.4h-0.1c-1,1.9-3.2,2.8-5.6,2.8c-5.4,0-8.1-4.3-8.1-9.2c0-5,2.7-9.1,8-9.1
		c1.8,0,4.4,0.7,5.7,2.8h0.1v-9h2.9V225.6z M677.5,223.5c3.9,0,5.4-3.4,5.4-6.6c0-3.4-1.6-6.7-5.5-6.7c-3.9,0-5.3,3.4-5.3,6.8
		C672.1,220.3,673.8,223.5,677.5,223.5z"/>
	<path class="st6" d="M693.2,204.9h-2.9v-3.5h2.9V204.9z M690.3,208h2.9v17.6h-2.9V208z"/>
	<path class="st6" d="M713.3,225.6c-0.5,0.3-1.2,0.5-2.1,0.5c-1.5,0-2.4-0.8-2.4-2.7c-1.6,1.9-3.7,2.7-6.2,2.7
		c-3.2,0-5.8-1.4-5.8-4.9c0-4,3-4.9,5.9-5.4c3.2-0.6,5.9-0.4,5.9-2.6c0-2.5-2.1-2.9-3.9-2.9c-2.4,0-4.2,0.7-4.4,3.3h-2.9
		c0.2-4.4,3.5-5.9,7.4-5.9c3.2,0,6.6,0.7,6.6,4.8v9c0,1.4,0,2,0.9,2c0.3,0,0.6-0.1,0.9-0.2V225.6z M708.6,216.5
		c-2.2,1.7-8.8,0-8.8,4.4c0,1.9,1.6,2.6,3.4,2.6c3.8,0,5.4-2.3,5.4-4V216.5z"/>
	<path class="st6" d="M720,208h3.5v2.5H720v10.9c0,1.4,0.4,1.6,2.2,1.6h1.3v2.5h-2.2c-3,0-4.2-0.6-4.2-3.8v-11.2h-3V208h3v-5.3h2.9
		V208z"/>
	<path class="st6" d="M741.6,220c-0.8,3.9-3.5,6-7.5,6c-5.6,0-8.3-3.9-8.4-9.2c0-5.3,3.5-9.1,8.3-9.1c6.2,0,8.1,5.8,8,10.1h-13.2
		c-0.1,3.1,1.6,5.8,5.5,5.8c2.4,0,4-1.1,4.6-3.4H741.6z M738.9,215.1c-0.2-2.8-2.2-5-5.1-5c-3,0-4.9,2.2-5,5H738.9z"/>
	<path class="st6" d="M745.1,201.3h2.9v24.3h-2.9V201.3z"/>
	<path class="st6" d="M759.4,228c-1.4,3.4-2.5,4.7-5.1,4.7c-0.7,0-1.4-0.1-2-0.3v-2.7c0.5,0.2,1.1,0.4,1.7,0.4
		c1.2,0,1.8-0.5,2.4-1.6l1.2-3l-7-17.5h3.3l5.1,14.4h0.1L764,208h3.1L759.4,228z"/>
	<path class="st6" d="M780.7,220.1c0.1,2.6,2.4,3.4,4.7,3.4c1.8,0,4.2-0.4,4.2-2.6c0-4.5-11.5-1.5-11.5-8.2c0-3.5,3.5-5,6.6-5
		c3.9,0,6.9,1.2,7.2,5.5H789c-0.2-2.2-2.2-3-4.1-3c-1.7,0-3.7,0.5-3.7,2.2c0,2,3.1,2.4,5.7,3.1c2.9,0.6,5.7,1.6,5.7,5
		c0,4.2-3.9,5.5-7.5,5.5c-3.9,0-7.3-1.6-7.4-5.9H780.7z"/>
	<path class="st6" d="M810.9,220c-0.8,3.9-3.5,6-7.5,6c-5.6,0-8.3-3.9-8.4-9.2c0-5.3,3.5-9.1,8.3-9.1c6.2,0,8.1,5.8,8,10.1H798
		c-0.1,3.1,1.6,5.8,5.5,5.8c2.4,0,4-1.1,4.6-3.4H810.9z M808.1,215.1c-0.2-2.8-2.2-5-5.1-5c-3,0-4.9,2.2-5,5H808.1z"/>
	<path class="st6" d="M829.3,224.1c0,5.7-2.6,8.6-8.2,8.6c-3.3,0-7.1-1.4-7.3-5.2h2.9c0.1,2.1,2.7,2.9,4.6,2.9
		c3.8,0,5.3-2.7,5.3-6.7v-1.2h-0.1c-1,2.1-3.2,3.2-5.5,3.2c-5.2,0-7.9-4.1-7.9-8.9c0-4.1,2-9.3,8.1-9.3c2.2,0,4.2,1,5.2,2.9h0V208
		h2.7V224.1z M826.5,216.5c0-3.1-1.4-6.3-5-6.3c-3.7,0-5.2,3-5.2,6.4c0,3.2,1.2,6.7,5,6.7S826.5,219.8,826.5,216.5z"/>
	<path class="st6" d="M833.6,208h2.7v3.7h0.1c1.4-2.9,3.3-4.2,6.5-4.1v3.1c-4.7,0-6.4,2.6-6.4,7.1v7.8h-2.9V208z"/>
	<path class="st6" d="M860,220c-0.8,3.9-3.5,6-7.5,6c-5.6,0-8.3-3.9-8.4-9.2c0-5.3,3.5-9.1,8.3-9.1c6.2,0,8.1,5.8,8,10.1h-13.2
		c-0.1,3.1,1.6,5.8,5.5,5.8c2.4,0,4-1.1,4.6-3.4H860z M857.2,215.1c-0.2-2.8-2.2-5-5.1-5c-3,0-4.9,2.2-5,5H857.2z"/>
	<path class="st6" d="M878.4,224.1c0,5.7-2.6,8.6-8.2,8.6c-3.3,0-7.1-1.4-7.3-5.2h2.9c0.1,2.1,2.7,2.9,4.6,2.9
		c3.8,0,5.3-2.7,5.3-6.7v-1.2h-0.1c-1,2.1-3.2,3.2-5.5,3.2c-5.2,0-7.9-4.1-7.9-8.9c0-4.1,2-9.3,8.1-9.3c2.2,0,4.2,1,5.2,2.9h0V208
		h2.7V224.1z M875.6,216.5c0-3.1-1.4-6.3-5-6.3c-3.7,0-5.2,3-5.2,6.4c0,3.2,1.2,6.7,5,6.7S875.6,219.8,875.6,216.5z"/>
	<path class="st6" d="M898.4,225.6c-0.5,0.3-1.2,0.5-2.1,0.5c-1.5,0-2.4-0.8-2.4-2.7c-1.6,1.9-3.7,2.7-6.2,2.7
		c-3.2,0-5.8-1.4-5.8-4.9c0-4,3-4.9,5.9-5.4c3.2-0.6,5.9-0.4,5.9-2.6c0-2.5-2.1-2.9-3.9-2.9c-2.4,0-4.2,0.7-4.4,3.3h-2.9
		c0.2-4.4,3.5-5.9,7.4-5.9c3.2,0,6.6,0.7,6.6,4.8v9c0,1.4,0,2,0.9,2c0.3,0,0.6-0.1,0.9-0.2V225.6z M893.7,216.5
		c-2.2,1.7-8.8,0-8.8,4.4c0,1.9,1.6,2.6,3.4,2.6c3.8,0,5.4-2.3,5.4-4V216.5z"/>
	<path class="st6" d="M905,208h3.5v2.5H905v10.9c0,1.4,0.4,1.6,2.2,1.6h1.3v2.5h-2.2c-3,0-4.2-0.6-4.2-3.8v-11.2h-3V208h3v-5.3h2.9
		V208z"/>
	<path class="st6" d="M926.7,220c-0.8,3.9-3.5,6-7.5,6c-5.6,0-8.3-3.9-8.4-9.2c0-5.3,3.5-9.1,8.3-9.1c6.2,0,8.1,5.8,8,10.1h-13.2
		c-0.1,3.1,1.6,5.8,5.5,5.8c2.4,0,4-1.1,4.6-3.4H926.7z M924,215.1c-0.2-2.8-2.2-5-5.1-5c-3,0-4.9,2.2-5,5H924z"/>
</g>
<g class="st3">
	<path class="st6" d="M588.2,273.2c-3.3-5.1-5.3-10-5.3-15.9c0-5.3,1.8-11,5.3-15.7h2.2c-3.3,5.1-4.5,10.1-4.5,15.7
		c0,5.7,1.3,10.7,4.5,15.9H588.2z"/>
	<path class="st6" d="M595.3,245.7h-2.9v-3.5h2.9V245.7z M592.4,248.8h2.9v17.6h-2.9V248.8z"/>
	<path class="st6" d="M601,251.4h-3v-2.5h3v-2.6c0-2.9,1.7-4.4,4.9-4.4c0.5,0,1.3,0.1,1.9,0.3v2.5c-0.5-0.2-1.1-0.2-1.6-0.2
		c-1.4,0-2.2,0.4-2.2,2v2.4h3.4v2.5h-3.4v15H601V251.4z"/>
	<path class="st6" d="M619.4,248.8h2.9v2.4h0.1c1-1.9,3.2-2.8,5.6-2.8c5.4,0,8.1,4.3,8.1,9.2c0,5-2.7,9.1-8,9.1
		c-1.8,0-4.4-0.7-5.7-2.8h-0.1v9.1h-2.9V248.8z M627.6,251c-3.9,0-5.4,3.4-5.4,6.6c0,3.4,1.6,6.7,5.5,6.7c3.9,0,5.3-3.4,5.3-6.8
		C633,254.2,631.3,251,627.6,251z"/>
	<path class="st6" d="M647.1,248.4c5.6,0,8.5,4,8.5,9.2c0,5.1-3,9.2-8.5,9.2c-5.6,0-8.5-4-8.5-9.2
		C638.5,252.5,641.5,248.4,647.1,248.4z M647.1,264.3c3,0,5.5-2.4,5.5-6.6c0-4.2-2.4-6.7-5.5-6.7c-3,0-5.5,2.4-5.5,6.7
		C641.6,261.9,644,264.3,647.1,264.3z"/>
	<path class="st6" d="M660.8,260.9c0.1,2.6,2.4,3.4,4.7,3.4c1.8,0,4.2-0.4,4.2-2.6c0-4.5-11.5-1.5-11.5-8.2c0-3.5,3.5-5,6.6-5
		c3.9,0,6.9,1.2,7.2,5.5h-2.9c-0.2-2.2-2.2-3-4.1-3c-1.7,0-3.7,0.5-3.7,2.2c0,2,3.1,2.4,5.7,3.1c2.9,0.6,5.7,1.6,5.7,5
		c0,4.2-3.9,5.5-7.5,5.5c-3.9,0-7.3-1.6-7.4-5.9H660.8z"/>
	<path class="st6" d="M677.8,260.9c0.1,2.6,2.4,3.4,4.7,3.4c1.8,0,4.2-0.4,4.2-2.6c0-4.5-11.5-1.5-11.5-8.2c0-3.5,3.5-5,6.6-5
		c3.9,0,6.9,1.2,7.2,5.5h-2.9c-0.2-2.2-2.2-3-4.1-3c-1.7,0-3.7,0.5-3.7,2.2c0,2,3.1,2.4,5.7,3.1c2.9,0.6,5.7,1.6,5.7,5
		c0,4.2-3.9,5.5-7.5,5.5c-3.9,0-7.3-1.6-7.4-5.9H677.8z"/>
	<path class="st6" d="M696.1,245.7h-2.9v-3.5h2.9V245.7z M693.2,248.8h2.9v17.6h-2.9V248.8z"/>
	<path class="st6" d="M700.7,242.1h2.9v9.1h0.1c1-1.9,3.2-2.8,5.6-2.8c5.4,0,8.1,4.3,8.1,9.2c0,5-2.7,9.1-8,9.1
		c-1.8,0-4.4-0.7-5.7-2.8h-0.1v2.3h-2.9V242.1z M708.8,251c-3.9,0-5.4,3.4-5.4,6.6c0,3.4,1.6,6.7,5.5,6.7c3.9,0,5.3-3.4,5.3-6.8
		C714.3,254.2,712.6,251,708.8,251z"/>
	<path class="st6" d="M720.9,242.1h2.9v24.3h-2.9V242.1z"/>
	<path class="st6" d="M743.3,260.8c-0.8,3.9-3.5,6-7.5,6c-5.6,0-8.3-3.9-8.4-9.2c0-5.3,3.5-9.1,8.3-9.1c6.2,0,8.1,5.8,8,10.1h-13.2
		c-0.1,3.1,1.6,5.8,5.5,5.8c2.4,0,4-1.1,4.6-3.4H743.3z M740.5,255.9c-0.2-2.8-2.2-5-5.1-5c-3,0-4.9,2.2-5,5H740.5z"/>
	<path class="st6" d="M744,273.2c3.3-5.1,4.5-10.1,4.5-15.7c0-5.7-1.3-10.7-4.5-15.9h2.2c3.3,5.1,5.3,10,5.3,15.9
		c0,5.3-1.8,11-5.3,15.7H744z"/>
</g>
<g class="st3">
	<path class="st6" d="M564.8,299c3.4,0,6.1,2.7,6.1,6.1s-2.7,6.1-6.1,6.1s-6.1-2.7-6.1-6.1S561.4,299,564.8,299z"/>
	<path class="st6" d="M585.4,292.9h8.3c7.5,0,11.7,3.8,11.7,11.6c0,8.1-3.6,12.7-11.7,12.7h-8.3V292.9z M588.6,314.5h5.4
		c2.2,0,8.2-0.6,8.2-9.6c0-5.8-2.1-9.3-8.1-9.3h-5.4V314.5z"/>
	<path class="st6" d="M616.4,299.2c5.6,0,8.5,4,8.5,9.2c0,5.1-3,9.2-8.5,9.2c-5.6,0-8.5-4-8.5-9.2
		C607.9,303.3,610.9,299.2,616.4,299.2z M616.4,315.1c3,0,5.5-2.4,5.5-6.6c0-4.2-2.4-6.7-5.5-6.7c-3,0-5.5,2.4-5.5,6.7
		C611,312.7,613.4,315.1,616.4,315.1z"/>
	<path class="st6" d="M640.3,305.3c-0.4-2.2-1.9-3.5-4.4-3.5c-4.2,0-5.5,3.3-5.5,6.9c0,3.3,1.5,6.4,5.1,6.4c2.8,0,4.5-1.6,4.8-4.3h3
		c-0.6,4.3-3.3,6.8-7.8,6.8c-5.4,0-8.2-3.7-8.2-9s2.7-9.4,8.3-9.4c4,0,7.1,1.9,7.6,6.1H640.3z"/>
	<path class="st6" d="M661.2,317.2h-2.7v-2.8h-0.1c-1.2,2.2-3.2,3.2-5.7,3.2c-4.6,0-6.1-2.7-6.1-6.4v-11.6h2.9v11.9
		c0,2.2,1.4,3.5,3.6,3.5c3.5,0,5.2-2.3,5.2-5.5v-9.9h2.9V317.2z"/>
	<path class="st6" d="M665.5,299.6h2.7v2.6h0.1c1.3-2,3.2-3,5.7-3c2.2,0,4.1,0.8,4.8,3c1.2-1.9,3.2-3,5.5-3c3.5,0,5.8,1.5,5.8,5.1
		v12.9h-2.9v-11.5c0-2.2-0.6-3.9-3.4-3.9c-2.8,0-4.6,1.8-4.6,4.5v10.9h-2.9v-11.5c0-2.3-0.7-3.9-3.3-3.9c-3.4,0-4.7,3.1-4.7,4.5
		v10.9h-2.9V299.6z"/>
	<path class="st6" d="M709.5,311.6c-0.8,3.9-3.5,6-7.5,6c-5.6,0-8.3-3.9-8.4-9.2c0-5.3,3.5-9.1,8.3-9.1c6.2,0,8.1,5.8,8,10.1h-13.2
		c-0.1,3.1,1.6,5.8,5.5,5.8c2.4,0,4-1.1,4.6-3.4H709.5z M706.7,306.7c-0.2-2.8-2.2-5-5.1-5c-3,0-4.9,2.2-5,5H706.7z"/>
	<path class="st6" d="M712.8,299.6h2.7v2.8h0.1c1.2-2.2,3.2-3.2,5.7-3.2c4.6,0,6.1,2.7,6.1,6.4v11.6h-2.9v-11.9
		c0-2.2-1.4-3.5-3.6-3.5c-3.5,0-5.2,2.3-5.2,5.5v9.9h-2.9V299.6z"/>
	<path class="st6" d="M735.7,299.6h3.5v2.5h-3.5v10.9c0,1.4,0.4,1.6,2.2,1.6h1.3v2.5H737c-3,0-4.2-0.6-4.2-3.8v-11.2h-3v-2.5h3v-5.3
		h2.9V299.6z"/>
	<path class="st6" d="M753.6,311.7c0.1,2.6,2.4,3.4,4.7,3.4c1.8,0,4.2-0.4,4.2-2.6c0-4.5-11.5-1.5-11.5-8.2c0-3.5,3.5-5,6.6-5
		c3.9,0,6.9,1.2,7.2,5.5H762c-0.2-2.2-2.2-3-4.1-3c-1.7,0-3.7,0.5-3.7,2.2c0,2,3.1,2.4,5.7,3.1c2.9,0.6,5.7,1.6,5.7,5
		c0,4.2-3.9,5.5-7.5,5.5c-3.9,0-7.3-1.6-7.4-5.9H753.6z"/>
	<path class="st6" d="M783.8,311.6c-0.8,3.9-3.5,6-7.5,6c-5.6,0-8.3-3.9-8.4-9.2c0-5.3,3.5-9.1,8.3-9.1c6.2,0,8.1,5.8,8,10.1H771
		c-0.1,3.1,1.6,5.8,5.5,5.8c2.4,0,4-1.1,4.6-3.4H783.8z M781.1,306.7c-0.2-2.8-2.2-5-5.1-5c-3,0-4.9,2.2-5,5H781.1z"/>
	<path class="st6" d="M802.3,315.7c0,5.7-2.6,8.6-8.2,8.6c-3.3,0-7.1-1.4-7.3-5.2h2.9c0.1,2.1,2.7,2.9,4.6,2.9
		c3.8,0,5.3-2.7,5.3-6.7v-1.2h-0.1c-1,2.1-3.2,3.2-5.5,3.2c-5.2,0-7.9-4.1-7.9-8.9c0-4.1,2-9.3,8.1-9.3c2.2,0,4.2,1,5.2,2.9h0v-2.5
		h2.7V315.7z M799.4,308.1c0-3.1-1.4-6.3-5-6.3c-3.7,0-5.2,3-5.2,6.4c0,3.2,1.2,6.7,5,6.7S799.4,311.4,799.4,308.1z"/>
	<path class="st6" d="M806.5,299.6h2.7v3.7h0.1c1.4-2.9,3.3-4.2,6.5-4.1v3.1c-4.7,0-6.4,2.6-6.4,7.1v7.8h-2.9V299.6z"/>
	<path class="st6" d="M832.9,311.6c-0.8,3.9-3.5,6-7.5,6c-5.6,0-8.3-3.9-8.4-9.2c0-5.3,3.5-9.1,8.3-9.1c6.2,0,8.1,5.8,8,10.1h-13.2
		c-0.1,3.1,1.6,5.8,5.5,5.8c2.4,0,4-1.1,4.6-3.4H832.9z M830.1,306.7c-0.2-2.8-2.2-5-5.1-5c-3,0-4.9,2.2-5,5H830.1z"/>
	<path class="st6" d="M851.4,315.7c0,5.7-2.6,8.6-8.2,8.6c-3.3,0-7.1-1.4-7.3-5.2h2.9c0.1,2.1,2.7,2.9,4.6,2.9
		c3.8,0,5.3-2.7,5.3-6.7v-1.2h-0.1c-1,2.1-3.2,3.2-5.5,3.2c-5.2,0-7.9-4.1-7.9-8.9c0-4.1,2-9.3,8.1-9.3c2.2,0,4.2,1,5.2,2.9h0v-2.5
		h2.7V315.7z M848.5,308.1c0-3.1-1.4-6.3-5-6.3c-3.7,0-5.2,3-5.2,6.4c0,3.2,1.2,6.7,5,6.7S848.5,311.4,848.5,308.1z"/>
	<path class="st6" d="M871.3,317.2c-0.5,0.3-1.2,0.5-2.1,0.5c-1.5,0-2.4-0.8-2.4-2.7c-1.6,1.9-3.7,2.7-6.2,2.7
		c-3.2,0-5.8-1.4-5.8-4.9c0-4,3-4.9,5.9-5.4c3.2-0.6,5.9-0.4,5.9-2.6c0-2.5-2.1-2.9-3.9-2.9c-2.4,0-4.2,0.7-4.4,3.3h-2.9
		c0.2-4.4,3.5-5.9,7.4-5.9c3.2,0,6.6,0.7,6.6,4.8v9c0,1.4,0,2,0.9,2c0.3,0,0.6-0.1,0.9-0.2V317.2z M866.6,308.1
		c-2.2,1.7-8.8,0-8.8,4.4c0,1.9,1.6,2.6,3.4,2.6c3.8,0,5.4-2.3,5.4-4V308.1z"/>
	<path class="st6" d="M878,299.6h3.5v2.5H878v10.9c0,1.4,0.4,1.6,2.2,1.6h1.3v2.5h-2.2c-3,0-4.2-0.6-4.2-3.8v-11.2h-3v-2.5h3v-5.3
		h2.9V299.6z"/>
	<path class="st6" d="M887.7,296.5h-2.9v-3.5h2.9V296.5z M884.9,299.6h2.9v17.6h-2.9V299.6z"/>
	<path class="st6" d="M899.8,299.2c5.6,0,8.5,4,8.5,9.2c0,5.1-3,9.2-8.5,9.2c-5.6,0-8.5-4-8.5-9.2
		C891.3,303.3,894.2,299.2,899.8,299.2z M899.8,315.1c3,0,5.5-2.4,5.5-6.6c0-4.2-2.4-6.7-5.5-6.7c-3,0-5.5,2.4-5.5,6.7
		C894.3,312.7,896.8,315.1,899.8,315.1z"/>
	<path class="st6" d="M911.7,299.6h2.7v2.8h0.1c1.2-2.2,3.2-3.2,5.7-3.2c4.6,0,6.1,2.7,6.1,6.4v11.6h-2.9v-11.9
		c0-2.2-1.4-3.5-3.6-3.5c-3.5,0-5.2,2.3-5.2,5.5v9.9h-2.9V299.6z"/>
	<path class="st6" d="M947.7,299.2c5.6,0,8.5,4,8.5,9.2c0,5.1-3,9.2-8.5,9.2c-5.6,0-8.5-4-8.5-9.2
		C939.2,303.3,942.1,299.2,947.7,299.2z M947.7,315.1c3,0,5.5-2.4,5.5-6.6c0-4.2-2.4-6.7-5.5-6.7c-3,0-5.5,2.4-5.5,6.7
		C942.2,312.7,944.7,315.1,947.7,315.1z"/>
	<path class="st6" d="M959.6,299.6h2.7v2.8h0.1c1.2-2.2,3.2-3.2,5.7-3.2c4.6,0,6.1,2.7,6.1,6.4v11.6h-2.9v-11.9
		c0-2.2-1.4-3.5-3.6-3.5c-3.5,0-5.2,2.3-5.2,5.5v9.9h-2.9V299.6z"/>
</g>
<g class="st3">
	<path class="st6" d="M583.9,333.7h3.4l12.8,19.7h0.1v-19.7h3.1V358h-3.5L587,338.5H587V358h-3.1V333.7z"/>
	<path class="st6" d="M625.5,341.1c-0.7-3.4-3.4-5.2-6.8-5.2c-5.8,0-8.2,4.8-8.2,9.8c0,5.5,2.4,10.2,8.3,10.2c4.2,0,6.7-3,7-7h3.2
		c-0.6,6.1-4.4,9.7-10.5,9.7c-7.5,0-11.2-5.6-11.2-12.6s4-12.8,11.5-12.8c5.1,0,9.3,2.7,10,7.9H625.5z"/>
	<path class="st6" d="M633,333.7h3.4l12.8,19.7h0.1v-19.7h3.1V358h-3.5l-12.7-19.5h-0.1V358H633V333.7z"/>
</g>
<line class="st5" x1="563.7" y1="53.7" x2="976.4" y2="53.7"/>
<rect x="562.9" y="76" class="st2" width="430.4" height="48.6"/>
<g class="st3">
	<path class="st6" d="M570.2,97.9c0,5,3.7,7,8.3,7c5.1,0,6.9-2.5,6.9-5c0-2.5-1.4-3.5-2.7-4c-2.3-0.9-5.2-1.5-9.8-2.7
		c-5.7-1.5-7.3-4.9-7.3-8.3c0-6.6,6.1-9.7,12-9.7c6.8,0,12.6,3.6,12.6,10.5h-5.8c-0.3-4.2-3.1-5.8-7.1-5.8c-2.7,0-6,1-6,4.3
		c0,2.3,1.6,3.5,3.9,4.2c0.5,0.1,7.8,2,9.5,2.5c4.3,1.3,6.4,4.9,6.4,8.4c0,7.4-6.6,10.3-13.1,10.3c-7.5,0-13.6-3.6-13.7-11.7H570.2z
		"/>
	<path class="st6" d="M599.6,98.3c0,3.7,2,7,6.4,7c3.1,0,4.9-1.3,5.8-4h5c-1.1,5.2-5.6,8.1-10.8,8.1c-7.5,0-11.6-5.2-11.6-12.5
		c0-6.8,4.4-12.6,11.5-12.6c7.5,0,12.1,6.8,11.2,13.9H599.6z M611.8,94.8c-0.2-3.3-2.4-6.3-6-6.3c-3.6,0-6.1,2.8-6.3,6.3H611.8z"/>
	<path class="st6" d="M643.1,107.6c0,7.2-4.1,10.7-11.7,10.7c-4.8,0-10.1-1.8-10.6-7.4h5.2c0.6,3,3,3.5,5.7,3.5
		c4.2,0,6.1-2.2,6.1-6.1v-3.6h-0.1c-1.5,2.6-4.2,4.2-7.1,4.2c-7.5,0-10.7-5.7-10.7-12.5c0-6.4,4-11.9,10.8-11.9c3,0,5.7,1.2,7,3.9
		h0.1V85h5.2V107.6z M637.8,96.4c0-4.1-1.8-7.9-6.4-7.9c-4.6,0-6.3,4.3-6.3,8.3c0,3.9,1.9,7.9,6.3,7.9
		C636.1,104.7,637.8,100.5,637.8,96.4z"/>
	<path class="st6" d="M648.4,85h4.9v4.6h0.1c0.6-2.5,3.8-5.2,6.9-5.2c1.2,0,1.5,0.1,2,0.1v5.1c-0.7-0.1-1.5-0.2-2.3-0.2
		c-3.5,0-6.4,2.9-6.4,8.1v11.3h-5.2V85z"/>
	<path class="st6" d="M667.8,98.3c0,3.7,2,7,6.4,7c3.1,0,4.9-1.3,5.8-4h5c-1.1,5.2-5.6,8.1-10.8,8.1c-7.5,0-11.6-5.2-11.6-12.5
		c0-6.8,4.4-12.6,11.5-12.6c7.5,0,12.1,6.8,11.2,13.9H667.8z M680.1,94.8c-0.2-3.3-2.4-6.3-6-6.3c-3.6,0-6.1,2.8-6.3,6.3H680.1z"/>
	<path class="st6" d="M711.3,107.6c0,7.2-4.1,10.7-11.7,10.7c-4.8,0-10.1-1.8-10.6-7.4h5.2c0.6,3,3,3.5,5.7,3.5
		c4.2,0,6.1-2.2,6.1-6.1v-3.6H706c-1.5,2.6-4.2,4.2-7.1,4.2c-7.5,0-10.7-5.7-10.7-12.5c0-6.4,4-11.9,10.8-11.9c3,0,5.7,1.2,7,3.9
		h0.1V85h5.2V107.6z M706.1,96.4c0-4.1-1.8-7.9-6.4-7.9c-4.6,0-6.3,4.3-6.3,8.3c0,3.9,1.9,7.9,6.3,7.9
		C704.3,104.7,706.1,100.5,706.1,96.4z"/>
	<path class="st6" d="M736.5,103.5c0,1.3,0.3,1.8,1.2,1.8h0.6c0.2,0,0.5,0,0.7-0.1v3.6c-0.8,0.3-2.4,0.6-3.3,0.6
		c-2.2,0-3.6-0.7-4-2.9c-2.1,2-5.4,2.9-8.2,2.9c-4.3,0-8.1-2.3-8.1-6.9c0-5.9,4.7-6.9,9.2-7.4c3.8-0.7,7.1-0.2,7.1-3.4
		c0-2.8-2.9-3.2-4.9-3.2c-2.9,0-5,1.2-5.2,3.8h-5.2c0.4-6.1,5.5-7.9,10.8-7.9c4.6,0,9.5,1.9,9.5,6.9V103.5z M731.3,96.9
		c-1.6,1.1-4.1,1-6.4,1.4c-2.3,0.4-4.3,1.2-4.3,4c0,2.4,3,3,4.8,3c2.3,0,5.9-1.2,5.9-4.5V96.9z"/>
	<path class="st6" d="M739.8,85h4v-7.1h5.2V85h4.7v3.9H749v12.7c0,2.2,0.2,3.3,2.5,3.3c0.7,0,1.5,0,2.2-0.2v4
		c-1.1,0.1-2.3,0.3-3.4,0.3c-5.5,0-6.4-2.1-6.6-6.1v-14h-4V85z"/>
	<path class="st6" d="M757.6,76h5.2v5h-5.2V76z M757.6,85h5.2v23.8h-5.2V85z"/>
	<path class="st6" d="M767.5,96.9c0-7.2,4.4-12.5,12-12.5s12,5.3,12,12.5c0,7.3-4.4,12.6-12,12.6S767.5,104.2,767.5,96.9z
		 M786.2,96.9c0-4.1-2.1-8.4-6.8-8.4s-6.8,4.3-6.8,8.4c0,4.1,2.1,8.4,6.8,8.4S786.2,101,786.2,96.9z"/>
	<path class="st6" d="M795.8,85h5v3.5l0.1,0.1c1.6-2.6,4.3-4.2,7.4-4.2c5.2,0,8.4,2.7,8.4,8.1v16.3h-5.2v-15
		c-0.1-3.7-1.5-5.3-4.6-5.3c-3.5,0-5.8,2.8-5.8,6.3v14h-5.2V85z"/>
</g>
<rect x="1073.8" y="201.3" class="st2" width="426.1" height="443.4"/>
<g class="st3">
	<path class="st4" d="M1082.3,207.4c3.4,0,6.1,2.7,6.1,6.1s-2.7,6.1-6.1,6.1s-6.1-2.7-6.1-6.1S1078.9,207.4,1082.3,207.4z"/>
	<path class="st4" d="M1119.9,208.7c-0.7-3.4-3.4-5.2-6.8-5.2c-5.8,0-8.2,4.8-8.2,9.8c0,5.5,2.4,10.2,8.3,10.2c4.2,0,6.7-3,7-7h3.2
		c-0.6,6.1-4.4,9.7-10.5,9.7c-7.5,0-11.2-5.6-11.2-12.6s4-12.8,11.5-12.8c5.1,0,9.3,2.7,10,7.9H1119.9z"/>
	<path class="st4" d="M1126.8,208h2.7v3.7h0.1c1.4-2.9,3.3-4.2,6.5-4.1v3.1c-4.7,0-6.4,2.6-6.4,7.1v7.8h-2.9V208z"/>
	<path class="st4" d="M1153.2,220c-0.8,3.9-3.5,6-7.5,6c-5.6,0-8.3-3.9-8.4-9.2c0-5.3,3.5-9.1,8.3-9.1c6.2,0,8.1,5.8,8,10.1h-13.2
		c-0.1,3.1,1.6,5.8,5.5,5.8c2.4,0,4-1.1,4.6-3.4H1153.2z M1150.5,215.1c-0.2-2.8-2.2-5-5.1-5c-3,0-4.9,2.2-5,5H1150.5z"/>
	<path class="st4" d="M1172.1,225.6c-0.5,0.3-1.2,0.5-2.1,0.5c-1.5,0-2.4-0.8-2.4-2.7c-1.6,1.9-3.7,2.7-6.2,2.7
		c-3.2,0-5.8-1.4-5.8-4.9c0-4,3-4.9,5.9-5.4c3.2-0.6,5.9-0.4,5.9-2.6c0-2.5-2.1-2.9-3.9-2.9c-2.4,0-4.2,0.7-4.4,3.3h-2.9
		c0.2-4.4,3.5-5.9,7.4-5.9c3.2,0,6.6,0.7,6.6,4.8v9c0,1.4,0,2,0.9,2c0.3,0,0.6-0.1,0.9-0.2V225.6z M1167.4,216.5
		c-2.2,1.7-8.8,0-8.8,4.4c0,1.9,1.6,2.6,3.4,2.6c3.8,0,5.4-2.3,5.4-4V216.5z"/>
	<path class="st4" d="M1178.8,208h3.5v2.5h-3.5v10.9c0,1.4,0.4,1.6,2.2,1.6h1.3v2.5h-2.2c-3,0-4.2-0.6-4.2-3.8v-11.2h-3V208h3v-5.3
		h2.9V208z"/>
	<path class="st4" d="M1200.5,220c-0.8,3.9-3.5,6-7.5,6c-5.6,0-8.3-3.9-8.4-9.2c0-5.3,3.5-9.1,8.3-9.1c6.2,0,8.1,5.8,8,10.1h-13.2
		c-0.1,3.1,1.6,5.8,5.5,5.8c2.4,0,4-1.1,4.6-3.4H1200.5z M1197.7,215.1c-0.2-2.8-2.2-5-5.1-5c-3,0-4.9,2.2-5,5H1197.7z"/>
	<path class="st4" d="M1213.8,201.3h3.2v24.3h-3.2V201.3z"/>
	<path class="st4" d="M1222,208h2.7v2.8h0.1c1.2-2.2,3.2-3.2,5.7-3.2c4.6,0,6.1,2.7,6.1,6.4v11.6h-2.9v-11.9c0-2.2-1.4-3.5-3.6-3.5
		c-3.5,0-5.2,2.3-5.2,5.5v9.9h-2.9V208z"/>
	<path class="st4" d="M1248.8,225.6h-3.1l-6.5-17.6h3.2l4.9,14.7h0.1l4.8-14.7h3L1248.8,225.6z"/>
	<path class="st4" d="M1272.9,220c-0.8,3.9-3.5,6-7.5,6c-5.6,0-8.3-3.9-8.4-9.2c0-5.3,3.5-9.1,8.3-9.1c6.2,0,8.1,5.8,8,10.1H1260
		c-0.1,3.1,1.6,5.8,5.5,5.8c2.4,0,4-1.1,4.6-3.4H1272.9z M1270.1,215.1c-0.2-2.8-2.2-5-5.1-5c-3,0-4.9,2.2-5,5H1270.1z"/>
	<path class="st4" d="M1277.9,220.1c0.1,2.6,2.4,3.4,4.7,3.4c1.8,0,4.2-0.4,4.2-2.6c0-4.5-11.5-1.5-11.5-8.2c0-3.5,3.5-5,6.6-5
		c3.9,0,6.9,1.2,7.2,5.5h-2.9c-0.2-2.2-2.2-3-4.1-3c-1.7,0-3.7,0.5-3.7,2.2c0,2,3.1,2.4,5.7,3.1c2.9,0.6,5.7,1.6,5.7,5
		c0,4.2-3.9,5.5-7.5,5.5c-3.9,0-7.3-1.6-7.4-5.9H1277.9z"/>
	<path class="st4" d="M1297.2,208h3.5v2.5h-3.5v10.9c0,1.4,0.4,1.6,2.2,1.6h1.3v2.5h-2.2c-3,0-4.2-0.6-4.2-3.8v-11.2h-3V208h3v-5.3
		h2.9V208z"/>
	<path class="st4" d="M1306.9,204.9h-2.9v-3.5h2.9V204.9z M1304,208h2.9v17.6h-2.9V208z"/>
	<path class="st4" d="M1326.6,224.1c0,5.7-2.6,8.6-8.2,8.6c-3.3,0-7.1-1.4-7.3-5.2h2.9c0.1,2.1,2.7,2.9,4.6,2.9
		c3.8,0,5.3-2.7,5.3-6.7v-1.2h-0.1c-1,2.1-3.2,3.2-5.5,3.2c-5.2,0-7.9-4.1-7.9-8.9c0-4.1,2-9.3,8.1-9.3c2.2,0,4.2,1,5.2,2.9h0V208
		h2.7V224.1z M1323.7,216.5c0-3.1-1.4-6.3-5-6.3c-3.7,0-5.2,3-5.2,6.4c0,3.2,1.2,6.7,5,6.7S1323.7,219.8,1323.7,216.5z"/>
	<path class="st4" d="M1346.5,225.6c-0.5,0.3-1.2,0.5-2.1,0.5c-1.5,0-2.4-0.8-2.4-2.7c-1.6,1.9-3.7,2.7-6.2,2.7
		c-3.2,0-5.8-1.4-5.8-4.9c0-4,3-4.9,5.9-5.4c3.2-0.6,5.9-0.4,5.9-2.6c0-2.5-2.1-2.9-3.9-2.9c-2.4,0-4.2,0.7-4.4,3.3h-2.9
		c0.2-4.4,3.5-5.9,7.4-5.9c3.2,0,6.6,0.7,6.6,4.8v9c0,1.4,0,2,0.9,2c0.3,0,0.6-0.1,0.9-0.2V225.6z M1341.8,216.5
		c-2.2,1.7-8.8,0-8.8,4.4c0,1.9,1.6,2.6,3.4,2.6c3.8,0,5.4-2.3,5.4-4V216.5z"/>
	<path class="st4" d="M1353.2,208h3.5v2.5h-3.5v10.9c0,1.4,0.4,1.6,2.2,1.6h1.3v2.5h-2.2c-3,0-4.2-0.6-4.2-3.8v-11.2h-3V208h3v-5.3
		h2.9V208z"/>
	<path class="st4" d="M1363,204.9h-2.9v-3.5h2.9V204.9z M1360.1,208h2.9v17.6h-2.9V208z"/>
	<path class="st4" d="M1375,207.6c5.6,0,8.5,4,8.5,9.2c0,5.1-3,9.2-8.5,9.2s-8.5-4-8.5-9.2C1366.5,211.7,1369.4,207.6,1375,207.6z
		 M1375,223.5c3,0,5.5-2.4,5.5-6.6c0-4.2-2.4-6.7-5.5-6.7c-3,0-5.5,2.4-5.5,6.7C1369.6,221.1,1372,223.5,1375,223.5z"/>
	<path class="st4" d="M1387,208h2.7v2.8h0.1c1.2-2.2,3.2-3.2,5.7-3.2c4.6,0,6.1,2.7,6.1,6.4v11.6h-2.9v-11.9c0-2.2-1.4-3.5-3.6-3.5
		c-3.5,0-5.2,2.3-5.2,5.5v9.9h-2.9V208z"/>
	<path class="st4" d="M1430.9,225.6c-0.5,0.3-1.2,0.5-2.1,0.5c-1.5,0-2.4-0.8-2.4-2.7c-1.6,1.9-3.7,2.7-6.2,2.7
		c-3.2,0-5.8-1.4-5.8-4.9c0-4,3-4.9,5.9-5.4c3.2-0.6,5.9-0.4,5.9-2.6c0-2.5-2.1-2.9-3.9-2.9c-2.4,0-4.2,0.7-4.4,3.3h-2.9
		c0.2-4.4,3.5-5.9,7.4-5.9c3.2,0,6.6,0.7,6.6,4.8v9c0,1.4,0,2,0.9,2c0.3,0,0.6-0.1,0.9-0.2V225.6z M1426.2,216.5
		c-2.2,1.7-8.8,0-8.8,4.4c0,1.9,1.6,2.6,3.4,2.6c3.8,0,5.4-2.3,5.4-4V216.5z"/>
	<path class="st4" d="M1433.6,208h2.7v2.8h0.1c1.2-2.2,3.2-3.2,5.7-3.2c4.6,0,6.1,2.7,6.1,6.4v11.6h-2.9v-11.9
		c0-2.2-1.4-3.5-3.6-3.5c-3.5,0-5.2,2.3-5.2,5.5v9.9h-2.9V208z"/>
	<path class="st4" d="M1468.2,225.6h-2.9v-2.4h-0.1c-1,1.9-3.2,2.8-5.6,2.8c-5.4,0-8.1-4.3-8.1-9.2c0-5,2.7-9.1,8-9.1
		c1.8,0,4.4,0.7,5.7,2.8h0.1v-9h2.9V225.6z M1460,223.5c3.9,0,5.4-3.4,5.4-6.6c0-3.4-1.6-6.7-5.5-6.7c-3.9,0-5.3,3.4-5.3,6.8
		C1454.6,220.3,1456.3,223.5,1460,223.5z"/>
</g>
<g class="st3">
	<path class="st4" d="M1101.4,242.1h8.3c7.5,0,11.7,3.8,11.7,11.6c0,8.1-3.6,12.7-11.7,12.7h-8.3V242.1z M1104.6,263.7h5.4
		c2.2,0,8.2-0.6,8.2-9.6c0-5.8-2.1-9.3-8.1-9.3h-5.4V263.7z"/>
	<path class="st4" d="M1127.9,245.7h-2.9v-3.5h2.9V245.7z M1125,248.8h2.9v17.6h-2.9V248.8z"/>
	<path class="st4" d="M1134.2,260.9c0.1,2.6,2.4,3.4,4.7,3.4c1.8,0,4.2-0.4,4.2-2.6c0-4.5-11.5-1.5-11.5-8.2c0-3.5,3.5-5,6.6-5
		c3.9,0,6.9,1.2,7.2,5.5h-2.9c-0.2-2.2-2.2-3-4.1-3c-1.7,0-3.7,0.5-3.7,2.2c0,2,3.1,2.4,5.7,3.1c2.9,0.6,5.7,1.6,5.7,5
		c0,4.2-3.9,5.5-7.5,5.5c-3.9,0-7.3-1.6-7.4-5.9H1134.2z"/>
	<path class="st4" d="M1149.5,248.8h2.9v2.4h0.1c1-1.9,3.2-2.8,5.6-2.8c5.4,0,8.1,4.3,8.1,9.2c0,5-2.7,9.1-8,9.1
		c-1.8,0-4.4-0.7-5.7-2.8h-0.1v9.1h-2.9V248.8z M1157.7,251c-3.9,0-5.4,3.4-5.4,6.6c0,3.4,1.6,6.7,5.5,6.7c3.9,0,5.3-3.4,5.3-6.8
		C1163.1,254.2,1161.4,251,1157.7,251z"/>
	<path class="st4" d="M1177.2,248.4c5.6,0,8.5,4,8.5,9.2c0,5.1-3,9.2-8.5,9.2c-5.6,0-8.5-4-8.5-9.2
		C1168.6,252.5,1171.6,248.4,1177.2,248.4z M1177.2,264.3c3,0,5.5-2.4,5.5-6.6c0-4.2-2.4-6.7-5.5-6.7s-5.5,2.4-5.5,6.7
		C1171.7,261.9,1174.1,264.3,1177.2,264.3z"/>
	<path class="st4" d="M1190.9,260.9c0.1,2.6,2.4,3.4,4.7,3.4c1.8,0,4.2-0.4,4.2-2.6c0-4.5-11.5-1.5-11.5-8.2c0-3.5,3.5-5,6.6-5
		c3.9,0,6.9,1.2,7.2,5.5h-2.9c-0.2-2.2-2.2-3-4.1-3c-1.7,0-3.7,0.5-3.7,2.2c0,2,3.1,2.4,5.7,3.1c2.9,0.6,5.7,1.6,5.7,5
		c0,4.2-3.9,5.5-7.5,5.5c-3.9,0-7.3-1.6-7.4-5.9H1190.9z"/>
	<path class="st4" d="M1209.2,245.7h-2.9v-3.5h2.9V245.7z M1206.3,248.8h2.9v17.6h-2.9V248.8z"/>
	<path class="st4" d="M1217.7,248.8h3.5v2.5h-3.5v10.9c0,1.4,0.4,1.6,2.2,1.6h1.3v2.5h-2.2c-3,0-4.2-0.6-4.2-3.8v-11.2h-3v-2.5h3
		v-5.3h2.9V248.8z"/>
	<path class="st4" d="M1227.4,245.7h-2.9v-3.5h2.9V245.7z M1224.5,248.8h2.9v17.6h-2.9V248.8z"/>
	<path class="st4" d="M1239.5,248.4c5.6,0,8.5,4,8.5,9.2c0,5.1-3,9.2-8.5,9.2s-8.5-4-8.5-9.2
		C1230.9,252.5,1233.9,248.4,1239.5,248.4z M1239.5,264.3c3,0,5.5-2.4,5.5-6.6c0-4.2-2.4-6.7-5.5-6.7c-3,0-5.5,2.4-5.5,6.7
		C1234,261.9,1236.5,264.3,1239.5,264.3z"/>
	<path class="st4" d="M1251.4,248.8h2.7v2.8h0.1c1.2-2.2,3.2-3.2,5.7-3.2c4.6,0,6.1,2.7,6.1,6.4v11.6h-2.9v-11.9
		c0-2.2-1.4-3.5-3.6-3.5c-3.5,0-5.2,2.3-5.2,5.5v9.9h-2.9V248.8z"/>
	<path class="st4" d="M1280.2,242.1h15.9v2.7h-12.7v7.7h11.2v2.7h-11.2v11.1h-3.2V242.1z"/>
	<path class="st4" d="M1306.9,248.4c5.6,0,8.5,4,8.5,9.2c0,5.1-3,9.2-8.5,9.2c-5.6,0-8.5-4-8.5-9.2
		C1298.3,252.5,1301.3,248.4,1306.9,248.4z M1306.9,264.3c3,0,5.5-2.4,5.5-6.6c0-4.2-2.4-6.7-5.5-6.7s-5.5,2.4-5.5,6.7
		C1301.4,261.9,1303.8,264.3,1306.9,264.3z"/>
	<path class="st4" d="M1318.7,248.8h2.7v3.7h0.1c1.4-2.9,3.3-4.2,6.5-4.1v3.1c-4.7,0-6.4,2.6-6.4,7.1v7.8h-2.9V248.8z"/>
	<path class="st4" d="M1330.1,248.8h2.7v2.6h0.1c1.3-2,3.2-3,5.7-3c2.2,0,4.1,0.8,4.8,3c1.2-1.9,3.2-3,5.5-3c3.5,0,5.8,1.5,5.8,5.1
		v12.9h-2.9v-11.5c0-2.2-0.6-3.9-3.4-3.9s-4.6,1.8-4.6,4.5v10.9h-2.9v-11.5c0-2.3-0.7-3.9-3.3-3.9c-3.4,0-4.7,3.1-4.7,4.5v10.9h-2.9
		V248.8z"/>
	<path class="st4" d="M1373.3,273.2c-3.3-5.1-5.3-10-5.3-15.9c0-5.3,1.8-11,5.3-15.7h2.2c-3.3,5.1-4.5,10.1-4.5,15.7
		c0,5.7,1.3,10.7,4.5,15.9H1373.3z"/>
	<path class="st4" d="M1378,242.1h3.2v24.3h-3.2V242.1z"/>
	<path class="st4" d="M1386.7,242.1h8.3c7.5,0,11.7,3.8,11.7,11.6c0,8.1-3.6,12.7-11.7,12.7h-8.3V242.1z M1389.9,263.7h5.4
		c2.2,0,8.2-0.6,8.2-9.6c0-5.8-2.1-9.3-8.1-9.3h-5.4V263.7z"/>
	<path class="st4" d="M1410.6,242.1h15.9v2.7h-12.7v7.7h11.2v2.7h-11.2v11.1h-3.2V242.1z"/>
	<path class="st4" d="M1427.1,273.2c3.3-5.1,4.5-10.1,4.5-15.7c0-5.7-1.3-10.7-4.5-15.9h2.2c3.3,5.1,5.3,10,5.3,15.9
		c0,5.3-1.8,11-5.3,15.7H1427.1z"/>
</g>
<g class="st3">
	<path class="st4" d="M1082.3,299c3.4,0,6.1,2.7,6.1,6.1s-2.7,6.1-6.1,6.1s-6.1-2.7-6.1-6.1S1078.9,299,1082.3,299z"/>
	<path class="st4" d="M1102.9,292.9h11.4c4.6,0,7.4,2.4,7.4,6.4c0,3-1.3,5.3-4.2,6.2v0.1c2.8,0.5,3.4,2.7,3.6,5
		c0.2,2.3,0.1,5.1,1.4,6.7h-3.6c-0.9-1-0.4-3.6-0.9-6c-0.4-2.3-0.9-4.4-4-4.4h-7.9v10.4h-3.2V292.9z M1112.8,304.1
		c3,0,5.6-0.8,5.6-4.3c0-2.4-1.3-4.1-4.3-4.1h-8v8.5H1112.8z"/>
	<path class="st4" d="M1140.7,311.6c-0.8,3.9-3.5,6-7.5,6c-5.6,0-8.3-3.9-8.4-9.2c0-5.3,3.5-9.1,8.3-9.1c6.2,0,8.1,5.8,8,10.1h-13.2
		c-0.1,3.1,1.6,5.8,5.5,5.8c2.4,0,4-1.1,4.6-3.4H1140.7z M1137.9,306.7c-0.2-2.8-2.2-5-5.1-5c-3,0-4.9,2.2-5,5H1137.9z"/>
	<path class="st4" d="M1151.9,317.2h-3.1l-6.5-17.6h3.2l4.9,14.7h0.1l4.8-14.7h3L1151.9,317.2z"/>
	<path class="st4" d="M1164,296.5h-2.9v-3.5h2.9V296.5z M1161.1,299.6h2.9v17.6h-2.9V299.6z"/>
	<path class="st4" d="M1183.5,311.6c-0.8,3.9-3.5,6-7.5,6c-5.6,0-8.3-3.9-8.4-9.2c0-5.3,3.5-9.1,8.3-9.1c6.2,0,8.1,5.8,8,10.1h-13.2
		c-0.1,3.1,1.6,5.8,5.5,5.8c2.4,0,4-1.1,4.6-3.4H1183.5z M1180.7,306.7c-0.2-2.8-2.2-5-5.1-5c-3,0-4.9,2.2-5,5H1180.7z"/>
	<path class="st4" d="M1204.1,317.2h-3.1l-3.6-14h-0.1l-3.5,14h-3.1l-5.6-17.6h3.2l4,14.4h0.1l3.5-14.4h3.2l3.7,14.4h0.1l3.9-14.4h3
		L1204.1,317.2z"/>
	<path class="st4" d="M1223.2,302.2h-3v-2.5h3V297c0-2.9,1.7-4.4,4.9-4.4c0.5,0,1.3,0.1,1.9,0.3v2.5c-0.5-0.2-1.1-0.2-1.6-0.2
		c-1.4,0-2.2,0.4-2.2,2v2.4h3.4v2.5h-3.4v15h-2.9V302.2z"/>
	<path class="st4" d="M1247.6,317.2c-0.5,0.3-1.2,0.5-2.1,0.5c-1.5,0-2.4-0.8-2.4-2.7c-1.6,1.9-3.7,2.7-6.2,2.7
		c-3.2,0-5.8-1.4-5.8-4.9c0-4,3-4.9,6-5.4c3.2-0.6,5.9-0.4,5.9-2.6c0-2.5-2.1-2.9-3.9-2.9c-2.4,0-4.2,0.7-4.4,3.3h-2.9
		c0.2-4.4,3.5-5.9,7.4-5.9c3.2,0,6.6,0.7,6.6,4.8v9c0,1.4,0,2,0.9,2c0.3,0,0.6-0.1,0.9-0.2V317.2z M1242.9,308.1
		c-2.2,1.7-8.8,0-8.8,4.4c0,1.9,1.6,2.6,3.4,2.6c3.8,0,5.4-2.3,5.4-4V308.1z"/>
	<path class="st4" d="M1262.2,305.3c-0.4-2.2-1.9-3.5-4.4-3.5c-4.2,0-5.5,3.3-5.5,6.9c0,3.3,1.5,6.4,5.1,6.4c2.8,0,4.5-1.6,4.8-4.3
		h3c-0.6,4.3-3.3,6.8-7.8,6.8c-5.4,0-8.2-3.7-8.2-9s2.7-9.4,8.3-9.4c4,0,7.1,1.9,7.6,6.1H1262.2z"/>
	<path class="st4" d="M1272.6,299.6h3.5v2.5h-3.5v10.9c0,1.4,0.4,1.6,2.2,1.6h1.3v2.5h-2.2c-3,0-4.2-0.6-4.2-3.8v-11.2h-3v-2.5h3
		v-5.3h2.9V299.6z"/>
	<path class="st4" d="M1281,311.7c0.1,2.6,2.4,3.4,4.7,3.4c1.8,0,4.2-0.4,4.2-2.6c0-4.5-11.5-1.5-11.5-8.2c0-3.5,3.5-5,6.6-5
		c3.9,0,6.9,1.2,7.2,5.5h-2.9c-0.2-2.2-2.2-3-4.1-3c-1.7,0-3.7,0.5-3.7,2.2c0,2,3.1,2.4,5.7,3.1c2.9,0.6,5.7,1.6,5.7,5
		c0,4.2-3.9,5.5-7.5,5.5c-3.9,0-7.3-1.6-7.4-5.9H1281z"/>
</g>
<g class="st3">
	<path class="st4" d="M1082.3,349.8c3.4,0,6.1,2.7,6.1,6.1s-2.7,6.1-6.1,6.1s-6.1-2.7-6.1-6.1S1078.9,349.8,1082.3,349.8z"/>
	<path class="st4" d="M1102.9,343.7h16.8v2.7h-13.5v7.7h12.6v2.7h-12.6v8.4h13.6v2.7h-16.9V343.7z"/>
	<path class="st4" d="M1131.1,368h-3.1l-6.5-17.6h3.2l4.9,14.7h0.1l4.8-14.7h3L1131.1,368z"/>
	<path class="st4" d="M1155.7,368c-0.5,0.3-1.2,0.5-2.1,0.5c-1.5,0-2.4-0.8-2.4-2.7c-1.6,1.9-3.7,2.7-6.2,2.7
		c-3.2,0-5.8-1.4-5.8-4.9c0-4,3-4.9,5.9-5.4c3.2-0.6,5.9-0.4,5.9-2.6c0-2.5-2.1-2.9-3.9-2.9c-2.4,0-4.2,0.7-4.4,3.3h-2.9
		c0.2-4.4,3.5-5.9,7.4-5.9c3.2,0,6.6,0.7,6.6,4.8v9c0,1.4,0,2,0.9,2c0.3,0,0.6-0.1,0.9-0.2V368z M1151,358.9c-2.2,1.7-8.8,0-8.8,4.4
		c0,1.9,1.6,2.6,3.4,2.6c3.8,0,5.4-2.3,5.4-4V358.9z"/>
	<path class="st4" d="M1158.6,343.7h2.9V368h-2.9V343.7z"/>
	<path class="st4" d="M1180.5,368h-2.7v-2.8h-0.1c-1.2,2.2-3.2,3.2-5.7,3.2c-4.6,0-6.1-2.7-6.1-6.4v-11.6h2.9v11.9
		c0,2.2,1.4,3.5,3.6,3.5c3.5,0,5.2-2.3,5.2-5.5v-9.9h2.9V368z"/>
	<path class="st4" d="M1200.4,368c-0.5,0.3-1.2,0.5-2.1,0.5c-1.5,0-2.4-0.8-2.4-2.7c-1.6,1.9-3.7,2.7-6.2,2.7
		c-3.2,0-5.8-1.4-5.8-4.9c0-4,3-4.9,5.9-5.4c3.2-0.6,5.9-0.4,5.9-2.6c0-2.5-2.1-2.9-3.9-2.9c-2.4,0-4.2,0.7-4.4,3.3h-2.9
		c0.2-4.4,3.5-5.9,7.4-5.9c3.2,0,6.6,0.7,6.6,4.8v9c0,1.4,0,2,0.9,2c0.3,0,0.6-0.1,0.9-0.2V368z M1195.7,358.9
		c-2.2,1.7-8.8,0-8.8,4.4c0,1.9,1.6,2.6,3.4,2.6c3.8,0,5.4-2.3,5.4-4V358.9z"/>
	<path class="st4" d="M1207.1,350.4h3.5v2.5h-3.5v10.9c0,1.4,0.4,1.6,2.2,1.6h1.3v2.5h-2.2c-3,0-4.2-0.6-4.2-3.8V353h-3v-2.5h3v-5.3
		h2.9V350.4z"/>
	<path class="st4" d="M1228.8,362.4c-0.8,3.9-3.5,6-7.5,6c-5.6,0-8.3-3.9-8.4-9.2c0-5.3,3.5-9.1,8.3-9.1c6.2,0,8.1,5.8,8,10.1h-13.2
		c-0.1,3.1,1.6,5.8,5.5,5.8c2.4,0,4-1.1,4.6-3.4H1228.8z M1226,357.5c-0.2-2.8-2.2-5-5.1-5c-3,0-4.9,2.2-5,5H1226z"/>
	<path class="st4" d="M1245.6,350.4h3.5v2.5h-3.5v10.9c0,1.4,0.4,1.6,2.2,1.6h1.3v2.5h-2.2c-3,0-4.2-0.6-4.2-3.8V353h-3v-2.5h3v-5.3
		h2.9V350.4z"/>
	<path class="st4" d="M1252.3,343.7h2.9v9.3h0.1c0.9-2.1,3.5-3,5.5-3c4.6,0,6.1,2.7,6.1,6.4V368h-2.9v-11.9c0-2.2-1.4-3.5-3.6-3.5
		c-3.5,0-5.2,2.3-5.2,5.5v9.9h-2.9V343.7z"/>
	<path class="st4" d="M1286.2,362.4c-0.8,3.9-3.5,6-7.5,6c-5.6,0-8.3-3.9-8.4-9.2c0-5.3,3.5-9.1,8.3-9.1c6.2,0,8.1,5.8,8,10.1h-13.2
		c-0.1,3.1,1.6,5.8,5.5,5.8c2.4,0,4-1.1,4.6-3.4H1286.2z M1283.4,357.5c-0.2-2.8-2.2-5-5.1-5c-3,0-4.9,2.2-5,5H1283.4z"/>
	<path class="st4" d="M1298.9,350.4h2.7v2.8h0.1c1.2-2.2,3.2-3.2,5.7-3.2c4.6,0,6.1,2.7,6.1,6.4V368h-2.9v-11.9
		c0-2.2-1.4-3.5-3.6-3.5c-3.5,0-5.2,2.3-5.2,5.5v9.9h-2.9V350.4z"/>
	<path class="st4" d="M1332.8,362.4c-0.8,3.9-3.5,6-7.5,6c-5.6,0-8.3-3.9-8.4-9.2c0-5.3,3.5-9.1,8.3-9.1c6.2,0,8.1,5.8,8,10.1h-13.2
		c-0.1,3.1,1.6,5.8,5.5,5.8c2.4,0,4-1.1,4.6-3.4H1332.8z M1330,357.5c-0.2-2.8-2.2-5-5.1-5c-3,0-4.9,2.2-5,5H1330z"/>
	<path class="st4" d="M1351,362.4c-0.8,3.9-3.5,6-7.5,6c-5.6,0-8.3-3.9-8.4-9.2c0-5.3,3.5-9.1,8.3-9.1c6.2,0,8.1,5.8,8,10.1h-13.2
		c-0.1,3.1,1.6,5.8,5.5,5.8c2.4,0,4-1.1,4.6-3.4H1351z M1348.2,357.5c-0.2-2.8-2.2-5-5.1-5c-3,0-4.9,2.2-5,5H1348.2z"/>
	<path class="st4" d="M1370,368h-2.9v-2.4h-0.1c-1,1.9-3.2,2.8-5.6,2.8c-5.4,0-8.1-4.3-8.1-9.2c0-5,2.7-9.1,8-9.1
		c1.8,0,4.4,0.7,5.7,2.8h0.1v-9h2.9V368z M1361.8,365.9c3.9,0,5.4-3.4,5.4-6.6c0-3.4-1.6-6.7-5.5-6.7c-3.9,0-5.3,3.4-5.3,6.8
		C1356.4,362.7,1358.1,365.9,1361.8,365.9z"/>
	<path class="st4" d="M1385.1,353h-3v-2.5h3v-2.6c0-2.9,1.7-4.4,4.9-4.4c0.5,0,1.3,0.1,1.9,0.3v2.5c-0.5-0.2-1.1-0.2-1.6-0.2
		c-1.4,0-2.2,0.4-2.2,2v2.4h3.4v2.5h-3.4v15h-2.9V353z"/>
	<path class="st4" d="M1401.5,350c5.6,0,8.5,4,8.5,9.2c0,5.1-3,9.2-8.5,9.2c-5.6,0-8.5-4-8.5-9.2C1393,354.1,1396,350,1401.5,350z
		 M1401.5,365.9c3,0,5.5-2.4,5.5-6.6c0-4.2-2.4-6.7-5.5-6.7c-3,0-5.5,2.4-5.5,6.7C1396.1,363.5,1398.5,365.9,1401.5,365.9z"/>
	<path class="st4" d="M1413.4,350.4h2.7v3.7h0.1c1.4-2.9,3.3-4.2,6.5-4.1v3.1c-4.7,0-6.4,2.6-6.4,7.1v7.8h-2.9V350.4z"/>
	<path class="st4" d="M1449.8,368c-0.5,0.3-1.2,0.5-2.1,0.5c-1.5,0-2.4-0.8-2.4-2.7c-1.6,1.9-3.7,2.7-6.2,2.7
		c-3.2,0-5.8-1.4-5.8-4.9c0-4,3-4.9,6-5.4c3.2-0.6,5.9-0.4,5.9-2.6c0-2.5-2.1-2.9-3.9-2.9c-2.4,0-4.2,0.7-4.4,3.3h-2.9
		c0.2-4.4,3.5-5.9,7.4-5.9c3.2,0,6.6,0.7,6.6,4.8v9c0,1.4,0,2,0.9,2c0.3,0,0.6-0.1,0.9-0.2V368z M1445.1,358.9
		c-2.2,1.7-8.8,0-8.8,4.4c0,1.9,1.6,2.6,3.4,2.6c3.8,0,5.4-2.3,5.4-4V358.9z"/>
	<path class="st4" d="M1452.5,350.4h2.7v2.8h0.1c1.2-2.2,3.2-3.2,5.7-3.2c4.6,0,6.1,2.7,6.1,6.4V368h-2.9v-11.9
		c0-2.2-1.4-3.5-3.6-3.5c-3.5,0-5.2,2.3-5.2,5.5v9.9h-2.9V350.4z"/>
	<path class="st4" d="M1487.1,368h-2.9v-2.4h-0.1c-1,1.9-3.2,2.8-5.6,2.8c-5.4,0-8.1-4.3-8.1-9.2c0-5,2.7-9.1,8-9.1
		c1.8,0,4.4,0.7,5.7,2.8h0.1v-9h2.9V368z M1479,365.9c3.9,0,5.4-3.4,5.4-6.6c0-3.4-1.6-6.7-5.5-6.7c-3.9,0-5.3,3.4-5.3,6.8
		C1473.5,362.7,1475.2,365.9,1479,365.9z"/>
</g>
<g class="st3">
	<path class="st4" d="M1115.9,403.2c-0.8,3.9-3.5,6-7.5,6c-5.6,0-8.3-3.9-8.4-9.2c0-5.3,3.5-9.1,8.3-9.1c6.2,0,8.1,5.8,8,10.1H1103
		c-0.1,3.1,1.6,5.8,5.5,5.8c2.4,0,4-1.1,4.6-3.4H1115.9z M1113.1,398.3c-0.2-2.8-2.2-5-5.1-5c-3,0-4.9,2.2-5,5H1113.1z"/>
	<path class="st4" d="M1123.9,399.6l-6.1-8.3h3.7l4.2,6.2l4.4-6.2h3.5l-6.1,8.1l6.8,9.5h-3.7l-4.9-7.3l-4.9,7.3h-3.5L1123.9,399.6z"
		/>
	<path class="st4" d="M1140.8,391.2h3.5v2.5h-3.5v10.9c0,1.4,0.4,1.6,2.2,1.6h1.3v2.5h-2.2c-3,0-4.2-0.6-4.2-3.8v-11.2h-3v-2.5h3
		V386h2.9V391.2z"/>
	<path class="st4" d="M1162.5,403.2c-0.8,3.9-3.5,6-7.5,6c-5.6,0-8.3-3.9-8.4-9.2c0-5.3,3.5-9.1,8.3-9.1c6.2,0,8.1,5.8,8,10.1h-13.2
		c-0.1,3.1,1.6,5.8,5.5,5.8c2.4,0,4-1.1,4.6-3.4H1162.5z M1159.7,398.3c-0.2-2.8-2.2-5-5.1-5c-3,0-4.9,2.2-5,5H1159.7z"/>
	<path class="st4" d="M1165.8,391.2h2.7v2.8h0.1c1.2-2.2,3.2-3.2,5.7-3.2c4.6,0,6.1,2.7,6.1,6.4v11.6h-2.9v-11.9
		c0-2.2-1.4-3.5-3.6-3.5c-3.5,0-5.2,2.3-5.2,5.5v9.9h-2.9V391.2z"/>
	<path class="st4" d="M1188.7,391.2h3.5v2.5h-3.5v10.9c0,1.4,0.4,1.6,2.2,1.6h1.3v2.5h-2.2c-3,0-4.2-0.6-4.2-3.8v-11.2h-3v-2.5h3
		V386h2.9V391.2z"/>
	<path class="st4" d="M1212.4,390.8c5.6,0,8.5,4,8.5,9.2c0,5.1-3,9.2-8.5,9.2c-5.6,0-8.5-4-8.5-9.2
		C1203.9,394.9,1206.8,390.8,1212.4,390.8z M1212.4,406.7c3,0,5.5-2.4,5.5-6.6c0-4.2-2.4-6.7-5.5-6.7c-3,0-5.5,2.4-5.5,6.7
		C1206.9,404.3,1209.4,406.7,1212.4,406.7z"/>
	<path class="st4" d="M1225.5,393.8h-3v-2.5h3v-2.6c0-2.9,1.7-4.4,4.9-4.4c0.5,0,1.3,0.1,1.9,0.3v2.5c-0.5-0.2-1.1-0.2-1.6-0.2
		c-1.4,0-2.2,0.4-2.2,2v2.4h3.4v2.5h-3.4v15h-2.9V393.8z"/>
	<path class="st4" d="M1259.4,408.8c-0.5,0.3-1.2,0.5-2.1,0.5c-1.5,0-2.4-0.8-2.4-2.7c-1.6,1.9-3.7,2.7-6.2,2.7
		c-3.2,0-5.8-1.4-5.8-4.9c0-4,3-4.9,5.9-5.4c3.2-0.6,5.9-0.4,5.9-2.6c0-2.5-2.1-2.9-3.9-2.9c-2.4,0-4.2,0.7-4.4,3.3h-2.9
		c0.2-4.4,3.5-5.9,7.4-5.9c3.2,0,6.6,0.7,6.6,4.8v9c0,1.4,0,2,0.9,2c0.3,0,0.6-0.1,0.9-0.2V408.8z M1254.7,399.7
		c-2.2,1.7-8.8,0-8.8,4.4c0,1.9,1.6,2.6,3.4,2.6c3.8,0,5.4-2.3,5.4-4V399.7z"/>
	<path class="st4" d="M1262.1,391.2h2.7v2.8h0.1c1.2-2.2,3.2-3.2,5.7-3.2c4.6,0,6.1,2.7,6.1,6.4v11.6h-2.9v-11.9
		c0-2.2-1.4-3.5-3.6-3.5c-3.5,0-5.2,2.3-5.2,5.5v9.9h-2.9V391.2z"/>
	<path class="st4" d="M1293.5,388.1h-2.9v-3.5h2.9V388.1z M1290.7,391.2h2.9v17.6h-2.9V391.2z"/>
	<path class="st4" d="M1298,391.2h2.7v2.8h0.1c1.2-2.2,3.2-3.2,5.7-3.2c4.6,0,6.1,2.7,6.1,6.4v11.6h-2.9v-11.9
		c0-2.2-1.4-3.5-3.6-3.5c-3.5,0-5.2,2.3-5.2,5.5v9.9h-2.9V391.2z"/>
	<path class="st4" d="M1324.9,408.8h-3.1l-6.5-17.6h3.2l4.9,14.7h0.1l4.8-14.7h3L1324.9,408.8z"/>
	<path class="st4" d="M1348.9,403.2c-0.8,3.9-3.5,6-7.5,6c-5.6,0-8.3-3.9-8.4-9.2c0-5.3,3.5-9.1,8.3-9.1c6.2,0,8.1,5.8,8,10.1H1336
		c-0.1,3.1,1.6,5.8,5.5,5.8c2.4,0,4-1.1,4.6-3.4H1348.9z M1346.1,398.3c-0.2-2.8-2.2-5-5.1-5c-3,0-4.9,2.2-5,5H1346.1z"/>
	<path class="st4" d="M1354,403.3c0.1,2.6,2.4,3.4,4.7,3.4c1.8,0,4.2-0.4,4.2-2.6c0-4.5-11.5-1.5-11.5-8.2c0-3.5,3.5-5,6.6-5
		c3.9,0,6.9,1.2,7.2,5.5h-2.9c-0.2-2.2-2.2-3-4.1-3c-1.7,0-3.7,0.5-3.7,2.2c0,2,3.1,2.4,5.7,3.1c2.9,0.6,5.7,1.6,5.7,5
		c0,4.2-3.9,5.5-7.5,5.5c-3.9,0-7.3-1.6-7.4-5.9H1354z"/>
	<path class="st4" d="M1373.2,391.2h3.5v2.5h-3.5v10.9c0,1.4,0.4,1.6,2.2,1.6h1.3v2.5h-2.2c-3,0-4.2-0.6-4.2-3.8v-11.2h-3v-2.5h3
		V386h2.9V391.2z"/>
	<path class="st4" d="M1383,388.1h-2.9v-3.5h2.9V388.1z M1380.1,391.2h2.9v17.6h-2.9V391.2z"/>
	<path class="st4" d="M1402.6,407.3c0,5.7-2.6,8.6-8.2,8.6c-3.3,0-7.1-1.4-7.3-5.2h2.9c0.1,2.1,2.7,2.9,4.6,2.9
		c3.8,0,5.3-2.7,5.3-6.7v-1.2h-0.1c-1,2.1-3.2,3.2-5.5,3.2c-5.2,0-7.9-4.1-7.9-8.9c0-4.1,2-9.3,8.1-9.3c2.2,0,4.2,1,5.2,2.9h0v-2.5
		h2.7V407.3z M1399.8,399.7c0-3.1-1.4-6.3-5-6.3c-3.7,0-5.2,3-5.2,6.4c0,3.2,1.2,6.7,5,6.7S1399.8,403,1399.8,399.7z"/>
	<path class="st4" d="M1422.5,408.8c-0.5,0.3-1.2,0.5-2.1,0.5c-1.5,0-2.4-0.8-2.4-2.7c-1.6,1.9-3.7,2.7-6.2,2.7
		c-3.2,0-5.8-1.4-5.8-4.9c0-4,3-4.9,5.9-5.4c3.2-0.6,5.9-0.4,5.9-2.6c0-2.5-2.1-2.9-3.9-2.9c-2.4,0-4.2,0.7-4.4,3.3h-2.9
		c0.2-4.4,3.5-5.9,7.4-5.9c3.2,0,6.6,0.7,6.6,4.8v9c0,1.4,0,2,0.9,2c0.3,0,0.6-0.1,0.9-0.2V408.8z M1417.8,399.7
		c-2.2,1.7-8.8,0-8.8,4.4c0,1.9,1.6,2.6,3.4,2.6c3.8,0,5.4-2.3,5.4-4V399.7z"/>
	<path class="st4" d="M1429.2,391.2h3.5v2.5h-3.5v10.9c0,1.4,0.4,1.6,2.2,1.6h1.3v2.5h-2.2c-3,0-4.2-0.6-4.2-3.8v-11.2h-3v-2.5h3
		V386h2.9V391.2z"/>
	<path class="st4" d="M1439,388.1h-2.9v-3.5h2.9V388.1z M1436.1,391.2h2.9v17.6h-2.9V391.2z"/>
	<path class="st4" d="M1451.1,390.8c5.6,0,8.5,4,8.5,9.2c0,5.1-3,9.2-8.5,9.2s-8.5-4-8.5-9.2
		C1442.5,394.9,1445.5,390.8,1451.1,390.8z M1451.1,406.7c3,0,5.5-2.4,5.5-6.6c0-4.2-2.4-6.7-5.5-6.7c-3,0-5.5,2.4-5.5,6.7
		C1445.6,404.3,1448,406.7,1451.1,406.7z"/>
	<path class="st4" d="M1463,391.2h2.7v2.8h0.1c1.2-2.2,3.2-3.2,5.7-3.2c4.6,0,6.1,2.7,6.1,6.4v11.6h-2.9v-11.9
		c0-2.2-1.4-3.5-3.6-3.5c-3.5,0-5.2,2.3-5.2,5.5v9.9h-2.9V391.2z"/>
</g>
<g class="st3">
	<path class="st4" d="M1082.3,441.4c3.4,0,6.1,2.7,6.1,6.1s-2.7,6.1-6.1,6.1s-6.1-2.7-6.1-6.1S1078.9,441.4,1082.3,441.4z"/>
	<path class="st4" d="M1102.9,435.3h8.3c7.5,0,11.7,3.8,11.7,11.6c0,8.1-3.6,12.7-11.7,12.7h-8.3V435.3z M1106.1,456.9h5.4
		c2.2,0,8.2-0.6,8.2-9.6c0-5.8-2.1-9.3-8.1-9.3h-5.4V456.9z"/>
	<path class="st4" d="M1141.3,454c-0.8,3.9-3.5,6-7.5,6c-5.6,0-8.3-3.9-8.4-9.2c0-5.3,3.5-9.1,8.3-9.1c6.2,0,8.1,5.8,8,10.1h-13.2
		c-0.1,3.1,1.6,5.8,5.5,5.8c2.4,0,4-1.1,4.6-3.4H1141.3z M1138.5,449.1c-0.2-2.8-2.2-5-5.1-5c-3,0-4.9,2.2-5,5H1138.5z"/>
	<path class="st4" d="M1148.6,442h3.5v2.5h-3.5v10.9c0,1.4,0.4,1.6,2.2,1.6h1.3v2.5h-2.2c-3,0-4.2-0.6-4.2-3.8v-11.2h-3V442h3v-5.3
		h2.9V442z"/>
	<path class="st4" d="M1170.3,454c-0.8,3.9-3.5,6-7.5,6c-5.6,0-8.3-3.9-8.4-9.2c0-5.3,3.5-9.1,8.3-9.1c6.2,0,8.1,5.8,8,10.1h-13.2
		c-0.1,3.1,1.6,5.8,5.5,5.8c2.4,0,4-1.1,4.6-3.4H1170.3z M1167.5,449.1c-0.2-2.8-2.2-5-5.1-5c-3,0-4.9,2.2-5,5H1167.5z"/>
	<path class="st4" d="M1173.4,442h2.7v3.7h0.1c1.4-2.9,3.3-4.2,6.5-4.1v3.1c-4.7,0-6.4,2.6-6.4,7.1v7.8h-2.9V442z"/>
	<path class="st4" d="M1184.9,442h2.7v2.6h0.1c1.3-2,3.2-3,5.7-3c2.2,0,4.1,0.8,4.8,3c1.2-1.9,3.2-3,5.5-3c3.5,0,5.8,1.5,5.8,5.1
		v12.9h-2.9v-11.5c0-2.2-0.6-3.9-3.4-3.9s-4.6,1.8-4.6,4.5v10.9h-2.9v-11.5c0-2.3-0.7-3.9-3.3-3.9c-3.4,0-4.7,3.1-4.7,4.5v10.9h-2.9
		V442z"/>
	<path class="st4" d="M1216.9,438.9h-2.9v-3.5h2.9V438.9z M1214,442h2.9v17.6h-2.9V442z"/>
	<path class="st4" d="M1221.4,442h2.7v2.8h0.1c1.2-2.2,3.2-3.2,5.7-3.2c4.6,0,6.1,2.7,6.1,6.4v11.6h-2.9v-11.9
		c0-2.2-1.4-3.5-3.6-3.5c-3.5,0-5.2,2.3-5.2,5.5v9.9h-2.9V442z"/>
	<path class="st4" d="M1255.3,454c-0.8,3.9-3.5,6-7.5,6c-5.6,0-8.3-3.9-8.4-9.2c0-5.3,3.5-9.1,8.3-9.1c6.2,0,8.1,5.8,8,10.1h-13.2
		c-0.1,3.1,1.6,5.8,5.5,5.8c2.4,0,4-1.1,4.6-3.4H1255.3z M1252.5,449.1c-0.2-2.8-2.2-5-5.1-5c-3,0-4.9,2.2-5,5H1252.5z"/>
	<path class="st4" d="M1267.9,442h2.7v3.7h0.1c1.4-2.9,3.3-4.2,6.5-4.1v3.1c-4.7,0-6.4,2.6-6.4,7.1v7.8h-2.9V442z"/>
	<path class="st4" d="M1286.9,441.6c5.6,0,8.5,4,8.5,9.2c0,5.1-3,9.2-8.5,9.2c-5.6,0-8.5-4-8.5-9.2
		C1278.4,445.7,1281.4,441.6,1286.9,441.6z M1286.9,457.5c3,0,5.5-2.4,5.5-6.6c0-4.2-2.4-6.7-5.5-6.7s-5.5,2.4-5.5,6.7
		C1281.5,455.1,1283.9,457.5,1286.9,457.5z"/>
	<path class="st4" d="M1306.4,441.6c5.6,0,8.5,4,8.5,9.2c0,5.1-3,9.2-8.5,9.2c-5.6,0-8.5-4-8.5-9.2
		C1297.9,445.7,1300.9,441.6,1306.4,441.6z M1306.4,457.5c3,0,5.5-2.4,5.5-6.6c0-4.2-2.4-6.7-5.5-6.7s-5.5,2.4-5.5,6.7
		C1301,455.1,1303.4,457.5,1306.4,457.5z"/>
	<path class="st4" d="M1322.4,442h3.5v2.5h-3.5v10.9c0,1.4,0.4,1.6,2.2,1.6h1.3v2.5h-2.2c-3,0-4.2-0.6-4.2-3.8v-11.2h-3V442h3v-5.3
		h2.9V442z"/>
	<path class="st4" d="M1350.5,447.7c-0.4-2.2-1.9-3.5-4.4-3.5c-4.2,0-5.5,3.3-5.5,6.9c0,3.3,1.5,6.4,5.1,6.4c2.8,0,4.5-1.6,4.8-4.3
		h3c-0.6,4.3-3.3,6.8-7.8,6.8c-5.4,0-8.2-3.7-8.2-9s2.7-9.4,8.3-9.4c4,0,7.1,1.9,7.6,6.1H1350.5z"/>
	<path class="st4" d="M1372.4,459.6c-0.5,0.3-1.2,0.5-2.1,0.5c-1.5,0-2.4-0.8-2.4-2.7c-1.6,1.9-3.7,2.7-6.2,2.7
		c-3.2,0-5.8-1.4-5.8-4.9c0-4,3-4.9,6-5.4c3.2-0.6,5.9-0.4,5.9-2.6c0-2.5-2.1-2.9-3.9-2.9c-2.4,0-4.2,0.7-4.4,3.3h-2.9
		c0.2-4.4,3.5-5.9,7.4-5.9c3.2,0,6.6,0.7,6.6,4.8v9c0,1.4,0,2,0.9,2c0.3,0,0.6-0.1,0.9-0.2V459.6z M1367.7,450.5
		c-2.2,1.7-8.8,0-8.8,4.4c0,1.9,1.6,2.6,3.4,2.6c3.8,0,5.4-2.3,5.4-4V450.5z"/>
	<path class="st4" d="M1389.6,459.6h-2.7v-2.8h-0.1c-1.2,2.2-3.2,3.2-5.7,3.2c-4.6,0-6.1-2.7-6.1-6.4V442h2.9v11.9
		c0,2.2,1.4,3.5,3.6,3.5c3.5,0,5.2-2.3,5.2-5.5V442h2.9V459.6z"/>
	<path class="st4" d="M1395.7,454.1c0.1,2.6,2.4,3.4,4.7,3.4c1.8,0,4.2-0.4,4.2-2.6c0-4.5-11.5-1.5-11.5-8.2c0-3.5,3.5-5,6.6-5
		c3.9,0,6.9,1.2,7.2,5.5h-2.9c-0.2-2.2-2.2-3-4.1-3c-1.7,0-3.7,0.5-3.7,2.2c0,2,3.1,2.4,5.7,3.1c2.9,0.6,5.7,1.6,5.7,5
		c0,4.2-3.9,5.5-7.5,5.5c-3.9,0-7.3-1.6-7.4-5.9H1395.7z"/>
	<path class="st4" d="M1426,454c-0.8,3.9-3.5,6-7.5,6c-5.6,0-8.3-3.9-8.4-9.2c0-5.3,3.5-9.1,8.3-9.1c6.2,0,8.1,5.8,8,10.1h-13.2
		c-0.1,3.1,1.6,5.8,5.5,5.8c2.4,0,4-1.1,4.6-3.4H1426z M1423.2,449.1c-0.2-2.8-2.2-5-5.1-5c-3,0-4.9,2.2-5,5H1423.2z"/>
</g>
<g class="st3">
	<path class="st4" d="M1082.3,492.2c3.4,0,6.1,2.7,6.1,6.1s-2.7,6.1-6.1,6.1s-6.1-2.7-6.1-6.1S1078.9,492.2,1082.3,492.2z"/>
	<path class="st4" d="M1102.9,486.1h8.3c7.5,0,11.7,3.8,11.7,11.6c0,8.1-3.6,12.7-11.7,12.7h-8.3V486.1z M1106.1,507.7h5.4
		c2.2,0,8.2-0.6,8.2-9.6c0-5.8-2.1-9.3-8.1-9.3h-5.4V507.7z"/>
	<path class="st4" d="M1141.3,504.8c-0.8,3.9-3.5,6-7.5,6c-5.6,0-8.3-3.9-8.4-9.2c0-5.3,3.5-9.1,8.3-9.1c6.2,0,8.1,5.8,8,10.1h-13.2
		c-0.1,3.1,1.6,5.8,5.5,5.8c2.4,0,4-1.1,4.6-3.4H1141.3z M1138.5,499.9c-0.2-2.8-2.2-5-5.1-5c-3,0-4.9,2.2-5,5H1138.5z"/>
	<path class="st4" d="M1148.6,492.8h3.5v2.5h-3.5v10.9c0,1.4,0.4,1.6,2.2,1.6h1.3v2.5h-2.2c-3,0-4.2-0.6-4.2-3.8v-11.2h-3v-2.5h3
		v-5.3h2.9V492.8z"/>
	<path class="st4" d="M1170.3,504.8c-0.8,3.9-3.5,6-7.5,6c-5.6,0-8.3-3.9-8.4-9.2c0-5.3,3.5-9.1,8.3-9.1c6.2,0,8.1,5.8,8,10.1h-13.2
		c-0.1,3.1,1.6,5.8,5.5,5.8c2.4,0,4-1.1,4.6-3.4H1170.3z M1167.5,499.9c-0.2-2.8-2.2-5-5.1-5c-3,0-4.9,2.2-5,5H1167.5z"/>
	<path class="st4" d="M1173.4,492.8h2.7v3.7h0.1c1.4-2.9,3.3-4.2,6.5-4.1v3.1c-4.7,0-6.4,2.6-6.4,7.1v7.8h-2.9V492.8z"/>
	<path class="st4" d="M1184.9,492.8h2.7v2.6h0.1c1.3-2,3.2-3,5.7-3c2.2,0,4.1,0.8,4.8,3c1.2-1.9,3.2-3,5.5-3c3.5,0,5.8,1.5,5.8,5.1
		v12.9h-2.9v-11.5c0-2.2-0.6-3.9-3.4-3.9s-4.6,1.8-4.6,4.5v10.9h-2.9v-11.5c0-2.3-0.7-3.9-3.3-3.9c-3.4,0-4.7,3.1-4.7,4.5v10.9h-2.9
		V492.8z"/>
	<path class="st4" d="M1216.9,489.7h-2.9v-3.5h2.9V489.7z M1214,492.8h2.9v17.6h-2.9V492.8z"/>
	<path class="st4" d="M1221.4,492.8h2.7v2.8h0.1c1.2-2.2,3.2-3.2,5.7-3.2c4.6,0,6.1,2.7,6.1,6.4v11.6h-2.9v-11.9
		c0-2.2-1.4-3.5-3.6-3.5c-3.5,0-5.2,2.3-5.2,5.5v9.9h-2.9V492.8z"/>
	<path class="st4" d="M1255.3,504.8c-0.8,3.9-3.5,6-7.5,6c-5.6,0-8.3-3.9-8.4-9.2c0-5.3,3.5-9.1,8.3-9.1c6.2,0,8.1,5.8,8,10.1h-13.2
		c-0.1,3.1,1.6,5.8,5.5,5.8c2.4,0,4-1.1,4.6-3.4H1255.3z M1252.5,499.9c-0.2-2.8-2.2-5-5.1-5c-3,0-4.9,2.2-5,5H1252.5z"/>
	<path class="st4" d="M1271.1,489.7h-2.9v-3.5h2.9V489.7z M1268.2,492.8h2.9v17.6h-2.9V492.8z"/>
	<path class="st4" d="M1276.8,495.4h-3v-2.5h3v-2.6c0-2.9,1.7-4.4,4.9-4.4c0.5,0,1.3,0.1,1.9,0.3v2.5c-0.5-0.2-1.1-0.2-1.6-0.2
		c-1.4,0-2.2,0.4-2.2,2v2.4h3.4v2.5h-3.4v15h-2.9V495.4z"/>
	<path class="st4" d="M1312.6,493.5c-0.7-3.4-3.4-5.2-6.8-5.2c-5.8,0-8.2,4.8-8.2,9.8c0,5.5,2.4,10.2,8.3,10.2c4.2,0,6.7-3,7-7h3.2
		c-0.6,6.1-4.4,9.7-10.5,9.7c-7.5,0-11.2-5.6-11.2-12.6s4-12.8,11.5-12.8c5.1,0,9.3,2.7,10,7.9H1312.6z"/>
	<path class="st4" d="M1326.7,486.1h3.6l9.5,24.3h-3.6l-2.7-7.3h-10.3l-2.7,7.3h-3.3L1326.7,486.1z M1324.3,500.4h8.2l-4-11.3h-0.1
		L1324.3,500.4z"/>
	<path class="st4" d="M1342.1,486.1h10.6c4.9,0,7.4,2.7,7.4,7.2s-2.6,7.2-7.4,7.2h-7.4v9.9h-3.2V486.1z M1345.4,497.8h6.3
		c3.7,0,5.3-1.6,5.3-4.5s-1.6-4.5-5.3-4.5h-6.3V497.8z"/>
	<path class="st4" d="M1370.8,486.1h3.6l9.5,24.3h-3.6l-2.7-7.3h-10.3l-2.7,7.3h-3.3L1370.8,486.1z M1368.4,500.4h8.2l-4-11.3h-0.1
		L1368.4,500.4z"/>
</g>
<g class="st3">
	<path class="st4" d="M1100.9,533.6h2.7v2.8h0.1c1.2-2.2,3.2-3.2,5.7-3.2c4.6,0,6.1,2.7,6.1,6.4v11.6h-2.9v-11.9
		c0-2.2-1.4-3.5-3.6-3.5c-3.5,0-5.2,2.3-5.2,5.5v9.9h-2.9V533.6z"/>
	<path class="st4" d="M1134.8,545.6c-0.8,3.9-3.5,6-7.5,6c-5.6,0-8.3-3.9-8.4-9.2c0-5.3,3.5-9.1,8.3-9.1c6.2,0,8.1,5.8,8,10.1h-13.2
		c-0.1,3.1,1.6,5.8,5.5,5.8c2.4,0,4-1.1,4.6-3.4H1134.8z M1132,540.7c-0.2-2.8-2.2-5-5.1-5c-3,0-4.9,2.2-5,5H1132z"/>
	<path class="st4" d="M1153.1,545.6c-0.8,3.9-3.5,6-7.5,6c-5.6,0-8.3-3.9-8.4-9.2c0-5.3,3.5-9.1,8.3-9.1c6.2,0,8.1,5.8,8,10.1h-13.2
		c-0.1,3.1,1.6,5.8,5.5,5.8c2.4,0,4-1.1,4.6-3.4H1153.1z M1150.3,540.7c-0.2-2.8-2.2-5-5.1-5c-3,0-4.9,2.2-5,5H1150.3z"/>
	<path class="st4" d="M1172.1,551.2h-2.9v-2.4h-0.1c-1,1.9-3.2,2.8-5.6,2.8c-5.4,0-8.1-4.3-8.1-9.2c0-5,2.7-9.1,8-9.1
		c1.8,0,4.4,0.7,5.7,2.8h0.1v-9h2.9V551.2z M1163.9,549.1c3.9,0,5.4-3.4,5.4-6.6c0-3.4-1.6-6.7-5.5-6.7c-3.9,0-5.3,3.4-5.3,6.8
		C1158.5,545.9,1160.2,549.1,1163.9,549.1z"/>
	<path class="st4" d="M1191.5,545.6c-0.8,3.9-3.5,6-7.5,6c-5.6,0-8.3-3.9-8.4-9.2c0-5.3,3.5-9.1,8.3-9.1c6.2,0,8.1,5.8,8,10.1h-13.2
		c-0.1,3.1,1.6,5.8,5.5,5.8c2.4,0,4-1.1,4.6-3.4H1191.5z M1188.7,540.7c-0.2-2.8-2.2-5-5.1-5c-3,0-4.9,2.2-5,5H1188.7z"/>
	<path class="st4" d="M1210.5,551.2h-2.9v-2.4h-0.1c-1,1.9-3.2,2.8-5.6,2.8c-5.4,0-8.1-4.3-8.1-9.2c0-5,2.7-9.1,8-9.1
		c1.8,0,4.4,0.7,5.7,2.8h0.1v-9h2.9V551.2z M1202.3,549.1c3.9,0,5.4-3.4,5.4-6.6c0-3.4-1.6-6.7-5.5-6.7c-3.9,0-5.3,3.4-5.3,6.8
		C1196.9,545.9,1198.6,549.1,1202.3,549.1z"/>
	<path class="st4" d="M1215.6,547.4h3.8v3.8h-3.8V547.4z"/>
</g>
<line class="st5" x1="1081.2" y1="53.7" x2="1493.9" y2="53.7"/>
<rect x="1080.4" y="76" class="st2" width="430.4" height="48.6"/>
<g class="st3">
	<path class="st4" d="M1083.9,76h23.6v5h-17.9v8.6h16.6v4.7h-16.6v9.6h18.2v5h-24V76z"/>
	<path class="st4" d="M1109.8,85h5.7l6,18.3h0.1l5.8-18.3h5.4l-8.5,23.8h-5.9L1109.8,85z"/>
	<path class="st4" d="M1156,103.5c0,1.3,0.3,1.8,1.2,1.8h0.6c0.2,0,0.5,0,0.7-0.1v3.6c-0.8,0.3-2.4,0.6-3.3,0.6
		c-2.2,0-3.6-0.7-4-2.9c-2.1,2-5.4,2.9-8.2,2.9c-4.3,0-8.1-2.3-8.1-6.9c0-5.9,4.7-6.9,9.2-7.4c3.8-0.7,7.1-0.2,7.1-3.4
		c0-2.8-2.9-3.2-4.9-3.2c-2.9,0-5,1.2-5.2,3.8h-5.2c0.4-6.1,5.5-7.9,10.8-7.9c4.6,0,9.5,1.9,9.5,6.9V103.5z M1150.7,96.9
		c-1.6,1.1-4.1,1-6.4,1.4c-2.3,0.4-4.3,1.2-4.3,4c0,2.4,3,3,4.8,3c2.3,0,5.9-1.2,5.9-4.5V96.9z"/>
	<path class="st4" d="M1161.8,76h5.2v32.8h-5.2V76z"/>
	<path class="st4" d="M1193.6,108.8h-5.2v-3.3h-0.1c-1.3,2.4-4.1,4-6.8,4c-6.3,0-8.9-3.1-8.9-9.3V85h5.2v14.6c0,4.2,1.7,5.7,4.6,5.7
		c4.4,0,5.8-2.8,5.8-6.5V85h5.2V108.8z"/>
	<path class="st4" d="M1219,103.5c0,1.3,0.3,1.8,1.2,1.8h0.6c0.2,0,0.5,0,0.7-0.1v3.6c-0.8,0.3-2.4,0.6-3.3,0.6
		c-2.2,0-3.6-0.7-4-2.9c-2.1,2-5.4,2.9-8.2,2.9c-4.3,0-8.1-2.3-8.1-6.9c0-5.9,4.7-6.9,9.2-7.4c3.8-0.7,7.1-0.2,7.1-3.4
		c0-2.8-2.9-3.2-4.9-3.2c-2.9,0-5,1.2-5.2,3.8h-5.2c0.4-6.1,5.5-7.9,10.8-7.9c4.6,0,9.5,1.9,9.5,6.9V103.5z M1213.8,96.9
		c-1.6,1.1-4.1,1-6.4,1.4c-2.3,0.4-4.3,1.2-4.3,4c0,2.4,3,3,4.8,3c2.3,0,5.9-1.2,5.9-4.5V96.9z"/>
	<path class="st4" d="M1222.3,85h4v-7.1h5.2V85h4.7v3.9h-4.7v12.7c0,2.2,0.2,3.3,2.5,3.3c0.7,0,1.5,0,2.2-0.2v4
		c-1.2,0.1-2.3,0.3-3.4,0.3c-5.5,0-6.4-2.1-6.6-6.1v-14h-4V85z"/>
	<path class="st4" d="M1240.1,76h5.2v5h-5.2V76z M1240.1,85h5.2v23.8h-5.2V85z"/>
	<path class="st4" d="M1250,96.9c0-7.2,4.4-12.5,12-12.5c7.6,0,12,5.3,12,12.5c0,7.3-4.4,12.6-12,12.6
		C1254.4,109.5,1250,104.2,1250,96.9z M1268.7,96.9c0-4.1-2.1-8.4-6.8-8.4c-4.7,0-6.8,4.3-6.8,8.4c0,4.1,2.1,8.4,6.8,8.4
		C1266.7,105.3,1268.7,101,1268.7,96.9z"/>
	<path class="st4" d="M1278.4,85h5v3.5l0.1,0.1c1.6-2.6,4.3-4.2,7.4-4.2c5.2,0,8.4,2.7,8.4,8.1v16.3h-5.2v-15
		c-0.1-3.7-1.5-5.3-4.6-5.3c-3.5,0-5.8,2.8-5.8,6.3v14h-5.2V85z"/>
</g>
<rect x="1583.7" y="201.3" class="st2" width="426.1" height="443.4"/>
<g class="st3">
	<path d="M1592.2,207.4c3.4,0,6.1,2.7,6.1,6.1s-2.7,6.1-6.1,6.1s-6.1-2.7-6.1-6.1S1588.9,207.4,1592.2,207.4z"/>
	<path d="M1626.9,208.5c-0.4-3.5-2.7-5-6-5c-2.8,0-5.4,1-5.4,4.1c0,6,15.5,1.8,15.5,11.3c0,5.2-5.1,7.2-9.5,7.2
		c-5.4,0-10-2.7-10-8.6h3.1c0,4.1,3.4,5.8,7.1,5.8c2.9,0,6.2-0.9,6.2-4.4c0-6.7-15.5-2.3-15.5-11.2c0-4.9,4.4-7.1,8.8-7.1
		c5,0,8.8,2.3,8.9,7.7H1626.9z"/>
	<path d="M1649.4,220c-0.8,3.9-3.5,6-7.5,6c-5.6,0-8.3-3.9-8.4-9.2c0-5.3,3.5-9.1,8.3-9.1c6.2,0,8.1,5.8,8,10.1h-13.2
		c-0.1,3.1,1.6,5.8,5.5,5.8c2.4,0,4-1.1,4.6-3.4H1649.4z M1646.6,215.1c-0.2-2.8-2.2-5-5.1-5c-3,0-4.9,2.2-5,5H1646.6z"/>
	<path d="M1652.8,201.3h2.9v24.3h-2.9V201.3z"/>
	<path d="M1675.2,220c-0.8,3.9-3.5,6-7.5,6c-5.6,0-8.3-3.9-8.4-9.2c0-5.3,3.5-9.1,8.3-9.1c6.2,0,8.1,5.8,8,10.1h-13.2
		c-0.1,3.1,1.6,5.8,5.5,5.8c2.4,0,4-1.1,4.6-3.4H1675.2z M1672.4,215.1c-0.2-2.8-2.2-5-5.1-5c-3,0-4.9,2.2-5,5H1672.4z"/>
	<path d="M1690.4,213.7c-0.4-2.2-1.9-3.5-4.4-3.5c-4.2,0-5.5,3.3-5.5,6.9c0,3.3,1.5,6.4,5.1,6.4c2.8,0,4.5-1.6,4.8-4.3h3
		c-0.6,4.3-3.3,6.8-7.8,6.8c-5.4,0-8.2-3.7-8.2-9s2.7-9.4,8.3-9.4c4,0,7.1,1.9,7.6,6.1H1690.4z"/>
	<path d="M1700.7,208h3.5v2.5h-3.5v10.9c0,1.4,0.4,1.6,2.2,1.6h1.3v2.5h-2.2c-3,0-4.2-0.6-4.2-3.8v-11.2h-3V208h3v-5.3h2.9V208z"/>
	<path d="M1724.5,207.6c5.6,0,8.5,4,8.5,9.2c0,5.1-3,9.2-8.5,9.2c-5.6,0-8.5-4-8.5-9.2C1715.9,211.7,1718.9,207.6,1724.5,207.6z
		 M1724.5,223.5c3,0,5.5-2.4,5.5-6.6c0-4.2-2.4-6.7-5.5-6.7s-5.5,2.4-5.5,6.7C1719,221.1,1721.4,223.5,1724.5,223.5z"/>
	<path d="M1736.4,208h2.7v2.8h0.1c1.2-2.2,3.2-3.2,5.7-3.2c4.6,0,6.1,2.7,6.1,6.4v11.6h-2.9v-11.9c0-2.2-1.4-3.5-3.6-3.5
		c-3.5,0-5.2,2.3-5.2,5.5v9.9h-2.9V208z"/>
	<path d="M1770.3,220c-0.8,3.9-3.5,6-7.5,6c-5.6,0-8.3-3.9-8.4-9.2c0-5.3,3.5-9.1,8.3-9.1c6.2,0,8.1,5.8,8,10.1h-13.2
		c-0.1,3.1,1.6,5.8,5.5,5.8c2.4,0,4-1.1,4.6-3.4H1770.3z M1767.5,215.1c-0.2-2.8-2.2-5-5.1-5c-3,0-4.9,2.2-5,5H1767.5z"/>
	<path d="M1790.6,207.6c5.6,0,8.5,4,8.5,9.2c0,5.1-3,9.2-8.5,9.2c-5.6,0-8.5-4-8.5-9.2C1782.1,211.7,1785,207.6,1790.6,207.6z
		 M1790.6,223.5c3,0,5.5-2.4,5.5-6.6c0-4.2-2.4-6.7-5.5-6.7s-5.5,2.4-5.5,6.7C1785.1,221.1,1787.6,223.5,1790.6,223.5z"/>
	<path d="M1803.7,210.6h-3V208h3v-2.6c0-2.9,1.7-4.4,4.9-4.4c0.5,0,1.3,0.1,1.9,0.3v2.5c-0.5-0.2-1.1-0.2-1.6-0.2
		c-1.4,0-2.2,0.4-2.2,2v2.4h3.4v2.5h-3.4v15h-2.9V210.6z"/>
	<path d="M1823.2,210.6h-3V208h3v-2.6c0-2.9,1.7-4.4,4.9-4.4c0.5,0,1.3,0.1,1.9,0.3v2.5c-0.5-0.2-1.1-0.2-1.6-0.2
		c-1.4,0-2.2,0.4-2.2,2v2.4h3.4v2.5h-3.4v15h-2.9V210.6z M1832.3,204.9v-3.5h2.9v3.5H1832.3z M1832.3,225.6V208h2.9v17.6H1832.3z"/>
	<path d="M1847.6,225.6h-3.1l-6.5-17.6h3.2l4.9,14.7h0.1l4.8-14.7h3L1847.6,225.6z"/>
	<path d="M1871.6,220c-0.8,3.9-3.5,6-7.5,6c-5.6,0-8.3-3.9-8.4-9.2c0-5.3,3.5-9.1,8.3-9.1c6.2,0,8.1,5.8,8,10.1h-13.2
		c-0.1,3.1,1.6,5.8,5.5,5.8c2.4,0,4-1.1,4.6-3.4H1871.6z M1868.9,215.1c-0.2-2.8-2.2-5-5.1-5c-3,0-4.9,2.2-5,5H1868.9z"/>
	<path d="M1884.5,208h2.9v2.4h0.1c1-1.9,3.2-2.8,5.6-2.8c5.4,0,8.1,4.3,8.1,9.2c0,5-2.7,9.1-8,9.1c-1.8,0-4.4-0.7-5.7-2.8h-0.1v9.1
		h-2.9V208z M1892.6,210.2c-3.9,0-5.4,3.4-5.4,6.6c0,3.4,1.6,6.7,5.5,6.7c3.9,0,5.3-3.4,5.3-6.8
		C1898.1,213.4,1896.4,210.2,1892.6,210.2z"/>
	<path d="M1912.1,207.6c5.6,0,8.5,4,8.5,9.2c0,5.1-3,9.2-8.5,9.2c-5.6,0-8.5-4-8.5-9.2C1903.6,211.7,1906.5,207.6,1912.1,207.6z
		 M1912.1,223.5c3,0,5.5-2.4,5.5-6.6c0-4.2-2.4-6.7-5.5-6.7c-3,0-5.5,2.4-5.5,6.7C1906.6,221.1,1909.1,223.5,1912.1,223.5z"/>
	<path d="M1925.8,220.1c0.1,2.6,2.4,3.4,4.7,3.4c1.8,0,4.2-0.4,4.2-2.6c0-4.5-11.5-1.5-11.5-8.2c0-3.5,3.5-5,6.6-5
		c3.9,0,6.9,1.2,7.2,5.5h-2.9c-0.2-2.2-2.2-3-4.1-3c-1.7,0-3.7,0.5-3.7,2.2c0,2,3.1,2.4,5.7,3.1c2.9,0.6,5.7,1.6,5.7,5
		c0,4.2-3.9,5.5-7.5,5.5c-3.9,0-7.3-1.6-7.4-5.9H1925.8z"/>
	<path d="M1942.8,220.1c0.1,2.6,2.4,3.4,4.7,3.4c1.8,0,4.2-0.4,4.2-2.6c0-4.5-11.5-1.5-11.5-8.2c0-3.5,3.5-5,6.6-5
		c3.9,0,6.9,1.2,7.2,5.5h-2.9c-0.2-2.2-2.2-3-4.1-3c-1.7,0-3.7,0.5-3.7,2.2c0,2,3.1,2.4,5.7,3.1c2.9,0.6,5.7,1.6,5.7,5
		c0,4.2-3.9,5.5-7.5,5.5c-3.9,0-7.3-1.6-7.4-5.9H1942.8z"/>
	<path d="M1961.1,204.9h-2.9v-3.5h2.9V204.9z M1958.2,208h2.9v17.6h-2.9V208z"/>
	<path d="M1965.7,201.3h2.9v9.1h0.1c1-1.9,3.2-2.8,5.6-2.8c5.4,0,8.1,4.3,8.1,9.2c0,5-2.7,9.1-8,9.1c-1.8,0-4.4-0.7-5.7-2.8h-0.1
		v2.3h-2.9V201.3z M1973.8,210.2c-3.9,0-5.4,3.4-5.4,6.6c0,3.4,1.6,6.7,5.5,6.7c3.9,0,5.3-3.4,5.3-6.8
		C1979.3,213.4,1977.6,210.2,1973.8,210.2z"/>
	<path d="M1985.9,201.3h2.9v24.3h-2.9V201.3z"/>
	<path d="M2008.3,220c-0.8,3.9-3.5,6-7.5,6c-5.6,0-8.3-3.9-8.4-9.2c0-5.3,3.5-9.1,8.3-9.1c6.2,0,8.1,5.8,8,10.1h-13.2
		c-0.1,3.1,1.6,5.8,5.5,5.8c2.4,0,4-1.1,4.6-3.4H2008.3z M2005.5,215.1c-0.2-2.8-2.2-5-5.1-5c-3,0-4.9,2.2-5,5H2005.5z"/>
</g>
<g class="st3">
	<path d="M1626.6,266.4h-2.9V264h-0.1c-1,1.9-3.2,2.8-5.6,2.8c-5.4,0-8.1-4.3-8.1-9.2c0-5,2.7-9.1,8-9.1c1.8,0,4.4,0.7,5.7,2.8h0.1
		v-9h2.9V266.4z M1618.5,264.3c3.9,0,5.4-3.4,5.4-6.6c0-3.4-1.6-6.7-5.5-6.7c-3.9,0-5.3,3.4-5.3,6.8
		C1613,261.1,1614.7,264.3,1618.5,264.3z"/>
	<path d="M1634.1,245.7h-2.9v-3.5h2.9V245.7z M1631.2,248.8h2.9v17.6h-2.9V248.8z"/>
	<path d="M1640.4,260.9c0.1,2.6,2.4,3.4,4.7,3.4c1.8,0,4.2-0.4,4.2-2.6c0-4.5-11.5-1.5-11.5-8.2c0-3.5,3.5-5,6.6-5
		c3.9,0,6.9,1.2,7.2,5.5h-2.9c-0.2-2.2-2.2-3-4.1-3c-1.7,0-3.7,0.5-3.7,2.2c0,2,3.1,2.4,5.7,3.1c2.9,0.6,5.7,1.6,5.7,5
		c0,4.2-3.9,5.5-7.5,5.5c-3.9,0-7.3-1.6-7.4-5.9H1640.4z"/>
	<path d="M1655.7,248.8h2.9v2.4h0.1c1-1.9,3.2-2.8,5.6-2.8c5.4,0,8.1,4.3,8.1,9.2c0,5-2.7,9.1-8,9.1c-1.8,0-4.4-0.7-5.7-2.8h-0.1
		v9.1h-2.9V248.8z M1663.9,251c-3.9,0-5.4,3.4-5.4,6.6c0,3.4,1.6,6.7,5.5,6.7c3.9,0,5.3-3.4,5.3-6.8
		C1669.3,254.2,1667.6,251,1663.9,251z"/>
	<path d="M1683.4,248.4c5.6,0,8.5,4,8.5,9.2c0,5.1-3,9.2-8.5,9.2c-5.6,0-8.5-4-8.5-9.2C1674.8,252.5,1677.8,248.4,1683.4,248.4z
		 M1683.4,264.3c3,0,5.5-2.4,5.5-6.6c0-4.2-2.4-6.7-5.5-6.7c-3,0-5.5,2.4-5.5,6.7C1677.9,261.9,1680.3,264.3,1683.4,264.3z"/>
	<path d="M1697.1,260.9c0.1,2.6,2.4,3.4,4.7,3.4c1.8,0,4.2-0.4,4.2-2.6c0-4.5-11.5-1.5-11.5-8.2c0-3.5,3.5-5,6.6-5
		c3.9,0,6.9,1.2,7.2,5.5h-2.9c-0.2-2.2-2.2-3-4.1-3c-1.7,0-3.7,0.5-3.7,2.2c0,2,3.1,2.4,5.7,3.1c2.9,0.6,5.7,1.6,5.7,5
		c0,4.2-3.9,5.5-7.5,5.5c-3.9,0-7.3-1.6-7.4-5.9H1697.1z"/>
	<path d="M1715.4,245.7h-2.9v-3.5h2.9V245.7z M1712.5,248.8h2.9v17.6h-2.9V248.8z"/>
	<path d="M1723.9,248.8h3.5v2.5h-3.5v10.9c0,1.4,0.4,1.6,2.2,1.6h1.3v2.5h-2.2c-3,0-4.2-0.6-4.2-3.8v-11.2h-3v-2.5h3v-5.3h2.9V248.8
		z"/>
	<path d="M1733.6,245.7h-2.9v-3.5h2.9V245.7z M1730.7,248.8h2.9v17.6h-2.9V248.8z"/>
	<path d="M1745.7,248.4c5.6,0,8.5,4,8.5,9.2c0,5.1-3,9.2-8.5,9.2c-5.6,0-8.5-4-8.5-9.2C1737.1,252.5,1740.1,248.4,1745.7,248.4z
		 M1745.7,264.3c3,0,5.5-2.4,5.5-6.6c0-4.2-2.4-6.7-5.5-6.7c-3,0-5.5,2.4-5.5,6.7C1740.2,261.9,1742.7,264.3,1745.7,264.3z"/>
	<path d="M1757.6,248.8h2.7v2.8h0.1c1.2-2.2,3.2-3.2,5.7-3.2c4.6,0,6.1,2.7,6.1,6.4v11.6h-2.9v-11.9c0-2.2-1.4-3.5-3.6-3.5
		c-3.5,0-5.2,2.3-5.2,5.5v9.9h-2.9V248.8z"/>
	<path d="M1778.3,260.9c0.1,2.6,2.4,3.4,4.7,3.4c1.8,0,4.2-0.4,4.2-2.6c0-4.5-11.5-1.5-11.5-8.2c0-3.5,3.5-5,6.6-5
		c3.9,0,6.9,1.2,7.2,5.5h-2.9c-0.2-2.2-2.2-3-4.1-3c-1.7,0-3.7,0.5-3.7,2.2c0,2,3.1,2.4,5.7,3.1c2.9,0.6,5.7,1.6,5.7,5
		c0,4.2-3.9,5.5-7.5,5.5c-3.9,0-7.3-1.6-7.4-5.9H1778.3z"/>
	<path d="M1803.1,242.1h2.9v9.1h0.1c1-1.9,3.2-2.8,5.6-2.8c5.4,0,8.1,4.3,8.1,9.2c0,5-2.7,9.1-8,9.1c-1.8,0-4.4-0.7-5.7-2.8h-0.1
		v2.3h-2.9V242.1z M1811.2,251c-3.9,0-5.4,3.4-5.4,6.6c0,3.4,1.6,6.7,5.5,6.7c3.9,0,5.3-3.4,5.3-6.8
		C1816.7,254.2,1815,251,1811.2,251z"/>
	<path d="M1838.7,266.4c-0.5,0.3-1.2,0.5-2.1,0.5c-1.5,0-2.4-0.8-2.4-2.7c-1.6,1.9-3.7,2.7-6.2,2.7c-3.2,0-5.8-1.4-5.8-4.9
		c0-4,3-4.9,5.9-5.4c3.2-0.6,5.9-0.4,5.9-2.6c0-2.5-2.1-2.9-3.9-2.9c-2.4,0-4.2,0.7-4.4,3.3h-2.9c0.2-4.4,3.5-5.9,7.4-5.9
		c3.2,0,6.6,0.7,6.6,4.8v9c0,1.4,0,2,0.9,2c0.3,0,0.6-0.1,0.9-0.2V266.4z M1834,257.3c-2.2,1.7-8.8,0-8.8,4.4c0,1.9,1.6,2.6,3.4,2.6
		c3.8,0,5.4-2.3,5.4-4V257.3z"/>
	<path d="M1843.2,260.9c0.1,2.6,2.4,3.4,4.7,3.4c1.8,0,4.2-0.4,4.2-2.6c0-4.5-11.5-1.5-11.5-8.2c0-3.5,3.5-5,6.6-5
		c3.9,0,6.9,1.2,7.2,5.5h-2.9c-0.2-2.2-2.2-3-4.1-3c-1.7,0-3.7,0.5-3.7,2.2c0,2,3.1,2.4,5.7,3.1c2.9,0.6,5.7,1.6,5.7,5
		c0,4.2-3.9,5.5-7.5,5.5c-3.9,0-7.3-1.6-7.4-5.9H1843.2z"/>
	<path d="M1873.4,260.8c-0.8,3.9-3.5,6-7.5,6c-5.6,0-8.3-3.9-8.4-9.2c0-5.3,3.5-9.1,8.3-9.1c6.2,0,8.1,5.8,8,10.1h-13.2
		c-0.1,3.1,1.6,5.8,5.5,5.8c2.4,0,4-1.1,4.6-3.4H1873.4z M1870.6,255.9c-0.2-2.8-2.2-5-5.1-5c-3,0-4.9,2.2-5,5H1870.6z"/>
	<path d="M1892.4,266.4h-2.9V264h-0.1c-1,1.9-3.2,2.8-5.6,2.8c-5.4,0-8.1-4.3-8.1-9.2c0-5,2.7-9.1,8-9.1c1.8,0,4.4,0.7,5.7,2.8h0.1
		v-9h2.9V266.4z M1884.2,264.3c3.9,0,5.4-3.4,5.4-6.6c0-3.4-1.6-6.7-5.5-6.7c-3.9,0-5.3,3.4-5.3,6.8
		C1878.8,261.1,1880.5,264.3,1884.2,264.3z"/>
	<path d="M1913.8,248.4c5.6,0,8.5,4,8.5,9.2c0,5.1-3,9.2-8.5,9.2c-5.6,0-8.5-4-8.5-9.2C1905.3,252.5,1908.3,248.4,1913.8,248.4z
		 M1913.8,264.3c3,0,5.5-2.4,5.5-6.6c0-4.2-2.4-6.7-5.5-6.7s-5.5,2.4-5.5,6.7C1908.4,261.9,1910.8,264.3,1913.8,264.3z"/>
	<path d="M1925.8,248.8h2.7v2.8h0.1c1.2-2.2,3.2-3.2,5.7-3.2c4.6,0,6.1,2.7,6.1,6.4v11.6h-2.9v-11.9c0-2.2-1.4-3.5-3.6-3.5
		c-3.5,0-5.2,2.3-5.2,5.5v9.9h-2.9V248.8z"/>
</g>
<g class="st3">
	<path d="M1625.9,301.6c-0.8,3.9-3.5,6-7.5,6c-5.6,0-8.3-3.9-8.4-9.2c0-5.3,3.5-9.1,8.3-9.1c6.2,0,8.1,5.8,8,10.1H1613
		c-0.1,3.1,1.6,5.8,5.5,5.8c2.4,0,4-1.1,4.6-3.4H1625.9z M1623.1,296.7c-0.2-2.8-2.2-5-5.1-5c-3,0-4.9,2.2-5,5H1623.1z"/>
	<path d="M1637.1,307.2h-3.1l-6.5-17.6h3.2l4.9,14.7h0.1l4.8-14.7h3L1637.1,307.2z"/>
	<path d="M1661.7,307.2c-0.5,0.3-1.2,0.5-2.1,0.5c-1.5,0-2.4-0.8-2.4-2.7c-1.6,1.9-3.7,2.7-6.2,2.7c-3.2,0-5.8-1.4-5.8-4.9
		c0-4,3-4.9,6-5.4c3.2-0.6,5.9-0.4,5.9-2.6c0-2.5-2.1-2.9-3.9-2.9c-2.4,0-4.2,0.7-4.4,3.3h-2.9c0.2-4.4,3.5-5.9,7.4-5.9
		c3.2,0,6.6,0.7,6.6,4.8v9c0,1.4,0,2,0.9,2c0.3,0,0.6-0.1,0.9-0.2V307.2z M1657,298.1c-2.2,1.7-8.8,0-8.8,4.4c0,1.9,1.6,2.6,3.4,2.6
		c3.8,0,5.4-2.3,5.4-4V298.1z"/>
	<path d="M1664.6,282.9h2.9v24.3h-2.9V282.9z"/>
	<path d="M1686.5,307.2h-2.7v-2.8h-0.1c-1.2,2.2-3.2,3.2-5.7,3.2c-4.6,0-6.1-2.7-6.1-6.4v-11.6h2.9v11.9c0,2.2,1.4,3.5,3.6,3.5
		c3.5,0,5.2-2.3,5.2-5.5v-9.9h2.9V307.2z"/>
	<path d="M1706.4,307.2c-0.5,0.3-1.2,0.5-2.1,0.5c-1.5,0-2.4-0.8-2.4-2.7c-1.6,1.9-3.7,2.7-6.2,2.7c-3.2,0-5.8-1.4-5.8-4.9
		c0-4,3-4.9,6-5.4c3.2-0.6,5.9-0.4,5.9-2.6c0-2.5-2.1-2.9-3.9-2.9c-2.4,0-4.2,0.7-4.4,3.3h-2.9c0.2-4.4,3.5-5.9,7.4-5.9
		c3.2,0,6.6,0.7,6.6,4.8v9c0,1.4,0,2,0.9,2c0.3,0,0.6-0.1,0.9-0.2V307.2z M1701.8,298.1c-2.2,1.7-8.8,0-8.8,4.4
		c0,1.9,1.6,2.6,3.4,2.6c3.8,0,5.4-2.3,5.4-4V298.1z"/>
	<path d="M1713.1,289.6h3.5v2.5h-3.5v10.9c0,1.4,0.4,1.6,2.2,1.6h1.3v2.5h-2.2c-3,0-4.2-0.6-4.2-3.8v-11.2h-3v-2.5h3v-5.3h2.9V289.6
		z"/>
	<path d="M1722.9,286.5h-2.9v-3.5h2.9V286.5z M1720,289.6h2.9v17.6h-2.9V289.6z"/>
	<path d="M1735,289.2c5.6,0,8.5,4,8.5,9.2c0,5.1-3,9.2-8.5,9.2c-5.6,0-8.5-4-8.5-9.2C1726.4,293.3,1729.4,289.2,1735,289.2z
		 M1735,305.1c3,0,5.5-2.4,5.5-6.6c0-4.2-2.4-6.7-5.5-6.7s-5.5,2.4-5.5,6.7C1729.5,302.7,1731.9,305.1,1735,305.1z"/>
	<path d="M1746.9,289.6h2.7v2.8h0.1c1.2-2.2,3.2-3.2,5.7-3.2c4.6,0,6.1,2.7,6.1,6.4v11.6h-2.9v-11.9c0-2.2-1.4-3.5-3.6-3.5
		c-3.5,0-5.2,2.3-5.2,5.5v9.9h-2.9V289.6z"/>
</g>
<line class="st5" x1="1591.1" y1="53.7" x2="2003.9" y2="53.7"/>
<rect x="1590.4" y="76" class="st2" width="430.4" height="48.6"/>
<g class="st3">
	<path d="M1593.9,76h13.6c10.1,0,14.5,7.4,14.5,16.4c0,9.1-4.4,16.4-14.5,16.4h-13.6V76z M1599.6,104.1h5.7c9,0,10.9-5.1,10.9-11.7
		s-1.9-11.7-10.9-11.7h-5.7V104.1z"/>
	<path d="M1626.5,76h5.2v5h-5.2V76z M1626.5,85h5.2v23.8h-5.2V85z"/>
	<path d="M1641.4,101.2c0.3,3.1,2.6,4.1,5.4,4.1c2,0,5.4-0.4,5.3-3.1c-0.1-2.8-4-3.1-7.8-4c-3.9-0.8-7.6-2.2-7.6-7
		c0-5.2,5.6-6.8,9.9-6.8c4.9,0,9.3,2,9.9,7.3h-5.5c-0.5-2.5-2.5-3.2-4.8-3.2c-1.5,0-4.3,0.4-4.3,2.4c0,2.6,3.9,3,7.7,3.8
		c3.8,0.9,7.7,2.3,7.7,6.9c0,5.7-5.7,7.7-10.6,7.7c-6,0-10.4-2.7-10.5-8.3H1641.4z"/>
	<path d="M1661.5,85h5v3.2h0.1c1.5-2.8,4.3-3.9,7.4-3.9c7.5,0,11.1,5.7,11.1,12.7c0,6.4-3.3,12.4-10.3,12.4c-3,0-6.3-1.1-8-3.7h-0.1
		v11.9h-5.2V85z M1673.2,88.5c-4.4,0-6.7,3.3-6.7,8.4c0,4.8,2.4,8.4,6.7,8.4c4.8,0,6.6-4.2,6.6-8.4
		C1679.8,92.7,1677.5,88.5,1673.2,88.5z"/>
	<path d="M1688.3,96.9c0-7.2,4.4-12.5,12-12.5s12,5.3,12,12.5c0,7.3-4.4,12.6-12,12.6S1688.3,104.2,1688.3,96.9z M1707.1,96.9
		c0-4.1-2.1-8.4-6.8-8.4s-6.8,4.3-6.8,8.4c0,4.1,2.1,8.4,6.8,8.4S1707.1,101,1707.1,96.9z"/>
	<path d="M1720.7,101.2c0.3,3.1,2.6,4.1,5.4,4.1c2,0,5.4-0.4,5.3-3.1c-0.1-2.8-4-3.1-7.8-4c-3.9-0.8-7.6-2.2-7.6-7
		c0-5.2,5.6-6.8,9.9-6.8c4.9,0,9.3,2,9.9,7.3h-5.5c-0.5-2.5-2.5-3.2-4.8-3.2c-1.5,0-4.3,0.4-4.3,2.4c0,2.6,3.9,3,7.7,3.8
		c3.8,0.9,7.7,2.3,7.7,6.9c0,5.7-5.7,7.7-10.6,7.7c-6,0-10.4-2.7-10.5-8.3H1720.7z"/>
	<path d="M1740.7,76h5.2v5h-5.2V76z M1740.7,85h5.2v23.8h-5.2V85z"/>
	<path d="M1749.3,85h4v-7.1h5.2V85h4.7v3.9h-4.7v12.7c0,2.2,0.2,3.3,2.5,3.3c0.7,0,1.5,0,2.2-0.2v4c-1.1,0.1-2.3,0.3-3.4,0.3
		c-5.5,0-6.4-2.1-6.6-6.1v-14h-4V85z"/>
	<path d="M1767.1,76h5.2v5h-5.2V76z M1767.1,85h5.2v23.8h-5.2V85z"/>
	<path d="M1777,96.9c0-7.2,4.4-12.5,12-12.5s12,5.3,12,12.5c0,7.3-4.4,12.6-12,12.6S1777,104.2,1777,96.9z M1795.7,96.9
		c0-4.1-2.1-8.4-6.8-8.4s-6.8,4.3-6.8,8.4c0,4.1,2.1,8.4,6.8,8.4S1795.7,101,1795.7,96.9z"/>
	<path d="M1805.4,85h5v3.5l0.1,0.1c1.6-2.6,4.3-4.2,7.4-4.2c5.2,0,8.4,2.7,8.4,8.1v16.3h-5.2v-15c-0.1-3.7-1.5-5.3-4.6-5.3
		c-3.5,0-5.8,2.8-5.8,6.3v14h-5.2V85z"/>
</g>
<rect y="658.6" class="st7" width="2048" height="343.2"/>
<g>
	<g>
		<path class="st8" d="M356,933C355.9,933,355.9,933,356,933c-8.1,8-21,8-29,0l-62.5-62.8c-8-8-7.9-21,0-29c0,0,0,0,0,0
			c8-8,21-8,29,0.1L356,904C364,912.1,363.9,925,356,933L356,933z"/>
		<path class="st9" d="M347,932.6c-3.1,3.1-8.1,3.1-11.2,0l-62.5-62.8c-3.1-3.1-3.1-8.1,0-11.2c3.1-3.1,8.2-3.1,11.2,0l62.5,62.8
			C350.2,924.5,350.2,929.5,347,932.6L347,932.6z"/>
		<path class="st10" d="M142.4,718.9C142.4,718.8,142.4,718.8,142.4,718.9c15.2-15.2,35.4-23.6,56.8-23.5
			c44.2,0.1,80.1,36.1,80,80.3c0,21.3-8.4,41.4-23.5,56.5c-15.2,15.2-35.4,23.5-56.8,23.5c-21.4,0-41.5-8.4-56.6-23.6
			c-15.1-15.2-23.4-35.3-23.4-56.7C118.9,754,127.2,734,142.4,718.9L142.4,718.9z"/>
		<g>
			<path class="st2" d="M249,825.4"/>
		</g>
		<path class="st11" d="M156.9,733.3c-11.3,11.3-17.5,26.2-17.5,42.1c-0.1,32.9,26.6,59.7,59.5,59.8c16,0,31-6.2,42.3-17.5l0,0
			c11.2-11.3,17.5-26.2,17.5-42c0-15.9-6.2-30.9-17.4-42.2c-11.3-11.3-26.2-17.5-42.1-17.6C183.2,715.8,168.2,722,156.9,733.3
			L156.9,733.3z"/>
		<path class="st4" d="M241.3,733.4c-11.3-11.3-26.2-17.5-42.1-17.6c-4.5,0-8.9,0.5-13.2,1.4c-6.5,2.9-12.5,7-17.7,12.2
			c-11.3,11.2-17.5,26.2-17.5,42.1c-0.1,32.9,26.7,59.7,59.5,59.8c4.5,0,8.9-0.5,13.2-1.4c6.5-2.9,12.5-7.1,17.7-12.3l0,0
			c11.2-11.3,17.5-26.2,17.5-42C258.7,759.7,252.6,744.7,241.3,733.4z"/>
		<g>
			<path class="st10" d="M272.5,849.6c-4,4-10.5,4-14.5,0l-12.8-13.2c-4-4-4-10.5,0-14.5c0,0,0,0,0,0c4-4,10.5-4,14.5,0l12.8,13.2
				C276.5,839.1,276.5,845.5,272.5,849.6C272.5,849.5,272.5,849.5,272.5,849.6z"/>
		</g>
		<g>
			<path class="st12" d="M199.2,699.9c41.7,0.1,75.6,34.1,75.5,75.8c0,20.1-7.9,39.1-22.2,53.3c-14.3,14.3-33.3,22.2-53.4,22.2
				c0,0-0.1,0-0.1,0l0-10.1c0,0,0.1,0,0.1,0c17.5,0,33.9-6.8,46.3-19.2c12.4-12.4,19.2-28.8,19.2-46.2c0.1-36.1-29.3-65.6-65.4-65.7
				L199.2,699.9L199.2,699.9z"/>
		</g>
	</g>
</g>
<g>
	<g class="st13">
		<path class="st4" d="M875.6,907.4c0,0-0.1-0.3-0.2-0.5C875.4,907,875.5,907.1,875.6,907.4z"/>
		<path class="st4" d="M888,747.8h-7.5c-1.4,0-2.5-1.1-2.5-2.5c0-1.4,1.1-2.5,2.5-2.5h7.5c1.4,0,2.5,1.1,2.5,2.5
			C890.4,746.7,889.3,747.8,888,747.8z"/>
		<path class="st4" d="M760.6,745.3c0-1.4,1.1-2.5,2.5-2.5h14.7c1.4,0,2.5,1.1,2.5,2.5c0,1.4-1.1,2.5-2.5,2.5h-14.7
			C761.7,747.8,760.6,746.7,760.6,745.3z"/>
		<path class="st4" d="M836.5,747.8h-14.7c-1.4,0-2.5-1.1-2.5-2.5c0-1.4,1.1-2.5,2.5-2.5h14.7c1.4,0,2.5,1.1,2.5,2.5
			C839,746.7,837.8,747.8,836.5,747.8z"/>
		<path class="st4" d="M748.4,747.8h-14.7c-1.4,0-2.5-1.1-2.5-2.5c0-1.4,1.1-2.5,2.5-2.5h14.7c1.4,0,2.5,1.1,2.5,2.5
			C750.9,746.7,749.8,747.8,748.4,747.8z"/>
		<path class="st4" d="M790,745.3c0-1.4,1.1-2.5,2.5-2.5h14.7c1.4,0,2.5,1.1,2.5,2.5c0,1.4-1.1,2.5-2.5,2.5h-14.7
			C791.1,747.8,790,746.7,790,745.3z"/>
		<path class="st4" d="M719.1,747.8h-14.7c-1.4,0-2.5-1.1-2.5-2.5c0-1.4,1.1-2.5,2.5-2.5h14.7c1.4,0,2.5,1.1,2.5,2.5
			C721.6,746.7,720.5,747.8,719.1,747.8z"/>
		<path class="st4" d="M865.8,747.8h-14.7c-1.4,0-2.5-1.1-2.5-2.5c0-1.4,1.1-2.5,2.5-2.5h14.7c1.4,0,2.5,1.1,2.5,2.5
			C868.3,746.7,867.2,747.8,865.8,747.8z"/>
		<path class="st4" d="M689.8,747.8h-5v5c0,1.4-1.1,2.5-2.5,2.5c-1.4,0-2.5-1.1-2.5-2.5v-10h10c1.4,0,2.5,1.1,2.5,2.5
			C692.2,746.7,691.1,747.8,689.8,747.8z"/>
		<path class="st4" d="M682.3,781.4c-1.4,0-2.5-1.1-2.5-2.5v-13c0-1.4,1.1-2.5,2.5-2.5c1.4,0,2.5,1.1,2.5,2.5v13
			C684.8,780.3,683.7,781.4,682.3,781.4z"/>
		<path class="st4" d="M679.8,791.9c0-1.4,1.1-2.5,2.5-2.5c1.4,0,2.5,1.1,2.5,2.5v10h-10c-1.4,0-2.5-1.1-2.5-2.5s1.1-2.5,2.5-2.5h5
			V791.9z"/>
		<path class="st4" d="M606,796.9h17.2c1.4,0,2.5,1.1,2.5,2.5s-1.1,2.5-2.5,2.5H606c-1.4,0-2.5-1.1-2.5-2.5S604.6,796.9,606,796.9z"
			/>
		<path class="st4" d="M640.4,796.9h17.2c1.4,0,2.5,1.1,2.5,2.5s-1.1,2.5-2.5,2.5h-17.2c-1.4,0-2.5-1.1-2.5-2.5
			S639,796.9,640.4,796.9z"/>
		<path class="st4" d="M581.3,796.9h7.5c1.4,0,2.5,1.1,2.5,2.5s-1.1,2.5-2.5,2.5h-7.5c-1.4,0-2.5-1.1-2.5-2.5
			S579.9,796.9,581.3,796.9z"/>
		<path class="st4" d="M868.1,926h7.5c1.4,0,2.5,1.1,2.5,2.5c0,1.4-1.1,2.5-2.5,2.5h-7.5c-1.4,0-2.5-1.1-2.5-2.5
			C865.6,927.1,866.7,926,868.1,926z"/>
		<path class="st4" d="M839.7,926h14.2c1.4,0,2.5,1.1,2.5,2.5c0,1.4-1.1,2.5-2.5,2.5h-14.2c-1.4,0-2.5-1.1-2.5-2.5
			C837.2,927.1,838.4,926,839.7,926z"/>
		<path class="st4" d="M811.4,926h14.2c1.4,0,2.5,1.1,2.5,2.5c0,1.4-1.1,2.5-2.5,2.5h-14.2c-1.4,0-2.5-1.1-2.5-2.5
			C808.9,927.1,810,926,811.4,926z"/>
		<path class="st4" d="M783,926h14.2c1.4,0,2.5,1.1,2.5,2.5c0,1.4-1.1,2.5-2.5,2.5H783c-1.4,0-2.5-1.1-2.5-2.5
			C780.6,927.1,781.7,926,783,926z"/>
		<path class="st4" d="M754.7,926h14.2c1.4,0,2.5,1.1,2.5,2.5c0,1.4-1.1,2.5-2.5,2.5h-14.2c-1.4,0-2.5-1.1-2.5-2.5
			C752.2,927.1,753.3,926,754.7,926z"/>
		<path class="st4" d="M726.4,926h14.2c1.4,0,2.5,1.1,2.5,2.5c0,1.4-1.1,2.5-2.5,2.5h-14.2c-1.4,0-2.5-1.1-2.5-2.5
			C723.9,927.1,725,926,726.4,926z"/>
		<path class="st4" d="M704.7,918.5c1.4,0,2.5,1.1,2.5,2.5v5h5c1.4,0,2.5,1.1,2.5,2.5c0,1.4-1.1,2.5-2.5,2.5h-10v-10
			C702.2,919.6,703.3,918.5,704.7,918.5z"/>
		<path class="st4" d="M697.2,893.7h10v10c0,1.4-1.1,2.5-2.5,2.5c-1.4,0-2.5-1.1-2.5-2.5v-5h-5c-1.4,0-2.5-1.1-2.5-2.5
			C694.7,894.8,695.9,893.7,697.2,893.7z"/>
		<path class="st4" d="M670.3,893.7h13.5c1.4,0,2.5,1.1,2.5,2.5c0,1.4-1.1,2.5-2.5,2.5h-13.5c-1.4,0-2.5-1.1-2.5-2.5
			C667.8,894.8,668.9,893.7,670.3,893.7z"/>
		<path class="st4" d="M643.4,893.7h13.5c1.4,0,2.5,1.1,2.5,2.5c0,1.4-1.1,2.5-2.5,2.5h-13.5c-1.4,0-2.5-1.1-2.5-2.5
			C640.9,894.8,642,893.7,643.4,893.7z"/>
		<path class="st4" d="M622.4,886.2c1.4,0,2.5,1.1,2.5,2.5v5h5c1.4,0,2.5,1.1,2.5,2.5c0,1.4-1.1,2.5-2.5,2.5h-10v-10
			C619.9,887.4,621,886.2,622.4,886.2z"/>
		<path class="st4" d="M622.4,859.6c1.4,0,2.5,1.1,2.5,2.5v13.3c0,1.4-1.1,2.5-2.5,2.5s-2.5-1.1-2.5-2.5v-13.3
			C619.9,860.8,621,859.6,622.4,859.6z"/>
		<path class="st4" d="M622.4,838.8c1.4,0,2.5,1.1,2.5,2.5v7.5c0,1.4-1.1,2.5-2.5,2.5s-2.5-1.1-2.5-2.5v-7.5
			C619.9,840,621,838.8,622.4,838.8z"/>
		<path class="st4" d="M810.7,810.4C810.7,810.4,810.7,810.4,810.7,810.4l15,0.1c1.4,0,2.5,1.1,2.5,2.5c0,1.4-1.1,2.5-2.5,2.5
			c0,0,0,0,0,0l-15-0.1c-1.4,0-2.5-1.1-2.5-2.5C808.2,811.5,809.3,810.4,810.7,810.4z"/>
		<path class="st4" d="M696.7,865.6C696.7,865.6,696.7,865.6,696.7,865.6l-15-0.1c-1.4,0-2.5-1.1-2.5-2.5c0-1.4,1.1-2.5,2.5-2.5
			c0,0,0,0,0,0l15,0.1c1.4,0,2.5,1.1,2.5,2.5C699.2,864.5,698.1,865.6,696.7,865.6z"/>
		<path class="st4" d="M718.4,842.5c-1.4,0-2.5-1.1-2.5-2.5v-15c0-1.4,1.1-2.5,2.5-2.5s2.5,1.1,2.5,2.5v15
			C720.9,841.4,719.8,842.5,718.4,842.5z"/>
		<path class="st4" d="M750.9,810.2C750.9,810.2,750.9,810.2,750.9,810.2l15,0.1c1.4,0,2.5,1.1,2.5,2.5c0,1.4-1.1,2.5-2.5,2.5
			c0,0,0,0,0,0l-15-0.1c-1.4,0-2.5-1.1-2.5-2.5C748.4,811.3,749.5,810.2,750.9,810.2z"/>
		<path class="st4" d="M780.8,810.3C780.8,810.3,780.8,810.3,780.8,810.3l15,0.1c1.4,0,2.5,1.1,2.5,2.5c0,1.4-1.1,2.5-2.5,2.5
			c0,0,0,0,0,0l-15-0.1c-1.4,0-2.5-1.1-2.5-2.5C778.3,811.4,779.4,810.3,780.8,810.3z"/>
		<path class="st4" d="M709.2,863.1c0-1.4,1.1-2.5,2.5-2.5c0,0,0,0,0,0l4.2,0v-5.7c0-1.4,1.1-2.5,2.5-2.5s2.5,1.1,2.5,2.5v10.7
			l-9.2,0C710.3,865.6,709.2,864.5,709.2,863.1z"/>
		<path class="st4" d="M718.4,812.5c0-1.4,1.1-2.5,2.5-2.5c0,0,0,0,0,0l15,0.1c1.4,0,2.5,1.1,2.5,2.5c0,1.4-1.1,2.5-2.5,2.5
			c0,0,0,0,0,0l-15-0.1C719.5,815,718.4,813.9,718.4,812.5z"/>
		<rect x="553" y="788.8" class="st4" width="21.2" height="21.2"/>
		<path class="st4" d="M623.2,811.6c6.2,0,11.2,5,11.2,11.2s-5,11.2-11.2,11.2c-6.2,0-11.2-5-11.2-11.2S617,811.6,623.2,811.6z"/>
		<polygon class="st4" points="643.6,876 659,850.3 674.4,876 		"/>
	</g>
	<g>
		<polygon class="st4" points="890.4,763.3 890.4,726.8 890.4,708.5 903.6,695.3 940.2,695.3 940.2,708.9 940.2,726.8 940.2,763.3 
					"/>
		<g>
			<polygon class="st9" points="903.6,708.5 890.4,708.5 903.6,695.3 			"/>
			<polygon class="st11" points="890.4,708.5 903.6,708.5 890.4,721.6 			"/>
		</g>
	</g>
	<g>
		<polygon class="st4" points="831.5,846.9 831.5,810.4 831.5,792.1 844.6,778.9 881.3,778.9 881.3,792.5 881.3,810.4 881.3,846.9 
					"/>
		<g>
			<polygon class="st9" points="844.6,792.1 831.5,792.1 844.6,778.9 			"/>
			<polygon class="st11" points="831.5,792.1 844.6,792.1 831.5,805.2 			"/>
		</g>
	</g>
	<g>
		<polygon class="st4" points="878.7,965 878.7,928.4 878.7,910.1 891.8,897 928.5,897 928.5,910.5 928.5,928.4 928.5,965 		"/>
		<g>
			<polygon class="st9" points="891.8,910.1 878.7,910.1 891.8,897 			"/>
			<polygon class="st11" points="878.7,910.1 891.8,910.1 878.7,923.2 			"/>
		</g>
	</g>
</g>
<g>
	<g>
		<g>
			<path class="st9" d="M1275.4,731.5c0.3-15.2,10.2-26.3,25.9-26.3c20,0,26.5,12.5,26.5,20.6c0,20.4-17.6,17.6-19.4,30.5v4.1H1294
				v-4.8c1.5-18.4,17.4-16.7,17-28.2c0-6.5-3.4-9.6-9.1-9.6c-7.7,0-11,6.3-11,13.9L1275.4,731.5L1275.4,731.5z M1292.5,766.7h16.7
				v16.4h-16.7V766.7z"/>
		</g>
		<g>
			<path class="st8" d="M1301.3,705.2c-0.2,0-0.3,0-0.5,0v12.5c0.4,0,0.8-0.1,1.2-0.1c5.6,0,9.1,3.1,9.1,9.6
				c0.2,6.9-5.4,9.1-10.3,13.6v19.4h7.6v-4.1c1.8-12.9,19.4-10.1,19.4-30.5C1327.8,717.7,1321.3,705.2,1301.3,705.2z"/>
			<rect x="1300.8" y="766.7" class="st8" width="8.5" height="16.4"/>
		</g>
	</g>
	<g>
		<polygon class="st4" points="1261,945.6 1261,838.8 1261,785.2 1222.6,746.8 1115.6,746.8 1115.6,786.5 1115.6,838.8 
			1115.6,945.6 		"/>
		<polygon class="st9" points="1222.6,785.2 1261,785.2 1222.6,746.8 		"/>
		<polygon class="st11" points="1261,785.2 1222.6,785.2 1261,823.6 		"/>
		<rect x="1143.1" y="792.3" class="st14" width="44.5" height="3.6"/>
		<g>
			<rect x="1143.1" y="810.2" class="st15" width="90.3" height="3.6"/>
			<rect x="1143.1" y="821.6" class="st15" width="90.3" height="3.6"/>
			<rect x="1143.1" y="833" class="st15" width="90.3" height="3.6"/>
			<rect x="1143.1" y="844.4" class="st15" width="90.3" height="3.6"/>
			<rect x="1143.1" y="855.9" class="st15" width="90.3" height="3.6"/>
			<rect x="1143.1" y="867.3" class="st15" width="90.3" height="3.6"/>
			<rect x="1143.1" y="878.7" class="st15" width="90.3" height="3.6"/>
		</g>
	</g>
	<g>
		<polygon class="st4" points="1480,945.6 1480,838.8 1480,785.2 1441.6,746.8 1334.6,746.8 1334.6,786.5 1334.6,838.8 
			1334.6,945.6 		"/>
		<polygon class="st9" points="1441.6,785.2 1480,785.2 1441.6,746.8 		"/>
		<polygon class="st11" points="1480,785.2 1441.6,785.2 1480,823.6 		"/>
		<rect x="1362.1" y="792.3" class="st14" width="44.5" height="3.6"/>
		<g>
			<rect x="1362.1" y="810.2" class="st15" width="90.3" height="3.6"/>
			<rect x="1362.1" y="821.6" class="st15" width="90.3" height="3.6"/>
			<rect x="1362.1" y="833" class="st15" width="90.3" height="3.6"/>
			<rect x="1362.1" y="844.4" class="st15" width="90.3" height="3.6"/>
			<rect x="1362.1" y="855.9" class="st15" width="90.3" height="3.6"/>
			<rect x="1362.1" y="867.3" class="st15" width="90.3" height="3.6"/>
			<rect x="1362.1" y="878.7" class="st15" width="90.3" height="3.6"/>
		</g>
	</g>
	<g>
		<path class="st14" d="M1347.5,852.8l-19.8-15.8v10h-17c-2.1,0-4,1-5.3,2.6l-11.4,14.9h-20.9v13.2h24.1c2.1,0,4-1,5.3-2.6
			l11.4-14.9h13.8v8.4L1347.5,852.8z"/>
		<path class="st14" d="M1254.3,839.8l19.8,15.9v-10h17.1c2.1,0,4-1,5.3-2.6l11.4-14.9h20.9v-13.2h-24.1c-2.1,0-4,1-5.3,2.6
			l-11.4,14.9h-13.8v-8.4L1254.3,839.8z"/>
	</g>
</g>
<g>
	<polygon class="st4" points="1883.9,944.4 1883.9,816.5 1883.9,752.4 1837.9,706.4 1709.8,706.4 1709.8,753.9 1709.8,816.5 
		1709.8,944.4 	"/>
	<polygon class="st9" points="1837.9,752.4 1883.9,752.4 1837.9,706.4 	"/>
	<polygon class="st11" points="1883.9,752.4 1837.9,752.4 1883.9,798.3 	"/>
	<rect x="1742.7" y="760.9" class="st14" width="53.3" height="4.3"/>
	<g>
		<rect x="1742.7" y="782.3" class="st15" width="108.2" height="4.3"/>
		<rect x="1742.7" y="796" class="st15" width="108.2" height="4.3"/>
		<rect x="1742.7" y="809.6" class="st15" width="108.2" height="4.3"/>
		<rect x="1742.7" y="823.3" class="st15" width="108.2" height="4.3"/>
		<rect x="1742.7" y="836.9" class="st15" width="108.2" height="4.3"/>
		<rect x="1742.7" y="850.6" class="st15" width="108.2" height="4.3"/>
		<rect x="1742.7" y="864.3" class="st15" width="108.2" height="4.3"/>
	</g>
</g>
<path class="st16" d="M1850.9,891.8l2.7,2.7l3.5-1.4l1.3,3.6l3.8,0.2l-0.2,3.8l3.4,1.7l-1.7,3.4l2.4,2.9l-3,2.4l1,3.7l-3.7,1
	l-0.6,3.8l-3.8-0.6l-2,3.2l-3.2-2.1l-3.2,2.1l-2-3.2l-3.8,0.6l-0.6-3.8l-3.7-1l1-3.7l-3-2.4l2.4-2.9l-1.7-3.4l3.4-1.7l-0.2-3.8
	l3.8-0.2l1.3-3.6l3.5,1.4L1850.9,891.8L1850.9,891.8z M1850.9,896.1c-6.1,0-11,4.9-11,11c0,6.1,4.9,11,11,11c6.1,0,11-4.9,11-11
	C1861.8,901,1856.9,896.1,1850.9,896.1L1850.9,896.1z M1850.9,897.7c-5.1,0-9.3,4.2-9.3,9.3c0,5.1,4.2,9.3,9.3,9.3
	c5.1,0,9.3-4.2,9.3-9.3C1860.2,901.9,1856,897.7,1850.9,897.7z"/>
<circle class="st17" cx="1709.8" cy="721.6" r="43.6"/>
<g>
	<path class="st4" d="M1697.6,738.2l-15-15l-5,4.9l19.8,19.8l42.6-42.6l-5-5L1697.6,738.2z"/>
</g>
</svg>
