<?xml version="1.0" encoding="utf-8"?>
<!-- Generator: Adobe Illustrator 16.0.3, SVG Export Plug-In . SVG Version: 6.00 Build 0)  -->
<!DOCTYPE svg PUBLIC "-//W3C//DTD SVG 1.1//EN" "http://www.w3.org/Graphics/SVG/1.1/DTD/svg11.dtd">
<svg version="1.1" xmlns="http://www.w3.org/2000/svg" xmlns:xlink="http://www.w3.org/1999/xlink" x="0px" y="0px"
	 width="1687.88px" height="674.948px" viewBox="0 0 1687.88 674.948" enable-background="new 0 0 1687.88 674.948"
	 xml:space="preserve">
<g id="Layer_1" display="none">
	<rect display="inline" fill="#B9E5FB" width="1686.883" height="674.948"/>
	
		<line display="inline" fill="none" stroke="#343636" stroke-width="2" stroke-miterlimit="10" x1="42.769" y1="122.758" x2="1653.149" y2="122.758"/>
	
		<text transform="matrix(1 0 0 1 802.0479 172.8813)" display="inline" fill="#333333" font-family="'HelveticaNeueLTPro-Md'" font-size="36">Participants</text>
	
		<text transform="matrix(1 0 0 1 50 87.251)" display="inline" fill="#074164" font-family="'HelveticaNeueLTPro-Bd'" font-size="48">Requirements Review</text>
	
		<text transform="matrix(1 0 0 1 802.0488 263.0767)" display="inline" fill="#333333" font-family="'HelveticaNeueLTPro-Roman'" font-size="36">• Independent reviewer, and functional </text>
	
		<text transform="matrix(1 0 0 1 827.0327 306.2769)" display="inline" fill="#333333" font-family="'HelveticaNeueLTPro-Roman'" font-size="36">managers in development, testing, </text>
	
		<text transform="matrix(1 0 0 1 827.0327 349.4766)" display="inline" fill="#333333" font-family="'HelveticaNeueLTPro-Roman'" font-size="36">architecture, offering management or </text>
	
		<text transform="matrix(1 0 0 1 827.0327 392.6768)" display="inline" fill="#333333" font-family="'HelveticaNeueLTPro-Roman'" font-size="36">delivery, and quality and regulatory</text>
	
		<text transform="matrix(1 0 0 1 42.7368 172.8965)" display="inline" fill="#333333" font-family="'HelveticaNeueLTPro-Md'" font-size="36">Description</text>
	
		<text transform="matrix(1 0 0 1 42.7368 263.0767)" display="inline" fill="#333333" font-family="'HelveticaNeueLTPro-Roman'" font-size="36">• Assess and approve high-level </text>
	
		<text transform="matrix(1 0 0 1 67.7207 306.2769)" display="inline" fill="#333333" font-family="'HelveticaNeueLTPro-Roman'" font-size="36">Design Input</text>
</g>
<g id="_x32_4b">
	<rect fill="#B9E5FB" width="1686.883" height="674.948"/>
	
		<line fill="none" stroke="#343636" stroke-width="2" stroke-miterlimit="10" x1="42.769" y1="122.758" x2="1653.149" y2="122.758"/>
	<g>
		<path fill="#333333" d="M804.784,147.181h11.338c7.343,0,8.747,4.751,8.747,7.955s-1.404,7.883-8.747,7.883h-6.839v9.863h-4.499
			V147.181z M809.283,159.347h6.587c2.016,0,4.5-1.008,4.5-4.248c0-3.384-2.052-4.248-4.428-4.248h-6.659V159.347z"/>
		<path fill="#333333" d="M843.805,168.742c0,1.008,0.216,1.404,0.972,1.404h0.432c0.18,0,0.36-0.036,0.576-0.072v2.844
			c-0.612,0.216-1.908,0.468-2.592,0.468c-1.692,0-2.844-0.576-3.167-2.268c-1.62,1.583-4.248,2.268-6.443,2.268
			c-3.348,0-6.371-1.8-6.371-5.435c0-4.644,3.708-5.399,7.163-5.795c2.988-0.576,5.579-0.18,5.579-2.628
			c0-2.16-2.231-2.52-3.851-2.52c-2.304,0-3.924,0.936-4.104,2.952h-4.104c0.288-4.788,4.319-6.191,8.459-6.191
			c3.635,0,7.451,1.476,7.451,5.399V168.742z M839.702,163.559c-1.26,0.828-3.204,0.792-5.039,1.116
			c-1.764,0.288-3.348,0.936-3.348,3.096c0,1.872,2.34,2.375,3.779,2.375c1.8,0,4.607-0.936,4.607-3.527V163.559z"/>
		<path fill="#333333" d="M848.235,154.271h3.852v3.6h0.071c0.468-1.979,2.952-4.104,5.436-4.104c0.972,0,1.152,0.072,1.548,0.108
			v3.959c-0.576-0.108-1.188-0.18-1.764-0.18c-2.771,0-5.039,2.232-5.039,6.371v8.855h-4.104V154.271z"/>
		<path fill="#333333" d="M859.035,154.271h3.096v-5.579h4.104v5.579h3.707v3.06h-3.707v9.935c0,1.692,0.144,2.556,1.979,2.556
			c0.576,0,1.152,0,1.728-0.144v3.167c-0.899,0.108-1.764,0.216-2.663,0.216c-4.319,0-5.04-1.656-5.147-4.751v-10.979h-3.096
			V154.271z"/>
		<path fill="#333333" d="M873.002,147.181h4.104v3.887h-4.104V147.181z M873.002,154.271h4.104v18.61h-4.104V154.271z"/>
		<path fill="#333333" d="M894.132,160.499c-0.323-2.304-1.943-3.492-4.247-3.492c-2.124,0-5.111,1.152-5.111,6.767
			c0,3.096,1.368,6.371,4.932,6.371c2.411,0,4.031-1.548,4.427-4.247h4.104c-0.756,4.859-3.743,7.487-8.53,7.487
			c-5.831,0-9.035-4.14-9.035-9.611c0-5.615,3.06-10.007,9.179-10.007c4.319,0,7.991,2.16,8.387,6.731H894.132z"/>
		<path fill="#333333" d="M901.693,147.181h4.104v3.887h-4.104V147.181z M901.693,154.271h4.104v18.61h-4.104V154.271z"/>
		<path fill="#333333" d="M910.369,154.271h3.888v2.52h0.072c1.151-2.16,3.348-3.024,5.759-3.024c5.867,0,8.711,4.428,8.711,9.899
			c0,5.04-2.556,9.719-8.027,9.719c-2.375,0-4.967-0.864-6.227-2.916h-0.072v9.287h-4.104V154.271z M919.548,157.007
			c-3.455,0-5.219,2.592-5.219,6.587c0,3.743,1.907,6.551,5.219,6.551c3.744,0,5.147-3.312,5.147-6.551
			C924.695,160.247,922.932,157.007,919.548,157.007z"/>
		<path fill="#333333" d="M947.844,168.742c0,1.008,0.216,1.404,0.972,1.404h0.432c0.18,0,0.36-0.036,0.576-0.072v2.844
			c-0.612,0.216-1.908,0.468-2.592,0.468c-1.691,0-2.844-0.576-3.168-2.268c-1.619,1.583-4.247,2.268-6.442,2.268
			c-3.348,0-6.371-1.8-6.371-5.435c0-4.644,3.707-5.399,7.163-5.795c2.987-0.576,5.579-0.18,5.579-2.628
			c0-2.16-2.232-2.52-3.852-2.52c-2.304,0-3.924,0.936-4.104,2.952h-4.104c0.288-4.788,4.319-6.191,8.459-6.191
			c3.636,0,7.451,1.476,7.451,5.399V168.742z M943.74,163.559c-1.26,0.828-3.204,0.792-5.04,1.116
			c-1.764,0.288-3.348,0.936-3.348,3.096c0,1.872,2.34,2.375,3.78,2.375c1.8,0,4.607-0.936,4.607-3.527V163.559z"/>
		<path fill="#333333" d="M952.273,154.271h3.887v2.736l0.072,0.072c1.26-2.052,3.348-3.312,5.795-3.312
			c4.068,0,6.588,2.124,6.588,6.335v12.778h-4.104v-11.699c-0.108-2.916-1.188-4.175-3.636-4.175c-2.735,0-4.499,2.16-4.499,4.896
			v10.979h-4.104V154.271z"/>
		<path fill="#333333" d="M971.065,154.271h3.096v-5.579h4.104v5.579h3.707v3.06h-3.707v9.935c0,1.692,0.144,2.556,1.979,2.556
			c0.576,0,1.152,0,1.728-0.144v3.167c-0.899,0.108-1.764,0.216-2.663,0.216c-4.319,0-5.04-1.656-5.147-4.751v-10.979h-3.096
			V154.271z"/>
		<path fill="#333333" d="M988.02,166.906c0.252,2.412,2.017,3.239,4.212,3.239c1.584,0,4.247-0.324,4.14-2.447
			c-0.108-2.16-3.096-2.412-6.083-3.096c-3.024-0.648-5.976-1.728-5.976-5.507c0-4.068,4.392-5.328,7.775-5.328
			c3.815,0,7.307,1.548,7.774,5.724h-4.283c-0.396-1.98-1.943-2.484-3.779-2.484c-1.188,0-3.384,0.288-3.384,1.908
			c0,2.016,3.023,2.34,6.047,2.988c2.988,0.684,6.012,1.764,6.012,5.435c0,4.428-4.464,6.047-8.315,6.047
			c-4.715,0-8.135-2.088-8.243-6.479H988.02z"/>
	</g>
	<g>
		<path fill="#074164" d="M60.897,59.312H50.624v-6.336h28.083v6.336H68.434v27.938h-7.537V59.312z"/>
		<path fill="#074164" d="M87.536,76.498c0.192,4.368,2.256,6.289,6.097,6.289c2.736,0,4.944-1.68,5.376-3.216h6
			c-1.92,5.904-6,8.353-11.617,8.353c-7.825,0-12.673-5.376-12.673-13.057c0-7.44,5.137-13.105,12.673-13.105
			c8.449,0,12.577,7.104,12.049,14.737H87.536z M98.625,72.178c-0.624-3.457-2.112-5.28-5.425-5.28c-4.416,0-5.521,3.36-5.665,5.28
			H98.625z"/>
		<path fill="#074164" d="M114.751,79.187c0,2.928,2.592,4.176,5.232,4.176c1.92,0,4.464-0.768,4.464-3.168
			c0-2.064-2.88-2.832-7.729-3.84c-3.984-0.912-7.873-2.208-7.873-6.625c0-6.336,5.472-7.969,10.801-7.969
			c5.376,0,10.417,1.824,10.945,7.921h-6.48c-0.192-2.641-2.208-3.36-4.656-3.36c-1.536,0-3.792,0.24-3.792,2.304
			c0,2.448,3.888,2.784,7.729,3.696c3.984,0.912,7.873,2.352,7.873,6.96c0,6.529-5.712,8.641-11.329,8.641
			c-5.76,0-11.425-2.16-11.665-8.736H114.751z"/>
		<path fill="#074164" d="M143.887,62.433h4.993v4.561h-4.993v12.289c0,2.304,0.576,2.88,2.88,2.88c0.768,0,1.488-0.048,2.112-0.192
			v5.328c-1.152,0.192-2.641,0.24-3.984,0.24c-4.225,0-7.825-0.912-7.825-5.905V66.993h-4.128v-4.561h4.128v-7.44h6.816V62.433z"/>
		<path fill="#074164" d="M159.15,58.592h-6.816v-5.616h6.816V58.592z M152.334,62.433h6.816v24.818h-6.816V62.433z"/>
		<path fill="#074164" d="M164.526,62.433h6.48v3.457h0.144c1.728-2.833,4.705-4.128,7.584-4.128c7.249,0,9.073,4.081,9.073,10.225
			v15.265h-6.816V73.234c0-4.081-1.152-6.097-4.368-6.097c-3.696,0-5.281,2.064-5.281,7.104v13.009h-6.816V62.433z"/>
		<path fill="#074164" d="M216.847,85.667c0,4.08-1.488,10.993-12.865,10.993c-4.896,0-10.561-2.352-10.945-7.969h6.769
			c0.624,2.544,2.64,3.409,5.088,3.409c3.792,0,5.521-2.544,5.473-6.145V82.69h-0.096c-1.488,2.641-4.416,3.84-7.44,3.84
			c-7.489,0-10.609-5.665-10.609-12.481c0-6.433,3.744-12.289,10.657-12.289c3.265,0,5.712,1.104,7.393,3.984h0.096v-3.312h6.48
			V85.667z M210.367,74.53c0-4.032-1.392-7.632-5.809-7.632c-3.84,0-5.521,3.36-5.521,7.056c0,3.553,1.296,7.441,5.521,7.441
			C208.446,81.395,210.367,78.082,210.367,74.53z"/>
		<path fill="#074164" d="M236.381,52.976h18.481c6.145,0,10.033,4.272,10.033,9.457c0,4.033-1.584,7.057-5.424,8.593v0.096
			c3.696,1.008,4.752,4.512,4.992,8.017c0.144,2.16,0.048,6.241,1.44,8.113h-7.537c-0.864-2.16-0.816-5.473-1.2-8.208
			c-0.528-3.601-1.92-5.185-5.712-5.185h-7.537v13.393h-7.537V52.976z M243.917,68.481h8.256c3.409,0,5.185-1.44,5.185-4.896
			c0-3.312-1.776-4.752-5.185-4.752h-8.256V68.481z"/>
		<path fill="#074164" d="M275.932,76.498c0.192,4.368,2.256,6.289,6.097,6.289c2.736,0,4.944-1.68,5.376-3.216h6
			c-1.92,5.904-6,8.353-11.617,8.353c-7.825,0-12.673-5.376-12.673-13.057c0-7.44,5.136-13.105,12.673-13.105
			c8.449,0,12.577,7.104,12.049,14.737H275.932z M287.021,72.178c-0.624-3.457-2.112-5.28-5.425-5.28
			c-4.416,0-5.521,3.36-5.665,5.28H287.021z"/>
		<path fill="#074164" d="M311.597,87.251h-7.584l-8.497-24.818h7.152l5.232,16.946h0.096l5.232-16.946h6.769L311.597,87.251z"/>
		<path fill="#074164" d="M329.836,58.592h-6.817v-5.616h6.817V58.592z M323.019,62.433h6.817v24.818h-6.817V62.433z"/>
		<path fill="#074164" d="M340.827,76.498c0.192,4.368,2.256,6.289,6.097,6.289c2.736,0,4.944-1.68,5.376-3.216h6
			c-1.92,5.904-6,8.353-11.617,8.353c-7.825,0-12.673-5.376-12.673-13.057c0-7.44,5.137-13.105,12.673-13.105
			c8.449,0,12.577,7.104,12.049,14.737H340.827z M351.917,72.178c-0.624-3.457-2.112-5.28-5.425-5.28
			c-4.416,0-5.521,3.36-5.665,5.28H351.917z"/>
		<path fill="#074164" d="M391.133,87.251h-7.009l-4.417-16.657h-0.096l-4.225,16.657h-7.057l-7.873-24.818h7.201l4.56,16.85h0.096
			l4.128-16.85h6.625l4.225,16.802h0.096l4.561-16.802h7.008L391.133,87.251z"/>
	</g>
	<g>
		<path fill="#333333" d="M811.048,243.819c3.563,0,6.443,2.844,6.443,6.407c0,3.564-2.879,6.443-6.443,6.443
			s-6.407-2.879-6.407-6.443C804.641,246.663,807.484,243.819,811.048,243.819z"/>
		<path fill="#333333" d="M833.008,237.376h3.419v25.701h-3.419V237.376z"/>
		<path fill="#333333" d="M841.684,244.467h2.879v2.952h0.072c1.296-2.304,3.348-3.383,6.047-3.383c4.896,0,6.407,2.808,6.407,6.803
			v12.238h-3.06v-12.599c0-2.304-1.439-3.743-3.779-3.743c-3.707,0-5.507,2.483-5.507,5.831v10.511h-3.06V244.467z"/>
		<path fill="#333333" d="M878.33,263.077h-3.06v-2.52h-0.072c-1.008,2.052-3.348,2.952-5.939,2.952
			c-5.723,0-8.566-4.536-8.566-9.791s2.808-9.683,8.495-9.683c1.871,0,4.679,0.72,6.011,2.916h0.072v-9.575h3.06V263.077z
			 M869.691,260.809c4.14,0,5.688-3.563,5.688-7.019c0-3.636-1.656-7.055-5.868-7.055c-4.175,0-5.579,3.563-5.579,7.199
			C863.932,257.425,865.731,260.809,869.691,260.809z"/>
		<path fill="#333333" d="M898.922,257.173c-0.828,4.14-3.743,6.335-7.955,6.335c-5.939,0-8.747-4.14-8.927-9.791
			c0-5.615,3.672-9.683,8.747-9.683c6.587,0,8.603,6.155,8.423,10.655h-13.931c-0.107,3.239,1.729,6.119,5.796,6.119
			c2.556,0,4.283-1.188,4.823-3.636H898.922z M895.971,251.99c-0.181-2.916-2.304-5.255-5.364-5.255
			c-3.167,0-5.146,2.375-5.327,5.255H895.971z"/>
		<path fill="#333333" d="M902.487,244.467h3.06v2.52h0.071c1.008-2.052,3.348-2.952,5.939-2.952c5.724,0,8.567,4.535,8.567,9.791
			c0,5.292-2.808,9.683-8.495,9.683c-1.872,0-4.68-0.72-6.012-2.916h-0.071v9.611h-3.06V244.467z M911.126,246.735
			c-4.14,0-5.688,3.563-5.688,7.019c0,3.635,1.656,7.055,5.867,7.055c4.176,0,5.579-3.563,5.579-7.199
			C916.885,250.118,915.085,246.735,911.126,246.735z"/>
		<path fill="#333333" d="M939.601,257.173c-0.828,4.14-3.743,6.335-7.955,6.335c-5.939,0-8.747-4.14-8.927-9.791
			c0-5.615,3.672-9.683,8.747-9.683c6.587,0,8.603,6.155,8.423,10.655h-13.931c-0.107,3.239,1.729,6.119,5.796,6.119
			c2.556,0,4.283-1.188,4.823-3.636H939.601z M936.649,251.99c-0.181-2.916-2.304-5.255-5.364-5.255
			c-3.167,0-5.146,2.375-5.327,5.255H936.649z"/>
		<path fill="#333333" d="M943.059,244.467h2.88v2.952h0.071c1.296-2.304,3.348-3.383,6.048-3.383c4.896,0,6.407,2.808,6.407,6.803
			v12.238h-3.06v-12.599c0-2.304-1.44-3.743-3.779-3.743c-3.708,0-5.508,2.483-5.508,5.831v10.511h-3.06V244.467z"/>
		<path fill="#333333" d="M979.704,263.077h-3.06v-2.52h-0.072c-1.008,2.052-3.348,2.952-5.939,2.952
			c-5.723,0-8.566-4.536-8.566-9.791s2.808-9.683,8.495-9.683c1.871,0,4.679,0.72,6.011,2.916h0.072v-9.575h3.06V263.077z
			 M971.065,260.809c4.14,0,5.688-3.563,5.688-7.019c0-3.636-1.656-7.055-5.868-7.055c-4.175,0-5.579,3.563-5.579,7.199
			C965.306,257.425,967.105,260.809,971.065,260.809z"/>
		<path fill="#333333" d="M1000.296,257.173c-0.828,4.14-3.743,6.335-7.955,6.335c-5.939,0-8.747-4.14-8.927-9.791
			c0-5.615,3.672-9.683,8.747-9.683c6.587,0,8.603,6.155,8.423,10.655h-13.931c-0.107,3.239,1.729,6.119,5.796,6.119
			c2.556,0,4.283-1.188,4.823-3.636H1000.296z M997.345,251.99c-0.181-2.916-2.304-5.255-5.364-5.255
			c-3.167,0-5.146,2.375-5.327,5.255H997.345z"/>
		<path fill="#333333" d="M1003.753,244.467h2.88v2.952h0.071c1.296-2.304,3.348-3.383,6.048-3.383c4.896,0,6.407,2.808,6.407,6.803
			v12.238h-3.06v-12.599c0-2.304-1.44-3.743-3.779-3.743c-3.708,0-5.508,2.483-5.508,5.831v10.511h-3.06V244.467z"/>
		<path fill="#333333" d="M1028.017,244.467h3.708v2.7h-3.708v11.555c0,1.44,0.396,1.656,2.304,1.656h1.404v2.7h-2.34
			c-3.168,0-4.428-0.648-4.428-4.067v-11.843h-3.167v-2.7h3.167v-5.579h3.06V244.467z"/>
		<path fill="#333333" d="M1045.621,237.376h12.095c4.859,0,7.811,2.592,7.811,6.731c0,3.132-1.332,5.651-4.463,6.515v0.072
			c2.987,0.576,3.563,2.808,3.852,5.291c0.18,2.484,0.071,5.363,1.512,7.091h-3.815c-0.973-1.044-0.433-3.815-0.937-6.335
			c-0.396-2.483-0.972-4.643-4.283-4.643h-8.351v10.979h-3.42V237.376z M1056.168,249.218c3.167,0,5.939-0.828,5.939-4.571
			c0-2.556-1.368-4.392-4.572-4.392h-8.494v8.963H1056.168z"/>
		<path fill="#333333" d="M1085.65,257.173c-0.828,4.14-3.743,6.335-7.955,6.335c-5.939,0-8.747-4.14-8.927-9.791
			c0-5.615,3.672-9.683,8.747-9.683c6.587,0,8.603,6.155,8.423,10.655h-13.931c-0.107,3.239,1.729,6.119,5.796,6.119
			c2.556,0,4.283-1.188,4.823-3.636H1085.65z M1082.699,251.99c-0.181-2.916-2.304-5.255-5.364-5.255
			c-3.167,0-5.146,2.375-5.327,5.255H1082.699z"/>
		<path fill="#333333" d="M1097.495,263.077h-3.275l-6.911-18.61h3.42l5.219,15.514h0.072l5.075-15.514h3.204L1097.495,263.077z"/>
		<path fill="#333333" d="M1110.348,241.12h-3.06v-3.744h3.06V241.12z M1107.288,244.467h3.06v18.61h-3.06V244.467z"/>
		<path fill="#333333" d="M1130.974,257.173c-0.828,4.14-3.743,6.335-7.955,6.335c-5.939,0-8.747-4.14-8.927-9.791
			c0-5.615,3.672-9.683,8.747-9.683c6.587,0,8.603,6.155,8.423,10.655h-13.931c-0.107,3.239,1.729,6.119,5.796,6.119
			c2.556,0,4.283-1.188,4.823-3.636H1130.974z M1128.022,251.99c-0.181-2.916-2.304-5.255-5.364-5.255
			c-3.167,0-5.146,2.375-5.327,5.255H1128.022z"/>
		<path fill="#333333" d="M1152.861,263.077h-3.239l-3.78-14.794h-0.071l-3.744,14.794h-3.312l-5.975-18.61h3.383l4.212,15.226
			h0.072l3.743-15.226h3.348l3.888,15.226h0.071l4.176-15.226h3.168L1152.861,263.077z"/>
		<path fill="#333333" d="M1177.593,257.173c-0.828,4.14-3.743,6.335-7.955,6.335c-5.939,0-8.747-4.14-8.927-9.791
			c0-5.615,3.672-9.683,8.747-9.683c6.587,0,8.603,6.155,8.423,10.655h-13.931c-0.107,3.239,1.729,6.119,5.796,6.119
			c2.556,0,4.283-1.188,4.823-3.636H1177.593z M1174.642,251.99c-0.181-2.916-2.304-5.255-5.364-5.255
			c-3.167,0-5.146,2.375-5.327,5.255H1174.642z"/>
		<path fill="#333333" d="M1180.942,244.467h2.88v3.924h0.072c1.476-3.024,3.527-4.463,6.839-4.355v3.239
			c-4.932,0-6.731,2.772-6.731,7.523v8.279h-3.06V244.467z"/>
		<path fill="#333333" d="M1193.722,259.081h3.996v3.636c0,2.735-1.188,4.823-3.96,5.651v-1.8c1.584-0.576,2.196-2.304,2.088-3.492
			h-2.124V259.081z"/>
		<path fill="#333333" d="M1229.541,263.005c-0.54,0.324-1.296,0.504-2.196,0.504c-1.584,0-2.592-0.864-2.592-2.88
			c-1.691,2.016-3.959,2.88-6.551,2.88c-3.384,0-6.155-1.476-6.155-5.22c0-4.211,3.132-5.147,6.299-5.723
			c3.348-0.684,6.264-0.396,6.264-2.736c0-2.699-2.231-3.095-4.14-3.095c-2.592,0-4.499,0.792-4.644,3.527h-3.06
			c0.18-4.607,3.708-6.227,7.883-6.227c3.348,0,6.983,0.756,6.983,5.111v9.575c0,1.44,0,2.088,0.972,2.088
			c0.288,0,0.612-0.072,0.937-0.18V263.005z M1224.573,253.466c-2.376,1.764-9.287,0.036-9.287,4.607c0,2.016,1.729,2.736,3.6,2.736
			c4.031,0,5.688-2.484,5.688-4.211V253.466z"/>
		<path fill="#333333" d="M1232.386,244.467h2.88v2.952h0.071c1.296-2.304,3.348-3.383,6.048-3.383c4.896,0,6.407,2.808,6.407,6.803
			v12.238h-3.06v-12.599c0-2.304-1.44-3.743-3.779-3.743c-3.708,0-5.508,2.483-5.508,5.831v10.511h-3.06V244.467z"/>
		<path fill="#333333" d="M1269.032,263.077h-3.06v-2.52h-0.072c-1.008,2.052-3.348,2.952-5.939,2.952
			c-5.723,0-8.566-4.536-8.566-9.791s2.808-9.683,8.495-9.683c1.871,0,4.679,0.72,6.011,2.916h0.072v-9.575h3.06V263.077z
			 M1260.394,260.809c4.14,0,5.688-3.563,5.688-7.019c0-3.636-1.656-7.055-5.868-7.055c-4.175,0-5.579,3.563-5.579,7.199
			C1254.634,257.425,1256.434,260.809,1260.394,260.809z"/>
		<path fill="#333333" d="M1284.262,237.376h16.882v2.879h-13.462v8.171h11.807v2.88h-11.807v11.771h-3.42V237.376z"/>
		<path fill="#333333" d="M1319.827,263.077h-2.88v-2.952h-0.072c-1.296,2.304-3.348,3.384-6.047,3.384
			c-4.896,0-6.407-2.808-6.407-6.803v-12.239h3.06v12.599c0,2.304,1.439,3.744,3.779,3.744c3.708,0,5.508-2.484,5.508-5.832v-10.511
			h3.06V263.077z"/>
		<path fill="#333333" d="M1324.438,244.467h2.88v2.952h0.071c1.296-2.304,3.348-3.383,6.048-3.383c4.896,0,6.407,2.808,6.407,6.803
			v12.238h-3.06v-12.599c0-2.304-1.44-3.743-3.779-3.743c-3.708,0-5.508,2.483-5.508,5.831v10.511h-3.06V244.467z"/>
		<path fill="#333333" d="M1357.088,250.442c-0.469-2.34-2.052-3.708-4.607-3.708c-4.428,0-5.796,3.527-5.796,7.271
			c0,3.456,1.548,6.803,5.436,6.803c2.987,0,4.716-1.692,5.111-4.536h3.132c-0.684,4.571-3.492,7.235-8.207,7.235
			c-5.688,0-8.711-3.924-8.711-9.503c0-5.58,2.88-9.971,8.783-9.971c4.247,0,7.559,1.979,8.026,6.407H1357.088z"/>
		<path fill="#333333" d="M1368.031,244.467h3.708v2.7h-3.708v11.555c0,1.44,0.396,1.656,2.304,1.656h1.404v2.7h-2.34
			c-3.168,0-4.428-0.648-4.428-4.067v-11.843h-3.167v-2.7h3.167v-5.579h3.06V244.467z"/>
		<path fill="#333333" d="M1378.363,241.12h-3.06v-3.744h3.06V241.12z M1375.304,244.467h3.06v18.61h-3.06V244.467z"/>
		<path fill="#333333" d="M1391.143,244.035c5.903,0,9.034,4.283,9.034,9.755c0,5.435-3.131,9.719-9.034,9.719
			s-9.035-4.284-9.035-9.719C1382.107,248.318,1385.239,244.035,1391.143,244.035z M1391.143,260.809
			c3.203,0,5.795-2.52,5.795-7.019c0-4.5-2.592-7.055-5.795-7.055c-3.204,0-5.796,2.556-5.796,7.055
			C1385.347,258.289,1387.938,260.809,1391.143,260.809z"/>
		<path fill="#333333" d="M1403.779,244.467h2.88v2.952h0.071c1.296-2.304,3.348-3.383,6.048-3.383c4.896,0,6.407,2.808,6.407,6.803
			v12.238h-3.06v-12.599c0-2.304-1.44-3.743-3.779-3.743c-3.708,0-5.508,2.483-5.508,5.831v10.511h-3.06V244.467z"/>
		<path fill="#333333" d="M1440.281,263.005c-0.54,0.324-1.296,0.504-2.196,0.504c-1.584,0-2.592-0.864-2.592-2.88
			c-1.691,2.016-3.959,2.88-6.551,2.88c-3.384,0-6.155-1.476-6.155-5.22c0-4.211,3.132-5.147,6.299-5.723
			c3.348-0.684,6.264-0.396,6.264-2.736c0-2.699-2.231-3.095-4.14-3.095c-2.592,0-4.499,0.792-4.644,3.527h-3.06
			c0.18-4.607,3.708-6.227,7.883-6.227c3.348,0,6.983,0.756,6.983,5.111v9.575c0,1.44,0,2.088,0.972,2.088
			c0.288,0,0.612-0.072,0.937-0.18V263.005z M1435.313,253.466c-2.376,1.764-9.287,0.036-9.287,4.607c0,2.016,1.729,2.736,3.6,2.736
			c4.031,0,5.688-2.484,5.688-4.211V253.466z"/>
		<path fill="#333333" d="M1443.307,237.376h3.06v25.701h-3.06V237.376z"/>
		<path fill="#333333" d="M1461.702,237.376h4.679l8.1,21.597l8.135-21.597h4.68v25.701h-3.24v-21.381h-0.071l-8.027,21.381h-2.916
			l-8.026-21.381h-0.072v21.381h-3.239V237.376z"/>
		<path fill="#333333" d="M1508.968,263.005c-0.54,0.324-1.296,0.504-2.196,0.504c-1.584,0-2.592-0.864-2.592-2.88
			c-1.691,2.016-3.959,2.88-6.551,2.88c-3.384,0-6.155-1.476-6.155-5.22c0-4.211,3.132-5.147,6.299-5.723
			c3.348-0.684,6.264-0.396,6.264-2.736c0-2.699-2.231-3.095-4.14-3.095c-2.592,0-4.499,0.792-4.644,3.527h-3.06
			c0.18-4.607,3.708-6.227,7.883-6.227c3.348,0,6.983,0.756,6.983,5.111v9.575c0,1.44,0,2.088,0.972,2.088
			c0.288,0,0.612-0.072,0.937-0.18V263.005z M1504,253.466c-2.376,1.764-9.287,0.036-9.287,4.607c0,2.016,1.729,2.736,3.6,2.736
			c4.031,0,5.688-2.484,5.688-4.211V253.466z"/>
		<path fill="#333333" d="M1511.813,244.467h2.88v2.952h0.071c1.296-2.304,3.348-3.383,6.048-3.383c4.896,0,6.407,2.808,6.407,6.803
			v12.238h-3.06v-12.599c0-2.304-1.44-3.743-3.779-3.743c-3.708,0-5.508,2.483-5.508,5.831v10.511h-3.06V244.467z"/>
		<path fill="#333333" d="M1548.315,263.005c-0.54,0.324-1.296,0.504-2.196,0.504c-1.584,0-2.592-0.864-2.592-2.88
			c-1.691,2.016-3.959,2.88-6.551,2.88c-3.384,0-6.155-1.476-6.155-5.22c0-4.211,3.132-5.147,6.299-5.723
			c3.348-0.684,6.264-0.396,6.264-2.736c0-2.699-2.231-3.095-4.14-3.095c-2.592,0-4.499,0.792-4.644,3.527h-3.06
			c0.18-4.607,3.708-6.227,7.883-6.227c3.348,0,6.983,0.756,6.983,5.111v9.575c0,1.44,0,2.088,0.972,2.088
			c0.288,0,0.612-0.072,0.937-0.18V263.005z M1543.348,253.466c-2.376,1.764-9.287,0.036-9.287,4.607c0,2.016,1.729,2.736,3.6,2.736
			c4.031,0,5.688-2.484,5.688-4.211V253.466z"/>
		<path fill="#333333" d="M1567.215,261.493c0,6.083-2.735,9.143-8.639,9.143c-3.491,0-7.523-1.44-7.703-5.471h3.06
			c0.108,2.196,2.844,3.023,4.823,3.023c3.996,0,5.58-2.879,5.58-7.055v-1.224h-0.072c-1.044,2.268-3.42,3.383-5.796,3.383
			c-5.543,0-8.314-4.355-8.314-9.431c0-4.392,2.124-9.827,8.603-9.827c2.34,0,4.428,1.044,5.544,3.096h0.036v-2.664h2.879V261.493z
			 M1564.191,253.394c0-3.276-1.439-6.659-5.291-6.659c-3.924,0-5.508,3.204-5.508,6.767c0,3.348,1.225,7.091,5.256,7.091
			S1564.191,256.885,1564.191,253.394z"/>
		<path fill="#333333" d="M1587.698,257.173c-0.828,4.14-3.743,6.335-7.955,6.335c-5.939,0-8.747-4.14-8.927-9.791
			c0-5.615,3.672-9.683,8.747-9.683c6.587,0,8.603,6.155,8.423,10.655h-13.931c-0.107,3.239,1.729,6.119,5.796,6.119
			c2.556,0,4.283-1.188,4.823-3.636H1587.698z M1584.747,251.99c-0.181-2.916-2.304-5.255-5.364-5.255
			c-3.167,0-5.146,2.375-5.327,5.255H1584.747z"/>
		<path fill="#333333" d="M1591.048,244.467h2.88v3.924H1594c1.476-3.024,3.527-4.463,6.839-4.355v3.239
			c-4.932,0-6.731,2.772-6.731,7.523v8.279h-3.06V244.467z"/>
		<path fill="#333333" d="M1605.016,257.209c0.107,2.735,2.52,3.6,5.003,3.6c1.908,0,4.5-0.432,4.5-2.772
			c0-4.787-12.167-1.548-12.167-8.711c0-3.743,3.672-5.291,6.947-5.291c4.176,0,7.343,1.296,7.631,5.831h-3.06
			c-0.18-2.375-2.34-3.131-4.319-3.131c-1.836,0-3.96,0.504-3.96,2.375c0,2.16,3.24,2.592,6.084,3.24
			c3.06,0.684,6.083,1.728,6.083,5.291c0,4.464-4.14,5.868-7.919,5.868c-4.176,0-7.703-1.692-7.883-6.299H1605.016z"/>
	</g>
	<g>
		<path fill="#333333" d="M832.576,284.32h-3.06v-3.744h3.06V284.32z M829.517,287.667h3.06v18.61h-3.06V287.667z"/>
		<path fill="#333333" d="M837.328,287.667h2.88v2.952h0.072c1.296-2.304,3.348-3.383,6.047-3.383c4.896,0,6.407,2.808,6.407,6.803
			v12.238h-3.06v-12.599c0-2.304-1.44-3.743-3.779-3.743c-3.708,0-5.508,2.483-5.508,5.831v10.511h-3.06V287.667z"/>
		<path fill="#333333" d="M867.855,280.576h8.819c7.919,0,12.346,3.996,12.346,12.238c0,8.603-3.779,13.462-12.346,13.462h-8.819
			V280.576z M871.275,303.397h5.687c2.34,0,8.64-0.648,8.64-10.115c0-6.12-2.268-9.827-8.567-9.827h-5.759V303.397z"/>
		<path fill="#333333" d="M908.569,300.374c-0.828,4.14-3.743,6.335-7.955,6.335c-5.939,0-8.747-4.14-8.927-9.791
			c0-5.615,3.672-9.683,8.747-9.683c6.587,0,8.603,6.155,8.423,10.655h-13.931c-0.107,3.239,1.729,6.119,5.796,6.119
			c2.556,0,4.283-1.188,4.823-3.636H908.569z M905.618,295.19c-0.181-2.916-2.304-5.255-5.364-5.255
			c-3.167,0-5.146,2.375-5.327,5.255H905.618z"/>
		<path fill="#333333" d="M920.414,306.277h-3.275l-6.911-18.61h3.42l5.219,15.514h0.072l5.075-15.514h3.204L920.414,306.277z"/>
		<path fill="#333333" d="M945.901,300.374c-0.828,4.14-3.743,6.335-7.955,6.335c-5.939,0-8.747-4.14-8.927-9.791
			c0-5.615,3.672-9.683,8.747-9.683c6.587,0,8.603,6.155,8.423,10.655h-13.931c-0.107,3.239,1.729,6.119,5.796,6.119
			c2.556,0,4.283-1.188,4.823-3.636H945.901z M942.95,295.19c-0.181-2.916-2.304-5.255-5.364-5.255
			c-3.167,0-5.146,2.375-5.327,5.255H942.95z"/>
		<path fill="#333333" d="M949.538,280.576h3.06v25.701h-3.06V280.576z"/>
		<path fill="#333333" d="M965.378,287.235c5.903,0,9.034,4.283,9.034,9.755c0,5.435-3.131,9.719-9.034,9.719
			s-9.035-4.284-9.035-9.719C956.343,291.519,959.475,287.235,965.378,287.235z M965.378,304.009c3.203,0,5.795-2.52,5.795-7.019
			c0-4.5-2.592-7.055-5.795-7.055c-3.204,0-5.796,2.556-5.796,7.055C959.582,301.489,962.174,304.009,965.378,304.009z"/>
		<path fill="#333333" d="M978.122,287.667h3.06v2.52h0.071c1.008-2.052,3.348-2.952,5.939-2.952c5.724,0,8.567,4.535,8.567,9.791
			c0,5.292-2.808,9.683-8.495,9.683c-1.872,0-4.68-0.72-6.012-2.916h-0.071v9.611h-3.06V287.667z M986.761,289.935
			c-4.14,0-5.688,3.563-5.688,7.019c0,3.635,1.656,7.055,5.867,7.055c4.176,0,5.579-3.563,5.579-7.199
			C992.52,293.318,990.72,289.935,986.761,289.935z"/>
		<path fill="#333333" d="M999.361,287.667h2.88v2.736h0.071c1.404-2.124,3.384-3.167,6.012-3.167c2.304,0,4.355,0.864,5.111,3.167
			c1.26-2.016,3.42-3.167,5.831-3.167c3.708,0,6.191,1.548,6.191,5.399v13.642h-3.06v-12.203c0-2.304-0.612-4.139-3.6-4.139
			s-4.859,1.872-4.859,4.751v11.59h-3.06v-12.203c0-2.412-0.756-4.139-3.491-4.139c-3.6,0-4.968,3.312-4.968,4.751v11.59h-3.06
			V287.667z"/>
		<path fill="#333333" d="M1045.943,300.374c-0.828,4.14-3.743,6.335-7.955,6.335c-5.939,0-8.747-4.14-8.927-9.791
			c0-5.615,3.672-9.683,8.747-9.683c6.587,0,8.603,6.155,8.423,10.655h-13.931c-0.107,3.239,1.729,6.119,5.796,6.119
			c2.556,0,4.283-1.188,4.823-3.636H1045.943z M1042.992,295.19c-0.181-2.916-2.304-5.255-5.364-5.255
			c-3.167,0-5.146,2.375-5.327,5.255H1042.992z"/>
		<path fill="#333333" d="M1049.4,287.667h2.88v2.952h0.071c1.296-2.304,3.348-3.383,6.048-3.383c4.896,0,6.407,2.808,6.407,6.803
			v12.238h-3.06v-12.599c0-2.304-1.44-3.743-3.779-3.743c-3.708,0-5.508,2.483-5.508,5.831v10.511h-3.06V287.667z"/>
		<path fill="#333333" d="M1073.664,287.667h3.708v2.7h-3.708v11.555c0,1.44,0.396,1.656,2.304,1.656h1.404v2.7h-2.34
			c-3.168,0-4.428-0.648-4.428-4.067v-11.843h-3.167v-2.7h3.167v-5.579h3.06V287.667z"/>
		<path fill="#333333" d="M1102.14,279.964c8.171,0,12.31,6.443,12.31,13.462c0,7.02-4.139,13.462-12.31,13.462
			c-8.172,0-12.311-6.443-12.311-13.462C1089.829,286.407,1093.968,279.964,1102.14,279.964z M1102.14,304.009
			c6.263,0,8.891-5.399,8.891-10.583c0-5.183-2.628-10.583-8.891-10.583c-6.264,0-8.892,5.399-8.892,10.583
			C1093.248,298.61,1095.876,304.009,1102.14,304.009z"/>
		<path fill="#333333" d="M1119.384,290.367h-3.132v-2.7h3.132v-2.771c0-3.023,1.8-4.607,5.147-4.607
			c0.576,0,1.403,0.108,1.979,0.288v2.664c-0.54-0.18-1.188-0.252-1.728-0.252c-1.476,0-2.34,0.468-2.34,2.088v2.591h3.6v2.7h-3.6
			v15.91h-3.06V290.367z"/>
		<path fill="#333333" d="M1130.04,290.367h-3.132v-2.7h3.132v-2.771c0-3.023,1.8-4.607,5.147-4.607
			c0.576,0,1.403,0.108,1.979,0.288v2.664c-0.54-0.18-1.188-0.252-1.728-0.252c-1.476,0-2.34,0.468-2.34,2.088v2.591h3.6v2.7h-3.6
			v15.91h-3.06V290.367z"/>
		<path fill="#333333" d="M1155.31,300.374c-0.828,4.14-3.743,6.335-7.955,6.335c-5.939,0-8.747-4.14-8.927-9.791
			c0-5.615,3.672-9.683,8.747-9.683c6.587,0,8.603,6.155,8.423,10.655h-13.931c-0.107,3.239,1.729,6.119,5.796,6.119
			c2.556,0,4.283-1.188,4.823-3.636H1155.31z M1152.358,295.19c-0.181-2.916-2.304-5.255-5.364-5.255
			c-3.167,0-5.146,2.375-5.327,5.255H1152.358z"/>
		<path fill="#333333" d="M1158.658,287.667h2.88v3.924h0.072c1.476-3.024,3.527-4.463,6.839-4.355v3.239
			c-4.932,0-6.731,2.772-6.731,7.523v8.279h-3.06V287.667z"/>
		<path fill="#333333" d="M1173.994,284.32h-3.06v-3.744h3.06V284.32z M1170.935,287.667h3.06v18.61h-3.06V287.667z"/>
		<path fill="#333333" d="M1178.746,287.667h2.88v2.952h0.071c1.296-2.304,3.348-3.383,6.048-3.383c4.896,0,6.407,2.808,6.407,6.803
			v12.238h-3.06v-12.599c0-2.304-1.44-3.743-3.779-3.743c-3.708,0-5.508,2.483-5.508,5.831v10.511h-3.06V287.667z"/>
		<path fill="#333333" d="M1214.815,304.693c0,6.083-2.735,9.143-8.639,9.143c-3.491,0-7.523-1.44-7.703-5.471h3.06
			c0.108,2.196,2.844,3.023,4.823,3.023c3.996,0,5.58-2.879,5.58-7.055v-1.224h-0.072c-1.044,2.268-3.42,3.383-5.796,3.383
			c-5.543,0-8.314-4.355-8.314-9.431c0-4.392,2.124-9.827,8.603-9.827c2.34,0,4.428,1.044,5.544,3.096h0.036v-2.664h2.879V304.693z
			 M1211.792,296.594c0-3.276-1.439-6.659-5.291-6.659c-3.924,0-5.508,3.204-5.508,6.767c0,3.348,1.224,7.091,5.256,7.091
			C1210.28,303.793,1211.792,300.085,1211.792,296.594z"/>
		<path fill="#333333" d="M1230.01,280.576h4.679l8.1,21.597l8.135-21.597h4.68v25.701h-3.24v-21.381h-0.071l-8.027,21.381h-2.916
			l-8.026-21.381h-0.072v21.381h-3.239V280.576z"/>
		<path fill="#333333" d="M1277.275,306.205c-0.54,0.324-1.296,0.504-2.196,0.504c-1.584,0-2.592-0.864-2.592-2.88
			c-1.691,2.016-3.959,2.88-6.551,2.88c-3.384,0-6.155-1.476-6.155-5.22c0-4.211,3.132-5.147,6.299-5.723
			c3.348-0.684,6.264-0.396,6.264-2.736c0-2.699-2.231-3.095-4.14-3.095c-2.592,0-4.499,0.792-4.644,3.527h-3.06
			c0.18-4.607,3.708-6.227,7.883-6.227c3.348,0,6.983,0.756,6.983,5.111v9.575c0,1.44,0,2.088,0.972,2.088
			c0.288,0,0.612-0.072,0.937-0.18V306.205z M1272.308,296.666c-2.376,1.764-9.287,0.036-9.287,4.607c0,2.016,1.729,2.736,3.6,2.736
			c4.031,0,5.688-2.484,5.688-4.211V296.666z"/>
		<path fill="#333333" d="M1280.121,287.667h2.88v2.952h0.071c1.296-2.304,3.348-3.383,6.048-3.383c4.896,0,6.407,2.808,6.407,6.803
			v12.238h-3.06v-12.599c0-2.304-1.44-3.743-3.779-3.743c-3.708,0-5.508,2.483-5.508,5.831v10.511h-3.06V287.667z"/>
		<path fill="#333333" d="M1316.623,306.205c-0.54,0.324-1.296,0.504-2.196,0.504c-1.584,0-2.592-0.864-2.592-2.88
			c-1.691,2.016-3.959,2.88-6.551,2.88c-3.384,0-6.155-1.476-6.155-5.22c0-4.211,3.132-5.147,6.299-5.723
			c3.348-0.684,6.264-0.396,6.264-2.736c0-2.699-2.231-3.095-4.14-3.095c-2.592,0-4.499,0.792-4.644,3.527h-3.06
			c0.18-4.607,3.708-6.227,7.883-6.227c3.348,0,6.983,0.756,6.983,5.111v9.575c0,1.44,0,2.088,0.972,2.088
			c0.288,0,0.612-0.072,0.937-0.18V306.205z M1311.655,296.666c-2.376,1.764-9.287,0.036-9.287,4.607c0,2.016,1.729,2.736,3.6,2.736
			c4.031,0,5.688-2.484,5.688-4.211V296.666z"/>
		<path fill="#333333" d="M1335.522,304.693c0,6.083-2.735,9.143-8.639,9.143c-3.491,0-7.523-1.44-7.703-5.471h3.06
			c0.108,2.196,2.844,3.023,4.823,3.023c3.996,0,5.58-2.879,5.58-7.055v-1.224h-0.072c-1.044,2.268-3.42,3.383-5.796,3.383
			c-5.543,0-8.314-4.355-8.314-9.431c0-4.392,2.124-9.827,8.603-9.827c2.34,0,4.428,1.044,5.544,3.096h0.036v-2.664h2.879V304.693z
			 M1332.499,296.594c0-3.276-1.439-6.659-5.291-6.659c-3.924,0-5.508,3.204-5.508,6.767c0,3.348,1.224,7.091,5.256,7.091
			C1330.987,303.793,1332.499,300.085,1332.499,296.594z"/>
		<path fill="#333333" d="M1356.006,300.374c-0.828,4.14-3.743,6.335-7.955,6.335c-5.939,0-8.747-4.14-8.927-9.791
			c0-5.615,3.672-9.683,8.747-9.683c6.587,0,8.603,6.155,8.423,10.655h-13.931c-0.107,3.239,1.729,6.119,5.796,6.119
			c2.556,0,4.283-1.188,4.823-3.636H1356.006z M1353.055,295.19c-0.181-2.916-2.304-5.255-5.364-5.255
			c-3.167,0-5.146,2.375-5.327,5.255H1353.055z"/>
		<path fill="#333333" d="M1359.464,287.667h2.88v2.736h0.071c1.404-2.124,3.384-3.167,6.012-3.167c2.304,0,4.355,0.864,5.111,3.167
			c1.26-2.016,3.42-3.167,5.831-3.167c3.708,0,6.191,1.548,6.191,5.399v13.642h-3.06v-12.203c0-2.304-0.612-4.139-3.6-4.139
			s-4.859,1.872-4.859,4.751v11.59h-3.06v-12.203c0-2.412-0.756-4.139-3.491-4.139c-3.6,0-4.968,3.312-4.968,4.751v11.59h-3.06
			V287.667z"/>
		<path fill="#333333" d="M1406.046,300.374c-0.828,4.14-3.743,6.335-7.955,6.335c-5.939,0-8.747-4.14-8.927-9.791
			c0-5.615,3.672-9.683,8.747-9.683c6.587,0,8.603,6.155,8.423,10.655h-13.931c-0.107,3.239,1.729,6.119,5.796,6.119
			c2.556,0,4.283-1.188,4.823-3.636H1406.046z M1403.095,295.19c-0.181-2.916-2.304-5.255-5.364-5.255
			c-3.167,0-5.146,2.375-5.327,5.255H1403.095z"/>
		<path fill="#333333" d="M1409.503,287.667h2.88v2.952h0.071c1.296-2.304,3.348-3.383,6.048-3.383c4.896,0,6.407,2.808,6.407,6.803
			v12.238h-3.06v-12.599c0-2.304-1.44-3.743-3.779-3.743c-3.708,0-5.508,2.483-5.508,5.831v10.511h-3.06V287.667z"/>
		<path fill="#333333" d="M1433.766,287.667h3.708v2.7h-3.708v11.555c0,1.44,0.396,1.656,2.304,1.656h1.404v2.7h-2.34
			c-3.168,0-4.428-0.648-4.428-4.067v-11.843h-3.167v-2.7h3.167v-5.579h3.06V287.667z"/>
		<path fill="#333333" d="M1458.894,287.235c5.903,0,9.034,4.283,9.034,9.755c0,5.435-3.131,9.719-9.034,9.719
			s-9.035-4.284-9.035-9.719C1449.858,291.519,1452.99,287.235,1458.894,287.235z M1458.894,304.009c3.203,0,5.795-2.52,5.795-7.019
			c0-4.5-2.592-7.055-5.795-7.055c-3.204,0-5.796,2.556-5.796,7.055C1453.098,301.489,1455.689,304.009,1458.894,304.009z"/>
		<path fill="#333333" d="M1471.422,287.667h2.88v3.924h0.072c1.476-3.024,3.527-4.463,6.839-4.355v3.239
			c-4.932,0-6.731,2.772-6.731,7.523v8.279h-3.06V287.667z"/>
		<path fill="#333333" d="M829.84,323.776h8.819c7.919,0,12.347,3.996,12.347,12.238c0,8.603-3.779,13.462-12.347,13.462h-8.819
			V323.776z M833.26,346.597h5.688c2.34,0,8.639-0.647,8.639-10.114c0-6.12-2.268-9.827-8.567-9.827h-5.759V346.597z"/>
		<path fill="#333333" d="M870.555,343.573c-0.828,4.14-3.743,6.335-7.955,6.335c-5.939,0-8.747-4.14-8.927-9.79
			c0-5.616,3.672-9.683,8.747-9.683c6.587,0,8.603,6.155,8.423,10.655h-13.931c-0.107,3.239,1.729,6.119,5.796,6.119
			c2.556,0,4.283-1.188,4.823-3.636H870.555z M867.604,338.39c-0.181-2.916-2.304-5.255-5.364-5.255
			c-3.167,0-5.146,2.375-5.327,5.255H867.604z"/>
		<path fill="#333333" d="M874.191,323.776h3.06v25.701h-3.06V323.776z"/>
		<path fill="#333333" d="M885.242,327.52h-3.06v-3.744h3.06V327.52z M882.183,330.867h3.06v18.61h-3.06V330.867z"/>
		<path fill="#333333" d="M898.382,349.477h-3.275l-6.911-18.61h3.42l5.219,15.514h0.072l5.075-15.514h3.204L898.382,349.477z"/>
		<path fill="#333333" d="M923.869,343.573c-0.828,4.14-3.743,6.335-7.955,6.335c-5.939,0-8.747-4.14-8.927-9.79
			c0-5.616,3.672-9.683,8.747-9.683c6.587,0,8.603,6.155,8.423,10.655h-13.931c-0.107,3.239,1.729,6.119,5.796,6.119
			c2.556,0,4.283-1.188,4.823-3.636H923.869z M920.918,338.39c-0.181-2.916-2.304-5.255-5.364-5.255
			c-3.167,0-5.146,2.375-5.327,5.255H920.918z"/>
		<path fill="#333333" d="M927.218,330.867h2.88v3.924h0.072c1.476-3.024,3.527-4.463,6.839-4.355v3.239
			c-4.932,0-6.731,2.772-6.731,7.523v8.279h-3.06V330.867z"/>
		<path fill="#333333" d="M946.62,351.96c-1.439,3.6-2.663,4.968-5.398,4.968c-0.721,0-1.44-0.072-2.124-0.324v-2.808
			c0.576,0.18,1.188,0.432,1.8,0.432c1.26,0,1.943-0.575,2.52-1.691l1.26-3.168l-7.379-18.501h3.455l5.436,15.226h0.072
			l5.219-15.226h3.24L946.62,351.96z"/>
		<path fill="#333333" d="M957.997,345.481h3.996v3.635c0,2.736-1.188,4.824-3.96,5.651v-1.8c1.584-0.575,2.196-2.304,2.088-3.491
			h-2.124V345.481z"/>
		<path fill="#333333" d="M983.665,326.655h-8.566v-2.879h20.553v2.879h-8.566v22.821h-3.42V326.655z"/>
		<path fill="#333333" d="M1013.867,343.573c-0.828,4.14-3.743,6.335-7.955,6.335c-5.939,0-8.747-4.14-8.927-9.79
			c0-5.616,3.672-9.683,8.747-9.683c6.587,0,8.603,6.155,8.423,10.655h-13.931c-0.107,3.239,1.729,6.119,5.796,6.119
			c2.556,0,4.283-1.188,4.823-3.636H1013.867z M1010.916,338.39c-0.181-2.916-2.304-5.255-5.364-5.255
			c-3.167,0-5.146,2.375-5.327,5.255H1010.916z"/>
		<path fill="#333333" d="M1019.197,343.609c0.107,2.735,2.52,3.6,5.003,3.6c1.908,0,4.5-0.432,4.5-2.771
			c0-4.788-12.167-1.548-12.167-8.711c0-3.743,3.672-5.291,6.947-5.291c4.176,0,7.343,1.296,7.631,5.831h-3.06
			c-0.18-2.375-2.34-3.131-4.319-3.131c-1.836,0-3.96,0.504-3.96,2.375c0,2.16,3.24,2.592,6.084,3.24
			c3.06,0.684,6.083,1.728,6.083,5.291c0,4.464-4.14,5.867-7.919,5.867c-4.176,0-7.703-1.691-7.883-6.299H1019.197z"/>
		<path fill="#333333" d="M1039.572,330.867h3.708v2.7h-3.708v11.555c0,1.439,0.396,1.656,2.304,1.656h1.404v2.699h-2.34
			c-3.168,0-4.428-0.647-4.428-4.067v-11.843h-3.167v-2.7h3.167v-5.579h3.06V330.867z"/>
		<path fill="#333333" d="M1049.904,327.52h-3.06v-3.744h3.06V327.52z M1046.845,330.867h3.06v18.61h-3.06V330.867z"/>
		<path fill="#333333" d="M1054.656,330.867h2.88v2.952h0.071c1.296-2.304,3.348-3.383,6.048-3.383c4.896,0,6.407,2.808,6.407,6.803
			v12.238h-3.06v-12.599c0-2.304-1.44-3.743-3.779-3.743c-3.708,0-5.508,2.483-5.508,5.831v10.511h-3.06V330.867z"/>
		<path fill="#333333" d="M1090.726,347.893c0,6.083-2.735,9.143-8.639,9.143c-3.491,0-7.523-1.439-7.703-5.471h3.06
			c0.108,2.195,2.844,3.023,4.823,3.023c3.996,0,5.58-2.88,5.58-7.055v-1.225h-0.072c-1.044,2.269-3.42,3.384-5.796,3.384
			c-5.543,0-8.314-4.355-8.314-9.431c0-4.392,2.124-9.827,8.603-9.827c2.34,0,4.428,1.044,5.544,3.096h0.036v-2.664h2.879V347.893z
			 M1087.702,339.794c0-3.276-1.439-6.659-5.291-6.659c-3.924,0-5.508,3.204-5.508,6.767c0,3.348,1.224,7.092,5.256,7.092
			C1086.19,346.993,1087.702,343.285,1087.702,339.794z"/>
		<path fill="#333333" d="M1096.02,345.481h3.996v3.635c0,2.736-1.188,4.824-3.96,5.651v-1.8c1.584-0.575,2.196-2.304,2.088-3.491
			h-2.124V345.481z"/>
		<path fill="#333333" d="M1115.855,323.776h8.819c7.919,0,12.346,3.996,12.346,12.238c0,8.603-3.779,13.462-12.346,13.462h-8.819
			V323.776z M1119.275,346.597h5.687c2.34,0,8.64-0.647,8.64-10.114c0-6.12-2.268-9.827-8.567-9.827h-5.759V346.597z"/>
		<path fill="#333333" d="M1156.569,343.573c-0.828,4.14-3.743,6.335-7.955,6.335c-5.939,0-8.747-4.14-8.927-9.79
			c0-5.616,3.672-9.683,8.747-9.683c6.587,0,8.603,6.155,8.423,10.655h-13.931c-0.107,3.239,1.729,6.119,5.796,6.119
			c2.556,0,4.283-1.188,4.823-3.636H1156.569z M1153.618,338.39c-0.181-2.916-2.304-5.255-5.364-5.255
			c-3.167,0-5.146,2.375-5.327,5.255H1153.618z"/>
		<path fill="#333333" d="M1168.414,349.477h-3.275l-6.911-18.61h3.42l5.219,15.514h0.072l5.075-15.514h3.204L1168.414,349.477z"/>
		<path fill="#333333" d="M1193.901,343.573c-0.828,4.14-3.743,6.335-7.955,6.335c-5.939,0-8.747-4.14-8.927-9.79
			c0-5.616,3.672-9.683,8.747-9.683c6.587,0,8.603,6.155,8.423,10.655h-13.931c-0.107,3.239,1.729,6.119,5.796,6.119
			c2.556,0,4.283-1.188,4.823-3.636H1193.901z M1190.95,338.39c-0.181-2.916-2.304-5.255-5.364-5.255
			c-3.167,0-5.146,2.375-5.327,5.255H1190.95z"/>
		<path fill="#333333" d="M1197.538,323.776h3.06v25.701h-3.06V323.776z"/>
		<path fill="#333333" d="M1213.378,330.435c5.903,0,9.034,4.283,9.034,9.754c0,5.436-3.131,9.719-9.034,9.719
			s-9.035-4.283-9.035-9.719C1204.343,334.718,1207.475,330.435,1213.378,330.435z M1213.378,347.209c3.203,0,5.795-2.52,5.795-7.02
			c0-4.499-2.592-7.055-5.795-7.055c-3.204,0-5.796,2.556-5.796,7.055C1207.582,344.689,1210.174,347.209,1213.378,347.209z"/>
		<path fill="#333333" d="M1226.122,330.867h3.06v2.52h0.071c1.008-2.052,3.348-2.952,5.939-2.952c5.724,0,8.567,4.535,8.567,9.791
			c0,5.291-2.808,9.683-8.495,9.683c-1.872,0-4.68-0.72-6.012-2.915h-0.071v9.61h-3.06V330.867z M1234.761,333.135
			c-4.14,0-5.688,3.563-5.688,7.019c0,3.636,1.656,7.056,5.867,7.056c4.176,0,5.579-3.563,5.579-7.199
			C1240.52,336.518,1238.72,333.135,1234.761,333.135z"/>
		<path fill="#333333" d="M1247.361,330.867h2.88v2.736h0.071c1.404-2.124,3.384-3.167,6.012-3.167c2.304,0,4.355,0.864,5.111,3.167
			c1.26-2.016,3.42-3.167,5.831-3.167c3.708,0,6.191,1.548,6.191,5.399v13.642h-3.06v-12.203c0-2.304-0.612-4.139-3.6-4.139
			s-4.859,1.872-4.859,4.751v11.59h-3.06v-12.203c0-2.412-0.756-4.139-3.491-4.139c-3.6,0-4.968,3.312-4.968,4.751v11.59h-3.06
			V330.867z"/>
		<path fill="#333333" d="M1293.943,343.573c-0.828,4.14-3.743,6.335-7.955,6.335c-5.939,0-8.747-4.14-8.927-9.79
			c0-5.616,3.672-9.683,8.747-9.683c6.587,0,8.603,6.155,8.423,10.655h-13.931c-0.107,3.239,1.729,6.119,5.796,6.119
			c2.556,0,4.283-1.188,4.823-3.636H1293.943z M1290.992,338.39c-0.181-2.916-2.304-5.255-5.364-5.255
			c-3.167,0-5.146,2.375-5.327,5.255H1290.992z"/>
		<path fill="#333333" d="M1297.4,330.867h2.88v2.952h0.071c1.296-2.304,3.348-3.383,6.048-3.383c4.896,0,6.407,2.808,6.407,6.803
			v12.238h-3.06v-12.599c0-2.304-1.44-3.743-3.779-3.743c-3.708,0-5.508,2.483-5.508,5.831v10.511h-3.06V330.867z"/>
		<path fill="#333333" d="M1321.664,330.867h3.708v2.7h-3.708v11.555c0,1.439,0.396,1.656,2.304,1.656h1.404v2.699h-2.34
			c-3.168,0-4.428-0.647-4.428-4.067v-11.843h-3.167v-2.7h3.167v-5.579h3.06V330.867z"/>
		<path fill="#333333" d="M1329.439,345.481h3.996v3.635c0,2.736-1.188,4.824-3.96,5.651v-1.8c1.584-0.575,2.196-2.304,2.088-3.491
			h-2.124V345.481z"/>
		<path fill="#333333" d="M1365.259,349.404c-0.54,0.324-1.296,0.504-2.196,0.504c-1.584,0-2.592-0.863-2.592-2.879
			c-1.691,2.016-3.959,2.879-6.551,2.879c-3.384,0-6.155-1.476-6.155-5.219c0-4.212,3.132-5.147,6.299-5.724
			c3.348-0.684,6.264-0.396,6.264-2.735c0-2.7-2.231-3.096-4.14-3.096c-2.592,0-4.499,0.792-4.644,3.527h-3.06
			c0.18-4.607,3.708-6.227,7.883-6.227c3.348,0,6.983,0.756,6.983,5.111v9.575c0,1.439,0,2.088,0.972,2.088
			c0.288,0,0.612-0.072,0.937-0.18V349.404z M1360.291,339.866c-2.376,1.764-9.287,0.035-9.287,4.607c0,2.016,1.729,2.735,3.6,2.735
			c4.031,0,5.688-2.483,5.688-4.212V339.866z"/>
		<path fill="#333333" d="M1368.104,330.867h2.88v2.952h0.071c1.296-2.304,3.348-3.383,6.048-3.383c4.896,0,6.407,2.808,6.407,6.803
			v12.238h-3.06v-12.599c0-2.304-1.44-3.743-3.779-3.743c-3.708,0-5.508,2.483-5.508,5.831v10.511h-3.06V330.867z"/>
		<path fill="#333333" d="M1404.75,349.477h-3.06v-2.52h-0.072c-1.008,2.052-3.348,2.951-5.939,2.951
			c-5.723,0-8.566-4.535-8.566-9.79c0-5.256,2.808-9.683,8.495-9.683c1.871,0,4.679,0.72,6.011,2.916h0.072v-9.575h3.06V349.477z
			 M1396.111,347.209c4.14,0,5.688-3.563,5.688-7.02c0-3.635-1.656-7.055-5.868-7.055c-4.175,0-5.579,3.563-5.579,7.199
			C1390.352,343.825,1392.151,347.209,1396.111,347.209z"/>
		<path fill="#333333" d="M1440.929,351.708l-3.923-3.167c-1.729,1.044-3.78,1.548-6.155,1.548c-8.172,0-12.311-6.443-12.311-13.463
			c0-7.019,4.139-13.462,12.311-13.462c8.171,0,12.31,6.443,12.31,13.462c0,3.924-1.295,7.667-3.887,10.223l3.383,2.7
			L1440.929,351.708z M1433.37,342.134l3.419,2.735c2.016-2.016,2.952-5.111,2.952-8.243c0-5.183-2.628-10.583-8.891-10.583
			c-6.264,0-8.892,5.399-8.892,10.583c0,5.184,2.628,10.583,8.892,10.583c1.26,0,2.447-0.252,3.563-0.72l-2.844-2.268
			L1433.37,342.134z"/>
		<path fill="#333333" d="M1462.241,349.477h-2.88v-2.951h-0.072c-1.296,2.304-3.348,3.383-6.047,3.383
			c-4.896,0-6.407-2.808-6.407-6.803v-12.239h3.06v12.598c0,2.304,1.439,3.744,3.779,3.744c3.708,0,5.508-2.483,5.508-5.831v-10.511
			h3.06V349.477z"/>
		<path fill="#333333" d="M1483.337,349.404c-0.54,0.324-1.296,0.504-2.196,0.504c-1.584,0-2.592-0.863-2.592-2.879
			c-1.691,2.016-3.959,2.879-6.551,2.879c-3.384,0-6.155-1.476-6.155-5.219c0-4.212,3.132-5.147,6.299-5.724
			c3.348-0.684,6.264-0.396,6.264-2.735c0-2.7-2.231-3.096-4.14-3.096c-2.592,0-4.499,0.792-4.644,3.527h-3.06
			c0.18-4.607,3.708-6.227,7.883-6.227c3.348,0,6.983,0.756,6.983,5.111v9.575c0,1.439,0,2.088,0.972,2.088
			c0.288,0,0.612-0.072,0.937-0.18V349.404z M1478.369,339.866c-2.376,1.764-9.287,0.035-9.287,4.607c0,2.016,1.729,2.735,3.6,2.735
			c4.031,0,5.688-2.483,5.688-4.212V339.866z"/>
		<path fill="#333333" d="M1486.362,323.776h3.06v25.701h-3.06V323.776z"/>
		<path fill="#333333" d="M1497.413,327.52h-3.06v-3.744h3.06V327.52z M1494.354,330.867h3.06v18.61h-3.06V330.867z"/>
		<path fill="#333333" d="M1506.412,330.867h3.708v2.7h-3.708v11.555c0,1.439,0.396,1.656,2.304,1.656h1.404v2.699h-2.34
			c-3.168,0-4.428-0.647-4.428-4.067v-11.843h-3.167v-2.7h3.167v-5.579h3.06V330.867z"/>
		<path fill="#333333" d="M1520.812,351.96c-1.439,3.6-2.663,4.968-5.398,4.968c-0.721,0-1.44-0.072-2.124-0.324v-2.808
			c0.576,0.18,1.188,0.432,1.8,0.432c1.26,0,1.943-0.575,2.52-1.691l1.26-3.168l-7.379-18.501h3.455l5.436,15.226h0.072
			l5.219-15.226h3.24L1520.812,351.96z"/>
		<path fill="#333333" d="M845.822,392.604c-0.54,0.324-1.296,0.504-2.196,0.504c-1.583,0-2.591-0.863-2.591-2.879
			c-1.692,2.016-3.959,2.879-6.551,2.879c-3.384,0-6.155-1.476-6.155-5.219c0-4.212,3.131-5.147,6.299-5.724
			c3.348-0.684,6.263-0.396,6.263-2.735c0-2.7-2.232-3.096-4.14-3.096c-2.592,0-4.5,0.792-4.644,3.527h-3.06
			c0.18-4.607,3.708-6.228,7.883-6.228c3.348,0,6.983,0.756,6.983,5.111v9.575c0,1.439,0,2.088,0.972,2.088
			c0.288,0,0.611-0.072,0.936-0.18V392.604z M840.855,383.066c-2.375,1.764-9.287,0.035-9.287,4.607
			c0,2.016,1.728,2.735,3.599,2.735c4.032,0,5.688-2.483,5.688-4.212V383.066z"/>
		<path fill="#333333" d="M848.668,374.067h2.88v2.951h0.071c1.296-2.304,3.348-3.384,6.048-3.384c4.896,0,6.407,2.808,6.407,6.804
			v12.238h-3.06v-12.599c0-2.304-1.44-3.743-3.779-3.743c-3.708,0-5.508,2.483-5.508,5.831v10.511h-3.06V374.067z"/>
		<path fill="#333333" d="M885.313,392.677h-3.06v-2.52h-0.072c-1.008,2.052-3.348,2.951-5.939,2.951
			c-5.723,0-8.566-4.535-8.566-9.79c0-5.256,2.808-9.684,8.495-9.684c1.871,0,4.679,0.721,6.011,2.916h0.072v-9.575h3.06V392.677z
			 M876.675,390.409c4.14,0,5.688-3.563,5.688-7.02c0-3.636-1.656-7.055-5.868-7.055c-4.175,0-5.579,3.563-5.579,7.199
			C870.915,387.025,872.715,390.409,876.675,390.409z"/>
		<path fill="#333333" d="M900.543,366.976h12.095c4.859,0,7.811,2.592,7.811,6.731c0,3.132-1.332,5.651-4.463,6.516v0.071
			c2.987,0.576,3.563,2.808,3.852,5.292c0.18,2.483,0.071,5.363,1.512,7.091h-3.815c-0.973-1.044-0.433-3.815-0.937-6.335
			c-0.396-2.484-0.972-4.644-4.283-4.644h-8.351v10.979h-3.42V366.976z M911.09,378.818c3.167,0,5.939-0.828,5.939-4.571
			c0-2.556-1.368-4.392-4.572-4.392h-8.494v8.963H911.09z"/>
		<path fill="#333333" d="M940.573,386.773c-0.828,4.14-3.743,6.335-7.955,6.335c-5.939,0-8.747-4.14-8.927-9.79
			c0-5.616,3.672-9.684,8.747-9.684c6.587,0,8.603,6.155,8.423,10.655h-13.931c-0.107,3.239,1.729,6.119,5.796,6.119
			c2.556,0,4.283-1.188,4.823-3.636H940.573z M937.622,381.59c-0.181-2.915-2.304-5.255-5.364-5.255
			c-3.167,0-5.146,2.376-5.327,5.255H937.622z"/>
		<path fill="#333333" d="M960.085,391.093c0,6.083-2.735,9.143-8.639,9.143c-3.491,0-7.523-1.439-7.703-5.471h3.06
			c0.108,2.195,2.844,3.023,4.823,3.023c3.996,0,5.58-2.88,5.58-7.055v-1.225h-0.072c-1.044,2.269-3.42,3.384-5.796,3.384
			c-5.543,0-8.314-4.355-8.314-9.431c0-4.392,2.124-9.827,8.603-9.827c2.34,0,4.428,1.044,5.544,3.096h0.036v-2.663h2.879V391.093z
			 M957.062,382.994c0-3.275-1.439-6.659-5.291-6.659c-3.924,0-5.508,3.203-5.508,6.767c0,3.348,1.224,7.092,5.256,7.092
			C955.55,390.193,957.062,386.485,957.062,382.994z"/>
		<path fill="#333333" d="M980.101,392.677h-2.88v-2.951h-0.072c-1.296,2.304-3.348,3.383-6.047,3.383
			c-4.896,0-6.407-2.808-6.407-6.803v-12.238h3.06v12.598c0,2.304,1.439,3.744,3.779,3.744c3.708,0,5.508-2.483,5.508-5.831v-10.511
			h3.06V392.677z"/>
		<path fill="#333333" d="M984.891,366.976h3.06v25.701h-3.06V366.976z"/>
		<path fill="#333333" d="M1009.188,392.604c-0.54,0.324-1.296,0.504-2.196,0.504c-1.584,0-2.592-0.863-2.592-2.879
			c-1.691,2.016-3.959,2.879-6.551,2.879c-3.384,0-6.155-1.476-6.155-5.219c0-4.212,3.132-5.147,6.299-5.724
			c3.348-0.684,6.264-0.396,6.264-2.735c0-2.7-2.231-3.096-4.14-3.096c-2.592,0-4.499,0.792-4.644,3.527h-3.06
			c0.18-4.607,3.708-6.228,7.883-6.228c3.348,0,6.983,0.756,6.983,5.111v9.575c0,1.439,0,2.088,0.972,2.088
			c0.288,0,0.612-0.072,0.937-0.18V392.604z M1004.221,383.066c-2.376,1.764-9.287,0.035-9.287,4.607c0,2.016,1.729,2.735,3.6,2.735
			c4.031,0,5.688-2.483,5.688-4.212V383.066z"/>
		<path fill="#333333" d="M1016.28,374.067h3.708v2.699h-3.708v11.555c0,1.439,0.396,1.656,2.304,1.656h1.404v2.699h-2.34
			c-3.168,0-4.428-0.647-4.428-4.067v-11.843h-3.167v-2.699h3.167v-5.58h3.06V374.067z"/>
		<path fill="#333333" d="M1031.4,373.635c5.903,0,9.034,4.284,9.034,9.755c0,5.436-3.131,9.719-9.034,9.719
			s-9.035-4.283-9.035-9.719C1022.365,377.919,1025.497,373.635,1031.4,373.635z M1031.4,390.409c3.203,0,5.795-2.52,5.795-7.02
			c0-4.499-2.592-7.055-5.795-7.055c-3.204,0-5.796,2.556-5.796,7.055C1025.604,387.89,1028.196,390.409,1031.4,390.409z"/>
		<path fill="#333333" d="M1043.929,374.067h2.88v3.923h0.072c1.476-3.023,3.527-4.463,6.839-4.355v3.24
			c-4.932,0-6.731,2.771-6.731,7.522v8.279h-3.06V374.067z"/>
		<path fill="#333333" d="M1063.331,395.16c-1.439,3.6-2.663,4.968-5.398,4.968c-0.721,0-1.44-0.072-2.124-0.324v-2.808
			c0.576,0.18,1.188,0.432,1.8,0.432c1.26,0,1.943-0.575,2.52-1.691l1.26-3.168l-7.379-18.501h3.455l5.436,15.226h0.072
			l5.219-15.226h3.24L1063.331,395.16z"/>
	</g>
	<g>
		<path fill="#333333" d="M45.473,147.196h10.654c7.919,0,11.339,5.759,11.339,12.85c0,7.091-3.42,12.851-11.339,12.851H45.473
			V147.196z M49.972,169.225h4.428c7.055,0,8.567-3.996,8.567-9.179c0-5.183-1.512-9.179-8.567-9.179h-4.428V169.225z"/>
		<path fill="#333333" d="M74.092,164.653c0,2.916,1.584,5.507,5.003,5.507c2.412,0,3.815-1.043,4.536-3.095h3.887
			c-0.864,4.067-4.391,6.335-8.423,6.335c-5.867,0-9.107-4.031-9.107-9.791c0-5.292,3.456-9.827,8.999-9.827
			c5.867,0,9.467,5.292,8.783,10.871H74.092z M83.667,161.954c-0.18-2.592-1.872-4.932-4.679-4.932c-2.844,0-4.788,2.16-4.896,4.932
			H83.667z"/>
		<path fill="#333333" d="M94,166.921c0.252,2.412,2.016,3.239,4.211,3.239c1.584,0,4.248-0.324,4.14-2.448
			c-0.108-2.16-3.096-2.412-6.083-3.095c-3.023-0.648-5.975-1.728-5.975-5.507c0-4.067,4.392-5.328,7.775-5.328
			c3.815,0,7.307,1.548,7.775,5.724h-4.283c-0.396-1.98-1.944-2.484-3.78-2.484c-1.188,0-3.383,0.288-3.383,1.908
			c0,2.016,3.023,2.34,6.047,2.988c2.987,0.684,6.011,1.764,6.011,5.435c0,4.428-4.463,6.047-8.315,6.047
			c-4.716,0-8.135-2.088-8.243-6.479H94z"/>
		<path fill="#333333" d="M122.151,160.514c-0.324-2.304-1.944-3.492-4.248-3.492c-2.124,0-5.111,1.152-5.111,6.767
			c0,3.096,1.368,6.371,4.932,6.371c2.412,0,4.031-1.548,4.427-4.247h4.104c-0.756,4.859-3.744,7.487-8.531,7.487
			c-5.832,0-9.035-4.14-9.035-9.611c0-5.615,3.06-10.007,9.179-10.007c4.32,0,7.991,2.16,8.387,6.731H122.151z"/>
		<path fill="#333333" d="M129.604,154.287h3.852v3.6h0.072c0.468-1.979,2.952-4.104,5.436-4.104c0.972,0,1.152,0.072,1.548,0.108
			v3.96c-0.576-0.108-1.188-0.18-1.764-0.18c-2.772,0-5.04,2.232-5.04,6.371v8.855h-4.104V154.287z"/>
		<path fill="#333333" d="M142.384,147.196h4.104v3.887h-4.104V147.196z M142.384,154.287h4.104v18.61h-4.104V154.287z"/>
		<path fill="#333333" d="M151.06,154.287h3.888v2.52h0.072c1.152-2.16,3.348-3.024,5.759-3.024c5.867,0,8.711,4.428,8.711,9.899
			c0,5.04-2.556,9.719-8.027,9.719c-2.375,0-4.967-0.864-6.227-2.916h-0.072v9.287h-4.104V154.287z M160.239,157.022
			c-3.456,0-5.22,2.592-5.22,6.587c0,3.743,1.908,6.551,5.22,6.551c3.743,0,5.147-3.312,5.147-6.551
			C165.386,160.262,163.622,157.022,160.239,157.022z"/>
		<path fill="#333333" d="M171.076,154.287h3.096v-5.579h4.103v5.579h3.708v3.06h-3.708v9.935c0,1.692,0.144,2.556,1.98,2.556
			c0.576,0,1.152,0,1.728-0.144v3.167c-0.9,0.108-1.764,0.216-2.664,0.216c-4.319,0-5.039-1.656-5.147-4.751v-10.979h-3.096V154.287
			z"/>
		<path fill="#333333" d="M185.043,147.196h4.104v3.887h-4.104V147.196z M185.043,154.287h4.104v18.61h-4.104V154.287z"/>
		<path fill="#333333" d="M192.747,163.574c0-5.651,3.456-9.791,9.395-9.791c5.939,0,9.395,4.14,9.395,9.791
			c0,5.723-3.456,9.827-9.395,9.827C196.203,173.4,192.747,169.297,192.747,163.574z M207.433,163.574
			c0-3.204-1.62-6.551-5.292-6.551c-3.671,0-5.291,3.348-5.291,6.551c0,3.24,1.62,6.587,5.291,6.587
			C205.813,170.161,207.433,166.813,207.433,163.574z"/>
		<path fill="#333333" d="M214.958,154.287h3.888v2.736l0.072,0.072c1.26-2.051,3.348-3.312,5.795-3.312
			c4.067,0,6.587,2.124,6.587,6.335v12.778h-4.103v-11.699c-0.108-2.916-1.188-4.175-3.636-4.175c-2.736,0-4.5,2.16-4.5,4.896
			v10.979h-4.104V154.287z"/>
	</g>
	<g>
		<path fill="#333333" d="M51.736,243.819c3.563,0,6.443,2.844,6.443,6.407c0,3.564-2.879,6.443-6.443,6.443
			s-6.407-2.879-6.407-6.443C45.329,246.663,48.172,243.819,51.736,243.819z"/>
		<path fill="#333333" d="M73.552,237.376h12.095c4.859,0,7.811,2.592,7.811,6.731c0,3.132-1.332,5.651-4.464,6.515v0.072
			c2.988,0.576,3.564,2.808,3.852,5.291c0.18,2.484,0.072,5.363,1.512,7.091h-3.815c-0.972-1.044-0.432-3.815-0.936-6.335
			c-0.396-2.483-0.972-4.643-4.284-4.643h-8.351v10.979h-3.419V237.376z M84.099,249.218c3.167,0,5.939-0.828,5.939-4.571
			c0-2.556-1.368-4.392-4.571-4.392h-8.495v8.963H84.099z"/>
		<path fill="#333333" d="M113.582,257.173c-0.828,4.14-3.744,6.335-7.955,6.335c-5.939,0-8.747-4.14-8.927-9.791
			c0-5.615,3.671-9.683,8.747-9.683c6.587,0,8.603,6.155,8.423,10.655H99.94c-0.108,3.239,1.728,6.119,5.795,6.119
			c2.556,0,4.284-1.188,4.824-3.636H113.582z M110.63,251.99c-0.18-2.916-2.304-5.255-5.363-5.255c-3.167,0-5.147,2.375-5.327,5.255
			H110.63z"/>
		<path fill="#333333" d="M125.426,263.077h-3.275l-6.911-18.61h3.419l5.22,15.514h0.072l5.075-15.514h3.204L125.426,263.077z"/>
		<path fill="#333333" d="M138.279,241.12h-3.06v-3.744h3.06V241.12z M135.22,244.467h3.06v18.61h-3.06V244.467z"/>
		<path fill="#333333" d="M158.905,257.173c-0.828,4.14-3.744,6.335-7.955,6.335c-5.939,0-8.747-4.14-8.927-9.791
			c0-5.615,3.671-9.683,8.747-9.683c6.587,0,8.603,6.155,8.423,10.655h-13.93c-0.108,3.239,1.728,6.119,5.795,6.119
			c2.556,0,4.284-1.188,4.824-3.636H158.905z M155.954,251.99c-0.18-2.916-2.304-5.255-5.363-5.255
			c-3.167,0-5.147,2.375-5.327,5.255H155.954z"/>
		<path fill="#333333" d="M180.792,263.077h-3.24l-3.779-14.794h-0.072l-3.743,14.794h-3.312l-5.976-18.61h3.384l4.211,15.226h0.072
			l3.744-15.226h3.348l3.888,15.226h0.072l4.175-15.226h3.168L180.792,263.077z"/>
		<path fill="#333333" d="M191.522,257.209c0.108,2.735,2.52,3.6,5.003,3.6c1.908,0,4.5-0.432,4.5-2.772
			c0-4.787-12.167-1.548-12.167-8.711c0-3.743,3.672-5.291,6.947-5.291c4.175,0,7.343,1.296,7.631,5.831h-3.06
			c-0.18-2.375-2.34-3.131-4.319-3.131c-1.836,0-3.959,0.504-3.959,2.375c0,2.16,3.24,2.592,6.083,3.24
			c3.06,0.684,6.083,1.728,6.083,5.291c0,4.464-4.14,5.868-7.919,5.868c-4.176,0-7.703-1.692-7.883-6.299H191.522z"/>
		<path fill="#333333" d="M234.144,263.005c-0.54,0.324-1.296,0.504-2.196,0.504c-1.583,0-2.591-0.864-2.591-2.88
			c-1.692,2.016-3.959,2.88-6.551,2.88c-3.384,0-6.155-1.476-6.155-5.22c0-4.211,3.131-5.147,6.299-5.723
			c3.347-0.684,6.263-0.396,6.263-2.736c0-2.699-2.232-3.095-4.14-3.095c-2.592,0-4.5,0.792-4.644,3.527h-3.06
			c0.18-4.607,3.708-6.227,7.883-6.227c3.347,0,6.983,0.756,6.983,5.111v9.575c0,1.44,0,2.088,0.972,2.088
			c0.288,0,0.612-0.072,0.936-0.18V263.005z M229.177,253.466c-2.375,1.764-9.287,0.036-9.287,4.607
			c0,2.016,1.728,2.736,3.599,2.736c4.032,0,5.688-2.484,5.688-4.211V253.466z"/>
		<path fill="#333333" d="M236.99,244.467h2.879v2.952h0.072c1.296-2.304,3.348-3.383,6.047-3.383c4.895,0,6.407,2.808,6.407,6.803
			v12.238h-3.06v-12.599c0-2.304-1.44-3.743-3.78-3.743c-3.708,0-5.507,2.483-5.507,5.831v10.511h-3.06V244.467z"/>
		<path fill="#333333" d="M273.636,263.077h-3.06v-2.52h-0.072c-1.008,2.052-3.348,2.952-5.939,2.952
			c-5.723,0-8.567-4.536-8.567-9.791s2.808-9.683,8.495-9.683c1.872,0,4.679,0.72,6.011,2.916h0.072v-9.575h3.06V263.077z
			 M264.997,260.809c4.139,0,5.687-3.563,5.687-7.019c0-3.636-1.656-7.055-5.867-7.055c-4.175,0-5.579,3.563-5.579,7.199
			C259.238,257.425,261.037,260.809,264.997,260.809z"/>
		<path fill="#333333" d="M304.847,263.005c-0.54,0.324-1.296,0.504-2.196,0.504c-1.583,0-2.591-0.864-2.591-2.88
			c-1.692,2.016-3.959,2.88-6.551,2.88c-3.384,0-6.155-1.476-6.155-5.22c0-4.211,3.131-5.147,6.299-5.723
			c3.347-0.684,6.263-0.396,6.263-2.736c0-2.699-2.232-3.095-4.14-3.095c-2.592,0-4.5,0.792-4.644,3.527h-3.06
			c0.18-4.607,3.708-6.227,7.883-6.227c3.347,0,6.983,0.756,6.983,5.111v9.575c0,1.44,0,2.088,0.972,2.088
			c0.288,0,0.612-0.072,0.936-0.18V263.005z M299.88,253.466c-2.375,1.764-9.287,0.036-9.287,4.607c0,2.016,1.728,2.736,3.599,2.736
			c4.032,0,5.688-2.484,5.688-4.211V253.466z"/>
		<path fill="#333333" d="M307.801,244.467h3.06v2.52h0.072c1.008-2.052,3.348-2.952,5.939-2.952c5.724,0,8.567,4.535,8.567,9.791
			c0,5.292-2.808,9.683-8.495,9.683c-1.872,0-4.68-0.72-6.011-2.916h-0.072v9.611h-3.06V244.467z M316.44,246.735
			c-4.14,0-5.688,3.563-5.688,7.019c0,3.635,1.656,7.055,5.867,7.055c4.176,0,5.58-3.563,5.58-7.199
			C322.199,250.118,320.399,246.735,316.44,246.735z"/>
		<path fill="#333333" d="M329.148,244.467h3.06v2.52h0.072c1.008-2.052,3.348-2.952,5.939-2.952c5.724,0,8.567,4.535,8.567,9.791
			c0,5.292-2.808,9.683-8.495,9.683c-1.872,0-4.68-0.72-6.011-2.916h-0.072v9.611h-3.06V244.467z M337.788,246.735
			c-4.14,0-5.688,3.563-5.688,7.019c0,3.635,1.656,7.055,5.867,7.055c4.176,0,5.58-3.563,5.58-7.199
			C343.547,250.118,341.747,246.735,337.788,246.735z"/>
		<path fill="#333333" d="M350.28,244.467h2.879v3.924h0.072c1.476-3.024,3.527-4.463,6.839-4.355v3.239
			c-4.931,0-6.731,2.772-6.731,7.523v8.279h-3.06V244.467z"/>
		<path fill="#333333" d="M370.403,244.035c5.903,0,9.035,4.283,9.035,9.755c0,5.435-3.132,9.719-9.035,9.719
			s-9.035-4.284-9.035-9.719C361.368,248.318,364.5,244.035,370.403,244.035z M370.403,260.809c3.204,0,5.795-2.52,5.795-7.019
			c0-4.5-2.592-7.055-5.795-7.055s-5.795,2.556-5.795,7.055C364.608,258.289,367.199,260.809,370.403,260.809z"/>
		<path fill="#333333" d="M391.426,263.077h-3.275l-6.911-18.61h3.419l5.22,15.514h0.072l5.075-15.514h3.204L391.426,263.077z"/>
		<path fill="#333333" d="M416.914,257.173c-0.828,4.14-3.744,6.335-7.955,6.335c-5.939,0-8.747-4.14-8.927-9.791
			c0-5.615,3.671-9.683,8.747-9.683c6.587,0,8.603,6.155,8.423,10.655h-13.93c-0.108,3.239,1.728,6.119,5.795,6.119
			c2.556,0,4.284-1.188,4.824-3.636H416.914z M413.962,251.99c-0.18-2.916-2.304-5.255-5.363-5.255
			c-3.167,0-5.147,2.375-5.327,5.255H413.962z"/>
		<path fill="#333333" d="M422.243,257.209c0.108,2.735,2.52,3.6,5.003,3.6c1.908,0,4.5-0.432,4.5-2.772
			c0-4.787-12.167-1.548-12.167-8.711c0-3.743,3.672-5.291,6.947-5.291c4.175,0,7.343,1.296,7.631,5.831h-3.06
			c-0.18-2.375-2.34-3.131-4.319-3.131c-1.836,0-3.959,0.504-3.959,2.375c0,2.16,3.24,2.592,6.083,3.24
			c3.06,0.684,6.083,1.728,6.083,5.291c0,4.464-4.14,5.868-7.919,5.868c-4.176,0-7.703-1.692-7.883-6.299H422.243z"/>
		<path fill="#333333" d="M452.626,244.467h3.708v2.7h-3.708v11.555c0,1.44,0.396,1.656,2.304,1.656h1.404v2.7h-2.34
			c-3.167,0-4.427-0.648-4.427-4.067v-11.843h-3.168v-2.7h3.168v-5.579h3.06V244.467z"/>
		<path fill="#333333" d="M459.718,237.376h3.06v9.827h0.072c0.972-2.268,3.671-3.167,5.867-3.167c4.895,0,6.407,2.808,6.407,6.803
			v12.238h-3.06v-12.599c0-2.304-1.44-3.743-3.78-3.743c-3.708,0-5.507,2.483-5.507,5.831v10.511h-3.06V237.376z"/>
		<path fill="#333333" d="M495.608,257.173c-0.828,4.14-3.744,6.335-7.955,6.335c-5.939,0-8.747-4.14-8.927-9.791
			c0-5.615,3.671-9.683,8.747-9.683c6.587,0,8.603,6.155,8.423,10.655h-13.93c-0.108,3.239,1.728,6.119,5.795,6.119
			c2.556,0,4.284-1.188,4.824-3.636H495.608z M492.657,251.99c-0.18-2.916-2.304-5.255-5.363-5.255
			c-3.167,0-5.147,2.375-5.327,5.255H492.657z"/>
		<path fill="#333333" d="M76.431,279.964c8.171,0,12.311,6.443,12.311,13.462c0,7.02-4.14,13.462-12.311,13.462
			s-12.311-6.443-12.311-13.462C64.12,286.407,68.26,279.964,76.431,279.964z M76.431,304.009c6.263,0,8.891-5.399,8.891-10.583
			c0-5.183-2.628-10.583-8.891-10.583s-8.891,5.399-8.891,10.583C67.54,298.61,70.167,304.009,76.431,304.009z"/>
		<path fill="#333333" d="M93.676,290.367h-3.131v-2.7h3.131v-2.771c0-3.023,1.8-4.607,5.147-4.607c0.576,0,1.404,0.108,1.979,0.288
			v2.664c-0.54-0.18-1.188-0.252-1.728-0.252c-1.476,0-2.34,0.468-2.34,2.088v2.591h3.6v2.7h-3.6v15.91h-3.06V290.367z"/>
		<path fill="#333333" d="M104.332,290.367H101.2v-2.7h3.131v-2.771c0-3.023,1.8-4.607,5.147-4.607c0.576,0,1.404,0.108,1.979,0.288
			v2.664c-0.54-0.18-1.188-0.252-1.728-0.252c-1.476,0-2.34,0.468-2.34,2.088v2.591h3.6v2.7h-3.6v15.91h-3.06V290.367z"/>
		<path fill="#333333" d="M129.602,300.374c-0.828,4.14-3.744,6.335-7.955,6.335c-5.939,0-8.747-4.14-8.927-9.791
			c0-5.615,3.671-9.683,8.747-9.683c6.587,0,8.603,6.155,8.423,10.655h-13.93c-0.108,3.239,1.728,6.119,5.795,6.119
			c2.556,0,4.284-1.188,4.824-3.636H129.602z M126.65,295.19c-0.18-2.916-2.304-5.255-5.363-5.255c-3.167,0-5.147,2.375-5.327,5.255
			H126.65z"/>
		<path fill="#333333" d="M132.951,287.667h2.879v3.924h0.072c1.476-3.024,3.527-4.463,6.839-4.355v3.239
			c-4.931,0-6.731,2.772-6.731,7.523v8.279h-3.06V287.667z"/>
		<path fill="#333333" d="M148.287,284.32h-3.06v-3.744h3.06V284.32z M145.227,287.667h3.06v18.61h-3.06V287.667z"/>
		<path fill="#333333" d="M153.038,287.667h2.88v2.952h0.072c1.296-2.304,3.348-3.383,6.047-3.383c4.895,0,6.407,2.808,6.407,6.803
			v12.238h-3.06v-12.599c0-2.304-1.44-3.743-3.78-3.743c-3.708,0-5.507,2.483-5.507,5.831v10.511h-3.06V287.667z"/>
		<path fill="#333333" d="M189.108,304.693c0,6.083-2.736,9.143-8.639,9.143c-3.492,0-7.523-1.44-7.703-5.471h3.06
			c0.108,2.196,2.844,3.023,4.824,3.023c3.995,0,5.579-2.879,5.579-7.055v-1.224h-0.072c-1.044,2.268-3.42,3.383-5.795,3.383
			c-5.543,0-8.315-4.355-8.315-9.431c0-4.392,2.124-9.827,8.603-9.827c2.339,0,4.427,1.044,5.543,3.096h0.036v-2.664h2.88V304.693z
			 M186.084,296.594c0-3.276-1.44-6.659-5.291-6.659c-3.924,0-5.507,3.204-5.507,6.767c0,3.348,1.224,7.091,5.255,7.091
			C184.573,303.793,186.084,300.085,186.084,296.594z"/>
		<path fill="#333333" d="M206.965,284.32h-3.06v-3.744h3.06V284.32z M203.906,287.667h3.06v18.61h-3.06V287.667z"/>
		<path fill="#333333" d="M213.588,300.41c0.108,2.735,2.52,3.6,5.003,3.6c1.908,0,4.5-0.432,4.5-2.772
			c0-4.787-12.167-1.548-12.167-8.711c0-3.743,3.672-5.291,6.947-5.291c4.175,0,7.343,1.296,7.631,5.831h-3.06
			c-0.18-2.375-2.34-3.131-4.319-3.131c-1.836,0-3.959,0.504-3.959,2.375c0,2.16,3.24,2.592,6.083,3.24
			c3.06,0.684,6.083,1.728,6.083,5.291c0,4.464-4.14,5.868-7.919,5.868c-4.176,0-7.703-1.692-7.883-6.299H213.588z"/>
		<path fill="#333333" d="M239.617,287.667h2.879v3.924h0.072c1.476-3.024,3.527-4.463,6.839-4.355v3.239
			c-4.931,0-6.731,2.772-6.731,7.523v8.279h-3.06V287.667z"/>
		<path fill="#333333" d="M267.586,300.374c-0.828,4.14-3.744,6.335-7.955,6.335c-5.939,0-8.747-4.14-8.927-9.791
			c0-5.615,3.671-9.683,8.747-9.683c6.587,0,8.603,6.155,8.423,10.655h-13.93c-0.108,3.239,1.728,6.119,5.795,6.119
			c2.556,0,4.284-1.188,4.824-3.636H267.586z M264.635,295.19c-0.18-2.916-2.304-5.255-5.363-5.255
			c-3.167,0-5.147,2.375-5.327,5.255H264.635z"/>
		<path fill="#333333" d="M287.53,306.205c-0.54,0.324-1.296,0.504-2.196,0.504c-1.583,0-2.591-0.864-2.591-2.88
			c-1.692,2.016-3.959,2.88-6.551,2.88c-3.384,0-6.155-1.476-6.155-5.22c0-4.211,3.131-5.147,6.299-5.723
			c3.347-0.684,6.263-0.396,6.263-2.736c0-2.699-2.232-3.095-4.14-3.095c-2.592,0-4.5,0.792-4.644,3.527h-3.06
			c0.18-4.607,3.708-6.227,7.883-6.227c3.347,0,6.983,0.756,6.983,5.111v9.575c0,1.44,0,2.088,0.972,2.088
			c0.288,0,0.612-0.072,0.936-0.18V306.205z M282.562,296.666c-2.375,1.764-9.287,0.036-9.287,4.607
			c0,2.016,1.728,2.736,3.599,2.736c4.032,0,5.688-2.484,5.688-4.211V296.666z"/>
		<path fill="#333333" d="M307.005,306.277h-3.06v-2.52h-0.072c-1.008,2.052-3.348,2.952-5.939,2.952
			c-5.723,0-8.567-4.536-8.567-9.791s2.808-9.683,8.495-9.683c1.872,0,4.68,0.72,6.012,2.916h0.072v-9.575h3.06V306.277z
			 M298.367,304.009c4.139,0,5.687-3.563,5.687-7.019c0-3.636-1.656-7.055-5.867-7.055c-4.175,0-5.579,3.563-5.579,7.199
			C292.607,300.625,294.407,304.009,298.367,304.009z"/>
		<path fill="#333333" d="M319.03,308.761c-1.44,3.599-2.664,4.967-5.399,4.967c-0.72,0-1.44-0.072-2.124-0.324v-2.808
			c0.576,0.18,1.188,0.432,1.8,0.432c1.26,0,1.943-0.576,2.52-1.692l1.26-3.167l-7.379-18.502h3.456l5.435,15.226h0.072
			l5.219-15.226h3.24L319.03,308.761z"/>
		<path fill="#333333" d="M340.991,290.367h-3.131v-2.7h3.131v-2.771c0-3.023,1.8-4.607,5.147-4.607
			c0.576,0,1.404,0.108,1.979,0.288v2.664c-0.54-0.18-1.188-0.252-1.728-0.252c-1.476,0-2.34,0.468-2.34,2.088v2.591h3.6v2.7h-3.6
			v15.91h-3.06V290.367z"/>
		<path fill="#333333" d="M358.414,287.235c5.903,0,9.035,4.283,9.035,9.755c0,5.435-3.132,9.719-9.035,9.719
			s-9.035-4.284-9.035-9.719C349.379,291.519,352.51,287.235,358.414,287.235z M358.414,304.009c3.204,0,5.795-2.52,5.795-7.019
			c0-4.5-2.592-7.055-5.795-7.055s-5.795,2.556-5.795,7.055C352.619,301.489,355.21,304.009,358.414,304.009z"/>
		<path fill="#333333" d="M370.942,287.667h2.879v3.924h0.072c1.476-3.024,3.527-4.463,6.839-4.355v3.239
			c-4.931,0-6.731,2.772-6.731,7.523v8.279h-3.06V287.667z"/>
		<path fill="#333333" d="M409.676,306.277h-3.06v-2.52h-0.072c-1.008,2.052-3.348,2.952-5.939,2.952
			c-5.723,0-8.567-4.536-8.567-9.791s2.808-9.683,8.495-9.683c1.872,0,4.679,0.72,6.011,2.916h0.072v-9.575h3.06V306.277z
			 M401.037,304.009c4.139,0,5.687-3.563,5.687-7.019c0-3.636-1.656-7.055-5.867-7.055c-4.175,0-5.579,3.563-5.579,7.199
			C395.278,300.625,397.077,304.009,401.037,304.009z"/>
		<path fill="#333333" d="M430.268,300.374c-0.828,4.14-3.744,6.335-7.955,6.335c-5.939,0-8.747-4.14-8.927-9.791
			c0-5.615,3.671-9.683,8.747-9.683c6.587,0,8.603,6.155,8.423,10.655h-13.93c-0.108,3.239,1.728,6.119,5.795,6.119
			c2.556,0,4.284-1.188,4.824-3.636H430.268z M427.316,295.19c-0.18-2.916-2.304-5.255-5.363-5.255
			c-3.167,0-5.147,2.375-5.327,5.255H427.316z"/>
		<path fill="#333333" d="M433.833,287.667h3.06v2.52h0.072c1.008-2.052,3.348-2.952,5.939-2.952c5.724,0,8.567,4.535,8.567,9.791
			c0,5.292-2.808,9.683-8.495,9.683c-1.872,0-4.68-0.72-6.011-2.916h-0.072v9.611h-3.06V287.667z M442.472,289.935
			c-4.14,0-5.688,3.563-5.688,7.019c0,3.635,1.656,7.055,5.867,7.055c4.176,0,5.58-3.563,5.58-7.199
			C448.231,293.318,446.432,289.935,442.472,289.935z"/>
		<path fill="#333333" d="M455.253,280.576h3.06v25.701h-3.06V280.576z"/>
		<path fill="#333333" d="M471.091,287.235c5.903,0,9.035,4.283,9.035,9.755c0,5.435-3.132,9.719-9.035,9.719
			s-9.035-4.284-9.035-9.719C462.057,291.519,465.188,287.235,471.091,287.235z M471.091,304.009c3.204,0,5.795-2.52,5.795-7.019
			c0-4.5-2.592-7.055-5.795-7.055s-5.795,2.556-5.795,7.055C465.296,301.489,467.888,304.009,471.091,304.009z"/>
		<path fill="#333333" d="M491.035,308.761c-1.44,3.599-2.664,4.967-5.399,4.967c-0.72,0-1.44-0.072-2.124-0.324v-2.808
			c0.576,0.18,1.188,0.432,1.8,0.432c1.26,0,1.943-0.576,2.52-1.692l1.26-3.167l-7.379-18.502h3.456l5.435,15.226h0.072
			l5.219-15.226h3.24L491.035,308.761z"/>
		<path fill="#333333" d="M504.968,284.32h-3.06v-3.744h3.06V284.32z M501.908,287.667h3.06v18.61h-3.06V287.667z"/>
		<path fill="#333333" d="M509.72,287.667h2.88v2.952h0.072c1.296-2.304,3.348-3.383,6.047-3.383c4.895,0,6.407,2.808,6.407,6.803
			v12.238h-3.06v-12.599c0-2.304-1.44-3.743-3.78-3.743c-3.708,0-5.507,2.483-5.507,5.831v10.511h-3.06V287.667z"/>
		<path fill="#333333" d="M545.79,304.693c0,6.083-2.736,9.143-8.639,9.143c-3.492,0-7.523-1.44-7.703-5.471h3.06
			c0.108,2.196,2.844,3.023,4.824,3.023c3.995,0,5.579-2.879,5.579-7.055v-1.224h-0.072c-1.044,2.268-3.42,3.383-5.795,3.383
			c-5.543,0-8.315-4.355-8.315-9.431c0-4.392,2.124-9.827,8.603-9.827c2.339,0,4.427,1.044,5.543,3.096h0.036v-2.664h2.88V304.693z
			 M542.766,296.594c0-3.276-1.44-6.659-5.291-6.659c-3.924,0-5.507,3.204-5.507,6.767c0,3.348,1.224,7.091,5.255,7.091
			C541.254,303.793,542.766,300.085,542.766,296.594z"/>
		<path fill="#333333" d="M69.304,330.867h3.708v2.7h-3.708v11.555c0,1.439,0.396,1.656,2.304,1.656h1.404v2.699h-2.34
			c-3.167,0-4.427-0.647-4.427-4.067v-11.843h-3.168v-2.7h3.168v-5.579h3.06V330.867z"/>
		<path fill="#333333" d="M84.422,330.435c5.903,0,9.035,4.283,9.035,9.754c0,5.436-3.132,9.719-9.035,9.719
			s-9.035-4.283-9.035-9.719C75.388,334.718,78.519,330.435,84.422,330.435z M84.422,347.209c3.204,0,5.795-2.52,5.795-7.02
			c0-4.499-2.592-7.055-5.795-7.055s-5.795,2.556-5.795,7.055C78.627,344.689,81.219,347.209,84.422,347.209z"/>
		<path fill="#333333" d="M111.314,330.867h3.708v2.7h-3.708v11.555c0,1.439,0.396,1.656,2.304,1.656h1.404v2.699h-2.34
			c-3.167,0-4.427-0.647-4.427-4.067v-11.843h-3.168v-2.7h3.168v-5.579h3.06V330.867z"/>
		<path fill="#333333" d="M118.406,323.776h3.06v9.827h0.072c0.972-2.268,3.671-3.167,5.867-3.167c4.895,0,6.407,2.808,6.407,6.803
			v12.238h-3.06v-12.599c0-2.304-1.44-3.743-3.78-3.743c-3.708,0-5.507,2.483-5.507,5.831v10.511h-3.06V323.776z"/>
		<path fill="#333333" d="M154.296,343.573c-0.828,4.14-3.744,6.335-7.955,6.335c-5.939,0-8.747-4.14-8.927-9.79
			c0-5.616,3.671-9.683,8.747-9.683c6.587,0,8.603,6.155,8.423,10.655h-13.93c-0.108,3.239,1.728,6.119,5.795,6.119
			c2.556,0,4.284-1.188,4.824-3.636H154.296z M151.345,338.39c-0.18-2.916-2.304-5.255-5.363-5.255
			c-3.167,0-5.147,2.375-5.327,5.255H151.345z"/>
		<path fill="#333333" d="M167.87,330.867h3.06v2.52h0.072c1.008-2.052,3.348-2.952,5.939-2.952c5.724,0,8.567,4.535,8.567,9.791
			c0,5.291-2.808,9.683-8.495,9.683c-1.872,0-4.68-0.72-6.011-2.915h-0.072v9.61h-3.06V330.867z M176.509,333.135
			c-4.14,0-5.688,3.563-5.688,7.019c0,3.636,1.656,7.056,5.867,7.056c4.176,0,5.58-3.563,5.58-7.199
			C182.268,336.518,180.468,333.135,176.509,333.135z"/>
		<path fill="#333333" d="M189.001,330.867h2.879v3.924h0.072c1.476-3.024,3.527-4.463,6.839-4.355v3.239
			c-4.931,0-6.731,2.772-6.731,7.523v8.279h-3.06V330.867z"/>
		<path fill="#333333" d="M216.971,343.573c-0.828,4.14-3.744,6.335-7.955,6.335c-5.939,0-8.747-4.14-8.927-9.79
			c0-5.616,3.671-9.683,8.747-9.683c6.587,0,8.603,6.155,8.423,10.655h-13.93c-0.108,3.239,1.728,6.119,5.795,6.119
			c2.556,0,4.284-1.188,4.824-3.636H216.971z M214.02,338.39c-0.18-2.916-2.304-5.255-5.363-5.255c-3.167,0-5.147,2.375-5.327,5.255
			H214.02z"/>
		<path fill="#333333" d="M219.925,338.03h10.403v2.879h-10.403V338.03z"/>
		<path fill="#333333" d="M234.541,330.867h3.06v2.52h0.072c1.008-2.052,3.348-2.952,5.939-2.952c5.724,0,8.567,4.535,8.567,9.791
			c0,5.291-2.808,9.683-8.495,9.683c-1.872,0-4.68-0.72-6.011-2.915H237.6v9.61h-3.06V330.867z M243.18,333.135
			c-4.14,0-5.688,3.563-5.688,7.019c0,3.636,1.656,7.056,5.867,7.056c4.176,0,5.58-3.563,5.58-7.199
			C248.939,336.518,247.139,333.135,243.18,333.135z"/>
		<path fill="#333333" d="M255.672,330.867h2.879v3.924h0.072c1.476-3.024,3.527-4.463,6.839-4.355v3.239
			c-4.931,0-6.731,2.772-6.731,7.523v8.279h-3.06V330.867z"/>
		<path fill="#333333" d="M275.795,330.435c5.903,0,9.035,4.283,9.035,9.754c0,5.436-3.132,9.719-9.035,9.719
			s-9.035-4.283-9.035-9.719C266.76,334.718,269.892,330.435,275.795,330.435z M275.795,347.209c3.204,0,5.795-2.52,5.795-7.02
			c0-4.499-2.592-7.055-5.795-7.055S270,335.69,270,340.189C270,344.689,272.591,347.209,275.795,347.209z"/>
		<path fill="#333333" d="M305.062,349.477h-3.06v-2.52h-0.072c-1.008,2.052-3.348,2.951-5.939,2.951
			c-5.723,0-8.567-4.535-8.567-9.79c0-5.256,2.808-9.683,8.495-9.683c1.872,0,4.679,0.72,6.011,2.916h0.072v-9.575h3.06V349.477z
			 M296.423,347.209c4.139,0,5.687-3.563,5.687-7.02c0-3.635-1.656-7.055-5.867-7.055c-4.175,0-5.579,3.563-5.579,7.199
			C290.664,343.825,292.463,347.209,296.423,347.209z"/>
		<path fill="#333333" d="M325.186,349.477h-2.88v-2.951h-0.072c-1.296,2.304-3.348,3.383-6.047,3.383
			c-4.896,0-6.407-2.808-6.407-6.803v-12.239h3.06v12.598c0,2.304,1.44,3.744,3.78,3.744c3.708,0,5.507-2.483,5.507-5.831v-10.511
			h3.06V349.477z"/>
		<path fill="#333333" d="M342.43,336.842c-0.468-2.34-2.052-3.708-4.607-3.708c-4.427,0-5.795,3.527-5.795,7.271
			c0,3.456,1.547,6.804,5.435,6.804c2.988,0,4.715-1.692,5.111-4.535h3.132c-0.684,4.571-3.492,7.234-8.207,7.234
			c-5.688,0-8.711-3.923-8.711-9.503c0-5.579,2.879-9.97,8.783-9.97c4.248,0,7.559,1.979,8.027,6.407H342.43z"/>
		<path fill="#333333" d="M353.375,330.867h3.708v2.7h-3.708v11.555c0,1.439,0.396,1.656,2.304,1.656h1.404v2.699h-2.34
			c-3.167,0-4.427-0.647-4.427-4.067v-11.843h-3.168v-2.7h3.168v-5.579h3.06V330.867z"/>
		<path fill="#333333" d="M363.706,327.52h-3.06v-3.744h3.06V327.52z M360.646,330.867h3.06v18.61h-3.06V330.867z"/>
		<path fill="#333333" d="M376.485,330.435c5.903,0,9.035,4.283,9.035,9.754c0,5.436-3.132,9.719-9.035,9.719
			s-9.035-4.283-9.035-9.719C367.45,334.718,370.582,330.435,376.485,330.435z M376.485,347.209c3.204,0,5.795-2.52,5.795-7.02
			c0-4.499-2.592-7.055-5.795-7.055s-5.795,2.556-5.795,7.055C370.69,344.689,373.281,347.209,376.485,347.209z"/>
		<path fill="#333333" d="M389.122,330.867h2.879v2.952h0.072c1.296-2.304,3.348-3.383,6.047-3.383c4.895,0,6.407,2.808,6.407,6.803
			v12.238h-3.06v-12.599c0-2.304-1.44-3.743-3.78-3.743c-3.708,0-5.507,2.483-5.507,5.831v10.511h-3.06V330.867z"/>
		<path fill="#333333" d="M435.02,343.573c-0.828,4.14-3.744,6.335-7.955,6.335c-5.939,0-8.747-4.14-8.927-9.79
			c0-5.616,3.671-9.683,8.747-9.683c6.587,0,8.603,6.155,8.423,10.655h-13.93c-0.108,3.239,1.728,6.119,5.795,6.119
			c2.556,0,4.284-1.188,4.824-3.636H435.02z M432.068,338.39c-0.18-2.916-2.304-5.255-5.363-5.255c-3.167,0-5.147,2.375-5.327,5.255
			H432.068z"/>
		<path fill="#333333" d="M438.477,330.867h2.879v2.952h0.072c1.296-2.304,3.348-3.383,6.047-3.383c4.895,0,6.407,2.808,6.407,6.803
			v12.238h-3.06v-12.599c0-2.304-1.44-3.743-3.78-3.743c-3.708,0-5.507,2.483-5.507,5.831v10.511h-3.06V330.867z"/>
		<path fill="#333333" d="M466.88,349.477h-3.275l-6.911-18.61h3.419l5.22,15.514h0.072l5.075-15.514h3.204L466.88,349.477z"/>
		<path fill="#333333" d="M479.733,327.52h-3.06v-3.744h3.06V327.52z M476.673,330.867h3.06v18.61h-3.06V330.867z"/>
		<path fill="#333333" d="M484.376,330.867h2.879v3.924h0.072c1.476-3.024,3.527-4.463,6.839-4.355v3.239
			c-4.931,0-6.731,2.772-6.731,7.523v8.279h-3.06V330.867z"/>
		<path fill="#333333" d="M504.499,330.435c5.903,0,9.035,4.283,9.035,9.754c0,5.436-3.132,9.719-9.035,9.719
			s-9.035-4.283-9.035-9.719C495.464,334.718,498.596,330.435,504.499,330.435z M504.499,347.209c3.204,0,5.795-2.52,5.795-7.02
			c0-4.499-2.592-7.055-5.795-7.055s-5.795,2.556-5.795,7.055C498.704,344.689,501.295,347.209,504.499,347.209z"/>
		<path fill="#333333" d="M517.136,330.867h2.88v2.952h0.072c1.296-2.304,3.348-3.383,6.047-3.383c4.895,0,6.407,2.808,6.407,6.803
			v12.238h-3.06v-12.599c0-2.304-1.44-3.743-3.78-3.743c-3.708,0-5.507,2.483-5.507,5.831v10.511h-3.06V330.867z"/>
		<path fill="#333333" d="M537.152,330.867h2.879v2.736h0.072c1.404-2.124,3.384-3.167,6.011-3.167c2.304,0,4.355,0.864,5.111,3.167
			c1.26-2.016,3.419-3.167,5.831-3.167c3.708,0,6.191,1.548,6.191,5.399v13.642h-3.06v-12.203c0-2.304-0.612-4.139-3.6-4.139
			s-4.859,1.872-4.859,4.751v11.59h-3.06v-12.203c0-2.412-0.756-4.139-3.492-4.139c-3.6,0-4.967,3.312-4.967,4.751v11.59h-3.06
			V330.867z"/>
		<path fill="#333333" d="M583.734,343.573c-0.828,4.14-3.744,6.335-7.955,6.335c-5.939,0-8.747-4.14-8.927-9.79
			c0-5.616,3.671-9.683,8.747-9.683c6.587,0,8.603,6.155,8.423,10.655h-13.93c-0.108,3.239,1.728,6.119,5.795,6.119
			c2.556,0,4.284-1.188,4.824-3.636H583.734z M580.782,338.39c-0.18-2.916-2.304-5.255-5.363-5.255
			c-3.167,0-5.147,2.375-5.327,5.255H580.782z"/>
		<path fill="#333333" d="M587.191,330.867h2.88v2.952h0.072c1.296-2.304,3.348-3.383,6.047-3.383c4.895,0,6.407,2.808,6.407,6.803
			v12.238h-3.06v-12.599c0-2.304-1.44-3.743-3.78-3.743c-3.708,0-5.507,2.483-5.507,5.831v10.511h-3.06V330.867z"/>
		<path fill="#333333" d="M611.455,330.867h3.708v2.7h-3.708v11.555c0,1.439,0.396,1.656,2.304,1.656h1.404v2.699h-2.34
			c-3.167,0-4.427-0.647-4.427-4.067v-11.843h-3.168v-2.7h3.168v-5.579h3.06V330.867z"/>
		<path fill="#333333" d="M68.296,370.72h-3.06v-3.744h3.06V370.72z M65.236,374.067h3.06v18.609h-3.06V374.067z"/>
		<path fill="#333333" d="M73.048,374.067h2.88v2.951H76c1.296-2.304,3.348-3.384,6.047-3.384c4.895,0,6.407,2.808,6.407,6.804
			v12.238h-3.06v-12.599c0-2.304-1.44-3.743-3.78-3.743c-3.708,0-5.507,2.483-5.507,5.831v10.511h-3.06V374.067z"/>
		<path fill="#333333" d="M105.698,380.042c-0.468-2.34-2.052-3.707-4.607-3.707c-4.427,0-5.795,3.527-5.795,7.271
			c0,3.456,1.547,6.804,5.435,6.804c2.988,0,4.715-1.692,5.111-4.535h3.132c-0.684,4.571-3.492,7.234-8.207,7.234
			c-5.688,0-8.711-3.923-8.711-9.503c0-5.579,2.879-9.971,8.783-9.971c4.248,0,7.559,1.98,8.027,6.407H105.698z"/>
		<path fill="#333333" d="M112.576,366.976h3.06v25.701h-3.06V366.976z"/>
		<path fill="#333333" d="M135.793,392.677h-2.88v-2.951h-0.072c-1.296,2.304-3.348,3.383-6.047,3.383
			c-4.896,0-6.407-2.808-6.407-6.803v-12.238h3.06v12.598c0,2.304,1.44,3.744,3.78,3.744c3.708,0,5.507-2.483,5.507-5.831v-10.511
			h3.06V392.677z"/>
		<path fill="#333333" d="M157.033,392.677h-3.06v-2.52h-0.072c-1.008,2.052-3.348,2.951-5.939,2.951
			c-5.723,0-8.567-4.535-8.567-9.79c0-5.256,2.808-9.684,8.495-9.684c1.872,0,4.68,0.721,6.012,2.916h0.072v-9.575h3.06V392.677z
			 M148.394,390.409c4.139,0,5.687-3.563,5.687-7.02c0-3.636-1.656-7.055-5.867-7.055c-4.175,0-5.579,3.563-5.579,7.199
			C142.635,387.025,144.435,390.409,148.394,390.409z"/>
		<path fill="#333333" d="M164.99,370.72h-3.06v-3.744h3.06V370.72z M161.931,374.067h3.06v18.609h-3.06V374.067z"/>
		<path fill="#333333" d="M169.742,374.067h2.88v2.951h0.072c1.296-2.304,3.348-3.384,6.047-3.384c4.895,0,6.407,2.808,6.407,6.804
			v12.238h-3.06v-12.599c0-2.304-1.44-3.743-3.78-3.743c-3.708,0-5.507,2.483-5.507,5.831v10.511h-3.06V374.067z"/>
		<path fill="#333333" d="M205.812,391.093c0,6.083-2.736,9.143-8.639,9.143c-3.492,0-7.523-1.439-7.703-5.471h3.06
			c0.108,2.195,2.844,3.023,4.824,3.023c3.995,0,5.579-2.88,5.579-7.055v-1.225h-0.072c-1.044,2.269-3.42,3.384-5.795,3.384
			c-5.543,0-8.315-4.355-8.315-9.431c0-4.392,2.124-9.827,8.603-9.827c2.339,0,4.427,1.044,5.543,3.096h0.036v-2.663h2.88V391.093z
			 M202.789,382.994c0-3.275-1.44-6.659-5.291-6.659c-3.924,0-5.507,3.203-5.507,6.767c0,3.348,1.224,7.092,5.255,7.092
			C201.277,390.193,202.789,386.485,202.789,382.994z"/>
		<path fill="#333333" d="M220.322,374.067h2.879v3.923h0.072c1.476-3.023,3.527-4.463,6.839-4.355v3.24
			c-4.931,0-6.731,2.771-6.731,7.522v8.279h-3.06V374.067z"/>
		<path fill="#333333" d="M248.292,386.773c-0.828,4.14-3.744,6.335-7.955,6.335c-5.939,0-8.747-4.14-8.927-9.79
			c0-5.616,3.671-9.684,8.747-9.684c6.587,0,8.603,6.155,8.423,10.655h-13.93c-0.108,3.239,1.728,6.119,5.795,6.119
			c2.556,0,4.284-1.188,4.824-3.636H248.292z M245.34,381.59c-0.18-2.915-2.304-5.255-5.363-5.255c-3.167,0-5.147,2.376-5.327,5.255
			H245.34z"/>
		<path fill="#333333" d="M260.136,392.677h-3.275l-6.911-18.609h3.419l5.22,15.514h0.072l5.075-15.514h3.204L260.136,392.677z"/>
		<path fill="#333333" d="M272.989,370.72h-3.06v-3.744h3.06V370.72z M269.929,374.067h3.06v18.609h-3.06V374.067z"/>
		<path fill="#333333" d="M293.614,386.773c-0.828,4.14-3.744,6.335-7.955,6.335c-5.939,0-8.747-4.14-8.927-9.79
			c0-5.616,3.671-9.684,8.747-9.684c6.587,0,8.603,6.155,8.423,10.655h-13.93c-0.108,3.239,1.728,6.119,5.795,6.119
			c2.556,0,4.284-1.188,4.824-3.636H293.614z M290.663,381.59c-0.18-2.915-2.304-5.255-5.363-5.255
			c-3.167,0-5.147,2.376-5.327,5.255H290.663z"/>
		<path fill="#333333" d="M315.501,392.677h-3.24l-3.779-14.794h-0.072l-3.743,14.794h-3.312l-5.976-18.609h3.384l4.211,15.226
			h0.072l3.744-15.226h3.348l3.888,15.226h0.072l4.175-15.226h3.168L315.501,392.677z"/>
		<path fill="#333333" d="M327.599,370.72h-3.06v-3.744h3.06V370.72z M324.54,374.067h3.06v18.609h-3.06V374.067z"/>
		<path fill="#333333" d="M332.351,374.067h2.88v2.951h0.072c1.296-2.304,3.348-3.384,6.047-3.384c4.895,0,6.407,2.808,6.407,6.804
			v12.238h-3.06v-12.599c0-2.304-1.44-3.743-3.78-3.743c-3.708,0-5.507,2.483-5.507,5.831v10.511h-3.06V374.067z"/>
		<path fill="#333333" d="M368.421,391.093c0,6.083-2.736,9.143-8.639,9.143c-3.492,0-7.523-1.439-7.703-5.471h3.06
			c0.108,2.195,2.844,3.023,4.824,3.023c3.995,0,5.579-2.88,5.579-7.055v-1.225h-0.072c-1.044,2.269-3.42,3.384-5.795,3.384
			c-5.543,0-8.315-4.355-8.315-9.431c0-4.392,2.124-9.827,8.603-9.827c2.339,0,4.427,1.044,5.543,3.096h0.036v-2.663h2.88V391.093z
			 M365.397,382.994c0-3.275-1.44-6.659-5.291-6.659c-3.924,0-5.507,3.203-5.507,6.767c0,3.348,1.224,7.092,5.255,7.092
			C363.885,390.193,365.397,386.485,365.397,382.994z"/>
		<path fill="#333333" d="M387.286,374.067h3.708v2.699h-3.708v11.555c0,1.439,0.396,1.656,2.304,1.656h1.404v2.699h-2.34
			c-3.167,0-4.427-0.647-4.427-4.067v-11.843h-3.168v-2.699h3.168v-5.58h3.06V374.067z"/>
		<path fill="#333333" d="M394.377,366.976h3.06v9.827h0.072c0.972-2.268,3.671-3.168,5.867-3.168c4.895,0,6.407,2.808,6.407,6.804
			v12.238h-3.06v-12.599c0-2.304-1.44-3.743-3.78-3.743c-3.708,0-5.507,2.483-5.507,5.831v10.511h-3.06V366.976z"/>
		<path fill="#333333" d="M430.268,386.773c-0.828,4.14-3.744,6.335-7.955,6.335c-5.939,0-8.747-4.14-8.927-9.79
			c0-5.616,3.671-9.684,8.747-9.684c6.587,0,8.603,6.155,8.423,10.655h-13.93c-0.108,3.239,1.728,6.119,5.795,6.119
			c2.556,0,4.284-1.188,4.824-3.636H430.268z M427.316,381.59c-0.18-2.915-2.304-5.255-5.363-5.255
			c-3.167,0-5.147,2.376-5.327,5.255H427.316z"/>
		<path fill="#333333" d="M454.352,392.677h-3.888l-9.071-25.701h3.708l7.343,22.281h0.072l7.415-22.281h3.564L454.352,392.677z"/>
		<path fill="#333333" d="M481.603,386.773c-0.828,4.14-3.744,6.335-7.955,6.335c-5.939,0-8.747-4.14-8.927-9.79
			c0-5.616,3.671-9.684,8.747-9.684c6.587,0,8.603,6.155,8.423,10.655h-13.93c-0.108,3.239,1.728,6.119,5.795,6.119
			c2.556,0,4.284-1.188,4.824-3.636H481.603z M478.651,381.59c-0.18-2.915-2.304-5.255-5.363-5.255
			c-3.167,0-5.147,2.376-5.327,5.255H478.651z"/>
		<path fill="#333333" d="M484.952,374.067h2.879v3.923h0.072c1.476-3.023,3.527-4.463,6.839-4.355v3.24
			c-4.931,0-6.731,2.771-6.731,7.522v8.279h-3.06V374.067z"/>
		<path fill="#333333" d="M500.288,370.72h-3.06v-3.744h3.06V370.72z M497.228,374.067h3.06v18.609h-3.06V374.067z"/>
		<path fill="#333333" d="M506.299,376.767h-3.131v-2.699h3.131v-2.771c0-3.024,1.8-4.607,5.147-4.607
			c0.576,0,1.404,0.107,1.979,0.287v2.664c-0.54-0.18-1.188-0.252-1.728-0.252c-1.476,0-2.34,0.468-2.34,2.088v2.592h3.6v2.699h-3.6
			v15.91h-3.06V376.767z M515.874,370.72v-3.744h3.06v3.744H515.874z M515.874,392.677v-18.609h3.06v18.609H515.874z"/>
		<path fill="#333333" d="M536.321,380.042c-0.468-2.34-2.052-3.707-4.607-3.707c-4.427,0-5.795,3.527-5.795,7.271
			c0,3.456,1.547,6.804,5.435,6.804c2.988,0,4.715-1.692,5.111-4.535h3.132c-0.684,4.571-3.492,7.234-8.207,7.234
			c-5.688,0-8.711-3.923-8.711-9.503c0-5.579,2.879-9.971,8.783-9.971c4.248,0,7.559,1.98,8.027,6.407H536.321z"/>
		<path fill="#333333" d="M559.504,392.604c-0.54,0.324-1.296,0.504-2.196,0.504c-1.583,0-2.591-0.863-2.591-2.879
			c-1.692,2.016-3.959,2.879-6.551,2.879c-3.384,0-6.155-1.476-6.155-5.219c0-4.212,3.131-5.147,6.299-5.724
			c3.348-0.684,6.263-0.396,6.263-2.735c0-2.7-2.232-3.096-4.14-3.096c-2.592,0-4.5,0.792-4.644,3.527h-3.06
			c0.18-4.607,3.708-6.228,7.883-6.228c3.348,0,6.983,0.756,6.983,5.111v9.575c0,1.439,0,2.088,0.972,2.088
			c0.288,0,0.612-0.072,0.936-0.18V392.604z M554.537,383.066c-2.375,1.764-9.287,0.035-9.287,4.607
			c0,2.016,1.728,2.735,3.599,2.735c4.032,0,5.688-2.483,5.688-4.212V383.066z"/>
		<path fill="#333333" d="M566.597,374.067h3.708v2.699h-3.708v11.555c0,1.439,0.396,1.656,2.304,1.656h1.404v2.699h-2.34
			c-3.167,0-4.427-0.647-4.427-4.067v-11.843h-3.168v-2.699h3.168v-5.58h3.06V374.067z"/>
		<path fill="#333333" d="M576.929,370.72h-3.06v-3.744h3.06V370.72z M573.869,374.067h3.06v18.609h-3.06V374.067z"/>
		<path fill="#333333" d="M589.708,373.635c5.903,0,9.035,4.284,9.035,9.755c0,5.436-3.132,9.719-9.035,9.719
			s-9.035-4.283-9.035-9.719C580.673,377.919,583.804,373.635,589.708,373.635z M589.708,390.409c3.204,0,5.795-2.52,5.795-7.02
			c0-4.499-2.592-7.055-5.795-7.055s-5.795,2.556-5.795,7.055C583.913,387.89,586.504,390.409,589.708,390.409z"/>
		<path fill="#333333" d="M602.344,374.067h2.879v2.951h0.072c1.296-2.304,3.348-3.384,6.047-3.384c4.895,0,6.407,2.808,6.407,6.804
			v12.238h-3.06v-12.599c0-2.304-1.44-3.743-3.78-3.743c-3.708,0-5.507,2.483-5.507,5.831v10.511h-3.06V374.067z"/>
		<path fill="#333333" d="M81.542,435.805c-0.54,0.324-1.296,0.504-2.196,0.504c-1.583,0-2.591-0.863-2.591-2.879
			c-1.692,2.016-3.959,2.879-6.551,2.879c-3.384,0-6.155-1.476-6.155-5.219c0-4.212,3.131-5.147,6.299-5.724
			c3.348-0.684,6.263-0.396,6.263-2.735c0-2.7-2.232-3.096-4.14-3.096c-2.592,0-4.5,0.792-4.644,3.527h-3.06
			c0.18-4.607,3.708-6.228,7.883-6.228c3.348,0,6.983,0.756,6.983,5.111v9.575c0,1.439,0,2.088,0.972,2.088
			c0.288,0,0.612-0.072,0.936-0.18V435.805z M76.575,426.267c-2.375,1.764-9.287,0.035-9.287,4.607c0,2.016,1.728,2.735,3.599,2.735
			c4.032,0,5.688-2.483,5.688-4.212V426.267z"/>
		<path fill="#333333" d="M84.388,417.268h2.88v2.951h0.072c1.296-2.304,3.348-3.384,6.047-3.384c4.895,0,6.407,2.808,6.407,6.804
			v12.238h-3.06v-12.599c0-2.304-1.44-3.743-3.78-3.743c-3.708,0-5.507,2.483-5.507,5.831v10.511h-3.06V417.268z"/>
		<path fill="#333333" d="M121.034,435.877h-3.06v-2.52h-0.072c-1.008,2.052-3.348,2.951-5.939,2.951
			c-5.723,0-8.567-4.535-8.567-9.79c0-5.256,2.808-9.684,8.495-9.684c1.872,0,4.68,0.721,6.012,2.916h0.072v-9.575h3.06V435.877z
			 M112.395,433.609c4.139,0,5.687-3.563,5.687-7.02c0-3.636-1.656-7.055-5.867-7.055c-4.175,0-5.579,3.563-5.579,7.199
			C106.636,430.226,108.436,433.609,112.395,433.609z"/>
		<path fill="#333333" d="M146.378,435.877h-3.888l-9.071-25.701h3.708l7.343,22.281h0.072l7.415-22.281h3.564L146.378,435.877z"/>
		<path fill="#333333" d="M174.241,435.805c-0.54,0.324-1.296,0.504-2.196,0.504c-1.583,0-2.591-0.863-2.591-2.879
			c-1.692,2.016-3.959,2.879-6.551,2.879c-3.384,0-6.155-1.476-6.155-5.219c0-4.212,3.131-5.147,6.299-5.724
			c3.347-0.684,6.263-0.396,6.263-2.735c0-2.7-2.232-3.096-4.14-3.096c-2.592,0-4.5,0.792-4.644,3.527h-3.06
			c0.18-4.607,3.708-6.228,7.883-6.228c3.347,0,6.983,0.756,6.983,5.111v9.575c0,1.439,0,2.088,0.972,2.088
			c0.288,0,0.612-0.072,0.936-0.18V435.805z M169.273,426.267c-2.375,1.764-9.287,0.035-9.287,4.607
			c0,2.016,1.728,2.735,3.599,2.735c4.032,0,5.688-2.483,5.688-4.212V426.267z"/>
		<path fill="#333333" d="M177.267,410.176h3.06v25.701h-3.06V410.176z"/>
		<path fill="#333333" d="M188.318,413.92h-3.06v-3.744h3.06V413.92z M185.258,417.268h3.06v18.609h-3.06V417.268z"/>
		<path fill="#333333" d="M209.699,435.877h-3.06v-2.52h-0.072c-1.008,2.052-3.348,2.951-5.939,2.951
			c-5.723,0-8.567-4.535-8.567-9.79c0-5.256,2.808-9.684,8.495-9.684c1.872,0,4.679,0.721,6.011,2.916h0.072v-9.575h3.06V435.877z
			 M201.061,433.609c4.139,0,5.687-3.563,5.687-7.02c0-3.636-1.656-7.055-5.867-7.055c-4.175,0-5.579,3.563-5.579,7.199
			C195.301,430.226,197.101,433.609,201.061,433.609z"/>
		<path fill="#333333" d="M230.903,435.805c-0.54,0.324-1.296,0.504-2.196,0.504c-1.583,0-2.591-0.863-2.591-2.879
			c-1.692,2.016-3.959,2.879-6.551,2.879c-3.384,0-6.155-1.476-6.155-5.219c0-4.212,3.131-5.147,6.299-5.724
			c3.347-0.684,6.263-0.396,6.263-2.735c0-2.7-2.232-3.096-4.14-3.096c-2.592,0-4.5,0.792-4.644,3.527h-3.06
			c0.18-4.607,3.708-6.228,7.883-6.228c3.347,0,6.983,0.756,6.983,5.111v9.575c0,1.439,0,2.088,0.972,2.088
			c0.288,0,0.612-0.072,0.936-0.18V435.805z M225.936,426.267c-2.375,1.764-9.287,0.035-9.287,4.607
			c0,2.016,1.728,2.735,3.599,2.735c4.032,0,5.688-2.483,5.688-4.212V426.267z"/>
		<path fill="#333333" d="M237.996,417.268h3.708v2.699h-3.708v11.555c0,1.439,0.396,1.656,2.304,1.656h1.404v2.699h-2.34
			c-3.167,0-4.427-0.647-4.427-4.067v-11.843h-3.168v-2.699h3.168v-5.579h3.06V417.268z"/>
		<path fill="#333333" d="M248.328,413.92h-3.06v-3.744h3.06V413.92z M245.268,417.268h3.06v18.609h-3.06V417.268z"/>
		<path fill="#333333" d="M261.106,416.835c5.903,0,9.035,4.284,9.035,9.755c0,5.436-3.132,9.719-9.035,9.719
			s-9.035-4.283-9.035-9.719C252.071,421.119,255.203,416.835,261.106,416.835z M261.106,433.609c3.204,0,5.795-2.52,5.795-7.02
			c0-4.499-2.592-7.055-5.795-7.055s-5.795,2.556-5.795,7.055C255.311,431.09,257.902,433.609,261.106,433.609z"/>
		<path fill="#333333" d="M273.743,417.268h2.879v2.951h0.072c1.296-2.304,3.348-3.384,6.047-3.384c4.895,0,6.407,2.808,6.407,6.804
			v12.238h-3.06v-12.599c0-2.304-1.44-3.743-3.78-3.743c-3.708,0-5.507,2.483-5.507,5.831v10.511h-3.06V417.268z"/>
		<path fill="#333333" d="M319.137,417.699c-0.396-3.708-2.808-5.255-6.371-5.255c-2.916,0-5.759,1.043-5.759,4.391
			c0,6.336,16.45,1.872,16.45,11.987c0,5.471-5.363,7.667-10.042,7.667c-5.759,0-10.619-2.844-10.619-9.071h3.239
			c0,4.319,3.6,6.191,7.487,6.191c3.096,0,6.515-0.972,6.515-4.68c0-7.055-16.45-2.411-16.45-11.843
			c0-5.183,4.607-7.522,9.323-7.522c5.255,0,9.287,2.483,9.467,8.135H319.137z"/>
		<path fill="#333333" d="M342.5,435.877h-2.88v-2.951h-0.072c-1.296,2.304-3.348,3.383-6.047,3.383
			c-4.896,0-6.407-2.808-6.407-6.803v-12.238h3.06v12.598c0,2.304,1.44,3.744,3.78,3.744c3.708,0,5.507-2.483,5.507-5.831v-10.511
			h3.06V435.877z"/>
		<path fill="#333333" d="M347.11,417.268h2.88v2.735h0.072c1.404-2.124,3.383-3.168,6.011-3.168c2.304,0,4.355,0.864,5.111,3.168
			c1.26-2.016,3.419-3.168,5.831-3.168c3.708,0,6.191,1.548,6.191,5.399v13.643h-3.06v-12.202c0-2.304-0.612-4.14-3.6-4.14
			s-4.859,1.872-4.859,4.751v11.591h-3.06v-12.202c0-2.412-0.756-4.14-3.492-4.14c-3.6,0-4.967,3.312-4.967,4.751v11.591h-3.06
			V417.268z"/>
		<path fill="#333333" d="M377.818,417.268h2.88v2.735h0.072c1.404-2.124,3.383-3.168,6.011-3.168c2.304,0,4.355,0.864,5.111,3.168
			c1.26-2.016,3.419-3.168,5.831-3.168c3.708,0,6.191,1.548,6.191,5.399v13.643h-3.06v-12.202c0-2.304-0.612-4.14-3.6-4.14
			s-4.859,1.872-4.859,4.751v11.591h-3.06v-12.202c0-2.412-0.756-4.14-3.492-4.14c-3.6,0-4.967,3.312-4.967,4.751v11.591h-3.06
			V417.268z"/>
		<path fill="#333333" d="M425.012,435.805c-0.54,0.324-1.296,0.504-2.196,0.504c-1.583,0-2.591-0.863-2.591-2.879
			c-1.692,2.016-3.959,2.879-6.551,2.879c-3.384,0-6.155-1.476-6.155-5.219c0-4.212,3.131-5.147,6.299-5.724
			c3.347-0.684,6.263-0.396,6.263-2.735c0-2.7-2.232-3.096-4.14-3.096c-2.592,0-4.5,0.792-4.644,3.527h-3.06
			c0.18-4.607,3.708-6.228,7.883-6.228c3.347,0,6.983,0.756,6.983,5.111v9.575c0,1.439,0,2.088,0.972,2.088
			c0.288,0,0.612-0.072,0.936-0.18V435.805z M420.045,426.267c-2.375,1.764-9.287,0.035-9.287,4.607
			c0,2.016,1.728,2.735,3.599,2.735c4.032,0,5.688-2.483,5.688-4.212V426.267z"/>
		<path fill="#333333" d="M427.75,417.268h2.879v3.923h0.072c1.476-3.023,3.527-4.463,6.839-4.355v3.24
			c-4.931,0-6.731,2.771-6.731,7.522v8.279h-3.06V417.268z"/>
		<path fill="#333333" d="M447.153,438.36c-1.44,3.6-2.664,4.968-5.399,4.968c-0.72,0-1.44-0.072-2.124-0.324v-2.808
			c0.576,0.18,1.188,0.432,1.8,0.432c1.26,0,1.943-0.575,2.52-1.691l1.26-3.168l-7.379-18.501h3.456l5.435,15.226h0.072
			l5.219-15.226h3.24L447.153,438.36z"/>
		<path fill="#333333" d="M468.357,410.176h12.095c4.859,0,7.811,2.592,7.811,6.731c0,3.132-1.332,5.651-4.464,6.516v0.071
			c2.988,0.576,3.564,2.808,3.852,5.292c0.18,2.483,0.072,5.363,1.512,7.091h-3.816c-0.972-1.044-0.432-3.815-0.936-6.335
			c-0.396-2.484-0.972-4.644-4.284-4.644h-8.351v10.979h-3.419V410.176z M478.904,422.019c3.167,0,5.939-0.828,5.939-4.571
			c0-2.556-1.368-4.392-4.571-4.392h-8.495v8.963H478.904z"/>
		<path fill="#333333" d="M508.388,429.974c-0.828,4.14-3.744,6.335-7.955,6.335c-5.939,0-8.747-4.14-8.927-9.79
			c0-5.615,3.671-9.684,8.747-9.684c6.587,0,8.603,6.155,8.423,10.655h-13.93c-0.108,3.239,1.728,6.119,5.795,6.119
			c2.556,0,4.284-1.188,4.824-3.636H508.388z M505.436,424.79c-0.18-2.915-2.304-5.255-5.363-5.255
			c-3.167,0-5.147,2.376-5.327,5.255H505.436z"/>
		<path fill="#333333" d="M511.953,417.268h3.06v2.52h0.072c1.008-2.052,3.348-2.952,5.939-2.952c5.724,0,8.567,4.536,8.567,9.791
			c0,5.291-2.808,9.683-8.495,9.683c-1.872,0-4.68-0.72-6.011-2.915h-0.072v9.61h-3.06V417.268z M520.592,419.535
			c-4.14,0-5.688,3.563-5.688,7.019c0,3.636,1.656,7.056,5.867,7.056c4.176,0,5.58-3.563,5.58-7.199
			C526.352,422.919,524.552,419.535,520.592,419.535z"/>
		<path fill="#333333" d="M541.22,416.835c5.903,0,9.035,4.284,9.035,9.755c0,5.436-3.132,9.719-9.035,9.719
			s-9.035-4.283-9.035-9.719C532.185,421.119,535.316,416.835,541.22,416.835z M541.22,433.609c3.204,0,5.795-2.52,5.795-7.02
			c0-4.499-2.592-7.055-5.795-7.055s-5.795,2.556-5.795,7.055C535.425,431.09,538.016,433.609,541.22,433.609z"/>
		<path fill="#333333" d="M553.749,417.268h2.879v3.923h0.072c1.476-3.023,3.527-4.463,6.839-4.355v3.24
			c-4.931,0-6.731,2.771-6.731,7.522v8.279h-3.06V417.268z"/>
		<path fill="#333333" d="M570.092,417.268h3.708v2.699h-3.708v11.555c0,1.439,0.396,1.656,2.304,1.656h1.404v2.699h-2.34
			c-3.167,0-4.427-0.647-4.427-4.067v-11.843h-3.168v-2.699h3.168v-5.579h3.06V417.268z"/>
	</g>
</g>
<g id="Layer_1_copy_2" display="none">
	<rect display="inline" fill="#B9E5FB" width="1686.883" height="674.948"/>
	
		<line display="inline" fill="none" stroke="#343636" stroke-width="2" stroke-miterlimit="10" x1="42.769" y1="122.758" x2="1653.149" y2="122.758"/>
	
		<text transform="matrix(1 0 0 1 802.0479 172.8813)" display="inline" fill="#333333" font-family="'HelveticaNeueLTPro-Md'" font-size="36">Participants</text>
	
		<text transform="matrix(1 0 0 1 50 87.251)" display="inline" fill="#074164" font-family="'HelveticaNeueLTPro-Bd'" font-size="48">Requirements Review</text>
	
		<text transform="matrix(1 0 0 1 802.0488 263.0767)" display="inline" fill="#333333" font-family="'HelveticaNeueLTPro-Roman'" font-size="36">• Independent reviewer, and functional </text>
	
		<text transform="matrix(1 0 0 1 827.0327 306.2769)" display="inline" fill="#333333" font-family="'HelveticaNeueLTPro-Roman'" font-size="36">managers in development, testing, </text>
	
		<text transform="matrix(1 0 0 1 827.0327 349.4766)" display="inline" fill="#333333" font-family="'HelveticaNeueLTPro-Roman'" font-size="36">architecture, offering management or </text>
	
		<text transform="matrix(1 0 0 1 827.0327 392.6768)" display="inline" fill="#333333" font-family="'HelveticaNeueLTPro-Roman'" font-size="36">delivery, and quality and regulatory</text>
	
		<text transform="matrix(1 0 0 1 42.7368 172.8965)" display="inline" fill="#333333" font-family="'HelveticaNeueLTPro-Md'" font-size="36">Description</text>
	
		<text transform="matrix(1 0 0 1 42.7368 263.0767)" display="inline" fill="#333333" font-family="'HelveticaNeueLTPro-Roman'" font-size="36">• Assess and approve high-level </text>
	
		<text transform="matrix(1 0 0 1 67.7207 306.2769)" display="inline" fill="#333333" font-family="'HelveticaNeueLTPro-Roman'" font-size="36">Design Input</text>
</g>
<g id="Layer_1_copy_3" display="none">
	<rect display="inline" fill="#B9E5FB" width="1686.883" height="674.948"/>
	
		<line display="inline" fill="none" stroke="#343636" stroke-width="2" stroke-miterlimit="10" x1="42.769" y1="122.758" x2="1653.149" y2="122.758"/>
	
		<text transform="matrix(1 0 0 1 802.0479 172.8813)" display="inline" fill="#333333" font-family="'HelveticaNeueLTPro-Md'" font-size="36">Participants</text>
	
		<text transform="matrix(1 0 0 1 50 87.251)" display="inline" fill="#074164" font-family="'HelveticaNeueLTPro-Bd'" font-size="48">Requirements Review</text>
	
		<text transform="matrix(1 0 0 1 802.0488 263.0767)" display="inline" fill="#333333" font-family="'HelveticaNeueLTPro-Roman'" font-size="36">• Independent reviewer, and functional </text>
	
		<text transform="matrix(1 0 0 1 827.0327 306.2769)" display="inline" fill="#333333" font-family="'HelveticaNeueLTPro-Roman'" font-size="36">managers in development, testing, </text>
	
		<text transform="matrix(1 0 0 1 827.0327 349.4766)" display="inline" fill="#333333" font-family="'HelveticaNeueLTPro-Roman'" font-size="36">architecture, offering management or </text>
	
		<text transform="matrix(1 0 0 1 827.0327 392.6768)" display="inline" fill="#333333" font-family="'HelveticaNeueLTPro-Roman'" font-size="36">delivery, and quality and regulatory</text>
	
		<text transform="matrix(1 0 0 1 42.7368 172.8965)" display="inline" fill="#333333" font-family="'HelveticaNeueLTPro-Md'" font-size="36">Description</text>
	
		<text transform="matrix(1 0 0 1 42.7368 263.0767)" display="inline" fill="#333333" font-family="'HelveticaNeueLTPro-Roman'" font-size="36">• Assess and approve high-level </text>
	
		<text transform="matrix(1 0 0 1 67.7207 306.2769)" display="inline" fill="#333333" font-family="'HelveticaNeueLTPro-Roman'" font-size="36">Design Input</text>
</g>
</svg>
