<?xml version="1.0" encoding="utf-8"?>
<!-- Generator: Adobe Illustrator 19.2.0, SVG Export Plug-In . SVG Version: 6.00 Build 0)  -->
<svg version="1.1" id="Layer_1" xmlns="http://www.w3.org/2000/svg" xmlns:xlink="http://www.w3.org/1999/xlink" x="0px" y="0px"
	 viewBox="0 0 2048 1000" enable-background="new 0 0 2048 1000" xml:space="preserve">
<rect fill="#B9E5FB" width="2048" height="1000"/>
<rect x="1.5" y="640.118" fill="#116BB4" width="2046.5" height="359.882"/>
<polygon fill="#FFFFFF" points="1678.883,953.993 1678.883,488.666 1678.883,283.856 1517.267,137.082 412.485,137.082 
	412.485,953.993 "/>
<polygon fill="#2C5871" points="1517.267,283.856 1678.883,283.856 1517.267,137.083 "/>
<polygon fill="#D1ECFB" points="1678.883,283.856 1517.267,283.856 1678.883,430.606 "/>
<line fill="none" stroke="#343636" stroke-width="4.984" stroke-miterlimit="10" x1="50.751" y1="53.718" x2="1997.543" y2="53.718"/>
<g>
	<path fill="#333333" d="M604.228,211.377h8.88c6.6,0,9.45,4.8,9.45,10.709s-2.85,10.709-9.45,10.709h-8.88V211.377z
		 M607.978,229.736h3.69c5.88,0,7.14-3.33,7.14-7.649s-1.26-7.65-7.14-7.65h-3.69V229.736z"/>
	<path fill="#333333" d="M628.078,225.926c0,2.43,1.32,4.59,4.17,4.59c2.01,0,3.18-0.87,3.78-2.58h3.24
		c-0.72,3.39-3.66,5.28-7.02,5.28c-4.89,0-7.59-3.36-7.59-8.16c0-4.41,2.88-8.189,7.5-8.189c4.89,0,7.89,4.41,7.319,9.06H628.078z
		 M636.058,223.676c-0.15-2.16-1.56-4.11-3.9-4.11c-2.37,0-3.99,1.8-4.08,4.11H636.058z"/>
	<path fill="#333333" d="M644.668,227.816c0.21,2.01,1.68,2.7,3.51,2.7c1.32,0,3.54-0.27,3.45-2.04c-0.09-1.8-2.58-2.01-5.07-2.58
		c-2.52-0.54-4.979-1.44-4.979-4.59c0-3.39,3.66-4.439,6.479-4.439c3.18,0,6.09,1.29,6.48,4.77h-3.57
		c-0.33-1.65-1.62-2.07-3.15-2.07c-0.99,0-2.82,0.24-2.82,1.59c0,1.68,2.52,1.95,5.04,2.49c2.49,0.57,5.01,1.47,5.01,4.53
		c0,3.689-3.72,5.04-6.93,5.04c-3.93,0-6.78-1.74-6.87-5.4H644.668z"/>
	<path fill="#333333" d="M657.748,211.377h3.419v3.24h-3.419V211.377z M657.748,217.287h3.419v15.509h-3.419V217.287z"/>
	<path fill="#333333" d="M679.227,231.986c0,4.68-2.7,6.96-7.62,6.96c-3.12,0-6.6-1.2-6.93-4.83h3.42c0.42,1.95,1.98,2.28,3.72,2.28
		c2.76,0,3.99-1.41,3.99-3.959v-2.37h-0.06c-0.96,1.71-2.73,2.73-4.65,2.73c-4.92,0-6.96-3.72-6.96-8.16c0-4.17,2.61-7.77,7.02-7.77
		c1.95,0,3.72,0.78,4.59,2.55h0.06v-2.13h3.419V231.986z M675.808,224.696c0-2.67-1.2-5.13-4.17-5.13c-3.03,0-4.08,2.82-4.08,5.4
		c0,2.52,1.23,5.13,4.08,5.13C674.667,230.096,675.808,227.366,675.808,224.696z"/>
	<path fill="#333333" d="M682.677,217.287h3.24v2.28l0.06,0.06c1.05-1.71,2.79-2.76,4.83-2.76c3.39,0,5.49,1.77,5.49,5.28v10.649
		h-3.42v-9.75c-0.09-2.43-0.99-3.48-3.03-3.48c-2.28,0-3.75,1.8-3.75,4.08v9.149h-3.42V217.287z"/>
	<path fill="#333333" d="M708.627,211.377h3.75v8.52h9.75v-8.52h3.75v21.419h-3.75v-9.66h-9.75v9.66h-3.75V211.377z"/>
	<path fill="#333333" d="M729.987,211.377h3.419v3.24h-3.419V211.377z M729.987,217.287h3.419v15.509h-3.419V217.287z"/>
	<path fill="#333333" d="M739.707,227.816c0.21,2.01,1.68,2.7,3.51,2.7c1.32,0,3.54-0.27,3.45-2.04c-0.09-1.8-2.58-2.01-5.07-2.58
		c-2.52-0.54-4.979-1.44-4.979-4.59c0-3.39,3.66-4.439,6.479-4.439c3.18,0,6.09,1.29,6.48,4.77h-3.57
		c-0.33-1.65-1.62-2.07-3.15-2.07c-0.99,0-2.82,0.24-2.82,1.59c0,1.68,2.52,1.95,5.04,2.49c2.49,0.57,5.01,1.47,5.01,4.53
		c0,3.689-3.72,5.04-6.93,5.04c-3.93,0-6.78-1.74-6.87-5.4H739.707z"/>
	<path fill="#333333" d="M751.137,217.287h2.58v-4.65h3.42v4.65h3.09v2.55h-3.09v8.28c0,1.41,0.12,2.13,1.65,2.13
		c0.48,0,0.96,0,1.44-0.12v2.64c-0.75,0.09-1.47,0.18-2.22,0.18c-3.6,0-4.2-1.38-4.29-3.96v-9.149h-2.58V217.287z"/>
	<path fill="#333333" d="M761.966,225.026c0-4.71,2.88-8.16,7.83-8.16s7.83,3.45,7.83,8.16c0,4.77-2.88,8.189-7.83,8.189
		S761.966,229.796,761.966,225.026z M774.206,225.026c0-2.67-1.35-5.46-4.41-5.46s-4.41,2.79-4.41,5.46c0,2.7,1.35,5.49,4.41,5.49
		S774.206,227.726,774.206,225.026z"/>
	<path fill="#333333" d="M780.476,217.287h3.21v3h0.06c0.39-1.65,2.46-3.42,4.53-3.42c0.81,0,0.96,0.06,1.29,0.09v3.3
		c-0.48-0.09-0.99-0.15-1.47-0.15c-2.31,0-4.2,1.86-4.2,5.31v7.38h-3.42V217.287z"/>
	<path fill="#333333" d="M789.325,217.287h3.75l4.05,11.58h0.06l3.93-11.58h3.57l-6.03,16.349c-1.11,2.79-1.89,5.31-5.49,5.31
		c-0.81,0-1.59-0.06-2.37-0.18v-2.88c0.57,0.09,1.05,0.21,1.62,0.21c1.56,0,2.01-0.84,2.4-2.16l0.39-1.2L789.325,217.287z"/>
	<path fill="#333333" d="M815.425,211.377h14.79v3.24h-11.04v5.61h9.689v3.06h-9.689v9.51h-3.75V211.377z"/>
	<path fill="#333333" d="M832.825,211.377h3.419v3.24h-3.419V211.377z M832.825,217.287h3.419v15.509h-3.419V217.287z"/>
	<path fill="#333333" d="M840.055,211.377h3.419v21.419h-3.419V211.377z"/>
	<path fill="#333333" d="M849.864,225.926c0,2.43,1.32,4.59,4.17,4.59c2.01,0,3.18-0.87,3.78-2.58h3.24
		c-0.72,3.39-3.66,5.28-7.02,5.28c-4.89,0-7.59-3.36-7.59-8.16c0-4.41,2.88-8.189,7.5-8.189c4.89,0,7.89,4.41,7.319,9.06H849.864z
		 M857.844,223.676c-0.15-2.16-1.56-4.11-3.9-4.11c-2.37,0-3.99,1.8-4.08,4.11H857.844z"/>
	<path fill="#333333" d="M872.305,211.377h3.419v3.24h-3.419V211.377z M872.305,217.287h3.419v15.509h-3.419V217.287z"/>
	<path fill="#333333" d="M882.024,227.816c0.21,2.01,1.68,2.7,3.51,2.7c1.32,0,3.54-0.27,3.45-2.04c-0.09-1.8-2.58-2.01-5.07-2.58
		c-2.52-0.54-4.979-1.44-4.979-4.59c0-3.39,3.66-4.439,6.479-4.439c3.18,0,6.09,1.29,6.48,4.77h-3.57
		c-0.33-1.65-1.62-2.07-3.15-2.07c-0.99,0-2.82,0.24-2.82,1.59c0,1.68,2.52,1.95,5.04,2.49c2.49,0.57,5.01,1.47,5.01,4.53
		c0,3.689-3.72,5.04-6.93,5.04c-3.93,0-6.78-1.74-6.87-5.4H882.024z"/>
	<path fill="#333333" d="M901.794,217.287h2.58v-4.65h3.42v4.65h3.09v2.55h-3.09v8.28c0,1.41,0.12,2.13,1.65,2.13
		c0.48,0,0.96,0,1.44-0.12v2.64c-0.75,0.09-1.47,0.18-2.22,0.18c-3.6,0-4.2-1.38-4.29-3.96v-9.149h-2.58V217.287z"/>
	<path fill="#333333" d="M913.344,211.377h3.42v7.95h0.06c0.84-1.41,2.61-2.46,4.65-2.46c3.39,0,5.49,1.77,5.49,5.28v10.649h-3.42
		v-9.75c-0.09-2.43-0.99-3.48-3.03-3.48c-2.28,0-3.75,1.8-3.75,4.08v9.149h-3.42V211.377z"/>
	<path fill="#333333" d="M933.233,225.926c0,2.43,1.32,4.59,4.17,4.59c2.01,0,3.18-0.87,3.78-2.58h3.24
		c-0.72,3.39-3.66,5.28-7.02,5.28c-4.89,0-7.59-3.36-7.59-8.16c0-4.41,2.88-8.189,7.5-8.189c4.89,0,7.89,4.41,7.319,9.06H933.233z
		 M941.213,223.676c-0.15-2.16-1.56-4.11-3.9-4.11c-2.37,0-3.99,1.8-4.08,4.11H941.213z"/>
	<path fill="#333333" d="M966.053,222.477c-0.27-1.92-1.62-2.91-3.54-2.91c-1.77,0-4.26,0.96-4.26,5.64c0,2.58,1.14,5.31,4.11,5.31
		c2.01,0,3.36-1.29,3.69-3.54h3.42c-0.63,4.05-3.12,6.24-7.11,6.24c-4.86,0-7.53-3.45-7.53-8.01c0-4.68,2.55-8.339,7.65-8.339
		c3.6,0,6.66,1.8,6.99,5.61H966.053z"/>
	<path fill="#333333" d="M971.544,225.026c0-4.71,2.88-8.16,7.83-8.16s7.83,3.45,7.83,8.16c0,4.77-2.88,8.189-7.83,8.189
		S971.544,229.796,971.544,225.026z M983.783,225.026c0-2.67-1.35-5.46-4.41-5.46s-4.41,2.79-4.41,5.46c0,2.7,1.35,5.49,4.41,5.49
		S983.783,227.726,983.783,225.026z"/>
	<path fill="#333333" d="M990.053,217.287h3.24v2.16h0.09c1.05-1.53,2.28-2.58,4.77-2.58c1.89,0,3.66,0.81,4.35,2.58
		c1.17-1.59,2.58-2.58,4.86-2.58c3.27,0,5.189,1.47,5.189,5.22v10.709h-3.419v-9.06c0-2.49-0.15-4.17-2.82-4.17
		c-2.31,0-3.3,1.5-3.3,4.14v9.09h-3.42v-9.959c0-2.16-0.66-3.27-2.729-3.27c-1.77,0-3.39,1.47-3.39,4.02v9.209h-3.42V217.287z"/>
	<path fill="#333333" d="M1016.244,217.287h3.24v2.1h0.06c0.96-1.8,2.79-2.52,4.799-2.52c4.89,0,7.26,3.69,7.26,8.25
		c0,4.2-2.13,8.1-6.689,8.1c-1.98,0-4.14-0.72-5.19-2.43h-0.06v7.74h-3.419V217.287z M1023.893,219.566c-2.88,0-4.35,2.16-4.35,5.49
		c0,3.12,1.59,5.46,4.35,5.46c3.12,0,4.29-2.76,4.29-5.46C1028.183,222.266,1026.713,219.566,1023.893,219.566z"/>
	<path fill="#333333" d="M1034.573,211.377h3.42v3.24h-3.42V211.377z M1034.573,217.287h3.42v15.509h-3.42V217.287z"/>
	<path fill="#333333" d="M1041.803,211.377h3.42v21.419h-3.42V211.377z"/>
	<path fill="#333333" d="M1061.932,229.346c0,0.84,0.181,1.17,0.811,1.17h0.359c0.15,0,0.301-0.03,0.48-0.06v2.37
		c-0.51,0.18-1.59,0.39-2.16,0.39c-1.41,0-2.37-0.48-2.64-1.89c-1.35,1.32-3.54,1.89-5.37,1.89c-2.79,0-5.31-1.5-5.31-4.53
		c0-3.87,3.09-4.5,5.97-4.83c2.49-0.48,4.649-0.15,4.649-2.19c0-1.8-1.859-2.1-3.209-2.1c-1.92,0-3.271,0.78-3.42,2.46h-3.42
		c0.239-3.99,3.6-5.16,7.05-5.16c3.029,0,6.209,1.23,6.209,4.5V229.346z M1058.512,225.026c-1.05,0.69-2.67,0.66-4.199,0.93
		c-1.47,0.24-2.79,0.78-2.79,2.58c0,1.56,1.95,1.98,3.149,1.98c1.5,0,3.84-0.78,3.84-2.94V225.026z"/>
	<path fill="#333333" d="M1064.062,217.287h2.58v-4.65h3.42v4.65h3.09v2.55h-3.09v8.28c0,1.41,0.119,2.13,1.649,2.13
		c0.48,0,0.96,0,1.44-0.12v2.64c-0.75,0.09-1.471,0.18-2.221,0.18c-3.6,0-4.199-1.38-4.289-3.96v-9.149h-2.58V217.287z"/>
	<path fill="#333333" d="M1075.702,211.377h3.42v3.24h-3.42V211.377z M1075.702,217.287h3.42v15.509h-3.42V217.287z"/>
	<path fill="#333333" d="M1082.122,225.026c0-4.71,2.88-8.16,7.829-8.16c4.95,0,7.83,3.45,7.83,8.16c0,4.77-2.88,8.189-7.83,8.189
		C1085.002,233.216,1082.122,229.796,1082.122,225.026z M1094.361,225.026c0-2.67-1.35-5.46-4.41-5.46
		c-3.06,0-4.409,2.79-4.409,5.46c0,2.7,1.35,5.49,4.409,5.49C1093.012,230.516,1094.361,227.726,1094.361,225.026z"/>
	<path fill="#333333" d="M1100.632,217.287h3.24v2.28l0.06,0.06c1.05-1.71,2.79-2.76,4.83-2.76c3.39,0,5.489,1.77,5.489,5.28v10.649
		h-3.419v-9.75c-0.091-2.43-0.99-3.48-3.03-3.48c-2.28,0-3.75,1.8-3.75,4.08v9.149h-3.42V217.287z"/>
	<path fill="#333333" d="M1125.472,225.026c0-4.71,2.88-8.16,7.829-8.16c4.95,0,7.83,3.45,7.83,8.16c0,4.77-2.88,8.189-7.83,8.189
		C1128.352,233.216,1125.472,229.796,1125.472,225.026z M1137.711,225.026c0-2.67-1.35-5.46-4.41-5.46
		c-3.06,0-4.409,2.79-4.409,5.46c0,2.7,1.35,5.49,4.409,5.49C1136.361,230.516,1137.711,227.726,1137.711,225.026z"/>
	<path fill="#333333" d="M1142.451,217.287h2.551v-1.29c0-3.96,2.069-4.62,4.289-4.62c1.11,0,1.891,0.06,2.4,0.21v2.67
		c-0.45-0.12-0.9-0.18-1.59-0.18c-0.931,0-1.68,0.33-1.68,1.62v1.59h2.909v2.55h-2.909v12.959h-3.42v-12.959h-2.551V217.287z"/>
	<path fill="#333333" d="M1161.771,217.287h3.21v3h0.06c0.391-1.65,2.46-3.42,4.53-3.42c0.81,0,0.96,0.06,1.29,0.09v3.3
		c-0.48-0.09-0.99-0.15-1.47-0.15c-2.311,0-4.2,1.86-4.2,5.31v7.38h-3.42V217.287z"/>
	<path fill="#333333" d="M1174.49,225.926c0,2.43,1.32,4.59,4.17,4.59c2.01,0,3.18-0.87,3.78-2.58h3.239
		c-0.72,3.39-3.66,5.28-7.02,5.28c-4.89,0-7.59-3.36-7.59-8.16c0-4.41,2.88-8.189,7.5-8.189c4.89,0,7.89,4.41,7.319,9.06H1174.49z
		 M1182.47,223.676c-0.149-2.16-1.56-4.11-3.899-4.11c-2.37,0-3.99,1.8-4.08,4.11H1182.47z"/>
	<path fill="#333333" d="M1198.97,222.477c-0.271-1.92-1.62-2.91-3.54-2.91c-1.77,0-4.26,0.96-4.26,5.64c0,2.58,1.14,5.31,4.11,5.31
		c2.01,0,3.359-1.29,3.689-3.54h3.42c-0.63,4.05-3.12,6.24-7.109,6.24c-4.86,0-7.53-3.45-7.53-8.01c0-4.68,2.55-8.339,7.649-8.339
		c3.601,0,6.66,1.8,6.99,5.61H1198.97z"/>
	<path fill="#333333" d="M1204.46,225.026c0-4.71,2.88-8.16,7.829-8.16c4.95,0,7.83,3.45,7.83,8.16c0,4.77-2.88,8.189-7.83,8.189
		C1207.34,233.216,1204.46,229.796,1204.46,225.026z M1216.699,225.026c0-2.67-1.35-5.46-4.41-5.46c-3.06,0-4.409,2.79-4.409,5.46
		c0,2.7,1.35,5.49,4.409,5.49C1215.35,230.516,1216.699,227.726,1216.699,225.026z"/>
	<path fill="#333333" d="M1222.97,217.287h3.21v3h0.06c0.391-1.65,2.46-3.42,4.53-3.42c0.81,0,0.96,0.06,1.29,0.09v3.3
		c-0.48-0.09-0.99-0.15-1.47-0.15c-2.311,0-4.2,1.86-4.2,5.31v7.38h-3.42V217.287z"/>
	<path fill="#333333" d="M1247.629,232.796h-3.239v-2.1h-0.061c-0.93,1.8-2.85,2.52-4.8,2.52c-4.89,0-7.26-3.63-7.26-8.28
		c0-5.64,3.33-8.069,6.72-8.069c1.92,0,4.11,0.72,5.16,2.43h0.06v-7.919h3.42V232.796z M1239.979,230.516
		c3.029,0,4.35-2.79,4.35-5.49c0-3.45-1.649-5.46-4.29-5.46c-3.21,0-4.35,2.88-4.35,5.64
		C1235.689,227.876,1237.01,230.516,1239.979,230.516z"/>
	<path fill="#333333" d="M1253.93,227.816c0.21,2.01,1.68,2.7,3.51,2.7c1.32,0,3.54-0.27,3.45-2.04c-0.09-1.8-2.58-2.01-5.07-2.58
		c-2.52-0.54-4.979-1.44-4.979-4.59c0-3.39,3.66-4.439,6.479-4.439c3.18,0,6.09,1.29,6.479,4.77h-3.569
		c-0.33-1.65-1.62-2.07-3.15-2.07c-0.989,0-2.819,0.24-2.819,1.59c0,1.68,2.52,1.95,5.04,2.49c2.489,0.57,5.01,1.47,5.01,4.53
		c0,3.689-3.72,5.04-6.93,5.04c-3.931,0-6.78-1.74-6.87-5.4H1253.93z"/>
	<path fill="#333333" d="M1282.189,217.287h3.63l3.03,11.58h0.06l2.91-11.58h3.45l2.79,11.58h0.06l3.149-11.58h3.48l-4.86,15.509
		h-3.51l-2.88-11.52h-0.06l-2.85,11.52h-3.601L1282.189,217.287z"/>
	<path fill="#333333" d="M1306.939,211.377h3.42v7.95h0.061c0.84-1.41,2.609-2.46,4.649-2.46c3.39,0,5.489,1.77,5.489,5.28v10.649
		h-3.42v-9.75c-0.09-2.43-0.989-3.48-3.029-3.48c-2.28,0-3.75,1.8-3.75,4.08v9.149h-3.42V211.377z"/>
	<path fill="#333333" d="M1324.249,211.377h3.42v3.24h-3.42V211.377z M1324.249,217.287h3.42v15.509h-3.42V217.287z"/>
	<path fill="#333333" d="M1341.858,222.477c-0.271-1.92-1.62-2.91-3.54-2.91c-1.77,0-4.26,0.96-4.26,5.64
		c0,2.58,1.14,5.31,4.11,5.31c2.01,0,3.359-1.29,3.689-3.54h3.42c-0.63,4.05-3.12,6.24-7.109,6.24c-4.86,0-7.53-3.45-7.53-8.01
		c0-4.68,2.55-8.339,7.649-8.339c3.601,0,6.66,1.8,6.99,5.61H1341.858z"/>
	<path fill="#333333" d="M1348.068,211.377h3.42v7.95h0.061c0.84-1.41,2.609-2.46,4.649-2.46c3.39,0,5.489,1.77,5.489,5.28v10.649
		h-3.42v-9.75c-0.09-2.43-0.989-3.48-3.029-3.48c-2.28,0-3.75,1.8-3.75,4.08v9.149h-3.42V211.377z"/>
</g>
<g>
	<path fill="#333333" d="M618.357,268.796h-3.24v-2.1h-0.06c-0.93,1.8-2.85,2.52-4.8,2.52c-4.89,0-7.26-3.63-7.26-8.28
		c0-5.64,3.33-8.069,6.72-8.069c1.92,0,4.11,0.72,5.16,2.43h0.06v-7.919h3.42V268.796z M610.708,266.516c3.03,0,4.35-2.79,4.35-5.49
		c0-3.45-1.65-5.46-4.29-5.46c-3.21,0-4.35,2.88-4.35,5.64C606.418,263.876,607.738,266.516,610.708,266.516z"/>
	<path fill="#333333" d="M624.748,261.926c0,2.43,1.32,4.59,4.17,4.59c2.01,0,3.18-0.87,3.78-2.58h3.24
		c-0.72,3.39-3.66,5.28-7.02,5.28c-4.89,0-7.59-3.36-7.59-8.16c0-4.41,2.88-8.189,7.5-8.189c4.89,0,7.89,4.41,7.319,9.06H624.748z
		 M632.728,259.676c-0.15-2.16-1.56-4.11-3.9-4.11c-2.37,0-3.99,1.8-4.08,4.11H632.728z"/>
	<path fill="#333333" d="M641.338,263.816c0.21,2.01,1.68,2.7,3.51,2.7c1.32,0,3.54-0.27,3.45-2.04c-0.09-1.8-2.58-2.01-5.07-2.58
		c-2.52-0.54-4.979-1.44-4.979-4.59c0-3.39,3.66-4.439,6.479-4.439c3.18,0,6.09,1.29,6.48,4.77h-3.57
		c-0.33-1.65-1.62-2.07-3.15-2.07c-0.99,0-2.82,0.24-2.82,1.59c0,1.68,2.52,1.95,5.04,2.49c2.49,0.57,5.01,1.47,5.01,4.53
		c0,3.689-3.72,5.04-6.93,5.04c-3.93,0-6.78-1.74-6.87-5.4H641.338z"/>
	<path fill="#333333" d="M664.797,258.477c-0.27-1.92-1.62-2.91-3.54-2.91c-1.77,0-4.26,0.96-4.26,5.64c0,2.58,1.14,5.31,4.11,5.31
		c2.01,0,3.36-1.29,3.69-3.54h3.42c-0.63,4.05-3.12,6.24-7.11,6.24c-4.86,0-7.53-3.45-7.53-8.01c0-4.68,2.55-8.339,7.65-8.339
		c3.6,0,6.66,1.8,6.99,5.61H664.797z"/>
	<path fill="#333333" d="M671.008,253.287h3.21v3h0.06c0.39-1.65,2.46-3.42,4.53-3.42c0.81,0,0.96,0.06,1.29,0.09v3.3
		c-0.48-0.09-0.99-0.15-1.47-0.15c-2.31,0-4.2,1.86-4.2,5.31v7.38h-3.42V253.287z"/>
	<path fill="#333333" d="M681.658,247.377h3.419v3.24h-3.419V247.377z M681.658,253.287h3.419v15.509h-3.419V253.287z"/>
	<path fill="#333333" d="M688.888,247.377h3.419v7.919h0.06c0.96-1.5,2.85-2.43,4.62-2.43c4.89,0,7.26,3.69,7.26,8.25
		c0,4.2-2.13,8.1-6.69,8.1c-2.1,0-4.35-0.51-5.37-2.55h-0.06v2.13h-3.24V247.377z M696.537,255.566c-2.88,0-4.35,2.16-4.35,5.49
		c0,3.12,1.59,5.46,4.35,5.46c3.12,0,4.29-2.76,4.29-5.46C700.827,258.266,699.357,255.566,696.537,255.566z"/>
	<path fill="#333333" d="M709.797,261.926c0,2.43,1.32,4.59,4.17,4.59c2.01,0,3.18-0.87,3.78-2.58h3.24
		c-0.72,3.39-3.66,5.28-7.02,5.28c-4.89,0-7.59-3.36-7.59-8.16c0-4.41,2.88-8.189,7.5-8.189c4.89,0,7.89,4.41,7.319,9.06H709.797z
		 M717.777,259.676c-0.15-2.16-1.56-4.11-3.9-4.11c-2.37,0-3.99,1.8-4.08,4.11H717.777z"/>
	<path fill="#333333" d="M726.387,263.816c0.21,2.01,1.68,2.7,3.51,2.7c1.32,0,3.54-0.27,3.45-2.04c-0.09-1.8-2.58-2.01-5.07-2.58
		c-2.52-0.54-4.979-1.44-4.979-4.59c0-3.39,3.66-4.439,6.479-4.439c3.18,0,6.09,1.29,6.48,4.77h-3.57
		c-0.33-1.65-1.62-2.07-3.15-2.07c-0.99,0-2.82,0.24-2.82,1.59c0,1.68,2.52,1.95,5.04,2.49c2.49,0.57,5.01,1.47,5.01,4.53
		c0,3.689-3.72,5.04-6.93,5.04c-3.93,0-6.78-1.74-6.87-5.4H726.387z"/>
	<path fill="#333333" d="M746.157,253.287h2.58v-4.65h3.42v4.65h3.09v2.55h-3.09v8.28c0,1.41,0.12,2.13,1.65,2.13
		c0.48,0,0.96,0,1.44-0.12v2.64c-0.75,0.09-1.47,0.18-2.22,0.18c-3.6,0-4.2-1.38-4.29-3.96v-9.149h-2.58V253.287z"/>
	<path fill="#333333" d="M757.707,247.377h3.42v7.95h0.06c0.84-1.41,2.61-2.46,4.65-2.46c3.39,0,5.49,1.77,5.49,5.28v10.649h-3.42
		v-9.75c-0.09-2.43-0.99-3.48-3.03-3.48c-2.28,0-3.75,1.8-3.75,4.08v9.149h-3.42V247.377z"/>
	<path fill="#333333" d="M777.596,261.926c0,2.43,1.32,4.59,4.17,4.59c2.01,0,3.18-0.87,3.78-2.58h3.24
		c-0.72,3.39-3.66,5.28-7.02,5.28c-4.89,0-7.59-3.36-7.59-8.16c0-4.41,2.88-8.189,7.5-8.189c4.89,0,7.89,4.41,7.319,9.06H777.596z
		 M785.576,259.676c-0.15-2.16-1.56-4.11-3.9-4.11c-2.37,0-3.99,1.8-4.08,4.11H785.576z"/>
	<path fill="#333333" d="M814.556,268.796h-3.24v-2.1h-0.06c-0.93,1.8-2.85,2.52-4.8,2.52c-4.89,0-7.26-3.63-7.26-8.28
		c0-5.64,3.33-8.069,6.72-8.069c1.92,0,4.11,0.72,5.16,2.43h0.06v-7.919h3.42V268.796z M806.906,266.516c3.03,0,4.35-2.79,4.35-5.49
		c0-3.45-1.65-5.46-4.29-5.46c-3.21,0-4.35,2.88-4.35,5.64C802.616,263.876,803.936,266.516,806.906,266.516z"/>
	<path fill="#333333" d="M820.946,261.926c0,2.43,1.32,4.59,4.17,4.59c2.01,0,3.18-0.87,3.78-2.58h3.24
		c-0.72,3.39-3.66,5.28-7.02,5.28c-4.89,0-7.59-3.36-7.59-8.16c0-4.41,2.88-8.189,7.5-8.189c4.89,0,7.89,4.41,7.319,9.06H820.946z
		 M828.926,259.676c-0.15-2.16-1.56-4.11-3.9-4.11c-2.37,0-3.99,1.8-4.08,4.11H828.926z"/>
	<path fill="#333333" d="M837.536,263.816c0.21,2.01,1.68,2.7,3.51,2.7c1.32,0,3.54-0.27,3.45-2.04c-0.09-1.8-2.58-2.01-5.07-2.58
		c-2.52-0.54-4.979-1.44-4.979-4.59c0-3.39,3.66-4.439,6.479-4.439c3.18,0,6.09,1.29,6.48,4.77h-3.57
		c-0.33-1.65-1.62-2.07-3.15-2.07c-0.99,0-2.82,0.24-2.82,1.59c0,1.68,2.52,1.95,5.04,2.49c2.49,0.57,5.01,1.47,5.01,4.53
		c0,3.689-3.72,5.04-6.93,5.04c-3.93,0-6.78-1.74-6.87-5.4H837.536z"/>
	<path fill="#333333" d="M850.616,247.377h3.419v3.24h-3.419V247.377z M850.616,253.287h3.419v15.509h-3.419V253.287z"/>
	<path fill="#333333" d="M872.095,267.986c0,4.68-2.7,6.96-7.62,6.96c-3.12,0-6.6-1.2-6.93-4.83h3.42c0.42,1.95,1.98,2.28,3.72,2.28
		c2.76,0,3.99-1.41,3.99-3.959v-2.37h-0.06c-0.96,1.71-2.73,2.73-4.65,2.73c-4.92,0-6.96-3.72-6.96-8.16c0-4.17,2.61-7.77,7.02-7.77
		c1.95,0,3.72,0.78,4.59,2.55h0.06v-2.13h3.419V267.986z M868.676,260.696c0-2.67-1.2-5.13-4.17-5.13c-3.03,0-4.08,2.82-4.08,5.4
		c0,2.52,1.23,5.13,4.08,5.13C867.536,266.096,868.676,263.366,868.676,260.696z"/>
	<path fill="#333333" d="M875.545,253.287h3.24v2.28l0.06,0.06c1.05-1.71,2.79-2.76,4.83-2.76c3.39,0,5.49,1.77,5.49,5.28v10.649
		h-3.42v-9.75c-0.09-2.43-0.99-3.48-3.03-3.48c-2.28,0-3.75,1.8-3.75,4.08v9.149h-3.42V253.287z"/>
	<path fill="#333333" d="M901.105,247.377h3.42v7.95h0.06c0.84-1.41,2.61-2.46,4.65-2.46c3.39,0,5.49,1.77,5.49,5.28v10.649h-3.42
		v-9.75c-0.09-2.43-0.99-3.48-3.03-3.48c-2.28,0-3.75,1.8-3.75,4.08v9.149h-3.42V247.377z"/>
	<path fill="#333333" d="M918.415,247.377h3.419v3.24h-3.419V247.377z M918.415,253.287h3.419v15.509h-3.419V253.287z"/>
	<path fill="#333333" d="M928.135,263.816c0.21,2.01,1.68,2.7,3.51,2.7c1.32,0,3.54-0.27,3.45-2.04c-0.09-1.8-2.58-2.01-5.07-2.58
		c-2.52-0.54-4.979-1.44-4.979-4.59c0-3.39,3.66-4.439,6.479-4.439c3.18,0,6.09,1.29,6.48,4.77h-3.57
		c-0.33-1.65-1.62-2.07-3.15-2.07c-0.99,0-2.82,0.24-2.82,1.59c0,1.68,2.52,1.95,5.04,2.49c2.49,0.57,5.01,1.47,5.01,4.53
		c0,3.689-3.72,5.04-6.93,5.04c-3.93,0-6.78-1.74-6.87-5.4H928.135z"/>
	<path fill="#333333" d="M939.564,253.287h2.58v-4.65h3.42v4.65h3.09v2.55h-3.09v8.28c0,1.41,0.12,2.13,1.65,2.13
		c0.48,0,0.96,0,1.44-0.12v2.64c-0.75,0.09-1.47,0.18-2.22,0.18c-3.6,0-4.2-1.38-4.29-3.96v-9.149h-2.58V253.287z"/>
	<path fill="#333333" d="M950.395,261.026c0-4.71,2.88-8.16,7.83-8.16s7.83,3.45,7.83,8.16c0,4.77-2.88,8.189-7.83,8.189
		S950.395,265.796,950.395,261.026z M962.634,261.026c0-2.67-1.35-5.46-4.41-5.46s-4.41,2.79-4.41,5.46c0,2.7,1.35,5.49,4.41,5.49
		S962.634,263.726,962.634,261.026z"/>
	<path fill="#333333" d="M968.904,253.287h3.21v3h0.06c0.39-1.65,2.46-3.42,4.53-3.42c0.81,0,0.96,0.06,1.29,0.09v3.3
		c-0.48-0.09-0.99-0.15-1.47-0.15c-2.31,0-4.2,1.86-4.2,5.31v7.38h-3.42V253.287z"/>
	<path fill="#333333" d="M977.753,253.287h3.75l4.05,11.58h0.06l3.93-11.58h3.57l-6.03,16.349c-1.11,2.79-1.89,5.31-5.49,5.31
		c-0.81,0-1.59-0.06-2.37-0.18v-2.88c0.57,0.09,1.05,0.21,1.62,0.21c1.56,0,2.01-0.84,2.4-2.16l0.39-1.2L977.753,253.287z"/>
	<path fill="#333333" d="M1002.653,261.026c0-4.71,2.88-8.16,7.83-8.16s7.83,3.45,7.83,8.16c0,4.77-2.88,8.189-7.83,8.189
		S1002.653,265.796,1002.653,261.026z M1014.893,261.026c0-2.67-1.35-5.46-4.41-5.46s-4.41,2.79-4.41,5.46
		c0,2.7,1.35,5.49,4.41,5.49S1014.893,263.726,1014.893,261.026z"/>
	<path fill="#333333" d="M1019.633,253.287h2.55v-1.29c0-3.96,2.07-4.62,4.29-4.62c1.109,0,1.89,0.06,2.399,0.21v2.67
		c-0.449-0.12-0.899-0.18-1.59-0.18c-0.93,0-1.68,0.33-1.68,1.62v1.59h2.91v2.55h-2.91v12.959h-3.42v-12.959h-2.55V253.287z"/>
	<path fill="#333333" d="M1051.941,265.346c0,0.84,0.181,1.17,0.811,1.17h0.359c0.15,0,0.301-0.03,0.48-0.06v2.37
		c-0.51,0.18-1.59,0.39-2.16,0.39c-1.41,0-2.37-0.48-2.64-1.89c-1.35,1.32-3.54,1.89-5.37,1.89c-2.79,0-5.31-1.5-5.31-4.53
		c0-3.87,3.09-4.5,5.97-4.83c2.49-0.48,4.649-0.15,4.649-2.19c0-1.8-1.859-2.1-3.209-2.1c-1.92,0-3.271,0.78-3.42,2.46h-3.42
		c0.239-3.99,3.6-5.16,7.05-5.16c3.029,0,6.209,1.23,6.209,4.5V265.346z M1048.521,261.026c-1.05,0.69-2.67,0.66-4.199,0.93
		c-1.47,0.24-2.79,0.78-2.79,2.58c0,1.56,1.95,1.98,3.149,1.98c1.5,0,3.84-0.78,3.84-2.94V261.026z"/>
	<path fill="#333333" d="M1062.441,253.287h2.551v-1.29c0-3.96,2.069-4.62,4.289-4.62c1.11,0,1.891,0.06,2.4,0.21v2.67
		c-0.45-0.12-0.9-0.18-1.59-0.18c-0.931,0-1.68,0.33-1.68,1.62v1.59h2.909v2.55h-2.909v12.959h-3.42v-12.959h-2.551V253.287z
		 M1073.512,247.377h3.42v3.24h-3.42V247.377z M1073.512,253.287h3.42v15.509h-3.42V253.287z"/>
	<path fill="#333333" d="M1080.651,253.287h3.24v2.28l0.06,0.06c1.05-1.71,2.79-2.76,4.83-2.76c3.39,0,5.489,1.77,5.489,5.28v10.649
		h-3.419v-9.75c-0.091-2.43-0.99-3.48-3.03-3.48c-2.28,0-3.75,1.8-3.75,4.08v9.149h-3.42V253.287z"/>
	<path fill="#333333" d="M1097.961,247.377h3.42v3.24h-3.42V247.377z M1097.961,253.287h3.42v15.509h-3.42V253.287z"/>
	<path fill="#333333" d="M1107.681,263.816c0.21,2.01,1.68,2.7,3.51,2.7c1.32,0,3.54-0.27,3.45-2.04c-0.09-1.8-2.58-2.01-5.07-2.58
		c-2.52-0.54-4.979-1.44-4.979-4.59c0-3.39,3.66-4.439,6.479-4.439c3.18,0,6.09,1.29,6.479,4.77h-3.569
		c-0.33-1.65-1.62-2.07-3.15-2.07c-0.989,0-2.819,0.24-2.819,1.59c0,1.68,2.52,1.95,5.04,2.49c2.489,0.57,5.01,1.47,5.01,4.53
		c0,3.689-3.721,5.04-6.93,5.04c-3.931,0-6.78-1.74-6.87-5.4H1107.681z"/>
	<path fill="#333333" d="M1120.671,247.377h3.42v7.95h0.06c0.841-1.41,2.61-2.46,4.65-2.46c3.39,0,5.489,1.77,5.489,5.28v10.649
		h-3.419v-9.75c-0.091-2.43-0.99-3.48-3.03-3.48c-2.28,0-3.75,1.8-3.75,4.08v9.149h-3.42V247.377z"/>
	<path fill="#333333" d="M1140.561,261.926c0,2.43,1.32,4.59,4.17,4.59c2.01,0,3.18-0.87,3.78-2.58h3.239
		c-0.72,3.39-3.66,5.28-7.02,5.28c-4.89,0-7.59-3.36-7.59-8.16c0-4.41,2.88-8.189,7.5-8.189c4.89,0,7.89,4.41,7.319,9.06H1140.561z
		 M1148.54,259.676c-0.149-2.16-1.56-4.11-3.899-4.11c-2.37,0-3.99,1.8-4.08,4.11H1148.54z"/>
	<path fill="#333333" d="M1169.18,268.796h-3.239v-2.1h-0.061c-0.93,1.8-2.85,2.52-4.8,2.52c-4.89,0-7.26-3.63-7.26-8.28
		c0-5.64,3.33-8.069,6.72-8.069c1.92,0,4.11,0.72,5.16,2.43h0.06v-7.919h3.42V268.796z M1161.53,266.516
		c3.029,0,4.35-2.79,4.35-5.49c0-3.45-1.649-5.46-4.29-5.46c-3.21,0-4.35,2.88-4.35,5.64
		C1157.24,263.876,1158.561,266.516,1161.53,266.516z"/>
	<path fill="#333333" d="M1201.1,258.086c0,6.15-3.87,11.219-10.26,11.219s-10.26-5.069-10.26-11.219c0-6.09,3.87-11.22,10.26-11.22
		S1201.1,251.997,1201.1,258.086z M1184.33,258.086c0,4.11,1.92,8.16,6.51,8.16s6.51-4.05,6.51-8.16s-1.92-8.16-6.51-8.16
		S1184.33,253.977,1184.33,258.086z"/>
	<path fill="#333333" d="M1202.51,253.287h2.551v-1.29c0-3.96,2.069-4.62,4.289-4.62c1.11,0,1.891,0.06,2.4,0.21v2.67
		c-0.45-0.12-0.9-0.18-1.59-0.18c-0.931,0-1.68,0.33-1.68,1.62v1.59h2.909v2.55h-2.909v12.959h-3.42v-12.959h-2.551V253.287z"/>
	<path fill="#333333" d="M1211.449,253.287H1214v-1.29c0-3.96,2.069-4.62,4.289-4.62c1.11,0,1.891,0.06,2.4,0.21v2.67
		c-0.45-0.12-0.9-0.18-1.59-0.18c-0.931,0-1.68,0.33-1.68,1.62v1.59h2.909v2.55h-2.909v12.959H1214v-12.959h-2.551V253.287z"/>
	<path fill="#333333" d="M1225.099,261.926c0,2.43,1.32,4.59,4.17,4.59c2.01,0,3.18-0.87,3.78-2.58h3.239
		c-0.72,3.39-3.659,5.28-7.02,5.28c-4.89,0-7.59-3.36-7.59-8.16c0-4.41,2.88-8.189,7.5-8.189c4.89,0,7.89,4.41,7.319,9.06H1225.099z
		 M1233.078,259.676c-0.149-2.16-1.56-4.11-3.899-4.11c-2.37,0-3.99,1.8-4.08,4.11H1233.078z"/>
	<path fill="#333333" d="M1239.108,253.287h3.21v3h0.06c0.391-1.65,2.46-3.42,4.53-3.42c0.81,0,0.96,0.06,1.29,0.09v3.3
		c-0.48-0.09-0.99-0.15-1.47-0.15c-2.311,0-4.2,1.86-4.2,5.31v7.38h-3.42V253.287z"/>
	<path fill="#333333" d="M1249.758,247.377h3.42v3.24h-3.42V247.377z M1249.758,253.287h3.42v15.509h-3.42V253.287z"/>
	<path fill="#333333" d="M1256.897,253.287h3.24v2.28l0.06,0.06c1.05-1.71,2.79-2.76,4.83-2.76c3.39,0,5.489,1.77,5.489,5.28v10.649
		h-3.419v-9.75c-0.091-2.43-0.99-3.48-3.03-3.48c-2.28,0-3.75,1.8-3.75,4.08v9.149h-3.42V253.287z"/>
	<path fill="#333333" d="M1288.457,267.986c0,4.68-2.7,6.96-7.62,6.96c-3.12,0-6.6-1.2-6.93-4.83h3.42
		c0.42,1.95,1.979,2.28,3.72,2.28c2.76,0,3.99-1.41,3.99-3.959v-2.37h-0.061c-0.96,1.71-2.729,2.73-4.649,2.73
		c-4.92,0-6.96-3.72-6.96-8.16c0-4.17,2.61-7.77,7.02-7.77c1.95,0,3.72,0.78,4.59,2.55h0.061v-2.13h3.42V267.986z M1285.037,260.696
		c0-2.67-1.2-5.13-4.17-5.13c-3.03,0-4.08,2.82-4.08,5.4c0,2.52,1.23,5.13,4.08,5.13
		C1283.896,266.096,1285.037,263.366,1285.037,260.696z"/>
</g>
<g>
	<path fill="#333333" d="M602.188,395.577h17.339v3.24h-6.81v18.179h-3.75v-18.179h-6.779V395.577z"/>
	<path fill="#333333" d="M621.538,395.577h3.42v7.95h0.06c0.84-1.41,2.61-2.46,4.65-2.46c3.39,0,5.49,1.77,5.49,5.28v10.649h-3.42
		v-9.75c-0.09-2.43-0.99-3.48-3.03-3.48c-2.28,0-3.75,1.8-3.75,4.08v9.149h-3.42V395.577z"/>
	<path fill="#333333" d="M641.427,410.126c0,2.43,1.32,4.59,4.17,4.59c2.01,0,3.18-0.87,3.78-2.58h3.24
		c-0.72,3.39-3.66,5.28-7.02,5.28c-4.89,0-7.59-3.36-7.59-8.16c0-4.41,2.88-8.189,7.5-8.189c4.89,0,7.89,4.41,7.319,9.06H641.427z
		 M649.407,407.876c-0.15-2.16-1.56-4.11-3.9-4.11c-2.37,0-3.99,1.8-4.08,4.11H649.407z"/>
	<path fill="#333333" d="M664.257,395.577h8.88c6.6,0,9.45,4.8,9.45,10.709s-2.85,10.709-9.45,10.709h-8.88V395.577z
		 M668.007,413.936h3.69c5.88,0,7.14-3.33,7.14-7.649s-1.26-7.65-7.14-7.65h-3.69V413.936z"/>
	<path fill="#333333" d="M685.827,395.577h3.75v8.52h9.75v-8.52h3.75v21.419h-3.75v-9.66h-9.75v9.66h-3.75V395.577z"/>
	<path fill="#333333" d="M707.577,395.577h14.79v3.24h-11.04v5.61h9.689v3.06h-9.689v9.51h-3.75V395.577z"/>
	<path fill="#333333" d="M733.316,395.577h3.419v3.24h-3.419V395.577z M733.316,401.487h3.419v15.509h-3.419V401.487z"/>
	<path fill="#333333" d="M743.036,412.016c0.21,2.01,1.68,2.7,3.51,2.7c1.32,0,3.54-0.27,3.45-2.04c-0.09-1.8-2.58-2.01-5.07-2.58
		c-2.52-0.54-4.979-1.44-4.979-4.59c0-3.39,3.66-4.439,6.479-4.439c3.18,0,6.09,1.29,6.48,4.77h-3.57
		c-0.33-1.65-1.62-2.07-3.15-2.07c-0.99,0-2.82,0.24-2.82,1.59c0,1.68,2.52,1.95,5.04,2.49c2.49,0.57,5.01,1.47,5.01,4.53
		c0,3.689-3.72,5.04-6.93,5.04c-3.93,0-6.78-1.74-6.87-5.4H743.036z"/>
	<path fill="#333333" d="M777.355,413.546c0,0.84,0.18,1.17,0.81,1.17h0.36c0.15,0,0.3-0.03,0.48-0.06v2.37
		c-0.51,0.18-1.59,0.39-2.16,0.39c-1.41,0-2.37-0.48-2.64-1.89c-1.35,1.32-3.54,1.89-5.37,1.89c-2.79,0-5.31-1.5-5.31-4.53
		c0-3.87,3.09-4.5,5.97-4.83c2.49-0.48,4.65-0.15,4.65-2.19c0-1.8-1.86-2.1-3.21-2.1c-1.92,0-3.27,0.78-3.42,2.46h-3.42
		c0.24-3.99,3.6-5.16,7.05-5.16c3.03,0,6.21,1.23,6.21,4.5V413.546z M773.936,409.227c-1.05,0.69-2.67,0.66-4.2,0.93
		c-1.47,0.24-2.79,0.78-2.79,2.58c0,1.56,1.95,1.98,3.15,1.98c1.5,0,3.84-0.78,3.84-2.94V409.227z"/>
	<path fill="#333333" d="M791.966,412.016c0.21,2.01,1.68,2.7,3.51,2.7c1.32,0,3.54-0.27,3.45-2.04c-0.09-1.8-2.58-2.01-5.07-2.58
		c-2.52-0.54-4.979-1.44-4.979-4.59c0-3.39,3.66-4.439,6.479-4.439c3.18,0,6.09,1.29,6.48,4.77h-3.57
		c-0.33-1.65-1.62-2.07-3.15-2.07c-0.99,0-2.82,0.24-2.82,1.59c0,1.68,2.52,1.95,5.04,2.49c2.49,0.57,5.01,1.47,5.01,4.53
		c0,3.689-3.72,5.04-6.93,5.04c-3.93,0-6.78-1.74-6.87-5.4H791.966z"/>
	<path fill="#333333" d="M818.575,416.996h-3.36v-2.16h-0.06c-0.84,1.56-2.7,2.58-4.41,2.58c-4.08,0-5.79-2.01-5.79-6.09v-9.839
		h3.42v9.509c0,2.73,1.08,3.72,2.97,3.72c2.85,0,3.81-1.83,3.81-4.23v-9h3.42V416.996z"/>
	<path fill="#333333" d="M822.175,401.487h3.24v2.16h0.09c1.05-1.53,2.28-2.58,4.77-2.58c1.89,0,3.66,0.81,4.35,2.58
		c1.17-1.59,2.58-2.58,4.86-2.58c3.27,0,5.189,1.47,5.189,5.22v10.709h-3.419v-9.06c0-2.49-0.15-4.17-2.82-4.17
		c-2.31,0-3.3,1.5-3.3,4.14v9.09h-3.42v-9.959c0-2.16-0.66-3.27-2.729-3.27c-1.77,0-3.39,1.47-3.39,4.02v9.209h-3.42V401.487z"/>
	<path fill="#333333" d="M848.275,401.487h3.24v2.16h0.09c1.05-1.53,2.28-2.58,4.77-2.58c1.89,0,3.66,0.81,4.35,2.58
		c1.17-1.59,2.58-2.58,4.86-2.58c3.27,0,5.189,1.47,5.189,5.22v10.709h-3.42v-9.06c0-2.49-0.15-4.17-2.82-4.17
		c-2.31,0-3.3,1.5-3.3,4.14v9.09h-3.42v-9.959c0-2.16-0.66-3.27-2.729-3.27c-1.77,0-3.39,1.47-3.39,4.02v9.209h-3.42V401.487z"/>
	<path fill="#333333" d="M887.365,413.546c0,0.84,0.18,1.17,0.81,1.17h0.36c0.15,0,0.3-0.03,0.48-0.06v2.37
		c-0.51,0.18-1.59,0.39-2.16,0.39c-1.41,0-2.37-0.48-2.64-1.89c-1.35,1.32-3.54,1.89-5.37,1.89c-2.79,0-5.31-1.5-5.31-4.53
		c0-3.87,3.09-4.5,5.97-4.83c2.49-0.48,4.65-0.15,4.65-2.19c0-1.8-1.86-2.1-3.21-2.1c-1.92,0-3.27,0.78-3.42,2.46h-3.42
		c0.24-3.99,3.6-5.16,7.05-5.16c3.03,0,6.21,1.23,6.21,4.5V413.546z M883.945,409.227c-1.05,0.69-2.67,0.66-4.2,0.93
		c-1.47,0.24-2.79,0.78-2.79,2.58c0,1.56,1.95,1.98,3.15,1.98c1.5,0,3.84-0.78,3.84-2.94V409.227z"/>
	<path fill="#333333" d="M889.495,401.487h2.58v-4.65h3.42v4.65h3.09v2.55h-3.09v8.28c0,1.41,0.12,2.13,1.65,2.13
		c0.48,0,0.96,0,1.44-0.12v2.64c-0.75,0.09-1.47,0.18-2.22,0.18c-3.6,0-4.2-1.38-4.29-3.96v-9.149h-2.58V401.487z"/>
	<path fill="#333333" d="M901.135,395.577h3.419v3.24h-3.419V395.577z M901.135,401.487h3.419v15.509h-3.419V401.487z"/>
	<path fill="#333333" d="M907.555,409.227c0-4.71,2.88-8.16,7.83-8.16s7.83,3.45,7.83,8.16c0,4.77-2.88,8.189-7.83,8.189
		S907.555,413.996,907.555,409.227z M919.794,409.227c0-2.67-1.35-5.46-4.41-5.46s-4.41,2.79-4.41,5.46c0,2.7,1.35,5.49,4.41,5.49
		S919.794,411.926,919.794,409.227z"/>
	<path fill="#333333" d="M926.064,401.487h3.24v2.28l0.06,0.06c1.05-1.71,2.79-2.76,4.83-2.76c3.39,0,5.49,1.77,5.49,5.28v10.649
		h-3.42v-9.75c-0.09-2.43-0.99-3.48-3.03-3.48c-2.28,0-3.75,1.8-3.75,4.08v9.149h-3.42V401.487z"/>
	<path fill="#333333" d="M951.624,401.487h3.21v3h0.06c0.39-1.65,2.46-3.42,4.53-3.42c0.81,0,0.96,0.06,1.29,0.09v3.3
		c-0.48-0.09-0.99-0.15-1.47-0.15c-2.31,0-4.2,1.86-4.2,5.31v7.38h-3.42V401.487z"/>
	<path fill="#333333" d="M964.344,410.126c0,2.43,1.32,4.59,4.17,4.59c2.01,0,3.18-0.87,3.78-2.58h3.24
		c-0.72,3.39-3.66,5.28-7.02,5.28c-4.89,0-7.59-3.36-7.59-8.16c0-4.41,2.88-8.189,7.5-8.189c4.89,0,7.89,4.41,7.319,9.06H964.344z
		 M972.324,407.876c-0.15-2.16-1.56-4.11-3.9-4.11c-2.37,0-3.99,1.8-4.08,4.11H972.324z"/>
	<path fill="#333333" d="M988.824,406.677c-0.27-1.92-1.62-2.91-3.54-2.91c-1.77,0-4.26,0.96-4.26,5.64c0,2.58,1.14,5.31,4.11,5.31
		c2.01,0,3.36-1.29,3.69-3.54h3.42c-0.63,4.05-3.12,6.24-7.11,6.24c-4.86,0-7.53-3.45-7.53-8.01c0-4.68,2.55-8.339,7.65-8.339
		c3.6,0,6.66,1.8,6.99,5.61H988.824z"/>
	<path fill="#333333" d="M994.314,409.227c0-4.71,2.88-8.16,7.83-8.16s7.83,3.45,7.83,8.16c0,4.77-2.88,8.189-7.83,8.189
		S994.314,413.996,994.314,409.227z M1006.554,409.227c0-2.67-1.35-5.46-4.41-5.46s-4.41,2.79-4.41,5.46c0,2.7,1.35,5.49,4.41,5.49
		S1006.554,411.926,1006.554,409.227z"/>
	<path fill="#333333" d="M1012.824,401.487h3.21v3h0.06c0.39-1.65,2.46-3.42,4.53-3.42c0.81,0,0.96,0.06,1.29,0.09v3.3
		c-0.48-0.09-0.99-0.15-1.47-0.15c-2.31,0-4.2,1.86-4.2,5.31v7.38h-3.42V401.487z"/>
	<path fill="#333333" d="M1037.482,416.996h-3.239v-2.1h-0.061c-0.93,1.8-2.85,2.52-4.8,2.52c-4.89,0-7.26-3.63-7.26-8.28
		c0-5.64,3.33-8.069,6.72-8.069c1.92,0,4.11,0.72,5.16,2.43h0.06v-7.919h3.42V416.996z M1029.833,414.716
		c3.029,0,4.35-2.79,4.35-5.49c0-3.45-1.649-5.46-4.29-5.46c-3.21,0-4.35,2.88-4.35,5.64
		C1025.543,412.076,1026.863,414.716,1029.833,414.716z"/>
	<path fill="#333333" d="M1048.823,409.227c0-4.71,2.88-8.16,7.829-8.16c4.95,0,7.83,3.45,7.83,8.16c0,4.77-2.88,8.189-7.83,8.189
		C1051.703,417.416,1048.823,413.996,1048.823,409.227z M1061.062,409.227c0-2.67-1.35-5.46-4.41-5.46
		c-3.06,0-4.409,2.79-4.409,5.46c0,2.7,1.35,5.49,4.409,5.49C1059.713,414.716,1061.062,411.926,1061.062,409.227z"/>
	<path fill="#333333" d="M1065.803,401.487h2.551v-1.29c0-3.96,2.069-4.62,4.289-4.62c1.11,0,1.891,0.06,2.4,0.21v2.67
		c-0.45-0.12-0.9-0.18-1.59-0.18c-0.931,0-1.68,0.33-1.68,1.62v1.59h2.909v2.55h-2.909v12.959h-3.42v-12.959h-2.551V401.487z"/>
	<path fill="#333333" d="M1098.111,413.546c0,0.84,0.181,1.17,0.811,1.17h0.359c0.15,0,0.301-0.03,0.48-0.06v2.37
		c-0.51,0.18-1.59,0.39-2.16,0.39c-1.41,0-2.37-0.48-2.64-1.89c-1.35,1.32-3.54,1.89-5.37,1.89c-2.79,0-5.31-1.5-5.31-4.53
		c0-3.87,3.09-4.5,5.97-4.83c2.49-0.48,4.649-0.15,4.649-2.19c0-1.8-1.859-2.1-3.209-2.1c-1.92,0-3.271,0.78-3.42,2.46h-3.42
		c0.239-3.99,3.6-5.16,7.05-5.16c3.029,0,6.209,1.23,6.209,4.5V413.546z M1094.691,409.227c-1.05,0.69-2.67,0.66-4.199,0.93
		c-1.47,0.24-2.79,0.78-2.79,2.58c0,1.56,1.95,1.98,3.149,1.98c1.5,0,3.84-0.78,3.84-2.94V409.227z"/>
	<path fill="#333333" d="M1101.892,395.577h3.42v21.419h-3.42V395.577z"/>
	<path fill="#333333" d="M1109.121,395.577h3.42v21.419h-3.42V395.577z"/>
	<path fill="#333333" d="M1125.081,395.577h8.879c6.601,0,9.45,4.8,9.45,10.709s-2.85,10.709-9.45,10.709h-8.879V395.577z
		 M1128.83,413.936h3.69c5.88,0,7.14-3.33,7.14-7.649s-1.26-7.65-7.14-7.65h-3.69V413.936z"/>
	<path fill="#333333" d="M1148.93,410.126c0,2.43,1.32,4.59,4.17,4.59c2.01,0,3.18-0.87,3.78-2.58h3.239
		c-0.72,3.39-3.66,5.28-7.02,5.28c-4.89,0-7.59-3.36-7.59-8.16c0-4.41,2.88-8.189,7.5-8.189c4.89,0,7.89,4.41,7.319,9.06H1148.93z
		 M1156.909,407.876c-0.149-2.16-1.56-4.11-3.899-4.11c-2.37,0-3.99,1.8-4.08,4.11H1156.909z"/>
	<path fill="#333333" d="M1165.52,412.016c0.21,2.01,1.68,2.7,3.51,2.7c1.32,0,3.54-0.27,3.45-2.04c-0.09-1.8-2.58-2.01-5.07-2.58
		c-2.52-0.54-4.979-1.44-4.979-4.59c0-3.39,3.66-4.439,6.479-4.439c3.18,0,6.09,1.29,6.479,4.77h-3.569
		c-0.33-1.65-1.62-2.07-3.15-2.07c-0.989,0-2.819,0.24-2.819,1.59c0,1.68,2.52,1.95,5.04,2.49c2.489,0.57,5.01,1.47,5.01,4.53
		c0,3.689-3.72,5.04-6.93,5.04c-3.931,0-6.78-1.74-6.87-5.4H1165.52z"/>
	<path fill="#333333" d="M1178.6,395.577h3.42v3.24h-3.42V395.577z M1178.6,401.487h3.42v15.509h-3.42V401.487z"/>
	<path fill="#333333" d="M1200.079,416.186c0,4.68-2.7,6.96-7.62,6.96c-3.12,0-6.6-1.2-6.93-4.83h3.42
		c0.42,1.95,1.979,2.28,3.72,2.28c2.76,0,3.99-1.41,3.99-3.959v-2.37h-0.061c-0.96,1.71-2.729,2.73-4.649,2.73
		c-4.92,0-6.96-3.72-6.96-8.16c0-4.17,2.61-7.77,7.02-7.77c1.95,0,3.72,0.78,4.59,2.55h0.061v-2.13h3.42V416.186z M1196.659,408.896
		c0-2.67-1.2-5.13-4.17-5.13c-3.03,0-4.08,2.82-4.08,5.4c0,2.52,1.23,5.13,4.08,5.13
		C1195.519,414.296,1196.659,411.566,1196.659,408.896z"/>
	<path fill="#333333" d="M1203.529,401.487h3.24v2.28l0.06,0.06c1.05-1.71,2.79-2.76,4.83-2.76c3.39,0,5.489,1.77,5.489,5.28v10.649
		h-3.42v-9.75c-0.09-2.43-0.989-3.48-3.029-3.48c-2.28,0-3.75,1.8-3.75,4.08v9.149h-3.42V401.487z"/>
	<path fill="#333333" d="M1242.078,413.546c0,0.84,0.181,1.17,0.811,1.17h0.359c0.15,0,0.301-0.03,0.48-0.06v2.37
		c-0.51,0.18-1.59,0.39-2.16,0.39c-1.41,0-2.37-0.48-2.64-1.89c-1.35,1.32-3.54,1.89-5.37,1.89c-2.79,0-5.31-1.5-5.31-4.53
		c0-3.87,3.09-4.5,5.97-4.83c2.49-0.48,4.649-0.15,4.649-2.19c0-1.8-1.859-2.1-3.209-2.1c-1.92,0-3.271,0.78-3.42,2.46h-3.42
		c0.239-3.99,3.6-5.16,7.05-5.16c3.029,0,6.209,1.23,6.209,4.5V413.546z M1238.658,409.227c-1.05,0.69-2.67,0.66-4.199,0.93
		c-1.47,0.24-2.79,0.78-2.79,2.58c0,1.56,1.95,1.98,3.149,1.98c1.5,0,3.84-0.78,3.84-2.94V409.227z"/>
	<path fill="#333333" d="M1256.238,406.677c-0.27-1.92-1.62-2.91-3.54-2.91c-1.77,0-4.26,0.96-4.26,5.64c0,2.58,1.14,5.31,4.11,5.31
		c2.01,0,3.359-1.29,3.689-3.54h3.42c-0.63,4.05-3.12,6.24-7.109,6.24c-4.86,0-7.53-3.45-7.53-8.01c0-4.68,2.55-8.339,7.649-8.339
		c3.601,0,6.66,1.8,6.99,5.61H1256.238z"/>
	<path fill="#333333" d="M1260.889,401.487h2.58v-4.65h3.42v4.65h3.09v2.55h-3.09v8.28c0,1.41,0.119,2.13,1.649,2.13
		c0.48,0,0.96,0,1.44-0.12v2.64c-0.75,0.09-1.471,0.18-2.221,0.18c-3.6,0-4.199-1.38-4.289-3.96v-9.149h-2.58V401.487z"/>
	<path fill="#333333" d="M1272.528,395.577h3.42v3.24h-3.42V395.577z M1272.528,401.487h3.42v15.509h-3.42V401.487z"/>
	<path fill="#333333" d="M1278.948,409.227c0-4.71,2.88-8.16,7.829-8.16c4.95,0,7.83,3.45,7.83,8.16c0,4.77-2.88,8.189-7.83,8.189
		C1281.828,417.416,1278.948,413.996,1278.948,409.227z M1291.188,409.227c0-2.67-1.35-5.46-4.41-5.46
		c-3.06,0-4.409,2.79-4.409,5.46c0,2.7,1.35,5.49,4.409,5.49C1289.838,414.716,1291.188,411.926,1291.188,409.227z"/>
	<path fill="#333333" d="M1297.458,401.487h3.24v2.28l0.06,0.06c1.05-1.71,2.79-2.76,4.83-2.76c3.39,0,5.489,1.77,5.489,5.28v10.649
		h-3.419v-9.75c-0.091-2.43-0.99-3.48-3.03-3.48c-2.28,0-3.75,1.8-3.75,4.08v9.149h-3.42V401.487z"/>
	<path fill="#333333" d="M1317.258,412.016c0.21,2.01,1.68,2.7,3.51,2.7c1.32,0,3.54-0.27,3.45-2.04c-0.09-1.8-2.58-2.01-5.07-2.58
		c-2.52-0.54-4.979-1.44-4.979-4.59c0-3.39,3.66-4.439,6.479-4.439c3.18,0,6.09,1.29,6.479,4.77h-3.569
		c-0.33-1.65-1.62-2.07-3.15-2.07c-0.989,0-2.819,0.24-2.819,1.59c0,1.68,2.52,1.95,5.04,2.49c2.489,0.57,5.01,1.47,5.01,4.53
		c0,3.689-3.72,5.04-6.93,5.04c-3.931,0-6.78-1.74-6.87-5.4H1317.258z"/>
	<path fill="#333333" d="M1337.058,401.487h2.551v-1.29c0-3.96,2.069-4.62,4.289-4.62c1.11,0,1.891,0.06,2.4,0.21v2.67
		c-0.45-0.12-0.9-0.18-1.59-0.18c-0.931,0-1.681,0.33-1.681,1.62v1.59h2.91v2.55h-2.91v12.959h-3.419v-12.959h-2.551V401.487z"/>
	<path fill="#333333" d="M1348.037,401.487h3.21v3h0.06c0.391-1.65,2.46-3.42,4.53-3.42c0.81,0,0.96,0.06,1.29,0.09v3.3
		c-0.48-0.09-0.99-0.15-1.47-0.15c-2.311,0-4.2,1.86-4.2,5.31v7.38h-3.42V401.487z"/>
	<path fill="#333333" d="M1357.366,409.227c0-4.71,2.88-8.16,7.829-8.16c4.95,0,7.83,3.45,7.83,8.16c0,4.77-2.88,8.189-7.83,8.189
		C1360.246,417.416,1357.366,413.996,1357.366,409.227z M1369.605,409.227c0-2.67-1.35-5.46-4.41-5.46
		c-3.06,0-4.409,2.79-4.409,5.46c0,2.7,1.35,5.49,4.409,5.49C1368.256,414.716,1369.605,411.926,1369.605,409.227z"/>
	<path fill="#333333" d="M1375.876,401.487h3.24v2.16h0.09c1.05-1.53,2.28-2.58,4.77-2.58c1.89,0,3.66,0.81,4.35,2.58
		c1.17-1.59,2.58-2.58,4.86-2.58c3.27,0,5.189,1.47,5.189,5.22v10.709h-3.42v-9.06c0-2.49-0.149-4.17-2.819-4.17
		c-2.311,0-3.3,1.5-3.3,4.14v9.09h-3.42v-9.959c0-2.16-0.66-3.27-2.73-3.27c-1.77,0-3.39,1.47-3.39,4.02v9.209h-3.42V401.487z"/>
</g>
<g>
	<path fill="#333333" d="M606.328,448.016c0.21,2.01,1.68,2.7,3.51,2.7c1.32,0,3.54-0.27,3.45-2.04c-0.09-1.8-2.58-2.01-5.07-2.58
		c-2.52-0.54-4.979-1.44-4.979-4.59c0-3.39,3.66-4.439,6.479-4.439c3.18,0,6.09,1.29,6.48,4.77h-3.57
		c-0.33-1.65-1.62-2.07-3.15-2.07c-0.99,0-2.82,0.24-2.82,1.59c0,1.68,2.52,1.95,5.04,2.49c2.49,0.57,5.01,1.47,5.01,4.53
		c0,3.689-3.72,5.04-6.93,5.04c-3.93,0-6.78-1.74-6.87-5.4H606.328z"/>
	<path fill="#333333" d="M617.758,437.487h2.58v-4.65h3.42v4.65h3.09v2.55h-3.09v8.28c0,1.41,0.12,2.13,1.65,2.13
		c0.48,0,0.96,0,1.44-0.12v2.64c-0.75,0.09-1.47,0.18-2.22,0.18c-3.6,0-4.2-1.38-4.29-3.96v-9.149h-2.58V437.487z"/>
	<path fill="#333333" d="M642.297,449.546c0,0.84,0.18,1.17,0.81,1.17h0.36c0.15,0,0.3-0.03,0.48-0.06v2.37
		c-0.51,0.18-1.59,0.39-2.16,0.39c-1.41,0-2.37-0.48-2.64-1.89c-1.35,1.32-3.54,1.89-5.37,1.89c-2.79,0-5.31-1.5-5.31-4.53
		c0-3.87,3.09-4.5,5.97-4.83c2.49-0.48,4.65-0.15,4.65-2.19c0-1.8-1.86-2.1-3.21-2.1c-1.92,0-3.27,0.78-3.42,2.46h-3.42
		c0.24-3.99,3.6-5.16,7.05-5.16c3.03,0,6.21,1.23,6.21,4.5V449.546z M638.877,445.227c-1.05,0.69-2.67,0.66-4.2,0.93
		c-1.47,0.24-2.79,0.78-2.79,2.58c0,1.56,1.95,1.98,3.15,1.98c1.5,0,3.84-0.78,3.84-2.94V445.227z"/>
	<path fill="#333333" d="M645.988,437.487h3.21v3h0.06c0.39-1.65,2.46-3.42,4.53-3.42c0.81,0,0.96,0.06,1.29,0.09v3.3
		c-0.48-0.09-0.99-0.15-1.47-0.15c-2.31,0-4.2,1.86-4.2,5.31v7.38h-3.42V437.487z"/>
	<path fill="#333333" d="M654.987,437.487h2.58v-4.65h3.42v4.65h3.09v2.55h-3.09v8.28c0,1.41,0.12,2.13,1.65,2.13
		c0.48,0,0.96,0,1.44-0.12v2.64c-0.75,0.09-1.47,0.18-2.22,0.18c-3.6,0-4.2-1.38-4.29-3.96v-9.149h-2.58V437.487z"/>
	<path fill="#333333" d="M673.317,437.487h2.58v-4.65h3.42v4.65h3.09v2.55h-3.09v8.28c0,1.41,0.12,2.13,1.65,2.13
		c0.48,0,0.96,0,1.44-0.12v2.64c-0.75,0.09-1.47,0.18-2.22,0.18c-3.6,0-4.2-1.38-4.29-3.96v-9.149h-2.58V437.487z"/>
	<path fill="#333333" d="M684.147,445.227c0-4.71,2.88-8.16,7.83-8.16s7.83,3.45,7.83,8.16c0,4.77-2.88,8.189-7.83,8.189
		S684.147,449.996,684.147,445.227z M696.386,445.227c0-2.67-1.35-5.46-4.41-5.46s-4.41,2.79-4.41,5.46c0,2.7,1.35,5.49,4.41,5.49
		S696.386,447.926,696.386,445.227z"/>
	<path fill="#333333" d="M709.437,437.487h2.58v-4.65h3.42v4.65h3.09v2.55h-3.09v8.28c0,1.41,0.12,2.13,1.65,2.13
		c0.48,0,0.96,0,1.44-0.12v2.64c-0.75,0.09-1.47,0.18-2.22,0.18c-3.6,0-4.2-1.38-4.29-3.96v-9.149h-2.58V437.487z"/>
	<path fill="#333333" d="M720.986,437.487h3.21v3h0.06c0.39-1.65,2.46-3.42,4.53-3.42c0.81,0,0.96,0.06,1.29,0.09v3.3
		c-0.48-0.09-0.99-0.15-1.47-0.15c-2.31,0-4.2,1.86-4.2,5.31v7.38h-3.42V437.487z"/>
	<path fill="#333333" d="M744.535,449.546c0,0.84,0.18,1.17,0.81,1.17h0.36c0.15,0,0.3-0.03,0.48-0.06v2.37
		c-0.51,0.18-1.59,0.39-2.16,0.39c-1.41,0-2.37-0.48-2.64-1.89c-1.35,1.32-3.54,1.89-5.37,1.89c-2.79,0-5.31-1.5-5.31-4.53
		c0-3.87,3.09-4.5,5.97-4.83c2.49-0.48,4.65-0.15,4.65-2.19c0-1.8-1.86-2.1-3.21-2.1c-1.92,0-3.27,0.78-3.42,2.46h-3.42
		c0.24-3.99,3.6-5.16,7.05-5.16c3.03,0,6.21,1.23,6.21,4.5V449.546z M741.115,445.227c-1.05,0.69-2.67,0.66-4.2,0.93
		c-1.47,0.24-2.79,0.78-2.79,2.58c0,1.56,1.95,1.98,3.15,1.98c1.5,0,3.84-0.78,3.84-2.94V445.227z"/>
	<path fill="#333333" d="M748.226,437.487h3.24v2.28l0.06,0.06c1.05-1.71,2.79-2.76,4.83-2.76c3.39,0,5.49,1.77,5.49,5.28v10.649
		h-3.42v-9.75c-0.09-2.43-0.99-3.48-3.03-3.48c-2.28,0-3.75,1.8-3.75,4.08v9.149h-3.42V437.487z"/>
	<path fill="#333333" d="M768.025,448.016c0.21,2.01,1.68,2.7,3.51,2.7c1.32,0,3.54-0.27,3.45-2.04c-0.09-1.8-2.58-2.01-5.07-2.58
		c-2.52-0.54-4.979-1.44-4.979-4.59c0-3.39,3.66-4.439,6.479-4.439c3.18,0,6.09,1.29,6.48,4.77h-3.57
		c-0.33-1.65-1.62-2.07-3.15-2.07c-0.99,0-2.82,0.24-2.82,1.59c0,1.68,2.52,1.95,5.04,2.49c2.49,0.57,5.01,1.47,5.01,4.53
		c0,3.689-3.72,5.04-6.93,5.04c-3.93,0-6.78-1.74-6.87-5.4H768.025z"/>
	<path fill="#333333" d="M779.485,437.487h2.55v-1.29c0-3.96,2.07-4.62,4.29-4.62c1.11,0,1.89,0.06,2.4,0.21v2.67
		c-0.45-0.12-0.9-0.18-1.59-0.18c-0.93,0-1.68,0.33-1.68,1.62v1.59h2.91v2.55h-2.91v12.959h-3.42v-12.959h-2.55V437.487z"/>
	<path fill="#333333" d="M793.135,446.126c0,2.43,1.32,4.59,4.17,4.59c2.01,0,3.18-0.87,3.78-2.58h3.24
		c-0.72,3.39-3.66,5.28-7.02,5.28c-4.89,0-7.59-3.36-7.59-8.16c0-4.41,2.88-8.189,7.5-8.189c4.89,0,7.89,4.41,7.319,9.06H793.135z
		 M801.115,443.876c-0.15-2.16-1.56-4.11-3.9-4.11c-2.37,0-3.99,1.8-4.08,4.11H801.115z"/>
	<path fill="#333333" d="M807.145,437.487h3.21v3h0.06c0.39-1.65,2.46-3.42,4.53-3.42c0.81,0,0.96,0.06,1.29,0.09v3.3
		c-0.48-0.09-0.99-0.15-1.47-0.15c-2.31,0-4.2,1.86-4.2,5.31v7.38h-3.42V437.487z"/>
	<path fill="#333333" d="M815.215,448.946h4.17v4.05c-0.03,2.49-1.65,4.26-4.05,4.74v-1.83c1.32-0.33,1.98-1.62,1.95-2.91h-2.07
		V448.946z"/>
	<path fill="#333333" d="M831.715,431.577h3.419v3.24h-3.419V431.577z M831.715,437.487h3.419v15.509h-3.419V437.487z"/>
	<path fill="#333333" d="M838.854,437.487h3.24v2.28l0.06,0.06c1.05-1.71,2.79-2.76,4.83-2.76c3.39,0,5.49,1.77,5.49,5.28v10.649
		h-3.42v-9.75c-0.09-2.43-0.99-3.48-3.03-3.48c-2.28,0-3.75,1.8-3.75,4.08v9.149h-3.42V437.487z"/>
	<path fill="#333333" d="M866.544,442.677c-0.27-1.92-1.62-2.91-3.54-2.91c-1.77,0-4.26,0.96-4.26,5.64c0,2.58,1.14,5.31,4.11,5.31
		c2.01,0,3.36-1.29,3.69-3.54h3.42c-0.63,4.05-3.12,6.24-7.11,6.24c-4.86,0-7.53-3.45-7.53-8.01c0-4.68,2.55-8.339,7.65-8.339
		c3.6,0,6.66,1.8,6.99,5.61H866.544z"/>
	<path fill="#333333" d="M872.845,431.577h3.419v21.419h-3.419V431.577z"/>
	<path fill="#333333" d="M893.604,452.996h-3.36v-2.16h-0.06c-0.84,1.56-2.7,2.58-4.41,2.58c-4.08,0-5.79-2.01-5.79-6.09v-9.839
		h3.42v9.509c0,2.73,1.08,3.72,2.97,3.72c2.85,0,3.81-1.83,3.81-4.23v-9h3.42V452.996z"/>
	<path fill="#333333" d="M911.813,452.996h-3.24v-2.1h-0.06c-0.93,1.8-2.85,2.52-4.8,2.52c-4.89,0-7.26-3.63-7.26-8.28
		c0-5.64,3.33-8.069,6.72-8.069c1.92,0,4.11,0.72,5.16,2.43h0.06v-7.919h3.42V452.996z M904.164,450.716c3.03,0,4.35-2.79,4.35-5.49
		c0-3.45-1.65-5.46-4.29-5.46c-3.21,0-4.35,2.88-4.35,5.64C899.874,448.076,901.194,450.716,904.164,450.716z"/>
	<path fill="#333333" d="M915.624,431.577h3.419v3.24h-3.419V431.577z M915.624,437.487h3.419v15.509h-3.419V437.487z"/>
	<path fill="#333333" d="M922.764,437.487h3.24v2.28l0.06,0.06c1.05-1.71,2.79-2.76,4.83-2.76c3.39,0,5.49,1.77,5.49,5.28v10.649
		h-3.42v-9.75c-0.09-2.43-0.99-3.48-3.03-3.48c-2.28,0-3.75,1.8-3.75,4.08v9.149h-3.42V437.487z"/>
	<path fill="#333333" d="M954.323,452.186c0,4.68-2.7,6.96-7.62,6.96c-3.12,0-6.6-1.2-6.93-4.83h3.42c0.42,1.95,1.98,2.28,3.72,2.28
		c2.76,0,3.99-1.41,3.99-3.959v-2.37h-0.06c-0.96,1.71-2.73,2.73-4.65,2.73c-4.92,0-6.96-3.72-6.96-8.16c0-4.17,2.61-7.77,7.02-7.77
		c1.95,0,3.72,0.78,4.59,2.55h0.06v-2.13h3.419V452.186z M950.903,444.896c0-2.67-1.2-5.13-4.17-5.13c-3.03,0-4.08,2.82-4.08,5.4
		c0,2.52,1.23,5.13,4.08,5.13C949.763,450.296,950.903,447.566,950.903,444.896z"/>
	<path fill="#333333" d="M976.583,442.677c-0.27-1.92-1.62-2.91-3.54-2.91c-1.77,0-4.26,0.96-4.26,5.64c0,2.58,1.14,5.31,4.11,5.31
		c2.01,0,3.36-1.29,3.69-3.54h3.42c-0.63,4.05-3.12,6.24-7.11,6.24c-4.86,0-7.53-3.45-7.53-8.01c0-4.68,2.55-8.339,7.65-8.339
		c3.6,0,6.66,1.8,6.99,5.61H976.583z"/>
	<path fill="#333333" d="M982.793,431.577h3.42v7.95h0.06c0.84-1.41,2.61-2.46,4.65-2.46c3.39,0,5.49,1.77,5.49,5.28v10.649h-3.42
		v-9.75c-0.09-2.43-0.99-3.48-3.03-3.48c-2.28,0-3.75,1.8-3.75,4.08v9.149h-3.42V431.577z"/>
	<path fill="#333333" d="M1013.002,449.546c0,0.84,0.18,1.17,0.81,1.17h0.36c0.15,0,0.3-0.03,0.48-0.06v2.37
		c-0.51,0.18-1.59,0.39-2.16,0.39c-1.41,0-2.37-0.48-2.64-1.89c-1.35,1.32-3.54,1.89-5.37,1.89c-2.79,0-5.31-1.5-5.31-4.53
		c0-3.87,3.09-4.5,5.97-4.83c2.49-0.48,4.65-0.15,4.65-2.19c0-1.8-1.86-2.1-3.21-2.1c-1.92,0-3.27,0.78-3.42,2.46h-3.42
		c0.24-3.99,3.6-5.16,7.05-5.16c3.03,0,6.21,1.23,6.21,4.5V449.546z M1009.583,445.227c-1.05,0.69-2.67,0.66-4.2,0.93
		c-1.47,0.24-2.79,0.78-2.79,2.58c0,1.56,1.95,1.98,3.15,1.98c1.5,0,3.84-0.78,3.84-2.94V445.227z"/>
	<path fill="#333333" d="M1016.693,437.487h3.24v2.28l0.06,0.06c1.05-1.71,2.79-2.76,4.83-2.76c3.391,0,5.49,1.77,5.49,5.28v10.649
		h-3.42v-9.75c-0.09-2.43-0.99-3.48-3.03-3.48c-2.28,0-3.75,1.8-3.75,4.08v9.149h-3.42V437.487z"/>
	<path fill="#333333" d="M1048.252,452.186c0,4.68-2.7,6.96-7.62,6.96c-3.12,0-6.6-1.2-6.93-4.83h3.42
		c0.42,1.95,1.979,2.28,3.72,2.28c2.76,0,3.99-1.41,3.99-3.959v-2.37h-0.061c-0.96,1.71-2.729,2.73-4.649,2.73
		c-4.92,0-6.96-3.72-6.96-8.16c0-4.17,2.61-7.77,7.02-7.77c1.95,0,3.72,0.78,4.59,2.55h0.061v-2.13h3.42V452.186z M1044.832,444.896
		c0-2.67-1.2-5.13-4.17-5.13c-3.03,0-4.08,2.82-4.08,5.4c0,2.52,1.23,5.13,4.08,5.13
		C1043.691,450.296,1044.832,447.566,1044.832,444.896z"/>
	<path fill="#333333" d="M1054.372,446.126c0,2.43,1.32,4.59,4.17,4.59c2.01,0,3.18-0.87,3.78-2.58h3.239
		c-0.72,3.39-3.659,5.28-7.02,5.28c-4.89,0-7.59-3.36-7.59-8.16c0-4.41,2.88-8.189,7.5-8.189c4.89,0,7.89,4.41,7.319,9.06H1054.372z
		 M1062.352,443.876c-0.149-2.16-1.56-4.11-3.899-4.11c-2.37,0-3.99,1.8-4.08,4.11H1062.352z"/>
	<path fill="#333333" d="M1070.962,448.016c0.21,2.01,1.68,2.7,3.51,2.7c1.32,0,3.54-0.27,3.45-2.04c-0.09-1.8-2.58-2.01-5.07-2.58
		c-2.52-0.54-4.979-1.44-4.979-4.59c0-3.39,3.66-4.439,6.479-4.439c3.18,0,6.09,1.29,6.479,4.77h-3.569
		c-0.33-1.65-1.62-2.07-3.15-2.07c-0.989,0-2.819,0.24-2.819,1.59c0,1.68,2.52,1.95,5.04,2.49c2.489,0.57,5.01,1.47,5.01,4.53
		c0,3.689-3.721,5.04-6.93,5.04c-3.931,0-6.78-1.74-6.87-5.4H1070.962z"/>
</g>
<g>
	<path fill="#333333" d="M604.228,612.607h15.419v3.239h-11.669v5.61h10.799v3.06h-10.799v6.27h11.879v3.24h-15.629V612.607z"/>
	<path fill="#333333" d="M635.638,630.576c0,0.84,0.18,1.17,0.81,1.17h0.36c0.15,0,0.3-0.029,0.48-0.06v2.37
		c-0.51,0.18-1.59,0.39-2.16,0.39c-1.41,0-2.37-0.479-2.64-1.89c-1.35,1.319-3.54,1.89-5.37,1.89c-2.79,0-5.31-1.5-5.31-4.529
		c0-3.87,3.09-4.5,5.97-4.83c2.49-0.48,4.65-0.15,4.65-2.19c0-1.8-1.86-2.1-3.21-2.1c-1.92,0-3.27,0.78-3.42,2.46h-3.42
		c0.24-3.99,3.6-5.16,7.05-5.16c3.03,0,6.21,1.23,6.21,4.5V630.576z M632.218,626.257c-1.05,0.689-2.67,0.66-4.2,0.93
		c-1.47,0.24-2.79,0.78-2.79,2.58c0,1.56,1.95,1.979,3.15,1.979c1.5,0,3.84-0.779,3.84-2.939V626.257z"/>
	<path fill="#333333" d="M649.797,623.707c-0.27-1.92-1.62-2.91-3.54-2.91c-1.77,0-4.26,0.96-4.26,5.64c0,2.58,1.14,5.31,4.11,5.31
		c2.01,0,3.36-1.29,3.69-3.539h3.42c-0.63,4.05-3.12,6.239-7.11,6.239c-4.86,0-7.53-3.45-7.53-8.01c0-4.68,2.55-8.34,7.65-8.34
		c3.6,0,6.66,1.8,6.99,5.61H649.797z"/>
	<path fill="#333333" d="M656.008,612.607h3.42v7.949h0.06c0.84-1.41,2.61-2.46,4.65-2.46c3.39,0,5.49,1.771,5.49,5.28v10.649h-3.42
		v-9.75c-0.09-2.43-0.99-3.479-3.03-3.479c-2.28,0-3.75,1.8-3.75,4.08v9.149h-3.42V612.607z"/>
	<path fill="#333333" d="M701.427,623.316c0,6.15-3.87,11.22-10.26,11.22s-10.259-5.069-10.259-11.22
		c0-6.09,3.87-11.219,10.259-11.219S701.427,617.227,701.427,623.316z M684.657,623.316c0,4.11,1.92,8.16,6.51,8.16
		s6.51-4.05,6.51-8.16c0-4.109-1.92-8.159-6.51-8.159S684.657,619.207,684.657,623.316z"/>
	<path fill="#333333" d="M702.837,618.517h2.55v-1.29c0-3.959,2.07-4.619,4.29-4.619c1.11,0,1.89,0.06,2.4,0.21v2.67
		c-0.45-0.12-0.9-0.181-1.59-0.181c-0.93,0-1.68,0.33-1.68,1.62v1.59h2.91v2.55h-2.91v12.96h-3.42v-12.96h-2.55V618.517z"/>
	<path fill="#333333" d="M712.287,618.517h2.55v-1.29c0-3.959,2.07-4.619,4.29-4.619c1.11,0,1.89,0.06,2.4,0.21v2.67
		c-0.45-0.12-0.9-0.181-1.59-0.181c-0.93,0-1.68,0.33-1.68,1.62v1.59h2.91v2.55h-2.91v12.96h-3.42v-12.96h-2.55V618.517z"/>
	<path fill="#333333" d="M725.937,627.156c0,2.431,1.32,4.59,4.17,4.59c2.01,0,3.18-0.869,3.78-2.579h3.24
		c-0.72,3.39-3.66,5.279-7.02,5.279c-4.89,0-7.59-3.359-7.59-8.159c0-4.41,2.88-8.19,7.5-8.19c4.89,0,7.89,4.41,7.319,9.06H725.937z
		 M733.917,624.906c-0.15-2.159-1.56-4.109-3.9-4.109c-2.37,0-3.99,1.8-4.08,4.109H733.917z"/>
	<path fill="#333333" d="M739.946,618.517h3.21v3h0.06c0.39-1.649,2.46-3.42,4.53-3.42c0.81,0,0.96,0.061,1.29,0.091v3.3
		c-0.48-0.091-0.99-0.15-1.47-0.15c-2.31,0-4.2,1.86-4.2,5.31v7.38h-3.42V618.517z"/>
	<path fill="#333333" d="M750.597,612.607h3.419v3.239h-3.419V612.607z M750.597,618.517h3.419v15.51h-3.419V618.517z"/>
	<path fill="#333333" d="M757.736,618.517h3.24v2.28l0.06,0.06c1.05-1.71,2.79-2.76,4.83-2.76c3.39,0,5.49,1.771,5.49,5.28v10.649
		h-3.42v-9.75c-0.09-2.43-0.99-3.479-3.03-3.479c-2.28,0-3.75,1.8-3.75,4.08v9.149h-3.42V618.517z"/>
	<path fill="#333333" d="M789.295,633.217c0,4.68-2.7,6.959-7.62,6.959c-3.12,0-6.6-1.199-6.93-4.829h3.42
		c0.42,1.949,1.98,2.279,3.72,2.279c2.76,0,3.99-1.41,3.99-3.96v-2.369h-0.06c-0.96,1.71-2.73,2.729-4.65,2.729
		c-4.92,0-6.96-3.72-6.96-8.159c0-4.17,2.61-7.771,7.02-7.771c1.95,0,3.72,0.78,4.59,2.55h0.06v-2.13h3.42V633.217z
		 M785.875,625.927c0-2.67-1.2-5.13-4.169-5.13c-3.03,0-4.08,2.82-4.08,5.399c0,2.521,1.23,5.13,4.08,5.13
		C784.735,631.326,785.875,628.597,785.875,625.927z"/>
	<path fill="#333333" d="M801.085,612.607h3.42v7.949h0.06c0.84-1.41,2.61-2.46,4.65-2.46c3.39,0,5.49,1.771,5.49,5.28v10.649h-3.42
		v-9.75c-0.09-2.43-0.99-3.479-3.03-3.479c-2.28,0-3.75,1.8-3.75,4.08v9.149h-3.42V612.607z"/>
	<path fill="#333333" d="M831.295,630.576c0,0.84,0.18,1.17,0.81,1.17h0.36c0.15,0,0.3-0.029,0.48-0.06v2.37
		c-0.51,0.18-1.59,0.39-2.16,0.39c-1.41,0-2.37-0.479-2.64-1.89c-1.35,1.319-3.54,1.89-5.37,1.89c-2.79,0-5.31-1.5-5.31-4.529
		c0-3.87,3.09-4.5,5.97-4.83c2.49-0.48,4.65-0.15,4.65-2.19c0-1.8-1.86-2.1-3.21-2.1c-1.92,0-3.27,0.78-3.42,2.46h-3.42
		c0.24-3.99,3.6-5.16,7.05-5.16c3.03,0,6.21,1.23,6.21,4.5V630.576z M827.875,626.257c-1.05,0.689-2.67,0.66-4.2,0.93
		c-1.47,0.24-2.79,0.78-2.79,2.58c0,1.56,1.95,1.979,3.15,1.979c1.5,0,3.84-0.779,3.84-2.939V626.257z"/>
	<path fill="#333333" d="M837.565,629.047c0.21,2.01,1.68,2.699,3.51,2.699c1.32,0,3.54-0.27,3.45-2.039
		c-0.09-1.801-2.58-2.011-5.07-2.58c-2.52-0.54-4.979-1.44-4.979-4.59c0-3.391,3.66-4.44,6.479-4.44c3.18,0,6.09,1.29,6.48,4.771
		h-3.57c-0.33-1.65-1.62-2.07-3.15-2.07c-0.99,0-2.82,0.24-2.82,1.59c0,1.68,2.52,1.95,5.04,2.49c2.49,0.569,5.01,1.47,5.01,4.529
		c0,3.69-3.72,5.04-6.93,5.04c-3.93,0-6.78-1.74-6.87-5.399H837.565z"/>
	<path fill="#333333" d="M858.985,612.607h3.419v3.239h-3.419V612.607z M858.985,618.517h3.419v15.51h-3.419V618.517z"/>
	<path fill="#333333" d="M864.565,618.517h2.58v-4.649h3.42v4.649h3.09v2.55h-3.09v8.28c0,1.41,0.12,2.13,1.65,2.13
		c0.48,0,0.96,0,1.44-0.12v2.64c-0.75,0.09-1.47,0.181-2.22,0.181c-3.6,0-4.2-1.38-4.29-3.96v-9.15h-2.58V618.517z"/>
	<path fill="#333333" d="M878.695,629.047c0.21,2.01,1.68,2.699,3.51,2.699c1.32,0,3.54-0.27,3.45-2.039
		c-0.09-1.801-2.58-2.011-5.07-2.58c-2.52-0.54-4.979-1.44-4.979-4.59c0-3.391,3.66-4.44,6.479-4.44c3.18,0,6.09,1.29,6.48,4.771
		h-3.57c-0.33-1.65-1.62-2.07-3.15-2.07c-0.99,0-2.82,0.24-2.82,1.59c0,1.68,2.52,1.95,5.04,2.49c2.49,0.569,5.01,1.47,5.01,4.529
		c0,3.69-3.72,5.04-6.93,5.04c-3.93,0-6.78-1.74-6.87-5.399H878.695z"/>
	<path fill="#333333" d="M899.305,626.257c0-4.71,2.88-8.16,7.83-8.16s7.83,3.45,7.83,8.16c0,4.77-2.88,8.189-7.83,8.189
		S899.305,631.026,899.305,626.257z M911.544,626.257c0-2.67-1.35-5.46-4.41-5.46s-4.41,2.79-4.41,5.46c0,2.7,1.35,5.489,4.41,5.489
		S911.544,628.957,911.544,626.257z"/>
	<path fill="#333333" d="M916.405,618.517h3.63l3.03,11.58h0.06l2.91-11.58h3.45l2.79,11.58h0.06l3.15-11.58h3.48l-4.86,15.51h-3.51
		l-2.88-11.52h-0.06l-2.85,11.52h-3.6L916.405,618.517z"/>
	<path fill="#333333" d="M941.154,618.517h3.24v2.28l0.06,0.06c1.05-1.71,2.79-2.76,4.83-2.76c3.39,0,5.49,1.771,5.49,5.28v10.649
		h-3.42v-9.75c-0.09-2.43-0.99-3.479-3.03-3.479c-2.28,0-3.75,1.8-3.75,4.08v9.149h-3.42V618.517z"/>
	<path fill="#333333" d="M967.194,612.607h8.88c6.6,0,9.45,4.8,9.45,10.709c0,5.91-2.85,10.71-9.45,10.71h-8.88V612.607z
		 M970.944,630.967h3.69c5.88,0,7.14-3.33,7.14-7.65c0-4.319-1.26-7.649-7.14-7.649h-3.69V630.967z"/>
	<path fill="#333333" d="M988.764,612.607h3.75v8.52h9.75v-8.52h3.75v21.419h-3.75v-9.659h-9.75v9.659h-3.75V612.607z"/>
	<path fill="#333333" d="M1010.513,612.607h14.79v3.239h-11.04v5.61h9.689v3.06h-9.689v9.51h-3.75V612.607z"/>
</g>
<g>
	<defs>
		<rect id="SVGID_1_" width="2048" height="1000"/>
	</defs>
	<clipPath id="SVGID_2_">
		<use xlink:href="#SVGID_1_"  overflow="visible"/>
	</clipPath>
	<path clip-path="url(#SVGID_2_)" fill="#4EA8DE" d="M565.622,244.974c0,28.924-23.446,52.37-52.369,52.37
		c-28.923,0-52.369-23.446-52.369-52.37c0-28.923,23.446-52.369,52.369-52.369C542.176,192.605,565.622,216.051,565.622,244.974"/>
	<path clip-path="url(#SVGID_2_)" fill="#4EA8DE" d="M561.723,432.879c0,28.924-23.446,52.371-52.369,52.371
		c-28.923,0-52.369-23.447-52.369-52.371c0-28.923,23.446-52.37,52.369-52.37C538.277,380.509,561.723,403.956,561.723,432.879"/>
	<path clip-path="url(#SVGID_2_)" fill="#4EA8DE" d="M565.622,627.006c0,28.923-23.446,52.37-52.369,52.37
		c-28.923,0-52.37-23.447-52.37-52.37c0-28.923,23.447-52.369,52.37-52.369C542.176,574.637,565.622,598.083,565.622,627.006"/>
	<polygon clip-path="url(#SVGID_2_)" fill-rule="evenodd" clip-rule="evenodd" fill="#DAE1E6" points="529.197,216.581 
		528.292,215.676 528.312,215.676 	"/>
	<path clip-path="url(#SVGID_2_)" fill-rule="evenodd" clip-rule="evenodd" fill="#DAE1E6" d="M538.587,280.851l-45.843-0.019
		c-2.413-0.011-4.372-1.971-4.372-4.384l0.029-63.607c0-2.413,1.971-4.383,4.373-4.373l31.256,0.01l18.96,18.98l-0.02,49.02
		C542.97,278.89,541,280.851,538.587,280.851"/>
	<polygon clip-path="url(#SVGID_2_)" fill-rule="evenodd" clip-rule="evenodd" fill="#D1D1D1" points="536.275,220.742 
		542.99,227.458 542.99,243.864 525.347,226.211 	"/>
	<path clip-path="url(#SVGID_2_)" fill-rule="evenodd" clip-rule="evenodd" fill="#ECF0F1" d="M542.99,227.458h-14.597
		c-2.412,0-4.373-1.971-4.373-4.383l0.01-14.598L542.99,227.458z"/>
	<path clip-path="url(#SVGID_2_)" fill-rule="evenodd" clip-rule="evenodd" fill="#C0392B" d="M520.854,236.345l-0.01,15.884
		c0,1.669-1.379,3.036-3.047,3.036l-35.93-0.021c-1.679,0-3.056-1.366-3.056-3.035l0.02-15.884c0-1.679,1.367-3.047,3.046-3.036
		h35.931C519.486,233.289,520.854,234.676,520.854,236.345"/>
	<path clip-path="url(#SVGID_2_)" fill-rule="evenodd" clip-rule="evenodd" fill="#ECF0F1" d="M537.852,618.768
		c-2.243-6.038-8.501-9.652-14.855-8.578c-0.724,0.118-1.405-0.324-1.594-1.023l-0.494-1.825c-0.102-0.392-0.043-0.775,0.171-1.126
		c0.221-0.341,0.545-0.555,0.946-0.63c8.706-1.568,17.309,3.409,20.302,11.731c0.136,0.385,0.103,0.769-0.085,1.127
		c-0.188,0.374-0.494,0.613-0.887,0.716l-1.815,0.486C538.833,619.833,538.108,619.458,537.852,618.768"/>
	<path clip-path="url(#SVGID_2_)" fill-rule="evenodd" clip-rule="evenodd" fill="#ECF0F1" d="M545.842,616.584
		c-3.471-10.401-14.19-16.593-24.934-14.41c-0.732,0.153-1.449-0.29-1.653-1.015l-0.478-1.815c-0.102-0.385-0.051-0.76,0.154-1.11
		c0.221-0.341,0.528-0.554,0.921-0.63c13.139-2.745,26.297,4.852,30.483,17.616c0.119,0.376,0.094,0.75-0.102,1.108
		c-0.197,0.359-0.487,0.589-0.878,0.691l-1.817,0.485C546.815,617.701,546.071,617.3,545.842,616.584"/>
	<path clip-path="url(#SVGID_2_)" fill-rule="evenodd" clip-rule="evenodd" fill="#ECF0F1" d="M487.842,649.736
		c-6.873-0.009-12.433-5.577-12.433-12.448c0-6.242,4.597-11.409,10.591-12.297c1.108-8.723,8.561-15.459,17.582-15.45
		c5.986,0,11.273,2.959,14.479,7.495c1.116-0.332,2.311-0.513,3.539-0.513c5.465,0.01,10.103,3.522,11.775,8.418
		c6.241,0.665,11.101,5.95,11.101,12.38c0,6.873-5.575,12.433-12.448,12.433L487.842,649.736z"/>
	<polygon clip-path="url(#SVGID_2_)" fill-rule="evenodd" clip-rule="evenodd" fill="#DAE1E6" points="526.11,403.683 
		525.352,402.925 525.37,402.925 	"/>
	<path clip-path="url(#SVGID_2_)" fill-rule="evenodd" clip-rule="evenodd" fill="#BDC3C7" d="M533.987,457.523l-38.409-0.018
		c-2.021,0-3.673-1.642-3.673-3.664l0.035-53.29c0-2.022,1.641-3.673,3.655-3.673l26.187,0.017l15.885,15.902l-0.008,41.07
		C537.659,455.888,536.008,457.531,533.987,457.523"/>
	<polygon clip-path="url(#SVGID_2_)" fill-rule="evenodd" clip-rule="evenodd" fill="#95A5A6" points="532.05,407.17 
		537.667,412.796 537.659,426.544 522.886,411.752 	"/>
	<path clip-path="url(#SVGID_2_)" fill-rule="evenodd" clip-rule="evenodd" fill="#C0C0C0" d="M533.987,457.523h-7.193l0.015-33.161
		l10.85,10.874v18.631C537.659,455.888,536.008,457.531,533.987,457.523"/>
	<path clip-path="url(#SVGID_2_)" fill-rule="evenodd" clip-rule="evenodd" fill="#DAE1E6" d="M537.667,412.797h-12.221
		c-2.021,0-3.674-1.651-3.674-3.672l0.01-12.23L537.667,412.797z"/>
	<polygon clip-path="url(#SVGID_2_)" fill-rule="evenodd" clip-rule="evenodd" fill="#DAE1E6" points="515.237,415.24 
		514.487,414.481 514.505,414.481 	"/>
	<path clip-path="url(#SVGID_2_)" fill-rule="evenodd" clip-rule="evenodd" fill="#DAE1E6" d="M523.12,469.095l-38.408-0.016
		c-2.021-0.009-3.672-1.652-3.672-3.673l0.026-53.3c0.008-2.021,1.65-3.663,3.672-3.663l26.169,0.008l15.902,15.911l-0.025,41.061
		C526.784,467.445,525.141,469.095,523.12,469.095"/>
	<polygon clip-path="url(#SVGID_2_)" fill-rule="evenodd" clip-rule="evenodd" fill="#B3B3B3" points="521.185,418.727 
		526.81,424.362 526.793,438.107 512.021,423.309 	"/>
	<path clip-path="url(#SVGID_2_)" fill-rule="evenodd" clip-rule="evenodd" fill="#ECF0F1" d="M526.81,424.353h-12.238
		c-2.012,0-3.664-1.65-3.664-3.672v-12.23L526.81,424.353z"/>
</g>
</svg>
