<?xml version="1.0" encoding="utf-8"?>
<!-- Generator: Adobe Illustrator 16.0.3, SVG Export Plug-In . SVG Version: 6.00 Build 0)  -->
<!DOCTYPE svg PUBLIC "-//W3C//DTD SVG 1.1//EN" "http://www.w3.org/Graphics/SVG/1.1/DTD/svg11.dtd">
<svg version="1.1" id="Layer_1" xmlns="http://www.w3.org/2000/svg" xmlns:xlink="http://www.w3.org/1999/xlink" x="0px" y="0px"
	 width="2048px" height="1000px" viewBox="0 0 2048 1000" enable-background="new 0 0 2048 1000" xml:space="preserve">
<rect fill="#B9E5FB" width="2048" height="1000"/>
<rect x="1.25" y="639.057" fill="#116BB4" width="2046.5" height="360.601"/>
<g>
	<g>
		<polygon fill="#FFFFFF" points="1588.633,894.932 1588.633,519.604 1588.633,314.794 1427.017,168.021 322.234,168.021 
			322.234,894.932 		"/>
		<g>
			<polygon fill="#2C5871" points="1427.017,314.794 1588.633,314.794 1427.017,168.021 			"/>
			<polygon fill="#D1ECFB" points="1588.633,314.794 1427.017,314.794 1588.633,461.544 			"/>
		</g>
	</g>
</g>
<g>
	<path fill-rule="evenodd" clip-rule="evenodd" fill="#DAE1E6" d="M1929.039,883.564h-100.26c-5.258,0-9.566-4.308-9.566-9.566
		v-139.09c0-5.282,4.309-9.562,9.566-9.562h68.343l41.483,41.479v107.174C1938.605,879.257,1934.297,883.564,1929.039,883.564z"/>
	<polygon fill-rule="evenodd" clip-rule="evenodd" fill="#B3B3B3" points="1923.914,752.136 1938.605,766.824 1938.605,802.707 
		1900.024,764.105 	"/>
	<path fill-rule="evenodd" clip-rule="evenodd" fill="#ECF0F1" d="M1938.605,766.824h-31.919c-5.279,0-9.564-4.306-9.564-9.563
		v-31.915L1938.605,766.824z"/>
	<path fill-rule="evenodd" clip-rule="evenodd" fill="#2C3E50" d="M1888.667,871.57h-52.928h-2.562v-2.56v-18.52v-22.532v-38.377
		v-22.509v-17.657v-2.563h2.562h61.383v5.126h-58.823v15.095v22.509v38.377v22.532v15.96h50.368V871.57L1888.667,871.57z
		 M1837.325,767.073h-0.726h-0.385h-0.952h-0.567h-0.544v22.509h0.544h0.567h0.952h0.385h0.726V767.073L1837.325,767.073z
		 M1837.325,827.959h-0.544h-0.566h-0.952h-0.567h-0.544v22.532h0.544h0.567h0.952h0.566h0.544V827.959z"/>
	<rect x="1910.971" y="766.824" fill-rule="evenodd" clip-rule="evenodd" fill="#2C3E50" width="5.125" height="6.893"/>
	<polygon fill-rule="evenodd" clip-rule="evenodd" fill="#2C3E50" points="1893.562,806.652 1910.971,806.652 1910.971,796.247 
		1916.096,796.247 1916.096,809.213 1916.096,811.775 1913.533,811.775 1893.562,811.775 	"/>
	<rect x="1835.739" y="806.652" fill-rule="evenodd" clip-rule="evenodd" fill="#2C3E50" width="35.314" height="5.123"/>
	<path fill-rule="evenodd" clip-rule="evenodd" fill="#B3B3B3" d="M1929.039,883.564h-29.49l-12.922-12.922l-0.022-0.021
		l-0.045-0.068c-0.046-0.045-0.092-0.091-0.136-0.135l-0.113-0.138l-0.092-0.136l0,0l-0.047-0.066l0,0l-0.042-0.07l0,0l-0.047-0.065
		l0,0l-0.046-0.07l0,0l-0.047-0.068l0,0l-0.021-0.067v-0.021l-0.046-0.07l0,0l-0.022-0.064l0,0l-0.046-0.071v-0.021l-0.021-0.068
		l0,0l-0.024-0.066l0,0l-0.021-0.093l0,0l-0.021-0.092l0,0l-0.024-0.021v-0.021v-0.021l0,0v-0.047l0,0l-0.022-0.023l0,0v-0.022l0,0
		v-0.067l0,0l-0.021-0.023l0,0v-0.022l0,0v-0.067l0,0l-0.023-0.046l0,0v-0.022l0,0l-0.022-0.046l0,0v-0.021l0,0v-0.024l0,0v-0.021
		v-0.021v-0.021l0,0v-0.025l0,0v-0.045v-0.022l-0.024-0.046l0,0v-0.024l0,0v-0.064l0,0v-0.024l0,0v-0.023l0,0v-0.065v-0.024l0,0
		v-0.022l0,0v-0.023l0,0v-0.044l0,0v-0.021l0,0l0.024-0.024l0,0v-0.024l0,0v-0.021v-0.022v-0.021l0,0v-0.025l0,0v-0.023l0,0v-0.021
		l0,0v-0.043l0,0v-0.025l0,0v-0.021l0,0l0.022-0.024l0,0v-0.044l0,0v-0.021l0,0l0.023-0.024l0,0v-0.025l0,0v-0.021l0,0v-0.044l0,0
		l0.021-0.024l0,0v-0.023l0,0v-0.022l0,0v-0.043l0,0h0.022v-0.024v-0.021v-0.024v-0.021v-0.022l0.024-0.021v-0.024l1.835-6.167
		l2.946-9.926l0,0l7.298-24.481v-0.024l18.112-18.088l22.647-22.645v87.95C1938.605,879.257,1934.297,883.564,1929.039,883.564z"/>
	<polygon fill-rule="evenodd" clip-rule="evenodd" fill="#B3B3B3" points="1938.605,786.048 1938.605,802.707 1930.262,794.367 	"/>
	<g>
		<path fill-rule="evenodd" clip-rule="evenodd" fill="#FACC4D" d="M1976.571,761.293c4.148,2.314,7.82,5.08,11.041,8.297
			l0.157,0.159c3.152,3.196,5.848,6.801,8.115,10.86c1.404,2.538,1.905,5.347,1.543,8.045c-0.388,2.698-1.632,5.258-3.673,7.32
			h-0.024h0.024l-63.403,63.403l-40.574,12.036c-1.722,0.498-3.535-0.498-4.011-2.246c-0.181-0.588-0.16-1.223,0-1.789
			l12.079-40.574l63.357-63.358c2.04-2.062,4.625-3.306,7.323-3.668C1971.222,759.391,1974.033,759.889,1976.571,761.293z"/>
		<path fill-rule="evenodd" clip-rule="evenodd" fill="#2C3E50" d="M1908.457,836.506l67.798-67.798
			c-0.928-0.612-1.859-1.202-2.834-1.725c-1.268-0.726-2.673-0.952-3.988-0.792c-1.314,0.206-2.608,0.816-3.629,1.858
			l-61.562,61.566L1908.457,836.506z"/>
		<path fill-rule="evenodd" clip-rule="evenodd" fill="#2C3E50" d="M1906.097,866.564l-16.319,4.871
			c-1.722,0.477-3.513-0.52-4.011-2.268c-0.181-0.611-0.16-1.223,0-1.789l4.781-16.093l2.676,5.667l9.065,0.541L1906.097,866.564z"
			/>
		<path fill-rule="evenodd" clip-rule="evenodd" fill="#2C3E50" d="M1976.571,761.293c4.148,2.339,7.82,5.08,11.041,8.297
			l0.157,0.159c3.152,3.196,5.848,6.801,8.115,10.86c1.404,2.538,1.905,5.347,1.543,8.045c-0.388,2.698-1.632,5.258-3.673,7.32
			h-0.024h0.024l-63.403,63.403l-4.327-8.817c-6.801-3.49-13.625-7.006-20.426-10.472l-7.753-13.284l63.357-63.358
			c2.062-2.062,4.625-3.306,7.323-3.668C1971.222,759.391,1974.033,759.889,1976.571,761.293z"/>
		<path fill-rule="evenodd" clip-rule="evenodd" fill="#3D566E" d="M1976.571,761.293c1.678,0.931,3.266,1.951,4.784,3.015
			l-75.757,75.781l-7.753-13.284l63.357-63.358c2.062-2.062,4.625-3.306,7.323-3.668
			C1971.222,759.391,1974.033,759.889,1976.571,761.293z"/>
		<path fill-rule="evenodd" clip-rule="evenodd" fill="#3D566E" d="M1995.909,780.652c1.38,2.538,1.881,5.325,1.519,8.002
			c-0.388,2.698-1.632,5.258-3.673,7.32h-0.024h0.024l-63.403,63.403l-4.327-8.817L1995.909,780.652z"/>
	</g>
</g>
<line fill="none" stroke="#343636" stroke-width="4.9841" stroke-miterlimit="10" x1="50.751" y1="53.718" x2="1997.543" y2="53.718"/>
<g>
	<g>
		<path fill="#333333" d="M662.422,266.344c4.454,0,8.055,3.555,8.055,8.01c0,4.455-3.601,8.055-8.055,8.055
			c-4.455,0-8.01-3.6-8.01-8.055C654.412,269.899,657.967,266.344,662.422,266.344z"/>
		<path fill="#333333" d="M702.201,258.289h11.024c9.899,0,15.435,4.995,15.435,15.3c0,10.754-4.725,16.829-15.435,16.829h-11.024
			V258.289z M706.477,286.818h7.109c2.925,0,10.8-0.81,10.8-12.645c0-7.65-2.835-12.285-10.71-12.285h-7.199V286.818z"/>
		<path fill="#333333" d="M753.095,283.038c-1.034,5.175-4.68,7.92-9.944,7.92c-7.425,0-10.935-5.175-11.159-12.24
			c0-7.02,4.59-12.104,10.935-12.104c8.234,0,10.754,7.695,10.529,13.32h-17.414c-0.135,4.05,2.16,7.649,7.244,7.649
			c3.195,0,5.355-1.485,6.03-4.545H753.095z M749.405,276.559c-0.225-3.645-2.88-6.57-6.705-6.57c-3.959,0-6.435,2.97-6.659,6.57
			H749.405z"/>
		<path fill="#333333" d="M759.755,283.083c0.135,3.419,3.15,4.5,6.255,4.5c2.385,0,5.625-0.54,5.625-3.465
			c0-5.985-15.21-1.935-15.21-10.89c0-4.68,4.59-6.615,8.685-6.615c5.22,0,9.18,1.62,9.54,7.29h-3.825
			c-0.225-2.97-2.925-3.915-5.399-3.915c-2.295,0-4.95,0.63-4.95,2.97c0,2.7,4.05,3.24,7.605,4.05
			c3.824,0.855,7.604,2.16,7.604,6.615c0,5.58-5.175,7.335-9.899,7.335c-5.221,0-9.63-2.115-9.855-7.875H759.755z"/>
		<path fill="#333333" d="M783.965,262.969h-3.825v-4.68h3.825V262.969z M780.14,267.154h3.825v23.264h-3.825V267.154z"/>
		<path fill="#333333" d="M809.974,288.438c0,7.605-3.42,11.43-10.8,11.43c-4.364,0-9.404-1.8-9.63-6.84h3.825
			c0.135,2.745,3.555,3.78,6.029,3.78c4.995,0,6.976-3.6,6.976-8.819v-1.53h-0.091c-1.305,2.835-4.274,4.23-7.244,4.23
			c-6.93,0-10.395-5.445-10.395-11.79c0-5.49,2.654-12.285,10.754-12.285c2.926,0,5.535,1.305,6.931,3.87h0.045v-3.33h3.6V288.438z
			 M806.193,278.313c0-4.095-1.8-8.325-6.614-8.325c-4.905,0-6.885,4.005-6.885,8.459c0,4.185,1.53,8.865,6.569,8.865
			C804.304,287.313,806.193,282.678,806.193,278.313z"/>
		<path fill="#333333" d="M815.733,267.154h3.6v3.69h0.09c1.62-2.88,4.186-4.23,7.561-4.23c6.119,0,8.009,3.51,8.009,8.505v15.299
			h-3.824v-15.75c0-2.88-1.8-4.68-4.725-4.68c-4.635,0-6.885,3.105-6.885,7.29v13.14h-3.825V267.154z"/>
		<path fill="#333333" d="M854.072,258.289h4.275v32.129h-4.275V258.289z"/>
		<path fill="#333333" d="M864.917,267.154h3.6v3.69h0.09c1.62-2.88,4.186-4.23,7.561-4.23c6.119,0,8.009,3.51,8.009,8.505v15.299
			h-3.824v-15.75c0-2.88-1.8-4.68-4.725-4.68c-4.635,0-6.885,3.105-6.885,7.29v13.14h-3.825V267.154z"/>
		<path fill="#333333" d="M890.071,267.154h3.825v3.15h0.09c1.26-2.565,4.185-3.69,7.425-3.69c7.154,0,10.71,5.67,10.71,12.24
			c0,6.615-3.511,12.104-10.62,12.104c-2.34,0-5.85-0.9-7.515-3.645h-0.09v12.015h-3.825V267.154z M900.871,269.989
			c-5.175,0-7.109,4.455-7.109,8.775c0,4.544,2.069,8.819,7.334,8.819c5.22,0,6.975-4.455,6.975-9
			C908.07,274.219,905.821,269.989,900.871,269.989z"/>
		<path fill="#333333" d="M935.88,290.418h-3.6v-3.69h-0.09c-1.62,2.88-4.185,4.23-7.56,4.23c-6.12,0-8.01-3.51-8.01-8.505v-15.299
			h3.825v15.75c0,2.88,1.8,4.68,4.725,4.68c4.635,0,6.885-3.105,6.885-7.29v-13.14h3.824V290.418z"/>
		<path fill="#333333" d="M946.95,267.154h4.635v3.375h-4.635v14.444c0,1.8,0.495,2.07,2.88,2.07h1.755v3.375h-2.925
			c-3.96,0-5.534-0.81-5.534-5.085v-14.804h-3.96v-3.375h3.96v-6.975h3.824V267.154z"/>
		<path fill="#333333" d="M972.375,262.969h-3.825v-4.68h3.825V262.969z M968.55,267.154h3.825v23.264h-3.825V267.154z"/>
		<path fill="#333333" d="M980.654,283.083c0.135,3.419,3.15,4.5,6.255,4.5c2.385,0,5.625-0.54,5.625-3.465
			c0-5.985-15.21-1.935-15.21-10.89c0-4.68,4.59-6.615,8.685-6.615c5.22,0,9.18,1.62,9.54,7.29h-3.825
			c-0.225-2.97-2.925-3.915-5.399-3.915c-2.295,0-4.95,0.63-4.95,2.97c0,2.7,4.05,3.24,7.605,4.05
			c3.824,0.855,7.604,2.16,7.604,6.615c0,5.58-5.175,7.335-9.899,7.335c-5.221,0-9.63-2.115-9.855-7.875H980.654z"/>
		<path fill="#333333" d="M1018.634,267.154h4.635v3.375h-4.635v14.444c0,1.8,0.495,2.07,2.88,2.07h1.755v3.375h-2.925
			c-3.96,0-5.534-0.81-5.534-5.085v-14.804h-3.96v-3.375h3.96v-6.975h3.824V267.154z"/>
		<path fill="#333333" d="M1027.499,258.289h3.825v12.285h0.09c1.215-2.835,4.59-3.96,7.335-3.96c6.119,0,8.009,3.51,8.009,8.505
			v15.299h-3.824v-15.75c0-2.88-1.8-4.68-4.725-4.68c-4.635,0-6.885,3.105-6.885,7.29v13.14h-3.825V258.289z"/>
		<path fill="#333333" d="M1072.362,283.038c-1.034,5.175-4.68,7.92-9.944,7.92c-7.425,0-10.935-5.175-11.159-12.24
			c0-7.02,4.59-12.104,10.935-12.104c8.234,0,10.754,7.695,10.529,13.32h-17.414c-0.135,4.05,2.16,7.649,7.244,7.649
			c3.195,0,5.355-1.485,6.03-4.545H1072.362z M1068.673,276.559c-0.225-3.645-2.88-6.57-6.705-6.57c-3.959,0-6.435,2.97-6.659,6.57
			H1068.673z"/>
		<path fill="#333333" d="M1089.327,267.154h3.825v3.15h0.09c1.26-2.565,4.185-3.69,7.425-3.69c7.154,0,10.71,5.67,10.71,12.24
			c0,6.615-3.511,12.104-10.62,12.104c-2.34,0-5.85-0.9-7.515-3.645h-0.09v12.015h-3.825V267.154z M1100.127,269.989
			c-5.175,0-7.109,4.455-7.109,8.775c0,4.544,2.069,8.819,7.334,8.819c5.22,0,6.975-4.455,6.975-9
			C1107.326,274.219,1105.077,269.989,1100.127,269.989z"/>
		<path fill="#333333" d="M1115.877,258.289h3.825v12.285h0.09c1.215-2.835,4.59-3.96,7.335-3.96c6.119,0,8.009,3.51,8.009,8.505
			v15.299h-3.824v-15.75c0-2.88-1.8-4.68-4.725-4.68c-4.635,0-6.885,3.105-6.885,7.29v13.14h-3.825V258.289z"/>
		<path fill="#333333" d="M1150.031,293.523c-1.8,4.5-3.33,6.209-6.75,6.209c-0.899,0-1.8-0.09-2.654-0.405v-3.51
			c0.72,0.225,1.484,0.54,2.249,0.54c1.575,0,2.431-0.72,3.15-2.115l1.575-3.959l-9.225-23.129h4.319l6.795,19.034h0.09
			l6.524-19.034h4.05L1150.031,293.523z"/>
		<path fill="#333333" d="M1165.736,283.083c0.135,3.419,3.15,4.5,6.255,4.5c2.385,0,5.625-0.54,5.625-3.465
			c0-5.985-15.21-1.935-15.21-10.89c0-4.68,4.59-6.615,8.685-6.615c5.22,0,9.18,1.62,9.54,7.29h-3.825
			c-0.225-2.97-2.925-3.915-5.399-3.915c-2.295,0-4.95,0.63-4.95,2.97c0,2.7,4.05,3.24,7.605,4.05
			c3.824,0.855,7.604,2.16,7.604,6.615c0,5.58-5.175,7.335-9.899,7.335c-5.221,0-9.63-2.115-9.855-7.875H1165.736z"/>
		<path fill="#333333" d="M1189.946,262.969h-3.825v-4.68h3.825V262.969z M1186.121,267.154h3.825v23.264h-3.825V267.154z"/>
		<path fill="#333333" d="M1211.68,274.624c-0.585-2.925-2.564-4.635-5.76-4.635c-5.534,0-7.244,4.41-7.244,9.09
			c0,4.32,1.935,8.504,6.795,8.504c3.734,0,5.895-2.115,6.39-5.67h3.915c-0.855,5.715-4.365,9.045-10.26,9.045
			c-7.11,0-10.89-4.905-10.89-11.879c0-6.975,3.6-12.465,10.979-12.465c5.31,0,9.449,2.475,10.034,8.01H1211.68z"/>
		<path fill="#333333" d="M1240.659,290.328c-0.675,0.405-1.62,0.63-2.745,0.63c-1.979,0-3.24-1.08-3.24-3.6
			c-2.114,2.52-4.949,3.6-8.189,3.6c-4.229,0-7.694-1.845-7.694-6.525c0-5.265,3.915-6.435,7.874-7.155
			c4.186-0.855,7.83-0.495,7.83-3.42c0-3.375-2.79-3.87-5.175-3.87c-3.24,0-5.625,0.99-5.805,4.41h-3.825
			c0.226-5.76,4.635-7.785,9.854-7.785c4.186,0,8.73,0.945,8.73,6.39v11.969c0,1.8,0,2.61,1.215,2.61c0.359,0,0.765-0.09,1.17-0.225
			V290.328z M1234.449,278.403c-2.97,2.205-11.609,0.045-11.609,5.76c0,2.52,2.16,3.42,4.5,3.42c5.039,0,7.109-3.105,7.109-5.265
			V278.403z"/>
		<path fill="#333333" d="M1244.438,258.289h3.825v32.129h-3.825V258.289z"/>
		<path fill="#333333" d="M1287.322,290.328c-0.675,0.405-1.62,0.63-2.745,0.63c-1.979,0-3.24-1.08-3.24-3.6
			c-2.114,2.52-4.949,3.6-8.189,3.6c-4.229,0-7.694-1.845-7.694-6.525c0-5.265,3.915-6.435,7.874-7.155
			c4.186-0.855,7.83-0.495,7.83-3.42c0-3.375-2.79-3.87-5.175-3.87c-3.24,0-5.625,0.99-5.805,4.41h-3.825
			c0.226-5.76,4.635-7.785,9.854-7.785c4.186,0,8.73,0.945,8.73,6.39v11.969c0,1.8,0,2.61,1.215,2.61c0.359,0,0.765-0.09,1.17-0.225
			V290.328z M1281.112,278.403c-2.97,2.205-11.609,0.045-11.609,5.76c0,2.52,2.16,3.42,4.5,3.42c5.039,0,7.109-3.105,7.109-5.265
			V278.403z"/>
		<path fill="#333333" d="M1290.877,267.154h3.6v3.69h0.09c1.62-2.88,4.186-4.23,7.561-4.23c6.119,0,8.009,3.51,8.009,8.505v15.299
			h-3.824v-15.75c0-2.88-1.8-4.68-4.725-4.68c-4.635,0-6.885,3.105-6.885,7.29v13.14h-3.825V267.154z"/>
		<path fill="#333333" d="M1336.686,290.418h-3.825v-3.15h-0.09c-1.26,2.565-4.185,3.69-7.425,3.69
			c-7.154,0-10.709-5.67-10.709-12.24c0-6.569,3.51-12.104,10.619-12.104c2.34,0,5.85,0.9,7.515,3.645h0.09v-11.97h3.825V290.418z
			 M1325.886,287.583c5.175,0,7.11-4.455,7.11-8.774c0-4.545-2.07-8.82-7.335-8.82c-5.22,0-6.975,4.455-6.975,9
			C1318.687,283.353,1320.937,287.583,1325.886,287.583z"/>
		<path fill="#333333" d="M679.187,321.154h3.825v3.15h0.09c1.26-2.565,4.185-3.69,7.425-3.69c7.154,0,10.71,5.67,10.71,12.24
			c0,6.615-3.511,12.104-10.62,12.104c-2.34,0-5.85-0.9-7.515-3.645h-0.09v12.015h-3.825V321.154z M689.986,323.989
			c-5.175,0-7.109,4.455-7.109,8.775c0,4.544,2.069,8.819,7.334,8.819c5.22,0,6.975-4.455,6.975-9
			C697.186,328.219,694.937,323.989,689.986,323.989z"/>
		<path fill="#333333" d="M725.58,337.038c-1.034,5.175-4.68,7.92-9.944,7.92c-7.425,0-10.935-5.175-11.159-12.24
			c0-7.02,4.59-12.104,10.935-12.104c8.234,0,10.754,7.695,10.529,13.32h-17.414c-0.135,4.05,2.16,7.649,7.244,7.649
			c3.195,0,5.355-1.485,6.03-4.545H725.58z M721.891,330.559c-0.225-3.645-2.88-6.57-6.705-6.57c-3.959,0-6.435,2.97-6.659,6.57
			H721.891z"/>
		<path fill="#333333" d="M729.766,321.154h3.6v4.905h0.09c1.845-3.78,4.41-5.58,8.55-5.445v4.05c-6.165,0-8.415,3.465-8.415,9.405
			v10.35h-3.824V321.154z"/>
		<path fill="#333333" d="M746.46,324.529h-3.915v-3.375h3.915v-3.465c0-3.78,2.25-5.76,6.435-5.76c0.72,0,1.755,0.135,2.475,0.36
			v3.33c-0.675-0.225-1.484-0.315-2.16-0.315c-1.845,0-2.925,0.585-2.925,2.61v3.24h4.5v3.375h-4.5v19.889h-3.824V324.529z"/>
		<path fill="#333333" d="M768.238,320.614c7.38,0,11.295,5.355,11.295,12.195c0,6.794-3.915,12.149-11.295,12.149
			c-7.379,0-11.294-5.355-11.294-12.149C756.944,325.969,760.859,320.614,768.238,320.614z M768.238,341.583
			c4.005,0,7.245-3.15,7.245-8.774c0-5.625-3.24-8.82-7.245-8.82s-7.244,3.195-7.244,8.82
			C760.994,338.433,764.233,341.583,768.238,341.583z"/>
		<path fill="#333333" d="M783.898,321.154h3.6v4.905h0.09c1.845-3.78,4.41-5.58,8.55-5.445v4.05c-6.165,0-8.415,3.465-8.415,9.405
			v10.35h-3.824V321.154z"/>
		<path fill="#333333" d="M799.018,321.154h3.6v3.42h0.09c1.755-2.655,4.23-3.96,7.515-3.96c2.88,0,5.445,1.08,6.391,3.96
			c1.574-2.52,4.274-3.96,7.289-3.96c4.635,0,7.74,1.935,7.74,6.75v17.054h-3.825v-15.254c0-2.88-0.765-5.175-4.5-5.175
			c-3.734,0-6.074,2.34-6.074,5.94v14.489h-3.825v-15.254c0-3.015-0.945-5.175-4.365-5.175c-4.499,0-6.209,4.14-6.209,5.94v14.489
			h-3.825V321.154z"/>
		<path fill="#333333" d="M858.012,344.328c-0.675,0.405-1.62,0.63-2.745,0.63c-1.979,0-3.24-1.08-3.24-3.6
			c-2.114,2.52-4.949,3.6-8.189,3.6c-4.229,0-7.694-1.845-7.694-6.525c0-5.265,3.915-6.435,7.874-7.155
			c4.186-0.855,7.83-0.495,7.83-3.42c0-3.375-2.79-3.87-5.175-3.87c-3.24,0-5.625,0.99-5.805,4.41h-3.825
			c0.226-5.76,4.635-7.785,9.854-7.785c4.186,0,8.73,0.945,8.73,6.39v11.969c0,1.8,0,2.61,1.215,2.61c0.359,0,0.765-0.09,1.17-0.225
			V344.328z M851.802,332.403c-2.97,2.205-11.609,0.045-11.609,5.76c0,2.52,2.16,3.42,4.5,3.42c5.039,0,7.109-3.105,7.109-5.265
			V332.403z"/>
		<path fill="#333333" d="M861.566,321.154h3.6v3.69h0.09c1.62-2.88,4.186-4.23,7.561-4.23c6.119,0,8.009,3.51,8.009,8.505v15.299
			h-3.824v-15.75c0-2.88-1.8-4.68-4.725-4.68c-4.635,0-6.885,3.105-6.885,7.29v13.14h-3.825V321.154z"/>
		<path fill="#333333" d="M902.38,328.624c-0.585-2.925-2.564-4.635-5.76-4.635c-5.534,0-7.244,4.41-7.244,9.09
			c0,4.32,1.935,8.504,6.795,8.504c3.734,0,5.895-2.115,6.39-5.67h3.915c-0.855,5.715-4.365,9.045-10.26,9.045
			c-7.11,0-10.89-4.905-10.89-11.879c0-6.975,3.6-12.465,10.979-12.465c5.31,0,9.449,2.475,10.034,8.01H902.38z"/>
		<path fill="#333333" d="M930.594,337.038c-1.034,5.175-4.68,7.92-9.944,7.92c-7.425,0-10.935-5.175-11.159-12.24
			c0-7.02,4.59-12.104,10.935-12.104c8.234,0,10.754,7.695,10.529,13.32H913.54c-0.135,4.05,2.16,7.649,7.244,7.649
			c3.195,0,5.355-1.485,6.03-4.545H930.594z M926.904,330.559c-0.225-3.645-2.88-6.57-6.705-6.57c-3.959,0-6.435,2.97-6.659,6.57
			H926.904z"/>
		<path fill="#333333" d="M963.218,328.624c-0.585-2.925-2.564-4.635-5.76-4.635c-5.534,0-7.244,4.41-7.244,9.09
			c0,4.32,1.935,8.504,6.795,8.504c3.734,0,5.895-2.115,6.39-5.67h3.915c-0.855,5.715-4.365,9.045-10.26,9.045
			c-7.11,0-10.89-4.905-10.89-11.879c0-6.975,3.6-12.465,10.979-12.465c5.31,0,9.449,2.475,10.034,8.01H963.218z"/>
		<path fill="#333333" d="M971.588,312.289h3.825v12.285h0.09c1.215-2.835,4.59-3.96,7.335-3.96c6.119,0,8.009,3.51,8.009,8.505
			v15.299h-3.824v-15.75c0-2.88-1.8-4.68-4.725-4.68c-4.635,0-6.885,3.105-6.885,7.29v13.14h-3.825V312.289z"/>
		<path fill="#333333" d="M1017.217,344.328c-0.675,0.405-1.62,0.63-2.745,0.63c-1.979,0-3.24-1.08-3.24-3.6
			c-2.114,2.52-4.949,3.6-8.189,3.6c-4.229,0-7.694-1.845-7.694-6.525c0-5.265,3.915-6.435,7.874-7.155
			c4.186-0.855,7.83-0.495,7.83-3.42c0-3.375-2.79-3.87-5.175-3.87c-3.24,0-5.625,0.99-5.805,4.41h-3.825
			c0.226-5.76,4.635-7.785,9.854-7.785c4.186,0,8.73,0.945,8.73,6.39v11.969c0,1.8,0,2.61,1.215,2.61c0.359,0,0.765-0.09,1.17-0.225
			V344.328z M1011.007,332.403c-2.97,2.205-11.609,0.045-11.609,5.76c0,2.52,2.16,3.42,4.5,3.42c5.039,0,7.109-3.105,7.109-5.265
			V332.403z"/>
		<path fill="#333333" d="M1020.637,321.154h3.6v4.905h0.09c1.845-3.78,4.41-5.58,8.55-5.445v4.05c-6.165,0-8.415,3.465-8.415,9.405
			v10.35h-3.824V321.154z"/>
		<path fill="#333333" d="M1056.365,344.328c-0.675,0.405-1.62,0.63-2.745,0.63c-1.979,0-3.24-1.08-3.24-3.6
			c-2.114,2.52-4.949,3.6-8.189,3.6c-4.229,0-7.694-1.845-7.694-6.525c0-5.265,3.915-6.435,7.874-7.155
			c4.186-0.855,7.83-0.495,7.83-3.42c0-3.375-2.79-3.87-5.175-3.87c-3.24,0-5.625,0.99-5.805,4.41h-3.825
			c0.226-5.76,4.635-7.785,9.854-7.785c4.186,0,8.73,0.945,8.73,6.39v11.969c0,1.8,0,2.61,1.215,2.61c0.359,0,0.765-0.09,1.17-0.225
			V344.328z M1050.155,332.403c-2.97,2.205-11.609,0.045-11.609,5.76c0,2.52,2.16,3.42,4.5,3.42c5.039,0,7.109-3.105,7.109-5.265
			V332.403z"/>
		<path fill="#333333" d="M1075.714,328.624c-0.585-2.925-2.564-4.635-5.76-4.635c-5.534,0-7.244,4.41-7.244,9.09
			c0,4.32,1.935,8.504,6.795,8.504c3.734,0,5.895-2.115,6.39-5.67h3.915c-0.855,5.715-4.365,9.045-10.26,9.045
			c-7.11,0-10.89-4.905-10.89-11.879c0-6.975,3.6-12.465,10.979-12.465c5.31,0,9.449,2.475,10.034,8.01H1075.714z"/>
		<path fill="#333333" d="M1089.394,321.154h4.635v3.375h-4.635v14.444c0,1.8,0.495,2.07,2.88,2.07h1.755v3.375h-2.925
			c-3.96,0-5.534-0.81-5.534-5.085v-14.804h-3.96v-3.375h3.96v-6.975h3.824V321.154z"/>
		<path fill="#333333" d="M1118.103,337.038c-1.034,5.175-4.68,7.92-9.944,7.92c-7.425,0-10.935-5.175-11.159-12.24
			c0-7.02,4.59-12.104,10.935-12.104c8.234,0,10.754,7.695,10.529,13.32h-17.414c-0.135,4.05,2.16,7.649,7.244,7.649
			c3.195,0,5.355-1.485,6.03-4.545H1118.103z M1114.413,330.559c-0.225-3.645-2.88-6.57-6.705-6.57c-3.959,0-6.435,2.97-6.659,6.57
			H1114.413z"/>
		<path fill="#333333" d="M1122.288,321.154h3.6v4.905h0.09c1.845-3.78,4.41-5.58,8.55-5.445v4.05c-6.165,0-8.415,3.465-8.415,9.405
			v10.35h-3.824V321.154z"/>
		<path fill="#333333" d="M1141.457,316.969h-3.825v-4.68h3.825V316.969z M1137.632,321.154h3.825v23.264h-3.825V321.154z"/>
		<path fill="#333333" d="M1149.736,337.083c0.135,3.419,3.15,4.5,6.255,4.5c2.385,0,5.625-0.54,5.625-3.465
			c0-5.985-15.21-1.935-15.21-10.89c0-4.68,4.59-6.615,8.685-6.615c5.22,0,9.18,1.62,9.54,7.29h-3.825
			c-0.225-2.97-2.925-3.915-5.399-3.915c-2.295,0-4.95,0.63-4.95,2.97c0,2.7,4.05,3.24,7.605,4.05
			c3.824,0.855,7.604,2.16,7.604,6.615c0,5.58-5.175,7.335-9.899,7.335c-5.221,0-9.63-2.115-9.855-7.875H1149.736z"/>
		<path fill="#333333" d="M1175.206,321.154h4.635v3.375h-4.635v14.444c0,1.8,0.495,2.07,2.88,2.07h1.755v3.375h-2.925
			c-3.96,0-5.534-0.81-5.534-5.085v-14.804h-3.96v-3.375h3.96v-6.975h3.824V321.154z"/>
		<path fill="#333333" d="M1188.121,316.969h-3.825v-4.68h3.825V316.969z M1184.296,321.154h3.825v23.264h-3.825V321.154z"/>
		<path fill="#333333" d="M1209.854,328.624c-0.585-2.925-2.564-4.635-5.76-4.635c-5.534,0-7.244,4.41-7.244,9.09
			c0,4.32,1.935,8.504,6.795,8.504c3.734,0,5.895-2.115,6.39-5.67h3.915c-0.855,5.715-4.365,9.045-10.26,9.045
			c-7.11,0-10.89-4.905-10.89-11.879c0-6.975,3.6-12.465,10.979-12.465c5.31,0,9.449,2.475,10.034,8.01H1209.854z"/>
		<path fill="#333333" d="M1220.564,337.083c0.135,3.419,3.15,4.5,6.255,4.5c2.385,0,5.625-0.54,5.625-3.465
			c0-5.985-15.21-1.935-15.21-10.89c0-4.68,4.59-6.615,8.685-6.615c5.22,0,9.18,1.62,9.54,7.29h-3.825
			c-0.225-2.97-2.925-3.915-5.399-3.915c-2.295,0-4.95,0.63-4.95,2.97c0,2.7,4.05,3.24,7.605,4.05
			c3.824,0.855,7.604,2.16,7.604,6.615c0,5.58-5.175,7.335-9.899,7.335c-5.221,0-9.63-2.115-9.855-7.875H1220.564z"/>
		<path fill="#333333" d="M1273.844,344.328c-0.675,0.405-1.62,0.63-2.745,0.63c-1.979,0-3.24-1.08-3.24-3.6
			c-2.114,2.52-4.949,3.6-8.189,3.6c-4.229,0-7.694-1.845-7.694-6.525c0-5.265,3.915-6.435,7.874-7.155
			c4.186-0.855,7.83-0.495,7.83-3.42c0-3.375-2.79-3.87-5.175-3.87c-3.24,0-5.625,0.99-5.805,4.41h-3.825
			c0.226-5.76,4.635-7.785,9.854-7.785c4.186,0,8.73,0.945,8.73,6.39v11.969c0,1.8,0,2.61,1.215,2.61c0.359,0,0.765-0.09,1.17-0.225
			V344.328z M1267.634,332.403c-2.97,2.205-11.609,0.045-11.609,5.76c0,2.52,2.16,3.42,4.5,3.42c5.039,0,7.109-3.105,7.109-5.265
			V332.403z"/>
		<path fill="#333333" d="M1277.398,321.154h3.6v3.69h0.09c1.62-2.88,4.186-4.23,7.561-4.23c6.119,0,8.009,3.51,8.009,8.505v15.299
			h-3.824v-15.75c0-2.88-1.8-4.68-4.725-4.68c-4.635,0-6.885,3.105-6.885,7.29v13.14h-3.825V321.154z"/>
		<path fill="#333333" d="M1323.207,344.418h-3.825v-3.15h-0.09c-1.26,2.565-4.185,3.69-7.425,3.69
			c-7.154,0-10.709-5.67-10.709-12.24c0-6.569,3.51-12.104,10.619-12.104c2.34,0,5.85,0.9,7.515,3.645h0.09v-11.97h3.825V344.418z
			 M1312.407,341.583c5.175,0,7.11-4.455,7.11-8.774c0-4.545-2.07-8.82-7.335-8.82c-5.22,0-6.975,4.455-6.975,9
			C1305.208,337.353,1307.458,341.583,1312.407,341.583z"/>
		<path fill="#333333" d="M678.917,375.154h3.6v4.905h0.09c1.845-3.78,4.41-5.58,8.55-5.445v4.05c-6.165,0-8.415,3.465-8.415,9.405
			v10.35h-3.824V375.154z"/>
		<path fill="#333333" d="M713.88,391.038c-1.034,5.175-4.68,7.92-9.944,7.92c-7.425,0-10.935-5.175-11.159-12.24
			c0-7.02,4.59-12.104,10.935-12.104c8.234,0,10.754,7.695,10.529,13.32h-17.414c-0.135,4.05,2.16,7.649,7.244,7.649
			c3.195,0,5.355-1.485,6.03-4.545H713.88z M710.19,384.559c-0.225-3.645-2.88-6.57-6.705-6.57c-3.959,0-6.435,2.97-6.659,6.57
			H710.19z"/>
		<path fill="#333333" d="M738.989,407.328h-3.825v-12.06h-0.09c-1.26,2.565-4.185,3.69-7.425,3.69
			c-7.154,0-10.709-5.67-10.709-12.24c0-6.569,3.51-12.104,10.619-12.104c2.34,0,5.85,0.9,7.515,3.645h0.09v-3.105h3.825V407.328z
			 M728.189,395.583c5.175,0,7.11-4.455,7.11-8.774c0-4.545-2.07-8.82-7.335-8.82c-5.22,0-6.975,4.455-6.975,9
			C720.99,391.353,723.24,395.583,728.189,395.583z"/>
		<path fill="#333333" d="M764.144,398.418h-3.6v-3.69h-0.09c-1.62,2.88-4.185,4.23-7.56,4.23c-6.12,0-8.01-3.51-8.01-8.505v-15.299
			h3.825v15.75c0,2.88,1.8,4.68,4.725,4.68c4.635,0,6.885-3.105,6.885-7.29v-13.14h3.824V398.418z"/>
		<path fill="#333333" d="M773.954,370.969h-3.825v-4.68h3.825V370.969z M770.129,375.154h3.825v23.264h-3.825V375.154z"/>
		<path fill="#333333" d="M779.759,375.154h3.6v4.905h0.09c1.845-3.78,4.41-5.58,8.55-5.445v4.05c-6.165,0-8.415,3.465-8.415,9.405
			v10.35h-3.824V375.154z"/>
		<path fill="#333333" d="M814.722,391.038c-1.034,5.175-4.68,7.92-9.944,7.92c-7.425,0-10.935-5.175-11.159-12.24
			c0-7.02,4.59-12.104,10.935-12.104c8.234,0,10.754,7.695,10.529,13.32h-17.414c-0.135,4.05,2.16,7.649,7.244,7.649
			c3.195,0,5.355-1.485,6.03-4.545H814.722z M811.032,384.559c-0.225-3.645-2.88-6.57-6.705-6.57c-3.959,0-6.435,2.97-6.659,6.57
			H811.032z"/>
		<path fill="#333333" d="M819.042,375.154h3.6v3.42h0.09c1.755-2.655,4.23-3.96,7.515-3.96c2.88,0,5.445,1.08,6.391,3.96
			c1.574-2.52,4.274-3.96,7.289-3.96c4.635,0,7.74,1.935,7.74,6.75v17.054h-3.825v-15.254c0-2.88-0.765-5.175-4.5-5.175
			c-3.734,0-6.074,2.34-6.074,5.94v14.489h-3.825v-15.254c0-3.015-0.945-5.175-4.365-5.175c-4.499,0-6.209,4.14-6.209,5.94v14.489
			h-3.825V375.154z"/>
		<path fill="#333333" d="M877.271,391.038c-1.034,5.175-4.68,7.92-9.944,7.92c-7.425,0-10.935-5.175-11.159-12.24
			c0-7.02,4.59-12.104,10.935-12.104c8.234,0,10.754,7.695,10.529,13.32h-17.414c-0.135,4.05,2.16,7.649,7.244,7.649
			c3.195,0,5.355-1.485,6.03-4.545H877.271z M873.581,384.559c-0.225-3.645-2.88-6.57-6.705-6.57c-3.959,0-6.435,2.97-6.659,6.57
			H873.581z"/>
		<path fill="#333333" d="M881.591,375.154h3.6v3.69h0.09c1.62-2.88,4.186-4.23,7.561-4.23c6.119,0,8.009,3.51,8.009,8.505v15.299
			h-3.824v-15.75c0-2.88-1.8-4.68-4.725-4.68c-4.635,0-6.885,3.105-6.885,7.29v13.14h-3.825V375.154z"/>
		<path fill="#333333" d="M911.92,375.154h4.635v3.375h-4.635v14.444c0,1.8,0.495,2.07,2.88,2.07h1.755v3.375h-2.925
			c-3.96,0-5.534-0.81-5.534-5.085v-14.804h-3.96v-3.375h3.96v-6.975h3.824V375.154z"/>
		<path fill="#333333" d="M923.125,391.083c0.135,3.419,3.15,4.5,6.255,4.5c2.385,0,5.625-0.54,5.625-3.465
			c0-5.985-15.21-1.935-15.21-10.89c0-4.68,4.59-6.615,8.685-6.615c5.22,0,9.18,1.62,9.54,7.29h-3.825
			c-0.225-2.97-2.925-3.915-5.399-3.915c-2.295,0-4.95,0.63-4.95,2.97c0,2.7,4.05,3.24,7.605,4.05
			c3.824,0.855,7.604,2.16,7.604,6.615c0,5.58-5.175,7.335-9.899,7.335c-5.221,0-9.63-2.115-9.855-7.875H923.125z"/>
		<path fill="#333333" d="M965.829,374.614c7.38,0,11.295,5.355,11.295,12.195c0,6.794-3.915,12.149-11.295,12.149
			c-7.379,0-11.294-5.355-11.294-12.149C954.535,379.969,958.45,374.614,965.829,374.614z M965.829,395.583
			c4.005,0,7.245-3.15,7.245-8.774c0-5.625-3.24-8.82-7.245-8.82s-7.244,3.195-7.244,8.82
			C958.585,392.433,961.824,395.583,965.829,395.583z"/>
		<path fill="#333333" d="M983.199,378.529h-3.915v-3.375h3.915v-3.465c0-3.78,2.25-5.76,6.435-5.76c0.72,0,1.755,0.135,2.475,0.36
			v3.33c-0.675-0.225-1.484-0.315-2.16-0.315c-1.845,0-2.925,0.585-2.925,2.61v3.24h4.5v3.375h-4.5v19.889h-3.824V378.529z"/>
		<path fill="#333333" d="M1028.062,398.328c-0.675,0.405-1.62,0.63-2.745,0.63c-1.979,0-3.24-1.08-3.24-3.6
			c-2.114,2.52-4.949,3.6-8.189,3.6c-4.229,0-7.694-1.845-7.694-6.525c0-5.265,3.915-6.435,7.874-7.155
			c4.186-0.855,7.83-0.495,7.83-3.42c0-3.375-2.79-3.87-5.175-3.87c-3.24,0-5.625,0.99-5.805,4.41h-3.825
			c0.226-5.76,4.635-7.785,9.854-7.785c4.186,0,8.73,0.945,8.73,6.39v11.969c0,1.8,0,2.61,1.215,2.61c0.359,0,0.765-0.09,1.17-0.225
			V398.328z M1021.853,386.403c-2.97,2.205-11.609,0.045-11.609,5.76c0,2.52,2.16,3.42,4.5,3.42c5.039,0,7.109-3.105,7.109-5.265
			V386.403z"/>
		<path fill="#333333" d="M1031.617,375.154h3.6v3.69h0.09c1.62-2.88,4.186-4.23,7.561-4.23c6.119,0,8.009,3.51,8.009,8.505v15.299
			h-3.824v-15.75c0-2.88-1.8-4.68-4.725-4.68c-4.635,0-6.885,3.105-6.885,7.29v13.14h-3.825V375.154z"/>
		<path fill="#333333" d="M1083.366,365.524c10.214,0,15.389,8.055,15.389,16.829c0,8.775-5.175,16.83-15.389,16.83
			c-10.215,0-15.39-8.055-15.39-16.83C1067.977,373.579,1073.151,365.524,1083.366,365.524z M1083.366,395.583
			c7.829,0,11.114-6.75,11.114-13.229c0-6.479-3.285-13.229-11.114-13.229c-7.83,0-11.115,6.75-11.115,13.229
			C1072.251,388.833,1075.536,395.583,1083.366,395.583z"/>
		<path fill="#333333" d="M1104.922,378.529h-3.915v-3.375h3.915v-3.465c0-3.78,2.25-5.76,6.435-5.76c0.72,0,1.755,0.135,2.475,0.36
			v3.33c-0.675-0.225-1.484-0.315-2.16-0.315c-1.845,0-2.925,0.585-2.925,2.61v3.24h4.5v3.375h-4.5v19.889h-3.824V378.529z"/>
		<path fill="#333333" d="M1118.241,378.529h-3.915v-3.375h3.915v-3.465c0-3.78,2.25-5.76,6.435-5.76c0.72,0,1.755,0.135,2.475,0.36
			v3.33c-0.675-0.225-1.484-0.315-2.16-0.315c-1.845,0-2.925,0.585-2.925,2.61v3.24h4.5v3.375h-4.5v19.889h-3.824V378.529z"/>
		<path fill="#333333" d="M1149.829,391.038c-1.034,5.175-4.68,7.92-9.944,7.92c-7.425,0-10.935-5.175-11.159-12.24
			c0-7.02,4.59-12.104,10.935-12.104c8.234,0,10.754,7.695,10.529,13.32h-17.414c-0.135,4.05,2.16,7.649,7.244,7.649
			c3.195,0,5.355-1.485,6.03-4.545H1149.829z M1146.14,384.559c-0.225-3.645-2.88-6.57-6.705-6.57c-3.959,0-6.435,2.97-6.659,6.57
			H1146.14z"/>
		<path fill="#333333" d="M1154.015,375.154h3.6v4.905h0.09c1.845-3.78,4.41-5.58,8.55-5.445v4.05c-6.165,0-8.415,3.465-8.415,9.405
			v10.35h-3.824V375.154z"/>
		<path fill="#333333" d="M1173.184,370.969h-3.825v-4.68h3.825V370.969z M1169.358,375.154h3.825v23.264h-3.825V375.154z"/>
		<path fill="#333333" d="M1179.123,375.154h3.6v3.69h0.09c1.62-2.88,4.186-4.23,7.561-4.23c6.119,0,8.009,3.51,8.009,8.505v15.299
			h-3.824v-15.75c0-2.88-1.8-4.68-4.725-4.68c-4.635,0-6.885,3.105-6.885,7.29v13.14h-3.825V375.154z"/>
		<path fill="#333333" d="M1224.212,396.438c0,7.605-3.42,11.43-10.8,11.43c-4.364,0-9.404-1.8-9.63-6.84h3.825
			c0.135,2.745,3.555,3.78,6.029,3.78c4.995,0,6.976-3.6,6.976-8.819v-1.53h-0.091c-1.305,2.835-4.274,4.23-7.244,4.23
			c-6.93,0-10.395-5.445-10.395-11.79c0-5.49,2.654-12.285,10.754-12.285c2.926,0,5.535,1.305,6.931,3.87h0.045v-3.33h3.6V396.438z
			 M1220.432,386.313c0-4.095-1.8-8.325-6.614-8.325c-4.905,0-6.885,4.005-6.885,8.459c0,4.185,1.53,8.865,6.569,8.865
			C1218.542,395.313,1220.432,390.678,1220.432,386.313z"/>
		<path fill="#333333" d="M1247.791,375.154h4.635v3.375h-4.635v14.444c0,1.8,0.495,2.07,2.88,2.07h1.755v3.375h-2.925
			c-3.96,0-5.534-0.81-5.534-5.085v-14.804h-3.96v-3.375h3.96v-6.975h3.824V375.154z"/>
		<path fill="#333333" d="M1256.656,366.289h3.825v12.285h0.09c1.215-2.835,4.59-3.96,7.335-3.96c6.119,0,8.009,3.51,8.009,8.505
			v15.299h-3.824v-15.75c0-2.88-1.8-4.68-4.725-4.68c-4.635,0-6.885,3.105-6.885,7.29v13.14h-3.825V366.289z"/>
		<path fill="#333333" d="M1302.285,398.328c-0.675,0.405-1.62,0.63-2.745,0.63c-1.979,0-3.24-1.08-3.24-3.6
			c-2.114,2.52-4.949,3.6-8.189,3.6c-4.229,0-7.694-1.845-7.694-6.525c0-5.265,3.915-6.435,7.874-7.155
			c4.186-0.855,7.83-0.495,7.83-3.42c0-3.375-2.79-3.87-5.175-3.87c-3.24,0-5.625,0.99-5.805,4.41h-3.825
			c0.226-5.76,4.635-7.785,9.854-7.785c4.186,0,8.73,0.945,8.73,6.39v11.969c0,1.8,0,2.61,1.215,2.61c0.359,0,0.765-0.09,1.17-0.225
			V398.328z M1296.075,386.403c-2.97,2.205-11.609,0.045-11.609,5.76c0,2.52,2.16,3.42,4.5,3.42c5.039,0,7.109-3.105,7.109-5.265
			V386.403z"/>
		<path fill="#333333" d="M1311.149,375.154h4.635v3.375h-4.635v14.444c0,1.8,0.495,2.07,2.88,2.07h1.755v3.375h-2.925
			c-3.96,0-5.534-0.81-5.534-5.085v-14.804h-3.96v-3.375h3.96v-6.975h3.824V375.154z"/>
		<path fill="#333333" d="M699.661,452.328c-0.675,0.405-1.62,0.63-2.745,0.63c-1.979,0-3.24-1.08-3.24-3.6
			c-2.114,2.52-4.949,3.6-8.189,3.6c-4.229,0-7.694-1.845-7.694-6.524c0-5.266,3.915-6.436,7.874-7.155
			c4.186-0.854,7.83-0.495,7.83-3.42c0-3.375-2.79-3.87-5.175-3.87c-3.24,0-5.625,0.99-5.805,4.41h-3.825
			c0.226-5.76,4.635-7.785,9.854-7.785c4.186,0,8.73,0.945,8.73,6.39v11.97c0,1.8,0,2.609,1.215,2.609
			c0.359,0,0.765-0.09,1.17-0.225V452.328z M693.451,440.403c-2.97,2.205-11.609,0.045-11.609,5.76c0,2.521,2.16,3.42,4.5,3.42
			c5.039,0,7.109-3.104,7.109-5.265V440.403z"/>
		<path fill="#333333" d="M703.081,429.154h3.6v4.905h0.09c1.845-3.78,4.41-5.58,8.55-5.445v4.05c-6.165,0-8.415,3.465-8.415,9.405
			v10.35h-3.824V429.154z"/>
		<path fill="#333333" d="M738.044,445.038c-1.034,5.175-4.68,7.92-9.944,7.92c-7.425,0-10.935-5.175-11.159-12.239
			c0-7.02,4.59-12.105,10.935-12.105c8.234,0,10.754,7.695,10.529,13.32H720.99c-0.135,4.05,2.16,7.649,7.244,7.649
			c3.195,0,5.355-1.484,6.03-4.545H738.044z M734.354,438.559c-0.225-3.645-2.88-6.57-6.705-6.57c-3.959,0-6.435,2.97-6.659,6.57
			H734.354z"/>
		<path fill="#333333" d="M774.133,452.418h-3.6v-3.689h-0.09c-1.62,2.88-4.185,4.229-7.56,4.229c-6.12,0-8.01-3.51-8.01-8.505
			v-15.299h3.825v15.75c0,2.88,1.8,4.68,4.725,4.68c4.635,0,6.885-3.104,6.885-7.29v-13.139h3.824V452.418z"/>
		<path fill="#333333" d="M782.233,445.083c0.135,3.42,3.15,4.5,6.255,4.5c2.385,0,5.625-0.54,5.625-3.465
			c0-5.984-15.21-1.935-15.21-10.89c0-4.68,4.59-6.615,8.685-6.615c5.22,0,9.18,1.62,9.54,7.29h-3.825
			c-0.225-2.97-2.925-3.915-5.399-3.915c-2.295,0-4.95,0.63-4.95,2.97c0,2.7,4.05,3.24,7.605,4.05
			c3.824,0.854,7.604,2.159,7.604,6.614c0,5.58-5.175,7.335-9.899,7.335c-5.221,0-9.63-2.115-9.855-7.875H782.233z"/>
		<path fill="#333333" d="M822.237,445.038c-1.034,5.175-4.68,7.92-9.944,7.92c-7.425,0-10.935-5.175-11.159-12.239
			c0-7.02,4.59-12.105,10.935-12.105c8.234,0,10.754,7.695,10.529,13.32h-17.414c-0.135,4.05,2.16,7.649,7.244,7.649
			c3.195,0,5.355-1.484,6.03-4.545H822.237z M818.548,438.559c-0.225-3.645-2.88-6.57-6.705-6.57c-3.959,0-6.435,2.97-6.659,6.57
			H818.548z"/>
		<path fill="#333333" d="M847.347,452.418h-3.825v-3.149h-0.09c-1.26,2.564-4.185,3.689-7.425,3.689
			c-7.154,0-10.709-5.67-10.709-12.239c0-6.57,3.51-12.105,10.619-12.105c2.34,0,5.85,0.9,7.515,3.645h0.09v-11.97h3.825V452.418z
			 M836.547,449.583c5.175,0,7.11-4.455,7.11-8.774c0-4.545-2.07-8.82-7.335-8.82c-5.22,0-6.975,4.455-6.975,9
			C829.348,445.354,831.598,449.583,836.547,449.583z"/>
		<path fill="#333333" d="M886.361,452.328c-0.675,0.405-1.62,0.63-2.745,0.63c-1.979,0-3.24-1.08-3.24-3.6
			c-2.114,2.52-4.949,3.6-8.189,3.6c-4.229,0-7.694-1.845-7.694-6.524c0-5.266,3.915-6.436,7.874-7.155
			c4.186-0.854,7.83-0.495,7.83-3.42c0-3.375-2.79-3.87-5.175-3.87c-3.24,0-5.625,0.99-5.805,4.41h-3.825
			c0.226-5.76,4.635-7.785,9.854-7.785c4.186,0,8.73,0.945,8.73,6.39v11.97c0,1.8,0,2.609,1.215,2.609
			c0.359,0,0.765-0.09,1.17-0.225V452.328z M880.151,440.403c-2.97,2.205-11.609,0.045-11.609,5.76c0,2.521,2.16,3.42,4.5,3.42
			c5.039,0,7.109-3.104,7.109-5.265V440.403z"/>
		<path fill="#333333" d="M892.256,445.083c0.135,3.42,3.15,4.5,6.255,4.5c2.385,0,5.625-0.54,5.625-3.465
			c0-5.984-15.21-1.935-15.21-10.89c0-4.68,4.59-6.615,8.685-6.615c5.22,0,9.18,1.62,9.54,7.29h-3.825
			c-0.225-2.97-2.925-3.915-5.399-3.915c-2.295,0-4.95,0.63-4.95,2.97c0,2.7,4.05,3.24,7.605,4.05
			c3.824,0.854,7.604,2.159,7.604,6.614c0,5.58-5.175,7.335-9.899,7.335c-5.221,0-9.63-2.115-9.855-7.875H892.256z"/>
		<path fill="#333333" d="M945.535,452.328c-0.675,0.405-1.62,0.63-2.745,0.63c-1.979,0-3.24-1.08-3.24-3.6
			c-2.114,2.52-4.949,3.6-8.189,3.6c-4.229,0-7.694-1.845-7.694-6.524c0-5.266,3.915-6.436,7.874-7.155
			c4.186-0.854,7.83-0.495,7.83-3.42c0-3.375-2.79-3.87-5.175-3.87c-3.24,0-5.625,0.99-5.805,4.41h-3.825
			c0.226-5.76,4.635-7.785,9.854-7.785c4.186,0,8.73,0.945,8.73,6.39v11.97c0,1.8,0,2.609,1.215,2.609
			c0.359,0,0.765-0.09,1.17-0.225V452.328z M939.325,440.403c-2.97,2.205-11.609,0.045-11.609,5.76c0,2.521,2.16,3.42,4.5,3.42
			c5.039,0,7.109-3.104,7.109-5.265V440.403z"/>
		<path fill="#333333" d="M961.734,420.289h3.825v12.015h0.09c1.26-2.565,4.185-3.69,7.425-3.69c7.154,0,10.71,5.67,10.71,12.24
			c0,6.614-3.511,12.104-10.62,12.104c-2.34,0-5.85-0.9-7.515-3.645h-0.09v3.104h-3.825V420.289z M972.534,431.989
			c-5.175,0-7.109,4.455-7.109,8.775c0,4.545,2.069,8.819,7.334,8.819c5.22,0,6.975-4.455,6.975-9
			C979.733,436.219,977.484,431.989,972.534,431.989z"/>
		<path fill="#333333" d="M1008.894,452.328c-0.675,0.405-1.62,0.63-2.745,0.63c-1.979,0-3.24-1.08-3.24-3.6
			c-2.114,2.52-4.949,3.6-8.189,3.6c-4.229,0-7.694-1.845-7.694-6.524c0-5.266,3.915-6.436,7.874-7.155
			c4.186-0.854,7.83-0.495,7.83-3.42c0-3.375-2.79-3.87-5.175-3.87c-3.24,0-5.625,0.99-5.805,4.41h-3.825
			c0.226-5.76,4.635-7.785,9.854-7.785c4.186,0,8.73,0.945,8.73,6.39v11.97c0,1.8,0,2.609,1.215,2.609
			c0.359,0,0.765-0.09,1.17-0.225V452.328z M1002.684,440.403c-2.97,2.205-11.609,0.045-11.609,5.76c0,2.521,2.16,3.42,4.5,3.42
			c5.039,0,7.109-3.104,7.109-5.265V440.403z"/>
		<path fill="#333333" d="M1014.788,445.083c0.135,3.42,3.15,4.5,6.255,4.5c2.385,0,5.625-0.54,5.625-3.465
			c0-5.984-15.21-1.935-15.21-10.89c0-4.68,4.59-6.615,8.685-6.615c5.22,0,9.18,1.62,9.54,7.29h-3.825
			c-0.225-2.97-2.925-3.915-5.399-3.915c-2.295,0-4.95,0.63-4.95,2.97c0,2.7,4.05,3.24,7.605,4.05
			c3.824,0.854,7.604,2.159,7.604,6.614c0,5.58-5.175,7.335-9.899,7.335c-5.221,0-9.63-2.115-9.855-7.875H1014.788z"/>
		<path fill="#333333" d="M1038.998,424.969h-3.825v-4.68h3.825V424.969z M1035.173,429.154h3.825v23.264h-3.825V429.154z"/>
		<path fill="#333333" d="M1047.277,445.083c0.135,3.42,3.15,4.5,6.255,4.5c2.385,0,5.625-0.54,5.625-3.465
			c0-5.984-15.21-1.935-15.21-10.89c0-4.68,4.59-6.615,8.685-6.615c5.22,0,9.18,1.62,9.54,7.29h-3.825
			c-0.225-2.97-2.925-3.915-5.399-3.915c-2.295,0-4.95,0.63-4.95,2.97c0,2.7,4.05,3.24,7.605,4.05
			c3.824,0.854,7.604,2.159,7.604,6.614c0,5.58-5.175,7.335-9.899,7.335c-5.221,0-9.63-2.115-9.855-7.875H1047.277z"/>
		<path fill="#333333" d="M1081.522,432.529h-3.915v-3.375h3.915v-3.465c0-3.78,2.25-5.76,6.435-5.76c0.72,0,1.755,0.135,2.475,0.36
			v3.33c-0.675-0.225-1.484-0.315-2.16-0.315c-1.845,0-2.925,0.585-2.925,2.61v3.24h4.5v3.375h-4.5v19.889h-3.824V432.529z"/>
		<path fill="#333333" d="M1103.301,428.614c7.38,0,11.295,5.355,11.295,12.195c0,6.795-3.915,12.149-11.295,12.149
			c-7.379,0-11.294-5.354-11.294-12.149C1092.007,433.969,1095.922,428.614,1103.301,428.614z M1103.301,449.583
			c4.005,0,7.245-3.149,7.245-8.774s-3.24-8.82-7.245-8.82s-7.244,3.195-7.244,8.82S1099.296,449.583,1103.301,449.583z"/>
		<path fill="#333333" d="M1118.961,429.154h3.6v4.905h0.09c1.845-3.78,4.41-5.58,8.55-5.445v4.05c-6.165,0-8.415,3.465-8.415,9.405
			v10.35h-3.824V429.154z"/>
		<path fill="#333333" d="M1151.899,429.154h4.635v3.375h-4.635v14.445c0,1.8,0.495,2.069,2.88,2.069h1.755v3.375h-2.925
			c-3.96,0-5.534-0.81-5.534-5.085v-14.804h-3.96v-3.375h3.96v-6.975h3.824V429.154z"/>
		<path fill="#333333" d="M1160.765,420.289h3.825v12.285h0.09c1.215-2.835,4.59-3.96,7.335-3.96c6.119,0,8.009,3.51,8.009,8.504
			v15.3h-3.824v-15.749c0-2.88-1.8-4.68-4.725-4.68c-4.635,0-6.885,3.105-6.885,7.29v13.14h-3.825V420.289z"/>
		<path fill="#333333" d="M1205.628,445.038c-1.034,5.175-4.68,7.92-9.944,7.92c-7.425,0-10.935-5.175-11.159-12.239
			c0-7.02,4.59-12.105,10.935-12.105c8.234,0,10.754,7.695,10.529,13.32h-17.414c-0.135,4.05,2.16,7.649,7.244,7.649
			c3.195,0,5.355-1.484,6.03-4.545H1205.628z M1201.938,438.559c-0.225-3.645-2.88-6.57-6.705-6.57c-3.959,0-6.435,2.97-6.659,6.57
			H1201.938z"/>
		<path fill="#333333" d="M693.271,473.524c10.214,0,15.389,8.055,15.389,16.829s-5.175,16.829-15.389,16.829
			c-10.215,0-15.39-8.055-15.39-16.829S683.057,473.524,693.271,473.524z M693.271,503.583c7.829,0,11.114-6.75,11.114-13.229
			s-3.285-13.229-11.114-13.229c-7.83,0-11.115,6.75-11.115,13.229S685.441,503.583,693.271,503.583z"/>
		<path fill="#333333" d="M714.827,486.528h-3.915v-3.374h3.915v-3.465c0-3.78,2.25-5.76,6.435-5.76c0.72,0,1.755,0.135,2.475,0.359
			v3.33c-0.675-0.225-1.484-0.315-2.16-0.315c-1.845,0-2.925,0.585-2.925,2.61v3.24h4.5v3.374h-4.5v19.89h-3.824V486.528z"/>
		<path fill="#333333" d="M728.146,486.528h-3.915v-3.374h3.915v-3.465c0-3.78,2.25-5.76,6.435-5.76c0.72,0,1.755,0.135,2.475,0.359
			v3.33c-0.675-0.225-1.484-0.315-2.16-0.315c-1.845,0-2.925,0.585-2.925,2.61v3.24h4.5v3.374h-4.5v19.89h-3.824V486.528z"/>
		<path fill="#333333" d="M759.734,499.038c-1.034,5.175-4.68,7.92-9.944,7.92c-7.425,0-10.935-5.175-11.159-12.239
			c0-7.021,4.59-12.104,10.935-12.104c8.234,0,10.754,7.694,10.529,13.319h-17.414c-0.135,4.05,2.16,7.649,7.244,7.649
			c3.195,0,5.355-1.484,6.03-4.545H759.734z M756.045,492.559c-0.225-3.645-2.88-6.569-6.705-6.569c-3.959,0-6.435,2.97-6.659,6.569
			H756.045z"/>
		<path fill="#333333" d="M763.92,483.154h3.6v4.904h0.09c1.845-3.779,4.41-5.58,8.55-5.444v4.05c-6.165,0-8.415,3.465-8.415,9.404
			v10.35h-3.824V483.154z"/>
		<path fill="#333333" d="M783.089,478.969h-3.825v-4.68h3.825V478.969z M779.264,483.154h3.825v23.264h-3.825V483.154z"/>
		<path fill="#333333" d="M789.028,483.154h3.6v3.689h0.09c1.62-2.88,4.186-4.229,7.561-4.229c6.119,0,8.009,3.51,8.009,8.504v15.3
			h-3.824v-15.749c0-2.88-1.8-4.68-4.725-4.68c-4.635,0-6.885,3.104-6.885,7.289v13.14h-3.825V483.154z"/>
		<path fill="#333333" d="M834.117,504.438c0,7.604-3.42,11.429-10.8,11.429c-4.364,0-9.404-1.8-9.63-6.839h3.825
			c0.135,2.744,3.555,3.779,6.029,3.779c4.995,0,6.976-3.6,6.976-8.819v-1.53h-0.091c-1.305,2.835-4.274,4.229-7.244,4.229
			c-6.93,0-10.395-5.444-10.395-11.789c0-5.49,2.654-12.284,10.754-12.284c2.926,0,5.535,1.305,6.931,3.869h0.045v-3.329h3.6
			V504.438z M830.337,494.313c0-4.095-1.8-8.324-6.614-8.324c-4.905,0-6.885,4.004-6.885,8.459c0,4.185,1.529,8.865,6.569,8.865
			S830.337,498.679,830.337,494.313z"/>
		<path fill="#333333" d="M873.176,506.418h-3.825v-3.149h-0.09c-1.26,2.564-4.185,3.689-7.425,3.689
			c-7.154,0-10.709-5.67-10.709-12.239c0-6.57,3.51-12.104,10.619-12.104c2.34,0,5.85,0.899,7.515,3.645h0.09v-11.97h3.825V506.418z
			 M862.376,503.583c5.175,0,7.11-4.455,7.11-8.774c0-4.545-2.07-8.819-7.335-8.819c-5.22,0-6.975,4.454-6.975,8.999
			C855.177,499.354,857.427,503.583,862.376,503.583z"/>
		<path fill="#333333" d="M898.915,499.038c-1.034,5.175-4.68,7.92-9.944,7.92c-7.425,0-10.935-5.175-11.159-12.239
			c0-7.021,4.59-12.104,10.935-12.104c8.234,0,10.754,7.694,10.529,13.319h-17.414c-0.135,4.05,2.16,7.649,7.244,7.649
			c3.195,0,5.355-1.484,6.03-4.545H898.915z M895.226,492.559c-0.225-3.645-2.88-6.569-6.705-6.569c-3.959,0-6.435,2.97-6.659,6.569
			H895.226z"/>
		<path fill="#333333" d="M905.575,499.083c0.135,3.42,3.15,4.5,6.255,4.5c2.385,0,5.625-0.54,5.625-3.465
			c0-5.984-15.21-1.935-15.21-10.89c0-4.68,4.59-6.614,8.685-6.614c5.22,0,9.18,1.619,9.54,7.289h-3.825
			c-0.225-2.97-2.925-3.914-5.399-3.914c-2.295,0-4.95,0.63-4.95,2.97c0,2.699,4.05,3.239,7.605,4.05
			c3.824,0.854,7.604,2.159,7.604,6.614c0,5.58-5.175,7.335-9.899,7.335c-5.221,0-9.63-2.115-9.855-7.875H905.575z"/>
		<path fill="#333333" d="M929.785,478.969h-3.825v-4.68h3.825V478.969z M925.96,483.154h3.825v23.264h-3.825V483.154z"/>
		<path fill="#333333" d="M955.794,504.438c0,7.604-3.42,11.429-10.8,11.429c-4.364,0-9.404-1.8-9.63-6.839h3.825
			c0.135,2.744,3.555,3.779,6.029,3.779c4.995,0,6.976-3.6,6.976-8.819v-1.53h-0.091c-1.305,2.835-4.274,4.229-7.244,4.229
			c-6.93,0-10.395-5.444-10.395-11.789c0-5.49,2.654-12.284,10.754-12.284c2.926,0,5.535,1.305,6.931,3.869h0.045v-3.329h3.6
			V504.438z M952.014,494.313c0-4.095-1.8-8.324-6.614-8.324c-4.905,0-6.885,4.004-6.885,8.459c0,4.185,1.53,8.865,6.569,8.865
			C950.124,503.313,952.014,498.679,952.014,494.313z"/>
		<path fill="#333333" d="M961.554,483.154h3.6v3.689h0.09c1.62-2.88,4.186-4.229,7.561-4.229c6.119,0,8.009,3.51,8.009,8.504v15.3
			h-3.824v-15.749c0-2.88-1.8-4.68-4.725-4.68c-4.635,0-6.885,3.104-6.885,7.289v13.14h-3.825V483.154z"/>
		<path fill="#333333" d="M1005.383,515.327c-4.32-6.704-7.064-13.184-7.064-21.059c0-7.064,2.43-14.579,7.064-20.744h2.925
			c-4.319,6.795-5.939,13.409-5.939,20.744c0,7.56,1.665,14.175,5.939,21.059H1005.383z"/>
		<path fill="#333333" d="M1030.581,499.038c-1.034,5.175-4.68,7.92-9.944,7.92c-7.425,0-10.935-5.175-11.159-12.239
			c0-7.021,4.59-12.104,10.935-12.104c8.234,0,10.754,7.694,10.529,13.319h-17.414c-0.135,4.05,2.16,7.649,7.244,7.649
			c3.195,0,5.355-1.484,6.03-4.545H1030.581z M1026.892,492.559c-0.225-3.645-2.88-6.569-6.705-6.569
			c-3.959,0-6.435,2.97-6.659,6.569H1026.892z"/>
		<path fill="#333333" d="M1035.756,501.423h4.995v4.995h-4.995V501.423z"/>
		<path fill="#333333" d="M1067.48,504.438c0,7.604-3.42,11.429-10.8,11.429c-4.364,0-9.404-1.8-9.63-6.839h3.825
			c0.135,2.744,3.555,3.779,6.029,3.779c4.995,0,6.976-3.6,6.976-8.819v-1.53h-0.091c-1.305,2.835-4.274,4.229-7.244,4.229
			c-6.93,0-10.395-5.444-10.395-11.789c0-5.49,2.654-12.284,10.754-12.284c2.926,0,5.535,1.305,6.931,3.869h0.045v-3.329h3.6
			V504.438z M1063.7,494.313c0-4.095-1.8-8.324-6.614-8.324c-4.905,0-6.885,4.004-6.885,8.459c0,4.185,1.529,8.865,6.569,8.865
			S1063.7,498.679,1063.7,494.313z"/>
		<path fill="#333333" d="M1074.095,501.423h4.995v4.995h-4.995V501.423z"/>
		<path fill="#333333" d="M1086.604,501.423h4.995v4.545c0,3.42-1.484,6.03-4.949,7.064v-2.249c1.979-0.721,2.744-2.88,2.609-4.365
			h-2.655V501.423z"/>
		<path fill="#333333" d="M1137.049,494.809c0,8.145-4.59,12.374-12.645,12.374c-8.28,0-13.185-3.824-13.185-12.374v-20.52h4.274
			v20.52c0,5.715,3.195,8.774,8.91,8.774c5.444,0,8.369-3.06,8.369-8.774v-20.52h4.275V494.809z"/>
		<path fill="#333333" d="M1145.599,499.083c0.135,3.42,3.15,4.5,6.255,4.5c2.385,0,5.625-0.54,5.625-3.465
			c0-5.984-15.21-1.935-15.21-10.89c0-4.68,4.59-6.614,8.685-6.614c5.22,0,9.18,1.619,9.54,7.289h-3.825
			c-0.225-2.97-2.925-3.914-5.399-3.914c-2.295,0-4.95,0.63-4.95,2.97c0,2.699,4.05,3.239,7.605,4.05
			c3.824,0.854,7.604,2.159,7.604,6.614c0,5.58-5.175,7.335-9.899,7.335c-5.221,0-9.63-2.115-9.855-7.875H1145.599z"/>
		<path fill="#333333" d="M1185.603,499.038c-1.034,5.175-4.68,7.92-9.944,7.92c-7.425,0-10.935-5.175-11.159-12.239
			c0-7.021,4.59-12.104,10.935-12.104c8.234,0,10.754,7.694,10.529,13.319h-17.414c-0.135,4.05,2.16,7.649,7.244,7.649
			c3.195,0,5.355-1.484,6.03-4.545H1185.603z M1181.913,492.559c-0.225-3.645-2.88-6.569-6.705-6.569
			c-3.959,0-6.435,2.97-6.659,6.569H1181.913z"/>
		<path fill="#333333" d="M1189.788,483.154h3.6v4.904h0.09c1.845-3.779,4.41-5.58,8.55-5.444v4.05
			c-6.165,0-8.415,3.465-8.415,9.404v10.35h-3.824V483.154z"/>
		<path fill="#333333" d="M1205.762,501.423h4.995v4.545c0,3.42-1.484,6.03-4.949,7.064v-2.249c1.979-0.721,2.744-2.88,2.609-4.365
			h-2.655V501.423z"/>
		<path fill="#333333" d="M679.187,537.154h3.825v3.149h0.09c1.26-2.564,4.185-3.689,7.425-3.689c7.154,0,10.71,5.67,10.71,12.239
			c0,6.614-3.511,12.104-10.62,12.104c-2.34,0-5.85-0.9-7.515-3.645h-0.09v12.014h-3.825V537.154z M689.986,539.989
			c-5.175,0-7.109,4.454-7.109,8.774c0,4.545,2.069,8.819,7.334,8.819c5.22,0,6.975-4.455,6.975-9
			C697.186,544.219,694.937,539.989,689.986,539.989z"/>
		<path fill="#333333" d="M705.602,537.154h3.6v4.904h0.09c1.845-3.779,4.41-5.58,8.55-5.444v4.05c-6.165,0-8.415,3.465-8.415,9.404
			v10.35h-3.824V537.154z"/>
		<path fill="#333333" d="M730.755,536.614c7.38,0,11.295,5.354,11.295,12.194c0,6.795-3.915,12.149-11.295,12.149
			c-7.379,0-11.294-5.354-11.294-12.149C719.461,541.969,723.376,536.614,730.755,536.614z M730.755,557.583
			c4.005,0,7.245-3.149,7.245-8.774s-3.24-8.819-7.245-8.819s-7.244,3.194-7.244,8.819S726.75,557.583,730.755,557.583z"/>
		<path fill="#333333" d="M767.339,560.418h-3.825v-3.149h-0.09c-1.26,2.564-4.185,3.689-7.425,3.689
			c-7.154,0-10.709-5.67-10.709-12.239c0-6.57,3.51-12.104,10.619-12.104c2.34,0,5.85,0.899,7.515,3.645h0.09v-11.97h3.825V560.418z
			 M756.539,557.583c5.175,0,7.11-4.455,7.11-8.774c0-4.545-2.07-8.819-7.335-8.819c-5.22,0-6.975,4.454-6.975,8.999
			C749.34,553.354,751.59,557.583,756.539,557.583z"/>
		<path fill="#333333" d="M792.493,560.418h-3.6v-3.689h-0.09c-1.62,2.88-4.185,4.229-7.56,4.229c-6.12,0-8.01-3.51-8.01-8.505
			v-15.299h3.825v15.749c0,2.88,1.8,4.68,4.725,4.68c4.635,0,6.885-3.104,6.885-7.29v-13.139h3.824V560.418z"/>
		<path fill="#333333" d="M814.048,544.624c-0.585-2.926-2.564-4.635-5.76-4.635c-5.534,0-7.244,4.409-7.244,9.089
			c0,4.32,1.935,8.505,6.795,8.505c3.734,0,5.895-2.115,6.39-5.67h3.915c-0.855,5.715-4.365,9.045-10.26,9.045
			c-7.11,0-10.89-4.905-10.89-11.88s3.6-12.464,10.979-12.464c5.31,0,9.449,2.475,10.034,8.01H814.048z"/>
		<path fill="#333333" d="M827.728,537.154h4.635v3.374h-4.635v14.445c0,1.8,0.495,2.069,2.88,2.069h1.755v3.375h-2.925
			c-3.96,0-5.534-0.81-5.534-5.085v-14.805h-3.96v-3.374h3.96v-6.976h3.824V537.154z"/>
		<path fill="#333333" d="M837.447,555.423h4.995v4.545c0,3.42-1.484,6.03-4.949,7.064v-2.249c1.979-0.721,2.744-2.88,2.609-4.365
			h-2.655V555.423z"/>
		<path fill="#333333" d="M861.478,537.154h3.6v4.904h0.09c1.845-3.779,4.41-5.58,8.55-5.444v4.05c-6.165,0-8.415,3.465-8.415,9.404
			v10.35h-3.824V537.154z"/>
		<path fill="#333333" d="M880.646,532.969h-3.825v-4.68h3.825V532.969z M876.821,537.154h3.825v23.264h-3.825V537.154z"/>
		<path fill="#333333" d="M888.926,553.083c0.135,3.42,3.15,4.5,6.255,4.5c2.385,0,5.625-0.54,5.625-3.465
			c0-5.984-15.21-1.935-15.21-10.89c0-4.68,4.59-6.614,8.685-6.614c5.22,0,9.18,1.619,9.54,7.289h-3.825
			c-0.225-2.97-2.925-3.914-5.399-3.914c-2.295,0-4.95,0.63-4.95,2.97c0,2.699,4.05,3.239,7.605,4.05
			c3.824,0.854,7.604,2.159,7.604,6.614c0,5.58-5.175,7.335-9.899,7.335c-5.221,0-9.63-2.115-9.855-7.875H888.926z"/>
		<path fill="#333333" d="M909.311,528.289h3.825v19.034l10.619-10.169h5.13l-9.225,8.459l9.9,14.805h-4.86l-7.965-12.149l-3.6,3.33
			v8.819h-3.825V528.289z"/>
		<path fill="#333333" d="M965.56,560.328c-0.675,0.405-1.62,0.63-2.745,0.63c-1.979,0-3.24-1.08-3.24-3.6
			c-2.114,2.52-4.949,3.6-8.189,3.6c-4.229,0-7.694-1.845-7.694-6.524c0-5.266,3.915-6.436,7.874-7.155
			c4.186-0.854,7.83-0.495,7.83-3.42c0-3.375-2.79-3.869-5.175-3.869c-3.24,0-5.625,0.989-5.805,4.409h-3.825
			c0.226-5.76,4.635-7.784,9.854-7.784c4.186,0,8.73,0.944,8.73,6.39v11.97c0,1.8,0,2.609,1.215,2.609
			c0.359,0,0.765-0.09,1.17-0.225V560.328z M959.35,548.403c-2.97,2.205-11.609,0.045-11.609,5.76c0,2.521,2.16,3.42,4.5,3.42
			c5.039,0,7.109-3.104,7.109-5.265V548.403z"/>
		<path fill="#333333" d="M969.114,537.154h3.6v3.689h0.09c1.62-2.88,4.186-4.229,7.561-4.229c6.119,0,8.009,3.51,8.009,8.504v15.3
			h-3.824v-15.749c0-2.88-1.8-4.68-4.725-4.68c-4.635,0-6.885,3.104-6.885,7.289v13.14h-3.825V537.154z"/>
		<path fill="#333333" d="M1014.923,560.418h-3.825v-3.149h-0.09c-1.26,2.564-4.185,3.689-7.425,3.689
			c-7.154,0-10.709-5.67-10.709-12.239c0-6.57,3.51-12.104,10.619-12.104c2.34,0,5.85,0.899,7.515,3.645h0.09v-11.97h3.825V560.418z
			 M1004.123,557.583c5.175,0,7.11-4.455,7.11-8.774c0-4.545-2.07-8.819-7.335-8.819c-5.22,0-6.975,4.454-6.975,8.999
			C996.924,553.354,999.174,557.583,1004.123,557.583z"/>
		<path fill="#333333" d="M1033.193,537.154h3.6v4.904h0.09c1.845-3.779,4.41-5.58,8.55-5.444v4.05
			c-6.165,0-8.415,3.465-8.415,9.404v10.35h-3.824V537.154z"/>
		<path fill="#333333" d="M1068.156,553.038c-1.034,5.175-4.68,7.92-9.944,7.92c-7.425,0-10.935-5.175-11.159-12.239
			c0-7.021,4.59-12.104,10.935-12.104c8.234,0,10.754,7.694,10.529,13.319h-17.414c-0.135,4.05,2.16,7.649,7.244,7.649
			c3.195,0,5.355-1.484,6.03-4.545H1068.156z M1064.467,546.559c-0.225-3.645-2.88-6.569-6.705-6.569
			c-3.959,0-6.435,2.97-6.659,6.569H1064.467z"/>
		<path fill="#333333" d="M1092.546,558.438c0,7.604-3.42,11.429-10.8,11.429c-4.364,0-9.404-1.8-9.63-6.839h3.825
			c0.135,2.744,3.555,3.779,6.029,3.779c4.995,0,6.976-3.6,6.976-8.819v-1.53h-0.091c-1.305,2.835-4.274,4.229-7.244,4.229
			c-6.93,0-10.395-5.444-10.395-11.789c0-5.49,2.654-12.284,10.754-12.284c2.926,0,5.535,1.305,6.931,3.869h0.045v-3.329h3.6
			V558.438z M1088.766,548.313c0-4.095-1.8-8.324-6.614-8.324c-4.905,0-6.885,4.004-6.885,8.459c0,4.185,1.53,8.865,6.569,8.865
			C1086.876,557.313,1088.766,552.679,1088.766,548.313z"/>
		<path fill="#333333" d="M1117.564,560.418h-3.6v-3.689h-0.09c-1.62,2.88-4.185,4.229-7.56,4.229c-6.12,0-8.01-3.51-8.01-8.505
			v-15.299h3.825v15.749c0,2.88,1.8,4.68,4.725,4.68c4.635,0,6.885-3.104,6.885-7.29v-13.139h3.824V560.418z"/>
		<path fill="#333333" d="M1123.55,528.289h3.825v32.129h-3.825V528.289z"/>
		<path fill="#333333" d="M1153.924,560.328c-0.675,0.405-1.62,0.63-2.745,0.63c-1.979,0-3.24-1.08-3.24-3.6
			c-2.114,2.52-4.949,3.6-8.189,3.6c-4.229,0-7.694-1.845-7.694-6.524c0-5.266,3.915-6.436,7.874-7.155
			c4.186-0.854,7.83-0.495,7.83-3.42c0-3.375-2.79-3.869-5.175-3.869c-3.24,0-5.625,0.989-5.805,4.409h-3.825
			c0.226-5.76,4.635-7.784,9.854-7.784c4.186,0,8.73,0.944,8.73,6.39v11.97c0,1.8,0,2.609,1.215,2.609
			c0.359,0,0.765-0.09,1.17-0.225V560.328z M1147.714,548.403c-2.97,2.205-11.609,0.045-11.609,5.76c0,2.521,2.16,3.42,4.5,3.42
			c5.039,0,7.109-3.104,7.109-5.265V548.403z"/>
		<path fill="#333333" d="M1162.788,537.154h4.635v3.374h-4.635v14.445c0,1.8,0.495,2.069,2.88,2.069h1.755v3.375h-2.925
			c-3.96,0-5.534-0.81-5.534-5.085v-14.805h-3.96v-3.374h3.96v-6.976h3.824V537.154z"/>
		<path fill="#333333" d="M1181.688,536.614c7.38,0,11.295,5.354,11.295,12.194c0,6.795-3.915,12.149-11.295,12.149
			c-7.379,0-11.294-5.354-11.294-12.149C1170.394,541.969,1174.309,536.614,1181.688,536.614z M1181.688,557.583
			c4.005,0,7.245-3.149,7.245-8.774s-3.24-8.819-7.245-8.819s-7.244,3.194-7.244,8.819S1177.683,557.583,1181.688,557.583z"/>
		<path fill="#333333" d="M1197.348,537.154h3.6v4.904h0.09c1.845-3.779,4.41-5.58,8.55-5.444v4.05
			c-6.165,0-8.415,3.465-8.415,9.404v10.35h-3.824V537.154z"/>
		<path fill="#333333" d="M1221.602,563.522c-1.8,4.5-3.33,6.21-6.75,6.21c-0.899,0-1.8-0.09-2.654-0.405v-3.51
			c0.72,0.226,1.484,0.54,2.249,0.54c1.575,0,2.431-0.72,3.15-2.114l1.575-3.96l-9.225-23.129h4.319l6.795,19.034h0.09l6.524-19.034
			h4.05L1221.602,563.522z"/>
		<path fill="#333333" d="M678.917,591.154h3.6v4.904h0.09c1.845-3.779,4.41-5.58,8.55-5.444v4.05c-6.165,0-8.415,3.465-8.415,9.404
			v10.35h-3.824V591.154z"/>
		<path fill="#333333" d="M713.88,607.038c-1.034,5.175-4.68,7.92-9.944,7.92c-7.425,0-10.935-5.175-11.159-12.239
			c0-7.021,4.59-12.104,10.935-12.104c8.234,0,10.754,7.694,10.529,13.319h-17.414c-0.135,4.05,2.16,7.649,7.244,7.649
			c3.195,0,5.355-1.484,6.03-4.545H713.88z M710.19,600.559c-0.225-3.645-2.88-6.569-6.705-6.569c-3.959,0-6.435,2.97-6.659,6.569
			H710.19z"/>
		<path fill="#333333" d="M738.989,623.327h-3.825v-12.059h-0.09c-1.26,2.564-4.185,3.689-7.425,3.689
			c-7.154,0-10.709-5.67-10.709-12.239c0-6.57,3.51-12.104,10.619-12.104c2.34,0,5.85,0.899,7.515,3.645h0.09v-3.104h3.825V623.327z
			 M728.189,611.583c5.175,0,7.11-4.455,7.11-8.774c0-4.545-2.07-8.819-7.335-8.819c-5.22,0-6.975,4.454-6.975,8.999
			C720.99,607.354,723.24,611.583,728.189,611.583z"/>
		<path fill="#333333" d="M764.144,614.418h-3.6v-3.689h-0.09c-1.62,2.88-4.185,4.229-7.56,4.229c-6.12,0-8.01-3.51-8.01-8.505
			v-15.299h3.825v15.749c0,2.88,1.8,4.68,4.725,4.68c4.635,0,6.885-3.104,6.885-7.29v-13.139h3.824V614.418z"/>
		<path fill="#333333" d="M773.954,586.969h-3.825v-4.68h3.825V586.969z M770.129,591.154h3.825v23.264h-3.825V591.154z"/>
		<path fill="#333333" d="M779.759,591.154h3.6v4.904h0.09c1.845-3.779,4.41-5.58,8.55-5.444v4.05c-6.165,0-8.415,3.465-8.415,9.404
			v10.35h-3.824V591.154z"/>
		<path fill="#333333" d="M814.722,607.038c-1.034,5.175-4.68,7.92-9.944,7.92c-7.425,0-10.935-5.175-11.159-12.239
			c0-7.021,4.59-12.104,10.935-12.104c8.234,0,10.754,7.694,10.529,13.319h-17.414c-0.135,4.05,2.16,7.649,7.244,7.649
			c3.195,0,5.355-1.484,6.03-4.545H814.722z M811.032,600.559c-0.225-3.645-2.88-6.569-6.705-6.569c-3.959,0-6.435,2.97-6.659,6.569
			H811.032z"/>
		<path fill="#333333" d="M819.042,591.154h3.6v3.42h0.09c1.755-2.655,4.23-3.96,7.515-3.96c2.88,0,5.445,1.08,6.391,3.96
			c1.574-2.521,4.274-3.96,7.289-3.96c4.635,0,7.74,1.935,7.74,6.749v17.055h-3.825v-15.254c0-2.88-0.765-5.175-4.5-5.175
			c-3.734,0-6.074,2.34-6.074,5.939v14.489h-3.825v-15.254c0-3.016-0.945-5.175-4.365-5.175c-4.499,0-6.209,4.14-6.209,5.939v14.489
			h-3.825V591.154z"/>
		<path fill="#333333" d="M877.271,607.038c-1.034,5.175-4.68,7.92-9.944,7.92c-7.425,0-10.935-5.175-11.159-12.239
			c0-7.021,4.59-12.104,10.935-12.104c8.234,0,10.754,7.694,10.529,13.319h-17.414c-0.135,4.05,2.16,7.649,7.244,7.649
			c3.195,0,5.355-1.484,6.03-4.545H877.271z M873.581,600.559c-0.225-3.645-2.88-6.569-6.705-6.569c-3.959,0-6.435,2.97-6.659,6.569
			H873.581z"/>
		<path fill="#333333" d="M881.591,591.154h3.6v3.689h0.09c1.62-2.88,4.186-4.229,7.561-4.229c6.119,0,8.009,3.51,8.009,8.504v15.3
			h-3.824v-15.749c0-2.88-1.8-4.68-4.725-4.68c-4.635,0-6.885,3.104-6.885,7.289v13.14h-3.825V591.154z"/>
		<path fill="#333333" d="M911.92,591.154h4.635v3.374h-4.635v14.445c0,1.8,0.495,2.069,2.88,2.069h1.755v3.375h-2.925
			c-3.96,0-5.534-0.81-5.534-5.085v-14.805h-3.96v-3.374h3.96v-6.976h3.824V591.154z"/>
		<path fill="#333333" d="M923.125,607.083c0.135,3.42,3.15,4.5,6.255,4.5c2.385,0,5.625-0.54,5.625-3.465
			c0-5.984-15.21-1.935-15.21-10.89c0-4.68,4.59-6.614,8.685-6.614c5.22,0,9.18,1.619,9.54,7.289h-3.825
			c-0.225-2.97-2.925-3.914-5.399-3.914c-2.295,0-4.95,0.63-4.95,2.97c0,2.699,4.05,3.239,7.605,4.05
			c3.824,0.854,7.604,2.159,7.604,6.614c0,5.58-5.175,7.335-9.899,7.335c-5.221,0-9.63-2.115-9.855-7.875H923.125z"/>
		<path fill="#333333" d="M939.955,623.327c4.32-6.794,5.94-13.409,5.94-20.744c0-7.56-1.665-14.174-5.94-21.059h2.925
			c4.32,6.705,7.065,13.185,7.065,21.059c0,7.065-2.431,14.58-7.065,20.744H939.955z"/>
	</g>
</g>
<g>
	<path fill="#074164" d="M350.94,255.226H364.8c8.325,0,14.58,5.265,14.58,15.885c0,9.314-4.77,16.244-14.58,16.244H350.94V255.226z
		 M358.005,281.416h6.3c4.095,0,8.01-2.521,8.01-9.63c0-6.479-2.295-10.619-9.27-10.619h-5.04V281.416z"/>
	<path fill="#074164" d="M388.875,277.275c0.18,4.096,2.115,5.896,5.715,5.896c2.564,0,4.635-1.575,5.04-3.015h5.625
		c-1.8,5.534-5.625,7.829-10.89,7.829c-7.335,0-11.879-5.04-11.879-12.239c0-6.975,4.814-12.284,11.879-12.284
		c7.919,0,11.79,6.659,11.294,13.813H388.875z M399.27,273.225c-0.585-3.239-1.98-4.949-5.085-4.949c-4.14,0-5.175,3.149-5.31,4.949
		H399.27z"/>
	<path fill="#074164" d="M410.834,268.366h-3.825v-4.274h3.825v-1.801c0-4.14,2.565-7.064,7.785-7.064
		c1.125,0,2.295,0.135,3.375,0.181v4.77c-0.765-0.09-1.575-0.135-2.34-0.135c-1.755,0-2.43,0.72-2.43,2.654v1.396h4.41v4.274h-4.41
		v18.989h-6.39V268.366z M431.894,260.491h-6.39v-5.265h6.39V260.491z M425.504,264.091h6.39v23.264h-6.39V264.091z"/>
	<path fill="#074164" d="M436.934,264.091h6.075v3.239h0.135c1.62-2.654,4.41-3.869,7.11-3.869c6.794,0,8.504,3.824,8.504,9.584
		v14.31h-6.39v-13.14c0-3.824-1.08-5.715-4.095-5.715c-3.465,0-4.95,1.936-4.95,6.66v12.194h-6.39V264.091z"/>
	<path fill="#074164" d="M470.188,260.491h-6.39v-5.265h6.39V260.491z M463.799,264.091h6.39v23.264h-6.39V264.091z"/>
	<path fill="#074164" d="M483.329,264.091h4.68v4.274h-4.68v11.52c0,2.16,0.54,2.7,2.7,2.7c0.72,0,1.395-0.045,1.98-0.181v4.995
		c-1.08,0.18-2.475,0.225-3.735,0.225c-3.96,0-7.335-0.854-7.335-5.534v-13.725h-3.87v-4.274h3.87v-6.975h6.39V264.091z"/>
	<path fill="#074164" d="M497.638,260.491h-6.39v-5.265h6.39V260.491z M491.248,264.091h6.39v23.264h-6.39V264.091z"/>
	<path fill="#074164" d="M513.973,263.461c7.334,0,12.06,4.859,12.06,12.284c0,7.38-4.725,12.239-12.06,12.239
		c-7.29,0-12.015-4.859-12.015-12.239C501.958,268.321,506.683,263.461,513.973,263.461z M513.973,283.17
		c4.365,0,5.669-3.69,5.669-7.425c0-3.735-1.305-7.47-5.669-7.47c-4.32,0-5.625,3.734-5.625,7.47
		C508.348,279.48,509.653,283.17,513.973,283.17z"/>
	<path fill="#074164" d="M530.172,264.091h6.075v3.239h0.135c1.62-2.654,4.41-3.869,7.11-3.869c6.794,0,8.504,3.824,8.504,9.584
		v14.31h-6.39v-13.14c0-3.824-1.08-5.715-4.095-5.715c-3.465,0-4.95,1.936-4.95,6.66v12.194h-6.39V264.091z"/>
</g>
</svg>
