<?xml version="1.0" encoding="utf-8"?>
<!-- Generator: Adobe Illustrator 16.0.3, SVG Export Plug-In . SVG Version: 6.00 Build 0)  -->
<!DOCTYPE svg PUBLIC "-//W3C//DTD SVG 1.1//EN" "http://www.w3.org/Graphics/SVG/1.1/DTD/svg11.dtd">
<svg version="1.1" id="Layer_1" xmlns="http://www.w3.org/2000/svg" xmlns:xlink="http://www.w3.org/1999/xlink" x="0px" y="0px"
	 width="2048px" height="1000px" viewBox="0 0 2048 1000" enable-background="new 0 0 2048 1000" xml:space="preserve">
<rect fill="#B9E5FB" width="2048" height="1000"/>
<rect x="1.5" y="640.118" fill="#116BB4" width="2046.5" height="360.601"/>
<g>
	<g>
		<g>
			<polygon fill="#FFFFFF" points="1607.963,942.812 1607.963,496.546 1607.963,300.125 1467.219,159.363 505.117,159.363 
				505.117,942.812 			"/>
			<g>
				<polygon fill="#2C5871" points="1467.219,300.125 1607.963,300.125 1467.219,159.363 				"/>
				<polygon fill="#D1ECFB" points="1607.963,300.125 1467.219,300.125 1607.963,440.863 				"/>
			</g>
		</g>
	</g>
</g>
<line fill="none" stroke="#343636" stroke-width="4.9841" stroke-miterlimit="10" x1="50.751" y1="53.718" x2="1997.543" y2="53.718"/>
<rect x="533.274" y="200.591" fill="none" width="721.13" height="81.373"/>
<text transform="matrix(1 0 0 1 533.2739 222.0107)"><tspan x="0" y="0" fill="#074164" font-family="'HelveticaNeueLTPro-Bd'" font-size="30">WH_QMS_FRM_0016A</tspan><tspan x="0" y="46" fill="#074164" font-family="'HelveticaNeueLTPro-Bd'" font-size="30">Investigation and Disposition Form (IDF) template</tspan></text>
<g>
	<rect x="50.763" y="75.963" fill="none" width="1271.153" height="48.624"/>
	<text transform="matrix(1 0 0 1 50.7603 108.8066)" fill="#231F20" font-family="'HelveticaNeueLTPro-Md'" font-size="46">Example of a Completed Nonconformance Notification</text>
</g>
<rect x="533.274" y="300.125" fill="none" stroke="#000000" stroke-width="0.5" stroke-miterlimit="10" width="902.622" height="49.336"/>
<rect x="544.251" y="365.091" fill="none" width="583.138" height="28.6"/>
<text transform="matrix(1 0 0 1 544.251 383.6553)"><tspan x="0" y="0" fill="#074164" font-family="'HelveticaNeueLTPro-Bd'" font-size="26">Originator: </tspan><tspan x="139.592" y="0" fill="#333333" font-family="'HelveticaNeueLTPro-Roman'" font-size="24">John Doe</tspan></text>
<rect x="544.251" y="504.367" fill="none" width="883.33" height="57.22"/>
<text transform="matrix(1 0 0 1 544.251 521.5029)"><tspan x="0" y="0" fill="#333333" font-family="'HelveticaNeueLTPro-Roman'" font-size="24">The nonconforming Offering did not meet the specification because the </tspan><tspan x="0" y="28.8" fill="#333333" font-family="'HelveticaNeueLTPro-Roman'" font-size="24">specification had not been updated. The root cause was human error. </tspan></text>
<rect x="533.274" y="349.46" fill="none" stroke="#000000" stroke-width="0.5" stroke-miterlimit="10" width="902.621" height="49.336"/>
<rect x="533.274" y="483.811" fill="none" stroke="#000000" stroke-width="0.6631" stroke-miterlimit="10" width="902.621" height="86.776"/>
<rect x="544.251" y="836.049" fill="none" width="583.138" height="28.601"/>
<text transform="matrix(1 0 0 1 544.251 854.6133)" fill="#074164" font-family="'HelveticaNeueLTPro-Bd'" font-size="26">ORB member signature:</text>
<rect x="533.274" y="820.419" fill="none" stroke="#000000" stroke-width="0.5" stroke-miterlimit="10" width="902.621" height="49.336"/>
<rect x="544.251" y="786.713" fill="none" width="583.138" height="28.601"/>
<text transform="matrix(1 0 0 1 544.251 805.2773)"><tspan x="0" y="0" fill="#074164" font-family="'HelveticaNeueLTPro-Bd'" font-size="26">Date of disposition: </tspan><tspan x="247.881" y="0" fill="#333333" font-family="'HelveticaNeueLTPro-Roman'" font-size="24">02/23/16</tspan></text>
<rect x="533.274" y="771.083" fill="none" stroke="#000000" stroke-width="0.5" stroke-miterlimit="10" width="902.621" height="49.336"/>
<rect x="533.274" y="434.474" fill="#999999" width="902.621" height="49.337"/>
<rect x="544.251" y="449.569" fill="none" width="215.248" height="28.601"/>
<text transform="matrix(1 0 0 1 544.251 468.1318)" fill="#FFFFFF" font-family="'HelveticaNeueLTPro-Bd'" font-size="26">Investigation</text>
<rect x="544.251" y="667.447" fill="none" width="883.33" height="57.22"/>
<text transform="matrix(1 0 0 1 544.251 684.583)"><tspan x="0" y="0" fill="#333333" font-family="'HelveticaNeueLTPro-Roman'" font-size="24">Use as is. This nonconformance does not impact the safety, efficacy, </tspan><tspan x="0" y="28.8" fill="#333333" font-family="'HelveticaNeueLTPro-Roman'" font-size="24">performance, or regulatory submission of the Offering. </tspan></text>
<rect x="533.274" y="646.891" fill="none" stroke="#000000" stroke-width="0.6631" stroke-miterlimit="10" width="902.621" height="86.776"/>
<rect x="533.274" y="597.555" fill="#999999" width="902.621" height="49.336"/>
<rect x="544.251" y="612.648" fill="none" width="215.248" height="28.602"/>
<text transform="matrix(1 0 0 1 544.251 631.2119)" fill="#FFFFFF" font-family="'HelveticaNeueLTPro-Bd'" font-size="26">Disposition</text>
<rect x="544.251" y="313.496" fill="none" width="583.138" height="28.6"/>
<text transform="matrix(1 0 0 1 544.251 332.0596)"><tspan x="0" y="0" fill="#074164" font-family="'HelveticaNeueLTPro-Bd'" font-size="26">Date: </tspan><tspan x="72.722" y="0" fill="#333333" font-family="'HelveticaNeueLTPro-Roman'" font-size="24">02/23/16</tspan></text>
</svg>
