<?xml version="1.0" encoding="utf-8"?>
<!-- Generator: Adobe Illustrator 16.0.3, SVG Export Plug-In . SVG Version: 6.00 Build 0)  -->
<!DOCTYPE svg PUBLIC "-//W3C//DTD SVG 1.1//EN" "http://www.w3.org/Graphics/SVG/1.1/DTD/svg11.dtd">
<svg version="1.1" id="Layer_1" xmlns="http://www.w3.org/2000/svg" xmlns:xlink="http://www.w3.org/1999/xlink" x="0px" y="0px"
	 width="2048px" height="1000px" viewBox="0 0 2048 1000" enable-background="new 0 0 2048 1000" xml:space="preserve">
<rect fill="#B9E5FB" width="2048" height="1000"/>
<line fill="none" stroke="#4EA8DE" stroke-width="4" stroke-miterlimit="10" stroke-dasharray="17.0029,5.6676" x1="713.415" y1="319.143" x2="713.415" y2="403.39"/>
<polyline fill="none" stroke="#4EA8DE" stroke-width="4" stroke-miterlimit="10" stroke-dasharray="17.0029,5.6676" points="
	889.583,660.314 973.832,660.314 1015.789,660.314 1015.789,436.514 1100.504,436.514 "/>
<polyline fill="none" stroke="#4EA8DE" stroke-width="4" stroke-miterlimit="10" stroke-dasharray="20.7216,6.9072" points="
	1446.465,751.125 1530.713,751.125 1572.67,751.125 1572.67,418.725 1657.385,418.725 "/>
<line fill="none" stroke="#4EA8DE" stroke-width="4" stroke-miterlimit="10" stroke-dasharray="12.0229,4.0076" x1="713.415" y1="480.49" x2="713.415" y2="522.614"/>
<line fill="none" stroke="#4EA8DE" stroke-width="4" stroke-miterlimit="10" stroke-dasharray="12.0229,4.0076" x1="1264.793" y1="453.027" x2="1264.793" y2="495.151"/>
<line fill="none" stroke="#4EA8DE" stroke-width="4" stroke-miterlimit="10" stroke-dasharray="12.0229,4.0076" x1="1264.793" y1="576.037" x2="1264.793" y2="618.16"/>
<line fill="none" stroke="#4EA8DE" stroke-width="4" stroke-miterlimit="10" stroke-dasharray="12.0229,4.0076" x1="713.415" y1="597.1" x2="713.415" y2="639.225"/>
<rect fill="#116BB4" width="443.62" height="1000"/>
<line fill="none" stroke="#343636" stroke-width="2.7107" stroke-miterlimit="10" x1="611.601" y1="106.473" x2="889.583" y2="106.473"/>
<line fill="none" stroke="#FFFFFF" stroke-width="2.4716" stroke-miterlimit="10" x1="167.52" y1="191.168" x2="398.622" y2="191.168"/>
<line fill="none" stroke="#8BACBC" stroke-width="0.5" stroke-miterlimit="10" x1="482.313" y1="345.598" x2="2004.174" y2="345.598"/>
<line fill="none" stroke="#8BACBC" stroke-width="0.5" stroke-miterlimit="10" x1="482.313" y1="880.166" x2="2004.174" y2="880.166"/>
<rect x="167.52" y="151.05" fill="none" width="162.105" height="48.624"/>
<text transform="matrix(1 0 0 1 167.52 176.7539)" fill="#FFFFFF" font-family="'HelveticaNeueLTPro-Md'" font-size="36">Input</text>
<line fill="none" stroke="#343636" stroke-width="2.6379" stroke-miterlimit="10" x1="1106.531" y1="106.473" x2="1972.043" y2="106.473"/>
<rect x="611.601" y="63.854" fill="none" width="223.5" height="42.427"/>
<text transform="matrix(1 0 0 1 611.6006 89.5581)" fill="#333333" font-family="'HelveticaNeueLTPro-Md'" font-size="36">Originator</text>
<rect x="1106.532" y="63.854" fill="none" width="412.976" height="42.427"/>
<text transform="matrix(1 0 0 1 1106.5312 89.5571)" fill="#333333" font-family="'HelveticaNeueLTPro-Md'" font-size="36">ORB Chairperson</text>
<g>
	<defs>
		<path id="SVGID_1_" d="M525.912,11.08c-4.459,0-8.107,3.648-8.107,8.106v87.473c0,4.458,3.648,8.106,8.107,8.106h77.582
			c4.459,0,8.107-3.648,8.107-8.106V19.186c0-4.458-3.648-8.106-8.107-8.106H525.912z"/>
	</defs>
	<clipPath id="SVGID_2_">
		<use xlink:href="#SVGID_1_"  overflow="visible"/>
	</clipPath>
	<path clip-path="url(#SVGID_2_)" fill="#E3CCA4" d="M553.718,57.776h21.159l2.27,26.264c0.163,1.865,1.622,3.243,3.405,3.243h0.405
		l-5.512,5.188l-10.864,15.808l-10.782-16.133l-5.675-4.864l0.811-0.162c1.622-0.243,2.837-1.621,3-3.323L553.718,57.776z"/>
	<path clip-path="url(#SVGID_2_)" fill="#D4C5A3" d="M564.581,108.361L564.581,108.361L553.799,92.23l-5.675-4.864l0.811-0.163
		c1.622-0.243,2.837-1.622,3-3.324l1.541-20.997h11.187v45.479H564.581z"/>
	<path clip-path="url(#SVGID_2_)" fill="#CCBC97" d="M552.421,76.259l24.078,0.081l0.082,1.135
		c-0.405,0.649-0.649,1.055-1.055,1.702c-3.081,4.622-7.134,7.702-11.025,7.702c-3.892,0-7.945-3.161-11.025-7.702
		c-0.487-0.729-0.811-1.216-1.216-1.944L552.421,76.259z"/>
	<path clip-path="url(#SVGID_2_)" fill="#ECF0F1" d="M545.044,87.446l5.594-1.055l5.593,2.271c0.973,0.406,1.622,1.054,2.027,2.027
		l6.323,13.862l6.324-14.511c0.406-0.891,1.134-1.458,2.027-1.864l5.27-1.946l4.864,1.053l3.566,1.055l6.08,34.697h-56.18
		l5.27-34.292L545.044,87.446z"/>
	<path clip-path="url(#SVGID_2_)" fill="#2C3E50" d="M598.792,116.873c0.082-12.565-0.811-25.859-15.484-29.507
		c1.216,2.35,0.324,4.376,2.675,11.025l-11.106-6.161c-3.486,8.43-7.053,16.942-10.539,25.373L553.799,92.23l-11.106,6.161
		c2.351-6.485,1.54-8.675,2.594-10.944c-14.106,3.891-14.998,17.024-14.917,29.346c0,3.406,2.757,6.243,6.08,6.243h56.181
		C596.036,123.036,598.792,120.279,598.792,116.873"/>
	<path clip-path="url(#SVGID_2_)" fill="#7D7662" d="M548.287,75.287c-23.834-38.67,13.376-53.263,14.835-47.911
		c0.405,1.377,0.487,0.729,1.378,0.081c11.35-8.026,36.156,17.671,16.213,48.072c-1.296,0.324-2.837,0.649-4.539,0.893l-0.082,0.161
		c1.459-2.026,2.756-4.378,3.729-7.052c0.486-1.541,0.972-3.243,1.377-4.864c0.405-1.704,0.649-3.406,0.892-5.027
		c0.081-0.73,0.081-1.377,0.163-2.107c0-0.649,0.081-1.378,0.081-2.188v-1.379c0-0.405,0-0.811-0.081-1.297
		c-0.406-3.648-5.351-4.458-10.702-5.35c-6.242-1.055-12.89-2.107-15.565-7.702h-0.081c-2.676,2.269-7.62,6.566-8.674,14.512
		c-0.081,0.729-0.163,1.458-0.163,2.188v2.351c0.568,6.971,2.675,13.132,5.837,17.591C551.124,76.017,549.583,75.692,548.287,75.287
		"/>
	<path clip-path="url(#SVGID_2_)" fill="#FFE7BD" d="M579.823,69.531c0.486-1.541,0.972-3.243,1.377-4.864
		c0.405-1.704,0.649-3.406,0.892-5.027c0.081-0.73,0.081-1.377,0.163-2.107c0-0.649,0.081-1.378,0.081-2.188v-1.379
		c0-0.405,0-0.811-0.081-1.297c-0.406-3.648-5.351-4.458-10.702-5.35c-6.242-1.055-12.89-2.107-15.565-7.702h-0.081
		c-2.676,2.269-7.701,6.566-8.674,14.512c-0.081,0.729-0.163,1.458-0.163,2.188v2.351c0.568,7.052,2.756,13.376,6,17.835
		c3.08,4.215,7.133,6.81,11.511,6.81c3.081,0,5.999-1.299,8.594-3.567C575.931,77.313,578.201,73.827,579.823,69.531"/>
	<path clip-path="url(#SVGID_2_)" fill="#E8D6AC" d="M564.581,45.939c-3.729-1.053-6.972-2.837-8.593-6.323h-0.081
		c-2.676,2.269-7.62,6.566-8.674,14.512c-0.081,0.729-0.163,1.458-0.163,2.188v2.351c0.568,7.052,2.756,13.376,6,17.754
		c3.08,4.215,7.133,6.808,11.511,6.808V45.939z"/>
</g>
<g>
	<path fill-rule="evenodd" clip-rule="evenodd" fill="#E3CCA4" d="M1041.696,55.961h20.726l2.205,23.575
		c0.15,1.636,1.577,2.894,3.337,2.948l0.395,0.01l-2.628,8.817l-27.534-2.145l-2.032-6.673l0.765-0.108
		c1.603-0.231,2.79-1.435,2.909-2.954L1041.696,55.961z"/>
	<path fill-rule="evenodd" clip-rule="evenodd" fill="#D4C5A3" d="M1052.209,90.256l-14.013-1.089l-2.032-6.673l0.765-0.108
		c1.603-0.231,2.79-1.435,2.909-2.954l1.322-16.633h11.049V90.256z"/>
	<path fill-rule="evenodd" clip-rule="evenodd" fill="#CCBC97" d="M1041.696,55.961h20.726l1.666,17.825
		c-0.379,0.626-0.631,0.98-1.05,1.562c-3.028,4.163-6.964,6.998-10.765,6.998c-3.802,0-7.737-2.835-10.765-6.998
		c-0.469-0.646-0.783-1.109-1.203-1.809L1041.696,55.961z"/>
	<path fill-rule="evenodd" clip-rule="evenodd" fill="#2C3E50" d="M1052.209,76.145c-4.842,0-9.693-3.132-13.308-7.743
		c-3.562-4.531-5.968-10.537-5.968-16.345v-0.144l0.021-0.069c-0.015-0.384-0.024-0.77-0.024-1.159
		c0-13.934-2.56-25.231,19.279-25.231c21.84,0,19.282,11.297,19.282,25.231c0,0.39-0.012,0.775-0.032,1.159l0.025,0.069v0.144
		c0,5.808-2.406,11.814-5.967,16.345C1061.898,73.012,1057.047,76.145,1052.209,76.145z"/>
	<path fill-rule="evenodd" clip-rule="evenodd" fill="#ECF0F1" d="M1055.562,87.357h-6.499l-9.364-7.205l-3.595,2.342
		c-11.499,2.372-20.315,7.457-20.315,15.247c0,3.831,0,7.663,0,11.493c0,3.107,2.712,5.646,6.036,5.646h11.227h15.203h8.116h13.269
		h12.943c3.324,0,6.037-2.539,6.037-5.646l0.005-11.493c0-7.797-8.827-12.875-20.327-15.247l-3.524-2.258L1055.562,87.357z"/>
	<polygon fill-rule="evenodd" clip-rule="evenodd" fill="#DAE1E6" points="1055.562,87.357 1049.063,87.357 1039.699,80.152 
		1036.104,82.494 1054.793,101.864 1056.371,114.881 1057.189,114.881 1055.267,96.878 1069.551,82.765 1068.298,82.494 
		1064.773,80.236 	"/>
	<path fill-rule="evenodd" clip-rule="evenodd" fill="#FFE7BD" d="M1039.335,70.98c3.619,4.611,8.327,7.747,12.874,7.747
		c4.542,0,9.25-3.136,12.87-7.747c3.719-4.744,6.242-10.986,6.287-17.026l-1.272-4.803c-0.454-1.715-0.492-3.314-0.523-4.842
		c-0.043-1.992-0.089-3.836-1.263-5.35c-1.877-2.426-4.846-1.637-8.331-0.709c-2.377,0.631-4.957,1.316-7.768,1.316
		c-2.806,0-5.385-0.685-7.761-1.316h-0.011c-3.484-0.928-6.449-1.717-8.333,0.709c-1.168,1.514-1.213,3.358-1.257,5.35
		c-0.029,1.528-0.075,3.127-0.522,4.842l-1.273,4.803C1033.097,59.995,1035.616,66.237,1039.335,70.98z"/>
	<path fill-rule="evenodd" clip-rule="evenodd" fill="#E8D6AC" d="M1039.335,70.98c3.619,4.611,8.327,7.747,12.874,7.747V39.565
		c-2.806,0-5.385-0.685-7.761-1.316h-0.011c-3.484-0.928-6.449-1.717-8.333,0.709c-1.168,1.514-1.213,3.358-1.257,5.35
		c-0.029,1.523-0.075,3.127-0.527,4.842l-1.269,4.803C1033.097,59.995,1035.616,66.237,1039.335,70.98z"/>
	<path fill-rule="evenodd" clip-rule="evenodd" fill="#3D566E" d="M1048.255,114.881h8.116c-0.872-7.204-1.75-12.865-2.623-20.068
		c-0.044-0.39,0.064-0.716,0.267-1.065l2.175-5.336c0.133-0.226,0.153-0.474,0.023-0.7c-0.139-0.228-0.375-0.355-0.65-0.355
		c-2.164,0-4.329,0-6.499,0c-0.271,0-0.513,0.127-0.646,0.355c-0.134,0.226-0.107,0.474,0.021,0.7l2.18,5.336
		c0.202,0.349,0.31,0.675,0.261,1.065C1050.005,102.016,1049.132,107.677,1048.255,114.881z"/>
	<path fill-rule="evenodd" clip-rule="evenodd" fill="#2C3E50" d="M1053.748,94.812c-0.044-0.39,0.064-0.716,0.267-1.065
		l2.175-5.336c0.133-0.226,0.153-0.474,0.023-0.7c-0.139-0.228-0.375-0.355-0.65-0.355c-2.164,0-4.329,0-6.499,0
		c-0.276,0-0.513,0.127-0.646,0.355c-0.134,0.226-0.107,0.474,0.021,0.7l2.174,5.336c0.208,0.349,0.315,0.675,0.267,1.065
		l-0.325,2.691l3.93,3.354L1053.748,94.812z"/>
	<polygon fill-rule="evenodd" clip-rule="evenodd" fill="#ECF0F1" points="1052.313,87.357 1039.699,80.152 1036.104,82.494 
		1048.482,94.314 	"/>
	<polygon fill-rule="evenodd" clip-rule="evenodd" fill="#ECF0F1" points="1052.313,87.357 1064.773,80.236 1068.358,82.494 
		1056.148,94.314 	"/>
	<path fill-rule="evenodd" clip-rule="evenodd" fill="#2C3E50" d="M1015.789,97.741c0,3.831,0,7.663,0,11.493
		c0,3.107,2.712,5.646,6.036,5.646h29.318l-2.371-4.231c-5.739-10.438-9.073-14.925-12.668-28.156
		C1024.606,84.866,1015.789,89.951,1015.789,97.741L1015.789,97.741z M1053.255,114.881h29.328c3.324,0,6.037-2.539,6.037-5.646
		l0.005-11.493c0-7.797-8.827-12.875-20.327-15.247c-3.555,13.083-6.854,17.614-12.479,27.817L1053.255,114.881z"/>
</g>
<g>
	<g>
		<path fill="#A1B400" d="M155.902,231.215c-0.009,0.003-0.012,0.012-0.018,0.018c-3.925,3.909-10.279,3.892-14.191-0.031
			l-30.598-30.744c-3.902-3.926-3.889-10.269,0.018-14.175c0.008-0.006,0.014-0.011,0.017-0.017
			c3.931-3.911,10.284-3.897,14.189,0.031l30.603,30.744C159.82,220.966,159.812,227.303,155.902,231.215L155.902,231.215z"/>
		<path fill="#C2D64C" d="M151.536,231.024c-1.507,1.502-3.972,1.495-5.483-0.022l-30.598-30.744
			c-1.504-1.514-1.504-3.973,0.006-5.484c1.525-1.517,3.99-1.512,5.5,0.005l30.6,30.744c1.504,1.517,1.504,3.973-0.008,5.487
			L151.536,231.024z"/>
		<path fill="#0E303F" d="M51.412,126.455c0-0.003,0-0.003,0-0.003c7.437-7.438,17.314-11.521,27.807-11.504
			c21.623,0.04,39.186,17.664,39.146,39.285c-0.018,10.435-4.102,20.258-11.498,27.657c-7.434,7.432-17.303,11.512-27.791,11.498
			c-10.461-0.017-20.301-4.123-27.705-11.549c-7.402-7.43-11.47-17.281-11.45-27.744C39.939,143.666,44.019,133.848,51.412,126.455
			L51.412,126.455z"/>
		<g>
			<path fill="none" d="M103.561,178.569"/>
		</g>
		<path fill="#D1ECFB" d="M58.515,133.544c-5.504,5.504-8.543,12.812-8.56,20.577c-0.031,16.091,13.034,29.208,29.128,29.233
			c7.807,0.014,15.154-3.026,20.698-8.566l0,0c5.502-5.504,8.54-12.807,8.555-20.565c0.014-7.781-3.017-15.112-8.528-20.644
			c-5.511-5.533-12.832-8.583-20.617-8.597C71.395,124.969,64.051,128.008,58.515,133.544L58.515,133.544z"/>
		<path fill="#FFFFFF" d="M99.808,133.578c-5.511-5.533-12.832-8.583-20.617-8.597c-2.192-0.003-4.347,0.242-6.438,0.709
			c-3.177,1.436-6.104,3.442-8.647,5.991c-5.506,5.501-8.542,12.81-8.557,20.577c-0.03,16.088,13.038,29.205,29.129,29.236
			c2.192,0.003,4.351-0.242,6.441-0.709c3.182-1.441,6.115-3.45,8.662-5.997l0,0c5.502-5.504,8.54-12.807,8.555-20.565
			C108.35,146.44,105.319,139.11,99.808,133.578z"/>
		<g>
			<path fill="#0E303F" d="M115.061,190.391c-1.961,1.956-5.138,1.947-7.095-0.017l-6.249-6.45c-1.953-1.964-1.95-5.133,0.006-7.089
				c0,0,0.009-0.002,0.012-0.008c1.963-1.953,5.136-1.95,7.094,0.017l6.249,6.453c1.951,1.959,1.948,5.13-0.007,7.086
				C115.07,190.383,115.062,190.388,115.061,190.391z"/>
		</g>
		<g>
			<path fill="#2C5871" d="M79.214,117.166c20.401,0.039,36.97,16.668,36.933,37.064c-0.021,9.852-3.873,19.116-10.85,26.093
				c-6.991,6.995-16.274,10.845-26.145,10.845c-0.022,0-0.046,0-0.069,0l0.009-4.936c0.02,0,0.042,0,0.061,0
				c8.552,0,16.593-3.338,22.651-9.402c6.048-6.044,9.389-14.073,9.407-22.608c0.03-17.675-14.327-32.083-32.006-32.12
				L79.214,117.166L79.214,117.166z"/>
		</g>
	</g>
</g>
<line fill="none" stroke="#FFFFFF" stroke-width="2.4716" stroke-miterlimit="10" x1="167.52" y1="416.157" x2="398.622" y2="416.157"/>
<rect x="167.52" y="376.039" fill="none" width="162.105" height="48.624"/>
<text transform="matrix(1 0 0 1 167.52 401.7427)" fill="#FFFFFF" font-family="'HelveticaNeueLTPro-Md'" font-size="36">Activity</text>
<line fill="none" stroke="#FFFFFF" stroke-width="2.4716" stroke-miterlimit="10" x1="167.52" y1="947.239" x2="398.622" y2="947.239"/>
<rect x="167.52" y="907.121" fill="none" width="162.105" height="48.625"/>
<text transform="matrix(1 0 0 1 167.52 932.8252)" fill="#FFFFFF" font-family="'HelveticaNeueLTPro-Md'" font-size="36">Output</text>
<rect x="537.247" y="164.138" fill="#4EA8DE" stroke="#FFFFFF" stroke-width="5" stroke-miterlimit="10" width="352.337" height="154.2"/>
<rect x="1088.624" y="620.54" fill="#4EA8DE" stroke="#FFFFFF" stroke-width="5" stroke-miterlimit="10" width="352.337" height="240.04"/>
<rect x="551.244" y="178.569" fill="none" width="309.477" height="131.28"/>
<text transform="matrix(1 0 0 1 551.2437 195.7051)"><tspan x="0" y="0" fill="#FFFFFF" font-family="'HelveticaNeueLTPro-Bd'" font-size="24">Identify a nonconformance</tspan><tspan x="0" y="35.8" fill="#FFFFFF" font-family="'HelveticaNeueLTPro-Roman'" font-size="24">• Complaints</tspan><tspan x="0" y="69.6" fill="#FFFFFF" font-family="'HelveticaNeueLTPro-Roman'" font-size="24">• Deviations</tspan><tspan x="0" y="103.4" fill="#FFFFFF" font-family="'HelveticaNeueLTPro-Roman'" font-size="24">• Inspection activities</tspan></text>
<rect x="537.247" y="403.39" fill="#FFFFFF" stroke="#4EA8DE" stroke-width="5" stroke-miterlimit="10" width="352.337" height="77.1"/>
<rect x="537.247" y="520" fill="#4EA8DE" stroke="#FFFFFF" stroke-width="5" stroke-miterlimit="10" width="352.337" height="77.1"/>
<rect x="551.244" y="417.822" fill="none" width="309.477" height="62.668"/>
<text transform="matrix(1 0 0 1 551.2437 434.9575)"><tspan x="0" y="0" fill="#333333" font-family="'HelveticaNeueLTPro-Bd'" font-size="24">Create nonconformance </tspan><tspan x="0" y="28.8" fill="#333333" font-family="'HelveticaNeueLTPro-Bd'" font-size="24">notification (NCN)</tspan></text>
<rect x="1088.624" y="495.88" fill="#FFFFFF" stroke="#4EA8DE" stroke-width="5" stroke-miterlimit="10" width="352.337" height="77.1"/>
<rect x="1102.621" y="510.312" fill="none" width="309.477" height="62.668"/>
<text transform="matrix(1 0 0 1 1102.6211 527.4473)"><tspan x="0" y="0" fill="#333333" font-family="'HelveticaNeueLTPro-Bd'" font-size="24">Create investigation and </tspan><tspan x="0" y="28.801" fill="#333333" font-family="'HelveticaNeueLTPro-Bd'" font-size="24">disposition form (IDF)</tspan></text>
<line fill="none" stroke="#4EA8DE" stroke-width="4" stroke-miterlimit="10" stroke-dasharray="12.0229,4.0076" x1="1833.554" y1="623.221" x2="1833.554" y2="665.345"/>
<rect x="1657.385" y="666.074" fill="#FFFFFF" stroke="#4EA8DE" stroke-width="5" stroke-miterlimit="10" width="352.337" height="77.1"/>
<rect x="1671.382" y="680.506" fill="none" width="309.477" height="62.668"/>
<text transform="matrix(1 0 0 1 1671.3818 697.6406)"><tspan x="0" y="0" fill="#333333" font-family="'HelveticaNeueLTPro-Bd'" font-size="24">Document disposition on </tspan><tspan x="0" y="28.801" fill="#333333" font-family="'HelveticaNeueLTPro-Bd'" font-size="24">IDF</tspan></text>
<line fill="none" stroke="#4EA8DE" stroke-width="4" stroke-miterlimit="10" stroke-dasharray="12,4,0,0" x1="1833.554" y1="743.174" x2="1833.554" y2="892.154"/>
<rect x="1657.385" y="892.884" fill="#FFFFFF" stroke="#4EA8DE" stroke-width="5" stroke-miterlimit="10" width="352.337" height="77.1"/>
<rect x="1671.382" y="907.315" fill="none" width="332.792" height="62.668"/>
<text transform="matrix(1 0 0 1 1671.3818 924.4512)"><tspan x="0" y="0" fill="#333333" font-family="'HelveticaNeueLTPro-Bd'" font-size="24">Nonconforming material </tspan><tspan x="0" y="28.8" fill="#333333" font-family="'HelveticaNeueLTPro-Bd'" font-size="24">appropriately dispositioned</tspan></text>
<rect x="1088.625" y="403.39" fill="#FFFFFF" stroke="#4EA8DE" stroke-width="5" stroke-miterlimit="10" width="352.336" height="49.637"/>
<rect x="1102.621" y="417.822" fill="none" width="309.478" height="31.334"/>
<text transform="matrix(1 0 0 1 1102.6211 434.9575)" fill="#333333" font-family="'HelveticaNeueLTPro-Bd'" font-size="24">Receive and evaluate NCN</text>
<rect x="537.247" y="637.432" fill="#FFFFFF" stroke="#4EA8DE" stroke-width="5" stroke-miterlimit="10" width="352.337" height="45.766"/>
<rect x="551.244" y="651.863" fill="none" width="309.477" height="31.334"/>
<text transform="matrix(1 0 0 1 551.2437 668.999)" fill="#333333" font-family="'HelveticaNeueLTPro-Bd'" font-size="24">Send NCN to MRB</text>
<rect x="551.244" y="534.431" fill="none" width="309.477" height="62.669"/>
<text transform="matrix(1 0 0 1 551.2437 551.5664)"><tspan x="0" y="0" fill="#FFFFFF" font-family="'HelveticaNeueLTPro-Bd'" font-size="24">Segregate Offering  </tspan><tspan x="0" y="28.8" fill="#FFFFFF" font-family="'HelveticaNeueLTPro-Bd'" font-size="24">(if possible)</tspan></text>
<g>
	<g opacity="0.5">
		<path fill="#FFFFFF" d="M124.072,434.85c-0.01-0.021-0.061-0.141-0.104-0.247C123.995,434.664,124.027,434.743,124.072,434.85z"/>
		<path fill="#FFFFFF" d="M120.364,444.075h3.708c0.683,0,1.234,0.553,1.234,1.236c0,0.684-0.551,1.235-1.234,1.235h-3.708
			c-0.682,0-1.235-0.551-1.235-1.235C119.129,444.628,119.682,444.075,120.364,444.075z"/>
		<path fill="#FFFFFF" d="M106.326,444.075h7.018c0.685,0,1.236,0.553,1.236,1.236c0,0.684-0.552,1.235-1.236,1.235h-7.018
			c-0.684,0-1.236-0.551-1.236-1.235C105.089,444.628,105.642,444.075,106.326,444.075z"/>
		<path fill="#FFFFFF" d="M92.285,444.075h7.021c0.683,0,1.233,0.553,1.233,1.236c0,0.684-0.55,1.235-1.233,1.235h-7.021
			c-0.683,0-1.236-0.551-1.236-1.235C91.049,444.628,91.602,444.075,92.285,444.075z"/>
		<path fill="#FFFFFF" d="M78.245,444.075h7.021c0.684,0,1.234,0.553,1.234,1.236c0,0.684-0.551,1.235-1.234,1.235h-7.021
			c-0.683,0-1.235-0.551-1.235-1.235C77.009,444.628,77.562,444.075,78.245,444.075z"/>
		<path fill="#FFFFFF" d="M64.208,444.075h7.019c0.682,0,1.235,0.553,1.235,1.236c0,0.684-0.553,1.235-1.235,1.235h-7.019
			c-0.683,0-1.236-0.551-1.236-1.235C62.972,444.628,63.525,444.075,64.208,444.075z"/>
		<path fill="#FFFFFF" d="M50.168,444.075h7.018c0.685,0,1.236,0.553,1.236,1.236c0,0.684-0.551,1.235-1.236,1.235h-7.018
			c-0.683,0-1.236-0.551-1.236-1.235C48.932,444.628,49.485,444.075,50.168,444.075z"/>
		<path fill="#FFFFFF" d="M39.441,440.369c0.683,0,1.234,0.551,1.234,1.236v2.47h2.472c0.683,0,1.234,0.553,1.234,1.236
			c0,0.684-0.551,1.235-1.234,1.235h-4.942v-4.94C38.206,440.92,38.759,440.369,39.441,440.369z"/>
		<path fill="#FFFFFF" d="M35.733,428.096h4.942v4.941c0,0.683-0.551,1.236-1.234,1.236c-0.683,0-1.236-0.553-1.236-1.236v-2.471
			h-2.472c-0.684,0-1.235-0.552-1.235-1.237C34.499,428.646,35.05,428.096,35.733,428.096z"/>
		<path fill="#FFFFFF" d="M91.952,386.826c0.002,0,0.002,0,0.004,0l7.414,0.031c0.682,0.002,1.232,0.559,1.229,1.239
			c-0.001,0.682-0.555,1.232-1.234,1.232c-0.003,0-0.003,0-0.004,0l-7.413-0.031c-0.684-0.003-1.234-0.56-1.232-1.239
			C90.717,387.376,91.271,386.826,91.952,386.826z"/>
		<path fill="#FFFFFF" d="M35.487,414.148c-0.001,0-0.001,0-0.005,0l-7.413-0.031c-0.683-0.002-1.233-0.559-1.231-1.239
			c0.003-0.682,0.557-1.23,1.236-1.23c0.002,0,0.002,0,0.004,0l7.414,0.031c0.683,0.002,1.233,0.559,1.231,1.24
			C36.72,413.599,36.169,414.148,35.487,414.148z"/>
		<path fill="#FFFFFF" d="M46.236,402.703c-0.683,0-1.236-0.552-1.236-1.236v-7.415c0-0.682,0.553-1.234,1.236-1.234
			s1.236,0.552,1.236,1.234v7.415C47.472,402.151,46.918,402.703,46.236,402.703z"/>
		<path fill="#FFFFFF" d="M62.298,386.705c0.002,0,0.002,0,0.005,0l7.414,0.029c0.683,0.004,1.233,0.561,1.23,1.242
			c-0.002,0.681-0.554,1.23-1.235,1.23c-0.004,0-0.004,0-0.004,0l-7.415-0.03c-0.683-0.002-1.232-0.559-1.231-1.241
			C61.065,387.257,61.617,386.705,62.298,386.705z"/>
		<path fill="#FFFFFF" d="M77.124,386.766c0.003,0,0.003,0,0.005,0l7.415,0.031c0.682,0.003,1.233,0.559,1.229,1.239
			c-0.002,0.683-0.554,1.231-1.234,1.231c-0.002,0-0.002,0-0.006,0l-7.413-0.03c-0.684-0.003-1.233-0.56-1.23-1.243
			C75.891,387.317,76.444,386.766,77.124,386.766z"/>
		<path fill="#FFFFFF" d="M41.666,412.939c0.001-0.679,0.555-1.23,1.234-1.23c0.003,0,0.003,0,0.005,0L45,411.718v-2.837
			c0-0.683,0.553-1.235,1.236-1.235s1.236,0.552,1.236,1.235v5.318l-4.576-0.019C42.212,414.178,41.663,413.621,41.666,412.939z"/>
		<path fill="#FFFFFF" d="M46.236,387.877c0.001-0.681,0.555-1.231,1.236-1.231c0.002,0,0.002,0,0.005,0l7.414,0.03
			c0.683,0.003,1.232,0.56,1.229,1.24c-0.001,0.682-0.555,1.232-1.235,1.232c-0.002,0-0.002,0-0.005,0l-7.415-0.031
			C46.784,389.114,46.233,388.557,46.236,387.877z"/>
	</g>
	<g>
		<polygon fill="#FFFFFF" points="102.253,404.925 102.253,386.814 102.253,377.737 108.758,371.23 126.906,371.23 126.906,377.952 
			126.906,386.814 126.906,404.925 		"/>
		<g>
			<polygon fill="#C2D64C" points="108.758,377.737 102.253,377.737 108.758,371.23 			"/>
			<polygon fill="#D1ECFB" points="102.253,377.737 108.758,377.737 102.253,384.241 			"/>
		</g>
	</g>
	<g>
		<polygon fill="#FFFFFF" points="125.627,463.394 125.627,445.283 125.627,436.206 132.133,429.699 150.28,429.699 150.28,436.421 
			150.28,445.283 150.28,463.394 		"/>
		<g>
			<polygon fill="#C2D64C" points="132.133,436.206 125.627,436.206 132.133,429.699 			"/>
			<polygon fill="#D1ECFB" points="125.627,436.206 132.133,436.206 125.627,442.709 			"/>
		</g>
	</g>
</g>
<g>
	<path fill="#FFFFFF" stroke="#FFFFFF" stroke-width="0.9481" stroke-miterlimit="10" d="M870.102,294.257
		c0-0.315-0.316-0.631-0.475-0.631h-13.115c-0.316,0-0.474,0.316-0.474,0.631c0,0.316,0.157,0.633,0.474,0.633h13.115
		C869.943,294.89,870.102,294.574,870.102,294.257L870.102,294.257z"/>
	<path fill="#FFFFFF" stroke="#FFFFFF" stroke-width="0.9481" stroke-miterlimit="10" d="M866.942,300.42
		c-0.159,0.157-0.159,0.633,0,0.79c0.157,0.158,0.315,0.158,0.474,0.158c0.158,0,0.316,0,0.474-0.158l6.478-6.478
		c0.159-0.159,0.159-0.633,0-0.79l-6.478-6.479c-0.158-0.157-0.633-0.157-0.791,0c-0.157,0.159-0.157,0.633,0,0.79l6.163,6.163
		L866.942,300.42z"/>
	<circle fill="none" stroke="#FFFFFF" stroke-width="2.3702" stroke-miterlimit="10" cx="865.203" cy="294.258" r="13.589"/>
</g>
<rect x="1102.621" y="632.001" fill="none" width="309.477" height="200.193"/>
<text transform="matrix(1 0 0 1 1102.6211 649.1367)"><tspan x="0" y="0" fill="#FFFFFF" font-family="'HelveticaNeueLTPro-Bd'" font-size="24">Evaluate and Investigate</tspan><tspan x="0" y="35.8" fill="#FFFFFF" font-family="'HelveticaNeueLTPro-Roman'" font-size="24">• Review facts</tspan><tspan x="0" y="69.6" fill="#FFFFFF" font-family="'HelveticaNeueLTPro-Roman'" font-size="24">• Evaluate the need for and </tspan><tspan x="20" y="98.4" fill="#FFFFFF" font-family="'HelveticaNeueLTPro-Roman'" font-size="24">extent of an investigation</tspan><tspan x="0" y="132.2" fill="#FFFFFF" font-family="'HelveticaNeueLTPro-Roman'" font-size="24">• Determine root cause</tspan><tspan x="0" y="166" fill="#FFFFFF" font-family="'HelveticaNeueLTPro-Roman'" font-size="24">• Determine if CAPA needed</tspan></text>
<g>
	<path fill="#FFFFFF" stroke="#FFFFFF" stroke-width="0.9481" stroke-miterlimit="10" d="M1419.941,836.44
		c0-0.315-0.316-0.632-0.475-0.632h-13.115c-0.316,0-0.473,0.316-0.473,0.632c0,0.316,0.156,0.633,0.473,0.633h13.115
		C1419.783,837.073,1419.941,836.757,1419.941,836.44L1419.941,836.44z"/>
	<path fill="#FFFFFF" stroke="#FFFFFF" stroke-width="0.9481" stroke-miterlimit="10" d="M1416.781,842.603
		c-0.158,0.157-0.158,0.633,0,0.79s0.315,0.157,0.475,0.157c0.157,0,0.315,0,0.474-0.157l6.478-6.478
		c0.158-0.158,0.158-0.633,0-0.79l-6.478-6.479c-0.158-0.157-0.633-0.157-0.79,0c-0.158,0.158-0.158,0.633,0,0.79l6.162,6.163
		L1416.781,842.603z"/>
	<circle fill="none" stroke="#FFFFFF" stroke-width="2.3702" stroke-miterlimit="10" cx="1415.043" cy="836.441" r="13.589"/>
</g>
<rect x="1657.385" y="399.98" fill="#4EA8DE" stroke="#FFFFFF" stroke-width="5" stroke-miterlimit="10" width="352.337" height="223.011"/>
<rect x="1671.382" y="411.441" fill="none" width="309.477" height="197.527"/>
<text transform="matrix(1 0 0 1 1671.3818 428.5771)"><tspan x="0" y="0" fill="#FFFFFF" font-family="'HelveticaNeueLTPro-Bd'" font-size="24">Disposition product</tspan><tspan x="0" y="35.8" fill="#FFFFFF" font-family="'HelveticaNeueLTPro-Roman'" font-size="24">• No defect found</tspan><tspan x="0" y="69.6" fill="#FFFFFF" font-family="'HelveticaNeueLTPro-Roman'" font-size="24">• Return to vendor</tspan><tspan x="0" y="103.399" fill="#FFFFFF" font-family="'HelveticaNeueLTPro-Roman'" font-size="24">• Rework</tspan><tspan x="0" y="137.2" fill="#FFFFFF" font-family="'HelveticaNeueLTPro-Roman'" font-size="24">• Scrap</tspan><tspan x="0" y="171" fill="#FFFFFF" font-family="'HelveticaNeueLTPro-Roman'" font-size="24">• Use as is</tspan></text>
<g>
	<path fill="#FFFFFF" stroke="#FFFFFF" stroke-width="0.9481" stroke-miterlimit="10" d="M1986.757,599.289
		c0-0.315-0.316-0.632-0.475-0.632h-13.115c-0.316,0-0.473,0.316-0.473,0.632c0,0.316,0.156,0.633,0.473,0.633h13.115
		C1986.599,599.922,1986.757,599.605,1986.757,599.289L1986.757,599.289z"/>
	<path fill="#FFFFFF" stroke="#FFFFFF" stroke-width="0.9481" stroke-miterlimit="10" d="M1983.597,605.451
		c-0.158,0.157-0.158,0.633,0,0.79s0.315,0.157,0.475,0.157c0.157,0,0.315,0,0.474-0.157l6.478-6.478
		c0.158-0.158,0.158-0.633,0-0.79l-6.478-6.479c-0.158-0.157-0.633-0.157-0.79,0c-0.158,0.158-0.158,0.633,0,0.79l6.162,6.163
		L1983.597,605.451z"/>
	<circle fill="none" stroke="#FFFFFF" stroke-width="2.3702" stroke-miterlimit="10" cx="1981.858" cy="599.29" r="13.589"/>
</g>
<g>
	<path fill="#FFFFFF" stroke="#FFFFFF" stroke-width="0.9481" stroke-miterlimit="10" d="M870.102,573.139
		c0-0.315-0.316-0.632-0.475-0.632h-13.115c-0.316,0-0.474,0.316-0.474,0.632c0,0.316,0.157,0.633,0.474,0.633h13.115
		C869.943,573.771,870.102,573.455,870.102,573.139L870.102,573.139z"/>
	<path fill="#FFFFFF" stroke="#FFFFFF" stroke-width="0.9481" stroke-miterlimit="10" d="M866.942,579.302
		c-0.159,0.156-0.159,0.633,0,0.789c0.157,0.158,0.315,0.158,0.474,0.158c0.158,0,0.316,0,0.474-0.158l6.478-6.477
		c0.159-0.159,0.159-0.633,0-0.791l-6.478-6.479c-0.158-0.158-0.633-0.158-0.791,0c-0.157,0.158-0.157,0.633,0,0.789l6.163,6.164
		L866.942,579.302z"/>
	<circle fill="none" stroke="#FFFFFF" stroke-width="2.3702" stroke-miterlimit="10" cx="865.203" cy="573.139" r="13.589"/>
</g>
<g>
	<polygon fill="#FFFFFF" points="141.045,961.85 141.045,895.614 141.045,862.406 117.25,838.612 50.87,838.612 50.87,863.195 
		50.87,895.614 50.87,961.85 	"/>
	<polygon fill="#C2D64C" points="117.25,862.406 141.045,862.406 117.25,838.612 	"/>
	<polygon fill="#D1ECFB" points="141.045,862.407 117.25,862.407 141.045,886.201 	"/>
	<rect x="67.945" y="866.833" fill="#15B0BF" width="27.593" height="2.251"/>
	<g>
		<rect x="67.945" y="877.914" fill="#A6DAE9" width="56.023" height="2.252"/>
		<rect x="67.945" y="884.991" fill="#A6DAE9" width="56.023" height="2.249"/>
		<rect x="67.945" y="892.066" fill="#A6DAE9" width="56.023" height="2.251"/>
		<rect x="67.945" y="899.142" fill="#A6DAE9" width="56.023" height="2.253"/>
		<rect x="67.945" y="906.216" fill="#A6DAE9" width="56.023" height="2.253"/>
		<rect x="67.945" y="913.294" fill="#A6DAE9" width="56.023" height="2.253"/>
		<rect x="67.945" y="920.37" fill="#A6DAE9" width="56.023" height="2.252"/>
	</g>
</g>
<circle fill="#89C240" cx="50.87" cy="846.474" r="22.558"/>
<g>
	<path fill="#FFFFFF" d="M44.577,855.091l-7.745-7.746l-2.614,2.517l10.263,10.263l22.074-22.073l-2.614-2.614L44.577,855.091z"/>
</g>
</svg>
