<?xml version="1.0" encoding="utf-8"?>
<!-- Generator: Adobe Illustrator 16.0.3, SVG Export Plug-In . SVG Version: 6.00 Build 0)  -->
<!DOCTYPE svg PUBLIC "-//W3C//DTD SVG 1.1//EN" "http://www.w3.org/Graphics/SVG/1.1/DTD/svg11.dtd">
<svg version="1.1" id="Layer_1" xmlns="http://www.w3.org/2000/svg" xmlns:xlink="http://www.w3.org/1999/xlink" x="0px" y="0px"
	 width="2048px" height="1000px" viewBox="0 0 2048 1000" enable-background="new 0 0 2048 1000" xml:space="preserve">
<rect fill="#B9E5FB" width="2048" height="1000"/>
<rect x="1.5" y="640.118" fill="#116BB4" width="2046.5" height="360.601"/>
<g>
	<g>
		<g>
			<polygon fill="#FFFFFF" points="1607.963,942.812 1607.963,496.546 1607.963,300.125 1467.219,159.363 505.117,159.363 
				505.117,942.812 			"/>
			<g>
				<polygon fill="#2C5871" points="1467.219,300.125 1607.963,300.125 1467.219,159.363 				"/>
				<polygon fill="#D1ECFB" points="1607.963,300.125 1467.219,300.125 1607.963,440.863 				"/>
			</g>
		</g>
	</g>
</g>
<line fill="none" stroke="#343636" stroke-width="4.9841" stroke-miterlimit="10" x1="50.751" y1="53.718" x2="1997.543" y2="53.718"/>
<g>
	<rect x="50.763" y="75.963" fill="none" width="1271.153" height="48.624"/>
	<text transform="matrix(1 0 0 1 50.7603 108.8066)" fill="#231F20" font-family="'HelveticaNeueLTPro-Md'" font-size="46">Types of dispositions</text>
</g>
<g>
	<rect x="656.022" y="224.561" fill="none" width="195.828" height="22.392"/>
	<text transform="matrix(1 0 0 1 656.0205 242.5728)" fill="#4EA8DE" font-family="'HelveticaNeueLTPro-Md'" font-size="25.2274">No defect found</text>
	<rect x="886.494" y="209.549" fill="none" width="488.184" height="52.416"/>
	<text transform="matrix(1 0 0 1 886.4941 227.561)"><tspan x="0" y="0" fill="#333333" font-family="'HelveticaNeueLTPro-Md'" font-size="25.2274">The Offering was determined to conform </tspan><tspan x="0" y="30.273" fill="#333333" font-family="'HelveticaNeueLTPro-Md'" font-size="25.2274">to the original specification </tspan></text>
	<circle fill="#4EA8DE" cx="587.537" cy="235.757" r="48.635"/>
	<g>
		<path fill-rule="evenodd" clip-rule="evenodd" fill="#E8D6AC" d="M576.388,234.301c8.018-4.516,11.041-15.692,14.174-24.331
			c0.078-0.22,0.188-0.272,0.343-0.21c0.438-1.196,1.253-3.771,1.669-4.802c0.262-0.648,0.487-1.724,1.283-2.166
			c0.994-0.557,2.705-0.267,3.561,1.898c1.098,2.786-0.371,7.708-0.695,12.106c-0.301,4.029-2.93,8.357,4.854,8.711
			c3.52,0.16,12.347-0.184,14.05,2.215c0.794,1.112,0.524,3.173,0.193,4.427c-0.95,3.588,0.415,2.82,0.252,6.134
			c-0.146,2.965-1.892,3.064-1.39,5.818c0.851,4.661-2.923,3.646-2.668,7.578c0.148,2.228-0.455,2.952-0.749,3.309
			c-3.126,3.775-23.77,3.929-27.154-0.56C579.898,248.575,576.63,242.231,576.388,234.301z"/>
		<path fill-rule="evenodd" clip-rule="evenodd" fill="#ECF0F1" d="M576.388,234.301c-0.578-1.294-2.266-1.793-3.556-1.192
			l-3.657,1.845c-1.333,0.672-2.164,1.909-2.168,3.402l-0.021,19.041c-0.004,1.262,0.562,2.349,1.594,3.073
			c1.03,0.728,2.242,0.893,3.43,0.468l10.12-3.613c0.408-0.147,0.746-0.321,1.021-0.516c0.903-0.644,1.111-1.506,0.96-2.38
			C579.711,248.312,577.259,242.653,576.388,234.301z"/>
		<path fill-rule="evenodd" clip-rule="evenodd" fill="#1B6272" d="M571.483,231.603c-0.775-1.73-3.027-2.405-4.754-1.6
			l-4.891,2.468c-1.781,0.899-2.896,2.555-2.896,4.554l-0.012,26.899c-0.004,1.687,0.749,3.139,2.129,4.11
			c1.378,0.972,3,1.193,4.586,0.625l13.534-4.832c0.546-0.197,0.996-0.428,1.367-0.689c1.206-0.865,1.487-2.013,1.28-3.187
			C575.943,251.776,571.437,242.881,571.483,231.603z"/>
	</g>
</g>
<g>
	<g>
		<rect x="656.022" y="355.968" fill="none" width="221.992" height="20.723"/>
		<text transform="matrix(1 0 0 1 656.0205 373.98)" fill="#4EA8DE" font-family="'HelveticaNeueLTPro-Md'" font-size="25.2274">Return to Vendor</text>
	</g>
	<rect x="886.494" y="340.122" fill="none" width="488.184" height="52.416"/>
	<text transform="matrix(1 0 0 1 886.4941 358.1333)"><tspan x="0" y="0" fill="#333333" font-family="'HelveticaNeueLTPro-Md'" font-size="25.2274">The Offering is removed from segregation </tspan><tspan x="0" y="30.273" fill="#333333" font-family="'HelveticaNeueLTPro-Md'" font-size="25.2274">and returned to the vendor</tspan></text>
	<circle fill="#4EA8DE" cx="587.537" cy="366.329" r="48.635"/>
	<g>
		<rect x="561.362" y="369.811" fill-rule="evenodd" clip-rule="evenodd" fill="#3D566E" width="57.669" height="10.297"/>
		<path fill-rule="evenodd" clip-rule="evenodd" fill="#ECF0F1" d="M620.866,373.213h-5.583c-1.534-1.446-3.545-2.403-5.834-2.403
			c-2.281,0-4.354,0.89-5.888,2.337c-1.664,1.568-2.704,3.789-2.704,6.255c0,0.237,0.014,0.475,0.028,0.706h-21.3
			c0.014-0.231,0.027-0.469,0.027-0.706c0-2.466-1.032-4.687-2.696-6.255c-1.542-1.447-3.614-2.337-5.896-2.337
			c-2.282,0-4.36,0.89-5.896,2.337h-5.895v-3.57h39.787v-17.309c0-1.63,1.331-2.965,2.968-2.965h2.356
			c2.337,0,4.809-0.234,7.071,0.543c2.472,0.853,4.062,2.469,5.216,4.588C618.495,357.84,621.361,369.121,620.866,373.213z"/>
		<path fill-rule="evenodd" clip-rule="evenodd" fill="#2C3E50" d="M599.017,380.107h-19.432v-0.007v-0.014l0,0v-0.014v-0.007
			v-0.014v-0.008l0.006-0.013l0,0v-0.013l0,0v-0.008l0,0v-0.007v-0.014v-0.013v-0.014v-0.014l0.007-0.007v-0.008v-0.013v-0.014
			v-0.014v-0.008v-0.006v-0.014l0,0v-0.014l0,0v-0.013l0,0v-0.008v-0.013l0.006-0.007v-0.015v-0.013l0,0v-0.008l0,0v-0.013v-0.007
			v-0.014v-0.014l0,0v-0.007v-0.013v-0.015l0,0v-0.007v-0.014v-0.013l0,0l0.007-0.007v-0.014v-0.007l0,0v-0.015v-0.013v-0.007
			v-0.014v-0.014l0,0v-0.007v-0.013l0,0v-0.015v-0.007v-0.014v-0.007v-0.013v-0.014v-0.014v-0.008v-0.013v-0.007v-0.014v-0.014
			v-0.014v-0.006v-0.035v-0.04v-0.033v-0.008v-0.027v-0.067v-0.021v-0.021l-0.007-0.067v-0.028v-0.013v-0.027l-0.006-0.041v-0.027
			v-0.007v-0.074l-0.007-0.027v-0.013v-0.028v-0.034l-0.006-0.033v-0.013v-0.021l-0.007-0.074V378.6l-0.007-0.015v-0.033v-0.034
			l-0.007-0.034l0,0l-0.007-0.034v-0.033l-0.007-0.041l0,0v-0.027l-0.006-0.04l-0.007-0.027v-0.014v-0.027l-0.006-0.034
			l-0.007-0.034v-0.013v-0.021l-0.006-0.033l-0.007-0.033l-0.007-0.035v-0.033l-0.007-0.034l-0.006-0.033l0,0l-0.007-0.035
			l-0.006-0.033l-0.007-0.034v-0.007l-0.007-0.027l-0.006-0.034l-0.007-0.033v-0.021l-0.006-0.015l-0.007-0.033l-0.006-0.033
			l-0.007-0.027v-0.008l-0.007-0.033l-0.007-0.034l-0.014-0.068l-0.014-0.033l-0.014-0.068l-0.006-0.027l-0.007-0.034l-0.007-0.014
			l-0.007-0.02l-0.006-0.034l-0.007-0.034c-0.415-1.568-1.263-2.961-2.411-4.047c-1.542-1.447-3.614-2.337-5.896-2.337
			c-2.282,0-4.36,0.89-5.896,2.337c-1.664,1.568-2.697,3.789-2.697,6.255c0,0.237,0.007,0.475,0.027,0.706h-0.271l-0.272-0.007
			c-0.088,0-0.177-0.014-0.265-0.027v0.034h-0.577c-3.933,0-3.335-6.961-2.228-6.961h0.387v-3.57h39.787v7.617h2.126
			c-0.185,0.706-0.287,1.446-0.287,2.208c0,0.237,0.014,0.475,0.028,0.706H599.017z"/>
		<ellipse fill-rule="evenodd" clip-rule="evenodd" fill="#2C3E50" cx="609.448" cy="379.401" rx="6.969" ry="6.975"/>
		<circle fill-rule="evenodd" clip-rule="evenodd" fill="#2C3E50" cx="571.021" cy="379.401" r="6.975"/>
		<path fill-rule="evenodd" clip-rule="evenodd" fill="#2980B9" d="M614.869,364.255c-2.526,0-8.701,0.007-11.226,0.01
			c-0.272,0-0.491-0.22-0.491-0.488c0-2.204,0-8.249,0-10.453c0-0.268,0.225-0.485,0.491-0.485c0.577-0.004,3.931-0.024,5.962-0.03
			c2.445-0.007,3.777,1.345,4.396,2.655c0.883,1.898,1.65,4.521,2.133,7.481C616.187,363.273,615.853,364.255,614.869,364.255z"/>
		<path fill-rule="evenodd" clip-rule="evenodd" fill="#ECF0F1" d="M609.448,375.991c-1.881,0-3.409,1.528-3.409,3.416
			s1.527,3.41,3.409,3.41c1.889,0,3.417-1.522,3.417-3.41S611.337,375.991,609.448,375.991z"/>
		<path fill-rule="evenodd" clip-rule="evenodd" fill="#ECF0F1" d="M571.021,375.991c-1.888,0-3.417,1.528-3.417,3.416
			s1.528,3.41,3.417,3.41c1.881,0,3.41-1.522,3.41-3.41S572.901,375.991,571.021,375.991z"/>
		<path fill-rule="evenodd" clip-rule="evenodd" fill="#2C3E50" d="M617.952,380.176h1.529c3.926,0,3.328-6.963,2.228-6.963h-6.426
			c1.664,1.569,2.697,3.791,2.697,6.255C617.979,379.707,617.973,379.944,617.952,380.176z"/>
		<path fill-rule="evenodd" clip-rule="evenodd" fill="#2C3E50" d="M615.827,364.733v-0.007v-0.006v-0.007v-0.004v-0.007v-0.679
			v-0.007v-0.004v-0.01V364v-0.006v-0.826c0-0.598,0.4-1.09,0.896-1.09l0,0c0.496,0,0.903,0.492,0.903,1.09v0.826V364v0.004v0.01
			v0.004v0.007v0.679v0.007v0.004v0.007v0.006v0.007v0.822c0,0.602-0.407,1.091-0.903,1.091l0,0c-0.496,0-0.896-0.489-0.896-1.091
			V364.733z"/>
		<polygon fill-rule="evenodd" clip-rule="evenodd" fill="#F1C40F" points="621.259,372.168 617.681,372.168 617.681,368.592 
			620.94,368.592 		"/>
		<path fill-rule="evenodd" clip-rule="evenodd" fill="#DAE1E6" d="M554.795,349.836c0,5.396,0,10.792,0,16.188
			c0,1.956,1.596,3.552,3.552,3.552c11.268,0,24.791,0,36.064,0c1.957,0,3.546-1.596,3.546-3.552c0-5.396,0-10.793,0-16.188
			c0-1.956-1.589-3.553-3.546-3.553c-11.273,0-24.796,0-36.064,0C556.391,346.283,554.795,347.88,554.795,349.836z"/>
	</g>
</g>
<g>
	<g>
		<rect x="656.022" y="483.798" fill="none" width="153.101" height="26.208"/>
		<text transform="matrix(1 0 0 1 656.0225 501.8096)" fill="#4EA8DE" font-family="'HelveticaNeueLTPro-Md'" font-size="25.2274">Rework</text>
	</g>
	<rect x="886.494" y="470.694" fill="none" width="488.184" height="52.416"/>
	<text transform="matrix(1 0 0 1 886.4941 488.7056)"><tspan x="0" y="0" fill="#333333" font-family="'HelveticaNeueLTPro-Md'" font-size="25.2274">Reprocessing a nonconforming Offering </tspan><tspan x="0" y="30.273" fill="#333333" font-family="'HelveticaNeueLTPro-Md'" font-size="25.2274">to meet the specification </tspan></text>
	<circle fill="#4EA8DE" cx="587.537" cy="496.901" r="48.635"/>
	<g>
		<path fill-rule="evenodd" clip-rule="evenodd" fill="#3D566E" d="M614.264,515.608c-1.035,1.848-2.258,3.481-3.686,4.909
			l-0.089,0.08c-1.41,1.401-3.025,2.597-4.828,3.614c-1.134,0.625-2.383,0.848-3.588,0.679c-1.196-0.161-2.348-0.723-3.258-1.634
			l-0.009-0.009v0.009l-10.692-10.7l-3.605-3.605l9.978-9.979l4.061-0.893c1.053-0.232,2.07-0.603,3.025-1.079l11.745,11.754
			c0.911,0.919,1.464,2.07,1.633,3.267C615.121,513.226,614.897,514.484,614.264,515.608z"/>
		<polygon fill-rule="evenodd" clip-rule="evenodd" fill="#D1D1D1" points="579.706,492.627 570.317,483.229 567.229,483.363 
			559.08,473.354 563.454,468.989 573.458,477.138 573.315,480.239 579.902,486.83 582.705,489.633 		"/>
		<path fill-rule="evenodd" clip-rule="evenodd" fill="#2C3E50" d="M614.264,515.608c-1.035,1.848-2.258,3.481-3.686,4.909
			l-0.089,0.08c-1.41,1.401-3.025,2.597-4.828,3.614c-1.134,0.625-2.383,0.848-3.588,0.679c-1.196-0.161-2.348-0.723-3.258-1.634
			l-0.009-0.009v0.009l-10.692-10.7l-3.605-3.605l2.053-2.053l14.298,14.307l0,0c0.464,0.455,1.026,0.74,1.615,0.812
			c0.268,0.045,0.544,0.036,0.812,0l-15.914-15.931l7.113-7.113l16.484,16.493c0.268-0.41,0.527-0.83,0.768-1.268
			c0.312-0.562,0.428-1.187,0.348-1.775c-0.08-0.58-0.357-1.151-0.821-1.615l-12.718-12.728c1.053-0.232,2.07-0.603,3.025-1.079
			l11.745,11.754c0.911,0.919,1.464,2.07,1.633,3.267C615.121,513.226,614.897,514.484,614.264,515.608z"/>
		<path fill-rule="evenodd" clip-rule="evenodd" fill="#D1D1D1" d="M597.743,485.902c-2.525-2.49-4.141-6.002-2.275-7.858
			l7.657-7.658l-1.053-1.053c-3.338-3.343-14.048,2.513-17.698,7.966c-1.856,2.771-2.41,6.863,0.393,10.272l-24.856,24.834
			c-0.901,0.901-1.455,2.043-1.615,3.239c-0.661,4.713,5.034,10.405,9.737,9.755c1.196-0.17,2.338-0.714,3.249-1.615l24.722-24.709
			c3.133,3.102,7.345,2.2,10.335,0.21c5.462-3.642,11.317-14.355,7.979-17.698l-1.053-1.053l-7.658,7.657
			C603.741,490.053,600.233,488.433,597.743,485.902L597.743,485.902z M563.962,519.715c-2.25-2.268-2.25-5.927,0.009-8.193
			c2.258-2.249,5.926-2.249,8.184,0.009c2.258,2.258,2.258,5.926-0.009,8.185C569.889,521.973,566.229,521.973,563.962,519.715z"/>
		<path fill-rule="evenodd" clip-rule="evenodd" fill="#DAE1E6" d="M561.115,522.499l2.82-2.82
			c-2.223-2.258-2.213-5.908,0.036-8.157c2.249-2.24,5.891-2.249,8.148-0.019l25.624-25.601c-2.525-2.49-4.141-6.002-2.275-7.858
			l7.657-7.658l-1.053-1.048c-3.338-3.348-14.048,2.508-17.698,7.961c-1.856,2.771-2.41,6.863,0.393,10.272l-24.856,24.834
			c-0.901,0.901-1.455,2.043-1.615,3.239C557.965,517.983,559.205,520.571,561.115,522.499z"/>
	</g>
</g>
<g>
	<g>
		<rect x="656.022" y="614.371" fill="none" width="153.101" height="26.209"/>
		<text transform="matrix(1 0 0 1 656.0205 632.3838)" fill="#4EA8DE" font-family="'HelveticaNeueLTPro-Md'" font-size="25.2274">Scrap</text>
	</g>
	<rect x="886.494" y="584.654" fill="none" width="527.081" height="85.643"/>
	<text transform="matrix(1 0 0 1 886.4941 602.666)"><tspan x="0" y="0" fill="#333333" font-family="'HelveticaNeueLTPro-Md'" font-size="25.2274">Offering will be appropriately destroyed </tspan><tspan x="0" y="30.273" fill="#333333" font-family="'HelveticaNeueLTPro-Md'" font-size="25.2274">using the destruction method identified </tspan><tspan x="0" y="60.547" fill="#333333" font-family="'HelveticaNeueLTPro-Md'" font-size="25.2274">during the investi-gation by the ORB </tspan></text>
	<circle fill="#4EA8DE" cx="587.194" cy="627.476" r="48.635"/>
	<g>
		<g>
			<path fill-rule="evenodd" clip-rule="evenodd" fill="#ECF0F1" d="M603.218,657.129h-32.05c-2.6,0-4.727-2.119-4.727-4.729
				v-44.417c0-0.665,0.543-1.207,1.208-1.207h39.079c0.665,0,1.217,0.542,1.217,1.207V652.4
				C607.946,655.01,605.818,657.129,603.218,657.129z"/>
			<path fill-rule="evenodd" clip-rule="evenodd" fill="#95A5A6" d="M585.679,597.823h3.028c1.347,0,2.451,1.106,2.451,2.454v1.34
				h14.004c2.915,0,5.295,2.38,5.295,5.299v0.018c0,0.744-0.613,1.352-1.358,1.352h-43.813c-0.752,0-1.356-0.607-1.356-1.352v-0.018
				c0-2.919,2.381-5.299,5.295-5.299h14.003v-1.34C583.229,598.93,584.332,597.823,585.679,597.823z"/>
			<path fill-rule="evenodd" clip-rule="evenodd" fill="#ECF0F1" d="M585.679,597.823h3.028c1.347,0,2.451,1.106,2.451,2.454v1.34
				h-7.93v-1.34C583.229,598.93,584.332,597.823,585.679,597.823z"/>
			<rect x="583.08" y="612.823" fill-rule="evenodd" clip-rule="evenodd" fill="#BDC3C7" width="8.288" height="38.257"/>
			<path fill-rule="evenodd" clip-rule="evenodd" fill="#BDC3C7" d="M577.916,612.823v38.257h-5.732
				c-0.105,0-0.21-0.044-0.289-0.113c-0.07-0.079-0.114-0.184-0.114-0.299v-37.434c0-0.114,0.044-0.214,0.114-0.288
				c0.079-0.074,0.184-0.123,0.289-0.123H577.916z"/>
			<path fill-rule="evenodd" clip-rule="evenodd" fill="#DADADA" d="M602.195,612.823h-5.663v38.257h5.663
				c0.113,0,0.21-0.044,0.289-0.122c0.07-0.07,0.122-0.175,0.122-0.29v-37.434c0-0.114-0.051-0.214-0.122-0.288
				C602.422,612.872,602.291,612.823,602.195,612.823z"/>
		</g>
		<g>
			<path fill-rule="evenodd" clip-rule="evenodd" fill="#CFCDCD" d="M603.218,657.129h-16.025v-50.353h19.535
				c0.665,0,1.217,0.542,1.217,1.207V652.4C607.946,655.01,605.818,657.129,603.218,657.129z"/>
			<path fill-rule="evenodd" clip-rule="evenodd" fill="#7F8C8D" d="M587.193,597.823h1.514c1.347,0,2.451,1.106,2.451,2.454v1.34
				h14.004c2.915,0,5.295,2.38,5.295,5.299v0.018c0,0.744-0.613,1.352-1.358,1.352h-21.906V597.823z"/>
			<path fill-rule="evenodd" clip-rule="evenodd" fill="#CFCDCD" d="M587.193,597.823h1.514c1.347,0,2.451,1.106,2.451,2.454v1.34
				h-3.965V597.823z"/>
			<rect x="587.193" y="612.823" fill-rule="evenodd" clip-rule="evenodd" fill="#95A5A6" width="4.175" height="38.257"/>
			<path fill-rule="evenodd" clip-rule="evenodd" fill="#95A5A6" d="M602.195,612.823h-5.663v38.257h5.663
				c0.113,0,0.21-0.044,0.289-0.122c0.07-0.07,0.122-0.175,0.122-0.29v-37.434c0-0.114-0.051-0.214-0.122-0.288
				C602.422,612.872,602.291,612.823,602.195,612.823z"/>
		</g>
	</g>
</g>
<g>
	<g>
		<rect x="656.022" y="798.972" fill="none" width="153.101" height="26.208"/>
		<text transform="matrix(1 0 0 1 656.0205 816.9834)" fill="#4EA8DE" font-family="'HelveticaNeueLTPro-Md'" font-size="25.2274">Use as is</text>
	</g>
	<rect x="886.494" y="709.413" fill="none" width="527.081" height="205.324"/>
	<text transform="matrix(1 0 0 1 886.4941 727.4258)"><tspan x="0" y="0" fill="#333333" font-family="'HelveticaNeueLTPro-Md'" font-size="25.2274">The Offering does not meet the specification </tspan><tspan x="0" y="30.273" fill="#333333" font-family="'HelveticaNeueLTPro-Md'" font-size="25.2274">requirements, however its continued use </tspan><tspan x="0" y="60.545" fill="#333333" font-family="'HelveticaNeueLTPro-Md'" font-size="25.2274">does not impact the safety, efficacy, </tspan><tspan x="0" y="90.818" fill="#333333" font-family="'HelveticaNeueLTPro-Md'" font-size="25.2274">performance, or regulatory submission of the </tspan><tspan x="0" y="121.092" fill="#333333" font-family="'HelveticaNeueLTPro-Md'" font-size="25.2274">Offering. The justification for using this </tspan><tspan x="0" y="151.365" fill="#333333" font-family="'HelveticaNeueLTPro-Md'" font-size="25.2274">disposition must be clearly documented in </tspan><tspan x="0" y="181.637" fill="#333333" font-family="'HelveticaNeueLTPro-Md'" font-size="25.2274">the IDF by the ORB</tspan></text>
	<circle fill="#4EA8DE" cx="591.158" cy="812.075" r="48.635"/>
	<g>
		<path fill-rule="evenodd" clip-rule="evenodd" fill="#2C3E50" d="M586.128,817.017c-8.754,8.758-20.659-5.159-12.911-12.91
			c0.675-0.672,1.772-0.672,2.444,0l0.454,0.453l8.582-8.582l4.038-4.033l-0.457-0.454c-0.672-0.672-0.672-1.772,0-2.444
			c7.801-7.797,21.626,4.195,12.914,12.911c-0.675,0.671-1.772,0.671-2.444,0l0.239,0.243l-2.884,2.88l-9.735,9.735l-0.218-0.221
			C586.799,815.269,586.792,816.349,586.128,817.017z"/>
		<path fill-rule="evenodd" clip-rule="evenodd" fill="#3D566E" d="M572.014,814.737c-1.846-3.256-1.966-7.463,1.203-10.631
			c0.675-0.672,1.772-0.672,2.444,0l0.454,0.453l8.582-8.582l4.038-4.033l-0.457-0.454c-0.672-0.672-0.672-1.772,0-2.444
			c3.193-3.189,7.393-3.066,10.646-1.207L572.014,814.737z"/>
		<path fill-rule="evenodd" clip-rule="evenodd" fill="#2C3E50" d="M594.994,807.454c2.516,2.314,19.918,19.094,24.926,24.771
			c4.03,4.551,0.822,7.307-3.25,3.832c-5.557-4.74-22.748-22.688-25.044-25.234L594.994,807.454z"/>
		<path fill-rule="evenodd" clip-rule="evenodd" fill="#F39C12" d="M565.163,825.788h29.247c1.815,0,3.313,1.295,3.451,2.982
			l0.277,3.42h-36.672l0.246-3.391C561.835,827.097,563.341,825.788,565.163,825.788z"/>
		<path fill-rule="evenodd" clip-rule="evenodd" fill="#2C3E50" d="M565.163,825.788h29.247c1.815,0,3.313,1.295,3.451,2.982v0.029
			h-36.148C561.835,827.097,563.341,825.788,565.163,825.788z"/>
		<path fill-rule="evenodd" clip-rule="evenodd" fill="#3D566E" d="M565.163,825.788h29.247c1.267,0,2.378,0.633,2.979,1.59h-35.206
			C562.785,826.421,563.9,825.788,565.163,825.788z"/>
		
			<rect x="580.896" y="794.517" transform="matrix(0.7071 -0.7071 0.7071 0.7071 -395.8706 650.5214)" fill-rule="evenodd" clip-rule="evenodd" fill="#F39C12" width="12.713" height="17.13"/>
		
			<rect x="576.974" y="796.143" transform="matrix(0.7073 -0.7069 0.7069 0.7073 -394.1954 646.2806)" fill-rule="evenodd" clip-rule="evenodd" fill="#FACC4D" width="12.715" height="6.033"/>
		<path fill-rule="evenodd" clip-rule="evenodd" fill="#2C3E50" d="M601.244,837.472l-0.193-4.48
			c-0.074-1.723-1.491-3.08-3.218-3.08H561.79c-1.727,0-3.145,1.357-3.218,3.08l-0.193,4.48H601.244z"/>
		<path fill-rule="evenodd" clip-rule="evenodd" fill="#3D566E" d="M600.604,831.493c-0.56-0.949-1.597-1.582-2.771-1.582H561.79
			c-1.178,0-2.212,0.633-2.775,1.582H600.604z"/>
		<polygon fill-rule="evenodd" clip-rule="evenodd" fill="#F39C12" points="586.912,814.271 586.367,814.815 576.115,804.56 
			576.656,804.021 		"/>
		
			<rect x="593.208" y="790.093" transform="matrix(0.7097 -0.7045 0.7045 0.7097 -389.4198 649.7047)" fill-rule="evenodd" clip-rule="evenodd" fill="#F39C12" width="0.762" height="14.499"/>
	</g>
</g>
</svg>
