<?xml version="1.0" encoding="utf-8"?>
<!-- Generator: Adobe Illustrator 16.0.3, SVG Export Plug-In . SVG Version: 6.00 Build 0)  -->
<!DOCTYPE svg PUBLIC "-//W3C//DTD SVG 1.1//EN" "http://www.w3.org/Graphics/SVG/1.1/DTD/svg11.dtd">
<svg version="1.1" id="Layer_1" xmlns="http://www.w3.org/2000/svg" xmlns:xlink="http://www.w3.org/1999/xlink" x="0px" y="0px"
	 width="2048px" height="1000px" viewBox="0 0 2048 1000" enable-background="new 0 0 2048 1000" xml:space="preserve">
<rect fill="#B9E5FB" width="2048" height="1000"/>
<g>
	<g>
		<g>
			<polygon fill="#FFFFFF" points="1934.946,942.812 1934.946,496.546 1934.946,300.125 1794.202,159.363 832.101,159.363 
				832.101,942.812 			"/>
			<g>
				<polygon fill="#2C5871" points="1794.202,300.125 1934.946,300.125 1794.202,159.363 				"/>
				<polygon fill="#D1ECFB" points="1934.946,300.125 1794.202,300.125 1934.946,440.863 				"/>
			</g>
		</g>
	</g>
</g>
<rect x="1.5" fill="#4EA8DE" width="689.1" height="1001.818"/>
<rect x="1.5" y="640.118" fill="#116BB4" width="689.1" height="360.601"/>
<g enable-background="new    ">
	<g>
		<defs>
			<rect id="SVGID_1_" x="62.747" y="72.794" width="98.806" height="49.45"/>
		</defs>
		<clipPath id="SVGID_2_">
			<use xlink:href="#SVGID_1_"  overflow="visible"/>
		</clipPath>
		<g clip-path="url(#SVGID_2_)">
			<text transform="matrix(1 0 0 1 62.7471 112.2158)" fill="#FFFFFF" font-family="'HelveticaNeueLTPro-Bd'" font-size="46">Who</text>
		</g>
	</g>
</g>
<line fill="none" stroke="#343636" stroke-width="4" stroke-miterlimit="10" x1="62.7" y1="53.718" x2="668" y2="53.718"/>
<g enable-background="new    ">
	<g>
		<defs>
			<rect id="SVGID_3_" x="742.213" y="72.794" width="96.277" height="49.588"/>
		</defs>
		<clipPath id="SVGID_4_">
			<use xlink:href="#SVGID_3_"  overflow="visible"/>
		</clipPath>
		<g clip-path="url(#SVGID_4_)">
			<text transform="matrix(1 0 0 1 742.2129 112.2158)" fill="#231F20" font-family="'HelveticaNeueLTPro-Md'" font-size="46">How</text>
		</g>
	</g>
</g>
<line fill="none" stroke="#343636" stroke-width="4" stroke-miterlimit="10" x1="742.2" y1="53.718" x2="1996.1" y2="53.718"/>
<g>
	<polygon fill="#89C240" points="1895.547,903.394 1909.014,916.893 1895.547,930.392 1900.881,935.726 1919.714,916.893 
		1900.881,898.06 	"/>
	<polygon fill="#89C240" points="1883.364,935.726 1902.197,916.893 1883.364,898.06 1878.03,903.394 1891.529,916.893 
		1878.03,930.392 	"/>
</g>
<path fill="#FFFFFF" d="M598.1,593.978H72.7c-5.5,0-10-7.383-10-16.405V177.627c0-9.022,4.5-16.404,10-16.404h525.4
	c5.5,0,10,7.382,10,16.404v399.945C608.1,586.595,603.6,593.978,598.1,593.978"/>
<path fill="#EFEFF0" d="M599.2,161.223H263v432.754h336.2c4.9,0,8.9-6.562,8.9-14.601V175.823
	C608.1,167.786,604.1,161.223,599.2,161.223"/>
<path fill="#89C240" d="M202.6,402.547h-95.7c-5.5,0-10-4.5-10-10V284.647c0-5.5,4.5-10,10-10h95.7c5.5,0,10,4.5,10,10v107.899
	C212.6,398.047,208.1,402.547,202.6,402.547"/>
<g>
	<rect x="85" y="434.363" fill="#8CC63F" width="1.2" height="12.8"/>
	<path fill="#8CC63F" d="M88.6,434.363H94c2.1,0,4.1,0.699,4.1,3.1c0,1.3-0.9,2.6-2.2,2.9c1.7,0.199,2.7,1.5,2.7,3.1
		c0,1.2-0.4,3.6-4.6,3.6h-5.4V434.363z M89.8,439.963H94c1.9,0,2.9-1,2.9-2.2c0-1.6-1-2.399-2.9-2.399h-4.2V439.963z M89.8,446.062
		H94c1.8,0,3.4-0.6,3.4-2.6c0-1.7-1.2-2.5-3.4-2.5h-4.2V446.062z"/>
	<polygon fill="#8CC63F" points="100.6,434.363 102.4,434.363 106.8,445.562 111.2,434.363 113,434.363 113,447.163 111.8,447.163 
		111.8,436.062 107.4,447.163 106.2,447.163 101.8,436.062 101.8,447.163 100.6,447.163 	"/>
	<polygon fill="#173E68" points="130.2,447.062 127.4,447.062 125.2,438.363 123.1,447.062 120.2,447.062 116.8,434.263 
		119.6,434.263 121.6,442.963 123.8,434.263 126.4,434.263 128.6,443.062 130.7,434.263 133.5,434.263 	"/>
	<path fill="#173E68" d="M133.9,440.562c0.2-2.399,2.3-3.1,4.4-3.1c1.8,0,4.1,0.4,4.1,2.6v4.801c0,0.8,0.1,1.699,0.3,2.1h-2.6
		c-0.1-0.3-0.2-0.6-0.2-0.9c-0.8,0.801-2,1.2-3.1,1.2c-1.8,0-3.1-0.899-3.1-2.8c0-4.2,6.3-2,6.2-4c0-1.1-0.7-1.2-1.7-1.2
		s-1.6,0.4-1.7,1.4h-2.6V440.562z M139.8,442.463c-0.4,0.4-1.3,0.4-2.1,0.5c-0.8,0.2-1.5,0.4-1.5,1.4s0.7,1.199,1.6,1.199
		c2,0,2.1-1.6,2.1-2.1v-1H139.8z"/>
	<path fill="#173E68" d="M147.5,437.763h1.9v1.7h-1.9v4.6c0,0.9,0.2,1.101,1.1,1.101c0.3,0,0.6,0,0.8-0.101v2
		c-0.4,0.101-1,0.101-1.5,0.101c-1.6,0-2.9-0.3-2.9-2.2v-5.5h-1.6v-1.7h1.6v-2.8h2.6L147.5,437.763z"/>
	<path fill="#173E68" d="M152.6,444.062c0,1.101,1,1.601,2,1.601c0.7,0,1.7-0.3,1.7-1.2c0-0.8-1.1-1.1-2.9-1.4c-1.5-0.3-3-0.8-3-2.5
		c0-2.399,2.1-3,4-3c2,0,3.9,0.7,4.1,3h-2.4c-0.1-1-0.8-1.199-1.7-1.199c-0.6,0-1.4,0.1-1.4,0.899c0,0.9,1.5,1,2.9,1.4
		c1.5,0.3,3,0.899,3,2.6c0,2.4-2.1,3.2-4.2,3.2c-2.1,0-4.3-0.8-4.4-3.3h2.3V444.062z"/>
	<path fill="#173E68" d="M164.6,437.562c2.9,0,4.8,1.9,4.8,4.9s-1.9,4.9-4.8,4.9s-4.8-1.9-4.8-4.9S161.6,437.562,164.6,437.562
		 M164.6,445.363c1.7,0,2.3-1.5,2.3-3s-0.5-3-2.3-3c-1.7,0-2.2,1.5-2.2,3S162.8,445.363,164.6,445.363"/>
	<path fill="#173E68" d="M170.6,437.763h2.4v1.3h0.1c0.7-1.1,1.7-1.6,2.8-1.6c2.7,0,3.4,1.5,3.4,3.8v5.7h-2.6v-5.2
		c0-1.5-0.4-2.3-1.6-2.3c-1.4,0-2,0.8-2,2.6v4.9h-2.6L170.6,437.763z"/>
	<polygon fill="#173E68" points="184.4,434.263 187.2,434.263 187.2,439.163 192.4,439.163 192.4,434.263 195.2,434.263 
		195.2,447.062 192.4,447.062 192.4,441.562 187.2,441.562 187.2,447.062 184.4,447.062 	"/>
	<path fill="#173E68" d="M199.4,443.062c0.1,1.601,0.8,2.4,2.3,2.4c1,0,1.8-0.6,2-1.2h2.2c-0.7,2.2-2.2,3.101-4.3,3.101
		c-2.9,0-4.7-2-4.7-4.9c0-2.8,1.9-4.9,4.7-4.9c3.1,0,4.7,2.601,4.5,5.5H199.4z M203.5,441.363c-0.2-1.301-0.8-2-2-2
		c-1.7,0-2.1,1.199-2.1,2H203.5z"/>
	<path fill="#173E68" d="M207.6,440.562c0.2-2.399,2.3-3.1,4.4-3.1c1.8,0,4.1,0.4,4.1,2.6v4.801c0,0.8,0.1,1.699,0.3,2.1h-2.6
		c-0.1-0.3-0.2-0.6-0.2-0.9c-0.8,0.801-2,1.2-3.1,1.2c-1.8,0-3.1-0.899-3.1-2.8c0-4.2,6.3-2,6.2-4c0-1.1-0.7-1.2-1.7-1.2
		s-1.6,0.4-1.7,1.4h-2.6V440.562z M213.4,442.463c-0.4,0.4-1.3,0.4-2.1,0.5c-0.8,0.2-1.5,0.4-1.5,1.4s0.7,1.199,1.6,1.199
		c2,0,2.1-1.6,2.1-2.1v-1H213.4z"/>
	<path fill="#173E68" d="M225.7,437.763h1.9v1.7h-1.9v4.6c0,0.9,0.2,1.101,1.1,1.101c0.3,0,0.6,0,0.8-0.101v2
		c-0.4,0.101-1,0.101-1.5,0.101c-1.6,0-2.9-0.3-2.9-2.2v-5.5h-1.6v-1.7h1.6v-2.8h2.6v2.8H225.7z"/>
	<path fill="#173E68" d="M229.2,434.263h2.6v4.8h0.1c0.7-1.1,1.7-1.6,2.7-1.6c2.7,0,3.4,1.5,3.4,3.8v5.7h-2.6v-5.2
		c0-1.5-0.4-2.3-1.6-2.3c-1.4,0-2,0.8-2,2.6v4.9h-2.6V434.263z"/>
	<rect x="217.9" y="434.263" fill="#173E68" width="2.6" height="12.8"/>
</g>
<g>
	<defs>
		<path id="SVGID_5_" d="M106.9,274.647c-5.5,0-10,4.5-10,10v107.899c0,5.5,4.5,10,10,10h95.7c5.5,0,10-4.5,10-10V284.647
			c0-5.5-4.5-10-10-10H106.9z"/>
	</defs>
	<clipPath id="SVGID_6_">
		<use xlink:href="#SVGID_5_"  overflow="visible"/>
	</clipPath>
	<path clip-path="url(#SVGID_6_)" fill="#E3CCA4" d="M140.8,329.547h27.9l3,31.7c0.2,2.2,2.1,3.9,4.5,4h0.5l-3.5,11.9l-37-2.9
		l-2.7-9l1-0.2c2.2-0.3,3.8-1.899,3.9-4L140.8,329.547z"/>
	<path clip-path="url(#SVGID_6_)" fill="#D4C5A3" d="M154.9,375.747l-18.8-1.5l-2.7-9l1-0.2c2.2-0.3,3.8-1.899,3.9-4l1.8-22.399H155
		L154.9,375.747z"/>
	<path clip-path="url(#SVGID_6_)" fill="#CCBC97" d="M140.8,329.547h27.9l2.2,24c-0.5,0.8-0.9,1.3-1.4,2.101
		c-4.1,5.6-9.4,9.399-14.5,9.399s-10.4-3.8-14.5-9.399c-0.6-0.9-1.1-1.5-1.6-2.4L140.8,329.547z"/>
	<path clip-path="url(#SVGID_6_)" fill="#2C3E50" d="M154.9,356.747c-6.5,0-13-4.2-17.9-10.4c-4.8-6.1-8-14.199-8-22v-0.199v-0.101
		v-1.6c0-18.7-3.4-33.9,26-33.9s25.9,15.2,25.9,33.9v1.5v0.1v0.2c0,7.8-3.2,15.9-8,22C168,352.547,161.4,356.747,154.9,356.747"/>
	<path clip-path="url(#SVGID_6_)" fill="#ECF0F1" d="M138.1,362.147c-11.3,7.399-32.2,8-32.2,23.6v15.5c0,4.2,3.6,7.6,8.1,7.6h81.7
		c4.5,0,8.1-3.399,8.1-7.6v-15.4c0-15.8-20.6-16.399-32.1-23.6C160.2,369.847,151.7,372.447,138.1,362.147"/>
	<path clip-path="url(#SVGID_6_)" fill="#FFE7BD" d="M137.6,349.747c4.9,6.2,11.2,10.4,17.3,10.4s12.5-4.2,17.3-10.4
		c5-6.4,8.4-14.8,8.5-22.9l-1.7-6.5c-0.6-2.3-0.7-4.5-0.7-6.5c-0.1-2.699-0.1-5.199-1.7-7.199c-2.5-3.301-6.5-2.2-11.2-1
		c-3.2,0.899-6.7,1.8-10.4,1.8c-3.8,0-7.2-0.9-10.4-1.8c-4.7-1.301-8.7-2.301-11.2,0.899c-1.6,2-1.6,4.5-1.7,7.2
		c0,2.1-0.1,4.2-0.7,6.5l-1.7,6.5C129.2,334.947,132.6,343.447,137.6,349.747"/>
	<path clip-path="url(#SVGID_6_)" fill="#DAE1E6" d="M134.9,363.947c2.8,5.399,10.4,11.8,20.1,11.8c9.2,0,16.8-6.3,20.1-11.7
		c-3.3,6.2-10.6,12.8-20.1,12.7C145.5,376.747,137.6,370.047,134.9,363.947"/>
	<path clip-path="url(#SVGID_6_)" fill="#E8D6AC" d="M137.6,349.747c4.9,6.2,11.2,10.4,17.3,10.4v-52.7c-3.8,0-7.2-0.9-10.4-1.8
		c-4.7-1.301-8.7-2.301-11.2,0.899c-1.6,2-1.6,4.5-1.7,7.2c0,2.1-0.1,4.2-0.7,6.5l-1.7,6.5
		C129.2,334.947,132.6,343.447,137.6,349.747"/>
	<path clip-path="url(#SVGID_6_)" fill="#DAE1E6" d="M131.8,364.447c-10.7,4.6-25.9,5.6-25.9,21.2v15.5c0,4.199,3.6,7.6,8.1,7.6
		h40.9h40.9c4.5,0,8.1-3.4,8.1-7.6v-15.4c0-15.6-15.2-16.7-25.9-21.3c-6.6,10.2-14.9,15.399-23.1,15.5
		C146.7,379.947,138.4,374.747,131.8,364.447"/>
	<path clip-path="url(#SVGID_6_)" fill="#B3B3B3" d="M131.8,364.347c-1.5,0.7-3.1,1.2-4.7,1.801c9.1,14.399,19.9,18.699,27.9,18.8
		c7.9-0.101,18.8-4.4,27.9-18.8c-1.6-0.601-3.2-1.101-4.7-1.801c-6.6,10.2-15,15.601-23.2,15.7
		C146.7,379.947,138.4,374.647,131.8,364.347"/>
</g>
<rect x="62.298" y="686.907" fill="none" width="538.626" height="27.907"/>
<text transform="matrix(1 0 0 1 62.2979 704.043)" fill="#B9E5FB" font-family="'HelveticaNeueLTPro-Bd'" font-size="24">Examples</text>
<rect x="62.298" y="768.369" fill="none" width="501.702" height="147.445"/>
<text transform="matrix(1 0 0 1 62.2979 786.9336)"><tspan x="0" y="0" fill="#FFFFFF" font-family="'HelveticaNeueLTPro-Roman'" font-size="26">• Complaints</tspan><tspan x="0" y="31.199" fill="#FFFFFF" font-family="'HelveticaNeueLTPro-Roman'" font-size="26">• Deviations</tspan><tspan x="0" y="62.399" fill="#FFFFFF" font-family="'HelveticaNeueLTPro-Roman'" font-size="26">• Inspections</tspan></text>
<g>
	<rect x="1155.578" y="203.654" fill="none" width="631.487" height="221.685"/>
	<text transform="matrix(1 0 0 1 1155.5762 220.7896)"><tspan x="0" y="0" fill="#333333" font-family="'HelveticaNeueLTPro-Roman'" font-size="24">•  A complaint is any communication that alleges </tspan><tspan x="25" y="28.8" fill="#333333" font-family="'HelveticaNeueLTPro-Roman'" font-size="24">deficiencies related to the identity, quality, durability, </tspan><tspan x="25" y="57.6" fill="#333333" font-family="'HelveticaNeueLTPro-Roman'" font-size="24">reliability, safety, effectiveness, or performance of an </tspan><tspan x="25" y="86.4" fill="#333333" font-family="'HelveticaNeueLTPro-Roman'" font-size="24">Offering </tspan><tspan x="0" y="125.2" fill="#333333" font-family="'HelveticaNeueLTPro-Roman'" font-size="24">•  A deviations is a departure from approved processes </tspan><tspan x="25" y="154" fill="#333333" font-family="'HelveticaNeueLTPro-Roman'" font-size="24">requiring additional documentation and approval </tspan><tspan x="0" y="192.8" fill="#333333" font-family="'HelveticaNeueLTPro-Roman'" font-size="24">•  An inspection is a careful examination</tspan></text>
</g>
<g>
	<rect x="1155.578" y="465.38" fill="none" width="631.487" height="67.953"/>
	<text transform="matrix(1 0 0 1 1155.5762 482.5156)"><tspan x="0" y="0" fill="#333333" font-family="'HelveticaNeueLTPro-Roman'" font-size="24">•  If meets definition of nonconformance, immediately </tspan><tspan x="25" y="28.8" fill="#333333" font-family="'HelveticaNeueLTPro-Roman'" font-size="24">identify and move to next step.</tspan></text>
</g>
<g>
	<rect x="1155.578" y="607.472" fill="none" width="631.487" height="321.952"/>
	<text transform="matrix(1 0 0 1 1155.5781 624.6074)"><tspan x="0" y="0" fill="#333333" font-family="'HelveticaNeueLTPro-Roman'" font-size="24">• Document the following on Nonconformance Notification</tspan><tspan x="0" y="30.8" fill="#333333" font-family="'HelveticaNeueLTPro-Roman'" font-size="24" letter-spacing="29">	</tspan><tspan x="36" y="30.8" fill="#333333" font-family="'HelveticaNeueLTPro-Roman'" font-size="24">- Date nonconformance was found</tspan><tspan x="0" y="61.6" fill="#333333" font-family="'HelveticaNeueLTPro-Roman'" font-size="24" letter-spacing="29">	</tspan><tspan x="36" y="61.6" fill="#333333" font-family="'HelveticaNeueLTPro-Roman'" font-size="24">- Originator</tspan><tspan x="0" y="92.399" fill="#333333" font-family="'HelveticaNeueLTPro-Roman'" font-size="24" letter-spacing="29">	</tspan><tspan x="36" y="92.399" fill="#333333" font-family="'HelveticaNeueLTPro-Roman'" font-size="24">- Version number</tspan><tspan x="0" y="123.2" fill="#333333" font-family="'HelveticaNeueLTPro-Roman'" font-size="24" letter-spacing="29">	</tspan><tspan x="36" y="123.2" fill="#333333" font-family="'HelveticaNeueLTPro-Roman'" font-size="24">- Quantity of Nonconforming Offering</tspan><tspan x="0" y="154" fill="#333333" font-family="'HelveticaNeueLTPro-Roman'" font-size="24" letter-spacing="29">	</tspan><tspan x="36" y="154" fill="#333333" font-family="'HelveticaNeueLTPro-Roman'" font-size="24">- Specification Description</tspan><tspan x="0" y="184.8" fill="#333333" font-family="'HelveticaNeueLTPro-Roman'" font-size="24" letter-spacing="29">	</tspan><tspan x="36" y="184.8" fill="#333333" font-family="'HelveticaNeueLTPro-Roman'" font-size="24">- Expected Outcome </tspan><tspan x="0" y="215.6" fill="#333333" font-family="'HelveticaNeueLTPro-Roman'" font-size="24" letter-spacing="29">	</tspan><tspan x="36" y="215.6" fill="#333333" font-family="'HelveticaNeueLTPro-Roman'" font-size="24">- Actual Outcome</tspan><tspan x="0" y="246.399" fill="#333333" font-family="'HelveticaNeueLTPro-Roman'" font-size="24" letter-spacing="29">	</tspan><tspan x="36" y="246.399" fill="#333333" font-family="'HelveticaNeueLTPro-Roman'" font-size="24">- Segregation Actions</tspan><tspan x="0" y="277.199" fill="#333333" font-family="'HelveticaNeueLTPro-Roman'" font-size="24" letter-spacing="29">	</tspan><tspan x="36" y="277.199" fill="#333333" font-family="'HelveticaNeueLTPro-Roman'" font-size="24">- Date of Submission</tspan></text>
</g>
<g>
	<g>
		
			<line fill="none" stroke="#4EA8DE" stroke-width="2" stroke-miterlimit="10" x1="976.675" y1="293.186" x2="976.675" y2="411.306"/>
		<g>
			<polygon fill="#4EA8DE" points="964.404,401.365 966.604,399.318 976.672,410.154 986.744,399.318 988.941,401.365 
				976.672,414.56 			"/>
		</g>
	</g>
</g>
<rect x="286.763" y="177.118" fill="none" width="289.674" height="98.222"/>
<text transform="matrix(1 0 0 1 286.7627 197.1099)"><tspan x="0" y="0" fill="#231F20" font-family="'HelveticaNeueLTPro-Md'" font-size="28">Nonconforming </tspan><tspan x="0" y="33.6" fill="#231F20" font-family="'HelveticaNeueLTPro-Md'" font-size="28">Offerings can come </tspan><tspan x="0" y="67.2" fill="#231F20" font-family="'HelveticaNeueLTPro-Md'" font-size="28">from multiple sources.</tspan></text>
<rect x="283.612" y="289.486" fill="none" width="299.376" height="294.514"/>
<text transform="matrix(1 0 0 1 283.6123 305.1938)"><tspan x="0" y="0" fill="#333333" font-family="'HelveticaNeueLTPro-Roman'" font-size="22">• Any Watson Health </tspan><tspan x="20" y="26.4" fill="#333333" font-family="'HelveticaNeueLTPro-Roman'" font-size="22">employee can identify a </tspan><tspan x="20" y="52.8" fill="#333333" font-family="'HelveticaNeueLTPro-Roman'" font-size="22">potentially nonconforming </tspan><tspan x="20" y="79.2" fill="#333333" font-family="'HelveticaNeueLTPro-Roman'" font-size="22">Offering. </tspan><tspan x="0" y="115.6" fill="#333333" font-family="'HelveticaNeueLTPro-Roman'" font-size="22">• The individual that identifies </tspan><tspan x="20" y="142" fill="#333333" font-family="'HelveticaNeueLTPro-Roman'" font-size="22">a nonconforming Offering </tspan><tspan x="20" y="168.4" fill="#333333" font-family="'HelveticaNeueLTPro-Roman'" font-size="22">becomes the Originator as </tspan><tspan x="20" y="194.8" fill="#333333" font-family="'HelveticaNeueLTPro-Roman'" font-size="22">defined in the procedure</tspan><tspan x="0" y="231.201" fill="#333333" font-family="'HelveticaNeueLTPro-Roman'" font-size="22">• The Originator is responsible </tspan><tspan x="20" y="257.601" fill="#333333" font-family="'HelveticaNeueLTPro-Roman'" font-size="22">for all identification steps</tspan></text>
<rect x="62.297" y="720.82" fill="none" width="576" height="44"/>
<text transform="matrix(1 0 0 1 62.2979 745.0947)" fill="#FFFFFF" font-family="'HelveticaNeueLTPro-Bd'" font-size="34">Nonconforming Offering sources</text>
<rect x="860.258" y="200.591" fill="none" width="232.83" height="135.527"/>
<text transform="matrix(1 0 0 1 860.2578 222.0107)"><tspan x="0" y="0" fill="#074164" font-family="'HelveticaNeueLTPro-Bd'" font-size="30">Evaluate need</tspan><tspan x="0" y="36" fill="#074164" font-family="'HelveticaNeueLTPro-Bd'" font-size="30">for CAPA</tspan></text>
<rect x="860.258" y="463.078" fill="none" width="307.825" height="92.754"/>
<text transform="matrix(1 0 0 1 860.2578 484.4976)"><tspan x="0" y="0" fill="#074164" font-family="'HelveticaNeueLTPro-Bd'" font-size="30">Identify </tspan><tspan x="0" y="36" fill="#074164" font-family="'HelveticaNeueLTPro-Bd'" font-size="30">Non-conformance</tspan></text>
<g>
	<g>
		
			<line fill="none" stroke="#4EA8DE" stroke-width="2" stroke-miterlimit="10" x1="976.675" y1="538.409" x2="976.675" y2="580.818"/>
		<g>
			<polygon fill="#4EA8DE" points="964.404,570.877 966.604,568.83 976.672,579.666 986.744,568.83 988.941,570.877 
				976.672,584.072 			"/>
		</g>
	</g>
</g>
<rect x="860.258" y="606.022" fill="none" width="288.326" height="165.934"/>
<text transform="matrix(1 0 0 1 860.2578 627.4424)"><tspan x="0" y="0" fill="#074164" font-family="'HelveticaNeueLTPro-Bd'" font-size="30">Create</tspan><tspan x="0" y="36" fill="#074164" font-family="'HelveticaNeueLTPro-Bd'" font-size="30">Non-conformance</tspan><tspan x="0" y="72" fill="#074164" font-family="'HelveticaNeueLTPro-Bd'" font-size="30">Notification</tspan></text>
<rect x="1584.358" y="907.992" fill="none" width="288.326" height="21.806"/>
<text transform="matrix(1 0 0 1 1584.3584 922.2715)" fill="#333333" font-family="'HelveticaNeueLTPro-It'" font-size="20">Example provided on next page </text>
</svg>
