<?xml version="1.0" encoding="utf-8"?>
<!-- Generator: Adobe Illustrator 16.0.3, SVG Export Plug-In . SVG Version: 6.00 Build 0)  -->
<!DOCTYPE svg PUBLIC "-//W3C//DTD SVG 1.1//EN" "http://www.w3.org/Graphics/SVG/1.1/DTD/svg11.dtd">
<svg version="1.1" id="Layer_1" xmlns="http://www.w3.org/2000/svg" xmlns:xlink="http://www.w3.org/1999/xlink" x="0px" y="0px"
	 width="2048px" height="1000px" viewBox="0 0 2048 1000" enable-background="new 0 0 2048 1000" xml:space="preserve">
<rect fill="#B9E5FB" width="2048" height="1000"/>
<g>
	<g>
		<g>
			<polygon fill="#FFFFFF" points="1934.946,942.812 1934.946,496.546 1934.946,300.125 1794.202,159.363 832.101,159.363 
				832.101,942.812 			"/>
			<g>
				<polygon fill="#2C5871" points="1794.202,300.125 1934.946,300.125 1794.202,159.363 				"/>
				<polygon fill="#D1ECFB" points="1934.946,300.125 1794.202,300.125 1934.946,440.863 				"/>
			</g>
		</g>
	</g>
</g>
<rect x="1.5" fill="#4EA8DE" width="689.1" height="1001.818"/>
<rect x="1.5" y="640.118" fill="#116BB4" width="689.1" height="360.601"/>
<g enable-background="new    ">
	<g>
		<defs>
			<rect id="SVGID_1_" x="62.747" y="72.794" width="98.806" height="49.45"/>
		</defs>
		<clipPath id="SVGID_2_">
			<use xlink:href="#SVGID_1_"  overflow="visible"/>
		</clipPath>
		<g clip-path="url(#SVGID_2_)">
			<text transform="matrix(1 0 0 1 62.7471 112.2158)" fill="#FFFFFF" font-family="'HelveticaNeueLTPro-Bd'" font-size="46">Who</text>
		</g>
	</g>
</g>
<line fill="none" stroke="#343636" stroke-width="4" stroke-miterlimit="10" x1="62.7" y1="53.718" x2="668" y2="53.718"/>
<g enable-background="new    ">
	<g>
		<defs>
			<rect id="SVGID_3_" x="742.213" y="72.794" width="96.277" height="49.588"/>
		</defs>
		<clipPath id="SVGID_4_">
			<use xlink:href="#SVGID_3_"  overflow="visible"/>
		</clipPath>
		<g clip-path="url(#SVGID_4_)">
			<text transform="matrix(1 0 0 1 742.2129 112.2158)" fill="#231F20" font-family="'HelveticaNeueLTPro-Md'" font-size="46">How</text>
		</g>
	</g>
</g>
<line fill="none" stroke="#343636" stroke-width="4" stroke-miterlimit="10" x1="742.2" y1="53.718" x2="1996.1" y2="53.718"/>
<g>
	<rect x="1182.577" y="203.654" fill="none" width="631.487" height="132.464"/>
	<text transform="matrix(1 0 0 1 1182.5781 220.7896)"><tspan x="0" y="0" fill="#333333" font-family="'HelveticaNeueLTPro-Roman'" font-size="24">•  Originator immediately segregates nonconforming </tspan><tspan x="25" y="28.8" fill="#333333" font-family="'HelveticaNeueLTPro-Roman'" font-size="24">material </tspan><tspan x="0" y="67.6" fill="#333333" font-family="'HelveticaNeueLTPro-Roman'" font-size="24">•  Segregation activities vary based on type of </tspan><tspan x="25" y="96.4" fill="#333333" font-family="'HelveticaNeueLTPro-Roman'" font-size="24">nonconforming offering</tspan></text>
</g>
<g>
	<rect x="1182.577" y="465.38" fill="none" width="631.487" height="254.03"/>
	<text transform="matrix(1 0 0 1 1182.5781 482.5156)"><tspan x="0" y="0" fill="#333333" font-family="'HelveticaNeueLTPro-Roman'" font-size="24">•  If the Offering is Software on premise, the Originator </tspan><tspan x="25" y="28.8" fill="#333333" font-family="'HelveticaNeueLTPro-Roman'" font-size="24">must notify the Client to move the nonconforming </tspan><tspan x="25" y="57.6" fill="#333333" font-family="'HelveticaNeueLTPro-Roman'" font-size="24">Offering to a quarantine location (if possible) and clearly </tspan><tspan x="25" y="86.4" fill="#333333" font-family="'HelveticaNeueLTPro-Roman'" font-size="24">label the Offering as “Nonconforming, Do NOT Use” (or </tspan><tspan x="25" y="115.2" fill="#333333" font-family="'HelveticaNeueLTPro-Roman'" font-size="24">equivalent)</tspan><tspan x="0" y="154" fill="#333333" font-family="'HelveticaNeueLTPro-Roman'" font-size="24">•  If the Offering is SaaS, the Originator needs to ensure </tspan><tspan x="25" y="182.8" fill="#333333" font-family="'HelveticaNeueLTPro-Roman'" font-size="24">that access to the Offering will be restricted to prevent </tspan><tspan x="25" y="211.6" fill="#333333" font-family="'HelveticaNeueLTPro-Roman'" font-size="24">users from using the nonconforming Offering</tspan></text>
</g>
<g>
	<rect x="1182.577" y="758.052" fill="none" width="631.487" height="147.606"/>
	<text transform="matrix(1 0 0 1 1182.5781 775.1875)"><tspan x="0" y="0" fill="#333333" font-family="'HelveticaNeueLTPro-Roman'" font-size="24">• Originator documents segregation method used on NCN</tspan><tspan x="0" y="38.8" fill="#333333" font-family="'HelveticaNeueLTPro-Roman'" font-size="24">• Example: On 01/01/16, I called John Doe from Client X </tspan><tspan x="25" y="67.6" fill="#333333" font-family="'HelveticaNeueLTPro-Roman'" font-size="24">and told them that their access to Product X will be </tspan><tspan x="25" y="96.4" fill="#333333" font-family="'HelveticaNeueLTPro-Roman'" font-size="24">restricted</tspan></text>
</g>
<g>
	<g>
		
			<line fill="none" stroke="#4EA8DE" stroke-width="2" stroke-miterlimit="10" x1="976.675" y1="309.807" x2="976.675" y2="427.927"/>
		<g>
			<polygon fill="#4EA8DE" points="964.404,417.985 966.604,415.938 976.672,426.774 986.744,415.938 988.941,417.985 
				976.672,431.181 			"/>
		</g>
	</g>
</g>
<g>
	<g>
		
			<line fill="none" stroke="#4EA8DE" stroke-width="2" stroke-miterlimit="10" x1="976.675" y1="540.324" x2="976.675" y2="723.232"/>
		<g>
			<polygon fill="#4EA8DE" points="964.404,713.291 966.604,711.244 976.672,722.08 986.744,711.244 988.941,713.291 
				976.672,726.486 			"/>
		</g>
	</g>
</g>
<rect x="860.258" y="200.591" fill="none" width="232.83" height="135.527"/>
<text transform="matrix(1 0 0 1 860.2578 222.0107)"><tspan x="0" y="0" fill="#074164" font-family="'HelveticaNeueLTPro-Bd'" font-size="30">Need for</tspan><tspan x="0" y="36" fill="#074164" font-family="'HelveticaNeueLTPro-Bd'" font-size="30">Immediate </tspan><tspan x="0" y="72" fill="#074164" font-family="'HelveticaNeueLTPro-Bd'" font-size="30">segregation</tspan></text>
<rect x="860.258" y="463.078" fill="none" width="307.825" height="92.754"/>
<text transform="matrix(1 0 0 1 860.2578 484.4976)"><tspan x="0" y="0" fill="#074164" font-family="'HelveticaNeueLTPro-Bd'" font-size="30">Determine </tspan><tspan x="0" y="36" fill="#074164" font-family="'HelveticaNeueLTPro-Bd'" font-size="30">segregation method</tspan></text>
<rect x="860.258" y="756.603" fill="none" width="291.326" height="165.934"/>
<text transform="matrix(1 0 0 1 860.2578 778.0234)"><tspan x="0" y="0" fill="#074164" font-family="'HelveticaNeueLTPro-Bd'" font-size="30">Document </tspan><tspan x="0" y="36" fill="#074164" font-family="'HelveticaNeueLTPro-Bd'" font-size="30">segregation method</tspan><tspan x="0" y="72" fill="#074164" font-family="'HelveticaNeueLTPro-Bd'" font-size="30">on NCN</tspan></text>
<path fill="#FFFFFF" d="M593.737,557.239h-525.4c-5.5,0-10-4.5-10-10V303.438c0-5.5,4.5-10,10-10h525.4c5.5,0,10,4.5,10,10v243.801
	C603.737,552.739,599.237,557.239,593.737,557.239"/>
<path fill="#EFEFF0" d="M594.838,293.439H258.637v263.8h336.201c4.899,0,8.899-4,8.899-8.9v-246
	C603.737,297.438,599.737,293.439,594.838,293.439"/>
<rect x="85" y="505.317" fill="#8CC63F" width="1.2" height="12.8"/>
<path fill="#8CC63F" d="M88.6,505.317H94c2.1,0,4.1,0.699,4.1,3.1c0,1.3-0.9,2.6-2.2,2.9c1.7,0.199,2.7,1.5,2.7,3.1
	c0,1.2-0.4,3.6-4.6,3.6h-5.4V505.317z M89.8,510.917H94c1.9,0,2.9-1,2.9-2.2c0-1.6-1-2.399-2.9-2.399h-4.2V510.917z M89.8,517.017
	H94c1.8,0,3.4-0.6,3.4-2.6c0-1.7-1.2-2.5-3.4-2.5h-4.2V517.017z"/>
<polygon fill="#8CC63F" points="100.6,505.317 102.4,505.317 106.8,516.517 111.2,505.317 113,505.317 113,518.117 111.8,518.117 
	111.8,507.017 107.4,518.117 106.2,518.117 101.8,507.017 101.8,518.117 100.6,518.117 "/>
<polygon fill="#173E68" points="130.2,518.017 127.4,518.017 125.2,509.317 123.1,518.017 120.2,518.017 116.8,505.217 
	119.6,505.217 121.6,513.917 123.8,505.217 126.4,505.217 128.6,514.017 130.7,505.217 133.5,505.217 "/>
<path fill="#173E68" d="M133.9,511.517c0.2-2.399,2.3-3.1,4.4-3.1c1.8,0,4.1,0.4,4.1,2.6v4.801c0,0.8,0.1,1.699,0.3,2.1h-2.6
	c-0.1-0.3-0.2-0.6-0.2-0.9c-0.8,0.801-2,1.2-3.1,1.2c-1.8,0-3.1-0.899-3.1-2.8c0-4.2,6.3-2,6.2-4c0-1.1-0.7-1.2-1.7-1.2
	s-1.6,0.4-1.7,1.4h-2.6V511.517z M139.8,513.417c-0.4,0.4-1.3,0.4-2.1,0.5c-0.8,0.2-1.5,0.4-1.5,1.4s0.7,1.199,1.6,1.199
	c2,0,2.1-1.6,2.1-2.1v-1H139.8z"/>
<path fill="#173E68" d="M147.5,508.717h1.9v1.7h-1.9v4.6c0,0.9,0.2,1.101,1.1,1.101c0.3,0,0.6,0,0.8-0.101v2
	c-0.4,0.101-1,0.101-1.5,0.101c-1.6,0-2.9-0.3-2.9-2.2v-5.5h-1.6v-1.7h1.6v-2.8h2.6L147.5,508.717z"/>
<path fill="#173E68" d="M152.6,515.017c0,1.101,1,1.601,2,1.601c0.7,0,1.7-0.3,1.7-1.2c0-0.8-1.1-1.1-2.9-1.4c-1.5-0.3-3-0.8-3-2.5
	c0-2.399,2.1-3,4-3c2,0,3.9,0.7,4.1,3h-2.4c-0.1-1-0.8-1.199-1.7-1.199c-0.6,0-1.4,0.1-1.4,0.899c0,0.9,1.5,1,2.9,1.4
	c1.5,0.3,3,0.899,3,2.6c0,2.4-2.1,3.2-4.2,3.2c-2.1,0-4.3-0.8-4.4-3.3h2.3V515.017z"/>
<path fill="#173E68" d="M164.6,508.517c2.9,0,4.8,1.9,4.8,4.9s-1.9,4.9-4.8,4.9s-4.8-1.9-4.8-4.9S161.6,508.517,164.6,508.517
	 M164.6,516.317c1.7,0,2.3-1.5,2.3-3s-0.5-3-2.3-3c-1.7,0-2.2,1.5-2.2,3S162.8,516.317,164.6,516.317"/>
<path fill="#173E68" d="M170.6,508.717h2.4v1.3h0.1c0.7-1.1,1.7-1.6,2.8-1.6c2.7,0,3.4,1.5,3.4,3.8v5.7h-2.6v-5.2
	c0-1.5-0.4-2.3-1.6-2.3c-1.4,0-2,0.8-2,2.6v4.9h-2.6L170.6,508.717z"/>
<polygon fill="#173E68" points="184.4,505.217 187.2,505.217 187.2,510.117 192.4,510.117 192.4,505.217 195.2,505.217 
	195.2,518.017 192.4,518.017 192.4,512.517 187.2,512.517 187.2,518.017 184.4,518.017 "/>
<path fill="#173E68" d="M199.4,514.017c0.1,1.601,0.8,2.4,2.3,2.4c1,0,1.8-0.6,2-1.2h2.2c-0.7,2.2-2.2,3.101-4.3,3.101
	c-2.9,0-4.7-2-4.7-4.9c0-2.8,1.9-4.9,4.7-4.9c3.1,0,4.7,2.601,4.5,5.5H199.4z M203.5,512.317c-0.2-1.301-0.8-2-2-2
	c-1.7,0-2.1,1.199-2.1,2H203.5z"/>
<path fill="#173E68" d="M207.6,511.517c0.2-2.399,2.3-3.1,4.4-3.1c1.8,0,4.1,0.4,4.1,2.6v4.801c0,0.8,0.1,1.699,0.3,2.1h-2.6
	c-0.1-0.3-0.2-0.6-0.2-0.9c-0.8,0.801-2,1.2-3.1,1.2c-1.8,0-3.1-0.899-3.1-2.8c0-4.2,6.3-2,6.2-4c0-1.1-0.7-1.2-1.7-1.2
	s-1.6,0.4-1.7,1.4h-2.6V511.517z M213.4,513.417c-0.4,0.4-1.3,0.4-2.1,0.5c-0.8,0.2-1.5,0.4-1.5,1.4s0.7,1.199,1.6,1.199
	c2,0,2.1-1.6,2.1-2.1v-1H213.4z"/>
<path fill="#173E68" d="M225.7,508.717h1.9v1.7h-1.9v4.6c0,0.9,0.2,1.101,1.1,1.101c0.3,0,0.6,0,0.8-0.101v2
	c-0.4,0.101-1,0.101-1.5,0.101c-1.6,0-2.9-0.3-2.9-2.2v-5.5h-1.6v-1.7h1.6v-2.8h2.6v2.8H225.7z"/>
<path fill="#173E68" d="M229.2,505.217h2.6v4.8h0.1c0.7-1.1,1.7-1.6,2.7-1.6c2.7,0,3.4,1.5,3.4,3.8v5.7h-2.6v-5.2
	c0-1.5-0.4-2.3-1.6-2.3c-1.4,0-2,0.8-2,2.6v4.9h-2.6V505.217z"/>
<rect x="217.9" y="505.217" fill="#173E68" width="2.6" height="12.8"/>
<rect x="292.46" y="352.272" fill="none" width="289.674" height="36.443"/>
<text transform="matrix(1 0 0 1 292.46 372.2637)" fill="#231F20" font-family="'HelveticaNeueLTPro-Md'" font-size="28">The Originator </text>
<g>
	<rect x="292.46" y="421.87" fill="none" width="299.376" height="82.416"/>
	<text transform="matrix(1 0 0 1 292.46 439.0059)"><tspan x="0" y="0" fill="#333333" font-family="'HelveticaNeueLTPro-Roman'" font-size="24">is responsible for all </tspan><tspan x="0" y="28.8" fill="#333333" font-family="'HelveticaNeueLTPro-Roman'" font-size="24">segregation steps.</tspan></text>
</g>
<path fill="#89C240" d="M202.45,478.39h-95.7c-5.5,0-10-4.5-10-10v-107.9c0-5.5,4.5-10,10-10h95.7c5.5,0,10,4.5,10,10v107.9
	C212.45,473.89,207.95,478.39,202.45,478.39"/>
<g>
	<defs>
		<path id="SVGID_5_" d="M106.75,350.489c-5.5,0-10,4.5-10,10v107.9c0,5.5,4.5,10,10,10h95.7c5.5,0,10-4.5,10-10v-107.9
			c0-5.5-4.5-10-10-10H106.75z"/>
	</defs>
	<clipPath id="SVGID_6_">
		<use xlink:href="#SVGID_5_"  overflow="visible"/>
	</clipPath>
	<path clip-path="url(#SVGID_6_)" fill="#E3CCA4" d="M141.05,408.091h26.1l2.8,32.398c0.2,2.301,2,4,4.2,4h0.5l-6.8,6.4l-13.4,19.5
		l-13.3-19.9l-7-6l1-0.199c2-0.301,3.5-2,3.7-4.1L141.05,408.091z"/>
	<path clip-path="url(#SVGID_6_)" fill="#D4C5A3" d="M154.45,470.489L154.45,470.489l-13.3-19.898l-7-6l1-0.201
		c2-0.299,3.5-2,3.7-4.1l1.9-25.9h13.8v56.1H154.45z"/>
	<path clip-path="url(#SVGID_6_)" fill="#CCBC97" d="M139.45,430.89l29.7,0.1l0.1,1.4c-0.5,0.801-0.8,1.301-1.3,2.1
		c-3.8,5.701-8.8,9.5-13.6,9.5s-9.8-3.898-13.6-9.5c-0.6-0.898-1-1.5-1.5-2.398L139.45,430.89z"/>
	<path clip-path="url(#SVGID_6_)" fill="#ECF0F1" d="M130.35,444.69l6.9-1.301l6.9,2.801c1.2,0.5,2,1.299,2.5,2.5l7.8,17.1l7.8-17.9
		c0.5-1.1,1.4-1.799,2.5-2.299l6.5-2.4l6,1.299l4.4,1.301l7.5,42.801h-69.3l6.5-42.301L130.35,444.69z"/>
	<path clip-path="url(#SVGID_6_)" fill="#2C3E50" d="M196.649,480.989c0.1-15.5-1-31.898-19.1-36.398c1.5,2.898,0.4,5.398,3.3,13.6
		l-13.7-7.6c-4.3,10.398-8.7,20.898-13,31.299l-13-31.299l-13.7,7.6c2.9-8,1.9-10.701,3.2-13.5c-17.4,4.799-18.5,21-18.4,36.199
		c0,4.201,3.4,7.701,7.5,7.701h69.3C193.25,488.591,196.649,485.19,196.649,480.989"/>
	<path clip-path="url(#SVGID_6_)" fill="#7D7662" d="M134.35,429.69c-29.4-47.701,16.5-65.701,18.3-59.1
		c0.5,1.699,0.6,0.898,1.7,0.1c14-9.9,44.6,21.799,20,59.299c-1.6,0.4-3.5,0.801-5.6,1.102l-0.1,0.199c1.8-2.5,3.4-5.4,4.6-8.699
		c0.6-1.9,1.2-4,1.7-6c0.5-2.102,0.8-4.201,1.1-6.201c0.1-0.9,0.1-1.699,0.2-2.6c0-0.801,0.1-1.699,0.1-2.699v-1.701
		c0-0.5,0-1-0.1-1.6c-0.5-4.5-6.6-5.5-13.2-6.6c-7.7-1.301-15.9-2.6-19.2-9.5h-0.1c-3.3,2.799-9.4,8.1-10.7,17.9
		c-0.1,0.898-0.2,1.799-0.2,2.699v2.9c0.7,8.6,3.3,16.199,7.2,21.699C137.85,430.591,135.95,430.19,134.35,429.69"/>
	<path clip-path="url(#SVGID_6_)" fill="#FFE7BD" d="M173.25,422.591c0.6-1.9,1.2-4,1.7-6c0.5-2.102,0.8-4.201,1.1-6.201
		c0.1-0.9,0.1-1.699,0.2-2.6c0-0.801,0.1-1.699,0.1-2.699v-1.701c0-0.5,0-1-0.1-1.6c-0.5-4.5-6.6-5.5-13.2-6.6
		c-7.7-1.301-15.9-2.6-19.2-9.5h-0.1c-3.3,2.799-9.5,8.1-10.7,17.9c-0.1,0.898-0.2,1.799-0.2,2.699v2.9c0.7,8.699,3.4,16.5,7.4,22
		c3.8,5.199,8.8,8.4,14.2,8.4c3.8,0,7.4-1.602,10.6-4.4C168.45,432.19,171.25,427.89,173.25,422.591"/>
	<path clip-path="url(#SVGID_6_)" fill="#E8D6AC" d="M154.45,393.489c-4.6-1.299-8.6-3.5-10.6-7.799h-0.1
		c-3.3,2.799-9.4,8.1-10.7,17.9c-0.1,0.898-0.2,1.799-0.2,2.699v2.9c0.7,8.699,3.4,16.5,7.4,21.9c3.8,5.199,8.8,8.398,14.2,8.398
		V393.489z"/>
</g>
</svg>
