<?xml version="1.0" encoding="utf-8"?>
<!-- Generator: Adobe Illustrator 16.0.3, SVG Export Plug-In . SVG Version: 6.00 Build 0)  -->
<!DOCTYPE svg PUBLIC "-//W3C//DTD SVG 1.1//EN" "http://www.w3.org/Graphics/SVG/1.1/DTD/svg11.dtd">
<svg version="1.1" id="Layer_1" xmlns="http://www.w3.org/2000/svg" xmlns:xlink="http://www.w3.org/1999/xlink" x="0px" y="0px"
	 width="2048px" height="1000px" viewBox="0 0 2048 1000" enable-background="new 0 0 2048 1000" xml:space="preserve">
<rect fill="#B9E5FB" width="2048" height="1000"/>
<g>
	<g>
		<g>
			<polygon fill="#FFFFFF" points="1934.946,942.812 1934.946,496.546 1934.946,300.125 1794.202,159.363 832.101,159.363 
				832.101,942.812 			"/>
			<g>
				<polygon fill="#2C5871" points="1794.202,300.125 1934.946,300.125 1794.202,159.363 				"/>
				<polygon fill="#D1ECFB" points="1934.946,300.125 1794.202,300.125 1934.946,440.863 				"/>
			</g>
		</g>
	</g>
</g>
<rect x="1.5" fill="#4EA8DE" width="689.1" height="1001.818"/>
<rect x="1.5" y="640.118" fill="#116BB4" width="689.1" height="360.601"/>
<g enable-background="new    ">
	<g>
		<defs>
			<rect id="SVGID_1_" x="62.747" y="72.794" width="98.806" height="49.45"/>
		</defs>
		<clipPath id="SVGID_2_">
			<use xlink:href="#SVGID_1_"  overflow="visible"/>
		</clipPath>
		<g clip-path="url(#SVGID_2_)">
			<text transform="matrix(1 0 0 1 62.7471 112.2158)" fill="#FFFFFF" font-family="'HelveticaNeueLTPro-Bd'" font-size="46">Who</text>
		</g>
	</g>
</g>
<line fill="none" stroke="#343636" stroke-width="4" stroke-miterlimit="10" x1="62.7" y1="53.718" x2="668" y2="53.718"/>
<g enable-background="new    ">
	<g>
		<defs>
			<rect id="SVGID_3_" x="742.213" y="72.794" width="96.277" height="49.588"/>
		</defs>
		<clipPath id="SVGID_4_">
			<use xlink:href="#SVGID_3_"  overflow="visible"/>
		</clipPath>
		<g clip-path="url(#SVGID_4_)">
			<text transform="matrix(1 0 0 1 742.2129 112.2158)" fill="#231F20" font-family="'HelveticaNeueLTPro-Md'" font-size="46">How</text>
		</g>
	</g>
</g>
<line fill="none" stroke="#343636" stroke-width="4" stroke-miterlimit="10" x1="742.2" y1="53.718" x2="1996.1" y2="53.718"/>
<g>
	<rect x="1182.577" y="203.654" fill="none" width="631.487" height="132.464"/>
	<text transform="matrix(1 0 0 1 1182.5781 220.7896)"><tspan x="0" y="0" fill="#333333" font-family="'HelveticaNeueLTPro-Roman'" font-size="24">•  Is the NCN received from the Originator complete?</tspan><tspan x="0" y="38.8" fill="#333333" font-family="'HelveticaNeueLTPro-Roman'" font-size="24">•  Is all information needed to perform an evaluation </tspan><tspan x="25" y="67.6" fill="#333333" font-family="'HelveticaNeueLTPro-Roman'" font-size="24">include?</tspan></text>
</g>
<g>
	<rect x="1182.577" y="401.713" fill="none" width="631.487" height="175.494"/>
	<text transform="matrix(1 0 0 1 1182.5781 418.8486)"><tspan x="0" y="0" fill="#333333" font-family="'HelveticaNeueLTPro-Roman'" font-size="24">•  The ORB will meet at least once a month to review, </tspan><tspan x="25" y="28.8" fill="#333333" font-family="'HelveticaNeueLTPro-Roman'" font-size="24">investigate, and disposition all NCNs. </tspan><tspan x="0" y="67.6" fill="#333333" font-family="'HelveticaNeueLTPro-Roman'" font-size="24">•  If a critical NCN is received, the ORB chairperson can </tspan><tspan x="25" y="96.399" fill="#333333" font-family="'HelveticaNeueLTPro-Roman'" font-size="24">schedule an hoc review meeting.</tspan></text>
</g>
<g>
	<rect x="1182.577" y="641.567" fill="none" width="631.487" height="198.646"/>
	<text transform="matrix(1 0 0 1 1182.5781 658.7031)"><tspan x="0" y="0" fill="#333333" font-family="'HelveticaNeueLTPro-Roman'" font-size="24">• The ORB will evaluate the need for and extent of an </tspan><tspan x="25" y="28.8" fill="#333333" font-family="'HelveticaNeueLTPro-Roman'" font-size="24">investigation to determine the underlying root cause(s) </tspan><tspan x="25" y="57.6" fill="#333333" font-family="'HelveticaNeueLTPro-Roman'" font-size="24">of the nonconformance</tspan><tspan x="0" y="96.4" fill="#333333" font-family="'HelveticaNeueLTPro-Roman'" font-size="24">• The decision to not perform or perform an investigation </tspan><tspan x="25" y="125.2" fill="#333333" font-family="'HelveticaNeueLTPro-Roman'" font-size="24">is documented on the IDF</tspan></text>
</g>
<g>
	<g>
		<line fill="none" stroke="#4EA8DE" stroke-width="2" stroke-miterlimit="10" x1="976.675" y1="249.12" x2="976.675" y2="367.24"/>
		<g>
			<polygon fill="#4EA8DE" points="964.404,357.298 966.604,355.251 976.672,366.087 986.744,355.251 988.941,357.298 
				976.672,370.494 			"/>
		</g>
	</g>
</g>
<g>
	<g>
		
			<line fill="none" stroke="#4EA8DE" stroke-width="2" stroke-miterlimit="10" x1="976.675" y1="454.062" x2="976.675" y2="572.182"/>
		<g>
			<polygon fill="#4EA8DE" points="964.404,562.24 966.604,560.193 976.672,571.029 986.744,560.193 988.941,562.24 
				976.672,575.436 			"/>
		</g>
	</g>
</g>
<rect x="860.258" y="200.591" fill="none" width="283.366" height="48.767"/>
<text transform="matrix(1 0 0 1 860.2578 222.0107)" fill="#074164" font-family="'HelveticaNeueLTPro-Bd'" font-size="30">Review NCN</text>
<rect x="860.258" y="399.411" fill="none" width="307.825" height="92.754"/>
<text transform="matrix(1 0 0 1 860.2578 420.8306)" fill="#074164" font-family="'HelveticaNeueLTPro-Bd'" font-size="30">Meeting</text>
<rect x="860.258" y="640.118" fill="none" width="291.326" height="165.934"/>
<text transform="matrix(1 0 0 1 860.2578 661.5391)"><tspan x="0" y="0" fill="#074164" font-family="'HelveticaNeueLTPro-Bd'" font-size="30">Evaluate need for </tspan><tspan x="0" y="36" fill="#074164" font-family="'HelveticaNeueLTPro-Bd'" font-size="30">Investigation </tspan></text>
<path fill="#FFFFFF" d="M593.737,669.931h-525.4c-5.5,0-10-5.853-10-13.005V339.861c0-7.153,4.5-13.005,10-13.005h525.4
	c5.5,0,10,5.852,10,13.005v317.065C603.737,664.078,599.237,669.931,593.737,669.931"/>
<path fill="#EFEFF0" d="M594.838,326.856H258.637v343.075h336.201c4.899,0,8.899-5.202,8.899-11.575V338.431
	C603.737,332.057,599.737,326.856,594.838,326.856"/>
<g>
	<rect x="85" y="564.107" fill="#8CC63F" width="1.2" height="12.8"/>
	<path fill="#8CC63F" d="M88.6,564.107H94c2.1,0,4.1,0.699,4.1,3.1c0,1.3-0.9,2.6-2.2,2.9c1.7,0.199,2.7,1.5,2.7,3.1
		c0,1.2-0.4,3.6-4.6,3.6h-5.4V564.107z M89.8,569.707H94c1.9,0,2.9-1,2.9-2.2c0-1.6-1-2.399-2.9-2.399h-4.2V569.707z M89.8,575.807
		H94c1.8,0,3.4-0.6,3.4-2.6c0-1.7-1.2-2.5-3.4-2.5h-4.2V575.807z"/>
	<polygon fill="#8CC63F" points="100.6,564.107 102.4,564.107 106.8,575.307 111.2,564.107 113,564.107 113,576.907 111.8,576.907 
		111.8,565.807 107.4,576.907 106.2,576.907 101.8,565.807 101.8,576.907 100.6,576.907 	"/>
	<polygon fill="#173E68" points="130.2,576.807 127.4,576.807 125.2,568.107 123.1,576.807 120.2,576.807 116.8,564.007 
		119.6,564.007 121.6,572.707 123.8,564.007 126.4,564.007 128.6,572.807 130.7,564.007 133.5,564.007 	"/>
	<path fill="#173E68" d="M133.9,570.307c0.2-2.399,2.3-3.1,4.4-3.1c1.8,0,4.1,0.4,4.1,2.6v4.801c0,0.8,0.1,1.699,0.3,2.1h-2.6
		c-0.1-0.3-0.2-0.6-0.2-0.9c-0.8,0.801-2,1.2-3.1,1.2c-1.8,0-3.1-0.899-3.1-2.8c0-4.2,6.3-2,6.2-4c0-1.1-0.7-1.2-1.7-1.2
		s-1.6,0.4-1.7,1.4h-2.6V570.307z M139.8,572.207c-0.4,0.4-1.3,0.4-2.1,0.5c-0.8,0.2-1.5,0.4-1.5,1.4s0.7,1.199,1.6,1.199
		c2,0,2.1-1.6,2.1-2.1v-1H139.8z"/>
	<path fill="#173E68" d="M147.5,567.507h1.9v1.7h-1.9v4.6c0,0.9,0.2,1.101,1.1,1.101c0.3,0,0.6,0,0.8-0.101v2
		c-0.4,0.101-1,0.101-1.5,0.101c-1.6,0-2.9-0.3-2.9-2.2v-5.5h-1.6v-1.7h1.6v-2.8h2.6L147.5,567.507z"/>
	<path fill="#173E68" d="M152.6,573.807c0,1.101,1,1.601,2,1.601c0.7,0,1.7-0.3,1.7-1.2c0-0.8-1.1-1.1-2.9-1.4c-1.5-0.3-3-0.8-3-2.5
		c0-2.399,2.1-3,4-3c2,0,3.9,0.7,4.1,3h-2.4c-0.1-1-0.8-1.199-1.7-1.199c-0.6,0-1.4,0.1-1.4,0.899c0,0.9,1.5,1,2.9,1.4
		c1.5,0.3,3,0.899,3,2.6c0,2.4-2.1,3.2-4.2,3.2c-2.1,0-4.3-0.8-4.4-3.3h2.3V573.807z"/>
	<path fill="#173E68" d="M164.6,567.307c2.9,0,4.8,1.9,4.8,4.9s-1.9,4.9-4.8,4.9s-4.8-1.9-4.8-4.9S161.6,567.307,164.6,567.307
		 M164.6,575.107c1.7,0,2.3-1.5,2.3-3s-0.5-3-2.3-3c-1.7,0-2.2,1.5-2.2,3S162.8,575.107,164.6,575.107"/>
	<path fill="#173E68" d="M170.6,567.507h2.4v1.3h0.1c0.7-1.1,1.7-1.6,2.8-1.6c2.7,0,3.4,1.5,3.4,3.8v5.7h-2.6v-5.2
		c0-1.5-0.4-2.3-1.6-2.3c-1.4,0-2,0.8-2,2.6v4.9h-2.6L170.6,567.507z"/>
	<polygon fill="#173E68" points="184.4,564.007 187.2,564.007 187.2,568.907 192.4,568.907 192.4,564.007 195.2,564.007 
		195.2,576.807 192.4,576.807 192.4,571.307 187.2,571.307 187.2,576.807 184.4,576.807 	"/>
	<path fill="#173E68" d="M199.4,572.807c0.1,1.601,0.8,2.4,2.3,2.4c1,0,1.8-0.6,2-1.2h2.2c-0.7,2.2-2.2,3.101-4.3,3.101
		c-2.9,0-4.7-2-4.7-4.9c0-2.8,1.9-4.9,4.7-4.9c3.1,0,4.7,2.601,4.5,5.5H199.4z M203.5,571.107c-0.2-1.301-0.8-2-2-2
		c-1.7,0-2.1,1.199-2.1,2H203.5z"/>
	<path fill="#173E68" d="M207.6,570.307c0.2-2.399,2.3-3.1,4.4-3.1c1.8,0,4.1,0.4,4.1,2.6v4.801c0,0.8,0.1,1.699,0.3,2.1h-2.6
		c-0.1-0.3-0.2-0.6-0.2-0.9c-0.8,0.801-2,1.2-3.1,1.2c-1.8,0-3.1-0.899-3.1-2.8c0-4.2,6.3-2,6.2-4c0-1.1-0.7-1.2-1.7-1.2
		s-1.6,0.4-1.7,1.4h-2.6V570.307z M213.4,572.207c-0.4,0.4-1.3,0.4-2.1,0.5c-0.8,0.2-1.5,0.4-1.5,1.4s0.7,1.199,1.6,1.199
		c2,0,2.1-1.6,2.1-2.1v-1H213.4z"/>
	<path fill="#173E68" d="M225.7,567.507h1.9v1.7h-1.9v4.6c0,0.9,0.2,1.101,1.1,1.101c0.3,0,0.6,0,0.8-0.101v2
		c-0.4,0.101-1,0.101-1.5,0.101c-1.6,0-2.9-0.3-2.9-2.2v-5.5h-1.6v-1.7h1.6v-2.8h2.6v2.8H225.7z"/>
	<path fill="#173E68" d="M229.2,564.007h2.6v4.8h0.1c0.7-1.1,1.7-1.6,2.7-1.6c2.7,0,3.4,1.5,3.4,3.8v5.7h-2.6v-5.2
		c0-1.5-0.4-2.3-1.6-2.3c-1.4,0-2,0.8-2,2.6v4.9h-2.6V564.007z"/>
	<rect x="217.9" y="564.007" fill="#173E68" width="2.6" height="12.8"/>
</g>
<rect x="292.46" y="351.313" fill="none" width="289.674" height="36.443"/>
<text transform="matrix(1 0 0 1 292.46 371.3052)" fill="#231F20" font-family="'HelveticaNeueLTPro-Md'" font-size="28">The ORB Chairperson </text>
<g>
	<rect x="292.46" y="413.257" fill="none" width="299.376" height="247.5"/>
	<text transform="matrix(1 0 0 1 292.46 429.6787)"><tspan x="0" y="0" fill="#333333" font-family="'HelveticaNeueLTPro-Roman'" font-size="23">• is responsible for ensuring </tspan><tspan x="20" y="27.6" fill="#333333" font-family="'HelveticaNeueLTPro-Roman'" font-size="23">the NCN is accurate and </tspan><tspan x="20" y="55.2" fill="#333333" font-family="'HelveticaNeueLTPro-Roman'" font-size="23">complete.</tspan><tspan x="0" y="92.8" fill="#333333" font-family="'HelveticaNeueLTPro-Roman'" font-size="23">• is responsible for having </tspan><tspan x="20" y="120.399" fill="#333333" font-family="'HelveticaNeueLTPro-Roman'" font-size="23">meetings to discuss </tspan><tspan x="20" y="148" fill="#333333" font-family="'HelveticaNeueLTPro-Roman'" font-size="23">nonconforming Offering.</tspan><tspan x="0" y="185.6" fill="#333333" font-family="'HelveticaNeueLTPro-Roman'" font-size="23">• evaluates the need for and </tspan><tspan x="20" y="213.2" fill="#333333" font-family="'HelveticaNeueLTPro-Roman'" font-size="23">extent of an investigation.</tspan></text>
</g>
<path fill="#89C240" d="M202.45,531.811h-95.7c-5.5,0-10-4.5-10-10v-107.9c0-5.5,4.5-10,10-10h95.7c5.5,0,10,4.5,10,10v107.9
	C212.45,527.311,207.95,531.811,202.45,531.811"/>
<g>
	<path fill-rule="evenodd" clip-rule="evenodd" fill="#E3CCA4" d="M141.569,458.763h25.694l2.732,29.229
		c0.19,2.029,1.957,3.587,4.14,3.654l0.489,0.012l-3.259,10.932l-34.137-2.66l-2.518-8.271l0.948-0.133
		c1.987-0.289,3.46-1.779,3.606-3.663L141.569,458.763z"/>
	<path fill-rule="evenodd" clip-rule="evenodd" fill="#D4C5A3" d="M154.604,501.28l-17.375-1.352l-2.518-8.271l0.948-0.133
		c1.987-0.289,3.46-1.779,3.606-3.663l1.639-20.62h13.7V501.28z"/>
	<path fill-rule="evenodd" clip-rule="evenodd" fill="#CCBC97" d="M141.569,458.763h25.694l2.066,22.1
		c-0.471,0.776-0.783,1.217-1.302,1.938c-3.753,5.16-8.631,8.676-13.346,8.676c-4.712,0-9.591-3.516-13.345-8.676
		c-0.581-0.801-0.972-1.375-1.492-2.242L141.569,458.763z"/>
	<path fill-rule="evenodd" clip-rule="evenodd" fill="#2C3E50" d="M154.604,483.785c-6.003,0-12.02-3.882-16.5-9.599
		c-4.415-5.618-7.397-13.063-7.397-20.265v-0.178l0.024-0.085c-0.019-0.477-0.031-0.954-0.031-1.437
		c0-17.276-3.172-31.282,23.904-31.282c27.074,0,23.902,14.005,23.902,31.282c0,0.482-0.012,0.959-0.036,1.437l0.03,0.085v0.178
		c0,7.201-2.984,14.647-7.397,20.265C166.615,479.903,160.601,483.785,154.604,483.785z"/>
	<path fill-rule="evenodd" clip-rule="evenodd" fill="#ECF0F1" d="M158.759,497.687h-8.058l-11.608-8.933l-4.457,2.903
		c-14.256,2.941-25.187,9.244-25.187,18.903c0,4.75,0,9.499,0,14.25c0,3.851,3.362,7,7.482,7h13.92H149.7h10.063h16.451h16.048
		c4.119,0,7.481-3.149,7.481-7l0.006-14.25c0-9.665-10.943-15.962-25.199-18.903l-4.371-2.799L158.759,497.687z"/>
	<polygon fill-rule="evenodd" clip-rule="evenodd" fill="#DAE1E6" points="158.759,497.687 150.702,497.687 139.094,488.754 
		134.637,491.657 157.806,515.671 159.763,531.811 160.776,531.811 158.393,509.489 176.103,491.995 174.55,491.657 
		170.179,488.858 	"/>
	<path fill-rule="evenodd" clip-rule="evenodd" fill="#FFE7BD" d="M138.641,477.384c4.488,5.717,10.326,9.604,15.963,9.604
		c5.629,0,11.468-3.887,15.954-9.604c4.61-5.881,7.74-13.62,7.794-21.109l-1.576-5.955c-0.563-2.127-0.612-4.108-0.649-6.003
		c-0.055-2.47-0.11-4.756-1.565-6.633c-2.329-3.008-6.009-2.03-10.331-0.88c-2.946,0.783-6.144,1.632-9.628,1.632
		c-3.479,0-6.676-0.849-9.623-1.632h-0.013c-4.321-1.149-7.996-2.127-10.331,0.88c-1.449,1.876-1.504,4.163-1.559,6.633
		c-0.037,1.895-0.091,3.876-0.647,6.003l-1.578,5.955C130.908,463.764,134.033,471.503,138.641,477.384z"/>
	<path fill-rule="evenodd" clip-rule="evenodd" fill="#E8D6AC" d="M138.641,477.384c4.488,5.717,10.326,9.604,15.963,9.604v-48.551
		c-3.479,0-6.676-0.849-9.623-1.632h-0.013c-4.321-1.149-7.996-2.127-10.331,0.88c-1.449,1.876-1.504,4.163-1.559,6.633
		c-0.037,1.889-0.091,3.876-0.654,6.003l-1.571,5.955C130.908,463.764,134.033,471.503,138.641,477.384z"/>
	<path fill-rule="evenodd" clip-rule="evenodd" fill="#3D566E" d="M149.7,531.811h10.063c-1.082-8.933-2.17-15.95-3.253-24.882
		c-0.055-0.482,0.08-0.887,0.33-1.32l2.697-6.615c0.164-0.279,0.189-0.586,0.03-0.867c-0.171-0.281-0.464-0.439-0.808-0.439
		c-2.683,0-5.367,0-8.058,0c-0.334,0-0.635,0.158-0.8,0.439s-0.135,0.588,0.024,0.867l2.702,6.615
		c0.251,0.434,0.386,0.838,0.324,1.32C151.87,515.86,150.789,522.878,149.7,531.811z"/>
	<path fill-rule="evenodd" clip-rule="evenodd" fill="#2C3E50" d="M156.51,506.929c-0.055-0.482,0.08-0.887,0.33-1.32l2.697-6.615
		c0.164-0.279,0.189-0.586,0.03-0.867c-0.171-0.281-0.464-0.439-0.808-0.439c-2.683,0-5.367,0-8.058,0
		c-0.341,0-0.635,0.158-0.8,0.439s-0.135,0.588,0.024,0.867l2.696,6.615c0.257,0.434,0.392,0.838,0.33,1.32l-0.402,3.338
		l4.871,4.157L156.51,506.929z"/>
	<polygon fill-rule="evenodd" clip-rule="evenodd" fill="#ECF0F1" points="154.731,497.687 139.094,488.754 134.637,491.657 
		149.981,506.312 	"/>
	<polygon fill-rule="evenodd" clip-rule="evenodd" fill="#ECF0F1" points="154.731,497.687 170.179,488.858 174.625,491.657 
		159.487,506.312 	"/>
	<path fill-rule="evenodd" clip-rule="evenodd" fill="#2C3E50" d="M109.45,510.561c0,4.75,0,9.499,0,14.25c0,3.851,3.362,7,7.482,7
		h36.349l-2.939-5.246c-7.116-12.941-11.249-18.505-15.706-34.907C120.381,494.599,109.45,500.901,109.45,510.561L109.45,510.561z
		 M155.899,531.811h36.362c4.119,0,7.481-3.149,7.481-7l0.006-14.25c0-9.665-10.943-15.962-25.199-18.903
		c-4.408,16.22-8.498,21.838-15.473,34.486L155.899,531.811z"/>
</g>
<g>
	<polygon fill="#F1F2F2" points="858.436,920.641 858.436,833.282 858.436,789.491 889.814,758.106 977.356,758.106 
		977.356,790.529 977.356,833.282 977.356,920.641 	"/>
	<g>
		<polygon fill="#2C5871" points="889.814,789.491 858.436,789.491 889.814,758.106 		"/>
		<polygon fill="#D1ECFB" points="858.436,789.491 889.814,789.491 858.436,820.867 		"/>
	</g>
</g>
<g>
	<g>
		<path fill="#A1B400" d="M1066.543,871.769c-0.012,0.004-0.016,0.016-0.021,0.021c-5.119,5.096-13.402,5.074-18.502-0.039
			l-39.888-40.08c-5.088-5.117-5.069-13.387,0.022-18.479c0.011-0.008,0.018-0.016,0.021-0.022
			c5.124-5.099,13.407-5.081,18.499,0.04l39.895,40.08C1071.65,858.407,1071.639,866.669,1066.543,871.769L1066.543,871.769z"/>
		<path fill="#C2D64C" d="M1060.852,871.519c-1.965,1.959-5.178,1.949-7.148-0.029l-39.889-40.079
			c-1.961-1.974-1.961-5.18,0.007-7.149c1.988-1.978,5.202-1.971,7.17,0.006l39.891,40.08c1.961,1.979,1.961,5.18-0.01,7.154
			L1060.852,871.519z"/>
		<path fill="#0E303F" d="M930.325,735.198c0-0.004,0-0.004,0-0.004c9.693-9.696,22.57-15.02,36.249-14.998
			c28.189,0.053,51.084,23.028,51.033,51.214c-0.022,13.603-5.347,26.41-14.989,36.056c-9.69,9.688-22.556,15.008-36.229,14.989
			c-13.638-0.022-26.466-5.374-36.118-15.056c-9.65-9.686-14.953-22.529-14.928-36.168
			C915.368,757.635,920.685,744.835,930.325,735.198L930.325,735.198z"/>
		<g>
			<path fill="none" d="M998.307,803.137"/>
		</g>
		<path fill="#D1ECFB" d="M939.583,744.438c-7.176,7.176-11.137,16.703-11.16,26.826c-0.04,20.977,16.993,38.076,37.974,38.109
			c10.177,0.018,19.755-3.945,26.982-11.168l0,0c7.174-7.176,11.134-16.695,11.153-26.811c0.018-10.144-3.933-19.7-11.118-26.912
			c-7.185-7.213-16.728-11.189-26.878-11.208C956.375,733.261,946.8,737.223,939.583,744.438L939.583,744.438z"/>
		<path fill="#F1F2F2" d="M993.415,744.483c-7.185-7.213-16.728-11.189-26.878-11.208c-2.857-0.004-5.666,0.315-8.391,0.925
			c-4.142,1.871-7.958,4.486-11.274,7.811c-7.178,7.172-11.136,16.699-11.154,26.824c-0.041,20.973,16.997,38.072,37.974,38.113
			c2.858,0.004,5.672-0.316,8.397-0.924c4.148-1.879,7.973-4.498,11.292-7.818l0,0c7.174-7.176,11.134-16.695,11.153-26.811
			C1004.551,761.252,1000.6,751.695,993.415,744.483z"/>
		<g>
			<path fill="#0E303F" d="M1013.299,818.548c-2.556,2.551-6.697,2.539-9.249-0.021l-8.146-8.408
				c-2.546-2.561-2.542-6.691,0.008-9.242c0,0,0.011-0.004,0.015-0.011c2.559-2.546,6.695-2.542,9.249,0.022l8.146,8.412
				c2.544,2.553,2.541,6.688-0.009,9.237C1013.312,818.537,1013.3,818.544,1013.299,818.548z"/>
		</g>
		<g>
			<path fill="#2C5871" d="M966.568,723.088c26.596,0.051,48.195,21.729,48.147,48.319c-0.027,12.844-5.05,24.92-14.144,34.016
				c-9.113,9.119-21.216,14.139-34.083,14.139c-0.029,0-0.061,0-0.09,0l0.011-6.436c0.025,0,0.055,0,0.079,0
				c11.148,0,21.631-4.352,29.529-12.257c7.885-7.88,12.239-18.347,12.263-29.474c0.041-23.043-18.677-41.825-41.725-41.873
				L966.568,723.088L966.568,723.088z"/>
		</g>
	</g>
</g>
</svg>
