<?xml version="1.0" encoding="utf-8"?>
<!-- Generator: Adobe Illustrator 16.0.3, SVG Export Plug-In . SVG Version: 6.00 Build 0)  -->
<!DOCTYPE svg PUBLIC "-//W3C//DTD SVG 1.1//EN" "http://www.w3.org/Graphics/SVG/1.1/DTD/svg11.dtd">
<svg version="1.1" id="Layer_1" xmlns="http://www.w3.org/2000/svg" xmlns:xlink="http://www.w3.org/1999/xlink" x="0px" y="0px"
	 width="2048px" height="1000px" viewBox="0 0 2048 1000" enable-background="new 0 0 2048 1000" xml:space="preserve">
<rect fill="#B9E5FB" width="2048" height="1000"/>
<rect fill="#4EA8DE" width="1012.917" height="1000"/>
<path fill="#FFFFFF" d="M824.53,872.426c0,13.732-11.133,24.866-24.866,24.866H232.78c-13.734,0-24.867-11.134-24.867-24.866
	V304.361c0-13.734,11.133-24.867,24.867-24.867h566.884c13.733,0,24.866,11.133,24.866,24.867V872.426z"/>
<path fill="#EFEFF0" d="M824.53,939.935c0,9.374-11.133,16.975-24.866,16.975H232.78c-13.734,0-24.867-7.601-24.867-16.975V552.152
	H824.53V939.935z"/>
<g>
	<g>
		<g>
			<polygon fill="#FFFFFF" points="1934.604,937.41 1934.604,631.751 1934.604,435.33 1779.607,294.568 1238.908,294.568 
				1238.908,937.41 			"/>
			<g>
				<polygon fill="#2C5871" points="1779.607,435.33 1934.604,435.33 1779.607,294.568 				"/>
				<polygon fill="#D1ECFB" points="1934.604,435.33 1779.607,435.33 1934.604,576.067 				"/>
			</g>
		</g>
	</g>
</g>
<line fill="none" stroke="#343636" stroke-width="3.5217" stroke-miterlimit="10" x1="1053.062" y1="216.43" x2="2025.023" y2="216.43"/>
<g>
	<path fill="#89C240" d="M559.641,504.432H435.243c-7.149,0-12.999-5.85-12.999-13V351.176c0-7.149,5.849-12.999,12.999-12.999
		h124.398c7.149,0,12.999,5.849,12.999,12.999v140.256C572.64,498.582,566.791,504.432,559.641,504.432"/>
	<g>
		<path fill="#666666" d="M477.474,427.073l0.165,0.247L477.474,427.073z"/>
		<polygon fill="#666666" points="473.448,418.946 473.469,419.021 473.469,419.021 		"/>
		<polygon fill="#666666" points="471.891,414.422 471.908,414.483 471.908,414.483 		"/>
		<polygon fill="#666666" points="470.601,409.198 470.691,409.651 470.691,409.651 		"/>
		<path fill="#666666" d="M469.424,400.693v0.063V400.693z"/>
		<polygon fill="#666666" points="469.424,400.33 469.424,400.392 469.424,400.392 469.424,400.448 469.424,400.51 469.424,400.448 
			469.424,400.448 469.424,400.392 		"/>
		<path fill="#666666" d="M469.424,400.21v0.064V400.21z"/>
		<polygon fill="#666666" points="469.403,400.031 469.424,400.094 469.424,400.031 		"/>
		<polygon fill="#666666" points="469.403,399.439 469.403,399.559 469.403,399.559 469.403,399.615 469.403,399.559 
			469.403,399.495 469.403,399.495 		"/>
		<polygon fill="#666666" points="469.424,397.925 469.424,397.981 469.424,397.981 469.424,398.035 469.424,397.981 		"/>
		<polygon fill="#666666" points="469.44,397.581 469.424,397.635 469.424,397.635 469.424,397.691 469.424,397.635 		"/>
		<polygon fill="#666666" points="469.44,397.354 469.44,397.41 469.44,397.41 469.44,397.462 469.44,397.41 		"/>
		<polygon fill="#666666" points="469.459,397.127 469.459,397.184 469.459,397.184 469.44,397.234 469.44,397.302 469.44,397.234 
			469.44,397.234 469.459,397.184 		"/>
		<polygon fill="#666666" points="469.478,396.773 469.459,396.837 469.459,396.837 469.459,396.894 469.459,396.946 
			469.459,396.946 469.459,397.009 469.459,397.066 469.459,397.009 469.459,397.009 469.459,396.946 469.459,396.894 
			469.459,396.894 469.459,396.837 		"/>
		<polygon fill="#666666" points="469.478,396.538 469.478,396.602 469.478,396.549 		"/>
		<path fill="#666666" d="M469.514,396.193v0.063V396.193z"/>
		<path fill="#666666" d="M469.514,395.965v0.063V395.965z"/>
		<path fill="#666666" d="M469.53,395.742v0.062V395.742z"/>
		<path fill="#666666" d="M469.586,395.188v0.054V395.188z"/>
		<path fill="#666666" d="M469.604,395.078l-0.017,0.054L469.604,395.078z"/>
		<polygon fill="#666666" points="469.639,394.745 469.624,394.797 469.624,394.797 		"/>
		<polygon fill="#666666" points="469.658,394.363 469.658,394.419 469.658,394.419 		"/>
		<polygon fill="#666666" points="469.695,394.089 469.695,394.146 469.695,394.146 		"/>
		<polygon fill="#666666" points="469.714,393.936 469.714,393.99 469.714,393.99 		"/>
		<polygon fill="#666666" points="487.869,375.417 487.813,375.373 487.813,375.373 		"/>
		<polygon fill="#666666" points="522.057,418.584 522.164,418.257 522.164,418.257 		"/>
		<path fill="#666666" d="M521.676,419.537c0.108-0.291,0.235-0.581,0.344-0.88C521.911,418.957,521.784,419.247,521.676,419.537z"
			/>
		<path fill="#E3CCA4" d="M480.267,399.349l34.083,0.019l3.609,42.248c0.254,2.939,2.594,5.196,5.476,5.29l0.655,0.028
			l-6.858,14.844l-19.589,18.979l-22-21.644l-4.5-12.207l1.252-0.198c2.646-0.417,4.591-2.568,4.79-5.288L480.267,399.349z"/>
		<path fill="#D4C5A3" d="M497.643,480.76L497.643,480.76l-18.683-12.607l-7.816-21.248l1.25-0.198
			c2.646-0.417,4.589-2.568,4.79-5.288l2.484-33.855h18.01L497.643,480.76z"/>
		<path fill="#CCBC97" d="M478.092,429.049l38.814,0.209l0.143,1.812c-0.635,1.106-1.015,1.717-1.705,2.74
			c-4.988,7.39-11.46,12.422-17.702,12.422c-6.258,0-12.733-5.042-17.701-12.434c-0.779-1.149-1.273-1.941-1.96-3.189
			L478.092,429.049z"/>
		<path fill="#ECF0F1" d="M475.228,445.4c13.582,13.295,27.821,15.842,44.363-0.19c4.515,0.969,9.341,1.703,13.495,3.419
			c18.972,8.036,19.75,28.014,19.679,45.806c-0.036,5.515-4.443,10.003-9.865,9.993l-90.414-0.029
			c-5.424-0.006-9.851-4.497-9.866-10.011c-0.056-18.063,1.087-37.2,18.392-45.214C466.012,446.959,469.949,446.407,475.228,445.4z"
			/>
		<path fill="#2C3E50" d="M471.474,427.563c-38.344-62.256,21.619-85.791,23.938-77.175c0.599,2.231,0.726,1.188,2.179,0.172
			c18.318-12.877,58.166,28.521,26.063,77.34c-2.052,0.554-4.517,1.041-7.309,1.434l-0.165,0.225
			c2.357-3.219,4.391-7.035,5.984-11.299h0.017c0.837-2.495,1.599-5.149,2.215-7.87c0.6-2.675,1.089-5.414,1.398-8.09h0.019
			c0.108-1.106,0.182-2.231,0.252-3.384c0.036-1.044,0.073-2.213,0.073-3.479c0-0.934-0.017-1.669-0.017-2.214
			c-0.021-0.606-0.056-1.299-0.11-2.04c-0.707-5.858-8.632-7.191-17.156-8.608c-10.016-1.66-20.73-3.444-25.032-12.415l-0.073,0.056
			c-4.299,3.717-12.333,10.618-13.983,23.351c-0.146,1.126-0.254,2.313-0.309,3.567c-0.054,1.194-0.073,2.456-0.017,3.743l0,0
			c0.85,11.227,4.335,21.158,9.448,28.304C475.987,428.724,473.483,428.178,471.474,427.563z"/>
		<path fill="#FFE7BD" d="M522.185,418.257c0.834-2.493,1.594-5.151,2.212-7.871c0.601-2.674,1.089-5.415,1.415-8.089l0,0
			c0.108-1.106,0.182-2.231,0.252-3.382c0.036-1.044,0.073-2.214,0.073-3.481c0-0.936-0.017-1.67-0.017-2.216
			c-0.021-0.607-0.056-1.297-0.11-2.039c-0.707-5.86-8.632-7.193-17.156-8.608c-10.016-1.661-20.73-3.444-25.032-12.413
			l-0.073,0.054c-4.299,3.708-12.333,10.618-13.983,23.353c-0.146,1.125-0.254,2.313-0.309,3.564
			c-0.054,1.196-0.073,2.457-0.017,3.745l0,0c0.871,11.408,4.439,21.483,9.703,28.648h0.019
			c4.968,6.811,11.462,10.946,18.496,10.953c5.009,0,9.724-2.085,13.825-5.722l0,0c4.406-3.916,8.106-9.623,10.68-16.495h0.023
			V418.257z"/>
		<path fill="#E8D6AC" d="M497.699,380.288c-5.986-1.714-11.172-4.516-13.875-10.129l-0.073,0.054
			c-4.297,3.708-12.333,10.618-13.983,23.353c-0.144,1.125-0.254,2.313-0.309,3.564c-0.056,1.196-0.074,2.457-0.017,3.745l0,0
			c0.871,11.408,4.441,21.483,9.701,28.648h0.021c4.986,6.811,11.464,10.946,18.498,10.953L497.699,380.288z"/>
		<path fill="#DAE1E6" d="M471.144,446.115c3.63,7.019,13.477,15.273,26.083,15.281c11.973,0,21.875-8.116,26.1-15.224l0,0
			c-4.226,8.071-13.82,16.561-26.1,16.561C484.947,462.721,474.773,454.096,471.144,446.115L471.144,446.115z"/>
		<path fill="#DAE1E6" d="M472.813,445.303c5.787,14.39,14.382,34.66,24.83,43.654c11.41-11.851,20.495-30.214,24.632-43.737
			c4.533,0.962,9.358,1.696,13.512,3.41l0.035,0.012l0,0c18.521,7.67,17.014,27.212,16.943,45.795
			c-0.036,5.515-4.443,10.003-9.865,9.994l-90.414-0.028c-5.424-0.008-9.851-4.498-9.866-10.012
			c-0.056-18.064-1.325-37.29,15.96-45.306v-0.009l0.036-0.008C463.545,446.787,467.426,446.336,472.813,445.303z"/>
		<path fill="#999999" d="M472.796,445.2c5.786,14.391,14.399,34.759,24.847,43.756c11.41-11.852,20.458-30.308,24.612-43.838
			c1.378,0.301,2.722,0.535,4.135,0.817c-4.099,14.629-17.992,40.897-28.747,49.169c-10.012-3.653-22.039-29.245-28.419-49.233
			C470.328,445.671,471.563,445.436,472.796,445.2z"/>
	</g>
</g>
<g>
	<g>
		<path fill="#333333" d="M1284.503,376.534c3.96,0,7.159,3.16,7.159,7.119c0,3.959-3.199,7.159-7.159,7.159
			c-3.959,0-7.118-3.2-7.118-7.159C1277.385,379.694,1280.544,376.534,1284.503,376.534z"/>
		<path fill="#333333" d="M1315.224,372.575h-9.519v-3.199h22.836v3.199h-9.519v25.356h-3.799V372.575z"/>
		<path fill="#333333" d="M1331.145,369.375h3.399v10.918h0.08c1.08-2.52,4.079-3.519,6.519-3.519c5.439,0,7.119,3.119,7.119,7.559
			v13.598h-3.399v-13.998c0-2.56-1.6-4.159-4.199-4.159c-4.119,0-6.119,2.759-6.119,6.479v11.678h-3.399V369.375z"/>
		<path fill="#333333" d="M1371.021,391.372c-0.92,4.6-4.159,7.039-8.838,7.039c-6.6,0-9.719-4.599-9.919-10.878
			c0-6.239,4.08-10.758,9.719-10.758c7.318,0,9.559,6.839,9.358,11.838h-15.478c-0.12,3.599,1.92,6.799,6.439,6.799
			c2.839,0,4.759-1.32,5.358-4.04H1371.021z M1367.742,385.613c-0.2-3.24-2.56-5.839-5.959-5.839c-3.52,0-5.719,2.639-5.919,5.839
			H1367.742z"/>
		<path fill="#333333" d="M1386.704,369.375h3.8v28.555h-3.8V369.375z"/>
		<path fill="#333333" d="M1396.344,377.254h3.199v3.28h0.08c1.439-2.56,3.72-3.759,6.719-3.759c5.439,0,7.119,3.119,7.119,7.559
			v13.598h-3.399v-13.998c0-2.56-1.6-4.159-4.199-4.159c-4.119,0-6.119,2.759-6.119,6.479v11.678h-3.399V377.254z"/>
		<path fill="#333333" d="M1420.664,391.412c0.119,3.04,2.799,4,5.559,4c2.12,0,4.999-0.48,4.999-3.08
			c0-5.319-13.518-1.72-13.518-9.678c0-4.159,4.079-5.879,7.719-5.879c4.64,0,8.158,1.439,8.479,6.479h-3.399
			c-0.2-2.639-2.6-3.479-4.799-3.479c-2.04,0-4.399,0.56-4.399,2.639c0,2.4,3.6,2.88,6.759,3.6c3.399,0.76,6.759,1.919,6.759,5.879
			c0,4.959-4.6,6.519-8.799,6.519c-4.639,0-8.559-1.88-8.758-6.999H1420.664z"/>
		<path fill="#333333" d="M1443.303,377.254h4.12v3h-4.12v12.838c0,1.6,0.44,1.84,2.56,1.84h1.561v3h-2.6
			c-3.52,0-4.92-0.72-4.92-4.519v-13.158h-3.519v-3h3.519v-6.199h3.399V377.254z"/>
		<path fill="#333333" d="M1469.501,397.851c-0.601,0.36-1.44,0.56-2.44,0.56c-1.76,0-2.879-0.96-2.879-3.2
			c-1.88,2.24-4.399,3.2-7.279,3.2c-3.759,0-6.839-1.64-6.839-5.799c0-4.679,3.479-5.719,6.999-6.359
			c3.72-0.76,6.959-0.44,6.959-3.039c0-3-2.479-3.439-4.6-3.439c-2.879,0-4.999,0.88-5.159,3.919h-3.399
			c0.2-5.119,4.12-6.918,8.759-6.918c3.72,0,7.759,0.84,7.759,5.679v10.638c0,1.6,0,2.32,1.08,2.32c0.319,0,0.68-0.08,1.04-0.2
			V397.851z M1463.981,387.252c-2.64,1.959-10.318,0.04-10.318,5.119c0,2.24,1.92,3.04,3.999,3.04c4.479,0,6.319-2.76,6.319-4.679
			V387.252z"/>
		<path fill="#333333" d="M1472.863,369.375h3.399v28.555h-3.399V369.375z"/>
		<path fill="#333333" d="M1481.743,369.375h3.399v28.555h-3.399V369.375z"/>
		<path fill="#333333" d="M1508.059,391.372c-0.92,4.6-4.159,7.039-8.838,7.039c-6.6,0-9.719-4.599-9.919-10.878
			c0-6.239,4.08-10.758,9.719-10.758c7.318,0,9.559,6.839,9.358,11.838h-15.478c-0.12,3.599,1.92,6.799,6.439,6.799
			c2.839,0,4.759-1.32,5.358-4.04H1508.059z M1504.779,385.613c-0.2-3.24-2.56-5.839-5.959-5.839c-3.52,0-5.719,2.639-5.919,5.839
			H1504.779z"/>
		<path fill="#333333" d="M1511.781,377.254h3.199v4.359h0.08c1.64-3.359,3.92-4.959,7.599-4.839v3.599
			c-5.479,0-7.479,3.08-7.479,8.359v9.198h-3.399V377.254z"/>
		<path fill="#333333" d="M1553.458,397.931h-3.199v-3.279h-0.08c-1.44,2.56-3.72,3.759-6.719,3.759
			c-5.439,0-7.119-3.12-7.119-7.559v-13.598h3.399v13.998c0,2.56,1.6,4.159,4.199,4.159c4.119,0,6.119-2.76,6.119-6.479v-11.678
			h3.399V397.931z"/>
		<path fill="#333333" d="M1560.661,391.412c0.119,3.04,2.799,4,5.559,4c2.12,0,4.999-0.48,4.999-3.08
			c0-5.319-13.518-1.72-13.518-9.678c0-4.159,4.079-5.879,7.719-5.879c4.64,0,8.158,1.439,8.479,6.479h-3.399
			c-0.2-2.639-2.6-3.479-4.799-3.479c-2.04,0-4.399,0.56-4.399,2.639c0,2.4,3.6,2.88,6.759,3.6c3.399,0.76,6.759,1.919,6.759,5.879
			c0,4.959-4.6,6.519-8.799,6.519c-4.639,0-8.559-1.88-8.758-6.999H1560.661z"/>
		<path fill="#333333" d="M1596.218,391.372c-0.92,4.6-4.159,7.039-8.838,7.039c-6.6,0-9.719-4.599-9.919-10.878
			c0-6.239,4.08-10.758,9.719-10.758c7.318,0,9.559,6.839,9.358,11.838h-15.478c-0.12,3.599,1.92,6.799,6.439,6.799
			c2.839,0,4.759-1.32,5.358-4.04H1596.218z M1592.938,385.613c-0.2-3.24-2.56-5.839-5.959-5.839c-3.52,0-5.719,2.639-5.919,5.839
			H1592.938z"/>
		<path fill="#333333" d="M1602.141,391.412c0.119,3.04,2.799,4,5.559,4c2.12,0,4.999-0.48,4.999-3.08
			c0-5.319-13.518-1.72-13.518-9.678c0-4.159,4.079-5.879,7.719-5.879c4.64,0,8.158,1.439,8.479,6.479h-3.399
			c-0.2-2.639-2.6-3.479-4.799-3.479c-2.04,0-4.399,0.56-4.399,2.639c0,2.4,3.6,2.88,6.759,3.6c3.399,0.76,6.759,1.919,6.759,5.879
			c0,4.959-4.6,6.519-8.799,6.519c-4.639,0-8.559-1.88-8.758-6.999H1602.141z"/>
		<path fill="#333333" d="M1635.899,377.254h4.12v3h-4.12v12.838c0,1.6,0.44,1.84,2.56,1.84h1.561v3h-2.6
			c-3.52,0-4.92-0.72-4.92-4.519v-13.158h-3.519v-3h3.519v-6.199h3.399V377.254z"/>
		<path fill="#333333" d="M1643.78,369.375h3.399v10.918h0.08c1.08-2.52,4.079-3.519,6.519-3.519c5.439,0,7.119,3.119,7.119,7.559
			v13.598h-3.399v-13.998c0-2.56-1.6-4.159-4.199-4.159c-4.119,0-6.119,2.759-6.119,6.479v11.678h-3.399V369.375z"/>
		<path fill="#333333" d="M1683.657,391.372c-0.92,4.6-4.159,7.039-8.838,7.039c-6.6,0-9.719-4.599-9.919-10.878
			c0-6.239,4.08-10.758,9.719-10.758c7.318,0,9.559,6.839,9.358,11.838H1668.5c-0.12,3.599,1.92,6.799,6.439,6.799
			c2.839,0,4.759-1.32,5.358-4.04H1683.657z M1680.378,385.613c-0.2-3.24-2.56-5.839-5.959-5.839c-3.52,0-5.719,2.639-5.919,5.839
			H1680.378z"/>
		<path fill="#333333" d="M1321.103,433.893c-0.521-2.6-2.28-4.119-5.119-4.119c-4.92,0-6.439,3.919-6.439,8.079
			c0,3.839,1.72,7.559,6.039,7.559c3.319,0,5.239-1.88,5.679-5.039h3.479c-0.76,5.079-3.879,8.039-9.118,8.039
			c-6.319,0-9.679-4.359-9.679-10.558c0-6.199,3.2-11.078,9.759-11.078c4.719,0,8.398,2.199,8.918,7.119H1321.103z"/>
		<path fill="#333333" d="M1345.661,447.931h-3.199v-3.279h-0.08c-1.44,2.56-3.72,3.759-6.719,3.759
			c-5.439,0-7.119-3.12-7.119-7.559v-13.598h3.399v13.998c0,2.56,1.6,4.159,4.199,4.159c4.119,0,6.119-2.76,6.119-6.479v-11.678
			h3.399V447.931z"/>
		<path fill="#333333" d="M1350.664,427.254h3.199v4.359h0.08c1.64-3.359,3.92-4.959,7.599-4.839v3.599
			c-5.479,0-7.479,3.08-7.479,8.359v9.198h-3.399V427.254z"/>
		<path fill="#333333" d="M1363.983,427.254h3.199v4.359h0.08c1.64-3.359,3.92-4.959,7.599-4.839v3.599
			c-5.479,0-7.479,3.08-7.479,8.359v9.198h-3.399V427.254z"/>
		<path fill="#333333" d="M1395.06,441.372c-0.92,4.6-4.159,7.039-8.838,7.039c-6.6,0-9.719-4.599-9.919-10.878
			c0-6.239,4.08-10.758,9.719-10.758c7.318,0,9.559,6.839,9.358,11.838h-15.478c-0.12,3.599,1.92,6.799,6.439,6.799
			c2.839,0,4.759-1.32,5.358-4.04H1395.06z M1391.78,435.613c-0.2-3.24-2.56-5.839-5.959-5.839c-3.52,0-5.719,2.639-5.919,5.839
			H1391.78z"/>
		<path fill="#333333" d="M1398.902,427.254h3.199v3.28h0.08c1.439-2.56,3.72-3.759,6.719-3.759c5.439,0,7.119,3.119,7.119,7.559
			v13.598h-3.399v-13.998c0-2.56-1.6-4.159-4.199-4.159c-4.119,0-6.119,2.759-6.119,6.479v11.678h-3.399V427.254z"/>
		<path fill="#333333" d="M1425.861,427.254h4.12v3h-4.12v12.838c0,1.6,0.44,1.84,2.56,1.84h1.561v3h-2.6
			c-3.52,0-4.92-0.72-4.92-4.519v-13.158h-3.519v-3h3.519v-6.199h3.399V427.254z"/>
		<path fill="#333333" d="M1434.502,443.491h4.439v4.04c0,3.04-1.32,5.359-4.399,6.279v-2c1.76-0.64,2.439-2.56,2.319-3.879h-2.359
			V443.491z"/>
		<path fill="#333333" d="M1474.3,447.851c-0.601,0.36-1.44,0.56-2.44,0.56c-1.76,0-2.879-0.96-2.879-3.2
			c-1.88,2.24-4.399,3.2-7.279,3.2c-3.759,0-6.839-1.64-6.839-5.799c0-4.679,3.479-5.719,6.999-6.359
			c3.72-0.76,6.959-0.44,6.959-3.039c0-3-2.479-3.439-4.6-3.439c-2.879,0-4.999,0.88-5.159,3.919h-3.399
			c0.2-5.119,4.12-6.918,8.759-6.918c3.72,0,7.759,0.84,7.759,5.679v10.638c0,1.6,0,2.32,1.08,2.32c0.319,0,0.68-0.08,1.04-0.2
			V447.851z M1468.78,437.252c-2.64,1.959-10.318,0.04-10.318,5.119c0,2.24,1.92,3.04,3.999,3.04c4.479,0,6.319-2.76,6.319-4.679
			V437.252z"/>
		<path fill="#333333" d="M1477.582,427.254h3.399v2.8h0.08c1.119-2.28,3.719-3.279,6.599-3.279c6.359,0,9.519,5.039,9.519,10.878
			c0,5.879-3.119,10.758-9.438,10.758c-2.08,0-5.199-0.8-6.679-3.24h-0.08v10.678h-3.399V427.254z M1487.181,429.774
			c-4.6,0-6.319,3.959-6.319,7.798c0,4.04,1.84,7.839,6.519,7.839c4.64,0,6.199-3.959,6.199-7.999
			C1493.579,433.533,1491.579,429.774,1487.181,429.774z"/>
		<path fill="#333333" d="M1501.302,427.254h3.399v2.8h0.08c1.119-2.28,3.719-3.279,6.599-3.279c6.359,0,9.519,5.039,9.519,10.878
			c0,5.879-3.119,10.758-9.438,10.758c-2.08,0-5.199-0.8-6.679-3.24h-0.08v10.678h-3.399V427.254z M1510.9,429.774
			c-4.6,0-6.319,3.959-6.319,7.798c0,4.04,1.84,7.839,6.519,7.839c4.64,0,6.199-3.959,6.199-7.999
			C1517.299,433.533,1515.299,429.774,1510.9,429.774z"/>
		<path fill="#333333" d="M1524.781,427.254h3.199v4.359h0.08c1.64-3.359,3.92-4.959,7.599-4.839v3.599
			c-5.479,0-7.479,3.08-7.479,8.359v9.198h-3.399V427.254z"/>
		<path fill="#333333" d="M1547.14,426.774c6.559,0,10.038,4.759,10.038,10.838c0,6.039-3.479,10.798-10.038,10.798
			c-6.56,0-10.039-4.759-10.039-10.798C1537.101,431.533,1540.58,426.774,1547.14,426.774z M1547.14,445.411
			c3.559,0,6.438-2.8,6.438-7.799s-2.88-7.838-6.438-7.838c-3.56,0-6.439,2.839-6.439,7.838S1543.58,445.411,1547.14,445.411z"/>
		<path fill="#333333" d="M1570.499,447.931h-3.64l-7.679-20.677h3.8l5.799,17.237h0.08l5.639-17.237h3.56L1570.499,447.931z"/>
		<path fill="#333333" d="M1598.817,441.372c-0.92,4.6-4.159,7.039-8.838,7.039c-6.6,0-9.719-4.599-9.919-10.878
			c0-6.239,4.08-10.758,9.719-10.758c7.318,0,9.559,6.839,9.358,11.838h-15.478c-0.12,3.599,1.92,6.799,6.439,6.799
			c2.839,0,4.759-1.32,5.358-4.04H1598.817z M1595.538,435.613c-0.2-3.24-2.56-5.839-5.959-5.839c-3.52,0-5.719,2.639-5.919,5.839
			H1595.538z"/>
		<path fill="#333333" d="M1621.137,447.931h-3.399v-2.799h-0.08c-1.119,2.279-3.719,3.279-6.599,3.279
			c-6.358,0-9.519-5.039-9.519-10.878c0-5.839,3.12-10.758,9.438-10.758c2.08,0,5.199,0.8,6.679,3.239h0.08v-10.638h3.399V447.931z
			 M1611.539,445.411c4.599,0,6.318-3.959,6.318-7.799c0-4.039-1.84-7.838-6.519-7.838c-4.64,0-6.199,3.959-6.199,7.999
			C1605.14,441.652,1607.14,445.411,1611.539,445.411z"/>
		<path fill="#333333" d="M1650.138,418.696c9.079,0,13.678,7.159,13.678,14.957c0,7.799-4.599,14.958-13.678,14.958
			c-9.078,0-13.678-7.159-13.678-14.958C1636.46,425.854,1641.06,418.696,1650.138,418.696z M1650.138,445.411
			c6.959,0,9.879-5.999,9.879-11.758c0-5.759-2.92-11.758-9.879-11.758s-9.878,5.999-9.878,11.758
			C1640.26,439.412,1643.179,445.411,1650.138,445.411z"/>
		<path fill="#333333" d="M1669.299,430.253h-3.479v-3h3.479v-3.079c0-3.359,2-5.119,5.72-5.119c0.64,0,1.56,0.12,2.199,0.32v2.959
			c-0.6-0.2-1.319-0.28-1.92-0.28c-1.64,0-2.6,0.52-2.6,2.319v2.879h4v3h-4v17.677h-3.399V430.253z"/>
		<path fill="#333333" d="M1681.139,430.253h-3.479v-3h3.479v-3.079c0-3.359,2-5.119,5.72-5.119c0.64,0,1.56,0.12,2.199,0.32v2.959
			c-0.6-0.2-1.319-0.28-1.92-0.28c-1.64,0-2.6,0.52-2.6,2.319v2.879h4v3h-4v17.677h-3.399V430.253z"/>
		<path fill="#333333" d="M1709.216,441.372c-0.92,4.6-4.159,7.039-8.838,7.039c-6.6,0-9.719-4.599-9.919-10.878
			c0-6.239,4.08-10.758,9.719-10.758c7.318,0,9.559,6.839,9.358,11.838h-15.478c-0.12,3.599,1.92,6.799,6.439,6.799
			c2.839,0,4.759-1.32,5.358-4.04H1709.216z M1705.937,435.613c-0.2-3.24-2.56-5.839-5.959-5.839c-3.52,0-5.719,2.639-5.919,5.839
			H1705.937z"/>
		<path fill="#333333" d="M1712.938,427.254h3.199v4.359h0.08c1.64-3.359,3.92-4.959,7.599-4.839v3.599
			c-5.479,0-7.479,3.08-7.479,8.359v9.198h-3.399V427.254z"/>
		<path fill="#333333" d="M1729.978,423.535h-3.399v-4.159h3.399V423.535z M1726.578,427.254h3.399v20.677h-3.399V427.254z"/>
		<path fill="#333333" d="M1735.258,427.254h3.199v3.28h0.08c1.439-2.56,3.72-3.759,6.719-3.759c5.439,0,7.119,3.119,7.119,7.559
			v13.598h-3.399v-13.998c0-2.56-1.6-4.159-4.199-4.159c-4.119,0-6.119,2.759-6.119,6.479v11.678h-3.399V427.254z"/>
		<path fill="#333333" d="M1775.335,446.171c0,6.759-3.039,10.158-9.599,10.158c-3.879,0-8.358-1.6-8.559-6.079h3.399
			c0.12,2.439,3.16,3.359,5.359,3.359c4.439,0,6.199-3.2,6.199-7.839v-1.36h-0.08c-1.16,2.52-3.8,3.759-6.439,3.759
			c-6.158,0-9.238-4.839-9.238-10.478c0-4.879,2.36-10.918,9.559-10.918c2.6,0,4.919,1.16,6.159,3.439h0.04v-2.96h3.199V446.171z
			 M1771.976,437.172c0-3.639-1.6-7.398-5.879-7.398c-4.359,0-6.119,3.559-6.119,7.519c0,3.719,1.359,7.878,5.839,7.878
			S1771.976,441.052,1771.976,437.172z"/>
		<path fill="#333333" d="M1316.383,497.931h-3.64l-7.679-20.677h3.8l5.799,17.237h0.08l5.639-17.237h3.56L1316.383,497.931z"/>
		<path fill="#333333" d="M1344.701,491.372c-0.92,4.6-4.159,7.039-8.838,7.039c-6.6,0-9.719-4.599-9.919-10.878
			c0-6.239,4.08-10.758,9.719-10.758c7.318,0,9.559,6.839,9.358,11.838h-15.478c-0.12,3.599,1.92,6.799,6.439,6.799
			c2.839,0,4.759-1.32,5.358-4.04H1344.701z M1341.422,485.613c-0.2-3.24-2.56-5.839-5.959-5.839c-3.52,0-5.719,2.639-5.919,5.839
			H1341.422z"/>
		<path fill="#333333" d="M1348.424,477.254h3.199v4.359h0.08c1.64-3.359,3.92-4.959,7.599-4.839v3.599
			c-5.479,0-7.479,3.08-7.479,8.359v9.198h-3.399V477.254z"/>
		<path fill="#333333" d="M1363.943,491.412c0.119,3.04,2.799,4,5.559,4c2.12,0,4.999-0.48,4.999-3.08
			c0-5.319-13.518-1.72-13.518-9.678c0-4.159,4.079-5.879,7.719-5.879c4.64,0,8.158,1.439,8.479,6.479h-3.399
			c-0.2-2.639-2.6-3.479-4.799-3.479c-2.04,0-4.399,0.56-4.399,2.639c0,2.4,3.6,2.88,6.759,3.6c3.399,0.76,6.759,1.919,6.759,5.879
			c0,4.959-4.6,6.519-8.799,6.519c-4.639,0-8.559-1.88-8.758-6.999H1363.943z"/>
		<path fill="#333333" d="M1385.463,473.535h-3.399v-4.159h3.399V473.535z M1382.063,477.254h3.399v20.677h-3.399V477.254z"/>
		<path fill="#333333" d="M1399.661,476.774c6.559,0,10.038,4.759,10.038,10.838c0,6.039-3.479,10.798-10.038,10.798
			c-6.56,0-10.039-4.759-10.039-10.798C1389.622,481.533,1393.102,476.774,1399.661,476.774z M1399.661,495.411
			c3.559,0,6.438-2.8,6.438-7.799s-2.88-7.838-6.438-7.838c-3.56,0-6.439,2.839-6.439,7.838S1396.102,495.411,1399.661,495.411z"/>
		<path fill="#333333" d="M1413.702,477.254h3.199v3.28h0.08c1.439-2.56,3.72-3.759,6.719-3.759c5.439,0,7.119,3.119,7.119,7.559
			v13.598h-3.399v-13.998c0-2.56-1.6-4.159-4.199-4.159c-4.119,0-6.119,2.759-6.119,6.479v11.678h-3.399V477.254z"/>
		<path fill="#333333" d="M1450.662,473.535h-3.399v-4.159h3.399V473.535z M1447.263,477.254h3.399v20.677h-3.399V477.254z"/>
		<path fill="#333333" d="M1455.941,477.254h3.199v3.28h0.08c1.439-2.56,3.72-3.759,6.719-3.759c5.439,0,7.119,3.119,7.119,7.559
			v13.598h-3.399v-13.998c0-2.56-1.6-4.159-4.199-4.159c-4.119,0-6.119,2.759-6.119,6.479v11.678h-3.399V477.254z"/>
		<path fill="#333333" d="M1480.262,491.412c0.119,3.04,2.799,4,5.559,4c2.12,0,4.999-0.48,4.999-3.08
			c0-5.319-13.518-1.72-13.518-9.678c0-4.159,4.079-5.879,7.719-5.879c4.64,0,8.158,1.439,8.479,6.479h-3.399
			c-0.2-2.639-2.6-3.479-4.799-3.479c-2.04,0-4.399,0.56-4.399,2.639c0,2.4,3.6,2.88,6.759,3.6c3.399,0.76,6.759,1.919,6.759,5.879
			c0,4.959-4.6,6.519-8.799,6.519c-4.639,0-8.559-1.88-8.758-6.999H1480.262z"/>
		<path fill="#333333" d="M1502.9,477.254h4.12v3h-4.12v12.838c0,1.6,0.44,1.84,2.56,1.84h1.561v3h-2.6
			c-3.52,0-4.92-0.72-4.92-4.519v-13.158h-3.519v-3h3.519v-6.199h3.399V477.254z"/>
		<path fill="#333333" d="M1529.099,497.851c-0.601,0.36-1.44,0.56-2.44,0.56c-1.76,0-2.879-0.96-2.879-3.2
			c-1.88,2.24-4.399,3.2-7.279,3.2c-3.759,0-6.839-1.64-6.839-5.799c0-4.679,3.479-5.719,6.999-6.359
			c3.72-0.76,6.959-0.44,6.959-3.039c0-3-2.479-3.439-4.6-3.439c-2.879,0-4.999,0.88-5.159,3.919h-3.399
			c0.2-5.119,4.12-6.918,8.759-6.918c3.72,0,7.759,0.84,7.759,5.679v10.638c0,1.6,0,2.32,1.08,2.32c0.319,0,0.68-0.08,1.04-0.2
			V497.851z M1523.579,487.252c-2.64,1.959-10.318,0.04-10.318,5.119c0,2.24,1.92,3.04,3.999,3.04c4.479,0,6.319-2.76,6.319-4.679
			V487.252z"/>
		<path fill="#333333" d="M1532.461,469.375h3.399v28.555h-3.399V469.375z"/>
		<path fill="#333333" d="M1541.341,469.375h3.399v28.555h-3.399V469.375z"/>
		<path fill="#333333" d="M1568.337,497.851c-0.601,0.36-1.44,0.56-2.44,0.56c-1.76,0-2.879-0.96-2.879-3.2
			c-1.88,2.24-4.399,3.2-7.279,3.2c-3.759,0-6.839-1.64-6.839-5.799c0-4.679,3.479-5.719,6.999-6.359
			c3.72-0.76,6.959-0.44,6.959-3.039c0-3-2.479-3.439-4.6-3.439c-2.879,0-4.999,0.88-5.159,3.919h-3.399
			c0.2-5.119,4.12-6.918,8.759-6.918c3.72,0,7.759,0.84,7.759,5.679v10.638c0,1.6,0,2.32,1.08,2.32c0.319,0,0.68-0.08,1.04-0.2
			V497.851z M1562.817,487.252c-2.64,1.959-10.318,0.04-10.318,5.119c0,2.24,1.92,3.04,3.999,3.04c4.479,0,6.319-2.76,6.319-4.679
			V487.252z"/>
		<path fill="#333333" d="M1576.218,477.254h4.12v3h-4.12v12.838c0,1.6,0.44,1.84,2.56,1.84h1.561v3h-2.6
			c-3.52,0-4.92-0.72-4.92-4.519v-13.158h-3.519v-3h3.519v-6.199h3.399V477.254z"/>
		<path fill="#333333" d="M1587.698,473.535h-3.399v-4.159h3.399V473.535z M1584.299,477.254h3.399v20.677h-3.399V477.254z"/>
		<path fill="#333333" d="M1601.897,476.774c6.559,0,10.038,4.759,10.038,10.838c0,6.039-3.479,10.798-10.038,10.798
			c-6.56,0-10.039-4.759-10.039-10.798C1591.858,481.533,1595.338,476.774,1601.897,476.774z M1601.897,495.411
			c3.559,0,6.438-2.8,6.438-7.799s-2.88-7.838-6.438-7.838c-3.56,0-6.439,2.839-6.439,7.838S1598.338,495.411,1601.897,495.411z"/>
		<path fill="#333333" d="M1615.938,477.254h3.199v3.28h0.08c1.439-2.56,3.72-3.759,6.719-3.759c5.439,0,7.119,3.119,7.119,7.559
			v13.598h-3.399v-13.998c0-2.56-1.6-4.159-4.199-4.159c-4.119,0-6.119,2.759-6.119,6.479v11.678h-3.399V477.254z"/>
		<path fill="#333333" d="M1649.858,469.375h9.799c8.799,0,13.718,4.439,13.718,13.598c0,9.559-4.199,14.958-13.718,14.958h-9.799
			V469.375z M1653.658,494.731h6.318c2.6,0,9.599-0.72,9.599-11.238c0-6.799-2.52-10.918-9.519-10.918h-6.398V494.731z"/>
		<path fill="#333333" d="M1678.019,469.375h3.8v12.278h15.037v-12.278h3.8v28.555h-3.8v-13.078h-15.037v13.078h-3.8V469.375z"/>
		<path fill="#333333" d="M1706.897,469.375h13.438c5.398,0,8.678,2.879,8.678,7.479c0,3.479-1.479,6.279-4.959,7.239v0.08
			c3.319,0.64,3.96,3.12,4.279,5.879c0.2,2.76,0.08,5.959,1.68,7.879h-4.239c-1.08-1.16-0.479-4.239-1.04-7.039
			c-0.439-2.76-1.079-5.159-4.759-5.159h-9.278v12.198h-3.8V469.375z M1718.616,482.533c3.519,0,6.599-0.92,6.599-5.079
			c0-2.839-1.52-4.879-5.079-4.879h-9.438v9.958H1718.616z"/>
		<path fill="#333333" d="M1749.577,477.254h4.12v3h-4.12v12.838c0,1.6,0.44,1.84,2.56,1.84h1.561v3h-2.6
			c-3.52,0-4.92-0.72-4.92-4.519v-13.158h-3.519v-3h3.519v-6.199h3.399V477.254z"/>
		<path fill="#333333" d="M1766.377,476.774c6.559,0,10.038,4.759,10.038,10.838c0,6.039-3.479,10.798-10.038,10.798
			c-6.56,0-10.039-4.759-10.039-10.798C1756.338,481.533,1759.817,476.774,1766.377,476.774z M1766.377,495.411
			c3.559,0,6.438-2.8,6.438-7.799s-2.88-7.838-6.438-7.838c-3.56,0-6.439,2.839-6.439,7.838S1762.817,495.411,1766.377,495.411z"/>
		<path fill="#333333" d="M1325.541,547.932h-3.399v-2.8h-0.08c-1.119,2.28-3.719,3.279-6.599,3.279
			c-6.358,0-9.519-5.039-9.519-10.878s3.12-10.758,9.438-10.758c2.08,0,5.199,0.8,6.679,3.239h0.08v-10.639h3.399V547.932z
			 M1315.943,545.412c4.599,0,6.318-3.96,6.318-7.799c0-4.039-1.84-7.839-6.519-7.839c-4.64,0-6.199,3.959-6.199,7.999
			C1309.544,541.652,1311.544,545.412,1315.943,545.412z"/>
		<path fill="#333333" d="M1339.703,526.775c6.559,0,10.038,4.759,10.038,10.838c0,6.039-3.479,10.798-10.038,10.798
			c-6.56,0-10.039-4.759-10.039-10.798C1329.664,531.534,1333.144,526.775,1339.703,526.775z M1339.703,545.412
			c3.559,0,6.438-2.8,6.438-7.799s-2.88-7.839-6.438-7.839c-3.56,0-6.439,2.84-6.439,7.839S1336.144,545.412,1339.703,545.412z"/>
		<path fill="#333333" d="M1367.782,533.894c-0.521-2.6-2.28-4.119-5.119-4.119c-4.92,0-6.439,3.919-6.439,8.079
			c0,3.839,1.72,7.559,6.039,7.559c3.319,0,5.239-1.88,5.679-5.039h3.479c-0.76,5.079-3.879,8.038-9.118,8.038
			c-6.319,0-9.679-4.359-9.679-10.558c0-6.199,3.2-11.078,9.759-11.078c4.719,0,8.398,2.199,8.918,7.118H1367.782z"/>
		<path fill="#333333" d="M1392.341,547.932h-3.199v-3.279h-0.08c-1.44,2.56-3.72,3.759-6.719,3.759
			c-5.439,0-7.119-3.119-7.119-7.559v-13.598h3.399v13.998c0,2.56,1.6,4.159,4.199,4.159c4.119,0,6.119-2.76,6.119-6.479v-11.678
			h3.399V547.932z"/>
		<path fill="#333333" d="M1397.464,527.255h3.199v3.039h0.08c1.56-2.359,3.76-3.519,6.679-3.519c2.56,0,4.84,0.959,5.68,3.519
			c1.399-2.239,3.799-3.519,6.479-3.519c4.119,0,6.879,1.72,6.879,5.999v15.157h-3.399v-13.558c0-2.56-0.68-4.6-3.999-4.6
			s-5.399,2.08-5.399,5.279v12.878h-3.399v-13.558c0-2.68-0.84-4.6-3.879-4.6c-4,0-5.52,3.68-5.52,5.279v12.878h-3.399V527.255z"/>
		<path fill="#333333" d="M1449.221,541.372c-0.92,4.6-4.159,7.039-8.838,7.039c-6.6,0-9.719-4.599-9.919-10.878
			c0-6.239,4.08-10.758,9.719-10.758c7.318,0,9.559,6.839,9.358,11.838h-15.478c-0.12,3.599,1.92,6.799,6.439,6.799
			c2.839,0,4.759-1.32,5.358-4.04H1449.221z M1445.941,535.613c-0.2-3.239-2.56-5.839-5.959-5.839c-3.52,0-5.719,2.64-5.919,5.839
			H1445.941z"/>
		<path fill="#333333" d="M1453.063,527.255h3.199v3.279h0.08c1.439-2.56,3.72-3.759,6.719-3.759c5.439,0,7.119,3.119,7.119,7.559
			v13.598h-3.399v-13.998c0-2.56-1.6-4.159-4.199-4.159c-4.119,0-6.119,2.76-6.119,6.479v11.679h-3.399V527.255z"/>
		<path fill="#333333" d="M1480.022,527.255h4.12v2.999h-4.12v12.838c0,1.601,0.44,1.84,2.56,1.84h1.561v3h-2.6
			c-3.52,0-4.92-0.72-4.92-4.52v-13.158h-3.519v-2.999h3.519v-6.199h3.399V527.255z"/>
		<path fill="#333333" d="M1502.623,523.535h-3.399v-4.159h3.399V523.535z M1499.224,527.255h3.399v20.677h-3.399V527.255z"/>
		<path fill="#333333" d="M1507.902,527.255h3.199v3.279h0.08c1.439-2.56,3.72-3.759,6.719-3.759c5.439,0,7.119,3.119,7.119,7.559
			v13.598h-3.399v-13.998c0-2.56-1.6-4.159-4.199-4.159c-4.119,0-6.119,2.76-6.119,6.479v11.679h-3.399V527.255z"/>
		<path fill="#333333" d="M1532.223,541.412c0.119,3.04,2.799,4,5.559,4c2.12,0,4.999-0.48,4.999-3.08
			c0-5.318-13.518-1.72-13.518-9.678c0-4.159,4.079-5.879,7.719-5.879c4.64,0,8.158,1.439,8.479,6.479h-3.399
			c-0.2-2.64-2.6-3.479-4.799-3.479c-2.04,0-4.399,0.56-4.399,2.64c0,2.399,3.6,2.88,6.759,3.6c3.399,0.76,6.759,1.919,6.759,5.879
			c0,4.959-4.6,6.519-8.799,6.519c-4.639,0-8.559-1.879-8.758-6.999H1532.223z"/>
		<path fill="#333333" d="M1554.861,527.255h4.12v2.999h-4.12v12.838c0,1.601,0.44,1.84,2.56,1.84h1.561v3h-2.6
			c-3.52,0-4.92-0.72-4.92-4.52v-13.158h-3.519v-2.999h3.519v-6.199h3.399V527.255z"/>
		<path fill="#333333" d="M1581.06,547.852c-0.601,0.36-1.44,0.56-2.44,0.56c-1.76,0-2.879-0.959-2.879-3.199
			c-1.88,2.24-4.399,3.199-7.279,3.199c-3.759,0-6.839-1.64-6.839-5.799c0-4.68,3.479-5.719,6.999-6.359
			c3.72-0.76,6.959-0.439,6.959-3.039c0-2.999-2.479-3.439-4.6-3.439c-2.879,0-4.999,0.88-5.159,3.919h-3.399
			c0.2-5.119,4.12-6.918,8.759-6.918c3.72,0,7.759,0.84,7.759,5.679v10.638c0,1.601,0,2.32,1.08,2.32c0.319,0,0.68-0.08,1.04-0.2
			V547.852z M1575.54,537.253c-2.64,1.96-10.318,0.04-10.318,5.119c0,2.24,1.92,3.04,3.999,3.04c4.479,0,6.319-2.76,6.319-4.68
			V537.253z"/>
		<path fill="#333333" d="M1584.422,519.376h3.399v28.556h-3.399V519.376z"/>
		<path fill="#333333" d="M1593.302,519.376h3.399v28.556h-3.399V519.376z"/>
		<path fill="#333333" d="M1620.298,547.852c-0.601,0.36-1.44,0.56-2.44,0.56c-1.76,0-2.879-0.959-2.879-3.199
			c-1.88,2.24-4.399,3.199-7.279,3.199c-3.759,0-6.839-1.64-6.839-5.799c0-4.68,3.479-5.719,6.999-6.359
			c3.72-0.76,6.959-0.439,6.959-3.039c0-2.999-2.479-3.439-4.6-3.439c-2.879,0-4.999,0.88-5.159,3.919h-3.399
			c0.2-5.119,4.12-6.918,8.759-6.918c3.72,0,7.759,0.84,7.759,5.679v10.638c0,1.601,0,2.32,1.08,2.32c0.319,0,0.68-0.08,1.04-0.2
			V547.852z M1614.778,537.253c-2.64,1.96-10.318,0.04-10.318,5.119c0,2.24,1.92,3.04,3.999,3.04c4.479,0,6.319-2.76,6.319-4.68
			V537.253z"/>
		<path fill="#333333" d="M1628.179,527.255h4.12v2.999h-4.12v12.838c0,1.601,0.44,1.84,2.56,1.84h1.561v3h-2.6
			c-3.52,0-4.92-0.72-4.92-4.52v-13.158h-3.519v-2.999h3.519v-6.199h3.399V527.255z"/>
		<path fill="#333333" d="M1639.659,523.535h-3.399v-4.159h3.399V523.535z M1636.26,527.255h3.399v20.677h-3.399V527.255z"/>
		<path fill="#333333" d="M1653.858,526.775c6.559,0,10.038,4.759,10.038,10.838c0,6.039-3.479,10.798-10.038,10.798
			c-6.56,0-10.039-4.759-10.039-10.798C1643.819,531.534,1647.299,526.775,1653.858,526.775z M1653.858,545.412
			c3.559,0,6.438-2.8,6.438-7.799s-2.88-7.839-6.438-7.839c-3.56,0-6.439,2.84-6.439,7.839S1650.299,545.412,1653.858,545.412z"/>
		<path fill="#333333" d="M1667.899,527.255h3.199v3.279h0.08c1.439-2.56,3.72-3.759,6.719-3.759c5.439,0,7.119,3.119,7.119,7.559
			v13.598h-3.399v-13.998c0-2.56-1.6-4.159-4.199-4.159c-4.119,0-6.119,2.76-6.119,6.479v11.679h-3.399V527.255z"/>
		<path fill="#333333" d="M1325.382,597.852c-0.601,0.36-1.44,0.56-2.44,0.56c-1.76,0-2.879-0.959-2.879-3.199
			c-1.88,2.24-4.399,3.199-7.279,3.199c-3.759,0-6.839-1.64-6.839-5.799c0-4.679,3.479-5.719,6.999-6.358
			c3.72-0.76,6.959-0.44,6.959-3.04c0-2.999-2.479-3.439-4.6-3.439c-2.879,0-4.999,0.88-5.159,3.92h-3.399
			c0.2-5.119,4.12-6.919,8.759-6.919c3.72,0,7.759,0.84,7.759,5.679v10.639c0,1.6,0,2.319,1.08,2.319c0.319,0,0.68-0.08,1.04-0.2
			V597.852z M1319.862,587.254c-2.64,1.959-10.318,0.039-10.318,5.119c0,2.239,1.92,3.039,3.999,3.039
			c4.479,0,6.319-2.76,6.319-4.68V587.254z"/>
		<path fill="#333333" d="M1342.582,583.894c-0.521-2.599-2.28-4.119-5.119-4.119c-4.92,0-6.439,3.92-6.439,8.079
			c0,3.839,1.72,7.559,6.039,7.559c3.319,0,5.239-1.88,5.679-5.039h3.479c-0.76,5.079-3.879,8.038-9.118,8.038
			c-6.319,0-9.679-4.358-9.679-10.558s3.2-11.078,9.759-11.078c4.719,0,8.398,2.199,8.918,7.118H1342.582z"/>
		<path fill="#333333" d="M1354.742,577.255h4.12v3h-4.12v12.838c0,1.6,0.44,1.84,2.56,1.84h1.561v2.999h-2.6
			c-3.52,0-4.92-0.72-4.92-4.52v-13.157h-3.519v-3h3.519v-6.198h3.399V577.255z"/>
		<path fill="#333333" d="M1366.223,573.536h-3.399v-4.16h3.399V573.536z M1362.823,577.255h3.399v20.677h-3.399V577.255z"/>
		<path fill="#333333" d="M1380.82,597.932h-3.64l-7.679-20.677h3.8l5.799,17.237h0.08l5.639-17.237h3.56L1380.82,597.932z"/>
		<path fill="#333333" d="M1395.102,573.536h-3.399v-4.16h3.399V573.536z M1391.702,577.255h3.399v20.677h-3.399V577.255z"/>
		<path fill="#333333" d="M1405.1,577.255h4.12v3h-4.12v12.838c0,1.6,0.44,1.84,2.56,1.84h1.561v2.999h-2.6
			c-3.52,0-4.92-0.72-4.92-4.52v-13.157h-3.519v-3h3.519v-6.198h3.399V577.255z"/>
		<path fill="#333333" d="M1416.58,573.536h-3.399v-4.16h3.399V573.536z M1413.181,577.255h3.399v20.677h-3.399V577.255z"/>
		<path fill="#333333" d="M1439.496,591.373c-0.92,4.599-4.159,7.038-8.838,7.038c-6.6,0-9.719-4.599-9.919-10.878
			c0-6.238,4.08-10.758,9.719-10.758c7.318,0,9.559,6.839,9.358,11.838h-15.478c-0.12,3.6,1.92,6.799,6.439,6.799
			c2.839,0,4.759-1.32,5.358-4.039H1439.496z M1436.217,585.613c-0.2-3.239-2.56-5.839-5.959-5.839c-3.52,0-5.719,2.64-5.919,5.839
			H1436.217z"/>
		<path fill="#333333" d="M1445.419,591.413c0.119,3.039,2.799,3.999,5.559,3.999c2.12,0,4.999-0.479,4.999-3.079
			c0-5.319-13.518-1.72-13.518-9.679c0-4.159,4.079-5.879,7.719-5.879c4.64,0,8.158,1.439,8.479,6.479h-3.399
			c-0.2-2.64-2.6-3.479-4.799-3.479c-2.04,0-4.399,0.561-4.399,2.64c0,2.399,3.6,2.88,6.759,3.6c3.399,0.76,6.759,1.92,6.759,5.879
			c0,4.959-4.6,6.519-8.799,6.519c-4.639,0-8.559-1.879-8.758-6.998H1445.419z"/>
		<path fill="#333333" d="M1284.503,641.535c3.96,0,7.159,3.159,7.159,7.119c0,3.959-3.199,7.158-7.159,7.158
			c-3.959,0-7.118-3.199-7.118-7.158C1277.385,644.694,1280.544,641.535,1284.503,641.535z"/>
		<path fill="#333333" d="M1308.744,634.376h18.757v3.2h-14.957v9.078h13.118v3.199h-13.118v13.078h-3.8V634.376z"/>
		<path fill="#333333" d="M1340.063,641.775c6.559,0,10.038,4.759,10.038,10.838c0,6.039-3.479,10.798-10.038,10.798
			c-6.56,0-10.039-4.759-10.039-10.798C1330.024,646.534,1333.504,641.775,1340.063,641.775z M1340.063,660.412
			c3.559,0,6.438-2.8,6.438-7.799s-2.88-7.839-6.438-7.839c-3.56,0-6.439,2.84-6.439,7.839S1336.504,660.412,1340.063,660.412z"/>
		<path fill="#333333" d="M1353.984,642.255h3.199v4.359h0.08c1.64-3.359,3.92-4.959,7.599-4.839v3.6
			c-5.479,0-7.479,3.079-7.479,8.358v9.198h-3.399V642.255z"/>
		<path fill="#333333" d="M1396.181,656.373c-0.92,4.599-4.159,7.038-8.838,7.038c-6.6,0-9.719-4.599-9.919-10.878
			c0-6.238,4.08-10.758,9.719-10.758c7.318,0,9.559,6.839,9.358,11.838h-15.478c-0.12,3.6,1.92,6.799,6.439,6.799
			c2.839,0,4.759-1.32,5.358-4.039H1396.181z M1392.901,650.613c-0.2-3.239-2.56-5.839-5.959-5.839c-3.52,0-5.719,2.64-5.919,5.839
			H1392.901z"/>
		<path fill="#333333" d="M1418.341,662.852c-0.601,0.36-1.44,0.56-2.44,0.56c-1.76,0-2.879-0.959-2.879-3.199
			c-1.88,2.24-4.399,3.199-7.279,3.199c-3.759,0-6.839-1.64-6.839-5.799c0-4.679,3.479-5.719,6.999-6.358
			c3.72-0.76,6.959-0.44,6.959-3.04c0-2.999-2.479-3.439-4.6-3.439c-2.879,0-4.999,0.88-5.159,3.92h-3.399
			c0.2-5.119,4.12-6.919,8.759-6.919c3.72,0,7.759,0.84,7.759,5.679v10.639c0,1.6,0,2.319,1.08,2.319c0.319,0,0.68-0.08,1.04-0.2
			V662.852z M1412.821,652.254c-2.64,1.959-10.318,0.039-10.318,5.119c0,2.239,1.92,3.039,3.999,3.039
			c4.479,0,6.319-2.76,6.319-4.68V652.254z"/>
		<path fill="#333333" d="M1435.541,648.894c-0.521-2.599-2.28-4.119-5.119-4.119c-4.92,0-6.439,3.92-6.439,8.079
			c0,3.839,1.72,7.559,6.039,7.559c3.319,0,5.239-1.88,5.679-5.039h3.479c-0.76,5.079-3.879,8.038-9.118,8.038
			c-6.319,0-9.679-4.358-9.679-10.558s3.2-11.078,9.759-11.078c4.719,0,8.398,2.199,8.918,7.118H1435.541z"/>
		<path fill="#333333" d="M1442.982,634.376h3.399v10.919h0.08c1.08-2.52,4.079-3.52,6.519-3.52c5.439,0,7.119,3.119,7.119,7.559
			v13.598h-3.399v-13.998c0-2.56-1.6-4.159-4.199-4.159c-4.119,0-6.119,2.76-6.119,6.479v11.678h-3.399V634.376z"/>
		<path fill="#333333" d="M1479.942,638.536h-3.399v-4.16h3.399V638.536z M1476.543,642.255h3.399v20.677h-3.399V642.255z"/>
		<path fill="#333333" d="M1485.223,642.255h3.199v3.279h0.08c1.439-2.56,3.72-3.759,6.719-3.759c5.439,0,7.119,3.119,7.119,7.559
			v13.598h-3.399v-13.998c0-2.56-1.6-4.159-4.199-4.159c-4.119,0-6.119,2.76-6.119,6.479v11.678h-3.399V642.255z"/>
		<path fill="#333333" d="M1525.939,662.932h-3.399v-2.8h-0.08c-1.119,2.28-3.719,3.279-6.599,3.279
			c-6.358,0-9.519-5.039-9.519-10.878s3.12-10.758,9.438-10.758c2.08,0,5.199,0.8,6.679,3.239h0.08v-10.639h3.399V662.932z
			 M1516.342,660.412c4.599,0,6.318-3.959,6.318-7.799c0-4.039-1.84-7.839-6.519-7.839c-4.64,0-6.199,3.96-6.199,7.999
			C1509.942,656.652,1511.942,660.412,1516.342,660.412z"/>
		<path fill="#333333" d="M1534.782,638.536h-3.399v-4.16h3.399V638.536z M1531.383,642.255h3.399v20.677h-3.399V642.255z"/>
		<path fill="#333333" d="M1549.381,662.932h-3.64l-7.679-20.677h3.8l5.799,17.237h0.08l5.639-17.237h3.56L1549.381,662.932z"/>
		<path fill="#333333" d="M1563.662,638.536h-3.399v-4.16h3.399V638.536z M1560.263,642.255h3.399v20.677h-3.399V642.255z"/>
		<path fill="#333333" d="M1587.418,662.932h-3.399v-2.8h-0.08c-1.119,2.28-3.719,3.279-6.599,3.279
			c-6.358,0-9.519-5.039-9.519-10.878s3.12-10.758,9.438-10.758c2.08,0,5.199,0.8,6.679,3.239h0.08v-10.639h3.399V662.932z
			 M1577.82,660.412c4.599,0,6.318-3.959,6.318-7.799c0-4.039-1.84-7.839-6.519-7.839c-4.64,0-6.199,3.96-6.199,7.999
			C1571.421,656.652,1573.421,660.412,1577.82,660.412z"/>
		<path fill="#333333" d="M1609.778,662.932h-3.199v-3.279h-0.08c-1.44,2.56-3.72,3.759-6.719,3.759
			c-5.439,0-7.119-3.119-7.119-7.559v-13.598h3.399v13.998c0,2.56,1.6,4.159,4.199,4.159c4.119,0,6.119-2.76,6.119-6.479v-11.679
			h3.399V662.932z"/>
		<path fill="#333333" d="M1633.219,662.852c-0.601,0.36-1.44,0.56-2.44,0.56c-1.76,0-2.879-0.959-2.879-3.199
			c-1.88,2.24-4.399,3.199-7.279,3.199c-3.759,0-6.839-1.64-6.839-5.799c0-4.679,3.479-5.719,6.999-6.358
			c3.72-0.76,6.959-0.44,6.959-3.04c0-2.999-2.479-3.439-4.6-3.439c-2.879,0-4.999,0.88-5.159,3.92h-3.399
			c0.2-5.119,4.12-6.919,8.759-6.919c3.72,0,7.759,0.84,7.759,5.679v10.639c0,1.6,0,2.319,1.08,2.319c0.319,0,0.68-0.08,1.04-0.2
			V662.852z M1627.699,652.254c-2.64,1.959-10.318,0.039-10.318,5.119c0,2.239,1.92,3.039,3.999,3.039
			c4.479,0,6.319-2.76,6.319-4.68V652.254z"/>
		<path fill="#333333" d="M1636.581,634.376h3.399v28.556h-3.399V634.376z"/>
		<path fill="#333333" d="M1669.018,633.696c9.079,0,13.678,7.159,13.678,14.958s-4.599,14.957-13.678,14.957
			c-9.078,0-13.678-7.158-13.678-14.957S1659.939,633.696,1669.018,633.696z M1669.018,660.412c6.959,0,9.879-5.999,9.879-11.758
			c0-5.76-2.92-11.758-9.879-11.758s-9.878,5.998-9.878,11.758C1659.14,654.413,1662.059,660.412,1669.018,660.412z"/>
		<path fill="#333333" d="M1688.179,645.255h-3.479v-3h3.479v-3.079c0-3.359,2-5.119,5.72-5.119c0.64,0,1.56,0.12,2.199,0.319v2.96
			c-0.6-0.2-1.319-0.28-1.92-0.28c-1.64,0-2.6,0.521-2.6,2.32v2.879h4v3h-4v17.677h-3.399V645.255z"/>
		<path fill="#333333" d="M1700.019,645.255h-3.479v-3h3.479v-3.079c0-3.359,2-5.119,5.72-5.119c0.64,0,1.56,0.12,2.199,0.319v2.96
			c-0.6-0.2-1.319-0.28-1.92-0.28c-1.64,0-2.6,0.521-2.6,2.32v2.879h4v3h-4v17.677h-3.399V645.255z"/>
		<path fill="#333333" d="M1728.096,656.373c-0.92,4.599-4.159,7.038-8.838,7.038c-6.6,0-9.719-4.599-9.919-10.878
			c0-6.238,4.08-10.758,9.719-10.758c7.318,0,9.559,6.839,9.358,11.838h-15.478c-0.12,3.6,1.92,6.799,6.439,6.799
			c2.839,0,4.759-1.32,5.358-4.039H1728.096z M1724.816,650.613c-0.2-3.239-2.56-5.839-5.959-5.839c-3.52,0-5.719,2.64-5.919,5.839
			H1724.816z"/>
		<path fill="#333333" d="M1731.818,642.255h3.199v4.359h0.08c1.64-3.359,3.92-4.959,7.599-4.839v3.6
			c-5.479,0-7.479,3.079-7.479,8.358v9.198h-3.399V642.255z"/>
		<path fill="#333333" d="M1748.857,638.536h-3.399v-4.16h3.399V638.536z M1745.458,642.255h3.399v20.677h-3.399V642.255z"/>
		<path fill="#333333" d="M1754.137,642.255h3.199v3.279h0.08c1.439-2.56,3.72-3.759,6.719-3.759c5.439,0,7.119,3.119,7.119,7.559
			v13.598h-3.399v-13.998c0-2.56-1.6-4.159-4.199-4.159c-4.119,0-6.119,2.76-6.119,6.479v11.678h-3.399V642.255z"/>
		<path fill="#333333" d="M1794.214,661.172c0,6.759-3.039,10.158-9.599,10.158c-3.879,0-8.358-1.6-8.559-6.079h3.399
			c0.12,2.439,3.16,3.359,5.359,3.359c4.439,0,6.199-3.199,6.199-7.838v-1.36h-0.08c-1.16,2.52-3.8,3.76-6.439,3.76
			c-6.158,0-9.238-4.84-9.238-10.479c0-4.879,2.36-10.918,9.559-10.918c2.6,0,4.919,1.159,6.159,3.439h0.04v-2.96h3.199V661.172z
			 M1790.854,652.174c0-3.64-1.6-7.399-5.879-7.399c-4.359,0-6.119,3.56-6.119,7.519c0,3.72,1.359,7.879,5.839,7.879
			S1790.854,656.053,1790.854,652.174z"/>
		<path fill="#333333" d="M1310.664,688.536h-3.399v-4.16h3.399V688.536z M1307.265,692.255h3.399v20.677h-3.399V692.255z"/>
		<path fill="#333333" d="M1315.943,692.255h3.199v3.279h0.08c1.439-2.56,3.72-3.759,6.719-3.759c5.439,0,7.119,3.119,7.119,7.559
			v13.598h-3.399v-13.998c0-2.56-1.6-4.159-4.199-4.159c-4.119,0-6.119,2.76-6.119,6.479v11.678h-3.399V692.255z"/>
		<path fill="#333333" d="M1340.264,706.413c0.119,3.039,2.799,3.999,5.559,3.999c2.12,0,4.999-0.479,4.999-3.079
			c0-5.319-13.518-1.72-13.518-9.679c0-4.159,4.079-5.879,7.719-5.879c4.64,0,8.158,1.439,8.479,6.479h-3.399
			c-0.2-2.64-2.6-3.479-4.799-3.479c-2.04,0-4.399,0.561-4.399,2.64c0,2.399,3.6,2.88,6.759,3.6c3.399,0.76,6.759,1.92,6.759,5.879
			c0,4.959-4.6,6.519-8.799,6.519c-4.639,0-8.559-1.879-8.758-6.998H1340.264z"/>
		<path fill="#333333" d="M1362.902,692.255h4.12v3h-4.12v12.838c0,1.6,0.44,1.84,2.56,1.84h1.561v2.999h-2.6
			c-3.52,0-4.92-0.72-4.92-4.52v-13.157h-3.519v-3h3.519v-6.198h3.399V692.255z"/>
		<path fill="#333333" d="M1389.101,712.852c-0.601,0.36-1.44,0.56-2.44,0.56c-1.76,0-2.879-0.959-2.879-3.199
			c-1.88,2.24-4.399,3.199-7.279,3.199c-3.759,0-6.839-1.64-6.839-5.799c0-4.679,3.479-5.719,6.999-6.358
			c3.72-0.76,6.959-0.44,6.959-3.04c0-2.999-2.479-3.439-4.6-3.439c-2.879,0-4.999,0.88-5.159,3.92h-3.399
			c0.2-5.119,4.12-6.919,8.759-6.919c3.72,0,7.759,0.84,7.759,5.679v10.639c0,1.6,0,2.319,1.08,2.319c0.319,0,0.68-0.08,1.04-0.2
			V712.852z M1383.581,702.254c-2.64,1.959-10.318,0.039-10.318,5.119c0,2.239,1.92,3.039,3.999,3.039
			c4.479,0,6.319-2.76,6.319-4.68V702.254z"/>
		<path fill="#333333" d="M1392.463,684.376h3.399v28.556h-3.399V684.376z"/>
		<path fill="#333333" d="M1401.343,684.376h3.399v28.556h-3.399V684.376z"/>
		<path fill="#333333" d="M1428.339,712.852c-0.601,0.36-1.44,0.56-2.44,0.56c-1.76,0-2.879-0.959-2.879-3.199
			c-1.88,2.24-4.399,3.199-7.279,3.199c-3.759,0-6.839-1.64-6.839-5.799c0-4.679,3.479-5.719,6.999-6.358
			c3.72-0.76,6.959-0.44,6.959-3.04c0-2.999-2.479-3.439-4.6-3.439c-2.879,0-4.999,0.88-5.159,3.92h-3.399
			c0.2-5.119,4.12-6.919,8.759-6.919c3.72,0,7.759,0.84,7.759,5.679v10.639c0,1.6,0,2.319,1.08,2.319c0.319,0,0.68-0.08,1.04-0.2
			V712.852z M1422.819,702.254c-2.64,1.959-10.318,0.039-10.318,5.119c0,2.239,1.92,3.039,3.999,3.039
			c4.479,0,6.319-2.76,6.319-4.68V702.254z"/>
		<path fill="#333333" d="M1436.22,692.255h4.12v3h-4.12v12.838c0,1.6,0.44,1.84,2.56,1.84h1.561v2.999h-2.6
			c-3.52,0-4.92-0.72-4.92-4.52v-13.157h-3.519v-3h3.519v-6.198h3.399V692.255z"/>
		<path fill="#333333" d="M1447.7,688.536h-3.399v-4.16h3.399V688.536z M1444.301,692.255h3.399v20.677h-3.399V692.255z"/>
		<path fill="#333333" d="M1461.899,691.775c6.559,0,10.038,4.759,10.038,10.838c0,6.039-3.479,10.798-10.038,10.798
			c-6.56,0-10.039-4.759-10.039-10.798C1451.86,696.534,1455.34,691.775,1461.899,691.775z M1461.899,710.412
			c3.559,0,6.438-2.8,6.438-7.799s-2.88-7.839-6.438-7.839c-3.56,0-6.439,2.84-6.439,7.839S1458.34,710.412,1461.899,710.412z"/>
		<path fill="#333333" d="M1475.94,692.255h3.199v3.279h0.08c1.439-2.56,3.72-3.759,6.719-3.759c5.439,0,7.119,3.119,7.119,7.559
			v13.598h-3.399v-13.998c0-2.56-1.6-4.159-4.199-4.159c-4.119,0-6.119,2.76-6.119,6.479v11.678h-3.399V692.255z"/>
		<path fill="#333333" d="M1498.94,708.492h4.439v4.039c0,3.04-1.32,5.359-4.399,6.279v-2c1.76-0.64,2.439-2.56,2.319-3.879h-2.359
			V708.492z"/>
		<path fill="#333333" d="M1525.14,692.255h4.12v3h-4.12v12.838c0,1.6,0.44,1.84,2.56,1.84h1.561v2.999h-2.6
			c-3.52,0-4.92-0.72-4.92-4.52v-13.157h-3.519v-3h3.519v-6.198h3.399V692.255z"/>
		<path fill="#333333" d="M1533.021,684.376h3.399v10.919h0.08c1.08-2.52,4.079-3.52,6.519-3.52c5.439,0,7.119,3.119,7.119,7.559
			v13.598h-3.399v-13.998c0-2.56-1.6-4.159-4.199-4.159c-4.119,0-6.119,2.76-6.119,6.479v11.678h-3.399V684.376z"/>
		<path fill="#333333" d="M1572.897,706.373c-0.92,4.599-4.159,7.038-8.838,7.038c-6.6,0-9.719-4.599-9.919-10.878
			c0-6.238,4.08-10.758,9.719-10.758c7.318,0,9.559,6.839,9.358,11.838h-15.478c-0.12,3.6,1.92,6.799,6.439,6.799
			c2.839,0,4.759-1.32,5.358-4.039H1572.897z M1569.618,700.613c-0.2-3.239-2.56-5.839-5.959-5.839c-3.52,0-5.719,2.64-5.919,5.839
			H1569.618z"/>
		<path fill="#333333" d="M1588.58,684.376h3.8v28.556h-3.8V684.376z"/>
		<path fill="#333333" d="M1598.22,692.255h3.199v3.279h0.08c1.439-2.56,3.72-3.759,6.719-3.759c5.439,0,7.119,3.119,7.119,7.559
			v13.598h-3.399v-13.998c0-2.56-1.6-4.159-4.199-4.159c-4.119,0-6.119,2.76-6.119,6.479v11.678h-3.399V692.255z"/>
		<path fill="#333333" d="M1622.54,706.413c0.119,3.039,2.799,3.999,5.559,3.999c2.12,0,4.999-0.479,4.999-3.079
			c0-5.319-13.518-1.72-13.518-9.679c0-4.159,4.079-5.879,7.719-5.879c4.64,0,8.158,1.439,8.479,6.479h-3.399
			c-0.2-2.64-2.6-3.479-4.799-3.479c-2.04,0-4.399,0.561-4.399,2.64c0,2.399,3.6,2.88,6.759,3.6c3.399,0.76,6.759,1.92,6.759,5.879
			c0,4.959-4.6,6.519-8.799,6.519c-4.639,0-8.559-1.879-8.758-6.998H1622.54z"/>
		<path fill="#333333" d="M1645.179,692.255h4.12v3h-4.12v12.838c0,1.6,0.44,1.84,2.56,1.84h1.561v2.999h-2.6
			c-3.52,0-4.92-0.72-4.92-4.52v-13.157h-3.519v-3h3.519v-6.198h3.399V692.255z"/>
		<path fill="#333333" d="M1671.377,712.852c-0.601,0.36-1.44,0.56-2.44,0.56c-1.76,0-2.879-0.959-2.879-3.199
			c-1.88,2.24-4.399,3.199-7.279,3.199c-3.759,0-6.839-1.64-6.839-5.799c0-4.679,3.479-5.719,6.999-6.358
			c3.72-0.76,6.959-0.44,6.959-3.04c0-2.999-2.479-3.439-4.6-3.439c-2.879,0-4.999,0.88-5.159,3.92h-3.399
			c0.2-5.119,4.12-6.919,8.759-6.919c3.72,0,7.759,0.84,7.759,5.679v10.639c0,1.6,0,2.319,1.08,2.319c0.319,0,0.68-0.08,1.04-0.2
			V712.852z M1665.857,702.254c-2.64,1.959-10.318,0.039-10.318,5.119c0,2.239,1.92,3.039,3.999,3.039
			c4.479,0,6.319-2.76,6.319-4.68V702.254z"/>
		<path fill="#333333" d="M1674.739,684.376h3.399v28.556h-3.399V684.376z"/>
		<path fill="#333333" d="M1683.618,684.376h3.399v28.556h-3.399V684.376z"/>
		<path fill="#333333" d="M1709.934,706.373c-0.92,4.599-4.159,7.038-8.838,7.038c-6.6,0-9.719-4.599-9.919-10.878
			c0-6.238,4.08-10.758,9.719-10.758c7.318,0,9.559,6.839,9.358,11.838h-15.478c-0.12,3.6,1.92,6.799,6.439,6.799
			c2.839,0,4.759-1.32,5.358-4.039H1709.934z M1706.654,700.613c-0.2-3.239-2.56-5.839-5.959-5.839c-3.52,0-5.719,2.64-5.919,5.839
			H1706.654z"/>
		<path fill="#333333" d="M1713.656,692.255h3.199v4.359h0.08c1.64-3.359,3.92-4.959,7.599-4.839v3.6
			c-5.479,0-7.479,3.079-7.479,8.358v9.198h-3.399V692.255z"/>
		<path fill="#333333" d="M1325.541,762.932h-3.399v-2.8h-0.08c-1.119,2.28-3.719,3.279-6.599,3.279
			c-6.358,0-9.519-5.039-9.519-10.878s3.12-10.758,9.438-10.758c2.08,0,5.199,0.8,6.679,3.239h0.08v-10.639h3.399V762.932z
			 M1315.943,760.412c4.599,0,6.318-3.959,6.318-7.799c0-4.039-1.84-7.839-6.519-7.839c-4.64,0-6.199,3.96-6.199,7.999
			C1309.544,756.652,1311.544,760.412,1315.943,760.412z"/>
		<path fill="#333333" d="M1339.703,741.775c6.559,0,10.038,4.759,10.038,10.838c0,6.039-3.479,10.798-10.038,10.798
			c-6.56,0-10.039-4.759-10.039-10.798C1329.664,746.534,1333.144,741.775,1339.703,741.775z M1339.703,760.412
			c3.559,0,6.438-2.8,6.438-7.799s-2.88-7.839-6.438-7.839c-3.56,0-6.439,2.84-6.439,7.839S1336.144,760.412,1339.703,760.412z"/>
		<path fill="#333333" d="M1367.782,748.894c-0.521-2.599-2.28-4.119-5.119-4.119c-4.92,0-6.439,3.92-6.439,8.079
			c0,3.839,1.72,7.559,6.039,7.559c3.319,0,5.239-1.88,5.679-5.039h3.479c-0.76,5.079-3.879,8.038-9.118,8.038
			c-6.319,0-9.679-4.358-9.679-10.558s3.2-11.078,9.759-11.078c4.719,0,8.398,2.199,8.918,7.118H1367.782z"/>
		<path fill="#333333" d="M1392.341,762.932h-3.199v-3.279h-0.08c-1.44,2.56-3.72,3.759-6.719,3.759
			c-5.439,0-7.119-3.119-7.119-7.559v-13.598h3.399v13.998c0,2.56,1.6,4.159,4.199,4.159c4.119,0,6.119-2.76,6.119-6.479v-11.679
			h3.399V762.932z"/>
		<path fill="#333333" d="M1397.464,742.255h3.199v3.04h0.08c1.56-2.36,3.76-3.52,6.679-3.52c2.56,0,4.84,0.96,5.68,3.52
			c1.399-2.24,3.799-3.52,6.479-3.52c4.119,0,6.879,1.72,6.879,5.999v15.157h-3.399v-13.558c0-2.56-0.68-4.6-3.999-4.6
			s-5.399,2.08-5.399,5.279v12.878h-3.399v-13.558c0-2.68-0.84-4.6-3.879-4.6c-4,0-5.52,3.68-5.52,5.279v12.878h-3.399V742.255z"/>
		<path fill="#333333" d="M1449.221,756.373c-0.92,4.599-4.159,7.038-8.838,7.038c-6.6,0-9.719-4.599-9.919-10.878
			c0-6.238,4.08-10.758,9.719-10.758c7.318,0,9.559,6.839,9.358,11.838h-15.478c-0.12,3.6,1.92,6.799,6.439,6.799
			c2.839,0,4.759-1.32,5.358-4.039H1449.221z M1445.941,750.613c-0.2-3.239-2.56-5.839-5.959-5.839c-3.52,0-5.719,2.64-5.919,5.839
			H1445.941z"/>
		<path fill="#333333" d="M1453.063,742.255h3.199v3.279h0.08c1.439-2.56,3.72-3.759,6.719-3.759c5.439,0,7.119,3.119,7.119,7.559
			v13.598h-3.399v-13.998c0-2.56-1.6-4.159-4.199-4.159c-4.119,0-6.119,2.76-6.119,6.479v11.678h-3.399V742.255z"/>
		<path fill="#333333" d="M1480.022,742.255h4.12v3h-4.12v12.838c0,1.6,0.44,1.84,2.56,1.84h1.561v2.999h-2.6
			c-3.52,0-4.92-0.72-4.92-4.52v-13.157h-3.519v-3h3.519v-6.198h3.399V742.255z"/>
		<path fill="#333333" d="M1489.983,756.413c0.119,3.039,2.799,3.999,5.559,3.999c2.12,0,4.999-0.479,4.999-3.079
			c0-5.319-13.518-1.72-13.518-9.679c0-4.159,4.079-5.879,7.719-5.879c4.64,0,8.158,1.439,8.479,6.479h-3.399
			c-0.2-2.64-2.6-3.479-4.799-3.479c-2.04,0-4.399,0.561-4.399,2.64c0,2.399,3.6,2.88,6.759,3.6c3.399,0.76,6.759,1.92,6.759,5.879
			c0,4.959-4.6,6.519-8.799,6.519c-4.639,0-8.559-1.879-8.758-6.998H1489.983z"/>
		<path fill="#333333" d="M1523.742,742.255h4.12v3h-4.12v12.838c0,1.6,0.44,1.84,2.56,1.84h1.561v2.999h-2.6
			c-3.52,0-4.92-0.72-4.92-4.52v-13.157h-3.519v-3h3.519v-6.198h3.399V742.255z"/>
		<path fill="#333333" d="M1531.623,734.376h3.399v10.919h0.08c1.08-2.52,4.079-3.52,6.519-3.52c5.439,0,7.119,3.119,7.119,7.559
			v13.598h-3.399v-13.998c0-2.56-1.6-4.159-4.199-4.159c-4.119,0-6.119,2.76-6.119,6.479v11.678h-3.399V734.376z"/>
		<path fill="#333333" d="M1571.5,756.373c-0.92,4.599-4.159,7.038-8.838,7.038c-6.6,0-9.719-4.599-9.919-10.878
			c0-6.238,4.08-10.758,9.719-10.758c7.318,0,9.559,6.839,9.358,11.838h-15.478c-0.12,3.6,1.92,6.799,6.439,6.799
			c2.839,0,4.759-1.32,5.358-4.039H1571.5z M1568.221,750.613c-0.2-3.239-2.56-5.839-5.959-5.839c-3.52,0-5.719,2.64-5.919,5.839
			H1568.221z"/>
		<path fill="#333333" d="M1590.062,738.536h-3.399v-4.16h3.399V738.536z M1586.663,742.255h3.399v20.677h-3.399V742.255z"/>
		<path fill="#333333" d="M1595.342,742.255h3.199v3.279h0.08c1.439-2.56,3.72-3.759,6.719-3.759c5.439,0,7.119,3.119,7.119,7.559
			v13.598h-3.399v-13.998c0-2.56-1.6-4.159-4.199-4.159c-4.119,0-6.119,2.76-6.119,6.479v11.678h-3.399V742.255z"/>
		<path fill="#333333" d="M1619.662,756.413c0.119,3.039,2.799,3.999,5.559,3.999c2.12,0,4.999-0.479,4.999-3.079
			c0-5.319-13.518-1.72-13.518-9.679c0-4.159,4.079-5.879,7.719-5.879c4.64,0,8.158,1.439,8.479,6.479h-3.399
			c-0.2-2.64-2.6-3.479-4.799-3.479c-2.04,0-4.399,0.561-4.399,2.64c0,2.399,3.6,2.88,6.759,3.6c3.399,0.76,6.759,1.92,6.759,5.879
			c0,4.959-4.6,6.519-8.799,6.519c-4.639,0-8.559-1.879-8.758-6.998H1619.662z"/>
		<path fill="#333333" d="M1642.301,742.255h4.12v3h-4.12v12.838c0,1.6,0.44,1.84,2.56,1.84h1.561v2.999h-2.6
			c-3.52,0-4.92-0.72-4.92-4.52v-13.157h-3.519v-3h3.519v-6.198h3.399V742.255z"/>
		<path fill="#333333" d="M1668.499,762.852c-0.601,0.36-1.44,0.56-2.44,0.56c-1.76,0-2.879-0.959-2.879-3.199
			c-1.88,2.24-4.399,3.199-7.279,3.199c-3.759,0-6.839-1.64-6.839-5.799c0-4.679,3.479-5.719,6.999-6.358
			c3.72-0.76,6.959-0.44,6.959-3.04c0-2.999-2.479-3.439-4.6-3.439c-2.879,0-4.999,0.88-5.159,3.92h-3.399
			c0.2-5.119,4.12-6.919,8.759-6.919c3.72,0,7.759,0.84,7.759,5.679v10.639c0,1.6,0,2.319,1.08,2.319c0.319,0,0.68-0.08,1.04-0.2
			V762.852z M1662.979,752.254c-2.64,1.959-10.318,0.039-10.318,5.119c0,2.239,1.92,3.039,3.999,3.039
			c4.479,0,6.319-2.76,6.319-4.68V752.254z"/>
		<path fill="#333333" d="M1671.861,734.376h3.399v28.556h-3.399V734.376z"/>
		<path fill="#333333" d="M1680.741,734.376h3.399v28.556h-3.399V734.376z"/>
		<path fill="#333333" d="M1707.737,762.852c-0.601,0.36-1.44,0.56-2.44,0.56c-1.76,0-2.879-0.959-2.879-3.199
			c-1.88,2.24-4.399,3.199-7.279,3.199c-3.759,0-6.839-1.64-6.839-5.799c0-4.679,3.479-5.719,6.999-6.358
			c3.72-0.76,6.959-0.44,6.959-3.04c0-2.999-2.479-3.439-4.6-3.439c-2.879,0-4.999,0.88-5.159,3.92h-3.399
			c0.2-5.119,4.12-6.919,8.759-6.919c3.72,0,7.759,0.84,7.759,5.679v10.639c0,1.6,0,2.319,1.08,2.319c0.319,0,0.68-0.08,1.04-0.2
			V762.852z M1702.218,752.254c-2.64,1.959-10.318,0.039-10.318,5.119c0,2.239,1.92,3.039,3.999,3.039
			c4.479,0,6.319-2.76,6.319-4.68V752.254z"/>
		<path fill="#333333" d="M1715.618,742.255h4.12v3h-4.12v12.838c0,1.6,0.44,1.84,2.56,1.84h1.561v2.999h-2.6
			c-3.52,0-4.92-0.72-4.92-4.52v-13.157h-3.519v-3h3.519v-6.198h3.399V742.255z"/>
		<path fill="#333333" d="M1727.099,738.536h-3.399v-4.16h3.399V738.536z M1723.699,742.255h3.399v20.677h-3.399V742.255z"/>
		<path fill="#333333" d="M1741.298,741.775c6.559,0,10.038,4.759,10.038,10.838c0,6.039-3.479,10.798-10.038,10.798
			c-6.56,0-10.039-4.759-10.039-10.798C1731.259,746.534,1734.738,741.775,1741.298,741.775z M1741.298,760.412
			c3.559,0,6.438-2.8,6.438-7.799s-2.88-7.839-6.438-7.839c-3.56,0-6.439,2.84-6.439,7.839S1737.738,760.412,1741.298,760.412z"/>
		<path fill="#333333" d="M1755.339,742.255h3.199v3.279h0.08c1.439-2.56,3.72-3.759,6.719-3.759c5.439,0,7.119,3.119,7.119,7.559
			v13.598h-3.399v-13.998c0-2.56-1.6-4.159-4.199-4.159c-4.119,0-6.119,2.76-6.119,6.479v11.678h-3.399V742.255z"/>
		<path fill="#333333" d="M1792.299,738.536h-3.399v-4.16h3.399V738.536z M1788.899,742.255h3.399v20.677h-3.399V742.255z"/>
		<path fill="#333333" d="M1797.578,742.255h3.199v3.279h0.08c1.439-2.56,3.72-3.759,6.719-3.759c5.439,0,7.119,3.119,7.119,7.559
			v13.598h-3.399v-13.998c0-2.56-1.6-4.159-4.199-4.159c-4.119,0-6.119,2.76-6.119,6.479v11.678h-3.399V742.255z"/>
		<path fill="#333333" d="M1325.382,812.852c-0.601,0.36-1.44,0.56-2.44,0.56c-1.76,0-2.879-0.959-2.879-3.199
			c-1.88,2.24-4.399,3.199-7.279,3.199c-3.759,0-6.839-1.64-6.839-5.799c0-4.679,3.479-5.719,6.999-6.358
			c3.72-0.76,6.959-0.44,6.959-3.04c0-2.999-2.479-3.439-4.6-3.439c-2.879,0-4.999,0.88-5.159,3.92h-3.399
			c0.2-5.119,4.12-6.919,8.759-6.919c3.72,0,7.759,0.84,7.759,5.679v10.639c0,1.6,0,2.319,1.08,2.319c0.319,0,0.68-0.08,1.04-0.2
			V812.852z M1319.862,802.254c-2.64,1.959-10.318,0.039-10.318,5.119c0,2.239,1.92,3.039,3.999,3.039
			c4.479,0,6.319-2.76,6.319-4.68V802.254z"/>
		<path fill="#333333" d="M1356.781,812.932h-3.199v-3.279h-0.08c-1.44,2.56-3.72,3.759-6.719,3.759
			c-5.439,0-7.119-3.119-7.119-7.559v-13.598h3.399v13.998c0,2.56,1.6,4.159,4.199,4.159c4.119,0,6.119-2.76,6.119-6.479v-11.679
			h3.399V812.932z"/>
		<path fill="#333333" d="M1361.904,792.255h3.199v3.279h0.08c1.439-2.56,3.72-3.759,6.719-3.759c5.439,0,7.119,3.119,7.119,7.559
			v13.598h-3.399v-13.998c0-2.56-1.6-4.159-4.199-4.159c-4.119,0-6.119,2.76-6.119,6.479v11.678h-3.399V792.255z"/>
		<path fill="#333333" d="M1387.744,788.536h-3.399v-4.16h3.399V788.536z M1384.345,792.255h3.399v20.677h-3.399V792.255z"/>
		<path fill="#333333" d="M1411.5,820.851h-3.399v-10.719h-0.08c-1.119,2.28-3.719,3.279-6.599,3.279
			c-6.358,0-9.519-5.039-9.519-10.878s3.12-10.758,9.438-10.758c2.08,0,5.199,0.8,6.679,3.239h0.08v-2.76h3.399V820.851z
			 M1401.902,810.412c4.599,0,6.318-3.959,6.318-7.799c0-4.039-1.84-7.839-6.519-7.839c-4.64,0-6.199,3.96-6.199,7.999
			C1395.503,806.652,1397.503,810.412,1401.902,810.412z"/>
		<path fill="#333333" d="M1433.86,812.932h-3.199v-3.279h-0.08c-1.44,2.56-3.72,3.759-6.719,3.759
			c-5.439,0-7.119-3.119-7.119-7.559v-13.598h3.399v13.998c0,2.56,1.6,4.159,4.199,4.159c4.119,0,6.119-2.76,6.119-6.479v-11.679
			h3.399V812.932z"/>
		<path fill="#333333" d="M1456.62,806.373c-0.92,4.599-4.159,7.038-8.838,7.038c-6.6,0-9.719-4.599-9.919-10.878
			c0-6.238,4.08-10.758,9.719-10.758c7.318,0,9.559,6.839,9.358,11.838h-15.478c-0.12,3.6,1.92,6.799,6.439,6.799
			c2.839,0,4.759-1.32,5.358-4.039H1456.62z M1453.341,800.613c-0.2-3.239-2.56-5.839-5.959-5.839c-3.52,0-5.719,2.64-5.919,5.839
			H1453.341z"/>
		<path fill="#333333" d="M1471.583,792.255h3.199v3.279h0.08c1.439-2.56,3.72-3.759,6.719-3.759c5.439,0,7.119,3.119,7.119,7.559
			v13.598h-3.399v-13.998c0-2.56-1.6-4.159-4.199-4.159c-4.119,0-6.119,2.76-6.119,6.479v11.678h-3.399V792.255z"/>
		<path fill="#333333" d="M1511.46,806.373c-0.92,4.599-4.159,7.038-8.838,7.038c-6.6,0-9.719-4.599-9.919-10.878
			c0-6.238,4.08-10.758,9.719-10.758c7.318,0,9.559,6.839,9.358,11.838h-15.478c-0.12,3.6,1.92,6.799,6.439,6.799
			c2.839,0,4.759-1.32,5.358-4.039H1511.46z M1508.181,800.613c-0.2-3.239-2.56-5.839-5.959-5.839c-3.52,0-5.719,2.64-5.919,5.839
			H1508.181z"/>
		<path fill="#333333" d="M1535.779,812.932h-3.6l-4.199-16.438h-0.08l-4.159,16.438h-3.68l-6.639-20.677h3.76l4.679,16.917h0.08
			l4.159-16.917h3.72l4.319,16.917h0.08l4.639-16.917h3.52L1535.779,812.932z"/>
		<path fill="#333333" d="M1557.303,784.376h9.799c8.799,0,13.718,4.439,13.718,13.599c0,9.558-4.199,14.957-13.718,14.957h-9.799
			V784.376z M1561.103,809.732h6.318c2.6,0,9.599-0.72,9.599-11.238c0-6.799-2.52-10.918-9.519-10.918h-6.398V809.732z"/>
		<path fill="#333333" d="M1585.463,784.376h3.8v12.278h15.037v-12.278h3.8v28.556h-3.8v-13.078h-15.037v13.078h-3.8V784.376z"/>
		<path fill="#333333" d="M1614.343,784.376h13.438c5.398,0,8.678,2.88,8.678,7.479c0,3.479-1.479,6.278-4.959,7.238v0.08
			c3.319,0.64,3.96,3.119,4.279,5.879c0.2,2.76,0.08,5.959,1.68,7.879h-4.239c-1.08-1.16-0.479-4.239-1.04-7.039
			c-0.439-2.76-1.079-5.159-4.759-5.159h-9.278v12.198h-3.8V784.376z M1626.062,797.534c3.519,0,6.599-0.92,6.599-5.079
			c0-2.84-1.52-4.879-5.079-4.879h-9.438v9.958H1626.062z"/>
		<path fill="#333333" d="M1652.184,792.255h3.199v4.359h0.08c1.64-3.359,3.92-4.959,7.599-4.839v3.6
			c-5.479,0-7.479,3.079-7.479,8.358v9.198h-3.399V792.255z"/>
		<path fill="#333333" d="M1683.26,806.373c-0.92,4.599-4.159,7.038-8.838,7.038c-6.6,0-9.719-4.599-9.919-10.878
			c0-6.238,4.08-10.758,9.719-10.758c7.318,0,9.559,6.839,9.358,11.838h-15.478c-0.12,3.6,1.92,6.799,6.439,6.799
			c2.839,0,4.759-1.32,5.358-4.039H1683.26z M1679.98,800.613c-0.2-3.239-2.56-5.839-5.959-5.839c-3.52,0-5.719,2.64-5.919,5.839
			H1679.98z"/>
		<path fill="#333333" d="M1701.141,798.894c-0.521-2.599-2.28-4.119-5.119-4.119c-4.92,0-6.439,3.92-6.439,8.079
			c0,3.839,1.72,7.559,6.039,7.559c3.319,0,5.239-1.88,5.679-5.039h3.479c-0.76,5.079-3.879,8.038-9.118,8.038
			c-6.319,0-9.679-4.358-9.679-10.558s3.2-11.078,9.759-11.078c4.719,0,8.398,2.199,8.918,7.118H1701.141z"/>
		<path fill="#333333" d="M1717.501,791.775c6.559,0,10.038,4.759,10.038,10.838c0,6.039-3.479,10.798-10.038,10.798
			c-6.56,0-10.039-4.759-10.039-10.798C1707.462,796.534,1710.941,791.775,1717.501,791.775z M1717.501,810.412
			c3.559,0,6.438-2.8,6.438-7.799s-2.88-7.839-6.438-7.839c-3.56,0-6.439,2.84-6.439,7.839S1713.941,810.412,1717.501,810.412z"/>
		<path fill="#333333" d="M1731.422,792.255h3.199v4.359h0.08c1.64-3.359,3.92-4.959,7.599-4.839v3.6
			c-5.479,0-7.479,3.079-7.479,8.358v9.198h-3.399V792.255z"/>
		<path fill="#333333" d="M1763.338,812.932h-3.399v-2.8h-0.08c-1.119,2.28-3.719,3.279-6.599,3.279
			c-6.358,0-9.519-5.039-9.519-10.878s3.12-10.758,9.438-10.758c2.08,0,5.199,0.8,6.679,3.239h0.08v-10.639h3.399V812.932z
			 M1753.74,810.412c4.599,0,6.318-3.959,6.318-7.799c0-4.039-1.84-7.839-6.519-7.839c-4.64,0-6.199,3.96-6.199,7.999
			C1747.341,806.652,1749.341,810.412,1753.74,810.412z"/>
	</g>
</g>
<g>
	<path fill="#333333" d="M245.522,597.197h6.279v28.556h-6.279V597.197z"/>
	<path fill="#333333" d="M256.722,605.076h5.399v2.88h0.12c1.44-2.36,3.919-3.439,6.319-3.439c6.039,0,7.559,3.399,7.559,8.519
		v12.718h-5.679v-11.679c0-3.399-0.96-5.079-3.64-5.079c-3.079,0-4.399,1.72-4.399,5.919v10.839h-5.679V605.076z"/>
	<path fill="#333333" d="M284.841,619.034c0,2.439,2.16,3.479,4.359,3.479c1.6,0,3.72-0.641,3.72-2.64c0-1.72-2.4-2.36-6.439-3.2
		c-3.319-0.76-6.559-1.839-6.559-5.519c0-5.279,4.559-6.639,8.999-6.639c4.479,0,8.679,1.52,9.119,6.599h-5.399
		c-0.16-2.2-1.839-2.8-3.879-2.8c-1.28,0-3.159,0.2-3.159,1.92c0,2.04,3.239,2.319,6.439,3.079c3.319,0.76,6.559,1.96,6.559,5.8
		c0,5.438-4.759,7.198-9.438,7.198c-4.799,0-9.518-1.8-9.718-7.278H284.841z"/>
	<path fill="#333333" d="M309.12,605.076h4.159v3.8h-4.159v10.238c0,1.919,0.48,2.399,2.399,2.399c0.64,0,1.24-0.04,1.76-0.16v4.439
		c-0.959,0.16-2.2,0.199-3.319,0.199c-3.52,0-6.519-0.76-6.519-4.919v-12.197h-3.439v-3.8h3.439v-6.199h5.679V605.076z"/>
	<path fill="#333333" d="M315.761,611.436c0.32-5.279,5.08-6.919,9.719-6.919c4.119,0,9.078,0.92,9.078,5.879v10.758
		c0,1.88,0.2,3.76,0.72,4.6h-5.759c-0.2-0.641-0.36-1.32-0.4-2c-1.8,1.88-4.399,2.56-6.958,2.56c-3.959,0-7.039-1.96-7.039-6.199
		c0.08-9.398,13.998-4.359,13.758-8.998c0-2.399-1.68-2.8-3.68-2.8c-2.199,0-3.559,0.88-3.759,3.12H315.761z M328.879,615.635
		c-0.96,0.84-2.959,0.88-4.719,1.199c-1.76,0.32-3.359,0.96-3.359,3.04c0,2.079,1.64,2.64,3.479,2.64
		c4.439,0,4.599-3.479,4.599-4.76V615.635z"/>
	<path fill="#333333" d="M339.121,597.197h5.679v28.556h-5.679V597.197z"/>
	<path fill="#333333" d="M349.44,597.197h5.679v28.556h-5.679V597.197z"/>
	<path fill="#333333" d="M364.279,616.794c0.16,3.64,1.88,5.239,5.079,5.239c2.28,0,4.119-1.399,4.479-2.68h4.999
		c-1.6,4.919-4.999,6.959-9.678,6.959c-6.519,0-10.559-4.479-10.559-10.878c0-6.199,4.279-10.918,10.559-10.918
		c7.039,0,10.478,5.919,10.038,12.277H364.279z M373.518,613.194c-0.52-2.879-1.76-4.398-4.519-4.398
		c-3.679,0-4.599,2.799-4.719,4.398H373.518z"/>
	<path fill="#333333" d="M382.56,605.076h5.399v3.839h0.08c1.08-2.599,3.759-4.398,6.599-4.398c0.44,0,0.84,0.08,1.24,0.199v5.279
		c-0.52-0.12-1.36-0.2-2.04-0.2c-4.2,0-5.599,2.96-5.599,6.64v9.318h-5.679V605.076z"/>
	<path fill="#333333" d="M245.882,665.197h13.438c5.399,0,8.679,2.88,8.679,7.479c0,3.479-1.48,6.279-4.959,7.239v0.08
		c3.32,0.64,3.959,3.119,4.279,5.879c0.2,2.76,0.08,5.959,1.68,7.879h-4.239c-1.08-1.16-0.479-4.239-1.04-7.039
		c-0.44-2.76-1.08-5.159-4.759-5.159h-9.278v12.198h-3.799V665.197z M257.6,678.355c3.52,0,6.599-0.92,6.599-5.079
		c0-2.84-1.52-4.88-5.079-4.88h-9.438v9.959H257.6z"/>
	<path fill="#333333" d="M290.359,687.193c-0.92,4.6-4.16,7.039-8.839,7.039c-6.599,0-9.718-4.599-9.918-10.878
		c0-6.239,4.079-10.758,9.718-10.758c7.319,0,9.558,6.839,9.358,11.838h-15.478c-0.12,3.599,1.92,6.799,6.439,6.799
		c2.839,0,4.759-1.32,5.359-4.04H290.359z M287.08,681.435c-0.2-3.239-2.56-5.839-5.959-5.839c-3.519,0-5.719,2.64-5.919,5.839
		H287.08z"/>
	<path fill="#333333" d="M296.281,687.233c0.12,3.04,2.8,4,5.559,4c2.12,0,4.999-0.48,4.999-3.08c0-5.318-13.518-1.72-13.518-9.678
		c0-4.159,4.08-5.879,7.719-5.879c4.639,0,8.159,1.439,8.479,6.479h-3.399c-0.2-2.64-2.6-3.479-4.799-3.479
		c-2.04,0-4.399,0.56-4.399,2.64c0,2.399,3.599,2.88,6.759,3.6c3.399,0.76,6.759,1.919,6.759,5.879c0,4.959-4.599,6.519-8.798,6.519
		c-4.64,0-8.559-1.88-8.759-6.999H296.281z"/>
	<path fill="#333333" d="M314.322,673.076h3.399v2.8h0.08c1.12-2.28,3.719-3.279,6.599-3.279c6.359,0,9.519,5.039,9.519,10.878
		c0,5.879-3.12,10.758-9.438,10.758c-2.08,0-5.199-0.8-6.679-3.239h-0.08v10.678h-3.399V673.076z M323.92,675.596
		c-4.599,0-6.319,3.959-6.319,7.799c0,4.039,1.84,7.839,6.519,7.839c4.639,0,6.199-3.96,6.199-7.999
		C330.319,679.355,328.319,675.596,323.92,675.596z"/>
	<path fill="#333333" d="M346.839,672.597c6.559,0,10.039,4.759,10.039,10.838c0,6.039-3.479,10.798-10.039,10.798
		s-10.038-4.759-10.038-10.798C336.801,677.355,340.28,672.597,346.839,672.597z M346.839,691.233c3.56,0,6.439-2.8,6.439-7.799
		s-2.879-7.839-6.439-7.839s-6.439,2.84-6.439,7.839S343.28,691.233,346.839,691.233z"/>
	<path fill="#333333" d="M360.88,673.076h3.2v3.279h0.08c1.44-2.56,3.72-3.759,6.719-3.759c5.439,0,7.119,3.119,7.119,7.559v13.598
		h-3.399v-13.998c0-2.56-1.6-4.159-4.199-4.159c-4.12,0-6.119,2.76-6.119,6.479v11.679h-3.399V673.076z"/>
	<path fill="#333333" d="M385.2,687.233c0.12,3.04,2.8,4,5.559,4c2.12,0,4.999-0.48,4.999-3.08c0-5.318-13.518-1.72-13.518-9.678
		c0-4.159,4.079-5.879,7.719-5.879c4.639,0,8.159,1.439,8.479,6.479h-3.399c-0.2-2.64-2.6-3.479-4.799-3.479
		c-2.04,0-4.399,0.56-4.399,2.64c0,2.399,3.599,2.88,6.759,3.6c3.399,0.76,6.759,1.919,6.759,5.879c0,4.959-4.599,6.519-8.798,6.519
		c-4.64,0-8.559-1.88-8.759-6.999H385.2z"/>
	<path fill="#333333" d="M406.72,669.356h-3.399v-4.159h3.399V669.356z M403.32,673.076h3.399v20.677h-3.399V673.076z"/>
	<path fill="#333333" d="M412.12,665.197h3.399v10.679h0.08c1.12-2.28,3.719-3.279,6.599-3.279c6.359,0,9.519,5.039,9.519,10.878
		c0,5.879-3.12,10.758-9.438,10.758c-2.08,0-5.199-0.8-6.679-3.239h-0.08v2.76h-3.399V665.197z M421.718,675.596
		c-4.599,0-6.319,3.959-6.319,7.799c0,4.039,1.84,7.839,6.519,7.839c4.639,0,6.199-3.96,6.199-7.999
		C428.117,679.355,426.117,675.596,421.718,675.596z"/>
	<path fill="#333333" d="M435.919,665.197h3.399v28.556h-3.399V665.197z"/>
	<path fill="#333333" d="M462.235,687.193c-0.92,4.6-4.16,7.039-8.839,7.039c-6.599,0-9.718-4.599-9.918-10.878
		c0-6.239,4.079-10.758,9.718-10.758c7.319,0,9.558,6.839,9.358,11.838h-15.478c-0.12,3.599,1.92,6.799,6.439,6.799
		c2.839,0,4.759-1.32,5.359-4.04H462.235z M458.956,681.435c-0.2-3.239-2.56-5.839-5.959-5.839c-3.519,0-5.719,2.64-5.919,5.839
		H458.956z"/>
	<path fill="#333333" d="M478.598,676.075h-3.479v-2.999h3.479v-3.079c0-3.359,2-5.119,5.719-5.119c0.64,0,1.56,0.119,2.2,0.319
		v2.96c-0.6-0.2-1.32-0.28-1.919-0.28c-1.64,0-2.6,0.52-2.6,2.319v2.88h3.999v2.999h-3.999v17.678h-3.399V676.075z"/>
	<path fill="#333333" d="M497.956,672.597c6.559,0,10.039,4.759,10.039,10.838c0,6.039-3.479,10.798-10.039,10.798
		s-10.038-4.759-10.038-10.798C487.917,677.355,491.396,672.597,497.956,672.597z M497.956,691.233c3.56,0,6.439-2.8,6.439-7.799
		s-2.879-7.839-6.439-7.839s-6.439,2.84-6.439,7.839S494.396,691.233,497.956,691.233z"/>
	<path fill="#333333" d="M511.876,673.076h3.2v4.359h0.08c1.64-3.359,3.919-4.959,7.599-4.839v3.599
		c-5.479,0-7.479,3.08-7.479,8.359v9.198h-3.399V673.076z"/>
	<path fill="#333333" d="M536.557,673.076h3.399v2.8h0.08c1.12-2.28,3.719-3.279,6.599-3.279c6.359,0,9.519,5.039,9.519,10.878
		c0,5.879-3.12,10.758-9.438,10.758c-2.08,0-5.199-0.8-6.679-3.239h-0.08v10.678h-3.399V673.076z M546.155,675.596
		c-4.599,0-6.319,3.959-6.319,7.799c0,4.039,1.84,7.839,6.519,7.839c4.639,0,6.199-3.96,6.199-7.999
		C552.554,679.355,550.554,675.596,546.155,675.596z"/>
	<path fill="#333333" d="M577.793,687.193c-0.92,4.6-4.16,7.039-8.839,7.039c-6.599,0-9.718-4.599-9.918-10.878
		c0-6.239,4.079-10.758,9.718-10.758c7.319,0,9.558,6.839,9.358,11.838h-15.478c-0.12,3.599,1.92,6.799,6.439,6.799
		c2.839,0,4.759-1.32,5.359-4.04H577.793z M574.514,681.435c-0.2-3.239-2.56-5.839-5.959-5.839c-3.519,0-5.719,2.64-5.919,5.839
		H574.514z"/>
	<path fill="#333333" d="M581.516,673.076h3.2v4.359h0.08c1.64-3.359,3.919-4.959,7.599-4.839v3.599
		c-5.479,0-7.479,3.08-7.479,8.359v9.198h-3.399V673.076z"/>
	<path fill="#333333" d="M596.355,676.075h-3.479v-2.999h3.479v-3.079c0-3.359,2-5.119,5.719-5.119c0.64,0,1.56,0.119,2.2,0.319
		v2.96c-0.6-0.2-1.32-0.28-1.919-0.28c-1.64,0-2.6,0.52-2.6,2.319v2.88h3.999v2.999h-3.999v17.678h-3.399V676.075z"/>
	<path fill="#333333" d="M615.713,672.597c6.559,0,10.039,4.759,10.039,10.838c0,6.039-3.479,10.798-10.039,10.798
		s-10.038-4.759-10.038-10.798C605.675,677.355,609.154,672.597,615.713,672.597z M615.713,691.233c3.56,0,6.439-2.8,6.439-7.799
		s-2.879-7.839-6.439-7.839s-6.439,2.84-6.439,7.839S612.154,691.233,615.713,691.233z"/>
	<path fill="#333333" d="M629.634,673.076h3.2v4.359h0.08c1.64-3.359,3.919-4.959,7.599-4.839v3.599
		c-5.479,0-7.479,3.08-7.479,8.359v9.198h-3.399V673.076z"/>
	<path fill="#333333" d="M643.074,673.076h3.199v3.039h0.08c1.56-2.359,3.76-3.519,6.679-3.519c2.56,0,4.839,0.959,5.679,3.519
		c1.4-2.239,3.799-3.519,6.479-3.519c4.119,0,6.879,1.72,6.879,5.999v15.157h-3.399v-13.558c0-2.56-0.68-4.6-4-4.6
		c-3.319,0-5.399,2.08-5.399,5.279v12.878h-3.399v-13.558c0-2.68-0.84-4.6-3.879-4.6c-4,0-5.519,3.68-5.519,5.279v12.878h-3.399
		V673.076z"/>
	<path fill="#333333" d="M680.794,669.356h-3.399v-4.159h3.399V669.356z M677.395,673.076h3.399v20.677h-3.399V673.076z"/>
	<path fill="#333333" d="M686.074,673.076h3.2v3.279h0.08c1.44-2.56,3.72-3.759,6.719-3.759c5.439,0,7.119,3.119,7.119,7.559v13.598
		h-3.399v-13.998c0-2.56-1.6-4.159-4.199-4.159c-4.12,0-6.119,2.76-6.119,6.479v11.679h-3.399V673.076z"/>
	<path fill="#333333" d="M726.15,691.993c0,6.759-3.04,10.158-9.598,10.158c-3.879,0-8.359-1.6-8.559-6.079h3.399
		c0.12,2.439,3.159,3.359,5.359,3.359c4.439,0,6.199-3.199,6.199-7.839v-1.359h-0.08c-1.16,2.52-3.799,3.759-6.439,3.759
		c-6.159,0-9.238-4.839-9.238-10.478c0-4.88,2.359-10.918,9.558-10.918c2.6,0,4.919,1.159,6.159,3.439h0.04v-2.96h3.199V691.993z
		 M722.791,682.994c0-3.639-1.6-7.398-5.879-7.398c-4.359,0-6.119,3.56-6.119,7.519c0,3.72,1.36,7.879,5.839,7.879
		C721.111,690.993,722.791,686.874,722.791,682.994z"/>
	<path fill="#333333" d="M760.71,693.673c-0.6,0.359-1.44,0.56-2.439,0.56c-1.76,0-2.879-0.96-2.879-3.199
		c-1.88,2.239-4.399,3.199-7.279,3.199c-3.76,0-6.839-1.64-6.839-5.799c0-4.68,3.479-5.719,6.999-6.359
		c3.719-0.76,6.959-0.439,6.959-3.039c0-2.999-2.479-3.439-4.599-3.439c-2.88,0-5,0.88-5.159,3.919h-3.399
		c0.2-5.119,4.119-6.918,8.758-6.918c3.719,0,7.759,0.84,7.759,5.679v10.638c0,1.601,0,2.32,1.08,2.32c0.32,0,0.68-0.08,1.04-0.2
		V693.673z M755.191,683.074c-2.64,1.96-10.318,0.04-10.318,5.119c0,2.24,1.92,3.04,4,3.04c4.479,0,6.319-2.76,6.319-4.68V683.074z"
		/>
	<path fill="#333333" d="M763.873,673.076h3.2v3.279h0.08c1.44-2.56,3.72-3.759,6.719-3.759c5.439,0,7.119,3.119,7.119,7.559v13.598
		h-3.399v-13.998c0-2.56-1.6-4.159-4.199-4.159c-4.12,0-6.119,2.76-6.119,6.479v11.679h-3.399V673.076z"/>
	<path fill="#333333" d="M248.922,717.356h-3.399v-4.159h3.399V717.356z M245.522,721.076h3.399v20.677h-3.399V721.076z"/>
	<path fill="#333333" d="M254.202,721.076h3.2v3.279h0.08c1.44-2.56,3.72-3.759,6.719-3.759c5.439,0,7.119,3.119,7.119,7.559v13.598
		h-3.399v-13.998c0-2.56-1.6-4.159-4.199-4.159c-4.12,0-6.119,2.76-6.119,6.479v11.679h-3.399V721.076z"/>
	<path fill="#333333" d="M278.521,735.233c0.12,3.04,2.8,4,5.559,4c2.12,0,4.999-0.48,4.999-3.08c0-5.318-13.518-1.72-13.518-9.678
		c0-4.159,4.079-5.879,7.719-5.879c4.639,0,8.159,1.439,8.479,6.479h-3.399c-0.2-2.64-2.6-3.479-4.799-3.479
		c-2.04,0-4.399,0.56-4.399,2.64c0,2.399,3.599,2.88,6.759,3.6c3.399,0.76,6.759,1.919,6.759,5.879c0,4.959-4.599,6.519-8.798,6.519
		c-4.64,0-8.559-1.88-8.759-6.999H278.521z"/>
	<path fill="#333333" d="M301.161,721.076h4.119v2.999h-4.119v12.838c0,1.601,0.44,1.84,2.56,1.84h1.56v3h-2.6
		c-3.519,0-4.919-0.72-4.919-4.52v-13.158h-3.52v-2.999h3.52v-6.199h3.399V721.076z"/>
	<path fill="#333333" d="M327.358,741.673c-0.6,0.359-1.44,0.56-2.439,0.56c-1.76,0-2.879-0.96-2.879-3.199
		c-1.88,2.239-4.399,3.199-7.279,3.199c-3.76,0-6.839-1.64-6.839-5.799c0-4.68,3.479-5.719,6.999-6.359
		c3.72-0.76,6.959-0.439,6.959-3.039c0-2.999-2.479-3.439-4.599-3.439c-2.88,0-5,0.88-5.159,3.919h-3.399
		c0.2-5.119,4.119-6.918,8.758-6.918c3.72,0,7.759,0.84,7.759,5.679v10.638c0,1.601,0,2.32,1.08,2.32c0.32,0,0.68-0.08,1.04-0.2
		V741.673z M321.839,731.074c-2.64,1.96-10.318,0.04-10.318,5.119c0,2.24,1.92,3.04,4,3.04c4.479,0,6.319-2.76,6.319-4.68V731.074z"
		/>
	<path fill="#333333" d="M330.721,713.197h3.399v28.556h-3.399V713.197z"/>
	<path fill="#333333" d="M339.6,713.197H343v28.556H339.6V713.197z"/>
	<path fill="#333333" d="M366.596,741.673c-0.6,0.359-1.44,0.56-2.439,0.56c-1.76,0-2.879-0.96-2.879-3.199
		c-1.88,2.239-4.399,3.199-7.279,3.199c-3.76,0-6.839-1.64-6.839-5.799c0-4.68,3.479-5.719,6.999-6.359
		c3.72-0.76,6.959-0.439,6.959-3.039c0-2.999-2.479-3.439-4.599-3.439c-2.88,0-5,0.88-5.159,3.919h-3.399
		c0.2-5.119,4.119-6.918,8.758-6.918c3.72,0,7.759,0.84,7.759,5.679v10.638c0,1.601,0,2.32,1.08,2.32c0.32,0,0.68-0.08,1.04-0.2
		V741.673z M361.077,731.074c-2.64,1.96-10.318,0.04-10.318,5.119c0,2.24,1.92,3.04,4,3.04c4.479,0,6.319-2.76,6.319-4.68V731.074z"
		/>
	<path fill="#333333" d="M374.478,721.076h4.119v2.999h-4.119v12.838c0,1.601,0.44,1.84,2.56,1.84h1.56v3h-2.6
		c-3.519,0-4.919-0.72-4.919-4.52v-13.158h-3.52v-2.999h3.52v-6.199h3.399V721.076z"/>
	<path fill="#333333" d="M385.958,717.356h-3.399v-4.159h3.399V717.356z M382.559,721.076h3.399v20.677h-3.399V721.076z"/>
	<path fill="#333333" d="M400.156,720.597c6.559,0,10.039,4.759,10.039,10.838c0,6.039-3.479,10.798-10.039,10.798
		s-10.038-4.759-10.038-10.798C390.118,725.355,393.597,720.597,400.156,720.597z M400.156,739.233c3.56,0,6.439-2.8,6.439-7.799
		s-2.879-7.839-6.439-7.839s-6.439,2.84-6.439,7.839S396.597,739.233,400.156,739.233z"/>
	<path fill="#333333" d="M414.197,721.076h3.199v3.279h0.08c1.44-2.56,3.72-3.759,6.719-3.759c5.439,0,7.119,3.119,7.119,7.559
		v13.598h-3.399v-13.998c0-2.56-1.6-4.159-4.199-4.159c-4.12,0-6.119,2.76-6.119,6.479v11.679h-3.399V721.076z"/>
	<path fill="#333333" d="M452.277,721.076h4.119v2.999h-4.119v12.838c0,1.601,0.44,1.84,2.56,1.84h1.56v3h-2.6
		c-3.519,0-4.919-0.72-4.919-4.52v-13.158h-3.52v-2.999h3.52v-6.199h3.399V721.076z"/>
	<path fill="#333333" d="M469.076,720.597c6.559,0,10.039,4.759,10.039,10.838c0,6.039-3.479,10.798-10.039,10.798
		s-10.038-4.759-10.038-10.798C459.038,725.355,462.517,720.597,469.076,720.597z M469.076,739.233c3.56,0,6.439-2.8,6.439-7.799
		s-2.879-7.839-6.439-7.839s-6.439,2.84-6.439,7.839S465.516,739.233,469.076,739.233z"/>
	<path fill="#333333" d="M494.357,721.076h3.399v2.8h0.08c1.12-2.28,3.719-3.279,6.599-3.279c6.359,0,9.519,5.039,9.519,10.878
		c0,5.879-3.12,10.758-9.438,10.758c-2.08,0-5.199-0.8-6.679-3.239h-0.08v10.678h-3.399V721.076z M503.955,723.596
		c-4.599,0-6.319,3.959-6.319,7.799c0,4.039,1.84,7.839,6.519,7.839c4.639,0,6.199-3.96,6.199-7.999
		C510.354,727.355,508.354,723.596,503.955,723.596z"/>
	<path fill="#333333" d="M517.836,721.076h3.2v4.359h0.08c1.64-3.359,3.919-4.959,7.599-4.839v3.599
		c-5.479,0-7.479,3.08-7.479,8.359v9.198h-3.399V721.076z"/>
	<path fill="#333333" d="M548.913,735.193c-0.92,4.6-4.16,7.039-8.839,7.039c-6.599,0-9.718-4.599-9.918-10.878
		c0-6.239,4.079-10.758,9.718-10.758c7.319,0,9.558,6.839,9.358,11.838h-15.478c-0.12,3.599,1.92,6.799,6.439,6.799
		c2.839,0,4.759-1.32,5.359-4.04H548.913z M545.633,729.435c-0.2-3.239-2.56-5.839-5.959-5.839c-3.519,0-5.719,2.64-5.919,5.839
		H545.633z"/>
	<path fill="#333333" d="M552.875,721.076h3.399v2.8h0.08c1.12-2.28,3.719-3.279,6.599-3.279c6.359,0,9.519,5.039,9.519,10.878
		c0,5.879-3.12,10.758-9.438,10.758c-2.08,0-5.199-0.8-6.679-3.239h-0.08v10.678h-3.399V721.076z M562.474,723.596
		c-4.599,0-6.319,3.959-6.319,7.799c0,4.039,1.84,7.839,6.519,7.839c4.639,0,6.199-3.96,6.199-7.999
		C568.873,727.355,566.873,723.596,562.474,723.596z"/>
	<path fill="#333333" d="M594.792,741.673c-0.6,0.359-1.44,0.56-2.439,0.56c-1.76,0-2.879-0.96-2.879-3.199
		c-1.88,2.239-4.399,3.199-7.279,3.199c-3.76,0-6.839-1.64-6.839-5.799c0-4.68,3.479-5.719,6.999-6.359
		c3.72-0.76,6.959-0.439,6.959-3.039c0-2.999-2.479-3.439-4.599-3.439c-2.88,0-5,0.88-5.159,3.919h-3.399
		c0.2-5.119,4.119-6.918,8.758-6.918c3.72,0,7.759,0.84,7.759,5.679v10.638c0,1.601,0,2.32,1.08,2.32c0.32,0,0.68-0.08,1.04-0.2
		V741.673z M589.272,731.074c-2.64,1.96-10.318,0.04-10.318,5.119c0,2.24,1.92,3.04,4,3.04c4.479,0,6.319-2.76,6.319-4.68V731.074z"
		/>
	<path fill="#333333" d="M597.834,721.076h3.2v4.359h0.08c1.64-3.359,3.919-4.959,7.599-4.839v3.599
		c-5.479,0-7.479,3.08-7.479,8.359v9.198h-3.399V721.076z"/>
	<path fill="#333333" d="M628.911,735.193c-0.92,4.6-4.16,7.039-8.839,7.039c-6.599,0-9.718-4.599-9.918-10.878
		c0-6.239,4.079-10.758,9.718-10.758c7.319,0,9.558,6.839,9.358,11.838h-15.478c-0.12,3.599,1.92,6.799,6.439,6.799
		c2.839,0,4.759-1.32,5.359-4.04H628.911z M625.631,729.435c-0.2-3.239-2.56-5.839-5.959-5.839c-3.519,0-5.719,2.64-5.919,5.839
		H625.631z"/>
	<path fill="#333333" d="M648.593,721.076h4.119v2.999h-4.119v12.838c0,1.601,0.44,1.84,2.56,1.84h1.56v3h-2.6
		c-3.519,0-4.919-0.72-4.919-4.52v-13.158h-3.52v-2.999h3.52v-6.199h3.399V721.076z"/>
	<path fill="#333333" d="M656.473,713.197h3.399v10.918h0.08c1.08-2.52,4.079-3.519,6.519-3.519c5.439,0,7.119,3.119,7.119,7.559
		v13.598h-3.399v-13.998c0-2.56-1.6-4.159-4.199-4.159c-4.12,0-6.119,2.76-6.119,6.479v11.679h-3.399V713.197z"/>
	<path fill="#333333" d="M696.35,735.193c-0.92,4.6-4.16,7.039-8.839,7.039c-6.599,0-9.718-4.599-9.918-10.878
		c0-6.239,4.079-10.758,9.718-10.758c7.319,0,9.558,6.839,9.358,11.838h-15.478c-0.12,3.599,1.92,6.799,6.439,6.799
		c2.839,0,4.759-1.32,5.359-4.04H696.35z M693.07,729.435c-0.2-3.239-2.56-5.839-5.959-5.839c-3.519,0-5.719,2.64-5.919,5.839
		H693.07z"/>
	<path fill="#333333" d="M257.96,760.518c9.079,0,13.678,7.159,13.678,14.957c0,7.799-4.599,14.958-13.678,14.958
		c-9.078,0-13.678-7.159-13.678-14.958C244.282,767.677,248.882,760.518,257.96,760.518z M257.96,787.233
		c6.959,0,9.878-5.999,9.878-11.759c0-5.759-2.919-11.758-9.878-11.758c-6.958,0-9.878,5.999-9.878,11.758
		C248.082,781.234,251.001,787.233,257.96,787.233z"/>
	<path fill="#333333" d="M277.122,772.075h-3.479v-2.999h3.479v-3.079c0-3.359,2-5.119,5.719-5.119c0.64,0,1.56,0.119,2.2,0.319
		v2.96c-0.6-0.2-1.32-0.28-1.919-0.28c-1.64,0-2.6,0.52-2.6,2.319v2.88h3.999v2.999h-3.999v17.678h-3.399V772.075z"/>
	<path fill="#333333" d="M288.961,772.075h-3.479v-2.999h3.479v-3.079c0-3.359,2-5.119,5.719-5.119c0.64,0,1.56,0.119,2.2,0.319
		v2.96c-0.6-0.2-1.32-0.28-1.919-0.28c-1.64,0-2.6,0.52-2.6,2.319v2.88h3.999v2.999h-3.999v17.678h-3.399V772.075z"/>
	<path fill="#333333" d="M317.039,783.193c-0.92,4.6-4.16,7.039-8.839,7.039c-6.599,0-9.718-4.599-9.918-10.878
		c0-6.239,4.079-10.758,9.718-10.758c7.319,0,9.558,6.839,9.358,11.838h-15.478c-0.12,3.599,1.92,6.799,6.439,6.799
		c2.839,0,4.759-1.32,5.359-4.04H317.039z M313.759,777.435c-0.2-3.239-2.56-5.839-5.959-5.839c-3.519,0-5.719,2.64-5.919,5.839
		H313.759z"/>
	<path fill="#333333" d="M320.761,769.076h3.2v4.359h0.08c1.64-3.359,3.919-4.959,7.599-4.839v3.599
		c-5.479,0-7.479,3.08-7.479,8.359v9.198h-3.399V769.076z"/>
	<path fill="#333333" d="M337.8,765.356h-3.399v-4.159h3.399V765.356z M334.401,769.076h3.399v20.677h-3.399V769.076z"/>
	<path fill="#333333" d="M343.08,769.076h3.199v3.279h0.08c1.44-2.56,3.72-3.759,6.719-3.759c5.439,0,7.119,3.119,7.119,7.559
		v13.598h-3.399v-13.998c0-2.56-1.6-4.159-4.199-4.159c-4.12,0-6.119,2.76-6.119,6.479v11.679h-3.399V769.076z"/>
	<path fill="#333333" d="M383.157,787.993c0,6.759-3.04,10.158-9.598,10.158c-3.879,0-8.359-1.6-8.559-6.079h3.399
		c0.12,2.439,3.159,3.359,5.359,3.359c4.439,0,6.199-3.199,6.199-7.839v-1.359h-0.08c-1.16,2.52-3.799,3.759-6.439,3.759
		c-6.159,0-9.238-4.839-9.238-10.478c0-4.88,2.359-10.918,9.558-10.918c2.6,0,4.919,1.159,6.159,3.439h0.04v-2.96h3.199V787.993z
		 M379.798,778.994c0-3.639-1.6-7.398-5.879-7.398c-4.359,0-6.119,3.56-6.119,7.519c0,3.72,1.36,7.879,5.839,7.879
		C378.118,786.993,379.798,782.874,379.798,778.994z"/>
	<path fill="#333333" d="M400.8,772.075h-3.479v-2.999h3.479v-3.079c0-3.359,2-5.119,5.719-5.119c0.64,0,1.56,0.119,2.2,0.319v2.96
		c-0.6-0.2-1.32-0.28-1.919-0.28c-1.64,0-2.6,0.52-2.6,2.319v2.88h3.999v2.999h-3.999v17.678H400.8V772.075z"/>
	<path fill="#333333" d="M420.158,768.597c6.559,0,10.039,4.759,10.039,10.838c0,6.039-3.479,10.798-10.039,10.798
		s-10.038-4.759-10.038-10.798C410.12,773.355,413.599,768.597,420.158,768.597z M420.158,787.233c3.56,0,6.439-2.8,6.439-7.799
		s-2.879-7.839-6.439-7.839s-6.439,2.84-6.439,7.839S416.598,787.233,420.158,787.233z"/>
	<path fill="#333333" d="M434.079,769.076h3.2v4.359h0.08c1.64-3.359,3.919-4.959,7.599-4.839v3.599
		c-5.479,0-7.479,3.08-7.479,8.359v9.198h-3.399V769.076z"/>
	<path fill="#333333" d="M477.116,789.753h-3.399v-2.8h-0.08c-1.12,2.279-3.719,3.279-6.599,3.279
		c-6.359,0-9.518-5.039-9.518-10.878s3.119-10.758,9.438-10.758c2.08,0,5.199,0.8,6.679,3.239h0.08v-10.639h3.399V789.753z
		 M467.517,787.233c4.599,0,6.319-3.96,6.319-7.799c0-4.039-1.839-7.839-6.519-7.839c-4.639,0-6.199,3.959-6.199,7.999
		C461.118,783.474,463.118,787.233,467.517,787.233z"/>
	<path fill="#333333" d="M499.996,783.193c-0.92,4.6-4.16,7.039-8.839,7.039c-6.599,0-9.718-4.599-9.918-10.878
		c0-6.239,4.079-10.758,9.718-10.758c7.319,0,9.558,6.839,9.358,11.838h-15.478c-0.12,3.599,1.92,6.799,6.439,6.799
		c2.839,0,4.759-1.32,5.359-4.04H499.996z M496.716,777.435c-0.2-3.239-2.56-5.839-5.959-5.839c-3.519,0-5.719,2.64-5.919,5.839
		H496.716z"/>
	<path fill="#333333" d="M504.038,761.197h3.399v28.556h-3.399V761.197z"/>
	<path fill="#333333" d="M516.317,765.356h-3.399v-4.159h3.399V765.356z M512.917,769.076h3.399v20.677h-3.399V769.076z"/>
	<path fill="#333333" d="M530.915,789.753h-3.639l-7.679-20.677h3.799l5.799,17.237h0.08l5.639-17.237h3.559L530.915,789.753z"/>
	<path fill="#333333" d="M559.234,783.193c-0.92,4.6-4.16,7.039-8.839,7.039c-6.599,0-9.718-4.599-9.918-10.878
		c0-6.239,4.079-10.758,9.718-10.758c7.319,0,9.558,6.839,9.358,11.838h-15.478c-0.12,3.599,1.92,6.799,6.439,6.799
		c2.839,0,4.759-1.32,5.359-4.04H559.234z M555.954,777.435c-0.2-3.239-2.56-5.839-5.959-5.839c-3.519,0-5.719,2.64-5.919,5.839
		H555.954z"/>
	<path fill="#333333" d="M562.956,769.076h3.2v4.359h0.08c1.64-3.359,3.919-4.959,7.599-4.839v3.599
		c-5.479,0-7.479,3.08-7.479,8.359v9.198h-3.399V769.076z"/>
	<path fill="#333333" d="M584.515,792.513c-1.6,3.999-2.959,5.519-5.999,5.519c-0.8,0-1.6-0.08-2.359-0.36v-3.119
		c0.64,0.2,1.319,0.48,2,0.48c1.4,0,2.16-0.641,2.799-1.88l1.4-3.52l-8.199-20.557h3.839l6.039,16.917h0.08l5.799-16.917h3.6
		L584.515,792.513z"/>
	<path fill="#333333" d="M612.235,769.076h4.119v2.999h-4.119v12.838c0,1.601,0.44,1.84,2.56,1.84h1.56v3h-2.6
		c-3.519,0-4.919-0.72-4.919-4.52v-13.158h-3.52v-2.999h3.52v-6.199h3.399V769.076z"/>
	<path fill="#333333" d="M629.034,768.597c6.559,0,10.039,4.759,10.039,10.838c0,6.039-3.479,10.798-10.039,10.798
		s-10.038-4.759-10.038-10.798C618.996,773.355,622.475,768.597,629.034,768.597z M629.034,787.233c3.56,0,6.439-2.8,6.439-7.799
		s-2.879-7.839-6.439-7.839s-6.439,2.84-6.439,7.839S625.475,787.233,629.034,787.233z"/>
	<path fill="#333333" d="M672.512,789.673c-0.6,0.359-1.44,0.56-2.439,0.56c-1.76,0-2.879-0.96-2.879-3.199
		c-1.88,2.239-4.399,3.199-7.279,3.199c-3.76,0-6.839-1.64-6.839-5.799c0-4.68,3.479-5.719,6.999-6.359
		c3.72-0.76,6.959-0.439,6.959-3.039c0-2.999-2.479-3.439-4.599-3.439c-2.88,0-5,0.88-5.159,3.919h-3.399
		c0.2-5.119,4.119-6.918,8.758-6.918c3.72,0,7.759,0.84,7.759,5.679v10.638c0,1.601,0,2.32,1.08,2.32c0.32,0,0.68-0.08,1.04-0.2
		V789.673z M666.993,779.074c-2.64,1.96-10.318,0.04-10.318,5.119c0,2.24,1.92,3.04,4,3.04c4.479,0,6.319-2.76,6.319-4.68V779.074z"
		/>
	<path fill="#333333" d="M700.833,775.715c-0.52-2.6-2.28-4.119-5.119-4.119c-4.919,0-6.439,3.919-6.439,8.079
		c0,3.839,1.72,7.559,6.039,7.559c3.319,0,5.239-1.88,5.679-5.039h3.479c-0.76,5.079-3.879,8.038-9.119,8.038
		c-6.319,0-9.678-4.359-9.678-10.558c0-6.199,3.199-11.078,9.758-11.078c4.719,0,8.398,2.199,8.918,7.118H700.833z"/>
	<path fill="#333333" d="M708.475,761.197h3.399v28.556h-3.399V761.197z"/>
	<path fill="#333333" d="M720.753,765.356h-3.399v-4.159h3.399V765.356z M717.354,769.076h3.399v20.677h-3.399V769.076z"/>
	<path fill="#333333" d="M743.67,783.193c-0.92,4.6-4.16,7.039-8.839,7.039c-6.599,0-9.718-4.599-9.918-10.878
		c0-6.239,4.079-10.758,9.718-10.758c7.319,0,9.558,6.839,9.358,11.838h-15.478c-0.12,3.599,1.92,6.799,6.439,6.799
		c2.839,0,4.759-1.32,5.359-4.04H743.67z M740.391,777.435c-0.2-3.239-2.56-5.839-5.959-5.839c-3.519,0-5.719,2.64-5.919,5.839
		H740.391z"/>
	<path fill="#333333" d="M747.513,769.076h3.199v3.279h0.08c1.44-2.56,3.72-3.759,6.719-3.759c5.439,0,7.119,3.119,7.119,7.559
		v13.598h-3.399v-13.998c0-2.56-1.6-4.159-4.199-4.159c-4.12,0-6.119,2.76-6.119,6.479v11.679h-3.399V769.076z"/>
	<path fill="#333333" d="M774.472,769.076h4.119v2.999h-4.119v12.838c0,1.601,0.44,1.84,2.56,1.84h1.56v3h-2.6
		c-3.519,0-4.919-0.72-4.919-4.52v-13.158h-3.52v-2.999h3.52v-6.199h3.399V769.076z"/>
</g>
<g>
	<g>
		<line fill="none" stroke="#4EA8DE" stroke-width="2" stroke-miterlimit="10" x1="870.107" y1="459.94" x2="870.107" y2="502.35"/>
		<g>
			<polygon fill="#4EA8DE" points="857.836,492.408 860.036,490.361 870.104,501.197 880.176,490.361 882.374,492.408 
				870.104,505.604 			"/>
		</g>
	</g>
</g>
<g enable-background="new    ">
	<path fill="#FFFFFF" d="M82.352,273.107h-7.177l-5.567-22.358h-0.092l-5.475,22.358h-7.315l-8.695-32.848h7.223l5.199,22.358h0.092
		l5.705-22.358h6.763l5.613,22.635h0.092L84.1,240.26h7.085L82.352,273.107z"/>
	<path fill="#FFFFFF" d="M93.801,240.26h6.533v12.375h0.138c1.656-2.714,4.508-3.956,6.947-3.956c6.947,0,8.695,3.91,8.695,9.799
		v14.63h-6.533v-13.434c0-3.91-1.104-5.843-4.187-5.843c-3.542,0-5.061,1.979-5.061,6.809v12.468h-6.533V240.26z"/>
	<path fill="#FFFFFF" d="M132.626,248.679c7.499,0,12.329,4.969,12.329,12.56c0,7.545-4.831,12.514-12.329,12.514
		c-7.453,0-12.284-4.969-12.284-12.514C120.342,253.647,125.173,248.679,132.626,248.679z M132.626,268.829
		c4.462,0,5.796-3.772,5.796-7.591s-1.334-7.637-5.796-7.637c-4.417,0-5.751,3.818-5.751,7.637S128.209,268.829,132.626,268.829z"/>
</g>
<line fill="none" stroke="#343636" stroke-width="4.9065" stroke-miterlimit="10" x1="47.844" y1="214.612" x2="958.576" y2="214.612"/>
<g>
	<path d="M1056.236,234.68h7.223v12.605h13.296V234.68h7.223v32.848h-7.223v-14.169h-13.296v14.169h-7.223V234.68z"/>
	<path d="M1101.18,243.099c7.499,0,12.329,4.968,12.329,12.56c0,7.544-4.83,12.513-12.329,12.513
		c-7.453,0-12.283-4.969-12.283-12.513C1088.896,248.067,1093.727,243.099,1101.18,243.099z M1101.18,263.25
		c4.463,0,5.797-3.772,5.797-7.591c0-3.819-1.334-7.637-5.797-7.637c-4.416,0-5.751,3.818-5.751,7.637
		C1095.429,259.477,1096.764,263.25,1101.18,263.25z"/>
	<path d="M1144.927,267.528h-6.717l-4.232-15.964h-0.092l-4.049,15.964h-6.763l-7.545-23.785h6.901l4.37,16.148h0.092l3.957-16.148
		h6.349l4.049,16.102h0.092l4.37-16.102h6.717L1144.927,267.528z"/>
</g>
<rect x="1.023" fill="#116BB4" width="2046.977" height="185.471"/>
<path fill="#4EA8DE" d="M181.01,92.615c0,36.178-29.328,65.504-65.505,65.504C79.327,158.12,50,128.793,50,92.615
	S79.327,27.11,115.505,27.11C151.683,27.11,181.01,56.438,181.01,92.615"/>
<g>
	<path fill="#F9B256" d="M151.152,131.558c0,3.454-2.801,6.254-6.257,6.254H86.504c-3.455,0-6.255-2.801-6.255-6.254V60.654
		c0-3.456,2.8-6.256,6.255-6.256h58.391c3.456,0,6.257,2.8,6.257,6.256V131.558z"/>
	<path fill="#FFFFFF" d="M146.612,127.018c0,3.012-2.443,5.456-5.453,5.456H90.243c-3.012,0-5.453-2.444-5.453-5.456V65.195
		c0-3.014,2.441-5.457,5.453-5.457h50.917c3.01,0,5.453,2.443,5.453,5.457V127.018z"/>
	<path fill="#D1D3D4" d="M107.583,81.917c0,2.138-1.734,3.87-3.87,3.87h-7.74c-2.136,0-3.87-1.732-3.87-3.87v-7.741
		c0-2.137,1.734-3.868,3.87-3.868h7.74c2.136,0,3.87,1.73,3.87,3.868V81.917z"/>
	<path fill="#D1D3D4" d="M107.583,99.976c0,2.136-1.734,3.868-3.87,3.868h-7.74c-2.136,0-3.87-1.732-3.87-3.868v-7.74
		c0-2.138,1.734-3.869,3.87-3.869h7.74c2.136,0,3.87,1.73,3.87,3.869V99.976z"/>
	<path fill="#D1D3D4" d="M107.583,118.033c0,2.137-1.734,3.871-3.87,3.871h-7.74c-2.136,0-3.87-1.734-3.87-3.871v-7.738
		c0-2.138,1.734-3.873,3.87-3.873h7.74c2.136,0,3.87,1.735,3.87,3.873V118.033z"/>
	<path fill="#686472" d="M124.569,52.123h-0.659c-0.641,0-1.164-0.521-1.164-1.162v-0.043c0-1.59-1.293-2.884-2.887-2.884h-8.321
		c-1.591,0-2.884,1.294-2.884,2.884v0.043c0,0.641-0.522,1.162-1.164,1.162h-0.659c-4.892,0-8.859,3.969-8.859,8.863v0.117
		c0,1.571,1.272,2.843,2.84,2.843h29.776c1.567,0,2.841-1.272,2.841-2.843v-0.117C133.43,56.091,129.462,52.123,124.569,52.123z
		 M115.699,52.812c-1.035,0-1.876-0.842-1.876-1.88c0-1.035,0.841-1.875,1.876-1.875c1.039,0,1.88,0.84,1.88,1.875
		C117.579,51.97,116.738,52.812,115.699,52.812z"/>
</g>
<g>
	<g>
		<path fill="#FFFFFF" d="M218.862,95.448c0,4.37,3.404,6.073,7.27,6.073c2.53,0,6.395-0.736,6.395-4.095
			c0-3.589-4.969-4.095-9.753-5.429c-4.877-1.196-9.8-3.267-9.8-9.339c0-6.763,6.349-9.938,12.283-9.938
			c6.855,0,13.158,2.99,13.158,10.581h-6.993c-0.229-3.91-2.99-4.969-6.486-4.969c-2.301,0-4.969,0.967-4.969,3.727
			c0,2.53,1.564,2.898,9.799,4.969c2.438,0.552,9.753,2.162,9.753,9.569c0,6.026-4.692,10.535-13.663,10.535
			c-7.269,0-14.124-3.589-13.985-11.686H218.862z"/>
		<path fill="#FFFFFF" d="M251.385,82.566h4.784v4.371h-4.784v11.777c0,2.208,0.552,2.76,2.76,2.76c0.736,0,1.427-0.046,2.024-0.184
			v5.106c-1.104,0.185-2.53,0.23-3.818,0.23c-4.049,0-7.499-0.874-7.499-5.659V86.938h-3.956v-4.371h3.956v-7.131h6.533V82.566z"/>
		<path fill="#FFFFFF" d="M264.678,96.047c0.184,4.186,2.162,6.026,5.843,6.026c2.622,0,4.738-1.61,5.152-3.083h5.751
			c-1.841,5.659-5.751,8.006-11.134,8.006c-7.499,0-12.146-5.153-12.146-12.514c0-7.131,4.923-12.56,12.146-12.56
			c8.097,0,12.054,6.809,11.547,14.124H264.678z M275.305,91.906c-0.598-3.312-2.024-5.061-5.198-5.061
			c-4.232,0-5.291,3.22-5.429,5.061H275.305z"/>
		<path fill="#FFFFFF" d="M285.698,82.566h6.211v3.037h0.092c1.61-2.576,4.141-3.681,7.085-3.681
			c7.452,0,10.811,6.026,10.811,12.789c0,6.349-3.45,12.284-10.442,12.284c-2.898,0-5.521-1.242-7.131-3.589h-0.093v11.317h-6.532
			V82.566z M303.364,94.528c0-3.818-1.519-7.683-5.705-7.683c-4.278,0-5.658,3.818-5.658,7.683s1.472,7.545,5.704,7.545
			C301.984,102.073,303.364,98.393,303.364,94.528z"/>
		<path fill="#FFFFFF" d="M342.142,106.352h-6.533V85.465h-8.097v-4.922c4.555,0.138,8.695-1.473,9.432-6.396h5.198V106.352z"/>
		<path fill="#FFFFFF" d="M359.713,90.065h-7.223V82.98h7.223V90.065z M352.49,99.267h7.223v7.085h-7.223V99.267z"/>
		<path fill="#FFFFFF" d="M378.435,73.504h14.813c8.234,0,11.363,5.198,11.363,10.535s-3.129,10.535-11.363,10.535h-7.591v11.777
			h-7.223V73.504z M385.657,88.962h5.612c3.312,0,6.349-0.736,6.349-4.923s-3.036-4.923-6.349-4.923h-5.612V88.962z"/>
		<path fill="#FFFFFF" d="M408.426,82.566h6.211v4.417h0.092c1.242-2.99,4.324-5.061,7.591-5.061c0.506,0,0.966,0.092,1.426,0.229
			v6.073c-0.598-0.138-1.563-0.23-2.346-0.23c-4.831,0-6.441,3.404-6.441,7.638v10.719h-6.532V82.566z"/>
		<path fill="#FFFFFF" d="M431.702,96.047c0.184,4.186,2.162,6.026,5.843,6.026c2.622,0,4.738-1.61,5.152-3.083h5.751
			c-1.841,5.659-5.751,8.006-11.134,8.006c-7.499,0-12.146-5.153-12.146-12.514c0-7.131,4.923-12.56,12.146-12.56
			c8.097,0,12.054,6.809,11.548,14.124H431.702z M442.329,91.906c-0.598-3.312-2.024-5.061-5.198-5.061
			c-4.232,0-5.291,3.22-5.429,5.061H442.329z"/>
		<path fill="#FFFFFF" d="M452.723,82.566h6.211v3.037h0.092c1.61-2.576,4.141-3.681,7.085-3.681
			c7.452,0,10.811,6.026,10.811,12.789c0,6.349-3.45,12.284-10.442,12.284c-2.898,0-5.521-1.242-7.131-3.589h-0.093v11.317h-6.532
			V82.566z M470.389,94.528c0-3.818-1.519-7.683-5.705-7.683c-4.278,0-5.658,3.818-5.658,7.683s1.472,7.545,5.704,7.545
			C469.009,102.073,470.389,98.393,470.389,94.528z"/>
		<path fill="#FFFFFF" d="M480.552,89.882c0.368-6.073,5.843-7.959,11.18-7.959c4.738,0,10.443,1.058,10.443,6.763v12.375
			c0,2.163,0.229,4.325,0.828,5.291h-6.625c-0.23-0.736-0.414-1.519-0.46-2.3c-2.07,2.162-5.061,2.944-8.005,2.944
			c-4.555,0-8.098-2.255-8.098-7.131c0.093-10.812,16.103-5.015,15.826-10.352c0-2.761-1.932-3.221-4.232-3.221
			c-2.53,0-4.095,1.013-4.324,3.589H480.552z M495.642,94.712c-1.104,0.967-3.404,1.013-5.429,1.381
			c-2.024,0.367-3.864,1.104-3.864,3.496s1.887,3.036,4.003,3.036c5.106,0,5.29-4.002,5.29-5.475V94.712z"/>
		<path fill="#FFFFFF" d="M507.231,82.566h6.211v4.417h0.092c1.242-2.99,4.324-5.061,7.591-5.061c0.506,0,0.966,0.092,1.426,0.229
			v6.073c-0.598-0.138-1.563-0.23-2.346-0.23c-4.831,0-6.441,3.404-6.441,7.638v10.719h-6.532V82.566z"/>
		<path fill="#FFFFFF" d="M524.849,89.882c0.368-6.073,5.843-7.959,11.18-7.959c4.738,0,10.443,1.058,10.443,6.763v12.375
			c0,2.163,0.229,4.325,0.828,5.291h-6.625c-0.23-0.736-0.414-1.519-0.46-2.3c-2.07,2.162-5.061,2.944-8.005,2.944
			c-4.555,0-8.098-2.255-8.098-7.131c0.093-10.812,16.103-5.015,15.826-10.352c0-2.761-1.932-3.221-4.232-3.221
			c-2.53,0-4.095,1.013-4.324,3.589H524.849z M539.938,94.712c-1.104,0.967-3.404,1.013-5.429,1.381
			c-2.024,0.367-3.864,1.104-3.864,3.496s1.887,3.036,4.003,3.036c5.106,0,5.29-4.002,5.29-5.475V94.712z"/>
		<path fill="#FFFFFF" d="M559.81,82.566h4.784v4.371h-4.784v11.777c0,2.208,0.552,2.76,2.76,2.76c0.736,0,1.427-0.046,2.024-0.184
			v5.106c-1.104,0.185-2.53,0.23-3.818,0.23c-4.049,0-7.499-0.874-7.499-5.659V86.938h-3.956v-4.371h3.956v-7.131h6.533V82.566z"/>
		<path fill="#FFFFFF" d="M574.437,78.887h-6.533v-5.383h6.533V78.887z M567.903,82.566h6.533v23.785h-6.533V82.566z"/>
		<path fill="#FFFFFF" d="M591.135,81.923c7.499,0,12.33,4.969,12.33,12.56c0,7.545-4.831,12.514-12.33,12.514
			c-7.452,0-12.283-4.969-12.283-12.514C578.852,86.892,583.683,81.923,591.135,81.923z M591.135,102.073
			c4.463,0,5.797-3.772,5.797-7.591s-1.334-7.637-5.797-7.637c-4.416,0-5.75,3.818-5.75,7.637S586.719,102.073,591.135,102.073z"/>
		<path fill="#FFFFFF" d="M607.693,82.566h6.211v3.312h0.138c1.656-2.714,4.509-3.956,7.269-3.956c6.947,0,8.695,3.91,8.695,9.799
			v14.63h-6.533V92.918c0-3.91-1.104-5.843-4.187-5.843c-3.542,0-5.061,1.979-5.061,6.809v12.468h-6.532V82.566z"/>
	</g>
</g>
</svg>
