<?xml version="1.0" encoding="utf-8"?>
<!-- Generator: Adobe Illustrator 16.0.3, SVG Export Plug-In . SVG Version: 6.00 Build 0)  -->
<!DOCTYPE svg PUBLIC "-//W3C//DTD SVG 1.1//EN" "http://www.w3.org/Graphics/SVG/1.1/DTD/svg11.dtd">
<svg version="1.1" id="Layer_1" xmlns="http://www.w3.org/2000/svg" xmlns:xlink="http://www.w3.org/1999/xlink" x="0px" y="0px"
	 width="2048px" height="1000px" viewBox="0 0 2048 1000" enable-background="new 0 0 2048 1000" xml:space="preserve">
<rect fill="#89BE46" width="2048" height="1000"/>
<rect x="0.5" y="695.942" fill="#678F35" width="2048" height="304.058"/>
<g>
	<path fill="#333333" d="M396.725,200.14h-10.95v-3.68h26.269v3.68h-10.949v29.167h-4.37V200.14z"/>
	<path fill="#333333" d="M425.29,204.971c7.545,0,11.547,5.475,11.547,12.468c0,6.947-4.002,12.421-11.547,12.421
		s-11.547-5.475-11.547-12.421C413.743,210.445,417.745,204.971,425.29,204.971z M425.29,226.409c4.094,0,7.407-3.22,7.407-8.971
		c0-5.751-3.312-9.017-7.407-9.017c-4.095,0-7.407,3.266-7.407,9.017C417.883,223.189,421.195,226.409,425.29,226.409z"/>
	<path fill="#333333" d="M454.36,205.523h3.91v3.22h0.092c1.288-2.622,4.278-3.772,7.591-3.772c7.315,0,10.949,5.797,10.949,12.514
		c0,6.763-3.588,12.375-10.857,12.375c-2.392,0-5.98-0.92-7.683-3.727h-0.092v12.283h-3.91V205.523z M465.401,208.421
		c-5.291,0-7.269,4.554-7.269,8.971c0,4.646,2.116,9.017,7.499,9.017c5.337,0,7.131-4.554,7.131-9.201
		C472.762,212.746,470.462,208.421,465.401,208.421z"/>
	<path fill="#333333" d="M481.361,205.523h3.681v5.015h0.092c1.886-3.865,4.509-5.705,8.741-5.567v4.141
		c-6.303,0-8.603,3.542-8.603,9.615v10.581h-3.911V205.523z"/>
	<path fill="#333333" d="M507.077,204.971c7.545,0,11.547,5.475,11.547,12.468c0,6.947-4.002,12.421-11.547,12.421
		s-11.547-5.475-11.547-12.421C495.529,210.445,499.532,204.971,507.077,204.971z M507.077,226.409c4.094,0,7.407-3.22,7.407-8.971
		c0-5.751-3.312-9.017-7.407-9.017c-4.095,0-7.407,3.266-7.407,9.017C499.67,223.189,502.982,226.409,507.077,226.409z"/>
	<path fill="#333333" d="M533.94,229.308h-4.187l-8.833-23.785h4.371l6.671,19.828h0.092l6.487-19.828h4.094L533.94,229.308z"/>
	<path fill="#333333" d="M550.361,201.245h-3.911v-4.785h3.911V201.245z M546.451,205.523h3.911v23.785h-3.911V205.523z"/>
	<path fill="#333333" d="M577.687,229.308h-3.911v-3.22h-0.092c-1.288,2.622-4.278,3.772-7.591,3.772
		c-7.315,0-10.949-5.797-10.949-12.514s3.588-12.375,10.857-12.375c2.393,0,5.981,0.92,7.683,3.727h0.092V196.46h3.911V229.308z
		 M566.646,226.409c5.291,0,7.269-4.554,7.269-8.971c0-4.647-2.116-9.017-7.499-9.017c-5.336,0-7.13,4.554-7.13,9.201
		C559.285,222.085,561.585,226.409,566.646,226.409z"/>
	<path fill="#333333" d="M603.998,221.763c-1.058,5.291-4.784,8.097-10.167,8.097c-7.591,0-11.179-5.291-11.409-12.514
		c0-7.177,4.692-12.375,11.179-12.375c8.419,0,10.995,7.867,10.765,13.618h-17.804c-0.138,4.141,2.208,7.821,7.407,7.821
		c3.266,0,5.475-1.518,6.165-4.646H603.998z M600.226,215.138c-0.23-3.727-2.944-6.717-6.855-6.717
		c-4.048,0-6.579,3.036-6.809,6.717H600.226z"/>
	<path fill="#333333" d="M641.718,227.283c0,7.775-3.497,11.686-11.042,11.686c-4.462,0-9.615-1.84-9.845-6.993h3.911
		c0.138,2.806,3.634,3.864,6.165,3.864c5.106,0,7.131-3.68,7.131-9.017v-1.564h-0.092c-1.334,2.898-4.371,4.324-7.407,4.324
		c-7.084,0-10.627-5.566-10.627-12.053c0-5.613,2.714-12.56,10.995-12.56c2.99,0,5.659,1.334,7.085,3.957h0.046v-3.404h3.681
		V227.283z M637.853,216.932c0-4.187-1.84-8.511-6.763-8.511c-5.015,0-7.039,4.094-7.039,8.649c0,4.278,1.564,9.063,6.717,9.063
		C635.921,226.133,637.853,221.395,637.853,216.932z"/>
	<path fill="#333333" d="M667.293,229.308h-3.681v-3.772h-0.092c-1.656,2.944-4.279,4.325-7.729,4.325
		c-6.257,0-8.189-3.588-8.189-8.695v-15.642h3.911v16.102c0,2.944,1.84,4.785,4.831,4.785c4.738,0,7.039-3.174,7.039-7.453v-13.434
		h3.911V229.308z"/>
	<path fill="#333333" d="M677.319,201.245h-3.911v-4.785h3.911V201.245z M673.409,205.523h3.911v23.785h-3.911V205.523z"/>
	<path fill="#333333" d="M704.645,229.308h-3.911v-3.22h-0.092c-1.288,2.622-4.278,3.772-7.591,3.772
		c-7.315,0-10.949-5.797-10.949-12.514s3.588-12.375,10.857-12.375c2.393,0,5.981,0.92,7.683,3.727h0.092V196.46h3.911V229.308z
		 M693.604,226.409c5.291,0,7.269-4.554,7.269-8.971c0-4.647-2.116-9.017-7.499-9.017c-5.336,0-7.13,4.554-7.13,9.201
		C686.243,222.085,688.543,226.409,693.604,226.409z"/>
	<path fill="#333333" d="M731.738,229.216c-0.69,0.414-1.656,0.644-2.806,0.644c-2.024,0-3.312-1.104-3.312-3.681
		c-2.162,2.576-5.061,3.681-8.373,3.681c-4.324,0-7.867-1.886-7.867-6.671c0-5.383,4.002-6.579,8.051-7.315
		c4.279-0.874,8.005-0.506,8.005-3.496c0-3.451-2.852-3.957-5.291-3.957c-3.312,0-5.75,1.012-5.935,4.508h-3.911
		c0.23-5.889,4.739-7.959,10.075-7.959c4.279,0,8.925,0.966,8.925,6.533v12.238c0,1.84,0,2.668,1.242,2.668
		c0.368,0,0.782-0.092,1.196-0.23V229.216z M725.389,217.024c-3.036,2.254-11.869,0.046-11.869,5.889c0,2.576,2.208,3.496,4.6,3.496
		c5.153,0,7.269-3.174,7.269-5.382V217.024z"/>
	<path fill="#333333" d="M735.369,205.523h3.681v3.772h0.092c1.656-2.944,4.278-4.325,7.729-4.325c6.256,0,8.189,3.588,8.189,8.695
		v15.642h-3.911v-16.102c0-2.944-1.84-4.784-4.831-4.784c-4.738,0-7.039,3.174-7.039,7.453v13.434h-3.911V205.523z"/>
	<path fill="#333333" d="M777.093,213.16c-0.598-2.99-2.623-4.738-5.889-4.738c-5.659,0-7.407,4.508-7.407,9.293
		c0,4.417,1.978,8.695,6.947,8.695c3.818,0,6.026-2.162,6.533-5.796h4.002c-0.874,5.842-4.463,9.247-10.489,9.247
		c-7.269,0-11.133-5.015-11.133-12.146s3.68-12.744,11.225-12.744c5.429,0,9.661,2.53,10.259,8.189H777.093z"/>
	<path fill="#333333" d="M805.935,221.763c-1.058,5.291-4.784,8.097-10.167,8.097c-7.591,0-11.179-5.291-11.409-12.514
		c0-7.177,4.692-12.375,11.179-12.375c8.419,0,10.995,7.867,10.765,13.618h-17.804c-0.138,4.141,2.208,7.821,7.407,7.821
		c3.266,0,5.475-1.518,6.165-4.646H805.935z M802.163,215.138c-0.23-3.727-2.944-6.717-6.855-6.717
		c-4.048,0-6.579,3.036-6.809,6.717H802.163z"/>
	<path fill="#333333" d="M844.206,229.216c-0.69,0.414-1.656,0.644-2.806,0.644c-2.024,0-3.312-1.104-3.312-3.681
		c-2.162,2.576-5.061,3.681-8.373,3.681c-4.324,0-7.867-1.886-7.867-6.671c0-5.383,4.002-6.579,8.051-7.315
		c4.278-0.874,8.005-0.506,8.005-3.496c0-3.451-2.852-3.957-5.291-3.957c-3.312,0-5.75,1.012-5.935,4.508h-3.911
		c0.23-5.889,4.739-7.959,10.075-7.959c4.278,0,8.925,0.966,8.925,6.533v12.238c0,1.84,0,2.668,1.242,2.668
		c0.368,0,0.782-0.092,1.196-0.23V229.216z M837.857,217.024c-3.036,2.254-11.869,0.046-11.869,5.889c0,2.576,2.208,3.496,4.6,3.496
		c5.153,0,7.269-3.174,7.269-5.382V217.024z"/>
	<path fill="#333333" d="M850.229,221.809c0.138,3.497,3.221,4.601,6.395,4.601c2.438,0,5.75-0.552,5.75-3.542
		c0-6.119-15.55-1.978-15.55-11.133c0-4.784,4.693-6.763,8.879-6.763c5.337,0,9.385,1.656,9.753,7.453h-3.911
		c-0.23-3.037-2.99-4.002-5.521-4.002c-2.346,0-5.061,0.644-5.061,3.036c0,2.76,4.141,3.312,7.775,4.141
		c3.91,0.874,7.775,2.208,7.775,6.763c0,5.705-5.291,7.499-10.121,7.499c-5.337,0-9.845-2.163-10.075-8.051H850.229z"/>
	<path fill="#333333" d="M889.054,205.523h4.738v3.45h-4.738v14.768c0,1.84,0.506,2.116,2.944,2.116h1.794v3.45h-2.99
		c-4.048,0-5.659-0.828-5.659-5.199v-15.136h-4.048v-3.45h4.048v-7.131h3.911V205.523z"/>
	<path fill="#333333" d="M908.374,204.971c7.545,0,11.547,5.475,11.547,12.468c0,6.947-4.002,12.421-11.547,12.421
		s-11.547-5.475-11.547-12.421C896.826,210.445,900.829,204.971,908.374,204.971z M908.374,226.409c4.094,0,7.407-3.22,7.407-8.971
		c0-5.751-3.312-9.017-7.407-9.017c-4.095,0-7.407,3.266-7.407,9.017C900.967,223.189,904.279,226.409,908.374,226.409z"/>
	<path fill="#333333" d="M937.306,196.46h3.911v12.56h0.092c1.242-2.898,4.692-4.049,7.499-4.049c6.256,0,8.189,3.588,8.189,8.695
		v15.642h-3.911v-16.102c0-2.944-1.84-4.784-4.831-4.784c-4.738,0-7.039,3.174-7.039,7.453v13.434h-3.911V196.46z"/>
	<path fill="#333333" d="M973.141,204.971c7.545,0,11.547,5.475,11.547,12.468c0,6.947-4.002,12.421-11.547,12.421
		s-11.547-5.475-11.547-12.421C961.594,210.445,965.596,204.971,973.141,204.971z M973.141,226.409c4.094,0,7.407-3.22,7.407-8.971
		c0-5.751-3.312-9.017-7.407-9.017c-4.095,0-7.407,3.266-7.407,9.017C965.734,223.189,969.046,226.409,973.141,226.409z"/>
	<path fill="#333333" d="M1012.84,229.308h-4.141l-4.831-18.908h-0.092l-4.785,18.908h-4.232l-7.637-23.785h4.324l5.383,19.46h0.092
		l4.785-19.46h4.278l4.969,19.46h0.092l5.337-19.46h4.048L1012.84,229.308z"/>
	<path fill="#333333" d="M1037.77,196.46h4.37v32.848h-4.37V196.46z"/>
	<path fill="#333333" d="M1049.498,196.46h11.916c2.852,0,6.763,0,8.695,1.196c2.162,1.288,3.863,3.588,3.863,6.854
		c0,3.497-1.793,6.119-4.876,7.361v0.092c4.049,0.874,6.257,3.864,6.257,7.913c0,4.785-3.496,9.431-9.982,9.431h-15.873V196.46z
		 M1053.869,210.583h8.74c4.969,0,6.994-1.748,6.994-5.245c0-4.601-3.175-5.199-6.994-5.199h-8.74V210.583z M1053.869,225.627
		h10.949c3.818,0,6.164-2.254,6.164-5.889c0-4.278-3.449-5.475-7.131-5.475h-9.982V225.627z"/>
	<path fill="#333333" d="M1081.101,196.46h5.98l10.352,27.603l10.396-27.603h5.981v32.848h-4.141V201.98h-0.093l-10.259,27.327
		h-3.727l-10.259-27.327h-0.093v27.327h-4.14V196.46z"/>
	<path fill="#333333" d="M1163.535,229.308h-4.555l-7.499-27.603h-0.092l-7.591,27.603h-4.555l-8.419-32.848h4.463l6.44,27.327
		h0.092l7.361-27.327h4.738l7.269,27.327h0.093l6.671-27.327h4.37L1163.535,229.308z"/>
	<path fill="#333333" d="M1196.884,229.216c-0.69,0.414-1.656,0.644-2.807,0.644c-2.023,0-3.312-1.104-3.312-3.681
		c-2.163,2.576-5.061,3.681-8.373,3.681c-4.325,0-7.867-1.886-7.867-6.671c0-5.383,4.002-6.579,8.051-7.315
		c4.278-0.874,8.005-0.506,8.005-3.496c0-3.451-2.853-3.957-5.29-3.957c-3.312,0-5.751,1.012-5.936,4.508h-3.91
		c0.23-5.889,4.738-7.959,10.075-7.959c4.278,0,8.925,0.966,8.925,6.533v12.238c0,1.84,0,2.668,1.242,2.668
		c0.368,0,0.782-0.092,1.196-0.23V229.216z M1190.535,217.024c-3.036,2.254-11.869,0.046-11.869,5.889
		c0,2.576,2.208,3.496,4.601,3.496c5.152,0,7.269-3.174,7.269-5.382V217.024z"/>
	<path fill="#333333" d="M1205.943,205.523h4.738v3.45h-4.738v14.768c0,1.84,0.506,2.116,2.944,2.116h1.794v3.45h-2.99
		c-4.049,0-5.658-0.828-5.658-5.199v-15.136h-4.049v-3.45h4.049v-7.131h3.91V205.523z"/>
	<path fill="#333333" d="M1217.396,221.809c0.138,3.497,3.22,4.601,6.395,4.601c2.438,0,5.751-0.552,5.751-3.542
		c0-6.119-15.55-1.978-15.55-11.133c0-4.784,4.692-6.763,8.879-6.763c5.336,0,9.385,1.656,9.753,7.453h-3.91
		c-0.23-3.037-2.991-4.002-5.521-4.002c-2.346,0-5.061,0.644-5.061,3.036c0,2.76,4.141,3.312,7.775,4.141
		c3.91,0.874,7.774,2.208,7.774,6.763c0,5.705-5.29,7.499-10.121,7.499c-5.336,0-9.845-2.163-10.075-8.051H1217.396z"/>
	<path fill="#333333" d="M1248.263,204.971c7.545,0,11.548,5.475,11.548,12.468c0,6.947-4.003,12.421-11.548,12.421
		s-11.547-5.475-11.547-12.421C1236.716,210.445,1240.718,204.971,1248.263,204.971z M1248.263,226.409
		c4.095,0,7.407-3.22,7.407-8.971c0-5.751-3.312-9.017-7.407-9.017c-4.094,0-7.406,3.266-7.406,9.017
		C1240.856,223.189,1244.169,226.409,1248.263,226.409z"/>
	<path fill="#333333" d="M1264.407,205.523h3.681v3.772h0.092c1.656-2.944,4.278-4.325,7.729-4.325c6.257,0,8.189,3.588,8.189,8.695
		v15.642h-3.91v-16.102c0-2.944-1.841-4.784-4.831-4.784c-4.738,0-7.039,3.174-7.039,7.453v13.434h-3.91V205.523z"/>
	<path fill="#333333" d="M1303.416,196.46h4.37v14.124h17.298V196.46h4.37v32.848h-4.37v-15.044h-17.298v15.044h-4.37V196.46z"/>
	<path fill="#333333" d="M1356.271,221.763c-1.058,5.291-4.784,8.097-10.167,8.097c-7.591,0-11.18-5.291-11.409-12.514
		c0-7.177,4.692-12.375,11.18-12.375c8.419,0,10.995,7.867,10.765,13.618h-17.804c-0.139,4.141,2.208,7.821,7.406,7.821
		c3.267,0,5.475-1.518,6.165-4.646H1356.271z M1352.498,215.138c-0.229-3.727-2.944-6.717-6.854-6.717
		c-4.049,0-6.579,3.036-6.809,6.717H1352.498z"/>
	<path fill="#333333" d="M1381.754,229.216c-0.69,0.414-1.656,0.644-2.807,0.644c-2.023,0-3.312-1.104-3.312-3.681
		c-2.163,2.576-5.061,3.681-8.373,3.681c-4.325,0-7.867-1.886-7.867-6.671c0-5.383,4.002-6.579,8.051-7.315
		c4.278-0.874,8.005-0.506,8.005-3.496c0-3.451-2.853-3.957-5.29-3.957c-3.312,0-5.751,1.012-5.936,4.508h-3.91
		c0.23-5.889,4.738-7.959,10.075-7.959c4.278,0,8.925,0.966,8.925,6.533v12.238c0,1.84,0,2.668,1.242,2.668
		c0.368,0,0.782-0.092,1.196-0.23V229.216z M1375.405,217.024c-3.036,2.254-11.869,0.046-11.869,5.889
		c0,2.576,2.208,3.496,4.601,3.496c5.152,0,7.269-3.174,7.269-5.382V217.024z"/>
	<path fill="#333333" d="M1385.615,196.46h3.91v32.848h-3.91V196.46z"/>
	<path fill="#333333" d="M1401.024,205.523h4.738v3.45h-4.738v14.768c0,1.84,0.506,2.116,2.944,2.116h1.794v3.45h-2.99
		c-4.049,0-5.658-0.828-5.658-5.199v-15.136h-4.049v-3.45h4.049v-7.131h3.91V205.523z"/>
	<path fill="#333333" d="M1410.085,196.46h3.91v12.56h0.093c1.241-2.898,4.692-4.049,7.498-4.049c6.257,0,8.189,3.588,8.189,8.695
		v15.642h-3.91v-16.102c0-2.944-1.841-4.784-4.831-4.784c-4.738,0-7.039,3.174-7.039,7.453v13.434h-3.91V196.46z"/>
	<path fill="#333333" d="M1472.004,229.308h-4.141l-4.83-18.908h-0.093l-4.784,18.908h-4.232l-7.637-23.785h4.324l5.383,19.46h0.092
		l4.785-19.46h4.278l4.969,19.46h0.092l5.336-19.46h4.049L1472.004,229.308z"/>
	<path fill="#333333" d="M1487.458,201.245h-3.91v-4.785h3.91V201.245z M1483.548,205.523h3.91v23.785h-3.91V205.523z"/>
	<path fill="#333333" d="M1493.759,196.46h3.91v32.848h-3.91V196.46z"/>
	<path fill="#333333" d="M1503.97,196.46h3.91v32.848h-3.91V196.46z"/>
	<path fill="#333333" d="M1526.876,205.523h3.911v3.22h0.092c1.288-2.622,4.278-3.772,7.591-3.772
		c7.314,0,10.949,5.797,10.949,12.514c0,6.763-3.589,12.375-10.857,12.375c-2.393,0-5.98-0.92-7.683-3.727h-0.092v12.283h-3.911
		V205.523z M1537.918,208.421c-5.291,0-7.27,4.554-7.27,8.971c0,4.646,2.116,9.017,7.499,9.017c5.337,0,7.131-4.554,7.131-9.201
		C1545.278,212.746,1542.979,208.421,1537.918,208.421z"/>
	<path fill="#333333" d="M1574.304,221.763c-1.058,5.291-4.784,8.097-10.167,8.097c-7.591,0-11.18-5.291-11.409-12.514
		c0-7.177,4.692-12.375,11.18-12.375c8.419,0,10.995,7.867,10.765,13.618h-17.804c-0.139,4.141,2.208,7.821,7.406,7.821
		c3.267,0,5.475-1.518,6.165-4.646H1574.304z M1570.531,215.138c-0.229-3.727-2.944-6.717-6.854-6.717
		c-4.049,0-6.579,3.036-6.809,6.717H1570.531z"/>
	<path fill="#333333" d="M1578.579,205.523h3.68v5.015h0.093c1.886-3.865,4.508-5.705,8.74-5.567v4.141
		c-6.303,0-8.603,3.542-8.603,9.615v10.581h-3.91V205.523z"/>
	<path fill="#333333" d="M1595.645,208.973h-4.003v-3.45h4.003v-3.542c0-3.864,2.3-5.889,6.578-5.889
		c0.736,0,1.795,0.138,2.53,0.368v3.404c-0.689-0.23-1.518-0.322-2.208-0.322c-1.886,0-2.99,0.598-2.99,2.668v3.312h4.601v3.45
		h-4.601v20.334h-3.91V208.973z"/>
	<path fill="#333333" d="M1617.908,204.971c7.545,0,11.548,5.475,11.548,12.468c0,6.947-4.003,12.421-11.548,12.421
		s-11.547-5.475-11.547-12.421C1606.361,210.445,1610.363,204.971,1617.908,204.971z M1617.908,226.409
		c4.095,0,7.407-3.22,7.407-8.971c0-5.751-3.312-9.017-7.407-9.017c-4.094,0-7.406,3.266-7.406,9.017
		C1610.502,223.189,1613.814,226.409,1617.908,226.409z"/>
	<path fill="#333333" d="M1633.915,205.523h3.68v5.015h0.093c1.886-3.865,4.508-5.705,8.74-5.567v4.141
		c-6.303,0-8.603,3.542-8.603,9.615v10.581h-3.91V205.523z"/>
	<path fill="#333333" d="M1649.37,205.523h3.681v3.497h0.092c1.794-2.714,4.324-4.049,7.683-4.049c2.944,0,5.566,1.104,6.533,4.049
		c1.61-2.577,4.37-4.049,7.452-4.049c4.739,0,7.913,1.979,7.913,6.901v17.436h-3.91v-15.596c0-2.944-0.782-5.291-4.601-5.291
		s-6.211,2.392-6.211,6.073v14.813h-3.91v-15.596c0-3.083-0.966-5.291-4.463-5.291c-4.601,0-6.349,4.232-6.349,6.073v14.813h-3.91
		V205.523z"/>
	<path fill="#333333" d="M407.165,249.678c10.443,0,15.734,8.235,15.734,17.206s-5.291,17.206-15.734,17.206
		s-15.734-8.235-15.734-17.206S396.722,249.678,407.165,249.678z M407.165,280.409c8.005,0,11.363-6.901,11.363-13.525
		c0-6.625-3.358-13.525-11.363-13.525s-11.363,6.9-11.363,13.525C395.802,273.508,399.16,280.409,407.165,280.409z"/>
	<path fill="#333333" d="M429.198,262.973h-4.002v-3.45h4.002v-3.542c0-3.864,2.3-5.889,6.579-5.889c0.736,0,1.794,0.138,2.53,0.368
		v3.404c-0.69-0.23-1.518-0.322-2.208-0.322c-1.886,0-2.99,0.598-2.99,2.668v3.312h4.601v3.45h-4.601v20.334h-3.91V262.973z"/>
	<path fill="#333333" d="M442.813,262.973h-4.002v-3.45h4.002v-3.542c0-3.864,2.3-5.889,6.579-5.889c0.736,0,1.794,0.138,2.53,0.368
		v3.404c-0.69-0.23-1.518-0.322-2.208-0.322c-1.886,0-2.99,0.598-2.99,2.668v3.312h4.601v3.45h-4.601v20.334h-3.91V262.973z"/>
	<path fill="#333333" d="M475.107,275.763c-1.058,5.291-4.784,8.097-10.167,8.097c-7.591,0-11.179-5.291-11.409-12.514
		c0-7.177,4.692-12.375,11.179-12.375c8.419,0,10.995,7.867,10.765,13.618h-17.804c-0.138,4.141,2.208,7.821,7.407,7.821
		c3.266,0,5.475-1.518,6.165-4.646H475.107z M471.335,269.138c-0.23-3.727-2.944-6.717-6.855-6.717
		c-4.048,0-6.579,3.036-6.809,6.717H471.335z"/>
	<path fill="#333333" d="M479.382,259.523h3.681v5.015h0.092c1.886-3.865,4.509-5.705,8.741-5.567v4.141
		c-6.303,0-8.603,3.542-8.603,9.615v10.581h-3.911V259.523z"/>
	<path fill="#333333" d="M498.979,255.245h-3.911v-4.785h3.911V255.245z M495.068,259.523h3.911v23.785h-3.911V259.523z"/>
	<path fill="#333333" d="M505.05,259.523h3.681v3.772h0.092c1.656-2.944,4.278-4.325,7.729-4.325c6.256,0,8.189,3.588,8.189,8.695
		v15.642h-3.911v-16.102c0-2.944-1.84-4.784-4.831-4.784c-4.738,0-7.039,3.174-7.039,7.453v13.434h-3.911V259.523z"/>
	<path fill="#333333" d="M551.145,281.283c0,7.775-3.497,11.686-11.042,11.686c-4.462,0-9.615-1.84-9.845-6.993h3.911
		c0.138,2.806,3.634,3.864,6.165,3.864c5.106,0,7.131-3.68,7.131-9.017v-1.564h-0.092c-1.334,2.898-4.371,4.324-7.407,4.324
		c-7.084,0-10.627-5.566-10.627-12.053c0-5.613,2.714-12.56,10.995-12.56c2.99,0,5.659,1.334,7.085,3.957h0.046v-3.404h3.681
		V281.283z M547.28,270.932c0-4.187-1.84-8.511-6.763-8.511c-5.015,0-7.039,4.094-7.039,8.649c0,4.278,1.564,9.063,6.717,9.063
		C545.348,280.133,547.28,275.395,547.28,270.932z"/>
	<path fill="#333333" d="M573.958,255.245h-3.911v-4.785h3.911V255.245z M570.047,259.523h3.911v23.785h-3.911V259.523z"/>
	<path fill="#333333" d="M580.029,259.523h3.68v3.772h0.092c1.656-2.944,4.278-4.325,7.729-4.325c6.256,0,8.189,3.588,8.189,8.695
		v15.642h-3.911v-16.102c0-2.944-1.84-4.784-4.831-4.784c-4.738,0-7.039,3.174-7.039,7.453v13.434h-3.911V259.523z"/>
	<path fill="#333333" d="M607.997,275.809c0.138,3.497,3.221,4.601,6.395,4.601c2.438,0,5.75-0.552,5.75-3.542
		c0-6.119-15.55-1.978-15.55-11.133c0-4.784,4.692-6.763,8.879-6.763c5.337,0,9.385,1.656,9.753,7.453h-3.911
		c-0.23-3.037-2.99-4.002-5.521-4.002c-2.346,0-5.061,0.644-5.061,3.036c0,2.76,4.141,3.312,7.775,4.141
		c3.91,0.874,7.775,2.208,7.775,6.763c0,5.705-5.291,7.499-10.121,7.499c-5.337,0-9.845-2.163-10.075-8.051H607.997z"/>
	<path fill="#333333" d="M634.034,259.523h4.738v3.45h-4.738v14.768c0,1.84,0.506,2.116,2.944,2.116h1.794v3.45h-2.99
		c-4.048,0-5.659-0.828-5.659-5.199v-15.136h-4.048v-3.45h4.048v-7.131h3.911V259.523z"/>
	<path fill="#333333" d="M664.165,283.216c-0.69,0.414-1.656,0.644-2.806,0.644c-2.024,0-3.312-1.104-3.312-3.681
		c-2.162,2.576-5.061,3.681-8.373,3.681c-4.324,0-7.867-1.886-7.867-6.671c0-5.383,4.002-6.579,8.051-7.315
		c4.279-0.874,8.005-0.506,8.005-3.496c0-3.451-2.852-3.957-5.291-3.957c-3.312,0-5.75,1.012-5.935,4.508h-3.911
		c0.23-5.889,4.739-7.959,10.075-7.959c4.279,0,8.925,0.966,8.925,6.533v12.238c0,1.84,0,2.668,1.242,2.668
		c0.368,0,0.782-0.092,1.196-0.23V283.216z M657.816,271.024c-3.036,2.254-11.869,0.046-11.869,5.889c0,2.576,2.208,3.496,4.6,3.496
		c5.153,0,7.269-3.174,7.269-5.382V271.024z"/>
	<path fill="#333333" d="M668.026,250.46h3.911v32.848h-3.911V250.46z"/>
	<path fill="#333333" d="M678.237,250.46h3.911v32.848h-3.911V250.46z"/>
	<path fill="#333333" d="M709.289,283.216c-0.69,0.414-1.656,0.644-2.806,0.644c-2.024,0-3.312-1.104-3.312-3.681
		c-2.162,2.576-5.061,3.681-8.373,3.681c-4.324,0-7.867-1.886-7.867-6.671c0-5.383,4.002-6.579,8.051-7.315
		c4.278-0.874,8.005-0.506,8.005-3.496c0-3.451-2.852-3.957-5.291-3.957c-3.312,0-5.75,1.012-5.935,4.508h-3.911
		c0.23-5.889,4.739-7.959,10.075-7.959c4.278,0,8.925,0.966,8.925,6.533v12.238c0,1.84,0,2.668,1.242,2.668
		c0.368,0,0.782-0.092,1.196-0.23V283.216z M702.94,271.024c-3.036,2.254-11.869,0.046-11.869,5.889c0,2.576,2.208,3.496,4.6,3.496
		c5.153,0,7.269-3.174,7.269-5.382V271.024z"/>
	<path fill="#333333" d="M718.349,259.523h4.738v3.45h-4.738v14.768c0,1.84,0.506,2.116,2.944,2.116h1.794v3.45h-2.99
		c-4.048,0-5.659-0.828-5.659-5.199v-15.136h-4.048v-3.45h4.048v-7.131h3.911V259.523z"/>
	<path fill="#333333" d="M731.55,255.245h-3.911v-4.785h3.911V255.245z M727.639,259.523h3.911v23.785h-3.911V259.523z"/>
	<path fill="#333333" d="M747.88,258.971c7.545,0,11.547,5.475,11.547,12.468c0,6.947-4.002,12.421-11.547,12.421
		s-11.547-5.475-11.547-12.421C736.333,264.445,740.335,258.971,747.88,258.971z M747.88,280.409c4.094,0,7.407-3.22,7.407-8.971
		c0-5.751-3.312-9.017-7.407-9.017c-4.095,0-7.407,3.266-7.407,9.017C740.473,277.189,743.785,280.409,747.88,280.409z"/>
	<path fill="#333333" d="M764.024,259.523h3.68v3.772h0.092c1.656-2.944,4.278-4.325,7.729-4.325c6.256,0,8.189,3.588,8.189,8.695
		v15.642h-3.911v-16.102c0-2.944-1.84-4.784-4.831-4.784c-4.738,0-7.039,3.174-7.039,7.453v13.434h-3.911V259.523z"/>
	<path fill="#333333" d="M791.992,275.809c0.138,3.497,3.221,4.601,6.395,4.601c2.438,0,5.75-0.552,5.75-3.542
		c0-6.119-15.55-1.978-15.55-11.133c0-4.784,4.692-6.763,8.879-6.763c5.337,0,9.385,1.656,9.753,7.453h-3.911
		c-0.23-3.037-2.99-4.002-5.521-4.002c-2.346,0-5.061,0.644-5.061,3.036c0,2.76,4.141,3.312,7.775,4.141
		c3.91,0.874,7.775,2.208,7.775,6.763c0,5.705-5.291,7.499-10.121,7.499c-5.337,0-9.845-2.163-10.075-8.051H791.992z"/>
	<path fill="#333333" d="M846.458,283.216c-0.69,0.414-1.656,0.644-2.806,0.644c-2.024,0-3.312-1.104-3.312-3.681
		c-2.162,2.576-5.061,3.681-8.373,3.681c-4.324,0-7.867-1.886-7.867-6.671c0-5.383,4.002-6.579,8.051-7.315
		c4.279-0.874,8.005-0.506,8.005-3.496c0-3.451-2.852-3.957-5.291-3.957c-3.312,0-5.75,1.012-5.935,4.508h-3.911
		c0.23-5.889,4.739-7.959,10.075-7.959c4.279,0,8.925,0.966,8.925,6.533v12.238c0,1.84,0,2.668,1.242,2.668
		c0.368,0,0.782-0.092,1.196-0.23V283.216z M840.11,271.024c-3.036,2.254-11.869,0.046-11.869,5.889c0,2.576,2.208,3.496,4.6,3.496
		c5.153,0,7.269-3.174,7.269-5.382V271.024z"/>
	<path fill="#333333" d="M850.09,259.523h3.681v3.772h0.092c1.656-2.944,4.278-4.325,7.729-4.325c6.256,0,8.189,3.588,8.189,8.695
		v15.642h-3.911v-16.102c0-2.944-1.84-4.784-4.831-4.784c-4.738,0-7.039,3.174-7.039,7.453v13.434h-3.911V259.523z"/>
	<path fill="#333333" d="M896.92,283.308h-3.911v-3.22h-0.092c-1.288,2.622-4.278,3.772-7.591,3.772
		c-7.315,0-10.949-5.797-10.949-12.514s3.588-12.375,10.857-12.375c2.392,0,5.98,0.92,7.683,3.727h0.092V250.46h3.911V283.308z
		 M885.879,280.409c5.291,0,7.269-4.554,7.269-8.971c0-4.647-2.116-9.017-7.499-9.017c-5.336,0-7.13,4.554-7.13,9.201
		C878.519,276.085,880.818,280.409,885.879,280.409z"/>
	<path fill="#333333" d="M915.593,259.523h3.681v5.015h0.092c1.886-3.865,4.509-5.705,8.741-5.567v4.141
		c-6.303,0-8.603,3.542-8.603,9.615v10.581h-3.911V259.523z"/>
	<path fill="#333333" d="M951.337,275.763c-1.058,5.291-4.784,8.097-10.167,8.097c-7.591,0-11.179-5.291-11.409-12.514
		c0-7.177,4.692-12.375,11.179-12.375c8.419,0,10.995,7.867,10.765,13.618h-17.804c-0.138,4.141,2.208,7.821,7.407,7.821
		c3.266,0,5.475-1.518,6.165-4.646H951.337z M947.565,269.138c-0.23-3.727-2.944-6.717-6.855-6.717
		c-4.048,0-6.579,3.036-6.809,6.717H947.565z"/>
	<path fill="#333333" d="M955.981,250.46h3.911v32.848h-3.911V250.46z"/>
	<path fill="#333333" d="M986.25,275.763c-1.058,5.291-4.784,8.097-10.167,8.097c-7.591,0-11.179-5.291-11.409-12.514
		c0-7.177,4.692-12.375,11.179-12.375c8.419,0,10.995,7.867,10.765,13.618h-17.804c-0.138,4.141,2.208,7.821,7.407,7.821
		c3.266,0,5.475-1.518,6.165-4.646H986.25z M982.479,269.138c-0.23-3.727-2.944-6.717-6.855-6.717c-4.048,0-6.579,3.036-6.809,6.717
		H982.479z"/>
	<path fill="#333333" d="M1011.734,283.216c-0.69,0.414-1.656,0.644-2.806,0.644c-2.024,0-3.312-1.104-3.312-3.681
		c-2.162,2.576-5.061,3.681-8.373,3.681c-4.324,0-7.867-1.886-7.867-6.671c0-5.383,4.002-6.579,8.051-7.315
		c4.278-0.874,8.005-0.506,8.005-3.496c0-3.451-2.852-3.957-5.291-3.957c-3.312,0-5.75,1.012-5.935,4.508h-3.911
		c0.23-5.889,4.739-7.959,10.075-7.959c4.278,0,8.925,0.966,8.925,6.533v12.238c0,1.84,0,2.668,1.242,2.668
		c0.368,0,0.782-0.092,1.196-0.23V283.216z M1005.386,271.024c-3.036,2.254-11.869,0.046-11.869,5.889
		c0,2.576,2.208,3.496,4.6,3.496c5.153,0,7.269-3.174,7.269-5.382V271.024z"/>
	<path fill="#333333" d="M1017.757,275.809c0.138,3.497,3.221,4.601,6.395,4.601c2.438,0,5.75-0.552,5.75-3.542
		c0-6.119-15.549-1.978-15.549-11.133c0-4.784,4.693-6.763,8.879-6.763c5.336,0,9.385,1.656,9.753,7.453h-3.911
		c-0.229-3.037-2.99-4.002-5.52-4.002c-2.346,0-5.061,0.644-5.061,3.036c0,2.76,4.141,3.312,7.775,4.141
		c3.91,0.874,7.774,2.208,7.774,6.763c0,5.705-5.29,7.499-10.121,7.499c-5.337,0-9.845-2.163-10.075-8.051H1017.757z"/>
	<path fill="#333333" d="M1058.653,275.763c-1.058,5.291-4.784,8.097-10.167,8.097c-7.591,0-11.18-5.291-11.409-12.514
		c0-7.177,4.692-12.375,11.179-12.375c8.42,0,10.996,7.867,10.766,13.618h-17.804c-0.138,4.141,2.208,7.821,7.407,7.821
		c3.266,0,5.475-1.518,6.164-4.646H1058.653z M1054.881,269.138c-0.23-3.727-2.943-6.717-6.854-6.717
		c-4.048,0-6.579,3.036-6.809,6.717H1054.881z"/>
	<path fill="#333333" d="M1090.393,249.678c10.442,0,15.733,8.235,15.733,17.206s-5.291,17.206-15.733,17.206
		c-10.443,0-15.734-8.235-15.734-17.206S1079.949,249.678,1090.393,249.678z M1090.393,280.409c8.005,0,11.363-6.901,11.363-13.525
		c0-6.625-3.358-13.525-11.363-13.525c-8.006,0-11.363,6.9-11.363,13.525C1079.029,273.508,1082.387,280.409,1090.393,280.409z"/>
	<path fill="#333333" d="M1112.425,262.973h-4.003v-3.45h4.003v-3.542c0-3.864,2.3-5.889,6.578-5.889
		c0.736,0,1.795,0.138,2.53,0.368v3.404c-0.689-0.23-1.518-0.322-2.208-0.322c-1.886,0-2.99,0.598-2.99,2.668v3.312h4.601v3.45
		h-4.601v20.334h-3.91V262.973z"/>
	<path fill="#333333" d="M1126.04,262.973h-4.003v-3.45h4.003v-3.542c0-3.864,2.3-5.889,6.578-5.889c0.736,0,1.795,0.138,2.53,0.368
		v3.404c-0.689-0.23-1.518-0.322-2.208-0.322c-1.886,0-2.99,0.598-2.99,2.668v3.312h4.601v3.45h-4.601v20.334h-3.91V262.973z"/>
	<path fill="#333333" d="M1158.333,275.763c-1.058,5.291-4.784,8.097-10.167,8.097c-7.591,0-11.18-5.291-11.409-12.514
		c0-7.177,4.692-12.375,11.18-12.375c8.419,0,10.995,7.867,10.765,13.618h-17.804c-0.139,4.141,2.208,7.821,7.406,7.821
		c3.267,0,5.475-1.518,6.165-4.646H1158.333z M1154.561,269.138c-0.229-3.727-2.944-6.717-6.854-6.717
		c-4.049,0-6.579,3.036-6.809,6.717H1154.561z"/>
	<path fill="#333333" d="M1162.608,259.523h3.68v5.015h0.093c1.886-3.865,4.508-5.705,8.74-5.567v4.141
		c-6.303,0-8.603,3.542-8.603,9.615v10.581h-3.91V259.523z"/>
	<path fill="#333333" d="M1182.204,255.245h-3.91v-4.785h3.91V255.245z M1178.294,259.523h3.91v23.785h-3.91V259.523z"/>
	<path fill="#333333" d="M1188.274,259.523h3.681v3.772h0.092c1.656-2.944,4.278-4.325,7.729-4.325c6.257,0,8.189,3.588,8.189,8.695
		v15.642h-3.91v-16.102c0-2.944-1.841-4.784-4.831-4.784c-4.738,0-7.039,3.174-7.039,7.453v13.434h-3.91V259.523z"/>
	<path fill="#333333" d="M1234.369,281.283c0,7.775-3.497,11.686-11.041,11.686c-4.463,0-9.615-1.84-9.846-6.993h3.91
		c0.139,2.806,3.635,3.864,6.165,3.864c5.106,0,7.131-3.68,7.131-9.017v-1.564h-0.092c-1.334,2.898-4.371,4.324-7.407,4.324
		c-7.085,0-10.627-5.566-10.627-12.053c0-5.613,2.714-12.56,10.995-12.56c2.99,0,5.659,1.334,7.085,3.957h0.046v-3.404h3.681
		V281.283z M1230.505,270.932c0-4.187-1.841-8.511-6.763-8.511c-5.015,0-7.039,4.094-7.039,8.649c0,4.278,1.563,9.063,6.717,9.063
		C1228.572,280.133,1230.505,275.395,1230.505,270.932z"/>
	<path fill="#333333" d="M1242.646,275.809c0.138,3.497,3.22,4.601,6.395,4.601c2.438,0,5.751-0.552,5.751-3.542
		c0-6.119-15.55-1.978-15.55-11.133c0-4.784,4.692-6.763,8.879-6.763c5.336,0,9.385,1.656,9.753,7.453h-3.91
		c-0.23-3.037-2.991-4.002-5.521-4.002c-2.346,0-5.061,0.644-5.061,3.036c0,2.76,4.141,3.312,7.775,4.141
		c3.91,0.874,7.774,2.208,7.774,6.763c0,5.705-5.29,7.499-10.121,7.499c-5.336,0-9.845-2.163-10.075-8.051H1242.646z"/>
	<path fill="#333333" d="M1281.471,259.523h4.738v3.45h-4.738v14.768c0,1.84,0.506,2.116,2.944,2.116h1.794v3.45h-2.99
		c-4.049,0-5.658-0.828-5.658-5.199v-15.136h-4.049v-3.45h4.049v-7.131h3.91V259.523z"/>
	<path fill="#333333" d="M1300.79,258.971c7.545,0,11.548,5.475,11.548,12.468c0,6.947-4.003,12.421-11.548,12.421
		s-11.547-5.475-11.547-12.421C1289.243,264.445,1293.245,258.971,1300.79,258.971z M1300.79,280.409
		c4.095,0,7.407-3.22,7.407-8.971c0-5.751-3.312-9.017-7.407-9.017c-4.094,0-7.406,3.266-7.406,9.017
		C1293.384,277.189,1296.696,280.409,1300.79,280.409z"/>
	<path fill="#333333" d="M1345.87,267.16c-0.598-2.99-2.622-4.738-5.889-4.738c-5.658,0-7.406,4.508-7.406,9.293
		c0,4.417,1.978,8.695,6.946,8.695c3.818,0,6.027-2.162,6.533-5.796h4.002c-0.874,5.842-4.462,9.247-10.489,9.247
		c-7.269,0-11.133-5.015-11.133-12.146s3.681-12.744,11.226-12.744c5.429,0,9.661,2.53,10.259,8.189H1345.87z"/>
	<path fill="#333333" d="M1354.654,250.46h3.91v32.848h-3.91V250.46z"/>
	<path fill="#333333" d="M1368.775,255.245h-3.91v-4.785h3.91V255.245z M1364.865,259.523h3.91v23.785h-3.91V259.523z"/>
	<path fill="#333333" d="M1395.134,275.763c-1.058,5.291-4.784,8.097-10.167,8.097c-7.591,0-11.18-5.291-11.409-12.514
		c0-7.177,4.692-12.375,11.18-12.375c8.419,0,10.995,7.867,10.765,13.618h-17.804c-0.139,4.141,2.208,7.821,7.406,7.821
		c3.267,0,5.475-1.518,6.165-4.646H1395.134z M1391.361,269.138c-0.229-3.727-2.944-6.717-6.854-6.717
		c-4.049,0-6.579,3.036-6.809,6.717H1391.361z"/>
	<path fill="#333333" d="M1399.547,259.523h3.681v3.772h0.092c1.656-2.944,4.278-4.325,7.729-4.325c6.257,0,8.189,3.588,8.189,8.695
		v15.642h-3.91v-16.102c0-2.944-1.841-4.784-4.831-4.784c-4.738,0-7.039,3.174-7.039,7.453v13.434h-3.91V259.523z"/>
	<path fill="#333333" d="M1430.552,259.523h4.738v3.45h-4.738v14.768c0,1.84,0.506,2.116,2.944,2.116h1.794v3.45h-2.99
		c-4.049,0-5.658-0.828-5.658-5.199v-15.136h-4.049v-3.45h4.049v-7.131h3.91V259.523z"/>
	<path fill="#333333" d="M1442.005,275.809c0.138,3.497,3.22,4.601,6.395,4.601c2.438,0,5.751-0.552,5.751-3.542
		c0-6.119-15.55-1.978-15.55-11.133c0-4.784,4.692-6.763,8.879-6.763c5.336,0,9.385,1.656,9.753,7.453h-3.91
		c-0.23-3.037-2.991-4.002-5.521-4.002c-2.346,0-5.061,0.644-5.061,3.036c0,2.76,4.141,3.312,7.775,4.141
		c3.91,0.874,7.774,2.208,7.774,6.763c0,5.705-5.29,7.499-10.121,7.499c-5.336,0-9.845-2.163-10.075-8.051H1442.005z"/>
	<path fill="#333333" d="M389.271,484.46h22.681v3.68h-18.31v10.443h17.068v3.68h-17.068v11.363h18.448v3.681h-22.819V484.46z"/>
	<path fill="#333333" d="M416.733,493.523h3.68v3.772h0.092c1.656-2.944,4.278-4.325,7.729-4.325c6.256,0,8.189,3.588,8.189,8.695
		v15.642h-3.911v-16.103c0-2.944-1.84-4.784-4.831-4.784c-4.738,0-7.039,3.174-7.039,7.453v13.434h-3.911V493.523z"/>
	<path fill="#333333" d="M444.701,509.809c0.138,3.496,3.221,4.601,6.395,4.601c2.438,0,5.75-0.552,5.75-3.542
		c0-6.119-15.55-1.979-15.55-11.134c0-4.784,4.692-6.763,8.879-6.763c5.337,0,9.385,1.656,9.753,7.453h-3.911
		c-0.23-3.037-2.99-4.002-5.521-4.002c-2.346,0-5.061,0.644-5.061,3.036c0,2.76,4.141,3.312,7.775,4.14
		c3.91,0.875,7.775,2.209,7.775,6.764c0,5.704-5.291,7.498-10.121,7.498c-5.337,0-9.845-2.162-10.075-8.051H444.701z"/>
	<path fill="#333333" d="M485,517.308h-3.681v-3.772h-0.092c-1.656,2.944-4.279,4.324-7.729,4.324c-6.257,0-8.189-3.588-8.189-8.695
		v-15.641h3.911v16.102c0,2.943,1.84,4.784,4.831,4.784c4.738,0,7.039-3.175,7.039-7.452v-13.434H485V517.308z"/>
	<path fill="#333333" d="M490.747,493.523h3.681v5.015h0.092c1.886-3.865,4.509-5.705,8.741-5.567v4.141
		c-6.303,0-8.603,3.542-8.603,9.615v10.581h-3.911V493.523z"/>
	<path fill="#333333" d="M526.491,509.763c-1.058,5.29-4.784,8.097-10.167,8.097c-7.591,0-11.179-5.291-11.409-12.514
		c0-7.176,4.692-12.375,11.179-12.375c8.419,0,10.995,7.867,10.765,13.617h-17.804c-0.138,4.141,2.208,7.821,7.407,7.821
		c3.266,0,5.475-1.519,6.165-4.646H526.491z M522.719,503.139c-0.23-3.727-2.944-6.717-6.855-6.717
		c-4.048,0-6.579,3.036-6.809,6.717H522.719z"/>
	<path fill="#333333" d="M533.296,509.809c0.138,3.496,3.221,4.601,6.395,4.601c2.438,0,5.75-0.552,5.75-3.542
		c0-6.119-15.55-1.979-15.55-11.134c0-4.784,4.693-6.763,8.879-6.763c5.337,0,9.385,1.656,9.753,7.453h-3.911
		c-0.23-3.037-2.99-4.002-5.521-4.002c-2.346,0-5.061,0.644-5.061,3.036c0,2.76,4.141,3.312,7.775,4.14
		c3.91,0.875,7.775,2.209,7.775,6.764c0,5.704-5.291,7.498-10.121,7.498c-5.337,0-9.845-2.162-10.075-8.051H533.296z"/>
	<path fill="#333333" d="M570.833,489.245h-3.911v-4.785h3.911V489.245z M566.922,493.523h3.911v23.785h-3.911V493.523z"/>
	<path fill="#333333" d="M576.904,493.523h3.68v3.772h0.092c1.656-2.944,4.278-4.325,7.729-4.325c6.256,0,8.189,3.588,8.189,8.695
		v15.642h-3.911v-16.103c0-2.944-1.84-4.784-4.831-4.784c-4.738,0-7.039,3.174-7.039,7.453v13.434h-3.911V493.523z"/>
	<path fill="#333333" d="M604.872,509.809c0.138,3.496,3.221,4.601,6.395,4.601c2.438,0,5.75-0.552,5.75-3.542
		c0-6.119-15.55-1.979-15.55-11.134c0-4.784,4.692-6.763,8.879-6.763c5.337,0,9.385,1.656,9.753,7.453h-3.911
		c-0.23-3.037-2.99-4.002-5.521-4.002c-2.346,0-5.061,0.644-5.061,3.036c0,2.76,4.141,3.312,7.775,4.14
		c3.91,0.875,7.775,2.209,7.775,6.764c0,5.704-5.291,7.498-10.121,7.498c-5.337,0-9.845-2.162-10.075-8.051H604.872z"/>
	<path fill="#333333" d="M630.909,493.523h4.738v3.45h-4.738v14.768c0,1.84,0.506,2.116,2.944,2.116h1.794v3.45h-2.99
		c-4.048,0-5.659-0.828-5.659-5.198v-15.136h-4.048v-3.45h4.048v-7.131h3.911V493.523z"/>
	<path fill="#333333" d="M661.04,517.216c-0.69,0.414-1.656,0.644-2.806,0.644c-2.024,0-3.312-1.104-3.312-3.68
		c-2.162,2.576-5.061,3.68-8.373,3.68c-4.324,0-7.867-1.886-7.867-6.67c0-5.383,4.002-6.579,8.051-7.315
		c4.279-0.874,8.005-0.506,8.005-3.496c0-3.451-2.852-3.957-5.291-3.957c-3.312,0-5.75,1.012-5.935,4.508h-3.911
		c0.23-5.889,4.739-7.959,10.075-7.959c4.279,0,8.925,0.966,8.925,6.533v12.238c0,1.84,0,2.668,1.242,2.668
		c0.368,0,0.782-0.092,1.196-0.229V517.216z M654.691,505.024c-3.036,2.254-11.869,0.046-11.869,5.889
		c0,2.576,2.208,3.496,4.6,3.496c5.153,0,7.269-3.175,7.269-5.382V505.024z"/>
	<path fill="#333333" d="M664.901,484.46h3.911v32.848h-3.911V484.46z"/>
	<path fill="#333333" d="M675.112,484.46h3.911v32.848h-3.911V484.46z"/>
	<path fill="#333333" d="M706.164,517.216c-0.69,0.414-1.656,0.644-2.806,0.644c-2.024,0-3.312-1.104-3.312-3.68
		c-2.162,2.576-5.061,3.68-8.373,3.68c-4.324,0-7.867-1.886-7.867-6.67c0-5.383,4.002-6.579,8.051-7.315
		c4.278-0.874,8.005-0.506,8.005-3.496c0-3.451-2.852-3.957-5.291-3.957c-3.312,0-5.75,1.012-5.935,4.508h-3.911
		c0.23-5.889,4.739-7.959,10.075-7.959c4.278,0,8.925,0.966,8.925,6.533v12.238c0,1.84,0,2.668,1.242,2.668
		c0.368,0,0.782-0.092,1.196-0.229V517.216z M699.815,505.024c-3.036,2.254-11.869,0.046-11.869,5.889
		c0,2.576,2.208,3.496,4.6,3.496c5.153,0,7.269-3.175,7.269-5.382V505.024z"/>
	<path fill="#333333" d="M715.224,493.523h4.738v3.45h-4.738v14.768c0,1.84,0.506,2.116,2.944,2.116h1.794v3.45h-2.99
		c-4.048,0-5.659-0.828-5.659-5.198v-15.136h-4.048v-3.45h4.048v-7.131h3.911V493.523z"/>
	<path fill="#333333" d="M728.425,489.245h-3.911v-4.785h3.911V489.245z M724.514,493.523h3.911v23.785h-3.911V493.523z"/>
	<path fill="#333333" d="M744.755,492.971c7.545,0,11.547,5.475,11.547,12.468c0,6.946-4.002,12.421-11.547,12.421
		s-11.547-5.475-11.547-12.421C733.208,498.445,737.21,492.971,744.755,492.971z M744.755,514.409c4.094,0,7.407-3.22,7.407-8.971
		s-3.312-9.017-7.407-9.017c-4.095,0-7.407,3.266-7.407,9.017S740.66,514.409,744.755,514.409z"/>
	<path fill="#333333" d="M760.899,493.523h3.68v3.772h0.092c1.656-2.944,4.278-4.325,7.729-4.325c6.256,0,8.189,3.588,8.189,8.695
		v15.642h-3.911v-16.103c0-2.944-1.84-4.784-4.831-4.784c-4.738,0-7.039,3.174-7.039,7.453v13.434h-3.911V493.523z"/>
	<path fill="#333333" d="M820.333,517.216c-0.69,0.414-1.656,0.644-2.806,0.644c-2.024,0-3.312-1.104-3.312-3.68
		c-2.162,2.576-5.061,3.68-8.373,3.68c-4.324,0-7.867-1.886-7.867-6.67c0-5.383,4.002-6.579,8.051-7.315
		c4.279-0.874,8.005-0.506,8.005-3.496c0-3.451-2.852-3.957-5.291-3.957c-3.312,0-5.75,1.012-5.935,4.508h-3.911
		c0.23-5.889,4.739-7.959,10.075-7.959c4.279,0,8.925,0.966,8.925,6.533v12.238c0,1.84,0,2.668,1.242,2.668
		c0.368,0,0.782-0.092,1.196-0.229V517.216z M813.985,505.024c-3.036,2.254-11.869,0.046-11.869,5.889
		c0,2.576,2.208,3.496,4.6,3.496c5.153,0,7.269-3.175,7.269-5.382V505.024z"/>
	<path fill="#333333" d="M840.113,501.16c-0.598-2.991-2.623-4.739-5.889-4.739c-5.659,0-7.407,4.508-7.407,9.293
		c0,4.416,1.978,8.694,6.947,8.694c3.818,0,6.026-2.162,6.533-5.796h4.002c-0.874,5.842-4.463,9.246-10.489,9.246
		c-7.269,0-11.133-5.014-11.133-12.145c0-7.131,3.68-12.744,11.225-12.744c5.429,0,9.661,2.53,10.259,8.189H840.113z"/>
	<path fill="#333333" d="M854.095,493.523h4.738v3.45h-4.738v14.768c0,1.84,0.506,2.116,2.944,2.116h1.794v3.45h-2.99
		c-4.048,0-5.659-0.828-5.659-5.198v-15.136h-4.048v-3.45h4.048v-7.131h3.911V493.523z"/>
	<path fill="#333333" d="M867.296,489.245h-3.911v-4.785h3.911V489.245z M863.385,493.523h3.911v23.785h-3.911V493.523z"/>
	<path fill="#333333" d="M884.086,517.308h-4.187l-8.833-23.785h4.371l6.671,19.829h0.092l6.487-19.829h4.094L884.086,517.308z"/>
	<path fill="#333333" d="M900.507,489.245h-3.911v-4.785h3.911V489.245z M896.597,493.523h3.911v23.785h-3.911V493.523z"/>
	<path fill="#333333" d="M912.007,493.523h4.738v3.45h-4.738v14.768c0,1.84,0.506,2.116,2.944,2.116h1.794v3.45h-2.99
		c-4.048,0-5.659-0.828-5.659-5.198v-15.136h-4.048v-3.45h4.048v-7.131h3.911V493.523z"/>
	<path fill="#333333" d="M925.208,489.245h-3.911v-4.785h3.911V489.245z M921.297,493.523h3.911v23.785h-3.911V493.523z"/>
	<path fill="#333333" d="M951.567,509.763c-1.058,5.29-4.784,8.097-10.167,8.097c-7.591,0-11.179-5.291-11.409-12.514
		c0-7.176,4.692-12.375,11.179-12.375c8.419,0,10.995,7.867,10.765,13.617h-17.804c-0.138,4.141,2.208,7.821,7.407,7.821
		c3.266,0,5.475-1.519,6.165-4.646H951.567z M947.795,503.139c-0.23-3.727-2.944-6.717-6.855-6.717
		c-4.048,0-6.579,3.036-6.809,6.717H947.795z"/>
	<path fill="#333333" d="M958.373,509.809c0.138,3.496,3.221,4.601,6.395,4.601c2.438,0,5.75-0.552,5.75-3.542
		c0-6.119-15.55-1.979-15.55-11.134c0-4.784,4.693-6.763,8.879-6.763c5.337,0,9.385,1.656,9.753,7.453h-3.911
		c-0.23-3.037-2.99-4.002-5.521-4.002c-2.346,0-5.061,0.644-5.061,3.036c0,2.76,4.141,3.312,7.775,4.14
		c3.91,0.875,7.775,2.209,7.775,6.764c0,5.704-5.291,7.498-10.121,7.498c-5.337,0-9.845-2.162-10.075-8.051H958.373z"/>
	<path fill="#333333" d="M1012.839,517.216c-0.69,0.414-1.656,0.644-2.806,0.644c-2.024,0-3.312-1.104-3.312-3.68
		c-2.162,2.576-5.061,3.68-8.373,3.68c-4.324,0-7.867-1.886-7.867-6.67c0-5.383,4.002-6.579,8.051-7.315
		c4.278-0.874,8.005-0.506,8.005-3.496c0-3.451-2.852-3.957-5.291-3.957c-3.312,0-5.75,1.012-5.935,4.508H991.4
		c0.23-5.889,4.739-7.959,10.075-7.959c4.278,0,8.925,0.966,8.925,6.533v12.238c0,1.84,0,2.668,1.242,2.668
		c0.368,0,0.782-0.092,1.196-0.229V517.216z M1006.49,505.024c-3.036,2.254-11.869,0.046-11.869,5.889
		c0,2.576,2.208,3.496,4.6,3.496c5.153,0,7.269-3.175,7.269-5.382V505.024z"/>
	<path fill="#333333" d="M1016.332,493.523h3.681v5.015h0.092c1.886-3.865,4.509-5.705,8.742-5.567v4.141
		c-6.303,0-8.604,3.542-8.604,9.615v10.581h-3.911V493.523z"/>
	<path fill="#333333" d="M1052.076,509.763c-1.059,5.29-4.785,8.097-10.168,8.097c-7.59,0-11.179-5.291-11.408-12.514
		c0-7.176,4.691-12.375,11.179-12.375c8.419,0,10.995,7.867,10.765,13.617h-17.803c-0.139,4.141,2.207,7.821,7.406,7.821
		c3.266,0,5.475-1.519,6.164-4.646H1052.076z M1048.304,503.139c-0.23-3.727-2.944-6.717-6.854-6.717
		c-4.049,0-6.579,3.036-6.809,6.717H1048.304z"/>
	<path fill="#333333" d="M1070.888,496.973h-4.003v-3.45h4.003v-3.542c0-3.864,2.3-5.889,6.579-5.889
		c0.735,0,1.793,0.138,2.529,0.368v3.404c-0.689-0.23-1.518-0.322-2.208-0.322c-1.886,0-2.99,0.598-2.99,2.668v3.312h4.601v3.45
		h-4.601v20.334h-3.91V496.973z"/>
	<path fill="#333333" d="M1102.583,517.308h-3.68v-3.772h-0.093c-1.656,2.944-4.278,4.324-7.729,4.324
		c-6.257,0-8.189-3.588-8.189-8.695v-15.641h3.911v16.102c0,2.943,1.84,4.784,4.83,4.784c4.739,0,7.039-3.175,7.039-7.452v-13.434
		h3.91V517.308z"/>
	<path fill="#333333" d="M1108.699,484.46h3.91v32.848h-3.91V484.46z"/>
	<path fill="#333333" d="M1118.911,484.46h3.91v32.848h-3.91V484.46z"/>
	<path fill="#333333" d="M1138.23,520.482c-1.84,4.6-3.404,6.348-6.9,6.348c-0.92,0-1.841-0.092-2.715-0.414v-3.588
		c0.736,0.23,1.519,0.553,2.301,0.553c1.61,0,2.484-0.736,3.22-2.162l1.61-4.049l-9.431-23.647h4.416l6.947,19.459h0.092
		l6.671-19.459h4.141L1138.23,520.482z"/>
	<path fill="#333333" d="M1185.935,517.308h-3.911v-3.22h-0.092c-1.288,2.621-4.278,3.771-7.591,3.771
		c-7.314,0-10.949-5.797-10.949-12.514c0-6.716,3.588-12.375,10.857-12.375c2.392,0,5.98,0.92,7.683,3.727h0.092V484.46h3.911
		V517.308z M1174.893,514.409c5.291,0,7.27-4.554,7.27-8.971c0-4.647-2.116-9.017-7.499-9.017c-5.337,0-7.131,4.554-7.131,9.201
		C1167.532,510.085,1169.832,514.409,1174.893,514.409z"/>
	<path fill="#333333" d="M1202.216,492.971c7.545,0,11.548,5.475,11.548,12.468c0,6.946-4.003,12.421-11.548,12.421
		s-11.547-5.475-11.547-12.421C1190.669,498.445,1194.671,492.971,1202.216,492.971z M1202.216,514.409
		c4.095,0,7.407-3.22,7.407-8.971s-3.312-9.017-7.407-9.017c-4.094,0-7.406,3.266-7.406,9.017S1198.122,514.409,1202.216,514.409z"
		/>
	<path fill="#333333" d="M1234.508,501.16c-0.598-2.991-2.622-4.739-5.889-4.739c-5.658,0-7.406,4.508-7.406,9.293
		c0,4.416,1.978,8.694,6.946,8.694c3.818,0,6.027-2.162,6.533-5.796h4.002c-0.874,5.842-4.462,9.246-10.489,9.246
		c-7.269,0-11.133-5.014-11.133-12.145c0-7.131,3.681-12.744,11.226-12.744c5.429,0,9.661,2.53,10.259,8.189H1234.508z"/>
	<path fill="#333333" d="M1262.752,517.308h-3.681v-3.772h-0.092c-1.656,2.944-4.278,4.324-7.729,4.324
		c-6.256,0-8.188-3.588-8.188-8.695v-15.641h3.91v16.102c0,2.943,1.841,4.784,4.831,4.784c4.738,0,7.039-3.175,7.039-7.452v-13.434
		h3.91V517.308z"/>
	<path fill="#333333" d="M1268.638,493.523h3.681v3.497h0.092c1.794-2.714,4.324-4.049,7.683-4.049c2.944,0,5.566,1.104,6.533,4.049
		c1.61-2.577,4.37-4.049,7.452-4.049c4.739,0,7.913,1.979,7.913,6.901v17.436h-3.91v-15.596c0-2.944-0.782-5.291-4.601-5.291
		s-6.211,2.392-6.211,6.073v14.813h-3.91v-15.596c0-3.083-0.966-5.291-4.463-5.291c-4.601,0-6.349,4.232-6.349,6.073v14.813h-3.91
		V493.523z"/>
	<path fill="#333333" d="M1328.164,509.763c-1.058,5.29-4.784,8.097-10.167,8.097c-7.591,0-11.18-5.291-11.409-12.514
		c0-7.176,4.692-12.375,11.18-12.375c8.419,0,10.995,7.867,10.765,13.617h-17.804c-0.139,4.141,2.208,7.821,7.406,7.821
		c3.267,0,5.475-1.519,6.165-4.646H1328.164z M1324.392,503.139c-0.229-3.727-2.944-6.717-6.854-6.717
		c-4.049,0-6.579,3.036-6.809,6.717H1324.392z"/>
	<path fill="#333333" d="M1332.577,493.523h3.681v3.772h0.092c1.656-2.944,4.278-4.325,7.729-4.325c6.257,0,8.189,3.588,8.189,8.695
		v15.642h-3.91v-16.103c0-2.944-1.841-4.784-4.831-4.784c-4.738,0-7.039,3.174-7.039,7.453v13.434h-3.91V493.523z"/>
	<path fill="#333333" d="M1363.582,493.523h4.738v3.45h-4.738v14.768c0,1.84,0.506,2.116,2.944,2.116h1.794v3.45h-2.99
		c-4.049,0-5.658-0.828-5.658-5.198v-15.136h-4.049v-3.45h4.049v-7.131h3.91V493.523z"/>
	<path fill="#333333" d="M1392.931,509.763c-1.058,5.29-4.784,8.097-10.167,8.097c-7.591,0-11.18-5.291-11.409-12.514
		c0-7.176,4.692-12.375,11.18-12.375c8.419,0,10.995,7.867,10.765,13.617h-17.804c-0.139,4.141,2.208,7.821,7.406,7.821
		c3.267,0,5.475-1.519,6.165-4.646H1392.931z M1389.158,503.139c-0.229-3.727-2.944-6.717-6.854-6.717
		c-4.049,0-6.579,3.036-6.809,6.717H1389.158z"/>
	<path fill="#333333" d="M1418.599,517.308h-3.911v-3.22h-0.092c-1.288,2.621-4.278,3.771-7.591,3.771
		c-7.314,0-10.949-5.797-10.949-12.514c0-6.716,3.588-12.375,10.857-12.375c2.392,0,5.98,0.92,7.683,3.727h0.092V484.46h3.911
		V517.308z M1407.557,514.409c5.291,0,7.27-4.554,7.27-8.971c0-4.647-2.116-9.017-7.499-9.017c-5.337,0-7.131,4.554-7.131,9.201
		C1400.196,510.085,1402.496,514.409,1407.557,514.409z"/>
	<path fill="#333333" d="M389.271,718.46h14.4c6.579,0,10.075,3.588,10.075,9.707s-3.496,9.753-10.075,9.707h-10.029v13.434h-4.371
		V718.46z M393.642,734.193h8.557c4.968,0.046,7.177-2.116,7.177-6.026s-2.208-6.026-7.177-6.026h-8.557V734.193z"/>
	<path fill="#333333" d="M418.297,727.522h3.681v5.015h0.092c1.886-3.864,4.509-5.704,8.741-5.566v4.141
		c-6.303,0-8.603,3.542-8.603,9.615v10.581h-3.911V727.522z"/>
	<path fill="#333333" d="M444.012,726.971c7.545,0,11.547,5.475,11.547,12.468c0,6.946-4.002,12.421-11.547,12.421
		s-11.547-5.475-11.547-12.421C432.465,732.445,436.467,726.971,444.012,726.971z M444.012,748.409c4.094,0,7.407-3.221,7.407-8.971
		c0-5.751-3.312-9.018-7.407-9.018c-4.095,0-7.407,3.267-7.407,9.018C436.605,745.188,439.917,748.409,444.012,748.409z"/>
	<path fill="#333333" d="M470.875,751.308h-4.187l-8.833-23.785h4.371l6.671,19.829h0.092l6.487-19.829h4.094L470.875,751.308z"/>
	<path fill="#333333" d="M487.297,723.244h-3.911v-4.784h3.911V723.244z M483.386,727.522h3.911v23.785h-3.911V727.522z"/>
	<path fill="#333333" d="M514.622,751.308h-3.911v-3.221h-0.092c-1.288,2.623-4.278,3.772-7.591,3.772
		c-7.315,0-10.949-5.796-10.949-12.513s3.588-12.376,10.857-12.376c2.393,0,5.981,0.92,7.683,3.727h0.092V718.46h3.911V751.308z
		 M503.581,748.409c5.291,0,7.269-4.555,7.269-8.971c0-4.646-2.116-9.018-7.499-9.018c-5.336,0-7.13,4.555-7.13,9.201
		C496.22,744.085,498.521,748.409,503.581,748.409z"/>
	<path fill="#333333" d="M540.933,743.763c-1.058,5.291-4.784,8.097-10.167,8.097c-7.591,0-11.179-5.29-11.409-12.513
		c0-7.178,4.692-12.376,11.179-12.376c8.419,0,10.995,7.867,10.765,13.618h-17.804c-0.138,4.14,2.208,7.82,7.407,7.82
		c3.266,0,5.475-1.518,6.165-4.646H540.933z M537.161,737.138c-0.23-3.727-2.944-6.717-6.855-6.717
		c-4.048,0-6.579,3.037-6.809,6.717H537.161z"/>
	<path fill="#333333" d="M547.739,743.809c0.138,3.496,3.221,4.601,6.395,4.601c2.438,0,5.75-0.552,5.75-3.542
		c0-6.119-15.55-1.979-15.55-11.134c0-4.784,4.693-6.763,8.879-6.763c5.337,0,9.385,1.656,9.753,7.453h-3.911
		c-0.23-3.036-2.99-4.003-5.521-4.003c-2.346,0-5.061,0.645-5.061,3.037c0,2.76,4.141,3.312,7.775,4.14
		c3.91,0.874,7.775,2.209,7.775,6.763c0,5.705-5.291,7.499-10.121,7.499c-5.337,0-9.845-2.162-10.075-8.051H547.739z"/>
	<path fill="#333333" d="M602.205,751.216c-0.69,0.414-1.656,0.644-2.806,0.644c-2.024,0-3.312-1.104-3.312-3.68
		c-2.162,2.576-5.061,3.68-8.373,3.68c-4.324,0-7.867-1.886-7.867-6.671c0-5.382,4.002-6.578,8.051-7.314
		c4.278-0.874,8.005-0.506,8.005-3.496c0-3.45-2.852-3.957-5.291-3.957c-3.312,0-5.75,1.013-5.935,4.509h-3.911
		c0.23-5.889,4.739-7.959,10.075-7.959c4.278,0,8.925,0.966,8.925,6.533v12.237c0,1.84,0,2.668,1.242,2.668
		c0.368,0,0.782-0.092,1.196-0.229V751.216z M595.856,739.024c-3.036,2.254-11.869,0.046-11.869,5.889
		c0,2.576,2.208,3.496,4.6,3.496c5.153,0,7.269-3.174,7.269-5.383V739.024z"/>
	<path fill="#333333" d="M618.762,727.522h3.91v3.221h0.092c1.288-2.622,4.278-3.772,7.591-3.772
		c7.315,0,10.949,5.797,10.949,12.514c0,6.763-3.588,12.375-10.857,12.375c-2.392,0-5.98-0.92-7.683-3.727h-0.092v12.284h-3.91
		V727.522z M629.803,730.421c-5.291,0-7.269,4.555-7.269,8.972c0,4.646,2.116,9.017,7.499,9.017c5.337,0,7.131-4.555,7.131-9.201
		C637.164,734.746,634.864,730.421,629.803,730.421z"/>
	<path fill="#333333" d="M645.763,727.522h3.681v5.015h0.092c1.886-3.864,4.509-5.704,8.741-5.566v4.141
		c-6.303,0-8.603,3.542-8.603,9.615v10.581h-3.911V727.522z"/>
	<path fill="#333333" d="M671.479,726.971c7.545,0,11.547,5.475,11.547,12.468c0,6.946-4.002,12.421-11.547,12.421
		s-11.547-5.475-11.547-12.421C659.931,732.445,663.934,726.971,671.479,726.971z M671.479,748.409c4.094,0,7.407-3.221,7.407-8.971
		c0-5.751-3.312-9.018-7.407-9.018c-4.095,0-7.407,3.267-7.407,9.018C664.072,745.188,667.384,748.409,671.479,748.409z"/>
	<path fill="#333333" d="M703.771,735.16c-0.598-2.991-2.623-4.739-5.889-4.739c-5.659,0-7.407,4.509-7.407,9.293
		c0,4.417,1.978,8.695,6.947,8.695c3.818,0,6.026-2.162,6.533-5.797h4.002c-0.874,5.843-4.463,9.247-10.489,9.247
		c-7.269,0-11.133-5.015-11.133-12.146s3.68-12.743,11.225-12.743c5.429,0,9.661,2.53,10.259,8.189H703.771z"/>
	<path fill="#333333" d="M732.612,743.763c-1.058,5.291-4.784,8.097-10.167,8.097c-7.591,0-11.179-5.29-11.409-12.513
		c0-7.178,4.692-12.376,11.179-12.376c8.419,0,10.995,7.867,10.765,13.618h-17.804c-0.138,4.14,2.208,7.82,7.407,7.82
		c3.266,0,5.475-1.518,6.165-4.646H732.612z M728.84,737.138c-0.23-3.727-2.944-6.717-6.855-6.717c-4.048,0-6.579,3.037-6.809,6.717
		H728.84z"/>
	<path fill="#333333" d="M739.417,743.809c0.138,3.496,3.221,4.601,6.395,4.601c2.438,0,5.75-0.552,5.75-3.542
		c0-6.119-15.55-1.979-15.55-11.134c0-4.784,4.693-6.763,8.879-6.763c5.337,0,9.385,1.656,9.753,7.453h-3.911
		c-0.23-3.036-2.99-4.003-5.521-4.003c-2.346,0-5.061,0.645-5.061,3.037c0,2.76,4.141,3.312,7.775,4.14
		c3.91,0.874,7.775,2.209,7.775,6.763c0,5.705-5.291,7.499-10.121,7.499c-5.337,0-9.845-2.162-10.075-8.051H739.417z"/>
	<path fill="#333333" d="M762.417,743.809c0.138,3.496,3.221,4.601,6.395,4.601c2.438,0,5.75-0.552,5.75-3.542
		c0-6.119-15.55-1.979-15.55-11.134c0-4.784,4.693-6.763,8.879-6.763c5.337,0,9.385,1.656,9.753,7.453h-3.911
		c-0.23-3.036-2.99-4.003-5.521-4.003c-2.346,0-5.061,0.645-5.061,3.037c0,2.76,4.141,3.312,7.775,4.14
		c3.91,0.874,7.775,2.209,7.775,6.763c0,5.705-5.291,7.499-10.121,7.499c-5.337,0-9.845-2.162-10.075-8.051H762.417z"/>
	<path fill="#333333" d="M797.424,730.974h-4.002v-3.451h4.002v-3.542c0-3.864,2.3-5.889,6.579-5.889
		c0.736,0,1.794,0.138,2.53,0.368v3.404c-0.69-0.23-1.518-0.322-2.208-0.322c-1.886,0-2.99,0.599-2.99,2.669v3.312h4.601v3.451
		h-4.601v20.334h-3.91V730.974z"/>
	<path fill="#333333" d="M819.688,726.971c7.545,0,11.547,5.475,11.547,12.468c0,6.946-4.002,12.421-11.547,12.421
		s-11.547-5.475-11.547-12.421C808.141,732.445,812.144,726.971,819.688,726.971z M819.688,748.409c4.094,0,7.407-3.221,7.407-8.971
		c0-5.751-3.312-9.018-7.407-9.018c-4.095,0-7.407,3.267-7.407,9.018C812.282,745.188,815.594,748.409,819.688,748.409z"/>
	<path fill="#333333" d="M835.694,727.522h3.681v5.015h0.092c1.886-3.864,4.509-5.704,8.741-5.566v4.141
		c-6.303,0-8.603,3.542-8.603,9.615v10.581h-3.911V727.522z"/>
	<path fill="#333333" d="M863.8,727.522h3.681v5.015h0.092c1.886-3.864,4.509-5.704,8.741-5.566v4.141
		c-6.303,0-8.603,3.542-8.603,9.615v10.581H863.8V727.522z"/>
	<path fill="#333333" d="M899.544,743.763c-1.058,5.291-4.784,8.097-10.167,8.097c-7.591,0-11.179-5.29-11.409-12.513
		c0-7.178,4.692-12.376,11.179-12.376c8.419,0,10.995,7.867,10.765,13.618h-17.804c-0.138,4.14,2.208,7.82,7.407,7.82
		c3.266,0,5.475-1.518,6.165-4.646H899.544z M895.772,737.138c-0.23-3.727-2.944-6.717-6.855-6.717
		c-4.048,0-6.579,3.037-6.809,6.717H895.772z"/>
	<path fill="#333333" d="M904.188,718.46h3.911v32.848h-3.911V718.46z"/>
	<path fill="#333333" d="M934.458,743.763c-1.058,5.291-4.784,8.097-10.167,8.097c-7.591,0-11.179-5.29-11.409-12.513
		c0-7.178,4.692-12.376,11.179-12.376c8.419,0,10.995,7.867,10.765,13.618h-17.804c-0.138,4.14,2.208,7.82,7.407,7.82
		c3.266,0,5.475-1.518,6.165-4.646H934.458z M930.686,737.138c-0.23-3.727-2.944-6.717-6.855-6.717
		c-4.048,0-6.579,3.037-6.809,6.717H930.686z"/>
	<path fill="#333333" d="M959.941,751.216c-0.69,0.414-1.656,0.644-2.806,0.644c-2.024,0-3.312-1.104-3.312-3.68
		c-2.162,2.576-5.061,3.68-8.373,3.68c-4.324,0-7.867-1.886-7.867-6.671c0-5.382,4.002-6.578,8.051-7.314
		c4.278-0.874,8.005-0.506,8.005-3.496c0-3.45-2.852-3.957-5.291-3.957c-3.312,0-5.75,1.013-5.935,4.509h-3.911
		c0.23-5.889,4.739-7.959,10.075-7.959c4.278,0,8.925,0.966,8.925,6.533v12.237c0,1.84,0,2.668,1.242,2.668
		c0.368,0,0.782-0.092,1.196-0.229V751.216z M953.593,739.024c-3.036,2.254-11.869,0.046-11.869,5.889
		c0,2.576,2.208,3.496,4.6,3.496c5.153,0,7.269-3.174,7.269-5.383V739.024z"/>
	<path fill="#333333" d="M965.964,743.809c0.138,3.496,3.221,4.601,6.395,4.601c2.438,0,5.75-0.552,5.75-3.542
		c0-6.119-15.55-1.979-15.55-11.134c0-4.784,4.693-6.763,8.879-6.763c5.337,0,9.385,1.656,9.753,7.453h-3.911
		c-0.23-3.036-2.99-4.003-5.521-4.003c-2.346,0-5.061,0.645-5.061,3.037c0,2.76,4.141,3.312,7.775,4.14
		c3.91,0.874,7.775,2.209,7.775,6.763c0,5.705-5.291,7.499-10.121,7.499c-5.337,0-9.845-2.162-10.075-8.051H965.964z"/>
	<path fill="#333333" d="M990.713,723.244h-3.911v-4.784h3.911V723.244z M986.802,727.522h3.911v23.785h-3.911V727.522z"/>
	<path fill="#333333" d="M996.784,727.522h3.68v3.772h0.092c1.656-2.944,4.278-4.324,7.729-4.324c6.256,0,8.189,3.589,8.189,8.695
		v15.642h-3.911v-16.102c0-2.944-1.84-4.785-4.831-4.785c-4.738,0-7.039,3.175-7.039,7.453v13.434h-3.911V727.522z"/>
	<path fill="#333333" d="M1042.879,749.283c0,7.775-3.497,11.686-11.042,11.686c-4.462,0-9.615-1.84-9.845-6.993h3.911
		c0.138,2.807,3.635,3.865,6.164,3.865c5.107,0,7.131-3.681,7.131-9.018v-1.564h-0.092c-1.334,2.898-4.37,4.325-7.406,4.325
		c-7.085,0-10.627-5.567-10.627-12.054c0-5.612,2.714-12.56,10.995-12.56c2.99,0,5.659,1.334,7.086,3.957h0.045v-3.405h3.682
		V749.283z M1039.014,738.933c0-4.187-1.84-8.512-6.763-8.512c-5.015,0-7.038,4.095-7.038,8.649c0,4.278,1.563,9.062,6.716,9.062
		C1037.082,748.133,1039.014,743.395,1039.014,738.933z"/>
	<path fill="#333333" d="M1082.621,751.216c-0.689,0.414-1.656,0.644-2.806,0.644c-2.024,0-3.312-1.104-3.312-3.68
		c-2.162,2.576-5.061,3.68-8.373,3.68c-4.324,0-7.866-1.886-7.866-6.671c0-5.382,4.002-6.578,8.051-7.314
		c4.278-0.874,8.004-0.506,8.004-3.496c0-3.45-2.852-3.957-5.29-3.957c-3.312,0-5.751,1.013-5.935,4.509h-3.91
		c0.229-5.889,4.738-7.959,10.074-7.959c4.279,0,8.926,0.966,8.926,6.533v12.237c0,1.84,0,2.668,1.242,2.668
		c0.367,0,0.781-0.092,1.195-0.229V751.216z M1076.273,739.024c-3.037,2.254-11.869,0.046-11.869,5.889
		c0,2.576,2.207,3.496,4.6,3.496c5.152,0,7.27-3.174,7.27-5.383V739.024z"/>
	<path fill="#333333" d="M1086.253,727.522h3.681v3.772h0.092c1.656-2.944,4.278-4.324,7.729-4.324c6.257,0,8.189,3.589,8.189,8.695
		v15.642h-3.91v-16.102c0-2.944-1.841-4.785-4.831-4.785c-4.738,0-7.039,3.175-7.039,7.453v13.434h-3.91V727.522z"/>
	<path fill="#333333" d="M1139.155,717.678c10.442,0,15.733,8.235,15.733,17.206s-5.291,17.206-15.733,17.206
		c-10.443,0-15.734-8.235-15.734-17.206S1128.712,717.678,1139.155,717.678z M1139.155,748.409c8.005,0,11.363-6.9,11.363-13.525
		s-3.358-13.525-11.363-13.525s-11.363,6.9-11.363,13.525S1131.15,748.409,1139.155,748.409z"/>
	<path fill="#333333" d="M1161.188,730.974h-4.003v-3.451h4.003v-3.542c0-3.864,2.3-5.889,6.578-5.889
		c0.736,0,1.795,0.138,2.53,0.368v3.404c-0.689-0.23-1.518-0.322-2.208-0.322c-1.886,0-2.99,0.599-2.99,2.669v3.312h4.601v3.451
		h-4.601v20.334h-3.91V730.974z"/>
	<path fill="#333333" d="M1174.803,730.974h-4.003v-3.451h4.003v-3.542c0-3.864,2.3-5.889,6.578-5.889
		c0.736,0,1.795,0.138,2.53,0.368v3.404c-0.689-0.23-1.518-0.322-2.208-0.322c-1.886,0-2.99,0.599-2.99,2.669v3.312h4.601v3.451
		h-4.601v20.334h-3.91V730.974z"/>
	<path fill="#333333" d="M1207.096,743.763c-1.058,5.291-4.784,8.097-10.167,8.097c-7.591,0-11.18-5.29-11.409-12.513
		c0-7.178,4.692-12.376,11.18-12.376c8.419,0,10.995,7.867,10.765,13.618h-17.804c-0.139,4.14,2.208,7.82,7.406,7.82
		c3.267,0,5.475-1.518,6.165-4.646H1207.096z M1203.323,737.138c-0.229-3.727-2.944-6.717-6.854-6.717
		c-4.049,0-6.579,3.037-6.809,6.717H1203.323z"/>
	<path fill="#333333" d="M1211.371,727.522h3.68v5.015h0.093c1.886-3.864,4.508-5.704,8.74-5.566v4.141
		c-6.303,0-8.603,3.542-8.603,9.615v10.581h-3.91V727.522z"/>
	<path fill="#333333" d="M1230.967,723.244h-3.91v-4.784h3.91V723.244z M1227.057,727.522h3.91v23.785h-3.91V727.522z"/>
	<path fill="#333333" d="M1237.037,727.522h3.681v3.772h0.092c1.656-2.944,4.278-4.324,7.729-4.324c6.257,0,8.189,3.589,8.189,8.695
		v15.642h-3.91v-16.102c0-2.944-1.841-4.785-4.831-4.785c-4.738,0-7.039,3.175-7.039,7.453v13.434h-3.91V727.522z"/>
	<path fill="#333333" d="M1283.132,749.283c0,7.775-3.497,11.686-11.041,11.686c-4.463,0-9.615-1.84-9.846-6.993h3.91
		c0.139,2.807,3.635,3.865,6.165,3.865c5.106,0,7.131-3.681,7.131-9.018v-1.564h-0.092c-1.334,2.898-4.371,4.325-7.407,4.325
		c-7.085,0-10.627-5.567-10.627-12.054c0-5.612,2.714-12.56,10.995-12.56c2.99,0,5.659,1.334,7.085,3.957h0.046v-3.405h3.681
		V749.283z M1279.268,738.933c0-4.187-1.841-8.512-6.763-8.512c-5.015,0-7.039,4.095-7.039,8.649c0,4.278,1.564,9.062,6.717,9.062
		S1279.268,743.395,1279.268,738.933z"/>
	<path fill="#333333" d="M1307.233,727.522h4.738v3.451h-4.738v14.768c0,1.84,0.506,2.116,2.944,2.116h1.794v3.45h-2.99
		c-4.049,0-5.658-0.828-5.658-5.198v-15.136h-4.049v-3.451h4.049v-7.131h3.91V727.522z"/>
	<path fill="#333333" d="M1326.553,726.971c7.545,0,11.548,5.475,11.548,12.468c0,6.946-4.003,12.421-11.548,12.421
		s-11.547-5.475-11.547-12.421C1315.006,732.445,1319.008,726.971,1326.553,726.971z M1326.553,748.409
		c4.095,0,7.407-3.221,7.407-8.971c0-5.751-3.312-9.018-7.407-9.018c-4.094,0-7.406,3.267-7.406,9.018
		C1319.146,745.188,1322.459,748.409,1326.553,748.409z"/>
	<path fill="#333333" d="M1376.556,751.216c-0.69,0.414-1.656,0.644-2.807,0.644c-2.023,0-3.312-1.104-3.312-3.68
		c-2.163,2.576-5.061,3.68-8.373,3.68c-4.325,0-7.867-1.886-7.867-6.671c0-5.382,4.002-6.578,8.051-7.314
		c4.278-0.874,8.005-0.506,8.005-3.496c0-3.45-2.853-3.957-5.29-3.957c-3.312,0-5.751,1.013-5.936,4.509h-3.91
		c0.23-5.889,4.738-7.959,10.075-7.959c4.278,0,8.925,0.966,8.925,6.533v12.237c0,1.84,0,2.668,1.242,2.668
		c0.368,0,0.782-0.092,1.196-0.229V751.216z M1370.207,739.024c-3.036,2.254-11.869,0.046-11.869,5.889
		c0,2.576,2.208,3.496,4.601,3.496c5.152,0,7.269-3.174,7.269-5.383V739.024z"/>
	<path fill="#333333" d="M1409.122,735.16c-0.598-2.991-2.622-4.739-5.889-4.739c-5.658,0-7.406,4.509-7.406,9.293
		c0,4.417,1.978,8.695,6.946,8.695c3.818,0,6.027-2.162,6.533-5.797h4.002c-0.874,5.843-4.462,9.247-10.489,9.247
		c-7.269,0-11.133-5.015-11.133-12.146s3.681-12.743,11.226-12.743c5.429,0,9.661,2.53,10.259,8.189H1409.122z"/>
	<path fill="#333333" d="M1417.906,718.46h3.91v32.848h-3.91V718.46z"/>
	<path fill="#333333" d="M1432.027,723.244h-3.91v-4.784h3.91V723.244z M1428.117,727.522h3.91v23.785h-3.91V727.522z"/>
	<path fill="#333333" d="M1458.386,743.763c-1.058,5.291-4.784,8.097-10.167,8.097c-7.591,0-11.18-5.29-11.409-12.513
		c0-7.178,4.692-12.376,11.18-12.376c8.419,0,10.995,7.867,10.765,13.618h-17.804c-0.139,4.14,2.208,7.82,7.406,7.82
		c3.267,0,5.475-1.518,6.165-4.646H1458.386z M1454.613,737.138c-0.229-3.727-2.944-6.717-6.854-6.717
		c-4.049,0-6.579,3.037-6.809,6.717H1454.613z"/>
	<path fill="#333333" d="M1462.799,727.522h3.681v3.772h0.092c1.656-2.944,4.278-4.324,7.729-4.324c6.257,0,8.189,3.589,8.189,8.695
		v15.642h-3.91v-16.102c0-2.944-1.841-4.785-4.831-4.785c-4.738,0-7.039,3.175-7.039,7.453v13.434h-3.91V727.522z"/>
	<path fill="#333333" d="M1493.804,727.522h4.738v3.451h-4.738v14.768c0,1.84,0.506,2.116,2.944,2.116h1.794v3.45h-2.99
		c-4.049,0-5.658-0.828-5.658-5.198v-15.136h-4.049v-3.451h4.049v-7.131h3.91V727.522z"/>
</g>
<line fill="none" stroke="#343636" stroke-width="4" stroke-miterlimit="10" x1="53.283" y1="54.113" x2="1919.92" y2="54.113"/>
<path fill="#1365A8" d="M349.683,237.743c0,45.973-37.268,83.24-83.24,83.24c-45.974,0-83.242-37.268-83.242-83.24
	s37.268-83.241,83.242-83.241C312.416,154.502,349.683,191.771,349.683,237.743"/>
<g>
	<path fill-rule="evenodd" clip-rule="evenodd" fill="#3D566E" d="M313.826,266.487c-1.786,3.183-3.891,5.996-6.352,8.457
		l-0.154,0.14c-2.433,2.414-5.215,4.475-8.322,6.227c-1.953,1.078-4.105,1.463-6.181,1.172c-2.061-0.277-4.045-1.246-5.615-2.816
		l-0.016-0.016v0.016l-18.425-18.44l-6.212-6.214l17.193-17.194l6.998-1.539c1.816-0.399,3.568-1.037,5.215-1.86l20.238,20.257
		c1.568,1.582,2.523,3.566,2.814,5.628C315.301,262.377,314.917,264.547,313.826,266.487z"/>
	<polygon fill-rule="evenodd" clip-rule="evenodd" fill="#D1D1D1" points="254.274,226.881 238.094,210.686 232.773,210.917 
		218.731,193.668 226.268,186.147 243.508,200.189 243.263,205.534 254.611,216.893 259.442,221.721 	"/>
	<path fill-rule="evenodd" clip-rule="evenodd" fill="#2C3E50" d="M313.826,266.487c-1.786,3.183-3.891,5.996-6.352,8.457
		l-0.154,0.14c-2.433,2.414-5.215,4.475-8.322,6.227c-1.953,1.078-4.105,1.463-6.181,1.172c-2.061-0.277-4.045-1.246-5.615-2.816
		l-0.016-0.016v0.016l-18.425-18.44l-6.212-6.214l3.537-3.535l24.639,24.653l0,0c0.799,0.783,1.77,1.276,2.782,1.401
		c0.464,0.076,0.94,0.061,1.4,0l-27.424-27.456l12.259-12.257l28.408,28.424c0.46-0.709,0.907-1.432,1.323-2.186
		c0.537-0.969,0.738-2.044,0.598-3.06c-0.137-1-0.614-1.984-1.415-2.785l-21.916-21.932c1.816-0.399,3.568-1.037,5.215-1.86
		l20.238,20.257c1.568,1.582,2.523,3.566,2.814,5.628C315.301,262.377,314.917,264.547,313.826,266.487z"/>
	<path fill-rule="evenodd" clip-rule="evenodd" fill="#D1D1D1" d="M285.357,215.293c-4.353-4.292-7.136-10.344-3.923-13.542
		l13.197-13.196l-1.814-1.815c-5.752-5.76-24.209,4.329-30.5,13.727c-3.199,4.775-4.152,11.827,0.677,17.702l-42.833,42.795
		c-1.553,1.554-2.506,3.523-2.783,5.581c-1.14,8.121,8.676,17.935,16.78,16.812c2.06-0.293,4.029-1.23,5.597-2.785l42.604-42.578
		c5.398,5.345,12.658,3.791,17.81,0.361c9.411-6.275,19.501-24.739,13.749-30.499l-1.813-1.815l-13.196,13.197
		C295.693,222.444,289.647,219.653,285.357,215.293L285.357,215.293z M227.142,273.56c-3.874-3.905-3.874-10.214,0.016-14.12
		c3.893-3.875,10.215-3.875,14.105,0.015c3.891,3.891,3.891,10.214-0.016,14.104C237.357,277.451,231.05,277.451,227.142,273.56z"/>
	<path fill-rule="evenodd" clip-rule="evenodd" fill="#DAE1E6" d="M222.237,278.357l4.86-4.859
		c-3.829-3.891-3.813-10.181,0.061-14.058c3.877-3.859,10.152-3.875,14.042-0.032l44.157-44.115
		c-4.353-4.292-7.136-10.344-3.923-13.542l13.197-13.196l-1.814-1.807c-5.752-5.768-24.209,4.321-30.5,13.719
		c-3.199,4.775-4.152,11.827,0.677,17.702l-42.833,42.795c-1.553,1.554-2.506,3.523-2.783,5.581
		C216.806,270.576,218.946,275.037,222.237,278.357z"/>
</g>
<path fill="#1365A8" d="M349.683,495.665c0,45.972-37.268,83.24-83.24,83.24c-45.974,0-83.242-37.268-83.242-83.24
	c0-45.973,37.268-83.241,83.242-83.241C312.416,412.423,349.683,449.692,349.683,495.665"/>
<g>
	<path fill-rule="evenodd" clip-rule="evenodd" fill="#2C3E50" d="M229.665,555.399h75.56c3.141,0,5.708-2.566,5.708-5.708V449.306
		c0-3.142-2.566-5.708-5.708-5.708h-12.24h-7.285h-36.51h-6.354h-13.171c-3.14,0-5.708,2.566-5.708,5.708v100.386
		C223.956,552.833,226.524,555.399,229.665,555.399z"/>
	<path fill-rule="evenodd" clip-rule="evenodd" fill="#ECF0F1" d="M301.82,451.707v95.584h-68.753v-95.584
		C255.98,451.707,278.909,451.707,301.82,451.707z"/>
	<rect x="233.067" y="451.707" fill-rule="evenodd" clip-rule="evenodd" fill="#DAE1E6" width="34.37" height="95.584"/>
	<path fill-rule="evenodd" clip-rule="evenodd" fill="#666666" d="M251.083,459.761v-16.163h32.723v16.163H251.083L251.083,459.761z
		 M280.075,456.577c0-3.532,0-6.263,0-9.797c-8.425,0-16.835,0-25.26,0c0,3.534,0,6.265,0,9.797
		C263.24,456.577,271.65,456.577,280.075,456.577z"/>
	<path fill-rule="evenodd" clip-rule="evenodd" fill="#E02828" d="M243.633,475.183L243.633,475.183c1.345,0,2.44,1.104,2.44,2.457
		l0,0c0,1.343-1.096,2.448-2.44,2.448l0,0c-1.359,0-2.457-1.105-2.457-2.448l0,0C241.176,476.287,242.274,475.183,243.633,475.183z"
		/>
	<path fill-rule="evenodd" clip-rule="evenodd" fill="#FFCB05" d="M243.633,488.361L243.633,488.361c1.345,0,2.44,1.104,2.44,2.457
		l0,0c0,1.344-1.096,2.449-2.44,2.449l0,0c-1.359,0-2.457-1.105-2.457-2.449l0,0C241.176,489.465,242.274,488.361,243.633,488.361z"
		/>
	<path fill-rule="evenodd" clip-rule="evenodd" fill="#6699FF" d="M243.633,502.363L243.633,502.363c1.345,0,2.44,1.104,2.44,2.448
		l0,0c0,1.345-1.096,2.443-2.44,2.443l0,0c-1.359,0-2.457-1.099-2.457-2.443l0,0C241.176,503.468,242.274,502.363,243.633,502.363z"
		/>
	<rect x="251.083" y="476.409" fill-rule="evenodd" clip-rule="evenodd" fill="#2C3E50" width="38.018" height="2.45"/>
	<rect x="251.083" y="489.581" fill-rule="evenodd" clip-rule="evenodd" fill="#2C3E50" width="41.135" height="2.458"/>
	<rect x="251.083" y="503.583" fill-rule="evenodd" clip-rule="evenodd" fill="#2C3E50" width="32.393" height="2.451"/>
	<path fill-rule="evenodd" clip-rule="evenodd" fill="#999999" d="M251.083,451.679v-8.081h32.723v8.081h-3.73v-4.898
		c-8.425,0-16.835,0-25.26,0v4.898H251.083z"/>
</g>
<path fill="#1365A8" d="M349.683,735.262c0,45.973-37.268,83.24-83.24,83.24c-45.974,0-83.242-37.268-83.242-83.24
	s37.268-83.241,83.242-83.241C312.416,652.021,349.683,689.289,349.683,735.262"/>
<g>
	<path fill-rule="evenodd" clip-rule="evenodd" fill="#2C3E50" d="M226.141,697.345l86.827,0.035c3.541,0,6.442,2.902,6.442,6.443
		l-0.023,53.362c0,3.544-2.903,6.444-6.457,6.444l-86.812-0.034c-3.541,0-6.444-2.915-6.444-6.443l0.025-53.375
		C219.698,700.247,222.6,697.334,226.141,697.345z"/>
	<path fill-rule="evenodd" clip-rule="evenodd" fill="#6EBCC6" d="M227.324,702.071l22.448,0.022l62.009,0.024
		c1.6,0,2.89,1.302,2.89,2.892l-0.023,50.992c0,1.6-1.303,2.902-2.89,2.89l-69.971-0.033h-14.485c-1.6,0-2.892-1.305-2.892-2.892
		l0.025-50.992C224.437,703.374,225.727,702.071,227.324,702.071z"/>
	<path fill-rule="evenodd" clip-rule="evenodd" fill="#121220" d="M327.666,763.643l-116.034-0.061v0.179
		c0,4.062,3.304,7.367,7.355,7.367l101.312,0.049c4.062,0,7.368-3.306,7.368-7.358V763.643z"/>
	<rect x="256.844" y="763.614" fill-rule="evenodd" clip-rule="evenodd" fill="#ECF0F1" width="25.61" height="1.183"/>
	<path fill-rule="evenodd" clip-rule="evenodd" fill="#6EBCC6" d="M269.555,702.094l-0.026,56.786l-42.227-0.021
		c-1.6,0-2.892-1.305-2.892-2.892l0.025-50.992c0-1.601,1.291-2.903,2.888-2.903l22.448,0.022H269.555z"/>
	<rect x="239.703" y="714.864" fill-rule="evenodd" clip-rule="evenodd" fill="#DAE1E6" width="59.688" height="35.63"/>
	<rect x="239.703" y="709.724" fill-rule="evenodd" clip-rule="evenodd" fill="#2980B9" width="59.688" height="5.141"/>
	<path fill-rule="evenodd" clip-rule="evenodd" fill="#9B59B6" d="M254.832,723.345L254.832,723.345c0.804,0,1.467,0.663,1.467,1.47
		l0,0c0,0.804-0.664,1.456-1.467,1.456l0,0c-0.795,0-1.458-0.652-1.458-1.456l0,0C253.374,724.008,254.037,723.345,254.832,723.345z
		"/>
	<path fill-rule="evenodd" clip-rule="evenodd" fill="#FFCB05" d="M254.832,731.21L254.832,731.21c0.804,0,1.467,0.663,1.467,1.47
		l0,0c0,0.805-0.664,1.457-1.467,1.457l0,0c-0.795,0-1.458-0.652-1.458-1.457l0,0C253.374,731.873,254.037,731.21,254.832,731.21z"
		/>
	<path fill-rule="evenodd" clip-rule="evenodd" fill="#6699FF" d="M254.832,739.56L254.832,739.56c0.804,0,1.467,0.666,1.467,1.459
		l0,0c0,0.805-0.664,1.468-1.467,1.468l0,0c-0.795,0-1.458-0.663-1.458-1.468l0,0C253.374,740.226,254.037,739.56,254.832,739.56z"
		/>
	<rect x="259.283" y="724.079" fill-rule="evenodd" clip-rule="evenodd" fill="#95A5A6" width="22.683" height="1.456"/>
	<rect x="259.283" y="731.945" fill-rule="evenodd" clip-rule="evenodd" fill="#95A5A6" width="24.545" height="1.469"/>
	<rect x="259.283" y="740.296" fill-rule="evenodd" clip-rule="evenodd" fill="#95A5A6" width="19.331" height="1.457"/>
</g>
</svg>
