<?xml version="1.0" encoding="utf-8"?>
<!-- Generator: Adobe Illustrator 16.0.3, SVG Export Plug-In . SVG Version: 6.00 Build 0)  -->
<!DOCTYPE svg PUBLIC "-//W3C//DTD SVG 1.1//EN" "http://www.w3.org/Graphics/SVG/1.1/DTD/svg11.dtd">
<svg version="1.1" id="Layer_1" xmlns="http://www.w3.org/2000/svg" xmlns:xlink="http://www.w3.org/1999/xlink" x="0px" y="0px"
	 width="2048px" height="1000px" viewBox="0 0 2048 1000" enable-background="new 0 0 2048 1000" xml:space="preserve">
<rect fill="#B9E5FB" width="2048" height="1000"/>
<rect fill="#4EA8DE" width="1025" height="1000"/>
<rect x="1" y="710" fill="#116BB4" width="2047" height="288.9"/>
<line fill="none" stroke="#343636" stroke-width="5" stroke-miterlimit="10" x1="1068.067" y1="53.718" x2="2025" y2="53.718"/>
<line fill="none" stroke="#343636" stroke-width="5.0032" stroke-miterlimit="10" x1="48.187" y1="51.9" x2="995" y2="51.9"/>
<g>
	<path fill="#FFFFFF" d="M73.259,83.876c-0.506-3.266-3.634-5.75-7.177-5.75c-6.487,0-8.925,5.521-8.925,11.271
		c0,5.475,2.438,10.995,8.925,10.995c4.417,0,6.901-2.99,7.453-7.361h6.993c-0.736,8.235-6.349,13.434-14.446,13.434
		c-10.121,0-16.148-7.591-16.148-17.068c0-9.753,6.027-17.344,16.148-17.344c7.177,0,13.295,4.232,14.169,11.823H73.259z"/>
	<path fill="#FFFFFF" d="M84.941,72.835h6.533v32.848h-6.533V72.835z"/>
	<path fill="#FFFFFF" d="M96.349,89.213c0.368-6.073,5.842-7.959,11.179-7.959c4.738,0,10.443,1.058,10.443,6.763v12.375
		c0,2.162,0.23,4.324,0.828,5.291h-6.625c-0.23-0.736-0.414-1.518-0.46-2.3c-2.07,2.162-5.061,2.944-8.005,2.944
		c-4.554,0-8.097-2.254-8.097-7.131c0.092-10.811,16.102-5.015,15.826-10.351c0-2.76-1.932-3.22-4.232-3.22
		c-2.53,0-4.094,1.012-4.324,3.588H96.349z M111.438,94.043c-1.104,0.966-3.404,1.012-5.429,1.38
		c-2.024,0.368-3.864,1.104-3.864,3.497c0,2.392,1.886,3.036,4.002,3.036c5.106,0,5.291-4.002,5.291-5.475V94.043z"/>
	<path fill="#FFFFFF" d="M128.088,97.954c0,2.807,2.484,4.002,5.015,4.002c1.84,0,4.278-0.736,4.278-3.036
		c0-1.979-2.76-2.714-7.407-3.681c-3.818-0.874-7.545-2.116-7.545-6.349c0-6.073,5.245-7.637,10.351-7.637
		c5.153,0,9.983,1.748,10.489,7.591h-6.21c-0.184-2.53-2.117-3.22-4.463-3.22c-1.472,0-3.634,0.23-3.634,2.208
		c0,2.346,3.727,2.668,7.407,3.542c3.818,0.874,7.545,2.254,7.545,6.671c0,6.256-5.475,8.281-10.857,8.281
		c-5.521,0-10.949-2.07-11.179-8.373H128.088z"/>
	<path fill="#FFFFFF" d="M152.79,97.954c0,2.807,2.484,4.002,5.015,4.002c1.84,0,4.278-0.736,4.278-3.036
		c0-1.979-2.76-2.714-7.407-3.681c-3.818-0.874-7.545-2.116-7.545-6.349c0-6.073,5.245-7.637,10.351-7.637
		c5.153,0,9.983,1.748,10.489,7.591h-6.21c-0.184-2.53-2.117-3.22-4.463-3.22c-1.472,0-3.634,0.23-3.634,2.208
		c0,2.346,3.727,2.668,7.407,3.542c3.818,0.874,7.545,2.254,7.545,6.671c0,6.256-5.475,8.281-10.857,8.281
		c-5.521,0-10.95-2.07-11.18-8.373H152.79z"/>
	<path fill="#FFFFFF" d="M179.147,78.217h-6.533v-5.382h6.533V78.217z M172.615,81.898h6.533v23.785h-6.533V81.898z"/>
	<path fill="#FFFFFF" d="M185.725,86.269h-3.911v-4.371h3.911v-1.84c0-4.232,2.622-7.223,7.958-7.223
		c1.15,0,2.347,0.138,3.451,0.184v4.876c-0.782-0.092-1.61-0.138-2.393-0.138c-1.794,0-2.484,0.736-2.484,2.714v1.426h4.508v4.371
		h-4.508v19.414h-6.533V86.269z M207.255,78.217h-6.533v-5.382h6.533V78.217z M200.722,81.898h6.533v23.785h-6.533V81.898z"/>
	<path fill="#FFFFFF" d="M228.598,90.271c-0.414-2.714-2.024-4.095-4.831-4.095c-4.187,0-5.567,4.232-5.567,7.729
		c0,3.45,1.334,7.499,5.429,7.499c3.083,0,4.785-1.886,5.199-4.831h6.303c-0.874,6.303-5.153,9.753-11.456,9.753
		c-7.177,0-12.007-5.061-12.007-12.191c0-7.407,4.417-12.881,12.146-12.881c5.613,0,10.811,2.944,11.179,9.017H228.598z"/>
	<path fill="#FFFFFF" d="M238.531,89.213c0.368-6.073,5.842-7.959,11.179-7.959c4.738,0,10.443,1.058,10.443,6.763v12.375
		c0,2.162,0.23,4.324,0.828,5.291h-6.625c-0.23-0.736-0.414-1.518-0.46-2.3c-2.07,2.162-5.061,2.944-8.005,2.944
		c-4.554,0-8.097-2.254-8.097-7.131c0.092-10.811,16.102-5.015,15.826-10.351c0-2.76-1.932-3.22-4.232-3.22
		c-2.53,0-4.094,1.012-4.324,3.588H238.531z M253.621,94.043c-1.104,0.966-3.404,1.012-5.429,1.38
		c-2.024,0.368-3.864,1.104-3.864,3.497c0,2.392,1.886,3.036,4.002,3.036c5.106,0,5.291-4.002,5.291-5.475V94.043z"/>
	<path fill="#FFFFFF" d="M273.491,81.898h4.785v4.371h-4.785v11.777c0,2.208,0.552,2.76,2.76,2.76c0.736,0,1.426-0.046,2.024-0.184
		v5.106c-1.104,0.184-2.53,0.23-3.818,0.23c-4.048,0-7.499-0.874-7.499-5.659V86.269h-3.957v-4.371h3.957v-7.131h6.533V81.898z"/>
	<path fill="#FFFFFF" d="M288.119,78.217h-6.533v-5.382h6.533V78.217z M281.586,81.898h6.533v23.785h-6.533V81.898z"/>
	<path fill="#FFFFFF" d="M304.817,81.254c7.499,0,12.329,4.968,12.329,12.56c0,7.544-4.831,12.513-12.329,12.513
		c-7.453,0-12.284-4.969-12.284-12.513C292.533,86.222,297.364,81.254,304.817,81.254z M304.817,101.404
		c4.462,0,5.796-3.772,5.796-7.591c0-3.819-1.334-7.637-5.796-7.637c-4.417,0-5.751,3.818-5.751,7.637
		C299.066,97.632,300.4,101.404,304.817,101.404z"/>
	<path fill="#FFFFFF" d="M321.375,81.898h6.21v3.312h0.138c1.656-2.714,4.508-3.957,7.269-3.957c6.947,0,8.695,3.91,8.695,9.799
		v14.63h-6.533V92.249c0-3.91-1.104-5.843-4.187-5.843c-3.542,0-5.061,1.979-5.061,6.809v12.467h-6.533V81.898z"/>
</g>
<g>
	<g>
		<path fill="#231F20" d="M1080.351,72.835h6.119l12.651,32.848h-6.165l-3.082-8.695h-13.112l-3.082,8.695h-5.935L1080.351,72.835z
			 M1078.326,92.617h10.029l-4.922-14.124h-0.139L1078.326,92.617z"/>
		<path fill="#231F20" d="M1105.466,98.046c0.321,3.082,2.576,4.14,5.383,4.14c2.024,0,5.429-0.414,5.29-3.128
			c-0.138-2.76-3.956-3.082-7.774-3.956c-3.864-0.828-7.638-2.208-7.638-7.039c0-5.198,5.613-6.809,9.938-6.809
			c4.877,0,9.34,1.978,9.938,7.315h-5.475c-0.506-2.53-2.484-3.174-4.83-3.174c-1.519,0-4.325,0.368-4.325,2.438
			c0,2.576,3.864,2.99,7.729,3.818c3.818,0.874,7.683,2.254,7.683,6.947c0,5.659-5.705,7.729-10.628,7.729
			c-6.026,0-10.396-2.668-10.535-8.281H1105.466z"/>
		<path fill="#231F20" d="M1129.34,98.046c0.322,3.082,2.576,4.14,5.383,4.14c2.023,0,5.428-0.414,5.291-3.128
			c-0.139-2.76-3.957-3.082-7.775-3.956c-3.865-0.828-7.637-2.208-7.637-7.039c0-5.198,5.612-6.809,9.938-6.809
			c4.876,0,9.338,1.978,9.937,7.315h-5.475c-0.507-2.53-2.484-3.174-4.831-3.174c-1.518,0-4.324,0.368-4.324,2.438
			c0,2.576,3.865,2.99,7.729,3.818c3.818,0.874,7.684,2.254,7.684,6.947c0,5.659-5.705,7.729-10.627,7.729
			c-6.027,0-10.397-2.668-10.535-8.281H1129.34z"/>
		<path fill="#231F20" d="M1153.352,95.147c0,3.727,2.024,7.039,6.395,7.039c3.083,0,4.877-1.334,5.797-3.956h4.969
			c-1.104,5.198-5.612,8.097-10.766,8.097c-7.498,0-11.639-5.152-11.639-12.513c0-6.763,4.416-12.56,11.501-12.56
			c7.499,0,12.1,6.763,11.226,13.894H1153.352z M1165.59,91.697c-0.23-3.312-2.393-6.303-5.981-6.303
			c-3.634,0-6.118,2.76-6.257,6.303H1165.59z"/>
		<path fill="#231F20" d="M1178.79,98.046c0.321,3.082,2.576,4.14,5.383,4.14c2.024,0,5.429-0.414,5.29-3.128
			c-0.138-2.76-3.956-3.082-7.774-3.956c-3.864-0.828-7.638-2.208-7.638-7.039c0-5.198,5.613-6.809,9.938-6.809
			c4.877,0,9.34,1.978,9.938,7.315h-5.475c-0.506-2.53-2.484-3.174-4.83-3.174c-1.519,0-4.325,0.368-4.325,2.438
			c0,2.576,3.864,2.99,7.729,3.818c3.818,0.874,7.683,2.254,7.683,6.947c0,5.659-5.705,7.729-10.628,7.729
			c-6.026,0-10.396-2.668-10.535-8.281H1178.79z"/>
		<path fill="#231F20" d="M1202.664,98.046c0.322,3.082,2.576,4.14,5.383,4.14c2.023,0,5.428-0.414,5.291-3.128
			c-0.139-2.76-3.957-3.082-7.775-3.956c-3.865-0.828-7.637-2.208-7.637-7.039c0-5.198,5.612-6.809,9.938-6.809
			c4.876,0,9.338,1.978,9.937,7.315h-5.475c-0.507-2.53-2.484-3.174-4.831-3.174c-1.518,0-4.324,0.368-4.324,2.438
			c0,2.576,3.865,2.99,7.729,3.818c3.818,0.874,7.684,2.254,7.684,6.947c0,5.659-5.705,7.729-10.627,7.729
			c-6.027,0-10.397-2.668-10.535-8.281H1202.664z"/>
		<path fill="#231F20" d="M1222.582,81.898h4.969v3.312h0.137c1.611-2.346,3.497-3.957,7.315-3.957c2.898,0,5.612,1.242,6.671,3.957
			c1.794-2.438,3.957-3.957,7.453-3.957c5.014,0,7.959,2.254,7.959,8.005v16.424h-5.245V91.789c0-3.818-0.229-6.395-4.324-6.395
			c-3.542,0-5.061,2.3-5.061,6.349v13.939h-5.245V90.409c0-3.312-1.012-5.014-4.186-5.014c-2.715,0-5.199,2.254-5.199,6.165v14.124
			h-5.244V81.898z"/>
		<path fill="#231F20" d="M1266.695,95.147c0,3.727,2.024,7.039,6.395,7.039c3.083,0,4.877-1.334,5.797-3.956h4.969
			c-1.104,5.198-5.612,8.097-10.766,8.097c-7.498,0-11.639-5.152-11.639-12.513c0-6.763,4.416-12.56,11.501-12.56
			c7.499,0,12.1,6.763,11.226,13.894H1266.695z M1278.934,91.697c-0.23-3.312-2.393-6.303-5.981-6.303
			c-3.634,0-6.118,2.76-6.257,6.303H1278.934z"/>
		<path fill="#231F20" d="M1288.178,81.898h4.969v3.497l0.092,0.092c1.609-2.622,4.278-4.232,7.406-4.232
			c5.199,0,8.419,2.714,8.419,8.097v16.332h-5.244V90.731c-0.138-3.727-1.519-5.336-4.647-5.336c-3.496,0-5.75,2.76-5.75,6.256
			v14.032h-5.244V81.898z"/>
		<path fill="#231F20" d="M1312.188,81.898h3.956v-7.131h5.245v7.131h4.738v3.911h-4.738v12.697c0,2.162,0.184,3.266,2.53,3.266
			c0.736,0,1.473,0,2.208-0.184v4.048c-1.149,0.138-2.255,0.276-3.404,0.276c-5.521,0-6.44-2.116-6.579-6.073V85.809h-3.956V81.898z
			"/>
	</g>
</g>
<g>
	<g>
		<g>
			<polygon fill="#FFFFFF" points="1850.165,934.811 1850.165,488.544 1850.165,292.123 1695.169,151.362 1242.902,151.362 
				1242.902,934.811 			"/>
			<g>
				<polygon fill="#2C5871" points="1695.169,292.123 1850.165,292.123 1695.169,151.362 				"/>
				<polygon fill="#D1ECFB" points="1850.165,292.123 1695.169,292.123 1850.165,432.861 				"/>
			</g>
		</g>
	</g>
</g>
<g>
	<g>
		<g>
			<polygon fill="#FFFFFF" points="776.219,934.811 776.219,488.544 776.219,292.123 621.223,151.362 168.956,151.362 
				168.956,934.811 			"/>
			<g>
				<polygon fill="#2C5871" points="621.223,292.123 776.219,292.123 621.223,151.362 				"/>
				<polygon fill="#D1ECFB" points="776.219,292.123 621.223,292.123 776.219,432.861 				"/>
			</g>
		</g>
	</g>
</g>
<g>
	<path d="M372.884,370.503h3.799v12.278h15.038v-12.278h3.799v28.555h-3.799V385.98h-15.038v13.078h-3.799V370.503z"/>
	<path d="M404.803,374.662h-3.399v-4.159h3.399V374.662z M401.403,378.381h3.399v20.677h-3.399V378.381z"/>
	<path d="M427.919,397.298c0,6.759-3.04,10.158-9.598,10.158c-3.879,0-8.359-1.6-8.559-6.079h3.399
		c0.12,2.439,3.159,3.359,5.359,3.359c4.439,0,6.199-3.2,6.199-7.839v-1.36h-0.08c-1.16,2.52-3.799,3.759-6.439,3.759
		c-6.159,0-9.238-4.839-9.238-10.478c0-4.879,2.359-10.918,9.558-10.918c2.6,0,4.919,1.16,6.159,3.439h0.04v-2.96h3.199V397.298z
		 M424.56,388.3c0-3.639-1.6-7.398-5.879-7.398c-4.359,0-6.119,3.559-6.119,7.519c0,3.719,1.36,7.878,5.839,7.878
		C422.88,396.298,424.56,392.179,424.56,388.3z"/>
	<path d="M433.042,370.503h3.399v10.918h0.08c1.08-2.52,4.079-3.519,6.519-3.519c5.439,0,7.119,3.119,7.119,7.559v13.598h-3.399
		v-13.998c0-2.56-1.6-4.159-4.199-4.159c-4.12,0-6.119,2.759-6.119,6.479v11.678h-3.399V370.503z"/>
	<path d="M467.122,370.503h3.799v28.555h-3.799V370.503z"/>
	<path d="M476.761,378.381h3.199v3.04h0.08c1.56-2.359,3.76-3.519,6.679-3.519c2.56,0,4.839,0.959,5.679,3.519
		c1.4-2.239,3.799-3.519,6.479-3.519c4.119,0,6.879,1.72,6.879,5.999v15.157h-3.399V385.5c0-2.56-0.68-4.599-4-4.599
		c-3.319,0-5.399,2.08-5.399,5.279v12.878h-3.399V385.5c0-2.68-0.84-4.599-3.879-4.599c-4,0-5.519,3.679-5.519,5.279v12.878h-3.399
		V378.381z"/>
	<path d="M511.001,378.381h3.399v2.8h0.08c1.12-2.28,3.719-3.279,6.599-3.279c6.359,0,9.519,5.039,9.519,10.878
		c0,5.879-3.12,10.758-9.438,10.758c-2.08,0-5.199-0.8-6.679-3.24h-0.08v10.678h-3.399V378.381z M520.6,380.901
		c-4.599,0-6.319,3.959-6.319,7.798c0,4.04,1.84,7.839,6.519,7.839c4.639,0,6.199-3.959,6.199-7.999
		C526.999,384.661,524.999,380.901,520.6,380.901z"/>
	<path d="M552.918,398.978c-0.6,0.36-1.44,0.56-2.439,0.56c-1.76,0-2.879-0.96-2.879-3.2c-1.88,2.24-4.399,3.2-7.279,3.2
		c-3.76,0-6.839-1.64-6.839-5.799c0-4.679,3.479-5.719,6.999-6.359c3.72-0.76,6.959-0.44,6.959-3.039c0-3-2.479-3.439-4.599-3.439
		c-2.88,0-5,0.88-5.159,3.919h-3.399c0.2-5.119,4.119-6.918,8.758-6.918c3.72,0,7.759,0.84,7.759,5.679v10.638
		c0,1.6,0,2.32,1.08,2.32c0.32,0,0.68-0.08,1.04-0.2V398.978z M547.399,388.38c-2.64,1.959-10.318,0.04-10.318,5.119
		c0,2.24,1.92,3.04,4,3.04c4.479,0,6.319-2.76,6.319-4.679V388.38z"/>
	<path d="M570.118,385.021c-0.52-2.6-2.28-4.119-5.119-4.119c-4.919,0-6.439,3.919-6.439,8.079c0,3.839,1.72,7.559,6.039,7.559
		c3.319,0,5.239-1.88,5.679-5.039h3.479c-0.76,5.079-3.879,8.039-9.119,8.039c-6.319,0-9.678-4.359-9.678-10.558
		c0-6.199,3.199-11.078,9.758-11.078c4.719,0,8.398,2.199,8.918,7.119H570.118z"/>
	<path d="M582.279,378.381h4.119v3h-4.119v12.838c0,1.6,0.44,1.84,2.56,1.84h1.56v3h-2.6c-3.519,0-4.919-0.72-4.919-4.519v-13.158
		h-3.52v-3h3.52v-6.199h3.399V378.381z"/>
</g>
<g>
	<path d="M1307.273,286.331c-0.84-4.04-4-6.079-7.999-6.079c-6.799,0-9.679,5.599-9.679,11.558c0,6.519,2.88,11.958,9.719,11.958
		c4.959,0,7.919-3.52,8.238-8.239h3.8c-0.76,7.159-5.119,11.438-12.358,11.438c-8.838,0-13.197-6.559-13.197-14.877
		c0-8.318,4.719-15.037,13.518-15.037c5.959,0,10.918,3.199,11.758,9.278H1307.273z"/>
	<path d="M1324.435,285.131c6.56,0,10.038,4.759,10.038,10.838c0,6.039-3.479,10.798-10.038,10.798s-10.038-4.759-10.038-10.798
		C1314.396,289.89,1317.875,285.131,1324.435,285.131z M1324.435,303.768c3.56,0,6.438-2.8,6.438-7.799s-2.879-7.838-6.438-7.838
		s-6.438,2.839-6.438,7.838S1320.875,303.768,1324.435,303.768z"/>
	<path d="M1338.476,285.611h3.199v3.28h0.08c1.44-2.56,3.72-3.759,6.72-3.759c5.438,0,7.118,3.119,7.118,7.559v13.598h-3.399V292.29
		c0-2.56-1.6-4.159-4.199-4.159c-4.119,0-6.119,2.759-6.119,6.479v11.678h-3.399V285.611z"/>
	<path d="M1365.436,285.611h4.119v3h-4.119v12.838c0,1.6,0.439,1.84,2.559,1.84h1.561v3h-2.6c-3.52,0-4.92-0.72-4.92-4.519V288.61
		h-3.52v-3h3.52v-6.199h3.4V285.611z"/>
	<path d="M1391.633,306.208c-0.601,0.36-1.44,0.56-2.439,0.56c-1.76,0-2.88-0.96-2.88-3.2c-1.88,2.24-4.399,3.2-7.278,3.2
		c-3.76,0-6.84-1.64-6.84-5.799c0-4.679,3.479-5.719,6.999-6.359c3.72-0.76,6.959-0.44,6.959-3.039c0-3-2.479-3.439-4.599-3.439
		c-2.881,0-5,0.88-5.16,3.919h-3.398c0.199-5.119,4.119-6.918,8.758-6.918c3.72,0,7.759,0.84,7.759,5.679v10.638
		c0,1.6,0,2.32,1.08,2.32c0.319,0,0.68-0.08,1.04-0.2V306.208z M1386.113,295.609c-2.64,1.959-10.318,0.04-10.318,5.119
		c0,2.24,1.92,3.04,4,3.04c4.479,0,6.318-2.76,6.318-4.679V295.609z"/>
	<path d="M1408.832,292.25c-0.52-2.6-2.279-4.119-5.119-4.119c-4.918,0-6.438,3.919-6.438,8.079c0,3.839,1.72,7.559,6.039,7.559
		c3.319,0,5.239-1.88,5.679-5.039h3.48c-0.761,5.079-3.88,8.039-9.119,8.039c-6.318,0-9.678-4.359-9.678-10.558
		c0-6.199,3.199-11.078,9.758-11.078c4.719,0,8.398,2.199,8.918,7.119H1408.832z"/>
	<path d="M1420.994,285.611h4.119v3h-4.119v12.838c0,1.6,0.439,1.84,2.559,1.84h1.561v3h-2.6c-3.52,0-4.92-0.72-4.92-4.519V288.61
		h-3.52v-3h3.52v-6.199h3.4V285.611z"/>
	<path d="M1446.512,299.729c-0.92,4.6-4.16,7.039-8.84,7.039c-6.598,0-9.718-4.599-9.918-10.878c0-6.239,4.08-10.758,9.719-10.758
		c7.318,0,9.559,6.839,9.358,11.838h-15.478c-0.12,3.599,1.92,6.799,6.439,6.799c2.839,0,4.759-1.32,5.359-4.04H1446.512z
		 M1443.231,293.97c-0.2-3.24-2.56-5.839-5.959-5.839c-3.519,0-5.719,2.639-5.919,5.839H1443.231z"/>
	<path d="M1468.83,306.288h-3.398v-2.799h-0.08c-1.121,2.279-3.72,3.279-6.6,3.279c-6.359,0-9.518-5.039-9.518-10.878
		c0-5.839,3.119-10.758,9.438-10.758c2.08,0,5.199,0.8,6.68,3.239h0.08v-10.638h3.398V306.288z M1459.232,303.768
		c4.599,0,6.318-3.959,6.318-7.799c0-4.039-1.84-7.838-6.519-7.838c-4.64,0-6.199,3.959-6.199,7.999
		C1452.833,300.009,1454.833,303.768,1459.232,303.768z"/>
	<path d="M1485.754,277.732h18.756v3.199h-14.957v9.079h13.117v3.2h-13.117v13.078h-3.799V277.732z"/>
	<path d="M1525.27,306.288h-3.199v-3.279h-0.08c-1.439,2.56-3.719,3.759-6.719,3.759c-5.439,0-7.119-3.12-7.119-7.559v-13.598h3.4
		v13.998c0,2.56,1.6,4.159,4.199,4.159c4.119,0,6.119-2.76,6.119-6.479v-11.678h3.398V306.288z"/>
	<path d="M1530.393,285.611h3.199v3.28h0.08c1.439-2.56,3.72-3.759,6.719-3.759c5.439,0,7.119,3.119,7.119,7.559v13.598h-3.399
		V292.29c0-2.56-1.6-4.159-4.199-4.159c-4.12,0-6.119,2.759-6.119,6.479v11.678h-3.399V285.611z"/>
	<path d="M1566.67,292.25c-0.52-2.6-2.279-4.119-5.119-4.119c-4.918,0-6.438,3.919-6.438,8.079c0,3.839,1.72,7.559,6.039,7.559
		c3.319,0,5.239-1.88,5.679-5.039h3.48c-0.761,5.079-3.88,8.039-9.119,8.039c-6.318,0-9.678-4.359-9.678-10.558
		c0-6.199,3.199-11.078,9.758-11.078c4.719,0,8.398,2.199,8.918,7.119H1566.67z"/>
	<path d="M1578.832,285.611h4.119v3h-4.119v12.838c0,1.6,0.439,1.84,2.559,1.84h1.561v3h-2.6c-3.52,0-4.92-0.72-4.92-4.519V288.61
		h-3.52v-3h3.52v-6.199h3.4V285.611z"/>
	<path d="M1590.312,281.892h-3.399v-4.159h3.399V281.892z M1586.912,285.611h3.399v20.677h-3.399V285.611z"/>
	<path d="M1604.51,285.131c6.559,0,10.039,4.759,10.039,10.838c0,6.039-3.48,10.798-10.039,10.798s-10.038-4.759-10.038-10.798
		C1594.472,289.89,1597.951,285.131,1604.51,285.131z M1604.51,303.768c3.56,0,6.439-2.8,6.439-7.799s-2.88-7.838-6.439-7.838
		s-6.439,2.839-6.439,7.838S1600.95,303.768,1604.51,303.768z"/>
	<path d="M1618.551,285.611h3.199v3.28h0.08c1.439-2.56,3.72-3.759,6.719-3.759c5.439,0,7.119,3.119,7.119,7.559v13.598h-3.399
		V292.29c0-2.56-1.6-4.159-4.199-4.159c-4.12,0-6.119,2.759-6.119,6.479v11.678h-3.399V285.611z"/>
	<path d="M1659.107,306.208c-0.6,0.36-1.439,0.56-2.439,0.56c-1.76,0-2.879-0.96-2.879-3.2c-1.88,2.24-4.399,3.2-7.279,3.2
		c-3.76,0-6.838-1.64-6.838-5.799c0-4.679,3.479-5.719,6.998-6.359c3.72-0.76,6.959-0.44,6.959-3.039c0-3-2.479-3.439-4.6-3.439
		c-2.879,0-4.999,0.88-5.158,3.919h-3.4c0.2-5.119,4.119-6.918,8.759-6.918c3.72,0,7.759,0.84,7.759,5.679v10.638
		c0,1.6,0,2.32,1.08,2.32c0.32,0,0.68-0.08,1.039-0.2V306.208z M1653.589,295.609c-2.64,1.959-10.318,0.04-10.318,5.119
		c0,2.24,1.92,3.04,3.999,3.04c4.479,0,6.319-2.76,6.319-4.679V295.609z"/>
	<path d="M1662.471,277.732h3.399v28.555h-3.399V277.732z"/>
	<path d="M1287.197,329.732h3.799v12.278h15.037v-12.278h3.8v28.555h-3.8V345.21h-15.037v13.078h-3.799V329.732z"/>
	<path d="M1333.153,351.729c-0.92,4.6-4.159,7.039-8.839,7.039c-6.599,0-9.719-4.599-9.918-10.878
		c0-6.239,4.079-10.758,9.719-10.758c7.318,0,9.558,6.839,9.357,11.838h-15.477c-0.121,3.599,1.92,6.799,6.438,6.799
		c2.839,0,4.759-1.32,5.359-4.04H1333.153z M1329.873,345.97c-0.199-3.24-2.559-5.839-5.959-5.839c-3.519,0-5.719,2.639-5.918,5.839
		H1329.873z"/>
	<path d="M1355.312,358.208c-0.6,0.36-1.439,0.56-2.439,0.56c-1.76,0-2.879-0.96-2.879-3.2c-1.881,2.24-4.4,3.2-7.279,3.2
		c-3.76,0-6.839-1.64-6.839-5.799c0-4.679,3.479-5.719,6.999-6.359c3.719-0.76,6.959-0.44,6.959-3.039c0-3-2.48-3.439-4.6-3.439
		c-2.88,0-5,0.88-5.159,3.919h-3.399c0.199-5.119,4.119-6.918,8.758-6.918c3.72,0,7.76,0.84,7.76,5.679v10.638
		c0,1.6,0,2.32,1.079,2.32c0.32,0,0.681-0.08,1.04-0.2V358.208z M1349.793,347.609c-2.639,1.959-10.318,0.04-10.318,5.119
		c0,2.24,1.92,3.04,4,3.04c4.479,0,6.318-2.76,6.318-4.679V347.609z"/>
	<path d="M1376.952,358.288h-3.399v-2.799h-0.08c-1.12,2.279-3.719,3.279-6.6,3.279c-6.358,0-9.518-5.039-9.518-10.878
		c0-5.839,3.119-10.758,9.438-10.758c2.079,0,5.198,0.8,6.679,3.239h0.08v-10.638h3.399V358.288z M1367.354,355.768
		c4.6,0,6.318-3.959,6.318-7.799c0-4.039-1.839-7.838-6.518-7.838c-4.64,0-6.199,3.959-6.199,7.999
		C1360.955,352.009,1362.954,355.768,1367.354,355.768z"/>
	<path d="M1398.033,337.611h4.119v3h-4.119v12.838c0,1.6,0.44,1.84,2.561,1.84h1.559v3h-2.6c-3.519,0-4.918-0.72-4.918-4.519V340.61
		h-3.52v-3h3.52v-6.199h3.398V337.611z"/>
	<path d="M1414.832,337.131c6.56,0,10.039,4.759,10.039,10.838c0,6.039-3.479,10.798-10.039,10.798
		c-6.559,0-10.037-4.759-10.037-10.798C1404.795,341.89,1408.273,337.131,1414.832,337.131z M1414.832,355.768
		c3.561,0,6.439-2.8,6.439-7.799s-2.879-7.838-6.439-7.838c-3.559,0-6.438,2.839-6.438,7.838S1411.273,355.768,1414.832,355.768z"/>
	<path d="M1458.311,358.208c-0.6,0.36-1.439,0.56-2.439,0.56c-1.76,0-2.879-0.96-2.879-3.2c-1.881,2.24-4.4,3.2-7.279,3.2
		c-3.76,0-6.839-1.64-6.839-5.799c0-4.679,3.479-5.719,6.999-6.359c3.719-0.76,6.959-0.44,6.959-3.039c0-3-2.48-3.439-4.6-3.439
		c-2.88,0-5,0.88-5.159,3.919h-3.399c0.199-5.119,4.119-6.918,8.758-6.918c3.72,0,7.76,0.84,7.76,5.679v10.638
		c0,1.6,0,2.32,1.079,2.32c0.32,0,0.681-0.08,1.04-0.2V358.208z M1452.791,347.609c-2.639,1.959-10.318,0.04-10.318,5.119
		c0,2.24,1.92,3.04,4,3.04c4.479,0,6.318-2.76,6.318-4.679V347.609z"/>
	<path d="M1463.553,351.769c0.12,3.04,2.8,4,5.559,4c2.12,0,5-0.48,5-3.08c0-5.319-13.518-1.72-13.518-9.678
		c0-4.159,4.079-5.879,7.719-5.879c4.639,0,8.158,1.439,8.479,6.479h-3.4c-0.199-2.639-2.6-3.479-4.799-3.479
		c-2.039,0-4.398,0.56-4.398,2.639c0,2.4,3.599,2.88,6.758,3.6c3.4,0.76,6.76,1.919,6.76,5.879c0,4.959-4.6,6.519-8.799,6.519
		c-4.64,0-8.559-1.88-8.759-6.999H1463.553z"/>
	<path d="M1483.553,351.769c0.12,3.04,2.8,4,5.559,4c2.12,0,5-0.48,5-3.08c0-5.319-13.518-1.72-13.518-9.678
		c0-4.159,4.079-5.879,7.719-5.879c4.639,0,8.158,1.439,8.479,6.479h-3.4c-0.199-2.639-2.6-3.479-4.799-3.479
		c-2.039,0-4.398,0.56-4.398,2.639c0,2.4,3.599,2.88,6.758,3.6c3.4,0.76,6.76,1.919,6.76,5.879c0,4.959-4.6,6.519-8.799,6.519
		c-4.64,0-8.559-1.88-8.759-6.999H1483.553z"/>
	<path d="M1505.072,333.892h-3.398v-4.159h3.398V333.892z M1501.674,337.611h3.398v20.677h-3.398V337.611z"/>
	<path d="M1528.189,356.528c0,6.759-3.039,10.158-9.598,10.158c-3.88,0-8.359-1.6-8.559-6.079h3.398
		c0.12,2.439,3.16,3.359,5.359,3.359c4.439,0,6.199-3.2,6.199-7.839v-1.36h-0.08c-1.16,2.52-3.799,3.759-6.439,3.759
		c-6.158,0-9.238-4.839-9.238-10.478c0-4.879,2.359-10.918,9.559-10.918c2.6,0,4.92,1.16,6.159,3.439h0.04v-2.96h3.199V356.528z
		 M1524.83,347.529c0-3.639-1.6-7.398-5.879-7.398c-4.359,0-6.119,3.559-6.119,7.519c0,3.719,1.359,7.878,5.839,7.878
		S1524.83,351.409,1524.83,347.529z"/>
	<path d="M1533.312,337.611h3.199v3.28h0.08c1.439-2.56,3.719-3.759,6.719-3.759c5.439,0,7.119,3.119,7.119,7.559v13.598h-3.4
		V344.29c0-2.56-1.6-4.159-4.199-4.159c-4.119,0-6.119,2.759-6.119,6.479v11.678h-3.398V337.611z"/>
	<path d="M1584.988,358.208c-0.6,0.36-1.439,0.56-2.439,0.56c-1.76,0-2.879-0.96-2.879-3.2c-1.88,2.24-4.399,3.2-7.279,3.2
		c-3.76,0-6.838-1.64-6.838-5.799c0-4.679,3.479-5.719,6.998-6.359c3.72-0.76,6.959-0.44,6.959-3.039c0-3-2.479-3.439-4.6-3.439
		c-2.879,0-4.999,0.88-5.158,3.919h-3.4c0.2-5.119,4.119-6.918,8.759-6.918c3.72,0,7.759,0.84,7.759,5.679v10.638
		c0,1.6,0,2.32,1.08,2.32c0.32,0,0.68-0.08,1.039-0.2V358.208z M1579.47,347.609c-2.64,1.959-10.318,0.04-10.318,5.119
		c0,2.24,1.92,3.04,3.999,3.04c4.479,0,6.319-2.76,6.319-4.679V347.609z"/>
	<path d="M1605.269,358.288h-3.2v-3.279h-0.079c-1.44,2.56-3.72,3.759-6.72,3.759c-5.438,0-7.118-3.12-7.118-7.559v-13.598h3.399
		v13.998c0,2.56,1.6,4.159,4.199,4.159c4.119,0,6.119-2.76,6.119-6.479v-11.678h3.399V358.288z"/>
	<path d="M1615.111,337.611h4.119v3h-4.119v12.838c0,1.6,0.439,1.84,2.559,1.84h1.561v3h-2.6c-3.52,0-4.92-0.72-4.92-4.519V340.61
		h-3.52v-3h3.52v-6.199h3.4V337.611z"/>
	<path d="M1622.991,329.732h3.399v10.918h0.08c1.08-2.52,4.079-3.519,6.52-3.519c5.438,0,7.118,3.119,7.118,7.559v13.598h-3.399
		V344.29c0-2.56-1.6-4.159-4.199-4.159c-4.119,0-6.119,2.759-6.119,6.479v11.678h-3.399V329.732z"/>
	<path d="M1654.15,337.131c6.559,0,10.038,4.759,10.038,10.838c0,6.039-3.479,10.798-10.038,10.798
		c-6.56,0-10.039-4.759-10.039-10.798C1644.111,341.89,1647.591,337.131,1654.15,337.131z M1654.15,355.768
		c3.559,0,6.438-2.8,6.438-7.799s-2.88-7.838-6.438-7.838c-3.561,0-6.439,2.839-6.439,7.838S1650.59,355.768,1654.15,355.768z"/>
	<path d="M1668.07,337.611h3.2v4.359h0.08c1.64-3.359,3.919-4.959,7.599-4.839v3.599c-5.479,0-7.479,3.08-7.479,8.359v9.198h-3.4
		V337.611z"/>
	<path d="M1701.549,337.131c6.56,0,10.039,4.759,10.039,10.838c0,6.039-3.479,10.798-10.039,10.798
		c-6.559,0-10.037-4.759-10.037-10.798C1691.512,341.89,1694.99,337.131,1701.549,337.131z M1701.549,355.768
		c3.561,0,6.439-2.8,6.439-7.799s-2.879-7.838-6.439-7.838c-3.559,0-6.438,2.839-6.438,7.838S1697.99,355.768,1701.549,355.768z"/>
	<path d="M1716.99,340.61h-3.479v-3h3.479v-3.079c0-3.359,2-5.119,5.719-5.119c0.641,0,1.561,0.12,2.199,0.32v2.959
		c-0.6-0.2-1.319-0.28-1.919-0.28c-1.64,0-2.6,0.52-2.6,2.319v2.879h3.999v3h-3.999v17.677h-3.399V340.61z"/>
	<path d="M1286.637,389.611h3.199v3.28h0.08c1.439-2.56,3.72-3.759,6.719-3.759c5.439,0,7.119,3.119,7.119,7.559v13.598h-3.399
		V396.29c0-2.56-1.6-4.159-4.199-4.159c-4.12,0-6.119,2.759-6.119,6.479v11.678h-3.399V389.611z"/>
	<path d="M1326.514,403.729c-0.92,4.6-4.159,7.039-8.838,7.039c-6.6,0-9.719-4.599-9.918-10.878c0-6.239,4.078-10.758,9.718-10.758
		c7.319,0,9.558,6.839,9.358,11.838h-15.478c-0.12,3.599,1.92,6.799,6.438,6.799c2.84,0,4.76-1.32,5.359-4.04H1326.514z
		 M1323.234,397.97c-0.199-3.24-2.56-5.839-5.959-5.839c-3.52,0-5.719,2.639-5.919,5.839H1323.234z"/>
	<path d="M1350.833,410.288h-3.6l-4.199-16.437h-0.08l-4.159,16.437h-3.68l-6.639-20.677h3.76l4.68,16.917h0.079l4.159-16.917h3.72
		l4.319,16.917h0.08l4.639-16.917h3.52L1350.833,410.288z"/>
	<path d="M1388.873,390.091c-0.439-4.119-3.119-5.839-7.078-5.839c-3.24,0-6.398,1.16-6.398,4.879
		c0,7.039,18.276,2.08,18.276,13.317c0,6.079-5.959,8.519-11.158,8.519c-6.399,0-11.798-3.159-11.798-10.078h3.6
		c0,4.799,3.999,6.879,8.318,6.879c3.439,0,7.238-1.08,7.238-5.199c0-7.839-18.277-2.68-18.277-13.158
		c0-5.759,5.119-8.358,10.359-8.358c5.839,0,10.318,2.759,10.518,9.038H1388.873z"/>
	<path d="M1410.354,381.053c9.079,0,13.678,7.159,13.678,14.957c0,7.799-4.599,14.958-13.678,14.958
		c-9.078,0-13.678-7.159-13.678-14.958C1396.676,388.211,1401.275,381.053,1410.354,381.053z M1410.354,407.768
		c6.959,0,9.879-5.999,9.879-11.758c0-5.759-2.92-11.758-9.879-11.758c-6.958,0-9.877,5.999-9.877,11.758
		C1400.477,401.769,1403.396,407.768,1410.354,407.768z"/>
	<path d="M1428.676,381.732h12.518c5.72,0,8.76,3.12,8.76,8.438c0,5.319-3.04,8.479-8.76,8.438h-8.718v11.678h-3.8V381.732z
		 M1432.476,395.41h7.438c4.319,0.04,6.239-1.84,6.239-5.239s-1.92-5.239-6.239-5.239h-7.438V395.41z"/>
	<path d="M1454.796,405.848h4.439v4.439h-4.439V405.848z"/>
	<path d="M1476.797,381.732h4.039l15.037,23.156h0.08v-23.156h3.6v28.555h-4.16l-14.917-22.916h-0.08v22.916h-3.599V381.732z"/>
	<path d="M1522.793,403.729c-0.92,4.6-4.16,7.039-8.839,7.039c-6.599,0-9.718-4.599-9.918-10.878c0-6.239,4.079-10.758,9.718-10.758
		c7.319,0,9.559,6.839,9.359,11.838h-15.479c-0.119,3.599,1.92,6.799,6.439,6.799c2.84,0,4.76-1.32,5.359-4.04H1522.793z
		 M1519.514,397.97c-0.2-3.24-2.561-5.839-5.959-5.839c-3.52,0-5.719,2.639-5.92,5.839H1519.514z"/>
	<path d="M1544.272,403.729c-0.92,4.6-4.159,7.039-8.839,7.039c-6.599,0-9.719-4.599-9.918-10.878
		c0-6.239,4.079-10.758,9.719-10.758c7.318,0,9.558,6.839,9.357,11.838h-15.477c-0.121,3.599,1.92,6.799,6.438,6.799
		c2.839,0,4.759-1.32,5.359-4.04H1544.272z M1540.992,397.97c-0.199-3.24-2.559-5.839-5.959-5.839c-3.519,0-5.719,2.639-5.918,5.839
		H1540.992z"/>
	<path d="M1566.592,410.288h-3.399v-2.799h-0.08c-1.12,2.279-3.72,3.279-6.599,3.279c-6.359,0-9.519-5.039-9.519-10.878
		c0-5.839,3.119-10.758,9.438-10.758c2.08,0,5.199,0.8,6.679,3.239h0.08v-10.638h3.399V410.288z M1556.993,407.768
		c4.599,0,6.319-3.959,6.319-7.799c0-4.039-1.84-7.838-6.52-7.838c-4.639,0-6.199,3.959-6.199,7.999
		C1550.594,404.009,1552.594,407.768,1556.993,407.768z"/>
	<path d="M1587.674,389.611h4.119v3h-4.119v12.838c0,1.6,0.439,1.84,2.559,1.84h1.561v3h-2.6c-3.52,0-4.92-0.72-4.92-4.519V392.61
		h-3.52v-3h3.52v-6.199h3.4V389.611z"/>
	<path d="M1604.473,389.131c6.559,0,10.038,4.759,10.038,10.838c0,6.039-3.479,10.798-10.038,10.798
		c-6.56,0-10.039-4.759-10.039-10.798C1594.434,393.89,1597.913,389.131,1604.473,389.131z M1604.473,407.768
		c3.559,0,6.438-2.8,6.438-7.799s-2.88-7.838-6.438-7.838c-3.561,0-6.439,2.839-6.439,7.838S1600.912,407.768,1604.473,407.768z"/>
	<path d="M1648.11,410.288h-3.399v-2.799h-0.08c-1.12,2.279-3.719,3.279-6.6,3.279c-6.358,0-9.518-5.039-9.518-10.878
		c0-5.839,3.119-10.758,9.438-10.758c2.079,0,5.198,0.8,6.679,3.239h0.08v-10.638h3.399V410.288z M1638.512,407.768
		c4.6,0,6.318-3.959,6.318-7.799c0-4.039-1.839-7.838-6.518-7.838c-4.64,0-6.199,3.959-6.199,7.999
		C1632.113,404.009,1634.112,407.768,1638.512,407.768z"/>
	<path d="M1670.99,403.729c-0.92,4.6-4.16,7.039-8.84,7.039c-6.598,0-9.718-4.599-9.918-10.878c0-6.239,4.08-10.758,9.719-10.758
		c7.318,0,9.559,6.839,9.358,11.838h-15.478c-0.12,3.599,1.92,6.799,6.439,6.799c2.839,0,4.759-1.32,5.359-4.04H1670.99z
		 M1667.71,397.97c-0.2-3.24-2.56-5.839-5.959-5.839c-3.519,0-5.719,2.639-5.919,5.839H1667.71z"/>
	<path d="M1684.15,410.288h-3.639l-7.68-20.677h3.8l5.799,17.237h0.08l5.64-17.237h3.559L1684.15,410.288z"/>
	<path d="M1712.469,403.729c-0.92,4.6-4.159,7.039-8.838,7.039c-6.6,0-9.719-4.599-9.918-10.878c0-6.239,4.078-10.758,9.718-10.758
		c7.319,0,9.558,6.839,9.358,11.838h-15.478c-0.12,3.599,1.92,6.799,6.438,6.799c2.84,0,4.76-1.32,5.359-4.04H1712.469z
		 M1709.189,397.97c-0.199-3.24-2.56-5.839-5.959-5.839c-3.52,0-5.719,2.639-5.919,5.839H1709.189z"/>
	<path d="M1716.512,381.732h3.399v28.555h-3.399V381.732z"/>
	<path d="M1734.109,389.131c6.559,0,10.039,4.759,10.039,10.838c0,6.039-3.48,10.798-10.039,10.798s-10.038-4.759-10.038-10.798
		C1724.071,393.89,1727.551,389.131,1734.109,389.131z M1734.109,407.768c3.56,0,6.439-2.8,6.439-7.799s-2.88-7.838-6.439-7.838
		s-6.439,2.839-6.439,7.838S1730.55,407.768,1734.109,407.768z"/>
	<path d="M1748.271,389.611h3.399v2.8h0.08c1.119-2.28,3.719-3.279,6.599-3.279c6.358,0,9.519,5.039,9.519,10.878
		c0,5.879-3.119,10.758-9.438,10.758c-2.079,0-5.199-0.8-6.679-3.24h-0.08v10.678h-3.399V389.611z M1757.869,392.131
		c-4.6,0-6.319,3.959-6.319,7.798c0,4.04,1.84,7.839,6.519,7.839c4.64,0,6.199-3.959,6.199-7.999
		C1764.268,395.89,1762.268,392.131,1757.869,392.131z"/>
	<path d="M1286.637,433.732h3.399v10.918h0.08c1.079-2.52,4.079-3.519,6.519-3.519c5.439,0,7.119,3.119,7.119,7.559v13.598h-3.399
		V448.29c0-2.56-1.6-4.159-4.199-4.159c-4.12,0-6.119,2.759-6.119,6.479v11.678h-3.399V433.732z"/>
	<path d="M1327.193,462.208c-0.6,0.36-1.439,0.56-2.439,0.56c-1.76,0-2.879-0.96-2.879-3.2c-1.88,2.24-4.399,3.2-7.279,3.2
		c-3.76,0-6.838-1.64-6.838-5.799c0-4.679,3.479-5.719,6.998-6.359c3.72-0.76,6.959-0.44,6.959-3.039c0-3-2.479-3.439-4.6-3.439
		c-2.879,0-4.999,0.88-5.158,3.919h-3.4c0.2-5.119,4.119-6.918,8.759-6.918c3.72,0,7.759,0.84,7.759,5.679v10.638
		c0,1.6,0,2.32,1.08,2.32c0.32,0,0.68-0.08,1.039-0.2V462.208z M1321.675,451.609c-2.64,1.959-10.318,0.04-10.318,5.119
		c0,2.24,1.92,3.04,3.999,3.04c4.479,0,6.319-2.76,6.319-4.679V451.609z"/>
	<path d="M1330.236,441.611h3.199v4.359h0.08c1.641-3.359,3.92-4.959,7.6-4.839v3.599c-5.479,0-7.479,3.08-7.479,8.359v9.198h-3.399
		V441.611z"/>
	<path d="M1362.153,462.288h-3.399v-2.799h-0.08c-1.12,2.279-3.719,3.279-6.6,3.279c-6.358,0-9.518-5.039-9.518-10.878
		c0-5.839,3.119-10.758,9.438-10.758c2.079,0,5.198,0.8,6.679,3.239h0.08v-10.638h3.399V462.288z M1352.555,459.768
		c4.6,0,6.318-3.959,6.318-7.799c0-4.039-1.839-7.838-6.518-7.838c-4.64,0-6.199,3.959-6.199,7.999
		C1346.156,456.009,1348.155,459.768,1352.555,459.768z"/>
	<path d="M1387.872,462.288h-3.6l-4.199-16.437h-0.08l-4.159,16.437h-3.68l-6.639-20.677h3.76l4.68,16.917h0.079l4.159-16.917h3.72
		l4.319,16.917h0.08l4.639-16.917h3.52L1387.872,462.288z"/>
	<path d="M1416.032,462.208c-0.601,0.36-1.44,0.56-2.439,0.56c-1.76,0-2.88-0.96-2.88-3.2c-1.879,2.24-4.398,3.2-7.278,3.2
		c-3.76,0-6.839-1.64-6.839-5.799c0-4.679,3.479-5.719,6.998-6.359c3.72-0.76,6.959-0.44,6.959-3.039c0-3-2.479-3.439-4.599-3.439
		c-2.88,0-4.999,0.88-5.159,3.919h-3.399c0.2-5.119,4.119-6.918,8.759-6.918c3.719,0,7.758,0.84,7.758,5.679v10.638
		c0,1.6,0,2.32,1.08,2.32c0.32,0,0.68-0.08,1.04-0.2V462.208z M1410.514,451.609c-2.641,1.959-10.318,0.04-10.318,5.119
		c0,2.24,1.92,3.04,3.999,3.04c4.479,0,6.319-2.76,6.319-4.679V451.609z"/>
	<path d="M1419.074,441.611h3.2v4.359h0.08c1.64-3.359,3.919-4.959,7.599-4.839v3.599c-5.479,0-7.479,3.08-7.479,8.359v9.198h-3.4
		V441.611z"/>
	<path d="M1450.152,455.729c-0.92,4.6-4.16,7.039-8.84,7.039c-6.598,0-9.718-4.599-9.918-10.878c0-6.239,4.08-10.758,9.719-10.758
		c7.318,0,9.559,6.839,9.358,11.838h-15.478c-0.12,3.599,1.92,6.799,6.439,6.799c2.839,0,4.759-1.32,5.359-4.04H1450.152z
		 M1446.872,449.97c-0.2-3.24-2.56-5.839-5.959-5.839c-3.519,0-5.719,2.639-5.919,5.839H1446.872z"/>
	<path d="M1467.193,455.769c0.121,3.04,2.801,4,5.56,4c2.12,0,4.999-0.48,4.999-3.08c0-5.319-13.518-1.72-13.518-9.678
		c0-4.159,4.079-5.879,7.719-5.879c4.639,0,8.158,1.439,8.479,6.479h-3.399c-0.2-2.639-2.6-3.479-4.8-3.479
		c-2.039,0-4.398,0.56-4.398,2.639c0,2.4,3.6,2.88,6.759,3.6c3.399,0.76,6.759,1.919,6.759,5.879c0,4.959-4.6,6.519-8.799,6.519
		c-4.639,0-8.559-1.88-8.758-6.999H1467.193z"/>
	<path d="M1485.234,441.611h3.399v2.8h0.08c1.12-2.28,3.72-3.279,6.599-3.279c6.359,0,9.519,5.039,9.519,10.878
		c0,5.879-3.12,10.758-9.438,10.758c-2.08,0-5.199-0.8-6.679-3.24h-0.08v10.678h-3.399V441.611z M1494.832,444.131
		c-4.599,0-6.318,3.959-6.318,7.798c0,4.04,1.84,7.839,6.52,7.839c4.639,0,6.198-3.959,6.198-7.999
		C1501.231,447.89,1499.232,444.131,1494.832,444.131z"/>
	<path d="M1526.471,455.729c-0.92,4.6-4.159,7.039-8.838,7.039c-6.6,0-9.719-4.599-9.918-10.878c0-6.239,4.078-10.758,9.718-10.758
		c7.319,0,9.558,6.839,9.358,11.838h-15.478c-0.12,3.599,1.92,6.799,6.438,6.799c2.84,0,4.76-1.32,5.359-4.04H1526.471z
		 M1523.191,449.97c-0.199-3.24-2.56-5.839-5.959-5.839c-3.52,0-5.719,2.639-5.919,5.839H1523.191z"/>
	<path d="M1544.352,448.25c-0.521-2.6-2.28-4.119-5.119-4.119c-4.92,0-6.439,3.919-6.439,8.079c0,3.839,1.72,7.559,6.039,7.559
		c3.319,0,5.239-1.88,5.68-5.039h3.479c-0.76,5.079-3.879,8.039-9.118,8.039c-6.319,0-9.679-4.359-9.679-10.558
		c0-6.199,3.199-11.078,9.759-11.078c4.72,0,8.398,2.199,8.919,7.119H1544.352z"/>
	<path d="M1555.393,437.892h-3.399v-4.159h3.399V437.892z M1551.993,441.611h3.399v20.677h-3.399V441.611z"/>
	<path d="M1562.072,444.61h-3.479v-3h3.479v-3.079c0-3.359,2-5.119,5.719-5.119c0.641,0,1.561,0.12,2.199,0.32v2.959
		c-0.6-0.2-1.319-0.28-1.919-0.28c-1.64,0-2.6,0.52-2.6,2.319v2.879h3.999v3h-3.999v17.677h-3.399V444.61z M1572.711,437.892v-4.159
		h3.398v4.159H1572.711z M1572.711,462.288v-20.677h3.398v20.677H1572.711z"/>
	<path d="M1595.43,448.25c-0.52-2.6-2.279-4.119-5.119-4.119c-4.919,0-6.439,3.919-6.439,8.079c0,3.839,1.721,7.559,6.039,7.559
		c3.32,0,5.24-1.88,5.68-5.039h3.479c-0.761,5.079-3.88,8.039-9.118,8.039c-6.319,0-9.679-4.359-9.679-10.558
		c0-6.199,3.199-11.078,9.759-11.078c4.719,0,8.398,2.199,8.918,7.119H1595.43z"/>
	<path d="M1621.188,462.208c-0.601,0.36-1.44,0.56-2.439,0.56c-1.76,0-2.88-0.96-2.88-3.2c-1.879,2.24-4.398,3.2-7.278,3.2
		c-3.76,0-6.839-1.64-6.839-5.799c0-4.679,3.479-5.719,6.998-6.359c3.72-0.76,6.959-0.44,6.959-3.039c0-3-2.479-3.439-4.599-3.439
		c-2.88,0-4.999,0.88-5.159,3.919h-3.399c0.2-5.119,4.119-6.918,8.759-6.918c3.719,0,7.758,0.84,7.758,5.679v10.638
		c0,1.6,0,2.32,1.08,2.32c0.32,0,0.68-0.08,1.04-0.2V462.208z M1615.67,451.609c-2.641,1.959-10.318,0.04-10.318,5.119
		c0,2.24,1.92,3.04,3.999,3.04c4.479,0,6.319-2.76,6.319-4.679V451.609z"/>
	<path d="M1629.07,441.611h4.119v3h-4.119v12.838c0,1.6,0.439,1.84,2.56,1.84h1.56v3h-2.6c-3.52,0-4.919-0.72-4.919-4.519V444.61
		h-3.52v-3h3.52v-6.199h3.399V441.611z"/>
	<path d="M1640.551,437.892h-3.4v-4.159h3.4V437.892z M1637.15,441.611h3.4v20.677h-3.4V441.611z"/>
	<path d="M1654.748,441.131c6.56,0,10.039,4.759,10.039,10.838c0,6.039-3.479,10.798-10.039,10.798
		c-6.559,0-10.037-4.759-10.037-10.798C1644.711,445.89,1648.189,441.131,1654.748,441.131z M1654.748,459.768
		c3.561,0,6.439-2.8,6.439-7.799s-2.879-7.838-6.439-7.838c-3.559,0-6.438,2.839-6.438,7.838S1651.189,459.768,1654.748,459.768z"/>
	<path d="M1668.789,441.611h3.2v3.28h0.079c1.44-2.56,3.721-3.759,6.72-3.759c5.438,0,7.118,3.119,7.118,7.559v13.598h-3.398V448.29
		c0-2.56-1.6-4.159-4.199-4.159c-4.12,0-6.119,2.759-6.119,6.479v11.678h-3.4V441.611z"/>
	<path d="M1304.953,514.207c-0.6,0.36-1.439,0.561-2.439,0.561c-1.76,0-2.879-0.96-2.879-3.199c-1.88,2.239-4.399,3.199-7.279,3.199
		c-3.76,0-6.838-1.64-6.838-5.799c0-4.68,3.479-5.719,6.998-6.359c3.72-0.76,6.959-0.439,6.959-3.039c0-3-2.479-3.439-4.6-3.439
		c-2.879,0-4.999,0.88-5.158,3.919h-3.4c0.2-5.119,4.119-6.918,8.759-6.918c3.72,0,7.759,0.84,7.759,5.679v10.638
		c0,1.601,0,2.319,1.08,2.319c0.32,0,0.68-0.08,1.039-0.199V514.207z M1299.435,503.609c-2.64,1.959-10.318,0.04-10.318,5.119
		c0,2.24,1.92,3.039,3.999,3.039c4.479,0,6.319-2.76,6.319-4.679V503.609z"/>
	<path d="M1308.316,485.732h3.399v28.555h-3.399V485.732z"/>
	<path d="M1319.075,507.769c0.12,3.04,2.8,3.999,5.56,3.999c2.119,0,4.998-0.479,4.998-3.079c0-5.319-13.518-1.72-13.518-9.678
		c0-4.159,4.08-5.879,7.719-5.879c4.64,0,8.159,1.439,8.479,6.479h-3.398c-0.2-2.639-2.6-3.479-4.8-3.479
		c-2.04,0-4.399,0.56-4.399,2.639c0,2.4,3.6,2.88,6.76,3.599c3.398,0.76,6.758,1.92,6.758,5.879c0,4.96-4.599,6.52-8.798,6.52
		c-4.64,0-8.559-1.88-8.759-6.999H1319.075z"/>
	<path d="M1345.914,493.131c6.559,0,10.039,4.759,10.039,10.837c0,6.039-3.48,10.799-10.039,10.799s-10.038-4.76-10.038-10.799
		C1335.876,497.89,1339.355,493.131,1345.914,493.131z M1345.914,511.768c3.56,0,6.439-2.799,6.439-7.799
		c0-4.999-2.88-7.838-6.439-7.838s-6.439,2.839-6.439,7.838C1339.475,508.969,1342.354,511.768,1345.914,511.768z"/>
	<path d="M1360.715,509.848h4.439v4.439h-4.439V509.848z"/>
	<path d="M1389.234,488.932h-9.519v-3.199h22.836v3.199h-9.519v25.355h-3.799V488.932z"/>
	<path d="M1405.154,485.732h3.4v10.918h0.08c1.079-2.52,4.078-3.519,6.519-3.519c5.438,0,7.118,3.119,7.118,7.558v13.598h-3.398
		V500.29c0-2.56-1.6-4.159-4.199-4.159c-4.12,0-6.119,2.759-6.119,6.479v11.678h-3.4V485.732z"/>
	<path d="M1445.031,507.729c-0.92,4.6-4.159,7.039-8.838,7.039c-6.6,0-9.719-4.6-9.918-10.879c0-6.238,4.078-10.757,9.718-10.757
		c7.319,0,9.558,6.839,9.358,11.837h-15.478c-0.12,3.6,1.92,6.799,6.438,6.799c2.84,0,4.76-1.319,5.359-4.039H1445.031z
		 M1441.752,501.97c-0.199-3.24-2.56-5.839-5.959-5.839c-3.52,0-5.719,2.639-5.919,5.839H1441.752z"/>
	<path d="M1448.754,493.611h3.199v4.359h0.08c1.641-3.359,3.92-4.959,7.6-4.839v3.599c-5.479,0-7.479,3.08-7.479,8.359v9.197h-3.399
		V493.611z"/>
	<path d="M1479.831,507.729c-0.92,4.6-4.159,7.039-8.839,7.039c-6.599,0-9.719-4.6-9.918-10.879c0-6.238,4.079-10.757,9.719-10.757
		c7.318,0,9.558,6.839,9.357,11.837h-15.477c-0.121,3.6,1.92,6.799,6.438,6.799c2.839,0,4.759-1.319,5.359-4.039H1479.831z
		 M1476.551,501.97c-0.199-3.24-2.559-5.839-5.959-5.839c-3.519,0-5.719,2.639-5.918,5.839H1476.551z"/>
	<path d="M1515.27,514.287h-3.6l-4.199-16.437h-0.08l-4.158,16.437h-3.68l-6.639-20.676h3.76l4.679,16.917h0.079l4.16-16.917h3.719
		l4.32,16.917h0.08l4.639-16.917h3.52L1515.27,514.287z"/>
	<path d="M1528.713,489.892h-3.399v-4.159h3.399V489.892z M1525.313,493.611h3.399v20.676h-3.399V493.611z"/>
	<path d="M1534.193,485.732h3.398v28.555h-3.398V485.732z"/>
	<path d="M1543.072,485.732h3.399v28.555h-3.399V485.732z"/>
	<path d="M1562.992,485.732h3.398v10.678h0.08c1.12-2.28,3.72-3.279,6.6-3.279c6.358,0,9.518,5.039,9.518,10.878
		c0,5.879-3.119,10.758-9.438,10.758c-2.08,0-5.199-0.8-6.68-3.24h-0.08v2.76h-3.398V485.732z M1572.59,496.131
		c-4.6,0-6.318,3.959-6.318,7.799c0,4.039,1.84,7.838,6.519,7.838c4.64,0,6.198-3.959,6.198-7.998
		C1578.988,499.89,1576.989,496.131,1572.59,496.131z"/>
	<path d="M1604.229,507.729c-0.92,4.6-4.16,7.039-8.84,7.039c-6.598,0-9.718-4.6-9.918-10.879c0-6.238,4.08-10.757,9.719-10.757
		c7.318,0,9.559,6.839,9.358,11.837h-15.478c-0.12,3.6,1.92,6.799,6.439,6.799c2.839,0,4.759-1.319,5.359-4.039H1604.229z
		 M1600.948,501.97c-0.2-3.24-2.56-5.839-5.959-5.839c-3.519,0-5.719,2.639-5.919,5.839H1600.948z"/>
	<path d="M1637.508,514.207c-0.601,0.36-1.44,0.561-2.439,0.561c-1.76,0-2.88-0.96-2.88-3.199c-1.88,2.239-4.399,3.199-7.278,3.199
		c-3.76,0-6.84-1.64-6.84-5.799c0-4.68,3.479-5.719,6.999-6.359c3.72-0.76,6.959-0.439,6.959-3.039c0-3-2.479-3.439-4.599-3.439
		c-2.881,0-5,0.88-5.16,3.919h-3.398c0.199-5.119,4.119-6.918,8.758-6.918c3.72,0,7.759,0.84,7.759,5.679v10.638
		c0,1.601,0,2.319,1.08,2.319c0.319,0,0.68-0.08,1.04-0.199V514.207z M1631.988,503.609c-2.64,1.959-10.318,0.04-10.318,5.119
		c0,2.24,1.92,3.039,4,3.039c4.479,0,6.318-2.76,6.318-4.679V503.609z"/>
	<path d="M1651.79,493.611h3.199v3.28h0.08c1.44-2.56,3.72-3.759,6.72-3.759c5.438,0,7.118,3.119,7.118,7.558v13.598h-3.399V500.29
		c0-2.56-1.6-4.159-4.199-4.159c-4.119,0-6.119,2.759-6.119,6.479v11.678h-3.399V493.611z"/>
	<path d="M1691.668,507.729c-0.92,4.6-4.16,7.039-8.84,7.039c-6.598,0-9.718-4.6-9.918-10.879c0-6.238,4.08-10.757,9.719-10.757
		c7.318,0,9.559,6.839,9.358,11.837h-15.478c-0.12,3.6,1.92,6.799,6.439,6.799c2.839,0,4.759-1.319,5.359-4.039H1691.668z
		 M1688.388,501.97c-0.2-3.24-2.56-5.839-5.959-5.839c-3.519,0-5.719,2.639-5.919,5.839H1688.388z"/>
	<path d="M1713.146,507.729c-0.92,4.6-4.159,7.039-8.838,7.039c-6.6,0-9.719-4.6-9.918-10.879c0-6.238,4.078-10.757,9.718-10.757
		c7.319,0,9.558,6.839,9.358,11.837h-15.478c-0.12,3.6,1.92,6.799,6.438,6.799c2.84,0,4.76-1.319,5.359-4.039H1713.146z
		 M1709.867,501.97c-0.199-3.24-2.56-5.839-5.959-5.839c-3.52,0-5.719,2.639-5.919,5.839H1709.867z"/>
	<path d="M1735.467,514.287h-3.4v-2.799h-0.08c-1.119,2.279-3.719,3.279-6.599,3.279c-6.358,0-9.519-5.039-9.519-10.879
		c0-5.838,3.119-10.757,9.438-10.757c2.08,0,5.199,0.8,6.679,3.239h0.08v-10.638h3.4V514.287z M1725.867,511.768
		c4.6,0,6.319-3.959,6.319-7.799c0-4.039-1.839-7.838-6.519-7.838c-4.639,0-6.199,3.959-6.199,7.998
		C1719.469,508.009,1721.469,511.768,1725.867,511.768z"/>
	<path d="M1291.355,545.61h4.119v3h-4.119v12.838c0,1.6,0.44,1.84,2.561,1.84h1.559v2.999h-2.6c-3.519,0-4.918-0.72-4.918-4.52
		V548.61h-3.52v-3h3.52v-6.198h3.398V545.61z"/>
	<path d="M1308.154,545.131c6.56,0,10.039,4.759,10.039,10.838c0,6.039-3.479,10.798-10.039,10.798
		c-6.559,0-10.037-4.759-10.037-10.798C1298.117,549.89,1301.596,545.131,1308.154,545.131z M1308.154,563.768
		c3.561,0,6.439-2.8,6.439-7.799s-2.879-7.839-6.439-7.839c-3.559,0-6.438,2.84-6.438,7.839S1304.596,563.768,1308.154,563.768z"/>
	<path d="M1351.793,566.287h-3.399v-2.8h-0.08c-1.12,2.28-3.72,3.279-6.599,3.279c-6.359,0-9.519-5.039-9.519-10.878
		s3.119-10.758,9.438-10.758c2.08,0,5.199,0.8,6.679,3.239h0.08v-10.639h3.399V566.287z M1342.194,563.768
		c4.599,0,6.319-3.959,6.319-7.799c0-4.039-1.84-7.839-6.52-7.839c-4.639,0-6.199,3.96-6.199,7.999
		C1335.795,560.008,1337.795,563.768,1342.194,563.768z"/>
	<path d="M1374.672,559.729c-0.92,4.599-4.159,7.038-8.838,7.038c-6.6,0-9.719-4.599-9.918-10.878
		c0-6.238,4.078-10.758,9.718-10.758c7.319,0,9.558,6.839,9.358,11.838h-15.478c-0.12,3.6,1.92,6.799,6.438,6.799
		c2.84,0,4.76-1.32,5.359-4.039H1374.672z M1371.393,553.969c-0.199-3.239-2.56-5.839-5.959-5.839c-3.52,0-5.719,2.64-5.919,5.839
		H1371.393z"/>
	<path d="M1387.833,566.287h-3.64l-7.678-20.677h3.799l5.799,17.237h0.08l5.639-17.237h3.56L1387.833,566.287z"/>
	<path d="M1416.152,559.729c-0.92,4.599-4.16,7.038-8.84,7.038c-6.598,0-9.718-4.599-9.918-10.878c0-6.238,4.08-10.758,9.719-10.758
		c7.318,0,9.559,6.839,9.358,11.838h-15.478c-0.12,3.6,1.92,6.799,6.439,6.799c2.839,0,4.759-1.32,5.359-4.039H1416.152z
		 M1412.872,553.969c-0.2-3.239-2.56-5.839-5.959-5.839c-3.519,0-5.719,2.64-5.919,5.839H1412.872z"/>
	<path d="M1420.194,537.731h3.399v28.556h-3.399V537.731z"/>
	<path d="M1437.792,545.131c6.56,0,10.038,4.759,10.038,10.838c0,6.039-3.479,10.798-10.038,10.798s-10.038-4.759-10.038-10.798
		C1427.754,549.89,1431.232,545.131,1437.792,545.131z M1437.792,563.768c3.56,0,6.438-2.8,6.438-7.799s-2.879-7.839-6.438-7.839
		s-6.438,2.84-6.438,7.839S1434.232,563.768,1437.792,563.768z"/>
	<path d="M1451.953,545.61h3.399v2.8h0.08c1.12-2.279,3.72-3.279,6.599-3.279c6.359,0,9.519,5.039,9.519,10.878
		c0,5.879-3.12,10.758-9.438,10.758c-2.08,0-5.199-0.8-6.679-3.239h-0.08v10.679h-3.399V545.61z M1461.551,548.13
		c-4.599,0-6.318,3.96-6.318,7.799c0,4.039,1.84,7.839,6.52,7.839c4.639,0,6.198-3.959,6.198-7.999
		C1467.95,551.89,1465.951,548.13,1461.551,548.13z"/>
	<path d="M1491.393,545.61h4.119v3h-4.119v12.838c0,1.6,0.439,1.84,2.559,1.84h1.561v2.999h-2.6c-3.52,0-4.92-0.72-4.92-4.52V548.61
		h-3.52v-3h3.52v-6.198h3.4V545.61z"/>
	<path d="M1499.152,545.61h3.199v4.359h0.08c1.641-3.359,3.92-4.959,7.6-4.839v3.6c-5.479,0-7.479,3.079-7.479,8.358v9.198h-3.399
		V545.61z"/>
	<path d="M1530.909,566.207c-0.601,0.36-1.44,0.56-2.439,0.56c-1.76,0-2.88-0.959-2.88-3.199c-1.879,2.24-4.398,3.199-7.278,3.199
		c-3.76,0-6.839-1.64-6.839-5.799c0-4.679,3.479-5.719,6.998-6.358c3.72-0.76,6.959-0.44,6.959-3.04
		c0-2.999-2.479-3.439-4.599-3.439c-2.88,0-4.999,0.88-5.159,3.92h-3.399c0.2-5.119,4.119-6.919,8.759-6.919
		c3.719,0,7.758,0.84,7.758,5.679v10.639c0,1.6,0,2.319,1.08,2.319c0.32,0,0.68-0.08,1.04-0.2V566.207z M1525.391,555.609
		c-2.641,1.959-10.318,0.039-10.318,5.119c0,2.239,1.92,3.039,3.999,3.039c4.479,0,6.319-2.76,6.319-4.68V555.609z"/>
	<path d="M1537.672,541.892h-3.4v-4.16h3.4V541.892z M1534.271,545.61h3.4v20.677h-3.4V545.61z"/>
	<path d="M1542.951,545.61h3.199v3.279h0.08c1.439-2.56,3.72-3.759,6.719-3.759c5.439,0,7.119,3.119,7.119,7.559v13.598h-3.399
		v-13.998c0-2.56-1.6-4.159-4.199-4.159c-4.12,0-6.119,2.76-6.119,6.479v11.678h-3.399V545.61z"/>
	<path d="M1568.791,541.892h-3.399v-4.16h3.399V541.892z M1565.392,545.61h3.399v20.677h-3.399V545.61z"/>
	<path d="M1574.07,545.61h3.2v3.279h0.079c1.44-2.56,3.721-3.759,6.72-3.759c5.438,0,7.118,3.119,7.118,7.559v13.598h-3.398v-13.998
		c0-2.56-1.6-4.159-4.199-4.159c-4.12,0-6.119,2.76-6.119,6.479v11.678h-3.4V545.61z"/>
	<path d="M1614.147,564.527c0,6.759-3.04,10.158-9.599,10.158c-3.879,0-8.358-1.6-8.559-6.079h3.4
		c0.119,2.439,3.158,3.359,5.358,3.359c4.439,0,6.199-3.199,6.199-7.838v-1.36h-0.08c-1.159,2.52-3.8,3.76-6.438,3.76
		c-6.16,0-9.238-4.84-9.238-10.479c0-4.879,2.359-10.918,9.558-10.918c2.6,0,4.919,1.159,6.159,3.439h0.04v-2.96h3.199V564.527z
		 M1610.788,555.529c0-3.64-1.6-7.399-5.879-7.399c-4.359,0-6.119,3.56-6.119,7.519c0,3.72,1.36,7.879,5.839,7.879
		C1609.108,563.527,1610.788,559.408,1610.788,555.529z"/>
	<path d="M1631.79,548.61h-3.479v-3h3.479v-3.079c0-3.359,1.999-5.119,5.719-5.119c0.64,0,1.56,0.12,2.2,0.319v2.96
		c-0.6-0.2-1.32-0.28-1.92-0.28c-1.64,0-2.6,0.521-2.6,2.32v2.879h3.999v3h-3.999v17.677h-3.399V548.61z"/>
	<path d="M1651.148,545.131c6.559,0,10.038,4.759,10.038,10.838c0,6.039-3.479,10.798-10.038,10.798
		c-6.56,0-10.039-4.759-10.039-10.798C1641.109,549.89,1644.589,545.131,1651.148,545.131z M1651.148,563.768
		c3.559,0,6.438-2.8,6.438-7.799s-2.88-7.839-6.438-7.839c-3.561,0-6.439,2.84-6.439,7.839S1647.588,563.768,1651.148,563.768z"/>
	<path d="M1665.068,545.61h3.2v4.359h0.08c1.64-3.359,3.919-4.959,7.599-4.839v3.6c-5.479,0-7.479,3.079-7.479,8.358v9.198h-3.4
		V545.61z"/>
	<path d="M1694.348,545.61h4.119v3h-4.119v12.838c0,1.6,0.44,1.84,2.561,1.84h1.559v2.999h-2.6c-3.519,0-4.918-0.72-4.918-4.52
		V548.61h-3.52v-3h3.52v-6.198h3.398V545.61z"/>
	<path d="M1702.229,537.731h3.399v10.919h0.08c1.079-2.52,4.079-3.52,6.519-3.52c5.439,0,7.119,3.119,7.119,7.559v13.598h-3.399
		v-13.998c0-2.56-1.6-4.159-4.199-4.159c-4.12,0-6.119,2.76-6.119,6.479v11.678h-3.399V537.731z"/>
	<path d="M1728.068,541.892h-3.399v-4.16h3.399V541.892z M1724.669,545.61h3.399v20.677h-3.399V545.61z"/>
	<path d="M1735.428,559.769c0.12,3.039,2.8,3.999,5.559,3.999c2.12,0,5-0.479,5-3.079c0-5.319-13.518-1.72-13.518-9.679
		c0-4.159,4.079-5.879,7.719-5.879c4.639,0,8.158,1.439,8.479,6.479h-3.4c-0.199-2.64-2.6-3.479-4.799-3.479
		c-2.039,0-4.398,0.561-4.398,2.64c0,2.399,3.599,2.88,6.758,3.6c3.4,0.76,6.76,1.92,6.76,5.879c0,4.959-4.6,6.519-8.799,6.519
		c-4.64,0-8.559-1.879-8.759-6.998H1735.428z"/>
	<path d="M1286.637,597.61h3.199v3.279h0.08c1.439-2.56,3.72-3.759,6.719-3.759c5.439,0,7.119,3.119,7.119,7.559v13.598h-3.399
		v-13.998c0-2.56-1.6-4.159-4.199-4.159c-4.12,0-6.119,2.76-6.119,6.479v11.678h-3.399V597.61z"/>
	<path d="M1326.514,611.729c-0.92,4.599-4.159,7.038-8.838,7.038c-6.6,0-9.719-4.599-9.918-10.878
		c0-6.238,4.078-10.758,9.718-10.758c7.319,0,9.558,6.839,9.358,11.838h-15.478c-0.12,3.6,1.92,6.799,6.438,6.799
		c2.84,0,4.76-1.32,5.359-4.039H1326.514z M1323.234,605.969c-0.199-3.239-2.56-5.839-5.959-5.839c-3.52,0-5.719,2.64-5.919,5.839
		H1323.234z"/>
	<path d="M1350.833,618.287h-3.6l-4.199-16.438h-0.08l-4.159,16.438h-3.68l-6.639-20.677h3.76l4.68,16.917h0.079l4.159-16.917h3.72
		l4.319,16.917h0.08l4.639-16.917h3.52L1350.833,618.287z"/>
	<path d="M1388.873,598.091c-0.439-4.12-3.119-5.839-7.078-5.839c-3.24,0-6.398,1.159-6.398,4.879
		c0,7.039,18.276,2.079,18.276,13.317c0,6.079-5.959,8.519-11.158,8.519c-6.399,0-11.798-3.159-11.798-10.078h3.6
		c0,4.799,3.999,6.879,8.318,6.879c3.439,0,7.238-1.08,7.238-5.199c0-7.839-18.277-2.68-18.277-13.158
		c0-5.759,5.119-8.358,10.359-8.358c5.839,0,10.318,2.76,10.518,9.039H1388.873z"/>
	<path d="M1410.354,589.052c9.079,0,13.678,7.159,13.678,14.958s-4.599,14.957-13.678,14.957c-9.078,0-13.678-7.158-13.678-14.957
		S1401.275,589.052,1410.354,589.052z M1410.354,615.768c6.959,0,9.879-5.999,9.879-11.758c0-5.76-2.92-11.758-9.879-11.758
		c-6.958,0-9.877,5.998-9.877,11.758C1400.477,609.769,1403.396,615.768,1410.354,615.768z"/>
	<path d="M1428.676,589.731h12.518c5.72,0,8.76,3.12,8.76,8.439c0,5.318-3.04,8.479-8.76,8.438h-8.718v11.678h-3.8V589.731z
		 M1432.476,603.409h7.438c4.319,0.04,6.239-1.839,6.239-5.238s-1.92-5.239-6.239-5.239h-7.438V603.409z"/>
	<path d="M1483.473,618.207c-0.6,0.36-1.439,0.56-2.439,0.56c-1.76,0-2.879-0.959-2.879-3.199c-1.88,2.24-4.399,3.199-7.279,3.199
		c-3.76,0-6.838-1.64-6.838-5.799c0-4.679,3.479-5.719,6.998-6.358c3.72-0.76,6.959-0.44,6.959-3.04c0-2.999-2.479-3.439-4.6-3.439
		c-2.879,0-4.999,0.88-5.158,3.92h-3.4c0.2-5.119,4.119-6.919,8.759-6.919c3.72,0,7.759,0.84,7.759,5.679v10.639
		c0,1.6,0,2.319,1.08,2.319c0.32,0,0.68-0.08,1.039-0.2V618.207z M1477.954,607.609c-2.64,1.959-10.318,0.039-10.318,5.119
		c0,2.239,1.92,3.039,3.999,3.039c4.479,0,6.319-2.76,6.319-4.68V607.609z"/>
	<path d="M1486.636,597.61h3.199v3.279h0.08c1.44-2.56,3.72-3.759,6.72-3.759c5.438,0,7.118,3.119,7.118,7.559v13.598h-3.399
		v-13.998c0-2.56-1.6-4.159-4.199-4.159c-4.119,0-6.119,2.76-6.119,6.479v11.678h-3.399V597.61z"/>
	<path d="M1527.354,618.287h-3.4v-2.8h-0.08c-1.119,2.28-3.719,3.279-6.599,3.279c-6.358,0-9.519-5.039-9.519-10.878
		s3.119-10.758,9.438-10.758c2.08,0,5.199,0.8,6.679,3.239h0.08v-10.639h3.4V618.287z M1517.754,615.768
		c4.6,0,6.319-3.959,6.319-7.799c0-4.039-1.839-7.839-6.519-7.839c-4.639,0-6.199,3.96-6.199,7.999
		C1511.355,612.008,1513.355,615.768,1517.754,615.768z"/>
	<path d="M1544.436,589.731h3.799v28.556h-3.799V589.731z"/>
	<path d="M1572.553,618.287h-3.4v-2.8h-0.08c-1.119,2.28-3.719,3.279-6.599,3.279c-6.358,0-9.519-5.039-9.519-10.878
		s3.119-10.758,9.438-10.758c2.08,0,5.199,0.8,6.679,3.239h0.08v-10.639h3.4V618.287z M1562.953,615.768
		c4.6,0,6.319-3.959,6.319-7.799c0-4.039-1.839-7.839-6.519-7.839c-4.639,0-6.199,3.96-6.199,7.999
		C1556.555,612.008,1558.555,615.768,1562.953,615.768z"/>
	<path d="M1595.432,611.729c-0.92,4.599-4.159,7.038-8.838,7.038c-6.6,0-9.719-4.599-9.918-10.878
		c0-6.238,4.078-10.758,9.718-10.758c7.319,0,9.558,6.839,9.358,11.838h-15.478c-0.12,3.6,1.92,6.799,6.438,6.799
		c2.84,0,4.76-1.32,5.359-4.039H1595.432z M1592.152,605.969c-0.199-3.239-2.56-5.839-5.959-5.839c-3.52,0-5.719,2.64-5.919,5.839
		H1592.152z"/>
	<path d="M1599.274,597.61h3.199v3.279h0.08c1.44-2.56,3.72-3.759,6.72-3.759c5.438,0,7.118,3.119,7.118,7.559v13.598h-3.399
		v-13.998c0-2.56-1.6-4.159-4.199-4.159c-4.119,0-6.119,2.76-6.119,6.479v11.678h-3.399V597.61z"/>
	<path d="M1626.234,597.61h4.119v3h-4.119v12.838c0,1.6,0.439,1.84,2.559,1.84h1.561v2.999h-2.6c-3.52,0-4.92-0.72-4.92-4.52V600.61
		h-3.52v-3h3.52v-6.198h3.4V597.61z"/>
	<path d="M1637.714,593.892h-3.399v-4.16h3.399V593.892z M1634.314,597.61h3.399v20.677h-3.399V597.61z"/>
	<path d="M1644.394,600.61h-3.479v-3h3.479v-3.079c0-3.359,1.999-5.119,5.719-5.119c0.64,0,1.56,0.12,2.2,0.319v2.96
		c-0.6-0.2-1.32-0.28-1.92-0.28c-1.64,0-2.6,0.521-2.6,2.32v2.879h3.999v3h-3.999v17.677h-3.399V600.61z"/>
	<path d="M1662.951,621.047c-1.6,3.999-2.959,5.519-5.998,5.519c-0.801,0-1.6-0.08-2.359-0.359v-3.12
		c0.639,0.2,1.318,0.48,1.999,0.48c1.399,0,2.159-0.64,2.8-1.88l1.399-3.52l-8.198-20.557h3.839l6.039,16.917h0.08l5.799-16.917h3.6
		L1662.951,621.047z"/>
	<path d="M1704.27,618.207c-0.6,0.36-1.439,0.56-2.439,0.56c-1.76,0-2.879-0.959-2.879-3.199c-1.88,2.24-4.399,3.199-7.279,3.199
		c-3.76,0-6.838-1.64-6.838-5.799c0-4.679,3.479-5.719,6.998-6.358c3.72-0.76,6.959-0.44,6.959-3.04c0-2.999-2.479-3.439-4.6-3.439
		c-2.879,0-4.999,0.88-5.158,3.92h-3.4c0.2-5.119,4.119-6.919,8.759-6.919c3.72,0,7.759,0.84,7.759,5.679v10.639
		c0,1.6,0,2.319,1.08,2.319c0.32,0,0.68-0.08,1.039-0.2V618.207z M1698.751,607.609c-2.64,1.959-10.318,0.039-10.318,5.119
		c0,2.239,1.92,3.039,3.999,3.039c4.479,0,6.319-2.76,6.319-4.68V607.609z"/>
	<path d="M1707.633,589.731h3.399v28.556h-3.399V589.731z"/>
	<path d="M1716.512,589.731h3.4v28.556h-3.4V589.731z"/>
	<path d="M1290.236,645.892h-3.399v-4.16h3.399V645.892z M1286.837,649.61h3.399v20.677h-3.399V649.61z"/>
	<path d="M1295.516,649.61h3.2v3.279h0.079c1.44-2.56,3.721-3.759,6.72-3.759c5.438,0,7.118,3.119,7.118,7.559v13.598h-3.398
		v-13.998c0-2.56-1.6-4.159-4.199-4.159c-4.12,0-6.119,2.76-6.119,6.479v11.678h-3.4V649.61z"/>
	<path d="M1336.232,670.287h-3.398v-2.8h-0.08c-1.121,2.28-3.72,3.279-6.6,3.279c-6.359,0-9.518-5.039-9.518-10.878
		s3.119-10.758,9.438-10.758c2.08,0,5.199,0.8,6.68,3.239h0.08v-10.639h3.398V670.287z M1326.635,667.768
		c4.599,0,6.318-3.959,6.318-7.799c0-4.039-1.84-7.839-6.519-7.839c-4.64,0-6.199,3.96-6.199,7.999
		C1320.235,664.008,1322.235,667.768,1326.635,667.768z"/>
	<path d="M1345.075,645.892h-3.399v-4.16h3.399V645.892z M1341.676,649.61h3.399v20.677h-3.399V649.61z"/>
	<path d="M1359.674,670.287h-3.64l-7.679-20.677h3.799l5.799,17.237h0.08l5.64-17.237h3.56L1359.674,670.287z"/>
	<path d="M1373.955,645.892h-3.4v-4.16h3.4V645.892z M1370.555,649.61h3.4v20.677h-3.4V649.61z"/>
	<path d="M1397.711,670.287h-3.398v-2.8h-0.08c-1.121,2.28-3.72,3.279-6.6,3.279c-6.359,0-9.518-5.039-9.518-10.878
		s3.119-10.758,9.438-10.758c2.08,0,5.199,0.8,6.68,3.239h0.08v-10.639h3.398V670.287z M1388.113,667.768
		c4.599,0,6.318-3.959,6.318-7.799c0-4.039-1.84-7.839-6.519-7.839c-4.64,0-6.199,3.96-6.199,7.999
		C1381.714,664.008,1383.714,667.768,1388.113,667.768z"/>
	<path d="M1420.071,670.287h-3.2v-3.279h-0.079c-1.44,2.56-3.72,3.759-6.72,3.759c-5.438,0-7.118-3.119-7.118-7.559V649.61h3.399
		v13.998c0,2.56,1.6,4.159,4.199,4.159c4.119,0,6.119-2.76,6.119-6.479V649.61h3.399V670.287z"/>
	<path d="M1443.512,670.207c-0.601,0.36-1.44,0.56-2.439,0.56c-1.76,0-2.88-0.959-2.88-3.199c-1.88,2.24-4.399,3.199-7.278,3.199
		c-3.76,0-6.84-1.64-6.84-5.799c0-4.679,3.479-5.719,6.999-6.358c3.72-0.76,6.959-0.44,6.959-3.04c0-2.999-2.479-3.439-4.599-3.439
		c-2.881,0-5,0.88-5.16,3.92h-3.398c0.199-5.119,4.119-6.919,8.758-6.919c3.72,0,7.759,0.84,7.759,5.679v10.639
		c0,1.6,0,2.319,1.08,2.319c0.319,0,0.68-0.08,1.04-0.2V670.207z M1437.992,659.609c-2.64,1.959-10.318,0.039-10.318,5.119
		c0,2.239,1.92,3.039,4,3.039c4.479,0,6.318-2.76,6.318-4.68V659.609z"/>
	<path d="M1446.874,641.731h3.399v28.556h-3.399V641.731z"/>
	<path d="M1487.15,670.287h-3.6l-4.199-16.438h-0.08l-4.16,16.438h-3.679l-6.64-20.677h3.76l4.68,16.917h0.08l4.159-16.917h3.72
		l4.318,16.917h0.08l4.64-16.917h3.52L1487.15,670.287z"/>
	<path d="M1496.993,641.731h3.399v10.919h0.08c1.08-2.52,4.079-3.52,6.52-3.52c5.438,0,7.118,3.119,7.118,7.559v13.598h-3.399
		v-13.998c0-2.56-1.6-4.159-4.199-4.159c-4.119,0-6.119,2.76-6.119,6.479v11.678h-3.399V641.731z"/>
	<path d="M1528.152,649.131c6.559,0,10.038,4.759,10.038,10.838c0,6.039-3.479,10.798-10.038,10.798
		c-6.56,0-10.039-4.759-10.039-10.798C1518.113,653.89,1521.593,649.131,1528.152,649.131z M1528.152,667.768
		c3.559,0,6.438-2.8,6.438-7.799s-2.88-7.839-6.438-7.839c-3.561,0-6.439,2.84-6.439,7.839S1524.592,667.768,1528.152,667.768z"/>
	<path d="M1553.193,649.61h3.199v4.359h0.08c1.64-3.359,3.919-4.959,7.599-4.839v3.6c-5.479,0-7.479,3.079-7.479,8.358v9.198h-3.398
		V649.61z"/>
	<path d="M1584.27,663.729c-0.92,4.599-4.159,7.038-8.838,7.038c-6.6,0-9.719-4.599-9.918-10.878c0-6.238,4.078-10.758,9.718-10.758
		c7.319,0,9.558,6.839,9.358,11.838h-15.478c-0.12,3.6,1.92,6.799,6.438,6.799c2.84,0,4.76-1.32,5.359-4.039H1584.27z
		 M1580.99,657.969c-0.199-3.239-2.56-5.839-5.959-5.839c-3.52,0-5.719,2.64-5.919,5.839H1580.99z"/>
	<path d="M1606.59,678.206h-3.4v-10.719h-0.08c-1.119,2.28-3.719,3.279-6.599,3.279c-6.358,0-9.519-5.039-9.519-10.878
		s3.119-10.758,9.438-10.758c2.08,0,5.199,0.8,6.679,3.239h0.08v-2.76h3.4V678.206z M1596.99,667.768c4.6,0,6.319-3.959,6.319-7.799
		c0-4.039-1.839-7.839-6.519-7.839c-4.639,0-6.199,3.96-6.199,7.999C1590.592,664.008,1592.592,667.768,1596.99,667.768z"/>
	<path d="M1628.949,670.287h-3.199v-3.279h-0.08c-1.439,2.56-3.72,3.759-6.719,3.759c-5.439,0-7.119-3.119-7.119-7.559V649.61h3.399
		v13.998c0,2.56,1.6,4.159,4.199,4.159c4.12,0,6.119-2.76,6.119-6.479V649.61h3.399V670.287z"/>
	<path d="M1637.672,645.892h-3.399v-4.16h3.399V645.892z M1634.272,649.61h3.399v20.677h-3.399V649.61z"/>
	<path d="M1642.832,649.61h3.199v4.359h0.08c1.64-3.359,3.919-4.959,7.599-4.839v3.6c-5.479,0-7.479,3.079-7.479,8.358v9.198h-3.398
		V649.61z"/>
	<path d="M1673.908,663.729c-0.92,4.599-4.159,7.038-8.838,7.038c-6.6,0-9.719-4.599-9.918-10.878
		c0-6.238,4.078-10.758,9.718-10.758c7.319,0,9.558,6.839,9.358,11.838h-15.478c-0.12,3.6,1.92,6.799,6.438,6.799
		c2.84,0,4.76-1.32,5.359-4.039H1673.908z M1670.629,657.969c-0.199-3.239-2.56-5.839-5.959-5.839c-3.52,0-5.719,2.64-5.919,5.839
		H1670.629z"/>
	<path d="M1291.355,701.61h4.119v3h-4.119v12.838c0,1.6,0.44,1.84,2.561,1.84h1.559v2.999h-2.6c-3.519,0-4.918-0.72-4.918-4.52
		V704.61h-3.52v-3h3.52v-6.198h3.398V701.61z"/>
	<path d="M1299.116,701.61h3.2v4.359h0.08c1.639-3.359,3.918-4.959,7.598-4.839v3.6c-5.479,0-7.479,3.079-7.479,8.358v9.198h-3.399
		V701.61z"/>
	<path d="M1330.873,722.207c-0.6,0.36-1.439,0.56-2.439,0.56c-1.76,0-2.879-0.959-2.879-3.199c-1.881,2.24-4.4,3.199-7.279,3.199
		c-3.76,0-6.839-1.64-6.839-5.799c0-4.679,3.479-5.719,6.999-6.358c3.719-0.76,6.959-0.44,6.959-3.04c0-2.999-2.48-3.439-4.6-3.439
		c-2.88,0-5,0.88-5.159,3.92h-3.399c0.199-5.119,4.119-6.919,8.758-6.919c3.72,0,7.76,0.84,7.76,5.679v10.639
		c0,1.6,0,2.319,1.079,2.319c0.32,0,0.681-0.08,1.04-0.2V722.207z M1325.354,711.609c-2.639,1.959-10.318,0.039-10.318,5.119
		c0,2.239,1.92,3.039,4,3.039c4.479,0,6.318-2.76,6.318-4.68V711.609z"/>
	<path d="M1337.635,697.892h-3.398v-4.16h3.398V697.892z M1334.236,701.61h3.398v20.677h-3.398V701.61z"/>
	<path d="M1342.915,701.61h3.199v3.279h0.08c1.44-2.56,3.72-3.759,6.72-3.759c5.438,0,7.118,3.119,7.118,7.559v13.598h-3.399
		v-13.998c0-2.56-1.6-4.159-4.199-4.159c-4.119,0-6.119,2.76-6.119,6.479v11.678h-3.399V701.61z"/>
	<path d="M1368.755,697.892h-3.399v-4.16h3.399V697.892z M1365.355,701.61h3.399v20.677h-3.399V701.61z"/>
	<path d="M1374.035,701.61h3.199v3.279h0.08c1.439-2.56,3.719-3.759,6.719-3.759c5.439,0,7.119,3.119,7.119,7.559v13.598h-3.4
		v-13.998c0-2.56-1.6-4.159-4.199-4.159c-4.119,0-6.119,2.76-6.119,6.479v11.678h-3.398V701.61z"/>
	<path d="M1414.111,720.527c0,6.759-3.039,10.158-9.598,10.158c-3.88,0-8.359-1.6-8.559-6.079h3.398
		c0.12,2.439,3.16,3.359,5.359,3.359c4.439,0,6.199-3.199,6.199-7.838v-1.36h-0.08c-1.16,2.52-3.799,3.76-6.439,3.76
		c-6.158,0-9.238-4.84-9.238-10.479c0-4.879,2.359-10.918,9.559-10.918c2.6,0,4.92,1.159,6.159,3.439h0.04v-2.96h3.199V720.527z
		 M1410.752,711.529c0-3.64-1.6-7.399-5.879-7.399c-4.359,0-6.119,3.56-6.119,7.519c0,3.72,1.359,7.879,5.839,7.879
		S1410.752,715.408,1410.752,711.529z"/>
	<path d="M1419.994,717.848h4.439v4.439h-4.439V717.848z"/>
	<path d="M1448.513,696.932h-9.519v-3.2h22.836v3.2h-9.518v25.355h-3.8V696.932z"/>
	<path d="M1464.434,693.731h3.399v10.919h0.08c1.079-2.52,4.079-3.52,6.519-3.52c5.439,0,7.119,3.119,7.119,7.559v13.598h-3.399
		v-13.998c0-2.56-1.6-4.159-4.199-4.159c-4.12,0-6.119,2.76-6.119,6.479v11.678h-3.399V693.731z"/>
	<path d="M1504.311,715.729c-0.92,4.599-4.159,7.038-8.838,7.038c-6.6,0-9.719-4.599-9.918-10.878
		c0-6.238,4.078-10.758,9.718-10.758c7.319,0,9.558,6.839,9.358,11.838h-15.478c-0.12,3.6,1.92,6.799,6.438,6.799
		c2.84,0,4.76-1.32,5.359-4.039H1504.311z M1501.031,709.969c-0.199-3.239-2.56-5.839-5.959-5.839c-3.52,0-5.719,2.64-5.919,5.839
		H1501.031z"/>
	<path d="M1510.232,715.769c0.121,3.039,2.801,3.999,5.56,3.999c2.12,0,4.999-0.479,4.999-3.079c0-5.319-13.518-1.72-13.518-9.679
		c0-4.159,4.079-5.879,7.719-5.879c4.639,0,8.158,1.439,8.479,6.479h-3.399c-0.2-2.64-2.6-3.479-4.8-3.479
		c-2.039,0-4.398,0.561-4.398,2.64c0,2.399,3.6,2.88,6.759,3.6c3.399,0.76,6.759,1.92,6.759,5.879c0,4.959-4.6,6.519-8.799,6.519
		c-4.639,0-8.559-1.879-8.758-6.998H1510.232z"/>
	<path d="M1545.791,715.729c-0.92,4.599-4.16,7.038-8.84,7.038c-6.598,0-9.718-4.599-9.918-10.878c0-6.238,4.08-10.758,9.719-10.758
		c7.318,0,9.559,6.839,9.358,11.838h-15.478c-0.12,3.6,1.92,6.799,6.439,6.799c2.839,0,4.759-1.32,5.359-4.039H1545.791z
		 M1542.511,709.969c-0.2-3.239-2.56-5.839-5.959-5.839c-3.519,0-5.719,2.64-5.919,5.839H1542.511z"/>
	<path d="M1562.152,704.61h-3.479v-3h3.479v-3.079c0-3.359,2-5.119,5.719-5.119c0.641,0,1.561,0.12,2.2,0.319v2.96
		c-0.6-0.2-1.319-0.28-1.919-0.28c-1.641,0-2.6,0.521-2.6,2.32v2.879h3.998v3h-3.998v17.677h-3.4V704.61z"/>
	<path d="M1581.512,701.131c6.559,0,10.038,4.759,10.038,10.838c0,6.039-3.479,10.798-10.038,10.798
		c-6.56,0-10.039-4.759-10.039-10.798C1571.473,705.89,1574.952,701.131,1581.512,701.131z M1581.512,719.768
		c3.559,0,6.438-2.8,6.438-7.799s-2.88-7.839-6.438-7.839c-3.561,0-6.439,2.84-6.439,7.839S1577.951,719.768,1581.512,719.768z"/>
	<path d="M1612.67,722.287h-3.2v-3.279h-0.079c-1.44,2.56-3.721,3.759-6.72,3.759c-5.438,0-7.118-3.119-7.118-7.559V701.61h3.398
		v13.998c0,2.56,1.6,4.159,4.199,4.159c4.12,0,6.119-2.76,6.119-6.479V701.61h3.4V722.287z"/>
	<path d="M1617.672,701.61h3.199v4.359h0.08c1.641-3.359,3.92-4.959,7.6-4.839v3.6c-5.479,0-7.479,3.079-7.479,8.358v9.198h-3.399
		V701.61z"/>
	<path d="M1646.951,701.61h4.119v3h-4.119v12.838c0,1.6,0.439,1.84,2.56,1.84h1.56v2.999h-2.6c-3.52,0-4.919-0.72-4.919-4.52V704.61
		h-3.52v-3h3.52v-6.198h3.399V701.61z"/>
	<path d="M1673.148,722.207c-0.6,0.36-1.439,0.56-2.439,0.56c-1.76,0-2.879-0.959-2.879-3.199c-1.881,2.24-4.4,3.199-7.279,3.199
		c-3.76,0-6.839-1.64-6.839-5.799c0-4.679,3.479-5.719,6.999-6.358c3.719-0.76,6.959-0.44,6.959-3.04c0-2.999-2.48-3.439-4.6-3.439
		c-2.88,0-5,0.88-5.159,3.92h-3.399c0.199-5.119,4.119-6.919,8.758-6.919c3.72,0,7.76,0.84,7.76,5.679v10.639
		c0,1.6,0,2.319,1.079,2.319c0.32,0,0.681-0.08,1.04-0.2V722.207z M1667.629,711.609c-2.639,1.959-10.318,0.039-10.318,5.119
		c0,2.239,1.92,3.039,4,3.039c4.479,0,6.318-2.76,6.318-4.68V711.609z"/>
	<path d="M1678.391,715.769c0.12,3.039,2.8,3.999,5.559,3.999c2.12,0,5-0.479,5-3.079c0-5.319-13.518-1.72-13.518-9.679
		c0-4.159,4.079-5.879,7.719-5.879c4.639,0,8.158,1.439,8.479,6.479h-3.4c-0.199-2.64-2.6-3.479-4.799-3.479
		c-2.039,0-4.398,0.561-4.398,2.64c0,2.399,3.599,2.88,6.758,3.6c3.4,0.76,6.76,1.92,6.76,5.879c0,4.959-4.6,6.519-8.799,6.519
		c-4.64,0-8.559-1.879-8.759-6.998H1678.391z"/>
	<path d="M1696.512,693.731h3.398v16.918l9.438-9.039h4.56l-8.199,7.519l8.799,13.158h-4.319l-7.079-10.798l-3.199,2.959v7.839
		h-3.398V693.731z"/>
	<path d="M1719.15,715.769c0.12,3.039,2.8,3.999,5.559,3.999c2.12,0,5-0.479,5-3.079c0-5.319-13.518-1.72-13.518-9.679
		c0-4.159,4.079-5.879,7.719-5.879c4.639,0,8.158,1.439,8.479,6.479h-3.4c-0.199-2.64-2.6-3.479-4.799-3.479
		c-2.039,0-4.398,0.561-4.398,2.64c0,2.399,3.599,2.88,6.758,3.6c3.4,0.76,6.76,1.92,6.76,5.879c0,4.959-4.6,6.519-8.799,6.519
		c-4.64,0-8.559-1.879-8.759-6.998H1719.15z"/>
	<path d="M1307.113,774.287h-3.6l-4.199-16.438h-0.08l-4.159,16.438h-3.679l-6.64-20.677h3.76l4.679,16.917h0.08l4.16-16.917h3.719
		l4.319,16.917h0.08l4.64-16.917h3.52L1307.113,774.287z"/>
	<path d="M1320.557,749.892h-3.4v-4.16h3.4V749.892z M1317.156,753.61h3.4v20.677h-3.4V753.61z"/>
	<path d="M1326.036,745.731h3.399v28.556h-3.399V745.731z"/>
	<path d="M1334.916,745.731h3.398v28.556h-3.398V745.731z"/>
	<path d="M1354.835,745.731h3.399v10.679h0.08c1.119-2.279,3.719-3.279,6.599-3.279c6.358,0,9.519,5.039,9.519,10.878
		c0,5.879-3.119,10.758-9.438,10.758c-2.079,0-5.199-0.8-6.679-3.239h-0.08v2.76h-3.399V745.731z M1364.434,756.13
		c-4.6,0-6.319,3.96-6.319,7.799c0,4.039,1.84,7.839,6.519,7.839c4.64,0,6.199-3.959,6.199-7.999
		C1370.832,759.89,1368.832,756.13,1364.434,756.13z"/>
	<path d="M1396.072,767.729c-0.92,4.599-4.16,7.038-8.84,7.038c-6.598,0-9.718-4.599-9.918-10.878c0-6.238,4.08-10.758,9.719-10.758
		c7.318,0,9.559,6.839,9.358,11.838h-15.478c-0.12,3.6,1.92,6.799,6.439,6.799c2.839,0,4.759-1.32,5.359-4.039H1396.072z
		 M1392.792,761.969c-0.2-3.239-2.56-5.839-5.959-5.839c-3.519,0-5.719,2.64-5.919,5.839H1392.792z"/>
	<path d="M1429.512,774.287h-3.4v-2.8h-0.08c-1.119,2.28-3.719,3.279-6.599,3.279c-6.358,0-9.519-5.039-9.519-10.878
		s3.119-10.758,9.438-10.758c2.08,0,5.199,0.8,6.679,3.239h0.08v-10.639h3.4V774.287z M1419.912,771.768
		c4.6,0,6.319-3.959,6.319-7.799c0-4.039-1.839-7.839-6.519-7.839c-4.639,0-6.199,3.96-6.199,7.999
		C1413.514,768.008,1415.514,771.768,1419.912,771.768z"/>
	<path d="M1443.672,753.131c6.56,0,10.039,4.759,10.039,10.838c0,6.039-3.479,10.798-10.039,10.798
		c-6.559,0-10.037-4.759-10.037-10.798C1433.635,757.89,1437.113,753.131,1443.672,753.131z M1443.672,771.768
		c3.561,0,6.439-2.8,6.439-7.799s-2.879-7.839-6.439-7.839c-3.559,0-6.438,2.84-6.438,7.839S1440.113,771.768,1443.672,771.768z"/>
	<path d="M1471.751,760.249c-0.521-2.599-2.28-4.119-5.119-4.119c-4.919,0-6.438,3.92-6.438,8.079c0,3.839,1.719,7.559,6.039,7.559
		c3.318,0,5.238-1.88,5.679-5.039h3.479c-0.76,5.079-3.879,8.038-9.119,8.038c-6.318,0-9.678-4.358-9.678-10.558
		s3.199-11.078,9.758-11.078c4.72,0,8.398,2.199,8.919,7.118H1471.751z"/>
	<path d="M1496.311,774.287h-3.2v-3.279h-0.079c-1.44,2.56-3.721,3.759-6.72,3.759c-5.438,0-7.118-3.119-7.118-7.559V753.61h3.398
		v13.998c0,2.56,1.6,4.159,4.199,4.159c4.12,0,6.119-2.76,6.119-6.479V753.61h3.4V774.287z"/>
	<path d="M1501.433,753.61h3.199v3.04h0.08c1.56-2.36,3.76-3.52,6.679-3.52c2.561,0,4.84,0.96,5.68,3.52
		c1.399-2.24,3.799-3.52,6.479-3.52c4.119,0,6.879,1.72,6.879,5.999v15.157h-3.399v-13.558c0-2.56-0.68-4.6-3.999-4.6
		c-3.32,0-5.399,2.08-5.399,5.279v12.878h-3.399v-13.558c0-2.68-0.84-4.6-3.879-4.6c-4,0-5.52,3.68-5.52,5.279v12.878h-3.399V753.61
		z"/>
	<path d="M1553.189,767.729c-0.92,4.599-4.159,7.038-8.838,7.038c-6.6,0-9.719-4.599-9.918-10.878
		c0-6.238,4.078-10.758,9.718-10.758c7.319,0,9.558,6.839,9.358,11.838h-15.478c-0.12,3.6,1.92,6.799,6.438,6.799
		c2.84,0,4.76-1.32,5.359-4.039H1553.189z M1549.91,761.969c-0.199-3.239-2.56-5.839-5.959-5.839c-3.52,0-5.719,2.64-5.919,5.839
		H1549.91z"/>
	<path d="M1557.032,753.61h3.199v3.279h0.08c1.44-2.56,3.72-3.759,6.72-3.759c5.438,0,7.118,3.119,7.118,7.559v13.598h-3.399
		v-13.998c0-2.56-1.6-4.159-4.199-4.159c-4.119,0-6.119,2.76-6.119,6.479v11.678h-3.399V753.61z"/>
	<path d="M1583.992,753.61h4.119v3h-4.119v12.838c0,1.6,0.439,1.84,2.559,1.84h1.561v2.999h-2.6c-3.52,0-4.92-0.72-4.92-4.52V756.61
		h-3.52v-3h3.52v-6.198h3.4V753.61z"/>
	<path d="M1609.51,767.729c-0.92,4.599-4.16,7.038-8.84,7.038c-6.598,0-9.718-4.599-9.918-10.878c0-6.238,4.08-10.758,9.719-10.758
		c7.318,0,9.559,6.839,9.358,11.838h-15.478c-0.12,3.6,1.92,6.799,6.439,6.799c2.839,0,4.759-1.32,5.359-4.039H1609.51z
		 M1606.229,761.969c-0.2-3.239-2.56-5.839-5.959-5.839c-3.519,0-5.719,2.64-5.919,5.839H1606.229z"/>
	<path d="M1631.828,774.287h-3.398v-2.8h-0.08c-1.121,2.28-3.72,3.279-6.6,3.279c-6.359,0-9.518-5.039-9.518-10.878
		s3.119-10.758,9.438-10.758c2.08,0,5.199,0.8,6.68,3.239h0.08v-10.639h3.398V774.287z M1622.23,771.768
		c4.599,0,6.318-3.959,6.318-7.799c0-4.039-1.84-7.839-6.519-7.839c-4.64,0-6.199,3.96-6.199,7.999
		C1615.831,768.008,1617.831,771.768,1622.23,771.768z"/>
	<path d="M1651.791,749.892h-3.399v-4.16h3.399V749.892z M1648.392,753.61h3.399v20.677h-3.399V753.61z"/>
	<path d="M1657.07,753.61h3.2v3.279h0.079c1.44-2.56,3.721-3.759,6.72-3.759c5.438,0,7.118,3.119,7.118,7.559v13.598h-3.398v-13.998
		c0-2.56-1.6-4.159-4.199-4.159c-4.12,0-6.119,2.76-6.119,6.479v11.678h-3.4V753.61z"/>
	<path d="M1695.15,753.61h4.119v3h-4.119v12.838c0,1.6,0.439,1.84,2.559,1.84h1.561v2.999h-2.6c-3.52,0-4.92-0.72-4.92-4.52V756.61
		h-3.52v-3h3.52v-6.198h3.4V753.61z"/>
	<path d="M1703.03,745.731h3.399v10.919h0.08c1.08-2.52,4.079-3.52,6.52-3.52c5.438,0,7.118,3.119,7.118,7.559v13.598h-3.399
		v-13.998c0-2.56-1.6-4.159-4.199-4.159c-4.119,0-6.119,2.76-6.119,6.479v11.678h-3.399V745.731z"/>
	<path d="M1742.908,767.729c-0.92,4.599-4.16,7.038-8.84,7.038c-6.598,0-9.718-4.599-9.918-10.878c0-6.238,4.08-10.758,9.719-10.758
		c7.318,0,9.559,6.839,9.358,11.838h-15.478c-0.12,3.6,1.92,6.799,6.439,6.799c2.839,0,4.759-1.32,5.359-4.039H1742.908z
		 M1739.628,761.969c-0.2-3.239-2.56-5.839-5.959-5.839c-3.519,0-5.719,2.64-5.919,5.839H1739.628z"/>
	<path d="M1294.955,797.731h4.199l11.158,28.556h-4.199l-3.119-8.599h-12.078l-3.199,8.599h-3.92L1294.955,797.731z
		 M1292.115,814.489h9.679l-4.759-13.318h-0.08L1292.115,814.489z"/>
	<path d="M1326.594,812.249c-0.52-2.599-2.279-4.119-5.119-4.119c-4.918,0-6.438,3.92-6.438,8.079c0,3.839,1.72,7.559,6.039,7.559
		c3.319,0,5.239-1.88,5.679-5.039h3.48c-0.761,5.079-3.88,8.038-9.119,8.038c-6.318,0-9.678-4.358-9.678-10.558
		s3.199-11.078,9.758-11.078c4.719,0,8.398,2.199,8.918,7.118H1326.594z"/>
	<path d="M1338.756,805.61h4.119v3h-4.119v12.838c0,1.6,0.439,1.84,2.559,1.84h1.561v2.999h-2.6c-3.52,0-4.92-0.72-4.92-4.52V808.61
		h-3.52v-3h3.52v-6.198h3.4V805.61z"/>
	<path d="M1350.235,801.892h-3.399v-4.16h3.399V801.892z M1346.836,805.61h3.399v20.677h-3.399V805.61z"/>
	<path d="M1364.434,805.131c6.559,0,10.039,4.759,10.039,10.838c0,6.039-3.48,10.798-10.039,10.798s-10.038-4.759-10.038-10.798
		C1354.396,809.89,1357.875,805.131,1364.434,805.131z M1364.434,823.768c3.56,0,6.439-2.8,6.439-7.799s-2.88-7.839-6.439-7.839
		s-6.439,2.84-6.439,7.839S1360.874,823.768,1364.434,823.768z"/>
	<path d="M1378.475,805.61h3.199v3.279h0.08c1.439-2.56,3.72-3.759,6.719-3.759c5.439,0,7.119,3.119,7.119,7.559v13.598h-3.399
		v-13.998c0-2.56-1.6-4.159-4.199-4.159c-4.12,0-6.119,2.76-6.119,6.479v11.678h-3.399V805.61z"/>
	<path d="M1411.955,805.61h3.399v2.8h0.08c1.12-2.279,3.72-3.279,6.599-3.279c6.359,0,9.519,5.039,9.519,10.878
		c0,5.879-3.12,10.758-9.438,10.758c-2.08,0-5.199-0.8-6.679-3.239h-0.08v10.679h-3.399V805.61z M1421.553,808.13
		c-4.599,0-6.318,3.96-6.318,7.799c0,4.039,1.84,7.839,6.52,7.839c4.639,0,6.198-3.959,6.198-7.999
		C1427.952,811.89,1425.953,808.13,1421.553,808.13z"/>
	<path d="M1435.755,797.731h3.399v28.556h-3.399V797.731z"/>
	<path d="M1462.751,826.207c-0.601,0.36-1.44,0.56-2.439,0.56c-1.76,0-2.88-0.959-2.88-3.199c-1.879,2.24-4.398,3.199-7.278,3.199
		c-3.76,0-6.839-1.64-6.839-5.799c0-4.679,3.479-5.719,6.998-6.358c3.72-0.76,6.959-0.44,6.959-3.04
		c0-2.999-2.479-3.439-4.599-3.439c-2.88,0-4.999,0.88-5.159,3.92h-3.399c0.2-5.119,4.119-6.919,8.759-6.919
		c3.719,0,7.758,0.84,7.758,5.679v10.639c0,1.6,0,2.319,1.08,2.319c0.32,0,0.68-0.08,1.04-0.2V826.207z M1457.232,815.609
		c-2.641,1.959-10.318,0.039-10.318,5.119c0,2.239,1.92,3.039,3.999,3.039c4.479,0,6.319-2.76,6.319-4.68V815.609z"/>
	<path d="M1465.914,805.61h3.199v3.279h0.08c1.439-2.56,3.719-3.759,6.719-3.759c5.439,0,7.119,3.119,7.119,7.559v13.598h-3.4
		v-13.998c0-2.56-1.6-4.159-4.199-4.159c-4.119,0-6.119,2.76-6.119,6.479v11.678h-3.398V805.61z"/>
</g>
<g>
	<path d="M322.541,527.516l-6.487,6.487c-0.858,0.858-2.051,1.335-3.244,1.335c-1.192,0-2.385-0.477-3.243-1.335l-14.023-14.024
		l-14.023,14.024c-0.858,0.858-2.051,1.335-3.243,1.335c-1.193,0-2.386-0.477-3.244-1.335l-6.487-6.487
		c-0.858-0.858-1.335-2.051-1.335-3.244c0-1.192,0.477-2.385,1.335-3.243l14.023-14.023l-14.023-14.023
		c-0.858-0.858-1.335-2.051-1.335-3.243c0-1.193,0.477-2.386,1.335-3.244l6.487-6.487c0.858-0.858,2.051-1.335,3.244-1.335
		c1.192,0,2.385,0.477,3.243,1.335l14.023,14.024l14.023-14.024c0.858-0.858,2.051-1.335,3.243-1.335
		c1.193,0,2.386,0.477,3.244,1.335l6.487,6.487c0.858,0.858,1.335,2.051,1.335,3.244c0,1.192-0.477,2.385-1.335,3.243
		l-14.023,14.023l14.023,14.023c0.858,0.858,1.335,2.051,1.335,3.243C323.876,525.465,323.399,526.657,322.541,527.516z"/>
</g>
<rect x="258.96" y="349.882" fill="none" stroke="#000000" stroke-miterlimit="10" width="77.186" height="77.186"/>
<g>
	<path d="M372.961,490.781h5.199l8.999,23.996l9.039-23.996h5.199v28.556h-3.6v-23.756h-0.08l-8.918,23.756h-3.239l-8.918-23.756
		h-0.08v23.756h-3.599V490.781z"/>
	<path d="M424.798,512.777c-0.92,4.6-4.16,7.039-8.839,7.039c-6.599,0-9.718-4.599-9.918-10.878c0-6.239,4.079-10.758,9.718-10.758
		c7.319,0,9.558,6.839,9.358,11.838H409.64c-0.12,3.599,1.92,6.799,6.439,6.799c2.839,0,4.759-1.32,5.359-4.04H424.798z
		 M421.518,507.019c-0.2-3.239-2.56-5.839-5.959-5.839c-3.519,0-5.719,2.64-5.919,5.839H421.518z"/>
	<path d="M447.117,519.337h-3.399v-2.8h-0.08c-1.12,2.279-3.719,3.279-6.599,3.279c-6.359,0-9.518-5.039-9.518-10.878
		s3.119-10.758,9.438-10.758c2.08,0,5.199,0.8,6.679,3.24h0.08v-10.639h3.399V519.337z M437.519,516.817
		c4.599,0,6.319-3.96,6.319-7.799c0-4.039-1.839-7.839-6.519-7.839c-4.639,0-6.199,3.959-6.199,7.999
		C431.12,513.058,433.12,516.817,437.519,516.817z"/>
	<path d="M455.959,494.94h-3.399v-4.159h3.399V494.94z M452.56,498.66h3.399v20.677h-3.399V498.66z"/>
	<path d="M478.356,519.337h-3.2v-3.279h-0.08c-1.44,2.56-3.72,3.759-6.719,3.759c-5.439,0-7.119-3.119-7.119-7.559V498.66h3.399
		v13.999c0,2.56,1.6,4.159,4.199,4.159c4.12,0,6.119-2.76,6.119-6.479V498.66h3.399V519.337z"/>
	<path d="M483.479,498.66h3.199v3.04h0.08c1.56-2.359,3.76-3.519,6.679-3.519c2.56,0,4.839,0.959,5.679,3.519
		c1.4-2.239,3.799-3.519,6.479-3.519c4.119,0,6.879,1.72,6.879,6v15.157h-3.399v-13.558c0-2.56-0.68-4.6-4-4.6
		c-3.319,0-5.399,2.08-5.399,5.279v12.878h-3.399v-13.558c0-2.68-0.84-4.6-3.879-4.6c-4,0-5.519,3.68-5.519,5.279v12.878h-3.399
		V498.66z"/>
	<path d="M529.439,490.781h3.799v28.556h-3.799V490.781z"/>
	<path d="M539.079,498.66h3.199v3.04h0.08c1.56-2.359,3.76-3.519,6.679-3.519c2.56,0,4.839,0.959,5.679,3.519
		c1.4-2.239,3.799-3.519,6.479-3.519c4.119,0,6.879,1.72,6.879,6v15.157h-3.399v-13.558c0-2.56-0.68-4.6-4-4.6
		c-3.319,0-5.399,2.08-5.399,5.279v12.878h-3.399v-13.558c0-2.68-0.84-4.6-3.879-4.6c-4,0-5.519,3.68-5.519,5.279v12.878h-3.399
		V498.66z"/>
	<path d="M573.319,498.66h3.399v2.8h0.08c1.12-2.28,3.719-3.28,6.599-3.28c6.359,0,9.519,5.04,9.519,10.878
		c0,5.879-3.12,10.758-9.438,10.758c-2.08,0-5.199-0.8-6.679-3.239h-0.08v10.678h-3.399V498.66z M582.917,501.18
		c-4.599,0-6.319,3.959-6.319,7.799c0,4.039,1.84,7.839,6.519,7.839c4.639,0,6.199-3.96,6.199-7.999
		C589.316,504.939,587.316,501.18,582.917,501.18z"/>
	<path d="M615.235,519.257c-0.6,0.359-1.44,0.56-2.439,0.56c-1.76,0-2.879-0.96-2.879-3.199c-1.88,2.239-4.399,3.199-7.279,3.199
		c-3.76,0-6.839-1.64-6.839-5.799c0-4.68,3.479-5.719,6.999-6.359c3.72-0.76,6.959-0.439,6.959-3.039
		c0-2.999-2.479-3.439-4.599-3.439c-2.88,0-5,0.88-5.159,3.919h-3.399c0.2-5.119,4.119-6.918,8.758-6.918
		c3.72,0,7.759,0.84,7.759,5.679v10.638c0,1.601,0,2.32,1.08,2.32c0.32,0,0.68-0.08,1.04-0.2V519.257z M609.716,508.658
		c-2.64,1.96-10.318,0.04-10.318,5.119c0,2.24,1.92,3.04,4,3.04c4.479,0,6.319-2.76,6.319-4.68V508.658z"/>
	<path d="M632.436,505.299c-0.52-2.6-2.28-4.119-5.119-4.119c-4.919,0-6.439,3.919-6.439,8.079c0,3.839,1.72,7.559,6.039,7.559
		c3.319,0,5.239-1.88,5.679-5.039h3.479c-0.76,5.079-3.879,8.038-9.119,8.038c-6.319,0-9.678-4.359-9.678-10.558
		c0-6.199,3.199-11.079,9.758-11.079c4.719,0,8.398,2.2,8.918,7.119H632.436z"/>
	<path d="M644.597,498.66h4.119v3h-4.119v12.838c0,1.601,0.44,1.84,2.56,1.84h1.56v3h-2.6c-3.519,0-4.919-0.72-4.919-4.52v-13.158
		h-3.52v-3h3.52v-6.199h3.399V498.66z"/>
</g>
<rect x="258.96" y="470.159" fill="none" stroke="#000000" stroke-miterlimit="10" width="77.186" height="77.185"/>
<g>
	<path d="M372.884,611.022h3.799v25.355H391.8v3.199h-18.917V611.022z"/>
	<path d="M403.482,618.421c6.559,0,10.039,4.759,10.039,10.838c0,6.039-3.479,10.799-10.039,10.799s-10.038-4.76-10.038-10.799
		C393.444,623.18,396.923,618.421,403.482,618.421z M403.482,637.058c3.56,0,6.439-2.8,6.439-7.799s-2.879-7.838-6.439-7.838
		s-6.439,2.839-6.439,7.838S399.923,637.058,403.482,637.058z"/>
	<path d="M438,639.577h-3.6l-4.199-16.437h-0.08l-4.159,16.437h-3.679l-6.639-20.677h3.76l4.679,16.918h0.08l4.16-16.918h3.719
		l4.319,16.918h0.08l4.639-16.918h3.52L438,639.577z"/>
	<path d="M459.683,611.022h3.799v28.555h-3.799V611.022z"/>
	<path d="M469.323,618.9h3.199v3.04h0.08c1.56-2.359,3.76-3.52,6.679-3.52c2.56,0,4.839,0.96,5.679,3.52
		c1.4-2.239,3.799-3.52,6.479-3.52c4.119,0,6.879,1.72,6.879,5.999v15.157h-3.399V626.02c0-2.56-0.68-4.599-4-4.599
		c-3.319,0-5.399,2.079-5.399,5.278v12.878h-3.399V626.02c0-2.68-0.84-4.599-3.879-4.599c-4,0-5.519,3.679-5.519,5.278v12.878
		h-3.399V618.9z"/>
	<path d="M503.563,618.9h3.399v2.8h0.08c1.12-2.279,3.719-3.279,6.599-3.279c6.359,0,9.519,5.039,9.519,10.878
		c0,5.879-3.12,10.759-9.438,10.759c-2.08,0-5.199-0.8-6.679-3.24h-0.08v10.679h-3.399V618.9z M513.161,621.421
		c-4.599,0-6.319,3.959-6.319,7.798c0,4.04,1.84,7.839,6.519,7.839c4.639,0,6.199-3.959,6.199-7.998
		C519.56,625.18,517.561,621.421,513.161,621.421z"/>
	<path d="M545.479,639.497c-0.6,0.36-1.44,0.561-2.439,0.561c-1.76,0-2.879-0.96-2.879-3.2c-1.88,2.24-4.399,3.2-7.279,3.2
		c-3.76,0-6.839-1.64-6.839-5.8c0-4.679,3.479-5.719,6.999-6.358c3.72-0.76,6.959-0.44,6.959-3.039c0-3-2.479-3.439-4.599-3.439
		c-2.88,0-5,0.88-5.159,3.919h-3.399c0.2-5.119,4.119-6.919,8.758-6.919c3.72,0,7.759,0.84,7.759,5.679v10.639
		c0,1.6,0,2.319,1.08,2.319c0.32,0,0.68-0.08,1.04-0.2V639.497z M539.96,628.899c-2.64,1.959-10.318,0.04-10.318,5.119
		c0,2.239,1.92,3.039,4,3.039c4.479,0,6.319-2.76,6.319-4.679V628.899z"/>
	<path d="M562.68,625.54c-0.52-2.6-2.28-4.119-5.119-4.119c-4.919,0-6.439,3.919-6.439,8.078c0,3.84,1.72,7.559,6.039,7.559
		c3.319,0,5.239-1.88,5.679-5.039h3.479c-0.76,5.079-3.879,8.039-9.119,8.039c-6.319,0-9.678-4.359-9.678-10.559
		s3.199-11.078,9.758-11.078c4.719,0,8.398,2.199,8.918,7.119H562.68z"/>
	<path d="M574.841,618.9h4.119v3h-4.119v12.838c0,1.6,0.44,1.84,2.56,1.84h1.56v2.999h-2.6c-3.519,0-4.919-0.72-4.919-4.519V621.9
		h-3.52v-3h3.52v-6.198h3.399V618.9z"/>
</g>
<rect x="258.96" y="590.4" fill="none" stroke="#000000" stroke-miterlimit="10" width="77.186" height="77.186"/>
</svg>
