<?xml version="1.0" encoding="utf-8"?>
<!-- Generator: Adobe Illustrator 19.2.0, SVG Export Plug-In . SVG Version: 6.00 Build 0)  -->
<svg version="1.1" id="Layer_1" xmlns="http://www.w3.org/2000/svg" xmlns:xlink="http://www.w3.org/1999/xlink" x="0px" y="0px"
	 viewBox="0 0 2048 1000" style="enable-background:new 0 0 2048 1000;" xml:space="preserve">
<style type="text/css">
	.st0{fill:#B9E5FB;}
	.st1{fill:#4EA8DE;}
	.st2{fill:#116BB4;}
	.st3{fill:#FFFFFF;}
	.st4{fill:#2C5871;}
	.st5{fill:#D1ECFB;}
	.st6{fill:none;stroke:#343636;stroke-width:3.7584;stroke-miterlimit:10;}
	.st7{fill:#333333;}
	.st8{enable-background:new    ;}
	.st9{fill:none;stroke:#343636;stroke-width:4.7552;stroke-miterlimit:10;}
	.st10{fill:#89C240;}
	.st11{fill:none;}
	.st12{fill:#074164;stroke:#FFFFFF;stroke-width:2;stroke-miterlimit:10;}
	.st13{fill:#8CC63F;}
	.st14{fill:#173E68;}
	.st15{fill:#EFEFF0;}
	.st16{fill:#231F20;}
	.st17{clip-path:url(#SVGID_2_);fill:#E3CCA4;}
	.st18{clip-path:url(#SVGID_2_);fill:#D4C5A3;}
	.st19{clip-path:url(#SVGID_2_);fill:#CCBC97;}
	.st20{clip-path:url(#SVGID_2_);fill:#ECF0F1;}
	.st21{clip-path:url(#SVGID_2_);fill:#2C3E50;}
	.st22{clip-path:url(#SVGID_2_);fill:#7D7662;}
	.st23{clip-path:url(#SVGID_2_);fill:#FFE7BD;}
	.st24{clip-path:url(#SVGID_2_);fill:#E8D6AC;}
</style>
<rect class="st0" width="2048" height="1000"/>
<rect class="st1" width="762.9" height="1000"/>
<rect x="1" y="784.4" class="st2" width="2047" height="215.6"/>
<g>
	<g>
		<g>
			<polygon class="st3" points="1815,751 1815,450.5 1815,254.1 1660,113.3 951.4,113.3 951.4,751 			"/>
			<g>
				<polygon class="st4" points="1660,254.1 1815,254.1 1660,113.3 				"/>
				<polygon class="st5" points="1815,254.1 1660,254.1 1815,394.8 				"/>
			</g>
		</g>
	</g>
</g>
<line class="st6" x1="806.5" y1="41.2" x2="1946.5" y2="41.2"/>
<g>
	<g>
		<path class="st7" d="M1005.4,182.9c4,0,7.2,3.2,7.2,7.1c0,4-3.2,7.2-7.2,7.2c-4,0-7.1-3.2-7.1-7.2
			C998.3,186,1001.4,182.9,1005.4,182.9z"/>
		<path class="st7" d="M1047.2,178.9h-9.5v-3.2h22.8v3.2h-9.5v25.4h-3.8V178.9z"/>
		<path class="st7" d="M1063.2,175.7h3.4v10.9h0.1c1.1-2.5,4.1-3.5,6.5-3.5c5.4,0,7.1,3.1,7.1,7.6v13.6h-3.4v-14
			c0-2.6-1.6-4.2-4.2-4.2c-4.1,0-6.1,2.8-6.1,6.5v11.7h-3.4V175.7z"/>
		<path class="st7" d="M1103,197.7c-0.9,4.6-4.2,7-8.8,7c-6.6,0-9.7-4.6-9.9-10.9c0-6.2,4.1-10.8,9.7-10.8c7.3,0,9.6,6.8,9.4,11.8
			h-15.5c-0.1,3.6,1.9,6.8,6.4,6.8c2.8,0,4.8-1.3,5.4-4H1103z M1099.8,191.9c-0.2-3.2-2.6-5.8-6-5.8c-3.5,0-5.7,2.6-5.9,5.8H1099.8z
			"/>
		<path class="st7" d="M1138.6,184.3c-0.8-4-4-6.1-8-6.1c-6.8,0-9.7,5.6-9.7,11.6c0,6.5,2.9,12,9.7,12c5,0,7.9-3.5,8.2-8.2h3.8
			c-0.8,7.2-5.1,11.4-12.4,11.4c-8.8,0-13.2-6.6-13.2-14.9c0-8.3,4.7-15,13.5-15c6,0,10.9,3.2,11.8,9.3H1138.6z"/>
		<path class="st7" d="M1146.9,175.7h3.4v10.9h0.1c1.1-2.5,4.1-3.5,6.5-3.5c5.4,0,7.1,3.1,7.1,7.6v13.6h-3.4v-14
			c0-2.6-1.6-4.2-4.2-4.2c-4.1,0-6.1,2.8-6.1,6.5v11.7h-3.4V175.7z"/>
		<path class="st7" d="M1187.4,204.2c-0.6,0.4-1.4,0.6-2.4,0.6c-1.8,0-2.9-1-2.9-3.2c-1.9,2.2-4.4,3.2-7.3,3.2
			c-3.8,0-6.8-1.6-6.8-5.8c0-4.7,3.5-5.7,7-6.4c3.7-0.8,7-0.4,7-3c0-3-2.5-3.4-4.6-3.4c-2.9,0-5,0.9-5.2,3.9h-3.4
			c0.2-5.1,4.1-6.9,8.8-6.9c3.7,0,7.8,0.8,7.8,5.7v10.6c0,1.6,0,2.3,1.1,2.3c0.3,0,0.7-0.1,1-0.2V204.2z M1181.9,193.6
			c-2.6,2-10.3,0-10.3,5.1c0,2.2,1.9,3,4,3c4.5,0,6.3-2.8,6.3-4.7V193.6z"/>
		<path class="st7" d="M1190.6,183.6h3.2v3.3h0.1c1.4-2.6,3.7-3.8,6.7-3.8c5.4,0,7.1,3.1,7.1,7.6v13.6h-3.4v-14
			c0-2.6-1.6-4.2-4.2-4.2c-4.1,0-6.1,2.8-6.1,6.5v11.7h-3.4V183.6z"/>
		<path class="st7" d="M1230.7,202.5c0,6.8-3,10.2-9.6,10.2c-3.9,0-8.4-1.6-8.6-6.1h3.4c0.1,2.4,3.2,3.4,5.4,3.4
			c4.4,0,6.2-3.2,6.2-7.8v-1.4h-0.1c-1.2,2.5-3.8,3.8-6.4,3.8c-6.2,0-9.2-4.8-9.2-10.5c0-4.9,2.4-10.9,9.6-10.9
			c2.6,0,4.9,1.2,6.2,3.4h0v-3h3.2V202.5z M1227.3,193.5c0-3.6-1.6-7.4-5.9-7.4c-4.4,0-6.1,3.6-6.1,7.5c0,3.7,1.4,7.9,5.8,7.9
			C1225.6,201.5,1227.3,197.4,1227.3,193.5z"/>
		<path class="st7" d="M1253.4,197.7c-0.9,4.6-4.2,7-8.8,7c-6.6,0-9.7-4.6-9.9-10.9c0-6.2,4.1-10.8,9.7-10.8c7.3,0,9.6,6.8,9.4,11.8
			h-15.5c-0.1,3.6,1.9,6.8,6.4,6.8c2.8,0,4.8-1.3,5.4-4H1253.4z M1250.2,191.9c-0.2-3.2-2.6-5.8-6-5.8c-3.5,0-5.7,2.6-5.9,5.8
			H1250.2z"/>
		<path class="st7" d="M1289,184.3c-0.8-4-4-6.1-8-6.1c-6.8,0-9.7,5.6-9.7,11.6c0,6.5,2.9,12,9.7,12c5,0,7.9-3.5,8.2-8.2h3.8
			c-0.8,7.2-5.1,11.4-12.4,11.4c-8.8,0-13.2-6.6-13.2-14.9c0-8.3,4.7-15,13.5-15c6,0,10.9,3.2,11.8,9.3H1289z"/>
		<path class="st7" d="M1306.2,183.1c6.6,0,10,4.8,10,10.8c0,6-3.5,10.8-10,10.8s-10-4.8-10-10.8
			C1296.2,187.9,1299.6,183.1,1306.2,183.1z M1306.2,201.7c3.6,0,6.4-2.8,6.4-7.8s-2.9-7.8-6.4-7.8s-6.4,2.8-6.4,7.8
			S1302.6,201.7,1306.2,201.7z"/>
		<path class="st7" d="M1329.2,183.1c6.6,0,10,4.8,10,10.8c0,6-3.5,10.8-10,10.8c-6.6,0-10-4.8-10-10.8
			C1319.1,187.9,1322.6,183.1,1329.2,183.1z M1329.2,201.7c3.6,0,6.4-2.8,6.4-7.8s-2.9-7.8-6.4-7.8c-3.6,0-6.4,2.8-6.4,7.8
			S1325.6,201.7,1329.2,201.7z"/>
		<path class="st7" d="M1343.1,183.6h3.2v4.4h0.1c1.6-3.4,3.9-5,7.6-4.8v3.6c-5.5,0-7.5,3.1-7.5,8.4v9.2h-3.4V183.6z"/>
		<path class="st7" d="M1375,204.3h-3.4v-2.8h-0.1c-1.1,2.3-3.7,3.3-6.6,3.3c-6.4,0-9.5-5-9.5-10.9c0-5.8,3.1-10.8,9.4-10.8
			c2.1,0,5.2,0.8,6.7,3.2h0.1v-10.6h3.4V204.3z M1365.4,201.7c4.6,0,6.3-4,6.3-7.8c0-4-1.8-7.8-6.5-7.8c-4.6,0-6.2,4-6.2,8
			C1359,198,1361,201.7,1365.4,201.7z"/>
		<path class="st7" d="M1383.8,179.9h-3.4v-4.2h3.4V179.9z M1380.4,183.6h3.4v20.7h-3.4V183.6z"/>
		<path class="st7" d="M1389.1,183.6h3.2v3.3h0.1c1.4-2.6,3.7-3.8,6.7-3.8c5.4,0,7.1,3.1,7.1,7.6v13.6h-3.4v-14
			c0-2.6-1.6-4.2-4.2-4.2c-4.1,0-6.1,2.8-6.1,6.5v11.7h-3.4V183.6z"/>
		<path class="st7" d="M1429.7,204.2c-0.6,0.4-1.4,0.6-2.4,0.6c-1.8,0-2.9-1-2.9-3.2c-1.9,2.2-4.4,3.2-7.3,3.2
			c-3.8,0-6.8-1.6-6.8-5.8c0-4.7,3.5-5.7,7-6.4c3.7-0.8,7-0.4,7-3c0-3-2.5-3.4-4.6-3.4c-2.9,0-5,0.9-5.2,3.9h-3.4
			c0.2-5.1,4.1-6.9,8.8-6.9c3.7,0,7.8,0.8,7.8,5.7v10.6c0,1.6,0,2.3,1.1,2.3c0.3,0,0.7-0.1,1-0.2V204.2z M1424.2,193.6
			c-2.6,2-10.3,0-10.3,5.1c0,2.2,1.9,3,4,3c4.5,0,6.3-2.8,6.3-4.7V193.6z"/>
		<path class="st7" d="M1437.6,183.6h4.1v3h-4.1v12.8c0,1.6,0.4,1.8,2.6,1.8h1.6v3h-2.6c-3.5,0-4.9-0.7-4.9-4.5v-13.2h-3.5v-3h3.5
			v-6.2h3.4V183.6z"/>
		<path class="st7" d="M1454.4,183.1c6.6,0,10,4.8,10,10.8c0,6-3.5,10.8-10,10.8c-6.6,0-10-4.8-10-10.8
			C1444.3,187.9,1447.8,183.1,1454.4,183.1z M1454.4,201.7c3.6,0,6.4-2.8,6.4-7.8s-2.9-7.8-6.4-7.8c-3.6,0-6.4,2.8-6.4,7.8
			S1450.8,201.7,1454.4,201.7z"/>
		<path class="st7" d="M1468.3,183.6h3.2v4.4h0.1c1.6-3.4,3.9-5,7.6-4.8v3.6c-5.5,0-7.5,3.1-7.5,8.4v9.2h-3.4V183.6z"/>
		<path class="st7" d="M1042.8,231.6h3.2v4.4h0.1c1.6-3.4,3.9-5,7.6-4.8v3.6c-5.5,0-7.5,3.1-7.5,8.4v9.2h-3.4V231.6z"/>
		<path class="st7" d="M1073.9,245.7c-0.9,4.6-4.2,7-8.8,7c-6.6,0-9.7-4.6-9.9-10.9c0-6.2,4.1-10.8,9.7-10.8c7.3,0,9.6,6.8,9.4,11.8
			h-15.5c-0.1,3.6,1.9,6.8,6.4,6.8c2.8,0,4.8-1.3,5.4-4H1073.9z M1070.6,239.9c-0.2-3.2-2.6-5.8-6-5.8c-3.5,0-5.7,2.6-5.9,5.8
			H1070.6z"/>
		<path class="st7" d="M1087.1,252.3h-3.6l-7.7-20.7h3.8l5.8,17.2h0.1l5.6-17.2h3.6L1087.1,252.3z"/>
		<path class="st7" d="M1101.4,227.9h-3.4v-4.2h3.4V227.9z M1098,231.6h3.4v20.7h-3.4V231.6z"/>
		<path class="st7" d="M1124.3,245.7c-0.9,4.6-4.2,7-8.8,7c-6.6,0-9.7-4.6-9.9-10.9c0-6.2,4.1-10.8,9.7-10.8c7.3,0,9.6,6.8,9.4,11.8
			h-15.5c-0.1,3.6,1.9,6.8,6.4,6.8c2.8,0,4.8-1.3,5.4-4H1124.3z M1121,239.9c-0.2-3.2-2.6-5.8-6-5.8c-3.5,0-5.7,2.6-5.9,5.8H1121z"
			/>
		<path class="st7" d="M1148.6,252.3h-3.6l-4.2-16.4h-0.1l-4.2,16.4h-3.7l-6.6-20.7h3.8l4.7,16.9h0.1l4.2-16.9h3.7l4.3,16.9h0.1
			l4.6-16.9h3.5L1148.6,252.3z"/>
		<path class="st7" d="M1160.5,245.7c0.1,3,2.8,4,5.6,4c2.1,0,5-0.5,5-3.1c0-5.3-13.5-1.7-13.5-9.7c0-4.2,4.1-5.9,7.7-5.9
			c4.6,0,8.2,1.4,8.5,6.5h-3.4c-0.2-2.6-2.6-3.5-4.8-3.5c-2,0-4.4,0.6-4.4,2.6c0,2.4,3.6,2.9,6.8,3.6c3.4,0.8,6.8,1.9,6.8,5.9
			c0,5-4.6,6.5-8.8,6.5c-4.6,0-8.6-1.9-8.8-7H1160.5z"/>
		<path class="st7" d="M1207.9,252.2c-0.6,0.4-1.4,0.6-2.4,0.6c-1.8,0-2.9-1-2.9-3.2c-1.9,2.2-4.4,3.2-7.3,3.2
			c-3.8,0-6.8-1.6-6.8-5.8c0-4.7,3.5-5.7,7-6.4c3.7-0.8,7-0.4,7-3c0-3-2.5-3.4-4.6-3.4c-2.9,0-5,0.9-5.2,3.9h-3.4
			c0.2-5.1,4.1-6.9,8.8-6.9c3.7,0,7.8,0.8,7.8,5.7v10.6c0,1.6,0,2.3,1.1,2.3c0.3,0,0.7-0.1,1-0.2V252.2z M1202.4,241.6
			c-2.6,2-10.3,0-10.3,5.1c0,2.2,1.9,3,4,3c4.5,0,6.3-2.8,6.3-4.7V241.6z"/>
		<path class="st7" d="M1211.2,223.7h3.4v28.6h-3.4V223.7z"/>
		<path class="st7" d="M1220.1,223.7h3.4v28.6h-3.4V223.7z"/>
		<path class="st7" d="M1239.8,231.6h3.2v4.4h0.1c1.6-3.4,3.9-5,7.6-4.8v3.6c-5.5,0-7.5,3.1-7.5,8.4v9.2h-3.4V231.6z"/>
		<path class="st7" d="M1270.9,245.7c-0.9,4.6-4.2,7-8.8,7c-6.6,0-9.7-4.6-9.9-10.9c0-6.2,4.1-10.8,9.7-10.8c7.3,0,9.6,6.8,9.4,11.8
			h-15.5c-0.1,3.6,1.9,6.8,6.4,6.8c2.8,0,4.8-1.3,5.4-4H1270.9z M1267.6,239.9c-0.2-3.2-2.6-5.8-6-5.8c-3.5,0-5.7,2.6-5.9,5.8
			H1267.6z"/>
		<path class="st7" d="M1274.9,223.7h3.4v28.6h-3.4V223.7z"/>
		<path class="st7" d="M1301.2,245.7c-0.9,4.6-4.2,7-8.8,7c-6.6,0-9.7-4.6-9.9-10.9c0-6.2,4.1-10.8,9.7-10.8c7.3,0,9.6,6.8,9.4,11.8
			h-15.5c-0.1,3.6,1.9,6.8,6.4,6.8c2.8,0,4.8-1.3,5.4-4H1301.2z M1298,239.9c-0.2-3.2-2.6-5.8-6-5.8c-3.5,0-5.7,2.6-5.9,5.8H1298z"
			/>
		<path class="st7" d="M1314.4,252.3h-3.6l-7.7-20.7h3.8l5.8,17.2h0.1l5.6-17.2h3.6L1314.4,252.3z"/>
		<path class="st7" d="M1343.4,252.2c-0.6,0.4-1.4,0.6-2.4,0.6c-1.8,0-2.9-1-2.9-3.2c-1.9,2.2-4.4,3.2-7.3,3.2
			c-3.8,0-6.8-1.6-6.8-5.8c0-4.7,3.5-5.7,7-6.4c3.7-0.8,7-0.4,7-3c0-3-2.5-3.4-4.6-3.4c-2.9,0-5,0.9-5.2,3.9h-3.4
			c0.2-5.1,4.1-6.9,8.8-6.9c3.7,0,7.8,0.8,7.8,5.7v10.6c0,1.6,0,2.3,1.1,2.3c0.3,0,0.7-0.1,1-0.2V252.2z M1337.9,241.6
			c-2.6,2-10.3,0-10.3,5.1c0,2.2,1.9,3,4,3c4.5,0,6.3-2.8,6.3-4.7V241.6z"/>
		<path class="st7" d="M1346.6,231.6h3.2v3.3h0.1c1.4-2.6,3.7-3.8,6.7-3.8c5.4,0,7.1,3.1,7.1,7.6v13.6h-3.4v-14
			c0-2.6-1.6-4.2-4.2-4.2c-4.1,0-6.1,2.8-6.1,6.5v11.7h-3.4V231.6z"/>
		<path class="st7" d="M1373.5,231.6h4.1v3h-4.1v12.8c0,1.6,0.4,1.8,2.6,1.8h1.6v3h-2.6c-3.5,0-4.9-0.7-4.9-4.5v-13.2h-3.5v-3h3.5
			v-6.2h3.4V231.6z"/>
		<path class="st7" d="M1392.5,231.6h3.2v3h0.1c1.6-2.4,3.8-3.5,6.7-3.5c2.6,0,4.8,1,5.7,3.5c1.4-2.2,3.8-3.5,6.5-3.5
			c4.1,0,6.9,1.7,6.9,6v15.2h-3.4v-13.6c0-2.6-0.7-4.6-4-4.6c-3.3,0-5.4,2.1-5.4,5.3v12.9h-3.4v-13.6c0-2.7-0.8-4.6-3.9-4.6
			c-4,0-5.5,3.7-5.5,5.3v12.9h-3.4V231.6z"/>
		<path class="st7" d="M1445,252.2c-0.6,0.4-1.4,0.6-2.4,0.6c-1.8,0-2.9-1-2.9-3.2c-1.9,2.2-4.4,3.2-7.3,3.2c-3.8,0-6.8-1.6-6.8-5.8
			c0-4.7,3.5-5.7,7-6.4c3.7-0.8,7-0.4,7-3c0-3-2.5-3.4-4.6-3.4c-2.9,0-5,0.9-5.2,3.9h-3.4c0.2-5.1,4.1-6.9,8.8-6.9
			c3.7,0,7.8,0.8,7.8,5.7v10.6c0,1.6,0,2.3,1.1,2.3c0.3,0,0.7-0.1,1-0.2V252.2z M1439.4,241.6c-2.6,2-10.3,0-10.3,5.1
			c0,2.2,1.9,3,4,3c4.5,0,6.3-2.8,6.3-4.7V241.6z"/>
		<path class="st7" d="M1452.8,231.6h4.1v3h-4.1v12.8c0,1.6,0.4,1.8,2.6,1.8h1.6v3h-2.6c-3.5,0-4.9-0.7-4.9-4.5v-13.2h-3.5v-3h3.5
			v-6.2h3.4V231.6z"/>
		<path class="st7" d="M1478.4,245.7c-0.9,4.6-4.2,7-8.8,7c-6.6,0-9.7-4.6-9.9-10.9c0-6.2,4.1-10.8,9.7-10.8c7.3,0,9.6,6.8,9.4,11.8
			h-15.5c-0.1,3.6,1.9,6.8,6.4,6.8c2.8,0,4.8-1.3,5.4-4H1478.4z M1475.1,239.9c-0.2-3.2-2.6-5.8-6-5.8c-3.5,0-5.7,2.6-5.9,5.8
			H1475.1z"/>
		<path class="st7" d="M1482.1,231.6h3.2v4.4h0.1c1.6-3.4,3.9-5,7.6-4.8v3.6c-5.5,0-7.5,3.1-7.5,8.4v9.2h-3.4V231.6z"/>
		<path class="st7" d="M1499.1,227.9h-3.4v-4.2h3.4V227.9z M1495.7,231.6h3.4v20.7h-3.4V231.6z"/>
		<path class="st7" d="M1522.7,252.2c-0.6,0.4-1.4,0.6-2.4,0.6c-1.8,0-2.9-1-2.9-3.2c-1.9,2.2-4.4,3.2-7.3,3.2
			c-3.8,0-6.8-1.6-6.8-5.8c0-4.7,3.5-5.7,7-6.4c3.7-0.8,7-0.4,7-3c0-3-2.5-3.4-4.6-3.4c-2.9,0-5,0.9-5.2,3.9h-3.4
			c0.2-5.1,4.1-6.9,8.8-6.9c3.7,0,7.8,0.8,7.8,5.7v10.6c0,1.6,0,2.3,1.1,2.3c0.3,0,0.7-0.1,1-0.2V252.2z M1517.2,241.6
			c-2.6,2-10.3,0-10.3,5.1c0,2.2,1.9,3,4,3c4.5,0,6.3-2.8,6.3-4.7V241.6z"/>
		<path class="st7" d="M1526.1,223.7h3.4v28.6h-3.4V223.7z"/>
		<path class="st7" d="M1536.8,245.7c0.1,3,2.8,4,5.6,4c2.1,0,5-0.5,5-3.1c0-5.3-13.5-1.7-13.5-9.7c0-4.2,4.1-5.9,7.7-5.9
			c4.6,0,8.2,1.4,8.5,6.5h-3.4c-0.2-2.6-2.6-3.5-4.8-3.5c-2,0-4.4,0.6-4.4,2.6c0,2.4,3.6,2.9,6.8,3.6c3.4,0.8,6.8,1.9,6.8,5.9
			c0,5-4.6,6.5-8.8,6.5c-4.6,0-8.6-1.9-8.8-7H1536.8z"/>
		<path class="st7" d="M1567.3,234.6h-3.5v-3h3.5v-3.1c0-3.4,2-5.1,5.7-5.1c0.6,0,1.6,0.1,2.2,0.3v3c-0.6-0.2-1.3-0.3-1.9-0.3
			c-1.6,0-2.6,0.5-2.6,2.3v2.9h4v3h-4v17.7h-3.4V234.6z"/>
		<path class="st7" d="M1586.6,231.1c6.6,0,10,4.8,10,10.8c0,6-3.5,10.8-10,10.8c-6.6,0-10-4.8-10-10.8
			C1576.6,235.9,1580.1,231.1,1586.6,231.1z M1586.6,249.7c3.6,0,6.4-2.8,6.4-7.8s-2.9-7.8-6.4-7.8c-3.6,0-6.4,2.8-6.4,7.8
			S1583.1,249.7,1586.6,249.7z"/>
		<path class="st7" d="M1600.6,231.6h3.2v4.4h0.1c1.6-3.4,3.9-5,7.6-4.8v3.6c-5.5,0-7.5,3.1-7.5,8.4v9.2h-3.4V231.6z"/>
		<path class="st7" d="M1057,286.2c-0.5-2.6-2.3-4.1-5.1-4.1c-4.9,0-6.4,3.9-6.4,8.1c0,3.8,1.7,7.6,6,7.6c3.3,0,5.2-1.9,5.7-5h3.5
			c-0.8,5.1-3.9,8-9.1,8c-6.3,0-9.7-4.4-9.7-10.6c0-6.2,3.2-11.1,9.8-11.1c4.7,0,8.4,2.2,8.9,7.1H1057z"/>
		<path class="st7" d="M1073.4,279.1c6.6,0,10,4.8,10,10.8c0,6-3.5,10.8-10,10.8c-6.6,0-10-4.8-10-10.8
			C1063.3,283.9,1066.8,279.1,1073.4,279.1z M1073.4,297.7c3.6,0,6.4-2.8,6.4-7.8s-2.9-7.8-6.4-7.8c-3.6,0-6.4,2.8-6.4,7.8
			S1069.8,297.7,1073.4,297.7z"/>
		<path class="st7" d="M1087.4,279.6h3.2v3h0.1c1.6-2.4,3.8-3.5,6.7-3.5c2.6,0,4.8,1,5.7,3.5c1.4-2.2,3.8-3.5,6.5-3.5
			c4.1,0,6.9,1.7,6.9,6v15.2h-3.4v-13.6c0-2.6-0.7-4.6-4-4.6c-3.3,0-5.4,2.1-5.4,5.3v12.9h-3.4v-13.6c0-2.7-0.8-4.6-3.9-4.6
			c-4,0-5.5,3.7-5.5,5.3v12.9h-3.4V279.6z"/>
		<path class="st7" d="M1121.6,279.6h3.4v2.8h0.1c1.1-2.3,3.7-3.3,6.6-3.3c6.4,0,9.5,5,9.5,10.9c0,5.9-3.1,10.8-9.4,10.8
			c-2.1,0-5.2-0.8-6.7-3.2h-0.1v10.7h-3.4V279.6z M1131.2,282.1c-4.6,0-6.3,4-6.3,7.8c0,4,1.8,7.8,6.5,7.8c4.6,0,6.2-4,6.2-8
			C1137.6,285.9,1135.6,282.1,1131.2,282.1z"/>
		<path class="st7" d="M1145.4,271.7h3.4v28.6h-3.4V271.7z"/>
		<path class="st7" d="M1171.8,293.7c-0.9,4.6-4.2,7-8.8,7c-6.6,0-9.7-4.6-9.9-10.9c0-6.2,4.1-10.8,9.7-10.8c7.3,0,9.6,6.8,9.4,11.8
			h-15.5c-0.1,3.6,1.9,6.8,6.4,6.8c2.8,0,4.8-1.3,5.4-4H1171.8z M1168.5,287.9c-0.2-3.2-2.6-5.8-6-5.8c-3.5,0-5.7,2.6-5.9,5.8
			H1168.5z"/>
		<path class="st7" d="M1180.3,279.6h4.1v3h-4.1v12.8c0,1.6,0.4,1.8,2.6,1.8h1.6v3h-2.6c-3.5,0-4.9-0.7-4.9-4.5v-13.2h-3.5v-3h3.5
			v-6.2h3.4V279.6z"/>
		<path class="st7" d="M1191.8,275.9h-3.4v-4.2h3.4V275.9z M1188.4,279.6h3.4v20.7h-3.4V279.6z"/>
		<path class="st7" d="M1206,279.1c6.6,0,10,4.8,10,10.8c0,6-3.5,10.8-10,10.8s-10-4.8-10-10.8C1196,283.9,1199.4,279.1,1206,279.1z
			 M1206,297.7c3.6,0,6.4-2.8,6.4-7.8s-2.9-7.8-6.4-7.8s-6.4,2.8-6.4,7.8S1202.4,297.7,1206,297.7z"/>
		<path class="st7" d="M1220,279.6h3.2v3.3h0.1c1.4-2.6,3.7-3.8,6.7-3.8c5.4,0,7.1,3.1,7.1,7.6v13.6h-3.4v-14c0-2.6-1.6-4.2-4.2-4.2
			c-4.1,0-6.1,2.8-6.1,6.5v11.7h-3.4V279.6z"/>
		<path class="st7" d="M1271.7,300.2c-0.6,0.4-1.4,0.6-2.4,0.6c-1.8,0-2.9-1-2.9-3.2c-1.9,2.2-4.4,3.2-7.3,3.2
			c-3.8,0-6.8-1.6-6.8-5.8c0-4.7,3.5-5.7,7-6.4c3.7-0.8,7-0.4,7-3c0-3-2.5-3.4-4.6-3.4c-2.9,0-5,0.9-5.2,3.9h-3.4
			c0.2-5.1,4.1-6.9,8.8-6.9c3.7,0,7.8,0.8,7.8,5.7v10.6c0,1.6,0,2.3,1.1,2.3c0.3,0,0.7-0.1,1-0.2V300.2z M1266.2,289.6
			c-2.6,2-10.3,0-10.3,5.1c0,2.2,1.9,3,4,3c4.5,0,6.3-2.8,6.3-4.7V289.6z"/>
		<path class="st7" d="M1274.9,279.6h3.2v3.3h0.1c1.4-2.6,3.7-3.8,6.7-3.8c5.4,0,7.1,3.1,7.1,7.6v13.6h-3.4v-14
			c0-2.6-1.6-4.2-4.2-4.2c-4.1,0-6.1,2.8-6.1,6.5v11.7h-3.4V279.6z"/>
		<path class="st7" d="M1315.6,300.3h-3.4v-2.8h-0.1c-1.1,2.3-3.7,3.3-6.6,3.3c-6.4,0-9.5-5-9.5-10.9c0-5.8,3.1-10.8,9.4-10.8
			c2.1,0,5.2,0.8,6.7,3.2h0.1v-10.6h3.4V300.3z M1306,297.7c4.6,0,6.3-4,6.3-7.8c0-4-1.8-7.8-6.5-7.8c-4.6,0-6.2,4-6.2,8
			C1299.6,294,1301.6,297.7,1306,297.7z"/>
		<path class="st7" d="M1346,286.2c-0.5-2.6-2.3-4.1-5.1-4.1c-4.9,0-6.4,3.9-6.4,8.1c0,3.8,1.7,7.6,6,7.6c3.3,0,5.2-1.9,5.7-5h3.5
			c-0.8,5.1-3.9,8-9.1,8c-6.3,0-9.7-4.4-9.7-10.6c0-6.2,3.2-11.1,9.8-11.1c4.7,0,8.4,2.2,8.9,7.1H1346z"/>
		<path class="st7" d="M1362.4,279.1c6.6,0,10,4.8,10,10.8c0,6-3.5,10.8-10,10.8s-10-4.8-10-10.8
			C1352.3,283.9,1355.8,279.1,1362.4,279.1z M1362.4,297.7c3.6,0,6.4-2.8,6.4-7.8s-2.9-7.8-6.4-7.8s-6.4,2.8-6.4,7.8
			S1358.8,297.7,1362.4,297.7z"/>
		<path class="st7" d="M1376.4,279.6h3.2v3.3h0.1c1.4-2.6,3.7-3.8,6.7-3.8c5.4,0,7.1,3.1,7.1,7.6v13.6h-3.4v-14
			c0-2.6-1.6-4.2-4.2-4.2c-4.1,0-6.1,2.8-6.1,6.5v11.7h-3.4V279.6z"/>
		<path class="st7" d="M1400,282.6h-3.5v-3h3.5v-3.1c0-3.4,2-5.1,5.7-5.1c0.6,0,1.6,0.1,2.2,0.3v3c-0.6-0.2-1.3-0.3-1.9-0.3
			c-1.6,0-2.6,0.5-2.6,2.3v2.9h4v3h-4v17.7h-3.4V282.6z M1410.7,275.9v-4.2h3.4v4.2H1410.7z M1410.7,300.3v-20.7h3.4v20.7H1410.7z"
			/>
		<path class="st7" d="M1419.2,279.6h3.2v4.4h0.1c1.6-3.4,3.9-5,7.6-4.8v3.6c-5.5,0-7.5,3.1-7.5,8.4v9.2h-3.4V279.6z"/>
		<path class="st7" d="M1432.7,279.6h3.2v3h0.1c1.6-2.4,3.8-3.5,6.7-3.5c2.6,0,4.8,1,5.7,3.5c1.4-2.2,3.8-3.5,6.5-3.5
			c4.1,0,6.9,1.7,6.9,6v15.2h-3.4v-13.6c0-2.6-0.7-4.6-4-4.6c-3.3,0-5.4,2.1-5.4,5.3v12.9h-3.4v-13.6c0-2.7-0.8-4.6-3.9-4.6
			c-4,0-5.5,3.7-5.5,5.3v12.9h-3.4V279.6z"/>
		<path class="st7" d="M1468.9,293.7c0.1,3,2.8,4,5.6,4c2.1,0,5-0.5,5-3.1c0-5.3-13.5-1.7-13.5-9.7c0-4.2,4.1-5.9,7.7-5.9
			c4.6,0,8.2,1.4,8.5,6.5h-3.4c-0.2-2.6-2.6-3.5-4.8-3.5c-2,0-4.4,0.6-4.4,2.6c0,2.4,3.6,2.9,6.8,3.6c3.4,0.8,6.8,1.9,6.8,5.9
			c0,5-4.6,6.5-8.8,6.5c-4.6,0-8.6-1.9-8.8-7H1468.9z"/>
		<path class="st7" d="M1502.6,279.6h4.1v3h-4.1v12.8c0,1.6,0.4,1.8,2.6,1.8h1.6v3h-2.6c-3.5,0-4.9-0.7-4.9-4.5v-13.2h-3.5v-3h3.5
			v-6.2h3.4V279.6z"/>
		<path class="st7" d="M1510.5,271.7h3.4v10.9h0.1c1.1-2.5,4.1-3.5,6.5-3.5c5.4,0,7.1,3.1,7.1,7.6v13.6h-3.4v-14
			c0-2.6-1.6-4.2-4.2-4.2c-4.1,0-6.1,2.8-6.1,6.5v11.7h-3.4V271.7z"/>
		<path class="st7" d="M1551.1,300.2c-0.6,0.4-1.4,0.6-2.4,0.6c-1.8,0-2.9-1-2.9-3.2c-1.9,2.2-4.4,3.2-7.3,3.2
			c-3.8,0-6.8-1.6-6.8-5.8c0-4.7,3.5-5.7,7-6.4c3.7-0.8,7-0.4,7-3c0-3-2.5-3.4-4.6-3.4c-2.9,0-5,0.9-5.2,3.9h-3.4
			c0.2-5.1,4.1-6.9,8.8-6.9c3.7,0,7.8,0.8,7.8,5.7v10.6c0,1.6,0,2.3,1.1,2.3c0.3,0,0.7-0.1,1-0.2V300.2z M1545.6,289.6
			c-2.6,2-10.3,0-10.3,5.1c0,2.2,1.9,3,4,3c4.5,0,6.3-2.8,6.3-4.7V289.6z"/>
		<path class="st7" d="M1559,279.6h4.1v3h-4.1v12.8c0,1.6,0.4,1.8,2.6,1.8h1.6v3h-2.6c-3.5,0-4.9-0.7-4.9-4.5v-13.2h-3.5v-3h3.5
			v-6.2h3.4V279.6z"/>
		<path class="st7" d="M1047.7,327.6h4.1v3h-4.1v12.8c0,1.6,0.4,1.8,2.6,1.8h1.6v3h-2.6c-3.5,0-4.9-0.7-4.9-4.5v-13.2h-3.5v-3h3.5
			v-6.2h3.4V327.6z"/>
		<path class="st7" d="M1055.6,319.7h3.4v10.9h0.1c1.1-2.5,4.1-3.5,6.5-3.5c5.4,0,7.1,3.1,7.1,7.6v13.6h-3.4v-14
			c0-2.6-1.6-4.2-4.2-4.2c-4.1,0-6.1,2.8-6.1,6.5v11.7h-3.4V319.7z"/>
		<path class="st7" d="M1095.4,341.7c-0.9,4.6-4.2,7-8.8,7c-6.6,0-9.7-4.6-9.9-10.9c0-6.2,4.1-10.8,9.7-10.8c7.3,0,9.6,6.8,9.4,11.8
			h-15.5c-0.1,3.6,1.9,6.8,6.4,6.8c2.8,0,4.8-1.3,5.4-4H1095.4z M1092.2,335.9c-0.2-3.2-2.6-5.8-6-5.8c-3.5,0-5.7,2.6-5.9,5.8
			H1092.2z"/>
		<path class="st7" d="M1124.4,334.2c-0.5-2.6-2.3-4.1-5.1-4.1c-4.9,0-6.4,3.9-6.4,8.1c0,3.8,1.7,7.6,6,7.6c3.3,0,5.2-1.9,5.7-5h3.5
			c-0.8,5.1-3.9,8-9.1,8c-6.3,0-9.7-4.4-9.7-10.6c0-6.2,3.2-11.1,9.8-11.1c4.7,0,8.4,2.2,8.9,7.1H1124.4z"/>
		<path class="st7" d="M1131.9,319.7h3.4v10.9h0.1c1.1-2.5,4.1-3.5,6.5-3.5c5.4,0,7.1,3.1,7.1,7.6v13.6h-3.4v-14
			c0-2.6-1.6-4.2-4.2-4.2c-4.1,0-6.1,2.8-6.1,6.5v11.7h-3.4V319.7z"/>
		<path class="st7" d="M1172.4,348.2c-0.6,0.4-1.4,0.6-2.4,0.6c-1.8,0-2.9-1-2.9-3.2c-1.9,2.2-4.4,3.2-7.3,3.2
			c-3.8,0-6.8-1.6-6.8-5.8c0-4.7,3.5-5.7,7-6.4c3.7-0.8,7-0.4,7-3c0-3-2.5-3.4-4.6-3.4c-2.9,0-5,0.9-5.2,3.9h-3.4
			c0.2-5.1,4.1-6.9,8.8-6.9c3.7,0,7.8,0.8,7.8,5.7v10.6c0,1.6,0,2.3,1.1,2.3c0.3,0,0.7-0.1,1-0.2V348.2z M1166.9,337.6
			c-2.6,2-10.3,0-10.3,5.1c0,2.2,1.9,3,4,3c4.5,0,6.3-2.8,6.3-4.7V337.6z"/>
		<path class="st7" d="M1175.6,327.6h3.2v3.3h0.1c1.4-2.6,3.7-3.8,6.7-3.8c5.4,0,7.1,3.1,7.1,7.6v13.6h-3.4v-14
			c0-2.6-1.6-4.2-4.2-4.2c-4.1,0-6.1,2.8-6.1,6.5v11.7h-3.4V327.6z"/>
		<path class="st7" d="M1215.7,346.5c0,6.8-3,10.2-9.6,10.2c-3.9,0-8.4-1.6-8.6-6.1h3.4c0.1,2.4,3.2,3.4,5.4,3.4
			c4.4,0,6.2-3.2,6.2-7.8v-1.4h-0.1c-1.2,2.5-3.8,3.8-6.4,3.8c-6.2,0-9.2-4.8-9.2-10.5c0-4.9,2.4-10.9,9.6-10.9
			c2.6,0,4.9,1.2,6.2,3.4h0v-3h3.2V346.5z M1212.3,337.5c0-3.6-1.6-7.4-5.9-7.4c-4.4,0-6.1,3.6-6.1,7.5c0,3.7,1.4,7.9,5.8,7.9
			C1210.6,345.5,1212.3,341.4,1212.3,337.5z"/>
		<path class="st7" d="M1238.4,341.7c-0.9,4.6-4.2,7-8.8,7c-6.6,0-9.7-4.6-9.9-10.9c0-6.2,4.1-10.8,9.7-10.8c7.3,0,9.6,6.8,9.4,11.8
			h-15.5c-0.1,3.6,1.9,6.8,6.4,6.8c2.8,0,4.8-1.3,5.4-4H1238.4z M1235.2,335.9c-0.2-3.2-2.6-5.8-6-5.8c-3.5,0-5.7,2.6-5.9,5.8
			H1235.2z"/>
		<path class="st7" d="M1253.5,327.6h3.4v2.8h0.1c1.1-2.3,3.7-3.3,6.6-3.3c6.4,0,9.5,5,9.5,10.9c0,5.9-3.1,10.8-9.4,10.8
			c-2.1,0-5.2-0.8-6.7-3.2h-0.1v10.7h-3.4V327.6z M1263.1,330.1c-4.6,0-6.3,4-6.3,7.8c0,4,1.8,7.8,6.5,7.8c4.6,0,6.2-4,6.2-8
			C1269.5,333.9,1267.5,330.1,1263.1,330.1z"/>
		<path class="st7" d="M1277,327.6h3.2v4.4h0.1c1.6-3.4,3.9-5,7.6-4.8v3.6c-5.5,0-7.5,3.1-7.5,8.4v9.2h-3.4V327.6z"/>
		<path class="st7" d="M1299.4,327.1c6.6,0,10,4.8,10,10.8c0,6-3.5,10.8-10,10.8c-6.6,0-10-4.8-10-10.8
			C1289.3,331.9,1292.8,327.1,1299.4,327.1z M1299.4,345.7c3.6,0,6.4-2.8,6.4-7.8s-2.9-7.8-6.4-7.8c-3.6,0-6.4,2.8-6.4,7.8
			S1295.8,345.7,1299.4,345.7z"/>
		<path class="st7" d="M1313.5,327.6h3.4v2.8h0.1c1.1-2.3,3.7-3.3,6.6-3.3c6.4,0,9.5,5,9.5,10.9c0,5.9-3.1,10.8-9.4,10.8
			c-2.1,0-5.2-0.8-6.7-3.2h-0.1v10.7h-3.4V327.6z M1323.1,330.1c-4.6,0-6.3,4-6.3,7.8c0,4,1.8,7.8,6.5,7.8c4.6,0,6.2-4,6.2-8
			C1329.5,333.9,1327.5,330.1,1323.1,330.1z"/>
		<path class="st7" d="M1346,327.1c6.6,0,10,4.8,10,10.8c0,6-3.5,10.8-10,10.8c-6.6,0-10-4.8-10-10.8
			C1336,331.9,1339.5,327.1,1346,327.1z M1346,345.7c3.6,0,6.4-2.8,6.4-7.8s-2.9-7.8-6.4-7.8c-3.6,0-6.4,2.8-6.4,7.8
			S1342.5,345.7,1346,345.7z"/>
		<path class="st7" d="M1362.2,341.7c0.1,3,2.8,4,5.6,4c2.1,0,5-0.5,5-3.1c0-5.3-13.5-1.7-13.5-9.7c0-4.2,4.1-5.9,7.7-5.9
			c4.6,0,8.2,1.4,8.5,6.5h-3.4c-0.2-2.6-2.6-3.5-4.8-3.5c-2,0-4.4,0.6-4.4,2.6c0,2.4,3.6,2.9,6.8,3.6c3.4,0.8,6.8,1.9,6.8,5.9
			c0,5-4.6,6.5-8.8,6.5c-4.6,0-8.6-1.9-8.8-7H1362.2z"/>
		<path class="st7" d="M1397.7,341.7c-0.9,4.6-4.2,7-8.8,7c-6.6,0-9.7-4.6-9.9-10.9c0-6.2,4.1-10.8,9.7-10.8c7.3,0,9.6,6.8,9.4,11.8
			h-15.5c-0.1,3.6,1.9,6.8,6.4,6.8c2.8,0,4.8-1.3,5.4-4H1397.7z M1394.4,335.9c-0.2-3.2-2.6-5.8-6-5.8c-3.5,0-5.7,2.6-5.9,5.8
			H1394.4z"/>
		<path class="st7" d="M1420,348.3h-3.4v-2.8h-0.1c-1.1,2.3-3.7,3.3-6.6,3.3c-6.4,0-9.5-5-9.5-10.9c0-5.8,3.1-10.8,9.4-10.8
			c2.1,0,5.2,0.8,6.7,3.2h0.1v-10.6h3.4V348.3z M1410.4,345.7c4.6,0,6.3-4,6.3-7.8c0-4-1.8-7.8-6.5-7.8c-4.6,0-6.2,4-6.2,8
			C1404,342,1406,345.7,1410.4,345.7z"/>
		<path class="st7" d="M1440,323.9h-3.4v-4.2h3.4V323.9z M1436.6,327.6h3.4v20.7h-3.4V327.6z"/>
		<path class="st7" d="M1445.3,327.6h3.2v3.3h0.1c1.4-2.6,3.7-3.8,6.7-3.8c5.4,0,7.1,3.1,7.1,7.6v13.6h-3.4v-14
			c0-2.6-1.6-4.2-4.2-4.2c-4.1,0-6.1,2.8-6.1,6.5v11.7h-3.4V327.6z"/>
		<path class="st7" d="M1483.4,327.6h4.1v3h-4.1v12.8c0,1.6,0.4,1.8,2.6,1.8h1.6v3h-2.6c-3.5,0-4.9-0.7-4.9-4.5v-13.2h-3.5v-3h3.5
			v-6.2h3.4V327.6z"/>
		<path class="st7" d="M1491.2,319.7h3.4v10.9h0.1c1.1-2.5,4.1-3.5,6.5-3.5c5.4,0,7.1,3.1,7.1,7.6v13.6h-3.4v-14
			c0-2.6-1.6-4.2-4.2-4.2c-4.1,0-6.1,2.8-6.1,6.5v11.7h-3.4V319.7z"/>
		<path class="st7" d="M1531.1,341.7c-0.9,4.6-4.2,7-8.8,7c-6.6,0-9.7-4.6-9.9-10.9c0-6.2,4.1-10.8,9.7-10.8c7.3,0,9.6,6.8,9.4,11.8
			H1516c-0.1,3.6,1.9,6.8,6.4,6.8c2.8,0,4.8-1.3,5.4-4H1531.1z M1527.8,335.9c-0.2-3.2-2.6-5.8-6-5.8c-3.5,0-5.7,2.6-5.9,5.8H1527.8
			z"/>
		<path class="st7" d="M1061.3,396.2c-0.6,0.4-1.4,0.6-2.4,0.6c-1.8,0-2.9-1-2.9-3.2c-1.9,2.2-4.4,3.2-7.3,3.2
			c-3.8,0-6.8-1.6-6.8-5.8c0-4.7,3.5-5.7,7-6.4c3.7-0.8,7-0.4,7-3c0-3-2.5-3.4-4.6-3.4c-2.9,0-5,0.9-5.2,3.9h-3.4
			c0.2-5.1,4.1-6.9,8.8-6.9c3.7,0,7.8,0.8,7.8,5.7v10.6c0,1.6,0,2.3,1.1,2.3c0.3,0,0.7-0.1,1-0.2V396.2z M1055.8,385.6
			c-2.6,2-10.3,0-10.3,5.1c0,2.2,1.9,3,4,3c4.5,0,6.3-2.8,6.3-4.7V385.6z"/>
		<path class="st7" d="M1064.6,375.6h3.4v2.8h0.1c1.1-2.3,3.7-3.3,6.6-3.3c6.4,0,9.5,5,9.5,10.9c0,5.9-3.1,10.8-9.4,10.8
			c-2.1,0-5.2-0.8-6.7-3.2h-0.1v10.7h-3.4V375.6z M1074.2,378.1c-4.6,0-6.3,4-6.3,7.8c0,4,1.8,7.8,6.5,7.8c4.6,0,6.2-4,6.2-8
			C1080.6,381.9,1078.6,378.1,1074.2,378.1z"/>
		<path class="st7" d="M1088.3,375.6h3.4v2.8h0.1c1.1-2.3,3.7-3.3,6.6-3.3c6.4,0,9.5,5,9.5,10.9c0,5.9-3.1,10.8-9.4,10.8
			c-2.1,0-5.2-0.8-6.7-3.2h-0.1v10.7h-3.4V375.6z M1097.9,378.1c-4.6,0-6.3,4-6.3,7.8c0,4,1.8,7.8,6.5,7.8c4.6,0,6.2-4,6.2-8
			C1104.3,381.9,1102.3,378.1,1097.9,378.1z"/>
		<path class="st7" d="M1111.8,375.6h3.2v4.4h0.1c1.6-3.4,3.9-5,7.6-4.8v3.6c-5.5,0-7.5,3.1-7.5,8.4v9.2h-3.4V375.6z"/>
		<path class="st7" d="M1134.1,375.1c6.6,0,10,4.8,10,10.8c0,6-3.5,10.8-10,10.8s-10-4.8-10-10.8
			C1124.1,379.9,1127.6,375.1,1134.1,375.1z M1134.1,393.7c3.6,0,6.4-2.8,6.4-7.8s-2.9-7.8-6.4-7.8s-6.4,2.8-6.4,7.8
			S1130.6,393.7,1134.1,393.7z"/>
		<path class="st7" d="M1157.5,396.3h-3.6l-7.7-20.7h3.8l5.8,17.2h0.1l5.6-17.2h3.6L1157.5,396.3z"/>
		<path class="st7" d="M1185.8,389.7c-0.9,4.6-4.2,7-8.8,7c-6.6,0-9.7-4.6-9.9-10.9c0-6.2,4.1-10.8,9.7-10.8c7.3,0,9.6,6.8,9.4,11.8
			h-15.5c-0.1,3.6,1.9,6.8,6.4,6.8c2.8,0,4.8-1.3,5.4-4H1185.8z M1182.5,383.9c-0.2-3.2-2.6-5.8-6-5.8c-3.5,0-5.7,2.6-5.9,5.8
			H1182.5z"/>
		<path class="st7" d="M1208.1,396.3h-3.4v-2.8h-0.1c-1.1,2.3-3.7,3.3-6.6,3.3c-6.4,0-9.5-5-9.5-10.9s3.1-10.8,9.4-10.8
			c2.1,0,5.2,0.8,6.7,3.2h0.1v-10.6h3.4V396.3z M1198.5,393.7c4.6,0,6.3-4,6.3-7.8c0-4-1.8-7.8-6.5-7.8c-4.6,0-6.2,4-6.2,8
			C1192.1,390,1194.1,393.7,1198.5,393.7z"/>
		<path class="st7" d="M1238.5,382.2c-0.5-2.6-2.3-4.1-5.1-4.1c-4.9,0-6.4,3.9-6.4,8.1c0,3.8,1.7,7.6,6,7.6c3.3,0,5.2-1.9,5.7-5h3.5
			c-0.8,5.1-3.9,8-9.1,8c-6.3,0-9.7-4.4-9.7-10.6s3.2-11.1,9.8-11.1c4.7,0,8.4,2.2,8.9,7.1H1238.5z"/>
		<path class="st7" d="M1246,367.7h3.4v10.9h0.1c1.1-2.5,4.1-3.5,6.5-3.5c5.4,0,7.1,3.1,7.1,7.6v13.6h-3.4v-14
			c0-2.6-1.6-4.2-4.2-4.2c-4.1,0-6.1,2.8-6.1,6.5v11.7h-3.4V367.7z"/>
		<path class="st7" d="M1286.5,396.2c-0.6,0.4-1.4,0.6-2.4,0.6c-1.8,0-2.9-1-2.9-3.2c-1.9,2.2-4.4,3.2-7.3,3.2
			c-3.8,0-6.8-1.6-6.8-5.8c0-4.7,3.5-5.7,7-6.4c3.7-0.8,7-0.4,7-3c0-3-2.5-3.4-4.6-3.4c-2.9,0-5,0.9-5.2,3.9h-3.4
			c0.2-5.1,4.1-6.9,8.8-6.9c3.7,0,7.8,0.8,7.8,5.7v10.6c0,1.6,0,2.3,1.1,2.3c0.3,0,0.7-0.1,1-0.2V396.2z M1281,385.6
			c-2.6,2-10.3,0-10.3,5.1c0,2.2,1.9,3,4,3c4.5,0,6.3-2.8,6.3-4.7V385.6z"/>
		<path class="st7" d="M1289.7,375.6h3.2v3.3h0.1c1.4-2.6,3.7-3.8,6.7-3.8c5.4,0,7.1,3.1,7.1,7.6v13.6h-3.4v-14
			c0-2.6-1.6-4.2-4.2-4.2c-4.1,0-6.1,2.8-6.1,6.5v11.7h-3.4V375.6z"/>
		<path class="st7" d="M1329.8,394.5c0,6.8-3,10.2-9.6,10.2c-3.9,0-8.4-1.6-8.6-6.1h3.4c0.1,2.4,3.2,3.4,5.4,3.4
			c4.4,0,6.2-3.2,6.2-7.8v-1.4h-0.1c-1.2,2.5-3.8,3.8-6.4,3.8c-6.2,0-9.2-4.8-9.2-10.5c0-4.9,2.4-10.9,9.6-10.9
			c2.6,0,4.9,1.2,6.2,3.4h0v-3h3.2V394.5z M1326.4,385.5c0-3.6-1.6-7.4-5.9-7.4c-4.4,0-6.1,3.6-6.1,7.5c0,3.7,1.4,7.9,5.8,7.9
			C1324.7,393.5,1326.4,389.4,1326.4,385.5z"/>
		<path class="st7" d="M1352.5,389.7c-0.9,4.6-4.2,7-8.8,7c-6.6,0-9.7-4.6-9.9-10.9c0-6.2,4.1-10.8,9.7-10.8c7.3,0,9.6,6.8,9.4,11.8
			h-15.5c-0.1,3.6,1.9,6.8,6.4,6.8c2.8,0,4.8-1.3,5.4-4H1352.5z M1349.2,383.9c-0.2-3.2-2.6-5.8-6-5.8c-3.5,0-5.7,2.6-5.9,5.8
			H1349.2z"/>
		<path class="st7" d="M1367.4,375.6h3.2v4.4h0.1c1.6-3.4,3.9-5,7.6-4.8v3.6c-5.5,0-7.5,3.1-7.5,8.4v9.2h-3.4V375.6z"/>
		<path class="st7" d="M1398.4,389.7c-0.9,4.6-4.2,7-8.8,7c-6.6,0-9.7-4.6-9.9-10.9c0-6.2,4.1-10.8,9.7-10.8c7.3,0,9.6,6.8,9.4,11.8
			h-15.5c-0.1,3.6,1.9,6.8,6.4,6.8c2.8,0,4.8-1.3,5.4-4H1398.4z M1395.2,383.9c-0.2-3.2-2.6-5.8-6-5.8c-3.5,0-5.7,2.6-5.9,5.8
			H1395.2z"/>
		<path class="st7" d="M1420.8,404.2h-3.4v-10.7h-0.1c-1.1,2.3-3.7,3.3-6.6,3.3c-6.4,0-9.5-5-9.5-10.9s3.1-10.8,9.4-10.8
			c2.1,0,5.2,0.8,6.7,3.2h0.1v-2.8h3.4V404.2z M1411.2,393.7c4.6,0,6.3-4,6.3-7.8c0-4-1.8-7.8-6.5-7.8c-4.6,0-6.2,4-6.2,8
			C1404.8,390,1406.8,393.7,1411.2,393.7z"/>
		<path class="st7" d="M1443.1,396.3h-3.2V393h-0.1c-1.4,2.6-3.7,3.8-6.7,3.8c-5.4,0-7.1-3.1-7.1-7.6v-13.6h3.4v14
			c0,2.6,1.6,4.2,4.2,4.2c4.1,0,6.1-2.8,6.1-6.5v-11.7h3.4V396.3z"/>
		<path class="st7" d="M1465.9,389.7c-0.9,4.6-4.2,7-8.8,7c-6.6,0-9.7-4.6-9.9-10.9c0-6.2,4.1-10.8,9.7-10.8c7.3,0,9.6,6.8,9.4,11.8
			h-15.5c-0.1,3.6,1.9,6.8,6.4,6.8c2.8,0,4.8-1.3,5.4-4H1465.9z M1462.6,383.9c-0.2-3.2-2.6-5.8-6-5.8c-3.5,0-5.7,2.6-5.9,5.8
			H1462.6z"/>
		<path class="st7" d="M1471.8,389.7c0.1,3,2.8,4,5.6,4c2.1,0,5-0.5,5-3.1c0-5.3-13.5-1.7-13.5-9.7c0-4.2,4.1-5.9,7.7-5.9
			c4.6,0,8.2,1.4,8.5,6.5h-3.4c-0.2-2.6-2.6-3.5-4.8-3.5c-2,0-4.4,0.6-4.4,2.6c0,2.4,3.6,2.9,6.8,3.6c3.4,0.8,6.8,1.9,6.8,5.9
			c0,5-4.6,6.5-8.8,6.5c-4.6,0-8.6-1.9-8.8-7H1471.8z"/>
		<path class="st7" d="M1494.4,375.6h4.1v3h-4.1v12.8c0,1.6,0.4,1.8,2.6,1.8h1.6v3h-2.6c-3.5,0-4.9-0.7-4.9-4.5v-13.2h-3.5v-3h3.5
			v-6.2h3.4V375.6z"/>
		<path class="st7" d="M1513.4,367.7h3.4v10.9h0.1c1.1-2.5,4.1-3.5,6.5-3.5c5.4,0,7.1,3.1,7.1,7.6v13.6h-3.4v-14
			c0-2.6-1.6-4.2-4.2-4.2c-4.1,0-6.1,2.8-6.1,6.5v11.7h-3.4V367.7z"/>
		<path class="st7" d="M1554,396.2c-0.6,0.4-1.4,0.6-2.4,0.6c-1.8,0-2.9-1-2.9-3.2c-1.9,2.2-4.4,3.2-7.3,3.2c-3.8,0-6.8-1.6-6.8-5.8
			c0-4.7,3.5-5.7,7-6.4c3.7-0.8,7-0.4,7-3c0-3-2.5-3.4-4.6-3.4c-2.9,0-5,0.9-5.2,3.9h-3.4c0.2-5.1,4.1-6.9,8.8-6.9
			c3.7,0,7.8,0.8,7.8,5.7v10.6c0,1.6,0,2.3,1.1,2.3c0.3,0,0.7-0.1,1-0.2V396.2z M1548.5,385.6c-2.6,2-10.3,0-10.3,5.1
			c0,2.2,1.9,3,4,3c4.5,0,6.3-2.8,6.3-4.7V385.6z"/>
		<path class="st7" d="M1559.2,389.7c0.1,3,2.8,4,5.6,4c2.1,0,5-0.5,5-3.1c0-5.3-13.5-1.7-13.5-9.7c0-4.2,4.1-5.9,7.7-5.9
			c4.6,0,8.2,1.4,8.5,6.5h-3.4c-0.2-2.6-2.6-3.5-4.8-3.5c-2,0-4.4,0.6-4.4,2.6c0,2.4,3.6,2.9,6.8,3.6c3.4,0.8,6.8,1.9,6.8,5.9
			c0,5-4.6,6.5-8.8,6.5c-4.6,0-8.6-1.9-8.8-7H1559.2z"/>
		<path class="st7" d="M1043.1,415.7h3.4v10.7h0.1c1.1-2.3,3.7-3.3,6.6-3.3c6.4,0,9.5,5,9.5,10.9c0,5.9-3.1,10.8-9.4,10.8
			c-2.1,0-5.2-0.8-6.7-3.2h-0.1v2.8h-3.4V415.7z M1052.7,426.1c-4.6,0-6.3,4-6.3,7.8c0,4,1.8,7.8,6.5,7.8c4.6,0,6.2-4,6.2-8
			C1059.1,429.9,1057.1,426.1,1052.7,426.1z"/>
		<path class="st7" d="M1084.3,437.7c-0.9,4.6-4.2,7-8.8,7c-6.6,0-9.7-4.6-9.9-10.9c0-6.2,4.1-10.8,9.7-10.8c7.3,0,9.6,6.8,9.4,11.8
			h-15.5c-0.1,3.6,1.9,6.8,6.4,6.8c2.8,0,4.8-1.3,5.4-4H1084.3z M1081,431.9c-0.2-3.2-2.6-5.8-6-5.8c-3.5,0-5.7,2.6-5.9,5.8H1081z"
			/>
		<path class="st7" d="M1105.8,437.7c-0.9,4.6-4.2,7-8.8,7c-6.6,0-9.7-4.6-9.9-10.9c0-6.2,4.1-10.8,9.7-10.8c7.3,0,9.6,6.8,9.4,11.8
			h-15.5c-0.1,3.6,1.9,6.8,6.4,6.8c2.8,0,4.8-1.3,5.4-4H1105.8z M1102.5,431.9c-0.2-3.2-2.6-5.8-6-5.8c-3.5,0-5.7,2.6-5.9,5.8
			H1102.5z"/>
		<path class="st7" d="M1109.6,423.6h3.2v3.3h0.1c1.4-2.6,3.7-3.8,6.7-3.8c5.4,0,7.1,3.1,7.1,7.6v13.6h-3.4v-14
			c0-2.6-1.6-4.2-4.2-4.2c-4.1,0-6.1,2.8-6.1,6.5v11.7h-3.4V423.6z"/>
		<path class="st7" d="M1145.1,437.7c0.1,3,2.8,4,5.6,4c2.1,0,5-0.5,5-3.1c0-5.3-13.5-1.7-13.5-9.7c0-4.2,4.1-5.9,7.7-5.9
			c4.6,0,8.2,1.4,8.5,6.5h-3.4c-0.2-2.6-2.6-3.5-4.8-3.5c-2,0-4.4,0.6-4.4,2.6c0,2.4,3.6,2.9,6.8,3.6c3.4,0.8,6.8,1.9,6.8,5.9
			c0,5-4.6,6.5-8.8,6.5c-4.6,0-8.6-1.9-8.8-7H1145.1z"/>
		<path class="st7" d="M1180.1,444.3h-3.2V441h-0.1c-1.4,2.6-3.7,3.8-6.7,3.8c-5.4,0-7.1-3.1-7.1-7.6v-13.6h3.4v14
			c0,2.6,1.6,4.2,4.2,4.2c4.1,0,6.1-2.8,6.1-6.5v-11.7h3.4V444.3z"/>
		<path class="st7" d="M1199.3,430.2c-0.5-2.6-2.3-4.1-5.1-4.1c-4.9,0-6.4,3.9-6.4,8.1c0,3.8,1.7,7.6,6,7.6c3.3,0,5.2-1.9,5.7-5h3.5
			c-0.8,5.1-3.9,8-9.1,8c-6.3,0-9.7-4.4-9.7-10.6s3.2-11.1,9.8-11.1c4.7,0,8.4,2.2,8.9,7.1H1199.3z"/>
		<path class="st7" d="M1220.8,430.2c-0.5-2.6-2.3-4.1-5.1-4.1c-4.9,0-6.4,3.9-6.4,8.1c0,3.8,1.7,7.6,6,7.6c3.3,0,5.2-1.9,5.7-5h3.5
			c-0.8,5.1-3.9,8-9.1,8c-6.3,0-9.7-4.4-9.7-10.6s3.2-11.1,9.8-11.1c4.7,0,8.4,2.2,8.9,7.1H1220.8z"/>
		<path class="st7" d="M1245.8,437.7c-0.9,4.6-4.2,7-8.8,7c-6.6,0-9.7-4.6-9.9-10.9c0-6.2,4.1-10.8,9.7-10.8c7.3,0,9.6,6.8,9.4,11.8
			h-15.5c-0.1,3.6,1.9,6.8,6.4,6.8c2.8,0,4.8-1.3,5.4-4H1245.8z M1242.6,431.9c-0.2-3.2-2.6-5.8-6-5.8c-3.5,0-5.7,2.6-5.9,5.8
			H1242.6z"/>
		<path class="st7" d="M1251.8,437.7c0.1,3,2.8,4,5.6,4c2.1,0,5-0.5,5-3.1c0-5.3-13.5-1.7-13.5-9.7c0-4.2,4.1-5.9,7.7-5.9
			c4.6,0,8.2,1.4,8.5,6.5h-3.4c-0.2-2.6-2.6-3.5-4.8-3.5c-2,0-4.4,0.6-4.4,2.6c0,2.4,3.6,2.9,6.8,3.6c3.4,0.8,6.8,1.9,6.8,5.9
			c0,5-4.6,6.5-8.8,6.5c-4.6,0-8.6-1.9-8.8-7H1251.8z"/>
		<path class="st7" d="M1271.8,437.7c0.1,3,2.8,4,5.6,4c2.1,0,5-0.5,5-3.1c0-5.3-13.5-1.7-13.5-9.7c0-4.2,4.1-5.9,7.7-5.9
			c4.6,0,8.2,1.4,8.5,6.5h-3.4c-0.2-2.6-2.6-3.5-4.8-3.5c-2,0-4.4,0.6-4.4,2.6c0,2.4,3.6,2.9,6.8,3.6c3.4,0.8,6.8,1.9,6.8,5.9
			c0,5-4.6,6.5-8.8,6.5c-4.6,0-8.6-1.9-8.8-7H1271.8z"/>
		<path class="st7" d="M1291.1,426.6h-3.5v-3h3.5v-3.1c0-3.4,2-5.1,5.7-5.1c0.6,0,1.6,0.1,2.2,0.3v3c-0.6-0.2-1.3-0.3-1.9-0.3
			c-1.6,0-2.6,0.5-2.6,2.3v2.9h4v3h-4v17.7h-3.4V426.6z"/>
		<path class="st7" d="M1318.6,444.3h-3.2V441h-0.1c-1.4,2.6-3.7,3.8-6.7,3.8c-5.4,0-7.1-3.1-7.1-7.6v-13.6h3.4v14
			c0,2.6,1.6,4.2,4.2,4.2c4.1,0,6.1-2.8,6.1-6.5v-11.7h3.4V444.3z"/>
		<path class="st7" d="M1324,415.7h3.4v28.6h-3.4V415.7z"/>
		<path class="st7" d="M1332.8,415.7h3.4v28.6h-3.4V415.7z"/>
		<path class="st7" d="M1349.6,447c-1.6,4-3,5.5-6,5.5c-0.8,0-1.6-0.1-2.4-0.4v-3.1c0.6,0.2,1.3,0.5,2,0.5c1.4,0,2.2-0.6,2.8-1.9
			l1.4-3.5l-8.2-20.6h3.8l6,16.9h0.1l5.8-16.9h3.6L1349.6,447z"/>
		<path class="st7" d="M1376.2,419.9h-3.4v-4.2h3.4V419.9z M1372.8,423.6h3.4v20.7h-3.4V423.6z"/>
		<path class="st7" d="M1381.5,423.6h3.2v3h0.1c1.6-2.4,3.8-3.5,6.7-3.5c2.6,0,4.8,1,5.7,3.5c1.4-2.2,3.8-3.5,6.5-3.5
			c4.1,0,6.9,1.7,6.9,6v15.2h-3.4v-13.6c0-2.6-0.7-4.6-4-4.6c-3.3,0-5.4,2.1-5.4,5.3v12.9h-3.4v-13.6c0-2.7-0.8-4.6-3.9-4.6
			c-4,0-5.5,3.7-5.5,5.3v12.9h-3.4V423.6z"/>
		<path class="st7" d="M1415.8,423.6h3.4v2.8h0.1c1.1-2.3,3.7-3.3,6.6-3.3c6.4,0,9.5,5,9.5,10.9c0,5.9-3.1,10.8-9.4,10.8
			c-2.1,0-5.2-0.8-6.7-3.2h-0.1v10.7h-3.4V423.6z M1425.4,426.1c-4.6,0-6.3,4-6.3,7.8c0,4,1.8,7.8,6.5,7.8c4.6,0,6.2-4,6.2-8
			C1431.8,429.9,1429.8,426.1,1425.4,426.1z"/>
		<path class="st7" d="M1439.6,415.7h3.4v28.6h-3.4V415.7z"/>
		<path class="st7" d="M1465.9,437.7c-0.9,4.6-4.2,7-8.8,7c-6.6,0-9.7-4.6-9.9-10.9c0-6.2,4.1-10.8,9.7-10.8c7.3,0,9.6,6.8,9.4,11.8
			h-15.5c-0.1,3.6,1.9,6.8,6.4,6.8c2.8,0,4.8-1.3,5.4-4H1465.9z M1462.6,431.9c-0.2-3.2-2.6-5.8-6-5.8c-3.5,0-5.7,2.6-5.9,5.8
			H1462.6z"/>
		<path class="st7" d="M1469.7,423.6h3.2v3h0.1c1.6-2.4,3.8-3.5,6.7-3.5c2.6,0,4.8,1,5.7,3.5c1.4-2.2,3.8-3.5,6.5-3.5
			c4.1,0,6.9,1.7,6.9,6v15.2h-3.4v-13.6c0-2.6-0.7-4.6-4-4.6c-3.3,0-5.4,2.1-5.4,5.3v12.9h-3.4v-13.6c0-2.7-0.8-4.6-3.9-4.6
			c-4,0-5.5,3.7-5.5,5.3v12.9h-3.4V423.6z"/>
		<path class="st7" d="M1521.5,437.7c-0.9,4.6-4.2,7-8.8,7c-6.6,0-9.7-4.6-9.9-10.9c0-6.2,4.1-10.8,9.7-10.8c7.3,0,9.6,6.8,9.4,11.8
			h-15.5c-0.1,3.6,1.9,6.8,6.4,6.8c2.8,0,4.8-1.3,5.4-4H1521.5z M1518.2,431.9c-0.2-3.2-2.6-5.8-6-5.8c-3.5,0-5.7,2.6-5.9,5.8
			H1518.2z"/>
		<path class="st7" d="M1525.3,423.6h3.2v3.3h0.1c1.4-2.6,3.7-3.8,6.7-3.8c5.4,0,7.1,3.1,7.1,7.6v13.6h-3.4v-14
			c0-2.6-1.6-4.2-4.2-4.2c-4.1,0-6.1,2.8-6.1,6.5v11.7h-3.4V423.6z"/>
		<path class="st7" d="M1552.3,423.6h4.1v3h-4.1v12.8c0,1.6,0.4,1.8,2.6,1.8h1.6v3h-2.6c-3.5,0-4.9-0.7-4.9-4.5v-13.2h-3.5v-3h3.5
			v-6.2h3.4V423.6z"/>
		<path class="st7" d="M1577.8,437.7c-0.9,4.6-4.2,7-8.8,7c-6.6,0-9.7-4.6-9.9-10.9c0-6.2,4.1-10.8,9.7-10.8c7.3,0,9.6,6.8,9.4,11.8
			h-15.5c-0.1,3.6,1.9,6.8,6.4,6.8c2.8,0,4.8-1.3,5.4-4H1577.8z M1574.5,431.9c-0.2-3.2-2.6-5.8-6-5.8c-3.5,0-5.7,2.6-5.9,5.8
			H1574.5z"/>
		<path class="st7" d="M1600.1,444.3h-3.4v-2.8h-0.1c-1.1,2.3-3.7,3.3-6.6,3.3c-6.4,0-9.5-5-9.5-10.9s3.1-10.8,9.4-10.8
			c2.1,0,5.2,0.8,6.7,3.2h0.1v-10.6h3.4V444.3z M1590.5,441.7c4.6,0,6.3-4,6.3-7.8c0-4-1.8-7.8-6.5-7.8c-4.6,0-6.2,4-6.2,8
			C1584.1,438,1586.1,441.7,1590.5,441.7z"/>
		<path class="st7" d="M1606.1,439.8h4.4v4.4h-4.4V439.8z"/>
		<path class="st7" d="M1005.4,500.9c4,0,7.2,3.2,7.2,7.1s-3.2,7.2-7.2,7.2c-4,0-7.1-3.2-7.1-7.2S1001.4,500.9,1005.4,500.9z"/>
		<path class="st7" d="M1047.2,496.9h-9.5v-3.2h22.8v3.2h-9.5v25.4h-3.8V496.9z"/>
		<path class="st7" d="M1063.2,493.7h3.4v10.9h0.1c1.1-2.5,4.1-3.5,6.5-3.5c5.4,0,7.1,3.1,7.1,7.6v13.6h-3.4v-14
			c0-2.6-1.6-4.2-4.2-4.2c-4.1,0-6.1,2.8-6.1,6.5v11.7h-3.4V493.7z"/>
		<path class="st7" d="M1103,515.7c-0.9,4.6-4.2,7-8.8,7c-6.6,0-9.7-4.6-9.9-10.9c0-6.2,4.1-10.8,9.7-10.8c7.3,0,9.6,6.8,9.4,11.8
			h-15.5c-0.1,3.6,1.9,6.8,6.4,6.8c2.8,0,4.8-1.3,5.4-4H1103z M1099.8,509.9c-0.2-3.2-2.6-5.8-6-5.8c-3.5,0-5.7,2.6-5.9,5.8H1099.8z
			"/>
		<path class="st7" d="M1138.6,502.3c-0.8-4-4-6.1-8-6.1c-6.8,0-9.7,5.6-9.7,11.6c0,6.5,2.9,12,9.7,12c5,0,7.9-3.5,8.2-8.2h3.8
			c-0.8,7.2-5.1,11.4-12.4,11.4c-8.8,0-13.2-6.6-13.2-14.9c0-8.3,4.7-15,13.5-15c6,0,10.9,3.2,11.8,9.3H1138.6z"/>
		<path class="st7" d="M1146.9,493.7h3.4v10.9h0.1c1.1-2.5,4.1-3.5,6.5-3.5c5.4,0,7.1,3.1,7.1,7.6v13.6h-3.4v-14
			c0-2.6-1.6-4.2-4.2-4.2c-4.1,0-6.1,2.8-6.1,6.5v11.7h-3.4V493.7z"/>
		<path class="st7" d="M1187.4,522.2c-0.6,0.4-1.4,0.6-2.4,0.6c-1.8,0-2.9-1-2.9-3.2c-1.9,2.2-4.4,3.2-7.3,3.2
			c-3.8,0-6.8-1.6-6.8-5.8c0-4.7,3.5-5.7,7-6.4c3.7-0.8,7-0.4,7-3c0-3-2.5-3.4-4.6-3.4c-2.9,0-5,0.9-5.2,3.9h-3.4
			c0.2-5.1,4.1-6.9,8.8-6.9c3.7,0,7.8,0.8,7.8,5.7v10.6c0,1.6,0,2.3,1.1,2.3c0.3,0,0.7-0.1,1-0.2V522.2z M1181.9,511.6
			c-2.6,2-10.3,0-10.3,5.1c0,2.2,1.9,3,4,3c4.5,0,6.3-2.8,6.3-4.7V511.6z"/>
		<path class="st7" d="M1190.6,501.6h3.2v3.3h0.1c1.4-2.6,3.7-3.8,6.7-3.8c5.4,0,7.1,3.1,7.1,7.6v13.6h-3.4v-14
			c0-2.6-1.6-4.2-4.2-4.2c-4.1,0-6.1,2.8-6.1,6.5v11.7h-3.4V501.6z"/>
		<path class="st7" d="M1230.7,520.5c0,6.8-3,10.2-9.6,10.2c-3.9,0-8.4-1.6-8.6-6.1h3.4c0.1,2.4,3.2,3.4,5.4,3.4
			c4.4,0,6.2-3.2,6.2-7.8v-1.4h-0.1c-1.2,2.5-3.8,3.8-6.4,3.8c-6.2,0-9.2-4.8-9.2-10.5c0-4.9,2.4-10.9,9.6-10.9
			c2.6,0,4.9,1.2,6.2,3.4h0v-3h3.2V520.5z M1227.3,511.5c0-3.6-1.6-7.4-5.9-7.4c-4.4,0-6.1,3.6-6.1,7.5c0,3.7,1.4,7.9,5.8,7.9
			C1225.6,519.5,1227.3,515.4,1227.3,511.5z"/>
		<path class="st7" d="M1253.4,515.7c-0.9,4.6-4.2,7-8.8,7c-6.6,0-9.7-4.6-9.9-10.9c0-6.2,4.1-10.8,9.7-10.8c7.3,0,9.6,6.8,9.4,11.8
			h-15.5c-0.1,3.6,1.9,6.8,6.4,6.8c2.8,0,4.8-1.3,5.4-4H1253.4z M1250.2,509.9c-0.2-3.2-2.6-5.8-6-5.8c-3.5,0-5.7,2.6-5.9,5.8
			H1250.2z"/>
		<path class="st7" d="M1289,502.3c-0.8-4-4-6.1-8-6.1c-6.8,0-9.7,5.6-9.7,11.6c0,6.5,2.9,12,9.7,12c5,0,7.9-3.5,8.2-8.2h3.8
			c-0.8,7.2-5.1,11.4-12.4,11.4c-8.8,0-13.2-6.6-13.2-14.9c0-8.3,4.7-15,13.5-15c6,0,10.9,3.2,11.8,9.3H1289z"/>
		<path class="st7" d="M1306.2,501.1c6.6,0,10,4.8,10,10.8c0,6-3.5,10.8-10,10.8s-10-4.8-10-10.8
			C1296.2,505.9,1299.6,501.1,1306.2,501.1z M1306.2,519.7c3.6,0,6.4-2.8,6.4-7.8c0-5-2.9-7.8-6.4-7.8s-6.4,2.8-6.4,7.8
			C1299.8,516.9,1302.6,519.7,1306.2,519.7z"/>
		<path class="st7" d="M1329.2,501.1c6.6,0,10,4.8,10,10.8c0,6-3.5,10.8-10,10.8c-6.6,0-10-4.8-10-10.8
			C1319.1,505.9,1322.6,501.1,1329.2,501.1z M1329.2,519.7c3.6,0,6.4-2.8,6.4-7.8c0-5-2.9-7.8-6.4-7.8c-3.6,0-6.4,2.8-6.4,7.8
			C1322.7,516.9,1325.6,519.7,1329.2,519.7z"/>
		<path class="st7" d="M1343.1,501.6h3.2v4.4h0.1c1.6-3.4,3.9-5,7.6-4.8v3.6c-5.5,0-7.5,3.1-7.5,8.4v9.2h-3.4V501.6z"/>
		<path class="st7" d="M1375,522.3h-3.4v-2.8h-0.1c-1.1,2.3-3.7,3.3-6.6,3.3c-6.4,0-9.5-5-9.5-10.9c0-5.8,3.1-10.8,9.4-10.8
			c2.1,0,5.2,0.8,6.7,3.2h0.1v-10.6h3.4V522.3z M1365.4,519.7c4.6,0,6.3-4,6.3-7.8c0-4-1.8-7.8-6.5-7.8c-4.6,0-6.2,4-6.2,8
			C1359,516,1361,519.7,1365.4,519.7z"/>
		<path class="st7" d="M1383.8,497.9h-3.4v-4.2h3.4V497.9z M1380.4,501.6h3.4v20.7h-3.4V501.6z"/>
		<path class="st7" d="M1389.1,501.6h3.2v3.3h0.1c1.4-2.6,3.7-3.8,6.7-3.8c5.4,0,7.1,3.1,7.1,7.6v13.6h-3.4v-14
			c0-2.6-1.6-4.2-4.2-4.2c-4.1,0-6.1,2.8-6.1,6.5v11.7h-3.4V501.6z"/>
		<path class="st7" d="M1429.7,522.2c-0.6,0.4-1.4,0.6-2.4,0.6c-1.8,0-2.9-1-2.9-3.2c-1.9,2.2-4.4,3.2-7.3,3.2
			c-3.8,0-6.8-1.6-6.8-5.8c0-4.7,3.5-5.7,7-6.4c3.7-0.8,7-0.4,7-3c0-3-2.5-3.4-4.6-3.4c-2.9,0-5,0.9-5.2,3.9h-3.4
			c0.2-5.1,4.1-6.9,8.8-6.9c3.7,0,7.8,0.8,7.8,5.7v10.6c0,1.6,0,2.3,1.1,2.3c0.3,0,0.7-0.1,1-0.2V522.2z M1424.2,511.6
			c-2.6,2-10.3,0-10.3,5.1c0,2.2,1.9,3,4,3c4.5,0,6.3-2.8,6.3-4.7V511.6z"/>
		<path class="st7" d="M1437.6,501.6h4.1v3h-4.1v12.8c0,1.6,0.4,1.8,2.6,1.8h1.6v3h-2.6c-3.5,0-4.9-0.7-4.9-4.5v-13.2h-3.5v-3h3.5
			v-6.2h3.4V501.6z"/>
		<path class="st7" d="M1454.4,501.1c6.6,0,10,4.8,10,10.8c0,6-3.5,10.8-10,10.8c-6.6,0-10-4.8-10-10.8
			C1444.3,505.9,1447.8,501.1,1454.4,501.1z M1454.4,519.7c3.6,0,6.4-2.8,6.4-7.8c0-5-2.9-7.8-6.4-7.8c-3.6,0-6.4,2.8-6.4,7.8
			C1447.9,516.9,1450.8,519.7,1454.4,519.7z"/>
		<path class="st7" d="M1468.3,501.6h3.2v4.4h0.1c1.6-3.4,3.9-5,7.6-4.8v3.6c-5.5,0-7.5,3.1-7.5,8.4v9.2h-3.4V501.6z"/>
		<path class="st7" d="M1061.3,570.2c-0.6,0.4-1.4,0.6-2.4,0.6c-1.8,0-2.9-1-2.9-3.2c-1.9,2.2-4.4,3.2-7.3,3.2
			c-3.8,0-6.8-1.6-6.8-5.8c0-4.7,3.5-5.7,7-6.4c3.7-0.8,7-0.4,7-3c0-3-2.5-3.4-4.6-3.4c-2.9,0-5,0.9-5.2,3.9h-3.4
			c0.2-5.1,4.1-6.9,8.8-6.9c3.7,0,7.8,0.8,7.8,5.7v10.6c0,1.6,0,2.3,1.1,2.3c0.3,0,0.7-0.1,1-0.2V570.2z M1055.8,559.6
			c-2.6,2-10.3,0-10.3,5.1c0,2.2,1.9,3,4,3c4.5,0,6.3-2.8,6.3-4.7V559.6z"/>
		<path class="st7" d="M1064.6,549.6h3.4v2.8h0.1c1.1-2.3,3.7-3.3,6.6-3.3c6.4,0,9.5,5,9.5,10.9c0,5.9-3.1,10.8-9.4,10.8
			c-2.1,0-5.2-0.8-6.7-3.2h-0.1v10.7h-3.4V549.6z M1074.2,552.1c-4.6,0-6.3,4-6.3,7.8c0,4,1.8,7.8,6.5,7.8c4.6,0,6.2-4,6.2-8
			C1080.6,555.9,1078.6,552.1,1074.2,552.1z"/>
		<path class="st7" d="M1088.3,549.6h3.4v2.8h0.1c1.1-2.3,3.7-3.3,6.6-3.3c6.4,0,9.5,5,9.5,10.9c0,5.9-3.1,10.8-9.4,10.8
			c-2.1,0-5.2-0.8-6.7-3.2h-0.1v10.7h-3.4V549.6z M1097.9,552.1c-4.6,0-6.3,4-6.3,7.8c0,4,1.8,7.8,6.5,7.8c4.6,0,6.2-4,6.2-8
			C1104.3,555.9,1102.3,552.1,1097.9,552.1z"/>
		<path class="st7" d="M1111.8,549.6h3.2v4.4h0.1c1.6-3.4,3.9-5,7.6-4.8v3.6c-5.5,0-7.5,3.1-7.5,8.4v9.2h-3.4V549.6z"/>
		<path class="st7" d="M1134.1,549.1c6.6,0,10,4.8,10,10.8c0,6-3.5,10.8-10,10.8s-10-4.8-10-10.8
			C1124.1,553.9,1127.6,549.1,1134.1,549.1z M1134.1,567.7c3.6,0,6.4-2.8,6.4-7.8c0-5-2.9-7.8-6.4-7.8s-6.4,2.8-6.4,7.8
			C1127.7,564.9,1130.6,567.7,1134.1,567.7z"/>
		<path class="st7" d="M1157.5,570.3h-3.6l-7.7-20.7h3.8l5.8,17.2h0.1l5.6-17.2h3.6L1157.5,570.3z"/>
		<path class="st7" d="M1185.8,563.7c-0.9,4.6-4.2,7-8.8,7c-6.6,0-9.7-4.6-9.9-10.9c0-6.2,4.1-10.8,9.7-10.8c7.3,0,9.6,6.8,9.4,11.8
			h-15.5c-0.1,3.6,1.9,6.8,6.4,6.8c2.8,0,4.8-1.3,5.4-4H1185.8z M1182.5,557.9c-0.2-3.2-2.6-5.8-6-5.8c-3.5,0-5.7,2.6-5.9,5.8
			H1182.5z"/>
		<path class="st7" d="M1191.7,563.7c0.1,3,2.8,4,5.6,4c2.1,0,5-0.5,5-3.1c0-5.3-13.5-1.7-13.5-9.7c0-4.2,4.1-5.9,7.7-5.9
			c4.6,0,8.2,1.4,8.5,6.5h-3.4c-0.2-2.6-2.6-3.5-4.8-3.5c-2,0-4.4,0.6-4.4,2.6c0,2.4,3.6,2.9,6.8,3.6c3.4,0.8,6.8,1.9,6.8,5.9
			c0,5-4.6,6.5-8.8,6.5c-4.6,0-8.6-1.9-8.8-7H1191.7z"/>
		<path class="st7" d="M1239.1,570.2c-0.6,0.4-1.4,0.6-2.4,0.6c-1.8,0-2.9-1-2.9-3.2c-1.9,2.2-4.4,3.2-7.3,3.2
			c-3.8,0-6.8-1.6-6.8-5.8c0-4.7,3.5-5.7,7-6.4c3.7-0.8,7-0.4,7-3c0-3-2.5-3.4-4.6-3.4c-2.9,0-5,0.9-5.2,3.9h-3.4
			c0.2-5.1,4.1-6.9,8.8-6.9c3.7,0,7.8,0.8,7.8,5.7v10.6c0,1.6,0,2.3,1.1,2.3c0.3,0,0.7-0.1,1-0.2V570.2z M1233.6,559.6
			c-2.6,2-10.3,0-10.3,5.1c0,2.2,1.9,3,4,3c4.5,0,6.3-2.8,6.3-4.7V559.6z"/>
		<path class="st7" d="M1242.2,549.6h3.2v3.3h0.1c1.4-2.6,3.7-3.8,6.7-3.8c5.4,0,7.1,3.1,7.1,7.6v13.6h-3.4v-14
			c0-2.6-1.6-4.2-4.2-4.2c-4.1,0-6.1,2.8-6.1,6.5v11.7h-3.4V549.6z"/>
		<path class="st7" d="M1283,570.3h-3.4v-2.8h-0.1c-1.1,2.3-3.7,3.3-6.6,3.3c-6.4,0-9.5-5-9.5-10.9c0-5.8,3.1-10.8,9.4-10.8
			c2.1,0,5.2,0.8,6.7,3.2h0.1v-10.6h3.4V570.3z M1273.4,567.7c4.6,0,6.3-4,6.3-7.8c0-4-1.8-7.8-6.5-7.8c-4.6,0-6.2,4-6.2,8
			C1267,564,1269,567.7,1273.4,567.7z"/>
		<path class="st7" d="M1313.4,556.2c-0.5-2.6-2.3-4.1-5.1-4.1c-4.9,0-6.4,3.9-6.4,8.1c0,3.8,1.7,7.6,6,7.6c3.3,0,5.2-1.9,5.7-5h3.5
			c-0.8,5.1-3.9,8-9.1,8c-6.3,0-9.7-4.4-9.7-10.6s3.2-11.1,9.8-11.1c4.7,0,8.4,2.2,8.9,7.1H1313.4z"/>
		<path class="st7" d="M1321,541.7h3.4v28.6h-3.4V541.7z"/>
		<path class="st7" d="M1338.6,549.1c6.6,0,10,4.8,10,10.8c0,6-3.5,10.8-10,10.8s-10-4.8-10-10.8
			C1328.6,553.9,1332,549.1,1338.6,549.1z M1338.6,567.7c3.6,0,6.4-2.8,6.4-7.8c0-5-2.9-7.8-6.4-7.8s-6.4,2.8-6.4,7.8
			C1332.2,564.9,1335,567.7,1338.6,567.7z"/>
		<path class="st7" d="M1354.7,563.7c0.1,3,2.8,4,5.6,4c2.1,0,5-0.5,5-3.1c0-5.3-13.5-1.7-13.5-9.7c0-4.2,4.1-5.9,7.7-5.9
			c4.6,0,8.2,1.4,8.5,6.5h-3.4c-0.2-2.6-2.6-3.5-4.8-3.5c-2,0-4.4,0.6-4.4,2.6c0,2.4,3.6,2.9,6.8,3.6c3.4,0.8,6.8,1.9,6.8,5.9
			c0,5-4.6,6.5-8.8,6.5c-4.6,0-8.6-1.9-8.8-7H1354.7z"/>
		<path class="st7" d="M1390.3,563.7c-0.9,4.6-4.2,7-8.8,7c-6.6,0-9.7-4.6-9.9-10.9c0-6.2,4.1-10.8,9.7-10.8c7.3,0,9.6,6.8,9.4,11.8
			h-15.5c-0.1,3.6,1.9,6.8,6.4,6.8c2.8,0,4.8-1.3,5.4-4H1390.3z M1387,557.9c-0.2-3.2-2.6-5.8-6-5.8c-3.5,0-5.7,2.6-5.9,5.8H1387z"
			/>
		<path class="st7" d="M1396.2,563.7c0.1,3,2.8,4,5.6,4c2.1,0,5-0.5,5-3.1c0-5.3-13.5-1.7-13.5-9.7c0-4.2,4.1-5.9,7.7-5.9
			c4.6,0,8.2,1.4,8.5,6.5h-3.4c-0.2-2.6-2.6-3.5-4.8-3.5c-2,0-4.4,0.6-4.4,2.6c0,2.4,3.6,2.9,6.8,3.6c3.4,0.8,6.8,1.9,6.8,5.9
			c0,5-4.6,6.5-8.8,6.5c-4.6,0-8.6-1.9-8.8-7H1396.2z"/>
		<path class="st7" d="M1430,549.6h4.1v3h-4.1v12.8c0,1.6,0.4,1.8,2.6,1.8h1.6v3h-2.6c-3.5,0-4.9-0.7-4.9-4.5v-13.2h-3.5v-3h3.5
			v-6.2h3.4V549.6z"/>
		<path class="st7" d="M1437.8,541.7h3.4v10.9h0.1c1.1-2.5,4.1-3.5,6.5-3.5c5.4,0,7.1,3.1,7.1,7.6v13.6h-3.4v-14
			c0-2.6-1.6-4.2-4.2-4.2c-4.1,0-6.1,2.8-6.1,6.5v11.7h-3.4V541.7z"/>
		<path class="st7" d="M1477.7,563.7c-0.9,4.6-4.2,7-8.8,7c-6.6,0-9.7-4.6-9.9-10.9c0-6.2,4.1-10.8,9.7-10.8c7.3,0,9.6,6.8,9.4,11.8
			h-15.5c-0.1,3.6,1.9,6.8,6.4,6.8c2.8,0,4.8-1.3,5.4-4H1477.7z M1474.4,557.9c-0.2-3.2-2.6-5.8-6-5.8c-3.5,0-5.7,2.6-5.9,5.8
			H1474.4z"/>
		<path class="st7" d="M1063.6,598.3c-0.8-4-4-6.1-8-6.1c-6.8,0-9.7,5.6-9.7,11.6c0,6.5,2.9,12,9.7,12c5,0,7.9-3.5,8.2-8.2h3.8
			c-0.8,7.2-5.1,11.4-12.4,11.4c-8.8,0-13.2-6.6-13.2-14.9s4.7-15,13.5-15c6,0,10.9,3.2,11.8,9.3H1063.6z"/>
		<path class="st7" d="M1071.8,589.7h3.4v10.9h0.1c1.1-2.5,4.1-3.5,6.5-3.5c5.4,0,7.1,3.1,7.1,7.6v13.6h-3.4v-14
			c0-2.6-1.6-4.2-4.2-4.2c-4.1,0-6.1,2.8-6.1,6.5v11.7h-3.4V589.7z"/>
		<path class="st7" d="M1112.4,618.2c-0.6,0.4-1.4,0.6-2.4,0.6c-1.8,0-2.9-1-2.9-3.2c-1.9,2.2-4.4,3.2-7.3,3.2
			c-3.8,0-6.8-1.6-6.8-5.8c0-4.7,3.5-5.7,7-6.4c3.7-0.8,7-0.4,7-3c0-3-2.5-3.4-4.6-3.4c-2.9,0-5,0.9-5.2,3.9h-3.4
			c0.2-5.1,4.1-6.9,8.8-6.9c3.7,0,7.8,0.8,7.8,5.7v10.6c0,1.6,0,2.3,1.1,2.3c0.3,0,0.7-0.1,1-0.2V618.2z M1106.9,607.6
			c-2.6,2-10.3,0-10.3,5.1c0,2.2,1.9,3,4,3c4.5,0,6.3-2.8,6.3-4.7V607.6z"/>
		<path class="st7" d="M1115.6,597.6h3.2v3.3h0.1c1.4-2.6,3.7-3.8,6.7-3.8c5.4,0,7.1,3.1,7.1,7.6v13.6h-3.4v-14
			c0-2.6-1.6-4.2-4.2-4.2c-4.1,0-6.1,2.8-6.1,6.5v11.7h-3.4V597.6z"/>
		<path class="st7" d="M1155.6,616.5c0,6.8-3,10.2-9.6,10.2c-3.9,0-8.4-1.6-8.6-6.1h3.4c0.1,2.4,3.2,3.4,5.4,3.4
			c4.4,0,6.2-3.2,6.2-7.8v-1.4h-0.1c-1.2,2.5-3.8,3.8-6.4,3.8c-6.2,0-9.2-4.8-9.2-10.5c0-4.9,2.4-10.9,9.6-10.9
			c2.6,0,4.9,1.2,6.2,3.4h0v-3h3.2V616.5z M1152.3,607.5c0-3.6-1.6-7.4-5.9-7.4c-4.4,0-6.1,3.6-6.1,7.5c0,3.7,1.4,7.9,5.8,7.9
			C1150.6,615.5,1152.3,611.4,1152.3,607.5z"/>
		<path class="st7" d="M1178.4,611.7c-0.9,4.6-4.2,7-8.8,7c-6.6,0-9.7-4.6-9.9-10.9c0-6.2,4.1-10.8,9.7-10.8c7.3,0,9.6,6.8,9.4,11.8
			h-15.5c-0.1,3.6,1.9,6.8,6.4,6.8c2.8,0,4.8-1.3,5.4-4H1178.4z M1175.1,605.9c-0.2-3.2-2.6-5.8-6-5.8c-3.5,0-5.7,2.6-5.9,5.8
			H1175.1z"/>
		<path class="st7" d="M1193.2,597.6h3.2v4.4h0.1c1.6-3.4,3.9-5,7.6-4.8v3.6c-5.5,0-7.5,3.1-7.5,8.4v9.2h-3.4V597.6z"/>
		<path class="st7" d="M1224.3,611.7c-0.9,4.6-4.2,7-8.8,7c-6.6,0-9.7-4.6-9.9-10.9c0-6.2,4.1-10.8,9.7-10.8c7.3,0,9.6,6.8,9.4,11.8
			h-15.5c-0.1,3.6,1.9,6.8,6.4,6.8c2.8,0,4.8-1.3,5.4-4H1224.3z M1221,605.9c-0.2-3.2-2.6-5.8-6-5.8c-3.5,0-5.7,2.6-5.9,5.8H1221z"
			/>
		<path class="st7" d="M1246.6,626.2h-3.4v-10.7h-0.1c-1.1,2.3-3.7,3.3-6.6,3.3c-6.4,0-9.5-5-9.5-10.9c0-5.8,3.1-10.8,9.4-10.8
			c2.1,0,5.2,0.8,6.7,3.2h0.1v-2.8h3.4V626.2z M1237,615.7c4.6,0,6.3-4,6.3-7.8c0-4-1.8-7.8-6.5-7.8c-4.6,0-6.2,4-6.2,8
			C1230.6,612,1232.6,615.7,1237,615.7z"/>
		<path class="st7" d="M1269,618.3h-3.2V615h-0.1c-1.4,2.6-3.7,3.8-6.7,3.8c-5.4,0-7.1-3.1-7.1-7.6v-13.6h3.4v14
			c0,2.6,1.6,4.2,4.2,4.2c4.1,0,6.1-2.8,6.1-6.5v-11.7h3.4V618.3z"/>
		<path class="st7" d="M1291.8,611.7c-0.9,4.6-4.2,7-8.8,7c-6.6,0-9.7-4.6-9.9-10.9c0-6.2,4.1-10.8,9.7-10.8c7.3,0,9.6,6.8,9.4,11.8
			h-15.5c-0.1,3.6,1.9,6.8,6.4,6.8c2.8,0,4.8-1.3,5.4-4H1291.8z M1288.5,605.9c-0.2-3.2-2.6-5.8-6-5.8c-3.5,0-5.7,2.6-5.9,5.8
			H1288.5z"/>
		<path class="st7" d="M1297.7,611.7c0.1,3,2.8,4,5.6,4c2.1,0,5-0.5,5-3.1c0-5.3-13.5-1.7-13.5-9.7c0-4.2,4.1-5.9,7.7-5.9
			c4.6,0,8.2,1.4,8.5,6.5h-3.4c-0.2-2.6-2.6-3.5-4.8-3.5c-2,0-4.4,0.6-4.4,2.6c0,2.4,3.6,2.9,6.8,3.6c3.4,0.8,6.8,1.9,6.8,5.9
			c0,5-4.6,6.5-8.8,6.5c-4.6,0-8.6-1.9-8.8-7H1297.7z"/>
		<path class="st7" d="M1320.3,597.6h4.1v3h-4.1v12.8c0,1.6,0.4,1.8,2.6,1.8h1.6v3h-2.6c-3.5,0-4.9-0.7-4.9-4.5v-13.2h-3.5v-3h3.5
			v-6.2h3.4V597.6z"/>
		<path class="st7" d="M1339.4,589.7h3.4v10.7h0.1c1.1-2.3,3.7-3.3,6.6-3.3c6.4,0,9.5,5,9.5,10.9c0,5.9-3.1,10.8-9.4,10.8
			c-2.1,0-5.2-0.8-6.7-3.2h-0.1v2.8h-3.4V589.7z M1349,600.1c-4.6,0-6.3,4-6.3,7.8c0,4,1.8,7.8,6.5,7.8c4.6,0,6.2-4,6.2-8
			C1355.4,603.9,1353.4,600.1,1349,600.1z"/>
		<path class="st7" d="M1371.2,621c-1.6,4-3,5.5-6,5.5c-0.8,0-1.6-0.1-2.4-0.4v-3.1c0.6,0.2,1.3,0.5,2,0.5c1.4,0,2.2-0.6,2.8-1.9
			l1.4-3.5l-8.2-20.6h3.8l6,16.9h0.1l5.8-16.9h3.6L1371.2,621z"/>
		<path class="st7" d="M1408.2,604.2c-0.5-2.6-2.3-4.1-5.1-4.1c-4.9,0-6.4,3.9-6.4,8.1c0,3.8,1.7,7.6,6,7.6c3.3,0,5.2-1.9,5.7-5h3.5
			c-0.8,5.1-3.9,8-9.1,8c-6.3,0-9.7-4.4-9.7-10.6s3.2-11.1,9.8-11.1c4.7,0,8.4,2.2,8.9,7.1H1408.2z"/>
		<path class="st7" d="M1424.6,597.1c6.6,0,10,4.8,10,10.8c0,6-3.5,10.8-10,10.8s-10-4.8-10-10.8
			C1414.5,601.9,1418,597.1,1424.6,597.1z M1424.6,615.7c3.6,0,6.4-2.8,6.4-7.8c0-5-2.9-7.8-6.4-7.8s-6.4,2.8-6.4,7.8
			C1418.1,612.9,1421,615.7,1424.6,615.7z"/>
		<path class="st7" d="M1438.6,597.6h3.2v3h0.1c1.6-2.4,3.8-3.5,6.7-3.5c2.6,0,4.8,1,5.7,3.5c1.4-2.2,3.8-3.5,6.5-3.5
			c4.1,0,6.9,1.7,6.9,6v15.2h-3.4v-13.6c0-2.6-0.7-4.6-4-4.6c-3.3,0-5.4,2.1-5.4,5.3v12.9h-3.4v-13.6c0-2.7-0.8-4.6-3.9-4.6
			c-4,0-5.5,3.7-5.5,5.3v12.9h-3.4V597.6z"/>
		<path class="st7" d="M1472.8,597.6h3.4v2.8h0.1c1.1-2.3,3.7-3.3,6.6-3.3c6.4,0,9.5,5,9.5,10.9c0,5.9-3.1,10.8-9.4,10.8
			c-2.1,0-5.2-0.8-6.7-3.2h-0.1v10.7h-3.4V597.6z M1482.4,600.1c-4.6,0-6.3,4-6.3,7.8c0,4,1.8,7.8,6.5,7.8c4.6,0,6.2-4,6.2-8
			C1488.8,603.9,1486.8,600.1,1482.4,600.1z"/>
		<path class="st7" d="M1496.6,589.7h3.4v28.6h-3.4V589.7z"/>
		<path class="st7" d="M1523,611.7c-0.9,4.6-4.2,7-8.8,7c-6.6,0-9.7-4.6-9.9-10.9c0-6.2,4.1-10.8,9.7-10.8c7.3,0,9.6,6.8,9.4,11.8
			h-15.5c-0.1,3.6,1.9,6.8,6.4,6.8c2.8,0,4.8-1.3,5.4-4H1523z M1519.7,605.9c-0.2-3.2-2.6-5.8-6-5.8c-3.5,0-5.7,2.6-5.9,5.8H1519.7z
			"/>
		<path class="st7" d="M1531.5,597.6h4.1v3h-4.1v12.8c0,1.6,0.4,1.8,2.6,1.8h1.6v3h-2.6c-3.5,0-4.9-0.7-4.9-4.5v-13.2h-3.5v-3h3.5
			v-6.2h3.4V597.6z"/>
		<path class="st7" d="M1543,593.9h-3.4v-4.2h3.4V593.9z M1539.6,597.6h3.4v20.7h-3.4V597.6z"/>
		<path class="st7" d="M1548.3,597.6h3.2v3.3h0.1c1.4-2.6,3.7-3.8,6.7-3.8c5.4,0,7.1,3.1,7.1,7.6v13.6h-3.4v-14
			c0-2.6-1.6-4.2-4.2-4.2c-4.1,0-6.1,2.8-6.1,6.5v11.7h-3.4V597.6z"/>
		<path class="st7" d="M1588.4,616.5c0,6.8-3,10.2-9.6,10.2c-3.9,0-8.4-1.6-8.6-6.1h3.4c0.1,2.4,3.2,3.4,5.4,3.4
			c4.4,0,6.2-3.2,6.2-7.8v-1.4h-0.1c-1.2,2.5-3.8,3.8-6.4,3.8c-6.2,0-9.2-4.8-9.2-10.5c0-4.9,2.4-10.9,9.6-10.9
			c2.6,0,4.9,1.2,6.2,3.4h0v-3h3.2V616.5z M1585,607.5c0-3.6-1.6-7.4-5.9-7.4c-4.4,0-6.1,3.6-6.1,7.5c0,3.7,1.4,7.9,5.8,7.9
			C1583.3,615.5,1585,611.4,1585,607.5z"/>
		<path class="st7" d="M1047.7,645.6h4.1v3h-4.1v12.8c0,1.6,0.4,1.8,2.6,1.8h1.6v3h-2.6c-3.5,0-4.9-0.7-4.9-4.5v-13.2h-3.5v-3h3.5
			v-6.2h3.4V645.6z"/>
		<path class="st7" d="M1055.6,637.7h3.4v10.9h0.1c1.1-2.5,4.1-3.5,6.5-3.5c5.4,0,7.1,3.1,7.1,7.6v13.6h-3.4v-14
			c0-2.6-1.6-4.2-4.2-4.2c-4.1,0-6.1,2.8-6.1,6.5v11.7h-3.4V637.7z"/>
		<path class="st7" d="M1095.4,659.7c-0.9,4.6-4.2,7-8.8,7c-6.6,0-9.7-4.6-9.9-10.9c0-6.2,4.1-10.8,9.7-10.8c7.3,0,9.6,6.8,9.4,11.8
			h-15.5c-0.1,3.6,1.9,6.8,6.4,6.8c2.8,0,4.8-1.3,5.4-4H1095.4z M1092.2,653.9c-0.2-3.2-2.6-5.8-6-5.8c-3.5,0-5.7,2.6-5.9,5.8
			H1092.2z"/>
		<path class="st7" d="M1131,646.3c-0.8-4-4-6.1-8-6.1c-6.8,0-9.7,5.6-9.7,11.6c0,6.5,2.9,12,9.7,12c5,0,7.9-3.5,8.2-8.2h3.8
			c-0.8,7.2-5.1,11.4-12.4,11.4c-8.8,0-13.2-6.6-13.2-14.9s4.7-15,13.5-15c6,0,10.9,3.2,11.8,9.3H1131z"/>
		<path class="st7" d="M1139.5,637.7h3.4v28.6h-3.4V637.7z"/>
		<path class="st7" d="M1157.1,645.1c6.6,0,10,4.8,10,10.8c0,6-3.5,10.8-10,10.8s-10-4.8-10-10.8
			C1147,649.9,1150.5,645.1,1157.1,645.1z M1157.1,663.7c3.6,0,6.4-2.8,6.4-7.8c0-5-2.9-7.8-6.4-7.8s-6.4,2.8-6.4,7.8
			C1150.6,660.9,1153.5,663.7,1157.1,663.7z"/>
		<path class="st7" d="M1173.2,659.7c0.1,3,2.8,4,5.6,4c2.1,0,5-0.5,5-3.1c0-5.3-13.5-1.7-13.5-9.7c0-4.2,4.1-5.9,7.7-5.9
			c4.6,0,8.2,1.4,8.5,6.5h-3.4c-0.2-2.6-2.6-3.5-4.8-3.5c-2,0-4.4,0.6-4.4,2.6c0,2.4,3.6,2.9,6.8,3.6c3.4,0.8,6.8,1.9,6.8,5.9
			c0,5-4.6,6.5-8.8,6.5c-4.6,0-8.6-1.9-8.8-7H1173.2z"/>
		<path class="st7" d="M1208.2,666.3h-3.2V663h-0.1c-1.4,2.6-3.7,3.8-6.7,3.8c-5.4,0-7.1-3.1-7.1-7.6v-13.6h3.4v14
			c0,2.6,1.6,4.2,4.2,4.2c4.1,0,6.1-2.8,6.1-6.5v-11.7h3.4V666.3z"/>
		<path class="st7" d="M1213.2,645.6h3.2v4.4h0.1c1.6-3.4,3.9-5,7.6-4.8v3.6c-5.5,0-7.5,3.1-7.5,8.4v9.2h-3.4V645.6z"/>
		<path class="st7" d="M1244.3,659.7c-0.9,4.6-4.2,7-8.8,7c-6.6,0-9.7-4.6-9.9-10.9c0-6.2,4.1-10.8,9.7-10.8c7.3,0,9.6,6.8,9.4,11.8
			h-15.5c-0.1,3.6,1.9,6.8,6.4,6.8c2.8,0,4.8-1.3,5.4-4H1244.3z M1241,653.9c-0.2-3.2-2.6-5.8-6-5.8c-3.5,0-5.7,2.6-5.9,5.8H1241z"
			/>
		<path class="st7" d="M1261.4,659.7c0.1,3,2.8,4,5.6,4c2.1,0,5-0.5,5-3.1c0-5.3-13.5-1.7-13.5-9.7c0-4.2,4.1-5.9,7.7-5.9
			c4.6,0,8.2,1.4,8.5,6.5h-3.4c-0.2-2.6-2.6-3.5-4.8-3.5c-2,0-4.4,0.6-4.4,2.6c0,2.4,3.6,2.9,6.8,3.6c3.4,0.8,6.8,1.9,6.8,5.9
			c0,5-4.6,6.5-8.8,6.5c-4.6,0-8.6-1.9-8.8-7H1261.4z"/>
		<path class="st7" d="M1296.9,659.7c-0.9,4.6-4.2,7-8.8,7c-6.6,0-9.7-4.6-9.9-10.9c0-6.2,4.1-10.8,9.7-10.8c7.3,0,9.6,6.8,9.4,11.8
			h-15.5c-0.1,3.6,1.9,6.8,6.4,6.8c2.8,0,4.8-1.3,5.4-4H1296.9z M1293.6,653.9c-0.2-3.2-2.6-5.8-6-5.8c-3.5,0-5.7,2.6-5.9,5.8
			H1293.6z"/>
		<path class="st7" d="M1314.8,652.2c-0.5-2.6-2.3-4.1-5.1-4.1c-4.9,0-6.4,3.9-6.4,8.1c0,3.8,1.7,7.6,6,7.6c3.3,0,5.2-1.9,5.7-5h3.5
			c-0.8,5.1-3.9,8-9.1,8c-6.3,0-9.7-4.4-9.7-10.6s3.2-11.1,9.8-11.1c4.7,0,8.4,2.2,8.9,7.1H1314.8z"/>
		<path class="st7" d="M1327,645.6h4.1v3h-4.1v12.8c0,1.6,0.4,1.8,2.6,1.8h1.6v3h-2.6c-3.5,0-4.9-0.7-4.9-4.5v-13.2h-3.5v-3h3.5
			v-6.2h3.4V645.6z"/>
		<path class="st7" d="M1338.4,641.9h-3.4v-4.2h3.4V641.9z M1335,645.6h3.4v20.7h-3.4V645.6z"/>
		<path class="st7" d="M1352.6,645.1c6.6,0,10,4.8,10,10.8c0,6-3.5,10.8-10,10.8s-10-4.8-10-10.8
			C1342.6,649.9,1346.1,645.1,1352.6,645.1z M1352.6,663.7c3.6,0,6.4-2.8,6.4-7.8c0-5-2.9-7.8-6.4-7.8s-6.4,2.8-6.4,7.8
			C1346.2,660.9,1349.1,663.7,1352.6,663.7z"/>
		<path class="st7" d="M1366.7,645.6h3.2v3.3h0.1c1.4-2.6,3.7-3.8,6.7-3.8c5.4,0,7.1,3.1,7.1,7.6v13.6h-3.4v-14
			c0-2.6-1.6-4.2-4.2-4.2c-4.1,0-6.1,2.8-6.1,6.5v11.7h-3.4V645.6z"/>
		<path class="st7" d="M1409,645.1c6.6,0,10,4.8,10,10.8c0,6-3.5,10.8-10,10.8s-10-4.8-10-10.8
			C1398.9,649.9,1402.4,645.1,1409,645.1z M1409,663.7c3.6,0,6.4-2.8,6.4-7.8c0-5-2.9-7.8-6.4-7.8s-6.4,2.8-6.4,7.8
			C1402.5,660.9,1405.4,663.7,1409,663.7z"/>
		<path class="st7" d="M1424.4,648.6h-3.5v-3h3.5v-3.1c0-3.4,2-5.1,5.7-5.1c0.6,0,1.6,0.1,2.2,0.3v3c-0.6-0.2-1.3-0.3-1.9-0.3
			c-1.6,0-2.6,0.5-2.6,2.3v2.9h4v3h-4v17.7h-3.4V648.6z"/>
		<path class="st7" d="M1450.7,645.6h4.1v3h-4.1v12.8c0,1.6,0.4,1.8,2.6,1.8h1.6v3h-2.6c-3.5,0-4.9-0.7-4.9-4.5v-13.2h-3.5v-3h3.5
			v-6.2h3.4V645.6z"/>
		<path class="st7" d="M1458.6,637.7h3.4v10.9h0.1c1.1-2.5,4.1-3.5,6.5-3.5c5.4,0,7.1,3.1,7.1,7.6v13.6h-3.4v-14
			c0-2.6-1.6-4.2-4.2-4.2c-4.1,0-6.1,2.8-6.1,6.5v11.7h-3.4V637.7z"/>
		<path class="st7" d="M1498.4,659.7c-0.9,4.6-4.2,7-8.8,7c-6.6,0-9.7-4.6-9.9-10.9c0-6.2,4.1-10.8,9.7-10.8c7.3,0,9.6,6.8,9.4,11.8
			h-15.5c-0.1,3.6,1.9,6.8,6.4,6.8c2.8,0,4.8-1.3,5.4-4H1498.4z M1495.2,653.9c-0.2-3.2-2.6-5.8-6-5.8c-3.5,0-5.7,2.6-5.9,5.8
			H1495.2z"/>
		<path class="st7" d="M1063.6,694.3c-0.8-4-4-6.1-8-6.1c-6.8,0-9.7,5.6-9.7,11.6c0,6.5,2.9,12,9.7,12c5,0,7.9-3.5,8.2-8.2h3.8
			c-0.8,7.2-5.1,11.4-12.4,11.4c-8.8,0-13.2-6.6-13.2-14.9s4.7-15,13.5-15c6,0,10.9,3.2,11.8,9.3H1063.6z"/>
		<path class="st7" d="M1071.8,685.7h3.4v10.9h0.1c1.1-2.5,4.1-3.5,6.5-3.5c5.4,0,7.1,3.1,7.1,7.6v13.6h-3.4v-14
			c0-2.6-1.6-4.2-4.2-4.2c-4.1,0-6.1,2.8-6.1,6.5v11.7h-3.4V685.7z"/>
		<path class="st7" d="M1112.4,714.2c-0.6,0.4-1.4,0.6-2.4,0.6c-1.8,0-2.9-1-2.9-3.2c-1.9,2.2-4.4,3.2-7.3,3.2
			c-3.8,0-6.8-1.6-6.8-5.8c0-4.7,3.5-5.7,7-6.4c3.7-0.8,7-0.4,7-3c0-3-2.5-3.4-4.6-3.4c-2.9,0-5,0.9-5.2,3.9h-3.4
			c0.2-5.1,4.1-6.9,8.8-6.9c3.7,0,7.8,0.8,7.8,5.7v10.6c0,1.6,0,2.3,1.1,2.3c0.3,0,0.7-0.1,1-0.2V714.2z M1106.9,703.6
			c-2.6,2-10.3,0-10.3,5.1c0,2.2,1.9,3,4,3c4.5,0,6.3-2.8,6.3-4.7V703.6z"/>
		<path class="st7" d="M1115.6,693.6h3.2v3.3h0.1c1.4-2.6,3.7-3.8,6.7-3.8c5.4,0,7.1,3.1,7.1,7.6v13.6h-3.4v-14
			c0-2.6-1.6-4.2-4.2-4.2c-4.1,0-6.1,2.8-6.1,6.5v11.7h-3.4V693.6z"/>
		<path class="st7" d="M1155.6,712.5c0,6.8-3,10.2-9.6,10.2c-3.9,0-8.4-1.6-8.6-6.1h3.4c0.1,2.4,3.2,3.4,5.4,3.4
			c4.4,0,6.2-3.2,6.2-7.8v-1.4h-0.1c-1.2,2.5-3.8,3.8-6.4,3.8c-6.2,0-9.2-4.8-9.2-10.5c0-4.9,2.4-10.9,9.6-10.9
			c2.6,0,4.9,1.2,6.2,3.4h0v-3h3.2V712.5z M1152.3,703.5c0-3.6-1.6-7.4-5.9-7.4c-4.4,0-6.1,3.6-6.1,7.5c0,3.7,1.4,7.9,5.8,7.9
			C1150.6,711.5,1152.3,707.4,1152.3,703.5z"/>
		<path class="st7" d="M1178.4,707.7c-0.9,4.6-4.2,7-8.8,7c-6.6,0-9.7-4.6-9.9-10.9c0-6.2,4.1-10.8,9.7-10.8c7.3,0,9.6,6.8,9.4,11.8
			h-15.5c-0.1,3.6,1.9,6.8,6.4,6.8c2.8,0,4.8-1.3,5.4-4H1178.4z M1175.1,701.9c-0.2-3.2-2.6-5.8-6-5.8c-3.5,0-5.7,2.6-5.9,5.8
			H1175.1z"/>
		<path class="st7" d="M1193.9,685.7h13.4c5.4,0,8.7,2.9,8.7,7.5c0,3.5-1.5,6.3-5,7.2v0.1c3.3,0.6,4,3.1,4.3,5.9
			c0.2,2.8,0.1,6,1.7,7.9h-4.2c-1.1-1.2-0.5-4.2-1-7c-0.4-2.8-1.1-5.2-4.8-5.2h-9.3v12.2h-3.8V685.7z M1205.6,698.9
			c3.5,0,6.6-0.9,6.6-5.1c0-2.8-1.5-4.9-5.1-4.9h-9.4v10H1205.6z"/>
		<path class="st7" d="M1238.4,707.7c-0.9,4.6-4.2,7-8.8,7c-6.6,0-9.7-4.6-9.9-10.9c0-6.2,4.1-10.8,9.7-10.8c7.3,0,9.6,6.8,9.4,11.8
			h-15.5c-0.1,3.6,1.9,6.8,6.4,6.8c2.8,0,4.8-1.3,5.4-4H1238.4z M1235.1,701.9c-0.2-3.2-2.6-5.8-6-5.8c-3.5,0-5.7,2.6-5.9,5.8
			H1235.1z"/>
		<path class="st7" d="M1260.7,722.2h-3.4v-10.7h-0.1c-1.1,2.3-3.7,3.3-6.6,3.3c-6.4,0-9.5-5-9.5-10.9c0-5.8,3.1-10.8,9.4-10.8
			c2.1,0,5.2,0.8,6.7,3.2h0.1v-2.8h3.4V722.2z M1251.1,711.7c4.6,0,6.3-4,6.3-7.8c0-4-1.8-7.8-6.5-7.8c-4.6,0-6.2,4-6.2,8
			C1244.7,708,1246.7,711.7,1251.1,711.7z"/>
		<path class="st7" d="M1283.1,714.3h-3.2V711h-0.1c-1.4,2.6-3.7,3.8-6.7,3.8c-5.4,0-7.1-3.1-7.1-7.6v-13.6h3.4v14
			c0,2.6,1.6,4.2,4.2,4.2c4.1,0,6.1-2.8,6.1-6.5v-11.7h3.4V714.3z"/>
		<path class="st7" d="M1305.8,707.7c-0.9,4.6-4.2,7-8.8,7c-6.6,0-9.7-4.6-9.9-10.9c0-6.2,4.1-10.8,9.7-10.8c7.3,0,9.6,6.8,9.4,11.8
			h-15.5c-0.1,3.6,1.9,6.8,6.4,6.8c2.8,0,4.8-1.3,5.4-4H1305.8z M1302.6,701.9c-0.2-3.2-2.6-5.8-6-5.8c-3.5,0-5.7,2.6-5.9,5.8
			H1302.6z"/>
		<path class="st7" d="M1311.8,707.7c0.1,3,2.8,4,5.6,4c2.1,0,5-0.5,5-3.1c0-5.3-13.5-1.7-13.5-9.7c0-4.2,4.1-5.9,7.7-5.9
			c4.6,0,8.2,1.4,8.5,6.5h-3.4c-0.2-2.6-2.6-3.5-4.8-3.5c-2,0-4.4,0.6-4.4,2.6c0,2.4,3.6,2.9,6.8,3.6c3.4,0.8,6.8,1.9,6.8,5.9
			c0,5-4.6,6.5-8.8,6.5c-4.6,0-8.6-1.9-8.8-7H1311.8z"/>
		<path class="st7" d="M1334.4,693.6h4.1v3h-4.1v12.8c0,1.6,0.4,1.8,2.6,1.8h1.6v3h-2.6c-3.5,0-4.9-0.7-4.9-4.5v-13.2h-3.5v-3h3.5
			v-6.2h3.4V693.6z"/>
		<path class="st7" d="M1343,709.8h4.4v4.4h-4.4V709.8z"/>
	</g>
</g>
<g>
</g>
<g class="st8">
	<path class="st3" d="M82.7,97.9h-7.2L70,75.5h-0.1l-5.5,22.4h-7.3l-8.7-32.8h7.2l5.2,22.4h0.1l5.7-22.4h6.8L79,87.7h0.1l5.4-22.6
		h7.1L82.7,97.9z"/>
	<path class="st3" d="M94.1,65.1h6.5v12.4h0.1c1.7-2.7,4.5-4,6.9-4c6.9,0,8.7,3.9,8.7,9.8v14.6h-6.5V84.5c0-3.9-1.1-5.8-4.2-5.8
		c-3.5,0-5.1,2-5.1,6.8v12.5h-6.5V65.1z"/>
	<path class="st3" d="M133,73.5c7.5,0,12.3,5,12.3,12.6c0,7.5-4.8,12.5-12.3,12.5c-7.5,0-12.3-5-12.3-12.5
		C120.7,78.4,125.5,73.5,133,73.5z M133,93.6c4.5,0,5.8-3.8,5.8-7.6s-1.3-7.6-5.8-7.6c-4.4,0-5.8,3.8-5.8,7.6S128.6,93.6,133,93.6z"
		/>
</g>
<g class="st8">
	<path d="M809.7,65.1h7.2v12.6h13.3V65.1h7.2v32.8h-7.2V83.7h-13.3v14.2h-7.2V65.1z"/>
	<path d="M854.6,73.5c7.5,0,12.3,5,12.3,12.6c0,7.5-4.8,12.5-12.3,12.5c-7.5,0-12.3-5-12.3-12.5C842.4,78.4,847.2,73.5,854.6,73.5z
		 M854.6,93.6c4.5,0,5.8-3.8,5.8-7.6s-1.3-7.6-5.8-7.6c-4.4,0-5.8,3.8-5.8,7.6S850.2,93.6,854.6,93.6z"/>
	<path d="M898.4,97.9h-6.7l-4.2-16h-0.1l-4,16h-6.8L869,74.1h6.9l4.4,16.1h0.1l4-16.1h6.3l4,16.1h0.1l4.4-16.1h6.7L898.4,97.9z"/>
</g>
<line class="st9" x1="48.2" y1="39.4" x2="726.4" y2="39.4"/>
<g>
	<polygon class="st10" points="1992.4,948 2007.9,963.5 1992.4,979.1 1998.5,985.2 2020.2,963.5 1998.5,941.8 	"/>
	<polygon class="st10" points="1978.3,985.2 2000,963.5 1978.3,941.8 1972.2,948 1987.7,963.5 1972.2,979.1 	"/>
</g>
<g>
	<rect x="1139.4" y="953.3" class="st11" width="819.7" height="25.1"/>
	<path class="st3" d="M1270,953.3h14.2l-0.5,2.3h-11.4l-1.4,6.5h10.7l-0.5,2.3h-10.7l-1.5,7.1h11.6l-0.5,2.3h-14.3L1270,953.3z"/>
	<path class="st3" d="M1288.1,965.9l-3.3-7h2.8l2.2,5.4l4.4-5.4h3l-6.4,7.2l3.8,7.7h-2.8l-2.7-6.1l-5.1,6.1h-3L1288.1,965.9z"/>
	<path class="st3" d="M1298.4,963.4c0.5-3.3,3.3-4.8,6.5-4.8c2.9,0,5.4,0.8,5.4,3.8c0,0.8-0.3,1.9-0.5,2.7l-1,4.1
		c-0.1,0.6-0.4,1.4-0.4,2.1s0.3,0.9,0.7,0.9c0.2,0,0.5-0.1,0.8-0.2l-0.4,1.8c-0.4,0.2-1.1,0.3-1.5,0.3c-1.4,0-2.1-0.8-1.9-2.1
		l-0.1-0.1c-1,1.4-2.4,2.2-5,2.2c-2.5,0-4.6-1.2-4.6-4.2c0-4.3,4.2-4.6,7.5-4.9c2.6-0.2,3.7-0.4,3.7-2.4c0-1.6-1.7-2-3-2
		c-1.9,0-3.7,0.7-4,2.7H1298.4z M1301.8,972c1.9,0,3.3-0.7,4.2-2c0.8-1.1,1-2.4,1.3-3.8h-0.1c-2,1.5-8-0.1-8.1,3.7
		C1299.1,971.3,1300.4,972,1301.8,972z"/>
	<path class="st3" d="M1314.9,958.9h2.3l-0.5,2.2l0.1,0.1c1.3-1.6,3.1-2.6,5.2-2.6c1.9,0,3.3,0.7,3.7,2.7c1.2-1.6,3.1-2.7,5.1-2.7
		c2.1,0,4.1,0.9,4.1,3.3c0,0.9-0.2,2.1-0.4,3l-1.9,8.9h-2.4l2.1-9.4c0.1-0.5,0.2-1.2,0.2-1.6c0-1.2-1-2-2.3-2c-1.4,0-2.9,1-3.7,2
		c-0.8,0.9-1.1,2.1-1.4,3.3l-1.6,7.7h-2.4l1.8-8.5c0.3-1.2,0.5-2.3,0.5-2.6c0-1.2-0.7-2-2.1-2c-1.3,0-2.8,0.9-3.7,1.9
		c-1,1-1.3,1.9-1.6,3.4l-1.7,7.8h-2.4L1314.9,958.9z"/>
	<path class="st3" d="M1339.4,958.9h2.3l-0.5,2.1h0.1c1.5-1.9,2.9-2.5,4.9-2.5c3.8,0,5.8,2.5,5.8,6.1c0,4.5-3.1,9.5-8.3,9.5
		c-1.8,0-4.1-0.6-4.6-2.6h-0.1l-1.6,8h-2.4L1339.4,958.9z M1345.7,960.7c-3.7,0-5.8,4.3-5.8,7.4c0,2.2,1.3,3.9,3.7,3.9
		c3.9,0,5.9-4,5.9-7.3C1349.5,962.3,1348.4,960.7,1345.7,960.7z"/>
	<path class="st3" d="M1357.7,953.3h2.4l-4.3,20.6h-2.4L1357.7,953.3z"/>
	<path class="st3" d="M1362.7,967.1c-0.1,0.4-0.1,0.9-0.1,1.3c0,2.3,1.9,3.6,3.9,3.6c2.2,0,3.6-1,4.3-2.9h2.4c-0.8,3.3-3.5,5-6.7,5
		c-5,0-6.3-3.4-6.3-6c0-5.7,3.6-9.6,7.7-9.6c4.4,0,6.3,2.4,6.3,6.6c0,0.8-0.1,1.5-0.2,1.9H1362.7z M1371.7,964.9
		c0.1-2.1-0.8-4.2-3.5-4.2c-2.9,0-4.5,1.9-5.2,4.2H1371.7z"/>
	<path class="st3" d="M1392.2,958.6c4,0,6.2,2.2,6.2,6.2c0,4.8-3,9.4-8.2,9.4c-3.9,0-6.3-2.6-6.3-6.2
		C1383.9,963.1,1387,958.6,1392.2,958.6z M1390.4,972c3.6,0,5.5-4.1,5.5-7.1c0-2.3-1.2-4.2-3.9-4.2c-3.8,0-5.7,4.1-5.7,7.2
		C1386.3,970.4,1387.7,972,1390.4,972z"/>
	<path class="st3" d="M1403.3,961.1h-2.5l0.4-2.2h2.5c0.8-3,0.9-5.9,4.8-5.9c0.7,0,1.4,0,2,0.2l-0.4,2.1c-0.4-0.1-0.8-0.1-1.2-0.1
		c-2.4,0-2.4,1.9-2.9,3.7h2.9l-0.4,2.2h-2.9l-2.7,12.7h-2.4L1403.3,961.1z"/>
	<path class="st3" d="M1418,963.4c0.5-3.3,3.3-4.8,6.5-4.8c2.9,0,5.4,0.8,5.4,3.8c0,0.8-0.3,1.9-0.5,2.7l-1,4.1
		c-0.1,0.6-0.4,1.4-0.4,2.1s0.3,0.9,0.7,0.9c0.2,0,0.5-0.1,0.8-0.2l-0.4,1.8c-0.4,0.2-1.1,0.3-1.5,0.3c-1.4,0-2.1-0.8-1.9-2.1
		l-0.1-0.1c-1,1.4-2.4,2.2-5,2.2c-2.5,0-4.6-1.2-4.6-4.2c0-4.3,4.2-4.6,7.5-4.9c2.6-0.2,3.7-0.4,3.7-2.4c0-1.6-1.7-2-3-2
		c-1.9,0-3.7,0.7-4,2.7H1418z M1421.3,972c1.9,0,3.3-0.7,4.2-2c0.8-1.1,1-2.4,1.3-3.8h-0.1c-2,1.5-8-0.1-8.1,3.7
		C1418.6,971.3,1419.9,972,1421.3,972z"/>
	<path class="st3" d="M1451.4,963.7c0-1.8-1.2-2.9-3.1-2.9c-3.8,0-5.8,3.7-5.8,7c0,2.3,0.9,4.3,3.7,4.3c2.1,0,3.7-1.2,4.3-3.1h2.4
		c-0.9,3.3-3.3,5.2-6.8,5.2c-4.1,0-6.1-2.4-6.1-6.4c0-4.7,2.9-9.2,8.2-9.2c3.4,0,5.5,1.6,5.6,5.1H1451.4z"/>
	<path class="st3" d="M1463.7,958.6c4,0,6.2,2.2,6.2,6.2c0,4.8-3,9.4-8.2,9.4c-3.9,0-6.3-2.6-6.3-6.2
		C1455.4,963.1,1458.5,958.6,1463.7,958.6z M1461.9,972c3.6,0,5.5-4.1,5.5-7.1c0-2.3-1.2-4.2-3.9-4.2c-3.8,0-5.7,4.1-5.7,7.2
		C1457.8,970.4,1459.2,972,1461.9,972z"/>
	<path class="st3" d="M1474.4,958.9h2.3l-0.5,2.2l0.1,0.1c1.3-1.6,3.1-2.6,5.2-2.6c1.9,0,3.3,0.7,3.7,2.7c1.2-1.6,3.1-2.7,5.1-2.7
		c2.1,0,4.1,0.9,4.1,3.3c0,0.9-0.2,2.1-0.4,3l-1.9,8.9h-2.4l2.1-9.4c0.1-0.5,0.2-1.2,0.2-1.6c0-1.2-1-2-2.3-2c-1.4,0-2.9,1-3.7,2
		c-0.8,0.9-1.1,2.1-1.4,3.3l-1.6,7.7h-2.4l1.8-8.5c0.3-1.2,0.5-2.3,0.5-2.6c0-1.2-0.7-2-2.1-2c-1.3,0-2.8,0.9-3.7,1.9
		c-1,1-1.3,1.9-1.6,3.4l-1.7,7.8h-2.4L1474.4,958.9z"/>
	<path class="st3" d="M1498.9,958.9h2.3l-0.5,2.1h0.1c1.5-1.9,2.9-2.5,4.9-2.5c3.8,0,5.8,2.5,5.8,6.1c0,4.5-3.1,9.5-8.3,9.5
		c-1.8,0-4.1-0.6-4.6-2.6h-0.1l-1.6,8h-2.4L1498.9,958.9z M1505.2,960.7c-3.7,0-5.8,4.3-5.8,7.4c0,2.2,1.3,3.9,3.7,3.9
		c3.9,0,5.9-4,5.9-7.3C1509.1,962.3,1507.9,960.7,1505.2,960.7z"/>
	<path class="st3" d="M1517.2,953.3h2.4l-4.3,20.6h-2.4L1517.2,953.3z"/>
	<path class="st3" d="M1522.3,967.1c-0.1,0.4-0.1,0.9-0.1,1.3c0,2.3,1.9,3.6,3.9,3.6c2.2,0,3.6-1,4.3-2.9h2.4c-0.8,3.3-3.5,5-6.7,5
		c-5,0-6.3-3.4-6.3-6c0-5.7,3.6-9.6,7.7-9.6c4.4,0,6.3,2.4,6.3,6.6c0,0.8-0.1,1.5-0.2,1.9H1522.3z M1531.3,964.9
		c0.1-2.1-0.8-4.2-3.5-4.2c-2.9,0-4.5,1.9-5.2,4.2H1531.3z"/>
	<path class="st3" d="M1541.3,958.9h3l-0.5,2.2h-3l-1.8,8.8c0,0.3-0.1,0.6-0.1,1c0,0.8,0.7,1,1.5,1c0.5,0,1-0.1,1.4-0.3l-0.4,2.2
		c-0.6,0.1-1.2,0.2-1.7,0.2c-1.8,0-3.3-0.5-3.3-2.4c0-0.4,0.1-0.8,0.1-1.2l2-9.2h-2.5l0.5-2.2h2.5l0.9-4.4h2.4L1541.3,958.9z"/>
	<path class="st3" d="M1546.8,967.1c-0.1,0.4-0.1,0.9-0.1,1.3c0,2.3,1.9,3.6,3.9,3.6c2.2,0,3.6-1,4.3-2.9h2.4c-0.8,3.3-3.5,5-6.7,5
		c-5,0-6.3-3.4-6.3-6c0-5.7,3.6-9.6,7.7-9.6c4.4,0,6.3,2.4,6.3,6.6c0,0.8-0.1,1.5-0.2,1.9H1546.8z M1555.8,964.9
		c0.1-2.1-0.8-4.2-3.5-4.2c-2.9,0-4.5,1.9-5.2,4.2H1555.8z"/>
	<path class="st3" d="M1572.6,973.8h-2.3l0.5-2.1h-0.1c-1.5,1.9-2.9,2.5-4.9,2.5c-3.8,0-5.8-2.5-5.8-6.1c0-4.5,3.1-9.5,8.3-9.5
		c1.8,0,4,0.6,4.6,2.6h0.1l1.6-8h2.4L1572.6,973.8z M1566.2,972c3.7,0,5.8-4.3,5.8-7.4c0-2.2-1.3-3.9-3.7-3.9c-3.9,0-5.9,4-5.9,7.3
		C1562.4,970.5,1563.5,972,1566.2,972z"/>
	<path class="st3" d="M1603.6,966.9c-1,4.6-4,7.4-9.1,7.4c-5.6,0-8.8-3.3-8.8-9c0-6.7,4.3-12.5,11.3-12.5c4.4,0,7.8,2.4,7.8,7.1
		h-2.7c0-3.2-2.1-4.8-5.1-4.8c-5.7,0-8.6,5.3-8.6,10.2c0,4,2,6.7,6.1,6.7c3.4,0,5.5-1.9,6.4-5.1H1603.6z"/>
	<path class="st3" d="M1609.5,953.3h2.4l-4.3,20.6h-2.4L1609.5,953.3z"/>
	<path class="st3" d="M1620.6,958.6c4,0,6.2,2.2,6.2,6.2c0,4.8-3,9.4-8.2,9.4c-3.9,0-6.3-2.6-6.3-6.2
		C1612.2,963.1,1615.3,958.6,1620.6,958.6z M1618.8,972c3.6,0,5.5-4.1,5.5-7.1c0-2.3-1.2-4.2-3.9-4.2c-3.8,0-5.7,4.1-5.7,7.2
		C1614.7,970.4,1616.1,972,1618.8,972z"/>
	<path class="st3" d="M1638.5,963.3c0.1-1.7-1.4-2.6-3.1-2.6c-1.5,0-3.2,0.4-3.2,1.9c0,1.4,2,2,3.9,2.7c2,0.9,3.9,1.8,3.9,4.2
		c0,3.3-3.2,4.6-6.1,4.6c-3.4,0-6-1.2-6-5h2.4c-0.1,2.2,1.8,2.9,3.8,2.9c1.6,0,3.4-0.6,3.4-2.3c0-1.5-2-2-3.9-2.8
		c-2-0.8-3.9-1.8-3.9-4c0-2.8,2.8-4.3,5.5-4.3s5.6,1.2,5.6,4.7H1638.5z"/>
	<path class="st3" d="M1654,973.8h-2.4l0.5-2.2h-0.1c-1.2,1.7-3.2,2.6-5.3,2.6c-2.8,0-4.1-1.2-4.1-3.8c0-0.7,0.2-1.8,0.4-2.9
		l1.8-8.5h2.4l-1.9,8.7c-0.1,0.5-0.3,1.8-0.3,2.3c0,1.4,1.1,2.1,2.6,2.1c2.7,0,4.8-2.4,5.3-4.8l1.7-8.2h2.4L1654,973.8z"/>
	<path class="st3" d="M1661.1,958.9h2.3l-0.7,3.2h0.1c1.2-2,2.9-3.5,5.4-3.5c0.3,0,0.5-0.1,0.9,0l-0.6,2.6c-0.1,0-0.2,0-0.4,0h-0.3
		c-0.6,0-0.9,0-1.5,0.1c-1.4,0.3-2.4,1.2-3.2,2.4c-0.7,1-1,2.4-1.2,3.5l-1.4,6.6h-2.4L1661.1,958.9z"/>
	<path class="st3" d="M1670.6,967.1c-0.1,0.4-0.1,0.9-0.1,1.3c0,2.3,1.9,3.6,3.9,3.6c2.2,0,3.6-1,4.3-2.9h2.4c-0.8,3.3-3.5,5-6.7,5
		c-5,0-6.3-3.4-6.3-6c0-5.7,3.6-9.6,7.7-9.6c4.4,0,6.3,2.4,6.3,6.6c0,0.8-0.1,1.5-0.2,1.9H1670.6z M1679.6,964.9
		c0.1-2.1-0.8-4.2-3.5-4.2c-2.9,0-4.5,1.9-5.2,4.2H1679.6z"/>
	<path class="st3" d="M1701.5,963.3c0.1-1.7-1.4-2.6-3.1-2.6c-1.5,0-3.2,0.4-3.2,1.9c0,1.4,2,2,3.9,2.7c2,0.9,3.9,1.8,3.9,4.2
		c0,3.3-3.2,4.6-6.1,4.6c-3.4,0-6-1.2-6-5h2.4c-0.1,2.2,1.8,2.9,3.8,2.9c1.6,0,3.4-0.6,3.4-2.3c0-1.5-2-2-3.9-2.8
		c-2-0.8-3.9-1.8-3.9-4c0-2.8,2.8-4.3,5.5-4.3s5.6,1.2,5.6,4.7H1701.5z"/>
	<path class="st3" d="M1707.9,967.1c-0.1,0.4-0.1,0.9-0.1,1.3c0,2.3,1.9,3.6,3.9,3.6c2.2,0,3.6-1,4.3-2.9h2.4c-0.8,3.3-3.5,5-6.7,5
		c-5,0-6.3-3.4-6.3-6c0-5.7,3.6-9.6,7.7-9.6c4.4,0,6.3,2.4,6.3,6.6c0,0.8-0.1,1.5-0.2,1.9H1707.9z M1716.9,964.9
		c0.1-2.1-0.8-4.2-3.5-4.2c-2.9,0-4.5,1.9-5.2,4.2H1716.9z"/>
	<path class="st3" d="M1732.5,963.7c0-1.8-1.2-2.9-3.1-2.9c-3.8,0-5.8,3.7-5.8,7c0,2.3,0.9,4.3,3.7,4.3c2.1,0,3.7-1.2,4.4-3.1h2.4
		c-0.9,3.3-3.3,5.2-6.8,5.2c-4.1,0-6.1-2.4-6.1-6.4c0-4.7,2.9-9.2,8.2-9.2c3.4,0,5.5,1.6,5.6,5.1H1732.5z"/>
	<path class="st3" d="M1742.4,958.9h3l-0.5,2.2h-3l-1.8,8.8c0,0.3-0.1,0.6-0.1,1c0,0.8,0.7,1,1.5,1c0.5,0,1-0.1,1.4-0.3l-0.4,2.2
		c-0.6,0.1-1.2,0.2-1.7,0.2c-1.8,0-3.3-0.5-3.3-2.4c0-0.4,0.1-0.8,0.1-1.2l2-9.2h-2.5l0.5-2.2h2.5l0.9-4.4h2.4L1742.4,958.9z"/>
	<path class="st3" d="M1748.1,958.9h2.4l-3.1,14.9h-2.4L1748.1,958.9z M1751.1,956.2h-2.5l0.6-3h2.5L1751.1,956.2z"/>
	<path class="st3" d="M1760.3,958.6c4,0,6.2,2.2,6.2,6.2c0,4.8-3,9.4-8.2,9.4c-3.9,0-6.3-2.6-6.3-6.2
		C1752,963.1,1755.1,958.6,1760.3,958.6z M1758.5,972c3.6,0,5.5-4.1,5.5-7.1c0-2.3-1.2-4.2-3.9-4.2c-3.8,0-5.7,4.1-5.7,7.2
		C1754.4,970.4,1755.9,972,1758.5,972z"/>
	<path class="st3" d="M1771,958.9h2.4l-0.5,2.2h0.1c1.2-1.7,3.2-2.6,5.3-2.6c2.8,0,4.1,1.2,4.1,3.8c0,0.7-0.2,1.8-0.4,2.9l-1.8,8.5
		h-2.4l1.9-8.7c0.1-0.6,0.3-1.8,0.3-2.3c0-1.4-1.1-2.1-2.6-2.1c-1.4,0-2.8,0.7-3.7,1.7c-0.9,0.8-1.3,1.9-1.6,3.1l-1.7,8.2h-2.4
		L1771,958.9z"/>
	<path class="st3" d="M1800.9,958.6c4,0,6.2,2.2,6.2,6.2c0,4.8-3,9.4-8.2,9.4c-3.9,0-6.3-2.6-6.3-6.2
		C1792.6,963.1,1795.7,958.6,1800.9,958.6z M1799.1,972c3.6,0,5.5-4.1,5.5-7.1c0-2.3-1.2-4.2-3.9-4.2c-3.8,0-5.7,4.1-5.7,7.2
		C1795,970.4,1796.4,972,1799.1,972z"/>
	<path class="st3" d="M1811.6,958.9h2.4l-0.5,2.2h0.1c1.2-1.7,3.2-2.6,5.3-2.6c2.8,0,4.1,1.2,4.1,3.8c0,0.7-0.2,1.8-0.4,2.9
		l-1.8,8.5h-2.4l1.9-8.7c0.1-0.6,0.3-1.8,0.3-2.3c0-1.4-1.1-2.1-2.6-2.1c-1.4,0-2.8,0.7-3.7,1.7c-0.9,0.8-1.3,1.9-1.6,3.1l-1.7,8.2
		h-2.4L1811.6,958.9z"/>
	<path class="st3" d="M1835.6,958.9h2.4l-0.5,2.2h0.1c1.2-1.7,3.2-2.6,5.3-2.6c2.8,0,4.1,1.2,4.1,3.8c0,0.7-0.2,1.8-0.4,2.9
		l-1.8,8.5h-2.4l1.9-8.7c0.1-0.6,0.3-1.8,0.3-2.3c0-1.4-1.1-2.1-2.6-2.1c-1.4,0-2.8,0.7-3.7,1.7c-0.9,0.8-1.3,1.9-1.6,3.1l-1.7,8.2
		h-2.4L1835.6,958.9z"/>
	<path class="st3" d="M1851.5,967.1c-0.1,0.4-0.1,0.9-0.1,1.3c0,2.3,1.9,3.6,3.9,3.6c2.2,0,3.6-1,4.3-2.9h2.4c-0.8,3.3-3.5,5-6.7,5
		c-5,0-6.3-3.4-6.3-6c0-5.7,3.6-9.6,7.7-9.6c4.4,0,6.3,2.4,6.3,6.6c0,0.8-0.1,1.5-0.2,1.9H1851.5z M1860.5,964.9
		c0.1-2.1-0.8-4.2-3.5-4.2c-2.9,0-4.5,1.9-5.2,4.2H1860.5z"/>
	<path class="st3" d="M1869.2,965.9l-3.3-7h2.8l2.2,5.4l4.4-5.4h3l-6.4,7.2l3.8,7.7h-2.8l-2.7-6.1l-5.1,6.1h-3L1869.2,965.9z"/>
	<path class="st3" d="M1884.3,958.9h3l-0.5,2.2h-3l-1.8,8.8c0,0.3-0.1,0.6-0.1,1c0,0.8,0.7,1,1.5,1c0.5,0,1-0.1,1.4-0.3l-0.4,2.2
		c-0.6,0.1-1.2,0.2-1.7,0.2c-1.8,0-3.3-0.5-3.3-2.4c0-0.4,0.1-0.8,0.1-1.2l2-9.2h-2.5l0.5-2.2h2.5l0.9-4.4h2.4L1884.3,958.9z"/>
	<path class="st3" d="M1898,958.9h2.3l-0.5,2.1h0.1c1.5-1.9,2.9-2.5,4.9-2.5c3.8,0,5.8,2.5,5.8,6.1c0,4.5-3.1,9.5-8.3,9.5
		c-1.8,0-4.1-0.6-4.6-2.6h-0.1l-1.6,8h-2.4L1898,958.9z M1904.3,960.7c-3.7,0-5.8,4.3-5.8,7.4c0,2.2,1.3,3.9,3.7,3.9
		c3.9,0,5.9-4,5.9-7.3C1908.2,962.3,1907,960.7,1904.3,960.7z"/>
	<path class="st3" d="M1913.7,963.4c0.5-3.3,3.3-4.8,6.5-4.8c2.9,0,5.4,0.8,5.4,3.8c0,0.8-0.3,1.9-0.5,2.7l-1,4.1
		c-0.1,0.6-0.4,1.4-0.4,2.1s0.3,0.9,0.7,0.9c0.2,0,0.5-0.1,0.8-0.2l-0.4,1.8c-0.4,0.2-1.1,0.3-1.5,0.3c-1.4,0-2.1-0.8-1.9-2.1
		l-0.1-0.1c-1,1.4-2.4,2.2-5,2.2c-2.5,0-4.6-1.2-4.6-4.2c0-4.3,4.2-4.6,7.5-4.9c2.6-0.2,3.7-0.4,3.7-2.4c0-1.6-1.7-2-3-2
		c-1.9,0-3.7,0.7-4,2.7H1913.7z M1917,972c1.9,0,3.3-0.7,4.2-2c0.8-1.1,1-2.4,1.3-3.8h-0.1c-2,1.5-8-0.1-8.1,3.7
		C1914.3,971.3,1915.6,972,1917,972z"/>
	<path class="st3" d="M1940.3,971.7c-0.3,1.5-0.7,3-1.2,4.1c-1.3,3-3.6,4.1-6.8,4.1c-3,0-5.8-1.3-5.9-4.6h2.4c0.1,2,1.9,2.4,3.7,2.4
		c3.8,0,4.6-3,5.3-6l-0.1-0.1c-1.1,1.6-2.8,2.3-4.6,2.3c-3.7,0-5.6-2.6-5.6-6.2c0-4.4,2.9-9.2,7.8-9.2c2.2,0,4.3,1.2,4.7,3v0.1h0.1
		l0.5-2.7h2.3L1940.3,971.7z M1933.8,971.8c3.7,0,5.4-4.1,5.4-7.1c0-2.3-1.2-3.9-3.8-3.9c-3.4,0-5.3,4.3-5.3,7
		C1930.2,969.9,1931.4,971.8,1933.8,971.8z"/>
	<path class="st3" d="M1946.5,967.1c-0.1,0.4-0.1,0.9-0.1,1.3c0,2.3,1.9,3.6,3.9,3.6c2.2,0,3.6-1,4.3-2.9h2.4c-0.8,3.3-3.5,5-6.7,5
		c-5,0-6.3-3.4-6.3-6c0-5.7,3.6-9.6,7.7-9.6c4.4,0,6.3,2.4,6.3,6.6c0,0.8-0.1,1.5-0.2,1.9H1946.5z M1955.5,964.9
		c0.1-2.1-0.8-4.2-3.5-4.2c-2.9,0-4.5,1.9-5.2,4.2H1955.5z"/>
</g>
<g>
	<g>
		<g>
			<path class="st3" d="M130.4,898.9c0,3.4,2.7,4.8,5.7,4.8c2,0,5-0.6,5-3.2c0-2.8-3.9-3.2-7.6-4.2c-3.8-0.9-7.7-2.6-7.7-7.3
				c0-5.3,5-7.8,9.6-7.8c5.4,0,10.3,2.3,10.3,8.3h-5.5c-0.2-3.1-2.3-3.9-5.1-3.9c-1.8,0-3.9,0.8-3.9,2.9c0,2,1.2,2.3,7.7,3.9
				c1.9,0.4,7.6,1.7,7.6,7.5c0,4.7-3.7,8.2-10.7,8.2c-5.7,0-11.1-2.8-10.9-9.1H130.4z"/>
			<path class="st3" d="M155.9,888.8h3.7v3.4h-3.7v9.2c0,1.7,0.4,2.2,2.2,2.2c0.6,0,1.1,0,1.6-0.1v4c-0.9,0.1-2,0.2-3,0.2
				c-3.2,0-5.9-0.7-5.9-4.4v-11h-3.1v-3.4h3.1v-5.6h5.1V888.8z"/>
			<path class="st3" d="M166.3,899.4c0.1,3.3,1.7,4.7,4.6,4.7c2.1,0,3.7-1.3,4-2.4h4.5c-1.4,4.4-4.5,6.3-8.7,6.3
				c-5.9,0-9.5-4-9.5-9.8c0-5.6,3.9-9.8,9.5-9.8c6.3,0,9.4,5.3,9,11H166.3z M174.6,896.1c-0.5-2.6-1.6-4-4.1-4c-3.3,0-4.1,2.5-4.2,4
				H174.6z"/>
			<path class="st3" d="M182.7,888.8h4.9v2.4h0.1c1.3-2,3.2-2.9,5.5-2.9c5.8,0,8.5,4.7,8.5,10c0,5-2.7,9.6-8.2,9.6
				c-2.3,0-4.3-1-5.6-2.8h-0.1v8.9h-5.1V888.8z M196.6,898.2c0-3-1.2-6-4.5-6c-3.3,0-4.4,3-4.4,6s1.2,5.9,4.5,5.9
				C195.5,904.1,196.6,901.2,196.6,898.2z"/>
			<path class="st3" d="M215.3,881.7h18.1v4.8h-12.4v5.9h10.8v4.4h-10.8v10.6h-5.7V881.7z"/>
			<path class="st3" d="M241.3,885.9h-5.1v-4.2h5.1V885.9z M236.2,888.8h5.1v18.6h-5.1V888.8z"/>
			<path class="st3" d="M255.7,907.4H250l-6.4-18.6h5.4l3.9,12.7h0.1l3.9-12.7h5.1L255.7,907.4z"/>
			<path class="st3" d="M268.3,899.4c0.1,3.3,1.7,4.7,4.6,4.7c2.1,0,3.7-1.3,4-2.4h4.5c-1.4,4.4-4.5,6.3-8.7,6.3
				c-5.9,0-9.5-4-9.5-9.8c0-5.6,3.9-9.8,9.5-9.8c6.3,0,9.4,5.3,9,11H268.3z M276.6,896.1c-0.5-2.6-1.6-4-4.1-4c-3.3,0-4.1,2.5-4.2,4
				H276.6z"/>
			<path class="st3" d="M292.8,895.4h18v4.4h-18V895.4z"/>
			<path class="st3" d="M340.5,890.4c-0.4-2.6-2.8-4.5-5.6-4.5c-5.1,0-7,4.3-7,8.8c0,4.3,1.9,8.6,7,8.6c3.5,0,5.4-2.3,5.8-5.8h5.5
				c-0.6,6.4-5,10.5-11.3,10.5c-7.9,0-12.6-5.9-12.6-13.4c0-7.6,4.7-13.6,12.6-13.6c5.6,0,10.4,3.3,11.1,9.3H340.5z"/>
			<path class="st3" d="M349.6,881.7h5.1v25.7h-5.1V881.7z"/>
			<path class="st3" d="M367.8,888.3c5.9,0,9.6,3.9,9.6,9.8c0,5.9-3.8,9.8-9.6,9.8c-5.8,0-9.6-3.9-9.6-9.8
				C358.2,892.2,361.9,888.3,367.8,888.3z M367.8,904.1c3.5,0,4.5-3,4.5-5.9c0-3-1-6-4.5-6c-3.5,0-4.5,3-4.5,6
				C363.3,901.1,364.3,904.1,367.8,904.1z"/>
			<path class="st3" d="M384.7,901.4c0,2.2,1.9,3.1,3.9,3.1c1.4,0,3.3-0.6,3.3-2.4c0-1.5-2.2-2.1-5.8-2.9c-3-0.7-5.9-1.7-5.9-5
				c0-4.8,4.1-6,8.1-6c4,0,7.8,1.4,8.2,5.9h-4.9c-0.1-2-1.7-2.5-3.5-2.5c-1.2,0-2.8,0.2-2.8,1.7c0,1.8,2.9,2.1,5.8,2.8
				c3,0.7,5.9,1.8,5.9,5.2c0,4.9-4.3,6.5-8.5,6.5c-4.3,0-8.6-1.6-8.7-6.6H384.7z"/>
			<path class="st3" d="M417.5,907.4h-4.9v-2.6h-0.1c-1.3,2.1-3.5,3.1-5.7,3.1c-5.4,0-6.8-3.1-6.8-7.7v-11.4h5.1v10.5
				c0,3.1,0.9,4.6,3.3,4.6c2.8,0,4-1.5,4-5.3v-9.8h5.1V907.4z"/>
			<path class="st3" d="M421.4,888.8h4.9v3.5h0.1c1-2.3,3.4-4,5.9-4c0.4,0,0.8,0.1,1.1,0.2v4.8c-0.5-0.1-1.2-0.2-1.8-0.2
				c-3.8,0-5,2.7-5,6v8.4h-5.1V888.8z"/>
			<path class="st3" d="M439.6,899.4c0.1,3.3,1.7,4.7,4.6,4.7c2.1,0,3.7-1.3,4-2.4h4.5c-1.4,4.4-4.5,6.3-8.7,6.3
				c-5.9,0-9.5-4-9.5-9.8c0-5.6,3.9-9.8,9.5-9.8c6.3,0,9.4,5.3,9,11H439.6z M447.9,896.1c-0.5-2.6-1.6-4-4.1-4c-3.3,0-4.1,2.5-4.2,4
				H447.9z"/>
		</g>
	</g>
	<g>
		<circle class="st12" cx="66.2" cy="894.3" r="34.3"/>
		<g>
			<g>
				<path class="st3" d="M73.9,886.3H63.5l-1,5.7l0.1,0.1c1.4-1.4,2.9-1.9,4.9-1.9c5,0,7.8,3.9,7.8,8.6c0,5.2-4.3,9.2-9.4,9.1
					c-4.9,0-9.3-2.7-9.4-8h5.1c0.3,2.3,1.9,3.8,4.1,3.8c2.7,0,4.4-2.3,4.4-4.9c0-2.6-1.6-4.7-4.4-4.7c-1.8,0-2.8,0.6-3.9,2h-4.6
					l2.5-13.9h14.1V886.3z"/>
			</g>
		</g>
	</g>
</g>
<g>
	<rect x="92.9" y="385.5" class="st13" width="1.2" height="12.8"/>
	<path class="st13" d="M96.5,385.5h5.4c2.1,0,4.1,0.7,4.1,3.1c0,1.3-0.9,2.6-2.2,2.9c1.7,0.2,2.7,1.5,2.7,3.1c0,1.2-0.4,3.6-4.6,3.6
		h-5.4V385.5z M97.7,391.1h4.2c1.9,0,2.9-1,2.9-2.2c0-1.6-1-2.4-2.9-2.4h-4.2V391.1z M97.7,397.2h4.2c1.8,0,3.4-0.6,3.4-2.6
		c0-1.7-1.2-2.5-3.4-2.5h-4.2V397.2z"/>
	<polygon class="st13" points="108.5,385.5 110.3,385.5 114.7,396.7 119.1,385.5 120.9,385.5 120.9,398.3 119.7,398.3 119.7,387.2 
		115.3,398.3 114.1,398.3 109.7,387.2 109.7,398.3 108.5,398.3 	"/>
	<polygon class="st14" points="138.1,398.2 135.3,398.2 133.1,389.5 131,398.2 128.1,398.2 124.7,385.4 127.5,385.4 129.5,394.1 
		131.7,385.4 134.3,385.4 136.5,394.2 138.6,385.4 141.4,385.4 	"/>
	<path class="st14" d="M141.8,391.7c0.2-2.4,2.3-3.1,4.4-3.1c1.8,0,4.1,0.4,4.1,2.6v4.8c0,0.8,0.1,1.7,0.3,2.1H148
		c-0.1-0.3-0.2-0.6-0.2-0.9c-0.8,0.8-2,1.2-3.1,1.2c-1.8,0-3.1-0.9-3.1-2.8c0-4.2,6.3-2,6.2-4c0-1.1-0.7-1.2-1.7-1.2
		s-1.6,0.4-1.7,1.4h-2.6V391.7z M147.7,393.6c-0.4,0.4-1.3,0.4-2.1,0.5c-0.8,0.2-1.5,0.4-1.5,1.4s0.7,1.2,1.6,1.2
		c2,0,2.1-1.6,2.1-2.1v-1H147.7z"/>
	<path class="st14" d="M155.4,388.9h1.9v1.7h-1.9v4.6c0,0.9,0.2,1.1,1.1,1.1c0.3,0,0.6,0,0.8-0.1v2c-0.4,0.1-1,0.1-1.5,0.1
		c-1.6,0-2.9-0.3-2.9-2.2v-5.5h-1.6v-1.7h1.6v-2.8h2.6L155.4,388.9z"/>
	<path class="st14" d="M160.5,395.2c0,1.1,1,1.6,2,1.6c0.7,0,1.7-0.3,1.7-1.2c0-0.8-1.1-1.1-2.9-1.4c-1.5-0.3-3-0.8-3-2.5
		c0-2.4,2.1-3,4-3c2,0,3.9,0.7,4.1,3H164c-0.1-1-0.8-1.2-1.7-1.2c-0.6,0-1.4,0.1-1.4,0.9c0,0.9,1.5,1,2.9,1.4c1.5,0.3,3,0.9,3,2.6
		c0,2.4-2.1,3.2-4.2,3.2c-2.1,0-4.3-0.8-4.4-3.3h2.3V395.2z"/>
	<path class="st14" d="M172.5,388.7c2.9,0,4.8,1.9,4.8,4.9s-1.9,4.9-4.8,4.9s-4.8-1.9-4.8-4.9S169.5,388.7,172.5,388.7 M172.5,396.5
		c1.7,0,2.3-1.5,2.3-3s-0.5-3-2.3-3c-1.7,0-2.2,1.5-2.2,3S170.7,396.5,172.5,396.5"/>
	<path class="st14" d="M178.5,388.9h2.4v1.3h0.1c0.7-1.1,1.7-1.6,2.8-1.6c2.7,0,3.4,1.5,3.4,3.8v5.7h-2.6v-5.2
		c0-1.5-0.4-2.3-1.6-2.3c-1.4,0-2,0.8-2,2.6v4.9h-2.6L178.5,388.9z"/>
	<polygon class="st14" points="192.3,385.4 195.1,385.4 195.1,390.3 200.3,390.3 200.3,385.4 203.1,385.4 203.1,398.2 200.3,398.2 
		200.3,392.7 195.1,392.7 195.1,398.2 192.3,398.2 	"/>
	<path class="st14" d="M207.3,394.2c0.1,1.6,0.8,2.4,2.3,2.4c1,0,1.8-0.6,2-1.2h2.2c-0.7,2.2-2.2,3.1-4.3,3.1c-2.9,0-4.7-2-4.7-4.9
		c0-2.8,1.9-4.9,4.7-4.9c3.1,0,4.7,2.6,4.5,5.5H207.3z M211.4,392.5c-0.2-1.3-0.8-2-2-2c-1.7,0-2.1,1.2-2.1,2H211.4z"/>
	<path class="st14" d="M215.5,391.7c0.2-2.4,2.3-3.1,4.4-3.1c1.8,0,4.1,0.4,4.1,2.6v4.8c0,0.8,0.1,1.7,0.3,2.1h-2.6
		c-0.1-0.3-0.2-0.6-0.2-0.9c-0.8,0.8-2,1.2-3.1,1.2c-1.8,0-3.1-0.9-3.1-2.8c0-4.2,6.3-2,6.2-4c0-1.1-0.7-1.2-1.7-1.2
		s-1.6,0.4-1.7,1.4h-2.6V391.7z M221.3,393.6c-0.4,0.4-1.3,0.4-2.1,0.5c-0.8,0.2-1.5,0.4-1.5,1.4s0.7,1.2,1.6,1.2
		c2,0,2.1-1.6,2.1-2.1v-1H221.3z"/>
	<path class="st14" d="M233.6,388.9h1.9v1.7h-1.9v4.6c0,0.9,0.2,1.1,1.1,1.1c0.3,0,0.6,0,0.8-0.1v2c-0.4,0.1-1,0.1-1.5,0.1
		c-1.6,0-2.9-0.3-2.9-2.2v-5.5h-1.6v-1.7h1.6v-2.8h2.6L233.6,388.9L233.6,388.9z"/>
	<path class="st14" d="M237.1,385.4h2.6v4.8h0.1c0.7-1.1,1.7-1.6,2.7-1.6c2.7,0,3.4,1.5,3.4,3.8v5.7h-2.6v-5.2
		c0-1.5-0.4-2.3-1.6-2.3c-1.4,0-2,0.8-2,2.6v4.9h-2.6V385.4z"/>
	<rect x="225.8" y="385.4" class="st14" width="2.6" height="12.8"/>
</g>
<path class="st3" d="M641.8,603.5H77c-5.9,0-10.8-7-10.8-15.5V210.3c0-8.5,4.8-15.5,10.8-15.5h564.8c5.9,0,10.8,7,10.8,15.5V588
	C652.5,596.5,647.7,603.5,641.8,603.5"/>
<path class="st15" d="M641.8,603.5H77c-5.9,0-10.8-6.4-10.8-14.3V420.4h586.3v168.8C652.5,597,647.7,603.5,641.8,603.5"/>
<g>
	<rect x="259.2" y="230.7" class="st11" width="299.4" height="73.4"/>
	<path class="st16" d="M277,238c-0.7-2.7-2.4-4.5-5.7-4.5c-4.9,0-6.9,4.3-6.9,8.7c0,4.4,2,8.7,6.9,8.7c3.6,0,5.5-2.7,5.8-6h3.9
		c-0.4,5.5-4.2,9.2-9.7,9.2c-6.8,0-10.9-5.4-10.9-12c0-6.5,4.1-12,10.9-12c5.2,0,9.2,2.9,9.7,7.8H277z"/>
	<path class="st16" d="M284.2,230.7h3.6v8.5h0.1c0.9-1.5,2.8-2.6,5-2.6c3.6,0,5.9,1.9,5.9,5.6v11.4h-3.6v-10.4
		c-0.1-2.6-1.1-3.7-3.2-3.7c-2.4,0-4,1.9-4,4.4v9.8h-3.6V230.7z"/>
	<path class="st16" d="M316.4,249.9c0,0.9,0.2,1.2,0.9,1.2h0.4c0.2,0,0.3,0,0.5-0.1v2.5c-0.5,0.2-1.7,0.4-2.3,0.4
		c-1.5,0-2.5-0.5-2.8-2c-1.4,1.4-3.8,2-5.7,2c-3,0-5.7-1.6-5.7-4.8c0-4.1,3.3-4.8,6.4-5.2c2.7-0.5,5-0.2,5-2.3c0-1.9-2-2.2-3.4-2.2
		c-2,0-3.5,0.8-3.6,2.6h-3.6c0.3-4.3,3.8-5.5,7.5-5.5c3.2,0,6.6,1.3,6.6,4.8V249.9z M312.8,245.3c-1.1,0.7-2.8,0.7-4.5,1
		c-1.6,0.3-3,0.8-3,2.8c0,1.7,2.1,2.1,3.4,2.1c1.6,0,4.1-0.8,4.1-3.1V245.3z"/>
	<path class="st16" d="M320.3,237h3.5v2.4l0.1,0.1c1.1-1.8,3-2.9,5.2-2.9c3.6,0,5.9,1.9,5.9,5.6v11.4h-3.6v-10.4
		c-0.1-2.6-1.1-3.7-3.2-3.7c-2.4,0-4,1.9-4,4.4v9.8h-3.6V237z"/>
	<path class="st16" d="M354,252.7c0,5-2.9,7.4-8.1,7.4c-3.3,0-7-1.3-7.4-5.2h3.6c0.4,2.1,2.1,2.4,4,2.4c2.9,0,4.3-1.5,4.3-4.2v-2.5
		h-0.1c-1,1.8-2.9,2.9-5,2.9c-5.2,0-7.4-4-7.4-8.7c0-4.4,2.8-8.3,7.5-8.3c2.1,0,4,0.8,4.9,2.7h0.1V237h3.6V252.7z M350.4,244.9
		c0-2.8-1.3-5.5-4.4-5.5c-3.2,0-4.4,3-4.4,5.8c0,2.7,1.3,5.5,4.4,5.5C349.1,250.7,350.4,247.8,350.4,244.9z"/>
	<path class="st16" d="M360.5,246.2c0,2.6,1.4,4.9,4.4,4.9c2.1,0,3.4-0.9,4-2.8h3.5c-0.8,3.6-3.9,5.6-7.5,5.6
		c-5.2,0-8.1-3.6-8.1-8.7c0-4.7,3.1-8.7,8-8.7c5.2,0,8.4,4.7,7.8,9.7H360.5z M369,243.8c-0.2-2.3-1.7-4.4-4.2-4.4
		c-2.5,0-4.3,1.9-4.4,4.4H369z"/>
	<path class="st16" d="M277,276.4c-0.7-2.7-2.4-4.5-5.7-4.5c-4.9,0-6.9,4.3-6.9,8.7c0,4.4,2,8.7,6.9,8.7c3.6,0,5.5-2.7,5.8-6h3.9
		c-0.4,5.5-4.2,9.2-9.7,9.2c-6.8,0-10.9-5.4-10.9-12c0-6.5,4.1-12,10.9-12c5.2,0,9.2,2.9,9.7,7.8H277z"/>
	<path class="st16" d="M283.4,283.7c0-5,3.1-8.7,8.4-8.7c5.3,0,8.4,3.7,8.4,8.7c0,5.1-3.1,8.7-8.4,8.7
		C286.5,292.4,283.4,288.8,283.4,283.7z M296.5,283.7c0-2.8-1.4-5.8-4.7-5.8s-4.7,3-4.7,5.8c0,2.9,1.4,5.9,4.7,5.9
		S296.5,286.6,296.5,283.7z"/>
	<path class="st16" d="M302.4,283.7c0-5,3.1-8.7,8.4-8.7c5.3,0,8.4,3.7,8.4,8.7c0,5.1-3.1,8.7-8.4,8.7
		C305.5,292.4,302.4,288.8,302.4,283.7z M315.4,283.7c0-2.8-1.4-5.8-4.7-5.8s-4.7,3-4.7,5.8c0,2.9,1.4,5.9,4.7,5.9
		S315.4,286.6,315.4,283.7z"/>
	<path class="st16" d="M322.1,275.4h3.4v3.2h0.1c0.4-1.8,2.6-3.6,4.8-3.6c0.9,0,1,0.1,1.4,0.1v3.5c-0.5-0.1-1.1-0.2-1.6-0.2
		c-2.5,0-4.5,2-4.5,5.7v7.9h-3.6V275.4z"/>
	<path class="st16" d="M349,292h-3.5v-2.2h-0.1c-1,1.9-3,2.7-5.1,2.7c-5.2,0-7.7-3.9-7.7-8.8c0-6,3.6-8.6,7.2-8.6
		c2,0,4.4,0.8,5.5,2.6h0.1v-8.4h3.6V292z M340.8,289.5c3.2,0,4.6-3,4.6-5.9c0-3.7-1.8-5.8-4.6-5.8c-3.4,0-4.6,3.1-4.6,6
		C336.2,286.7,337.7,289.5,340.8,289.5z"/>
	<path class="st16" d="M353,269.1h3.6v3.5H353V269.1z M353,275.4h3.6V292H353V275.4z"/>
	<path class="st16" d="M360.7,275.4h3.5v2.4l0.1,0.1c1.1-1.8,3-2.9,5.2-2.9c3.6,0,5.9,1.9,5.9,5.6V292h-3.6v-10.4
		c-0.1-2.6-1.1-3.7-3.2-3.7c-2.4,0-4,1.9-4,4.4v9.8h-3.6V275.4z"/>
	<path class="st16" d="M392.9,288.3c0,0.9,0.2,1.2,0.9,1.2h0.4c0.2,0,0.3,0,0.5-0.1v2.5c-0.5,0.2-1.7,0.4-2.3,0.4
		c-1.5,0-2.5-0.5-2.8-2c-1.4,1.4-3.8,2-5.7,2c-3,0-5.7-1.6-5.7-4.8c0-4.1,3.3-4.8,6.4-5.2c2.7-0.5,5-0.2,5-2.3c0-1.9-2-2.2-3.4-2.2
		c-2,0-3.5,0.8-3.6,2.6h-3.6c0.3-4.3,3.8-5.5,7.5-5.5c3.2,0,6.6,1.3,6.6,4.8V288.3z M389.2,283.7c-1.1,0.7-2.8,0.7-4.5,1
		c-1.6,0.3-3,0.8-3,2.8c0,1.7,2.1,2.1,3.4,2.1c1.6,0,4.1-0.8,4.1-3.1V283.7z"/>
	<path class="st16" d="M395.2,275.4h2.8v-5h3.6v5h3.3v2.7h-3.3v8.8c0,1.5,0.1,2.3,1.8,2.3c0.5,0,1,0,1.5-0.1v2.8
		c-0.8,0.1-1.6,0.2-2.4,0.2c-3.8,0-4.5-1.5-4.6-4.2v-9.8h-2.8V275.4z"/>
	<path class="st16" d="M406.7,283.7c0-5,3.1-8.7,8.4-8.7c5.3,0,8.4,3.7,8.4,8.7c0,5.1-3.1,8.7-8.4,8.7
		C409.8,292.4,406.7,288.8,406.7,283.7z M419.8,283.7c0-2.8-1.4-5.8-4.7-5.8s-4.7,3-4.7,5.8c0,2.9,1.4,5.9,4.7,5.9
		S419.8,286.6,419.8,283.7z"/>
	<path class="st16" d="M426.5,275.4h3.4v3.2h0.1c0.4-1.8,2.6-3.6,4.8-3.6c0.9,0,1,0.1,1.4,0.1v3.5c-0.5-0.1-1.1-0.2-1.6-0.2
		c-2.5,0-4.5,2-4.5,5.7v7.9h-3.6V275.4z"/>
</g>
<path class="st10" d="M210.3,358.6h-95.7c-5.5,0-10-4.5-10-10V240.7c0-5.5,4.5-10,10-10h95.7c5.5,0,10,4.5,10,10v107.9
	C220.3,354.1,215.8,358.6,210.3,358.6"/>
<g>
	<defs>
		<path id="SVGID_1_" d="M114.6,230.7c-5.5,0-10,4.5-10,10v107.9c0,5.5,4.5,10,10,10h95.7c5.5,0,10-4.5,10-10V240.7
			c0-5.5-4.5-10-10-10H114.6z"/>
	</defs>
	<clipPath id="SVGID_2_">
		<use xlink:href="#SVGID_1_"  style="overflow:visible;"/>
	</clipPath>
	<path class="st17" d="M148.9,288.3H175l2.8,32.4c0.2,2.3,2,4,4.2,4h0.5l-6.8,6.4l-13.4,19.5L149,330.7l-7-6l1-0.2
		c2-0.3,3.5-2,3.7-4.1L148.9,288.3z"/>
	<path class="st18" d="M162.3,350.7L162.3,350.7L149,330.8l-7-6l1-0.2c2-0.3,3.5-2,3.7-4.1l1.9-25.9h13.8v56.1H162.3z"/>
	<path class="st19" d="M147.3,311.1l29.7,0.1l0.1,1.4c-0.5,0.8-0.8,1.3-1.3,2.1c-3.8,5.7-8.8,9.5-13.6,9.5c-4.8,0-9.8-3.9-13.6-9.5
		c-0.6-0.9-1-1.5-1.5-2.4L147.3,311.1z"/>
	<path class="st20" d="M138.2,324.9l6.9-1.3l6.9,2.8c1.2,0.5,2,1.3,2.5,2.5l7.8,17.1l7.8-17.9c0.5-1.1,1.4-1.8,2.5-2.3l6.5-2.4
		l6,1.3l4.4,1.3l7.5,42.8h-69.3l6.5-42.3L138.2,324.9z"/>
	<path class="st21" d="M204.5,361.2c0.1-15.5-1-31.9-19.1-36.4c1.5,2.9,0.4,5.4,3.3,13.6l-13.7-7.6c-4.3,10.4-8.7,20.9-13,31.3
		l-13-31.3l-13.7,7.6c2.9-8,1.9-10.7,3.2-13.5c-17.4,4.8-18.5,21-18.4,36.2c0,4.2,3.4,7.7,7.5,7.7h69.3
		C201.1,368.8,204.5,365.4,204.5,361.2"/>
	<path class="st22" d="M142.2,309.9c-29.4-47.7,16.5-65.7,18.3-59.1c0.5,1.7,0.6,0.9,1.7,0.1c14-9.9,44.6,21.8,20,59.3
		c-1.6,0.4-3.5,0.8-5.6,1.1l-0.1,0.2c1.8-2.5,3.4-5.4,4.6-8.7c0.6-1.9,1.2-4,1.7-6c0.5-2.1,0.8-4.2,1.1-6.2c0.1-0.9,0.1-1.7,0.2-2.6
		c0-0.8,0.1-1.7,0.1-2.7v-1.7c0-0.5,0-1-0.1-1.6c-0.5-4.5-6.6-5.5-13.2-6.6c-7.7-1.3-15.9-2.6-19.2-9.5h-0.1
		c-3.3,2.8-9.4,8.1-10.7,17.9c-0.1,0.9-0.2,1.8-0.2,2.7v2.9c0.7,8.6,3.3,16.2,7.2,21.7C145.7,310.8,143.8,310.4,142.2,309.9"/>
	<path class="st23" d="M181.1,302.8c0.6-1.9,1.2-4,1.7-6c0.5-2.1,0.8-4.2,1.1-6.2c0.1-0.9,0.1-1.7,0.2-2.6c0-0.8,0.1-1.7,0.1-2.7
		v-1.7c0-0.5,0-1-0.1-1.6c-0.5-4.5-6.6-5.5-13.2-6.6c-7.7-1.3-15.9-2.6-19.2-9.5h-0.1c-3.3,2.8-9.5,8.1-10.7,17.9
		c-0.1,0.9-0.2,1.8-0.2,2.7v2.9c0.7,8.7,3.4,16.5,7.4,22c3.8,5.2,8.8,8.4,14.2,8.4c3.8,0,7.4-1.6,10.6-4.4
		C176.3,312.4,179.1,308.1,181.1,302.8"/>
	<path class="st24" d="M162.3,273.7c-4.6-1.3-8.6-3.5-10.6-7.8h-0.1c-3.3,2.8-9.4,8.1-10.7,17.9c-0.1,0.9-0.2,1.8-0.2,2.7v2.9
		c0.7,8.7,3.4,16.5,7.4,21.9c3.8,5.2,8.8,8.4,14.2,8.4V273.7z"/>
</g>
<g>
	<g>
		<path class="st7" d="M102.4,452.1h-3v-3.6h3V452.1z M99.4,455.4h3v18.1h-3V455.4z"/>
		<path class="st7" d="M108.8,467.8c0.1,2.7,2.5,3.5,4.9,3.5c1.9,0,4.4-0.4,4.4-2.7c0-4.7-11.8-1.5-11.8-8.5c0-3.6,3.6-5.1,6.8-5.1
			c4.1,0,7.1,1.3,7.4,5.7h-3c-0.2-2.3-2.3-3-4.2-3c-1.8,0-3.9,0.5-3.9,2.3c0,2.1,3.2,2.5,5.9,3.2c3,0.7,5.9,1.7,5.9,5.1
			c0,4.3-4,5.7-7.7,5.7c-4.1,0-7.5-1.6-7.7-6.1H108.8z"/>
		<path class="st7" d="M134.1,455.4h2.8v3.8h0.1c1.4-2.9,3.4-4.3,6.7-4.2v3.2c-4.8,0-6.5,2.7-6.5,7.3v8.1h-3V455.4z"/>
		<path class="st7" d="M161.3,467.7c-0.8,4-3.6,6.2-7.7,6.2c-5.8,0-8.5-4-8.7-9.5c0-5.5,3.6-9.4,8.5-9.4c6.4,0,8.4,6,8.2,10.4H148
			c-0.1,3.2,1.7,6,5.6,6c2.5,0,4.2-1.2,4.7-3.5H161.3z M158.4,462.7c-0.2-2.8-2.2-5.1-5.2-5.1c-3.1,0-5,2.3-5.2,5.1H158.4z"/>
		<path class="st7" d="M166.5,467.8c0.1,2.7,2.5,3.5,4.9,3.5c1.9,0,4.4-0.4,4.4-2.7c0-4.7-11.8-1.5-11.8-8.5c0-3.6,3.6-5.1,6.8-5.1
			c4.1,0,7.1,1.3,7.4,5.7h-3c-0.2-2.3-2.3-3-4.2-3c-1.8,0-3.9,0.5-3.9,2.3c0,2.1,3.2,2.5,5.9,3.2c3,0.7,5.9,1.7,5.9,5.1
			c0,4.3-4,5.7-7.7,5.7c-4.1,0-7.5-1.6-7.7-6.1H166.5z"/>
		<path class="st7" d="M182.3,455.4h3v2.5h0.1c1-2,3.3-2.9,5.8-2.9c5.6,0,8.3,4.4,8.3,9.5c0,5.1-2.7,9.4-8.3,9.4
			c-1.8,0-4.6-0.7-5.8-2.8h-0.1v9.3h-3V455.4z M190.7,457.6c-4,0-5.5,3.5-5.5,6.8c0,3.5,1.6,6.9,5.7,6.9c4.1,0,5.4-3.5,5.4-7
			C196.3,460.9,194.5,457.6,190.7,457.6z"/>
		<path class="st7" d="M210.7,455c5.7,0,8.8,4.2,8.8,9.5c0,5.3-3,9.5-8.8,9.5c-5.7,0-8.8-4.2-8.8-9.5C201.9,459.1,205,455,210.7,455
			z M210.7,471.3c3.1,0,5.6-2.5,5.6-6.8s-2.5-6.9-5.6-6.9s-5.6,2.5-5.6,6.9S207.6,471.3,210.7,471.3z"/>
		<path class="st7" d="M223,455.4h2.8v2.9h0.1c1.3-2.2,3.3-3.3,5.9-3.3c4.8,0,6.2,2.7,6.2,6.6v11.9h-3v-12.3c0-2.2-1.4-3.6-3.7-3.6
			c-3.6,0-5.4,2.4-5.4,5.7v10.2h-3V455.4z"/>
		<path class="st7" d="M244.3,467.8c0.1,2.7,2.5,3.5,4.9,3.5c1.9,0,4.4-0.4,4.4-2.7c0-4.7-11.8-1.5-11.8-8.5c0-3.6,3.6-5.1,6.8-5.1
			c4.1,0,7.1,1.3,7.4,5.7h-3c-0.2-2.3-2.3-3-4.2-3c-1.8,0-3.9,0.5-3.9,2.3c0,2.1,3.2,2.5,5.9,3.2c3,0.7,5.9,1.7,5.9,5.1
			c0,4.3-4,5.7-7.7,5.7c-4.1,0-7.5-1.6-7.7-6.1H244.3z"/>
		<path class="st7" d="M263.1,452.1h-3v-3.6h3V452.1z M260.1,455.4h3v18.1h-3V455.4z"/>
		<path class="st7" d="M267.8,448.5h3v9.3h0.1c1-2,3.3-2.9,5.8-2.9c5.6,0,8.3,4.4,8.3,9.5c0,5.1-2.7,9.4-8.3,9.4
			c-1.8,0-4.6-0.7-5.8-2.8h-0.1v2.4h-3V448.5z M276.2,457.6c-4,0-5.5,3.5-5.5,6.8c0,3.5,1.6,6.9,5.7,6.9c4.1,0,5.4-3.5,5.4-7
			C281.8,460.9,280.1,457.6,276.2,457.6z"/>
		<path class="st7" d="M288.7,448.5h3v25h-3V448.5z"/>
		<path class="st7" d="M311.7,467.7c-0.8,4-3.6,6.2-7.7,6.2c-5.8,0-8.5-4-8.7-9.5c0-5.5,3.6-9.4,8.5-9.4c6.4,0,8.4,6,8.2,10.4h-13.5
			c-0.1,3.2,1.7,6,5.6,6c2.5,0,4.2-1.2,4.7-3.5H311.7z M308.8,462.7c-0.2-2.8-2.2-5.1-5.2-5.1c-3.1,0-5,2.3-5.2,5.1H308.8z"/>
		<path class="st7" d="M326,458h-3v-2.6h3v-2.7c0-2.9,1.8-4.5,5-4.5c0.6,0,1.4,0.1,1.9,0.3v2.6c-0.5-0.2-1.2-0.2-1.7-0.2
			c-1.4,0-2.3,0.5-2.3,2v2.5h3.5v2.6H329v15.5h-3V458z"/>
		<path class="st7" d="M342.9,455c5.7,0,8.8,4.2,8.8,9.5c0,5.3-3,9.5-8.8,9.5c-5.7,0-8.8-4.2-8.8-9.5
			C334.2,459.1,337.2,455,342.9,455z M342.9,471.3c3.1,0,5.6-2.5,5.6-6.8s-2.5-6.9-5.6-6.9s-5.6,2.5-5.6,6.9
			S339.8,471.3,342.9,471.3z"/>
		<path class="st7" d="M355.1,455.4h2.8v3.8h0.1c1.4-2.9,3.4-4.3,6.7-4.2v3.2c-4.8,0-6.5,2.7-6.5,7.3v8.1h-3V455.4z"/>
		<path class="st7" d="M388.9,461.2c-0.5-2.3-2-3.6-4.5-3.6c-4.3,0-5.6,3.4-5.6,7.1c0,3.4,1.5,6.6,5.3,6.6c2.9,0,4.6-1.6,5-4.4h3
			c-0.7,4.4-3.4,7-8,7c-5.5,0-8.5-3.8-8.5-9.2c0-5.4,2.8-9.7,8.5-9.7c4.1,0,7.4,1.9,7.8,6.2H388.9z"/>
		<path class="st7" d="M395.6,448.5h3v25h-3V448.5z"/>
		<path class="st7" d="M411,455c5.7,0,8.8,4.2,8.8,9.5c0,5.3-3,9.5-8.8,9.5c-5.7,0-8.8-4.2-8.8-9.5C402.2,459.1,405.2,455,411,455z
			 M411,471.3c3.1,0,5.6-2.5,5.6-6.8s-2.5-6.9-5.6-6.9c-3.1,0-5.6,2.5-5.6,6.9S407.9,471.3,411,471.3z"/>
		<path class="st7" d="M425.1,467.8c0.1,2.7,2.5,3.5,4.9,3.5c1.9,0,4.4-0.4,4.4-2.7c0-4.7-11.8-1.5-11.8-8.5c0-3.6,3.6-5.1,6.8-5.1
			c4.1,0,7.1,1.3,7.4,5.7h-3c-0.2-2.3-2.3-3-4.2-3c-1.8,0-3.9,0.5-3.9,2.3c0,2.1,3.2,2.5,5.9,3.2c3,0.7,5.9,1.7,5.9,5.1
			c0,4.3-4,5.7-7.7,5.7c-4.1,0-7.5-1.6-7.7-6.1H425.1z"/>
		<path class="st7" d="M443.9,452.1h-3v-3.6h3V452.1z M440.9,455.4h3v18.1h-3V455.4z"/>
		<path class="st7" d="M448.5,455.4h2.8v2.9h0.1c1.3-2.2,3.3-3.3,5.9-3.3c4.8,0,6.2,2.7,6.2,6.6v11.9h-3v-12.3
			c0-2.2-1.4-3.6-3.7-3.6c-3.6,0-5.4,2.4-5.4,5.7v10.2h-3V455.4z"/>
		<path class="st7" d="M483.6,471.9c0,5.9-2.7,8.9-8.4,8.9c-3.4,0-7.3-1.4-7.5-5.3h3c0.1,2.1,2.8,2.9,4.7,2.9c3.9,0,5.4-2.8,5.4-6.9
			v-1.2h-0.1c-1,2.2-3.3,3.3-5.6,3.3c-5.4,0-8.1-4.2-8.1-9.2c0-4.3,2.1-9.6,8.4-9.6c2.3,0,4.3,1,5.4,3h0v-2.6h2.8V471.9z
			 M480.7,464.1c0-3.2-1.4-6.5-5.1-6.5c-3.8,0-5.4,3.1-5.4,6.6c0,3.3,1.2,6.9,5.1,6.9S480.7,467.5,480.7,464.1z"/>
		<path class="st7" d="M501.9,455.4h3.6v2.6h-3.6v11.2c0,1.4,0.4,1.6,2.2,1.6h1.4v2.6h-2.3c-3.1,0-4.3-0.6-4.3-4V458h-3.1v-2.6h3.1
			V450h3V455.4z"/>
		<path class="st7" d="M508.8,448.5h3v9.6h0.1c0.9-2.2,3.6-3.1,5.7-3.1c4.8,0,6.2,2.7,6.2,6.6v11.9h-3v-12.3c0-2.2-1.4-3.6-3.7-3.6
			c-3.6,0-5.4,2.4-5.4,5.7v10.2h-3V448.5z"/>
		<path class="st7" d="M543.7,467.7c-0.8,4-3.6,6.2-7.7,6.2c-5.8,0-8.5-4-8.7-9.5c0-5.5,3.6-9.4,8.5-9.4c6.4,0,8.4,6,8.2,10.4h-13.5
			c-0.1,3.2,1.7,6,5.6,6c2.5,0,4.2-1.2,4.7-3.5H543.7z M540.9,462.7c-0.2-2.8-2.2-5.1-5.2-5.1c-3.1,0-5,2.3-5.2,5.1H540.9z"/>
		<path class="st7" d="M111.5,501.2c-0.5-2.3-2-3.6-4.5-3.6c-4.3,0-5.6,3.4-5.6,7.1c0,3.4,1.5,6.6,5.3,6.6c2.9,0,4.6-1.6,5-4.4h3
			c-0.7,4.4-3.4,7-8,7c-5.5,0-8.5-3.8-8.5-9.2c0-5.4,2.8-9.7,8.5-9.7c4.1,0,7.4,1.9,7.8,6.2H111.5z"/>
		<path class="st7" d="M118,488.5h3v9.6h0.1c0.9-2.2,3.6-3.1,5.7-3.1c4.8,0,6.2,2.7,6.2,6.6v11.9h-3v-12.3c0-2.2-1.4-3.6-3.7-3.6
			c-3.6,0-5.4,2.4-5.4,5.7v10.2h-3V488.5z"/>
		<path class="st7" d="M153.5,513.4c-0.5,0.3-1.3,0.5-2.1,0.5c-1.5,0-2.5-0.8-2.5-2.8c-1.6,2-3.9,2.8-6.4,2.8c-3.3,0-6-1.4-6-5.1
			c0-4.1,3-5,6.1-5.6c3.3-0.7,6.1-0.4,6.1-2.7c0-2.6-2.2-3-4-3c-2.5,0-4.4,0.8-4.5,3.4h-3c0.2-4.5,3.6-6.1,7.7-6.1
			c3.3,0,6.8,0.7,6.8,5v9.3c0,1.4,0,2,0.9,2c0.3,0,0.6-0.1,0.9-0.2V513.4z M148.7,504.1c-2.3,1.7-9,0-9,4.5c0,2,1.7,2.7,3.5,2.7
			c3.9,0,5.5-2.4,5.5-4.1V504.1z"/>
		<path class="st7" d="M156.3,495.4h2.8v2.9h0.1c1.3-2.2,3.3-3.3,5.9-3.3c4.8,0,6.2,2.7,6.2,6.6v11.9h-3v-12.3
			c0-2.2-1.4-3.6-3.7-3.6c-3.6,0-5.4,2.4-5.4,5.7v10.2h-3V495.4z"/>
		<path class="st7" d="M191.3,511.9c0,5.9-2.7,8.9-8.4,8.9c-3.4,0-7.3-1.4-7.5-5.3h3c0.1,2.1,2.8,2.9,4.7,2.9c3.9,0,5.4-2.8,5.4-6.9
			v-1.2h-0.1c-1,2.2-3.3,3.3-5.6,3.3c-5.4,0-8.1-4.2-8.1-9.2c0-4.3,2.1-9.6,8.4-9.6c2.3,0,4.3,1,5.4,3h0v-2.6h2.8V511.9z
			 M188.4,504.1c0-3.2-1.4-6.5-5.1-6.5c-3.8,0-5.4,3.1-5.4,6.6c0,3.3,1.2,6.9,5.1,6.9S188.4,507.5,188.4,504.1z"/>
		<path class="st7" d="M211.2,507.7c-0.8,4-3.6,6.2-7.7,6.2c-5.8,0-8.5-4-8.7-9.5c0-5.5,3.6-9.4,8.5-9.4c6.4,0,8.4,6,8.2,10.4H198
			c-0.1,3.2,1.7,6,5.6,6c2.5,0,4.2-1.2,4.7-3.5H211.2z M208.4,502.7c-0.2-2.8-2.2-5.1-5.2-5.1c-3.1,0-5,2.3-5.2,5.1H208.4z"/>
		<path class="st7" d="M224.2,495.4h2.8v3.8h0.1c1.4-2.9,3.4-4.3,6.7-4.2v3.2c-4.8,0-6.5,2.7-6.5,7.3v8.1h-3V495.4z"/>
		<path class="st7" d="M251.4,507.7c-0.8,4-3.6,6.2-7.7,6.2c-5.8,0-8.5-4-8.7-9.5c0-5.5,3.6-9.4,8.5-9.4c6.4,0,8.4,6,8.2,10.4h-13.5
			c-0.1,3.2,1.7,6,5.6,6c2.5,0,4.2-1.2,4.7-3.5H251.4z M248.5,502.7c-0.2-2.8-2.2-5.1-5.2-5.1c-3.1,0-5,2.3-5.2,5.1H248.5z"/>
		<path class="st7" d="M270.9,520.4h-3V511h-0.1c-1,2-3.3,2.9-5.8,2.9c-5.6,0-8.3-4.4-8.3-9.5c0-5.1,2.7-9.4,8.3-9.4
			c1.8,0,4.6,0.7,5.8,2.8h0.1v-2.4h3V520.4z M262.5,511.3c4,0,5.5-3.5,5.5-6.8c0-3.5-1.6-6.9-5.7-6.9c-4.1,0-5.4,3.5-5.4,7
			C256.9,508,258.7,511.3,262.5,511.3z"/>
		<path class="st7" d="M290.5,513.5h-2.8v-2.9h-0.1c-1.3,2.2-3.3,3.3-5.9,3.3c-4.8,0-6.2-2.7-6.2-6.6v-11.9h3v12.3
			c0,2.2,1.4,3.6,3.7,3.6c3.6,0,5.4-2.4,5.4-5.7v-10.2h3V513.5z"/>
		<path class="st7" d="M310.4,507.7c-0.8,4-3.6,6.2-7.7,6.2c-5.8,0-8.5-4-8.7-9.5c0-5.5,3.6-9.4,8.5-9.4c6.4,0,8.4,6,8.2,10.4h-13.5
			c-0.1,3.2,1.7,6,5.6,6c2.5,0,4.2-1.2,4.7-3.5H310.4z M307.6,502.7c-0.2-2.8-2.2-5.1-5.2-5.1c-3.1,0-5,2.3-5.2,5.1H307.6z"/>
		<path class="st7" d="M315.6,507.8c0.1,2.7,2.5,3.5,4.9,3.5c1.9,0,4.4-0.4,4.4-2.7c0-4.7-11.8-1.5-11.8-8.5c0-3.6,3.6-5.1,6.8-5.1
			c4.1,0,7.1,1.3,7.4,5.7h-3c-0.2-2.3-2.3-3-4.2-3c-1.8,0-3.9,0.5-3.9,2.3c0,2.1,3.2,2.5,5.9,3.1c3,0.7,5.9,1.7,5.9,5.1
			c0,4.3-4,5.7-7.7,5.7c-4.1,0-7.5-1.6-7.7-6.1H315.6z"/>
		<path class="st7" d="M335.4,495.4h3.6v2.6h-3.6v11.2c0,1.4,0.4,1.6,2.2,1.6h1.4v2.6h-2.3c-3.1,0-4.3-0.6-4.3-4V498h-3.1v-2.6h3.1
			V490h3V495.4z"/>
		<path class="st7" d="M343,509.6h3.9v3.9H343V509.6z"/>
	</g>
</g>
<g>
</g>
<g>
</g>
<g>
</g>
<g>
</g>
<g>
</g>
<g>
</g>
<g>
</g>
</svg>
