<?xml version="1.0" encoding="utf-8"?>
<!-- Generator: Adobe Illustrator 16.0.3, SVG Export Plug-In . SVG Version: 6.00 Build 0)  -->
<!DOCTYPE svg PUBLIC "-//W3C//DTD SVG 1.1//EN" "http://www.w3.org/Graphics/SVG/1.1/DTD/svg11.dtd">
<svg version="1.1" id="Layer_1" xmlns="http://www.w3.org/2000/svg" xmlns:xlink="http://www.w3.org/1999/xlink" x="0px" y="0px"
	 width="2048px" height="1000px" viewBox="0 0 2048 1000" enable-background="new 0 0 2048 1000" xml:space="preserve">
<rect fill="#B9E5FB" width="2048" height="1000"/>
<rect fill="#4EA8DE" width="762.932" height="1000"/>
<rect x="1" y="784.444" fill="#116BB4" width="2047" height="215.556"/>
<g>
	<g>
		<g>
			<polygon fill="#FFFFFF" points="1814.952,915.737 1814.952,470.497 1814.952,274.075 1659.956,133.314 951.41,133.314 
				951.41,915.737 			"/>
			<g>
				<polygon fill="#2C5871" points="1659.956,274.075 1814.952,274.075 1659.956,133.314 				"/>
				<polygon fill="#D1ECFB" points="1814.952,274.075 1659.956,274.075 1814.952,414.814 				"/>
			</g>
		</g>
	</g>
</g>
<line fill="none" stroke="#343636" stroke-width="3.7584" stroke-miterlimit="10" x1="806.522" y1="41.219" x2="1946.545" y2="41.219"/>
<path fill="#FFFFFF" d="M697.932,519.207c0,10.377-9.147,18.791-20.432,18.791H80.021c-11.284,0-20.432-8.414-20.432-18.791V202.626
	c0-10.378,9.147-18.791,20.432-18.791H677.5c11.284,0,20.432,8.413,20.432,18.791V519.207z"/>
<path fill="#EFEFF0" d="M697.932,519.207c0,10.377-6.141,18.791-13.716,18.791H283.134V183.835h401.082
	c7.575,0,13.716,8.413,13.716,18.791V519.207z"/>
<g>
	<g>
		<path fill="#333333" d="M1027.404,293.891c3.961,0,7.16,3.16,7.16,7.119c0,3.959-3.199,7.159-7.16,7.159
			c-3.958,0-7.118-3.2-7.118-7.159C1020.287,297.051,1023.446,293.891,1027.404,293.891z"/>
		<path fill="#333333" d="M1074.844,286.053c9.08,0,13.678,7.159,13.678,14.957c0,7.799-4.598,14.958-13.678,14.958
			c-9.078,0-13.678-7.159-13.678-14.958C1061.166,293.211,1065.766,286.053,1074.844,286.053z M1074.844,312.768
			c6.959,0,9.879-5.999,9.879-11.758c0-5.759-2.92-11.758-9.879-11.758s-9.877,5.999-9.877,11.758
			C1064.967,306.769,1067.885,312.768,1074.844,312.768z"/>
		<path fill="#333333" d="M1092.605,294.611h3.199v3.28h0.08c1.439-2.56,3.721-3.759,6.719-3.759c5.439,0,7.119,3.119,7.119,7.559
			v13.598h-3.398V301.29c0-2.56-1.6-4.159-4.199-4.159c-4.119,0-6.119,2.759-6.119,6.479v11.678h-3.4V294.611z"/>
		<path fill="#333333" d="M1128.885,301.25c-0.521-2.6-2.281-4.119-5.119-4.119c-4.92,0-6.439,3.919-6.439,8.079
			c0,3.839,1.719,7.559,6.039,7.559c3.318,0,5.238-1.88,5.678-5.039h3.48c-0.76,5.079-3.879,8.039-9.119,8.039
			c-6.318,0-9.678-4.359-9.678-10.558c0-6.199,3.199-11.078,9.758-11.078c4.719,0,8.398,2.199,8.918,7.119H1128.885z"/>
		<path fill="#333333" d="M1153.963,308.729c-0.92,4.6-4.16,7.039-8.838,7.039c-6.6,0-9.719-4.599-9.92-10.878
			c0-6.239,4.08-10.758,9.719-10.758c7.318,0,9.559,6.839,9.359,11.838h-15.479c-0.119,3.599,1.92,6.799,6.439,6.799
			c2.84,0,4.76-1.32,5.359-4.04H1153.963z M1150.684,302.97c-0.201-3.24-2.561-5.839-5.959-5.839c-3.52,0-5.719,2.639-5.92,5.839
			H1150.684z"/>
		<path fill="#333333" d="M1173.645,294.611h4.119v3h-4.119v12.838c0,1.6,0.439,1.84,2.559,1.84h1.561v3h-2.6
			c-3.52,0-4.92-0.72-4.92-4.519V297.61h-3.518v-3h3.518v-6.199h3.4V294.611z"/>
		<path fill="#333333" d="M1181.525,286.732h3.398v10.918h0.08c1.08-2.52,4.08-3.519,6.52-3.519c5.439,0,7.119,3.119,7.119,7.559
			v13.598h-3.4V301.29c0-2.56-1.6-4.159-4.199-4.159c-4.119,0-6.119,2.759-6.119,6.479v11.678h-3.398V286.732z"/>
		<path fill="#333333" d="M1221.402,308.729c-0.92,4.6-4.16,7.039-8.838,7.039c-6.6,0-9.719-4.599-9.92-10.878
			c0-6.239,4.08-10.758,9.719-10.758c7.318,0,9.559,6.839,9.359,11.838h-15.479c-0.119,3.599,1.92,6.799,6.439,6.799
			c2.84,0,4.76-1.32,5.359-4.04H1221.402z M1218.123,302.97c-0.201-3.24-2.561-5.839-5.959-5.839c-3.52,0-5.719,2.639-5.92,5.839
			H1218.123z"/>
		<path fill="#333333" d="M1250.402,301.25c-0.52-2.6-2.279-4.119-5.119-4.119c-4.92,0-6.439,3.919-6.439,8.079
			c0,3.839,1.721,7.559,6.039,7.559c3.32,0,5.24-1.88,5.68-5.039h3.479c-0.76,5.079-3.879,8.039-9.117,8.039
			c-6.32,0-9.68-4.359-9.68-10.558c0-6.199,3.201-11.078,9.76-11.078c4.719,0,8.398,2.199,8.918,7.119H1250.402z"/>
		<path fill="#333333" d="M1257.844,286.732h3.4v10.918h0.08c1.08-2.52,4.078-3.519,6.518-3.519c5.439,0,7.119,3.119,7.119,7.559
			v13.598h-3.398V301.29c0-2.56-1.6-4.159-4.199-4.159c-4.119,0-6.119,2.759-6.119,6.479v11.678h-3.4V286.732z"/>
		<path fill="#333333" d="M1298.402,315.208c-0.602,0.36-1.441,0.56-2.441,0.56c-1.76,0-2.879-0.96-2.879-3.2
			c-1.879,2.24-4.398,3.2-7.279,3.2c-3.758,0-6.838-1.64-6.838-5.799c0-4.679,3.479-5.719,6.998-6.359
			c3.721-0.76,6.959-0.44,6.959-3.04c0-2.999-2.479-3.439-4.6-3.439c-2.879,0-4.998,0.879-5.158,3.919h-3.4
			c0.201-5.119,4.121-6.918,8.76-6.918c3.719,0,7.758,0.84,7.758,5.679v10.638c0,1.6,0,2.32,1.08,2.32c0.32,0,0.68-0.08,1.041-0.2
			V315.208z M1292.883,304.609c-2.641,1.959-10.318,0.04-10.318,5.119c0,2.24,1.92,3.04,3.998,3.04c4.48,0,6.32-2.76,6.32-4.679
			V304.609z"/>
		<path fill="#333333" d="M1301.564,294.611h3.199v3.28h0.08c1.439-2.56,3.719-3.759,6.719-3.759c5.439,0,7.119,3.119,7.119,7.559
			v13.598h-3.4V301.29c0-2.56-1.6-4.159-4.199-4.159c-4.119,0-6.119,2.759-6.119,6.479v11.678h-3.398V294.611z"/>
		<path fill="#333333" d="M1341.641,313.528c0,6.759-3.039,10.158-9.598,10.158c-3.879,0-8.359-1.6-8.559-6.079h3.398
			c0.121,2.439,3.16,3.359,5.359,3.359c4.439,0,6.199-3.2,6.199-7.839v-1.36h-0.08c-1.16,2.52-3.799,3.759-6.439,3.759
			c-6.158,0-9.238-4.839-9.238-10.478c0-4.879,2.361-10.918,9.559-10.918c2.6,0,4.92,1.16,6.16,3.439h0.039v-2.96h3.199V313.528z
			 M1338.281,304.529c0-3.639-1.6-7.398-5.879-7.398c-4.359,0-6.119,3.559-6.119,7.519c0,3.719,1.359,7.878,5.84,7.878
			C1336.602,312.528,1338.281,308.409,1338.281,304.529z"/>
		<path fill="#333333" d="M1364.4,308.729c-0.92,4.6-4.158,7.039-8.838,7.039c-6.6,0-9.719-4.599-9.918-10.878
			c0-6.239,4.08-10.758,9.719-10.758c7.318,0,9.559,6.839,9.357,11.838h-15.477c-0.121,3.599,1.92,6.799,6.439,6.799
			c2.838,0,4.758-1.32,5.357-4.04H1364.4z M1361.121,302.97c-0.199-3.24-2.559-5.839-5.959-5.839c-3.52,0-5.719,2.639-5.918,5.839
			H1361.121z"/>
		<path fill="#333333" d="M1379.363,286.732h3.4v10.918h0.08c1.08-2.52,4.078-3.519,6.518-3.519c5.439,0,7.119,3.119,7.119,7.559
			v13.598h-3.398V301.29c0-2.56-1.6-4.159-4.199-4.159c-4.119,0-6.119,2.759-6.119,6.479v11.678h-3.4V286.732z"/>
		<path fill="#333333" d="M1419.922,315.208c-0.602,0.36-1.441,0.56-2.441,0.56c-1.76,0-2.879-0.96-2.879-3.2
			c-1.879,2.24-4.398,3.2-7.279,3.2c-3.758,0-6.838-1.64-6.838-5.799c0-4.679,3.479-5.719,6.998-6.359
			c3.721-0.76,6.959-0.44,6.959-3.04c0-2.999-2.479-3.439-4.6-3.439c-2.879,0-4.998,0.879-5.158,3.919h-3.4
			c0.201-5.119,4.121-6.918,8.76-6.918c3.719,0,7.758,0.84,7.758,5.679v10.638c0,1.6,0,2.32,1.08,2.32c0.32,0,0.68-0.08,1.041-0.2
			V315.208z M1414.402,304.609c-2.641,1.959-10.318,0.04-10.318,5.119c0,2.24,1.92,3.04,3.998,3.04c4.48,0,6.32-2.76,6.32-4.679
			V304.609z"/>
		<path fill="#333333" d="M1425.164,308.769c0.119,3.04,2.799,4,5.559,4c2.119,0,4.998-0.48,4.998-3.08
			c0-5.319-13.518-1.72-13.518-9.678c0-4.159,4.08-5.879,7.719-5.879c4.641,0,8.158,1.439,8.479,6.479h-3.398
			c-0.201-2.639-2.6-3.479-4.799-3.479c-2.041,0-4.4,0.56-4.4,2.639c0,2.4,3.6,2.88,6.76,3.6c3.398,0.76,6.758,1.919,6.758,5.879
			c0,4.959-4.6,6.519-8.799,6.519c-4.639,0-8.559-1.88-8.758-6.999H1425.164z"/>
		<path fill="#333333" d="M1454.324,286.732h3.398v10.678h0.08c1.119-2.28,3.719-3.279,6.6-3.279c6.359,0,9.518,5.039,9.518,10.878
			c0,5.879-3.119,10.758-9.438,10.758c-2.08,0-5.199-0.8-6.68-3.24h-0.08v2.76h-3.398V286.732z M1463.922,297.131
			c-4.6,0-6.318,3.959-6.318,7.798c0,4.04,1.84,7.839,6.518,7.839c4.641,0,6.199-3.959,6.199-7.999
			C1470.32,300.89,1468.32,297.131,1463.922,297.131z"/>
		<path fill="#333333" d="M1495.561,308.729c-0.92,4.6-4.16,7.039-8.838,7.039c-6.6,0-9.719-4.599-9.92-10.878
			c0-6.239,4.08-10.758,9.719-10.758c7.318,0,9.559,6.839,9.359,11.838h-15.479c-0.119,3.599,1.92,6.799,6.439,6.799
			c2.84,0,4.76-1.32,5.359-4.04H1495.561z M1492.281,302.97c-0.201-3.24-2.561-5.839-5.959-5.839c-3.52,0-5.719,2.639-5.92,5.839
			H1492.281z"/>
		<path fill="#333333" d="M1517.039,308.729c-0.92,4.6-4.158,7.039-8.838,7.039c-6.6,0-9.719-4.599-9.918-10.878
			c0-6.239,4.08-10.758,9.719-10.758c7.318,0,9.559,6.839,9.357,11.838h-15.477c-0.121,3.599,1.92,6.799,6.439,6.799
			c2.838,0,4.758-1.32,5.357-4.04H1517.039z M1513.76,302.97c-0.199-3.24-2.559-5.839-5.959-5.839c-3.52,0-5.719,2.639-5.918,5.839
			H1513.76z"/>
		<path fill="#333333" d="M1520.883,294.611h3.199v3.28h0.08c1.439-2.56,3.719-3.759,6.719-3.759c5.439,0,7.119,3.119,7.119,7.559
			v13.598h-3.4V301.29c0-2.56-1.6-4.159-4.199-4.159c-4.119,0-6.119,2.759-6.119,6.479v11.678h-3.398V294.611z"/>
		<path fill="#333333" d="M1555.643,297.61h-3.48v-3h3.48v-3.079c0-3.359,2-5.119,5.719-5.119c0.641,0,1.561,0.12,2.199,0.32v2.959
			c-0.6-0.2-1.318-0.28-1.92-0.28c-1.639,0-2.6,0.52-2.6,2.319v2.879h4v3h-4v17.677h-3.398V297.61z"/>
		<path fill="#333333" d="M1583.199,315.288H1580v-3.279h-0.08c-1.439,2.56-3.719,3.759-6.719,3.759
			c-5.439,0-7.119-3.12-7.119-7.559v-13.598h3.4v13.998c0,2.56,1.6,4.159,4.199,4.159c4.119,0,6.119-2.76,6.119-6.479v-11.678h3.398
			V315.288z"/>
		<path fill="#333333" d="M1588.523,286.732h3.398v28.555h-3.398V286.732z"/>
		<path fill="#333333" d="M1597.402,286.732h3.4v28.555h-3.4V286.732z"/>
		<path fill="#333333" d="M1614.199,318.047c-1.6,3.999-2.959,5.519-5.998,5.519c-0.801,0-1.6-0.08-2.359-0.36v-3.119
			c0.641,0.2,1.32,0.48,2,0.48c1.398,0,2.158-0.64,2.799-1.88l1.4-3.52l-8.199-20.557h3.84l6.039,16.917h0.08l5.799-16.917h3.6
			L1614.199,318.047z"/>
		<path fill="#333333" d="M1068.566,338.892h-3.4v-4.159h3.4V338.892z M1065.166,342.611h3.4v20.677h-3.4V342.611z"/>
		<path fill="#333333" d="M1073.846,342.611h3.199v3.04h0.08c1.559-2.359,3.76-3.519,6.678-3.519c2.561,0,4.84,0.959,5.68,3.519
			c1.4-2.239,3.799-3.519,6.479-3.519c4.119,0,6.879,1.72,6.879,5.999v15.157h-3.398V349.73c0-2.56-0.68-4.599-4-4.599
			c-3.318,0-5.398,2.08-5.398,5.279v12.878h-3.4V349.73c0-2.68-0.84-4.599-3.879-4.599c-4,0-5.52,3.679-5.52,5.279v12.878h-3.398
			V342.611z"/>
		<path fill="#333333" d="M1108.086,342.611h3.398v2.8h0.08c1.119-2.28,3.719-3.279,6.6-3.279c6.359,0,9.518,5.039,9.518,10.878
			c0,5.879-3.119,10.758-9.438,10.758c-2.08,0-5.199-0.8-6.68-3.24h-0.08v10.678h-3.398V342.611z M1117.684,345.131
			c-4.6,0-6.318,3.959-6.318,7.798c0,4.04,1.84,7.839,6.518,7.839c4.641,0,6.199-3.959,6.199-7.999
			C1124.082,348.89,1122.082,345.131,1117.684,345.131z"/>
		<path fill="#333333" d="M1131.885,334.732h3.4v28.555h-3.4V334.732z"/>
		<path fill="#333333" d="M1158.201,356.729c-0.92,4.6-4.16,7.039-8.838,7.039c-6.6,0-9.719-4.599-9.92-10.878
			c0-6.239,4.08-10.758,9.719-10.758c7.318,0,9.559,6.839,9.359,11.838h-15.479c-0.119,3.599,1.92,6.799,6.439,6.799
			c2.84,0,4.76-1.32,5.359-4.04H1158.201z M1154.922,350.97c-0.201-3.24-2.561-5.839-5.959-5.839c-3.52,0-5.719,2.639-5.92,5.839
			H1154.922z"/>
		<path fill="#333333" d="M1162.043,342.611h3.199v3.04h0.08c1.561-2.359,3.76-3.519,6.68-3.519c2.559,0,4.84,0.959,5.68,3.519
			c1.398-2.239,3.799-3.519,6.479-3.519c4.119,0,6.879,1.72,6.879,5.999v15.157h-3.4V349.73c0-2.56-0.68-4.599-3.998-4.599
			c-3.32,0-5.4,2.08-5.4,5.279v12.878h-3.398V349.73c0-2.68-0.84-4.599-3.879-4.599c-4,0-5.52,3.679-5.52,5.279v12.878h-3.4V342.611
			z"/>
		<path fill="#333333" d="M1213.801,356.729c-0.92,4.6-4.16,7.039-8.838,7.039c-6.6,0-9.719-4.599-9.92-10.878
			c0-6.239,4.08-10.758,9.719-10.758c7.318,0,9.559,6.839,9.359,11.838h-15.479c-0.119,3.599,1.92,6.799,6.439,6.799
			c2.84,0,4.76-1.32,5.359-4.04H1213.801z M1210.521,350.97c-0.201-3.24-2.561-5.839-5.959-5.839c-3.52,0-5.719,2.639-5.92,5.839
			H1210.521z"/>
		<path fill="#333333" d="M1217.643,342.611h3.199v3.28h0.08c1.439-2.56,3.721-3.759,6.719-3.759c5.439,0,7.119,3.119,7.119,7.559
			v13.598h-3.398V349.29c0-2.56-1.6-4.159-4.199-4.159c-4.119,0-6.119,2.759-6.119,6.479v11.678h-3.4V342.611z"/>
		<path fill="#333333" d="M1244.602,342.611h4.121v3h-4.121v12.838c0,1.6,0.441,1.84,2.561,1.84h1.561v3h-2.6
			c-3.52,0-4.92-0.72-4.92-4.519V345.61h-3.52v-3h3.52v-6.199h3.398V342.611z"/>
		<path fill="#333333" d="M1270.119,356.729c-0.92,4.6-4.158,7.039-8.838,7.039c-6.6,0-9.719-4.599-9.918-10.878
			c0-6.239,4.08-10.758,9.719-10.758c7.318,0,9.559,6.839,9.357,11.838h-15.477c-0.121,3.599,1.92,6.799,6.439,6.799
			c2.838,0,4.758-1.32,5.357-4.04H1270.119z M1266.84,350.97c-0.199-3.24-2.559-5.839-5.959-5.839c-3.52,0-5.719,2.639-5.918,5.839
			H1266.84z"/>
		<path fill="#333333" d="M1292.439,363.288h-3.4v-2.799h-0.08c-1.119,2.279-3.719,3.279-6.598,3.279
			c-6.359,0-9.52-5.039-9.52-10.878c0-5.839,3.121-10.758,9.439-10.758c2.08,0,5.199,0.8,6.678,3.239h0.08v-10.638h3.4V363.288z
			 M1282.842,360.768c4.598,0,6.318-3.959,6.318-7.799c0-4.039-1.84-7.838-6.52-7.838c-4.639,0-6.199,3.959-6.199,7.999
			C1276.441,357.009,1278.441,360.768,1282.842,360.768z"/>
		<path fill="#333333" d="M1298.441,358.848h4.439v4.04c0,3.04-1.32,5.359-4.398,6.279v-2c1.76-0.64,2.439-2.56,2.318-3.879h-2.359
			V358.848z"/>
		<path fill="#333333" d="M1324.641,342.611h4.121v3h-4.121v12.838c0,1.6,0.441,1.84,2.561,1.84h1.561v3h-2.6
			c-3.52,0-4.92-0.72-4.92-4.519V345.61h-3.52v-3h3.52v-6.199h3.398V342.611z"/>
		<path fill="#333333" d="M1332.521,334.732h3.4v10.918h0.08c1.08-2.52,4.078-3.519,6.518-3.519c5.439,0,7.119,3.119,7.119,7.559
			v13.598h-3.398V349.29c0-2.56-1.6-4.159-4.199-4.159c-4.119,0-6.119,2.759-6.119,6.479v11.678h-3.4V334.732z"/>
		<path fill="#333333" d="M1372.398,356.729c-0.92,4.6-4.158,7.039-8.838,7.039c-6.6,0-9.719-4.599-9.918-10.878
			c0-6.239,4.08-10.758,9.719-10.758c7.318,0,9.559,6.839,9.357,11.838h-15.477c-0.121,3.599,1.92,6.799,6.439,6.799
			c2.838,0,4.758-1.32,5.357-4.04H1372.398z M1369.119,350.97c-0.199-3.24-2.559-5.839-5.959-5.839c-3.52,0-5.719,2.639-5.918,5.839
			H1369.119z"/>
		<path fill="#333333" d="M1407.998,343.331c-0.84-4.04-4-6.079-7.998-6.079c-6.799,0-9.678,5.599-9.678,11.558
			c0,6.519,2.879,11.958,9.717,11.958c4.959,0,7.92-3.52,8.238-8.239h3.801c-0.76,7.159-5.119,11.438-12.357,11.438
			c-8.84,0-13.199-6.559-13.199-14.877c0-8.318,4.719-15.037,13.518-15.037c5.959,0,10.918,3.199,11.758,9.278H1407.998z"/>
		<path fill="#333333" d="M1416.242,334.732h3.398v10.918h0.08c1.08-2.52,4.08-3.519,6.52-3.519c5.439,0,7.119,3.119,7.119,7.559
			v13.598h-3.4V349.29c0-2.56-1.6-4.159-4.199-4.159c-4.119,0-6.119,2.759-6.119,6.479v11.678h-3.398V334.732z"/>
		<path fill="#333333" d="M1456.799,363.208c-0.6,0.36-1.439,0.56-2.439,0.56c-1.76,0-2.879-0.96-2.879-3.2
			c-1.881,2.24-4.4,3.2-7.279,3.2c-3.76,0-6.84-1.64-6.84-5.799c0-4.679,3.48-5.719,7-6.359c3.719-0.76,6.959-0.44,6.959-3.04
			c0-2.999-2.48-3.439-4.6-3.439c-2.879,0-5,0.879-5.16,3.919h-3.398c0.199-5.119,4.119-6.918,8.758-6.918
			c3.721,0,7.76,0.84,7.76,5.679v10.638c0,1.6,0,2.32,1.08,2.32c0.318,0,0.68-0.08,1.039-0.2V363.208z M1451.279,352.609
			c-2.639,1.959-10.318,0.04-10.318,5.119c0,2.24,1.92,3.04,4,3.04c4.479,0,6.318-2.76,6.318-4.679V352.609z"/>
		<path fill="#333333" d="M1459.961,342.611h3.199v3.28h0.08c1.439-2.56,3.721-3.759,6.719-3.759c5.439,0,7.119,3.119,7.119,7.559
			v13.598h-3.398V349.29c0-2.56-1.6-4.159-4.199-4.159c-4.119,0-6.119,2.759-6.119,6.479v11.678h-3.4V342.611z"/>
		<path fill="#333333" d="M1500.039,361.528c0,6.759-3.039,10.158-9.6,10.158c-3.879,0-8.357-1.6-8.559-6.079h3.4
			c0.119,2.439,3.16,3.359,5.359,3.359c4.439,0,6.199-3.2,6.199-7.839v-1.36h-0.08c-1.16,2.52-3.801,3.759-6.439,3.759
			c-6.158,0-9.238-4.839-9.238-10.478c0-4.879,2.359-10.918,9.559-10.918c2.6,0,4.918,1.16,6.158,3.439h0.041v-2.96h3.199V361.528z
			 M1496.68,352.529c0-3.639-1.6-7.398-5.879-7.398c-4.359,0-6.119,3.559-6.119,7.519c0,3.719,1.359,7.878,5.838,7.878
			C1495,360.528,1496.68,356.409,1496.68,352.529z"/>
		<path fill="#333333" d="M1522.799,356.729c-0.92,4.6-4.16,7.039-8.838,7.039c-6.6,0-9.719-4.599-9.92-10.878
			c0-6.239,4.08-10.758,9.719-10.758c7.318,0,9.559,6.839,9.359,11.838h-15.479c-0.119,3.599,1.92,6.799,6.439,6.799
			c2.84,0,4.76-1.32,5.359-4.04H1522.799z M1519.52,350.97c-0.201-3.24-2.561-5.839-5.959-5.839c-3.52,0-5.719,2.639-5.92,5.839
			H1519.52z"/>
		<path fill="#333333" d="M1077.604,382.053c9.08,0,13.678,7.159,13.678,14.957c0,7.799-4.598,14.958-13.678,14.958
			c-9.078,0-13.678-7.159-13.678-14.958C1063.926,389.211,1068.525,382.053,1077.604,382.053z M1077.604,408.768
			c6.959,0,9.879-5.999,9.879-11.758c0-5.759-2.92-11.758-9.879-11.758s-9.877,5.999-9.877,11.758
			C1067.727,402.769,1070.645,408.768,1077.604,408.768z"/>
		<path fill="#333333" d="M1095.246,390.611h3.199v4.359h0.08c1.639-3.359,3.92-4.959,7.598-4.839v3.599
			c-5.479,0-7.479,3.08-7.479,8.359v9.198h-3.398V390.611z"/>
		<path fill="#333333" d="M1112.285,386.892h-3.4v-4.159h3.4V386.892z M1108.885,390.611h3.4v20.677h-3.4V390.611z"/>
		<path fill="#333333" d="M1135.4,409.528c0,6.759-3.039,10.158-9.598,10.158c-3.879,0-8.359-1.6-8.559-6.079h3.398
			c0.121,2.439,3.16,3.359,5.359,3.359c4.439,0,6.199-3.2,6.199-7.839v-1.36h-0.08c-1.16,2.52-3.799,3.759-6.439,3.759
			c-6.158,0-9.238-4.839-9.238-10.478c0-4.879,2.361-10.918,9.559-10.918c2.6,0,4.92,1.16,6.16,3.439h0.039v-2.96h3.199V409.528z
			 M1132.041,400.529c0-3.639-1.6-7.398-5.879-7.398c-4.359,0-6.119,3.559-6.119,7.519c0,3.719,1.359,7.878,5.84,7.878
			C1130.361,408.528,1132.041,404.409,1132.041,400.529z"/>
		<path fill="#333333" d="M1144.123,386.892h-3.398v-4.159h3.398V386.892z M1140.725,390.611h3.398v20.677h-3.398V390.611z"/>
		<path fill="#333333" d="M1149.404,390.611h3.199v3.28h0.08c1.439-2.56,3.719-3.759,6.719-3.759c5.439,0,7.119,3.119,7.119,7.559
			v13.598h-3.4V397.29c0-2.56-1.6-4.159-4.199-4.159c-4.119,0-6.119,2.759-6.119,6.479v11.678h-3.398V390.611z"/>
		<path fill="#333333" d="M1189.961,411.208c-0.6,0.36-1.439,0.56-2.439,0.56c-1.76,0-2.879-0.96-2.879-3.2
			c-1.881,2.24-4.4,3.2-7.279,3.2c-3.76,0-6.84-1.64-6.84-5.799c0-4.679,3.48-5.719,7-6.359c3.719-0.76,6.959-0.44,6.959-3.04
			c0-2.999-2.48-3.439-4.6-3.439c-2.879,0-5,0.879-5.16,3.919h-3.398c0.199-5.119,4.119-6.918,8.758-6.918
			c3.721,0,7.76,0.84,7.76,5.679v10.638c0,1.6,0,2.32,1.08,2.32c0.318,0,0.68-0.08,1.039-0.2V411.208z M1184.441,400.609
			c-2.639,1.959-10.318,0.04-10.318,5.119c0,2.24,1.92,3.04,4,3.04c4.479,0,6.318-2.76,6.318-4.679V400.609z"/>
		<path fill="#333333" d="M1197.842,390.611h4.121v3h-4.121v12.838c0,1.6,0.441,1.84,2.561,1.84h1.561v3h-2.6
			c-3.52,0-4.92-0.72-4.92-4.519V393.61h-3.52v-3h3.52v-6.199h3.398V390.611z"/>
		<path fill="#333333" d="M1214.643,390.131c6.559,0,10.037,4.759,10.037,10.838c0,6.039-3.479,10.798-10.037,10.798
			c-6.561,0-10.039-4.759-10.039-10.798C1204.604,394.89,1208.082,390.131,1214.643,390.131z M1214.643,408.768
			c3.559,0,6.438-2.8,6.438-7.799s-2.879-7.838-6.438-7.838c-3.561,0-6.439,2.839-6.439,7.838S1211.082,408.768,1214.643,408.768z"
			/>
		<path fill="#333333" d="M1228.562,390.611h3.199v4.359h0.08c1.641-3.359,3.92-4.959,7.6-4.839v3.599
			c-5.479,0-7.479,3.08-7.479,8.359v9.198h-3.4V390.611z"/>
		<path fill="#333333" d="M1256.723,386.892h-3.4v-4.159h3.4V386.892z M1253.322,390.611h3.4v20.677h-3.4V390.611z"/>
		<path fill="#333333" d="M1264.082,404.769c0.119,3.04,2.799,4,5.559,4c2.119,0,4.998-0.48,4.998-3.08
			c0-5.319-13.518-1.72-13.518-9.678c0-4.159,4.08-5.879,7.719-5.879c4.641,0,8.158,1.439,8.479,6.479h-3.398
			c-0.201-2.639-2.6-3.479-4.799-3.479c-2.041,0-4.4,0.56-4.4,2.639c0,2.4,3.6,2.88,6.76,3.6c3.398,0.76,6.758,1.919,6.758,5.879
			c0,4.959-4.6,6.519-8.799,6.519c-4.639,0-8.559-1.88-8.758-6.999H1264.082z"/>
		<path fill="#333333" d="M1293.002,390.611h3.199v4.359h0.08c1.639-3.359,3.92-4.959,7.598-4.839v3.599
			c-5.479,0-7.479,3.08-7.479,8.359v9.198h-3.398V390.611z"/>
		<path fill="#333333" d="M1324.078,404.729c-0.92,4.6-4.16,7.039-8.838,7.039c-6.6,0-9.719-4.599-9.92-10.878
			c0-6.239,4.08-10.758,9.719-10.758c7.318,0,9.559,6.839,9.359,11.838h-15.479c-0.119,3.599,1.92,6.799,6.439,6.799
			c2.84,0,4.76-1.32,5.359-4.04H1324.078z M1320.799,398.97c-0.201-3.24-2.561-5.839-5.959-5.839c-3.52,0-5.719,2.639-5.92,5.839
			H1320.799z"/>
		<path fill="#333333" d="M1330,404.769c0.119,3.04,2.799,4,5.559,4c2.121,0,5-0.48,5-3.08c0-5.319-13.518-1.72-13.518-9.678
			c0-4.159,4.078-5.879,7.719-5.879c4.639,0,8.158,1.439,8.479,6.479h-3.4c-0.199-2.639-2.6-3.479-4.799-3.479
			c-2.039,0-4.398,0.56-4.398,2.639c0,2.4,3.6,2.88,6.758,3.6c3.4,0.76,6.76,1.919,6.76,5.879c0,4.959-4.6,6.519-8.799,6.519
			c-4.639,0-8.559-1.88-8.758-6.999H1330z"/>
		<path fill="#333333" d="M1348.041,390.611h3.398v2.8h0.08c1.119-2.28,3.719-3.279,6.6-3.279c6.359,0,9.518,5.039,9.518,10.878
			c0,5.879-3.119,10.758-9.438,10.758c-2.08,0-5.199-0.8-6.68-3.24h-0.08v10.678h-3.398V390.611z M1357.639,393.131
			c-4.6,0-6.318,3.959-6.318,7.798c0,4.04,1.84,7.839,6.518,7.839c4.641,0,6.199-3.959,6.199-7.999
			C1364.037,396.89,1362.037,393.131,1357.639,393.131z"/>
		<path fill="#333333" d="M1380.559,390.131c6.559,0,10.039,4.759,10.039,10.838c0,6.039-3.48,10.798-10.039,10.798
			s-10.039-4.759-10.039-10.798C1370.52,394.89,1374,390.131,1380.559,390.131z M1380.559,408.768c3.559,0,6.439-2.8,6.439-7.799
			s-2.881-7.838-6.439-7.838s-6.439,2.839-6.439,7.838S1377,408.768,1380.559,408.768z"/>
		<path fill="#333333" d="M1394.6,390.611h3.199v3.28h0.08c1.439-2.56,3.721-3.759,6.719-3.759c5.439,0,7.119,3.119,7.119,7.559
			v13.598h-3.398V397.29c0-2.56-1.6-4.159-4.199-4.159c-4.119,0-6.119,2.759-6.119,6.479v11.678h-3.4V390.611z"/>
		<path fill="#333333" d="M1418.92,404.769c0.119,3.04,2.799,4,5.559,4c2.121,0,5-0.48,5-3.08c0-5.319-13.518-1.72-13.518-9.678
			c0-4.159,4.078-5.879,7.719-5.879c4.639,0,8.158,1.439,8.479,6.479h-3.4c-0.199-2.639-2.6-3.479-4.799-3.479
			c-2.039,0-4.398,0.56-4.398,2.639c0,2.4,3.6,2.88,6.758,3.6c3.4,0.76,6.76,1.919,6.76,5.879c0,4.959-4.6,6.519-8.799,6.519
			c-4.639,0-8.559-1.88-8.758-6.999H1418.92z"/>
		<path fill="#333333" d="M1440.439,386.892h-3.398v-4.159h3.398V386.892z M1437.041,390.611h3.398v20.677h-3.398V390.611z"/>
		<path fill="#333333" d="M1445.84,382.732h3.4v10.678h0.08c1.119-2.28,3.719-3.279,6.598-3.279c6.359,0,9.52,5.039,9.52,10.878
			c0,5.879-3.119,10.758-9.439,10.758c-2.08,0-5.199-0.8-6.678-3.24h-0.08v2.76h-3.4V382.732z M1455.439,393.131
			c-4.6,0-6.32,3.959-6.32,7.798c0,4.04,1.84,7.839,6.52,7.839c4.639,0,6.199-3.959,6.199-7.999
			C1461.838,396.89,1459.838,393.131,1455.439,393.131z"/>
		<path fill="#333333" d="M1469.641,382.732h3.398v28.555h-3.398V382.732z"/>
		<path fill="#333333" d="M1495.957,404.729c-0.92,4.6-4.16,7.039-8.838,7.039c-6.6,0-9.719-4.599-9.92-10.878
			c0-6.239,4.08-10.758,9.719-10.758c7.318,0,9.559,6.839,9.359,11.838h-15.479c-0.119,3.599,1.92,6.799,6.439,6.799
			c2.84,0,4.76-1.32,5.359-4.04H1495.957z M1492.678,398.97c-0.201-3.24-2.561-5.839-5.959-5.839c-3.52,0-5.719,2.639-5.92,5.839
			H1492.678z"/>
		<path fill="#333333" d="M1512.318,393.61h-3.479v-3h3.479v-3.079c0-3.359,2-5.119,5.721-5.119c0.639,0,1.559,0.12,2.199,0.32
			v2.959c-0.6-0.2-1.32-0.28-1.92-0.28c-1.641,0-2.6,0.52-2.6,2.319v2.879h4v3h-4v17.677h-3.4V393.61z"/>
		<path fill="#333333" d="M1531.678,390.131c6.559,0,10.039,4.759,10.039,10.838c0,6.039-3.48,10.798-10.039,10.798
			s-10.039-4.759-10.039-10.798C1521.639,394.89,1525.119,390.131,1531.678,390.131z M1531.678,408.768
			c3.559,0,6.439-2.8,6.439-7.799s-2.881-7.838-6.439-7.838s-6.439,2.839-6.439,7.838S1528.119,408.768,1531.678,408.768z"/>
		<path fill="#333333" d="M1545.6,390.611h3.199v4.359h0.08c1.639-3.359,3.92-4.959,7.598-4.839v3.599
			c-5.479,0-7.479,3.08-7.479,8.359v9.198h-3.398V390.611z"/>
		<path fill="#333333" d="M1079.004,445.25c-0.52-2.6-2.279-4.119-5.119-4.119c-4.92,0-6.439,3.919-6.439,8.079
			c0,3.839,1.721,7.559,6.039,7.559c3.32,0,5.24-1.88,5.68-5.039h3.479c-0.76,5.079-3.879,8.039-9.117,8.039
			c-6.32,0-9.68-4.359-9.68-10.558c0-6.199,3.201-11.078,9.76-11.078c4.719,0,8.398,2.199,8.918,7.119H1079.004z"/>
		<path fill="#333333" d="M1095.365,438.131c6.559,0,10.037,4.759,10.037,10.838c0,6.039-3.479,10.798-10.037,10.798
			c-6.561,0-10.039-4.759-10.039-10.798C1085.326,442.89,1088.805,438.131,1095.365,438.131z M1095.365,456.768
			c3.559,0,6.438-2.8,6.438-7.799s-2.879-7.838-6.438-7.838c-3.561,0-6.439,2.839-6.439,7.838S1091.805,456.768,1095.365,456.768z"
			/>
		<path fill="#333333" d="M1109.406,438.611h3.199v3.28h0.08c1.439-2.56,3.719-3.759,6.719-3.759c5.439,0,7.119,3.119,7.119,7.559
			v13.598h-3.4V445.29c0-2.56-1.6-4.159-4.199-4.159c-4.119,0-6.119,2.759-6.119,6.479v11.678h-3.398V438.611z"/>
		<path fill="#333333" d="M1136.365,438.611h4.119v3h-4.119v12.838c0,1.6,0.439,1.84,2.559,1.84h1.561v3h-2.6
			c-3.52,0-4.92-0.72-4.92-4.519V441.61h-3.518v-3h3.518v-6.199h3.4V438.611z"/>
		<path fill="#333333" d="M1162.562,459.208c-0.6,0.36-1.439,0.56-2.439,0.56c-1.76,0-2.879-0.96-2.879-3.2
			c-1.881,2.24-4.4,3.2-7.279,3.2c-3.76,0-6.84-1.64-6.84-5.799c0-4.679,3.48-5.719,7-6.359c3.719-0.76,6.959-0.44,6.959-3.04
			c0-2.999-2.48-3.439-4.6-3.439c-2.879,0-5,0.879-5.16,3.919h-3.398c0.199-5.119,4.119-6.918,8.758-6.918
			c3.721,0,7.76,0.84,7.76,5.679v10.638c0,1.6,0,2.32,1.08,2.32c0.318,0,0.68-0.08,1.039-0.2V459.208z M1157.043,448.609
			c-2.639,1.959-10.318,0.04-10.318,5.119c0,2.24,1.92,3.04,4,3.04c4.479,0,6.318-2.76,6.318-4.679V448.609z"/>
		<path fill="#333333" d="M1179.764,445.25c-0.521-2.6-2.281-4.119-5.119-4.119c-4.92,0-6.439,3.919-6.439,8.079
			c0,3.839,1.719,7.559,6.039,7.559c3.318,0,5.238-1.88,5.678-5.039h3.48c-0.76,5.079-3.879,8.039-9.119,8.039
			c-6.318,0-9.678-4.359-9.678-10.558c0-6.199,3.199-11.078,9.758-11.078c4.719,0,8.398,2.199,8.918,7.119H1179.764z"/>
		<path fill="#333333" d="M1191.924,438.611h4.119v3h-4.119v12.838c0,1.6,0.439,1.84,2.559,1.84h1.561v3h-2.6
			c-3.52,0-4.92-0.72-4.92-4.519V441.61h-3.518v-3h3.518v-6.199h3.4V438.611z"/>
		<path fill="#333333" d="M1203.404,434.892h-3.4v-4.159h3.4V434.892z M1200.004,438.611h3.4v20.677h-3.4V438.611z"/>
		<path fill="#333333" d="M1208.684,438.611h3.199v3.28h0.08c1.439-2.56,3.719-3.759,6.719-3.759c5.439,0,7.119,3.119,7.119,7.559
			v13.598h-3.4V445.29c0-2.56-1.6-4.159-4.199-4.159c-4.119,0-6.119,2.759-6.119,6.479v11.678h-3.398V438.611z"/>
		<path fill="#333333" d="M1248.76,457.528c0,6.759-3.039,10.158-9.598,10.158c-3.879,0-8.359-1.6-8.559-6.079h3.398
			c0.121,2.439,3.16,3.359,5.359,3.359c4.439,0,6.199-3.199,6.199-7.838v-1.36h-0.08c-1.16,2.52-3.799,3.759-6.439,3.759
			c-6.158,0-9.238-4.839-9.238-10.478c0-4.879,2.361-10.918,9.559-10.918c2.6,0,4.92,1.16,6.16,3.439h0.039v-2.96h3.199V457.528z
			 M1245.4,448.529c0-3.639-1.6-7.398-5.879-7.398c-4.359,0-6.119,3.559-6.119,7.519c0,3.719,1.359,7.878,5.84,7.878
			C1243.721,456.528,1245.4,452.409,1245.4,448.529z"/>
		<path fill="#333333" d="M1269.723,438.611h4.119v3h-4.119v12.838c0,1.6,0.439,1.84,2.559,1.84h1.561v3h-2.6
			c-3.52,0-4.92-0.72-4.92-4.519V441.61h-3.518v-3h3.518v-6.199h3.4V438.611z"/>
		<path fill="#333333" d="M1277.604,430.732h3.398v10.918h0.08c1.08-2.52,4.08-3.519,6.52-3.519c5.439,0,7.119,3.119,7.119,7.559
			v13.598h-3.4V445.29c0-2.56-1.6-4.159-4.199-4.159c-4.119,0-6.119,2.759-6.119,6.479v11.678h-3.398V430.732z"/>
		<path fill="#333333" d="M1317.48,452.729c-0.92,4.6-4.16,7.039-8.838,7.039c-6.6,0-9.719-4.599-9.92-10.878
			c0-6.239,4.08-10.758,9.719-10.758c7.318,0,9.559,6.839,9.359,11.838h-15.479c-0.119,3.599,1.92,6.799,6.439,6.799
			c2.84,0,4.76-1.32,5.359-4.04H1317.48z M1314.201,446.97c-0.201-3.24-2.561-5.839-5.959-5.839c-3.52,0-5.719,2.639-5.92,5.839
			H1314.201z"/>
		<path fill="#333333" d="M1353.08,439.331c-0.84-4.04-4-6.079-8-6.079c-6.799,0-9.678,5.599-9.678,11.558
			c0,6.519,2.879,11.958,9.719,11.958c4.959,0,7.918-3.52,8.238-8.239h3.799c-0.76,7.159-5.119,11.438-12.357,11.438
			c-8.838,0-13.197-6.559-13.197-14.877c0-8.318,4.719-15.037,13.518-15.037c5.959,0,10.918,3.199,11.758,9.278H1353.08z"/>
		<path fill="#333333" d="M1361.322,430.732h3.398v10.918h0.08c1.08-2.52,4.08-3.519,6.52-3.519c5.439,0,7.119,3.119,7.119,7.559
			v13.598h-3.4V445.29c0-2.56-1.6-4.159-4.199-4.159c-4.119,0-6.119,2.759-6.119,6.479v11.678h-3.398V430.732z"/>
		<path fill="#333333" d="M1401.879,459.208c-0.6,0.36-1.439,0.56-2.439,0.56c-1.76,0-2.879-0.96-2.879-3.2
			c-1.881,2.24-4.4,3.2-7.279,3.2c-3.76,0-6.84-1.64-6.84-5.799c0-4.679,3.48-5.719,7-6.359c3.719-0.76,6.959-0.44,6.959-3.04
			c0-2.999-2.48-3.439-4.6-3.439c-2.879,0-5,0.879-5.16,3.919h-3.398c0.199-5.119,4.119-6.918,8.758-6.918
			c3.721,0,7.76,0.84,7.76,5.679v10.638c0,1.6,0,2.32,1.08,2.32c0.318,0,0.68-0.08,1.039-0.2V459.208z M1396.359,448.609
			c-2.639,1.959-10.318,0.04-10.318,5.119c0,2.24,1.92,3.04,4,3.04c4.479,0,6.318-2.76,6.318-4.679V448.609z"/>
		<path fill="#333333" d="M1405.041,438.611h3.199v3.28h0.08c1.439-2.56,3.721-3.759,6.719-3.759c5.439,0,7.119,3.119,7.119,7.559
			v13.598h-3.398V445.29c0-2.56-1.6-4.159-4.199-4.159c-4.119,0-6.119,2.759-6.119,6.479v11.678h-3.4V438.611z"/>
		<path fill="#333333" d="M1445.119,457.528c0,6.759-3.039,10.158-9.6,10.158c-3.879,0-8.357-1.6-8.559-6.079h3.4
			c0.119,2.439,3.16,3.359,5.359,3.359c4.439,0,6.199-3.199,6.199-7.838v-1.36h-0.08c-1.16,2.52-3.801,3.759-6.439,3.759
			c-6.158,0-9.238-4.839-9.238-10.478c0-4.879,2.359-10.918,9.559-10.918c2.6,0,4.918,1.16,6.158,3.439h0.041v-2.96h3.199V457.528z
			 M1441.76,448.529c0-3.639-1.6-7.398-5.879-7.398c-4.359,0-6.119,3.559-6.119,7.519c0,3.719,1.359,7.878,5.838,7.878
			C1440.08,456.528,1441.76,452.409,1441.76,448.529z"/>
		<path fill="#333333" d="M1467.879,452.729c-0.92,4.6-4.16,7.039-8.838,7.039c-6.6,0-9.719-4.599-9.92-10.878
			c0-6.239,4.08-10.758,9.719-10.758c7.318,0,9.559,6.839,9.359,11.838h-15.479c-0.119,3.599,1.92,6.799,6.439,6.799
			c2.84,0,4.76-1.32,5.359-4.04H1467.879z M1464.6,446.97c-0.201-3.24-2.561-5.839-5.959-5.839c-3.52,0-5.719,2.639-5.92,5.839
			H1464.6z"/>
		<path fill="#333333" d="M1085.604,487.331c-0.84-4.039-4-6.078-8-6.078c-6.799,0-9.678,5.599-9.678,11.558
			c0,6.519,2.879,11.958,9.719,11.958c4.959,0,7.918-3.52,8.238-8.238h3.799c-0.76,7.158-5.119,11.437-12.357,11.437
			c-8.838,0-13.197-6.559-13.197-14.876c0-8.319,4.719-15.038,13.518-15.038c5.959,0,10.918,3.2,11.758,9.278H1085.604z"/>
		<path fill="#333333" d="M1102.764,486.131c6.559,0,10.039,4.759,10.039,10.838c0,6.039-3.48,10.798-10.039,10.798
			s-10.039-4.76-10.039-10.798C1092.725,490.89,1096.205,486.131,1102.764,486.131z M1102.764,504.768
			c3.559,0,6.439-2.799,6.439-7.798c0-4.999-2.881-7.839-6.439-7.839s-6.439,2.84-6.439,7.839
			C1096.324,501.969,1099.205,504.768,1102.764,504.768z"/>
		<path fill="#333333" d="M1125.725,486.131c6.559,0,10.037,4.759,10.037,10.838c0,6.039-3.479,10.798-10.037,10.798
			c-6.561,0-10.039-4.76-10.039-10.798C1115.686,490.89,1119.164,486.131,1125.725,486.131z M1125.725,504.768
			c3.559,0,6.438-2.799,6.438-7.798c0-4.999-2.879-7.839-6.438-7.839c-3.561,0-6.439,2.84-6.439,7.839
			C1119.285,501.969,1122.164,504.768,1125.725,504.768z"/>
		<path fill="#333333" d="M1139.645,486.611h3.199v4.359h0.08c1.641-3.359,3.92-4.959,7.6-4.839v3.6
			c-5.479,0-7.479,3.079-7.479,8.358v9.198h-3.4V486.611z"/>
		<path fill="#333333" d="M1171.561,507.287h-3.398v-2.799h-0.08c-1.119,2.279-3.719,3.279-6.6,3.279
			c-6.357,0-9.518-5.039-9.518-10.878c0-5.839,3.119-10.758,9.438-10.758c2.08,0,5.199,0.8,6.68,3.239h0.08v-10.639h3.398V507.287z
			 M1161.963,504.768c4.6,0,6.318-3.958,6.318-7.798c0-4.039-1.84-7.839-6.518-7.839c-4.641,0-6.199,3.96-6.199,7.999
			C1155.564,501.008,1157.564,504.768,1161.963,504.768z"/>
		<path fill="#333333" d="M1180.404,482.892h-3.4v-4.16h3.4V482.892z M1177.004,486.611h3.4v20.676h-3.4V486.611z"/>
		<path fill="#333333" d="M1185.684,486.611h3.199v3.279h0.08c1.439-2.56,3.719-3.759,6.719-3.759c5.439,0,7.119,3.119,7.119,7.559
			v13.597h-3.4V493.29c0-2.56-1.6-4.159-4.199-4.159c-4.119,0-6.119,2.76-6.119,6.479v11.677h-3.398V486.611z"/>
		<path fill="#333333" d="M1226.24,507.207c-0.6,0.361-1.439,0.561-2.439,0.561c-1.76,0-2.879-0.959-2.879-3.199
			c-1.881,2.24-4.4,3.199-7.279,3.199c-3.76,0-6.84-1.641-6.84-5.799c0-4.679,3.48-5.719,7-6.359c3.719-0.76,6.959-0.44,6.959-3.04
			c0-2.999-2.48-3.439-4.6-3.439c-2.879,0-5,0.88-5.16,3.92h-3.398c0.199-5.119,4.119-6.919,8.758-6.919
			c3.721,0,7.76,0.84,7.76,5.679v10.639c0,1.6,0,2.318,1.08,2.318c0.318,0,0.68-0.08,1.039-0.199V507.207z M1220.721,496.61
			c-2.639,1.959-10.318,0.039-10.318,5.119c0,2.24,1.92,3.039,4,3.039c4.479,0,6.318-2.76,6.318-4.679V496.61z"/>
		<path fill="#333333" d="M1234.121,486.611h4.121v3h-4.121v12.838c0,1.6,0.441,1.84,2.561,1.84h1.561v2.998h-2.6
			c-3.52,0-4.92-0.719-4.92-4.52v-13.157h-3.52v-3h3.52v-6.199h3.398V486.611z"/>
		<path fill="#333333" d="M1250.922,486.131c6.559,0,10.037,4.759,10.037,10.838c0,6.039-3.479,10.798-10.037,10.798
			c-6.561,0-10.039-4.76-10.039-10.798C1240.883,490.89,1244.361,486.131,1250.922,486.131z M1250.922,504.768
			c3.559,0,6.438-2.799,6.438-7.798c0-4.999-2.879-7.839-6.438-7.839c-3.561,0-6.439,2.84-6.439,7.839
			C1244.482,501.969,1247.361,504.768,1250.922,504.768z"/>
		<path fill="#333333" d="M1264.842,486.611h3.199v4.359h0.08c1.641-3.359,3.92-4.959,7.6-4.839v3.6
			c-5.479,0-7.479,3.079-7.479,8.358v9.198h-3.4V486.611z"/>
		<path fill="#333333" d="M1307.719,507.207c-0.6,0.361-1.439,0.561-2.439,0.561c-1.76,0-2.879-0.959-2.879-3.199
			c-1.881,2.24-4.4,3.199-7.279,3.199c-3.76,0-6.84-1.641-6.84-5.799c0-4.679,3.48-5.719,7-6.359c3.719-0.76,6.959-0.44,6.959-3.04
			c0-2.999-2.48-3.439-4.6-3.439c-2.879,0-5,0.88-5.16,3.92h-3.398c0.199-5.119,4.119-6.919,8.758-6.919
			c3.721,0,7.76,0.84,7.76,5.679v10.639c0,1.6,0,2.318,1.08,2.318c0.318,0,0.68-0.08,1.039-0.199V507.207z M1302.199,496.61
			c-2.639,1.959-10.318,0.039-10.318,5.119c0,2.24,1.92,3.039,4,3.039c4.479,0,6.318-2.76,6.318-4.679V496.61z"/>
		<path fill="#333333" d="M1310.881,486.611h3.199v3.279h0.08c1.439-2.56,3.721-3.759,6.719-3.759c5.439,0,7.119,3.119,7.119,7.559
			v13.597h-3.398V493.29c0-2.56-1.6-4.159-4.199-4.159c-4.119,0-6.119,2.76-6.119,6.479v11.677h-3.4V486.611z"/>
		<path fill="#333333" d="M1351.598,507.287h-3.398v-2.799h-0.08c-1.119,2.279-3.719,3.279-6.6,3.279
			c-6.357,0-9.518-5.039-9.518-10.878c0-5.839,3.119-10.758,9.438-10.758c2.08,0,5.199,0.8,6.68,3.239h0.08v-10.639h3.398V507.287z
			 M1342,504.768c4.6,0,6.318-3.958,6.318-7.798c0-4.039-1.84-7.839-6.518-7.839c-4.641,0-6.199,3.96-6.199,7.999
			C1335.602,501.008,1337.602,504.768,1342,504.768z"/>
		<path fill="#333333" d="M1368.082,486.611h3.398v2.8h0.08c1.119-2.279,3.719-3.279,6.6-3.279c6.359,0,9.518,5.039,9.518,10.878
			c0,5.879-3.119,10.758-9.438,10.758c-2.08,0-5.199-0.801-6.68-3.24h-0.08v10.68h-3.398V486.611z M1377.68,489.13
			c-4.6,0-6.318,3.96-6.318,7.799c0,4.039,1.84,7.838,6.518,7.838c4.641,0,6.199-3.958,6.199-7.999
			C1384.078,492.89,1382.078,489.13,1377.68,489.13z"/>
		<path fill="#333333" d="M1391.561,486.611h3.199v4.359h0.08c1.641-3.359,3.92-4.959,7.6-4.839v3.6
			c-5.479,0-7.479,3.079-7.479,8.358v9.198h-3.4V486.611z"/>
		<path fill="#333333" d="M1413.92,486.131c6.559,0,10.037,4.759,10.037,10.838c0,6.039-3.479,10.798-10.037,10.798
			c-6.561,0-10.039-4.76-10.039-10.798C1403.881,490.89,1407.359,486.131,1413.92,486.131z M1413.92,504.768
			c3.559,0,6.438-2.799,6.438-7.798c0-4.999-2.879-7.839-6.438-7.839c-3.561,0-6.439,2.84-6.439,7.839
			C1407.48,501.969,1410.359,504.768,1413.92,504.768z"/>
		<path fill="#333333" d="M1437.279,507.287h-3.641l-7.678-20.676h3.799l5.799,17.237h0.08l5.639-17.237h3.561L1437.279,507.287z"/>
		<path fill="#333333" d="M1451.561,482.892h-3.4v-4.16h3.4V482.892z M1448.16,486.611h3.4v20.676h-3.4V486.611z"/>
		<path fill="#333333" d="M1475.316,507.287h-3.4v-2.799h-0.08c-1.119,2.279-3.719,3.279-6.598,3.279
			c-6.359,0-9.52-5.039-9.52-10.878c0-5.839,3.121-10.758,9.439-10.758c2.08,0,5.199,0.8,6.678,3.239h0.08v-10.639h3.4V507.287z
			 M1465.719,504.768c4.598,0,6.318-3.958,6.318-7.798c0-4.039-1.84-7.839-6.52-7.839c-4.639,0-6.199,3.96-6.199,7.999
			C1459.318,501.008,1461.318,504.768,1465.719,504.768z"/>
		<path fill="#333333" d="M1484.158,482.892h-3.398v-4.16h3.398V482.892z M1480.76,486.611h3.398v20.676h-3.398V486.611z"/>
		<path fill="#333333" d="M1489.439,486.611h3.199v3.279h0.08c1.439-2.56,3.719-3.759,6.719-3.759c5.439,0,7.119,3.119,7.119,7.559
			v13.597h-3.4V493.29c0-2.56-1.6-4.159-4.199-4.159c-4.119,0-6.119,2.76-6.119,6.479v11.677h-3.398V486.611z"/>
		<path fill="#333333" d="M1529.516,505.527c0,6.76-3.039,10.158-9.598,10.158c-3.879,0-8.359-1.6-8.559-6.078h3.398
			c0.121,2.439,3.16,3.359,5.359,3.359c4.439,0,6.199-3.199,6.199-7.838v-1.361h-0.08c-1.16,2.52-3.799,3.76-6.439,3.76
			c-6.158,0-9.238-4.84-9.238-10.478c0-4.879,2.361-10.918,9.559-10.918c2.6,0,4.92,1.159,6.16,3.439h0.039v-2.96h3.199V505.527z
			 M1526.156,496.53c0-3.64-1.6-7.399-5.879-7.399c-4.359,0-6.119,3.56-6.119,7.519c0,3.72,1.359,7.878,5.84,7.878
			C1524.477,504.527,1526.156,500.409,1526.156,496.53z"/>
		<path fill="#333333" d="M1083.283,555.207c-0.6,0.361-1.439,0.561-2.439,0.561c-1.76,0-2.879-0.959-2.879-3.199
			c-1.881,2.24-4.4,3.199-7.279,3.199c-3.76,0-6.84-1.641-6.84-5.799c0-4.68,3.48-5.719,7-6.359c3.719-0.76,6.959-0.439,6.959-3.039
			c0-3-2.48-3.439-4.6-3.439c-2.879,0-5,0.879-5.16,3.92h-3.398c0.199-5.119,4.119-6.92,8.758-6.92c3.721,0,7.76,0.84,7.76,5.68
			v10.639c0,1.6,0,2.318,1.08,2.318c0.318,0,0.68-0.08,1.039-0.199V555.207z M1077.764,544.609
			c-2.639,1.959-10.318,0.039-10.318,5.119c0,2.24,1.92,3.039,4,3.039c4.479,0,6.318-2.76,6.318-4.68V544.609z"/>
		<path fill="#333333" d="M1100.484,541.25c-0.521-2.6-2.281-4.119-5.119-4.119c-4.92,0-6.439,3.92-6.439,8.078
			c0,3.84,1.719,7.559,6.039,7.559c3.318,0,5.238-1.879,5.678-5.039h3.48c-0.76,5.08-3.879,8.039-9.119,8.039
			c-6.318,0-9.678-4.359-9.678-10.559s3.199-11.078,9.758-11.078c4.719,0,8.398,2.199,8.918,7.119H1100.484z"/>
		<path fill="#333333" d="M1121.963,541.25c-0.52-2.6-2.279-4.119-5.119-4.119c-4.92,0-6.439,3.92-6.439,8.078
			c0,3.84,1.721,7.559,6.039,7.559c3.32,0,5.24-1.879,5.68-5.039h3.479c-0.76,5.08-3.879,8.039-9.117,8.039
			c-6.32,0-9.68-4.359-9.68-10.559s3.201-11.078,9.76-11.078c4.719,0,8.398,2.199,8.918,7.119H1121.963z"/>
		<path fill="#333333" d="M1147.041,548.729c-0.92,4.6-4.158,7.039-8.838,7.039c-6.6,0-9.719-4.6-9.918-10.879
			c0-6.238,4.08-10.758,9.719-10.758c7.318,0,9.559,6.84,9.357,11.838h-15.477c-0.121,3.6,1.92,6.799,6.439,6.799
			c2.838,0,4.758-1.318,5.357-4.039H1147.041z M1143.762,542.969c-0.199-3.238-2.559-5.838-5.959-5.838
			c-3.52,0-5.719,2.639-5.918,5.838H1143.762z"/>
		<path fill="#333333" d="M1152.965,548.77c0.119,3.039,2.799,3.998,5.559,3.998c2.119,0,4.998-0.479,4.998-3.078
			c0-5.32-13.518-1.721-13.518-9.68c0-4.158,4.08-5.879,7.719-5.879c4.641,0,8.158,1.439,8.479,6.479h-3.398
			c-0.201-2.639-2.6-3.479-4.799-3.479c-2.041,0-4.4,0.561-4.4,2.639c0,2.4,3.6,2.881,6.76,3.6c3.398,0.76,6.758,1.92,6.758,5.879
			c0,4.959-4.6,6.52-8.799,6.52c-4.639,0-8.559-1.879-8.758-6.998H1152.965z"/>
		<path fill="#333333" d="M1172.965,548.77c0.119,3.039,2.799,3.998,5.559,3.998c2.119,0,4.998-0.479,4.998-3.078
			c0-5.32-13.518-1.721-13.518-9.68c0-4.158,4.08-5.879,7.719-5.879c4.641,0,8.158,1.439,8.479,6.479h-3.398
			c-0.201-2.639-2.6-3.479-4.799-3.479c-2.041,0-4.4,0.561-4.4,2.639c0,2.4,3.6,2.881,6.76,3.6c3.398,0.76,6.758,1.92,6.758,5.879
			c0,4.959-4.6,6.52-8.799,6.52c-4.639,0-8.559-1.879-8.758-6.998H1172.965z"/>
		<path fill="#333333" d="M1206.723,534.611h4.121v3h-4.121v12.838c0,1.6,0.441,1.84,2.561,1.84h1.561v2.998h-2.6
			c-3.52,0-4.92-0.719-4.92-4.52v-13.156h-3.52v-3h3.52v-6.199h3.398V534.611z"/>
		<path fill="#333333" d="M1223.523,534.131c6.559,0,10.037,4.76,10.037,10.838c0,6.039-3.479,10.799-10.037,10.799
			c-6.561,0-10.039-4.76-10.039-10.799C1213.484,538.891,1216.963,534.131,1223.523,534.131z M1223.523,552.768
			c3.559,0,6.438-2.799,6.438-7.799c0-4.998-2.879-7.838-6.438-7.838c-3.561,0-6.439,2.84-6.439,7.838
			C1217.084,549.969,1219.963,552.768,1223.523,552.768z"/>
		<path fill="#333333" d="M1267.002,555.207c-0.602,0.361-1.441,0.561-2.441,0.561c-1.76,0-2.879-0.959-2.879-3.199
			c-1.879,2.24-4.398,3.199-7.279,3.199c-3.758,0-6.838-1.641-6.838-5.799c0-4.68,3.479-5.719,6.998-6.359
			c3.721-0.76,6.959-0.439,6.959-3.039c0-3-2.479-3.439-4.6-3.439c-2.879,0-4.998,0.879-5.158,3.92h-3.4
			c0.201-5.119,4.121-6.92,8.76-6.92c3.719,0,7.758,0.84,7.758,5.68v10.639c0,1.6,0,2.318,1.08,2.318c0.32,0,0.68-0.08,1.041-0.199
			V555.207z M1261.482,544.609c-2.641,1.959-10.318,0.039-10.318,5.119c0,2.24,1.92,3.039,3.998,3.039c4.48,0,6.32-2.76,6.32-4.68
			V544.609z"/>
		<path fill="#333333" d="M1270.363,526.732h3.4v28.555h-3.4V526.732z"/>
		<path fill="#333333" d="M1279.242,526.732h3.4v28.555h-3.4V526.732z"/>
		<path fill="#333333" d="M1302.641,530.893h-3.398v-4.16h3.398V530.893z M1299.242,534.611h3.398v20.676h-3.398V534.611z"/>
		<path fill="#333333" d="M1307.922,534.611h3.199v3.039h0.08c1.559-2.359,3.76-3.52,6.678-3.52c2.561,0,4.84,0.961,5.68,3.52
			c1.4-2.24,3.799-3.52,6.479-3.52c4.119,0,6.879,1.721,6.879,6v15.156h-3.398V541.73c0-2.561-0.68-4.6-4-4.6
			c-3.318,0-5.398,2.08-5.398,5.279v12.877h-3.4V541.73c0-2.68-0.84-4.6-3.879-4.6c-4,0-5.52,3.68-5.52,5.279v12.877h-3.398V534.611
			z"/>
		<path fill="#333333" d="M1342.162,534.611h3.398v2.799h0.08c1.119-2.279,3.719-3.279,6.6-3.279c6.359,0,9.518,5.039,9.518,10.879
			c0,5.879-3.119,10.758-9.438,10.758c-2.08,0-5.199-0.801-6.68-3.24h-0.08v10.68h-3.398V534.611z M1351.76,537.131
			c-4.6,0-6.318,3.959-6.318,7.799c0,4.039,1.84,7.838,6.518,7.838c4.641,0,6.199-3.959,6.199-7.998
			C1358.158,540.891,1356.158,537.131,1351.76,537.131z"/>
		<path fill="#333333" d="M1384.078,555.207c-0.6,0.361-1.439,0.561-2.439,0.561c-1.76,0-2.879-0.959-2.879-3.199
			c-1.881,2.24-4.4,3.199-7.279,3.199c-3.76,0-6.84-1.641-6.84-5.799c0-4.68,3.48-5.719,7-6.359c3.719-0.76,6.959-0.439,6.959-3.039
			c0-3-2.48-3.439-4.6-3.439c-2.879,0-5,0.879-5.16,3.92h-3.398c0.199-5.119,4.119-6.92,8.758-6.92c3.721,0,7.76,0.84,7.76,5.68
			v10.639c0,1.6,0,2.318,1.08,2.318c0.318,0,0.68-0.08,1.039-0.199V555.207z M1378.559,544.609
			c-2.639,1.959-10.318,0.039-10.318,5.119c0,2.24,1.92,3.039,4,3.039c4.479,0,6.318-2.76,6.318-4.68V544.609z"/>
		<path fill="#333333" d="M1401.279,541.25c-0.521-2.6-2.281-4.119-5.119-4.119c-4.92,0-6.439,3.92-6.439,8.078
			c0,3.84,1.719,7.559,6.039,7.559c3.318,0,5.238-1.879,5.678-5.039h3.48c-0.76,5.08-3.879,8.039-9.119,8.039
			c-6.318,0-9.678-4.359-9.678-10.559s3.199-11.078,9.758-11.078c4.719,0,8.398,2.199,8.918,7.119H1401.279z"/>
		<path fill="#333333" d="M1413.439,534.611h4.119v3h-4.119v12.838c0,1.6,0.439,1.84,2.559,1.84h1.561v2.998h-2.6
			c-3.52,0-4.92-0.719-4.92-4.52v-13.156h-3.518v-3h3.518v-6.199h3.4V534.611z"/>
		<path fill="#333333" d="M1438.957,548.729c-0.92,4.6-4.16,7.039-8.838,7.039c-6.6,0-9.719-4.6-9.92-10.879
			c0-6.238,4.08-10.758,9.719-10.758c7.318,0,9.559,6.84,9.359,11.838h-15.479c-0.119,3.6,1.92,6.799,6.439,6.799
			c2.84,0,4.76-1.318,5.359-4.039H1438.957z M1435.678,542.969c-0.201-3.238-2.561-5.838-5.959-5.838
			c-3.52,0-5.719,2.639-5.92,5.838H1435.678z"/>
		<path fill="#333333" d="M1461.275,555.287h-3.398v-2.799h-0.08c-1.119,2.279-3.719,3.279-6.6,3.279
			c-6.357,0-9.518-5.039-9.518-10.879c0-5.838,3.119-10.758,9.438-10.758c2.08,0,5.199,0.801,6.68,3.24h0.08v-10.639h3.398V555.287z
			 M1451.678,552.768c4.6,0,6.318-3.959,6.318-7.799c0-4.039-1.84-7.838-6.518-7.838c-4.641,0-6.199,3.959-6.199,7.998
			C1445.279,549.008,1447.279,552.768,1451.678,552.768z"/>
		<path fill="#333333" d="M1083.443,603.287h-3.4v-2.799h-0.08c-1.119,2.279-3.719,3.279-6.598,3.279
			c-6.359,0-9.52-5.039-9.52-10.879c0-5.838,3.121-10.758,9.439-10.758c2.08,0,5.199,0.801,6.678,3.24h0.08v-10.639h3.4V603.287z
			 M1073.846,600.768c4.598,0,6.318-3.959,6.318-7.799c0-4.039-1.84-7.838-6.52-7.838c-4.639,0-6.199,3.959-6.199,7.998
			C1067.445,597.008,1069.445,600.768,1073.846,600.768z"/>
		<path fill="#333333" d="M1097.605,582.131c6.559,0,10.037,4.76,10.037,10.838c0,6.039-3.479,10.799-10.037,10.799
			c-6.561,0-10.039-4.76-10.039-10.799C1087.566,586.891,1091.045,582.131,1097.605,582.131z M1097.605,600.768
			c3.559,0,6.438-2.799,6.438-7.799c0-4.998-2.879-7.838-6.438-7.838c-3.561,0-6.439,2.84-6.439,7.838
			C1091.166,597.969,1094.045,600.768,1097.605,600.768z"/>
		<path fill="#333333" d="M1125.684,589.25c-0.52-2.6-2.279-4.119-5.119-4.119c-4.92,0-6.439,3.92-6.439,8.078
			c0,3.84,1.721,7.559,6.039,7.559c3.32,0,5.24-1.879,5.68-5.039h3.479c-0.76,5.08-3.879,8.039-9.117,8.039
			c-6.32,0-9.68-4.359-9.68-10.559s3.201-11.078,9.76-11.078c4.719,0,8.398,2.199,8.918,7.119H1125.684z"/>
		<path fill="#333333" d="M1150.242,603.287h-3.199v-3.279h-0.08c-1.439,2.561-3.719,3.76-6.719,3.76
			c-5.439,0-7.119-3.119-7.119-7.559v-13.598h3.4v13.998c0,2.559,1.6,4.158,4.199,4.158c4.119,0,6.119-2.76,6.119-6.479v-11.678
			h3.398V603.287z"/>
		<path fill="#333333" d="M1155.365,582.611h3.199v3.039h0.08c1.561-2.359,3.76-3.52,6.68-3.52c2.559,0,4.84,0.961,5.68,3.52
			c1.398-2.24,3.799-3.52,6.479-3.52c4.119,0,6.879,1.721,6.879,6v15.156h-3.4V589.73c0-2.561-0.68-4.6-3.998-4.6
			c-3.32,0-5.4,2.08-5.4,5.279v12.877h-3.398V589.73c0-2.68-0.84-4.6-3.879-4.6c-4,0-5.52,3.68-5.52,5.279v12.877h-3.4V582.611z"/>
		<path fill="#333333" d="M1207.123,596.729c-0.92,4.6-4.16,7.039-8.838,7.039c-6.6,0-9.719-4.6-9.92-10.879
			c0-6.238,4.08-10.758,9.719-10.758c7.318,0,9.559,6.84,9.359,11.838h-15.479c-0.119,3.6,1.92,6.799,6.439,6.799
			c2.84,0,4.76-1.318,5.359-4.039H1207.123z M1203.844,590.969c-0.201-3.238-2.561-5.838-5.959-5.838
			c-3.52,0-5.719,2.639-5.92,5.838H1203.844z"/>
		<path fill="#333333" d="M1210.965,582.611h3.199v3.279h0.08c1.439-2.561,3.721-3.76,6.719-3.76c5.439,0,7.119,3.119,7.119,7.559
			v13.598h-3.398v-13.998c0-2.559-1.6-4.158-4.199-4.158c-4.119,0-6.119,2.76-6.119,6.479v11.678h-3.4V582.611z"/>
		<path fill="#333333" d="M1237.924,582.611h4.121v3h-4.121v12.838c0,1.6,0.441,1.84,2.561,1.84h1.561v2.998h-2.6
			c-3.52,0-4.92-0.719-4.92-4.52v-13.156h-3.52v-3h3.52v-6.199h3.398V582.611z"/>
		<path fill="#333333" d="M1247.885,596.77c0.119,3.039,2.799,3.998,5.559,3.998c2.121,0,5-0.479,5-3.078
			c0-5.32-13.518-1.721-13.518-9.68c0-4.158,4.078-5.879,7.719-5.879c4.639,0,8.158,1.439,8.479,6.479h-3.4
			c-0.199-2.639-2.6-3.479-4.799-3.479c-2.039,0-4.398,0.561-4.398,2.639c0,2.4,3.6,2.881,6.758,3.6c3.4,0.76,6.76,1.92,6.76,5.879
			c0,4.959-4.6,6.52-8.799,6.52c-4.639,0-8.559-1.879-8.758-6.998H1247.885z"/>
		<path fill="#333333" d="M1294.043,603.287h-3.199v-3.279h-0.08c-1.441,2.561-3.721,3.76-6.719,3.76
			c-5.439,0-7.119-3.119-7.119-7.559v-13.598h3.398v13.998c0,2.559,1.6,4.158,4.199,4.158c4.119,0,6.119-2.76,6.119-6.479v-11.678
			h3.4V603.287z"/>
		<path fill="#333333" d="M1299.285,582.611h3.4v2.799h0.08c1.119-2.279,3.719-3.279,6.598-3.279c6.359,0,9.52,5.039,9.52,10.879
			c0,5.879-3.119,10.758-9.439,10.758c-2.08,0-5.199-0.801-6.678-3.24h-0.08v10.68h-3.4V582.611z M1308.885,585.131
			c-4.6,0-6.32,3.959-6.32,7.799c0,4.039,1.84,7.838,6.52,7.838c4.639,0,6.199-3.959,6.199-7.998
			C1315.283,588.891,1313.283,585.131,1308.885,585.131z"/>
		<path fill="#333333" d="M1341.361,603.287h-3.398v-2.799h-0.08c-1.119,2.279-3.719,3.279-6.6,3.279
			c-6.357,0-9.518-5.039-9.518-10.879c0-5.838,3.119-10.758,9.438-10.758c2.08,0,5.199,0.801,6.68,3.24h0.08v-10.639h3.398V603.287z
			 M1331.764,600.768c4.6,0,6.318-3.959,6.318-7.799c0-4.039-1.84-7.838-6.518-7.838c-4.641,0-6.199,3.959-6.199,7.998
			C1325.365,597.008,1327.365,600.768,1331.764,600.768z"/>
		<path fill="#333333" d="M1364.922,603.207c-0.6,0.361-1.439,0.561-2.439,0.561c-1.76,0-2.879-0.959-2.879-3.199
			c-1.881,2.24-4.4,3.199-7.279,3.199c-3.76,0-6.84-1.641-6.84-5.799c0-4.68,3.48-5.719,7-6.359c3.719-0.76,6.959-0.439,6.959-3.039
			c0-3-2.48-3.439-4.6-3.439c-2.879,0-5,0.879-5.16,3.92h-3.398c0.199-5.119,4.119-6.92,8.758-6.92c3.721,0,7.76,0.84,7.76,5.68
			v10.639c0,1.6,0,2.318,1.08,2.318c0.318,0,0.68-0.08,1.039-0.199V603.207z M1359.402,592.609
			c-2.639,1.959-10.318,0.039-10.318,5.119c0,2.24,1.92,3.039,4,3.039c4.479,0,6.318-2.76,6.318-4.68V592.609z"/>
		<path fill="#333333" d="M1372.803,582.611h4.121v3h-4.121v12.838c0,1.6,0.441,1.84,2.561,1.84h1.561v2.998h-2.6
			c-3.52,0-4.92-0.719-4.92-4.52v-13.156h-3.52v-3h3.52v-6.199h3.398V582.611z"/>
		<path fill="#333333" d="M1398.32,596.729c-0.92,4.6-4.158,7.039-8.838,7.039c-6.6,0-9.719-4.6-9.918-10.879
			c0-6.238,4.08-10.758,9.719-10.758c7.318,0,9.559,6.84,9.357,11.838h-15.477c-0.121,3.6,1.92,6.799,6.439,6.799
			c2.838,0,4.758-1.318,5.357-4.039H1398.32z M1395.041,590.969c-0.199-3.238-2.559-5.838-5.959-5.838
			c-3.52,0-5.719,2.639-5.918,5.838H1395.041z"/>
		<path fill="#333333" d="M1420.641,603.287h-3.4v-2.799h-0.08c-1.119,2.279-3.719,3.279-6.598,3.279
			c-6.359,0-9.52-5.039-9.52-10.879c0-5.838,3.121-10.758,9.439-10.758c2.08,0,5.199,0.801,6.678,3.24h0.08v-10.639h3.4V603.287z
			 M1411.043,600.768c4.598,0,6.318-3.959,6.318-7.799c0-4.039-1.84-7.838-6.52-7.838c-4.639,0-6.199,3.959-6.199,7.998
			C1404.643,597.008,1406.643,600.768,1411.043,600.768z"/>
		<path fill="#333333" d="M1455.32,603.207c-0.6,0.361-1.439,0.561-2.439,0.561c-1.76,0-2.879-0.959-2.879-3.199
			c-1.881,2.24-4.4,3.199-7.279,3.199c-3.76,0-6.84-1.641-6.84-5.799c0-4.68,3.48-5.719,7-6.359c3.719-0.76,6.959-0.439,6.959-3.039
			c0-3-2.48-3.439-4.6-3.439c-2.879,0-5,0.879-5.16,3.92h-3.398c0.199-5.119,4.119-6.92,8.758-6.92c3.721,0,7.76,0.84,7.76,5.68
			v10.639c0,1.6,0,2.318,1.08,2.318c0.318,0,0.68-0.08,1.039-0.199V603.207z M1449.801,592.609
			c-2.639,1.959-10.318,0.039-10.318,5.119c0,2.24,1.92,3.039,4,3.039c4.479,0,6.318-2.76,6.318-4.68V592.609z"/>
		<path fill="#333333" d="M1460.562,596.77c0.119,3.039,2.799,3.998,5.559,3.998c2.121,0,5-0.479,5-3.078
			c0-5.32-13.518-1.721-13.518-9.68c0-4.158,4.078-5.879,7.719-5.879c4.639,0,8.158,1.439,8.479,6.479h-3.4
			c-0.199-2.639-2.6-3.479-4.799-3.479c-2.039,0-4.398,0.561-4.398,2.639c0,2.4,3.6,2.881,6.758,3.6c3.4,0.76,6.76,1.92,6.76,5.879
			c0,4.959-4.6,6.52-8.799,6.52c-4.639,0-8.559-1.879-8.758-6.998H1460.562z"/>
		<path fill="#333333" d="M1507.92,603.207c-0.6,0.361-1.439,0.561-2.439,0.561c-1.76,0-2.879-0.959-2.879-3.199
			c-1.881,2.24-4.4,3.199-7.279,3.199c-3.76,0-6.84-1.641-6.84-5.799c0-4.68,3.48-5.719,7-6.359c3.719-0.76,6.959-0.439,6.959-3.039
			c0-3-2.48-3.439-4.6-3.439c-2.879,0-5,0.879-5.16,3.92h-3.398c0.199-5.119,4.119-6.92,8.758-6.92c3.721,0,7.76,0.84,7.76,5.68
			v10.639c0,1.6,0,2.318,1.08,2.318c0.318,0,0.68-0.08,1.039-0.199V603.207z M1502.4,592.609
			c-2.639,1.959-10.318,0.039-10.318,5.119c0,2.24,1.92,3.039,4,3.039c4.479,0,6.318-2.76,6.318-4.68V592.609z"/>
		<path fill="#333333" d="M1522.082,582.611h3.199v4.359h0.08c1.641-3.359,3.92-4.959,7.6-4.84v3.6c-5.479,0-7.479,3.08-7.479,8.359
			v9.197h-3.4V582.611z"/>
		<path fill="#333333" d="M1553.158,596.729c-0.92,4.6-4.158,7.039-8.838,7.039c-6.6,0-9.719-4.6-9.918-10.879
			c0-6.238,4.08-10.758,9.719-10.758c7.318,0,9.559,6.84,9.357,11.838h-15.477c-0.121,3.6,1.92,6.799,6.439,6.799
			c2.838,0,4.758-1.318,5.357-4.039H1553.158z M1549.879,590.969c-0.199-3.238-2.559-5.838-5.959-5.838
			c-3.52,0-5.719,2.639-5.918,5.838H1549.879z"/>
		<path fill="#333333" d="M1559.082,596.77c0.119,3.039,2.799,3.998,5.559,3.998c2.119,0,4.998-0.479,4.998-3.078
			c0-5.32-13.518-1.721-13.518-9.68c0-4.158,4.08-5.879,7.719-5.879c4.641,0,8.158,1.439,8.479,6.479h-3.398
			c-0.201-2.639-2.6-3.479-4.799-3.479c-2.041,0-4.4,0.561-4.4,2.639c0,2.4,3.6,2.881,6.76,3.6c3.398,0.76,6.758,1.92,6.758,5.879
			c0,4.959-4.6,6.52-8.799,6.52c-4.639,0-8.559-1.879-8.758-6.998H1559.082z"/>
		<path fill="#333333" d="M1594.119,603.287h-3.199v-3.279h-0.08c-1.441,2.561-3.721,3.76-6.719,3.76
			c-5.439,0-7.119-3.119-7.119-7.559v-13.598h3.398v13.998c0,2.559,1.6,4.158,4.199,4.158c4.119,0,6.119-2.76,6.119-6.479v-11.678
			h3.4V603.287z"/>
		<path fill="#333333" d="M1599.441,574.732h3.4v28.555h-3.4V574.732z"/>
		<path fill="#333333" d="M1612.84,582.611h4.119v3h-4.119v12.838c0,1.6,0.439,1.84,2.559,1.84h1.561v2.998h-2.6
			c-3.52,0-4.92-0.719-4.92-4.52v-13.156h-3.518v-3h3.518v-6.199h3.4V582.611z"/>
		<path fill="#333333" d="M1073.885,630.131c6.559,0,10.039,4.76,10.039,10.838c0,6.039-3.48,10.799-10.039,10.799
			s-10.039-4.76-10.039-10.799C1063.846,634.891,1067.326,630.131,1073.885,630.131z M1073.885,648.768
			c3.559,0,6.439-2.799,6.439-7.799c0-4.998-2.881-7.838-6.439-7.838s-6.439,2.84-6.439,7.838
			C1067.445,645.969,1070.326,648.768,1073.885,648.768z"/>
		<path fill="#333333" d="M1089.326,633.611h-3.48v-3h3.48v-3.08c0-3.359,2-5.119,5.719-5.119c0.641,0,1.561,0.121,2.199,0.32v2.959
			c-0.6-0.199-1.318-0.279-1.92-0.279c-1.639,0-2.6,0.52-2.6,2.32v2.879h4v3h-4v17.676h-3.398V633.611z"/>
		<path fill="#333333" d="M1115.605,630.611h4.119v3h-4.119v12.838c0,1.6,0.439,1.84,2.559,1.84h1.561v2.998h-2.6
			c-3.52,0-4.92-0.719-4.92-4.52v-13.156h-3.518v-3h3.518v-6.199h3.4V630.611z"/>
		<path fill="#333333" d="M1123.486,622.732h3.398v10.918h0.08c1.08-2.52,4.08-3.52,6.52-3.52c5.439,0,7.119,3.119,7.119,7.559
			v13.598h-3.4v-13.998c0-2.559-1.6-4.158-4.199-4.158c-4.119,0-6.119,2.76-6.119,6.479v11.678h-3.398V622.732z"/>
		<path fill="#333333" d="M1163.363,644.729c-0.92,4.6-4.16,7.039-8.838,7.039c-6.6,0-9.719-4.6-9.92-10.879
			c0-6.238,4.08-10.758,9.719-10.758c7.318,0,9.559,6.84,9.359,11.838h-15.479c-0.119,3.6,1.92,6.799,6.439,6.799
			c2.84,0,4.76-1.318,5.359-4.039H1163.363z M1160.084,638.969c-0.201-3.238-2.561-5.838-5.959-5.838
			c-3.52,0-5.719,2.639-5.92,5.838H1160.084z"/>
		<path fill="#333333" d="M1196.643,651.207c-0.6,0.361-1.439,0.561-2.439,0.561c-1.76,0-2.879-0.959-2.879-3.199
			c-1.881,2.24-4.4,3.199-7.279,3.199c-3.76,0-6.84-1.641-6.84-5.799c0-4.68,3.48-5.719,7-6.359c3.719-0.76,6.959-0.439,6.959-3.039
			c0-3-2.48-3.439-4.6-3.439c-2.879,0-5,0.879-5.16,3.92h-3.398c0.199-5.119,4.119-6.92,8.758-6.92c3.721,0,7.76,0.84,7.76,5.68
			v10.639c0,1.6,0,2.318,1.08,2.318c0.318,0,0.68-0.08,1.039-0.199V651.207z M1191.123,640.609
			c-2.639,1.959-10.318,0.039-10.318,5.119c0,2.24,1.92,3.039,4,3.039c4.479,0,6.318-2.76,6.318-4.68V640.609z"/>
		<path fill="#333333" d="M1199.926,630.611h3.398v2.799h0.08c1.119-2.279,3.719-3.279,6.6-3.279c6.359,0,9.518,5.039,9.518,10.879
			c0,5.879-3.119,10.758-9.438,10.758c-2.08,0-5.199-0.801-6.68-3.24h-0.08v10.68h-3.398V630.611z M1209.523,633.131
			c-4.6,0-6.318,3.959-6.318,7.799c0,4.039,1.84,7.838,6.518,7.838c4.641,0,6.199-3.959,6.199-7.998
			C1215.922,636.891,1213.922,633.131,1209.523,633.131z"/>
		<path fill="#333333" d="M1223.645,630.611h3.4v2.799h0.08c1.119-2.279,3.719-3.279,6.598-3.279c6.359,0,9.52,5.039,9.52,10.879
			c0,5.879-3.119,10.758-9.439,10.758c-2.08,0-5.199-0.801-6.678-3.24h-0.08v10.68h-3.4V630.611z M1233.244,633.131
			c-4.6,0-6.32,3.959-6.32,7.799c0,4.039,1.84,7.838,6.52,7.838c4.639,0,6.199-3.959,6.199-7.998
			C1239.643,636.891,1237.643,633.131,1233.244,633.131z"/>
		<path fill="#333333" d="M1247.125,630.611h3.199v4.359h0.08c1.639-3.359,3.92-4.959,7.598-4.84v3.6
			c-5.479,0-7.479,3.08-7.479,8.359v9.197h-3.398V630.611z"/>
		<path fill="#333333" d="M1269.482,630.131c6.559,0,10.039,4.76,10.039,10.838c0,6.039-3.48,10.799-10.039,10.799
			s-10.039-4.76-10.039-10.799C1259.443,634.891,1262.924,630.131,1269.482,630.131z M1269.482,648.768
			c3.559,0,6.439-2.799,6.439-7.799c0-4.998-2.881-7.838-6.439-7.838s-6.439,2.84-6.439,7.838
			C1263.043,645.969,1265.924,648.768,1269.482,648.768z"/>
		<path fill="#333333" d="M1292.842,651.287h-3.639l-7.68-20.676h3.801l5.799,17.236h0.08l5.639-17.236h3.559L1292.842,651.287z"/>
		<path fill="#333333" d="M1321.16,644.729c-0.92,4.6-4.158,7.039-8.838,7.039c-6.6,0-9.719-4.6-9.918-10.879
			c0-6.238,4.08-10.758,9.719-10.758c7.318,0,9.559,6.84,9.357,11.838h-15.477c-0.121,3.6,1.92,6.799,6.439,6.799
			c2.838,0,4.758-1.318,5.357-4.039H1321.16z M1317.881,638.969c-0.199-3.238-2.559-5.838-5.959-5.838
			c-3.52,0-5.719,2.639-5.918,5.838H1317.881z"/>
		<path fill="#333333" d="M1343.48,651.287h-3.4v-2.799H1340c-1.119,2.279-3.719,3.279-6.598,3.279c-6.359,0-9.52-5.039-9.52-10.879
			c0-5.838,3.121-10.758,9.439-10.758c2.08,0,5.199,0.801,6.678,3.24h0.08v-10.639h3.4V651.287z M1333.883,648.768
			c4.598,0,6.318-3.959,6.318-7.799c0-4.039-1.84-7.838-6.52-7.838c-4.639,0-6.199,3.959-6.199,7.998
			C1327.482,645.008,1329.482,648.768,1333.883,648.768z"/>
		<path fill="#333333" d="M1380.48,631.33c-0.84-4.039-4-6.078-8-6.078c-6.799,0-9.678,5.6-9.678,11.559
			c0,6.518,2.879,11.957,9.719,11.957c4.959,0,7.918-3.52,8.238-8.238h3.799c-0.76,7.158-5.119,11.438-12.357,11.438
			c-8.838,0-13.197-6.559-13.197-14.877s4.719-15.037,13.518-15.037c5.959,0,10.918,3.199,11.758,9.277H1380.48z"/>
		<path fill="#333333" d="M1388.723,622.732h3.398v10.918h0.08c1.08-2.52,4.08-3.52,6.52-3.52c5.439,0,7.119,3.119,7.119,7.559
			v13.598h-3.4v-13.998c0-2.559-1.6-4.158-4.199-4.158c-4.119,0-6.119,2.76-6.119,6.479v11.678h-3.398V622.732z"/>
		<path fill="#333333" d="M1429.279,651.207c-0.6,0.361-1.439,0.561-2.439,0.561c-1.76,0-2.879-0.959-2.879-3.199
			c-1.881,2.24-4.4,3.199-7.279,3.199c-3.76,0-6.84-1.641-6.84-5.799c0-4.68,3.48-5.719,7-6.359c3.719-0.76,6.959-0.439,6.959-3.039
			c0-3-2.48-3.439-4.6-3.439c-2.879,0-5,0.879-5.16,3.92h-3.398c0.199-5.119,4.119-6.92,8.758-6.92c3.721,0,7.76,0.84,7.76,5.68
			v10.639c0,1.6,0,2.318,1.08,2.318c0.318,0,0.68-0.08,1.039-0.199V651.207z M1423.76,640.609
			c-2.639,1.959-10.318,0.039-10.318,5.119c0,2.24,1.92,3.039,4,3.039c4.479,0,6.318-2.76,6.318-4.68V640.609z"/>
		<path fill="#333333" d="M1432.441,630.611h3.199v3.279h0.08c1.439-2.561,3.721-3.76,6.719-3.76c5.439,0,7.119,3.119,7.119,7.559
			v13.598h-3.398v-13.998c0-2.559-1.6-4.158-4.199-4.158c-4.119,0-6.119,2.76-6.119,6.479v11.678h-3.4V630.611z"/>
		<path fill="#333333" d="M1472.52,649.527c0,6.76-3.039,10.158-9.6,10.158c-3.879,0-8.357-1.6-8.559-6.078h3.4
			c0.119,2.439,3.16,3.359,5.359,3.359c4.439,0,6.199-3.199,6.199-7.838v-1.361h-0.08c-1.16,2.52-3.801,3.76-6.439,3.76
			c-6.158,0-9.238-4.84-9.238-10.479c0-4.879,2.359-10.918,9.559-10.918c2.6,0,4.918,1.16,6.158,3.439h0.041v-2.959h3.199V649.527z
			 M1469.16,640.529c0-3.639-1.6-7.398-5.879-7.398c-4.359,0-6.119,3.559-6.119,7.518c0,3.721,1.359,7.879,5.838,7.879
			C1467.48,648.527,1469.16,644.408,1469.16,640.529z"/>
		<path fill="#333333" d="M1495.279,644.729c-0.92,4.6-4.16,7.039-8.838,7.039c-6.6,0-9.719-4.6-9.92-10.879
			c0-6.238,4.08-10.758,9.719-10.758c7.318,0,9.559,6.84,9.359,11.838h-15.479c-0.119,3.6,1.92,6.799,6.439,6.799
			c2.84,0,4.76-1.318,5.359-4.039H1495.279z M1492,638.969c-0.201-3.238-2.561-5.838-5.959-5.838c-3.52,0-5.719,2.639-5.92,5.838
			H1492z"/>
		<path fill="#333333" d="M1065.525,670.732h13.439c5.398,0,8.678,2.879,8.678,7.479c0,3.48-1.48,6.279-4.959,7.238v0.08
			c3.318,0.641,3.959,3.119,4.279,5.879c0.199,2.76,0.08,5.959,1.68,7.879h-4.24c-1.08-1.16-0.479-4.238-1.039-7.039
			c-0.439-2.76-1.08-5.158-4.76-5.158h-9.277v12.197h-3.801V670.732z M1077.244,683.891c3.52,0,6.6-0.92,6.6-5.08
			c0-2.84-1.52-4.879-5.08-4.879h-9.438v9.959H1077.244z"/>
		<path fill="#333333" d="M1110.004,692.729c-0.92,4.6-4.16,7.039-8.838,7.039c-6.6,0-9.719-4.6-9.92-10.879
			c0-6.238,4.08-10.758,9.719-10.758c7.318,0,9.559,6.84,9.359,11.838h-15.479c-0.119,3.6,1.92,6.799,6.439,6.799
			c2.84,0,4.76-1.318,5.359-4.039H1110.004z M1106.725,686.969c-0.201-3.238-2.561-5.838-5.959-5.838
			c-3.52,0-5.719,2.639-5.92,5.838H1106.725z"/>
		<path fill="#333333" d="M1132.322,707.207h-3.398v-10.719h-0.08c-1.119,2.279-3.719,3.279-6.6,3.279
			c-6.357,0-9.518-5.039-9.518-10.879c0-5.838,3.119-10.758,9.438-10.758c2.08,0,5.199,0.801,6.68,3.24h0.08v-2.76h3.398V707.207z
			 M1122.725,696.768c4.6,0,6.318-3.959,6.318-7.799c0-4.039-1.84-7.838-6.518-7.838c-4.641,0-6.199,3.959-6.199,7.998
			C1116.326,693.008,1118.326,696.768,1122.725,696.768z"/>
		<path fill="#333333" d="M1154.684,699.287h-3.199v-3.279h-0.08c-1.441,2.561-3.721,3.76-6.719,3.76
			c-5.439,0-7.119-3.119-7.119-7.559v-13.598h3.398v13.998c0,2.559,1.6,4.158,4.199,4.158c4.119,0,6.119-2.76,6.119-6.479v-11.678
			h3.4V699.287z"/>
		<path fill="#333333" d="M1177.443,692.729c-0.92,4.6-4.16,7.039-8.838,7.039c-6.6,0-9.719-4.6-9.92-10.879
			c0-6.238,4.08-10.758,9.719-10.758c7.318,0,9.559,6.84,9.359,11.838h-15.479c-0.119,3.6,1.92,6.799,6.439,6.799
			c2.84,0,4.76-1.318,5.359-4.039H1177.443z M1174.164,686.969c-0.201-3.238-2.561-5.838-5.959-5.838
			c-3.52,0-5.719,2.639-5.92,5.838H1174.164z"/>
		<path fill="#333333" d="M1183.365,692.77c0.119,3.039,2.799,3.998,5.559,3.998c2.121,0,5-0.479,5-3.078
			c0-5.32-13.518-1.721-13.518-9.68c0-4.158,4.078-5.879,7.719-5.879c4.639,0,8.158,1.439,8.479,6.479h-3.4
			c-0.199-2.639-2.6-3.479-4.799-3.479c-2.039,0-4.398,0.561-4.398,2.639c0,2.4,3.6,2.881,6.758,3.6c3.4,0.76,6.76,1.92,6.76,5.879
			c0,4.959-4.6,6.52-8.799,6.52c-4.639,0-8.559-1.879-8.758-6.998H1183.365z"/>
		<path fill="#333333" d="M1206.004,678.611h4.121v3h-4.121v12.838c0,1.6,0.441,1.84,2.561,1.84h1.561v2.998h-2.6
			c-3.52,0-4.92-0.719-4.92-4.52v-13.156h-3.52v-3h3.52v-6.199h3.398V678.611z"/>
		<path fill="#333333" d="M1214.645,694.848h4.439v4.439h-4.439V694.848z"/>
	</g>
</g>
<g>
	<rect x="85" y="384.588" fill="#8CC63F" width="1.2" height="12.8"/>
	<path fill="#8CC63F" d="M88.6,384.588H94c2.1,0,4.1,0.699,4.1,3.1c0,1.3-0.9,2.6-2.2,2.9c1.7,0.199,2.7,1.5,2.7,3.1
		c0,1.2-0.4,3.6-4.6,3.6h-5.4V384.588z M89.8,390.188H94c1.9,0,2.9-1,2.9-2.2c0-1.6-1-2.399-2.9-2.399h-4.2V390.188z M89.8,396.287
		H94c1.8,0,3.4-0.6,3.4-2.6c0-1.7-1.2-2.5-3.4-2.5h-4.2V396.287z"/>
	<polygon fill="#8CC63F" points="100.6,384.588 102.4,384.588 106.8,395.787 111.2,384.588 113,384.588 113,397.388 111.8,397.388 
		111.8,386.287 107.4,397.388 106.2,397.388 101.8,386.287 101.8,397.388 100.6,397.388 	"/>
	<polygon fill="#173E68" points="130.2,397.287 127.4,397.287 125.2,388.588 123.1,397.287 120.2,397.287 116.8,384.487 
		119.6,384.487 121.6,393.188 123.8,384.487 126.4,384.487 128.6,393.287 130.7,384.487 133.5,384.487 	"/>
	<path fill="#173E68" d="M133.9,390.787c0.2-2.399,2.3-3.1,4.4-3.1c1.8,0,4.1,0.4,4.1,2.6v4.801c0,0.8,0.1,1.699,0.3,2.1h-2.6
		c-0.1-0.3-0.2-0.6-0.2-0.9c-0.8,0.801-2,1.2-3.1,1.2c-1.8,0-3.1-0.899-3.1-2.8c0-4.2,6.3-2,6.2-4c0-1.1-0.7-1.2-1.7-1.2
		s-1.6,0.4-1.7,1.4h-2.6V390.787z M139.8,392.688c-0.4,0.4-1.3,0.4-2.1,0.5c-0.8,0.2-1.5,0.4-1.5,1.4s0.7,1.199,1.6,1.199
		c2,0,2.1-1.6,2.1-2.1v-1H139.8z"/>
	<path fill="#173E68" d="M147.5,387.987h1.9v1.7h-1.9v4.6c0,0.9,0.2,1.101,1.1,1.101c0.3,0,0.6,0,0.8-0.101v2
		c-0.4,0.101-1,0.101-1.5,0.101c-1.6,0-2.9-0.3-2.9-2.2v-5.5h-1.6v-1.7h1.6v-2.8h2.6L147.5,387.987z"/>
	<path fill="#173E68" d="M152.6,394.287c0,1.101,1,1.601,2,1.601c0.7,0,1.7-0.3,1.7-1.2c0-0.8-1.1-1.1-2.9-1.4c-1.5-0.3-3-0.8-3-2.5
		c0-2.399,2.1-3,4-3c2,0,3.9,0.7,4.1,3h-2.4c-0.1-1-0.8-1.199-1.7-1.199c-0.6,0-1.4,0.1-1.4,0.899c0,0.9,1.5,1,2.9,1.4
		c1.5,0.3,3,0.899,3,2.6c0,2.4-2.1,3.2-4.2,3.2c-2.1,0-4.3-0.8-4.4-3.3h2.3V394.287z"/>
	<path fill="#173E68" d="M164.6,387.787c2.9,0,4.8,1.9,4.8,4.9s-1.9,4.9-4.8,4.9s-4.8-1.9-4.8-4.9S161.6,387.787,164.6,387.787
		 M164.6,395.588c1.7,0,2.3-1.5,2.3-3s-0.5-3-2.3-3c-1.7,0-2.2,1.5-2.2,3S162.8,395.588,164.6,395.588"/>
	<path fill="#173E68" d="M170.6,387.987h2.4v1.3h0.1c0.7-1.1,1.7-1.6,2.8-1.6c2.7,0,3.4,1.5,3.4,3.8v5.7h-2.6v-5.2
		c0-1.5-0.4-2.3-1.6-2.3c-1.4,0-2,0.8-2,2.6v4.9h-2.6L170.6,387.987z"/>
	<polygon fill="#173E68" points="184.4,384.487 187.2,384.487 187.2,389.388 192.4,389.388 192.4,384.487 195.2,384.487 
		195.2,397.287 192.4,397.287 192.4,391.787 187.2,391.787 187.2,397.287 184.4,397.287 	"/>
	<path fill="#173E68" d="M199.4,393.287c0.1,1.601,0.8,2.4,2.3,2.4c1,0,1.8-0.6,2-1.2h2.2c-0.7,2.2-2.2,3.101-4.3,3.101
		c-2.9,0-4.7-2-4.7-4.9c0-2.8,1.9-4.9,4.7-4.9c3.1,0,4.7,2.601,4.5,5.5H199.4z M203.5,391.588c-0.2-1.301-0.8-2-2-2
		c-1.7,0-2.1,1.199-2.1,2H203.5z"/>
	<path fill="#173E68" d="M207.6,390.787c0.2-2.399,2.3-3.1,4.4-3.1c1.8,0,4.1,0.4,4.1,2.6v4.801c0,0.8,0.1,1.699,0.3,2.1h-2.6
		c-0.1-0.3-0.2-0.6-0.2-0.9c-0.8,0.801-2,1.2-3.1,1.2c-1.8,0-3.1-0.899-3.1-2.8c0-4.2,6.3-2,6.2-4c0-1.1-0.7-1.2-1.7-1.2
		s-1.6,0.4-1.7,1.4h-2.6V390.787z M213.4,392.688c-0.4,0.4-1.3,0.4-2.1,0.5c-0.8,0.2-1.5,0.4-1.5,1.4s0.7,1.199,1.6,1.199
		c2,0,2.1-1.6,2.1-2.1v-1H213.4z"/>
	<path fill="#173E68" d="M225.7,387.987h1.9v1.7h-1.9v4.6c0,0.9,0.2,1.101,1.1,1.101c0.3,0,0.6,0,0.8-0.101v2
		c-0.4,0.101-1,0.101-1.5,0.101c-1.6,0-2.9-0.3-2.9-2.2v-5.5h-1.6v-1.7h1.6v-2.8h2.6v2.8H225.7z"/>
	<path fill="#173E68" d="M229.2,384.487h2.6v4.8h0.1c0.7-1.1,1.7-1.6,2.7-1.6c2.7,0,3.4,1.5,3.4,3.8v5.7h-2.6v-5.2
		c0-1.5-0.4-2.3-1.6-2.3c-1.4,0-2,0.8-2,2.6v4.9h-2.6V384.487z"/>
	<rect x="217.9" y="384.487" fill="#173E68" width="2.6" height="12.8"/>
</g>
<g>
	<path fill="#231F20" d="M313.313,213.318h20.232v3.78H325.6v21.212h-4.375v-21.212h-7.911V213.318z"/>
	<path fill="#231F20" d="M335.888,213.318h3.991v9.276h0.07c0.98-1.645,3.045-2.87,5.426-2.87c3.955,0,6.405,2.065,6.405,6.161
		v12.426h-3.99v-11.376c-0.105-2.835-1.155-4.061-3.535-4.061c-2.661,0-4.375,2.1-4.375,4.76v10.676h-3.991V213.318z"/>
	<path fill="#231F20" d="M359.093,230.295c0,2.835,1.541,5.355,4.866,5.355c2.345,0,3.71-1.015,4.411-3.01h3.78
		c-0.84,3.955-4.271,6.161-8.191,6.161c-5.706,0-8.856-3.92-8.856-9.521c0-5.146,3.36-9.556,8.751-9.556
		c5.706,0,9.206,5.146,8.541,10.571H359.093z M368.404,227.669c-0.175-2.521-1.82-4.795-4.55-4.795c-2.765,0-4.655,2.1-4.761,4.795
		H368.404z"/>
	<path fill="#231F20" d="M402.6,221.264c-0.735-2.905-2.59-4.97-6.231-4.97c-5.355,0-7.596,4.725-7.596,9.521
		c0,4.795,2.24,9.521,7.596,9.521c3.92,0,5.986-2.905,6.371-6.546h4.271c-0.385,5.986-4.585,10.116-10.641,10.116
		c-7.456,0-11.971-5.916-11.971-13.091c0-7.106,4.516-13.092,11.971-13.092c5.671,0,10.046,3.15,10.606,8.541H402.6z"/>
	<path fill="#231F20" d="M410.437,213.318h3.991v9.276h0.07c0.98-1.645,3.045-2.87,5.426-2.87c3.955,0,6.405,2.065,6.405,6.161
		v12.426h-3.99v-11.376c-0.105-2.835-1.155-4.061-3.535-4.061c-2.661,0-4.375,2.1-4.375,4.76v10.676h-3.991V213.318z"/>
	<path fill="#231F20" d="M445.684,234.285c0,0.98,0.21,1.365,0.945,1.365h0.42c0.175,0,0.35-0.035,0.56-0.07v2.766
		c-0.595,0.21-1.855,0.455-2.521,0.455c-1.645,0-2.765-0.56-3.08-2.206c-1.575,1.541-4.13,2.206-6.266,2.206
		c-3.255,0-6.196-1.75-6.196-5.286c0-4.516,3.605-5.25,6.966-5.636c2.905-0.56,5.425-0.175,5.425-2.555c0-2.1-2.17-2.45-3.745-2.45
		c-2.24,0-3.815,0.91-3.991,2.87h-3.99c0.28-4.655,4.201-6.021,8.226-6.021c3.535,0,7.246,1.435,7.246,5.25V234.285z
		 M441.693,229.245c-1.226,0.805-3.116,0.77-4.901,1.085c-1.715,0.28-3.255,0.91-3.255,3.01c0,1.82,2.275,2.311,3.676,2.311
		c1.75,0,4.48-0.91,4.48-3.431V229.245z"/>
	<path fill="#231F20" d="M449.987,220.214h3.781v2.66l0.07,0.07c1.225-1.995,3.255-3.22,5.636-3.22c3.955,0,6.405,2.065,6.405,6.161
		v12.426h-3.99v-11.376c-0.105-2.835-1.155-4.061-3.535-4.061c-2.661,0-4.375,2.1-4.375,4.76v10.676h-3.991V220.214z"/>
	<path fill="#231F20" d="M486.809,237.365c0,5.461-3.15,8.121-8.891,8.121c-3.64,0-7.701-1.4-8.086-5.636h3.991
		c0.49,2.275,2.31,2.661,4.34,2.661c3.22,0,4.656-1.646,4.656-4.621v-2.766h-0.07c-1.12,1.996-3.185,3.186-5.425,3.186
		c-5.741,0-8.121-4.34-8.121-9.521c0-4.866,3.045-9.066,8.191-9.066c2.275,0,4.34,0.91,5.355,2.975h0.07v-2.485h3.99V237.365z
		 M482.818,228.859c0-3.115-1.4-5.985-4.866-5.985c-3.536,0-4.761,3.29-4.761,6.301c0,2.94,1.436,5.985,4.761,5.985
		C481.488,235.16,482.818,231.975,482.818,228.859z"/>
	<path fill="#231F20" d="M493.946,230.295c0,2.835,1.541,5.355,4.866,5.355c2.345,0,3.71-1.015,4.411-3.01h3.78
		c-0.84,3.955-4.271,6.161-8.191,6.161c-5.706,0-8.856-3.92-8.856-9.521c0-5.146,3.36-9.556,8.751-9.556
		c5.706,0,9.206,5.146,8.541,10.571H493.946z M503.257,227.669c-0.175-2.521-1.82-4.795-4.55-4.795c-2.765,0-4.655,2.1-4.761,4.795
		H503.257z"/>
	<path fill="#231F20" d="M338.306,267.814c0,7.175-4.515,13.091-11.971,13.091c-7.456,0-11.971-5.916-11.971-13.091
		c0-7.106,4.516-13.092,11.971-13.092C333.791,254.723,338.306,260.708,338.306,267.814z M318.739,267.814
		c0,4.795,2.24,9.521,7.596,9.521s7.596-4.726,7.596-9.521c0-4.796-2.24-9.521-7.596-9.521S318.739,263.019,318.739,267.814z"/>
	<path fill="#231F20" d="M341.733,262.214h3.746v3.5h0.07c0.455-1.925,2.871-3.99,5.286-3.99c0.945,0,1.12,0.07,1.505,0.105v3.851
		c-0.56-0.105-1.155-0.175-1.715-0.175c-2.695,0-4.9,2.17-4.9,6.196v8.611h-3.991V262.214z"/>
	<path fill="#231F20" d="M354.158,255.318h3.991v3.78h-3.991V255.318z M354.158,262.214h3.991v18.097h-3.991V262.214z"/>
	<path fill="#231F20" d="M379.22,279.365c0,5.461-3.15,8.121-8.891,8.121c-3.64,0-7.701-1.4-8.086-5.636h3.991
		c0.49,2.275,2.31,2.661,4.34,2.661c3.22,0,4.656-1.646,4.656-4.621v-2.766h-0.07c-1.12,1.996-3.185,3.186-5.425,3.186
		c-5.741,0-8.121-4.34-8.121-9.521c0-4.866,3.045-9.066,8.191-9.066c2.275,0,4.34,0.91,5.355,2.975h0.07v-2.485h3.99V279.365z
		 M375.229,270.859c0-3.115-1.4-5.985-4.866-5.985c-3.536,0-4.761,3.29-4.761,6.301c0,2.94,1.436,5.985,4.761,5.985
		C373.899,277.16,375.229,273.975,375.229,270.859z"/>
	<path fill="#231F20" d="M383.347,255.318h3.991v3.78h-3.991V255.318z M383.347,262.214h3.991v18.097h-3.991V262.214z"/>
	<path fill="#231F20" d="M391.677,262.214h3.781v2.66l0.07,0.07c1.225-1.995,3.255-3.22,5.636-3.22c3.955,0,6.405,2.065,6.405,6.161
		v12.426h-3.99v-11.376c-0.105-2.835-1.155-4.061-3.535-4.061c-2.661,0-4.375,2.1-4.375,4.76v10.676h-3.991V262.214z"/>
	<path fill="#231F20" d="M426.924,276.285c0,0.98,0.21,1.365,0.945,1.365h0.42c0.175,0,0.35-0.035,0.56-0.07v2.766
		c-0.595,0.21-1.855,0.455-2.521,0.455c-1.645,0-2.765-0.56-3.08-2.206c-1.575,1.541-4.13,2.206-6.266,2.206
		c-3.255,0-6.196-1.75-6.196-5.286c0-4.516,3.605-5.25,6.966-5.636c2.905-0.56,5.425-0.175,5.425-2.555c0-2.1-2.17-2.45-3.745-2.45
		c-2.24,0-3.815,0.91-3.991,2.87h-3.99c0.28-4.655,4.201-6.021,8.226-6.021c3.535,0,7.246,1.435,7.246,5.25V276.285z
		 M422.934,271.245c-1.226,0.805-3.116,0.77-4.901,1.085c-1.715,0.28-3.255,0.91-3.255,3.01c0,1.82,2.275,2.311,3.676,2.311
		c1.75,0,4.48-0.91,4.48-3.431V271.245z"/>
	<path fill="#231F20" d="M429.407,262.214h3.01v-5.426h3.99v5.426h3.605v2.975h-3.605v9.661c0,1.645,0.14,2.485,1.925,2.485
		c0.56,0,1.12,0,1.68-0.14v3.08c-0.875,0.105-1.715,0.21-2.59,0.21c-4.201,0-4.9-1.61-5.005-4.62v-10.676h-3.01V262.214z"/>
	<path fill="#231F20" d="M442.042,271.245c0-5.496,3.36-9.521,9.136-9.521c5.776,0,9.136,4.025,9.136,9.521
		c0,5.565-3.36,9.556-9.136,9.556C445.402,280.801,442.042,276.81,442.042,271.245z M456.323,271.245
		c0-3.115-1.575-6.371-5.146-6.371s-5.146,3.255-5.146,6.371c0,3.15,1.575,6.406,5.146,6.406S456.323,274.395,456.323,271.245z"/>
	<path fill="#231F20" d="M463.636,262.214h3.746v3.5h0.07c0.455-1.925,2.871-3.99,5.286-3.99c0.945,0,1.12,0.07,1.505,0.105v3.851
		c-0.56-0.105-1.155-0.175-1.715-0.175c-2.695,0-4.9,2.17-4.9,6.196v8.611h-3.991V262.214z"/>
</g>
<g>
	<g>
		<path fill="#333333" d="M318.424,344.098h-2.976v-3.641h2.976V344.098z M315.448,347.354h2.976v18.097h-2.976V347.354z"/>
		<path fill="#333333" d="M324.863,359.745c0.105,2.66,2.45,3.5,4.865,3.5c1.855,0,4.375-0.42,4.375-2.695
			c0-4.656-11.831-1.505-11.831-8.471c0-3.64,3.57-5.146,6.756-5.146c4.06,0,7.141,1.26,7.42,5.671h-2.975
			c-0.175-2.311-2.275-3.045-4.201-3.045c-1.785,0-3.85,0.49-3.85,2.31c0,2.101,3.15,2.521,5.916,3.15
			c2.975,0.665,5.916,1.68,5.916,5.146c0,4.34-4.025,5.706-7.701,5.706c-4.061,0-7.491-1.645-7.666-6.125H324.863z"/>
		<path fill="#333333" d="M350.168,347.354h2.8v3.815h0.07c1.436-2.94,3.431-4.34,6.651-4.235v3.15
			c-4.795,0-6.546,2.695-6.546,7.316v8.051h-2.975V347.354z"/>
		<path fill="#333333" d="M377.364,359.709c-0.805,4.025-3.64,6.161-7.736,6.161c-5.775,0-8.506-4.025-8.681-9.521
			c0-5.46,3.57-9.416,8.506-9.416c6.406,0,8.366,5.986,8.191,10.361h-13.546c-0.105,3.15,1.68,5.951,5.635,5.951
			c2.485,0,4.166-1.155,4.69-3.536H377.364z M374.494,354.669c-0.175-2.835-2.24-5.11-5.216-5.11c-3.08,0-5.005,2.31-5.18,5.11
			H374.494z"/>
		<path fill="#333333" d="M382.542,359.745c0.105,2.66,2.45,3.5,4.865,3.5c1.855,0,4.375-0.42,4.375-2.695
			c0-4.656-11.831-1.505-11.831-8.471c0-3.64,3.57-5.146,6.756-5.146c4.06,0,7.141,1.26,7.42,5.671h-2.975
			c-0.175-2.311-2.275-3.045-4.201-3.045c-1.785,0-3.85,0.49-3.85,2.31c0,2.101,3.15,2.521,5.916,3.15
			c2.975,0.665,5.916,1.68,5.916,5.146c0,4.34-4.025,5.706-7.701,5.706c-4.061,0-7.491-1.645-7.666-6.125H382.542z"/>
		<path fill="#333333" d="M398.327,347.354h2.976v2.45h0.07c0.98-1.996,3.255-2.871,5.775-2.871c5.566,0,8.331,4.411,8.331,9.521
			c0,5.146-2.73,9.416-8.261,9.416c-1.82,0-4.551-0.7-5.846-2.835h-0.07v9.346h-2.976V347.354z M406.728,349.559
			c-4.025,0-5.531,3.465-5.531,6.826c0,3.535,1.61,6.861,5.706,6.861c4.06,0,5.425-3.465,5.425-7.001
			C412.329,352.849,410.579,349.559,406.728,349.559z"/>
		<path fill="#333333" d="M426.782,346.933c5.741,0,8.786,4.166,8.786,9.486c0,5.285-3.045,9.451-8.786,9.451
			c-5.74,0-8.786-4.166-8.786-9.451C417.997,351.099,421.042,346.933,426.782,346.933z M426.782,363.245
			c3.115,0,5.636-2.45,5.636-6.826s-2.521-6.861-5.636-6.861s-5.635,2.485-5.635,6.861S423.667,363.245,426.782,363.245z"/>
		<path fill="#333333" d="M439.066,347.354h2.8v2.87h0.07c1.26-2.24,3.255-3.291,5.881-3.291c4.76,0,6.23,2.73,6.23,6.616v11.901
			h-2.975v-12.251c0-2.24-1.4-3.64-3.675-3.64c-3.605,0-5.356,2.415-5.356,5.67v10.221h-2.975V347.354z"/>
		<path fill="#333333" d="M460.347,359.745c0.105,2.66,2.45,3.5,4.865,3.5c1.855,0,4.375-0.42,4.375-2.695
			c0-4.656-11.831-1.505-11.831-8.471c0-3.64,3.57-5.146,6.756-5.146c4.06,0,7.141,1.26,7.42,5.671h-2.975
			c-0.175-2.311-2.275-3.045-4.201-3.045c-1.785,0-3.85,0.49-3.85,2.31c0,2.101,3.15,2.521,5.916,3.15
			c2.975,0.665,5.916,1.68,5.916,5.146c0,4.34-4.025,5.706-7.701,5.706c-4.061,0-7.491-1.645-7.666-6.125H460.347z"/>
		<path fill="#333333" d="M479.177,344.098h-2.976v-3.641h2.976V344.098z M476.201,347.354h2.976v18.097h-2.976V347.354z"/>
		<path fill="#333333" d="M483.901,340.458h2.975v9.346h0.07c0.98-1.996,3.255-2.871,5.775-2.871c5.566,0,8.331,4.411,8.331,9.521
			c0,5.146-2.73,9.416-8.261,9.416c-1.82,0-4.551-0.7-5.846-2.835h-0.07v2.415h-2.975V340.458z M492.302,349.559
			c-4.025,0-5.531,3.465-5.531,6.826c0,3.535,1.61,6.861,5.706,6.861c4.061,0,5.426-3.465,5.426-7.001
			C497.902,352.849,496.152,349.559,492.302,349.559z"/>
		<path fill="#333333" d="M504.725,340.458h2.976v24.993h-2.976V340.458z"/>
		<path fill="#333333" d="M527.756,359.709c-0.805,4.025-3.64,6.161-7.736,6.161c-5.775,0-8.506-4.025-8.681-9.521
			c0-5.46,3.57-9.416,8.506-9.416c6.406,0,8.366,5.986,8.191,10.361H514.49c-0.105,3.15,1.68,5.951,5.635,5.951
			c2.485,0,4.166-1.155,4.69-3.536H527.756z M524.886,354.669c-0.175-2.835-2.24-5.11-5.216-5.11c-3.08,0-5.005,2.31-5.18,5.11
			H524.886z"/>
		<path fill="#333333" d="M542.069,349.979h-3.045v-2.625h3.045v-2.695c0-2.94,1.75-4.48,5.005-4.48c0.56,0,1.365,0.105,1.925,0.28
			v2.59c-0.525-0.175-1.155-0.245-1.68-0.245c-1.435,0-2.275,0.455-2.275,2.03v2.521h3.5v2.625h-3.5v15.472h-2.976V349.979z"/>
		<path fill="#333333" d="M559.01,346.933c5.741,0,8.786,4.166,8.786,9.486c0,5.285-3.045,9.451-8.786,9.451
			c-5.74,0-8.786-4.166-8.786-9.451C550.224,351.099,553.27,346.933,559.01,346.933z M559.01,363.245
			c3.115,0,5.636-2.45,5.636-6.826s-2.521-6.861-5.636-6.861s-5.635,2.485-5.635,6.861S555.895,363.245,559.01,363.245z"/>
		<path fill="#333333" d="M571.189,347.354h2.8v3.815h0.07c1.435-2.94,3.431-4.34,6.651-4.235v3.15
			c-4.795,0-6.546,2.695-6.546,7.316v8.051h-2.975V347.354z"/>
		<path fill="#333333" d="M318.424,384.098h-2.976v-3.641h2.976V384.098z M315.448,387.354h2.976v18.097h-2.976V387.354z"/>
		<path fill="#333333" d="M323.043,387.354h2.8v2.66h0.07c1.365-2.065,3.291-3.081,5.846-3.081c2.24,0,4.235,0.84,4.971,3.081
			c1.225-1.96,3.325-3.081,5.67-3.081c3.605,0,6.021,1.505,6.021,5.25v13.267h-2.975v-11.866c0-2.24-0.595-4.025-3.5-4.025
			s-4.726,1.82-4.726,4.621v11.271h-2.975v-11.866c0-2.345-0.735-4.025-3.396-4.025c-3.5,0-4.831,3.22-4.831,4.621v11.271h-2.975
			V387.354z"/>
		<path fill="#333333" d="M353.003,387.354h2.976v2.45h0.07c0.98-1.996,3.255-2.871,5.775-2.871c5.566,0,8.331,4.411,8.331,9.521
			c0,5.146-2.73,9.416-8.261,9.416c-1.82,0-4.551-0.7-5.846-2.835h-0.07v9.346h-2.976V387.354z M361.404,389.559
			c-4.025,0-5.531,3.465-5.531,6.826c0,3.535,1.61,6.861,5.706,6.861c4.06,0,5.425-3.465,5.425-7.001
			C367.004,392.849,365.254,389.559,361.404,389.559z"/>
		<path fill="#333333" d="M373.827,380.458h2.976v24.993h-2.976V380.458z"/>
		<path fill="#333333" d="M396.858,399.709c-0.805,4.025-3.64,6.161-7.736,6.161c-5.775,0-8.506-4.025-8.681-9.521
			c0-5.46,3.57-9.416,8.506-9.416c6.406,0,8.366,5.986,8.191,10.361h-13.546c-0.105,3.15,1.68,5.951,5.635,5.951
			c2.485,0,4.166-1.155,4.69-3.536H396.858z M393.988,394.669c-0.175-2.835-2.24-5.11-5.216-5.11c-3.08,0-5.005,2.31-5.18,5.11
			H393.988z"/>
		<path fill="#333333" d="M400.216,387.354h2.8v2.66h0.07c1.365-2.065,3.291-3.081,5.846-3.081c2.24,0,4.235,0.84,4.971,3.081
			c1.225-1.96,3.325-3.081,5.67-3.081c3.605,0,6.021,1.505,6.021,5.25v13.267h-2.975v-11.866c0-2.24-0.595-4.025-3.5-4.025
			s-4.726,1.82-4.726,4.621v11.271h-2.975v-11.866c0-2.345-0.735-4.025-3.396-4.025c-3.5,0-4.831,3.22-4.831,4.621v11.271h-2.975
			V387.354z"/>
		<path fill="#333333" d="M445.508,399.709c-0.805,4.025-3.64,6.161-7.736,6.161c-5.775,0-8.506-4.025-8.681-9.521
			c0-5.46,3.57-9.416,8.506-9.416c6.406,0,8.366,5.986,8.191,10.361h-13.546c-0.105,3.15,1.68,5.951,5.635,5.951
			c2.485,0,4.166-1.155,4.69-3.536H445.508z M442.638,394.669c-0.175-2.835-2.24-5.11-5.216-5.11c-3.08,0-5.005,2.31-5.18,5.11
			H442.638z"/>
		<path fill="#333333" d="M448.866,387.354h2.8v2.87h0.07c1.26-2.24,3.255-3.291,5.881-3.291c4.76,0,6.23,2.73,6.23,6.616v11.901
			h-2.975v-12.251c0-2.24-1.4-3.64-3.675-3.64c-3.605,0-5.356,2.415-5.356,5.67v10.221h-2.975V387.354z"/>
		<path fill="#333333" d="M472.456,387.354h3.605v2.625h-3.605v11.236c0,1.4,0.385,1.61,2.24,1.61h1.365v2.625h-2.275
			c-3.08,0-4.305-0.63-4.305-3.956v-11.516H466.4v-2.625h3.081v-5.426h2.975V387.354z"/>
		<path fill="#333333" d="M482.5,384.098h-2.976v-3.641h2.976V384.098z M479.525,387.354h2.976v18.097h-2.976V387.354z"/>
		<path fill="#333333" d="M487.12,387.354h2.8v2.87h0.07c1.26-2.24,3.255-3.291,5.881-3.291c4.76,0,6.23,2.73,6.23,6.616v11.901
			h-2.975v-12.251c0-2.24-1.4-3.64-3.675-3.64c-3.605,0-5.356,2.415-5.356,5.67v10.221h-2.975V387.354z"/>
		<path fill="#333333" d="M522.191,403.91c0,5.916-2.661,8.891-8.401,8.891c-3.396,0-7.316-1.4-7.491-5.32h2.975
			c0.105,2.135,2.765,2.94,4.69,2.94c3.885,0,5.426-2.8,5.426-6.861v-1.19h-0.07c-1.015,2.206-3.325,3.291-5.635,3.291
			c-5.391,0-8.086-4.235-8.086-9.171c0-4.271,2.065-9.556,8.366-9.556c2.275,0,4.306,1.015,5.391,3.01h0.035v-2.59h2.8V403.91z
			 M519.251,396.034c0-3.185-1.4-6.476-5.146-6.476c-3.815,0-5.355,3.115-5.355,6.581c0,3.255,1.19,6.896,5.11,6.896
			S519.251,399.43,519.251,396.034z"/>
		<path fill="#333333" d="M540.53,387.354h3.605v2.625h-3.605v11.236c0,1.4,0.385,1.61,2.24,1.61h1.365v2.625h-2.275
			c-3.08,0-4.305-0.63-4.305-3.956v-11.516h-3.081v-2.625h3.081v-5.426h2.975V387.354z"/>
		<path fill="#333333" d="M547.424,380.458h2.975v9.556h0.07c0.945-2.206,3.57-3.081,5.706-3.081c4.76,0,6.23,2.73,6.23,6.616
			v11.901h-2.975v-12.251c0-2.24-1.4-3.64-3.675-3.64c-3.605,0-5.356,2.415-5.356,5.67v10.221h-2.975V380.458z"/>
		<path fill="#333333" d="M582.32,399.709c-0.805,4.025-3.64,6.161-7.736,6.161c-5.775,0-8.506-4.025-8.681-9.521
			c0-5.46,3.57-9.416,8.506-9.416c6.406,0,8.366,5.986,8.191,10.361h-13.546c-0.105,3.15,1.68,5.951,5.635,5.951
			c2.485,0,4.166-1.155,4.69-3.536H582.32z M579.45,394.669c-0.175-2.835-2.24-5.11-5.216-5.11c-3.08,0-5.005,2.31-5.18,5.11H579.45
			z"/>
		<path fill="#333333" d="M331.305,445.38c-0.525,0.315-1.26,0.49-2.135,0.49c-1.54,0-2.521-0.84-2.521-2.8
			c-1.645,1.96-3.85,2.8-6.371,2.8c-3.29,0-5.985-1.435-5.985-5.075c0-4.096,3.045-5.006,6.125-5.566
			c3.255-0.665,6.091-0.385,6.091-2.66c0-2.625-2.17-3.01-4.025-3.01c-2.521,0-4.375,0.77-4.516,3.43h-2.976
			c0.175-4.48,3.605-6.056,7.666-6.056c3.255,0,6.791,0.735,6.791,4.971v9.311c0,1.4,0,2.03,0.945,2.03
			c0.28,0,0.595-0.07,0.91-0.175V445.38z M326.475,436.104c-2.31,1.715-9.031,0.035-9.031,4.48c0,1.96,1.68,2.661,3.5,2.661
			c3.92,0,5.531-2.416,5.531-4.096V436.104z"/>
		<path fill="#333333" d="M334.173,427.354h2.976v2.45h0.07c0.98-1.996,3.255-2.871,5.775-2.871c5.566,0,8.331,4.411,8.331,9.521
			c0,5.146-2.73,9.416-8.261,9.416c-1.82,0-4.551-0.7-5.846-2.835h-0.07v9.346h-2.976V427.354z M342.574,429.559
			c-4.025,0-5.531,3.465-5.531,6.826c0,3.535,1.61,6.861,5.706,6.861c4.06,0,5.425-3.465,5.425-7.001
			C348.174,432.849,346.424,429.559,342.574,429.559z"/>
		<path fill="#333333" d="M354.927,427.354h2.975v2.45h0.07c0.98-1.996,3.255-2.871,5.775-2.871c5.566,0,8.331,4.411,8.331,9.521
			c0,5.146-2.73,9.416-8.261,9.416c-1.82,0-4.551-0.7-5.846-2.835h-0.07v9.346h-2.975V427.354z M363.328,429.559
			c-4.025,0-5.531,3.465-5.531,6.826c0,3.535,1.61,6.861,5.706,6.861c4.061,0,5.426-3.465,5.426-7.001
			C368.929,432.849,367.179,429.559,363.328,429.559z"/>
		<path fill="#333333" d="M375.472,427.354h2.8v3.815h0.07c1.436-2.94,3.431-4.34,6.651-4.235v3.15
			c-4.795,0-6.546,2.695-6.546,7.316v8.051h-2.975V427.354z"/>
		<path fill="#333333" d="M395.037,426.933c5.741,0,8.786,4.166,8.786,9.486c0,5.285-3.045,9.451-8.786,9.451
			c-5.74,0-8.786-4.166-8.786-9.451C386.251,431.099,389.297,426.933,395.037,426.933z M395.037,443.245
			c3.115,0,5.636-2.45,5.636-6.826s-2.521-6.861-5.636-6.861s-5.635,2.485-5.635,6.861S391.922,443.245,395.037,443.245z"/>
		<path fill="#333333" d="M415.477,445.45h-3.185l-6.721-18.097h3.325l5.076,15.086h0.07l4.936-15.086h3.115L415.477,445.45z"/>
		<path fill="#333333" d="M440.258,439.709c-0.805,4.025-3.64,6.161-7.736,6.161c-5.775,0-8.506-4.025-8.681-9.521
			c0-5.46,3.57-9.416,8.506-9.416c6.406,0,8.366,5.986,8.191,10.361h-13.546c-0.105,3.15,1.68,5.951,5.635,5.951
			c2.485,0,4.166-1.155,4.69-3.536H440.258z M437.388,434.669c-0.175-2.835-2.24-5.11-5.216-5.11c-3.08,0-5.005,2.31-5.18,5.11
			H437.388z"/>
		<path fill="#333333" d="M459.788,445.45h-2.976V443h-0.07c-0.98,1.995-3.255,2.87-5.776,2.87c-5.565,0-8.331-4.41-8.331-9.521
			c0-5.11,2.73-9.416,8.261-9.416c1.82,0,4.55,0.7,5.846,2.835h0.07v-9.311h2.976V445.45z M451.387,443.245
			c4.025,0,5.53-3.465,5.53-6.826c0-3.536-1.61-6.861-5.706-6.861c-4.061,0-5.425,3.465-5.425,7
			C445.786,439.955,447.536,443.245,451.387,443.245z"/>
		<path fill="#333333" d="M492.162,427.983c-0.735-3.536-3.5-5.321-7.001-5.321c-5.951,0-8.471,4.901-8.471,10.116
			c0,5.706,2.52,10.466,8.506,10.466c4.34,0,6.931-3.081,7.211-7.211h3.325c-0.665,6.266-4.48,10.011-10.816,10.011
			c-7.735,0-11.551-5.741-11.551-13.021s4.13-13.162,11.831-13.162c5.215,0,9.556,2.8,10.291,8.121H492.162z"/>
		<path fill="#333333" d="M499.37,420.458h2.975v9.556h0.07c0.945-2.206,3.57-3.081,5.706-3.081c4.76,0,6.23,2.73,6.23,6.616v11.901
			h-2.975v-12.251c0-2.24-1.4-3.64-3.675-3.64c-3.605,0-5.356,2.415-5.356,5.67v10.221h-2.975V420.458z"/>
		<path fill="#333333" d="M534.861,445.38c-0.525,0.315-1.26,0.49-2.135,0.49c-1.54,0-2.521-0.84-2.521-2.8
			c-1.645,1.96-3.85,2.8-6.371,2.8c-3.29,0-5.985-1.435-5.985-5.075c0-4.096,3.045-5.006,6.125-5.566
			c3.255-0.665,6.091-0.385,6.091-2.66c0-2.625-2.17-3.01-4.025-3.01c-2.521,0-4.375,0.77-4.516,3.43h-2.975
			c0.175-4.48,3.605-6.056,7.666-6.056c3.255,0,6.791,0.735,6.791,4.971v9.311c0,1.4,0,2.03,0.945,2.03
			c0.28,0,0.595-0.07,0.91-0.175V445.38z M530.031,436.104c-2.31,1.715-9.031,0.035-9.031,4.48c0,1.96,1.68,2.661,3.5,2.661
			c3.92,0,5.531-2.416,5.531-4.096V436.104z"/>
		<path fill="#333333" d="M537.624,427.354h2.8v2.87h0.07c1.26-2.24,3.255-3.291,5.881-3.291c4.76,0,6.23,2.73,6.23,6.616v11.901
			h-2.975v-12.251c0-2.24-1.4-3.64-3.675-3.64c-3.605,0-5.356,2.415-5.356,5.67v10.221h-2.975V427.354z"/>
		<path fill="#333333" d="M572.696,443.91c0,5.916-2.661,8.891-8.401,8.891c-3.396,0-7.316-1.4-7.491-5.32h2.976
			c0.105,2.135,2.765,2.94,4.69,2.94c3.885,0,5.426-2.8,5.426-6.861v-1.19h-0.07c-1.015,2.206-3.325,3.291-5.635,3.291
			c-5.391,0-8.086-4.235-8.086-9.171c0-4.271,2.065-9.556,8.366-9.556c2.275,0,4.306,1.015,5.391,3.01h0.035v-2.59h2.8V443.91z
			 M569.755,436.034c0-3.185-1.4-6.476-5.146-6.476c-3.815,0-5.355,3.115-5.355,6.581c0,3.255,1.19,6.896,5.11,6.896
			S569.755,439.43,569.755,436.034z"/>
		<path fill="#333333" d="M592.61,439.709c-0.805,4.025-3.64,6.161-7.736,6.161c-5.775,0-8.506-4.025-8.681-9.521
			c0-5.46,3.57-9.416,8.506-9.416c6.406,0,8.366,5.986,8.191,10.361h-13.546c-0.105,3.15,1.68,5.951,5.635,5.951
			c2.485,0,4.166-1.155,4.69-3.536H592.61z M589.74,434.669c-0.175-2.835-2.24-5.11-5.216-5.11c-3.08,0-5.005,2.31-5.18,5.11H589.74
			z"/>
		<path fill="#333333" d="M315.764,460.458h11.761c4.725,0,7.596,2.521,7.596,6.546c0,3.045-1.295,5.496-4.34,6.335v0.07
			c2.905,0.561,3.465,2.73,3.745,5.146c0.175,2.415,0.07,5.215,1.47,6.896h-3.71c-0.945-1.015-0.42-3.71-0.91-6.161
			c-0.385-2.415-0.945-4.516-4.166-4.516h-8.121v10.676h-3.325V460.458z M326.02,471.974c3.081,0,5.775-0.805,5.775-4.445
			c0-2.485-1.33-4.271-4.445-4.271h-8.261v8.716H326.02z"/>
		<path fill="#333333" d="M354.685,479.709c-0.805,4.025-3.64,6.161-7.736,6.161c-5.775,0-8.506-4.025-8.681-9.521
			c0-5.46,3.57-9.416,8.506-9.416c6.406,0,8.366,5.986,8.191,10.361h-13.546c-0.105,3.15,1.68,5.951,5.635,5.951
			c2.485,0,4.166-1.155,4.69-3.536H354.685z M351.815,474.669c-0.175-2.835-2.24-5.11-5.216-5.11c-3.08,0-5.005,2.31-5.18,5.11
			H351.815z"/>
		<path fill="#333333" d="M374.215,492.381h-2.976V483h-0.07c-0.98,1.995-3.255,2.87-5.776,2.87c-5.565,0-8.331-4.41-8.331-9.521
			c0-5.11,2.73-9.416,8.261-9.416c1.82,0,4.55,0.7,5.846,2.835h0.07v-2.415h2.976V492.381z M365.814,483.245
			c4.025,0,5.53-3.465,5.53-6.826c0-3.536-1.61-6.861-5.706-6.861c-4.061,0-5.425,3.465-5.425,7
			C360.213,479.955,361.963,483.245,365.814,483.245z"/>
		<path fill="#333333" d="M393.779,485.45h-2.8v-2.87h-0.07c-1.26,2.24-3.255,3.29-5.881,3.29c-4.76,0-6.23-2.73-6.23-6.616v-11.901
			h2.975v12.251c0,2.24,1.4,3.641,3.676,3.641c3.605,0,5.355-2.416,5.355-5.671v-10.221h2.975V485.45z"/>
		<path fill="#333333" d="M413.694,479.709c-0.805,4.025-3.64,6.161-7.736,6.161c-5.775,0-8.506-4.025-8.681-9.521
			c0-5.46,3.57-9.416,8.506-9.416c6.406,0,8.366,5.986,8.191,10.361h-13.546c-0.105,3.15,1.68,5.951,5.635,5.951
			c2.485,0,4.166-1.155,4.69-3.536H413.694z M410.824,474.669c-0.175-2.835-2.24-5.11-5.216-5.11c-3.08,0-5.005,2.31-5.18,5.11
			H410.824z"/>
		<path fill="#333333" d="M418.872,479.745c0.105,2.66,2.45,3.5,4.865,3.5c1.855,0,4.375-0.42,4.375-2.695
			c0-4.656-11.831-1.505-11.831-8.471c0-3.64,3.57-5.146,6.756-5.146c4.06,0,7.141,1.26,7.42,5.671h-2.975
			c-0.175-2.311-2.275-3.045-4.201-3.045c-1.785,0-3.85,0.49-3.85,2.31c0,2.101,3.15,2.521,5.916,3.15
			c2.975,0.665,5.916,1.68,5.916,5.146c0,4.34-4.025,5.706-7.701,5.706c-4.061,0-7.491-1.645-7.666-6.125H418.872z"/>
		<path fill="#333333" d="M438.682,467.354h3.605v2.625h-3.605v11.236c0,1.4,0.385,1.61,2.24,1.61h1.365v2.625h-2.275
			c-3.08,0-4.305-0.63-4.305-3.956v-11.516h-3.081v-2.625h3.081v-5.426h2.975V467.354z"/>
		<path fill="#333333" d="M446.241,481.565h3.885v3.885h-3.885V481.565z"/>
	</g>
</g>
<path fill="#89C240" d="M202.45,357.66h-95.7c-5.5,0-10-4.5-10-10v-107.9c0-5.5,4.5-10,10-10h95.7c5.5,0,10,4.5,10,10v107.9
	C212.45,353.16,207.95,357.66,202.45,357.66"/>
<g enable-background="new    ">
	<path fill="#FFFFFF" d="M82.694,97.898h-7.177L69.95,75.54h-0.092l-5.475,22.358h-7.315l-8.695-32.848h7.223l5.199,22.358h0.092
		l5.705-22.358h6.763l5.613,22.635h0.092l5.382-22.635h7.085L82.694,97.898z"/>
	<path fill="#FFFFFF" d="M94.144,65.051h6.533v12.375h0.138c1.656-2.714,4.508-3.956,6.947-3.956c6.947,0,8.695,3.91,8.695,9.799
		v14.63h-6.533V84.465c0-3.91-1.104-5.843-4.187-5.843c-3.542,0-5.061,1.979-5.061,6.809v12.468h-6.533V65.051z"/>
	<path fill="#FFFFFF" d="M132.968,73.47c7.499,0,12.329,4.969,12.329,12.56c0,7.545-4.831,12.514-12.329,12.514
		c-7.453,0-12.284-4.969-12.284-12.514C120.685,78.438,125.515,73.47,132.968,73.47z M132.968,93.62
		c4.462,0,5.796-3.772,5.796-7.591s-1.334-7.637-5.796-7.637c-4.417,0-5.751,3.818-5.751,7.637S128.552,93.62,132.968,93.62z"/>
</g>
<g enable-background="new    ">
	<path d="M809.697,65.051h7.223v12.605h13.296V65.051h7.223v32.848h-7.223v-14.17h-13.296v14.17h-7.223V65.051z"/>
	<path d="M854.64,73.47c7.499,0,12.329,4.969,12.329,12.56c0,7.545-4.831,12.514-12.329,12.514c-7.453,0-12.284-4.969-12.284-12.514
		C842.356,78.438,847.187,73.47,854.64,73.47z M854.64,93.62c4.462,0,5.796-3.772,5.796-7.591s-1.334-7.637-5.796-7.637
		c-4.417,0-5.751,3.818-5.751,7.637S850.224,93.62,854.64,93.62z"/>
	<path d="M898.387,97.898h-6.717l-4.232-15.964h-0.092l-4.049,15.964h-6.763l-7.545-23.785h6.901l4.371,16.148h0.092l3.957-16.148
		h6.349l4.049,16.103h0.092l4.371-16.103h6.717L898.387,97.898z"/>
</g>
<line fill="none" stroke="#343636" stroke-width="4.7552" stroke-miterlimit="10" x1="48.187" y1="39.4" x2="726.431" y2="39.4"/>
<g>
	<path fill="#89C240" d="M202.45,357.66h-95.7c-5.5,0-10-4.5-10-10v-107.9c0-5.5,4.5-10,10-10h95.7c5.5,0,10,4.5,10,10v107.9
		C212.45,353.16,207.95,357.66,202.45,357.66"/>
	<polygon fill-rule="evenodd" clip-rule="evenodd" fill="#666666" points="170.431,255.924 170.431,255.924 170.378,255.963 
		170.431,255.924 	"/>
	<path fill-rule="evenodd" clip-rule="evenodd" fill="#916F45" d="M138.298,282.949l26.278,0.012l2.774,29.88
		c0.199,2.081,2,3.683,4.228,3.748l0.508,0.015l-3.335,11.164l-34.908-2.734l-2.561-8.444l0.959-0.146
		c2.042-0.294,3.548-1.813,3.695-3.748L138.298,282.949z"/>
	<path fill-rule="evenodd" clip-rule="evenodd" fill="#85633C" d="M151.61,326.435l-17.767-1.401l-2.561-8.444l0.959-0.146
		c2.042-0.294,3.548-1.813,3.695-3.748l1.682-21.075h14.005L151.61,326.435z"/>
	<path fill-rule="evenodd" clip-rule="evenodd" fill="#735735" d="M138.298,282.949l26.278,0.012l2.107,22.598
		c-0.494,0.8-0.814,1.24-1.348,1.974c-3.829,5.282-8.817,8.872-13.646,8.872c-4.815,0-9.791-3.604-13.632-8.872
		c-0.601-0.827-0.987-1.4-1.521-2.294L138.298,282.949z"/>
	<path fill-rule="evenodd" clip-rule="evenodd" fill="#2C3E50" d="M151.61,308.533c-6.122,0-12.271-3.975-16.86-9.818
		c-4.509-5.748-7.549-13.352-7.549-20.715v-0.188l0.027-0.08c-0.014-0.492-0.027-0.986-0.027-1.467
		c0-17.66-3.241-31.986,24.45-31.974c27.678,0.014,24.424,14.326,24.424,31.987c0,0.493-0.014,0.986-0.04,1.467l0.026,0.094v0.173
		c0,7.363-3.055,14.979-7.577,20.716C163.909,304.571,157.747,308.546,151.61,308.533z"/>
	<polygon fill-rule="evenodd" clip-rule="evenodd" fill="#ECF0F1" points="155.866,322.752 147.622,322.752 135.75,313.615 
		131.201,316.589 127.319,357.633 173.7,357.647 172.005,316.589 167.55,313.735 	"/>
	<polygon fill-rule="evenodd" clip-rule="evenodd" fill="#DAE1E6" points="155.866,322.752 147.622,322.752 135.75,313.615 
		131.908,316.123 131.308,316.683 154.545,338.346 154.291,357.647 173.687,357.647 172.005,316.604 167.55,313.735 	"/>
	<path fill-rule="evenodd" clip-rule="evenodd" fill="#AA8150" d="M135.296,301.983c4.589,5.855,10.552,9.831,16.314,9.831
		c5.763,0,11.739-3.976,16.327-9.817c4.708-6.003,7.91-13.913,7.977-21.583l-1.614-6.082c-0.573-2.175-0.613-4.202-0.654-6.137
		c-0.053-2.521-0.105-4.855-1.6-6.776c-2.375-3.081-6.149-2.081-10.565-0.907c-3.014,0.801-6.282,1.668-9.843,1.668
		c-3.562-0.014-6.83-0.881-9.832-1.68h-0.013c-4.429-1.174-8.177-2.176-10.564,0.906c-1.481,1.907-1.548,4.255-1.601,6.776
		c-0.04,1.934-0.094,3.961-0.667,6.136l-1.613,6.082C127.399,288.058,130.588,295.98,135.296,301.983z"/>
	<path fill-rule="evenodd" clip-rule="evenodd" fill="#977042" d="M135.296,301.983c4.589,5.855,10.552,9.831,16.314,9.831
		l0.027-49.635c-3.562-0.014-6.83-0.881-9.832-1.68h-0.013c-4.429-1.174-8.177-2.176-10.564,0.906
		c-1.481,1.907-1.548,4.255-1.601,6.776c-0.04,1.934-0.094,3.961-0.667,6.136l-1.613,6.082
		C127.399,288.058,130.588,295.98,135.296,301.983z"/>
	<path fill-rule="evenodd" clip-rule="evenodd" fill="#2C3E50" d="M105.443,335.891c0,4.856-0.013,9.711-0.013,14.566
		c0,3.949,3.442,7.163,7.656,7.163c25.665,0.013,51.341,0.027,77.006,0.04c4.214,0,7.656-3.215,7.656-7.162l0.013-14.553
		c0-9.885-11.178-16.328-25.758-19.356c-4.507,16.595-8.696,22.329-15.833,35.256l-2.614-21.597c-0.054-0.492,0.08-0.906,0.333-1.36
		l2.762-4.801c0.174-0.28,0.2-0.602,0.04-0.882c-0.173-0.293-0.481-0.453-0.827-0.453c-2.749,0-5.497,0-8.244,0
		c-0.347,0-0.641,0.16-0.814,0.453c-0.174,0.28-0.134,0.602,0.027,0.882l2.748,4.801c0.268,0.44,0.4,0.868,0.347,1.348
		l-2.695,22.036c-7.256-13.232-11.485-18.928-16.034-35.683C116.621,319.576,105.443,326.021,105.443,335.891z"/>
	<path fill-rule="evenodd" clip-rule="evenodd" fill="#2C3E50" d="M153.558,330.248c-0.054-0.492,0.08-0.906,0.347-1.36l2.748-4.801
		c0.174-0.28,0.2-0.602,0.04-0.882c-0.173-0.293-0.481-0.453-0.827-0.453c-2.749,0-5.497,0-8.244,0c-0.347,0-0.641,0.16-0.814,0.453
		c-0.16,0.28-0.134,0.602,0.027,0.882l2.748,4.801c0.268,0.44,0.4,0.868,0.347,1.348l-0.427,3.415l5.042,4.695L153.558,330.248z"/>
	<polygon fill-rule="evenodd" clip-rule="evenodd" fill="#ECF0F1" points="151.744,322.752 135.75,313.615 131.201,316.589 
		146.888,331.57 	"/>
	<polygon fill-rule="evenodd" clip-rule="evenodd" fill="#ECF0F1" points="151.744,322.752 167.55,313.735 172.086,316.604 
		156.599,331.57 	"/>
</g>
</svg>
