<?xml version="1.0" encoding="utf-8"?>
<!-- Generator: Adobe Illustrator 16.0.3, SVG Export Plug-In . SVG Version: 6.00 Build 0)  -->
<!DOCTYPE svg PUBLIC "-//W3C//DTD SVG 1.1//EN" "http://www.w3.org/Graphics/SVG/1.1/DTD/svg11.dtd">
<svg version="1.1" id="Layer_1" xmlns="http://www.w3.org/2000/svg" xmlns:xlink="http://www.w3.org/1999/xlink" x="0px" y="0px"
	 width="2048px" height="1000px" viewBox="0 0 2048 1000" enable-background="new 0 0 2048 1000" xml:space="preserve">
<rect fill="#B9E5FB" width="2048" height="1000"/>
<line fill="none" stroke="#343636" stroke-width="3" stroke-miterlimit="10" x1="50" y1="53.718" x2="2010.762" y2="53.718"/>
<g>
	<g>
		<path fill="#333333" d="M1408.697,599.76h4.199l11.158,28.555h-4.199l-3.119-8.599h-12.078l-3.199,8.599h-3.92L1408.697,599.76z
			 M1405.859,616.517h9.678l-4.76-13.317h-0.08L1405.859,616.517z"/>
		<path fill="#333333" d="M1437.299,607.638h3.199v4.359h0.08c1.641-3.359,3.92-4.959,7.6-4.839v3.6
			c-5.479,0-7.479,3.079-7.479,8.358v9.198h-3.4V607.638z"/>
		<path fill="#333333" d="M1468.375,621.756c-0.92,4.6-4.158,7.039-8.838,7.039c-6.6,0-9.719-4.6-9.918-10.879
			c0-6.238,4.08-10.758,9.719-10.758c7.318,0,9.559,6.839,9.357,11.838h-15.477c-0.121,3.6,1.92,6.799,6.439,6.799
			c2.838,0,4.758-1.32,5.357-4.039H1468.375z M1465.096,615.996c-0.199-3.239-2.559-5.838-5.959-5.838
			c-3.52,0-5.719,2.639-5.918,5.838H1465.096z"/>
		<path fill="#333333" d="M1486.256,614.277c-0.52-2.6-2.279-4.119-5.119-4.119c-4.92,0-6.439,3.918-6.439,8.078
			c0,3.84,1.721,7.559,6.039,7.559c3.32,0,5.24-1.88,5.68-5.039h3.479c-0.76,5.079-3.879,8.039-9.117,8.039
			c-6.32,0-9.68-4.359-9.68-10.559s3.201-11.078,9.76-11.078c4.719,0,8.398,2.199,8.918,7.119H1486.256z"/>
		<path fill="#333333" d="M1502.617,607.158c6.559,0,10.037,4.759,10.037,10.838c0,6.039-3.479,10.799-10.037,10.799
			c-6.561,0-10.039-4.76-10.039-10.799C1492.578,611.917,1496.057,607.158,1502.617,607.158z M1502.617,625.795
			c3.559,0,6.438-2.8,6.438-7.799s-2.879-7.838-6.438-7.838c-3.561,0-6.439,2.839-6.439,7.838S1499.057,625.795,1502.617,625.795z"
			/>
		<path fill="#333333" d="M1516.537,607.638h3.199v4.359h0.08c1.641-3.359,3.92-4.959,7.6-4.839v3.6
			c-5.479,0-7.479,3.079-7.479,8.358v9.198h-3.4V607.638z"/>
		<path fill="#333333" d="M1548.453,628.314h-3.398v-2.799h-0.08c-1.119,2.279-3.719,3.279-6.6,3.279
			c-6.357,0-9.518-5.039-9.518-10.879c0-5.839,3.119-10.758,9.438-10.758c2.08,0,5.199,0.8,6.68,3.239h0.08V599.76h3.398V628.314z
			 M1538.855,625.795c4.6,0,6.318-3.959,6.318-7.799c0-4.039-1.84-7.838-6.518-7.838c-4.641,0-6.199,3.959-6.199,7.998
			C1532.457,622.035,1534.457,625.795,1538.855,625.795z"/>
		<path fill="#333333" d="M1585.293,628.314h-3.6l-4.199-16.438h-0.08l-4.158,16.438h-3.68l-6.639-20.677h3.76l4.678,16.917h0.08
			l4.16-16.917h3.719l4.32,16.917h0.08l4.639-16.917h3.52L1585.293,628.314z"/>
		<path fill="#333333" d="M1595.137,599.76h3.4v10.918h0.08c1.08-2.52,4.078-3.52,6.518-3.52c5.439,0,7.119,3.119,7.119,7.559
			v13.598h-3.398v-13.998c0-2.559-1.6-4.158-4.199-4.158c-4.119,0-6.119,2.759-6.119,6.479v11.678h-3.4V599.76z"/>
		<path fill="#333333" d="M1620.977,603.918h-3.398v-4.158h3.398V603.918z M1617.578,607.638h3.398v20.677h-3.398V607.638z"/>
		<path fill="#333333" d="M1640.295,614.277c-0.521-2.6-2.281-4.119-5.119-4.119c-4.92,0-6.439,3.918-6.439,8.078
			c0,3.84,1.719,7.559,6.039,7.559c3.318,0,5.238-1.88,5.678-5.039h3.48c-0.76,5.079-3.879,8.039-9.119,8.039
			c-6.318,0-9.678-4.359-9.678-10.559s3.199-11.078,9.758-11.078c4.719,0,8.398,2.199,8.918,7.119H1640.295z"/>
		<path fill="#333333" d="M1647.736,599.76h3.398v10.918h0.08c1.08-2.52,4.08-3.52,6.52-3.52c5.439,0,7.119,3.119,7.119,7.559
			v13.598h-3.4v-13.998c0-2.559-1.6-4.158-4.199-4.158c-4.119,0-6.119,2.759-6.119,6.479v11.678h-3.398V599.76z"/>
		<path fill="#333333" d="M1684.695,603.918h-3.398v-4.158h3.398V603.918z M1681.297,607.638h3.398v20.677h-3.398V607.638z"/>
		<path fill="#333333" d="M1689.975,607.638h3.199v3.28h0.08c1.439-2.561,3.721-3.76,6.719-3.76c5.439,0,7.119,3.119,7.119,7.559
			v13.598h-3.398v-13.998c0-2.559-1.6-4.158-4.199-4.158c-4.119,0-6.119,2.759-6.119,6.479v11.678h-3.4V607.638z"/>
		<path fill="#333333" d="M1726.254,614.277c-0.521-2.6-2.281-4.119-5.119-4.119c-4.92,0-6.439,3.918-6.439,8.078
			c0,3.84,1.719,7.559,6.039,7.559c3.318,0,5.238-1.88,5.678-5.039h3.48c-0.76,5.079-3.879,8.039-9.119,8.039
			c-6.318,0-9.678-4.359-9.678-10.559s3.199-11.078,9.758-11.078c4.719,0,8.398,2.199,8.918,7.119H1726.254z"/>
		<path fill="#333333" d="M1733.895,599.76h3.4v28.555h-3.4V599.76z"/>
		<path fill="#333333" d="M1759.691,628.314h-3.199v-3.279h-0.08c-1.439,2.56-3.719,3.76-6.719,3.76
			c-5.439,0-7.119-3.12-7.119-7.559v-13.599h3.4v13.998c0,2.56,1.6,4.159,4.199,4.159c4.119,0,6.119-2.76,6.119-6.479v-11.679h3.398
			V628.314z"/>
		<path fill="#333333" d="M1783.291,628.314h-3.398v-2.799h-0.08c-1.119,2.279-3.719,3.279-6.6,3.279
			c-6.357,0-9.518-5.039-9.518-10.879c0-5.839,3.119-10.758,9.438-10.758c2.08,0,5.199,0.8,6.68,3.239h0.08V599.76h3.398V628.314z
			 M1773.693,625.795c4.6,0,6.318-3.959,6.318-7.799c0-4.039-1.84-7.838-6.518-7.838c-4.641,0-6.199,3.959-6.199,7.998
			C1767.295,622.035,1769.295,625.795,1773.693,625.795z"/>
		<path fill="#333333" d="M1806.172,621.756c-0.92,4.6-4.16,7.039-8.838,7.039c-6.6,0-9.719-4.6-9.92-10.879
			c0-6.238,4.08-10.758,9.719-10.758c7.318,0,9.559,6.839,9.359,11.838h-15.479c-0.119,3.6,1.92,6.799,6.439,6.799
			c2.84,0,4.76-1.32,5.359-4.039H1806.172z M1802.893,615.996c-0.201-3.239-2.561-5.838-5.959-5.838c-3.52,0-5.719,2.639-5.92,5.838
			H1802.893z"/>
		<path fill="#333333" d="M1812.094,621.795c0.119,3.04,2.799,4,5.559,4c2.121,0,5-0.48,5-3.08c0-5.318-13.518-1.719-13.518-9.678
			c0-4.159,4.078-5.879,7.719-5.879c4.639,0,8.158,1.439,8.479,6.479h-3.4c-0.199-2.639-2.6-3.479-4.799-3.479
			c-2.039,0-4.398,0.559-4.398,2.639c0,2.4,3.6,2.88,6.758,3.6c3.4,0.76,6.76,1.92,6.76,5.879c0,4.959-4.6,6.52-8.799,6.52
			c-4.639,0-8.559-1.881-8.758-7H1812.094z"/>
		<path fill="#333333" d="M1859.451,628.234c-0.6,0.359-1.439,0.561-2.439,0.561c-1.76,0-2.879-0.961-2.879-3.2
			c-1.881,2.239-4.4,3.2-7.279,3.2c-3.76,0-6.84-1.641-6.84-5.8c0-4.679,3.48-5.719,7-6.358c3.719-0.76,6.959-0.44,6.959-3.04
			c0-2.999-2.48-3.438-4.6-3.438c-2.879,0-5,0.879-5.16,3.918h-3.398c0.199-5.119,4.119-6.918,8.758-6.918
			c3.721,0,7.76,0.84,7.76,5.679v10.638c0,1.601,0,2.32,1.08,2.32c0.318,0,0.68-0.08,1.039-0.2V628.234z M1853.932,617.637
			c-2.639,1.959-10.318,0.039-10.318,5.119c0,2.239,1.92,3.039,4,3.039c4.479,0,6.318-2.76,6.318-4.68V617.637z"/>
		<path fill="#333333" d="M1402.156,678.314h-3.398v-2.799h-0.08c-1.119,2.279-3.719,3.279-6.6,3.279
			c-6.357,0-9.518-5.039-9.518-10.879c0-5.839,3.119-10.758,9.438-10.758c2.08,0,5.199,0.8,6.68,3.239h0.08V649.76h3.398V678.314z
			 M1392.559,675.795c4.6,0,6.318-3.959,6.318-7.799c0-4.039-1.84-7.838-6.518-7.838c-4.641,0-6.199,3.959-6.199,7.998
			C1386.16,672.035,1388.16,675.795,1392.559,675.795z"/>
		<path fill="#333333" d="M1425.037,671.756c-0.92,4.6-4.16,7.039-8.838,7.039c-6.6,0-9.719-4.6-9.92-10.879
			c0-6.238,4.08-10.758,9.719-10.758c7.318,0,9.559,6.839,9.359,11.838h-15.479c-0.119,3.6,1.92,6.799,6.439,6.799
			c2.84,0,4.76-1.32,5.359-4.039H1425.037z M1421.758,665.996c-0.201-3.239-2.561-5.838-5.959-5.838c-3.52,0-5.719,2.639-5.92,5.838
			H1421.758z"/>
		<path fill="#333333" d="M1430.959,671.795c0.119,3.04,2.799,4,5.559,4c2.121,0,5-0.48,5-3.08c0-5.318-13.518-1.719-13.518-9.678
			c0-4.159,4.078-5.879,7.719-5.879c4.639,0,8.158,1.439,8.479,6.479h-3.4c-0.199-2.639-2.6-3.479-4.799-3.479
			c-2.039,0-4.398,0.559-4.398,2.639c0,2.4,3.6,2.88,6.758,3.6c3.4,0.76,6.76,1.92,6.76,5.879c0,4.959-4.6,6.52-8.799,6.52
			c-4.639,0-8.559-1.881-8.758-7H1430.959z"/>
		<path fill="#333333" d="M1462.918,664.277c-0.521-2.6-2.281-4.119-5.119-4.119c-4.92,0-6.439,3.918-6.439,8.078
			c0,3.84,1.719,7.559,6.039,7.559c3.318,0,5.238-1.88,5.678-5.039h3.48c-0.76,5.079-3.879,8.039-9.119,8.039
			c-6.318,0-9.678-4.359-9.678-10.559s3.199-11.078,9.758-11.078c4.719,0,8.398,2.199,8.918,7.119H1462.918z"/>
		<path fill="#333333" d="M1470.238,657.638h3.199v4.359h0.08c1.641-3.359,3.92-4.959,7.6-4.839v3.6
			c-5.479,0-7.479,3.079-7.479,8.358v9.198h-3.4V657.638z"/>
		<path fill="#333333" d="M1487.277,653.918h-3.398v-4.158h3.398V653.918z M1483.879,657.638h3.398v20.677h-3.398V657.638z"/>
		<path fill="#333333" d="M1492.678,657.638h3.398v2.8h0.08c1.119-2.279,3.719-3.279,6.6-3.279c6.359,0,9.518,5.039,9.518,10.878
			c0,5.879-3.119,10.759-9.438,10.759c-2.08,0-5.199-0.801-6.68-3.24h-0.08v10.678h-3.398V657.638z M1502.275,660.158
			c-4.6,0-6.318,3.959-6.318,7.798c0,4.04,1.84,7.839,6.518,7.839c4.641,0,6.199-3.959,6.199-7.998
			C1508.674,663.917,1506.674,660.158,1502.275,660.158z"/>
		<path fill="#333333" d="M1520.996,657.638h4.119v2.999h-4.119v12.838c0,1.601,0.439,1.84,2.559,1.84h1.561v3h-2.6
			c-3.52,0-4.92-0.72-4.92-4.52v-13.158h-3.518v-2.999h3.518v-6.198h3.4V657.638z"/>
		<path fill="#333333" d="M1532.477,653.918h-3.4v-4.158h3.4V653.918z M1529.076,657.638h3.4v20.677h-3.4V657.638z"/>
		<path fill="#333333" d="M1546.676,657.158c6.559,0,10.037,4.759,10.037,10.838c0,6.039-3.479,10.799-10.037,10.799
			c-6.561,0-10.039-4.76-10.039-10.799C1536.637,661.917,1540.115,657.158,1546.676,657.158z M1546.676,675.795
			c3.559,0,6.438-2.8,6.438-7.799s-2.879-7.838-6.438-7.838c-3.561,0-6.439,2.839-6.439,7.838S1543.115,675.795,1546.676,675.795z"
			/>
		<path fill="#333333" d="M1560.717,657.638h3.199v3.28h0.08c1.439-2.561,3.719-3.76,6.719-3.76c5.439,0,7.119,3.119,7.119,7.559
			v13.598h-3.4v-13.998c0-2.559-1.6-4.158-4.199-4.158c-4.119,0-6.119,2.759-6.119,6.479v11.678h-3.398V657.638z"/>
		<path fill="#333333" d="M1602.996,657.158c6.559,0,10.037,4.759,10.037,10.838c0,6.039-3.479,10.799-10.037,10.799
			c-6.561,0-10.039-4.76-10.039-10.799C1592.957,661.917,1596.436,657.158,1602.996,657.158z M1602.996,675.795
			c3.559,0,6.438-2.8,6.438-7.799s-2.879-7.838-6.438-7.838c-3.561,0-6.439,2.839-6.439,7.838S1599.436,675.795,1602.996,675.795z"
			/>
		<path fill="#333333" d="M1618.436,660.637h-3.479v-2.999h3.479v-3.079c0-3.359,2-5.119,5.721-5.119
			c0.639,0,1.559,0.119,2.199,0.32v2.959c-0.6-0.2-1.32-0.279-1.92-0.279c-1.641,0-2.6,0.52-2.6,2.318v2.88h4v2.999h-4v17.678h-3.4
			V660.637z"/>
		<path fill="#333333" d="M1644.715,657.638h4.121v2.999h-4.121v12.838c0,1.601,0.441,1.84,2.561,1.84h1.561v3h-2.6
			c-3.52,0-4.92-0.72-4.92-4.52v-13.158h-3.52v-2.999h3.52v-6.198h3.398V657.638z"/>
		<path fill="#333333" d="M1652.596,649.76h3.4v10.918h0.08c1.08-2.52,4.078-3.52,6.518-3.52c5.439,0,7.119,3.119,7.119,7.559
			v13.598h-3.398v-13.998c0-2.559-1.6-4.158-4.199-4.158c-4.119,0-6.119,2.759-6.119,6.479v11.678h-3.4V649.76z"/>
		<path fill="#333333" d="M1692.473,671.756c-0.92,4.6-4.158,7.039-8.838,7.039c-6.6,0-9.719-4.6-9.918-10.879
			c0-6.238,4.08-10.758,9.719-10.758c7.318,0,9.559,6.839,9.357,11.838h-15.477c-0.121,3.6,1.92,6.799,6.439,6.799
			c2.838,0,4.758-1.32,5.357-4.039H1692.473z M1689.193,665.996c-0.199-3.239-2.559-5.838-5.959-5.838
			c-3.52,0-5.719,2.639-5.918,5.838H1689.193z"/>
		<path fill="#333333" d="M1707.557,657.638h3.398v2.8h0.08c1.119-2.279,3.719-3.279,6.6-3.279c6.359,0,9.518,5.039,9.518,10.878
			c0,5.879-3.119,10.759-9.438,10.759c-2.08,0-5.199-0.801-6.68-3.24h-0.08v10.678h-3.398V657.638z M1717.154,660.158
			c-4.6,0-6.318,3.959-6.318,7.798c0,4.04,1.84,7.839,6.518,7.839c4.641,0,6.199-3.959,6.199-7.998
			C1723.553,663.917,1721.553,660.158,1717.154,660.158z"/>
		<path fill="#333333" d="M1731.035,657.638h3.199v4.359h0.08c1.641-3.359,3.92-4.959,7.6-4.839v3.6
			c-5.479,0-7.479,3.079-7.479,8.358v9.198h-3.4V657.638z"/>
		<path fill="#333333" d="M1753.395,657.158c6.559,0,10.037,4.759,10.037,10.838c0,6.039-3.479,10.799-10.037,10.799
			c-6.561,0-10.039-4.76-10.039-10.799C1743.355,661.917,1746.834,657.158,1753.395,657.158z M1753.395,675.795
			c3.559,0,6.438-2.8,6.438-7.799s-2.879-7.838-6.438-7.838c-3.561,0-6.439,2.839-6.439,7.838S1749.834,675.795,1753.395,675.795z"
			/>
		<path fill="#333333" d="M1767.555,657.638h3.4v2.8h0.08c1.119-2.279,3.719-3.279,6.598-3.279c6.359,0,9.52,5.039,9.52,10.878
			c0,5.879-3.119,10.759-9.439,10.759c-2.08,0-5.199-0.801-6.678-3.24h-0.08v10.678h-3.4V657.638z M1777.154,660.158
			c-4.6,0-6.32,3.959-6.32,7.798c0,4.04,1.84,7.839,6.52,7.839c4.639,0,6.199-3.959,6.199-7.998
			C1783.553,663.917,1781.553,660.158,1777.154,660.158z"/>
		<path fill="#333333" d="M1800.074,657.158c6.559,0,10.037,4.759,10.037,10.838c0,6.039-3.479,10.799-10.037,10.799
			c-6.561,0-10.039-4.76-10.039-10.799C1790.035,661.917,1793.514,657.158,1800.074,657.158z M1800.074,675.795
			c3.559,0,6.438-2.8,6.438-7.799s-2.879-7.838-6.438-7.838c-3.561,0-6.439,2.839-6.439,7.838S1796.514,675.795,1800.074,675.795z"
			/>
		<path fill="#333333" d="M1816.195,671.795c0.119,3.04,2.799,4,5.559,4c2.119,0,4.998-0.48,4.998-3.08
			c0-5.318-13.518-1.719-13.518-9.678c0-4.159,4.08-5.879,7.719-5.879c4.641,0,8.158,1.439,8.479,6.479h-3.398
			c-0.201-2.639-2.6-3.479-4.799-3.479c-2.041,0-4.4,0.559-4.4,2.639c0,2.4,3.6,2.88,6.76,3.6c3.398,0.76,6.758,1.92,6.758,5.879
			c0,4.959-4.6,6.52-8.799,6.52c-4.639,0-8.559-1.881-8.758-7H1816.195z"/>
		<path fill="#333333" d="M1851.752,671.756c-0.92,4.6-4.16,7.039-8.838,7.039c-6.6,0-9.719-4.6-9.92-10.879
			c0-6.238,4.08-10.758,9.719-10.758c7.318,0,9.559,6.839,9.359,11.838h-15.479c-0.119,3.6,1.92,6.799,6.439,6.799
			c2.84,0,4.76-1.32,5.359-4.039H1851.752z M1848.473,665.996c-0.201-3.239-2.561-5.838-5.959-5.838c-3.52,0-5.719,2.639-5.92,5.838
			H1848.473z"/>
		<path fill="#333333" d="M1874.07,678.314h-3.398v-2.799h-0.08c-1.119,2.279-3.719,3.279-6.6,3.279
			c-6.357,0-9.518-5.039-9.518-10.879c0-5.839,3.119-10.758,9.438-10.758c2.08,0,5.199,0.8,6.68,3.239h0.08V649.76h3.398V678.314z
			 M1864.473,675.795c4.6,0,6.318-3.959,6.318-7.799c0-4.039-1.84-7.838-6.518-7.838c-4.641,0-6.199,3.959-6.199,7.998
			C1858.074,672.035,1860.074,675.795,1864.473,675.795z"/>
		<path fill="#333333" d="M1403.658,714.277c-0.521-2.6-2.281-4.119-5.119-4.119c-4.92,0-6.439,3.918-6.439,8.078
			c0,3.84,1.719,7.559,6.039,7.559c3.318,0,5.238-1.88,5.678-5.039h3.48c-0.76,5.079-3.879,8.039-9.119,8.039
			c-6.318,0-9.678-4.359-9.678-10.559s3.199-11.078,9.758-11.078c4.719,0,8.398,2.199,8.918,7.119H1403.658z"/>
		<path fill="#333333" d="M1411.1,699.76h3.398v10.918h0.08c1.08-2.52,4.08-3.52,6.52-3.52c5.439,0,7.119,3.119,7.119,7.559v13.598
			h-3.4v-13.998c0-2.559-1.6-4.158-4.199-4.158c-4.119,0-6.119,2.759-6.119,6.479v11.678h-3.398V699.76z"/>
		<path fill="#333333" d="M1451.656,728.234c-0.6,0.359-1.439,0.561-2.439,0.561c-1.76,0-2.879-0.961-2.879-3.2
			c-1.881,2.239-4.4,3.2-7.279,3.2c-3.76,0-6.84-1.641-6.84-5.8c0-4.679,3.48-5.719,7-6.358c3.719-0.76,6.959-0.44,6.959-3.04
			c0-2.999-2.48-3.438-4.6-3.438c-2.879,0-5,0.879-5.16,3.918h-3.398c0.199-5.119,4.119-6.918,8.758-6.918
			c3.721,0,7.76,0.84,7.76,5.679v10.638c0,1.601,0,2.32,1.08,2.32c0.318,0,0.68-0.08,1.039-0.2V728.234z M1446.137,717.637
			c-2.639,1.959-10.318,0.039-10.318,5.119c0,2.239,1.92,3.039,4,3.039c4.479,0,6.318-2.76,6.318-4.68V717.637z"/>
		<path fill="#333333" d="M1454.818,707.638h3.199v3.28h0.08c1.439-2.561,3.721-3.76,6.719-3.76c5.439,0,7.119,3.119,7.119,7.559
			v13.598h-3.398v-13.998c0-2.559-1.6-4.158-4.199-4.158c-4.119,0-6.119,2.759-6.119,6.479v11.678h-3.4V707.638z"/>
		<path fill="#333333" d="M1494.896,726.555c0,6.759-3.039,10.158-9.6,10.158c-3.879,0-8.357-1.6-8.559-6.078h3.4
			c0.119,2.439,3.16,3.359,5.359,3.359c4.439,0,6.199-3.2,6.199-7.84v-1.359h-0.08c-1.16,2.52-3.801,3.76-6.439,3.76
			c-6.158,0-9.238-4.84-9.238-10.479c0-4.879,2.359-10.918,9.559-10.918c2.6,0,4.918,1.16,6.158,3.439h0.041v-2.96h3.199V726.555z
			 M1491.537,717.557c0-3.64-1.6-7.398-5.879-7.398c-4.359,0-6.119,3.559-6.119,7.518c0,3.72,1.359,7.879,5.838,7.879
			C1489.857,725.555,1491.537,721.436,1491.537,717.557z"/>
		<path fill="#333333" d="M1517.656,721.756c-0.92,4.6-4.16,7.039-8.838,7.039c-6.6,0-9.719-4.6-9.92-10.879
			c0-6.238,4.08-10.758,9.719-10.758c7.318,0,9.559,6.839,9.359,11.838h-15.479c-0.119,3.6,1.92,6.799,6.439,6.799
			c2.84,0,4.76-1.32,5.359-4.039H1517.656z M1514.377,715.996c-0.201-3.239-2.561-5.838-5.959-5.838c-3.52,0-5.719,2.639-5.92,5.838
			H1514.377z"/>
		<path fill="#333333" d="M1522.258,723.875h4.439v4.039c0,3.04-1.32,5.359-4.398,6.279v-2c1.76-0.64,2.439-2.559,2.318-3.879
			h-2.359V723.875z"/>
		<path fill="#333333" d="M1547.338,730.954c0,3.679-1.92,5.278-4.959,5.278c-0.6,0-1.16-0.039-1.76-0.159v-2.919
			c0.24,0.039,0.48,0.079,0.68,0.079h0.721c1.479,0,1.92-0.72,1.92-2.839v-22.757h3.398V730.954z M1547.338,703.918h-3.398v-4.158
			h3.398V703.918z"/>
		<path fill="#333333" d="M1569.734,728.314h-3.199v-3.279h-0.08c-1.439,2.56-3.719,3.76-6.719,3.76
			c-5.439,0-7.119-3.12-7.119-7.559v-13.599h3.4v13.998c0,2.56,1.6,4.159,4.199,4.159c4.119,0,6.119-2.76,6.119-6.479v-11.679h3.398
			V728.314z"/>
		<path fill="#333333" d="M1576.938,721.795c0.119,3.04,2.799,4,5.559,4c2.121,0,5-0.48,5-3.08c0-5.318-13.518-1.719-13.518-9.678
			c0-4.159,4.078-5.879,7.719-5.879c4.639,0,8.158,1.439,8.479,6.479h-3.4c-0.199-2.639-2.6-3.479-4.799-3.479
			c-2.039,0-4.398,0.559-4.398,2.639c0,2.4,3.6,2.88,6.758,3.6c3.4,0.76,6.76,1.92,6.76,5.879c0,4.959-4.6,6.52-8.799,6.52
			c-4.639,0-8.559-1.881-8.758-7H1576.938z"/>
		<path fill="#333333" d="M1599.576,707.638h4.121v2.999h-4.121v12.838c0,1.601,0.441,1.84,2.561,1.84h1.561v3h-2.6
			c-3.52,0-4.92-0.72-4.92-4.52v-13.158h-3.52v-2.999h3.52v-6.198h3.398V707.638z"/>
		<path fill="#333333" d="M1611.057,703.918h-3.398v-4.158h3.398V703.918z M1607.658,707.638h3.398v20.677h-3.398V707.638z"/>
		<path fill="#333333" d="M1617.736,710.637h-3.48v-2.999h3.48v-3.079c0-3.359,2-5.119,5.719-5.119c0.641,0,1.561,0.119,2.199,0.32
			v2.959c-0.6-0.2-1.318-0.279-1.92-0.279c-1.639,0-2.6,0.52-2.6,2.318v2.88h4v2.999h-4v17.678h-3.398V710.637z M1628.375,703.918
			v-4.158h3.398v4.158H1628.375z M1628.375,728.314v-20.677h3.398v20.677H1628.375z"/>
		<path fill="#333333" d="M1651.094,714.277c-0.52-2.6-2.279-4.119-5.119-4.119c-4.92,0-6.439,3.918-6.439,8.078
			c0,3.84,1.721,7.559,6.039,7.559c3.32,0,5.24-1.88,5.68-5.039h3.479c-0.76,5.079-3.879,8.039-9.117,8.039
			c-6.32,0-9.68-4.359-9.68-10.559s3.201-11.078,9.76-11.078c4.719,0,8.398,2.199,8.918,7.119H1651.094z"/>
		<path fill="#333333" d="M1676.854,728.234c-0.602,0.359-1.441,0.561-2.441,0.561c-1.76,0-2.879-0.961-2.879-3.2
			c-1.879,2.239-4.398,3.2-7.279,3.2c-3.758,0-6.838-1.641-6.838-5.8c0-4.679,3.479-5.719,6.998-6.358
			c3.721-0.76,6.959-0.44,6.959-3.04c0-2.999-2.479-3.438-4.6-3.438c-2.879,0-4.998,0.879-5.158,3.918h-3.4
			c0.201-5.119,4.121-6.918,8.76-6.918c3.719,0,7.758,0.84,7.758,5.679v10.638c0,1.601,0,2.32,1.08,2.32c0.32,0,0.68-0.08,1.041-0.2
			V728.234z M1671.334,717.637c-2.641,1.959-10.318,0.039-10.318,5.119c0,2.239,1.92,3.039,3.998,3.039c4.48,0,6.32-2.76,6.32-4.68
			V717.637z"/>
		<path fill="#333333" d="M1684.734,707.638h4.119v2.999h-4.119v12.838c0,1.601,0.439,1.84,2.559,1.84h1.561v3h-2.6
			c-3.52,0-4.92-0.72-4.92-4.52v-13.158h-3.518v-2.999h3.518v-6.198h3.4V707.638z"/>
		<path fill="#333333" d="M1696.215,703.918h-3.4v-4.158h3.4V703.918z M1692.814,707.638h3.4v20.677h-3.4V707.638z"/>
		<path fill="#333333" d="M1710.414,707.158c6.559,0,10.037,4.759,10.037,10.838c0,6.039-3.479,10.799-10.037,10.799
			c-6.561,0-10.039-4.76-10.039-10.799C1700.375,711.917,1703.854,707.158,1710.414,707.158z M1710.414,725.795
			c3.559,0,6.438-2.8,6.438-7.799s-2.879-7.838-6.438-7.838c-3.561,0-6.439,2.839-6.439,7.838S1706.854,725.795,1710.414,725.795z"
			/>
		<path fill="#333333" d="M1724.455,707.638h3.199v3.28h0.08c1.439-2.561,3.719-3.76,6.719-3.76c5.439,0,7.119,3.119,7.119,7.559
			v13.598h-3.4v-13.998c0-2.559-1.6-4.158-4.199-4.158c-4.119,0-6.119,2.759-6.119,6.479v11.678h-3.398V707.638z"/>
		<path fill="#333333" d="M1759.215,710.637h-3.48v-2.999h3.48v-3.079c0-3.359,2-5.119,5.719-5.119c0.641,0,1.561,0.119,2.199,0.32
			v2.959c-0.6-0.2-1.318-0.279-1.92-0.279c-1.639,0-2.6,0.52-2.6,2.318v2.88h4v2.999h-4v17.678h-3.398V710.637z"/>
		<path fill="#333333" d="M1778.574,707.158c6.559,0,10.037,4.759,10.037,10.838c0,6.039-3.479,10.799-10.037,10.799
			c-6.561,0-10.039-4.76-10.039-10.799C1768.535,711.917,1772.014,707.158,1778.574,707.158z M1778.574,725.795
			c3.559,0,6.438-2.8,6.438-7.799s-2.879-7.838-6.438-7.838c-3.561,0-6.439,2.839-6.439,7.838S1775.014,725.795,1778.574,725.795z"
			/>
		<path fill="#333333" d="M1792.494,707.638h3.199v4.359h0.08c1.641-3.359,3.92-4.959,7.6-4.839v3.6
			c-5.479,0-7.479,3.079-7.479,8.358v9.198h-3.4V707.638z"/>
		<path fill="#333333" d="M1821.773,707.638h4.119v2.999h-4.119v12.838c0,1.601,0.439,1.84,2.559,1.84h1.561v3h-2.6
			c-3.52,0-4.92-0.72-4.92-4.52v-13.158h-3.518v-2.999h3.518v-6.198h3.4V707.638z"/>
		<path fill="#333333" d="M1829.654,699.76h3.398v10.918h0.08c1.08-2.52,4.08-3.52,6.52-3.52c5.439,0,7.119,3.119,7.119,7.559
			v13.598h-3.4v-13.998c0-2.559-1.6-4.158-4.199-4.158c-4.119,0-6.119,2.759-6.119,6.479v11.678h-3.398V699.76z"/>
		<path fill="#333333" d="M1869.531,721.756c-0.92,4.6-4.16,7.039-8.838,7.039c-6.6,0-9.719-4.6-9.92-10.879
			c0-6.238,4.08-10.758,9.719-10.758c7.318,0,9.559,6.839,9.359,11.838h-15.479c-0.119,3.6,1.92,6.799,6.439,6.799
			c2.84,0,4.76-1.32,5.359-4.039H1869.531z M1866.252,715.996c-0.201-3.239-2.561-5.838-5.959-5.838c-3.52,0-5.719,2.639-5.92,5.838
			H1866.252z"/>
		<path fill="#333333" d="M1439.178,764.277c-0.521-2.6-2.281-4.119-5.119-4.119c-4.92,0-6.439,3.918-6.439,8.078
			c0,3.84,1.719,7.559,6.039,7.559c3.318,0,5.238-1.88,5.678-5.039h3.48c-0.76,5.079-3.879,8.038-9.119,8.038
			c-6.318,0-9.678-4.358-9.678-10.558s3.199-11.078,9.758-11.078c4.719,0,8.398,2.199,8.918,7.119H1439.178z"/>
		<path fill="#333333" d="M1446.619,749.76h3.398v10.918h0.08c1.08-2.52,4.08-3.52,6.52-3.52c5.439,0,7.119,3.119,7.119,7.559
			v13.598h-3.4v-13.998c0-2.559-1.6-4.158-4.199-4.158c-4.119,0-6.119,2.759-6.119,6.479v11.678h-3.398V749.76z"/>
		<path fill="#333333" d="M1487.176,778.234c-0.6,0.36-1.439,0.56-2.439,0.56c-1.76,0-2.879-0.959-2.879-3.199
			c-1.881,2.24-4.4,3.199-7.279,3.199c-3.76,0-6.84-1.64-6.84-5.799c0-4.679,3.48-5.719,7-6.358c3.719-0.76,6.959-0.44,6.959-3.04
			c0-2.999-2.48-3.438-4.6-3.438c-2.879,0-5,0.879-5.16,3.918h-3.398c0.199-5.119,4.119-6.918,8.758-6.918
			c3.721,0,7.76,0.84,7.76,5.679v10.638c0,1.601,0,2.32,1.08,2.32c0.318,0,0.68-0.08,1.039-0.2V778.234z M1481.656,767.637
			c-2.639,1.959-10.318,0.039-10.318,5.119c0,2.239,1.92,3.039,4,3.039c4.479,0,6.318-2.76,6.318-4.68V767.637z"/>
		<path fill="#333333" d="M1490.338,757.638h3.199v3.28h0.08c1.439-2.561,3.721-3.76,6.719-3.76c5.439,0,7.119,3.119,7.119,7.559
			v13.598h-3.398v-13.998c0-2.559-1.6-4.158-4.199-4.158c-4.119,0-6.119,2.759-6.119,6.479v11.678h-3.4V757.638z"/>
		<path fill="#333333" d="M1530.416,776.555c0,6.759-3.039,10.158-9.6,10.158c-3.879,0-8.357-1.6-8.559-6.079h3.4
			c0.119,2.439,3.16,3.359,5.359,3.359c4.439,0,6.199-3.199,6.199-7.839v-1.359h-0.08c-1.16,2.52-3.801,3.76-6.439,3.76
			c-6.158,0-9.238-4.84-9.238-10.479c0-4.879,2.359-10.918,9.559-10.918c2.6,0,4.918,1.16,6.158,3.439h0.041v-2.96h3.199V776.555z
			 M1527.057,767.557c0-3.64-1.6-7.398-5.879-7.398c-4.359,0-6.119,3.559-6.119,7.518c0,3.72,1.359,7.879,5.838,7.879
			C1525.377,775.555,1527.057,771.436,1527.057,767.557z"/>
		<path fill="#333333" d="M1553.176,771.756c-0.92,4.6-4.16,7.038-8.838,7.038c-6.6,0-9.719-4.599-9.92-10.878
			c0-6.238,4.08-10.758,9.719-10.758c7.318,0,9.559,6.839,9.359,11.838h-15.479c-0.119,3.6,1.92,6.799,6.439,6.799
			c2.84,0,4.76-1.32,5.359-4.039H1553.176z M1549.896,765.996c-0.201-3.239-2.561-5.838-5.959-5.838c-3.52,0-5.719,2.639-5.92,5.838
			H1549.896z"/>
		<path fill="#333333" d="M1557.777,773.875h4.439v4.039c0,3.04-1.32,5.359-4.398,6.279v-2c1.76-0.64,2.439-2.56,2.318-3.879h-2.359
			V773.875z"/>
		<path fill="#333333" d="M1597.576,778.234c-0.602,0.36-1.441,0.56-2.441,0.56c-1.76,0-2.879-0.959-2.879-3.199
			c-1.879,2.24-4.398,3.199-7.279,3.199c-3.758,0-6.838-1.64-6.838-5.799c0-4.679,3.479-5.719,6.998-6.358
			c3.721-0.76,6.959-0.44,6.959-3.04c0-2.999-2.479-3.438-4.6-3.438c-2.879,0-4.998,0.879-5.158,3.918h-3.4
			c0.201-5.119,4.121-6.918,8.76-6.918c3.719,0,7.758,0.84,7.758,5.679v10.638c0,1.601,0,2.32,1.08,2.32c0.32,0,0.68-0.08,1.041-0.2
			V778.234z M1592.057,767.637c-2.641,1.959-10.318,0.039-10.318,5.119c0,2.239,1.92,3.039,3.998,3.039c4.48,0,6.32-2.76,6.32-4.68
			V767.637z"/>
		<path fill="#333333" d="M1600.738,757.638h3.199v3.28h0.08c1.439-2.561,3.719-3.76,6.719-3.76c5.439,0,7.119,3.119,7.119,7.559
			v13.598h-3.4v-13.998c0-2.559-1.6-4.158-4.199-4.158c-4.119,0-6.119,2.759-6.119,6.479v11.678h-3.398V757.638z"/>
		<path fill="#333333" d="M1641.455,778.314h-3.4v-2.799h-0.08c-1.119,2.279-3.719,3.278-6.598,3.278
			c-6.359,0-9.52-5.038-9.52-10.878c0-5.839,3.121-10.758,9.439-10.758c2.08,0,5.199,0.8,6.678,3.239h0.08V749.76h3.4V778.314z
			 M1631.857,775.795c4.598,0,6.318-3.959,6.318-7.799c0-4.039-1.84-7.838-6.52-7.838c-4.639,0-6.199,3.959-6.199,7.998
			C1625.457,772.035,1627.457,775.795,1631.857,775.795z"/>
		<path fill="#333333" d="M1657.697,757.638h3.199v4.359h0.08c1.641-3.359,3.92-4.959,7.6-4.839v3.6
			c-5.479,0-7.479,3.079-7.479,8.358v9.198h-3.4V757.638z"/>
		<path fill="#333333" d="M1688.773,771.756c-0.92,4.6-4.158,7.038-8.838,7.038c-6.6,0-9.719-4.599-9.918-10.878
			c0-6.238,4.08-10.758,9.719-10.758c7.318,0,9.559,6.839,9.357,11.838h-15.477c-0.121,3.6,1.92,6.799,6.439,6.799
			c2.838,0,4.758-1.32,5.357-4.039H1688.773z M1685.494,765.996c-0.199-3.239-2.559-5.838-5.959-5.838
			c-3.52,0-5.719,2.639-5.918,5.838H1685.494z"/>
		<path fill="#333333" d="M1711.094,786.233h-3.4v-10.718h-0.08c-1.119,2.279-3.719,3.278-6.598,3.278
			c-6.359,0-9.52-5.038-9.52-10.878c0-5.839,3.121-10.758,9.439-10.758c2.08,0,5.199,0.8,6.678,3.239h0.08v-2.76h3.4V786.233z
			 M1701.496,775.795c4.598,0,6.318-3.959,6.318-7.799c0-4.039-1.84-7.838-6.52-7.838c-4.639,0-6.199,3.959-6.199,7.998
			C1695.096,772.035,1697.096,775.795,1701.496,775.795z"/>
		<path fill="#333333" d="M1733.453,778.314h-3.199v-3.279h-0.08c-1.439,2.56-3.719,3.759-6.719,3.759
			c-5.439,0-7.119-3.119-7.119-7.558v-13.599h3.4v13.998c0,2.56,1.6,4.159,4.199,4.159c4.119,0,6.119-2.76,6.119-6.479v-11.679
			h3.398V778.314z"/>
		<path fill="#333333" d="M1756.213,771.756c-0.92,4.6-4.158,7.038-8.838,7.038c-6.6,0-9.719-4.599-9.918-10.878
			c0-6.238,4.08-10.758,9.719-10.758c7.318,0,9.559,6.839,9.357,11.838h-15.477c-0.121,3.6,1.92,6.799,6.439,6.799
			c2.838,0,4.758-1.32,5.357-4.039H1756.213z M1752.934,765.996c-0.199-3.239-2.559-5.838-5.959-5.838
			c-3.52,0-5.719,2.639-5.918,5.838H1752.934z"/>
		<path fill="#333333" d="M1762.137,771.795c0.119,3.04,2.799,4,5.559,4c2.119,0,4.998-0.48,4.998-3.08
			c0-5.318-13.518-1.719-13.518-9.678c0-4.159,4.08-5.879,7.719-5.879c4.641,0,8.158,1.439,8.479,6.479h-3.398
			c-0.201-2.639-2.6-3.479-4.799-3.479c-2.041,0-4.4,0.559-4.4,2.639c0,2.4,3.6,2.88,6.76,3.6c3.398,0.76,6.758,1.92,6.758,5.879
			c0,4.959-4.6,6.519-8.799,6.519c-4.639,0-8.559-1.879-8.758-6.999H1762.137z"/>
		<path fill="#333333" d="M1784.775,757.638h4.119v2.999h-4.119v12.838c0,1.601,0.439,1.84,2.559,1.84h1.561v3h-2.6
			c-3.52,0-4.92-0.72-4.92-4.52v-13.158h-3.518v-2.999h3.518v-6.198h3.4V757.638z"/>
		<path fill="#333333" d="M1810.293,771.756c-0.92,4.6-4.16,7.038-8.838,7.038c-6.6,0-9.719-4.599-9.92-10.878
			c0-6.238,4.08-10.758,9.719-10.758c7.318,0,9.559,6.839,9.359,11.838h-15.479c-0.119,3.6,1.92,6.799,6.439,6.799
			c2.84,0,4.76-1.32,5.359-4.039H1810.293z M1807.014,765.996c-0.201-3.239-2.561-5.838-5.959-5.838c-3.52,0-5.719,2.639-5.92,5.838
			H1807.014z"/>
		<path fill="#333333" d="M1832.611,778.314h-3.398v-2.799h-0.08c-1.119,2.279-3.719,3.278-6.6,3.278
			c-6.357,0-9.518-5.038-9.518-10.878c0-5.839,3.119-10.758,9.438-10.758c2.08,0,5.199,0.8,6.68,3.239h0.08V749.76h3.398V778.314z
			 M1823.014,775.795c4.6,0,6.318-3.959,6.318-7.799c0-4.039-1.84-7.838-6.518-7.838c-4.641,0-6.199,3.959-6.199,7.998
			C1816.615,772.035,1818.615,775.795,1823.014,775.795z"/>
		<path fill="#333333" d="M1522.836,821.756c-0.92,4.599-4.16,7.038-8.838,7.038c-6.6,0-9.719-4.599-9.92-10.878
			c0-6.238,4.08-10.758,9.719-10.758c7.318,0,9.559,6.839,9.359,11.838h-15.479c-0.119,3.6,1.92,6.799,6.439,6.799
			c2.84,0,4.76-1.32,5.359-4.039H1522.836z M1519.557,815.996c-0.201-3.239-2.561-5.839-5.959-5.839c-3.52,0-5.719,2.64-5.92,5.839
			H1519.557z"/>
		<path fill="#333333" d="M1528.078,810.638h-3.48v-3h3.48v-3.079c0-3.359,2-5.119,5.719-5.119c0.641,0,1.561,0.12,2.199,0.319v2.96
			c-0.6-0.2-1.318-0.28-1.92-0.28c-1.639,0-2.6,0.521-2.6,2.32v2.879h4v3h-4v17.677h-3.398V810.638z"/>
		<path fill="#333333" d="M1539.918,810.638h-3.48v-3h3.48v-3.079c0-3.359,2-5.119,5.719-5.119c0.641,0,1.561,0.12,2.199,0.319v2.96
			c-0.6-0.2-1.318-0.28-1.92-0.28c-1.639,0-2.6,0.521-2.6,2.32v2.879h4v3h-4v17.677h-3.398V810.638z"/>
		<path fill="#333333" d="M1567.994,821.756c-0.92,4.599-4.158,7.038-8.838,7.038c-6.6,0-9.719-4.599-9.918-10.878
			c0-6.238,4.08-10.758,9.719-10.758c7.318,0,9.559,6.839,9.357,11.838h-15.477c-0.121,3.6,1.92,6.799,6.439,6.799
			c2.838,0,4.758-1.32,5.357-4.039H1567.994z M1564.715,815.996c-0.199-3.239-2.559-5.839-5.959-5.839
			c-3.52,0-5.719,2.64-5.918,5.839H1564.715z"/>
		<path fill="#333333" d="M1585.875,814.276c-0.52-2.599-2.279-4.119-5.119-4.119c-4.92,0-6.439,3.92-6.439,8.079
			c0,3.839,1.721,7.559,6.039,7.559c3.32,0,5.24-1.88,5.68-5.039h3.479c-0.76,5.079-3.879,8.038-9.117,8.038
			c-6.32,0-9.68-4.358-9.68-10.558s3.201-11.078,9.76-11.078c4.719,0,8.398,2.199,8.918,7.118H1585.875z"/>
		<path fill="#333333" d="M1598.035,807.638h4.121v3h-4.121v12.838c0,1.6,0.441,1.84,2.561,1.84h1.561v2.999h-2.6
			c-3.52,0-4.92-0.72-4.92-4.52v-13.157h-3.52v-3h3.52v-6.198h3.398V807.638z"/>
		<path fill="#333333" d="M1609.516,803.919h-3.398v-4.16h3.398V803.919z M1606.117,807.638h3.398v20.677h-3.398V807.638z"/>
		<path fill="#333333" d="M1624.113,828.314h-3.639l-7.68-20.677h3.801l5.799,17.237h0.08l5.639-17.237h3.559L1624.113,828.314z"/>
		<path fill="#333333" d="M1652.432,821.756c-0.92,4.599-4.158,7.038-8.838,7.038c-6.6,0-9.719-4.599-9.918-10.878
			c0-6.238,4.08-10.758,9.719-10.758c7.318,0,9.559,6.839,9.357,11.838h-15.477c-0.121,3.6,1.92,6.799,6.439,6.799
			c2.838,0,4.758-1.32,5.357-4.039H1652.432z M1649.152,815.996c-0.199-3.239-2.559-5.839-5.959-5.839
			c-3.52,0-5.719,2.64-5.918,5.839H1649.152z"/>
		<path fill="#333333" d="M1685.871,828.314h-3.398v-2.8h-0.08c-1.119,2.28-3.719,3.279-6.6,3.279
			c-6.357,0-9.518-5.039-9.518-10.878s3.119-10.758,9.438-10.758c2.08,0,5.199,0.8,6.68,3.239h0.08v-10.639h3.398V828.314z
			 M1676.273,825.795c4.6,0,6.318-3.959,6.318-7.799c0-4.039-1.84-7.839-6.518-7.839c-4.641,0-6.199,3.96-6.199,7.999
			C1669.875,822.035,1671.875,825.795,1676.273,825.795z"/>
		<path fill="#333333" d="M1709.432,828.234c-0.6,0.36-1.439,0.56-2.439,0.56c-1.76,0-2.879-0.959-2.879-3.199
			c-1.881,2.24-4.4,3.199-7.279,3.199c-3.76,0-6.84-1.64-6.84-5.799c0-4.679,3.48-5.719,7-6.358c3.719-0.76,6.959-0.44,6.959-3.04
			c0-2.999-2.48-3.439-4.6-3.439c-2.879,0-5,0.88-5.16,3.92h-3.398c0.199-5.119,4.119-6.919,8.758-6.919
			c3.721,0,7.76,0.84,7.76,5.679v10.639c0,1.6,0,2.319,1.08,2.319c0.318,0,0.68-0.08,1.039-0.2V828.234z M1703.912,817.637
			c-2.639,1.959-10.318,0.039-10.318,5.119c0,2.239,1.92,3.039,4,3.039c4.479,0,6.318-2.76,6.318-4.68V817.637z"/>
		<path fill="#333333" d="M1717.312,807.638h4.121v3h-4.121v12.838c0,1.6,0.441,1.84,2.561,1.84h1.561v2.999h-2.6
			c-3.52,0-4.92-0.72-4.92-4.52v-13.157h-3.52v-3h3.52v-6.198h3.398V807.638z"/>
		<path fill="#333333" d="M1742.83,821.756c-0.92,4.599-4.158,7.038-8.838,7.038c-6.6,0-9.719-4.599-9.918-10.878
			c0-6.238,4.08-10.758,9.719-10.758c7.318,0,9.559,6.839,9.357,11.838h-15.477c-0.121,3.6,1.92,6.799,6.439,6.799
			c2.838,0,4.758-1.32,5.357-4.039H1742.83z M1739.551,815.996c-0.199-3.239-2.559-5.839-5.959-5.839
			c-3.52,0-5.719,2.64-5.918,5.839H1739.551z"/>
		<path fill="#333333" d="M1747.434,823.875h4.439v4.439h-4.439V823.875z"/>
	</g>
</g>
<g>
	<g>
		<path fill="#333333" d="M441.881,233.31h9.799c8.799,0,13.718,4.439,13.718,13.598c0,9.559-4.199,14.958-13.718,14.958h-9.799
			V233.31z M445.681,258.666h6.318c2.6,0,9.599-0.72,9.599-11.238c0-6.799-2.52-10.918-9.519-10.918h-6.398V258.666z"/>
		<path fill="#333333" d="M487.118,255.306c-0.92,4.6-4.159,7.039-8.838,7.039c-6.6,0-9.719-4.599-9.919-10.878
			c0-6.239,4.08-10.758,9.719-10.758c7.318,0,9.559,6.839,9.358,11.838h-15.478c-0.12,3.599,1.92,6.799,6.439,6.799
			c2.839,0,4.759-1.32,5.358-4.04H487.118z M483.839,249.547c-0.2-3.24-2.56-5.839-5.959-5.839c-3.52,0-5.719,2.639-5.919,5.839
			H483.839z"/>
		<path fill="#333333" d="M493.041,255.346c0.119,3.04,2.799,4,5.559,4c2.12,0,4.999-0.48,4.999-3.08
			c0-5.319-13.518-1.72-13.518-9.678c0-4.159,4.079-5.879,7.719-5.879c4.64,0,8.158,1.439,8.479,6.479h-3.399
			c-0.2-2.639-2.6-3.479-4.799-3.479c-2.04,0-4.399,0.56-4.399,2.639c0,2.4,3.6,2.88,6.759,3.6c3.399,0.76,6.759,1.919,6.759,5.879
			c0,4.959-4.6,6.519-8.799,6.519c-4.639,0-8.559-1.88-8.758-6.999H493.041z"/>
		<path fill="#333333" d="M524.999,247.828c-0.521-2.6-2.28-4.119-5.119-4.119c-4.92,0-6.439,3.919-6.439,8.079
			c0,3.839,1.72,7.559,6.039,7.559c3.319,0,5.239-1.88,5.679-5.039h3.479c-0.76,5.079-3.879,8.039-9.118,8.039
			c-6.319,0-9.679-4.359-9.679-10.558c0-6.199,3.2-11.078,9.759-11.078c4.719,0,8.398,2.199,8.918,7.119H524.999z"/>
		<path fill="#333333" d="M532.32,241.188h3.199v4.359h0.08c1.64-3.359,3.92-4.959,7.599-4.839v3.599
			c-5.479,0-7.479,3.08-7.479,8.359v9.198h-3.399V241.188z"/>
		<path fill="#333333" d="M549.359,237.469h-3.399v-4.159h3.399V237.469z M545.96,241.188h3.399v20.677h-3.399V241.188z"/>
		<path fill="#333333" d="M554.76,241.188h3.399v2.8h0.08c1.119-2.28,3.719-3.279,6.599-3.279c6.359,0,9.519,5.039,9.519,10.878
			c0,5.879-3.119,10.758-9.438,10.758c-2.08,0-5.199-0.8-6.679-3.24h-0.08v10.678h-3.399V241.188z M564.358,243.708
			c-4.6,0-6.319,3.959-6.319,7.798c0,4.04,1.84,7.839,6.519,7.839c4.64,0,6.199-3.959,6.199-7.999
			C570.757,247.468,568.757,243.708,564.358,243.708z"/>
		<path fill="#333333" d="M583.078,241.188h4.12v3h-4.12v12.838c0,1.6,0.44,1.84,2.56,1.84h1.561v3h-2.6
			c-3.52,0-4.92-0.72-4.92-4.519v-13.158h-3.519v-3h3.519v-6.199h3.399V241.188z"/>
		<path fill="#333333" d="M594.559,237.469h-3.399v-4.159h3.399V237.469z M591.159,241.188h3.399v20.677h-3.399V241.188z"/>
		<path fill="#333333" d="M608.758,240.709c6.559,0,10.038,4.759,10.038,10.838c0,6.039-3.479,10.798-10.038,10.798
			c-6.56,0-10.039-4.759-10.039-10.798C598.719,245.468,602.198,240.709,608.758,240.709z M608.758,259.346
			c3.559,0,6.438-2.8,6.438-7.799s-2.88-7.838-6.438-7.838c-3.56,0-6.439,2.839-6.439,7.838S605.198,259.346,608.758,259.346z"/>
		<path fill="#333333" d="M622.799,241.188h3.199v3.28h0.08c1.439-2.56,3.72-3.759,6.719-3.759c5.439,0,7.119,3.119,7.119,7.559
			v13.598h-3.399v-13.998c0-2.56-1.6-4.159-4.199-4.159c-4.119,0-6.119,2.759-6.119,6.479v11.678h-3.399V241.188z"/>
		<path fill="#333333" d="M665.078,240.709c6.559,0,10.038,4.759,10.038,10.838c0,6.039-3.479,10.798-10.038,10.798
			c-6.56,0-10.039-4.759-10.039-10.798C655.039,245.468,658.519,240.709,665.078,240.709z M665.078,259.346
			c3.559,0,6.438-2.8,6.438-7.799s-2.88-7.838-6.438-7.838c-3.56,0-6.439,2.839-6.439,7.838S661.519,259.346,665.078,259.346z"/>
		<path fill="#333333" d="M680.519,244.188h-3.479v-3h3.479v-3.079c0-3.359,2-5.119,5.72-5.119c0.64,0,1.56,0.12,2.199,0.32v2.959
			c-0.6-0.2-1.319-0.28-1.92-0.28c-1.64,0-2.6,0.52-2.6,2.319v2.879h4v3h-4v17.677h-3.399V244.188z"/>
		<path fill="#333333" d="M441.441,291.188h3.399v2.8h0.08c1.119-2.28,3.719-3.279,6.599-3.279c6.359,0,9.519,5.039,9.519,10.878
			c0,5.879-3.119,10.758-9.438,10.758c-2.08,0-5.199-0.8-6.679-3.24h-0.08v10.678h-3.399V291.188z M451.04,293.708
			c-4.6,0-6.319,3.959-6.319,7.798c0,4.04,1.84,7.839,6.519,7.839c4.64,0,6.199-3.959,6.199-7.999
			C457.438,297.468,455.438,293.708,451.04,293.708z"/>
		<path fill="#333333" d="M464.921,291.188h3.199v4.359h0.08c1.64-3.359,3.92-4.959,7.599-4.839v3.599
			c-5.479,0-7.479,3.08-7.479,8.359v9.198h-3.399V291.188z"/>
		<path fill="#333333" d="M487.279,290.709c6.559,0,10.038,4.759,10.038,10.838c0,6.039-3.479,10.798-10.038,10.798
			c-6.56,0-10.039-4.759-10.039-10.798C477.24,295.468,480.72,290.709,487.279,290.709z M487.279,309.346
			c3.559,0,6.438-2.8,6.438-7.799s-2.88-7.838-6.438-7.838c-3.56,0-6.439,2.839-6.439,7.838S483.72,309.346,487.279,309.346z"/>
		<path fill="#333333" d="M501.44,291.188h3.399v2.8h0.08c1.119-2.28,3.719-3.279,6.599-3.279c6.359,0,9.519,5.039,9.519,10.878
			c0,5.879-3.119,10.758-9.438,10.758c-2.08,0-5.199-0.8-6.679-3.24h-0.08v10.678h-3.399V291.188z M511.039,293.708
			c-4.6,0-6.319,3.959-6.319,7.798c0,4.04,1.84,7.839,6.519,7.839c4.64,0,6.199-3.959,6.199-7.999
			C517.438,297.468,515.438,293.708,511.039,293.708z"/>
		<path fill="#333333" d="M533.959,290.709c6.559,0,10.038,4.759,10.038,10.838c0,6.039-3.479,10.798-10.038,10.798
			c-6.56,0-10.039-4.759-10.039-10.798C523.92,295.468,527.399,290.709,533.959,290.709z M533.959,309.346
			c3.559,0,6.438-2.8,6.438-7.799s-2.88-7.838-6.438-7.838c-3.56,0-6.439,2.839-6.439,7.838S530.399,309.346,533.959,309.346z"/>
		<path fill="#333333" d="M550.08,305.346c0.119,3.04,2.799,4,5.559,4c2.12,0,4.999-0.48,4.999-3.08
			c0-5.319-13.518-1.72-13.518-9.678c0-4.159,4.079-5.879,7.719-5.879c4.64,0,8.158,1.439,8.479,6.479h-3.399
			c-0.2-2.639-2.6-3.479-4.799-3.479c-2.04,0-4.399,0.56-4.399,2.639c0,2.4,3.6,2.88,6.759,3.6c3.399,0.76,6.759,1.919,6.759,5.879
			c0,4.959-4.6,6.519-8.799,6.519c-4.639,0-8.559-1.88-8.758-6.999H550.08z"/>
		<path fill="#333333" d="M585.637,305.306c-0.92,4.6-4.159,7.039-8.838,7.039c-6.6,0-9.719-4.599-9.919-10.878
			c0-6.239,4.08-10.758,9.719-10.758c7.318,0,9.559,6.839,9.358,11.838h-15.478c-0.12,3.599,1.92,6.799,6.439,6.799
			c2.839,0,4.759-1.32,5.358-4.04H585.637z M582.357,299.547c-0.2-3.24-2.56-5.839-5.959-5.839c-3.52,0-5.719,2.639-5.919,5.839
			H582.357z"/>
		<path fill="#333333" d="M607.956,311.865h-3.399v-2.799h-0.08c-1.119,2.279-3.719,3.279-6.599,3.279
			c-6.358,0-9.519-5.039-9.519-10.878c0-5.839,3.12-10.758,9.438-10.758c2.08,0,5.199,0.8,6.679,3.239h0.08V283.31h3.399V311.865z
			 M598.358,309.346c4.599,0,6.318-3.959,6.318-7.799c0-4.039-1.84-7.838-6.519-7.838c-4.64,0-6.199,3.959-6.199,7.999
			C591.959,305.586,593.959,309.346,598.358,309.346z"/>
		<path fill="#333333" d="M638.357,297.828c-0.521-2.6-2.28-4.119-5.119-4.119c-4.92,0-6.439,3.919-6.439,8.079
			c0,3.839,1.72,7.559,6.039,7.559c3.319,0,5.239-1.88,5.679-5.039h3.479c-0.76,5.079-3.879,8.039-9.118,8.039
			c-6.319,0-9.679-4.359-9.679-10.558c0-6.199,3.2-11.078,9.759-11.078c4.719,0,8.398,2.199,8.918,7.119H638.357z"/>
		<path fill="#333333" d="M645.799,283.31h3.399v10.918h0.08c1.08-2.52,4.079-3.519,6.519-3.519c5.439,0,7.119,3.119,7.119,7.559
			v13.598h-3.399v-13.998c0-2.56-1.6-4.159-4.199-4.159c-4.119,0-6.119,2.759-6.119,6.479v11.678h-3.399V283.31z"/>
		<path fill="#333333" d="M686.356,311.785c-0.601,0.36-1.44,0.56-2.44,0.56c-1.76,0-2.879-0.96-2.879-3.2
			c-1.88,2.24-4.399,3.2-7.279,3.2c-3.759,0-6.839-1.64-6.839-5.799c0-4.679,3.479-5.719,6.999-6.359
			c3.72-0.76,6.959-0.44,6.959-3.039c0-3-2.479-3.439-4.6-3.439c-2.879,0-4.999,0.88-5.159,3.919h-3.399
			c0.2-5.119,4.12-6.918,8.759-6.918c3.72,0,7.759,0.84,7.759,5.679v10.638c0,1.6,0,2.32,1.08,2.32c0.319,0,0.68-0.08,1.04-0.2
			V311.785z M680.837,301.187c-2.64,1.959-10.318,0.04-10.318,5.119c0,2.24,1.92,3.04,3.999,3.04c4.479,0,6.319-2.76,6.319-4.679
			V301.187z"/>
		<path fill="#333333" d="M689.519,291.188h3.199v3.28h0.08c1.439-2.56,3.72-3.759,6.719-3.759c5.439,0,7.119,3.119,7.119,7.559
			v13.598h-3.399v-13.998c0-2.56-1.6-4.159-4.199-4.159c-4.119,0-6.119,2.759-6.119,6.479v11.678h-3.399V291.188z"/>
		<path fill="#333333" d="M729.596,310.105c0,6.759-3.039,10.158-9.599,10.158c-3.879,0-8.358-1.6-8.559-6.079h3.399
			c0.12,2.439,3.16,3.359,5.359,3.359c4.439,0,6.199-3.2,6.199-7.839v-1.36h-0.08c-1.16,2.52-3.8,3.759-6.439,3.759
			c-6.158,0-9.238-4.839-9.238-10.478c0-4.879,2.36-10.918,9.559-10.918c2.6,0,4.919,1.16,6.159,3.439h0.04v-2.96h3.199V310.105z
			 M726.236,301.107c0-3.639-1.6-7.398-5.879-7.398c-4.359,0-6.119,3.559-6.119,7.519c0,3.719,1.359,7.878,5.839,7.878
			S726.236,304.986,726.236,301.107z"/>
		<path fill="#333333" d="M752.355,305.306c-0.92,4.6-4.159,7.039-8.838,7.039c-6.6,0-9.719-4.599-9.919-10.878
			c0-6.239,4.08-10.758,9.719-10.758c7.318,0,9.559,6.839,9.358,11.838h-15.478c-0.12,3.599,1.92,6.799,6.439,6.799
			c2.839,0,4.759-1.32,5.358-4.04H752.355z M749.076,299.547c-0.2-3.24-2.56-5.839-5.959-5.839c-3.52,0-5.719,2.639-5.919,5.839
			H749.076z"/>
	</g>
</g>
<g>
	<g>
		<path fill="#231F20" d="M51.036,75.959h5.843l5.935,25.119h0.092l6.625-25.119h5.889l6.441,25.119h0.092l6.119-25.119h5.843
			l-9.063,32.848h-5.843l-6.579-25.119h-0.092l-6.717,25.119h-5.935L51.036,75.959z"/>
		<path fill="#231F20" d="M96.944,75.959h5.245V88.15h0.092c1.289-2.162,4.003-3.772,7.131-3.772c5.199,0,8.419,2.714,8.419,8.097
			v16.332h-5.244V93.855c-0.138-3.727-1.519-5.336-4.647-5.336c-3.496,0-5.75,2.76-5.75,6.256v14.032h-5.245V75.959z"/>
		<path fill="#231F20" d="M143.268,103.516c0,1.288,0.276,1.794,1.242,1.794h0.552c0.23,0,0.46-0.046,0.736-0.092v3.634
			c-0.782,0.276-2.438,0.598-3.312,0.598c-2.162,0-3.634-0.736-4.048-2.898c-2.07,2.024-5.429,2.898-8.235,2.898
			c-4.279,0-8.143-2.3-8.143-6.947c0-5.935,4.739-6.901,9.155-7.407c3.818-0.736,7.13-0.23,7.13-3.358c0-2.76-2.852-3.22-4.922-3.22
			c-2.944,0-5.015,1.196-5.245,3.772h-5.245c0.368-6.119,5.521-7.913,10.812-7.913c4.646,0,9.523,1.886,9.523,6.901V103.516z
			 M138.023,96.891c-1.61,1.058-4.095,1.012-6.441,1.426c-2.254,0.368-4.278,1.196-4.278,3.957c0,2.392,2.99,3.036,4.831,3.036
			c2.3,0,5.889-1.196,5.889-4.508V96.891z"/>
		<path fill="#231F20" d="M146.531,85.022h3.957v-7.131h5.245v7.131h4.738v3.911h-4.738v12.697c0,2.162,0.184,3.266,2.53,3.266
			c0.736,0,1.472,0,2.208-0.184v4.048c-1.15,0.138-2.254,0.276-3.404,0.276c-5.521,0-6.441-2.116-6.579-6.073V88.933h-3.957V85.022z
			"/>
		<path fill="#231F20" d="M177.167,75.959h5.245v4.968h-5.245V75.959z M177.167,85.022h5.245v23.785h-5.245V85.022z"/>
		<path fill="#231F20" d="M192.072,101.17c0.322,3.082,2.576,4.14,5.383,4.14c2.024,0,5.428-0.414,5.291-3.128
			c-0.138-2.76-3.957-3.082-7.775-3.956c-3.865-0.828-7.637-2.208-7.637-7.039c0-5.198,5.613-6.809,9.938-6.809
			c4.876,0,9.339,1.978,9.937,7.315h-5.475c-0.506-2.53-2.484-3.174-4.831-3.174c-1.518,0-4.325,0.368-4.325,2.438
			c0,2.576,3.865,2.99,7.729,3.818c3.818,0.874,7.683,2.254,7.683,6.947c0,5.659-5.705,7.729-10.627,7.729
			c-6.027,0-10.397-2.668-10.535-8.281H192.072z"/>
		<path fill="#231F20" d="M244.698,103.516c0,1.288,0.276,1.794,1.242,1.794h0.552c0.23,0,0.46-0.046,0.736-0.092v3.634
			c-0.782,0.276-2.438,0.598-3.312,0.598c-2.162,0-3.634-0.736-4.048-2.898c-2.07,2.024-5.429,2.898-8.235,2.898
			c-4.279,0-8.143-2.3-8.143-6.947c0-5.935,4.739-6.901,9.155-7.407c3.818-0.736,7.13-0.23,7.13-3.358c0-2.76-2.852-3.22-4.922-3.22
			c-2.944,0-5.015,1.196-5.245,3.772h-5.245c0.368-6.119,5.521-7.913,10.812-7.913c4.646,0,9.523,1.886,9.523,6.901V103.516z
			 M239.453,96.891c-1.61,1.058-4.095,1.012-6.441,1.426c-2.254,0.368-4.278,1.196-4.278,3.957c0,2.392,2.99,3.036,4.831,3.036
			c2.3,0,5.889-1.196,5.889-4.508V96.891z"/>
		<path fill="#231F20" d="M279.197,92.981c-0.414-2.944-2.484-4.462-5.428-4.462c-2.714,0-6.533,1.472-6.533,8.649
			c0,3.956,1.748,8.143,6.303,8.143c3.082,0,5.152-1.978,5.658-5.428h5.245c-0.966,6.21-4.784,9.569-10.903,9.569
			c-7.453,0-11.547-5.291-11.547-12.283c0-7.177,3.91-12.79,11.731-12.79c5.521,0,10.213,2.76,10.719,8.603H279.197z"/>
		<path fill="#231F20" d="M288.718,75.959h5.245V88.15h0.092c1.288-2.162,4.002-3.772,7.13-3.772c5.199,0,8.419,2.714,8.419,8.097
			v16.332h-5.245V93.855c-0.138-3.727-1.518-5.336-4.646-5.336c-3.496,0-5.75,2.76-5.75,6.256v14.032h-5.245V75.959z"/>
		<path fill="#231F20" d="M335.042,103.516c0,1.288,0.276,1.794,1.242,1.794h0.552c0.23,0,0.46-0.046,0.736-0.092v3.634
			c-0.782,0.276-2.438,0.598-3.312,0.598c-2.162,0-3.634-0.736-4.048-2.898c-2.07,2.024-5.429,2.898-8.235,2.898
			c-4.279,0-8.143-2.3-8.143-6.947c0-5.935,4.739-6.901,9.155-7.407c3.818-0.736,7.13-0.23,7.13-3.358c0-2.76-2.852-3.22-4.922-3.22
			c-2.944,0-5.015,1.196-5.245,3.772h-5.245c0.368-6.119,5.521-7.913,10.812-7.913c4.646,0,9.523,1.886,9.523,6.901V103.516z
			 M329.797,96.891c-1.61,1.058-4.095,1.012-6.441,1.426c-2.254,0.368-4.278,1.196-4.278,3.957c0,2.392,2.99,3.036,4.831,3.036
			c2.3,0,5.889-1.196,5.889-4.508V96.891z"/>
		<path fill="#231F20" d="M340.697,85.022h4.969v3.497l0.092,0.092c1.61-2.622,4.279-4.232,7.407-4.232
			c5.199,0,8.419,2.714,8.419,8.097v16.332h-5.245V93.855c-0.138-3.727-1.518-5.336-4.646-5.336c-3.496,0-5.75,2.76-5.75,6.256
			v14.032h-5.245V85.022z"/>
		<path fill="#231F20" d="M389.091,107.564c0,7.177-4.141,10.673-11.686,10.673c-4.785,0-10.121-1.84-10.627-7.407h5.245
			c0.644,2.99,3.036,3.496,5.705,3.496c4.232,0,6.119-2.162,6.119-6.073v-3.634h-0.092c-1.472,2.623-4.187,4.187-7.131,4.187
			c-7.544,0-10.673-5.705-10.673-12.514c0-6.395,4.002-11.915,10.765-11.915c2.99,0,5.705,1.196,7.039,3.91h0.092v-3.266h5.245
			V107.564z M383.847,96.385c0-4.095-1.84-7.867-6.395-7.867c-4.646,0-6.256,4.324-6.256,8.281c0,3.864,1.886,7.867,6.256,7.867
			C382.098,104.666,383.847,100.479,383.847,96.385z"/>
		<path fill="#231F20" d="M398.473,98.271c0,3.727,2.024,7.039,6.395,7.039c3.083,0,4.876-1.334,5.797-3.956h4.968
			c-1.104,5.198-5.613,8.097-10.765,8.097c-7.499,0-11.639-5.152-11.639-12.513c0-6.763,4.417-12.56,11.501-12.56
			c7.499,0,12.1,6.763,11.226,13.894H398.473z M410.71,94.821c-0.23-3.312-2.393-6.303-5.981-6.303c-3.634,0-6.119,2.76-6.256,6.303
			H410.71z"/>
		<path fill="#231F20" d="M432.742,85.022h4.923v4.601h0.092c0.598-2.53,3.772-5.245,6.947-5.245c1.242,0,1.472,0.092,1.978,0.138
			v5.061c-0.736-0.138-1.518-0.23-2.254-0.23c-3.542,0-6.441,2.853-6.441,8.143v11.317h-5.245V85.022z"/>
		<path fill="#231F20" d="M453.028,98.271c0,3.727,2.024,7.039,6.395,7.039c3.083,0,4.876-1.334,5.797-3.956h4.968
			c-1.104,5.198-5.613,8.097-10.765,8.097c-7.499,0-11.639-5.152-11.639-12.513c0-6.763,4.417-12.56,11.501-12.56
			c7.499,0,12.1,6.763,11.226,13.894H453.028z M465.266,94.821c-0.23-3.312-2.393-6.303-5.981-6.303
			c-3.634,0-6.119,2.76-6.256,6.303H465.266z"/>
		<path fill="#231F20" d="M496.915,117.594h-5.245v-11.87h-0.092c-1.748,2.623-4.831,3.727-7.959,3.727
			c-6.993,0-10.259-5.98-10.259-12.421c0-6.993,3.634-12.651,11.133-12.651c3.082,0,5.889,1.104,7.361,3.864h0.092v-3.22h4.969
			V117.594z M485.183,105.31c4.555,0,6.671-3.404,6.671-8.373c0-5.199-2.254-8.419-6.671-8.419c-4.325,0-6.579,4.14-6.579,8.419
			C478.604,101.078,480.398,105.31,485.183,105.31z"/>
		<path fill="#231F20" d="M523.501,108.807h-5.152v-3.312h-0.092c-1.288,2.393-4.14,3.957-6.763,3.957
			c-6.256,0-8.879-3.083-8.879-9.339v-15.09h5.245v14.583c0,4.187,1.656,5.705,4.555,5.705c4.371,0,5.842-2.806,5.842-6.486V85.022
			h5.245V108.807z"/>
		<path fill="#231F20" d="M533.113,98.271c0,3.727,2.024,7.039,6.395,7.039c3.083,0,4.876-1.334,5.797-3.956h4.968
			c-1.104,5.198-5.613,8.097-10.765,8.097c-7.499,0-11.639-5.152-11.639-12.513c0-6.763,4.417-12.56,11.501-12.56
			c7.499,0,12.1,6.763,11.226,13.894H533.113z M545.351,94.821c-0.23-3.312-2.393-6.303-5.981-6.303
			c-3.634,0-6.119,2.76-6.256,6.303H545.351z"/>
		<path fill="#231F20" d="M558.551,101.17c0.322,3.082,2.576,4.14,5.383,4.14c2.024,0,5.428-0.414,5.291-3.128
			c-0.138-2.76-3.957-3.082-7.775-3.956c-3.865-0.828-7.637-2.208-7.637-7.039c0-5.198,5.613-6.809,9.938-6.809
			c4.876,0,9.339,1.978,9.937,7.315h-5.475c-0.506-2.53-2.484-3.174-4.831-3.174c-1.518,0-4.325,0.368-4.325,2.438
			c0,2.576,3.865,2.99,7.729,3.818c3.818,0.874,7.683,2.254,7.683,6.947c0,5.659-5.705,7.729-10.627,7.729
			c-6.027,0-10.397-2.668-10.535-8.281H558.551z"/>
		<path fill="#231F20" d="M576.077,85.022h3.957v-7.131h5.244v7.131h4.739v3.911h-4.739v12.697c0,2.162,0.184,3.266,2.531,3.266
			c0.736,0,1.472,0,2.208-0.184v4.048c-1.15,0.138-2.254,0.276-3.404,0.276c-5.521,0-6.441-2.116-6.579-6.073V88.933h-3.957V85.022z
			"/>
		<path fill="#231F20" d="M593.281,86.402c0-6.763,4.232-11.225,11.041-11.225c5.613,0,10.029,3.358,10.029,9.293
			c0,4.371-2.07,5.889-4.048,7.637c-2.347,1.978-4.049,3.358-4.049,7.775h-4.968c0-5.337,1.15-7.269,3.588-9.339
			c1.932-1.702,3.727-2.806,3.727-5.889c0-3.727-2.898-5.106-4.509-5.106c-3.818,0-5.566,2.668-5.566,6.854H593.281z
			 M600.596,103.056h6.165v5.75h-6.165V103.056z"/>
	</g>
</g>
<g>
	<polygon fill="#FFFFFF" points="1687.905,556.951 1687.905,423.727 1687.905,356.933 1640.045,309.073 1506.531,309.073 
		1506.531,358.522 1506.531,423.727 1506.531,556.951 	"/>
	<polygon fill="#C2D64C" points="1640.045,356.933 1687.905,356.933 1640.045,309.073 	"/>
	<polygon fill="#D1ECFB" points="1687.905,356.935 1640.045,356.935 1687.905,404.794 	"/>
	<rect x="1540.874" y="365.836" fill="#15B0BF" width="55.502" height="4.528"/>
	<g>
		<rect x="1540.874" y="388.125" fill="#A6DAE9" width="112.685" height="4.53"/>
		<rect x="1540.874" y="402.359" fill="#A6DAE9" width="112.685" height="4.526"/>
		<rect x="1540.874" y="416.592" fill="#A6DAE9" width="112.685" height="4.527"/>
		<rect x="1540.874" y="430.822" fill="#A6DAE9" width="112.685" height="4.532"/>
		<rect x="1540.874" y="445.052" fill="#A6DAE9" width="112.685" height="4.53"/>
		<rect x="1540.874" y="459.288" fill="#A6DAE9" width="112.685" height="4.53"/>
		<rect x="1540.874" y="473.521" fill="#A6DAE9" width="112.685" height="4.528"/>
	</g>
</g>
<path fill="#1365A8" d="M312.315,189.373c51.883,0,93.946,42.057,93.946,93.944c0,51.889-42.062,93.951-93.946,93.951
	c-51.888,0-93.951-42.062-93.951-93.951C218.365,231.43,260.427,189.373,312.315,189.373"/>
<g>
	<polygon fill-rule="evenodd" clip-rule="evenodd" fill="#DAE1E6" points="341.571,227.275 340.198,225.902 340.228,225.902 	"/>
	<path fill-rule="evenodd" clip-rule="evenodd" fill="#BDC3C7" d="M355.837,324.817l-69.587-0.03c-3.662,0-6.638-2.976-6.638-6.638
		l0.046-96.55c0-3.654,2.982-6.638,6.638-6.638l47.432,0.022l28.778,28.809l-0.016,74.402
		C362.491,321.857,359.5,324.833,355.837,324.817z"/>
	<polygon fill-rule="evenodd" clip-rule="evenodd" fill="#95A5A6" points="352.329,233.6 362.506,243.792 362.491,268.695 
		335.727,241.901 	"/>
	<path fill-rule="evenodd" clip-rule="evenodd" fill="#C0C0C0" d="M355.837,324.817h-13.03l0.03-60.074l19.653,19.692v33.76
		C362.491,321.857,359.5,324.833,355.837,324.817z"/>
	<path fill-rule="evenodd" clip-rule="evenodd" fill="#DAE1E6" d="M362.506,243.792l-22.141-0.007c-3.662,0-6.653-2.983-6.653-6.646
		l0.016-22.156L362.506,243.792z"/>
	<polygon fill-rule="evenodd" clip-rule="evenodd" fill="#DAE1E6" points="321.872,248.218 320.514,246.844 320.544,246.844 	"/>
	<path fill-rule="evenodd" clip-rule="evenodd" fill="#DAE1E6" d="M336.154,345.783l-69.588-0.03
		c-3.654-0.016-6.645-2.991-6.645-6.653l0.046-96.55c0.007-3.662,2.99-6.646,6.652-6.646l47.417,0.023l28.801,28.815l-0.046,74.387
		C342.792,342.792,339.816,345.783,336.154,345.783z"/>
	<polygon fill-rule="evenodd" clip-rule="evenodd" fill="#B3B3B3" points="332.644,254.535 342.837,264.743 342.807,289.645 
		316.05,262.843 	"/>
	<path fill-rule="evenodd" clip-rule="evenodd" fill="#ECF0F1" d="M342.837,264.736l-22.171-0.008c-3.647,0-6.638-2.983-6.638-6.646
		l0.008-22.155L342.837,264.736z"/>
</g>
<g>
	<g>
		<path fill="#333333" d="M456.398,495.114c0,3.839-2.039,7.798-8.438,7.798c-5.319,0-8.318-2.919-8.318-8.318v-1.76h3.8v1.2
			c0,3.319,0.879,5.679,4.599,5.679c3.479,0,4.56-2,4.56-5.159v-20.876h3.799V495.114z"/>
		<path fill="#333333" d="M479.198,502.232h-3.199v-3.279h-0.08c-1.44,2.56-3.72,3.76-6.719,3.76c-5.439,0-7.119-3.12-7.119-7.559
			v-13.598h3.399v13.998c0,2.56,1.6,4.159,4.199,4.159c4.119,0,6.119-2.76,6.119-6.479v-11.678h3.399V502.232z"/>
		<path fill="#333333" d="M486.401,495.713c0.119,3.04,2.799,4,5.559,4c2.12,0,4.999-0.48,4.999-3.08
			c0-5.319-13.518-1.72-13.518-9.678c0-4.159,4.079-5.879,7.719-5.879c4.64,0,8.158,1.439,8.479,6.479h-3.399
			c-0.2-2.639-2.6-3.479-4.799-3.479c-2.04,0-4.399,0.56-4.399,2.639c0,2.4,3.6,2.88,6.759,3.6c3.399,0.76,6.759,1.919,6.759,5.879
			c0,4.959-4.6,6.52-8.799,6.52c-4.639,0-8.559-1.88-8.758-7H486.401z"/>
		<path fill="#333333" d="M509.04,481.556h4.12v3h-4.12v12.838c0,1.6,0.44,1.84,2.56,1.84h1.561v3h-2.6
			c-3.52,0-4.92-0.72-4.92-4.519v-13.158h-3.519v-3h3.519v-6.199h3.399V481.556z"/>
		<path fill="#333333" d="M520.521,477.836h-3.399v-4.159h3.399V477.836z M517.121,481.556h3.399v20.677h-3.399V481.556z"/>
		<path fill="#333333" d="M527.199,484.555h-3.479v-3h3.479v-3.079c0-3.359,2-5.119,5.72-5.119c0.64,0,1.56,0.12,2.199,0.32v2.959
			c-0.6-0.2-1.319-0.28-1.92-0.28c-1.64,0-2.6,0.52-2.6,2.319v2.879h4v3h-4v17.677h-3.399V484.555z M537.838,477.836v-4.159h3.399
			v4.159H537.838z M537.838,502.232v-20.677h3.399v20.677H537.838z"/>
		<path fill="#333333" d="M560.558,488.195c-0.521-2.6-2.28-4.119-5.119-4.119c-4.92,0-6.439,3.919-6.439,8.079
			c0,3.839,1.72,7.559,6.039,7.559c3.319,0,5.239-1.88,5.679-5.039h3.479c-0.76,5.079-3.879,8.039-9.118,8.039
			c-6.319,0-9.679-4.36-9.679-10.559c0-6.199,3.2-11.078,9.759-11.078c4.719,0,8.398,2.199,8.918,7.119H560.558z"/>
		<path fill="#333333" d="M586.316,502.152c-0.601,0.359-1.44,0.561-2.44,0.561c-1.76,0-2.879-0.961-2.879-3.2
			c-1.88,2.239-4.399,3.2-7.279,3.2c-3.759,0-6.839-1.641-6.839-5.8c0-4.679,3.479-5.719,6.999-6.359
			c3.72-0.76,6.959-0.44,6.959-3.039c0-3-2.479-3.439-4.6-3.439c-2.879,0-4.999,0.88-5.159,3.919h-3.399
			c0.2-5.119,4.12-6.918,8.759-6.918c3.72,0,7.759,0.84,7.759,5.679v10.638c0,1.6,0,2.32,1.08,2.32c0.319,0,0.68-0.08,1.04-0.2
			V502.152z M580.797,491.554c-2.64,1.959-10.318,0.04-10.318,5.119c0,2.24,1.92,3.04,3.999,3.04c4.479,0,6.319-2.76,6.319-4.679
			V491.554z"/>
		<path fill="#333333" d="M594.197,481.556h4.12v3h-4.12v12.838c0,1.6,0.44,1.84,2.56,1.84h1.561v3h-2.6
			c-3.52,0-4.92-0.72-4.92-4.519v-13.158h-3.519v-3h3.519v-6.199h3.399V481.556z"/>
		<path fill="#333333" d="M605.678,477.836h-3.399v-4.159h3.399V477.836z M602.278,481.556h3.399v20.677h-3.399V481.556z"/>
		<path fill="#333333" d="M619.877,481.076c6.559,0,10.038,4.759,10.038,10.838c0,6.039-3.479,10.799-10.038,10.799
			c-6.56,0-10.039-4.76-10.039-10.799C609.838,485.835,613.317,481.076,619.877,481.076z M619.877,499.713
			c3.559,0,6.438-2.8,6.438-7.799s-2.88-7.838-6.438-7.838c-3.56,0-6.439,2.839-6.439,7.838S616.317,499.713,619.877,499.713z"/>
		<path fill="#333333" d="M633.918,481.556h3.199v3.28h0.08c1.439-2.56,3.72-3.759,6.719-3.759c5.439,0,7.119,3.119,7.119,7.559
			v13.598h-3.399v-13.998c0-2.56-1.6-4.159-4.199-4.159c-4.119,0-6.119,2.759-6.119,6.479v11.678h-3.399V481.556z"/>
		<path fill="#333333" d="M668.678,484.555h-3.479v-3h3.479v-3.079c0-3.359,2-5.119,5.72-5.119c0.64,0,1.56,0.12,2.199,0.32v2.959
			c-0.6-0.2-1.319-0.28-1.92-0.28c-1.64,0-2.6,0.52-2.6,2.319v2.879h4v3h-4v17.677h-3.399V484.555z"/>
		<path fill="#333333" d="M688.037,481.076c6.559,0,10.038,4.759,10.038,10.838c0,6.039-3.479,10.799-10.038,10.799
			c-6.56,0-10.039-4.76-10.039-10.799C677.998,485.835,681.478,481.076,688.037,481.076z M688.037,499.713
			c3.559,0,6.438-2.8,6.438-7.799s-2.88-7.838-6.438-7.838c-3.56,0-6.439,2.839-6.439,7.838S684.478,499.713,688.037,499.713z"/>
		<path fill="#333333" d="M701.958,481.556h3.199v4.359h0.08c1.64-3.359,3.92-4.959,7.599-4.839v3.599
			c-5.479,0-7.479,3.08-7.479,8.359v9.198h-3.399V481.556z"/>
		<path fill="#333333" d="M455.359,538.195c-0.521-2.6-2.28-4.119-5.119-4.119c-4.92,0-6.439,3.918-6.439,8.078
			c0,3.84,1.72,7.559,6.039,7.559c3.319,0,5.239-1.88,5.679-5.039h3.479c-0.76,5.079-3.879,8.039-9.118,8.039
			c-6.319,0-9.679-4.359-9.679-10.559s3.2-11.078,9.759-11.078c4.719,0,8.398,2.199,8.918,7.119H455.359z"/>
		<path fill="#333333" d="M462.801,523.678h3.399v10.918h0.08c1.08-2.52,4.079-3.52,6.519-3.52c5.439,0,7.119,3.119,7.119,7.559
			v13.598h-3.399v-13.998c0-2.559-1.6-4.158-4.199-4.158c-4.119,0-6.119,2.759-6.119,6.479v11.678h-3.399V523.678z"/>
		<path fill="#333333" d="M503.358,552.152c-0.601,0.359-1.44,0.561-2.44,0.561c-1.76,0-2.879-0.961-2.879-3.2
			c-1.88,2.239-4.399,3.2-7.279,3.2c-3.759,0-6.839-1.641-6.839-5.8c0-4.679,3.479-5.719,6.999-6.358
			c3.72-0.76,6.959-0.44,6.959-3.039c0-3-2.479-3.439-4.6-3.439c-2.879,0-4.999,0.879-5.159,3.918h-3.399
			c0.2-5.119,4.12-6.918,8.759-6.918c3.72,0,7.759,0.84,7.759,5.679v10.638c0,1.601,0,2.32,1.08,2.32c0.319,0,0.68-0.08,1.04-0.2
			V552.152z M497.839,541.555c-2.64,1.959-10.318,0.039-10.318,5.119c0,2.239,1.92,3.039,3.999,3.039c4.479,0,6.319-2.76,6.319-4.68
			V541.555z"/>
		<path fill="#333333" d="M506.521,531.556h3.199v3.28h0.08c1.439-2.561,3.72-3.76,6.719-3.76c5.439,0,7.119,3.119,7.119,7.559
			v13.598h-3.399v-13.998c0-2.559-1.6-4.158-4.199-4.158c-4.119,0-6.119,2.759-6.119,6.479v11.678h-3.399V531.556z"/>
		<path fill="#333333" d="M546.598,550.473c0,6.759-3.039,10.158-9.599,10.158c-3.879,0-8.358-1.6-8.559-6.078h3.399
			c0.12,2.439,3.16,3.359,5.359,3.359c4.439,0,6.199-3.2,6.199-7.84v-1.359h-0.08c-1.16,2.52-3.8,3.76-6.439,3.76
			c-6.158,0-9.238-4.84-9.238-10.479c0-4.879,2.36-10.918,9.559-10.918c2.6,0,4.919,1.16,6.159,3.439h0.04v-2.96h3.199V550.473z
			 M543.238,541.475c0-3.64-1.6-7.398-5.879-7.398c-4.359,0-6.119,3.559-6.119,7.518c0,3.72,1.359,7.879,5.839,7.879
			S543.238,545.354,543.238,541.475z"/>
		<path fill="#333333" d="M569.357,545.674c-0.92,4.6-4.159,7.039-8.838,7.039c-6.6,0-9.719-4.6-9.919-10.879
			c0-6.238,4.08-10.758,9.719-10.758c7.318,0,9.559,6.839,9.358,11.838H554.2c-0.12,3.6,1.92,6.799,6.439,6.799
			c2.839,0,4.759-1.32,5.358-4.039H569.357z M566.078,539.914c-0.2-3.239-2.56-5.838-5.959-5.838c-3.52,0-5.719,2.639-5.919,5.838
			H566.078z"/>
	</g>
</g>
<path fill="#1365A8" d="M312.315,429.74c51.883,0,93.946,42.057,93.946,93.944c0,51.889-42.062,93.951-93.946,93.951
	c-51.888,0-93.951-42.062-93.951-93.951C218.365,471.797,260.427,429.74,312.315,429.74"/>
<g>
	<path fill-rule="evenodd" clip-rule="evenodd" fill="#2C3E50" d="M306.316,529.054c-16.844,16.852-39.752-9.927-24.843-24.843
		c1.299-1.292,3.41-1.292,4.703,0l0.873,0.874l16.505-16.513l7.769-7.762l-0.865-0.873c-1.3-1.293-1.3-3.411,0-4.704
		c14.996-15.001,41.605,8.073,24.849,24.844c-1.3,1.292-3.411,1.292-4.711,0l0.461,0.467l-5.549,5.542l-18.732,18.732l-0.419-0.427
		C307.615,525.691,307.587,527.769,306.316,529.054z"/>
	<path fill-rule="evenodd" clip-rule="evenodd" fill="#3D566E" d="M279.158,524.669c-3.552-6.267-3.783-14.36,2.315-20.458
		c1.299-1.292,3.41-1.292,4.703,0l0.873,0.874l16.505-16.513l7.769-7.762l-0.865-0.873c-1.3-1.293-1.3-3.411,0-4.704
		c6.144-6.138,14.211-5.9,20.477-2.32L279.158,524.669z"/>
	<path fill-rule="evenodd" clip-rule="evenodd" fill="#2C3E50" d="M323.369,510.653c4.845,4.454,38.331,36.74,47.967,47.662
		c7.755,8.759,1.583,14.063-6.253,7.377c-10.693-9.123-43.771-43.655-48.183-48.556L323.369,510.653z"/>
	<path fill-rule="evenodd" clip-rule="evenodd" fill="#F39C12" d="M265.976,545.933h56.284c3.491,0,6.361,2.489,6.632,5.737
		l0.541,6.578h-70.569l0.474-6.523C259.574,548.449,262.47,545.933,265.976,545.933z"/>
	<path fill-rule="evenodd" clip-rule="evenodd" fill="#2C3E50" d="M265.976,545.933h56.284c3.491,0,6.361,2.489,6.632,5.737v0.055
		h-69.555C259.574,548.449,262.47,545.933,265.976,545.933z"/>
	<path fill-rule="evenodd" clip-rule="evenodd" fill="#3D566E" d="M265.976,545.933h56.284c2.436,0,4.574,1.218,5.725,3.059h-67.741
		C261.401,547.15,263.546,545.933,265.976,545.933z"/>
	<polygon fill-rule="evenodd" clip-rule="evenodd" fill="#F39C12" points="328.783,505.248 311.485,522.545 288.179,499.238 
		305.477,481.934 	"/>
	<polygon fill-rule="evenodd" clip-rule="evenodd" fill="#FACC4D" points="313.691,490.149 296.381,507.446 288.179,499.238 
		305.477,481.934 	"/>
	<path fill-rule="evenodd" clip-rule="evenodd" fill="#2C3E50" d="M335.4,568.413l-0.365-8.622
		c-0.149-3.316-2.869-5.928-6.198-5.928h-69.352c-3.323,0-6.051,2.611-6.192,5.928l-0.373,8.622H335.4z"/>
	<path fill-rule="evenodd" clip-rule="evenodd" fill="#3D566E" d="M334.169,556.908c-1.083-1.827-3.072-3.045-5.332-3.045h-69.352
		c-2.267,0-4.257,1.218-5.339,3.045H334.169z"/>
	<polygon fill-rule="evenodd" clip-rule="evenodd" fill="#F39C12" points="307.832,523.77 306.775,524.818 287.049,505.085 
		288.091,504.05 	"/>
	<polygon fill-rule="evenodd" clip-rule="evenodd" fill="#F39C12" points="331.057,500.544 330.014,501.579 310.295,481.852 
		311.323,480.811 	"/>
</g>
<g>
	<g>
		<path fill="#333333" d="M441.881,725.053h13.438c5.398,0,8.678,2.88,8.678,7.479c0,3.48-1.479,6.279-4.959,7.239v0.08
			c3.319,0.64,3.96,3.12,4.279,5.879c0.2,2.76,0.08,5.96,1.68,7.879h-4.239c-1.08-1.159-0.479-4.239-1.04-7.038
			c-0.439-2.76-1.079-5.16-4.759-5.16h-9.278v12.198h-3.8V725.053z M453.6,738.211c3.519,0,6.599-0.92,6.599-5.079
			c0-2.839-1.52-4.88-5.079-4.88h-9.438v9.959H453.6z"/>
		<path fill="#333333" d="M486.358,747.049c-0.92,4.6-4.159,7.039-8.838,7.039c-6.6,0-9.719-4.599-9.919-10.878
			c0-6.239,4.08-10.758,9.719-10.758c7.318,0,9.559,6.839,9.358,11.838h-15.478c-0.12,3.599,1.92,6.799,6.439,6.799
			c2.839,0,4.759-1.319,5.358-4.04H486.358z M483.079,741.291c-0.2-3.24-2.56-5.84-5.959-5.84c-3.52,0-5.719,2.64-5.919,5.84
			H483.079z"/>
		<path fill="#333333" d="M508.678,761.527h-3.399v-10.719h-0.08c-1.119,2.279-3.719,3.279-6.599,3.279
			c-6.358,0-9.519-5.039-9.519-10.878s3.12-10.758,9.438-10.758c2.08,0,5.199,0.8,6.679,3.239h0.08v-2.76h3.399V761.527z
			 M499.08,751.089c4.599,0,6.318-3.96,6.318-7.799c0-4.039-1.84-7.839-6.519-7.839c-4.64,0-6.199,3.959-6.199,7.999
			C492.681,747.33,494.681,751.089,499.08,751.089z"/>
		<path fill="#333333" d="M531.038,753.608h-3.199v-3.279h-0.08c-1.44,2.56-3.72,3.759-6.719,3.759
			c-5.439,0-7.119-3.119-7.119-7.559v-13.598h3.399v13.998c0,2.56,1.6,4.159,4.199,4.159c4.119,0,6.119-2.76,6.119-6.479v-11.678
			h3.399V753.608z"/>
		<path fill="#333333" d="M553.798,747.049c-0.92,4.6-4.159,7.039-8.838,7.039c-6.6,0-9.719-4.599-9.919-10.878
			c0-6.239,4.08-10.758,9.719-10.758c7.318,0,9.559,6.839,9.358,11.838h-15.478c-0.12,3.599,1.92,6.799,6.439,6.799
			c2.839,0,4.759-1.319,5.358-4.04H553.798z M550.519,741.291c-0.2-3.24-2.56-5.84-5.959-5.84c-3.52,0-5.719,2.64-5.919,5.84
			H550.519z"/>
		<path fill="#333333" d="M559.721,747.09c0.119,3.039,2.799,3.999,5.559,3.999c2.12,0,4.999-0.479,4.999-3.079
			c0-5.319-13.518-1.721-13.518-9.679c0-4.159,4.079-5.879,7.719-5.879c4.64,0,8.158,1.439,8.479,6.479h-3.399
			c-0.2-2.64-2.6-3.479-4.799-3.479c-2.04,0-4.399,0.561-4.399,2.64c0,2.399,3.6,2.88,6.759,3.6c3.399,0.76,6.759,1.919,6.759,5.879
			c0,4.96-4.6,6.519-8.799,6.519c-4.639,0-8.559-1.879-8.758-6.998H559.721z"/>
		<path fill="#333333" d="M582.359,732.932h4.12v3h-4.12v12.838c0,1.6,0.44,1.84,2.56,1.84h1.561v2.999h-2.6
			c-3.52,0-4.92-0.72-4.92-4.519v-13.158h-3.519v-3h3.519v-6.199h3.399V732.932z"/>
		<path fill="#333333" d="M607.877,747.049c-0.92,4.6-4.159,7.039-8.838,7.039c-6.6,0-9.719-4.599-9.919-10.878
			c0-6.239,4.08-10.758,9.719-10.758c7.318,0,9.559,6.839,9.358,11.838H592.72c-0.12,3.599,1.92,6.799,6.439,6.799
			c2.839,0,4.759-1.319,5.358-4.04H607.877z M604.598,741.291c-0.2-3.24-2.56-5.84-5.959-5.84c-3.52,0-5.719,2.64-5.919,5.84
			H604.598z"/>
		<path fill="#333333" d="M630.196,753.608h-3.399v-2.8h-0.08c-1.119,2.279-3.719,3.279-6.599,3.279
			c-6.358,0-9.519-5.039-9.519-10.878s3.12-10.758,9.438-10.758c2.08,0,5.199,0.8,6.679,3.239h0.08v-10.639h3.399V753.608z
			 M620.599,751.089c4.599,0,6.318-3.96,6.318-7.799c0-4.039-1.84-7.839-6.519-7.839c-4.64,0-6.199,3.959-6.199,7.999
			C614.199,747.33,616.199,751.089,620.599,751.089z"/>
		<path fill="#333333" d="M458.958,797.049c-0.92,4.6-4.159,7.039-8.838,7.039c-6.6,0-9.719-4.599-9.919-10.878
			c0-6.239,4.08-10.758,9.719-10.758c7.318,0,9.559,6.839,9.358,11.838h-15.478c-0.12,3.599,1.92,6.799,6.439,6.799
			c2.839,0,4.759-1.319,5.358-4.04H458.958z M455.679,791.291c-0.2-3.24-2.56-5.84-5.959-5.84c-3.52,0-5.719,2.64-5.919,5.84
			H455.679z"/>
		<path fill="#333333" d="M464.2,785.932h-3.479v-3h3.479v-3.079c0-3.359,2-5.119,5.72-5.119c0.64,0,1.56,0.12,2.199,0.319v2.96
			c-0.6-0.2-1.319-0.28-1.92-0.28c-1.64,0-2.6,0.52-2.6,2.32v2.879h4v3h-4v17.677H464.2V785.932z"/>
		<path fill="#333333" d="M476.04,785.932h-3.479v-3h3.479v-3.079c0-3.359,2-5.119,5.72-5.119c0.64,0,1.56,0.12,2.199,0.319v2.96
			c-0.6-0.2-1.319-0.28-1.92-0.28c-1.64,0-2.6,0.52-2.6,2.32v2.879h4v3h-4v17.677h-3.399V785.932z"/>
		<path fill="#333333" d="M504.117,797.049c-0.92,4.6-4.159,7.039-8.838,7.039c-6.6,0-9.719-4.599-9.919-10.878
			c0-6.239,4.08-10.758,9.719-10.758c7.318,0,9.559,6.839,9.358,11.838H488.96c-0.12,3.599,1.92,6.799,6.439,6.799
			c2.839,0,4.759-1.319,5.358-4.04H504.117z M500.838,791.291c-0.2-3.24-2.56-5.84-5.959-5.84c-3.52,0-5.719,2.64-5.919,5.84
			H500.838z"/>
		<path fill="#333333" d="M521.998,789.57c-0.521-2.6-2.28-4.119-5.119-4.119c-4.92,0-6.439,3.92-6.439,8.079
			c0,3.839,1.72,7.559,6.039,7.559c3.319,0,5.239-1.88,5.679-5.039h3.479c-0.76,5.079-3.879,8.038-9.118,8.038
			c-6.319,0-9.679-4.359-9.679-10.558c0-6.199,3.2-11.078,9.759-11.078c4.719,0,8.398,2.199,8.918,7.118H521.998z"/>
		<path fill="#333333" d="M534.158,782.932h4.12v3h-4.12v12.838c0,1.6,0.44,1.84,2.56,1.84h1.561v2.999h-2.6
			c-3.52,0-4.92-0.72-4.92-4.519v-13.158h-3.519v-3h3.519v-6.199h3.399V782.932z"/>
		<path fill="#333333" d="M545.639,779.213h-3.399v-4.16h3.399V779.213z M542.239,782.932h3.399v20.677h-3.399V782.932z"/>
		<path fill="#333333" d="M560.237,803.608h-3.64l-7.679-20.677h3.8l5.799,17.237h0.08l5.639-17.237h3.56L560.237,803.608z"/>
		<path fill="#333333" d="M588.556,797.049c-0.92,4.6-4.159,7.039-8.838,7.039c-6.6,0-9.719-4.599-9.919-10.878
			c0-6.239,4.08-10.758,9.719-10.758c7.318,0,9.559,6.839,9.358,11.838h-15.478c-0.12,3.599,1.92,6.799,6.439,6.799
			c2.839,0,4.759-1.319,5.358-4.04H588.556z M585.276,791.291c-0.2-3.24-2.56-5.84-5.959-5.84c-3.52,0-5.719,2.64-5.919,5.84
			H585.276z"/>
		<path fill="#333333" d="M621.995,803.608h-3.399v-2.8h-0.08c-1.119,2.279-3.719,3.279-6.599,3.279
			c-6.358,0-9.519-5.039-9.519-10.878s3.12-10.758,9.438-10.758c2.08,0,5.199,0.8,6.679,3.239h0.08v-10.639h3.399V803.608z
			 M612.397,801.089c4.599,0,6.318-3.96,6.318-7.799c0-4.039-1.84-7.839-6.519-7.839c-4.64,0-6.199,3.959-6.199,7.999
			C605.998,797.33,607.998,801.089,612.397,801.089z"/>
		<path fill="#333333" d="M645.556,803.528c-0.601,0.36-1.44,0.56-2.44,0.56c-1.76,0-2.879-0.959-2.879-3.199
			c-1.88,2.24-4.399,3.199-7.279,3.199c-3.759,0-6.839-1.639-6.839-5.799c0-4.68,3.479-5.719,6.999-6.359
			c3.72-0.76,6.959-0.439,6.959-3.039c0-2.999-2.479-3.439-4.6-3.439c-2.879,0-4.999,0.881-5.159,3.92h-3.399
			c0.2-5.119,4.12-6.919,8.759-6.919c3.72,0,7.759,0.84,7.759,5.679v10.639c0,1.6,0,2.319,1.08,2.319c0.319,0,0.68-0.08,1.04-0.2
			V803.528z M640.036,792.93c-2.64,1.96-10.318,0.041-10.318,5.119c0,2.24,1.92,3.04,3.999,3.04c4.479,0,6.319-2.76,6.319-4.679
			V792.93z"/>
		<path fill="#333333" d="M653.437,782.932h4.12v3h-4.12v12.838c0,1.6,0.44,1.84,2.56,1.84h1.561v2.999h-2.6
			c-3.52,0-4.92-0.72-4.92-4.519v-13.158h-3.519v-3h3.519v-6.199h3.399V782.932z"/>
		<path fill="#333333" d="M678.954,797.049c-0.92,4.6-4.159,7.039-8.838,7.039c-6.6,0-9.719-4.599-9.919-10.878
			c0-6.239,4.08-10.758,9.719-10.758c7.318,0,9.559,6.839,9.358,11.838h-15.478c-0.12,3.599,1.92,6.799,6.439,6.799
			c2.839,0,4.759-1.319,5.358-4.04H678.954z M675.675,791.291c-0.2-3.24-2.56-5.84-5.959-5.84c-3.52,0-5.719,2.64-5.919,5.84
			H675.675z"/>
	</g>
</g>
<path fill="#1365A8" d="M312.315,681.116c51.883,0,93.946,42.058,93.946,93.944c0,51.889-42.062,93.951-93.946,93.951
	c-51.888,0-93.951-42.062-93.951-93.951C218.365,723.174,260.427,681.116,312.315,681.116"/>
<g>
	<polygon fill-rule="evenodd" clip-rule="evenodd" fill="#2E2E3D" points="265.575,728.223 265.575,759.157 359.243,759.157 
		359.243,728.223 347.491,728.223 	"/>
	<rect x="265.575" y="759.157" fill-rule="evenodd" clip-rule="evenodd" fill="#FFFFFF" width="93.668" height="70.716"/>
	<rect x="265.575" y="759.157" fill-rule="evenodd" clip-rule="evenodd" fill="#E6E6E6" width="46.842" height="70.716"/>
	<path fill-rule="evenodd" clip-rule="evenodd" fill="#26262E" d="M341.205,728.223v10.255c0,1.582,1.299,2.867,2.881,2.867
		c0.169,0,0.353,0,0.522,0c1.582,0,2.882-1.285,2.882-2.867v-10.255H341.205z"/>
	<path fill-rule="evenodd" clip-rule="evenodd" fill="#26262E" d="M280.957,728.223v10.255c0,1.582,1.3,2.867,2.882,2.867
		c0.169,0,0.353,0,0.522,0c1.582,0,2.882-1.285,2.882-2.867v-10.255H280.957z"/>
	<path fill-rule="evenodd" clip-rule="evenodd" fill="#626270" d="M282.737,719.026c-0.169,0-0.353,0-0.523,0
		c-1.582,0-2.881,1.285-2.881,2.882v14.889c0,1.582,1.3,2.882,2.881,2.882c0.17,0,0.354,0,0.523,0c1.582,0,2.881-1.3,2.881-2.882
		v-14.889C285.619,720.312,284.319,719.026,282.737,719.026z"/>
	<path fill-rule="evenodd" clip-rule="evenodd" fill="#626270" d="M342.984,719.026c-0.169,0-0.353,0-0.522,0
		c-1.582,0-2.882,1.285-2.882,2.882v14.889c0,1.582,1.3,2.882,2.882,2.882c0.169,0,0.354,0,0.522,0c1.583,0,2.882-1.3,2.882-2.882
		v-14.889C345.866,720.312,344.567,719.026,342.984,719.026z"/>
	<polygon fill-rule="evenodd" clip-rule="evenodd" fill="#2E2E3D" points="265.575,728.223 265.575,759.157 359.243,759.157 
		359.243,728.223 347.491,728.223 	"/>
	<rect x="265.575" y="759.157" fill-rule="evenodd" clip-rule="evenodd" fill="#FFFFFF" width="93.668" height="70.716"/>
	<rect x="265.575" y="759.157" fill-rule="evenodd" clip-rule="evenodd" fill="#E6E6E6" width="46.842" height="70.716"/>
	<path fill-rule="evenodd" clip-rule="evenodd" fill="#26262E" d="M341.205,728.223v10.255c0,1.582,1.299,2.867,2.881,2.867
		c0.169,0,0.353,0,0.522,0c1.582,0,2.882-1.285,2.882-2.867v-10.255H341.205z"/>
	<path fill-rule="evenodd" clip-rule="evenodd" fill="#26262E" d="M280.957,728.223v10.255c0,1.582,1.3,2.867,2.882,2.867
		c0.169,0,0.353,0,0.522,0c1.582,0,2.882-1.285,2.882-2.867v-10.255H280.957z"/>
	<path fill-rule="evenodd" clip-rule="evenodd" fill="#626270" d="M282.737,719.026c-0.169,0-0.353,0-0.523,0
		c-1.582,0-2.881,1.285-2.881,2.882v14.889c0,1.582,1.3,2.882,2.881,2.882c0.17,0,0.354,0,0.523,0c1.582,0,2.881-1.3,2.881-2.882
		v-14.889C285.619,720.312,284.319,719.026,282.737,719.026z"/>
	<path fill-rule="evenodd" clip-rule="evenodd" fill="#626270" d="M342.984,719.026c-0.169,0-0.353,0-0.522,0
		c-1.582,0-2.882,1.285-2.882,2.882v14.889c0,1.582,1.3,2.882,2.882,2.882c0.169,0,0.354,0,0.522,0c1.583,0,2.882-1.3,2.882-2.882
		v-14.889C345.866,720.312,344.567,719.026,342.984,719.026z"/>
	<polygon fill-rule="evenodd" clip-rule="evenodd" fill="#26262E" points="265.575,760.542 265.575,758.649 359.243,758.649 
		359.243,760.542 347.491,760.542 	"/>
	<g>
		<path fill-rule="evenodd" clip-rule="evenodd" fill="#343B4A" d="M327.065,773.128c-3.574,0-7.134,0-10.693,0
			c0,3.56,0,7.133,0,10.693c3.559,0,7.119,0,10.693,0C327.065,780.261,327.065,776.688,327.065,773.128z"/>
		<path fill-rule="evenodd" clip-rule="evenodd" fill="#DD2622" d="M308.446,773.128c-3.56,0-7.119,0-10.693,0
			c0,3.56,0,7.133,0,10.693c3.574,0,7.133,0,10.693,0C308.446,780.261,308.446,776.688,308.446,773.128z"/>
		<rect x="334.99" y="773.128" fill-rule="evenodd" clip-rule="evenodd" fill="#DD2622" width="10.679" height="10.693"/>
		<rect x="279.149" y="789.16" fill-rule="evenodd" clip-rule="evenodd" fill="#343B4A" width="10.693" height="10.694"/>
		<path fill-rule="evenodd" clip-rule="evenodd" fill="#DD2622" d="M327.065,789.16c-3.574,0-7.134,0-10.693,0
			c0,3.561,0,7.134,0,10.694c3.559,0,7.119,0,10.693,0C327.065,796.294,327.065,792.721,327.065,789.16z"/>
		<path fill-rule="evenodd" clip-rule="evenodd" fill="#343B4A" d="M308.446,789.16c-3.56,0-7.119,0-10.693,0
			c0,3.561,0,7.134,0,10.694c3.574,0,7.133,0,10.693,0C308.446,796.294,308.446,792.721,308.446,789.16z"/>
		<rect x="334.99" y="789.16" fill-rule="evenodd" clip-rule="evenodd" fill="#343B4A" width="10.679" height="10.694"/>
		<rect x="279.149" y="805.193" fill-rule="evenodd" clip-rule="evenodd" fill="#DD2622" width="10.693" height="10.694"/>
		<path fill-rule="evenodd" clip-rule="evenodd" fill="#343B4A" d="M327.065,805.193c-3.574,0-7.134,0-10.693,0
			c0,3.574,0,7.134,0,10.694c3.559,0,7.119,0,10.693,0C327.065,812.327,327.065,808.768,327.065,805.193z"/>
		<path fill-rule="evenodd" clip-rule="evenodd" fill="#343B4A" d="M308.446,805.193c-3.56,0-7.119,0-10.693,0
			c0,3.574,0,7.134,0,10.694c3.574,0,7.133,0,10.693,0C308.446,812.327,308.446,808.768,308.446,805.193z"/>
	</g>
</g>
<line fill="none" stroke="#074164" stroke-width="2" stroke-miterlimit="10" x1="779.603" y1="272.102" x2="961.094" y2="272.102"/>
<polyline fill="none" stroke="#074164" stroke-width="2" stroke-miterlimit="10" points="779.603,771.576 961.094,771.576 
	961.094,270.602 "/>
<g>
	<g>
		
			<line fill="none" stroke="#074164" stroke-width="2" stroke-miterlimit="10" x1="749.604" y1="488.091" x2="1464.399" y2="488.091"/>
		<g>
			<polygon fill="#074164" points="1457.772,496.271 1456.408,494.806 1463.632,488.093 1456.408,481.378 1457.772,479.914 
				1466.568,488.093 			"/>
		</g>
	</g>
</g>
</svg>
