<?xml version="1.0" encoding="utf-8"?>
<!-- Generator: Adobe Illustrator 16.0.3, SVG Export Plug-In . SVG Version: 6.00 Build 0)  -->
<!DOCTYPE svg PUBLIC "-//W3C//DTD SVG 1.1//EN" "http://www.w3.org/Graphics/SVG/1.1/DTD/svg11.dtd">
<svg version="1.1" id="Layer_1" xmlns="http://www.w3.org/2000/svg" xmlns:xlink="http://www.w3.org/1999/xlink" x="0px" y="0px"
	 width="2048px" height="1000px" viewBox="0 0 2048 1000" enable-background="new 0 0 2048 1000" xml:space="preserve">
<rect fill="#B9E5FB" width="2048" height="1000"/>
<rect fill="#4EA8DE" width="1025" height="1000"/>
<rect x="1" y="710" fill="#116BB4" width="2047" height="288.9"/>
<path fill="#FFFFFF" d="M484.61,120.85c166.017,0,300.595,134.578,300.595,300.595c0,166.016-134.578,300.595-300.595,300.595
	S184.016,587.461,184.016,421.445C184.016,255.428,318.593,120.85,484.61,120.85"/>
<line fill="none" stroke="#343636" stroke-width="5" stroke-miterlimit="10" x1="1068.067" y1="53.718" x2="2025" y2="53.718"/>
<line fill="none" stroke="#343636" stroke-width="5.0032" stroke-miterlimit="10" x1="48.187" y1="51.9" x2="995" y2="51.9"/>
<g>
	<path fill="#4EA8DE" d="M253.851,263.325h14.814c8.235,0,11.363,5.199,11.363,10.535s-3.128,10.535-11.363,10.535h-7.591v11.777
		h-7.223V263.325z M261.073,278.783h5.613c3.312,0,6.349-0.736,6.349-4.922s-3.036-4.923-6.349-4.923h-5.613V278.783z"/>
	<path fill="#4EA8DE" d="M283.842,272.388h6.21v4.417h0.092c1.242-2.99,4.324-5.061,7.591-5.061c0.506,0,0.966,0.092,1.426,0.23
		v6.073c-0.598-0.138-1.564-0.23-2.346-0.23c-4.831,0-6.441,3.404-6.441,7.637v10.719h-6.533V272.388z"/>
	<path fill="#4EA8DE" d="M313.283,271.744c7.499,0,12.329,4.968,12.329,12.56c0,7.544-4.831,12.513-12.329,12.513
		c-7.453,0-12.284-4.969-12.284-12.513C301,276.712,305.83,271.744,313.283,271.744z M313.283,291.895
		c4.462,0,5.796-3.772,5.796-7.591c0-3.819-1.334-7.637-5.796-7.637c-4.417,0-5.751,3.818-5.751,7.637
		C307.532,288.122,308.867,291.895,313.283,291.895z"/>
	<path fill="#4EA8DE" d="M330.025,272.388h6.165v3.22h0.092c1.703-2.438,4.141-3.864,7.269-3.864c2.99,0,5.659,1.058,6.947,3.957
		c1.426-2.07,3.864-3.957,7.177-3.957c5.061,0,8.695,2.346,8.695,8.511v15.918h-6.533v-13.479c0-3.174-0.276-5.797-4.002-5.797
		c-3.68,0-4.37,3.083-4.37,6.027v13.25h-6.533v-13.341c0-2.761,0.184-5.935-3.957-5.935c-1.288,0-4.417,0.828-4.417,5.475v13.802
		h-6.533V272.388z"/>
	<path fill="#4EA8DE" d="M383.064,271.744c7.499,0,12.329,4.968,12.329,12.56c0,7.544-4.831,12.513-12.329,12.513
		c-7.453,0-12.284-4.969-12.284-12.513C370.781,276.712,375.611,271.744,383.064,271.744z M383.064,291.895
		c4.462,0,5.796-3.772,5.796-7.591c0-3.819-1.334-7.637-5.796-7.637c-4.417,0-5.751,3.818-5.751,7.637
		C377.313,288.122,378.648,291.895,383.064,291.895z"/>
	<path fill="#4EA8DE" d="M407.903,272.388h4.785v4.371h-4.785v11.777c0,2.208,0.552,2.76,2.76,2.76c0.736,0,1.426-0.046,2.024-0.184
		v5.106c-1.104,0.184-2.53,0.23-3.818,0.23c-4.048,0-7.499-0.874-7.499-5.659v-14.031h-3.957v-4.371h3.957v-7.131h6.533V272.388z"/>
	<path fill="#4EA8DE" d="M422.531,268.708h-6.533v-5.382h6.533V268.708z M415.998,272.388h6.533v23.785h-6.533V272.388z"/>
	<path fill="#4EA8DE" d="M439.229,271.744c7.499,0,12.329,4.968,12.329,12.56c0,7.544-4.831,12.513-12.329,12.513
		c-7.453,0-12.284-4.969-12.284-12.513C426.945,276.712,431.776,271.744,439.229,271.744z M439.229,291.895
		c4.462,0,5.796-3.772,5.796-7.591c0-3.819-1.334-7.637-5.796-7.637c-4.417,0-5.751,3.818-5.751,7.637
		C433.478,288.122,434.812,291.895,439.229,291.895z"/>
	<path fill="#4EA8DE" d="M455.787,272.388h6.21v3.312h0.138c1.656-2.714,4.508-3.957,7.269-3.957c6.947,0,8.695,3.91,8.695,9.799
		v14.63h-6.533v-13.434c0-3.91-1.104-5.843-4.187-5.843c-3.542,0-5.061,1.979-5.061,6.809v12.467h-6.533V272.388z"/>
	<path fill="#4EA8DE" d="M482.789,279.703c0.368-6.073,5.842-7.959,11.179-7.959c4.738,0,10.443,1.058,10.443,6.763v12.375
		c0,2.162,0.23,4.324,0.828,5.291h-6.625c-0.23-0.736-0.414-1.518-0.46-2.3c-2.07,2.162-5.061,2.944-8.005,2.944
		c-4.554,0-8.097-2.254-8.097-7.131c0.092-10.811,16.102-5.015,15.826-10.351c0-2.76-1.932-3.22-4.232-3.22
		c-2.53,0-4.094,1.012-4.324,3.588H482.789z M497.878,284.534c-1.104,0.966-3.404,1.012-5.429,1.38
		c-2.024,0.368-3.864,1.104-3.864,3.497c0,2.392,1.886,3.036,4.002,3.036c5.106,0,5.291-4.002,5.291-5.475V284.534z"/>
	<path fill="#4EA8DE" d="M509.652,263.325h6.533v32.848h-6.533V263.325z"/>
	<path fill="#4EA8DE" d="M534.813,263.325h10.167l7.683,22.588h0.092l7.269-22.588h10.167v32.848h-6.763v-23.279h-0.092
		l-8.051,23.279h-5.566l-8.051-23.049h-0.092v23.049h-6.763V263.325z"/>
	<path fill="#4EA8DE" d="M575.569,279.703c0.368-6.073,5.843-7.959,11.18-7.959c4.738,0,10.443,1.058,10.443,6.763v12.375
		c0,2.162,0.23,4.324,0.828,5.291h-6.625c-0.23-0.736-0.414-1.518-0.46-2.3c-2.07,2.162-5.061,2.944-8.005,2.944
		c-4.555,0-8.097-2.254-8.097-7.131c0.092-10.811,16.102-5.015,15.826-10.351c0-2.76-1.932-3.22-4.232-3.22
		c-2.53,0-4.094,1.012-4.324,3.588H575.569z M590.659,284.534c-1.104,0.966-3.404,1.012-5.429,1.38
		c-2.024,0.368-3.864,1.104-3.864,3.497c0,2.392,1.886,3.036,4.002,3.036c5.106,0,5.291-4.002,5.291-5.475V284.534z"/>
	<path fill="#4EA8DE" d="M610.529,272.388h4.785v4.371h-4.785v11.777c0,2.208,0.552,2.76,2.76,2.76c0.736,0,1.426-0.046,2.024-0.184
		v5.106c-1.104,0.184-2.53,0.23-3.818,0.23c-4.048,0-7.499-0.874-7.499-5.659v-14.031h-3.957v-4.371h3.957v-7.131h6.533V272.388z"/>
	<path fill="#4EA8DE" d="M623.822,285.868c0.184,4.187,2.163,6.027,5.843,6.027c2.623,0,4.739-1.61,5.153-3.083h5.75
		c-1.84,5.659-5.75,8.005-11.133,8.005c-7.499,0-12.146-5.152-12.146-12.513c0-7.131,4.923-12.56,12.146-12.56
		c8.097,0,12.053,6.809,11.547,14.124H623.822z M634.45,281.727c-0.598-3.312-2.024-5.061-5.199-5.061
		c-4.232,0-5.291,3.221-5.429,5.061H634.45z"/>
	<path fill="#4EA8DE" d="M644.843,272.388h6.21v4.417h0.092c1.242-2.99,4.324-5.061,7.591-5.061c0.506,0,0.966,0.092,1.426,0.23
		v6.073c-0.598-0.138-1.564-0.23-2.346-0.23c-4.831,0-6.441,3.404-6.441,7.637v10.719h-6.533V272.388z"/>
	<path fill="#4EA8DE" d="M669.454,268.708h-6.533v-5.382h6.533V268.708z M662.921,272.388h6.533v23.785h-6.533V272.388z"/>
	<path fill="#4EA8DE" d="M674.329,279.703c0.368-6.073,5.842-7.959,11.179-7.959c4.738,0,10.443,1.058,10.443,6.763v12.375
		c0,2.162,0.23,4.324,0.828,5.291h-6.625c-0.23-0.736-0.414-1.518-0.46-2.3c-2.07,2.162-5.061,2.944-8.005,2.944
		c-4.554,0-8.097-2.254-8.097-7.131c0.092-10.811,16.102-5.015,15.826-10.351c0-2.76-1.932-3.22-4.232-3.22
		c-2.53,0-4.094,1.012-4.324,3.588H674.329z M689.418,284.534c-1.104,0.966-3.404,1.012-5.429,1.38
		c-2.024,0.368-3.864,1.104-3.864,3.497c0,2.392,1.886,3.036,4.002,3.036c5.106,0,5.291-4.002,5.291-5.475V284.534z"/>
	<path fill="#4EA8DE" d="M701.192,263.325h6.533v32.848h-6.533V263.325z"/>
</g>
<g>
	<g>
		<path fill="#231F20" d="M1301.053,255.825h5.75v27.879h16.699v4.969h-22.449V255.825z"/>
		<path fill="#231F20" d="M1346.64,283.382c0,1.288,0.276,1.794,1.242,1.794h0.552c0.23,0,0.461-0.046,0.736-0.092v3.634
			c-0.782,0.276-2.438,0.598-3.312,0.598c-2.162,0-3.635-0.736-4.049-2.898c-2.07,2.024-5.428,2.898-8.234,2.898
			c-4.279,0-8.143-2.3-8.143-6.947c0-5.935,4.738-6.901,9.154-7.407c3.818-0.736,7.131-0.23,7.131-3.358
			c0-2.76-2.852-3.22-4.922-3.22c-2.945,0-5.016,1.196-5.245,3.772h-5.245c0.369-6.119,5.521-7.913,10.812-7.913
			c4.646,0,9.522,1.886,9.522,6.901V283.382z M1341.395,276.757c-1.609,1.058-4.094,1.012-6.44,1.426
			c-2.254,0.368-4.278,1.196-4.278,3.957c0,2.392,2.99,3.036,4.83,3.036c2.301,0,5.889-1.196,5.889-4.508V276.757z"/>
		<path fill="#231F20" d="M1352.434,255.825h5.244v12.146h0.092c1.473-2.3,4.371-3.727,7.086-3.727
			c7.498,0,11.133,5.659,11.133,12.651c0,6.441-3.267,12.421-10.26,12.421c-3.22,0-6.67-0.782-8.234-3.911h-0.092v3.267h-4.969
			V255.825z M1364.165,268.385c-4.417,0-6.671,3.312-6.671,8.419c0,4.784,2.438,8.373,6.671,8.373c4.784,0,6.579-4.232,6.579-8.373
			C1370.744,272.525,1368.489,268.385,1364.165,268.385z"/>
		<path fill="#231F20" d="M1384.496,278.138c0,3.727,2.023,7.039,6.395,7.039c3.082,0,4.876-1.334,5.797-3.956h4.968
			c-1.104,5.198-5.612,8.097-10.765,8.097c-7.5,0-11.64-5.152-11.64-12.513c0-6.763,4.417-12.56,11.501-12.56
			c7.499,0,12.1,6.763,11.226,13.894H1384.496z M1396.732,274.688c-0.229-3.312-2.393-6.303-5.98-6.303
			c-3.635,0-6.119,2.76-6.256,6.303H1396.732z"/>
		<path fill="#231F20" d="M1406.115,255.825h5.244v32.848h-5.244V255.825z"/>
		<path fill="#231F20" d="M1449.771,283.382c0,1.288,0.275,1.794,1.242,1.794h0.552c0.229,0,0.46-0.046,0.736-0.092v3.634
			c-0.782,0.276-2.438,0.598-3.312,0.598c-2.162,0-3.634-0.736-4.048-2.898c-2.07,2.024-5.43,2.898-8.235,2.898
			c-4.278,0-8.144-2.3-8.144-6.947c0-5.935,4.739-6.901,9.156-7.407c3.818-0.736,7.13-0.23,7.13-3.358c0-2.76-2.853-3.22-4.923-3.22
			c-2.943,0-5.014,1.196-5.244,3.772h-5.244c0.367-6.119,5.52-7.913,10.811-7.913c4.646,0,9.523,1.886,9.523,6.901V283.382z
			 M1444.527,276.757c-1.611,1.058-4.096,1.012-6.441,1.426c-2.254,0.368-4.278,1.196-4.278,3.957c0,2.392,2.99,3.036,4.831,3.036
			c2.3,0,5.889-1.196,5.889-4.508V276.757z"/>
		<path fill="#231F20" d="M1455.428,264.888h4.969v3.497l0.092,0.092c1.609-2.622,4.278-4.232,7.406-4.232
			c5.199,0,8.419,2.714,8.419,8.097v16.332h-5.244v-14.952c-0.138-3.727-1.519-5.336-4.647-5.336c-3.496,0-5.75,2.76-5.75,6.256
			v14.032h-5.244V264.888z"/>
		<path fill="#231F20" d="M1504.235,288.673h-4.969v-3.22h-0.092c-1.427,2.76-4.37,3.864-7.36,3.864
			c-7.5,0-11.134-5.566-11.134-12.697c0-8.649,5.106-12.375,10.306-12.375c2.943,0,6.303,1.104,7.912,3.727h0.092v-12.146h5.245
			V288.673z M1492.504,285.176c4.646,0,6.671-4.278,6.671-8.419c0-5.291-2.53-8.373-6.579-8.373c-4.922,0-6.67,4.417-6.67,8.649
			C1485.926,281.128,1487.949,285.176,1492.504,285.176z"/>
		<path fill="#231F20" d="M1522.862,255.825h5.245v32.848h-5.245V255.825z"/>
		<path fill="#231F20" d="M1553.73,283.382c0,1.288,0.275,1.794,1.242,1.794h0.552c0.229,0,0.46-0.046,0.736-0.092v3.634
			c-0.782,0.276-2.438,0.598-3.312,0.598c-2.162,0-3.634-0.736-4.048-2.898c-2.07,2.024-5.43,2.898-8.235,2.898
			c-4.278,0-8.144-2.3-8.144-6.947c0-5.935,4.739-6.901,9.156-7.407c3.818-0.736,7.13-0.23,7.13-3.358c0-2.76-2.853-3.22-4.923-3.22
			c-2.943,0-5.014,1.196-5.244,3.772h-5.244c0.367-6.119,5.52-7.913,10.811-7.913c4.646,0,9.523,1.886,9.523,6.901V283.382z
			 M1548.486,276.757c-1.611,1.058-4.096,1.012-6.441,1.426c-2.254,0.368-4.278,1.196-4.278,3.957c0,2.392,2.99,3.036,4.831,3.036
			c2.3,0,5.889-1.196,5.889-4.508V276.757z"/>
		<path fill="#231F20" d="M1559.524,255.825h5.245v12.146h0.092c1.472-2.3,4.37-3.727,7.084-3.727
			c7.499,0,11.134,5.659,11.134,12.651c0,6.441-3.267,12.421-10.259,12.421c-3.221,0-6.672-0.782-8.235-3.911h-0.093v3.267h-4.968
			V255.825z M1571.256,268.385c-4.416,0-6.671,3.312-6.671,8.419c0,4.784,2.438,8.373,6.671,8.373c4.784,0,6.578-4.232,6.578-8.373
			C1577.834,272.525,1575.58,268.385,1571.256,268.385z"/>
		<path fill="#231F20" d="M1591.586,278.138c0,3.727,2.024,7.039,6.395,7.039c3.083,0,4.877-1.334,5.797-3.956h4.969
			c-1.104,5.198-5.612,8.097-10.766,8.097c-7.498,0-11.639-5.152-11.639-12.513c0-6.763,4.416-12.56,11.501-12.56
			c7.499,0,12.1,6.763,11.226,13.894H1591.586z M1603.824,274.688c-0.23-3.312-2.393-6.303-5.981-6.303
			c-3.634,0-6.118,2.76-6.257,6.303H1603.824z"/>
		<path fill="#231F20" d="M1613.206,255.825h5.245v32.848h-5.245V255.825z"/>
		<path fill="#231F20" d="M1624.292,255.825h5.245v4.968h-5.245V255.825z M1624.292,264.888h5.245v23.785h-5.245V264.888z"/>
		<path fill="#231F20" d="M1635.24,264.888h4.969v3.497l0.092,0.092c1.609-2.622,4.278-4.232,7.406-4.232
			c5.199,0,8.419,2.714,8.419,8.097v16.332h-5.244v-14.952c-0.138-3.727-1.519-5.336-4.647-5.336c-3.496,0-5.75,2.76-5.75,6.256
			v14.032h-5.244V264.888z"/>
		<path fill="#231F20" d="M1683.634,287.431c0,7.177-4.141,10.673-11.686,10.673c-4.784,0-10.121-1.84-10.627-7.407h5.245
			c0.644,2.99,3.035,3.496,5.704,3.496c4.232,0,6.118-2.162,6.118-6.073v-3.634h-0.092c-1.473,2.623-4.187,4.187-7.131,4.187
			c-7.545,0-10.673-5.705-10.673-12.514c0-6.395,4.003-11.915,10.765-11.915c2.99,0,5.705,1.196,7.039,3.91h0.092v-3.266h5.245
			V287.431z M1678.389,276.251c0-4.095-1.84-7.867-6.395-7.867c-4.646,0-6.256,4.324-6.256,8.281c0,3.864,1.886,7.867,6.256,7.867
			C1676.641,284.532,1678.389,280.346,1678.389,276.251z"/>
	</g>
</g>
<g>
	<path fill="#2C5871" d="M667.272,565.189c0,7.282-5.492,13.163-12.281,13.163h-23.804v49.393l-58.343-49.393H420.905
		c-6.795,0-12.288-5.881-12.288-13.163V415.722c0-7.284,5.493-13.172,12.288-13.172h234.085c6.789,0,12.281,5.888,12.281,13.172
		V565.189z"/>
	<path fill="#E6E6E6" d="M304.84,518.074c0,7.276,5.492,13.167,12.281,13.167h23.804v49.392l58.336-49.392h151.945
		c6.796,0,12.298-5.891,12.298-13.167V368.601c0-7.275-5.502-13.164-12.298-13.164H317.122c-6.789,0-12.281,5.889-12.281,13.164
		V518.074z"/>
	<rect x="343.584" y="403.47" fill="#15B0BF" width="181.167" height="11.302"/>
	<rect x="343.584" y="439.275" fill="#15B0BF" width="181.167" height="11.308"/>
	<rect x="343.584" y="475.081" fill="#15B0BF" width="141.026" height="11.306"/>
</g>
<g>
	<path fill-rule="evenodd" clip-rule="evenodd" fill="#2C3E50" d="M1517.133,480.163c-36.009,35.982-84.979-21.23-53.103-53.103
		c2.775-2.778,7.288-2.778,10.035,0l1.882,1.878l35.288-35.287l16.6-16.6l-1.878-1.882c-2.747-2.779-2.747-7.261,0-10.036
		c32.075-32.078,88.91,17.268,53.103,53.076c-2.774,2.775-7.288,2.775-10.066,0l0.987,1.008l-11.862,11.832l-40,40.03l-0.927-0.896
		C1519.881,472.96,1519.854,477.384,1517.133,480.163z"/>
	<path fill-rule="evenodd" clip-rule="evenodd" fill="#3D566E" d="M1459.083,470.791c-7.605-13.42-8.099-30.688,4.947-43.731
		c2.775-2.778,7.288-2.778,10.035,0l1.882,1.878l35.288-35.287l16.6-16.6l-1.878-1.882c-2.747-2.779-2.747-7.261,0-10.036
		c13.131-13.103,30.399-12.611,43.763-4.947L1459.083,470.791z"/>
	<path fill-rule="evenodd" clip-rule="evenodd" fill="#2C3E50" d="M1553.578,440.828c10.325,9.514,81.883,78.526,102.506,101.839
		c16.545,18.716,3.384,30.054-13.363,15.793c-22.849-19.521-93.539-93.338-102.996-103.779L1553.578,440.828z"/>
	<path fill-rule="evenodd" clip-rule="evenodd" fill="#F39C12" d="M1430.912,516.23h120.268c7.462,0,13.62,5.323,14.198,12.234
		l1.128,14.086h-150.777l0.981-13.97C1417.23,521.612,1423.419,516.23,1430.912,516.23z"/>
	<path fill-rule="evenodd" clip-rule="evenodd" fill="#2C3E50" d="M1430.912,516.23h120.268c7.462,0,13.62,5.323,14.198,12.234
		v0.116H1416.71C1417.23,521.612,1423.419,516.23,1430.912,516.23z"/>
	<path fill-rule="evenodd" clip-rule="evenodd" fill="#3D566E" d="M1430.912,516.23h120.268c5.203,0,9.774,2.577,12.262,6.507
		h-144.795C1421.134,518.808,1425.704,516.23,1430.912,516.23z"/>
	<polygon fill-rule="evenodd" clip-rule="evenodd" fill="#F39C12" points="1565.149,429.257 1528.185,466.22 1478.346,416.412 
		1515.34,379.449 	"/>
	<polygon fill-rule="evenodd" clip-rule="evenodd" fill="#FACC4D" points="1532.898,397.006 1495.904,433.971 1478.376,416.412 
		1515.34,379.449 	"/>
	<path fill-rule="evenodd" clip-rule="evenodd" fill="#2C3E50" d="M1579.262,564.272l-0.779-18.451
		c-0.319-7.059-6.132-12.669-13.217-12.669h-148.237c-7.086,0-12.93,5.61-13.22,12.669l-0.808,18.451H1579.262z"/>
	<path fill-rule="evenodd" clip-rule="evenodd" fill="#3D566E" d="M1576.657,539.688c-2.312-3.932-6.565-6.535-11.392-6.535
		h-148.237c-4.831,0-9.083,2.604-11.396,6.535H1576.657z"/>
	<polygon fill-rule="evenodd" clip-rule="evenodd" fill="#F39C12" points="1520.347,468.855 1518.118,471.079 1475.947,428.938 
		1478.174,426.711 	"/>
	
		<rect x="1546.219" y="369.439" transform="matrix(0.7072 -0.707 0.707 0.7072 170.9391 1211.2418)" fill-rule="evenodd" clip-rule="evenodd" fill="#F39C12" width="3.151" height="59.617"/>
</g>
</svg>
