<?xml version="1.0" encoding="utf-8"?>
<!-- Generator: Adobe Illustrator 19.2.0, SVG Export Plug-In . SVG Version: 6.00 Build 0)  -->
<svg version="1.1" id="Layer_1" xmlns="http://www.w3.org/2000/svg" xmlns:xlink="http://www.w3.org/1999/xlink" x="0px" y="0px"
	 viewBox="0 0 290.5 241" style="enable-background:new 0 0 290.5 241;" xml:space="preserve">
<style type="text/css">
	.st0{fill:#39B54A;}
	.st1{opacity:0.2;fill:#F1F2F2;enable-background:new    ;}
	.st2{fill:#FFFFFF;}
</style>
<path class="st0" d="M168,1C120.5,1,79.7,29.1,61.1,69.6L0,66.1L52.2,98c-1.2,6.7-1.8,13.5-1.8,20.6c0,65,52.7,117.6,117.6,117.6
	s117.6-52.7,117.6-117.6S233,1,168,1z"/>
<circle class="st1" cx="166.8" cy="190.1" r="34"/>
<g>
	<path class="st2" d="M187.9,181.2l-4.7-4.7c-0.5-0.5-1.6-0.5-2.1,0l-19.9,19.9l-8.5-8.5c-0.5-0.5-1.6-0.5-2.1,0l-4.7,4.7
		c-0.5,0.5-0.5,1.6,0,2.1l14.3,14.3c0.3,0.3,0.7,0.3,1,0.3c0.3,0,0.7-0.2,1-0.3l25.8-25.8c0.3-0.3,0.3-0.7,0.3-1
		C188.2,181.9,188.1,181.4,187.9,181.2z"/>
</g>
</svg>
