<?xml version="1.0" encoding="utf-8"?>
<!-- Generator: Adobe Illustrator 19.2.0, SVG Export Plug-In . SVG Version: 6.00 Build 0)  -->
<svg version="1.1" id="Layer_1" xmlns="http://www.w3.org/2000/svg" xmlns:xlink="http://www.w3.org/1999/xlink" x="0px" y="0px"
	 viewBox="0 0 2048 1000" style="enable-background:new 0 0 2048 1000;" xml:space="preserve">
<style type="text/css">
	.st0{fill:#B9E5FB;}
	.st1{fill:#4EA8DE;}
	.st2{fill:#FFFFFF;}
	.st3{fill:#2C5871;}
	.st4{fill:#D1ECFB;}
	.st5{clip-path:url(#SVGID_2_);fill:#A6DAE9;}
	.st6{fill:#1695A4;}
	.st7{fill:#15B0BF;}
	.st8{fill:#0E303F;}
	.st9{fill:#89C240;}
	.st10{fill:#EFEFF0;}
	.st11{fill:#2C3E50;}
	.st12{fill:#E3CCA4;}
	.st13{fill:#D4C5A3;}
	.st14{fill:#CCBC97;}
	.st15{fill:#ECF0F1;}
	.st16{fill:#7D7662;}
	.st17{fill:#FFE7BD;}
	.st18{fill:#E8D6AC;}
	.st19{fill:none;}
	.st20{fill:#8CC63F;}
	.st21{fill:#173E68;}
	.st22{fill:#333333;}
	.st23{font-family:'HelveticaNeueLTPro-Bd';}
	.st24{font-size:38.1848px;}
	.st25{font-family:'HelveticaNeueLTPro-Roman';}
	.st26{font-size:36px;}
	.st27{fill:#DAE1E6;}
	.st28{fill:#B3B3B3;}
</style>
<rect x="1" class="st0" width="2048" height="1000"/>
<rect x="-1.6" y="642.8" class="st1" width="2049.6" height="356.2"/>
<polygon class="st2" points="2369.6,1106.1 2369.6,936.6 2369.6,851.7 2430.4,790.8 2600.3,790.8 2600.3,853.7 2600.3,936.6 
	2600.3,1106.1 "/>
<polygon class="st3" points="2430.4,851.7 2369.6,851.7 2430.4,790.8 "/>
<polygon class="st4" points="2369.6,851.7 2430.4,851.7 2369.6,912.5 "/>
<g>
	<g>
		<g>
			<defs>
				<polygon id="SVGID_1_" points="2431.8,787.6 2370.9,848.5 2370.9,933.4 2370.9,1102.9 2601.6,1102.9 2601.6,933.4 2601.6,850.5 
					2601.6,787.6 				"/>
			</defs>
			<clipPath id="SVGID_2_">
				<use xlink:href="#SVGID_1_"  style="overflow:visible;"/>
			</clipPath>
			<path class="st5" d="M2646,901.4l-37.4-37.4l-15.7-15.7l-151,151c0,0,0,0-0.1,0l-0.1,69.1l69.1-0.1l0,0l151-151L2646,901.4z"/>
		</g>
	</g>
</g>
<path class="st6" d="M2583.3,838.4l-151,151c9.3,7.2,20.9,8.5,28.5,2.9L2599,854.1L2583.3,838.4z"/>
<path class="st7" d="M2636.5,891.5l-37.4-37.4l-138.2,138.2l0,0c-0.1,0.1-0.1,0.2-0.1,0.2c0.1-0.1,0.1-0.1,0.2-0.2
	c-6.2,8.5-4,22.1,5.6,31.7c9.6,9.6,23.2,11.8,31.7,5.6c0,0.1-0.1,0.1-0.2,0.2c0.1,0,0.2-0.1,0.2-0.1l0,0L2636.5,891.5z"/>
<path class="st6" d="M2498.3,1029.7c-5.5,7.6-4.3,19.3,2.9,28.6l151-151l-15.7-15.7L2498.3,1029.7z"/>
<path class="st4" d="M2501.3,1058.3c-7.3-9.3-8.5-21-3-28.6l0,0c-0.1,0.1-0.1,0.1-0.2,0.1c0.1-0.1,0.1-0.1,0.2-0.2
	c-8.5,6.2-22,4-31.7-5.6c-9.6-9.6-11.8-23.2-5.6-31.7c0,0.1-0.1,0.1-0.2,0.2c0.1-0.1,0.1-0.2,0.1-0.2l0,0
	c-7.6,5.6-19.3,4.3-28.6-2.9l-0.1,69.1L2501.3,1058.3z"/>
<path class="st6" d="M2432.2,1024.5v33.9h33.9c-4.4-6.5-9.5-12.7-15.3-18.5C2445,1034,2438.7,1028.9,2432.2,1024.5"/>
<polygon class="st8" points="2583.6,838.2 2599.3,853.9 2615.6,837.5 2599.9,821.8 "/>
<rect x="2614.6" y="837.8" transform="matrix(0.707 -0.7072 0.7072 0.707 158.2277 2110.5151)" class="st3" width="23.2" height="53"/>
<polygon class="st8" points="2636.7,891.3 2652.5,907.1 2668.8,890.7 2653.1,875 "/>
<path class="st2" d="M967.6,716.9H88.8c-9.2,0-16.7-8.1-16.7-17.9V262.2c0-9.9,7.5-17.9,16.7-17.9h878.8c9.2,0,16.7,8.1,16.7,17.9
	V699C984.3,708.9,976.8,716.9,967.6,716.9"/>
<path class="st9" d="M322.7,536.5H151.2c-9.9,0-17.9-8.1-17.9-17.9V325.3c0-9.9,8.1-17.9,17.9-17.9h171.5c9.9,0,17.9,8.1,17.9,17.9
	v193.3C340.6,528.5,332.6,536.5,322.7,536.5"/>
<path class="st10" d="M970,244.3H430.9v472.6H970c7.9,0,14.3-7.2,14.3-15.9V260.2C984.3,251.5,977.9,244.3,970,244.3"/>
<path class="st11" d="M210.7,440.3h10.8c1.8,0,3.4,1.3,3.9,2.9c10.6-1.8,18.5-6.6,24.4-13.4c5-5.7,8.2-12.9,10.4-20.8l-2.3-0.2
	l2-26.3l0.2-3.4l9,0.5l-0.4,5l3,0.2l-1.4,19.9l-3-0.2l-0.4,5l-3.4-0.2c-2.2,8.4-5.7,16.3-11.1,22.6c-6.3,7.3-15.1,12.7-26.5,14.5
	c0,2.3-2,4.3-4.3,4.3h-10.8c-2.3,0-4.3-2-4.3-4.3v-1.8C206.4,442.1,208.4,440.3,210.7,440.3"/>
<path class="st12" d="M212.7,410.6h46.8l5,58.1c0.4,4.1,3.6,7.2,7.5,7.2h0.9l-12.2,11.5l-24,34.9l-23.8-35.7l-12.5-10.8l1.8-0.4
	c3.6-0.5,6.3-3.6,6.6-7.3L212.7,410.6z"/>
<path class="st13" d="M236.7,522.4L236.7,522.4l-23.8-35.7L200.3,476l1.8-0.4c3.6-0.5,6.3-3.6,6.6-7.3l3.4-46.4h24.7v100.5H236.7z"
	/>
<path class="st14" d="M209.8,451.4l53.2,0.2l0.2,2.5c-0.9,1.4-1.4,2.3-2.3,3.8c-6.8,10.2-15.8,17-24.4,17s-17.6-7-24.4-17
	c-1.1-1.6-1.8-2.7-2.7-4.3L209.8,451.4z"/>
<path class="st15" d="M193.5,476.1l12.4-2.3l12.4,5c2.1,0.9,3.6,2.3,4.5,4.5l14,30.6l14-32.1c0.9-2,2.5-3.2,4.5-4.1l11.6-4.3
	l10.8,2.3l7.9,2.3l13.4,76.7H174.7l11.6-75.8L193.5,476.1z"/>
<path class="st11" d="M312.3,541.2c0.2-27.8-1.8-57.2-34.2-65.2c2.7,5.2,0.7,9.7,5.9,24.4l-24.5-13.6c-7.7,18.6-15.6,37.4-23.3,56.1
	l-23.3-56.1l-24.5,13.6c5.2-14.3,3.4-19.2,5.7-24.2c-31.2,8.6-33.1,37.6-33,64.9c0,7.5,6.1,13.8,13.4,13.8h124.2
	C306.2,554.8,312.3,548.7,312.3,541.2"/>
<path class="st16" d="M200.7,449.3c-52.7-85.5,29.6-117.7,32.8-105.9c0.9,3,1.1,1.6,3,0.2c25.1-17.7,79.9,39.1,35.8,106.2
	c-2.9,0.7-6.3,1.4-10,2l-0.2,0.4c3.2-4.5,6.1-9.7,8.2-15.6c1.1-3.4,2.2-7.2,3-10.8c0.9-3.8,1.4-7.5,2-11.1c0.2-1.6,0.2-3,0.4-4.7
	c0-1.4,0.2-3,0.2-4.8v-3c0-0.9,0-1.8-0.2-2.9c-0.9-8.1-11.8-9.9-23.6-11.8c-13.8-2.3-28.5-4.7-34.4-17h-0.2
	c-5.9,5-16.8,14.5-19.2,32.1c-0.2,1.6-0.4,3.2-0.4,4.8v5.2c1.3,15.4,5.9,29,12.9,38.9C207,450.9,203.6,450.2,200.7,449.3"/>
<path class="st17" d="M270.4,436.5c1.1-3.4,2.2-7.2,3-10.8c0.9-3.8,1.4-7.5,2-11.1c0.2-1.6,0.2-3,0.4-4.7c0-1.4,0.2-3,0.2-4.8v-3
	c0-0.9,0-1.8-0.2-2.9c-0.9-8.1-11.8-9.9-23.6-11.8c-13.8-2.3-28.5-4.7-34.4-17h-0.2c-5.9,5-17,14.5-19.2,32.1
	c-0.2,1.6-0.4,3.2-0.4,4.8v5.2c1.3,15.6,6.1,29.6,13.3,39.4c6.8,9.3,15.8,15,25.4,15c6.8,0,13.3-2.9,19-7.9
	C261.8,453.7,266.8,446,270.4,436.5"/>
<path class="st18" d="M236.7,384.4c-8.2-2.3-15.4-6.3-19-14h-0.2c-5.9,5-16.8,14.5-19.2,32.1c-0.2,1.6-0.4,3.2-0.4,4.8v5.2
	c1.3,15.6,6.1,29.6,13.3,39.2c6.8,9.3,15.8,15,25.4,15L236.7,384.4L236.7,384.4z"/>
<path class="st19" d="M151.2,307.4c-9.9,0-17.9,8.1-17.9,17.9v193.3c0,9.9,8.1,17.9,17.9,17.9h171.5c9.9,0,17.9-8.1,17.9-17.9V325.3
	c0-9.9-8.1-17.9-17.9-17.9H151.2L151.2,307.4z"/>
<rect x="115.6" y="643.1" class="st20" width="2.2" height="22.9"/>
<path class="st20" d="M122,643.1h9.7c3.8,0,7.3,1.3,7.3,5.6c0,2.3-1.6,4.7-3.9,5.2c3,0.4,4.8,2.7,4.8,5.6c0,2.2-0.7,6.5-8.2,6.5H122
	V643.1L122,643.1z M124.2,653.2h7.5c3.4,0,5.2-1.8,5.2-3.9c0-2.9-1.8-4.3-5.2-4.3h-7.5V653.2z M124.2,664.1h7.5
	c3.2,0,6.1-1.1,6.1-4.7c0-3-2.1-4.5-6.1-4.5h-7.5V664.1z"/>
<polygon class="st20" points="143.5,643.1 146.8,643.1 154.6,663.2 162.5,643.1 165.7,643.1 165.7,666.1 163.6,666.1 163.6,646.2 
	155.7,666.1 153.6,666.1 145.7,646.2 145.7,666.1 143.5,666.1 "/>
<polygon class="st21" points="196.6,665.9 191.5,665.9 187.6,650.3 183.8,665.9 178.6,665.9 172.6,642.9 177.6,642.9 181.2,658.5 
	185.1,642.9 189.8,642.9 193.7,658.7 197.5,642.9 202.5,642.9 "/>
<path class="st21" d="M203.2,654.2c0.4-4.3,4.1-5.6,7.9-5.6c3.2,0,7.3,0.7,7.3,4.7v8.6c0,1.4,0.2,3,0.5,3.8h-4.7
	c-0.2-0.5-0.4-1.1-0.4-1.6c-1.4,1.4-3.6,2.2-5.6,2.2c-3.2,0-5.6-1.6-5.6-5c0-7.5,11.3-3.6,11.1-7.2c0-2-1.3-2.2-3-2.2
	s-2.9,0.7-3,2.5H203L203.2,654.2L203.2,654.2z M213.8,657.6c-0.7,0.7-2.3,0.7-3.8,0.9c-1.4,0.4-2.7,0.7-2.7,2.5s1.3,2.1,2.9,2.1
	c3.6,0,3.8-2.9,3.8-3.8v-1.8L213.8,657.6L213.8,657.6z"/>
<path class="st21" d="M227.6,649.2h3.4v3h-3.4v8.2c0,1.6,0.4,2,2,2c0.5,0,1.1,0,1.4-0.2v3.6c-0.7,0.2-1.8,0.2-2.7,0.2
	c-2.9,0-5.2-0.5-5.2-3.9v-9.9h-2.9v-3h2.9v-5h4.7L227.6,649.2z"/>
<path class="st21" d="M236.7,660.3c0,2,1.8,2.9,3.6,2.9c1.3,0,3-0.5,3-2.1c0-1.4-2-2-5.2-2.5c-2.7-0.5-5.4-1.4-5.4-4.5
	c0-4.3,3.8-5.4,7.2-5.4c3.6,0,7,1.3,7.3,5.4H243c-0.2-1.8-1.4-2.2-3-2.2c-1.1,0-2.5,0.2-2.5,1.6c0,1.6,2.7,1.8,5.2,2.5
	c2.7,0.5,5.4,1.6,5.4,4.7c0,4.3-3.8,5.7-7.5,5.7c-3.8,0-7.7-1.4-7.9-5.9L236.7,660.3z"/>
<path class="st21" d="M258.2,648.7c5.2,0,8.6,3.4,8.6,8.8c0,5.4-3.4,8.8-8.6,8.8c-5.2,0-8.6-3.4-8.6-8.8
	C249.6,652.3,252.8,648.7,258.2,648.7 M258.2,662.8c3,0,4.1-2.7,4.1-5.4s-0.9-5.4-4.1-5.4c-3,0-3.9,2.7-3.9,5.4
	S255,662.8,258.2,662.8"/>
<path class="st21" d="M268.9,649.2h4.3v2.3h0.2c1.3-2,3-2.9,5-2.9c4.8,0,6.1,2.7,6.1,6.8v10.2h-4.7v-9.3c0-2.7-0.7-4.1-2.9-4.1
	c-2.5,0-3.6,1.4-3.6,4.7v8.8h-4.7L268.9,649.2z"/>
<polygon class="st21" points="293.7,642.8 298.7,642.8 298.7,651.5 308,651.5 308,642.8 313,642.8 313,665.7 308,665.7 308,655.8 
	298.7,655.8 298.7,665.7 293.7,665.7 "/>
<path class="st21" d="M320.5,658.5c0.2,2.9,1.4,4.3,4.1,4.3c1.8,0,3.2-1.1,3.6-2.2h3.9c-1.3,3.9-3.9,5.6-7.7,5.6
	c-5.2,0-8.4-3.6-8.4-8.8c0-5,3.4-8.8,8.4-8.8c5.6,0,8.4,4.7,8.1,9.9H320.5L320.5,658.5z M327.9,655.7c-0.4-2.3-1.4-3.6-3.6-3.6
	c-3,0-3.8,2.1-3.8,3.6H327.9z"/>
<path class="st21" d="M335.2,654.2c0.4-4.3,4.1-5.6,7.9-5.6c3.2,0,7.3,0.7,7.3,4.7v8.6c0,1.4,0.2,3,0.5,3.8h-4.7
	c-0.2-0.5-0.4-1.1-0.4-1.6c-1.4,1.4-3.6,2.2-5.6,2.2c-3.2,0-5.6-1.6-5.6-5c0-7.5,11.3-3.6,11.1-7.2c0-2-1.3-2.2-3-2.2
	c-1.8,0-2.9,0.7-3,2.5H335L335.2,654.2L335.2,654.2z M345.6,657.6c-0.7,0.7-2.3,0.7-3.8,0.9c-1.4,0.4-2.7,0.7-2.7,2.5
	s1.3,2.1,2.9,2.1c3.6,0,3.8-2.9,3.8-3.8v-1.8L345.6,657.6L345.6,657.6z"/>
<path class="st21" d="M367.7,649.2h3.4v3h-3.4v8.2c0,1.6,0.4,2,2,2c0.5,0,1.1,0,1.4-0.2v3.6c-0.7,0.2-1.8,0.2-2.7,0.2
	c-2.9,0-5.2-0.5-5.2-3.9v-9.9h-2.9v-3h2.9v-5h4.7v5L367.7,649.2L367.7,649.2z"/>
<path class="st21" d="M373.9,642.8h4.7v8.6h0.2c1.3-2,3-2.9,4.8-2.9c4.8,0,6.1,2.7,6.1,6.8v10.2H385v-9.3c0-2.7-0.7-4.1-2.9-4.1
	c-2.5,0-3.6,1.4-3.6,4.7v8.8h-4.7L373.9,642.8L373.9,642.8z"/>
<rect x="353.7" y="642.8" class="st21" width="4.7" height="22.9"/>
<rect x="465.4" y="277" class="st19" width="393" height="105"/>
<text transform="matrix(1 0 0 1 465.4038 304.2822)" class="st22 st23 st24">Customer Interface </text>
<text transform="matrix(1 0 0 1 465.4038 350.1042)" class="st22 st23 st24">Team Representative</text>
<rect x="465.4" y="415" class="st19" width="496.8" height="297.1"/>
<text transform="matrix(1 0 0 1 465.4038 440.7231)" class="st22 st25 st26">member of the business </text>
<text transform="matrix(1 0 0 1 465.4038 485.9231)" class="st22 st25 st26">responsible for documenting </text>
<text transform="matrix(1 0 0 1 465.4038 531.1231)" class="st22 st25 st26">an Offering event and </text>
<text transform="matrix(1 0 0 1 465.4038 576.3231)" class="st22 st25 st26">executing the triage process, </text>
<text transform="matrix(1 0 0 1 465.4038 621.5231)" class="st22 st25 st26">i.e., deciding if an Event is a </text>
<text transform="matrix(1 0 0 1 465.4038 666.7231)" class="st22 st25 st26">Complaint</text>
<rect x="1136.7" y="643.1" class="st20" width="2.2" height="22.9"/>
<path class="st2" d="M1965.6,716.9h-878.8c-9.2,0-16.7-8.1-16.7-17.9V262.2c0-9.9,7.5-17.9,16.7-17.9h878.8
	c9.2,0,16.7,8.1,16.7,17.9V699C1982.3,708.9,1974.8,716.9,1965.6,716.9"/>
<g>
	<path class="st9" d="M1324.2,540.3h-174.3c-10,0-18.2-8.2-18.2-18.2V325.6c0-10,8.2-18.2,18.2-18.2h174.3c10,0,18.2,8.2,18.2,18.2
		v196.5C1342.4,532.1,1334.3,540.3,1324.2,540.3"/>
	<path class="st12" d="M1211.7,407.4h50.8l5.5,57.7c0.4,4,3.8,7.1,8.2,7.3h0.9l-6.4,21.7l-67.4-5.3l-4.9-16.4l1.8-0.4
		c4-0.5,6.9-3.5,7.1-7.3L1211.7,407.4z"/>
	<path class="st13" d="M1237.4,491.5l-34.2-2.7l-4.9-16.4l1.8-0.4c4-0.5,6.9-3.5,7.1-7.3l3.3-40.8h27.1L1237.4,491.5z"/>
	<path class="st14" d="M1211.7,407.4h50.8l4,43.7c-0.9,1.5-1.6,2.4-2.6,3.8c-7.5,10.2-17.1,17.1-26.4,17.1s-18.9-6.9-26.4-17.1
		c-1.1-1.6-2-2.7-2.9-4.4L1211.7,407.4z"/>
	<path class="st11" d="M1237.4,456.9c-11.8,0-23.7-7.6-32.6-18.9c-8.7-11.1-14.6-25.9-14.6-40.1v-0.4v-0.2v-2.9
		c0-34.1-6.2-61.7,47.4-61.7s47.2,27.7,47.2,61.7v2.7v0.2v0.4c0,14.2-5.8,29-14.6,40.1C1261.2,449.2,1249.2,456.9,1237.4,456.9"/>
	<path class="st15" d="M1206.7,466.7c-20.6,13.5-58.7,14.6-58.7,43V538c0,7.6,6.6,13.8,14.8,13.8h148.8c8.2,0,14.8-6.2,14.8-13.8
		v-28.1c0-28.8-37.5-29.9-58.5-43C1247,480.8,1231.5,485.5,1206.7,466.7"/>
	<path class="st17" d="M1205.8,444.1c8.9,11.3,20.4,18.9,31.5,18.9s22.8-7.6,31.5-18.9c9.1-11.7,15.3-27,15.5-41.7l-3.1-11.8
		c-1.1-4.2-1.3-8.2-1.3-11.8c-0.2-4.9-0.2-9.5-3.1-13.1c-4.6-6-11.8-4-20.4-1.8c-5.8,1.6-12.2,3.3-18.9,3.3
		c-6.9,0-13.1-1.6-18.9-3.3c-8.6-2.4-15.8-4.2-20.4,1.6c-2.9,3.6-2.9,8.2-3.1,13.1c0,3.8-0.2,7.6-1.3,11.8l-3.1,11.8
		C1190.5,417.2,1196.7,432.7,1205.8,444.1"/>
	<path class="st27" d="M1200.9,470c5.1,9.8,18.9,21.5,36.6,21.5c16.8,0,30.6-11.5,36.6-21.3c-6,11.3-19.3,23.3-36.6,23.1
		C1220.2,493.3,1205.8,481.1,1200.9,470"/>
	<path class="st18" d="M1205.8,444.1c8.9,11.3,20.4,18.9,31.5,18.9v-96c-6.9,0-13.1-1.6-18.9-3.3c-8.6-2.4-15.8-4.2-20.4,1.6
		c-2.9,3.6-2.9,8.2-3.1,13.1c0,3.8-0.2,7.6-1.3,11.8l-3.1,11.8C1190.5,417.2,1196.7,432.7,1205.8,444.1"/>
	<path class="st27" d="M1195.3,470.9c-19.5,8.4-47.2,10.2-47.2,38.6v28.2c0,7.6,6.6,13.8,14.8,13.8h74.5h74.5
		c8.2,0,14.8-6.2,14.8-13.8v-28.1c0-28.4-27.7-30.4-47.2-38.8c-12,18.6-27.1,28.1-42.1,28.2C1222.4,499.2,1207.3,489.7,1195.3,470.9
		"/>
	<path class="st28" d="M1195.3,470.7c-2.7,1.3-5.6,2.2-8.6,3.3c16.6,26.2,36.2,34.1,50.8,34.2c14.4-0.2,34.2-8,50.8-34.2
		c-2.9-1.1-5.8-2-8.6-3.3c-12,18.6-27.3,28.4-42.3,28.6C1222.4,499.2,1207.3,489.5,1195.3,470.7"/>
	<path class="st11" d="M1238.1,457.1h10.9c1.8,0,3.5,1.3,4,2.9c10.7-1.8,18.8-6.7,24.8-13.7c5.1-5.8,8.4-13.1,10.6-21.1l-2.6-0.2
		l2-26.8l0.2-3.5l9.1,0.5l-0.4,5.1l3.1,0.2l-1.5,20.2l-3.1-0.2l-0.4,5.1l-3.5-0.2c-2.2,8.6-5.8,16.6-11.3,23
		c-6.4,7.5-15.3,12.9-27,14.8c0,2.4-2,4.4-4.4,4.4h-10.9c-2.4,0-4.4-2-4.4-4.4v-1.8C1233.7,459.1,1235.5,457.1,1238.1,457.1"/>
	<path class="st19" d="M1149.9,307.4c-10,0-18.2,8.2-18.2,18.2v196.5c0,10,8.2,18.2,18.2,18.2h174.3c10,0,18.2-8.2,18.2-18.2V325.6
		c0-10-8.2-18.2-18.2-18.2H1149.9z"/>
</g>
<path class="st10" d="M1968.1,244.3H1429v472.6h539.1c7.9,0,14.3-7.2,14.3-15.9V260.2C1982.3,251.5,1975.9,244.3,1968.1,244.3"/>
<path class="st19" d="M1149.3,307.4c-9.9,0-17.9,8.1-17.9,17.9v193.3c0,9.9,8.1,17.9,17.9,17.9h171.5c9.9,0,17.9-8.1,17.9-17.9
	V325.3c0-9.9-8.1-17.9-17.9-17.9H1149.3L1149.3,307.4z"/>
<path class="st20" d="M1120.1,643.1h9.7c3.8,0,7.3,1.3,7.3,5.6c0,2.3-1.6,4.7-3.9,5.2c3,0.4,4.8,2.7,4.8,5.6c0,2.2-0.7,6.5-8.2,6.5
	h-9.7L1120.1,643.1L1120.1,643.1z M1122.2,653.2h7.5c3.4,0,5.2-1.8,5.2-3.9c0-2.9-1.8-4.3-5.2-4.3h-7.5V653.2z M1122.2,664.1h7.5
	c3.2,0,6.1-1.1,6.1-4.7c0-3-2.1-4.5-6.1-4.5h-7.5V664.1z"/>
<polygon class="st20" points="1141.6,643.1 1144.8,643.1 1152.7,663.2 1160.6,643.1 1163.8,643.1 1163.8,666.1 1161.6,666.1 
	1161.6,646.2 1153.8,666.1 1151.6,666.1 1143.7,646.2 1143.7,666.1 1141.6,666.1 "/>
<polygon class="st21" points="1194.6,665.9 1189.6,665.9 1185.7,650.3 1181.9,665.9 1176.7,665.9 1170.6,642.9 1175.6,642.9 
	1179.2,658.5 1183.1,642.9 1187.8,642.9 1191.7,658.7 1195.5,642.9 1200.5,642.9 "/>
<path class="st21" d="M1201.2,654.2c0.4-4.3,4.1-5.6,7.9-5.6c3.2,0,7.3,0.7,7.3,4.7v8.6c0,1.4,0.2,3,0.5,3.8h-4.7
	c-0.2-0.5-0.4-1.1-0.4-1.6c-1.4,1.4-3.6,2.2-5.6,2.2c-3.2,0-5.6-1.6-5.6-5c0-7.5,11.3-3.6,11.1-7.2c0-2-1.3-2.2-3-2.2
	s-2.9,0.7-3,2.5h-4.7L1201.2,654.2L1201.2,654.2z M1211.8,657.6c-0.7,0.7-2.3,0.7-3.8,0.9c-1.4,0.4-2.7,0.7-2.7,2.5s1.3,2.1,2.9,2.1
	c3.6,0,3.8-2.9,3.8-3.8v-1.8L1211.8,657.6L1211.8,657.6z"/>
<path class="st21" d="M1225.6,649.2h3.4v3h-3.4v8.2c0,1.6,0.4,2,2,2c0.5,0,1.1,0,1.4-0.2v3.6c-0.7,0.2-1.8,0.2-2.7,0.2
	c-2.9,0-5.2-0.5-5.2-3.9v-9.9h-2.9v-3h2.9v-5h4.7L1225.6,649.2z"/>
<path class="st21" d="M1234.7,660.3c0,2,1.8,2.9,3.6,2.9c1.3,0,3-0.5,3-2.1c0-1.4-2-2-5.2-2.5c-2.7-0.5-5.4-1.4-5.4-4.5
	c0-4.3,3.8-5.4,7.2-5.4c3.6,0,7,1.3,7.3,5.4h-4.3c-0.2-1.8-1.4-2.2-3-2.2c-1.1,0-2.5,0.2-2.5,1.6c0,1.6,2.7,1.8,5.2,2.5
	c2.7,0.5,5.4,1.6,5.4,4.7c0,4.3-3.8,5.7-7.5,5.7c-3.8,0-7.7-1.4-7.9-5.9L1234.7,660.3z"/>
<path class="st21" d="M1256.2,648.7c5.2,0,8.6,3.4,8.6,8.8c0,5.4-3.4,8.8-8.6,8.8s-8.6-3.4-8.6-8.8
	C1247.6,652.3,1250.9,648.7,1256.2,648.7 M1256.2,662.8c3,0,4.1-2.7,4.1-5.4s-0.9-5.4-4.1-5.4c-3,0-3.9,2.7-3.9,5.4
	S1253,662.8,1256.2,662.8"/>
<path class="st21" d="M1267,649.2h4.3v2.3h0.2c1.3-2,3-2.9,5-2.9c4.8,0,6.1,2.7,6.1,6.8v10.2h-4.7v-9.3c0-2.7-0.7-4.1-2.9-4.1
	c-2.5,0-3.6,1.4-3.6,4.7v8.8h-4.7L1267,649.2z"/>
<polygon class="st21" points="1291.7,642.8 1296.7,642.8 1296.7,651.5 1306.1,651.5 1306.1,642.8 1311.1,642.8 1311.1,665.7 
	1306.1,665.7 1306.1,655.8 1296.7,655.8 1296.7,665.7 1291.7,665.7 "/>
<path class="st21" d="M1318.6,658.5c0.2,2.9,1.4,4.3,4.1,4.3c1.8,0,3.2-1.1,3.6-2.2h3.9c-1.3,3.9-3.9,5.6-7.7,5.6
	c-5.2,0-8.4-3.6-8.4-8.8c0-5,3.4-8.8,8.4-8.8c5.6,0,8.4,4.7,8.1,9.9H1318.6L1318.6,658.5z M1325.9,655.7c-0.4-2.3-1.4-3.6-3.6-3.6
	c-3,0-3.8,2.1-3.8,3.6H1325.9z"/>
<path class="st21" d="M1333.3,654.2c0.4-4.3,4.1-5.6,7.9-5.6c3.2,0,7.3,0.7,7.3,4.7v8.6c0,1.4,0.2,3,0.5,3.8h-4.7
	c-0.2-0.5-0.4-1.1-0.4-1.6c-1.4,1.4-3.6,2.2-5.6,2.2c-3.2,0-5.6-1.6-5.6-5c0-7.5,11.3-3.6,11.1-7.2c0-2-1.3-2.2-3-2.2
	c-1.8,0-2.9,0.7-3,2.5h-4.7L1333.3,654.2L1333.3,654.2z M1343.7,657.6c-0.7,0.7-2.3,0.7-3.8,0.9c-1.4,0.4-2.7,0.7-2.7,2.5
	s1.3,2.1,2.9,2.1c3.6,0,3.8-2.9,3.8-3.8v-1.8L1343.7,657.6L1343.7,657.6z"/>
<path class="st21" d="M1365.7,649.2h3.4v3h-3.4v8.2c0,1.6,0.4,2,2,2c0.5,0,1.1,0,1.4-0.2v3.6c-0.7,0.2-1.8,0.2-2.7,0.2
	c-2.9,0-5.2-0.5-5.2-3.9v-9.9h-2.9v-3h2.9v-5h4.7v5L1365.7,649.2L1365.7,649.2z"/>
<path class="st21" d="M1372,642.8h4.7v8.6h0.2c1.3-2,3-2.9,4.8-2.9c4.8,0,6.1,2.7,6.1,6.8v10.2h-4.7v-9.3c0-2.7-0.7-4.1-2.9-4.1
	c-2.5,0-3.6,1.4-3.6,4.7v8.8h-4.7L1372,642.8L1372,642.8z"/>
<rect x="1351.7" y="642.8" class="st21" width="4.7" height="22.9"/>
<rect x="1463.5" y="277" class="st19" width="496.8" height="138"/>
<text transform="matrix(1 0 0 1 1463.457 304.2822)" class="st22 st23 st24">Central Complaint  </text>
<text transform="matrix(1 0 0 1 1463.457 350.1042)" class="st22 st23 st24">Handling Team  </text>
<text transform="matrix(1 0 0 1 1463.457 395.9262)" class="st22 st23 st24">Representative</text>
<rect x="1463.5" y="472" class="st19" width="496.8" height="227.7"/>
<text transform="matrix(1 0 0 1 1463.457 497.7202)" class="st22 st25 st26">designee from central quality </text>
<text transform="matrix(1 0 0 1 1463.457 542.9202)" class="st22 st25 st26">organization responsible for </text>
<text transform="matrix(1 0 0 1 1463.457 588.1202)" class="st22 st25 st26">verifying the complaint and </text>
<text transform="matrix(1 0 0 1 1463.457 633.3202)" class="st22 st25 st26">coordinating its review, </text>
<text transform="matrix(1 0 0 1 1463.457 678.5192)" class="st22 st25 st26">investigation, and closure</text>
<rect x="1114.2" y="643.1" class="st20" width="2.2" height="22.9"/>
</svg>
