<?xml version="1.0" encoding="utf-8"?>
<!-- Generator: Adobe Illustrator 16.0.3, SVG Export Plug-In . SVG Version: 6.00 Build 0)  -->
<!DOCTYPE svg PUBLIC "-//W3C//DTD SVG 1.1//EN" "http://www.w3.org/Graphics/SVG/1.1/DTD/svg11.dtd">
<svg version="1.1" id="Layer_1" xmlns="http://www.w3.org/2000/svg" xmlns:xlink="http://www.w3.org/1999/xlink" x="0px" y="0px"
	 width="2048px" height="1000px" viewBox="0 0 2048 1000" enable-background="new 0 0 2048 1000" xml:space="preserve">
<rect fill="#89BE46" width="2048" height="1000"/>
<rect x="342.764" y="148.589" fill="none" width="1294.435" height="98.995"/>
<text transform="matrix(1 0 0 1 342.7642 177.1484)"><tspan x="0" y="0" fill="#333333" font-family="'HelveticaNeueLTPro-Roman'" font-size="40">It’s the law: medical device manufacturers shall “establish and maintain </tspan><tspan x="0" y="48" fill="#333333" font-family="'HelveticaNeueLTPro-Roman'" font-size="40">procedures for receiving, reviewing, and evaluating complaints . . . .”</tspan></text>
<path fill="#FFFFFF" d="M301.132,164.854c-5.642-5.638-13.446-9.124-22.044-9.124s-16.405,3.485-22.015,9.124
	c-5.658,5.624-9.144,13.437-9.144,22.026c0,8.607,3.485,16.402,9.144,22.042c5.609,5.623,13.417,9.121,22.015,9.121
	s16.402-3.498,22.031-9.121c5.634-5.641,9.127-13.436,9.127-22.042C310.246,178.291,306.753,170.478,301.132,164.854z
	 M297.025,204.835c-4.6,4.587-10.929,7.433-17.938,7.433c-7.012,0-13.341-2.846-17.946-7.433
	c-4.588-4.623-7.424-10.919-7.424-17.956c0-7.004,2.836-13.333,7.424-17.921c4.605-4.623,10.934-7.434,17.946-7.434
	c7.009,0,13.338,2.811,17.955,7.417c4.576,4.605,7.425,10.934,7.425,17.938C304.468,193.917,301.619,200.229,297.025,204.835z
	 M284.254,173.221h-8.626l10.469,10.502H263.02v6.087h23.009l-10.401,10.401h8.626l13.496-13.507L284.254,173.221z"/>
<rect x="342.764" y="339.476" fill="none" width="1249.72" height="151.237"/>
<text transform="matrix(1 0 0 1 342.7642 368.0356)"><tspan x="0" y="0" fill="#333333" font-family="'HelveticaNeueLTPro-Roman'" font-size="40">It improves customer relationships by letting us know when </tspan><tspan x="0" y="48" fill="#333333" font-family="'HelveticaNeueLTPro-Roman'" font-size="40">customers are having problems so that we can work with them to </tspan><tspan x="0" y="96" fill="#333333" font-family="'HelveticaNeueLTPro-Roman'" font-size="40">solve those problems</tspan></text>
<path fill="#FFFFFF" d="M300.864,393.062c-5.642-5.639-13.446-9.124-22.044-9.124s-16.405,3.485-22.015,9.124
	c-5.658,5.624-9.144,13.437-9.144,22.026c0,8.607,3.485,16.402,9.144,22.042c5.609,5.623,13.417,9.121,22.015,9.121
	s16.402-3.498,22.031-9.121c5.634-5.641,9.127-13.436,9.127-22.042C309.978,406.498,306.485,398.686,300.864,393.062z
	 M296.757,433.043c-4.6,4.587-10.929,7.433-17.938,7.433c-7.012,0-13.341-2.846-17.946-7.433
	c-4.588-4.623-7.424-10.918-7.424-17.955c0-7.004,2.836-13.333,7.424-17.921c4.605-4.622,10.934-7.434,17.946-7.434
	c7.009,0,13.338,2.812,17.955,7.417c4.576,4.605,7.425,10.935,7.425,17.938C304.2,422.125,301.351,428.437,296.757,433.043z
	 M283.986,401.429h-8.626l10.469,10.503h-23.077v6.087h23.009L275.36,428.42h8.626l13.496-13.507L283.986,401.429z"/>
<rect x="342.764" y="588.945" fill="none" width="1294.435" height="79.091"/>
<text transform="matrix(1 0 0 1 342.7642 617.5059)"><tspan x="0" y="0" fill="#333333" font-family="'HelveticaNeueLTPro-Roman'" font-size="40">We use learnings from Complaint handling to prevent future problems </tspan><tspan x="0" y="48" fill="#333333" font-family="'HelveticaNeueLTPro-Roman'" font-size="40">and improve our Offerings </tspan></text>
<path fill="#FFFFFF" d="M301.132,606.46c-5.642-5.64-13.446-9.126-22.044-9.126s-16.405,3.486-22.015,9.126
	c-5.658,5.623-9.144,13.436-9.144,22.025c0,8.606,3.485,16.401,9.144,22.042c5.609,5.624,13.417,9.12,22.015,9.12
	s16.402-3.496,22.031-9.12c5.634-5.641,9.127-13.436,9.127-22.042C310.246,619.896,306.753,612.083,301.132,606.46z
	 M297.025,646.441c-4.6,4.586-10.929,7.431-17.938,7.431c-7.012,0-13.341-2.845-17.946-7.431c-4.588-4.623-7.424-10.92-7.424-17.956
	c0-7.004,2.836-13.334,7.424-17.922c4.605-4.621,10.934-7.434,17.946-7.434c7.009,0,13.338,2.812,17.955,7.418
	c4.576,4.604,7.425,10.934,7.425,17.938C304.468,635.521,301.619,641.836,297.025,646.441z M284.254,614.827h-8.626l10.469,10.502
	H263.02v6.088h23.009l-10.401,10.401h8.626l13.496-13.507L284.254,614.827z"/>
<g>
	<g>
		<path fill="#3D85B2" d="M1677.615,683.669c-83.629,0-151.411,53.425-151.411,119.322c0,47.638,35.52,88.615,86.673,107.753
			c-1,2.07-1.906,4.194-3.072,6.191c-10.005,16.786-24.652,29.504-42.093,38.056c38.642,2.753,74.405-8.812,98.005-33.155
			c3.934,0.236,7.887,0.48,11.898,0.48c83.591,0,151.349-53.432,151.349-119.325
			C1828.964,737.094,1761.206,683.669,1677.615,683.669z"/>
		<path fill="#1365A8" d="M1781.804,889.494c-93.595-2.082-168.683-62.507-168.683-136.803c0-23.034,7.253-44.728,20.018-63.774
			c14.062-3.403,28.996-5.248,44.477-5.248c83.591,0,151.349,53.425,151.349,119.322
			C1828.964,837.044,1810.834,867.743,1781.804,889.494z"/>
		<path fill="#FFFFFF" d="M1806.82,585.713c95.933,0,173.71,61.293,173.71,136.897c0,54.646-40.759,101.662-99.433,123.619
			c1.146,2.368,2.177,4.801,3.512,7.1c11.48,19.253,28.291,33.847,48.293,43.658c-44.334,3.159-85.357-10.113-112.425-38.036
			c-4.519,0.275-9.056,0.554-13.657,0.554c-95.9,0-173.625-61.292-173.625-136.895
			C1633.195,647.006,1710.92,585.713,1806.82,585.713z"/>
		<path fill="#D1ECFB" d="M1980.51,723.062c-0.231,54.455-40.894,101.268-99.412,123.168c1.146,2.368,2.177,4.801,3.512,7.1
			c11.48,19.253,28.291,33.847,48.293,43.658c-44.334,3.159-85.357-10.113-112.425-38.036c-4.519,0.275-9.056,0.554-13.657,0.554
			c-95.706,0-173.304-61.055-173.617-136.443H1980.51z"/>
		<g>
			<g>
				<path fill="#1365A8" d="M1856.692,725.116c0,13.44,10.903,24.378,24.405,24.378c13.417,0,24.344-10.938,24.344-24.378
					c0-13.459-10.927-24.397-24.344-24.397C1867.596,700.719,1856.692,711.657,1856.692,725.116z"/>
				<path fill="#1365A8" d="M1781.922,725.116c0,13.44,10.918,24.378,24.417,24.378c13.421,0,24.339-10.938,24.339-24.378
					c0-13.459-10.918-24.397-24.339-24.397C1792.84,700.719,1781.922,711.657,1781.922,725.116z"/>
				<path fill="#1365A8" d="M1707.175,725.116c0,13.44,10.908,24.378,24.394,24.378c13.433,0,24.355-10.938,24.355-24.378
					c0-13.459-10.923-24.397-24.355-24.397C1718.083,700.719,1707.175,711.657,1707.175,725.116z"/>
			</g>
			<g>
				<path fill="#3D85B2" d="M1905.231,723.062h-48.333c1.055-12.485,11.412-22.343,24.199-22.343
					C1893.823,700.719,1904.17,710.576,1905.231,723.062z"/>
				<path fill="#3D85B2" d="M1830.467,723.062h-48.338c1.064-12.485,11.423-22.343,24.21-22.343
					C1819.064,700.719,1829.403,710.576,1830.467,723.062z"/>
				<path fill="#3D85B2" d="M1755.711,723.062h-48.338c1.064-12.485,11.416-22.343,24.195-22.343
					C1744.303,700.719,1754.654,710.576,1755.711,723.062z"/>
			</g>
		</g>
	</g>
</g>
</svg>
