<?xml version="1.0" encoding="utf-8"?>
<!-- Generator: Adobe Illustrator 19.2.0, SVG Export Plug-In . SVG Version: 6.00 Build 0)  -->
<svg version="1.1" id="Layer_1" xmlns="http://www.w3.org/2000/svg" xmlns:xlink="http://www.w3.org/1999/xlink" x="0px" y="0px"
	 viewBox="0 0 501.2 153" style="enable-background:new 0 0 501.2 153;" xml:space="preserve">
<style type="text/css">
	.st0{fill:#FFFFFF;}
	.st1{fill:#A7DAE9;}
	.st2{fill:#2D5972;}
	.st3{fill:#0F303F;}
	.st4{fill:#90C4D6;}
	.st5{fill:#A1B53A;}
	.st6{fill:#C2D64C;}
</style>
<g>
	<path class="st0" d="M42.4,28.8h-15c0,0.1,0,0.2,0,0.3v2.3c0,3.8,3,6.8,6.8,6.8h17.6L42.4,28.8z"/>
	<path class="st0" d="M62.5,44L47.2,28.8H36c0.2,1.4,0.8,2.7,1.9,3.8L49.3,44H62.5z"/>
	<path class="st0" d="M94.2,49.5H49.9c-4.5,0-8.1,3.6-8.1,8.1v13.2c0,4.5,3.6,8.1,8.1,8.1h44.3V49.5z"/>
	<g>
		<g>
			<rect x="74.1" y="47.2" class="st1" width="20.4" height="40.1"/>
			<rect x="77.9" y="45.7" class="st2" width="423.3" height="43.1"/>
			<rect x="77.9" y="45.7" class="st3" width="3.2" height="43.1"/>
		</g>
		<rect x="74.1" y="67.3" class="st4" width="3.8" height="20"/>
		<rect x="81.1" y="67.3" class="st3" width="420.1" height="21.5"/>
		<circle class="st1" cx="87.4" cy="82.1" r="2.1"/>
	</g>
	<g>
		<path class="st3" d="M38.2,96L22.8,16.9c-0.5-1.3-2-2-3.6-1.9l15.9,81.6L38.2,96z"/>
		<path class="st2" d="M30,15.4L30,15.4L30,15.4L30,15.4c-0.5-1.4-2.2-2.2-4.1-1.8c-1.9,0.3-3.3,1.7-3.2,3.2l0,0l0,0l0,0L38.2,96
			l7.3-1.4L30,15.4z"/>
		<path class="st3" d="M45.5,94.6l3.1-0.6l-16-81.7C31,12.8,30,14.1,30,15.4L45.5,94.6z"/>
		<path class="st0" d="M24.5,7l-5.4,8c1.7-0.1,3.1,0.7,3.6,1.9l0,0l0,0l0,0c0-1.4,1.3-2.8,3.2-3.2c1.8-0.4,3.6,0.4,4.1,1.8l0,0l0,0
			l0,0c0-1.3,1-2.6,2.6-3.1L24.5,7z"/>
		<path class="st3" d="M25.3,10.6c1.1-0.3,2.2-0.6,3.2-1L24.6,7l-2.7,3.9C23,10.9,24.2,10.8,25.3,10.6z"/>
		<g>
			
				<rect x="35.5" y="96.4" transform="matrix(0.9815 -0.1915 0.1915 0.9815 -18.0798 8.9097)" class="st5" width="3.1" height="3.2"/>
			
				<rect x="38.4" y="95.4" transform="matrix(0.9814 -0.1919 0.1919 0.9814 -17.8323 9.8928)" class="st6" width="7.5" height="3.2"/>
			
				<rect x="45.8" y="94.4" transform="matrix(0.9814 -0.192 0.192 0.9814 -17.5512 10.8788)" class="st5" width="3.1" height="3.2"/>
		</g>
	</g>
	<path class="st0" d="M10.1,56.4c0-2.6,2.1-4.6,4.6-4.6h33.9c2.5,0,4.6,2.1,4.6,4.6l0,0c0,2.5-2.1,4.6-4.6,4.6H14.7
		C12.2,61,10.1,58.9,10.1,56.4L10.1,56.4z"/>
	<path class="st0" d="M34,40.3c-6.6,0-12,5.4-12,12v19.5c0,6.6,5.4,12,12,12h19.5c6.6,0,12-5.4,12-12V52.3c0-6.6-5.4-12-12-12H34z"
		/>
	<path class="st0" d="M19.2,79.1c0-2.5,2-4.6,4.6-4.6h21.7c2.5,0,4.6,2.1,4.6,4.6l0,0c0,2.5-2.1,4.6-4.6,4.6H23.8
		C21.3,83.7,19.2,81.6,19.2,79.1L19.2,79.1z"/>
	<path class="st0" d="M14.3,67.8c0-2.5,2.1-4.6,4.6-4.6h33.9c2.5,0,4.6,2.1,4.6,4.6l0,0c0,2.5-2.1,4.6-4.6,4.6H18.9
		C16.4,72.4,14.3,70.3,14.3,67.8L14.3,67.8z"/>
	<path class="st0" d="M10,44.9c0-2.5,2.1-4.6,4.6-4.6h19.8c2.5,0,4.6,2.1,4.6,4.6l0,0c0,2.5-2.1,4.6-4.6,4.6H14.6
		C12.1,49.5,10,47.4,10,44.9L10,44.9z"/>
</g>
</svg>
