<?xml version="1.0" encoding="utf-8"?>
<!-- Generator: Adobe Illustrator 19.2.0, SVG Export Plug-In . SVG Version: 6.00 Build 0)  -->
<svg version="1.1" id="Layer_1" xmlns="http://www.w3.org/2000/svg" xmlns:xlink="http://www.w3.org/1999/xlink" x="0px" y="0px"
	 viewBox="0 0 290.5 241" style="enable-background:new 0 0 290.5 241;" xml:space="preserve">
<style type="text/css">
	.st0{fill:#39B54A;}
	.st1{opacity:0.2;fill:#F1F2F2;}
	.st2{fill:#FFFFFF;}
</style>
<path class="st0" d="M168,1C120.5,1,79.7,29.1,61.1,69.6L0,66.1L52.2,98c-1.2,6.7-1.8,13.5-1.8,20.6c0,65,52.7,117.6,117.6,117.6
	s117.6-52.7,117.6-117.6S233,1,168,1z"/>
<circle class="st1" cx="166.8" cy="200.1" r="19.5"/>
<g>
	<path class="st2" d="M178.9,195l-2.7-2.7c-0.3-0.3-0.9-0.3-1.2,0l-11.4,11.4l-4.9-4.9c-0.3-0.3-0.9-0.3-1.2,0l-2.7,2.7
		c-0.3,0.3-0.3,0.9,0,1.2l8.2,8.2c0.2,0.2,0.4,0.2,0.6,0.2c0.2,0,0.4-0.1,0.6-0.2l14.8-14.8c0.2-0.2,0.2-0.4,0.2-0.6
		C179.1,195.4,179,195.1,178.9,195z"/>
</g>
<g>
</g>
<g>
</g>
<g>
</g>
<g>
</g>
<g>
</g>
<g>
</g>
</svg>
