<?xml version="1.0" encoding="utf-8"?>
<!-- Generator: Adobe Illustrator 19.2.0, SVG Export Plug-In . SVG Version: 6.00 Build 0)  -->
<svg version="1.1" id="Layer_1" xmlns="http://www.w3.org/2000/svg" xmlns:xlink="http://www.w3.org/1999/xlink" x="0px" y="0px"
	 viewBox="0 0 290.5 241" style="enable-background:new 0 0 290.5 241;" xml:space="preserve">
<style type="text/css">
	.st0{fill:#F89637;}
	.st1{opacity:0.2;fill:#F1F2F2;enable-background:new    ;}
	.st2{fill:#CD202C;}
</style>
<path class="st0" d="M168,1C120.5,1,79.7,29.1,61.1,69.6L0,66.1L52.2,98c-1.2,6.7-1.8,13.5-1.8,20.6c0,65,52.7,117.6,117.6,117.6
	s117.6-52.7,117.6-117.6S233,1,168,1z"/>
<circle class="st1" cx="166.8" cy="185.3" r="34.3"/>
<g>
	<path class="st2" d="M151.1,198.1l3.2,3.2c1.2,1.2,3,1.2,4.2,0l6.9-6.7l6.7,6.9c1.2,1.2,3,1.2,4.2,0l3.2-3.2c1.2-1.2,1.2-3,0-4.2
		l-6.7-6.9l6.9-6.7c1.2-1.2,1.2-3,0-4.2l-3.2-3.2c-1.2-1.2-3-1.2-4.2,0l-6.9,6.7l-6.7-6.9c-1.2-1.2-3-1.2-4.2,0l-3.2,3.2
		c-1.2,1.2-1.2,3,0,4.2l6.7,6.9l-6.7,6.7C150.1,195,150.1,196.9,151.1,198.1z"/>
</g>
</svg>
