<?xml version="1.0" encoding="utf-8"?>
<!-- Generator: Adobe Illustrator 19.2.0, SVG Export Plug-In . SVG Version: 6.00 Build 0)  -->
<svg version="1.1" id="Layer_1" xmlns="http://www.w3.org/2000/svg" xmlns:xlink="http://www.w3.org/1999/xlink" x="0px" y="0px"
	 viewBox="0 0 2048 1000" style="enable-background:new 0 0 2048 1000;" xml:space="preserve">
<style type="text/css">
	.st0{fill:#B9E5FB;}
	.st1{fill:#FFFFFF;stroke:#4EA8DE;stroke-width:3.4453;stroke-miterlimit:10;}
	.st2{fill:#FFFFFF;stroke:#4EA8DE;stroke-width:2.8429;stroke-miterlimit:10;}
	.st3{fill:#FFFFFF;stroke:#4EA8DE;stroke-width:2.7169;stroke-miterlimit:10;}
	.st4{fill:none;}
	.st5{fill:#333333;}
	.st6{fill:#FFFFFF;stroke:#4EA8DE;stroke-width:2.8396;stroke-miterlimit:10;}
	.st7{fill:#FFFFFF;stroke:#4EA8DE;stroke-width:2.8382;stroke-miterlimit:10;}
	.st8{fill:#FFFFFF;stroke:#4EA8DE;stroke-width:2.6206;stroke-miterlimit:10;}
	.st9{fill:#B8D890;}
	.st10{fill:none;stroke:#4EA8DE;stroke-width:3;stroke-miterlimit:10;}
	.st11{fill:#4EA8DE;}
	.st12{fill:#FFFFFF;stroke:#4EA8DE;stroke-width:2.429;stroke-miterlimit:10;}
	.st13{fill:none;stroke:#4EA8DE;stroke-width:2.8176;stroke-miterlimit:10;}
	.st14{fill:#ED1C24;}
	.st15{fill:#FFFFFF;}
	.st16{fill:#FFFFFF;stroke:#4EA8DE;stroke-width:2.8964;stroke-miterlimit:10;}
	.st17{fill:none;stroke:#4EA8DE;stroke-width:2.1942;stroke-miterlimit:10;}
	.st18{fill:#89C240;}
	.st19{fill:none;stroke:#4EA8DE;stroke-width:3.0502;stroke-miterlimit:10;}
	.st20{fill:#FFFFFF;stroke:#4EA8DE;stroke-width:1.6781;stroke-miterlimit:10;}
</style>
<rect class="st0" width="2048" height="1000"/>
<rect x="498.6" y="26.2" class="st1" width="561.6" height="106.9"/>
<rect x="508.9" y="402.1" class="st2" width="547.9" height="74.6"/>
<polygon class="st3" points="929.4,266.2 786.5,370.5 641.8,264.9 784.7,160.6 "/>
<g>
	<rect x="529.2" y="51" class="st4" width="505.7" height="98.1"/>
	<path class="st5" d="M555.8,50.9h13.6v2.3h-10.8v6.6h9.5v2.3h-9.5v9.5h-2.8V50.9z"/>
	<path class="st5" d="M584.4,71.7h-2.3v-2.4h-0.1c-1,1.9-2.7,2.7-4.9,2.7c-3.9,0-5.2-2.3-5.2-5.5v-9.9h2.5v10.2c0,1.9,1.2,3,3,3
		c3,0,4.4-2,4.4-4.7v-8.5h2.5V71.7z"/>
	<path class="st5" d="M588.1,56.7h2.3V59h0.1c1-1.9,2.7-2.7,4.9-2.7c3.9,0,5.2,2.3,5.2,5.5v9.9h-2.5V61.5c0-1.9-1.2-3-3-3
		c-3,0-4.4,2-4.4,4.7v8.5h-2.5V56.7z"/>
	<path class="st5" d="M614.5,61.5c-0.4-1.9-1.7-3-3.7-3c-3.6,0-4.7,2.8-4.7,5.9c0,2.8,1.2,5.5,4.4,5.5c2.4,0,3.8-1.4,4.1-3.7h2.5
		c-0.6,3.7-2.8,5.8-6.6,5.8c-4.6,0-7-3.2-7-7.7s2.3-8,7.1-8c3.4,0,6.1,1.6,6.5,5.2H614.5z"/>
	<path class="st5" d="M623.3,56.7h3v2.2h-3v9.3c0,1.2,0.3,1.3,1.9,1.3h1.1v2.2h-1.9c-2.6,0-3.6-0.5-3.6-3.3v-9.5h-2.6v-2.2h2.6v-4.5
		h2.5V56.7z"/>
	<path class="st5" d="M631.6,54h-2.5v-3h2.5V54z M629.1,56.7h2.5v15h-2.5V56.7z"/>
	<path class="st5" d="M641.9,56.3c4.8,0,7.3,3.5,7.3,7.9c0,4.4-2.5,7.8-7.3,7.8c-4.8,0-7.3-3.5-7.3-7.8
		C634.6,59.8,637.1,56.3,641.9,56.3z M641.9,69.8c2.6,0,4.7-2,4.7-5.7s-2.1-5.7-4.7-5.7c-2.6,0-4.7,2.1-4.7,5.7
		S639.3,69.8,641.9,69.8z"/>
	<path class="st5" d="M652.1,56.7h2.3V59h0.1c1-1.9,2.7-2.7,4.9-2.7c3.9,0,5.2,2.3,5.2,5.5v9.9H662V61.5c0-1.9-1.2-3-3-3
		c-3,0-4.4,2-4.4,4.7v8.5h-2.5V56.7z"/>
	<path class="st5" d="M691.1,71.7h-2.6l-3-11.9h-0.1l-3,11.9h-2.7l-4.8-15h2.7l3.4,12.3h0.1l3-12.3h2.7l3.1,12.3h0.1l3.4-12.3h2.6
		L691.1,71.7z"/>
	<path class="st5" d="M700.8,54h-2.5v-3h2.5V54z M698.4,56.7h2.5v15h-2.5V56.7z"/>
	<path class="st5" d="M708.1,56.7h3v2.2h-3v9.3c0,1.2,0.3,1.3,1.9,1.3h1.1v2.2h-1.9c-2.6,0-3.6-0.5-3.6-3.3v-9.5h-2.6v-2.2h2.6v-4.5
		h2.5V56.7z"/>
	<path class="st5" d="M713.8,50.9h2.5v7.9h0.1c0.8-1.8,3-2.6,4.7-2.6c3.9,0,5.2,2.3,5.2,5.5v9.9h-2.5V61.5c0-1.9-1.2-3-3-3
		c-3,0-4.4,2-4.4,4.7v8.5h-2.5V50.9z"/>
	<path class="st5" d="M732.5,54h-2.5v-3h2.5V54z M730.1,56.7h2.5v15h-2.5V56.7z"/>
	<path class="st5" d="M736.4,56.7h2.3V59h0.1c1-1.9,2.7-2.7,4.9-2.7c3.9,0,5.2,2.3,5.2,5.5v9.9h-2.5V61.5c0-1.9-1.2-3-3-3
		c-3,0-4.4,2-4.4,4.7v8.5h-2.5V56.7z"/>
	<path class="st5" d="M761.1,50.9h2.8v20.7h-2.8V50.9z"/>
	<path class="st5" d="M768.1,56.7h2.3V59h0.1c1-1.9,2.7-2.7,4.9-2.7c3.9,0,5.2,2.3,5.2,5.5v9.9H778V61.5c0-1.9-1.2-3-3-3
		c-3,0-4.4,2-4.4,4.7v8.5h-2.5V56.7z"/>
	<path class="st5" d="M784.2,56.7h2.3V59h0.1c1-1.9,2.7-2.7,4.9-2.7c3.9,0,5.2,2.3,5.2,5.5v9.9h-2.5V61.5c0-1.9-1.2-3-3-3
		c-3,0-4.4,2-4.4,4.7v8.5h-2.5V56.7z"/>
	<path class="st5" d="M806.8,56.3c4.8,0,7.3,3.5,7.3,7.9c0,4.4-2.5,7.8-7.3,7.8c-4.8,0-7.3-3.5-7.3-7.8
		C799.5,59.8,802,56.3,806.8,56.3z M806.8,69.8c2.6,0,4.7-2,4.7-5.7s-2.1-5.7-4.7-5.7c-2.6,0-4.7,2.1-4.7,5.7S804.2,69.8,806.8,69.8
		z"/>
	<path class="st5" d="M823.7,71.7h-2.6l-5.6-15h2.8l4.2,12.5h0.1l4.1-12.5h2.6L823.7,71.7z"/>
	<path class="st5" d="M844.7,71.6c-0.4,0.3-1,0.4-1.8,0.4c-1.3,0-2.1-0.7-2.1-2.3c-1.4,1.6-3.2,2.3-5.3,2.3c-2.7,0-5-1.2-5-4.2
		c0-3.4,2.5-4.1,5.1-4.6c2.7-0.6,5-0.3,5-2.2c0-2.2-1.8-2.5-3.3-2.5c-2.1,0-3.6,0.6-3.7,2.8h-2.5c0.1-3.7,3-5,6.4-5
		c2.7,0,5.6,0.6,5.6,4.1v7.7c0,1.2,0,1.7,0.8,1.7c0.2,0,0.5-0.1,0.8-0.1V71.6z M840.7,63.9c-1.9,1.4-7.5,0-7.5,3.7
		c0,1.6,1.4,2.2,2.9,2.2c3.2,0,4.6-2,4.6-3.4V63.9z"/>
	<path class="st5" d="M850.5,56.7h3v2.2h-3v9.3c0,1.2,0.3,1.3,1.9,1.3h1.1v2.2h-1.9c-2.6,0-3.6-0.5-3.6-3.3v-9.5h-2.6v-2.2h2.6v-4.5
		h2.5V56.7z"/>
	<path class="st5" d="M858.8,54h-2.5v-3h2.5V54z M856.3,56.7h2.5v15h-2.5V56.7z"/>
	<path class="st5" d="M869.1,56.3c4.8,0,7.3,3.5,7.3,7.9c0,4.4-2.5,7.8-7.3,7.8c-4.8,0-7.3-3.5-7.3-7.8
		C861.8,59.8,864.3,56.3,869.1,56.3z M869.1,69.8c2.6,0,4.7-2,4.7-5.7s-2.1-5.7-4.7-5.7c-2.6,0-4.7,2.1-4.7,5.7
		S866.5,69.8,869.1,69.8z"/>
	<path class="st5" d="M879.2,56.7h2.3V59h0.1c1-1.9,2.7-2.7,4.9-2.7c3.9,0,5.2,2.3,5.2,5.5v9.9h-2.5V61.5c0-1.9-1.2-3-3-3
		c-3,0-4.4,2-4.4,4.7v8.5h-2.5V56.7z"/>
	<path class="st5" d="M907.5,77.4c-2.8-4.3-4.6-8.5-4.6-13.6c0-4.6,1.6-9.4,4.6-13.4h1.9c-2.8,4.4-3.8,8.6-3.8,13.4
		c0,4.9,1.1,9.1,3.8,13.6H907.5z"/>
	<path class="st5" d="M911.3,50.9h9.1c4.1,0,6.4,2.3,6.4,6.1s-2.2,6.1-6.4,6.1h-6.3v8.5h-2.8V50.9z M914.1,60.9h5.4
		c3.1,0,4.5-1.3,4.5-3.8c0-2.5-1.4-3.8-4.5-3.8h-5.4V60.9z"/>
	<path class="st5" d="M930.1,50.9h2.8v18.4h11v2.3h-13.7V50.9z"/>
	<path class="st5" d="M943.7,77.4c2.8-4.4,3.8-8.6,3.8-13.4c0-4.9-1.1-9.1-3.8-13.6h1.9c2.8,4.3,4.6,8.5,4.6,13.6
		c0,4.6-1.6,9.4-4.6,13.4H943.7z"/>
	<path class="st5" d="M961.6,50.9h2.5v20.7h-2.5V50.9z"/>
	<path class="st5" d="M970.5,54H968v-3h2.5V54z M968,56.7h2.5v15H968V56.7z"/>
	<path class="st5" d="M975.8,66.9c0.1,2.2,2,2.9,4,2.9c1.5,0,3.6-0.3,3.6-2.2c0-3.9-9.8-1.2-9.8-7c0-3,3-4.3,5.6-4.3
		c3.4,0,5.9,1,6.1,4.7H983c-0.1-1.9-1.9-2.5-3.5-2.5c-1.5,0-3.2,0.4-3.2,1.9c0,1.7,2.6,2.1,4.9,2.6c2.5,0.6,4.9,1.4,4.9,4.3
		c0,3.6-3.3,4.7-6.4,4.7c-3.4,0-6.2-1.4-6.4-5.1H975.8z"/>
	<path class="st5" d="M992.2,56.7h3v2.2h-3v9.3c0,1.2,0.3,1.3,1.9,1.3h1.1v2.2h-1.9c-2.6,0-3.6-0.5-3.6-3.3v-9.5h-2.6v-2.2h2.6v-4.5
		h2.5V56.7z"/>
	<path class="st5" d="M999.4,66.9c0.1,2.2,2,2.9,4,2.9c1.5,0,3.6-0.3,3.6-2.2c0-3.9-9.8-1.2-9.8-7c0-3,3-4.3,5.6-4.3
		c3.4,0,5.9,1,6.1,4.7h-2.5c-0.1-1.9-1.9-2.5-3.5-2.5c-1.5,0-3.2,0.4-3.2,1.9c0,1.7,2.6,2.1,4.9,2.6c2.5,0.6,4.9,1.4,4.9,4.3
		c0,3.6-3.3,4.7-6.4,4.7c-3.4,0-6.2-1.4-6.4-5.1H999.4z"/>
	<path class="st5" d="M560.6,85.7h2.5v20.7h-2.5V85.7z"/>
	<path class="st5" d="M580.2,106.4c-0.4,0.3-1,0.4-1.8,0.4c-1.3,0-2.1-0.7-2.1-2.3c-1.4,1.6-3.2,2.3-5.3,2.3c-2.7,0-5-1.2-5-4.2
		c0-3.4,2.5-4.1,5.1-4.6c2.7-0.6,5-0.3,5-2.2c0-2.2-1.8-2.5-3.3-2.5c-2.1,0-3.6,0.6-3.7,2.8h-2.5c0.1-3.7,3-5,6.4-5
		c2.7,0,5.6,0.6,5.6,4.1v7.7c0,1.2,0,1.7,0.8,1.7c0.2,0,0.5-0.1,0.8-0.1V106.4z M576.2,98.7c-1.9,1.4-7.5,0-7.5,3.7
		c0,1.6,1.4,2.2,2.9,2.2c3.2,0,4.6-2,4.6-3.4V98.7z"/>
	<path class="st5" d="M582.6,85.7h2.5v7.7h0.1c0.8-1.7,2.7-2.4,4.8-2.4c4.6,0,6.9,3.7,6.9,7.9c0,4.3-2.3,7.8-6.8,7.8
		c-1.5,0-3.8-0.6-4.8-2.3H585v2h-2.5V85.7z M589.5,93.3c-3.3,0-4.6,2.9-4.6,5.7c0,2.9,1.3,5.7,4.7,5.7c3.4,0,4.5-2.9,4.5-5.8
		C594.2,96,592.7,93.3,589.5,93.3z"/>
	<path class="st5" d="M612.5,101.7c-0.7,3.3-3,5.1-6.4,5.1c-4.8,0-7-3.3-7.2-7.9c0-4.5,3-7.8,7-7.8c5.3,0,6.9,5,6.8,8.6h-11.2
		c-0.1,2.6,1.4,4.9,4.7,4.9c2.1,0,3.5-1,3.9-2.9H612.5z M610.1,97.5c-0.1-2.3-1.9-4.2-4.3-4.2c-2.6,0-4.1,1.9-4.3,4.2H610.1z"/>
	<path class="st5" d="M615.4,85.7h2.5v20.7h-2.5V85.7z"/>
	<path class="st5" d="M643,106.4c-0.4,0.3-1,0.4-1.8,0.4c-1.3,0-2.1-0.7-2.1-2.3c-1.4,1.6-3.2,2.3-5.3,2.3c-2.7,0-5-1.2-5-4.2
		c0-3.4,2.5-4.1,5.1-4.6c2.7-0.6,5-0.3,5-2.2c0-2.2-1.8-2.5-3.3-2.5c-2.1,0-3.6,0.6-3.7,2.8h-2.5c0.1-3.7,3-5,6.4-5
		c2.7,0,5.6,0.6,5.6,4.1v7.7c0,1.2,0,1.7,0.8,1.7c0.2,0,0.5-0.1,0.8-0.1V106.4z M639,98.7c-1.9,1.4-7.5,0-7.5,3.7
		c0,1.6,1.4,2.2,2.9,2.2c3.2,0,4.6-2,4.6-3.4V98.7z"/>
	<path class="st5" d="M645.3,91.5h2.3v2.4h0.1c1-1.9,2.7-2.7,4.9-2.7c3.9,0,5.2,2.3,5.2,5.5v9.9h-2.5V96.3c0-1.9-1.2-3-3-3
		c-3,0-4.4,2-4.4,4.7v8.5h-2.5V91.5z"/>
	<path class="st5" d="M674.8,106.5h-2.5v-2h-0.1c-0.8,1.7-2.7,2.4-4.8,2.4c-4.6,0-6.9-3.7-6.9-7.9c0-4.2,2.3-7.8,6.8-7.8
		c1.5,0,3.8,0.6,4.8,2.3h0.1v-7.7h2.5V106.5z M667.9,104.6c3.3,0,4.6-2.9,4.6-5.7c0-2.9-1.3-5.7-4.7-5.7c-3.4,0-4.5,2.9-4.5,5.8
		C663.2,101.9,664.7,104.6,667.9,104.6z"/>
	<path class="st5" d="M686.8,85.7h2.5v20.7h-2.5V85.7z"/>
	<path class="st5" d="M706.4,106.4c-0.4,0.3-1,0.4-1.8,0.4c-1.3,0-2.1-0.7-2.1-2.3c-1.4,1.6-3.2,2.3-5.3,2.3c-2.7,0-5-1.2-5-4.2
		c0-3.4,2.5-4.1,5.1-4.6c2.7-0.6,5-0.3,5-2.2c0-2.2-1.8-2.5-3.3-2.5c-2.1,0-3.6,0.6-3.7,2.8h-2.5c0.1-3.7,3-5,6.4-5
		c2.7,0,5.6,0.6,5.6,4.1v7.7c0,1.2,0,1.7,0.8,1.7c0.2,0,0.5-0.1,0.8-0.1V106.4z M702.4,98.7c-1.9,1.4-7.5,0-7.5,3.7
		c0,1.6,1.4,2.2,2.9,2.2c3.2,0,4.6-2,4.6-3.4V98.7z"/>
	<path class="st5" d="M708.8,85.7h2.5v7.7h0.1c0.8-1.7,2.7-2.4,4.8-2.4c4.6,0,6.9,3.7,6.9,7.9c0,4.3-2.3,7.8-6.8,7.8
		c-1.5,0-3.8-0.6-4.8-2.3h-0.1v2h-2.5V85.7z M715.7,93.3c-3.3,0-4.6,2.9-4.6,5.7c0,2.9,1.3,5.7,4.7,5.7c3.4,0,4.5-2.9,4.5-5.8
		C720.4,96,718.9,93.3,715.7,93.3z"/>
	<path class="st5" d="M738.7,101.7c-0.7,3.3-3,5.1-6.4,5.1c-4.8,0-7-3.3-7.2-7.9c0-4.5,3-7.8,7-7.8c5.3,0,6.9,5,6.8,8.6h-11.2
		c-0.1,2.6,1.4,4.9,4.7,4.9c2.1,0,3.5-1,3.9-2.9H738.7z M736.3,97.5c-0.1-2.3-1.9-4.2-4.3-4.2c-2.6,0-4.1,1.9-4.3,4.2H736.3z"/>
	<path class="st5" d="M741.6,85.7h2.5v20.7h-2.5V85.7z"/>
	<path class="st5" d="M750.5,88.8h-2.5v-3h2.5V88.8z M748.1,91.5h2.5v15h-2.5V91.5z"/>
	<path class="st5" d="M754.3,91.5h2.3v2.4h0.1c1-1.9,2.7-2.7,4.9-2.7c3.9,0,5.2,2.3,5.2,5.5v9.9h-2.5V96.3c0-1.9-1.2-3-3-3
		c-3,0-4.4,2-4.4,4.7v8.5h-2.5V91.5z"/>
	<path class="st5" d="M783.4,105.2c0,4.9-2.2,7.4-7,7.4c-2.8,0-6.1-1.2-6.2-4.4h2.5c0.1,1.8,2.3,2.4,3.9,2.4c3.2,0,4.5-2.3,4.5-5.7
		v-1H781c-0.8,1.8-2.8,2.7-4.7,2.7c-4.5,0-6.7-3.5-6.7-7.6c0-3.5,1.7-7.9,6.9-7.9c1.9,0,3.6,0.8,4.5,2.5h0v-2.1h2.3V105.2z
		 M781,98.7c0-2.6-1.2-5.4-4.3-5.4c-3.2,0-4.4,2.6-4.4,5.5c0,2.7,1,5.7,4.2,5.7C779.8,104.5,781,101.5,781,98.7z"/>
	<path class="st5" d="M808.5,106.4c-0.4,0.3-1,0.4-1.8,0.4c-1.3,0-2.1-0.7-2.1-2.3c-1.4,1.6-3.2,2.3-5.3,2.3c-2.7,0-5-1.2-5-4.2
		c0-3.4,2.5-4.1,5.1-4.6c2.7-0.6,5-0.3,5-2.2c0-2.2-1.8-2.5-3.3-2.5c-2.1,0-3.6,0.6-3.7,2.8h-2.5c0.1-3.7,3-5,6.4-5
		c2.7,0,5.6,0.6,5.6,4.1v7.7c0,1.2,0,1.7,0.8,1.7c0.2,0,0.5-0.1,0.8-0.1V106.4z M804.5,98.7c-1.9,1.4-7.5,0-7.5,3.7
		c0,1.6,1.4,2.2,2.9,2.2c3.2,0,4.6-2,4.6-3.4V98.7z"/>
	<path class="st5" d="M812.3,101.7c0.1,2.2,2,2.9,4,2.9c1.5,0,3.6-0.3,3.6-2.2c0-3.9-9.8-1.2-9.8-7c0-3,3-4.3,5.6-4.3
		c3.4,0,5.9,1,6.1,4.7h-2.5c-0.1-1.9-1.9-2.5-3.5-2.5c-1.5,0-3.2,0.4-3.2,1.9c0,1.7,2.6,2.1,4.9,2.6c2.5,0.6,4.9,1.4,4.9,4.3
		c0,3.6-3.3,4.7-6.4,4.7c-3.4,0-6.2-1.4-6.4-5.1H812.3z"/>
	<path class="st5" d="M846.7,106.5h-2.5v-2h-0.1c-0.8,1.7-2.7,2.4-4.8,2.4c-4.6,0-6.9-3.7-6.9-7.9c0-4.2,2.3-7.8,6.8-7.8
		c1.5,0,3.8,0.6,4.8,2.3h0.1v-7.7h2.5V106.5z M839.8,104.6c3.3,0,4.6-2.9,4.6-5.7c0-2.9-1.3-5.7-4.7-5.7c-3.4,0-4.5,2.9-4.5,5.8
		C835.1,101.9,836.6,104.6,839.8,104.6z"/>
	<path class="st5" d="M863.3,101.7c-0.7,3.3-3,5.1-6.4,5.1c-4.8,0-7-3.3-7.2-7.9c0-4.5,3-7.8,7-7.8c5.3,0,6.9,5,6.8,8.6h-11.2
		c-0.1,2.6,1.4,4.9,4.7,4.9c2.1,0,3.5-1,3.9-2.9H863.3z M860.9,97.5c-0.1-2.3-1.9-4.2-4.3-4.2c-2.6,0-4.1,1.9-4.3,4.2H860.9z"/>
	<path class="st5" d="M867.6,101.7c0.1,2.2,2,2.9,4,2.9c1.5,0,3.6-0.3,3.6-2.2c0-3.9-9.8-1.2-9.8-7c0-3,3-4.3,5.6-4.3
		c3.4,0,5.9,1,6.1,4.7h-2.5c-0.1-1.9-1.9-2.5-3.5-2.5c-1.5,0-3.2,0.4-3.2,1.9c0,1.7,2.6,2.1,4.9,2.6c2.5,0.6,4.9,1.4,4.9,4.3
		c0,3.6-3.3,4.7-6.4,4.7c-3.4,0-6.2-1.4-6.4-5.1H867.6z"/>
	<path class="st5" d="M883.2,88.8h-2.5v-3h2.5V88.8z M880.7,91.5h2.5v15h-2.5V91.5z"/>
	<path class="st5" d="M900,105.2c0,4.9-2.2,7.4-7,7.4c-2.8,0-6.1-1.2-6.2-4.4h2.5c0.1,1.8,2.3,2.4,3.9,2.4c3.2,0,4.5-2.3,4.5-5.7v-1
		h-0.1c-0.8,1.8-2.8,2.7-4.7,2.7c-4.5,0-6.7-3.5-6.7-7.6c0-3.5,1.7-7.9,6.9-7.9c1.9,0,3.6,0.8,4.5,2.5h0v-2.1h2.3V105.2z
		 M897.5,98.7c0-2.6-1.2-5.4-4.3-5.4c-3.2,0-4.4,2.6-4.4,5.5c0,2.7,1,5.7,4.2,5.7C896.3,104.5,897.5,101.5,897.5,98.7z"/>
	<path class="st5" d="M903.7,91.5h2.3v2.4h0.1c1-1.9,2.7-2.7,4.9-2.7c3.9,0,5.2,2.3,5.2,5.5v9.9h-2.5V96.3c0-1.9-1.2-3-3-3
		c-3,0-4.4,2-4.4,4.7v8.5h-2.5V91.5z"/>
	<path class="st5" d="M930.5,88.8H928v-3h2.5V88.8z M928,91.5h2.5v15H928V91.5z"/>
	<path class="st5" d="M934.3,91.5h2.3v2.4h0.1c1-1.9,2.7-2.7,4.9-2.7c3.9,0,5.2,2.3,5.2,5.5v9.9h-2.5V96.3c0-1.9-1.2-3-3-3
		c-3,0-4.4,2-4.4,4.7v8.5h-2.5V91.5z"/>
	<path class="st5" d="M950.5,91.5h2.5v2h0.1c0.8-1.7,2.7-2.4,4.8-2.4c4.6,0,6.9,3.7,6.9,7.9c0,4.3-2.3,7.8-6.8,7.8
		c-1.5,0-3.8-0.6-4.8-2.3H953v7.7h-2.5V91.5z M957.5,93.3c-3.3,0-4.6,2.9-4.6,5.7c0,2.9,1.3,5.7,4.7,5.7c3.4,0,4.5-2.9,4.5-5.8
		C962.1,96,960.7,93.3,957.5,93.3z"/>
	<path class="st5" d="M980,106.5h-2.3v-2.4h-0.1c-1,1.9-2.7,2.7-4.9,2.7c-3.9,0-5.2-2.3-5.2-5.5v-9.9h2.5v10.2c0,1.9,1.2,3,3,3
		c3,0,4.4-2,4.4-4.7v-8.5h2.5V106.5z"/>
	<path class="st5" d="M987.2,91.5h3v2.2h-3v9.3c0,1.2,0.3,1.3,1.9,1.3h1.1v2.2h-1.9c-2.6,0-3.6-0.5-3.6-3.3v-9.5h-2.6v-2.2h2.6V87
		h2.5V91.5z"/>
	<path class="st5" d="M994.4,101.7c0.1,2.2,2,2.9,4,2.9c1.5,0,3.6-0.3,3.6-2.2c0-3.9-9.8-1.2-9.8-7c0-3,3-4.3,5.6-4.3
		c3.4,0,5.9,1,6.1,4.7h-2.5c-0.1-1.9-1.9-2.5-3.5-2.5c-1.5,0-3.2,0.4-3.2,1.9c0,1.7,2.6,2.1,4.9,2.6c2.5,0.6,4.9,1.4,4.9,4.3
		c0,3.6-3.3,4.7-6.4,4.7c-3.4,0-6.2-1.4-6.4-5.1H994.4z"/>
</g>
<rect x="1196.3" y="805.4" class="st6" width="381.5" height="106.9"/>
<g>
	<rect x="1207.2" y="820.2" class="st4" width="349.8" height="109"/>
	<path class="st5" d="M1214.4,820.2h9.7c3.9,0,6.3,2.1,6.3,5.4c0,2.5-1.1,4.6-3.6,5.3v0.1c2.4,0.5,2.9,2.3,3.1,4.3
		c0.1,2,0.1,4.3,1.2,5.7h-3.1c-0.8-0.8-0.3-3.1-0.8-5.1c-0.3-2-0.8-3.7-3.5-3.7h-6.7v8.8h-2.8V820.2z M1222.9,829.7
		c2.6,0,4.8-0.7,4.8-3.7c0-2.1-1.1-3.5-3.7-3.5h-6.8v7.2H1222.9z"/>
	<path class="st5" d="M1246.6,836.1c-0.7,3.3-3,5.1-6.4,5.1c-4.8,0-7-3.3-7.2-7.9c0-4.5,3-7.8,7-7.8c5.3,0,6.9,5,6.8,8.6h-11.2
		c-0.1,2.6,1.4,4.9,4.7,4.9c2.1,0,3.5-1,3.9-2.9H1246.6z M1244.3,832c-0.1-2.3-1.9-4.2-4.3-4.2c-2.6,0-4.1,1.9-4.3,4.2H1244.3z"/>
	<path class="st5" d="M1252.8,825.9h3v2.2h-3v9.3c0,1.2,0.3,1.3,1.9,1.3h1.1v2.2h-1.9c-2.6,0-3.6-0.5-3.6-3.3v-9.5h-2.6v-2.2h2.6
		v-4.5h2.5V825.9z"/>
	<path class="st5" d="M1271,840.9h-2.3v-2.4h-0.1c-1,1.9-2.7,2.7-4.9,2.7c-3.9,0-5.2-2.3-5.2-5.5v-9.9h2.5V836c0,1.9,1.2,3,3,3
		c3,0,4.4-2,4.4-4.7v-8.5h2.5V840.9z"/>
	<path class="st5" d="M1274.6,825.9h2.3v3.2h0.1c1.2-2.4,2.8-3.6,5.5-3.5v2.6c-4,0-5.4,2.2-5.4,6.1v6.7h-2.5V825.9z"/>
	<path class="st5" d="M1284.3,825.9h2.3v2.4h0.1c1-1.9,2.7-2.7,4.9-2.7c3.9,0,5.2,2.3,5.2,5.5v9.9h-2.5v-10.2c0-1.9-1.2-3-3-3
		c-3,0-4.4,2-4.4,4.7v8.5h-2.5V825.9z"/>
	<path class="st5" d="M1311.9,825.9h3v2.2h-3v9.3c0,1.2,0.3,1.3,1.9,1.3h1.1v2.2h-1.9c-2.6,0-3.6-0.5-3.6-3.3v-9.5h-2.6v-2.2h2.6
		v-4.5h2.5V825.9z"/>
	<path class="st5" d="M1324.1,825.5c4.8,0,7.3,3.5,7.3,7.9c0,4.4-2.5,7.8-7.3,7.8c-4.8,0-7.3-3.5-7.3-7.8
		C1316.8,829,1319.4,825.5,1324.1,825.5z M1324.1,839.1c2.6,0,4.7-2,4.7-5.7c0-3.6-2.1-5.7-4.7-5.7c-2.6,0-4.7,2.1-4.7,5.7
		C1319.4,837,1321.5,839.1,1324.1,839.1z"/>
	<path class="st5" d="M1355.8,840.9h-2.5v-2h-0.1c-0.8,1.7-2.7,2.4-4.8,2.4c-4.6,0-6.9-3.7-6.9-7.9c0-4.2,2.3-7.8,6.8-7.8
		c1.5,0,3.8,0.6,4.8,2.3h0.1v-7.7h2.5V840.9z M1348.8,839.1c3.3,0,4.6-2.9,4.6-5.7c0-2.9-1.3-5.7-4.7-5.7c-3.4,0-4.5,2.9-4.5,5.8
		C1344.2,836.3,1345.6,839.1,1348.8,839.1z"/>
	<path class="st5" d="M1372.3,836.1c-0.7,3.3-3,5.1-6.4,5.1c-4.8,0-7-3.3-7.2-7.9c0-4.5,3-7.8,7-7.8c5.3,0,6.9,5,6.8,8.6h-11.2
		c-0.1,2.6,1.4,4.9,4.7,4.9c2.1,0,3.5-1,3.9-2.9H1372.3z M1370,832c-0.1-2.3-1.9-4.2-4.3-4.2c-2.6,0-4.1,1.9-4.3,4.2H1370z"/>
	<path class="st5" d="M1381.9,840.9h-2.6l-5.6-15h2.8l4.2,12.5h0.1l4.1-12.5h2.6L1381.9,840.9z"/>
	<path class="st5" d="M1402.4,836.1c-0.7,3.3-3,5.1-6.4,5.1c-4.8,0-7-3.3-7.2-7.9c0-4.5,3-7.8,7-7.8c5.3,0,6.9,5,6.8,8.6h-11.2
		c-0.1,2.6,1.4,4.9,4.7,4.9c2.1,0,3.5-1,3.9-2.9H1402.4z M1400,832c-0.1-2.3-1.9-4.2-4.3-4.2c-2.6,0-4.1,1.9-4.3,4.2H1400z"/>
	<path class="st5" d="M1405.3,820.2h2.5v20.7h-2.5V820.2z"/>
	<path class="st5" d="M1418.1,825.5c4.8,0,7.3,3.5,7.3,7.9c0,4.4-2.5,7.8-7.3,7.8c-4.8,0-7.3-3.5-7.3-7.8
		C1410.8,829,1413.3,825.5,1418.1,825.5z M1418.1,839.1c2.6,0,4.7-2,4.7-5.7c0-3.6-2.1-5.7-4.7-5.7c-2.6,0-4.7,2.1-4.7,5.7
		C1413.4,837,1415.5,839.1,1418.1,839.1z"/>
	<path class="st5" d="M1428.4,825.9h2.5v2h0.1c0.8-1.7,2.7-2.4,4.8-2.4c4.6,0,6.9,3.7,6.9,7.9c0,4.3-2.3,7.8-6.8,7.8
		c-1.5,0-3.8-0.6-4.8-2.3h-0.1v7.7h-2.5V825.9z M1435.3,827.7c-3.3,0-4.6,2.9-4.6,5.7c0,2.9,1.3,5.7,4.7,5.7c3.4,0,4.5-2.9,4.5-5.8
		C1440,830.5,1438.5,827.7,1435.3,827.7z"/>
	<path class="st5" d="M1445.5,825.9h2.3v2.2h0.1c1.1-1.7,2.7-2.6,4.8-2.6c1.9,0,3.5,0.7,4.1,2.6c1-1.6,2.8-2.6,4.7-2.6
		c3,0,5,1.2,5,4.4v11h-2.5v-9.8c0-1.9-0.5-3.3-2.9-3.3c-2.4,0-3.9,1.5-3.9,3.8v9.3h-2.5v-9.8c0-1.9-0.6-3.3-2.8-3.3
		c-2.9,0-4,2.7-4,3.8v9.3h-2.5V825.9z"/>
	<path class="st5" d="M1483,836.1c-0.7,3.3-3,5.1-6.4,5.1c-4.8,0-7-3.3-7.2-7.9c0-4.5,3-7.8,7-7.8c5.3,0,6.9,5,6.8,8.6H1472
		c-0.1,2.6,1.4,4.9,4.7,4.9c2.1,0,3.5-1,3.9-2.9H1483z M1480.6,832c-0.1-2.3-1.9-4.2-4.3-4.2c-2.6,0-4.1,1.9-4.3,4.2H1480.6z"/>
	<path class="st5" d="M1485.8,825.9h2.3v2.4h0.1c1-1.9,2.7-2.7,4.9-2.7c3.9,0,5.2,2.3,5.2,5.5v9.9h-2.5v-10.2c0-1.9-1.2-3-3-3
		c-3,0-4.4,2-4.4,4.7v8.5h-2.5V825.9z"/>
	<path class="st5" d="M1505.3,825.9h3v2.2h-3v9.3c0,1.2,0.3,1.3,1.9,1.3h1.1v2.2h-1.9c-2.6,0-3.6-0.5-3.6-3.3v-9.5h-2.6v-2.2h2.6
		v-4.5h2.5V825.9z"/>
	<path class="st5" d="M1520.1,828.1h-2.5v-2.2h2.5v-2.2c0-2.4,1.5-3.7,4.1-3.7c0.5,0,1.1,0.1,1.6,0.2v2.1c-0.4-0.1-1-0.2-1.4-0.2
		c-1.2,0-1.9,0.4-1.9,1.7v2.1h2.9v2.2h-2.9v12.8h-2.5V828.1z"/>
	<path class="st5" d="M1534.2,825.5c4.8,0,7.3,3.5,7.3,7.9c0,4.4-2.5,7.8-7.3,7.8c-4.8,0-7.3-3.5-7.3-7.8
		C1526.9,829,1529.4,825.5,1534.2,825.5z M1534.2,839.1c2.6,0,4.7-2,4.7-5.7c0-3.6-2.1-5.7-4.7-5.7c-2.6,0-4.7,2.1-4.7,5.7
		C1529.5,837,1531.6,839.1,1534.2,839.1z"/>
	<path class="st5" d="M1544.2,825.9h2.3v3.2h0.1c1.2-2.4,2.8-3.6,5.5-3.5v2.6c-4,0-5.4,2.2-5.4,6.1v6.7h-2.5V825.9z"/>
	<path class="st5" d="M1225.2,860.7h2.3v3.2h0.1c1.2-2.4,2.8-3.6,5.5-3.5v2.6c-4,0-5.4,2.2-5.4,6.1v6.7h-2.5V860.7z"/>
	<path class="st5" d="M1247.7,870.9c-0.7,3.3-3,5.1-6.4,5.1c-4.8,0-7-3.3-7.2-7.9c0-4.5,3-7.8,7-7.8c5.3,0,6.9,5,6.8,8.6h-11.2
		c-0.1,2.6,1.4,4.9,4.7,4.9c2.1,0,3.5-1,3.9-2.9H1247.7z M1245.3,866.8c-0.1-2.3-1.9-4.2-4.3-4.2c-2.6,0-4.1,1.9-4.3,4.2H1245.3z"/>
	<path class="st5" d="M1250.6,855h2.5v20.7h-2.5V855z"/>
	<path class="st5" d="M1269.7,870.9c-0.7,3.3-3,5.1-6.4,5.1c-4.8,0-7-3.3-7.2-7.9c0-4.5,3-7.8,7-7.8c5.3,0,6.9,5,6.8,8.6h-11.2
		c-0.1,2.6,1.4,4.9,4.7,4.9c2.1,0,3.5-1,3.9-2.9H1269.7z M1267.3,866.8c-0.1-2.3-1.9-4.2-4.3-4.2c-2.6,0-4.1,1.9-4.3,4.2H1267.3z"/>
	<path class="st5" d="M1285.8,875.6c-0.4,0.3-1,0.4-1.8,0.4c-1.3,0-2.1-0.7-2.1-2.3c-1.4,1.6-3.2,2.3-5.3,2.3c-2.7,0-5-1.2-5-4.2
		c0-3.4,2.5-4.1,5.1-4.6c2.7-0.6,5-0.3,5-2.2c0-2.2-1.8-2.5-3.3-2.5c-2.1,0-3.6,0.6-3.7,2.8h-2.5c0.1-3.7,3-5,6.4-5
		c2.7,0,5.6,0.6,5.6,4.1v7.7c0,1.2,0,1.7,0.8,1.7c0.2,0,0.5-0.1,0.8-0.1V875.6z M1281.8,867.9c-1.9,1.4-7.5,0-7.5,3.7
		c0,1.6,1.4,2.2,2.9,2.2c3.2,0,4.6-2,4.6-3.4V867.9z"/>
	<path class="st5" d="M1289.6,871c0.1,2.2,2,2.9,4,2.9c1.5,0,3.6-0.3,3.6-2.2c0-3.9-9.8-1.2-9.8-7c0-3,3-4.3,5.6-4.3
		c3.4,0,5.9,1,6.1,4.7h-2.5c-0.1-1.9-1.9-2.5-3.5-2.5c-1.5,0-3.2,0.4-3.2,1.9c0,1.7,2.6,2.1,4.9,2.6c2.5,0.6,4.9,1.4,4.9,4.3
		c0,3.6-3.3,4.7-6.4,4.7c-3.4,0-6.2-1.4-6.4-5.1H1289.6z"/>
	<path class="st5" d="M1315.4,870.9c-0.7,3.3-3,5.1-6.4,5.1c-4.8,0-7-3.3-7.2-7.9c0-4.5,3-7.8,7-7.8c5.3,0,6.9,5,6.8,8.6h-11.2
		c-0.1,2.6,1.4,4.9,4.7,4.9c2.1,0,3.5-1,3.9-2.9H1315.4z M1313,866.8c-0.1-2.3-1.9-4.2-4.3-4.2c-2.6,0-4.1,1.9-4.3,4.2H1313z"/>
	<path class="st5" d="M1339.5,875.6c-0.4,0.3-1,0.4-1.8,0.4c-1.3,0-2.1-0.7-2.1-2.3c-1.4,1.6-3.2,2.3-5.3,2.3c-2.7,0-5-1.2-5-4.2
		c0-3.4,2.5-4.1,5.1-4.6c2.7-0.6,5-0.3,5-2.2c0-2.2-1.8-2.5-3.3-2.5c-2.1,0-3.6,0.6-3.7,2.8h-2.5c0.1-3.7,3-5,6.4-5
		c2.7,0,5.6,0.6,5.6,4.1v7.7c0,1.2,0,1.7,0.8,1.7c0.2,0,0.5-0.1,0.8-0.1V875.6z M1335.5,867.9c-1.9,1.4-7.5,0-7.5,3.7
		c0,1.6,1.4,2.2,2.9,2.2c3.2,0,4.6-2,4.6-3.4V867.9z"/>
	<path class="st5" d="M1341.8,860.7h2.3v2.4h0.1c1-1.9,2.7-2.7,4.9-2.7c3.9,0,5.2,2.3,5.2,5.5v9.9h-2.5v-10.2c0-1.9-1.2-3-3-3
		c-3,0-4.4,2-4.4,4.7v8.5h-2.5V860.7z"/>
	<path class="st5" d="M1371.3,875.7h-2.5v-2h-0.1c-0.8,1.7-2.7,2.4-4.8,2.4c-4.6,0-6.9-3.7-6.9-7.9c0-4.2,2.3-7.8,6.8-7.8
		c1.5,0,3.8,0.6,4.8,2.3h0.1V855h2.5V875.7z M1364.3,873.9c3.3,0,4.6-2.9,4.6-5.7c0-2.9-1.3-5.7-4.7-5.7c-3.4,0-4.5,2.9-4.5,5.8
		C1359.7,871.1,1361.2,873.9,1364.3,873.9z"/>
	<path class="st5" d="M1396.6,875.7h-2.5v-2h-0.1c-0.8,1.7-2.7,2.4-4.8,2.4c-4.6,0-6.9-3.7-6.9-7.9c0-4.2,2.3-7.8,6.8-7.8
		c1.5,0,3.8,0.6,4.8,2.3h0.1V855h2.5V875.7z M1389.6,873.9c3.3,0,4.6-2.9,4.6-5.7c0-2.9-1.3-5.7-4.7-5.7c-3.4,0-4.5,2.9-4.5,5.8
		C1385,871.1,1386.4,873.9,1389.6,873.9z"/>
	<path class="st5" d="M1403,858h-2.5v-3h2.5V858z M1400.5,860.7h2.5v15h-2.5V860.7z"/>
	<path class="st5" d="M1408.3,871c0.1,2.2,2,2.9,4,2.9c1.5,0,3.6-0.3,3.6-2.2c0-3.9-9.8-1.2-9.8-7c0-3,3-4.3,5.6-4.3
		c3.4,0,5.9,1,6.1,4.7h-2.5c-0.1-1.9-1.9-2.5-3.5-2.5c-1.5,0-3.2,0.4-3.2,1.9c0,1.7,2.6,2.1,4.9,2.6c2.5,0.6,4.9,1.4,4.9,4.3
		c0,3.6-3.3,4.7-6.4,4.7c-3.4,0-6.2-1.4-6.4-5.1H1408.3z"/>
	<path class="st5" d="M1424.7,860.7h3v2.2h-3v9.3c0,1.2,0.3,1.3,1.9,1.3h1.1v2.2h-1.9c-2.6,0-3.6-0.5-3.6-3.3v-9.5h-2.6v-2.2h2.6
		v-4.5h2.5V860.7z"/>
	<path class="st5" d="M1430.3,860.7h2.3v3.2h0.1c1.2-2.4,2.8-3.6,5.5-3.5v2.6c-4,0-5.4,2.2-5.4,6.1v6.7h-2.5V860.7z"/>
	<path class="st5" d="M1442.7,858h-2.5v-3h2.5V858z M1440.2,860.7h2.5v15h-2.5V860.7z"/>
	<path class="st5" d="M1446.6,855h2.5v7.7h0.1c0.8-1.7,2.7-2.4,4.8-2.4c4.6,0,6.9,3.7,6.9,7.9c0,4.3-2.3,7.8-6.8,7.8
		c-1.5,0-3.8-0.6-4.8-2.3h-0.1v2h-2.5V855z M1453.6,862.5c-3.3,0-4.6,2.9-4.6,5.7c0,2.9,1.3,5.7,4.7,5.7c3.4,0,4.5-2.9,4.5-5.8
		C1458.2,865.3,1456.8,862.5,1453.6,862.5z"/>
	<path class="st5" d="M1476.1,875.7h-2.3v-2.4h-0.1c-1,1.9-2.7,2.7-4.9,2.7c-3.9,0-5.2-2.3-5.2-5.5v-9.9h2.5v10.2c0,1.9,1.2,3,3,3
		c3,0,4.4-2,4.4-4.7v-8.5h2.5V875.7z"/>
	<path class="st5" d="M1483.3,860.7h3v2.2h-3v9.3c0,1.2,0.3,1.3,1.9,1.3h1.1v2.2h-1.9c-2.6,0-3.6-0.5-3.6-3.3v-9.5h-2.6v-2.2h2.6
		v-4.5h2.5V860.7z"/>
	<path class="st5" d="M1491.6,858h-2.5v-3h2.5V858z M1489.1,860.7h2.5v15h-2.5V860.7z"/>
	<path class="st5" d="M1501.9,860.3c4.8,0,7.3,3.5,7.3,7.9c0,4.4-2.5,7.8-7.3,7.8c-4.8,0-7.3-3.5-7.3-7.8
		C1494.6,863.8,1497.1,860.3,1501.9,860.3z M1501.9,873.9c2.6,0,4.7-2,4.7-5.7c0-3.6-2.1-5.7-4.7-5.7c-2.6,0-4.7,2.1-4.7,5.7
		C1497.2,871.8,1499.3,873.9,1501.9,873.9z"/>
	<path class="st5" d="M1512.1,860.7h2.3v2.4h0.1c1-1.9,2.7-2.7,4.9-2.7c3.9,0,5.2,2.3,5.2,5.5v9.9h-2.5v-10.2c0-1.9-1.2-3-3-3
		c-3,0-4.4,2-4.4,4.7v8.5h-2.5V860.7z"/>
	<path class="st5" d="M1529.7,871c0.1,2.2,2,2.9,4,2.9c1.5,0,3.6-0.3,3.6-2.2c0-3.9-9.8-1.2-9.8-7c0-3,3-4.3,5.6-4.3
		c3.4,0,5.9,1,6.1,4.7h-2.5c-0.1-1.9-1.9-2.5-3.5-2.5c-1.5,0-3.2,0.4-3.2,1.9c0,1.7,2.6,2.1,4.9,2.6c2.5,0.6,4.9,1.4,4.9,4.3
		c0,3.6-3.3,4.7-6.4,4.7c-3.4,0-6.2-1.4-6.4-5.1H1529.7z"/>
</g>
<rect x="1501.5" y="26.2" class="st7" width="381.1" height="106.9"/>
<g>
	<rect x="1512.5" y="36.5" class="st4" width="360" height="93.7"/>
	<path class="st5" d="M1516.5,36.5h9.7c3.9,0,6.3,2.1,6.3,5.4c0,2.5-1.1,4.6-3.6,5.2v0.1c2.4,0.5,2.9,2.3,3.1,4.3
		c0.1,2,0.1,4.3,1.2,5.7h-3.1c-0.8-0.8-0.3-3.1-0.8-5.1c-0.3-2-0.8-3.7-3.5-3.7h-6.7v8.8h-2.8V36.5z M1524.9,46.1
		c2.6,0,4.8-0.7,4.8-3.7c0-2.1-1.1-3.5-3.7-3.5h-6.8v7.2H1524.9z"/>
	<path class="st5" d="M1548.7,52.5c-0.7,3.3-3,5.1-6.4,5.1c-4.8,0-7-3.3-7.2-7.9c0-4.5,3-7.8,7-7.8c5.3,0,6.9,5,6.8,8.6h-11.2
		c-0.1,2.6,1.4,4.9,4.7,4.9c2.1,0,3.5-1,3.9-2.9H1548.7z M1546.3,48.3c-0.1-2.3-1.9-4.2-4.3-4.2c-2.6,0-4.1,1.9-4.3,4.2H1546.3z"/>
	<path class="st5" d="M1564.9,63h-2.5v-7.8h-0.1c-0.8,1.7-2.7,2.4-4.8,2.4c-4.6,0-6.9-3.7-6.9-7.9c0-4.2,2.3-7.8,6.8-7.8
		c1.5,0,3.8,0.6,4.8,2.3h0.1v-2h2.5V63z M1557.9,55.4c3.3,0,4.6-2.9,4.6-5.7c0-2.9-1.3-5.7-4.7-5.7c-3.4,0-4.5,2.9-4.5,5.8
		C1553.3,52.7,1554.7,55.4,1557.9,55.4z"/>
	<path class="st5" d="M1581.1,57.2h-2.3v-2.4h-0.1c-1,1.9-2.7,2.7-4.9,2.7c-3.9,0-5.2-2.3-5.2-5.5v-9.9h2.5v10.2c0,1.9,1.2,3,3,3
		c3,0,4.4-2,4.4-4.7v-8.5h2.5V57.2z"/>
	<path class="st5" d="M1597.6,52.5c-0.7,3.3-3,5.1-6.4,5.1c-4.8,0-7-3.3-7.2-7.9c0-4.5,3-7.8,7-7.8c5.3,0,6.9,5,6.8,8.6h-11.2
		c-0.1,2.6,1.4,4.9,4.7,4.9c2.1,0,3.5-1,3.9-2.9H1597.6z M1595.2,48.3c-0.1-2.3-1.9-4.2-4.3-4.2c-2.6,0-4.1,1.9-4.3,4.2H1595.2z"/>
	<path class="st5" d="M1601.9,52.5c0.1,2.2,2,2.9,4,2.9c1.5,0,3.6-0.3,3.6-2.2c0-3.9-9.8-1.2-9.8-7c0-3,3-4.3,5.6-4.3
		c3.4,0,5.9,1,6.1,4.7h-2.5c-0.1-1.9-1.9-2.5-3.5-2.5c-1.5,0-3.2,0.4-3.2,1.9c0,1.7,2.6,2.1,4.9,2.6c2.5,0.6,4.9,1.4,4.9,4.3
		c0,3.6-3.3,4.7-6.4,4.7c-3.4,0-6.2-1.4-6.4-5.1H1601.9z"/>
	<path class="st5" d="M1618.3,42.2h3v2.2h-3v9.3c0,1.2,0.3,1.3,1.9,1.3h1.1v2.2h-1.9c-2.6,0-3.6-0.5-3.6-3.3v-9.5h-2.6v-2.2h2.6
		v-4.5h2.5V42.2z"/>
	<path class="st5" d="M1644.5,57.2h-2.3v-2.4h-0.1c-1,1.9-2.7,2.7-4.9,2.7c-3.9,0-5.2-2.3-5.2-5.5v-9.9h2.5v10.2c0,1.9,1.2,3,3,3
		c3,0,4.4-2,4.4-4.7v-8.5h2.5V57.2z"/>
	<path class="st5" d="M1648.2,42.2h2.3v2.4h0.1c1-1.9,2.7-2.7,4.9-2.7c3.9,0,5.2,2.3,5.2,5.5v9.9h-2.5V47.1c0-1.9-1.2-3-3-3
		c-3,0-4.4,2-4.4,4.7v8.5h-2.5V42.2z"/>
	<path class="st5" d="M1666.9,39.5h-2.5v-3h2.5V39.5z M1664.5,42.2h2.5v15h-2.5V42.2z"/>
	<path class="st5" d="M1684.2,63h-2.5v-7.8h-0.1c-0.8,1.7-2.7,2.4-4.8,2.4c-4.6,0-6.9-3.7-6.9-7.9c0-4.2,2.3-7.8,6.8-7.8
		c1.5,0,3.8,0.6,4.8,2.3h0.1v-2h2.5V63z M1677.2,55.4c3.3,0,4.6-2.9,4.6-5.7c0-2.9-1.3-5.7-4.7-5.7c-3.4,0-4.5,2.9-4.5,5.8
		C1672.6,52.7,1674,55.4,1677.2,55.4z"/>
	<path class="st5" d="M1700.4,57.2h-2.3v-2.4h-0.1c-1,1.9-2.7,2.7-4.9,2.7c-3.9,0-5.2-2.3-5.2-5.5v-9.9h2.5v10.2c0,1.9,1.2,3,3,3
		c3,0,4.4-2,4.4-4.7v-8.5h2.5V57.2z"/>
	<path class="st5" d="M1716.9,52.5c-0.7,3.3-3,5.1-6.4,5.1c-4.8,0-7-3.3-7.2-7.9c0-4.5,3-7.8,7-7.8c5.3,0,6.9,5,6.8,8.6h-11.2
		c-0.1,2.6,1.4,4.9,4.7,4.9c2.1,0,3.5-1,3.9-2.9H1716.9z M1714.5,48.3c-0.1-2.3-1.9-4.2-4.3-4.2c-2.6,0-4.1,1.9-4.3,4.2H1714.5z"/>
	<path class="st5" d="M1730.3,39.5h-2.5v-3h2.5V39.5z M1727.9,42.2h2.5v15h-2.5V42.2z"/>
	<path class="st5" d="M1747.5,57.2h-2.5v-2h-0.1c-0.8,1.7-2.7,2.4-4.8,2.4c-4.6,0-6.9-3.7-6.9-7.9c0-4.2,2.3-7.8,6.8-7.8
		c1.5,0,3.8,0.6,4.8,2.3h0.1v-7.7h2.5V57.2z M1740.6,55.4c3.3,0,4.6-2.9,4.6-5.7c0-2.9-1.3-5.7-4.7-5.7c-3.4,0-4.5,2.9-4.5,5.8
		C1735.9,52.7,1737.4,55.4,1740.6,55.4z"/>
	<path class="st5" d="M1764.1,52.5c-0.7,3.3-3,5.1-6.4,5.1c-4.8,0-7-3.3-7.2-7.9c0-4.5,3-7.8,7-7.8c5.3,0,6.9,5,6.8,8.6h-11.2
		c-0.1,2.6,1.4,4.9,4.7,4.9c2.1,0,3.5-1,3.9-2.9H1764.1z M1761.8,48.3c-0.1-2.3-1.9-4.2-4.3-4.2c-2.6,0-4.1,1.9-4.3,4.2H1761.8z"/>
	<path class="st5" d="M1766.9,42.2h2.3v2.4h0.1c1-1.9,2.7-2.7,4.9-2.7c3.9,0,5.2,2.3,5.2,5.5v9.9h-2.5V47.1c0-1.9-1.2-3-3-3
		c-3,0-4.4,2-4.4,4.7v8.5h-2.5V42.2z"/>
	<path class="st5" d="M1786.5,42.2h3v2.2h-3v9.3c0,1.2,0.3,1.3,1.9,1.3h1.1v2.2h-1.9c-2.6,0-3.6-0.5-3.6-3.3v-9.5h-2.6v-2.2h2.6
		v-4.5h2.5V42.2z"/>
	<path class="st5" d="M1794.8,39.5h-2.5v-3h2.5V39.5z M1792.3,42.2h2.5v15h-2.5V42.2z"/>
	<path class="st5" d="M1799.6,44.4h-2.5v-2.2h2.5V40c0-2.4,1.5-3.7,4.1-3.7c0.5,0,1.1,0.1,1.6,0.2v2.1c-0.4-0.1-1-0.2-1.4-0.2
		c-1.2,0-1.9,0.4-1.9,1.7v2.1h2.9v2.2h-2.9v12.8h-2.5V44.4z M1807.3,39.5v-3h2.5v3H1807.3z M1807.3,57.2v-15h2.5v15H1807.3z"/>
	<path class="st5" d="M1826.4,52.5c-0.7,3.3-3,5.1-6.4,5.1c-4.8,0-7-3.3-7.2-7.9c0-4.5,3-7.8,7-7.8c5.3,0,6.9,5,6.8,8.6h-11.2
		c-0.1,2.6,1.4,4.9,4.7,4.9c2.1,0,3.5-1,3.9-2.9H1826.4z M1824,48.3c-0.1-2.3-1.9-4.2-4.3-4.2c-2.6,0-4.1,1.9-4.3,4.2H1824z"/>
	<path class="st5" d="M1829.1,42.2h2.3v3.2h0.1c1.2-2.4,2.8-3.6,5.5-3.5v2.6c-4,0-5.4,2.2-5.4,6.1v6.7h-2.5V42.2z"/>
	<path class="st5" d="M1850.3,42.2h3v2.2h-3v9.3c0,1.2,0.3,1.3,1.9,1.3h1.1v2.2h-1.9c-2.6,0-3.6-0.5-3.6-3.3v-9.5h-2.6v-2.2h2.6
		v-4.5h2.5V42.2z"/>
	<path class="st5" d="M1862.5,41.9c4.8,0,7.3,3.5,7.3,7.9c0,4.4-2.5,7.8-7.3,7.8c-4.8,0-7.3-3.5-7.3-7.8
		C1855.2,45.3,1857.8,41.9,1862.5,41.9z M1862.5,55.4c2.6,0,4.7-2,4.7-5.7s-2.1-5.7-4.7-5.7c-2.6,0-4.7,2.1-4.7,5.7
		S1859.9,55.4,1862.5,55.4z"/>
	<path class="st5" d="M1566.7,71.3h7.5c1.8,0,4.3,0,5.5,0.8c1.4,0.8,2.4,2.3,2.4,4.3c0,2.2-1.1,3.9-3.1,4.6v0.1
		c2.6,0.6,3.9,2.4,3.9,5c0,3-2.2,5.9-6.3,5.9h-10V71.3z M1569.5,80.2h5.5c3.1,0,4.4-1.1,4.4-3.3c0-2.9-2-3.3-4.4-3.3h-5.5V80.2z
		 M1569.5,89.7h6.9c2.4,0,3.9-1.4,3.9-3.7c0-2.7-2.2-3.5-4.5-3.5h-6.3V89.7z"/>
	<path class="st5" d="M1586.1,77h2.3v3.2h0.1c1.2-2.4,2.8-3.6,5.5-3.5v2.6c-4,0-5.4,2.2-5.4,6.1V92h-2.5V77z"/>
	<path class="st5" d="M1609.1,92c-0.4,0.3-1,0.4-1.8,0.4c-1.3,0-2.1-0.7-2.1-2.3c-1.4,1.6-3.2,2.3-5.3,2.3c-2.7,0-5-1.2-5-4.2
		c0-3.4,2.5-4.1,5.1-4.6c2.7-0.6,5-0.3,5-2.2c0-2.2-1.8-2.5-3.3-2.5c-2.1,0-3.6,0.6-3.7,2.8h-2.5c0.1-3.7,3-5,6.4-5
		c2.7,0,5.6,0.6,5.6,4.1v7.7c0,1.2,0,1.7,0.8,1.7c0.2,0,0.5-0.1,0.8-0.1V92z M1605.1,84.3c-1.9,1.4-7.5,0-7.5,3.7
		c0,1.6,1.4,2.2,2.9,2.2c3.2,0,4.6-2,4.6-3.4V84.3z"/>
	<path class="st5" d="M1611.4,77h2.3v2.4h0.1c1-1.9,2.7-2.7,4.9-2.7c3.9,0,5.2,2.3,5.2,5.5V92h-2.5V81.9c0-1.9-1.2-3-3-3
		c-3,0-4.4,2-4.4,4.7V92h-2.5V77z"/>
	<path class="st5" d="M1640.9,92h-2.5v-2h-0.1c-0.8,1.7-2.7,2.4-4.8,2.4c-4.6,0-6.9-3.7-6.9-7.9c0-4.2,2.3-7.8,6.8-7.8
		c1.5,0,3.8,0.6,4.8,2.3h0.1v-7.7h2.5V92z M1634,90.2c3.3,0,4.6-2.9,4.6-5.7c0-2.9-1.3-5.7-4.7-5.7c-3.4,0-4.5,2.9-4.5,5.8
		C1629.3,87.5,1630.8,90.2,1634,90.2z"/>
	<path class="st5" d="M1653.2,71.3h2.9l10.9,16.8h0.1V71.3h2.6V92h-3l-10.8-16.6h-0.1V92h-2.6V71.3z"/>
	<path class="st5" d="M1686.5,87.3c-0.7,3.3-3,5.1-6.4,5.1c-4.8,0-7-3.3-7.2-7.9c0-4.5,3-7.8,7-7.8c5.3,0,6.9,5,6.8,8.6h-11.2
		c-0.1,2.6,1.4,4.9,4.7,4.9c2.1,0,3.5-1,3.9-2.9H1686.5z M1684.1,83.1c-0.1-2.3-1.9-4.2-4.3-4.2c-2.6,0-4.1,1.9-4.3,4.2H1684.1z"/>
	<path class="st5" d="M1704.1,92h-2.6l-3-11.9h-0.1l-3,11.9h-2.7l-4.8-15h2.7l3.4,12.3h0.1l3-12.3h2.7l3.1,12.3h0.1l3.4-12.3h2.6
		L1704.1,92z"/>
	<path class="st5" d="M1719.7,71.3h9.1c4.1,0,6.4,2.3,6.4,6.1s-2.2,6.1-6.4,6.1h-6.3V92h-2.8V71.3z M1722.5,81.2h5.4
		c3.1,0,4.5-1.3,4.5-3.8c0-2.5-1.4-3.8-4.5-3.8h-5.4V81.2z"/>
	<path class="st5" d="M1738,77h2.3v3.2h0.1c1.2-2.4,2.8-3.6,5.5-3.5v2.6c-4,0-5.4,2.2-5.4,6.1V92h-2.5V77z"/>
	<path class="st5" d="M1754.2,76.7c4.8,0,7.3,3.5,7.3,7.9c0,4.4-2.5,7.8-7.3,7.8c-4.8,0-7.3-3.5-7.3-7.8
		C1747,80.1,1749.5,76.7,1754.2,76.7z M1754.2,90.2c2.6,0,4.7-2,4.7-5.7s-2.1-5.7-4.7-5.7c-2.6,0-4.7,2.1-4.7,5.7
		S1751.7,90.2,1754.2,90.2z"/>
	<path class="st5" d="M1777.8,92h-2.5v-2h-0.1c-0.8,1.7-2.7,2.4-4.8,2.4c-4.6,0-6.9-3.7-6.9-7.9c0-4.2,2.3-7.8,6.8-7.8
		c1.5,0,3.8,0.6,4.8,2.3h0.1v-7.7h2.5V92z M1770.9,90.2c3.3,0,4.6-2.9,4.6-5.7c0-2.9-1.3-5.7-4.7-5.7c-3.4,0-4.5,2.9-4.5,5.8
		C1766.2,87.5,1767.7,90.2,1770.9,90.2z"/>
	<path class="st5" d="M1794,92h-2.3v-2.4h-0.1c-1,1.9-2.7,2.7-4.9,2.7c-3.9,0-5.2-2.3-5.2-5.5V77h2.5v10.2c0,1.9,1.2,3,3,3
		c3,0,4.4-2,4.4-4.7V77h2.5V92z"/>
	<path class="st5" d="M1807.9,81.8c-0.4-1.9-1.7-3-3.7-3c-3.6,0-4.7,2.8-4.7,5.9c0,2.8,1.2,5.5,4.4,5.5c2.4,0,3.8-1.4,4.1-3.7h2.5
		c-0.6,3.7-2.8,5.8-6.6,5.8c-4.6,0-7-3.2-7-7.7s2.3-8,7.1-8c3.4,0,6.1,1.6,6.5,5.2H1807.9z"/>
	<path class="st5" d="M1816.7,77h3v2.2h-3v9.3c0,1.2,0.3,1.3,1.9,1.3h1.1V92h-1.9c-2.6,0-3.6-0.5-3.6-3.3v-9.5h-2.6V77h2.6v-4.5h2.5
		V77z"/>
	<path class="st5" d="M1609.7,106.1h3.8l6.5,17.4l6.6-17.4h3.8v20.7h-2.6v-17.2h-0.1l-6.5,17.2h-2.3l-6.5-17.2h-0.1v17.2h-2.6V106.1
		z"/>
	<path class="st5" d="M1647.8,126.8c-0.4,0.3-1,0.4-1.8,0.4c-1.3,0-2.1-0.7-2.1-2.3c-1.4,1.6-3.2,2.3-5.3,2.3c-2.7,0-5-1.2-5-4.2
		c0-3.4,2.5-4.1,5.1-4.6c2.7-0.6,5-0.3,5-2.2c0-2.2-1.8-2.5-3.3-2.5c-2.1,0-3.6,0.6-3.7,2.8h-2.5c0.1-3.7,3-5,6.4-5
		c2.7,0,5.6,0.6,5.6,4.1v7.7c0,1.2,0,1.7,0.8,1.7c0.2,0,0.5-0.1,0.8-0.1V126.8z M1643.8,119.1c-1.9,1.4-7.5,0-7.5,3.7
		c0,1.6,1.4,2.2,2.9,2.2c3.2,0,4.6-2,4.6-3.4V119.1z"/>
	<path class="st5" d="M1650.1,111.8h2.3v2.4h0.1c1-1.9,2.7-2.7,4.9-2.7c3.9,0,5.2,2.3,5.2,5.5v9.9h-2.5v-10.2c0-1.9-1.2-3-3-3
		c-3,0-4.4,2-4.4,4.7v8.5h-2.5V111.8z"/>
	<path class="st5" d="M1679.5,126.8c-0.4,0.3-1,0.4-1.8,0.4c-1.3,0-2.1-0.7-2.1-2.3c-1.4,1.6-3.2,2.3-5.3,2.3c-2.7,0-5-1.2-5-4.2
		c0-3.4,2.5-4.1,5.1-4.6c2.7-0.6,5-0.3,5-2.2c0-2.2-1.8-2.5-3.3-2.5c-2.1,0-3.6,0.6-3.7,2.8h-2.5c0.1-3.7,3-5,6.4-5
		c2.7,0,5.6,0.6,5.6,4.1v7.7c0,1.2,0,1.7,0.8,1.7c0.2,0,0.5-0.1,0.8-0.1V126.8z M1675.5,119.1c-1.9,1.4-7.5,0-7.5,3.7
		c0,1.6,1.4,2.2,2.9,2.2c3.2,0,4.6-2,4.6-3.4V119.1z"/>
	<path class="st5" d="M1694.7,125.5c0,4.9-2.2,7.4-7,7.4c-2.8,0-6.1-1.2-6.2-4.4h2.5c0.1,1.8,2.3,2.4,3.9,2.4c3.2,0,4.5-2.3,4.5-5.7
		v-1h-0.1c-0.8,1.8-2.8,2.7-4.7,2.7c-4.5,0-6.7-3.5-6.7-7.6c0-3.5,1.7-7.9,6.9-7.9c1.9,0,3.6,0.8,4.5,2.5h0v-2.1h2.3V125.5z
		 M1692.2,119c0-2.6-1.2-5.4-4.3-5.4c-3.2,0-4.4,2.6-4.4,5.5c0,2.7,1,5.7,4.2,5.7C1691,124.8,1692.2,121.8,1692.2,119z"/>
	<path class="st5" d="M1711.2,122.1c-0.7,3.3-3,5.1-6.4,5.1c-4.8,0-7-3.3-7.2-7.9c0-4.5,3-7.8,7-7.8c5.3,0,6.9,5,6.8,8.6h-11.2
		c-0.1,2.6,1.4,4.9,4.7,4.9c2.1,0,3.5-1,3.9-2.9H1711.2z M1708.8,117.9c-0.1-2.3-1.9-4.2-4.3-4.2c-2.6,0-4.1,1.9-4.3,4.2H1708.8z"/>
	<path class="st5" d="M1714,111.8h2.3v2.2h0.1c1.1-1.7,2.7-2.6,4.8-2.6c1.9,0,3.5,0.7,4.1,2.6c1-1.6,2.8-2.6,4.7-2.6
		c3,0,5,1.2,5,4.4v11h-2.5V117c0-1.9-0.5-3.3-2.9-3.3c-2.4,0-3.9,1.5-3.9,3.8v9.3h-2.5V117c0-1.9-0.6-3.3-2.8-3.3
		c-2.9,0-4,2.7-4,3.8v9.3h-2.5V111.8z"/>
	<path class="st5" d="M1751.5,122.1c-0.7,3.3-3,5.1-6.4,5.1c-4.8,0-7-3.3-7.2-7.9c0-4.5,3-7.8,7-7.8c5.3,0,6.9,5,6.8,8.6h-11.2
		c-0.1,2.6,1.4,4.9,4.7,4.9c2.1,0,3.5-1,3.9-2.9H1751.5z M1749.1,117.9c-0.1-2.3-1.9-4.2-4.3-4.2c-2.6,0-4.1,1.9-4.3,4.2H1749.1z"/>
	<path class="st5" d="M1754.3,111.8h2.3v2.4h0.1c1-1.9,2.7-2.7,4.9-2.7c3.9,0,5.2,2.3,5.2,5.5v9.9h-2.5v-10.2c0-1.9-1.2-3-3-3
		c-3,0-4.4,2-4.4,4.7v8.5h-2.5V111.8z"/>
	<path class="st5" d="M1773.8,111.8h3v2.2h-3v9.3c0,1.2,0.3,1.3,1.9,1.3h1.1v2.2h-1.9c-2.6,0-3.6-0.5-3.6-3.3V114h-2.6v-2.2h2.6
		v-4.5h2.5V111.8z"/>
</g>
<g>
	<g>
		<path class="st5" d="M607.2,412.8h2.8v18.4h11v2.3h-13.7V412.8z"/>
		<path class="st5" d="M636.2,433.5c-0.4,0.3-1,0.4-1.8,0.4c-1.3,0-2.1-0.7-2.1-2.3c-1.4,1.6-3.2,2.3-5.3,2.3c-2.7,0-5-1.2-5-4.2
			c0-3.4,2.5-4.1,5.1-4.6c2.7-0.6,5-0.3,5-2.2c0-2.2-1.8-2.5-3.3-2.5c-2.1,0-3.6,0.6-3.7,2.8h-2.5c0.1-3.7,3-5,6.4-5
			c2.7,0,5.6,0.6,5.6,4.1v7.7c0,1.2,0,1.7,0.8,1.7c0.2,0,0.5-0.1,0.8-0.1V433.5z M632.2,425.8c-1.9,1.4-7.5,0-7.5,3.7
			c0,1.6,1.4,2.2,2.9,2.2c3.2,0,4.6-2,4.6-3.4V425.8z"/>
		<path class="st5" d="M638.6,412.8h2.5v7.7h0.1c0.8-1.7,2.7-2.4,4.8-2.4c4.6,0,6.9,3.7,6.9,7.9c0,4.3-2.3,7.8-6.8,7.8
			c-1.5,0-3.8-0.6-4.8-2.3H641v2h-2.5V412.8z M645.5,420.4c-3.3,0-4.6,2.9-4.6,5.7c0,2.9,1.3,5.7,4.7,5.7c3.4,0,4.5-2.9,4.5-5.8
			C650.2,423.1,648.7,420.4,645.5,420.4z"/>
		<path class="st5" d="M668.5,428.8c-0.7,3.3-3,5.1-6.4,5.1c-4.8,0-7-3.3-7.2-7.9c0-4.5,3-7.8,7-7.8c5.3,0,6.9,5,6.8,8.6h-11.2
			c-0.1,2.6,1.4,4.9,4.7,4.9c2.1,0,3.5-1,3.9-2.9H668.5z M666.1,424.6c-0.1-2.3-1.9-4.2-4.3-4.2c-2.6,0-4.1,1.9-4.3,4.2H666.1z"/>
		<path class="st5" d="M671.4,412.8h2.5v20.7h-2.5V412.8z"/>
		<path class="st5" d="M692.5,433.5h-2.6l-5.6-15h2.8l4.2,12.5h0.1l4.1-12.5h2.6L692.5,433.5z"/>
		<path class="st5" d="M701.8,428.8c0.1,2.2,2,2.9,4,2.9c1.5,0,3.6-0.3,3.6-2.2c0-3.9-9.8-1.2-9.8-7c0-3,3-4.3,5.6-4.3
			c3.4,0,5.9,1,6.1,4.7h-2.5c-0.1-1.9-1.9-2.5-3.5-2.5c-1.5,0-3.2,0.4-3.2,1.9c0,1.7,2.6,2.1,4.9,2.6c2.5,0.6,4.9,1.4,4.9,4.3
			c0,3.6-3.3,4.7-6.4,4.7c-3.4,0-6.2-1.4-6.4-5.1H701.8z"/>
		<path class="st5" d="M715.3,430.3h3.2v3.2h-3.2V430.3z"/>
		<path class="st5" d="M731.4,412.8h2.8v20.7h-2.8V412.8z"/>
		<path class="st5" d="M738.4,418.5h2.3v2.4h0.1c1-1.9,2.7-2.7,4.9-2.7c3.9,0,5.2,2.3,5.2,5.5v9.9h-2.5v-10.2c0-1.9-1.2-3-3-3
			c-3,0-4.4,2-4.4,4.7v8.5h-2.5V418.5z"/>
		<path class="st5" d="M756,428.8c0.1,2.2,2,2.9,4,2.9c1.5,0,3.6-0.3,3.6-2.2c0-3.9-9.8-1.2-9.8-7c0-3,3-4.3,5.6-4.3
			c3.4,0,5.9,1,6.1,4.7h-2.5c-0.1-1.9-1.9-2.5-3.5-2.5c-1.5,0-3.2,0.4-3.2,1.9c0,1.7,2.6,2.1,4.9,2.6c2.5,0.6,4.9,1.4,4.9,4.3
			c0,3.6-3.3,4.7-6.4,4.7c-3.4,0-6.2-1.4-6.4-5.1H756z"/>
		<path class="st5" d="M772.4,418.5h3v2.2h-3v9.3c0,1.2,0.3,1.3,1.9,1.3h1.1v2.2h-1.9c-2.6,0-3.6-0.5-3.6-3.3v-9.5h-2.6v-2.2h2.6
			V414h2.5V418.5z"/>
		<path class="st5" d="M778,418.5h2.3v3.2h0.1c1.2-2.4,2.8-3.6,5.5-3.5v2.6c-4,0-5.4,2.2-5.4,6.1v6.7H778V418.5z"/>
		<path class="st5" d="M800.2,433.5h-2.3v-2.4h-0.1c-1,1.9-2.7,2.7-4.9,2.7c-3.9,0-5.2-2.3-5.2-5.5v-9.9h2.5v10.2c0,1.9,1.2,3,3,3
			c3,0,4.4-2,4.4-4.7v-8.5h2.5V433.5z"/>
		<path class="st5" d="M814.1,423.4c-0.4-1.9-1.7-3-3.7-3c-3.6,0-4.7,2.8-4.7,5.9c0,2.8,1.2,5.5,4.4,5.5c2.4,0,3.8-1.4,4.1-3.7h2.5
			c-0.6,3.7-2.8,5.8-6.6,5.8c-4.6,0-7-3.2-7-7.7s2.3-8,7.1-8c3.4,0,6.1,1.6,6.5,5.2H814.1z"/>
		<path class="st5" d="M822.9,418.5h3v2.2h-3v9.3c0,1.2,0.3,1.3,1.9,1.3h1.1v2.2H824c-2.6,0-3.6-0.5-3.6-3.3v-9.5h-2.6v-2.2h2.6V414
			h2.5V418.5z"/>
		<path class="st5" d="M831.2,415.8h-2.5v-3h2.5V415.8z M828.8,418.5h2.5v15h-2.5V418.5z"/>
		<path class="st5" d="M841.5,418.2c4.8,0,7.3,3.5,7.3,7.9c0,4.4-2.5,7.8-7.3,7.8c-4.8,0-7.3-3.5-7.3-7.8
			C834.2,421.6,836.8,418.2,841.5,418.2z M841.5,431.7c2.6,0,4.7-2,4.7-5.7s-2.1-5.7-4.7-5.7c-2.6,0-4.7,2.1-4.7,5.7
			S838.9,431.7,841.5,431.7z"/>
		<path class="st5" d="M851.7,418.5h2.3v2.4h0.1c1-1.9,2.7-2.7,4.9-2.7c3.9,0,5.2,2.3,5.2,5.5v9.9h-2.5v-10.2c0-1.9-1.2-3-3-3
			c-3,0-4.4,2-4.4,4.7v8.5h-2.5V418.5z"/>
		<path class="st5" d="M869.3,428.8c0.1,2.2,2,2.9,4,2.9c1.5,0,3.6-0.3,3.6-2.2c0-3.9-9.8-1.2-9.8-7c0-3,3-4.3,5.6-4.3
			c3.4,0,5.9,1,6.1,4.7h-2.5c-0.1-1.9-1.9-2.5-3.5-2.5c-1.5,0-3.2,0.4-3.2,1.9c0,1.7,2.6,2.1,4.9,2.6c2.5,0.6,4.9,1.4,4.9,4.3
			c0,3.6-3.3,4.7-6.4,4.7c-3.4,0-6.2-1.4-6.4-5.1H869.3z"/>
		<path class="st5" d="M891.4,420.7h-2.5v-2.2h2.5v-2.2c0-2.4,1.5-3.7,4.1-3.7c0.5,0,1.1,0.1,1.6,0.2v2.1c-0.4-0.1-1-0.2-1.4-0.2
			c-1.2,0-1.9,0.4-1.9,1.7v2.1h2.9v2.2h-2.9v12.8h-2.5V420.7z"/>
		<path class="st5" d="M905.4,418.2c4.8,0,7.3,3.5,7.3,7.9c0,4.4-2.5,7.8-7.3,7.8c-4.8,0-7.3-3.5-7.3-7.8
			C898.2,421.6,900.7,418.2,905.4,418.2z M905.4,431.7c2.6,0,4.7-2,4.7-5.7s-2.1-5.7-4.7-5.7c-2.6,0-4.7,2.1-4.7,5.7
			S902.9,431.7,905.4,431.7z"/>
		<path class="st5" d="M915.5,418.5h2.3v3.2h0.1c1.2-2.4,2.8-3.6,5.5-3.5v2.6c-4,0-5.4,2.2-5.4,6.1v6.7h-2.5V418.5z"/>
		<path class="st5" d="M945.8,433.5h-2.3v-2.4h-0.1c-1,1.9-2.7,2.7-4.9,2.7c-3.9,0-5.2-2.3-5.2-5.5v-9.9h2.5v10.2c0,1.9,1.2,3,3,3
			c3,0,4.4-2,4.4-4.7v-8.5h2.5V433.5z"/>
		<path class="st5" d="M951,428.8c0.1,2.2,2,2.9,4,2.9c1.5,0,3.6-0.3,3.6-2.2c0-3.9-9.8-1.2-9.8-7c0-3,3-4.3,5.6-4.3
			c3.4,0,5.9,1,6.1,4.7h-2.5c-0.1-1.9-1.9-2.5-3.5-2.5c-1.5,0-3.2,0.4-3.2,1.9c0,1.7,2.6,2.1,4.9,2.6c2.5,0.6,4.9,1.4,4.9,4.3
			c0,3.6-3.3,4.7-6.4,4.7c-3.4,0-6.2-1.4-6.4-5.1H951z"/>
		<path class="st5" d="M976.8,428.8c-0.7,3.3-3,5.1-6.4,5.1c-4.8,0-7-3.3-7.2-7.9c0-4.5,3-7.8,7-7.8c5.3,0,6.9,5,6.8,8.6h-11.2
			c-0.1,2.6,1.4,4.9,4.7,4.9c2.1,0,3.5-1,3.9-2.9H976.8z M974.4,424.6c-0.1-2.3-1.9-4.2-4.3-4.2c-2.6,0-4.1,1.9-4.3,4.2H974.4z"/>
		<path class="st5" d="M690.9,468.3h-2.6l-5.6-15h2.8l4.2,12.5h0.1l4.1-12.5h2.6L690.9,468.3z"/>
		<path class="st5" d="M700.1,463.6c0.1,2.2,2,2.9,4,2.9c1.5,0,3.6-0.3,3.6-2.2c0-3.9-9.8-1.2-9.8-7c0-3,3-4.3,5.6-4.3
			c3.4,0,5.9,1,6.1,4.7h-2.5c-0.1-1.9-1.9-2.5-3.5-2.5c-1.5,0-3.2,0.4-3.2,1.9c0,1.7,2.6,2.1,4.9,2.6c2.5,0.6,4.9,1.4,4.9,4.3
			c0,3.6-3.3,4.7-6.4,4.7c-3.4,0-6.2-1.4-6.4-5.1H700.1z"/>
		<path class="st5" d="M713.7,465.1h3.2v3.2h-3.2V465.1z"/>
		<path class="st5" d="M729.2,453.3h2.3v3.2h0.1c1.2-2.4,2.8-3.6,5.5-3.5v2.6c-4,0-5.4,2.2-5.4,6.1v6.7h-2.5V453.3z"/>
		<path class="st5" d="M751.7,463.6c-0.7,3.3-3,5.1-6.4,5.1c-4.8,0-7-3.3-7.2-7.9c0-4.5,3-7.8,7-7.8c5.3,0,6.9,5,6.8,8.6h-11.2
			c-0.1,2.6,1.4,4.9,4.7,4.9c2.1,0,3.5-1,3.9-2.9H751.7z M749.3,459.4c-0.1-2.3-1.9-4.2-4.3-4.2c-2.6,0-4.1,1.9-4.3,4.2H749.3z"/>
		<path class="st5" d="M754.6,447.6h2.5v20.7h-2.5V447.6z"/>
		<path class="st5" d="M773.7,463.6c-0.7,3.3-3,5.1-6.4,5.1c-4.8,0-7-3.3-7.2-7.9c0-4.5,3-7.8,7-7.8c5.3,0,6.9,5,6.8,8.6h-11.2
			c-0.1,2.6,1.4,4.9,4.7,4.9c2.1,0,3.5-1,3.9-2.9H773.7z M771.3,459.4c-0.1-2.3-1.9-4.2-4.3-4.2c-2.6,0-4.1,1.9-4.3,4.2H771.3z"/>
		<path class="st5" d="M789.8,468.3c-0.4,0.3-1,0.4-1.8,0.4c-1.3,0-2.1-0.7-2.1-2.3c-1.4,1.6-3.2,2.3-5.3,2.3c-2.7,0-5-1.2-5-4.2
			c0-3.4,2.5-4.1,5.1-4.6c2.7-0.6,5-0.3,5-2.2c0-2.2-1.8-2.5-3.3-2.5c-2.1,0-3.6,0.6-3.7,2.8h-2.5c0.1-3.7,3-5,6.4-5
			c2.7,0,5.6,0.6,5.6,4.1v7.7c0,1.2,0,1.7,0.8,1.7c0.2,0,0.5-0.1,0.8-0.1V468.3z M785.8,460.6c-1.9,1.4-7.5,0-7.5,3.7
			c0,1.6,1.4,2.2,2.9,2.2c3.2,0,4.6-2,4.6-3.4V460.6z"/>
		<path class="st5" d="M793.6,463.6c0.1,2.2,2,2.9,4,2.9c1.5,0,3.6-0.3,3.6-2.2c0-3.9-9.8-1.2-9.8-7c0-3,3-4.3,5.6-4.3
			c3.4,0,5.9,1,6.1,4.7h-2.5c-0.1-1.9-1.9-2.5-3.5-2.5c-1.5,0-3.2,0.4-3.2,1.9c0,1.7,2.6,2.1,4.9,2.6c2.5,0.6,4.9,1.4,4.9,4.3
			c0,3.6-3.3,4.7-6.4,4.7c-3.4,0-6.2-1.4-6.4-5.1H793.6z"/>
		<path class="st5" d="M819.4,463.6c-0.7,3.3-3,5.1-6.4,5.1c-4.8,0-7-3.3-7.2-7.9c0-4.5,3-7.8,7-7.8c5.3,0,6.9,5,6.8,8.6h-11.2
			c-0.1,2.6,1.4,4.9,4.7,4.9c2.1,0,3.5-1,3.9-2.9H819.4z M817,459.4c-0.1-2.3-1.9-4.2-4.3-4.2c-2.6,0-4.1,1.9-4.3,4.2H817z"/>
		<path class="st5" d="M830.2,453.3h2.3v2.4h0.1c1-1.9,2.7-2.7,4.9-2.7c3.9,0,5.2,2.3,5.2,5.5v9.9h-2.5v-10.2c0-1.9-1.2-3-3-3
			c-3,0-4.4,2-4.4,4.7v8.5h-2.5V453.3z"/>
		<path class="st5" d="M852.8,453c4.8,0,7.3,3.5,7.3,7.9c0,4.4-2.5,7.8-7.3,7.8c-4.8,0-7.3-3.5-7.3-7.8
			C845.5,456.4,848,453,852.8,453z M852.8,466.5c2.6,0,4.7-2,4.7-5.7s-2.1-5.7-4.7-5.7c-2.6,0-4.7,2.1-4.7,5.7
			S850.2,466.5,852.8,466.5z"/>
		<path class="st5" d="M866.4,453.3h3v2.2h-3v9.3c0,1.2,0.3,1.3,1.9,1.3h1.1v2.2h-1.9c-2.6,0-3.6-0.5-3.6-3.3v-9.5h-2.6v-2.2h2.6
			v-4.5h2.5V453.3z"/>
		<path class="st5" d="M884.9,463.6c-0.7,3.3-3,5.1-6.4,5.1c-4.8,0-7-3.3-7.2-7.9c0-4.5,3-7.8,7-7.8c5.3,0,6.9,5,6.8,8.6h-11.2
			c-0.1,2.6,1.4,4.9,4.7,4.9c2.1,0,3.5-1,3.9-2.9H884.9z M882.5,459.4c-0.1-2.3-1.9-4.2-4.3-4.2c-2.6,0-4.1,1.9-4.3,4.2H882.5z"/>
		<path class="st5" d="M889.2,463.6c0.1,2.2,2,2.9,4,2.9c1.5,0,3.6-0.3,3.6-2.2c0-3.9-9.8-1.2-9.8-7c0-3,3-4.3,5.6-4.3
			c3.4,0,5.9,1,6.1,4.7h-2.5c-0.1-1.9-1.9-2.5-3.5-2.5c-1.5,0-3.2,0.4-3.2,1.9c0,1.7,2.6,2.1,4.9,2.6c2.5,0.6,4.9,1.4,4.9,4.3
			c0,3.6-3.3,4.7-6.4,4.7c-3.4,0-6.2-1.4-6.4-5.1H889.2z"/>
	</g>
</g>
<g>
	<rect x="678" y="218.9" class="st4" width="213.3" height="109.7"/>
	<path class="st5" d="M722.9,239.6H720l-4.7-17.4h-0.1l-4.8,17.4h-2.9l-5.3-20.7h2.8l4.1,17.2h0.1l4.6-17.2h3l4.6,17.2h0.1l4.2-17.2
		h2.8L722.9,239.6z"/>
	<path class="st5" d="M730.7,218.9h2.5v7.9h0.1c0.8-1.8,3-2.6,4.7-2.6c3.9,0,5.2,2.3,5.2,5.5v9.9h-2.5v-10.2c0-1.9-1.2-3-3-3
		c-3,0-4.4,2-4.4,4.7v8.5h-2.5V218.9z"/>
	<path class="st5" d="M760.1,239.6c-0.4,0.3-1,0.4-1.8,0.4c-1.3,0-2.1-0.7-2.1-2.3c-1.4,1.6-3.2,2.3-5.3,2.3c-2.7,0-5-1.2-5-4.2
		c0-3.4,2.5-4.1,5.1-4.6c2.7-0.6,5-0.3,5-2.2c0-2.2-1.8-2.5-3.3-2.5c-2.1,0-3.6,0.6-3.7,2.8h-2.5c0.1-3.7,3-5,6.4-5
		c2.7,0,5.6,0.6,5.6,4.1v7.7c0,1.2,0,1.7,0.8,1.7c0.2,0,0.5-0.1,0.8-0.1V239.6z M756.1,231.9c-1.9,1.4-7.5,0-7.5,3.7
		c0,1.6,1.4,2.2,2.9,2.2c3.2,0,4.6-2,4.6-3.4V231.9z"/>
	<path class="st5" d="M765.8,224.6h3v2.2h-3v9.3c0,1.2,0.3,1.3,1.9,1.3h1.1v2.2h-1.9c-2.6,0-3.6-0.5-3.6-3.3v-9.5h-2.6v-2.2h2.6
		v-4.5h2.5V224.6z"/>
	<path class="st5" d="M783,224.6h3v2.2h-3v9.3c0,1.2,0.3,1.3,1.9,1.3h1.1v2.2h-1.9c-2.6,0-3.6-0.5-3.6-3.3v-9.5H778v-2.2h2.6v-4.5
		h2.5V224.6z"/>
	<path class="st5" d="M794.6,241.6c-1.2,2.9-2.1,4-4.4,4c-0.6,0-1.2-0.1-1.7-0.3v-2.3c0.5,0.1,1,0.3,1.5,0.3c1,0,1.6-0.5,2-1.4
		l1-2.6l-5.9-14.9h2.8l4.4,12.3h0.1l4.2-12.3h2.6L794.6,241.6z"/>
	<path class="st5" d="M803.3,224.6h2.5v2h0.1c0.8-1.7,2.7-2.4,4.8-2.4c4.6,0,6.9,3.7,6.9,7.9c0,4.3-2.3,7.8-6.8,7.8
		c-1.5,0-3.8-0.6-4.8-2.3h-0.1v7.7h-2.5V224.6z M810.2,226.5c-3.3,0-4.6,2.9-4.6,5.7c0,2.9,1.3,5.7,4.7,5.7c3.4,0,4.5-2.9,4.5-5.8
		C814.9,229.2,813.4,226.5,810.2,226.5z"/>
	<path class="st5" d="M833.2,234.9c-0.7,3.3-3,5.1-6.4,5.1c-4.8,0-7-3.3-7.2-7.9c0-4.5,3-7.8,7-7.8c5.3,0,6.9,5,6.8,8.6h-11.2
		c-0.1,2.6,1.4,4.9,4.7,4.9c2.1,0,3.5-1,3.9-2.9H833.2z M830.8,230.7c-0.1-2.3-1.9-4.2-4.3-4.2c-2.6,0-4.1,1.9-4.3,4.2H830.8z"/>
	<path class="st5" d="M850.5,224.3c4.8,0,7.3,3.5,7.3,7.9c0,4.4-2.5,7.8-7.3,7.8c-4.8,0-7.3-3.5-7.3-7.8
		C843.2,227.7,845.7,224.3,850.5,224.3z M850.5,237.8c2.6,0,4.7-2,4.7-5.7s-2.1-5.7-4.7-5.7c-2.6,0-4.7,2.1-4.7,5.7
		S847.9,237.8,850.5,237.8z"/>
	<path class="st5" d="M861.7,226.8h-2.5v-2.2h2.5v-2.2c0-2.4,1.5-3.7,4.1-3.7c0.5,0,1.1,0.1,1.6,0.2v2.1c-0.4-0.1-1-0.2-1.4-0.2
		c-1.2,0-1.9,0.4-1.9,1.7v2.1h2.9v2.2h-2.9v12.8h-2.5V226.8z"/>
	<path class="st5" d="M697.6,259.4h2.3v2.2h0.1c1.1-1.7,2.7-2.6,4.8-2.6c1.9,0,3.5,0.7,4.1,2.6c1-1.6,2.8-2.6,4.7-2.6
		c3,0,5,1.2,5,4.4v11h-2.5v-9.8c0-1.9-0.5-3.3-2.9-3.3c-2.4,0-3.9,1.5-3.9,3.8v9.3h-2.5v-9.8c0-1.9-0.6-3.3-2.8-3.3
		c-2.9,0-4,2.7-4,3.8v9.3h-2.5V259.4z"/>
	<path class="st5" d="M735.7,274.4c-0.4,0.3-1,0.4-1.8,0.4c-1.3,0-2.1-0.7-2.1-2.3c-1.4,1.6-3.2,2.3-5.3,2.3c-2.7,0-5-1.2-5-4.2
		c0-3.4,2.5-4.1,5.1-4.6c2.7-0.6,5-0.3,5-2.2c0-2.2-1.8-2.5-3.3-2.5c-2.1,0-3.6,0.6-3.7,2.8h-2.5c0.1-3.7,3-5,6.4-5
		c2.7,0,5.6,0.6,5.6,4.1v7.7c0,1.2,0,1.7,0.8,1.7c0.2,0,0.5-0.1,0.8-0.1V274.4z M731.6,266.7c-1.9,1.4-7.5,0-7.5,3.7
		c0,1.6,1.4,2.2,2.9,2.2c3.2,0,4.6-2,4.6-3.4V266.7z"/>
	<path class="st5" d="M741.4,259.4h3v2.2h-3v9.3c0,1.2,0.3,1.3,1.9,1.3h1.1v2.2h-1.9c-2.6,0-3.6-0.5-3.6-3.3v-9.5h-2.6v-2.2h2.6
		v-4.5h2.5V259.4z"/>
	<path class="st5" d="M759.9,269.7c-0.7,3.3-3,5.1-6.4,5.1c-4.8,0-7-3.3-7.2-7.9c0-4.5,3-7.8,7-7.8c5.3,0,6.9,5,6.8,8.6h-11.2
		c-0.1,2.6,1.4,4.9,4.7,4.9c2.1,0,3.5-1,3.9-2.9H759.9z M757.5,265.5c-0.1-2.3-1.9-4.2-4.3-4.2c-2.6,0-4.1,1.9-4.3,4.2H757.5z"/>
	<path class="st5" d="M762.6,259.4h2.3v3.2h0.1c1.2-2.4,2.8-3.6,5.5-3.5v2.6c-4,0-5.4,2.2-5.4,6.1v6.7h-2.5V259.4z"/>
	<path class="st5" d="M774.9,256.7h-2.5v-3h2.5V256.7z M772.4,259.4h2.5v15h-2.5V259.4z"/>
	<path class="st5" d="M792,274.4c-0.4,0.3-1,0.4-1.8,0.4c-1.3,0-2.1-0.7-2.1-2.3c-1.4,1.6-3.2,2.3-5.3,2.3c-2.7,0-5-1.2-5-4.2
		c0-3.4,2.5-4.1,5.1-4.6c2.7-0.6,5-0.3,5-2.2c0-2.2-1.8-2.5-3.3-2.5c-2.1,0-3.6,0.6-3.7,2.8h-2.5c0.1-3.7,3-5,6.4-5
		c2.7,0,5.6,0.6,5.6,4.1v7.7c0,1.2,0,1.7,0.8,1.7c0.2,0,0.5-0.1,0.8-0.1V274.4z M788,266.7c-1.9,1.4-7.5,0-7.5,3.7
		c0,1.6,1.4,2.2,2.9,2.2c3.2,0,4.6-2,4.6-3.4V266.7z"/>
	<path class="st5" d="M794.5,253.7h2.5v20.7h-2.5V253.7z"/>
	<path class="st5" d="M812.2,259.4h3v2.2h-3v9.3c0,1.2,0.3,1.3,1.9,1.3h1.1v2.2h-1.9c-2.6,0-3.6-0.5-3.6-3.3v-9.5h-2.6v-2.2h2.6
		v-4.5h2.5V259.4z"/>
	<path class="st5" d="M824.4,259.1c4.8,0,7.3,3.5,7.3,7.9c0,4.4-2.5,7.8-7.3,7.8c-4.8,0-7.3-3.5-7.3-7.8
		C817.1,262.5,819.7,259.1,824.4,259.1z M824.4,272.6c2.6,0,4.7-2,4.7-5.7s-2.1-5.7-4.7-5.7c-2.6,0-4.7,2.1-4.7,5.7
		S821.8,272.6,824.4,272.6z"/>
	<path class="st5" d="M842.7,253.7h2.5v7.7h0.1c0.8-1.7,2.7-2.4,4.8-2.4c4.6,0,6.9,3.7,6.9,7.9c0,4.3-2.3,7.8-6.8,7.8
		c-1.5,0-3.8-0.6-4.8-2.3h-0.1v2h-2.5V253.7z M849.7,261.3c-3.3,0-4.6,2.9-4.6,5.7c0,2.9,1.3,5.7,4.7,5.7c3.4,0,4.5-2.9,4.5-5.8
		C854.3,264,852.9,261.3,849.7,261.3z"/>
	<path class="st5" d="M872.6,269.7c-0.7,3.3-3,5.1-6.4,5.1c-4.8,0-7-3.3-7.2-7.9c0-4.5,3-7.8,7-7.8c5.3,0,6.9,5,6.8,8.6h-11.2
		c-0.1,2.6,1.4,4.9,4.7,4.9c2.1,0,3.5-1,3.9-2.9H872.6z M870.3,265.5c-0.1-2.3-1.9-4.2-4.3-4.2c-2.6,0-4.1,1.9-4.3,4.2H870.3z"/>
	<path class="st5" d="M723.9,309.2h-2.5v-2h-0.1c-0.8,1.7-2.7,2.4-4.8,2.4c-4.6,0-6.9-3.7-6.9-7.9c0-4.2,2.3-7.8,6.8-7.8
		c1.5,0,3.8,0.6,4.8,2.3h0.1v-7.7h2.5V309.2z M717,307.4c3.3,0,4.6-2.9,4.6-5.7c0-2.9-1.3-5.7-4.7-5.7c-3.4,0-4.5,2.9-4.5,5.8
		C712.3,304.7,713.8,307.4,717,307.4z"/>
	<path class="st5" d="M740.5,304.5c-0.7,3.3-3,5.1-6.4,5.1c-4.8,0-7-3.3-7.2-7.9c0-4.5,3-7.8,7-7.8c5.3,0,6.9,5,6.8,8.6h-11.2
		c-0.1,2.6,1.4,4.9,4.7,4.9c2.1,0,3.5-1,3.9-2.9H740.5z M738.1,300.3c-0.1-2.3-1.9-4.2-4.3-4.2c-2.6,0-4.1,1.9-4.3,4.2H738.1z"/>
	<path class="st5" d="M750,309.2h-2.6l-5.6-15h2.8l4.2,12.5h0.1l4.1-12.5h2.6L750,309.2z"/>
	<path class="st5" d="M770.6,304.5c-0.7,3.3-3,5.1-6.4,5.1c-4.8,0-7-3.3-7.2-7.9c0-4.5,3-7.8,7-7.8c5.3,0,6.9,5,6.8,8.6h-11.2
		c-0.1,2.6,1.4,4.9,4.7,4.9c2.1,0,3.5-1,3.9-2.9H770.6z M768.2,300.3c-0.1-2.3-1.9-4.2-4.3-4.2c-2.6,0-4.1,1.9-4.3,4.2H768.2z"/>
	<path class="st5" d="M773.5,288.5h2.5v20.7h-2.5V288.5z"/>
	<path class="st5" d="M786.3,293.9c4.8,0,7.3,3.5,7.3,7.9c0,4.4-2.5,7.8-7.3,7.8c-4.8,0-7.3-3.5-7.3-7.8
		C779,297.3,781.5,293.9,786.3,293.9z M786.3,307.4c2.6,0,4.7-2,4.7-5.7s-2.1-5.7-4.7-5.7c-2.6,0-4.7,2.1-4.7,5.7
		S783.7,307.4,786.3,307.4z"/>
	<path class="st5" d="M796.5,294.2h2.5v2h0.1c0.8-1.7,2.7-2.4,4.8-2.4c4.6,0,6.9,3.7,6.9,7.9c0,4.3-2.3,7.8-6.8,7.8
		c-1.5,0-3.8-0.6-4.8-2.3H799v7.7h-2.5V294.2z M803.5,296.1c-3.3,0-4.6,2.9-4.6,5.7c0,2.9,1.3,5.7,4.7,5.7c3.4,0,4.5-2.9,4.5-5.8
		C808.1,298.8,806.7,296.1,803.5,296.1z"/>
	<path class="st5" d="M826.4,304.5c-0.7,3.3-3,5.1-6.4,5.1c-4.8,0-7-3.3-7.2-7.9c0-4.5,3-7.8,7-7.8c5.3,0,6.9,5,6.8,8.6h-11.2
		c-0.1,2.6,1.4,4.9,4.7,4.9c2.1,0,3.5-1,3.9-2.9H826.4z M824.1,300.3c-0.1-2.3-1.9-4.2-4.3-4.2c-2.6,0-4.1,1.9-4.3,4.2H824.1z"/>
	<path class="st5" d="M842.6,309.2h-2.5v-2h-0.1c-0.8,1.7-2.7,2.4-4.8,2.4c-4.6,0-6.9-3.7-6.9-7.9c0-4.2,2.3-7.8,6.8-7.8
		c1.5,0,3.8,0.6,4.8,2.3h0.1v-7.7h2.5V309.2z M835.7,307.4c3.3,0,4.6-2.9,4.6-5.7c0-2.9-1.3-5.7-4.7-5.7c-3.4,0-4.5,2.9-4.5,5.8
		C831,304.7,832.5,307.4,835.7,307.4z"/>
	<path class="st5" d="M846.1,295c-0.1-4,2.5-7,6.5-7c3.6,0,6.1,2.1,6.1,5.8c0,2.4-1.2,3.7-2.5,4.9c-1.2,1.2-2.5,2.3-2.5,4.3v1.1
		h-2.5v-1.4c0.2-4.8,5.1-5,4.9-9.2c-0.1-2.1-1.4-3.4-3.5-3.4c-2.8,0-4,2.1-4,4.8H846.1z M850.9,306h3.2v3.2h-3.2V306z"/>
</g>
<polygon class="st8" points="925.3,861.2 788.5,961 647.9,858.4 784.7,758.6 "/>
<g>
	<rect x="678" y="829.2" class="st4" width="220.9" height="83.7"/>
	<path class="st5" d="M699.6,829.2h2.8v20.7h-2.8V829.2z"/>
	<path class="st5" d="M708.1,845.2c0.1,2.2,2,2.9,4,2.9c1.5,0,3.6-0.3,3.6-2.2c0-3.9-9.8-1.2-9.8-7c0-3,3-4.3,5.6-4.3
		c3.4,0,5.9,1,6.1,4.7h-2.5c-0.1-1.9-1.9-2.5-3.5-2.5c-1.5,0-3.2,0.4-3.2,1.9c0,1.7,2.6,2.1,4.9,2.6c2.5,0.6,4.9,1.4,4.9,4.3
		c0,3.6-3.3,4.7-6.4,4.7c-3.4,0-6.2-1.4-6.4-5.1H708.1z"/>
	<path class="st5" d="M729.3,829.2h2.5v20.7h-2.5V829.2z"/>
	<path class="st5" d="M748.4,845.1c-0.7,3.3-3,5.1-6.4,5.1c-4.8,0-7-3.3-7.2-7.9c0-4.5,3-7.8,7-7.8c5.3,0,6.9,5,6.8,8.6h-11.2
		c-0.1,2.6,1.4,4.9,4.7,4.9c2.1,0,3.5-1,3.9-2.9H748.4z M746,841c-0.1-2.3-1.9-4.2-4.3-4.2c-2.6,0-4.1,1.9-4.3,4.2H746z"/>
	<path class="st5" d="M764.1,848.6c0,4.9-2.2,7.4-7,7.4c-2.8,0-6.1-1.2-6.2-4.4h2.5c0.1,1.8,2.3,2.4,3.9,2.4c3.2,0,4.5-2.3,4.5-5.7
		v-1h-0.1c-0.8,1.8-2.8,2.7-4.7,2.7c-4.5,0-6.7-3.5-6.7-7.6c0-3.5,1.7-7.9,6.9-7.9c1.9,0,3.6,0.8,4.5,2.5h0v-2.1h2.3V848.6z
		 M761.7,842.1c0-2.6-1.2-5.4-4.3-5.4c-3.2,0-4.4,2.6-4.4,5.5c0,2.7,1,5.7,4.2,5.7C760.5,847.9,761.7,844.9,761.7,842.1z"/>
	<path class="st5" d="M781.1,849.8c-0.4,0.3-1,0.4-1.8,0.4c-1.3,0-2.1-0.7-2.1-2.3c-1.4,1.6-3.2,2.3-5.3,2.3c-2.7,0-5-1.2-5-4.2
		c0-3.4,2.5-4.1,5.1-4.6c2.7-0.6,5-0.3,5-2.2c0-2.2-1.8-2.5-3.3-2.5c-2.1,0-3.6,0.6-3.7,2.8h-2.5c0.1-3.7,3-5,6.4-5
		c2.7,0,5.6,0.6,5.6,4.1v7.7c0,1.2,0,1.7,0.8,1.7c0.2,0,0.5-0.1,0.8-0.1V849.8z M777.1,842.1c-1.9,1.4-7.5,0-7.5,3.7
		c0,1.6,1.4,2.2,2.9,2.2c3.2,0,4.6-2,4.6-3.4V842.1z"/>
	<path class="st5" d="M783.5,829.2h2.5v20.7h-2.5V829.2z"/>
	<path class="st5" d="M797.8,834.9h2.3v3.2h0.1c1.2-2.4,2.8-3.6,5.5-3.5v2.6c-4,0-5.4,2.2-5.4,6.1v6.7h-2.5V834.9z"/>
	<path class="st5" d="M820.3,845.1c-0.7,3.3-3,5.1-6.4,5.1c-4.8,0-7-3.3-7.2-7.9c0-4.5,3-7.8,7-7.8c5.3,0,6.9,5,6.8,8.6h-11.2
		c-0.1,2.6,1.4,4.9,4.7,4.9c2.1,0,3.5-1,3.9-2.9H820.3z M818,841c-0.1-2.3-1.9-4.2-4.3-4.2c-2.6,0-4.1,1.9-4.3,4.2H818z"/>
	<path class="st5" d="M829.9,849.9h-2.6l-5.6-15h2.8l4.2,12.5h0.1l4.1-12.5h2.6L829.9,849.9z"/>
	<path class="st5" d="M840.2,832.2h-2.5v-3h2.5V832.2z M837.8,834.9h2.5v15h-2.5V834.9z"/>
	<path class="st5" d="M856.9,845.1c-0.7,3.3-3,5.1-6.4,5.1c-4.8,0-7-3.3-7.2-7.9c0-4.5,3-7.8,7-7.8c5.3,0,6.9,5,6.8,8.6h-11.2
		c-0.1,2.6,1.4,4.9,4.7,4.9c2.1,0,3.5-1,3.9-2.9H856.9z M854.5,841c-0.1-2.3-1.9-4.2-4.3-4.2c-2.6,0-4.1,1.9-4.3,4.2H854.5z"/>
	<path class="st5" d="M874.5,849.9h-2.6l-3-11.9h-0.1l-3,11.9h-2.7l-4.8-15h2.7l3.4,12.3h0.1l3-12.3h2.7l3.1,12.3h0.1l3.4-12.3h2.6
		L874.5,849.9z"/>
	<path class="st5" d="M687.9,869.7h2.3v3.2h0.1c1.2-2.4,2.8-3.6,5.5-3.5v2.6c-4,0-5.4,2.2-5.4,6.1v6.7h-2.5V869.7z"/>
	<path class="st5" d="M710.5,879.9c-0.7,3.3-3,5.1-6.4,5.1c-4.8,0-7-3.3-7.2-7.9c0-4.5,3-7.8,7-7.8c5.3,0,6.9,5,6.8,8.6h-11.2
		c-0.1,2.6,1.4,4.9,4.7,4.9c2.1,0,3.5-1,3.9-2.9H710.5z M708.1,875.8c-0.1-2.3-1.9-4.2-4.3-4.2c-2.6,0-4.1,1.9-4.3,4.2H708.1z"/>
	<path class="st5" d="M723.4,874.5c-0.4-1.9-1.7-3-3.7-3c-3.6,0-4.7,2.8-4.7,5.9c0,2.8,1.2,5.5,4.4,5.5c2.4,0,3.8-1.4,4.1-3.7h2.5
		c-0.6,3.7-2.8,5.8-6.6,5.8c-4.6,0-7-3.2-7-7.7s2.3-8,7.1-8c3.4,0,6.1,1.6,6.5,5.2H723.4z"/>
	<path class="st5" d="M735.3,869.3c4.8,0,7.3,3.5,7.3,7.9c0,4.4-2.5,7.8-7.3,7.8c-4.8,0-7.3-3.5-7.3-7.8
		C728,872.8,730.5,869.3,735.3,869.3z M735.3,882.9c2.6,0,4.7-2,4.7-5.7c0-3.6-2.1-5.7-4.7-5.7c-2.6,0-4.7,2.1-4.7,5.7
		C730.6,880.8,732.7,882.9,735.3,882.9z"/>
	<path class="st5" d="M745.4,869.7h2.3v2.2h0.1c1.1-1.7,2.7-2.6,4.8-2.6c1.9,0,3.5,0.7,4.1,2.6c1-1.6,2.8-2.6,4.7-2.6
		c3,0,5,1.2,5,4.4v11H764v-9.8c0-1.9-0.5-3.3-2.9-3.3c-2.4,0-3.9,1.5-3.9,3.8v9.3h-2.5v-9.8c0-1.9-0.6-3.3-2.8-3.3
		c-2.9,0-4,2.7-4,3.8v9.3h-2.5V869.7z"/>
	<path class="st5" d="M770.2,869.7h2.3v2.2h0.1c1.1-1.7,2.7-2.6,4.8-2.6c1.9,0,3.5,0.7,4.1,2.6c1-1.6,2.8-2.6,4.7-2.6
		c3,0,5,1.2,5,4.4v11h-2.5v-9.8c0-1.9-0.5-3.3-2.9-3.3c-2.4,0-3.9,1.5-3.9,3.8v9.3h-2.5v-9.8c0-1.9-0.6-3.3-2.8-3.3
		c-2.9,0-4,2.7-4,3.8v9.3h-2.5V869.7z"/>
	<path class="st5" d="M807.7,879.9c-0.7,3.3-3,5.1-6.4,5.1c-4.8,0-7-3.3-7.2-7.9c0-4.5,3-7.8,7-7.8c5.3,0,6.9,5,6.8,8.6h-11.2
		c-0.1,2.6,1.4,4.9,4.7,4.9c2.1,0,3.5-1,3.9-2.9H807.7z M805.3,875.8c-0.1-2.3-1.9-4.2-4.3-4.2c-2.6,0-4.1,1.9-4.3,4.2H805.3z"/>
	<path class="st5" d="M810.5,869.7h2.3v2.4h0.1c1-1.9,2.7-2.7,4.9-2.7c3.9,0,5.2,2.3,5.2,5.5v9.9h-2.5v-10.2c0-1.9-1.2-3-3-3
		c-3,0-4.4,2-4.4,4.7v8.5h-2.5V869.7z"/>
	<path class="st5" d="M840,884.7h-2.5v-2h-0.1c-0.8,1.7-2.7,2.4-4.8,2.4c-4.6,0-6.9-3.7-6.9-7.9c0-4.2,2.3-7.8,6.8-7.8
		c1.5,0,3.8,0.6,4.8,2.3h0.1V864h2.5V884.7z M833.1,882.9c3.3,0,4.6-2.9,4.6-5.7c0-2.9-1.3-5.7-4.7-5.7c-3.4,0-4.5,2.9-4.5,5.8
		C828.4,880.1,829.9,882.9,833.1,882.9z"/>
	<path class="st5" d="M856.6,879.9c-0.7,3.3-3,5.1-6.4,5.1c-4.8,0-7-3.3-7.2-7.9c0-4.5,3-7.8,7-7.8c5.3,0,6.9,5,6.8,8.6h-11.2
		c-0.1,2.6,1.4,4.9,4.7,4.9c2.1,0,3.5-1,3.9-2.9H856.6z M854.2,875.8c-0.1-2.3-1.9-4.2-4.3-4.2c-2.6,0-4.1,1.9-4.3,4.2H854.2z"/>
	<path class="st5" d="M872.8,884.7h-2.5v-2h-0.1c-0.8,1.7-2.7,2.4-4.8,2.4c-4.6,0-6.9-3.7-6.9-7.9c0-4.2,2.3-7.8,6.8-7.8
		c1.5,0,3.8,0.6,4.8,2.3h0.1V864h2.5V884.7z M865.8,882.9c3.3,0,4.6-2.9,4.6-5.7c0-2.9-1.3-5.7-4.7-5.7c-3.4,0-4.5,2.9-4.5,5.8
		C861.2,880.1,862.6,882.9,865.8,882.9z"/>
	<path class="st5" d="M876.3,870.4c-0.1-4,2.5-7,6.5-7c3.6,0,6.1,2.1,6.1,5.8c0,2.4-1.2,3.7-2.5,4.9c-1.2,1.2-2.5,2.3-2.5,4.3v1.1
		h-2.5v-1.4c0.2-4.8,5.1-5,4.9-9.2c-0.1-2.1-1.4-3.4-3.5-3.4c-2.8,0-4,2.1-4,4.8H876.3z M881.1,881.5h3.2v3.2h-3.2V881.5z"/>
</g>
<g>
	<g>
		<g>
			<line class="st9" x1="784.7" y1="133" x2="784.7" y2="161.9"/>
			<g>
				<line class="st10" x1="784.7" y1="133" x2="784.7" y2="158.5"/>
				<g>
					<polygon class="st11" points="779.6,152.5 784.7,157.6 789.7,152.5 789.7,156.8 784.7,161.9 779.6,156.8 					"/>
				</g>
			</g>
		</g>
	</g>
</g>
<g>
	<g>
		<g>
			<line class="st9" x1="784.7" y1="370.5" x2="784.7" y2="399.4"/>
			<g>
				<line class="st10" x1="784.7" y1="370.5" x2="784.7" y2="395.9"/>
				<g>
					<polygon class="st11" points="779.6,390 784.7,395.1 789.7,390 789.7,394.3 784.7,399.4 779.6,394.3 					"/>
				</g>
			</g>
		</g>
	</g>
</g>
<rect x="508.9" y="611.2" class="st12" width="547.9" height="54.4"/>
<g>
	<g>
		<path class="st5" d="M676.1,649.1h-2.9l-4.7-17.4h-0.1l-4.8,17.4h-2.9l-5.3-20.7h2.8l4.1,17.2h0.1l4.6-17.2h3l4.6,17.2h0.1
			l4.2-17.2h2.8L676.1,649.1z"/>
		<path class="st5" d="M690.3,633.7c4.8,0,7.3,3.5,7.3,7.9c0,4.4-2.5,7.8-7.3,7.8c-4.8,0-7.3-3.5-7.3-7.8
			C683.1,637.2,685.6,633.7,690.3,633.7z M690.3,647.2c2.6,0,4.7-2,4.7-5.7c0-3.6-2.1-5.7-4.7-5.7c-2.6,0-4.7,2.1-4.7,5.7
			C685.7,645.2,687.8,647.2,690.3,647.2z"/>
		<path class="st5" d="M700.4,634.1h2.3v3.2h0.1c1.2-2.4,2.8-3.6,5.5-3.5v2.6c-4,0-5.4,2.2-5.4,6.1v6.7h-2.5V634.1z"/>
		<path class="st5" d="M710.3,628.3h2.5v12.3l6.8-6.6h3.3l-5.9,5.5l6.4,9.5h-3.1l-5.1-7.8l-2.3,2.1v5.7h-2.5V628.3z"/>
		<path class="st5" d="M727.8,631.4h-2.5v-3h2.5V631.4z M725.4,634.1h2.5v15h-2.5V634.1z"/>
		<path class="st5" d="M731.7,634.1h2.3v2.4h0.1c1-1.9,2.7-2.7,4.9-2.7c3.9,0,5.2,2.3,5.2,5.5v9.9h-2.5v-10.2c0-1.9-1.2-3-3-3
			c-3,0-4.4,2-4.4,4.7v8.5h-2.5V634.1z"/>
		<path class="st5" d="M760.7,647.8c0,4.9-2.2,7.4-7,7.4c-2.8,0-6.1-1.2-6.2-4.4h2.5c0.1,1.8,2.3,2.4,3.9,2.4c3.2,0,4.5-2.3,4.5-5.7
			v-1h-0.1c-0.8,1.8-2.8,2.7-4.7,2.7c-4.5,0-6.7-3.5-6.7-7.6c0-3.5,1.7-7.9,6.9-7.9c1.9,0,3.6,0.8,4.5,2.5h0v-2.1h2.3V647.8z
			 M758.3,641.2c0-2.6-1.2-5.4-4.3-5.4c-3.2,0-4.4,2.6-4.4,5.5c0,2.7,1,5.7,4.2,5.7C757.1,647,758.3,644.1,758.3,641.2z"/>
		<path class="st5" d="M775.9,634.1h3v2.2h-3v9.3c0,1.2,0.3,1.3,1.9,1.3h1.1v2.2H777c-2.6,0-3.6-0.5-3.6-3.3v-9.5h-2.6v-2.2h2.6
			v-4.5h2.5V634.1z"/>
		<path class="st5" d="M794.4,644.3c-0.7,3.3-3,5.1-6.4,5.1c-4.8,0-7-3.3-7.2-7.9c0-4.5,3-7.8,7-7.8c5.3,0,6.9,5,6.8,8.6h-11.2
			c-0.1,2.6,1.4,4.9,4.7,4.9c2.1,0,3.5-1,3.9-2.9H794.4z M792,640.1c-0.1-2.3-1.9-4.2-4.3-4.2c-2.6,0-4.1,1.9-4.3,4.2H792z"/>
		<path class="st5" d="M810.5,649c-0.4,0.3-1,0.4-1.8,0.4c-1.3,0-2.1-0.7-2.1-2.3c-1.4,1.6-3.2,2.3-5.3,2.3c-2.7,0-5-1.2-5-4.2
			c0-3.4,2.5-4.1,5.1-4.6c2.7-0.6,5-0.3,5-2.2c0-2.2-1.8-2.5-3.3-2.5c-2.1,0-3.6,0.6-3.7,2.8H797c0.1-3.7,3-5,6.4-5
			c2.7,0,5.6,0.6,5.6,4.1v7.7c0,1.2,0,1.7,0.8,1.7c0.2,0,0.5-0.1,0.8-0.1V649z M806.5,641.3c-1.9,1.4-7.5,0-7.5,3.7
			c0,1.6,1.4,2.2,2.9,2.2c3.2,0,4.6-2,4.6-3.4V641.3z"/>
		<path class="st5" d="M812.8,634.1h2.3v2.2h0.1c1.1-1.7,2.7-2.6,4.8-2.6c1.9,0,3.5,0.7,4.1,2.6c1-1.6,2.8-2.6,4.7-2.6
			c3,0,5,1.2,5,4.4v11h-2.5v-9.8c0-1.9-0.5-3.3-2.9-3.3c-2.4,0-3.9,1.5-3.9,3.8v9.3h-2.5v-9.8c0-1.9-0.6-3.3-2.8-3.3
			c-2.9,0-4,2.7-4,3.8v9.3h-2.5V634.1z"/>
		<path class="st5" d="M845.5,634.1h2.3v3.2h0.1c1.2-2.4,2.8-3.6,5.5-3.5v2.6c-4,0-5.4,2.2-5.4,6.1v6.7h-2.5V634.1z"/>
		<path class="st5" d="M868,644.3c-0.7,3.3-3,5.1-6.4,5.1c-4.8,0-7-3.3-7.2-7.9c0-4.5,3-7.8,7-7.8c5.3,0,6.9,5,6.8,8.6H857
			c-0.1,2.6,1.4,4.9,4.7,4.9c2.1,0,3.5-1,3.9-2.9H868z M865.6,640.1c-0.1-2.3-1.9-4.2-4.3-4.2c-2.6,0-4.1,1.9-4.3,4.2H865.6z"/>
		<path class="st5" d="M877.6,649.1h-2.6l-5.6-15h2.8l4.2,12.5h0.1l4.1-12.5h2.6L877.6,649.1z"/>
		<path class="st5" d="M887.9,631.4h-2.5v-3h2.5V631.4z M885.4,634.1h2.5v15h-2.5V634.1z"/>
		<path class="st5" d="M904.5,644.3c-0.7,3.3-3,5.1-6.4,5.1c-4.8,0-7-3.3-7.2-7.9c0-4.5,3-7.8,7-7.8c5.3,0,6.9,5,6.8,8.6h-11.2
			c-0.1,2.6,1.4,4.9,4.7,4.9c2.1,0,3.5-1,3.9-2.9H904.5z M902.2,640.1c-0.1-2.3-1.9-4.2-4.3-4.2c-2.6,0-4.1,1.9-4.3,4.2H902.2z"/>
		<path class="st5" d="M922.2,649.1h-2.6l-3-11.9h-0.1l-3,11.9h-2.7l-4.8-15h2.7l3.4,12.3h0.1l3-12.3h2.7l3.1,12.3h0.1l3.4-12.3h2.6
			L922.2,649.1z"/>
	</g>
</g>
<rect x="508.9" y="674.3" class="st12" width="547.9" height="54.4"/>
<g>
	<g>
		<path class="st5" d="M744.1,713.9l-3.2-2.6c-1.4,0.8-3,1.2-5,1.2c-6.6,0-9.9-5.2-9.9-10.8s3.3-10.8,9.9-10.8
			c6.6,0,9.9,5.2,9.9,10.8c0,3.2-1,6.2-3.1,8.2l2.7,2.2L744.1,713.9z M738,706.2l2.8,2.2c1.6-1.6,2.4-4.1,2.4-6.6
			c0-4.2-2.1-8.5-7.2-8.5c-5,0-7.2,4.4-7.2,8.5s2.1,8.5,7.2,8.5c1,0,2-0.2,2.9-0.6l-2.3-1.8L738,706.2z"/>
		<path class="st5" d="M754.9,691.4h3l8.1,20.7h-3l-2.3-6.2H752l-2.3,6.2h-2.8L754.9,691.4z M752.9,703.6h7l-3.5-9.7h-0.1
			L752.9,703.6z"/>
		<path class="st5" d="M775.7,697.1h2.3v3.2h0.1c1.2-2.4,2.8-3.6,5.5-3.5v2.6c-4,0-5.4,2.2-5.4,6.1v6.7h-2.5V697.1z"/>
		<path class="st5" d="M798.2,707.4c-0.7,3.3-3,5.1-6.4,5.1c-4.8,0-7-3.3-7.2-7.9c0-4.5,3-7.8,7-7.8c5.3,0,6.9,5,6.8,8.6h-11.2
			c-0.1,2.6,1.4,4.9,4.7,4.9c2.1,0,3.5-1,3.9-2.9H798.2z M795.8,703.2c-0.1-2.3-1.9-4.2-4.3-4.2c-2.6,0-4.1,1.9-4.3,4.2H795.8z"/>
		<path class="st5" d="M807.7,712.1h-2.6l-5.6-15h2.8l4.2,12.5h0.1l4.1-12.5h2.6L807.7,712.1z"/>
		<path class="st5" d="M818.1,694.4h-2.5v-3h2.5V694.4z M815.6,697.1h2.5v15h-2.5V697.1z"/>
		<path class="st5" d="M834.7,707.4c-0.7,3.3-3,5.1-6.4,5.1c-4.8,0-7-3.3-7.2-7.9c0-4.5,3-7.8,7-7.8c5.3,0,6.9,5,6.8,8.6h-11.2
			c-0.1,2.6,1.4,4.9,4.7,4.9c2.1,0,3.5-1,3.9-2.9H834.7z M832.3,703.2c-0.1-2.3-1.9-4.2-4.3-4.2c-2.6,0-4.1,1.9-4.3,4.2H832.3z"/>
		<path class="st5" d="M852.3,712.1h-2.6l-3-11.9h-0.1l-3,11.9h-2.7l-4.8-15h2.7l3.4,12.3h0.1l3-12.3h2.7l3.1,12.3h0.1l3.4-12.3h2.6
			L852.3,712.1z"/>
	</g>
</g>
<g>
	<g>
		<g>
			<line class="st9" x1="764.1" y1="579.6" x2="764.1" y2="608.5"/>
			<g>
				<line class="st10" x1="764.1" y1="579.6" x2="764.1" y2="605.1"/>
				<g>
					<polygon class="st11" points="759,599.1 764.1,604.2 769.2,599.1 769.2,603.4 764.1,608.5 759,603.4 					"/>
				</g>
			</g>
		</g>
	</g>
</g>
<g>
	<g>
		<g>
			<line class="st9" x1="813.1" y1="608.5" x2="813.1" y2="579.6"/>
			<g>
				<line class="st10" x1="813.1" y1="608.5" x2="813.1" y2="583"/>
				<g>
					<polygon class="st11" points="818.2,589 813.1,583.9 808,589 808,584.7 813.1,579.6 818.2,584.7 					"/>
				</g>
			</g>
		</g>
	</g>
</g>
<g>
	<g>
		<g>
			<path class="st9" d="M785.6,399.4"/>
		</g>
	</g>
</g>
<rect x="508.9" y="505" class="st2" width="547.9" height="74.6"/>
<g>
	<g>
		<path class="st5" d="M550.1,512.8h9.1c4.1,0,6.4,2.3,6.4,6.1c0,3.9-2.2,6.1-6.4,6.1h-6.3v8.5h-2.8V512.8z M552.9,522.7h5.4
			c3.1,0,4.5-1.3,4.5-3.8c0-2.5-1.4-3.8-4.5-3.8h-5.4V522.7z"/>
		<path class="st5" d="M568.9,512.8h2.8v18.4h11v2.3h-13.7V512.8z"/>
		<path class="st5" d="M592.8,512.8h2.5v20.7h-2.5V512.8z"/>
		<path class="st5" d="M611.9,528.7c-0.7,3.3-3,5.1-6.4,5.1c-4.8,0-7-3.3-7.2-7.9c0-4.5,3-7.8,7-7.8c5.3,0,6.9,5,6.8,8.6h-11.2
			c-0.1,2.6,1.4,4.9,4.7,4.9c2.1,0,3.5-1,3.9-2.9H611.9z M609.6,524.6c-0.1-2.3-1.9-4.2-4.3-4.2c-2.6,0-4.1,1.9-4.3,4.2H609.6z"/>
		<path class="st5" d="M628,533.4c-0.4,0.3-1,0.4-1.8,0.4c-1.3,0-2.1-0.7-2.1-2.3c-1.4,1.6-3.2,2.3-5.3,2.3c-2.7,0-5-1.2-5-4.2
			c0-3.4,2.5-4.1,5.1-4.6c2.7-0.6,5-0.3,5-2.2c0-2.2-1.8-2.5-3.3-2.5c-2.1,0-3.6,0.6-3.7,2.8h-2.5c0.1-3.7,3-5,6.4-5
			c2.7,0,5.6,0.6,5.6,4.1v7.7c0,1.2,0,1.7,0.8,1.7c0.2,0,0.5-0.1,0.8-0.1V533.4z M624,525.7c-1.9,1.4-7.5,0-7.5,3.7
			c0,1.6,1.4,2.2,2.9,2.2c3.2,0,4.6-2,4.6-3.4V525.7z"/>
		<path class="st5" d="M643.7,533.5h-2.5v-2h-0.1c-0.8,1.7-2.7,2.4-4.8,2.4c-4.6,0-6.9-3.7-6.9-7.9c0-4.2,2.3-7.8,6.8-7.8
			c1.5,0,3.8,0.6,4.8,2.3h0.1v-7.7h2.5V533.5z M636.7,531.7c3.3,0,4.6-2.9,4.6-5.7c0-2.9-1.3-5.7-4.7-5.7c-3.4,0-4.5,2.9-4.5,5.8
			C632.1,528.9,633.5,531.7,636.7,531.7z"/>
		<path class="st5" d="M649,528.8c0.1,2.2,2,2.9,4,2.9c1.5,0,3.6-0.3,3.6-2.2c0-3.9-9.8-1.2-9.8-7c0-3,3-4.3,5.6-4.3
			c3.4,0,5.9,1,6.1,4.7h-2.5c-0.1-1.9-1.9-2.5-3.5-2.5c-1.5,0-3.2,0.4-3.2,1.9c0,1.7,2.6,2.1,4.9,2.6c2.5,0.6,4.9,1.4,4.9,4.3
			c0,3.6-3.3,4.7-6.4,4.7c-3.4,0-6.2-1.4-6.4-5.1H649z"/>
		<path class="st5" d="M670,518.5h2.3v2.2h0.1c1.1-1.7,2.7-2.6,4.8-2.6c1.9,0,3.5,0.7,4.1,2.6c1-1.6,2.8-2.6,4.7-2.6
			c3,0,5,1.2,5,4.4v11h-2.5v-9.8c0-1.9-0.5-3.3-2.9-3.3c-2.4,0-3.9,1.5-3.9,3.8v9.3h-2.5v-9.8c0-1.9-0.6-3.3-2.8-3.3
			c-2.9,0-4,2.7-4,3.8v9.3H670V518.5z"/>
		<path class="st5" d="M708.1,533.4c-0.4,0.3-1,0.4-1.8,0.4c-1.3,0-2.1-0.7-2.1-2.3c-1.4,1.6-3.2,2.3-5.3,2.3c-2.7,0-5-1.2-5-4.2
			c0-3.4,2.5-4.1,5.1-4.6c2.7-0.6,5-0.3,5-2.2c0-2.2-1.8-2.5-3.3-2.5c-2.1,0-3.6,0.6-3.7,2.8h-2.5c0.1-3.7,3-5,6.4-5
			c2.7,0,5.6,0.6,5.6,4.1v7.7c0,1.2,0,1.7,0.8,1.7c0.2,0,0.5-0.1,0.8-0.1V533.4z M704.1,525.7c-1.9,1.4-7.5,0-7.5,3.7
			c0,1.6,1.4,2.2,2.9,2.2c3.2,0,4.6-2,4.6-3.4V525.7z"/>
		<path class="st5" d="M713.8,518.5h3v2.2h-3v9.3c0,1.2,0.3,1.3,1.9,1.3h1.1v2.2h-1.9c-2.6,0-3.6-0.5-3.6-3.3v-9.5h-2.6v-2.2h2.6
			V514h2.5V518.5z"/>
		<path class="st5" d="M732.3,528.7c-0.7,3.3-3,5.1-6.4,5.1c-4.8,0-7-3.3-7.2-7.9c0-4.5,3-7.8,7-7.8c5.3,0,6.9,5,6.8,8.6h-11.2
			c-0.1,2.6,1.4,4.9,4.7,4.9c2.1,0,3.5-1,3.9-2.9H732.3z M729.9,524.6c-0.1-2.3-1.9-4.2-4.3-4.2c-2.6,0-4.1,1.9-4.3,4.2H729.9z"/>
		<path class="st5" d="M735,518.5h2.3v3.2h0.1c1.2-2.4,2.8-3.6,5.5-3.5v2.6c-4,0-5.4,2.2-5.4,6.1v6.7H735V518.5z"/>
		<path class="st5" d="M747.3,515.8h-2.5v-3h2.5V515.8z M744.9,518.5h2.5v15h-2.5V518.5z"/>
		<path class="st5" d="M764.4,533.4c-0.4,0.3-1,0.4-1.8,0.4c-1.3,0-2.1-0.7-2.1-2.3c-1.4,1.6-3.2,2.3-5.3,2.3c-2.7,0-5-1.2-5-4.2
			c0-3.4,2.5-4.1,5.1-4.6c2.7-0.6,5-0.3,5-2.2c0-2.2-1.8-2.5-3.3-2.5c-2.1,0-3.6,0.6-3.7,2.8h-2.5c0.1-3.7,3-5,6.4-5
			c2.7,0,5.6,0.6,5.6,4.1v7.7c0,1.2,0,1.7,0.8,1.7c0.2,0,0.5-0.1,0.8-0.1V533.4z M760.4,525.7c-1.9,1.4-7.5,0-7.5,3.7
			c0,1.6,1.4,2.2,2.9,2.2c3.2,0,4.6-2,4.6-3.4V525.7z"/>
		<path class="st5" d="M766.9,512.8h2.5v20.7h-2.5V512.8z"/>
		<path class="st5" d="M774.7,528.8c0.1,2.2,2,2.9,4,2.9c1.5,0,3.6-0.3,3.6-2.2c0-3.9-9.8-1.2-9.8-7c0-3,3-4.3,5.6-4.3
			c3.4,0,5.9,1,6.1,4.7h-2.5c-0.1-1.9-1.9-2.5-3.5-2.5c-1.5,0-3.2,0.4-3.2,1.9c0,1.7,2.6,2.1,4.9,2.6c2.5,0.6,4.9,1.4,4.9,4.3
			c0,3.6-3.3,4.7-6.4,4.7c-3.4,0-6.2-1.4-6.4-5.1H774.7z"/>
		<path class="st5" d="M805.9,523.3c-0.4-1.9-1.7-3-3.7-3c-3.6,0-4.7,2.8-4.7,5.9c0,2.8,1.2,5.5,4.4,5.5c2.4,0,3.8-1.4,4.1-3.7h2.5
			c-0.6,3.7-2.8,5.8-6.6,5.8c-4.6,0-7-3.2-7-7.7s2.3-8,7.1-8c3.4,0,6.1,1.6,6.5,5.2H805.9z"/>
		<path class="st5" d="M811.2,518.5h2.3v3.2h0.1c1.2-2.4,2.8-3.6,5.5-3.5v2.6c-4,0-5.4,2.2-5.4,6.1v6.7h-2.5V518.5z"/>
		<path class="st5" d="M833.8,528.7c-0.7,3.3-3,5.1-6.4,5.1c-4.8,0-7-3.3-7.2-7.9c0-4.5,3-7.8,7-7.8c5.3,0,6.9,5,6.8,8.6h-11.2
			c-0.1,2.6,1.4,4.9,4.7,4.9c2.1,0,3.5-1,3.9-2.9H833.8z M831.4,524.6c-0.1-2.3-1.9-4.2-4.3-4.2c-2.6,0-4.1,1.9-4.3,4.2H831.4z"/>
		<path class="st5" d="M849.8,533.4c-0.4,0.3-1,0.4-1.8,0.4c-1.3,0-2.1-0.7-2.1-2.3c-1.4,1.6-3.2,2.3-5.3,2.3c-2.7,0-5-1.2-5-4.2
			c0-3.4,2.5-4.1,5.1-4.6c2.7-0.6,5-0.3,5-2.2c0-2.2-1.8-2.5-3.3-2.5c-2.1,0-3.6,0.6-3.7,2.8h-2.5c0.1-3.7,3-5,6.4-5
			c2.7,0,5.6,0.6,5.6,4.1v7.7c0,1.2,0,1.7,0.8,1.7c0.2,0,0.5-0.1,0.8-0.1V533.4z M845.8,525.7c-1.9,1.4-7.5,0-7.5,3.7
			c0,1.6,1.4,2.2,2.9,2.2c3.2,0,4.6-2,4.6-3.4V525.7z"/>
		<path class="st5" d="M855.5,518.5h3v2.2h-3v9.3c0,1.2,0.3,1.3,1.9,1.3h1.1v2.2h-1.9c-2.6,0-3.6-0.5-3.6-3.3v-9.5h-2.6v-2.2h2.6
			V514h2.5V518.5z"/>
		<path class="st5" d="M863.8,515.8h-2.5v-3h2.5V515.8z M861.4,518.5h2.5v15h-2.5V518.5z"/>
		<path class="st5" d="M874.1,518.1c4.8,0,7.3,3.5,7.3,7.9c0,4.4-2.5,7.8-7.3,7.8c-4.8,0-7.3-3.5-7.3-7.8
			C866.9,521.6,869.4,518.1,874.1,518.1z M874.1,531.7c2.6,0,4.7-2,4.7-5.7c0-3.6-2.1-5.7-4.7-5.7c-2.6,0-4.7,2.1-4.7,5.7
			C869.5,529.6,871.6,531.7,874.1,531.7z"/>
		<path class="st5" d="M884.3,518.5h2.3v2.4h0.1c1-1.9,2.7-2.7,4.9-2.7c3.9,0,5.2,2.3,5.2,5.5v9.9h-2.5v-10.2c0-1.9-1.2-3-3-3
			c-3,0-4.4,2-4.4,4.7v8.5h-2.5V518.5z"/>
		<path class="st5" d="M908.6,512.8h2.5v7.7h0.1c0.8-1.7,2.7-2.4,4.8-2.4c4.6,0,6.9,3.7,6.9,7.9c0,4.3-2.3,7.8-6.8,7.8
			c-1.5,0-3.8-0.6-4.8-2.3h-0.1v2h-2.5V512.8z M915.6,520.3c-3.3,0-4.6,2.9-4.6,5.7c0,2.9,1.3,5.7,4.7,5.7c3.4,0,4.5-2.9,4.5-5.8
			C920.2,523,918.7,520.3,915.6,520.3z"/>
		<path class="st5" d="M939,533.4c-0.4,0.3-1,0.4-1.8,0.4c-1.3,0-2.1-0.7-2.1-2.3c-1.4,1.6-3.2,2.3-5.3,2.3c-2.7,0-5-1.2-5-4.2
			c0-3.4,2.5-4.1,5.1-4.6c2.7-0.6,5-0.3,5-2.2c0-2.2-1.8-2.5-3.3-2.5c-2.1,0-3.6,0.6-3.7,2.8h-2.5c0.1-3.7,3-5,6.4-5
			c2.7,0,5.6,0.6,5.6,4.1v7.7c0,1.2,0,1.7,0.8,1.7c0.2,0,0.5-0.1,0.8-0.1V533.4z M935,525.7c-1.9,1.4-7.5,0-7.5,3.7
			c0,1.6,1.4,2.2,2.9,2.2c3.2,0,4.6-2,4.6-3.4V525.7z"/>
		<path class="st5" d="M942.8,528.8c0.1,2.2,2,2.9,4,2.9c1.5,0,3.6-0.3,3.6-2.2c0-3.9-9.8-1.2-9.8-7c0-3,3-4.3,5.6-4.3
			c3.4,0,5.9,1,6.1,4.7h-2.5c-0.1-1.9-1.9-2.5-3.5-2.5c-1.5,0-3.2,0.4-3.2,1.9c0,1.7,2.6,2.1,4.9,2.6c2.5,0.6,4.9,1.4,4.9,4.3
			c0,3.6-3.3,4.7-6.4,4.7c-3.4,0-6.2-1.4-6.4-5.1H942.8z"/>
		<path class="st5" d="M968.6,528.7c-0.7,3.3-3,5.1-6.4,5.1c-4.8,0-7-3.3-7.2-7.9c0-4.5,3-7.8,7-7.8c5.3,0,6.9,5,6.8,8.6h-11.2
			c-0.1,2.6,1.4,4.9,4.7,4.9c2.1,0,3.5-1,3.9-2.9H968.6z M966.2,524.6c-0.1-2.3-1.9-4.2-4.3-4.2c-2.6,0-4.1,1.9-4.3,4.2H966.2z"/>
		<path class="st5" d="M984.8,533.5h-2.5v-2h-0.1c-0.8,1.7-2.7,2.4-4.8,2.4c-4.6,0-6.9-3.7-6.9-7.9c0-4.2,2.3-7.8,6.8-7.8
			c1.5,0,3.8,0.6,4.8,2.3h0.1v-7.7h2.5V533.5z M977.8,531.7c3.3,0,4.6-2.9,4.6-5.7c0-2.9-1.3-5.7-4.7-5.7c-3.4,0-4.5,2.9-4.5,5.8
			C973.1,528.9,974.6,531.7,977.8,531.7z"/>
		<path class="st5" d="M1003.1,518.1c4.8,0,7.3,3.5,7.3,7.9c0,4.4-2.5,7.8-7.3,7.8c-4.8,0-7.3-3.5-7.3-7.8
			C995.8,521.6,998.3,518.1,1003.1,518.1z M1003.1,531.7c2.6,0,4.7-2,4.7-5.7c0-3.6-2.1-5.7-4.7-5.7c-2.6,0-4.7,2.1-4.7,5.7
			C998.4,529.6,1000.5,531.7,1003.1,531.7z"/>
		<path class="st5" d="M1013.3,518.5h2.3v2.4h0.1c1-1.9,2.7-2.7,4.9-2.7c3.9,0,5.2,2.3,5.2,5.5v9.9h-2.5v-10.2c0-1.9-1.2-3-3-3
			c-3,0-4.4,2-4.4,4.7v8.5h-2.5V518.5z"/>
		<path class="st5" d="M594.8,553.3h2.3v2.2h0.1c1.1-1.7,2.7-2.6,4.8-2.6c1.9,0,3.5,0.7,4.1,2.6c1-1.6,2.8-2.6,4.7-2.6
			c3,0,5,1.2,5,4.4v11h-2.5v-9.8c0-1.9-0.5-3.3-2.9-3.3c-2.4,0-3.9,1.5-3.9,3.8v9.3h-2.5v-9.8c0-1.9-0.6-3.3-2.8-3.3
			c-2.9,0-4,2.7-4,3.8v9.3h-2.5V553.3z"/>
		<path class="st5" d="M632.9,568.2c-0.4,0.3-1,0.4-1.8,0.4c-1.3,0-2.1-0.7-2.1-2.3c-1.4,1.6-3.2,2.3-5.3,2.3c-2.7,0-5-1.2-5-4.2
			c0-3.4,2.5-4.1,5.1-4.6c2.7-0.6,5-0.3,5-2.2c0-2.2-1.8-2.5-3.3-2.5c-2.1,0-3.6,0.6-3.7,2.8h-2.5c0.1-3.7,3-5,6.4-5
			c2.7,0,5.6,0.6,5.6,4.1v7.7c0,1.2,0,1.7,0.8,1.7c0.2,0,0.5-0.1,0.8-0.1V568.2z M628.9,560.5c-1.9,1.4-7.5,0-7.5,3.7
			c0,1.6,1.4,2.2,2.9,2.2c3.2,0,4.6-2,4.6-3.4V560.5z"/>
		<path class="st5" d="M638.6,553.3h3v2.2h-3v9.3c0,1.2,0.3,1.3,1.9,1.3h1.1v2.2h-1.9c-2.6,0-3.6-0.5-3.6-3.3v-9.5h-2.6v-2.2h2.6
			v-4.5h2.5V553.3z"/>
		<path class="st5" d="M657.1,563.5c-0.7,3.3-3,5.1-6.4,5.1c-4.8,0-7-3.3-7.2-7.9c0-4.5,3-7.8,7-7.8c5.3,0,6.9,5,6.8,8.6h-11.2
			c-0.1,2.6,1.4,4.9,4.7,4.9c2.1,0,3.5-1,3.9-2.9H657.1z M654.7,559.4c-0.1-2.3-1.9-4.2-4.3-4.2c-2.6,0-4.1,1.9-4.3,4.2H654.7z"/>
		<path class="st5" d="M659.8,553.3h2.3v3.2h0.1c1.2-2.4,2.8-3.6,5.5-3.5v2.6c-4,0-5.4,2.2-5.4,6.1v6.7h-2.5V553.3z"/>
		<path class="st5" d="M672.1,550.6h-2.5v-3h2.5V550.6z M669.7,553.3h2.5v15h-2.5V553.3z"/>
		<path class="st5" d="M689.2,568.2c-0.4,0.3-1,0.4-1.8,0.4c-1.3,0-2.1-0.7-2.1-2.3c-1.4,1.6-3.2,2.3-5.3,2.3c-2.7,0-5-1.2-5-4.2
			c0-3.4,2.5-4.1,5.1-4.6c2.7-0.6,5-0.3,5-2.2c0-2.2-1.8-2.5-3.3-2.5c-2.1,0-3.6,0.6-3.7,2.8h-2.5c0.1-3.7,3-5,6.4-5
			c2.7,0,5.6,0.6,5.6,4.1v7.7c0,1.2,0,1.7,0.8,1.7c0.2,0,0.5-0.1,0.8-0.1V568.2z M685.2,560.5c-1.9,1.4-7.5,0-7.5,3.7
			c0,1.6,1.4,2.2,2.9,2.2c3.2,0,4.6-2,4.6-3.4V560.5z"/>
		<path class="st5" d="M691.7,547.6h2.5v20.7h-2.5V547.6z"/>
		<path class="st5" d="M707.5,563.6c0.1,2.2,2,2.9,4,2.9c1.5,0,3.6-0.3,3.6-2.2c0-3.9-9.8-1.2-9.8-7c0-3,3-4.3,5.6-4.3
			c3.4,0,5.9,1,6.1,4.7h-2.5c-0.1-1.9-1.9-2.5-3.5-2.5c-1.5,0-3.2,0.4-3.2,1.9c0,1.7,2.6,2.1,4.9,2.6c2.5,0.6,4.9,1.4,4.9,4.3
			c0,3.6-3.3,4.7-6.4,4.7c-3.4,0-6.2-1.4-6.4-5.1H707.5z"/>
		<path class="st5" d="M720.6,553.3h2.5v2h0.1c0.8-1.7,2.7-2.4,4.8-2.4c4.6,0,6.9,3.7,6.9,7.9c0,4.3-2.3,7.8-6.8,7.8
			c-1.5,0-3.8-0.6-4.8-2.3h-0.1v7.7h-2.5V553.3z M727.6,555.1c-3.3,0-4.6,2.9-4.6,5.7c0,2.9,1.3,5.7,4.7,5.7c3.4,0,4.5-2.9,4.5-5.8
			C732.2,557.8,730.8,555.1,727.6,555.1z"/>
		<path class="st5" d="M750.5,563.5c-0.7,3.3-3,5.1-6.4,5.1c-4.8,0-7-3.3-7.2-7.9c0-4.5,3-7.8,7-7.8c5.3,0,6.9,5,6.8,8.6h-11.2
			c-0.1,2.6,1.4,4.9,4.7,4.9c2.1,0,3.5-1,3.9-2.9H750.5z M748.1,559.4c-0.1-2.3-1.9-4.2-4.3-4.2c-2.6,0-4.1,1.9-4.3,4.2H748.1z"/>
		<path class="st5" d="M763.5,558.1c-0.4-1.9-1.7-3-3.7-3c-3.6,0-4.7,2.8-4.7,5.9c0,2.8,1.2,5.5,4.4,5.5c2.4,0,3.8-1.4,4.1-3.7h2.5
			c-0.6,3.7-2.8,5.8-6.6,5.8c-4.6,0-7-3.2-7-7.7s2.3-8,7.1-8c3.4,0,6.1,1.6,6.5,5.2H763.5z"/>
		<path class="st5" d="M771.5,550.6H769v-3h2.5V550.6z M769,553.3h2.5v15H769V553.3z"/>
		<path class="st5" d="M776.3,555.5h-2.5v-2.2h2.5v-2.2c0-2.4,1.5-3.7,4.1-3.7c0.5,0,1.1,0.1,1.6,0.2v2.1c-0.4-0.1-1-0.2-1.4-0.2
			c-1.2,0-1.9,0.4-1.9,1.7v2.1h2.9v2.2h-2.9v12.8h-2.5V555.5z M784,550.6v-3h2.5v3H784z M784,568.3v-15h2.5v15H784z"/>
		<path class="st5" d="M800.5,558.1c-0.4-1.9-1.7-3-3.7-3c-3.6,0-4.7,2.8-4.7,5.9c0,2.8,1.2,5.5,4.4,5.5c2.4,0,3.8-1.4,4.1-3.7h2.5
			c-0.6,3.7-2.8,5.8-6.6,5.8c-4.6,0-7-3.2-7-7.7s2.3-8,7.1-8c3.4,0,6.1,1.6,6.5,5.2H800.5z"/>
		<path class="st5" d="M813.9,553.3h2.3v3.2h0.1c1.2-2.4,2.8-3.6,5.5-3.5v2.6c-4,0-5.4,2.2-5.4,6.1v6.7h-2.5V553.3z"/>
		<path class="st5" d="M836.4,563.5c-0.7,3.3-3,5.1-6.4,5.1c-4.8,0-7-3.3-7.2-7.9c0-4.5,3-7.8,7-7.8c5.3,0,6.9,5,6.8,8.6h-11.2
			c-0.1,2.6,1.4,4.9,4.7,4.9c2.1,0,3.5-1,3.9-2.9H836.4z M834,559.4c-0.1-2.3-1.9-4.2-4.3-4.2c-2.6,0-4.1,1.9-4.3,4.2H834z"/>
		<path class="st5" d="M852.6,574h-2.5v-7.8h-0.1c-0.8,1.7-2.7,2.4-4.8,2.4c-4.6,0-6.9-3.7-6.9-7.9c0-4.2,2.3-7.8,6.8-7.8
			c1.5,0,3.8,0.6,4.8,2.3h0.1v-2h2.5V574z M845.6,566.5c3.3,0,4.6-2.9,4.6-5.7c0-2.9-1.3-5.7-4.7-5.7c-3.4,0-4.5,2.9-4.5,5.8
			C841,563.7,842.4,566.5,845.6,566.5z"/>
		<path class="st5" d="M868.8,568.3h-2.3v-2.4h-0.1c-1,1.9-2.7,2.7-4.9,2.7c-3.9,0-5.2-2.3-5.2-5.5v-9.9h2.5v10.2c0,1.9,1.2,3,3,3
			c3,0,4.4-2,4.4-4.7v-8.5h2.5V568.3z"/>
		<path class="st5" d="M875.1,550.6h-2.5v-3h2.5V550.6z M872.7,553.3h2.5v15h-2.5V553.3z"/>
		<path class="st5" d="M878.9,553.3h2.3v3.2h0.1c1.2-2.4,2.8-3.6,5.5-3.5v2.6c-4,0-5.4,2.2-5.4,6.1v6.7h-2.5V553.3z"/>
		<path class="st5" d="M901.4,563.5c-0.7,3.3-3,5.1-6.4,5.1c-4.8,0-7-3.3-7.2-7.9c0-4.5,3-7.8,7-7.8c5.3,0,6.9,5,6.8,8.6h-11.2
			c-0.1,2.6,1.4,4.9,4.7,4.9c2.1,0,3.5-1,3.9-2.9H901.4z M899,559.4c-0.1-2.3-1.9-4.2-4.3-4.2c-2.6,0-4.1,1.9-4.3,4.2H899z"/>
		<path class="st5" d="M904.2,553.3h2.3v2.2h0.1c1.1-1.7,2.7-2.6,4.8-2.6c1.9,0,3.5,0.7,4.1,2.6c1-1.6,2.8-2.6,4.7-2.6
			c3,0,5,1.2,5,4.4v11h-2.5v-9.8c0-1.9-0.5-3.3-2.9-3.3c-2.4,0-3.9,1.5-3.9,3.8v9.3h-2.5v-9.8c0-1.9-0.6-3.3-2.8-3.3
			c-2.9,0-4,2.7-4,3.8v9.3h-2.5V553.3z"/>
		<path class="st5" d="M941.7,563.5c-0.7,3.3-3,5.1-6.4,5.1c-4.8,0-7-3.3-7.2-7.9c0-4.5,3-7.8,7-7.8c5.3,0,6.9,5,6.8,8.6h-11.2
			c-0.1,2.6,1.4,4.9,4.7,4.9c2.1,0,3.5-1,3.9-2.9H941.7z M939.3,559.4c-0.1-2.3-1.9-4.2-4.3-4.2c-2.6,0-4.1,1.9-4.3,4.2H939.3z"/>
		<path class="st5" d="M944.5,553.3h2.3v2.4h0.1c1-1.9,2.7-2.7,4.9-2.7c3.9,0,5.2,2.3,5.2,5.5v9.9h-2.5v-10.2c0-1.9-1.2-3-3-3
			c-3,0-4.4,2-4.4,4.7v8.5h-2.5V553.3z"/>
		<path class="st5" d="M964,553.3h3v2.2h-3v9.3c0,1.2,0.3,1.3,1.9,1.3h1.1v2.2h-1.9c-2.6,0-3.6-0.5-3.6-3.3v-9.5H959v-2.2h2.6v-4.5
			h2.5V553.3z"/>
		<path class="st5" d="M971.3,563.6c0.1,2.2,2,2.9,4,2.9c1.5,0,3.6-0.3,3.6-2.2c0-3.9-9.8-1.2-9.8-7c0-3,3-4.3,5.6-4.3
			c3.4,0,5.9,1,6.1,4.7h-2.5c-0.1-1.9-1.9-2.5-3.5-2.5c-1.5,0-3.2,0.4-3.2,1.9c0,1.7,2.6,2.1,4.9,2.6c2.5,0.6,4.9,1.4,4.9,4.3
			c0,3.6-3.3,4.7-6.4,4.7c-3.4,0-6.2-1.4-6.4-5.1H971.3z"/>
	</g>
</g>
<g>
	<g>
		<g>
			<line class="st9" x1="784.7" y1="475.4" x2="784.7" y2="504.3"/>
			<g>
				<line class="st10" x1="784.7" y1="475.4" x2="784.7" y2="500.9"/>
				<g>
					<polygon class="st11" points="779.6,494.9 784.7,500 789.7,494.9 789.7,499.2 784.7,504.3 779.6,499.2 					"/>
				</g>
			</g>
		</g>
	</g>
</g>
<g>
	<g>
		<g>
			<line class="st9" x1="113.4" y1="625.4" x2="113.4" y2="654.3"/>
			<g>
				<line class="st10" x1="113.4" y1="625.4" x2="113.4" y2="650.8"/>
				<g>
					<polygon class="st11" points="108.3,644.9 113.4,650 118.5,644.9 118.5,649.2 113.4,654.3 108.3,649.2 					"/>
				</g>
			</g>
		</g>
	</g>
</g>
<g>
	<g>
		<g>
			<line class="st9" x1="784.7" y1="728.7" x2="784.7" y2="757.6"/>
			<g>
				<line class="st10" x1="784.7" y1="728.7" x2="784.7" y2="754.2"/>
				<g>
					<polygon class="st11" points="779.6,748.2 784.7,753.3 789.7,748.2 789.7,752.6 784.7,757.6 779.6,752.6 					"/>
				</g>
			</g>
		</g>
	</g>
</g>
<g>
	<g>
		<g>
			<path class="st9" d="M785.6,502.3"/>
		</g>
	</g>
</g>
<g>
	<g>
		<g>
			<path class="st9" d="M111.8,641.5"/>
		</g>
	</g>
</g>
<g>
	<g>
		<g>
			<line class="st9" x1="925.1" y1="858.8" x2="1196.3" y2="858.8"/>
			<g>
				<line class="st13" x1="925.1" y1="858.8" x2="1193" y2="858.8"/>
				<g>
					<polygon class="st11" points="1187.4,863.6 1192.2,858.8 1187.4,854.1 1191.5,854.1 1196.3,858.8 1191.5,863.6 					"/>
				</g>
			</g>
		</g>
	</g>
</g>
<g>
	<rect x="971.1" y="827.9" class="st14" width="145.9" height="51"/>
	<g>
		<rect x="977.7" y="845.4" class="st4" width="132.8" height="27.4"/>
		<path class="st15" d="M1027.5,845.4h2.9l10.9,16.8h0.1v-16.8h2.6v20.7h-3l-10.8-16.6h-0.1v16.6h-2.6V845.4z"/>
		<path class="st15" d="M1054.5,850.8c4.8,0,7.3,3.5,7.3,7.9c0,4.4-2.5,7.8-7.3,7.8c-4.8,0-7.3-3.5-7.3-7.8
			C1047.3,854.2,1049.8,850.8,1054.5,850.8z M1054.5,864.3c2.6,0,4.7-2,4.7-5.7c0-3.6-2.1-5.7-4.7-5.7c-2.6,0-4.7,2.1-4.7,5.7
			C1049.9,862.2,1052,864.3,1054.5,864.3z"/>
	</g>
</g>
<g>
	<g>
		<g>
			<line class="st9" x1="1060.7" y1="50" x2="1501.5" y2="50"/>
			<g>
				<line class="st13" x1="1060.7" y1="50" x2="1498.3" y2="50"/>
				<g>
					<polygon class="st11" points="1492.7,54.8 1497.5,50 1492.7,45.2 1496.7,45.2 1501.5,50 1496.7,54.8 					"/>
				</g>
			</g>
		</g>
	</g>
</g>
<g>
	<g>
		<g>
			<line class="st9" x1="1501.5" y1="103.5" x2="1060.7" y2="103.5"/>
			<g>
				<line class="st13" x1="1501.5" y1="103.5" x2="1063.9" y2="103.5"/>
				<g>
					<polygon class="st11" points="1069.5,98.7 1064.8,103.5 1069.5,108.3 1065.5,108.3 1060.7,103.5 1065.5,98.7 					"/>
				</g>
			</g>
		</g>
	</g>
</g>
<rect x="1637.9" y="472.7" class="st16" width="396.9" height="106.9"/>
<g>
	<rect x="1647.6" y="502.3" class="st4" width="374.6" height="57.7"/>
	<path class="st5" d="M1655.4,502.3h7.1c6.4,0,9.9,3.2,9.9,9.9c0,6.9-3,10.8-9.9,10.8h-7.1V502.3z M1658.1,520.7h4.6
		c1.9,0,7-0.5,7-8.2c0-4.9-1.8-7.9-6.9-7.9h-4.6V520.7z"/>
	<path class="st5" d="M1688.2,518.3c-0.7,3.3-3,5.1-6.4,5.1c-4.8,0-7-3.3-7.2-7.9c0-4.5,3-7.8,7-7.8c5.3,0,6.9,5,6.8,8.6h-11.2
		c-0.1,2.6,1.4,4.9,4.7,4.9c2.1,0,3.5-1,3.9-2.9H1688.2z M1685.8,514.1c-0.1-2.3-1.9-4.2-4.3-4.2c-2.6,0-4.1,1.9-4.3,4.2H1685.8z"/>
	<path class="st5" d="M1697.7,523h-2.6l-5.6-15h2.8l4.2,12.5h0.1l4.1-12.5h2.6L1697.7,523z"/>
	<path class="st5" d="M1718.2,518.3c-0.7,3.3-3,5.1-6.4,5.1c-4.8,0-7-3.3-7.2-7.9c0-4.5,3-7.8,7-7.8c5.3,0,6.9,5,6.8,8.6h-11.2
		c-0.1,2.6,1.4,4.9,4.7,4.9c2.1,0,3.5-1,3.9-2.9H1718.2z M1715.8,514.1c-0.1-2.3-1.9-4.2-4.3-4.2c-2.6,0-4.1,1.9-4.3,4.2H1715.8z"/>
	<path class="st5" d="M1721.2,502.3h2.5V523h-2.5V502.3z"/>
	<path class="st5" d="M1733.9,507.7c4.8,0,7.3,3.5,7.3,7.9c0,4.4-2.5,7.8-7.3,7.8c-4.8,0-7.3-3.5-7.3-7.8
		C1726.6,511.1,1729.2,507.7,1733.9,507.7z M1733.9,521.2c2.6,0,4.7-2,4.7-5.7c0-3.6-2.1-5.7-4.7-5.7c-2.6,0-4.7,2.1-4.7,5.7
		C1729.2,519.2,1731.3,521.2,1733.9,521.2z"/>
	<path class="st5" d="M1744.2,508h2.5v2h0.1c0.8-1.7,2.7-2.4,4.8-2.4c4.6,0,6.9,3.7,6.9,7.9c0,4.3-2.3,7.8-6.8,7.8
		c-1.5,0-3.8-0.6-4.8-2.3h-0.1v7.7h-2.5V508z M1751.1,509.9c-3.3,0-4.6,2.9-4.6,5.7c0,2.9,1.3,5.7,4.7,5.7c3.4,0,4.5-2.9,4.5-5.8
		C1755.8,512.6,1754.3,509.9,1751.1,509.9z"/>
	<path class="st5" d="M1761.3,508h2.3v2.2h0.1c1.1-1.7,2.7-2.6,4.8-2.6c1.9,0,3.5,0.7,4.1,2.6c1-1.6,2.8-2.6,4.7-2.6
		c3,0,5,1.2,5,4.4v11h-2.5v-9.8c0-1.9-0.5-3.3-2.9-3.3c-2.4,0-3.9,1.5-3.9,3.8v9.3h-2.5v-9.8c0-1.9-0.6-3.3-2.8-3.3
		c-2.9,0-4,2.7-4,3.8v9.3h-2.5V508z"/>
	<path class="st5" d="M1798.8,518.3c-0.7,3.3-3,5.1-6.4,5.1c-4.8,0-7-3.3-7.2-7.9c0-4.5,3-7.8,7-7.8c5.3,0,6.9,5,6.8,8.6h-11.2
		c-0.1,2.6,1.4,4.9,4.7,4.9c2.1,0,3.5-1,3.9-2.9H1798.8z M1796.4,514.1c-0.1-2.3-1.9-4.2-4.3-4.2c-2.6,0-4.1,1.9-4.3,4.2H1796.4z"/>
	<path class="st5" d="M1801.6,508h2.3v2.4h0.1c1-1.9,2.7-2.7,4.9-2.7c3.9,0,5.2,2.3,5.2,5.5v9.9h-2.5v-10.2c0-1.9-1.2-3-3-3
		c-3,0-4.4,2-4.4,4.7v8.5h-2.5V508z"/>
	<path class="st5" d="M1821.1,508h3v2.2h-3v9.3c0,1.2,0.3,1.3,1.9,1.3h1.1v2.2h-1.9c-2.6,0-3.6-0.5-3.6-3.3v-9.5h-2.6V508h2.6v-4.5
		h2.5V508z"/>
	<path class="st5" d="M1838.3,508h3v2.2h-3v9.3c0,1.2,0.3,1.3,1.9,1.3h1.1v2.2h-1.9c-2.6,0-3.6-0.5-3.6-3.3v-9.5h-2.6V508h2.6v-4.5
		h2.5V508z"/>
	<path class="st5" d="M1850.5,507.7c4.8,0,7.3,3.5,7.3,7.9c0,4.4-2.5,7.8-7.3,7.8c-4.8,0-7.3-3.5-7.3-7.8
		C1843.2,511.1,1845.8,507.7,1850.5,507.7z M1850.5,521.2c2.6,0,4.7-2,4.7-5.7c0-3.6-2.1-5.7-4.7-5.7c-2.6,0-4.7,2.1-4.7,5.7
		C1845.9,519.2,1847.9,521.2,1850.5,521.2z"/>
	<path class="st5" d="M1868.7,508h2.3v3.2h0.1c1.2-2.4,2.8-3.6,5.5-3.5v2.6c-4,0-5.4,2.2-5.4,6.1v6.7h-2.5V508z"/>
	<path class="st5" d="M1891.2,518.3c-0.7,3.3-3,5.1-6.4,5.1c-4.8,0-7-3.3-7.2-7.9c0-4.5,3-7.8,7-7.8c5.3,0,6.9,5,6.8,8.6h-11.2
		c-0.1,2.6,1.4,4.9,4.7,4.9c2.1,0,3.5-1,3.9-2.9H1891.2z M1888.8,514.1c-0.1-2.3-1.9-4.2-4.3-4.2c-2.6,0-4.1,1.9-4.3,4.2H1888.8z"/>
	<path class="st5" d="M1894.1,502.3h2.5V523h-2.5V502.3z"/>
	<path class="st5" d="M1913.2,518.3c-0.7,3.3-3,5.1-6.4,5.1c-4.8,0-7-3.3-7.2-7.9c0-4.5,3-7.8,7-7.8c5.3,0,6.9,5,6.8,8.6h-11.2
		c-0.1,2.6,1.4,4.9,4.7,4.9c2.1,0,3.5-1,3.9-2.9H1913.2z M1910.8,514.1c-0.1-2.3-1.9-4.2-4.3-4.2c-2.6,0-4.1,1.9-4.3,4.2H1910.8z"/>
	<path class="st5" d="M1929.3,523c-0.4,0.3-1,0.4-1.8,0.4c-1.3,0-2.1-0.7-2.1-2.3c-1.4,1.6-3.2,2.3-5.3,2.3c-2.7,0-5-1.2-5-4.2
		c0-3.4,2.5-4.1,5.1-4.6c2.7-0.6,5-0.3,5-2.2c0-2.2-1.8-2.5-3.3-2.5c-2.1,0-3.6,0.6-3.7,2.8h-2.5c0.1-3.7,3-5,6.4-5
		c2.7,0,5.6,0.6,5.6,4.1v7.7c0,1.2,0,1.7,0.8,1.7c0.2,0,0.5-0.1,0.8-0.1V523z M1925.3,515.3c-1.9,1.4-7.5,0-7.5,3.7
		c0,1.6,1.4,2.2,2.9,2.2c3.2,0,4.6-2,4.6-3.4V515.3z"/>
	<path class="st5" d="M1933.1,518.3c0.1,2.2,2,2.9,4,2.9c1.5,0,3.6-0.3,3.6-2.2c0-3.9-9.8-1.2-9.8-7c0-3,3-4.3,5.6-4.3
		c3.4,0,5.9,1,6.1,4.7h-2.5c-0.1-1.9-1.9-2.5-3.5-2.5c-1.5,0-3.2,0.4-3.2,1.9c0,1.7,2.6,2.1,4.9,2.6c2.5,0.6,4.9,1.4,4.9,4.3
		c0,3.6-3.3,4.7-6.4,4.7c-3.4,0-6.2-1.4-6.4-5.1H1933.1z"/>
	<path class="st5" d="M1958.9,518.3c-0.7,3.3-3,5.1-6.4,5.1c-4.8,0-7-3.3-7.2-7.9c0-4.5,3-7.8,7-7.8c5.3,0,6.9,5,6.8,8.6h-11.2
		c-0.1,2.6,1.4,4.9,4.7,4.9c2.1,0,3.5-1,3.9-2.9H1958.9z M1956.5,514.1c-0.1-2.3-1.9-4.2-4.3-4.2c-2.6,0-4.1,1.9-4.3,4.2H1956.5z"/>
	<path class="st5" d="M1983,523c-0.4,0.3-1,0.4-1.8,0.4c-1.3,0-2.1-0.7-2.1-2.3c-1.4,1.6-3.2,2.3-5.3,2.3c-2.7,0-5-1.2-5-4.2
		c0-3.4,2.5-4.1,5.1-4.6c2.7-0.6,5-0.3,5-2.2c0-2.2-1.8-2.5-3.3-2.5c-2.1,0-3.6,0.6-3.7,2.8h-2.5c0.1-3.7,3-5,6.4-5
		c2.7,0,5.6,0.6,5.6,4.1v7.7c0,1.2,0,1.7,0.8,1.7c0.2,0,0.5-0.1,0.8-0.1V523z M1979,515.3c-1.9,1.4-7.5,0-7.5,3.7
		c0,1.6,1.4,2.2,2.9,2.2c3.2,0,4.6-2,4.6-3.4V515.3z"/>
	<path class="st5" d="M1985.3,508h2.3v2.4h0.1c1-1.9,2.7-2.7,4.9-2.7c3.9,0,5.2,2.3,5.2,5.5v9.9h-2.5v-10.2c0-1.9-1.2-3-3-3
		c-3,0-4.4,2-4.4,4.7v8.5h-2.5V508z"/>
	<path class="st5" d="M2014.8,523h-2.5v-2h-0.1c-0.8,1.7-2.7,2.4-4.8,2.4c-4.6,0-6.9-3.7-6.9-7.9c0-4.2,2.3-7.8,6.8-7.8
		c1.5,0,3.8,0.6,4.8,2.3h0.1v-7.7h2.5V523z M2007.8,521.2c3.3,0,4.6-2.9,4.6-5.7c0-2.9-1.3-5.7-4.7-5.7c-3.4,0-4.5,2.9-4.5,5.8
		C2003.2,518.5,2004.7,521.2,2007.8,521.2z"/>
	<path class="st5" d="M1789.5,557.8h-2.5v-2h-0.1c-0.8,1.7-2.7,2.4-4.8,2.4c-4.6,0-6.9-3.7-6.9-7.9c0-4.2,2.3-7.8,6.8-7.8
		c1.5,0,3.8,0.6,4.8,2.3h0.1v-7.7h2.5V557.8z M1782.5,556c3.3,0,4.6-2.9,4.6-5.7c0-2.9-1.3-5.7-4.7-5.7c-3.4,0-4.5,2.9-4.5,5.8
		C1777.9,553.3,1779.3,556,1782.5,556z"/>
	<path class="st5" d="M1795.9,540.1h-2.5v-3h2.5V540.1z M1793.4,542.8h2.5v15h-2.5V542.8z"/>
	<path class="st5" d="M1801.2,553.1c0.1,2.2,2,2.9,4,2.9c1.5,0,3.6-0.3,3.6-2.2c0-3.9-9.8-1.2-9.8-7c0-3,3-4.3,5.6-4.3
		c3.4,0,5.9,1,6.1,4.7h-2.5c-0.1-1.9-1.9-2.5-3.5-2.5c-1.5,0-3.2,0.4-3.2,1.9c0,1.7,2.6,2.1,4.9,2.6c2.5,0.6,4.9,1.4,4.9,4.3
		c0,3.6-3.3,4.7-6.4,4.7c-3.4,0-6.2-1.4-6.4-5.1H1801.2z"/>
	<path class="st5" d="M1817.6,542.8h3v2.2h-3v9.3c0,1.2,0.3,1.3,1.9,1.3h1.1v2.2h-1.9c-2.6,0-3.6-0.5-3.6-3.3V545h-2.6v-2.2h2.6
		v-4.5h2.5V542.8z"/>
	<path class="st5" d="M1823.3,542.8h2.3v3.2h0.1c1.2-2.4,2.8-3.6,5.5-3.5v2.6c-4,0-5.4,2.2-5.4,6.1v6.7h-2.5V542.8z"/>
	<path class="st5" d="M1835.6,540.1h-2.5v-3h2.5V540.1z M1833.2,542.8h2.5v15h-2.5V542.8z"/>
	<path class="st5" d="M1839.5,537.1h2.5v7.7h0.1c0.8-1.7,2.7-2.4,4.8-2.4c4.6,0,6.9,3.7,6.9,7.9c0,4.3-2.3,7.8-6.8,7.8
		c-1.5,0-3.8-0.6-4.8-2.3h-0.1v2h-2.5V537.1z M1846.5,544.7c-3.3,0-4.6,2.9-4.6,5.7c0,2.9,1.3,5.7,4.7,5.7c3.4,0,4.5-2.9,4.5-5.8
		C1851.1,547.4,1849.7,544.7,1846.5,544.7z"/>
	<path class="st5" d="M1869.1,557.8h-2.3v-2.4h-0.1c-1,1.9-2.7,2.7-4.9,2.7c-3.9,0-5.2-2.3-5.2-5.5v-9.9h2.5V553c0,1.9,1.2,3,3,3
		c3,0,4.4-2,4.4-4.7v-8.5h2.5V557.8z"/>
	<path class="st5" d="M1876.2,542.8h3v2.2h-3v9.3c0,1.2,0.3,1.3,1.9,1.3h1.1v2.2h-1.9c-2.6,0-3.6-0.5-3.6-3.3V545h-2.6v-2.2h2.6
		v-4.5h2.5V542.8z"/>
	<path class="st5" d="M1894.7,553.1c-0.7,3.3-3,5.1-6.4,5.1c-4.8,0-7-3.3-7.2-7.9c0-4.5,3-7.8,7-7.8c5.3,0,6.9,5,6.8,8.6h-11.2
		c-0.1,2.6,1.4,4.9,4.7,4.9c2.1,0,3.5-1,3.9-2.9H1894.7z M1892.3,548.9c-0.1-2.3-1.9-4.2-4.3-4.2c-2.6,0-4.1,1.9-4.3,4.2H1892.3z"/>
</g>
<g>
	<g>
		<g>
			<line class="st9" x1="1060.2" y1="520.7" x2="1629.8" y2="520.7"/>
			<g>
				<line class="st13" x1="1060.2" y1="520.7" x2="1626.6" y2="520.7"/>
				<g>
					<polygon class="st11" points="1621,525.5 1625.7,520.7 1621,515.9 1625,515.9 1629.8,520.7 1625,525.5 					"/>
				</g>
			</g>
		</g>
	</g>
</g>
<g>
	<g>
		<polyline class="st17" points="645.7,859.8 316.6,859.8 316.6,604.6 316.6,542.3 496.1,542.3 		"/>
		<g>
			<polygon class="st11" points="491.7,546 495.5,542.3 491.7,538.6 494.9,538.6 498.6,542.3 494.9,546 			"/>
		</g>
	</g>
</g>
<g>
	<g>
		<polyline class="st13" points="1056.7,542.3 1094.3,542.3 1094.3,701.5 1063.4,701.5 		"/>
		<g>
			<polygon class="st11" points="1069,696.7 1064.2,701.5 1069,706.3 1064.9,706.3 1060.2,701.5 1064.9,696.7 			"/>
		</g>
	</g>
</g>
<g>
	<rect x="443.2" y="831.6" class="st18" width="171.9" height="51"/>
	<g>
		<rect x="448.3" y="847.3" class="st4" width="161.7" height="27.8"/>
		<path class="st15" d="M515.5,859.5v8.5h-2.8v-8.5l-8-12.2h3.3l6.2,9.9l6.1-9.9h3.1L515.5,859.5z"/>
		<path class="st15" d="M538.2,863.2c-0.7,3.3-3,5.1-6.4,5.1c-4.8,0-7-3.3-7.2-7.9c0-4.5,3-7.8,7-7.8c5.3,0,6.9,5,6.8,8.6h-11.2
			c-0.1,2.6,1.4,4.9,4.7,4.9c2.1,0,3.5-1,3.9-2.9H538.2z M535.8,859.1c-0.1-2.3-1.9-4.2-4.3-4.2c-2.6,0-4.1,1.9-4.3,4.2H535.8z"/>
		<path class="st15" d="M542.4,863.3c0.1,2.2,2,2.9,4,2.9c1.5,0,3.6-0.3,3.6-2.2c0-3.9-9.8-1.2-9.8-7c0-3,3-4.3,5.6-4.3
			c3.4,0,5.9,1,6.1,4.7h-2.5c-0.1-1.9-1.9-2.5-3.5-2.5c-1.5,0-3.2,0.4-3.2,1.9c0,1.7,2.6,2.1,4.9,2.6c2.5,0.6,4.9,1.4,4.9,4.3
			c0,3.6-3.3,4.7-6.4,4.7c-3.4,0-6.2-1.4-6.4-5.1H542.4z"/>
	</g>
</g>
<g>
	<g>
		<polyline class="st19" points="508.9,516.8 113.4,516.8 113.4,976 1644.1,976 1644.1,791 1160.7,791 1160.7,529 1064.2,529 		"/>
		<g>
			<polygon class="st11" points="1070.3,523.8 1065.1,529 1070.3,534.1 1065.9,534.1 1060.7,529 1065.9,523.8 			"/>
		</g>
	</g>
</g>
<rect x="10" y="654.3" class="st20" width="226.9" height="62.8"/>
<g>
	<g>
		<path class="st5" d="M43,675.1h2.8v18.4h11v2.3H43V675.1z"/>
		<path class="st5" d="M71.5,691c-0.7,3.3-3,5.1-6.4,5.1c-4.8,0-7-3.3-7.2-7.9c0-4.5,3-7.8,7-7.8c5.3,0,6.9,5,6.8,8.6H60.5
			c-0.1,2.6,1.4,4.9,4.7,4.9c2.1,0,3.5-1,3.9-2.9H71.5z M69.1,686.9c-0.1-2.3-1.9-4.2-4.3-4.2c-2.6,0-4.1,1.9-4.3,4.2H69.1z"/>
		<path class="st5" d="M87.2,694.5c0,4.9-2.2,7.4-7,7.4c-2.8,0-6.1-1.2-6.2-4.4h2.5c0.1,1.8,2.3,2.4,3.9,2.4c3.2,0,4.5-2.3,4.5-5.7
			v-1h-0.1c-0.8,1.8-2.8,2.7-4.7,2.7c-4.5,0-6.7-3.5-6.7-7.6c0-3.5,1.7-7.9,6.9-7.9c1.9,0,3.6,0.8,4.5,2.5h0v-2.1h2.3V694.5z
			 M84.8,688c0-2.6-1.2-5.4-4.3-5.4c-3.2,0-4.4,2.6-4.4,5.5c0,2.7,1,5.7,4.2,5.7C83.6,693.8,84.8,690.8,84.8,688z"/>
		<path class="st5" d="M104.2,695.7c-0.4,0.3-1,0.4-1.8,0.4c-1.3,0-2.1-0.7-2.1-2.3c-1.4,1.6-3.2,2.3-5.3,2.3c-2.7,0-5-1.2-5-4.2
			c0-3.4,2.5-4.1,5.1-4.6c2.7-0.6,5-0.3,5-2.2c0-2.2-1.8-2.5-3.3-2.5c-2.1,0-3.6,0.6-3.7,2.8h-2.5c0.1-3.7,3-5,6.4-5
			c2.7,0,5.6,0.6,5.6,4.1v7.7c0,1.2,0,1.7,0.8,1.7c0.2,0,0.5-0.1,0.8-0.1V695.7z M100.2,688.1c-1.9,1.4-7.5,0-7.5,3.7
			c0,1.6,1.4,2.2,2.9,2.2c3.2,0,4.6-2,4.6-3.4V688.1z"/>
		<path class="st5" d="M106.7,675.1h2.5v20.7h-2.5V675.1z"/>
		<path class="st5" d="M120.9,680.8h2.3v3.2h0.1c1.2-2.4,2.8-3.6,5.5-3.5v2.6c-4,0-5.4,2.2-5.4,6.1v6.7h-2.5V680.8z"/>
		<path class="st5" d="M143.5,691c-0.7,3.3-3,5.1-6.4,5.1c-4.8,0-7-3.3-7.2-7.9c0-4.5,3-7.8,7-7.8c5.3,0,6.9,5,6.8,8.6h-11.2
			c-0.1,2.6,1.4,4.9,4.7,4.9c2.1,0,3.5-1,3.9-2.9H143.5z M141.1,686.9c-0.1-2.3-1.9-4.2-4.3-4.2c-2.6,0-4.1,1.9-4.3,4.2H141.1z"/>
		<path class="st5" d="M153,695.8h-2.6l-5.6-15h2.8l4.2,12.5h0.1l4.1-12.5h2.6L153,695.8z"/>
		<path class="st5" d="M163.4,678.1h-2.5v-3h2.5V678.1z M160.9,680.8h2.5v15h-2.5V680.8z"/>
		<path class="st5" d="M180,691c-0.7,3.3-3,5.1-6.4,5.1c-4.8,0-7-3.3-7.2-7.9c0-4.5,3-7.8,7-7.8c5.3,0,6.9,5,6.8,8.6H169
			c-0.1,2.6,1.4,4.9,4.7,4.9c2.1,0,3.5-1,3.9-2.9H180z M177.6,686.9c-0.1-2.3-1.9-4.2-4.3-4.2c-2.6,0-4.1,1.9-4.3,4.2H177.6z"/>
		<path class="st5" d="M197.6,695.8H195l-3-11.9h-0.1l-3,11.9h-2.7l-4.8-15h2.7l3.4,12.3h0.1l3-12.3h2.7l3.1,12.3h0.1l3.4-12.3h2.6
			L197.6,695.8z"/>
	</g>
</g>
<rect x="200.3" y="941.1" class="st18" width="402.4" height="51"/>
<g>
	<rect x="218" y="957.6" class="st4" width="341.1" height="21.5"/>
	<path class="st15" d="M263.8,957.6h13.6v2.3h-10.8v6.6h9.5v2.3h-9.5v9.5h-2.8V957.6z"/>
	<path class="st15" d="M292.8,973.5c-0.7,3.3-3,5.1-6.4,5.1c-4.8,0-7-3.3-7.2-7.9c0-4.5,3-7.8,7-7.8c5.3,0,6.9,5,6.8,8.6h-11.2
		c-0.1,2.6,1.4,4.9,4.7,4.9c2.1,0,3.5-1,3.9-2.9H292.8z M290.5,969.4c-0.1-2.3-1.9-4.2-4.3-4.2c-2.6,0-4.1,1.9-4.3,4.2H290.5z"/>
	<path class="st15" d="M308.4,973.5c-0.7,3.3-3,5.1-6.4,5.1c-4.8,0-7-3.3-7.2-7.9c0-4.5,3-7.8,7-7.8c5.3,0,6.9,5,6.8,8.6h-11.2
		c-0.1,2.6,1.4,4.9,4.7,4.9c2.1,0,3.5-1,3.9-2.9H308.4z M306,969.4c-0.1-2.3-1.9-4.2-4.3-4.2c-2.6,0-4.1,1.9-4.3,4.2H306z"/>
	<path class="st15" d="M324.6,978.3h-2.5v-2h-0.1c-0.8,1.7-2.7,2.4-4.8,2.4c-4.6,0-6.9-3.7-6.9-7.9c0-4.2,2.3-7.8,6.8-7.8
		c1.5,0,3.8,0.6,4.8,2.3h0.1v-7.7h2.5V978.3z M317.6,976.5c3.3,0,4.6-2.9,4.6-5.7c0-2.9-1.3-5.7-4.7-5.7c-3.4,0-4.5,2.9-4.5,5.8
		C313,973.7,314.4,976.5,317.6,976.5z"/>
	<path class="st15" d="M328.5,957.6h2.5v7.7h0.1c0.8-1.7,2.7-2.4,4.8-2.4c4.6,0,6.9,3.7,6.9,7.9c0,4.3-2.3,7.8-6.8,7.8
		c-1.5,0-3.8-0.6-4.8-2.3h-0.1v2h-2.5V957.6z M335.4,965.1c-3.3,0-4.6,2.9-4.6,5.7c0,2.9,1.3,5.7,4.7,5.7c3.4,0,4.5-2.9,4.5-5.8
		C340.1,967.9,338.6,965.1,335.4,965.1z"/>
	<path class="st15" d="M358.9,978.2c-0.4,0.3-1,0.4-1.8,0.4c-1.3,0-2.1-0.7-2.1-2.3c-1.4,1.6-3.2,2.3-5.3,2.3c-2.7,0-5-1.2-5-4.2
		c0-3.4,2.5-4.1,5.1-4.6c2.7-0.6,5-0.3,5-2.2c0-2.2-1.8-2.5-3.3-2.5c-2.1,0-3.6,0.6-3.7,2.8h-2.5c0.1-3.7,3-5,6.4-5
		c2.7,0,5.6,0.6,5.6,4.1v7.7c0,1.2,0,1.7,0.8,1.7c0.2,0,0.5-0.1,0.8-0.1V978.2z M354.9,970.5c-1.9,1.4-7.5,0-7.5,3.7
		c0,1.6,1.4,2.2,2.9,2.2c3.2,0,4.6-2,4.6-3.4V970.5z"/>
	<path class="st15" d="M371.3,968.1c-0.4-1.9-1.7-3-3.7-3c-3.6,0-4.7,2.8-4.7,5.9c0,2.8,1.2,5.5,4.4,5.5c2.4,0,3.8-1.4,4.1-3.7h2.5
		c-0.6,3.7-2.8,5.8-6.6,5.8c-4.6,0-7-3.2-7-7.7s2.3-8,7.1-8c3.4,0,6.1,1.6,6.5,5.2H371.3z"/>
	<path class="st15" d="M376.9,957.6h2.5v12.3l6.8-6.6h3.3l-5.9,5.5l6.4,9.5h-3.1l-5.1-7.8l-2.3,2.1v5.7h-2.5V957.6z"/>
	<path class="st15" d="M398,957.1h2.1l-8.6,21.7h-2.1L398,957.1z"/>
	<path class="st15" d="M407.5,957.6h3l8.1,20.7h-3l-2.3-6.2h-8.8l-2.3,6.2h-2.8L407.5,957.6z M405.4,969.7h7l-3.5-9.7h-0.1
		L405.4,969.7z"/>
	<path class="st15" d="M420.3,963.3h2.5v2h0.1c0.8-1.7,2.7-2.4,4.8-2.4c4.6,0,6.9,3.7,6.9,7.9c0,4.3-2.3,7.8-6.8,7.8
		c-1.5,0-3.8-0.6-4.8-2.3h-0.1v7.7h-2.5V963.3z M427.3,965.1c-3.3,0-4.6,2.9-4.6,5.7c0,2.9,1.3,5.7,4.7,5.7c3.4,0,4.5-2.9,4.5-5.8
		C431.9,967.9,430.5,965.1,427.3,965.1z"/>
	<path class="st15" d="M437.5,963.3h2.5v2h0.1c0.8-1.7,2.7-2.4,4.8-2.4c4.6,0,6.9,3.7,6.9,7.9c0,4.3-2.3,7.8-6.8,7.8
		c-1.5,0-3.8-0.6-4.8-2.3H440v7.7h-2.5V963.3z M444.5,965.1c-3.3,0-4.6,2.9-4.6,5.7c0,2.9,1.3,5.7,4.7,5.7c3.4,0,4.5-2.9,4.5-5.8
		C449.1,967.9,447.7,965.1,444.5,965.1z"/>
	<path class="st15" d="M454.5,963.3h2.3v3.2h0.1c1.2-2.4,2.8-3.6,5.5-3.5v2.6c-4,0-5.4,2.2-5.4,6.1v6.7h-2.5V963.3z"/>
	<path class="st15" d="M470.8,962.9c4.8,0,7.3,3.5,7.3,7.9c0,4.4-2.5,7.8-7.3,7.8c-4.8,0-7.3-3.5-7.3-7.8
		C463.5,966.4,466,962.9,470.8,962.9z M470.8,976.5c2.6,0,4.7-2,4.7-5.7c0-3.6-2.1-5.7-4.7-5.7c-2.6,0-4.7,2.1-4.7,5.7
		C466.1,974.4,468.2,976.5,470.8,976.5z"/>
	<path class="st15" d="M487.7,978.3h-2.6l-5.6-15h2.8l4.2,12.5h0.1l4.1-12.5h2.6L487.7,978.3z"/>
	<path class="st15" d="M508.7,978.2c-0.4,0.3-1,0.4-1.8,0.4c-1.3,0-2.1-0.7-2.1-2.3c-1.4,1.6-3.2,2.3-5.3,2.3c-2.7,0-5-1.2-5-4.2
		c0-3.4,2.5-4.1,5.1-4.6c2.7-0.6,5-0.3,5-2.2c0-2.2-1.8-2.5-3.3-2.5c-2.1,0-3.6,0.6-3.7,2.8h-2.5c0.1-3.7,3-5,6.4-5
		c2.7,0,5.6,0.6,5.6,4.1v7.7c0,1.2,0,1.7,0.8,1.7c0.2,0,0.5-0.1,0.8-0.1V978.2z M504.7,970.5c-1.9,1.4-7.5,0-7.5,3.7
		c0,1.6,1.4,2.2,2.9,2.2c3.2,0,4.6-2,4.6-3.4V970.5z"/>
	<path class="st15" d="M511.2,957.6h2.5v20.7h-2.5V957.6z"/>
</g>
<rect x="1197" y="78" class="st11" width="171.9" height="82.7"/>
<g>
	<rect x="1202.1" y="87.9" class="st4" width="161.7" height="89.5"/>
	<path class="st15" d="M1255.5,101.2c0,5.3-3,8-8.2,8c-5.3,0-8.5-2.5-8.5-8V87.9h2.8v13.2c0,3.7,2.1,5.7,5.7,5.7
		c3.5,0,5.4-2,5.4-5.7V87.9h2.8V101.2z"/>
	<path class="st15" d="M1259.5,93.7h2.3V96h0.1c1-1.9,2.7-2.7,4.9-2.7c3.9,0,5.2,2.3,5.2,5.5v9.9h-2.5V98.5c0-1.9-1.2-3-3-3
		c-3,0-4.4,2-4.4,4.7v8.5h-2.5V93.7z"/>
	<path class="st15" d="M1278.3,91h-2.5v-3h2.5V91z M1275.8,93.7h2.5v15h-2.5V93.7z"/>
	<path class="st15" d="M1295.5,114.4h-2.5v-7.8h-0.1c-0.8,1.7-2.7,2.4-4.8,2.4c-4.6,0-6.9-3.7-6.9-7.9c0-4.2,2.3-7.8,6.8-7.8
		c1.5,0,3.8,0.6,4.8,2.3h0.1v-2h2.5V114.4z M1288.5,106.8c3.3,0,4.6-2.9,4.6-5.7c0-2.9-1.3-5.7-4.7-5.7c-3.4,0-4.5,2.9-4.5,5.8
		C1283.9,104.1,1285.3,106.8,1288.5,106.8z"/>
	<path class="st15" d="M1311.7,108.6h-2.3v-2.4h-0.1c-1,1.9-2.7,2.7-4.9,2.7c-3.9,0-5.2-2.3-5.2-5.5v-9.9h2.5v10.2c0,1.9,1.2,3,3,3
		c3,0,4.4-2,4.4-4.7v-8.5h2.5V108.6z"/>
	<path class="st15" d="M1328.2,103.9c-0.7,3.3-3,5.1-6.4,5.1c-4.8,0-7-3.3-7.2-7.9c0-4.5,3-7.8,7-7.8c5.3,0,6.9,5,6.8,8.6h-11.2
		c-0.1,2.6,1.4,4.9,4.7,4.9c2.1,0,3.5-1,3.9-2.9H1328.2z M1325.8,99.7c-0.1-2.3-1.9-4.2-4.3-4.2c-2.6,0-4.1,1.9-4.3,4.2H1325.8z"/>
	<path class="st15" d="M1231.8,125.8h-2.5v-3h2.5V125.8z M1229.3,128.5h2.5v15h-2.5V128.5z"/>
	<path class="st15" d="M1249,143.4h-2.5v-2h-0.1c-0.8,1.7-2.7,2.4-4.8,2.4c-4.6,0-6.9-3.7-6.9-7.9c0-4.2,2.3-7.8,6.8-7.8
		c1.5,0,3.8,0.6,4.8,2.3h0.1v-7.7h2.5V143.4z M1242.1,141.6c3.3,0,4.6-2.9,4.6-5.7c0-2.9-1.3-5.7-4.7-5.7c-3.4,0-4.5,2.9-4.5,5.8
		C1237.4,138.9,1238.9,141.6,1242.1,141.6z"/>
	<path class="st15" d="M1265.6,138.7c-0.7,3.3-3,5.1-6.4,5.1c-4.8,0-7-3.3-7.2-7.9c0-4.5,3-7.8,7-7.8c5.3,0,6.9,5,6.8,8.6h-11.2
		c-0.1,2.6,1.4,4.9,4.7,4.9c2.1,0,3.5-1,3.9-2.9H1265.6z M1263.2,134.5c-0.1-2.3-1.9-4.2-4.3-4.2c-2.6,0-4.1,1.9-4.3,4.2H1263.2z"/>
	<path class="st15" d="M1268.4,128.5h2.3v2.4h0.1c1-1.9,2.7-2.7,4.9-2.7c3.9,0,5.2,2.3,5.2,5.5v9.9h-2.5v-10.2c0-1.9-1.2-3-3-3
		c-3,0-4.4,2-4.4,4.7v8.5h-2.5V128.5z"/>
	<path class="st15" d="M1288,128.5h3v2.2h-3v9.3c0,1.2,0.3,1.3,1.9,1.3h1.1v2.2h-1.9c-2.6,0-3.6-0.5-3.6-3.3v-9.5h-2.6v-2.2h2.6V124
		h2.5V128.5z"/>
	<path class="st15" d="M1296.3,125.8h-2.5v-3h2.5V125.8z M1293.8,128.5h2.5v15h-2.5V128.5z"/>
	<path class="st15" d="M1301.1,130.6h-2.5v-2.2h2.5v-2.2c0-2.4,1.5-3.7,4.1-3.7c0.5,0,1.1,0.1,1.6,0.2v2.1c-0.4-0.1-1-0.2-1.4-0.2
		c-1.2,0-1.9,0.4-1.9,1.7v2.1h2.9v2.2h-2.9v12.8h-2.5V130.6z M1308.8,125.8v-3h2.5v3H1308.8z M1308.8,143.4v-15h2.5v15H1308.8z"/>
	<path class="st15" d="M1327.9,138.7c-0.7,3.3-3,5.1-6.4,5.1c-4.8,0-7-3.3-7.2-7.9c0-4.5,3-7.8,7-7.8c5.3,0,6.9,5,6.8,8.6h-11.2
		c-0.1,2.6,1.4,4.9,4.7,4.9c2.1,0,3.5-1,3.9-2.9H1327.9z M1325.5,134.5c-0.1-2.3-1.9-4.2-4.3-4.2c-2.6,0-4.1,1.9-4.3,4.2H1325.5z"/>
	<path class="st15" d="M1330.6,128.5h2.3v3.2h0.1c1.2-2.4,2.8-3.6,5.5-3.5v2.6c-4,0-5.4,2.2-5.4,6.1v6.7h-2.5V128.5z"/>
</g>
<g>
</g>
<g>
</g>
<g>
</g>
<g>
</g>
<g>
</g>
<g>
</g>
<g>
</g>
</svg>
