<?xml version="1.0" encoding="utf-8"?>
<!-- Generator: Adobe Illustrator 19.2.0, SVG Export Plug-In . SVG Version: 6.00 Build 0)  -->
<svg version="1.1" id="Layer_1" xmlns="http://www.w3.org/2000/svg" xmlns:xlink="http://www.w3.org/1999/xlink" x="0px" y="0px"
	 viewBox="0 0 2048 1000" style="enable-background:new 0 0 2048 1000;" xml:space="preserve">
<style type="text/css">
	.st0{fill:#B9E5FB;}
	.st1{fill:#FFFFFF;stroke:#4EA8DE;stroke-width:2.5628;stroke-miterlimit:10;}
	.st2{fill:#FFFFFF;stroke:#4EA8DE;stroke-width:2.5909;stroke-miterlimit:10;}
	.st3{fill:#FFFFFF;stroke:#4EA8DE;stroke-width:2.9157;stroke-miterlimit:10;}
	.st4{fill:none;}
	.st5{fill:#333333;}
	.st6{fill:#FFFFFF;stroke:#4EA8DE;stroke-width:2.7039;stroke-miterlimit:10;}
	.st7{fill:#B8D890;}
	.st8{fill:none;stroke:#4EA8DE;stroke-width:3;stroke-miterlimit:10;}
	.st9{fill:#4EA8DE;}
	.st10{fill:#FFFFFF;stroke:#4EA8DE;stroke-width:2.1669;stroke-miterlimit:10;}
	.st11{fill:#89C240;}
	.st12{fill:#FFFFFF;}
	.st13{fill:none;stroke:#4EA8DE;stroke-width:2.8176;stroke-miterlimit:10;}
	.st14{fill:#ED1C24;}
	.st15{fill:#FFFFFF;stroke:#4EA8DE;stroke-width:2.8964;stroke-miterlimit:10;}
	.st16{fill:#FFFFFF;stroke:#4EA8DE;stroke-width:1.9927;stroke-miterlimit:10;}
</style>
<rect class="st0" width="2048" height="1000"/>
<rect x="234.4" y="11.4" class="st1" width="577.5" height="71"/>
<rect x="155.2" y="426.1" class="st2" width="469.4" height="97.6"/>
<polygon class="st3" points="600.3,219.8 423,332.4 245.7,219.8 423,107.3 "/>
<polygon class="st3" points="602.3,660.4 421.5,754.8 240.7,660.4 421.5,567 "/>
<g>
	<rect x="234.4" y="32" class="st4" width="581.5" height="38.6"/>
	<path class="st5" d="M249.8,32h3.8l6.5,17.4l6.6-17.4h3.8v20.7h-2.6V35.5h-0.1l-6.5,17.2h-2.3l-6.5-17.2h-0.1v17.2h-2.6V32z"/>
	<path class="st5" d="M287.9,52.7c-0.4,0.3-1,0.4-1.8,0.4c-1.3,0-2.1-0.7-2.1-2.3c-1.4,1.6-3.2,2.3-5.3,2.3c-2.7,0-5-1.2-5-4.2
		c0-3.4,2.5-4.1,5.1-4.6c2.7-0.6,5-0.3,5-2.2c0-2.2-1.8-2.5-3.3-2.5c-2.1,0-3.6,0.6-3.7,2.8h-2.5c0.1-3.7,3-5,6.4-5
		c2.7,0,5.6,0.6,5.6,4.1v7.7c0,1.2,0,1.7,0.8,1.7c0.2,0,0.5-0.1,0.8-0.1V52.7z M283.9,45c-1.9,1.4-7.5,0-7.5,3.7
		c0,1.6,1.4,2.2,2.9,2.2c3.2,0,4.6-2,4.6-3.4V45z"/>
	<path class="st5" d="M290.1,37.7h2.3v3.2h0.1c1.2-2.4,2.8-3.6,5.5-3.5V40c-4,0-5.4,2.2-5.4,6.1v6.7h-2.5V37.7z"/>
	<path class="st5" d="M300,32h2.5v12.3l6.8-6.6h3.3l-5.9,5.5l6.4,9.5h-3.1l-5.1-7.8l-2.3,2.1v5.7H300V32z"/>
	<path class="st5" d="M327.7,48c-0.7,3.3-3,5.1-6.4,5.1c-4.8,0-7-3.3-7.2-7.9c0-4.5,3-7.8,7-7.8c5.3,0,6.9,5,6.8,8.6h-11.2
		c-0.1,2.6,1.4,4.9,4.7,4.9c2.1,0,3.5-1,3.9-2.9H327.7z M325.3,43.8c-0.1-2.3-1.9-4.2-4.3-4.2c-2.6,0-4.1,1.9-4.3,4.2H325.3z"/>
	<path class="st5" d="M333.9,37.7h3v2.2h-3v9.3c0,1.2,0.3,1.3,1.9,1.3h1.1v2.2H335c-2.6,0-3.6-0.5-3.6-3.3v-9.5h-2.6v-2.2h2.6v-4.5
		h2.5V37.7z"/>
	<path class="st5" d="M342.2,35h-2.5v-3h2.5V35z M339.7,37.7h2.5v15h-2.5V37.7z"/>
	<path class="st5" d="M346,37.7h2.3v2.4h0.1c1-1.9,2.7-2.7,4.9-2.7c3.9,0,5.2,2.3,5.2,5.5v9.9H356V42.6c0-1.9-1.2-3-3-3
		c-3,0-4.4,2-4.4,4.7v8.5H346V37.7z"/>
	<path class="st5" d="M375.1,51.5c0,4.9-2.2,7.4-7,7.4c-2.8,0-6.1-1.2-6.2-4.4h2.5c0.1,1.8,2.3,2.4,3.9,2.4c3.2,0,4.5-2.3,4.5-5.7
		v-1h-0.1c-0.8,1.8-2.8,2.7-4.7,2.7c-4.5,0-6.7-3.5-6.7-7.6c0-3.5,1.7-7.9,6.9-7.9c1.9,0,3.6,0.8,4.5,2.5h0v-2.1h2.3V51.5z
		 M372.6,44.9c0-2.6-1.2-5.4-4.3-5.4c-3.2,0-4.4,2.6-4.4,5.5c0,2.7,1,5.7,4.2,5.7C371.4,50.7,372.6,47.7,372.6,44.9z"/>
	<path class="st5" d="M397,42.6c-0.4-1.9-1.7-3-3.7-3c-3.6,0-4.7,2.8-4.7,5.9c0,2.8,1.2,5.5,4.4,5.5c2.4,0,3.8-1.4,4.1-3.7h2.5
		c-0.6,3.7-2.8,5.8-6.6,5.8c-4.6,0-7-3.2-7-7.7s2.3-8,7.1-8c3.4,0,6.1,1.6,6.5,5.2H397z"/>
	<path class="st5" d="M402.3,37.7h2.3v3.2h0.1c1.2-2.4,2.8-3.6,5.5-3.5V40c-4,0-5.4,2.2-5.4,6.1v6.7h-2.5V37.7z"/>
	<path class="st5" d="M424.9,48c-0.7,3.3-3,5.1-6.4,5.1c-4.8,0-7-3.3-7.2-7.9c0-4.5,3-7.8,7-7.8c5.3,0,6.9,5,6.8,8.6h-11.2
		c-0.1,2.6,1.4,4.9,4.7,4.9c2.1,0,3.5-1,3.9-2.9H424.9z M422.5,43.8c-0.1-2.3-1.9-4.2-4.3-4.2c-2.6,0-4.1,1.9-4.3,4.2H422.5z"/>
	<path class="st5" d="M440.9,52.7c-0.4,0.3-1,0.4-1.8,0.4c-1.3,0-2.1-0.7-2.1-2.3c-1.4,1.6-3.2,2.3-5.3,2.3c-2.7,0-5-1.2-5-4.2
		c0-3.4,2.5-4.1,5.1-4.6c2.7-0.6,5-0.3,5-2.2c0-2.2-1.8-2.5-3.3-2.5c-2.1,0-3.6,0.6-3.7,2.8h-2.5c0.1-3.7,3-5,6.4-5
		c2.7,0,5.6,0.6,5.6,4.1v7.7c0,1.2,0,1.7,0.8,1.7c0.2,0,0.5-0.1,0.8-0.1V52.7z M436.9,45c-1.9,1.4-7.5,0-7.5,3.7
		c0,1.6,1.4,2.2,2.9,2.2c3.2,0,4.6-2,4.6-3.4V45z"/>
	<path class="st5" d="M446.6,37.7h3v2.2h-3v9.3c0,1.2,0.3,1.3,1.9,1.3h1.1v2.2h-1.9c-2.6,0-3.6-0.5-3.6-3.3v-9.5h-2.6v-2.2h2.6v-4.5
		h2.5V37.7z"/>
	<path class="st5" d="M465.1,48c-0.7,3.3-3,5.1-6.4,5.1c-4.8,0-7-3.3-7.2-7.9c0-4.5,3-7.8,7-7.8c5.3,0,6.9,5,6.8,8.6h-11.2
		c-0.1,2.6,1.4,4.9,4.7,4.9c2.1,0,3.5-1,3.9-2.9H465.1z M462.8,43.8c-0.1-2.3-1.9-4.2-4.3-4.2c-2.6,0-4.1,1.9-4.3,4.2H462.8z"/>
	<path class="st5" d="M469.4,48c0.1,2.2,2,2.9,4,2.9c1.5,0,3.6-0.3,3.6-2.2c0-3.9-9.8-1.2-9.8-7c0-3,3-4.3,5.6-4.3
		c3.4,0,5.9,1,6.1,4.7h-2.5c-0.1-1.9-1.9-2.5-3.5-2.5c-1.5,0-3.2,0.4-3.2,1.9c0,1.7,2.6,2.1,4.9,2.6c2.5,0.6,4.9,1.4,4.9,4.3
		c0,3.6-3.3,4.7-6.4,4.7c-3.4,0-6.2-1.4-6.4-5.1H469.4z"/>
	<path class="st5" d="M490.6,37.7h2.5v2h0.1c0.8-1.7,2.7-2.4,4.8-2.4c4.6,0,6.9,3.7,6.9,7.9c0,4.3-2.3,7.8-6.8,7.8
		c-1.5,0-3.8-0.6-4.8-2.3H493v7.7h-2.5V37.7z M497.5,39.6c-3.3,0-4.6,2.9-4.6,5.7c0,2.9,1.3,5.7,4.7,5.7c3.4,0,4.5-2.9,4.5-5.8
		C502.2,42.3,500.7,39.6,497.5,39.6z"/>
	<path class="st5" d="M507.6,37.7h2.3v3.2h0.1c1.2-2.4,2.8-3.6,5.5-3.5V40c-4,0-5.4,2.2-5.4,6.1v6.7h-2.5V37.7z"/>
	<path class="st5" d="M523.8,37.4c4.8,0,7.3,3.5,7.3,7.9c0,4.4-2.5,7.8-7.3,7.8c-4.8,0-7.3-3.5-7.3-7.8
		C516.5,40.8,519,37.4,523.8,37.4z M523.8,50.9c2.6,0,4.7-2,4.7-5.7s-2.1-5.7-4.7-5.7c-2.6,0-4.7,2.1-4.7,5.7S521.2,50.9,523.8,50.9
		z"/>
	<path class="st5" d="M534,37.7h2.3v2.2h0.1c1.1-1.7,2.7-2.6,4.8-2.6c1.9,0,3.5,0.7,4.1,2.6c1-1.6,2.8-2.6,4.7-2.6c3,0,5,1.2,5,4.4
		v11h-2.5v-9.8c0-1.9-0.5-3.3-2.9-3.3c-2.4,0-3.9,1.5-3.9,3.8v9.3h-2.5v-9.8c0-1.9-0.6-3.3-2.8-3.3c-2.9,0-4,2.7-4,3.8v9.3H534V37.7
		z"/>
	<path class="st5" d="M565.2,37.4c4.8,0,7.3,3.5,7.3,7.9c0,4.4-2.5,7.8-7.3,7.8c-4.8,0-7.3-3.5-7.3-7.8
		C557.9,40.8,560.4,37.4,565.2,37.4z M565.2,50.9c2.6,0,4.7-2,4.7-5.7s-2.1-5.7-4.7-5.7c-2.6,0-4.7,2.1-4.7,5.7
		S562.6,50.9,565.2,50.9z"/>
	<path class="st5" d="M578.8,37.7h3v2.2h-3v9.3c0,1.2,0.3,1.3,1.9,1.3h1.1v2.2h-1.9c-2.6,0-3.6-0.5-3.6-3.3v-9.5h-2.6v-2.2h2.6v-4.5
		h2.5V37.7z"/>
	<path class="st5" d="M587.1,35h-2.5v-3h2.5V35z M584.6,37.7h2.5v15h-2.5V37.7z"/>
	<path class="st5" d="M597.4,37.4c4.8,0,7.3,3.5,7.3,7.9c0,4.4-2.5,7.8-7.3,7.8c-4.8,0-7.3-3.5-7.3-7.8
		C590.1,40.8,592.6,37.4,597.4,37.4z M597.4,50.9c2.6,0,4.7-2,4.7-5.7s-2.1-5.7-4.7-5.7c-2.6,0-4.7,2.1-4.7,5.7
		S594.8,50.9,597.4,50.9z"/>
	<path class="st5" d="M607.6,37.7h2.3v2.4h0.1c1-1.9,2.7-2.7,4.9-2.7c3.9,0,5.2,2.3,5.2,5.5v9.9h-2.5V42.6c0-1.9-1.2-3-3-3
		c-3,0-4.4,2-4.4,4.7v8.5h-2.5V37.7z"/>
	<path class="st5" d="M637,52.7c-0.4,0.3-1,0.4-1.8,0.4c-1.3,0-2.1-0.7-2.1-2.3c-1.4,1.6-3.2,2.3-5.3,2.3c-2.7,0-5-1.2-5-4.2
		c0-3.4,2.5-4.1,5.1-4.6c2.7-0.6,5-0.3,5-2.2c0-2.2-1.8-2.5-3.3-2.5c-2.1,0-3.6,0.6-3.7,2.8h-2.5c0.1-3.7,3-5,6.4-5
		c2.7,0,5.6,0.6,5.6,4.1v7.7c0,1.2,0,1.7,0.8,1.7c0.2,0,0.5-0.1,0.8-0.1V52.7z M633,45c-1.9,1.4-7.5,0-7.5,3.7
		c0,1.6,1.4,2.2,2.9,2.2c3.2,0,4.6-2,4.6-3.4V45z"/>
	<path class="st5" d="M639.4,32h2.5v20.7h-2.5V32z"/>
	<path class="st5" d="M653.8,37.7h2.3v2.2h0.1c1.1-1.7,2.7-2.6,4.8-2.6c1.9,0,3.5,0.7,4.1,2.6c1-1.6,2.8-2.6,4.7-2.6
		c3,0,5,1.2,5,4.4v11h-2.5v-9.8c0-1.9-0.5-3.3-2.9-3.3c-2.4,0-3.9,1.5-3.9,3.8v9.3h-2.5v-9.8c0-1.9-0.6-3.3-2.8-3.3
		c-2.9,0-4,2.7-4,3.8v9.3h-2.5V37.7z"/>
	<path class="st5" d="M691.8,52.7c-0.4,0.3-1,0.4-1.8,0.4c-1.3,0-2.1-0.7-2.1-2.3c-1.4,1.6-3.2,2.3-5.3,2.3c-2.7,0-5-1.2-5-4.2
		c0-3.4,2.5-4.1,5.1-4.6c2.7-0.6,5-0.3,5-2.2c0-2.2-1.8-2.5-3.3-2.5c-2.1,0-3.6,0.6-3.7,2.8h-2.5c0.1-3.7,3-5,6.4-5
		c2.7,0,5.6,0.6,5.6,4.1v7.7c0,1.2,0,1.7,0.8,1.7c0.2,0,0.5-0.1,0.8-0.1V52.7z M687.8,45c-1.9,1.4-7.5,0-7.5,3.7
		c0,1.6,1.4,2.2,2.9,2.2c3.2,0,4.6-2,4.6-3.4V45z"/>
	<path class="st5" d="M697.5,37.7h3v2.2h-3v9.3c0,1.2,0.3,1.3,1.9,1.3h1.1v2.2h-1.9c-2.6,0-3.6-0.5-3.6-3.3v-9.5h-2.6v-2.2h2.6v-4.5
		h2.5V37.7z"/>
	<path class="st5" d="M716,48c-0.7,3.3-3,5.1-6.4,5.1c-4.8,0-7-3.3-7.2-7.9c0-4.5,3-7.8,7-7.8c5.3,0,6.9,5,6.8,8.6H705
		c-0.1,2.6,1.4,4.9,4.7,4.9c2.1,0,3.5-1,3.9-2.9H716z M713.6,43.8c-0.1-2.3-1.9-4.2-4.3-4.2c-2.6,0-4.1,1.9-4.3,4.2H713.6z"/>
	<path class="st5" d="M718.7,37.7h2.3v3.2h0.1c1.2-2.4,2.8-3.6,5.5-3.5V40c-4,0-5.4,2.2-5.4,6.1v6.7h-2.5V37.7z"/>
	<path class="st5" d="M731.1,35h-2.5v-3h2.5V35z M728.6,37.7h2.5v15h-2.5V37.7z"/>
	<path class="st5" d="M748.2,52.7c-0.4,0.3-1,0.4-1.8,0.4c-1.3,0-2.1-0.7-2.1-2.3c-1.4,1.6-3.2,2.3-5.3,2.3c-2.7,0-5-1.2-5-4.2
		c0-3.4,2.5-4.1,5.1-4.6c2.7-0.6,5-0.3,5-2.2c0-2.2-1.8-2.5-3.3-2.5c-2.1,0-3.6,0.6-3.7,2.8h-2.5c0.1-3.7,3-5,6.4-5
		c2.7,0,5.6,0.6,5.6,4.1v7.7c0,1.2,0,1.7,0.8,1.7c0.2,0,0.5-0.1,0.8-0.1V52.7z M744.2,45c-1.9,1.4-7.5,0-7.5,3.7
		c0,1.6,1.4,2.2,2.9,2.2c3.2,0,4.6-2,4.6-3.4V45z"/>
	<path class="st5" d="M750.6,32h2.5v20.7h-2.5V32z"/>
	<path class="st5" d="M765.1,32h2.5v20.7h-2.5V32z"/>
	<path class="st5" d="M777.9,37.4c4.8,0,7.3,3.5,7.3,7.9c0,4.4-2.5,7.8-7.3,7.8c-4.8,0-7.3-3.5-7.3-7.8
		C770.6,40.8,773.1,37.4,777.9,37.4z M777.9,50.9c2.6,0,4.7-2,4.7-5.7s-2.1-5.7-4.7-5.7c-2.6,0-4.7,2.1-4.7,5.7
		S775.3,50.9,777.9,50.9z"/>
	<path class="st5" d="M801,51.5c0,4.9-2.2,7.4-7,7.4c-2.8,0-6.1-1.2-6.2-4.4h2.5c0.1,1.8,2.3,2.4,3.9,2.4c3.2,0,4.5-2.3,4.5-5.7v-1
		h-0.1c-0.8,1.8-2.8,2.7-4.7,2.7c-4.5,0-6.7-3.5-6.7-7.6c0-3.5,1.7-7.9,6.9-7.9c1.9,0,3.6,0.8,4.5,2.5h0v-2.1h2.3V51.5z M798.5,44.9
		c0-2.6-1.2-5.4-4.3-5.4c-3.2,0-4.4,2.6-4.4,5.5c0,2.7,1,5.7,4.2,5.7C797.3,50.7,798.5,47.7,798.5,44.9z"/>
</g>
<rect x="896.2" y="607" class="st6" width="504.9" height="106.9"/>
<g>
	<rect x="935.5" y="625.1" class="st4" width="426.3" height="109"/>
	<path class="st5" d="M983.9,625h3.8l6.5,17.4l6.6-17.4h3.8v20.7h-2.6v-17.2h-0.1l-6.5,17.2H993l-6.5-17.2h-0.1v17.2h-2.6V625z"/>
	<path class="st5" d="M1022,645.7c-0.4,0.3-1,0.4-1.8,0.4c-1.3,0-2.1-0.7-2.1-2.3c-1.4,1.6-3.2,2.3-5.3,2.3c-2.7,0-5-1.2-5-4.2
		c0-3.4,2.5-4.1,5.1-4.6c2.7-0.6,5-0.3,5-2.2c0-2.2-1.8-2.5-3.3-2.5c-2.1,0-3.6,0.6-3.7,2.8h-2.5c0.1-3.7,3-5,6.4-5
		c2.7,0,5.6,0.6,5.6,4.1v7.7c0,1.2,0,1.7,0.8,1.7c0.2,0,0.5-0.1,0.8-0.1V645.7z M1018,638c-1.9,1.4-7.5,0-7.5,3.7
		c0,1.6,1.4,2.2,2.9,2.2c3.2,0,4.6-2,4.6-3.4V638z"/>
	<path class="st5" d="M1024.2,630.8h2.3v3.2h0.1c1.2-2.4,2.8-3.6,5.5-3.5v2.6c-4,0-5.4,2.2-5.4,6.1v6.7h-2.5V630.8z"/>
	<path class="st5" d="M1034.1,625h2.5v12.3l6.8-6.6h3.3l-5.9,5.5l6.4,9.5h-3.1l-5.1-7.8l-2.3,2.1v5.7h-2.5V625z"/>
	<path class="st5" d="M1061.8,641c-0.7,3.3-3,5.1-6.4,5.1c-4.8,0-7-3.3-7.2-7.9c0-4.5,3-7.8,7-7.8c5.3,0,6.9,5,6.8,8.6h-11.2
		c-0.1,2.6,1.4,4.9,4.7,4.9c2.1,0,3.5-1,3.9-2.9H1061.8z M1059.4,636.8c-0.1-2.3-1.9-4.2-4.3-4.2c-2.6,0-4.1,1.9-4.3,4.2H1059.4z"/>
	<path class="st5" d="M1068,630.8h3v2.2h-3v9.3c0,1.2,0.3,1.3,1.9,1.3h1.1v2.2h-1.9c-2.6,0-3.6-0.5-3.6-3.3v-9.5h-2.6v-2.2h2.6v-4.5
		h2.5V630.8z"/>
	<path class="st5" d="M1076.3,628.1h-2.5v-3h2.5V628.1z M1073.8,630.8h2.5v15h-2.5V630.8z"/>
	<path class="st5" d="M1080.1,630.8h2.3v2.4h0.1c1-1.9,2.7-2.7,4.9-2.7c3.9,0,5.2,2.3,5.2,5.5v9.9h-2.5v-10.2c0-1.9-1.2-3-3-3
		c-3,0-4.4,2-4.4,4.7v8.5h-2.5V630.8z"/>
	<path class="st5" d="M1109.2,644.5c0,4.9-2.2,7.4-7,7.4c-2.8,0-6.1-1.2-6.2-4.4h2.5c0.1,1.8,2.3,2.4,3.9,2.4c3.2,0,4.5-2.3,4.5-5.7
		v-1h-0.1c-0.8,1.8-2.8,2.7-4.7,2.7c-4.5,0-6.7-3.5-6.7-7.6c0-3.5,1.7-7.9,6.9-7.9c1.9,0,3.6,0.8,4.5,2.5h0v-2.1h2.3V644.5z
		 M1106.8,638c0-2.6-1.2-5.4-4.3-5.4c-3.2,0-4.4,2.6-4.4,5.5c0,2.7,1,5.7,4.2,5.7S1106.8,640.8,1106.8,638z"/>
	<path class="st5" d="M1131.1,635.6c-0.4-1.9-1.7-3-3.7-3c-3.6,0-4.7,2.8-4.7,5.9c0,2.8,1.2,5.5,4.4,5.5c2.4,0,3.8-1.4,4.1-3.7h2.5
		c-0.6,3.7-2.8,5.8-6.6,5.8c-4.6,0-7-3.2-7-7.7s2.3-8,7.1-8c3.4,0,6.1,1.6,6.5,5.2H1131.1z"/>
	<path class="st5" d="M1149.8,645.7c-0.4,0.3-1,0.4-1.8,0.4c-1.3,0-2.1-0.7-2.1-2.3c-1.4,1.6-3.2,2.3-5.3,2.3c-2.7,0-5-1.2-5-4.2
		c0-3.4,2.5-4.1,5.1-4.6c2.7-0.6,5-0.3,5-2.2c0-2.2-1.8-2.5-3.3-2.5c-2.1,0-3.6,0.6-3.7,2.8h-2.5c0.1-3.7,3-5,6.4-5
		c2.7,0,5.6,0.6,5.6,4.1v7.7c0,1.2,0,1.7,0.8,1.7c0.2,0,0.5-0.1,0.8-0.1V645.7z M1145.8,638c-1.9,1.4-7.5,0-7.5,3.7
		c0,1.6,1.4,2.2,2.9,2.2c3.2,0,4.6-2,4.6-3.4V638z"/>
	<path class="st5" d="M1152.1,630.8h2.3v2.4h0.1c1-1.9,2.7-2.7,4.9-2.7c3.9,0,5.2,2.3,5.2,5.5v9.9h-2.5v-10.2c0-1.9-1.2-3-3-3
		c-3,0-4.4,2-4.4,4.7v8.5h-2.5V630.8z"/>
	<path class="st5" d="M1176.4,630.8h2.5v2h0.1c0.8-1.7,2.7-2.4,4.8-2.4c4.6,0,6.9,3.7,6.9,7.9c0,4.3-2.3,7.8-6.8,7.8
		c-1.5,0-3.8-0.6-4.8-2.3h-0.1v7.7h-2.5V630.8z M1183.3,632.6c-3.3,0-4.6,2.9-4.6,5.7c0,2.9,1.3,5.7,4.7,5.7c3.4,0,4.5-2.9,4.5-5.8
		C1188,635.3,1186.5,632.6,1183.3,632.6z"/>
	<path class="st5" d="M1193.4,630.8h2.3v3.2h0.1c1.2-2.4,2.8-3.6,5.5-3.5v2.6c-4,0-5.4,2.2-5.4,6.1v6.7h-2.5V630.8z"/>
	<path class="st5" d="M1209.6,630.4c4.8,0,7.3,3.5,7.3,7.9c0,4.4-2.5,7.8-7.3,7.8c-4.8,0-7.3-3.5-7.3-7.8
		C1202.3,633.9,1204.9,630.4,1209.6,630.4z M1209.6,643.9c2.6,0,4.7-2,4.7-5.7c0-3.6-2.1-5.7-4.7-5.7c-2.6,0-4.7,2.1-4.7,5.7
		C1204.9,641.9,1207,643.9,1209.6,643.9z"/>
	<path class="st5" d="M1230,635.6c-0.4-1.9-1.7-3-3.7-3c-3.6,0-4.7,2.8-4.7,5.9c0,2.8,1.2,5.5,4.4,5.5c2.4,0,3.8-1.4,4.1-3.7h2.5
		c-0.6,3.7-2.8,5.8-6.6,5.8c-4.6,0-7-3.2-7-7.7s2.3-8,7.1-8c3.4,0,6.1,1.6,6.5,5.2H1230z"/>
	<path class="st5" d="M1248.2,641c-0.7,3.3-3,5.1-6.4,5.1c-4.8,0-7-3.3-7.2-7.9c0-4.5,3-7.8,7-7.8c5.3,0,6.9,5,6.8,8.6h-11.2
		c-0.1,2.6,1.4,4.9,4.7,4.9c2.1,0,3.5-1,3.9-2.9H1248.2z M1245.8,636.8c-0.1-2.3-1.9-4.2-4.3-4.2c-2.6,0-4.1,1.9-4.3,4.2H1245.8z"/>
	<path class="st5" d="M1263.7,641c-0.7,3.3-3,5.1-6.4,5.1c-4.8,0-7-3.3-7.2-7.9c0-4.5,3-7.8,7-7.8c5.3,0,6.9,5,6.8,8.6h-11.2
		c-0.1,2.6,1.4,4.9,4.7,4.9c2.1,0,3.5-1,3.9-2.9H1263.7z M1261.3,636.8c-0.1-2.3-1.9-4.2-4.3-4.2c-2.6,0-4.1,1.9-4.3,4.2H1261.3z"/>
	<path class="st5" d="M1279.9,645.8h-2.5v-2h-0.1c-0.8,1.7-2.7,2.4-4.8,2.4c-4.6,0-6.9-3.7-6.9-7.9c0-4.2,2.3-7.8,6.8-7.8
		c1.5,0,3.8,0.6,4.8,2.3h0.1V625h2.5V645.8z M1272.9,643.9c3.3,0,4.6-2.9,4.6-5.7c0-2.9-1.3-5.7-4.7-5.7c-3.4,0-4.5,2.9-4.5,5.8
		C1268.3,641.2,1269.8,643.9,1272.9,643.9z"/>
	<path class="st5" d="M1295.2,630.8h3v2.2h-3v9.3c0,1.2,0.3,1.3,1.9,1.3h1.1v2.2h-1.9c-2.6,0-3.6-0.5-3.6-3.3v-9.5h-2.6v-2.2h2.6
		v-4.5h2.5V630.8z"/>
	<path class="st5" d="M1307.4,630.4c4.8,0,7.3,3.5,7.3,7.9c0,4.4-2.5,7.8-7.3,7.8c-4.8,0-7.3-3.5-7.3-7.8
		C1300.1,633.9,1302.6,630.4,1307.4,630.4z M1307.4,643.9c2.6,0,4.7-2,4.7-5.7c0-3.6-2.1-5.7-4.7-5.7c-2.6,0-4.7,2.1-4.7,5.7
		C1302.7,641.9,1304.8,643.9,1307.4,643.9z"/>
	<path class="st5" d="M967.9,680.6h-2.5v-2h-0.1c-0.8,1.7-2.7,2.4-4.8,2.4c-4.6,0-6.9-3.7-6.9-7.9c0-4.2,2.3-7.8,6.8-7.8
		c1.5,0,3.8,0.6,4.8,2.3h0.1v-7.7h2.5V680.6z M960.9,678.7c3.3,0,4.6-2.9,4.6-5.7c0-2.9-1.3-5.7-4.7-5.7c-3.4,0-4.5,2.9-4.5,5.8
		C956.3,676,957.7,678.7,960.9,678.7z"/>
	<path class="st5" d="M974.3,662.9h-2.5v-3h2.5V662.9z M971.8,665.6h2.5v15h-2.5V665.6z"/>
	<path class="st5" d="M979.6,675.8c0.1,2.2,2,2.9,4,2.9c1.5,0,3.6-0.3,3.6-2.2c0-3.9-9.8-1.2-9.8-7c0-3,3-4.3,5.6-4.3
		c3.4,0,5.9,1,6.1,4.7h-2.5c-0.1-1.9-1.9-2.5-3.5-2.5c-1.5,0-3.2,0.4-3.2,1.9c0,1.7,2.6,2.1,4.9,2.6c2.5,0.6,4.9,1.4,4.9,4.3
		c0,3.6-3.3,4.7-6.4,4.7c-3.4,0-6.2-1.4-6.4-5.1H979.6z"/>
	<path class="st5" d="M996,665.6h3v2.2h-3v9.3c0,1.2,0.3,1.3,1.9,1.3h1.1v2.2h-1.9c-2.6,0-3.6-0.5-3.6-3.3v-9.5H991v-2.2h2.6v-4.5
		h2.5V665.6z"/>
	<path class="st5" d="M1001.6,665.6h2.3v3.2h0.1c1.2-2.4,2.8-3.6,5.5-3.5v2.6c-4,0-5.4,2.2-5.4,6.1v6.7h-2.5V665.6z"/>
	<path class="st5" d="M1014,662.9h-2.5v-3h2.5V662.9z M1011.5,665.6h2.5v15h-2.5V665.6z"/>
	<path class="st5" d="M1017.9,659.8h2.5v7.7h0.1c0.8-1.7,2.7-2.4,4.8-2.4c4.6,0,6.9,3.7,6.9,7.9c0,4.3-2.3,7.8-6.8,7.8
		c-1.5,0-3.8-0.6-4.8-2.3h-0.1v2h-2.5V659.8z M1024.9,667.4c-3.3,0-4.6,2.9-4.6,5.7c0,2.9,1.3,5.7,4.7,5.7c3.4,0,4.5-2.9,4.5-5.8
		C1029.5,670.1,1028.1,667.4,1024.9,667.4z"/>
	<path class="st5" d="M1047.4,680.6h-2.3v-2.4h-0.1c-1,1.9-2.7,2.7-4.9,2.7c-3.9,0-5.2-2.3-5.2-5.5v-9.9h2.5v10.2c0,1.9,1.2,3,3,3
		c3,0,4.4-2,4.4-4.7v-8.5h2.5V680.6z"/>
	<path class="st5" d="M1054.6,665.6h3v2.2h-3v9.3c0,1.2,0.3,1.3,1.9,1.3h1.1v2.2h-1.9c-2.6,0-3.6-0.5-3.6-3.3v-9.5h-2.6v-2.2h2.6
		v-4.5h2.5V665.6z"/>
	<path class="st5" d="M1073.1,675.8c-0.7,3.3-3,5.1-6.4,5.1c-4.8,0-7-3.3-7.2-7.9c0-4.5,3-7.8,7-7.8c5.3,0,6.9,5,6.8,8.6h-11.2
		c-0.1,2.6,1.4,4.9,4.7,4.9c2.1,0,3.5-1,3.9-2.9H1073.1z M1070.7,671.6c-0.1-2.3-1.9-4.2-4.3-4.2c-2.6,0-4.1,1.9-4.3,4.2H1070.7z"/>
	<path class="st5" d="M1082.1,659.4h2.1l-8.6,21.7h-2.1L1082.1,659.4z"/>
	<path class="st5" d="M1093.5,665.6h2.3v3.2h0.1c1.2-2.4,2.8-3.6,5.5-3.5v2.6c-4,0-5.4,2.2-5.4,6.1v6.7h-2.5V665.6z"/>
	<path class="st5" d="M1116,675.8c-0.7,3.3-3,5.1-6.4,5.1c-4.8,0-7-3.3-7.2-7.9c0-4.5,3-7.8,7-7.8c5.3,0,6.9,5,6.8,8.6H1105
		c-0.1,2.6,1.4,4.9,4.7,4.9c2.1,0,3.5-1,3.9-2.9H1116z M1113.6,671.6c-0.1-2.3-1.9-4.2-4.3-4.2c-2.6,0-4.1,1.9-4.3,4.2H1113.6z"/>
	<path class="st5" d="M1118.9,659.8h2.5v20.7h-2.5V659.8z"/>
	<path class="st5" d="M1138,675.8c-0.7,3.3-3,5.1-6.4,5.1c-4.8,0-7-3.3-7.2-7.9c0-4.5,3-7.8,7-7.8c5.3,0,6.9,5,6.8,8.6H1127
		c-0.1,2.6,1.4,4.9,4.7,4.9c2.1,0,3.5-1,3.9-2.9H1138z M1135.6,671.6c-0.1-2.3-1.9-4.2-4.3-4.2c-2.6,0-4.1,1.9-4.3,4.2H1135.6z"/>
	<path class="st5" d="M1154.1,680.5c-0.4,0.3-1,0.4-1.8,0.4c-1.3,0-2.1-0.7-2.1-2.3c-1.4,1.6-3.2,2.3-5.3,2.3c-2.7,0-5-1.2-5-4.2
		c0-3.4,2.5-4.1,5.1-4.6c2.7-0.6,5-0.3,5-2.2c0-2.2-1.8-2.5-3.3-2.5c-2.1,0-3.6,0.6-3.7,2.8h-2.5c0.1-3.7,3-5,6.4-5
		c2.7,0,5.6,0.6,5.6,4.1v7.7c0,1.2,0,1.7,0.8,1.7c0.2,0,0.5-0.1,0.8-0.1V680.5z M1150.1,672.8c-1.9,1.4-7.5,0-7.5,3.7
		c0,1.6,1.4,2.2,2.9,2.2c3.2,0,4.6-2,4.6-3.4V672.8z"/>
	<path class="st5" d="M1157.9,675.8c0.1,2.2,2,2.9,4,2.9c1.5,0,3.6-0.3,3.6-2.2c0-3.9-9.8-1.2-9.8-7c0-3,3-4.3,5.6-4.3
		c3.4,0,5.9,1,6.1,4.7h-2.5c-0.1-1.9-1.9-2.5-3.5-2.5c-1.5,0-3.2,0.4-3.2,1.9c0,1.7,2.6,2.1,4.9,2.6c2.5,0.6,4.9,1.4,4.9,4.3
		c0,3.6-3.3,4.7-6.4,4.7c-3.4,0-6.2-1.4-6.4-5.1H1157.9z"/>
	<path class="st5" d="M1183.7,675.8c-0.7,3.3-3,5.1-6.4,5.1c-4.8,0-7-3.3-7.2-7.9c0-4.5,3-7.8,7-7.8c5.3,0,6.9,5,6.8,8.6h-11.2
		c-0.1,2.6,1.4,4.9,4.7,4.9c2.1,0,3.5-1,3.9-2.9H1183.7z M1181.3,671.6c-0.1-2.3-1.9-4.2-4.3-4.2c-2.6,0-4.1,1.9-4.3,4.2H1181.3z"/>
	<path class="st5" d="M1197.9,665.6h3v2.2h-3v9.3c0,1.2,0.3,1.3,1.9,1.3h1.1v2.2h-1.9c-2.6,0-3.6-0.5-3.6-3.3v-9.5h-2.6v-2.2h2.6
		v-4.5h2.5V665.6z"/>
	<path class="st5" d="M1203.6,659.8h2.5v7.9h0.1c0.8-1.8,3-2.6,4.7-2.6c3.9,0,5.2,2.3,5.2,5.5v9.9h-2.5v-10.2c0-1.9-1.2-3-3-3
		c-3,0-4.4,2-4.4,4.7v8.5h-2.5V659.8z"/>
	<path class="st5" d="M1232.6,675.8c-0.7,3.3-3,5.1-6.4,5.1c-4.8,0-7-3.3-7.2-7.9c0-4.5,3-7.8,7-7.8c5.3,0,6.9,5,6.8,8.6h-11.2
		c-0.1,2.6,1.4,4.9,4.7,4.9c2.1,0,3.5-1,3.9-2.9H1232.6z M1230.2,671.6c-0.1-2.3-1.9-4.2-4.3-4.2c-2.6,0-4.1,1.9-4.3,4.2H1230.2z"/>
	<path class="st5" d="M1243.4,665.6h2.3v2.2h0.1c1.1-1.7,2.7-2.6,4.8-2.6c1.9,0,3.5,0.7,4.1,2.6c1-1.6,2.8-2.6,4.7-2.6
		c3,0,5,1.2,5,4.4v11h-2.5v-9.8c0-1.9-0.5-3.3-2.9-3.3c-2.4,0-3.9,1.5-3.9,3.8v9.3h-2.5v-9.8c0-1.9-0.6-3.3-2.8-3.3
		c-2.9,0-4,2.7-4,3.8v9.3h-2.5V665.6z"/>
	<path class="st5" d="M1281.4,680.5c-0.4,0.3-1,0.4-1.8,0.4c-1.3,0-2.1-0.7-2.1-2.3c-1.4,1.6-3.2,2.3-5.3,2.3c-2.7,0-5-1.2-5-4.2
		c0-3.4,2.5-4.1,5.1-4.6c2.7-0.6,5-0.3,5-2.2c0-2.2-1.8-2.5-3.3-2.5c-2.1,0-3.6,0.6-3.7,2.8h-2.5c0.1-3.7,3-5,6.4-5
		c2.7,0,5.6,0.6,5.6,4.1v7.7c0,1.2,0,1.7,0.8,1.7c0.2,0,0.5-0.1,0.8-0.1V680.5z M1277.4,672.8c-1.9,1.4-7.5,0-7.5,3.7
		c0,1.6,1.4,2.2,2.9,2.2c3.2,0,4.6-2,4.6-3.4V672.8z"/>
	<path class="st5" d="M1287.1,665.6h3v2.2h-3v9.3c0,1.2,0.3,1.3,1.9,1.3h1.1v2.2h-1.9c-2.6,0-3.6-0.5-3.6-3.3v-9.5h-2.6v-2.2h2.6
		v-4.5h2.5V665.6z"/>
	<path class="st5" d="M1305.6,675.8c-0.7,3.3-3,5.1-6.4,5.1c-4.8,0-7-3.3-7.2-7.9c0-4.5,3-7.8,7-7.8c5.3,0,6.9,5,6.8,8.6h-11.2
		c-0.1,2.6,1.4,4.9,4.7,4.9c2.1,0,3.5-1,3.9-2.9H1305.6z M1303.3,671.6c-0.1-2.3-1.9-4.2-4.3-4.2c-2.6,0-4.1,1.9-4.3,4.2H1303.3z"/>
	<path class="st5" d="M1308.3,665.6h2.3v3.2h0.1c1.2-2.4,2.8-3.6,5.5-3.5v2.6c-4,0-5.4,2.2-5.4,6.1v6.7h-2.5V665.6z"/>
	<path class="st5" d="M1320.7,662.9h-2.5v-3h2.5V662.9z M1318.2,665.6h2.5v15h-2.5V665.6z"/>
	<path class="st5" d="M1337.8,680.5c-0.4,0.3-1,0.4-1.8,0.4c-1.3,0-2.1-0.7-2.1-2.3c-1.4,1.6-3.2,2.3-5.3,2.3c-2.7,0-5-1.2-5-4.2
		c0-3.4,2.5-4.1,5.1-4.6c2.7-0.6,5-0.3,5-2.2c0-2.2-1.8-2.5-3.3-2.5c-2.1,0-3.6,0.6-3.7,2.8h-2.5c0.1-3.7,3-5,6.4-5
		c2.7,0,5.6,0.6,5.6,4.1v7.7c0,1.2,0,1.7,0.8,1.7c0.2,0,0.5-0.1,0.8-0.1V680.5z M1333.8,672.8c-1.9,1.4-7.5,0-7.5,3.7
		c0,1.6,1.4,2.2,2.9,2.2c3.2,0,4.6-2,4.6-3.4V672.8z"/>
	<path class="st5" d="M1340.2,659.8h2.5v20.7h-2.5V659.8z"/>
</g>
<g>
	<g>
		<g>
			<line class="st7" x1="420.2" y1="891.6" x2="420.2" y2="915.8"/>
			<g>
				<line class="st8" x1="420.2" y1="891.6" x2="420.2" y2="912.4"/>
				<g>
					<polygon class="st9" points="415.1,906.4 420.2,911.5 425.2,906.4 425.2,910.7 420.2,915.8 415.1,910.7 					"/>
				</g>
			</g>
		</g>
	</g>
</g>
<rect x="914.8" y="170.8" class="st6" width="397.4" height="106.9"/>
<g>
	<rect x="927.4" y="213" class="st4" width="373.2" height="71.9"/>
	<path class="st5" d="M969,226.2c0,5.3-3,8-8.2,8c-5.3,0-8.5-2.5-8.5-8V213h2.8v13.2c0,3.7,2.1,5.7,5.7,5.7c3.5,0,5.4-2,5.4-5.7V213
		h2.8V226.2z"/>
	<path class="st5" d="M974.5,229c0.1,2.2,2,2.9,4,2.9c1.5,0,3.6-0.3,3.6-2.2c0-3.9-9.8-1.2-9.8-7c0-3,3-4.3,5.6-4.3
		c3.4,0,5.9,1,6.1,4.7h-2.5c-0.1-1.9-1.9-2.5-3.5-2.5c-1.5,0-3.2,0.4-3.2,1.9c0,1.7,2.6,2.1,4.9,2.6c2.5,0.6,4.9,1.4,4.9,4.3
		c0,3.6-3.3,4.7-6.4,4.7c-3.4,0-6.2-1.4-6.4-5.1H974.5z"/>
	<path class="st5" d="M1000.3,228.9c-0.7,3.3-3,5.1-6.4,5.1c-4.8,0-7-3.3-7.2-7.9c0-4.5,3-7.8,7-7.8c5.3,0,6.9,5,6.8,8.6h-11.2
		c-0.1,2.6,1.4,4.9,4.7,4.9c2.1,0,3.5-1,3.9-2.9H1000.3z M997.9,224.7c-0.1-2.3-1.9-4.2-4.3-4.2c-2.6,0-4.1,1.9-4.3,4.2H997.9z"/>
	<path class="st5" d="M1011.2,218.7h2.5v2h0.1c0.8-1.7,2.7-2.4,4.8-2.4c4.6,0,6.9,3.7,6.9,7.9c0,4.3-2.3,7.8-6.8,7.8
		c-1.5,0-3.8-0.6-4.8-2.3h-0.1v7.7h-2.5V218.7z M1018.2,220.5c-3.3,0-4.6,2.9-4.6,5.7c0,2.9,1.3,5.7,4.7,5.7c3.4,0,4.5-2.9,4.5-5.8
		C1022.8,223.2,1021.4,220.5,1018.2,220.5z"/>
	<path class="st5" d="M1028.2,218.7h2.3v3.2h0.1c1.2-2.4,2.8-3.6,5.5-3.5v2.6c-4,0-5.4,2.2-5.4,6.1v6.7h-2.5V218.7z"/>
	<path class="st5" d="M1050.8,228.9c-0.7,3.3-3,5.1-6.4,5.1c-4.8,0-7-3.3-7.2-7.9c0-4.5,3-7.8,7-7.8c5.3,0,6.9,5,6.8,8.6h-11.2
		c-0.1,2.6,1.4,4.9,4.7,4.9c2.1,0,3.5-1,3.9-2.9H1050.8z M1048.4,224.7c-0.1-2.3-1.9-4.2-4.3-4.2c-2.6,0-4.1,1.9-4.3,4.2H1048.4z"/>
	<path class="st5" d="M1053.1,224.5h8.4v2.3h-8.4V224.5z"/>
	<path class="st5" d="M1078.1,233.6c-0.4,0.3-1,0.4-1.8,0.4c-1.3,0-2.1-0.7-2.1-2.3c-1.4,1.6-3.2,2.3-5.3,2.3c-2.7,0-5-1.2-5-4.2
		c0-3.4,2.5-4.1,5.1-4.6c2.7-0.6,5-0.3,5-2.2c0-2.2-1.8-2.5-3.3-2.5c-2.1,0-3.6,0.6-3.7,2.8h-2.5c0.1-3.7,3-5,6.4-5
		c2.7,0,5.6,0.6,5.6,4.1v7.7c0,1.2,0,1.7,0.8,1.7c0.2,0,0.5-0.1,0.8-0.1V233.6z M1074.1,225.9c-1.9,1.4-7.5,0-7.5,3.7
		c0,1.6,1.4,2.2,2.9,2.2c3.2,0,4.6-2,4.6-3.4V225.9z"/>
	<path class="st5" d="M1080.5,218.7h2.5v2h0.1c0.8-1.7,2.7-2.4,4.8-2.4c4.6,0,6.9,3.7,6.9,7.9c0,4.3-2.3,7.8-6.8,7.8
		c-1.5,0-3.8-0.6-4.8-2.3h-0.1v7.7h-2.5V218.7z M1087.5,220.5c-3.3,0-4.6,2.9-4.6,5.7c0,2.9,1.3,5.7,4.7,5.7c3.4,0,4.5-2.9,4.5-5.8
		C1092.1,223.2,1090.6,220.5,1087.5,220.5z"/>
	<path class="st5" d="M1097.7,218.7h2.5v2h0.1c0.8-1.7,2.7-2.4,4.8-2.4c4.6,0,6.9,3.7,6.9,7.9c0,4.3-2.3,7.8-6.8,7.8
		c-1.5,0-3.8-0.6-4.8-2.3h-0.1v7.7h-2.5V218.7z M1104.6,220.5c-3.3,0-4.6,2.9-4.6,5.7c0,2.9,1.3,5.7,4.7,5.7c3.4,0,4.5-2.9,4.5-5.8
		C1109.3,223.2,1107.8,220.5,1104.6,220.5z"/>
	<path class="st5" d="M1114.7,218.7h2.3v3.2h0.1c1.2-2.4,2.8-3.6,5.5-3.5v2.6c-4,0-5.4,2.2-5.4,6.1v6.7h-2.5V218.7z"/>
	<path class="st5" d="M1130.9,218.3c4.8,0,7.3,3.5,7.3,7.9c0,4.4-2.5,7.8-7.3,7.8c-4.8,0-7.3-3.5-7.3-7.8
		C1123.6,221.8,1126.2,218.3,1130.9,218.3z M1130.9,231.9c2.6,0,4.7-2,4.7-5.7s-2.1-5.7-4.7-5.7c-2.6,0-4.7,2.1-4.7,5.7
		S1128.3,231.9,1130.9,231.9z"/>
	<path class="st5" d="M1147.9,233.7h-2.6l-5.6-15h2.8l4.2,12.5h0.1l4.1-12.5h2.6L1147.9,233.7z"/>
	<path class="st5" d="M1168.4,228.9c-0.7,3.3-3,5.1-6.4,5.1c-4.8,0-7-3.3-7.2-7.9c0-4.5,3-7.8,7-7.8c5.3,0,6.9,5,6.8,8.6h-11.2
		c-0.1,2.6,1.4,4.9,4.7,4.9c2.1,0,3.5-1,3.9-2.9H1168.4z M1166,224.7c-0.1-2.3-1.9-4.2-4.3-4.2c-2.6,0-4.1,1.9-4.3,4.2H1166z"/>
	<path class="st5" d="M1184.6,233.7h-2.5v-2h-0.1c-0.8,1.7-2.7,2.4-4.8,2.4c-4.6,0-6.9-3.7-6.9-7.9c0-4.2,2.3-7.8,6.8-7.8
		c1.5,0,3.8,0.6,4.8,2.3h0.1V213h2.5V233.7z M1177.6,231.9c3.3,0,4.6-2.9,4.6-5.7c0-2.9-1.3-5.7-4.7-5.7c-3.4,0-4.5,2.9-4.5,5.8
		C1173,229.1,1174.4,231.9,1177.6,231.9z"/>
	<path class="st5" d="M1206.6,223.5c-0.4-1.9-1.7-3-3.7-3c-3.6,0-4.7,2.8-4.7,5.9c0,2.8,1.2,5.5,4.4,5.5c2.4,0,3.8-1.4,4.1-3.7h2.5
		c-0.6,3.7-2.8,5.8-6.6,5.8c-4.6,0-7-3.2-7-7.7s2.3-8,7.1-8c3.4,0,6.1,1.6,6.5,5.2H1206.6z"/>
	<path class="st5" d="M1212.1,213h2.5v20.7h-2.5V213z"/>
	<path class="st5" d="M1231.7,233.6c-0.4,0.3-1,0.4-1.8,0.4c-1.3,0-2.1-0.7-2.1-2.3c-1.4,1.6-3.2,2.3-5.3,2.3c-2.7,0-5-1.2-5-4.2
		c0-3.4,2.5-4.1,5.1-4.6c2.7-0.6,5-0.3,5-2.2c0-2.2-1.8-2.5-3.3-2.5c-2.1,0-3.6,0.6-3.7,2.8h-2.5c0.1-3.7,3-5,6.4-5
		c2.7,0,5.6,0.6,5.6,4.1v7.7c0,1.2,0,1.7,0.8,1.7c0.2,0,0.5-0.1,0.8-0.1V233.6z M1227.7,225.9c-1.9,1.4-7.5,0-7.5,3.7
		c0,1.6,1.4,2.2,2.9,2.2c3.2,0,4.6-2,4.6-3.4V225.9z"/>
	<path class="st5" d="M1236.6,216h-2.5v-3h2.5V216z M1234.2,218.7h2.5v15h-2.5V218.7z"/>
	<path class="st5" d="M1240.4,218.7h2.3v2.2h0.1c1.1-1.7,2.7-2.6,4.8-2.6c1.9,0,3.5,0.7,4.1,2.6c1-1.6,2.8-2.6,4.7-2.6
		c3,0,5,1.2,5,4.4v11h-2.5v-9.8c0-1.9-0.5-3.3-2.9-3.3c-2.4,0-3.9,1.5-3.9,3.8v9.3h-2.5v-9.8c0-1.9-0.6-3.3-2.8-3.3
		c-2.9,0-4,2.7-4,3.8v9.3h-2.5V218.7z"/>
	<path class="st5" d="M1266.7,229c0.1,2.2,2,2.9,4,2.9c1.5,0,3.6-0.3,3.6-2.2c0-3.9-9.8-1.2-9.8-7c0-3,3-4.3,5.6-4.3
		c3.4,0,5.9,1,6.1,4.7h-2.5c-0.1-1.9-1.9-2.5-3.5-2.5c-1.5,0-3.2,0.4-3.2,1.9c0,1.7,2.6,2.1,4.9,2.6c2.5,0.6,4.9,1.4,4.9,4.3
		c0,3.6-3.3,4.7-6.4,4.7c-3.4,0-6.2-1.4-6.4-5.1H1266.7z"/>
</g>
<g>
	<g>
		<path class="st5" d="M179.5,445.3h3.8l6.5,17.4l6.6-17.4h3.8V466h-2.6v-17.2h-0.1L191,466h-2.3l-6.5-17.2h-0.1V466h-2.6V445.3z"/>
		<path class="st5" d="M217.6,466c-0.4,0.3-1,0.4-1.8,0.4c-1.3,0-2.1-0.7-2.1-2.3c-1.4,1.6-3.2,2.3-5.3,2.3c-2.7,0-5-1.2-5-4.2
			c0-3.4,2.5-4.1,5.1-4.6c2.7-0.6,5-0.3,5-2.2c0-2.2-1.8-2.5-3.3-2.5c-2.1,0-3.6,0.6-3.7,2.8h-2.5c0.1-3.7,3-5,6.4-5
			c2.7,0,5.6,0.6,5.6,4.1v7.7c0,1.2,0,1.7,0.8,1.7c0.2,0,0.5-0.1,0.8-0.1V466z M213.6,458.3c-1.9,1.4-7.5,0-7.5,3.7
			c0,1.6,1.4,2.2,2.9,2.2c3.2,0,4.6-2,4.6-3.4V458.3z"/>
		<path class="st5" d="M219.8,451h2.3v3.2h0.1c1.2-2.4,2.8-3.6,5.5-3.5v2.6c-4,0-5.4,2.2-5.4,6.1v6.7h-2.5V451z"/>
		<path class="st5" d="M229.7,445.3h2.5v12.3l6.8-6.6h3.3l-5.9,5.5l6.4,9.5h-3.1l-5.1-7.8l-2.3,2.1v5.7h-2.5V445.3z"/>
		<path class="st5" d="M257.4,461.3c-0.7,3.3-3,5.1-6.4,5.1c-4.8,0-7-3.3-7.2-7.9c0-4.5,3-7.8,7-7.8c5.3,0,6.9,5,6.8,8.6h-11.2
			c-0.1,2.6,1.4,4.9,4.7,4.9c2.1,0,3.5-1,3.9-2.9H257.4z M255,457.1c-0.1-2.3-1.9-4.2-4.3-4.2c-2.6,0-4.1,1.9-4.3,4.2H255z"/>
		<path class="st5" d="M263.6,451h3v2.2h-3v9.3c0,1.2,0.3,1.3,1.9,1.3h1.1v2.2h-1.9c-2.6,0-3.6-0.5-3.6-3.3v-9.5h-2.6V451h2.6v-4.5
			h2.5V451z"/>
		<path class="st5" d="M271.9,448.3h-2.5v-3h2.5V448.3z M269.4,451h2.5v15h-2.5V451z"/>
		<path class="st5" d="M275.7,451h2.3v2.4h0.1c1-1.9,2.7-2.7,4.9-2.7c3.9,0,5.2,2.3,5.2,5.5v9.9h-2.5v-10.2c0-1.9-1.2-3-3-3
			c-3,0-4.4,2-4.4,4.7v8.5h-2.5V451z"/>
		<path class="st5" d="M304.8,464.8c0,4.9-2.2,7.4-7,7.4c-2.8,0-6.1-1.2-6.2-4.4h2.5c0.1,1.8,2.3,2.4,3.9,2.4c3.2,0,4.5-2.3,4.5-5.7
			v-1h-0.1c-0.8,1.8-2.8,2.7-4.7,2.7c-4.5,0-6.7-3.5-6.7-7.6c0-3.5,1.7-7.9,6.9-7.9c1.9,0,3.6,0.8,4.5,2.5h0V451h2.3V464.8z
			 M302.3,458.2c0-2.6-1.2-5.4-4.3-5.4c-3.2,0-4.4,2.6-4.4,5.5c0,2.7,1,5.7,4.2,5.7C301.1,464,302.3,461,302.3,458.2z"/>
		<path class="st5" d="M329.9,466h-2.5v-2h-0.1c-0.8,1.7-2.7,2.4-4.8,2.4c-4.6,0-6.9-3.7-6.9-7.9c0-4.2,2.3-7.8,6.8-7.8
			c1.5,0,3.8,0.6,4.8,2.3h0.1v-7.7h2.5V466z M323,464.2c3.3,0,4.6-2.9,4.6-5.7c0-2.9-1.3-5.7-4.7-5.7c-3.4,0-4.5,2.9-4.5,5.8
			C318.3,461.5,319.8,464.2,323,464.2z"/>
		<path class="st5" d="M346.5,461.3c-0.7,3.3-3,5.1-6.4,5.1c-4.8,0-7-3.3-7.2-7.9c0-4.5,3-7.8,7-7.8c5.3,0,6.9,5,6.8,8.6h-11.2
			c-0.1,2.6,1.4,4.9,4.7,4.9c2.1,0,3.5-1,3.9-2.9H346.5z M344.2,457.1c-0.1-2.3-1.9-4.2-4.3-4.2c-2.6,0-4.1,1.9-4.3,4.2H344.2z"/>
		<path class="st5" d="M356.1,466h-2.6l-5.6-15h2.8l4.2,12.5h0.1L359,451h2.6L356.1,466z"/>
		<path class="st5" d="M376.6,461.3c-0.7,3.3-3,5.1-6.4,5.1c-4.8,0-7-3.3-7.2-7.9c0-4.5,3-7.8,7-7.8c5.3,0,6.9,5,6.8,8.6h-11.2
			c-0.1,2.6,1.4,4.9,4.7,4.9c2.1,0,3.5-1,3.9-2.9H376.6z M374.2,457.1c-0.1-2.3-1.9-4.2-4.3-4.2c-2.6,0-4.1,1.9-4.3,4.2H374.2z"/>
		<path class="st5" d="M379.5,445.3h2.5V466h-2.5V445.3z"/>
		<path class="st5" d="M392.3,450.7c4.8,0,7.3,3.5,7.3,7.9c0,4.4-2.5,7.8-7.3,7.8c-4.8,0-7.3-3.5-7.3-7.8
			C385,454.1,387.5,450.7,392.3,450.7z M392.3,464.2c2.6,0,4.7-2,4.7-5.7s-2.1-5.7-4.7-5.7c-2.6,0-4.7,2.1-4.7,5.7
			S389.7,464.2,392.3,464.2z"/>
		<path class="st5" d="M402.6,451h2.5v2h0.1c0.8-1.7,2.7-2.4,4.8-2.4c4.6,0,6.9,3.7,6.9,7.9c0,4.3-2.3,7.8-6.8,7.8
			c-1.5,0-3.8-0.6-4.8-2.3H405v7.7h-2.5V451z M409.5,452.9c-3.3,0-4.6,2.9-4.6,5.7c0,2.9,1.3,5.7,4.7,5.7c3.4,0,4.5-2.9,4.5-5.8
			C414.2,455.6,412.7,452.9,409.5,452.9z"/>
		<path class="st5" d="M421.2,461.3c0.1,2.2,2,2.9,4,2.9c1.5,0,3.6-0.3,3.6-2.2c0-3.9-9.8-1.2-9.8-7c0-3,3-4.3,5.6-4.3
			c3.4,0,5.9,1,6.1,4.7h-2.5c-0.1-1.9-1.9-2.5-3.5-2.5c-1.5,0-3.2,0.4-3.2,1.9c0,1.7,2.6,2.1,4.9,2.6c2.5,0.6,4.9,1.4,4.9,4.3
			c0,3.6-3.3,4.7-6.4,4.7c-3.4,0-6.2-1.4-6.4-5.1H421.2z"/>
		<path class="st5" d="M445.7,451h3v2.2h-3v9.3c0,1.2,0.3,1.3,1.9,1.3h1.1v2.2h-1.9c-2.6,0-3.6-0.5-3.6-3.3v-9.5h-2.6V451h2.6v-4.5
			h2.5V451z"/>
		<path class="st5" d="M451.4,445.3h2.5v7.9h0.1c0.8-1.8,3-2.6,4.7-2.6c3.9,0,5.2,2.3,5.2,5.5v9.9h-2.5v-10.2c0-1.9-1.2-3-3-3
			c-3,0-4.4,2-4.4,4.7v8.5h-2.5V445.3z"/>
		<path class="st5" d="M480.3,461.3c-0.7,3.3-3,5.1-6.4,5.1c-4.8,0-7-3.3-7.2-7.9c0-4.5,3-7.8,7-7.8c5.3,0,6.9,5,6.8,8.6h-11.2
			c-0.1,2.6,1.4,4.9,4.7,4.9c2.1,0,3.5-1,3.9-2.9H480.3z M477.9,457.1c-0.1-2.3-1.9-4.2-4.3-4.2c-2.6,0-4.1,1.9-4.3,4.2H477.9z"/>
		<path class="st5" d="M491.1,451h2.3v2.2h0.1c1.1-1.7,2.7-2.6,4.8-2.6c1.9,0,3.5,0.7,4.1,2.6c1-1.6,2.8-2.6,4.7-2.6
			c3,0,5,1.2,5,4.4v11h-2.5v-9.8c0-1.9-0.5-3.3-2.9-3.3c-2.4,0-3.9,1.5-3.9,3.8v9.3h-2.5v-9.8c0-1.9-0.6-3.3-2.8-3.3
			c-2.9,0-4,2.7-4,3.8v9.3h-2.5V451z"/>
		<path class="st5" d="M529.1,466c-0.4,0.3-1,0.4-1.8,0.4c-1.3,0-2.1-0.7-2.1-2.3c-1.4,1.6-3.2,2.3-5.3,2.3c-2.7,0-5-1.2-5-4.2
			c0-3.4,2.5-4.1,5.1-4.6c2.7-0.6,5-0.3,5-2.2c0-2.2-1.8-2.5-3.3-2.5c-2.1,0-3.6,0.6-3.7,2.8h-2.5c0.1-3.7,3-5,6.4-5
			c2.7,0,5.6,0.6,5.6,4.1v7.7c0,1.2,0,1.7,0.8,1.7c0.2,0,0.5-0.1,0.8-0.1V466z M525.1,458.3c-1.9,1.4-7.5,0-7.5,3.7
			c0,1.6,1.4,2.2,2.9,2.2c3.2,0,4.6-2,4.6-3.4V458.3z"/>
		<path class="st5" d="M534.9,451h3v2.2h-3v9.3c0,1.2,0.3,1.3,1.9,1.3h1.1v2.2H536c-2.6,0-3.6-0.5-3.6-3.3v-9.5h-2.6V451h2.6v-4.5
			h2.5V451z"/>
		<path class="st5" d="M553.4,461.3c-0.7,3.3-3,5.1-6.4,5.1c-4.8,0-7-3.3-7.2-7.9c0-4.5,3-7.8,7-7.8c5.3,0,6.9,5,6.8,8.6h-11.2
			c-0.1,2.6,1.4,4.9,4.7,4.9c2.1,0,3.5-1,3.9-2.9H553.4z M551,457.1c-0.1-2.3-1.9-4.2-4.3-4.2c-2.6,0-4.1,1.9-4.3,4.2H551z"/>
		<path class="st5" d="M556.1,451h2.3v3.2h0.1c1.2-2.4,2.8-3.6,5.5-3.5v2.6c-4,0-5.4,2.2-5.4,6.1v6.7h-2.5V451z"/>
		<path class="st5" d="M568.4,448.3h-2.5v-3h2.5V448.3z M565.9,451h2.5v15h-2.5V451z"/>
		<path class="st5" d="M585.5,466c-0.4,0.3-1,0.4-1.8,0.4c-1.3,0-2.1-0.7-2.1-2.3c-1.4,1.6-3.2,2.3-5.3,2.3c-2.7,0-5-1.2-5-4.2
			c0-3.4,2.5-4.1,5.1-4.6c2.7-0.6,5-0.3,5-2.2c0-2.2-1.8-2.5-3.3-2.5c-2.1,0-3.6,0.6-3.7,2.8H572c0.1-3.7,3-5,6.4-5
			c2.7,0,5.6,0.6,5.6,4.1v7.7c0,1.2,0,1.7,0.8,1.7c0.2,0,0.5-0.1,0.8-0.1V466z M581.5,458.3c-1.9,1.4-7.5,0-7.5,3.7
			c0,1.6,1.4,2.2,2.9,2.2c3.2,0,4.6-2,4.6-3.4V458.3z"/>
		<path class="st5" d="M588,445.3h2.5V466H588V445.3z"/>
		<path class="st5" d="M236.8,500.8h-2.6l-3-11.9h-0.1l-3,11.9h-2.7l-4.8-15h2.7l3.4,12.3h0.1l3-12.3h2.7l3.1,12.3h0.1l3.4-12.3h2.6
			L236.8,500.8z"/>
		<path class="st5" d="M246.6,483.1h-2.5v-3h2.5V483.1z M244.1,485.8h2.5v15h-2.5V485.8z"/>
		<path class="st5" d="M253.8,485.8h3v2.2h-3v9.3c0,1.2,0.3,1.3,1.9,1.3h1.1v2.2h-1.9c-2.6,0-3.6-0.5-3.6-3.3V488h-2.6v-2.2h2.6
			v-4.5h2.5V485.8z"/>
		<path class="st5" d="M259.5,480.1h2.5v7.9h0.1c0.8-1.8,3-2.6,4.7-2.6c3.9,0,5.2,2.3,5.2,5.5v9.9h-2.5v-10.2c0-1.9-1.2-3-3-3
			c-3,0-4.4,2-4.4,4.7v8.5h-2.5V480.1z"/>
		<path class="st5" d="M298.7,486.4c-0.6-2.9-2.9-4.4-5.8-4.4c-4.9,0-7,4.1-7,8.4c0,4.7,2.1,8.7,7,8.7c3.6,0,5.7-2.6,6-6h2.8
			c-0.6,5.2-3.7,8.3-9,8.3c-6.4,0-9.6-4.8-9.6-10.8c0-6,3.4-10.9,9.8-10.9c4.3,0,7.9,2.3,8.5,6.7H298.7z"/>
		<path class="st5" d="M305.1,480.1h3.8l6.5,17.4l6.6-17.4h3.8v20.7h-2.6v-17.2h-0.1l-6.5,17.2h-2.3l-6.5-17.2h-0.1v17.2h-2.6V480.1
			z"/>
		<path class="st5" d="M339.1,479.6c6.6,0,9.9,5.2,9.9,10.8s-3.3,10.8-9.9,10.8c-6.6,0-9.9-5.2-9.9-10.8S332.5,479.6,339.1,479.6z
			 M339.1,499c5,0,7.2-4.4,7.2-8.5s-2.1-8.5-7.2-8.5c-5,0-7.2,4.4-7.2,8.5S334,499,339.1,499z"/>
		<path class="st5" d="M352.5,497.6h3.2v2.9c0,2.2-1,3.9-3.2,4.6v-1.5c1.3-0.5,1.8-1.9,1.7-2.8h-1.7V497.6z"/>
		<path class="st5" d="M381.4,500.8c-0.4,0.3-1,0.4-1.8,0.4c-1.3,0-2.1-0.7-2.1-2.3c-1.4,1.6-3.2,2.3-5.3,2.3c-2.7,0-5-1.2-5-4.2
			c0-3.4,2.5-4.1,5.1-4.6c2.7-0.6,5-0.3,5-2.2c0-2.2-1.8-2.5-3.3-2.5c-2.1,0-3.6,0.6-3.7,2.8h-2.5c0.1-3.7,3-5,6.4-5
			c2.7,0,5.6,0.6,5.6,4.1v7.7c0,1.2,0,1.7,0.8,1.7c0.2,0,0.5-0.1,0.8-0.1V500.8z M377.4,493.1c-1.9,1.4-7.5,0-7.5,3.7
			c0,1.6,1.4,2.2,2.9,2.2c3.2,0,4.6-2,4.6-3.4V493.1z"/>
		<path class="st5" d="M383.7,485.8h2.3v2.4h0.1c1-1.9,2.7-2.7,4.9-2.7c3.9,0,5.2,2.3,5.2,5.5v9.9h-2.5v-10.2c0-1.9-1.2-3-3-3
			c-3,0-4.4,2-4.4,4.7v8.5h-2.5V485.8z"/>
		<path class="st5" d="M413.2,500.8h-2.5v-2h-0.1c-0.8,1.7-2.7,2.4-4.8,2.4c-4.6,0-6.9-3.7-6.9-7.9c0-4.2,2.3-7.8,6.8-7.8
			c1.5,0,3.8,0.6,4.8,2.3h0.1v-7.7h2.5V500.8z M406.2,499c3.3,0,4.6-2.9,4.6-5.7c0-2.9-1.3-5.7-4.7-5.7c-3.4,0-4.5,2.9-4.5,5.8
			C401.6,496.3,403,499,406.2,499z"/>
		<path class="st5" d="M425.5,480.1h9.7c3.9,0,6.3,2.1,6.3,5.4c0,2.5-1.1,4.6-3.6,5.3v0.1c2.4,0.5,2.9,2.3,3.1,4.3
			c0.1,2,0.1,4.3,1.2,5.7h-3.1c-0.8-0.8-0.3-3.1-0.8-5.1c-0.3-2-0.8-3.7-3.5-3.7h-6.7v8.8h-2.8V480.1z M434,489.7
			c2.6,0,4.8-0.7,4.8-3.7c0-2.1-1.1-3.5-3.7-3.5h-6.8v7.2H434z"/>
		<path class="st5" d="M450.9,480.1h3l8.1,20.7h-3l-2.3-6.2H448l-2.3,6.2h-2.8L450.9,480.1z M448.9,492.3h7l-3.5-9.7h-0.1
			L448.9,492.3z"/>
		<path class="st5" d="M474.4,483.1h-2.5v-3h2.5V483.1z M471.9,485.8h2.5v15h-2.5V485.8z"/>
		<path class="st5" d="M478.2,485.8h2.3v2.4h0.1c1-1.9,2.7-2.7,4.9-2.7c3.9,0,5.2,2.3,5.2,5.5v9.9h-2.5v-10.2c0-1.9-1.2-3-3-3
			c-3,0-4.4,2-4.4,4.7v8.5h-2.5V485.8z"/>
		<path class="st5" d="M494.4,485.8h2.5v2h0.1c0.8-1.7,2.7-2.4,4.8-2.4c4.6,0,6.9,3.7,6.9,7.9c0,4.3-2.3,7.8-6.8,7.8
			c-1.5,0-3.8-0.6-4.8-2.3h-0.1v7.7h-2.5V485.8z M501.4,487.7c-3.3,0-4.6,2.9-4.6,5.7c0,2.9,1.3,5.7,4.7,5.7c3.4,0,4.5-2.9,4.5-5.8
			C506,490.4,504.6,487.7,501.4,487.7z"/>
		<path class="st5" d="M523.9,500.8h-2.3v-2.4h-0.1c-1,1.9-2.7,2.7-4.9,2.7c-3.9,0-5.2-2.3-5.2-5.5v-9.9h2.5V496c0,1.9,1.2,3,3,3
			c3,0,4.4-2,4.4-4.7v-8.5h2.5V500.8z"/>
		<path class="st5" d="M531.1,485.8h3v2.2h-3v9.3c0,1.2,0.3,1.3,1.9,1.3h1.1v2.2h-1.9c-2.6,0-3.6-0.5-3.6-3.3V488h-2.6v-2.2h2.6
			v-4.5h2.5V485.8z"/>
		<path class="st5" d="M538.3,496.1c0.1,2.2,2,2.9,4,2.9c1.5,0,3.6-0.3,3.6-2.2c0-3.9-9.8-1.2-9.8-7c0-3,3-4.3,5.6-4.3
			c3.4,0,5.9,1,6.1,4.7h-2.5c-0.1-1.9-1.9-2.5-3.5-2.5c-1.5,0-3.2,0.4-3.2,1.9c0,1.7,2.6,2.1,4.9,2.6c2.5,0.6,4.9,1.4,4.9,4.3
			c0,3.6-3.3,4.7-6.4,4.7c-3.4,0-6.2-1.4-6.4-5.1H538.3z"/>
	</g>
</g>
<rect x="225.7" y="830.8" class="st10" width="482.5" height="68.3"/>
<g>
	<g>
		<path class="st5" d="M270.1,856.4h2.8v18.4h11v2.3h-13.7V856.4z"/>
		<path class="st5" d="M298.6,872.3c-0.7,3.3-3,5.1-6.4,5.1c-4.8,0-7-3.3-7.2-7.9c0-4.5,3-7.8,7-7.8c5.3,0,6.9,5,6.8,8.6h-11.2
			c-0.1,2.6,1.4,4.9,4.7,4.9c2.1,0,3.5-1,3.9-2.9H298.6z M296.2,868.1c-0.1-2.3-1.9-4.2-4.3-4.2c-2.6,0-4.1,1.9-4.3,4.2H296.2z"/>
		<path class="st5" d="M314.3,875.8c0,4.9-2.2,7.4-7,7.4c-2.8,0-6.1-1.2-6.2-4.4h2.5c0.1,1.8,2.3,2.4,3.9,2.4c3.2,0,4.5-2.3,4.5-5.7
			v-1h-0.1c-0.8,1.8-2.8,2.7-4.7,2.7c-4.5,0-6.7-3.5-6.7-7.6c0-3.5,1.7-7.9,6.9-7.9c1.9,0,3.6,0.8,4.5,2.5h0v-2.1h2.3V875.8z
			 M311.9,869.3c0-2.6-1.2-5.4-4.3-5.4c-3.2,0-4.4,2.6-4.4,5.5c0,2.7,1,5.7,4.2,5.7C310.6,875.1,311.9,872.1,311.9,869.3z"/>
		<path class="st5" d="M331.3,877c-0.4,0.3-1,0.4-1.8,0.4c-1.3,0-2.1-0.7-2.1-2.3c-1.4,1.6-3.2,2.3-5.3,2.3c-2.7,0-5-1.2-5-4.2
			c0-3.4,2.5-4.1,5.1-4.6c2.7-0.6,5-0.3,5-2.2c0-2.2-1.8-2.5-3.3-2.5c-2.1,0-3.6,0.6-3.7,2.8h-2.5c0.1-3.7,3-5,6.4-5
			c2.7,0,5.6,0.6,5.6,4.1v7.7c0,1.2,0,1.7,0.8,1.7c0.2,0,0.5-0.1,0.8-0.1V877z M327.3,869.3c-1.9,1.4-7.5,0-7.5,3.7
			c0,1.6,1.4,2.2,2.9,2.2c3.2,0,4.6-2,4.6-3.4V869.3z"/>
		<path class="st5" d="M333.7,856.4h2.5v20.7h-2.5V856.4z"/>
		<path class="st5" d="M349.1,864.3h-2.5v-2.2h2.5v-2.2c0-2.4,1.5-3.7,4.1-3.7c0.5,0,1.1,0.1,1.6,0.2v2.1c-0.4-0.1-1-0.2-1.4-0.2
			c-1.2,0-1.9,0.4-1.9,1.7v2.1h2.9v2.2h-2.9v12.8h-2.5V864.3z"/>
		<path class="st5" d="M369.1,877.1h-2.3v-2.4h-0.1c-1,1.9-2.7,2.7-4.9,2.7c-3.9,0-5.2-2.3-5.2-5.5v-9.9h2.5v10.2c0,1.9,1.2,3,3,3
			c3,0,4.4-2,4.4-4.7v-8.5h2.5V877.1z"/>
		<path class="st5" d="M372.8,862.1h2.3v2.4h0.1c1-1.9,2.7-2.7,4.9-2.7c3.9,0,5.2,2.3,5.2,5.5v9.9h-2.5v-10.2c0-1.9-1.2-3-3-3
			c-3,0-4.4,2-4.4,4.7v8.5h-2.5V862.1z"/>
		<path class="st5" d="M399.1,866.9c-0.4-1.9-1.7-3-3.7-3c-3.6,0-4.7,2.8-4.7,5.9c0,2.8,1.2,5.5,4.4,5.5c2.4,0,3.8-1.4,4.1-3.7h2.5
			c-0.6,3.7-2.8,5.8-6.6,5.8c-4.6,0-7-3.2-7-7.7s2.3-8,7.1-8c3.4,0,6.1,1.6,6.5,5.2H399.1z"/>
		<path class="st5" d="M407.9,862.1h3v2.2h-3v9.3c0,1.2,0.3,1.3,1.9,1.3h1.1v2.2H409c-2.6,0-3.6-0.5-3.6-3.3v-9.5h-2.6v-2.2h2.6
			v-4.5h2.5V862.1z"/>
		<path class="st5" d="M416.2,859.4h-2.5v-3h2.5V859.4z M413.8,862.1h2.5v15h-2.5V862.1z"/>
		<path class="st5" d="M426.5,861.7c4.8,0,7.3,3.5,7.3,7.9c0,4.4-2.5,7.8-7.3,7.8c-4.8,0-7.3-3.5-7.3-7.8
			C419.2,865.2,421.8,861.7,426.5,861.7z M426.5,875.2c2.6,0,4.7-2,4.7-5.7c0-3.6-2.1-5.7-4.7-5.7c-2.6,0-4.7,2.1-4.7,5.7
			C421.8,873.2,423.9,875.2,426.5,875.2z"/>
		<path class="st5" d="M436.7,862.1h2.3v2.4h0.1c1-1.9,2.7-2.7,4.9-2.7c3.9,0,5.2,2.3,5.2,5.5v9.9h-2.5v-10.2c0-1.9-1.2-3-3-3
			c-3,0-4.4,2-4.4,4.7v8.5h-2.5V862.1z"/>
		<path class="st5" d="M460.8,862.1h2.3v3.2h0.1c1.2-2.4,2.8-3.6,5.5-3.5v2.6c-4,0-5.4,2.2-5.4,6.1v6.7h-2.5V862.1z"/>
		<path class="st5" d="M483.3,872.3c-0.7,3.3-3,5.1-6.4,5.1c-4.8,0-7-3.3-7.2-7.9c0-4.5,3-7.8,7-7.8c5.3,0,6.9,5,6.8,8.6h-11.2
			c-0.1,2.6,1.4,4.9,4.7,4.9c2.1,0,3.5-1,3.9-2.9H483.3z M481,868.1c-0.1-2.3-1.9-4.2-4.3-4.2c-2.6,0-4.1,1.9-4.3,4.2H481z"/>
		<path class="st5" d="M492.9,877.1h-2.6l-5.6-15h2.8l4.2,12.5h0.1l4.1-12.5h2.6L492.9,877.1z"/>
		<path class="st5" d="M503.2,859.4h-2.5v-3h2.5V859.4z M500.8,862.1h2.5v15h-2.5V862.1z"/>
		<path class="st5" d="M519.8,872.3c-0.7,3.3-3,5.1-6.4,5.1c-4.8,0-7-3.3-7.2-7.9c0-4.5,3-7.8,7-7.8c5.3,0,6.9,5,6.8,8.6h-11.2
			c-0.1,2.6,1.4,4.9,4.7,4.9c2.1,0,3.5-1,3.9-2.9H519.8z M517.5,868.1c-0.1-2.3-1.9-4.2-4.3-4.2c-2.6,0-4.1,1.9-4.3,4.2H517.5z"/>
		<path class="st5" d="M537.5,877.1h-2.6l-3-11.9h-0.1l-3,11.9h-2.7l-4.8-15h2.7l3.4,12.3h0.1l3-12.3h2.7l3.1,12.3h0.1l3.4-12.3h2.6
			L537.5,877.1z"/>
		<path class="st5" d="M552.6,862.1h2.3v3.2h0.1c1.2-2.4,2.8-3.6,5.5-3.5v2.6c-4,0-5.4,2.2-5.4,6.1v6.7h-2.5V862.1z"/>
		<path class="st5" d="M575.1,872.3c-0.7,3.3-3,5.1-6.4,5.1c-4.8,0-7-3.3-7.2-7.9c0-4.5,3-7.8,7-7.8c5.3,0,6.9,5,6.8,8.6h-11.2
			c-0.1,2.6,1.4,4.9,4.7,4.9c2.1,0,3.5-1,3.9-2.9H575.1z M572.7,868.1c-0.1-2.3-1.9-4.2-4.3-4.2c-2.6,0-4.1,1.9-4.3,4.2H572.7z"/>
		<path class="st5" d="M591.3,882.8h-2.5V875h-0.1c-0.8,1.7-2.7,2.4-4.8,2.4c-4.6,0-6.9-3.7-6.9-7.9c0-4.2,2.3-7.8,6.8-7.8
			c1.5,0,3.8,0.6,4.8,2.3h0.1v-2h2.5V882.8z M584.3,875.2c3.3,0,4.6-2.9,4.6-5.7c0-2.9-1.3-5.7-4.7-5.7c-3.4,0-4.5,2.9-4.5,5.8
			C579.7,872.5,581.1,875.2,584.3,875.2z"/>
		<path class="st5" d="M607.5,877.1h-2.3v-2.4h-0.1c-1,1.9-2.7,2.7-4.9,2.7c-3.9,0-5.2-2.3-5.2-5.5v-9.9h2.5v10.2c0,1.9,1.2,3,3,3
			c3,0,4.4-2,4.4-4.7v-8.5h2.5V877.1z"/>
		<path class="st5" d="M613.8,859.4h-2.5v-3h2.5V859.4z M611.4,862.1h2.5v15h-2.5V862.1z"/>
		<path class="st5" d="M617.6,862.1h2.3v3.2h0.1c1.2-2.4,2.8-3.6,5.5-3.5v2.6c-4,0-5.4,2.2-5.4,6.1v6.7h-2.5V862.1z"/>
		<path class="st5" d="M640.1,872.3c-0.7,3.3-3,5.1-6.4,5.1c-4.8,0-7-3.3-7.2-7.9c0-4.5,3-7.8,7-7.8c5.3,0,6.9,5,6.8,8.6h-11.2
			c-0.1,2.6,1.4,4.9,4.7,4.9c2.1,0,3.5-1,3.9-2.9H640.1z M637.7,868.1c-0.1-2.3-1.9-4.2-4.3-4.2c-2.6,0-4.1,1.9-4.3,4.2H637.7z"/>
		<path class="st5" d="M656.3,877.1h-2.5v-2h-0.1c-0.8,1.7-2.7,2.4-4.8,2.4c-4.6,0-6.9-3.7-6.9-7.9c0-4.2,2.3-7.8,6.8-7.8
			c1.5,0,3.8,0.6,4.8,2.3h0.1v-7.7h2.5V877.1z M649.3,875.2c3.3,0,4.6-2.9,4.6-5.7c0-2.9-1.3-5.7-4.7-5.7c-3.4,0-4.5,2.9-4.5,5.8
			C644.7,872.5,646.1,875.2,649.3,875.2z"/>
	</g>
</g>
<rect x="226.4" y="915.8" class="st10" width="793.3" height="68.3"/>
<g>
	<g>
		<path class="st5" d="M269,941.4h3.8l6.5,17.4l6.6-17.4h3.8v20.7H287v-17.2H287l-6.5,17.2h-2.3l-6.5-17.2h-0.1v17.2H269V941.4z"/>
		<path class="st5" d="M307.1,962c-0.4,0.3-1,0.4-1.8,0.4c-1.3,0-2.1-0.7-2.1-2.3c-1.4,1.6-3.2,2.3-5.3,2.3c-2.7,0-5-1.2-5-4.2
			c0-3.4,2.5-4.1,5.1-4.6c2.7-0.6,5-0.3,5-2.2c0-2.2-1.8-2.5-3.3-2.5c-2.1,0-3.6,0.6-3.7,2.8h-2.5c0.1-3.7,3-5,6.4-5
			c2.7,0,5.6,0.6,5.6,4.1v7.7c0,1.2,0,1.7,0.8,1.7c0.2,0,0.5-0.1,0.8-0.1V962z M303.1,954.3c-1.9,1.4-7.5,0-7.5,3.7
			c0,1.6,1.4,2.2,2.9,2.2c3.2,0,4.6-2,4.6-3.4V954.3z"/>
		<path class="st5" d="M309.3,947.1h2.3v3.2h0.1c1.2-2.4,2.8-3.6,5.5-3.5v2.6c-4,0-5.4,2.2-5.4,6.1v6.7h-2.5V947.1z"/>
		<path class="st5" d="M319.2,941.4h2.5v12.3l6.8-6.6h3.3l-5.9,5.5l6.4,9.5h-3.1l-5.1-7.8l-2.3,2.1v5.7h-2.5V941.4z"/>
		<path class="st5" d="M346.9,957.3c-0.7,3.3-3,5.1-6.4,5.1c-4.8,0-7-3.3-7.2-7.9c0-4.5,3-7.8,7-7.8c5.3,0,6.9,5,6.8,8.6h-11.2
			c-0.1,2.6,1.4,4.9,4.7,4.9c2.1,0,3.5-1,3.9-2.9H346.9z M344.5,953.1c-0.1-2.3-1.9-4.2-4.3-4.2c-2.6,0-4.1,1.9-4.3,4.2H344.5z"/>
		<path class="st5" d="M353.1,947.1h3v2.2h-3v9.3c0,1.2,0.3,1.3,1.9,1.3h1.1v2.2h-1.9c-2.6,0-3.6-0.5-3.6-3.3v-9.5h-2.6v-2.2h2.6
			v-4.5h2.5V947.1z"/>
		<path class="st5" d="M361.4,944.4h-2.5v-3h2.5V944.4z M358.9,947.1h2.5v15h-2.5V947.1z"/>
		<path class="st5" d="M365.2,947.1h2.3v2.4h0.1c1-1.9,2.7-2.7,4.9-2.7c3.9,0,5.2,2.3,5.2,5.5v9.9h-2.5v-10.2c0-1.9-1.2-3-3-3
			c-3,0-4.4,2-4.4,4.7v8.5h-2.5V947.1z"/>
		<path class="st5" d="M394.3,960.8c0,4.9-2.2,7.4-7,7.4c-2.8,0-6.1-1.2-6.2-4.4h2.5c0.1,1.8,2.3,2.4,3.9,2.4c3.2,0,4.5-2.3,4.5-5.7
			v-1h-0.1c-0.8,1.8-2.8,2.7-4.7,2.7c-4.5,0-6.7-3.5-6.7-7.6c0-3.5,1.7-7.9,6.9-7.9c1.9,0,3.6,0.8,4.5,2.5h0v-2.1h2.3V960.8z
			 M391.8,954.3c0-2.6-1.2-5.4-4.3-5.4c-3.2,0-4.4,2.6-4.4,5.5c0,2.7,1,5.7,4.2,5.7C390.6,960.1,391.8,957.1,391.8,954.3z"/>
		<path class="st5" d="M409.5,947.1h3v2.2h-3v9.3c0,1.2,0.3,1.3,1.9,1.3h1.1v2.2h-1.9c-2.6,0-3.6-0.5-3.6-3.3v-9.5h-2.6v-2.2h2.6
			v-4.5h2.5V947.1z"/>
		<path class="st5" d="M421.7,946.7c4.8,0,7.3,3.5,7.3,7.9c0,4.4-2.5,7.8-7.3,7.8c-4.8,0-7.3-3.5-7.3-7.8
			C414.4,950.2,416.9,946.7,421.7,946.7z M421.7,960.2c2.6,0,4.7-2,4.7-5.7c0-3.6-2.1-5.7-4.7-5.7c-2.6,0-4.7,2.1-4.7,5.7
			C417,958.2,419.1,960.2,421.7,960.2z"/>
		<path class="st5" d="M453.3,962.1h-2.5v-2h-0.1c-0.8,1.7-2.7,2.4-4.8,2.4c-4.6,0-6.9-3.7-6.9-7.9c0-4.2,2.3-7.8,6.8-7.8
			c1.5,0,3.8,0.6,4.8,2.3h0.1v-7.7h2.5V962.1z M446.3,960.2c3.3,0,4.6-2.9,4.6-5.7c0-2.9-1.3-5.7-4.7-5.7c-3.4,0-4.5,2.9-4.5,5.8
			C441.7,957.5,443.1,960.2,446.3,960.2z"/>
		<path class="st5" d="M459.7,944.4h-2.5v-3h2.5V944.4z M457.2,947.1h2.5v15h-2.5V947.1z"/>
		<path class="st5" d="M465,957.3c0.1,2.2,2,2.9,4,2.9c1.5,0,3.6-0.3,3.6-2.2c0-3.9-9.8-1.2-9.8-7c0-3,3-4.3,5.6-4.3
			c3.4,0,5.9,1,6.1,4.7h-2.5c-0.1-1.9-1.9-2.5-3.5-2.5c-1.5,0-3.2,0.4-3.2,1.9c0,1.7,2.6,2.1,4.9,2.6c2.5,0.6,4.9,1.4,4.9,4.3
			c0,3.6-3.3,4.7-6.4,4.7c-3.4,0-6.2-1.4-6.4-5.1H465z"/>
		<path class="st5" d="M481.5,947.1h3v2.2h-3v9.3c0,1.2,0.3,1.3,1.9,1.3h1.1v2.2h-1.9c-2.6,0-3.6-0.5-3.6-3.3v-9.5h-2.6v-2.2h2.6
			v-4.5h2.5V947.1z"/>
		<path class="st5" d="M487.1,947.1h2.3v3.2h0.1c1.2-2.4,2.8-3.6,5.5-3.5v2.6c-4,0-5.4,2.2-5.4,6.1v6.7h-2.5V947.1z"/>
		<path class="st5" d="M499.4,944.4H497v-3h2.5V944.4z M497,947.1h2.5v15H497V947.1z"/>
		<path class="st5" d="M503.3,941.4h2.5v7.7h0.1c0.8-1.7,2.7-2.4,4.8-2.4c4.6,0,6.9,3.7,6.9,7.9c0,4.3-2.3,7.8-6.8,7.8
			c-1.5,0-3.8-0.6-4.8-2.3h-0.1v2h-2.5V941.4z M510.3,948.9c-3.3,0-4.6,2.9-4.6,5.7c0,2.9,1.3,5.7,4.7,5.7c3.4,0,4.5-2.9,4.5-5.8
			C514.9,951.6,513.5,948.9,510.3,948.9z"/>
		<path class="st5" d="M532.9,962.1h-2.3v-2.4h-0.1c-1,1.9-2.7,2.7-4.9,2.7c-3.9,0-5.2-2.3-5.2-5.5v-9.9h2.5v10.2c0,1.9,1.2,3,3,3
			c3,0,4.4-2,4.4-4.7v-8.5h2.5V962.1z"/>
		<path class="st5" d="M540,947.1h3v2.2h-3v9.3c0,1.2,0.3,1.3,1.9,1.3h1.1v2.2h-1.9c-2.6,0-3.6-0.5-3.6-3.3v-9.5H535v-2.2h2.6v-4.5
			h2.5V947.1z"/>
		<path class="st5" d="M558.5,957.3c-0.7,3.3-3,5.1-6.4,5.1c-4.8,0-7-3.3-7.2-7.9c0-4.5,3-7.8,7-7.8c5.3,0,6.9,5,6.8,8.6h-11.2
			c-0.1,2.6,1.4,4.9,4.7,4.9c2.1,0,3.5-1,3.9-2.9H558.5z M556.1,953.1c-0.1-2.3-1.9-4.2-4.3-4.2c-2.6,0-4.1,1.9-4.3,4.2H556.1z"/>
		<path class="st5" d="M567.5,940.9h2.1l-8.6,21.7h-2.1L567.5,940.9z"/>
		<path class="st5" d="M570.9,947.1h2.3v3.2h0.1c1.2-2.4,2.8-3.6,5.5-3.5v2.6c-4,0-5.4,2.2-5.4,6.1v6.7h-2.5V947.1z"/>
		<path class="st5" d="M593.4,957.3c-0.7,3.3-3,5.1-6.4,5.1c-4.8,0-7-3.3-7.2-7.9c0-4.5,3-7.8,7-7.8c5.3,0,6.9,5,6.8,8.6h-11.2
			c-0.1,2.6,1.4,4.9,4.7,4.9c2.1,0,3.5-1,3.9-2.9H593.4z M591,953.1c-0.1-2.3-1.9-4.2-4.3-4.2c-2.6,0-4.1,1.9-4.3,4.2H591z"/>
		<path class="st5" d="M596.3,941.4h2.5v20.7h-2.5V941.4z"/>
		<path class="st5" d="M615.4,957.3c-0.7,3.3-3,5.1-6.4,5.1c-4.8,0-7-3.3-7.2-7.9c0-4.5,3-7.8,7-7.8c5.3,0,6.9,5,6.8,8.6h-11.2
			c-0.1,2.6,1.4,4.9,4.7,4.9c2.1,0,3.5-1,3.9-2.9H615.4z M613,953.1c-0.1-2.3-1.9-4.2-4.3-4.2c-2.6,0-4.1,1.9-4.3,4.2H613z"/>
		<path class="st5" d="M631.5,962c-0.4,0.3-1,0.4-1.8,0.4c-1.3,0-2.1-0.7-2.1-2.3c-1.4,1.6-3.2,2.3-5.3,2.3c-2.7,0-5-1.2-5-4.2
			c0-3.4,2.5-4.1,5.1-4.6c2.7-0.6,5-0.3,5-2.2c0-2.2-1.8-2.5-3.3-2.5c-2.1,0-3.6,0.6-3.7,2.8H618c0.1-3.7,3-5,6.4-5
			c2.7,0,5.6,0.6,5.6,4.1v7.7c0,1.2,0,1.7,0.8,1.7c0.2,0,0.5-0.1,0.8-0.1V962z M627.5,954.3c-1.9,1.4-7.5,0-7.5,3.7
			c0,1.6,1.4,2.2,2.9,2.2c3.2,0,4.6-2,4.6-3.4V954.3z"/>
		<path class="st5" d="M635.3,957.3c0.1,2.2,2,2.9,4,2.9c1.5,0,3.6-0.3,3.6-2.2c0-3.9-9.8-1.2-9.8-7c0-3,3-4.3,5.6-4.3
			c3.4,0,5.9,1,6.1,4.7h-2.5c-0.1-1.9-1.9-2.5-3.5-2.5c-1.5,0-3.2,0.4-3.2,1.9c0,1.7,2.6,2.1,4.9,2.6c2.5,0.6,4.9,1.4,4.9,4.3
			c0,3.6-3.3,4.7-6.4,4.7c-3.4,0-6.2-1.4-6.4-5.1H635.3z"/>
		<path class="st5" d="M661,957.3c-0.7,3.3-3,5.1-6.4,5.1c-4.8,0-7-3.3-7.2-7.9c0-4.5,3-7.8,7-7.8c5.3,0,6.9,5,6.8,8.6h-11.2
			c-0.1,2.6,1.4,4.9,4.7,4.9c2.1,0,3.5-1,3.9-2.9H661z M658.7,953.1c-0.1-2.3-1.9-4.2-4.3-4.2c-2.6,0-4.1,1.9-4.3,4.2H658.7z"/>
		<path class="st5" d="M675.3,947.1h3v2.2h-3v9.3c0,1.2,0.3,1.3,1.9,1.3h1.1v2.2h-1.9c-2.6,0-3.6-0.5-3.6-3.3v-9.5h-2.6v-2.2h2.6
			v-4.5h2.5V947.1z"/>
		<path class="st5" d="M681,941.4h2.5v7.9h0.1c0.8-1.8,3-2.6,4.7-2.6c3.9,0,5.2,2.3,5.2,5.5v9.9H691v-10.2c0-1.9-1.2-3-3-3
			c-3,0-4.4,2-4.4,4.7v8.5H681V941.4z"/>
		<path class="st5" d="M709.9,957.3c-0.7,3.3-3,5.1-6.4,5.1c-4.8,0-7-3.3-7.2-7.9c0-4.5,3-7.8,7-7.8c5.3,0,6.9,5,6.8,8.6h-11.2
			c-0.1,2.6,1.4,4.9,4.7,4.9c2.1,0,3.5-1,3.9-2.9H709.9z M707.6,953.1c-0.1-2.3-1.9-4.2-4.3-4.2c-2.6,0-4.1,1.9-4.3,4.2H707.6z"/>
		<path class="st5" d="M720.9,947.1h2.5v2h0.1c0.8-1.7,2.7-2.4,4.8-2.4c4.6,0,6.9,3.7,6.9,7.9c0,4.3-2.3,7.8-6.8,7.8
			c-1.5,0-3.8-0.6-4.8-2.3h-0.1v7.7h-2.5V947.1z M727.8,948.9c-3.3,0-4.6,2.9-4.6,5.7c0,2.9,1.3,5.7,4.7,5.7c3.4,0,4.5-2.9,4.5-5.8
			C732.5,951.6,731,948.9,727.8,948.9z"/>
		<path class="st5" d="M737.9,947.1h2.3v3.2h0.1c1.2-2.4,2.8-3.6,5.5-3.5v2.6c-4,0-5.4,2.2-5.4,6.1v6.7h-2.5V947.1z"/>
		<path class="st5" d="M754.1,946.7c4.8,0,7.3,3.5,7.3,7.9c0,4.4-2.5,7.8-7.3,7.8c-4.8,0-7.3-3.5-7.3-7.8
			C746.8,950.2,749.3,946.7,754.1,946.7z M754.1,960.2c2.6,0,4.7-2,4.7-5.7c0-3.6-2.1-5.7-4.7-5.7c-2.6,0-4.7,2.1-4.7,5.7
			C749.4,958.2,751.5,960.2,754.1,960.2z"/>
		<path class="st5" d="M764.3,947.1h2.3v2.2h0.1c1.1-1.7,2.7-2.6,4.8-2.6c1.9,0,3.5,0.7,4.1,2.6c1-1.6,2.8-2.6,4.7-2.6
			c3,0,5,1.2,5,4.4v11h-2.5v-9.8c0-1.9-0.5-3.3-2.9-3.3c-2.4,0-3.9,1.5-3.9,3.8v9.3h-2.5v-9.8c0-1.9-0.6-3.3-2.8-3.3
			c-2.9,0-4,2.7-4,3.8v9.3h-2.5V947.1z"/>
		<path class="st5" d="M795.5,946.7c4.8,0,7.3,3.5,7.3,7.9c0,4.4-2.5,7.8-7.3,7.8c-4.8,0-7.3-3.5-7.3-7.8
			C788.2,950.2,790.7,946.7,795.5,946.7z M795.5,960.2c2.6,0,4.7-2,4.7-5.7c0-3.6-2.1-5.7-4.7-5.7c-2.6,0-4.7,2.1-4.7,5.7
			C790.8,958.2,792.9,960.2,795.5,960.2z"/>
		<path class="st5" d="M809.1,947.1h3v2.2h-3v9.3c0,1.2,0.3,1.3,1.9,1.3h1.1v2.2h-1.9c-2.6,0-3.6-0.5-3.6-3.3v-9.5h-2.6v-2.2h2.6
			v-4.5h2.5V947.1z"/>
		<path class="st5" d="M817.4,944.4h-2.5v-3h2.5V944.4z M814.9,947.1h2.5v15h-2.5V947.1z"/>
		<path class="st5" d="M827.7,946.7c4.8,0,7.3,3.5,7.3,7.9c0,4.4-2.5,7.8-7.3,7.8c-4.8,0-7.3-3.5-7.3-7.8
			C820.4,950.2,822.9,946.7,827.7,946.7z M827.7,960.2c2.6,0,4.7-2,4.7-5.7c0-3.6-2.1-5.7-4.7-5.7c-2.6,0-4.7,2.1-4.7,5.7
			C823,958.2,825.1,960.2,827.7,960.2z"/>
		<path class="st5" d="M837.9,947.1h2.3v2.4h0.1c1-1.9,2.7-2.7,4.9-2.7c3.9,0,5.2,2.3,5.2,5.5v9.9h-2.5v-10.2c0-1.9-1.2-3-3-3
			c-3,0-4.4,2-4.4,4.7v8.5h-2.5V947.1z"/>
		<path class="st5" d="M867.3,962c-0.4,0.3-1,0.4-1.8,0.4c-1.3,0-2.1-0.7-2.1-2.3c-1.4,1.6-3.2,2.3-5.3,2.3c-2.7,0-5-1.2-5-4.2
			c0-3.4,2.5-4.1,5.1-4.6c2.7-0.6,5-0.3,5-2.2c0-2.2-1.8-2.5-3.3-2.5c-2.1,0-3.6,0.6-3.7,2.8h-2.5c0.1-3.7,3-5,6.4-5
			c2.7,0,5.6,0.6,5.6,4.1v7.7c0,1.2,0,1.7,0.8,1.7c0.2,0,0.5-0.1,0.8-0.1V962z M863.3,954.3c-1.9,1.4-7.5,0-7.5,3.7
			c0,1.6,1.4,2.2,2.9,2.2c3.2,0,4.6-2,4.6-3.4V954.3z"/>
		<path class="st5" d="M869.7,941.4h2.5v20.7h-2.5V941.4z"/>
		<path class="st5" d="M884.1,947.1h2.3v2.2h0.1c1.1-1.7,2.7-2.6,4.8-2.6c1.9,0,3.5,0.7,4.1,2.6c1-1.6,2.8-2.6,4.7-2.6
			c3,0,5,1.2,5,4.4v11h-2.5v-9.8c0-1.9-0.5-3.3-2.9-3.3c-2.4,0-3.9,1.5-3.9,3.8v9.3h-2.5v-9.8c0-1.9-0.6-3.3-2.8-3.3
			c-2.9,0-4,2.7-4,3.8v9.3h-2.5V947.1z"/>
		<path class="st5" d="M922.1,962c-0.4,0.3-1,0.4-1.8,0.4c-1.3,0-2.1-0.7-2.1-2.3c-1.4,1.6-3.2,2.3-5.3,2.3c-2.7,0-5-1.2-5-4.2
			c0-3.4,2.5-4.1,5.1-4.6c2.7-0.6,5-0.3,5-2.2c0-2.2-1.8-2.5-3.3-2.5c-2.1,0-3.6,0.6-3.7,2.8h-2.5c0.1-3.7,3-5,6.4-5
			c2.7,0,5.6,0.6,5.6,4.1v7.7c0,1.2,0,1.7,0.8,1.7c0.2,0,0.5-0.1,0.8-0.1V962z M918.1,954.3c-1.9,1.4-7.5,0-7.5,3.7
			c0,1.6,1.4,2.2,2.9,2.2c3.2,0,4.6-2,4.6-3.4V954.3z"/>
		<path class="st5" d="M927.8,947.1h3v2.2h-3v9.3c0,1.2,0.3,1.3,1.9,1.3h1.1v2.2h-1.9c-2.6,0-3.6-0.5-3.6-3.3v-9.5h-2.6v-2.2h2.6
			v-4.5h2.5V947.1z"/>
		<path class="st5" d="M946.3,957.3c-0.7,3.3-3,5.1-6.4,5.1c-4.8,0-7-3.3-7.2-7.9c0-4.5,3-7.8,7-7.8c5.3,0,6.9,5,6.8,8.6h-11.2
			c-0.1,2.6,1.4,4.9,4.7,4.9c2.1,0,3.5-1,3.9-2.9H946.3z M943.9,953.1c-0.1-2.3-1.9-4.2-4.3-4.2c-2.6,0-4.1,1.9-4.3,4.2H943.9z"/>
		<path class="st5" d="M949,947.1h2.3v3.2h0.1c1.2-2.4,2.8-3.6,5.5-3.5v2.6c-4,0-5.4,2.2-5.4,6.1v6.7H949V947.1z"/>
		<path class="st5" d="M961.4,944.4h-2.5v-3h2.5V944.4z M958.9,947.1h2.5v15h-2.5V947.1z"/>
		<path class="st5" d="M978.5,962c-0.4,0.3-1,0.4-1.8,0.4c-1.3,0-2.1-0.7-2.1-2.3c-1.4,1.6-3.2,2.3-5.3,2.3c-2.7,0-5-1.2-5-4.2
			c0-3.4,2.5-4.1,5.1-4.6c2.7-0.6,5-0.3,5-2.2c0-2.2-1.8-2.5-3.3-2.5c-2.1,0-3.6,0.6-3.7,2.8H965c0.1-3.7,3-5,6.4-5
			c2.7,0,5.6,0.6,5.6,4.1v7.7c0,1.2,0,1.7,0.8,1.7c0.2,0,0.5-0.1,0.8-0.1V962z M974.5,954.3c-1.9,1.4-7.5,0-7.5,3.7
			c0,1.6,1.4,2.2,2.9,2.2c3.2,0,4.6-2,4.6-3.4V954.3z"/>
		<path class="st5" d="M980.9,941.4h2.5v20.7h-2.5V941.4z"/>
	</g>
</g>
<g>
	<g>
		<path class="st5" d="M312.6,633.5h7.1c6.4,0,9.9,3.2,9.9,9.9c0,6.9-3,10.8-9.9,10.8h-7.1V633.5z M315.4,651.9h4.6
			c1.9,0,7-0.5,7-8.2c0-4.9-1.8-7.9-6.9-7.9h-4.6V651.9z"/>
		<path class="st5" d="M339.1,638.9c4.8,0,7.3,3.5,7.3,7.9c0,4.4-2.5,7.8-7.3,7.8c-4.8,0-7.3-3.5-7.3-7.8
			C331.8,642.3,334.3,638.9,339.1,638.9z M339.1,652.4c2.6,0,4.7-2,4.7-5.7c0-3.6-2.1-5.7-4.7-5.7c-2.6,0-4.7,2.1-4.7,5.7
			C334.4,650.4,336.5,652.4,339.1,652.4z"/>
		<path class="st5" d="M362.1,649.5c-0.7,3.3-3,5.1-6.4,5.1c-4.8,0-7-3.3-7.2-7.9c0-4.5,3-7.8,7-7.8c5.3,0,6.9,5,6.8,8.6h-11.2
			c-0.1,2.6,1.4,4.9,4.7,4.9c2.1,0,3.5-1,3.9-2.9H362.1z M359.7,645.3c-0.1-2.3-1.9-4.2-4.3-4.2c-2.6,0-4.1,1.9-4.3,4.2H359.7z"/>
		<path class="st5" d="M366.3,649.5c0.1,2.2,2,2.9,4,2.9c1.5,0,3.6-0.3,3.6-2.2c0-3.9-9.8-1.2-9.8-7c0-3,3-4.3,5.6-4.3
			c3.4,0,5.9,1,6.1,4.7h-2.5c-0.1-1.9-1.9-2.5-3.5-2.5c-1.5,0-3.2,0.4-3.2,1.9c0,1.7,2.6,2.1,4.9,2.6c2.5,0.6,4.9,1.4,4.9,4.3
			c0,3.6-3.3,4.7-6.4,4.7c-3.4,0-6.2-1.4-6.4-5.1H366.3z"/>
		<path class="st5" d="M390.8,639.2h3v2.2h-3v9.3c0,1.2,0.3,1.3,1.9,1.3h1.1v2.2h-1.9c-2.6,0-3.6-0.5-3.6-3.3v-9.5h-2.6v-2.2h2.6
			v-4.5h2.5V639.2z"/>
		<path class="st5" d="M396.5,633.5h2.5v7.9h0.1c0.8-1.8,3-2.6,4.7-2.6c3.9,0,5.2,2.3,5.2,5.5v9.9h-2.5v-10.2c0-1.9-1.2-3-3-3
			c-3,0-4.4,2-4.4,4.7v8.5h-2.5V633.5z"/>
		<path class="st5" d="M425.4,649.5c-0.7,3.3-3,5.1-6.4,5.1c-4.8,0-7-3.3-7.2-7.9c0-4.5,3-7.8,7-7.8c5.3,0,6.9,5,6.8,8.6h-11.2
			c-0.1,2.6,1.4,4.9,4.7,4.9c2.1,0,3.5-1,3.9-2.9H425.4z M423.1,645.3c-0.1-2.3-1.9-4.2-4.3-4.2c-2.6,0-4.1,1.9-4.3,4.2H423.1z"/>
		<path class="st5" d="M436.3,639.2h2.3v2.2h0.1c1.1-1.7,2.7-2.6,4.8-2.6c1.9,0,3.5,0.7,4.1,2.6c1-1.6,2.8-2.6,4.7-2.6
			c3,0,5,1.2,5,4.4v11h-2.5v-9.8c0-1.9-0.5-3.3-2.9-3.3c-2.4,0-3.9,1.5-3.9,3.8v9.3h-2.5v-9.8c0-1.9-0.6-3.3-2.8-3.3
			c-2.9,0-4,2.7-4,3.8v9.3h-2.5V639.2z"/>
		<path class="st5" d="M474.3,654.2c-0.4,0.3-1,0.4-1.8,0.4c-1.3,0-2.1-0.7-2.1-2.3c-1.4,1.6-3.2,2.3-5.3,2.3c-2.7,0-5-1.2-5-4.2
			c0-3.4,2.5-4.1,5.1-4.6c2.7-0.6,5-0.3,5-2.2c0-2.2-1.8-2.5-3.3-2.5c-2.1,0-3.6,0.6-3.7,2.8h-2.5c0.1-3.7,3-5,6.4-5
			c2.7,0,5.6,0.6,5.6,4.1v7.7c0,1.2,0,1.7,0.8,1.7c0.2,0,0.5-0.1,0.8-0.1V654.2z M470.3,646.5c-1.9,1.4-7.5,0-7.5,3.7
			c0,1.6,1.4,2.2,2.9,2.2c3.2,0,4.6-2,4.6-3.4V646.5z"/>
		<path class="st5" d="M480,639.2h3v2.2h-3v9.3c0,1.2,0.3,1.3,1.9,1.3h1.1v2.2h-1.9c-2.6,0-3.6-0.5-3.6-3.3v-9.5H475v-2.2h2.6v-4.5
			h2.5V639.2z"/>
		<path class="st5" d="M498.5,649.5c-0.7,3.3-3,5.1-6.4,5.1c-4.8,0-7-3.3-7.2-7.9c0-4.5,3-7.8,7-7.8c5.3,0,6.9,5,6.8,8.6h-11.2
			c-0.1,2.6,1.4,4.9,4.7,4.9c2.1,0,3.5-1,3.9-2.9H498.5z M496.1,645.3c-0.1-2.3-1.9-4.2-4.3-4.2c-2.6,0-4.1,1.9-4.3,4.2H496.1z"/>
		<path class="st5" d="M501.2,639.2h2.3v3.2h0.1c1.2-2.4,2.8-3.6,5.5-3.5v2.6c-4,0-5.4,2.2-5.4,6.1v6.7h-2.5V639.2z"/>
		<path class="st5" d="M513.6,636.5h-2.5v-3h2.5V636.5z M511.1,639.2h2.5v15h-2.5V639.2z"/>
		<path class="st5" d="M530.7,654.2c-0.4,0.3-1,0.4-1.8,0.4c-1.3,0-2.1-0.7-2.1-2.3c-1.4,1.6-3.2,2.3-5.3,2.3c-2.7,0-5-1.2-5-4.2
			c0-3.4,2.5-4.1,5.1-4.6c2.7-0.6,5-0.3,5-2.2c0-2.2-1.8-2.5-3.3-2.5c-2.1,0-3.6,0.6-3.7,2.8h-2.5c0.1-3.7,3-5,6.4-5
			c2.7,0,5.6,0.6,5.6,4.1v7.7c0,1.2,0,1.7,0.8,1.7c0.2,0,0.5-0.1,0.8-0.1V654.2z M526.7,646.5c-1.9,1.4-7.5,0-7.5,3.7
			c0,1.6,1.4,2.2,2.9,2.2c3.2,0,4.6-2,4.6-3.4V646.5z"/>
		<path class="st5" d="M533.1,633.5h2.5v20.7h-2.5V633.5z"/>
		<path class="st5" d="M350.8,671.3h-2.5v-3h2.5V671.3z M348.3,674h2.5v15h-2.5V674z"/>
		<path class="st5" d="M354.6,674h2.3v2.4h0.1c1-1.9,2.7-2.7,4.9-2.7c3.9,0,5.2,2.3,5.2,5.5v9.9h-2.5v-10.2c0-1.9-1.2-3-3-3
			c-3,0-4.4,2-4.4,4.7v8.5h-2.5V674z"/>
		<path class="st5" d="M380.9,678.8c-0.4-1.9-1.7-3-3.7-3c-3.6,0-4.7,2.8-4.7,5.9c0,2.8,1.2,5.5,4.4,5.5c2.4,0,3.8-1.4,4.1-3.7h2.5
			c-0.6,3.7-2.8,5.8-6.6,5.8c-4.6,0-7-3.2-7-7.7s2.3-8,7.1-8c3.4,0,6.1,1.6,6.5,5.2H380.9z"/>
		<path class="st5" d="M386.5,668.3h2.5V689h-2.5V668.3z"/>
		<path class="st5" d="M405.2,689h-2.3v-2.4h-0.1c-1,1.9-2.7,2.7-4.9,2.7c-3.9,0-5.2-2.3-5.2-5.5V674h2.5v10.2c0,1.9,1.2,3,3,3
			c3,0,4.4-2,4.4-4.7V674h2.5V689z"/>
		<path class="st5" d="M422.3,689h-2.5v-2h-0.1c-0.8,1.7-2.7,2.4-4.8,2.4c-4.6,0-6.9-3.7-6.9-7.9c0-4.2,2.3-7.8,6.8-7.8
			c1.5,0,3.8,0.6,4.8,2.3h0.1v-7.7h2.5V689z M415.3,687.2c3.3,0,4.6-2.9,4.6-5.7c0-2.9-1.3-5.7-4.7-5.7c-3.4,0-4.5,2.9-4.5,5.8
			C410.7,684.5,412.1,687.2,415.3,687.2z"/>
		<path class="st5" d="M438.9,684.3c-0.7,3.3-3,5.1-6.4,5.1c-4.8,0-7-3.3-7.2-7.9c0-4.5,3-7.8,7-7.8c5.3,0,6.9,5,6.8,8.6h-11.2
			c-0.1,2.6,1.4,4.9,4.7,4.9c2.1,0,3.5-1,3.9-2.9H438.9z M436.5,680.1c-0.1-2.3-1.9-4.2-4.3-4.2c-2.6,0-4.1,1.9-4.3,4.2H436.5z"/>
		<path class="st5" d="M449.7,674h2.3v2.4h0.1c1-1.9,2.7-2.7,4.9-2.7c3.9,0,5.2,2.3,5.2,5.5v9.9h-2.5v-10.2c0-1.9-1.2-3-3-3
			c-3,0-4.4,2-4.4,4.7v8.5h-2.5V674z"/>
		<path class="st5" d="M478.6,684.3c-0.7,3.3-3,5.1-6.4,5.1c-4.8,0-7-3.3-7.2-7.9c0-4.5,3-7.8,7-7.8c5.3,0,6.9,5,6.8,8.6h-11.2
			c-0.1,2.6,1.4,4.9,4.7,4.9c2.1,0,3.5-1,3.9-2.9H478.6z M476.3,680.1c-0.1-2.3-1.9-4.2-4.3-4.2c-2.6,0-4.1,1.9-4.3,4.2H476.3z"/>
		<path class="st5" d="M496.3,689h-2.6l-3-11.9h-0.1l-3,11.9h-2.7l-4.8-15h2.7l3.4,12.3h0.1l3-12.3h2.7l3.1,12.3h0.1l3.4-12.3h2.6
			L496.3,689z"/>
		<path class="st5" d="M386.3,713.6c-0.4-1.9-1.7-3-3.7-3c-3.6,0-4.7,2.8-4.7,5.9c0,2.8,1.2,5.5,4.4,5.5c2.4,0,3.8-1.4,4.1-3.7h2.5
			c-0.6,3.7-2.8,5.8-6.6,5.8c-4.6,0-7-3.2-7-7.7s2.3-8,7.1-8c3.4,0,6.1,1.6,6.5,5.2H386.3z"/>
		<path class="st5" d="M391.8,703.1h2.5v20.7h-2.5V703.1z"/>
		<path class="st5" d="M411.4,723.8c-0.4,0.3-1,0.4-1.8,0.4c-1.3,0-2.1-0.7-2.1-2.3c-1.4,1.6-3.2,2.3-5.3,2.3c-2.7,0-5-1.2-5-4.2
			c0-3.4,2.5-4.1,5.1-4.6c2.7-0.6,5-0.3,5-2.2c0-2.2-1.8-2.5-3.3-2.5c-2.1,0-3.6,0.6-3.7,2.8h-2.5c0.1-3.7,3-5,6.4-5
			c2.7,0,5.6,0.6,5.6,4.1v7.7c0,1.2,0,1.7,0.8,1.7c0.2,0,0.5-0.1,0.8-0.1V723.8z M407.4,716.1c-1.9,1.4-7.5,0-7.5,3.7
			c0,1.6,1.4,2.2,2.9,2.2c3.2,0,4.6-2,4.6-3.4V716.1z"/>
		<path class="st5" d="M416.3,706.1h-2.5v-3h2.5V706.1z M413.8,708.8h2.5v15h-2.5V708.8z"/>
		<path class="st5" d="M420.1,708.8h2.3v2.2h0.1c1.1-1.7,2.7-2.6,4.8-2.6c1.9,0,3.5,0.7,4.1,2.6c1-1.6,2.8-2.6,4.7-2.6
			c3,0,5,1.2,5,4.4v11h-2.5V714c0-1.9-0.5-3.3-2.9-3.3c-2.4,0-3.9,1.5-3.9,3.8v9.3h-2.5V714c0-1.9-0.6-3.3-2.8-3.3
			c-2.9,0-4,2.7-4,3.8v9.3h-2.5V708.8z"/>
		<path class="st5" d="M446.4,719.1c0.1,2.2,2,2.9,4,2.9c1.5,0,3.6-0.3,3.6-2.2c0-3.9-9.8-1.2-9.8-7c0-3,3-4.3,5.6-4.3
			c3.4,0,5.9,1,6.1,4.7h-2.5c-0.1-1.9-1.9-2.5-3.5-2.5c-1.5,0-3.2,0.4-3.2,1.9c0,1.7,2.6,2.1,4.9,2.6c2.5,0.6,4.9,1.4,4.9,4.3
			c0,3.6-3.3,4.7-6.4,4.7c-3.4,0-6.2-1.4-6.4-5.1H446.4z"/>
		<path class="st5" d="M459.1,709.6c-0.1-4,2.5-7,6.5-7c3.6,0,6.1,2.1,6.1,5.8c0,2.4-1.2,3.7-2.5,4.9c-1.2,1.2-2.5,2.3-2.5,4.3v1.1
			h-2.5v-1.4c0.2-4.8,5.1-5,4.9-9.2c-0.1-2.1-1.4-3.4-3.5-3.4c-2.8,0-4,2.1-4,4.8H459.1z M463.8,720.6h3.2v3.2h-3.2V720.6z"/>
	</g>
</g>
<g>
	<rect x="300.5" y="155.2" class="st4" width="245" height="129.2"/>
	<path class="st5" d="M382.7,155.2h2.8v20.7h-2.8V155.2z"/>
	<path class="st5" d="M391.2,171.2c0.1,2.2,2,2.9,4,2.9c1.5,0,3.6-0.3,3.6-2.2c0-3.9-9.8-1.2-9.8-7c0-3,3-4.3,5.6-4.3
		c3.4,0,5.9,1,6.1,4.7h-2.5c-0.1-1.9-1.9-2.5-3.5-2.5c-1.5,0-3.2,0.4-3.2,1.9c0,1.7,2.6,2.1,4.9,2.6c2.5,0.6,4.9,1.4,4.9,4.3
		c0,3.6-3.3,4.7-6.4,4.7c-3.4,0-6.2-1.4-6.4-5.1H391.2z"/>
	<path class="st5" d="M414.8,158.2h-2.5v-3h2.5V158.2z M412.4,160.9h2.5v15h-2.5V160.9z"/>
	<path class="st5" d="M422.1,160.9h3v2.2h-3v9.3c0,1.2,0.3,1.3,1.9,1.3h1.1v2.2h-1.9c-2.6,0-3.6-0.5-3.6-3.3v-9.5h-2.6v-2.2h2.6
		v-4.5h2.5V160.9z"/>
	<path class="st5" d="M449.1,175.9c-0.4,0.3-1,0.4-1.8,0.4c-1.3,0-2.1-0.7-2.1-2.3c-1.4,1.6-3.2,2.3-5.3,2.3c-2.7,0-5-1.2-5-4.2
		c0-3.4,2.5-4.1,5.1-4.6c2.7-0.6,5-0.3,5-2.2c0-2.2-1.8-2.5-3.3-2.5c-2.1,0-3.6,0.6-3.7,2.8h-2.5c0.1-3.7,3-5,6.4-5
		c2.7,0,5.6,0.6,5.6,4.1v7.7c0,1.2,0,1.7,0.8,1.7c0.2,0,0.5-0.1,0.8-0.1V175.9z M445.1,168.2c-1.9,1.4-7.5,0-7.5,3.7
		c0,1.6,1.4,2.2,2.9,2.2c3.2,0,4.6-2,4.6-3.4V168.2z"/>
	<path class="st5" d="M451.4,160.9h2.3v2.4h0.1c1-1.9,2.7-2.7,4.9-2.7c3.9,0,5.2,2.3,5.2,5.5v9.9h-2.5v-10.2c0-1.9-1.2-3-3-3
		c-3,0-4.4,2-4.4,4.7v8.5h-2.5V160.9z"/>
	<path class="st5" d="M325.9,206c-0.7,3.3-3,5.1-6.4,5.1c-4.8,0-7-3.3-7.2-7.9c0-4.5,3-7.8,7-7.8c5.3,0,6.9,5,6.8,8.6h-11.2
		c-0.1,2.6,1.4,4.9,4.7,4.9c2.1,0,3.5-1,3.9-2.9H325.9z M323.6,201.8c-0.1-2.3-1.9-4.2-4.3-4.2c-2.6,0-4.1,1.9-4.3,4.2H323.6z"/>
	<path class="st5" d="M330.2,206c0.1,2.2,2,2.9,4,2.9c1.5,0,3.6-0.3,3.6-2.2c0-3.9-9.8-1.2-9.8-7c0-3,3-4.3,5.6-4.3
		c3.4,0,5.9,1,6.1,4.7h-2.5c-0.1-1.9-1.9-2.5-3.5-2.5c-1.5,0-3.2,0.4-3.2,1.9c0,1.7,2.6,2.1,4.9,2.6c2.5,0.6,4.9,1.4,4.9,4.3
		c0,3.6-3.3,4.7-6.4,4.7c-3.4,0-6.2-1.4-6.4-5.1H330.2z"/>
	<path class="st5" d="M346.6,195.7h3v2.2h-3v9.3c0,1.2,0.3,1.3,1.9,1.3h1.1v2.2h-1.9c-2.6,0-3.6-0.5-3.6-3.3v-9.5h-2.6v-2.2h2.6
		v-4.5h2.5V195.7z"/>
	<path class="st5" d="M365.6,210.7c-0.4,0.3-1,0.4-1.8,0.4c-1.3,0-2.1-0.7-2.1-2.3c-1.4,1.6-3.2,2.3-5.3,2.3c-2.7,0-5-1.2-5-4.2
		c0-3.4,2.5-4.1,5.1-4.6c2.7-0.6,5-0.3,5-2.2c0-2.2-1.8-2.5-3.3-2.5c-2.1,0-3.6,0.6-3.7,2.8h-2.5c0.1-3.7,3-5,6.4-5
		c2.7,0,5.6,0.6,5.6,4.1v7.7c0,1.2,0,1.7,0.8,1.7c0.2,0,0.5-0.1,0.8-0.1V210.7z M361.6,203c-1.9,1.4-7.5,0-7.5,3.7
		c0,1.6,1.4,2.2,2.9,2.2c3.2,0,4.6-2,4.6-3.4V203z"/>
	<path class="st5" d="M368,190h2.5v7.7h0.1c0.8-1.7,2.7-2.4,4.8-2.4c4.6,0,6.9,3.7,6.9,7.9c0,4.3-2.3,7.8-6.8,7.8
		c-1.5,0-3.8-0.6-4.8-2.3h-0.1v2H368V190z M375,197.6c-3.3,0-4.6,2.9-4.6,5.7c0,2.9,1.3,5.7,4.7,5.7c3.4,0,4.5-2.9,4.5-5.8
		C379.6,200.3,378.2,197.6,375,197.6z"/>
	<path class="st5" d="M385.3,190h2.5v20.7h-2.5V190z"/>
	<path class="st5" d="M394.2,193h-2.5v-3h2.5V193z M391.7,195.7h2.5v15h-2.5V195.7z"/>
	<path class="st5" d="M399.5,206c0.1,2.2,2,2.9,4,2.9c1.5,0,3.6-0.3,3.6-2.2c0-3.9-9.8-1.2-9.8-7c0-3,3-4.3,5.6-4.3
		c3.4,0,5.9,1,6.1,4.7h-2.5c-0.1-1.9-1.9-2.5-3.5-2.5c-1.5,0-3.2,0.4-3.2,1.9c0,1.7,2.6,2.1,4.9,2.6c2.5,0.6,4.9,1.4,4.9,4.3
		c0,3.6-3.3,4.7-6.4,4.7c-3.4,0-6.2-1.4-6.4-5.1H399.5z"/>
	<path class="st5" d="M412.5,190h2.5v7.9h0.1c0.8-1.8,3-2.6,4.7-2.6c3.9,0,5.2,2.3,5.2,5.5v9.9h-2.5v-10.2c0-1.9-1.2-3-3-3
		c-3,0-4.4,2-4.4,4.7v8.5h-2.5V190z"/>
	<path class="st5" d="M441.4,206c-0.7,3.3-3,5.1-6.4,5.1c-4.8,0-7-3.3-7.2-7.9c0-4.5,3-7.8,7-7.8c5.3,0,6.9,5,6.8,8.6h-11.2
		c-0.1,2.6,1.4,4.9,4.7,4.9c2.1,0,3.5-1,3.9-2.9H441.4z M439,201.8c-0.1-2.3-1.9-4.2-4.3-4.2c-2.6,0-4.1,1.9-4.3,4.2H439z"/>
	<path class="st5" d="M457.6,210.7h-2.5v-2h-0.1c-0.8,1.7-2.7,2.4-4.8,2.4c-4.6,0-6.9-3.7-6.9-7.9c0-4.2,2.3-7.8,6.8-7.8
		c1.5,0,3.8,0.6,4.8,2.3h0.1V190h2.5V210.7z M450.6,208.9c3.3,0,4.6-2.9,4.6-5.7c0-2.9-1.3-5.7-4.7-5.7c-3.4,0-4.5,2.9-4.5,5.8
		C446,206.2,447.4,208.9,450.6,208.9z"/>
	<path class="st5" d="M475.9,195.4c4.8,0,7.3,3.5,7.3,7.9c0,4.4-2.5,7.8-7.3,7.8c-4.8,0-7.3-3.5-7.3-7.8
		C468.6,198.8,471.2,195.4,475.9,195.4z M475.9,208.9c2.6,0,4.7-2,4.7-5.7s-2.1-5.7-4.7-5.7c-2.6,0-4.7,2.1-4.7,5.7
		S473.3,208.9,475.9,208.9z"/>
	<path class="st5" d="M486,195.7h2.3v3.2h0.1c1.2-2.4,2.8-3.6,5.5-3.5v2.6c-4,0-5.4,2.2-5.4,6.1v6.7H486V195.7z"/>
	<path class="st5" d="M517.1,210.7c-0.4,0.3-1,0.4-1.8,0.4c-1.3,0-2.1-0.7-2.1-2.3c-1.4,1.6-3.2,2.3-5.3,2.3c-2.7,0-5-1.2-5-4.2
		c0-3.4,2.5-4.1,5.1-4.6c2.7-0.6,5-0.3,5-2.2c0-2.2-1.8-2.5-3.3-2.5c-2.1,0-3.6,0.6-3.7,2.8h-2.5c0.1-3.7,3-5,6.4-5
		c2.7,0,5.6,0.6,5.6,4.1v7.7c0,1.2,0,1.7,0.8,1.7c0.2,0,0.5-0.1,0.8-0.1V210.7z M513.1,203c-1.9,1.4-7.5,0-7.5,3.7
		c0,1.6,1.4,2.2,2.9,2.2c3.2,0,4.6-2,4.6-3.4V203z"/>
	<path class="st5" d="M532.8,210.7h-2.5v-2h-0.1c-0.8,1.7-2.7,2.4-4.8,2.4c-4.6,0-6.9-3.7-6.9-7.9c0-4.2,2.3-7.8,6.8-7.8
		c1.5,0,3.8,0.6,4.8,2.3h0.1V190h2.5V210.7z M525.8,208.9c3.3,0,4.6-2.9,4.6-5.7c0-2.9-1.3-5.7-4.7-5.7c-3.4,0-4.5,2.9-4.5,5.8
		C521.2,206.2,522.6,208.9,525.8,208.9z"/>
	<path class="st5" d="M319,224.8h2.5v7.9h0.1c0.8-1.8,3-2.6,4.7-2.6c3.9,0,5.2,2.3,5.2,5.5v9.9H329v-10.2c0-1.9-1.2-3-3-3
		c-3,0-4.4,2-4.4,4.7v8.5H319V224.8z"/>
	<path class="st5" d="M341.6,230.2c4.8,0,7.3,3.5,7.3,7.9c0,4.4-2.5,7.8-7.3,7.8c-4.8,0-7.3-3.5-7.3-7.8
		C334.4,233.6,336.9,230.2,341.6,230.2z M341.6,243.7c2.6,0,4.7-2,4.7-5.7s-2.1-5.7-4.7-5.7c-2.6,0-4.7,2.1-4.7,5.7
		S339,243.7,341.6,243.7z"/>
	<path class="st5" d="M362,235.4c-0.4-1.9-1.7-3-3.7-3c-3.6,0-4.7,2.8-4.7,5.9c0,2.8,1.2,5.5,4.4,5.5c2.4,0,3.8-1.4,4.1-3.7h2.5
		c-0.6,3.7-2.8,5.8-6.6,5.8c-4.6,0-7-3.2-7-7.7s2.3-8,7.1-8c3.4,0,6.1,1.6,6.5,5.2H362z"/>
	<path class="st5" d="M375.5,230.5h2.5v2h0.1c0.8-1.7,2.7-2.4,4.8-2.4c4.6,0,6.9,3.7,6.9,7.9c0,4.3-2.3,7.8-6.8,7.8
		c-1.5,0-3.8-0.6-4.8-2.3H378v7.7h-2.5V230.5z M382.5,232.4c-3.3,0-4.6,2.9-4.6,5.7c0,2.9,1.3,5.7,4.7,5.7c3.4,0,4.5-2.9,4.5-5.8
		C387.1,235.1,385.7,232.4,382.5,232.4z"/>
	<path class="st5" d="M392.6,230.5h2.3v3.2h0.1c1.2-2.4,2.8-3.6,5.5-3.5v2.6c-4,0-5.4,2.2-5.4,6.1v6.7h-2.5V230.5z"/>
	<path class="st5" d="M408.8,230.2c4.8,0,7.3,3.5,7.3,7.9c0,4.4-2.5,7.8-7.3,7.8c-4.8,0-7.3-3.5-7.3-7.8
		C401.5,233.6,404,230.2,408.8,230.2z M408.8,243.7c2.6,0,4.7-2,4.7-5.7s-2.1-5.7-4.7-5.7c-2.6,0-4.7,2.1-4.7,5.7
		S406.2,243.7,408.8,243.7z"/>
	<path class="st5" d="M418.9,230.5h2.3v2.2h0.1c1.1-1.7,2.7-2.6,4.8-2.6c1.9,0,3.5,0.7,4.1,2.6c1-1.6,2.8-2.6,4.7-2.6
		c3,0,5,1.2,5,4.4v11h-2.5v-9.8c0-1.9-0.5-3.3-2.9-3.3c-2.4,0-3.9,1.5-3.9,3.8v9.3h-2.5v-9.8c0-1.9-0.6-3.3-2.8-3.3
		c-2.9,0-4,2.7-4,3.8v9.3h-2.5V230.5z"/>
	<path class="st5" d="M450.1,230.2c4.8,0,7.3,3.5,7.3,7.9c0,4.4-2.5,7.8-7.3,7.8c-4.8,0-7.3-3.5-7.3-7.8
		C442.9,233.6,445.4,230.2,450.1,230.2z M450.1,243.7c2.6,0,4.7-2,4.7-5.7s-2.1-5.7-4.7-5.7c-2.6,0-4.7,2.1-4.7,5.7
		S447.6,243.7,450.1,243.7z"/>
	<path class="st5" d="M463.7,230.5h3v2.2h-3v9.3c0,1.2,0.3,1.3,1.9,1.3h1.1v2.2h-1.9c-2.6,0-3.6-0.5-3.6-3.3v-9.5h-2.6v-2.2h2.6V226
		h2.5V230.5z"/>
	<path class="st5" d="M472.1,227.8h-2.5v-3h2.5V227.8z M469.6,230.5h2.5v15h-2.5V230.5z"/>
	<path class="st5" d="M482.4,230.2c4.8,0,7.3,3.5,7.3,7.9c0,4.4-2.5,7.8-7.3,7.8c-4.8,0-7.3-3.5-7.3-7.8
		C475.1,233.6,477.6,230.2,482.4,230.2z M482.4,243.7c2.6,0,4.7-2,4.7-5.7s-2.1-5.7-4.7-5.7c-2.6,0-4.7,2.1-4.7,5.7
		S479.8,243.7,482.4,243.7z"/>
	<path class="st5" d="M492.5,230.5h2.3v2.4h0.1c1-1.9,2.7-2.7,4.9-2.7c3.9,0,5.2,2.3,5.2,5.5v9.9h-2.5v-10.2c0-1.9-1.2-3-3-3
		c-3,0-4.4,2-4.4,4.7v8.5h-2.5V230.5z"/>
	<path class="st5" d="M522,245.5c-0.4,0.3-1,0.4-1.8,0.4c-1.3,0-2.1-0.7-2.1-2.3c-1.4,1.6-3.2,2.3-5.3,2.3c-2.7,0-5-1.2-5-4.2
		c0-3.4,2.5-4.1,5.1-4.6c2.7-0.6,5-0.3,5-2.2c0-2.2-1.8-2.5-3.3-2.5c-2.1,0-3.6,0.6-3.7,2.8h-2.5c0.1-3.7,3-5,6.4-5
		c2.7,0,5.6,0.6,5.6,4.1v7.7c0,1.2,0,1.7,0.8,1.7c0.2,0,0.5-0.1,0.8-0.1V245.5z M517.9,237.8c-1.9,1.4-7.5,0-7.5,3.7
		c0,1.6,1.4,2.2,2.9,2.2c3.2,0,4.6-2,4.6-3.4V237.8z"/>
	<path class="st5" d="M524.4,224.8h2.5v20.7h-2.5V224.8z"/>
	<path class="st5" d="M365.2,265.3h2.3v2.2h0.1c1.1-1.7,2.7-2.6,4.8-2.6c1.9,0,3.5,0.7,4.1,2.6c1-1.6,2.8-2.6,4.7-2.6
		c3,0,5,1.2,5,4.4v11h-2.5v-9.8c0-1.9-0.5-3.3-2.9-3.3c-2.4,0-3.9,1.5-3.9,3.8v9.3h-2.5v-9.8c0-1.9-0.6-3.3-2.8-3.3
		c-2.9,0-4,2.7-4,3.8v9.3h-2.5V265.3z"/>
	<path class="st5" d="M403.3,280.3c-0.4,0.3-1,0.4-1.8,0.4c-1.3,0-2.1-0.7-2.1-2.3c-1.4,1.6-3.2,2.3-5.3,2.3c-2.7,0-5-1.2-5-4.2
		c0-3.4,2.5-4.1,5.1-4.6c2.7-0.6,5-0.3,5-2.2c0-2.2-1.8-2.5-3.3-2.5c-2.1,0-3.6,0.6-3.7,2.8h-2.5c0.1-3.7,3-5,6.4-5
		c2.7,0,5.6,0.6,5.6,4.1v7.7c0,1.2,0,1.7,0.8,1.7c0.2,0,0.5-0.1,0.8-0.1V280.3z M399.3,272.6c-1.9,1.4-7.5,0-7.5,3.7
		c0,1.6,1.4,2.2,2.9,2.2c3.2,0,4.6-2,4.6-3.4V272.6z"/>
	<path class="st5" d="M409,265.3h3v2.2h-3v9.3c0,1.2,0.3,1.3,1.9,1.3h1.1v2.2h-1.9c-2.6,0-3.6-0.5-3.6-3.3v-9.5h-2.6v-2.2h2.6v-4.5
		h2.5V265.3z"/>
	<path class="st5" d="M427.5,275.6c-0.7,3.3-3,5.1-6.4,5.1c-4.8,0-7-3.3-7.2-7.9c0-4.5,3-7.8,7-7.8c5.3,0,6.9,5,6.8,8.6h-11.2
		c-0.1,2.6,1.4,4.9,4.7,4.9c2.1,0,3.5-1,3.9-2.9H427.5z M425.1,271.4c-0.1-2.3-1.9-4.2-4.3-4.2c-2.6,0-4.1,1.9-4.3,4.2H425.1z"/>
	<path class="st5" d="M430.2,265.3h2.3v3.2h0.1c1.2-2.4,2.8-3.6,5.5-3.5v2.6c-4,0-5.4,2.2-5.4,6.1v6.7h-2.5V265.3z"/>
	<path class="st5" d="M442.5,262.6h-2.5v-3h2.5V262.6z M440.1,265.3h2.5v15h-2.5V265.3z"/>
	<path class="st5" d="M459.6,280.3c-0.4,0.3-1,0.4-1.8,0.4c-1.3,0-2.1-0.7-2.1-2.3c-1.4,1.6-3.2,2.3-5.3,2.3c-2.7,0-5-1.2-5-4.2
		c0-3.4,2.5-4.1,5.1-4.6c2.7-0.6,5-0.3,5-2.2c0-2.2-1.8-2.5-3.3-2.5c-2.1,0-3.6,0.6-3.7,2.8h-2.5c0.1-3.7,3-5,6.4-5
		c2.7,0,5.6,0.6,5.6,4.1v7.7c0,1.2,0,1.7,0.8,1.7c0.2,0,0.5-0.1,0.8-0.1V280.3z M455.6,272.6c-1.9,1.4-7.5,0-7.5,3.7
		c0,1.6,1.4,2.2,2.9,2.2c3.2,0,4.6-2,4.6-3.4V272.6z"/>
	<path class="st5" d="M462.1,259.6h2.5v20.7h-2.5V259.6z"/>
	<path class="st5" d="M468.1,266.1c-0.1-4,2.5-7,6.5-7c3.6,0,6.1,2.1,6.1,5.8c0,2.4-1.2,3.7-2.5,4.9c-1.2,1.2-2.5,2.3-2.5,4.3v1.1
		h-2.5v-1.4c0.2-4.8,5.1-5,4.9-9.2c-0.1-2.1-1.4-3.4-3.5-3.4c-2.8,0-4,2.1-4,4.8H468.1z M472.8,277.1h3.2v3.2h-3.2V277.1z"/>
</g>
<g>
	<g>
		<g>
			<line class="st7" x1="423" y1="79.6" x2="423" y2="108.6"/>
			<g>
				<line class="st8" x1="423" y1="79.6" x2="423" y2="105.1"/>
				<g>
					<polygon class="st9" points="417.9,99.1 423,104.2 428.1,99.1 428.1,103.5 423,108.6 417.9,103.5 					"/>
				</g>
			</g>
		</g>
	</g>
</g>
<g>
	<g>
		<g>
			<line class="st7" x1="423" y1="328.4" x2="423" y2="427.6"/>
			<g>
				<line class="st8" x1="423" y1="328.4" x2="423" y2="424.1"/>
				<g>
					<polygon class="st9" points="417.9,418.2 423,423.2 428.1,418.2 428.1,422.5 423,427.6 417.9,422.5 					"/>
				</g>
			</g>
		</g>
	</g>
</g>
<g>
	<g>
		<g>
			<line class="st7" x1="423" y1="523.4" x2="423" y2="563.2"/>
			<g>
				<line class="st8" x1="423" y1="523.4" x2="423" y2="559.8"/>
				<g>
					<polygon class="st9" points="417.9,553.8 423,558.9 428.1,553.8 428.1,558.1 423,563.2 417.9,558.1 					"/>
				</g>
			</g>
		</g>
	</g>
</g>
<g>
	<rect x="324.2" y="348.4" class="st11" width="197.5" height="51"/>
	<g>
		<rect x="330.1" y="364.1" class="st4" width="185.7" height="27.8"/>
		<path class="st12" d="M350,364.1h14.3v2.3h-11.5v6.6h10.8v2.3h-10.8v7.2h11.6v2.3H350V364.1z"/>
		<path class="st12" d="M368.8,380c0.1,2.2,2,2.9,4,2.9c1.5,0,3.6-0.3,3.6-2.2c0-3.9-9.8-1.2-9.8-7c0-3,3-4.3,5.6-4.3
			c3.4,0,5.9,1,6.1,4.7h-2.5c-0.1-1.9-1.9-2.5-3.5-2.5c-1.5,0-3.2,0.4-3.2,1.9c0,1.7,2.6,2.1,4.9,2.6c2.5,0.6,4.9,1.4,4.9,4.3
			c0,3.6-3.3,4.7-6.4,4.7c-3.4,0-6.2-1.4-6.4-5.1H368.8z"/>
		<path class="st12" d="M385.2,369.8h3v2.2h-3v9.3c0,1.2,0.3,1.3,1.9,1.3h1.1v2.2h-1.9c-2.6,0-3.6-0.5-3.6-3.3v-9.5h-2.6v-2.2h2.6
			v-4.5h2.5V369.8z"/>
		<path class="st12" d="M404.2,384.7c-0.4,0.3-1,0.4-1.8,0.4c-1.3,0-2.1-0.7-2.1-2.3c-1.4,1.6-3.2,2.3-5.3,2.3c-2.7,0-5-1.2-5-4.2
			c0-3.4,2.5-4.1,5.1-4.6c2.7-0.6,5-0.3,5-2.2c0-2.2-1.8-2.5-3.3-2.5c-2.1,0-3.6,0.6-3.7,2.8h-2.5c0.1-3.7,3-5,6.4-5
			c2.7,0,5.6,0.6,5.6,4.1v7.7c0,1.2,0,1.7,0.8,1.7c0.2,0,0.5-0.1,0.8-0.1V384.7z M400.2,377c-1.9,1.4-7.5,0-7.5,3.7
			c0,1.6,1.4,2.2,2.9,2.2c3.2,0,4.6-2,4.6-3.4V377z"/>
		<path class="st12" d="M406.6,364.1h2.5v7.7h0.1c0.8-1.7,2.7-2.4,4.8-2.4c4.6,0,6.9,3.7,6.9,7.9c0,4.3-2.3,7.8-6.8,7.8
			c-1.5,0-3.8-0.6-4.8-2.3h-0.1v2h-2.5V364.1z M413.6,371.6c-3.3,0-4.6,2.9-4.6,5.7c0,2.9,1.3,5.7,4.7,5.7c3.4,0,4.5-2.9,4.5-5.8
			C418.2,374.3,416.8,371.6,413.6,371.6z"/>
		<path class="st12" d="M423.9,364.1h2.5v20.7h-2.5V364.1z"/>
		<path class="st12" d="M432.8,367.1h-2.5v-3h2.5V367.1z M430.3,369.8h2.5v15h-2.5V369.8z"/>
		<path class="st12" d="M438.1,380c0.1,2.2,2,2.9,4,2.9c1.5,0,3.6-0.3,3.6-2.2c0-3.9-9.8-1.2-9.8-7c0-3,3-4.3,5.6-4.3
			c3.4,0,5.9,1,6.1,4.7h-2.5c-0.1-1.9-1.9-2.5-3.5-2.5c-1.5,0-3.2,0.4-3.2,1.9c0,1.7,2.6,2.1,4.9,2.6c2.5,0.6,4.9,1.4,4.9,4.3
			c0,3.6-3.3,4.7-6.4,4.7c-3.4,0-6.2-1.4-6.4-5.1H438.1z"/>
		<path class="st12" d="M451.1,364.1h2.5v7.9h0.1c0.8-1.8,3-2.6,4.7-2.6c3.9,0,5.2,2.3,5.2,5.5v9.9H461v-10.2c0-1.9-1.2-3-3-3
			c-3,0-4.4,2-4.4,4.7v8.5h-2.5V364.1z"/>
		<path class="st12" d="M480,380c-0.7,3.3-3,5.1-6.4,5.1c-4.8,0-7-3.3-7.2-7.9c0-4.5,3-7.8,7-7.8c5.3,0,6.9,5,6.8,8.6H469
			c-0.1,2.6,1.4,4.9,4.7,4.9c2.1,0,3.5-1,3.9-2.9H480z M477.6,375.8c-0.1-2.3-1.9-4.2-4.3-4.2c-2.6,0-4.1,1.9-4.3,4.2H477.6z"/>
		<path class="st12" d="M496.2,384.8h-2.5v-2h-0.1c-0.8,1.7-2.7,2.4-4.8,2.4c-4.6,0-6.9-3.7-6.9-7.9c0-4.2,2.3-7.8,6.8-7.8
			c1.5,0,3.8,0.6,4.8,2.3h0.1v-7.7h2.5V384.8z M489.2,382.9c3.3,0,4.6-2.9,4.6-5.7c0-2.9-1.3-5.7-4.7-5.7c-3.4,0-4.5,2.9-4.5,5.8
			C484.6,380.2,486,382.9,489.2,382.9z"/>
	</g>
</g>
<g>
	<g>
		<g>
			<line class="st7" x1="420.2" y1="752.9" x2="420.2" y2="823.4"/>
			<g>
				<line class="st8" x1="420.2" y1="752.9" x2="420.2" y2="820"/>
				<g>
					<polygon class="st9" points="415.1,814 420.2,819.1 425.2,814 425.2,818.3 420.2,823.4 415.1,818.3 					"/>
				</g>
			</g>
		</g>
	</g>
</g>
<g>
	<rect x="321.4" y="752.9" class="st11" width="197.5" height="51"/>
	<g>
		<rect x="327.2" y="768.6" class="st4" width="185.7" height="27.8"/>
		<path class="st12" d="M406.5,780.8v8.5h-2.8v-8.5l-8-12.2h3.3l6.2,9.9l6.1-9.9h3.1L406.5,780.8z"/>
		<path class="st12" d="M429.1,784.5c-0.7,3.3-3,5.1-6.4,5.1c-4.8,0-7-3.3-7.2-7.9c0-4.5,3-7.8,7-7.8c5.3,0,6.9,5,6.8,8.6h-11.2
			c-0.1,2.6,1.4,4.9,4.7,4.9c2.1,0,3.5-1,3.9-2.9H429.1z M426.7,780.4c-0.1-2.3-1.9-4.2-4.3-4.2c-2.6,0-4.1,1.9-4.3,4.2H426.7z"/>
		<path class="st12" d="M433.4,784.6c0.1,2.2,2,2.9,4,2.9c1.5,0,3.6-0.3,3.6-2.2c0-3.9-9.8-1.2-9.8-7c0-3,3-4.3,5.6-4.3
			c3.4,0,5.9,1,6.1,4.7h-2.5c-0.1-1.9-1.9-2.5-3.5-2.5c-1.5,0-3.2,0.4-3.2,1.9c0,1.7,2.6,2.1,4.9,2.6c2.5,0.6,4.9,1.4,4.9,4.3
			c0,3.6-3.3,4.7-6.4,4.7c-3.4,0-6.2-1.4-6.4-5.1H433.4z"/>
	</g>
</g>
<g>
	<g>
		<g>
			<line class="st7" x1="602.3" y1="660.4" x2="895.9" y2="660.4"/>
			<g>
				<line class="st13" x1="602.3" y1="660.4" x2="892.7" y2="660.4"/>
				<g>
					<polygon class="st9" points="887,665.2 891.8,660.4 887,655.7 891.1,655.7 895.9,660.4 891.1,665.2 					"/>
				</g>
			</g>
		</g>
	</g>
</g>
<g>
	<rect x="637.2" y="628.5" class="st14" width="167.6" height="51"/>
	<g>
		<rect x="644.7" y="646" class="st4" width="152.6" height="27.4"/>
		<path class="st12" d="M704.5,646h2.9l10.9,16.8h0.1V646h2.6v20.7h-3l-10.8-16.6h-0.1v16.6h-2.6V646z"/>
		<path class="st12" d="M731.5,651.3c4.8,0,7.3,3.5,7.3,7.9c0,4.4-2.5,7.8-7.3,7.8c-4.8,0-7.3-3.5-7.3-7.8
			C724.2,654.8,726.7,651.3,731.5,651.3z M731.5,664.9c2.6,0,4.7-2,4.7-5.7c0-3.6-2.1-5.7-4.7-5.7c-2.6,0-4.7,2.1-4.7,5.7
			C726.8,662.8,728.9,664.9,731.5,664.9z"/>
	</g>
</g>
<g>
	<g>
		<g>
			<line class="st7" x1="602.2" y1="218.8" x2="913.7" y2="218.8"/>
			<g>
				<line class="st13" x1="602.2" y1="218.8" x2="910.4" y2="218.8"/>
				<g>
					<polygon class="st9" points="904.8,223.5 909.6,218.8 904.8,214 908.9,214 913.7,218.8 908.9,223.5 					"/>
				</g>
			</g>
		</g>
	</g>
</g>
<rect x="1542" y="170.8" class="st15" width="456" height="106.9"/>
<g>
	<rect x="1553.2" y="191.5" class="st4" width="430.3" height="89.2"/>
	<path class="st5" d="M1575.7,191.5h2.9l10.9,16.8h0.1v-16.8h2.6v20.7h-3l-10.8-16.6h-0.1v16.6h-2.6V191.5z"/>
	<path class="st5" d="M1602.7,196.8c4.8,0,7.3,3.5,7.3,7.9c0,4.4-2.5,7.8-7.3,7.8c-4.8,0-7.3-3.5-7.3-7.8
		C1595.4,200.3,1597.9,196.8,1602.7,196.8z M1602.7,210.4c2.6,0,4.7-2,4.7-5.7s-2.1-5.7-4.7-5.7c-2.6,0-4.7,2.1-4.7,5.7
		S1600.1,210.4,1602.7,210.4z"/>
	<path class="st5" d="M1620.8,197.2h2.3v3.2h0.1c1.2-2.4,2.8-3.6,5.5-3.5v2.6c-4,0-5.4,2.2-5.4,6.1v6.7h-2.5V197.2z"/>
	<path class="st5" d="M1643.4,207.4c-0.7,3.3-3,5.1-6.4,5.1c-4.8,0-7-3.3-7.2-7.9c0-4.5,3-7.8,7-7.8c5.3,0,6.9,5,6.8,8.6h-11.2
		c-0.1,2.6,1.4,4.9,4.7,4.9c2.1,0,3.5-1,3.9-2.9H1643.4z M1641,203.2c-0.1-2.3-1.9-4.2-4.3-4.2c-2.6,0-4.1,1.9-4.3,4.2H1641z"/>
	<path class="st5" d="M1652.9,212.2h-2.6l-5.6-15h2.8l4.2,12.5h0.1l4.1-12.5h2.6L1652.9,212.2z"/>
	<path class="st5" d="M1663.3,194.5h-2.5v-3h2.5V194.5z M1660.8,197.2h2.5v15h-2.5V197.2z"/>
	<path class="st5" d="M1679.9,207.4c-0.7,3.3-3,5.1-6.4,5.1c-4.8,0-7-3.3-7.2-7.9c0-4.5,3-7.8,7-7.8c5.3,0,6.9,5,6.8,8.6h-11.2
		c-0.1,2.6,1.4,4.9,4.7,4.9c2.1,0,3.5-1,3.9-2.9H1679.9z M1677.5,203.2c-0.1-2.3-1.9-4.2-4.3-4.2c-2.6,0-4.1,1.9-4.3,4.2H1677.5z"/>
	<path class="st5" d="M1697.5,212.2h-2.6l-3-11.9h-0.1l-3,11.9h-2.7l-4.8-15h2.7l3.4,12.3h0.1l3-12.3h2.7l3.1,12.3h0.1l3.4-12.3h2.6
		L1697.5,212.2z"/>
	<path class="st5" d="M1712.6,197.2h2.3v3.2h0.1c1.2-2.4,2.8-3.6,5.5-3.5v2.6c-4,0-5.4,2.2-5.4,6.1v6.7h-2.5V197.2z"/>
	<path class="st5" d="M1735.2,207.4c-0.7,3.3-3,5.1-6.4,5.1c-4.8,0-7-3.3-7.2-7.9c0-4.5,3-7.8,7-7.8c5.3,0,6.9,5,6.8,8.6h-11.2
		c-0.1,2.6,1.4,4.9,4.7,4.9c2.1,0,3.5-1,3.9-2.9H1735.2z M1732.8,203.2c-0.1-2.3-1.9-4.2-4.3-4.2c-2.6,0-4.1,1.9-4.3,4.2H1732.8z"/>
	<path class="st5" d="M1751.3,217.9h-2.5v-7.8h-0.1c-0.8,1.7-2.7,2.4-4.8,2.4c-4.6,0-6.9-3.7-6.9-7.9c0-4.2,2.3-7.8,6.8-7.8
		c1.5,0,3.8,0.6,4.8,2.3h0.1v-2h2.5V217.9z M1744.4,210.4c3.3,0,4.6-2.9,4.6-5.7c0-2.9-1.3-5.7-4.7-5.7c-3.4,0-4.5,2.9-4.5,5.8
		C1739.7,207.6,1741.2,210.4,1744.4,210.4z"/>
	<path class="st5" d="M1767.5,212.2h-2.3v-2.4h-0.1c-1,1.9-2.7,2.7-4.9,2.7c-3.9,0-5.2-2.3-5.2-5.5v-9.9h2.5v10.2c0,1.9,1.2,3,3,3
		c3,0,4.4-2,4.4-4.7v-8.5h2.5V212.2z"/>
	<path class="st5" d="M1773.9,194.5h-2.5v-3h2.5V194.5z M1771.4,197.2h2.5v15h-2.5V197.2z"/>
	<path class="st5" d="M1777.6,197.2h2.3v3.2h0.1c1.2-2.4,2.8-3.6,5.5-3.5v2.6c-4,0-5.4,2.2-5.4,6.1v6.7h-2.5V197.2z"/>
	<path class="st5" d="M1800.1,207.4c-0.7,3.3-3,5.1-6.4,5.1c-4.8,0-7-3.3-7.2-7.9c0-4.5,3-7.8,7-7.8c5.3,0,6.9,5,6.8,8.6h-11.2
		c-0.1,2.6,1.4,4.9,4.7,4.9c2.1,0,3.5-1,3.9-2.9H1800.1z M1797.8,203.2c-0.1-2.3-1.9-4.2-4.3-4.2c-2.6,0-4.1,1.9-4.3,4.2H1797.8z"/>
	<path class="st5" d="M1816.3,212.2h-2.5v-2h-0.1c-0.8,1.7-2.7,2.4-4.8,2.4c-4.6,0-6.9-3.7-6.9-7.9c0-4.2,2.3-7.8,6.8-7.8
		c1.5,0,3.8,0.6,4.8,2.3h0.1v-7.7h2.5V212.2z M1809.4,210.4c3.3,0,4.6-2.9,4.6-5.7c0-2.9-1.3-5.7-4.7-5.7c-3.4,0-4.5,2.9-4.5,5.8
		C1804.7,207.6,1806.2,210.4,1809.4,210.4z"/>
	<path class="st5" d="M1820.7,209h3.2v2.9c0,2.2-1,3.9-3.2,4.6V215c1.3-0.5,1.8-1.9,1.7-2.8h-1.7V209z"/>
	<path class="st5" d="M1836.2,197.2h2.3v2.2h0.1c1.1-1.7,2.7-2.6,4.8-2.6c1.9,0,3.5,0.7,4.1,2.6c1-1.6,2.8-2.6,4.7-2.6
		c3,0,5,1.2,5,4.4v11h-2.5v-9.8c0-1.9-0.5-3.3-2.9-3.3c-2.4,0-3.9,1.5-3.9,3.8v9.3h-2.5v-9.8c0-1.9-0.6-3.3-2.8-3.3
		c-2.9,0-4,2.7-4,3.8v9.3h-2.5V197.2z"/>
	<path class="st5" d="M1874.3,212.1c-0.4,0.3-1,0.4-1.8,0.4c-1.3,0-2.1-0.7-2.1-2.3c-1.4,1.6-3.2,2.3-5.3,2.3c-2.7,0-5-1.2-5-4.2
		c0-3.4,2.5-4.1,5.1-4.6c2.7-0.6,5-0.3,5-2.2c0-2.2-1.8-2.5-3.3-2.5c-2.1,0-3.6,0.6-3.7,2.8h-2.5c0.1-3.7,3-5,6.4-5
		c2.7,0,5.6,0.6,5.6,4.1v7.7c0,1.2,0,1.7,0.8,1.7c0.2,0,0.5-0.1,0.8-0.1V212.1z M1870.3,204.4c-1.9,1.4-7.5,0-7.5,3.7
		c0,1.6,1.4,2.2,2.9,2.2c3.2,0,4.6-2,4.6-3.4V204.4z"/>
	<path class="st5" d="M1876.5,197.2h2.3v3.2h0.1c1.2-2.4,2.8-3.6,5.5-3.5v2.6c-4,0-5.4,2.2-5.4,6.1v6.7h-2.5V197.2z"/>
	<path class="st5" d="M1886.4,191.5h2.5v12.3l6.8-6.6h3.3l-5.9,5.5l6.4,9.5h-3.1l-5.1-7.8l-2.3,2.1v5.7h-2.5V191.5z"/>
	<path class="st5" d="M1914.1,207.4c-0.7,3.3-3,5.1-6.4,5.1c-4.8,0-7-3.3-7.2-7.9c0-4.5,3-7.8,7-7.8c5.3,0,6.9,5,6.8,8.6h-11.2
		c-0.1,2.6,1.4,4.9,4.7,4.9c2.1,0,3.5-1,3.9-2.9H1914.1z M1911.7,203.2c-0.1-2.3-1.9-4.2-4.3-4.2c-2.6,0-4.1,1.9-4.3,4.2H1911.7z"/>
	<path class="st5" d="M1920.3,197.2h3v2.2h-3v9.3c0,1.2,0.3,1.3,1.9,1.3h1.1v2.2h-1.9c-2.6,0-3.6-0.5-3.6-3.3v-9.5h-2.6v-2.2h2.6
		v-4.5h2.5V197.2z"/>
	<path class="st5" d="M1928.6,194.5h-2.5v-3h2.5V194.5z M1926.1,197.2h2.5v15h-2.5V197.2z"/>
	<path class="st5" d="M1932.4,197.2h2.3v2.4h0.1c1-1.9,2.7-2.7,4.9-2.7c3.9,0,5.2,2.3,5.2,5.5v9.9h-2.5V202c0-1.9-1.2-3-3-3
		c-3,0-4.4,2-4.4,4.7v8.5h-2.5V197.2z"/>
	<path class="st5" d="M1961.5,210.9c0,4.9-2.2,7.4-7,7.4c-2.8,0-6.1-1.2-6.2-4.4h2.5c0.1,1.8,2.3,2.4,3.9,2.4c3.2,0,4.5-2.3,4.5-5.7
		v-1h-0.1c-0.8,1.8-2.8,2.7-4.7,2.7c-4.5,0-6.7-3.5-6.7-7.6c0-3.5,1.7-7.9,6.9-7.9c1.9,0,3.6,0.8,4.5,2.5h0v-2.1h2.3V210.9z
		 M1959,204.4c0-2.6-1.2-5.4-4.3-5.4c-3.2,0-4.4,2.6-4.4,5.5c0,2.7,1,5.7,4.2,5.7S1959,207.2,1959,204.4z"/>
	<path class="st5" d="M1575,236.8c-0.4-1.9-1.7-3-3.7-3c-3.6,0-4.7,2.8-4.7,5.9c0,2.8,1.2,5.5,4.4,5.5c2.4,0,3.8-1.4,4.1-3.7h2.5
		c-0.6,3.7-2.8,5.8-6.6,5.8c-4.6,0-7-3.2-7-7.7s2.3-8,7.1-8c3.4,0,6.1,1.6,6.5,5.2H1575z"/>
	<path class="st5" d="M1593.7,246.9c-0.4,0.3-1,0.4-1.8,0.4c-1.3,0-2.1-0.7-2.1-2.3c-1.4,1.6-3.2,2.3-5.3,2.3c-2.7,0-5-1.2-5-4.2
		c0-3.4,2.5-4.1,5.1-4.6c2.7-0.6,5-0.3,5-2.2c0-2.2-1.8-2.5-3.3-2.5c-2.1,0-3.6,0.6-3.7,2.8h-2.5c0.1-3.7,3-5,6.4-5
		c2.7,0,5.6,0.6,5.6,4.1v7.7c0,1.2,0,1.7,0.8,1.7c0.2,0,0.5-0.1,0.8-0.1V246.9z M1589.7,239.2c-1.9,1.4-7.5,0-7.5,3.7
		c0,1.6,1.4,2.2,2.9,2.2c3.2,0,4.6-2,4.6-3.4V239.2z"/>
	<path class="st5" d="M1595.9,232h2.3v2.4h0.1c1-1.9,2.7-2.7,4.9-2.7c3.9,0,5.2,2.3,5.2,5.5v9.9h-2.5v-10.2c0-1.9-1.2-3-3-3
		c-3,0-4.4,2-4.4,4.7v8.5h-2.5V232z"/>
	<path class="st5" d="M1633.5,247h-2.5v-2h-0.1c-0.8,1.7-2.7,2.4-4.8,2.4c-4.6,0-6.9-3.7-6.9-7.9c0-4.2,2.3-7.8,6.8-7.8
		c1.5,0,3.8,0.6,4.8,2.3h0.1v-7.7h2.5V247z M1626.6,245.2c3.3,0,4.6-2.9,4.6-5.7c0-2.9-1.3-5.7-4.7-5.7c-3.4,0-4.5,2.9-4.5,5.8
		C1621.9,242.4,1623.4,245.2,1626.6,245.2z"/>
	<path class="st5" d="M1639.9,229.3h-2.5v-3h2.5V229.3z M1637.5,232h2.5v15h-2.5V232z"/>
	<path class="st5" d="M1643.7,232h2.3v3.2h0.1c1.2-2.4,2.8-3.6,5.5-3.5v2.6c-4,0-5.4,2.2-5.4,6.1v6.7h-2.5V232z"/>
	<path class="st5" d="M1666.2,242.2c-0.7,3.3-3,5.1-6.4,5.1c-4.8,0-7-3.3-7.2-7.9c0-4.5,3-7.8,7-7.8c5.3,0,6.9,5,6.8,8.6h-11.2
		c-0.1,2.6,1.4,4.9,4.7,4.9c2.1,0,3.5-1,3.9-2.9H1666.2z M1663.8,238c-0.1-2.3-1.9-4.2-4.3-4.2c-2.6,0-4.1,1.9-4.3,4.2H1663.8z"/>
	<path class="st5" d="M1679.2,236.8c-0.4-1.9-1.7-3-3.7-3c-3.6,0-4.7,2.8-4.7,5.9c0,2.8,1.2,5.5,4.4,5.5c2.4,0,3.8-1.4,4.1-3.7h2.5
		c-0.6,3.7-2.8,5.8-6.6,5.8c-4.6,0-7-3.2-7-7.7s2.3-8,7.1-8c3.4,0,6.1,1.6,6.5,5.2H1679.2z"/>
	<path class="st5" d="M1688,232h3v2.2h-3v9.3c0,1.2,0.3,1.3,1.9,1.3h1.1v2.2h-1.9c-2.6,0-3.6-0.5-3.6-3.3v-9.5h-2.6V232h2.6v-4.5
		h2.5V232z"/>
	<path class="st5" d="M1693.8,226.3h2.5V247h-2.5V226.3z"/>
	<path class="st5" d="M1706,249c-1.2,2.9-2.1,4-4.4,4c-0.6,0-1.2-0.1-1.7-0.3v-2.3c0.5,0.1,1,0.3,1.5,0.3c1,0,1.6-0.5,2-1.4l1-2.6
		l-5.9-14.9h2.8l4.4,12.3h0.1l4.2-12.3h2.6L1706,249z"/>
	<path class="st5" d="M1722.6,232h2.3v3.2h0.1c1.2-2.4,2.8-3.6,5.5-3.5v2.6c-4,0-5.4,2.2-5.4,6.1v6.7h-2.5V232z"/>
	<path class="st5" d="M1745.1,242.2c-0.7,3.3-3,5.1-6.4,5.1c-4.8,0-7-3.3-7.2-7.9c0-4.5,3-7.8,7-7.8c5.3,0,6.9,5,6.8,8.6h-11.2
		c-0.1,2.6,1.4,4.9,4.7,4.9c2.1,0,3.5-1,3.9-2.9H1745.1z M1742.8,238c-0.1-2.3-1.9-4.2-4.3-4.2c-2.6,0-4.1,1.9-4.3,4.2H1742.8z"/>
	<path class="st5" d="M1748.1,226.3h2.5V247h-2.5V226.3z"/>
	<path class="st5" d="M1767.2,242.2c-0.7,3.3-3,5.1-6.4,5.1c-4.8,0-7-3.3-7.2-7.9c0-4.5,3-7.8,7-7.8c5.3,0,6.9,5,6.8,8.6h-11.2
		c-0.1,2.6,1.4,4.9,4.7,4.9c2.1,0,3.5-1,3.9-2.9H1767.2z M1764.8,238c-0.1-2.3-1.9-4.2-4.3-4.2c-2.6,0-4.1,1.9-4.3,4.2H1764.8z"/>
	<path class="st5" d="M1783.2,246.9c-0.4,0.3-1,0.4-1.8,0.4c-1.3,0-2.1-0.7-2.1-2.3c-1.4,1.6-3.2,2.3-5.3,2.3c-2.7,0-5-1.2-5-4.2
		c0-3.4,2.5-4.1,5.1-4.6c2.7-0.6,5-0.3,5-2.2c0-2.2-1.8-2.5-3.3-2.5c-2.1,0-3.6,0.6-3.7,2.8h-2.5c0.1-3.7,3-5,6.4-5
		c2.7,0,5.6,0.6,5.6,4.1v7.7c0,1.2,0,1.7,0.8,1.7c0.2,0,0.5-0.1,0.8-0.1V246.9z M1779.2,239.2c-1.9,1.4-7.5,0-7.5,3.7
		c0,1.6,1.4,2.2,2.9,2.2c3.2,0,4.6-2,4.6-3.4V239.2z"/>
	<path class="st5" d="M1787,242.3c0.1,2.2,2,2.9,4,2.9c1.5,0,3.6-0.3,3.6-2.2c0-3.9-9.8-1.2-9.8-7c0-3,3-4.3,5.6-4.3
		c3.4,0,5.9,1,6.1,4.7h-2.5c-0.1-1.9-1.9-2.5-3.5-2.5c-1.5,0-3.2,0.4-3.2,1.9c0,1.7,2.6,2.1,4.9,2.6c2.5,0.6,4.9,1.4,4.9,4.3
		c0,3.6-3.3,4.7-6.4,4.7c-3.4,0-6.2-1.4-6.4-5.1H1787z"/>
	<path class="st5" d="M1812.8,242.2c-0.7,3.3-3,5.1-6.4,5.1c-4.8,0-7-3.3-7.2-7.9c0-4.5,3-7.8,7-7.8c5.3,0,6.9,5,6.8,8.6h-11.2
		c-0.1,2.6,1.4,4.9,4.7,4.9c2.1,0,3.5-1,3.9-2.9H1812.8z M1810.4,238c-0.1-2.3-1.9-4.2-4.3-4.2c-2.6,0-4.1,1.9-4.3,4.2H1810.4z"/>
	<path class="st5" d="M1827.1,232h3v2.2h-3v9.3c0,1.2,0.3,1.3,1.9,1.3h1.1v2.2h-1.9c-2.6,0-3.6-0.5-3.6-3.3v-9.5h-2.6V232h2.6v-4.5
		h2.5V232z"/>
	<path class="st5" d="M1832.8,226.3h2.5v7.9h0.1c0.8-1.8,3-2.6,4.7-2.6c3.9,0,5.2,2.3,5.2,5.5v9.9h-2.5v-10.2c0-1.9-1.2-3-3-3
		c-3,0-4.4,2-4.4,4.7v8.5h-2.5V226.3z"/>
	<path class="st5" d="M1861.7,242.2c-0.7,3.3-3,5.1-6.4,5.1c-4.8,0-7-3.3-7.2-7.9c0-4.5,3-7.8,7-7.8c5.3,0,6.9,5,6.8,8.6h-11.2
		c-0.1,2.6,1.4,4.9,4.7,4.9c2.1,0,3.5-1,3.9-2.9H1861.7z M1859.3,238c-0.1-2.3-1.9-4.2-4.3-4.2c-2.6,0-4.1,1.9-4.3,4.2H1859.3z"/>
	<path class="st5" d="M1872.5,232h2.3v2.2h0.1c1.1-1.7,2.7-2.6,4.8-2.6c1.9,0,3.5,0.7,4.1,2.6c1-1.6,2.8-2.6,4.7-2.6
		c3,0,5,1.2,5,4.4v11h-2.5v-9.8c0-1.9-0.5-3.3-2.9-3.3c-2.4,0-3.9,1.5-3.9,3.8v9.3h-2.5v-9.8c0-1.9-0.6-3.3-2.8-3.3
		c-2.9,0-4,2.7-4,3.8v9.3h-2.5V232z"/>
	<path class="st5" d="M1910.6,246.9c-0.4,0.3-1,0.4-1.8,0.4c-1.3,0-2.1-0.7-2.1-2.3c-1.4,1.6-3.2,2.3-5.3,2.3c-2.7,0-5-1.2-5-4.2
		c0-3.4,2.5-4.1,5.1-4.6c2.7-0.6,5-0.3,5-2.2c0-2.2-1.8-2.5-3.3-2.5c-2.1,0-3.6,0.6-3.7,2.8h-2.5c0.1-3.7,3-5,6.4-5
		c2.7,0,5.6,0.6,5.6,4.1v7.7c0,1.2,0,1.7,0.8,1.7c0.2,0,0.5-0.1,0.8-0.1V246.9z M1906.6,239.2c-1.9,1.4-7.5,0-7.5,3.7
		c0,1.6,1.4,2.2,2.9,2.2c3.2,0,4.6-2,4.6-3.4V239.2z"/>
	<path class="st5" d="M1916.3,232h3v2.2h-3v9.3c0,1.2,0.3,1.3,1.9,1.3h1.1v2.2h-1.9c-2.6,0-3.6-0.5-3.6-3.3v-9.5h-2.6V232h2.6v-4.5
		h2.5V232z"/>
	<path class="st5" d="M1934.8,242.2c-0.7,3.3-3,5.1-6.4,5.1c-4.8,0-7-3.3-7.2-7.9c0-4.5,3-7.8,7-7.8c5.3,0,6.9,5,6.8,8.6h-11.2
		c-0.1,2.6,1.4,4.9,4.7,4.9c2.1,0,3.5-1,3.9-2.9H1934.8z M1932.4,238c-0.1-2.3-1.9-4.2-4.3-4.2c-2.6,0-4.1,1.9-4.3,4.2H1932.4z"/>
	<path class="st5" d="M1937.5,232h2.3v3.2h0.1c1.2-2.4,2.8-3.6,5.5-3.5v2.6c-4,0-5.4,2.2-5.4,6.1v6.7h-2.5V232z"/>
	<path class="st5" d="M1949.8,229.3h-2.5v-3h2.5V229.3z M1947.4,232h2.5v15h-2.5V232z"/>
	<path class="st5" d="M1966.9,246.9c-0.4,0.3-1,0.4-1.8,0.4c-1.3,0-2.1-0.7-2.1-2.3c-1.4,1.6-3.2,2.3-5.3,2.3c-2.7,0-5-1.2-5-4.2
		c0-3.4,2.5-4.1,5.1-4.6c2.7-0.6,5-0.3,5-2.2c0-2.2-1.8-2.5-3.3-2.5c-2.1,0-3.6,0.6-3.7,2.8h-2.5c0.1-3.7,3-5,6.4-5
		c2.7,0,5.6,0.6,5.6,4.1v7.7c0,1.2,0,1.7,0.8,1.7c0.2,0,0.5-0.1,0.8-0.1V246.9z M1962.9,239.2c-1.9,1.4-7.5,0-7.5,3.7
		c0,1.6,1.4,2.2,2.9,2.2c3.2,0,4.6-2,4.6-3.4V239.2z"/>
	<path class="st5" d="M1969.4,226.3h2.5V247h-2.5V226.3z"/>
</g>
<g>
	<g>
		<g>
			<line class="st7" x1="1312.2" y1="218.8" x2="1533.4" y2="218.8"/>
			<g>
				<line class="st13" x1="1312.2" y1="218.8" x2="1530.2" y2="218.8"/>
				<g>
					<polygon class="st9" points="1524.6,223.5 1529.3,218.8 1524.6,214 1528.6,214 1533.4,218.8 1528.6,223.5 					"/>
				</g>
			</g>
		</g>
	</g>
</g>
<g>
	<rect x="655" y="187.9" class="st14" width="167.6" height="51"/>
	<g>
		<rect x="662.5" y="205.3" class="st4" width="152.6" height="27.4"/>
		<path class="st12" d="M698.1,205.3h3l8.1,20.7h-3l-2.3-6.2h-8.8l-2.3,6.2H690L698.1,205.3z M696,217.5h7l-3.5-9.7h-0.1L696,217.5z
			"/>
		<path class="st12" d="M724.3,226h-2.5v-2h-0.1c-0.8,1.7-2.7,2.4-4.8,2.4c-4.6,0-6.9-3.7-6.9-7.9c0-4.2,2.3-7.8,6.8-7.8
			c1.5,0,3.8,0.6,4.8,2.3h0.1v-7.7h2.5V226z M717.3,224.2c3.3,0,4.6-2.9,4.6-5.7c0-2.9-1.3-5.7-4.7-5.7c-3.4,0-4.5,2.9-4.5,5.8
			C712.6,221.5,714.1,224.2,717.3,224.2z"/>
		<path class="st12" d="M736.5,205.3h2.8v8.9h10.9v-8.9h2.8V226h-2.8v-9.5h-10.9v9.5h-2.8V205.3z"/>
		<path class="st12" d="M763.5,210.7c4.8,0,7.3,3.5,7.3,7.9c0,4.4-2.5,7.8-7.3,7.8c-4.8,0-7.3-3.5-7.3-7.8
			C756.2,214.1,758.8,210.7,763.5,210.7z M763.5,224.2c2.6,0,4.7-2,4.7-5.7s-2.1-5.7-4.7-5.7c-2.6,0-4.7,2.1-4.7,5.7
			S760.9,224.2,763.5,224.2z"/>
		<path class="st12" d="M783.9,215.8c-0.4-1.9-1.7-3-3.7-3c-3.6,0-4.7,2.8-4.7,5.9c0,2.8,1.2,5.5,4.4,5.5c2.4,0,3.8-1.4,4.1-3.7h2.5
			c-0.6,3.7-2.8,5.8-6.6,5.8c-4.6,0-7-3.2-7-7.7s2.3-8,7.1-8c3.4,0,6.1,1.6,6.5,5.2H783.9z"/>
	</g>
</g>
<rect x="937.4" y="423.3" class="st16" width="397.4" height="58"/>
<rect x="1599.6" y="482.7" class="st16" width="397.4" height="58"/>
<g>
	<rect x="960" y="436.4" class="st4" width="373.2" height="29.7"/>
	<path class="st5" d="M1043.9,436.4h9.7c3.9,0,6.3,2.1,6.3,5.4c0,2.5-1.1,4.6-3.6,5.2v0.1c2.4,0.5,2.9,2.3,3.1,4.3
		c0.1,2,0.1,4.3,1.2,5.7h-3.1c-0.8-0.8-0.3-3.1-0.8-5.1c-0.3-2-0.8-3.7-3.5-3.7h-6.7v8.8h-2.8V436.4z M1052.4,445.9
		c2.6,0,4.8-0.7,4.8-3.7c0-2.1-1.1-3.5-3.7-3.5h-6.8v7.2H1052.4z"/>
	<path class="st5" d="M1076.2,452.3c-0.7,3.3-3,5.1-6.4,5.1c-4.8,0-7-3.3-7.2-7.9c0-4.5,3-7.8,7-7.8c5.3,0,6.9,5,6.8,8.6h-11.2
		c-0.1,2.6,1.4,4.9,4.7,4.9c2.1,0,3.5-1,3.9-2.9H1076.2z M1073.8,448.2c-0.1-2.3-1.9-4.2-4.3-4.2c-2.6,0-4.1,1.9-4.3,4.2H1073.8z"/>
	<path class="st5" d="M1085.7,457.1h-2.6l-5.6-15h2.8l4.2,12.5h0.1l4.1-12.5h2.6L1085.7,457.1z"/>
	<path class="st5" d="M1096,439.4h-2.5v-3h2.5V439.4z M1093.6,442.1h2.5v15h-2.5V442.1z"/>
	<path class="st5" d="M1112.7,452.3c-0.7,3.3-3,5.1-6.4,5.1c-4.8,0-7-3.3-7.2-7.9c0-4.5,3-7.8,7-7.8c5.3,0,6.9,5,6.8,8.6h-11.2
		c-0.1,2.6,1.4,4.9,4.7,4.9c2.1,0,3.5-1,3.9-2.9H1112.7z M1110.3,448.2c-0.1-2.3-1.9-4.2-4.3-4.2c-2.6,0-4.1,1.9-4.3,4.2H1110.3z"/>
	<path class="st5" d="M1130.3,457.1h-2.6l-3-11.9h-0.1l-3,11.9h-2.7l-4.8-15h2.7l3.4,12.3h0.1l3-12.3h2.7l3.1,12.3h0.1l3.4-12.3h2.6
		L1130.3,457.1z"/>
	<path class="st5" d="M1145.6,436.4h2.5v7.7h0.1c0.8-1.7,2.7-2.4,4.8-2.4c4.6,0,6.9,3.7,6.9,7.9c0,4.3-2.3,7.8-6.8,7.8
		c-1.5,0-3.8-0.6-4.8-2.3h-0.1v2h-2.5V436.4z M1152.5,443.9c-3.3,0-4.6,2.9-4.6,5.7c0,2.9,1.3,5.7,4.7,5.7c3.4,0,4.5-2.9,4.5-5.8
		C1157.2,446.6,1155.7,443.9,1152.5,443.9z"/>
	<path class="st5" d="M1168.6,459.1c-1.2,2.9-2.1,4-4.4,4c-0.6,0-1.2-0.1-1.7-0.3v-2.3c0.5,0.1,1,0.3,1.5,0.3c1,0,1.6-0.5,2-1.4
		l1-2.6l-5.9-14.9h2.8l4.4,12.3h0.1l4.2-12.3h2.6L1168.6,459.1z"/>
	<path class="st5" d="M1200.2,442.6c-0.6-2.9-2.9-4.4-5.8-4.4c-4.9,0-7,4.1-7,8.4c0,4.7,2.1,8.7,7,8.7c3.6,0,5.7-2.6,6-6h2.8
		c-0.6,5.2-3.7,8.3-9,8.3c-6.4,0-9.6-4.8-9.6-10.8c0-6,3.4-10.9,9.8-10.9c4.3,0,7.9,2.3,8.5,6.7H1200.2z"/>
	<path class="st5" d="M1206.6,436.4h3.8l6.5,17.4l6.6-17.4h3.8v20.7h-2.6v-17.2h-0.1l-6.5,17.2h-2.3l-6.5-17.2h-0.1v17.2h-2.6V436.4
		z"/>
	<path class="st5" d="M1240.6,435.9c6.6,0,9.9,5.2,9.9,10.8s-3.3,10.8-9.9,10.8c-6.6,0-9.9-5.2-9.9-10.8S1234,435.9,1240.6,435.9z
		 M1240.6,455.3c5,0,7.2-4.4,7.2-8.5c0-4.2-2.1-8.5-7.2-8.5c-5,0-7.2,4.4-7.2,8.5C1233.4,450.9,1235.6,455.3,1240.6,455.3z"/>
</g>
<g>
	<rect x="1612.9" y="502.2" class="st4" width="373.2" height="29.7"/>
	<path class="st5" d="M1731.4,502.2h9.7c3.9,0,6.3,2.1,6.3,5.4c0,2.5-1.1,4.6-3.6,5.3v0.1c2.4,0.5,2.9,2.3,3.1,4.3
		c0.1,2,0.1,4.3,1.2,5.7h-3.1c-0.8-0.8-0.3-3.1-0.8-5.1c-0.3-2-0.8-3.7-3.5-3.7h-6.7v8.8h-2.8V502.2z M1739.9,511.8
		c2.6,0,4.8-0.7,4.8-3.7c0-2.1-1.1-3.5-3.7-3.5h-6.8v7.2H1739.9z"/>
	<path class="st5" d="M1756.9,502.2h3l8.1,20.7h-3l-2.3-6.2h-8.8l-2.3,6.2h-2.8L1756.9,502.2z M1754.9,514.4h7l-3.5-9.7h-0.1
		L1754.9,514.4z"/>
	<path class="st5" d="M1778.1,502.2h9.7c3.9,0,6.3,2.1,6.3,5.4c0,2.5-1.1,4.6-3.6,5.3v0.1c2.4,0.5,2.9,2.3,3.1,4.3
		c0.1,2,0.1,4.3,1.2,5.7h-3.1c-0.8-0.8-0.3-3.1-0.8-5.1c-0.3-2-0.8-3.7-3.5-3.7h-6.7v8.8h-2.8V502.2z M1786.6,511.8
		c2.6,0,4.8-0.7,4.8-3.7c0-2.1-1.1-3.5-3.7-3.5h-6.8v7.2H1786.6z"/>
	<path class="st5" d="M1810.4,518.2c-0.7,3.3-3,5.1-6.4,5.1c-4.8,0-7-3.3-7.2-7.9c0-4.5,3-7.8,7-7.8c5.3,0,6.9,5,6.8,8.6h-11.2
		c-0.1,2.6,1.4,4.9,4.7,4.9c2.1,0,3.5-1,3.9-2.9H1810.4z M1808,514c-0.1-2.3-1.9-4.2-4.3-4.2c-2.6,0-4.1,1.9-4.3,4.2H1808z"/>
	<path class="st5" d="M1819.9,522.9h-2.6l-5.6-15h2.8l4.2,12.5h0.1l4.1-12.5h2.6L1819.9,522.9z"/>
	<path class="st5" d="M1830.3,505.2h-2.5v-3h2.5V505.2z M1827.8,507.9h2.5v15h-2.5V507.9z"/>
	<path class="st5" d="M1846.9,518.2c-0.7,3.3-3,5.1-6.4,5.1c-4.8,0-7-3.3-7.2-7.9c0-4.5,3-7.8,7-7.8c5.3,0,6.9,5,6.8,8.6h-11.2
		c-0.1,2.6,1.4,4.9,4.7,4.9c2.1,0,3.5-1,3.9-2.9H1846.9z M1844.5,514c-0.1-2.3-1.9-4.2-4.3-4.2c-2.6,0-4.1,1.9-4.3,4.2H1844.5z"/>
	<path class="st5" d="M1864.5,522.9h-2.6l-3-11.9h-0.1l-3,11.9h-2.7l-4.8-15h2.7l3.4,12.3h0.1l3-12.3h2.7l3.1,12.3h0.1l3.4-12.3h2.6
		L1864.5,522.9z"/>
</g>
<g>
	<g>
		<g>
			<line class="st7" x1="624.8" y1="451.5" x2="936.3" y2="451.5"/>
			<g>
				<line class="st13" x1="624.8" y1="451.5" x2="933.1" y2="451.5"/>
				<g>
					<polygon class="st9" points="927.5,456.3 932.2,451.5 927.5,446.7 931.5,446.7 936.3,451.5 931.5,456.3 					"/>
				</g>
			</g>
		</g>
	</g>
</g>
<g>
	<rect x="677.6" y="420.6" class="st11" width="167.6" height="51"/>
	<g>
		<rect x="685.1" y="438.1" class="st4" width="152.6" height="27.4"/>
		<path class="st12" d="M729.5,444.1c-0.3-3-2.3-4.2-5.1-4.2c-2.3,0-4.6,0.8-4.6,3.5c0,5.1,13.3,1.5,13.3,9.7c0,4.4-4.3,6.2-8.1,6.2
			c-4.6,0-8.6-2.3-8.6-7.3h2.6c0,3.5,2.9,5,6,5c2.5,0,5.3-0.8,5.3-3.8c0-5.7-13.3-1.9-13.3-9.5c0-4.2,3.7-6.1,7.5-6.1
			c4.2,0,7.5,2,7.6,6.6H729.5z"/>
		<path class="st12" d="M748.3,458.8H746v-2.4h-0.1c-1,1.9-2.7,2.7-4.9,2.7c-3.9,0-5.2-2.3-5.2-5.5v-9.9h2.5v10.2c0,1.9,1.2,3,3,3
			c3,0,4.4-2,4.4-4.7v-8.5h2.5V458.8z"/>
		<path class="st12" d="M752.1,438.1h2.5v7.7h0.1c0.8-1.7,2.7-2.4,4.8-2.4c4.6,0,6.9,3.7,6.9,7.9c0,4.3-2.3,7.8-6.8,7.8
			c-1.5,0-3.8-0.6-4.8-2.3h-0.1v2h-2.5V438.1z M759,445.6c-3.3,0-4.6,2.9-4.6,5.7c0,2.9,1.3,5.7,4.7,5.7c3.4,0,4.5-2.9,4.5-5.8
			C763.7,448.3,762.2,445.6,759,445.6z"/>
		<path class="st12" d="M769.2,443.8h2.3v2.2h0.1c1.1-1.7,2.7-2.6,4.8-2.6c1.9,0,3.5,0.7,4.1,2.6c1-1.6,2.8-2.6,4.7-2.6
			c3,0,5,1.2,5,4.4v11h-2.5v-9.8c0-1.9-0.5-3.3-2.9-3.3c-2.4,0-3.9,1.5-3.9,3.8v9.3h-2.5v-9.8c0-1.9-0.6-3.3-2.8-3.3
			c-2.9,0-4,2.7-4,3.8v9.3h-2.5V443.8z"/>
		<path class="st12" d="M796.5,441.1h-2.5v-3h2.5V441.1z M794.1,443.8h2.5v15h-2.5V443.8z"/>
		<path class="st12" d="M803.8,443.8h3v2.2h-3v9.3c0,1.2,0.3,1.3,1.9,1.3h1.1v2.2h-1.9c-2.6,0-3.6-0.5-3.6-3.3v-9.5h-2.6v-2.2h2.6
			v-4.5h2.5V443.8z"/>
	</g>
</g>
<g>
	<g>
		<g>
			<line class="st7" x1="624.8" y1="517.1" x2="1599.6" y2="517.1"/>
			<g>
				<line class="st13" x1="624.8" y1="517.1" x2="1596.4" y2="517.1"/>
				<g>
					<polygon class="st9" points="1590.7,521.9 1595.5,517.1 1590.7,512.3 1594.8,512.3 1599.6,517.1 1594.8,521.9 					"/>
				</g>
			</g>
		</g>
	</g>
</g>
<g>
	<rect x="677.6" y="486.2" class="st11" width="167.6" height="51"/>
	<g>
		<rect x="685.1" y="503.6" class="st4" width="152.6" height="27.4"/>
		<path class="st12" d="M729.5,509.7c-0.3-3-2.3-4.2-5.1-4.2c-2.3,0-4.6,0.8-4.6,3.5c0,5.1,13.3,1.5,13.3,9.7c0,4.4-4.3,6.2-8.1,6.2
			c-4.6,0-8.6-2.3-8.6-7.3h2.6c0,3.5,2.9,5,6,5c2.5,0,5.3-0.8,5.3-3.8c0-5.7-13.3-1.9-13.3-9.5c0-4.2,3.7-6.1,7.5-6.1
			c4.2,0,7.5,2,7.6,6.6H729.5z"/>
		<path class="st12" d="M748.3,524.3H746V522h-0.1c-1,1.9-2.7,2.7-4.9,2.7c-3.9,0-5.2-2.3-5.2-5.5v-9.9h2.5v10.2c0,1.9,1.2,3,3,3
			c3,0,4.4-2,4.4-4.7v-8.5h2.5V524.3z"/>
		<path class="st12" d="M752.1,503.6h2.5v7.7h0.1c0.8-1.7,2.7-2.4,4.8-2.4c4.6,0,6.9,3.7,6.9,7.9c0,4.3-2.3,7.8-6.8,7.8
			c-1.5,0-3.8-0.6-4.8-2.3h-0.1v2h-2.5V503.6z M759,511.2c-3.3,0-4.6,2.9-4.6,5.7c0,2.9,1.3,5.7,4.7,5.7c3.4,0,4.5-2.9,4.5-5.8
			C763.7,513.9,762.2,511.2,759,511.2z"/>
		<path class="st12" d="M769.2,509.3h2.3v2.2h0.1c1.1-1.7,2.7-2.6,4.8-2.6c1.9,0,3.5,0.7,4.1,2.6c1-1.6,2.8-2.6,4.7-2.6
			c3,0,5,1.2,5,4.4v11h-2.5v-9.8c0-1.9-0.5-3.3-2.9-3.3c-2.4,0-3.9,1.5-3.9,3.8v9.3h-2.5v-9.8c0-1.9-0.6-3.3-2.8-3.3
			c-2.9,0-4,2.7-4,3.8v9.3h-2.5V509.3z"/>
		<path class="st12" d="M796.5,506.6h-2.5v-3h2.5V506.6z M794.1,509.3h2.5v15h-2.5V509.3z"/>
		<path class="st12" d="M803.8,509.3h3v2.2h-3v9.3c0,1.2,0.3,1.3,1.9,1.3h1.1v2.2h-1.9c-2.6,0-3.6-0.5-3.6-3.3v-9.5h-2.6v-2.2h2.6
			v-4.5h2.5V509.3z"/>
	</g>
</g>
<g>
	<g>
		<polyline class="st8" points="225.5,875 49.5,875 49.5,206.9 49.5,43.8 222.1,43.8 		"/>
		<g>
			<polygon class="st9" points="216.1,48.9 221.2,43.8 216.1,38.7 220.4,38.7 225.5,43.8 220.4,48.9 			"/>
		</g>
	</g>
</g>
<g>
	<g>
		<polyline class="st13" points="1798.3,540.7 1798.3,574.9 545.5,574.9 545.5,527 		"/>
		<g>
			<polygon class="st9" points="550.3,532.6 545.5,527.8 540.7,532.6 540.7,528.5 545.5,523.8 550.3,528.5 			"/>
		</g>
	</g>
</g>
<g>
	<g>
		<line class="st13" x1="1144.4" y1="482.7" x2="1144.4" y2="571.7"/>
		<g>
			<polygon class="st9" points="1139.6,566 1144.4,570.8 1149.2,566 1149.2,570.1 1144.4,574.9 1139.6,570.1 			"/>
		</g>
	</g>
</g>
<g>
	<rect x="677.6" y="543.3" class="st11" width="293.4" height="51"/>
	<g>
		<rect x="685.1" y="560.7" class="st4" width="279.8" height="27.4"/>
		<path class="st12" d="M703.5,560.7h13.6v2.3h-10.8v6.6h9.5v2.3h-9.5v9.5h-2.8V560.7z"/>
		<path class="st12" d="M732.5,576.7c-0.7,3.3-3,5.1-6.4,5.1c-4.8,0-7-3.3-7.2-7.9c0-4.5,3-7.8,7-7.8c5.3,0,6.9,5,6.8,8.6h-11.2
			c-0.1,2.6,1.4,4.9,4.7,4.9c2.1,0,3.5-1,3.9-2.9H732.5z M730.1,572.5c-0.1-2.3-1.9-4.2-4.3-4.2c-2.6,0-4.1,1.9-4.3,4.2H730.1z"/>
		<path class="st12" d="M748.1,576.7c-0.7,3.3-3,5.1-6.4,5.1c-4.8,0-7-3.3-7.2-7.9c0-4.5,3-7.8,7-7.8c5.3,0,6.9,5,6.8,8.6h-11.2
			c-0.1,2.6,1.4,4.9,4.7,4.9c2.1,0,3.5-1,3.9-2.9H748.1z M745.7,572.5c-0.1-2.3-1.9-4.2-4.3-4.2c-2.6,0-4.1,1.9-4.3,4.2H745.7z"/>
		<path class="st12" d="M764.3,581.4h-2.5v-2h-0.1c-0.8,1.7-2.7,2.4-4.8,2.4c-4.6,0-6.9-3.7-6.9-7.9c0-4.2,2.3-7.8,6.8-7.8
			c1.5,0,3.8,0.6,4.8,2.3h0.1v-7.7h2.5V581.4z M757.3,579.6c3.3,0,4.6-2.9,4.6-5.7c0-2.9-1.3-5.7-4.7-5.7c-3.4,0-4.5,2.9-4.5,5.8
			C752.7,576.9,754.1,579.6,757.3,579.6z"/>
		<path class="st12" d="M768.1,560.7h2.5v7.7h0.1c0.8-1.7,2.7-2.4,4.8-2.4c4.6,0,6.9,3.7,6.9,7.9c0,4.3-2.3,7.8-6.8,7.8
			c-1.5,0-3.8-0.6-4.8-2.3h-0.1v2h-2.5V560.7z M775.1,568.3c-3.3,0-4.6,2.9-4.6,5.7c0,2.9,1.3,5.7,4.7,5.7c3.4,0,4.5-2.9,4.5-5.8
			C779.7,571,778.3,568.3,775.1,568.3z"/>
		<path class="st12" d="M798.5,581.4c-0.4,0.3-1,0.4-1.8,0.4c-1.3,0-2.1-0.7-2.1-2.3c-1.4,1.6-3.2,2.3-5.3,2.3c-2.7,0-5-1.2-5-4.2
			c0-3.4,2.5-4.1,5.1-4.6c2.7-0.6,5-0.3,5-2.2c0-2.2-1.8-2.5-3.3-2.5c-2.1,0-3.6,0.6-3.7,2.8H785c0.1-3.7,3-5,6.4-5
			c2.7,0,5.6,0.6,5.6,4.1v7.7c0,1.2,0,1.7,0.8,1.7c0.2,0,0.5-0.1,0.8-0.1V581.4z M794.5,573.7c-1.9,1.4-7.5,0-7.5,3.7
			c0,1.6,1.4,2.2,2.9,2.2c3.2,0,4.6-2,4.6-3.4V573.7z"/>
		<path class="st12" d="M811,571.3c-0.4-1.9-1.7-3-3.7-3c-3.6,0-4.7,2.8-4.7,5.9c0,2.8,1.2,5.5,4.4,5.5c2.4,0,3.8-1.4,4.1-3.7h2.5
			c-0.6,3.7-2.8,5.8-6.6,5.8c-4.6,0-7-3.2-7-7.7s2.3-8,7.1-8c3.4,0,6.1,1.6,6.5,5.2H811z"/>
		<path class="st12" d="M816.5,560.7h2.5V573l6.8-6.6h3.3l-5.9,5.5l6.4,9.5h-3.1l-5.1-7.8l-2.3,2.1v5.7h-2.5V560.7z"/>
		<path class="st12" d="M837.7,560.2h2.1l-8.6,21.7h-2.1L837.7,560.2z"/>
		<path class="st12" d="M847.1,560.7h3l8.1,20.7h-3l-2.3-6.2h-8.8l-2.3,6.2H839L847.1,560.7z M845.1,572.9h7l-3.5-9.7h-0.1
			L845.1,572.9z"/>
		<path class="st12" d="M860,566.4h2.5v2h0.1c0.8-1.7,2.7-2.4,4.8-2.4c4.6,0,6.9,3.7,6.9,7.9c0,4.3-2.3,7.8-6.8,7.8
			c-1.5,0-3.8-0.6-4.8-2.3h-0.1v7.7H860V566.4z M866.9,568.3c-3.3,0-4.6,2.9-4.6,5.7c0,2.9,1.3,5.7,4.7,5.7c3.4,0,4.5-2.9,4.5-5.8
			C871.6,571,870.1,568.3,866.9,568.3z"/>
		<path class="st12" d="M877.2,566.4h2.5v2h0.1c0.8-1.7,2.7-2.4,4.8-2.4c4.6,0,6.9,3.7,6.9,7.9c0,4.3-2.3,7.8-6.8,7.8
			c-1.5,0-3.8-0.6-4.8-2.3h-0.1v7.7h-2.5V566.4z M884.1,568.3c-3.3,0-4.6,2.9-4.6,5.7c0,2.9,1.3,5.7,4.7,5.7c3.4,0,4.5-2.9,4.5-5.8
			C888.8,571,887.3,568.3,884.1,568.3z"/>
		<path class="st12" d="M894.2,566.4h2.3v3.2h0.1c1.2-2.4,2.8-3.6,5.5-3.5v2.6c-4,0-5.4,2.2-5.4,6.1v6.7h-2.5V566.4z"/>
		<path class="st12" d="M910.4,566.1c4.8,0,7.3,3.5,7.3,7.9c0,4.4-2.5,7.8-7.3,7.8c-4.8,0-7.3-3.5-7.3-7.8
			C903.1,569.6,905.7,566.1,910.4,566.1z M910.4,579.6c2.6,0,4.7-2,4.7-5.7c0-3.6-2.1-5.7-4.7-5.7c-2.6,0-4.7,2.1-4.7,5.7
			C905.7,577.6,907.8,579.6,910.4,579.6z"/>
		<path class="st12" d="M927.3,581.4h-2.6l-5.6-15h2.8l4.2,12.5h0.1l4.1-12.5h2.6L927.3,581.4z"/>
		<path class="st12" d="M947.9,576.7c-0.7,3.3-3,5.1-6.4,5.1c-4.8,0-7-3.3-7.2-7.9c0-4.5,3-7.8,7-7.8c5.3,0,6.9,5,6.8,8.6h-11.2
			c-0.1,2.6,1.4,4.9,4.7,4.9c2.1,0,3.5-1,3.9-2.9H947.9z M945.5,572.5c-0.1-2.3-1.9-4.2-4.3-4.2c-2.6,0-4.1,1.9-4.3,4.2H945.5z"/>
	</g>
</g>
<g>
</g>
<g>
</g>
<g>
</g>
<g>
</g>
<g>
</g>
<g>
</g>
<g>
</g>
</svg>
