<?xml version="1.0" encoding="utf-8"?>
<!-- Generator: Adobe Illustrator 19.2.0, SVG Export Plug-In . SVG Version: 6.00 Build 0)  -->
<svg version="1.1" id="Layer_1" xmlns="http://www.w3.org/2000/svg" xmlns:xlink="http://www.w3.org/1999/xlink" x="0px" y="0px"
	 viewBox="0 0 2048 1000" enable-background="new 0 0 2048 1000" xml:space="preserve">
<rect fill="#B9E5FB" width="2048" height="1000"/>
<rect fill="#4EA8DE" width="2048" height="1000"/>
<rect x="1" y="710" fill="#116BB4" width="2047" height="288.9"/>
<path fill="#FFFFFF" d="M1016.351,110.85c214.608,0,388.575,173.967,388.575,388.575c0,214.607-173.967,388.575-388.575,388.575
	S627.776,714.031,627.776,499.425C627.776,284.817,801.742,110.85,1016.351,110.85"/>
<line fill="none" stroke="#343636" stroke-width="5.0032" stroke-miterlimit="10" x1="48.187" y1="55.189" x2="1990" y2="55.189"/>
<g>
	<rect x="713.947" y="295.032" fill="none" width="763.94" height="63.985"/>
	<path fill="#4EA8DE" d="M718.05,295.031h19.147c10.644,0,14.688,6.719,14.688,13.617s-4.043,13.617-14.688,13.617h-9.811v15.223
		h-9.336V295.031z M727.386,315.011h7.254c4.281,0,8.206-0.952,8.206-6.363s-3.925-6.363-8.206-6.363h-7.254V315.011z"/>
	<path fill="#4EA8DE" d="M756.82,306.745h8.028v5.708h0.119c1.605-3.865,5.59-6.541,9.812-6.541c0.654,0,1.249,0.119,1.843,0.297
		v7.849c-0.773-0.178-2.021-0.297-3.032-0.297c-6.244,0-8.325,4.4-8.325,9.871v13.855h-8.444V306.745z"/>
	<path fill="#4EA8DE" d="M794.876,305.913c9.693,0,15.937,6.422,15.937,16.233c0,9.752-6.244,16.174-15.937,16.174
		c-9.633,0-15.876-6.422-15.876-16.174C779,312.335,785.243,305.913,794.876,305.913z M794.876,331.958
		c5.768,0,7.493-4.876,7.493-9.812c0-4.935-1.725-9.871-7.493-9.871c-5.708,0-7.433,4.936-7.433,9.871
		C787.443,327.082,789.167,331.958,794.876,331.958z"/>
	<path fill="#4EA8DE" d="M816.52,306.745h7.968v4.163h0.119c2.2-3.152,5.352-4.995,9.395-4.995c3.865,0,7.314,1.368,8.979,5.114
		c1.843-2.676,4.995-5.114,9.276-5.114c6.541,0,11.238,3.033,11.238,11.001v20.574h-8.443v-17.423c0-4.103-0.357-7.492-5.173-7.492
		c-4.757,0-5.649,3.984-5.649,7.79v17.125h-8.444v-17.245c0-3.567,0.238-7.67-5.114-7.67c-1.665,0-5.708,1.07-5.708,7.076v17.839
		h-8.444V306.745z"/>
	<path fill="#4EA8DE" d="M885.081,305.913c9.693,0,15.937,6.422,15.937,16.233c0,9.752-6.244,16.174-15.937,16.174
		c-9.633,0-15.876-6.422-15.876-16.174C869.205,312.335,875.448,305.913,885.081,305.913z M885.081,331.958
		c5.768,0,7.493-4.876,7.493-9.812c0-4.935-1.725-9.871-7.493-9.871c-5.708,0-7.433,4.936-7.433,9.871
		C877.648,327.082,879.373,331.958,885.081,331.958z"/>
	<path fill="#4EA8DE" d="M917.191,306.745h6.184v5.649h-6.184v15.223c0,2.854,0.713,3.568,3.568,3.568
		c0.951,0,1.843-0.06,2.616-0.238v6.601c-1.427,0.238-3.271,0.297-4.936,0.297c-5.233,0-9.692-1.13-9.692-7.314v-18.137h-5.114
		v-5.649h5.114v-9.217h8.444V306.745z"/>
	<path fill="#4EA8DE" d="M936.1,301.988h-8.444v-6.958h8.444V301.988z M927.656,306.745h8.444v30.743h-8.444V306.745z"/>
	<path fill="#4EA8DE" d="M957.685,305.913c9.693,0,15.937,6.422,15.937,16.233c0,9.752-6.244,16.174-15.937,16.174
		c-9.633,0-15.876-6.422-15.876-16.174C941.808,312.335,948.052,305.913,957.685,305.913z M957.685,331.958
		c5.768,0,7.493-4.876,7.493-9.812c0-4.935-1.725-9.871-7.493-9.871c-5.708,0-7.433,4.936-7.433,9.871
		C950.252,327.082,951.976,331.958,957.685,331.958z"/>
	<path fill="#4EA8DE" d="M979.091,306.745h8.028v4.281h0.178c2.141-3.508,5.828-5.114,9.395-5.114
		c8.979,0,11.239,5.055,11.239,12.666v18.909h-8.444v-17.363c0-5.055-1.427-7.552-5.411-7.552c-4.579,0-6.541,2.557-6.541,8.8
		v16.115h-8.444V306.745z"/>
	<path fill="#4EA8DE" d="M1013.995,316.2c0.476-7.849,7.552-10.287,14.45-10.287c6.124,0,13.498,1.368,13.498,8.741v15.996
		c0,2.795,0.297,5.59,1.07,6.838h-8.562c-0.298-0.952-0.535-1.962-0.595-2.973c-2.676,2.795-6.541,3.806-10.347,3.806
		c-5.887,0-10.466-2.914-10.466-9.217c0.119-13.974,20.812-6.481,20.455-13.379c0-3.568-2.497-4.163-5.471-4.163
		c-3.271,0-5.292,1.309-5.589,4.638H1013.995z M1033.499,322.443c-1.427,1.249-4.4,1.309-7.017,1.784s-4.995,1.427-4.995,4.519
		c0,3.092,2.438,3.925,5.173,3.925c6.601,0,6.838-5.173,6.838-7.076V322.443z"/>
	<path fill="#4EA8DE" d="M1048.722,295.031h8.443v42.457h-8.443V295.031z"/>
	<path fill="#4EA8DE" d="M1081.248,295.031h13.142l9.931,29.197h0.119l9.396-29.197h13.141v42.457h-8.741v-30.088h-0.118
		l-10.406,30.088h-7.195l-10.406-29.791h-0.119v29.791h-8.741V295.031z"/>
	<path fill="#4EA8DE" d="M1133.934,316.2c0.476-7.849,7.552-10.287,14.449-10.287c6.125,0,13.498,1.368,13.498,8.741v15.996
		c0,2.795,0.298,5.59,1.07,6.838h-8.562c-0.297-0.952-0.535-1.962-0.595-2.973c-2.676,2.795-6.541,3.806-10.347,3.806
		c-5.887,0-10.465-2.914-10.465-9.217c0.118-13.974,20.812-6.481,20.455-13.379c0-3.568-2.498-4.163-5.471-4.163
		c-3.271,0-5.292,1.309-5.59,4.638H1133.934z M1153.438,322.443c-1.428,1.249-4.4,1.309-7.017,1.784s-4.995,1.427-4.995,4.519
		c0,3.092,2.438,3.925,5.173,3.925c6.601,0,6.839-5.173,6.839-7.076V322.443z"/>
	<path fill="#4EA8DE" d="M1179.125,306.745h6.185v5.649h-6.185v15.223c0,2.854,0.714,3.568,3.568,3.568
		c0.951,0,1.843-0.06,2.616-0.238v6.601c-1.427,0.238-3.271,0.297-4.936,0.297c-5.232,0-9.692-1.13-9.692-7.314v-18.137h-5.114
		v-5.649h5.114v-9.217h8.443V306.745z"/>
	<path fill="#4EA8DE" d="M1196.31,324.168c0.238,5.411,2.795,7.79,7.552,7.79c3.39,0,6.125-2.081,6.66-3.984h7.433
		c-2.378,7.314-7.433,10.347-14.39,10.347c-9.692,0-15.698-6.66-15.698-16.174c0-9.217,6.362-16.233,15.698-16.233
		c10.466,0,15.579,8.801,14.926,18.255H1196.31z M1210.046,318.816c-0.773-4.282-2.616-6.541-6.72-6.541
		c-5.471,0-6.838,4.162-7.017,6.541H1210.046z"/>
	<path fill="#4EA8DE" d="M1223.484,306.745h8.027v5.708h0.119c1.605-3.865,5.59-6.541,9.812-6.541c0.654,0,1.249,0.119,1.844,0.297
		v7.849c-0.773-0.178-2.022-0.297-3.033-0.297c-6.243,0-8.324,4.4-8.324,9.871v13.855h-8.444V306.745z"/>
	<path fill="#4EA8DE" d="M1255.297,301.988h-8.443v-6.958h8.443V301.988z M1246.854,306.745h8.443v30.743h-8.443V306.745z"/>
	<path fill="#4EA8DE" d="M1261.601,316.2c0.476-7.849,7.552-10.287,14.449-10.287c6.125,0,13.498,1.368,13.498,8.741v15.996
		c0,2.795,0.298,5.59,1.07,6.838h-8.562c-0.297-0.952-0.535-1.962-0.595-2.973c-2.676,2.795-6.541,3.806-10.347,3.806
		c-5.887,0-10.466-2.914-10.466-9.217c0.119-13.974,20.812-6.481,20.456-13.379c0-3.568-2.498-4.163-5.471-4.163
		c-3.271,0-5.292,1.309-5.59,4.638H1261.601z M1281.104,322.443c-1.427,1.249-4.4,1.309-7.017,1.784s-4.995,1.427-4.995,4.519
		c0,3.092,2.438,3.925,5.173,3.925c6.601,0,6.839-5.173,6.839-7.076V322.443z"/>
	<path fill="#4EA8DE" d="M1296.327,295.031h8.443v42.457h-8.443V295.031z"/>
</g>
<g>
	<path fill="#2C5871" d="M1252.475,685.242c0,9.414-7.1,17.016-15.876,17.016h-30.771v63.849l-75.419-63.849H934
		c-8.784,0-15.885-7.602-15.885-17.016V492.027c0-9.416,7.1-17.027,15.885-17.027h302.599c8.776,0,15.876,7.612,15.876,17.027
		V685.242z"/>
	<path fill="#E6E6E6" d="M783.964,624.336c0,9.406,7.1,17.021,15.876,17.021h30.771v63.848l75.411-63.848h196.417
		c8.785,0,15.898-7.615,15.898-17.021V431.114c0-9.404-7.113-17.017-15.898-17.017H799.84c-8.776,0-15.876,7.613-15.876,17.017
		V624.336z"/>
	<rect x="834.048" y="476.189" fill="#15B0BF" width="234.191" height="14.61"/>
	<rect x="834.048" y="522.474" fill="#15B0BF" width="234.191" height="14.618"/>
	<rect x="834.048" y="568.76" fill="#15B0BF" width="182.302" height="14.615"/>
</g>
</svg>
