<?xml version="1.0" encoding="utf-8"?>
<!-- Generator: Adobe Illustrator 16.0.3, SVG Export Plug-In . SVG Version: 6.00 Build 0)  -->
<!DOCTYPE svg PUBLIC "-//W3C//DTD SVG 1.1//EN" "http://www.w3.org/Graphics/SVG/1.1/DTD/svg11.dtd">
<svg version="1.1" id="Layer_1" xmlns="http://www.w3.org/2000/svg" xmlns:xlink="http://www.w3.org/1999/xlink" x="0px" y="0px"
	 width="2048px" height="1000px" viewBox="0 0 2048 1000" enable-background="new 0 0 2048 1000" xml:space="preserve">
<rect fill="#89BE46" width="2048" height="1000"/>
<g>
	<path fill="#FFFFFF" d="M191.464,232.519h-11.9v-4h28.552v4h-11.901v31.702h-4.75V232.519z"/>
	<path fill="#FFFFFF" d="M222.514,237.77c8.2,0,12.551,5.95,12.551,13.551c0,7.551-4.351,13.501-12.551,13.501
		c-8.201,0-12.551-5.95-12.551-13.501C209.963,243.72,214.313,237.77,222.514,237.77z M222.514,261.071c4.45,0,8.05-3.5,8.05-9.75
		s-3.6-9.8-8.05-9.8c-4.451,0-8.051,3.55-8.051,9.8S218.063,261.071,222.514,261.071z"/>
	<path fill="#FFFFFF" d="M271.514,246.67c-0.65-3.25-2.851-5.15-6.4-5.15c-6.15,0-8.051,4.9-8.051,10.101
		c0,4.8,2.15,9.45,7.551,9.45c4.15,0,6.55-2.35,7.1-6.3h4.351c-0.95,6.351-4.851,10.051-11.401,10.051
		c-7.9,0-12.101-5.45-12.101-13.201s4-13.851,12.201-13.851c5.9,0,10.5,2.75,11.15,8.9H271.514z"/>
	<path fill="#FFFFFF" d="M291.963,237.77c8.2,0,12.551,5.95,12.551,13.551c0,7.551-4.351,13.501-12.551,13.501
		c-8.201,0-12.551-5.95-12.551-13.501C279.413,243.72,283.763,237.77,291.963,237.77z M291.963,261.071c4.45,0,8.05-3.5,8.05-9.75
		s-3.6-9.8-8.05-9.8c-4.451,0-8.051,3.55-8.051,9.8S287.513,261.071,291.963,261.071z"/>
	<path fill="#FFFFFF" d="M309.512,238.37h4v4.1h0.1c1.8-3.2,4.65-4.7,8.401-4.7c6.8,0,8.9,3.9,8.9,9.451v17.001h-4.25V246.72
		c0-3.2-2-5.2-5.25-5.2c-5.15,0-7.65,3.45-7.65,8.1v14.601h-4.25V238.37z"/>
	<path fill="#FFFFFF" d="M343.212,238.37h5.15v3.75h-5.15v16.051c0,2,0.55,2.3,3.2,2.3h1.95v3.75h-3.25c-4.4,0-6.15-0.9-6.15-5.65
		V242.12h-4.4v-3.75h4.4v-7.75h4.25V238.37z"/>
	<path fill="#FFFFFF" d="M352.912,238.37h4v5.45h0.1c2.05-4.2,4.9-6.2,9.5-6.05v4.5c-6.85,0-9.351,3.85-9.351,10.451v11.5h-4.25
		V238.37z"/>
	<path fill="#FFFFFF" d="M380.862,237.77c8.2,0,12.551,5.95,12.551,13.551c0,7.551-4.351,13.501-12.551,13.501
		c-8.201,0-12.551-5.95-12.551-13.501C368.311,243.72,372.661,237.77,380.862,237.77z M380.862,261.071c4.45,0,8.05-3.5,8.05-9.75
		s-3.6-9.8-8.05-9.8c-4.451,0-8.051,3.55-8.051,9.8S376.411,261.071,380.862,261.071z"/>
	<path fill="#FFFFFF" d="M398.661,228.519h4.25v35.702h-4.25V228.519z"/>
	<path fill="#FFFFFF" d="M446.311,264.121c-0.75,0.45-1.8,0.7-3.05,0.7c-2.2,0-3.6-1.2-3.6-4c-2.35,2.8-5.5,4-9.101,4
		c-4.7,0-8.55-2.05-8.55-7.25c0-5.851,4.35-7.15,8.75-7.951c4.65-0.95,8.7-0.55,8.7-3.8c0-3.75-3.1-4.3-5.75-4.3
		c-3.601,0-6.25,1.1-6.451,4.9h-4.25c0.25-6.4,5.15-8.65,10.951-8.65c4.65,0,9.701,1.05,9.701,7.101v13.301c0,2,0,2.9,1.35,2.9
		c0.4,0,0.85-0.1,1.3-0.25V264.121z M439.411,250.871c-3.3,2.45-12.901,0.05-12.901,6.4c0,2.8,2.4,3.8,5,3.8
		c5.6,0,7.9-3.45,7.9-5.85V250.871z"/>
	<path fill="#FFFFFF" d="M450.259,238.37h4v4.1h0.1c1.8-3.2,4.65-4.7,8.401-4.7c6.8,0,8.9,3.9,8.9,9.451v17.001h-4.25V246.72
		c0-3.2-2-5.2-5.25-5.2c-5.15,0-7.65,3.45-7.65,8.1v14.601h-4.25V238.37z"/>
	<path fill="#FFFFFF" d="M507.759,227.669c11.351,0,17.101,8.951,17.101,18.701s-5.75,18.701-17.101,18.701
		c-11.351,0-17.101-8.951-17.101-18.701S496.409,227.669,507.759,227.669z M507.759,261.071c8.701,0,12.351-7.5,12.351-14.701
		c0-7.201-3.65-14.701-12.351-14.701c-8.7,0-12.351,7.5-12.351,14.701C495.409,253.57,499.059,261.071,507.759,261.071z"/>
	<path fill="#FFFFFF" d="M531.708,242.12h-4.35v-3.75h4.35v-3.85c0-4.2,2.5-6.4,7.15-6.4c0.8,0,1.95,0.15,2.75,0.4v3.7
		c-0.75-0.25-1.65-0.35-2.4-0.35c-2.05,0-3.25,0.65-3.25,2.9v3.6h5v3.75h-5v22.102h-4.25V242.12z"/>
	<path fill="#FFFFFF" d="M546.507,242.12h-4.35v-3.75h4.35v-3.85c0-4.2,2.5-6.4,7.15-6.4c0.8,0,1.95,0.15,2.75,0.4v3.7
		c-0.75-0.25-1.65-0.35-2.4-0.35c-2.05,0-3.25,0.65-3.25,2.9v3.6h5v3.75h-5v22.102h-4.25V242.12z"/>
	<path fill="#FFFFFF" d="M581.608,256.021c-1.15,5.75-5.2,8.801-11.051,8.801c-8.25,0-12.15-5.75-12.4-13.601
		c0-7.8,5.1-13.451,12.15-13.451c9.151,0,11.951,8.551,11.701,14.801h-19.351c-0.15,4.5,2.4,8.5,8.051,8.5
		c3.55,0,5.95-1.65,6.7-5.05H581.608z M577.508,248.82c-0.25-4.05-3.2-7.3-7.451-7.3c-4.4,0-7.15,3.3-7.4,7.3H577.508z"/>
	<path fill="#FFFFFF" d="M586.256,238.37h4v5.45h0.1c2.05-4.2,4.9-6.2,9.5-6.05v4.5c-6.85,0-9.351,3.85-9.351,10.451v11.5h-4.25
		V238.37z"/>
	<path fill="#FFFFFF" d="M607.556,233.719h-4.25v-5.2h4.25V233.719z M603.306,238.37h4.25v25.852h-4.25V238.37z"/>
	<path fill="#FFFFFF" d="M614.155,238.37h4v4.1h0.1c1.8-3.2,4.65-4.7,8.401-4.7c6.8,0,8.9,3.9,8.9,9.451v17.001h-4.25V246.72
		c0-3.2-2-5.2-5.25-5.2c-5.15,0-7.65,3.45-7.65,8.1v14.601h-4.25V238.37z"/>
	<path fill="#FFFFFF" d="M664.256,262.021c0,8.451-3.8,12.701-12,12.701c-4.851,0-10.451-2-10.701-7.6h4.25
		c0.15,3.05,3.95,4.2,6.701,4.2c5.55,0,7.75-4,7.75-9.801v-1.7h-0.1c-1.45,3.15-4.75,4.7-8.051,4.7c-7.7,0-11.55-6.05-11.55-13.101
		c0-6.101,2.95-13.651,11.951-13.651c3.25,0,6.15,1.45,7.7,4.3h0.05v-3.7h4V262.021z M660.056,250.771c0-4.55-2-9.25-7.351-9.25
		c-5.45,0-7.65,4.45-7.65,9.4c0,4.65,1.7,9.851,7.301,9.851C657.956,260.771,660.056,255.621,660.056,250.771z"/>
	<path fill="#FFFFFF" d="M690.455,238.37h5.15v3.75h-5.15v16.051c0,2,0.55,2.3,3.2,2.3h1.95v3.75h-3.25c-4.4,0-6.15-0.9-6.15-5.65
		V242.12h-4.4v-3.75h4.4v-7.75h4.25V238.37z"/>
	<path fill="#FFFFFF" d="M700.304,228.519h4.25v13.651h0.1c1.35-3.15,5.101-4.4,8.151-4.4c6.8,0,8.9,3.9,8.9,9.451v17.001h-4.25
		V246.72c0-3.2-2-5.2-5.25-5.2c-5.15,0-7.65,3.45-7.65,8.1v14.601h-4.25V228.519z"/>
	<path fill="#FFFFFF" d="M751.005,264.121c-0.75,0.45-1.8,0.7-3.05,0.7c-2.2,0-3.6-1.2-3.6-4c-2.35,2.8-5.5,4-9.101,4
		c-4.7,0-8.55-2.05-8.55-7.25c0-5.851,4.35-7.15,8.75-7.951c4.65-0.95,8.7-0.55,8.7-3.8c0-3.75-3.1-4.3-5.75-4.3
		c-3.601,0-6.25,1.1-6.451,4.9h-4.25c0.25-6.4,5.15-8.65,10.951-8.65c4.65,0,9.701,1.05,9.701,7.101v13.301c0,2,0,2.9,1.35,2.9
		c0.4,0,0.85-0.1,1.3-0.25V264.121z M744.104,250.871c-3.3,2.45-12.901,0.05-12.901,6.4c0,2.8,2.4,3.8,5,3.8
		c5.6,0,7.9-3.45,7.9-5.85V250.871z"/>
	<path fill="#FFFFFF" d="M760.854,238.37h5.15v3.75h-5.15v16.051c0,2,0.55,2.3,3.2,2.3h1.95v3.75h-3.25c-4.4,0-6.15-0.9-6.15-5.65
		V242.12h-4.4v-3.75h4.4v-7.75h4.25V238.37z"/>
	<path fill="#FFFFFF" d="M786.353,242.12h-4.35v-3.75h4.35v-3.85c0-4.2,2.5-6.4,7.15-6.4c0.8,0,1.95,0.15,2.75,0.4v3.7
		c-0.75-0.25-1.65-0.35-2.4-0.35c-2.05,0-3.25,0.65-3.25,2.9v3.6h5v3.75h-5v22.102h-4.25V242.12z"/>
	<path fill="#FFFFFF" d="M822.303,264.121c-0.75,0.45-1.8,0.7-3.05,0.7c-2.2,0-3.6-1.2-3.6-4c-2.35,2.8-5.5,4-9.101,4
		c-4.7,0-8.55-2.05-8.55-7.25c0-5.851,4.35-7.15,8.75-7.951c4.65-0.95,8.7-0.55,8.7-3.8c0-3.75-3.1-4.3-5.75-4.3
		c-3.601,0-6.25,1.1-6.451,4.9h-4.25c0.25-6.4,5.15-8.65,10.951-8.65c4.65,0,9.701,1.05,9.701,7.101v13.301c0,2,0,2.9,1.35,2.9
		c0.4,0,0.85-0.1,1.3-0.25V264.121z M815.403,250.871c-3.3,2.45-12.901,0.05-12.901,6.4c0,2.8,2.4,3.8,5,3.8
		c5.6,0,7.9-3.45,7.9-5.85V250.871z"/>
	<path fill="#FFFFFF" d="M830.751,233.719h-4.25v-5.2h4.25V233.719z M826.501,238.37h4.25v25.852h-4.25V238.37z"/>
	<path fill="#FFFFFF" d="M837.6,228.519h4.25v35.702h-4.25V228.519z"/>
	<path fill="#FFFFFF" d="M851.049,256.071c0.15,3.8,3.5,5,6.951,5c2.65,0,6.25-0.6,6.25-3.85c0-6.65-16.901-2.15-16.901-12.101
		c0-5.2,5.1-7.351,9.65-7.351c5.801,0,10.201,1.8,10.601,8.101h-4.25c-0.25-3.3-3.25-4.35-6-4.35c-2.55,0-5.5,0.7-5.5,3.3
		c0,3,4.5,3.601,8.45,4.5c4.25,0.95,8.451,2.4,8.451,7.351c0,6.2-5.75,8.15-11,8.15c-5.801,0-10.701-2.35-10.951-8.75H851.049z"/>
	<path fill="#FFFFFF" d="M893.25,238.37h5.15v3.75h-5.15v16.051c0,2,0.55,2.3,3.2,2.3h1.95v3.75h-3.25c-4.4,0-6.15-0.9-6.15-5.65
		V242.12h-4.4v-3.75h4.4v-7.75h4.25V238.37z"/>
	<path fill="#FFFFFF" d="M914.25,237.77c8.2,0,12.551,5.95,12.551,13.551c0,7.551-4.351,13.501-12.551,13.501
		c-8.201,0-12.551-5.95-12.551-13.501C901.699,243.72,906.049,237.77,914.25,237.77z M914.25,261.071c4.45,0,8.05-3.5,8.05-9.75
		s-3.6-9.8-8.05-9.8c-4.451,0-8.051,3.55-8.051,9.8S909.799,261.071,914.25,261.071z"/>
	<path fill="#FFFFFF" d="M945.698,238.37h4v3.8h0.101c1.95-2.95,4.7-4.4,8.351-4.4c3.2,0,6.05,1.2,7.1,4.4
		c1.751-2.8,4.751-4.4,8.101-4.4c5.15,0,8.601,2.15,8.601,7.5v18.951h-4.25V247.27c0-3.2-0.85-5.75-5-5.75s-6.751,2.6-6.751,6.6
		v16.101h-4.25V247.27c0-3.35-1.05-5.75-4.851-5.75c-5,0-6.9,4.6-6.9,6.6v16.101h-4.25V238.37z"/>
	<path fill="#FFFFFF" d="M1010.399,256.021c-1.15,5.75-5.201,8.801-11.051,8.801c-8.251,0-12.151-5.75-12.401-13.601
		c0-7.8,5.101-13.451,12.151-13.451c9.15,0,11.95,8.551,11.7,14.801h-19.351c-0.15,4.5,2.399,8.5,8.05,8.5
		c3.551,0,5.95-1.65,6.701-5.05H1010.399z M1006.299,248.82c-0.25-4.05-3.2-7.3-7.45-7.3c-4.4,0-7.15,3.3-7.4,7.3H1006.299z"/>
	<path fill="#FFFFFF" d="M1037.249,256.021c-1.15,5.75-5.201,8.801-11.051,8.801c-8.251,0-12.151-5.75-12.401-13.601
		c0-7.8,5.101-13.451,12.151-13.451c9.15,0,11.95,8.551,11.7,14.801h-19.351c-0.15,4.5,2.399,8.5,8.05,8.5
		c3.551,0,5.95-1.65,6.701-5.05H1037.249z M1033.148,248.82c-0.25-4.05-3.2-7.3-7.45-7.3c-4.4,0-7.15,3.3-7.4,7.3H1033.148z"/>
	<path fill="#FFFFFF" d="M1047.947,238.37h5.15v3.75h-5.15v16.051c0,2,0.55,2.3,3.2,2.3h1.95v3.75h-3.25c-4.4,0-6.15-0.9-6.15-5.65
		V242.12h-4.4v-3.75h4.4v-7.75h4.25V238.37z"/>
	<path fill="#FFFFFF" d="M1094.598,264.121c-0.75,0.45-1.8,0.7-3.05,0.7c-2.2,0-3.601-1.2-3.601-4c-2.351,2.8-5.5,4-9.101,4
		c-4.7,0-8.551-2.05-8.551-7.25c0-5.851,4.351-7.15,8.751-7.951c4.65-0.95,8.7-0.55,8.7-3.8c0-3.75-3.1-4.3-5.75-4.3
		c-3.601,0-6.251,1.1-6.45,4.9h-4.251c0.25-6.4,5.15-8.65,10.951-8.65c4.65,0,9.7,1.05,9.7,7.101v13.301c0,2,0,2.9,1.351,2.9
		c0.399,0,0.85-0.1,1.3-0.25V264.121z M1087.697,250.871c-3.3,2.45-12.9,0.05-12.9,6.4c0,2.8,2.399,3.8,5,3.8
		c5.601,0,7.9-3.45,7.9-5.85V250.871z"/>
	<path fill="#FFFFFF" d="M1115.047,256.071c0.149,3.8,3.5,5,6.95,5c2.65,0,6.25-0.6,6.25-3.85c0-6.65-16.9-2.15-16.9-12.101
		c0-5.2,5.1-7.351,9.65-7.351c5.8,0,10.2,1.8,10.601,8.101h-4.25c-0.25-3.3-3.251-4.35-6.001-4.35c-2.55,0-5.5,0.7-5.5,3.3
		c0,3,4.5,3.601,8.45,4.5c4.25,0.95,8.45,2.4,8.45,7.351c0,6.2-5.75,8.15-11,8.15c-5.801,0-10.701-2.35-10.951-8.75H1115.047z"/>
	<path fill="#FFFFFF" d="M1137.597,238.37h4.25v3.5h0.1c1.4-2.85,4.65-4.1,8.251-4.1c7.95,0,11.9,6.3,11.9,13.601
		c0,7.35-3.9,13.451-11.801,13.451c-2.6,0-6.5-1-8.351-4.05h-0.1v13.351h-4.25V238.37z M1149.597,241.52c-5.75,0-7.9,4.95-7.9,9.75
		c0,5.05,2.301,9.8,8.15,9.8c5.801,0,7.751-4.95,7.751-10C1157.598,246.22,1155.098,241.52,1149.597,241.52z"/>
	<path fill="#FFFFFF" d="M1189.147,256.021c-1.15,5.75-5.201,8.801-11.051,8.801c-8.251,0-12.151-5.75-12.401-13.601
		c0-7.8,5.101-13.451,12.151-13.451c9.15,0,11.95,8.551,11.7,14.801h-19.351c-0.15,4.5,2.399,8.5,8.05,8.5
		c3.551,0,5.95-1.65,6.701-5.05H1189.147z M1185.047,248.82c-0.25-4.05-3.2-7.3-7.45-7.3c-4.4,0-7.15,3.3-7.4,7.3H1185.047z"/>
	<path fill="#FFFFFF" d="M1211.496,246.67c-0.649-3.25-2.85-5.15-6.4-5.15c-6.15,0-8.05,4.9-8.05,10.101c0,4.8,2.149,9.45,7.55,9.45
		c4.15,0,6.551-2.35,7.101-6.3h4.351c-0.95,6.351-4.851,10.051-11.401,10.051c-7.9,0-12.101-5.45-12.101-13.201
		s4.001-13.851,12.201-13.851c5.9,0,10.501,2.75,11.15,8.9H1211.496z"/>
	<path fill="#FFFFFF" d="M1225.295,233.719h-4.25v-5.2h4.25V233.719z M1221.045,238.37h4.25v25.852h-4.25V238.37z"/>
	<path fill="#FFFFFF" d="M1233.645,242.12h-4.351v-3.75h4.351v-3.85c0-4.2,2.5-6.4,7.15-6.4c0.8,0,1.95,0.15,2.75,0.4v3.7
		c-0.75-0.25-1.649-0.35-2.399-0.35c-2.051,0-3.251,0.65-3.251,2.9v3.6h5.001v3.75h-5.001v22.102h-4.25V242.12z M1246.945,233.719
		v-5.2h4.25v5.2H1246.945z M1246.945,264.221V238.37h4.25v25.852H1246.945z"/>
	<path fill="#FFFFFF" d="M1275.345,246.67c-0.649-3.25-2.85-5.15-6.4-5.15c-6.15,0-8.05,4.9-8.05,10.101c0,4.8,2.149,9.45,7.55,9.45
		c4.15,0,6.551-2.35,7.101-6.3h4.351c-0.95,6.351-4.851,10.051-11.401,10.051c-7.9,0-12.101-5.45-12.101-13.201
		s4.001-13.851,12.201-13.851c5.9,0,10.501,2.75,11.15,8.9H1275.345z"/>
	<path fill="#FFFFFF" d="M1307.545,264.121c-0.75,0.45-1.8,0.7-3.05,0.7c-2.2,0-3.601-1.2-3.601-4c-2.351,2.8-5.5,4-9.101,4
		c-4.7,0-8.551-2.05-8.551-7.25c0-5.851,4.351-7.15,8.751-7.951c4.65-0.95,8.7-0.55,8.7-3.8c0-3.75-3.1-4.3-5.75-4.3
		c-3.601,0-6.251,1.1-6.45,4.9h-4.251c0.25-6.4,5.15-8.65,10.951-8.65c4.65,0,9.7,1.05,9.7,7.101v13.301c0,2,0,2.9,1.351,2.9
		c0.399,0,0.85-0.1,1.3-0.25V264.121z M1300.645,250.871c-3.3,2.45-12.9,0.05-12.9,6.4c0,2.8,2.399,3.8,5,3.8
		c5.601,0,7.9-3.45,7.9-5.85V250.871z"/>
	<path fill="#FFFFFF" d="M1317.394,238.37h5.15v3.75h-5.15v16.051c0,2,0.55,2.3,3.2,2.3h1.95v3.75h-3.25c-4.4,0-6.15-0.9-6.15-5.65
		V242.12h-4.4v-3.75h4.4v-7.75h4.25V238.37z"/>
	<path fill="#FFFFFF" d="M1331.742,233.719h-4.25v-5.2h4.25V233.719z M1327.492,238.37h4.25v25.852h-4.25V238.37z"/>
	<path fill="#FFFFFF" d="M1349.492,237.77c8.201,0,12.551,5.95,12.551,13.551c0,7.551-4.35,13.501-12.551,13.501
		c-8.2,0-12.551-5.95-12.551-13.501C1336.941,243.72,1341.292,237.77,1349.492,237.77z M1349.492,261.071
		c4.45,0,8.051-3.5,8.051-9.75s-3.601-9.8-8.051-9.8s-8.05,3.55-8.05,9.8S1345.042,261.071,1349.492,261.071z"/>
	<path fill="#FFFFFF" d="M1367.041,238.37h4v4.1h0.101c1.8-3.2,4.65-4.7,8.4-4.7c6.8,0,8.9,3.9,8.9,9.451v17.001h-4.25V246.72
		c0-3.2-2-5.2-5.251-5.2c-5.15,0-7.65,3.45-7.65,8.1v14.601h-4.25V238.37z"/>
	<path fill="#FFFFFF" d="M183.364,348.519h24.651v4h-19.901v11.351h18.551v4h-18.551v12.351h20.051v4h-24.801V348.519z"/>
	<path fill="#FFFFFF" d="M213.213,358.37h4v4.1h0.1c1.8-3.2,4.65-4.7,8.401-4.7c6.8,0,8.9,3.9,8.9,9.451v17.001h-4.25V366.72
		c0-3.2-2-5.2-5.25-5.2c-5.15,0-7.65,3.45-7.65,8.1v14.601h-4.25V358.37z"/>
	<path fill="#FFFFFF" d="M243.613,376.071c0.15,3.8,3.5,5,6.951,5c2.65,0,6.25-0.6,6.25-3.85c0-6.65-16.901-2.15-16.901-12.101
		c0-5.2,5.101-7.351,9.65-7.351c5.801,0,10.201,1.8,10.601,8.101h-4.25c-0.25-3.3-3.25-4.35-6-4.35c-2.55,0-5.5,0.7-5.5,3.3
		c0,3,4.5,3.601,8.45,4.5c4.25,0.95,8.451,2.4,8.451,7.351c0,6.2-5.75,8.15-11,8.15c-5.801,0-10.701-2.35-10.951-8.75H243.613z"/>
	<path fill="#FFFFFF" d="M287.415,384.221h-4v-4.1h-0.1c-1.8,3.2-4.65,4.7-8.401,4.7c-6.8,0-8.9-3.9-8.9-9.451V358.37h4.25v17.501
		c0,3.2,2,5.2,5.25,5.2c5.15,0,7.65-3.45,7.65-8.1V358.37h4.25V384.221z"/>
	<path fill="#FFFFFF" d="M293.663,358.37h4v5.45h0.1c2.05-4.2,4.9-6.2,9.5-6.05v4.5c-6.85,0-9.351,3.85-9.351,10.451v11.5h-4.25
		V358.37z"/>
	<path fill="#FFFFFF" d="M332.514,376.021c-1.15,5.75-5.2,8.801-11.051,8.801c-8.25,0-12.15-5.75-12.4-13.601
		c0-7.8,5.1-13.451,12.15-13.451c9.151,0,11.951,8.551,11.701,14.801h-19.351c-0.15,4.5,2.4,8.5,8.051,8.5
		c3.55,0,5.95-1.65,6.7-5.05H332.514z M328.414,368.82c-0.25-4.05-3.2-7.3-7.451-7.3c-4.4,0-7.15,3.3-7.4,7.3H328.414z"/>
	<path fill="#FFFFFF" d="M357.112,358.37h5.15v3.75h-5.15v16.051c0,2,0.55,2.3,3.2,2.3h1.95v3.75h-3.25c-4.4,0-6.15-0.9-6.15-5.65
		V362.12h-4.4v-3.75h4.4v-7.75h4.25V358.37z"/>
	<path fill="#FFFFFF" d="M366.961,348.519h4.25v13.651h0.1c1.35-3.15,5.101-4.4,8.151-4.4c6.8,0,8.9,3.9,8.9,9.451v17.001h-4.25
		V366.72c0-3.2-2-5.2-5.25-5.2c-5.15,0-7.65,3.45-7.65,8.1v14.601h-4.25V348.519z"/>
	<path fill="#FFFFFF" d="M417.662,384.121c-0.75,0.45-1.8,0.7-3.05,0.7c-2.2,0-3.6-1.2-3.6-4c-2.35,2.8-5.5,4-9.101,4
		c-4.7,0-8.55-2.05-8.55-7.25c0-5.851,4.35-7.15,8.75-7.951c4.65-0.95,8.7-0.55,8.7-3.8c0-3.75-3.1-4.3-5.75-4.3
		c-3.601,0-6.25,1.1-6.451,4.9h-4.25c0.25-6.4,5.15-8.65,10.951-8.65c4.65,0,9.701,1.05,9.701,7.101v13.301c0,2,0,2.9,1.35,2.9
		c0.4,0,0.85-0.1,1.3-0.25V384.121z M410.762,370.871c-3.3,2.45-12.901,0.05-12.901,6.4c0,2.8,2.4,3.8,5,3.8
		c5.6,0,7.9-3.45,7.9-5.85V370.871z"/>
	<path fill="#FFFFFF" d="M427.511,358.37h5.15v3.75h-5.15v16.051c0,2,0.55,2.3,3.2,2.3h1.95v3.75h-3.25c-4.4,0-6.15-0.9-6.15-5.65
		V362.12h-4.4v-3.75h4.4v-7.75h4.25V358.37z"/>
	<path fill="#FFFFFF" d="M474.161,384.121c-0.75,0.45-1.8,0.7-3.05,0.7c-2.2,0-3.6-1.2-3.6-4c-2.35,2.8-5.5,4-9.101,4
		c-4.7,0-8.55-2.05-8.55-7.25c0-5.851,4.35-7.15,8.75-7.951c4.65-0.95,8.7-0.55,8.7-3.8c0-3.75-3.1-4.3-5.75-4.3
		c-3.601,0-6.25,1.1-6.451,4.9h-4.25c0.25-6.4,5.15-8.65,10.951-8.65c4.65,0,9.701,1.05,9.701,7.101v13.301c0,2,0,2.9,1.35,2.9
		c0.4,0,0.85-0.1,1.3-0.25V384.121z M467.261,370.871c-3.3,2.45-12.901,0.05-12.901,6.4c0,2.8,2.4,3.8,5,3.8
		c5.6,0,7.9-3.45,7.9-5.85V370.871z"/>
	<path fill="#FFFFFF" d="M492.009,358.37h4v4.1h0.1c1.8-3.2,4.65-4.7,8.401-4.7c6.8,0,8.9,3.9,8.9,9.451v17.001h-4.25V366.72
		c0-3.2-2-5.2-5.25-5.2c-5.15,0-7.65,3.45-7.65,8.1v14.601h-4.25V358.37z"/>
	<path fill="#FFFFFF" d="M530.96,357.77c8.2,0,12.551,5.95,12.551,13.551c0,7.551-4.351,13.501-12.551,13.501
		c-8.201,0-12.551-5.95-12.551-13.501C518.409,363.72,522.759,357.77,530.96,357.77z M530.96,381.071c4.45,0,8.05-3.5,8.05-9.75
		s-3.6-9.8-8.05-9.8c-4.451,0-8.051,3.55-8.051,9.8S526.509,381.071,530.96,381.071z"/>
	<path fill="#FFFFFF" d="M548.509,358.37h4v4.1h0.1c1.8-3.2,4.65-4.7,8.401-4.7c6.8,0,8.9,3.9,8.9,9.451v17.001h-4.25V366.72
		c0-3.2-2-5.2-5.25-5.2c-5.15,0-7.65,3.45-7.65,8.1v14.601h-4.25V358.37z"/>
	<path fill="#FFFFFF" d="M593.86,366.67c-0.65-3.25-2.851-5.15-6.4-5.15c-6.15,0-8.051,4.9-8.051,10.101c0,4.8,2.15,9.45,7.551,9.45
		c4.15,0,6.55-2.35,7.1-6.3h4.351c-0.95,6.351-4.851,10.051-11.401,10.051c-7.9,0-12.101-5.45-12.101-13.201s4-13.851,12.201-13.851
		c5.9,0,10.5,2.75,11.15,8.9H593.86z"/>
	<path fill="#FFFFFF" d="M614.309,357.77c8.2,0,12.551,5.95,12.551,13.551c0,7.551-4.351,13.501-12.551,13.501
		c-8.201,0-12.551-5.95-12.551-13.501C601.758,363.72,606.108,357.77,614.309,357.77z M614.309,381.071c4.45,0,8.05-3.5,8.05-9.75
		s-3.6-9.8-8.05-9.8c-4.451,0-8.051,3.55-8.051,9.8S609.858,381.071,614.309,381.071z"/>
	<path fill="#FFFFFF" d="M631.858,358.37h4v4.1h0.1c1.8-3.2,4.65-4.7,8.401-4.7c6.8,0,8.9,3.9,8.9,9.451v17.001h-4.25V366.72
		c0-3.2-2-5.2-5.25-5.2c-5.15,0-7.65,3.45-7.65,8.1v14.601h-4.25V358.37z"/>
	<path fill="#FFFFFF" d="M661.408,362.12h-4.35v-3.75h4.35v-3.85c0-4.2,2.5-6.4,7.15-6.4c0.8,0,1.95,0.15,2.75,0.4v3.7
		c-0.75-0.25-1.65-0.35-2.4-0.35c-2.05,0-3.25,0.65-3.25,2.9v3.6h5v3.75h-5v22.102h-4.25V362.12z"/>
	<path fill="#FFFFFF" d="M685.608,357.77c8.2,0,12.551,5.95,12.551,13.551c0,7.551-4.351,13.501-12.551,13.501
		c-8.201,0-12.551-5.95-12.551-13.501C673.057,363.72,677.407,357.77,685.608,357.77z M685.608,381.071c4.45,0,8.05-3.5,8.05-9.75
		s-3.6-9.8-8.05-9.8c-4.451,0-8.051,3.55-8.051,9.8S681.157,381.071,685.608,381.071z"/>
	<path fill="#FFFFFF" d="M703.007,358.37h4v5.45h0.1c2.05-4.2,4.9-6.2,9.5-6.05v4.5c-6.85,0-9.351,3.85-9.351,10.451v11.5h-4.25
		V358.37z"/>
	<path fill="#FFFFFF" d="M719.806,358.37h4v3.8h0.1c1.95-2.95,4.7-4.4,8.351-4.4c3.2,0,6.05,1.2,7.101,4.4
		c1.75-2.8,4.75-4.4,8.101-4.4c5.15,0,8.601,2.15,8.601,7.5v18.951h-4.25V367.27c0-3.2-0.85-5.75-5-5.75c-4.15,0-6.75,2.6-6.75,6.6
		v16.101h-4.25V367.27c0-3.35-1.05-5.75-4.85-5.75c-5,0-6.9,4.6-6.9,6.6v16.101h-4.25V358.37z"/>
	<path fill="#FFFFFF" d="M766.957,353.719h-4.25v-5.2h4.25V353.719z M762.706,358.37h4.25v25.852h-4.25V358.37z"/>
	<path fill="#FFFFFF" d="M773.555,358.37h4v4.1h0.1c1.8-3.2,4.65-4.7,8.401-4.7c6.8,0,8.9,3.9,8.9,9.451v17.001h-4.25V366.72
		c0-3.2-2-5.2-5.25-5.2c-5.15,0-7.65,3.45-7.65,8.1v14.601h-4.25V358.37z"/>
	<path fill="#FFFFFF" d="M823.656,382.021c0,8.451-3.8,12.701-12,12.701c-4.851,0-10.451-2-10.701-7.6h4.25
		c0.15,3.05,3.95,4.2,6.701,4.2c5.55,0,7.75-4,7.75-9.801v-1.7h-0.1c-1.45,3.15-4.75,4.7-8.051,4.7c-7.7,0-11.55-6.05-11.55-13.101
		c0-6.101,2.95-13.651,11.951-13.651c3.25,0,6.15,1.45,7.7,4.3h0.05v-3.7h4V382.021z M819.456,370.771c0-4.55-2-9.25-7.351-9.25
		c-5.45,0-7.65,4.45-7.65,9.4c0,4.65,1.7,9.851,7.301,9.851C817.356,380.771,819.456,375.621,819.456,370.771z"/>
	<path fill="#FFFFFF" d="M859.755,347.669c11.351,0,17.101,8.951,17.101,18.701s-5.75,18.701-17.101,18.701
		c-11.351,0-17.101-8.951-17.101-18.701S848.405,347.669,859.755,347.669z M859.755,381.071c8.701,0,12.351-7.5,12.351-14.701
		c0-7.201-3.65-14.701-12.351-14.701c-8.7,0-12.351,7.5-12.351,14.701C847.405,373.57,851.055,381.071,859.755,381.071z"/>
	<path fill="#FFFFFF" d="M883.704,362.12h-4.35v-3.75h4.35v-3.85c0-4.2,2.5-6.4,7.15-6.4c0.8,0,1.95,0.15,2.75,0.4v3.7
		c-0.75-0.25-1.65-0.35-2.4-0.35c-2.05,0-3.25,0.65-3.25,2.9v3.6h5v3.75h-5v22.102h-4.25V362.12z"/>
	<path fill="#FFFFFF" d="M898.503,362.12h-4.35v-3.75h4.35v-3.85c0-4.2,2.5-6.4,7.15-6.4c0.8,0,1.95,0.15,2.75,0.4v3.7
		c-0.75-0.25-1.65-0.35-2.4-0.35c-2.05,0-3.25,0.65-3.25,2.9v3.6h5v3.75h-5v22.102h-4.25V362.12z"/>
	<path fill="#FFFFFF" d="M933.604,376.021c-1.15,5.75-5.2,8.801-11.051,8.801c-8.25,0-12.15-5.75-12.4-13.601
		c0-7.8,5.1-13.451,12.15-13.451c9.151,0,11.951,8.551,11.701,14.801h-19.351c-0.15,4.5,2.4,8.5,8.051,8.5
		c3.55,0,5.95-1.65,6.7-5.05H933.604z M929.504,368.82c-0.25-4.05-3.2-7.3-7.451-7.3c-4.4,0-7.15,3.3-7.4,7.3H929.504z"/>
	<path fill="#FFFFFF" d="M938.252,358.37h4.001v5.45h0.1c2.05-4.2,4.9-6.2,9.501-6.05v4.5c-6.851,0-9.351,3.85-9.351,10.451v11.5
		h-4.251V358.37z"/>
	<path fill="#FFFFFF" d="M959.552,353.719h-4.25v-5.2h4.25V353.719z M955.302,358.37h4.25v25.852h-4.25V358.37z"/>
	<path fill="#FFFFFF" d="M966.151,358.37h4v4.1h0.101c1.8-3.2,4.65-4.7,8.4-4.7c6.8,0,8.9,3.9,8.9,9.451v17.001h-4.25V366.72
		c0-3.2-2-5.2-5.251-5.2c-5.15,0-7.65,3.45-7.65,8.1v14.601h-4.25V358.37z"/>
	<path fill="#FFFFFF" d="M1016.253,382.021c0,8.451-3.801,12.701-12.001,12.701c-4.851,0-10.451-2-10.701-7.6h4.251
		c0.149,3.05,3.95,4.2,6.7,4.2c5.55,0,7.75-4,7.75-9.801v-1.7h-0.1c-1.45,3.15-4.75,4.7-8.051,4.7c-7.7,0-11.551-6.05-11.551-13.101
		c0-6.101,2.95-13.651,11.951-13.651c3.25,0,6.15,1.45,7.7,4.3h0.05v-3.7h4.001V382.021z M1012.053,370.771
		c0-4.55-2.001-9.25-7.351-9.25c-5.45,0-7.65,4.45-7.65,9.4c0,4.65,1.699,9.851,7.3,9.851S1012.053,375.621,1012.053,370.771z"/>
	<path fill="#FFFFFF" d="M1041.051,353.719h-4.25v-5.2h4.25V353.719z M1036.801,358.37h4.25v25.852h-4.25V358.37z"/>
	<path fill="#FFFFFF" d="M1050.251,376.071c0.149,3.8,3.5,5,6.95,5c2.65,0,6.25-0.6,6.25-3.85c0-6.65-16.9-2.15-16.9-12.101
		c0-5.2,5.1-7.351,9.65-7.351c5.8,0,10.2,1.8,10.601,8.101h-4.25c-0.25-3.3-3.251-4.35-6.001-4.35c-2.55,0-5.5,0.7-5.5,3.3
		c0,3,4.5,3.601,8.45,4.5c4.25,0.95,8.45,2.4,8.45,7.351c0,6.2-5.75,8.15-11,8.15c-5.801,0-10.701-2.35-10.951-8.75H1050.251z"/>
	<path fill="#FFFFFF" d="M1086.551,358.37h4v4.1h0.101c1.8-3.2,4.65-4.7,8.4-4.7c6.8,0,8.9,3.9,8.9,9.451v17.001h-4.25V366.72
		c0-3.2-2-5.2-5.251-5.2c-5.15,0-7.65,3.45-7.65,8.1v14.601h-4.25V358.37z"/>
	<path fill="#FFFFFF" d="M1125.501,357.77c8.201,0,12.551,5.95,12.551,13.551c0,7.551-4.35,13.501-12.551,13.501
		c-8.2,0-12.551-5.95-12.551-13.501C1112.95,363.72,1117.301,357.77,1125.501,357.77z M1125.501,381.071
		c4.45,0,8.051-3.5,8.051-9.75s-3.601-9.8-8.051-9.8s-8.05,3.55-8.05,9.8S1121.051,381.071,1125.501,381.071z"/>
	<path fill="#FFFFFF" d="M1148.95,358.37h5.15v3.75h-5.15v16.051c0,2,0.55,2.3,3.2,2.3h1.95v3.75h-3.25c-4.4,0-6.15-0.9-6.15-5.65
		V362.12h-4.4v-3.75h4.4v-7.75h4.25V358.37z"/>
	<path fill="#FFFFFF" d="M1177.199,353.719h-4.25v-5.2h4.25V353.719z M1172.949,358.37h4.25v25.852h-4.25V358.37z"/>
	<path fill="#FFFFFF" d="M1183.799,358.37h4v4.1h0.101c1.8-3.2,4.65-4.7,8.4-4.7c6.8,0,8.9,3.9,8.9,9.451v17.001h-4.25V366.72
		c0-3.2-2-5.2-5.251-5.2c-5.15,0-7.65,3.45-7.65,8.1v14.601h-4.25V358.37z"/>
	<path fill="#FFFFFF" d="M1234.5,384.121c-0.75,0.45-1.8,0.7-3.05,0.7c-2.2,0-3.601-1.2-3.601-4c-2.351,2.8-5.5,4-9.101,4
		c-4.7,0-8.551-2.05-8.551-7.25c0-5.851,4.351-7.15,8.751-7.951c4.65-0.95,8.7-0.55,8.7-3.8c0-3.75-3.1-4.3-5.75-4.3
		c-3.601,0-6.251,1.1-6.45,4.9h-4.251c0.25-6.4,5.15-8.65,10.951-8.65c4.65,0,9.7,1.05,9.7,7.101v13.301c0,2,0,2.9,1.351,2.9
		c0.399,0,0.85-0.1,1.3-0.25V384.121z M1227.6,370.871c-3.3,2.45-12.9,0.05-12.9,6.4c0,2.8,2.399,3.8,5,3.8
		c5.601,0,7.9-3.45,7.9-5.85V370.871z"/>
	<path fill="#FFFFFF" d="M1261.55,384.221h-4.25v-3.5h-0.101c-1.4,2.85-4.65,4.1-8.25,4.1c-7.951,0-11.901-6.3-11.901-13.601
		c0-7.3,3.9-13.451,11.801-13.451c2.601,0,6.501,1,8.351,4.05h0.101v-13.301h4.25V384.221z M1249.549,381.071
		c5.75,0,7.9-4.95,7.9-9.75c0-5.05-2.3-9.8-8.15-9.8c-5.8,0-7.75,4.95-7.75,10C1241.549,376.371,1244.049,381.071,1249.549,381.071z
		"/>
	<path fill="#FFFFFF" d="M1279.748,384.221h-4.55l-9.601-25.852h4.75l7.251,21.551h0.1l7.051-21.551h4.45L1279.748,384.221z"/>
	<path fill="#FFFFFF" d="M1315.149,376.021c-1.15,5.75-5.201,8.801-11.051,8.801c-8.251,0-12.151-5.75-12.401-13.601
		c0-7.8,5.101-13.451,12.151-13.451c9.15,0,11.95,8.551,11.7,14.801h-19.351c-0.15,4.5,2.399,8.5,8.05,8.5
		c3.551,0,5.95-1.65,6.701-5.05H1315.149z M1311.049,368.82c-0.25-4.05-3.2-7.3-7.45-7.3c-4.4,0-7.15,3.3-7.4,7.3H1311.049z"/>
	<path fill="#FFFFFF" d="M1319.797,358.37h4.001v5.45h0.1c2.05-4.2,4.9-6.2,9.501-6.05v4.5c-6.851,0-9.351,3.85-9.351,10.451v11.5
		h-4.251V358.37z"/>
	<path fill="#FFFFFF" d="M1342.497,358.37h5.15v3.75h-5.15v16.051c0,2,0.55,2.3,3.2,2.3h1.95v3.75h-3.25c-4.4,0-6.15-0.9-6.15-5.65
		V362.12h-4.4v-3.75h4.4v-7.75h4.25V358.37z"/>
	<path fill="#FFFFFF" d="M1374.397,376.021c-1.15,5.75-5.201,8.801-11.051,8.801c-8.251,0-12.151-5.75-12.401-13.601
		c0-7.8,5.101-13.451,12.151-13.451c9.15,0,11.95,8.551,11.7,14.801h-19.351c-0.15,4.5,2.399,8.5,8.05,8.5
		c3.551,0,5.95-1.65,6.701-5.05H1374.397z M1370.297,368.82c-0.25-4.05-3.2-7.3-7.45-7.3c-4.4,0-7.15,3.3-7.4,7.3H1370.297z"/>
	<path fill="#FFFFFF" d="M1379.195,358.37h4v4.1h0.101c1.8-3.2,4.65-4.7,8.4-4.7c6.8,0,8.9,3.9,8.9,9.451v17.001h-4.25V366.72
		c0-3.2-2-5.2-5.251-5.2c-5.15,0-7.65,3.45-7.65,8.1v14.601h-4.25V358.37z"/>
	<path fill="#FFFFFF" d="M1412.896,358.37h5.15v3.75h-5.15v16.051c0,2,0.55,2.3,3.2,2.3h1.95v3.75h-3.25c-4.4,0-6.15-0.9-6.15-5.65
		V362.12h-4.4v-3.75h4.4v-7.75h4.25V358.37z"/>
	<path fill="#FFFFFF" d="M1422.994,348.519h4.25v35.702h-4.25V348.519z"/>
	<path fill="#FFFFFF" d="M1443.994,387.671c-2,5-3.7,6.9-7.5,6.9c-1,0-2-0.1-2.95-0.45v-3.9c0.8,0.25,1.649,0.6,2.5,0.6
		c1.75,0,2.7-0.8,3.5-2.35l1.75-4.4l-10.25-25.702h4.8l7.551,21.151h0.1l7.251-21.151h4.5L1443.994,387.671z"/>
	<path fill="#FFFFFF" d="M1494.146,384.221h-4v-4.1h-0.101c-1.8,3.2-4.65,4.7-8.4,4.7c-6.8,0-8.9-3.9-8.9-9.451V358.37h4.25v17.501
		c0,3.2,2,5.2,5.251,5.2c5.15,0,7.65-3.45,7.65-8.1V358.37h4.25V384.221z"/>
	<path fill="#FFFFFF" d="M1503.145,376.071c0.149,3.8,3.5,5,6.95,5c2.65,0,6.25-0.6,6.25-3.85c0-6.65-16.9-2.15-16.9-12.101
		c0-5.2,5.1-7.351,9.65-7.351c5.8,0,10.2,1.8,10.601,8.101h-4.25c-0.25-3.3-3.251-4.35-6.001-4.35c-2.55,0-5.5,0.7-5.5,3.3
		c0,3,4.5,3.601,8.45,4.5c4.25,0.95,8.45,2.4,8.45,7.351c0,6.2-5.75,8.15-11,8.15c-5.801,0-10.701-2.35-10.951-8.75H1503.145z"/>
	<path fill="#FFFFFF" d="M1547.596,376.021c-1.15,5.75-5.201,8.801-11.051,8.801c-8.251,0-12.151-5.75-12.401-13.601
		c0-7.8,5.101-13.451,12.151-13.451c9.15,0,11.95,8.551,11.7,14.801h-19.351c-0.15,4.5,2.399,8.5,8.05,8.5
		c3.551,0,5.95-1.65,6.701-5.05H1547.596z M1543.495,368.82c-0.25-4.05-3.2-7.3-7.45-7.3c-4.4,0-7.15,3.3-7.4,7.3H1543.495z"/>
	<path fill="#FFFFFF" d="M1575.495,384.221h-4.25v-3.5h-0.101c-1.4,2.85-4.65,4.1-8.25,4.1c-7.951,0-11.901-6.3-11.901-13.601
		c0-7.3,3.9-13.451,11.801-13.451c2.601,0,6.501,1,8.351,4.05h0.101v-13.301h4.25V384.221z M1563.494,381.071
		c5.75,0,7.9-4.95,7.9-9.75c0-5.05-2.3-9.8-8.15-9.8c-5.8,0-7.75,4.95-7.75,10C1555.494,376.371,1557.994,381.071,1563.494,381.071z
		"/>
	<path fill="#FFFFFF" d="M1607.094,357.77c8.201,0,12.551,5.95,12.551,13.551c0,7.551-4.35,13.501-12.551,13.501
		c-8.2,0-12.551-5.95-12.551-13.501C1594.543,363.72,1598.894,357.77,1607.094,357.77z M1607.094,381.071
		c4.45,0,8.051-3.5,8.051-9.75s-3.601-9.8-8.051-9.8s-8.05,3.55-8.05,9.8S1602.644,381.071,1607.094,381.071z"/>
	<path fill="#FFFFFF" d="M1624.492,358.37h4.001v5.45h0.1c2.05-4.2,4.9-6.2,9.501-6.05v4.5c-6.851,0-9.351,3.85-9.351,10.451v11.5
		h-4.251V358.37z"/>
	<path fill="#FFFFFF" d="M1678.294,384.221h-4.25v-3.5h-0.101c-1.4,2.85-4.65,4.1-8.25,4.1c-7.951,0-11.901-6.3-11.901-13.601
		c0-7.3,3.9-13.451,11.801-13.451c2.601,0,6.501,1,8.351,4.05h0.101v-13.301h4.25V384.221z M1666.293,381.071
		c5.75,0,7.9-4.95,7.9-9.75c0-5.05-2.3-9.8-8.15-9.8c-5.8,0-7.75,4.95-7.75,10C1658.293,376.371,1660.793,381.071,1666.293,381.071z
		"/>
	<path fill="#FFFFFF" d="M1689.342,353.719h-4.25v-5.2h4.25V353.719z M1685.092,358.37h4.25v25.852h-4.25V358.37z"/>
	<path fill="#FFFFFF" d="M1698.542,376.071c0.149,3.8,3.5,5,6.95,5c2.65,0,6.25-0.6,6.25-3.85c0-6.65-16.9-2.15-16.9-12.101
		c0-5.2,5.1-7.351,9.65-7.351c5.8,0,10.2,1.8,10.601,8.101h-4.25c-0.25-3.3-3.251-4.35-6.001-4.35c-2.55,0-5.5,0.7-5.5,3.3
		c0,3,4.5,3.601,8.45,4.5c4.25,0.95,8.45,2.4,8.45,7.351c0,6.2-5.75,8.15-11,8.15c-5.801,0-10.701-2.35-10.951-8.75H1698.542z"/>
	<path fill="#FFFFFF" d="M1726.842,358.37h5.15v3.75h-5.15v16.051c0,2,0.55,2.3,3.2,2.3h1.95v3.75h-3.25c-4.4,0-6.15-0.9-6.15-5.65
		V362.12h-4.4v-3.75h4.4v-7.75h4.25V358.37z"/>
	<path fill="#FFFFFF" d="M1736.54,358.37h4.001v5.45h0.1c2.05-4.2,4.9-6.2,9.501-6.05v4.5c-6.851,0-9.351,3.85-9.351,10.451v11.5
		h-4.251V358.37z"/>
	<path fill="#FFFFFF" d="M1757.84,353.719h-4.25v-5.2h4.25V353.719z M1753.59,358.37h4.25v25.852h-4.25V358.37z"/>
	<path fill="#FFFFFF" d="M1764.59,348.519h4.25v13.351h0.1c1.4-2.85,4.65-4.1,8.251-4.1c7.95,0,11.9,6.3,11.9,13.601
		c0,7.35-3.9,13.451-11.801,13.451c-2.6,0-6.5-1-8.351-4.05h-0.1v3.45h-4.25V348.519z M1776.59,361.52c-5.75,0-7.9,4.95-7.9,9.75
		c0,5.05,2.301,9.8,8.15,9.8c5.801,0,7.751-4.95,7.751-10C1784.591,366.22,1782.091,361.52,1776.59,361.52z"/>
	<path fill="#FFFFFF" d="M1815.49,384.221h-4v-4.1h-0.101c-1.8,3.2-4.65,4.7-8.4,4.7c-6.8,0-8.9-3.9-8.9-9.451V358.37h4.25v17.501
		c0,3.2,2,5.2,5.251,5.2c5.15,0,7.65-3.45,7.65-8.1V358.37h4.25V384.221z"/>
	<path fill="#FFFFFF" d="M1827.789,358.37h5.15v3.75h-5.15v16.051c0,2,0.55,2.3,3.2,2.3h1.95v3.75h-3.25c-4.4,0-6.15-0.9-6.15-5.65
		V362.12h-4.4v-3.75h4.4v-7.75h4.25V358.37z"/>
	<path fill="#FFFFFF" d="M1859.689,376.021c-1.15,5.75-5.201,8.801-11.051,8.801c-8.251,0-12.151-5.75-12.401-13.601
		c0-7.8,5.101-13.451,12.151-13.451c9.15,0,11.95,8.551,11.7,14.801h-19.351c-0.15,4.5,2.399,8.5,8.05,8.5
		c3.551,0,5.95-1.65,6.701-5.05H1859.689z M1855.589,368.82c-0.25-4.05-3.2-7.3-7.45-7.3c-4.4,0-7.15,3.3-7.4,7.3H1855.589z"/>
	<path fill="#FFFFFF" d="M1887.589,384.221h-4.25v-3.5h-0.101c-1.4,2.85-4.65,4.1-8.25,4.1c-7.951,0-11.901-6.3-11.901-13.601
		c0-7.3,3.9-13.451,11.801-13.451c2.601,0,6.501,1,8.351,4.05h0.101v-13.301h4.25V384.221z M1875.588,381.071
		c5.75,0,7.9-4.95,7.9-9.75c0-5.05-2.3-9.8-8.15-9.8c-5.8,0-7.75,4.95-7.75,10C1867.588,376.371,1870.088,381.071,1875.588,381.071z
		"/>
	<path fill="#FFFFFF" d="M183.563,468.519h4.75v35.702h-4.75V468.519z"/>
	<path fill="#FFFFFF" d="M195.613,478.37h4v4.1h0.1c1.8-3.2,4.65-4.7,8.401-4.7c6.8,0,8.9,3.9,8.9,9.451v17h-4.25v-17.5
		c0-3.2-2-5.2-5.25-5.2c-5.15,0-7.65,3.45-7.65,8.1v14.601h-4.25V478.37z"/>
	<path fill="#FFFFFF" d="M235.063,504.221h-4.55l-9.601-25.851h4.75l7.25,21.551h0.1l7.05-21.551h4.45L235.063,504.221z"/>
	<path fill="#FFFFFF" d="M270.464,496.021c-1.15,5.751-5.2,8.801-11.051,8.801c-8.25,0-12.15-5.75-12.4-13.601
		c0-7.8,5.1-13.451,12.15-13.451c9.151,0,11.951,8.551,11.701,14.801h-19.351c-0.15,4.5,2.4,8.5,8.051,8.5
		c3.55,0,5.95-1.649,6.7-5.05H270.464z M266.364,488.82c-0.25-4.05-3.2-7.3-7.451-7.3c-4.4,0-7.15,3.3-7.4,7.3H266.364z"/>
	<path fill="#FFFFFF" d="M277.862,496.071c0.15,3.8,3.5,5,6.951,5c2.65,0,6.25-0.599,6.25-3.85c0-6.65-16.901-2.15-16.901-12.101
		c0-5.2,5.1-7.351,9.65-7.351c5.801,0,10.201,1.8,10.601,8.101h-4.25c-0.25-3.3-3.25-4.35-6-4.35c-2.55,0-5.5,0.7-5.5,3.3
		c0,3,4.5,3.601,8.45,4.5c4.25,0.95,8.451,2.4,8.451,7.351c0,6.2-5.75,8.15-11,8.15c-5.801,0-10.701-2.351-10.951-8.75H277.862z"/>
	<path fill="#FFFFFF" d="M306.162,478.37h5.15v3.75h-5.15v16.051c0,2,0.55,2.3,3.2,2.3h1.95v3.75h-3.25c-4.4,0-6.15-0.899-6.15-5.65
		V482.12h-4.4v-3.75h4.4v-7.75h4.25V478.37z"/>
	<path fill="#FFFFFF" d="M320.512,473.719h-4.25v-5.2h4.25V473.719z M316.261,478.37h4.25v25.851h-4.25V478.37z"/>
	<path fill="#FFFFFF" d="M349.412,502.021c0,8.45-3.8,12.7-12,12.7c-4.851,0-10.451-2-10.701-7.601h4.25
		c0.15,3.051,3.95,4.201,6.701,4.201c5.55,0,7.75-4.001,7.75-9.801v-1.701h-0.1c-1.45,3.15-4.75,4.701-8.051,4.701
		c-7.7,0-11.55-6.051-11.55-13.101c0-6.101,2.95-13.651,11.951-13.651c3.25,0,6.15,1.45,7.7,4.3h0.05v-3.7h4V502.021z
		 M345.211,490.771c0-4.55-2-9.25-7.351-9.25c-5.45,0-7.65,4.45-7.65,9.4c0,4.65,1.7,9.851,7.3,9.851
		C343.111,500.771,345.211,495.621,345.211,490.771z"/>
	<path fill="#FFFFFF" d="M378.711,504.121c-0.75,0.45-1.8,0.7-3.05,0.7c-2.2,0-3.6-1.2-3.6-4c-2.35,2.8-5.5,4-9.101,4
		c-4.7,0-8.55-2.05-8.55-7.25c0-5.851,4.35-7.15,8.75-7.951c4.65-0.95,8.7-0.55,8.7-3.8c0-3.75-3.1-4.3-5.75-4.3
		c-3.601,0-6.25,1.1-6.451,4.9h-4.25c0.25-6.4,5.15-8.65,10.951-8.65c4.65,0,9.701,1.05,9.701,7.101v13.301c0,2,0,2.899,1.35,2.899
		c0.4,0,0.85-0.099,1.3-0.25V504.121z M371.811,490.871c-3.3,2.45-12.901,0.05-12.901,6.4c0,2.8,2.4,3.799,5,3.799
		c5.6,0,7.9-3.45,7.9-5.85V490.871z"/>
	<path fill="#FFFFFF" d="M388.56,478.37h5.15v3.75h-5.15v16.051c0,2,0.55,2.3,3.2,2.3h1.95v3.75h-3.25c-4.4,0-6.15-0.899-6.15-5.65
		V482.12h-4.4v-3.75h4.4v-7.75h4.25V478.37z"/>
	<path fill="#FFFFFF" d="M420.46,496.021c-1.15,5.751-5.2,8.801-11.051,8.801c-8.25,0-12.15-5.75-12.4-13.601
		c0-7.8,5.1-13.451,12.15-13.451c9.151,0,11.951,8.551,11.701,14.801h-19.351c-0.15,4.5,2.4,8.5,8.051,8.5
		c3.55,0,5.95-1.649,6.7-5.05H420.46z M416.36,488.82c-0.25-4.05-3.2-7.3-7.451-7.3c-4.4,0-7.15,3.3-7.4,7.3H416.36z"/>
	<path fill="#FFFFFF" d="M445.058,478.37h5.15v3.75h-5.15v16.051c0,2,0.55,2.3,3.2,2.3h1.95v3.75h-3.25c-4.4,0-6.15-0.899-6.15-5.65
		V482.12h-4.4v-3.75h4.4v-7.75h4.25V478.37z"/>
	<path fill="#FFFFFF" d="M466.058,477.77c8.2,0,12.551,5.95,12.551,13.551c0,7.551-4.351,13.501-12.551,13.501
		c-8.201,0-12.551-5.95-12.551-13.501C453.507,483.72,457.857,477.77,466.058,477.77z M466.058,501.07c4.45,0,8.05-3.5,8.05-9.75
		s-3.6-9.8-8.05-9.8c-4.451,0-8.051,3.55-8.051,9.8S461.607,501.07,466.058,501.07z"/>
	<path fill="#FFFFFF" d="M497.657,478.37h4.25v3.5h0.1c1.4-2.85,4.65-4.1,8.25-4.1c7.95,0,11.9,6.3,11.9,13.601
		c0,7.35-3.9,13.451-11.801,13.451c-2.6,0-6.5-1-8.35-4.05h-0.1v13.35h-4.25V478.37z M509.658,481.52c-5.75,0-7.9,4.95-7.9,9.75
		c0,5.05,2.3,9.8,8.15,9.8c5.8,0,7.75-4.95,7.75-10C517.658,486.22,515.158,481.52,509.658,481.52z"/>
	<path fill="#FFFFFF" d="M527.006,478.37h4v5.45h0.1c2.05-4.2,4.9-6.2,9.5-6.05v4.5c-6.85,0-9.351,3.85-9.351,10.451v11.5h-4.25
		V478.37z"/>
	<path fill="#FFFFFF" d="M565.857,496.021c-1.15,5.751-5.2,8.801-11.051,8.801c-8.25,0-12.15-5.75-12.4-13.601
		c0-7.8,5.1-13.451,12.15-13.451c9.151,0,11.951,8.551,11.701,14.801h-19.351c-0.15,4.5,2.4,8.5,8.051,8.5
		c3.55,0,5.95-1.649,6.7-5.05H565.857z M561.757,488.82c-0.25-4.05-3.2-7.3-7.451-7.3c-4.4,0-7.15,3.3-7.4,7.3H561.757z"/>
	<path fill="#FFFFFF" d="M582.306,504.221h-4.55l-9.601-25.851h4.75l7.25,21.551h0.1l7.05-21.551h4.45L582.306,504.221z"/>
	<path fill="#FFFFFF" d="M617.707,496.021c-1.15,5.751-5.2,8.801-11.051,8.801c-8.25,0-12.15-5.75-12.4-13.601
		c0-7.8,5.1-13.451,12.15-13.451c9.151,0,11.951,8.551,11.701,14.801h-19.351c-0.15,4.5,2.4,8.5,8.051,8.5
		c3.55,0,5.95-1.649,6.7-5.05H617.707z M613.606,488.82c-0.25-4.05-3.2-7.3-7.451-7.3c-4.4,0-7.15,3.3-7.4,7.3H613.606z"/>
	<path fill="#FFFFFF" d="M622.505,478.37h4v4.1h0.1c1.8-3.2,4.65-4.7,8.401-4.7c6.8,0,8.9,3.9,8.9,9.451v17h-4.25v-17.5
		c0-3.2-2-5.2-5.25-5.2c-5.15,0-7.65,3.45-7.65,8.1v14.601h-4.25V478.37z"/>
	<path fill="#FFFFFF" d="M656.205,478.37h5.15v3.75h-5.15v16.051c0,2,0.55,2.3,3.2,2.3h1.95v3.75h-3.25c-4.4,0-6.15-0.899-6.15-5.65
		V482.12h-4.4v-3.75h4.4v-7.75h4.25V478.37z"/>
	<path fill="#FFFFFF" d="M679.804,478.37h4v5.45h0.1c2.05-4.2,4.9-6.2,9.5-6.05v4.5c-6.85,0-9.351,3.85-9.351,10.451v11.5h-4.25
		V478.37z"/>
	<path fill="#FFFFFF" d="M718.655,496.021c-1.15,5.751-5.2,8.801-11.051,8.801c-8.25,0-12.15-5.75-12.4-13.601
		c0-7.8,5.1-13.451,12.15-13.451c9.151,0,11.951,8.551,11.701,14.801h-19.351c-0.15,4.5,2.4,8.5,8.051,8.5
		c3.55,0,5.95-1.649,6.7-5.05H718.655z M714.555,488.82c-0.25-4.05-3.2-7.3-7.451-7.3c-4.4,0-7.15,3.3-7.4,7.3H714.555z"/>
	<path fill="#FFFFFF" d="M734.604,477.77c8.2,0,12.551,5.95,12.551,13.551c0,7.551-4.351,13.501-12.551,13.501
		c-8.201,0-12.551-5.95-12.551-13.501C722.053,483.72,726.403,477.77,734.604,477.77z M734.604,501.07c4.45,0,8.05-3.5,8.05-9.75
		s-3.6-9.8-8.05-9.8c-4.451,0-8.051,3.55-8.051,9.8S730.153,501.07,734.604,501.07z"/>
	<path fill="#FFFFFF" d="M769.704,486.67c-0.65-3.25-2.851-5.15-6.4-5.15c-6.15,0-8.051,4.9-8.051,10.101
		c0,4.8,2.15,9.45,7.551,9.45c4.15,0,6.55-2.35,7.1-6.3h4.351c-0.95,6.351-4.851,10.051-11.401,10.051
		c-7.9,0-12.101-5.45-12.101-13.201s4-13.851,12.201-13.851c5.9,0,10.5,2.75,11.15,8.9H769.704z"/>
	<path fill="#FFFFFF" d="M796.553,486.67c-0.65-3.25-2.851-5.15-6.4-5.15c-6.15,0-8.051,4.9-8.051,10.101
		c0,4.8,2.15,9.45,7.551,9.45c4.15,0,6.55-2.35,7.1-6.3h4.351c-0.95,6.351-4.851,10.051-11.401,10.051
		c-7.9,0-12.101-5.45-12.101-13.201s4-13.851,12.201-13.851c5.9,0,10.5,2.75,11.15,8.9H796.553z"/>
	<path fill="#FFFFFF" d="M827.253,504.221h-4v-4.1h-0.1c-1.8,3.2-4.65,4.7-8.401,4.7c-6.8,0-8.9-3.9-8.9-9.451V478.37h4.25v17.501
		c0,3.2,2,5.2,5.25,5.2c5.15,0,7.65-3.45,7.65-8.1V478.37h4.25V504.221z"/>
	<path fill="#FFFFFF" d="M833.501,478.37h4v5.45h0.1c2.05-4.2,4.9-6.2,9.5-6.05v4.5c-6.85,0-9.351,3.85-9.351,10.451v11.5h-4.25
		V478.37z"/>
	<path fill="#FFFFFF" d="M850.151,478.37h4v5.45h0.1c2.05-4.2,4.9-6.2,9.5-6.05v4.5c-6.85,0-9.351,3.85-9.351,10.451v11.5h-4.25
		V478.37z"/>
	<path fill="#FFFFFF" d="M889.001,496.021c-1.15,5.751-5.2,8.801-11.051,8.801c-8.25,0-12.15-5.75-12.4-13.601
		c0-7.8,5.1-13.451,12.15-13.451c9.151,0,11.951,8.551,11.701,14.801H870.05c-0.15,4.5,2.4,8.5,8.051,8.5
		c3.55,0,5.95-1.649,6.7-5.05H889.001z M884.901,488.82c-0.25-4.05-3.2-7.3-7.451-7.3c-4.4,0-7.15,3.3-7.4,7.3H884.901z"/>
	<path fill="#FFFFFF" d="M893.8,478.37h4v4.1h0.1c1.8-3.2,4.65-4.7,8.401-4.7c6.8,0,8.9,3.9,8.9,9.451v17h-4.25v-17.5
		c0-3.2-2-5.2-5.25-5.2c-5.15,0-7.65,3.45-7.65,8.1v14.601h-4.25V478.37z"/>
	<path fill="#FFFFFF" d="M939.15,486.67c-0.649-3.25-2.85-5.15-6.4-5.15c-6.15,0-8.051,4.9-8.051,10.101c0,4.8,2.15,9.45,7.551,9.45
		c4.15,0,6.55-2.35,7.1-6.3h4.351c-0.95,6.351-4.851,10.051-11.401,10.051c-7.9,0-12.101-5.45-12.101-13.201s4-13.851,12.201-13.851
		c5.9,0,10.501,2.75,11.15,8.9H939.15z"/>
	<path fill="#FFFFFF" d="M970.501,496.021c-1.15,5.751-5.201,8.801-11.051,8.801c-8.251,0-12.151-5.75-12.401-13.601
		c0-7.8,5.101-13.451,12.151-13.451c9.15,0,11.95,8.551,11.7,14.801H951.55c-0.15,4.5,2.399,8.5,8.05,8.5
		c3.551,0,5.95-1.649,6.701-5.05H970.501z M966.4,488.82c-0.25-4.05-3.2-7.3-7.45-7.3c-4.4,0-7.15,3.3-7.4,7.3H966.4z"/>
	<path fill="#FFFFFF" d="M193.064,588.52h5.25l13.951,35.701h-5.25l-3.9-10.75h-15.101l-4,10.75h-4.9L193.064,588.52z
		 M189.514,609.471h12.101l-5.95-16.651h-0.1L189.514,609.471z"/>
	<path fill="#FFFFFF" d="M215.213,598.369h4.25v3.5h0.1c1.4-2.85,4.65-4.1,8.25-4.1c7.95,0,11.9,6.301,11.9,13.602
		c0,7.35-3.9,13.449-11.801,13.449c-2.6,0-6.5-1-8.35-4.049h-0.1v13.35h-4.25V598.369z M227.214,601.52c-5.75,0-7.9,4.951-7.9,9.75
		c0,5.051,2.3,9.801,8.15,9.801c5.8,0,7.75-4.949,7.75-10C235.215,606.221,232.714,601.52,227.214,601.52z"/>
	<path fill="#FFFFFF" d="M244.863,598.369h4.25v3.5h0.1c1.4-2.85,4.65-4.1,8.25-4.1c7.95,0,11.9,6.301,11.9,13.602
		c0,7.35-3.9,13.449-11.801,13.449c-2.6,0-6.5-1-8.35-4.049h-0.1v13.35h-4.25V598.369z M256.864,601.52c-5.75,0-7.9,4.951-7.9,9.75
		c0,5.051,2.3,9.801,8.15,9.801c5.8,0,7.75-4.949,7.75-10C264.864,606.221,262.364,601.52,256.864,601.52z"/>
	<path fill="#FFFFFF" d="M274.212,598.369h4v5.451h0.1c2.05-4.201,4.9-6.201,9.5-6.051v4.5c-6.85,0-9.351,3.851-9.351,10.451v11.5
		h-4.25V598.369z"/>
	<path fill="#FFFFFF" d="M302.163,597.77c8.2,0,12.551,5.95,12.551,13.551c0,7.551-4.351,13.5-12.551,13.5
		c-8.201,0-12.551-5.949-12.551-13.5C289.612,603.72,293.962,597.77,302.163,597.77z M302.163,621.07c4.45,0,8.05-3.5,8.05-9.75
		s-3.6-9.801-8.05-9.801c-4.451,0-8.051,3.551-8.051,9.801S297.712,621.07,302.163,621.07z"/>
	<path fill="#FFFFFF" d="M319.861,598.369h4.25v3.5h0.1c1.4-2.85,4.65-4.1,8.25-4.1c7.95,0,11.9,6.301,11.9,13.602
		c0,7.35-3.9,13.449-11.801,13.449c-2.6,0-6.5-1-8.35-4.049h-0.1v13.35h-4.25V598.369z M331.862,601.52c-5.75,0-7.9,4.951-7.9,9.75
		c0,5.051,2.3,9.801,8.15,9.801c5.8,0,7.75-4.949,7.75-10C339.863,606.221,337.362,601.52,331.862,601.52z"/>
	<path fill="#FFFFFF" d="M349.211,598.369h4v5.451h0.1c2.05-4.201,4.9-6.201,9.5-6.051v4.5c-6.85,0-9.351,3.851-9.351,10.451v11.5
		h-4.25V598.369z"/>
	<path fill="#FFFFFF" d="M370.511,593.719h-4.25v-5.199h4.25V593.719z M366.26,598.369h4.25v25.852h-4.25V598.369z"/>
	<path fill="#FFFFFF" d="M400.011,624.121c-0.75,0.449-1.8,0.699-3.05,0.699c-2.2,0-3.6-1.199-3.6-4c-2.35,2.801-5.5,4-9.101,4
		c-4.7,0-8.55-2.049-8.55-7.25c0-5.85,4.35-7.15,8.75-7.949c4.65-0.951,8.7-0.551,8.7-3.801c0-3.75-3.1-4.301-5.75-4.301
		c-3.601,0-6.25,1.1-6.451,4.9h-4.25c0.25-6.4,5.15-8.65,10.951-8.65c4.65,0,9.701,1.051,9.701,7.101v13.3c0,2.002,0,2.9,1.35,2.9
		c0.4,0,0.85-0.1,1.3-0.25V624.121z M393.11,610.871c-3.3,2.449-12.901,0.049-12.901,6.4c0,2.799,2.4,3.799,5,3.799
		c5.6,0,7.9-3.449,7.9-5.85V610.871z"/>
	<path fill="#FFFFFF" d="M409.859,598.369h5.15v3.75h-5.15v16.051c0,2.002,0.55,2.301,3.2,2.301h1.95v3.75h-3.25
		c-4.4,0-6.15-0.9-6.15-5.65v-16.451h-4.4v-3.75h4.4v-7.75h4.25V598.369z"/>
	<path fill="#FFFFFF" d="M441.76,616.021c-1.15,5.75-5.2,8.799-11.051,8.799c-8.25,0-12.15-5.75-12.4-13.6
		c0-7.801,5.1-13.451,12.15-13.451c9.151,0,11.951,8.551,11.701,14.801h-19.351c-0.15,4.5,2.4,8.5,8.051,8.5
		c3.55,0,5.95-1.65,6.7-5.049H441.76z M437.66,608.82c-0.25-4.051-3.2-7.301-7.451-7.301c-4.4,0-7.15,3.301-7.4,7.301H437.66z"/>
	<path fill="#FFFFFF" d="M446.808,588.52h4.25v35.701h-4.25V588.52z"/>
	<path fill="#FFFFFF" d="M467.807,627.672c-2,5-3.7,6.9-7.5,6.9c-1,0-2-0.1-2.95-0.451v-3.9c0.8,0.25,1.65,0.602,2.5,0.602
		c1.75,0,2.7-0.801,3.5-2.352l1.75-4.4l-10.251-25.701h4.8l7.551,21.152h0.1l7.25-21.152h4.5L467.807,627.672z"/>
	<path fill="#FFFFFF" d="M519.658,624.221h-4.25v-3.5h-0.1c-1.4,2.85-4.65,4.1-8.25,4.1c-7.95,0-11.9-6.299-11.9-13.6
		s3.9-13.451,11.8-13.451c2.601,0,6.5,1,8.351,4.051h0.1V588.52h4.25V624.221z M507.657,621.07c5.75,0,7.9-4.949,7.9-9.75
		c0-5.051-2.3-9.801-8.15-9.801c-5.8,0-7.75,4.951-7.75,10C499.657,616.371,502.157,621.07,507.657,621.07z"/>
	<path fill="#FFFFFF" d="M530.707,593.719h-4.25v-5.199h4.25V593.719z M526.456,598.369h4.25v25.852h-4.25V598.369z"/>
	<path fill="#FFFFFF" d="M539.905,616.07c0.15,3.801,3.5,5,6.951,5c2.65,0,6.25-0.6,6.25-3.85c0-6.65-16.901-2.15-16.901-12.101
		c0-5.2,5.101-7.351,9.65-7.351c5.801,0,10.201,1.801,10.601,8.101h-4.25c-0.25-3.3-3.25-4.351-6-4.351c-2.55,0-5.5,0.7-5.5,3.301
		c0,3,4.5,3.6,8.45,4.5c4.25,0.949,8.451,2.4,8.451,7.35c0,6.201-5.75,8.15-11,8.15c-5.801,0-10.701-2.35-10.951-8.75H539.905z"/>
	<path fill="#FFFFFF" d="M562.455,598.369h4.25v3.5h0.1c1.4-2.85,4.65-4.1,8.25-4.1c7.95,0,11.9,6.301,11.9,13.602
		c0,7.35-3.9,13.449-11.801,13.449c-2.6,0-6.5-1-8.35-4.049h-0.1v13.35h-4.25V598.369z M574.456,601.52c-5.75,0-7.9,4.951-7.9,9.75
		c0,5.051,2.3,9.801,8.15,9.801c5.8,0,7.75-4.949,7.75-10C582.457,606.221,579.956,601.52,574.456,601.52z"/>
	<path fill="#FFFFFF" d="M603.105,597.77c8.2,0,12.551,5.95,12.551,13.551c0,7.551-4.351,13.5-12.551,13.5
		c-8.201,0-12.551-5.949-12.551-13.5C590.555,603.72,594.905,597.77,603.105,597.77z M603.105,621.07c4.45,0,8.05-3.5,8.05-9.75
		s-3.6-9.801-8.05-9.801c-4.451,0-8.051,3.551-8.051,9.801S598.655,621.07,603.105,621.07z"/>
	<path fill="#FFFFFF" d="M623.254,616.07c0.15,3.801,3.5,5,6.951,5c2.65,0,6.25-0.6,6.25-3.85c0-6.65-16.901-2.15-16.901-12.101
		c0-5.2,5.1-7.351,9.65-7.351c5.801,0,10.201,1.801,10.601,8.101h-4.25c-0.25-3.3-3.25-4.351-6-4.351c-2.55,0-5.5,0.7-5.5,3.301
		c0,3,4.5,3.6,8.45,4.5c4.25,0.949,8.451,2.4,8.451,7.35c0,6.201-5.75,8.15-11,8.15c-5.801,0-10.701-2.35-10.951-8.75H623.254z"/>
	<path fill="#FFFFFF" d="M650.155,593.719h-4.25v-5.199h4.25V593.719z M645.904,598.369h4.25v25.852h-4.25V598.369z"/>
	<path fill="#FFFFFF" d="M662.654,598.369h5.15v3.75h-5.15v16.051c0,2.002,0.55,2.301,3.2,2.301h1.95v3.75h-3.25
		c-4.4,0-6.15-0.9-6.15-5.65v-16.451h-4.4v-3.75h4.4v-7.75h4.25V598.369z"/>
	<path fill="#FFFFFF" d="M677.003,593.719h-4.25v-5.199h4.25V593.719z M672.753,598.369h4.25v25.852h-4.25V598.369z"/>
	<path fill="#FFFFFF" d="M694.753,597.77c8.2,0,12.551,5.95,12.551,13.551c0,7.551-4.351,13.5-12.551,13.5
		c-8.201,0-12.551-5.949-12.551-13.5C682.202,603.72,686.552,597.77,694.753,597.77z M694.753,621.07c4.45,0,8.05-3.5,8.05-9.75
		s-3.6-9.801-8.05-9.801c-4.451,0-8.051,3.551-8.051,9.801S690.302,621.07,694.753,621.07z"/>
	<path fill="#FFFFFF" d="M712.302,598.369h4v4.101h0.1c1.8-3.2,4.65-4.7,8.401-4.7c6.8,0,8.9,3.9,8.9,9.451v17h-4.25v-17.5
		c0-3.201-2-5.201-5.25-5.201c-5.15,0-7.65,3.451-7.65,8.102v14.6h-4.25V598.369z"/>
	<path fill="#FFFFFF" d="M776.903,624.121c-0.75,0.449-1.8,0.699-3.05,0.699c-2.2,0-3.6-1.199-3.6-4c-2.35,2.801-5.5,4-9.101,4
		c-4.7,0-8.55-2.049-8.55-7.25c0-5.85,4.35-7.15,8.75-7.949c4.65-0.951,8.7-0.551,8.7-3.801c0-3.75-3.1-4.301-5.75-4.301
		c-3.601,0-6.25,1.1-6.451,4.9h-4.25c0.25-6.4,5.15-8.65,10.951-8.65c4.65,0,9.701,1.051,9.701,7.101v13.3c0,2.002,0,2.9,1.35,2.9
		c0.4,0,0.85-0.1,1.3-0.25V624.121z M770.002,610.871c-3.3,2.449-12.901,0.049-12.901,6.4c0,2.799,2.4,3.799,5,3.799
		c5.6,0,7.9-3.449,7.9-5.85V610.871z"/>
	<path fill="#FFFFFF" d="M794.75,598.369h4v4.101h0.1c1.8-3.2,4.65-4.7,8.401-4.7c6.8,0,8.9,3.9,8.9,9.451v17h-4.25v-17.5
		c0-3.201-2-5.201-5.25-5.201c-5.15,0-7.65,3.451-7.65,8.102v14.6h-4.25V598.369z"/>
	<path fill="#FFFFFF" d="M833.701,597.77c8.2,0,12.551,5.95,12.551,13.551c0,7.551-4.351,13.5-12.551,13.5
		c-8.201,0-12.551-5.949-12.551-13.5C821.15,603.72,825.5,597.77,833.701,597.77z M833.701,621.07c4.45,0,8.05-3.5,8.05-9.75
		s-3.6-9.801-8.05-9.801c-4.451,0-8.051,3.551-8.051,9.801S829.25,621.07,833.701,621.07z"/>
	<path fill="#FFFFFF" d="M851.25,598.369h4v4.101h0.1c1.8-3.2,4.65-4.7,8.401-4.7c6.8,0,8.9,3.9,8.9,9.451v17h-4.25v-17.5
		c0-3.201-2-5.201-5.25-5.201c-5.15,0-7.65,3.451-7.65,8.102v14.6h-4.25V598.369z"/>
	<path fill="#FFFFFF" d="M896.601,606.67c-0.65-3.25-2.851-5.15-6.4-5.15c-6.15,0-8.051,4.9-8.051,10.102
		c0,4.799,2.15,9.449,7.551,9.449c4.15,0,6.55-2.35,7.1-6.299h4.351c-0.95,6.35-4.851,10.049-11.401,10.049
		c-7.9,0-12.101-5.449-12.101-13.199c0-7.751,4-13.852,12.201-13.852c5.9,0,10.5,2.75,11.15,8.9H896.601z"/>
	<path fill="#FFFFFF" d="M917.05,597.77c8.2,0,12.551,5.95,12.551,13.551c0,7.551-4.351,13.5-12.551,13.5
		c-8.201,0-12.551-5.949-12.551-13.5C904.5,603.72,908.85,597.77,917.05,597.77z M917.05,621.07c4.45,0,8.05-3.5,8.05-9.75
		s-3.6-9.801-8.05-9.801c-4.451,0-8.051,3.551-8.051,9.801S912.6,621.07,917.05,621.07z"/>
	<path fill="#FFFFFF" d="M934.599,598.369h4v4.101h0.1c1.8-3.2,4.65-4.7,8.4-4.7c6.801,0,8.9,3.9,8.9,9.451v17h-4.25v-17.5
		c0-3.201-2-5.201-5.25-5.201c-5.15,0-7.65,3.451-7.65,8.102v14.6h-4.25V598.369z"/>
	<path fill="#FFFFFF" d="M964.149,602.119h-4.351v-3.75h4.351v-3.85c0-4.2,2.5-6.4,7.15-6.4c0.8,0,1.95,0.15,2.75,0.4v3.699
		c-0.75-0.25-1.649-0.35-2.399-0.35c-2.051,0-3.251,0.65-3.251,2.9v3.6h5.001v3.75h-5.001v22.102h-4.25V602.119z"/>
	<path fill="#FFFFFF" d="M988.35,597.77c8.201,0,12.551,5.95,12.551,13.551c0,7.551-4.35,13.5-12.551,13.5
		c-8.2,0-12.551-5.949-12.551-13.5C975.799,603.72,980.149,597.77,988.35,597.77z M988.35,621.07c4.45,0,8.051-3.5,8.051-9.75
		s-3.601-9.801-8.051-9.801s-8.05,3.551-8.05,9.801S983.899,621.07,988.35,621.07z"/>
	<path fill="#FFFFFF" d="M1005.748,598.369h4.001v5.451h0.1c2.05-4.201,4.9-6.201,9.501-6.051v4.5
		c-6.851,0-9.351,3.851-9.351,10.451v11.5h-4.251V598.369z"/>
	<path fill="#FFFFFF" d="M1022.548,598.369h4v3.801h0.101c1.95-2.95,4.7-4.4,8.351-4.4c3.2,0,6.05,1.2,7.1,4.4
		c1.751-2.801,4.751-4.4,8.101-4.4c5.15,0,8.601,2.15,8.601,7.5v18.951h-4.25V607.27c0-3.199-0.85-5.75-5-5.75
		s-6.751,2.601-6.751,6.601v16.101h-4.25V607.27c0-3.35-1.05-5.75-4.851-5.75c-5,0-6.9,4.601-6.9,6.601v16.101h-4.25V598.369z"/>
	<path fill="#FFFFFF" d="M1069.697,593.719h-4.25v-5.199h4.25V593.719z M1065.447,598.369h4.25v25.852h-4.25V598.369z"/>
	<path fill="#FFFFFF" d="M1076.297,598.369h4v4.101h0.101c1.8-3.2,4.65-4.7,8.4-4.7c6.8,0,8.9,3.9,8.9,9.451v17h-4.25v-17.5
		c0-3.201-2-5.201-5.251-5.201c-5.15,0-7.65,3.451-7.65,8.102v14.6h-4.25V598.369z"/>
	<path fill="#FFFFFF" d="M1126.398,622.021c0,8.449-3.801,12.701-12.001,12.701c-4.851,0-10.451-2-10.701-7.602h4.251
		c0.149,3.051,3.95,4.201,6.7,4.201c5.55,0,7.75-4,7.75-9.801v-1.701h-0.1c-1.45,3.15-4.75,4.701-8.051,4.701
		c-7.7,0-11.551-6.051-11.551-13.102c0-6.1,2.95-13.65,11.951-13.65c3.25,0,6.15,1.45,7.7,4.301h0.05v-3.701h4.001V622.021z
		 M1122.198,610.77c0-4.549-2.001-9.25-7.351-9.25c-5.45,0-7.65,4.451-7.65,9.4c0,4.65,1.7,9.852,7.3,9.852
		C1120.098,620.771,1122.198,615.621,1122.198,610.77z"/>
	<path fill="#FFFFFF" d="M1162.497,587.669c11.351,0,17.102,8.95,17.102,18.701s-5.751,18.7-17.102,18.7s-17.101-8.949-17.101-18.7
		S1151.146,587.669,1162.497,587.669z M1162.497,621.07c8.701,0,12.351-7.5,12.351-14.7s-3.649-14.7-12.351-14.7
		c-8.7,0-12.351,7.5-12.351,14.7S1153.797,621.07,1162.497,621.07z"/>
	<path fill="#FFFFFF" d="M1186.446,602.119h-4.351v-3.75h4.351v-3.85c0-4.2,2.5-6.4,7.15-6.4c0.8,0,1.95,0.15,2.75,0.4v3.699
		c-0.75-0.25-1.649-0.35-2.399-0.35c-2.051,0-3.251,0.65-3.251,2.9v3.6h5.001v3.75h-5.001v22.102h-4.25V602.119z"/>
	<path fill="#FFFFFF" d="M1201.246,602.119h-4.351v-3.75h4.351v-3.85c0-4.2,2.5-6.4,7.15-6.4c0.8,0,1.95,0.15,2.75,0.4v3.699
		c-0.75-0.25-1.649-0.35-2.399-0.35c-2.051,0-3.251,0.65-3.251,2.9v3.6h5.001v3.75h-5.001v22.102h-4.25V602.119z"/>
	<path fill="#FFFFFF" d="M1236.348,616.021c-1.15,5.75-5.201,8.799-11.051,8.799c-8.251,0-12.151-5.75-12.401-13.6
		c0-7.801,5.101-13.451,12.151-13.451c9.15,0,11.95,8.551,11.7,14.801h-19.351c-0.15,4.5,2.399,8.5,8.05,8.5
		c3.551,0,5.95-1.65,6.701-5.049H1236.348z M1232.247,608.82c-0.25-4.051-3.2-7.301-7.45-7.301c-4.4,0-7.15,3.301-7.4,7.301
		H1232.247z"/>
	<path fill="#FFFFFF" d="M1240.995,598.369h4.001v5.451h0.1c2.05-4.201,4.9-6.201,9.501-6.051v4.5
		c-6.851,0-9.351,3.851-9.351,10.451v11.5h-4.251V598.369z"/>
	<path fill="#FFFFFF" d="M1262.295,593.719h-4.25v-5.199h4.25V593.719z M1258.045,598.369h4.25v25.852h-4.25V598.369z"/>
	<path fill="#FFFFFF" d="M1268.895,598.369h4v4.101h0.101c1.8-3.2,4.65-4.7,8.4-4.7c6.8,0,8.9,3.9,8.9,9.451v17h-4.25v-17.5
		c0-3.201-2-5.201-5.251-5.201c-5.15,0-7.65,3.451-7.65,8.102v14.6h-4.25V598.369z"/>
	<path fill="#FFFFFF" d="M1318.996,622.021c0,8.449-3.801,12.701-12.001,12.701c-4.851,0-10.451-2-10.701-7.602h4.251
		c0.149,3.051,3.95,4.201,6.7,4.201c5.55,0,7.75-4,7.75-9.801v-1.701h-0.1c-1.45,3.15-4.75,4.701-8.051,4.701
		c-7.7,0-11.551-6.051-11.551-13.102c0-6.1,2.95-13.65,11.951-13.65c3.25,0,6.15,1.45,7.7,4.301h0.05v-3.701h4.001V622.021z
		 M1314.796,610.77c0-4.549-2.001-9.25-7.351-9.25c-5.45,0-7.65,4.451-7.65,9.4c0,4.65,1.7,9.852,7.3,9.852
		C1312.695,620.771,1314.796,615.621,1314.796,610.77z"/>
</g>
<line fill="none" stroke="#343636" stroke-width="4" stroke-miterlimit="10" x1="53.283" y1="54.113" x2="1919.92" y2="54.113"/>
<g>
	<path fill="#231F20" d="M44.339,74.607h5.843l5.935,25.119h0.092l6.625-25.119h5.889l6.441,25.119h0.092l6.119-25.119h5.843
		l-9.063,32.848H72.31l-6.579-25.119H65.64l-6.717,25.119h-5.935L44.339,74.607z"/>
	<path fill="#231F20" d="M90.247,74.607h5.245v12.191h0.092c1.288-2.162,4.002-3.772,7.13-3.772c5.199,0,8.419,2.714,8.419,8.097
		v16.332h-5.245V92.503c-0.138-3.727-1.518-5.336-4.646-5.336c-3.496,0-5.75,2.76-5.75,6.256v14.032h-5.245V74.607z"/>
	<path fill="#231F20" d="M114.028,83.67h5.75l6.21,17.758h0.092l6.027-17.758h5.475l-9.247,25.073
		c-1.702,4.278-2.898,8.143-8.419,8.143c-1.242,0-2.438-0.092-3.635-0.276v-4.417c0.875,0.138,1.61,0.322,2.484,0.322
		c2.393,0,3.083-1.288,3.681-3.312l0.598-1.84L114.028,83.67z"/>
	<path fill="#231F20" d="M175.716,107.455h-4.969v-3.22h-0.092c-1.427,2.76-4.371,3.864-7.361,3.864
		c-7.499,0-11.133-5.566-11.133-12.697c0-8.649,5.106-12.375,10.305-12.375c2.944,0,6.303,1.104,7.913,3.727h0.092V74.607h5.245
		V107.455z M163.985,103.958c4.646,0,6.671-4.278,6.671-8.419c0-5.291-2.53-8.373-6.579-8.373c-4.923,0-6.671,4.417-6.671,8.649
		C157.406,99.91,159.43,103.958,163.985,103.958z"/>
	<path fill="#231F20" d="M180.313,95.54c0-7.223,4.416-12.513,12.007-12.513c7.592,0,12.008,5.291,12.008,12.513
		c0,7.315-4.416,12.56-12.008,12.56C184.729,108.099,180.313,102.854,180.313,95.54z M199.083,95.54c0-4.094-2.07-8.373-6.764-8.373
		c-4.692,0-6.763,4.278-6.763,8.373c0,4.141,2.07,8.419,6.763,8.419C197.013,103.958,199.083,99.68,199.083,95.54z"/>
	<path fill="#231F20" d="M219.32,83.67h5.567l4.646,17.758h0.092l4.463-17.758h5.29l4.278,17.758h0.093l4.83-17.758h5.337
		l-7.453,23.785h-5.383l-4.416-17.666h-0.093l-4.37,17.666h-5.521L219.32,83.67z"/>
	<path fill="#231F20" d="M261.365,96.92c0,3.727,2.024,7.039,6.395,7.039c3.083,0,4.877-1.334,5.797-3.956h4.969
		c-1.104,5.198-5.612,8.097-10.766,8.097c-7.498,0-11.639-5.152-11.639-12.513c0-6.763,4.416-12.56,11.501-12.56
		c7.499,0,12.1,6.763,11.226,13.894H261.365z M273.602,93.47c-0.229-3.312-2.392-6.303-5.98-6.303c-3.634,0-6.118,2.76-6.257,6.303
		H273.602z"/>
	<path fill="#231F20" d="M295.635,83.67h4.968v3.497l0.093,0.092c1.609-2.622,4.278-4.232,7.406-4.232
		c5.199,0,8.419,2.714,8.419,8.097v16.332h-5.244V92.503c-0.139-3.727-1.519-5.336-4.646-5.336c-3.497,0-5.751,2.76-5.751,6.256
		v14.032h-5.244V83.67z"/>
	<path fill="#231F20" d="M326.132,96.92c0,3.727,2.024,7.039,6.395,7.039c3.083,0,4.877-1.334,5.797-3.956h4.969
		c-1.104,5.198-5.612,8.097-10.766,8.097c-7.498,0-11.639-5.152-11.639-12.513c0-6.763,4.416-12.56,11.501-12.56
		c7.499,0,12.1,6.763,11.226,13.894H326.132z M338.37,93.47c-0.229-3.312-2.392-6.303-5.98-6.303c-3.634,0-6.118,2.76-6.257,6.303
		H338.37z"/>
	<path fill="#231F20" d="M351.708,96.92c0,3.727,2.024,7.039,6.395,7.039c3.083,0,4.877-1.334,5.797-3.956h4.969
		c-1.104,5.198-5.612,8.097-10.766,8.097c-7.498,0-11.639-5.152-11.639-12.513c0-6.763,4.416-12.56,11.501-12.56
		c7.499,0,12.1,6.763,11.226,13.894H351.708z M363.946,93.47c-0.229-3.312-2.392-6.303-5.98-6.303c-3.634,0-6.118,2.76-6.257,6.303
		H363.946z"/>
	<path fill="#231F20" d="M395.595,107.455h-4.969v-3.22h-0.092c-1.427,2.76-4.371,3.864-7.361,3.864
		c-7.499,0-11.133-5.566-11.133-12.697c0-8.649,5.106-12.375,10.305-12.375c2.944,0,6.303,1.104,7.913,3.727h0.092V74.607h5.245
		V107.455z M383.864,103.958c4.646,0,6.671-4.278,6.671-8.419c0-5.291-2.53-8.373-6.579-8.373c-4.923,0-6.671,4.417-6.671,8.649
		C377.285,99.91,379.309,103.958,383.864,103.958z"/>
	<path fill="#231F20" d="M434.004,102.165c0,1.288,0.276,1.794,1.242,1.794h0.552c0.23,0,0.46-0.046,0.736-0.092v3.634
		c-0.782,0.276-2.438,0.598-3.312,0.598c-2.162,0-3.635-0.736-4.049-2.898c-2.069,2.024-5.428,2.898-8.234,2.898
		c-4.278,0-8.143-2.3-8.143-6.947c0-5.935,4.738-6.901,9.154-7.407c3.818-0.736,7.131-0.23,7.131-3.358
		c0-2.76-2.853-3.22-4.922-3.22c-2.944,0-5.015,1.196-5.245,3.772h-5.244c0.367-6.119,5.521-7.913,10.811-7.913
		c4.646,0,9.523,1.886,9.523,6.901V102.165z M428.759,95.54c-1.609,1.058-4.094,1.012-6.44,1.426
		c-2.254,0.368-4.278,1.196-4.278,3.957c0,2.392,2.99,3.036,4.83,3.036c2.301,0,5.889-1.196,5.889-4.508V95.54z"/>
	<path fill="#231F20" d="M452.586,83.67h4.969v3.22h0.092c1.472-2.76,4.278-3.864,7.36-3.864c7.499,0,11.134,5.659,11.134,12.651
		c0,6.441-3.267,12.421-10.259,12.421c-3.037,0-6.35-1.104-7.959-3.727h-0.093v11.87h-5.244V83.67z M464.318,87.167
		c-4.417,0-6.671,3.312-6.671,8.419c0,4.784,2.438,8.373,6.671,8.373c4.784,0,6.578-4.232,6.578-8.373
		C470.896,91.307,468.642,87.167,464.318,87.167z"/>
	<path fill="#231F20" d="M480.554,83.67h4.922v4.601h0.092c0.599-2.53,3.772-5.245,6.947-5.245c1.242,0,1.473,0.092,1.979,0.138
		v5.061c-0.736-0.138-1.519-0.23-2.255-0.23c-3.542,0-6.44,2.853-6.44,8.143v11.317h-5.244V83.67z"/>
	<path fill="#231F20" d="M495.641,95.54c0-7.223,4.416-12.513,12.007-12.513c7.592,0,12.008,5.291,12.008,12.513
		c0,7.315-4.416,12.56-12.008,12.56C500.057,108.099,495.641,102.854,495.641,95.54z M514.412,95.54c0-4.094-2.07-8.373-6.764-8.373
		c-4.692,0-6.763,4.278-6.763,8.373c0,4.141,2.07,8.419,6.763,8.419C512.341,103.958,514.412,99.68,514.412,95.54z"/>
	<path fill="#231F20" d="M540.079,91.629c-0.414-2.944-2.484-4.462-5.429-4.462c-2.715,0-6.533,1.472-6.533,8.649
		c0,3.956,1.748,8.143,6.303,8.143c3.083,0,5.153-1.978,5.659-5.428h5.244c-0.966,6.21-4.784,9.569-10.903,9.569
		c-7.452,0-11.547-5.291-11.547-12.283c0-7.177,3.91-12.79,11.731-12.79c5.521,0,10.213,2.76,10.719,8.603H540.079z"/>
	<path fill="#231F20" d="M553.693,96.92c0,3.727,2.024,7.039,6.395,7.039c3.083,0,4.877-1.334,5.797-3.956h4.969
		c-1.104,5.198-5.612,8.097-10.766,8.097c-7.498,0-11.639-5.152-11.639-12.513c0-6.763,4.416-12.56,11.501-12.56
		c7.499,0,12.1,6.763,11.226,13.894H553.693z M565.93,93.47c-0.229-3.312-2.392-6.303-5.98-6.303c-3.634,0-6.118,2.76-6.257,6.303
		H565.93z"/>
	<path fill="#231F20" d="M597.58,107.455h-4.969v-3.22h-0.092c-1.427,2.76-4.371,3.864-7.361,3.864
		c-7.499,0-11.133-5.566-11.133-12.697c0-8.649,5.106-12.375,10.305-12.375c2.944,0,6.303,1.104,7.913,3.727h0.092V74.607h5.245
		V107.455z M585.848,103.958c4.646,0,6.671-4.278,6.671-8.419c0-5.291-2.53-8.373-6.579-8.373c-4.923,0-6.671,4.417-6.671,8.649
		C579.269,99.91,581.293,103.958,585.848,103.958z"/>
	<path fill="#231F20" d="M624.167,107.455h-5.152v-3.312h-0.092c-1.288,2.393-4.141,3.957-6.763,3.957
		c-6.257,0-8.879-3.083-8.879-9.339V83.67h5.244v14.583c0,4.187,1.656,5.705,4.555,5.705c4.37,0,5.843-2.806,5.843-6.486V83.67
		h5.244V107.455z"/>
	<path fill="#231F20" d="M629.684,83.67h4.922v4.601h0.092c0.599-2.53,3.772-5.245,6.947-5.245c1.242,0,1.472,0.092,1.979,0.138
		v5.061c-0.736-0.138-1.519-0.23-2.255-0.23c-3.542,0-6.44,2.853-6.44,8.143v11.317h-5.244V83.67z"/>
	<path fill="#231F20" d="M649.969,96.92c0,3.727,2.024,7.039,6.396,7.039c3.082,0,4.876-1.334,5.796-3.956h4.969
		c-1.104,5.198-5.612,8.097-10.765,8.097c-7.499,0-11.64-5.152-11.64-12.513c0-6.763,4.416-12.56,11.501-12.56
		c7.499,0,12.1,6.763,11.226,13.894H649.969z M662.207,93.47c-0.229-3.312-2.392-6.303-5.98-6.303c-3.634,0-6.118,2.76-6.257,6.303
		H662.207z"/>
	<path fill="#231F20" d="M681.893,83.67h3.91v-1.978c0-6.073,3.175-7.085,6.579-7.085c1.702,0,2.898,0.092,3.681,0.322v4.095
		c-0.69-0.184-1.381-0.276-2.438-0.276c-1.427,0-2.576,0.506-2.576,2.484v2.438h4.462v3.911h-4.462v19.874h-5.245V87.581h-3.91
		V83.67z"/>
	<path fill="#231F20" d="M697.625,95.54c0-7.223,4.416-12.513,12.007-12.513c7.592,0,12.008,5.291,12.008,12.513
		c0,7.315-4.416,12.56-12.008,12.56C702.041,108.099,697.625,102.854,697.625,95.54z M716.395,95.54c0-4.094-2.07-8.373-6.764-8.373
		c-4.692,0-6.763,4.278-6.763,8.373c0,4.141,2.07,8.419,6.763,8.419C714.325,103.958,716.395,99.68,716.395,95.54z"/>
	<path fill="#231F20" d="M726.006,83.67h4.922v4.601h0.092c0.599-2.53,3.772-5.245,6.947-5.245c1.242,0,1.472,0.092,1.979,0.138
		v5.061c-0.736-0.138-1.519-0.23-2.255-0.23c-3.542,0-6.44,2.853-6.44,8.143v11.317h-5.244V83.67z"/>
	<path fill="#231F20" d="M754.986,83.67h4.968v3.497l0.093,0.092c1.609-2.622,4.278-4.232,7.406-4.232
		c5.199,0,8.419,2.714,8.419,8.097v16.332h-5.244V92.503c-0.139-3.727-1.519-5.336-4.646-5.336c-3.497,0-5.751,2.76-5.751,6.256
		v14.032h-5.244V83.67z"/>
	<path fill="#231F20" d="M780.285,95.54c0-7.223,4.416-12.513,12.007-12.513c7.592,0,12.008,5.291,12.008,12.513
		c0,7.315-4.416,12.56-12.008,12.56C784.701,108.099,780.285,102.854,780.285,95.54z M799.055,95.54c0-4.094-2.07-8.373-6.764-8.373
		c-4.692,0-6.763,4.278-6.763,8.373c0,4.141,2.07,8.419,6.763,8.419C796.985,103.958,799.055,99.68,799.055,95.54z"/>
	<path fill="#231F20" d="M808.667,83.67h4.968v3.497l0.093,0.092c1.609-2.622,4.278-4.232,7.406-4.232
		c5.199,0,8.419,2.714,8.419,8.097v16.332h-5.244V92.503c-0.139-3.727-1.519-5.336-4.646-5.336c-3.497,0-5.751,2.76-5.751,6.256
		v14.032h-5.244V83.67z"/>
	<path fill="#231F20" d="M851.125,91.629c-0.414-2.944-2.484-4.462-5.429-4.462c-2.715,0-6.533,1.472-6.533,8.649
		c0,3.956,1.748,8.143,6.303,8.143c3.083,0,5.153-1.978,5.659-5.428h5.244c-0.966,6.21-4.784,9.569-10.903,9.569
		c-7.452,0-11.547-5.291-11.547-12.283c0-7.177,3.91-12.79,11.731-12.79c5.521,0,10.213,2.76,10.719,8.603H851.125z"/>
	<path fill="#231F20" d="M859.542,95.54c0-7.223,4.416-12.513,12.007-12.513c7.592,0,12.008,5.291,12.008,12.513
		c0,7.315-4.416,12.56-12.008,12.56C863.958,108.099,859.542,102.854,859.542,95.54z M878.312,95.54c0-4.094-2.07-8.373-6.764-8.373
		c-4.692,0-6.763,4.278-6.763,8.373c0,4.141,2.07,8.419,6.763,8.419C876.242,103.958,878.312,99.68,878.312,95.54z"/>
	<path fill="#231F20" d="M887.923,83.67h4.968v3.497l0.093,0.092c1.609-2.622,4.278-4.232,7.406-4.232
		c5.199,0,8.419,2.714,8.419,8.097v16.332h-5.244V92.503c-0.139-3.727-1.519-5.336-4.646-5.336c-3.497,0-5.751,2.76-5.751,6.256
		v14.032h-5.244V83.67z"/>
	<path fill="#231F20" d="M911.98,83.67h3.91v-1.978c0-6.073,3.175-7.085,6.579-7.085c1.702,0,2.898,0.092,3.681,0.322v4.095
		c-0.69-0.184-1.381-0.276-2.438-0.276c-1.427,0-2.576,0.506-2.576,2.484v2.438h4.462v3.911h-4.462v19.874h-5.245V87.581h-3.91
		V83.67z"/>
	<path fill="#231F20" d="M927.711,95.54c0-7.223,4.416-12.513,12.007-12.513c7.592,0,12.008,5.291,12.008,12.513
		c0,7.315-4.416,12.56-12.008,12.56C932.127,108.099,927.711,102.854,927.711,95.54z M946.482,95.54c0-4.094-2.07-8.373-6.764-8.373
		c-4.692,0-6.763,4.278-6.763,8.373c0,4.141,2.07,8.419,6.763,8.419C944.412,103.958,946.482,99.68,946.482,95.54z"/>
	<path fill="#231F20" d="M956.093,83.67h4.922v4.601h0.092c0.599-2.53,3.772-5.245,6.947-5.245c1.242,0,1.473,0.092,1.979,0.138
		v5.061c-0.736-0.138-1.519-0.23-2.255-0.23c-3.542,0-6.44,2.853-6.44,8.143v11.317h-5.244V83.67z"/>
	<path fill="#231F20" d="M972.285,83.67h4.968v3.312h0.139c1.61-2.346,3.496-3.957,7.314-3.957c2.898,0,5.612,1.242,6.671,3.957
		c1.794-2.438,3.956-3.957,7.453-3.957c5.015,0,7.959,2.254,7.959,8.005v16.424h-5.245V93.562c0-3.818-0.229-6.395-4.324-6.395
		c-3.543,0-5.061,2.3-5.061,6.349v13.939h-5.245V92.181c0-3.312-1.012-5.014-4.187-5.014c-2.714,0-5.198,2.254-5.198,6.165v14.124
		h-5.244V83.67z"/>
	<path fill="#231F20" d="M1032.225,102.165c0,1.288,0.275,1.794,1.242,1.794h0.551c0.23,0,0.461-0.046,0.736-0.092v3.634
		c-0.781,0.276-2.438,0.598-3.312,0.598c-2.162,0-3.635-0.736-4.049-2.898c-2.068,2.024-5.427,2.898-8.234,2.898
		c-4.278,0-8.144-2.3-8.144-6.947c0-5.935,4.739-6.901,9.155-7.407c3.818-0.736,7.13-0.23,7.13-3.358c0-2.76-2.852-3.22-4.921-3.22
		c-2.944,0-5.015,1.196-5.245,3.772h-5.244c0.367-6.119,5.521-7.913,10.811-7.913c4.647,0,9.524,1.886,9.524,6.901V102.165z
		 M1026.979,95.54c-1.609,1.058-4.093,1.012-6.44,1.426c-2.254,0.368-4.278,1.196-4.278,3.957c0,2.392,2.99,3.036,4.83,3.036
		c2.301,0,5.888-1.196,5.888-4.508V95.54z"/>
	<path fill="#231F20" d="M1037.881,83.67h4.967v3.497l0.094,0.092c1.609-2.622,4.277-4.232,7.406-4.232
		c5.199,0,8.418,2.714,8.418,8.097v16.332h-5.244V92.503c-0.139-3.727-1.518-5.336-4.646-5.336c-3.496,0-5.75,2.76-5.75,6.256
		v14.032h-5.244V83.67z"/>
	<path fill="#231F20" d="M1080.34,91.629c-0.414-2.944-2.484-4.462-5.43-4.462c-2.715,0-6.533,1.472-6.533,8.649
		c0,3.956,1.748,8.143,6.303,8.143c3.084,0,5.154-1.978,5.66-5.428h5.244c-0.967,6.21-4.785,9.569-10.904,9.569
		c-7.451,0-11.547-5.291-11.547-12.283c0-7.177,3.91-12.79,11.732-12.79c5.52,0,10.213,2.76,10.719,8.603H1080.34z"/>
	<path fill="#231F20" d="M1093.953,96.92c0,3.727,2.025,7.039,6.396,7.039c3.082,0,4.875-1.334,5.795-3.956h4.969
		c-1.104,5.198-5.611,8.097-10.764,8.097c-7.5,0-11.641-5.152-11.641-12.513c0-6.763,4.416-12.56,11.502-12.56
		c7.498,0,12.1,6.763,11.225,13.894H1093.953z M1106.191,93.47c-0.23-3.312-2.393-6.303-5.98-6.303c-3.635,0-6.119,2.76-6.258,6.303
		H1106.191z"/>
	<path fill="#231F20" d="M1119.393,99.818c0.322,3.082,2.576,4.14,5.383,4.14c2.023,0,5.428-0.414,5.289-3.128
		c-0.137-2.76-3.955-3.082-7.773-3.956c-3.865-0.828-7.637-2.208-7.637-7.039c0-5.198,5.611-6.809,9.936-6.809
		c4.877,0,9.34,1.978,9.938,7.315h-5.475c-0.506-2.53-2.484-3.174-4.83-3.174c-1.518,0-4.324,0.368-4.324,2.438
		c0,2.576,3.863,2.99,7.729,3.818c3.818,0.874,7.684,2.254,7.684,6.947c0,5.659-5.705,7.729-10.627,7.729
		c-6.027,0-10.398-2.668-10.535-8.281H1119.393z"/>
	<path fill="#231F20" d="M1138.803,85.05c0-6.763,4.232-11.225,11.043-11.225c5.611,0,10.027,3.358,10.027,9.293
		c0,4.371-2.068,5.889-4.047,7.637c-2.348,1.978-4.049,3.358-4.049,7.775h-4.969c0-5.337,1.15-7.269,3.588-9.339
		c1.934-1.702,3.727-2.806,3.727-5.889c0-3.727-2.898-5.106-4.508-5.106c-3.818,0-5.566,2.668-5.566,6.854H1138.803z
		 M1146.119,101.705h6.164v5.75h-6.164V101.705z"/>
</g>
<path fill="#FFFFFF" d="M135.012,221.759c-5.642-5.638-13.446-9.124-22.044-9.124s-16.405,3.485-22.015,9.124
	c-5.658,5.624-9.144,13.437-9.144,22.026c0,8.607,3.485,16.402,9.144,22.042c5.609,5.623,13.417,9.121,22.015,9.121
	s16.402-3.498,22.031-9.121c5.634-5.641,9.127-13.436,9.127-22.042C144.126,235.196,140.634,227.383,135.012,221.759z
	 M130.906,261.741c-4.6,4.587-10.929,7.433-17.938,7.433c-7.012,0-13.341-2.846-17.946-7.433
	c-4.588-4.623-7.424-10.919-7.424-17.956c0-7.004,2.836-13.333,7.424-17.921c4.605-4.623,10.934-7.434,17.946-7.434
	c7.009,0,13.338,2.811,17.955,7.417c4.576,4.605,7.425,10.934,7.425,17.938C138.348,250.822,135.499,257.135,130.906,261.741z
	 M118.135,230.127h-8.626l10.469,10.502H96.9v6.087h23.009l-10.401,10.401h8.626l13.496-13.507L118.135,230.127z"/>
<path fill="#FFFFFF" d="M135.012,343.426c-5.642-5.638-13.446-9.124-22.044-9.124s-16.405,3.485-22.015,9.124
	c-5.658,5.624-9.144,13.437-9.144,22.026c0,8.607,3.485,16.402,9.144,22.042c5.609,5.623,13.417,9.121,22.015,9.121
	s16.402-3.498,22.031-9.121c5.634-5.641,9.127-13.436,9.127-22.042C144.126,356.863,140.634,349.05,135.012,343.426z
	 M130.906,383.408c-4.6,4.587-10.929,7.433-17.938,7.433c-7.012,0-13.341-2.846-17.946-7.433
	c-4.588-4.623-7.424-10.919-7.424-17.956c0-7.004,2.836-13.333,7.424-17.921c4.605-4.623,10.934-7.434,17.946-7.434
	c7.009,0,13.338,2.811,17.955,7.417c4.576,4.605,7.425,10.934,7.425,17.938C138.348,372.489,135.499,378.802,130.906,383.408z
	 M118.135,351.794h-8.626l10.469,10.502H96.9v6.087h23.009l-10.401,10.401h8.626l13.496-13.507L118.135,351.794z"/>
<path fill="#FFFFFF" d="M135.012,466.879c-5.642-5.639-13.446-9.124-22.044-9.124s-16.405,3.485-22.015,9.124
	c-5.658,5.623-9.144,13.437-9.144,22.025c0,8.607,3.485,16.402,9.144,22.043c5.609,5.623,13.417,9.121,22.015,9.121
	s16.402-3.498,22.031-9.121c5.634-5.641,9.127-13.436,9.127-22.043C144.126,480.315,140.634,472.502,135.012,466.879z
	 M130.906,506.86c-4.6,4.587-10.929,7.433-17.938,7.433c-7.012,0-13.341-2.846-17.946-7.433c-4.588-4.623-7.424-10.919-7.424-17.956
	c0-7.004,2.836-13.332,7.424-17.92c4.605-4.623,10.934-7.434,17.946-7.434c7.009,0,13.338,2.811,17.955,7.416
	c4.576,4.605,7.425,10.934,7.425,17.938C138.348,495.941,135.499,502.254,130.906,506.86z M118.135,475.246h-8.626l10.469,10.502
	H96.9v6.088h23.009l-10.401,10.401h8.626l13.496-13.507L118.135,475.246z"/>
<path fill="#FFFFFF" d="M135.012,590.312c-5.642-5.639-13.446-9.124-22.044-9.124s-16.405,3.485-22.015,9.124
	c-5.658,5.623-9.144,13.437-9.144,22.025c0,8.607,3.485,16.402,9.144,22.043c5.609,5.623,13.417,9.121,22.015,9.121
	s16.402-3.498,22.031-9.121c5.634-5.641,9.127-13.436,9.127-22.043C144.126,603.748,140.634,595.935,135.012,590.312z
	 M130.906,630.293c-4.6,4.587-10.929,7.433-17.938,7.433c-7.012,0-13.341-2.846-17.946-7.433
	c-4.588-4.623-7.424-10.919-7.424-17.956c0-7.004,2.836-13.332,7.424-17.92c4.605-4.623,10.934-7.434,17.946-7.434
	c7.009,0,13.338,2.811,17.955,7.416c4.576,4.605,7.425,10.934,7.425,17.938C138.348,619.374,135.499,625.687,130.906,630.293z
	 M118.135,598.679h-8.626l10.469,10.502H96.9v6.088h23.009l-10.401,10.401h8.626l13.496-13.507L118.135,598.679z"/>
</svg>
