<?xml version="1.0" encoding="utf-8"?>
<!-- Generator: Adobe Illustrator 16.0.3, SVG Export Plug-In . SVG Version: 6.00 Build 0)  -->
<!DOCTYPE svg PUBLIC "-//W3C//DTD SVG 1.1//EN" "http://www.w3.org/Graphics/SVG/1.1/DTD/svg11.dtd">
<svg version="1.1" id="Layer_1" xmlns="http://www.w3.org/2000/svg" xmlns:xlink="http://www.w3.org/1999/xlink" x="0px" y="0px"
	 width="2048px" height="1000px" viewBox="0 0 2048 1000" enable-background="new 0 0 2048 1000" xml:space="preserve">
<rect fill="#B9E5FB" width="2048" height="1000"/>
<rect x="965.725" y="1469.961" fill="none" width="1226.361" height="80.672"/>
<text transform="matrix(1 0 0 1 965.7246 1489.9531)"><tspan x="0" y="0" fill="#333333" font-family="'HelveticaNeueLTPro-Roman'" font-size="28">•  The lead can close the report if it remains open for more than 30 days without a response or if a </tspan><tspan x="30" y="35.6" fill="#333333" font-family="'HelveticaNeueLTPro-Roman'" font-size="28">customer requests closure</tspan></text>
<rect x="1.5" fill="#4EA8DE" width="689.1" height="1001.818"/>
<rect x="1.5" y="640.118" fill="#116BB4" width="689.1" height="360.601"/>
<g enable-background="new    ">
	<g>
		<defs>
			<rect id="SVGID_1_" x="62.747" y="72.794" width="98.806" height="49.45"/>
		</defs>
		<clipPath id="SVGID_2_">
			<use xlink:href="#SVGID_1_"  overflow="visible"/>
		</clipPath>
		<g clip-path="url(#SVGID_2_)">
			<text transform="matrix(1 0 0 1 62.7471 112.2158)" fill="#FFFFFF" font-family="'HelveticaNeueLTPro-Bd'" font-size="46">Who</text>
		</g>
	</g>
</g>
<line fill="none" stroke="#343636" stroke-width="4" stroke-miterlimit="10" x1="62.7" y1="53.718" x2="668" y2="53.718"/>
<g enable-background="new    ">
	<g>
		<defs>
			<rect id="SVGID_3_" x="742.213" y="72.794" width="96.277" height="49.588"/>
		</defs>
		<clipPath id="SVGID_4_">
			<use xlink:href="#SVGID_3_"  overflow="visible"/>
		</clipPath>
		<g clip-path="url(#SVGID_4_)">
			<text transform="matrix(1 0 0 1 742.2129 112.2158)" fill="#231F20" font-family="'HelveticaNeueLTPro-Md'" font-size="46">How</text>
		</g>
	</g>
</g>
<line fill="none" stroke="#343636" stroke-width="4" stroke-miterlimit="10" x1="742.2" y1="53.718" x2="1996.1" y2="53.718"/>
<g>
	<path fill="#FFFFFF" d="M598.1,615.742H72.7c-5.5,0-10-5.222-10-11.604V321.246c0-6.382,4.5-11.604,10-11.604h525.4
		c5.5,0,10,5.222,10,11.604v282.893C608.1,610.521,603.6,615.742,598.1,615.742"/>
	<path fill="#EFEFF0" d="M599.2,309.642H263v306.1h336.2c4.9,0,8.9-4.642,8.9-10.327V319.969
		C608.1,314.284,604.1,309.642,599.2,309.642"/>
	<path fill="#89C240" d="M202.6,497.842h-95.7c-5.5,0-10-4.5-10-10V379.942c0-5.5,4.5-10,10-10h95.7c5.5,0,10,4.5,10,10v107.899
		C212.6,493.342,208.1,497.842,202.6,497.842"/>
	<rect x="85" y="526.942" fill="#8CC63F" width="1.2" height="12.8"/>
	<path fill="#8CC63F" d="M88.6,526.942H94c2.1,0,4.1,0.699,4.1,3.1c0,1.3-0.9,2.6-2.2,2.9c1.7,0.199,2.7,1.5,2.7,3.1
		c0,1.2-0.4,3.6-4.6,3.6h-5.4V526.942z M89.8,532.542H94c1.9,0,2.9-1,2.9-2.2c0-1.6-1-2.399-2.9-2.399h-4.2V532.542z M89.8,538.642
		H94c1.8,0,3.4-0.6,3.4-2.6c0-1.7-1.2-2.5-3.4-2.5h-4.2V538.642z"/>
	<polygon fill="#8CC63F" points="100.6,526.942 102.4,526.942 106.8,538.142 111.2,526.942 113,526.942 113,539.742 111.8,539.742 
		111.8,528.642 107.4,539.742 106.2,539.742 101.8,528.642 101.8,539.742 100.6,539.742 	"/>
	<polygon fill="#173E68" points="130.2,539.642 127.4,539.642 125.2,530.942 123.1,539.642 120.2,539.642 116.8,526.842 
		119.6,526.842 121.6,535.542 123.8,526.842 126.4,526.842 128.6,535.642 130.7,526.842 133.5,526.842 	"/>
	<path fill="#173E68" d="M133.9,533.142c0.2-2.399,2.3-3.1,4.4-3.1c1.8,0,4.1,0.4,4.1,2.6v4.801c0,0.8,0.1,1.699,0.3,2.1h-2.6
		c-0.1-0.3-0.2-0.6-0.2-0.9c-0.8,0.801-2,1.2-3.1,1.2c-1.8,0-3.1-0.899-3.1-2.8c0-4.2,6.3-2,6.2-4c0-1.1-0.7-1.2-1.7-1.2
		s-1.6,0.4-1.7,1.4h-2.6V533.142z M139.8,535.042c-0.4,0.4-1.3,0.4-2.1,0.5c-0.8,0.2-1.5,0.4-1.5,1.4s0.7,1.199,1.6,1.199
		c2,0,2.1-1.6,2.1-2.1v-1H139.8z"/>
	<path fill="#173E68" d="M147.5,530.342h1.9v1.7h-1.9v4.6c0,0.9,0.2,1.101,1.1,1.101c0.3,0,0.6,0,0.8-0.101v2
		c-0.4,0.101-1,0.101-1.5,0.101c-1.6,0-2.9-0.3-2.9-2.2v-5.5h-1.6v-1.7h1.6v-2.8h2.6L147.5,530.342z"/>
	<path fill="#173E68" d="M152.6,536.642c0,1.101,1,1.601,2,1.601c0.7,0,1.7-0.3,1.7-1.2c0-0.8-1.1-1.1-2.9-1.4c-1.5-0.3-3-0.8-3-2.5
		c0-2.399,2.1-3,4-3c2,0,3.9,0.7,4.1,3h-2.4c-0.1-1-0.8-1.199-1.7-1.199c-0.6,0-1.4,0.1-1.4,0.899c0,0.9,1.5,1,2.9,1.4
		c1.5,0.3,3,0.899,3,2.6c0,2.4-2.1,3.2-4.2,3.2c-2.1,0-4.3-0.8-4.4-3.3h2.3V536.642z"/>
	<path fill="#173E68" d="M164.6,530.142c2.9,0,4.8,1.9,4.8,4.9s-1.9,4.9-4.8,4.9s-4.8-1.9-4.8-4.9S161.6,530.142,164.6,530.142
		 M164.6,537.942c1.7,0,2.3-1.5,2.3-3s-0.5-3-2.3-3c-1.7,0-2.2,1.5-2.2,3S162.8,537.942,164.6,537.942"/>
	<path fill="#173E68" d="M170.6,530.342h2.4v1.3h0.1c0.7-1.1,1.7-1.6,2.8-1.6c2.7,0,3.4,1.5,3.4,3.8v5.7h-2.6v-5.2
		c0-1.5-0.4-2.3-1.6-2.3c-1.4,0-2,0.8-2,2.6v4.9h-2.6L170.6,530.342z"/>
	<polygon fill="#173E68" points="184.4,526.842 187.2,526.842 187.2,531.742 192.4,531.742 192.4,526.842 195.2,526.842 
		195.2,539.642 192.4,539.642 192.4,534.142 187.2,534.142 187.2,539.642 184.4,539.642 	"/>
	<path fill="#173E68" d="M199.4,535.642c0.1,1.601,0.8,2.4,2.3,2.4c1,0,1.8-0.6,2-1.2h2.2c-0.7,2.2-2.2,3.101-4.3,3.101
		c-2.9,0-4.7-2-4.7-4.9c0-2.8,1.9-4.9,4.7-4.9c3.1,0,4.7,2.601,4.5,5.5H199.4z M203.5,533.942c-0.2-1.301-0.8-2-2-2
		c-1.7,0-2.1,1.199-2.1,2H203.5z"/>
	<path fill="#173E68" d="M207.6,533.142c0.2-2.399,2.3-3.1,4.4-3.1c1.8,0,4.1,0.4,4.1,2.6v4.801c0,0.8,0.1,1.699,0.3,2.1h-2.6
		c-0.1-0.3-0.2-0.6-0.2-0.9c-0.8,0.801-2,1.2-3.1,1.2c-1.8,0-3.1-0.899-3.1-2.8c0-4.2,6.3-2,6.2-4c0-1.1-0.7-1.2-1.7-1.2
		s-1.6,0.4-1.7,1.4h-2.6V533.142z M213.4,535.042c-0.4,0.4-1.3,0.4-2.1,0.5c-0.8,0.2-1.5,0.4-1.5,1.4s0.7,1.199,1.6,1.199
		c2,0,2.1-1.6,2.1-2.1v-1H213.4z"/>
	<path fill="#173E68" d="M225.7,530.342h1.9v1.7h-1.9v4.6c0,0.9,0.2,1.101,1.1,1.101c0.3,0,0.6,0,0.8-0.101v2
		c-0.4,0.101-1,0.101-1.5,0.101c-1.6,0-2.9-0.3-2.9-2.2v-5.5h-1.6v-1.7h1.6v-2.8h2.6v2.8H225.7z"/>
	<path fill="#173E68" d="M229.2,526.842h2.6v4.8h0.1c0.7-1.1,1.7-1.6,2.7-1.6c2.7,0,3.4,1.5,3.4,3.8v5.7h-2.6v-5.2
		c0-1.5-0.4-2.3-1.6-2.3c-1.4,0-2,0.8-2,2.6v4.9h-2.6V526.842z"/>
	<rect x="217.9" y="526.842" fill="#173E68" width="2.6" height="12.8"/>
	<g>
		<defs>
			<path id="SVGID_5_" d="M106.9,369.942c-5.5,0-10,4.5-10,10v107.899c0,5.5,4.5,10,10,10h95.7c5.5,0,10-4.5,10-10V379.942
				c0-5.5-4.5-10-10-10H106.9z"/>
		</defs>
		<clipPath id="SVGID_6_">
			<use xlink:href="#SVGID_5_"  overflow="visible"/>
		</clipPath>
		<path clip-path="url(#SVGID_6_)" fill="#DAE1E6" d="M134.9,459.242c2.8,5.399,10.4,11.8,20.1,11.8c9.2,0,16.8-6.3,20.1-11.7
			c-3.3,6.2-10.6,12.8-20.1,12.7C145.5,472.042,137.6,465.342,134.9,459.242"/>
	</g>
	<rect x="292.46" y="335.67" fill="none" width="289.674" height="135.921"/>
	<text transform="matrix(1 0 0 1 292.46 355.6621)"><tspan x="0" y="0" fill="#231F20" font-family="'HelveticaNeueLTPro-Md'" font-size="28">The Central </tspan><tspan x="0" y="33.6" fill="#231F20" font-family="'HelveticaNeueLTPro-Md'" font-size="28">Complaint Handling </tspan><tspan x="0" y="67.2" fill="#231F20" font-family="'HelveticaNeueLTPro-Md'" font-size="28">Team (CCHT) </tspan><tspan x="0" y="100.8" fill="#231F20" font-family="'HelveticaNeueLTPro-Md'" font-size="28">Representative   </tspan></text>
	<rect x="292.46" y="508.576" fill="none" width="299.376" height="87.829"/>
	<text transform="matrix(1 0 0 1 292.46 525.7119)"><tspan x="0" y="0" fill="#333333" font-family="'HelveticaNeueLTPro-Roman'" font-size="24">is responsible for receiving </tspan><tspan x="0" y="28.8" fill="#333333" font-family="'HelveticaNeueLTPro-Roman'" font-size="24">and evaluating complaints</tspan></text>
	<g>
		<defs>
			<path id="SVGID_7_" d="M106.75,369.942c-5.5,0-10,4.5-10,10v107.9c0,5.5,4.5,10,10,10h95.699c5.5,0,10-4.5,10-10v-107.9
				c0-5.5-4.5-10-10-10H106.75z"/>
		</defs>
		<clipPath id="SVGID_8_">
			<use xlink:href="#SVGID_7_"  overflow="visible"/>
		</clipPath>
		<path clip-path="url(#SVGID_8_)" fill="#E3CCA4" d="M141.05,427.542h26.1l2.8,32.399c0.2,2.3,2,4,4.2,4h0.5l-6.8,6.4l-13.4,19.5
			l-13.3-19.9l-7-6l1-0.2c2-0.3,3.5-2,3.7-4.1L141.05,427.542z"/>
		<path clip-path="url(#SVGID_8_)" fill="#D4C5A3" d="M154.449,489.941L154.449,489.941l-13.3-19.898l-7-6l1-0.2
			c2-0.3,3.5-2,3.7-4.101l1.9-25.899h13.8v56.099H154.449z"/>
		<path clip-path="url(#SVGID_8_)" fill="#CCBC97" d="M139.449,450.342l29.7,0.1l0.101,1.4c-0.5,0.8-0.801,1.3-1.301,2.1
			c-3.8,5.7-8.8,9.5-13.6,9.5s-9.8-3.899-13.6-9.5c-0.601-0.899-1-1.5-1.5-2.399L139.449,450.342z"/>
		<path clip-path="url(#SVGID_8_)" fill="#ECF0F1" d="M130.35,464.142l6.9-1.3l6.899,2.8c1.2,0.5,2,1.3,2.5,2.5l7.8,17.1l7.801-17.9
			c0.5-1.1,1.399-1.799,2.5-2.299l6.5-2.4l6,1.3l4.399,1.3l7.5,42.801h-69.3l6.5-42.301L130.35,464.142z"/>
		<path clip-path="url(#SVGID_8_)" fill="#2C3E50" d="M196.649,500.441c0.101-15.5-1-31.898-19.1-36.399
			c1.5,2.899,0.399,5.399,3.3,13.6l-13.7-7.6c-4.3,10.398-8.7,20.898-13,31.299l-13-31.299l-13.7,7.6c2.9-8,1.9-10.701,3.2-13.5
			c-17.399,4.799-18.5,21-18.399,36.2c0,4.201,3.399,7.701,7.5,7.701h69.3C193.25,508.043,196.649,504.643,196.649,500.441"/>
		<path clip-path="url(#SVGID_8_)" fill="#7D7662" d="M134.35,449.142c-29.4-47.7,16.5-65.7,18.3-59.1c0.5,1.7,0.601,0.9,1.7,0.1
			c14-9.9,44.6,21.8,20,59.3c-1.6,0.4-3.5,0.8-5.6,1.101l-0.101,0.199c1.8-2.5,3.4-5.399,4.601-8.699c0.6-1.9,1.199-4,1.699-6
			c0.5-2.101,0.801-4.2,1.101-6.2c0.1-0.9,0.1-1.7,0.2-2.601c0-0.8,0.1-1.7,0.1-2.7v-1.7c0-0.5,0-1-0.1-1.6
			c-0.5-4.5-6.601-5.5-13.2-6.6c-7.7-1.3-15.9-2.6-19.2-9.5h-0.1c-3.301,2.8-9.4,8.1-10.7,17.9c-0.101,0.9-0.2,1.8-0.2,2.7v2.9
			c0.7,8.6,3.3,16.2,7.2,21.7C137.85,450.042,135.949,449.642,134.35,449.142"/>
		<path clip-path="url(#SVGID_8_)" fill="#FFE7BD" d="M173.25,442.042c0.6-1.9,1.199-4,1.699-6c0.5-2.101,0.801-4.2,1.101-6.2
			c0.1-0.9,0.1-1.7,0.2-2.601c0-0.8,0.1-1.7,0.1-2.7v-1.7c0-0.5,0-1-0.1-1.6c-0.5-4.5-6.601-5.5-13.2-6.6
			c-7.7-1.3-15.9-2.6-19.2-9.5h-0.1c-3.301,2.8-9.5,8.1-10.7,17.9c-0.101,0.9-0.2,1.8-0.2,2.7v2.9c0.7,8.7,3.4,16.5,7.4,22
			c3.8,5.2,8.8,8.4,14.199,8.4c3.801,0,7.4-1.601,10.601-4.4C168.449,451.642,171.25,447.342,173.25,442.042"/>
		<path clip-path="url(#SVGID_8_)" fill="#E8D6AC" d="M154.449,412.942c-4.6-1.3-8.6-3.5-10.6-7.8h-0.1
			c-3.301,2.8-9.4,8.1-10.7,17.9c-0.101,0.9-0.2,1.8-0.2,2.7v2.9c0.7,8.7,3.4,16.5,7.4,21.9c3.8,5.199,8.8,8.399,14.199,8.399
			V412.942z"/>
	</g>
</g>
<g>
	<g>
		<g>
			<line fill="#B8D890" x1="1015.092" y1="258.399" x2="1148.332" y2="258.399"/>
			<g>
				
					<line fill="none" stroke="#4EA8DE" stroke-width="5" stroke-miterlimit="10" stroke-dasharray="20.917,6.9723" x1="1015.092" y1="258.399" x2="1142.617" y2="258.399"/>
				<g>
					<polygon fill="#4EA8DE" points="1132.658,266.876 1141.141,258.399 1132.658,249.923 1139.855,249.923 1148.332,258.399 
						1139.855,266.876 					"/>
				</g>
			</g>
		</g>
	</g>
</g>
<g>
	<g>
		<g>
			<line fill="#B8D890" x1="1206.33" y1="425.903" x2="1073.09" y2="425.902"/>
			<g>
				
					<line fill="none" stroke="#4EA8DE" stroke-width="5" stroke-miterlimit="10" stroke-dasharray="20.917,6.9723" x1="1206.33" y1="425.903" x2="1078.805" y2="425.902"/>
				<g>
					<polygon fill="#4EA8DE" points="1088.764,417.426 1080.282,425.902 1088.764,434.379 1081.566,434.379 1073.09,425.902 
						1081.566,417.426 					"/>
				</g>
			</g>
		</g>
	</g>
</g>
<g>
	<g>
		<g>
			<line fill="#B8D890" x1="1784.051" y1="428.905" x2="1784.051" y2="475.598"/>
			<g>
				
					<line fill="none" stroke="#4EA8DE" stroke-width="4.3235" stroke-miterlimit="10" stroke-dasharray="12.3824,4.1275" x1="1784.051" y1="428.905" x2="1784.051" y2="470.656"/>
				<g>
					<polygon fill="#4EA8DE" points="1776.721,462.044 1784.051,469.378 1791.381,462.044 1791.381,468.268 1784.051,475.598 
						1776.721,468.268 					"/>
				</g>
			</g>
		</g>
	</g>
</g>
<g>
	<g>
		
			<line fill="#B8D890" stroke="#4EA8DE" stroke-width="5" stroke-miterlimit="10" stroke-dasharray="21.2481,7.0827" x1="1410.819" y1="258.399" x2="1548.311" y2="258.399"/>
	</g>
</g>
<g>
	<g>
		
			<line fill="#B8D890" stroke="#4EA8DE" stroke-width="5" stroke-miterlimit="10" stroke-dasharray="17.2204,5.7401" x1="1562" y1="545" x2="1652.308" y2="545"/>
	</g>
</g>
<g>
	<g>
		
			<line fill="#B8D890" stroke="#4EA8DE" stroke-width="5" stroke-miterlimit="10" stroke-dasharray="17.2204,5.7401" x1="933.294" y1="608.765" x2="933.294" y2="518.457"/>
	</g>
</g>
<g>
	<g>
		
			<line fill="#B8D890" stroke="#4EA8DE" stroke-width="5" stroke-miterlimit="10" stroke-dasharray="21.0906,7.0302" x1="1287.374" y1="902" x2="1151.912" y2="902"/>
	</g>
</g>
<g>
	<g>
		
			<line fill="#B8D890" stroke="#4EA8DE" stroke-width="5" stroke-miterlimit="10" stroke-dasharray="20.917,6.9723" x1="1548.312" y1="317.035" x2="1548.312" y2="183.795"/>
	</g>
</g>
<g>
	<g>
		<g>
			<line fill="#B8D890" x1="1548.312" y1="183.795" x2="1644.856" y2="183.795"/>
			<g>
				
					<line fill="none" stroke="#4EA8DE" stroke-width="5" stroke-miterlimit="10" stroke-dasharray="17.8052,5.9351" x1="1548.312" y1="183.795" x2="1639.142" y2="183.795"/>
				<g>
					<polygon fill="#4EA8DE" points="1629.183,192.271 1637.664,183.795 1629.183,175.318 1636.38,175.318 1644.856,183.795 
						1636.38,192.271 					"/>
				</g>
			</g>
		</g>
	</g>
</g>
<g>
	<g>
		<g>
			<line fill="#B8D890" x1="1548.312" y1="317.035" x2="1644.856" y2="317.035"/>
			<g>
				
					<line fill="none" stroke="#4EA8DE" stroke-width="5" stroke-miterlimit="10" stroke-dasharray="17.8052,5.9351" x1="1548.312" y1="317.035" x2="1639.142" y2="317.035"/>
				<g>
					<polygon fill="#4EA8DE" points="1629.183,325.512 1637.664,317.035 1629.183,308.559 1636.38,308.559 1644.856,317.035 
						1636.38,325.512 					"/>
				</g>
			</g>
		</g>
	</g>
</g>
<rect x="752.605" y="181.882" fill="#FFFFFF" stroke="#4EA8DE" stroke-width="4.6609" stroke-miterlimit="10" width="262.487" height="153.034"/>
<rect x="766.603" y="198.42" fill="none" width="235.489" height="133.493"/>
<text transform="matrix(1 0 0 1 808.5693 214.1289)"><tspan x="0" y="0" fill="#333333" font-family="'HelveticaNeueLTPro-Roman'" font-size="22">CCHT confirms </tspan><tspan x="-39.544" y="26.4" fill="#333333" font-family="'HelveticaNeueLTPro-Roman'" font-size="22">adequecy/completenes</tspan><tspan x="-26.499" y="52.8" fill="#333333" font-family="'HelveticaNeueLTPro-Roman'" font-size="22">s of information from </tspan><tspan x="-16.103" y="79.2" fill="#333333" font-family="'HelveticaNeueLTPro-Roman'" font-size="22">customer interface </tspan><tspan x="51.116" y="105.6" fill="#333333" font-family="'HelveticaNeueLTPro-Roman'" font-size="22">team</tspan></text>
<rect x="810.604" y="366.396" fill="#FFFFFF" stroke="#4EA8DE" stroke-width="4.6609" stroke-miterlimit="10" width="262.486" height="153.034"/>
<rect x="824.602" y="382.934" fill="none" width="235.488" height="133.494"/>
<text transform="matrix(1 0 0 1 866.5679 398.6426)"><tspan x="0" y="0" fill="#333333" font-family="'HelveticaNeueLTPro-Roman'" font-size="22">CCHT confirms </tspan><tspan x="-39.544" y="26.4" fill="#333333" font-family="'HelveticaNeueLTPro-Roman'" font-size="22">adequecy/completenes</tspan><tspan x="-26.499" y="52.8" fill="#333333" font-family="'HelveticaNeueLTPro-Roman'" font-size="22">s of information from </tspan><tspan x="-16.103" y="79.2" fill="#333333" font-family="'HelveticaNeueLTPro-Roman'" font-size="22">customer interface </tspan><tspan x="51.116" y="105.6" fill="#333333" font-family="'HelveticaNeueLTPro-Roman'" font-size="22">team</tspan></text>
<rect x="1148.332" y="181.882" fill="#FFFFFF" stroke="#4EA8DE" stroke-width="4.6609" stroke-miterlimit="10" width="262.487" height="153.034"/>
<rect x="1769.802" y="664.902" fill="#EFEFF0" width="248.739" height="316.664"/>
<rect x="1172.293" y="198.42" fill="none" width="214.566" height="133.493"/>
<text transform="matrix(1 0 0 1 1203.7988 214.1279)"><tspan x="0" y="0" fill="#333333" font-family="'HelveticaNeueLTPro-Roman'" font-size="22">CCHT confirms </tspan><tspan x="-28.138" y="26.4" fill="#333333" font-family="'HelveticaNeueLTPro-Roman'" font-size="22">adequecy/completen</tspan><tspan x="-12.232" y="52.8" fill="#333333" font-family="'HelveticaNeueLTPro-Roman'" font-size="22">ess of information </tspan><tspan x="3.85" y="79.2" fill="#333333" font-family="'HelveticaNeueLTPro-Roman'" font-size="22">from customer </tspan><tspan x="5.489" y="105.6" fill="#333333" font-family="'HelveticaNeueLTPro-Roman'" font-size="22">interface team</tspan></text>
<rect x="1652.308" y="94.067" fill="#FFFFFF" stroke="#4EA8DE" stroke-width="4.6609" stroke-miterlimit="10" width="262.487" height="153.034"/>
<rect x="1677.308" y="109.855" fill="none" width="223.737" height="133.493"/>
<text transform="matrix(1 0 0 1 1713.3984 125.563)"><tspan x="0" y="0" fill="#333333" font-family="'HelveticaNeueLTPro-Roman'" font-size="22">CCHT confirms </tspan><tspan x="-34.044" y="26.4" fill="#333333" font-family="'HelveticaNeueLTPro-Roman'" font-size="22">adequecy/completene</tspan><tspan x="-31.998" y="52.8" fill="#333333" font-family="'HelveticaNeueLTPro-Roman'" font-size="22">ss of information from </tspan><tspan x="-16.104" y="79.2" fill="#333333" font-family="'HelveticaNeueLTPro-Roman'" font-size="22">customer interface </tspan><tspan x="51.116" y="105.6" fill="#333333" font-family="'HelveticaNeueLTPro-Roman'" font-size="22">team</tspan></text>
<rect x="1203.829" y="375.808" fill="#FFFFFF" stroke="#4EA8DE" stroke-width="4.6609" stroke-miterlimit="10" width="262.487" height="153.034"/>
<rect x="1228.829" y="391.596" fill="none" width="223.737" height="133.493"/>
<text transform="matrix(1 0 0 1 1264.9199 407.3032)"><tspan x="0" y="0" fill="#333333" font-family="'HelveticaNeueLTPro-Roman'" font-size="22">CCHT confirms </tspan><tspan x="-34.044" y="26.4" fill="#333333" font-family="'HelveticaNeueLTPro-Roman'" font-size="22">adequecy/completene</tspan><tspan x="-31.998" y="52.8" fill="#333333" font-family="'HelveticaNeueLTPro-Roman'" font-size="22">ss of information from </tspan><tspan x="-16.104" y="79.2" fill="#333333" font-family="'HelveticaNeueLTPro-Roman'" font-size="22">customer interface </tspan><tspan x="51.116" y="105.6" fill="#333333" font-family="'HelveticaNeueLTPro-Roman'" font-size="22">team</tspan></text>
<rect x="1203.829" y="542.511" fill="#FFFFFF" stroke="#4EA8DE" stroke-width="4.6609" stroke-miterlimit="10" width="262.487" height="153.034"/>
<rect x="1228.829" y="558.299" fill="none" width="223.737" height="133.493"/>
<text transform="matrix(1 0 0 1 1264.9199 574.0068)"><tspan x="0" y="0" fill="#333333" font-family="'HelveticaNeueLTPro-Roman'" font-size="22">CCHT confirms </tspan><tspan x="-34.044" y="26.4" fill="#333333" font-family="'HelveticaNeueLTPro-Roman'" font-size="22">adequecy/completene</tspan><tspan x="-31.998" y="52.8" fill="#333333" font-family="'HelveticaNeueLTPro-Roman'" font-size="22">ss of information from </tspan><tspan x="-16.104" y="79.2" fill="#333333" font-family="'HelveticaNeueLTPro-Roman'" font-size="22">customer interface </tspan><tspan x="51.116" y="105.6" fill="#333333" font-family="'HelveticaNeueLTPro-Roman'" font-size="22">team</tspan></text>
<rect x="1782.303" y="679.663" fill="none" width="223.737" height="289.605"/>
<text transform="matrix(1 0 0 1 1782.3027 695.3711)" fill="#333333" font-family="'HelveticaNeueLTPro-Roman'" font-size="22">Note:</text>
<rect x="966.342" y="725.419" fill="#FFFFFF" stroke="#4EA8DE" stroke-width="3.0771" stroke-miterlimit="10" width="197.658" height="88.581"/>
<rect x="984.63" y="746.296" fill="none" width="155.08" height="85.793"/>
<text transform="matrix(1 0 0 1 1011.6372 762.0039)"><tspan x="0" y="0" fill="#333333" font-family="'HelveticaNeueLTPro-Roman'" font-size="22">Complaint </tspan><tspan x="-11.803" y="26.4" fill="#333333" font-family="'HelveticaNeueLTPro-Roman'" font-size="22">Investigation</tspan></text>
<rect x="1652.308" y="275.871" fill="#FFFFFF" stroke="#4EA8DE" stroke-width="4.6609" stroke-miterlimit="10" width="262.487" height="153.034"/>
<rect x="1666.306" y="292.409" fill="none" width="235.489" height="133.493"/>
<text transform="matrix(1 0 0 1 1708.2725 308.1177)"><tspan x="0" y="0" fill="#333333" font-family="'HelveticaNeueLTPro-Roman'" font-size="22">CCHT confirms </tspan><tspan x="-39.544" y="26.4" fill="#333333" font-family="'HelveticaNeueLTPro-Roman'" font-size="22">adequecy/completenes</tspan><tspan x="-26.498" y="52.8" fill="#333333" font-family="'HelveticaNeueLTPro-Roman'" font-size="22">s of information from </tspan><tspan x="-16.103" y="79.2" fill="#333333" font-family="'HelveticaNeueLTPro-Roman'" font-size="22">customer interface </tspan><tspan x="51.116" y="105.6" fill="#333333" font-family="'HelveticaNeueLTPro-Roman'" font-size="22">team</tspan></text>
<g>
	
		<rect x="1652.308" y="480.325" fill="#FFFFFF" stroke="#4EA8DE" stroke-width="4.6609" stroke-miterlimit="10" width="262.487" height="153.034"/>
	<rect x="1666.306" y="496.863" fill="none" width="235.489" height="133.493"/>
	<text transform="matrix(1 0 0 1 1708.2725 512.5723)"><tspan x="0" y="0" fill="#333333" font-family="'HelveticaNeueLTPro-Roman'" font-size="22">CCHT confirms </tspan><tspan x="-39.544" y="26.399" fill="#333333" font-family="'HelveticaNeueLTPro-Roman'" font-size="22">adequecy/completenes</tspan><tspan x="-26.498" y="52.8" fill="#333333" font-family="'HelveticaNeueLTPro-Roman'" font-size="22">s of information from </tspan><tspan x="-16.103" y="79.199" fill="#333333" font-family="'HelveticaNeueLTPro-Roman'" font-size="22">customer interface </tspan><tspan x="51.116" y="105.6" fill="#333333" font-family="'HelveticaNeueLTPro-Roman'" font-size="22">team</tspan></text>
</g>
<g>
	
		<rect x="1416.066" y="737.482" fill="#FFFFFF" stroke="#4EA8DE" stroke-width="4.6609" stroke-miterlimit="10" width="262.487" height="153.034"/>
	<rect x="1430.064" y="754.021" fill="none" width="235.489" height="133.493"/>
	<text transform="matrix(1 0 0 1 1472.0312 769.7295)"><tspan x="0" y="0" fill="#333333" font-family="'HelveticaNeueLTPro-Roman'" font-size="22">CCHT confirms </tspan><tspan x="-39.544" y="26.399" fill="#333333" font-family="'HelveticaNeueLTPro-Roman'" font-size="22">adequecy/completenes</tspan><tspan x="-26.498" y="52.8" fill="#333333" font-family="'HelveticaNeueLTPro-Roman'" font-size="22">s of information from </tspan><tspan x="-16.103" y="79.199" fill="#333333" font-family="'HelveticaNeueLTPro-Roman'" font-size="22">customer interface </tspan><tspan x="51.116" y="105.6" fill="#333333" font-family="'HelveticaNeueLTPro-Roman'" font-size="22">team</tspan></text>
</g>
<g>
	
		<rect x="814.137" y="844.361" fill="#FFFFFF" stroke="#4EA8DE" stroke-width="4.7767" stroke-miterlimit="10" width="337.775" height="124.907"/>
	<rect x="843.294" y="860.899" fill="none" width="291.777" height="108.369"/>
	<text transform="matrix(1 0 0 1 913.4048 876.6074)"><tspan x="0" y="0" fill="#333333" font-family="'HelveticaNeueLTPro-Roman'" font-size="22">CCHT confirms </tspan><tspan x="-57.672" y="26.4" fill="#333333" font-family="'HelveticaNeueLTPro-Roman'" font-size="22">adequecy/completeness of </tspan><tspan x="-54.625" y="52.8" fill="#333333" font-family="'HelveticaNeueLTPro-Roman'" font-size="22">information from customer </tspan><tspan x="5.489" y="79.2" fill="#333333" font-family="'HelveticaNeueLTPro-Roman'" font-size="22">interface team</tspan></text>
</g>
<circle fill="#89C240" cx="1589.892" cy="181.882" r="23.299"/>
<g>
	<path fill="#FFFFFF" d="M1583.35,190.707l-7.973-7.97l-2.66,2.649l10.633,10.634l22.775-22.777l-2.651-2.659L1583.35,190.707z
		 M1583.35,190.707"/>
</g>
<circle fill="#89C240" cx="1589.892" cy="317.035" r="23.299"/>
<g>
	<path fill="#FFFFFF" d="M1601.616,308.041l-2.251-2.251l-8.99,8.998l-8.999-8.998l-2.252,2.251l9,8.999l-9,8.991l2.252,2.251
		l8.999-8.996l8.99,8.996l2.251-2.251l-8.998-8.991L1601.616,308.041z M1601.616,308.041"/>
</g>
<g>
	<g>
		<g>
			<g>
				<line fill="#B8D890" x1="1562.861" y1="626.02" x2="1466.316" y2="626.02"/>
				<g>
					
						<line fill="none" stroke="#4EA8DE" stroke-width="5" stroke-miterlimit="10" stroke-dasharray="17.8052,5.9351" x1="1562.861" y1="626.02" x2="1472.031" y2="626.02"/>
					<g>
						<polygon fill="#4EA8DE" points="1481.99,617.543 1473.509,626.02 1481.99,634.496 1474.793,634.496 1466.316,626.02 
							1474.793,617.543 						"/>
					</g>
				</g>
			</g>
		</g>
	</g>
	<g>
		<g>
			<g>
				
					<line fill="#B8D890" stroke="#4EA8DE" stroke-width="5" stroke-miterlimit="10" stroke-dasharray="24.5207,8.1736" x1="1562.862" y1="626.02" x2="1562.862" y2="442.913"/>
			</g>
		</g>
		<g>
			<g>
				<g>
					<line fill="#B8D890" x1="1562.861" y1="442.912" x2="1466.316" y2="442.912"/>
					<g>
						
							<line fill="none" stroke="#4EA8DE" stroke-width="5" stroke-miterlimit="10" stroke-dasharray="17.8052,5.9351" x1="1562.861" y1="442.912" x2="1472.031" y2="442.912"/>
						<g>
							<polygon fill="#4EA8DE" points="1481.99,434.436 1473.509,442.912 1481.99,451.389 1474.793,451.389 1466.316,442.912 
								1474.793,434.436 							"/>
						</g>
					</g>
				</g>
			</g>
		</g>
		<g>
			<circle fill="#89C240" cx="1522.254" cy="441" r="23.299"/>
			<g>
				<path fill="#FFFFFF" d="M1515.712,449.825l-7.973-7.97l-2.66,2.649l10.633,10.634l22.775-22.777l-2.651-2.659L1515.712,449.825z
					 M1515.712,449.825"/>
			</g>
		</g>
		<g>
			<circle fill="#89C240" cx="1517.416" cy="622.751" r="23.299"/>
			<g>
				<path fill="#FFFFFF" d="M1529.141,613.757l-2.251-2.252l-8.99,8.998l-8.999-8.998l-2.252,2.252l9,8.998l-9,8.99l2.252,2.252
					l8.999-8.996l8.99,8.996l2.251-2.252l-8.998-8.99L1529.141,613.757z M1529.141,613.757"/>
			</g>
		</g>
	</g>
</g>
<g>
	<g>
		<g>
			<g>
				<line fill="#B8D890" x1="993.792" y1="611.874" x2="993.792" y2="725.419"/>
				<g>
					
						<line fill="none" stroke="#4EA8DE" stroke-width="5" stroke-miterlimit="10" stroke-dasharray="19.3093,6.4364" x1="993.792" y1="611.874" x2="993.792" y2="719.704"/>
					<g>
						<polygon fill="#4EA8DE" points="985.315,709.745 993.792,718.227 1002.268,709.745 1002.268,716.942 993.792,725.419 
							985.315,716.942 						"/>
					</g>
				</g>
			</g>
		</g>
	</g>
	<g>
		<g>
			<g>
				
					<line fill="#B8D890" stroke="#4EA8DE" stroke-width="5" stroke-miterlimit="10" stroke-dasharray="20.917,6.9723" x1="993.792" y1="612.83" x2="860.55" y2="612.831"/>
			</g>
		</g>
		<g>
			<g>
				<g>
					<line fill="#B8D890" x1="860.55" y1="612.832" x2="860.55" y2="844"/>
					<g>
						
							<line fill="none" stroke="#4EA8DE" stroke-width="5" stroke-miterlimit="10" stroke-dasharray="27.5515,9.1839" x1="860.55" y1="612.832" x2="860.55" y2="838.285"/>
						<g>
							<polygon fill="#4EA8DE" points="852.073,828.326 860.55,836.808 869.026,828.326 869.026,835.523 860.55,844 
								852.073,835.523 							"/>
						</g>
					</g>
				</g>
			</g>
		</g>
		<g>
			<circle fill="#89C240" cx="860.55" cy="719.162" r="23.299"/>
			<g>
				<path fill="#FFFFFF" d="M854.008,727.986l-7.973-7.97l-2.66,2.649l10.633,10.634l22.776-22.776l-2.652-2.66L854.008,727.986z
					 M854.008,727.986"/>
			</g>
		</g>
		<g>
			<circle fill="#89C240" cx="993.792" cy="653.656" r="23.299"/>
			<g>
				<path fill="#FFFFFF" d="M1005.517,644.662l-2.251-2.252l-8.99,8.998l-8.999-8.998l-2.252,2.252l9,8.998l-9,8.99l2.252,2.252
					l8.999-8.996l8.99,8.996l2.251-2.252l-8.998-8.99L1005.517,644.662z M1005.517,644.662"/>
			</g>
		</g>
	</g>
</g>
<g>
	<g>
		<g>
			<line fill="#B8D890" x1="1289.659" y1="770.99" x2="1167.056" y2="770.99"/>
			<g>
				
					<line fill="none" stroke="#4EA8DE" stroke-width="5" stroke-miterlimit="10" stroke-dasharray="20.0648,6.6883" x1="1289.659" y1="770.99" x2="1172.771" y2="770.99"/>
				<g>
					<polygon fill="#4EA8DE" points="1182.729,762.514 1174.248,770.99 1182.729,779.467 1175.532,779.467 1167.056,770.99 
						1175.532,762.514 					"/>
				</g>
			</g>
		</g>
	</g>
</g>
<g>
	<g>
		<g>
			<line fill="#B8D890" x1="1289.659" y1="770.991" x2="1412.263" y2="770.991"/>
			<g>
				
					<line fill="none" stroke="#4EA8DE" stroke-width="5" stroke-miterlimit="10" stroke-dasharray="20.0648,6.6883" x1="1289.659" y1="770.991" x2="1406.548" y2="770.991"/>
				<g>
					<polygon fill="#4EA8DE" points="1396.589,779.468 1405.07,770.991 1396.589,762.515 1403.786,762.515 1412.263,770.991 
						1403.786,779.468 					"/>
				</g>
			</g>
		</g>
	</g>
</g>
<g>
	<g>
		
			<line fill="#B8D890" stroke="#4EA8DE" stroke-width="5" stroke-miterlimit="10" stroke-dasharray="20.917,6.9723" x1="1287.373" y1="769.709" x2="1287.375" y2="902.949"/>
	</g>
</g>
<g>
	<circle fill="#89C240" cx="1350.961" cy="770.99" r="23.299"/>
	<g>
		<path fill="#FFFFFF" d="M1344.418,779.814l-7.973-7.97l-2.66,2.649l10.633,10.634l22.776-22.776l-2.651-2.66L1344.418,779.814z
			 M1344.418,779.814"/>
	</g>
</g>
<g>
	<circle fill="#89C240" cx="1236.673" cy="769.709" r="23.299"/>
	<g>
		<path fill="#FFFFFF" d="M1248.397,760.715l-2.251-2.252l-8.99,8.998l-8.999-8.998l-2.252,2.252l9,8.998l-9,8.99l2.252,2.252
			l8.999-8.996l8.99,8.996l2.251-2.252l-8.998-8.99L1248.397,760.715z M1248.397,760.715"/>
	</g>
</g>
</svg>
