<?xml version="1.0" encoding="utf-8"?>
<!-- Generator: Adobe Illustrator 19.2.0, SVG Export Plug-In . SVG Version: 6.00 Build 0)  -->
<svg version="1.1" id="Layer_1" xmlns="http://www.w3.org/2000/svg" xmlns:xlink="http://www.w3.org/1999/xlink" x="0px" y="0px"
	 viewBox="0 0 2048 1000" style="enable-background:new 0 0 2048 1000;" xml:space="preserve">
<style type="text/css">
	.st0{fill:#B9E5FB;}
	.st1{opacity:0.3;fill:#B9E5FB;}
	.st2{fill:none;}
	.st3{enable-background:new    ;}
	.st4{fill:#333333;}
	.st5{fill:#4EA8DE;}
	.st6{fill:#116BB4;}
	.st7{fill:none;stroke:#343636;stroke-width:4;stroke-miterlimit:10;}
	.st8{fill:#FFFFFF;}
	.st9{fill:#EFEFF0;}
	.st10{fill:#89C240;}
	.st11{fill:#8CC63F;}
	.st12{fill:#173E68;}
	.st13{clip-path:url(#SVGID_2_);fill:#E3CCA4;}
	.st14{clip-path:url(#SVGID_4_);fill:#D4C5A3;}
	.st15{clip-path:url(#SVGID_6_);fill:#CCBC97;}
	.st16{clip-path:url(#SVGID_8_);fill:#2C3E50;}
	.st17{clip-path:url(#SVGID_10_);fill:#ECF0F1;}
	.st18{clip-path:url(#SVGID_12_);fill:#FFE7BD;}
	.st19{clip-path:url(#SVGID_14_);fill:#DAE1E6;}
	.st20{clip-path:url(#SVGID_16_);fill:#E8D6AC;}
	.st21{clip-path:url(#SVGID_18_);fill:#DAE1E6;}
	.st22{clip-path:url(#SVGID_20_);fill:#B3B3B3;}
	.st23{clip-path:url(#SVGID_22_);fill:#2C3E50;}
	.st24{fill:#231F20;}
	.st25{font-family:'HelveticaNeueLTPro-Md';}
	.st26{font-size:28px;}
	.st27{font-family:'HelveticaNeueLTPro-Roman';}
	.st28{font-size:24px;}
	.st29{font-size:46px;}
	.st30{clip-path:url(#SVGID_24_);}
	.st31{fill-rule:evenodd;clip-rule:evenodd;fill:#B39C5B;}
	.st32{fill-rule:evenodd;clip-rule:evenodd;fill:#E3CCA4;}
	.st33{fill-rule:evenodd;clip-rule:evenodd;fill:#D4C5A3;}
	.st34{fill-rule:evenodd;clip-rule:evenodd;fill:#CCBC97;}
	.st35{fill-rule:evenodd;clip-rule:evenodd;fill:#FFE7BD;}
	.st36{fill-rule:evenodd;clip-rule:evenodd;fill:#9E3636;}
	.st37{fill-rule:evenodd;clip-rule:evenodd;fill:#E8D6AC;}
	.st38{fill-rule:evenodd;clip-rule:evenodd;fill:#2C3E50;}
	.st39{font-size:31px;}
</style>
<rect class="st0" width="1317.6" height="1000"/>
<rect x="1317.6" class="st1" width="734.3" height="1000"/>
<rect x="965.7" y="1470" class="st2" width="1226.4" height="80.7"/>
<text transform="matrix(1 0 0 1 965.7246 1489.9531)" class="st4 st27 st26">•  The lead can close the report if it remains open for more than 30 days without a response or if a </text>
<text transform="matrix(1 0 0 1 995.7246 1525.5531)" class="st4 st27 st26">customer requests closure</text>
<rect x="-3.5" class="st5" width="694.1" height="1001.8"/>
<rect y="640.1" class="st6" width="690.6" height="360.6"/>
<line class="st7" x1="62.7" y1="53.7" x2="668" y2="53.7"/>
<line class="st7" x1="742.2" y1="53.7" x2="1269.1" y2="53.7"/>
<path class="st8" d="M593.7,463.1H68.3c-5.5,0-10-4.5-10-10V209.3c0-5.5,4.5-10,10-10h525.4c5.5,0,10,4.5,10,10v243.8
	C603.7,458.6,599.2,463.1,593.7,463.1"/>
<path class="st9" d="M594.8,199.3H258.6v263.8h336.2c4.9,0,8.9-4,8.9-8.9v-246C603.7,203.3,599.7,199.3,594.8,199.3"/>
<path class="st10" d="M202.6,382.1h-95.7c-5.5,0-10-4.5-10-10V264.2c0-5.5,4.5-10,10-10h95.7c5.5,0,10,4.5,10,10v107.9
	C212.6,377.6,208.1,382.1,202.6,382.1"/>
<rect x="85" y="411.2" class="st11" width="1.2" height="12.8"/>
<path class="st11" d="M88.6,411.2H94c2.1,0,4.1,0.7,4.1,3.1c0,1.3-0.9,2.6-2.2,2.9c1.7,0.2,2.7,1.5,2.7,3.1c0,1.2-0.4,3.6-4.6,3.6
	h-5.4V411.2z M89.8,416.8H94c1.9,0,2.9-1,2.9-2.2c0-1.6-1-2.4-2.9-2.4h-4.2V416.8z M89.8,422.9H94c1.8,0,3.4-0.6,3.4-2.6
	c0-1.7-1.2-2.5-3.4-2.5h-4.2V422.9z"/>
<polygon class="st11" points="100.6,411.2 102.4,411.2 106.8,422.4 111.2,411.2 113,411.2 113,424 111.8,424 111.8,412.9 107.4,424 
	106.2,424 101.8,412.9 101.8,424 100.6,424 "/>
<polygon class="st12" points="130.2,423.9 127.4,423.9 125.2,415.2 123.1,423.9 120.2,423.9 116.8,411.1 119.6,411.1 121.6,419.8 
	123.8,411.1 126.4,411.1 128.6,419.9 130.7,411.1 133.5,411.1 "/>
<path class="st12" d="M133.9,417.4c0.2-2.4,2.3-3.1,4.4-3.1c1.8,0,4.1,0.4,4.1,2.6v4.8c0,0.8,0.1,1.7,0.3,2.1h-2.6
	c-0.1-0.3-0.2-0.6-0.2-0.9c-0.8,0.8-2,1.2-3.1,1.2c-1.8,0-3.1-0.9-3.1-2.8c0-4.2,6.3-2,6.2-4c0-1.1-0.7-1.2-1.7-1.2
	s-1.6,0.4-1.7,1.4h-2.6L133.9,417.4L133.9,417.4z M139.8,419.3c-0.4,0.4-1.3,0.4-2.1,0.5c-0.8,0.2-1.5,0.4-1.5,1.4s0.7,1.2,1.6,1.2
	c2,0,2.1-1.6,2.1-2.1v-1L139.8,419.3L139.8,419.3z"/>
<path class="st12" d="M147.5,414.6h1.9v1.7h-1.9v4.6c0,0.9,0.2,1.1,1.1,1.1c0.3,0,0.6,0,0.8-0.1v2c-0.4,0.1-1,0.1-1.5,0.1
	c-1.6,0-2.9-0.3-2.9-2.2v-5.5h-1.6v-1.7h1.6v-2.8h2.6L147.5,414.6z"/>
<path class="st12" d="M152.6,420.9c0,1.1,1,1.6,2,1.6c0.7,0,1.7-0.3,1.7-1.2c0-0.8-1.1-1.1-2.9-1.4c-1.5-0.3-3-0.8-3-2.5
	c0-2.4,2.1-3,4-3c2,0,3.9,0.7,4.1,3h-2.4c-0.1-1-0.8-1.2-1.7-1.2c-0.6,0-1.4,0.1-1.4,0.9c0,0.9,1.5,1,2.9,1.4c1.5,0.3,3,0.9,3,2.6
	c0,2.4-2.1,3.2-4.2,3.2c-2.1,0-4.3-0.8-4.4-3.3h2.3L152.6,420.9L152.6,420.9z"/>
<path class="st12" d="M164.6,414.4c2.9,0,4.8,1.9,4.8,4.9s-1.9,4.9-4.8,4.9s-4.8-1.9-4.8-4.9S161.6,414.4,164.6,414.4 M164.6,422.2
	c1.7,0,2.3-1.5,2.3-3s-0.5-3-2.3-3c-1.7,0-2.2,1.5-2.2,3S162.8,422.2,164.6,422.2"/>
<path class="st12" d="M170.6,414.6h2.4v1.3h0.1c0.7-1.1,1.7-1.6,2.8-1.6c2.7,0,3.4,1.5,3.4,3.8v5.7h-2.6v-5.2c0-1.5-0.4-2.3-1.6-2.3
	c-1.4,0-2,0.8-2,2.6v4.9h-2.6L170.6,414.6z"/>
<polygon class="st12" points="184.4,411.1 187.2,411.1 187.2,416 192.4,416 192.4,411.1 195.2,411.1 195.2,423.9 192.4,423.9 
	192.4,418.4 187.2,418.4 187.2,423.9 184.4,423.9 "/>
<path class="st12" d="M199.4,419.9c0.1,1.6,0.8,2.4,2.3,2.4c1,0,1.8-0.6,2-1.2h2.2c-0.7,2.2-2.2,3.1-4.3,3.1c-2.9,0-4.7-2-4.7-4.9
	c0-2.8,1.9-4.9,4.7-4.9c3.1,0,4.7,2.6,4.5,5.5L199.4,419.9L199.4,419.9z M203.5,418.2c-0.2-1.3-0.8-2-2-2c-1.7,0-2.1,1.2-2.1,2
	H203.5z"/>
<path class="st12" d="M207.6,417.4c0.2-2.4,2.3-3.1,4.4-3.1c1.8,0,4.1,0.4,4.1,2.6v4.8c0,0.8,0.1,1.7,0.3,2.1h-2.6
	c-0.1-0.3-0.2-0.6-0.2-0.9c-0.8,0.8-2,1.2-3.1,1.2c-1.8,0-3.1-0.9-3.1-2.8c0-4.2,6.3-2,6.2-4c0-1.1-0.7-1.2-1.7-1.2
	s-1.6,0.4-1.7,1.4h-2.6L207.6,417.4L207.6,417.4z M213.4,419.3c-0.4,0.4-1.3,0.4-2.1,0.5c-0.8,0.2-1.5,0.4-1.5,1.4s0.7,1.2,1.6,1.2
	c2,0,2.1-1.6,2.1-2.1v-1L213.4,419.3L213.4,419.3z"/>
<path class="st12" d="M225.7,414.6h1.9v1.7h-1.9v4.6c0,0.9,0.2,1.1,1.1,1.1c0.3,0,0.6,0,0.8-0.1v2c-0.4,0.1-1,0.1-1.5,0.1
	c-1.6,0-2.9-0.3-2.9-2.2v-5.5h-1.6v-1.7h1.6v-2.8h2.6v2.8L225.7,414.6L225.7,414.6z"/>
<path class="st12" d="M229.2,411.1h2.6v4.8h0.1c0.7-1.1,1.7-1.6,2.7-1.6c2.7,0,3.4,1.5,3.4,3.8v5.7h-2.6v-5.2c0-1.5-0.4-2.3-1.6-2.3
	c-1.4,0-2,0.8-2,2.6v4.9h-2.6L229.2,411.1L229.2,411.1z"/>
<rect x="217.9" y="411.1" class="st12" width="2.6" height="12.8"/>
<g>
	<defs>
		<path id="SVGID_1_" d="M106.9,254.2c-5.5,0-10,4.5-10,10v107.9c0,5.5,4.5,10,10,10h95.7c5.5,0,10-4.5,10-10V264.2
			c0-5.5-4.5-10-10-10H106.9z"/>
	</defs>
	<clipPath id="SVGID_2_">
		<use xlink:href="#SVGID_1_"  style="overflow:visible;"/>
	</clipPath>
	<path class="st13" d="M140.8,309.1h27.9l3,31.7c0.2,2.2,2.1,3.9,4.5,4h0.5l-3.5,11.9l-37-2.9l-2.7-9l1-0.2c2.2-0.3,3.8-1.9,3.9-4
		L140.8,309.1z"/>
</g>
<g>
	<defs>
		<path id="SVGID_3_" d="M106.9,254.2c-5.5,0-10,4.5-10,10v107.9c0,5.5,4.5,10,10,10h95.7c5.5,0,10-4.5,10-10V264.2
			c0-5.5-4.5-10-10-10H106.9z"/>
	</defs>
	<clipPath id="SVGID_4_">
		<use xlink:href="#SVGID_3_"  style="overflow:visible;"/>
	</clipPath>
	<path class="st14" d="M154.9,355.3l-18.8-1.5l-2.7-9l1-0.2c2.2-0.3,3.8-1.9,3.9-4l1.8-22.4H155L154.9,355.3z"/>
</g>
<g>
	<defs>
		<path id="SVGID_5_" d="M106.9,254.2c-5.5,0-10,4.5-10,10v107.9c0,5.5,4.5,10,10,10h95.7c5.5,0,10-4.5,10-10V264.2
			c0-5.5-4.5-10-10-10H106.9z"/>
	</defs>
	<clipPath id="SVGID_6_">
		<use xlink:href="#SVGID_5_"  style="overflow:visible;"/>
	</clipPath>
	<path class="st15" d="M140.8,309.1h27.9l2.2,24c-0.5,0.8-0.9,1.3-1.4,2.1c-4.1,5.6-9.4,9.4-14.5,9.4s-10.4-3.8-14.5-9.4
		c-0.6-0.9-1.1-1.5-1.6-2.4L140.8,309.1z"/>
</g>
<g>
	<defs>
		<path id="SVGID_7_" d="M106.9,254.2c-5.5,0-10,4.5-10,10v107.9c0,5.5,4.5,10,10,10h95.7c5.5,0,10-4.5,10-10V264.2
			c0-5.5-4.5-10-10-10H106.9z"/>
	</defs>
	<clipPath id="SVGID_8_">
		<use xlink:href="#SVGID_7_"  style="overflow:visible;"/>
	</clipPath>
	<path class="st16" d="M154.9,336.3c-6.5,0-13-4.2-17.9-10.4c-4.8-6.1-8-14.2-8-22v-0.2v-0.1V302c0-18.7-3.4-33.9,26-33.9
		s25.9,15.2,25.9,33.9v1.5v0.1v0.2c0,7.8-3.2,15.9-8,22C168,332.1,161.4,336.3,154.9,336.3"/>
</g>
<g>
	<defs>
		<path id="SVGID_9_" d="M106.9,254.2c-5.5,0-10,4.5-10,10v107.9c0,5.5,4.5,10,10,10h95.7c5.5,0,10-4.5,10-10V264.2
			c0-5.5-4.5-10-10-10H106.9z"/>
	</defs>
	<clipPath id="SVGID_10_">
		<use xlink:href="#SVGID_9_"  style="overflow:visible;"/>
	</clipPath>
	<path class="st17" d="M138.1,341.7c-11.3,7.4-32.2,8-32.2,23.6v15.5c0,4.2,3.6,7.6,8.1,7.6h81.7c4.5,0,8.1-3.4,8.1-7.6v-15.4
		c0-15.8-20.6-16.4-32.1-23.6C160.2,349.4,151.7,352,138.1,341.7"/>
</g>
<g>
	<defs>
		<path id="SVGID_11_" d="M106.9,254.2c-5.5,0-10,4.5-10,10v107.9c0,5.5,4.5,10,10,10h95.7c5.5,0,10-4.5,10-10V264.2
			c0-5.5-4.5-10-10-10H106.9z"/>
	</defs>
	<clipPath id="SVGID_12_">
		<use xlink:href="#SVGID_11_"  style="overflow:visible;"/>
	</clipPath>
	<path class="st18" d="M137.6,329.3c4.9,6.2,11.2,10.4,17.3,10.4s12.5-4.2,17.3-10.4c5-6.4,8.4-14.8,8.5-22.9l-1.7-6.5
		c-0.6-2.3-0.7-4.5-0.7-6.5c-0.1-2.7-0.1-5.2-1.7-7.2c-2.5-3.3-6.5-2.2-11.2-1c-3.2,0.9-6.7,1.8-10.4,1.8c-3.8,0-7.2-0.9-10.4-1.8
		c-4.7-1.3-8.7-2.3-11.2,0.9c-1.6,2-1.6,4.5-1.7,7.2c0,2.1-0.1,4.2-0.7,6.5l-1.7,6.5C129.2,314.5,132.6,323,137.6,329.3"/>
</g>
<g>
	<defs>
		<path id="SVGID_13_" d="M106.9,254.2c-5.5,0-10,4.5-10,10v107.9c0,5.5,4.5,10,10,10h95.7c5.5,0,10-4.5,10-10V264.2
			c0-5.5-4.5-10-10-10H106.9z"/>
	</defs>
	<clipPath id="SVGID_14_">
		<use xlink:href="#SVGID_13_"  style="overflow:visible;"/>
	</clipPath>
	<path class="st19" d="M134.9,343.5c2.8,5.4,10.4,11.8,20.1,11.8c9.2,0,16.8-6.3,20.1-11.7c-3.3,6.2-10.6,12.8-20.1,12.7
		C145.5,356.3,137.6,349.6,134.9,343.5"/>
</g>
<g>
	<defs>
		<path id="SVGID_15_" d="M106.9,254.2c-5.5,0-10,4.5-10,10v107.9c0,5.5,4.5,10,10,10h95.7c5.5,0,10-4.5,10-10V264.2
			c0-5.5-4.5-10-10-10H106.9z"/>
	</defs>
	<clipPath id="SVGID_16_">
		<use xlink:href="#SVGID_15_"  style="overflow:visible;"/>
	</clipPath>
	<path class="st20" d="M137.6,329.3c4.9,6.2,11.2,10.4,17.3,10.4V287c-3.8,0-7.2-0.9-10.4-1.8c-4.7-1.3-8.7-2.3-11.2,0.9
		c-1.6,2-1.6,4.5-1.7,7.2c0,2.1-0.1,4.2-0.7,6.5l-1.7,6.5C129.2,314.5,132.6,323,137.6,329.3"/>
</g>
<g>
	<defs>
		<path id="SVGID_17_" d="M106.9,254.2c-5.5,0-10,4.5-10,10v107.9c0,5.5,4.5,10,10,10h95.7c5.5,0,10-4.5,10-10V264.2
			c0-5.5-4.5-10-10-10H106.9z"/>
	</defs>
	<clipPath id="SVGID_18_">
		<use xlink:href="#SVGID_17_"  style="overflow:visible;"/>
	</clipPath>
	<path class="st21" d="M131.8,344c-10.7,4.6-25.9,5.6-25.9,21.2v15.5c0,4.2,3.6,7.6,8.1,7.6h40.9h40.9c4.5,0,8.1-3.4,8.1-7.6v-15.4
		c0-15.6-15.2-16.7-25.9-21.3c-6.6,10.2-14.9,15.4-23.1,15.5C146.7,359.5,138.4,354.3,131.8,344"/>
</g>
<g>
	<defs>
		<path id="SVGID_19_" d="M106.9,254.2c-5.5,0-10,4.5-10,10v107.9c0,5.5,4.5,10,10,10h95.7c5.5,0,10-4.5,10-10V264.2
			c0-5.5-4.5-10-10-10H106.9z"/>
	</defs>
	<clipPath id="SVGID_20_">
		<use xlink:href="#SVGID_19_"  style="overflow:visible;"/>
	</clipPath>
	<path class="st22" d="M131.8,343.9c-1.5,0.7-3.1,1.2-4.7,1.8c9.1,14.4,19.9,18.7,27.9,18.8c7.9-0.1,18.8-4.4,27.9-18.8
		c-1.6-0.6-3.2-1.1-4.7-1.8c-6.6,10.2-15,15.6-23.2,15.7C146.7,359.5,138.4,354.2,131.8,343.9"/>
</g>
<g>
	<defs>
		<path id="SVGID_21_" d="M106.9,254.2c-5.5,0-10,4.5-10,10v107.9c0,5.5,4.5,10,10,10h95.7c5.5,0,10-4.5,10-10V264.2
			c0-5.5-4.5-10-10-10H106.9z"/>
	</defs>
	<clipPath id="SVGID_22_">
		<use xlink:href="#SVGID_21_"  style="overflow:visible;"/>
	</clipPath>
	<path class="st23" d="M155.3,336.4h6c1,0,1.9,0.7,2.2,1.6c5.9-1,10.3-3.7,13.6-7.5c2.8-3.2,4.6-7.2,5.8-11.6l-1.4-0.1l1.1-14.7
		l0.1-1.9l5,0.3l-0.2,2.8l1.7,0.1l-0.8,11.1l-1.7-0.1l-0.2,2.8l-1.9-0.1c-1.2,4.7-3.2,9.1-6.2,12.6c-3.5,4.1-8.4,7.1-14.8,8.1
		c0,1.3-1.1,2.4-2.4,2.4h-6c-1.3,0-2.4-1.1-2.4-2.4v-1C152.9,337.5,153.9,336.4,155.3,336.4"/>
</g>
<text transform="matrix(1 0 0 1 292.46 239.875)" class="st24 st25 st26">The complaint unit </text>
<rect x="292.5" y="359.3" class="st2" width="299.4" height="82.4"/>
<text transform="matrix(1 0 0 1 292.46 289.799)" class="st3"><tspan x="0" y="0" class="st4 st27 st28">the CCHT representative </tspan><tspan x="0" y="28.8" class="st4 st27 st28">and personnel from the </tspan><tspan x="0" y="57.6" class="st4 st27 st28">Offering Entity who process </tspan><tspan x="0" y="86.4" class="st4 st27 st28">customer complaints and </tspan><tspan x="0" y="115.2" class="st4 st27 st28">conduct failure analysis </tspan><tspan x="0" y="144" class="st4 st27 st28">investigations</tspan></text>
<text transform="matrix(1 0 0 1 292.46 608.5552)" class="st3"><tspan x="0" y="0" class="st4 st27 st28">the CCHT representative </tspan><tspan x="0" y="28.8" class="st4 st27 st28">and personnel from the </tspan><tspan x="0" y="57.6" class="st4 st27 st28">Offering Entity who process </tspan><tspan x="0" y="86.4" class="st4 st27 st28">customer complaints and </tspan><tspan x="0" y="115.2" class="st4 st27 st28">conduct failure analysis </tspan><tspan x="0" y="144" class="st4 st27 st28">investigations</tspan></text>
<path class="st8" d="M593.7,761.5H68.3c-5.5,0-10-4.5-10-10V507.7c0-5.5,4.5-10,10-10h525.4c5.5,0,10,4.5,10,10v243.8
	C603.7,757,599.2,761.5,593.7,761.5"/>
<path class="st9" d="M594.8,497.7H258.6v263.8h336.2c4.9,0,8.9-4,8.9-8.9v-246C603.7,501.7,599.7,497.7,594.8,497.7"/>
<rect x="85" y="709.6" class="st11" width="1.2" height="12.8"/>
<path class="st11" d="M88.6,709.6H94c2.1,0,4.1,0.7,4.1,3.1c0,1.3-0.9,2.6-2.2,2.9c1.7,0.2,2.7,1.5,2.7,3.1c0,1.2-0.4,3.6-4.6,3.6
	h-5.4V709.6z M89.8,715.2H94c1.9,0,2.9-1,2.9-2.2c0-1.6-1-2.4-2.9-2.4h-4.2V715.2z M89.8,721.3H94c1.8,0,3.4-0.6,3.4-2.6
	c0-1.7-1.2-2.5-3.4-2.5h-4.2V721.3z"/>
<polygon class="st11" points="100.6,709.6 102.4,709.6 106.8,720.8 111.2,709.6 113,709.6 113,722.4 111.8,722.4 111.8,711.3 
	107.4,722.4 106.2,722.4 101.8,711.3 101.8,722.4 100.6,722.4 "/>
<polygon class="st12" points="130.2,722.3 127.4,722.3 125.2,713.6 123.1,722.3 120.2,722.3 116.8,709.5 119.6,709.5 121.6,718.2 
	123.8,709.5 126.4,709.5 128.6,718.3 130.7,709.5 133.5,709.5 "/>
<text transform="matrix(1 0 0 1 292.46 588.5552)" class="st3"><tspan x="0" y="0" class="st4 st27 st28">The complaint unit can </tspan><tspan x="0" y="28.8" class="st4 st27 st28">be supported by personnel</tspan><tspan x="0" y="57.6" class="st4 st27 st28">from Offering Entities, </tspan><tspan x="0" y="86.4" class="st4 st27 st28">contractors, or external </tspan><tspan x="0" y="115.2" class="st4 st27 st28">groups as needed</tspan></text>
<path class="st12" d="M133.9,715.8c0.2-2.4,2.3-3.1,4.4-3.1c1.8,0,4.1,0.4,4.1,2.6v4.8c0,0.8,0.1,1.7,0.3,2.1h-2.6
	c-0.1-0.3-0.2-0.6-0.2-0.9c-0.8,0.8-2,1.2-3.1,1.2c-1.8,0-3.1-0.9-3.1-2.8c0-4.2,6.3-2,6.2-4c0-1.1-0.7-1.2-1.7-1.2
	s-1.6,0.4-1.7,1.4h-2.6L133.9,715.8L133.9,715.8z M139.8,717.7c-0.4,0.4-1.3,0.4-2.1,0.5c-0.8,0.2-1.5,0.4-1.5,1.4s0.7,1.2,1.6,1.2
	c2,0,2.1-1.6,2.1-2.1v-1L139.8,717.7L139.8,717.7z"/>
<path class="st12" d="M147.5,713h1.9v1.7h-1.9v4.6c0,0.9,0.2,1.1,1.1,1.1c0.3,0,0.6,0,0.8-0.1v2c-0.4,0.1-1,0.1-1.5,0.1
	c-1.6,0-2.9-0.3-2.9-2.2v-5.5h-1.6V713h1.6v-2.8h2.6L147.5,713z"/>
<path class="st12" d="M152.6,719.3c0,1.1,1,1.6,2,1.6c0.7,0,1.7-0.3,1.7-1.2c0-0.8-1.1-1.1-2.9-1.4c-1.5-0.3-3-0.8-3-2.5
	c0-2.4,2.1-3,4-3c2,0,3.9,0.7,4.1,3h-2.4c-0.1-1-0.8-1.2-1.7-1.2c-0.6,0-1.4,0.1-1.4,0.9c0,0.9,1.5,1,2.9,1.4c1.5,0.3,3,0.9,3,2.6
	c0,2.4-2.1,3.2-4.2,3.2c-2.1,0-4.3-0.8-4.4-3.3h2.3L152.6,719.3L152.6,719.3z"/>
<path class="st12" d="M164.6,712.8c2.9,0,4.8,1.9,4.8,4.9s-1.9,4.9-4.8,4.9s-4.8-1.9-4.8-4.9S161.6,712.8,164.6,712.8 M164.6,720.6
	c1.7,0,2.3-1.5,2.3-3s-0.5-3-2.3-3c-1.7,0-2.2,1.5-2.2,3S162.8,720.6,164.6,720.6"/>
<path class="st12" d="M170.6,713h2.4v1.3h0.1c0.7-1.1,1.7-1.6,2.8-1.6c2.7,0,3.4,1.5,3.4,3.8v5.7h-2.6V717c0-1.5-0.4-2.3-1.6-2.3
	c-1.4,0-2,0.8-2,2.6v4.9h-2.6L170.6,713z"/>
<polygon class="st12" points="184.4,709.5 187.2,709.5 187.2,714.4 192.4,714.4 192.4,709.5 195.2,709.5 195.2,722.3 192.4,722.3 
	192.4,716.8 187.2,716.8 187.2,722.3 184.4,722.3 "/>
<path class="st12" d="M199.4,718.3c0.1,1.6,0.8,2.4,2.3,2.4c1,0,1.8-0.6,2-1.2h2.2c-0.7,2.2-2.2,3.1-4.3,3.1c-2.9,0-4.7-2-4.7-4.9
	c0-2.8,1.9-4.9,4.7-4.9c3.1,0,4.7,2.6,4.5,5.5L199.4,718.3L199.4,718.3z M203.5,716.6c-0.2-1.3-0.8-2-2-2c-1.7,0-2.1,1.2-2.1,2
	H203.5z"/>
<path class="st12" d="M207.6,715.8c0.2-2.4,2.3-3.1,4.4-3.1c1.8,0,4.1,0.4,4.1,2.6v4.8c0,0.8,0.1,1.7,0.3,2.1h-2.6
	c-0.1-0.3-0.2-0.6-0.2-0.9c-0.8,0.8-2,1.2-3.1,1.2c-1.8,0-3.1-0.9-3.1-2.8c0-4.2,6.3-2,6.2-4c0-1.1-0.7-1.2-1.7-1.2
	s-1.6,0.4-1.7,1.4h-2.6L207.6,715.8L207.6,715.8z M213.4,717.7c-0.4,0.4-1.3,0.4-2.1,0.5c-0.8,0.2-1.5,0.4-1.5,1.4s0.7,1.2,1.6,1.2
	c2,0,2.1-1.6,2.1-2.1v-1L213.4,717.7L213.4,717.7z"/>
<path class="st12" d="M225.7,713h1.9v1.7h-1.9v4.6c0,0.9,0.2,1.1,1.1,1.1c0.3,0,0.6,0,0.8-0.1v2c-0.4,0.1-1,0.1-1.5,0.1
	c-1.6,0-2.9-0.3-2.9-2.2v-5.5h-1.6V713h1.6v-2.8h2.6v2.8L225.7,713L225.7,713z"/>
<path class="st12" d="M229.2,709.5h2.6v4.8h0.1c0.7-1.1,1.7-1.6,2.7-1.6c2.7,0,3.4,1.5,3.4,3.8v5.7h-2.6V717c0-1.5-0.4-2.3-1.6-2.3
	c-1.4,0-2,0.8-2,2.6v4.9h-2.6L229.2,709.5L229.2,709.5z"/>
<rect x="217.9" y="709.5" class="st12" width="2.6" height="12.8"/>
<text transform="matrix(1 0 0 1 292.46 538.3008)" class="st24 st25 st26">Support personnel </text>
<rect x="62" y="76" class="st2" width="583.5" height="48.6"/>
<text transform="matrix(1 0 0 1 61.9722 108.8071)" class="st8 st25 st29">Who</text>
<text transform="matrix(1 0 0 1 742.2129 108.8066)" class="st24 st25 st29">What</text>
<line class="st7" x1="1365.1" y1="53.7" x2="1990.5" y2="53.7"/>
<text transform="matrix(1 0 0 1 1365.0819 108.8066)" class="st24 st25 st29">How</text>
<g>
	<defs>
		<path id="SVGID_23_" d="M202.4,682.7h-95.7c-5.5,0-10-4.5-10-10V564.8c0-5.5,4.5-10,10-10h95.7c5.5,0,10,4.5,10,10v107.9
			C212.4,678.2,207.9,682.7,202.4,682.7"/>
	</defs>
	<clipPath id="SVGID_24_">
		<use xlink:href="#SVGID_23_"  style="overflow:visible;"/>
	</clipPath>
	<g class="st30">
		<path class="st10" d="M202.4,682.7h-95.7c-5.5,0-10-4.5-10-10V564.8c0-5.5,4.5-10,10-10h95.7c5.5,0,10,4.5,10,10v107.9
			C212.4,678.2,207.9,682.7,202.4,682.7"/>
		<path class="st31" d="M126.4,593.1c5.3-18.7,25.6-25.3,26.7-21c0.5,1.7,0.5,0.9,1.6,0.1c8.5-6,23.3,3.4,27.5,20.1
			C212.4,711.4,96.2,700.7,126.4,593.1z"/>
		<path class="st32" d="M142.4,609.2l25.8,0l2.7,32c0.2,2.2,2,3.9,4.1,4l0.5,0l8.6,19.8l-28.6,23.7l-16.7-34.3l-3.4-9.2l0.9-0.2
			c2-0.3,3.5-1.9,3.6-4L142.4,609.2z"/>
		<path class="st33" d="M155.6,683.9L155.6,683.9l-22.5-5.4l2.4-33.3l0.9-0.2c2-0.3,3.5-1.9,3.6-4l1.9-25.6h13.6L155.6,683.9z"/>
		<path class="st34" d="M140.8,631.7l29.4,0.2l0.1,1.4c-0.5,0.8-0.8,1.3-1.3,2.1c-3.8,5.6-8.7,9.4-13.4,9.4c-4.7,0-9.6-3.8-13.4-9.4
			c-0.6-0.9-1-1.5-1.5-2.4L140.8,631.7z"/>
		<path class="st35" d="M174.1,623.5c0.6-1.9,1.2-3.9,1.7-6c3.9-14.8,0.1-35.9-20.1-36.1h-0.1h-0.1c-20.2,0.2-24,21.3-20.1,36.1
			c0.5,2,1,4.1,1.7,6l0,0c2,5.2,4.8,9.5,8.1,12.5h0c3.1,2.7,6.7,4.3,10.5,4.3l0,0l0,0c3.8,0,7.4-1.6,10.5-4.3l0,0
			C169.4,633,172.2,628.7,174.1,623.5L174.1,623.5z"/>
		<path class="st36" d="M136.8,644c4.4,10.9,10.9,26.2,18.8,33c8.6-9,15.5-22.9,18.6-33.1c3.4,0.7,7.1,1.3,10.2,2.6h0v0
			c14,5.8,12.9,20.6,12.8,34.6c0,4.2-3.4,7.6-7.5,7.6l-68.4,0c-4.1,0-7.4-3.4-7.5-7.6c0-13.7-1-28.2,12.1-34.3l0,0l0,0
			C129.8,645.1,132.7,644.8,136.8,644z"/>
		<path class="st37" d="M155.5,640.3v-58.8c-20.2,0.2-24,21.3-20.1,36.1c0.5,2,1,4.1,1.7,6l0,0c2,5.2,4.8,9.5,8.1,12.5h0
			C148.2,638.7,151.7,640.3,155.5,640.3z"/>
		<path class="st31" d="M179.4,603.3c-7.7-3.4-10.4,4.6-23.9-4.9c-13.5-9.6-17.2,1.8-26.2,4.9l6.8-14.7l9.5-6.5l9.4-2.1l11.5,2.1
			l8.8,4.6L179.4,603.3z"/>
		<path class="st38" d="M134.2,605.3v-0.1v0c0-1.5,1.6-1.7,3.2-1.7h16.5h1.2h0.7h2.8l15,0c1.6,0,3.1,0.3,3.1,1.7v0v0.1v7.3
			c0,1-0.4,1.8-1,2.5v0c-0.6,0.6-1.5,1-2.5,1h-11c-1.4,0-2.8-0.6-3.7-1.5c-0.9-0.9-1.5-2.3-1.5-3.7v-3.5c0-0.8-0.6-1.4-1.3-1.4h-0.3
			c-0.7,0-1.4,0.6-1.4,1.3v3.6c0,1.4-0.6,2.7-1.5,3.7c-0.9,0.9-2.3,1.5-3.7,1.5h-11c-1,0-1.8-0.4-2.5-1h0c-0.6-0.6-1-1.5-1-2.5
			V605.3z"/>
		<path class="st34" d="M174.2,605.9l-14.5,0h-0.3v4.9c0,0.8,0.3,1.5,0.8,2c0.5,0.5,1.2,0.8,2,0.8h11c0.3,0,0.5-0.1,0.7-0.3l0,0
			c0.2-0.2,0.3-0.5,0.3-0.7L174.2,605.9z"/>
		<path class="st35" d="M162.2,608.1l-1.9,3.4v-3.9c0-0.4,0.3-0.7,0.7-0.7h11v0.7c0,0.2-0.2,0.4-0.4,0.4h-9.1
			C162.4,607.9,162.2,608,162.2,608.1z"/>
		<path class="st34" d="M151.5,605.9h-14.8v6.6c0,0.3,0.1,0.5,0.3,0.7l0,0c0.2,0.2,0.4,0.3,0.7,0.3h11c0.8,0,1.5-0.3,2-0.8
			c0.5-0.5,0.8-1.2,0.8-2V605.9z"/>
		<path class="st35" d="M139.4,608.1l-1.9,3.4v-3.9c0-0.1,0-0.2,0.1-0.3c0.1-0.2,0.3-0.3,0.5-0.3c0.1,0,0.1,0,0.2,0l11,0v0.3v0.4
			c0,0.2-0.2,0.4-0.4,0.4l-9.1,0C139.6,607.9,139.5,608,139.4,608.1z"/>
		<path class="st36" d="M175.4,592.9c-2.1-3.3-3.3-5.5-6.8-7.4c-8.9-2.2-17.5-2-25.9,0c-3.6,1.9-4.9,4.3-7,7.5
			C149.6,589.1,160.7,588.3,175.4,592.9z"/>
	</g>
</g>
<rect x="742.6" y="196.1" class="st2" width="498" height="714"/>
<text transform="matrix(1 0 0 1 742.6045 218.2397)"><tspan x="0" y="0" class="st4 st25 st39">• All Watson Health complaints </tspan><tspan x="20" y="37.2" class="st4 st25 st39">are investigated</tspan><tspan x="0" y="94.4" class="st4 st25 st39">• The purpose of the investigation </tspan><tspan x="20" y="131.6" class="st4 st25 st39">is to:</tspan><tspan x="20" y="185.2" class="st4 st27 st26">- Confirm the information reported </tspan><tspan x="40" y="218.8" class="st4 st27 st26">about the problem</tspan><tspan x="20" y="272.4" class="st4 st27 st26">- Determine the root cause of the </tspan><tspan x="40" y="306" class="st4 st27 st26">problem</tspan><tspan x="20" y="359.6" class="st4 st27 st26">- Determine and take corrective </tspan><tspan x="40" y="393.2" class="st4 st27 st26">action to prevent the problem from </tspan><tspan x="40" y="426.8" class="st4 st27 st26">recurring</tspan></text>
<rect x="1378.6" y="195.1" class="st2" width="612" height="762.5"/>
<text transform="matrix(1 0 0 1 1378.5692 217.2397)"><tspan x="0" y="0" class="st4 st25 st39">• Investigations use tools that include:</tspan><tspan x="20" y="53.6" class="st4 st27 st26">- Visual, physical, and functional testing of the </tspan><tspan x="40" y="87.2" class="st4 st27 st26">Offering</tspan><tspan x="20" y="140.8" class="st4 st27 st26">- Review of Design History File, Device Master </tspan><tspan x="40" y="174.4" class="st4 st27 st26">Record, Device History Record (if applicable), </tspan><tspan x="40" y="208" class="st4 st27 st26">original test data, reworks performed</tspan><tspan x="20" y="261.6" class="st4 st27 st26">- Identification of common elements among </tspan><tspan x="40" y="295.2" class="st4 st27 st26">similar complaints such as components, </tspan><tspan x="40" y="328.8" class="st4 st27 st26">implementation date</tspan><tspan x="20" y="382.4" class="st4 st27 st26">- Review related labeling and specifications for </tspan><tspan x="40" y="416" class="st4 st27 st26">clarity/accuracy</tspan><tspan x="0" y="473.2" class="st4 st25 st39">• Document the investigation</tspan><tspan x="20" y="526.8" class="st4 st27 st26">- The CCHT rep. updates the Complaint </tspan><tspan x="40" y="560.4" class="st4 st27 st26">Record with findings</tspan><tspan x="20" y="614" class="st4 st27 st26">- This includes documenting why corrective </tspan><tspan x="40" y="647.6" class="st4 st27 st26">action not taken</tspan></text>
</svg>
