<?xml version="1.0" encoding="utf-8"?>
<!-- Generator: Adobe Illustrator 19.2.0, SVG Export Plug-In . SVG Version: 6.00 Build 0)  -->
<svg version="1.1" id="Layer_1" xmlns="http://www.w3.org/2000/svg" xmlns:xlink="http://www.w3.org/1999/xlink" x="0px" y="0px"
	 viewBox="0 0 2048 1000" style="enable-background:new 0 0 2048 1000;" xml:space="preserve">
<style type="text/css">
	.st0{fill:#B9E5FB;}
	.st1{fill:none;stroke:#343636;stroke-width:7.1988;stroke-miterlimit:10;}
	.st2{fill:#FFFFFF;}
	.st3{fill:#4EA8DE;}
	.st4{fill:#333333;}
	.st5{fill:none;stroke:#116BB4;stroke-width:0.9922;stroke-miterlimit:10;}
	.st6{fill:none;stroke:#116BB4;stroke-width:1.1018;stroke-miterlimit:10;}
	.st7{fill:none;stroke:#116BB4;stroke-width:1.0598;stroke-miterlimit:10;}
</style>
<rect class="st0" width="2048" height="1000"/>
<line class="st1" x1="48.2" y1="51.9" x2="2008.4" y2="51.9"/>
<g>
	<g>
		<polygon class="st2" points="1992.1,941.5 1992.1,476.2 1992.1,271.4 1992.1,124.6 115.2,124.6 115.2,941.5 		"/>
	</g>
</g>
<rect x="160.4" y="159.7" class="st3" width="1762.2" height="138.2"/>
<g>
	<path class="st4" d="M185.5,214.3c-0.5-1.9-1.7-3.3-4.2-3.3c-3.6,0-5.1,3.2-5.1,6.4s1.5,6.4,5.1,6.4c2.6,0,4-1.9,4.3-4.4h2.9
		c-0.3,4-3.1,6.8-7.1,6.8c-5,0-8-4-8-8.8c0-4.8,3-8.8,8-8.8c3.8,0,6.7,2.1,7.1,5.7H185.5z"/>
	<path class="st4" d="M190.9,209h2.7v16.8h-2.7V209z"/>
	<path class="st4" d="M206.6,223.1c0,0.7,0.1,0.9,0.6,0.9h0.3c0.1,0,0.2,0,0.4,0v1.9c-0.4,0.1-1.2,0.3-1.7,0.3
		c-1.1,0-1.9-0.4-2.1-1.5c-1.1,1-2.8,1.5-4.2,1.5c-2.2,0-4.2-1.2-4.2-3.5c0-3,2.4-3.5,4.7-3.8c1.9-0.4,3.6-0.1,3.6-1.7
		c0-1.4-1.5-1.6-2.5-1.6c-1.5,0-2.6,0.6-2.7,1.9h-2.7c0.2-3.1,2.8-4,5.5-4c2.4,0,4.9,1,4.9,3.5L206.6,223.1L206.6,223.1z M204,219.7
		c-0.8,0.5-2.1,0.5-3.3,0.7c-1.2,0.2-2.2,0.6-2.2,2c0,1.2,1.5,1.6,2.5,1.6c1.2,0,3-0.6,3-2.3L204,219.7L204,219.7z"/>
	<path class="st4" d="M209.6,209h2.7v2.5h-2.7V209z M209.6,213.6h2.7v12.1h-2.7V213.6z"/>
	<path class="st4" d="M215.2,213.6h2.5v1.7h0.1c0.8-1.2,1.8-2,3.7-2c1.5,0,2.9,0.6,3.4,2c0.9-1.2,2-2,3.8-2c2.6,0,4.1,1.2,4.1,4.1
		v8.4h-2.7v-7.1c0-1.9-0.1-3.3-2.2-3.3c-1.8,0-2.6,1.2-2.6,3.2v7.1h-2.7V218c0-1.7-0.5-2.6-2.1-2.6c-1.4,0-2.7,1.2-2.7,3.1v7.2h-2.7
		V213.6z"/>
	<path class="st4" d="M241.6,219.7c0-3.7,2.3-6.4,6.1-6.4s6.1,2.7,6.1,6.4c0,3.7-2.3,6.4-6.1,6.4S241.6,223.4,241.6,219.7z
		 M251.2,219.7c0-2.1-1.1-4.3-3.5-4.3s-3.5,2.2-3.5,4.3c0,2.1,1.1,4.3,3.5,4.3S251.2,221.8,251.2,219.7z"/>
	<path class="st4" d="M256.1,213.6h2.5v2.4h0c0.3-1.3,1.9-2.7,3.5-2.7c0.6,0,0.8,0,1,0.1v2.6c-0.4-0.1-0.8-0.1-1.2-0.1
		c-1.8,0-3.3,1.5-3.3,4.2v5.8h-2.7L256.1,213.6L256.1,213.6z"/>
	<path class="st4" d="M281.5,225.8h-2.6v-1.7h0c-0.7,1.2-2.1,2-3.5,2c-3.2,0-4.5-1.6-4.5-4.8v-7.7h2.7v7.4c0,2.1,0.8,2.9,2.3,2.9
		c2.2,0,3-1.4,3-3.3v-7.1h2.7L281.5,225.8L281.5,225.8z"/>
	<path class="st4" d="M286.4,221.9c0.2,1.6,1.3,2.1,2.8,2.1c1,0,2.8-0.2,2.7-1.6c-0.1-1.4-2-1.6-4-2c-2-0.4-3.9-1.1-3.9-3.6
		c0-2.7,2.9-3.5,5.1-3.5c2.5,0,4.8,1,5.1,3.7h-2.8c-0.3-1.3-1.3-1.6-2.5-1.6c-0.8,0-2.2,0.2-2.2,1.2c0,1.3,2,1.5,3.9,1.9
		c2,0.4,3.9,1.2,3.9,3.5c0,2.9-2.9,3.9-5.4,3.9c-3.1,0-5.3-1.4-5.4-4.2L286.4,221.9L286.4,221.9z"/>
	<path class="st4" d="M298.6,220.4c0,1.9,1,3.6,3.3,3.6c1.6,0,2.5-0.7,3-2h2.5c-0.6,2.7-2.9,4.1-5.5,4.1c-3.8,0-5.9-2.6-5.9-6.4
		c0-3.5,2.3-6.4,5.9-6.4c3.8,0,6.2,3.5,5.7,7.1L298.6,220.4L298.6,220.4z M304.9,218.6c-0.1-1.7-1.2-3.2-3.1-3.2
		c-1.9,0-3.1,1.4-3.2,3.2H304.9z"/>
	<path class="st4" d="M172.6,241.8h2v-3.6h2.7v3.6h2.4v2h-2.4v6.5c0,1.1,0.1,1.7,1.3,1.7c0.4,0,0.8,0,1.1-0.1v2.1
		c-0.6,0.1-1.2,0.1-1.7,0.1c-2.8,0-3.3-1.1-3.4-3.1v-7.2h-2L172.6,241.8L172.6,241.8z"/>
	<path class="st4" d="M181.7,241.8h2.5v2.4h0c0.3-1.3,1.9-2.7,3.5-2.7c0.6,0,0.8,0,1,0.1v2.6c-0.4-0.1-0.8-0.1-1.2-0.1
		c-1.8,0-3.3,1.5-3.3,4.2v5.8h-2.7V241.8z"/>
	<path class="st4" d="M200.1,251.3c0,0.7,0.1,0.9,0.6,0.9h0.3c0.1,0,0.2,0,0.4,0v1.9c-0.4,0.1-1.2,0.3-1.7,0.3
		c-1.1,0-1.9-0.4-2.1-1.5c-1.1,1-2.8,1.5-4.2,1.5c-2.2,0-4.2-1.2-4.2-3.5c0-3,2.4-3.5,4.7-3.8c1.9-0.4,3.6-0.1,3.6-1.7
		c0-1.4-1.5-1.6-2.5-1.6c-1.5,0-2.6,0.6-2.7,1.9h-2.7c0.2-3.1,2.8-4,5.5-4c2.4,0,4.9,1,4.9,3.5L200.1,251.3L200.1,251.3z
		 M197.4,247.9c-0.8,0.5-2.1,0.5-3.3,0.7c-1.2,0.2-2.2,0.6-2.2,2c0,1.2,1.5,1.6,2.5,1.6c1.2,0,3-0.6,3-2.3L197.4,247.9L197.4,247.9z
		"/>
	<path class="st4" d="M211.2,245.9c-0.2-1.5-1.3-2.3-2.8-2.3c-1.4,0-3.3,0.8-3.3,4.4c0,2,0.9,4.2,3.2,4.2c1.6,0,2.6-1,2.9-2.8h2.7
		c-0.5,3.2-2.4,4.9-5.6,4.9c-3.8,0-5.9-2.7-5.9-6.3c0-3.7,2-6.5,6-6.5c2.8,0,5.2,1.4,5.5,4.4L211.2,245.9L211.2,245.9z"/>
	<path class="st4" d="M216.1,237.2h2.7v9.5l4.8-4.9h3.3l-4.7,4.5l5.1,7.7h-3.3l-3.7-5.9l-1.6,1.6v4.3h-2.7L216.1,237.2L216.1,237.2z
		"/>
	<path class="st4" d="M228.7,237.2h2.7v2.5h-2.7V237.2z M228.7,241.8h2.7V254h-2.7V241.8z"/>
	<path class="st4" d="M234.3,241.8h2.5v1.8l0,0c0.8-1.3,2.2-2.2,3.8-2.2c2.7,0,4.3,1.4,4.3,4.1v8.3h-2.7v-7.6
		c-0.1-1.9-0.8-2.7-2.4-2.7c-1.8,0-2.9,1.4-2.9,3.2v7.2h-2.7L234.3,241.8L234.3,241.8z"/>
	<path class="st4" d="M259,253.3c0,3.7-2.1,5.5-6,5.5c-2.4,0-5.2-0.9-5.4-3.8h2.7c0.3,1.5,1.6,1.8,2.9,1.8c2.2,0,3.1-1.1,3.1-3.1
		v-1.9h0c-0.8,1.3-2.1,2.1-3.6,2.1c-3.9,0-5.5-2.9-5.5-6.4c0-3.3,2-6.1,5.5-6.1c1.5,0,2.9,0.6,3.6,2h0v-1.7h2.7L259,253.3L259,253.3
		z M256.4,247.6c0-2.1-0.9-4-3.3-4c-2.4,0-3.2,2.2-3.2,4.2c0,2,1,4,3.2,4C255.5,251.9,256.4,249.7,256.4,247.6z"/>
	<path class="st4" d="M173.8,270h2.5v1.8l0,0c0.8-1.3,2.2-2.2,3.8-2.2c2.7,0,4.3,1.4,4.3,4.1v8.3h-2.7v-7.6
		c-0.1-1.9-0.8-2.7-2.4-2.7c-1.8,0-2.9,1.4-2.9,3.2v7.2h-2.7L173.8,270L173.8,270z"/>
	<path class="st4" d="M198,282.2h-2.6v-1.7h0c-0.7,1.2-2.1,2-3.5,2c-3.2,0-4.5-1.6-4.5-4.8V270h2.7v7.4c0,2.1,0.8,2.9,2.3,2.9
		c2.2,0,3-1.4,3-3.3v-7h2.7V282.2z"/>
	<path class="st4" d="M200.8,270h2.5v1.7h0.1c0.8-1.2,1.8-2,3.7-2c1.5,0,2.9,0.6,3.4,2c0.9-1.2,2-2,3.8-2c2.6,0,4.1,1.2,4.1,4.1v8.4
		h-2.7v-7.1c0-2-0.1-3.3-2.2-3.3c-1.8,0-2.6,1.2-2.6,3.2v7.1h-2.7v-7.8c0-1.7-0.5-2.6-2.1-2.6c-1.4,0-2.7,1.2-2.7,3.1v7.2h-2.7V270z
		"/>
	<path class="st4" d="M221.3,265.4h2.7v6.2h0c0.8-1.2,2.2-1.9,3.6-1.9c3.8,0,5.7,2.9,5.7,6.5c0,3.3-1.7,6.3-5.2,6.3
		c-1.6,0-3.4-0.4-4.2-2h0v1.7h-2.5L221.3,265.4L221.3,265.4z M227.3,271.8c-2.3,0-3.4,1.7-3.4,4.3c0,2.4,1.2,4.3,3.4,4.3
		c2.4,0,3.4-2.2,3.4-4.3C230.7,273.9,229.5,271.8,227.3,271.8z"/>
	<path class="st4" d="M237.7,276.8c0,1.9,1,3.6,3.3,3.6c1.6,0,2.5-0.7,3-2h2.5c-0.6,2.7-2.9,4.1-5.5,4.1c-3.8,0-5.9-2.6-5.9-6.4
		c0-3.5,2.3-6.4,5.9-6.4c3.8,0,6.2,3.5,5.7,7.1L237.7,276.8L237.7,276.8z M243.9,275c-0.1-1.7-1.2-3.2-3.1-3.2
		c-1.9,0-3.1,1.4-3.2,3.2H243.9z"/>
	<path class="st4" d="M248.7,270h2.5v2.4h0c0.3-1.3,1.9-2.7,3.5-2.7c0.6,0,0.8,0,1,0.1v2.6c-0.4-0.1-0.8-0.1-1.2-0.1
		c-1.8,0-3.3,1.5-3.3,4.2v5.8h-2.7V270z"/>
</g>
<g>
	<path class="st4" d="M184.8,423.4l-9.5,4.3l9.5,4.3v1.5l-11.3-5.1v-1.4l11.3-5.1V423.4z"/>
	<path class="st4" d="M191.9,417.5h2.3l6.2,15.9h-2.3l-1.7-4.8h-6.7l-1.8,4.8h-2.2L191.9,417.5z M190.3,426.8h5.4l-2.7-7.4h0
		L190.3,426.8z"/>
	<path class="st4" d="M202.9,429.8c0.1,1.7,1.6,2.2,3.1,2.2c1.2,0,2.8-0.3,2.8-1.7c0-3-7.5-1-7.5-5.4c0-2.3,2.3-3.3,4.3-3.3
		c2.6,0,4.6,0.8,4.7,3.6h-1.9c-0.1-1.5-1.5-1.9-2.7-1.9c-1.1,0-2.5,0.3-2.5,1.5c0,1.3,2,1.6,3.8,2c1.9,0.4,3.8,1.1,3.8,3.3
		c0,2.8-2.6,3.6-4.9,3.6c-2.6,0-4.8-1-4.9-3.9L202.9,429.8L202.9,429.8z"/>
	<path class="st4" d="M214,429.8c0.1,1.7,1.6,2.2,3.1,2.2c1.2,0,2.8-0.3,2.8-1.7c0-3-7.5-1-7.5-5.4c0-2.3,2.3-3.3,4.3-3.3
		c2.6,0,4.6,0.8,4.7,3.6h-1.9c-0.1-1.5-1.5-1.9-2.7-1.9c-1.1,0-2.5,0.3-2.5,1.5c0,1.3,2,1.6,3.8,2c1.9,0.4,3.8,1.1,3.8,3.3
		c0,2.8-2.6,3.6-4.9,3.6c-2.6,0-4.8-1-4.9-3.9L214,429.8L214,429.8z"/>
	<path class="st4" d="M226,419.8h-1.9v-2.3h1.9V419.8z M224.1,421.9h1.9v11.5h-1.9V421.9z"/>
	<path class="st4" d="M238.9,432.4c0,3.8-1.7,5.7-5.4,5.7c-2.2,0-4.7-0.9-4.8-3.4h1.9c0.1,1.4,1.8,1.9,3,1.9c2.5,0,3.5-1.8,3.5-4.4
		v-0.8h0c-0.6,1.4-2.1,2.1-3.6,2.1c-3.4,0-5.2-2.7-5.2-5.8c0-2.7,1.3-6.1,5.3-6.1c1.5,0,2.7,0.6,3.4,1.9h0v-1.7h1.8L238.9,432.4
		L238.9,432.4z M237.1,427.4c0-2-0.9-4.1-3.3-4.1c-2.4,0-3.4,2-3.4,4.2c0,2.1,0.8,4.4,3.3,4.4C236.1,431.9,237.1,429.6,237.1,427.4z
		"/>
	<path class="st4" d="M241.8,421.9h1.8v1.8h0c0.8-1.4,2.1-2.1,3.8-2.1c3,0,4,1.7,4,4.2v7.6h-1.9v-7.8c0-1.4-0.9-2.3-2.3-2.3
		c-2.3,0-3.4,1.5-3.4,3.6v6.5h-1.9L241.8,421.9L241.8,421.9z"/>
	<path class="st4" d="M270.6,433.4c-0.3,0.2-0.8,0.3-1.4,0.3c-1,0-1.6-0.5-1.6-1.8c-1,1.2-2.5,1.8-4.1,1.8c-2.1,0-3.8-0.9-3.8-3.2
		c0-2.6,1.9-3.2,3.9-3.5c2.1-0.4,3.9-0.2,3.9-1.7c0-1.7-1.4-1.9-2.6-1.9c-1.6,0-2.8,0.5-2.9,2.2h-1.9c0.1-2.9,2.3-3.9,4.9-3.9
		c2.1,0,4.3,0.5,4.3,3.2v5.9c0,0.9,0,1.3,0.6,1.3c0.2,0,0.4,0,0.6-0.1L270.6,433.4L270.6,433.4z M267.5,427.4
		c-1.5,1.1-5.8,0-5.8,2.9c0,1.2,1.1,1.7,2.2,1.7c2.5,0,3.5-1.5,3.5-2.6V427.4z"/>
	<path class="st4" d="M279.7,429.8c0.1,1.7,1.6,2.2,3.1,2.2c1.2,0,2.8-0.3,2.8-1.7c0-3-7.5-1-7.5-5.4c0-2.3,2.3-3.3,4.3-3.3
		c2.6,0,4.6,0.8,4.7,3.6h-1.9c-0.1-1.5-1.5-1.9-2.7-1.9c-1.1,0-2.5,0.3-2.5,1.5c0,1.3,2,1.6,3.8,2c1.9,0.4,3.8,1.1,3.8,3.3
		c0,2.8-2.6,3.6-4.9,3.6c-2.6,0-4.8-1-4.9-3.9L279.7,429.8L279.7,429.8z"/>
	<path class="st4" d="M299.6,429.7c-0.5,2.6-2.3,3.9-4.9,3.9c-3.7,0-5.4-2.6-5.5-6.1c0-3.5,2.3-6,5.4-6c4.1,0,5.3,3.8,5.2,6.6h-8.6
		c-0.1,2,1.1,3.8,3.6,3.8c1.6,0,2.7-0.7,3-2.3H299.6z M297.8,426.5c-0.1-1.8-1.4-3.3-3.3-3.3c-2,0-3.2,1.5-3.3,3.3H297.8z"/>
	<path class="st4" d="M301.7,421.9h1.8v2.4h0c0.9-1.9,2.2-2.8,4.2-2.7v2c-3.1,0-4.2,1.7-4.2,4.7v5.1h-1.9L301.7,421.9L301.7,421.9z"
		/>
	<path class="st4" d="M311.2,419.8h-1.9v-2.3h1.9V419.8z M309.3,421.9h1.9v11.5h-1.9V421.9z"/>
	<path class="st4" d="M324.3,433.4c-0.3,0.2-0.8,0.3-1.4,0.3c-1,0-1.6-0.5-1.6-1.8c-1,1.2-2.5,1.8-4.1,1.8c-2.1,0-3.8-0.9-3.8-3.2
		c0-2.6,1.9-3.2,3.9-3.5c2.1-0.4,3.9-0.2,3.9-1.7c0-1.7-1.4-1.9-2.6-1.9c-1.6,0-2.8,0.5-2.9,2.2h-1.9c0.1-2.9,2.3-3.9,4.9-3.9
		c2.1,0,4.3,0.5,4.3,3.2v5.9c0,0.9,0,1.3,0.6,1.3c0.2,0,0.4,0,0.6-0.1L324.3,433.4L324.3,433.4z M321.3,427.4
		c-1.5,1.1-5.8,0-5.8,2.9c0,1.2,1.1,1.7,2.2,1.7c2.5,0,3.5-1.5,3.5-2.6V427.4z"/>
	<path class="st4" d="M326.2,417.5h1.9v15.9h-1.9V417.5z"/>
	<path class="st4" d="M173.9,448.6h1.8v1.8h0c0.8-1.4,2.1-2.1,3.8-2.1c3,0,4,1.7,4,4.2v7.6h-1.9v-7.8c0-1.4-0.9-2.3-2.3-2.3
		c-2.3,0-3.4,1.5-3.4,3.6v6.5h-1.9V448.6z"/>
	<path class="st4" d="M195.8,460.2H194v-1.8h0c-0.8,1.4-2.1,2.1-3.8,2.1c-3,0-4-1.7-4-4.2v-7.6h1.9v7.8c0,1.4,0.9,2.3,2.3,2.3
		c2.3,0,3.4-1.5,3.4-3.6v-6.5h1.9V460.2z"/>
	<path class="st4" d="M198.7,448.6h1.8v1.7h0c0.9-1.3,2.1-2,3.7-2c1.4,0,2.7,0.5,3.2,2c0.8-1.2,2.1-2,3.6-2c2.3,0,3.8,1,3.8,3.3v8.5
		H213v-7.6c0-1.4-0.4-2.6-2.2-2.6s-3,1.2-3,2.9v7.2h-1.9v-7.6c0-1.5-0.5-2.6-2.2-2.6c-2.2,0-3.1,2.1-3.1,2.9v7.2h-1.9L198.7,448.6
		L198.7,448.6z"/>
	<path class="st4" d="M217.8,444.2h1.9v6h0c0.6-1.3,2.1-1.8,3.7-1.8c3.6,0,5.3,2.8,5.3,6.1c0,3.3-1.7,6-5.3,6
		c-1.2,0-2.9-0.4-3.7-1.8h0v1.5h-1.9V444.2z M223.1,450c-2.6,0-3.5,2.2-3.5,4.4c0,2.3,1,4.4,3.6,4.4c2.6,0,3.5-2.2,3.5-4.5
		C226.7,452.1,225.6,450,223.1,450z"/>
	<path class="st4" d="M240.8,456.5c-0.5,2.6-2.3,3.9-4.9,3.9c-3.7,0-5.4-2.6-5.5-6.1c0-3.5,2.3-6,5.4-6c4.1,0,5.3,3.8,5.2,6.6h-8.6
		c-0.1,2,1.1,3.8,3.6,3.8c1.6,0,2.7-0.7,3-2.3H240.8z M239,453.3c-0.1-1.8-1.4-3.3-3.3-3.3c-2,0-3.2,1.5-3.3,3.3H239z"/>
	<path class="st4" d="M242.9,448.6h1.8v2.4h0c0.9-1.9,2.2-2.8,4.2-2.7v2c-3.1,0-4.2,1.7-4.2,4.7v5.1h-1.9L242.9,448.6L242.9,448.6z"
		/>
	<path class="st4" d="M259.2,448.6h2.3v1.7h-2.3v7.2c0,0.9,0.2,1,1.4,1h0.9v1.7H260c-2,0-2.7-0.4-2.7-2.5v-7.3h-2v-1.7h2v-3.5h1.9
		V448.6z"/>
	<path class="st4" d="M268.6,448.4c3.7,0,5.6,2.7,5.6,6c0,3.4-1.9,6-5.6,6s-5.6-2.7-5.6-6C263,451,264.9,448.4,268.6,448.4z
		 M268.6,458.8c2,0,3.6-1.6,3.6-4.4c0-2.8-1.6-4.4-3.6-4.4s-3.6,1.6-3.6,4.4C265,457.2,266.6,458.8,268.6,458.8z"/>
	<path class="st4" d="M290.4,452.3c-0.3-1.5-1.3-2.3-2.9-2.3c-2.7,0-3.6,2.2-3.6,4.5c0,2.1,1,4.2,3.4,4.2c1.9,0,2.9-1,3.2-2.8h1.9
		c-0.4,2.8-2.2,4.5-5.1,4.5c-3.5,0-5.4-2.4-5.4-5.9c0-3.5,1.8-6.2,5.4-6.2c2.6,0,4.7,1.2,5,4L290.4,452.3L290.4,452.3z"/>
	<path class="st4" d="M294.7,444.2h1.9v15.9h-1.9V444.2z"/>
	<path class="st4" d="M309.8,460.1c-0.3,0.2-0.8,0.3-1.4,0.3c-1,0-1.6-0.5-1.6-1.8c-1,1.2-2.5,1.8-4.1,1.8c-2.1,0-3.8-0.9-3.8-3.2
		c0-2.6,1.9-3.2,3.9-3.5c2.1-0.4,3.9-0.2,3.9-1.7c0-1.7-1.4-1.9-2.6-1.9c-1.6,0-2.8,0.5-2.9,2.2h-1.9c0.1-2.9,2.3-3.9,4.9-3.9
		c2.1,0,4.3,0.5,4.3,3.2v5.9c0,0.9,0,1.3,0.6,1.3c0.2,0,0.4,0,0.6-0.1L309.8,460.1L309.8,460.1z M306.7,454.2
		c-1.5,1.1-5.8,0-5.8,2.9c0,1.2,1.1,1.7,2.2,1.7c2.5,0,3.5-1.5,3.5-2.6V454.2z"/>
	<path class="st4" d="M313.5,446.6h-1.9v-2.3h1.9V446.6z M311.6,448.6h1.9v11.5h-1.9V448.6z"/>
	<path class="st4" d="M316.5,448.6h1.8v1.7h0c0.9-1.3,2.1-2,3.7-2c1.4,0,2.7,0.5,3.2,2c0.8-1.2,2.1-2,3.6-2c2.3,0,3.8,1,3.8,3.3v8.5
		h-1.9v-7.6c0-1.4-0.4-2.6-2.2-2.6s-3,1.2-3,2.9v7.2h-1.9v-7.6c0-1.5-0.5-2.6-2.2-2.6c-2.2,0-3.1,2.1-3.1,2.9v7.2h-1.9L316.5,448.6
		L316.5,448.6z"/>
	<path class="st4" d="M335.1,458.8l9.5-4.3l-9.5-4.3v-1.5l11.3,5.1v1.4l-11.3,5.1V458.8z"/>
</g>
<g>
	<path class="st4" d="M383.1,393.4l-9.5,4.3l9.5,4.3v1.5l-11.3-5.1v-1.4l11.3-5.1V393.4z"/>
	<path class="st4" d="M385.9,387.5h5.5c4.9,0,7.7,2.5,7.7,7.6c0,5.3-2.3,8.3-7.7,8.3h-5.5V387.5z M388,401.6h3.5
		c1.5,0,5.4-0.4,5.4-6.3c0-3.8-1.4-6.1-5.3-6.1H388L388,401.6L388,401.6z"/>
	<path class="st4" d="M411.1,399.7c-0.5,2.6-2.3,3.9-4.9,3.9c-3.7,0-5.4-2.6-5.5-6.1c0-3.5,2.3-6,5.4-6c4.1,0,5.3,3.8,5.2,6.6h-8.6
		c-0.1,2,1.1,3.8,3.6,3.8c1.6,0,2.7-0.7,3-2.3H411.1z M409.3,396.5c-0.1-1.8-1.4-3.3-3.3-3.3c-2,0-3.2,1.5-3.3,3.3H409.3z"/>
	<path class="st4" d="M414.4,399.8c0.1,1.7,1.6,2.2,3.1,2.2c1.2,0,2.8-0.3,2.8-1.7c0-3-7.5-1-7.5-5.4c0-2.3,2.3-3.3,4.3-3.3
		c2.6,0,4.6,0.8,4.7,3.6h-1.9c-0.1-1.5-1.5-1.9-2.7-1.9c-1.1,0-2.5,0.3-2.5,1.5c0,1.3,2,1.6,3.8,2c1.9,0.4,3.8,1.1,3.8,3.3
		c0,2.8-2.6,3.6-4.9,3.6c-2.6,0-4.8-1-4.9-3.9L414.4,399.8L414.4,399.8z"/>
	<path class="st4" d="M432.3,395.6c-0.3-1.5-1.3-2.3-2.9-2.3c-2.7,0-3.6,2.2-3.6,4.5c0,2.1,1,4.2,3.4,4.2c1.9,0,2.9-1,3.2-2.8h1.9
		c-0.4,2.8-2.2,4.5-5.1,4.5c-3.5,0-5.4-2.4-5.4-5.9c0-3.5,1.8-6.2,5.4-6.2c2.6,0,4.7,1.2,5,4L432.3,395.6L432.3,395.6z"/>
	<path class="st4" d="M436.3,391.9h1.8v2.4h0c0.9-1.9,2.2-2.8,4.2-2.7v2c-3.1,0-4.2,1.7-4.2,4.7v5.1h-1.9L436.3,391.9L436.3,391.9z"
		/>
	<path class="st4" d="M445.9,389.8H444v-2.3h1.9V389.8z M444,391.9h1.9v11.5H444V391.9z"/>
	<path class="st4" d="M448.9,391.9h1.9v1.6h0c0.6-1.3,2.1-1.8,3.7-1.8c3.5,0,5.3,2.8,5.3,6.1c0,3.3-1.7,6-5.3,6
		c-1.2,0-2.9-0.4-3.7-1.8h0v6h-1.9V391.9z M454.2,393.3c-2.6,0-3.5,2.2-3.5,4.4c0,2.3,1,4.4,3.6,4.4c2.6,0,3.5-2.2,3.5-4.5
		C457.8,395.4,456.7,393.3,454.2,393.3z"/>
	<path class="st4" d="M464.7,391.9h2.3v1.7h-2.3v7.2c0,0.9,0.2,1,1.4,1h0.9v1.7h-1.5c-2,0-2.7-0.4-2.7-2.5v-7.3h-2v-1.7h2v-3.5h1.9
		V391.9z"/>
	<path class="st4" d="M471.1,389.8h-1.9v-2.3h1.9V389.8z M469.2,391.9h1.9v11.5h-1.9V391.9z"/>
	<path class="st4" d="M479,391.6c3.7,0,5.6,2.7,5.6,6c0,3.4-1.9,6-5.6,6s-5.6-2.7-5.6-6C473.4,394.2,475.3,391.6,479,391.6z
		 M479,402c2,0,3.6-1.6,3.6-4.4c0-2.8-1.6-4.4-3.6-4.4s-3.6,1.6-3.6,4.4S477,402,479,402z"/>
	<path class="st4" d="M486.8,391.9h1.8v1.8h0c0.8-1.4,2.1-2.1,3.8-2.1c3,0,4,1.7,4,4.2v7.6h-1.9v-7.8c0-1.4-0.9-2.3-2.3-2.3
		c-2.3,0-3.4,1.5-3.4,3.6v6.5h-1.9L486.8,391.9L486.8,391.9z"/>
	<path class="st4" d="M510.4,391.6c3.7,0,5.6,2.7,5.6,6c0,3.4-1.9,6-5.6,6s-5.6-2.7-5.6-6C504.8,394.2,506.8,391.6,510.4,391.6z
		 M510.4,402c2,0,3.6-1.6,3.6-4.4c0-2.8-1.6-4.4-3.6-4.4s-3.6,1.6-3.6,4.4C506.8,400.4,508.4,402,510.4,402z"/>
	<path class="st4" d="M519,393.5h-1.9v-1.7h1.9v-1.7c0-1.9,1.1-2.9,3.2-2.9c0.4,0,0.9,0.1,1.2,0.2v1.7c-0.3-0.1-0.7-0.2-1.1-0.2
		c-0.9,0-1.5,0.3-1.5,1.3v1.6h2.2v1.7h-2.2v9.9H519L519,393.5L519,393.5z"/>
	<path class="st4" d="M374.8,418.6h2.3v1.7h-2.3v7.2c0,0.9,0.2,1,1.4,1h0.9v1.7h-1.5c-2,0-2.7-0.4-2.7-2.5v-7.3h-2v-1.7h2v-3.5h1.9
		V418.6z"/>
	<path class="st4" d="M379.2,414.2h1.9v6.1h0c0.6-1.4,2.3-2,3.6-2c3,0,4,1.7,4,4.2v7.6h-1.9v-7.8c0-1.4-0.9-2.3-2.3-2.3
		c-2.3,0-3.4,1.5-3.4,3.6v6.5h-1.9L379.2,414.2L379.2,414.2z"/>
	<path class="st4" d="M401.5,426.5c-0.5,2.6-2.3,3.9-4.9,3.9c-3.7,0-5.4-2.6-5.5-6.1c0-3.5,2.3-6,5.4-6c4.1,0,5.3,3.8,5.2,6.6H393
		c-0.1,2,1.1,3.8,3.6,3.8c1.6,0,2.7-0.7,3-2.3H401.5z M399.6,423.3c-0.1-1.8-1.4-3.3-3.3-3.3c-2,0-3.2,1.5-3.3,3.3H399.6z"/>
	<path class="st4" d="M420,430.1c-0.3,0.2-0.8,0.3-1.4,0.3c-1,0-1.6-0.5-1.6-1.8c-1,1.2-2.5,1.8-4.1,1.8c-2.1,0-3.8-0.9-3.8-3.2
		c0-2.6,1.9-3.2,3.9-3.5c2.1-0.4,3.9-0.2,3.9-1.7c0-1.7-1.4-1.9-2.6-1.9c-1.6,0-2.8,0.5-2.9,2.2h-1.9c0.1-2.9,2.3-3.9,4.9-3.9
		c2.1,0,4.3,0.5,4.3,3.2v5.9c0,0.9,0,1.3,0.6,1.3c0.2,0,0.4,0,0.6-0.1L420,430.1L420,430.1z M417,424.2c-1.5,1.1-5.8,0-5.8,2.9
		c0,1.2,1.1,1.7,2.2,1.7c2.5,0,3.5-1.5,3.5-2.6V424.2z"/>
	<path class="st4" d="M429.6,422.3c-0.3-1.5-1.3-2.3-2.9-2.3c-2.7,0-3.6,2.2-3.6,4.5c0,2.1,1,4.2,3.4,4.2c1.9,0,2.9-1,3.2-2.8h1.9
		c-0.4,2.8-2.2,4.5-5.1,4.5c-3.5,0-5.4-2.4-5.4-5.9c0-3.5,1.8-6.2,5.4-6.2c2.6,0,4.7,1.2,5,4L429.6,422.3L429.6,422.3z"/>
	<path class="st4" d="M436.4,418.6h2.3v1.7h-2.3v7.2c0,0.9,0.2,1,1.4,1h0.9v1.7h-1.5c-2,0-2.7-0.4-2.7-2.5v-7.3h-2v-1.7h2v-3.5h1.9
		V418.6z"/>
	<path class="st4" d="M450.4,430.2h-1.8v-1.8h0c-0.8,1.4-2.1,2.1-3.8,2.1c-3,0-4-1.7-4-4.2v-7.6h1.9v7.8c0,1.4,0.9,2.3,2.3,2.3
		c2.3,0,3.4-1.5,3.4-3.6v-6.5h1.9L450.4,430.2L450.4,430.2z"/>
	<path class="st4" d="M463.4,430.1c-0.3,0.2-0.8,0.3-1.4,0.3c-1,0-1.6-0.5-1.6-1.8c-1,1.2-2.5,1.8-4.1,1.8c-2.1,0-3.8-0.9-3.8-3.2
		c0-2.6,1.9-3.2,3.9-3.5c2.1-0.4,3.9-0.2,3.9-1.7c0-1.7-1.4-1.9-2.6-1.9c-1.6,0-2.8,0.5-2.9,2.2H453c0.1-2.9,2.3-3.9,4.9-3.9
		c2.1,0,4.3,0.5,4.3,3.2v5.9c0,0.9,0,1.3,0.6,1.3c0.2,0,0.4,0,0.6-0.1L463.4,430.1L463.4,430.1z M460.4,424.2
		c-1.5,1.1-5.8,0-5.8,2.9c0,1.2,1.1,1.7,2.2,1.7c2.5,0,3.5-1.5,3.5-2.6V424.2z"/>
	<path class="st4" d="M465.3,414.2h1.9v15.9h-1.9V414.2z"/>
	<path class="st4" d="M484.2,422.3c-0.3-1.5-1.3-2.3-2.9-2.3c-2.7,0-3.6,2.2-3.6,4.5c0,2.1,1,4.2,3.4,4.2c1.9,0,2.9-1,3.2-2.8h1.9
		c-0.4,2.8-2.2,4.5-5.1,4.5c-3.5,0-5.4-2.4-5.4-5.9c0-3.5,1.8-6.2,5.4-6.2c2.6,0,4.7,1.2,5,4L484.2,422.3L484.2,422.3z"/>
	<path class="st4" d="M488.5,414.2h1.9v15.9h-1.9V414.2z"/>
	<path class="st4" d="M503.5,430.1c-0.3,0.2-0.8,0.3-1.4,0.3c-1,0-1.6-0.5-1.6-1.8c-1,1.2-2.5,1.8-4.1,1.8c-2.1,0-3.8-0.9-3.8-3.2
		c0-2.6,1.9-3.2,3.9-3.5c2.1-0.4,3.9-0.2,3.9-1.7c0-1.7-1.4-1.9-2.6-1.9c-1.6,0-2.8,0.5-2.9,2.2h-1.9c0.1-2.9,2.3-3.9,4.9-3.9
		c2.1,0,4.3,0.5,4.3,3.2v5.9c0,0.9,0,1.3,0.6,1.3c0.2,0,0.4,0,0.6-0.1L503.5,430.1L503.5,430.1z M500.4,424.2
		c-1.5,1.1-5.8,0-5.8,2.9c0,1.2,1.1,1.7,2.2,1.7c2.5,0,3.5-1.5,3.5-2.6V424.2z"/>
	<path class="st4" d="M507.3,416.6h-1.9v-2.3h1.9V416.6z M505.4,418.6h1.9v11.5h-1.9V418.6z"/>
	<path class="st4" d="M510.2,418.6h1.8v1.7h0c0.9-1.3,2.1-2,3.7-2c1.4,0,2.7,0.5,3.2,2c0.8-1.2,2.1-2,3.6-2c2.3,0,3.8,1,3.8,3.3v8.5
		h-1.9v-7.6c0-1.4-0.4-2.6-2.2-2.6s-3,1.2-3,2.9v7.2h-1.9v-7.6c0-1.5-0.5-2.6-2.2-2.6c-2.2,0-3.1,2.1-3.1,2.9v7.2h-1.9L510.2,418.6
		L510.2,418.6z"/>
	<path class="st4" d="M377.2,445.1c3.7,0,5.6,2.7,5.6,6c0,3.4-1.9,6-5.6,6s-5.6-2.7-5.6-6C371.6,447.8,373.5,445.1,377.2,445.1z
		 M377.2,455.5c2,0,3.6-1.6,3.6-4.4c0-2.8-1.6-4.4-3.6-4.4s-3.6,1.6-3.6,4.4S375.2,455.5,377.2,455.5z"/>
	<path class="st4" d="M384.9,445.4h1.8v2.4h0c0.9-1.9,2.2-2.8,4.2-2.7v2c-3.1,0-4.2,1.7-4.2,4.7v5.1h-1.9L384.9,445.4L384.9,445.4z"
		/>
	<path class="st4" d="M408.2,457h-1.8v-1.8h0c-0.8,1.4-2.1,2.1-3.8,2.1c-3,0-4-1.7-4-4.2v-7.6h1.9v7.8c0,1.4,0.9,2.3,2.3,2.3
		c2.3,0,3.4-1.5,3.4-3.6v-6.5h1.9L408.2,457L408.2,457z"/>
	<path class="st4" d="M412.2,453.3c0.1,1.7,1.6,2.2,3.1,2.2c1.2,0,2.8-0.3,2.8-1.7c0-3-7.5-1-7.5-5.4c0-2.3,2.3-3.3,4.3-3.3
		c2.6,0,4.6,0.8,4.7,3.6h-1.9c-0.1-1.5-1.5-1.9-2.7-1.9c-1.1,0-2.5,0.3-2.5,1.5c0,1.3,2,1.6,3.8,2c1.9,0.4,3.8,1.1,3.8,3.3
		c0,2.8-2.6,3.6-4.9,3.6c-2.6,0-4.8-1-4.9-3.9L412.2,453.3L412.2,453.3z"/>
	<path class="st4" d="M432,453.3c-0.5,2.6-2.3,3.9-4.9,3.9c-3.7,0-5.4-2.6-5.5-6.1c0-3.5,2.3-6,5.4-6c4.1,0,5.3,3.8,5.2,6.6h-8.6
		c-0.1,2,1.1,3.8,3.6,3.8c1.6,0,2.7-0.7,3-2.3H432z M430.2,450.1c-0.1-1.8-1.4-3.3-3.3-3.3c-2,0-3.2,1.5-3.3,3.3H430.2z"/>
	<path class="st4" d="M448.2,449.1c-0.3-1.5-1.3-2.3-2.9-2.3c-2.7,0-3.6,2.2-3.6,4.5c0,2.1,1,4.2,3.4,4.2c1.9,0,2.9-1,3.2-2.8h1.9
		c-0.4,2.8-2.2,4.5-5.1,4.5c-3.5,0-5.4-2.4-5.4-5.9c0-3.5,1.8-6.2,5.4-6.2c2.6,0,4.7,1.2,5,4L448.2,449.1L448.2,449.1z"/>
	<path class="st4" d="M462.6,456.9c-0.3,0.2-0.8,0.3-1.4,0.3c-1,0-1.6-0.5-1.6-1.8c-1,1.2-2.5,1.8-4.1,1.8c-2.1,0-3.8-0.9-3.8-3.2
		c0-2.6,1.9-3.2,3.9-3.5c2.1-0.4,3.9-0.2,3.9-1.7c0-1.7-1.4-1.9-2.6-1.9c-1.6,0-2.8,0.5-2.9,2.2h-1.9c0.1-2.9,2.3-3.9,4.9-3.9
		c2.1,0,4.3,0.5,4.3,3.2v5.9c0,0.9,0,1.3,0.6,1.3c0.2,0,0.4,0,0.6-0.1L462.6,456.9L462.6,456.9z M459.5,451c-1.5,1.1-5.8,0-5.8,2.9
		c0,1.2,1.1,1.7,2.2,1.7c2.5,0,3.5-1.5,3.5-2.6V451z"/>
	<path class="st4" d="M465.5,453.3c0.1,1.7,1.6,2.2,3.1,2.2c1.2,0,2.8-0.3,2.8-1.7c0-3-7.5-1-7.5-5.4c0-2.3,2.3-3.3,4.3-3.3
		c2.6,0,4.6,0.8,4.7,3.6H471c-0.1-1.5-1.5-1.9-2.7-1.9c-1.1,0-2.5,0.3-2.5,1.5c0,1.3,2,1.6,3.8,2c1.9,0.4,3.8,1.1,3.8,3.3
		c0,2.8-2.6,3.6-4.9,3.6c-2.6,0-4.8-1-4.9-3.9L465.5,453.3L465.5,453.3z"/>
	<path class="st4" d="M485.4,453.3c-0.5,2.6-2.3,3.9-4.9,3.9c-3.7,0-5.4-2.6-5.5-6.1c0-3.5,2.3-6,5.4-6c4.1,0,5.3,3.8,5.2,6.6h-8.6
		c-0.1,2,1.1,3.8,3.6,3.8c1.6,0,2.7-0.7,3-2.3H485.4z M483.5,450.1c-0.1-1.8-1.4-3.3-3.3-3.3c-2,0-3.2,1.5-3.3,3.3H483.5z"/>
	<path class="st4" d="M487.1,455.6l9.5-4.3l-9.5-4.3v-1.5l11.3,5.1v1.4l-11.3,5.1V455.6z"/>
</g>
<g>
	<path class="st4" d="M577.9,423.4l-9.5,4.3l9.5,4.3v1.5l-11.3-5.1v-1.4l11.3-5.1V423.4z"/>
	<path class="st4" d="M590.2,429.7c-0.5,2.6-2.3,3.9-4.9,3.9c-3.7,0-5.4-2.6-5.5-6.1c0-3.5,2.3-6,5.4-6c4.1,0,5.3,3.8,5.2,6.6h-8.6
		c-0.1,2,1.1,3.8,3.6,3.8c1.6,0,2.7-0.7,3-2.3H590.2z M588.3,426.5c-0.1-1.8-1.4-3.3-3.3-3.3c-2,0-3.2,1.5-3.3,3.3H588.3z"/>
	<path class="st4" d="M602.2,432.4c0,3.8-1.7,5.7-5.4,5.7c-2.2,0-4.7-0.9-4.8-3.4h1.9c0.1,1.4,1.8,1.9,3,1.9c2.5,0,3.5-1.8,3.5-4.4
		v-0.8h0c-0.6,1.4-2.1,2.1-3.6,2.1c-3.4,0-5.2-2.7-5.2-5.8c0-2.7,1.3-6.1,5.3-6.1c1.5,0,2.7,0.6,3.4,1.9h0v-1.7h1.8L602.2,432.4
		L602.2,432.4z M600.4,427.4c0-2-0.9-4.1-3.3-4.1c-2.4,0-3.4,2-3.4,4.2c0,2.1,0.8,4.4,3.3,4.4C599.4,431.9,600.4,429.6,600.4,427.4z
		"/>
	<path class="st4" d="M605.5,430.9h2.5v2.3c0,1.7-0.7,3-2.5,3.5v-1.1c1-0.4,1.4-1.4,1.3-2.2h-1.3V430.9z"/>
	<path class="st4" d="M632.2,433.4H630l-3.6-13.4h0l-3.7,13.4h-2.2l-4.1-15.9h2.2l3.1,13.3h0l3.6-13.3h2.3l3.5,13.3h0l3.2-13.3h2.1
		L632.2,433.4z"/>
	<path class="st4" d="M648.4,433.4c-0.3,0.2-0.8,0.3-1.4,0.3c-1,0-1.6-0.5-1.6-1.8c-1,1.2-2.5,1.8-4.1,1.8c-2.1,0-3.8-0.9-3.8-3.2
		c0-2.6,1.9-3.2,3.9-3.5c2.1-0.4,3.9-0.2,3.9-1.7c0-1.7-1.4-1.9-2.6-1.9c-1.6,0-2.8,0.5-2.9,2.2H638c0.1-2.9,2.3-3.9,4.9-3.9
		c2.1,0,4.3,0.5,4.3,3.2v5.9c0,0.9,0,1.3,0.6,1.3c0.2,0,0.4,0,0.6-0.1L648.4,433.4L648.4,433.4z M645.3,427.4
		c-1.5,1.1-5.8,0-5.8,2.9c0,1.2,1.1,1.7,2.2,1.7c2.5,0,3.5-1.5,3.5-2.6V427.4z"/>
	<path class="st4" d="M652.8,421.9h2.3v1.7h-2.3v7.2c0,0.9,0.2,1,1.4,1h0.9v1.7h-1.5c-2,0-2.7-0.4-2.7-2.5v-7.3h-2v-1.7h2v-3.5h1.9
		V421.9z"/>
	<path class="st4" d="M658.3,429.8c0.1,1.7,1.6,2.2,3.1,2.2c1.2,0,2.8-0.3,2.8-1.7c0-3-7.5-1-7.5-5.4c0-2.3,2.3-3.3,4.3-3.3
		c2.6,0,4.6,0.8,4.7,3.6h-1.9c-0.1-1.5-1.5-1.9-2.7-1.9c-1.1,0-2.5,0.3-2.5,1.5c0,1.3,2,1.6,3.8,2c1.9,0.4,3.8,1.1,3.8,3.3
		c0,2.8-2.6,3.6-4.9,3.6c-2.6,0-4.8-1-4.9-3.9L658.3,429.8L658.3,429.8z"/>
	<path class="st4" d="M673.3,421.6c3.7,0,5.6,2.7,5.6,6c0,3.4-1.9,6-5.6,6s-5.6-2.7-5.6-6C667.7,424.2,669.7,421.6,673.3,421.6z
		 M673.3,432c2,0,3.6-1.6,3.6-4.4c0-2.8-1.6-4.4-3.6-4.4s-3.6,1.6-3.6,4.4S671.3,432,673.3,432z"/>
	<path class="st4" d="M681.2,421.9h1.8v1.8h0c0.8-1.4,2.1-2.1,3.8-2.1c3,0,4,1.7,4,4.2v7.6h-1.9v-7.8c0-1.4-0.9-2.3-2.3-2.3
		c-2.3,0-3.4,1.5-3.4,3.6v6.5h-1.9L681.2,421.9L681.2,421.9z"/>
	<path class="st4" d="M700.6,423.5h-1.9v-1.7h1.9v-1.7c0-1.9,1.1-2.9,3.2-2.9c0.4,0,0.9,0.1,1.2,0.2v1.7c-0.3-0.1-0.7-0.2-1.1-0.2
		c-0.9,0-1.5,0.3-1.5,1.3v1.6h2.2v1.7h-2.2v9.9h-1.9L700.6,423.5L700.6,423.5z"/>
	<path class="st4" d="M711.4,421.6c3.7,0,5.6,2.7,5.6,6c0,3.4-1.9,6-5.6,6s-5.6-2.7-5.6-6C705.8,424.2,707.7,421.6,711.4,421.6z
		 M711.4,432c2,0,3.6-1.6,3.6-4.4c0-2.8-1.6-4.4-3.6-4.4s-3.6,1.6-3.6,4.4C707.8,430.4,709.4,432,711.4,432z"/>
	<path class="st4" d="M719.1,421.9h1.8v2.4h0c0.9-1.9,2.2-2.8,4.2-2.7v2c-3.1,0-4.2,1.7-4.2,4.7v5.1h-1.9L719.1,421.9L719.1,421.9z"
		/>
	<path class="st4" d="M571.9,448.4c3.7,0,5.6,2.7,5.6,6c0,3.4-1.9,6-5.6,6s-5.6-2.7-5.6-6C566.3,451,568.2,448.4,571.9,448.4z
		 M571.9,458.8c2,0,3.6-1.6,3.6-4.4c0-2.8-1.6-4.4-3.6-4.4s-3.6,1.6-3.6,4.4C568.3,457.2,569.9,458.8,571.9,458.8z"/>
	<path class="st4" d="M579.7,448.6h1.8v1.8h0c0.8-1.4,2.1-2.1,3.8-2.1c3,0,4,1.7,4,4.2v7.6h-1.9v-7.8c0-1.4-0.9-2.3-2.3-2.3
		c-2.3,0-3.4,1.5-3.4,3.6v6.5h-1.9L579.7,448.6L579.7,448.6z"/>
	<path class="st4" d="M600,452.3c-0.3-1.5-1.3-2.3-2.9-2.3c-2.7,0-3.6,2.2-3.6,4.5c0,2.1,1,4.2,3.4,4.2c1.9,0,2.9-1,3.2-2.8h1.9
		c-0.4,2.8-2.2,4.5-5.1,4.5c-3.5,0-5.4-2.4-5.4-5.9c0-3.5,1.8-6.2,5.4-6.2c2.6,0,4.7,1.2,5,4L600,452.3L600,452.3z"/>
	<path class="st4" d="M609.1,448.4c3.7,0,5.6,2.7,5.6,6c0,3.4-1.9,6-5.6,6s-5.6-2.7-5.6-6C603.5,451,605.4,448.4,609.1,448.4z
		 M609.1,458.8c2,0,3.6-1.6,3.6-4.4c0-2.8-1.6-4.4-3.6-4.4s-3.6,1.6-3.6,4.4C605.5,457.2,607.1,458.8,609.1,458.8z"/>
	<path class="st4" d="M617,444.2h1.9v15.9H617V444.2z"/>
	<path class="st4" d="M626.9,448.4c3.7,0,5.6,2.7,5.6,6c0,3.4-1.9,6-5.6,6s-5.6-2.7-5.6-6C621.3,451,623.2,448.4,626.9,448.4z
		 M626.9,458.8c2,0,3.6-1.6,3.6-4.4c0-2.8-1.6-4.4-3.6-4.4s-3.6,1.6-3.6,4.4C623.3,457.2,624.9,458.8,626.9,458.8z"/>
	<path class="st4" d="M644.6,459.2c0,3.8-1.7,5.7-5.4,5.7c-2.2,0-4.7-0.9-4.8-3.4h1.9c0.1,1.4,1.8,1.9,3,1.9c2.5,0,3.5-1.8,3.5-4.4
		v-0.8h0c-0.6,1.4-2.1,2.1-3.6,2.1c-3.4,0-5.2-2.7-5.2-5.8c0-2.7,1.3-6.1,5.3-6.1c1.5,0,2.7,0.6,3.4,1.9h0v-1.7h1.8L644.6,459.2
		L644.6,459.2z M642.8,454.2c0-2-0.9-4.1-3.3-4.1c-2.4,0-3.4,2-3.4,4.2c0,2.1,0.8,4.4,3.3,4.4C641.8,458.6,642.8,456.3,642.8,454.2z
		"/>
	<path class="st4" d="M652,461.7c-0.9,2.2-1.7,3.1-3.3,3.1c-0.4,0-0.9,0-1.3-0.2v-1.7c0.4,0.1,0.7,0.3,1.1,0.3c0.8,0,1.2-0.4,1.6-1
		l0.8-2l-4.6-11.5h2.1l3.4,9.4h0l3.2-9.4h2L652,461.7z"/>
	<path class="st4" d="M658.3,458.8l9.5-4.3l-9.5-4.3v-1.5l11.3,5.1v1.4l-11.3,5.1V458.8z"/>
</g>
<g>
	<path class="st4" d="M1168,425.3l-9.5,4.3l9.5,4.3v1.5l-11.3-5.1v-1.4l11.3-5.1V425.3z"/>
	<path class="st4" d="M1170.8,419.3h2.3l8.4,12.9h0v-12.9h2v15.9h-2.3l-8.3-12.8h0v12.8h-2L1170.8,419.3L1170.8,419.3z"/>
	<path class="st4" d="M1196.8,435.2c-0.3,0.2-0.8,0.3-1.4,0.3c-1,0-1.6-0.5-1.6-1.8c-1,1.2-2.5,1.8-4.1,1.8c-2.1,0-3.8-0.9-3.8-3.2
		c0-2.6,1.9-3.2,3.9-3.5c2.1-0.4,3.9-0.2,3.9-1.7c0-1.7-1.4-1.9-2.6-1.9c-1.6,0-2.8,0.5-2.9,2.2h-1.9c0.1-2.9,2.3-3.9,4.9-3.9
		c2.1,0,4.3,0.5,4.3,3.2v5.9c0,0.9,0,1.3,0.6,1.3c0.2,0,0.4,0,0.6-0.1L1196.8,435.2L1196.8,435.2z M1193.7,429.3
		c-1.5,1.1-5.8,0-5.8,2.9c0,1.2,1.1,1.7,2.2,1.7c2.5,0,3.5-1.5,3.5-2.6L1193.7,429.3L1193.7,429.3z"/>
	<path class="st4" d="M1198.6,423.7h1.8v1.7h0c0.9-1.3,2.1-2,3.7-2c1.4,0,2.7,0.5,3.2,2c0.8-1.2,2.1-2,3.6-2c2.3,0,3.8,1,3.8,3.3
		v8.5h-1.9v-7.6c0-1.4-0.4-2.6-2.2-2.6s-3,1.2-3,2.9v7.2h-1.9v-7.6c0-1.5-0.5-2.6-2.2-2.6c-2.2,0-3.1,2.1-3.1,2.9v7.2h-1.9
		L1198.6,423.7L1198.6,423.7z"/>
	<path class="st4" d="M1227.5,431.6c-0.5,2.6-2.3,3.9-4.9,3.9c-3.7,0-5.4-2.6-5.5-6.1c0-3.5,2.3-6,5.4-6c4.1,0,5.3,3.8,5.2,6.6h-8.6
		c-0.1,2,1.1,3.8,3.6,3.8c1.6,0,2.7-0.7,3-2.3H1227.5z M1225.6,428.4c-0.1-1.8-1.4-3.3-3.3-3.3c-2,0-3.2,1.5-3.3,3.3H1225.6z"/>
	<path class="st4" d="M1246,435.2c-0.3,0.2-0.8,0.3-1.4,0.3c-1,0-1.6-0.5-1.6-1.8c-1,1.2-2.5,1.8-4.1,1.8c-2.1,0-3.8-0.9-3.8-3.2
		c0-2.6,1.9-3.2,3.9-3.5c2.1-0.4,3.9-0.2,3.9-1.7c0-1.7-1.4-1.9-2.6-1.9c-1.6,0-2.8,0.5-2.9,2.2h-1.9c0.1-2.9,2.3-3.9,4.9-3.9
		c2.1,0,4.3,0.5,4.3,3.2v5.9c0,0.9,0,1.3,0.6,1.3c0.2,0,0.4,0,0.6-0.1L1246,435.2L1246,435.2z M1242.9,429.3c-1.5,1.1-5.8,0-5.8,2.9
		c0,1.2,1.1,1.7,2.2,1.7c2.5,0,3.5-1.5,3.5-2.6L1242.9,429.3L1242.9,429.3z"/>
	<path class="st4" d="M1247.8,423.7h1.8v1.8h0c0.8-1.4,2.1-2.1,3.8-2.1c3,0,4,1.7,4,4.2v7.6h-1.9v-7.8c0-1.4-0.9-2.3-2.3-2.3
		c-2.3,0-3.4,1.5-3.4,3.6v6.5h-1.9L1247.8,423.7L1247.8,423.7z"/>
	<path class="st4" d="M1270.5,435.3h-1.9v-1.6h0c-0.6,1.3-2.1,1.8-3.7,1.8c-3.5,0-5.3-2.8-5.3-6.1s1.7-6,5.3-6
		c1.2,0,2.9,0.4,3.7,1.8h0v-5.9h1.9L1270.5,435.3L1270.5,435.3z M1265.1,433.8c2.6,0,3.5-2.2,3.5-4.4c0-2.3-1-4.4-3.6-4.4
		c-2.6,0-3.5,2.2-3.5,4.5C1261.6,431.7,1262.7,433.8,1265.1,433.8z"/>
	<path class="st4" d="M1158.2,458.4c0.1,1.7,1.6,2.2,3.1,2.2c1.2,0,2.8-0.3,2.8-1.7c0-3-7.5-1-7.5-5.4c0-2.3,2.3-3.3,4.3-3.3
		c2.6,0,4.6,0.8,4.7,3.6h-1.9c-0.1-1.5-1.5-1.9-2.7-1.9c-1.1,0-2.5,0.3-2.5,1.5c0,1.3,2,1.6,3.8,2c1.9,0.4,3.8,1.1,3.8,3.3
		c0,2.8-2.6,3.6-4.9,3.6c-2.6,0-4.8-1-4.9-3.9L1158.2,458.4L1158.2,458.4z"/>
	<path class="st4" d="M1170.3,448.4h-1.9v-2.3h1.9V448.4z M1168.4,450.5h1.9V462h-1.9V450.5z"/>
	<path class="st4" d="M1183.2,461.1c0,3.8-1.7,5.7-5.4,5.7c-2.2,0-4.7-0.9-4.8-3.4h1.9c0.1,1.4,1.8,1.9,3,1.9c2.5,0,3.5-1.8,3.5-4.4
		v-0.8h0c-0.6,1.4-2.1,2.1-3.6,2.1c-3.4,0-5.2-2.7-5.2-5.8c0-2.7,1.3-6.1,5.3-6.1c1.5,0,2.7,0.6,3.4,1.9h0v-1.7h1.8L1183.2,461.1
		L1183.2,461.1z M1181.3,456c0-2-0.9-4.1-3.3-4.1c-2.4,0-3.4,2-3.4,4.2c0,2.1,0.8,4.4,3.3,4.4S1181.3,458.2,1181.3,456z"/>
	<path class="st4" d="M1186,450.5h1.8v1.8h0c0.8-1.4,2.1-2.1,3.8-2.1c3,0,4,1.7,4,4.2v7.6h-1.9v-7.8c0-1.4-0.9-2.3-2.3-2.3
		c-2.3,0-3.4,1.5-3.4,3.6v6.5h-1.9L1186,450.5L1186,450.5z"/>
	<path class="st4" d="M1208.6,462c-0.3,0.2-0.8,0.3-1.4,0.3c-1,0-1.6-0.5-1.6-1.8c-1,1.2-2.5,1.8-4.1,1.8c-2.1,0-3.8-0.9-3.8-3.2
		c0-2.6,1.9-3.2,3.9-3.5c2.1-0.4,3.9-0.2,3.9-1.7c0-1.7-1.4-1.9-2.6-1.9c-1.6,0-2.8,0.5-2.9,2.2h-1.9c0.1-2.9,2.3-3.9,4.9-3.9
		c2.1,0,4.3,0.5,4.3,3.2v5.9c0,0.9,0,1.3,0.6,1.3c0.2,0,0.4,0,0.6-0.1L1208.6,462L1208.6,462z M1205.6,456.1c-1.5,1.1-5.8,0-5.8,2.9
		c0,1.2,1.1,1.7,2.2,1.7c2.5,0,3.5-1.5,3.5-2.6L1205.6,456.1L1205.6,456.1z"/>
	<path class="st4" d="M1213,450.5h2.3v1.7h-2.3v7.2c0,0.9,0.2,1,1.4,1h0.9v1.7h-1.5c-2,0-2.7-0.4-2.7-2.5v-7.3h-2v-1.7h2V447h1.9
		L1213,450.5L1213,450.5z"/>
	<path class="st4" d="M1227,462h-1.8v-1.8h0c-0.8,1.4-2.1,2.1-3.8,2.1c-3,0-4-1.7-4-4.2v-7.6h1.9v7.8c0,1.4,0.9,2.3,2.3,2.3
		c2.3,0,3.4-1.5,3.4-3.6v-6.5h1.9L1227,462L1227,462z"/>
	<path class="st4" d="M1229.8,450.5h1.8v2.4h0c0.9-1.9,2.2-2.8,4.2-2.7v2c-3.1,0-4.2,1.7-4.2,4.7v5.1h-1.9V450.5z"/>
	<path class="st4" d="M1247.1,458.4c-0.5,2.6-2.3,3.9-4.9,3.9c-3.7,0-5.4-2.6-5.5-6.1c0-3.5,2.3-6,5.4-6c4.1,0,5.3,3.8,5.2,6.6h-8.6
		c-0.1,2,1.1,3.8,3.6,3.8c1.6,0,2.7-0.7,3-2.3H1247.1z M1245.3,455.2c-0.1-1.8-1.4-3.3-3.3-3.3c-2,0-3.2,1.5-3.3,3.3H1245.3z"/>
	<path class="st4" d="M1248.9,460.7l9.5-4.3l-9.5-4.3v-1.5l11.3,5.1v1.4l-11.3,5.1V460.7z"/>
</g>
<g>
	<path class="st4" d="M1370,425.3l-9.5,4.3l9.5,4.3v1.5l-11.3-5.1v-1.4l11.3-5.1V425.3z"/>
	<path class="st4" d="M1372.8,419.3h2.3l8.4,12.9h0v-12.9h2v15.9h-2.3l-8.3-12.8h0v12.8h-2L1372.8,419.3L1372.8,419.3z"/>
	<path class="st4" d="M1398.8,435.2c-0.3,0.2-0.8,0.3-1.4,0.3c-1,0-1.6-0.5-1.6-1.8c-1,1.2-2.5,1.8-4.1,1.8c-2.1,0-3.8-0.9-3.8-3.2
		c0-2.6,1.9-3.2,3.9-3.5c2.1-0.4,3.9-0.2,3.9-1.7c0-1.7-1.4-1.9-2.6-1.9c-1.6,0-2.8,0.5-2.9,2.2h-1.9c0.1-2.9,2.3-3.9,4.9-3.9
		c2.1,0,4.3,0.5,4.3,3.2v5.9c0,0.9,0,1.3,0.6,1.3c0.2,0,0.4,0,0.6-0.1L1398.8,435.2L1398.8,435.2z M1395.7,429.3
		c-1.5,1.1-5.8,0-5.8,2.9c0,1.2,1.1,1.7,2.2,1.7c2.5,0,3.5-1.5,3.5-2.6L1395.7,429.3L1395.7,429.3z"/>
	<path class="st4" d="M1400.6,423.7h1.8v1.7h0c0.9-1.3,2.1-2,3.7-2c1.4,0,2.7,0.5,3.2,2c0.8-1.2,2.1-2,3.6-2c2.3,0,3.8,1,3.8,3.3
		v8.5h-1.9v-7.6c0-1.4-0.4-2.6-2.2-2.6s-3,1.2-3,2.9v7.2h-1.9v-7.6c0-1.5-0.5-2.6-2.2-2.6c-2.2,0-3.1,2.1-3.1,2.9v7.2h-1.9
		L1400.6,423.7L1400.6,423.7z"/>
	<path class="st4" d="M1429.4,431.6c-0.5,2.6-2.3,3.9-4.9,3.9c-3.7,0-5.4-2.6-5.5-6.1c0-3.5,2.3-6,5.4-6c4.1,0,5.3,3.8,5.2,6.6h-8.6
		c-0.1,2,1.1,3.8,3.6,3.8c1.6,0,2.7-0.7,3-2.3H1429.4z M1427.6,428.4c-0.1-1.8-1.4-3.3-3.3-3.3c-2,0-3.2,1.5-3.3,3.3H1427.6z"/>
	<path class="st4" d="M1448,435.2c-0.3,0.2-0.8,0.3-1.4,0.3c-1,0-1.6-0.5-1.6-1.8c-1,1.2-2.5,1.8-4.1,1.8c-2.1,0-3.8-0.9-3.8-3.2
		c0-2.6,1.9-3.2,3.9-3.5c2.1-0.4,3.9-0.2,3.9-1.7c0-1.7-1.4-1.9-2.6-1.9c-1.6,0-2.8,0.5-2.9,2.2h-1.9c0.1-2.9,2.3-3.9,4.9-3.9
		c2.1,0,4.3,0.5,4.3,3.2v5.9c0,0.9,0,1.3,0.6,1.3c0.2,0,0.4,0,0.6-0.1L1448,435.2L1448,435.2z M1444.9,429.3c-1.5,1.1-5.8,0-5.8,2.9
		c0,1.2,1.1,1.7,2.2,1.7c2.5,0,3.5-1.5,3.5-2.6L1444.9,429.3L1444.9,429.3z"/>
	<path class="st4" d="M1449.8,423.7h1.8v1.8h0c0.8-1.4,2.1-2.1,3.8-2.1c3,0,4,1.7,4,4.2v7.6h-1.9v-7.8c0-1.4-0.9-2.3-2.3-2.3
		c-2.3,0-3.4,1.5-3.4,3.6v6.5h-1.9L1449.8,423.7L1449.8,423.7z"/>
	<path class="st4" d="M1472.5,435.3h-1.9v-1.6h0c-0.6,1.3-2.1,1.8-3.7,1.8c-3.5,0-5.3-2.8-5.3-6.1s1.7-6,5.3-6
		c1.2,0,2.9,0.4,3.7,1.8h0v-5.9h1.9L1472.5,435.3L1472.5,435.3z M1467.1,433.8c2.6,0,3.5-2.2,3.5-4.4c0-2.3-1-4.4-3.6-4.4
		c-2.6,0-3.5,2.2-3.5,4.5C1463.6,431.7,1464.7,433.8,1467.1,433.8z"/>
	<path class="st4" d="M1360.2,458.4c0.1,1.7,1.6,2.2,3.1,2.2c1.2,0,2.8-0.3,2.8-1.7c0-3-7.5-1-7.5-5.4c0-2.3,2.3-3.3,4.3-3.3
		c2.6,0,4.6,0.8,4.7,3.6h-1.9c-0.1-1.5-1.5-1.9-2.7-1.9c-1.1,0-2.5,0.3-2.5,1.5c0,1.3,2,1.6,3.8,2c1.9,0.4,3.8,1.1,3.8,3.3
		c0,2.8-2.6,3.6-4.9,3.6c-2.6,0-4.8-1-4.9-3.9L1360.2,458.4L1360.2,458.4z"/>
	<path class="st4" d="M1372.2,448.4h-1.9v-2.3h1.9V448.4z M1370.3,450.5h1.9V462h-1.9V450.5z"/>
	<path class="st4" d="M1385.1,461.1c0,3.8-1.7,5.7-5.4,5.7c-2.2,0-4.7-0.9-4.8-3.4h1.9c0.1,1.4,1.8,1.9,3,1.9c2.5,0,3.5-1.8,3.5-4.4
		v-0.8h0c-0.6,1.4-2.1,2.1-3.6,2.1c-3.4,0-5.2-2.7-5.2-5.8c0-2.7,1.3-6.1,5.3-6.1c1.5,0,2.7,0.6,3.4,1.9h0v-1.7h1.8L1385.1,461.1
		L1385.1,461.1z M1383.3,456c0-2-0.9-4.1-3.3-4.1c-2.4,0-3.4,2-3.4,4.2c0,2.1,0.8,4.4,3.3,4.4C1382.3,460.5,1383.3,458.2,1383.3,456
		z"/>
	<path class="st4" d="M1388,450.5h1.8v1.8h0c0.8-1.4,2.1-2.1,3.8-2.1c3,0,4,1.7,4,4.2v7.6h-1.9v-7.8c0-1.4-0.9-2.3-2.3-2.3
		c-2.3,0-3.4,1.5-3.4,3.6v6.5h-1.9L1388,450.5L1388,450.5z"/>
	<path class="st4" d="M1410.6,462c-0.3,0.2-0.8,0.3-1.4,0.3c-1,0-1.6-0.5-1.6-1.8c-1,1.2-2.5,1.8-4.1,1.8c-2.1,0-3.8-0.9-3.8-3.2
		c0-2.6,1.9-3.2,3.9-3.5c2.1-0.4,3.9-0.2,3.9-1.7c0-1.7-1.4-1.9-2.6-1.9c-1.6,0-2.8,0.5-2.9,2.2h-1.9c0.1-2.9,2.3-3.9,4.9-3.9
		c2.1,0,4.3,0.5,4.3,3.2v5.9c0,0.9,0,1.3,0.6,1.3c0.2,0,0.4,0,0.6-0.1L1410.6,462L1410.6,462z M1407.6,456.1c-1.5,1.1-5.8,0-5.8,2.9
		c0,1.2,1.1,1.7,2.2,1.7c2.5,0,3.5-1.5,3.5-2.6L1407.6,456.1L1407.6,456.1z"/>
	<path class="st4" d="M1415,450.5h2.3v1.7h-2.3v7.2c0,0.9,0.2,1,1.4,1h0.9v1.7h-1.5c-2,0-2.7-0.4-2.7-2.5v-7.3h-2v-1.7h2V447h1.9
		L1415,450.5L1415,450.5z"/>
	<path class="st4" d="M1429,462h-1.8v-1.8h0c-0.8,1.4-2.1,2.1-3.8,2.1c-3,0-4-1.7-4-4.2v-7.6h1.9v7.8c0,1.4,0.9,2.3,2.3,2.3
		c2.3,0,3.4-1.5,3.4-3.6v-6.5h1.9L1429,462L1429,462z"/>
	<path class="st4" d="M1431.8,450.5h1.8v2.4h0c0.9-1.9,2.2-2.8,4.2-2.7v2c-3.1,0-4.2,1.7-4.2,4.7v5.1h-1.9V450.5z"/>
	<path class="st4" d="M1449.1,458.4c-0.5,2.6-2.3,3.9-4.9,3.9c-3.7,0-5.4-2.6-5.5-6.1c0-3.5,2.3-6,5.4-6c4.1,0,5.3,3.8,5.2,6.6h-8.6
		c-0.1,2,1.1,3.8,3.6,3.8c1.6,0,2.7-0.7,3-2.3H1449.1z M1447.3,455.2c-0.1-1.8-1.4-3.3-3.3-3.3c-2,0-3.2,1.5-3.3,3.3H1447.3z"/>
	<path class="st4" d="M1450.8,460.7l9.5-4.3l-9.5-4.3v-1.5l11.3,5.1v1.4l-11.3,5.1V460.7z"/>
</g>
<g>
	<path class="st4" d="M1567.2,425.3l-9.5,4.3l9.5,4.3v1.5l-11.3-5.1v-1.4l11.3-5.1V425.3z"/>
	<path class="st4" d="M1569.9,419.3h2.3l8.4,12.9h0v-12.9h2v15.9h-2.3l-8.3-12.8h0v12.8h-2L1569.9,419.3L1569.9,419.3z"/>
	<path class="st4" d="M1595.9,435.2c-0.3,0.2-0.8,0.3-1.4,0.3c-1,0-1.6-0.5-1.6-1.8c-1,1.2-2.5,1.8-4.1,1.8c-2.1,0-3.8-0.9-3.8-3.2
		c0-2.6,1.9-3.2,3.9-3.5c2.1-0.4,3.9-0.2,3.9-1.7c0-1.7-1.4-1.9-2.6-1.9c-1.6,0-2.8,0.5-2.9,2.2h-1.9c0.1-2.9,2.3-3.9,4.9-3.9
		c2.1,0,4.3,0.5,4.3,3.2v5.9c0,0.9,0,1.3,0.6,1.3c0.2,0,0.4,0,0.6-0.1L1595.9,435.2L1595.9,435.2z M1592.9,429.3
		c-1.5,1.1-5.8,0-5.8,2.9c0,1.2,1.1,1.7,2.2,1.7c2.5,0,3.5-1.5,3.5-2.6L1592.9,429.3L1592.9,429.3z"/>
	<path class="st4" d="M1597.7,423.7h1.8v1.7h0c0.9-1.3,2.1-2,3.7-2c1.4,0,2.7,0.5,3.2,2c0.8-1.2,2.1-2,3.6-2c2.3,0,3.8,1,3.8,3.3
		v8.5h-1.9v-7.6c0-1.4-0.4-2.6-2.2-2.6s-3,1.2-3,2.9v7.2h-1.9v-7.6c0-1.5-0.5-2.6-2.2-2.6c-2.2,0-3.1,2.1-3.1,2.9v7.2h-1.9
		L1597.7,423.7L1597.7,423.7z"/>
	<path class="st4" d="M1626.6,431.6c-0.5,2.6-2.3,3.9-4.9,3.9c-3.7,0-5.4-2.6-5.5-6.1c0-3.5,2.3-6,5.4-6c4.1,0,5.3,3.8,5.2,6.6h-8.6
		c-0.1,2,1.1,3.8,3.6,3.8c1.6,0,2.7-0.7,3-2.3H1626.6z M1624.8,428.4c-0.1-1.8-1.4-3.3-3.3-3.3c-2,0-3.2,1.5-3.3,3.3H1624.8z"/>
	<path class="st4" d="M1645.2,435.2c-0.3,0.2-0.8,0.3-1.4,0.3c-1,0-1.6-0.5-1.6-1.8c-1,1.2-2.5,1.8-4.1,1.8c-2.1,0-3.8-0.9-3.8-3.2
		c0-2.6,1.9-3.2,3.9-3.5c2.1-0.4,3.9-0.2,3.9-1.7c0-1.7-1.4-1.9-2.6-1.9c-1.6,0-2.8,0.5-2.9,2.2h-1.9c0.1-2.9,2.3-3.9,4.9-3.9
		c2.1,0,4.3,0.5,4.3,3.2v5.9c0,0.9,0,1.3,0.6,1.3c0.2,0,0.4,0,0.6-0.1L1645.2,435.2L1645.2,435.2z M1642.1,429.3
		c-1.5,1.1-5.8,0-5.8,2.9c0,1.2,1.1,1.7,2.2,1.7c2.5,0,3.5-1.5,3.5-2.6L1642.1,429.3L1642.1,429.3z"/>
	<path class="st4" d="M1646.9,423.7h1.8v1.8h0c0.8-1.4,2.1-2.1,3.8-2.1c3,0,4,1.7,4,4.2v7.6h-1.9v-7.8c0-1.4-0.9-2.3-2.3-2.3
		c-2.3,0-3.4,1.5-3.4,3.6v6.5h-1.9L1646.9,423.7L1646.9,423.7z"/>
	<path class="st4" d="M1669.6,435.3h-1.9v-1.6h0c-0.6,1.3-2.1,1.8-3.7,1.8c-3.5,0-5.3-2.8-5.3-6.1s1.7-6,5.3-6
		c1.2,0,2.9,0.4,3.7,1.8h0v-5.9h1.9L1669.6,435.3L1669.6,435.3z M1664.3,433.8c2.6,0,3.5-2.2,3.5-4.4c0-2.3-1-4.4-3.6-4.4
		c-2.6,0-3.5,2.2-3.5,4.5C1660.7,431.7,1661.8,433.8,1664.3,433.8z"/>
	<path class="st4" d="M1557.4,458.4c0.1,1.7,1.6,2.2,3.1,2.2c1.2,0,2.8-0.3,2.8-1.7c0-3-7.5-1-7.5-5.4c0-2.3,2.3-3.3,4.3-3.3
		c2.6,0,4.6,0.8,4.7,3.6h-1.9c-0.1-1.5-1.5-1.9-2.7-1.9c-1.1,0-2.5,0.3-2.5,1.5c0,1.3,2,1.6,3.8,2c1.9,0.4,3.8,1.1,3.8,3.3
		c0,2.8-2.6,3.6-4.9,3.6c-2.6,0-4.8-1-4.9-3.9L1557.4,458.4L1557.4,458.4z"/>
	<path class="st4" d="M1569.4,448.4h-1.9v-2.3h1.9V448.4z M1567.5,450.5h1.9V462h-1.9V450.5z"/>
	<path class="st4" d="M1582.3,461.1c0,3.8-1.7,5.7-5.4,5.7c-2.2,0-4.7-0.9-4.8-3.4h1.9c0.1,1.4,1.8,1.9,3,1.9c2.5,0,3.5-1.8,3.5-4.4
		v-0.8h0c-0.6,1.4-2.1,2.1-3.6,2.1c-3.4,0-5.2-2.7-5.2-5.8c0-2.7,1.3-6.1,5.3-6.1c1.5,0,2.7,0.6,3.4,1.9h0v-1.7h1.8L1582.3,461.1
		L1582.3,461.1z M1580.4,456c0-2-0.9-4.1-3.3-4.1c-2.4,0-3.4,2-3.4,4.2c0,2.1,0.8,4.4,3.3,4.4C1579.5,460.5,1580.4,458.2,1580.4,456
		z"/>
	<path class="st4" d="M1585.1,450.5h1.8v1.8h0c0.8-1.4,2.1-2.1,3.8-2.1c3,0,4,1.7,4,4.2v7.6h-1.9v-7.8c0-1.4-0.9-2.3-2.3-2.3
		c-2.3,0-3.4,1.5-3.4,3.6v6.5h-1.9L1585.1,450.5L1585.1,450.5z"/>
	<path class="st4" d="M1607.8,462c-0.3,0.2-0.8,0.3-1.4,0.3c-1,0-1.6-0.5-1.6-1.8c-1,1.2-2.5,1.8-4.1,1.8c-2.1,0-3.8-0.9-3.8-3.2
		c0-2.6,1.9-3.2,3.9-3.5c2.1-0.4,3.9-0.2,3.9-1.7c0-1.7-1.4-1.9-2.6-1.9c-1.6,0-2.8,0.5-2.9,2.2h-1.9c0.1-2.9,2.3-3.9,4.9-3.9
		c2.1,0,4.3,0.5,4.3,3.2v5.9c0,0.9,0,1.3,0.6,1.3c0.2,0,0.4,0,0.6-0.1L1607.8,462L1607.8,462z M1604.7,456.1c-1.5,1.1-5.8,0-5.8,2.9
		c0,1.2,1.1,1.7,2.2,1.7c2.5,0,3.5-1.5,3.5-2.6L1604.7,456.1L1604.7,456.1z"/>
	<path class="st4" d="M1612.2,450.5h2.3v1.7h-2.3v7.2c0,0.9,0.2,1,1.4,1h0.9v1.7h-1.5c-2,0-2.7-0.4-2.7-2.5v-7.3h-2v-1.7h2V447h1.9
		L1612.2,450.5L1612.2,450.5z"/>
	<path class="st4" d="M1626.1,462h-1.8v-1.8h0c-0.8,1.4-2.1,2.1-3.8,2.1c-3,0-4-1.7-4-4.2v-7.6h1.9v7.8c0,1.4,0.9,2.3,2.3,2.3
		c2.3,0,3.4-1.5,3.4-3.6v-6.5h1.9L1626.1,462L1626.1,462z"/>
	<path class="st4" d="M1628.9,450.5h1.8v2.4h0c0.9-1.9,2.2-2.8,4.2-2.7v2c-3.1,0-4.2,1.7-4.2,4.7v5.1h-1.9V450.5z"/>
	<path class="st4" d="M1646.2,458.4c-0.5,2.6-2.3,3.9-4.9,3.9c-3.7,0-5.4-2.6-5.5-6.1c0-3.5,2.3-6,5.4-6c4.1,0,5.3,3.8,5.2,6.6h-8.6
		c-0.1,2,1.1,3.8,3.6,3.8c1.6,0,2.7-0.7,3-2.3H1646.2z M1644.4,455.2c-0.1-1.8-1.4-3.3-3.3-3.3c-2,0-3.2,1.5-3.3,3.3H1644.4z"/>
	<path class="st4" d="M1648,460.7l9.5-4.3l-9.5-4.3v-1.5l11.3,5.1v1.4l-11.3,5.1V460.7z"/>
</g>
<g>
	<path class="st4" d="M383.9,241.7c-0.5-1.9-1.7-3.3-4.2-3.3c-3.6,0-5.1,3.2-5.1,6.4s1.5,6.4,5.1,6.4c2.6,0,4-1.9,4.3-4.4h2.9
		c-0.3,4-3.1,6.8-7.1,6.8c-5,0-8-4-8-8.8c0-4.8,3-8.8,8-8.8c3.8,0,6.7,2.1,7.1,5.7H383.9z"/>
	<path class="st4" d="M389.2,236.4h2.7v16.8h-2.7V236.4z"/>
	<path class="st4" d="M405,250.5c0,0.7,0.1,0.9,0.6,0.9h0.3c0.1,0,0.2,0,0.4,0v1.9c-0.4,0.1-1.2,0.3-1.7,0.3c-1.1,0-1.9-0.4-2.1-1.5
		c-1.1,1-2.8,1.5-4.2,1.5c-2.2,0-4.2-1.2-4.2-3.5c0-3,2.4-3.5,4.7-3.8c2-0.4,3.6-0.1,3.6-1.7c0-1.4-1.5-1.6-2.5-1.6
		c-1.5,0-2.6,0.6-2.7,1.9h-2.7c0.2-3.1,2.8-4,5.5-4c2.4,0,4.9,1,4.9,3.5L405,250.5L405,250.5z M402.3,247.1
		c-0.8,0.5-2.1,0.5-3.3,0.7c-1.2,0.2-2.2,0.6-2.2,2c0,1.2,1.5,1.6,2.5,1.6c1.2,0,3-0.6,3-2.3L402.3,247.1L402.3,247.1z"/>
	<path class="st4" d="M407.9,236.4h2.7v2.5h-2.7V236.4z M407.9,241h2.7v12.1h-2.7V241z"/>
	<path class="st4" d="M413.5,241h2.5v1.7h0.1c0.8-1.2,1.8-2,3.7-2c1.5,0,2.9,0.6,3.4,2c0.9-1.2,2-2,3.8-2c2.6,0,4.1,1.2,4.1,4.1v8.4
		h-2.7v-7.1c0-1.9-0.1-3.3-2.2-3.3c-1.8,0-2.6,1.2-2.6,3.2v7.1H421v-7.8c0-1.7-0.5-2.6-2.1-2.6c-1.4,0-2.7,1.2-2.7,3.1v7.2h-2.7
		L413.5,241L413.5,241z"/>
	<path class="st4" d="M439.9,247.1c0-3.7,2.3-6.4,6.1-6.4c3.9,0,6.1,2.7,6.1,6.4c0,3.7-2.3,6.4-6.1,6.4
		C442.2,253.5,439.9,250.8,439.9,247.1z M449.5,247.1c0-2.1-1.1-4.3-3.5-4.3s-3.5,2.2-3.5,4.3c0,2.1,1.1,4.3,3.5,4.3
		S449.5,249.2,449.5,247.1z"/>
	<path class="st4" d="M454.4,241h2.5v2.4h0c0.3-1.3,1.9-2.7,3.5-2.7c0.6,0,0.8,0,1,0.1v2.6c-0.4-0.1-0.8-0.1-1.2-0.1
		c-1.8,0-3.3,1.5-3.3,4.2v5.8h-2.7L454.4,241L454.4,241z"/>
	<path class="st4" d="M479.9,253.2h-2.6v-1.7h0c-0.7,1.2-2.1,2-3.5,2c-3.2,0-4.5-1.6-4.5-4.8V241h2.7v7.4c0,2.1,0.8,2.9,2.3,2.9
		c2.2,0,3-1.4,3-3.3V241h2.7L479.9,253.2L479.9,253.2z"/>
	<path class="st4" d="M484.7,249.3c0.2,1.6,1.3,2.1,2.8,2.1c1,0,2.8-0.2,2.7-1.6c-0.1-1.4-2-1.6-4-2c-2-0.4-3.9-1.1-3.9-3.6
		c0-2.7,2.9-3.5,5.1-3.5c2.5,0,4.8,1,5.1,3.7h-2.8c-0.3-1.3-1.3-1.6-2.5-1.6c-0.8,0-2.2,0.2-2.2,1.2c0,1.3,2,1.5,3.9,2
		c2,0.4,3.9,1.2,3.9,3.5c0,2.9-2.9,3.9-5.4,3.9c-3.1,0-5.3-1.4-5.4-4.2L484.7,249.3L484.7,249.3z"/>
	<path class="st4" d="M497,247.8c0,1.9,1,3.6,3.3,3.6c1.6,0,2.5-0.7,3-2h2.5c-0.6,2.7-2.9,4.1-5.5,4.1c-3.8,0-5.9-2.6-5.9-6.4
		c0-3.5,2.3-6.4,5.9-6.4c3.8,0,6.2,3.5,5.7,7.1H497z M503.2,246c-0.1-1.7-1.2-3.2-3.1-3.2c-1.9,0-3.1,1.4-3.2,3.2H503.2z"/>
	<path class="st4" d="M380.4,273.3c-0.2-1.5-1.3-2.3-2.8-2.3c-1.4,0-3.3,0.8-3.3,4.4c0,2,0.9,4.2,3.2,4.2c1.6,0,2.6-1,2.9-2.8h2.7
		c-0.5,3.2-2.4,4.9-5.6,4.9c-3.8,0-5.9-2.7-5.9-6.3c0-3.7,2-6.5,6-6.5c2.8,0,5.2,1.4,5.5,4.4L380.4,273.3L380.4,273.3z"/>
	<path class="st4" d="M395.4,278.7c0,0.7,0.1,0.9,0.6,0.9h0.3c0.1,0,0.2,0,0.4,0v1.9c-0.4,0.1-1.2,0.3-1.7,0.3
		c-1.1,0-1.9-0.4-2.1-1.5c-1.1,1-2.8,1.5-4.2,1.5c-2.2,0-4.2-1.2-4.2-3.5c0-3,2.4-3.5,4.7-3.8c2-0.4,3.6-0.1,3.6-1.7
		c0-1.4-1.5-1.6-2.5-1.6c-1.5,0-2.6,0.6-2.7,1.9H385c0.2-3.1,2.8-4,5.5-4c2.4,0,4.9,1,4.9,3.5L395.4,278.7L395.4,278.7z
		 M392.7,275.3c-0.8,0.5-2.1,0.5-3.3,0.7c-1.2,0.2-2.2,0.6-2.2,2c0,1.2,1.5,1.6,2.5,1.6c1.2,0,3-0.6,3-2.3L392.7,275.3L392.7,275.3z
		"/>
	<path class="st4" d="M400.3,277.5c0.2,1.6,1.3,2.1,2.8,2.1c1,0,2.8-0.2,2.7-1.6c-0.1-1.4-2-1.6-4-2c-2-0.4-3.9-1.1-3.9-3.6
		c0-2.7,2.9-3.5,5.1-3.5c2.5,0,4.8,1,5.1,3.7h-2.8c-0.3-1.3-1.3-1.6-2.5-1.6c-0.8,0-2.2,0.2-2.2,1.2c0,1.3,2,1.5,3.9,2
		c2,0.4,3.9,1.2,3.9,3.5c0,2.9-2.9,3.9-5.4,3.9c-3.1,0-5.3-1.4-5.4-4.2L400.3,277.5L400.3,277.5z"/>
	<path class="st4" d="M412.6,276c0,1.9,1,3.6,3.3,3.6c1.6,0,2.5-0.7,3-2h2.5c-0.6,2.7-2.9,4.1-5.5,4.1c-3.8,0-5.9-2.6-5.9-6.4
		c0-3.5,2.3-6.4,5.9-6.4c3.8,0,6.2,3.5,5.7,7.1L412.6,276L412.6,276z M418.8,274.2c-0.1-1.7-1.2-3.2-3.1-3.2c-1.9,0-3.1,1.4-3.2,3.2
		H418.8z"/>
</g>
<g>
	<path class="st4" d="M582.5,267.9c0,4.8-3,8.8-8,8.8s-8-4-8-8.8c0-4.8,3-8.8,8-8.8C579.4,259.1,582.5,263.1,582.5,267.9z
		 M569.3,267.9c0,3.2,1.5,6.4,5.1,6.4c3.6,0,5.1-3.2,5.1-6.4s-1.5-6.4-5.1-6.4C570.8,261.5,569.3,264.7,569.3,267.9z"/>
	<path class="st4" d="M583.6,264.1h2v-1c0-3.1,1.6-3.6,3.4-3.6c0.9,0,1.5,0,1.9,0.2v2.1c-0.4-0.1-0.7-0.1-1.2-0.1
		c-0.7,0-1.3,0.3-1.3,1.3v1.2h2.3v2h-2.3v10.2h-2.7v-10.2h-2L583.6,264.1L583.6,264.1z"/>
	<path class="st4" d="M590.5,264.1h2v-1c0-3.1,1.6-3.6,3.4-3.6c0.9,0,1.5,0,1.9,0.2v2.1c-0.4-0.1-0.7-0.1-1.2-0.1
		c-0.7,0-1.3,0.3-1.3,1.3v1.2h2.3v2h-2.3v10.2h-2.7v-10.2h-2L590.5,264.1L590.5,264.1z"/>
	<path class="st4" d="M601.2,270.9c0,1.9,1,3.6,3.3,3.6c1.6,0,2.5-0.7,3-2h2.5c-0.6,2.7-2.9,4.1-5.5,4.1c-3.8,0-5.9-2.6-5.9-6.4
		c0-3.5,2.3-6.4,5.9-6.4c3.8,0,6.2,3.5,5.7,7.1L601.2,270.9L601.2,270.9z M607.5,269.1c-0.1-1.7-1.2-3.2-3.1-3.2
		c-1.9,0-3.1,1.4-3.2,3.2H607.5z"/>
	<path class="st4" d="M612.2,264.1h2.5v2.4h0c0.3-1.3,1.9-2.7,3.5-2.7c0.6,0,0.8,0,1,0.1v2.6c-0.4-0.1-0.8-0.1-1.2-0.1
		c-1.8,0-3.3,1.5-3.3,4.2v5.8h-2.7L612.2,264.1L612.2,264.1z"/>
	<path class="st4" d="M620.5,259.5h2.7v2.5h-2.7V259.5z M620.5,264.1h2.7v12.1h-2.7V264.1z"/>
	<path class="st4" d="M626.1,264.1h2.5v1.8l0,0c0.8-1.3,2.2-2.2,3.8-2.2c2.7,0,4.3,1.4,4.3,4.1v8.3h-2.7v-7.6
		c-0.1-1.9-0.8-2.7-2.4-2.7c-1.8,0-2.9,1.4-2.9,3.2v7.2h-2.7L626.1,264.1L626.1,264.1z"/>
	<path class="st4" d="M650.8,275.6c0,3.7-2.1,5.5-6,5.5c-2.4,0-5.2-0.9-5.4-3.8h2.7c0.3,1.5,1.6,1.8,2.9,1.8c2.2,0,3.1-1.1,3.1-3.1
		v-1.9h0c-0.8,1.3-2.1,2.1-3.6,2.1c-3.9,0-5.5-2.9-5.5-6.4c0-3.3,2-6.1,5.5-6.1c1.5,0,2.9,0.6,3.6,2h0v-1.7h2.7V275.6z M648.2,269.9
		c0-2.1-0.9-4-3.3-4c-2.4,0-3.2,2.2-3.2,4.2c0,2,1,4,3.2,4C647.3,274.2,648.2,272,648.2,269.9z"/>
	<path class="st4" d="M660.3,259.5h3.1l7.7,12.4h0v-12.4h2.8v16.8h-3.1l-7.6-12.3h-0.1v12.3h-2.8L660.3,259.5L660.3,259.5z"/>
	<path class="st4" d="M687.2,273.6c0,0.7,0.1,0.9,0.6,0.9h0.3c0.1,0,0.2,0,0.4,0v1.9c-0.4,0.1-1.2,0.3-1.7,0.3
		c-1.1,0-1.9-0.4-2.1-1.5c-1.1,1-2.8,1.5-4.2,1.5c-2.2,0-4.2-1.2-4.2-3.5c0-3,2.4-3.5,4.7-3.8c2-0.4,3.6-0.1,3.6-1.7
		c0-1.4-1.5-1.6-2.5-1.6c-1.5,0-2.6,0.6-2.7,1.9h-2.7c0.2-3.1,2.8-4,5.5-4c2.4,0,4.9,1,4.9,3.5V273.6z M684.5,270.2
		c-0.8,0.5-2.1,0.5-3.3,0.7c-1.2,0.2-2.2,0.6-2.2,2c0,1.2,1.5,1.6,2.5,1.6c1.2,0,3-0.6,3-2.3L684.5,270.2L684.5,270.2z"/>
	<path class="st4" d="M690.1,264.1h2.5v1.7h0.1c0.8-1.2,1.8-2,3.7-2c1.5,0,2.9,0.6,3.4,2c0.9-1.2,2-2,3.8-2c2.6,0,4.1,1.2,4.1,4.1
		v8.4H705v-7.1c0-2-0.1-3.3-2.2-3.3c-1.8,0-2.6,1.2-2.6,3.2v7.1h-2.7v-7.8c0-1.7-0.5-2.6-2.1-2.6c-1.4,0-2.7,1.2-2.7,3.1v7.2h-2.7
		L690.1,264.1L690.1,264.1z"/>
	<path class="st4" d="M712.6,270.9c0,1.9,1,3.6,3.3,3.6c1.6,0,2.5-0.7,3-2h2.5c-0.6,2.7-2.9,4.1-5.5,4.1c-3.8,0-5.9-2.6-5.9-6.4
		c0-3.5,2.3-6.4,5.9-6.4c3.8,0,6.2,3.5,5.7,7.1L712.6,270.9L712.6,270.9z M718.9,269.1c-0.1-1.7-1.2-3.2-3.1-3.2
		c-1.9,0-3.1,1.4-3.2,3.2H718.9z"/>
</g>
<g>
	<path class="st4" d="M780.8,242.6c0,4.8-3,8.8-8,8.8c-5,0-8-4-8-8.8c0-4.8,3-8.8,8-8.8C777.8,233.9,780.8,237.9,780.8,242.6z
		 M767.7,242.6c0,3.2,1.5,6.4,5.1,6.4c3.6,0,5.1-3.2,5.1-6.4s-1.5-6.4-5.1-6.4C769.2,236.3,767.7,239.4,767.7,242.6z"/>
	<path class="st4" d="M781.9,238.9h2v-1c0-3.1,1.6-3.6,3.4-3.6c0.9,0,1.5,0,1.9,0.2v2.1c-0.4-0.1-0.7-0.1-1.2-0.1
		c-0.7,0-1.3,0.3-1.3,1.3v1.2h2.3v2h-2.3V251h-2.7v-10.2h-2L781.9,238.9L781.9,238.9z"/>
	<path class="st4" d="M788.9,238.9h2v-1c0-3.1,1.6-3.6,3.4-3.6c0.9,0,1.5,0,1.9,0.2v2.1c-0.4-0.1-0.7-0.1-1.2-0.1
		c-0.7,0-1.3,0.3-1.3,1.3v1.2h2.3v2h-2.3V251h-2.7v-10.2h-2L788.9,238.9L788.9,238.9z"/>
	<path class="st4" d="M799.6,245.7c0,1.9,1,3.6,3.3,3.6c1.6,0,2.5-0.7,3-2h2.5c-0.6,2.7-2.9,4.1-5.5,4.1c-3.8,0-5.9-2.6-5.9-6.4
		c0-3.5,2.3-6.4,5.9-6.4c3.8,0,6.2,3.5,5.7,7.1L799.6,245.7L799.6,245.7z M805.8,243.9c-0.1-1.7-1.2-3.2-3.1-3.2
		c-1.9,0-3.1,1.4-3.2,3.2H805.8z"/>
	<path class="st4" d="M810.5,238.9h2.5v2.4h0c0.3-1.3,1.9-2.7,3.5-2.7c0.6,0,0.8,0,1,0.1v2.6c-0.4-0.1-0.8-0.1-1.2-0.1
		c-1.8,0-3.3,1.5-3.3,4.2v5.8h-2.7V238.9z"/>
	<path class="st4" d="M818.9,234.3h2.7v2.5h-2.7V234.3z M818.9,238.9h2.7V251h-2.7V238.9z"/>
	<path class="st4" d="M824.5,238.9h2.5v1.8l0,0c0.8-1.3,2.2-2.2,3.8-2.2c2.7,0,4.3,1.4,4.3,4.1v8.3h-2.7v-7.6
		c-0.1-1.9-0.8-2.7-2.4-2.7c-1.8,0-2.9,1.4-2.9,3.2v7.2h-2.7L824.5,238.9L824.5,238.9z"/>
	<path class="st4" d="M849.2,250.4c0,3.7-2.1,5.5-6,5.5c-2.4,0-5.2-0.9-5.4-3.8h2.7c0.3,1.5,1.6,1.8,2.9,1.8c2.2,0,3.1-1.1,3.1-3.1
		v-1.9h0c-0.8,1.3-2.1,2.1-3.6,2.1c-3.9,0-5.5-2.9-5.5-6.4c0-3.3,2-6.1,5.5-6.1c1.5,0,2.9,0.6,3.6,2h0v-1.7h2.7L849.2,250.4
		L849.2,250.4z M846.5,244.7c0-2.1-0.9-4-3.3-4c-2.4,0-3.2,2.2-3.2,4.2c0,2,1,4,3.2,4C845.6,248.9,846.5,246.8,846.5,244.7z"/>
	<path class="st4" d="M857.2,238.9h2.9l3.1,9.3h0l3-9.3h2.8l-4.3,12.1h-3L857.2,238.9z"/>
	<path class="st4" d="M872.7,245.7c0,1.9,1,3.6,3.3,3.6c1.6,0,2.5-0.7,3-2h2.5c-0.6,2.7-2.9,4.1-5.5,4.1c-3.8,0-5.9-2.6-5.9-6.4
		c0-3.5,2.3-6.4,5.9-6.4c3.8,0,6.2,3.5,5.7,7.1L872.7,245.7L872.7,245.7z M878.9,243.9c-0.1-1.7-1.2-3.2-3.1-3.2
		c-1.9,0-3.1,1.4-3.2,3.2H878.9z"/>
	<path class="st4" d="M883.7,238.9h2.5v2.4h0c0.3-1.3,1.9-2.7,3.5-2.7c0.6,0,0.8,0,1,0.1v2.6c-0.4-0.1-0.8-0.1-1.2-0.1
		c-1.8,0-3.3,1.5-3.3,4.2v5.8h-2.7V238.9z"/>
	<path class="st4" d="M893.9,247.1c0.2,1.6,1.3,2.1,2.8,2.1c1,0,2.8-0.2,2.7-1.6c-0.1-1.4-2-1.6-4-2c-2-0.4-3.9-1.1-3.9-3.6
		c0-2.7,2.9-3.5,5.1-3.5c2.5,0,4.8,1,5.1,3.7h-2.8c-0.3-1.3-1.3-1.6-2.5-1.6c-0.8,0-2.2,0.2-2.2,1.2c0,1.3,2,1.5,3.9,1.9
		c2,0.4,3.9,1.2,3.9,3.5c0,2.9-2.9,3.9-5.4,3.9c-3.1,0-5.3-1.4-5.4-4.2L893.9,247.1L893.9,247.1z"/>
	<path class="st4" d="M904.2,234.3h2.7v2.5h-2.7V234.3z M904.2,238.9h2.7V251h-2.7V238.9z"/>
	<path class="st4" d="M909.2,244.9c0-3.7,2.3-6.4,6.1-6.4s6.1,2.7,6.1,6.4c0,3.7-2.3,6.4-6.1,6.4S909.2,248.7,909.2,244.9z
		 M918.8,244.9c0-2.1-1.1-4.3-3.5-4.3s-3.5,2.2-3.5,4.3c0,2.1,1.1,4.3,3.5,4.3S918.8,247.1,918.8,244.9z"/>
	<path class="st4" d="M923.7,238.9h2.5v1.8l0,0c0.8-1.3,2.2-2.2,3.8-2.2c2.7,0,4.3,1.4,4.3,4.1v8.3h-2.7v-7.6
		c-0.1-1.9-0.8-2.7-2.4-2.7c-1.8,0-2.9,1.4-2.9,3.2v7.2h-2.7L923.7,238.9L923.7,238.9z"/>
	<path class="st4" d="M768.4,283.7c-1.9-3-3.4-6.3-3.4-10.8c0-3.8,1.2-7.5,3.4-10.8h2.2c-1.9,3.4-2.9,6.9-2.9,10.8s0.9,7.5,2.9,10.8
		H768.4z"/>
	<path class="st4" d="M771.8,262.4h2.7v2.5h-2.7V262.4z M771.8,267.1h2.7v12.1h-2.7V267.1z"/>
	<path class="st4" d="M776.2,267.1h2v-1c0-3.1,1.6-3.6,3.4-3.6c0.9,0,1.5,0,1.9,0.2v2.1c-0.4-0.1-0.7-0.1-1.2-0.1
		c-0.7,0-1.3,0.3-1.3,1.3v1.2h2.3v2h-2.3v10.2h-2.7v-10.2h-2L776.2,267.1L776.2,267.1z"/>
	<path class="st4" d="M801.5,276.5c0,0.7,0.1,0.9,0.6,0.9h0.3c0.1,0,0.2,0,0.4,0v1.9c-0.4,0.1-1.2,0.3-1.7,0.3
		c-1.1,0-1.9-0.4-2.1-1.5c-1.1,1-2.8,1.5-4.2,1.5c-2.2,0-4.2-1.2-4.2-3.5c0-3,2.4-3.5,4.7-3.8c2-0.4,3.6-0.1,3.6-1.7
		c0-1.4-1.5-1.6-2.5-1.6c-1.5,0-2.6,0.6-2.7,1.9h-2.7c0.2-3.1,2.8-4,5.5-4c2.4,0,4.9,1,4.9,3.5L801.5,276.5L801.5,276.5z
		 M798.8,273.1c-0.8,0.5-2.1,0.5-3.3,0.7c-1.2,0.2-2.2,0.6-2.2,2c0,1.2,1.5,1.6,2.5,1.6c1.2,0,3-0.6,3-2.3L798.8,273.1L798.8,273.1z
		"/>
	<path class="st4" d="M804.5,267.1h2.5v1.6h0c0.8-1.4,2.2-2,3.8-2c3.8,0,5.7,2.9,5.7,6.5c0,3.3-1.7,6.3-5.2,6.3
		c-1.6,0-3.2-0.6-4.1-1.9h0v6.1h-2.7L804.5,267.1L804.5,267.1z M810.5,268.9c-2.3,0-3.4,1.7-3.4,4.3c0,2.4,1.2,4.3,3.4,4.3
		c2.4,0,3.4-2.2,3.4-4.3C813.8,271,812.7,268.9,810.5,268.9z"/>
	<path class="st4" d="M818.8,267.1h2.5v1.6h0c0.8-1.4,2.2-2,3.8-2c3.8,0,5.7,2.9,5.7,6.5c0,3.3-1.7,6.3-5.2,6.3
		c-1.6,0-3.2-0.6-4.1-1.9h0v6.1h-2.7L818.8,267.1L818.8,267.1z M824.8,268.9c-2.3,0-3.4,1.7-3.4,4.3c0,2.4,1.2,4.3,3.4,4.3
		c2.4,0,3.4-2.2,3.4-4.3C828.2,271,827,268.9,824.8,268.9z"/>
	<path class="st4" d="M833.2,262.4h2.7v16.8h-2.7V262.4z"/>
	<path class="st4" d="M838.9,262.4h2.7v2.5h-2.7V262.4z M838.9,267.1h2.7v12.1h-2.7V267.1z"/>
	<path class="st4" d="M852.6,271.1c-0.2-1.5-1.3-2.3-2.8-2.3c-1.4,0-3.3,0.8-3.3,4.4c0,2,0.9,4.2,3.2,4.2c1.6,0,2.6-1,2.9-2.8h2.7
		c-0.5,3.2-2.4,4.9-5.6,4.9c-3.8,0-5.9-2.7-5.9-6.3c0-3.7,2-6.5,6-6.5c2.8,0,5.2,1.4,5.5,4.4L852.6,271.1L852.6,271.1z"/>
	<path class="st4" d="M867.7,276.5c0,0.7,0.1,0.9,0.6,0.9h0.3c0.1,0,0.2,0,0.4,0v1.9c-0.4,0.1-1.2,0.3-1.7,0.3
		c-1.1,0-1.9-0.4-2.1-1.5c-1.1,1-2.8,1.5-4.2,1.5c-2.2,0-4.2-1.2-4.2-3.5c0-3,2.4-3.5,4.7-3.8c2-0.4,3.6-0.1,3.6-1.7
		c0-1.4-1.5-1.6-2.5-1.6c-1.5,0-2.6,0.6-2.7,1.9h-2.7c0.2-3.1,2.8-4,5.5-4c2.4,0,4.9,1,4.9,3.5L867.7,276.5L867.7,276.5z M865,273.1
		c-0.8,0.5-2.1,0.5-3.3,0.7c-1.2,0.2-2.2,0.6-2.2,2c0,1.2,1.5,1.6,2.5,1.6c1.2,0,3-0.6,3-2.3L865,273.1L865,273.1z"/>
	<path class="st4" d="M870.6,262.4h2.7v6.2h0c0.8-1.2,2.2-1.9,3.6-1.9c3.8,0,5.7,2.9,5.7,6.5c0,3.3-1.7,6.3-5.2,6.3
		c-1.6,0-3.4-0.4-4.2-2h0v1.7h-2.5L870.6,262.4L870.6,262.4z M876.6,268.9c-2.3,0-3.4,1.7-3.4,4.3c0,2.4,1.2,4.3,3.4,4.3
		c2.4,0,3.4-2.2,3.4-4.3C880,271,878.8,268.9,876.6,268.9z"/>
	<path class="st4" d="M885,262.4h2.7v16.8H885V262.4z"/>
	<path class="st4" d="M892.7,273.8c0,1.9,1,3.6,3.3,3.6c1.6,0,2.5-0.7,3-2h2.5c-0.6,2.7-2.9,4.1-5.5,4.1c-3.8,0-5.9-2.6-5.9-6.4
		c0-3.5,2.3-6.4,5.9-6.4c3.8,0,6.2,3.5,5.7,7.1H892.7z M898.9,272.1c-0.1-1.7-1.2-3.2-3.1-3.2c-1.9,0-3.1,1.4-3.2,3.2H898.9z"/>
	<path class="st4" d="M904.2,262c1.9,3,3.4,6.4,3.4,10.9c0,3.8-1.2,7.5-3.4,10.8H902c1.9-3.4,2.9-6.9,2.9-10.8s-0.9-7.5-2.9-10.9
		H904.2z"/>
</g>
<g>
	<path class="st4" d="M963.9,180.2h7c5.2,0,7.4,3.8,7.4,8.4c0,4.6-2.2,8.4-7.4,8.4h-7V180.2z M966.9,194.5h2.9c4.6,0,5.6-2.6,5.6-6
		s-1-6-5.6-6h-2.9V194.5z"/>
	<path class="st4" d="M990.7,194.2c0,0.7,0.1,0.9,0.6,0.9h0.3c0.1,0,0.2,0,0.4,0v1.9c-0.4,0.1-1.2,0.3-1.7,0.3
		c-1.1,0-1.9-0.4-2.1-1.5c-1.1,1-2.8,1.5-4.2,1.5c-2.2,0-4.2-1.2-4.2-3.5c0-3,2.4-3.5,4.7-3.8c2-0.4,3.6-0.1,3.6-1.7
		c0-1.4-1.5-1.6-2.5-1.6c-1.5,0-2.6,0.6-2.7,1.9h-2.7c0.2-3.1,2.8-4,5.5-4c2.4,0,4.9,1,4.9,3.5L990.7,194.2L990.7,194.2z M988,190.9
		c-0.8,0.5-2.1,0.5-3.3,0.7c-1.2,0.2-2.2,0.6-2.2,2c0,1.2,1.5,1.6,2.5,1.6c1.2,0,3-0.6,3-2.3L988,190.9L988,190.9z"/>
	<path class="st4" d="M992.4,184.8h2v-3.6h2.7v3.6h2.4v2h-2.4v6.5c0,1.1,0.1,1.7,1.3,1.7c0.4,0,0.8,0,1.1-0.1v2.1
		c-0.6,0.1-1.2,0.1-1.7,0.1c-2.8,0-3.3-1.1-3.4-3.1v-7.2h-2V184.8z"/>
	<path class="st4" d="M1003.5,191.6c0,1.9,1,3.6,3.3,3.6c1.6,0,2.5-0.7,3-2h2.5c-0.6,2.7-2.9,4.1-5.5,4.1c-3.8,0-5.9-2.6-5.9-6.4
		c0-3.5,2.3-6.4,5.9-6.4c3.8,0,6.2,3.5,5.7,7.1L1003.5,191.6L1003.5,191.6z M1009.8,189.8c-0.1-1.7-1.2-3.2-3.1-3.2
		c-1.9,0-3.1,1.4-3.2,3.2H1009.8z"/>
	<path class="st4" d="M1020.4,190.9c0-3.7,2.3-6.4,6.1-6.4c3.9,0,6.1,2.7,6.1,6.4c0,3.7-2.3,6.4-6.1,6.4S1020.4,194.6,1020.4,190.9z
		 M1030,190.9c0-2.1-1.1-4.3-3.5-4.3s-3.5,2.2-3.5,4.3c0,2.1,1.1,4.3,3.5,4.3S1030,193,1030,190.9z"/>
	<path class="st4" d="M1033.7,184.8h2v-1c0-3.1,1.6-3.6,3.4-3.6c0.9,0,1.5,0,1.9,0.2v2.1c-0.4-0.1-0.7-0.1-1.2-0.1
		c-0.7,0-1.3,0.3-1.3,1.3v1.2h2.3v2h-2.3v10.2h-2.7v-10.2h-2V184.8z"/>
	<path class="st4" d="M965.9,219.5c0,2.6,1.9,3.6,4.3,3.6c2.6,0,3.5-1.3,3.5-2.5c0-1.3-0.7-1.8-1.4-2.1c-1.2-0.4-2.7-0.8-5-1.4
		c-2.9-0.8-3.7-2.5-3.7-4.3c0-3.4,3.1-4.9,6.1-4.9c3.5,0,6.4,1.9,6.4,5.4h-2.9c-0.2-2.2-1.6-3-3.6-3c-1.4,0-3.1,0.5-3.1,2.2
		c0,1.2,0.8,1.8,2,2.2c0.3,0.1,4,1,4.8,1.3c2.2,0.7,3.3,2.5,3.3,4.3c0,3.8-3.4,5.3-6.7,5.3c-3.8,0-6.9-1.8-7-6L965.9,219.5
		L965.9,219.5z"/>
	<path class="st4" d="M989.5,225.1h-2.6v-1.7h0c-0.7,1.2-2.1,2-3.5,2c-3.2,0-4.5-1.6-4.5-4.8V213h2.7v7.4c0,2.1,0.8,2.9,2.3,2.9
		c2.2,0,3-1.4,3-3.3V213h2.7L989.5,225.1L989.5,225.1z"/>
	<path class="st4" d="M992.3,208.4h2.7v6.2h0c0.8-1.2,2.2-1.9,3.6-1.9c3.8,0,5.7,2.9,5.7,6.5c0,3.3-1.7,6.3-5.2,6.3
		c-1.6,0-3.4-0.4-4.2-2h0v1.7h-2.5L992.3,208.4L992.3,208.4z M998.3,214.8c-2.3,0-3.4,1.7-3.4,4.3c0,2.4,1.2,4.3,3.4,4.3
		c2.4,0,3.4-2.2,3.4-4.3C1001.7,216.9,1000.5,214.8,998.3,214.8z"/>
	<path class="st4" d="M1006.6,213h2.5v1.7h0.1c0.8-1.2,1.8-2,3.7-2c1.5,0,2.9,0.6,3.4,2c0.9-1.2,2-2,3.8-2c2.6,0,4.1,1.2,4.1,4.1
		v8.4h-2.7V218c0-1.9-0.1-3.3-2.2-3.3c-1.8,0-2.6,1.2-2.6,3.2v7.1h-2.7v-7.8c0-1.7-0.5-2.6-2.1-2.6c-1.4,0-2.7,1.2-2.7,3.1v7.2h-2.7
		L1006.6,213L1006.6,213z"/>
	<path class="st4" d="M1027.1,208.4h2.7v2.5h-2.7V208.4z M1027.1,213h2.7v12.1h-2.7V213z"/>
	<path class="st4" d="M1034.7,221.2c0.2,1.6,1.3,2.1,2.8,2.1c1,0,2.8-0.2,2.7-1.6c-0.1-1.4-2-1.6-4-2c-2-0.4-3.9-1.1-3.9-3.6
		c0-2.7,2.9-3.5,5.1-3.5c2.5,0,4.8,1,5.1,3.7h-2.8c-0.3-1.3-1.3-1.6-2.5-1.6c-0.8,0-2.2,0.2-2.2,1.2c0,1.3,2,1.5,3.9,2
		c1.9,0.4,3.9,1.2,3.9,3.5c0,2.9-2.9,3.9-5.4,3.9c-3.1,0-5.3-1.4-5.4-4.2L1034.7,221.2L1034.7,221.2z"/>
	<path class="st4" d="M1046.9,221.2c0.2,1.6,1.3,2.1,2.7,2.1c1,0,2.8-0.2,2.7-1.6c-0.1-1.4-2-1.6-4-2c-2-0.4-3.9-1.1-3.9-3.6
		c0-2.7,2.9-3.5,5.1-3.5c2.5,0,4.8,1,5.1,3.7h-2.8c-0.3-1.3-1.3-1.6-2.5-1.6c-0.8,0-2.2,0.2-2.2,1.2c0,1.3,2,1.5,3.9,2
		c2,0.4,3.9,1.2,3.9,3.5c0,2.9-2.9,3.9-5.4,3.9c-3.1,0-5.3-1.4-5.4-4.2L1046.9,221.2L1046.9,221.2z"/>
	<path class="st4" d="M1057.2,208.4h2.7v2.5h-2.7V208.4z M1057.2,213h2.7v12.1h-2.7V213z"/>
	<path class="st4" d="M1062.2,219c0-3.7,2.3-6.4,6.1-6.4c3.9,0,6.1,2.7,6.1,6.4c0,3.7-2.3,6.4-6.1,6.4
		C1064.5,225.5,1062.2,222.8,1062.2,219z M1071.8,219c0-2.1-1.1-4.3-3.5-4.3c-2.4,0-3.5,2.2-3.5,4.3c0,2.1,1.1,4.3,3.5,4.3
		C1070.7,223.3,1071.8,221.2,1071.8,219z"/>
	<path class="st4" d="M1076.7,213h2.5v1.8l0,0c0.8-1.3,2.2-2.2,3.8-2.2c2.7,0,4.3,1.4,4.3,4.1v8.3h-2.7v-7.6
		c-0.1-1.9-0.8-2.7-2.4-2.7c-1.8,0-2.9,1.4-2.9,3.2v7.2h-2.7L1076.7,213L1076.7,213z"/>
	<path class="st4" d="M1095.5,213h2v-3.6h2.7v3.6h2.4v2h-2.4v6.5c0,1.1,0.1,1.7,1.3,1.7c0.4,0,0.8,0,1.1-0.1v2.1
		c-0.6,0.1-1.2,0.1-1.7,0.1c-2.8,0-3.3-1.1-3.4-3.1V215h-2L1095.5,213L1095.5,213z"/>
	<path class="st4" d="M1104,219c0-3.7,2.3-6.4,6.1-6.4c3.9,0,6.1,2.7,6.1,6.4c0,3.7-2.3,6.4-6.1,6.4
		C1106.2,225.5,1104,222.8,1104,219z M1113.6,219c0-2.1-1.1-4.3-3.5-4.3c-2.4,0-3.5,2.2-3.5,4.3c0,2.1,1.1,4.3,3.5,4.3
		C1112.5,223.3,1113.6,221.2,1113.6,219z"/>
	<path class="st4" d="M963.9,236.5h2.9v14.2h8.5v2.5h-11.5L963.9,236.5L963.9,236.5z"/>
	<path class="st4" d="M979.1,247.9c0,1.9,1,3.6,3.3,3.6c1.6,0,2.5-0.7,3-2h2.5c-0.6,2.7-2.9,4.1-5.5,4.1c-3.8,0-5.9-2.6-5.9-6.4
		c0-3.5,2.3-6.4,5.9-6.4c3.8,0,6.2,3.5,5.7,7.1L979.1,247.9L979.1,247.9z M985.4,246.2c-0.1-1.7-1.2-3.2-3.1-3.2
		c-1.9,0-3.1,1.4-3.2,3.2H985.4z"/>
	<path class="st4" d="M1001.3,252.7c0,3.7-2.1,5.5-6,5.5c-2.4,0-5.2-0.9-5.4-3.8h2.7c0.3,1.5,1.6,1.8,2.9,1.8c2.2,0,3.1-1.1,3.1-3.1
		v-1.9h0c-0.8,1.3-2.1,2.1-3.6,2.1c-3.9,0-5.5-2.9-5.5-6.4c0-3.3,2-6.1,5.5-6.1c1.5,0,2.9,0.6,3.6,2h0v-1.7h2.7L1001.3,252.7
		L1001.3,252.7z M998.7,247c0-2.1-0.9-4-3.3-4c-2.4,0-3.2,2.2-3.2,4.2c0,2,1,4,3.2,4C997.8,251.2,998.7,249.1,998.7,247z"/>
	<path class="st4" d="M1014.2,250.6c0,0.7,0.1,0.9,0.6,0.9h0.3c0.1,0,0.2,0,0.4,0v1.9c-0.4,0.1-1.2,0.3-1.7,0.3
		c-1.1,0-1.9-0.4-2.1-1.5c-1.1,1-2.8,1.5-4.2,1.5c-2.2,0-4.2-1.2-4.2-3.5c0-3,2.4-3.5,4.7-3.8c2-0.4,3.6-0.1,3.6-1.7
		c0-1.4-1.5-1.6-2.5-1.6c-1.5,0-2.6,0.6-2.7,1.9h-2.7c0.2-3.1,2.8-4,5.5-4c2.4,0,4.9,1,4.9,3.5L1014.2,250.6L1014.2,250.6z
		 M1011.5,247.2c-0.8,0.5-2.1,0.5-3.3,0.7c-1.2,0.2-2.2,0.6-2.2,2c0,1.2,1.5,1.6,2.5,1.6c1.2,0,3-0.6,3-2.3L1011.5,247.2
		L1011.5,247.2z"/>
	<path class="st4" d="M1017.2,236.5h2.7v16.8h-2.7V236.5z"/>
	<path class="st4" d="M1028.1,241.2h2v-1c0-3.1,1.6-3.6,3.4-3.6c0.9,0,1.5,0,1.9,0.2v2.1c-0.4-0.1-0.7-0.1-1.2-0.1
		c-0.7,0-1.3,0.3-1.3,1.3v1.2h2.3v2h-2.3v10.2h-2.7v-10.2h-2V241.2z"/>
	<path class="st4" d="M1036.1,247.2c0-3.7,2.3-6.4,6.1-6.4c3.9,0,6.1,2.7,6.1,6.4c0,3.7-2.3,6.4-6.1,6.4
		C1038.4,253.7,1036.1,251,1036.1,247.2z M1045.7,247.2c0-2.1-1.1-4.3-3.5-4.3s-3.5,2.2-3.5,4.3c0,2.1,1.1,4.3,3.5,4.3
		S1045.7,249.4,1045.7,247.2z"/>
	<path class="st4" d="M1050.6,241.2h2.5v2.4h0c0.3-1.3,1.9-2.7,3.5-2.7c0.6,0,0.8,0,1,0.1v2.6c-0.4-0.1-0.8-0.1-1.2-0.1
		c-1.8,0-3.3,1.5-3.3,4.2v5.8h-2.7L1050.6,241.2L1050.6,241.2z"/>
	<path class="st4" d="M973.7,278.8c0,0.7,0.1,0.9,0.6,0.9h0.3c0.1,0,0.2,0,0.4,0v1.9c-0.4,0.1-1.2,0.3-1.7,0.3
		c-1.1,0-1.9-0.4-2.1-1.5c-1.1,1-2.8,1.5-4.2,1.5c-2.2,0-4.2-1.2-4.2-3.5c0-3,2.4-3.5,4.7-3.8c2-0.4,3.6-0.1,3.6-1.7
		c0-1.4-1.5-1.6-2.5-1.6c-1.5,0-2.6,0.6-2.7,1.9h-2.7c0.2-3.1,2.8-4,5.5-4c2.4,0,4.9,1,4.9,3.5V278.8z M971.1,275.4
		c-0.8,0.5-2.1,0.5-3.3,0.7c-1.2,0.2-2.2,0.6-2.2,2c0,1.2,1.5,1.6,2.5,1.6c1.2,0,3-0.6,3-2.3L971.1,275.4L971.1,275.4z"/>
	<path class="st4" d="M976.7,269.4h2.5v1.6h0c0.8-1.4,2.2-2,3.8-2c3.8,0,5.7,2.9,5.7,6.5c0,3.3-1.7,6.3-5.2,6.3
		c-1.6,0-3.2-0.6-4.1-1.9h0v6.1h-2.7L976.7,269.4L976.7,269.4z M982.7,271.1c-2.3,0-3.4,1.7-3.4,4.3c0,2.4,1.2,4.3,3.4,4.3
		c2.4,0,3.4-2.2,3.4-4.3C986.1,273.3,984.9,271.1,982.7,271.1z"/>
	<path class="st4" d="M991.1,269.4h2.5v1.6h0c0.8-1.4,2.2-2,3.8-2c3.8,0,5.7,2.9,5.7,6.5c0,3.3-1.7,6.3-5.2,6.3
		c-1.6,0-3.2-0.6-4.1-1.9h0v6.1h-2.7L991.1,269.4L991.1,269.4z M997,271.1c-2.3,0-3.4,1.7-3.4,4.3c0,2.4,1.2,4.3,3.4,4.3
		c2.4,0,3.4-2.2,3.4-4.3C1000.4,273.3,999.3,271.1,997,271.1z"/>
	<path class="st4" d="M1005.3,269.4h2.5v2.4h0c0.3-1.3,1.9-2.7,3.5-2.7c0.6,0,0.8,0,1,0.1v2.6c-0.4-0.1-0.8-0.1-1.2-0.1
		c-1.8,0-3.3,1.5-3.3,4.2v5.8h-2.7V269.4z"/>
	<path class="st4" d="M1012.6,275.4c0-3.7,2.3-6.4,6.1-6.4s6.1,2.7,6.1,6.4c0,3.7-2.3,6.4-6.1,6.4S1012.6,279.2,1012.6,275.4z
		 M1022.2,275.4c0-2.1-1.1-4.3-3.5-4.3s-3.5,2.2-3.5,4.3c0,2.1,1.1,4.3,3.5,4.3S1022.2,277.5,1022.2,275.4z"/>
	<path class="st4" d="M1025.9,269.4h2.9l3.1,9.3h0l3-9.3h2.8l-4.3,12.1h-3L1025.9,269.4z"/>
	<path class="st4" d="M1049.5,278.8c0,0.7,0.1,0.9,0.6,0.9h0.3c0.1,0,0.2,0,0.4,0v1.9c-0.4,0.1-1.2,0.3-1.7,0.3
		c-1.1,0-1.9-0.4-2.1-1.5c-1.1,1-2.8,1.5-4.2,1.5c-2.2,0-4.2-1.2-4.2-3.5c0-3,2.4-3.5,4.7-3.8c2-0.4,3.6-0.1,3.6-1.7
		c0-1.4-1.5-1.6-2.5-1.6c-1.5,0-2.6,0.6-2.7,1.9h-2.7c0.2-3.1,2.8-4,5.5-4c2.4,0,4.9,1,4.9,3.5L1049.5,278.8L1049.5,278.8z
		 M1046.8,275.4c-0.8,0.5-2.1,0.5-3.3,0.7c-1.2,0.2-2.2,0.6-2.2,2c0,1.2,1.5,1.6,2.5,1.6c1.2,0,3-0.6,3-2.3V275.4z"/>
	<path class="st4" d="M1052.4,264.7h2.7v16.8h-2.7V264.7z"/>
</g>
<g>
	<path class="st4" d="M1158.7,180.2h11.6v2.5h-8.6v4.4h7.6v2.4h-7.6v7.4h-2.9V180.2z"/>
	<path class="st4" d="M1182.9,196.9h-2.6v-1.7h0c-0.7,1.2-2.1,2-3.5,2c-3.2,0-4.5-1.6-4.5-4.8v-7.7h2.7v7.4c0,2.1,0.8,2.9,2.3,2.9
		c2.2,0,3-1.4,3-3.3v-7.1h2.7V196.9z"/>
	<path class="st4" d="M1185.7,184.8h2.5v1.8l0,0c0.8-1.3,2.2-2.2,3.8-2.2c2.7,0,4.3,1.4,4.3,4.1v8.3h-2.7v-7.6
		c-0.1-1.9-0.8-2.7-2.4-2.7c-1.8,0-2.9,1.4-2.9,3.2v7.2h-2.7L1185.7,184.8L1185.7,184.8z"/>
	<path class="st4" d="M1207.4,188.9c-0.2-1.5-1.3-2.3-2.8-2.3c-1.4,0-3.3,0.8-3.3,4.4c0,2,0.9,4.2,3.2,4.2c1.6,0,2.6-1,2.9-2.8h2.7
		c-0.5,3.2-2.4,4.9-5.6,4.9c-3.8,0-5.9-2.7-5.9-6.3c0-3.7,2-6.5,6-6.5c2.8,0,5.2,1.4,5.5,4.4L1207.4,188.9L1207.4,188.9z"/>
	<path class="st4" d="M1211,184.8h2v-3.6h2.7v3.6h2.4v2h-2.4v6.5c0,1.1,0.1,1.7,1.3,1.7c0.4,0,0.8,0,1.1-0.1v2.1
		c-0.6,0.1-1.2,0.1-1.7,0.1c-2.8,0-3.3-1.1-3.4-3.1v-7.2h-2L1211,184.8L1211,184.8z"/>
	<path class="st4" d="M1220.1,180.2h2.7v2.5h-2.7V180.2z M1220.1,184.8h2.7v12.1h-2.7V184.8z"/>
	<path class="st4" d="M1225.2,190.9c0-3.7,2.3-6.4,6.1-6.4c3.9,0,6.1,2.7,6.1,6.4c0,3.7-2.3,6.4-6.1,6.4
		C1227.4,197.3,1225.2,194.6,1225.2,190.9z M1234.8,190.9c0-2.1-1.1-4.3-3.5-4.3c-2.4,0-3.5,2.2-3.5,4.3c0,2.1,1.1,4.3,3.5,4.3
		C1233.7,195.2,1234.8,193,1234.8,190.9z"/>
	<path class="st4" d="M1239.7,184.8h2.5v1.8l0,0c0.8-1.3,2.2-2.2,3.8-2.2c2.7,0,4.3,1.4,4.3,4.1v8.3h-2.7v-7.6
		c-0.1-1.9-0.8-2.7-2.4-2.7c-1.8,0-2.9,1.4-2.9,3.2v7.2h-2.7L1239.7,184.8L1239.7,184.8z"/>
	<path class="st4" d="M1263.3,194.2c0,0.7,0.1,0.9,0.6,0.9h0.3c0.1,0,0.2,0,0.4,0v1.9c-0.4,0.1-1.2,0.3-1.7,0.3
		c-1.1,0-1.9-0.4-2.1-1.5c-1.1,1-2.8,1.5-4.2,1.5c-2.2,0-4.2-1.2-4.2-3.5c0-3,2.4-3.5,4.7-3.8c2-0.4,3.6-0.1,3.6-1.7
		c0-1.4-1.5-1.6-2.5-1.6c-1.5,0-2.6,0.6-2.7,1.9h-2.7c0.2-3.1,2.8-4,5.5-4c2.4,0,4.9,1,4.9,3.5L1263.3,194.2L1263.3,194.2z
		 M1260.7,190.9c-0.8,0.5-2.1,0.5-3.3,0.7c-1.2,0.2-2.2,0.6-2.2,2c0,1.2,1.5,1.6,2.5,1.6c1.2,0,3-0.6,3-2.3V190.9z"/>
	<path class="st4" d="M1266.3,180.2h2.7v16.8h-2.7V180.2z"/>
	<path class="st4" d="M1158.6,208.4h2.9v6.7h7.6v-6.7h2.9v16.8h-2.9v-7.6h-7.6v7.6h-2.9V208.4z"/>
	<path class="st4" d="M1177.3,219.8c0,1.9,1,3.6,3.3,3.6c1.6,0,2.5-0.7,3-2h2.5c-0.6,2.7-2.9,4.1-5.5,4.1c-3.8,0-5.9-2.6-5.9-6.4
		c0-3.5,2.3-6.4,5.9-6.4c3.8,0,6.2,3.5,5.7,7.1H1177.3z M1183.6,218c-0.1-1.7-1.2-3.2-3.1-3.2c-1.9,0-3.1,1.4-3.2,3.2H1183.6z"/>
	<path class="st4" d="M1198.5,222.4c0,0.7,0.1,0.9,0.6,0.9h0.3c0.1,0,0.2,0,0.4,0v1.9c-0.4,0.1-1.2,0.3-1.7,0.3
		c-1.1,0-1.9-0.4-2.1-1.5c-1.1,1-2.8,1.5-4.2,1.5c-2.2,0-4.2-1.2-4.2-3.5c0-3,2.4-3.5,4.7-3.8c2-0.4,3.6-0.1,3.6-1.7
		c0-1.4-1.5-1.6-2.5-1.6c-1.5,0-2.6,0.6-2.7,1.9h-2.7c0.2-3.1,2.8-4,5.5-4c2.4,0,4.9,1,4.9,3.5L1198.5,222.4L1198.5,222.4z
		 M1195.8,219c-0.8,0.5-2.1,0.5-3.3,0.7c-1.2,0.2-2.2,0.6-2.2,2c0,1.2,1.5,1.6,2.5,1.6c1.2,0,3-0.6,3-2.3V219z"/>
	<path class="st4" d="M1212.8,225.1h-2.5v-1.6h0c-0.7,1.4-2.2,2-3.8,2c-3.8,0-5.7-2.8-5.7-6.5c0-4.4,2.6-6.3,5.3-6.3
		c1.5,0,3.2,0.6,4,1.9h0v-6.2h2.7V225.1z M1206.8,223.3c2.4,0,3.4-2.2,3.4-4.3c0-2.7-1.3-4.3-3.4-4.3c-2.5,0-3.4,2.3-3.4,4.4
		C1203.5,221.3,1204.5,223.3,1206.8,223.3z"/>
	<path class="st4" d="M1221.7,219c0-3.7,2.3-6.4,6.1-6.4c3.9,0,6.1,2.7,6.1,6.4c0,3.7-2.3,6.4-6.1,6.4
		C1224,225.5,1221.7,222.8,1221.7,219z M1231.3,219c0-2.1-1.1-4.3-3.5-4.3c-2.4,0-3.5,2.2-3.5,4.3c0,2.1,1.1,4.3,3.5,4.3
		C1230.2,223.3,1231.3,221.2,1231.3,219z"/>
	<path class="st4" d="M1235,213h2v-1c0-3.1,1.6-3.6,3.4-3.6c0.9,0,1.5,0,1.9,0.2v2.1c-0.4-0.1-0.7-0.1-1.2-0.1
		c-0.7,0-1.3,0.3-1.3,1.3v1.2h2.3v2h-2.3v10.2h-2.7V215h-2V213z"/>
	<path class="st4" d="M1158.6,236.5h4.1l4.6,13.1h0l4.5-13.1h4.1v16.8h-2.8v-12.9h0l-4.7,12.9h-2.4l-4.7-12.9h0v12.9h-2.8
		L1158.6,236.5L1158.6,236.5z"/>
	<path class="st4" d="M1189.4,250.6c0,0.7,0.1,0.9,0.6,0.9h0.3c0.1,0,0.2,0,0.4,0v1.9c-0.4,0.1-1.2,0.3-1.7,0.3
		c-1.1,0-1.9-0.4-2.1-1.5c-1.1,1-2.8,1.5-4.2,1.5c-2.2,0-4.2-1.2-4.2-3.5c0-3,2.4-3.5,4.7-3.8c2-0.4,3.6-0.1,3.6-1.7
		c0-1.4-1.5-1.6-2.5-1.6c-1.5,0-2.6,0.6-2.7,1.9h-2.7c0.2-3.1,2.8-4,5.5-4c2.4,0,4.9,1,4.9,3.5L1189.4,250.6L1189.4,250.6z
		 M1186.7,247.2c-0.8,0.5-2.1,0.5-3.3,0.7c-1.2,0.2-2.2,0.6-2.2,2c0,1.2,1.5,1.6,2.5,1.6c1.2,0,3-0.6,3-2.3V247.2z"/>
	<path class="st4" d="M1192.2,241.2h2.5v2.4h0c0.3-1.3,1.9-2.7,3.5-2.7c0.6,0,0.8,0,1,0.1v2.6c-0.4-0.1-0.8-0.1-1.2-0.1
		c-1.8,0-3.3,1.5-3.3,4.2v5.8h-2.7L1192.2,241.2L1192.2,241.2z"/>
	<path class="st4" d="M1200.6,236.5h2.7v9.5l4.8-4.9h3.3l-4.7,4.5l5.1,7.7h-3.3l-3.7-5.9l-1.6,1.6v4.3h-2.7V236.5z"/>
	<path class="st4" d="M1215.2,247.9c0,1.9,1,3.6,3.3,3.6c1.6,0,2.5-0.7,3-2h2.5c-0.6,2.7-2.9,4.1-5.5,4.1c-3.8,0-5.9-2.6-5.9-6.4
		c0-3.5,2.3-6.4,5.9-6.4c3.8,0,6.2,3.5,5.7,7.1L1215.2,247.9L1215.2,247.9z M1221.5,246.2c-0.1-1.7-1.2-3.2-3.1-3.2
		c-1.9,0-3.1,1.4-3.2,3.2H1221.5z"/>
	<path class="st4" d="M1225,241.2h2v-3.6h2.7v3.6h2.4v2h-2.4v6.5c0,1.1,0.1,1.7,1.3,1.7c0.4,0,0.8,0,1.1-0.1v2.1
		c-0.6,0.1-1.2,0.1-1.7,0.1c-2.8,0-3.3-1.1-3.4-3.1v-7.2h-2L1225,241.2L1225,241.2z"/>
	<path class="st4" d="M1234.1,236.5h2.7v2.5h-2.7V236.5z M1234.1,241.2h2.7v12.1h-2.7V241.2z"/>
	<path class="st4" d="M1239.7,241.2h2.5v1.8l0,0c0.8-1.3,2.2-2.2,3.8-2.2c2.7,0,4.3,1.4,4.3,4.1v8.3h-2.7v-7.6
		c-0.1-1.9-0.8-2.7-2.4-2.7c-1.8,0-2.9,1.4-2.9,3.2v7.2h-2.7L1239.7,241.2L1239.7,241.2z"/>
	<path class="st4" d="M1264.4,252.7c0,3.7-2.1,5.5-6,5.5c-2.4,0-5.2-0.9-5.4-3.8h2.7c0.3,1.5,1.6,1.8,2.9,1.8c2.2,0,3.1-1.1,3.1-3.1
		v-1.9h0c-0.8,1.3-2.1,2.1-3.6,2.1c-3.9,0-5.5-2.9-5.5-6.4c0-3.3,2-6.1,5.5-6.1c1.5,0,2.9,0.6,3.6,2h0v-1.7h2.7V252.7z M1261.7,247
		c0-2.1-0.9-4-3.3-4c-2.4,0-3.2,2.2-3.2,4.2c0,2,1,4,3.2,4C1260.8,251.2,1261.7,249.1,1261.7,247z"/>
	<path class="st4" d="M1276.7,257.8c-1.9-3-3.4-6.3-3.4-10.8c0-3.8,1.2-7.5,3.4-10.8h2.2c-1.9,3.4-2.9,6.9-2.9,10.8
		s0.9,7.5,2.9,10.8H1276.7z"/>
	<path class="st4" d="M1279.6,247.2c0-3.7,2.3-6.4,6.1-6.4c3.9,0,6.1,2.7,6.1,6.4c0,3.7-2.3,6.4-6.1,6.4
		C1281.8,253.7,1279.6,251,1279.6,247.2z M1289.2,247.2c0-2.1-1.1-4.3-3.5-4.3c-2.4,0-3.5,2.2-3.5,4.3c0,2.1,1.1,4.3,3.5,4.3
		C1288.1,251.5,1289.2,249.4,1289.2,247.2z"/>
	<path class="st4" d="M1294.1,241.2h2.5v2.4h0c0.3-1.3,1.9-2.7,3.5-2.7c0.6,0,0.8,0,1,0.1v2.6c-0.4-0.1-0.8-0.1-1.2-0.1
		c-1.8,0-3.3,1.5-3.3,4.2v5.8h-2.7L1294.1,241.2L1294.1,241.2z"/>
	<path class="st4" d="M1169.7,281.5h-2.5v-1.6h0c-0.7,1.4-2.2,2-3.8,2c-3.8,0-5.7-2.8-5.7-6.5c0-4.4,2.6-6.3,5.3-6.3
		c1.5,0,3.2,0.6,4,1.9h0v-6.2h2.7V281.5z M1163.7,279.7c2.4,0,3.4-2.2,3.4-4.3c0-2.7-1.3-4.3-3.4-4.3c-2.5,0-3.4,2.3-3.4,4.4
		C1160.4,277.7,1161.4,279.7,1163.7,279.7z"/>
	<path class="st4" d="M1174.7,276.1c0,1.9,1,3.6,3.3,3.6c1.6,0,2.5-0.7,3-2h2.5c-0.6,2.7-2.9,4.1-5.5,4.1c-3.8,0-5.9-2.6-5.9-6.4
		c0-3.5,2.3-6.4,5.9-6.4c3.8,0,6.2,3.5,5.7,7.1H1174.7z M1181,274.4c-0.1-1.7-1.2-3.2-3.1-3.2c-1.9,0-3.1,1.4-3.2,3.2H1181z"/>
	<path class="st4" d="M1187.7,277.6c0.2,1.6,1.3,2.1,2.7,2.1c1,0,2.8-0.2,2.7-1.6c-0.1-1.4-2-1.6-4-2c-2-0.4-3.9-1.1-3.9-3.6
		c0-2.7,2.9-3.5,5.1-3.5c2.5,0,4.8,1,5.1,3.7h-2.8c-0.3-1.3-1.3-1.6-2.5-1.6c-0.8,0-2.2,0.2-2.2,1.2c0,1.3,2,1.5,3.9,2
		c1.9,0.4,3.9,1.2,3.9,3.5c0,2.9-2.9,3.9-5.4,3.9c-3.1,0-5.3-1.4-5.4-4.2L1187.7,277.6L1187.7,277.6z"/>
	<path class="st4" d="M1198,264.7h2.7v2.5h-2.7V264.7z M1198,269.4h2.7v12.1h-2.7V269.4z"/>
	<path class="st4" d="M1214.8,280.9c0,3.7-2.1,5.5-6,5.5c-2.4,0-5.2-0.9-5.4-3.8h2.7c0.3,1.5,1.6,1.8,2.9,1.8c2.2,0,3.1-1.1,3.1-3.1
		v-1.9h0c-0.8,1.3-2.1,2.1-3.6,2.1c-3.9,0-5.5-2.9-5.5-6.4c0-3.3,2-6.1,5.5-6.1c1.5,0,2.9,0.6,3.6,2h0v-1.7h2.7L1214.8,280.9
		L1214.8,280.9z M1212.1,275.2c0-2.1-0.9-4-3.3-4c-2.4,0-3.2,2.2-3.2,4.2c0,2,1,4,3.2,4C1211.2,279.4,1212.1,277.3,1212.1,275.2z"/>
	<path class="st4" d="M1217.5,269.4h2.5v1.8l0,0c0.8-1.3,2.2-2.2,3.8-2.2c2.7,0,4.3,1.4,4.3,4.1v8.3h-2.7v-7.6
		c-0.1-1.9-0.8-2.7-2.4-2.7c-1.8,0-2.9,1.4-2.9,3.2v7.2h-2.7L1217.5,269.4L1217.5,269.4z"/>
	<path class="st4" d="M1233.1,276.1c0,1.9,1,3.6,3.3,3.6c1.6,0,2.5-0.7,3-2h2.5c-0.6,2.7-2.9,4.1-5.5,4.1c-3.8,0-5.9-2.6-5.9-6.4
		c0-3.5,2.3-6.4,5.9-6.4c3.8,0,6.2,3.5,5.7,7.1H1233.1z M1239.3,274.4c-0.1-1.7-1.2-3.2-3.1-3.2c-1.9,0-3.1,1.4-3.2,3.2H1239.3z"/>
	<path class="st4" d="M1246.1,276.1c0,1.9,1,3.6,3.3,3.6c1.6,0,2.5-0.7,3-2h2.5c-0.6,2.7-2.9,4.1-5.5,4.1c-3.8,0-5.9-2.6-5.9-6.4
		c0-3.5,2.3-6.4,5.9-6.4c3.8,0,6.2,3.5,5.7,7.1H1246.1z M1252.4,274.4c-0.1-1.7-1.2-3.2-3.1-3.2c-1.9,0-3.1,1.4-3.2,3.2H1252.4z"/>
	<path class="st4" d="M1257.7,264.3c1.9,3,3.4,6.4,3.4,10.9c0,3.8-1.2,7.5-3.4,10.8h-2.2c1.9-3.4,2.9-6.9,2.9-10.8
		s-0.9-7.5-2.9-10.9H1257.7z"/>
</g>
<g>
	<path class="st4" d="M1357,239.1h8c3.7,0,5.5,1.7,5.5,4.5c0,3.2-2.2,4-2.8,4.2v0c1,0.1,2.5,0.9,2.5,3.5c0,2,0.3,3.7,0.9,4.4h-3.1
		c-0.4-0.7-0.4-1.6-0.4-2.5c0-3.1-0.6-4.4-3.3-4.4h-4.3v6.9h-2.9L1357,239.1L1357,239.1z M1359.9,246.7h4.8c1.9,0,2.9-0.9,2.9-2.7
		c0-2.2-1.4-2.6-2.9-2.6h-4.8L1359.9,246.7L1359.9,246.7z"/>
	<path class="st4" d="M1375.3,250.5c0,1.9,1,3.6,3.3,3.6c1.6,0,2.5-0.7,3-2h2.5c-0.6,2.7-2.9,4.1-5.5,4.1c-3.8,0-5.9-2.6-5.9-6.4
		c0-3.5,2.3-6.4,5.9-6.4c3.8,0,6.2,3.5,5.7,7.1L1375.3,250.5L1375.3,250.5z M1381.5,248.7c-0.1-1.7-1.2-3.2-3.1-3.2
		c-1.9,0-3.1,1.4-3.2,3.2H1381.5z"/>
	<path class="st4" d="M1397.5,255.2c0,3.7-2.1,5.5-6,5.5c-2.4,0-5.2-0.9-5.4-3.8h2.7c0.3,1.5,1.6,1.8,2.9,1.8c2.2,0,3.1-1.1,3.1-3.1
		v-1.9h0c-0.8,1.3-2.1,2.1-3.6,2.1c-3.9,0-5.5-2.9-5.5-6.4c0-3.3,2-6.1,5.5-6.1c1.5,0,2.9,0.6,3.6,2h0v-1.7h2.7L1397.5,255.2
		L1397.5,255.2z M1394.8,249.5c0-2.1-0.9-4-3.3-4c-2.4,0-3.2,2.2-3.2,4.2c0,2,1,4,3.2,4C1393.9,253.7,1394.8,251.6,1394.8,249.5z"/>
	<path class="st4" d="M1410.8,255.8h-2.6v-1.7h0c-0.7,1.2-2.1,2-3.5,2c-3.2,0-4.5-1.6-4.5-4.8v-7.7h2.7v7.4c0,2.1,0.8,2.9,2.3,2.9
		c2.2,0,3-1.4,3-3.3v-7.1h2.7V255.8z"/>
	<path class="st4" d="M1413.7,239.1h2.7v16.8h-2.7V239.1z"/>
	<path class="st4" d="M1429.5,253.1c0,0.7,0.1,0.9,0.6,0.9h0.3c0.1,0,0.2,0,0.4,0v1.9c-0.4,0.1-1.2,0.3-1.7,0.3
		c-1.1,0-1.9-0.4-2.1-1.5c-1.1,1-2.8,1.5-4.2,1.5c-2.2,0-4.2-1.2-4.2-3.5c0-3,2.4-3.5,4.7-3.8c2-0.4,3.6-0.1,3.6-1.7
		c0-1.4-1.5-1.6-2.5-1.6c-1.5,0-2.6,0.6-2.7,1.9h-2.7c0.2-3.1,2.8-4,5.5-4c2.4,0,4.9,1,4.9,3.5L1429.5,253.1L1429.5,253.1z
		 M1426.8,249.8c-0.8,0.5-2.1,0.5-3.3,0.7c-1.2,0.2-2.2,0.6-2.2,2c0,1.2,1.5,1.6,2.5,1.6c1.2,0,3-0.6,3-2.3V249.8z"/>
	<path class="st4" d="M1431.1,243.7h2V240h2.7v3.6h2.4v2h-2.4v6.5c0,1.1,0.1,1.7,1.3,1.7c0.4,0,0.8,0,1.1-0.1v2.1
		c-0.6,0.1-1.2,0.1-1.7,0.1c-2.8,0-3.3-1.1-3.4-3.1v-7.2h-2L1431.1,243.7L1431.1,243.7z"/>
	<path class="st4" d="M1439.6,249.8c0-3.7,2.3-6.4,6.1-6.4c3.9,0,6.1,2.7,6.1,6.4c0,3.7-2.3,6.4-6.1,6.4
		C1441.9,256.2,1439.6,253.5,1439.6,249.8z M1449.2,249.8c0-2.1-1.1-4.3-3.5-4.3c-2.4,0-3.5,2.2-3.5,4.3c0,2.1,1.1,4.3,3.5,4.3
		C1448.2,254.1,1449.2,251.9,1449.2,249.8z"/>
	<path class="st4" d="M1454.1,243.7h2.5v2.4h0c0.3-1.3,1.9-2.7,3.5-2.7c0.6,0,0.8,0,1,0.1v2.6c-0.4-0.1-0.8-0.1-1.2-0.1
		c-1.8,0-3.3,1.5-3.3,4.2v5.8h-2.7L1454.1,243.7L1454.1,243.7z"/>
	<path class="st4" d="M1461.1,243.7h2.9l3.2,9.1h0l3.1-9.1h2.8l-4.7,12.8c-0.9,2.2-1.5,4.2-4.3,4.2c-0.6,0-1.2,0-1.9-0.1v-2.3
		c0.4,0.1,0.8,0.2,1.3,0.2c1.2,0,1.6-0.7,1.9-1.7l0.3-0.9L1461.1,243.7z"/>
	<path class="st4" d="M1361.5,267.3h3.1l6.5,16.8h-3.1l-1.6-4.4h-6.7l-1.6,4.4h-3L1361.5,267.3z M1360.5,277.4h5.1l-2.5-7.2h-0.1
		L1360.5,277.4z"/>
	<path class="st4" d="M1371.1,271.9h2v-1c0-3.1,1.6-3.6,3.4-3.6c0.9,0,1.5,0,1.9,0.2v2.1c-0.4-0.1-0.7-0.1-1.2-0.1
		c-0.7,0-1.3,0.3-1.3,1.3v1.2h2.3v2h-2.3V284h-2.7v-10.2h-2L1371.1,271.9L1371.1,271.9z"/>
	<path class="st4" d="M1378.1,271.9h2v-1c0-3.1,1.6-3.6,3.4-3.6c0.9,0,1.5,0,1.9,0.2v2.1c-0.4-0.1-0.7-0.1-1.2-0.1
		c-0.7,0-1.3,0.3-1.3,1.3v1.2h2.3v2h-2.3V284h-2.7v-10.2h-2L1378.1,271.9L1378.1,271.9z"/>
	<path class="st4" d="M1396.8,281.3c0,0.7,0.1,0.9,0.6,0.9h0.3c0.1,0,0.2,0,0.4,0v1.9c-0.4,0.1-1.2,0.3-1.7,0.3
		c-1.1,0-1.9-0.4-2.1-1.5c-1.1,1-2.8,1.5-4.2,1.5c-2.2,0-4.2-1.2-4.2-3.5c0-3,2.4-3.5,4.7-3.8c2-0.4,3.6-0.1,3.6-1.7
		c0-1.4-1.5-1.6-2.5-1.6c-1.5,0-2.6,0.6-2.7,1.9h-2.7c0.2-3.1,2.8-4,5.5-4c2.4,0,4.9,1,4.9,3.5L1396.8,281.3L1396.8,281.3z
		 M1394.2,277.9c-0.8,0.5-2.1,0.5-3.3,0.7c-1.2,0.2-2.2,0.6-2.2,2c0,1.2,1.5,1.6,2.5,1.6c1.2,0,3-0.6,3-2.3V277.9z"/>
	<path class="st4" d="M1399.8,267.3h2.7v2.5h-2.7V267.3z M1399.8,271.9h2.7V284h-2.7V271.9z"/>
	<path class="st4" d="M1405.4,271.9h2.5v2.4h0c0.3-1.3,1.9-2.7,3.5-2.7c0.6,0,0.8,0,1,0.1v2.6c-0.4-0.1-0.8-0.1-1.2-0.1
		c-1.8,0-3.3,1.5-3.3,4.2v5.8h-2.7L1405.4,271.9L1405.4,271.9z"/>
	<path class="st4" d="M1415.7,280.1c0.2,1.6,1.3,2.1,2.7,2.1c1,0,2.8-0.2,2.7-1.6c-0.1-1.4-2-1.6-4-2c-2-0.4-3.9-1.1-3.9-3.6
		c0-2.7,2.9-3.5,5.1-3.5c2.5,0,4.8,1,5.1,3.7h-2.8c-0.3-1.3-1.3-1.6-2.5-1.6c-0.8,0-2.2,0.2-2.2,1.2c0,1.3,2,1.5,3.9,2
		c1.9,0.4,3.9,1.2,3.9,3.5c0,2.9-2.9,3.9-5.4,3.9c-3.1,0-5.3-1.4-5.4-4.2L1415.7,280.1L1415.7,280.1z"/>
</g>
<g>
	<path class="st4" d="M1548.1,261.9h2.9v14.2h8.5v2.5h-11.5V261.9z"/>
	<path class="st4" d="M1563.3,273.3c0,1.9,1,3.6,3.3,3.6c1.6,0,2.5-0.7,3-2h2.5c-0.6,2.7-2.9,4.1-5.5,4.1c-3.8,0-5.9-2.6-5.9-6.4
		c0-3.5,2.3-6.4,5.9-6.4c3.8,0,6.2,3.5,5.7,7.1L1563.3,273.3L1563.3,273.3z M1569.6,271.5c-0.1-1.7-1.2-3.2-3.1-3.2
		c-1.9,0-3.1,1.4-3.2,3.2H1569.6z"/>
	<path class="st4" d="M1585.5,278c0,3.7-2.1,5.5-6,5.5c-2.4,0-5.2-0.9-5.4-3.8h2.7c0.3,1.5,1.6,1.8,2.9,1.8c2.2,0,3.1-1.1,3.1-3.1
		v-1.9h0c-0.8,1.3-2.1,2.1-3.6,2.1c-3.9,0-5.5-2.9-5.5-6.4c0-3.3,2-6.1,5.5-6.1c1.5,0,2.9,0.6,3.6,2h0v-1.7h2.7V278z M1582.9,272.3
		c0-2.1-0.9-4-3.3-4c-2.4,0-3.2,2.2-3.2,4.2c0,2,1,4,3.2,4C1582,276.6,1582.9,274.4,1582.9,272.3z"/>
	<path class="st4" d="M1598.4,276c0,0.7,0.1,0.9,0.6,0.9h0.3c0.1,0,0.2,0,0.4,0v1.9c-0.4,0.1-1.2,0.3-1.7,0.3
		c-1.1,0-1.9-0.4-2.1-1.5c-1.1,1-2.8,1.5-4.2,1.5c-2.2,0-4.2-1.2-4.2-3.5c0-3,2.4-3.5,4.7-3.8c2-0.4,3.6-0.1,3.6-1.7
		c0-1.4-1.5-1.6-2.5-1.6c-1.5,0-2.6,0.6-2.7,1.9h-2.7c0.2-3.1,2.8-4,5.5-4c2.4,0,4.9,1,4.9,3.5L1598.4,276L1598.4,276z
		 M1595.7,272.6c-0.8,0.5-2.1,0.5-3.3,0.7c-1.2,0.2-2.2,0.6-2.2,2c0,1.2,1.5,1.6,2.5,1.6c1.2,0,3-0.6,3-2.3V272.6z"/>
	<path class="st4" d="M1601.4,261.9h2.7v16.8h-2.7V261.9z"/>
</g>
<g>
	<path class="st4" d="M1742.9,239.1h7c5.2,0,7.4,3.8,7.4,8.4s-2.2,8.4-7.4,8.4h-7V239.1z M1745.8,253.4h2.9c4.6,0,5.6-2.6,5.6-6
		s-1-6-5.6-6h-2.9V253.4z"/>
	<path class="st4" d="M1769.6,253.1c0,0.7,0.1,0.9,0.6,0.9h0.3c0.1,0,0.2,0,0.4,0v1.9c-0.4,0.1-1.2,0.3-1.7,0.3
		c-1.1,0-1.9-0.4-2.1-1.5c-1.1,1-2.8,1.5-4.2,1.5c-2.2,0-4.2-1.2-4.2-3.5c0-3,2.4-3.5,4.7-3.8c2-0.4,3.6-0.1,3.6-1.7
		c0-1.4-1.5-1.6-2.5-1.6c-1.5,0-2.6,0.6-2.7,1.9h-2.7c0.2-3.1,2.8-4,5.5-4c2.4,0,4.9,1,4.9,3.5L1769.6,253.1L1769.6,253.1z
		 M1766.9,249.8c-0.8,0.5-2.1,0.5-3.3,0.7c-1.2,0.2-2.2,0.6-2.2,2c0,1.2,1.5,1.6,2.5,1.6c1.2,0,3-0.6,3-2.3V249.8z"/>
	<path class="st4" d="M1771.3,243.7h2V240h2.7v3.6h2.4v2h-2.4v6.5c0,1.1,0.1,1.7,1.3,1.7c0.4,0,0.8,0,1.1-0.1v2.1
		c-0.6,0.1-1.2,0.1-1.7,0.1c-2.8,0-3.3-1.1-3.4-3.1v-7.2h-2L1771.3,243.7L1771.3,243.7z"/>
	<path class="st4" d="M1782.4,250.5c0,1.9,1,3.6,3.3,3.6c1.6,0,2.5-0.7,3-2h2.5c-0.6,2.7-2.9,4.1-5.5,4.1c-3.8,0-5.9-2.6-5.9-6.4
		c0-3.5,2.3-6.4,5.9-6.4c3.8,0,6.2,3.5,5.7,7.1L1782.4,250.5L1782.4,250.5z M1788.7,248.7c-0.1-1.7-1.2-3.2-3.1-3.2
		c-1.9,0-3.1,1.4-3.2,3.2H1788.7z"/>
	<path class="st4" d="M1799.4,249.8c0-3.7,2.3-6.4,6.1-6.4c3.9,0,6.1,2.7,6.1,6.4c0,3.7-2.3,6.4-6.1,6.4
		C1801.6,256.2,1799.4,253.5,1799.4,249.8z M1808.9,249.8c0-2.1-1.1-4.3-3.5-4.3c-2.4,0-3.5,2.2-3.5,4.3c0,2.1,1.1,4.3,3.5,4.3
		S1808.9,251.9,1808.9,249.8z"/>
	<path class="st4" d="M1812.7,243.7h2v-1c0-3.1,1.6-3.6,3.4-3.6c0.9,0,1.5,0,1.9,0.2v2.1c-0.4-0.1-0.7-0.1-1.2-0.1
		c-0.7,0-1.3,0.3-1.3,1.3v1.2h2.3v2h-2.3v10.2h-2.7v-10.2h-2L1812.7,243.7L1812.7,243.7z"/>
	<path class="st4" d="M1742.9,267.3h7c5.2,0,7.4,3.8,7.4,8.4s-2.2,8.4-7.4,8.4h-7V267.3z M1745.8,281.6h2.9c4.6,0,5.6-2.6,5.6-6
		s-1-6-5.6-6h-2.9V281.6z"/>
	<path class="st4" d="M1759.5,267.3h2.7v2.5h-2.7V267.3z M1759.5,271.9h2.7V284h-2.7V271.9z"/>
	<path class="st4" d="M1767.1,280.1c0.2,1.6,1.3,2.1,2.7,2.1c1,0,2.8-0.2,2.7-1.6c-0.1-1.4-2-1.6-4-2c-2-0.4-3.9-1.1-3.9-3.6
		c0-2.7,2.9-3.5,5.1-3.5c2.5,0,4.8,1,5.1,3.7h-2.8c-0.3-1.3-1.3-1.6-2.5-1.6c-0.8,0-2.2,0.2-2.2,1.2c0,1.3,2,1.5,3.9,2
		c1.9,0.4,3.9,1.2,3.9,3.5c0,2.9-2.9,3.9-5.4,3.9c-3.1,0-5.3-1.4-5.4-4.2L1767.1,280.1L1767.1,280.1z"/>
	<path class="st4" d="M1776.1,271.9h2v-3.6h2.7v3.6h2.4v2h-2.4v6.5c0,1.1,0.1,1.7,1.3,1.7c0.4,0,0.8,0,1.1-0.1v2.1
		c-0.6,0.1-1.2,0.1-1.7,0.1c-2.8,0-3.3-1.1-3.4-3.1v-7.2h-2L1776.1,271.9L1776.1,271.9z"/>
	<path class="st4" d="M1785.1,271.9h2.5v2.4h0c0.3-1.3,1.9-2.7,3.5-2.7c0.6,0,0.8,0,1,0.1v2.6c-0.4-0.1-0.8-0.1-1.2-0.1
		c-1.8,0-3.3,1.5-3.3,4.2v5.8h-2.7L1785.1,271.9L1785.1,271.9z"/>
	<path class="st4" d="M1793.5,267.3h2.7v2.5h-2.7V267.3z M1793.5,271.9h2.7V284h-2.7V271.9z"/>
	<path class="st4" d="M1799.1,267.3h2.7v6.2h0c0.8-1.2,2.2-1.9,3.6-1.9c3.8,0,5.7,2.9,5.7,6.5c0,3.3-1.7,6.3-5.2,6.3
		c-1.6,0-3.4-0.4-4.2-2h0v1.7h-2.5L1799.1,267.3L1799.1,267.3z M1805.1,273.7c-2.3,0-3.4,1.7-3.4,4.3c0,2.4,1.2,4.3,3.4,4.3
		c2.4,0,3.4-2.2,3.4-4.3C1808.5,275.8,1807.3,273.7,1805.1,273.7z"/>
	<path class="st4" d="M1824.1,284h-2.6v-1.7h0c-0.7,1.2-2.1,2-3.5,2c-3.2,0-4.5-1.6-4.5-4.8v-7.7h2.7v7.4c0,2.1,0.8,2.9,2.3,2.9
		c2.2,0,3-1.4,3-3.3v-7h2.7V284z"/>
	<path class="st4" d="M1825.7,271.9h2v-3.6h2.7v3.6h2.4v2h-2.4v6.5c0,1.1,0.1,1.7,1.3,1.7c0.4,0,0.8,0,1.1-0.1v2.1
		c-0.6,0.1-1.2,0.1-1.7,0.1c-2.8,0-3.3-1.1-3.4-3.1v-7.2h-2L1825.7,271.9L1825.7,271.9z"/>
	<path class="st4" d="M1834.8,267.3h2.7v2.5h-2.7V267.3z M1834.8,271.9h2.7V284h-2.7V271.9z"/>
	<path class="st4" d="M1839.8,277.9c0-3.7,2.3-6.4,6.1-6.4c3.9,0,6.1,2.7,6.1,6.4c0,3.7-2.3,6.4-6.1,6.4
		C1842.1,284.4,1839.8,281.7,1839.8,277.9z M1849.4,277.9c0-2.1-1.1-4.3-3.5-4.3c-2.4,0-3.5,2.2-3.5,4.3c0,2.1,1.1,4.3,3.5,4.3
		S1849.4,280.1,1849.4,277.9z"/>
	<path class="st4" d="M1854.3,271.9h2.5v1.8l0,0c0.8-1.3,2.2-2.2,3.8-2.2c2.7,0,4.3,1.4,4.3,4.1v8.3h-2.7v-7.6
		c-0.1-1.9-0.8-2.7-2.4-2.7c-1.8,0-2.9,1.4-2.9,3.2v7.2h-2.7L1854.3,271.9L1854.3,271.9z"/>
</g>
<rect x="160.4" y="159.7" class="st5" width="1762.2" height="743.8"/>
<line class="st6" x1="356.3" y1="159.7" x2="356.3" y2="906.3"/>
<line class="st6" x1="552.2" y1="159.7" x2="552.2" y2="906.3"/>
<line class="st6" x1="751.8" y1="159.7" x2="751.8" y2="906.3"/>
<line class="st6" x1="947.7" y1="159.7" x2="947.7" y2="906.3"/>
<line class="st6" x1="1146.1" y1="159.7" x2="1146.1" y2="906.3"/>
<line class="st6" x1="1338.4" y1="159.7" x2="1338.4" y2="906.3"/>
<line class="st6" x1="1539.1" y1="159.7" x2="1539.1" y2="906.3"/>
<line class="st6" x1="1732.6" y1="159.7" x2="1732.6" y2="906.3"/>
<line class="st7" x1="160.4" y1="480.7" x2="1922.6" y2="480.7"/>
<line class="st7" x1="160.4" y1="527.7" x2="1922.6" y2="527.7"/>
<line class="st7" x1="160.4" y1="527.7" x2="1922.6" y2="527.7"/>
<line class="st7" x1="160.4" y1="574.6" x2="1922.6" y2="574.6"/>
<line class="st7" x1="160.4" y1="574.6" x2="1922.6" y2="574.6"/>
<line class="st7" x1="160.4" y1="621.6" x2="1922.6" y2="621.6"/>
<line class="st7" x1="160.4" y1="621.6" x2="1922.6" y2="621.6"/>
<line class="st7" x1="160.4" y1="668.6" x2="1922.6" y2="668.6"/>
<line class="st7" x1="160.4" y1="668.6" x2="1922.6" y2="668.6"/>
<line class="st7" x1="160.4" y1="715.6" x2="1922.6" y2="715.6"/>
<line class="st7" x1="160.4" y1="715.6" x2="1922.6" y2="715.6"/>
<line class="st7" x1="160.4" y1="762.6" x2="1922.6" y2="762.6"/>
<line class="st7" x1="160.4" y1="762.6" x2="1922.6" y2="762.6"/>
<line class="st7" x1="160.4" y1="809.6" x2="1922.6" y2="809.6"/>
<line class="st7" x1="160.4" y1="809.6" x2="1922.6" y2="809.6"/>
<line class="st7" x1="160.4" y1="856.6" x2="1922.6" y2="856.6"/>
<line class="st7" x1="160.4" y1="903.5" x2="1922.6" y2="903.5"/>
</svg>
