<?xml version="1.0" encoding="utf-8"?>
<!-- Generator: Adobe Illustrator 16.0.3, SVG Export Plug-In . SVG Version: 6.00 Build 0)  -->
<!DOCTYPE svg PUBLIC "-//W3C//DTD SVG 1.1//EN" "http://www.w3.org/Graphics/SVG/1.1/DTD/svg11.dtd">
<svg version="1.1" id="Layer_1" xmlns="http://www.w3.org/2000/svg" xmlns:xlink="http://www.w3.org/1999/xlink" x="0px" y="0px"
	 width="2048px" height="1000px" viewBox="0 0 2048 1000" enable-background="new 0 0 2048 1000" xml:space="preserve">
<rect y="283.485" display="none" fill="#B9E5FB" width="2048.005" height="716.515"/>
<rect x="51.184" y="119.548" fill="#B16AC3" width="335" height="76.536"/>
<rect x="441.846" y="119.548" fill="#6B7CD2" width="335" height="76.536"/>
<rect x="857" y="119.548" fill="#6B7CD2" width="335" height="76.536"/>
<rect x="1257.888" y="119.548" fill="#B9E5FB" width="335" height="76.536"/>
<rect x="1660.447" y="119.548" fill="#B9E5FB" width="335" height="76.536"/>
<rect x="51.184" y="221.34" fill="#7BB50C" width="335" height="76.536"/>
<rect x="441.846" y="221.34" fill="#6A952F" width="335" height="76.536"/>
<rect x="857" y="221.34" fill="#9EABB3" width="335" height="76.536"/>
<rect x="1257.888" y="221.34" fill="#B9E5FB" width="335" height="76.536"/>
<rect x="1660.447" y="221.34" fill="#B9E5FB" width="335" height="76.536"/>
<g>
	<path fill="#333333" d="M72.348,145.658h7.99c5.938,0,8.502,4.319,8.502,9.637c0,5.317-2.564,9.636-8.502,9.636h-7.99V145.658z
		 M75.723,162.177h3.32c5.291,0,6.424-2.996,6.424-6.883c0-3.887-1.134-6.883-6.424-6.883h-3.32V162.177z"/>
	<path fill="#333333" d="M93.812,158.75c0,2.186,1.188,4.13,3.752,4.13c1.809,0,2.861-0.783,3.401-2.322h2.916
		c-0.648,3.05-3.293,4.751-6.316,4.751c-4.4,0-6.829-3.023-6.829-7.342c0-3.968,2.591-7.369,6.748-7.369
		c4.4,0,7.099,3.968,6.586,8.152H93.812z M100.993,156.725c-0.135-1.943-1.404-3.698-3.509-3.698c-2.132,0-3.59,1.62-3.671,3.698
		H100.993z"/>
	<path fill="#333333" d="M115.843,155.645c-0.243-1.728-1.458-2.618-3.185-2.618c-1.593,0-3.833,0.864-3.833,5.075
		c0,2.321,1.026,4.778,3.698,4.778c1.809,0,3.023-1.161,3.32-3.186h3.077c-0.567,3.644-2.807,5.615-6.397,5.615
		c-4.373,0-6.775-3.104-6.775-7.207c0-4.211,2.294-7.504,6.883-7.504c3.239,0,5.992,1.62,6.289,5.047H115.843z"/>
	<path fill="#333333" d="M121.516,145.658h3.077v2.916h-3.077V145.658z M121.516,150.976h3.077v13.955h-3.077V150.976z"/>
	<path fill="#333333" d="M130.263,160.45c0.189,1.809,1.512,2.43,3.158,2.43c1.188,0,3.185-0.243,3.104-1.835
		c-0.081-1.62-2.321-1.809-4.562-2.322c-2.268-0.486-4.481-1.295-4.481-4.13c0-3.05,3.293-3.995,5.831-3.995
		c2.861,0,5.479,1.161,5.831,4.292h-3.212c-0.297-1.484-1.458-1.862-2.834-1.862c-0.891,0-2.538,0.216-2.538,1.431
		c0,1.512,2.268,1.754,4.535,2.24c2.241,0.513,4.508,1.323,4.508,4.076c0,3.32-3.347,4.535-6.235,4.535
		c-3.536,0-6.1-1.565-6.181-4.859H130.263z"/>
	<path fill="#333333" d="M142.035,145.658h3.077v2.916h-3.077V145.658z M142.035,150.976h3.077v13.955h-3.077V150.976z"/>
	<path fill="#333333" d="M147.813,157.939c0-4.238,2.591-7.342,7.045-7.342c4.454,0,7.045,3.104,7.045,7.342
		c0,4.292-2.591,7.369-7.045,7.369C150.404,165.309,147.813,162.231,147.813,157.939z M158.826,157.939
		c0-2.402-1.215-4.913-3.968-4.913c-2.753,0-3.968,2.51-3.968,4.913c0,2.429,1.215,4.94,3.968,4.94
		C157.611,162.879,158.826,160.369,158.826,157.939z"/>
	<path fill="#333333" d="M164.472,150.976h2.915v2.051l0.054,0.054c0.945-1.539,2.51-2.483,4.346-2.483c3.05,0,4.94,1.592,4.94,4.75
		v9.583h-3.077v-8.772c-0.081-2.187-0.891-3.131-2.727-3.131c-2.051,0-3.374,1.62-3.374,3.671v8.233h-3.077V150.976z"/>
	<path fill="#333333" d="M187.556,150.976h2.915v1.889h0.054c0.864-1.62,2.51-2.267,4.319-2.267c4.4,0,6.532,3.32,6.532,7.423
		c0,3.779-1.917,7.288-6.02,7.288c-1.782,0-3.725-0.648-4.67-2.187h-0.054v6.964h-3.077V150.976z M194.439,153.027
		c-2.591,0-3.914,1.943-3.914,4.939c0,2.808,1.431,4.913,3.914,4.913c2.808,0,3.86-2.483,3.86-4.913
		C198.299,155.456,196.977,153.027,194.439,153.027z"/>
	<path fill="#333333" d="M203.324,157.939c0-4.238,2.591-7.342,7.045-7.342c4.454,0,7.045,3.104,7.045,7.342
		c0,4.292-2.591,7.369-7.045,7.369C205.915,165.309,203.324,162.231,203.324,157.939z M214.337,157.939
		c0-2.402-1.215-4.913-3.968-4.913c-2.753,0-3.968,2.51-3.968,4.913c0,2.429,1.215,4.94,3.968,4.94
		C213.122,162.879,214.337,160.369,214.337,157.939z"/>
	<path fill="#333333" d="M220.063,145.658h3.077v2.916h-3.077V145.658z M220.063,150.976h3.077v13.955h-3.077V150.976z"/>
	<path fill="#333333" d="M226.489,150.976h2.915v2.051l0.054,0.054c0.945-1.539,2.51-2.483,4.346-2.483c3.05,0,4.94,1.592,4.94,4.75
		v9.583h-3.077v-8.772c-0.081-2.187-0.891-3.131-2.727-3.131c-2.051,0-3.374,1.62-3.374,3.671v8.233h-3.077V150.976z"/>
	<path fill="#333333" d="M240.583,150.976h2.321v-4.184h3.077v4.184h2.78v2.294h-2.78v7.45c0,1.269,0.108,1.917,1.485,1.917
		c0.432,0,0.864,0,1.295-0.108v2.375c-0.675,0.081-1.322,0.162-1.997,0.162c-3.239,0-3.779-1.242-3.86-3.563v-8.233h-2.321V150.976z
		"/>
</g>
<g>
	<g>
		<path fill="#333333" d="M474.664,145.658h8.503c5.506,0,6.559,3.563,6.559,5.965s-1.053,5.912-6.559,5.912h-5.128v7.396h-3.375
			V145.658z M478.039,154.781h4.939c1.512,0,3.374-0.756,3.374-3.185c0-2.537-1.539-3.185-3.32-3.185h-4.994V154.781z"/>
		<path fill="#333333" d="M492.241,150.976h2.888v2.699h0.054c0.351-1.485,2.213-3.077,4.076-3.077c0.729,0,0.864,0.054,1.161,0.081
			v2.969c-0.432-0.081-0.891-0.135-1.323-0.135c-2.078,0-3.779,1.673-3.779,4.778v6.64h-3.077V150.976z"/>
		<path fill="#333333" d="M500.611,157.939c0-4.238,2.591-7.342,7.045-7.342c4.454,0,7.045,3.104,7.045,7.342
			c0,4.292-2.591,7.369-7.045,7.369C503.203,165.309,500.611,162.231,500.611,157.939z M511.625,157.939
			c0-2.402-1.215-4.913-3.968-4.913c-2.753,0-3.968,2.51-3.968,4.913c0,2.429,1.215,4.94,3.968,4.94
			C510.41,162.879,511.625,160.369,511.625,157.939z"/>
		<path fill="#333333" d="M517.351,150.976h3.077v15.143c0,2.78-1.107,4.346-3.995,4.346c-0.621,0-0.972-0.027-1.376-0.108v-2.43
			c0.405,0.081,0.756,0.108,1.053,0.108c1.106,0,1.242-0.675,1.242-2.051V150.976z M517.351,145.658h3.077v2.916h-3.077V145.658z"/>
		<path fill="#333333" d="M526.179,158.75c0,2.186,1.188,4.13,3.752,4.13c1.809,0,2.861-0.783,3.401-2.322h2.916
			c-0.648,3.05-3.293,4.751-6.316,4.751c-4.4,0-6.829-3.023-6.829-7.342c0-3.968,2.591-7.369,6.748-7.369
			c4.4,0,7.099,3.968,6.586,8.152H526.179z M533.359,156.725c-0.135-1.943-1.404-3.698-3.509-3.698c-2.132,0-3.59,1.62-3.671,3.698
			H533.359z"/>
		<path fill="#333333" d="M548.209,155.645c-0.243-1.728-1.458-2.618-3.185-2.618c-1.593,0-3.833,0.864-3.833,5.075
			c0,2.321,1.026,4.778,3.698,4.778c1.809,0,3.023-1.161,3.32-3.186h3.077c-0.567,3.644-2.807,5.615-6.397,5.615
			c-4.373,0-6.775-3.104-6.775-7.207c0-4.211,2.294-7.504,6.883-7.504c3.239,0,5.992,1.62,6.289,5.047H548.209z"/>
		<path fill="#333333" d="M552.397,150.976h2.321v-4.184h3.078v4.184h2.78v2.294h-2.78v7.45c0,1.269,0.108,1.917,1.484,1.917
			c0.432,0,0.864,0,1.295-0.108v2.375c-0.675,0.081-1.322,0.162-1.997,0.162c-3.239,0-3.779-1.242-3.86-3.563v-8.233h-2.321V150.976
			z"/>
		<path fill="#333333" d="M568.894,150.976h2.321v-4.184h3.077v4.184h2.78v2.294h-2.78v7.45c0,1.269,0.108,1.917,1.485,1.917
			c0.432,0,0.864,0,1.295-0.108v2.375c-0.675,0.081-1.322,0.162-1.997,0.162c-3.239,0-3.779-1.242-3.86-3.563v-8.233h-2.321V150.976
			z"/>
		<path fill="#333333" d="M581.691,158.75c0,2.186,1.188,4.13,3.752,4.13c1.809,0,2.861-0.783,3.401-2.322h2.916
			c-0.648,3.05-3.293,4.751-6.316,4.751c-4.4,0-6.829-3.023-6.829-7.342c0-3.968,2.591-7.369,6.748-7.369
			c4.4,0,7.099,3.968,6.586,8.152H581.691z M588.871,156.725c-0.135-1.943-1.404-3.698-3.509-3.698c-2.132,0-3.59,1.62-3.671,3.698
			H588.871z"/>
		<path fill="#333333" d="M605.989,161.827c0,0.756,0.162,1.053,0.729,1.053h0.324c0.135,0,0.27-0.027,0.432-0.054v2.132
			c-0.459,0.162-1.431,0.351-1.943,0.351c-1.269,0-2.132-0.432-2.375-1.701c-1.215,1.188-3.185,1.701-4.832,1.701
			c-2.51,0-4.778-1.35-4.778-4.076c0-3.482,2.78-4.049,5.372-4.346c2.24-0.432,4.184-0.135,4.184-1.97c0-1.62-1.674-1.89-2.889-1.89
			c-1.728,0-2.942,0.702-3.077,2.213h-3.077c0.216-3.59,3.239-4.643,6.343-4.643c2.727,0,5.588,1.106,5.588,4.049V161.827z
			 M602.912,157.939c-0.945,0.621-2.402,0.594-3.779,0.837c-1.323,0.216-2.51,0.702-2.51,2.321c0,1.404,1.754,1.782,2.834,1.782
			c1.35,0,3.455-0.702,3.455-2.646V157.939z"/>
		<path fill="#333333" d="M609.313,150.976h2.915v1.943h0.081c0.945-1.377,2.051-2.321,4.292-2.321c1.701,0,3.293,0.729,3.914,2.321
			c1.053-1.431,2.321-2.321,4.373-2.321c2.942,0,4.67,1.322,4.67,4.697v9.636h-3.077v-8.152c0-2.24-0.135-3.752-2.538-3.752
			c-2.078,0-2.969,1.35-2.969,3.725v8.179h-3.077v-8.961c0-1.944-0.594-2.942-2.456-2.942c-1.593,0-3.05,1.323-3.05,3.617v8.287
			h-3.077V150.976z"/>
	</g>
</g>
<g>
	<g>
		<path fill="#333333" d="M879.193,158.506c0,2.942,2.187,4.13,4.886,4.13c2.969,0,4.076-1.484,4.076-2.915
			c0-1.485-0.81-2.079-1.593-2.375c-1.376-0.513-3.077-0.864-5.75-1.593c-3.32-0.864-4.265-2.888-4.265-4.886
			c0-3.887,3.563-5.668,7.045-5.668c3.995,0,7.396,2.133,7.396,6.155h-3.374c-0.189-2.483-1.809-3.401-4.157-3.401
			c-1.565,0-3.536,0.567-3.536,2.51c0,1.377,0.918,2.079,2.294,2.483c0.297,0.081,4.562,1.188,5.561,1.485
			c2.51,0.783,3.752,2.861,3.752,4.913c0,4.319-3.86,6.046-7.666,6.046c-4.4,0-7.963-2.105-8.044-6.883H879.193z"/>
		<path fill="#333333" d="M894.125,150.976h2.915v1.889h0.054c0.864-1.62,2.51-2.267,4.319-2.267c4.4,0,6.532,3.32,6.532,7.423
			c0,3.779-1.917,7.288-6.02,7.288c-1.782,0-3.725-0.648-4.67-2.187h-0.054v6.964h-3.077V150.976z M901.008,153.027
			c-2.591,0-3.914,1.943-3.914,4.939c0,2.808,1.431,4.913,3.914,4.913c2.808,0,3.86-2.483,3.86-4.913
			C904.869,155.456,903.546,153.027,901.008,153.027z"/>
		<path fill="#333333" d="M910.541,150.976h2.888v2.699h0.054c0.351-1.485,2.213-3.077,4.076-3.077c0.729,0,0.864,0.054,1.161,0.081
			v2.969c-0.432-0.081-0.891-0.135-1.323-0.135c-2.078,0-3.779,1.673-3.779,4.778v6.64h-3.077V150.976z"/>
		<path fill="#333333" d="M920.126,145.658h3.077v2.916h-3.077V145.658z M920.126,150.976h3.077v13.955h-3.077V150.976z"/>
		<path fill="#333333" d="M926.552,150.976h2.915v2.051l0.054,0.054c0.945-1.539,2.51-2.483,4.346-2.483
			c3.05,0,4.94,1.592,4.94,4.75v9.583h-3.077v-8.772c-0.081-2.187-0.891-3.131-2.727-3.131c-2.051,0-3.374,1.62-3.374,3.671v8.233
			h-3.077V150.976z"/>
		<path fill="#333333" d="M940.646,150.976h2.321v-4.184h3.077v4.184h2.78v2.294h-2.78v7.45c0,1.269,0.108,1.917,1.485,1.917
			c0.432,0,0.864,0,1.295-0.108v2.375c-0.675,0.081-1.322,0.162-1.997,0.162c-3.239,0-3.779-1.242-3.86-3.563v-8.233h-2.321V150.976
			z"/>
		<path fill="#333333" d="M958.627,145.658h3.077v19.273h-3.077V145.658z"/>
		<path fill="#333333" d="M967.455,158.75c0,2.186,1.188,4.13,3.752,4.13c1.809,0,2.861-0.783,3.401-2.322h2.916
			c-0.648,3.05-3.293,4.751-6.316,4.751c-4.4,0-6.829-3.023-6.829-7.342c0-3.968,2.591-7.369,6.748-7.369
			c4.4,0,7.099,3.968,6.586,8.152H967.455z M974.635,156.725c-0.135-1.943-1.404-3.698-3.509-3.698c-2.132,0-3.59,1.62-3.671,3.698
			H974.635z"/>
		<path fill="#333333" d="M978.688,150.976h3.347l3.536,10.716h0.054l3.401-10.716h3.185l-4.994,13.955h-3.455L978.688,150.976z"/>
		<path fill="#333333" d="M996.48,158.75c0,2.186,1.188,4.13,3.752,4.13c1.809,0,2.861-0.783,3.401-2.322h2.916
			c-0.648,3.05-3.293,4.751-6.316,4.751c-4.4,0-6.829-3.023-6.829-7.342c0-3.968,2.591-7.369,6.748-7.369
			c4.4,0,7.099,3.968,6.586,8.152H996.48z M1003.66,156.725c-0.135-1.943-1.404-3.698-3.509-3.698c-2.132,0-3.59,1.62-3.671,3.698
			H1003.66z"/>
		<path fill="#333333" d="M1009.171,145.658h3.077v19.273h-3.077V145.658z"/>
		<path fill="#333333" d="M1023.103,150.976h2.915v1.943h0.081c0.944-1.377,2.052-2.321,4.292-2.321
			c1.701,0,3.293,0.729,3.914,2.321c1.053-1.431,2.321-2.321,4.373-2.321c2.941,0,4.67,1.322,4.67,4.697v9.636h-3.078v-8.152
			c0-2.24-0.135-3.752-2.537-3.752c-2.078,0-2.969,1.35-2.969,3.725v8.179h-3.078v-8.961c0-1.944-0.594-2.942-2.455-2.942
			c-1.594,0-3.051,1.323-3.051,3.617v8.287h-3.077V150.976z"/>
		<path fill="#333333" d="M1048.994,158.75c0,2.186,1.188,4.13,3.752,4.13c1.809,0,2.861-0.783,3.401-2.322h2.915
			c-0.647,3.05-3.293,4.751-6.316,4.751c-4.399,0-6.828-3.023-6.828-7.342c0-3.968,2.591-7.369,6.748-7.369
			c4.399,0,7.099,3.968,6.586,8.152H1048.994z M1056.175,156.725c-0.136-1.943-1.403-3.698-3.509-3.698
			c-2.133,0-3.59,1.62-3.672,3.698H1056.175z"/>
		<path fill="#333333" d="M1064.007,158.75c0,2.186,1.188,4.13,3.752,4.13c1.809,0,2.861-0.783,3.401-2.322h2.915
			c-0.647,3.05-3.293,4.751-6.316,4.751c-4.399,0-6.829-3.023-6.829-7.342c0-3.968,2.592-7.369,6.748-7.369
			c4.4,0,7.1,3.968,6.586,8.152H1064.007z M1071.188,156.725c-0.136-1.943-1.404-3.698-3.51-3.698c-2.133,0-3.59,1.62-3.671,3.698
			H1071.188z"/>
		<path fill="#333333" d="M1075.213,150.976h2.321v-4.184h3.077v4.184h2.78v2.294h-2.78v7.45c0,1.269,0.108,1.917,1.484,1.917
			c0.432,0,0.864,0,1.296-0.108v2.375c-0.675,0.081-1.322,0.162-1.997,0.162c-3.239,0-3.779-1.242-3.86-3.563v-8.233h-2.321V150.976
			z"/>
		<path fill="#333333" d="M1085.688,145.658h3.077v2.916h-3.077V145.658z M1085.688,150.976h3.077v13.955h-3.077V150.976z"/>
		<path fill="#333333" d="M1092.114,150.976h2.915v2.051l0.055,0.054c0.944-1.539,2.51-2.483,4.346-2.483
			c3.05,0,4.939,1.592,4.939,4.75v9.583h-3.077v-8.772c-0.081-2.187-0.892-3.131-2.727-3.131c-2.052,0-3.374,1.62-3.374,3.671v8.233
			h-3.077V150.976z"/>
		<path fill="#333333" d="M1120.514,164.202c0,4.211-2.429,6.263-6.855,6.263c-2.807,0-5.938-1.08-6.235-4.346h3.077
			c0.378,1.755,1.781,2.052,3.348,2.052c2.482,0,3.59-1.269,3.59-3.563v-2.133h-0.055c-0.863,1.539-2.456,2.457-4.184,2.457
			c-4.427,0-6.262-3.347-6.262-7.342c0-3.752,2.348-6.991,6.316-6.991c1.754,0,3.347,0.702,4.129,2.294h0.055v-1.917h3.076V164.202z
			 M1117.438,157.643c0-2.402-1.08-4.616-3.752-4.616c-2.727,0-3.672,2.537-3.672,4.859c0,2.267,1.107,4.616,3.672,4.616
			C1116.412,162.501,1117.438,160.045,1117.438,157.643z"/>
	</g>
</g>
<g>
	<g>
		<path fill="#333333" d="M1421.486,14.353h5.921c4.401,0,6.302,3.201,6.302,7.142s-1.9,7.142-6.302,7.142h-5.921V14.353z
			 M1423.986,26.595h2.461c3.921,0,4.761-2.22,4.761-5.101c0-2.88-0.84-5.101-4.761-5.101h-2.461V26.595z"/>
		<path fill="#333333" d="M1437.387,24.055c0,1.621,0.88,3.061,2.78,3.061c1.341,0,2.12-0.58,2.521-1.72h2.16
			c-0.48,2.261-2.439,3.521-4.681,3.521c-3.261,0-5.062-2.241-5.062-5.441c0-2.94,1.921-5.461,5.002-5.461
			c3.26,0,5.261,2.94,4.881,6.041H1437.387z M1442.707,22.555c-0.1-1.44-1.039-2.741-2.6-2.741c-1.58,0-2.661,1.2-2.721,2.741
			H1442.707z"/>
		<path fill="#333333" d="M1448.446,25.315c0.14,1.34,1.12,1.8,2.341,1.8c0.88,0,2.36-0.18,2.301-1.36
			c-0.061-1.2-1.721-1.34-3.381-1.72c-1.681-0.36-3.32-0.96-3.32-3.061c0-2.26,2.439-2.96,4.32-2.96c2.121,0,4.061,0.86,4.32,3.181
			h-2.38c-0.22-1.101-1.08-1.38-2.101-1.38c-0.66,0-1.881,0.16-1.881,1.06c0,1.12,1.681,1.3,3.361,1.661
			c1.66,0.38,3.341,0.98,3.341,3.021c0,2.46-2.481,3.361-4.621,3.361c-2.62,0-4.521-1.161-4.581-3.601H1448.446z"/>
		<path fill="#333333" d="M1457.166,14.353h2.28v2.161h-2.28V14.353z M1457.166,18.293h2.28v10.342h-2.28V18.293z"/>
		<path fill="#333333" d="M1471.488,28.096c0,3.121-1.801,4.641-5.082,4.641c-2.08,0-4.4-0.8-4.621-3.221h2.281
			c0.279,1.3,1.32,1.52,2.48,1.52c1.84,0,2.66-0.94,2.66-2.641v-1.58h-0.039c-0.641,1.14-1.82,1.82-3.102,1.82
			c-3.28,0-4.641-2.48-4.641-5.441c0-2.78,1.74-5.181,4.682-5.181c1.3,0,2.48,0.52,3.061,1.7h0.039v-1.42h2.281V28.096z
			 M1469.207,23.234c0-1.78-0.8-3.42-2.78-3.42c-2.021,0-2.721,1.88-2.721,3.601c0,1.681,0.82,3.421,2.721,3.421
			C1468.447,26.835,1469.207,25.015,1469.207,23.234z"/>
		<path fill="#333333" d="M1473.785,18.293h2.161v1.521l0.04,0.04c0.7-1.14,1.86-1.84,3.221-1.84c2.26,0,3.66,1.18,3.66,3.521v7.102
			h-2.279v-6.501c-0.061-1.62-0.66-2.32-2.021-2.32c-1.52,0-2.5,1.2-2.5,2.721v6.101h-2.281V18.293z"/>
		<path fill="#333333" d="M1491.146,14.353h6.82c3.141,0,4.722,1.44,4.722,3.861c0,2.741-1.88,3.441-2.36,3.601v0.04
			c0.859,0.1,2.12,0.78,2.12,3.021c0,1.68,0.24,3.181,0.78,3.761h-2.681c-0.38-0.62-0.38-1.4-0.38-2.101
			c0-2.621-0.541-3.781-2.841-3.781h-3.681v5.881h-2.5V14.353z M1493.646,20.854h4.101c1.601,0,2.44-0.76,2.44-2.28
			c0-1.84-1.18-2.181-2.48-2.181h-4.061V20.854z"/>
		<path fill="#333333" d="M1506.686,24.055c0,1.621,0.881,3.061,2.781,3.061c1.34,0,2.121-0.58,2.521-1.72h2.161
			c-0.48,2.261-2.441,3.521-4.682,3.521c-3.261,0-5.061-2.241-5.061-5.441c0-2.94,1.92-5.461,5-5.461
			c3.262,0,5.262,2.94,4.881,6.041H1506.686z M1512.008,22.555c-0.101-1.44-1.041-2.741-2.602-2.741c-1.58,0-2.66,1.2-2.721,2.741
			H1512.008z"/>
		<path fill="#333333" d="M1515.006,18.293h2.48l2.621,7.942h0.039l2.521-7.942h2.359l-3.7,10.342h-2.561L1515.006,18.293z"/>
		<path fill="#333333" d="M1526.466,14.353h2.28v2.161h-2.28V14.353z M1526.466,18.293h2.28v10.342h-2.28V18.293z"/>
		<path fill="#333333" d="M1533.006,24.055c0,1.621,0.881,3.061,2.781,3.061c1.34,0,2.12-0.58,2.52-1.72h2.161
			c-0.48,2.261-2.44,3.521-4.681,3.521c-3.262,0-5.062-2.241-5.062-5.441c0-2.94,1.921-5.461,5.001-5.461
			c3.261,0,5.262,2.94,4.881,6.041H1533.006z M1538.327,22.555c-0.101-1.44-1.04-2.741-2.601-2.741c-1.58,0-2.66,1.2-2.721,2.741
			H1538.327z"/>
		<path fill="#333333" d="M1541.406,18.293h2.42l2.021,7.722h0.04l1.94-7.722h2.3l1.861,7.722h0.039l2.102-7.722h2.32l-3.241,10.342
			h-2.341l-1.92-7.682h-0.04l-1.9,7.682h-2.4L1541.406,18.293z"/>
		<path fill="#333333" d="M1559.626,25.315c0.14,1.34,1.12,1.8,2.341,1.8c0.88,0,2.36-0.18,2.301-1.36
			c-0.061-1.2-1.721-1.34-3.381-1.72c-1.681-0.36-3.32-0.96-3.32-3.061c0-2.26,2.439-2.96,4.32-2.96c2.121,0,4.061,0.86,4.32,3.181
			h-2.38c-0.22-1.101-1.08-1.38-2.101-1.38c-0.66,0-1.881,0.16-1.881,1.06c0,1.12,1.681,1.3,3.361,1.661
			c1.66,0.38,3.341,0.98,3.341,3.021c0,2.46-2.481,3.361-4.621,3.361c-2.62,0-4.521-1.161-4.581-3.601H1559.626z"/>
	</g>
</g>
<g>
	<g>
		<path fill="#333333" d="M1658.852,23.573c0,2.181,1.62,3.061,3.62,3.061c2.2,0,3.021-1.101,3.021-2.161c0-1.1-0.6-1.541-1.18-1.76
			c-1.021-0.38-2.281-0.64-4.262-1.18c-2.46-0.64-3.16-2.141-3.16-3.621c0-2.88,2.641-4.201,5.221-4.201
			c2.961,0,5.481,1.58,5.481,4.561h-2.501c-0.139-1.84-1.34-2.521-3.08-2.521c-1.16,0-2.621,0.42-2.621,1.86
			c0,1.02,0.681,1.54,1.701,1.84c0.22,0.06,3.381,0.88,4.121,1.1c1.859,0.58,2.78,2.121,2.78,3.641c0,3.201-2.86,4.481-5.681,4.481
			c-3.262,0-5.902-1.56-5.962-5.101H1658.852z"/>
		<path fill="#333333" d="M1668.811,17.992h1.721v-3.101h2.279v3.101h2.061v1.701h-2.061v5.521c0,0.94,0.08,1.42,1.102,1.42
			c0.319,0,0.64,0,0.959-0.08v1.76c-0.5,0.06-0.979,0.12-1.479,0.12c-2.401,0-2.801-0.92-2.86-2.641v-6.101h-1.721V17.992z"/>
		<path fill="#333333" d="M1678.291,23.753c0,1.621,0.88,3.061,2.78,3.061c1.341,0,2.12-0.58,2.521-1.72h2.16
			c-0.48,2.261-2.439,3.521-4.681,3.521c-3.261,0-5.062-2.241-5.062-5.441c0-2.94,1.921-5.461,5.002-5.461
			c3.26,0,5.261,2.94,4.881,6.041H1678.291z M1683.611,22.253c-0.1-1.44-1.039-2.741-2.6-2.741c-1.58,0-2.661,1.2-2.721,2.741
			H1683.611z"/>
		<path fill="#333333" d="M1687.69,17.992h2.161v1.4h0.039c0.641-1.2,1.861-1.68,3.201-1.68c3.26,0,4.841,2.46,4.841,5.501
			c0,2.801-1.421,5.401-4.461,5.401c-1.32,0-2.761-0.48-3.461-1.621h-0.04v5.161h-2.28V17.992z M1692.791,19.513
			c-1.92,0-2.9,1.44-2.9,3.661c0,2.081,1.061,3.641,2.9,3.641c2.081,0,2.861-1.84,2.861-3.641
			C1695.652,21.313,1694.672,19.513,1692.791,19.513z"/>
		<path fill="#333333" d="M1701.57,25.014c0.141,1.34,1.121,1.8,2.341,1.8c0.88,0,2.36-0.18,2.3-1.36
			c-0.06-1.2-1.72-1.34-3.381-1.72c-1.68-0.36-3.32-0.96-3.32-3.061c0-2.26,2.441-2.96,4.321-2.96c2.12,0,4.062,0.86,4.321,3.181
			h-2.381c-0.221-1.101-1.08-1.38-2.101-1.38c-0.66,0-1.88,0.16-1.88,1.06c0,1.12,1.68,1.3,3.36,1.661
			c1.66,0.38,3.341,0.98,3.341,3.021c0,2.46-2.48,3.361-4.621,3.361c-2.621,0-4.521-1.161-4.581-3.601H1701.57z"/>
		<path fill="#333333" d="M1715.311,23.153c0-3.141,1.92-5.441,5.221-5.441s5.221,2.3,5.221,5.441c0,3.181-1.92,5.461-5.221,5.461
			S1715.311,26.334,1715.311,23.153z M1723.472,23.153c0-1.78-0.899-3.641-2.94-3.641s-2.941,1.86-2.941,3.641
			c0,1.8,0.9,3.661,2.941,3.661S1723.472,24.954,1723.472,23.153z"/>
		<path fill="#333333" d="M1734.631,21.453c-0.18-1.28-1.08-1.94-2.359-1.94c-1.181,0-2.842,0.64-2.842,3.761
			c0,1.72,0.761,3.541,2.741,3.541c1.341,0,2.241-0.86,2.46-2.36h2.281c-0.42,2.701-2.08,4.161-4.741,4.161
			c-3.241,0-5.021-2.301-5.021-5.341c0-3.121,1.699-5.561,5.101-5.561c2.4,0,4.44,1.2,4.661,3.741H1734.631z"/>
		<path fill="#333333" d="M1745.752,21.453c-0.18-1.28-1.08-1.94-2.361-1.94c-1.18,0-2.84,0.64-2.84,3.761
			c0,1.72,0.76,3.541,2.74,3.541c1.34,0,2.24-0.86,2.461-2.36h2.28c-0.421,2.701-2.081,4.161-4.741,4.161
			c-3.24,0-5.021-2.301-5.021-5.341c0-3.121,1.701-5.561,5.102-5.561c2.4,0,4.441,1.2,4.661,3.741H1745.752z"/>
		<path fill="#333333" d="M1758.973,28.334h-2.241v-1.44h-0.04c-0.561,1.041-1.801,1.721-2.94,1.721c-2.721,0-3.86-1.34-3.86-4.061
			v-6.562h2.28v6.341c0,1.82,0.72,2.48,1.979,2.48c1.9,0,2.541-1.22,2.541-2.82v-6.001h2.281V28.334z"/>
		<path fill="#333333" d="M1761.37,17.992h2.141v2h0.04c0.26-1.1,1.641-2.28,3.021-2.28c0.54,0,0.64,0.04,0.86,0.06v2.201
			c-0.32-0.06-0.66-0.1-0.98-0.1c-1.54,0-2.801,1.24-2.801,3.541v4.921h-2.28V17.992z"/>
		<path fill="#333333" d="M1774.029,14.051h2.281v2.161h-2.281V14.051z M1774.029,17.992h2.281v10.342h-2.281V17.992z"/>
		<path fill="#333333" d="M1777.75,17.992h1.72v-3.101h2.28v3.101h2.061v1.701h-2.061v5.521c0,0.94,0.08,1.42,1.101,1.42
			c0.319,0,0.64,0,0.96-0.08v1.76c-0.5,0.06-0.98,0.12-1.48,0.12c-2.4,0-2.801-0.92-2.86-2.641v-6.101h-1.72V17.992z"/>
		<path fill="#333333" d="M1787.229,23.753c0,1.621,0.88,3.061,2.78,3.061c1.341,0,2.121-0.58,2.521-1.72h2.16
			c-0.48,2.261-2.441,3.521-4.682,3.521c-3.26,0-5.061-2.241-5.061-5.441c0-2.94,1.92-5.461,5.001-5.461
			c3.261,0,5.261,2.94,4.881,6.041H1787.229z M1792.551,22.253c-0.1-1.44-1.04-2.741-2.601-2.741c-1.58,0-2.661,1.2-2.721,2.741
			H1792.551z"/>
		<path fill="#333333" d="M1796.569,17.992h2.141v2h0.04c0.26-1.1,1.641-2.28,3.021-2.28c0.54,0,0.64,0.04,0.86,0.06v2.201
			c-0.32-0.06-0.66-0.1-0.98-0.1c-1.54,0-2.801,1.24-2.801,3.541v4.921h-2.28V17.992z"/>
		<path fill="#333333" d="M1812.271,26.034c0,0.56,0.119,0.78,0.539,0.78h0.24c0.1,0,0.2-0.02,0.32-0.04v1.581
			c-0.34,0.12-1.061,0.26-1.44,0.26c-0.94,0-1.58-0.32-1.761-1.26c-0.9,0.88-2.359,1.26-3.58,1.26c-1.861,0-3.541-1-3.541-3.021
			c0-2.581,2.061-3,3.98-3.221c1.66-0.32,3.102-0.1,3.102-1.46c0-1.201-1.24-1.4-2.141-1.4c-1.281,0-2.181,0.52-2.281,1.64h-2.28
			c0.16-2.661,2.401-3.44,4.701-3.44c2.021,0,4.142,0.82,4.142,3V26.034z M1809.99,23.153c-0.7,0.46-1.78,0.44-2.801,0.62
			c-0.98,0.16-1.86,0.52-1.86,1.72c0,1.041,1.3,1.32,2.101,1.32c1,0,2.561-0.52,2.561-1.96V23.153z"/>
		<path fill="#333333" d="M1813.689,17.992h1.72v-3.101h2.28v3.101h2.061v1.701h-2.061v5.521c0,0.94,0.08,1.42,1.101,1.42
			c0.319,0,0.64,0,0.96-0.08v1.76c-0.5,0.06-0.98,0.12-1.48,0.12c-2.4,0-2.801-0.92-2.86-2.641v-6.101h-1.72V17.992z"/>
		<path fill="#333333" d="M1821.449,14.051h2.279v2.161h-2.279V14.051z M1821.449,17.992h2.279v10.342h-2.279V17.992z"/>
		<path fill="#333333" d="M1825.188,17.992h2.48l2.62,7.942h0.041l2.52-7.942h2.361l-3.701,10.342h-2.561L1825.188,17.992z"/>
		<path fill="#333333" d="M1838.369,23.753c0,1.621,0.88,3.061,2.78,3.061c1.341,0,2.12-0.58,2.521-1.72h2.16
			c-0.48,2.261-2.439,3.521-4.681,3.521c-3.261,0-5.062-2.241-5.062-5.441c0-2.94,1.921-5.461,5.002-5.461
			c3.26,0,5.261,2.94,4.881,6.041H1838.369z M1843.689,22.253c-0.1-1.44-1.039-2.741-2.6-2.741c-1.58,0-2.661,1.2-2.721,2.741
			H1843.689z"/>
		<path fill="#333333" d="M1847.769,14.051h2.28v14.283h-2.28V14.051z"/>
		<path fill="#333333" d="M1851.389,17.992h2.5l2.701,7.722h0.039l2.621-7.722h2.381l-4.021,10.902
			c-0.74,1.86-1.26,3.541-3.66,3.541c-0.541,0-1.061-0.04-1.581-0.12v-1.92c0.38,0.06,0.7,0.14,1.081,0.14
			c1.039,0,1.34-0.561,1.6-1.44l0.26-0.8L1851.389,17.992z"/>
		<path fill="#333333" d="M1867.528,17.992h2.421l2.02,7.722h0.041l1.939-7.722h2.301l1.86,7.722h0.04l2.101-7.722h2.32
			l-3.241,10.342h-2.34l-1.92-7.682h-0.041l-1.9,7.682h-2.4L1867.528,17.992z"/>
		<path fill="#333333" d="M1884.088,14.051h2.281v2.161h-2.281V14.051z M1884.088,17.992h2.281v10.342h-2.281V17.992z"/>
		<path fill="#333333" d="M1887.809,17.992h1.72v-3.101h2.28v3.101h2.061v1.701h-2.061v5.521c0,0.94,0.08,1.42,1.101,1.42
			c0.319,0,0.64,0,0.96-0.08v1.76c-0.5,0.06-0.98,0.12-1.48,0.12c-2.4,0-2.801-0.92-2.86-2.641v-6.101h-1.72V17.992z"/>
		<path fill="#333333" d="M1895.508,14.051h2.281v5.301h0.039c0.561-0.94,1.74-1.64,3.102-1.64c2.26,0,3.66,1.18,3.66,3.521v7.102
			h-2.281v-6.501c-0.059-1.62-0.659-2.32-2.02-2.32c-1.521,0-2.5,1.2-2.5,2.721v6.101h-2.281V14.051z"/>
		<path fill="#333333" d="M1907.048,14.051h2.28v2.161h-2.28V14.051z M1907.048,17.992h2.28v10.342h-2.28V17.992z"/>
		<path fill="#333333" d="M1911.808,17.992h2.161v1.521l0.039,0.04c0.701-1.14,1.861-1.84,3.221-1.84
			c2.261,0,3.661,1.18,3.661,3.521v7.102h-2.28v-6.501c-0.061-1.62-0.66-2.32-2.021-2.32c-1.521,0-2.501,1.2-2.501,2.721v6.101
			h-2.28V17.992z"/>
		<path fill="#333333" d="M1927.808,17.992h1.72v-3.101h2.281v3.101h2.061v1.701h-2.061v5.521c0,0.94,0.08,1.42,1.1,1.42
			c0.32,0,0.641,0,0.961-0.08v1.76c-0.5,0.06-0.98,0.12-1.48,0.12c-2.4,0-2.801-0.92-2.861-2.641v-6.101h-1.72V17.992z"/>
		<path fill="#333333" d="M1935.508,14.051h2.28v5.301h0.04c0.561-0.94,1.74-1.64,3.101-1.64c2.261,0,3.661,1.18,3.661,3.521v7.102
			h-2.281v-6.501c-0.06-1.62-0.66-2.32-2.02-2.32c-1.521,0-2.501,1.2-2.501,2.721v6.101h-2.28V14.051z"/>
		<path fill="#333333" d="M1947.047,14.051h2.281v2.161h-2.281V14.051z M1947.047,17.992h2.281v10.342h-2.281V17.992z"/>
		<path fill="#333333" d="M1953.527,25.014c0.141,1.34,1.121,1.8,2.341,1.8c0.88,0,2.36-0.18,2.3-1.36
			c-0.06-1.2-1.72-1.34-3.381-1.72c-1.68-0.36-3.32-0.96-3.32-3.061c0-2.26,2.441-2.96,4.321-2.96c2.12,0,4.062,0.86,4.321,3.181
			h-2.381c-0.221-1.101-1.08-1.38-2.101-1.38c-0.66,0-1.88,0.16-1.88,1.06c0,1.12,1.68,1.3,3.36,1.661
			c1.66,0.38,3.341,0.98,3.341,3.021c0,2.46-2.48,3.361-4.621,3.361c-2.621,0-4.521-1.161-4.581-3.601H1953.527z"/>
		<path fill="#333333" d="M1966.727,17.992h1.701v-0.86c0-2.641,1.38-3.081,2.86-3.081c0.739,0,1.261,0.04,1.601,0.14v1.78
			c-0.301-0.08-0.601-0.12-1.061-0.12c-0.62,0-1.121,0.22-1.121,1.08v1.06h1.941v1.701h-1.941v8.642h-2.279v-8.642h-1.701V17.992z
			 M1974.108,14.051h2.28v14.283h-2.28V14.051z"/>
		<path fill="#333333" d="M1978.387,23.153c0-3.141,1.921-5.441,5.222-5.441s5.222,2.3,5.222,5.441c0,3.181-1.921,5.461-5.222,5.461
			S1978.387,26.334,1978.387,23.153z M1986.549,23.153c0-1.78-0.9-3.641-2.94-3.641s-2.94,1.86-2.94,3.641
			c0,1.8,0.9,3.661,2.94,3.661S1986.549,24.954,1986.549,23.153z"/>
		<path fill="#333333" d="M1989.787,17.992h2.42l2.021,7.722h0.039l1.941-7.722h2.3l1.86,7.722h0.04l2.101-7.722h2.32l-3.24,10.342
			h-2.341l-1.921-7.682h-0.039l-1.9,7.682h-2.4L1989.787,17.992z"/>
	</g>
</g>
<g>
	<g>
		<path fill="#333333" d="M1279.295,145.658h7.99c5.938,0,8.503,4.319,8.503,9.637c0,5.317-2.564,9.636-8.503,9.636h-7.99V145.658z
			 M1282.67,162.177h3.32c5.29,0,6.424-2.996,6.424-6.883c0-3.887-1.134-6.883-6.424-6.883h-3.32V162.177z"/>
		<path fill="#333333" d="M1300.76,158.75c0,2.186,1.188,4.13,3.752,4.13c1.809,0,2.861-0.783,3.4-2.322h2.916
			c-0.648,3.05-3.293,4.751-6.316,4.751c-4.4,0-6.829-3.023-6.829-7.342c0-3.968,2.591-7.369,6.748-7.369
			c4.399,0,7.099,3.968,6.587,8.152H1300.76z M1307.939,156.725c-0.135-1.943-1.403-3.698-3.509-3.698
			c-2.132,0-3.59,1.62-3.671,3.698H1307.939z"/>
		<path fill="#333333" d="M1315.691,160.45c0.188,1.809,1.512,2.43,3.158,2.43c1.188,0,3.185-0.243,3.104-1.835
			c-0.081-1.62-2.321-1.809-4.562-2.322c-2.268-0.486-4.481-1.295-4.481-4.13c0-3.05,3.293-3.995,5.831-3.995
			c2.861,0,5.479,1.161,5.831,4.292h-3.213c-0.297-1.484-1.457-1.862-2.834-1.862c-0.891,0-2.537,0.216-2.537,1.431
			c0,1.512,2.268,1.754,4.534,2.24c2.241,0.513,4.508,1.323,4.508,4.076c0,3.32-3.347,4.535-6.235,4.535
			c-3.535,0-6.1-1.565-6.182-4.859H1315.691z"/>
		<path fill="#333333" d="M1327.463,145.658h3.078v2.916h-3.078V145.658z M1327.463,150.976h3.078v13.955h-3.078V150.976z"/>
		<path fill="#333333" d="M1346.791,164.202c0,4.211-2.429,6.263-6.855,6.263c-2.807,0-5.938-1.08-6.235-4.346h3.077
			c0.378,1.755,1.781,2.052,3.348,2.052c2.482,0,3.59-1.269,3.59-3.563v-2.133h-0.055c-0.863,1.539-2.456,2.457-4.184,2.457
			c-4.427,0-6.262-3.347-6.262-7.342c0-3.752,2.348-6.991,6.316-6.991c1.754,0,3.347,0.702,4.129,2.294h0.055v-1.917h3.076V164.202z
			 M1343.715,157.643c0-2.402-1.08-4.616-3.752-4.616c-2.727,0-3.672,2.537-3.672,4.859c0,2.267,1.107,4.616,3.672,4.616
			C1342.689,162.501,1343.715,160.045,1343.715,157.643z"/>
		<path fill="#333333" d="M1349.9,150.976h2.914v2.051l0.055,0.054c0.945-1.539,2.51-2.483,4.346-2.483
			c3.051,0,4.939,1.592,4.939,4.75v9.583h-3.077v-8.772c-0.081-2.187-0.891-3.131-2.726-3.131c-2.052,0-3.375,1.62-3.375,3.671
			v8.233h-3.076V150.976z"/>
		<path fill="#333333" d="M1365.641,161.287h3.752v3.644c-0.027,2.24-1.484,3.833-3.645,4.265v-1.646
			c1.188-0.297,1.781-1.458,1.755-2.618h-1.862V161.287z"/>
		<path fill="#333333" d="M1393.852,151.785c-0.566-2.24-1.998-3.833-4.805-3.833c-4.13,0-5.857,3.644-5.857,7.342
			c0,3.698,1.728,7.342,5.857,7.342c3.023,0,4.615-2.24,4.912-5.047h3.293c-0.297,4.616-3.535,7.801-8.205,7.801
			c-5.75,0-9.231-4.562-9.231-10.095c0-5.48,3.481-10.096,9.231-10.096c4.373,0,7.747,2.43,8.179,6.586H1393.852z"/>
		<path fill="#333333" d="M1399.255,157.939c0-4.238,2.591-7.342,7.046-7.342c4.453,0,7.045,3.104,7.045,7.342
			c0,4.292-2.592,7.369-7.045,7.369C1401.846,165.309,1399.255,162.231,1399.255,157.939z M1410.268,157.939
			c0-2.402-1.215-4.913-3.967-4.913c-2.754,0-3.969,2.51-3.969,4.913c0,2.429,1.215,4.94,3.969,4.94
			C1409.053,162.879,1410.268,160.369,1410.268,157.939z"/>
		<path fill="#333333" d="M1429.059,164.931h-2.915v-1.89h-0.054c-0.837,1.62-2.564,2.268-4.318,2.268
			c-4.4,0-6.533-3.266-6.533-7.45c0-5.075,2.996-7.261,6.047-7.261c1.728,0,3.697,0.647,4.643,2.186h0.055v-7.126h3.076V164.931z
			 M1422.176,162.879c2.727,0,3.914-2.511,3.914-4.94c0-3.104-1.484-4.913-3.859-4.913c-2.889,0-3.914,2.591-3.914,5.075
			C1418.316,160.504,1419.504,162.879,1422.176,162.879z"/>
		<path fill="#333333" d="M1434.812,158.75c0,2.186,1.188,4.13,3.752,4.13c1.809,0,2.861-0.783,3.4-2.322h2.916
			c-0.648,3.05-3.293,4.751-6.316,4.751c-4.4,0-6.829-3.023-6.829-7.342c0-3.968,2.591-7.369,6.748-7.369
			c4.399,0,7.099,3.968,6.587,8.152H1434.812z M1441.992,156.725c-0.135-1.943-1.403-3.698-3.509-3.698
			c-2.132,0-3.59,1.62-3.671,3.698H1441.992z"/>
		<path fill="#333333" d="M1447.665,161.287h3.752v3.644c-0.026,2.24-1.484,3.833-3.644,4.265v-1.646
			c1.188-0.297,1.781-1.458,1.754-2.618h-1.862V161.287z"/>
		<path fill="#333333" d="M1462.65,145.658h3.373v11.229c0,2.591,0.162,5.587,4.535,5.587s4.535-2.996,4.535-5.587v-11.229h3.374
			v12.336c0,4.939-3.158,7.396-7.909,7.396c-4.75,0-7.908-2.457-7.908-7.396V145.658z"/>
		<path fill="#333333" d="M1481.928,150.976h2.915v2.051l0.054,0.054c0.945-1.539,2.511-2.483,4.346-2.483
			c3.051,0,4.94,1.592,4.94,4.75v9.583h-3.077v-8.772c-0.081-2.187-0.891-3.131-2.727-3.131c-2.051,0-3.374,1.62-3.374,3.671v8.233
			h-3.077V150.976z"/>
		<path fill="#333333" d="M1497.506,145.658h3.078v2.916h-3.078V145.658z M1497.506,150.976h3.078v13.955h-3.078V150.976z"/>
		<path fill="#333333" d="M1502.528,150.976h2.321v-4.184h3.077v4.184h2.78v2.294h-2.78v7.45c0,1.269,0.108,1.917,1.485,1.917
			c0.432,0,0.863,0,1.295-0.108v2.375c-0.675,0.081-1.322,0.162-1.997,0.162c-3.239,0-3.779-1.242-3.86-3.563v-8.233h-2.321V150.976
			z"/>
		<path fill="#333333" d="M1519.025,145.658h15.602v2.916h-6.127v16.357h-3.375v-16.357h-6.1V145.658z"/>
		<path fill="#333333" d="M1535.846,158.75c0,2.186,1.188,4.13,3.752,4.13c1.809,0,2.861-0.783,3.4-2.322h2.916
			c-0.648,3.05-3.294,4.751-6.316,4.751c-4.4,0-6.83-3.023-6.83-7.342c0-3.968,2.592-7.369,6.748-7.369c4.4,0,7.1,3.968,6.587,8.152
			H1535.846z M1543.025,156.725c-0.135-1.943-1.404-3.698-3.51-3.698c-2.132,0-3.59,1.62-3.67,3.698H1543.025z"/>
		<path fill="#333333" d="M1550.776,160.45c0.188,1.809,1.512,2.43,3.158,2.43c1.188,0,3.185-0.243,3.104-1.835
			c-0.082-1.62-2.322-1.809-4.562-2.322c-2.268-0.486-4.48-1.295-4.48-4.13c0-3.05,3.293-3.995,5.83-3.995
			c2.861,0,5.48,1.161,5.831,4.292h-3.212c-0.297-1.484-1.458-1.862-2.834-1.862c-0.892,0-2.538,0.216-2.538,1.431
			c0,1.512,2.268,1.754,4.534,2.24c2.241,0.513,4.508,1.323,4.508,4.076c0,3.32-3.347,4.535-6.234,4.535
			c-3.536,0-6.101-1.565-6.182-4.859H1550.776z"/>
		<path fill="#333333" d="M1561.064,150.976h2.32v-4.184h3.078v4.184h2.779v2.294h-2.779v7.45c0,1.269,0.107,1.917,1.484,1.917
			c0.432,0,0.863,0,1.295-0.108v2.375c-0.674,0.081-1.322,0.162-1.996,0.162c-3.24,0-3.779-1.242-3.861-3.563v-8.233h-2.32V150.976z
			"/>
	</g>
</g>
<g>
	<g>
		<path fill="#333333" d="M1681.611,145.658h3.375v19.273h-3.375V145.658z"/>
		<path fill="#333333" d="M1688.686,150.976h2.916v2.051l0.054,0.054c0.944-1.539,2.511-2.483,4.346-2.483
			c3.05,0,4.94,1.592,4.94,4.75v9.583h-3.078v-8.772c-0.08-2.187-0.891-3.131-2.727-3.131c-2.051,0-3.373,1.62-3.373,3.671v8.233
			h-3.078V150.976z"/>
		<path fill="#333333" d="M1702.779,150.976h2.322v-4.184h3.077v4.184h2.78v2.294h-2.78v7.45c0,1.269,0.108,1.917,1.484,1.917
			c0.432,0,0.864,0,1.296-0.108v2.375c-0.676,0.081-1.322,0.162-1.998,0.162c-3.238,0-3.779-1.242-3.859-3.563v-8.233h-2.322
			V150.976z"/>
		<path fill="#333333" d="M1715.576,158.75c0,2.186,1.188,4.13,3.752,4.13c1.809,0,2.861-0.783,3.401-2.322h2.915
			c-0.647,3.05-3.293,4.751-6.316,4.751c-4.399,0-6.828-3.023-6.828-7.342c0-3.968,2.591-7.369,6.748-7.369
			c4.399,0,7.099,3.968,6.586,8.152H1715.576z M1722.757,156.725c-0.136-1.943-1.403-3.698-3.509-3.698
			c-2.133,0-3.59,1.62-3.672,3.698H1722.757z"/>
		<path fill="#333333" d="M1741.089,164.202c0,4.211-2.429,6.263-6.856,6.263c-2.807,0-5.938-1.08-6.234-4.346h3.076
			c0.379,1.755,1.782,2.052,3.348,2.052c2.483,0,3.59-1.269,3.59-3.563v-2.133h-0.054c-0.864,1.539-2.456,2.457-4.185,2.457
			c-4.426,0-6.262-3.347-6.262-7.342c0-3.752,2.348-6.991,6.316-6.991c1.754,0,3.348,0.702,4.13,2.294h0.054v-1.917h3.077V164.202z
			 M1738.012,157.643c0-2.402-1.08-4.616-3.752-4.616c-2.727,0-3.671,2.537-3.671,4.859c0,2.267,1.106,4.616,3.671,4.616
			C1736.986,162.501,1738.012,160.045,1738.012,157.643z"/>
		<path fill="#333333" d="M1744.197,150.976h2.889v2.699h0.054c0.351-1.485,2.214-3.077,4.075-3.077
			c0.729,0,0.864,0.054,1.161,0.081v2.969c-0.432-0.081-0.891-0.135-1.323-0.135c-2.078,0-3.778,1.673-3.778,4.778v6.64h-3.077
			V150.976z"/>
		<path fill="#333333" d="M1765.389,161.827c0,0.756,0.162,1.053,0.729,1.053h0.324c0.135,0,0.27-0.027,0.432-0.054v2.132
			c-0.459,0.162-1.43,0.351-1.943,0.351c-1.268,0-2.132-0.432-2.375-1.701c-1.215,1.188-3.186,1.701-4.832,1.701
			c-2.51,0-4.777-1.35-4.777-4.076c0-3.482,2.78-4.049,5.371-4.346c2.24-0.432,4.185-0.135,4.185-1.97c0-1.62-1.674-1.89-2.889-1.89
			c-1.728,0-2.942,0.702-3.077,2.213h-3.077c0.216-3.59,3.239-4.643,6.343-4.643c2.727,0,5.588,1.106,5.588,4.049V161.827z
			 M1762.312,157.939c-0.945,0.621-2.402,0.594-3.779,0.837c-1.323,0.216-2.511,0.702-2.511,2.321c0,1.404,1.755,1.782,2.835,1.782
			c1.35,0,3.455-0.702,3.455-2.646V157.939z"/>
		<path fill="#333333" d="M1767.31,150.976h2.321v-4.184h3.077v4.184h2.78v2.294h-2.78v7.45c0,1.269,0.108,1.917,1.485,1.917
			c0.432,0,0.863,0,1.295-0.108v2.375c-0.675,0.081-1.322,0.162-1.997,0.162c-3.239,0-3.779-1.242-3.86-3.563v-8.233h-2.321V150.976
			z"/>
		<path fill="#333333" d="M1780.106,158.75c0,2.186,1.188,4.13,3.752,4.13c1.809,0,2.861-0.783,3.401-2.322h2.915
			c-0.647,3.05-3.293,4.751-6.316,4.751c-4.399,0-6.829-3.023-6.829-7.342c0-3.968,2.592-7.369,6.748-7.369
			c4.4,0,7.1,3.968,6.586,8.152H1780.106z M1787.287,156.725c-0.136-1.943-1.404-3.698-3.51-3.698c-2.133,0-3.59,1.62-3.671,3.698
			H1787.287z"/>
		<path fill="#333333" d="M1810.938,162.771c-1.431,1.754-3.132,2.537-5.399,2.537c-3.562,0-6.072-2.132-6.072-5.723
			c0-2.726,2.186-4.427,4.426-5.587c-0.998-1.295-1.943-2.51-1.943-4.211c0-2.78,2.105-4.589,4.725-4.589
			c2.482,0,4.805,1.512,4.805,4.616c0,2.294-1.62,3.887-3.482,4.886l2.996,3.617c0.216-0.621,0.459-1.323,0.594-2.591h2.699
			c-0.189,1.701-0.647,3.347-1.512,4.724l3.698,4.481h-3.778L1810.938,162.771z M1805.513,156.023
			c-1.134,0.702-2.97,1.323-2.97,3.617c0,2.079,1.297,3.239,3.104,3.239c2.241,0,3.077-1.377,3.644-2.16L1805.513,156.023z
			 M1804.703,149.626c0,1.269,1.025,2.267,1.754,3.212c1.161-0.783,2.268-1.593,2.268-3.131c0-1.269-0.783-2.213-1.971-2.213
			C1805.594,147.493,1804.703,148.33,1804.703,149.626z"/>
		<path fill="#333333" d="M1825.656,145.658h9.366c3.455,0,5.723,1.566,5.723,4.778c0,1.943-0.999,3.347-2.753,4.103v0.054
			c2.375,0.513,3.617,2.349,3.617,4.967c0,3.023-2.105,5.372-7.1,5.372h-8.854V145.658z M1829.03,153.729h5.507
			c1.619,0,2.834-0.945,2.834-2.672c0-1.943-0.999-2.645-2.834-2.645h-5.507V153.729z M1829.03,162.177h5.966
			c2.051,0,3.238-1.106,3.238-3.05c0-1.917-1.188-2.969-3.238-2.969h-5.966V162.177z"/>
		<path fill="#333333" d="M1856.486,164.931h-3.023v-1.943h-0.054c-0.755,1.403-2.429,2.321-3.968,2.321
			c-3.671,0-5.209-1.809-5.209-5.479v-8.854h3.076v8.557c0,2.456,0.973,3.347,2.673,3.347c2.564,0,3.428-1.647,3.428-3.806v-8.098
			h3.077V164.931z"/>
		<path fill="#333333" d="M1859.811,145.658h3.077v2.916h-3.077V145.658z M1859.811,150.976h3.077v13.955h-3.077V150.976z"/>
		<path fill="#333333" d="M1866.317,145.658h3.077v19.273h-3.077V145.658z"/>
		<path fill="#333333" d="M1885.889,164.931h-2.916v-1.89h-0.053c-0.838,1.62-2.564,2.268-4.319,2.268
			c-4.399,0-6.532-3.266-6.532-7.45c0-5.075,2.996-7.261,6.047-7.261c1.727,0,3.697,0.647,4.643,2.186h0.054v-7.126h3.077V164.931z
			 M1879.006,162.879c2.727,0,3.914-2.511,3.914-4.94c0-3.104-1.485-4.913-3.86-4.913c-2.888,0-3.914,2.591-3.914,5.075
			C1875.146,160.504,1876.333,162.879,1879.006,162.879z"/>
	</g>
</g>
<g>
	<path fill="#333333" d="M73.532,245.619h9.205c4.238,0,6.371,1.943,6.371,5.209c0,3.698-2.538,4.643-3.186,4.859v0.054
		c1.161,0.135,2.861,1.053,2.861,4.076c0,2.268,0.324,4.292,1.053,5.075h-3.617c-0.513-0.837-0.513-1.89-0.513-2.834
		c0-3.536-0.729-5.102-3.833-5.102h-4.966v7.936h-3.375V245.619z M76.906,254.392h5.533c2.16,0,3.293-1.026,3.293-3.077
		c0-2.483-1.592-2.942-3.347-2.942h-5.479V254.392z"/>
	<path fill="#333333" d="M94.51,258.71c0,2.186,1.188,4.13,3.752,4.13c1.809,0,2.861-0.783,3.401-2.322h2.916
		c-0.648,3.05-3.293,4.751-6.316,4.751c-4.4,0-6.829-3.023-6.829-7.342c0-3.968,2.591-7.369,6.748-7.369
		c4.4,0,7.099,3.968,6.586,8.152H94.51z M101.69,256.686c-0.135-1.943-1.404-3.698-3.509-3.698c-2.132,0-3.59,1.62-3.671,3.698
		H101.69z"/>
	<path fill="#333333" d="M107.201,245.619h3.077v19.273h-3.077V245.619z"/>
	<path fill="#333333" d="M116.029,258.71c0,2.186,1.188,4.13,3.752,4.13c1.809,0,2.861-0.783,3.401-2.322h2.916
		c-0.648,3.05-3.293,4.751-6.316,4.751c-4.4,0-6.829-3.023-6.829-7.342c0-3.968,2.591-7.369,6.748-7.369
		c4.4,0,7.099,3.968,6.586,8.152H116.029z M123.209,256.686c-0.135-1.943-1.404-3.698-3.509-3.698c-2.132,0-3.59,1.62-3.671,3.698
		H123.209z"/>
	<path fill="#333333" d="M140.327,261.788c0,0.756,0.162,1.053,0.729,1.053h0.324c0.135,0,0.27-0.027,0.432-0.054v2.132
		c-0.459,0.162-1.431,0.351-1.943,0.351c-1.269,0-2.132-0.432-2.375-1.701c-1.215,1.188-3.185,1.701-4.832,1.701
		c-2.51,0-4.778-1.35-4.778-4.076c0-3.482,2.78-4.049,5.372-4.346c2.24-0.432,4.184-0.135,4.184-1.97c0-1.62-1.674-1.89-2.889-1.89
		c-1.728,0-2.942,0.702-3.077,2.213h-3.077c0.216-3.59,3.239-4.643,6.343-4.643c2.727,0,5.588,1.106,5.588,4.049V261.788z
		 M137.25,257.9c-0.945,0.621-2.402,0.594-3.779,0.837c-1.323,0.216-2.51,0.702-2.51,2.321c0,1.404,1.754,1.782,2.834,1.782
		c1.35,0,3.455-0.702,3.455-2.646V257.9z"/>
	<path fill="#333333" d="M145.973,260.411c0.189,1.809,1.512,2.43,3.158,2.43c1.188,0,3.185-0.243,3.104-1.835
		c-0.081-1.62-2.321-1.809-4.562-2.322c-2.268-0.486-4.481-1.295-4.481-4.13c0-3.05,3.293-3.995,5.831-3.995
		c2.861,0,5.479,1.161,5.831,4.292h-3.212c-0.297-1.484-1.458-1.862-2.834-1.862c-0.891,0-2.538,0.216-2.538,1.431
		c0,1.512,2.268,1.754,4.535,2.24c2.241,0.513,4.508,1.323,4.508,4.076c0,3.32-3.347,4.535-6.235,4.535
		c-3.536,0-6.1-1.565-6.181-4.859H145.973z"/>
	<path fill="#333333" d="M160.066,258.71c0,2.186,1.188,4.13,3.752,4.13c1.809,0,2.861-0.783,3.401-2.322h2.916
		c-0.648,3.05-3.293,4.751-6.316,4.751c-4.4,0-6.829-3.023-6.829-7.342c0-3.968,2.591-7.369,6.748-7.369
		c4.4,0,7.099,3.968,6.586,8.152H160.066z M167.247,256.686c-0.135-1.943-1.404-3.698-3.509-3.698c-2.132,0-3.59,1.62-3.671,3.698
		H167.247z"/>
</g>
<g>
	<g>
		<path fill="#333333" d="M475.848,245.619h9.205c4.238,0,6.371,1.943,6.371,5.209c0,3.698-2.538,4.643-3.186,4.859v0.054
			c1.161,0.135,2.861,1.053,2.861,4.076c0,2.268,0.324,4.292,1.053,5.075h-3.617c-0.513-0.837-0.513-1.89-0.513-2.834
			c0-3.536-0.729-5.102-3.833-5.102h-4.966v7.936h-3.375V245.619z M479.222,254.392h5.533c2.16,0,3.293-1.026,3.293-3.077
			c0-2.483-1.592-2.942-3.347-2.942h-5.479V254.392z"/>
		<path fill="#333333" d="M496.826,258.71c0,2.186,1.188,4.13,3.752,4.13c1.809,0,2.861-0.783,3.401-2.322h2.916
			c-0.648,3.05-3.293,4.751-6.316,4.751c-4.4,0-6.829-3.023-6.829-7.342c0-3.968,2.591-7.369,6.748-7.369
			c4.4,0,7.099,3.968,6.586,8.152H496.826z M504.006,256.686c-0.135-1.943-1.404-3.698-3.509-3.698c-2.132,0-3.59,1.62-3.671,3.698
			H504.006z"/>
		<path fill="#333333" d="M509.517,245.619h3.077v19.273h-3.077V245.619z"/>
		<path fill="#333333" d="M518.345,258.71c0,2.186,1.188,4.13,3.752,4.13c1.809,0,2.861-0.783,3.401-2.322h2.916
			c-0.648,3.05-3.293,4.751-6.316,4.751c-4.4,0-6.829-3.023-6.829-7.342c0-3.968,2.591-7.369,6.748-7.369
			c4.4,0,7.099,3.968,6.586,8.152H518.345z M525.525,256.686c-0.135-1.943-1.404-3.698-3.509-3.698c-2.132,0-3.59,1.62-3.671,3.698
			H525.525z"/>
		<path fill="#333333" d="M542.643,261.788c0,0.756,0.162,1.053,0.729,1.053h0.324c0.135,0,0.27-0.027,0.432-0.054v2.132
			c-0.459,0.162-1.431,0.351-1.943,0.351c-1.269,0-2.132-0.432-2.375-1.701c-1.215,1.188-3.185,1.701-4.832,1.701
			c-2.51,0-4.778-1.35-4.778-4.076c0-3.482,2.78-4.049,5.372-4.346c2.24-0.432,4.184-0.135,4.184-1.97c0-1.62-1.674-1.89-2.889-1.89
			c-1.728,0-2.942,0.702-3.077,2.213h-3.077c0.216-3.59,3.239-4.643,6.343-4.643c2.727,0,5.588,1.106,5.588,4.049V261.788z
			 M539.566,257.9c-0.945,0.621-2.402,0.594-3.779,0.837c-1.323,0.216-2.51,0.702-2.51,2.321c0,1.404,1.754,1.782,2.834,1.782
			c1.35,0,3.455-0.702,3.455-2.646V257.9z"/>
		<path fill="#333333" d="M548.289,260.411c0.189,1.809,1.512,2.43,3.158,2.43c1.188,0,3.185-0.243,3.104-1.835
			c-0.081-1.62-2.321-1.809-4.562-2.322c-2.268-0.486-4.481-1.295-4.481-4.13c0-3.05,3.293-3.995,5.831-3.995
			c2.861,0,5.479,1.161,5.831,4.292h-3.212c-0.297-1.484-1.458-1.862-2.834-1.862c-0.891,0-2.538,0.216-2.538,1.431
			c0,1.512,2.268,1.754,4.535,2.24c2.241,0.513,4.508,1.323,4.508,4.076c0,3.32-3.347,4.535-6.235,4.535
			c-3.536,0-6.1-1.565-6.181-4.859H548.289z"/>
		<path fill="#333333" d="M562.382,258.71c0,2.186,1.188,4.13,3.752,4.13c1.809,0,2.861-0.783,3.401-2.322h2.916
			c-0.648,3.05-3.293,4.751-6.316,4.751c-4.4,0-6.829-3.023-6.829-7.342c0-3.968,2.591-7.369,6.748-7.369
			c4.4,0,7.099,3.968,6.586,8.152H562.382z M569.562,256.686c-0.135-1.943-1.404-3.698-3.509-3.698c-2.132,0-3.59,1.62-3.671,3.698
			H569.562z"/>
		<path fill="#333333" d="M582.93,245.619h9.205c4.238,0,6.371,1.943,6.371,5.209c0,3.698-2.538,4.643-3.186,4.859v0.054
			c1.161,0.135,2.861,1.053,2.861,4.076c0,2.268,0.324,4.292,1.053,5.075h-3.617c-0.513-0.837-0.513-1.89-0.513-2.834
			c0-3.536-0.729-5.102-3.833-5.102h-4.966v7.936h-3.375V245.619z M586.304,254.392h5.533c2.16,0,3.293-1.026,3.293-3.077
			c0-2.483-1.592-2.942-3.347-2.942h-5.479V254.392z"/>
		<path fill="#333333" d="M603.908,258.71c0,2.186,1.188,4.13,3.752,4.13c1.809,0,2.861-0.783,3.401-2.322h2.916
			c-0.648,3.05-3.293,4.751-6.316,4.751c-4.4,0-6.829-3.023-6.829-7.342c0-3.968,2.591-7.369,6.748-7.369
			c4.4,0,7.099,3.968,6.586,8.152H603.908z M611.088,256.686c-0.135-1.943-1.404-3.698-3.509-3.698c-2.132,0-3.59,1.62-3.671,3.698
			H611.088z"/>
		<path fill="#333333" d="M628.206,261.788c0,0.756,0.162,1.053,0.729,1.053h0.324c0.135,0,0.27-0.027,0.432-0.054v2.132
			c-0.459,0.162-1.431,0.351-1.943,0.351c-1.269,0-2.132-0.432-2.375-1.701c-1.215,1.188-3.185,1.701-4.832,1.701
			c-2.51,0-4.778-1.35-4.778-4.076c0-3.482,2.78-4.049,5.372-4.346c2.24-0.432,4.184-0.135,4.184-1.97c0-1.62-1.674-1.89-2.889-1.89
			c-1.728,0-2.942,0.702-3.077,2.213h-3.077c0.216-3.59,3.239-4.643,6.343-4.643c2.727,0,5.588,1.106,5.588,4.049V261.788z
			 M625.129,257.9c-0.945,0.621-2.402,0.594-3.779,0.837c-1.323,0.216-2.51,0.702-2.51,2.321c0,1.404,1.754,1.782,2.834,1.782
			c1.35,0,3.455-0.702,3.455-2.646V257.9z"/>
		<path fill="#333333" d="M644.676,264.892h-2.916v-1.89h-0.054c-0.837,1.62-2.564,2.268-4.319,2.268c-4.4,0-6.532-3.266-6.532-7.45
			c0-5.075,2.996-7.261,6.046-7.261c1.728,0,3.698,0.647,4.643,2.186h0.054v-7.126h3.077V264.892z M637.792,262.84
			c2.727,0,3.914-2.511,3.914-4.94c0-3.104-1.485-4.913-3.86-4.913c-2.888,0-3.914,2.591-3.914,5.075
			C633.933,260.465,635.12,262.84,637.792,262.84z"/>
		<path fill="#333333" d="M648.108,245.619h3.077v2.916h-3.077V245.619z M648.108,250.937h3.077v13.955h-3.077V250.937z"/>
		<path fill="#333333" d="M654.534,250.937h2.915v2.051l0.054,0.054c0.945-1.539,2.51-2.483,4.346-2.483
			c3.05,0,4.94,1.592,4.94,4.75v9.583h-3.077v-8.772c-0.081-2.187-0.891-3.131-2.727-3.131c-2.051,0-3.374,1.62-3.374,3.671v8.233
			h-3.077V250.937z"/>
		<path fill="#333333" d="M672.434,258.71c0,2.186,1.188,4.13,3.752,4.13c1.809,0,2.861-0.783,3.401-2.322h2.916
			c-0.648,3.05-3.293,4.751-6.316,4.751c-4.4,0-6.829-3.023-6.829-7.342c0-3.968,2.591-7.369,6.748-7.369
			c4.4,0,7.099,3.968,6.586,8.152H672.434z M679.614,256.686c-0.135-1.943-1.404-3.698-3.509-3.698c-2.132,0-3.59,1.62-3.671,3.698
			H679.614z"/>
		<path fill="#333333" d="M687.365,260.411c0.189,1.809,1.512,2.43,3.158,2.43c1.188,0,3.185-0.243,3.104-1.835
			c-0.081-1.62-2.321-1.809-4.562-2.322c-2.268-0.486-4.481-1.295-4.481-4.13c0-3.05,3.293-3.995,5.831-3.995
			c2.861,0,5.479,1.161,5.831,4.292h-3.212c-0.297-1.484-1.458-1.862-2.834-1.862c-0.891,0-2.538,0.216-2.538,1.431
			c0,1.512,2.268,1.754,4.535,2.24c2.241,0.513,4.508,1.323,4.508,4.076c0,3.32-3.347,4.535-6.235,4.535
			c-3.536,0-6.1-1.565-6.181-4.859H687.365z"/>
		<path fill="#333333" d="M701.377,260.411c0.189,1.809,1.512,2.43,3.158,2.43c1.188,0,3.185-0.243,3.104-1.835
			c-0.081-1.62-2.321-1.809-4.562-2.322c-2.268-0.486-4.481-1.295-4.481-4.13c0-3.05,3.293-3.995,5.831-3.995
			c2.861,0,5.479,1.161,5.831,4.292h-3.212c-0.297-1.484-1.458-1.862-2.834-1.862c-0.891,0-2.538,0.216-2.538,1.431
			c0,1.512,2.268,1.754,4.535,2.24c2.241,0.513,4.508,1.323,4.508,4.076c0,3.32-3.347,4.535-6.235,4.535
			c-3.536,0-6.1-1.565-6.181-4.859H701.377z"/>
	</g>
</g>
<g>
	<g>
		<path fill="#333333" d="M878.164,245.619h7.99c5.938,0,8.502,4.319,8.502,9.637c0,5.317-2.564,9.636-8.502,9.636h-7.99V245.619z
			 M881.538,262.138h3.32c5.291,0,6.424-2.996,6.424-6.883c0-3.887-1.134-6.883-6.424-6.883h-3.32V262.138z"/>
		<path fill="#333333" d="M899.628,258.71c0,2.186,1.188,4.13,3.752,4.13c1.809,0,2.861-0.783,3.401-2.322h2.916
			c-0.648,3.05-3.293,4.751-6.316,4.751c-4.4,0-6.829-3.023-6.829-7.342c0-3.968,2.591-7.369,6.748-7.369
			c4.4,0,7.099,3.968,6.586,8.152H899.628z M906.808,256.686c-0.135-1.943-1.404-3.698-3.509-3.698c-2.132,0-3.59,1.62-3.671,3.698
			H906.808z"/>
		<path fill="#333333" d="M912.319,250.937h2.915v1.889h0.054c0.864-1.62,2.51-2.267,4.319-2.267c4.4,0,6.532,3.32,6.532,7.423
			c0,3.779-1.917,7.288-6.02,7.288c-1.782,0-3.725-0.648-4.67-2.187h-0.054v6.964h-3.077V250.937z M919.202,252.988
			c-2.591,0-3.914,1.943-3.914,4.939c0,2.808,1.431,4.913,3.914,4.913c2.808,0,3.86-2.483,3.86-4.913
			C923.062,255.417,921.739,252.988,919.202,252.988z"/>
		<path fill="#333333" d="M928.815,245.619h3.077v19.273h-3.077V245.619z"/>
		<path fill="#333333" d="M934.593,257.9c0-4.238,2.591-7.342,7.045-7.342c4.454,0,7.045,3.104,7.045,7.342
			c0,4.292-2.591,7.369-7.045,7.369C937.185,265.27,934.593,262.192,934.593,257.9z M945.606,257.9c0-2.402-1.215-4.913-3.968-4.913
			c-2.753,0-3.968,2.51-3.968,4.913c0,2.429,1.215,4.94,3.968,4.94C944.392,262.84,945.606,260.33,945.606,257.9z"/>
		<path fill="#333333" d="M949.713,250.937h3.374l3.644,10.419h0.054l3.536-10.419h3.212l-5.426,14.711
			c-0.999,2.51-1.7,4.778-4.939,4.778c-0.729,0-1.431-0.054-2.132-0.162v-2.591c0.513,0.081,0.944,0.189,1.458,0.189
			c1.403,0,1.809-0.756,2.159-1.943l0.351-1.08L949.713,250.937z"/>
		<path fill="#333333" d="M965.265,250.937h2.915v1.943h0.081c0.945-1.377,2.051-2.321,4.292-2.321c1.701,0,3.293,0.729,3.914,2.321
			c1.053-1.431,2.321-2.321,4.373-2.321c2.942,0,4.67,1.322,4.67,4.697v9.636h-3.077v-8.152c0-2.24-0.135-3.752-2.538-3.752
			c-2.078,0-2.969,1.35-2.969,3.725v8.179h-3.077v-8.961c0-1.944-0.594-2.942-2.456-2.942c-1.593,0-3.05,1.323-3.05,3.617v8.287
			h-3.077V250.937z"/>
		<path fill="#333333" d="M991.157,258.71c0,2.186,1.188,4.13,3.752,4.13c1.809,0,2.861-0.783,3.401-2.322h2.916
			c-0.648,3.05-3.293,4.751-6.316,4.751c-4.4,0-6.829-3.023-6.829-7.342c0-3.968,2.591-7.369,6.748-7.369
			c4.4,0,7.099,3.968,6.586,8.152H991.157z M998.337,256.686c-0.135-1.943-1.404-3.698-3.509-3.698c-2.132,0-3.59,1.62-3.671,3.698
			H998.337z"/>
		<path fill="#333333" d="M1003.767,250.937h2.915v2.051l0.054,0.054c0.945-1.539,2.51-2.483,4.346-2.483
			c3.05,0,4.94,1.592,4.94,4.75v9.583h-3.077v-8.772c-0.081-2.187-0.891-3.131-2.727-3.131c-2.051,0-3.374,1.62-3.374,3.671v8.233
			h-3.077V250.937z"/>
		<path fill="#333333" d="M1017.86,250.937h2.321v-4.184h3.077v4.184h2.78v2.294h-2.78v7.45c0,1.269,0.108,1.917,1.485,1.917
			c0.432,0,0.864,0,1.295-0.108v2.375c-0.675,0.081-1.322,0.162-1.997,0.162c-3.239,0-3.779-1.242-3.86-3.563v-8.233h-2.321V250.937
			z"/>
	</g>
</g>
<g>
	<g>
		<path fill="#333333" d="M1270.844,232.494h3.509l4.832,15.251h0.054l4.939-15.251h3.428l-6.586,19.273h-3.752L1270.844,232.494z"
			/>
		<path fill="#333333" d="M1290.012,245.585c0,2.186,1.188,4.13,3.752,4.13c1.809,0,2.861-0.783,3.401-2.322h2.915
			c-0.647,3.05-3.293,4.751-6.316,4.751c-4.399,0-6.828-3.023-6.828-7.342c0-3.968,2.591-7.369,6.748-7.369
			c4.399,0,7.099,3.968,6.586,8.152H1290.012z M1297.192,243.561c-0.136-1.943-1.403-3.698-3.509-3.698
			c-2.133,0-3.59,1.62-3.672,3.698H1297.192z"/>
		<path fill="#333333" d="M1302.622,237.812h2.888v2.699h0.055c0.351-1.485,2.213-3.077,4.076-3.077c0.729,0,0.863,0.054,1.16,0.081
			v2.969c-0.432-0.081-0.891-0.135-1.322-0.135c-2.078,0-3.779,1.673-3.779,4.778v6.64h-3.077V237.812z"/>
		<path fill="#333333" d="M1312.207,232.494h3.077v2.916h-3.077V232.494z M1312.207,237.812h3.077v13.955h-3.077V237.812z"/>
		<path fill="#333333" d="M1317.256,237.812h2.295v-1.161c0-3.563,1.862-4.157,3.859-4.157c0.999,0,1.701,0.054,2.16,0.189v2.402
			c-0.405-0.108-0.811-0.162-1.432-0.162c-0.836,0-1.511,0.297-1.511,1.458v1.431h2.618v2.294h-2.618v11.661h-3.077v-11.661h-2.295
			V237.812z M1327.217,232.494h3.076v2.916h-3.076V232.494z M1327.217,237.812h3.076v13.955h-3.076V237.812z"/>
		<path fill="#333333" d="M1343.065,242.481c-0.243-1.728-1.458-2.618-3.185-2.618c-1.594,0-3.834,0.864-3.834,5.075
			c0,2.321,1.026,4.778,3.698,4.778c1.809,0,3.023-1.161,3.32-3.186h3.077c-0.566,3.644-2.807,5.615-6.397,5.615
			c-4.372,0-6.774-3.104-6.774-7.207c0-4.211,2.294-7.504,6.883-7.504c3.238,0,5.992,1.62,6.289,5.047H1343.065z"/>
		<path fill="#333333" d="M1360.346,248.663c0,0.756,0.161,1.053,0.729,1.053h0.324c0.135,0,0.27-0.027,0.432-0.054v2.132
			c-0.459,0.162-1.432,0.351-1.943,0.351c-1.27,0-2.133-0.432-2.376-1.701c-1.215,1.188-3.185,1.701-4.831,1.701
			c-2.511,0-4.778-1.35-4.778-4.076c0-3.482,2.78-4.049,5.372-4.346c2.24-0.432,4.184-0.135,4.184-1.97
			c0-1.62-1.674-1.89-2.889-1.89c-1.728,0-2.941,0.702-3.077,2.213h-3.077c0.217-3.59,3.239-4.643,6.344-4.643
			c2.727,0,5.588,1.106,5.588,4.049V248.663z M1357.268,244.775c-0.944,0.621-2.402,0.594-3.779,0.837
			c-1.322,0.216-2.51,0.702-2.51,2.321c0,1.404,1.754,1.782,2.834,1.782c1.35,0,3.455-0.702,3.455-2.646V244.775z"/>
		<path fill="#333333" d="M1362.266,237.812h2.321v-4.184h3.077v4.184h2.78v2.294h-2.78v7.45c0,1.269,0.108,1.917,1.484,1.917
			c0.432,0,0.864,0,1.296-0.108v2.375c-0.675,0.081-1.322,0.162-1.997,0.162c-3.239,0-3.779-1.242-3.86-3.563v-8.233h-2.321V237.812
			z"/>
		<path fill="#333333" d="M1372.741,232.494h3.077v2.916h-3.077V232.494z M1372.741,237.812h3.077v13.955h-3.077V237.812z"/>
		<path fill="#333333" d="M1378.52,244.775c0-4.238,2.591-7.342,7.045-7.342c4.453,0,7.045,3.104,7.045,7.342
			c0,4.292-2.592,7.369-7.045,7.369C1381.11,252.145,1378.52,249.067,1378.52,244.775z M1389.532,244.775
			c0-2.402-1.215-4.913-3.968-4.913c-2.754,0-3.969,2.51-3.969,4.913c0,2.429,1.215,4.94,3.969,4.94
			C1388.317,249.715,1389.532,247.205,1389.532,244.775z"/>
		<path fill="#333333" d="M1395.178,237.812h2.915v2.051l0.054,0.054c0.945-1.539,2.511-2.483,4.346-2.483
			c3.051,0,4.94,1.592,4.94,4.75v9.583h-3.077v-8.772c-0.081-2.187-0.891-3.131-2.727-3.131c-2.051,0-3.374,1.62-3.374,3.671v8.233
			h-3.077V237.812z"/>
		<path fill="#333333" d="M1429.869,248.663c0,0.756,0.162,1.053,0.729,1.053h0.324c0.135,0,0.27-0.027,0.432-0.054v2.132
			c-0.459,0.162-1.431,0.351-1.943,0.351c-1.269,0-2.133-0.432-2.375-1.701c-1.215,1.188-3.186,1.701-4.832,1.701
			c-2.51,0-4.777-1.35-4.777-4.076c0-3.482,2.779-4.049,5.371-4.346c2.24-0.432,4.184-0.135,4.184-1.97
			c0-1.62-1.674-1.89-2.889-1.89c-1.727,0-2.941,0.702-3.076,2.213h-3.078c0.217-3.59,3.24-4.643,6.344-4.643
			c2.727,0,5.588,1.106,5.588,4.049V248.663z M1426.792,244.775c-0.944,0.621-2.402,0.594-3.779,0.837
			c-1.323,0.216-2.511,0.702-2.511,2.321c0,1.404,1.755,1.782,2.835,1.782c1.35,0,3.455-0.702,3.455-2.646V244.775z"/>
		<path fill="#333333" d="M1433.193,237.812h2.915v2.051l0.054,0.054c0.945-1.539,2.511-2.483,4.346-2.483
			c3.051,0,4.94,1.592,4.94,4.75v9.583h-3.077v-8.772c-0.081-2.187-0.891-3.131-2.727-3.131c-2.051,0-3.374,1.62-3.374,3.671v8.233
			h-3.077V237.812z"/>
		<path fill="#333333" d="M1461.836,251.767h-2.915v-1.89h-0.054c-0.837,1.62-2.564,2.268-4.318,2.268
			c-4.4,0-6.533-3.266-6.533-7.45c0-5.075,2.996-7.261,6.047-7.261c1.728,0,3.697,0.647,4.643,2.186h0.055v-7.126h3.076V251.767z
			 M1454.953,249.715c2.727,0,3.914-2.511,3.914-4.94c0-3.104-1.484-4.913-3.859-4.913c-2.889,0-3.914,2.591-3.914,5.075
			C1451.094,247.34,1452.281,249.715,1454.953,249.715z"/>
		<path fill="#333333" d="M1270.844,264.894h3.509l4.832,15.251h0.054l4.939-15.251h3.428l-6.586,19.273h-3.752L1270.844,264.894z"
			/>
		<path fill="#333333" d="M1299.298,281.062c0,0.756,0.161,1.053,0.729,1.053h0.324c0.135,0,0.27-0.027,0.432-0.054v2.132
			c-0.459,0.162-1.431,0.351-1.943,0.351c-1.269,0-2.132-0.432-2.376-1.701c-1.215,1.188-3.185,1.701-4.831,1.701
			c-2.511,0-4.778-1.35-4.778-4.076c0-3.482,2.781-4.049,5.372-4.346c2.24-0.432,4.185-0.135,4.185-1.97
			c0-1.62-1.674-1.89-2.889-1.89c-1.729,0-2.942,0.702-3.078,2.213h-3.076c0.216-3.59,3.238-4.643,6.343-4.643
			c2.727,0,5.588,1.106,5.588,4.049V281.062z M1296.221,277.175c-0.945,0.621-2.402,0.594-3.779,0.837
			c-1.322,0.216-2.51,0.702-2.51,2.321c0,1.404,1.754,1.782,2.834,1.782c1.35,0,3.455-0.702,3.455-2.646V277.175z"/>
		<path fill="#333333" d="M1302.703,264.894h3.077v19.273h-3.077V264.894z"/>
		<path fill="#333333" d="M1309.21,264.894h3.077v2.916h-3.077V264.894z M1309.21,270.211h3.077v13.955h-3.077V270.211z"/>
		<path fill="#333333" d="M1328.781,284.167h-2.916v-1.89h-0.053c-0.838,1.62-2.564,2.268-4.319,2.268
			c-4.399,0-6.532-3.266-6.532-7.45c0-5.075,2.996-7.261,6.047-7.261c1.727,0,3.697,0.647,4.643,2.186h0.054v-7.126h3.077V284.167z
			 M1321.898,282.115c2.727,0,3.914-2.511,3.914-4.94c0-3.104-1.485-4.913-3.86-4.913c-2.888,0-3.914,2.591-3.914,5.075
			C1318.038,279.74,1319.226,282.115,1321.898,282.115z"/>
		<path fill="#333333" d="M1343.82,281.062c0,0.756,0.162,1.053,0.729,1.053h0.324c0.135,0,0.27-0.027,0.432-0.054v2.132
			c-0.459,0.162-1.431,0.351-1.943,0.351c-1.269,0-2.133-0.432-2.375-1.701c-1.215,1.188-3.186,1.701-4.832,1.701
			c-2.51,0-4.777-1.35-4.777-4.076c0-3.482,2.779-4.049,5.371-4.346c2.24-0.432,4.184-0.135,4.184-1.97
			c0-1.62-1.674-1.89-2.889-1.89c-1.727,0-2.941,0.702-3.076,2.213h-3.078c0.217-3.59,3.24-4.643,6.344-4.643
			c2.727,0,5.588,1.106,5.588,4.049V281.062z M1340.743,277.175c-0.944,0.621-2.402,0.594-3.779,0.837
			c-1.323,0.216-2.511,0.702-2.511,2.321c0,1.404,1.755,1.782,2.835,1.782c1.35,0,3.455-0.702,3.455-2.646V277.175z"/>
		<path fill="#333333" d="M1345.74,270.211h2.322v-4.184h3.077v4.184h2.78v2.294h-2.78v7.45c0,1.269,0.108,1.917,1.484,1.917
			c0.432,0,0.864,0,1.296-0.108v2.375c-0.676,0.081-1.322,0.162-1.998,0.162c-3.238,0-3.779-1.242-3.859-3.563v-8.232h-2.322
			V270.211z"/>
		<path fill="#333333" d="M1356.217,264.894h3.076v2.916h-3.076V264.894z M1356.217,270.211h3.076v13.955h-3.076V270.211z"/>
		<path fill="#333333" d="M1361.994,277.175c0-4.238,2.592-7.342,7.045-7.342c4.454,0,7.045,3.104,7.045,7.342
			c0,4.292-2.591,7.369-7.045,7.369C1364.586,284.544,1361.994,281.467,1361.994,277.175z M1373.008,277.175
			c0-2.402-1.215-4.913-3.969-4.913c-2.753,0-3.968,2.51-3.968,4.913c0,2.429,1.215,4.94,3.968,4.94
			C1371.793,282.115,1373.008,279.604,1373.008,277.175z"/>
		<path fill="#333333" d="M1378.652,270.211h2.916v2.051l0.054,0.054c0.944-1.539,2.511-2.483,4.346-2.483
			c3.05,0,4.94,1.592,4.94,4.75v9.583h-3.078v-8.772c-0.08-2.187-0.891-3.131-2.727-3.131c-2.051,0-3.373,1.62-3.373,3.671v8.233
			h-3.078V270.211z"/>
		<path fill="#333333" d="M1400.252,264.894h15.603v2.916h-6.128v16.357h-3.373v-16.357h-6.102V264.894z"/>
		<path fill="#333333" d="M1417.072,277.985c0,2.186,1.188,4.13,3.752,4.13c1.809,0,2.861-0.783,3.401-2.322h2.915
			c-0.647,3.05-3.293,4.751-6.316,4.751c-4.399,0-6.828-3.023-6.828-7.342c0-3.968,2.591-7.369,6.748-7.369
			c4.399,0,7.099,3.968,6.586,8.152H1417.072z M1424.253,275.961c-0.136-1.944-1.403-3.698-3.509-3.698
			c-2.133,0-3.59,1.62-3.672,3.698H1424.253z"/>
		<path fill="#333333" d="M1432.004,279.686c0.189,1.809,1.512,2.43,3.158,2.43c1.188,0,3.186-0.243,3.104-1.836
			c-0.08-1.619-2.32-1.808-4.561-2.321c-2.268-0.486-4.481-1.295-4.481-4.13c0-3.05,3.293-3.995,5.831-3.995
			c2.861,0,5.479,1.161,5.83,4.292h-3.213c-0.297-1.484-1.457-1.862-2.834-1.862c-0.891,0-2.537,0.216-2.537,1.431
			c0,1.512,2.268,1.754,4.535,2.24c2.24,0.513,4.508,1.323,4.508,4.076c0,3.32-3.348,4.535-6.236,4.535
			c-3.535,0-6.1-1.565-6.181-4.859H1432.004z"/>
		<path fill="#333333" d="M1442.291,270.211h2.322v-4.184h3.077v4.184h2.78v2.294h-2.78v7.45c0,1.269,0.108,1.917,1.484,1.917
			c0.432,0,0.864,0,1.296-0.108v2.375c-0.676,0.081-1.322,0.162-1.998,0.162c-3.238,0-3.779-1.242-3.859-3.563v-8.232h-2.322
			V270.211z"/>
		<path fill="#333333" d="M1455.008,279.686c0.188,1.809,1.512,2.43,3.158,2.43c1.188,0,3.185-0.243,3.104-1.836
			c-0.081-1.619-2.321-1.808-4.562-2.321c-2.268-0.486-4.481-1.295-4.481-4.13c0-3.05,3.293-3.995,5.831-3.995
			c2.861,0,5.479,1.161,5.831,4.292h-3.213c-0.297-1.484-1.457-1.862-2.834-1.862c-0.891,0-2.537,0.216-2.537,1.431
			c0,1.512,2.268,1.754,4.534,2.24c2.241,0.513,4.508,1.323,4.508,4.076c0,3.32-3.347,4.535-6.235,4.535
			c-3.535,0-6.1-1.565-6.182-4.859H1455.008z"/>
	</g>
</g>
<g>
	<g>
		<path fill="#333333" d="M1682.795,245.619h7.99c5.938,0,8.503,4.319,8.503,9.637c0,5.317-2.564,9.636-8.503,9.636h-7.99V245.619z
			 M1686.17,262.138h3.32c5.29,0,6.424-2.996,6.424-6.883c0-3.887-1.134-6.883-6.424-6.883h-3.32V262.138z"/>
		<path fill="#333333" d="M1704.26,258.71c0,2.186,1.188,4.13,3.752,4.13c1.809,0,2.861-0.783,3.4-2.322h2.916
			c-0.648,3.05-3.293,4.751-6.316,4.751c-4.4,0-6.829-3.023-6.829-7.342c0-3.968,2.591-7.369,6.748-7.369
			c4.399,0,7.099,3.968,6.587,8.152H1704.26z M1711.439,256.686c-0.135-1.943-1.403-3.698-3.509-3.698
			c-2.132,0-3.59,1.62-3.671,3.698H1711.439z"/>
		<path fill="#333333" d="M1716.951,250.937h2.914v1.889h0.055c0.863-1.62,2.51-2.267,4.318-2.267c4.4,0,6.533,3.32,6.533,7.423
			c0,3.779-1.917,7.288-6.02,7.288c-1.782,0-3.726-0.648-4.67-2.187h-0.055v6.964h-3.076V250.937z M1723.834,252.988
			c-2.592,0-3.914,1.943-3.914,4.939c0,2.808,1.431,4.913,3.914,4.913c2.807,0,3.859-2.483,3.859-4.913
			C1727.693,255.417,1726.371,252.988,1723.834,252.988z"/>
		<path fill="#333333" d="M1733.447,245.619h3.077v19.273h-3.077V245.619z"/>
		<path fill="#333333" d="M1739.225,257.9c0-4.238,2.592-7.342,7.046-7.342s7.045,3.104,7.045,7.342
			c0,4.292-2.591,7.369-7.045,7.369S1739.225,262.192,1739.225,257.9z M1750.238,257.9c0-2.402-1.215-4.913-3.968-4.913
			s-3.968,2.51-3.968,4.913c0,2.429,1.215,4.94,3.968,4.94S1750.238,260.33,1750.238,257.9z"/>
		<path fill="#333333" d="M1754.346,250.937h3.373l3.645,10.419h0.055l3.535-10.419h3.213l-5.426,14.711
			c-0.999,2.51-1.701,4.778-4.939,4.778c-0.729,0-1.432-0.054-2.133-0.162v-2.591c0.513,0.081,0.944,0.189,1.457,0.189
			c1.404,0,1.809-0.756,2.16-1.943l0.351-1.08L1754.346,250.937z"/>
		<path fill="#333333" d="M1775.998,250.937h2.322v-4.184h3.077v4.184h2.78v2.294h-2.78v7.45c0,1.269,0.108,1.917,1.484,1.917
			c0.432,0,0.864,0,1.296-0.108v2.375c-0.676,0.081-1.322,0.162-1.998,0.162c-3.238,0-3.779-1.242-3.859-3.563v-8.233h-2.322
			V250.937z"/>
		<path fill="#333333" d="M1785.745,257.9c0-4.238,2.591-7.342,7.046-7.342c4.453,0,7.045,3.104,7.045,7.342
			c0,4.292-2.592,7.369-7.045,7.369C1788.336,265.27,1785.745,262.192,1785.745,257.9z M1796.758,257.9
			c0-2.402-1.215-4.913-3.967-4.913c-2.754,0-3.969,2.51-3.969,4.913c0,2.429,1.215,4.94,3.969,4.94
			C1795.543,262.84,1796.758,260.33,1796.758,257.9z"/>
		<path fill="#333333" d="M1808.506,245.619h15.602v2.916h-6.127v16.357h-3.374v-16.357h-6.101V245.619z"/>
		<path fill="#333333" d="M1825.326,258.71c0,2.186,1.188,4.13,3.752,4.13c1.809,0,2.861-0.783,3.4-2.322h2.916
			c-0.648,3.05-3.293,4.751-6.316,4.751c-4.4,0-6.829-3.023-6.829-7.342c0-3.968,2.591-7.369,6.748-7.369
			c4.399,0,7.099,3.968,6.587,8.152H1825.326z M1832.506,256.686c-0.135-1.943-1.403-3.698-3.509-3.698
			c-2.132,0-3.59,1.62-3.671,3.698H1832.506z"/>
		<path fill="#333333" d="M1840.258,260.411c0.188,1.809,1.512,2.43,3.158,2.43c1.188,0,3.185-0.243,3.104-1.835
			c-0.081-1.62-2.321-1.809-4.562-2.322c-2.268-0.486-4.481-1.295-4.481-4.13c0-3.05,3.293-3.995,5.831-3.995
			c2.861,0,5.479,1.161,5.831,4.292h-3.213c-0.297-1.484-1.457-1.862-2.834-1.862c-0.891,0-2.537,0.216-2.537,1.431
			c0,1.512,2.268,1.754,4.534,2.24c2.241,0.513,4.508,1.323,4.508,4.076c0,3.32-3.347,4.535-6.235,4.535
			c-3.535,0-6.1-1.565-6.182-4.859H1840.258z"/>
		<path fill="#333333" d="M1850.545,250.937h2.321v-4.184h3.077v4.184h2.78v2.294h-2.78v7.45c0,1.269,0.108,1.917,1.484,1.917
			c0.432,0,0.864,0,1.296-0.108v2.375c-0.675,0.081-1.322,0.162-1.997,0.162c-3.239,0-3.779-1.242-3.86-3.563v-8.233h-2.321V250.937
			z"/>
		<path fill="#333333" d="M1871.09,258.467c0,2.942,2.188,4.13,4.887,4.13c2.969,0,4.076-1.484,4.076-2.915
			c0-1.485-0.811-2.079-1.594-2.375c-1.376-0.513-3.076-0.864-5.749-1.593c-3.319-0.864-4.265-2.888-4.265-4.886
			c0-3.887,3.562-5.668,7.045-5.668c3.995,0,7.396,2.133,7.396,6.155h-3.375c-0.188-2.483-1.809-3.401-4.156-3.401
			c-1.565,0-3.536,0.567-3.536,2.51c0,1.377,0.918,2.079,2.294,2.483c0.297,0.081,4.562,1.188,5.561,1.485
			c2.511,0.783,3.752,2.861,3.752,4.913c0,4.319-3.859,6.046-7.666,6.046c-4.399,0-7.963-2.105-8.043-6.883H1871.09z"/>
		<path fill="#333333" d="M1884.402,250.937h3.375l3.644,10.419h0.054l3.536-10.419h3.212l-5.426,14.711
			c-0.998,2.51-1.699,4.778-4.939,4.778c-0.729,0-1.43-0.054-2.132-0.162v-2.591c0.513,0.081,0.944,0.189,1.458,0.189
			c1.402,0,1.809-0.756,2.158-1.943l0.352-1.08L1884.402,250.937z"/>
		<path fill="#333333" d="M1902.275,260.411c0.189,1.809,1.512,2.43,3.158,2.43c1.188,0,3.186-0.243,3.104-1.835
			c-0.08-1.62-2.32-1.809-4.561-2.322c-2.268-0.486-4.481-1.295-4.481-4.13c0-3.05,3.293-3.995,5.831-3.995
			c2.861,0,5.479,1.161,5.83,4.292h-3.213c-0.297-1.484-1.457-1.862-2.834-1.862c-0.891,0-2.537,0.216-2.537,1.431
			c0,1.512,2.268,1.754,4.535,2.24c2.24,0.513,4.508,1.323,4.508,4.076c0,3.32-3.348,4.535-6.236,4.535
			c-3.535,0-6.1-1.565-6.181-4.859H1902.275z"/>
		<path fill="#333333" d="M1912.562,250.937h2.322v-4.184h3.077v4.184h2.78v2.294h-2.78v7.45c0,1.269,0.108,1.917,1.484,1.917
			c0.432,0,0.864,0,1.296-0.108v2.375c-0.676,0.081-1.322,0.162-1.998,0.162c-3.238,0-3.779-1.242-3.859-3.563v-8.233h-2.322
			V250.937z"/>
		<path fill="#333333" d="M1925.359,258.71c0,2.186,1.188,4.13,3.752,4.13c1.809,0,2.861-0.783,3.401-2.322h2.915
			c-0.647,3.05-3.293,4.751-6.316,4.751c-4.399,0-6.828-3.023-6.828-7.342c0-3.968,2.591-7.369,6.748-7.369
			c4.399,0,7.099,3.968,6.586,8.152H1925.359z M1932.54,256.686c-0.136-1.943-1.403-3.698-3.509-3.698
			c-2.133,0-3.59,1.62-3.672,3.698H1932.54z"/>
		<path fill="#333333" d="M1937.97,250.937h2.915v1.943h0.081c0.944-1.377,2.052-2.321,4.292-2.321c1.701,0,3.293,0.729,3.914,2.321
			c1.053-1.431,2.321-2.321,4.373-2.321c2.941,0,4.67,1.322,4.67,4.697v9.636h-3.078v-8.152c0-2.24-0.135-3.752-2.537-3.752
			c-2.078,0-2.969,1.35-2.969,3.725v8.179h-3.078v-8.961c0-1.944-0.594-2.942-2.455-2.942c-1.594,0-3.051,1.323-3.051,3.617v8.287
			h-3.077V250.937z"/>
		<path fill="#333333" d="M1963.781,260.411c0.188,1.809,1.512,2.43,3.158,2.43c1.188,0,3.185-0.243,3.104-1.835
			c-0.081-1.62-2.321-1.809-4.562-2.322c-2.268-0.486-4.481-1.295-4.481-4.13c0-3.05,3.293-3.995,5.831-3.995
			c2.861,0,5.479,1.161,5.831,4.292h-3.213c-0.297-1.484-1.457-1.862-2.834-1.862c-0.891,0-2.537,0.216-2.537,1.431
			c0,1.512,2.268,1.754,4.534,2.24c2.241,0.513,4.508,1.323,4.508,4.076c0,3.32-3.347,4.535-6.235,4.535
			c-3.535,0-6.1-1.565-6.182-4.859H1963.781z"/>
	</g>
</g>
<g>
	<path fill="#1695A4" d="M829.427,117.708c-0.281-0.28-0.614-0.421-0.999-0.421c-0.384,0-0.716,0.141-0.998,0.421l-2.884,2.861
		c-1.582-1.493-3.394-2.651-5.435-3.471c-2.04-0.82-4.14-1.231-6.299-1.231c-4.068,0-7.616,1.231-10.648,3.693
		c-3.031,2.462-5.028,5.675-5.989,9.639v0.156c0,0.191,0.07,0.357,0.211,0.498c0.14,0.141,0.307,0.21,0.499,0.21h4.414
		c0.325,0,0.547-0.17,0.666-0.509c0.621-1.48,1.012-2.344,1.175-2.596c1.036-1.687,2.412-3.01,4.127-3.97
		c1.715-0.962,3.564-1.443,5.545-1.443c2.973,0,5.552,1.014,7.742,3.04l-3.062,3.062c-0.28,0.28-0.421,0.612-0.421,0.998
		c0,0.384,0.141,0.717,0.421,0.997c0.281,0.282,0.614,0.422,0.999,0.422h9.938c0.384,0,0.718-0.14,0.999-0.422
		c0.281-0.28,0.422-0.613,0.422-0.997v-9.938C829.849,118.321,829.709,117.989,829.427,117.708L829.427,117.708z M829.427,117.708"
		/>
	<path fill="#1695A4" d="M828.584,135.743h-4.26c-0.325,0-0.547,0.17-0.665,0.51c-0.621,1.478-1.013,2.344-1.176,2.596
		c-1.035,1.686-2.411,3.009-4.125,3.97c-1.716,0.961-3.564,1.442-5.545,1.442c-1.434,0-2.818-0.267-4.149-0.798
		c-1.331-0.532-2.521-1.287-3.571-2.264l3.04-3.038c0.28-0.282,0.421-0.614,0.421-0.998s-0.141-0.718-0.421-0.999
		c-0.281-0.281-0.614-0.421-0.999-0.421h-9.937c-0.385,0-0.719,0.14-1,0.421c-0.28,0.281-0.421,0.615-0.421,0.999v9.938
		c0,0.384,0.141,0.718,0.421,0.999c0.282,0.28,0.615,0.421,1,0.421c0.383,0,0.716-0.141,0.998-0.421l2.861-2.863
		c1.583,1.509,3.383,2.67,5.401,3.483c2.02,0.814,4.108,1.219,6.268,1.219c4.052,0,7.587-1.23,10.603-3.694
		c3.017-2.461,4.998-5.673,5.945-9.637c0.015-0.029,0.021-0.082,0.021-0.155c0-0.193-0.07-0.359-0.211-0.499
		C828.943,135.813,828.775,135.743,828.584,135.743L828.584,135.743z M828.584,135.743"/>
</g>
<g>
	<path fill="#1695A4" d="M1240.469,142.621c-0.281-0.28-0.615-0.421-0.999-0.421s-0.716,0.141-0.998,0.421l-2.884,2.861
		c-1.582-1.493-3.395-2.651-5.435-3.471c-2.04-0.82-4.14-1.231-6.3-1.231c-4.067,0-7.615,1.231-10.648,3.693
		c-3.031,2.462-5.027,5.675-5.988,9.639v0.156c0,0.191,0.07,0.357,0.211,0.498c0.14,0.141,0.307,0.21,0.499,0.21h4.414
		c0.325,0,0.547-0.17,0.665-0.509c0.621-1.48,1.013-2.344,1.176-2.596c1.035-1.687,2.412-3.01,4.127-3.97
		c1.715-0.962,3.563-1.443,5.545-1.443c2.973,0,5.553,1.014,7.742,3.04l-3.062,3.062c-0.279,0.28-0.42,0.612-0.42,0.998
		c0,0.384,0.141,0.717,0.42,0.997c0.281,0.282,0.615,0.422,0.999,0.422h9.938c0.384,0,0.718-0.14,0.999-0.422
		c0.28-0.28,0.422-0.613,0.422-0.997v-9.938C1240.891,143.234,1240.75,142.901,1240.469,142.621L1240.469,142.621z
		 M1240.469,142.621"/>
	<path fill="#1695A4" d="M1239.625,160.655h-4.26c-0.324,0-0.547,0.17-0.664,0.51c-0.621,1.478-1.014,2.344-1.176,2.596
		c-1.035,1.686-2.411,3.009-4.126,3.97c-1.716,0.961-3.564,1.442-5.546,1.442c-1.434,0-2.818-0.267-4.148-0.798
		c-1.331-0.532-2.521-1.287-3.57-2.264l3.039-3.038c0.28-0.282,0.421-0.614,0.421-0.998s-0.141-0.718-0.421-0.999
		c-0.281-0.281-0.614-0.421-0.999-0.421h-9.937c-0.385,0-0.719,0.14-1,0.421c-0.28,0.281-0.421,0.615-0.421,0.999v9.938
		c0,0.384,0.141,0.718,0.421,0.999c0.282,0.28,0.615,0.421,1,0.421c0.383,0,0.716-0.141,0.997-0.421l2.861-2.863
		c1.583,1.509,3.384,2.67,5.401,3.483c2.02,0.814,4.108,1.219,6.268,1.219c4.052,0,7.587-1.23,10.604-3.694
		c3.016-2.461,4.997-5.673,5.945-9.637c0.014-0.029,0.021-0.082,0.021-0.155c0-0.193-0.07-0.359-0.212-0.499
		C1239.984,160.726,1239.816,160.655,1239.625,160.655L1239.625,160.655z M1239.625,160.655"/>
</g>
<g>
	<path fill="#1695A4" d="M1641.151,142.621c-0.281-0.28-0.615-0.421-0.999-0.421s-0.716,0.141-0.998,0.421l-2.884,2.861
		c-1.582-1.493-3.395-2.651-5.435-3.471c-2.04-0.82-4.14-1.231-6.3-1.231c-4.067,0-7.615,1.231-10.648,3.693
		c-3.031,2.462-5.027,5.675-5.988,9.639v0.156c0,0.191,0.07,0.357,0.211,0.498c0.14,0.141,0.307,0.21,0.499,0.21h4.414
		c0.325,0,0.547-0.17,0.665-0.509c0.621-1.48,1.013-2.344,1.176-2.596c1.035-1.687,2.412-3.01,4.127-3.97
		c1.715-0.962,3.563-1.443,5.545-1.443c2.973,0,5.553,1.014,7.742,3.04l-3.062,3.062c-0.279,0.28-0.42,0.612-0.42,0.998
		c0,0.384,0.141,0.717,0.42,0.997c0.281,0.282,0.615,0.422,0.999,0.422h9.938c0.384,0,0.718-0.14,0.999-0.422
		c0.28-0.28,0.422-0.613,0.422-0.997v-9.938C1641.573,143.234,1641.433,142.901,1641.151,142.621L1641.151,142.621z
		 M1641.151,142.621"/>
	<path fill="#1695A4" d="M1640.308,160.655h-4.26c-0.324,0-0.547,0.17-0.664,0.51c-0.621,1.478-1.014,2.344-1.176,2.596
		c-1.035,1.686-2.411,3.009-4.126,3.97c-1.716,0.961-3.564,1.442-5.546,1.442c-1.434,0-2.818-0.267-4.148-0.798
		c-1.331-0.532-2.521-1.287-3.57-2.264l3.039-3.038c0.28-0.282,0.421-0.614,0.421-0.998s-0.141-0.718-0.421-0.999
		c-0.281-0.281-0.614-0.421-0.999-0.421h-9.937c-0.385,0-0.719,0.14-1,0.421c-0.28,0.281-0.421,0.615-0.421,0.999v9.938
		c0,0.384,0.141,0.718,0.421,0.999c0.282,0.28,0.615,0.421,1,0.421c0.383,0,0.716-0.141,0.997-0.421l2.861-2.863
		c1.583,1.509,3.384,2.67,5.401,3.483c2.02,0.814,4.108,1.219,6.268,1.219c4.052,0,7.587-1.23,10.604-3.694
		c3.016-2.461,4.997-5.673,5.945-9.637c0.014-0.029,0.021-0.082,0.021-0.155c0-0.193-0.07-0.359-0.212-0.499
		C1640.667,160.726,1640.499,160.655,1640.308,160.655L1640.308,160.655z M1640.308,160.655"/>
</g>
<g>
	<path fill="#1695A4" d="M1647.312,12.082c-0.179-0.178-0.391-0.267-0.634-0.267s-0.454,0.089-0.633,0.267l-1.828,1.814
		c-1.004-0.947-2.153-1.681-3.446-2.201c-1.294-0.52-2.625-0.781-3.995-0.781c-2.579,0-4.829,0.781-6.752,2.342
		c-1.922,1.562-3.188,3.599-3.798,6.112v0.099c0,0.121,0.045,0.227,0.134,0.316s0.195,0.133,0.316,0.133h2.799
		c0.207,0,0.348-0.108,0.422-0.323c0.395-0.938,0.643-1.487,0.746-1.646c0.656-1.07,1.529-1.909,2.617-2.518
		c1.087-0.61,2.26-0.916,3.516-0.916c1.885,0,3.521,0.643,4.909,1.928l-1.941,1.941c-0.178,0.178-0.267,0.389-0.267,0.633
		s0.089,0.455,0.267,0.632c0.178,0.179,0.39,0.268,0.634,0.268h6.301c0.243,0,0.455-0.089,0.634-0.268
		c0.178-0.178,0.268-0.388,0.268-0.632v-6.302C1647.579,12.471,1647.49,12.26,1647.312,12.082L1647.312,12.082z M1647.312,12.082"/>
	<path fill="#1695A4" d="M1646.776,23.518h-2.701c-0.206,0-0.347,0.108-0.421,0.323c-0.395,0.938-0.643,1.487-0.746,1.646
		c-0.656,1.069-1.528,1.908-2.616,2.518s-2.26,0.915-3.517,0.915c-0.909,0-1.787-0.169-2.631-0.506
		c-0.844-0.337-1.599-0.816-2.264-1.436l1.928-1.926c0.177-0.179,0.267-0.389,0.267-0.633s-0.09-0.456-0.267-0.634
		c-0.179-0.178-0.39-0.267-0.634-0.267h-6.301c-0.244,0-0.456,0.088-0.635,0.267c-0.178,0.178-0.267,0.39-0.267,0.634v6.301
		c0,0.244,0.089,0.455,0.267,0.633c0.179,0.178,0.391,0.267,0.635,0.267c0.242,0,0.454-0.089,0.632-0.267l1.814-1.815
		c1.004,0.957,2.146,1.693,3.425,2.209c1.281,0.516,2.605,0.773,3.975,0.773c2.569,0,4.812-0.78,6.724-2.342
		c1.912-1.561,3.169-3.598,3.771-6.111c0.009-0.018,0.014-0.052,0.014-0.098c0-0.123-0.045-0.228-0.135-0.316
		C1647.004,23.562,1646.897,23.518,1646.776,23.518L1646.776,23.518z M1646.776,23.518"/>
</g>
<g>
	<path fill="#1695A4" d="M1641.151,243.546c-0.281-0.28-0.615-0.421-0.999-0.421s-0.716,0.141-0.998,0.421l-2.884,2.861
		c-1.582-1.493-3.395-2.651-5.435-3.471c-2.04-0.82-4.14-1.231-6.3-1.231c-4.067,0-7.615,1.231-10.648,3.693
		c-3.031,2.462-5.027,5.675-5.988,9.639v0.156c0,0.191,0.07,0.357,0.211,0.498c0.14,0.141,0.307,0.21,0.499,0.21h4.414
		c0.325,0,0.547-0.17,0.665-0.509c0.621-1.48,1.013-2.344,1.176-2.596c1.035-1.687,2.412-3.01,4.127-3.97
		c1.715-0.962,3.563-1.443,5.545-1.443c2.973,0,5.553,1.014,7.742,3.04l-3.062,3.062c-0.279,0.28-0.42,0.612-0.42,0.998
		c0,0.384,0.141,0.717,0.42,0.997c0.281,0.282,0.615,0.422,0.999,0.422h9.938c0.384,0,0.718-0.14,0.999-0.422
		c0.28-0.28,0.422-0.613,0.422-0.997v-9.938C1641.573,244.159,1641.433,243.827,1641.151,243.546L1641.151,243.546z
		 M1641.151,243.546"/>
	<path fill="#1695A4" d="M1640.308,261.581h-4.26c-0.324,0-0.547,0.17-0.664,0.51c-0.621,1.478-1.014,2.344-1.176,2.596
		c-1.035,1.686-2.411,3.009-4.126,3.97c-1.716,0.961-3.564,1.442-5.546,1.442c-1.434,0-2.818-0.267-4.148-0.798
		c-1.331-0.532-2.521-1.287-3.57-2.264l3.039-3.038c0.28-0.282,0.421-0.614,0.421-0.998s-0.141-0.718-0.421-0.999
		c-0.281-0.281-0.614-0.421-0.999-0.421h-9.937c-0.385,0-0.719,0.14-1,0.421c-0.28,0.281-0.421,0.615-0.421,0.999v9.938
		c0,0.384,0.141,0.718,0.421,0.999c0.282,0.28,0.615,0.421,1,0.421c0.383,0,0.716-0.141,0.997-0.421l2.861-2.863
		c1.583,1.509,3.384,2.67,5.401,3.483c2.02,0.814,4.108,1.219,6.268,1.219c4.052,0,7.587-1.23,10.604-3.694
		c3.016-2.461,4.997-5.673,5.945-9.637c0.014-0.029,0.021-0.082,0.021-0.155c0-0.193-0.07-0.359-0.212-0.499
		C1640.667,261.651,1640.499,261.581,1640.308,261.581L1640.308,261.581z M1640.308,261.581"/>
</g>
<g>
	<path fill="#1695A4" d="M1240.469,217.296c-0.281-0.28-0.615-0.421-0.999-0.421s-0.716,0.141-0.998,0.421l-2.884,2.861
		c-1.582-1.493-3.395-2.651-5.435-3.471c-2.04-0.82-4.14-1.231-6.3-1.231c-4.067,0-7.615,1.231-10.648,3.693
		c-3.031,2.462-5.027,5.675-5.988,9.639v0.156c0,0.191,0.07,0.357,0.211,0.498c0.14,0.141,0.307,0.21,0.499,0.21h4.414
		c0.325,0,0.547-0.17,0.665-0.509c0.621-1.48,1.013-2.344,1.176-2.596c1.035-1.687,2.412-3.01,4.127-3.97
		c1.715-0.962,3.563-1.443,5.545-1.443c2.973,0,5.553,1.014,7.742,3.04l-3.062,3.062c-0.279,0.28-0.42,0.612-0.42,0.998
		c0,0.384,0.141,0.717,0.42,0.997c0.281,0.282,0.615,0.422,0.999,0.422h9.938c0.384,0,0.718-0.14,0.999-0.422
		c0.28-0.28,0.422-0.613,0.422-0.997v-9.938C1240.891,217.909,1240.75,217.577,1240.469,217.296L1240.469,217.296z
		 M1240.469,217.296"/>
	<path fill="#1695A4" d="M1239.625,235.331h-4.26c-0.324,0-0.547,0.17-0.664,0.51c-0.621,1.478-1.014,2.344-1.176,2.596
		c-1.035,1.686-2.411,3.009-4.126,3.97c-1.716,0.961-3.564,1.442-5.546,1.442c-1.434,0-2.818-0.267-4.148-0.798
		c-1.331-0.532-2.521-1.287-3.57-2.264l3.039-3.038c0.28-0.282,0.421-0.614,0.421-0.998s-0.141-0.718-0.421-0.999
		c-0.281-0.281-0.614-0.421-0.999-0.421h-9.937c-0.385,0-0.719,0.14-1,0.421c-0.28,0.281-0.421,0.615-0.421,0.999v9.938
		c0,0.384,0.141,0.718,0.421,0.999c0.282,0.28,0.615,0.421,1,0.421c0.383,0,0.716-0.141,0.997-0.421l2.861-2.863
		c1.583,1.509,3.384,2.67,5.401,3.483c2.02,0.814,4.108,1.219,6.268,1.219c4.052,0,7.587-1.23,10.604-3.694
		c3.016-2.461,4.997-5.673,5.945-9.637c0.014-0.029,0.021-0.082,0.021-0.155c0-0.193-0.07-0.359-0.212-0.499
		C1239.984,235.401,1239.816,235.331,1239.625,235.331L1239.625,235.331z M1239.625,235.331"/>
</g>
<path fill="#E37222" d="M430.561,164.791c0,1.223-0.806,2.211-1.801,2.211h-3.492v8.295l-8.559-8.295H394.42
	c-0.997,0-1.803-0.988-1.803-2.211v-29.376c0-1.224,0.806-2.212,1.803-2.212h34.34c0.995,0,1.801,0.989,1.801,2.212V164.791z"/>
<path fill="#E37222" d="M831.983,192.244c0,1.223-0.806,2.211-1.801,2.211h-3.492v8.295l-8.559-8.295h-22.289
	c-0.997,0-1.803-0.988-1.803-2.211v-29.376c0-1.224,0.806-2.212,1.803-2.212h34.34c0.995,0,1.801,0.989,1.801,2.212V192.244z"/>
<path fill="#E37222" d="M1243.025,295.532c0,1.223-0.807,2.211-1.802,2.211h-3.492v8.295l-8.559-8.295h-22.289
	c-0.997,0-1.803-0.988-1.803-2.211v-29.376c0-1.224,0.806-2.212,1.803-2.212h34.34c0.995,0,1.802,0.989,1.802,2.212V295.532z"/>
<path fill="#E37222" d="M1403.025,33.545c0,0.855-0.564,1.545-1.26,1.545h-2.439v5.796l-5.981-5.796h-15.575
	c-0.697,0-1.26-0.69-1.26-1.545V13.017c0-0.855,0.562-1.546,1.26-1.546h23.996c0.695,0,1.26,0.691,1.26,1.546V33.545z"/>
<path fill="#E37222" d="M430.561,272.122c0,1.223-0.806,2.211-1.801,2.211h-3.492v8.295l-8.559-8.295H394.42
	c-0.997,0-1.803-0.988-1.803-2.211v-29.376c0-1.224,0.806-2.212,1.803-2.212h34.34c0.995,0,1.801,0.989,1.801,2.212V272.122z"/>
</svg>
