<?xml version="1.0" encoding="utf-8"?>
<!-- Generator: Adobe Illustrator 19.2.0, SVG Export Plug-In . SVG Version: 6.00 Build 0)  -->
<svg version="1.1" id="Layer_1" xmlns="http://www.w3.org/2000/svg" xmlns:xlink="http://www.w3.org/1999/xlink" x="0px" y="0px"
	 viewBox="0 0 2048 1000" style="enable-background:new 0 0 2048 1000;" xml:space="preserve">
<style type="text/css">
	.st0{fill:#89BE46;}
	.st1{fill:#678F35;}
	.st2{fill:none;}
	.st3{fill:#333333;}
	.st4{fill:none;stroke:#343636;stroke-width:4;stroke-miterlimit:10;}
	.st5{fill:#FFFFFF;}
	.st6{fill-rule:evenodd;clip-rule:evenodd;fill:#3D566E;}
	.st7{fill-rule:evenodd;clip-rule:evenodd;fill:#D1D1D1;}
	.st8{fill-rule:evenodd;clip-rule:evenodd;fill:#2C3E50;}
	.st9{fill-rule:evenodd;clip-rule:evenodd;fill:#DAE1E6;}
	.st10{fill-rule:evenodd;clip-rule:evenodd;fill:#ECF0F1;}
	.st11{fill-rule:evenodd;clip-rule:evenodd;fill:#666666;}
	.st12{fill-rule:evenodd;clip-rule:evenodd;fill:#E02828;}
	.st13{fill-rule:evenodd;clip-rule:evenodd;fill:#FFCB05;}
	.st14{fill-rule:evenodd;clip-rule:evenodd;fill:#6699FF;}
	.st15{fill-rule:evenodd;clip-rule:evenodd;fill:#999999;}
	.st16{fill-rule:evenodd;clip-rule:evenodd;fill:#B3B3B3;}
	.st17{fill-rule:evenodd;clip-rule:evenodd;fill:#FACC4D;}
</style>
<rect class="st0" width="2048" height="1000"/>
<rect x="0.5" y="695.9" class="st1" width="2048" height="304.1"/>
<g>
	<rect x="342.8" y="222.5" class="st2" width="814.6" height="386.9"/>
	<path class="st3" d="M345.5,222.5h12.3c7.4,0,13,4.7,13,14.1c0,8.3-4.2,14.4-13,14.4h-12.3V222.5z M351.8,245.8h5.6
		c3.6,0,7.1-2.2,7.1-8.6c0-5.8-2-9.4-8.2-9.4h-4.5V245.8z"/>
	<path class="st3" d="M379.2,242.1c0.2,3.6,1.9,5.2,5.1,5.2c2.3,0,4.1-1.4,4.5-2.7h5c-1.6,4.9-5,7-9.7,7c-6.5,0-10.6-4.5-10.6-10.9
		c0-6.2,4.3-10.9,10.6-10.9c7,0,10.5,5.9,10,12.3H379.2z M388.5,238.5c-0.5-2.9-1.8-4.4-4.5-4.4c-3.7,0-4.6,2.8-4.7,4.4H388.5z"/>
	<path class="st3" d="M401.9,244.4c0,2.4,2.2,3.5,4.4,3.5c1.6,0,3.7-0.6,3.7-2.6c0-1.7-2.4-2.4-6.4-3.2c-3.3-0.8-6.6-1.8-6.6-5.5
		c0-5.3,4.6-6.6,9-6.6c4.5,0,8.7,1.5,9.1,6.6h-5.4c-0.2-2.2-1.8-2.8-3.9-2.8c-1.3,0-3.2,0.2-3.2,1.9c0,2,3.2,2.3,6.4,3.1
		c3.3,0.8,6.6,2,6.6,5.8c0,5.4-4.8,7.2-9.4,7.2c-4.8,0-9.5-1.8-9.7-7.3H401.9z"/>
	<path class="st3" d="M424.8,227.2h-5.7v-4.7h5.7V227.2z M419.2,230.4h5.7v20.7h-5.7V230.4z"/>
	<path class="st3" d="M449.2,249.8c0,3.4-1.2,9.2-10.7,9.2c-4.1,0-8.8-2-9.1-6.6h5.6c0.5,2.1,2.2,2.8,4.2,2.8c3.2,0,4.6-2.1,4.6-5.1
		v-2.7h-0.1c-1.2,2.2-3.7,3.2-6.2,3.2c-6.2,0-8.8-4.7-8.8-10.4c0-5.4,3.1-10.2,8.9-10.2c2.7,0,4.8,0.9,6.2,3.3h0.1v-2.8h5.4V249.8z
		 M443.8,240.5c0-3.4-1.2-6.4-4.8-6.4c-3.2,0-4.6,2.8-4.6,5.9c0,3,1.1,6.2,4.6,6.2C442.2,246.2,443.8,243.4,443.8,240.5z"/>
	<path class="st3" d="M453.8,230.4h5.4v2.9h0.1c1.4-2.4,3.9-3.4,6.3-3.4c6,0,7.6,3.4,7.6,8.5v12.7h-5.7v-11.7c0-3.4-1-5.1-3.6-5.1
		c-3.1,0-4.4,1.7-4.4,5.9v10.8h-5.7V230.4z"/>
	<path class="st3" d="M508.2,232.1c-0.4-2.8-3.2-5-6.2-5c-5.6,0-7.8,4.8-7.8,9.8c0,4.8,2.1,9.6,7.8,9.6c3.8,0,6-2.6,6.5-6.4h6.1
		c-0.6,7.2-5.5,11.7-12.6,11.7c-8.8,0-14-6.6-14-14.8c0-8.5,5.2-15.1,14-15.1c6.2,0,11.6,3.7,12.3,10.3H508.2z"/>
	<path class="st3" d="M528.3,229.8c6.5,0,10.7,4.3,10.7,10.9c0,6.6-4.2,10.9-10.7,10.9c-6.5,0-10.7-4.3-10.7-10.9
		C517.6,234.2,521.8,229.8,528.3,229.8z M528.3,247.4c3.9,0,5-3.3,5-6.6s-1.2-6.6-5-6.6c-3.8,0-5,3.3-5,6.6S524.4,247.4,528.3,247.4
		z"/>
	<path class="st3" d="M542.7,230.4h5.4v2.9h0.1c1.4-2.4,3.9-3.4,6.3-3.4c6,0,7.6,3.4,7.6,8.5v12.7h-5.7v-11.7c0-3.4-1-5.1-3.6-5.1
		c-3.1,0-4.4,1.7-4.4,5.9v10.8h-5.7V230.4z"/>
	<path class="st3" d="M573.6,230.4h4.2v3.8h-4.2v10.2c0,1.9,0.5,2.4,2.4,2.4c0.6,0,1.2,0,1.8-0.2v4.4c-1,0.2-2.2,0.2-3.3,0.2
		c-3.5,0-6.5-0.8-6.5-4.9v-12.2h-3.4v-3.8h3.4v-6.2h5.7V230.4z"/>
	<path class="st3" d="M580.5,230.4h5.4v3.8h0.1c1.1-2.6,3.8-4.4,6.6-4.4c0.4,0,0.8,0.1,1.2,0.2v5.3c-0.5-0.1-1.4-0.2-2-0.2
		c-4.2,0-5.6,3-5.6,6.6v9.3h-5.7V230.4z"/>
	<path class="st3" d="M606.1,229.8c6.5,0,10.7,4.3,10.7,10.9c0,6.6-4.2,10.9-10.7,10.9c-6.5,0-10.7-4.3-10.7-10.9
		C595.4,234.2,599.6,229.8,606.1,229.8z M606.1,247.4c3.9,0,5-3.3,5-6.6s-1.2-6.6-5-6.6c-3.8,0-5,3.3-5,6.6S602.2,247.4,606.1,247.4
		z"/>
	<path class="st3" d="M620.6,222.5h5.7v28.6h-5.7V222.5z"/>
	<path class="st3" d="M645.9,226.7h-3.4v-4.2h3.4V226.7z M642.5,230.4h3.4v20.7h-3.4V230.4z"/>
	<path class="st3" d="M653.3,244.6c0.1,3,2.8,4,5.6,4c2.1,0,5-0.5,5-3.1c0-5.3-13.5-1.7-13.5-9.7c0-4.2,4.1-5.9,7.7-5.9
		c4.6,0,8.2,1.4,8.5,6.5h-3.4c-0.2-2.6-2.6-3.5-4.8-3.5c-2,0-4.4,0.6-4.4,2.6c0,2.4,3.6,2.9,6.8,3.6c3.4,0.8,6.8,1.9,6.8,5.9
		c0,5-4.6,6.5-8.8,6.5c-4.6,0-8.6-1.9-8.8-7H653.3z"/>
	<path class="st3" d="M700.6,251c-0.6,0.4-1.4,0.6-2.4,0.6c-1.8,0-2.9-1-2.9-3.2c-1.9,2.2-4.4,3.2-7.3,3.2c-3.8,0-6.8-1.6-6.8-5.8
		c0-4.7,3.5-5.7,7-6.4c3.7-0.8,7-0.4,7-3c0-3-2.5-3.4-4.6-3.4c-2.9,0-5,0.9-5.2,3.9H682c0.2-5.1,4.1-6.9,8.8-6.9
		c3.7,0,7.8,0.8,7.8,5.7v10.6c0,1.6,0,2.3,1.1,2.3c0.3,0,0.7-0.1,1-0.2V251z M695.1,240.4c-2.6,2-10.3,0-10.3,5.1c0,2.2,1.9,3,4,3
		c4.5,0,6.3-2.8,6.3-4.7V240.4z"/>
	<path class="st3" d="M717,244.6c0.1,3,2.8,4,5.6,4c2.1,0,5-0.5,5-3.1c0-5.3-13.5-1.7-13.5-9.7c0-4.2,4.1-5.9,7.7-5.9
		c4.6,0,8.2,1.4,8.5,6.5h-3.4c-0.2-2.6-2.6-3.5-4.8-3.5c-2,0-4.4,0.6-4.4,2.6c0,2.4,3.6,2.9,6.8,3.6c3.4,0.8,6.8,1.9,6.8,5.9
		c0,5-4.6,6.5-8.8,6.5c-4.6,0-8.6-1.9-8.8-7H717z"/>
	<path class="st3" d="M752.6,244.5c-0.9,4.6-4.2,7-8.8,7c-6.6,0-9.7-4.6-9.9-10.9c0-6.2,4.1-10.8,9.7-10.8c7.3,0,9.6,6.8,9.4,11.8
		h-15.5c-0.1,3.6,1.9,6.8,6.4,6.8c2.8,0,4.8-1.3,5.4-4H752.6z M749.3,238.8c-0.2-3.2-2.6-5.8-6-5.8c-3.5,0-5.7,2.6-5.9,5.8H749.3z"
		/>
	<path class="st3" d="M761.1,230.4h4.1v3h-4.1v12.8c0,1.6,0.4,1.8,2.6,1.8h1.6v3h-2.6c-3.5,0-4.9-0.7-4.9-4.5v-13.2h-3.5v-3h3.5
		v-6.2h3.4V230.4z"/>
	<path class="st3" d="M789,229.9c6.6,0,10,4.8,10,10.8c0,6-3.5,10.8-10,10.8s-10-4.8-10-10.8C779,234.7,782.5,229.9,789,229.9z
		 M789,248.6c3.6,0,6.4-2.8,6.4-7.8s-2.9-7.8-6.4-7.8s-6.4,2.8-6.4,7.8S785.5,248.6,789,248.6z"/>
	<path class="st3" d="M804.5,233.4H801v-3h3.5v-3.1c0-3.4,2-5.1,5.7-5.1c0.6,0,1.6,0.1,2.2,0.3v3c-0.6-0.2-1.3-0.3-1.9-0.3
		c-1.6,0-2.6,0.5-2.6,2.3v2.9h4v3h-4v17.7h-3.4V233.4z"/>
	<path class="st3" d="M844.5,259h-3.4v-10.7H841c-1.1,2.3-3.7,3.3-6.6,3.3c-6.4,0-9.5-5-9.5-10.9c0-5.8,3.1-10.8,9.4-10.8
		c2.1,0,5.2,0.8,6.7,3.2h0.1v-2.8h3.4V259z M834.9,248.6c4.6,0,6.3-4,6.3-7.8c0-4-1.8-7.8-6.5-7.8c-4.6,0-6.2,4-6.2,8
		C828.5,244.8,830.5,248.6,834.9,248.6z"/>
	<path class="st3" d="M866.9,251.1h-3.2v-3.3h-0.1c-1.4,2.6-3.7,3.8-6.7,3.8c-5.4,0-7.1-3.1-7.1-7.6v-13.6h3.4v14
		c0,2.6,1.6,4.2,4.2,4.2c4.1,0,6.1-2.8,6.1-6.5v-11.7h3.4V251.1z"/>
	<path class="st3" d="M890.3,251c-0.6,0.4-1.4,0.6-2.4,0.6c-1.8,0-2.9-1-2.9-3.2c-1.9,2.2-4.4,3.2-7.3,3.2c-3.8,0-6.8-1.6-6.8-5.8
		c0-4.7,3.5-5.7,7-6.4c3.7-0.8,7-0.4,7-3c0-3-2.5-3.4-4.6-3.4c-2.9,0-5,0.9-5.2,3.9h-3.4c0.2-5.1,4.1-6.9,8.8-6.9
		c3.7,0,7.8,0.8,7.8,5.7v10.6c0,1.6,0,2.3,1.1,2.3c0.3,0,0.7-0.1,1-0.2V251z M884.8,240.4c-2.6,2-10.3,0-10.3,5.1c0,2.2,1.9,3,4,3
		c4.5,0,6.3-2.8,6.3-4.7V240.4z"/>
	<path class="st3" d="M893.7,222.5h3.4v28.6h-3.4V222.5z"/>
	<path class="st3" d="M906,226.7h-3.4v-4.2h3.4V226.7z M902.6,230.4h3.4v20.7h-3.4V230.4z"/>
	<path class="st3" d="M916,230.4h4.1v3H916v12.8c0,1.6,0.4,1.8,2.6,1.8h1.6v3h-2.6c-3.5,0-4.9-0.7-4.9-4.5v-13.2H909v-3h3.5v-6.2
		h3.4V230.4z"/>
	<path class="st3" d="M932,253.8c-1.6,4-3,5.5-6,5.5c-0.8,0-1.6-0.1-2.4-0.4v-3.1c0.6,0.2,1.3,0.5,2,0.5c1.4,0,2.2-0.6,2.8-1.9
		l1.4-3.5l-8.2-20.6h3.8l6,16.9h0.1l5.8-16.9h3.6L932,253.8z"/>
	<path class="st3" d="M969,237c-0.5-2.6-2.3-4.1-5.1-4.1c-4.9,0-6.4,3.9-6.4,8.1c0,3.8,1.7,7.6,6,7.6c3.3,0,5.2-1.9,5.7-5h3.5
		c-0.8,5.1-3.9,8-9.1,8c-6.3,0-9.7-4.4-9.7-10.6c0-6.2,3.2-11.1,9.8-11.1c4.7,0,8.4,2.2,8.9,7.1H969z"/>
	<path class="st3" d="M985.4,229.9c6.6,0,10,4.8,10,10.8c0,6-3.5,10.8-10,10.8s-10-4.8-10-10.8C975.3,234.7,978.8,229.9,985.4,229.9
		z M985.4,248.6c3.6,0,6.4-2.8,6.4-7.8s-2.9-7.8-6.4-7.8s-6.4,2.8-6.4,7.8S981.8,248.6,985.4,248.6z"/>
	<path class="st3" d="M999.4,230.4h3.2v3.3h0.1c1.4-2.6,3.7-3.8,6.7-3.8c5.4,0,7.1,3.1,7.1,7.6v13.6h-3.4v-14c0-2.6-1.6-4.2-4.2-4.2
		c-4.1,0-6.1,2.8-6.1,6.5v11.7h-3.4V230.4z"/>
	<path class="st3" d="M1026.4,230.4h4.1v3h-4.1v12.8c0,1.6,0.4,1.8,2.6,1.8h1.6v3h-2.6c-3.5,0-4.9-0.7-4.9-4.5v-13.2h-3.5v-3h3.5
		v-6.2h3.4V230.4z"/>
	<path class="st3" d="M1034.1,230.4h3.2v4.4h0.1c1.6-3.4,3.9-5,7.6-4.8v3.6c-5.5,0-7.5,3.1-7.5,8.4v9.2h-3.4V230.4z"/>
	<path class="st3" d="M1056.5,229.9c6.6,0,10,4.8,10,10.8c0,6-3.5,10.8-10,10.8s-10-4.8-10-10.8
		C1046.4,234.7,1049.9,229.9,1056.5,229.9z M1056.5,248.6c3.6,0,6.4-2.8,6.4-7.8s-2.9-7.8-6.4-7.8s-6.4,2.8-6.4,7.8
		S1052.9,248.6,1056.5,248.6z"/>
	<path class="st3" d="M1070.7,222.5h3.4v28.6h-3.4V222.5z"/>
	<path class="st3" d="M345.4,284.4h3.4v2.8h0.1c1.1-2.3,3.7-3.3,6.6-3.3c6.4,0,9.5,5,9.5,10.9c0,5.9-3.1,10.8-9.4,10.8
		c-2.1,0-5.2-0.8-6.7-3.2h-0.1V313h-3.4V284.4z M355,286.9c-4.6,0-6.3,4-6.3,7.8c0,4,1.8,7.8,6.5,7.8c4.6,0,6.2-4,6.2-8
		C361.4,290.7,359.4,286.9,355,286.9z"/>
	<path class="st3" d="M368.9,284.4h3.2v4.4h0.1c1.6-3.4,3.9-5,7.6-4.8v3.6c-5.5,0-7.5,3.1-7.5,8.4v9.2h-3.4V284.4z"/>
	<path class="st3" d="M400.7,305c-0.6,0.4-1.4,0.6-2.4,0.6c-1.8,0-2.9-1-2.9-3.2c-1.9,2.2-4.4,3.2-7.3,3.2c-3.8,0-6.8-1.6-6.8-5.8
		c0-4.7,3.5-5.7,7-6.4c3.7-0.8,7-0.4,7-3c0-3-2.5-3.4-4.6-3.4c-2.9,0-5,0.9-5.2,3.9H382c0.2-5.1,4.1-6.9,8.8-6.9
		c3.7,0,7.8,0.8,7.8,5.7v10.6c0,1.6,0,2.3,1.1,2.3c0.3,0,0.7-0.1,1-0.2V305z M395.2,294.4c-2.6,2-10.3,0-10.3,5.1c0,2.2,1.9,3,4,3
		c4.5,0,6.3-2.8,6.3-4.7V294.4z"/>
	<path class="st3" d="M417.9,291c-0.5-2.6-2.3-4.1-5.1-4.1c-4.9,0-6.4,3.9-6.4,8.1c0,3.8,1.7,7.6,6,7.6c3.3,0,5.2-1.9,5.7-5h3.5
		c-0.8,5.1-3.9,8-9.1,8c-6.3,0-9.7-4.4-9.7-10.6c0-6.2,3.2-11.1,9.8-11.1c4.7,0,8.4,2.2,8.9,7.1H417.9z"/>
	<path class="st3" d="M430,284.4h4.1v3H430v12.8c0,1.6,0.4,1.8,2.6,1.8h1.6v3h-2.6c-3.5,0-4.9-0.7-4.9-4.5v-13.2h-3.5v-3h3.5v-6.2
		h3.4V284.4z"/>
	<path class="st3" d="M441.5,280.7h-3.4v-4.2h3.4V280.7z M438.1,284.4h3.4v20.7h-3.4V284.4z"/>
	<path class="st3" d="M460.8,291c-0.5-2.6-2.3-4.1-5.1-4.1c-4.9,0-6.4,3.9-6.4,8.1c0,3.8,1.7,7.6,6,7.6c3.3,0,5.2-1.9,5.7-5h3.5
		c-0.8,5.1-3.9,8-9.1,8c-6.3,0-9.7-4.4-9.7-10.6c0-6.2,3.2-11.1,9.8-11.1c4.7,0,8.4,2.2,8.9,7.1H460.8z"/>
	<path class="st3" d="M485.9,298.5c-0.9,4.6-4.2,7-8.8,7c-6.6,0-9.7-4.6-9.9-10.9c0-6.2,4.1-10.8,9.7-10.8c7.3,0,9.6,6.8,9.4,11.8
		h-15.5c-0.1,3.6,1.9,6.8,6.4,6.8c2.8,0,4.8-1.3,5.4-4H485.9z M482.6,292.8c-0.2-3.2-2.6-5.8-6-5.8c-3.5,0-5.7,2.6-5.9,5.8H482.6z"
		/>
	<path class="st3" d="M491.8,298.6c0.1,3,2.8,4,5.6,4c2.1,0,5-0.5,5-3.1c0-5.3-13.5-1.7-13.5-9.7c0-4.2,4.1-5.9,7.7-5.9
		c4.6,0,8.2,1.4,8.5,6.5h-3.4c-0.2-2.6-2.6-3.5-4.8-3.5c-2,0-4.4,0.6-4.4,2.6c0,2.4,3.6,2.9,6.8,3.6c3.4,0.8,6.8,1.9,6.8,5.9
		c0,5-4.6,6.5-8.8,6.5c-4.6,0-8.6-1.9-8.8-7H491.8z"/>
	<path class="st3" d="M539.2,305c-0.6,0.4-1.4,0.6-2.4,0.6c-1.8,0-2.9-1-2.9-3.2c-1.9,2.2-4.4,3.2-7.3,3.2c-3.8,0-6.8-1.6-6.8-5.8
		c0-4.7,3.5-5.7,7-6.4c3.7-0.8,7-0.4,7-3c0-3-2.5-3.4-4.6-3.4c-2.9,0-5,0.9-5.2,3.9h-3.4c0.2-5.1,4.1-6.9,8.8-6.9
		c3.7,0,7.8,0.8,7.8,5.7v10.6c0,1.6,0,2.3,1.1,2.3c0.3,0,0.7-0.1,1-0.2V305z M533.7,294.4c-2.6,2-10.3,0-10.3,5.1c0,2.2,1.9,3,4,3
		c4.5,0,6.3-2.8,6.3-4.7V294.4z"/>
	<path class="st3" d="M542.4,284.4h3.2v3.3h0.1c1.4-2.6,3.7-3.8,6.7-3.8c5.4,0,7.1,3.1,7.1,7.6v13.6h-3.4v-14c0-2.6-1.6-4.2-4.2-4.2
		c-4.1,0-6.1,2.8-6.1,6.5v11.7h-3.4V284.4z"/>
	<path class="st3" d="M583.1,305.1h-3.4v-2.8h-0.1c-1.1,2.3-3.7,3.3-6.6,3.3c-6.4,0-9.5-5-9.5-10.9c0-5.8,3.1-10.8,9.4-10.8
		c2.1,0,5.2,0.8,6.7,3.2h0.1v-10.6h3.4V305.1z M573.5,302.6c4.6,0,6.3-4,6.3-7.8c0-4-1.8-7.8-6.5-7.8c-4.6,0-6.2,4-6.2,8
		C567.1,298.8,569.1,302.6,573.5,302.6z"/>
	<path class="st3" d="M599.6,284.4h3.4v2.8h0.1c1.1-2.3,3.7-3.3,6.6-3.3c6.4,0,9.5,5,9.5,10.9c0,5.9-3.1,10.8-9.4,10.8
		c-2.1,0-5.2-0.8-6.7-3.2H603V313h-3.4V284.4z M609.2,286.9c-4.6,0-6.3,4-6.3,7.8c0,4,1.8,7.8,6.5,7.8c4.6,0,6.2-4,6.2-8
		C615.6,290.7,613.6,286.9,609.2,286.9z"/>
	<path class="st3" d="M623,284.4h3.2v4.4h0.1c1.6-3.4,3.9-5,7.6-4.8v3.6c-5.5,0-7.5,3.1-7.5,8.4v9.2H623V284.4z"/>
	<path class="st3" d="M645.4,283.9c6.6,0,10,4.8,10,10.8c0,6-3.5,10.8-10,10.8s-10-4.8-10-10.8C635.4,288.7,638.8,283.9,645.4,283.9
		z M645.4,302.6c3.6,0,6.4-2.8,6.4-7.8s-2.9-7.8-6.4-7.8s-6.4,2.8-6.4,7.8S641.8,302.6,645.4,302.6z"/>
	<path class="st3" d="M673.5,291c-0.5-2.6-2.3-4.1-5.1-4.1c-4.9,0-6.4,3.9-6.4,8.1c0,3.8,1.7,7.6,6,7.6c3.3,0,5.2-1.9,5.7-5h3.5
		c-0.8,5.1-3.9,8-9.1,8c-6.3,0-9.7-4.4-9.7-10.6c0-6.2,3.2-11.1,9.8-11.1c4.7,0,8.4,2.2,8.9,7.1H673.5z"/>
	<path class="st3" d="M698.6,298.5c-0.9,4.6-4.2,7-8.8,7c-6.6,0-9.7-4.6-9.9-10.9c0-6.2,4.1-10.8,9.7-10.8c7.3,0,9.6,6.8,9.4,11.8
		h-15.5c-0.1,3.6,1.9,6.8,6.4,6.8c2.8,0,4.8-1.3,5.4-4H698.6z M695.3,292.8c-0.2-3.2-2.6-5.8-6-5.8c-3.5,0-5.7,2.6-5.9,5.8H695.3z"
		/>
	<path class="st3" d="M720.9,305.1h-3.4v-2.8h-0.1c-1.1,2.3-3.7,3.3-6.6,3.3c-6.4,0-9.5-5-9.5-10.9c0-5.8,3.1-10.8,9.4-10.8
		c2.1,0,5.2,0.8,6.7,3.2h0.1v-10.6h3.4V305.1z M711.3,302.6c4.6,0,6.3-4,6.3-7.8c0-4-1.8-7.8-6.5-7.8c-4.6,0-6.2,4-6.2,8
		C704.9,298.8,706.9,302.6,711.3,302.6z"/>
	<path class="st3" d="M743.2,305.1H740v-3.3H740c-1.4,2.6-3.7,3.8-6.7,3.8c-5.4,0-7.1-3.1-7.1-7.6v-13.6h3.4v14
		c0,2.6,1.6,4.2,4.2,4.2c4.1,0,6.1-2.8,6.1-6.5v-11.7h3.4V305.1z"/>
	<path class="st3" d="M748.2,284.4h3.2v4.4h0.1c1.6-3.4,3.9-5,7.6-4.8v3.6c-5.5,0-7.5,3.1-7.5,8.4v9.2h-3.4V284.4z"/>
	<path class="st3" d="M779.3,298.5c-0.9,4.6-4.2,7-8.8,7c-6.6,0-9.7-4.6-9.9-10.9c0-6.2,4.1-10.8,9.7-10.8c7.3,0,9.6,6.8,9.4,11.8
		h-15.5c-0.1,3.6,1.9,6.8,6.4,6.8c2.8,0,4.8-1.3,5.4-4H779.3z M776,292.8c-0.2-3.2-2.6-5.8-6-5.8c-3.5,0-5.7,2.6-5.9,5.8H776z"/>
	<path class="st3" d="M785.2,298.6c0.1,3,2.8,4,5.6,4c2.1,0,5-0.5,5-3.1c0-5.3-13.5-1.7-13.5-9.7c0-4.2,4.1-5.9,7.7-5.9
		c4.6,0,8.2,1.4,8.5,6.5h-3.4c-0.2-2.6-2.6-3.5-4.8-3.5c-2,0-4.4,0.6-4.4,2.6c0,2.4,3.6,2.9,6.8,3.6c3.4,0.8,6.8,1.9,6.8,5.9
		c0,5-4.6,6.5-8.8,6.5c-4.6,0-8.6-1.9-8.8-7H785.2z"/>
	<path class="st3" d="M815.7,287.4h-3.5v-3h3.5v-3.1c0-3.4,2-5.1,5.7-5.1c0.6,0,1.6,0.1,2.2,0.3v3c-0.6-0.2-1.3-0.3-1.9-0.3
		c-1.6,0-2.6,0.5-2.6,2.3v2.9h4v3h-4v17.7h-3.4V287.4z"/>
	<path class="st3" d="M835,283.9c6.6,0,10,4.8,10,10.8c0,6-3.5,10.8-10,10.8s-10-4.8-10-10.8C825,288.7,828.5,283.9,835,283.9z
		 M835,302.6c3.6,0,6.4-2.8,6.4-7.8s-2.9-7.8-6.4-7.8s-6.4,2.8-6.4,7.8S831.5,302.6,835,302.6z"/>
	<path class="st3" d="M849,284.4h3.2v4.4h0.1c1.6-3.4,3.9-5,7.6-4.8v3.6c-5.5,0-7.5,3.1-7.5,8.4v9.2H849V284.4z"/>
	<path class="st3" d="M892,305.1h-3.4v-2.8h-0.1c-1.1,2.3-3.7,3.3-6.6,3.3c-6.4,0-9.5-5-9.5-10.9c0-5.8,3.1-10.8,9.4-10.8
		c2.1,0,5.2,0.8,6.7,3.2h0.1v-10.6h3.4V305.1z M882.4,302.6c4.6,0,6.3-4,6.3-7.8c0-4-1.8-7.8-6.5-7.8c-4.6,0-6.2,4-6.2,8
		C876,298.8,878,302.6,882.4,302.6z"/>
	<path class="st3" d="M914.9,298.5c-0.9,4.6-4.2,7-8.8,7c-6.6,0-9.7-4.6-9.9-10.9c0-6.2,4.1-10.8,9.7-10.8c7.3,0,9.6,6.8,9.4,11.8
		h-15.5c-0.1,3.6,1.9,6.8,6.4,6.8c2.8,0,4.8-1.3,5.4-4H914.9z M911.6,292.8c-0.2-3.2-2.6-5.8-6-5.8c-3.5,0-5.7,2.6-5.9,5.8H911.6z"
		/>
	<path class="st3" d="M920.8,298.6c0.1,3,2.8,4,5.6,4c2.1,0,5-0.5,5-3.1c0-5.3-13.5-1.7-13.5-9.7c0-4.2,4.1-5.9,7.7-5.9
		c4.6,0,8.2,1.4,8.5,6.5h-3.4c-0.2-2.6-2.6-3.5-4.8-3.5c-2,0-4.4,0.6-4.4,2.6c0,2.4,3.6,2.9,6.8,3.6c3.4,0.8,6.8,1.9,6.8,5.9
		c0,5-4.6,6.5-8.8,6.5c-4.6,0-8.6-1.9-8.8-7H920.8z"/>
	<path class="st3" d="M942.3,280.7h-3.4v-4.2h3.4V280.7z M938.9,284.4h3.4v20.7h-3.4V284.4z"/>
	<path class="st3" d="M965.4,303.3c0,6.8-3,10.2-9.6,10.2c-3.9,0-8.4-1.6-8.6-6.1h3.4c0.1,2.4,3.2,3.4,5.4,3.4
		c4.4,0,6.2-3.2,6.2-7.8v-1.4h-0.1c-1.2,2.5-3.8,3.8-6.4,3.8c-6.2,0-9.2-4.8-9.2-10.5c0-4.9,2.4-10.9,9.6-10.9
		c2.6,0,4.9,1.2,6.2,3.4h0v-3h3.2V303.3z M962.1,294.3c0-3.6-1.6-7.4-5.9-7.4c-4.4,0-6.1,3.6-6.1,7.5c0,3.7,1.4,7.9,5.8,7.9
		C960.4,302.3,962.1,298.2,962.1,294.3z"/>
	<path class="st3" d="M970.6,284.4h3.2v3.3h0.1c1.4-2.6,3.7-3.8,6.7-3.8c5.4,0,7.1,3.1,7.1,7.6v13.6h-3.4v-14c0-2.6-1.6-4.2-4.2-4.2
		c-4.1,0-6.1,2.8-6.1,6.5v11.7h-3.4V284.4z"/>
	<path class="st3" d="M996.4,280.7H993v-4.2h3.4V280.7z M993,284.4h3.4v20.7H993V284.4z"/>
	<path class="st3" d="M1001.7,284.4h3.2v3.3h0.1c1.4-2.6,3.7-3.8,6.7-3.8c5.4,0,7.1,3.1,7.1,7.6v13.6h-3.4v-14
		c0-2.6-1.6-4.2-4.2-4.2c-4.1,0-6.1,2.8-6.1,6.5v11.7h-3.4V284.4z"/>
	<path class="st3" d="M1041.8,303.3c0,6.8-3,10.2-9.6,10.2c-3.9,0-8.4-1.6-8.6-6.1h3.4c0.1,2.4,3.2,3.4,5.4,3.4
		c4.4,0,6.2-3.2,6.2-7.8v-1.4h-0.1c-1.2,2.5-3.8,3.8-6.4,3.8c-6.2,0-9.2-4.8-9.2-10.5c0-4.9,2.4-10.9,9.6-10.9
		c2.6,0,4.9,1.2,6.2,3.4h0v-3h3.2V303.3z M1038.4,294.3c0-3.6-1.6-7.4-5.9-7.4c-4.4,0-6.1,3.6-6.1,7.5c0,3.7,1.4,7.9,5.8,7.9
		S1038.4,298.2,1038.4,294.3z"/>
	<path class="st3" d="M1076.3,305c-0.6,0.4-1.4,0.6-2.4,0.6c-1.8,0-2.9-1-2.9-3.2c-1.9,2.2-4.4,3.2-7.3,3.2c-3.8,0-6.8-1.6-6.8-5.8
		c0-4.7,3.5-5.7,7-6.4c3.7-0.8,7-0.4,7-3c0-3-2.5-3.4-4.6-3.4c-2.9,0-5,0.9-5.2,3.9h-3.4c0.2-5.1,4.1-6.9,8.8-6.9
		c3.7,0,7.8,0.8,7.8,5.7v10.6c0,1.6,0,2.3,1.1,2.3c0.3,0,0.7-0.1,1-0.2V305z M1070.8,294.4c-2.6,2-10.3,0-10.3,5.1c0,2.2,1.9,3,4,3
		c4.5,0,6.3-2.8,6.3-4.7V294.4z"/>
	<path class="st3" d="M1079.5,284.4h3.2v3.3h0.1c1.4-2.6,3.7-3.8,6.7-3.8c5.4,0,7.1,3.1,7.1,7.6v13.6h-3.4v-14
		c0-2.6-1.6-4.2-4.2-4.2c-4.1,0-6.1,2.8-6.1,6.5v11.7h-3.4V284.4z"/>
	<path class="st3" d="M1120.2,305.1h-3.4v-2.8h-0.1c-1.1,2.3-3.7,3.3-6.6,3.3c-6.4,0-9.5-5-9.5-10.9c0-5.8,3.1-10.8,9.4-10.8
		c2.1,0,5.2,0.8,6.7,3.2h0.1v-10.6h3.4V305.1z M1110.6,302.6c4.6,0,6.3-4,6.3-7.8c0-4-1.8-7.8-6.5-7.8c-4.6,0-6.2,4-6.2,8
		C1104.2,298.8,1106.2,302.6,1110.6,302.6z"/>
	<path class="st3" d="M363.8,359.1h-3.4v-2.8h-0.1c-1.1,2.3-3.7,3.3-6.6,3.3c-6.4,0-9.5-5-9.5-10.9c0-5.8,3.1-10.8,9.4-10.8
		c2.1,0,5.2,0.8,6.7,3.2h0.1v-10.6h3.4V359.1z M354.2,356.6c4.6,0,6.3-4,6.3-7.8c0-4-1.8-7.8-6.5-7.8c-4.6,0-6.2,4-6.2,8
		C347.8,352.8,349.8,356.6,354.2,356.6z"/>
	<path class="st3" d="M386.7,352.5c-0.9,4.6-4.2,7-8.8,7c-6.6,0-9.7-4.6-9.9-10.9c0-6.2,4.1-10.8,9.7-10.8c7.3,0,9.6,6.8,9.4,11.8
		h-15.5c-0.1,3.6,1.9,6.8,6.4,6.8c2.8,0,4.8-1.3,5.4-4H386.7z M383.4,346.8c-0.2-3.2-2.6-5.8-6-5.8c-3.5,0-5.7,2.6-5.9,5.8H383.4z"
		/>
	<path class="st3" d="M399.8,359.1h-3.6l-7.7-20.7h3.8l5.8,17.2h0.1l5.6-17.2h3.6L399.8,359.1z"/>
	<path class="st3" d="M428.2,352.5c-0.9,4.6-4.2,7-8.8,7c-6.6,0-9.7-4.6-9.9-10.9c0-6.2,4.1-10.8,9.7-10.8c7.3,0,9.6,6.8,9.4,11.8
		H413c-0.1,3.6,1.9,6.8,6.4,6.8c2.8,0,4.8-1.3,5.4-4H428.2z M424.9,346.8c-0.2-3.2-2.6-5.8-6-5.8c-3.5,0-5.7,2.6-5.9,5.8H424.9z"/>
	<path class="st3" d="M432.2,330.5h3.4v28.6h-3.4V330.5z"/>
	<path class="st3" d="M449.8,337.9c6.6,0,10,4.8,10,10.8c0,6-3.5,10.8-10,10.8s-10-4.8-10-10.8C439.8,342.7,443.2,337.9,449.8,337.9
		z M449.8,356.6c3.6,0,6.4-2.8,6.4-7.8s-2.9-7.8-6.4-7.8s-6.4,2.8-6.4,7.8S446.2,356.6,449.8,356.6z"/>
	<path class="st3" d="M464,338.4h3.4v2.8h0.1c1.1-2.3,3.7-3.3,6.6-3.3c6.4,0,9.5,5,9.5,10.9c0,5.9-3.1,10.8-9.4,10.8
		c-2.1,0-5.2-0.8-6.7-3.2h-0.1V367H464V338.4z M473.6,340.9c-4.6,0-6.3,4-6.3,7.8c0,4,1.8,7.8,6.5,7.8c4.6,0,6.2-4,6.2-8
		C480,344.7,478,340.9,473.6,340.9z"/>
	<path class="st3" d="M491.2,334.7h-3.4v-4.2h3.4V334.7z M487.8,338.4h3.4v20.7h-3.4V338.4z"/>
	<path class="st3" d="M496.4,338.4h3.2v3.3h0.1c1.4-2.6,3.7-3.8,6.7-3.8c5.4,0,7.1,3.1,7.1,7.6v13.6h-3.4v-14c0-2.6-1.6-4.2-4.2-4.2
		c-4.1,0-6.1,2.8-6.1,6.5v11.7h-3.4V338.4z"/>
	<path class="st3" d="M536.5,357.3c0,6.8-3,10.2-9.6,10.2c-3.9,0-8.4-1.6-8.6-6.1h3.4c0.1,2.4,3.2,3.4,5.4,3.4
		c4.4,0,6.2-3.2,6.2-7.8v-1.4h-0.1c-1.2,2.5-3.8,3.8-6.4,3.8c-6.2,0-9.2-4.8-9.2-10.5c0-4.9,2.4-10.9,9.6-10.9
		c2.6,0,4.9,1.2,6.2,3.4h0v-3h3.2V357.3z M533.2,348.3c0-3.6-1.6-7.4-5.9-7.4c-4.4,0-6.1,3.6-6.1,7.5c0,3.7,1.4,7.9,5.8,7.9
		C531.5,356.3,533.2,352.2,533.2,348.3z"/>
	<path class="st3" d="M565.4,329.8c9.1,0,13.7,7.2,13.7,15c0,7.8-4.6,15-13.7,15c-9.1,0-13.7-7.2-13.7-15
		C551.7,337,556.3,329.8,565.4,329.8z M565.4,356.6c7,0,9.9-6,9.9-11.8c0-5.8-2.9-11.8-9.9-11.8c-7,0-9.9,6-9.9,11.8
		C555.5,350.6,558.4,356.6,565.4,356.6z"/>
	<path class="st3" d="M584.6,341.4h-3.5v-3h3.5v-3.1c0-3.4,2-5.1,5.7-5.1c0.6,0,1.6,0.1,2.2,0.3v3c-0.6-0.2-1.3-0.3-1.9-0.3
		c-1.6,0-2.6,0.5-2.6,2.3v2.9h4v3h-4v17.7h-3.4V341.4z"/>
	<path class="st3" d="M596.4,341.4h-3.5v-3h3.5v-3.1c0-3.4,2-5.1,5.7-5.1c0.6,0,1.6,0.1,2.2,0.3v3c-0.6-0.2-1.3-0.3-1.9-0.3
		c-1.6,0-2.6,0.5-2.6,2.3v2.9h4v3h-4v17.7h-3.4V341.4z"/>
	<path class="st3" d="M624.5,352.5c-0.9,4.6-4.2,7-8.8,7c-6.6,0-9.7-4.6-9.9-10.9c0-6.2,4.1-10.8,9.7-10.8c7.3,0,9.6,6.8,9.4,11.8
		h-15.5c-0.1,3.6,1.9,6.8,6.4,6.8c2.8,0,4.8-1.3,5.4-4H624.5z M621.2,346.8c-0.2-3.2-2.6-5.8-6-5.8c-3.5,0-5.7,2.6-5.9,5.8H621.2z"
		/>
	<path class="st3" d="M628.2,338.4h3.2v4.4h0.1c1.6-3.4,3.9-5,7.6-4.8v3.6c-5.5,0-7.5,3.1-7.5,8.4v9.2h-3.4V338.4z"/>
	<path class="st3" d="M645.2,334.7h-3.4v-4.2h3.4V334.7z M641.8,338.4h3.4v20.7h-3.4V338.4z"/>
	<path class="st3" d="M650.5,338.4h3.2v3.3h0.1c1.4-2.6,3.7-3.8,6.7-3.8c5.4,0,7.1,3.1,7.1,7.6v13.6h-3.4v-14c0-2.6-1.6-4.2-4.2-4.2
		c-4.1,0-6.1,2.8-6.1,6.5v11.7h-3.4V338.4z"/>
	<path class="st3" d="M690.6,357.3c0,6.8-3,10.2-9.6,10.2c-3.9,0-8.4-1.6-8.6-6.1h3.4c0.1,2.4,3.2,3.4,5.4,3.4
		c4.4,0,6.2-3.2,6.2-7.8v-1.4h-0.1c-1.2,2.5-3.8,3.8-6.4,3.8c-6.2,0-9.2-4.8-9.2-10.5c0-4.9,2.4-10.9,9.6-10.9
		c2.6,0,4.9,1.2,6.2,3.4h0v-3h3.2V357.3z M687.2,348.3c0-3.6-1.6-7.4-5.9-7.4c-4.4,0-6.1,3.6-6.1,7.5c0,3.7,1.4,7.9,5.8,7.9
		C685.6,356.3,687.2,352.2,687.2,348.3z"/>
	<path class="st3" d="M697.8,352.6c0.1,3,2.8,4,5.6,4c2.1,0,5-0.5,5-3.1c0-5.3-13.5-1.7-13.5-9.7c0-4.2,4.1-5.9,7.7-5.9
		c4.6,0,8.2,1.4,8.5,6.5h-3.4c-0.2-2.6-2.6-3.5-4.8-3.5c-2,0-4.4,0.6-4.4,2.6c0,2.4,3.6,2.9,6.8,3.6c3.4,0.8,6.8,1.9,6.8,5.9
		c0,5-4.6,6.5-8.8,6.5c-4.6,0-8.6-1.9-8.8-7H697.8z"/>
	<path class="st3" d="M731.6,338.4h4.1v3h-4.1v12.8c0,1.6,0.4,1.8,2.6,1.8h1.6v3h-2.6c-3.5,0-4.9-0.7-4.9-4.5v-13.2h-3.5v-3h3.5
		v-6.2h3.4V338.4z"/>
	<path class="st3" d="M739.4,330.5h3.4v10.9h0.1c1.1-2.5,4.1-3.5,6.5-3.5c5.4,0,7.1,3.1,7.1,7.6v13.6h-3.4v-14
		c0-2.6-1.6-4.2-4.2-4.2c-4.1,0-6.1,2.8-6.1,6.5v11.7h-3.4V330.5z"/>
	<path class="st3" d="M780,359c-0.6,0.4-1.4,0.6-2.4,0.6c-1.8,0-2.9-1-2.9-3.2c-1.9,2.2-4.4,3.2-7.3,3.2c-3.8,0-6.8-1.6-6.8-5.8
		c0-4.7,3.5-5.7,7-6.4c3.7-0.8,7-0.4,7-3c0-3-2.5-3.4-4.6-3.4c-2.9,0-5,0.9-5.2,3.9h-3.4c0.2-5.1,4.1-6.9,8.8-6.9
		c3.7,0,7.8,0.8,7.8,5.7v10.6c0,1.6,0,2.3,1.1,2.3c0.3,0,0.7-0.1,1-0.2V359z M774.5,348.4c-2.6,2-10.3,0-10.3,5.1c0,2.2,1.9,3,4,3
		c4.5,0,6.3-2.8,6.3-4.7V348.4z"/>
	<path class="st3" d="M787.9,338.4h4.1v3h-4.1v12.8c0,1.6,0.4,1.8,2.6,1.8h1.6v3h-2.6c-3.5,0-4.9-0.7-4.9-4.5v-13.2H781v-3h3.5v-6.2
		h3.4V338.4z"/>
	<path class="st3" d="M806.9,338.4h3.2v3h0.1c1.6-2.4,3.8-3.5,6.7-3.5c2.6,0,4.8,1,5.7,3.5c1.4-2.2,3.8-3.5,6.5-3.5
		c4.1,0,6.9,1.7,6.9,6v15.2h-3.4v-13.6c0-2.6-0.7-4.6-4-4.6c-3.3,0-5.4,2.1-5.4,5.3v12.9h-3.4v-13.6c0-2.7-0.8-4.6-3.9-4.6
		c-4,0-5.5,3.7-5.5,5.3v12.9h-3.4V338.4z"/>
	<path class="st3" d="M858.6,352.5c-0.9,4.6-4.2,7-8.8,7c-6.6,0-9.7-4.6-9.9-10.9c0-6.2,4.1-10.8,9.7-10.8c7.3,0,9.6,6.8,9.4,11.8
		h-15.5c-0.1,3.6,1.9,6.8,6.4,6.8c2.8,0,4.8-1.3,5.4-4H858.6z M855.4,346.8c-0.2-3.2-2.6-5.8-6-5.8c-3.5,0-5.7,2.6-5.9,5.8H855.4z"
		/>
	<path class="st3" d="M880.1,352.5c-0.9,4.6-4.2,7-8.8,7c-6.6,0-9.7-4.6-9.9-10.9c0-6.2,4.1-10.8,9.7-10.8c7.3,0,9.6,6.8,9.4,11.8
		H865c-0.1,3.6,1.9,6.8,6.4,6.8c2.8,0,4.8-1.3,5.4-4H880.1z M876.8,346.8c-0.2-3.2-2.6-5.8-6-5.8c-3.5,0-5.7,2.6-5.9,5.8H876.8z"/>
	<path class="st3" d="M888.7,338.4h4.1v3h-4.1v12.8c0,1.6,0.4,1.8,2.6,1.8h1.6v3h-2.6c-3.5,0-4.9-0.7-4.9-4.5v-13.2h-3.5v-3h3.5
		v-6.2h3.4V338.4z"/>
	<path class="st3" d="M916.6,337.9c6.6,0,10,4.8,10,10.8c0,6-3.5,10.8-10,10.8s-10-4.8-10-10.8C906.6,342.7,910,337.9,916.6,337.9z
		 M916.6,356.6c3.6,0,6.4-2.8,6.4-7.8s-2.9-7.8-6.4-7.8s-6.4,2.8-6.4,7.8S913,356.6,916.6,356.6z"/>
	<path class="st3" d="M930.5,338.4h3.2v4.4h0.1c1.6-3.4,3.9-5,7.6-4.8v3.6c-5.5,0-7.5,3.1-7.5,8.4v9.2h-3.4V338.4z"/>
	<path class="st3" d="M972.7,352.5c-0.9,4.6-4.2,7-8.8,7c-6.6,0-9.7-4.6-9.9-10.9c0-6.2,4.1-10.8,9.7-10.8c7.3,0,9.6,6.8,9.4,11.8
		h-15.5c-0.1,3.6,1.9,6.8,6.4,6.8c2.8,0,4.8-1.3,5.4-4H972.7z M969.4,346.8c-0.2-3.2-2.6-5.8-6-5.8c-3.5,0-5.7,2.6-5.9,5.8H969.4z"
		/>
	<path class="st3" d="M982.1,348.2l-7.2-9.8h4.4l5,7.2l5.2-7.2h4.1l-7.1,9.5l8,11.2H990l-5.8-8.6l-5.8,8.6h-4.1L982.1,348.2z"/>
	<path class="st3" d="M1011.3,345c-0.5-2.6-2.3-4.1-5.1-4.1c-4.9,0-6.4,3.9-6.4,8.1c0,3.8,1.7,7.6,6,7.6c3.3,0,5.2-1.9,5.7-5h3.5
		c-0.8,5.1-3.9,8-9.1,8c-6.3,0-9.7-4.4-9.7-10.6c0-6.2,3.2-11.1,9.8-11.1c4.7,0,8.4,2.2,8.9,7.1H1011.3z"/>
	<path class="st3" d="M1036.4,352.5c-0.9,4.6-4.2,7-8.8,7c-6.6,0-9.7-4.6-9.9-10.9c0-6.2,4.1-10.8,9.7-10.8c7.3,0,9.6,6.8,9.4,11.8
		h-15.5c-0.1,3.6,1.9,6.8,6.4,6.8c2.8,0,4.8-1.3,5.4-4H1036.4z M1033.1,346.8c-0.2-3.2-2.6-5.8-6-5.8c-3.5,0-5.7,2.6-5.9,5.8H1033.1
		z"/>
	<path class="st3" d="M1057.9,352.5c-0.9,4.6-4.2,7-8.8,7c-6.6,0-9.7-4.6-9.9-10.9c0-6.2,4.1-10.8,9.7-10.8c7.3,0,9.6,6.8,9.4,11.8
		h-15.5c-0.1,3.6,1.9,6.8,6.4,6.8c2.8,0,4.8-1.3,5.4-4H1057.9z M1054.6,346.8c-0.2-3.2-2.6-5.8-6-5.8c-3.5,0-5.7,2.6-5.9,5.8H1054.6
		z"/>
	<path class="st3" d="M1080.2,359.1h-3.4v-2.8h-0.1c-1.1,2.3-3.7,3.3-6.6,3.3c-6.4,0-9.5-5-9.5-10.9c0-5.8,3.1-10.8,9.4-10.8
		c2.1,0,5.2,0.8,6.7,3.2h0.1v-10.6h3.4V359.1z M1070.6,356.6c4.6,0,6.3-4,6.3-7.8c0-4-1.8-7.8-6.5-7.8c-4.6,0-6.2,4-6.2,8
		C1064.2,352.8,1066.2,356.6,1070.6,356.6z"/>
	<path class="st3" d="M359.4,399c-0.5-2.6-2.3-4.1-5.1-4.1c-4.9,0-6.4,3.9-6.4,8.1c0,3.8,1.7,7.6,6,7.6c3.3,0,5.2-1.9,5.7-5h3.5
		c-0.8,5.1-3.9,8-9.1,8c-6.3,0-9.7-4.4-9.7-10.6c0-6.2,3.2-11.1,9.8-11.1c4.7,0,8.4,2.2,8.9,7.1H359.4z"/>
	<path class="st3" d="M383.9,413.1h-3.2v-3.3h-0.1c-1.4,2.6-3.7,3.8-6.7,3.8c-5.4,0-7.1-3.1-7.1-7.6v-13.6h3.4v14
		c0,2.6,1.6,4.2,4.2,4.2c4.1,0,6.1-2.8,6.1-6.5v-11.7h3.4V413.1z"/>
	<path class="st3" d="M391.1,406.6c0.1,3,2.8,4,5.6,4c2.1,0,5-0.5,5-3.1c0-5.3-13.5-1.7-13.5-9.7c0-4.2,4.1-5.9,7.7-5.9
		c4.6,0,8.2,1.4,8.5,6.5H401c-0.2-2.6-2.6-3.5-4.8-3.5c-2,0-4.4,0.6-4.4,2.6c0,2.4,3.6,2.9,6.8,3.6c3.4,0.8,6.8,1.9,6.8,5.9
		c0,5-4.6,6.5-8.8,6.5c-4.6,0-8.6-1.9-8.8-7H391.1z"/>
	<path class="st3" d="M413.8,392.4h4.1v3h-4.1v12.8c0,1.6,0.4,1.8,2.6,1.8h1.6v3h-2.6c-3.5,0-4.9-0.7-4.9-4.5v-13.2h-3.5v-3h3.5
		v-6.2h3.4V392.4z"/>
	<path class="st3" d="M430.6,391.9c6.6,0,10,4.8,10,10.8c0,6-3.5,10.8-10,10.8s-10-4.8-10-10.8C420.5,396.7,424,391.9,430.6,391.9z
		 M430.6,410.6c3.6,0,6.4-2.8,6.4-7.8s-2.9-7.8-6.4-7.8s-6.4,2.8-6.4,7.8S427,410.6,430.6,410.6z"/>
	<path class="st3" d="M444.6,392.4h3.2v3h0.1c1.6-2.4,3.8-3.5,6.7-3.5c2.6,0,4.8,1,5.7,3.5c1.4-2.2,3.8-3.5,6.5-3.5
		c4.1,0,6.9,1.7,6.9,6v15.2h-3.4v-13.6c0-2.6-0.7-4.6-4-4.6c-3.3,0-5.4,2.1-5.4,5.3v12.9h-3.4v-13.6c0-2.7-0.8-4.6-3.9-4.6
		c-4,0-5.5,3.7-5.5,5.3v12.9h-3.4V392.4z"/>
	<path class="st3" d="M496.4,406.5c-0.9,4.6-4.2,7-8.8,7c-6.6,0-9.7-4.6-9.9-10.9c0-6.2,4.1-10.8,9.7-10.8c7.3,0,9.6,6.8,9.4,11.8
		h-15.5c-0.1,3.6,1.9,6.8,6.4,6.8c2.8,0,4.8-1.3,5.4-4H496.4z M493.1,400.8c-0.2-3.2-2.6-5.8-6-5.8c-3.5,0-5.7,2.6-5.9,5.8H493.1z"
		/>
	<path class="st3" d="M500.1,392.4h3.2v4.4h0.1c1.6-3.4,3.9-5,7.6-4.8v3.6c-5.5,0-7.5,3.1-7.5,8.4v9.2h-3.4V392.4z"/>
	<path class="st3" d="M515.6,406.6c0.1,3,2.8,4,5.6,4c2.1,0,5-0.5,5-3.1c0-5.3-13.5-1.7-13.5-9.7c0-4.2,4.1-5.9,7.7-5.9
		c4.6,0,8.2,1.4,8.5,6.5h-3.4c-0.2-2.6-2.6-3.5-4.8-3.5c-2,0-4.4,0.6-4.4,2.6c0,2.4,3.6,2.9,6.8,3.6c3.4,0.8,6.8,1.9,6.8,5.9
		c0,5-4.6,6.5-8.8,6.5c-4.6,0-8.6-1.9-8.8-7H515.6z"/>
	<path class="st3" d="M534.3,384.5h4.4v4.4c0,3.2-1.4,5.9-4.4,5.9v-2c1.8,0,2.3-2,2.3-3.9h-2.4V384.5z"/>
	<path class="st3" d="M573.4,406.5c-0.9,4.6-4.2,7-8.8,7c-6.6,0-9.7-4.6-9.9-10.9c0-6.2,4.1-10.8,9.7-10.8c7.3,0,9.6,6.8,9.4,11.8
		h-15.5c-0.1,3.6,1.9,6.8,6.4,6.8c2.8,0,4.8-1.3,5.4-4H573.4z M570.1,400.8c-0.2-3.2-2.6-5.8-6-5.8c-3.5,0-5.7,2.6-5.9,5.8H570.1z"
		/>
	<path class="st3" d="M582.8,402.2l-7.2-9.8h4.4l5,7.2l5.2-7.2h4.1l-7.1,9.5l8,11.2h-4.4l-5.8-8.6l-5.8,8.6H575L582.8,402.2z"/>
	<path class="st3" d="M598.1,392.4h3.4v2.8h0.1c1.1-2.3,3.7-3.3,6.6-3.3c6.4,0,9.5,5,9.5,10.9c0,5.9-3.1,10.8-9.4,10.8
		c-2.1,0-5.2-0.8-6.7-3.2h-0.1V421h-3.4V392.4z M607.7,394.9c-4.6,0-6.3,4-6.3,7.8c0,4,1.8,7.8,6.5,7.8c4.6,0,6.2-4,6.2-8
		C614.1,398.7,612.1,394.9,607.7,394.9z"/>
	<path class="st3" d="M639.3,406.5c-0.9,4.6-4.2,7-8.8,7c-6.6,0-9.7-4.6-9.9-10.9c0-6.2,4.1-10.8,9.7-10.8c7.3,0,9.6,6.8,9.4,11.8
		h-15.5c-0.1,3.6,1.9,6.8,6.4,6.8c2.8,0,4.8-1.3,5.4-4H639.3z M636,400.8c-0.2-3.2-2.6-5.8-6-5.8c-3.5,0-5.7,2.6-5.9,5.8H636z"/>
	<path class="st3" d="M657.2,399c-0.5-2.6-2.3-4.1-5.1-4.1c-4.9,0-6.4,3.9-6.4,8.1c0,3.8,1.7,7.6,6,7.6c3.3,0,5.2-1.9,5.7-5h3.5
		c-0.8,5.1-3.9,8-9.1,8c-6.3,0-9.7-4.4-9.7-10.6c0-6.2,3.2-11.1,9.8-11.1c4.7,0,8.4,2.2,8.9,7.1H657.2z"/>
	<path class="st3" d="M669.4,392.4h4.1v3h-4.1v12.8c0,1.6,0.4,1.8,2.6,1.8h1.6v3h-2.6c-3.5,0-4.9-0.7-4.9-4.5v-13.2h-3.5v-3h3.5
		v-6.2h3.4V392.4z"/>
	<path class="st3" d="M695.6,413c-0.6,0.4-1.4,0.6-2.4,0.6c-1.8,0-2.9-1-2.9-3.2c-1.9,2.2-4.4,3.2-7.3,3.2c-3.8,0-6.8-1.6-6.8-5.8
		c0-4.7,3.5-5.7,7-6.4c3.7-0.8,7-0.4,7-3c0-3-2.5-3.4-4.6-3.4c-2.9,0-5,0.9-5.2,3.9h-3.4c0.2-5.1,4.1-6.9,8.8-6.9
		c3.7,0,7.8,0.8,7.8,5.7v10.6c0,1.6,0,2.3,1.1,2.3c0.3,0,0.7-0.1,1-0.2V413z M690,402.4c-2.6,2-10.3,0-10.3,5.1c0,2.2,1.9,3,4,3
		c4.5,0,6.3-2.8,6.3-4.7V402.4z"/>
	<path class="st3" d="M703.4,392.4h4.1v3h-4.1v12.8c0,1.6,0.4,1.8,2.6,1.8h1.6v3H705c-3.5,0-4.9-0.7-4.9-4.5v-13.2h-3.5v-3h3.5v-6.2
		h3.4V392.4z"/>
	<path class="st3" d="M714.9,388.7h-3.4v-4.2h3.4V388.7z M711.5,392.4h3.4v20.7h-3.4V392.4z"/>
	<path class="st3" d="M729.1,391.9c6.6,0,10,4.8,10,10.8c0,6-3.5,10.8-10,10.8s-10-4.8-10-10.8C719.1,396.7,722.6,391.9,729.1,391.9
		z M729.1,410.6c3.6,0,6.4-2.8,6.4-7.8s-2.9-7.8-6.4-7.8s-6.4,2.8-6.4,7.8S725.6,410.6,729.1,410.6z"/>
	<path class="st3" d="M743.2,392.4h3.2v3.3h0.1c1.4-2.6,3.7-3.8,6.7-3.8c5.4,0,7.1,3.1,7.1,7.6v13.6h-3.4v-14c0-2.6-1.6-4.2-4.2-4.2
		c-4.1,0-6.1,2.8-6.1,6.5v11.7h-3.4V392.4z"/>
	<path class="st3" d="M767.5,406.6c0.1,3,2.8,4,5.6,4c2.1,0,5-0.5,5-3.1c0-5.3-13.5-1.7-13.5-9.7c0-4.2,4.1-5.9,7.7-5.9
		c4.6,0,8.2,1.4,8.5,6.5h-3.4c-0.2-2.6-2.6-3.5-4.8-3.5c-2,0-4.4,0.6-4.4,2.6c0,2.4,3.6,2.9,6.8,3.6c3.4,0.8,6.8,1.9,6.8,5.9
		c0,5-4.6,6.5-8.8,6.5c-4.6,0-8.6-1.9-8.8-7H767.5z"/>
	<path class="st3" d="M786.2,408.6h4.4v4c0,3-1.3,5.4-4.4,6.3v-2c1.8-0.6,2.4-2.6,2.3-3.9h-2.4V408.6z"/>
	<path class="st3" d="M826.1,413.1h-3.4v-2.8h-0.1c-1.1,2.3-3.7,3.3-6.6,3.3c-6.4,0-9.5-5-9.5-10.9c0-5.8,3.1-10.8,9.4-10.8
		c2.1,0,5.2,0.8,6.7,3.2h0.1v-10.6h3.4V413.1z M816.5,410.6c4.6,0,6.3-4,6.3-7.8c0-4-1.8-7.8-6.5-7.8c-4.6,0-6.2,4-6.2,8
		C810.1,406.8,812.1,410.6,816.5,410.6z"/>
	<path class="st3" d="M849,406.5c-0.9,4.6-4.2,7-8.8,7c-6.6,0-9.7-4.6-9.9-10.9c0-6.2,4.1-10.8,9.7-10.8c7.3,0,9.6,6.8,9.4,11.8
		h-15.5c-0.1,3.6,1.9,6.8,6.4,6.8c2.8,0,4.8-1.3,5.4-4H849z M845.7,400.8c-0.2-3.2-2.6-5.8-6-5.8c-3.5,0-5.7,2.6-5.9,5.8H845.7z"/>
	<path class="st3" d="M853,384.5h3.4v28.6H853V384.5z"/>
	<path class="st3" d="M865.3,388.7h-3.4v-4.2h3.4V388.7z M861.9,392.4h3.4v20.7h-3.4V392.4z"/>
	<path class="st3" d="M879.9,413.1h-3.6l-7.7-20.7h3.8l5.8,17.2h0.1l5.6-17.2h3.6L879.9,413.1z"/>
	<path class="st3" d="M908.2,406.5c-0.9,4.6-4.2,7-8.8,7c-6.6,0-9.7-4.6-9.9-10.9c0-6.2,4.1-10.8,9.7-10.8c7.3,0,9.6,6.8,9.4,11.8
		h-15.5c-0.1,3.6,1.9,6.8,6.4,6.8c2.8,0,4.8-1.3,5.4-4H908.2z M905,400.8c-0.2-3.2-2.6-5.8-6-5.8c-3.5,0-5.7,2.6-5.9,5.8H905z"/>
	<path class="st3" d="M912,392.4h3.2v4.4h0.1c1.6-3.4,3.9-5,7.6-4.8v3.6c-5.5,0-7.5,3.1-7.5,8.4v9.2H912V392.4z"/>
	<path class="st3" d="M941.2,392.4h4.1v3h-4.1v12.8c0,1.6,0.4,1.8,2.6,1.8h1.6v3h-2.6c-3.5,0-4.9-0.7-4.9-4.5v-13.2h-3.5v-3h3.5
		v-6.2h3.4V392.4z"/>
	<path class="st3" d="M949.1,384.5h3.4v10.9h0.1c1.1-2.5,4.1-3.5,6.5-3.5c5.4,0,7.1,3.1,7.1,7.6v13.6h-3.4v-14
		c0-2.6-1.6-4.2-4.2-4.2c-4.1,0-6.1,2.8-6.1,6.5v11.7h-3.4V384.5z"/>
	<path class="st3" d="M989,406.5c-0.9,4.6-4.2,7-8.8,7c-6.6,0-9.7-4.6-9.9-10.9c0-6.2,4.1-10.8,9.7-10.8c7.3,0,9.6,6.8,9.4,11.8
		h-15.5c-0.1,3.6,1.9,6.8,6.4,6.8c2.8,0,4.8-1.3,5.4-4H989z M985.7,400.8c-0.2-3.2-2.6-5.8-6-5.8c-3.5,0-5.7,2.6-5.9,5.8H985.7z"/>
	<path class="st3" d="M348.9,442.7h-3.4v-4.2h3.4V442.7z M345.5,446.4h3.4v20.7h-3.4V446.4z"/>
	<path class="st3" d="M354.2,446.4h3.2v3.3h0.1c1.4-2.6,3.7-3.8,6.7-3.8c5.4,0,7.1,3.1,7.1,7.6v13.6h-3.4v-14c0-2.6-1.6-4.2-4.2-4.2
		c-4.1,0-6.1,2.8-6.1,6.5v11.7h-3.4V446.4z"/>
	<path class="st3" d="M381.2,446.4h4.1v3h-4.1v12.8c0,1.6,0.4,1.8,2.6,1.8h1.6v3h-2.6c-3.5,0-4.9-0.7-4.9-4.5v-13.2h-3.5v-3h3.5
		v-6.2h3.4V446.4z"/>
	<path class="st3" d="M406.7,460.5c-0.9,4.6-4.2,7-8.8,7c-6.6,0-9.7-4.6-9.9-10.9c0-6.2,4.1-10.8,9.7-10.8c7.3,0,9.6,6.8,9.4,11.8
		h-15.5c-0.1,3.6,1.9,6.8,6.4,6.8c2.8,0,4.8-1.3,5.4-4H406.7z M403.4,454.8c-0.2-3.2-2.6-5.8-6-5.8c-3.5,0-5.7,2.6-5.9,5.8H403.4z"
		/>
	<path class="st3" d="M410.5,446.4h3.2v3.3h0.1c1.4-2.6,3.7-3.8,6.7-3.8c5.4,0,7.1,3.1,7.1,7.6v13.6h-3.4v-14c0-2.6-1.6-4.2-4.2-4.2
		c-4.1,0-6.1,2.8-6.1,6.5v11.7h-3.4V446.4z"/>
	<path class="st3" d="M451.2,467.1h-3.4v-2.8h-0.1c-1.1,2.3-3.7,3.3-6.6,3.3c-6.4,0-9.5-5-9.5-10.9c0-5.8,3.1-10.8,9.4-10.8
		c2.1,0,5.2,0.8,6.7,3.2h0.1v-10.6h3.4V467.1z M441.6,464.6c4.6,0,6.3-4,6.3-7.8c0-4-1.8-7.8-6.5-7.8c-4.6,0-6.2,4-6.2,8
		C435.2,460.8,437.2,464.6,441.6,464.6z"/>
	<path class="st3" d="M474.1,460.5c-0.9,4.6-4.2,7-8.8,7c-6.6,0-9.7-4.6-9.9-10.9c0-6.2,4.1-10.8,9.7-10.8c7.3,0,9.6,6.8,9.4,11.8
		H459c-0.1,3.6,1.9,6.8,6.4,6.8c2.8,0,4.8-1.3,5.4-4H474.1z M470.8,454.8c-0.2-3.2-2.6-5.8-6-5.8c-3.5,0-5.7,2.6-5.9,5.8H470.8z"/>
	<path class="st3" d="M496.4,467.1H493v-2.8H493c-1.1,2.3-3.7,3.3-6.6,3.3c-6.4,0-9.5-5-9.5-10.9c0-5.8,3.1-10.8,9.4-10.8
		c2.1,0,5.2,0.8,6.7,3.2h0.1v-10.6h3.4V467.1z M486.8,464.6c4.6,0,6.3-4,6.3-7.8c0-4-1.8-7.8-6.5-7.8c-4.6,0-6.2,4-6.2,8
		C480.4,460.8,482.4,464.6,486.8,464.6z"/>
	<path class="st3" d="M525.4,437.8c9.1,0,13.7,7.2,13.7,15c0,7.8-4.6,15-13.7,15c-9.1,0-13.7-7.2-13.7-15
		C511.8,445,516.4,437.8,525.4,437.8z M525.4,464.6c7,0,9.9-6,9.9-11.8c0-5.8-2.9-11.8-9.9-11.8c-7,0-9.9,6-9.9,11.8
		C515.6,458.6,518.5,464.6,525.4,464.6z"/>
	<path class="st3" d="M544.6,449.4h-3.5v-3h3.5v-3.1c0-3.4,2-5.1,5.7-5.1c0.6,0,1.6,0.1,2.2,0.3v3c-0.6-0.2-1.3-0.3-1.9-0.3
		c-1.6,0-2.6,0.5-2.6,2.3v2.9h4v3h-4v17.7h-3.4V449.4z"/>
	<path class="st3" d="M556.4,449.4H553v-3h3.5v-3.1c0-3.4,2-5.1,5.7-5.1c0.6,0,1.6,0.1,2.2,0.3v3c-0.6-0.2-1.3-0.3-1.9-0.3
		c-1.6,0-2.6,0.5-2.6,2.3v2.9h4v3h-4v17.7h-3.4V449.4z"/>
	<path class="st3" d="M584.5,460.5c-0.9,4.6-4.2,7-8.8,7c-6.6,0-9.7-4.6-9.9-10.9c0-6.2,4.1-10.8,9.7-10.8c7.3,0,9.6,6.8,9.4,11.8
		h-15.5c-0.1,3.6,1.9,6.8,6.4,6.8c2.8,0,4.8-1.3,5.4-4H584.5z M581.2,454.8c-0.2-3.2-2.6-5.8-6-5.8c-3.5,0-5.7,2.6-5.9,5.8H581.2z"
		/>
	<path class="st3" d="M588.2,446.4h3.2v4.4h0.1c1.6-3.4,3.9-5,7.6-4.8v3.6c-5.5,0-7.5,3.1-7.5,8.4v9.2h-3.4V446.4z"/>
	<path class="st3" d="M605.3,442.7h-3.4v-4.2h3.4V442.7z M601.9,446.4h3.4v20.7h-3.4V446.4z"/>
	<path class="st3" d="M610.6,446.4h3.2v3.3h0.1c1.4-2.6,3.7-3.8,6.7-3.8c5.4,0,7.1,3.1,7.1,7.6v13.6h-3.4v-14c0-2.6-1.6-4.2-4.2-4.2
		c-4.1,0-6.1,2.8-6.1,6.5v11.7h-3.4V446.4z"/>
	<path class="st3" d="M650.6,465.3c0,6.8-3,10.2-9.6,10.2c-3.9,0-8.4-1.6-8.6-6.1h3.4c0.1,2.4,3.2,3.4,5.4,3.4
		c4.4,0,6.2-3.2,6.2-7.8v-1.4h-0.1c-1.2,2.5-3.8,3.8-6.4,3.8c-6.2,0-9.2-4.8-9.2-10.5c0-4.9,2.4-10.9,9.6-10.9
		c2.6,0,4.9,1.2,6.2,3.4h0v-3h3.2V465.3z M647.3,456.3c0-3.6-1.6-7.4-5.9-7.4c-4.4,0-6.1,3.6-6.1,7.5c0,3.7,1.4,7.9,5.8,7.9
		C645.6,464.3,647.3,460.2,647.3,456.3z"/>
	<path class="st3" d="M684,467.1h-3.2v-3.3h-0.1c-1.4,2.6-3.7,3.8-6.7,3.8c-5.4,0-7.1-3.1-7.1-7.6v-13.6h3.4v14
		c0,2.6,1.6,4.2,4.2,4.2c4.1,0,6.1-2.8,6.1-6.5v-11.7h3.4V467.1z"/>
	<path class="st3" d="M691.2,460.6c0.1,3,2.8,4,5.6,4c2.1,0,5-0.5,5-3.1c0-5.3-13.5-1.7-13.5-9.7c0-4.2,4.1-5.9,7.7-5.9
		c4.6,0,8.2,1.4,8.5,6.5H701c-0.2-2.6-2.6-3.5-4.8-3.5c-2,0-4.4,0.6-4.4,2.6c0,2.4,3.6,2.9,6.8,3.6c3.4,0.8,6.8,1.9,6.8,5.9
		c0,5-4.6,6.5-8.8,6.5c-4.6,0-8.6-1.9-8.8-7H691.2z"/>
	<path class="st3" d="M726.8,460.5c-0.9,4.6-4.2,7-8.8,7c-6.6,0-9.7-4.6-9.9-10.9c0-6.2,4.1-10.8,9.7-10.8c7.3,0,9.6,6.8,9.4,11.8
		h-15.5c-0.1,3.6,1.9,6.8,6.4,6.8c2.8,0,4.8-1.3,5.4-4H726.8z M723.5,454.8c-0.2-3.2-2.6-5.8-6-5.8c-3.5,0-5.7,2.6-5.9,5.8H723.5z"
		/>
	<path class="st3" d="M731.4,462.6h4.4v4c0,3-1.3,5.4-4.4,6.3v-2c1.8-0.6,2.4-2.6,2.3-3.9h-2.4V462.6z"/>
	<path class="st3" d="M771.2,467c-0.6,0.4-1.4,0.6-2.4,0.6c-1.8,0-2.9-1-2.9-3.2c-1.9,2.2-4.4,3.2-7.3,3.2c-3.8,0-6.8-1.6-6.8-5.8
		c0-4.7,3.5-5.7,7-6.4c3.7-0.8,7-0.4,7-3c0-3-2.5-3.4-4.6-3.4c-2.9,0-5,0.9-5.2,3.9h-3.4c0.2-5.1,4.1-6.9,8.8-6.9
		c3.7,0,7.8,0.8,7.8,5.7v10.6c0,1.6,0,2.3,1.1,2.3c0.3,0,0.7-0.1,1-0.2V467z M765.6,456.4c-2.6,2-10.3,0-10.3,5.1c0,2.2,1.9,3,4,3
		c4.5,0,6.3-2.8,6.3-4.7V456.4z"/>
	<path class="st3" d="M774.3,446.4h3.2v3.3h0.1c1.4-2.6,3.7-3.8,6.7-3.8c5.4,0,7.1,3.1,7.1,7.6v13.6H788v-14c0-2.6-1.6-4.2-4.2-4.2
		c-4.1,0-6.1,2.8-6.1,6.5v11.7h-3.4V446.4z"/>
	<path class="st3" d="M815,467.1h-3.4v-2.8h-0.1c-1.1,2.3-3.7,3.3-6.6,3.3c-6.4,0-9.5-5-9.5-10.9c0-5.8,3.1-10.8,9.4-10.8
		c2.1,0,5.2,0.8,6.7,3.2h0.1v-10.6h3.4V467.1z M805.4,464.6c4.6,0,6.3-4,6.3-7.8c0-4-1.8-7.8-6.5-7.8c-4.6,0-6.2,4-6.2,8
		C799,460.8,801,464.6,805.4,464.6z"/>
	<path class="st3" d="M849,460.5c-0.9,4.6-4.2,7-8.8,7c-6.6,0-9.7-4.6-9.9-10.9c0-6.2,4.1-10.8,9.7-10.8c7.3,0,9.6,6.8,9.4,11.8
		h-15.5c-0.1,3.6,1.9,6.8,6.4,6.8c2.8,0,4.8-1.3,5.4-4H849z M845.8,454.8c-0.2-3.2-2.6-5.8-6-5.8c-3.5,0-5.7,2.6-5.9,5.8H845.8z"/>
	<path class="st3" d="M852.9,446.4h3.2v3.3h0.1c1.4-2.6,3.7-3.8,6.7-3.8c5.4,0,7.1,3.1,7.1,7.6v13.6h-3.4v-14c0-2.6-1.6-4.2-4.2-4.2
		c-4.1,0-6.1,2.8-6.1,6.5v11.7h-3.4V446.4z"/>
	<path class="st3" d="M877.2,460.6c0.1,3,2.8,4,5.6,4c2.1,0,5-0.5,5-3.1c0-5.3-13.5-1.7-13.5-9.7c0-4.2,4.1-5.9,7.7-5.9
		c4.6,0,8.2,1.4,8.5,6.5H887c-0.2-2.6-2.6-3.5-4.8-3.5c-2,0-4.4,0.6-4.4,2.6c0,2.4,3.6,2.9,6.8,3.6c3.4,0.8,6.8,1.9,6.8,5.9
		c0,5-4.6,6.5-8.8,6.5c-4.6,0-8.6-1.9-8.8-7H877.2z"/>
	<path class="st3" d="M912.2,467.1H909v-3.3H909c-1.4,2.6-3.7,3.8-6.7,3.8c-5.4,0-7.1-3.1-7.1-7.6v-13.6h3.4v14
		c0,2.6,1.6,4.2,4.2,4.2c4.1,0,6.1-2.8,6.1-6.5v-11.7h3.4V467.1z"/>
	<path class="st3" d="M917.2,446.4h3.2v4.4h0.1c1.6-3.4,3.9-5,7.6-4.8v3.6c-5.5,0-7.5,3.1-7.5,8.4v9.2h-3.4V446.4z"/>
	<path class="st3" d="M948.3,460.5c-0.9,4.6-4.2,7-8.8,7c-6.6,0-9.7-4.6-9.9-10.9c0-6.2,4.1-10.8,9.7-10.8c7.3,0,9.6,6.8,9.4,11.8
		h-15.5c-0.1,3.6,1.9,6.8,6.4,6.8c2.8,0,4.8-1.3,5.4-4H948.3z M945,454.8c-0.2-3.2-2.6-5.8-6-5.8c-3.5,0-5.7,2.6-5.9,5.8H945z"/>
	<path class="st3" d="M968,446.4h4.1v3H968v12.8c0,1.6,0.4,1.8,2.6,1.8h1.6v3h-2.6c-3.5,0-4.9-0.7-4.9-4.5v-13.2h-3.5v-3h3.5v-6.2
		h3.4V446.4z"/>
	<path class="st3" d="M975.9,438.5h3.4v10.9h0.1c1.1-2.5,4.1-3.5,6.5-3.5c5.4,0,7.1,3.1,7.1,7.6v13.6h-3.4v-14
		c0-2.6-1.6-4.2-4.2-4.2c-4.1,0-6.1,2.8-6.1,6.5v11.7h-3.4V438.5z"/>
	<path class="st3" d="M1015.8,460.5c-0.9,4.6-4.2,7-8.8,7c-6.6,0-9.7-4.6-9.9-10.9c0-6.2,4.1-10.8,9.7-10.8c7.3,0,9.6,6.8,9.4,11.8
		h-15.5c-0.1,3.6,1.9,6.8,6.4,6.8c2.8,0,4.8-1.3,5.4-4H1015.8z M1012.5,454.8c-0.2-3.2-2.6-5.8-6-5.8c-3.5,0-5.7,2.6-5.9,5.8H1012.5
		z"/>
	<path class="st3" d="M1049.2,475h-3.4v-10.7h-0.1c-1.1,2.3-3.7,3.3-6.6,3.3c-6.4,0-9.5-5-9.5-10.9c0-5.8,3.1-10.8,9.4-10.8
		c2.1,0,5.2,0.8,6.7,3.2h0.1v-2.8h3.4V475z M1039.6,464.6c4.6,0,6.3-4,6.3-7.8c0-4-1.8-7.8-6.5-7.8c-4.6,0-6.2,4-6.2,8
		C1033.2,460.8,1035.2,464.6,1039.6,464.6z"/>
	<path class="st3" d="M1071.6,467.1h-3.2v-3.3h-0.1c-1.4,2.6-3.7,3.8-6.7,3.8c-5.4,0-7.1-3.1-7.1-7.6v-13.6h3.4v14
		c0,2.6,1.6,4.2,4.2,4.2c4.1,0,6.1-2.8,6.1-6.5v-11.7h3.4V467.1z"/>
	<path class="st3" d="M1095,467c-0.6,0.4-1.4,0.6-2.4,0.6c-1.8,0-2.9-1-2.9-3.2c-1.9,2.2-4.4,3.2-7.3,3.2c-3.8,0-6.8-1.6-6.8-5.8
		c0-4.7,3.5-5.7,7-6.4c3.7-0.8,7-0.4,7-3c0-3-2.5-3.4-4.6-3.4c-2.9,0-5,0.9-5.2,3.9h-3.4c0.2-5.1,4.1-6.9,8.8-6.9
		c3.7,0,7.8,0.8,7.8,5.7v10.6c0,1.6,0,2.3,1.1,2.3c0.3,0,0.7-0.1,1-0.2V467z M1089.5,456.4c-2.6,2-10.3,0-10.3,5.1c0,2.2,1.9,3,4,3
		c4.5,0,6.3-2.8,6.3-4.7V456.4z"/>
	<path class="st3" d="M1098.4,438.5h3.4v28.6h-3.4V438.5z"/>
	<path class="st3" d="M1110.6,442.7h-3.4v-4.2h3.4V442.7z M1107.2,446.4h3.4v20.7h-3.4V446.4z"/>
	<path class="st3" d="M1120.6,446.4h4.1v3h-4.1v12.8c0,1.6,0.4,1.8,2.6,1.8h1.6v3h-2.6c-3.5,0-4.9-0.7-4.9-4.5v-13.2h-3.5v-3h3.5
		v-6.2h3.4V446.4z"/>
	<path class="st3" d="M1136.6,469.8c-1.6,4-3,5.5-6,5.5c-0.8,0-1.6-0.1-2.4-0.4v-3.1c0.6,0.2,1.3,0.5,2,0.5c1.4,0,2.2-0.6,2.8-1.9
		l1.4-3.5l-8.2-20.6h3.8l6,16.9h0.1l5.8-16.9h3.6L1136.6,469.8z"/>
	<path class="st3" d="M1149.3,462.6h4.4v4c0,3-1.3,5.4-4.4,6.3v-2c1.8-0.6,2.4-2.6,2.3-3.9h-2.4V462.6z"/>
	<path class="st3" d="M347.4,514.6c0.1,3,2.8,4,5.6,4c2.1,0,5-0.5,5-3.1c0-5.3-13.5-1.7-13.5-9.7c0-4.2,4.1-5.9,7.7-5.9
		c4.6,0,8.2,1.4,8.5,6.5h-3.4c-0.2-2.6-2.6-3.5-4.8-3.5c-2,0-4.4,0.6-4.4,2.6c0,2.4,3.6,2.9,6.8,3.6c3.4,0.8,6.8,1.9,6.8,5.9
		c0,5-4.6,6.5-8.8,6.5c-4.6,0-8.6-1.9-8.8-7H347.4z"/>
	<path class="st3" d="M383.6,521c-0.6,0.4-1.4,0.6-2.4,0.6c-1.8,0-2.9-1-2.9-3.2c-1.9,2.2-4.4,3.2-7.3,3.2c-3.8,0-6.8-1.6-6.8-5.8
		c0-4.7,3.5-5.7,7-6.4c3.7-0.8,7-0.4,7-3c0-3-2.5-3.4-4.6-3.4c-2.9,0-5,0.9-5.2,3.9H365c0.2-5.1,4.1-6.9,8.8-6.9
		c3.7,0,7.8,0.8,7.8,5.7v10.6c0,1.6,0,2.3,1.1,2.3c0.3,0,0.7-0.1,1-0.2V521z M378.1,510.4c-2.6,2-10.3,0-10.3,5.1c0,2.2,1.9,3,4,3
		c4.5,0,6.3-2.8,6.3-4.7V510.4z"/>
	<path class="st3" d="M388.2,503.4h-3.5v-3h3.5v-3.1c0-3.4,2-5.1,5.7-5.1c0.6,0,1.6,0.1,2.2,0.3v3c-0.6-0.2-1.3-0.3-1.9-0.3
		c-1.6,0-2.6,0.5-2.6,2.3v2.9h4v3h-4v17.7h-3.4V503.4z"/>
	<path class="st3" d="M416.3,514.5c-0.9,4.6-4.2,7-8.8,7c-6.6,0-9.7-4.6-9.9-10.9c0-6.2,4.1-10.8,9.7-10.8c7.3,0,9.6,6.8,9.4,11.8
		h-15.5c-0.1,3.6,1.9,6.8,6.4,6.8c2.8,0,4.8-1.3,5.4-4H416.3z M413,508.8c-0.2-3.2-2.6-5.8-6-5.8c-3.5,0-5.7,2.6-5.9,5.8H413z"/>
	<path class="st3" d="M424.8,500.4h4.1v3h-4.1v12.8c0,1.6,0.4,1.8,2.6,1.8h1.6v3h-2.6c-3.5,0-4.9-0.7-4.9-4.5v-13.2h-3.5v-3h3.5
		v-6.2h3.4V500.4z"/>
	<path class="st3" d="M440.8,523.8c-1.6,4-3,5.5-6,5.5c-0.8,0-1.6-0.1-2.4-0.4v-3.1c0.6,0.2,1.3,0.5,2,0.5c1.4,0,2.2-0.6,2.8-1.9
		l1.4-3.5l-8.2-20.6h3.8l6,16.9h0.1l5.8-16.9h3.6L440.8,523.8z"/>
	<path class="st3" d="M482.2,521c-0.6,0.4-1.4,0.6-2.4,0.6c-1.8,0-2.9-1-2.9-3.2c-1.9,2.2-4.4,3.2-7.3,3.2c-3.8,0-6.8-1.6-6.8-5.8
		c0-4.7,3.5-5.7,7-6.4c3.7-0.8,7-0.4,7-3c0-3-2.5-3.4-4.6-3.4c-2.9,0-5,0.9-5.2,3.9h-3.4c0.2-5.1,4.1-6.9,8.8-6.9
		c3.7,0,7.8,0.8,7.8,5.7v10.6c0,1.6,0,2.3,1.1,2.3c0.3,0,0.7-0.1,1-0.2V521z M476.6,510.4c-2.6,2-10.3,0-10.3,5.1c0,2.2,1.9,3,4,3
		c4.5,0,6.3-2.8,6.3-4.7V510.4z"/>
	<path class="st3" d="M485.3,500.4h3.2v3.3h0.1c1.4-2.6,3.7-3.8,6.7-3.8c5.4,0,7.1,3.1,7.1,7.6v13.6H499v-14c0-2.6-1.6-4.2-4.2-4.2
		c-4.1,0-6.1,2.8-6.1,6.5v11.7h-3.4V500.4z"/>
	<path class="st3" d="M526,521.1h-3.4v-2.8h-0.1c-1.1,2.3-3.7,3.3-6.6,3.3c-6.4,0-9.5-5-9.5-10.9c0-5.8,3.1-10.8,9.4-10.8
		c2.1,0,5.2,0.8,6.7,3.2h0.1v-10.6h3.4V521.1z M516.4,518.6c4.6,0,6.3-4,6.3-7.8c0-4-1.8-7.8-6.5-7.8c-4.6,0-6.2,4-6.2,8
		C510,514.8,512,518.6,516.4,518.6z"/>
	<path class="st3" d="M560,514.5c-0.9,4.6-4.2,7-8.8,7c-6.6,0-9.7-4.6-9.9-10.9c0-6.2,4.1-10.8,9.7-10.8c7.3,0,9.6,6.8,9.4,11.8
		h-15.5c-0.1,3.6,1.9,6.8,6.4,6.8c2.8,0,4.8-1.3,5.4-4H560z M556.8,508.8c-0.2-3.2-2.6-5.8-6-5.8c-3.5,0-5.7,2.6-5.9,5.8H556.8z"/>
	<path class="st3" d="M565.3,503.4h-3.5v-3h3.5v-3.1c0-3.4,2-5.1,5.7-5.1c0.6,0,1.6,0.1,2.2,0.3v3c-0.6-0.2-1.3-0.3-1.9-0.3
		c-1.6,0-2.6,0.5-2.6,2.3v2.9h4v3h-4v17.7h-3.4V503.4z"/>
	<path class="st3" d="M577.1,503.4h-3.5v-3h3.5v-3.1c0-3.4,2-5.1,5.7-5.1c0.6,0,1.6,0.1,2.2,0.3v3c-0.6-0.2-1.3-0.3-1.9-0.3
		c-1.6,0-2.6,0.5-2.6,2.3v2.9h4v3h-4v17.7h-3.4V503.4z"/>
	<path class="st3" d="M605.2,514.5c-0.9,4.6-4.2,7-8.8,7c-6.6,0-9.7-4.6-9.9-10.9c0-6.2,4.1-10.8,9.7-10.8c7.3,0,9.6,6.8,9.4,11.8
		H590c-0.1,3.6,1.9,6.8,6.4,6.8c2.8,0,4.8-1.3,5.4-4H605.2z M601.9,508.8c-0.2-3.2-2.6-5.8-6-5.8c-3.5,0-5.7,2.6-5.9,5.8H601.9z"/>
	<path class="st3" d="M623.1,507c-0.5-2.6-2.3-4.1-5.1-4.1c-4.9,0-6.4,3.9-6.4,8.1c0,3.8,1.7,7.6,6,7.6c3.3,0,5.2-1.9,5.7-5h3.5
		c-0.8,5.1-3.9,8-9.1,8c-6.3,0-9.7-4.4-9.7-10.6s3.2-11.1,9.8-11.1c4.7,0,8.4,2.2,8.9,7.1H623.1z"/>
	<path class="st3" d="M635.2,500.4h4.1v3h-4.1v12.8c0,1.6,0.4,1.8,2.6,1.8h1.6v3h-2.6c-3.5,0-4.9-0.7-4.9-4.5v-13.2h-3.5v-3h3.5
		v-6.2h3.4V500.4z"/>
	<path class="st3" d="M646.7,496.7h-3.4v-4.2h3.4V496.7z M643.3,500.4h3.4v20.7h-3.4V500.4z"/>
	<path class="st3" d="M661.3,521.1h-3.6l-7.7-20.7h3.8l5.8,17.2h0.1l5.6-17.2h3.6L661.3,521.1z"/>
	<path class="st3" d="M689.6,514.5c-0.9,4.6-4.2,7-8.8,7c-6.6,0-9.7-4.6-9.9-10.9c0-6.2,4.1-10.8,9.7-10.8c7.3,0,9.6,6.8,9.4,11.8
		h-15.5c-0.1,3.6,1.9,6.8,6.4,6.8c2.8,0,4.8-1.3,5.4-4H689.6z M686.4,508.8c-0.2-3.2-2.6-5.8-6-5.8c-3.5,0-5.7,2.6-5.9,5.8H686.4z"
		/>
	<path class="st3" d="M693.5,500.4h3.2v3.3h0.1c1.4-2.6,3.7-3.8,6.7-3.8c5.4,0,7.1,3.1,7.1,7.6v13.6h-3.4v-14c0-2.6-1.6-4.2-4.2-4.2
		c-4.1,0-6.1,2.8-6.1,6.5v11.7h-3.4V500.4z"/>
	<path class="st3" d="M733.4,514.5c-0.9,4.6-4.2,7-8.8,7c-6.6,0-9.7-4.6-9.9-10.9c0-6.2,4.1-10.8,9.7-10.8c7.3,0,9.6,6.8,9.4,11.8
		h-15.5c-0.1,3.6,1.9,6.8,6.4,6.8c2.8,0,4.8-1.3,5.4-4H733.4z M730.1,508.8c-0.2-3.2-2.6-5.8-6-5.8c-3.5,0-5.7,2.6-5.9,5.8H730.1z"
		/>
	<path class="st3" d="M739.3,514.6c0.1,3,2.8,4,5.6,4c2.1,0,5-0.5,5-3.1c0-5.3-13.5-1.7-13.5-9.7c0-4.2,4.1-5.9,7.7-5.9
		c4.6,0,8.2,1.4,8.5,6.5h-3.4c-0.2-2.6-2.6-3.5-4.8-3.5c-2,0-4.4,0.6-4.4,2.6c0,2.4,3.6,2.9,6.8,3.6c3.4,0.8,6.8,1.9,6.8,5.9
		c0,5-4.6,6.5-8.8,6.5c-4.6,0-8.6-1.9-8.8-7H739.3z"/>
	<path class="st3" d="M759.3,514.6c0.1,3,2.8,4,5.6,4c2.1,0,5-0.5,5-3.1c0-5.3-13.5-1.7-13.5-9.7c0-4.2,4.1-5.9,7.7-5.9
		c4.6,0,8.2,1.4,8.5,6.5h-3.4c-0.2-2.6-2.6-3.5-4.8-3.5c-2,0-4.4,0.6-4.4,2.6c0,2.4,3.6,2.9,6.8,3.6c3.4,0.8,6.8,1.9,6.8,5.9
		c0,5-4.6,6.5-8.8,6.5c-4.6,0-8.6-1.9-8.8-7H759.3z"/>
	<path class="st3" d="M797.2,499.9c6.6,0,10,4.8,10,10.8c0,6-3.5,10.8-10,10.8s-10-4.8-10-10.8C787.2,504.7,790.7,499.9,797.2,499.9
		z M797.2,518.6c3.6,0,6.4-2.8,6.4-7.8s-2.9-7.8-6.4-7.8s-6.4,2.8-6.4,7.8S793.7,518.6,797.2,518.6z"/>
	<path class="st3" d="M812.7,503.4h-3.5v-3h3.5v-3.1c0-3.4,2-5.1,5.7-5.1c0.6,0,1.6,0.1,2.2,0.3v3c-0.6-0.2-1.3-0.3-1.9-0.3
		c-1.6,0-2.6,0.5-2.6,2.3v2.9h4v3h-4v17.7h-3.4V503.4z"/>
	<path class="st3" d="M846.9,491.8c9.1,0,13.7,7.2,13.7,15s-4.6,15-13.7,15c-9.1,0-13.7-7.2-13.7-15S837.8,491.8,846.9,491.8z
		 M846.9,518.6c7,0,9.9-6,9.9-11.8s-2.9-11.8-9.9-11.8c-7,0-9.9,6-9.9,11.8S839.9,518.6,846.9,518.6z"/>
	<path class="st3" d="M866,503.4h-3.5v-3h3.5v-3.1c0-3.4,2-5.1,5.7-5.1c0.6,0,1.6,0.1,2.2,0.3v3c-0.6-0.2-1.3-0.3-1.9-0.3
		c-1.6,0-2.6,0.5-2.6,2.3v2.9h4v3h-4v17.7H866V503.4z"/>
	<path class="st3" d="M877.9,503.4h-3.5v-3h3.5v-3.1c0-3.4,2-5.1,5.7-5.1c0.6,0,1.6,0.1,2.2,0.3v3c-0.6-0.2-1.3-0.3-1.9-0.3
		c-1.6,0-2.6,0.5-2.6,2.3v2.9h4v3h-4v17.7h-3.4V503.4z"/>
	<path class="st3" d="M906,514.5c-0.9,4.6-4.2,7-8.8,7c-6.6,0-9.7-4.6-9.9-10.9c0-6.2,4.1-10.8,9.7-10.8c7.3,0,9.6,6.8,9.4,11.8
		h-15.5c-0.1,3.6,1.9,6.8,6.4,6.8c2.8,0,4.8-1.3,5.4-4H906z M902.7,508.8c-0.2-3.2-2.6-5.8-6-5.8c-3.5,0-5.7,2.6-5.9,5.8H902.7z"/>
	<path class="st3" d="M909.7,500.4h3.2v4.4h0.1c1.6-3.4,3.9-5,7.6-4.8v3.6c-5.5,0-7.5,3.1-7.5,8.4v9.2h-3.4V500.4z"/>
	<path class="st3" d="M926.7,496.7h-3.4v-4.2h3.4V496.7z M923.3,500.4h3.4v20.7h-3.4V500.4z"/>
	<path class="st3" d="M932,500.4h3.2v3.3h0.1c1.4-2.6,3.7-3.8,6.7-3.8c5.4,0,7.1,3.1,7.1,7.6v13.6h-3.4v-14c0-2.6-1.6-4.2-4.2-4.2
		c-4.1,0-6.1,2.8-6.1,6.5v11.7H932V500.4z"/>
	<path class="st3" d="M972.1,519.3c0,6.8-3,10.2-9.6,10.2c-3.9,0-8.4-1.6-8.6-6.1h3.4c0.1,2.4,3.2,3.4,5.4,3.4
		c4.4,0,6.2-3.2,6.2-7.8v-1.4h-0.1c-1.2,2.5-3.8,3.8-6.4,3.8c-6.2,0-9.2-4.8-9.2-10.5c0-4.9,2.4-10.9,9.6-10.9
		c2.6,0,4.9,1.2,6.2,3.4h0v-3h3.2V519.3z M968.7,510.3c0-3.6-1.6-7.4-5.9-7.4c-4.4,0-6.1,3.6-6.1,7.5c0,3.7,1.4,7.9,5.8,7.9
		C967,518.3,968.7,514.2,968.7,510.3z"/>
	<path class="st3" d="M979.3,514.6c0.1,3,2.8,4,5.6,4c2.1,0,5-0.5,5-3.1c0-5.3-13.5-1.7-13.5-9.7c0-4.2,4.1-5.9,7.7-5.9
		c4.6,0,8.2,1.4,8.5,6.5h-3.4c-0.2-2.6-2.6-3.5-4.8-3.5c-2,0-4.4,0.6-4.4,2.6c0,2.4,3.6,2.9,6.8,3.6c3.4,0.8,6.8,1.9,6.8,5.9
		c0,5-4.6,6.5-8.8,6.5c-4.6,0-8.6-1.9-8.8-7H979.3z"/>
</g>
<line class="st4" x1="53.3" y1="54.1" x2="1919.9" y2="54.1"/>
<g>
	<rect x="52.6" y="76.4" class="st2" width="1886.9" height="48.6"/>
	<path class="st5" d="M56.1,76.4h13.6c10.1,0,14.5,7.4,14.5,16.4s-4.4,16.4-14.5,16.4H56.1V76.4z M61.8,104.5h5.7
		c9,0,10.9-5.1,10.9-11.7c0-6.6-1.9-11.7-10.9-11.7h-5.7V104.5z"/>
	<path class="st5" d="M92.6,98.7c0,3.7,2,7,6.4,7c3.1,0,4.9-1.3,5.8-4h5c-1.1,5.2-5.6,8.1-10.8,8.1c-7.5,0-11.6-5.2-11.6-12.5
		c0-6.8,4.4-12.6,11.5-12.6c7.5,0,12.1,6.8,11.2,13.9H92.6z M104.9,95.2c-0.2-3.3-2.4-6.3-6-6.3c-3.6,0-6.1,2.8-6.3,6.3H104.9z"/>
	<path class="st5" d="M118.1,101.6c0.3,3.1,2.6,4.1,5.4,4.1c2,0,5.4-0.4,5.3-3.1c-0.1-2.8-4-3.1-7.8-4c-3.9-0.8-7.6-2.2-7.6-7
		c0-5.2,5.6-6.8,9.9-6.8c4.9,0,9.3,2,9.9,7.3h-5.5c-0.5-2.5-2.5-3.2-4.8-3.2c-1.5,0-4.3,0.4-4.3,2.4c0,2.6,3.9,3,7.7,3.8
		c3.8,0.9,7.7,2.3,7.7,6.9c0,5.7-5.7,7.7-10.6,7.7c-6,0-10.4-2.7-10.5-8.3H118.1z"/>
	<path class="st5" d="M138.1,76.4h5.2v5h-5.2V76.4z M138.1,85.4h5.2v23.8h-5.2V85.4z"/>
	<path class="st5" d="M171.1,108c0,7.2-4.1,10.7-11.7,10.7c-4.8,0-10.1-1.8-10.6-7.4h5.2c0.6,3,3,3.5,5.7,3.5c4.2,0,6.1-2.2,6.1-6.1
		V105h-0.1c-1.5,2.6-4.2,4.2-7.1,4.2c-7.5,0-10.7-5.7-10.7-12.5c0-6.4,4-11.9,10.8-11.9c3,0,5.7,1.2,7,3.9h0.1v-3.3h5.2V108z
		 M165.8,96.8c0-4.1-1.8-7.9-6.4-7.9c-4.6,0-6.3,4.3-6.3,8.3c0,3.9,1.9,7.9,6.3,7.9C164.1,105.1,165.8,100.9,165.8,96.8z"/>
	<path class="st5" d="M176.3,85.4h5v3.5l0.1,0.1c1.6-2.6,4.3-4.2,7.4-4.2c5.2,0,8.4,2.7,8.4,8.1v16.3H192v-15
		c-0.1-3.7-1.5-5.3-4.6-5.3c-3.5,0-5.8,2.8-5.8,6.3v14h-5.2V85.4z"/>
	<path class="st5" d="M238.4,86.8c-1-3.8-3.4-6.5-8.2-6.5c-7,0-10,6.2-10,12.5s2.9,12.5,10,12.5c5.2,0,7.9-3.8,8.4-8.6h5.6
		c-0.5,7.9-6,13.3-14,13.3c-9.8,0-15.7-7.8-15.7-17.2c0-9.3,5.9-17.2,15.7-17.2c7.5,0,13.2,4.1,13.9,11.2H238.4z"/>
	<path class="st5" d="M247.6,97.3c0-7.2,4.4-12.5,12-12.5s12,5.3,12,12.5c0,7.3-4.4,12.6-12,12.6S247.6,104.6,247.6,97.3z
		 M266.4,97.3c0-4.1-2.1-8.4-6.8-8.4s-6.8,4.3-6.8,8.4c0,4.1,2.1,8.4,6.8,8.4S266.4,101.4,266.4,97.3z"/>
	<path class="st5" d="M276,85.4h5v3.5l0.1,0.1c1.6-2.6,4.3-4.2,7.4-4.2c5.2,0,8.4,2.7,8.4,8.1v16.3h-5.2v-15
		c-0.1-3.7-1.5-5.3-4.6-5.3c-3.5,0-5.8,2.8-5.8,6.3v14H276V85.4z"/>
	<path class="st5" d="M300,85.4h4v-7.1h5.2v7.1h4.7v3.9h-4.7V102c0,2.2,0.2,3.3,2.5,3.3c0.7,0,1.5,0,2.2-0.2v4
		c-1.1,0.1-2.3,0.3-3.4,0.3c-5.5,0-6.4-2.1-6.6-6.1v-14h-4V85.4z"/>
	<path class="st5" d="M317.7,85.4h4.9V90h0.1c0.6-2.5,3.8-5.2,6.9-5.2c1.2,0,1.5,0.1,2,0.1V90c-0.7-0.1-1.5-0.2-2.3-0.2
		c-3.5,0-6.4,2.9-6.4,8.1v11.3h-5.2V85.4z"/>
	<path class="st5" d="M332.8,97.3c0-7.2,4.4-12.5,12-12.5s12,5.3,12,12.5c0,7.3-4.4,12.6-12,12.6S332.8,104.6,332.8,97.3z
		 M351.6,97.3c0-4.1-2.1-8.4-6.8-8.4s-6.8,4.3-6.8,8.4c0,4.1,2.1,8.4,6.8,8.4S351.6,101.4,351.6,97.3z"/>
	<path class="st5" d="M361.3,76.4h5.2v32.8h-5.2V76.4z"/>
</g>
<g>
	<path class="st5" d="M1468.1,557.4c-0.7,0-1.3-0.6-1.3-1.3c0-0.7,0.6-1.3,1.3-1.3c2.9,0,5.9-0.1,8.9-0.3c0.7,0,1.3,0.5,1.3,1.2
		c0,0.7-0.5,1.3-1.2,1.3C1474.1,557.3,1471.1,557.4,1468.1,557.4L1468.1,557.4L1468.1,557.4z M1459.2,557.2
		C1459.1,557.2,1459.1,557.2,1459.2,557.2c-3.1-0.1-6.1-0.4-9.1-0.7c-0.7-0.1-1.2-0.7-1.1-1.4c0.1-0.7,0.7-1.2,1.4-1.1
		c2.9,0.3,5.9,0.5,8.8,0.7c0.7,0,1.2,0.6,1.2,1.3C1460.4,556.7,1459.8,557.2,1459.2,557.2L1459.2,557.2z M1486,556.4
		c-0.6,0-1.2-0.5-1.3-1.1c-0.1-0.7,0.4-1.3,1.1-1.4c2.9-0.3,5.9-0.7,8.8-1.2c0.7-0.1,1.4,0.4,1.5,1.1c0.1,0.7-0.4,1.4-1.1,1.5
		c-2.9,0.5-6,0.9-8.9,1.2C1486.1,556.4,1486,556.4,1486,556.4L1486,556.4z M1441.4,555.4c-0.1,0-0.1,0-0.2,0c-3-0.5-5.9-1-8.9-1.7
		c-0.7-0.1-1.1-0.8-1-1.5c0.1-0.7,0.8-1.1,1.5-1c2.9,0.6,5.8,1.2,8.7,1.6c0.7,0.1,1.2,0.8,1.1,1.5
		C1442.5,554.9,1442,555.4,1441.4,555.4L1441.4,555.4z M1503.6,553.5c-0.6,0-1.1-0.4-1.2-1c-0.2-0.7,0.3-1.4,1-1.5
		c2.9-0.6,5.8-1.4,8.6-2.2c0.7-0.2,1.4,0.2,1.6,0.9c0.2,0.7-0.2,1.4-0.9,1.6c-2.9,0.8-5.8,1.5-8.7,2.2
		C1503.8,553.5,1503.7,553.5,1503.6,553.5L1503.6,553.5z M1423.9,551.6c-0.1,0-0.2,0-0.3,0c-2.9-0.8-5.8-1.7-8.6-2.6
		c-0.7-0.2-1-0.9-0.8-1.6c0.2-0.7,0.9-1,1.6-0.8c2.8,0.9,5.7,1.8,8.5,2.6c0.7,0.2,1.1,0.9,0.9,1.6
		C1425,551.3,1424.4,551.6,1423.9,551.6L1423.9,551.6z M1520.8,548.6c-0.5,0-1-0.3-1.2-0.9c-0.2-0.7,0.1-1.4,0.8-1.6
		c2.8-1,5.6-2,8.3-3.1c0.6-0.3,1.4,0,1.7,0.7c0.3,0.7-0.1,1.4-0.7,1.7c-2.8,1.1-5.6,2.2-8.5,3.1
		C1521.1,548.6,1521,548.6,1520.8,548.6L1520.8,548.6z M1406.9,546c-0.2,0-0.3,0-0.5-0.1c-2.8-1.1-5.6-2.3-8.3-3.5
		c-0.6-0.3-0.9-1.1-0.6-1.7c0.3-0.6,1-0.9,1.7-0.6c2.7,1.2,5.4,2.4,8.2,3.5c0.7,0.3,1,1,0.7,1.7C1407.9,545.7,1407.4,546,1406.9,546
		L1406.9,546z M1537.4,542c-0.5,0-0.9-0.3-1.2-0.7c-0.3-0.6,0-1.4,0.6-1.7c2.7-1.2,5.3-2.6,7.9-4c0.6-0.3,1.4-0.1,1.7,0.5
		c0.3,0.6,0.1,1.4-0.5,1.7c-2.6,1.4-5.3,2.8-8.1,4C1537.8,541.9,1537.6,542,1537.4,542L1537.4,542z M1390.6,538.5
		c-0.2,0-0.4,0-0.6-0.1c-2.7-1.4-5.3-2.9-7.9-4.4c-0.6-0.4-0.8-1.1-0.4-1.8c0.4-0.6,1.1-0.8,1.8-0.4c2.5,1.5,5.1,3,7.8,4.3
		c0.6,0.3,0.9,1.1,0.5,1.7C1391.5,538.3,1391.1,538.5,1390.6,538.5L1390.6,538.5z M1553.1,533.6c-0.4,0-0.9-0.2-1.1-0.6
		c-0.4-0.6-0.2-1.4,0.4-1.8c2.5-1.5,5-3.1,7.5-4.8c0.6-0.4,1.4-0.2,1.8,0.3c0.4,0.6,0.2,1.4-0.3,1.8c-2.5,1.7-5,3.3-7.6,4.9
		C1553.6,533.5,1553.4,533.6,1553.1,533.6L1553.1,533.6z M1375.2,529.4c-0.2,0-0.5-0.1-0.7-0.2c-2.5-1.7-5-3.4-7.3-5.2
		c-0.6-0.4-0.7-1.2-0.3-1.8c0.4-0.6,1.2-0.7,1.8-0.2c2.4,1.8,4.8,3.5,7.2,5.2c0.6,0.4,0.7,1.2,0.3,1.8
		C1376,529.2,1375.6,529.4,1375.2,529.4L1375.2,529.4z M1567.9,523.5c-0.4,0-0.8-0.2-1-0.5c-0.4-0.6-0.3-1.4,0.2-1.8
		c2.3-1.8,4.7-3.7,6.9-5.6c0.5-0.5,1.3-0.4,1.8,0.1c0.5,0.5,0.4,1.3-0.1,1.8c-2.3,1.9-4.6,3.8-7,5.7
		C1568.5,523.4,1568.2,523.5,1567.9,523.5L1567.9,523.5z M1360.9,518.6c-0.3,0-0.6-0.1-0.8-0.3c-2.3-1.9-4.6-3.9-6.7-6
		c-0.5-0.5-0.5-1.3-0.1-1.8c0.5-0.5,1.3-0.5,1.8-0.1c2.1,2,4.4,4,6.6,5.9c0.5,0.5,0.6,1.3,0.2,1.8
		C1361.7,518.4,1361.3,518.6,1360.9,518.6L1360.9,518.6z M1581.5,511.9c-0.3,0-0.7-0.1-0.9-0.4c-0.5-0.5-0.5-1.3,0-1.8
		c2.1-2,4.2-4.1,6.3-6.3c0.5-0.5,1.3-0.5,1.8-0.1c0.5,0.5,0.5,1.3,0.1,1.8c-2.1,2.2-4.2,4.3-6.4,6.4
		C1582.1,511.8,1581.8,511.9,1581.5,511.9L1581.5,511.9z M1347.9,506.4c-0.3,0-0.7-0.1-0.9-0.4c-2.1-2.2-4.1-4.4-6.1-6.7
		c-0.5-0.5-0.4-1.3,0.1-1.8c0.5-0.5,1.3-0.4,1.8,0.1c1.9,2.2,3.9,4.4,6,6.6c0.5,0.5,0.5,1.3,0,1.8
		C1348.5,506.2,1348.2,506.4,1347.9,506.4L1347.9,506.4z M1593.8,498.9c-0.3,0-0.6-0.1-0.8-0.3c-0.5-0.5-0.6-1.3-0.1-1.8
		c1.9-2.2,3.8-4.6,5.6-6.9c0.4-0.6,1.2-0.7,1.8-0.2c0.6,0.4,0.7,1.2,0.2,1.8c-1.8,2.4-3.7,4.8-5.6,7
		C1594.5,498.7,1594.2,498.9,1593.8,498.9L1593.8,498.9z M1336.2,492.8c-0.4,0-0.8-0.2-1-0.5c-1.8-2.4-3.6-4.8-5.3-7.3
		c-0.4-0.6-0.3-1.4,0.3-1.8c0.6-0.4,1.4-0.2,1.8,0.3c1.7,2.4,3.4,4.8,5.2,7.2c0.4,0.6,0.3,1.4-0.2,1.8
		C1336.8,492.7,1336.5,492.8,1336.2,492.8L1336.2,492.8z M1604.6,484.6c-0.2,0-0.5-0.1-0.7-0.2c-0.6-0.4-0.7-1.2-0.3-1.8
		c1.7-2.4,3.3-5,4.8-7.5c0.4-0.6,1.1-0.8,1.8-0.4c0.6,0.4,0.8,1.1,0.4,1.8c-1.5,2.6-3.2,5.1-4.9,7.6
		C1605.4,484.4,1605,484.6,1604.6,484.6L1604.6,484.6z M1326.1,478.1c-0.4,0-0.9-0.2-1.1-0.6c-1.6-2.6-3.1-5.2-4.5-7.8
		c-0.3-0.6-0.1-1.4,0.5-1.7c0.6-0.3,1.4-0.1,1.7,0.5c1.4,2.6,2.9,5.2,4.4,7.7c0.4,0.6,0.2,1.4-0.4,1.8
		C1326.6,478,1326.3,478.1,1326.1,478.1L1326.1,478.1z M1613.8,469.3c-0.2,0-0.4,0-0.6-0.2c-0.6-0.3-0.9-1.1-0.5-1.7
		c1.4-2.6,2.7-5.3,3.9-8c0.3-0.6,1.1-0.9,1.7-0.6c0.6,0.3,0.9,1.1,0.6,1.7c-1.3,2.7-2.6,5.4-4,8.1
		C1614.7,469,1614.3,469.3,1613.8,469.3L1613.8,469.3z M1317.6,462.4c-0.5,0-0.9-0.3-1.2-0.7c-1.3-2.7-2.5-5.5-3.6-8.2
		c-0.3-0.7,0-1.4,0.7-1.7c0.6-0.3,1.4,0,1.7,0.7c1.1,2.7,2.3,5.5,3.6,8.1c0.3,0.6,0,1.4-0.6,1.7
		C1318,462.3,1317.8,462.4,1317.6,462.4L1317.6,462.4z M1621.4,453c-0.2,0-0.3,0-0.5-0.1c-0.7-0.3-1-1-0.7-1.7
		c1.1-2.8,2.1-5.6,3.1-8.4c0.2-0.7,1-1,1.6-0.8c0.7,0.2,1,0.9,0.8,1.6c-0.9,2.8-2,5.7-3.1,8.5C1622.4,452.7,1621.9,453,1621.4,453
		L1621.4,453z M1310.9,445.8c-0.5,0-1-0.3-1.2-0.9c-1-2.8-1.9-5.7-2.7-8.6c-0.2-0.7,0.2-1.4,0.9-1.6c0.7-0.2,1.4,0.2,1.6,0.9
		c0.8,2.8,1.7,5.7,2.7,8.5c0.2,0.7-0.1,1.4-0.8,1.6C1311.2,445.8,1311,445.8,1310.9,445.8L1310.9,445.8z M1627.1,436.1
		c-0.1,0-0.2,0-0.3,0c-0.7-0.2-1.1-0.9-0.9-1.6c0.8-2.8,1.5-5.7,2.1-8.6c0.2-0.7,0.8-1.1,1.5-1c0.7,0.2,1.1,0.8,1,1.5
		c-0.6,2.9-1.4,5.9-2.2,8.8C1628.1,435.7,1627.6,436.1,1627.1,436.1L1627.1,436.1z M1306,428.6c-0.6,0-1.1-0.4-1.2-1
		c-0.7-2.9-1.3-5.9-1.8-8.8c-0.1-0.7,0.4-1.4,1-1.5c0.7-0.1,1.4,0.4,1.5,1c0.5,2.9,1.1,5.8,1.7,8.7c0.2,0.7-0.3,1.4-1,1.5
		C1306.2,428.6,1306.1,428.6,1306,428.6L1306,428.6z M1630.9,418.6c-0.1,0-0.1,0-0.2,0c-0.7-0.1-1.2-0.8-1.1-1.5
		c0.5-2.9,0.9-5.9,1.2-8.8c0.1-0.7,0.7-1.2,1.4-1.1c0.7,0.1,1.2,0.7,1.1,1.4c-0.3,3-0.7,6-1.2,8.9
		C1632,418.1,1631.5,418.6,1630.9,418.6L1630.9,418.6z M1303,411c-0.6,0-1.2-0.5-1.3-1.1c-0.3-3-0.6-6-0.8-9c0-0.7,0.5-1.3,1.2-1.4
		c0.7,0,1.3,0.5,1.4,1.2c0.2,2.9,0.4,5.9,0.8,8.8c0.1,0.7-0.4,1.3-1.1,1.4C1303.1,411,1303,411,1303,411L1303,411z M1632.8,400.8
		C1632.8,400.8,1632.7,400.8,1632.8,400.8c-0.8,0-1.3-0.6-1.3-1.3c0.2-2.9,0.2-5.9,0.2-8.9c0-0.8,0-1.7,0-2.5c0-0.7,0.6-1.3,1.3-1.3
		c0.7,0,1.3,0.6,1.3,1.3c0,0.9,0,1.7,0,2.6c0,3-0.1,6-0.2,9C1634,400.3,1633.5,400.8,1632.8,400.8L1632.8,400.8z M1301.9,393.1
		c-0.7,0-1.3-0.6-1.3-1.3l0-1.3c0-2.6,0.1-5.2,0.2-7.7c0-0.7,0.6-1.2,1.3-1.2c0.7,0,1.3,0.6,1.2,1.3c-0.1,2.5-0.2,5.1-0.2,7.6l0,1.3
		C1303.2,392.5,1302.6,393.1,1301.9,393.1C1301.9,393.1,1301.9,393.1,1301.9,393.1L1301.9,393.1z M1632.6,380.4
		c-0.7,0-1.2-0.5-1.3-1.2c-0.2-2.9-0.5-5.9-0.8-8.8c-0.1-0.7,0.4-1.3,1.1-1.4c0.7-0.1,1.3,0.4,1.4,1.1c0.4,3,0.7,6,0.9,9
		C1634,379.7,1633.4,380.3,1632.6,380.4C1632.7,380.4,1632.7,380.4,1632.6,380.4L1632.6,380.4z M1302.7,375.3c0,0-0.1,0-0.1,0
		c-0.7-0.1-1.2-0.7-1.1-1.4c0.3-3,0.7-6,1.1-8.9c0.1-0.7,0.8-1.2,1.5-1.1c0.7,0.1,1.2,0.8,1.1,1.5c-0.4,2.9-0.8,5.9-1.1,8.8
		C1303.9,374.8,1303.4,375.3,1302.7,375.3L1302.7,375.3z M1630.5,362.6c-0.6,0-1.1-0.4-1.3-1.1c-0.5-2.9-1.1-5.8-1.8-8.7
		c-0.2-0.7,0.3-1.4,1-1.5c0.7-0.2,1.4,0.3,1.5,1c0.7,2.9,1.3,5.9,1.8,8.8c0.1,0.7-0.3,1.4-1,1.5
		C1630.6,362.6,1630.5,362.6,1630.5,362.6L1630.5,362.6z M1305.5,357.6c-0.1,0-0.2,0-0.3,0c-0.7-0.1-1.1-0.8-1-1.5
		c0.6-2.9,1.3-5.9,2.1-8.8c0.2-0.7,0.9-1.1,1.6-0.9c0.7,0.2,1.1,0.9,0.9,1.6c-0.8,2.8-1.5,5.7-2.1,8.6
		C1306.6,357.2,1306.1,357.6,1305.5,357.6L1305.5,357.6z M1626.4,345.2c-0.6,0-1.1-0.4-1.2-0.9c-0.8-2.8-1.7-5.7-2.7-8.4
		c-0.2-0.7,0.1-1.4,0.8-1.6c0.7-0.2,1.4,0.1,1.6,0.8c1,2.8,1.9,5.7,2.8,8.6c0.2,0.7-0.2,1.4-0.9,1.6
		C1626.6,345.2,1626.5,345.2,1626.4,345.2L1626.4,345.2z M1310.1,340.3c-0.1,0-0.3,0-0.4-0.1c-0.7-0.2-1-0.9-0.8-1.6
		c0.9-2.9,2-5.7,3-8.5c0.3-0.7,1-1,1.7-0.7c0.7,0.3,1,1,0.7,1.7c-1.1,2.7-2.1,5.6-3,8.4C1311.1,340,1310.6,340.3,1310.1,340.3
		L1310.1,340.3z M1620.4,328.4c-0.5,0-1-0.3-1.2-0.8c-1.1-2.7-2.3-5.4-3.6-8.1c-0.3-0.6,0-1.4,0.6-1.7c0.6-0.3,1.4,0,1.7,0.6
		c1.3,2.7,2.5,5.5,3.7,8.2c0.3,0.7,0,1.4-0.7,1.7C1620.8,328.4,1620.6,328.4,1620.4,328.4L1620.4,328.4z M1316.6,323.6
		c-0.2,0-0.4,0-0.5-0.1c-0.6-0.3-0.9-1-0.6-1.7c1.2-2.7,2.6-5.5,3.9-8.1c0.3-0.6,1.1-0.9,1.7-0.5c0.6,0.3,0.9,1.1,0.5,1.7
		c-1.4,2.6-2.7,5.3-3.9,8C1317.5,323.3,1317.1,323.6,1316.6,323.6L1316.6,323.6z M1612.7,312.3c-0.5,0-0.9-0.2-1.1-0.7
		c-1.4-2.6-2.9-5.2-4.5-7.7c-0.4-0.6-0.2-1.4,0.4-1.8c0.6-0.4,1.4-0.2,1.8,0.4c1.6,2.5,3.1,5.2,4.5,7.8c0.3,0.6,0.1,1.4-0.5,1.7
		C1613.1,312.2,1612.9,312.3,1612.7,312.3L1612.7,312.3z M1324.8,307.7c-0.2,0-0.4-0.1-0.6-0.2c-0.6-0.4-0.8-1.1-0.5-1.8
		c1.5-2.6,3.1-5.1,4.8-7.6c0.4-0.6,1.2-0.7,1.8-0.4c0.6,0.4,0.7,1.2,0.4,1.8c-1.6,2.5-3.2,5-4.7,7.5
		C1325.7,307.5,1325.3,307.7,1324.8,307.7L1324.8,307.7z M1603.3,297.1c-0.4,0-0.8-0.2-1-0.5c-1.7-2.4-3.5-4.8-5.3-7.1
		c-0.4-0.6-0.3-1.4,0.2-1.8c0.6-0.4,1.4-0.3,1.8,0.2c1.8,2.4,3.6,4.8,5.4,7.2c0.4,0.6,0.3,1.4-0.3,1.8
		C1603.8,297,1603.5,297.1,1603.3,297.1L1603.3,297.1z M1334.8,292.8c-0.3,0-0.5-0.1-0.8-0.3c-0.6-0.4-0.7-1.2-0.3-1.8
		c1.8-2.4,3.7-4.8,5.6-7.1c0.5-0.5,1.3-0.6,1.8-0.2c0.5,0.5,0.6,1.3,0.2,1.8c-1.9,2.3-3.7,4.6-5.5,7
		C1335.6,292.7,1335.2,292.8,1334.8,292.8L1334.8,292.8z M1592.2,283c-0.4,0-0.7-0.1-1-0.4c-1.9-2.2-4-4.4-6-6.5
		c-0.5-0.5-0.5-1.3,0-1.8c0.5-0.5,1.3-0.5,1.8,0c2.1,2.1,4.1,4.4,6.1,6.6c0.5,0.5,0.4,1.3-0.1,1.8
		C1592.8,282.9,1592.5,283,1592.2,283L1592.2,283z M1346.2,279.1c-0.3,0-0.6-0.1-0.9-0.3c-0.5-0.5-0.5-1.3-0.1-1.8
		c2-2.2,4.2-4.3,6.3-6.4c0.5-0.5,1.3-0.5,1.8,0c0.5,0.5,0.5,1.3,0,1.8c-2.1,2.1-4.2,4.2-6.2,6.3
		C1346.9,279,1346.6,279.1,1346.2,279.1L1346.2,279.1z M1579.8,270.2c-0.3,0-0.6-0.1-0.9-0.3c-2.2-2-4.4-4-6.7-5.8
		c-0.5-0.5-0.6-1.3-0.2-1.8c0.5-0.5,1.3-0.6,1.8-0.2c2.3,1.9,4.6,3.9,6.8,5.9c0.5,0.5,0.6,1.3,0.1,1.8
		C1580.5,270.1,1580.1,270.2,1579.8,270.2L1579.8,270.2z M1359.1,266.7c-0.4,0-0.7-0.1-1-0.4c-0.5-0.5-0.4-1.3,0.1-1.8
		c2.3-2,4.6-3.9,7-5.7c0.6-0.4,1.4-0.3,1.8,0.2c0.4,0.6,0.3,1.4-0.2,1.8c-2.3,1.8-4.6,3.7-6.9,5.6
		C1359.7,266.6,1359.4,266.7,1359.1,266.7L1359.1,266.7z M1566,258.8c-0.3,0-0.5-0.1-0.8-0.3c-2.4-1.8-4.8-3.5-7.3-5.1
		c-0.6-0.4-0.8-1.2-0.4-1.8c0.4-0.6,1.2-0.8,1.8-0.4c2.5,1.6,5,3.4,7.4,5.2c0.6,0.4,0.7,1.2,0.3,1.8
		C1566.8,258.6,1566.4,258.8,1566,258.8L1566,258.8z M1373.2,255.7c-0.4,0-0.8-0.2-1.1-0.6c-0.4-0.6-0.3-1.4,0.3-1.8
		c2.5-1.7,5-3.4,7.5-4.9c0.6-0.4,1.4-0.2,1.8,0.4c0.4,0.6,0.2,1.4-0.4,1.8c-2.5,1.5-5,3.2-7.4,4.9
		C1373.7,255.6,1373.5,255.7,1373.2,255.7L1373.2,255.7z M1551.1,248.9c-0.2,0-0.4-0.1-0.6-0.2c-2.5-1.5-5.2-2.9-7.8-4.3
		c-0.6-0.3-0.9-1.1-0.6-1.7c0.3-0.6,1.1-0.9,1.7-0.6c2.7,1.4,5.3,2.8,7.9,4.4c0.6,0.4,0.8,1.1,0.5,1.7
		C1551.9,248.7,1551.5,248.9,1551.1,248.9L1551.1,248.9z M1388.4,246.3c-0.5,0-0.9-0.2-1.1-0.7c-0.3-0.6-0.1-1.4,0.5-1.7
		c2.6-1.4,5.3-2.8,8-4.1c0.6-0.3,1.4,0,1.7,0.6c0.3,0.6,0,1.4-0.6,1.7c-2.6,1.3-5.3,2.6-7.9,4
		C1388.9,246.3,1388.7,246.3,1388.4,246.3L1388.4,246.3z M1535.1,240.7c-0.2,0-0.4,0-0.5-0.1c-2.7-1.2-5.5-2.4-8.2-3.4
		c-0.7-0.3-1-1-0.7-1.7c0.3-0.7,1-1,1.7-0.7c2.8,1.1,5.6,2.2,8.3,3.5c0.6,0.3,0.9,1,0.6,1.7C1536.1,240.4,1535.6,240.7,1535.1,240.7
		L1535.1,240.7z M1404.6,238.7c-0.5,0-1-0.3-1.2-0.8c-0.3-0.7,0-1.4,0.7-1.7c2.8-1.1,5.6-2.2,8.4-3.2c0.7-0.2,1.4,0.1,1.6,0.8
		c0.2,0.7-0.1,1.4-0.8,1.6c-2.8,1-5.6,2-8.3,3.1C1404.9,238.6,1404.7,238.7,1404.6,238.7L1404.6,238.7z M1518.4,234.3
		c-0.1,0-0.3,0-0.4-0.1c-2.8-0.9-5.7-1.7-8.5-2.5c-0.7-0.2-1.1-0.9-0.9-1.6c0.2-0.7,0.9-1.1,1.6-0.9c2.9,0.8,5.8,1.6,8.7,2.5
		c0.7,0.2,1,0.9,0.8,1.6C1519.5,233.9,1519,234.3,1518.4,234.3L1518.4,234.3z M1421.5,232.8c-0.6,0-1.1-0.4-1.2-0.9
		c-0.2-0.7,0.2-1.4,0.9-1.6c2.9-0.8,5.8-1.6,8.7-2.3c0.7-0.2,1.4,0.3,1.5,1c0.2,0.7-0.3,1.4-1,1.5c-2.9,0.7-5.8,1.4-8.6,2.2
		C1421.7,232.8,1421.6,232.8,1421.5,232.8L1421.5,232.8z M1501.1,229.7c-0.1,0-0.2,0-0.3,0c-2.9-0.6-5.8-1.1-8.7-1.6
		c-0.7-0.1-1.2-0.8-1.1-1.5c0.1-0.7,0.8-1.2,1.5-1.1c3,0.4,5.9,1,8.9,1.6c0.7,0.1,1.1,0.8,1,1.5
		C1502.3,229.3,1501.7,229.7,1501.1,229.7L1501.1,229.7z M1438.9,228.8c-0.6,0-1.2-0.4-1.3-1.1c-0.1-0.7,0.3-1.4,1-1.5
		c2.9-0.5,5.9-1,8.9-1.3c0.7-0.1,1.3,0.4,1.4,1.1c0.1,0.7-0.4,1.3-1.1,1.4c-2.9,0.3-5.9,0.8-8.8,1.3
		C1439,228.8,1439,228.8,1438.9,228.8L1438.9,228.8z M1483.4,227.1c0,0-0.1,0-0.1,0c-2.9-0.3-5.9-0.5-8.9-0.6
		c-0.7,0-1.3-0.6-1.2-1.3c0-0.7,0.6-1.3,1.3-1.2c3,0.1,6,0.3,9,0.6c0.7,0.1,1.2,0.7,1.2,1.4C1484.7,226.6,1484.1,227.1,1483.4,227.1
		L1483.4,227.1z M1456.6,226.7c-0.7,0-1.2-0.5-1.3-1.2c0-0.7,0.5-1.3,1.2-1.4c3-0.2,6-0.3,9-0.3c0,0,0,0,0,0c0.7,0,1.3,0.6,1.3,1.3
		c0,0.7-0.6,1.3-1.3,1.3C1462.6,226.3,1459.7,226.5,1456.6,226.7C1456.7,226.6,1456.7,226.7,1456.6,226.7L1456.6,226.7z"/>
</g>
<g>
	<path class="st6" d="M1420.6,264.5c-1.6,2.8-3.4,5.3-5.6,7.5l-0.1,0.1c-2.2,2.1-4.6,4-7.4,5.5c-1.7,1-3.6,1.3-5.5,1
		c-1.8-0.2-3.6-1.1-5-2.5l0,0v0l-16.3-16.3l-5.5-5.5l15.2-15.2l6.2-1.4c1.6-0.4,3.2-0.9,4.6-1.6l17.9,18c1.4,1.4,2.2,3.2,2.5,5
		C1421.9,260.9,1421.6,262.8,1420.6,264.5z"/>
	<polygon class="st7" points="1367.8,229.4 1353.5,215 1348.8,215.2 1336.3,199.9 1343,193.3 1358.3,205.7 1358.1,210.5 
		1368.1,220.5 1372.4,224.8 	"/>
	<path class="st8" d="M1420.6,264.5c-1.6,2.8-3.4,5.3-5.6,7.5l-0.1,0.1c-2.2,2.1-4.6,4-7.4,5.5c-1.7,1-3.6,1.3-5.5,1
		c-1.8-0.2-3.6-1.1-5-2.5l0,0v0l-16.3-16.3l-5.5-5.5l3.1-3.1l21.8,21.9l0,0c0.7,0.7,1.6,1.1,2.5,1.2c0.4,0.1,0.8,0.1,1.2,0
		l-24.3-24.3l10.9-10.9l25.2,25.2c0.4-0.6,0.8-1.3,1.2-1.9c0.5-0.9,0.7-1.8,0.5-2.7c-0.1-0.9-0.5-1.8-1.3-2.5l-19.4-19.4
		c1.6-0.4,3.2-0.9,4.6-1.6l17.9,18c1.4,1.4,2.2,3.2,2.5,5C1421.9,260.9,1421.6,262.8,1420.6,264.5z"/>
	<path class="st7" d="M1395.4,219.1c-3.9-3.8-6.3-9.2-3.5-12l11.7-11.7l-1.6-1.6c-5.1-5.1-21.5,3.8-27,12.2
		c-2.8,4.2-3.7,10.5,0.6,15.7l-38,37.9c-1.4,1.4-2.2,3.1-2.5,4.9c-1,7.2,7.7,15.9,14.9,14.9c1.8-0.3,3.6-1.1,5-2.5l37.8-37.7
		c4.8,4.7,11.2,3.4,15.8,0.3c8.3-5.6,17.3-21.9,12.2-27l-1.6-1.6l-11.7,11.7C1404.5,225.5,1399.2,223,1395.4,219.1L1395.4,219.1z
		 M1343.8,270.8c-3.4-3.5-3.4-9.1,0-12.5c3.5-3.4,9.1-3.4,12.5,0c3.4,3.4,3.4,9.1,0,12.5C1352.8,274.2,1347.2,274.2,1343.8,270.8z"
		/>
	<path class="st9" d="M1339.4,275l4.3-4.3c-3.4-3.4-3.4-9,0.1-12.5c3.4-3.4,9-3.4,12.4,0l39.1-39.1c-3.9-3.8-6.3-9.2-3.5-12
		l11.7-11.7l-1.6-1.6c-5.1-5.1-21.5,3.8-27,12.2c-2.8,4.2-3.7,10.5,0.6,15.7l-38,37.9c-1.4,1.4-2.2,3.1-2.5,4.9
		C1334.6,268.1,1336.5,272.1,1339.4,275z"/>
</g>
<g>
	<path class="st8" d="M1258.6,459h83c3.5,0,6.3-2.8,6.3-6.3V342.4c0-3.5-2.8-6.3-6.3-6.3h-13.5h-8h-40.1h-7h-14.5
		c-3.5,0-6.3,2.8-6.3,6.3v110.3C1252.4,456.2,1255.2,459,1258.6,459z"/>
	<path class="st10" d="M1337.9,345v105h-75.6V345C1287.6,345,1312.8,345,1337.9,345z"/>
	<rect x="1262.4" y="345" class="st9" width="37.8" height="105"/>
	<path class="st11" d="M1282.2,353.9v-17.8h36v17.8H1282.2L1282.2,353.9z M1314,350.4c0-3.9,0-6.9,0-10.8c-9.3,0-18.5,0-27.8,0
		c0,3.9,0,6.9,0,10.8C1295.5,350.4,1304.8,350.4,1314,350.4z"/>
	<path class="st12" d="M1274,370.8L1274,370.8c1.5,0,2.7,1.2,2.7,2.7l0,0c0,1.5-1.2,2.7-2.7,2.7l0,0c-1.5,0-2.7-1.2-2.7-2.7l0,0
		C1271.3,372,1272.5,370.8,1274,370.8z"/>
	<path class="st13" d="M1274,385.3L1274,385.3c1.5,0,2.7,1.2,2.7,2.7l0,0c0,1.5-1.2,2.7-2.7,2.7l0,0c-1.5,0-2.7-1.2-2.7-2.7l0,0
		C1271.3,386.5,1272.5,385.3,1274,385.3z"/>
	<path class="st14" d="M1274,400.7L1274,400.7c1.5,0,2.7,1.2,2.7,2.7l0,0c0,1.5-1.2,2.7-2.7,2.7l0,0c-1.5,0-2.7-1.2-2.7-2.7l0,0
		C1271.3,401.9,1272.5,400.7,1274,400.7z"/>
	<rect x="1282.2" y="372.2" class="st8" width="41.8" height="2.7"/>
	<rect x="1282.2" y="386.7" class="st8" width="45.2" height="2.7"/>
	<rect x="1282.2" y="402" class="st8" width="35.6" height="2.7"/>
	<path class="st15" d="M1282.2,345v-8.9h36v8.9h-4.1v-5.4c-9.3,0-18.5,0-27.8,0v5.4H1282.2z"/>
</g>
<g>
	<polygon class="st9" points="1422.2,497.5 1420.9,496.2 1420.9,496.2 	"/>
	<path class="st9" d="M1436.1,592.5h-67.8c-3.6,0-6.5-2.9-6.5-6.5v-94c0-3.6,2.9-6.5,6.5-6.5h46.2l28,28v72.4
		C1442.6,589.6,1439.7,592.5,1436.1,592.5z"/>
	<polygon class="st16" points="1432.7,503.7 1442.6,513.6 1442.6,537.9 1416.5,511.8 	"/>
	<path class="st10" d="M1442.6,513.6H1421c-3.6,0-6.5-2.9-6.5-6.5v-21.6L1442.6,513.6z"/>
	<path class="st8" d="M1408.9,584.4h-35.8h-1.7v-1.7v-12.5v-15.2V529v-15.2v-11.9v-1.7h1.7h41.5v3.5h-39.8v10.2V529v25.9v15.2V581
		h34V584.4L1408.9,584.4z M1374.2,513.8h-0.5h-0.3h-0.6h-0.4h-0.4V529h0.4h0.4h0.6h0.3h0.5V513.8L1374.2,513.8z M1374.2,554.9h-0.4
		h-0.4h-0.6h-0.4h-0.4v15.2h0.4h0.4h0.6h0.4h0.4V554.9z"/>
	<rect x="1423.9" y="513.6" class="st8" width="3.5" height="4.7"/>
	<polygon class="st8" points="1412.2,540.5 1423.9,540.5 1423.9,533.5 1427.4,533.5 1427.4,542.3 1427.4,544 1425.7,544 1412.2,544 
			"/>
	<rect x="1373.1" y="540.5" class="st8" width="23.9" height="3.5"/>
	<path class="st16" d="M1436.1,592.5h-19.9l-8.7-8.7l0,0l0,0c0,0-0.1-0.1-0.1-0.1l-0.1-0.1l-0.1-0.1l0,0l0,0l0,0l0,0l0,0l0,0l0,0
		l0,0l0,0l0,0l0,0l0,0v0l0,0l0,0l0,0l0,0l0,0v0l0,0l0,0l0,0l0,0l0-0.1l0,0l0-0.1l0,0l0,0v0v0l0,0v0l0,0l0,0l0,0v0l0,0v0l0,0l0,0l0,0
		v0l0,0v0l0,0l0,0l0,0v0l0,0l0,0l0,0v0l0,0v0l0,0v0v0v0l0,0v0l0,0v0v0l0,0l0,0v0l0,0v0l0,0v0l0,0v0l0,0v0v0l0,0v0l0,0v0l0,0v0l0,0v0
		l0,0l0,0l0,0v0l0,0v0v0v0l0,0v0l0,0v0l0,0v0l0,0v0l0,0v0l0,0v0l0,0l0,0l0,0v0l0,0v0l0,0l0,0l0,0v0l0,0v0l0,0v0l0,0l0,0l0,0v0l0,0v0
		l0,0v0l0,0h0v0v0v0v0v0l0,0v0l1.2-4.2l2-6.7l0,0l4.9-16.5v0l12.2-12.2l15.3-15.3v59.4C1442.6,589.6,1439.7,592.5,1436.1,592.5z"/>
	<polygon class="st16" points="1442.6,526.6 1442.6,537.9 1437,532.2 	"/>
	<g>
		<path class="st17" d="M1468.3,509.9c2.8,1.6,5.3,3.4,7.5,5.6l0.1,0.1c2.1,2.2,4,4.6,5.5,7.3c0.9,1.7,1.3,3.6,1,5.4
			c-0.3,1.8-1.1,3.6-2.5,4.9h0h0l-42.8,42.8l-27.4,8.1c-1.2,0.3-2.4-0.3-2.7-1.5c-0.1-0.4-0.1-0.8,0-1.2l8.2-27.4l42.8-42.8
			c1.4-1.4,3.1-2.2,4.9-2.5C1464.7,508.6,1466.6,508.9,1468.3,509.9z"/>
		<path class="st8" d="M1422.2,560.7l45.8-45.8c-0.6-0.4-1.3-0.8-1.9-1.2c-0.9-0.5-1.8-0.6-2.7-0.5c-0.9,0.1-1.8,0.6-2.5,1.3
			l-41.6,41.6L1422.2,560.7z"/>
		<path class="st8" d="M1420.6,581l-11,3.3c-1.2,0.3-2.4-0.4-2.7-1.5c-0.1-0.4-0.1-0.8,0-1.2l3.2-10.9l1.8,3.8l6.1,0.4L1420.6,581z"
			/>
		<path class="st8" d="M1468.3,509.9c2.8,1.6,5.3,3.4,7.5,5.6l0.1,0.1c2.1,2.2,4,4.6,5.5,7.3c0.9,1.7,1.3,3.6,1,5.4
			c-0.3,1.8-1.1,3.6-2.5,4.9h0h0l-42.8,42.8l-2.9-6c-4.6-2.4-9.2-4.7-13.8-7.1l-5.2-9l42.8-42.8c1.4-1.4,3.1-2.2,4.9-2.5
			C1464.7,508.6,1466.6,508.9,1468.3,509.9z"/>
		<path class="st6" d="M1468.3,509.9c1.1,0.6,2.2,1.3,3.2,2l-51.2,51.2l-5.2-9l42.8-42.8c1.4-1.4,3.1-2.2,4.9-2.5
			C1464.7,508.6,1466.6,508.9,1468.3,509.9z"/>
		<path class="st6" d="M1481.3,523c0.9,1.7,1.3,3.6,1,5.4c-0.3,1.8-1.1,3.6-2.5,4.9h0h0l-42.8,42.8l-2.9-6L1481.3,523z"/>
	</g>
</g>
<g>
	<path class="st6" d="M1582.1,472.3v23.3v1.7v1.7v13.2v1.7v1.6v23.3c0,1.9,1.6,3.5,3.5,3.5h12.5c1.9,0,3.5-1.6,3.5-3.5v-23.3v-1.6
		v-1.7V499v-1.7v-1.7v-23.3c0-1.9-1.6-3.5-3.5-3.5h-12.5C1583.7,468.8,1582.1,470.4,1582.1,472.3z"/>
	<path class="st10" d="M1592.7,476c1.2,0,2.2,1,2.2,2.2c0,1.2-1,2.2-2.2,2.2c-1.9,0-3.7,0-5.6,0c-1.2,0-2.2-1-2.2-2.2s1-2.2,2.2-2.2
		C1589,476,1590.9,476,1592.7,476z"/>
	<path class="st10" d="M1587.1,489.4c1.2,0,2.2,1,2.2,2.2c0,1.2-1,2.2-2.2,2.2c-1.9,0,1.9,0,0,0c-1.2,0-2.2-1-2.2-2.2
		C1584.9,490.4,1585.9,489.4,1587.1,489.4C1589,489.4,1585.3,489.4,1587.1,489.4z"/>
	<path class="st10" d="M1592.7,502.8c1.2,0,2.2,1,2.2,2.2c0,1.2-1,2.2-2.2,2.2c-1.9,0-3.7,0-5.6,0c-1.2,0-2.2-1-2.2-2.2
		c0-1.2,1-2.2,2.2-2.2C1589,502.8,1590.9,502.8,1592.7,502.8z"/>
	<path class="st8" d="M1537,536.9h66.5c1.9,0,3.5-1.6,3.5-3.5v-12.5c0-1.9-1.6-3.5-3.5-3.5H1537c-1.9,0-3.5,1.6-3.5,3.5v12.5
		C1533.5,535.4,1535,536.9,1537,536.9z"/>
	<path class="st10" d="M1546,527.8c0,1.2-1,2.2-2.2,2.2s-2.2-1-2.2-2.2v-5.6c0-1.2,1-2.2,2.2-2.2c1.2,0,2.2,1,2.2,2.2V527.8z"/>
	<path class="st10" d="M1572.8,527.8c0,1.2-1,2.2-2.2,2.2c-1.2,0-2.2-1-2.2-2.2c0-1.9,0-3.7,0-5.6c0-1.2,1-2.2,2.2-2.2
		c1.2,0,2.2,1,2.2,2.2C1572.8,524.1,1572.8,526,1572.8,527.8z"/>
	<path class="st10" d="M1599.5,527.8c0,1.2-1,2.2-2.2,2.2c-1.2,0-2.2-1-2.2-2.2c0-1.9,0-3.7,0-5.6c0-1.2,1-2.2,2.2-2.2
		c1.2,0,2.2,1,2.2,2.2C1599.5,524.1,1599.5,526,1599.5,527.8z"/>
	<path class="st10" d="M1559.4,522.2c0,1.2-1,2.2-2.2,2.2c-1.2,0-2.2-1-2.2-2.2l0,0c0-1.2,1-2.2,2.2-2.2S1559.4,521,1559.4,522.2
		L1559.4,522.2z"/>
	<path class="st10" d="M1586.1,522.2c0,1.2-1,2.2-2.2,2.2c-1.2,0-2.2-1-2.2-2.2c0-1.9,0,1.9,0,0c0-1.2,1-2.2,2.2-2.2
		C1585.1,520,1586.1,521,1586.1,522.2C1586.1,524.1,1586.1,520.3,1586.1,522.2z"/>
</g>
<g>
	<path class="st8" d="M1569.5,220.2l5.4,2.2l9.5-4.9c3.2,3.2,6.5,6.5,9.7,9.7l-4.9,9.5l2.2,5.4l10.2,3.2c0,4.6,0,9.1,0,13.7
		l-10.2,3.2l-2.2,5.4l4.9,9.5c-3.2,3.2-6.5,6.5-9.7,9.7l-9.5-4.9l-5.4,2.2l-3.2,10.1c-4.6,0-9.1,0-13.7,0l-3.2-10.1l-5.4-2.2
		l-9.5,4.9c-3.2-3.2-6.5-6.5-9.7-9.7l4.9-9.5l-2.2-5.4l-10.2-3.2c0-4.6,0-9.1,0-13.7l10.2-3.2l2.2-5.4l-4.9-9.5
		c3.2-3.2,6.5-6.5,9.7-9.7l9.5,4.9l5.4-2.2l3.2-10.1c4.6,0,9.1,0,13.7,0L1569.5,220.2L1569.5,220.2z M1559.4,243.5
		c-4.8,0-8.7,3.9-8.7,8.7c0,4.8,3.9,8.7,8.7,8.7c4.8,0,8.7-3.9,8.7-8.7C1568.1,247.4,1564.2,243.5,1559.4,243.5z"/>
	<path class="st6" d="M1560.2,294.3h-7.7l-3.2-10.1l-5.4-2.2l-9.5,4.9c-3.2-3.2-6.5-6.5-9.7-9.7l4.9-9.5l-2.2-5.4l-10.2-3.2
		c0-4.6,0-9.1,0-13.7l10.2-3.2l2.2-5.4l-4.9-9.5c3.2-3.2,6.5-6.5,9.7-9.7l9.5,4.9l5.4-2.2l3.2-10.1h7.7v33.5c-0.3,0-0.5,0-0.8,0
		c-4.8,0-8.7,3.9-8.7,8.7c0,4.8,3.9,8.7,8.7,8.7c0.3,0,0.5,0,0.8,0V294.3z"/>
	<path class="st13" d="M1559.4,227.9c13.4,0,24.2,10.9,24.2,24.2c0,13.4-10.9,24.2-24.2,24.2c-13.4,0-24.2-10.9-24.2-24.2
		C1535.2,238.8,1546,227.9,1559.4,227.9L1559.4,227.9z M1559.4,243.5c-4.8,0-8.7,3.9-8.7,8.7c0,4.8,3.9,8.7,8.7,8.7
		c4.8,0,8.7-3.9,8.7-8.7C1568.1,247.4,1564.2,243.5,1559.4,243.5z"/>
	<path class="st6" d="M1559.4,270.6c10.2,0,18.4-8.2,18.4-18.4s-8.2-18.4-18.4-18.4c-10.2,0-18.4,8.2-18.4,18.4
		S1549.2,270.6,1559.4,270.6L1559.4,270.6z M1559.4,243.5c4.8,0,8.7,3.9,8.7,8.7c0,4.8-3.9,8.7-8.7,8.7c-4.8,0-8.7-3.9-8.7-8.7
		C1550.7,247.4,1554.6,243.5,1559.4,243.5z"/>
</g>
<g>
	<path class="st8" d="M1650.6,400.2h-3.8v0v4.7c0,2.8-4.2,2.8-4.2,0v-4.7v0h-11.8v0v4.7c0,2.8-4.2,2.8-4.2,0l0-4.7v0l-11.8,0l0,0
		l0,4.7c0,2.8-4.2,2.8-4.2,0l0-4.7v0h-3.8c-2.7,0-4.8-2.2-4.8-4.8l0-3.8h0h-4.7c-2.8,0-2.8-4.2,0-4.2h4.7h0l0-11.8h0h-4.7
		c-2.8,0-2.8-4.2,0-4.2l4.7,0h0l0-11.8h0h-4.7c-2.8,0-2.8-4.2,0-4.2l4.7,0h0v-3.8c0-2.7,2.2-4.8,4.8-4.8h3.8v0v-4.7
		c0-2.8,4.2-2.8,4.2,0v4.7l0,0l11.8,0v0l0-4.7c0-2.8,4.2-2.8,4.2,0l0,4.7v0l11.8,0v0v-4.7c0-2.8,4.2-2.8,4.2,0v4.7v0l3.8,0
		c2.7,0,4.8,2.2,4.8,4.8v3.8h0h4.7c2.8,0,2.8,4.2,0,4.2l-4.7,0h0v11.8h0h4.7c2.8,0,2.8,4.2,0,4.2h-4.7h0l0,11.8h0h4.7
		c2.8,0,2.8,4.2,0,4.2h-4.7h0v3.8C1655.4,398,1653.3,400.2,1650.6,400.2z"/>
	<path class="st6" d="M1652.2,396.2l0-45.5c0-0.4-0.3-0.7-0.7-0.7l-45.5,0c-0.4,0-0.7,0.3-0.7,0.7l0,45.6c0,0.4,0.3,0.8,0.7,0.8
		l45.5,0C1651.8,396.9,1652.2,396.6,1652.2,396.2z"/>
	<path class="st10" d="M1647.1,354.3l-36.9,0c-0.4,0-0.7,0.3-0.7,0.7l0,36.9c0,0.4,0.3,0.7,0.7,0.7l36.9,0c0.4,0,0.7-0.3,0.7-0.7
		l0-36.9C1647.8,354.6,1647.5,354.3,1647.1,354.3z"/>
	<path class="st9" d="M1628.3,354.3l-18.4,0c-0.2,0-0.3,0.3-0.3,0.7l0,36.9c0,0.4,0.2,0.7,0.3,0.7l18.5,0c0.2,0,0.3-0.3,0.3-0.7
		l0-36.9C1628.7,354.6,1628.5,354.3,1628.3,354.3z"/>
	<path class="st8" d="M1640.9,360.7l-24.6,0c-0.2,0-0.4,0.2-0.4,0.4l0,24.6c0,0.2,0.2,0.4,0.4,0.4l24.6,0c0.2,0,0.4-0.2,0.4-0.4
		l0-24.6C1641.4,360.9,1641.2,360.7,1640.9,360.7z"/>
</g>
<g>
</g>
<g>
</g>
<g>
</g>
<g>
</g>
<g>
</g>
<g>
</g>
</svg>
