<?xml version="1.0" encoding="utf-8"?>
<!-- Generator: Adobe Illustrator 19.2.0, SVG Export Plug-In . SVG Version: 6.00 Build 0)  -->
<svg version="1.1" id="Layer_1" xmlns="http://www.w3.org/2000/svg" xmlns:xlink="http://www.w3.org/1999/xlink" x="0px" y="0px"
	 viewBox="0 0 2048 1000" style="enable-background:new 0 0 2048 1000;" xml:space="preserve">
<style type="text/css">
	.st0{fill:#B9E5FB;}
	.st1{fill:#116BB4;}
	.st2{fill:#FFFFFF;}
	.st3{fill:#2C5871;}
	.st4{fill:#D1ECFB;}
	.st5{fill:none;stroke:#343636;stroke-width:4.9841;stroke-miterlimit:10;}
	.st6{fill:#231F20;}
	.st7{fill:#4EA8DE;}
	.st8{fill:none;}
	.st9{fill:#333333;}
	.st10{fill-rule:evenodd;clip-rule:evenodd;fill:#3D566E;}
	.st11{fill-rule:evenodd;clip-rule:evenodd;fill:#D1D1D1;}
	.st12{fill-rule:evenodd;clip-rule:evenodd;fill:#2C3E50;}
	.st13{fill-rule:evenodd;clip-rule:evenodd;fill:#DAE1E6;}
	.st14{fill-rule:evenodd;clip-rule:evenodd;fill:#FFCB05;}
	.st15{fill-rule:evenodd;clip-rule:evenodd;fill:#6D1A09;}
	.st16{fill-rule:evenodd;clip-rule:evenodd;fill:#7BB50C;}
</style>
<rect class="st0" width="2048" height="1000"/>
<g>
</g>
<rect x="1.5" y="640.1" class="st1" width="2046.5" height="360.6"/>
<g>
	<g>
		<polygon class="st2" points="1678.9,954 1678.9,488.7 1678.9,283.9 1517.3,137.1 412.5,137.1 412.5,954 		"/>
		<g>
			<polygon class="st3" points="1517.3,283.9 1678.9,283.9 1517.3,137.1 			"/>
			<polygon class="st4" points="1678.9,283.9 1517.3,283.9 1678.9,430.6 			"/>
		</g>
	</g>
</g>
<line class="st5" x1="50.8" y1="53.7" x2="1997.5" y2="53.7"/>
<g>
	<g>
		<path class="st6" d="M54.3,76h13.6c10.1,0,14.5,7.4,14.5,16.4s-4.4,16.4-14.5,16.4H54.3V76z M60,104.1h5.7c9,0,10.9-5.1,10.9-11.7
			c0-6.6-1.9-11.7-10.9-11.7H60V104.1z"/>
		<path class="st6" d="M90.8,98.3c0,3.7,2,7,6.4,7c3.1,0,4.9-1.3,5.8-4h5c-1.1,5.2-5.6,8.1-10.8,8.1c-7.5,0-11.6-5.2-11.6-12.5
			c0-6.8,4.4-12.6,11.5-12.6c7.5,0,12.1,6.8,11.2,13.9H90.8z M103.1,94.8c-0.2-3.3-2.4-6.3-6-6.3c-3.6,0-6.1,2.8-6.3,6.3H103.1z"/>
		<path class="st6" d="M116.3,101.2c0.3,3.1,2.6,4.1,5.4,4.1c2,0,5.4-0.4,5.3-3.1c-0.1-2.8-4-3.1-7.8-4c-3.9-0.8-7.6-2.2-7.6-7
			c0-5.2,5.6-6.8,9.9-6.8c4.9,0,9.3,2,9.9,7.3h-5.5c-0.5-2.5-2.5-3.2-4.8-3.2c-1.5,0-4.3,0.4-4.3,2.4c0,2.6,3.9,3,7.7,3.8
			c3.8,0.9,7.7,2.3,7.7,6.9c0,5.7-5.7,7.7-10.6,7.7c-6,0-10.4-2.7-10.5-8.3H116.3z"/>
		<path class="st6" d="M136.3,76h5.2v5h-5.2V76z M136.3,85h5.2v23.8h-5.2V85z"/>
		<path class="st6" d="M169.3,107.6c0,7.2-4.1,10.7-11.7,10.7c-4.8,0-10.1-1.8-10.6-7.4h5.2c0.6,3,3,3.5,5.7,3.5
			c4.2,0,6.1-2.2,6.1-6.1v-3.6h-0.1c-1.5,2.6-4.2,4.2-7.1,4.2c-7.5,0-10.7-5.7-10.7-12.5c0-6.4,4-11.9,10.8-11.9c3,0,5.7,1.2,7,3.9
			h0.1V85h5.2V107.6z M164,96.4c0-4.1-1.8-7.9-6.4-7.9c-4.6,0-6.3,4.3-6.3,8.3c0,3.9,1.9,7.9,6.3,7.9
			C162.3,104.7,164,100.5,164,96.4z"/>
		<path class="st6" d="M174.5,85h5v3.5l0.1,0.1c1.6-2.6,4.3-4.2,7.4-4.2c5.2,0,8.4,2.7,8.4,8.1v16.3h-5.2v-15
			c-0.1-3.7-1.5-5.3-4.6-5.3c-3.5,0-5.8,2.8-5.8,6.3v14h-5.2V85z"/>
		<path class="st6" d="M211.3,76h26.6v5h-10.4v27.9h-5.8V80.9h-10.4V76z"/>
		<path class="st6" d="M241,85h4.9v4.6h0.1c0.6-2.5,3.8-5.2,6.9-5.2c1.2,0,1.5,0.1,2,0.1v5.1c-0.7-0.1-1.5-0.2-2.3-0.2
			c-3.5,0-6.4,2.9-6.4,8.1v11.3H241V85z"/>
		<path class="st6" d="M277.1,103.5c0,1.3,0.3,1.8,1.2,1.8h0.6c0.2,0,0.5,0,0.7-0.1v3.6c-0.8,0.3-2.4,0.6-3.3,0.6
			c-2.2,0-3.6-0.7-4-2.9c-2.1,2-5.4,2.9-8.2,2.9c-4.3,0-8.1-2.3-8.1-6.9c0-5.9,4.7-6.9,9.2-7.4c3.8-0.7,7.1-0.2,7.1-3.4
			c0-2.8-2.9-3.2-4.9-3.2c-2.9,0-5,1.2-5.2,3.8h-5.2c0.4-6.1,5.5-7.9,10.8-7.9c4.6,0,9.5,1.9,9.5,6.9V103.5z M271.9,96.9
			c-1.6,1.1-4.1,1-6.4,1.4c-2.3,0.4-4.3,1.2-4.3,4c0,2.4,3,3,4.8,3c2.3,0,5.9-1.2,5.9-4.5V96.9z"/>
		<path class="st6" d="M282.8,85h5v3.5l0.1,0.1c1.6-2.6,4.3-4.2,7.4-4.2c5.2,0,8.4,2.7,8.4,8.1v16.3h-5.2v-15
			c-0.1-3.7-1.5-5.3-4.6-5.3c-3.5,0-5.8,2.8-5.8,6.3v14h-5.2V85z"/>
		<path class="st6" d="M313.1,101.2c0.3,3.1,2.6,4.1,5.4,4.1c2,0,5.4-0.4,5.3-3.1c-0.1-2.8-4-3.1-7.8-4c-3.9-0.8-7.6-2.2-7.6-7
			c0-5.2,5.6-6.8,9.9-6.8c4.9,0,9.3,2,9.9,7.3h-5.5c-0.5-2.5-2.5-3.2-4.8-3.2c-1.5,0-4.3,0.4-4.3,2.4c0,2.6,3.9,3,7.7,3.8
			c3.8,0.9,7.7,2.3,7.7,6.9c0,5.7-5.7,7.7-10.6,7.7c-6,0-10.4-2.7-10.5-8.3H313.1z"/>
		<path class="st6" d="M330.7,85h3.9v-2c0-6.1,3.2-7.1,6.6-7.1c1.7,0,2.9,0.1,3.7,0.3v4.1c-0.7-0.2-1.4-0.3-2.4-0.3
			c-1.4,0-2.6,0.5-2.6,2.5V85h4.5v3.9h-4.5v19.9h-5.2V88.9h-3.9V85z"/>
		<path class="st6" d="M351.6,98.3c0,3.7,2,7,6.4,7c3.1,0,4.9-1.3,5.8-4h5c-1.1,5.2-5.6,8.1-10.8,8.1c-7.5,0-11.6-5.2-11.6-12.5
			c0-6.8,4.4-12.6,11.5-12.6c7.5,0,12.1,6.8,11.2,13.9H351.6z M363.9,94.8c-0.2-3.3-2.4-6.3-6-6.3c-3.6,0-6.1,2.8-6.3,6.3H363.9z"/>
		<path class="st6" d="M373.1,85h4.9v4.6h0.1c0.6-2.5,3.8-5.2,6.9-5.2c1.2,0,1.5,0.1,2,0.1v5.1c-0.7-0.1-1.5-0.2-2.3-0.2
			c-3.5,0-6.4,2.9-6.4,8.1v11.3h-5.2V85z"/>
	</g>
</g>
<g>
	<g>
		<path class="st7" d="M610.4,369.3c0,3.1,2.3,4.3,5.1,4.3c3.1,0,4.2-1.5,4.2-3c0-1.5-0.8-2.2-1.7-2.5c-1.4-0.5-3.2-0.9-6-1.7
			c-3.4-0.9-4.4-3-4.4-5.1c0-4,3.7-5.9,7.3-5.9c4.1,0,7.7,2.2,7.7,6.4h-3.5c-0.2-2.6-1.9-3.5-4.3-3.5c-1.6,0-3.7,0.6-3.7,2.6
			c0,1.4,1,2.2,2.4,2.6c0.3,0.1,4.7,1.2,5.8,1.5c2.6,0.8,3.9,3,3.9,5.1c0,4.5-4,6.3-8,6.3c-4.6,0-8.3-2.2-8.3-7.1H610.4z"/>
		<path class="st7" d="M624.3,361.5h2.4v-4.3h3.2v4.3h2.9v2.4h-2.9v7.7c0,1.3,0.1,2,1.5,2c0.4,0,0.9,0,1.3-0.1v2.5
			c-0.7,0.1-1.4,0.2-2.1,0.2c-3.4,0-3.9-1.3-4-3.7v-8.5h-2.4V361.5z"/>
		<path class="st7" d="M637.6,369.5c0,2.3,1.2,4.3,3.9,4.3c1.9,0,3-0.8,3.5-2.4h3c-0.7,3.2-3.4,4.9-6.6,4.9c-4.6,0-7.1-3.1-7.1-7.6
			c0-4.1,2.7-7.6,7-7.6c4.6,0,7.4,4.1,6.8,8.5H637.6z M645,367.4c-0.1-2-1.5-3.8-3.6-3.8c-2.2,0-3.7,1.7-3.8,3.8H645z"/>
		<path class="st7" d="M650.8,361.5h3v2h0.1c0.9-1.7,2.6-2.4,4.5-2.4c4.6,0,6.8,3.4,6.8,7.7c0,3.9-2,7.6-6.2,7.6
			c-1.8,0-3.9-0.7-4.8-2.3h-0.1v7.2h-3.2V361.5z M657.9,363.6c-2.7,0-4.1,2-4.1,5.1c0,2.9,1.5,5.1,4.1,5.1c2.9,0,4-2.6,4-5.1
			C661.9,366.1,660.5,363.6,657.9,363.6z"/>
		<path class="st7" d="M675.4,359.6c2.7,0,5.3-0.9,5.7-3.2h2.6V376h-3.5v-13.8h-4.8V359.6z"/>
	</g>
</g>
<g>
	<rect x="836.9" y="340.1" class="st8" width="565" height="74.8"/>
	<path class="st9" d="M841.4,353.4c0,3.1,2.3,4.3,5.1,4.3c3.1,0,4.2-1.5,4.2-3c0-1.5-0.8-2.2-1.7-2.5c-1.4-0.5-3.2-0.9-6-1.7
		c-3.4-0.9-4.4-3-4.4-5.1c0-4,3.7-5.9,7.3-5.9c4.1,0,7.7,2.2,7.7,6.4h-3.5c-0.2-2.6-1.9-3.5-4.3-3.5c-1.6,0-3.7,0.6-3.7,2.6
		c0,1.4,1,2.2,2.4,2.6c0.3,0.1,4.7,1.2,5.8,1.5c2.6,0.8,3.9,3,3.9,5.1c0,4.5-4,6.3-8,6.3c-4.6,0-8.3-2.2-8.3-7.1H841.4z"/>
	<path class="st9" d="M855.3,345.6h2.4v-4.3h3.2v4.3h2.9v2.4h-2.9v7.7c0,1.3,0.1,2,1.5,2c0.4,0,0.9,0,1.3-0.1v2.5
		c-0.7,0.1-1.4,0.2-2.1,0.2c-3.4,0-3.9-1.3-4-3.7V348h-2.4V345.6z"/>
	<path class="st9" d="M868.6,353.7c0,2.3,1.2,4.3,3.9,4.3c1.9,0,3-0.8,3.5-2.4h3c-0.7,3.2-3.4,4.9-6.6,4.9c-4.6,0-7.1-3.1-7.1-7.6
		c0-4.1,2.7-7.6,7-7.6c4.6,0,7.4,4.1,6.8,8.5H868.6z M876,351.6c-0.1-2-1.5-3.8-3.6-3.8c-2.2,0-3.7,1.7-3.8,3.8H876z"/>
	<path class="st9" d="M881.7,345.6h3v2h0.1c0.9-1.7,2.6-2.4,4.5-2.4c4.6,0,6.8,3.4,6.8,7.7c0,3.9-2,7.6-6.2,7.6
		c-1.8,0-3.9-0.7-4.8-2.3h-0.1v7.2h-3.2V345.6z M888.9,347.8c-2.7,0-4.1,2-4.1,5.1c0,2.9,1.5,5.1,4.1,5.1c2.9,0,4-2.6,4-5.1
		C892.9,350.3,891.5,347.8,888.9,347.8z"/>
	<path class="st9" d="M906.4,343.8c2.7,0,5.3-0.9,5.7-3.2h2.6v19.6h-3.5v-13.8h-4.8V343.8z"/>
	<path class="st9" d="M930,340.1h3.2v3H930V340.1z M930,345.6h3.2v14.5H930V345.6z"/>
	<path class="st9" d="M939.1,355.5c0.2,1.9,1.6,2.5,3.3,2.5c1.2,0,3.3-0.3,3.2-1.9c-0.1-1.7-2.4-1.9-4.7-2.4
		c-2.4-0.5-4.6-1.3-4.6-4.3c0-3.2,3.4-4.1,6-4.1c3,0,5.7,1.2,6,4.5h-3.3c-0.3-1.5-1.5-1.9-2.9-1.9c-0.9,0-2.6,0.2-2.6,1.5
		c0,1.6,2.4,1.8,4.7,2.3c2.3,0.5,4.7,1.4,4.7,4.2c0,3.4-3.5,4.7-6.5,4.7c-3.7,0-6.3-1.6-6.4-5H939.1z"/>
	<path class="st9" d="M957.5,345.6h2.4v-4.3h3.2v4.3h2.9v2.4h-2.9v7.7c0,1.3,0.1,2,1.5,2c0.4,0,0.9,0,1.3-0.1v2.5
		c-0.7,0.1-1.4,0.2-2.1,0.2c-3.4,0-3.9-1.3-4-3.7V348h-2.4V345.6z"/>
	<path class="st9" d="M967.6,352.9c0-4.4,2.7-7.6,7.3-7.6c4.6,0,7.3,3.2,7.3,7.6c0,4.5-2.7,7.6-7.3,7.6
		C970.3,360.5,967.6,357.3,967.6,352.9z M979,352.9c0-2.5-1.3-5.1-4.1-5.1c-2.9,0-4.1,2.6-4.1,5.1c0,2.5,1.3,5.1,4.1,5.1
		C977.8,358,979,355.4,979,352.9z"/>
	<path class="st9" d="M991.2,345.6h2.4v-4.3h3.2v4.3h2.9v2.4h-2.9v7.7c0,1.3,0.1,2,1.5,2c0.4,0,0.9,0,1.3-0.1v2.5
		c-0.7,0.1-1.4,0.2-2.1,0.2c-3.4,0-3.9-1.3-4-3.7V348h-2.4V345.6z"/>
	<path class="st9" d="M1002,345.6h3v2.8h0.1c0.4-1.5,2.3-3.2,4.2-3.2c0.8,0,0.9,0.1,1.2,0.1v3.1c-0.4-0.1-0.9-0.1-1.4-0.1
		c-2.2,0-3.9,1.7-3.9,5v6.9h-3.2V345.6z"/>
	<path class="st9" d="M1024,356.9c0,0.8,0.2,1.1,0.8,1.1h0.3c0.1,0,0.3,0,0.4-0.1v2.2c-0.5,0.2-1.5,0.4-2,0.4
		c-1.3,0-2.2-0.4-2.5-1.8c-1.3,1.2-3.3,1.8-5,1.8c-2.6,0-5-1.4-5-4.2c0-3.6,2.9-4.2,5.6-4.5c2.3-0.4,4.3-0.1,4.3-2c0-1.7-1.7-2-3-2
		c-1.8,0-3.1,0.7-3.2,2.3h-3.2c0.2-3.7,3.4-4.8,6.6-4.8c2.8,0,5.8,1.1,5.8,4.2V356.9z M1020.8,352.9c-1,0.6-2.5,0.6-3.9,0.9
		c-1.4,0.2-2.6,0.7-2.6,2.4c0,1.5,1.8,1.8,2.9,1.8c1.4,0,3.6-0.7,3.6-2.7V352.9z"/>
	<path class="st9" d="M1027.4,345.6h3v2.1l0.1,0.1c1-1.6,2.6-2.6,4.5-2.6c3.2,0,5.1,1.7,5.1,4.9v9.9h-3.2V351
		c-0.1-2.3-0.9-3.2-2.8-3.2c-2.1,0-3.5,1.7-3.5,3.8v8.5h-3.2V345.6z"/>
	<path class="st9" d="M1045.9,355.5c0.2,1.9,1.6,2.5,3.3,2.5c1.2,0,3.3-0.3,3.2-1.9c-0.1-1.7-2.4-1.9-4.7-2.4
		c-2.4-0.5-4.6-1.3-4.6-4.3c0-3.2,3.4-4.1,6-4.1c3,0,5.7,1.2,6,4.5h-3.3c-0.3-1.5-1.5-1.9-2.9-1.9c-0.9,0-2.6,0.2-2.6,1.5
		c0,1.6,2.4,1.8,4.7,2.3c2.3,0.5,4.7,1.4,4.7,4.2c0,3.4-3.5,4.7-6.5,4.7c-3.7,0-6.3-1.6-6.4-5H1045.9z"/>
	<path class="st9" d="M1056.6,345.6h2.4v-1.2c0-3.7,1.9-4.3,4-4.3c1,0,1.8,0.1,2.2,0.2v2.5c-0.4-0.1-0.8-0.2-1.5-0.2
		c-0.9,0-1.6,0.3-1.6,1.5v1.5h2.7v2.4h-2.7v12.1h-3.2V348h-2.4V345.6z"/>
	<path class="st9" d="M1069.3,353.7c0,2.3,1.2,4.3,3.9,4.3c1.9,0,3-0.8,3.5-2.4h3c-0.7,3.2-3.4,4.9-6.6,4.9c-4.6,0-7.1-3.1-7.1-7.6
		c0-4.1,2.7-7.6,7-7.6c4.6,0,7.4,4.1,6.8,8.5H1069.3z M1076.8,351.6c-0.1-2-1.5-3.8-3.6-3.8c-2.2,0-3.7,1.7-3.8,3.8H1076.8z"/>
	<path class="st9" d="M1082.4,345.6h3v2.8h0.1c0.4-1.5,2.3-3.2,4.2-3.2c0.8,0,0.9,0.1,1.2,0.1v3.1c-0.4-0.1-0.9-0.1-1.4-0.1
		c-2.2,0-3.9,1.7-3.9,5v6.9h-3.2V345.6z"/>
	<path class="st9" d="M1098.6,345.6h2.4v-4.3h3.2v4.3h2.9v2.4h-2.9v7.7c0,1.3,0.1,2,1.5,2c0.4,0,0.9,0,1.3-0.1v2.5
		c-0.7,0.1-1.4,0.2-2.1,0.2c-3.4,0-3.9-1.3-4-3.7V348h-2.4V345.6z"/>
	<path class="st9" d="M1109.4,340.1h3.2v7.4h0.1c0.8-1.3,2.4-2.3,4.3-2.3c3.2,0,5.1,1.7,5.1,4.9v9.9h-3.2V351
		c-0.1-2.3-0.9-3.2-2.8-3.2c-2.1,0-3.5,1.7-3.5,3.8v8.5h-3.2V340.1z"/>
	<path class="st9" d="M1128,353.7c0,2.3,1.2,4.3,3.9,4.3c1.9,0,3-0.8,3.5-2.4h3c-0.7,3.2-3.4,4.9-6.6,4.9c-4.6,0-7.1-3.1-7.1-7.6
		c0-4.1,2.7-7.6,7-7.6c4.6,0,7.4,4.1,6.8,8.5H1128z M1135.4,351.6c-0.1-2-1.5-3.8-3.6-3.8c-2.2,0-3.7,1.7-3.8,3.8H1135.4z"/>
	<path class="st9" d="M1167.3,350.1c0,5.7-3.6,10.5-9.6,10.5s-9.6-4.7-9.6-10.5c0-5.7,3.6-10.5,9.6-10.5S1167.3,344.4,1167.3,350.1z
		 M1151.7,350.1c0,3.8,1.8,7.6,6.1,7.6c4.3,0,6.1-3.8,6.1-7.6s-1.8-7.6-6.1-7.6C1153.5,342.5,1151.7,346.3,1151.7,350.1z"/>
	<path class="st9" d="M1168.7,345.6h2.4v-1.2c0-3.7,1.9-4.3,4-4.3c1,0,1.8,0.1,2.2,0.2v2.5c-0.4-0.1-0.8-0.2-1.5-0.2
		c-0.9,0-1.6,0.3-1.6,1.5v1.5h2.7v2.4h-2.7v12.1h-3.2V348h-2.4V345.6z"/>
	<path class="st9" d="M1177,345.6h2.4v-1.2c0-3.7,1.9-4.3,4-4.3c1,0,1.8,0.1,2.2,0.2v2.5c-0.4-0.1-0.8-0.2-1.5-0.2
		c-0.9,0-1.6,0.3-1.6,1.5v1.5h2.7v2.4h-2.7v12.1h-3.2V348h-2.4V345.6z"/>
	<path class="st9" d="M1189.7,353.7c0,2.3,1.2,4.3,3.9,4.3c1.9,0,3-0.8,3.5-2.4h3c-0.7,3.2-3.4,4.9-6.6,4.9c-4.6,0-7.1-3.1-7.1-7.6
		c0-4.1,2.7-7.6,7-7.6c4.6,0,7.4,4.1,6.8,8.5H1189.7z M1197.2,351.6c-0.1-2-1.5-3.8-3.6-3.8c-2.2,0-3.7,1.7-3.8,3.8H1197.2z"/>
	<path class="st9" d="M1202.8,345.6h3v2.8h0.1c0.4-1.5,2.3-3.2,4.2-3.2c0.8,0,0.9,0.1,1.2,0.1v3.1c-0.4-0.1-0.9-0.1-1.4-0.1
		c-2.2,0-3.9,1.7-3.9,5v6.9h-3.2V345.6z"/>
	<path class="st9" d="M1212.7,340.1h3.2v3h-3.2V340.1z M1212.7,345.6h3.2v14.5h-3.2V345.6z"/>
	<path class="st9" d="M1219.4,345.6h3v2.1l0.1,0.1c1-1.6,2.6-2.6,4.5-2.6c3.2,0,5.1,1.7,5.1,4.9v9.9h-3.2V351
		c-0.1-2.3-0.9-3.2-2.8-3.2c-2.1,0-3.5,1.7-3.5,3.8v8.5h-3.2V345.6z"/>
	<path class="st9" d="M1248.9,359.4c0,4.4-2.5,6.5-7.1,6.5c-2.9,0-6.2-1.1-6.5-4.5h3.2c0.4,1.8,1.8,2.1,3.5,2.1
		c2.6,0,3.7-1.3,3.7-3.7v-2.2h-0.1c-0.9,1.6-2.5,2.5-4.3,2.5c-4.6,0-6.5-3.5-6.5-7.6c0-3.9,2.4-7.3,6.6-7.3c1.8,0,3.5,0.7,4.3,2.4
		h0.1v-2h3.2V359.4z M1245.7,352.6c0-2.5-1.1-4.8-3.9-4.8c-2.8,0-3.8,2.6-3.8,5c0,2.4,1.1,4.8,3.8,4.8
		C1244.6,357.6,1245.7,355,1245.7,352.6z"/>
	<path class="st9" d="M1259.9,340.1h3.2v3h-3.2V340.1z M1259.9,345.6h3.2v14.5h-3.2V345.6z"/>
	<path class="st9" d="M1266.6,345.6h3v2.1l0.1,0.1c1-1.6,2.6-2.6,4.5-2.6c3.2,0,5.1,1.7,5.1,4.9v9.9h-3.2V351
		c-0.1-2.3-0.9-3.2-2.8-3.2c-2.1,0-3.5,1.7-3.5,3.8v8.5h-3.2V345.6z"/>
	<path class="st9" d="M1281.2,345.6h2.4v-4.3h3.2v4.3h2.9v2.4h-2.9v7.7c0,1.3,0.1,2,1.5,2c0.4,0,0.9,0,1.3-0.1v2.5
		c-0.7,0.1-1.4,0.2-2.1,0.2c-3.4,0-3.9-1.3-4-3.7V348h-2.4V345.6z"/>
	<path class="st9" d="M1291.3,352.9c0-4.4,2.7-7.6,7.3-7.6c4.6,0,7.3,3.2,7.3,7.6c0,4.5-2.7,7.6-7.3,7.6
		C1294,360.5,1291.3,357.3,1291.3,352.9z M1302.8,352.9c0-2.5-1.3-5.1-4.1-5.1c-2.9,0-4.1,2.6-4.1,5.1c0,2.5,1.3,5.1,4.1,5.1
		C1301.5,358,1302.8,355.4,1302.8,352.9z"/>
	<path class="st9" d="M1328.5,356.9c0,0.8,0.2,1.1,0.8,1.1h0.3c0.1,0,0.3,0,0.4-0.1v2.2c-0.5,0.2-1.5,0.4-2,0.4
		c-1.3,0-2.2-0.4-2.5-1.8c-1.3,1.2-3.3,1.8-5,1.8c-2.6,0-5-1.4-5-4.2c0-3.6,2.9-4.2,5.6-4.5c2.3-0.4,4.3-0.1,4.3-2c0-1.7-1.7-2-3-2
		c-1.8,0-3.1,0.7-3.2,2.3h-3.2c0.2-3.7,3.4-4.8,6.6-4.8c2.8,0,5.8,1.1,5.8,4.2V356.9z M1325.3,352.9c-1,0.6-2.5,0.6-3.9,0.9
		c-1.4,0.2-2.6,0.7-2.6,2.4c0,1.5,1.8,1.8,2.9,1.8c1.4,0,3.6-0.7,3.6-2.7V352.9z"/>
	<path class="st9" d="M841,389.1c0.2,1.9,1.6,2.5,3.3,2.5c1.2,0,3.3-0.3,3.2-1.9c-0.1-1.7-2.4-1.9-4.7-2.4c-2.4-0.5-4.6-1.3-4.6-4.3
		c0-3.2,3.4-4.1,6-4.1c3,0,5.7,1.2,6,4.5h-3.3c-0.3-1.5-1.5-1.9-2.9-1.9c-0.9,0-2.6,0.2-2.6,1.5c0,1.6,2.4,1.8,4.7,2.3
		c2.3,0.5,4.7,1.4,4.7,4.2c0,3.4-3.5,4.7-6.5,4.7c-3.7,0-6.3-1.6-6.4-5H841z"/>
	<path class="st9" d="M851.7,379.2h2.4v-4.3h3.2v4.3h2.9v2.4h-2.9v7.7c0,1.3,0.1,2,1.5,2c0.4,0,0.9,0,1.3-0.1v2.5
		c-0.7,0.1-1.4,0.2-2.1,0.2c-3.4,0-3.9-1.3-4-3.7v-8.5h-2.4V379.2z"/>
	<path class="st9" d="M874.6,390.5c0,0.8,0.2,1.1,0.8,1.1h0.3c0.1,0,0.3,0,0.4-0.1v2.2c-0.5,0.2-1.5,0.4-2,0.4
		c-1.3,0-2.2-0.4-2.5-1.8c-1.3,1.2-3.3,1.8-5,1.8c-2.6,0-5-1.4-5-4.2c0-3.6,2.9-4.2,5.6-4.5c2.3-0.4,4.3-0.1,4.3-2c0-1.7-1.7-2-3-2
		c-1.8,0-3.1,0.7-3.2,2.3h-3.2c0.2-3.7,3.4-4.8,6.6-4.8c2.8,0,5.8,1.1,5.8,4.2V390.5z M871.4,386.5c-1,0.6-2.5,0.6-3.9,0.9
		c-1.4,0.2-2.6,0.7-2.6,2.4c0,1.5,1.8,1.8,2.9,1.8c1.4,0,3.6-0.7,3.6-2.7V386.5z"/>
	<path class="st9" d="M891.4,393c0,4.4-2.5,6.5-7.1,6.5c-2.9,0-6.2-1.1-6.5-4.5h3.2c0.4,1.8,1.8,2.1,3.5,2.1c2.6,0,3.7-1.3,3.7-3.7
		v-2.2h-0.1c-0.9,1.6-2.5,2.5-4.3,2.5c-4.6,0-6.5-3.5-6.5-7.6c0-3.9,2.4-7.3,6.6-7.3c1.8,0,3.5,0.7,4.3,2.4h0.1v-2h3.2V393z
		 M888.2,386.2c0-2.5-1.1-4.8-3.9-4.8c-2.8,0-3.8,2.6-3.8,5c0,2.4,1.1,4.8,3.8,4.8C887.2,391.2,888.2,388.6,888.2,386.2z"/>
	<path class="st9" d="M894.7,373.7h3.2v3h-3.2V373.7z M894.7,379.2h3.2v14.5h-3.2V379.2z"/>
	<path class="st9" d="M901.4,379.2h3v2.1l0.1,0.1c1-1.6,2.6-2.6,4.5-2.6c3.2,0,5.1,1.7,5.1,4.9v9.9h-3.2v-9.1
		c-0.1-2.3-0.9-3.2-2.8-3.2c-2.1,0-3.5,1.7-3.5,3.8v8.5h-3.2V379.2z"/>
	<path class="st9" d="M930.9,393c0,4.4-2.5,6.5-7.1,6.5c-2.9,0-6.2-1.1-6.5-4.5h3.2c0.4,1.8,1.8,2.1,3.5,2.1c2.6,0,3.7-1.3,3.7-3.7
		v-2.2h-0.1c-0.9,1.6-2.5,2.5-4.3,2.5c-4.6,0-6.5-3.5-6.5-7.6c0-3.9,2.4-7.3,6.6-7.3c1.8,0,3.5,0.7,4.3,2.4h0.1v-2h3.2V393z
		 M927.7,386.2c0-2.5-1.1-4.8-3.9-4.8c-2.8,0-3.8,2.6-3.8,5c0,2.4,1.1,4.8,3.8,4.8C926.6,391.2,927.7,388.6,927.7,386.2z"/>
	<path class="st9" d="M941.2,386.5c0-4.4,2.7-7.6,7.3-7.6c4.6,0,7.3,3.2,7.3,7.6c0,4.5-2.7,7.6-7.3,7.6
		C943.9,394.1,941.2,390.9,941.2,386.5z M952.6,386.5c0-2.5-1.3-5.1-4.1-5.1c-2.9,0-4.1,2.6-4.1,5.1c0,2.5,1.3,5.1,4.1,5.1
		C951.4,391.6,952.6,389,952.6,386.5z"/>
	<path class="st9" d="M958.5,379.2h3v2.8h0.1c0.4-1.5,2.3-3.2,4.2-3.2c0.8,0,0.9,0.1,1.2,0.1v3.1c-0.4-0.1-0.9-0.1-1.4-0.1
		c-2.2,0-3.9,1.7-3.9,5v6.9h-3.2V379.2z"/>
	<path class="st9" d="M976.2,379.2h3v2h0.1c0.9-1.7,2.6-2.4,4.5-2.4c4.6,0,6.8,3.4,6.8,7.7c0,3.9-2,7.6-6.2,7.6
		c-1.8,0-3.9-0.7-4.8-2.3h-0.1v7.2h-3.2V379.2z M983.3,381.4c-2.7,0-4.1,2-4.1,5.1c0,2.9,1.5,5.1,4.1,5.1c2.9,0,4-2.6,4-5.1
		C987.3,383.9,986,381.4,983.3,381.4z"/>
	<path class="st9" d="M993.2,379.2h3v2.8h0.1c0.4-1.5,2.3-3.2,4.2-3.2c0.8,0,0.9,0.1,1.2,0.1v3.1c-0.4-0.1-0.9-0.1-1.4-0.1
		c-2.2,0-3.9,1.7-3.9,5v6.9h-3.2V379.2z"/>
	<path class="st9" d="M1005.1,387.3c0,2.3,1.2,4.3,3.9,4.3c1.9,0,3-0.8,3.5-2.4h3c-0.7,3.2-3.4,4.9-6.6,4.9c-4.6,0-7.1-3.1-7.1-7.6
		c0-4.1,2.7-7.6,7-7.6c4.6,0,7.4,4.1,6.8,8.5H1005.1z M1012.5,385.2c-0.1-2-1.5-3.8-3.6-3.8c-2.2,0-3.7,1.7-3.8,3.8H1012.5z"/>
	<path class="st9" d="M1017.8,384.6h8.1v3h-8.1V384.6z"/>
	<path class="st9" d="M1029.1,379.2h3v2h0.1c0.9-1.7,2.6-2.4,4.5-2.4c4.6,0,6.8,3.4,6.8,7.7c0,3.9-2,7.6-6.2,7.6
		c-1.8,0-3.9-0.7-4.8-2.3h-0.1v7.2h-3.2V379.2z M1036.2,381.4c-2.7,0-4.1,2-4.1,5.1c0,2.9,1.5,5.1,4.1,5.1c2.9,0,4-2.6,4-5.1
		C1040.3,383.9,1038.9,381.4,1036.2,381.4z"/>
	<path class="st9" d="M1046.1,379.2h3v2.8h0.1c0.4-1.5,2.3-3.2,4.2-3.2c0.8,0,0.9,0.1,1.2,0.1v3.1c-0.4-0.1-0.9-0.1-1.4-0.1
		c-2.2,0-3.9,1.7-3.9,5v6.9h-3.2V379.2z"/>
	<path class="st9" d="M1054.8,386.5c0-4.4,2.7-7.6,7.3-7.6c4.6,0,7.3,3.2,7.3,7.6c0,4.5-2.7,7.6-7.3,7.6
		C1057.5,394.1,1054.8,390.9,1054.8,386.5z M1066.2,386.5c0-2.5-1.3-5.1-4.1-5.1c-2.9,0-4.1,2.6-4.1,5.1c0,2.5,1.3,5.1,4.1,5.1
		C1065,391.6,1066.2,389,1066.2,386.5z"/>
	<path class="st9" d="M1085.7,393.7h-3v-2h-0.1c-0.9,1.7-2.7,2.4-4.5,2.4c-4.6,0-6.8-3.4-6.8-7.7c0-5.3,3.1-7.5,6.3-7.5
		c1.8,0,3.8,0.7,4.8,2.3h0.1v-7.4h3.2V393.7z M1078.6,391.6c2.8,0,4.1-2.6,4.1-5.1c0-3.2-1.5-5.1-4-5.1c-3,0-4.1,2.7-4.1,5.3
		C1074.6,389.1,1075.8,391.6,1078.6,391.6z"/>
	<path class="st9" d="M1101.9,393.7h-3.1v-2h-0.1c-0.8,1.5-2.5,2.4-4.1,2.4c-3.8,0-5.4-1.9-5.4-5.7v-9.2h3.2v8.9
		c0,2.5,1,3.5,2.8,3.5c2.7,0,3.6-1.7,3.6-3.9v-8.4h3.2V393.7z"/>
	<path class="st9" d="M1115,384.1c-0.3-1.8-1.5-2.7-3.3-2.7c-1.7,0-4,0.9-4,5.3c0,2.4,1.1,5,3.8,5c1.9,0,3.1-1.2,3.4-3.3h3.2
		c-0.6,3.8-2.9,5.8-6.6,5.8c-4.5,0-7-3.2-7-7.5c0-4.4,2.4-7.8,7.1-7.8c3.4,0,6.2,1.7,6.5,5.2H1115z"/>
	<path class="st9" d="M1119.4,379.2h2.4v-4.3h3.2v4.3h2.9v2.4h-2.9v7.7c0,1.3,0.1,2,1.5,2c0.4,0,0.9,0,1.3-0.1v2.5
		c-0.7,0.1-1.4,0.2-2.1,0.2c-3.4,0-3.9-1.3-4-3.7v-8.5h-2.4V379.2z"/>
	<path class="st9" d="M1130.2,373.7h3.2v3h-3.2V373.7z M1130.2,379.2h3.2v14.5h-3.2V379.2z"/>
	<path class="st9" d="M1136.2,386.5c0-4.4,2.7-7.6,7.3-7.6c4.6,0,7.3,3.2,7.3,7.6c0,4.5-2.7,7.6-7.3,7.6
		C1138.9,394.1,1136.2,390.9,1136.2,386.5z M1147.7,386.5c0-2.5-1.3-5.1-4.1-5.1c-2.9,0-4.1,2.6-4.1,5.1c0,2.5,1.3,5.1,4.1,5.1
		C1146.4,391.6,1147.7,389,1147.7,386.5z"/>
	<path class="st9" d="M1153.5,379.2h3v2.1l0.1,0.1c1-1.6,2.6-2.6,4.5-2.6c3.2,0,5.1,1.7,5.1,4.9v9.9h-3.2v-9.1
		c-0.1-2.3-0.9-3.2-2.8-3.2c-2.1,0-3.5,1.7-3.5,3.8v8.5h-3.2V379.2z"/>
	<path class="st9" d="M1179.9,387.3c0,2.3,1.2,4.3,3.9,4.3c1.9,0,3-0.8,3.5-2.4h3c-0.7,3.2-3.4,4.9-6.6,4.9c-4.6,0-7.1-3.1-7.1-7.6
		c0-4.1,2.7-7.6,7-7.6c4.6,0,7.4,4.1,6.8,8.5H1179.9z M1187.3,385.2c-0.1-2-1.5-3.8-3.6-3.8c-2.2,0-3.7,1.7-3.8,3.8H1187.3z"/>
	<path class="st9" d="M1192.9,379.2h3v2.1l0.1,0.1c1-1.6,2.6-2.6,4.5-2.6c3.2,0,5.1,1.7,5.1,4.9v9.9h-3.2v-9.1
		c-0.1-2.3-0.9-3.2-2.8-3.2c-2.1,0-3.5,1.7-3.5,3.8v8.5h-3.2V379.2z"/>
	<path class="st9" d="M1207.6,379.2h3.5l3.7,11.1h0.1l3.5-11.1h3.3l-5.2,14.5h-3.6L1207.6,379.2z"/>
	<path class="st9" d="M1223.6,373.7h3.2v3h-3.2V373.7z M1223.6,379.2h3.2v14.5h-3.2V379.2z"/>
	<path class="st9" d="M1230.3,379.2h3v2.8h0.1c0.4-1.5,2.3-3.2,4.2-3.2c0.8,0,0.9,0.1,1.2,0.1v3.1c-0.4-0.1-0.9-0.1-1.4-0.1
		c-2.2,0-3.9,1.7-3.9,5v6.9h-3.2V379.2z"/>
	<path class="st9" d="M1239,386.5c0-4.4,2.7-7.6,7.3-7.6c4.6,0,7.3,3.2,7.3,7.6c0,4.5-2.7,7.6-7.3,7.6
		C1241.7,394.1,1239,390.9,1239,386.5z M1250.4,386.5c0-2.5-1.3-5.1-4.1-5.1c-2.9,0-4.1,2.6-4.1,5.1c0,2.5,1.3,5.1,4.1,5.1
		C1249.1,391.6,1250.4,389,1250.4,386.5z"/>
	<path class="st9" d="M1256.2,379.2h3v2.1l0.1,0.1c1-1.6,2.6-2.6,4.5-2.6c3.2,0,5.1,1.7,5.1,4.9v9.9h-3.2v-9.1
		c-0.1-2.3-0.9-3.2-2.8-3.2c-2.1,0-3.5,1.7-3.5,3.8v8.5h-3.2V379.2z"/>
	<path class="st9" d="M1272.3,379.2h3v2h0.1c1-1.4,2.1-2.4,4.5-2.4c1.8,0,3.4,0.8,4.1,2.4c1.1-1.5,2.4-2.4,4.5-2.4
		c3.1,0,4.8,1.4,4.8,4.9v10h-3.2v-8.5c0-2.3-0.1-3.9-2.6-3.9c-2.2,0-3.1,1.4-3.1,3.9v8.5h-3.2v-9.3c0-2-0.6-3.1-2.5-3.1
		c-1.7,0-3.2,1.4-3.2,3.8v8.6h-3.2V379.2z"/>
	<path class="st9" d="M1299.2,387.3c0,2.3,1.2,4.3,3.9,4.3c1.9,0,3-0.8,3.5-2.4h3c-0.7,3.2-3.4,4.9-6.6,4.9c-4.6,0-7.1-3.1-7.1-7.6
		c0-4.1,2.7-7.6,7-7.6c4.6,0,7.4,4.1,6.8,8.5H1299.2z M1306.6,385.2c-0.1-2-1.5-3.8-3.6-3.8c-2.2,0-3.7,1.7-3.8,3.8H1306.6z"/>
	<path class="st9" d="M1312.2,379.2h3v2.1l0.1,0.1c1-1.6,2.6-2.6,4.5-2.6c3.2,0,5.1,1.7,5.1,4.9v9.9h-3.2v-9.1
		c-0.1-2.3-0.9-3.2-2.8-3.2c-2.1,0-3.5,1.7-3.5,3.8v8.5h-3.2V379.2z"/>
	<path class="st9" d="M1326.9,379.2h2.4v-4.3h3.2v4.3h2.9v2.4h-2.9v7.7c0,1.3,0.1,2,1.5,2c0.4,0,0.9,0,1.3-0.1v2.5
		c-0.7,0.1-1.4,0.2-2.1,0.2c-3.4,0-3.9-1.3-4-3.7v-8.5h-2.4V379.2z"/>
	<path class="st9" d="M1337.9,389.9h3.9v3.8h-3.9V389.9z"/>
</g>
<g>
	<rect x="460.5" y="172.1" class="st8" width="978.9" height="59.3"/>
	<path class="st9" d="M462.8,172.1h8.9c6.6,0,9.5,4.8,9.5,10.7c0,5.9-2.8,10.7-9.5,10.7h-8.9V172.1z M466.5,190.5h3.7
		c5.9,0,7.1-3.3,7.1-7.7c0-4.3-1.3-7.6-7.1-7.6h-3.7V190.5z"/>
	<path class="st9" d="M486.6,186.7c0,2.4,1.3,4.6,4.2,4.6c2,0,3.2-0.9,3.8-2.6h3.2c-0.7,3.4-3.7,5.3-7,5.3c-4.9,0-7.6-3.4-7.6-8.2
		c0-4.4,2.9-8.2,7.5-8.2c4.9,0,7.9,4.4,7.3,9.1H486.6z M494.6,184.4c-0.1-2.2-1.6-4.1-3.9-4.1c-2.4,0-4,1.8-4.1,4.1H494.6z"/>
	<path class="st9" d="M503.2,188.6c0.2,2,1.7,2.7,3.5,2.7c1.3,0,3.5-0.3,3.5-2c-0.1-1.8-2.6-2-5.1-2.6c-2.5-0.5-5-1.4-5-4.6
		c0-3.4,3.7-4.4,6.5-4.4c3.2,0,6.1,1.3,6.5,4.8h-3.6c-0.3-1.7-1.6-2.1-3.2-2.1c-1,0-2.8,0.2-2.8,1.6c0,1.7,2.5,2,5,2.5
		c2.5,0.6,5,1.5,5,4.5c0,3.7-3.7,5-6.9,5c-3.9,0-6.8-1.7-6.9-5.4H503.2z"/>
	<path class="st9" d="M516.3,172.1h3.4v3.2h-3.4V172.1z M516.3,178h3.4v15.5h-3.4V178z"/>
	<path class="st9" d="M537.8,192.7c0,4.7-2.7,7-7.6,7c-3.1,0-6.6-1.2-6.9-4.8h3.4c0.4,1.9,2,2.3,3.7,2.3c2.8,0,4-1.4,4-4v-2.4h-0.1
		c-1,1.7-2.7,2.7-4.6,2.7c-4.9,0-7-3.7-7-8.2c0-4.2,2.6-7.8,7-7.8c2,0,3.7,0.8,4.6,2.5h0.1V178h3.4V192.7z M534.4,185.5
		c0-2.7-1.2-5.1-4.2-5.1c-3,0-4.1,2.8-4.1,5.4c0,2.5,1.2,5.1,4.1,5.1C533.2,190.8,534.4,188.1,534.4,185.5z"/>
	<path class="st9" d="M541.2,178h3.2v2.3l0.1,0.1c1-1.7,2.8-2.8,4.8-2.8c3.4,0,5.5,1.8,5.5,5.3v10.6h-3.4v-9.8c-0.1-2.4-1-3.5-3-3.5
		c-2.3,0-3.8,1.8-3.8,4.1v9.1h-3.4V178z"/>
	<path class="st9" d="M565.2,172.1h17.3v3.2h-6.8v18.2H572v-18.2h-6.8V172.1z"/>
	<path class="st9" d="M581.8,178h3.2v3h0.1c0.4-1.6,2.5-3.4,4.5-3.4c0.8,0,1,0.1,1.3,0.1v3.3c-0.5-0.1-1-0.2-1.5-0.2
		c-2.3,0-4.2,1.9-4.2,5.3v7.4h-3.4V178z"/>
	<path class="st9" d="M605.4,190.1c0,0.8,0.2,1.2,0.8,1.2h0.4c0.2,0,0.3,0,0.5-0.1v2.4c-0.5,0.2-1.6,0.4-2.2,0.4
		c-1.4,0-2.4-0.5-2.6-1.9c-1.3,1.3-3.5,1.9-5.4,1.9c-2.8,0-5.3-1.5-5.3-4.5c0-3.9,3.1-4.5,6-4.8c2.5-0.5,4.6-0.2,4.6-2.2
		c0-1.8-1.9-2.1-3.2-2.1c-1.9,0-3.3,0.8-3.4,2.5h-3.4c0.2-4,3.6-5.2,7-5.2c3,0,6.2,1.2,6.2,4.5V190.1z M602,185.8
		c-1,0.7-2.7,0.7-4.2,0.9c-1.5,0.2-2.8,0.8-2.8,2.6c0,1.6,2,2,3.1,2c1.5,0,3.8-0.8,3.8-2.9V185.8z"/>
	<path class="st9" d="M609.1,178h3.2v2.3l0.1,0.1c1-1.7,2.8-2.8,4.8-2.8c3.4,0,5.5,1.8,5.5,5.3v10.6h-3.4v-9.8c-0.1-2.4-1-3.5-3-3.5
		c-2.3,0-3.8,1.8-3.8,4.1v9.1h-3.4V178z"/>
	<path class="st9" d="M628.9,188.6c0.2,2,1.7,2.7,3.5,2.7c1.3,0,3.5-0.3,3.5-2c-0.1-1.8-2.6-2-5.1-2.6c-2.5-0.5-5-1.4-5-4.6
		c0-3.4,3.7-4.4,6.5-4.4c3.2,0,6.1,1.3,6.5,4.8h-3.6c-0.3-1.7-1.6-2.1-3.2-2.1c-1,0-2.8,0.2-2.8,1.6c0,1.7,2.5,2,5,2.5
		c2.5,0.6,5,1.5,5,4.5c0,3.7-3.7,5-6.9,5c-3.9,0-6.8-1.7-6.9-5.4H628.9z"/>
	<path class="st9" d="M640.3,178h2.6v-1.3c0-4,2.1-4.6,4.3-4.6c1.1,0,1.9,0.1,2.4,0.2v2.7c-0.5-0.1-0.9-0.2-1.6-0.2
		c-0.9,0-1.7,0.3-1.7,1.6v1.6h2.9v2.6h-2.9v13h-3.4v-13h-2.6V178z"/>
	<path class="st9" d="M654,186.7c0,2.4,1.3,4.6,4.2,4.6c2,0,3.2-0.9,3.8-2.6h3.2c-0.7,3.4-3.7,5.3-7,5.3c-4.9,0-7.6-3.4-7.6-8.2
		c0-4.4,2.9-8.2,7.5-8.2c4.9,0,7.9,4.4,7.3,9.1H654z M662,184.4c-0.1-2.2-1.6-4.1-3.9-4.1c-2.4,0-4,1.8-4.1,4.1H662z"/>
	<path class="st9" d="M668,178h3.2v3h0.1c0.4-1.6,2.5-3.4,4.5-3.4c0.8,0,1,0.1,1.3,0.1v3.3c-0.5-0.1-1-0.2-1.5-0.2
		c-2.3,0-4.2,1.9-4.2,5.3v7.4H668V178z"/>
	<path class="st9" d="M687,172.1h3.4v3.2H687V172.1z M687,178h3.4v15.5H687V178z"/>
	<path class="st9" d="M696.7,188.6c0.2,2,1.7,2.7,3.5,2.7c1.3,0,3.5-0.3,3.5-2c-0.1-1.8-2.6-2-5.1-2.6c-2.5-0.5-5-1.4-5-4.6
		c0-3.4,3.7-4.4,6.5-4.4c3.2,0,6.1,1.3,6.5,4.8H703c-0.3-1.7-1.6-2.1-3.2-2.1c-1,0-2.8,0.2-2.8,1.6c0,1.7,2.5,2,5,2.5
		c2.5,0.6,5,1.5,5,4.5c0,3.7-3.7,5-6.9,5c-3.9,0-6.8-1.7-6.9-5.4H696.7z"/>
	<path class="st9" d="M718.1,178h3.2v2.1h0.1c1-1.8,2.8-2.5,4.8-2.5c4.9,0,7.3,3.7,7.3,8.2c0,4.2-2.1,8.1-6.7,8.1
		c-2,0-4.1-0.7-5.2-2.4h-0.1v7.7h-3.4V178z M725.8,180.3c-2.9,0-4.4,2.2-4.4,5.5c0,3.1,1.6,5.5,4.4,5.5c3.1,0,4.3-2.8,4.3-5.5
		C730.1,183,728.6,180.3,725.8,180.3z"/>
	<path class="st9" d="M739,186.7c0,2.4,1.3,4.6,4.2,4.6c2,0,3.2-0.9,3.8-2.6h3.2c-0.7,3.4-3.7,5.3-7,5.3c-4.9,0-7.6-3.4-7.6-8.2
		c0-4.4,2.9-8.2,7.5-8.2c4.9,0,7.9,4.4,7.3,9.1H739z M747,184.4c-0.1-2.2-1.6-4.1-3.9-4.1c-2.4,0-4,1.8-4.1,4.1H747z"/>
	<path class="st9" d="M753,178h3.2v3h0.1c0.4-1.6,2.5-3.4,4.5-3.4c0.8,0,1,0.1,1.3,0.1v3.3c-0.5-0.1-1-0.2-1.5-0.2
		c-2.3,0-4.2,1.9-4.2,5.3v7.4H753V178z"/>
	<path class="st9" d="M762.1,178h2.6v-1.3c0-4,2.1-4.6,4.3-4.6c1.1,0,1.9,0.1,2.4,0.2v2.7c-0.5-0.1-0.9-0.2-1.6-0.2
		c-0.9,0-1.7,0.3-1.7,1.6v1.6h2.9v2.6H768v13h-3.4v-13h-2.6V178z"/>
	<path class="st9" d="M772.3,185.8c0-4.7,2.9-8.2,7.8-8.2c5,0,7.8,3.5,7.8,8.2c0,4.8-2.9,8.2-7.8,8.2
		C775.2,194,772.3,190.5,772.3,185.8z M784.6,185.8c0-2.7-1.3-5.5-4.4-5.5c-3.1,0-4.4,2.8-4.4,5.5c0,2.7,1.3,5.5,4.4,5.5
		C783.2,191.3,784.6,188.5,784.6,185.8z"/>
	<path class="st9" d="M790.8,178h3.2v3h0.1c0.4-1.6,2.5-3.4,4.5-3.4c0.8,0,1,0.1,1.3,0.1v3.3c-0.5-0.1-1-0.2-1.5-0.2
		c-2.3,0-4.2,1.9-4.2,5.3v7.4h-3.4V178z"/>
	<path class="st9" d="M801.4,178h3.2v2.2h0.1c1-1.5,2.3-2.6,4.8-2.6c1.9,0,3.7,0.8,4.3,2.6c1.2-1.6,2.6-2.6,4.9-2.6
		c3.3,0,5.2,1.5,5.2,5.2v10.7h-3.4v-9.1c0-2.5-0.1-4.2-2.8-4.2c-2.3,0-3.3,1.5-3.3,4.1v9.1h-3.4v-10c0-2.2-0.7-3.3-2.7-3.3
		c-1.8,0-3.4,1.5-3.4,4v9.2h-3.4V178z"/>
	<path class="st9" d="M830.2,186.7c0,2.4,1.3,4.6,4.2,4.6c2,0,3.2-0.9,3.8-2.6h3.2c-0.7,3.4-3.7,5.3-7,5.3c-4.9,0-7.6-3.4-7.6-8.2
		c0-4.4,2.9-8.2,7.5-8.2c4.9,0,7.9,4.4,7.3,9.1H830.2z M838.1,184.4c-0.1-2.2-1.6-4.1-3.9-4.1c-2.4,0-4,1.8-4.1,4.1H838.1z"/>
	<path class="st9" d="M858.8,193.5h-3.2v-2.1h-0.1c-0.9,1.8-2.8,2.5-4.8,2.5c-4.9,0-7.3-3.6-7.3-8.3c0-5.6,3.3-8.1,6.7-8.1
		c1.9,0,4.1,0.7,5.2,2.4h0.1v-7.9h3.4V193.5z M851.1,191.3c3,0,4.3-2.8,4.3-5.5c0-3.5-1.6-5.5-4.3-5.5c-3.2,0-4.3,2.9-4.3,5.6
		C846.8,188.6,848.2,191.3,851.1,191.3z"/>
	<path class="st9" d="M870.9,172.1h3.4v3.2h-3.4V172.1z M870.9,178h3.4v15.5h-3.4V178z"/>
	<path class="st9" d="M878.1,178h3.2v2.3l0.1,0.1c1-1.7,2.8-2.8,4.8-2.8c3.4,0,5.5,1.8,5.5,5.3v10.6h-3.4v-9.8c-0.1-2.4-1-3.5-3-3.5
		c-2.3,0-3.8,1.8-3.8,4.1v9.1h-3.4V178z"/>
	<path class="st9" d="M902.1,178h2.6v-4.6h3.4v4.6h3.1v2.6h-3.1v8.3c0,1.4,0.1,2.1,1.6,2.1c0.5,0,1,0,1.4-0.1v2.6
		c-0.8,0.1-1.5,0.2-2.2,0.2c-3.6,0-4.2-1.4-4.3-4v-9.1h-2.6V178z"/>
	<path class="st9" d="M913.6,172.1h3.4v7.9h0.1c0.8-1.4,2.6-2.5,4.7-2.5c3.4,0,5.5,1.8,5.5,5.3v10.6h-3.4v-9.8c-0.1-2.4-1-3.5-3-3.5
		c-2.3,0-3.8,1.8-3.8,4.1v9.1h-3.4V172.1z"/>
	<path class="st9" d="M930.8,178h3.2v3h0.1c0.4-1.6,2.5-3.4,4.5-3.4c0.8,0,1,0.1,1.3,0.1v3.3c-0.5-0.1-1-0.2-1.5-0.2
		c-2.3,0-4.2,1.9-4.2,5.3v7.4h-3.4V178z"/>
	<path class="st9" d="M943.5,186.7c0,2.4,1.3,4.6,4.2,4.6c2,0,3.2-0.9,3.8-2.6h3.2c-0.7,3.4-3.7,5.3-7,5.3c-4.9,0-7.6-3.4-7.6-8.2
		c0-4.4,2.9-8.2,7.5-8.2c4.9,0,7.9,4.4,7.3,9.1H943.5z M951.5,184.4c-0.1-2.2-1.6-4.1-3.9-4.1c-2.4,0-4,1.8-4.1,4.1H951.5z"/>
	<path class="st9" d="M960.2,186.7c0,2.4,1.3,4.6,4.2,4.6c2,0,3.2-0.9,3.8-2.6h3.2c-0.7,3.4-3.7,5.3-7,5.3c-4.9,0-7.6-3.4-7.6-8.2
		c0-4.4,2.9-8.2,7.5-8.2c4.9,0,7.9,4.4,7.3,9.1H960.2z M968.2,184.4c-0.1-2.2-1.6-4.1-3.9-4.1c-2.4,0-4,1.8-4.1,4.1H968.2z"/>
	<path class="st9" d="M982.7,178h3.2v2.1h0.1c1-1.8,2.8-2.5,4.8-2.5c4.9,0,7.3,3.7,7.3,8.2c0,4.2-2.1,8.1-6.7,8.1
		c-2,0-4.1-0.7-5.2-2.4h-0.1v7.7h-3.4V178z M990.3,180.3c-2.9,0-4.4,2.2-4.4,5.5c0,3.1,1.6,5.5,4.4,5.5c3.1,0,4.3-2.8,4.3-5.5
		C994.6,183,993.1,180.3,990.3,180.3z"/>
	<path class="st9" d="M1000.9,172.1h3.4v7.9h0.1c0.8-1.4,2.6-2.5,4.6-2.5c3.4,0,5.5,1.8,5.5,5.3v10.6h-3.4v-9.8
		c-0.1-2.4-1-3.5-3-3.5c-2.3,0-3.8,1.8-3.8,4.1v9.1h-3.4V172.1z"/>
	<path class="st9" d="M1031.1,190.1c0,0.8,0.2,1.2,0.8,1.2h0.4c0.2,0,0.3,0,0.5-0.1v2.4c-0.5,0.2-1.6,0.4-2.2,0.4
		c-1.4,0-2.4-0.5-2.6-1.9c-1.3,1.3-3.5,1.9-5.4,1.9c-2.8,0-5.3-1.5-5.3-4.5c0-3.9,3.1-4.5,6-4.8c2.5-0.5,4.6-0.2,4.6-2.2
		c0-1.8-1.9-2.1-3.2-2.1c-1.9,0-3.3,0.8-3.4,2.5h-3.4c0.2-4,3.6-5.2,7-5.2c3,0,6.2,1.2,6.2,4.5V190.1z M1027.7,185.8
		c-1,0.7-2.7,0.7-4.2,0.9c-1.5,0.2-2.8,0.8-2.8,2.6c0,1.6,2,2,3.1,2c1.5,0,3.8-0.8,3.8-2.9V185.8z"/>
	<path class="st9" d="M1037.4,188.6c0.2,2,1.7,2.7,3.5,2.7c1.3,0,3.5-0.3,3.5-2c-0.1-1.8-2.6-2-5.1-2.6c-2.5-0.5-5-1.4-5-4.6
		c0-3.4,3.7-4.4,6.5-4.4c3.2,0,6.1,1.3,6.5,4.8h-3.6c-0.3-1.7-1.6-2.1-3.2-2.1c-1,0-2.8,0.2-2.8,1.6c0,1.7,2.5,2,5,2.5
		c2.5,0.6,5,1.5,5,4.5c0,3.7-3.7,5-6.9,5c-3.9,0-6.8-1.7-6.9-5.4H1037.4z"/>
	<path class="st9" d="M1053,186.7c0,2.4,1.3,4.6,4.2,4.6c2,0,3.2-0.9,3.8-2.6h3.2c-0.7,3.4-3.7,5.3-7,5.3c-4.9,0-7.6-3.4-7.6-8.2
		c0-4.4,2.9-8.2,7.5-8.2c4.9,0,7.9,4.4,7.3,9.1H1053z M1061,184.4c-0.1-2.2-1.6-4.1-3.9-4.1c-2.4,0-4,1.8-4.1,4.1H1061z"/>
	<path class="st9" d="M1069.6,188.6c0.2,2,1.7,2.7,3.5,2.7c1.3,0,3.5-0.3,3.5-2c-0.1-1.8-2.6-2-5.1-2.6c-2.5-0.5-5-1.4-5-4.6
		c0-3.4,3.7-4.4,6.5-4.4c3.2,0,6.1,1.3,6.5,4.8h-3.6c-0.3-1.7-1.6-2.1-3.2-2.1c-1,0-2.8,0.2-2.8,1.6c0,1.7,2.5,2,5,2.5
		c2.5,0.6,5,1.5,5,4.5c0,3.7-3.7,5-6.9,5c-3.9,0-6.8-1.7-6.9-5.4H1069.6z"/>
	<path class="st9" d="M1105.6,193.5h-3.2v-2.1h-0.1c-0.9,1.8-2.8,2.5-4.8,2.5c-4.9,0-7.3-3.6-7.3-8.3c0-5.6,3.3-8.1,6.7-8.1
		c1.9,0,4.1,0.7,5.2,2.4h0.1v-7.9h3.4V193.5z M1097.9,191.3c3,0,4.3-2.8,4.3-5.5c0-3.5-1.6-5.5-4.3-5.5c-3.2,0-4.3,2.9-4.3,5.6
		C1093.6,188.6,1094.9,191.3,1097.9,191.3z"/>
	<path class="st9" d="M1112,186.7c0,2.4,1.3,4.6,4.2,4.6c2,0,3.2-0.9,3.8-2.6h3.2c-0.7,3.4-3.7,5.3-7,5.3c-4.9,0-7.6-3.4-7.6-8.2
		c0-4.4,2.9-8.2,7.5-8.2c4.9,0,7.9,4.4,7.3,9.1H1112z M1119.9,184.4c-0.1-2.2-1.6-4.1-3.9-4.1c-2.4,0-4,1.8-4.1,4.1H1119.9z"/>
	<path class="st9" d="M1124.4,178h2.6v-4.6h3.4v4.6h3.1v2.6h-3.1v8.3c0,1.4,0.1,2.1,1.6,2.1c0.5,0,1,0,1.4-0.1v2.6
		c-0.8,0.1-1.5,0.2-2.2,0.2c-3.6,0-4.2-1.4-4.3-4v-9.1h-2.6V178z"/>
	<path class="st9" d="M1148.9,190.1c0,0.8,0.2,1.2,0.8,1.2h0.4c0.2,0,0.3,0,0.5-0.1v2.4c-0.5,0.2-1.6,0.4-2.2,0.4
		c-1.4,0-2.4-0.5-2.6-1.9c-1.3,1.3-3.5,1.9-5.4,1.9c-2.8,0-5.3-1.5-5.3-4.5c0-3.9,3.1-4.5,6-4.8c2.5-0.5,4.6-0.2,4.6-2.2
		c0-1.8-1.9-2.1-3.2-2.1c-1.9,0-3.3,0.8-3.4,2.5h-3.4c0.2-4,3.6-5.2,7-5.2c3,0,6.2,1.2,6.2,4.5V190.1z M1145.5,185.8
		c-1,0.7-2.7,0.7-4.2,0.9c-1.5,0.2-2.8,0.8-2.8,2.6c0,1.6,2,2,3.1,2c1.5,0,3.8-0.8,3.8-2.9V185.8z"/>
	<path class="st9" d="M1152.7,172.1h3.4v3.2h-3.4V172.1z M1152.7,178h3.4v15.5h-3.4V178z"/>
	<path class="st9" d="M1160,172.1h3.4v21.4h-3.4V172.1z"/>
	<path class="st9" d="M1169.8,186.7c0,2.4,1.3,4.6,4.2,4.6c2,0,3.2-0.9,3.8-2.6h3.2c-0.7,3.4-3.7,5.3-7,5.3c-4.9,0-7.6-3.4-7.6-8.2
		c0-4.4,2.9-8.2,7.5-8.2c4.9,0,7.9,4.4,7.3,9.1H1169.8z M1177.7,184.4c-0.1-2.2-1.6-4.1-3.9-4.1c-2.4,0-4,1.8-4.1,4.1H1177.7z"/>
	<path class="st9" d="M1198.4,193.5h-3.2v-2.1h-0.1c-0.9,1.8-2.8,2.5-4.8,2.5c-4.9,0-7.3-3.6-7.3-8.3c0-5.6,3.3-8.1,6.7-8.1
		c1.9,0,4.1,0.7,5.2,2.4h0.1v-7.9h3.4V193.5z M1190.7,191.3c3,0,4.3-2.8,4.3-5.5c0-3.5-1.6-5.5-4.3-5.5c-3.2,0-4.3,2.9-4.3,5.6
		C1186.4,188.6,1187.8,191.3,1190.7,191.3z"/>
	<path class="st9" d="M1210.5,172.1h3.4v3.2h-3.4V172.1z M1210.5,178h3.4v15.5h-3.4V178z"/>
	<path class="st9" d="M1217.7,178h3.2v2.3l0.1,0.1c1-1.7,2.8-2.8,4.8-2.8c3.4,0,5.5,1.8,5.5,5.3v10.6h-3.4v-9.8
		c-0.1-2.4-1-3.5-3-3.5c-2.3,0-3.8,1.8-3.8,4.1v9.1h-3.4V178z"/>
	<path class="st9" d="M1241.7,178h2.6v-4.6h3.4v4.6h3.1v2.6h-3.1v8.3c0,1.4,0.1,2.1,1.6,2.1c0.5,0,1,0,1.4-0.1v2.6
		c-0.8,0.1-1.5,0.2-2.2,0.2c-3.6,0-4.2-1.4-4.3-4v-9.1h-2.6V178z"/>
	<path class="st9" d="M1253.2,172.1h3.4v7.9h0.1c0.8-1.4,2.6-2.5,4.7-2.5c3.4,0,5.5,1.8,5.5,5.3v10.6h-3.4v-9.8
		c-0.1-2.4-1-3.5-3-3.5c-2.3,0-3.8,1.8-3.8,4.1v9.1h-3.4V172.1z"/>
	<path class="st9" d="M1273.1,186.7c0,2.4,1.3,4.6,4.2,4.6c2,0,3.2-0.9,3.8-2.6h3.2c-0.7,3.4-3.7,5.3-7,5.3c-4.9,0-7.6-3.4-7.6-8.2
		c0-4.4,2.9-8.2,7.5-8.2c4.9,0,7.9,4.4,7.3,9.1H1273.1z M1281.1,184.4c-0.1-2.2-1.6-4.1-3.9-4.1c-2.4,0-4,1.8-4.1,4.1H1281.1z"/>
	<path class="st9" d="M465.3,222.4c0,3.3,2.4,4.6,5.4,4.6c3.3,0,4.5-1.7,4.5-3.2c0-1.6-0.9-2.3-1.8-2.6c-1.5-0.6-3.4-1-6.4-1.8
		c-3.7-1-4.7-3.2-4.7-5.4c0-4.3,4-6.3,7.8-6.3c4.4,0,8.2,2.4,8.2,6.8h-3.8c-0.2-2.8-2-3.8-4.6-3.8c-1.7,0-3.9,0.6-3.9,2.8
		c0,1.5,1,2.3,2.5,2.8c0.3,0.1,5.1,1.3,6.2,1.6c2.8,0.9,4.2,3.2,4.2,5.5c0,4.8-4.3,6.7-8.5,6.7c-4.9,0-8.8-2.3-8.9-7.6H465.3z"/>
	<path class="st9" d="M501.6,218.8c0,6.2-3.9,11.2-10.3,11.2s-10.3-5.1-10.3-11.2c0-6.1,3.9-11.2,10.3-11.2S501.6,212.8,501.6,218.8
		z M484.8,218.8c0,4.1,1.9,8.2,6.5,8.2s6.5-4,6.5-8.2c0-4.1-1.9-8.2-6.5-8.2S484.8,214.7,484.8,218.8z"/>
	<path class="st9" d="M505,208.1h9.4c6.1,0,7.3,4,7.3,6.6s-1.2,6.6-7.3,6.6h-5.7v8.2H505V208.1z M508.8,218.3h5.5
		c1.7,0,3.8-0.8,3.8-3.5c0-2.8-1.7-3.5-3.7-3.5h-5.5V218.3z"/>
	<path class="st9" d="M524.2,219.8h8.7v3.2h-8.7V219.8z"/>
	<path class="st9" d="M536.7,208.1h3.7v21.4h-3.7V208.1z"/>
	<path class="st9" d="M544.6,214h3.2v2.3l0.1,0.1c1-1.7,2.8-2.8,4.8-2.8c3.4,0,5.5,1.8,5.5,5.3v10.6h-3.4v-9.8c-0.1-2.4-1-3.5-3-3.5
		c-2.3,0-3.8,1.8-3.8,4.1v9.1h-3.4V214z"/>
	<path class="st9" d="M564.4,224.6c0.2,2,1.7,2.7,3.5,2.7c1.3,0,3.5-0.3,3.5-2c-0.1-1.8-2.6-2-5.1-2.6c-2.5-0.5-5-1.4-5-4.6
		c0-3.4,3.7-4.4,6.5-4.4c3.2,0,6.1,1.3,6.5,4.8h-3.6c-0.3-1.7-1.6-2.1-3.2-2.1c-1,0-2.8,0.2-2.8,1.6c0,1.7,2.5,2,5,2.5
		c2.5,0.6,5,1.5,5,4.5c0,3.7-3.7,5-6.9,5c-3.9,0-6.8-1.7-6.9-5.4H564.4z"/>
	<path class="st9" d="M575.8,214h2.6v-4.6h3.4v4.6h3.1v2.6h-3.1v8.3c0,1.4,0.1,2.1,1.6,2.1c0.5,0,1,0,1.4-0.1v2.6
		c-0.8,0.1-1.5,0.2-2.2,0.2c-3.6,0-4.2-1.4-4.3-4v-9.1h-2.6V214z"/>
	<path class="st9" d="M600.3,226.1c0,0.8,0.2,1.2,0.8,1.2h0.4c0.2,0,0.3,0,0.5-0.1v2.4c-0.5,0.2-1.6,0.4-2.2,0.4
		c-1.4,0-2.4-0.5-2.6-1.9c-1.3,1.3-3.5,1.9-5.4,1.9c-2.8,0-5.3-1.5-5.3-4.5c0-3.9,3.1-4.5,6-4.8c2.5-0.5,4.6-0.2,4.6-2.2
		c0-1.8-1.9-2.1-3.2-2.1c-1.9,0-3.3,0.8-3.4,2.5h-3.4c0.2-4,3.6-5.2,7-5.2c3,0,6.2,1.2,6.2,4.5V226.1z M596.9,221.8
		c-1,0.7-2.7,0.7-4.2,0.9c-1.5,0.2-2.8,0.8-2.8,2.6c0,1.6,2,2,3.1,2c1.5,0,3.8-0.8,3.8-2.9V221.8z"/>
	<path class="st9" d="M604.1,208.1h3.4v21.4h-3.4V208.1z"/>
	<path class="st9" d="M611.4,208.1h3.4v21.4h-3.4V208.1z"/>
	<path class="st9" d="M631.5,226.1c0,0.8,0.2,1.2,0.8,1.2h0.4c0.2,0,0.3,0,0.5-0.1v2.4c-0.5,0.2-1.6,0.4-2.2,0.4
		c-1.4,0-2.4-0.5-2.6-1.9c-1.3,1.3-3.5,1.9-5.4,1.9c-2.8,0-5.3-1.5-5.3-4.5c0-3.9,3.1-4.5,6-4.8c2.5-0.5,4.6-0.2,4.6-2.2
		c0-1.8-1.9-2.1-3.2-2.1c-1.9,0-3.3,0.8-3.4,2.5h-3.4c0.2-4,3.6-5.2,7-5.2c3,0,6.2,1.2,6.2,4.5V226.1z M628.1,221.8
		c-1,0.7-2.7,0.7-4.2,0.9c-1.5,0.2-2.8,0.8-2.8,2.6c0,1.6,2,2,3.1,2c1.5,0,3.8-0.8,3.8-2.9V221.8z"/>
	<path class="st9" d="M633.6,214h2.6v-4.6h3.4v4.6h3.1v2.6h-3.1v8.3c0,1.4,0.1,2.1,1.6,2.1c0.5,0,1,0,1.4-0.1v2.6
		c-0.8,0.1-1.5,0.2-2.2,0.2c-3.6,0-4.2-1.4-4.3-4v-9.1h-2.6V214z"/>
	<path class="st9" d="M645.3,208.1h3.4v3.2h-3.4V208.1z M645.3,214h3.4v15.5h-3.4V214z"/>
	<path class="st9" d="M651.7,221.8c0-4.7,2.9-8.2,7.8-8.2c5,0,7.8,3.5,7.8,8.2c0,4.8-2.9,8.2-7.8,8.2
		C654.6,230,651.7,226.5,651.7,221.8z M663.9,221.8c0-2.7-1.3-5.5-4.4-5.5c-3.1,0-4.4,2.8-4.4,5.5c0,2.7,1.3,5.5,4.4,5.5
		C662.6,227.3,663.9,224.5,663.9,221.8z"/>
	<path class="st9" d="M670.2,214h3.2v2.3l0.1,0.1c1-1.7,2.8-2.8,4.8-2.8c3.4,0,5.5,1.8,5.5,5.3v10.6h-3.4v-9.8c-0.1-2.4-1-3.5-3-3.5
		c-2.3,0-3.8,1.8-3.8,4.1v9.1h-3.4V214z"/>
	<path class="st9" d="M696.2,208.1h5.3l5.9,16.8h0.1l5.8-16.8h5.2v21.4h-3.6V213h-0.1l-5.9,16.5h-3.1l-5.9-16.5h-0.1v16.5h-3.6
		V208.1z"/>
	<path class="st9" d="M735.4,226.1c0,0.8,0.2,1.2,0.8,1.2h0.4c0.2,0,0.3,0,0.5-0.1v2.4c-0.5,0.2-1.6,0.4-2.2,0.4
		c-1.4,0-2.4-0.5-2.6-1.9c-1.3,1.3-3.5,1.9-5.4,1.9c-2.8,0-5.3-1.5-5.3-4.5c0-3.9,3.1-4.5,6-4.8c2.5-0.5,4.6-0.2,4.6-2.2
		c0-1.8-1.9-2.1-3.2-2.1c-1.9,0-3.3,0.8-3.4,2.5h-3.4c0.2-4,3.6-5.2,7-5.2c3,0,6.2,1.2,6.2,4.5V226.1z M732,221.8
		c-1,0.7-2.7,0.7-4.2,0.9c-1.5,0.2-2.8,0.8-2.8,2.6c0,1.6,2,2,3.1,2c1.5,0,3.8-0.8,3.8-2.9V221.8z"/>
	<path class="st9" d="M739.1,214h3.2v2.3l0.1,0.1c1-1.7,2.8-2.8,4.8-2.8c3.4,0,5.5,1.8,5.5,5.3v10.6h-3.4v-9.8c-0.1-2.4-1-3.5-3-3.5
		c-2.3,0-3.8,1.8-3.8,4.1v9.1h-3.4V214z"/>
	<path class="st9" d="M769.3,226.1c0,0.8,0.2,1.2,0.8,1.2h0.4c0.2,0,0.3,0,0.5-0.1v2.4c-0.5,0.2-1.6,0.4-2.2,0.4
		c-1.4,0-2.4-0.5-2.6-1.9c-1.3,1.3-3.5,1.9-5.4,1.9c-2.8,0-5.3-1.5-5.3-4.5c0-3.9,3.1-4.5,6-4.8c2.5-0.5,4.6-0.2,4.6-2.2
		c0-1.8-1.9-2.1-3.2-2.1c-1.9,0-3.3,0.8-3.4,2.5H756c0.2-4,3.6-5.2,7-5.2c3,0,6.2,1.2,6.2,4.5V226.1z M765.9,221.8
		c-1,0.7-2.7,0.7-4.2,0.9c-1.5,0.2-2.8,0.8-2.8,2.6c0,1.6,2,2,3.1,2c1.5,0,3.8-0.8,3.8-2.9V221.8z"/>
	<path class="st9" d="M787.3,228.7c0,4.7-2.7,7-7.6,7c-3.1,0-6.6-1.2-6.9-4.8h3.4c0.4,1.9,2,2.3,3.7,2.3c2.8,0,4-1.4,4-4v-2.4h-0.1
		c-1,1.7-2.7,2.7-4.6,2.7c-4.9,0-7-3.7-7-8.2c0-4.2,2.6-7.8,7-7.8c2,0,3.7,0.8,4.6,2.5h0.1V214h3.4V228.7z M783.9,221.5
		c0-2.7-1.2-5.1-4.2-5.1c-3,0-4.1,2.8-4.1,5.4c0,2.5,1.2,5.1,4.1,5.1C782.8,226.8,783.9,224.1,783.9,221.5z"/>
	<path class="st9" d="M793.5,222.7c0,2.4,1.3,4.6,4.2,4.6c2,0,3.2-0.9,3.8-2.6h3.2c-0.7,3.4-3.7,5.3-7,5.3c-4.9,0-7.6-3.4-7.6-8.2
		c0-4.4,2.9-8.2,7.5-8.2c4.9,0,7.9,4.4,7.3,9.1H793.5z M801.4,220.4c-0.1-2.2-1.6-4.1-3.9-4.1c-2.4,0-4,1.8-4.1,4.1H801.4z"/>
	<path class="st9" d="M807.5,214h3.2v2.2h0.1c1-1.5,2.3-2.6,4.8-2.6c1.9,0,3.7,0.8,4.3,2.6c1.2-1.6,2.6-2.6,4.9-2.6
		c3.3,0,5.2,1.5,5.2,5.2v10.7h-3.4v-9.1c0-2.5-0.1-4.2-2.8-4.2c-2.3,0-3.3,1.5-3.3,4.1v9.1H817v-10c0-2.2-0.7-3.3-2.7-3.3
		c-1.8,0-3.4,1.5-3.4,4v9.2h-3.4V214z"/>
	<path class="st9" d="M836.2,222.7c0,2.4,1.3,4.6,4.2,4.6c2,0,3.2-0.9,3.8-2.6h3.2c-0.7,3.4-3.7,5.3-7,5.3c-4.9,0-7.6-3.4-7.6-8.2
		c0-4.4,2.9-8.2,7.5-8.2c4.9,0,7.9,4.4,7.3,9.1H836.2z M844.2,220.4c-0.1-2.2-1.6-4.1-3.9-4.1c-2.4,0-4,1.8-4.1,4.1H844.2z"/>
	<path class="st9" d="M850.2,214h3.2v2.3l0.1,0.1c1-1.7,2.8-2.8,4.8-2.8c3.4,0,5.5,1.8,5.5,5.3v10.6h-3.4v-9.8c-0.1-2.4-1-3.5-3-3.5
		c-2.3,0-3.8,1.8-3.8,4.1v9.1h-3.4V214z"/>
	<path class="st9" d="M865.9,214h2.6v-4.6h3.4v4.6h3.1v2.6h-3.1v8.3c0,1.4,0.1,2.1,1.6,2.1c0.5,0,1,0,1.4-0.1v2.6
		c-0.8,0.1-1.5,0.2-2.2,0.2c-3.6,0-4.2-1.4-4.3-4v-9.1h-2.6V214z"/>
	<path class="st9" d="M889.8,235.3c-2.4-3.9-4.3-8-4.3-13.8c0-4.8,1.6-9.6,4.3-13.8h2.8c-2.4,4.3-3.7,8.8-3.7,13.8s1.2,9.5,3.7,13.8
		H889.8z"/>
	<path class="st9" d="M892.5,208.1h3.8l3.9,16.4h0.1l4.3-16.4h3.8l4.2,16.4h0.1l4-16.4h3.8l-5.9,21.4h-3.8l-4.3-16.4h-0.1l-4.4,16.4
		h-3.9L892.5,208.1z"/>
	<path class="st9" d="M922.8,208.1h3.8v8.5h9.8v-8.5h3.8v21.4h-3.8v-9.7h-9.8v9.7h-3.8V208.1z"/>
	<path class="st9" d="M942.3,233.3v-1.5h15v1.5H942.3z"/>
	<path class="st9" d="M978.7,229.5l-1.8,2l-3.1-2.7c-1.6,0.9-3.4,1.3-5,1.3c-6.4,0-10.3-5.1-10.3-11.2c0-6.1,3.9-11.2,10.3-11.2
		s10.3,5.1,10.3,11.2c0,2.9-0.9,6.2-3,8.2L978.7,229.5z M968.9,224.6l1.8-2.1l2.6,2.3c1.3-1.6,1.9-3.8,1.9-6c0-4.1-1.9-8.2-6.5-8.2
		s-6.5,4-6.5,8.2c0,4.1,1.9,8.2,6.5,8.2c0.8,0,1.7-0.2,2.4-0.5L968.9,224.6z"/>
	<path class="st9" d="M982.3,208.1h5.3l5.9,16.8h0.1l5.8-16.8h5.2v21.4h-3.6V213h-0.1l-5.9,16.5h-3.1L986,213h-0.1v16.5h-3.6V208.1z
		"/>
	<path class="st9" d="M1011.5,222.4c0,3.3,2.4,4.6,5.4,4.6c3.3,0,4.5-1.7,4.5-3.2c0-1.6-0.9-2.3-1.8-2.6c-1.5-0.6-3.4-1-6.4-1.8
		c-3.7-1-4.7-3.2-4.7-5.4c0-4.3,4-6.3,7.8-6.3c4.4,0,8.2,2.4,8.2,6.8h-3.8c-0.2-2.8-2-3.8-4.6-3.8c-1.7,0-3.9,0.6-3.9,2.8
		c0,1.5,1,2.3,2.5,2.8c0.3,0.1,5.1,1.3,6.2,1.6c2.8,0.9,4.2,3.2,4.2,5.5c0,4.8-4.3,6.7-8.5,6.7c-4.9,0-8.8-2.3-8.9-7.6H1011.5z"/>
	<path class="st9" d="M1026.2,233.3v-1.5h15v1.5H1026.2z"/>
	<path class="st9" d="M1046,222.4c0,3.3,2.4,4.6,5.4,4.6c3.3,0,4.5-1.7,4.5-3.2c0-1.6-0.9-2.3-1.8-2.6c-1.5-0.6-3.4-1-6.4-1.8
		c-3.7-1-4.7-3.2-4.7-5.4c0-4.3,4-6.3,7.8-6.3c4.4,0,8.2,2.4,8.2,6.8h-3.8c-0.2-2.8-2-3.8-4.6-3.8c-1.7,0-3.9,0.6-3.9,2.8
		c0,1.5,1,2.3,2.5,2.8c0.3,0.1,5.1,1.3,6.2,1.6c2.8,0.9,4.2,3.2,4.2,5.5c0,4.8-4.3,6.7-8.5,6.7c-4.9,0-8.8-2.3-8.9-7.6H1046z"/>
	<path class="st9" d="M1082.3,218.8c0,6.2-3.9,11.2-10.3,11.2s-10.3-5.1-10.3-11.2c0-6.1,3.9-11.2,10.3-11.2
		S1082.3,212.8,1082.3,218.8z M1065.5,218.8c0,4.1,1.9,8.2,6.5,8.2s6.5-4,6.5-8.2c0-4.1-1.9-8.2-6.5-8.2S1065.5,214.7,1065.5,218.8z
		"/>
	<path class="st9" d="M1085.7,208.1h9.4c6.1,0,7.3,4,7.3,6.6s-1.2,6.6-7.3,6.6h-5.7v8.2h-3.7V208.1z M1089.5,218.3h5.5
		c1.7,0,3.8-0.8,3.8-3.5c0-2.8-1.7-3.5-3.7-3.5h-5.5V218.3z"/>
	<path class="st9" d="M1103.5,233.3v-1.5h15v1.5H1103.5z"/>
	<path class="st9" d="M1134.1,219c0,4.8-1.2,10.9-7.3,10.9c-6,0-7.3-6.1-7.3-10.9c0-4.8,1.2-10.9,7.3-10.9
		C1132.8,208.1,1134.1,214.3,1134.1,219z M1130.6,219c0-4.4-0.8-8.1-3.8-8.1s-3.8,3.7-3.8,8.1c0,4.4,0.8,8.1,3.8,8.1
		S1130.6,223.5,1130.6,219z"/>
	<path class="st9" d="M1150.7,219c0,4.8-1.2,10.9-7.3,10.9c-6,0-7.3-6.1-7.3-10.9c0-4.8,1.2-10.9,7.3-10.9
		C1149.5,208.1,1150.7,214.3,1150.7,219z M1147.3,219c0-4.4-0.8-8.1-3.8-8.1s-3.8,3.7-3.8,8.1c0,4.4,0.8,8.1,3.8,8.1
		S1147.3,223.5,1147.3,219z"/>
	<path class="st9" d="M1153.4,212c2.8,0,5.6-0.9,6.1-3.5h2.8v21h-3.8v-14.8h-5.2V212z"/>
	<path class="st9" d="M1173.3,224.2c0.1,1.7,1.3,2.9,3.1,2.9c3.7,0,4.1-4.4,4.3-7.2l-0.1-0.1c-0.9,1.6-2.6,2.5-4.5,2.5
		c-4,0-6.6-2.8-6.6-7.1c0-4.1,2.6-7.2,7.2-7.2c5.9,0,7.4,4.9,7.4,11c0,5-2,10.9-7.9,10.9c-3.3,0-6.2-2.3-6.3-5.7H1173.3z
		 M1172.9,215.3c0,2.3,1.2,4.4,3.7,4.4c2.5,0,3.8-2.1,3.8-4.4c0-2.2-1.3-4.3-3.8-4.3C1174.1,211,1172.9,213,1172.9,215.3z"/>
	<path class="st9" d="M1187.7,207.6c2.4,3.8,4.3,8.1,4.3,13.9c0,4.8-1.6,9.6-4.3,13.8h-2.8c2.4-4.3,3.7-8.8,3.7-13.8
		c0-5-1.2-9.5-3.7-13.9H1187.7z"/>
	<path class="st9" d="M1195.6,225.5h4.2v4h-4.2V225.5z"/>
</g>
<circle class="st7" cx="513.3" cy="367" r="52.4"/>
<g>
	<g>
		<path class="st7" d="M610.4,555.1c0,3.1,2.3,4.3,5.1,4.3c3.1,0,4.2-1.5,4.2-3c0-1.5-0.8-2.2-1.7-2.5c-1.4-0.5-3.2-0.9-6-1.7
			c-3.4-0.9-4.4-3-4.4-5.1c0-4,3.7-5.9,7.3-5.9c4.1,0,7.7,2.2,7.7,6.4h-3.5c-0.2-2.6-1.9-3.5-4.3-3.5c-1.6,0-3.7,0.6-3.7,2.6
			c0,1.4,1,2.2,2.4,2.6c0.3,0.1,4.7,1.2,5.8,1.5c2.6,0.8,3.9,3,3.9,5.1c0,4.5-4,6.3-8,6.3c-4.6,0-8.3-2.2-8.3-7.1H610.4z"/>
		<path class="st7" d="M624.3,547.3h2.4V543h3.2v4.3h2.9v2.4h-2.9v7.7c0,1.3,0.1,2,1.5,2c0.4,0,0.9,0,1.3-0.1v2.5
			c-0.7,0.1-1.4,0.2-2.1,0.2c-3.4,0-3.9-1.3-4-3.7v-8.5h-2.4V547.3z"/>
		<path class="st7" d="M637.6,555.4c0,2.3,1.2,4.3,3.9,4.3c1.9,0,3-0.8,3.5-2.4h3c-0.7,3.2-3.4,4.9-6.6,4.9c-4.6,0-7.1-3.1-7.1-7.6
			c0-4.1,2.7-7.6,7-7.6c4.6,0,7.4,4.1,6.8,8.5H637.6z M645,553.3c-0.1-2-1.5-3.8-3.6-3.8c-2.2,0-3.7,1.7-3.8,3.8H645z"/>
		<path class="st7" d="M650.8,547.3h3v2h0.1c0.9-1.7,2.6-2.4,4.5-2.4c4.6,0,6.8,3.4,6.8,7.7c0,3.9-2,7.6-6.2,7.6
			c-1.8,0-3.9-0.7-4.8-2.3h-0.1v7.2h-3.2V547.3z M657.9,549.4c-2.7,0-4.1,2-4.1,5.1c0,2.9,1.5,5.1,4.1,5.1c2.9,0,4-2.6,4-5.1
			C661.9,551.9,660.5,549.4,657.9,549.4z"/>
		<path class="st7" d="M688.4,561.8H675c0-3.2,1.7-5.6,4.3-7.4c2.5-1.9,5.8-3.4,5.9-6.4c0-1.4-0.5-3.5-3.3-3.5
			c-2.5,0-3.3,2.1-3.4,4.9h-3.2c0-4.3,2.4-7.6,6.7-7.6c4.8,0,6.3,3.5,6.3,6c0,6.3-8.5,7.6-9.6,11.1h9.5V561.8z"/>
	</g>
</g>
<g>
	<rect x="836.9" y="500.5" class="st8" width="663.9" height="108.8"/>
	<path class="st9" d="M841.4,513.8c0,3.1,2.3,4.3,5.1,4.3c3.1,0,4.2-1.5,4.2-3c0-1.5-0.8-2.2-1.7-2.5c-1.4-0.5-3.2-0.9-6-1.7
		c-3.4-0.9-4.4-3-4.4-5.1c0-4,3.7-5.9,7.3-5.9c4.1,0,7.7,2.2,7.7,6.4h-3.5c-0.2-2.6-1.9-3.5-4.3-3.5c-1.6,0-3.7,0.6-3.7,2.6
		c0,1.4,1,2.2,2.4,2.6c0.3,0.1,4.7,1.2,5.8,1.5c2.6,0.8,3.9,3,3.9,5.1c0,4.5-4,6.3-8,6.3c-4.6,0-8.3-2.2-8.3-7.1H841.4z"/>
	<path class="st9" d="M855.3,506h2.4v-4.3h3.2v4.3h2.9v2.4h-2.9v7.7c0,1.3,0.1,2,1.5,2c0.4,0,0.9,0,1.3-0.1v2.5
		c-0.7,0.1-1.4,0.2-2.1,0.2c-3.4,0-3.9-1.3-4-3.7v-8.5h-2.4V506z"/>
	<path class="st9" d="M868.6,514.1c0,2.3,1.2,4.3,3.9,4.3c1.9,0,3-0.8,3.5-2.4h3c-0.7,3.2-3.4,4.9-6.6,4.9c-4.6,0-7.1-3.1-7.1-7.6
		c0-4.1,2.7-7.6,7-7.6c4.6,0,7.4,4.1,6.8,8.5H868.6z M876,512c-0.1-2-1.5-3.8-3.6-3.8c-2.2,0-3.7,1.7-3.8,3.8H876z"/>
	<path class="st9" d="M881.7,506h3v2h0.1c0.9-1.7,2.6-2.4,4.5-2.4c4.6,0,6.8,3.4,6.8,7.7c0,3.9-2,7.6-6.2,7.6
		c-1.8,0-3.9-0.7-4.8-2.3h-0.1v7.2h-3.2V506z M888.9,508.1c-2.7,0-4.1,2-4.1,5.1c0,2.9,1.5,5.1,4.1,5.1c2.9,0,4-2.6,4-5.1
		C892.9,510.7,891.5,508.1,888.9,508.1z"/>
	<path class="st9" d="M919.4,520.5H906c0-3.2,1.7-5.6,4.3-7.4c2.5-1.9,5.8-3.4,5.9-6.4c0-1.4-0.5-3.5-3.3-3.5
		c-2.5,0-3.3,2.1-3.4,4.9h-3.2c0-4.3,2.4-7.6,6.7-7.6c4.8,0,6.3,3.5,6.3,6c0,6.3-8.5,7.6-9.6,11.1h9.5V520.5z"/>
	<path class="st9" d="M930,500.5h3.2v3H930V500.5z M930,506h3.2v14.5H930V506z"/>
	<path class="st9" d="M936.7,506h3v2.1l0.1,0.1c1-1.6,2.6-2.6,4.5-2.6c3.2,0,5.1,1.7,5.1,4.9v9.9h-3.2v-9.1
		c-0.1-2.3-0.9-3.2-2.8-3.2c-2.1,0-3.5,1.7-3.5,3.8v8.5h-3.2V506z"/>
	<path class="st9" d="M962.5,510.9c-0.3-1.8-1.5-2.7-3.3-2.7c-1.7,0-4,0.9-4,5.3c0,2.4,1.1,5,3.8,5c1.9,0,3.1-1.2,3.4-3.3h3.2
		c-0.6,3.8-2.9,5.8-6.6,5.8c-4.5,0-7-3.2-7-7.5c0-4.4,2.4-7.8,7.1-7.8c3.4,0,6.2,1.7,6.5,5.2H962.5z"/>
	<path class="st9" d="M968.4,500.5h3.2v20h-3.2V500.5z"/>
	<path class="st9" d="M987.8,520.5h-3.1v-2h-0.1c-0.8,1.5-2.5,2.4-4.1,2.4c-3.8,0-5.4-1.9-5.4-5.7V506h3.2v8.9c0,2.5,1,3.5,2.8,3.5
		c2.7,0,3.6-1.7,3.6-3.9V506h3.2V520.5z"/>
	<path class="st9" d="M1004.8,520.5h-3v-2h-0.1c-0.9,1.7-2.7,2.4-4.5,2.4c-4.6,0-6.8-3.4-6.8-7.7c0-5.3,3.1-7.5,6.3-7.5
		c1.8,0,3.8,0.7,4.8,2.3h0.1v-7.4h3.2V520.5z M997.6,518.4c2.8,0,4.1-2.6,4.1-5.1c0-3.2-1.5-5.1-4-5.1c-3,0-4.1,2.7-4.1,5.3
		C993.6,515.9,994.8,518.4,997.6,518.4z"/>
	<path class="st9" d="M1010.7,514.1c0,2.3,1.2,4.3,3.9,4.3c1.9,0,3-0.8,3.5-2.4h3c-0.7,3.2-3.4,4.9-6.6,4.9c-4.6,0-7.1-3.1-7.1-7.6
		c0-4.1,2.7-7.6,7-7.6c4.6,0,7.4,4.1,6.8,8.5H1010.7z M1018.2,512c-0.1-2-1.5-3.8-3.6-3.8c-2.2,0-3.7,1.7-3.8,3.8H1018.2z"/>
	<path class="st9" d="M1026.2,515.8c0.2,1.9,1.6,2.5,3.3,2.5c1.2,0,3.3-0.3,3.2-1.9c-0.1-1.7-2.4-1.9-4.7-2.4
		c-2.4-0.5-4.6-1.3-4.6-4.3c0-3.2,3.4-4.1,6-4.1c3,0,5.7,1.2,6,4.5h-3.3c-0.3-1.5-1.5-1.9-2.9-1.9c-0.9,0-2.6,0.2-2.6,1.5
		c0,1.6,2.4,1.8,4.7,2.3c2.3,0.5,4.7,1.4,4.7,4.2c0,3.4-3.5,4.7-6.5,4.7c-3.7,0-6.3-1.6-6.4-5H1026.2z"/>
	<path class="st9" d="M1044.7,506h3.5l3.7,11.1h0.1l3.5-11.1h3.3l-5.2,14.5h-3.6L1044.7,506z"/>
	<path class="st9" d="M1063.1,514.1c0,2.3,1.2,4.3,3.9,4.3c1.9,0,3-0.8,3.5-2.4h3c-0.7,3.2-3.4,4.9-6.6,4.9c-4.6,0-7.1-3.1-7.1-7.6
		c0-4.1,2.7-7.6,7-7.6c4.6,0,7.4,4.1,6.8,8.5H1063.1z M1070.6,512c-0.1-2-1.5-3.8-3.6-3.8c-2.2,0-3.7,1.7-3.8,3.8H1070.6z"/>
	<path class="st9" d="M1076.2,506h3v2.8h0.1c0.4-1.5,2.3-3.2,4.2-3.2c0.8,0,0.9,0.1,1.2,0.1v3.1c-0.4-0.1-0.9-0.1-1.4-0.1
		c-2.2,0-3.9,1.7-3.9,5v6.9h-3.2V506z"/>
	<path class="st9" d="M1086.1,500.5h3.2v3h-3.2V500.5z M1086.1,506h3.2v14.5h-3.2V506z"/>
	<path class="st9" d="M1091.4,506h2.4v-1.2c0-3.7,1.9-4.3,4-4.3c1,0,1.8,0.1,2.2,0.2v2.5c-0.4-0.1-0.8-0.2-1.5-0.2
		c-0.9,0-1.6,0.3-1.6,1.5v1.5h2.7v2.4h-2.7v12.1h-3.2v-12.1h-2.4V506z"/>
	<path class="st9" d="M1100,506h3.5l3.8,10.8h0.1l3.7-10.8h3.3l-5.6,15.3c-1,2.6-1.8,5-5.1,5c-0.8,0-1.5-0.1-2.2-0.2v-2.7
		c0.5,0.1,1,0.2,1.5,0.2c1.5,0,1.9-0.8,2.2-2l0.4-1.1L1100,506z"/>
	<path class="st9" d="M1116.2,500.5h3.2v3h-3.2V500.5z M1116.2,506h3.2v14.5h-3.2V506z"/>
	<path class="st9" d="M1122.9,506h3v2.1l0.1,0.1c1-1.6,2.6-2.6,4.5-2.6c3.2,0,5.1,1.7,5.1,4.9v9.9h-3.2v-9.1
		c-0.1-2.3-0.9-3.2-2.8-3.2c-2.1,0-3.5,1.7-3.5,3.8v8.5h-3.2V506z"/>
	<path class="st9" d="M1152.4,519.7c0,4.4-2.5,6.5-7.1,6.5c-2.9,0-6.2-1.1-6.5-4.5h3.2c0.4,1.8,1.8,2.1,3.5,2.1
		c2.6,0,3.7-1.3,3.7-3.7v-2.2h-0.1c-0.9,1.6-2.5,2.5-4.3,2.5c-4.6,0-6.5-3.5-6.5-7.6c0-3.9,2.4-7.3,6.6-7.3c1.8,0,3.5,0.7,4.3,2.4
		h0.1v-2h3.2V519.7z M1149.2,512.9c0-2.5-1.1-4.8-3.9-4.8c-2.8,0-3.8,2.6-3.8,5c0,2.4,1.1,4.8,3.8,4.8
		C1148.1,518,1149.2,515.4,1149.2,512.9z"/>
	<path class="st9" d="M1175.5,517.3c0,0.8,0.2,1.1,0.8,1.1h0.3c0.1,0,0.3,0,0.4-0.1v2.2c-0.5,0.2-1.5,0.4-2,0.4
		c-1.3,0-2.2-0.4-2.5-1.8c-1.3,1.2-3.3,1.8-5,1.8c-2.6,0-5-1.4-5-4.2c0-3.6,2.9-4.2,5.6-4.5c2.3-0.4,4.3-0.1,4.3-2c0-1.7-1.7-2-3-2
		c-1.8,0-3.1,0.7-3.2,2.3h-3.2c0.2-3.7,3.4-4.8,6.6-4.8c2.8,0,5.8,1.1,5.8,4.2V517.3z M1172.3,513.2c-1,0.6-2.5,0.6-3.9,0.9
		c-1.4,0.2-2.6,0.7-2.6,2.4c0,1.5,1.8,1.8,2.9,1.8c1.4,0,3.6-0.7,3.6-2.7V513.2z"/>
	<path class="st9" d="M1178.9,506h3v2.1l0.1,0.1c1-1.6,2.6-2.6,4.5-2.6c3.2,0,5.1,1.7,5.1,4.9v9.9h-3.2v-9.1
		c-0.1-2.3-0.9-3.2-2.8-3.2c-2.1,0-3.5,1.7-3.5,3.8v8.5h-3.2V506z"/>
	<path class="st9" d="M1221.3,510.5c0,5.7-3.6,10.5-9.6,10.5s-9.6-4.7-9.6-10.5c0-5.7,3.6-10.5,9.6-10.5S1221.3,504.8,1221.3,510.5z
		 M1205.7,510.5c0,3.8,1.8,7.6,6.1,7.6c4.3,0,6.1-3.8,6.1-7.6s-1.8-7.6-6.1-7.6C1207.5,502.9,1205.7,506.7,1205.7,510.5z"/>
	<path class="st9" d="M1222.6,506h2.4v-1.2c0-3.7,1.9-4.3,4-4.3c1,0,1.8,0.1,2.2,0.2v2.5c-0.4-0.1-0.8-0.2-1.5-0.2
		c-0.9,0-1.6,0.3-1.6,1.5v1.5h2.7v2.4h-2.7v12.1h-3.2v-12.1h-2.4V506z"/>
	<path class="st9" d="M1231,506h2.4v-1.2c0-3.7,1.9-4.3,4-4.3c1,0,1.8,0.1,2.2,0.2v2.5c-0.4-0.1-0.8-0.2-1.5-0.2
		c-0.9,0-1.6,0.3-1.6,1.5v1.5h2.7v2.4h-2.7v12.1h-3.2v-12.1h-2.4V506z"/>
	<path class="st9" d="M1243.7,514.1c0,2.3,1.2,4.3,3.9,4.3c1.9,0,3-0.8,3.5-2.4h3c-0.7,3.2-3.4,4.9-6.6,4.9c-4.6,0-7.1-3.1-7.1-7.6
		c0-4.1,2.7-7.6,7-7.6c4.6,0,7.4,4.1,6.8,8.5H1243.7z M1251.1,512c-0.1-2-1.5-3.8-3.6-3.8c-2.2,0-3.7,1.7-3.8,3.8H1251.1z"/>
	<path class="st9" d="M1256.8,506h3v2.8h0.1c0.4-1.5,2.3-3.2,4.2-3.2c0.8,0,0.9,0.1,1.2,0.1v3.1c-0.4-0.1-0.9-0.1-1.4-0.1
		c-2.2,0-3.9,1.7-3.9,5v6.9h-3.2V506z"/>
	<path class="st9" d="M1266.7,500.5h3.2v3h-3.2V500.5z M1266.7,506h3.2v14.5h-3.2V506z"/>
	<path class="st9" d="M1273.4,506h3v2.1l0.1,0.1c1-1.6,2.6-2.6,4.5-2.6c3.2,0,5.1,1.7,5.1,4.9v9.9h-3.2v-9.1
		c-0.1-2.3-0.9-3.2-2.8-3.2c-2.1,0-3.5,1.7-3.5,3.8v8.5h-3.2V506z"/>
	<path class="st9" d="M1302.8,519.7c0,4.4-2.5,6.5-7.1,6.5c-2.9,0-6.2-1.1-6.5-4.5h3.2c0.4,1.8,1.8,2.1,3.5,2.1
		c2.6,0,3.7-1.3,3.7-3.7v-2.2h-0.1c-0.9,1.6-2.5,2.5-4.3,2.5c-4.6,0-6.5-3.5-6.5-7.6c0-3.9,2.4-7.3,6.6-7.3c1.8,0,3.5,0.7,4.3,2.4
		h0.1v-2h3.2V519.7z M1299.6,512.9c0-2.5-1.1-4.8-3.9-4.8c-2.8,0-3.8,2.6-3.8,5c0,2.4,1.1,4.8,3.8,4.8
		C1298.6,518,1299.6,515.4,1299.6,512.9z"/>
	<path class="st9" d="M1306.5,506.8c1.3-0.2,1.7-1.3,1.7-2.5h-1.7v-3.8h3.5v3.8c0,2.2-1.3,3.8-3.5,4.1V506.8z"/>
	<path class="st9" d="M1314.2,515.8c0.2,1.9,1.6,2.5,3.3,2.5c1.2,0,3.3-0.3,3.2-1.9c-0.1-1.7-2.4-1.9-4.7-2.4
		c-2.4-0.5-4.6-1.3-4.6-4.3c0-3.2,3.4-4.1,6-4.1c3,0,5.7,1.2,6,4.5h-3.3c-0.3-1.5-1.5-1.9-2.9-1.9c-0.9,0-2.6,0.2-2.6,1.5
		c0,1.6,2.4,1.8,4.7,2.3c2.3,0.5,4.7,1.4,4.7,4.2c0,3.4-3.5,4.7-6.5,4.7c-3.7,0-6.3-1.6-6.4-5H1314.2z"/>
	<path class="st9" d="M1332.7,506h2.4v-1.2c0-3.7,1.9-4.3,4-4.3c1,0,1.8,0.1,2.2,0.2v2.5c-0.4-0.1-0.8-0.2-1.5-0.2
		c-0.9,0-1.6,0.3-1.6,1.5v1.5h2.7v2.4h-2.7v12.1h-3.2v-12.1h-2.4V506z"/>
	<path class="st9" d="M1355.6,520.5h-3.1v-2h-0.1c-0.8,1.5-2.5,2.4-4.1,2.4c-3.8,0-5.4-1.9-5.4-5.7V506h3.2v8.9c0,2.5,1,3.5,2.8,3.5
		c2.7,0,3.6-1.7,3.6-3.9V506h3.2V520.5z"/>
	<path class="st9" d="M1359,506h3v2.1l0.1,0.1c1-1.6,2.6-2.6,4.5-2.6c3.2,0,5.1,1.7,5.1,4.9v9.9h-3.2v-9.1c-0.1-2.3-0.9-3.2-2.8-3.2
		c-2.1,0-3.5,1.7-3.5,3.8v8.5h-3.2V506z"/>
	<path class="st9" d="M1384.8,510.9c-0.3-1.8-1.5-2.7-3.3-2.7c-1.7,0-4,0.9-4,5.3c0,2.4,1.1,5,3.8,5c1.9,0,3.1-1.2,3.4-3.3h3.2
		c-0.6,3.8-2.9,5.8-6.6,5.8c-4.5,0-7-3.2-7-7.5c0-4.4,2.4-7.8,7.1-7.8c3.4,0,6.2,1.7,6.5,5.2H1384.8z"/>
	<path class="st9" d="M1389.2,506h2.4v-4.3h3.2v4.3h2.9v2.4h-2.9v7.7c0,1.3,0.1,2,1.5,2c0.4,0,0.9,0,1.3-0.1v2.5
		c-0.7,0.1-1.4,0.2-2.1,0.2c-3.4,0-3.9-1.3-4-3.7v-8.5h-2.4V506z"/>
	<path class="st9" d="M1400,500.5h3.2v3h-3.2V500.5z M1400,506h3.2v14.5h-3.2V506z"/>
	<path class="st9" d="M1406,513.2c0-4.4,2.7-7.6,7.3-7.6c4.6,0,7.3,3.2,7.3,7.6c0,4.5-2.7,7.6-7.3,7.6
		C1408.7,520.9,1406,517.7,1406,513.2z M1417.4,513.2c0-2.5-1.3-5.1-4.1-5.1c-2.9,0-4.1,2.6-4.1,5.1c0,2.5,1.3,5.1,4.1,5.1
		C1416.2,518.4,1417.4,515.8,1417.4,513.2z"/>
	<path class="st9" d="M1423.3,506h3v2.1l0.1,0.1c1-1.6,2.6-2.6,4.5-2.6c3.2,0,5.1,1.7,5.1,4.9v9.9h-3.2v-9.1
		c-0.1-2.3-0.9-3.2-2.8-3.2c-2.1,0-3.5,1.7-3.5,3.8v8.5h-3.2V506z"/>
	<path class="st9" d="M1451.5,517.3c0,0.8,0.2,1.1,0.8,1.1h0.3c0.1,0,0.3,0,0.4-0.1v2.2c-0.5,0.2-1.5,0.4-2,0.4
		c-1.3,0-2.2-0.4-2.5-1.8c-1.3,1.2-3.3,1.8-5,1.8c-2.6,0-5-1.4-5-4.2c0-3.6,2.9-4.2,5.6-4.5c2.3-0.4,4.3-0.1,4.3-2c0-1.7-1.7-2-3-2
		c-1.8,0-3.1,0.7-3.2,2.3h-3.2c0.2-3.7,3.4-4.8,6.6-4.8c2.8,0,5.8,1.1,5.8,4.2V517.3z M1448.3,513.2c-1,0.6-2.5,0.6-3.9,0.9
		c-1.4,0.2-2.6,0.7-2.6,2.4c0,1.5,1.8,1.8,2.9,1.8c1.4,0,3.6-0.7,3.6-2.7V513.2z"/>
	<path class="st9" d="M1455,500.5h3.2v20h-3.2V500.5z"/>
	<path class="st9" d="M1461.8,500.5h3.2v3h-3.2V500.5z M1461.8,506h3.2v14.5h-3.2V506z"/>
	<path class="st9" d="M1467,506h2.4v-4.3h3.2v4.3h2.9v2.4h-2.9v7.7c0,1.3,0.1,2,1.5,2c0.4,0,0.9,0,1.3-0.1v2.5
		c-0.7,0.1-1.4,0.2-2.1,0.2c-3.4,0-3.9-1.3-4-3.7v-8.5h-2.4V506z"/>
	<path class="st9" d="M1476.2,506h3.5l3.8,10.8h0.1l3.7-10.8h3.3l-5.6,15.3c-1,2.6-1.8,5-5.1,5c-0.8,0-1.5-0.1-2.2-0.2v-2.7
		c0.5,0.1,1,0.2,1.5,0.2c1.5,0,1.9-0.8,2.2-2l0.4-1.1L1476.2,506z"/>
	<path class="st9" d="M837.2,539.6h2.4v-4.3h3.2v4.3h2.9v2.4h-2.9v7.7c0,1.3,0.1,2,1.5,2c0.4,0,0.9,0,1.3-0.1v2.5
		c-0.7,0.1-1.4,0.2-2.1,0.2c-3.4,0-3.9-1.3-4-3.7V542h-2.4V539.6z"/>
	<path class="st9" d="M848,534.1h3.2v7.4h0.1c0.8-1.3,2.4-2.3,4.3-2.3c3.2,0,5.1,1.7,5.1,4.9v9.9h-3.2V545c-0.1-2.3-0.9-3.2-2.8-3.2
		c-2.1,0-3.5,1.7-3.5,3.8v8.5H848V534.1z"/>
	<path class="st9" d="M864,539.6h3v2.8h0.1c0.4-1.5,2.3-3.2,4.2-3.2c0.8,0,0.9,0.1,1.2,0.1v3.1c-0.4-0.1-0.9-0.1-1.4-0.1
		c-2.2,0-3.9,1.7-3.9,5v6.9H864V539.6z"/>
	<path class="st9" d="M872.7,546.8c0-4.4,2.7-7.6,7.3-7.6c4.6,0,7.3,3.2,7.3,7.6c0,4.5-2.7,7.6-7.3,7.6
		C875.4,554.5,872.7,551.3,872.7,546.8z M884.1,546.8c0-2.5-1.3-5.1-4.1-5.1c-2.9,0-4.1,2.6-4.1,5.1c0,2.5,1.3,5.1,4.1,5.1
		C882.9,552,884.1,549.4,884.1,546.8z"/>
	<path class="st9" d="M902.7,554.1h-3.1v-2h-0.1c-0.8,1.5-2.5,2.4-4.1,2.4c-3.8,0-5.4-1.9-5.4-5.7v-9.2h3.2v8.9c0,2.5,1,3.5,2.8,3.5
		c2.7,0,3.6-1.7,3.6-3.9v-8.4h3.2V554.1z"/>
	<path class="st9" d="M919.4,553.3c0,4.4-2.5,6.5-7.1,6.5c-2.9,0-6.2-1.1-6.5-4.5h3.2c0.4,1.8,1.8,2.1,3.5,2.1
		c2.6,0,3.7-1.3,3.7-3.7v-2.2h-0.1c-0.9,1.6-2.5,2.5-4.3,2.5c-4.6,0-6.5-3.5-6.5-7.6c0-3.9,2.4-7.3,6.6-7.3c1.8,0,3.5,0.7,4.3,2.4
		h0.1v-2h3.2V553.3z M916.2,546.5c0-2.5-1.1-4.8-3.9-4.8c-2.8,0-3.8,2.6-3.8,5c0,2.4,1.1,4.8,3.8,4.8
		C915.2,551.6,916.2,549,916.2,546.5z"/>
	<path class="st9" d="M922.7,534.1h3.2v7.4h0.1c0.8-1.3,2.4-2.3,4.3-2.3c3.2,0,5.1,1.7,5.1,4.9v9.9h-3.2V545
		c-0.1-2.3-0.9-3.2-2.8-3.2c-2.1,0-3.5,1.7-3.5,3.8v8.5h-3.2V534.1z"/>
	<path class="st9" d="M945.1,539.6h2.4v-4.3h3.2v4.3h2.9v2.4h-2.9v7.7c0,1.3,0.1,2,1.5,2c0.4,0,0.9,0,1.3-0.1v2.5
		c-0.7,0.1-1.4,0.2-2.1,0.2c-3.4,0-3.9-1.3-4-3.7V542h-2.4V539.6z"/>
	<path class="st9" d="M958.3,547.7c0,2.3,1.2,4.3,3.9,4.3c1.9,0,3-0.8,3.5-2.4h3c-0.7,3.2-3.4,4.9-6.6,4.9c-4.6,0-7.1-3.1-7.1-7.6
		c0-4.1,2.7-7.6,7-7.6c4.6,0,7.4,4.1,6.8,8.5H958.3z M965.8,545.6c-0.1-2-1.5-3.8-3.6-3.8c-2.2,0-3.7,1.7-3.8,3.8H965.8z"/>
	<path class="st9" d="M973.8,549.4c0.2,1.9,1.6,2.5,3.3,2.5c1.2,0,3.3-0.3,3.2-1.9c-0.1-1.7-2.4-1.9-4.7-2.4
		c-2.4-0.5-4.6-1.3-4.6-4.3c0-3.2,3.4-4.1,6-4.1c3,0,5.7,1.2,6,4.5h-3.3c-0.3-1.5-1.5-1.9-2.9-1.9c-0.9,0-2.6,0.2-2.6,1.5
		c0,1.6,2.4,1.8,4.7,2.3c2.3,0.5,4.7,1.4,4.7,4.2c0,3.4-3.5,4.7-6.5,4.7c-3.7,0-6.3-1.6-6.4-5H973.8z"/>
	<path class="st9" d="M984.5,539.6h2.4v-4.3h3.2v4.3h2.9v2.4h-2.9v7.7c0,1.3,0.1,2,1.5,2c0.4,0,0.9,0,1.3-0.1v2.5
		c-0.7,0.1-1.4,0.2-2.1,0.2c-3.4,0-3.9-1.3-4-3.7V542h-2.4V539.6z"/>
	<path class="st9" d="M995.3,534.1h3.2v3h-3.2V534.1z M995.3,539.6h3.2v14.5h-3.2V539.6z"/>
	<path class="st9" d="M1002,539.6h3v2.1l0.1,0.1c1-1.6,2.6-2.6,4.5-2.6c3.2,0,5.1,1.7,5.1,4.9v9.9h-3.2V545
		c-0.1-2.3-0.9-3.2-2.8-3.2c-2.1,0-3.5,1.7-3.5,3.8v8.5h-3.2V539.6z"/>
	<path class="st9" d="M1031.5,553.3c0,4.4-2.5,6.5-7.1,6.5c-2.9,0-6.2-1.1-6.5-4.5h3.2c0.4,1.8,1.8,2.1,3.5,2.1
		c2.6,0,3.7-1.3,3.7-3.7v-2.2h-0.1c-0.9,1.6-2.5,2.5-4.3,2.5c-4.6,0-6.5-3.5-6.5-7.6c0-3.9,2.4-7.3,6.6-7.3c1.8,0,3.5,0.7,4.3,2.4
		h0.1v-2h3.2V553.3z M1028.3,546.5c0-2.5-1.1-4.8-3.9-4.8c-2.8,0-3.8,2.6-3.8,5c0,2.4,1.1,4.8,3.8,4.8
		C1027.2,551.6,1028.3,549,1028.3,546.5z"/>
	<path class="st9" d="M1041,539.6h2.4v-4.3h3.2v4.3h2.9v2.4h-2.9v7.7c0,1.3,0.1,2,1.5,2c0.4,0,0.9,0,1.3-0.1v2.5
		c-0.7,0.1-1.4,0.2-2.1,0.2c-3.4,0-3.9-1.3-4-3.7V542h-2.4V539.6z"/>
	<path class="st9" d="M1051.1,546.8c0-4.4,2.7-7.6,7.3-7.6c4.6,0,7.3,3.2,7.3,7.6c0,4.5-2.7,7.6-7.3,7.6
		C1053.8,554.5,1051.1,551.3,1051.1,546.8z M1062.5,546.8c0-2.5-1.3-5.1-4.1-5.1c-2.9,0-4.1,2.6-4.1,5.1c0,2.5,1.3,5.1,4.1,5.1
		C1061.3,552,1062.5,549.4,1062.5,546.8z"/>
	<path class="st9" d="M1078.7,547.7c0,2.3,1.2,4.3,3.9,4.3c1.9,0,3-0.8,3.5-2.4h3c-0.7,3.2-3.4,4.9-6.6,4.9c-4.6,0-7.1-3.1-7.1-7.6
		c0-4.1,2.7-7.6,7-7.6c4.6,0,7.4,4.1,6.8,8.5H1078.7z M1086.1,545.6c-0.1-2-1.5-3.8-3.6-3.8c-2.2,0-3.7,1.7-3.8,3.8H1086.1z"/>
	<path class="st9" d="M1091.7,539.6h3v2.1l0.1,0.1c1-1.6,2.6-2.6,4.5-2.6c3.2,0,5.1,1.7,5.1,4.9v9.9h-3.2V545
		c-0.1-2.3-0.9-3.2-2.8-3.2c-2.1,0-3.5,1.7-3.5,3.8v8.5h-3.2V539.6z"/>
	<path class="st9" d="M1110.2,549.4c0.2,1.9,1.6,2.5,3.3,2.5c1.2,0,3.3-0.3,3.2-1.9c-0.1-1.7-2.4-1.9-4.7-2.4
		c-2.4-0.5-4.6-1.3-4.6-4.3c0-3.2,3.4-4.1,6-4.1c3,0,5.7,1.2,6,4.5h-3.3c-0.3-1.5-1.5-1.9-2.9-1.9c-0.9,0-2.6,0.2-2.6,1.5
		c0,1.6,2.4,1.8,4.7,2.3c2.3,0.5,4.7,1.4,4.7,4.2c0,3.4-3.5,4.7-6.5,4.7c-3.7,0-6.3-1.6-6.4-5H1110.2z"/>
	<path class="st9" d="M1135.1,554.1h-3.1v-2h-0.1c-0.8,1.5-2.5,2.4-4.1,2.4c-3.8,0-5.4-1.9-5.4-5.7v-9.2h3.2v8.9
		c0,2.5,1,3.5,2.8,3.5c2.7,0,3.6-1.7,3.6-3.9v-8.4h3.2V554.1z"/>
	<path class="st9" d="M1138.4,539.6h3v2.8h0.1c0.4-1.5,2.3-3.2,4.2-3.2c0.8,0,0.9,0.1,1.2,0.1v3.1c-0.4-0.1-0.9-0.1-1.4-0.1
		c-2.2,0-3.9,1.7-3.9,5v6.9h-3.2V539.6z"/>
	<path class="st9" d="M1150.3,547.7c0,2.3,1.2,4.3,3.9,4.3c1.9,0,3-0.8,3.5-2.4h3c-0.7,3.2-3.4,4.9-6.6,4.9c-4.6,0-7.1-3.1-7.1-7.6
		c0-4.1,2.7-7.6,7-7.6c4.6,0,7.4,4.1,6.8,8.5H1150.3z M1157.7,545.6c-0.1-2-1.5-3.8-3.6-3.8c-2.2,0-3.7,1.7-3.8,3.8H1157.7z"/>
	<path class="st9" d="M1169.7,539.6h2.4v-4.3h3.2v4.3h2.9v2.4h-2.9v7.7c0,1.3,0.1,2,1.5,2c0.4,0,0.9,0,1.3-0.1v2.5
		c-0.7,0.1-1.4,0.2-2.1,0.2c-3.4,0-3.9-1.3-4-3.7V542h-2.4V539.6z"/>
	<path class="st9" d="M1180.4,534.1h3.2v7.4h0.1c0.8-1.3,2.4-2.3,4.3-2.3c3.2,0,5.1,1.7,5.1,4.9v9.9h-3.2V545
		c-0.1-2.3-0.9-3.2-2.8-3.2c-2.1,0-3.5,1.7-3.5,3.8v8.5h-3.2V534.1z"/>
	<path class="st9" d="M1208.6,550.9c0,0.8,0.2,1.1,0.8,1.1h0.3c0.1,0,0.3,0,0.4-0.1v2.2c-0.5,0.2-1.5,0.4-2,0.4
		c-1.3,0-2.2-0.4-2.5-1.8c-1.3,1.2-3.3,1.8-5,1.8c-2.6,0-5-1.4-5-4.2c0-3.6,2.9-4.2,5.6-4.5c2.3-0.4,4.3-0.1,4.3-2c0-1.7-1.7-2-3-2
		c-1.8,0-3.1,0.7-3.2,2.3h-3.2c0.2-3.7,3.4-4.8,6.6-4.8c2.8,0,5.8,1.1,5.8,4.2V550.9z M1205.5,546.8c-1,0.6-2.5,0.6-3.9,0.9
		c-1.4,0.2-2.6,0.7-2.6,2.4c0,1.5,1.8,1.8,2.9,1.8c1.4,0,3.6-0.7,3.6-2.7V546.8z"/>
	<path class="st9" d="M1210.6,539.6h2.4v-4.3h3.2v4.3h2.9v2.4h-2.9v7.7c0,1.3,0.1,2,1.5,2c0.4,0,0.9,0,1.3-0.1v2.5
		c-0.7,0.1-1.4,0.2-2.1,0.2c-3.4,0-3.9-1.3-4-3.7V542h-2.4V539.6z"/>
	<path class="st9" d="M1227.7,539.6h2.4v-4.3h3.2v4.3h2.9v2.4h-2.9v7.7c0,1.3,0.1,2,1.5,2c0.4,0,0.9,0,1.3-0.1v2.5
		c-0.7,0.1-1.4,0.2-2.1,0.2c-3.4,0-3.9-1.3-4-3.7V542h-2.4V539.6z"/>
	<path class="st9" d="M1238.5,534.1h3.2v7.4h0.1c0.8-1.3,2.4-2.3,4.3-2.3c3.2,0,5.1,1.7,5.1,4.9v9.9h-3.2V545
		c-0.1-2.3-0.9-3.2-2.8-3.2c-2.1,0-3.5,1.7-3.5,3.8v8.5h-3.2V534.1z"/>
	<path class="st9" d="M1257.1,547.7c0,2.3,1.2,4.3,3.9,4.3c1.9,0,3-0.8,3.5-2.4h3c-0.7,3.2-3.4,4.9-6.6,4.9c-4.6,0-7.1-3.1-7.1-7.6
		c0-4.1,2.7-7.6,7-7.6c4.6,0,7.4,4.1,6.8,8.5H1257.1z M1264.5,545.6c-0.1-2-1.5-3.8-3.6-3.8c-2.2,0-3.7,1.7-3.8,3.8H1264.5z"/>
	<path class="st9" d="M1296.5,544.1c0,5.7-3.6,10.5-9.6,10.5s-9.6-4.7-9.6-10.5c0-5.7,3.6-10.5,9.6-10.5S1296.5,538.4,1296.5,544.1z
		 M1280.8,544.1c0,3.8,1.8,7.6,6.1,7.6c4.3,0,6.1-3.8,6.1-7.6s-1.8-7.6-6.1-7.6C1282.6,536.5,1280.8,540.3,1280.8,544.1z"/>
	<path class="st9" d="M1297.8,539.6h2.4v-1.2c0-3.7,1.9-4.3,4-4.3c1,0,1.8,0.1,2.2,0.2v2.5c-0.4-0.1-0.8-0.2-1.5-0.2
		c-0.9,0-1.6,0.3-1.6,1.5v1.5h2.7v2.4h-2.7v12.1h-3.2V542h-2.4V539.6z"/>
	<path class="st9" d="M1306.1,539.6h2.4v-1.2c0-3.7,1.9-4.3,4-4.3c1,0,1.8,0.1,2.2,0.2v2.5c-0.4-0.1-0.8-0.2-1.5-0.2
		c-0.9,0-1.6,0.3-1.6,1.5v1.5h2.7v2.4h-2.7v12.1h-3.2V542h-2.4V539.6z"/>
	<path class="st9" d="M1318.9,547.7c0,2.3,1.2,4.3,3.9,4.3c1.9,0,3-0.8,3.5-2.4h3c-0.7,3.2-3.4,4.9-6.6,4.9c-4.6,0-7.1-3.1-7.1-7.6
		c0-4.1,2.7-7.6,7-7.6c4.6,0,7.4,4.1,6.8,8.5H1318.9z M1326.3,545.6c-0.1-2-1.5-3.8-3.6-3.8c-2.2,0-3.7,1.7-3.8,3.8H1326.3z"/>
	<path class="st9" d="M1331.9,539.6h3v2.8h0.1c0.4-1.5,2.3-3.2,4.2-3.2c0.8,0,0.9,0.1,1.2,0.1v3.1c-0.4-0.1-0.9-0.1-1.4-0.1
		c-2.2,0-3.9,1.7-3.9,5v6.9h-3.2V539.6z"/>
	<path class="st9" d="M1341.9,534.1h3.2v3h-3.2V534.1z M1341.9,539.6h3.2v14.5h-3.2V539.6z"/>
	<path class="st9" d="M1348.5,539.6h3v2.1l0.1,0.1c1-1.6,2.6-2.6,4.5-2.6c3.2,0,5.1,1.7,5.1,4.9v9.9h-3.2V545
		c-0.1-2.3-0.9-3.2-2.8-3.2c-2.1,0-3.5,1.7-3.5,3.8v8.5h-3.2V539.6z"/>
	<path class="st9" d="M1378,553.3c0,4.4-2.5,6.5-7.1,6.5c-2.9,0-6.2-1.1-6.5-4.5h3.2c0.4,1.8,1.8,2.1,3.5,2.1c2.6,0,3.7-1.3,3.7-3.7
		v-2.2h-0.1c-0.9,1.6-2.5,2.5-4.3,2.5c-4.6,0-6.5-3.5-6.5-7.6c0-3.9,2.4-7.3,6.6-7.3c1.8,0,3.5,0.7,4.3,2.4h0.1v-2h3.2V553.3z
		 M1374.8,546.5c0-2.5-1.1-4.8-3.9-4.8c-2.8,0-3.8,2.6-3.8,5c0,2.4,1.1,4.8,3.8,4.8C1373.7,551.6,1374.8,549,1374.8,546.5z"/>
	<path class="st9" d="M1389.1,534.1h3.2v3h-3.2V534.1z M1389.1,539.6h3.2v14.5h-3.2V539.6z"/>
	<path class="st9" d="M1398.1,549.4c0.2,1.9,1.6,2.5,3.3,2.5c1.2,0,3.3-0.3,3.2-1.9c-0.1-1.7-2.4-1.9-4.7-2.4
		c-2.4-0.5-4.6-1.3-4.6-4.3c0-3.2,3.4-4.1,6-4.1c3,0,5.7,1.2,6,4.5h-3.3c-0.3-1.5-1.5-1.9-2.9-1.9c-0.9,0-2.6,0.2-2.6,1.5
		c0,1.6,2.4,1.8,4.7,2.3c2.3,0.5,4.7,1.4,4.7,4.2c0,3.4-3.5,4.7-6.5,4.7c-3.7,0-6.3-1.6-6.4-5H1398.1z"/>
	<path class="st9" d="M1418.1,539.6h3v2.8h0.1c0.4-1.5,2.3-3.2,4.2-3.2c0.8,0,0.9,0.1,1.2,0.1v3.1c-0.4-0.1-0.9-0.1-1.4-0.1
		c-2.2,0-3.9,1.7-3.9,5v6.9h-3.2V539.6z"/>
	<path class="st9" d="M1429.9,547.7c0,2.3,1.2,4.3,3.9,4.3c1.9,0,3-0.8,3.5-2.4h3c-0.7,3.2-3.4,4.9-6.6,4.9c-4.6,0-7.1-3.1-7.1-7.6
		c0-4.1,2.7-7.6,7-7.6c4.6,0,7.4,4.1,6.8,8.5H1429.9z M1437.3,545.6c-0.1-2-1.5-3.8-3.6-3.8c-2.2,0-3.7,1.7-3.8,3.8H1437.3z"/>
	<path class="st9" d="M1455.1,550.9c0,0.8,0.2,1.1,0.8,1.1h0.3c0.1,0,0.3,0,0.4-0.1v2.2c-0.5,0.2-1.5,0.4-2,0.4
		c-1.3,0-2.2-0.4-2.5-1.8c-1.3,1.2-3.3,1.8-5,1.8c-2.6,0-5-1.4-5-4.2c0-3.6,2.9-4.2,5.6-4.5c2.3-0.4,4.3-0.1,4.3-2c0-1.7-1.7-2-3-2
		c-1.8,0-3.1,0.7-3.2,2.3h-3.2c0.2-3.7,3.4-4.8,6.6-4.8c2.8,0,5.8,1.1,5.8,4.2V550.9z M1451.9,546.8c-1,0.6-2.5,0.6-3.9,0.9
		c-1.4,0.2-2.6,0.7-2.6,2.4c0,1.5,1.8,1.8,2.9,1.8c1.4,0,3.6-0.7,3.6-2.7V546.8z"/>
	<path class="st9" d="M1472.2,554.1h-3v-2h-0.1c-0.9,1.7-2.7,2.4-4.5,2.4c-4.6,0-6.8-3.4-6.8-7.7c0-5.3,3.1-7.5,6.3-7.5
		c1.8,0,3.8,0.7,4.8,2.3h0.1v-7.4h3.2V554.1z M1465,552c2.8,0,4.1-2.6,4.1-5.1c0-3.2-1.5-5.1-4-5.1c-3,0-4.1,2.7-4.1,5.3
		C1461,549.5,1462.3,552,1465,552z"/>
	<path class="st9" d="M1474.1,539.6h3.5l3.8,10.8h0.1l3.7-10.8h3.3l-5.6,15.3c-1,2.6-1.8,5-5.1,5c-0.8,0-1.5-0.1-2.2-0.2V557
		c0.5,0.1,1,0.2,1.5,0.2c1.5,0,1.9-0.8,2.2-2l0.4-1.1L1474.1,539.6z"/>
	<path class="st9" d="M837.2,573.2h2.4V572c0-3.7,1.9-4.3,4-4.3c1,0,1.8,0.1,2.2,0.2v2.5c-0.4-0.1-0.8-0.2-1.5-0.2
		c-0.9,0-1.6,0.3-1.6,1.5v1.5h2.7v2.4h-2.7v12.1h-3.2v-12.1h-2.4V573.2z"/>
	<path class="st9" d="M846.8,580.4c0-4.4,2.7-7.6,7.3-7.6c4.6,0,7.3,3.2,7.3,7.6c0,4.5-2.7,7.6-7.3,7.6
		C849.5,588.1,846.8,584.9,846.8,580.4z M858.2,580.4c0-2.5-1.3-5.1-4.1-5.1c-2.9,0-4.1,2.6-4.1,5.1c0,2.5,1.3,5.1,4.1,5.1
		C856.9,585.6,858.2,583,858.2,580.4z"/>
	<path class="st9" d="M864.1,573.2h3v2.8h0.1c0.4-1.5,2.3-3.2,4.2-3.2c0.8,0,0.9,0.1,1.2,0.1v3.1c-0.4-0.1-0.9-0.1-1.4-0.1
		c-2.2,0-3.9,1.7-3.9,5v6.9h-3.2V573.2z"/>
	<path class="st9" d="M881.8,573.2h3v2h0.1c0.9-1.7,2.6-2.4,4.5-2.4c4.6,0,6.8,3.4,6.8,7.7c0,3.9-2,7.6-6.2,7.6
		c-1.8,0-3.9-0.7-4.8-2.3H885v7.2h-3.2V573.2z M888.9,575.3c-2.7,0-4.1,2-4.1,5.1c0,2.9,1.5,5.1,4.1,5.1c2.9,0,4-2.6,4-5.1
		C892.9,577.9,891.5,575.3,888.9,575.3z"/>
	<path class="st9" d="M898.8,573.2h3v2.8h0.1c0.4-1.5,2.3-3.2,4.2-3.2c0.8,0,0.9,0.1,1.2,0.1v3.1c-0.4-0.1-0.9-0.1-1.4-0.1
		c-2.2,0-3.9,1.7-3.9,5v6.9h-3.2V573.2z"/>
	<path class="st9" d="M907.5,580.4c0-4.4,2.7-7.6,7.3-7.6c4.6,0,7.3,3.2,7.3,7.6c0,4.5-2.7,7.6-7.3,7.6
		C910.2,588.1,907.5,584.9,907.5,580.4z M918.9,580.4c0-2.5-1.3-5.1-4.1-5.1c-2.9,0-4.1,2.6-4.1,5.1c0,2.5,1.3,5.1,4.1,5.1
		C917.6,585.6,918.9,583,918.9,580.4z"/>
	<path class="st9" d="M938.4,587.7h-3v-2h-0.1c-0.9,1.7-2.7,2.4-4.5,2.4c-4.6,0-6.8-3.4-6.8-7.7c0-5.3,3.1-7.5,6.3-7.5
		c1.8,0,3.8,0.7,4.8,2.3h0.1v-7.4h3.2V587.7z M931.2,585.6c2.8,0,4.1-2.6,4.1-5.1c0-3.2-1.5-5.1-4-5.1c-3,0-4.1,2.7-4.1,5.3
		C927.2,583.1,928.5,585.6,931.2,585.6z"/>
	<path class="st9" d="M954.6,587.7h-3.1v-2h-0.1c-0.8,1.5-2.5,2.4-4.1,2.4c-3.8,0-5.4-1.9-5.4-5.7v-9.2h3.2v8.9c0,2.5,1,3.5,2.8,3.5
		c2.7,0,3.6-1.7,3.6-3.9v-8.4h3.2V587.7z"/>
	<path class="st9" d="M967.7,578.1c-0.3-1.8-1.5-2.7-3.3-2.7c-1.7,0-4,0.9-4,5.3c0,2.4,1.1,5,3.8,5c1.9,0,3.1-1.2,3.4-3.3h3.2
		c-0.6,3.8-2.9,5.8-6.6,5.8c-4.5,0-7-3.2-7-7.5c0-4.4,2.4-7.8,7.1-7.8c3.4,0,6.2,1.7,6.5,5.2H967.7z"/>
	<path class="st9" d="M972,573.2h2.4v-4.3h3.2v4.3h2.9v2.4h-2.9v7.7c0,1.3,0.1,2,1.5,2c0.4,0,0.9,0,1.3-0.1v2.5
		c-0.7,0.1-1.4,0.2-2.1,0.2c-3.4,0-3.9-1.3-4-3.7v-8.5H972V573.2z"/>
	<path class="st9" d="M982.9,567.7h3.2v3h-3.2V567.7z M982.9,573.2h3.2v14.5h-3.2V573.2z"/>
	<path class="st9" d="M988.9,580.4c0-4.4,2.7-7.6,7.3-7.6c4.6,0,7.3,3.2,7.3,7.6c0,4.5-2.7,7.6-7.3,7.6
		C991.6,588.1,988.9,584.9,988.9,580.4z M1000.3,580.4c0-2.5-1.3-5.1-4.1-5.1c-2.9,0-4.1,2.6-4.1,5.1c0,2.5,1.3,5.1,4.1,5.1
		C999.1,585.6,1000.3,583,1000.3,580.4z"/>
	<path class="st9" d="M1006.2,573.2h3v2.1l0.1,0.1c1-1.6,2.6-2.6,4.5-2.6c3.2,0,5.1,1.7,5.1,4.9v9.9h-3.2v-9.1
		c-0.1-2.3-0.9-3.2-2.8-3.2c-2.1,0-3.5,1.7-3.5,3.8v8.5h-3.2V573.2z"/>
	<path class="st9" d="M1022.5,583.9h3.9v3.8h-3.9V583.9z"/>
</g>
<circle class="st7" cx="509.4" cy="554.9" r="52.4"/>
<g>
	<path class="st10" d="M538.1,575c-1.1,2-2.4,3.8-4,5.3l-0.1,0.1c-1.5,1.5-3.3,2.8-5.2,3.9c-1.2,0.7-2.6,0.9-3.9,0.7
		c-1.3-0.2-2.5-0.8-3.5-1.8l0,0v0L510,571.7l-3.9-3.9l10.7-10.7l4.4-1c1.1-0.3,2.2-0.6,3.3-1.2l12.6,12.7c1,1,1.6,2.2,1.8,3.5
		C539.1,572.5,538.8,573.8,538.1,575z"/>
	<polygon class="st11" points="500.9,550.3 490.8,540.2 487.5,540.3 478.7,529.5 483.4,524.8 494.2,533.6 494,536.9 501.1,544 
		504.1,547.1 	"/>
	<path class="st12" d="M538.1,575c-1.1,2-2.4,3.8-4,5.3l-0.1,0.1c-1.5,1.5-3.3,2.8-5.2,3.9c-1.2,0.7-2.6,0.9-3.9,0.7
		c-1.3-0.2-2.5-0.8-3.5-1.8l0,0v0L510,571.7l-3.9-3.9l2.2-2.2l15.4,15.4l0,0c0.5,0.5,1.1,0.8,1.7,0.9c0.3,0,0.6,0,0.9,0l-17.1-17.2
		l7.7-7.7l17.8,17.8c0.3-0.4,0.6-0.9,0.8-1.4c0.3-0.6,0.5-1.3,0.4-1.9c-0.1-0.6-0.4-1.2-0.9-1.7l-13.7-13.7c1.1-0.3,2.2-0.6,3.3-1.2
		l12.6,12.7c1,1,1.6,2.2,1.8,3.5C539.1,572.5,538.8,573.8,538.1,575z"/>
	<path class="st11" d="M520.3,543c-2.7-2.7-4.5-6.5-2.4-8.5l8.2-8.2l-1.1-1.1c-3.6-3.6-15.1,2.7-19.1,8.6c-2,3-2.6,7.4,0.4,11.1
		l-26.8,26.7c-1,1-1.6,2.2-1.7,3.5c-0.7,5.1,5.4,11.2,10.5,10.5c1.3-0.2,2.5-0.8,3.5-1.7l26.6-26.6c3.4,3.3,7.9,2.4,11.1,0.2
		c5.9-3.9,12.2-15.5,8.6-19.1l-1.1-1.1l-8.2,8.2C526.8,547.5,523,545.8,520.3,543L520.3,543z M484,579.4c-2.4-2.4-2.4-6.4,0-8.8
		c2.4-2.4,6.4-2.4,8.8,0c2.4,2.4,2.4,6.4,0,8.8C490.4,581.9,486.4,581.9,484,579.4z"/>
	<path class="st13" d="M480.9,582.4l3-3c-2.4-2.4-2.4-6.4,0-8.8c2.4-2.4,6.3-2.4,8.8,0l27.6-27.6c-2.7-2.7-4.5-6.5-2.4-8.5l8.2-8.2
		l-1.1-1.1c-3.6-3.6-15.1,2.7-19.1,8.6c-2,3-2.6,7.4,0.4,11.1l-26.8,26.7c-1,1-1.6,2.2-1.7,3.5C477.5,577.6,478.8,580.4,480.9,582.4
		z"/>
</g>
<g>
	<g>
		<path class="st7" d="M610.4,749.2c0,3.1,2.3,4.3,5.1,4.3c3.1,0,4.2-1.5,4.2-3c0-1.5-0.8-2.2-1.7-2.5c-1.4-0.5-3.2-0.9-6-1.7
			c-3.4-0.9-4.4-3-4.4-5.1c0-4,3.7-5.9,7.3-5.9c4.1,0,7.7,2.2,7.7,6.4h-3.5c-0.2-2.6-1.9-3.5-4.3-3.5c-1.6,0-3.7,0.6-3.7,2.6
			c0,1.4,1,2.2,2.4,2.6c0.3,0.1,4.7,1.2,5.8,1.5c2.6,0.8,3.9,3,3.9,5.1c0,4.5-4,6.3-8,6.3c-4.6,0-8.3-2.2-8.3-7.1H610.4z"/>
		<path class="st7" d="M624.3,741.4h2.4v-4.3h3.2v4.3h2.9v2.4h-2.9v7.7c0,1.3,0.1,2,1.5,2c0.4,0,0.9,0,1.3-0.1v2.5
			c-0.7,0.1-1.4,0.2-2.1,0.2c-3.4,0-3.9-1.3-4-3.7v-8.5h-2.4V741.4z"/>
		<path class="st7" d="M637.6,749.5c0,2.3,1.2,4.3,3.9,4.3c1.9,0,3-0.8,3.5-2.4h3c-0.7,3.2-3.4,4.9-6.6,4.9c-4.6,0-7.1-3.1-7.1-7.6
			c0-4.1,2.7-7.6,7-7.6c4.6,0,7.4,4.1,6.8,8.5H637.6z M645,747.4c-0.1-2-1.5-3.8-3.6-3.8c-2.2,0-3.7,1.7-3.8,3.8H645z"/>
		<path class="st7" d="M650.8,741.4h3v2h0.1c0.9-1.7,2.6-2.4,4.5-2.4c4.6,0,6.8,3.4,6.8,7.7c0,3.9-2,7.6-6.2,7.6
			c-1.8,0-3.9-0.7-4.8-2.3h-0.1v7.2h-3.2V741.4z M657.9,743.5c-2.7,0-4.1,2-4.1,5.1c0,2.9,1.5,5.1,4.1,5.1c2.9,0,4-2.6,4-5.1
			C661.9,746.1,660.5,743.5,657.9,743.5z"/>
		<path class="st7" d="M680.3,744.4c2.1,0.1,4.3-0.7,4.3-3.1c0-1.7-1.3-2.8-3.1-2.8c-2.2,0-3.3,2-3.2,4h-3.2
			c0.1-3.8,2.6-6.7,6.5-6.7c3.1,0,6.2,1.8,6.2,5.2c0,2-0.9,3.5-2.8,4.2v0.1c2.2,0.4,3.6,2.4,3.6,4.9c0,3.7-3.2,6-6.9,6
			c-4.5,0-6.8-2.7-6.9-6.8h3.2c-0.1,2.4,1.2,4.2,3.7,4.2c2.1,0,3.8-1.3,3.8-3.5c0-3.1-2.6-3.4-5.1-3.3V744.4z"/>
	</g>
</g>
<g>
	<rect x="836.9" y="701.4" class="st8" width="583.9" height="95.1"/>
	<path class="st9" d="M841.4,714.8c0,3.1,2.3,4.3,5.1,4.3c3.1,0,4.2-1.5,4.2-3c0-1.5-0.8-2.2-1.7-2.5c-1.4-0.5-3.2-0.9-6-1.7
		c-3.4-0.9-4.4-3-4.4-5.1c0-4,3.7-5.9,7.3-5.9c4.1,0,7.7,2.2,7.7,6.4h-3.5c-0.2-2.6-1.9-3.5-4.3-3.5c-1.6,0-3.7,0.6-3.7,2.6
		c0,1.4,1,2.2,2.4,2.6c0.3,0.1,4.7,1.2,5.8,1.5c2.6,0.8,3.9,3,3.9,5.1c0,4.5-4,6.3-8,6.3c-4.6,0-8.3-2.2-8.3-7.1H841.4z"/>
	<path class="st9" d="M855.3,707h2.4v-4.3h3.2v4.3h2.9v2.4h-2.9v7.7c0,1.3,0.1,2,1.5,2c0.4,0,0.9,0,1.3-0.1v2.5
		c-0.7,0.1-1.4,0.2-2.1,0.2c-3.4,0-3.9-1.3-4-3.7v-8.5h-2.4V707z"/>
	<path class="st9" d="M868.6,715c0,2.3,1.2,4.3,3.9,4.3c1.9,0,3-0.8,3.5-2.4h3c-0.7,3.2-3.4,4.9-6.6,4.9c-4.6,0-7.1-3.1-7.1-7.6
		c0-4.1,2.7-7.6,7-7.6c4.6,0,7.4,4.1,6.8,8.5H868.6z M876,712.9c-0.1-2-1.5-3.8-3.6-3.8c-2.2,0-3.7,1.7-3.8,3.8H876z"/>
	<path class="st9" d="M881.7,707h3v2h0.1c0.9-1.7,2.6-2.4,4.5-2.4c4.6,0,6.8,3.4,6.8,7.7c0,3.9-2,7.6-6.2,7.6
		c-1.8,0-3.9-0.7-4.8-2.3h-0.1v7.2h-3.2V707z M888.9,709.1c-2.7,0-4.1,2-4.1,5.1c0,2.9,1.5,5.1,4.1,5.1c2.9,0,4-2.6,4-5.1
		C892.9,711.6,891.5,709.1,888.9,709.1z"/>
	<path class="st9" d="M911.3,710c2.1,0.1,4.3-0.7,4.3-3.1c0-1.7-1.3-2.8-3.1-2.8c-2.2,0-3.3,2-3.2,4h-3.2c0.1-3.8,2.6-6.7,6.5-6.7
		c3.1,0,6.2,1.8,6.2,5.2c0,2-0.9,3.5-2.8,4.2v0.1c2.2,0.4,3.6,2.4,3.6,4.9c0,3.7-3.2,6-6.9,6c-4.5,0-6.8-2.7-6.9-6.8h3.2
		c-0.1,2.4,1.2,4.2,3.7,4.2c2.1,0,3.8-1.3,3.8-3.5c0-3.1-2.6-3.4-5.1-3.3V710z"/>
	<path class="st9" d="M930,701.5h3.2v3H930V701.5z M930,707h3.2v14.5H930V707z"/>
	<path class="st9" d="M939.1,716.8c0.2,1.9,1.6,2.5,3.3,2.5c1.2,0,3.3-0.3,3.2-1.9c-0.1-1.7-2.4-1.9-4.7-2.4
		c-2.4-0.5-4.6-1.3-4.6-4.3c0-3.2,3.4-4.1,6-4.1c3,0,5.7,1.2,6,4.5h-3.3c-0.3-1.5-1.5-1.9-2.9-1.9c-0.9,0-2.6,0.2-2.6,1.5
		c0,1.6,2.4,1.8,4.7,2.3c2.3,0.5,4.7,1.4,4.7,4.2c0,3.4-3.5,4.7-6.5,4.7c-3.7,0-6.3-1.6-6.4-5H939.1z"/>
	<path class="st9" d="M957.5,707h2.4v-4.3h3.2v4.3h2.9v2.4h-2.9v7.7c0,1.3,0.1,2,1.5,2c0.4,0,0.9,0,1.3-0.1v2.5
		c-0.7,0.1-1.4,0.2-2.1,0.2c-3.4,0-3.9-1.3-4-3.7v-8.5h-2.4V707z"/>
	<path class="st9" d="M967.6,714.2c0-4.4,2.7-7.6,7.3-7.6c4.6,0,7.3,3.2,7.3,7.6c0,4.5-2.7,7.6-7.3,7.6
		C970.3,721.8,967.6,718.6,967.6,714.2z M979,714.2c0-2.5-1.3-5.1-4.1-5.1c-2.9,0-4.1,2.6-4.1,5.1c0,2.5,1.3,5.1,4.1,5.1
		C977.8,719.3,979,716.7,979,714.2z"/>
	<path class="st9" d="M992.7,707h3v2.8h0.1c0.4-1.5,2.3-3.2,4.2-3.2c0.8,0,0.9,0.1,1.2,0.1v3.1c-0.4-0.1-0.9-0.1-1.4-0.1
		c-2.2,0-3.9,1.7-3.9,5v6.9h-3.2V707z"/>
	<path class="st9" d="M1004.5,715c0,2.3,1.2,4.3,3.9,4.3c1.9,0,3-0.8,3.5-2.4h3c-0.7,3.2-3.4,4.9-6.6,4.9c-4.6,0-7.1-3.1-7.1-7.6
		c0-4.1,2.7-7.6,7-7.6c4.6,0,7.4,4.1,6.8,8.5H1004.5z M1012,712.9c-0.1-2-1.5-3.8-3.6-3.8c-2.2,0-3.7,1.7-3.8,3.8H1012z"/>
	<path class="st9" d="M1016.2,707h3.5l3.7,11.1h0.1l3.5-11.1h3.3l-5.2,14.5h-3.6L1016.2,707z"/>
	<path class="st9" d="M1032.2,701.5h3.2v3h-3.2V701.5z M1032.2,707h3.2v14.5h-3.2V707z"/>
	<path class="st9" d="M1041.4,715c0,2.3,1.2,4.3,3.9,4.3c1.9,0,3-0.8,3.5-2.4h3c-0.7,3.2-3.4,4.9-6.6,4.9c-4.6,0-7.1-3.1-7.1-7.6
		c0-4.1,2.7-7.6,7-7.6c4.6,0,7.4,4.1,6.8,8.5H1041.4z M1048.8,712.9c-0.1-2-1.5-3.8-3.6-3.8c-2.2,0-3.7,1.7-3.8,3.8H1048.8z"/>
	<path class="st9" d="M1053.1,707h3.4l2.8,10.8h0.1l2.7-10.8h3.2l2.6,10.8h0.1l2.9-10.8h3.2l-4.5,14.5h-3.3l-2.7-10.8h-0.1
		l-2.7,10.8h-3.4L1053.1,707z"/>
	<path class="st9" d="M1084.1,701.5h3.2v3h-3.2V701.5z M1084.1,707h3.2v14.5h-3.2V707z"/>
	<path class="st9" d="M1090.8,707h3v2.1l0.1,0.1c1-1.6,2.6-2.6,4.5-2.6c3.2,0,5.1,1.7,5.1,4.9v9.9h-3.2v-9.1
		c-0.1-2.3-0.9-3.2-2.8-3.2c-2.1,0-3.5,1.7-3.5,3.8v8.5h-3.2V707z"/>
	<path class="st9" d="M1109.2,716.8c0.2,1.9,1.6,2.5,3.3,2.5c1.2,0,3.3-0.3,3.2-1.9c-0.1-1.7-2.4-1.9-4.7-2.4
		c-2.4-0.5-4.6-1.3-4.6-4.3c0-3.2,3.4-4.1,6-4.1c3,0,5.7,1.2,6,4.5h-3.3c-0.3-1.5-1.5-1.9-2.9-1.9c-0.9,0-2.6,0.2-2.6,1.5
		c0,1.6,2.4,1.8,4.7,2.3c2.3,0.5,4.7,1.4,4.7,4.2c0,3.4-3.5,4.7-6.5,4.7c-3.7,0-6.3-1.6-6.4-5H1109.2z"/>
	<path class="st9" d="M1119.9,707h2.4v-4.3h3.2v4.3h2.9v2.4h-2.9v7.7c0,1.3,0.1,2,1.5,2c0.4,0,0.9,0,1.3-0.1v2.5
		c-0.7,0.1-1.4,0.2-2.1,0.2c-3.4,0-3.9-1.3-4-3.7v-8.5h-2.4V707z"/>
	<path class="st9" d="M1142.8,718.2c0,0.8,0.2,1.1,0.8,1.1h0.3c0.1,0,0.3,0,0.4-0.1v2.2c-0.5,0.2-1.5,0.4-2,0.4
		c-1.3,0-2.2-0.4-2.5-1.8c-1.3,1.2-3.3,1.8-5,1.8c-2.6,0-5-1.4-5-4.2c0-3.6,2.9-4.2,5.6-4.5c2.3-0.4,4.3-0.1,4.3-2c0-1.7-1.7-2-3-2
		c-1.8,0-3.1,0.7-3.2,2.3h-3.2c0.2-3.7,3.4-4.8,6.6-4.8c2.8,0,5.8,1.1,5.8,4.2V718.2z M1139.6,714.2c-1,0.6-2.5,0.6-3.9,0.9
		c-1.4,0.2-2.6,0.7-2.6,2.4c0,1.5,1.8,1.8,2.9,1.8c1.4,0,3.6-0.7,3.6-2.7V714.2z"/>
	<path class="st9" d="M1146.3,701.5h3.2v20h-3.2V701.5z"/>
	<path class="st9" d="M1153.1,701.5h3.2v20h-3.2V701.5z"/>
	<path class="st9" d="M1171.9,718.2c0,0.8,0.2,1.1,0.8,1.1h0.3c0.1,0,0.3,0,0.4-0.1v2.2c-0.5,0.2-1.5,0.4-2,0.4
		c-1.3,0-2.2-0.4-2.5-1.8c-1.3,1.2-3.3,1.8-5,1.8c-2.6,0-5-1.4-5-4.2c0-3.6,2.9-4.2,5.6-4.5c2.3-0.4,4.3-0.1,4.3-2c0-1.7-1.7-2-3-2
		c-1.8,0-3.1,0.7-3.2,2.3h-3.2c0.2-3.7,3.4-4.8,6.6-4.8c2.8,0,5.8,1.1,5.8,4.2V718.2z M1168.7,714.2c-1,0.6-2.5,0.6-3.9,0.9
		c-1.4,0.2-2.6,0.7-2.6,2.4c0,1.5,1.8,1.8,2.9,1.8c1.4,0,3.6-0.7,3.6-2.7V714.2z"/>
	<path class="st9" d="M1173.9,707h2.4v-4.3h3.2v4.3h2.9v2.4h-2.9v7.7c0,1.3,0.1,2,1.5,2c0.4,0,0.9,0,1.3-0.1v2.5
		c-0.7,0.1-1.4,0.2-2.1,0.2c-3.4,0-3.9-1.3-4-3.7v-8.5h-2.4V707z"/>
	<path class="st9" d="M1184.7,701.5h3.2v3h-3.2V701.5z M1184.7,707h3.2v14.5h-3.2V707z"/>
	<path class="st9" d="M1190.7,714.2c0-4.4,2.7-7.6,7.3-7.6c4.6,0,7.3,3.2,7.3,7.6c0,4.5-2.7,7.6-7.3,7.6
		C1193.4,721.8,1190.7,718.6,1190.7,714.2z M1202.2,714.2c0-2.5-1.3-5.1-4.1-5.1c-2.9,0-4.1,2.6-4.1,5.1c0,2.5,1.3,5.1,4.1,5.1
		C1200.9,719.3,1202.2,716.7,1202.2,714.2z"/>
	<path class="st9" d="M1208,707h3v2.1l0.1,0.1c1-1.6,2.6-2.6,4.5-2.6c3.2,0,5.1,1.7,5.1,4.9v9.9h-3.2v-9.1c-0.1-2.3-0.9-3.2-2.8-3.2
		c-2.1,0-3.5,1.7-3.5,3.8v8.5h-3.2V707z"/>
	<path class="st9" d="M1230.4,707h2.4v-4.3h3.2v4.3h2.9v2.4h-2.9v7.7c0,1.3,0.1,2,1.5,2c0.4,0,0.9,0,1.3-0.1v2.5
		c-0.7,0.1-1.4,0.2-2.1,0.2c-3.4,0-3.9-1.3-4-3.7v-8.5h-2.4V707z"/>
	<path class="st9" d="M1243.7,715c0,2.3,1.2,4.3,3.9,4.3c1.9,0,3-0.8,3.5-2.4h3c-0.7,3.2-3.4,4.9-6.6,4.9c-4.6,0-7.1-3.1-7.1-7.6
		c0-4.1,2.7-7.6,7-7.6c4.6,0,7.4,4.1,6.8,8.5H1243.7z M1251.1,712.9c-0.1-2-1.5-3.8-3.6-3.8c-2.2,0-3.7,1.7-3.8,3.8H1251.1z"/>
	<path class="st9" d="M1259.2,716.8c0.2,1.9,1.6,2.5,3.3,2.5c1.2,0,3.3-0.3,3.2-1.9c-0.1-1.7-2.4-1.9-4.7-2.4
		c-2.4-0.5-4.6-1.3-4.6-4.3c0-3.2,3.4-4.1,6-4.1c3,0,5.7,1.2,6,4.5h-3.3c-0.3-1.5-1.5-1.9-2.9-1.9c-0.9,0-2.6,0.2-2.6,1.5
		c0,1.6,2.4,1.8,4.7,2.3c2.3,0.5,4.7,1.4,4.7,4.2c0,3.4-3.5,4.7-6.5,4.7c-3.7,0-6.3-1.6-6.4-5H1259.2z"/>
	<path class="st9" d="M1269.8,707h2.4v-4.3h3.2v4.3h2.9v2.4h-2.9v7.7c0,1.3,0.1,2,1.5,2c0.4,0,0.9,0,1.3-0.1v2.5
		c-0.7,0.1-1.4,0.2-2.1,0.2c-3.4,0-3.9-1.3-4-3.7v-8.5h-2.4V707z"/>
	<path class="st9" d="M1280.7,701.5h3.2v3h-3.2V701.5z M1280.7,707h3.2v14.5h-3.2V707z"/>
	<path class="st9" d="M1287.4,707h3v2.1l0.1,0.1c1-1.6,2.6-2.6,4.5-2.6c3.2,0,5.1,1.7,5.1,4.9v9.9h-3.2v-9.1
		c-0.1-2.3-0.9-3.2-2.8-3.2c-2.1,0-3.5,1.7-3.5,3.8v8.5h-3.2V707z"/>
	<path class="st9" d="M1316.8,720.7c0,4.4-2.5,6.5-7.1,6.5c-2.9,0-6.2-1.1-6.5-4.5h3.2c0.4,1.8,1.8,2.1,3.5,2.1
		c2.6,0,3.7-1.3,3.7-3.7v-2.2h-0.1c-0.9,1.6-2.5,2.5-4.3,2.5c-4.6,0-6.5-3.5-6.5-7.6c0-3.9,2.4-7.3,6.6-7.3c1.8,0,3.5,0.7,4.3,2.4
		h0.1v-2h3.2V720.7z M1313.6,713.9c0-2.5-1.1-4.8-3.9-4.8c-2.8,0-3.8,2.6-3.8,5c0,2.4,1.1,4.8,3.8,4.8
		C1312.6,718.9,1313.6,716.4,1313.6,713.9z"/>
	<path class="st9" d="M1327.8,707h3v2.8h0.1c0.4-1.5,2.3-3.2,4.2-3.2c0.8,0,0.9,0.1,1.2,0.1v3.1c-0.4-0.1-0.9-0.1-1.4-0.1
		c-2.2,0-3.9,1.7-3.9,5v6.9h-3.2V707z"/>
	<path class="st9" d="M1339.7,715c0,2.3,1.2,4.3,3.9,4.3c1.9,0,3-0.8,3.5-2.4h3c-0.7,3.2-3.4,4.9-6.6,4.9c-4.6,0-7.1-3.1-7.1-7.6
		c0-4.1,2.7-7.6,7-7.6c4.6,0,7.4,4.1,6.8,8.5H1339.7z M1347.1,712.9c-0.1-2-1.5-3.8-3.6-3.8c-2.2,0-3.7,1.7-3.8,3.8H1347.1z"/>
	<path class="st9" d="M1355.1,716.8c0.2,1.9,1.6,2.5,3.3,2.5c1.2,0,3.3-0.3,3.2-1.9c-0.1-1.7-2.4-1.9-4.7-2.4
		c-2.4-0.5-4.6-1.3-4.6-4.3c0-3.2,3.4-4.1,6-4.1c3,0,5.7,1.2,6,4.5h-3.3c-0.3-1.5-1.5-1.9-2.9-1.9c-0.9,0-2.6,0.2-2.6,1.5
		c0,1.6,2.4,1.8,4.7,2.3c2.3,0.5,4.7,1.4,4.7,4.2c0,3.4-3.5,4.7-6.5,4.7c-3.7,0-6.3-1.6-6.4-5H1355.1z"/>
	<path class="st9" d="M1380,721.4h-3.1v-2h-0.1c-0.8,1.5-2.5,2.4-4.1,2.4c-3.8,0-5.4-1.9-5.4-5.7V707h3.2v8.9c0,2.5,1,3.5,2.8,3.5
		c2.7,0,3.6-1.7,3.6-3.9V707h3.2V721.4z"/>
	<path class="st9" d="M1383.4,701.5h3.2v20h-3.2V701.5z"/>
	<path class="st9" d="M1388.6,707h2.4v-4.3h3.2v4.3h2.9v2.4h-2.9v7.7c0,1.3,0.1,2,1.5,2c0.4,0,0.9,0,1.3-0.1v2.5
		c-0.7,0.1-1.4,0.2-2.1,0.2c-3.4,0-3.9-1.3-4-3.7v-8.5h-2.4V707z"/>
	<path class="st9" d="M1401.8,716.8c0.2,1.9,1.6,2.5,3.3,2.5c1.2,0,3.3-0.3,3.2-1.9c-0.1-1.7-2.4-1.9-4.7-2.4
		c-2.4-0.5-4.6-1.3-4.6-4.3c0-3.2,3.4-4.1,6-4.1c3,0,5.7,1.2,6,4.5h-3.3c-0.3-1.5-1.5-1.9-2.9-1.9c-0.9,0-2.6,0.2-2.6,1.5
		c0,1.6,2.4,1.8,4.7,2.3c2.3,0.5,4.7,1.4,4.7,4.2c0,3.4-3.5,4.7-6.5,4.7c-3.7,0-6.3-1.6-6.4-5H1401.8z"/>
	<path class="st9" d="M850.8,751.8c0,0.8,0.2,1.1,0.8,1.1h0.3c0.1,0,0.3,0,0.4-0.1v2.2c-0.5,0.2-1.5,0.4-2,0.4
		c-1.3,0-2.2-0.4-2.5-1.8c-1.3,1.2-3.3,1.8-5,1.8c-2.6,0-5-1.4-5-4.2c0-3.6,2.9-4.2,5.6-4.5c2.3-0.4,4.3-0.1,4.3-2c0-1.7-1.7-2-3-2
		c-1.8,0-3.1,0.7-3.2,2.3h-3.2c0.2-3.7,3.4-4.8,6.6-4.8c2.8,0,5.8,1.1,5.8,4.2V751.8z M847.6,747.8c-1,0.6-2.5,0.6-3.9,0.9
		c-1.4,0.2-2.6,0.7-2.6,2.4c0,1.5,1.8,1.8,2.9,1.8c1.4,0,3.6-0.7,3.6-2.7V747.8z"/>
	<path class="st9" d="M854.2,740.6h3v2.1l0.1,0.1c1-1.6,2.6-2.6,4.5-2.6c3.2,0,5.1,1.7,5.1,4.9v9.9h-3.2v-9.1
		c-0.1-2.3-0.9-3.2-2.8-3.2c-2.1,0-3.5,1.7-3.5,3.8v8.5h-3.2V740.6z"/>
	<path class="st9" d="M883.9,755h-3v-2h-0.1c-0.9,1.7-2.7,2.4-4.5,2.4c-4.6,0-6.8-3.4-6.8-7.7c0-5.3,3.1-7.5,6.3-7.5
		c1.8,0,3.8,0.7,4.8,2.3h0.1V735h3.2V755z M876.8,752.9c2.8,0,4.1-2.6,4.1-5.1c0-3.2-1.5-5.1-4-5.1c-3,0-4.1,2.7-4.1,5.3
		C872.8,750.5,874,752.9,876.8,752.9z"/>
	<path class="st9" d="M895.2,740.6h3v2.8h0.1c0.4-1.5,2.3-3.2,4.2-3.2c0.8,0,0.9,0.1,1.2,0.1v3.1c-0.4-0.1-0.9-0.1-1.4-0.1
		c-2.2,0-3.9,1.7-3.9,5v6.9h-3.2V740.6z"/>
	<path class="st9" d="M907,748.6c0,2.3,1.2,4.3,3.9,4.3c1.9,0,3-0.8,3.5-2.4h3c-0.7,3.2-3.4,4.9-6.6,4.9c-4.6,0-7.1-3.1-7.1-7.6
		c0-4.1,2.7-7.6,7-7.6c4.6,0,7.4,4.1,6.8,8.5H907z M914.5,746.5c-0.1-2-1.5-3.8-3.6-3.8c-2.2,0-3.7,1.7-3.8,3.8H914.5z"/>
	<path class="st9" d="M920.2,735h3.2v20h-3.2V735z"/>
	<path class="st9" d="M929.3,748.6c0,2.3,1.2,4.3,3.9,4.3c1.9,0,3-0.8,3.5-2.4h3c-0.7,3.2-3.4,4.9-6.6,4.9c-4.6,0-7.1-3.1-7.1-7.6
		c0-4.1,2.7-7.6,7-7.6c4.6,0,7.4,4.1,6.8,8.5H929.3z M936.8,746.5c-0.1-2-1.5-3.8-3.6-3.8c-2.2,0-3.7,1.7-3.8,3.8H936.8z"/>
	<path class="st9" d="M954.5,751.8c0,0.8,0.2,1.1,0.8,1.1h0.3c0.1,0,0.3,0,0.4-0.1v2.2c-0.5,0.2-1.5,0.4-2,0.4
		c-1.3,0-2.2-0.4-2.5-1.8c-1.3,1.2-3.3,1.8-5,1.8c-2.6,0-5-1.4-5-4.2c0-3.6,2.9-4.2,5.6-4.5c2.3-0.4,4.3-0.1,4.3-2c0-1.7-1.7-2-3-2
		c-1.8,0-3.1,0.7-3.2,2.3h-3.2c0.2-3.7,3.4-4.8,6.6-4.8c2.8,0,5.8,1.1,5.8,4.2V751.8z M951.3,747.8c-1,0.6-2.5,0.6-3.9,0.9
		c-1.4,0.2-2.6,0.7-2.6,2.4c0,1.5,1.8,1.8,2.9,1.8c1.4,0,3.6-0.7,3.6-2.7V747.8z"/>
	<path class="st9" d="M960.4,750.4c0.2,1.9,1.6,2.5,3.3,2.5c1.2,0,3.3-0.3,3.2-1.9c-0.1-1.7-2.4-1.9-4.7-2.4
		c-2.4-0.5-4.6-1.3-4.6-4.3c0-3.2,3.4-4.1,6-4.1c3,0,5.7,1.2,6,4.5h-3.3c-0.3-1.5-1.5-1.9-2.9-1.9c-0.9,0-2.6,0.2-2.6,1.5
		c0,1.6,2.4,1.8,4.7,2.3c2.3,0.5,4.7,1.4,4.7,4.2c0,3.4-3.5,4.7-6.5,4.7c-3.7,0-6.3-1.6-6.4-5H960.4z"/>
	<path class="st9" d="M975,748.6c0,2.3,1.2,4.3,3.9,4.3c1.9,0,3-0.8,3.5-2.4h3c-0.7,3.2-3.4,4.9-6.6,4.9c-4.6,0-7.1-3.1-7.1-7.6
		c0-4.1,2.7-7.6,7-7.6c4.6,0,7.4,4.1,6.8,8.5H975z M982.4,746.5c-0.1-2-1.5-3.8-3.6-3.8c-2.2,0-3.7,1.7-3.8,3.8H982.4z"/>
	<path class="st9" d="M994.4,740.6h2.4v-4.3h3.2v4.3h2.9v2.4h-2.9v7.7c0,1.3,0.1,2,1.5,2c0.4,0,0.9,0,1.3-0.1v2.5
		c-0.7,0.1-1.4,0.2-2.1,0.2c-3.4,0-3.9-1.3-4-3.7v-8.5h-2.4V740.6z"/>
	<path class="st9" d="M1005.2,735h3.2v7.4h0.1c0.8-1.3,2.4-2.3,4.3-2.3c3.2,0,5.1,1.7,5.1,4.9v9.9h-3.2v-9.1
		c-0.1-2.3-0.9-3.2-2.8-3.2c-2.1,0-3.5,1.7-3.5,3.8v8.5h-3.2V735z"/>
	<path class="st9" d="M1023.7,748.6c0,2.3,1.2,4.3,3.9,4.3c1.9,0,3-0.8,3.5-2.4h3c-0.7,3.2-3.4,4.9-6.6,4.9c-4.6,0-7.1-3.1-7.1-7.6
		c0-4.1,2.7-7.6,7-7.6c4.6,0,7.4,4.1,6.8,8.5H1023.7z M1031.2,746.5c-0.1-2-1.5-3.8-3.6-3.8c-2.2,0-3.7,1.7-3.8,3.8H1031.2z"/>
	<path class="st9" d="M1063.1,745c0,5.7-3.6,10.5-9.6,10.5s-9.6-4.7-9.6-10.5c0-5.7,3.6-10.5,9.6-10.5S1063.1,739.4,1063.1,745z
		 M1047.5,745c0,3.8,1.8,7.6,6.1,7.6c4.3,0,6.1-3.8,6.1-7.6s-1.8-7.6-6.1-7.6C1049.3,737.4,1047.5,741.2,1047.5,745z"/>
	<path class="st9" d="M1064.4,740.6h2.4v-1.2c0-3.7,1.9-4.3,4-4.3c1,0,1.8,0.1,2.2,0.2v2.5c-0.4-0.1-0.8-0.2-1.5-0.2
		c-0.9,0-1.6,0.3-1.6,1.5v1.5h2.7v2.4h-2.7V755h-3.2v-12.1h-2.4V740.6z"/>
	<path class="st9" d="M1072.8,740.6h2.4v-1.2c0-3.7,1.9-4.3,4-4.3c1,0,1.8,0.1,2.2,0.2v2.5c-0.4-0.1-0.8-0.2-1.5-0.2
		c-0.9,0-1.6,0.3-1.6,1.5v1.5h2.7v2.4h-2.7V755h-3.2v-12.1h-2.4V740.6z"/>
	<path class="st9" d="M1085.5,748.6c0,2.3,1.2,4.3,3.9,4.3c1.9,0,3-0.8,3.5-2.4h3c-0.7,3.2-3.4,4.9-6.6,4.9c-4.6,0-7.1-3.1-7.1-7.6
		c0-4.1,2.7-7.6,7-7.6c4.6,0,7.4,4.1,6.8,8.5H1085.5z M1093,746.5c-0.1-2-1.5-3.8-3.6-3.8c-2.2,0-3.7,1.7-3.8,3.8H1093z"/>
	<path class="st9" d="M1098.6,740.6h3v2.8h0.1c0.4-1.5,2.3-3.2,4.2-3.2c0.8,0,0.9,0.1,1.2,0.1v3.1c-0.4-0.1-0.9-0.1-1.4-0.1
		c-2.2,0-3.9,1.7-3.9,5v6.9h-3.2V740.6z"/>
	<path class="st9" d="M1108.5,735h3.2v3h-3.2V735z M1108.5,740.6h3.2V755h-3.2V740.6z"/>
	<path class="st9" d="M1115.2,740.6h3v2.1l0.1,0.1c1-1.6,2.6-2.6,4.5-2.6c3.2,0,5.1,1.7,5.1,4.9v9.9h-3.2v-9.1
		c-0.1-2.3-0.9-3.2-2.8-3.2c-2.1,0-3.5,1.7-3.5,3.8v8.5h-3.2V740.6z"/>
	<path class="st9" d="M1144.6,754.3c0,4.4-2.5,6.5-7.1,6.5c-2.9,0-6.2-1.1-6.5-4.5h3.2c0.4,1.8,1.8,2.1,3.5,2.1
		c2.6,0,3.7-1.3,3.7-3.7v-2.2h-0.1c-0.9,1.6-2.5,2.5-4.3,2.5c-4.6,0-6.5-3.5-6.5-7.6c0-3.9,2.4-7.3,6.6-7.3c1.8,0,3.5,0.7,4.3,2.4
		h0.1v-2h3.2V754.3z M1141.4,747.5c0-2.5-1.1-4.8-3.9-4.8c-2.8,0-3.8,2.6-3.8,5c0,2.4,1.1,4.8,3.8,4.8
		C1140.4,752.5,1141.4,750,1141.4,747.5z"/>
	<path class="st9" d="M1155.7,735h3.2v3h-3.2V735z M1155.7,740.6h3.2V755h-3.2V740.6z"/>
	<path class="st9" d="M1162.4,740.6h3v2.1l0.1,0.1c1-1.6,2.6-2.6,4.5-2.6c3.2,0,5.1,1.7,5.1,4.9v9.9h-3.2v-9.1
		c-0.1-2.3-0.9-3.2-2.8-3.2c-2.1,0-3.5,1.7-3.5,3.8v8.5h-3.2V740.6z"/>
	<path class="st9" d="M1177,740.6h2.4v-4.3h3.2v4.3h2.9v2.4h-2.9v7.7c0,1.3,0.1,2,1.5,2c0.4,0,0.9,0,1.3-0.1v2.5
		c-0.7,0.1-1.4,0.2-2.1,0.2c-3.4,0-3.9-1.3-4-3.7v-8.5h-2.4V740.6z"/>
	<path class="st9" d="M1187.1,747.8c0-4.4,2.7-7.6,7.3-7.6c4.6,0,7.3,3.2,7.3,7.6c0,4.5-2.7,7.6-7.3,7.6
		C1189.8,755.4,1187.1,752.2,1187.1,747.8z M1198.5,747.8c0-2.5-1.3-5.1-4.1-5.1c-2.9,0-4.1,2.6-4.1,5.1c0,2.5,1.3,5.1,4.1,5.1
		C1197.3,752.9,1198.5,750.3,1198.5,747.8z"/>
	<path class="st9" d="M1221.9,745.4c-0.3-1.8-1.5-2.7-3.3-2.7c-1.7,0-4,0.9-4,5.3c0,2.4,1.1,5,3.8,5c1.9,0,3.1-1.2,3.4-3.3h3.2
		c-0.6,3.8-2.9,5.8-6.6,5.8c-4.5,0-7-3.2-7-7.5c0-4.4,2.4-7.8,7.1-7.8c3.4,0,6.2,1.7,6.5,5.2H1221.9z"/>
	<path class="st9" d="M1227.8,735h3.2v20h-3.2V735z"/>
	<path class="st9" d="M1234.6,735h3.2v3h-3.2V735z M1234.6,740.6h3.2V755h-3.2V740.6z"/>
	<path class="st9" d="M1243.7,748.6c0,2.3,1.2,4.3,3.9,4.3c1.9,0,3-0.8,3.5-2.4h3c-0.7,3.2-3.4,4.9-6.6,4.9c-4.6,0-7.1-3.1-7.1-7.6
		c0-4.1,2.7-7.6,7-7.6c4.6,0,7.4,4.1,6.8,8.5H1243.7z M1251.2,746.5c-0.1-2-1.5-3.8-3.6-3.8c-2.2,0-3.7,1.7-3.8,3.8H1251.2z"/>
	<path class="st9" d="M1256.8,740.6h3v2.1l0.1,0.1c1-1.6,2.6-2.6,4.5-2.6c3.2,0,5.1,1.7,5.1,4.9v9.9h-3.2v-9.1
		c-0.1-2.3-0.9-3.2-2.8-3.2c-2.1,0-3.5,1.7-3.5,3.8v8.5h-3.2V740.6z"/>
	<path class="st9" d="M1271.4,740.6h2.4v-4.3h3.2v4.3h2.9v2.4h-2.9v7.7c0,1.3,0.1,2,1.5,2c0.4,0,0.9,0,1.3-0.1v2.5
		c-0.7,0.1-1.4,0.2-2.1,0.2c-3.4,0-3.9-1.3-4-3.7v-8.5h-2.4V740.6z"/>
	<path class="st9" d="M838.7,774.2h3v2h0.1c0.9-1.7,2.6-2.4,4.5-2.4c4.6,0,6.8,3.4,6.8,7.7c0,3.9-2,7.6-6.2,7.6
		c-1.8,0-3.9-0.7-4.8-2.3h-0.1v7.2h-3.2V774.2z M845.9,776.3c-2.7,0-4.1,2-4.1,5.1c0,2.9,1.5,5.1,4.1,5.1c2.9,0,4-2.6,4-5.1
		C849.9,778.8,848.5,776.3,845.9,776.3z"/>
	<path class="st9" d="M855.7,774.2h3v2.8h0.1c0.4-1.5,2.3-3.2,4.2-3.2c0.8,0,0.9,0.1,1.2,0.1v3.1c-0.4-0.1-0.9-0.1-1.4-0.1
		c-2.2,0-3.9,1.7-3.9,5v6.9h-3.2V774.2z"/>
	<path class="st9" d="M864.4,781.4c0-4.4,2.7-7.6,7.3-7.6c4.6,0,7.3,3.2,7.3,7.6c0,4.5-2.7,7.6-7.3,7.6
		C867.1,789,864.4,785.8,864.4,781.4z M875.8,781.4c0-2.5-1.3-5.1-4.1-5.1c-2.9,0-4.1,2.6-4.1,5.1c0,2.5,1.3,5.1,4.1,5.1
		C874.6,786.5,875.8,783.9,875.8,781.4z"/>
	<path class="st9" d="M895.3,788.6h-3v-2h-0.1c-0.9,1.7-2.7,2.4-4.5,2.4c-4.6,0-6.8-3.4-6.8-7.7c0-5.3,3.1-7.5,6.3-7.5
		c1.8,0,3.8,0.7,4.8,2.3h0.1v-7.4h3.2V788.6z M888.2,786.5c2.8,0,4.1-2.6,4.1-5.1c0-3.2-1.5-5.1-4-5.1c-3,0-4.1,2.7-4.1,5.3
		C884.2,784,885.4,786.5,888.2,786.5z"/>
	<path class="st9" d="M911.5,788.6h-3.1v-2h-0.1c-0.8,1.5-2.5,2.4-4.1,2.4c-3.8,0-5.4-1.9-5.4-5.7v-9.2h3.2v8.9c0,2.5,1,3.5,2.8,3.5
		c2.7,0,3.6-1.7,3.6-3.9v-8.4h3.2V788.6z"/>
	<path class="st9" d="M924.6,779c-0.3-1.8-1.5-2.7-3.3-2.7c-1.7,0-4,0.9-4,5.3c0,2.4,1.1,5,3.8,5c1.9,0,3.1-1.2,3.4-3.3h3.2
		c-0.6,3.8-2.9,5.8-6.6,5.8c-4.5,0-7-3.2-7-7.5c0-4.4,2.4-7.8,7.1-7.8c3.4,0,6.2,1.7,6.5,5.2H924.6z"/>
	<path class="st9" d="M929,774.2h2.4v-4.3h3.2v4.3h2.9v2.4h-2.9v7.7c0,1.3,0.1,2,1.5,2c0.4,0,0.9,0,1.3-0.1v2.5
		c-0.7,0.1-1.4,0.2-2.1,0.2c-3.4,0-3.9-1.3-4-3.7v-8.5H929V774.2z"/>
	<path class="st9" d="M939.8,768.6h3.2v3h-3.2V768.6z M939.8,774.2h3.2v14.5h-3.2V774.2z"/>
	<path class="st9" d="M945.8,781.4c0-4.4,2.7-7.6,7.3-7.6c4.6,0,7.3,3.2,7.3,7.6c0,4.5-2.7,7.6-7.3,7.6
		C948.5,789,945.8,785.8,945.8,781.4z M957.3,781.4c0-2.5-1.3-5.1-4.1-5.1c-2.9,0-4.1,2.6-4.1,5.1c0,2.5,1.3,5.1,4.1,5.1
		C956,786.5,957.3,783.9,957.3,781.4z"/>
	<path class="st9" d="M963.1,774.2h3v2.1l0.1,0.1c1-1.6,2.6-2.6,4.5-2.6c3.2,0,5.1,1.7,5.1,4.9v9.9h-3.2v-9.1
		c-0.1-2.3-0.9-3.2-2.8-3.2c-2.1,0-3.5,1.7-3.5,3.8v8.5h-3.2V774.2z"/>
</g>
<circle class="st7" cx="513.3" cy="749" r="52.4"/>
<g>
	<path class="st12" d="M520.5,341.5l4.3,1.8l7.6-3.9c2.6,2.6,5.2,5.2,7.7,7.7l-3.9,7.6l1.8,4.3l8.1,2.6c0,3.6,0,7.3,0,10.9l-8.1,2.6
		l-1.8,4.3l3.9,7.6c-2.6,2.6-5.2,5.2-7.7,7.7l-7.6-3.9l-4.3,1.8l-2.6,8.1c-3.6,0-7.3,0-10.9,0l-2.6-8.1l-4.3-1.8l-7.6,3.9
		c-2.6-2.6-5.2-5.2-7.7-7.7l3.9-7.6l-1.8-4.3l-8.1-2.6c0-3.6,0-7.3,0-10.9l8.1-2.6l1.8-4.3l-3.9-7.6c2.6-2.6,5.2-5.2,7.7-7.7
		l7.6,3.9l4.3-1.8l2.6-8.1c3.6,0,7.3,0,10.9,0L520.5,341.5L520.5,341.5z M512.4,360.1c-3.8,0-6.9,3.1-6.9,6.9c0,3.8,3.1,6.9,6.9,6.9
		c3.8,0,6.9-3.1,6.9-6.9C519.3,363.2,516.2,360.1,512.4,360.1z"/>
	<path class="st10" d="M513.1,400.6H507l-2.6-8.1l-4.3-1.8l-7.6,3.9c-2.6-2.6-5.2-5.2-7.7-7.7l3.9-7.6l-1.8-4.3l-8.1-2.6
		c0-3.6,0-7.3,0-10.9l8.1-2.6l1.8-4.3l-3.9-7.6c2.6-2.6,5.2-5.2,7.7-7.7l7.6,3.9l4.3-1.8l2.6-8.1h6.1v26.7c-0.2,0-0.4,0-0.6,0
		c-3.8,0-6.9,3.1-6.9,6.9c0,3.8,3.1,6.9,6.9,6.9c0.2,0,0.4,0,0.6,0V400.6z"/>
	<path class="st14" d="M512.4,347.7c10.7,0,19.3,8.6,19.3,19.3c0,10.7-8.6,19.3-19.3,19.3c-10.7,0-19.3-8.6-19.3-19.3
		C493.1,356.3,501.7,347.7,512.4,347.7L512.4,347.7z M512.4,360.1c-3.8,0-6.9,3.1-6.9,6.9c0,3.8,3.1,6.9,6.9,6.9
		c3.8,0,6.9-3.1,6.9-6.9C519.3,363.2,516.2,360.1,512.4,360.1z"/>
	<path class="st10" d="M512.4,381.6c8.1,0,14.7-6.6,14.7-14.7c0-8.1-6.6-14.7-14.7-14.7c-8.1,0-14.7,6.6-14.7,14.7
		C497.7,375.1,504.3,381.6,512.4,381.6L512.4,381.6z M512.4,360.1c3.8,0,6.9,3.1,6.9,6.9c0,3.8-3.1,6.9-6.9,6.9
		c-3.8,0-6.9-3.1-6.9-6.9C505.5,363.2,508.6,360.1,512.4,360.1z"/>
</g>
<g>
	<path class="st10" d="M531.7,744.1h5.1c0.6,0,1.1,0.2,1.5,0.6c0.4,0.4,0.6,0.8,0.6,1.3c-0.3,5.4-4.7,7.6-5.1,14.3
		c-0.1,1.1-1.1,1.7-2.1,1.7V744.1z"/>
	<path class="st10" d="M494.8,720.4h-5.1c-0.6,0-1.1,0.2-1.5,0.6c-0.4,0.4-0.6,0.8-0.6,1.3c0.4,5.4,4.7,7.6,5.1,14.3
		c0.1,1,1.1,1.7,2.1,1.7V720.4z"/>
	<path class="st10" d="M494.8,744.1h-5.1c-0.6,0-1.1,0.2-1.5,0.6c-0.4,0.4-0.6,0.8-0.6,1.3c0.4,5.4,4.7,7.6,5.1,14.3
		c0.1,1.1,1.1,1.7,2.1,1.7V744.1z"/>
	<path class="st10" d="M531.7,720.4h5.1c0.6,0,1.1,0.2,1.5,0.6c0.4,0.4,0.6,0.8,0.6,1.3c-0.3,5.4-4.7,7.6-5.1,14.3
		c-0.1,1-1.1,1.7-2.1,1.7V720.4z"/>
	<path class="st10" d="M500.2,713.8h26c3,0,5.4,2.4,5.4,5.4c0,20.4,0,24,0,44.4c0,3-2.4,5.4-5.4,5.4h-4.5l0,0h-17h-2.2h-2.2
		c-3,0-5.4-2.4-5.4-5.4v-44.4C494.8,716.3,497.3,713.8,500.2,713.8z"/>
	<path class="st13" d="M521.8,769v1.2c0,2.5-1.7,4.6-3.9,5.2v10.7h-9.1v-10.7c-2.3-0.6-3.9-2.7-3.9-5.2V769H521.8z"/>
	<path class="st10" d="M521.8,769v1.2c0,2.5-1.7,4.6-3.9,5.2h-9.1l0,0c-2.3-0.6-3.9-2.7-3.9-5.2V769H521.8z"/>
	<path class="st15" d="M513.3,720c1.2,0,2.4,0.2,3.4,0.7c1.1,0.5,2.1,1.1,2.9,1.9c0.8,0.8,1.5,1.8,1.9,2.9c0.4,1.1,0.7,2.2,0.7,3.4
		c0,1.2-0.2,2.4-0.7,3.4c-0.5,1.1-1.1,2.1-1.9,2.9c-1.6,1.6-3.9,2.6-6.3,2.6c-1.2,0-2.4-0.2-3.4-0.7c-1.1-0.4-2.1-1.1-2.9-1.9
		c-0.8-0.8-1.5-1.8-1.9-2.9c-0.4-1.1-0.7-2.2-0.7-3.4c0-1.2,0.2-2.4,0.7-3.4c0.5-1.1,1.1-2.1,1.9-2.9c0.8-0.8,1.8-1.5,2.9-1.9
		C510.9,720.2,512.1,720,513.3,720z"/>
	<path class="st16" d="M513.3,744.2c1.2,0,2.4,0.2,3.4,0.7c1.1,0.4,2.1,1.1,2.9,1.9c0.8,0.8,1.5,1.8,1.9,2.9
		c0.4,1.1,0.7,2.2,0.7,3.4c0,1.2-0.2,2.4-0.7,3.4c-0.5,1.1-1.1,2.1-1.9,2.9c-1.6,1.6-3.9,2.6-6.3,2.6c-1.2,0-2.4-0.2-3.4-0.7
		c-1.1-0.5-2.1-1.1-2.9-1.9c-0.8-0.8-1.5-1.8-1.9-2.9c-0.4-1.1-0.7-2.2-0.7-3.4c0-1.2,0.2-2.4,0.7-3.4c0.5-1.1,1.1-2.1,1.9-2.9
		c0.8-0.8,1.8-1.5,2.9-1.9C510.9,744.4,512.1,744.2,513.3,744.2z"/>
</g>
<g>
</g>
<g>
</g>
<g>
</g>
<g>
</g>
<g>
</g>
<g>
</g>
</svg>
