<?xml version="1.0" encoding="utf-8"?>
<!-- Generator: Adobe Illustrator 19.2.0, SVG Export Plug-In . SVG Version: 6.00 Build 0)  -->
<svg version="1.1" id="Layer_1" xmlns="http://www.w3.org/2000/svg" xmlns:xlink="http://www.w3.org/1999/xlink" x="0px" y="0px"
	 viewBox="0 0 2048 1000" style="enable-background:new 0 0 2048 1000;" xml:space="preserve">
<style type="text/css">
	.st0{fill:#B9E5FB;}
	.st1{fill:none;stroke:#343636;stroke-width:3.0833;stroke-miterlimit:10;}
	.st2{fill:none;stroke:#89C240;stroke-width:6.328;stroke-miterlimit:10;}
	.st3{fill:#89C240;}
	.st4{fill:#FFFFFF;}
	.st5{fill-rule:evenodd;clip-rule:evenodd;fill:#FFFFFF;}
	.st6{fill:#007DD6;}
	.st7{fill-rule:evenodd;clip-rule:evenodd;fill:#007DD6;}
	.st8{fill:#FFFFFF;stroke:#27AAE1;stroke-miterlimit:8;}
	.st9{fill:none;stroke:#FF0000;stroke-width:6.328;stroke-miterlimit:10;}
	.st10{fill:#FF0000;}
	.st11{fill:none;stroke:#58595B;stroke-width:6.328;stroke-miterlimit:10;}
	.st12{fill:#58595B;}
	.st13{fill:none;stroke:#919191;stroke-width:5;stroke-linejoin:round;stroke-miterlimit:10;stroke-dasharray:4,3;}
	.st14{fill-rule:evenodd;clip-rule:evenodd;fill:#7D069B;}
	.st15{fill:none;}
	.st16{fill:#FFFFFF;stroke:#27AAE1;stroke-linejoin:round;stroke-miterlimit:10;}
	.st17{fill:#231F20;}
	.st18{fill-rule:evenodd;clip-rule:evenodd;fill:none;}
	.st19{fill:#FFFFFF;stroke:#FFFFFF;stroke-width:0.9481;stroke-miterlimit:10;}
	.st20{fill:none;stroke:#FFFFFF;stroke-width:2.3702;stroke-miterlimit:10;}
</style>
<rect class="st0" width="2048" height="1000"/>
<line class="st1" x1="53.3" y1="54.1" x2="1997.5" y2="54.1"/>
<g>
	<g>
		<line class="st2" x1="242.7" y1="176.2" x2="242.7" y2="196.5"/>
		<g>
			<polygon class="st3" points="231.9,183.9 242.7,194.6 253.4,183.9 253.4,193 242.7,203.7 231.9,193 			"/>
		</g>
	</g>
</g>
<rect x="332.3" y="203.7" class="st4" width="218.5" height="182.7"/>
<rect x="109.2" y="203.7" class="st5" width="206.8" height="182.7"/>
<rect x="598.9" y="203.7" class="st4" width="190.6" height="182.7"/>
<polygon class="st6" points="550.8,547.6 678.4,450.5 805.9,547.6 678.4,644.6 "/>
<g>
</g>
<polygon class="st7" points="69.1,547.8 212.7,450.7 356.2,547.8 212.7,644.9 "/>
<rect x="1009.4" y="456.5" class="st8" width="125.2" height="182.7"/>
<polygon class="st6" points="1571.9,295.1 1660.1,198 1748.3,295.1 1660.1,392.2 "/>
<g>
	<g>
		<polyline class="st9" points="69.1,547.8 48.5,547.8 48.5,295.1 102,295.1 		"/>
		<g>
			<polygon class="st10" points="89.4,305.8 100.1,295.1 89.4,284.4 98.5,284.4 109.2,295.1 98.5,305.8 			"/>
		</g>
	</g>
</g>
<g>
	<g>
		<line class="st2" x1="242.7" y1="386.4" x2="242.7" y2="443.5"/>
		<g>
			<polygon class="st3" points="231.9,430.9 242.7,441.6 253.4,430.9 253.4,440 242.7,450.7 231.9,440 			"/>
		</g>
	</g>
</g>
<g>
	<g>
		<polyline class="st2" points="356.2,547.8 417.3,547.8 417.3,393.7 		"/>
		<g>
			<polygon class="st3" points="428,406.3 417.3,395.5 406.6,406.3 406.6,397.2 417.3,386.4 428,397.2 			"/>
		</g>
	</g>
</g>
<g>
	<g>
		<line class="st2" x1="550.8" y1="295.1" x2="591.7" y2="295.1"/>
		<g>
			<polygon class="st3" points="579.1,305.8 589.8,295.1 579.1,284.4 588.2,284.4 598.9,295.1 588.2,305.8 			"/>
		</g>
	</g>
</g>
<g>
	<g>
		<polyline class="st2" points="1291.4,547.8 1315.5,547.8 1315.5,295.1 1332.4,295.1 		"/>
		<g>
			<polygon class="st3" points="1319.8,305.8 1330.5,295.1 1319.8,284.4 1328.9,284.4 1339.6,295.1 1328.9,305.8 			"/>
		</g>
	</g>
</g>
<g>
	<g>
		<line class="st2" x1="1748.3" y1="295.1" x2="1776.5" y2="295.1"/>
		<g>
			<polygon class="st3" points="1763.9,305.8 1774.6,295.1 1763.9,284.4 1773,284.4 1783.7,295.1 1773,305.8 			"/>
		</g>
	</g>
</g>
<g>
	<g>
		<polyline class="st11" points="1230.4,457.5 1230.4,420.2 916.9,420.2 916.9,448.2 		"/>
		<g>
			<polygon class="st12" points="906.1,435.6 916.9,446.3 927.6,435.6 927.6,444.7 916.9,455.4 906.1,444.7 			"/>
		</g>
	</g>
</g>
<rect x="832.5" y="375.3" class="st13" width="471.9" height="345.1"/>
<g>
	<g>
		<line class="st2" x1="1540.7" y1="295.1" x2="1564.6" y2="295.1"/>
		<g>
			<polygon class="st3" points="1552,305.8 1562.8,295.1 1552,284.4 1561.1,284.4 1571.9,295.1 1561.1,305.8 			"/>
		</g>
	</g>
</g>
<rect x="288.9" y="842.3" class="st8" width="176.1" height="121.5"/>
<path class="st14" d="M156.7,84.4L156.7,84.4c0-44.2,35.8-80,80-80c44.2,0,80,35.8,80,80l0,0c0,44.2-35.8,80-80,80l0,0
	C192.5,164.4,156.7,128.6,156.7,84.4L156.7,84.4z"/>
<rect x="971" y="842.3" class="st8" width="619.1" height="121.5"/>
<g>
	<rect x="122" y="73.5" class="st15" width="229.3" height="35.2"/>
	<path class="st4" d="M191.1,88.4c0,3,2.3,4.1,4.9,4.1c1.7,0,4.3-0.5,4.3-2.8c0-2.4-3.4-2.8-6.6-3.7c-3.3-0.8-6.6-2.2-6.6-6.3
		c0-4.6,4.3-6.7,8.3-6.7c4.6,0,8.9,2,8.9,7.2h-4.7c-0.2-2.6-2-3.4-4.4-3.4c-1.6,0-3.4,0.7-3.4,2.5c0,1.7,1.1,2,6.6,3.4
		c1.7,0.4,6.6,1.5,6.6,6.5c0,4.1-3.2,7.1-9.3,7.1c-4.9,0-9.6-2.4-9.5-7.9H191.1z"/>
	<path class="st4" d="M212.9,77.6h-6.7v-4.1h18.2v4.1h-6.7v18.1h-4.9V77.6z"/>
	<path class="st4" d="M233.1,73.5h5l8.3,22.2h-5.1l-1.7-5h-8.3l-1.7,5h-5L233.1,73.5z M232.6,87.2h5.8l-2.8-8.2h-0.1L232.6,87.2z"/>
	<path class="st4" d="M248.3,73.5h12c4,0,6.5,2.8,6.5,6.1c0,2.6-1,4.6-3.5,5.6v0.1c2.4,0.7,3.1,2.9,3.2,5.2c0.1,1.4,0,4.1,0.9,5.3
		h-4.9c-0.6-1.4-0.5-3.6-0.8-5.3c-0.3-2.3-1.2-3.4-3.7-3.4h-4.9v8.7h-4.9V73.5z M253.2,83.6h5.4c2.2,0,3.4-0.9,3.4-3.2
		c0-2.1-1.2-3.1-3.4-3.1h-5.4V83.6z"/>
	<path class="st4" d="M275.8,77.6h-6.7v-4.1h18.2v4.1h-6.7v18.1h-4.9V77.6z"/>
</g>
<g>
	<g>
		<line class="st2" x1="475.7" y1="875.9" x2="562.3" y2="875.9"/>
		<g>
			<polygon class="st3" points="549.7,886.6 560.5,875.9 549.7,865.2 558.8,865.2 569.6,875.9 558.8,886.6 			"/>
		</g>
	</g>
</g>
<g>
	<g>
		<line class="st2" x1="810.5" y1="547.8" x2="838.7" y2="547.8"/>
		<g>
			<polygon class="st3" points="826.1,558.5 836.8,547.8 826.1,537.1 835.2,537.1 845.9,547.8 835.2,558.5 			"/>
		</g>
	</g>
</g>
<g>
	<g>
		<line class="st2" x1="976.4" y1="547.8" x2="1004.6" y2="547.8"/>
		<g>
			<polygon class="st3" points="992,558.5 1002.8,547.8 992,537.1 1001.1,537.1 1011.9,547.8 1001.1,558.5 			"/>
		</g>
	</g>
</g>
<g>
	<g>
		<line class="st2" x1="1131.6" y1="547.8" x2="1159.8" y2="547.8"/>
		<g>
			<polygon class="st3" points="1147.2,558.5 1157.9,547.8 1147.2,537.1 1156.3,537.1 1167.1,547.8 1156.3,558.5 			"/>
		</g>
	</g>
</g>
<g>
	<g>
		<line class="st9" x1="569.6" y1="919.1" x2="482.9" y2="919.1"/>
		<g>
			<polygon class="st10" points="495.5,908.4 484.8,919.1 495.5,929.9 486.4,929.9 475.7,919.1 486.4,908.4 			"/>
		</g>
	</g>
</g>
<g>
	<g>
		<line class="st2" x1="1685.7" y1="121.2" x2="1772.4" y2="121.2"/>
		<g>
			<polygon class="st3" points="1759.8,132 1770.6,121.2 1759.8,110.5 1768.9,110.5 1779.7,121.2 1768.9,132 			"/>
		</g>
	</g>
</g>
<g>
	<g>
		<line class="st9" x1="1685.7" y1="84.4" x2="1772.4" y2="84.4"/>
		<g>
			<polygon class="st10" points="1759.8,95.2 1770.6,84.4 1759.8,73.7 1768.9,73.7 1779.7,84.4 1768.9,95.2 			"/>
		</g>
	</g>
</g>
<g>
	<g>
		<line class="st2" x1="713.8" y1="399.3" x2="713.8" y2="439.1"/>
		<g>
			<polygon class="st3" points="703,426.5 713.8,437.2 724.5,426.5 724.5,435.6 713.8,446.3 703,435.6 			"/>
		</g>
	</g>
</g>
<g>
	<g>
		<line class="st9" x1="666.1" y1="446.3" x2="666.1" y2="406.6"/>
		<g>
			<polygon class="st10" points="676.8,419.2 666.1,408.4 655.3,419.2 655.3,410.1 666.1,399.3 676.8,410.1 			"/>
		</g>
	</g>
</g>
<g>
	<g>
		<line class="st2" x1="793" y1="903" x2="963.8" y2="903"/>
		<g>
			<polygon class="st3" points="951.2,913.7 961.9,903 951.2,892.3 960.3,892.3 971,903 960.3,913.7 			"/>
		</g>
	</g>
</g>
<polygon class="st16" points="563.8,903 678.4,826.5 793,903 678.4,979.5 "/>
<rect x="1339.6" y="203.7" class="st8" width="201.1" height="182.7"/>
<rect x="852.7" y="456.5" class="st8" width="125.2" height="182.7"/>
<g>
</g>
<rect x="1166.2" y="456.5" class="st8" width="125.2" height="182.7"/>
<g>
	<g>
		<polyline class="st2" points="1660.1,392.2 1660.1,757.6 1068.4,757.6 1068.4,727.6 		"/>
		<g>
			<polygon class="st3" points="1079.1,740.2 1068.4,729.5 1057.7,740.2 1057.7,731.1 1068.4,720.4 1079.1,731.1 			"/>
		</g>
	</g>
</g>
<g>
	<g>
		<polyline class="st2" points="1975.5,284.3 2007.4,284.3 2007.4,818.3 224.4,818.3 225.5,917.5 257.6,917.5 		"/>
		<g>
			<polygon class="st3" points="245,928.2 255.7,917.5 245,906.7 254.1,906.8 264.8,917.5 254.1,928.2 			"/>
		</g>
	</g>
</g>
<rect x="1783.7" y="203.9" class="st8" width="191.5" height="234.9"/>
<g>
	<g>
		<path class="st17" d="M146.2,220h8.1c3.7,0,5.7,2,5.7,5.5c0,3.5-2,5.5-5.7,5.5h-5.7v7.6h-2.5V220z M148.7,228.9h4.8
			c2.8,0,4.1-1.2,4.1-3.4c0-2.2-1.2-3.4-4.1-3.4h-4.8V228.9z"/>
		<path class="st17" d="M162.6,225.1h2.1v2.8h0.1c1.1-2.2,2.5-3.2,4.9-3.1v2.3c-3.6,0-4.9,2-4.9,5.4v6h-2.2V225.1z"/>
		<path class="st17" d="M177.1,224.8c4.3,0,6.5,3.1,6.5,7c0,3.9-2.3,7-6.5,7s-6.5-3.1-6.5-7C170.6,227.9,172.9,224.8,177.1,224.8z
			 M177.1,236.9c2.3,0,4.2-1.8,4.2-5.1c0-3.3-1.9-5.1-4.2-5.1c-2.3,0-4.2,1.8-4.2,5.1C172.9,235.1,174.8,236.9,177.1,236.9z"/>
		<path class="st17" d="M188.6,240.3c0,2.4-1.2,3.4-3.2,3.4c-0.4,0-0.8,0-1.1-0.1v-1.9c0.2,0,0.3,0.1,0.4,0.1h0.5
			c1,0,1.2-0.5,1.2-1.8v-14.8h2.2V240.3z M188.6,222.7h-2.2V220h2.2V222.7z"/>
		<path class="st17" d="M203.5,234.3c-0.6,3-2.7,4.6-5.7,4.6c-4.3,0-6.3-3-6.4-7.1c0-4.1,2.7-7,6.3-7c4.8,0,6.2,4.4,6.1,7.7h-10.1
			c-0.1,2.3,1.2,4.4,4.2,4.4c1.8,0,3.1-0.9,3.5-2.6H203.5z M201.4,230.5c-0.1-2.1-1.7-3.8-3.9-3.8c-2.3,0-3.7,1.7-3.8,3.8H201.4z"/>
		<path class="st17" d="M215.1,229.4c-0.3-1.7-1.5-2.7-3.3-2.7c-3.2,0-4.2,2.5-4.2,5.3c0,2.5,1.1,4.9,3.9,4.9c2.2,0,3.4-1.2,3.7-3.3
			h2.3c-0.5,3.3-2.5,5.2-5.9,5.2c-4.1,0-6.3-2.8-6.3-6.9s2.1-7.2,6.3-7.2c3.1,0,5.5,1.4,5.8,4.6H215.1z"/>
		<path class="st17" d="M223,225.1h2.7v2H223v8.3c0,1,0.3,1.2,1.7,1.2h1v2H224c-2.3,0-3.2-0.5-3.2-2.9v-8.6h-2.3v-2h2.3v-4h2.2
			V225.1z"/>
		<path class="st17" d="M235.5,220h2.2v18.6h-2.2V220z"/>
		<path class="st17" d="M252.6,234.3c-0.6,3-2.7,4.6-5.7,4.6c-4.3,0-6.3-3-6.4-7.1c0-4.1,2.7-7,6.3-7c4.8,0,6.2,4.4,6.1,7.7h-10.1
			c-0.1,2.3,1.2,4.4,4.2,4.4c1.8,0,3.1-0.9,3.5-2.6H252.6z M250.5,230.5c-0.1-2.1-1.7-3.8-3.9-3.8c-2.3,0-3.7,1.7-3.8,3.8H250.5z"/>
		<path class="st17" d="M267,238.5c-0.4,0.2-0.9,0.4-1.6,0.4c-1.1,0-1.9-0.6-1.9-2.1c-1.2,1.5-2.9,2.1-4.7,2.1
			c-2.4,0-4.4-1.1-4.4-3.8c0-3,2.3-3.7,4.6-4.1c2.4-0.5,4.5-0.3,4.5-2c0-2-1.6-2.2-3-2.2c-1.9,0-3.3,0.6-3.4,2.5h-2.2
			c0.1-3.3,2.7-4.5,5.7-4.5c2.4,0,5,0.5,5,3.7v6.9c0,1,0,1.5,0.7,1.5c0.2,0,0.4-0.1,0.7-0.1V238.5z M263.4,231.6
			c-1.7,1.3-6.7,0-6.7,3.3c0,1.5,1.2,2,2.6,2c2.9,0,4.1-1.8,4.1-3V231.6z"/>
		<path class="st17" d="M281.1,238.6h-2.2v-1.8h-0.1c-0.7,1.5-2.4,2.1-4.3,2.1c-4.1,0-6.2-3.3-6.2-7.1s2-7,6.1-7
			c1.4,0,3.4,0.5,4.3,2.1h0.1V220h2.2V238.6z M274.8,236.9c3,0,4.1-2.6,4.1-5.1c0-2.6-1.2-5.1-4.2-5.1c-3,0-4,2.6-4,5.2
			C270.7,234.5,272,236.9,274.8,236.9z"/>
		<path class="st17" d="M163.7,256.3h2.2v1.8h0.1c0.7-1.5,2.4-2.1,4.3-2.1c4.1,0,6.2,3.3,6.2,7.1c0,3.8-2,7-6.1,7
			c-1.4,0-3.4-0.5-4.3-2.1h-0.1v6.9h-2.2V256.3z M170,257.9c-3,0-4.1,2.6-4.1,5.1c0,2.6,1.2,5.1,4.2,5.1c3,0,4-2.6,4-5.2
			C174.1,260.4,172.8,257.9,170,257.9z"/>
		<path class="st17" d="M179,256.3h2.1v2.8h0.1c1.1-2.2,2.5-3.2,4.9-3.1v2.3c-3.6,0-4.9,2-4.9,5.4v6H179V256.3z"/>
		<path class="st17" d="M199.2,265.5c-0.6,3-2.7,4.6-5.7,4.6c-4.3,0-6.3-3-6.4-7.1c0-4.1,2.7-7,6.3-7c4.8,0,6.2,4.4,6.1,7.7h-10.1
			c-0.1,2.3,1.2,4.4,4.2,4.4c1.8,0,3.1-0.9,3.5-2.6H199.2z M197,261.7c-0.1-2.1-1.7-3.8-3.9-3.8c-2.3,0-3.7,1.7-3.8,3.8H197z"/>
		<path class="st17" d="M201.7,256.3h2.2v1.8h0.1c0.7-1.5,2.4-2.1,4.3-2.1c4.1,0,6.2,3.3,6.2,7.1c0,3.8-2,7-6.1,7
			c-1.4,0-3.4-0.5-4.3-2.1H204v6.9h-2.2V256.3z M208,257.9c-3,0-4.1,2.6-4.1,5.1c0,2.6,1.2,5.1,4.2,5.1c3,0,4-2.6,4-5.2
			C212.1,260.4,210.8,257.9,208,257.9z"/>
		<path class="st17" d="M229,269.7c-0.4,0.2-0.9,0.4-1.6,0.4c-1.1,0-1.9-0.6-1.9-2.1c-1.2,1.5-2.9,2.1-4.7,2.1
			c-2.4,0-4.4-1.1-4.4-3.8c0-3,2.3-3.7,4.6-4.1c2.4-0.5,4.5-0.3,4.5-2c0-2-1.6-2.2-3-2.2c-1.9,0-3.2,0.6-3.4,2.5h-2.2
			c0.1-3.3,2.7-4.5,5.7-4.5c2.4,0,5,0.5,5,3.7v6.9c0,1,0,1.5,0.7,1.5c0.2,0,0.4-0.1,0.7-0.1V269.7z M225.4,262.8
			c-1.7,1.3-6.7,0-6.7,3.3c0,1.5,1.2,2,2.6,2c2.9,0,4.1-1.8,4.1-3V262.8z"/>
		<path class="st17" d="M231,256.3h2.1v2.8h0.1c1.1-2.2,2.5-3.2,4.9-3.1v2.3c-3.6,0-4.9,2-4.9,5.4v6H231V256.3z"/>
		<path class="st17" d="M251.2,265.5c-0.6,3-2.7,4.6-5.7,4.6c-4.3,0-6.3-3-6.4-7.1c0-4.1,2.7-7,6.3-7c4.8,0,6.2,4.4,6.1,7.7h-10.1
			c-0.1,2.3,1.2,4.4,4.2,4.4c1.8,0,3.1-0.9,3.5-2.6H251.2z M249,261.7c-0.1-2.1-1.7-3.8-3.9-3.8c-2.3,0-3.7,1.7-3.8,3.8H249z"/>
		<path class="st17" d="M255,265.5c0.1,2,1.8,2.6,3.6,2.6c1.4,0,3.2-0.3,3.2-2c0-3.5-8.8-1.1-8.8-6.3c0-2.7,2.7-3.8,5-3.8
			c3,0,5.3,0.9,5.5,4.2h-2.2c-0.1-1.7-1.7-2.3-3.1-2.3c-1.3,0-2.9,0.4-2.9,1.7c0,1.6,2.3,1.9,4.4,2.3c2.2,0.5,4.4,1.2,4.4,3.8
			c0,3.2-3,4.2-5.7,4.2c-3,0-5.6-1.2-5.7-4.6H255z"/>
		<path class="st17" d="M174.4,282.4h8.1c3.7,0,5.7,2,5.7,5.5s-2,5.5-5.7,5.5h-5.7v7.6h-2.5V282.4z M176.8,291.3h4.8
			c2.8,0,4.1-1.2,4.1-3.4s-1.2-3.4-4.1-3.4h-4.8V291.3z"/>
		<path class="st17" d="M190.8,287.5h2.1v2.8h0.1c1.1-2.2,2.5-3.2,4.9-3.1v2.3c-3.6,0-4.9,2-4.9,5.4v6h-2.2V287.5z"/>
		<path class="st17" d="M205.3,287.2c4.3,0,6.5,3.1,6.5,7c0,3.9-2.3,7-6.5,7s-6.5-3.1-6.5-7C198.8,290.3,201,287.2,205.3,287.2z
			 M205.3,299.3c2.3,0,4.2-1.8,4.2-5.1c0-3.2-1.9-5.1-4.2-5.1s-4.2,1.8-4.2,5.1C201.1,297.5,203,299.3,205.3,299.3z"/>
		<path class="st17" d="M216.8,302.7c0,2.4-1.2,3.4-3.2,3.4c-0.4,0-0.8,0-1.1-0.1v-1.9c0.2,0,0.3,0.1,0.4,0.1h0.5
			c1,0,1.2-0.5,1.2-1.8v-14.8h2.2V302.7z M216.8,285.1h-2.2v-2.7h2.2V285.1z"/>
		<path class="st17" d="M231.7,296.7c-0.6,3-2.7,4.6-5.7,4.6c-4.3,0-6.3-3-6.4-7.1c0-4.1,2.7-7,6.3-7c4.8,0,6.2,4.4,6.1,7.7h-10.1
			c-0.1,2.3,1.2,4.4,4.2,4.4c1.8,0,3.1-0.9,3.5-2.6H231.7z M229.5,292.9c-0.1-2.1-1.7-3.8-3.9-3.8c-2.3,0-3.7,1.7-3.8,3.8H229.5z"/>
		<path class="st17" d="M243.3,291.8c-0.3-1.7-1.5-2.7-3.3-2.7c-3.2,0-4.2,2.5-4.2,5.3c0,2.5,1.1,4.9,3.9,4.9c2.2,0,3.4-1.2,3.7-3.3
			h2.3c-0.5,3.3-2.5,5.2-5.9,5.2c-4.1,0-6.3-2.8-6.3-6.9s2.1-7.2,6.3-7.2c3.1,0,5.5,1.4,5.8,4.6H243.3z"/>
		<path class="st17" d="M251.2,287.5h2.7v1.9h-2.7v8.3c0,1,0.3,1.2,1.7,1.2h1v2h-1.7c-2.3,0-3.2-0.5-3.2-2.9v-8.6h-2.3v-1.9h2.3v-4
			h2.2V287.5z"/>
		<path class="st17" d="M138.5,313.6h6.4c5.7,0,8.9,2.9,8.9,8.8c0,6.2-2.7,9.7-8.9,9.7h-6.4V313.6z M140.9,330.1h4.1
			c1.7,0,6.2-0.5,6.2-7.3c0-4.4-1.6-7.1-6.2-7.1h-4.2V330.1z"/>
		<path class="st17" d="M167.9,327.9c-0.6,3-2.7,4.6-5.7,4.6c-4.3,0-6.3-3-6.4-7.1c0-4.1,2.7-7,6.3-7c4.8,0,6.2,4.4,6.1,7.7H158
			c-0.1,2.3,1.2,4.4,4.2,4.4c1.8,0,3.1-0.9,3.5-2.6H167.9z M165.7,324.1c-0.1-2.1-1.7-3.8-3.9-3.8c-2.3,0-3.7,1.7-3.8,3.8H165.7z"/>
		<path class="st17" d="M176.4,332.2H174l-5-13.4h2.5l3.8,11.2h0.1l3.7-11.2h2.3L176.4,332.2z"/>
		<path class="st17" d="M194.8,327.9c-0.6,3-2.7,4.6-5.7,4.6c-4.3,0-6.3-3-6.4-7.1c0-4.1,2.7-7,6.3-7c4.8,0,6.2,4.4,6.1,7.7H185
			c-0.1,2.3,1.2,4.4,4.2,4.4c1.8,0,3.1-0.9,3.5-2.6H194.8z M192.7,324.1c-0.1-2.1-1.7-3.8-3.9-3.8c-2.3,0-3.7,1.7-3.8,3.8H192.7z"/>
		<path class="st17" d="M197.4,313.6h2.2v18.6h-2.2V313.6z"/>
		<path class="st17" d="M208.9,318.4c4.3,0,6.5,3.1,6.5,7c0,3.9-2.3,7-6.5,7s-6.5-3.1-6.5-7C202.4,321.5,204.6,318.4,208.9,318.4z
			 M208.9,330.5c2.3,0,4.2-1.8,4.2-5.1c0-3.3-1.9-5.1-4.2-5.1s-4.2,1.8-4.2,5.1C204.7,328.7,206.6,330.5,208.9,330.5z"/>
		<path class="st17" d="M218.1,318.7h2.2v1.8h0.1c0.7-1.5,2.4-2.1,4.3-2.1c4.1,0,6.2,3.3,6.2,7.1c0,3.8-2,7-6.1,7
			c-1.4,0-3.4-0.5-4.3-2.1h-0.1v6.9h-2.2V318.7z M224.3,320.3c-3,0-4.1,2.6-4.1,5.1c0,2.6,1.2,5.1,4.2,5.1c3,0,4-2.6,4-5.2
			C228.5,322.8,227.2,320.3,224.3,320.3z"/>
		<path class="st17" d="M233.4,318.7h2.1v2h0.1c1-1.5,2.4-2.3,4.3-2.3c1.7,0,3.1,0.6,3.7,2.3c0.9-1.5,2.5-2.3,4.2-2.3
			c2.7,0,4.5,1.1,4.5,3.9v9.9h-2.2v-8.8c0-1.7-0.4-3-2.6-3s-3.5,1.4-3.5,3.4v8.4h-2.2v-8.8c0-1.7-0.5-3-2.5-3
			c-2.6,0-3.6,2.4-3.6,3.4v8.4h-2.2V318.7z"/>
		<path class="st17" d="M267.1,327.9c-0.6,3-2.7,4.6-5.7,4.6c-4.3,0-6.3-3-6.4-7.1c0-4.1,2.7-7,6.3-7c4.8,0,6.2,4.4,6.1,7.7h-10.1
			c-0.1,2.3,1.2,4.4,4.2,4.4c1.8,0,3.1-0.9,3.5-2.6H267.1z M264.9,324.1c-0.1-2.1-1.7-3.8-3.9-3.8c-2.3,0-3.7,1.7-3.8,3.8H264.9z"/>
		<path class="st17" d="M269.6,318.7h2.1v2.1h0.1c0.9-1.7,2.4-2.4,4.4-2.4c3.5,0,4.6,2,4.6,4.9v8.8h-2.2v-9.1c0-1.7-1-2.7-2.7-2.7
			c-2.7,0-4,1.8-4,4.2v7.6h-2.2V318.7z"/>
		<path class="st17" d="M287.1,318.7h2.7v2h-2.7v8.3c0,1,0.3,1.2,1.7,1.2h1v2h-1.7c-2.3,0-3.2-0.5-3.2-2.9v-8.6h-2.3v-2h2.3v-4h2.2
			V318.7z"/>
		<path class="st17" d="M190.4,349.9h2.2v1.8h0.1c0.7-1.5,2.4-2.1,4.3-2.1c4.1,0,6.2,3.3,6.2,7.1c0,3.8-2,7-6.1,7
			c-1.4,0-3.4-0.5-4.3-2.1h-0.1v6.9h-2.2V349.9z M196.7,351.5c-3,0-4.1,2.6-4.1,5.1c0,2.6,1.2,5.1,4.2,5.1c3,0,4-2.6,4-5.2
			C200.8,354,199.5,351.5,196.7,351.5z"/>
		<path class="st17" d="M205.9,344.8h2.2v18.6h-2.2V344.8z"/>
		<path class="st17" d="M223.4,363.3c-0.4,0.2-0.9,0.4-1.6,0.4c-1.1,0-1.9-0.6-1.9-2.1c-1.2,1.5-2.9,2.1-4.7,2.1
			c-2.4,0-4.4-1.1-4.4-3.8c0-3,2.3-3.7,4.6-4.1c2.4-0.5,4.5-0.3,4.5-2c0-2-1.6-2.2-3-2.2c-1.9,0-3.3,0.6-3.4,2.5h-2.2
			c0.1-3.3,2.7-4.5,5.7-4.5c2.4,0,5,0.5,5,3.7v6.9c0,1,0,1.5,0.7,1.5c0.2,0,0.4-0.1,0.7-0.1V363.3z M219.9,356.4
			c-1.7,1.3-6.7,0-6.7,3.3c0,1.5,1.2,2,2.6,2c2.9,0,4.1-1.8,4.1-3V356.4z"/>
		<path class="st17" d="M225.5,349.9h2.1v2.1h0.1c0.9-1.7,2.4-2.4,4.4-2.4c3.5,0,4.6,2,4.6,4.9v8.8h-2.2v-9.1c0-1.7-1-2.7-2.7-2.7
			c-2.7,0-4,1.8-4,4.2v7.6h-2.2V349.9z"/>
	</g>
</g>
<g>
	<g>
		<path class="st17" d="M371.1,220h8.1c3.7,0,5.7,2,5.7,5.5c0,3.5-2,5.5-5.7,5.5h-5.7v7.6h-2.5V220z M373.6,228.9h4.8
			c2.8,0,4.1-1.2,4.1-3.4c0-2.2-1.2-3.4-4.1-3.4h-4.8V228.9z"/>
		<path class="st17" d="M387.5,225.1h2.1v2.8h0.1c1.1-2.2,2.5-3.2,4.9-3.1v2.3c-3.6,0-4.9,2-4.9,5.4v6h-2.2V225.1z"/>
		<path class="st17" d="M402.1,224.8c4.3,0,6.5,3.1,6.5,7c0,3.9-2.3,7-6.5,7s-6.5-3.1-6.5-7C395.5,227.9,397.8,224.8,402.1,224.8z
			 M402.1,236.9c2.3,0,4.2-1.8,4.2-5.1c0-3.3-1.9-5.1-4.2-5.1c-2.3,0-4.2,1.8-4.2,5.1C397.9,235.1,399.7,236.9,402.1,236.9z"/>
		<path class="st17" d="M413.5,240.3c0,2.4-1.2,3.4-3.2,3.4c-0.4,0-0.8,0-1.1-0.1v-1.9c0.2,0,0.3,0.1,0.4,0.1h0.5
			c1,0,1.2-0.5,1.2-1.8v-14.8h2.2V240.3z M413.5,222.7h-2.2V220h2.2V222.7z"/>
		<path class="st17" d="M428.4,234.3c-0.6,3-2.7,4.6-5.7,4.6c-4.3,0-6.3-3-6.4-7.1c0-4.1,2.7-7,6.3-7c4.8,0,6.2,4.4,6.1,7.7h-10.1
			c-0.1,2.3,1.2,4.4,4.2,4.4c1.8,0,3.1-0.9,3.5-2.6H428.4z M426.3,230.5c-0.1-2.1-1.7-3.8-3.9-3.8c-2.3,0-3.7,1.7-3.8,3.8H426.3z"/>
		<path class="st17" d="M440,229.4c-0.3-1.7-1.5-2.7-3.3-2.7c-3.2,0-4.2,2.5-4.2,5.3c0,2.5,1.1,4.9,3.9,4.9c2.2,0,3.4-1.2,3.7-3.3
			h2.3c-0.5,3.3-2.5,5.2-5.9,5.2c-4.1,0-6.3-2.8-6.3-6.9s2.1-7.2,6.3-7.2c3.1,0,5.5,1.4,5.8,4.6H440z"/>
		<path class="st17" d="M447.9,225.1h2.7v2h-2.7v8.3c0,1,0.3,1.2,1.7,1.2h1v2h-1.7c-2.3,0-3.2-0.5-3.2-2.9v-8.6h-2.3v-2h2.3v-4h2.2
			V225.1z"/>
		<path class="st17" d="M460.4,220h2.2v18.6h-2.2V220z"/>
		<path class="st17" d="M477.5,234.3c-0.6,3-2.7,4.6-5.7,4.6c-4.3,0-6.3-3-6.4-7.1c0-4.1,2.7-7,6.3-7c4.8,0,6.2,4.4,6.1,7.7h-10.1
			c-0.1,2.3,1.2,4.4,4.2,4.4c1.8,0,3.1-0.9,3.5-2.6H477.5z M475.4,230.5c-0.1-2.1-1.7-3.8-3.9-3.8c-2.3,0-3.7,1.7-3.8,3.8H475.4z"/>
		<path class="st17" d="M491.9,238.5c-0.4,0.2-0.9,0.4-1.6,0.4c-1.1,0-1.9-0.6-1.9-2.1c-1.2,1.5-2.9,2.1-4.7,2.1
			c-2.4,0-4.4-1.1-4.4-3.8c0-3,2.3-3.7,4.6-4.1c2.4-0.5,4.5-0.3,4.5-2c0-2-1.6-2.2-3-2.2c-1.9,0-3.3,0.6-3.4,2.5h-2.2
			c0.1-3.3,2.7-4.5,5.7-4.5c2.4,0,5,0.5,5,3.7v6.9c0,1,0,1.5,0.7,1.5c0.2,0,0.4-0.1,0.7-0.1V238.5z M488.3,231.6
			c-1.7,1.3-6.7,0-6.7,3.3c0,1.5,1.2,2,2.6,2c2.9,0,4.1-1.8,4.1-3V231.6z"/>
		<path class="st17" d="M506,238.6h-2.2v-1.8h-0.1c-0.7,1.5-2.4,2.1-4.3,2.1c-4.1,0-6.2-3.3-6.2-7.1s2-7,6.1-7
			c1.4,0,3.4,0.5,4.3,2.1h0.1V220h2.2V238.6z M499.8,236.9c3,0,4.1-2.6,4.1-5.1c0-2.6-1.2-5.1-4.2-5.1c-3,0-4,2.6-4,5.2
			C495.6,234.5,496.9,236.9,499.8,236.9z"/>
		<path class="st17" d="M388.6,256.3h2.2v1.8h0.1c0.7-1.5,2.4-2.1,4.3-2.1c4.1,0,6.2,3.3,6.2,7.1c0,3.8-2,7-6.1,7
			c-1.4,0-3.4-0.5-4.3-2.1h-0.1v6.9h-2.2V256.3z M394.9,257.9c-3,0-4.1,2.6-4.1,5.1c0,2.6,1.2,5.1,4.2,5.1c3,0,4-2.6,4-5.2
			C399,260.4,397.7,257.9,394.9,257.9z"/>
		<path class="st17" d="M403.9,256.3h2.1v2.8h0.1c1.1-2.2,2.5-3.2,4.9-3.1v2.3c-3.6,0-4.9,2-4.9,5.4v6h-2.2V256.3z"/>
		<path class="st17" d="M424.1,265.5c-0.6,3-2.7,4.6-5.7,4.6c-4.3,0-6.3-3-6.4-7.1c0-4.1,2.7-7,6.3-7c4.8,0,6.2,4.4,6.1,7.7h-10.1
			c-0.1,2.3,1.2,4.4,4.2,4.4c1.8,0,3.1-0.9,3.5-2.6H424.1z M422,261.7c-0.1-2.1-1.7-3.8-3.9-3.8c-2.3,0-3.7,1.7-3.8,3.8H422z"/>
		<path class="st17" d="M426.7,256.3h2.2v1.8h0.1c0.7-1.5,2.4-2.1,4.3-2.1c4.1,0,6.2,3.3,6.2,7.1c0,3.8-2,7-6.1,7
			c-1.4,0-3.4-0.5-4.3-2.1h-0.1v6.9h-2.2V256.3z M432.9,257.9c-3,0-4.1,2.6-4.1,5.1c0,2.6,1.2,5.1,4.2,5.1c3,0,4-2.6,4-5.2
			C437.1,260.4,435.8,257.9,432.9,257.9z"/>
		<path class="st17" d="M453.9,269.7c-0.4,0.2-0.9,0.4-1.6,0.4c-1.1,0-1.9-0.6-1.9-2.1c-1.2,1.5-2.9,2.1-4.7,2.1
			c-2.4,0-4.4-1.1-4.4-3.8c0-3,2.3-3.7,4.6-4.1c2.4-0.5,4.5-0.3,4.5-2c0-2-1.6-2.2-3-2.2c-1.9,0-3.2,0.6-3.4,2.5h-2.2
			c0.1-3.3,2.7-4.5,5.7-4.5c2.4,0,5,0.5,5,3.7v6.9c0,1,0,1.5,0.7,1.5c0.2,0,0.4-0.1,0.7-0.1V269.7z M450.3,262.8
			c-1.7,1.3-6.7,0-6.7,3.3c0,1.5,1.2,2,2.6,2c2.9,0,4.1-1.8,4.1-3V262.8z"/>
		<path class="st17" d="M455.9,256.3h2.1v2.8h0.1c1.1-2.2,2.5-3.2,4.9-3.1v2.3c-3.6,0-4.9,2-4.9,5.4v6h-2.2V256.3z"/>
		<path class="st17" d="M476.1,265.5c-0.6,3-2.7,4.6-5.7,4.6c-4.3,0-6.3-3-6.4-7.1c0-4.1,2.7-7,6.3-7c4.8,0,6.2,4.4,6.1,7.7h-10.1
			c-0.1,2.3,1.2,4.4,4.2,4.4c1.8,0,3.1-0.9,3.5-2.6H476.1z M474,261.7c-0.1-2.1-1.7-3.8-3.9-3.8c-2.3,0-3.7,1.7-3.8,3.8H474z"/>
		<path class="st17" d="M479.9,265.5c0.1,2,1.8,2.6,3.6,2.6c1.4,0,3.2-0.3,3.2-2c0-3.5-8.8-1.1-8.8-6.3c0-2.7,2.7-3.8,5-3.8
			c3,0,5.3,0.9,5.5,4.2h-2.2c-0.1-1.7-1.7-2.3-3.1-2.3c-1.3,0-2.9,0.4-2.9,1.7c0,1.6,2.3,1.9,4.4,2.3c2.2,0.5,4.4,1.2,4.4,3.8
			c0,3.2-3,4.2-5.7,4.2c-3,0-5.6-1.2-5.7-4.6H479.9z"/>
		<path class="st17" d="M394.2,282.4h8.7c3.5,0,5.6,1.9,5.6,4.9c0,2.3-1,4.1-3.2,4.7v0.1c2.2,0.4,2.6,2,2.8,3.8
			c0.1,1.8,0.1,3.9,1.1,5.1h-2.8c-0.7-0.8-0.3-2.8-0.7-4.6c-0.3-1.8-0.7-3.4-3.1-3.4h-6v7.9h-2.5V282.4z M401.8,290.9
			c2.3,0,4.3-0.6,4.3-3.3c0-1.8-1-3.2-3.3-3.2h-6.1v6.5H401.8z"/>
		<path class="st17" d="M423.1,296.7c-0.6,3-2.7,4.6-5.7,4.6c-4.3,0-6.3-3-6.4-7.1c0-4.1,2.7-7,6.3-7c4.8,0,6.2,4.4,6.1,7.7h-10.1
			c-0.1,2.3,1.2,4.4,4.2,4.4c1.8,0,3.1-0.9,3.5-2.6H423.1z M421,292.9c-0.1-2.1-1.7-3.8-3.9-3.8c-2.3,0-3.7,1.7-3.8,3.8H421z"/>
		<path class="st17" d="M425.8,282.4h2.2V301h-2.2V282.4z"/>
		<path class="st17" d="M442.9,296.7c-0.6,3-2.7,4.6-5.7,4.6c-4.3,0-6.3-3-6.4-7.1c0-4.1,2.7-7,6.3-7c4.8,0,6.2,4.4,6.1,7.7H433
			c-0.1,2.3,1.2,4.4,4.2,4.4c1.8,0,3.1-0.9,3.5-2.6H442.9z M440.7,292.9c-0.1-2.1-1.7-3.8-3.9-3.8c-2.3,0-3.7,1.7-3.8,3.8H440.7z"/>
		<path class="st17" d="M457.3,300.9c-0.4,0.2-0.9,0.4-1.6,0.4c-1.1,0-1.9-0.6-1.9-2.1c-1.2,1.5-2.9,2.1-4.7,2.1
			c-2.4,0-4.4-1.1-4.4-3.8c0-3,2.3-3.7,4.6-4.1c2.4-0.5,4.5-0.3,4.5-2c0-2-1.6-2.2-3-2.2c-1.9,0-3.3,0.6-3.4,2.5h-2.2
			c0.1-3.3,2.7-4.5,5.7-4.5c2.4,0,5,0.5,5,3.7v6.9c0,1,0,1.5,0.7,1.5c0.2,0,0.4-0.1,0.7-0.1V300.9z M453.7,294
			c-1.7,1.3-6.7,0-6.7,3.3c0,1.5,1.2,2,2.6,2c2.9,0,4.1-1.8,4.1-3V294z"/>
		<path class="st17" d="M460.7,296.7c0.1,2,1.8,2.6,3.6,2.6c1.4,0,3.2-0.3,3.2-2c0-3.5-8.8-1.1-8.8-6.3c0-2.7,2.7-3.8,5-3.8
			c3,0,5.3,0.9,5.5,4.2h-2.2c-0.1-1.7-1.7-2.3-3.1-2.3c-1.3,0-2.9,0.4-2.9,1.7c0,1.6,2.3,1.9,4.4,2.3c2.2,0.5,4.4,1.2,4.4,3.8
			c0,3.2-3,4.2-5.7,4.2c-3,0-5.6-1.2-5.7-4.6H460.7z"/>
		<path class="st17" d="M483.8,296.7c-0.6,3-2.7,4.6-5.7,4.6c-4.3,0-6.3-3-6.4-7.1c0-4.1,2.7-7,6.3-7c4.8,0,6.2,4.4,6.1,7.7h-10.1
			c-0.1,2.3,1.2,4.4,4.2,4.4c1.8,0,3.1-0.9,3.5-2.6H483.8z M481.7,292.9c-0.1-2.1-1.7-3.8-3.9-3.8c-2.3,0-3.7,1.7-3.8,3.8H481.7z"/>
		<path class="st17" d="M363.4,313.6h6.4c5.7,0,8.9,2.9,8.9,8.8c0,6.2-2.7,9.7-8.9,9.7h-6.4V313.6z M365.8,330.1h4.1
			c1.7,0,6.2-0.5,6.2-7.3c0-4.4-1.6-7.1-6.2-7.1h-4.2V330.1z"/>
		<path class="st17" d="M392.8,327.9c-0.6,3-2.7,4.6-5.7,4.6c-4.3,0-6.3-3-6.4-7.1c0-4.1,2.7-7,6.3-7c4.8,0,6.2,4.4,6.1,7.7h-10.1
			c-0.1,2.3,1.2,4.4,4.2,4.4c1.8,0,3.1-0.9,3.5-2.6H392.8z M390.7,324.1c-0.1-2.1-1.7-3.8-3.9-3.8c-2.3,0-3.7,1.7-3.8,3.8H390.7z"/>
		<path class="st17" d="M401.3,332.2H399l-5-13.4h2.5l3.8,11.2h0.1l3.7-11.2h2.3L401.3,332.2z"/>
		<path class="st17" d="M419.7,327.9c-0.6,3-2.7,4.6-5.7,4.6c-4.3,0-6.3-3-6.4-7.1c0-4.1,2.7-7,6.3-7c4.8,0,6.2,4.4,6.1,7.7h-10.1
			c-0.1,2.3,1.2,4.4,4.2,4.4c1.8,0,3.1-0.9,3.5-2.6H419.7z M417.6,324.1c-0.1-2.1-1.7-3.8-3.9-3.8c-2.3,0-3.7,1.7-3.8,3.8H417.6z"/>
		<path class="st17" d="M422.4,313.6h2.2v18.6h-2.2V313.6z"/>
		<path class="st17" d="M433.8,318.4c4.3,0,6.5,3.1,6.5,7c0,3.9-2.3,7-6.5,7s-6.5-3.1-6.5-7C427.3,321.5,429.5,318.4,433.8,318.4z
			 M433.8,330.5c2.3,0,4.2-1.8,4.2-5.1c0-3.3-1.9-5.1-4.2-5.1s-4.2,1.8-4.2,5.1C429.6,328.7,431.5,330.5,433.8,330.5z"/>
		<path class="st17" d="M443,318.7h2.2v1.8h0.1c0.7-1.5,2.4-2.1,4.3-2.1c4.1,0,6.2,3.3,6.2,7.1c0,3.8-2,7-6.1,7
			c-1.4,0-3.4-0.5-4.3-2.1h-0.1v6.9H443V318.7z M449.3,320.3c-3,0-4.1,2.6-4.1,5.1c0,2.6,1.2,5.1,4.2,5.1c3,0,4-2.6,4-5.2
			C453.4,322.8,452.1,320.3,449.3,320.3z"/>
		<path class="st17" d="M458.4,318.7h2.1v2h0.1c1-1.5,2.4-2.3,4.3-2.3c1.7,0,3.1,0.6,3.7,2.3c0.9-1.5,2.5-2.3,4.2-2.3
			c2.7,0,4.5,1.1,4.5,3.9v9.9H475v-8.8c0-1.7-0.4-3-2.6-3s-3.5,1.4-3.5,3.4v8.4h-2.2v-8.8c0-1.7-0.5-3-2.5-3c-2.6,0-3.6,2.4-3.6,3.4
			v8.4h-2.2V318.7z"/>
		<path class="st17" d="M492,327.9c-0.6,3-2.7,4.6-5.7,4.6c-4.3,0-6.3-3-6.4-7.1c0-4.1,2.7-7,6.3-7c4.8,0,6.2,4.4,6.1,7.7h-10.1
			c-0.1,2.3,1.2,4.4,4.2,4.4c1.8,0,3.1-0.9,3.5-2.6H492z M489.9,324.1c-0.1-2.1-1.7-3.8-3.9-3.8c-2.3,0-3.7,1.7-3.8,3.8H489.9z"/>
		<path class="st17" d="M494.5,318.7h2.1v2.1h0.1c0.9-1.7,2.4-2.4,4.4-2.4c3.5,0,4.6,2,4.6,4.9v8.8h-2.2v-9.1c0-1.7-1-2.7-2.7-2.7
			c-2.7,0-4,1.8-4,4.2v7.6h-2.2V318.7z"/>
		<path class="st17" d="M512,318.7h2.7v2H512v8.3c0,1,0.3,1.2,1.7,1.2h1v2H513c-2.3,0-3.2-0.5-3.2-2.9v-8.6h-2.3v-2h2.3v-4h2.2
			V318.7z"/>
		<path class="st17" d="M414.9,344.8h8.1c3.7,0,5.7,2,5.7,5.5c0,3.5-2,5.5-5.7,5.5h-5.7v7.6h-2.5V344.8z M417.4,353.7h4.8
			c2.8,0,4.1-1.2,4.1-3.4c0-2.2-1.2-3.4-4.1-3.4h-4.8V353.7z"/>
		<path class="st17" d="M431.5,344.8h2.2v18.6h-2.2V344.8z"/>
		<path class="st17" d="M449.1,363.3c-0.4,0.2-0.9,0.4-1.6,0.4c-1.1,0-1.9-0.6-1.9-2.1c-1.2,1.5-2.9,2.1-4.7,2.1
			c-2.4,0-4.4-1.1-4.4-3.8c0-3,2.3-3.7,4.6-4.1c2.4-0.5,4.5-0.3,4.5-2c0-2-1.6-2.2-3-2.2c-1.9,0-3.3,0.6-3.4,2.5H437
			c0.1-3.3,2.7-4.5,5.7-4.5c2.4,0,5,0.5,5,3.7v6.9c0,1,0,1.5,0.7,1.5c0.2,0,0.4-0.1,0.7-0.1V363.3z M445.5,356.4
			c-1.7,1.3-6.7,0-6.7,3.3c0,1.5,1.2,2,2.6,2c2.9,0,4.1-1.8,4.1-3V356.4z"/>
		<path class="st17" d="M451.1,349.9h2.1v2.1h0.1c0.9-1.7,2.4-2.4,4.4-2.4c3.5,0,4.6,2,4.6,4.9v8.8h-2.2v-9.1c0-1.7-1-2.7-2.7-2.7
			c-2.7,0-4,1.8-4,4.2v7.6h-2.2V349.9z"/>
	</g>
</g>
<g>
	<g>
		<path class="st4" d="M164.4,508.7h8.1c3.7,0,5.7,2,5.7,5.5c0,3.5-2,5.5-5.7,5.5h-5.7v7.6h-2.5V508.7z M166.8,517.5h4.8
			c2.8,0,4.1-1.2,4.1-3.4c0-2.2-1.2-3.4-4.1-3.4h-4.8V517.5z"/>
		<path class="st4" d="M181,508.7h2.2v18.6H181V508.7z"/>
		<path class="st4" d="M198.5,527.2c-0.4,0.2-0.9,0.4-1.6,0.4c-1.1,0-1.9-0.6-1.9-2.1c-1.2,1.5-2.9,2.1-4.7,2.1
			c-2.4,0-4.4-1.1-4.4-3.8c0-3,2.3-3.7,4.6-4.1c2.4-0.5,4.5-0.3,4.5-2c0-2-1.6-2.2-3-2.2c-1.9,0-3.2,0.6-3.4,2.5h-2.2
			c0.1-3.3,2.7-4.5,5.7-4.5c2.4,0,5,0.5,5,3.7v6.9c0,1,0,1.5,0.7,1.5c0.2,0,0.4-0.1,0.7-0.1V527.2z M194.9,520.3
			c-1.7,1.3-6.7,0-6.7,3.3c0,1.5,1.2,2,2.6,2c2.9,0,4.1-1.8,4.1-3V520.3z"/>
		<path class="st4" d="M200.6,513.8h2.1v2.1h0.1c0.9-1.7,2.4-2.4,4.4-2.4c3.5,0,4.6,2,4.6,4.9v8.8h-2.2v-9.1c0-1.7-1-2.7-2.7-2.7
			c-2.7,0-4,1.8-4,4.2v7.6h-2.2V513.8z"/>
		<path class="st4" d="M215,513.8h2.1v2.1h0.1c0.9-1.7,2.4-2.4,4.4-2.4c3.5,0,4.6,2,4.6,4.9v8.8H224v-9.1c0-1.7-1-2.7-2.7-2.7
			c-2.7,0-4,1.8-4,4.2v7.6H215V513.8z"/>
		<path class="st4" d="M231.8,511.4h-2.2v-2.7h2.2V511.4z M229.6,513.8h2.2v13.4h-2.2V513.8z"/>
		<path class="st4" d="M235.3,513.8h2.1v2.1h0.1c0.9-1.7,2.4-2.4,4.4-2.4c3.5,0,4.6,2,4.6,4.9v8.8h-2.2v-9.1c0-1.7-1-2.7-2.7-2.7
			c-2.7,0-4,1.8-4,4.2v7.6h-2.2V513.8z"/>
		<path class="st4" d="M261.3,526.1c0,4.4-2,6.6-6.2,6.6c-2.5,0-5.4-1-5.6-4h2.2c0.1,1.6,2.1,2.2,3.5,2.2c2.9,0,4-2.1,4-5.1v-0.9
			h-0.1c-0.8,1.6-2.5,2.4-4.2,2.4c-4,0-6-3.1-6-6.8c0-3.2,1.5-7.1,6.2-7.1c1.7,0,3.2,0.8,4,2.2h0v-1.9h2.1V526.1z M259.1,520.2
			c0-2.4-1-4.8-3.8-4.8c-2.8,0-4,2.3-4,4.9c0,2.4,0.9,5.1,3.8,5.1S259.1,522.7,259.1,520.2z"/>
		<path class="st4" d="M163.7,545.4c-0.5-2.6-2.6-4-5.2-4c-4.4,0-6.3,3.6-6.3,7.5c0,4.2,1.9,7.8,6.3,7.8c3.2,0,5.1-2.3,5.4-5.4h2.5
			c-0.5,4.7-3.3,7.4-8,7.4c-5.7,0-8.6-4.3-8.6-9.7s3.1-9.8,8.8-9.8c3.9,0,7.1,2.1,7.6,6H163.7z"/>
		<path class="st4" d="M174.8,544.7c4.3,0,6.5,3.1,6.5,7c0,3.9-2.3,7-6.5,7c-4.3,0-6.5-3.1-6.5-7
			C168.3,547.8,170.6,544.7,174.8,544.7z M174.8,556.8c2.3,0,4.2-1.8,4.2-5.1s-1.9-5.1-4.2-5.1s-4.2,1.8-4.2,5.1
			S172.5,556.8,174.8,556.8z"/>
		<path class="st4" d="M184,545h2.1v2h0.1c1-1.5,2.4-2.3,4.3-2.3c1.7,0,3.1,0.6,3.7,2.3c0.9-1.5,2.5-2.3,4.2-2.3
			c2.7,0,4.5,1.1,4.5,3.9v9.9h-2.2v-8.8c0-1.7-0.4-3-2.6-3s-3.5,1.4-3.5,3.4v8.4h-2.2v-8.8c0-1.7-0.5-3-2.5-3
			c-2.6,0-3.6,2.4-3.6,3.4v8.4H184V545z"/>
		<path class="st4" d="M206.1,545h2.1v2h0.1c1-1.5,2.4-2.3,4.3-2.3c1.7,0,3.1,0.6,3.7,2.3c0.9-1.5,2.5-2.3,4.2-2.3
			c2.7,0,4.5,1.1,4.5,3.9v9.9h-2.2v-8.8c0-1.7-0.4-3-2.6-3s-3.5,1.4-3.5,3.4v8.4h-2.2v-8.8c0-1.7-0.5-3-2.5-3
			c-2.6,0-3.6,2.4-3.6,3.4v8.4h-2.2V545z"/>
		<path class="st4" d="M230.6,542.6h-2.2v-2.7h2.2V542.6z M228.4,545h2.2v13.4h-2.2V545z"/>
		<path class="st4" d="M237.1,545h2.7v2h-2.7v8.3c0,1,0.3,1.2,1.7,1.2h1v2h-1.7c-2.3,0-3.2-0.5-3.2-2.9v-8.6h-2.3v-2h2.3v-4h2.2V545
			z"/>
		<path class="st4" d="M245.3,545h2.7v2h-2.7v8.3c0,1,0.3,1.2,1.7,1.2h1v2h-1.7c-2.3,0-3.2-0.5-3.2-2.9v-8.6h-2.3v-2h2.3v-4h2.2V545
			z"/>
		<path class="st4" d="M261.9,554.2c-0.6,3-2.7,4.6-5.7,4.6c-4.3,0-6.3-3-6.4-7.1c0-4.1,2.7-7,6.3-7c4.8,0,6.2,4.4,6.1,7.7h-10.1
			c-0.1,2.3,1.2,4.4,4.2,4.4c1.8,0,3.1-0.9,3.5-2.6H261.9z M259.8,550.4c-0.1-2.1-1.7-3.8-3.9-3.8c-2.3,0-3.7,1.7-3.8,3.8H259.8z"/>
		<path class="st4" d="M275.9,554.2c-0.6,3-2.7,4.6-5.7,4.6c-4.3,0-6.3-3-6.4-7.1c0-4.1,2.7-7,6.3-7c4.8,0,6.2,4.4,6.1,7.7H266
			c-0.1,2.3,1.2,4.4,4.2,4.4c1.8,0,3.1-0.9,3.5-2.6H275.9z M273.8,550.4c-0.1-2.1-1.7-3.8-3.9-3.8c-2.3,0-3.7,1.7-3.8,3.8H273.8z"/>
		<path class="st4" d="M172.6,571.1h8.7c3.5,0,5.6,1.9,5.6,4.9c0,2.3-1,4.1-3.2,4.7v0.1c2.2,0.4,2.6,2,2.8,3.8
			c0.1,1.8,0.1,3.9,1.1,5.1h-2.8c-0.7-0.8-0.3-2.8-0.7-4.6c-0.3-1.8-0.7-3.4-3.1-3.4h-6v7.9h-2.5V571.1z M180.2,579.6
			c2.3,0,4.3-0.6,4.3-3.3c0-1.8-1-3.2-3.3-3.2H175v6.5H180.2z"/>
		<path class="st4" d="M201.5,585.4c-0.6,3-2.7,4.6-5.7,4.6c-4.3,0-6.3-3-6.4-7.1c0-4.1,2.7-7,6.3-7c4.8,0,6.2,4.4,6.1,7.7h-10.1
			c-0.1,2.3,1.2,4.4,4.2,4.4c1.8,0,3.1-0.9,3.5-2.6H201.5z M199.4,581.6c-0.1-2.1-1.7-3.8-3.9-3.8c-2.3,0-3.7,1.7-3.8,3.8H199.4z"/>
		<path class="st4" d="M210,589.6h-2.4l-5-13.4h2.5l3.8,11.2h0.1l3.7-11.2h2.3L210,589.6z"/>
		<path class="st4" d="M219.3,573.8h-2.2v-2.7h2.2V573.8z M217.1,576.2h2.2v13.4h-2.2V576.2z"/>
		<path class="st4" d="M234.2,585.4c-0.6,3-2.7,4.6-5.7,4.6c-4.3,0-6.3-3-6.4-7.1c0-4.1,2.7-7,6.3-7c4.8,0,6.2,4.4,6.1,7.7h-10.1
			c-0.1,2.3,1.2,4.4,4.2,4.4c1.8,0,3.1-0.9,3.5-2.6H234.2z M232.1,581.6c-0.1-2.1-1.7-3.8-3.9-3.8c-2.3,0-3.7,1.7-3.8,3.8H232.1z"/>
		<path class="st4" d="M250,589.6h-2.3l-2.7-10.7h-0.1l-2.7,10.7h-2.4l-4.3-13.4h2.4l3,11h0.1l2.7-11h2.4l2.8,11h0.1l3-11h2.3
			L250,589.6z"/>
	</g>
</g>
<g>
	<g>
		<path class="st4" d="M599.5,509.7h8.7c3.5,0,5.6,1.9,5.6,4.9c0,2.3-1,4.1-3.2,4.7v0.1c2.2,0.4,2.6,2,2.8,3.8
			c0.1,1.8,0.1,3.9,1.1,5.1h-2.8c-0.7-0.8-0.3-2.8-0.7-4.6c-0.3-1.8-0.7-3.4-3.1-3.4h-6v7.9h-2.5V509.7z M607.1,518.2
			c2.3,0,4.3-0.6,4.3-3.3c0-1.8-1-3.2-3.3-3.2h-6.1v6.5H607.1z"/>
		<path class="st4" d="M628.4,524c-0.6,3-2.7,4.6-5.7,4.6c-4.3,0-6.3-3-6.4-7.1c0-4.1,2.7-7,6.3-7c4.8,0,6.2,4.4,6.1,7.7h-10.1
			c-0.1,2.3,1.2,4.4,4.2,4.4c1.8,0,3.1-0.9,3.5-2.6H628.4z M626.3,520.2c-0.1-2.1-1.7-3.8-3.9-3.8c-2.3,0-3.7,1.7-3.8,3.8H626.3z"/>
		<path class="st4" d="M642.9,533.4h-2.2v-7h-0.1c-0.7,1.5-2.4,2.1-4.3,2.1c-4.1,0-6.2-3.3-6.2-7.1c0-3.8,2-7,6.1-7
			c1.4,0,3.4,0.5,4.3,2.1h0.1v-1.8h2.2V533.4z M636.6,526.6c3,0,4.1-2.6,4.1-5.1c0-2.6-1.2-5.1-4.2-5.1c-3,0-4,2.6-4,5.2
			C632.5,524.1,633.8,526.6,636.6,526.6z"/>
		<path class="st4" d="M657.4,528.2h-2.1v-2.1h-0.1c-0.9,1.7-2.4,2.4-4.4,2.4c-3.5,0-4.6-2-4.6-4.9v-8.8h2.2v9.1
			c0,1.7,1,2.7,2.7,2.7c2.7,0,4-1.8,4-4.2v-7.6h2.2V528.2z"/>
		<path class="st4" d="M663.1,512.4h-2.2v-2.7h2.2V512.4z M660.9,514.8h2.2v13.4h-2.2V514.8z"/>
		<path class="st4" d="M666.4,514.8h2.1v2.8h0.1c1.1-2.2,2.5-3.2,4.9-3.1v2.3c-3.6,0-4.9,2-4.9,5.4v6h-2.2V514.8z"/>
		<path class="st4" d="M686.6,524c-0.6,3-2.7,4.6-5.7,4.6c-4.3,0-6.3-3-6.4-7.1c0-4.1,2.7-7,6.3-7c4.8,0,6.2,4.4,6.1,7.7h-10.1
			c-0.1,2.3,1.2,4.4,4.2,4.4c1.8,0,3.1-0.9,3.5-2.6H686.6z M684.5,520.2c-0.1-2.1-1.7-3.8-3.9-3.8c-2.3,0-3.7,1.7-3.8,3.8H684.5z"/>
		<path class="st4" d="M689.1,514.8h2.1v2h0.1c1-1.5,2.4-2.3,4.3-2.3c1.7,0,3.1,0.6,3.7,2.3c0.9-1.5,2.5-2.3,4.2-2.3
			c2.7,0,4.5,1.1,4.5,3.9v9.9h-2.2v-8.8c0-1.7-0.4-3-2.6-3s-3.5,1.4-3.5,3.4v8.4h-2.2v-8.8c0-1.7-0.5-3-2.5-3
			c-2.6,0-3.6,2.4-3.6,3.4v8.4h-2.2V514.8z"/>
		<path class="st4" d="M722.8,524c-0.6,3-2.7,4.6-5.7,4.6c-4.3,0-6.3-3-6.4-7.1c0-4.1,2.7-7,6.3-7c4.8,0,6.2,4.4,6.1,7.7h-10.1
			c-0.1,2.3,1.2,4.4,4.2,4.4c1.8,0,3.1-0.9,3.5-2.6H722.8z M720.7,520.2c-0.1-2.1-1.7-3.8-3.9-3.8c-2.3,0-3.7,1.7-3.8,3.8H720.7z"/>
		<path class="st4" d="M725.3,514.8h2.1v2.1h0.1c0.9-1.7,2.4-2.4,4.4-2.4c3.5,0,4.6,2,4.6,4.9v8.8h-2.2v-9.1c0-1.7-1-2.7-2.7-2.7
			c-2.7,0-4,1.8-4,4.2v7.6h-2.2V514.8z"/>
		<path class="st4" d="M742.8,514.8h2.7v2h-2.7v8.3c0,1,0.3,1.2,1.7,1.2h1v2h-1.7c-2.3,0-3.2-0.5-3.2-2.9v-8.6h-2.3v-2h2.3v-4h2.2
			V514.8z"/>
		<path class="st4" d="M749.3,524c0.1,2,1.8,2.6,3.6,2.6c1.4,0,3.2-0.3,3.2-2c0-3.5-8.8-1.1-8.8-6.3c0-2.7,2.7-3.8,5-3.8
			c3,0,5.3,0.9,5.5,4.2h-2.2c-0.1-1.7-1.7-2.3-3.1-2.3c-1.3,0-2.9,0.4-2.9,1.7c0,1.6,2.3,1.9,4.4,2.3c2.2,0.5,4.4,1.2,4.4,3.8
			c0,3.2-3,4.2-5.7,4.2c-3,0-5.6-1.2-5.7-4.5H749.3z"/>
		<path class="st4" d="M629.4,546.4c-0.5-2.6-2.6-4-5.2-4c-4.4,0-6.3,3.6-6.3,7.5c0,4.2,1.9,7.8,6.3,7.8c3.2,0,5.1-2.3,5.4-5.4h2.5
			c-0.5,4.7-3.3,7.4-8,7.4c-5.7,0-8.6-4.3-8.6-9.7s3.1-9.8,8.8-9.8c3.9,0,7.1,2.1,7.6,6H629.4z"/>
		<path class="st4" d="M640.5,545.7c4.3,0,6.5,3.1,6.5,7c0,3.9-2.3,7-6.5,7s-6.5-3.1-6.5-7C634,548.8,636.3,545.7,640.5,545.7z
			 M640.5,557.8c2.3,0,4.2-1.8,4.2-5.1s-1.9-5.1-4.2-5.1c-2.3,0-4.2,1.8-4.2,5.1S638.2,557.8,640.5,557.8z"/>
		<path class="st4" d="M649.6,546h2.1v2h0.1c1-1.5,2.4-2.3,4.3-2.3c1.7,0,3.1,0.6,3.7,2.3c0.9-1.5,2.5-2.3,4.2-2.3
			c2.7,0,4.5,1.1,4.5,3.9v9.9h-2.2v-8.8c0-1.7-0.4-3-2.6-3s-3.5,1.4-3.5,3.4v8.4H658v-8.8c0-1.7-0.5-3-2.5-3c-2.6,0-3.6,2.4-3.6,3.4
			v8.4h-2.2V546z"/>
		<path class="st4" d="M671.8,546h2.1v2h0.1c1-1.5,2.4-2.3,4.3-2.3c1.7,0,3.1,0.6,3.7,2.3c0.9-1.5,2.5-2.3,4.2-2.3
			c2.7,0,4.5,1.1,4.5,3.9v9.9h-2.2v-8.8c0-1.7-0.4-3-2.6-3s-3.5,1.4-3.5,3.4v8.4h-2.2v-8.8c0-1.7-0.5-3-2.5-3
			c-2.6,0-3.6,2.4-3.6,3.4v8.4h-2.2V546z"/>
		<path class="st4" d="M696.3,543.6h-2.2v-2.7h2.2V543.6z M694.1,546h2.2v13.4h-2.2V546z"/>
		<path class="st4" d="M702.8,546h2.7v2h-2.7v8.3c0,1,0.3,1.2,1.7,1.2h1v2h-1.7c-2.3,0-3.2-0.5-3.2-2.9v-8.6h-2.3v-2h2.3v-4h2.2V546
			z"/>
		<path class="st4" d="M711,546h2.7v2H711v8.3c0,1,0.3,1.2,1.7,1.2h1v2H712c-2.3,0-3.2-0.5-3.2-2.9v-8.6h-2.3v-2h2.3v-4h2.2V546z"/>
		<path class="st4" d="M727.6,555.2c-0.6,3-2.7,4.6-5.7,4.6c-4.3,0-6.3-3-6.4-7.1c0-4.1,2.7-7,6.3-7c4.8,0,6.2,4.4,6.1,7.7h-10.1
			c-0.1,2.3,1.2,4.4,4.2,4.4c1.8,0,3.1-0.9,3.5-2.6H727.6z M725.5,551.4c-0.1-2.1-1.7-3.8-3.9-3.8c-2.3,0-3.7,1.7-3.8,3.8H725.5z"/>
		<path class="st4" d="M741.6,555.2c-0.6,3-2.7,4.6-5.7,4.6c-4.3,0-6.3-3-6.4-7.1c0-4.1,2.7-7,6.3-7c4.8,0,6.2,4.4,6.1,7.7h-10.1
			c-0.1,2.3,1.2,4.4,4.2,4.4c1.8,0,3.1-0.9,3.5-2.6H741.6z M739.5,551.4c-0.1-2.1-1.7-3.8-3.9-3.8c-2.3,0-3.7,1.7-3.8,3.8H739.5z"/>
		<path class="st4" d="M638.3,572.1h8.7c3.5,0,5.6,1.9,5.6,4.9c0,2.3-1,4.1-3.2,4.7v0.1c2.2,0.4,2.6,2,2.8,3.8
			c0.1,1.8,0.1,3.9,1.1,5.1h-2.8c-0.7-0.8-0.3-2.8-0.7-4.6c-0.3-1.8-0.7-3.4-3.1-3.4h-6v7.9h-2.5V572.1z M645.9,580.6
			c2.3,0,4.3-0.6,4.3-3.3c0-1.8-1-3.2-3.3-3.2h-6.1v6.5H645.9z"/>
		<path class="st4" d="M667.2,586.4c-0.6,3-2.7,4.6-5.7,4.6c-4.3,0-6.3-3-6.4-7.1c0-4.1,2.7-7,6.3-7c4.8,0,6.2,4.4,6.1,7.7h-10.1
			c-0.1,2.3,1.2,4.4,4.2,4.4c1.8,0,3.1-0.9,3.5-2.6H667.2z M665.1,582.6c-0.1-2.1-1.7-3.8-3.9-3.8c-2.3,0-3.7,1.7-3.8,3.8H665.1z"/>
		<path class="st4" d="M675.7,590.6h-2.4l-5-13.4h2.5l3.8,11.2h0.1l3.7-11.2h2.3L675.7,590.6z"/>
		<path class="st4" d="M685,574.8h-2.2v-2.7h2.2V574.8z M682.8,577.2h2.2v13.4h-2.2V577.2z"/>
		<path class="st4" d="M699.9,586.4c-0.6,3-2.7,4.6-5.7,4.6c-4.3,0-6.3-3-6.4-7.1c0-4.1,2.7-7,6.3-7c4.8,0,6.2,4.4,6.1,7.7h-10.1
			c-0.1,2.3,1.2,4.4,4.2,4.4c1.8,0,3.1-0.9,3.5-2.6H699.9z M697.8,582.6c-0.1-2.1-1.7-3.8-3.9-3.8c-2.3,0-3.7,1.7-3.8,3.8H697.8z"/>
		<path class="st4" d="M715.7,590.6h-2.3l-2.7-10.7h-0.1l-2.7,10.7h-2.4l-4.3-13.4h2.4l3,11h0.1l2.7-11h2.4l2.8,11h0.1l3-11h2.3
			L715.7,590.6z"/>
	</g>
</g>
<g>
	<g>
		<path class="st17" d="M332.7,858.7h8.7c3.5,0,5.6,1.9,5.6,4.9c0,2.3-1,4.1-3.2,4.7v0.1c2.2,0.4,2.6,2,2.8,3.8
			c0.1,1.8,0.1,3.9,1.1,5.1H345c-0.7-0.8-0.3-2.8-0.7-4.6c-0.3-1.8-0.7-3.4-3.1-3.4h-6v7.9h-2.5V858.7z M340.3,867.2
			c2.3,0,4.3-0.6,4.3-3.3c0-1.8-1-3.2-3.3-3.2h-6.1v6.5H340.3z"/>
		<path class="st17" d="M361.6,873c-0.6,3-2.7,4.6-5.7,4.6c-4.3,0-6.3-3-6.4-7.1c0-4.1,2.7-7,6.3-7c4.8,0,6.2,4.4,6.1,7.7h-10.1
			c-0.1,2.3,1.2,4.4,4.2,4.4c1.8,0,3.1-0.9,3.5-2.6H361.6z M359.5,869.2c-0.1-2.1-1.7-3.8-3.9-3.8c-2.3,0-3.7,1.7-3.8,3.8H359.5z"/>
		<path class="st17" d="M364.2,858.7h2.2v18.6h-2.2V858.7z"/>
		<path class="st17" d="M381.4,873c-0.6,3-2.7,4.6-5.7,4.6c-4.3,0-6.3-3-6.4-7.1c0-4.1,2.7-7,6.3-7c4.8,0,6.2,4.4,6.1,7.7h-10.1
			c-0.1,2.3,1.2,4.4,4.2,4.4c1.8,0,3.1-0.9,3.5-2.6H381.4z M379.2,869.2c-0.1-2.1-1.7-3.8-3.9-3.8c-2.3,0-3.7,1.7-3.8,3.8H379.2z"/>
		<path class="st17" d="M395.8,877.2c-0.4,0.2-0.9,0.4-1.6,0.4c-1.1,0-1.9-0.6-1.9-2.1c-1.2,1.5-2.9,2.1-4.7,2.1
			c-2.4,0-4.4-1.1-4.4-3.8c0-3,2.3-3.7,4.6-4.1c2.4-0.5,4.5-0.3,4.5-2c0-2-1.6-2.2-3-2.2c-1.9,0-3.3,0.6-3.4,2.5h-2.2
			c0.1-3.3,2.7-4.5,5.7-4.5c2.4,0,5,0.5,5,3.7v6.9c0,1,0,1.5,0.7,1.5c0.2,0,0.4-0.1,0.7-0.1V877.2z M392.2,870.3
			c-1.7,1.3-6.7,0-6.7,3.3c0,1.5,1.2,2,2.6,2c2.9,0,4.1-1.8,4.1-3V870.3z"/>
		<path class="st17" d="M399.2,873c0.1,2,1.8,2.6,3.6,2.6c1.4,0,3.2-0.3,3.2-2c0-3.5-8.8-1.1-8.8-6.3c0-2.7,2.7-3.8,5-3.8
			c3,0,5.3,0.9,5.5,4.2h-2.2c-0.1-1.7-1.7-2.3-3.1-2.3c-1.3,0-2.9,0.4-2.9,1.7c0,1.6,2.3,1.9,4.4,2.3c2.2,0.5,4.4,1.2,4.4,3.8
			c0,3.2-3,4.2-5.7,4.2c-3,0-5.6-1.2-5.7-4.5H399.2z"/>
		<path class="st17" d="M422.3,873c-0.6,3-2.7,4.6-5.7,4.6c-4.3,0-6.3-3-6.4-7.1c0-4.1,2.7-7,6.3-7c4.8,0,6.2,4.4,6.1,7.7h-10.1
			c-0.1,2.3,1.2,4.4,4.2,4.4c1.8,0,3.1-0.9,3.5-2.6H422.3z M420.1,869.2c-0.1-2.1-1.7-3.8-3.9-3.8c-2.3,0-3.7,1.7-3.8,3.8H420.1z"/>
		<path class="st17" d="M318.2,889.9h8.7c3.5,0,5.6,1.9,5.6,4.9c0,2.3-1,4.1-3.2,4.7v0.1c2.2,0.4,2.6,2,2.8,3.8
			c0.1,1.8,0.1,3.9,1.1,5.1h-2.8c-0.7-0.8-0.3-2.8-0.7-4.6c-0.3-1.8-0.7-3.4-3.1-3.4h-6v7.9h-2.5V889.9z M325.9,898.4
			c2.3,0,4.3-0.6,4.3-3.3c0-1.8-1-3.2-3.3-3.2h-6.1v6.5H325.9z"/>
		<path class="st17" d="M347.2,904.2c-0.6,3-2.7,4.6-5.7,4.6c-4.3,0-6.3-3-6.4-7.1c0-4.1,2.7-7,6.3-7c4.8,0,6.2,4.4,6.1,7.7h-10.1
			c-0.1,2.3,1.2,4.4,4.2,4.4c1.8,0,3.1-0.9,3.5-2.6H347.2z M345,900.4c-0.1-2.1-1.7-3.8-3.9-3.8c-2.3,0-3.7,1.7-3.8,3.8H345z"/>
		<path class="st17" d="M361.6,908.4c-0.4,0.2-0.9,0.4-1.6,0.4c-1.1,0-1.9-0.6-1.9-2.1c-1.2,1.5-2.9,2.1-4.7,2.1
			c-2.4,0-4.4-1.1-4.4-3.8c0-3,2.3-3.7,4.6-4.1c2.4-0.5,4.5-0.3,4.5-2c0-2-1.6-2.2-3-2.2c-1.9,0-3.3,0.6-3.4,2.5h-2.2
			c0.1-3.3,2.7-4.5,5.7-4.5c2.4,0,5,0.5,5,3.7v6.9c0,1,0,1.5,0.7,1.5c0.2,0,0.4-0.1,0.7-0.1V908.4z M358,901.5
			c-1.7,1.3-6.7,0-6.7,3.3c0,1.5,1.2,2,2.6,2c2.9,0,4.1-1.8,4.1-3V901.5z"/>
		<path class="st17" d="M375.6,908.4h-2.2v-1.8h-0.1c-0.7,1.5-2.4,2.1-4.3,2.1c-4.1,0-6.2-3.3-6.2-7.1s2-7,6.1-7
			c1.4,0,3.4,0.5,4.3,2.1h0.1v-6.9h2.2V908.4z M369.4,906.8c3,0,4.1-2.6,4.1-5.1c0-2.6-1.2-5.1-4.2-5.1c-3,0-4,2.6-4,5.2
			C365.2,904.3,366.5,906.8,369.4,906.8z"/>
		<path class="st17" d="M381.4,892.6h-2.2v-2.7h2.2V892.6z M379.2,895h2.2v13.4h-2.2V895z"/>
		<path class="st17" d="M384.8,895h2.1v2.1h0.1c0.9-1.7,2.4-2.4,4.4-2.4c3.5,0,4.6,2,4.6,4.9v8.8h-2.2v-9.1c0-1.7-1-2.7-2.7-2.7
			c-2.7,0-4,1.8-4,4.2v7.6h-2.2V895z"/>
		<path class="st17" d="M410.7,904.2c-0.6,3-2.7,4.6-5.7,4.6c-4.3,0-6.3-3-6.4-7.1c0-4.1,2.7-7,6.3-7c4.8,0,6.2,4.4,6.1,7.7h-10.1
			c-0.1,2.3,1.2,4.4,4.2,4.4c1.8,0,3.1-0.9,3.5-2.6H410.7z M408.6,900.4c-0.1-2.1-1.7-3.8-3.9-3.8c-2.3,0-3.7,1.7-3.8,3.8H408.6z"/>
		<path class="st17" d="M414.6,904.2c0.1,2,1.8,2.6,3.6,2.6c1.4,0,3.2-0.3,3.2-2c0-3.5-8.8-1.1-8.8-6.3c0-2.7,2.7-3.8,5-3.8
			c3,0,5.3,0.9,5.5,4.2H421c-0.1-1.7-1.7-2.3-3.1-2.3c-1.3,0-2.9,0.4-2.9,1.7c0,1.6,2.3,1.9,4.4,2.3c2.2,0.5,4.4,1.2,4.4,3.8
			c0,3.2-3,4.2-5.7,4.2c-3,0-5.6-1.2-5.7-4.6H414.6z"/>
		<path class="st17" d="M427.6,904.2c0.1,2,1.8,2.6,3.6,2.6c1.4,0,3.2-0.3,3.2-2c0-3.5-8.8-1.1-8.8-6.3c0-2.7,2.7-3.8,5-3.8
			c3,0,5.3,0.9,5.5,4.2H434c-0.1-1.7-1.7-2.3-3.1-2.3c-1.3,0-2.9,0.4-2.9,1.7c0,1.6,2.3,1.9,4.4,2.3c2.2,0.5,4.4,1.2,4.4,3.8
			c0,3.2-3,4.2-5.7,4.2c-3,0-5.6-1.2-5.7-4.6H427.6z"/>
	</g>
</g>
<g>
	<g>
		<path class="st17" d="M634.2,872.7h8.7c3.5,0,5.6,1.9,5.6,4.9c0,2.3-1,4.1-3.2,4.7v0.1c2.2,0.4,2.6,2,2.8,3.8
			c0.1,1.8,0.1,3.9,1.1,5.1h-2.8c-0.7-0.8-0.3-2.8-0.7-4.6c-0.3-1.8-0.7-3.4-3.1-3.4h-6v7.9h-2.5V872.7z M641.8,881.2
			c2.3,0,4.3-0.6,4.3-3.3c0-1.8-1-3.2-3.3-3.2h-6.1v6.5H641.8z"/>
		<path class="st17" d="M663.1,887c-0.6,3-2.7,4.6-5.7,4.6c-4.3,0-6.3-3-6.4-7.1c0-4.1,2.7-7,6.3-7c4.8,0,6.2,4.4,6.1,7.7h-10.1
			c-0.1,2.3,1.2,4.4,4.2,4.4c1.8,0,3.1-0.9,3.5-2.6H663.1z M660.9,883.2c-0.1-2.1-1.7-3.8-3.9-3.8c-2.3,0-3.7,1.7-3.8,3.8H660.9z"/>
		<path class="st17" d="M665.7,872.7h2.2v18.6h-2.2V872.7z"/>
		<path class="st17" d="M682.8,887c-0.6,3-2.7,4.6-5.7,4.6c-4.3,0-6.3-3-6.4-7.1c0-4.1,2.7-7,6.3-7c4.8,0,6.2,4.4,6.1,7.7H673
			c-0.1,2.3,1.2,4.4,4.2,4.4c1.8,0,3.1-0.9,3.5-2.6H682.8z M680.7,883.2c-0.1-2.1-1.7-3.8-3.9-3.8c-2.3,0-3.7,1.7-3.8,3.8H680.7z"/>
		<path class="st17" d="M697.2,891.2c-0.4,0.2-0.9,0.4-1.6,0.4c-1.1,0-1.9-0.6-1.9-2.1c-1.2,1.5-2.9,2.1-4.7,2.1
			c-2.4,0-4.4-1.1-4.4-3.8c0-3,2.3-3.7,4.6-4.1c2.4-0.5,4.5-0.3,4.5-2c0-2-1.6-2.2-3-2.2c-1.9,0-3.3,0.6-3.4,2.5h-2.2
			c0.1-3.3,2.7-4.5,5.7-4.5c2.4,0,5,0.5,5,3.7v6.9c0,1,0,1.5,0.7,1.5c0.2,0,0.4-0.1,0.7-0.1V891.2z M693.6,884.3
			c-1.7,1.3-6.7,0-6.7,3.3c0,1.5,1.2,2,2.6,2c2.9,0,4.1-1.8,4.1-3V884.3z"/>
		<path class="st17" d="M700.6,887c0.1,2,1.8,2.6,3.6,2.6c1.4,0,3.2-0.3,3.2-2c0-3.5-8.8-1.1-8.8-6.3c0-2.7,2.7-3.8,5-3.8
			c3,0,5.3,0.9,5.5,4.2H707c-0.1-1.7-1.7-2.3-3.1-2.3c-1.3,0-2.9,0.4-2.9,1.7c0,1.6,2.3,1.9,4.4,2.3c2.2,0.5,4.4,1.2,4.4,3.8
			c0,3.2-3,4.2-5.7,4.2c-3,0-5.6-1.2-5.7-4.5H700.6z"/>
		<path class="st17" d="M723.7,887c-0.6,3-2.7,4.6-5.7,4.6c-4.3,0-6.3-3-6.4-7.1c0-4.1,2.7-7,6.3-7c4.8,0,6.2,4.4,6.1,7.7h-10.1
			c-0.1,2.3,1.2,4.4,4.2,4.4c1.8,0,3.1-0.9,3.5-2.6H723.7z M721.6,883.2c-0.1-2.1-1.7-3.8-3.9-3.8c-2.3,0-3.7,1.7-3.8,3.8H721.6z"/>
		<path class="st17" d="M599,903.9h6.4c5.7,0,8.9,2.9,8.9,8.8c0,6.2-2.7,9.7-8.9,9.7H599V903.9z M601.5,920.3h4.1
			c1.7,0,6.2-0.5,6.2-7.3c0-4.4-1.6-7.1-6.2-7.1h-4.2V920.3z"/>
		<path class="st17" d="M628.4,918.2c-0.6,3-2.7,4.6-5.7,4.6c-4.3,0-6.3-3-6.4-7.1c0-4.1,2.7-7,6.3-7c4.8,0,6.2,4.4,6.1,7.7h-10.1
			c-0.1,2.3,1.2,4.4,4.2,4.4c1.8,0,3.1-0.9,3.5-2.6H628.4z M626.3,914.4c-0.1-2.1-1.7-3.8-3.9-3.8c-2.3,0-3.7,1.7-3.8,3.8H626.3z"/>
		<path class="st17" d="M634,909h2.7v2H634v8.3c0,1,0.3,1.2,1.7,1.2h1v2h-1.7c-2.3,0-3.2-0.5-3.2-2.9v-8.6h-2.3v-2h2.3v-4h2.2V909z"
			/>
		<path class="st17" d="M650.5,918.2c-0.6,3-2.7,4.6-5.7,4.6c-4.3,0-6.3-3-6.4-7.1c0-4.1,2.7-7,6.3-7c4.8,0,6.2,4.4,6.1,7.7h-10.1
			c-0.1,2.3,1.2,4.4,4.2,4.4c1.8,0,3.1-0.9,3.5-2.6H650.5z M648.4,914.4c-0.1-2.1-1.7-3.8-3.9-3.8c-2.3,0-3.7,1.7-3.8,3.8H648.4z"/>
		<path class="st17" d="M653,909h2.1v2.8h0.1c1.1-2.2,2.5-3.2,4.9-3.1v2.3c-3.6,0-4.9,2-4.9,5.4v6H653V909z"/>
		<path class="st17" d="M661.7,909h2.1v2h0.1c1-1.5,2.4-2.3,4.3-2.3c1.7,0,3.1,0.6,3.7,2.3c0.9-1.5,2.5-2.3,4.2-2.3
			c2.7,0,4.5,1.1,4.5,3.9v9.9h-2.2v-8.8c0-1.7-0.4-3-2.6-3s-3.5,1.4-3.5,3.4v8.4H670v-8.8c0-1.7-0.5-3-2.5-3c-2.6,0-3.6,2.4-3.6,3.4
			v8.4h-2.2V909z"/>
		<path class="st17" d="M686.2,906.6H684v-2.7h2.2V906.6z M684,909h2.2v13.4H684V909z"/>
		<path class="st17" d="M689.6,909h2.1v2.1h0.1c0.9-1.7,2.4-2.4,4.4-2.4c3.5,0,4.6,2,4.6,4.9v8.8h-2.2v-9.1c0-1.7-1-2.7-2.7-2.7
			c-2.7,0-4,1.8-4,4.2v7.6h-2.2V909z"/>
		<path class="st17" d="M716,922.4c-0.4,0.2-0.9,0.4-1.6,0.4c-1.1,0-1.9-0.6-1.9-2.1c-1.2,1.5-2.9,2.1-4.7,2.1
			c-2.4,0-4.4-1.1-4.4-3.8c0-3,2.3-3.7,4.6-4.1c2.4-0.5,4.5-0.3,4.5-2c0-2-1.6-2.2-3-2.2c-1.9,0-3.2,0.6-3.4,2.5h-2.2
			c0.1-3.3,2.7-4.5,5.7-4.5c2.4,0,5,0.5,5,3.7v6.9c0,1,0,1.5,0.7,1.5c0.2,0,0.4-0.1,0.7-0.1V922.4z M712.4,915.5
			c-1.7,1.3-6.7,0-6.7,3.3c0,1.5,1.2,2,2.6,2c2.9,0,4.1-1.8,4.1-3V915.5z"/>
		<path class="st17" d="M721.1,909h2.7v2h-2.7v8.3c0,1,0.3,1.2,1.7,1.2h1v2h-1.7c-2.3,0-3.2-0.5-3.2-2.9v-8.6h-2.3v-2h2.3v-4h2.2
			V909z"/>
		<path class="st17" d="M728.6,906.6h-2.2v-2.7h2.2V906.6z M726.4,909h2.2v13.4h-2.2V909z"/>
		<path class="st17" d="M737.8,908.7c4.3,0,6.5,3.1,6.5,7c0,3.9-2.3,7-6.5,7s-6.5-3.1-6.5-7C731.3,911.8,733.6,908.7,737.8,908.7z
			 M737.8,920.8c2.3,0,4.2-1.8,4.2-5.1c0-3.2-1.9-5.1-4.2-5.1s-4.2,1.8-4.2,5.1C733.6,919,735.5,920.8,737.8,920.8z"/>
		<path class="st17" d="M747,909h2.1v2.1h0.1c0.9-1.7,2.4-2.4,4.4-2.4c3.5,0,4.6,2,4.6,4.9v8.8h-2.2v-9.1c0-1.7-1-2.7-2.7-2.7
			c-2.7,0-4,1.8-4,4.2v7.6H747V909z"/>
	</g>
</g>
<g>
	<g>
		<path class="st17" d="M1801.7,110.3h2.7l7.3,18.6h-2.7l-2-5.6h-7.9l-2.1,5.6h-2.5L1801.7,110.3z M1799.9,121.2h6.3l-3.1-8.7h-0.1
			L1799.9,121.2z"/>
		<path class="st17" d="M1813.2,115.4h2.2v1.8h0.1c0.7-1.5,2.4-2.1,4.3-2.1c4.1,0,6.2,3.3,6.2,7.1c0,3.8-2,7-6.1,7
			c-1.4,0-3.4-0.5-4.3-2.1h-0.1v6.9h-2.2V115.4z M1819.5,117.1c-3,0-4.1,2.6-4.1,5.1c0,2.6,1.2,5.1,4.2,5.1c3,0,4-2.6,4-5.2
			C1823.6,119.5,1822.3,117.1,1819.5,117.1z"/>
		<path class="st17" d="M1828.6,115.4h2.2v1.8h0.1c0.7-1.5,2.4-2.1,4.3-2.1c4.1,0,6.2,3.3,6.2,7.1c0,3.8-2,7-6.1,7
			c-1.4,0-3.4-0.5-4.3-2.1h-0.1v6.9h-2.2V115.4z M1834.9,117.1c-3,0-4.1,2.6-4.1,5.1c0,2.6,1.2,5.1,4.2,5.1c3,0,4-2.6,4-5.2
			C1839,119.5,1837.7,117.1,1834.9,117.1z"/>
		<path class="st17" d="M1843.9,115.4h2.1v2.8h0.1c1.1-2.2,2.5-3.2,4.9-3.1v2.3c-3.6,0-4.9,2-4.9,5.4v6h-2.2V115.4z"/>
		<path class="st17" d="M1858.4,115.1c4.3,0,6.5,3.1,6.5,7c0,3.9-2.3,7-6.5,7c-4.3,0-6.5-3.1-6.5-7
			C1851.9,118.2,1854.2,115.1,1858.4,115.1z M1858.4,127.2c2.3,0,4.2-1.8,4.2-5.1c0-3.3-1.9-5.1-4.2-5.1c-2.3,0-4.2,1.8-4.2,5.1
			C1854.2,125.4,1856.1,127.2,1858.4,127.2z"/>
		<path class="st17" d="M1873.6,128.9h-2.4l-5-13.4h2.5l3.8,11.2h0.1l3.7-11.2h2.3L1873.6,128.9z"/>
		<path class="st17" d="M1892,124.6c-0.6,3-2.7,4.6-5.7,4.6c-4.3,0-6.3-3-6.4-7.1c0-4.1,2.7-7,6.3-7c4.8,0,6.2,4.4,6.1,7.7h-10.1
			c-0.1,2.3,1.2,4.4,4.2,4.4c1.8,0,3.1-0.9,3.5-2.6H1892z M1889.9,120.9c-0.1-2.1-1.7-3.8-3.9-3.8c-2.3,0-3.7,1.7-3.8,3.8H1889.9z"
			/>
		<path class="st17" d="M1906.5,128.9h-2.2v-1.8h-0.1c-0.7,1.5-2.4,2.1-4.3,2.1c-4.1,0-6.2-3.3-6.2-7.1s2-7,6.1-7
			c1.4,0,3.4,0.5,4.3,2.1h0.1v-6.9h2.2V128.9z M1900.3,127.2c3,0,4.1-2.6,4.1-5.1c0-2.6-1.2-5.1-4.2-5.1c-3,0-4,2.6-4,5.2
			C1896.1,124.8,1897.4,127.2,1900.3,127.2z"/>
	</g>
</g>
<g>
	<g>
		<path class="st17" d="M1796.4,73.5h2.6l9.8,15.1h0.1V73.5h2.3v18.6h-2.7l-9.7-14.9h-0.1v14.9h-2.3V73.5z"/>
		<path class="st17" d="M1820.7,78.3c4.3,0,6.5,3.1,6.5,7c0,3.9-2.3,7-6.5,7c-4.3,0-6.5-3.1-6.5-7
			C1814.2,81.4,1816.4,78.3,1820.7,78.3z M1820.7,90.4c2.3,0,4.2-1.8,4.2-5.1c0-3.3-1.9-5.1-4.2-5.1c-2.3,0-4.2,1.8-4.2,5.1
			C1816.5,88.6,1818.4,90.4,1820.7,90.4z"/>
		<path class="st17" d="M1832.9,78.6h2.7v2h-2.7v8.3c0,1,0.3,1.2,1.7,1.2h1v2h-1.7c-2.3,0-3.2-0.5-3.2-2.9v-8.6h-2.3v-2h2.3v-4h2.2
			V78.6z"/>
		<path class="st17" d="M1857.1,92c-0.4,0.2-0.9,0.4-1.6,0.4c-1.1,0-1.9-0.6-1.9-2.1c-1.2,1.5-2.9,2.1-4.7,2.1
			c-2.4,0-4.4-1.1-4.4-3.8c0-3,2.3-3.7,4.5-4.1c2.4-0.5,4.5-0.3,4.5-2c0-2-1.6-2.2-3-2.2c-1.9,0-3.2,0.6-3.4,2.5h-2.2
			c0.1-3.3,2.7-4.5,5.7-4.5c2.4,0,5,0.5,5,3.7v6.9c0,1,0,1.5,0.7,1.5c0.2,0,0.4-0.1,0.7-0.1V92z M1853.5,85.1
			c-1.7,1.3-6.7,0-6.7,3.3c0,1.5,1.2,2,2.6,2c2.9,0,4.1-1.8,4.1-3V85.1z"/>
		<path class="st17" d="M1859.3,78.6h2.2v1.8h0.1c0.7-1.5,2.4-2.1,4.3-2.1c4.1,0,6.2,3.3,6.2,7.1c0,3.8-2,7-6.1,7
			c-1.4,0-3.4-0.5-4.3-2.1h-0.1v6.9h-2.2V78.6z M1865.5,80.3c-3,0-4.1,2.6-4.1,5.1c0,2.6,1.2,5.1,4.2,5.1c3,0,4-2.6,4-5.2
			C1869.7,82.7,1868.4,80.3,1865.5,80.3z"/>
		<path class="st17" d="M1874.7,78.6h2.2v1.8h0.1c0.7-1.5,2.4-2.1,4.3-2.1c4.1,0,6.2,3.3,6.2,7.1c0,3.8-2,7-6.1,7
			c-1.4,0-3.4-0.5-4.3-2.1h-0.1v6.9h-2.2V78.6z M1880.9,80.3c-3,0-4.1,2.6-4.1,5.1c0,2.6,1.2,5.1,4.2,5.1c3,0,4-2.6,4-5.2
			C1885.1,82.7,1883.8,80.3,1880.9,80.3z"/>
		<path class="st17" d="M1889.9,78.6h2.1v2.8h0.1c1.1-2.2,2.5-3.2,4.9-3.1v2.3c-3.6,0-4.9,2-4.9,5.4v6h-2.2V78.6z"/>
		<path class="st17" d="M1904.5,78.3c4.3,0,6.5,3.1,6.5,7c0,3.9-2.3,7-6.5,7c-4.3,0-6.5-3.1-6.5-7
			C1897.9,81.4,1900.2,78.3,1904.5,78.3z M1904.5,90.4c2.3,0,4.2-1.8,4.2-5.1c0-3.3-1.9-5.1-4.2-5.1c-2.3,0-4.2,1.8-4.2,5.1
			C1900.3,88.6,1902.2,90.4,1904.5,90.4z"/>
		<path class="st17" d="M1919.7,92.1h-2.4l-5-13.4h2.5l3.8,11.2h0.1l3.7-11.2h2.3L1919.7,92.1z"/>
		<path class="st17" d="M1938.1,87.8c-0.6,3-2.7,4.6-5.7,4.6c-4.3,0-6.3-3-6.4-7.1c0-4.1,2.7-7,6.3-7c4.8,0,6.2,4.4,6.1,7.7h-10.1
			c-0.1,2.3,1.2,4.4,4.2,4.4c1.8,0,3.1-0.9,3.5-2.6H1938.1z M1935.9,84.1c-0.1-2.1-1.7-3.8-3.9-3.8c-2.3,0-3.7,1.7-3.8,3.8H1935.9z"
			/>
		<path class="st17" d="M1952.6,92.1h-2.2v-1.8h-0.1c-0.7,1.5-2.4,2.1-4.3,2.1c-4.1,0-6.2-3.3-6.2-7.1s2-7,6.1-7
			c1.4,0,3.4,0.5,4.3,2.1h0.1v-6.9h2.2V92.1z M1946.3,90.4c3,0,4.1-2.6,4.1-5.1c0-2.6-1.2-5.1-4.2-5.1c-3,0-4,2.6-4,5.2
			C1942.2,88,1943.5,90.4,1946.3,90.4z"/>
	</g>
</g>
<g>
	<g>
		<path class="st17" d="M619.7,224.2h6.4c5.7,0,8.9,2.9,8.9,8.8c0,6.2-2.7,9.7-8.9,9.7h-6.4V224.2z M622.2,240.7h4.1
			c1.7,0,6.2-0.5,6.2-7.3c0-4.4-1.6-7.1-6.2-7.1h-4.2V240.7z"/>
		<path class="st17" d="M649.1,238.5c-0.6,3-2.7,4.6-5.7,4.6c-4.3,0-6.3-3-6.4-7.1c0-4.1,2.7-7,6.3-7c4.8,0,6.2,4.4,6.1,7.7h-10.1
			c-0.1,2.3,1.2,4.4,4.2,4.4c1.8,0,3.1-0.9,3.5-2.6H649.1z M647,234.8c-0.1-2.1-1.7-3.8-3.9-3.8c-2.3,0-3.7,1.7-3.8,3.8H647z"/>
		<path class="st17" d="M657.7,242.8h-2.4l-5-13.4h2.5l3.8,11.2h0.1l3.7-11.2h2.3L657.7,242.8z"/>
		<path class="st17" d="M676.1,238.5c-0.6,3-2.7,4.6-5.7,4.6c-4.3,0-6.3-3-6.4-7.1c0-4.1,2.7-7,6.3-7c4.8,0,6.2,4.4,6.1,7.7h-10.1
			c-0.1,2.3,1.2,4.4,4.2,4.4c1.8,0,3.1-0.9,3.5-2.6H676.1z M674,234.8c-0.1-2.1-1.7-3.8-3.9-3.8c-2.3,0-3.7,1.7-3.8,3.8H674z"/>
		<path class="st17" d="M678.7,224.2h2.2v18.6h-2.2V224.2z"/>
		<path class="st17" d="M690.2,229.1c4.3,0,6.5,3.1,6.5,7c0,3.9-2.3,7-6.5,7s-6.5-3.1-6.5-7C683.6,232.1,685.9,229.1,690.2,229.1z
			 M690.2,241.2c2.3,0,4.2-1.8,4.2-5.1c0-3.3-1.9-5.1-4.2-5.1s-4.2,1.8-4.2,5.1C686,239.3,687.8,241.2,690.2,241.2z"/>
		<path class="st17" d="M699.4,229.4h2.2v1.8h0.1c0.7-1.5,2.4-2.1,4.3-2.1c4.1,0,6.2,3.3,6.2,7.1c0,3.8-2,7-6.1,7
			c-1.4,0-3.4-0.5-4.3-2.1h-0.1v6.9h-2.2V229.4z M705.6,231c-3,0-4.1,2.6-4.1,5.1c0,2.6,1.2,5.1,4.2,5.1c3,0,4-2.6,4-5.2
			C709.8,233.4,708.5,231,705.6,231z"/>
		<path class="st17" d="M714.7,229.4h2.1v2h0.1c1-1.5,2.4-2.3,4.3-2.3c1.7,0,3.1,0.6,3.7,2.3c0.9-1.5,2.5-2.3,4.2-2.3
			c2.7,0,4.5,1.1,4.5,3.9v9.9h-2.2V234c0-1.7-0.4-3-2.6-3s-3.5,1.4-3.5,3.4v8.4H723V234c0-1.7-0.5-3-2.5-3c-2.6,0-3.6,2.4-3.6,3.4
			v8.4h-2.2V229.4z"/>
		<path class="st17" d="M748.3,238.5c-0.6,3-2.7,4.6-5.7,4.6c-4.3,0-6.3-3-6.4-7.1c0-4.1,2.7-7,6.3-7c4.8,0,6.2,4.4,6.1,7.7h-10.1
			c-0.1,2.3,1.2,4.4,4.2,4.4c1.8,0,3.1-0.9,3.5-2.6H748.3z M746.2,234.8c-0.1-2.1-1.7-3.8-3.9-3.8c-2.3,0-3.7,1.7-3.8,3.8H746.2z"/>
		<path class="st17" d="M750.8,229.4h2.1v2.1h0.1c0.9-1.7,2.4-2.4,4.4-2.4c3.5,0,4.6,2,4.6,4.9v8.8h-2.2v-9.1c0-1.7-1-2.7-2.7-2.7
			c-2.7,0-4,1.8-4,4.2v7.6h-2.2V229.4z"/>
		<path class="st17" d="M768.4,229.4h2.7v2h-2.7v8.3c0,1,0.3,1.2,1.7,1.2h1v2h-1.7c-2.3,0-3.2-0.5-3.2-2.9v-8.6h-2.3v-2h2.3v-4h2.2
			V229.4z"/>
		<path class="st17" d="M668.5,257.5h-6.2v-2.1h14.8v2.1H671V274h-2.5V257.5z"/>
		<path class="st17" d="M690.3,269.7c-0.6,3-2.7,4.6-5.7,4.6c-4.3,0-6.3-3-6.4-7.1c0-4.1,2.7-7,6.3-7c4.8,0,6.2,4.4,6.1,7.7h-10.1
			c-0.1,2.3,1.2,4.4,4.2,4.4c1.8,0,3.1-0.9,3.5-2.6H690.3z M688.2,266c-0.1-2.1-1.7-3.8-3.9-3.8c-2.3,0-3.7,1.7-3.8,3.8H688.2z"/>
		<path class="st17" d="M704.7,274c-0.4,0.2-0.9,0.4-1.6,0.4c-1.1,0-1.9-0.6-1.9-2.1c-1.2,1.5-2.9,2.1-4.7,2.1
			c-2.4,0-4.4-1.1-4.4-3.8c0-3,2.3-3.7,4.6-4.1c2.4-0.5,4.5-0.3,4.5-2c0-2-1.6-2.2-3-2.2c-1.9,0-3.3,0.6-3.4,2.5h-2.2
			c0.1-3.3,2.7-4.5,5.7-4.5c2.4,0,5,0.5,5,3.7v6.9c0,1,0,1.5,0.7,1.5c0.2,0,0.4-0.1,0.7-0.1V274z M701.1,267.1
			c-1.7,1.3-6.7,0-6.7,3.3c0,1.5,1.2,2,2.6,2c2.9,0,4.1-1.8,4.1-3V267.1z"/>
		<path class="st17" d="M706.8,260.6h2.1v2h0.1c1-1.5,2.4-2.3,4.3-2.3c1.7,0,3.1,0.6,3.7,2.3c0.9-1.5,2.5-2.3,4.2-2.3
			c2.7,0,4.5,1.1,4.5,3.9v9.9h-2.2v-8.8c0-1.7-0.4-3-2.6-3s-3.5,1.4-3.5,3.4v8.4h-2.2v-8.8c0-1.7-0.5-3-2.5-3
			c-2.6,0-3.6,2.4-3.6,3.4v8.4h-2.2V260.6z"/>
		<path class="st17" d="M645,291.8h2.2v1.8h0.1c0.7-1.5,2.4-2.1,4.3-2.1c4.1,0,6.2,3.3,6.2,7.1c0,3.8-2,7-6.1,7
			c-1.4,0-3.4-0.5-4.3-2.1h-0.1v6.9H645V291.8z M651.2,293.4c-3,0-4.1,2.6-4.1,5.1c0,2.6,1.2,5.1,4.2,5.1c3,0,4-2.6,4-5.2
			C655.4,295.8,654.1,293.4,651.2,293.4z"/>
		<path class="st17" d="M660.2,291.8h2.1v2.8h0.1c1.1-2.2,2.5-3.2,4.9-3.1v2.3c-3.6,0-4.9,2-4.9,5.4v6h-2.2V291.8z"/>
		<path class="st17" d="M680.4,300.9c-0.6,3-2.7,4.6-5.7,4.6c-4.3,0-6.3-3-6.4-7.1c0-4.1,2.7-7,6.3-7c4.8,0,6.2,4.4,6.1,7.7h-10.1
			c-0.1,2.3,1.2,4.4,4.2,4.4c1.8,0,3.1-0.9,3.5-2.6H680.4z M678.3,297.2c-0.1-2.1-1.7-3.8-3.9-3.8c-2.3,0-3.7,1.7-3.8,3.8H678.3z"/>
		<path class="st17" d="M683,291.8h2.2v1.8h0.1c0.7-1.5,2.4-2.1,4.3-2.1c4.1,0,6.2,3.3,6.2,7.1c0,3.8-2,7-6.1,7
			c-1.4,0-3.4-0.5-4.3-2.1h-0.1v6.9H683V291.8z M689.3,293.4c-3,0-4.1,2.6-4.1,5.1c0,2.6,1.2,5.1,4.2,5.1c3,0,4-2.6,4-5.2
			C693.4,295.8,692.1,293.4,689.3,293.4z"/>
		<path class="st17" d="M710.3,305.2c-0.4,0.2-0.9,0.4-1.6,0.4c-1.1,0-1.9-0.6-1.9-2.1c-1.2,1.5-2.9,2.1-4.7,2.1
			c-2.4,0-4.4-1.1-4.4-3.8c0-3,2.3-3.7,4.6-4.1c2.4-0.5,4.5-0.3,4.5-2c0-2-1.6-2.2-3-2.2c-1.9,0-3.2,0.6-3.4,2.5h-2.2
			c0.1-3.3,2.7-4.5,5.7-4.5c2.4,0,5,0.5,5,3.7v6.9c0,1,0,1.5,0.7,1.5c0.2,0,0.4-0.1,0.7-0.1V305.2z M706.7,298.3
			c-1.7,1.3-6.7,0-6.7,3.3c0,1.5,1.2,2,2.6,2c2.9,0,4.1-1.8,4.1-3V298.3z"/>
		<path class="st17" d="M712.2,291.8h2.1v2.8h0.1c1.1-2.2,2.5-3.2,4.9-3.1v2.3c-3.6,0-4.9,2-4.9,5.4v6h-2.2V291.8z"/>
		<path class="st17" d="M732.4,300.9c-0.6,3-2.7,4.6-5.7,4.6c-4.3,0-6.3-3-6.4-7.1c0-4.1,2.7-7,6.3-7c4.8,0,6.2,4.4,6.1,7.7h-10.1
			c-0.1,2.3,1.2,4.4,4.2,4.4c1.8,0,3.1-0.9,3.5-2.6H732.4z M730.3,297.2c-0.1-2.1-1.7-3.8-3.9-3.8c-2.3,0-3.7,1.7-3.8,3.8H730.3z"/>
		<path class="st17" d="M736.3,301c0.1,2,1.8,2.6,3.6,2.6c1.4,0,3.2-0.3,3.2-2c0-3.5-8.8-1.1-8.8-6.3c0-2.7,2.7-3.8,5-3.8
			c3,0,5.3,0.9,5.5,4.2h-2.2c-0.1-1.7-1.7-2.3-3.1-2.3c-1.3,0-2.9,0.4-2.9,1.7c0,1.6,2.3,1.9,4.4,2.3c2.2,0.5,4.4,1.2,4.4,3.8
			c0,3.2-3,4.2-5.7,4.2c-3,0-5.6-1.2-5.7-4.6H736.3z"/>
		<path class="st17" d="M616.8,317.8h6.4c5.7,0,8.9,2.9,8.9,8.8c0,6.2-2.7,9.7-8.9,9.7h-6.4V317.8z M619.3,334.3h4.1
			c1.7,0,6.2-0.5,6.2-7.3c0-4.4-1.6-7.1-6.2-7.1h-4.2V334.3z"/>
		<path class="st17" d="M646.2,332.1c-0.6,3-2.7,4.6-5.7,4.6c-4.3,0-6.3-3-6.4-7.1c0-4.1,2.7-7,6.3-7c4.8,0,6.2,4.4,6.1,7.7h-10.1
			c-0.1,2.3,1.2,4.4,4.2,4.4c1.8,0,3.1-0.9,3.5-2.6H646.2z M644.1,328.4c-0.1-2.1-1.7-3.8-3.9-3.8c-2.3,0-3.7,1.7-3.8,3.8H644.1z"/>
		<path class="st17" d="M650.1,332.2c0.1,2,1.8,2.6,3.6,2.6c1.4,0,3.2-0.3,3.2-2c0-3.5-8.8-1.1-8.8-6.3c0-2.7,2.7-3.8,5-3.8
			c3,0,5.3,0.9,5.5,4.2h-2.2c-0.1-1.7-1.7-2.3-3.1-2.3c-1.3,0-2.9,0.4-2.9,1.7c0,1.6,2.3,1.9,4.4,2.3c2.2,0.5,4.4,1.2,4.4,3.8
			c0,3.2-3,4.2-5.7,4.2c-3,0-5.6-1.2-5.7-4.6H650.1z"/>
		<path class="st17" d="M664.1,320.5h-2.2v-2.7h2.2V320.5z M661.9,323h2.2v13.4h-2.2V323z"/>
		<path class="st17" d="M679.1,335.3c0,4.4-2,6.6-6.2,6.6c-2.5,0-5.4-1-5.6-4h2.2c0.1,1.6,2.1,2.2,3.5,2.2c2.9,0,4-2.1,4-5.1v-0.9
			H677c-0.8,1.6-2.5,2.4-4.2,2.4c-4,0-6-3.1-6-6.8c0-3.2,1.5-7.1,6.2-7.1c1.7,0,3.2,0.8,4,2.2h0V323h2.1V335.3z M676.9,329.4
			c0-2.4-1-4.8-3.8-4.8c-2.8,0-4,2.3-4,4.9c0,2.4,0.9,5.1,3.8,5.1S676.9,331.9,676.9,329.4z"/>
		<path class="st17" d="M682.4,323h2.1v2.1h0.1c0.9-1.7,2.4-2.4,4.4-2.4c3.5,0,4.6,2,4.6,4.9v8.8h-2.2v-9.1c0-1.7-1-2.7-2.7-2.7
			c-2.7,0-4,1.8-4,4.2v7.6h-2.2V323z"/>
		<path class="st17" d="M704.6,317.8h2.5v18.6h-2.5V317.8z"/>
		<path class="st17" d="M710.8,323h2.1v2.1h0.1c0.9-1.7,2.4-2.4,4.4-2.4c3.5,0,4.6,2,4.6,4.9v8.8h-2.2v-9.1c0-1.7-1-2.7-2.7-2.7
			c-2.7,0-4,1.8-4,4.2v7.6h-2.2V323z"/>
		<path class="st17" d="M725.4,323h2.2v1.8h0.1c0.7-1.5,2.4-2.1,4.3-2.1c4.1,0,6.2,3.3,6.2,7.1c0,3.8-2,7-6.1,7
			c-1.4,0-3.4-0.5-4.3-2.1h-0.1v6.9h-2.2V323z M731.6,324.6c-3,0-4.1,2.6-4.1,5.1c0,2.6,1.2,5.1,4.2,5.1c3,0,4-2.6,4-5.2
			C735.8,327,734.5,324.6,731.6,324.6z"/>
		<path class="st17" d="M751.9,336.4h-2.1v-2.1h-0.1c-0.9,1.7-2.4,2.4-4.4,2.4c-3.5,0-4.6-2-4.6-4.9V323h2.2v9.1
			c0,1.7,1,2.7,2.7,2.7c2.7,0,4-1.8,4-4.2V323h2.2V336.4z"/>
		<path class="st17" d="M758.2,323h2.7v2h-2.7v8.3c0,1,0.3,1.2,1.7,1.2h1v2h-1.7c-2.3,0-3.2-0.5-3.2-2.9v-8.6h-2.3v-2h2.3v-4h2.2
			V323z"/>
		<path class="st17" d="M764.7,332.2c0.1,2,1.8,2.6,3.6,2.6c1.4,0,3.2-0.3,3.2-2c0-3.5-8.8-1.1-8.8-6.3c0-2.7,2.7-3.8,5-3.8
			c3,0,5.3,0.9,5.5,4.2h-2.2c-0.1-1.7-1.7-2.3-3.1-2.3c-1.3,0-2.9,0.4-2.9,1.7c0,1.6,2.3,1.9,4.4,2.3c2.2,0.5,4.4,1.2,4.4,3.8
			c0,3.2-3,4.2-5.7,4.2c-3,0-5.6-1.2-5.7-4.6H764.7z"/>
	</g>
</g>
<g>
	<rect x="1354.3" y="224.2" class="st18" width="179.1" height="169.4"/>
	<path class="st17" d="M1356.3,224.2h6.4c5.7,0,8.9,2.9,8.9,8.8c0,6.2-2.7,9.7-8.9,9.7h-6.4V224.2z M1358.8,240.7h4.1
		c1.7,0,6.2-0.5,6.2-7.3c0-4.4-1.6-7.1-6.2-7.1h-4.2V240.7z"/>
	<path class="st17" d="M1385.7,238.5c-0.6,3-2.7,4.6-5.7,4.6c-4.3,0-6.3-3-6.4-7.1c0-4.1,2.7-7,6.3-7c4.8,0,6.2,4.4,6.1,7.7h-10.1
		c-0.1,2.3,1.2,4.4,4.2,4.4c1.8,0,3.1-0.9,3.5-2.6H1385.7z M1383.6,234.8c-0.1-2.1-1.7-3.8-3.9-3.8c-2.3,0-3.7,1.7-3.8,3.8H1383.6z"
		/>
	<path class="st17" d="M1394.3,242.8h-2.4l-5-13.4h2.5l3.8,11.2h0.1l3.7-11.2h2.3L1394.3,242.8z"/>
	<path class="st17" d="M1412.7,238.5c-0.6,3-2.7,4.6-5.7,4.6c-4.3,0-6.3-3-6.4-7.1c0-4.1,2.7-7,6.3-7c4.8,0,6.2,4.4,6.1,7.7h-10.1
		c-0.1,2.3,1.2,4.4,4.2,4.4c1.8,0,3.1-0.9,3.5-2.6H1412.7z M1410.5,234.8c-0.1-2.1-1.7-3.8-3.9-3.8c-2.3,0-3.7,1.7-3.8,3.8H1410.5z"
		/>
	<path class="st17" d="M1415.3,224.2h2.2v18.6h-2.2V224.2z"/>
	<path class="st17" d="M1426.7,229.1c4.3,0,6.5,3.1,6.5,7c0,3.9-2.3,7-6.5,7c-4.3,0-6.5-3.1-6.5-7
		C1420.2,232.1,1422.5,229.1,1426.7,229.1z M1426.7,241.2c2.3,0,4.2-1.8,4.2-5.1c0-3.3-1.9-5.1-4.2-5.1c-2.3,0-4.2,1.8-4.2,5.1
		C1422.6,239.3,1424.4,241.2,1426.7,241.2z"/>
	<path class="st17" d="M1435.9,229.4h2.2v1.8h0.1c0.7-1.5,2.4-2.1,4.3-2.1c4.1,0,6.2,3.3,6.2,7.1c0,3.8-2,7-6.1,7
		c-1.4,0-3.4-0.5-4.3-2.1h-0.1v6.9h-2.2V229.4z M1442.2,231c-3,0-4.1,2.6-4.1,5.1c0,2.6,1.2,5.1,4.2,5.1c3,0,4-2.6,4-5.2
		C1446.3,233.4,1445,231,1442.2,231z"/>
	<path class="st17" d="M1451.3,229.4h2.1v2h0.1c1-1.5,2.4-2.3,4.3-2.3c1.7,0,3.1,0.6,3.7,2.3c0.9-1.5,2.5-2.3,4.2-2.3
		c2.7,0,4.5,1.1,4.5,3.9v9.9h-2.2V234c0-1.7-0.4-3-2.6-3s-3.5,1.4-3.5,3.4v8.4h-2.2V234c0-1.7-0.5-3-2.5-3c-2.6,0-3.6,2.4-3.6,3.4
		v8.4h-2.2V229.4z"/>
	<path class="st17" d="M1484.9,238.5c-0.6,3-2.7,4.6-5.7,4.6c-4.3,0-6.3-3-6.4-7.1c0-4.1,2.7-7,6.3-7c4.8,0,6.2,4.4,6.1,7.7h-10.1
		c-0.1,2.3,1.2,4.4,4.2,4.4c1.8,0,3.1-0.9,3.5-2.6H1484.9z M1482.8,234.8c-0.1-2.1-1.7-3.8-3.9-3.8c-2.3,0-3.7,1.7-3.8,3.8H1482.8z"
		/>
	<path class="st17" d="M1487.4,229.4h2.1v2.1h0.1c0.9-1.7,2.4-2.4,4.4-2.4c3.5,0,4.6,2,4.6,4.9v8.8h-2.2v-9.1c0-1.7-1-2.7-2.7-2.7
		c-2.7,0-4,1.8-4,4.2v7.6h-2.2V229.4z"/>
	<path class="st17" d="M1504.9,229.4h2.7v2h-2.7v8.3c0,1,0.3,1.2,1.7,1.2h1v2h-1.7c-2.3,0-3.2-0.5-3.2-2.9v-8.6h-2.3v-2h2.3v-4h2.2
		V229.4z"/>
	<path class="st17" d="M1360.5,257.5h-6.2v-2.1h14.8v2.1h-6.2V274h-2.5V257.5z"/>
	<path class="st17" d="M1382.3,269.7c-0.6,3-2.7,4.6-5.7,4.6c-4.3,0-6.3-3-6.4-7.1c0-4.1,2.7-7,6.3-7c4.8,0,6.2,4.4,6.1,7.7h-10.1
		c-0.1,2.3,1.2,4.4,4.2,4.4c1.8,0,3.1-0.9,3.5-2.6H1382.3z M1380.2,266c-0.1-2.1-1.7-3.8-3.9-3.8c-2.3,0-3.7,1.7-3.8,3.8H1380.2z"/>
	<path class="st17" d="M1396.7,274c-0.4,0.2-0.9,0.4-1.6,0.4c-1.1,0-1.9-0.6-1.9-2.1c-1.2,1.5-2.9,2.1-4.7,2.1
		c-2.4,0-4.4-1.1-4.4-3.8c0-3,2.3-3.7,4.5-4.1c2.4-0.5,4.5-0.3,4.5-2c0-2-1.6-2.2-3-2.2c-1.9,0-3.2,0.6-3.4,2.5h-2.2
		c0.1-3.3,2.7-4.5,5.7-4.5c2.4,0,5,0.5,5,3.7v6.9c0,1,0,1.5,0.7,1.5c0.2,0,0.4-0.1,0.7-0.1V274z M1393.1,267.1
		c-1.7,1.3-6.7,0-6.7,3.3c0,1.5,1.2,2,2.6,2c2.9,0,4.1-1.8,4.1-3V267.1z"/>
	<path class="st17" d="M1398.8,260.6h2.1v2h0.1c1-1.5,2.4-2.3,4.3-2.3c1.7,0,3.1,0.6,3.7,2.3c0.9-1.5,2.5-2.3,4.2-2.3
		c2.7,0,4.5,1.1,4.5,3.9v9.9h-2.2v-8.8c0-1.7-0.4-3-2.6-3s-3.5,1.4-3.5,3.4v8.4h-2.2v-8.8c0-1.7-0.5-3-2.5-3c-2.6,0-3.6,2.4-3.6,3.4
		v8.4h-2.2V260.6z"/>
	<path class="st17" d="M1428.3,260.6h2.2v1.8h0.1c0.7-1.5,2.4-2.1,4.3-2.1c4.1,0,6.2,3.3,6.2,7.1c0,3.8-2,7-6.1,7
		c-1.4,0-3.4-0.5-4.3-2.1h-0.1v6.9h-2.2V260.6z M1434.5,262.2c-3,0-4.1,2.6-4.1,5.1c0,2.6,1.2,5.1,4.2,5.1c3,0,4-2.6,4-5.2
		C1438.7,264.6,1437.4,262.2,1434.5,262.2z"/>
	<path class="st17" d="M1443.5,260.6h2.1v2.8h0.1c1.1-2.2,2.5-3.2,4.9-3.1v2.3c-3.6,0-4.9,2-4.9,5.4v6h-2.2V260.6z"/>
	<path class="st17" d="M1463.7,269.7c-0.6,3-2.7,4.6-5.7,4.6c-4.3,0-6.3-3-6.4-7.1c0-4.1,2.7-7,6.3-7c4.8,0,6.2,4.4,6.1,7.7h-10.1
		c-0.1,2.3,1.2,4.4,4.2,4.4c1.8,0,3.1-0.9,3.5-2.6H1463.7z M1461.6,266c-0.1-2.1-1.7-3.8-3.9-3.8c-2.3,0-3.7,1.7-3.8,3.8H1461.6z"/>
	<path class="st17" d="M1466.3,260.6h2.2v1.8h0.1c0.7-1.5,2.4-2.1,4.3-2.1c4.1,0,6.2,3.3,6.2,7.1c0,3.8-2,7-6.1,7
		c-1.4,0-3.4-0.5-4.3-2.1h-0.1v6.9h-2.2V260.6z M1472.5,262.2c-3,0-4.1,2.6-4.1,5.1c0,2.6,1.2,5.1,4.2,5.1c3,0,4-2.6,4-5.2
		C1476.7,264.6,1475.4,262.2,1472.5,262.2z"/>
	<path class="st17" d="M1493.6,274c-0.4,0.2-0.9,0.4-1.6,0.4c-1.1,0-1.9-0.6-1.9-2.1c-1.2,1.5-2.9,2.1-4.7,2.1
		c-2.4,0-4.4-1.1-4.4-3.8c0-3,2.3-3.7,4.6-4.1c2.4-0.5,4.5-0.3,4.5-2c0-2-1.6-2.2-3-2.2c-1.9,0-3.2,0.6-3.4,2.5h-2.2
		c0.1-3.3,2.7-4.5,5.7-4.5c2.4,0,5,0.5,5,3.7v6.9c0,1,0,1.5,0.7,1.5c0.2,0,0.4-0.1,0.7-0.1V274z M1490,267.1c-1.7,1.3-6.7,0-6.7,3.3
		c0,1.5,1.2,2,2.6,2c2.9,0,4.1-1.8,4.1-3V267.1z"/>
	<path class="st17" d="M1495.5,260.6h2.1v2.8h0.1c1.1-2.2,2.5-3.2,4.9-3.1v2.3c-3.6,0-4.9,2-4.9,5.4v6h-2.2V260.6z"/>
	<path class="st17" d="M1515.7,269.7c-0.6,3-2.7,4.6-5.7,4.6c-4.3,0-6.3-3-6.4-7.1c0-4.1,2.7-7,6.3-7c4.8,0,6.2,4.4,6.1,7.7h-10.1
		c-0.1,2.3,1.2,4.4,4.2,4.4c1.8,0,3.1-0.9,3.5-2.6H1515.7z M1513.6,266c-0.1-2.1-1.7-3.8-3.9-3.8c-2.3,0-3.7,1.7-3.8,3.8H1513.6z"/>
	<path class="st17" d="M1519.6,269.8c0.1,2,1.8,2.6,3.6,2.6c1.4,0,3.2-0.3,3.2-2c0-3.5-8.8-1.1-8.8-6.3c0-2.7,2.7-3.8,5-3.8
		c3,0,5.3,0.9,5.5,4.2h-2.2c-0.1-1.7-1.7-2.3-3.1-2.3c-1.3,0-2.9,0.4-2.9,1.7c0,1.6,2.3,1.9,4.4,2.3c2.2,0.5,4.4,1.2,4.4,3.8
		c0,3.2-3,4.2-5.7,4.2c-3,0-5.6-1.2-5.7-4.6H1519.6z"/>
	<path class="st17" d="M1362,305.2h-2.4l-5-13.4h2.5l3.8,11.2h0.1l3.7-11.2h2.3L1362,305.2z"/>
	<path class="st17" d="M1380.8,305.2c-0.4,0.2-0.9,0.4-1.6,0.4c-1.1,0-1.9-0.6-1.9-2.1c-1.2,1.5-2.9,2.1-4.7,2.1
		c-2.4,0-4.4-1.1-4.4-3.8c0-3,2.3-3.7,4.5-4.1c2.4-0.5,4.5-0.3,4.5-2c0-2-1.6-2.2-3-2.2c-1.9,0-3.2,0.6-3.4,2.5h-2.2
		c0.1-3.3,2.7-4.5,5.7-4.5c2.4,0,5,0.5,5,3.7v6.9c0,1,0,1.5,0.7,1.5c0.2,0,0.4-0.1,0.7-0.1V305.2z M1377.3,298.3
		c-1.7,1.3-6.7,0-6.7,3.3c0,1.5,1.2,2,2.6,2c2.9,0,4.1-1.8,4.1-3V298.3z"/>
	<path class="st17" d="M1383,286.6h2.2v18.6h-2.2V286.6z"/>
	<path class="st17" d="M1391,289.3h-2.2v-2.7h2.2V289.3z M1388.8,291.8h2.2v13.4h-2.2V291.8z"/>
	<path class="st17" d="M1406.5,305.2h-2.2v-1.8h-0.1c-0.7,1.5-2.4,2.1-4.3,2.1c-4.1,0-6.2-3.3-6.2-7.1s2-7,6.1-7
		c1.4,0,3.4,0.5,4.3,2.1h0.1v-6.9h2.2V305.2z M1400.2,303.6c3,0,4.1-2.6,4.1-5.1c0-2.6-1.2-5.1-4.2-5.1c-3,0-4,2.6-4,5.2
		C1396.1,301.1,1397.4,303.6,1400.2,303.6z"/>
	<path class="st17" d="M1421.8,305.2c-0.4,0.2-0.9,0.4-1.6,0.4c-1.1,0-1.9-0.6-1.9-2.1c-1.2,1.5-2.9,2.1-4.7,2.1
		c-2.4,0-4.4-1.1-4.4-3.8c0-3,2.3-3.7,4.6-4.1c2.4-0.5,4.5-0.3,4.5-2c0-2-1.6-2.2-3-2.2c-1.9,0-3.2,0.6-3.4,2.5h-2.2
		c0.1-3.3,2.7-4.5,5.7-4.5c2.4,0,5,0.5,5,3.7v6.9c0,1,0,1.5,0.7,1.5c0.2,0,0.4-0.1,0.7-0.1V305.2z M1418.2,298.3
		c-1.7,1.3-6.7,0-6.7,3.3c0,1.5,1.2,2,2.6,2c2.9,0,4.1-1.8,4.1-3V298.3z"/>
	<path class="st17" d="M1426.9,291.8h2.7v1.9h-2.7v8.3c0,1,0.3,1.2,1.7,1.2h1v2h-1.7c-2.3,0-3.2-0.5-3.2-2.9v-8.6h-2.3v-1.9h2.3v-4
		h2.2V291.8z"/>
	<path class="st17" d="M1434.4,289.3h-2.2v-2.7h2.2V289.3z M1432.1,291.8h2.2v13.4h-2.2V291.8z"/>
	<path class="st17" d="M1443.6,291.5c4.3,0,6.5,3.1,6.5,7c0,3.9-2.3,7-6.5,7c-4.3,0-6.5-3.1-6.5-7
		C1437.1,294.5,1439.3,291.5,1443.6,291.5z M1443.6,303.6c2.3,0,4.2-1.8,4.2-5.1c0-3.2-1.9-5.1-4.2-5.1c-2.3,0-4.2,1.8-4.2,5.1
		C1439.4,301.7,1441.3,303.6,1443.6,303.6z"/>
	<path class="st17" d="M1452.7,291.8h2.1v2.1h0.1c0.9-1.7,2.4-2.4,4.4-2.4c3.5,0,4.6,2,4.6,4.9v8.8h-2.2v-9.1c0-1.7-1-2.7-2.7-2.7
		c-2.7,0-4,1.8-4,4.2v7.6h-2.2V291.8z"/>
	<path class="st17" d="M1357.3,332.2c0.1,2,1.8,2.6,3.6,2.6c1.4,0,3.2-0.3,3.2-2c0-3.5-8.8-1.1-8.8-6.3c0-2.7,2.7-3.8,5-3.8
		c3,0,5.3,0.9,5.5,4.2h-2.2c-0.1-1.7-1.7-2.3-3.1-2.3c-1.3,0-2.9,0.4-2.9,1.7c0,1.6,2.3,1.9,4.4,2.3c2.2,0.5,4.4,1.2,4.4,3.8
		c0,3.2-3,4.2-5.7,4.2c-3,0-5.6-1.2-5.7-4.6H1357.3z"/>
	<path class="st17" d="M1380.1,336.4h-2.1v-2.1h-0.1c-0.9,1.7-2.4,2.4-4.4,2.4c-3.5,0-4.6-2-4.6-4.9V323h2.2v9.1
		c0,1.7,1,2.7,2.7,2.7c2.7,0,4-1.8,4-4.2V323h2.2V336.4z"/>
	<path class="st17" d="M1383.4,323h2.1v2h0.1c1-1.5,2.4-2.3,4.3-2.3c1.7,0,3.1,0.6,3.7,2.3c0.9-1.5,2.5-2.3,4.2-2.3
		c2.7,0,4.5,1.1,4.5,3.9v9.9h-2.2v-8.8c0-1.7-0.4-3-2.6-3s-3.5,1.4-3.5,3.4v8.4h-2.2v-8.8c0-1.7-0.5-3-2.5-3c-2.6,0-3.6,2.4-3.6,3.4
		v8.4h-2.2V323z"/>
	<path class="st17" d="M1405.6,323h2.1v2h0.1c1-1.5,2.4-2.3,4.3-2.3c1.7,0,3.1,0.6,3.7,2.3c0.9-1.5,2.5-2.3,4.2-2.3
		c2.7,0,4.5,1.1,4.5,3.9v9.9h-2.2v-8.8c0-1.7-0.4-3-2.6-3s-3.5,1.4-3.5,3.4v8.4h-2.2v-8.8c0-1.7-0.5-3-2.5-3c-2.6,0-3.6,2.4-3.6,3.4
		v8.4h-2.2V323z"/>
	<path class="st17" d="M1439.7,336.4c-0.4,0.2-0.9,0.4-1.6,0.4c-1.1,0-1.9-0.6-1.9-2.1c-1.2,1.5-2.9,2.1-4.7,2.1
		c-2.4,0-4.4-1.1-4.4-3.8c0-3,2.3-3.7,4.5-4.1c2.4-0.5,4.5-0.3,4.5-2c0-2-1.6-2.2-3-2.2c-1.9,0-3.2,0.6-3.4,2.5h-2.2
		c0.1-3.3,2.7-4.5,5.7-4.5c2.4,0,5,0.5,5,3.7v6.9c0,1,0,1.5,0.7,1.5c0.2,0,0.4-0.1,0.7-0.1V336.4z M1436.1,329.5
		c-1.7,1.3-6.7,0-6.7,3.3c0,1.5,1.2,2,2.6,2c2.9,0,4.1-1.8,4.1-3V329.5z"/>
	<path class="st17" d="M1441.6,323h2.1v2.8h0.1c1.1-2.2,2.5-3.2,4.9-3.1v2.3c-3.6,0-4.9,2-4.9,5.4v6h-2.2V323z"/>
	<path class="st17" d="M1455.7,338.2c-1,2.6-1.9,3.6-3.9,3.6c-0.5,0-1-0.1-1.5-0.2v-2c0.4,0.1,0.9,0.3,1.3,0.3
		c0.9,0,1.4-0.4,1.8-1.2l0.9-2.3l-5.3-13.4h2.5l3.9,11h0.1l3.8-11h2.3L1455.7,338.2z"/>
	<path class="st17" d="M1355.9,354.2h2.1v2.8h0.1c1.1-2.2,2.5-3.2,4.9-3.1v2.3c-3.6,0-4.9,2-4.9,5.4v6h-2.2V354.2z"/>
	<path class="st17" d="M1376.1,363.3c-0.6,3-2.7,4.6-5.7,4.6c-4.3,0-6.3-3-6.4-7.1c0-4.1,2.7-7,6.3-7c4.8,0,6.2,4.4,6.1,7.7h-10.1
		c-0.1,2.3,1.2,4.4,4.2,4.4c1.8,0,3.1-0.9,3.5-2.6H1376.1z M1373.9,359.6c-0.1-2.1-1.7-3.8-3.9-3.8c-2.3,0-3.7,1.7-3.8,3.8H1373.9z"
		/>
	<path class="st17" d="M1378.6,354.2h2.2v1.8h0.1c0.7-1.5,2.4-2.1,4.3-2.1c4.1,0,6.2,3.3,6.2,7.1c0,3.8-2,7-6.1,7
		c-1.4,0-3.4-0.5-4.3-2.1h-0.1v6.9h-2.2V354.2z M1384.9,355.8c-3,0-4.1,2.6-4.1,5.1c0,2.6,1.2,5.1,4.2,5.1c3,0,4-2.6,4-5.2
		C1389,358.2,1387.7,355.8,1384.9,355.8z"/>
	<path class="st17" d="M1399.8,353.9c4.3,0,6.5,3.1,6.5,7c0,3.9-2.3,7-6.5,7c-4.3,0-6.5-3.1-6.5-7
		C1393.2,356.9,1395.5,353.9,1399.8,353.9z M1399.8,366c2.3,0,4.2-1.8,4.2-5.1c0-3.3-1.9-5.1-4.2-5.1s-4.2,1.8-4.2,5.1
		C1395.6,364.1,1397.5,366,1399.8,366z"/>
	<path class="st17" d="M1408.8,354.2h2.1v2.8h0.1c1.1-2.2,2.5-3.2,4.9-3.1v2.3c-3.6,0-4.9,2-4.9,5.4v6h-2.2V354.2z"/>
	<path class="st17" d="M1420.6,354.2h2.7v2h-2.7v8.3c0,1,0.3,1.2,1.7,1.2h1v2h-1.7c-2.3,0-3.2-0.5-3.2-2.9v-8.6h-2.3v-2h2.3v-4h2.2
		V354.2z"/>
</g>
<g>
	<rect x="1794.5" y="224.2" class="st18" width="179.1" height="233.3"/>
	<path class="st17" d="M1796.5,224.2h6.4c5.7,0,8.9,2.9,8.9,8.8c0,6.2-2.7,9.7-8.9,9.7h-6.4V224.2z M1799,240.7h4.1
		c1.7,0,6.2-0.5,6.2-7.3c0-4.4-1.6-7.1-6.2-7.1h-4.2V240.7z"/>
	<path class="st17" d="M1825.9,238.5c-0.6,3-2.7,4.6-5.7,4.6c-4.3,0-6.3-3-6.4-7.1c0-4.1,2.7-7,6.3-7c4.8,0,6.2,4.4,6.1,7.7H1816
		c-0.1,2.3,1.2,4.4,4.2,4.4c1.8,0,3.1-0.9,3.5-2.6H1825.9z M1823.8,234.8c-0.1-2.1-1.7-3.8-3.9-3.8c-2.3,0-3.7,1.7-3.8,3.8H1823.8z"
		/>
	<path class="st17" d="M1828.5,229.4h2.2v1.8h0.1c0.7-1.5,2.4-2.1,4.3-2.1c4.1,0,6.2,3.3,6.2,7.1c0,3.8-2,7-6.1,7
		c-1.4,0-3.4-0.5-4.3-2.1h-0.1v6.9h-2.2V229.4z M1834.7,231c-3,0-4.1,2.6-4.1,5.1c0,2.6,1.2,5.1,4.2,5.1c3,0,4-2.6,4-5.2
		C1838.9,233.4,1837.6,231,1834.7,231z"/>
	<path class="st17" d="M1843.9,224.2h2.2v18.6h-2.2V224.2z"/>
	<path class="st17" d="M1855.4,229.1c4.3,0,6.5,3.1,6.5,7c0,3.9-2.3,7-6.5,7c-4.3,0-6.5-3.1-6.5-7
		C1848.9,232.1,1851.1,229.1,1855.4,229.1z M1855.4,241.2c2.3,0,4.2-1.8,4.2-5.1c0-3.3-1.9-5.1-4.2-5.1c-2.3,0-4.2,1.8-4.2,5.1
		C1851.2,239.3,1853.1,241.2,1855.4,241.2z"/>
	<path class="st17" d="M1869.8,244.6c-1,2.6-1.9,3.6-3.9,3.6c-0.5,0-1-0.1-1.5-0.2v-2c0.4,0.1,0.9,0.3,1.3,0.3
		c0.9,0,1.4-0.4,1.8-1.2l0.9-2.3l-5.3-13.4h2.5l3.9,11h0.1l3.8-11h2.3L1869.8,244.6z"/>
	<path class="st17" d="M1887.8,229.4h2.7v2h-2.7v8.3c0,1,0.3,1.2,1.7,1.2h1v2h-1.7c-2.3,0-3.2-0.5-3.2-2.9v-8.6h-2.3v-2h2.3v-4h2.2
		V229.4z"/>
	<path class="st17" d="M1898.7,229.1c4.3,0,6.5,3.1,6.5,7c0,3.9-2.3,7-6.5,7c-4.3,0-6.5-3.1-6.5-7
		C1892.2,232.1,1894.5,229.1,1898.7,229.1z M1898.7,241.2c2.3,0,4.2-1.8,4.2-5.1c0-3.3-1.9-5.1-4.2-5.1c-2.3,0-4.2,1.8-4.2,5.1
		C1894.5,239.3,1896.4,241.2,1898.7,241.2z"/>
	<path class="st17" d="M1796.2,260.6h2.2v1.8h0.1c0.7-1.5,2.4-2.1,4.3-2.1c4.1,0,6.2,3.3,6.2,7.1c0,3.8-2,7-6.1,7
		c-1.4,0-3.4-0.5-4.3-2.1h-0.1v6.9h-2.2V260.6z M1802.4,262.2c-3,0-4.1,2.6-4.1,5.1c0,2.6,1.2,5.1,4.2,5.1c3,0,4-2.6,4-5.2
		C1806.6,264.6,1805.3,262.2,1802.4,262.2z"/>
	<path class="st17" d="M1811.5,260.6h2.1v2.8h0.1c1.1-2.2,2.5-3.2,4.9-3.1v2.3c-3.6,0-4.9,2-4.9,5.4v6h-2.2V260.6z"/>
	<path class="st17" d="M1831.7,269.7c-0.6,3-2.7,4.6-5.7,4.6c-4.3,0-6.3-3-6.4-7.1c0-4.1,2.7-7,6.3-7c4.8,0,6.2,4.4,6.1,7.7h-10.1
		c-0.1,2.3,1.2,4.4,4.2,4.4c1.8,0,3.1-0.9,3.5-2.6H1831.7z M1829.5,266c-0.1-2.1-1.7-3.8-3.9-3.8c-2.3,0-3.7,1.7-3.8,3.8H1829.5z"/>
	<path class="st17" d="M1833.8,265.7h7.5v2.1h-7.5V265.7z"/>
	<path class="st17" d="M1844.4,260.6h2.2v1.8h0.1c0.7-1.5,2.4-2.1,4.3-2.1c4.1,0,6.2,3.3,6.2,7.1c0,3.8-2,7-6.1,7
		c-1.4,0-3.4-0.5-4.3-2.1h-0.1v6.9h-2.2V260.6z M1850.6,262.2c-3,0-4.1,2.6-4.1,5.1c0,2.6,1.2,5.1,4.2,5.1c3,0,4-2.6,4-5.2
		C1854.8,264.6,1853.5,262.2,1850.6,262.2z"/>
	<path class="st17" d="M1859.6,260.6h2.1v2.8h0.1c1.1-2.2,2.5-3.2,4.9-3.1v2.3c-3.6,0-4.9,2-4.9,5.4v6h-2.2V260.6z"/>
	<path class="st17" d="M1874.2,260.3c4.3,0,6.5,3.1,6.5,7c0,3.9-2.3,7-6.5,7c-4.3,0-6.5-3.1-6.5-7
		C1867.6,263.3,1869.9,260.3,1874.2,260.3z M1874.2,272.4c2.3,0,4.2-1.8,4.2-5.1c0-3.2-1.9-5.1-4.2-5.1c-2.3,0-4.2,1.8-4.2,5.1
		C1870,270.5,1871.8,272.4,1874.2,272.4z"/>
	<path class="st17" d="M1895.3,274h-2.2v-1.8h-0.1c-0.7,1.5-2.4,2.1-4.3,2.1c-4.1,0-6.2-3.3-6.2-7.1s2-7,6.1-7
		c1.4,0,3.4,0.5,4.3,2.1h0.1v-6.9h2.2V274z M1889.1,272.4c3,0,4.1-2.6,4.1-5.1c0-2.6-1.2-5.1-4.2-5.1c-3,0-4,2.6-4,5.2
		C1884.9,269.9,1886.2,272.4,1889.1,272.4z"/>
	<path class="st17" d="M1909.8,274h-2.1v-2.1h-0.1c-0.9,1.7-2.4,2.4-4.4,2.4c-3.5,0-4.6-2-4.6-4.9v-8.8h2.2v9.1c0,1.7,1,2.7,2.7,2.7
		c2.7,0,4-1.8,4-4.2v-7.6h2.2V274z"/>
	<path class="st17" d="M1922.3,264.9c-0.3-1.7-1.5-2.7-3.3-2.7c-3.2,0-4.2,2.5-4.2,5.3c0,2.5,1.1,4.9,3.9,4.9c2.2,0,3.4-1.2,3.7-3.3
		h2.3c-0.5,3.3-2.5,5.2-5.9,5.2c-4.1,0-6.3-2.8-6.3-6.9s2.1-7.2,6.3-7.2c3.1,0,5.5,1.4,5.8,4.6H1922.3z"/>
	<path class="st17" d="M1930.2,260.6h2.7v1.9h-2.7v8.3c0,1,0.3,1.2,1.7,1.2h1v2h-1.7c-2.3,0-3.2-0.5-3.2-2.9v-8.6h-2.3v-1.9h2.3v-4
		h2.2V260.6z"/>
	<path class="st17" d="M1937.6,258.1h-2.2v-2.7h2.2V258.1z M1935.4,260.6h2.2V274h-2.2V260.6z"/>
	<path class="st17" d="M1946.9,260.3c4.3,0,6.5,3.1,6.5,7c0,3.9-2.3,7-6.5,7c-4.3,0-6.5-3.1-6.5-7
		C1940.3,263.3,1942.6,260.3,1946.9,260.3z M1946.9,272.4c2.3,0,4.2-1.8,4.2-5.1c0-3.2-1.9-5.1-4.2-5.1c-2.3,0-4.2,1.8-4.2,5.1
		C1942.7,270.5,1944.6,272.4,1946.9,272.4z"/>
	<path class="st17" d="M1956,260.6h2.1v2.1h0.1c0.9-1.7,2.4-2.4,4.4-2.4c3.5,0,4.6,2,4.6,4.9v8.8h-2.2v-9.1c0-1.7-1-2.7-2.7-2.7
		c-2.7,0-4,1.8-4,4.2v7.6h-2.2V260.6z"/>
	<path class="st17" d="M1807.6,300.9c-0.6,3-2.7,4.6-5.7,4.6c-4.3,0-6.3-3-6.4-7.1c0-4.1,2.7-7,6.3-7c4.8,0,6.2,4.4,6.1,7.7h-10.1
		c-0.1,2.3,1.2,4.4,4.2,4.4c1.8,0,3.1-0.9,3.5-2.6H1807.6z M1805.5,297.2c-0.1-2.1-1.7-3.8-3.9-3.8c-2.3,0-3.7,1.7-3.8,3.8H1805.5z"
		/>
	<path class="st17" d="M1810.1,291.8h2.1v2.1h0.1c0.9-1.7,2.4-2.4,4.4-2.4c3.5,0,4.6,2,4.6,4.9v8.8h-2.2v-9.1c0-1.7-1-2.7-2.7-2.7
		c-2.7,0-4,1.8-4,4.2v7.6h-2.2V291.8z"/>
	<path class="st17" d="M1830.6,305.2h-2.4l-5-13.4h2.5l3.8,11.2h0.1l3.7-11.2h2.3L1830.6,305.2z"/>
	<path class="st17" d="M1839.9,289.3h-2.2v-2.7h2.2V289.3z M1837.7,291.8h2.2v13.4h-2.2V291.8z"/>
	<path class="st17" d="M1843.2,291.8h2.1v2.8h0.1c1.1-2.2,2.5-3.2,4.9-3.1v2.3c-3.6,0-4.9,2-4.9,5.4v6h-2.2V291.8z"/>
	<path class="st17" d="M1857.8,291.5c4.3,0,6.5,3.1,6.5,7c0,3.9-2.3,7-6.5,7c-4.3,0-6.5-3.1-6.5-7
		C1851.2,294.5,1853.5,291.5,1857.8,291.5z M1857.8,303.6c2.3,0,4.2-1.8,4.2-5.1c0-3.2-1.9-5.1-4.2-5.1c-2.3,0-4.2,1.8-4.2,5.1
		C1853.6,301.7,1855.5,303.6,1857.8,303.6z"/>
	<path class="st17" d="M1866.9,291.8h2.1v2.1h0.1c0.9-1.7,2.4-2.4,4.4-2.4c3.5,0,4.6,2,4.6,4.9v8.8h-2.2v-9.1c0-1.7-1-2.7-2.7-2.7
		c-2.7,0-4,1.8-4,4.2v7.6h-2.2V291.8z"/>
	<path class="st17" d="M1881.4,291.8h2.1v2h0.1c1-1.5,2.4-2.3,4.3-2.3c1.7,0,3.1,0.6,3.7,2.3c0.9-1.5,2.5-2.3,4.2-2.3
		c2.7,0,4.5,1.1,4.5,3.9v9.9h-2.2v-8.8c0-1.7-0.4-3-2.6-3s-3.5,1.4-3.5,3.4v8.4h-2.2v-8.8c0-1.7-0.5-3-2.5-3c-2.6,0-3.6,2.4-3.6,3.4
		v8.4h-2.2V291.8z"/>
	<path class="st17" d="M1915,300.9c-0.6,3-2.7,4.6-5.7,4.6c-4.3,0-6.3-3-6.4-7.1c0-4.1,2.7-7,6.3-7c4.8,0,6.2,4.4,6.1,7.7h-10.1
		c-0.1,2.3,1.2,4.4,4.2,4.4c1.8,0,3.1-0.9,3.5-2.6H1915z M1912.9,297.2c-0.1-2.1-1.7-3.8-3.9-3.8c-2.3,0-3.7,1.7-3.8,3.8H1912.9z"/>
	<path class="st17" d="M1917.5,291.8h2.1v2.1h0.1c0.9-1.7,2.4-2.4,4.4-2.4c3.5,0,4.6,2,4.6,4.9v8.8h-2.2v-9.1c0-1.7-1-2.7-2.7-2.7
		c-2.7,0-4,1.8-4,4.2v7.6h-2.2V291.8z"/>
	<path class="st17" d="M1935,291.8h2.7v1.9h-2.7v8.3c0,1,0.3,1.2,1.7,1.2h1v2h-1.7c-2.3,0-3.2-0.5-3.2-2.9v-8.6h-2.3v-1.9h2.3v-4
		h2.2V291.8z"/>
	<path class="st17" d="M1797,324.9h-2.3v-2h2.3v-2c0-2.2,1.3-3.3,3.7-3.3c0.4,0,1,0.1,1.4,0.2v1.9c-0.4-0.1-0.9-0.2-1.2-0.2
		c-1.1,0-1.7,0.3-1.7,1.5v1.9h2.6v2h-2.6v11.5h-2.2V324.9z"/>
	<path class="st17" d="M1809.6,322.7c4.3,0,6.5,3.1,6.5,7c0,3.9-2.3,7-6.5,7c-4.3,0-6.5-3.1-6.5-7
		C1803.1,325.7,1805.4,322.7,1809.6,322.7z M1809.6,334.8c2.3,0,4.2-1.8,4.2-5.1c0-3.3-1.9-5.1-4.2-5.1c-2.3,0-4.2,1.8-4.2,5.1
		C1805.4,332.9,1807.3,334.8,1809.6,334.8z"/>
	<path class="st17" d="M1818.9,317.8h2.2v18.6h-2.2V317.8z"/>
	<path class="st17" d="M1824.6,317.8h2.2v18.6h-2.2V317.8z"/>
	<path class="st17" d="M1836.1,322.7c4.3,0,6.5,3.1,6.5,7c0,3.9-2.3,7-6.5,7c-4.3,0-6.5-3.1-6.5-7
		C1829.6,325.7,1831.8,322.7,1836.1,322.7z M1836.1,334.8c2.3,0,4.2-1.8,4.2-5.1c0-3.3-1.9-5.1-4.2-5.1c-2.3,0-4.2,1.8-4.2,5.1
		C1831.9,332.9,1833.8,334.8,1836.1,334.8z"/>
	<path class="st17" d="M1858.5,336.4h-2.3l-2.7-10.7h-0.1l-2.7,10.7h-2.4L1844,323h2.4l3,11h0.1l2.7-11h2.4l2.8,11h0.1l3-11h2.3
		L1858.5,336.4z"/>
	<path class="st17" d="M1867.3,320.5h-2.2v-2.7h2.2V320.5z M1865.1,323h2.2v13.4h-2.2V323z"/>
	<path class="st17" d="M1870.7,323h2.1v2.1h0.1c0.9-1.7,2.4-2.4,4.4-2.4c3.5,0,4.6,2,4.6,4.9v8.8h-2.2v-9.1c0-1.7-1-2.7-2.7-2.7
		c-2.7,0-4,1.8-4,4.2v7.6h-2.2V323z"/>
	<path class="st17" d="M1896.7,335.3c0,4.4-2,6.6-6.2,6.6c-2.5,0-5.4-1-5.6-4h2.2c0.1,1.6,2.1,2.2,3.5,2.2c2.9,0,4-2.1,4-5.1v-0.9
		h-0.1c-0.8,1.6-2.5,2.4-4.2,2.4c-4,0-6-3.1-6-6.8c0-3.2,1.5-7.1,6.2-7.1c1.7,0,3.2,0.8,4,2.2h0V323h2.1V335.3z M1894.6,329.4
		c0-2.4-1-4.8-3.8-4.8c-2.8,0-4,2.3-4,4.9c0,2.4,0.9,5.1,3.8,5.1S1894.6,331.9,1894.6,329.4z"/>
	<path class="st17" d="M1796.5,349h6.4c5.7,0,8.9,2.9,8.9,8.8c0,6.2-2.7,9.7-8.9,9.7h-6.4V349z M1799,365.5h4.1
		c1.7,0,6.2-0.5,6.2-7.3c0-4.4-1.6-7.1-6.2-7.1h-4.2V365.5z"/>
	<path class="st17" d="M1825.9,363.3c-0.6,3-2.7,4.6-5.7,4.6c-4.3,0-6.3-3-6.4-7.1c0-4.1,2.7-7,6.3-7c4.8,0,6.2,4.4,6.1,7.7H1816
		c-0.1,2.3,1.2,4.4,4.2,4.4c1.8,0,3.1-0.9,3.5-2.6H1825.9z M1823.8,359.6c-0.1-2.1-1.7-3.8-3.9-3.8c-2.3,0-3.7,1.7-3.8,3.8H1823.8z"
		/>
	<path class="st17" d="M1829.7,363.4c0.1,2,1.8,2.6,3.6,2.6c1.4,0,3.2-0.3,3.2-2c0-3.5-8.8-1.1-8.8-6.3c0-2.7,2.7-3.8,5-3.8
		c3,0,5.3,0.9,5.5,4.2h-2.2c-0.1-1.7-1.7-2.3-3.1-2.3c-1.3,0-2.9,0.4-2.9,1.7c0,1.6,2.3,1.9,4.4,2.3c2.2,0.5,4.4,1.2,4.4,3.8
		c0,3.2-3,4.2-5.7,4.2c-3,0-5.6-1.2-5.7-4.6H1829.7z"/>
	<path class="st17" d="M1843.7,351.7h-2.2V349h2.2V351.7z M1841.5,354.2h2.2v13.4h-2.2V354.2z"/>
	<path class="st17" d="M1858.8,366.5c0,4.4-2,6.6-6.2,6.6c-2.5,0-5.4-1-5.6-4h2.2c0.1,1.6,2.1,2.2,3.5,2.2c2.9,0,4-2.1,4-5.1v-0.9
		h-0.1c-0.8,1.6-2.5,2.4-4.2,2.4c-4,0-6-3.1-6-6.8c0-3.2,1.5-7.1,6.2-7.1c1.7,0,3.2,0.8,4,2.2h0v-1.9h2.1V366.5z M1856.6,360.6
		c0-2.4-1-4.8-3.8-4.8c-2.8,0-4,2.3-4,4.9c0,2.4,0.9,5.1,3.8,5.1S1856.6,363.1,1856.6,360.6z"/>
	<path class="st17" d="M1862.1,354.2h2.1v2.1h0.1c0.9-1.7,2.4-2.4,4.4-2.4c3.5,0,4.6,2,4.6,4.9v8.8h-2.2v-9.1c0-1.7-1-2.7-2.7-2.7
		c-2.7,0-4,1.8-4,4.2v7.6h-2.2V354.2z"/>
	<path class="st17" d="M1800.7,382.3h-6.2v-2.1h14.8v2.1h-6.2v16.5h-2.5V382.3z"/>
	<path class="st17" d="M1811,385.4h2.1v2.8h0.1c1.1-2.2,2.5-3.2,4.9-3.1v2.3c-3.6,0-4.9,2-4.9,5.4v6h-2.2V385.4z"/>
	<path class="st17" d="M1831.6,398.8c-0.4,0.2-0.9,0.4-1.6,0.4c-1.1,0-1.9-0.6-1.9-2.1c-1.2,1.5-2.9,2.1-4.7,2.1
		c-2.4,0-4.4-1.1-4.4-3.8c0-3,2.3-3.7,4.5-4.1c2.4-0.5,4.5-0.3,4.5-2c0-2-1.6-2.2-3-2.2c-1.9,0-3.2,0.6-3.4,2.5h-2.2
		c0.1-3.3,2.7-4.5,5.7-4.5c2.4,0,5,0.5,5,3.7v6.9c0,1,0,1.5,0.7,1.5c0.2,0,0.4-0.1,0.7-0.1V398.8z M1828,391.9
		c-1.7,1.3-6.7,0-6.7,3.3c0,1.5,1.2,2,2.6,2c2.9,0,4.1-1.8,4.1-3V391.9z"/>
	<path class="st17" d="M1833.7,385.4h2.1v2.1h0.1c0.9-1.7,2.4-2.4,4.4-2.4c3.5,0,4.6,2,4.6,4.9v8.8h-2.2v-9.1c0-1.7-1-2.7-2.7-2.7
		c-2.7,0-4,1.8-4,4.2v7.6h-2.2V385.4z"/>
	<path class="st17" d="M1849.5,394.6c0.1,2,1.8,2.6,3.6,2.6c1.4,0,3.2-0.3,3.2-2c0-3.5-8.8-1.1-8.8-6.3c0-2.7,2.7-3.8,5-3.8
		c3,0,5.3,0.9,5.5,4.2h-2.2c-0.1-1.7-1.7-2.3-3.1-2.3c-1.3,0-2.9,0.4-2.9,1.7c0,1.6,2.3,1.9,4.4,2.3c2.2,0.5,4.4,1.2,4.4,3.8
		c0,3.2-3,4.2-5.7,4.2c-3,0-5.6-1.2-5.7-4.6H1849.5z"/>
	<path class="st17" d="M1862,387.3h-2.3v-2h2.3v-2c0-2.2,1.3-3.3,3.7-3.3c0.4,0,1,0.1,1.4,0.2v1.9c-0.4-0.1-0.9-0.2-1.2-0.2
		c-1.1,0-1.7,0.3-1.7,1.5v1.9h2.6v2h-2.6v11.5h-2.2V387.3z"/>
	<path class="st17" d="M1880.3,394.5c-0.6,3-2.7,4.6-5.7,4.6c-4.3,0-6.3-3-6.4-7.1c0-4.1,2.7-7,6.3-7c4.8,0,6.2,4.4,6.1,7.7h-10.1
		c-0.1,2.3,1.2,4.4,4.2,4.4c1.8,0,3.1-0.9,3.5-2.6H1880.3z M1878.2,390.8c-0.1-2.1-1.7-3.8-3.9-3.8c-2.3,0-3.7,1.7-3.8,3.8H1878.2z"
		/>
	<path class="st17" d="M1882.7,385.4h2.1v2.8h0.1c1.1-2.2,2.5-3.2,4.9-3.1v2.3c-3.6,0-4.9,2-4.9,5.4v6h-2.2V385.4z"/>
</g>
<g>
	<rect x="994.2" y="890.4" class="st18" width="562.1" height="41.3"/>
	<path class="st17" d="M996.2,890.4h12.2v2.1h-9.7v5.9h8.5v2.1h-8.5v8.5h-2.5V890.4z"/>
	<path class="st17" d="M1016.5,895.2c4.3,0,6.5,3.1,6.5,7c0,3.9-2.3,7-6.5,7s-6.5-3.1-6.5-7C1010,898.3,1012.3,895.2,1016.5,895.2z
		 M1016.5,907.4c2.3,0,4.2-1.8,4.2-5.1s-1.9-5.1-4.2-5.1c-2.3,0-4.2,1.8-4.2,5.1S1014.2,907.4,1016.5,907.4z"/>
	<path class="st17" d="M1025.8,890.4h2.2V909h-2.2V890.4z"/>
	<path class="st17" d="M1031.6,890.4h2.2V909h-2.2V890.4z"/>
	<path class="st17" d="M1043,895.2c4.3,0,6.5,3.1,6.5,7c0,3.9-2.3,7-6.5,7c-4.3,0-6.5-3.1-6.5-7
		C1036.5,898.3,1038.7,895.2,1043,895.2z M1043,907.4c2.3,0,4.2-1.8,4.2-5.1s-1.9-5.1-4.2-5.1s-4.2,1.8-4.2,5.1
		S1040.7,907.4,1043,907.4z"/>
	<path class="st17" d="M1065.4,909h-2.3l-2.7-10.7h-0.1l-2.7,10.7h-2.4l-4.3-13.4h2.4l3,11h0.1l2.7-11h2.4l2.8,11h0.1l3-11h2.3
		L1065.4,909z"/>
	<path class="st17" d="M1079.4,890.4h6.4c5.7,0,8.9,2.9,8.9,8.8c0,6.2-2.7,9.7-8.9,9.7h-6.4V890.4z M1081.9,906.9h4.1
		c1.7,0,6.2-0.5,6.2-7.3c0-4.4-1.6-7.1-6.2-7.1h-4.2V906.9z"/>
	<path class="st17" d="M1108.8,904.7c-0.6,3-2.7,4.6-5.7,4.6c-4.3,0-6.3-3-6.4-7.1c0-4.1,2.7-7,6.3-7c4.8,0,6.2,4.4,6.1,7.7H1099
		c-0.1,2.3,1.2,4.4,4.2,4.4c1.8,0,3.1-0.9,3.5-2.6H1108.8z M1106.7,901c-0.1-2.1-1.7-3.8-3.9-3.8c-2.3,0-3.7,1.7-3.8,3.8H1106.7z"/>
	<path class="st17" d="M1112.7,904.8c0.1,2,1.8,2.6,3.6,2.6c1.4,0,3.2-0.3,3.2-2c0-3.5-8.8-1.1-8.8-6.3c0-2.7,2.7-3.8,5-3.8
		c3,0,5.3,0.9,5.5,4.2h-2.2c-0.1-1.7-1.7-2.3-3.1-2.3c-1.3,0-2.9,0.4-2.9,1.7c0,1.6,2.3,1.9,4.4,2.3c2.2,0.5,4.4,1.2,4.4,3.8
		c0,3.2-3,4.2-5.7,4.2c-3,0-5.6-1.2-5.7-4.6H1112.7z"/>
	<path class="st17" d="M1126.7,893.1h-2.2v-2.7h2.2V893.1z M1124.5,895.6h2.2V909h-2.2V895.6z"/>
	<path class="st17" d="M1141.7,907.9c0,4.4-2,6.6-6.2,6.6c-2.5,0-5.4-1-5.6-4h2.2c0.1,1.6,2.1,2.2,3.5,2.2c2.9,0,4-2.1,4-5.1v-0.9
		h-0.1c-0.8,1.6-2.5,2.4-4.2,2.4c-4,0-6-3.1-6-6.8c0-3.2,1.5-7.1,6.2-7.1c1.7,0,3.2,0.8,4,2.2h0v-1.9h2.1V907.9z M1139.5,902
		c0-2.4-1-4.8-3.8-4.8c-2.8,0-4,2.3-4,4.9c0,2.4,0.9,5.1,3.8,5.1S1139.5,904.5,1139.5,902z"/>
	<path class="st17" d="M1145,895.6h2.1v2.1h0.1c0.9-1.7,2.4-2.4,4.4-2.4c3.5,0,4.6,2,4.6,4.9v8.8h-2.2v-9.1c0-1.7-1-2.7-2.7-2.7
		c-2.7,0-4,1.8-4,4.2v7.6h-2.2V895.6z"/>
	<path class="st17" d="M1171.3,892.5h-6.2v-2.1h14.8v2.1h-6.2V909h-2.5V892.5z"/>
	<path class="st17" d="M1181.6,895.6h2.1v2.8h0.1c1.1-2.2,2.5-3.2,4.9-3.1v2.3c-3.6,0-4.9,2-4.9,5.4v6h-2.2V895.6z"/>
	<path class="st17" d="M1202.2,908.9c-0.4,0.2-0.9,0.4-1.6,0.4c-1.1,0-1.9-0.6-1.9-2.1c-1.2,1.5-2.9,2.1-4.7,2.1
		c-2.4,0-4.4-1.1-4.4-3.8c0-3,2.3-3.7,4.5-4.1c2.4-0.5,4.5-0.3,4.5-2c0-2-1.6-2.2-3-2.2c-1.9,0-3.2,0.6-3.4,2.5h-2.2
		c0.1-3.3,2.7-4.5,5.7-4.5c2.4,0,5,0.5,5,3.7v6.9c0,1,0,1.5,0.7,1.5c0.2,0,0.4-0.1,0.7-0.1V908.9z M1198.6,902.1
		c-1.7,1.3-6.7,0-6.7,3.3c0,1.5,1.2,2,2.6,2c2.9,0,4.1-1.8,4.1-3V902.1z"/>
	<path class="st17" d="M1204.3,895.6h2.1v2.1h0.1c0.9-1.7,2.4-2.4,4.4-2.4c3.5,0,4.6,2,4.6,4.9v8.8h-2.2v-9.1c0-1.7-1-2.7-2.7-2.7
		c-2.7,0-4,1.8-4,4.2v7.6h-2.2V895.6z"/>
	<path class="st17" d="M1220.1,904.8c0.1,2,1.8,2.6,3.6,2.6c1.4,0,3.2-0.3,3.2-2c0-3.5-8.8-1.1-8.8-6.3c0-2.7,2.7-3.8,5-3.8
		c3,0,5.3,0.9,5.5,4.2h-2.2c-0.1-1.7-1.7-2.3-3.1-2.3c-1.3,0-2.9,0.4-2.9,1.7c0,1.6,2.3,1.9,4.4,2.3c2.2,0.5,4.4,1.2,4.4,3.8
		c0,3.2-3,4.2-5.7,4.2c-3,0-5.6-1.2-5.7-4.6H1220.1z"/>
	<path class="st17" d="M1232.6,897.5h-2.3v-2h2.3v-2c0-2.2,1.3-3.3,3.7-3.3c0.4,0,1,0.1,1.4,0.2v1.9c-0.4-0.1-0.9-0.2-1.2-0.2
		c-1.1,0-1.7,0.3-1.7,1.5v1.9h2.6v2h-2.6V909h-2.2V897.5z"/>
	<path class="st17" d="M1250.9,904.7c-0.6,3-2.7,4.6-5.7,4.6c-4.3,0-6.3-3-6.4-7.1c0-4.1,2.7-7,6.3-7c4.8,0,6.2,4.4,6.1,7.7H1241
		c-0.1,2.3,1.2,4.4,4.2,4.4c1.8,0,3.1-0.9,3.5-2.6H1250.9z M1248.7,901c-0.1-2.1-1.7-3.8-3.9-3.8c-2.3,0-3.7,1.7-3.8,3.8H1248.7z"/>
	<path class="st17" d="M1253.3,895.6h2.1v2.8h0.1c1.1-2.2,2.5-3.2,4.9-3.1v2.3c-3.6,0-4.9,2-4.9,5.4v6h-2.2V895.6z"/>
	<path class="st17" d="M1281.2,908.9c-0.4,0.2-0.9,0.4-1.6,0.4c-1.1,0-1.9-0.6-1.9-2.1c-1.2,1.5-2.9,2.1-4.7,2.1
		c-2.4,0-4.4-1.1-4.4-3.8c0-3,2.3-3.7,4.5-4.1c2.4-0.5,4.5-0.3,4.5-2c0-2-1.6-2.2-3-2.2c-1.9,0-3.2,0.6-3.4,2.5h-2.2
		c0.1-3.3,2.7-4.5,5.7-4.5c2.4,0,5,0.5,5,3.7v6.9c0,1,0,1.5,0.7,1.5c0.2,0,0.4-0.1,0.7-0.1V908.9z M1277.6,902.1
		c-1.7,1.3-6.7,0-6.7,3.3c0,1.5,1.2,2,2.6,2c2.9,0,4.1-1.8,4.1-3V902.1z"/>
	<path class="st17" d="M1283.2,895.6h2.1v2.1h0.1c0.9-1.7,2.4-2.4,4.4-2.4c3.5,0,4.6,2,4.6,4.9v8.8h-2.2v-9.1c0-1.7-1-2.7-2.7-2.7
		c-2.7,0-4,1.8-4,4.2v7.6h-2.2V895.6z"/>
	<path class="st17" d="M1309.7,909h-2.2v-1.8h-0.1c-0.7,1.5-2.4,2.1-4.3,2.1c-4.1,0-6.2-3.3-6.2-7.1c0-3.8,2-7,6.1-7
		c1.4,0,3.4,0.5,4.3,2.1h0.1v-6.9h2.2V909z M1303.5,907.4c3,0,4.1-2.6,4.1-5.1c0-2.6-1.2-5.1-4.2-5.1c-3,0-4,2.6-4,5.2
		C1299.3,904.9,1300.6,907.4,1303.5,907.4z"/>
	<path class="st17" d="M1320.2,895.6h2.1v2.8h0.1c1.1-2.2,2.5-3.2,4.9-3.1v2.3c-3.6,0-4.9,2-4.9,5.4v6h-2.2V895.6z"/>
	<path class="st17" d="M1340.4,904.7c-0.6,3-2.7,4.6-5.7,4.6c-4.3,0-6.3-3-6.4-7.1c0-4.1,2.7-7,6.3-7c4.8,0,6.2,4.4,6.1,7.7h-10.1
		c-0.1,2.3,1.2,4.4,4.2,4.4c1.8,0,3.1-0.9,3.5-2.6H1340.4z M1338.3,901c-0.1-2.1-1.7-3.8-3.9-3.8c-2.3,0-3.7,1.7-3.8,3.8H1338.3z"/>
	<path class="st17" d="M1343.1,890.4h2.2V909h-2.2V890.4z"/>
	<path class="st17" d="M1360.2,904.7c-0.6,3-2.7,4.6-5.7,4.6c-4.3,0-6.3-3-6.4-7.1c0-4.1,2.7-7,6.3-7c4.8,0,6.2,4.4,6.1,7.7h-10.1
		c-0.1,2.3,1.2,4.4,4.2,4.4c1.8,0,3.1-0.9,3.5-2.6H1360.2z M1358,901c-0.1-2.1-1.7-3.8-3.9-3.8c-2.3,0-3.7,1.7-3.8,3.8H1358z"/>
	<path class="st17" d="M1374.6,908.9c-0.4,0.2-0.9,0.4-1.6,0.4c-1.1,0-1.9-0.6-1.9-2.1c-1.2,1.5-2.9,2.1-4.7,2.1
		c-2.4,0-4.4-1.1-4.4-3.8c0-3,2.3-3.7,4.5-4.1c2.4-0.5,4.5-0.3,4.5-2c0-2-1.6-2.2-3-2.2c-1.9,0-3.2,0.6-3.4,2.5h-2.2
		c0.1-3.3,2.7-4.5,5.7-4.5c2.4,0,5,0.5,5,3.7v6.9c0,1,0,1.5,0.7,1.5c0.2,0,0.4-0.1,0.7-0.1V908.9z M1371,902.1
		c-1.7,1.3-6.7,0-6.7,3.3c0,1.5,1.2,2,2.6,2c2.9,0,4.1-1.8,4.1-3V902.1z"/>
	<path class="st17" d="M1378,904.8c0.1,2,1.8,2.6,3.6,2.6c1.4,0,3.2-0.3,3.2-2c0-3.5-8.8-1.1-8.8-6.3c0-2.7,2.7-3.8,5-3.8
		c3,0,5.3,0.9,5.5,4.2h-2.2c-0.1-1.7-1.7-2.3-3.1-2.3c-1.3,0-2.9,0.4-2.9,1.7c0,1.6,2.3,1.9,4.4,2.3c2.2,0.5,4.4,1.2,4.4,3.8
		c0,3.2-3,4.2-5.7,4.2c-3,0-5.6-1.2-5.7-4.6H1378z"/>
	<path class="st17" d="M1401.1,904.7c-0.6,3-2.7,4.6-5.7,4.6c-4.3,0-6.3-3-6.4-7.1c0-4.1,2.7-7,6.3-7c4.8,0,6.2,4.4,6.1,7.7h-10.1
		c-0.1,2.3,1.2,4.4,4.2,4.4c1.8,0,3.1-0.9,3.5-2.6H1401.1z M1399,901c-0.1-2.1-1.7-3.8-3.9-3.8c-2.3,0-3.7,1.7-3.8,3.8H1399z"/>
	<path class="st17" d="M1413.9,895.6h2.7v2h-2.7v8.3c0,1,0.3,1.2,1.7,1.2h1v2h-1.7c-2.3,0-3.2-0.5-3.2-2.9v-8.6h-2.3v-2h2.3v-4h2.2
		V895.6z"/>
	<path class="st17" d="M1424.8,895.2c4.3,0,6.5,3.1,6.5,7c0,3.9-2.3,7-6.5,7c-4.3,0-6.5-3.1-6.5-7
		C1418.3,898.3,1420.6,895.2,1424.8,895.2z M1424.8,907.4c2.3,0,4.2-1.8,4.2-5.1s-1.9-5.1-4.2-5.1s-4.2,1.8-4.2,5.1
		S1422.5,907.4,1424.8,907.4z"/>
	<path class="st17" d="M1450.3,899.9c-0.3-1.7-1.5-2.7-3.3-2.7c-3.2,0-4.2,2.5-4.2,5.3c0,2.5,1.1,4.9,3.9,4.9c2.2,0,3.4-1.2,3.7-3.3
		h2.3c-0.5,3.3-2.5,5.2-5.9,5.2c-4.1,0-6.3-2.8-6.3-6.9s2.1-7.2,6.3-7.2c3.1,0,5.5,1.4,5.8,4.6H1450.3z"/>
	<path class="st17" d="M1455.3,890.4h2.2V909h-2.2V890.4z"/>
	<path class="st17" d="M1463.2,893.1h-2.2v-2.7h2.2V893.1z M1461,895.6h2.2V909h-2.2V895.6z"/>
	<path class="st17" d="M1478.1,904.7c-0.6,3-2.7,4.6-5.7,4.6c-4.3,0-6.3-3-6.4-7.1c0-4.1,2.7-7,6.3-7c4.8,0,6.2,4.4,6.1,7.7h-10.1
		c-0.1,2.3,1.2,4.4,4.2,4.4c1.8,0,3.1-0.9,3.5-2.6H1478.1z M1476,901c-0.1-2.1-1.7-3.8-3.9-3.8c-2.3,0-3.7,1.7-3.8,3.8H1476z"/>
	<path class="st17" d="M1480.6,895.6h2.1v2.1h0.1c0.9-1.7,2.4-2.4,4.4-2.4c3.5,0,4.6,2,4.6,4.9v8.8h-2.2v-9.1c0-1.7-1-2.7-2.7-2.7
		c-2.7,0-4,1.8-4,4.2v7.6h-2.2V895.6z"/>
	<path class="st17" d="M1498.2,895.6h2.7v2h-2.7v8.3c0,1,0.3,1.2,1.7,1.2h1v2h-1.7c-2.3,0-3.2-0.5-3.2-2.9v-8.6h-2.3v-2h2.3v-4h2.2
		V895.6z"/>
	<path class="st17" d="M1504.6,904.8c0.1,2,1.8,2.6,3.6,2.6c1.4,0,3.2-0.3,3.2-2c0-3.5-8.8-1.1-8.8-6.3c0-2.7,2.7-3.8,5-3.8
		c3,0,5.3,0.9,5.5,4.2h-2.2c-0.1-1.7-1.7-2.3-3.1-2.3c-1.3,0-2.9,0.4-2.9,1.7c0,1.6,2.3,1.9,4.4,2.3c2.2,0.5,4.4,1.2,4.4,3.8
		c0,3.2-3,4.2-5.7,4.2c-3,0-5.6-1.2-5.7-4.6H1504.6z"/>
</g>
<g>
	<g>
		<path class="st17" d="M872.6,488.4h-6.2v-2.1h14.8v2.1H875v16.5h-2.5V488.4z"/>
		<path class="st17" d="M882.8,491.5h2.1v2.8h0.1c1.1-2.2,2.5-3.2,4.9-3.1v2.3c-3.6,0-4.9,2-4.9,5.4v6h-2.2V491.5z"/>
		<path class="st17" d="M903.5,504.9c-0.4,0.2-0.9,0.4-1.6,0.4c-1.1,0-1.9-0.6-1.9-2.1c-1.2,1.5-2.9,2.1-4.7,2.1
			c-2.4,0-4.4-1.1-4.4-3.8c0-3,2.3-3.7,4.5-4.1c2.4-0.5,4.5-0.3,4.5-2c0-2-1.6-2.2-3-2.2c-1.9,0-3.2,0.6-3.4,2.5h-2.2
			c0.1-3.3,2.7-4.5,5.7-4.5c2.4,0,5,0.5,5,3.7v6.9c0,1,0,1.5,0.7,1.5c0.2,0,0.4-0.1,0.7-0.1V504.9z M899.9,498
			c-1.7,1.3-6.7,0-6.7,3.3c0,1.5,1.2,2,2.6,2c2.9,0,4.1-1.8,4.1-3V498z"/>
		<path class="st17" d="M914.7,495.8c-0.3-1.7-1.5-2.7-3.3-2.7c-3.2,0-4.2,2.5-4.2,5.3c0,2.5,1.1,4.9,3.9,4.9c2.2,0,3.4-1.2,3.7-3.3
			h2.3c-0.5,3.3-2.5,5.2-5.9,5.2c-4.1,0-6.3-2.8-6.3-6.9c0-4,2.1-7.2,6.3-7.2c3.1,0,5.5,1.4,5.8,4.6H914.7z"/>
		<path class="st17" d="M931,500.6c-0.6,3-2.7,4.6-5.7,4.6c-4.3,0-6.3-3-6.4-7.1c0-4.1,2.7-7,6.3-7c4.8,0,6.2,4.4,6.1,7.7h-10.1
			c-0.1,2.3,1.2,4.4,4.2,4.4c1.8,0,3.1-0.9,3.5-2.6H931z M928.8,496.9c-0.1-2.1-1.7-3.8-3.9-3.8c-2.3,0-3.7,1.7-3.8,3.8H928.8z"/>
		<path class="st17" d="M867.9,522.7h2.1v2.8h0.1c1.1-2.2,2.5-3.2,4.9-3.1v2.3c-3.6,0-4.9,2-4.9,5.4v6h-2.2V522.7z"/>
		<path class="st17" d="M888.1,531.8c-0.6,3-2.7,4.6-5.7,4.6c-4.3,0-6.3-3-6.4-7.1c0-4.1,2.7-7,6.3-7c4.8,0,6.2,4.4,6.1,7.7h-10.1
			c-0.1,2.3,1.2,4.4,4.2,4.4c1.8,0,3.1-0.9,3.5-2.6H888.1z M886,528.1c-0.1-2.1-1.7-3.8-3.9-3.8c-2.3,0-3.7,1.7-3.8,3.8H886z"/>
		<path class="st17" d="M902.6,541.3h-2.2v-7h-0.1c-0.7,1.5-2.4,2.1-4.3,2.1c-4.1,0-6.2-3.3-6.2-7.1c0-3.8,2-7,6.1-7
			c1.4,0,3.4,0.5,4.3,2.1h0.1v-1.8h2.2V541.3z M896.4,534.5c3,0,4.1-2.6,4.1-5.1c0-2.6-1.2-5.1-4.2-5.1c-3,0-4,2.6-4,5.2
			C892.2,532,893.5,534.5,896.4,534.5z"/>
		<path class="st17" d="M917.2,536.1h-2.1V534H915c-0.9,1.7-2.4,2.4-4.4,2.4c-3.5,0-4.6-2-4.6-4.9v-8.8h2.2v9.1c0,1.7,1,2.7,2.7,2.7
			c2.7,0,4-1.8,4-4.2v-7.6h2.2V536.1z"/>
		<path class="st17" d="M922.8,520.2h-2.2v-2.7h2.2V520.2z M920.6,522.7h2.2v13.4h-2.2V522.7z"/>
		<path class="st17" d="M926.2,522.7h2.1v2.8h0.1c1.1-2.2,2.5-3.2,4.9-3.1v2.3c-3.6,0-4.9,2-4.9,5.4v6h-2.2V522.7z"/>
		<path class="st17" d="M946.4,531.8c-0.6,3-2.7,4.6-5.7,4.6c-4.3,0-6.3-3-6.4-7.1c0-4.1,2.7-7,6.3-7c4.8,0,6.2,4.4,6.1,7.7h-10.1
			c-0.1,2.3,1.2,4.4,4.2,4.4c1.8,0,3.1-0.9,3.5-2.6H946.4z M944.3,528.1c-0.1-2.1-1.7-3.8-3.9-3.8c-2.3,0-3.7,1.7-3.8,3.8H944.3z"/>
		<path class="st17" d="M948.5,527.8h7.5v2.1h-7.5V527.8z"/>
		<path class="st17" d="M868,553.9h2.1v2h0.1c1-1.5,2.4-2.3,4.3-2.3c1.7,0,3.1,0.6,3.7,2.3c0.9-1.5,2.5-2.3,4.2-2.3
			c2.7,0,4.5,1.1,4.5,3.9v9.9h-2.2v-8.8c0-1.7-0.4-3-2.6-3s-3.5,1.4-3.5,3.4v8.4h-2.2v-8.8c0-1.7-0.5-3-2.5-3
			c-2.6,0-3.6,2.4-3.6,3.4v8.4H868V553.9z"/>
		<path class="st17" d="M901.6,563c-0.6,3-2.7,4.6-5.7,4.6c-4.3,0-6.3-3-6.4-7.1c0-4.1,2.7-7,6.3-7c4.8,0,6.2,4.4,6.1,7.7h-10.1
			c-0.1,2.3,1.2,4.4,4.2,4.4c1.8,0,3.1-0.9,3.5-2.6H901.6z M899.5,559.3c-0.1-2.1-1.7-3.8-3.9-3.8c-2.3,0-3.7,1.7-3.8,3.8H899.5z"/>
		<path class="st17" d="M904.1,553.9h2.1v2.1h0.1c0.9-1.7,2.4-2.4,4.4-2.4c3.5,0,4.6,2,4.6,4.9v8.8h-2.2v-9.1c0-1.7-1-2.7-2.7-2.7
			c-2.7,0-4,1.8-4,4.2v7.6h-2.2V553.9z"/>
		<path class="st17" d="M921.7,553.9h2.7v2h-2.7v8.3c0,1,0.3,1.2,1.7,1.2h1v2h-1.7c-2.3,0-3.2-0.5-3.2-2.9v-8.6h-2.3v-2h2.3v-4h2.2
			V553.9z"/>
		<path class="st17" d="M928.1,563.1c0.1,2,1.8,2.6,3.6,2.6c1.4,0,3.2-0.3,3.2-2c0-3.5-8.8-1.1-8.8-6.3c0-2.7,2.7-3.8,5-3.8
			c3,0,5.3,0.9,5.5,4.2h-2.2c-0.1-1.7-1.7-2.3-3.1-2.3c-1.3,0-2.9,0.4-2.9,1.7c0,1.6,2.3,1.9,4.4,2.3c2.2,0.5,4.4,1.2,4.4,3.8
			c0,3.2-3,4.2-5.7,4.2c-3,0-5.6-1.2-5.7-4.6H928.1z"/>
	</g>
</g>
<g>
	<rect x="1016.6" y="536.3" class="st18" width="112.1" height="44.7"/>
	<path class="st17" d="M1049.5,554.9h-2.8l-6.6-18.6h2.7l5.3,16.1h0.1l5.4-16.1h2.6L1049.5,554.9z"/>
	<path class="st17" d="M1069.2,550.6c-0.6,3-2.7,4.6-5.7,4.6c-4.3,0-6.3-3-6.4-7.1c0-4.1,2.7-7,6.3-7c4.8,0,6.2,4.4,6.1,7.7h-10.1
		c-0.1,2.3,1.2,4.4,4.2,4.4c1.8,0,3.1-0.9,3.5-2.6H1069.2z M1067,546.9c-0.1-2.1-1.7-3.8-3.9-3.8c-2.3,0-3.7,1.7-3.8,3.8H1067z"/>
	<path class="st17" d="M1071.6,541.5h2.1v2.8h0.1c1.1-2.2,2.5-3.2,4.9-3.1v2.3c-3.6,0-4.9,2-4.9,5.4v6h-2.2V541.5z"/>
	<path class="st17" d="M1082.6,539h-2.2v-2.7h2.2V539z M1080.4,541.5h2.2v13.4h-2.2V541.5z"/>
	<path class="st17" d="M1087,543.4h-2.3v-2h2.3v-2c0-2.2,1.3-3.3,3.7-3.3c0.4,0,1,0.1,1.4,0.2v1.9c-0.4-0.1-0.9-0.2-1.2-0.2
		c-1.1,0-1.7,0.3-1.7,1.5v1.9h2.6v2h-2.6v11.5h-2.2V543.4z"/>
	<path class="st17" d="M1099,556.7c-1,2.6-1.9,3.6-3.9,3.6c-0.5,0-1-0.1-1.5-0.2v-2c0.4,0.1,0.9,0.3,1.3,0.3c0.9,0,1.4-0.4,1.8-1.2
		l0.9-2.3l-5.3-13.4h2.5l3.9,11h0.1l3.8-11h2.3L1099,556.7z"/>
</g>
<g>
	<rect x="1171.8" y="536.3" class="st18" width="112.1" height="44.7"/>
	<path class="st17" d="M1190.7,554.9h-2.8l-6.6-18.6h2.7l5.3,16.1h0.1l5.4-16.1h2.6L1190.7,554.9z"/>
	<path class="st17" d="M1210.8,554.9c-0.4,0.2-0.9,0.4-1.6,0.4c-1.1,0-1.9-0.6-1.9-2.1c-1.2,1.5-2.9,2.1-4.7,2.1
		c-2.4,0-4.4-1.1-4.4-3.8c0-3,2.3-3.7,4.6-4.1c2.4-0.5,4.5-0.3,4.5-2c0-2-1.6-2.2-3-2.2c-1.9,0-3.3,0.6-3.4,2.5h-2.2
		c0.1-3.3,2.7-4.5,5.7-4.5c2.4,0,5,0.5,5,3.7v6.9c0,1,0,1.5,0.7,1.5c0.2,0,0.4-0.1,0.7-0.1V554.9z M1207.2,548
		c-1.7,1.3-6.7,0-6.7,3.3c0,1.5,1.2,2,2.6,2c2.9,0,4.1-1.8,4.1-3V548z"/>
	<path class="st17" d="M1213,536.3h2.2v18.6h-2.2V536.3z"/>
	<path class="st17" d="M1221,539h-2.2v-2.7h2.2V539z M1218.7,541.5h2.2v13.4h-2.2V541.5z"/>
	<path class="st17" d="M1236.4,554.9h-2.2v-1.8h-0.1c-0.7,1.5-2.4,2.1-4.3,2.1c-4.1,0-6.2-3.3-6.2-7.1c0-3.8,2-7,6.1-7
		c1.4,0,3.4,0.5,4.3,2.1h0.1v-6.9h2.2V554.9z M1230.2,553.3c3,0,4.1-2.6,4.1-5.1c0-2.6-1.2-5.1-4.2-5.1c-3,0-4,2.6-4,5.2
		C1226,550.8,1227.3,553.3,1230.2,553.3z"/>
	<path class="st17" d="M1251.7,554.9c-0.4,0.2-0.9,0.4-1.6,0.4c-1.1,0-1.9-0.6-1.9-2.1c-1.2,1.5-2.9,2.1-4.7,2.1
		c-2.4,0-4.4-1.1-4.4-3.8c0-3,2.3-3.7,4.5-4.1c2.4-0.5,4.5-0.3,4.5-2c0-2-1.6-2.2-3-2.2c-1.9,0-3.2,0.6-3.4,2.5h-2.2
		c0.1-3.3,2.7-4.5,5.7-4.5c2.4,0,5,0.5,5,3.7v6.9c0,1,0,1.5,0.7,1.5c0.2,0,0.4-0.1,0.7-0.1V554.9z M1248.1,548
		c-1.7,1.3-6.7,0-6.7,3.3c0,1.5,1.2,2,2.6,2c2.9,0,4.1-1.8,4.1-3V548z"/>
	<path class="st17" d="M1256.8,541.5h2.7v2h-2.7v8.3c0,1,0.3,1.2,1.7,1.2h1v2h-1.7c-2.3,0-3.2-0.5-3.2-2.9v-8.6h-2.3v-2h2.3v-4h2.2
		V541.5z"/>
	<path class="st17" d="M1273.4,550.6c-0.6,3-2.7,4.6-5.7,4.6c-4.3,0-6.3-3-6.4-7.1c0-4.1,2.7-7,6.3-7c4.8,0,6.2,4.4,6.1,7.7h-10.1
		c-0.1,2.3,1.2,4.4,4.2,4.4c1.8,0,3.1-0.9,3.5-2.6H1273.4z M1271.3,546.9c-0.1-2.1-1.7-3.8-3.9-3.8c-2.3,0-3.7,1.7-3.8,3.8H1271.3z"
		/>
</g>
<g>
	<rect x="1590.1" y="252.7" class="st18" width="134.7" height="102.5"/>
	<path class="st4" d="M1621.1,254.8h-6.2v-2.1h14.8v2.1h-6.2v16.5h-2.5V254.8z"/>
	<path class="st4" d="M1642.9,267c-0.6,3-2.7,4.6-5.7,4.6c-4.3,0-6.3-3-6.4-7.1c0-4.1,2.7-7,6.3-7c4.8,0,6.2,4.4,6.1,7.7H1633
		c-0.1,2.3,1.2,4.4,4.2,4.4c1.8,0,3.1-0.9,3.5-2.6H1642.9z M1640.8,263.3c-0.1-2.1-1.7-3.8-3.9-3.8c-2.3,0-3.7,1.7-3.8,3.8H1640.8z"
		/>
	<path class="st4" d="M1646.7,267c0.1,2,1.8,2.6,3.6,2.6c1.4,0,3.2-0.3,3.2-2c0-3.5-8.8-1.1-8.8-6.3c0-2.7,2.7-3.8,5-3.8
		c3,0,5.3,0.9,5.5,4.2h-2.2c-0.1-1.7-1.7-2.3-3.1-2.3c-1.3,0-2.9,0.4-2.9,1.7c0,1.6,2.3,1.9,4.4,2.3c2.2,0.5,4.4,1.2,4.4,3.8
		c0,3.2-3,4.2-5.7,4.2c-3,0-5.6-1.2-5.7-4.6H1646.7z"/>
	<path class="st4" d="M1661.5,257.8h2.7v2h-2.7v8.3c0,1,0.3,1.2,1.7,1.2h1v2h-1.7c-2.3,0-3.2-0.5-3.2-2.9v-8.6h-2.3v-2h2.3v-4h2.2
		V257.8z"/>
	<path class="st4" d="M1668.9,255.4h-2.2v-2.7h2.2V255.4z M1666.7,257.8h2.2v13.4h-2.2V257.8z"/>
	<path class="st4" d="M1672.4,257.8h2.1v2.1h0.1c0.9-1.7,2.4-2.4,4.4-2.4c3.5,0,4.6,2,4.6,4.9v8.8h-2.2v-9.1c0-1.7-1-2.7-2.7-2.7
		c-2.7,0-4,1.8-4,4.2v7.6h-2.2V257.8z"/>
	<path class="st4" d="M1698.4,270.1c0,4.4-2,6.6-6.2,6.6c-2.5,0-5.4-1-5.6-4h2.2c0.1,1.6,2.1,2.2,3.5,2.2c2.9,0,4-2.1,4-5.1V269
		h-0.1c-0.8,1.6-2.5,2.4-4.2,2.4c-4,0-6-3.1-6-6.8c0-3.2,1.5-7.1,6.2-7.1c1.7,0,3.2,0.8,4,2.2h0v-1.9h2.1V270.1z M1696.2,264.3
		c0-2.4-1-4.8-3.8-4.8c-2.8,0-4,2.3-4,4.9c0,2.4,0.9,5.1,3.8,5.1S1696.2,266.8,1696.2,264.3z"/>
	<path class="st4" d="M1608.5,289.5c-0.5-2.6-2.6-4-5.2-4c-4.4,0-6.3,3.6-6.3,7.5c0,4.2,1.9,7.8,6.3,7.8c3.2,0,5.1-2.3,5.4-5.4h2.5
		c-0.5,4.7-3.3,7.4-8,7.4c-5.7,0-8.6-4.3-8.6-9.7s3.1-9.8,8.8-9.8c3.9,0,7.1,2.1,7.6,6H1608.5z"/>
	<path class="st4" d="M1619.6,288.7c4.3,0,6.5,3.1,6.5,7c0,3.9-2.3,7-6.5,7s-6.5-3.1-6.5-7C1613.1,291.8,1615.4,288.7,1619.6,288.7z
		 M1619.6,300.8c2.3,0,4.2-1.8,4.2-5.1c0-3.3-1.9-5.1-4.2-5.1s-4.2,1.8-4.2,5.1C1615.4,299,1617.3,300.8,1619.6,300.8z"/>
	<path class="st4" d="M1628.8,289h2.1v2h0.1c1-1.5,2.4-2.3,4.3-2.3c1.7,0,3.1,0.6,3.7,2.3c0.9-1.5,2.5-2.3,4.2-2.3
		c2.7,0,4.5,1.1,4.5,3.9v9.9h-2.2v-8.8c0-1.7-0.4-3-2.6-3s-3.5,1.4-3.5,3.4v8.4h-2.2v-8.8c0-1.7-0.5-3-2.5-3c-2.6,0-3.6,2.4-3.6,3.4
		v8.4h-2.2V289z"/>
	<path class="st4" d="M1650.9,289h2.1v2h0.1c1-1.5,2.4-2.3,4.3-2.3c1.7,0,3.1,0.6,3.7,2.3c0.9-1.5,2.5-2.3,4.2-2.3
		c2.7,0,4.5,1.1,4.5,3.9v9.9h-2.2v-8.8c0-1.7-0.4-3-2.6-3s-3.5,1.4-3.5,3.4v8.4h-2.2v-8.8c0-1.7-0.5-3-2.5-3c-2.6,0-3.6,2.4-3.6,3.4
		v8.4h-2.2V289z"/>
	<path class="st4" d="M1675.5,286.6h-2.2v-2.7h2.2V286.6z M1673.2,289h2.2v13.4h-2.2V289z"/>
	<path class="st4" d="M1681.9,289h2.7v2h-2.7v8.3c0,1,0.3,1.2,1.7,1.2h1v2h-1.7c-2.3,0-3.2-0.5-3.2-2.9V291h-2.3v-2h2.3v-4h2.2V289z
		"/>
	<path class="st4" d="M1690.1,289h2.7v2h-2.7v8.3c0,1,0.3,1.2,1.7,1.2h1v2h-1.7c-2.3,0-3.2-0.5-3.2-2.9V291h-2.3v-2h2.3v-4h2.2V289z
		"/>
	<path class="st4" d="M1706.7,298.2c-0.6,3-2.7,4.6-5.7,4.6c-4.3,0-6.3-3-6.4-7.1c0-4.1,2.7-7,6.3-7c4.8,0,6.2,4.4,6.1,7.7h-10.1
		c-0.1,2.3,1.2,4.4,4.2,4.4c1.8,0,3.1-0.9,3.5-2.6H1706.7z M1704.6,294.5c-0.1-2.1-1.7-3.8-3.9-3.8c-2.3,0-3.7,1.7-3.8,3.8H1704.6z"
		/>
	<path class="st4" d="M1720.7,298.2c-0.6,3-2.7,4.6-5.7,4.6c-4.3,0-6.3-3-6.4-7.1c0-4.1,2.7-7,6.3-7c4.8,0,6.2,4.4,6.1,7.7h-10.1
		c-0.1,2.3,1.2,4.4,4.2,4.4c1.8,0,3.1-0.9,3.5-2.6H1720.7z M1718.6,294.5c-0.1-2.1-1.7-3.8-3.9-3.8c-2.3,0-3.7,1.7-3.8,3.8H1718.6z"
		/>
	<path class="st4" d="M1617.4,315.1h8.7c3.5,0,5.6,1.9,5.6,4.9c0,2.3-1,4.1-3.2,4.7v0.1c2.2,0.4,2.6,2,2.8,3.8
		c0.1,1.8,0.1,3.9,1.1,5.1h-2.8c-0.7-0.8-0.3-2.8-0.7-4.6c-0.3-1.8-0.7-3.4-3.1-3.4h-6v7.9h-2.5V315.1z M1625,323.7
		c2.3,0,4.3-0.6,4.3-3.3c0-1.8-1-3.2-3.3-3.2h-6.1v6.5H1625z"/>
	<path class="st4" d="M1646.3,329.4c-0.6,3-2.7,4.6-5.7,4.6c-4.3,0-6.3-3-6.4-7.1c0-4.1,2.7-7,6.3-7c4.8,0,6.2,4.4,6.1,7.7h-10.1
		c-0.1,2.3,1.2,4.4,4.2,4.4c1.8,0,3.1-0.9,3.5-2.6H1646.3z M1644.2,325.7c-0.1-2.1-1.7-3.8-3.9-3.8c-2.3,0-3.7,1.7-3.8,3.8H1644.2z"
		/>
	<path class="st4" d="M1654.8,333.7h-2.4l-5-13.4h2.5l3.8,11.2h0.1l3.7-11.2h2.3L1654.8,333.7z"/>
	<path class="st4" d="M1664.1,317.8h-2.2v-2.7h2.2V317.8z M1661.9,320.2h2.2v13.4h-2.2V320.2z"/>
	<path class="st4" d="M1679,329.4c-0.6,3-2.7,4.6-5.7,4.6c-4.3,0-6.3-3-6.4-7.1c0-4.1,2.7-7,6.3-7c4.8,0,6.2,4.4,6.1,7.7h-10.1
		c-0.1,2.3,1.2,4.4,4.2,4.4c1.8,0,3.1-0.9,3.5-2.6H1679z M1676.9,325.7c-0.1-2.1-1.7-3.8-3.9-3.8c-2.3,0-3.7,1.7-3.8,3.8H1676.9z"/>
	<path class="st4" d="M1694.8,333.7h-2.3l-2.7-10.7h-0.1l-2.7,10.7h-2.4l-4.3-13.4h2.4l3,11h0.1l2.7-11h2.4l2.8,11h0.1l3-11h2.3
		L1694.8,333.7z"/>
</g>
<g>
	<path class="st19" d="M1666.4,356.2c0-0.3-0.3-0.6-0.5-0.6h-13.1c-0.3,0-0.5,0.3-0.5,0.6c0,0.3,0.2,0.6,0.5,0.6h13.1
		C1666.2,356.8,1666.4,356.5,1666.4,356.2L1666.4,356.2z"/>
	<path class="st19" d="M1663.2,362.4c-0.2,0.2-0.2,0.6,0,0.8c0.2,0.2,0.3,0.2,0.5,0.2c0.2,0,0.3,0,0.5-0.2l6.5-6.5
		c0.2-0.2,0.2-0.6,0-0.8l-6.5-6.5c-0.2-0.2-0.6-0.2-0.8,0c-0.2,0.2-0.2,0.6,0,0.8l6.2,6.2L1663.2,362.4z"/>
	<circle class="st20" cx="1661.5" cy="356.2" r="13.6"/>
</g>
<g>
	<path class="st19" d="M681.3,611.5c0-0.3-0.3-0.6-0.5-0.6h-13.1c-0.3,0-0.5,0.3-0.5,0.6c0,0.3,0.2,0.6,0.5,0.6h13.1
		C681.1,612.1,681.3,611.8,681.3,611.5L681.3,611.5z"/>
	<path class="st19" d="M678.1,617.6c-0.2,0.2-0.2,0.6,0,0.8c0.2,0.2,0.3,0.2,0.5,0.2c0.2,0,0.3,0,0.5-0.2l6.5-6.5
		c0.2-0.2,0.2-0.6,0-0.8l-6.5-6.5c-0.2-0.2-0.6-0.2-0.8,0c-0.2,0.2-0.2,0.6,0,0.8l6.2,6.2L678.1,617.6z"/>
	<circle class="st20" cx="676.4" cy="611.5" r="13.6"/>
</g>
<g>
	<path class="st19" d="M214.8,611.5c0-0.3-0.3-0.6-0.5-0.6h-13.1c-0.3,0-0.5,0.3-0.5,0.6c0,0.3,0.2,0.6,0.5,0.6h13.1
		C214.6,612.1,214.8,611.8,214.8,611.5L214.8,611.5z"/>
	<path class="st19" d="M211.6,617.6c-0.2,0.2-0.2,0.6,0,0.8c0.2,0.2,0.3,0.2,0.5,0.2c0.2,0,0.3,0,0.5-0.2l6.5-6.5
		c0.2-0.2,0.2-0.6,0-0.8l-6.5-6.5c-0.2-0.2-0.6-0.2-0.8,0c-0.2,0.2-0.2,0.6,0,0.8l6.2,6.2L211.6,617.6z"/>
	<circle class="st20" cx="209.9" cy="611.5" r="13.6"/>
</g>
<g>
</g>
<g>
</g>
<g>
</g>
<g>
</g>
<g>
</g>
<g>
</g>
<g>
</g>
</svg>
