<?xml version="1.0" encoding="utf-8"?>
<!-- Generator: Adobe Illustrator 19.2.0, SVG Export Plug-In . SVG Version: 6.00 Build 0)  -->
<svg version="1.1" id="Layer_1" xmlns="http://www.w3.org/2000/svg" xmlns:xlink="http://www.w3.org/1999/xlink" x="0px" y="0px"
	 viewBox="0 0 2048 1000" style="enable-background:new 0 0 2048 1000;" xml:space="preserve">
<style type="text/css">
	.st0{fill:#B9E5FB;}
	.st1{fill:#116BB4;}
	.st2{fill:#FFFFFF;}
	.st3{fill:#2C5871;}
	.st4{fill:#D1ECFB;}
	.st5{fill:none;stroke:#343636;stroke-width:4.9841;stroke-miterlimit:10;}
	.st6{fill:#231F20;}
	.st7{fill:none;}
	.st8{fill:#333333;}
	.st9{fill:#4EA8DE;}
	.st10{fill-rule:evenodd;clip-rule:evenodd;fill:#DAE1E6;}
	.st11{fill-rule:evenodd;clip-rule:evenodd;fill:#D1D1D1;}
	.st12{fill-rule:evenodd;clip-rule:evenodd;fill:#ECF0F1;}
	.st13{fill-rule:evenodd;clip-rule:evenodd;fill:#C0392B;}
	.st14{fill-rule:evenodd;clip-rule:evenodd;fill:#BDC3C7;}
	.st15{fill-rule:evenodd;clip-rule:evenodd;fill:#95A5A6;}
	.st16{fill-rule:evenodd;clip-rule:evenodd;fill:#C0C0C0;}
	.st17{fill-rule:evenodd;clip-rule:evenodd;fill:#B3B3B3;}
</style>
<rect class="st0" width="2048" height="1000"/>
<g>
</g>
<rect x="1.5" y="640.1" class="st1" width="2046.5" height="360.6"/>
<g>
	<g>
		<polygon class="st2" points="1678.9,954 1678.9,488.7 1678.9,283.9 1517.3,137.1 412.5,137.1 412.5,954 		"/>
		<g>
			<polygon class="st3" points="1517.3,283.9 1678.9,283.9 1517.3,137.1 			"/>
			<polygon class="st4" points="1678.9,283.9 1517.3,283.9 1678.9,430.6 			"/>
		</g>
	</g>
</g>
<line class="st5" x1="50.8" y1="53.7" x2="1997.5" y2="53.7"/>
<g>
	<g>
		<path class="st6" d="M54.3,76h13.6c10.1,0,14.5,7.4,14.5,16.4s-4.4,16.4-14.5,16.4H54.3V76z M60,104.1h5.7c9,0,10.9-5.1,10.9-11.7
			c0-6.6-1.9-11.7-10.9-11.7H60V104.1z"/>
		<path class="st6" d="M90.8,98.3c0,3.7,2,7,6.4,7c3.1,0,4.9-1.3,5.8-4h5c-1.1,5.2-5.6,8.1-10.8,8.1c-7.5,0-11.6-5.2-11.6-12.5
			c0-6.8,4.4-12.6,11.5-12.6c7.5,0,12.1,6.8,11.2,13.9H90.8z M103.1,94.8c-0.2-3.3-2.4-6.3-6-6.3c-3.6,0-6.1,2.8-6.3,6.3H103.1z"/>
		<path class="st6" d="M116.3,101.2c0.3,3.1,2.6,4.1,5.4,4.1c2,0,5.4-0.4,5.3-3.1c-0.1-2.8-4-3.1-7.8-4c-3.9-0.8-7.6-2.2-7.6-7
			c0-5.2,5.6-6.8,9.9-6.8c4.9,0,9.3,2,9.9,7.3h-5.5c-0.5-2.5-2.5-3.2-4.8-3.2c-1.5,0-4.3,0.4-4.3,2.4c0,2.6,3.9,3,7.7,3.8
			c3.8,0.9,7.7,2.3,7.7,6.9c0,5.7-5.7,7.7-10.6,7.7c-6,0-10.4-2.7-10.5-8.3H116.3z"/>
		<path class="st6" d="M136.3,76h5.2v5h-5.2V76z M136.3,85h5.2v23.8h-5.2V85z"/>
		<path class="st6" d="M169.3,107.6c0,7.2-4.1,10.7-11.7,10.7c-4.8,0-10.1-1.8-10.6-7.4h5.2c0.6,3,3,3.5,5.7,3.5
			c4.2,0,6.1-2.2,6.1-6.1v-3.6h-0.1c-1.5,2.6-4.2,4.2-7.1,4.2c-7.5,0-10.7-5.7-10.7-12.5c0-6.4,4-11.9,10.8-11.9c3,0,5.7,1.2,7,3.9
			h0.1V85h5.2V107.6z M164,96.4c0-4.1-1.8-7.9-6.4-7.9c-4.6,0-6.3,4.3-6.3,8.3c0,3.9,1.9,7.9,6.3,7.9
			C162.3,104.7,164,100.5,164,96.4z"/>
		<path class="st6" d="M174.5,85h5v3.5l0.1,0.1c1.6-2.6,4.3-4.2,7.4-4.2c5.2,0,8.4,2.7,8.4,8.1v16.3h-5.2v-15
			c-0.1-3.7-1.5-5.3-4.6-5.3c-3.5,0-5.8,2.8-5.8,6.3v14h-5.2V85z"/>
		<path class="st6" d="M214.3,76h5.8V89h15V76h5.8v32.8H235V94h-15v14.8h-5.8V76z"/>
		<path class="st6" d="M247.1,76h5.2v5h-5.2V76z M247.1,85h5.2v23.8h-5.2V85z"/>
		<path class="st6" d="M262,101.2c0.3,3.1,2.6,4.1,5.4,4.1c2,0,5.4-0.4,5.3-3.1c-0.1-2.8-4-3.1-7.8-4c-3.9-0.8-7.6-2.2-7.6-7
			c0-5.2,5.6-6.8,9.9-6.8c4.9,0,9.3,2,9.9,7.3h-5.5c-0.5-2.5-2.5-3.2-4.8-3.2c-1.5,0-4.3,0.4-4.3,2.4c0,2.6,3.9,3,7.7,3.8
			c3.8,0.9,7.7,2.3,7.7,6.9c0,5.7-5.7,7.7-10.6,7.7c-6,0-10.4-2.7-10.5-8.3H262z"/>
		<path class="st6" d="M279.5,85h4v-7.1h5.2V85h4.7v3.9h-4.7v12.7c0,2.2,0.2,3.3,2.5,3.3c0.7,0,1.5,0,2.2-0.2v4
			c-1.1,0.1-2.3,0.3-3.4,0.3c-5.5,0-6.4-2.1-6.6-6.1v-14h-4V85z"/>
		<path class="st6" d="M296.1,96.9c0-7.2,4.4-12.5,12-12.5s12,5.3,12,12.5c0,7.3-4.4,12.6-12,12.6S296.1,104.2,296.1,96.9z
			 M314.9,96.9c0-4.1-2.1-8.4-6.8-8.4s-6.8,4.3-6.8,8.4c0,4.1,2.1,8.4,6.8,8.4S314.9,101,314.9,96.9z"/>
		<path class="st6" d="M324.5,85h4.9v4.6h0.1c0.6-2.5,3.8-5.2,6.9-5.2c1.2,0,1.5,0.1,2,0.1v5.1c-0.7-0.1-1.5-0.2-2.3-0.2
			c-3.5,0-6.4,2.9-6.4,8.1v11.3h-5.2V85z"/>
		<path class="st6" d="M338.1,85h5.8l6.2,17.8h0.1l6-17.8h5.5l-9.2,25.1c-1.7,4.3-2.9,8.1-8.4,8.1c-1.2,0-2.4-0.1-3.6-0.3v-4.4
			c0.9,0.1,1.6,0.3,2.5,0.3c2.4,0,3.1-1.3,3.7-3.3l0.6-1.8L338.1,85z"/>
		<path class="st6" d="M378.1,76h22.7v5h-16.9v8.6h14.9v4.7h-14.9v14.6h-5.8V76z"/>
		<path class="st6" d="M404.8,76h5.2v5h-5.2V76z M404.8,85h5.2v23.8h-5.2V85z"/>
		<path class="st6" d="M415.9,76h5.2v32.8h-5.2V76z"/>
		<path class="st6" d="M430.9,98.3c0,3.7,2,7,6.4,7c3.1,0,4.9-1.3,5.8-4h5c-1.1,5.2-5.6,8.1-10.8,8.1c-7.5,0-11.6-5.2-11.6-12.5
			c0-6.8,4.4-12.6,11.5-12.6c7.5,0,12.1,6.8,11.2,13.9H430.9z M443.1,94.8c-0.2-3.3-2.4-6.3-6-6.3c-3.6,0-6.1,2.8-6.3,6.3H443.1z"/>
	</g>
</g>
<g>
	<rect x="601.9" y="211.4" class="st7" width="814.1" height="74.8"/>
	<path class="st8" d="M604.2,211.4h8.9c6.6,0,9.5,4.8,9.5,10.7c0,5.9-2.8,10.7-9.5,10.7h-8.9V211.4z M608,229.7h3.7
		c5.9,0,7.1-3.3,7.1-7.7c0-4.3-1.3-7.6-7.1-7.6H608V229.7z"/>
	<path class="st8" d="M628.1,225.9c0,2.4,1.3,4.6,4.2,4.6c2,0,3.2-0.9,3.8-2.6h3.2c-0.7,3.4-3.7,5.3-7,5.3c-4.9,0-7.6-3.4-7.6-8.2
		c0-4.4,2.9-8.2,7.5-8.2c4.9,0,7.9,4.4,7.3,9.1H628.1z M636.1,223.7c-0.1-2.2-1.6-4.1-3.9-4.1c-2.4,0-4,1.8-4.1,4.1H636.1z"/>
	<path class="st8" d="M644.7,227.8c0.2,2,1.7,2.7,3.5,2.7c1.3,0,3.5-0.3,3.5-2c-0.1-1.8-2.6-2-5.1-2.6c-2.5-0.5-5-1.4-5-4.6
		c0-3.4,3.7-4.4,6.5-4.4c3.2,0,6.1,1.3,6.5,4.8H651c-0.3-1.7-1.6-2.1-3.2-2.1c-1,0-2.8,0.2-2.8,1.6c0,1.7,2.5,2,5,2.5
		c2.5,0.6,5,1.5,5,4.5c0,3.7-3.7,5-6.9,5c-3.9,0-6.8-1.7-6.9-5.4H644.7z"/>
	<path class="st8" d="M657.7,211.4h3.4v3.2h-3.4V211.4z M657.7,217.3h3.4v15.5h-3.4V217.3z"/>
	<path class="st8" d="M679.2,232c0,4.7-2.7,7-7.6,7c-3.1,0-6.6-1.2-6.9-4.8h3.4c0.4,1.9,2,2.3,3.7,2.3c2.8,0,4-1.4,4-4v-2.4h-0.1
		c-1,1.7-2.7,2.7-4.6,2.7c-4.9,0-7-3.7-7-8.2c0-4.2,2.6-7.8,7-7.8c2,0,3.7,0.8,4.6,2.5h0.1v-2.1h3.4V232z M675.8,224.7
		c0-2.7-1.2-5.1-4.2-5.1c-3,0-4.1,2.8-4.1,5.4c0,2.5,1.2,5.1,4.1,5.1C674.7,230.1,675.8,227.4,675.8,224.7z"/>
	<path class="st8" d="M682.7,217.3h3.2v2.3l0.1,0.1c1-1.7,2.8-2.8,4.8-2.8c3.4,0,5.5,1.8,5.5,5.3v10.6h-3.4V223
		c-0.1-2.4-1-3.5-3-3.5c-2.3,0-3.8,1.8-3.8,4.1v9.1h-3.4V217.3z"/>
	<path class="st8" d="M708.6,211.4h3.8v8.5h9.8v-8.5h3.8v21.4h-3.8v-9.7h-9.8v9.7h-3.8V211.4z"/>
	<path class="st8" d="M730,211.4h3.4v3.2H730V211.4z M730,217.3h3.4v15.5H730V217.3z"/>
	<path class="st8" d="M739.7,227.8c0.2,2,1.7,2.7,3.5,2.7c1.3,0,3.5-0.3,3.5-2c-0.1-1.8-2.6-2-5.1-2.6c-2.5-0.5-5-1.4-5-4.6
		c0-3.4,3.7-4.4,6.5-4.4c3.2,0,6.1,1.3,6.5,4.8H746c-0.3-1.7-1.6-2.1-3.2-2.1c-1,0-2.8,0.2-2.8,1.6c0,1.7,2.5,2,5,2.5
		c2.5,0.6,5,1.5,5,4.5c0,3.7-3.7,5-6.9,5c-3.9,0-6.8-1.7-6.9-5.4H739.7z"/>
	<path class="st8" d="M751.1,217.3h2.6v-4.6h3.4v4.6h3.1v2.6h-3.1v8.3c0,1.4,0.1,2.1,1.6,2.1c0.5,0,1,0,1.4-0.1v2.6
		c-0.8,0.1-1.5,0.2-2.2,0.2c-3.6,0-4.2-1.4-4.3-4v-9.1h-2.6V217.3z"/>
	<path class="st8" d="M762,225c0-4.7,2.9-8.2,7.8-8.2c5,0,7.8,3.5,7.8,8.2c0,4.8-2.9,8.2-7.8,8.2C764.8,233.2,762,229.8,762,225z
		 M774.2,225c0-2.7-1.3-5.5-4.4-5.5c-3.1,0-4.4,2.8-4.4,5.5c0,2.7,1.3,5.5,4.4,5.5C772.9,230.5,774.2,227.7,774.2,225z"/>
	<path class="st8" d="M780.5,217.3h3.2v3h0.1c0.4-1.6,2.5-3.4,4.5-3.4c0.8,0,1,0.1,1.3,0.1v3.3c-0.5-0.1-1-0.2-1.5-0.2
		c-2.3,0-4.2,1.9-4.2,5.3v7.4h-3.4V217.3z"/>
	<path class="st8" d="M789.3,217.3h3.8l4,11.6h0.1l3.9-11.6h3.6l-6,16.3c-1.1,2.8-1.9,5.3-5.5,5.3c-0.8,0-1.6-0.1-2.4-0.2v-2.9
		c0.6,0.1,1.1,0.2,1.6,0.2c1.6,0,2-0.8,2.4-2.2l0.4-1.2L789.3,217.3z"/>
	<path class="st8" d="M815.4,211.4h14.8v3.2h-11v5.6h9.7v3.1h-9.7v9.5h-3.7V211.4z"/>
	<path class="st8" d="M832.8,211.4h3.4v3.2h-3.4V211.4z M832.8,217.3h3.4v15.5h-3.4V217.3z"/>
	<path class="st8" d="M840.1,211.4h3.4v21.4h-3.4V211.4z"/>
	<path class="st8" d="M849.9,225.9c0,2.4,1.3,4.6,4.2,4.6c2,0,3.2-0.9,3.8-2.6h3.2c-0.7,3.4-3.7,5.3-7,5.3c-4.9,0-7.6-3.4-7.6-8.2
		c0-4.4,2.9-8.2,7.5-8.2c4.9,0,7.9,4.4,7.3,9.1H849.9z M857.8,223.7c-0.1-2.2-1.6-4.1-3.9-4.1c-2.4,0-4,1.8-4.1,4.1H857.8z"/>
	<path class="st8" d="M872.3,211.4h3.4v3.2h-3.4V211.4z M872.3,217.3h3.4v15.5h-3.4V217.3z"/>
	<path class="st8" d="M882,227.8c0.2,2,1.7,2.7,3.5,2.7c1.3,0,3.5-0.3,3.5-2c-0.1-1.8-2.6-2-5.1-2.6c-2.5-0.5-5-1.4-5-4.6
		c0-3.4,3.7-4.4,6.5-4.4c3.2,0,6.1,1.3,6.5,4.8h-3.6c-0.3-1.7-1.6-2.1-3.2-2.1c-1,0-2.8,0.2-2.8,1.6c0,1.7,2.5,2,5,2.5
		c2.5,0.6,5,1.5,5,4.5c0,3.7-3.7,5-6.9,5c-3.9,0-6.8-1.7-6.9-5.4H882z"/>
	<path class="st8" d="M901.8,217.3h2.6v-4.6h3.4v4.6h3.1v2.6h-3.1v8.3c0,1.4,0.1,2.1,1.6,2.1c0.5,0,1,0,1.4-0.1v2.6
		c-0.8,0.1-1.5,0.2-2.2,0.2c-3.6,0-4.2-1.4-4.3-4v-9.1h-2.6V217.3z"/>
	<path class="st8" d="M913.3,211.4h3.4v7.9h0.1c0.8-1.4,2.6-2.5,4.7-2.5c3.4,0,5.5,1.8,5.5,5.3v10.6h-3.4V223c-0.1-2.4-1-3.5-3-3.5
		c-2.3,0-3.8,1.8-3.8,4.1v9.1h-3.4V211.4z"/>
	<path class="st8" d="M933.2,225.9c0,2.4,1.3,4.6,4.2,4.6c2,0,3.2-0.9,3.8-2.6h3.2c-0.7,3.4-3.7,5.3-7,5.3c-4.9,0-7.6-3.4-7.6-8.2
		c0-4.4,2.9-8.2,7.5-8.2c4.9,0,7.9,4.4,7.3,9.1H933.2z M941.2,223.7c-0.1-2.2-1.6-4.1-3.9-4.1c-2.4,0-4,1.8-4.1,4.1H941.2z"/>
	<path class="st8" d="M966.1,222.5c-0.3-1.9-1.6-2.9-3.5-2.9c-1.8,0-4.3,1-4.3,5.6c0,2.6,1.1,5.3,4.1,5.3c2,0,3.4-1.3,3.7-3.5h3.4
		c-0.6,4-3.1,6.2-7.1,6.2c-4.9,0-7.5-3.5-7.5-8c0-4.7,2.5-8.3,7.6-8.3c3.6,0,6.7,1.8,7,5.6H966.1z"/>
	<path class="st8" d="M971.5,225c0-4.7,2.9-8.2,7.8-8.2c5,0,7.8,3.5,7.8,8.2c0,4.8-2.9,8.2-7.8,8.2
		C974.4,233.2,971.5,229.8,971.5,225z M983.8,225c0-2.7-1.3-5.5-4.4-5.5c-3.1,0-4.4,2.8-4.4,5.5c0,2.7,1.3,5.5,4.4,5.5
		C982.4,230.5,983.8,227.7,983.8,225z"/>
	<path class="st8" d="M990.1,217.3h3.2v2.2h0.1c1-1.5,2.3-2.6,4.8-2.6c1.9,0,3.7,0.8,4.3,2.6c1.2-1.6,2.6-2.6,4.9-2.6
		c3.3,0,5.2,1.5,5.2,5.2v10.7h-3.4v-9.1c0-2.5-0.1-4.2-2.8-4.2c-2.3,0-3.3,1.5-3.3,4.1v9.1h-3.4v-10c0-2.2-0.7-3.3-2.7-3.3
		c-1.8,0-3.4,1.5-3.4,4v9.2h-3.4V217.3z"/>
	<path class="st8" d="M1016.2,217.3h3.2v2.1h0.1c1-1.8,2.8-2.5,4.8-2.5c4.9,0,7.3,3.7,7.3,8.2c0,4.2-2.1,8.1-6.7,8.1
		c-2,0-4.1-0.7-5.2-2.4h-0.1v7.7h-3.4V217.3z M1023.9,219.6c-2.9,0-4.4,2.2-4.4,5.5c0,3.1,1.6,5.5,4.4,5.5c3.1,0,4.3-2.8,4.3-5.5
		C1028.2,222.3,1026.7,219.6,1023.9,219.6z"/>
	<path class="st8" d="M1034.6,211.4h3.4v3.2h-3.4V211.4z M1034.6,217.3h3.4v15.5h-3.4V217.3z"/>
	<path class="st8" d="M1041.8,211.4h3.4v21.4h-3.4V211.4z"/>
	<path class="st8" d="M1061.9,229.3c0,0.8,0.2,1.2,0.8,1.2h0.4c0.2,0,0.3,0,0.5-0.1v2.4c-0.5,0.2-1.6,0.4-2.2,0.4
		c-1.4,0-2.4-0.5-2.6-1.9c-1.3,1.3-3.5,1.9-5.4,1.9c-2.8,0-5.3-1.5-5.3-4.5c0-3.9,3.1-4.5,6-4.8c2.5-0.5,4.6-0.2,4.6-2.2
		c0-1.8-1.9-2.1-3.2-2.1c-1.9,0-3.3,0.8-3.4,2.5h-3.4c0.2-4,3.6-5.2,7-5.2c3,0,6.2,1.2,6.2,4.5V229.3z M1058.5,225
		c-1,0.7-2.7,0.7-4.2,0.9c-1.5,0.2-2.8,0.8-2.8,2.6c0,1.6,2,2,3.1,2c1.5,0,3.8-0.8,3.8-2.9V225z"/>
	<path class="st8" d="M1064.1,217.3h2.6v-4.6h3.4v4.6h3.1v2.6h-3.1v8.3c0,1.4,0.1,2.1,1.6,2.1c0.5,0,1,0,1.4-0.1v2.6
		c-0.8,0.1-1.5,0.2-2.2,0.2c-3.6,0-4.2-1.4-4.3-4v-9.1h-2.6V217.3z"/>
	<path class="st8" d="M1075.7,211.4h3.4v3.2h-3.4V211.4z M1075.7,217.3h3.4v15.5h-3.4V217.3z"/>
	<path class="st8" d="M1082.1,225c0-4.7,2.9-8.2,7.8-8.2c5,0,7.8,3.5,7.8,8.2c0,4.8-2.9,8.2-7.8,8.2
		C1085,233.2,1082.1,229.8,1082.1,225z M1094.4,225c0-2.7-1.3-5.5-4.4-5.5c-3.1,0-4.4,2.8-4.4,5.5c0,2.7,1.3,5.5,4.4,5.5
		C1093,230.5,1094.4,227.7,1094.4,225z"/>
	<path class="st8" d="M1100.6,217.3h3.2v2.3l0.1,0.1c1-1.7,2.8-2.8,4.8-2.8c3.4,0,5.5,1.8,5.5,5.3v10.6h-3.4V223
		c-0.1-2.4-1-3.5-3-3.5c-2.3,0-3.8,1.8-3.8,4.1v9.1h-3.4V217.3z"/>
	<path class="st8" d="M1125.5,225c0-4.7,2.9-8.2,7.8-8.2c5,0,7.8,3.5,7.8,8.2c0,4.8-2.9,8.2-7.8,8.2
		C1128.4,233.2,1125.5,229.8,1125.5,225z M1137.7,225c0-2.7-1.3-5.5-4.4-5.5c-3.1,0-4.4,2.8-4.4,5.5c0,2.7,1.3,5.5,4.4,5.5
		C1136.4,230.5,1137.7,227.7,1137.7,225z"/>
	<path class="st8" d="M1142.5,217.3h2.6V216c0-4,2.1-4.6,4.3-4.6c1.1,0,1.9,0.1,2.4,0.2v2.7c-0.5-0.1-0.9-0.2-1.6-0.2
		c-0.9,0-1.7,0.3-1.7,1.6v1.6h2.9v2.6h-2.9v13h-3.4v-13h-2.6V217.3z"/>
	<path class="st8" d="M1161.8,217.3h3.2v3h0.1c0.4-1.6,2.5-3.4,4.5-3.4c0.8,0,1,0.1,1.3,0.1v3.3c-0.5-0.1-1-0.2-1.5-0.2
		c-2.3,0-4.2,1.9-4.2,5.3v7.4h-3.4V217.3z"/>
	<path class="st8" d="M1174.5,225.9c0,2.4,1.3,4.6,4.2,4.6c2,0,3.2-0.9,3.8-2.6h3.2c-0.7,3.4-3.7,5.3-7,5.3c-4.9,0-7.6-3.4-7.6-8.2
		c0-4.4,2.9-8.2,7.5-8.2c4.9,0,7.9,4.4,7.3,9.1H1174.5z M1182.4,223.7c-0.1-2.2-1.6-4.1-3.9-4.1c-2.4,0-4,1.8-4.1,4.1H1182.4z"/>
	<path class="st8" d="M1198.9,222.5c-0.3-1.9-1.6-2.9-3.5-2.9c-1.8,0-4.3,1-4.3,5.6c0,2.6,1.1,5.3,4.1,5.3c2,0,3.4-1.3,3.7-3.5h3.4
		c-0.6,4-3.1,6.2-7.1,6.2c-4.9,0-7.5-3.5-7.5-8c0-4.7,2.5-8.3,7.6-8.3c3.6,0,6.7,1.8,7,5.6H1198.9z"/>
	<path class="st8" d="M1204.4,225c0-4.7,2.9-8.2,7.8-8.2c5,0,7.8,3.5,7.8,8.2c0,4.8-2.9,8.2-7.8,8.2
		C1207.3,233.2,1204.4,229.8,1204.4,225z M1216.7,225c0-2.7-1.3-5.5-4.4-5.5c-3.1,0-4.4,2.8-4.4,5.5c0,2.7,1.3,5.5,4.4,5.5
		C1215.3,230.5,1216.7,227.7,1216.7,225z"/>
	<path class="st8" d="M1222.9,217.3h3.2v3h0.1c0.4-1.6,2.5-3.4,4.5-3.4c0.8,0,1,0.1,1.3,0.1v3.3c-0.5-0.1-1-0.2-1.5-0.2
		c-2.3,0-4.2,1.9-4.2,5.3v7.4h-3.4V217.3z"/>
	<path class="st8" d="M1247.6,232.8h-3.2v-2.1h-0.1c-0.9,1.8-2.8,2.5-4.8,2.5c-4.9,0-7.3-3.6-7.3-8.3c0-5.6,3.3-8.1,6.7-8.1
		c1.9,0,4.1,0.7,5.2,2.4h0.1v-7.9h3.4V232.8z M1239.9,230.5c3,0,4.3-2.8,4.3-5.5c0-3.5-1.6-5.5-4.3-5.5c-3.2,0-4.3,2.9-4.3,5.6
		C1235.6,227.9,1236.9,230.5,1239.9,230.5z"/>
	<path class="st8" d="M1253.9,227.8c0.2,2,1.7,2.7,3.5,2.7c1.3,0,3.5-0.3,3.5-2c-0.1-1.8-2.6-2-5.1-2.6c-2.5-0.5-5-1.4-5-4.6
		c0-3.4,3.7-4.4,6.5-4.4c3.2,0,6.1,1.3,6.5,4.8h-3.6c-0.3-1.7-1.6-2.1-3.2-2.1c-1,0-2.8,0.2-2.8,1.6c0,1.7,2.5,2,5,2.5
		c2.5,0.6,5,1.5,5,4.5c0,3.7-3.7,5-6.9,5c-3.9,0-6.8-1.7-6.9-5.4H1253.9z"/>
	<path class="st8" d="M1282.1,217.3h3.6l3,11.6h0.1l2.9-11.6h3.5l2.8,11.6h0.1l3.1-11.6h3.5l-4.9,15.5h-3.5l-2.9-11.5h-0.1
		l-2.8,11.5h-3.6L1282.1,217.3z"/>
	<path class="st8" d="M1306.9,211.4h3.4v7.9h0.1c0.8-1.4,2.6-2.5,4.7-2.5c3.4,0,5.5,1.8,5.5,5.3v10.6h-3.4V223c-0.1-2.4-1-3.5-3-3.5
		c-2.3,0-3.8,1.8-3.8,4.1v9.1h-3.4V211.4z"/>
	<path class="st8" d="M1324.2,211.4h3.4v3.2h-3.4V211.4z M1324.2,217.3h3.4v15.5h-3.4V217.3z"/>
	<path class="st8" d="M1341.8,222.5c-0.3-1.9-1.6-2.9-3.5-2.9c-1.8,0-4.3,1-4.3,5.6c0,2.6,1.1,5.3,4.1,5.3c2,0,3.4-1.3,3.7-3.5h3.4
		c-0.6,4-3.1,6.2-7.1,6.2c-4.9,0-7.5-3.5-7.5-8c0-4.7,2.5-8.3,7.6-8.3c3.6,0,6.7,1.8,7,5.6H1341.8z"/>
	<path class="st8" d="M1348,211.4h3.4v7.9h0.1c0.8-1.4,2.6-2.5,4.7-2.5c3.4,0,5.5,1.8,5.5,5.3v10.6h-3.4V223c-0.1-2.4-1-3.5-3-3.5
		c-2.3,0-3.8,1.8-3.8,4.1v9.1h-3.4V211.4z"/>
	<path class="st8" d="M618.4,268.8h-3.2v-2.1h-0.1c-0.9,1.8-2.8,2.5-4.8,2.5c-4.9,0-7.3-3.6-7.3-8.3c0-5.6,3.3-8.1,6.7-8.1
		c1.9,0,4.1,0.7,5.2,2.4h0.1v-7.9h3.4V268.8z M610.7,266.5c3,0,4.3-2.8,4.3-5.5c0-3.5-1.6-5.5-4.3-5.5c-3.2,0-4.3,2.9-4.3,5.6
		C606.4,263.9,607.7,266.5,610.7,266.5z"/>
	<path class="st8" d="M624.7,261.9c0,2.4,1.3,4.6,4.2,4.6c2,0,3.2-0.9,3.8-2.6h3.2c-0.7,3.4-3.7,5.3-7,5.3c-4.9,0-7.6-3.4-7.6-8.2
		c0-4.4,2.9-8.2,7.5-8.2c4.9,0,7.9,4.4,7.3,9.1H624.7z M632.7,259.7c-0.1-2.2-1.6-4.1-3.9-4.1c-2.4,0-4,1.8-4.1,4.1H632.7z"/>
	<path class="st8" d="M641.3,263.8c0.2,2,1.7,2.7,3.5,2.7c1.3,0,3.5-0.3,3.5-2c-0.1-1.8-2.6-2-5.1-2.6c-2.5-0.5-5-1.4-5-4.6
		c0-3.4,3.7-4.4,6.5-4.4c3.2,0,6.1,1.3,6.5,4.8h-3.6c-0.3-1.7-1.6-2.1-3.2-2.1c-1,0-2.8,0.2-2.8,1.6c0,1.7,2.5,2,5,2.5
		c2.5,0.6,5,1.5,5,4.5c0,3.7-3.7,5-6.9,5c-3.9,0-6.8-1.7-6.9-5.4H641.3z"/>
	<path class="st8" d="M664.8,258.5c-0.3-1.9-1.6-2.9-3.5-2.9c-1.8,0-4.3,1-4.3,5.6c0,2.6,1.1,5.3,4.1,5.3c2,0,3.4-1.3,3.7-3.5h3.4
		c-0.6,4-3.1,6.2-7.1,6.2c-4.9,0-7.5-3.5-7.5-8c0-4.7,2.5-8.3,7.6-8.3c3.6,0,6.7,1.8,7,5.6H664.8z"/>
	<path class="st8" d="M671,253.3h3.2v3h0.1c0.4-1.6,2.5-3.4,4.5-3.4c0.8,0,1,0.1,1.3,0.1v3.3c-0.5-0.1-1-0.2-1.5-0.2
		c-2.3,0-4.2,1.9-4.2,5.3v7.4H671V253.3z"/>
	<path class="st8" d="M681.7,247.4h3.4v3.2h-3.4V247.4z M681.7,253.3h3.4v15.5h-3.4V253.3z"/>
	<path class="st8" d="M688.9,247.4h3.4v7.9h0.1c1-1.5,2.8-2.4,4.6-2.4c4.9,0,7.3,3.7,7.3,8.2c0,4.2-2.1,8.1-6.7,8.1
		c-2.1,0-4.3-0.5-5.4-2.5h-0.1v2.1h-3.2V247.4z M696.5,255.6c-2.9,0-4.4,2.2-4.4,5.5c0,3.1,1.6,5.5,4.4,5.5c3.1,0,4.3-2.8,4.3-5.5
		C700.8,258.3,699.4,255.6,696.5,255.6z"/>
	<path class="st8" d="M709.8,261.9c0,2.4,1.3,4.6,4.2,4.6c2,0,3.2-0.9,3.8-2.6h3.2c-0.7,3.4-3.7,5.3-7,5.3c-4.9,0-7.6-3.4-7.6-8.2
		c0-4.4,2.9-8.2,7.5-8.2c4.9,0,7.9,4.4,7.3,9.1H709.8z M717.8,259.7c-0.1-2.2-1.6-4.1-3.9-4.1c-2.4,0-4,1.8-4.1,4.1H717.8z"/>
	<path class="st8" d="M726.4,263.8c0.2,2,1.7,2.7,3.5,2.7c1.3,0,3.5-0.3,3.5-2c-0.1-1.8-2.6-2-5.1-2.6c-2.5-0.5-5-1.4-5-4.6
		c0-3.4,3.7-4.4,6.5-4.4c3.2,0,6.1,1.3,6.5,4.8h-3.6c-0.3-1.7-1.6-2.1-3.2-2.1c-1,0-2.8,0.2-2.8,1.6c0,1.7,2.5,2,5,2.5
		c2.5,0.6,5,1.5,5,4.5c0,3.7-3.7,5-6.9,5c-3.9,0-6.8-1.7-6.9-5.4H726.4z"/>
	<path class="st8" d="M746.2,253.3h2.6v-4.6h3.4v4.6h3.1v2.6h-3.1v8.3c0,1.4,0.1,2.1,1.6,2.1c0.5,0,1,0,1.4-0.1v2.6
		c-0.8,0.1-1.5,0.2-2.2,0.2c-3.6,0-4.2-1.4-4.3-4v-9.1h-2.6V253.3z"/>
	<path class="st8" d="M757.7,247.4h3.4v7.9h0.1c0.8-1.4,2.6-2.5,4.7-2.5c3.4,0,5.5,1.8,5.5,5.3v10.6h-3.4V259c-0.1-2.4-1-3.5-3-3.5
		c-2.3,0-3.8,1.8-3.8,4.1v9.1h-3.4V247.4z"/>
	<path class="st8" d="M777.6,261.9c0,2.4,1.3,4.6,4.2,4.6c2,0,3.2-0.9,3.8-2.6h3.2c-0.7,3.4-3.7,5.3-7,5.3c-4.9,0-7.6-3.4-7.6-8.2
		c0-4.4,2.9-8.2,7.5-8.2c4.9,0,7.9,4.4,7.3,9.1H777.6z M785.6,259.7c-0.1-2.2-1.6-4.1-3.9-4.1c-2.4,0-4,1.8-4.1,4.1H785.6z"/>
	<path class="st8" d="M814.6,268.8h-3.2v-2.1h-0.1c-0.9,1.8-2.8,2.5-4.8,2.5c-4.9,0-7.3-3.6-7.3-8.3c0-5.6,3.3-8.1,6.7-8.1
		c1.9,0,4.1,0.7,5.2,2.4h0.1v-7.9h3.4V268.8z M806.9,266.5c3,0,4.3-2.8,4.3-5.5c0-3.5-1.6-5.5-4.3-5.5c-3.2,0-4.3,2.9-4.3,5.6
		C802.6,263.9,803.9,266.5,806.9,266.5z"/>
	<path class="st8" d="M820.9,261.9c0,2.4,1.3,4.6,4.2,4.6c2,0,3.2-0.9,3.8-2.6h3.2c-0.7,3.4-3.7,5.3-7,5.3c-4.9,0-7.6-3.4-7.6-8.2
		c0-4.4,2.9-8.2,7.5-8.2c4.9,0,7.9,4.4,7.3,9.1H820.9z M828.9,259.7c-0.1-2.2-1.6-4.1-3.9-4.1c-2.4,0-4,1.8-4.1,4.1H828.9z"/>
	<path class="st8" d="M837.5,263.8c0.2,2,1.7,2.7,3.5,2.7c1.3,0,3.5-0.3,3.5-2c-0.1-1.8-2.6-2-5.1-2.6c-2.5-0.5-5-1.4-5-4.6
		c0-3.4,3.7-4.4,6.5-4.4c3.2,0,6.1,1.3,6.5,4.8h-3.6c-0.3-1.7-1.6-2.1-3.2-2.1c-1,0-2.8,0.2-2.8,1.6c0,1.7,2.5,2,5,2.5
		c2.5,0.6,5,1.5,5,4.5c0,3.7-3.7,5-6.9,5c-3.9,0-6.8-1.7-6.9-5.4H837.5z"/>
	<path class="st8" d="M850.6,247.4h3.4v3.2h-3.4V247.4z M850.6,253.3h3.4v15.5h-3.4V253.3z"/>
	<path class="st8" d="M872.1,268c0,4.7-2.7,7-7.6,7c-3.1,0-6.6-1.2-6.9-4.8h3.4c0.4,1.9,2,2.3,3.7,2.3c2.8,0,4-1.4,4-4v-2.4h-0.1
		c-1,1.7-2.7,2.7-4.6,2.7c-4.9,0-7-3.7-7-8.2c0-4.2,2.6-7.8,7-7.8c2,0,3.7,0.8,4.6,2.5h0.1v-2.1h3.4V268z M868.7,260.7
		c0-2.7-1.2-5.1-4.2-5.1c-3,0-4.1,2.8-4.1,5.4c0,2.5,1.2,5.1,4.1,5.1C867.5,266.1,868.7,263.4,868.7,260.7z"/>
	<path class="st8" d="M875.5,253.3h3.2v2.3l0.1,0.1c1-1.7,2.8-2.8,4.8-2.8c3.4,0,5.5,1.8,5.5,5.3v10.6h-3.4V259
		c-0.1-2.4-1-3.5-3-3.5c-2.3,0-3.8,1.8-3.8,4.1v9.1h-3.4V253.3z"/>
	<path class="st8" d="M901.1,247.4h3.4v7.9h0.1c0.8-1.4,2.6-2.5,4.7-2.5c3.4,0,5.5,1.8,5.5,5.3v10.6h-3.4V259c-0.1-2.4-1-3.5-3-3.5
		c-2.3,0-3.8,1.8-3.8,4.1v9.1h-3.4V247.4z"/>
	<path class="st8" d="M918.4,247.4h3.4v3.2h-3.4V247.4z M918.4,253.3h3.4v15.5h-3.4V253.3z"/>
	<path class="st8" d="M928.1,263.8c0.2,2,1.7,2.7,3.5,2.7c1.3,0,3.5-0.3,3.5-2c-0.1-1.8-2.6-2-5.1-2.6c-2.5-0.5-5-1.4-5-4.6
		c0-3.4,3.7-4.4,6.5-4.4c3.2,0,6.1,1.3,6.5,4.8h-3.6c-0.3-1.7-1.6-2.1-3.2-2.1c-1,0-2.8,0.2-2.8,1.6c0,1.7,2.5,2,5,2.5
		c2.5,0.6,5,1.5,5,4.5c0,3.7-3.7,5-6.9,5c-3.9,0-6.8-1.7-6.9-5.4H928.1z"/>
	<path class="st8" d="M939.6,253.3h2.6v-4.6h3.4v4.6h3.1v2.6h-3.1v8.3c0,1.4,0.1,2.1,1.6,2.1c0.5,0,1,0,1.4-0.1v2.6
		c-0.8,0.1-1.5,0.2-2.2,0.2c-3.6,0-4.2-1.4-4.3-4v-9.1h-2.6V253.3z"/>
	<path class="st8" d="M950.4,261c0-4.7,2.9-8.2,7.8-8.2c5,0,7.8,3.5,7.8,8.2c0,4.8-2.9,8.2-7.8,8.2
		C953.3,269.2,950.4,265.8,950.4,261z M962.6,261c0-2.7-1.3-5.5-4.4-5.5c-3.1,0-4.4,2.8-4.4,5.5c0,2.7,1.3,5.5,4.4,5.5
		C961.3,266.5,962.6,263.7,962.6,261z"/>
	<path class="st8" d="M968.9,253.3h3.2v3h0.1c0.4-1.6,2.5-3.4,4.5-3.4c0.8,0,1,0.1,1.3,0.1v3.3c-0.5-0.1-1-0.2-1.5-0.2
		c-2.3,0-4.2,1.9-4.2,5.3v7.4h-3.4V253.3z"/>
	<path class="st8" d="M977.8,253.3h3.8l4,11.6h0.1l3.9-11.6h3.6l-6,16.3c-1.1,2.8-1.9,5.3-5.5,5.3c-0.8,0-1.6-0.1-2.4-0.2v-2.9
		c0.6,0.1,1.1,0.2,1.6,0.2c1.6,0,2-0.8,2.4-2.2l0.4-1.2L977.8,253.3z"/>
	<path class="st8" d="M1002.7,261c0-4.7,2.9-8.2,7.8-8.2c5,0,7.8,3.5,7.8,8.2c0,4.8-2.9,8.2-7.8,8.2
		C1005.5,269.2,1002.7,265.8,1002.7,261z M1014.9,261c0-2.7-1.3-5.5-4.4-5.5c-3.1,0-4.4,2.8-4.4,5.5c0,2.7,1.3,5.5,4.4,5.5
		C1013.5,266.5,1014.9,263.7,1014.9,261z"/>
	<path class="st8" d="M1019.6,253.3h2.6V252c0-4,2.1-4.6,4.3-4.6c1.1,0,1.9,0.1,2.4,0.2v2.7c-0.5-0.1-0.9-0.2-1.6-0.2
		c-0.9,0-1.7,0.3-1.7,1.6v1.6h2.9v2.6h-2.9v13h-3.4v-13h-2.6V253.3z"/>
	<path class="st8" d="M1051.9,265.3c0,0.8,0.2,1.2,0.8,1.2h0.4c0.2,0,0.3,0,0.5-0.1v2.4c-0.5,0.2-1.6,0.4-2.2,0.4
		c-1.4,0-2.4-0.5-2.6-1.9c-1.3,1.3-3.5,1.9-5.4,1.9c-2.8,0-5.3-1.5-5.3-4.5c0-3.9,3.1-4.5,6-4.8c2.5-0.5,4.6-0.2,4.6-2.2
		c0-1.8-1.9-2.1-3.2-2.1c-1.9,0-3.3,0.8-3.4,2.5h-3.4c0.2-4,3.6-5.2,7-5.2c3,0,6.2,1.2,6.2,4.5V265.3z M1048.5,261
		c-1,0.7-2.7,0.7-4.2,0.9c-1.5,0.2-2.8,0.8-2.8,2.6c0,1.6,2,2,3.1,2c1.5,0,3.8-0.8,3.8-2.9V261z"/>
	<path class="st8" d="M1062.4,253.3h2.6V252c0-4,2.1-4.6,4.3-4.6c1.1,0,1.9,0.1,2.4,0.2v2.7c-0.5-0.1-0.9-0.2-1.6-0.2
		c-0.9,0-1.7,0.3-1.7,1.6v1.6h2.9v2.6h-2.9v13h-3.4v-13h-2.6V253.3z M1073.5,247.4h3.4v3.2h-3.4V247.4z M1073.5,253.3h3.4v15.5h-3.4
		V253.3z"/>
	<path class="st8" d="M1080.7,253.3h3.2v2.3l0.1,0.1c1-1.7,2.8-2.8,4.8-2.8c3.4,0,5.5,1.8,5.5,5.3v10.6h-3.4V259
		c-0.1-2.4-1-3.5-3-3.5c-2.3,0-3.8,1.8-3.8,4.1v9.1h-3.4V253.3z"/>
	<path class="st8" d="M1098,247.4h3.4v3.2h-3.4V247.4z M1098,253.3h3.4v15.5h-3.4V253.3z"/>
	<path class="st8" d="M1107.7,263.8c0.2,2,1.7,2.7,3.5,2.7c1.3,0,3.5-0.3,3.5-2c-0.1-1.8-2.6-2-5.1-2.6c-2.5-0.5-5-1.4-5-4.6
		c0-3.4,3.7-4.4,6.5-4.4c3.2,0,6.1,1.3,6.5,4.8h-3.6c-0.3-1.7-1.6-2.1-3.2-2.1c-1,0-2.8,0.2-2.8,1.6c0,1.7,2.5,2,5,2.5
		c2.5,0.6,5,1.5,5,4.5c0,3.7-3.7,5-6.9,5c-3.9,0-6.8-1.7-6.9-5.4H1107.7z"/>
	<path class="st8" d="M1120.7,247.4h3.4v7.9h0.1c0.8-1.4,2.6-2.5,4.6-2.5c3.4,0,5.5,1.8,5.5,5.3v10.6h-3.4V259c-0.1-2.4-1-3.5-3-3.5
		c-2.3,0-3.8,1.8-3.8,4.1v9.1h-3.4V247.4z"/>
	<path class="st8" d="M1140.6,261.9c0,2.4,1.3,4.6,4.2,4.6c2,0,3.2-0.9,3.8-2.6h3.2c-0.7,3.4-3.7,5.3-7,5.3c-4.9,0-7.6-3.4-7.6-8.2
		c0-4.4,2.9-8.2,7.5-8.2c4.9,0,7.9,4.4,7.3,9.1H1140.6z M1148.5,259.7c-0.1-2.2-1.6-4.1-3.9-4.1c-2.4,0-4,1.8-4.1,4.1H1148.5z"/>
	<path class="st8" d="M1169.2,268.8h-3.2v-2.1h-0.1c-0.9,1.8-2.8,2.5-4.8,2.5c-4.9,0-7.3-3.6-7.3-8.3c0-5.6,3.3-8.1,6.7-8.1
		c1.9,0,4.1,0.7,5.2,2.4h0.1v-7.9h3.4V268.8z M1161.5,266.5c3,0,4.3-2.8,4.3-5.5c0-3.5-1.6-5.5-4.3-5.5c-3.2,0-4.3,2.9-4.3,5.6
		C1157.2,263.9,1158.6,266.5,1161.5,266.5z"/>
	<path class="st8" d="M1201.1,258.1c0,6.2-3.9,11.2-10.3,11.2s-10.3-5.1-10.3-11.2c0-6.1,3.9-11.2,10.3-11.2
		S1201.1,252,1201.1,258.1z M1184.3,258.1c0,4.1,1.9,8.2,6.5,8.2s6.5-4,6.5-8.2c0-4.1-1.9-8.2-6.5-8.2S1184.3,254,1184.3,258.1z"/>
	<path class="st8" d="M1202.5,253.3h2.6V252c0-4,2.1-4.6,4.3-4.6c1.1,0,1.9,0.1,2.4,0.2v2.7c-0.5-0.1-0.9-0.2-1.6-0.2
		c-0.9,0-1.7,0.3-1.7,1.6v1.6h2.9v2.6h-2.9v13h-3.4v-13h-2.6V253.3z"/>
	<path class="st8" d="M1211.4,253.3h2.6V252c0-4,2.1-4.6,4.3-4.6c1.1,0,1.9,0.1,2.4,0.2v2.7c-0.5-0.1-0.9-0.2-1.6-0.2
		c-0.9,0-1.7,0.3-1.7,1.6v1.6h2.9v2.6h-2.9v13h-3.4v-13h-2.6V253.3z"/>
	<path class="st8" d="M1225.1,261.9c0,2.4,1.3,4.6,4.2,4.6c2,0,3.2-0.9,3.8-2.6h3.2c-0.7,3.4-3.7,5.3-7,5.3c-4.9,0-7.6-3.4-7.6-8.2
		c0-4.4,2.9-8.2,7.5-8.2c4.9,0,7.9,4.4,7.3,9.1H1225.1z M1233,259.7c-0.1-2.2-1.6-4.1-3.9-4.1c-2.4,0-4,1.8-4.1,4.1H1233z"/>
	<path class="st8" d="M1239.1,253.3h3.2v3h0.1c0.4-1.6,2.5-3.4,4.5-3.4c0.8,0,1,0.1,1.3,0.1v3.3c-0.5-0.1-1-0.2-1.5-0.2
		c-2.3,0-4.2,1.9-4.2,5.3v7.4h-3.4V253.3z"/>
	<path class="st8" d="M1249.7,247.4h3.4v3.2h-3.4V247.4z M1249.7,253.3h3.4v15.5h-3.4V253.3z"/>
	<path class="st8" d="M1256.9,253.3h3.2v2.3l0.1,0.1c1-1.7,2.8-2.8,4.8-2.8c3.4,0,5.5,1.8,5.5,5.3v10.6h-3.4V259
		c-0.1-2.4-1-3.5-3-3.5c-2.3,0-3.8,1.8-3.8,4.1v9.1h-3.4V253.3z"/>
	<path class="st8" d="M1288.4,268c0,4.7-2.7,7-7.6,7c-3.1,0-6.6-1.2-6.9-4.8h3.4c0.4,1.9,2,2.3,3.7,2.3c2.8,0,4-1.4,4-4v-2.4h-0.1
		c-1,1.7-2.7,2.7-4.6,2.7c-4.9,0-7-3.7-7-8.2c0-4.2,2.6-7.8,7-7.8c2,0,3.7,0.8,4.6,2.5h0.1v-2.1h3.4V268z M1285,260.7
		c0-2.7-1.2-5.1-4.2-5.1c-3,0-4.1,2.8-4.1,5.4c0,2.5,1.2,5.1,4.1,5.1C1283.9,266.1,1285,263.4,1285,260.7z"/>
</g>
<g>
	<rect x="601.9" y="395.6" class="st7" width="814.1" height="74.8"/>
	<path class="st8" d="M602.2,395.6h17.3v3.2h-6.8V417H609v-18.2h-6.8V395.6z"/>
	<path class="st8" d="M621.5,395.6h3.4v7.9h0.1c0.8-1.4,2.6-2.5,4.6-2.5c3.4,0,5.5,1.8,5.5,5.3V417h-3.4v-9.8c-0.1-2.4-1-3.5-3-3.5
		c-2.3,0-3.8,1.8-3.8,4.1v9.1h-3.4V395.6z"/>
	<path class="st8" d="M641.4,410.1c0,2.4,1.3,4.6,4.2,4.6c2,0,3.2-0.9,3.8-2.6h3.2c-0.7,3.4-3.7,5.3-7,5.3c-4.9,0-7.6-3.4-7.6-8.2
		c0-4.4,2.9-8.2,7.5-8.2c4.9,0,7.9,4.4,7.3,9.1H641.4z M649.4,407.9c-0.1-2.2-1.6-4.1-3.9-4.1c-2.4,0-4,1.8-4.1,4.1H649.4z"/>
	<path class="st8" d="M664.3,395.6h8.9c6.6,0,9.5,4.8,9.5,10.7c0,5.9-2.8,10.7-9.5,10.7h-8.9V395.6z M668,413.9h3.7
		c5.9,0,7.1-3.3,7.1-7.7c0-4.3-1.3-7.6-7.1-7.6H668V413.9z"/>
	<path class="st8" d="M685.8,395.6h3.8v8.5h9.8v-8.5h3.8V417h-3.8v-9.7h-9.8v9.7h-3.8V395.6z"/>
	<path class="st8" d="M707.6,395.6h14.8v3.2h-11v5.6h9.7v3.1h-9.7v9.5h-3.7V395.6z"/>
	<path class="st8" d="M733.3,395.6h3.4v3.2h-3.4V395.6z M733.3,401.5h3.4V417h-3.4V401.5z"/>
	<path class="st8" d="M743,412c0.2,2,1.7,2.7,3.5,2.7c1.3,0,3.5-0.3,3.5-2c-0.1-1.8-2.6-2-5.1-2.6c-2.5-0.5-5-1.4-5-4.6
		c0-3.4,3.7-4.4,6.5-4.4c3.2,0,6.1,1.3,6.5,4.8h-3.6c-0.3-1.7-1.6-2.1-3.2-2.1c-1,0-2.8,0.2-2.8,1.6c0,1.7,2.5,2,5,2.5
		c2.5,0.6,5,1.5,5,4.5c0,3.7-3.7,5-6.9,5c-3.9,0-6.8-1.7-6.9-5.4H743z"/>
	<path class="st8" d="M777.4,413.5c0,0.8,0.2,1.2,0.8,1.2h0.4c0.2,0,0.3,0,0.5-0.1v2.4c-0.5,0.2-1.6,0.4-2.2,0.4
		c-1.4,0-2.4-0.5-2.6-1.9c-1.3,1.3-3.5,1.9-5.4,1.9c-2.8,0-5.3-1.5-5.3-4.5c0-3.9,3.1-4.5,6-4.8c2.5-0.5,4.6-0.2,4.6-2.2
		c0-1.8-1.9-2.1-3.2-2.1c-1.9,0-3.3,0.8-3.4,2.5h-3.4c0.2-4,3.6-5.2,7-5.2c3,0,6.2,1.2,6.2,4.5V413.5z M773.9,409.2
		c-1,0.7-2.7,0.7-4.2,0.9c-1.5,0.2-2.8,0.8-2.8,2.6c0,1.6,2,2,3.1,2c1.5,0,3.8-0.8,3.8-2.9V409.2z"/>
	<path class="st8" d="M792,412c0.2,2,1.7,2.7,3.5,2.7c1.3,0,3.5-0.3,3.5-2c-0.1-1.8-2.6-2-5.1-2.6c-2.5-0.5-5-1.4-5-4.6
		c0-3.4,3.7-4.4,6.5-4.4c3.2,0,6.1,1.3,6.5,4.8h-3.6c-0.3-1.7-1.6-2.1-3.2-2.1c-1,0-2.8,0.2-2.8,1.6c0,1.7,2.5,2,5,2.5
		c2.5,0.6,5,1.5,5,4.5c0,3.7-3.7,5-6.9,5c-3.9,0-6.8-1.7-6.9-5.4H792z"/>
	<path class="st8" d="M818.6,417h-3.4v-2.2h-0.1c-0.8,1.6-2.7,2.6-4.4,2.6c-4.1,0-5.8-2-5.8-6.1v-9.8h3.4v9.5c0,2.7,1.1,3.7,3,3.7
		c2.8,0,3.8-1.8,3.8-4.2v-9h3.4V417z"/>
	<path class="st8" d="M822.2,401.5h3.2v2.2h0.1c1-1.5,2.3-2.6,4.8-2.6c1.9,0,3.7,0.8,4.3,2.6c1.2-1.6,2.6-2.6,4.9-2.6
		c3.3,0,5.2,1.5,5.2,5.2V417h-3.4v-9.1c0-2.5-0.1-4.2-2.8-4.2c-2.3,0-3.3,1.5-3.3,4.1v9.1h-3.4v-10c0-2.2-0.7-3.3-2.7-3.3
		c-1.8,0-3.4,1.5-3.4,4v9.2h-3.4V401.5z"/>
	<path class="st8" d="M848.3,401.5h3.2v2.2h0.1c1-1.5,2.3-2.6,4.8-2.6c1.9,0,3.7,0.8,4.3,2.6c1.2-1.6,2.6-2.6,4.9-2.6
		c3.3,0,5.2,1.5,5.2,5.2V417h-3.4v-9.1c0-2.5-0.1-4.2-2.8-4.2c-2.3,0-3.3,1.5-3.3,4.1v9.1h-3.4v-10c0-2.2-0.7-3.3-2.7-3.3
		c-1.8,0-3.4,1.5-3.4,4v9.2h-3.4V401.5z"/>
	<path class="st8" d="M887.4,413.5c0,0.8,0.2,1.2,0.8,1.2h0.4c0.2,0,0.3,0,0.5-0.1v2.4c-0.5,0.2-1.6,0.4-2.2,0.4
		c-1.4,0-2.4-0.5-2.6-1.9c-1.3,1.3-3.5,1.9-5.4,1.9c-2.8,0-5.3-1.5-5.3-4.5c0-3.9,3.1-4.5,6-4.8c2.5-0.5,4.6-0.2,4.6-2.2
		c0-1.8-1.9-2.1-3.2-2.1c-1.9,0-3.3,0.8-3.4,2.5h-3.4c0.2-4,3.6-5.2,7-5.2c3,0,6.2,1.2,6.2,4.5V413.5z M883.9,409.2
		c-1,0.7-2.7,0.7-4.2,0.9c-1.5,0.2-2.8,0.8-2.8,2.6c0,1.6,2,2,3.1,2c1.5,0,3.8-0.8,3.8-2.9V409.2z"/>
	<path class="st8" d="M889.5,401.5h2.6v-4.6h3.4v4.6h3.1v2.6h-3.1v8.3c0,1.4,0.1,2.1,1.7,2.1c0.5,0,1,0,1.4-0.1v2.6
		c-0.8,0.1-1.5,0.2-2.2,0.2c-3.6,0-4.2-1.4-4.3-4V404h-2.6V401.5z"/>
	<path class="st8" d="M901.1,395.6h3.4v3.2h-3.4V395.6z M901.1,401.5h3.4V417h-3.4V401.5z"/>
	<path class="st8" d="M907.6,409.2c0-4.7,2.9-8.2,7.8-8.2c5,0,7.8,3.5,7.8,8.2c0,4.8-2.9,8.2-7.8,8.2
		C910.4,417.4,907.6,414,907.6,409.2z M919.8,409.2c0-2.7-1.3-5.5-4.4-5.5c-3.1,0-4.4,2.8-4.4,5.5c0,2.7,1.3,5.5,4.4,5.5
		C918.4,414.7,919.8,411.9,919.8,409.2z"/>
	<path class="st8" d="M926.1,401.5h3.2v2.3l0.1,0.1c1-1.7,2.8-2.8,4.8-2.8c3.4,0,5.5,1.8,5.5,5.3V417h-3.4v-9.8
		c-0.1-2.4-1-3.5-3-3.5c-2.3,0-3.8,1.8-3.8,4.1v9.1h-3.4V401.5z"/>
	<path class="st8" d="M951.6,401.5h3.2v3h0.1c0.4-1.6,2.5-3.4,4.5-3.4c0.8,0,1,0.1,1.3,0.1v3.3c-0.5-0.1-1-0.2-1.5-0.2
		c-2.3,0-4.2,1.9-4.2,5.3v7.4h-3.4V401.5z"/>
	<path class="st8" d="M964.3,410.1c0,2.4,1.3,4.6,4.2,4.6c2,0,3.2-0.9,3.8-2.6h3.2c-0.7,3.4-3.7,5.3-7,5.3c-4.9,0-7.6-3.4-7.6-8.2
		c0-4.4,2.9-8.2,7.5-8.2c4.9,0,7.9,4.4,7.3,9.1H964.3z M972.3,407.9c-0.1-2.2-1.6-4.1-3.9-4.1c-2.4,0-4,1.8-4.1,4.1H972.3z"/>
	<path class="st8" d="M988.8,406.7c-0.3-1.9-1.6-2.9-3.5-2.9c-1.8,0-4.3,1-4.3,5.6c0,2.6,1.1,5.3,4.1,5.3c2,0,3.4-1.3,3.7-3.5h3.4
		c-0.6,4-3.1,6.2-7.1,6.2c-4.9,0-7.5-3.5-7.5-8c0-4.7,2.5-8.3,7.6-8.3c3.6,0,6.7,1.8,7,5.6H988.8z"/>
	<path class="st8" d="M994.3,409.2c0-4.7,2.9-8.2,7.8-8.2c5,0,7.8,3.5,7.8,8.2c0,4.8-2.9,8.2-7.8,8.2
		C997.2,417.4,994.3,414,994.3,409.2z M1006.5,409.2c0-2.7-1.3-5.5-4.4-5.5c-3.1,0-4.4,2.8-4.4,5.5c0,2.7,1.3,5.5,4.4,5.5
		C1005.2,414.7,1006.5,411.9,1006.5,409.2z"/>
	<path class="st8" d="M1012.8,401.5h3.2v3h0.1c0.4-1.6,2.5-3.4,4.5-3.4c0.8,0,1,0.1,1.3,0.1v3.3c-0.5-0.1-1-0.2-1.5-0.2
		c-2.3,0-4.2,1.9-4.2,5.3v7.4h-3.4V401.5z"/>
	<path class="st8" d="M1037.4,417h-3.2v-2.1h-0.1c-0.9,1.8-2.8,2.5-4.8,2.5c-4.9,0-7.3-3.6-7.3-8.3c0-5.6,3.3-8.1,6.7-8.1
		c1.9,0,4.1,0.7,5.2,2.4h0.1v-7.9h3.4V417z M1029.8,414.7c3,0,4.3-2.8,4.3-5.5c0-3.5-1.6-5.5-4.3-5.5c-3.2,0-4.3,2.9-4.3,5.6
		C1025.5,412.1,1026.8,414.7,1029.8,414.7z"/>
	<path class="st8" d="M1048.8,409.2c0-4.7,2.9-8.2,7.8-8.2c5,0,7.8,3.5,7.8,8.2c0,4.8-2.9,8.2-7.8,8.2
		C1051.6,417.4,1048.8,414,1048.8,409.2z M1061,409.2c0-2.7-1.3-5.5-4.4-5.5c-3.1,0-4.4,2.8-4.4,5.5c0,2.7,1.3,5.5,4.4,5.5
		C1059.7,414.7,1061,411.9,1061,409.2z"/>
	<path class="st8" d="M1065.7,401.5h2.6v-1.3c0-4,2.1-4.6,4.3-4.6c1.1,0,1.9,0.1,2.4,0.2v2.7c-0.5-0.1-0.9-0.2-1.6-0.2
		c-0.9,0-1.7,0.3-1.7,1.6v1.6h2.9v2.6h-2.9v13h-3.4v-13h-2.6V401.5z"/>
	<path class="st8" d="M1098.1,413.5c0,0.8,0.2,1.2,0.8,1.2h0.4c0.2,0,0.3,0,0.5-0.1v2.4c-0.5,0.2-1.6,0.4-2.2,0.4
		c-1.4,0-2.4-0.5-2.6-1.9c-1.3,1.3-3.5,1.9-5.4,1.9c-2.8,0-5.3-1.5-5.3-4.5c0-3.9,3.1-4.5,6-4.8c2.5-0.5,4.6-0.2,4.6-2.2
		c0-1.8-1.9-2.1-3.2-2.1c-1.9,0-3.3,0.8-3.4,2.5h-3.4c0.2-4,3.6-5.2,7-5.2c3,0,6.2,1.2,6.2,4.5V413.5z M1094.6,409.2
		c-1,0.7-2.7,0.7-4.2,0.9c-1.5,0.2-2.8,0.8-2.8,2.6c0,1.6,2,2,3.1,2c1.5,0,3.8-0.8,3.8-2.9V409.2z"/>
	<path class="st8" d="M1101.8,395.6h3.4V417h-3.4V395.6z"/>
	<path class="st8" d="M1109.1,395.6h3.4V417h-3.4V395.6z"/>
	<path class="st8" d="M1125,395.6h8.9c6.6,0,9.5,4.8,9.5,10.7c0,5.9-2.9,10.7-9.5,10.7h-8.9V395.6z M1128.8,413.9h3.7
		c5.9,0,7.1-3.3,7.1-7.7c0-4.3-1.3-7.6-7.1-7.6h-3.7V413.9z"/>
	<path class="st8" d="M1148.9,410.1c0,2.4,1.3,4.6,4.2,4.6c2,0,3.2-0.9,3.8-2.6h3.2c-0.7,3.4-3.7,5.3-7,5.3c-4.9,0-7.6-3.4-7.6-8.2
		c0-4.4,2.9-8.2,7.5-8.2c4.9,0,7.9,4.4,7.3,9.1H1148.9z M1156.8,407.9c-0.1-2.2-1.6-4.1-3.9-4.1c-2.4,0-4,1.8-4.1,4.1H1156.8z"/>
	<path class="st8" d="M1165.5,412c0.2,2,1.7,2.7,3.5,2.7c1.3,0,3.5-0.3,3.5-2c-0.1-1.8-2.6-2-5.1-2.6c-2.5-0.5-5-1.4-5-4.6
		c0-3.4,3.7-4.4,6.5-4.4c3.2,0,6.1,1.3,6.5,4.8h-3.6c-0.3-1.7-1.6-2.1-3.2-2.1c-1,0-2.8,0.2-2.8,1.6c0,1.7,2.5,2,5,2.5
		c2.5,0.6,5,1.5,5,4.5c0,3.7-3.7,5-6.9,5c-3.9,0-6.8-1.7-6.9-5.4H1165.5z"/>
	<path class="st8" d="M1178.5,395.6h3.4v3.2h-3.4V395.6z M1178.5,401.5h3.4V417h-3.4V401.5z"/>
	<path class="st8" d="M1200,416.2c0,4.7-2.7,7-7.6,7c-3.1,0-6.6-1.2-6.9-4.8h3.4c0.4,1.9,2,2.3,3.7,2.3c2.8,0,4-1.4,4-4v-2.4h-0.1
		c-1,1.7-2.7,2.7-4.6,2.7c-4.9,0-7-3.7-7-8.2c0-4.2,2.6-7.8,7-7.8c2,0,3.7,0.8,4.6,2.5h0.1v-2.1h3.4V416.2z M1196.6,408.9
		c0-2.7-1.2-5.1-4.2-5.1c-3,0-4.1,2.8-4.1,5.4c0,2.5,1.2,5.1,4.1,5.1C1195.5,414.3,1196.6,411.6,1196.6,408.9z"/>
	<path class="st8" d="M1203.5,401.5h3.2v2.3l0.1,0.1c1-1.7,2.8-2.8,4.8-2.8c3.4,0,5.5,1.8,5.5,5.3V417h-3.4v-9.8
		c-0.1-2.4-1-3.5-3-3.5c-2.3,0-3.8,1.8-3.8,4.1v9.1h-3.4V401.5z"/>
	<path class="st8" d="M1242,413.5c0,0.8,0.2,1.2,0.8,1.2h0.4c0.2,0,0.3,0,0.5-0.1v2.4c-0.5,0.2-1.6,0.4-2.2,0.4
		c-1.4,0-2.4-0.5-2.6-1.9c-1.3,1.3-3.5,1.9-5.4,1.9c-2.8,0-5.3-1.5-5.3-4.5c0-3.9,3.1-4.5,6-4.8c2.5-0.5,4.6-0.2,4.6-2.2
		c0-1.8-1.9-2.1-3.2-2.1c-1.9,0-3.3,0.8-3.4,2.5h-3.4c0.2-4,3.6-5.2,7-5.2c3,0,6.2,1.2,6.2,4.5V413.5z M1238.6,409.2
		c-1,0.7-2.7,0.7-4.2,0.9c-1.5,0.2-2.8,0.8-2.8,2.6c0,1.6,2,2,3.1,2c1.5,0,3.8-0.8,3.8-2.9V409.2z"/>
	<path class="st8" d="M1256.2,406.7c-0.3-1.9-1.6-2.9-3.5-2.9c-1.8,0-4.3,1-4.3,5.6c0,2.6,1.1,5.3,4.1,5.3c2,0,3.4-1.3,3.7-3.5h3.4
		c-0.6,4-3.1,6.2-7.1,6.2c-4.9,0-7.5-3.5-7.5-8c0-4.7,2.5-8.3,7.6-8.3c3.6,0,6.7,1.8,7,5.6H1256.2z"/>
	<path class="st8" d="M1260.8,401.5h2.6v-4.6h3.4v4.6h3.1v2.6h-3.1v8.3c0,1.4,0.1,2.1,1.7,2.1c0.5,0,1,0,1.4-0.1v2.6
		c-0.8,0.1-1.5,0.2-2.2,0.2c-3.6,0-4.2-1.4-4.3-4V404h-2.6V401.5z"/>
	<path class="st8" d="M1272.5,395.6h3.4v3.2h-3.4V395.6z M1272.5,401.5h3.4V417h-3.4V401.5z"/>
	<path class="st8" d="M1278.9,409.2c0-4.7,2.9-8.2,7.8-8.2c5,0,7.8,3.5,7.8,8.2c0,4.8-2.9,8.2-7.8,8.2
		C1281.8,417.4,1278.9,414,1278.9,409.2z M1291.1,409.2c0-2.7-1.3-5.5-4.4-5.5c-3.1,0-4.4,2.8-4.4,5.5c0,2.7,1.3,5.5,4.4,5.5
		C1289.8,414.7,1291.1,411.9,1291.1,409.2z"/>
	<path class="st8" d="M1297.4,401.5h3.2v2.3l0.1,0.1c1-1.7,2.8-2.8,4.8-2.8c3.4,0,5.5,1.8,5.5,5.3V417h-3.4v-9.8
		c-0.1-2.4-1-3.5-3-3.5c-2.3,0-3.8,1.8-3.8,4.1v9.1h-3.4V401.5z"/>
	<path class="st8" d="M1317.2,412c0.2,2,1.7,2.7,3.5,2.7c1.3,0,3.5-0.3,3.5-2c-0.1-1.8-2.6-2-5.1-2.6c-2.5-0.5-5-1.4-5-4.6
		c0-3.4,3.7-4.4,6.5-4.4c3.2,0,6.1,1.3,6.5,4.8h-3.6c-0.3-1.7-1.6-2.1-3.2-2.1c-1,0-2.8,0.2-2.8,1.6c0,1.7,2.5,2,5,2.5
		c2.5,0.6,5,1.5,5,4.5c0,3.7-3.7,5-6.9,5c-3.9,0-6.8-1.7-6.9-5.4H1317.2z"/>
	<path class="st8" d="M1337,401.5h2.6v-1.3c0-4,2.1-4.6,4.3-4.6c1.1,0,1.9,0.1,2.4,0.2v2.7c-0.5-0.1-0.9-0.2-1.6-0.2
		c-0.9,0-1.7,0.3-1.7,1.6v1.6h2.9v2.6h-2.9v13h-3.4v-13h-2.6V401.5z"/>
	<path class="st8" d="M1348,401.5h3.2v3h0.1c0.4-1.6,2.5-3.4,4.5-3.4c0.8,0,1,0.1,1.3,0.1v3.3c-0.5-0.1-1-0.2-1.5-0.2
		c-2.3,0-4.2,1.9-4.2,5.3v7.4h-3.4V401.5z"/>
	<path class="st8" d="M1357.3,409.2c0-4.7,2.9-8.2,7.8-8.2c5,0,7.8,3.5,7.8,8.2c0,4.8-2.9,8.2-7.8,8.2
		C1360.2,417.4,1357.3,414,1357.3,409.2z M1369.5,409.2c0-2.7-1.3-5.5-4.4-5.5c-3.1,0-4.4,2.8-4.4,5.5c0,2.7,1.3,5.5,4.4,5.5
		C1368.2,414.7,1369.5,411.9,1369.5,409.2z"/>
	<path class="st8" d="M1375.8,401.5h3.2v2.2h0.1c1-1.5,2.3-2.6,4.8-2.6c1.9,0,3.7,0.8,4.3,2.6c1.2-1.6,2.6-2.6,4.9-2.6
		c3.3,0,5.2,1.5,5.2,5.2V417h-3.4v-9.1c0-2.5-0.1-4.2-2.8-4.2c-2.3,0-3.3,1.5-3.3,4.1v9.1h-3.4v-10c0-2.2-0.7-3.3-2.7-3.3
		c-1.8,0-3.4,1.5-3.4,4v9.2h-3.4V401.5z"/>
	<path class="st8" d="M606.3,448c0.2,2,1.7,2.7,3.5,2.7c1.3,0,3.5-0.3,3.5-2c-0.1-1.8-2.6-2-5.1-2.6c-2.5-0.5-5-1.4-5-4.6
		c0-3.4,3.7-4.4,6.5-4.4c3.2,0,6.1,1.3,6.5,4.8h-3.6c-0.3-1.7-1.6-2.1-3.2-2.1c-1,0-2.8,0.2-2.8,1.6c0,1.7,2.5,2,5,2.5
		c2.5,0.6,5,1.5,5,4.5c0,3.7-3.7,5-6.9,5c-3.9,0-6.8-1.7-6.9-5.4H606.3z"/>
	<path class="st8" d="M617.8,437.5h2.6v-4.6h3.4v4.6h3.1v2.6h-3.1v8.3c0,1.4,0.1,2.1,1.6,2.1c0.5,0,1,0,1.4-0.1v2.6
		c-0.8,0.1-1.5,0.2-2.2,0.2c-3.6,0-4.2-1.4-4.3-4V440h-2.6V437.5z"/>
	<path class="st8" d="M642.3,449.5c0,0.8,0.2,1.2,0.8,1.2h0.4c0.2,0,0.3,0,0.5-0.1v2.4c-0.5,0.2-1.6,0.4-2.2,0.4
		c-1.4,0-2.4-0.5-2.6-1.9c-1.3,1.3-3.5,1.9-5.4,1.9c-2.8,0-5.3-1.5-5.3-4.5c0-3.9,3.1-4.5,6-4.8c2.5-0.5,4.6-0.2,4.6-2.2
		c0-1.8-1.9-2.1-3.2-2.1c-1.9,0-3.3,0.8-3.4,2.5H629c0.2-4,3.6-5.2,7-5.2c3,0,6.2,1.2,6.2,4.5V449.5z M638.9,445.2
		c-1,0.7-2.7,0.7-4.2,0.9c-1.5,0.2-2.8,0.8-2.8,2.6c0,1.6,2,2,3.1,2c1.5,0,3.8-0.8,3.8-2.9V445.2z"/>
	<path class="st8" d="M646,437.5h3.2v3h0.1c0.4-1.6,2.5-3.4,4.5-3.4c0.8,0,1,0.1,1.3,0.1v3.3c-0.5-0.1-1-0.2-1.5-0.2
		c-2.3,0-4.2,1.9-4.2,5.3v7.4H646V437.5z"/>
	<path class="st8" d="M655,437.5h2.6v-4.6h3.4v4.6h3.1v2.6H661v8.3c0,1.4,0.1,2.1,1.7,2.1c0.5,0,1,0,1.4-0.1v2.6
		c-0.8,0.1-1.5,0.2-2.2,0.2c-3.6,0-4.2-1.4-4.3-4V440H655V437.5z"/>
	<path class="st8" d="M673.3,437.5h2.6v-4.6h3.4v4.6h3.1v2.6h-3.1v8.3c0,1.4,0.1,2.1,1.7,2.1c0.5,0,1,0,1.4-0.1v2.6
		c-0.8,0.1-1.5,0.2-2.2,0.2c-3.6,0-4.2-1.4-4.3-4V440h-2.6V437.5z"/>
	<path class="st8" d="M684.1,445.2c0-4.7,2.9-8.2,7.8-8.2c5,0,7.8,3.5,7.8,8.2c0,4.8-2.9,8.2-7.8,8.2
		C687,453.4,684.1,450,684.1,445.2z M696.4,445.2c0-2.7-1.3-5.5-4.4-5.5c-3.1,0-4.4,2.8-4.4,5.5c0,2.7,1.3,5.5,4.4,5.5
		C695,450.7,696.4,447.9,696.4,445.2z"/>
	<path class="st8" d="M709.4,437.5h2.6v-4.6h3.4v4.6h3.1v2.6h-3.1v8.3c0,1.4,0.1,2.1,1.6,2.1c0.5,0,1,0,1.4-0.1v2.6
		c-0.8,0.1-1.5,0.2-2.2,0.2c-3.6,0-4.2-1.4-4.3-4V440h-2.6V437.5z"/>
	<path class="st8" d="M721,437.5h3.2v3h0.1c0.4-1.6,2.5-3.4,4.5-3.4c0.8,0,1,0.1,1.3,0.1v3.3c-0.5-0.1-1-0.2-1.5-0.2
		c-2.3,0-4.2,1.9-4.2,5.3v7.4H721V437.5z"/>
	<path class="st8" d="M744.5,449.5c0,0.8,0.2,1.2,0.8,1.2h0.4c0.2,0,0.3,0,0.5-0.1v2.4c-0.5,0.2-1.6,0.4-2.2,0.4
		c-1.4,0-2.4-0.5-2.6-1.9c-1.3,1.3-3.5,1.9-5.4,1.9c-2.8,0-5.3-1.5-5.3-4.5c0-3.9,3.1-4.5,6-4.8c2.5-0.5,4.6-0.2,4.6-2.2
		c0-1.8-1.9-2.1-3.2-2.1c-1.9,0-3.3,0.8-3.4,2.5h-3.4c0.2-4,3.6-5.2,7-5.2c3,0,6.2,1.2,6.2,4.5V449.5z M741.1,445.2
		c-1,0.7-2.7,0.7-4.2,0.9c-1.5,0.2-2.8,0.8-2.8,2.6c0,1.6,2,2,3.1,2c1.5,0,3.8-0.8,3.8-2.9V445.2z"/>
	<path class="st8" d="M748.2,437.5h3.2v2.3l0.1,0.1c1-1.7,2.8-2.8,4.8-2.8c3.4,0,5.5,1.8,5.5,5.3V453h-3.4v-9.8
		c-0.1-2.4-1-3.5-3-3.5c-2.3,0-3.8,1.8-3.8,4.1v9.1h-3.4V437.5z"/>
	<path class="st8" d="M768,448c0.2,2,1.7,2.7,3.5,2.7c1.3,0,3.5-0.3,3.5-2c-0.1-1.8-2.6-2-5.1-2.6c-2.5-0.5-5-1.4-5-4.6
		c0-3.4,3.7-4.4,6.5-4.4c3.2,0,6.1,1.3,6.5,4.8h-3.6c-0.3-1.7-1.6-2.1-3.2-2.1c-1,0-2.8,0.2-2.8,1.6c0,1.7,2.5,2,5,2.5
		c2.5,0.6,5,1.5,5,4.5c0,3.7-3.7,5-6.9,5c-3.9,0-6.8-1.7-6.9-5.4H768z"/>
	<path class="st8" d="M779.5,437.5h2.6v-1.3c0-4,2.1-4.6,4.3-4.6c1.1,0,1.9,0.1,2.4,0.2v2.7c-0.5-0.1-0.9-0.2-1.6-0.2
		c-0.9,0-1.7,0.3-1.7,1.6v1.6h2.9v2.6h-2.9v13H782v-13h-2.6V437.5z"/>
	<path class="st8" d="M793.1,446.1c0,2.4,1.3,4.6,4.2,4.6c2,0,3.2-0.9,3.8-2.6h3.2c-0.7,3.4-3.7,5.3-7,5.3c-4.9,0-7.6-3.4-7.6-8.2
		c0-4.4,2.9-8.2,7.5-8.2c4.9,0,7.9,4.4,7.3,9.1H793.1z M801.1,443.9c-0.1-2.2-1.6-4.1-3.9-4.1c-2.4,0-4,1.8-4.1,4.1H801.1z"/>
	<path class="st8" d="M807.1,437.5h3.2v3h0.1c0.4-1.6,2.5-3.4,4.5-3.4c0.8,0,1,0.1,1.3,0.1v3.3c-0.5-0.1-1-0.2-1.5-0.2
		c-2.3,0-4.2,1.9-4.2,5.3v7.4h-3.4V437.5z"/>
	<path class="st8" d="M815.2,448.9h4.2v4c0,2.5-1.6,4.3-4,4.7v-1.8c1.3-0.3,2-1.6,2-2.9h-2.1V448.9z"/>
	<path class="st8" d="M831.7,431.6h3.4v3.2h-3.4V431.6z M831.7,437.5h3.4V453h-3.4V437.5z"/>
	<path class="st8" d="M838.9,437.5h3.2v2.3l0.1,0.1c1-1.7,2.8-2.8,4.8-2.8c3.4,0,5.5,1.8,5.5,5.3V453h-3.4v-9.8
		c-0.1-2.4-1-3.5-3-3.5c-2.3,0-3.8,1.8-3.8,4.1v9.1h-3.4V437.5z"/>
	<path class="st8" d="M866.5,442.7c-0.3-1.9-1.6-2.9-3.5-2.9c-1.8,0-4.3,1-4.3,5.6c0,2.6,1.1,5.3,4.1,5.3c2,0,3.4-1.3,3.7-3.5h3.4
		c-0.6,4-3.1,6.2-7.1,6.2c-4.9,0-7.5-3.5-7.5-8c0-4.7,2.5-8.3,7.6-8.3c3.6,0,6.7,1.8,7,5.6H866.5z"/>
	<path class="st8" d="M872.8,431.6h3.4V453h-3.4V431.6z"/>
	<path class="st8" d="M893.6,453h-3.4v-2.2h-0.1c-0.8,1.6-2.7,2.6-4.4,2.6c-4.1,0-5.8-2-5.8-6.1v-9.8h3.4v9.5c0,2.7,1.1,3.7,3,3.7
		c2.8,0,3.8-1.8,3.8-4.2v-9h3.4V453z"/>
	<path class="st8" d="M911.8,453h-3.2v-2.1h-0.1c-0.9,1.8-2.8,2.5-4.8,2.5c-4.9,0-7.3-3.6-7.3-8.3c0-5.6,3.3-8.1,6.7-8.1
		c1.9,0,4.1,0.7,5.2,2.4h0.1v-7.9h3.4V453z M904.2,450.7c3,0,4.3-2.8,4.3-5.5c0-3.5-1.6-5.5-4.3-5.5c-3.2,0-4.3,2.9-4.3,5.6
		C899.9,448.1,901.2,450.7,904.2,450.7z"/>
	<path class="st8" d="M915.6,431.6h3.4v3.2h-3.4V431.6z M915.6,437.5h3.4V453h-3.4V437.5z"/>
	<path class="st8" d="M922.8,437.5h3.2v2.3l0.1,0.1c1-1.7,2.8-2.8,4.8-2.8c3.4,0,5.5,1.8,5.5,5.3V453H933v-9.8c-0.1-2.4-1-3.5-3-3.5
		c-2.3,0-3.8,1.8-3.8,4.1v9.1h-3.4V437.5z"/>
	<path class="st8" d="M954.3,452.2c0,4.7-2.7,7-7.6,7c-3.1,0-6.6-1.2-6.9-4.8h3.4c0.4,1.9,2,2.3,3.7,2.3c2.8,0,4-1.4,4-4v-2.4h-0.1
		c-1,1.7-2.7,2.7-4.6,2.7c-4.9,0-7-3.7-7-8.2c0-4.2,2.6-7.8,7-7.8c2,0,3.7,0.8,4.6,2.5h0.1v-2.1h3.4V452.2z M950.9,444.9
		c0-2.7-1.2-5.1-4.2-5.1c-3,0-4.1,2.8-4.1,5.4c0,2.5,1.2,5.1,4.1,5.1C949.8,450.3,950.9,447.6,950.9,444.9z"/>
	<path class="st8" d="M976.6,442.7c-0.3-1.9-1.6-2.9-3.5-2.9c-1.8,0-4.3,1-4.3,5.6c0,2.6,1.1,5.3,4.1,5.3c2,0,3.4-1.3,3.7-3.5h3.4
		c-0.6,4-3.1,6.2-7.1,6.2c-4.9,0-7.5-3.5-7.5-8c0-4.7,2.5-8.3,7.6-8.3c3.6,0,6.7,1.8,7,5.6H976.6z"/>
	<path class="st8" d="M982.8,431.6h3.4v7.9h0.1c0.8-1.4,2.6-2.5,4.7-2.5c3.4,0,5.5,1.8,5.5,5.3V453H993v-9.8c-0.1-2.4-1-3.5-3-3.5
		c-2.3,0-3.8,1.8-3.8,4.1v9.1h-3.4V431.6z"/>
	<path class="st8" d="M1013,449.5c0,0.8,0.2,1.2,0.8,1.2h0.4c0.2,0,0.3,0,0.5-0.1v2.4c-0.5,0.2-1.6,0.4-2.2,0.4
		c-1.4,0-2.4-0.5-2.6-1.9c-1.3,1.3-3.5,1.9-5.4,1.9c-2.8,0-5.3-1.5-5.3-4.5c0-3.9,3.1-4.5,6-4.8c2.5-0.5,4.6-0.2,4.6-2.2
		c0-1.8-1.9-2.1-3.2-2.1c-1.9,0-3.3,0.8-3.4,2.5h-3.4c0.2-4,3.6-5.2,7-5.2c3,0,6.2,1.2,6.2,4.5V449.5z M1009.6,445.2
		c-1,0.7-2.7,0.7-4.2,0.9c-1.5,0.2-2.8,0.8-2.8,2.6c0,1.6,2,2,3.1,2c1.5,0,3.8-0.8,3.8-2.9V445.2z"/>
	<path class="st8" d="M1016.7,437.5h3.2v2.3l0.1,0.1c1-1.7,2.8-2.8,4.8-2.8c3.4,0,5.5,1.8,5.5,5.3V453h-3.4v-9.8
		c-0.1-2.4-1-3.5-3-3.5c-2.3,0-3.8,1.8-3.8,4.1v9.1h-3.4V437.5z"/>
	<path class="st8" d="M1048.3,452.2c0,4.7-2.7,7-7.6,7c-3.1,0-6.6-1.2-6.9-4.8h3.4c0.4,1.9,2,2.3,3.7,2.3c2.8,0,4-1.4,4-4v-2.4h-0.1
		c-1,1.7-2.7,2.7-4.6,2.7c-4.9,0-7-3.7-7-8.2c0-4.2,2.6-7.8,7-7.8c2,0,3.7,0.8,4.6,2.5h0.1v-2.1h3.4V452.2z M1044.8,444.9
		c0-2.7-1.2-5.1-4.2-5.1c-3,0-4.1,2.8-4.1,5.4c0,2.5,1.2,5.1,4.1,5.1C1043.7,450.3,1044.8,447.6,1044.8,444.9z"/>
	<path class="st8" d="M1054.4,446.1c0,2.4,1.3,4.6,4.2,4.6c2,0,3.2-0.9,3.8-2.6h3.2c-0.7,3.4-3.7,5.3-7,5.3c-4.9,0-7.6-3.4-7.6-8.2
		c0-4.4,2.9-8.2,7.5-8.2c4.9,0,7.9,4.4,7.3,9.1H1054.4z M1062.4,443.9c-0.1-2.2-1.6-4.1-3.9-4.1c-2.4,0-4,1.8-4.1,4.1H1062.4z"/>
	<path class="st8" d="M1071,448c0.2,2,1.7,2.7,3.5,2.7c1.3,0,3.5-0.3,3.5-2c-0.1-1.8-2.6-2-5.1-2.6c-2.5-0.5-5-1.4-5-4.6
		c0-3.4,3.7-4.4,6.5-4.4c3.2,0,6.1,1.3,6.5,4.8h-3.6c-0.3-1.7-1.6-2.1-3.2-2.1c-1,0-2.8,0.2-2.8,1.6c0,1.7,2.5,2,5,2.5
		c2.5,0.6,5,1.5,5,4.5c0,3.7-3.7,5-6.9,5c-3.9,0-6.8-1.7-6.9-5.4H1071z"/>
</g>
<g>
	<rect x="601.9" y="602.6" class="st7" width="814.1" height="244.4"/>
	<path class="st8" d="M602.2,602.6h17.3v3.2h-6.8V624H609v-18.2h-6.8V602.6z"/>
	<path class="st8" d="M621.5,602.6h3.4v7.9h0.1c0.8-1.4,2.6-2.5,4.6-2.5c3.4,0,5.5,1.8,5.5,5.3V624h-3.4v-9.8c-0.1-2.4-1-3.5-3-3.5
		c-2.3,0-3.8,1.8-3.8,4.1v9.1h-3.4V602.6z"/>
	<path class="st8" d="M641.4,617.2c0,2.4,1.3,4.6,4.2,4.6c2,0,3.2-0.9,3.8-2.6h3.2c-0.7,3.4-3.7,5.3-7,5.3c-4.9,0-7.6-3.4-7.6-8.2
		c0-4.4,2.9-8.2,7.5-8.2c4.9,0,7.9,4.4,7.3,9.1H641.4z M649.4,614.9c-0.1-2.2-1.6-4.1-3.9-4.1c-2.4,0-4,1.8-4.1,4.1H649.4z"/>
	<path class="st8" d="M664.3,602.6h8.9c6.6,0,9.5,4.8,9.5,10.7c0,5.9-2.8,10.7-9.5,10.7h-8.9V602.6z M668,621h3.7
		c5.9,0,7.1-3.3,7.1-7.7c0-4.3-1.3-7.6-7.1-7.6H668V621z"/>
	<path class="st8" d="M685.8,602.6h3.8v8.5h9.8v-8.5h3.8V624h-3.8v-9.7h-9.8v9.7h-3.8V602.6z"/>
	<path class="st8" d="M707.6,602.6h14.8v3.2h-11v5.6h9.7v3.1h-9.7v9.5h-3.7V602.6z"/>
	<path class="st8" d="M733.3,602.6h3.4v3.2h-3.4V602.6z M733.3,608.5h3.4V624h-3.4V608.5z"/>
	<path class="st8" d="M743,619c0.2,2,1.7,2.7,3.5,2.7c1.3,0,3.5-0.3,3.5-2c-0.1-1.8-2.6-2-5.1-2.6c-2.5-0.5-5-1.4-5-4.6
		c0-3.4,3.7-4.4,6.5-4.4c3.2,0,6.1,1.3,6.5,4.8h-3.6c-0.3-1.7-1.6-2.1-3.2-2.1c-1,0-2.8,0.2-2.8,1.6c0,1.7,2.5,2,5,2.5
		c2.5,0.6,5,1.5,5,4.5c0,3.7-3.7,5-6.9,5c-3.9,0-6.8-1.7-6.9-5.4H743z"/>
	<path class="st8" d="M764.4,608.5h3.2v2.2h0.1c1-1.5,2.3-2.6,4.8-2.6c1.9,0,3.7,0.8,4.3,2.6c1.2-1.6,2.6-2.6,4.9-2.6
		c3.3,0,5.2,1.5,5.2,5.2V624h-3.4V615c0-2.5-0.1-4.2-2.8-4.2c-2.3,0-3.3,1.5-3.3,4.1v9.1h-3.4v-10c0-2.2-0.7-3.3-2.7-3.3
		c-1.8,0-3.4,1.5-3.4,4v9.2h-3.4V608.5z"/>
	<path class="st8" d="M803.5,620.6c0,0.8,0.2,1.2,0.8,1.2h0.4c0.2,0,0.3,0,0.5-0.1v2.4c-0.5,0.2-1.6,0.4-2.2,0.4
		c-1.4,0-2.4-0.5-2.6-1.9c-1.3,1.3-3.5,1.9-5.4,1.9c-2.8,0-5.3-1.5-5.3-4.5c0-3.9,3.1-4.5,6-4.8c2.5-0.5,4.6-0.2,4.6-2.2
		c0-1.8-1.9-2.1-3.2-2.1c-1.9,0-3.3,0.8-3.4,2.5h-3.4c0.2-4,3.6-5.2,7-5.2c3,0,6.2,1.2,6.2,4.5V620.6z M800,616.3
		c-1,0.7-2.7,0.7-4.2,0.9c-1.5,0.2-2.8,0.8-2.8,2.6c0,1.6,2,2,3.1,2c1.5,0,3.8-0.8,3.8-2.9V616.3z"/>
	<path class="st8" d="M807.2,602.6h3.4v3.2h-3.4V602.6z M807.2,608.5h3.4V624h-3.4V608.5z"/>
	<path class="st8" d="M814.4,608.5h3.2v2.3l0.1,0.1c1-1.7,2.8-2.8,4.8-2.8c3.4,0,5.5,1.8,5.5,5.3V624h-3.4v-9.8
		c-0.1-2.4-1-3.5-3-3.5c-2.3,0-3.8,1.8-3.8,4.1v9.1h-3.4V608.5z"/>
	<path class="st8" d="M830,608.5h2.6v-4.6h3.4v4.6h3.1v2.6H836v8.3c0,1.4,0.1,2.1,1.6,2.1c0.5,0,1,0,1.4-0.1v2.6
		c-0.8,0.1-1.5,0.2-2.2,0.2c-3.6,0-4.2-1.4-4.3-4v-9.1H830V608.5z"/>
	<path class="st8" d="M854.6,620.6c0,0.8,0.2,1.2,0.8,1.2h0.4c0.2,0,0.3,0,0.5-0.1v2.4c-0.5,0.2-1.6,0.4-2.2,0.4
		c-1.4,0-2.4-0.5-2.6-1.9c-1.3,1.3-3.5,1.9-5.4,1.9c-2.8,0-5.3-1.5-5.3-4.5c0-3.9,3.1-4.5,6-4.8c2.5-0.5,4.6-0.2,4.6-2.2
		c0-1.8-1.9-2.1-3.2-2.1c-1.9,0-3.3,0.8-3.4,2.5h-3.4c0.2-4,3.6-5.2,7-5.2c3,0,6.2,1.2,6.2,4.5V620.6z M851.2,616.3
		c-1,0.7-2.7,0.7-4.2,0.9c-1.5,0.2-2.8,0.8-2.8,2.6c0,1.6,2,2,3.1,2c1.5,0,3.8-0.8,3.8-2.9V616.3z"/>
	<path class="st8" d="M858.4,602.6h3.4v3.2h-3.4V602.6z M858.4,608.5h3.4V624h-3.4V608.5z"/>
	<path class="st8" d="M865.5,608.5h3.2v2.3l0.1,0.1c1-1.7,2.8-2.8,4.8-2.8c3.4,0,5.5,1.8,5.5,5.3V624h-3.4v-9.8
		c-0.1-2.4-1-3.5-3-3.5c-2.3,0-3.8,1.8-3.8,4.1v9.1h-3.4V608.5z"/>
	<path class="st8" d="M885.4,617.2c0,2.4,1.3,4.6,4.2,4.6c2,0,3.2-0.9,3.8-2.6h3.2c-0.7,3.4-3.7,5.3-7,5.3c-4.9,0-7.6-3.4-7.6-8.2
		c0-4.4,2.9-8.2,7.5-8.2c4.9,0,7.9,4.4,7.3,9.1H885.4z M893.4,614.9c-0.1-2.2-1.6-4.1-3.9-4.1c-2.4,0-4,1.8-4.1,4.1H893.4z"/>
	<path class="st8" d="M914,624h-3.2v-2.1h-0.1c-0.9,1.8-2.8,2.5-4.8,2.5c-4.9,0-7.3-3.6-7.3-8.3c0-5.6,3.3-8.1,6.7-8.1
		c1.9,0,4.1,0.7,5.2,2.4h0.1v-7.9h3.4V624z M906.4,621.7c3,0,4.3-2.8,4.3-5.5c0-3.5-1.6-5.5-4.3-5.5c-3.2,0-4.3,2.9-4.3,5.6
		C902.1,619.1,903.4,621.7,906.4,621.7z"/>
	<path class="st8" d="M926.2,602.6h3.4v3.2h-3.4V602.6z M926.2,608.5h3.4V624h-3.4V608.5z"/>
	<path class="st8" d="M933.3,608.5h3.2v2.3l0.1,0.1c1-1.7,2.8-2.8,4.8-2.8c3.4,0,5.5,1.8,5.5,5.3V624h-3.4v-9.8
		c-0.1-2.4-1-3.5-3-3.5c-2.3,0-3.8,1.8-3.8,4.1v9.1h-3.4V608.5z"/>
	<path class="st8" d="M973.5,624h-3.2v-2.1h-0.1c-0.9,1.8-2.8,2.5-4.8,2.5c-4.9,0-7.3-3.6-7.3-8.3c0-5.6,3.3-8.1,6.7-8.1
		c1.9,0,4.1,0.7,5.2,2.4h0.1v-7.9h3.4V624z M965.8,621.7c3,0,4.3-2.8,4.3-5.5c0-3.5-1.6-5.5-4.3-5.5c-3.2,0-4.3,2.9-4.3,5.6
		C961.5,619.1,962.8,621.7,965.8,621.7z"/>
	<path class="st8" d="M977.3,602.6h3.4v3.2h-3.4V602.6z M977.3,608.5h3.4V624h-3.4V608.5z"/>
	<path class="st8" d="M982.9,608.5h2.6v-1.3c0-4,2.1-4.6,4.3-4.6c1.1,0,1.9,0.1,2.4,0.2v2.7c-0.5-0.1-0.9-0.2-1.6-0.2
		c-0.9,0-1.7,0.3-1.7,1.6v1.6h2.9v2.6h-2.9v13h-3.4v-13h-2.6V608.5z"/>
	<path class="st8" d="M991.8,608.5h2.6v-1.3c0-4,2.1-4.6,4.3-4.6c1.1,0,1.9,0.1,2.4,0.2v2.7c-0.5-0.1-0.9-0.2-1.6-0.2
		c-0.9,0-1.7,0.3-1.7,1.6v1.6h2.9v2.6h-2.9v13h-3.4v-13h-2.6V608.5z"/>
	<path class="st8" d="M1005.4,617.2c0,2.4,1.3,4.6,4.2,4.6c2,0,3.2-0.9,3.8-2.6h3.2c-0.7,3.4-3.7,5.3-7,5.3c-4.9,0-7.6-3.4-7.6-8.2
		c0-4.4,2.9-8.2,7.5-8.2c4.9,0,7.9,4.4,7.3,9.1H1005.4z M1013.4,614.9c-0.1-2.2-1.6-4.1-3.9-4.1c-2.4,0-4,1.8-4.1,4.1H1013.4z"/>
	<path class="st8" d="M1019.4,608.5h3.2v3h0.1c0.4-1.6,2.5-3.4,4.5-3.4c0.8,0,1,0.1,1.3,0.1v3.3c-0.5-0.1-1-0.2-1.5-0.2
		c-2.3,0-4.2,1.9-4.2,5.3v7.4h-3.4V608.5z"/>
	<path class="st8" d="M1032.1,617.2c0,2.4,1.3,4.6,4.2,4.6c2,0,3.2-0.9,3.8-2.6h3.2c-0.7,3.4-3.7,5.3-7,5.3c-4.9,0-7.6-3.4-7.6-8.2
		c0-4.4,2.9-8.2,7.5-8.2c4.9,0,7.9,4.4,7.3,9.1H1032.1z M1040.1,614.9c-0.1-2.2-1.6-4.1-3.9-4.1c-2.4,0-4,1.8-4.1,4.1H1040.1z"/>
	<path class="st8" d="M1046.1,608.5h3.2v2.3l0.1,0.1c1-1.7,2.8-2.8,4.8-2.8c3.4,0,5.5,1.8,5.5,5.3V624h-3.4v-9.8
		c-0.1-2.4-1-3.5-3-3.5c-2.3,0-3.8,1.8-3.8,4.1v9.1h-3.4V608.5z"/>
	<path class="st8" d="M1061.8,608.5h2.6v-4.6h3.4v4.6h3.1v2.6h-3.1v8.3c0,1.4,0.1,2.1,1.6,2.1c0.5,0,1,0,1.4-0.1v2.6
		c-0.8,0.1-1.5,0.2-2.2,0.2c-3.6,0-4.2-1.4-4.3-4v-9.1h-2.6V608.5z"/>
	<path class="st8" d="M1080.3,608.5h3.6l3,11.6h0.1l2.9-11.6h3.5l2.8,11.6h0.1l3.1-11.6h3.5L1098,624h-3.5l-2.9-11.5h-0.1l-2.8,11.5
		h-3.6L1080.3,608.5z"/>
	<path class="st8" d="M1118,620.6c0,0.8,0.2,1.2,0.8,1.2h0.4c0.2,0,0.3,0,0.5-0.1v2.4c-0.5,0.2-1.6,0.4-2.2,0.4
		c-1.4,0-2.4-0.5-2.6-1.9c-1.3,1.3-3.5,1.9-5.4,1.9c-2.8,0-5.3-1.5-5.3-4.5c0-3.9,3.1-4.5,6-4.8c2.5-0.5,4.6-0.2,4.6-2.2
		c0-1.8-1.9-2.1-3.2-2.1c-1.9,0-3.3,0.8-3.4,2.5h-3.4c0.2-4,3.6-5.2,7-5.2c3,0,6.2,1.2,6.2,4.5V620.6z M1114.6,616.3
		c-1,0.7-2.7,0.7-4.2,0.9c-1.5,0.2-2.8,0.8-2.8,2.6c0,1.6,2,2,3.1,2c1.5,0,3.8-0.8,3.8-2.9V616.3z"/>
	<path class="st8" d="M1120,608.5h3.8l4,11.6h0.1l3.9-11.6h3.6l-6,16.3c-1.1,2.8-1.9,5.3-5.5,5.3c-0.8,0-1.6-0.1-2.4-0.2v-2.9
		c0.6,0.1,1.1,0.2,1.6,0.2c1.6,0,2-0.8,2.4-2.2l0.4-1.2L1120,608.5z"/>
	<path class="st8" d="M1139.9,619c0.2,2,1.7,2.7,3.5,2.7c1.3,0,3.5-0.3,3.5-2c-0.1-1.8-2.6-2-5.1-2.6c-2.5-0.5-5-1.4-5-4.6
		c0-3.4,3.7-4.4,6.5-4.4c3.2,0,6.1,1.3,6.5,4.8h-3.6c-0.3-1.7-1.6-2.1-3.2-2.1c-1,0-2.8,0.2-2.8,1.6c0,1.7,2.5,2,5,2.5
		c2.5,0.6,5,1.5,5,4.5c0,3.7-3.7,5-6.9,5c-3.9,0-6.8-1.7-6.9-5.4H1139.9z"/>
	<path class="st8" d="M1175.8,624h-3.2v-2.1h-0.1c-0.9,1.8-2.8,2.5-4.8,2.5c-4.9,0-7.3-3.6-7.3-8.3c0-5.6,3.3-8.1,6.7-8.1
		c1.9,0,4.1,0.7,5.2,2.4h0.1v-7.9h3.4V624z M1168.2,621.7c3,0,4.3-2.8,4.3-5.5c0-3.5-1.6-5.5-4.3-5.5c-3.2,0-4.3,2.9-4.3,5.6
		C1163.9,619.1,1165.2,621.7,1168.2,621.7z"/>
	<path class="st8" d="M1182.2,617.2c0,2.4,1.3,4.6,4.2,4.6c2,0,3.2-0.9,3.8-2.6h3.2c-0.7,3.4-3.7,5.3-7,5.3c-4.9,0-7.6-3.4-7.6-8.2
		c0-4.4,2.9-8.2,7.5-8.2c4.9,0,7.9,4.4,7.3,9.1H1182.2z M1190.2,614.9c-0.1-2.2-1.6-4.1-3.9-4.1c-2.4,0-4,1.8-4.1,4.1H1190.2z"/>
	<path class="st8" d="M1196.3,608.5h3.2v2.1h0.1c1-1.8,2.8-2.5,4.8-2.5c4.9,0,7.3,3.7,7.3,8.2c0,4.2-2.1,8.1-6.7,8.1
		c-2,0-4.1-0.7-5.2-2.4h-0.1v7.7h-3.4V608.5z M1203.9,610.8c-2.9,0-4.4,2.2-4.4,5.5c0,3.1,1.6,5.5,4.4,5.5c3.1,0,4.3-2.8,4.3-5.5
		C1208.2,613.5,1206.8,610.8,1203.9,610.8z"/>
	<path class="st8" d="M1217.2,617.2c0,2.4,1.3,4.6,4.2,4.6c2,0,3.2-0.9,3.8-2.6h3.2c-0.7,3.4-3.7,5.3-7,5.3c-4.9,0-7.6-3.4-7.6-8.2
		c0-4.4,2.9-8.2,7.5-8.2c4.9,0,7.9,4.4,7.3,9.1H1217.2z M1225.2,614.9c-0.1-2.2-1.6-4.1-3.9-4.1c-2.4,0-4,1.8-4.1,4.1H1225.2z"/>
	<path class="st8" d="M1231.2,608.5h3.2v2.3l0.1,0.1c1-1.7,2.8-2.8,4.8-2.8c3.4,0,5.5,1.8,5.5,5.3V624h-3.4v-9.8
		c-0.1-2.4-1-3.5-3-3.5c-2.3,0-3.8,1.8-3.8,4.1v9.1h-3.4V608.5z"/>
	<path class="st8" d="M1263,624h-3.2v-2.1h-0.1c-0.9,1.8-2.8,2.5-4.8,2.5c-4.9,0-7.3-3.6-7.3-8.3c0-5.6,3.3-8.1,6.7-8.1
		c1.9,0,4.1,0.7,5.2,2.4h0.1v-7.9h3.4V624z M1255.4,621.7c3,0,4.3-2.8,4.3-5.5c0-3.5-1.6-5.5-4.3-5.5c-3.2,0-4.3,2.9-4.3,5.6
		C1251.1,619.1,1252.4,621.7,1255.4,621.7z"/>
	<path class="st8" d="M1266.9,602.6h3.4v3.2h-3.4V602.6z M1266.9,608.5h3.4V624h-3.4V608.5z"/>
	<path class="st8" d="M1274,608.5h3.2v2.3l0.1,0.1c1-1.7,2.8-2.8,4.8-2.8c3.4,0,5.5,1.8,5.5,5.3V624h-3.4v-9.8c-0.1-2.4-1-3.5-3-3.5
		c-2.3,0-3.8,1.8-3.8,4.1v9.1h-3.4V608.5z"/>
	<path class="st8" d="M1305.6,623.2c0,4.7-2.7,7-7.6,7c-3.1,0-6.6-1.2-6.9-4.8h3.4c0.4,1.9,2,2.3,3.7,2.3c2.8,0,4-1.4,4-4v-2.4h-0.1
		c-1,1.7-2.7,2.7-4.6,2.7c-4.9,0-7-3.7-7-8.2c0-4.2,2.6-7.8,7-7.8c2,0,3.7,0.8,4.6,2.5h0.1v-2.1h3.4V623.2z M1302.1,615.9
		c0-2.7-1.2-5.1-4.2-5.1c-3,0-4.1,2.8-4.1,5.4c0,2.5,1.2,5.1,4.1,5.1C1301,621.3,1302.1,618.6,1302.1,615.9z"/>
	<path class="st8" d="M1316.6,616.3c0-4.7,2.9-8.2,7.8-8.2c5,0,7.8,3.5,7.8,8.2c0,4.8-2.9,8.2-7.8,8.2
		C1319.5,624.4,1316.6,621,1316.6,616.3z M1328.9,616.3c0-2.7-1.3-5.5-4.4-5.5c-3.1,0-4.4,2.8-4.4,5.5c0,2.7,1.3,5.5,4.4,5.5
		C1327.5,621.7,1328.9,619,1328.9,616.3z"/>
	<path class="st8" d="M1335.1,608.5h3.2v2.3l0.1,0.1c1-1.7,2.8-2.8,4.8-2.8c3.4,0,5.5,1.8,5.5,5.3V624h-3.4v-9.8
		c-0.1-2.4-1-3.5-3-3.5c-2.3,0-3.8,1.8-3.8,4.1v9.1h-3.4V608.5z"/>
	<path class="st8" d="M1359.1,608.5h2.6v-4.6h3.4v4.6h3.1v2.6h-3.1v8.3c0,1.4,0.1,2.1,1.6,2.1c0.5,0,1,0,1.4-0.1v2.6
		c-0.8,0.1-1.5,0.2-2.2,0.2c-3.6,0-4.2-1.4-4.3-4v-9.1h-2.6V608.5z"/>
	<path class="st8" d="M1370.7,602.6h3.4v7.9h0.1c0.8-1.4,2.6-2.5,4.7-2.5c3.4,0,5.5,1.8,5.5,5.3V624h-3.4v-9.8c-0.1-2.4-1-3.5-3-3.5
		c-2.3,0-3.8,1.8-3.8,4.1v9.1h-3.4V602.6z"/>
	<path class="st8" d="M1390.6,617.2c0,2.4,1.3,4.6,4.2,4.6c2,0,3.2-0.9,3.8-2.6h3.2c-0.7,3.4-3.7,5.3-7,5.3c-4.9,0-7.6-3.4-7.6-8.2
		c0-4.4,2.9-8.2,7.5-8.2c4.9,0,7.9,4.4,7.3,9.1H1390.6z M1398.6,614.9c-0.1-2.2-1.6-4.1-3.9-4.1c-2.4,0-4,1.8-4.1,4.1H1398.6z"/>
	<path class="st8" d="M618.4,660h-3.2v-2.1h-0.1c-0.9,1.8-2.8,2.5-4.8,2.5c-4.9,0-7.3-3.6-7.3-8.3c0-5.6,3.3-8.1,6.7-8.1
		c1.9,0,4.1,0.7,5.2,2.4h0.1v-7.9h3.4V660z M610.7,657.7c3,0,4.3-2.8,4.3-5.5c0-3.5-1.6-5.5-4.3-5.5c-3.2,0-4.3,2.9-4.3,5.6
		C606.4,655.1,607.7,657.7,610.7,657.7z"/>
	<path class="st8" d="M624.7,653.2c0,2.4,1.3,4.6,4.2,4.6c2,0,3.2-0.9,3.8-2.6h3.2c-0.7,3.4-3.7,5.3-7,5.3c-4.9,0-7.6-3.4-7.6-8.2
		c0-4.4,2.9-8.2,7.5-8.2c4.9,0,7.9,4.4,7.3,9.1H624.7z M632.7,650.9c-0.1-2.2-1.6-4.1-3.9-4.1c-2.4,0-4,1.8-4.1,4.1H632.7z"/>
	<path class="st8" d="M638.8,644.5h3.2v2.1h0.1c1-1.8,2.8-2.5,4.8-2.5c4.9,0,7.3,3.7,7.3,8.2c0,4.2-2.1,8.1-6.7,8.1
		c-2,0-4.1-0.7-5.2-2.4h-0.1v7.7h-3.4V644.5z M646.5,646.8c-2.9,0-4.4,2.2-4.4,5.5c0,3.1,1.6,5.5,4.4,5.5c3.1,0,4.3-2.8,4.3-5.5
		C650.8,649.5,649.3,646.8,646.5,646.8z"/>
	<path class="st8" d="M657.2,638.6h3.4V660h-3.4V638.6z"/>
	<path class="st8" d="M663.6,652.3c0-4.7,2.9-8.2,7.8-8.2c5,0,7.8,3.5,7.8,8.2c0,4.8-2.9,8.2-7.8,8.2
		C666.5,660.4,663.6,657,663.6,652.3z M675.8,652.3c0-2.7-1.3-5.5-4.4-5.5c-3.1,0-4.4,2.8-4.4,5.5c0,2.7,1.3,5.5,4.4,5.5
		C674.5,657.7,675.8,655,675.8,652.3z"/>
	<path class="st8" d="M680.4,644.5h3.8l4,11.6h0.1l3.9-11.6h3.6l-6,16.3c-1.1,2.8-1.9,5.3-5.5,5.3c-0.8,0-1.6-0.1-2.4-0.2v-2.9
		c0.6,0.1,1.1,0.2,1.6,0.2c1.6,0,2-0.8,2.4-2.2l0.4-1.2L680.4,644.5z"/>
	<path class="st8" d="M697.7,644.5h3.2v2.2h0.1c1-1.5,2.3-2.6,4.8-2.6c1.9,0,3.7,0.8,4.3,2.6c1.2-1.6,2.6-2.6,4.9-2.6
		c3.3,0,5.2,1.5,5.2,5.2V660h-3.4V651c0-2.5-0.1-4.2-2.8-4.2c-2.3,0-3.3,1.5-3.3,4.1v9.1h-3.4v-10c0-2.2-0.7-3.3-2.7-3.3
		c-1.8,0-3.4,1.5-3.4,4v9.2h-3.4V644.5z"/>
	<path class="st8" d="M726.4,653.2c0,2.4,1.3,4.6,4.2,4.6c2,0,3.2-0.9,3.8-2.6h3.2c-0.7,3.4-3.7,5.3-7,5.3c-4.9,0-7.6-3.4-7.6-8.2
		c0-4.4,2.9-8.2,7.5-8.2c4.9,0,7.9,4.4,7.3,9.1H726.4z M734.4,650.9c-0.1-2.2-1.6-4.1-3.9-4.1c-2.4,0-4,1.8-4.1,4.1H734.4z"/>
	<path class="st8" d="M740.5,644.5h3.2v2.3l0.1,0.1c1-1.7,2.8-2.8,4.8-2.8c3.4,0,5.5,1.8,5.5,5.3V660h-3.4v-9.8
		c-0.1-2.4-1-3.5-3-3.5c-2.3,0-3.8,1.8-3.8,4.1v9.1h-3.4V644.5z"/>
	<path class="st8" d="M756.1,644.5h2.6v-4.6h3.4v4.6h3.1v2.6h-3.1v8.3c0,1.4,0.1,2.1,1.7,2.1c0.5,0,1,0,1.4-0.1v2.6
		c-0.8,0.1-1.5,0.2-2.2,0.2c-3.6,0-4.2-1.4-4.3-4v-9.1h-2.6V644.5z"/>
	<path class="st8" d="M776,644.5h3.2v2.2h0.1c1-1.5,2.3-2.6,4.8-2.6c1.9,0,3.7,0.8,4.3,2.6c1.2-1.6,2.6-2.6,4.9-2.6
		c3.3,0,5.2,1.5,5.2,5.2V660h-3.4V651c0-2.5-0.1-4.2-2.8-4.2c-2.3,0-3.3,1.5-3.3,4.1v9.1h-3.4v-10c0-2.2-0.7-3.3-2.7-3.3
		c-1.8,0-3.4,1.5-3.4,4v9.2H776V644.5z"/>
	<path class="st8" d="M801.4,652.3c0-4.7,2.9-8.2,7.8-8.2c5,0,7.8,3.5,7.8,8.2c0,4.8-2.9,8.2-7.8,8.2
		C804.3,660.4,801.4,657,801.4,652.3z M813.6,652.3c0-2.7-1.3-5.5-4.4-5.5c-3.1,0-4.4,2.8-4.4,5.5c0,2.7,1.3,5.5,4.4,5.5
		C812.3,657.7,813.6,655,813.6,652.3z"/>
	<path class="st8" d="M834.5,660h-3.2v-2.1h-0.1c-0.9,1.8-2.8,2.5-4.8,2.5c-4.9,0-7.3-3.6-7.3-8.3c0-5.6,3.3-8.1,6.7-8.1
		c1.9,0,4.1,0.7,5.2,2.4h0.1v-7.9h3.4V660z M826.9,657.7c3,0,4.3-2.8,4.3-5.5c0-3.5-1.6-5.5-4.3-5.5c-3.2,0-4.3,2.9-4.3,5.6
		C822.6,655.1,823.9,657.7,826.9,657.7z"/>
	<path class="st8" d="M840.9,653.2c0,2.4,1.3,4.6,4.2,4.6c2,0,3.2-0.9,3.8-2.6h3.2c-0.7,3.4-3.7,5.3-7,5.3c-4.9,0-7.6-3.4-7.6-8.2
		c0-4.4,2.9-8.2,7.5-8.2c4.9,0,7.9,4.4,7.3,9.1H840.9z M848.9,650.9c-0.1-2.2-1.6-4.1-3.9-4.1c-2.4,0-4,1.8-4.1,4.1H848.9z"/>
	<path class="st8" d="M855,638.6h3.4V660H855V638.6z"/>
	<path class="st8" d="M603.4,696.2h8.7v3.2h-8.7V696.2z"/>
	<path class="st8" d="M632.6,684.6h3.7V706h-3.7V684.6z"/>
	<path class="st8" d="M640.4,690.5h3.2v2.3l0.1,0.1c1-1.7,2.8-2.8,4.8-2.8c3.4,0,5.5,1.8,5.5,5.3V706h-3.4v-9.8
		c-0.1-2.4-1-3.5-3-3.5c-2.3,0-3.8,1.8-3.8,4.1v9.1h-3.4V690.5z"/>
	<path class="st8" d="M660.2,701c0.2,2,1.7,2.7,3.5,2.7c1.3,0,3.5-0.3,3.5-2c-0.1-1.8-2.6-2-5.1-2.6c-2.5-0.5-5-1.4-5-4.6
		c0-3.4,3.7-4.4,6.5-4.4c3.2,0,6.1,1.3,6.5,4.8h-3.6c-0.3-1.7-1.6-2.1-3.2-2.1c-1,0-2.8,0.2-2.8,1.6c0,1.7,2.5,2,5,2.5
		c2.5,0.6,5,1.5,5,4.5c0,3.7-3.7,5-6.9,5c-3.9,0-6.8-1.7-6.9-5.4H660.2z"/>
	<path class="st8" d="M671.7,690.5h2.6v-4.6h3.4v4.6h3.1v2.6h-3.1v8.3c0,1.4,0.1,2.1,1.7,2.1c0.5,0,1,0,1.4-0.1v2.6
		c-0.8,0.1-1.5,0.2-2.2,0.2c-3.6,0-4.2-1.4-4.3-4v-9.1h-2.6V690.5z"/>
	<path class="st8" d="M696.2,702.6c0,0.8,0.2,1.2,0.8,1.2h0.4c0.2,0,0.3,0,0.5-0.1v2.4c-0.5,0.2-1.6,0.4-2.2,0.4
		c-1.4,0-2.4-0.5-2.6-1.9c-1.3,1.3-3.5,1.9-5.4,1.9c-2.8,0-5.3-1.5-5.3-4.5c0-3.9,3.1-4.5,6-4.8c2.5-0.5,4.6-0.2,4.6-2.2
		c0-1.8-1.9-2.1-3.2-2.1c-1.9,0-3.3,0.8-3.4,2.5h-3.4c0.2-4,3.6-5.2,7-5.2c3,0,6.2,1.2,6.2,4.5V702.6z M692.8,698.3
		c-1,0.7-2.7,0.7-4.2,0.9c-1.5,0.2-2.8,0.8-2.8,2.6c0,1.6,2,2,3.1,2c1.5,0,3.8-0.8,3.8-2.9V698.3z"/>
	<path class="st8" d="M700,684.6h3.4V706H700V684.6z"/>
	<path class="st8" d="M707.2,684.6h3.4V706h-3.4V684.6z"/>
	<path class="st8" d="M722,698.3c0-4.7,2.9-8.2,7.8-8.2c5,0,7.8,3.5,7.8,8.2c0,4.8-2.9,8.2-7.8,8.2C724.9,706.4,722,703,722,698.3z
		 M734.2,698.3c0-2.7-1.3-5.5-4.4-5.5c-3.1,0-4.4,2.8-4.4,5.5c0,2.7,1.3,5.5,4.4,5.5C732.9,703.7,734.2,701,734.2,698.3z"/>
	<path class="st8" d="M740.5,690.5h3.2v2.3l0.1,0.1c1-1.7,2.8-2.8,4.8-2.8c3.4,0,5.5,1.8,5.5,5.3V706h-3.4v-9.8
		c-0.1-2.4-1-3.5-3-3.5c-2.3,0-3.8,1.8-3.8,4.1v9.1h-3.4V690.5z"/>
	<path class="st8" d="M766.1,690.5h3.2v2.1h0.1c1-1.8,2.8-2.5,4.8-2.5c4.9,0,7.3,3.7,7.3,8.2c0,4.2-2.1,8.1-6.7,8.1
		c-2,0-4.1-0.7-5.2-2.4h-0.1v7.7h-3.4V690.5z M773.8,692.8c-2.9,0-4.4,2.2-4.4,5.5c0,3.1,1.6,5.5,4.4,5.5c3.1,0,4.3-2.8,4.3-5.5
		C778.1,695.5,776.6,692.8,773.8,692.8z"/>
	<path class="st8" d="M784.4,690.5h3.2v3h0.1c0.4-1.6,2.5-3.4,4.5-3.4c0.8,0,1,0.1,1.3,0.1v3.3c-0.5-0.1-1-0.2-1.5-0.2
		c-2.3,0-4.2,1.9-4.2,5.3v7.4h-3.4V690.5z"/>
	<path class="st8" d="M797.1,699.2c0,2.4,1.3,4.6,4.2,4.6c2,0,3.2-0.9,3.8-2.6h3.2c-0.7,3.4-3.7,5.3-7,5.3c-4.9,0-7.6-3.4-7.6-8.2
		c0-4.4,2.9-8.2,7.5-8.2c4.9,0,7.9,4.4,7.3,9.1H797.1z M805,696.9c-0.1-2.2-1.6-4.1-3.9-4.1c-2.4,0-4,1.8-4.1,4.1H805z"/>
	<path class="st8" d="M811.1,690.5h3.2v2.2h0.1c1-1.5,2.3-2.6,4.8-2.6c1.9,0,3.7,0.8,4.3,2.6c1.2-1.6,2.6-2.6,4.9-2.6
		c3.3,0,5.2,1.5,5.2,5.2V706h-3.4V697c0-2.5-0.1-4.2-2.8-4.2c-2.3,0-3.3,1.5-3.3,4.1v9.1h-3.4v-10c0-2.2-0.7-3.3-2.7-3.3
		c-1.8,0-3.4,1.5-3.4,4v9.2h-3.4V690.5z"/>
	<path class="st8" d="M837.3,684.6h3.4v3.2h-3.4V684.6z M837.3,690.5h3.4V706h-3.4V690.5z"/>
	<path class="st8" d="M847,701c0.2,2,1.7,2.7,3.5,2.7c1.3,0,3.5-0.3,3.5-2c-0.1-1.8-2.6-2-5.1-2.6c-2.5-0.5-5-1.4-5-4.6
		c0-3.4,3.7-4.4,6.5-4.4c3.2,0,6.1,1.3,6.5,4.8h-3.6c-0.3-1.7-1.6-2.1-3.2-2.1c-1,0-2.8,0.2-2.8,1.6c0,1.7,2.5,2,5,2.5
		c2.5,0.6,5,1.5,5,4.5c0,3.7-3.7,5-6.9,5c-3.9,0-6.8-1.7-6.9-5.4H847z"/>
	<path class="st8" d="M862.6,699.2c0,2.4,1.3,4.6,4.2,4.6c2,0,3.2-0.9,3.8-2.6h3.2c-0.7,3.4-3.7,5.3-7,5.3c-4.9,0-7.6-3.4-7.6-8.2
		c0-4.4,2.9-8.2,7.5-8.2c4.9,0,7.9,4.4,7.3,9.1H862.6z M870.6,696.9c-0.1-2.2-1.6-4.1-3.9-4.1c-2.4,0-4,1.8-4.1,4.1H870.6z"/>
	<path class="st8" d="M883.2,696.2h15v3.2h-15V696.2z"/>
	<path class="st8" d="M921.3,702.6c0,0.8,0.2,1.2,0.8,1.2h0.4c0.2,0,0.3,0,0.5-0.1v2.4c-0.5,0.2-1.6,0.4-2.2,0.4
		c-1.4,0-2.4-0.5-2.6-1.9c-1.3,1.3-3.5,1.9-5.4,1.9c-2.8,0-5.3-1.5-5.3-4.5c0-3.9,3.1-4.5,6-4.8c2.5-0.5,4.6-0.2,4.6-2.2
		c0-1.8-1.9-2.1-3.2-2.1c-1.9,0-3.3,0.8-3.4,2.5h-3.4c0.2-4,3.6-5.2,7-5.2c3,0,6.2,1.2,6.2,4.5V702.6z M917.9,698.3
		c-1,0.7-2.7,0.7-4.2,0.9c-1.5,0.2-2.8,0.8-2.8,2.6c0,1.6,2,2,3.1,2c1.5,0,3.8-0.8,3.8-2.9V698.3z"/>
	<path class="st8" d="M933.8,684.6h8.9c6.6,0,9.5,4.8,9.5,10.7c0,5.9-2.8,10.7-9.5,10.7h-8.9V684.6z M937.6,703h3.7
		c5.9,0,7.1-3.3,7.1-7.7c0-4.3-1.3-7.6-7.1-7.6h-3.7V703z"/>
	<path class="st8" d="M955.4,684.6h3.8v8.5h9.8v-8.5h3.8V706h-3.8v-9.7h-9.8v9.7h-3.8V684.6z"/>
	<path class="st8" d="M977.2,684.6h14.8v3.2h-11v5.6h9.7v3.1h-9.7v9.5h-3.7V684.6z"/>
	<path class="st8" d="M1002.9,684.6h3.4v3.2h-3.4V684.6z M1002.9,690.5h3.4V706h-3.4V690.5z"/>
	<path class="st8" d="M1012.6,701c0.2,2,1.7,2.7,3.5,2.7c1.3,0,3.5-0.3,3.5-2c-0.1-1.8-2.6-2-5.1-2.6c-2.5-0.5-5-1.4-5-4.6
		c0-3.4,3.7-4.4,6.5-4.4c3.2,0,6.1,1.3,6.5,4.8h-3.6c-0.3-1.7-1.6-2.1-3.2-2.1c-1,0-2.8,0.2-2.8,1.6c0,1.7,2.5,2,5,2.5
		c2.5,0.6,5,1.5,5,4.5c0,3.7-3.7,5-6.9,5c-3.9,0-6.8-1.7-6.9-5.4H1012.6z"/>
	<path class="st8" d="M1036.6,699.2c0,2.4,1.3,4.6,4.2,4.6c2,0,3.2-0.9,3.8-2.6h3.2c-0.7,3.4-3.7,5.3-7,5.3c-4.9,0-7.6-3.4-7.6-8.2
		c0-4.4,2.9-8.2,7.5-8.2c4.9,0,7.9,4.4,7.3,9.1H1036.6z M1044.6,696.9c-0.1-2.2-1.6-4.1-3.9-4.1c-2.4,0-4,1.8-4.1,4.1H1044.6z"/>
	<path class="st8" d="M1053.2,701c0.2,2,1.7,2.7,3.5,2.7c1.3,0,3.5-0.3,3.5-2c-0.1-1.8-2.6-2-5.1-2.6c-2.5-0.5-5-1.4-5-4.6
		c0-3.4,3.7-4.4,6.5-4.4c3.2,0,6.1,1.3,6.5,4.8h-3.6c-0.3-1.7-1.6-2.1-3.2-2.1c-1,0-2.8,0.2-2.8,1.6c0,1.7,2.5,2,5,2.5
		c2.5,0.6,5,1.5,5,4.5c0,3.7-3.7,5-6.9,5c-3.9,0-6.8-1.7-6.9-5.4H1053.2z"/>
	<path class="st8" d="M1064.6,690.5h2.6v-4.6h3.4v4.6h3.1v2.6h-3.1v8.3c0,1.4,0.1,2.1,1.6,2.1c0.5,0,1,0,1.4-0.1v2.6
		c-0.8,0.1-1.5,0.2-2.2,0.2c-3.6,0-4.2-1.4-4.3-4v-9.1h-2.6V690.5z"/>
	<path class="st8" d="M1089.2,702.6c0,0.8,0.2,1.2,0.8,1.2h0.4c0.2,0,0.3,0,0.5-0.1v2.4c-0.5,0.2-1.6,0.4-2.2,0.4
		c-1.4,0-2.4-0.5-2.6-1.9c-1.3,1.3-3.5,1.9-5.4,1.9c-2.8,0-5.3-1.5-5.3-4.5c0-3.9,3.1-4.5,6-4.8c2.5-0.5,4.6-0.2,4.6-2.2
		c0-1.8-1.9-2.1-3.2-2.1c-1.9,0-3.3,0.8-3.4,2.5h-3.4c0.2-4,3.6-5.2,7-5.2c3,0,6.2,1.2,6.2,4.5V702.6z M1085.8,698.3
		c-1,0.7-2.7,0.7-4.2,0.9c-1.5,0.2-2.8,0.8-2.8,2.6c0,1.6,2,2,3.1,2c1.5,0,3.8-0.8,3.8-2.9V698.3z"/>
	<path class="st8" d="M1093,684.6h3.4v7.9h0.1c1-1.5,2.8-2.4,4.6-2.4c4.9,0,7.3,3.7,7.3,8.2c0,4.2-2.1,8.1-6.7,8.1
		c-2.1,0-4.3-0.5-5.4-2.5h-0.1v2.1h-3.2V684.6z M1100.6,692.8c-2.9,0-4.4,2.2-4.4,5.5c0,3.1,1.6,5.5,4.4,5.5c3.1,0,4.3-2.8,4.3-5.5
		C1104.9,695.5,1103.4,692.8,1100.6,692.8z"/>
	<path class="st8" d="M1111.3,684.6h3.4V706h-3.4V684.6z"/>
	<path class="st8" d="M1118.5,684.6h3.4v3.2h-3.4V684.6z M1118.5,690.5h3.4V706h-3.4V690.5z"/>
	<path class="st8" d="M1128.2,701c0.2,2,1.7,2.7,3.5,2.7c1.3,0,3.5-0.3,3.5-2c-0.1-1.8-2.6-2-5.1-2.6c-2.5-0.5-5-1.4-5-4.6
		c0-3.4,3.7-4.4,6.5-4.4c3.2,0,6.1,1.3,6.5,4.8h-3.6c-0.3-1.7-1.6-2.1-3.2-2.1c-1,0-2.8,0.2-2.8,1.6c0,1.7,2.5,2,5,2.5
		c2.5,0.6,5,1.5,5,4.5c0,3.7-3.7,5-6.9,5c-3.9,0-6.8-1.7-6.9-5.4H1128.2z"/>
	<path class="st8" d="M1141.2,684.6h3.4v7.9h0.1c0.8-1.4,2.6-2.5,4.7-2.5c3.4,0,5.5,1.8,5.5,5.3V706h-3.4v-9.8c-0.1-2.4-1-3.5-3-3.5
		c-2.3,0-3.8,1.8-3.8,4.1v9.1h-3.4V684.6z"/>
	<path class="st8" d="M1161.1,699.2c0,2.4,1.3,4.6,4.2,4.6c2,0,3.2-0.9,3.8-2.6h3.2c-0.7,3.4-3.7,5.3-7,5.3c-4.9,0-7.6-3.4-7.6-8.2
		c0-4.4,2.9-8.2,7.5-8.2c4.9,0,7.9,4.4,7.3,9.1H1161.1z M1169.1,696.9c-0.1-2.2-1.6-4.1-3.9-4.1c-2.4,0-4,1.8-4.1,4.1H1169.1z"/>
	<path class="st8" d="M1189.7,706h-3.2v-2.1h-0.1c-0.9,1.8-2.8,2.5-4.8,2.5c-4.9,0-7.3-3.6-7.3-8.3c0-5.6,3.3-8.1,6.7-8.1
		c1.9,0,4.1,0.7,5.2,2.4h0.1v-7.9h3.4V706z M1182.1,703.7c3,0,4.3-2.8,4.3-5.5c0-3.5-1.6-5.5-4.3-5.5c-3.2,0-4.3,2.9-4.3,5.6
		C1177.8,701.1,1179.1,703.7,1182.1,703.7z"/>
	<path class="st8" d="M1200.3,690.5h2.6v-1.3c0-4,2.1-4.6,4.3-4.6c1.1,0,1.9,0.1,2.4,0.2v2.7c-0.5-0.1-0.9-0.2-1.6-0.2
		c-0.9,0-1.7,0.3-1.7,1.6v1.6h2.9v2.6h-2.9v13h-3.4v-13h-2.6V690.5z"/>
	<path class="st8" d="M1210.5,698.3c0-4.7,2.9-8.2,7.8-8.2c5,0,7.8,3.5,7.8,8.2c0,4.8-2.9,8.2-7.8,8.2
		C1213.4,706.4,1210.5,703,1210.5,698.3z M1222.8,698.3c0-2.7-1.3-5.5-4.4-5.5c-3.1,0-4.4,2.8-4.4,5.5c0,2.7,1.3,5.5,4.4,5.5
		C1221.4,703.7,1222.8,701,1222.8,698.3z"/>
	<path class="st8" d="M1229,690.5h3.2v3h0.1c0.4-1.6,2.5-3.4,4.5-3.4c0.8,0,1,0.1,1.3,0.1v3.3c-0.5-0.1-1-0.2-1.5-0.2
		c-2.3,0-4.2,1.9-4.2,5.3v7.4h-3.4V690.5z"/>
	<path class="st8" d="M1250.6,699.2c0,2.4,1.3,4.6,4.2,4.6c2,0,3.2-0.9,3.8-2.6h3.2c-0.7,3.4-3.7,5.3-7,5.3c-4.9,0-7.6-3.4-7.6-8.2
		c0-4.4,2.9-8.2,7.5-8.2c4.9,0,7.9,4.4,7.3,9.1H1250.6z M1258.6,696.9c-0.1-2.2-1.6-4.1-3.9-4.1c-2.4,0-4,1.8-4.1,4.1H1258.6z"/>
	<path class="st8" d="M1277.6,702.6c0,0.8,0.2,1.2,0.8,1.2h0.4c0.2,0,0.3,0,0.5-0.1v2.4c-0.5,0.2-1.6,0.4-2.2,0.4
		c-1.4,0-2.4-0.5-2.6-1.9c-1.3,1.3-3.5,1.9-5.4,1.9c-2.8,0-5.3-1.5-5.3-4.5c0-3.9,3.1-4.5,6-4.8c2.5-0.5,4.6-0.2,4.6-2.2
		c0-1.8-1.9-2.1-3.2-2.1c-1.9,0-3.3,0.8-3.4,2.5h-3.4c0.2-4,3.6-5.2,7-5.2c3,0,6.2,1.2,6.2,4.5V702.6z M1274.2,698.3
		c-1,0.7-2.7,0.7-4.2,0.9c-1.5,0.2-2.8,0.8-2.8,2.6c0,1.6,2,2,3.1,2c1.5,0,3.8-0.8,3.8-2.9V698.3z"/>
	<path class="st8" d="M1291.8,695.7c-0.3-1.9-1.6-2.9-3.5-2.9c-1.8,0-4.3,1-4.3,5.6c0,2.6,1.1,5.3,4.1,5.3c2,0,3.4-1.3,3.7-3.5h3.4
		c-0.6,4-3.1,6.2-7.1,6.2c-4.9,0-7.5-3.5-7.5-8c0-4.7,2.5-8.3,7.6-8.3c3.6,0,6.7,1.8,7,5.6H1291.8z"/>
	<path class="st8" d="M1298,684.6h3.4v7.9h0.1c0.8-1.4,2.6-2.5,4.6-2.5c3.4,0,5.5,1.8,5.5,5.3V706h-3.4v-9.8c-0.1-2.4-1-3.5-3-3.5
		c-2.3,0-3.8,1.8-3.8,4.1v9.1h-3.4V684.6z"/>
	<path class="st8" d="M648.6,731.3c0,6.2-3.9,11.2-10.3,11.2s-10.3-5.1-10.3-11.2c0-6.1,3.9-11.2,10.3-11.2S648.6,725.2,648.6,731.3
		z M631.8,731.3c0,4.1,1.9,8.2,6.5,8.2s6.5-4,6.5-8.2c0-4.1-1.9-8.2-6.5-8.2S631.8,727.2,631.8,731.3z"/>
	<path class="st8" d="M650,726.5h2.6v-1.3c0-4,2.1-4.6,4.3-4.6c1.1,0,1.9,0.1,2.4,0.2v2.7c-0.5-0.1-0.9-0.2-1.6-0.2
		c-0.9,0-1.7,0.3-1.7,1.6v1.6h2.9v2.6H656v13h-3.4v-13H650V726.5z"/>
	<path class="st8" d="M658.9,726.5h2.6v-1.3c0-4,2.1-4.6,4.3-4.6c1.1,0,1.9,0.1,2.4,0.2v2.7c-0.5-0.1-0.9-0.2-1.6-0.2
		c-0.9,0-1.7,0.3-1.7,1.6v1.6h2.9v2.6h-2.9v13h-3.4v-13h-2.6V726.5z"/>
	<path class="st8" d="M672.6,735.2c0,2.4,1.3,4.6,4.2,4.6c2,0,3.2-0.9,3.8-2.6h3.2c-0.7,3.4-3.7,5.3-7,5.3c-4.9,0-7.6-3.4-7.6-8.2
		c0-4.4,2.9-8.2,7.5-8.2c4.9,0,7.9,4.4,7.3,9.1H672.6z M680.6,732.9c-0.1-2.2-1.6-4.1-3.9-4.1c-2.4,0-4,1.8-4.1,4.1H680.6z"/>
	<path class="st8" d="M686.6,726.5h3.2v3h0.1c0.4-1.6,2.5-3.4,4.5-3.4c0.8,0,1,0.1,1.3,0.1v3.3c-0.5-0.1-1-0.2-1.5-0.2
		c-2.3,0-4.2,1.9-4.2,5.3v7.4h-3.4V726.5z"/>
	<path class="st8" d="M697.2,720.6h3.4v3.2h-3.4V720.6z M697.2,726.5h3.4V742h-3.4V726.5z"/>
	<path class="st8" d="M704.4,726.5h3.2v2.3l0.1,0.1c1-1.7,2.8-2.8,4.8-2.8c3.4,0,5.5,1.8,5.5,5.3V742h-3.4v-9.8
		c-0.1-2.4-1-3.5-3-3.5c-2.3,0-3.8,1.8-3.8,4.1v9.1h-3.4V726.5z"/>
	<path class="st8" d="M735.9,741.2c0,4.7-2.7,7-7.6,7c-3.1,0-6.6-1.2-6.9-4.8h3.4c0.4,1.9,2,2.3,3.7,2.3c2.8,0,4-1.4,4-4v-2.4h-0.1
		c-1,1.7-2.7,2.7-4.6,2.7c-4.9,0-7-3.7-7-8.2c0-4.2,2.6-7.8,7-7.8c2,0,3.7,0.8,4.6,2.5h0.1v-2.1h3.4V741.2z M732.5,733.9
		c0-2.7-1.2-5.1-4.2-5.1c-3,0-4.1,2.8-4.1,5.4c0,2.5,1.2,5.1,4.1,5.1C731.4,739.3,732.5,736.6,732.5,733.9z"/>
	<path class="st8" d="M603.4,778.2h8.7v3.2h-8.7V778.2z"/>
	<path class="st8" d="M632.6,766.6h14.8v3.2h-11v5.6h9.7v3.1h-9.7v9.5h-3.7V766.6z"/>
	<path class="st8" d="M649.2,780.3c0-4.7,2.9-8.2,7.8-8.2c5,0,7.8,3.5,7.8,8.2c0,4.8-2.9,8.2-7.8,8.2
		C652,788.4,649.2,785,649.2,780.3z M661.4,780.3c0-2.7-1.3-5.5-4.4-5.5c-3.1,0-4.4,2.8-4.4,5.5c0,2.7,1.3,5.5,4.4,5.5
		C660.1,785.7,661.4,783,661.4,780.3z"/>
	<path class="st8" d="M667.7,772.5h3.2v3h0.1c0.4-1.6,2.5-3.4,4.5-3.4c0.8,0,1,0.1,1.3,0.1v3.3c-0.5-0.1-1-0.2-1.5-0.2
		c-2.3,0-4.2,1.9-4.2,5.3v7.4h-3.4V772.5z"/>
	<path class="st8" d="M697,777.7c-0.3-1.9-1.6-2.9-3.5-2.9c-1.8,0-4.3,1-4.3,5.6c0,2.6,1.1,5.3,4.1,5.3c2,0,3.4-1.3,3.7-3.5h3.4
		c-0.6,4-3.1,6.2-7.1,6.2c-4.9,0-7.5-3.5-7.5-8c0-4.7,2.5-8.3,7.6-8.3c3.6,0,6.7,1.8,7,5.6H697z"/>
	<path class="st8" d="M703.3,766.6h3.4V788h-3.4V766.6z"/>
	<path class="st8" d="M709.8,780.3c0-4.7,2.9-8.2,7.8-8.2c5,0,7.8,3.5,7.8,8.2c0,4.8-2.9,8.2-7.8,8.2
		C712.6,788.4,709.8,785,709.8,780.3z M722,780.3c0-2.7-1.3-5.5-4.4-5.5c-3.1,0-4.4,2.8-4.4,5.5c0,2.7,1.3,5.5,4.4,5.5
		C720.7,785.7,722,783,722,780.3z"/>
	<path class="st8" d="M741.9,788h-3.4v-2.2h-0.1c-0.8,1.6-2.7,2.6-4.4,2.6c-4.1,0-5.8-2-5.8-6.1v-9.8h3.4v9.5c0,2.7,1.1,3.7,3,3.7
		c2.9,0,3.8-1.8,3.8-4.2v-9h3.4V788z"/>
	<path class="st8" d="M760.1,788h-3.2v-2.1h-0.1c-0.9,1.8-2.8,2.5-4.8,2.5c-4.9,0-7.3-3.6-7.3-8.3c0-5.6,3.3-8.1,6.7-8.1
		c1.9,0,4.1,0.7,5.2,2.4h0.1v-7.9h3.4V788z M752.5,785.7c3,0,4.3-2.8,4.3-5.5c0-3.5-1.6-5.5-4.3-5.5c-3.2,0-4.3,2.9-4.3,5.6
		C748.2,783.1,749.5,785.7,752.5,785.7z"/>
	<path class="st8" d="M772.3,766.6h3.4v7.9h0.1c1-1.5,2.8-2.4,4.6-2.4c4.9,0,7.3,3.7,7.3,8.2c0,4.2-2.1,8.1-6.7,8.1
		c-2.1,0-4.3-0.5-5.4-2.5h-0.1v2.1h-3.2V766.6z M779.9,774.8c-2.9,0-4.4,2.2-4.4,5.5c0,3.1,1.6,5.5,4.4,5.5c3.1,0,4.3-2.8,4.3-5.5
		C784.2,777.5,782.7,774.8,779.9,774.8z"/>
	<path class="st8" d="M803.5,784.6c0,0.8,0.2,1.2,0.8,1.2h0.4c0.2,0,0.3,0,0.5-0.1v2.4c-0.5,0.2-1.6,0.4-2.2,0.4
		c-1.4,0-2.4-0.5-2.6-1.9c-1.3,1.3-3.5,1.9-5.4,1.9c-2.8,0-5.3-1.5-5.3-4.5c0-3.9,3.1-4.5,6-4.8c2.5-0.5,4.6-0.2,4.6-2.2
		c0-1.8-1.9-2.1-3.2-2.1c-1.9,0-3.3,0.8-3.4,2.5h-3.4c0.2-4,3.6-5.2,7-5.2c3,0,6.2,1.2,6.2,4.5V784.6z M800.1,780.3
		c-1,0.7-2.7,0.7-4.2,0.9c-1.5,0.2-2.8,0.8-2.8,2.6c0,1.6,2,2,3.1,2c1.5,0,3.8-0.8,3.8-2.9V780.3z"/>
	<path class="st8" d="M809.8,783c0.2,2,1.7,2.7,3.5,2.7c1.3,0,3.5-0.3,3.5-2c-0.1-1.8-2.6-2-5.1-2.6c-2.5-0.5-5-1.4-5-4.6
		c0-3.4,3.7-4.4,6.5-4.4c3.2,0,6.1,1.3,6.5,4.8h-3.6c-0.3-1.7-1.6-2.1-3.2-2.1c-1,0-2.8,0.2-2.8,1.6c0,1.7,2.5,2,5,2.5
		c2.5,0.6,5,1.5,5,4.5c0,3.7-3.7,5-6.9,5c-3.9,0-6.8-1.7-6.9-5.4H809.8z"/>
	<path class="st8" d="M825.4,781.2c0,2.4,1.3,4.6,4.2,4.6c2,0,3.2-0.9,3.8-2.6h3.2c-0.7,3.4-3.7,5.3-7,5.3c-4.9,0-7.6-3.4-7.6-8.2
		c0-4.4,2.9-8.2,7.5-8.2c4.9,0,7.9,4.4,7.3,9.1H825.4z M833.4,778.9c-0.1-2.2-1.6-4.1-3.9-4.1c-2.4,0-4,1.8-4.1,4.1H833.4z"/>
	<path class="st8" d="M854,788h-3.2v-2.1h-0.1c-0.9,1.8-2.8,2.5-4.8,2.5c-4.9,0-7.3-3.6-7.3-8.3c0-5.6,3.3-8.1,6.7-8.1
		c1.9,0,4.1,0.7,5.2,2.4h0.1v-7.9h3.4V788z M846.4,785.7c3,0,4.3-2.8,4.3-5.5c0-3.5-1.6-5.5-4.3-5.5c-3.2,0-4.3,2.9-4.3,5.6
		C842.1,783.1,843.4,785.7,846.4,785.7z"/>
	<path class="st8" d="M880.7,788h-3.2v-2.1h-0.1c-0.9,1.8-2.8,2.5-4.8,2.5c-4.9,0-7.3-3.6-7.3-8.3c0-5.6,3.3-8.1,6.7-8.1
		c1.9,0,4.1,0.7,5.2,2.4h0.1v-7.9h3.4V788z M873.1,785.7c3,0,4.3-2.8,4.3-5.5c0-3.5-1.6-5.5-4.3-5.5c-3.2,0-4.3,2.9-4.3,5.6
		C868.8,783.1,870.1,785.7,873.1,785.7z"/>
	<path class="st8" d="M887.1,781.2c0,2.4,1.3,4.6,4.2,4.6c2,0,3.2-0.9,3.8-2.6h3.2c-0.7,3.4-3.7,5.3-7,5.3c-4.9,0-7.6-3.4-7.6-8.2
		c0-4.4,2.9-8.2,7.5-8.2c4.9,0,7.9,4.4,7.3,9.1H887.1z M895.1,778.9c-0.1-2.2-1.6-4.1-3.9-4.1c-2.4,0-4,1.8-4.1,4.1H895.1z"/>
	<path class="st8" d="M901.2,772.5h3.2v2.1h0.1c1-1.8,2.8-2.5,4.8-2.5c4.9,0,7.3,3.7,7.3,8.2c0,4.2-2.1,8.1-6.7,8.1
		c-2,0-4.1-0.7-5.2-2.4h-0.1v7.7h-3.4V772.5z M908.8,774.8c-2.9,0-4.4,2.2-4.4,5.5c0,3.1,1.6,5.5,4.4,5.5c3.1,0,4.3-2.8,4.3-5.5
		C913.1,777.5,911.7,774.8,908.8,774.8z"/>
	<path class="st8" d="M919.5,766.6h3.4V788h-3.4V766.6z"/>
	<path class="st8" d="M925.9,780.3c0-4.7,2.9-8.2,7.8-8.2c5,0,7.8,3.5,7.8,8.2c0,4.8-2.9,8.2-7.8,8.2
		C928.8,788.4,925.9,785,925.9,780.3z M938.2,780.3c0-2.7-1.3-5.5-4.4-5.5c-3.1,0-4.4,2.8-4.4,5.5c0,2.7,1.3,5.5,4.4,5.5
		C936.8,785.7,938.2,783,938.2,780.3z"/>
	<path class="st8" d="M942.7,772.5h3.8l4,11.6h0.1l3.9-11.6h3.6l-6,16.3c-1.1,2.8-1.9,5.3-5.5,5.3c-0.8,0-1.6-0.1-2.4-0.2v-2.9
		c0.6,0.1,1.1,0.2,1.6,0.2c1.6,0,2-0.8,2.4-2.2l0.4-1.2L942.7,772.5z"/>
	<path class="st8" d="M960,772.5h3.2v2.2h0.1c1-1.5,2.3-2.6,4.8-2.6c1.9,0,3.7,0.8,4.3,2.6c1.2-1.6,2.6-2.6,4.9-2.6
		c3.3,0,5.2,1.5,5.2,5.2V788h-3.4V779c0-2.5-0.1-4.2-2.8-4.2c-2.3,0-3.3,1.5-3.3,4.1v9.1h-3.4v-10c0-2.2-0.7-3.3-2.7-3.3
		c-1.8,0-3.4,1.5-3.4,4v9.2H960V772.5z"/>
	<path class="st8" d="M988.8,781.2c0,2.4,1.3,4.6,4.2,4.6c2,0,3.2-0.9,3.8-2.6h3.2c-0.7,3.4-3.7,5.3-7,5.3c-4.9,0-7.6-3.4-7.6-8.2
		c0-4.4,2.9-8.2,7.5-8.2c4.9,0,7.9,4.4,7.3,9.1H988.8z M996.8,778.9c-0.1-2.2-1.6-4.1-3.9-4.1c-2.4,0-4,1.8-4.1,4.1H996.8z"/>
	<path class="st8" d="M1002.8,772.5h3.2v2.3l0.1,0.1c1-1.7,2.8-2.8,4.8-2.8c3.4,0,5.5,1.8,5.5,5.3V788h-3.4v-9.8
		c-0.1-2.4-1-3.5-3-3.5c-2.3,0-3.8,1.8-3.8,4.1v9.1h-3.4V772.5z"/>
	<path class="st8" d="M1018.5,772.5h2.6v-4.6h3.4v4.6h3.1v2.6h-3.1v8.3c0,1.4,0.1,2.1,1.7,2.1c0.5,0,1,0,1.4-0.1v2.6
		c-0.8,0.1-1.5,0.2-2.2,0.2c-3.6,0-4.2-1.4-4.3-4v-9.1h-2.6V772.5z"/>
	<path class="st8" d="M1042.3,793.8c-2.4-3.9-4.3-8-4.3-13.8c0-4.8,1.6-9.6,4.3-13.8h2.8c-2.4,4.3-3.7,8.8-3.7,13.8
		s1.2,9.5,3.7,13.8H1042.3z"/>
	<path class="st8" d="M1049.6,780.9c0,3.3,2.4,4.6,5.4,4.6c3.3,0,4.5-1.7,4.5-3.2c0-1.6-0.9-2.3-1.8-2.6c-1.5-0.6-3.4-1-6.4-1.8
		c-3.7-1-4.7-3.2-4.7-5.4c0-4.3,4-6.3,7.8-6.3c4.4,0,8.2,2.4,8.2,6.8h-3.8c-0.2-2.8-2-3.8-4.6-3.8c-1.7,0-3.9,0.6-3.9,2.8
		c0,1.5,1,2.3,2.5,2.8c0.3,0.1,5.1,1.3,6.2,1.6c2.8,0.9,4.2,3.2,4.2,5.5c0,4.8-4.3,6.7-8.5,6.7c-4.9,0-8.8-2.3-8.9-7.6H1049.6z"/>
	<path class="st8" d="M1079.1,784.6c0,0.8,0.2,1.2,0.8,1.2h0.4c0.2,0,0.3,0,0.5-0.1v2.4c-0.5,0.2-1.6,0.4-2.2,0.4
		c-1.4,0-2.4-0.5-2.6-1.9c-1.3,1.3-3.5,1.9-5.4,1.9c-2.8,0-5.3-1.5-5.3-4.5c0-3.9,3.1-4.5,6-4.8c2.5-0.5,4.6-0.2,4.6-2.2
		c0-1.8-1.9-2.1-3.2-2.1c-1.9,0-3.3,0.8-3.4,2.5h-3.4c0.2-4,3.6-5.2,7-5.2c3,0,6.2,1.2,6.2,4.5V784.6z M1075.7,780.3
		c-1,0.7-2.7,0.7-4.2,0.9c-1.5,0.2-2.8,0.8-2.8,2.6c0,1.6,2,2,3.1,2c1.5,0,3.8-0.8,3.8-2.9V780.3z"/>
	<path class="st8" d="M1095.8,784.6c0,0.8,0.2,1.2,0.8,1.2h0.4c0.2,0,0.3,0,0.5-0.1v2.4c-0.5,0.2-1.6,0.4-2.2,0.4
		c-1.4,0-2.4-0.5-2.6-1.9c-1.3,1.3-3.5,1.9-5.4,1.9c-2.8,0-5.3-1.5-5.3-4.5c0-3.9,3.1-4.5,6-4.8c2.5-0.5,4.6-0.2,4.6-2.2
		c0-1.8-1.9-2.1-3.2-2.1c-1.9,0-3.3,0.8-3.4,2.5h-3.4c0.2-4,3.6-5.2,7-5.2c3,0,6.2,1.2,6.2,4.5V784.6z M1092.4,780.3
		c-1,0.7-2.7,0.7-4.2,0.9c-1.5,0.2-2.8,0.8-2.8,2.6c0,1.6,2,2,3.1,2c1.5,0,3.8-0.8,3.8-2.9V780.3z"/>
	<path class="st8" d="M1102.4,780.9c0,3.3,2.4,4.6,5.4,4.6c3.3,0,4.5-1.7,4.5-3.2c0-1.6-0.9-2.3-1.8-2.6c-1.5-0.6-3.4-1-6.4-1.8
		c-3.7-1-4.7-3.2-4.7-5.4c0-4.3,4-6.3,7.8-6.3c4.4,0,8.2,2.4,8.2,6.8h-3.8c-0.2-2.8-2-3.8-4.6-3.8c-1.7,0-3.9,0.6-3.9,2.8
		c0,1.5,1,2.3,2.5,2.8c0.3,0.1,5.1,1.3,6.2,1.6c2.8,0.9,4.2,3.2,4.2,5.5c0,4.8-4.3,6.7-8.5,6.7c-4.9,0-8.8-2.3-8.9-7.6H1102.4z"/>
	<path class="st8" d="M1119.7,766.1c2.4,3.8,4.3,8.1,4.3,13.9c0,4.8-1.6,9.6-4.3,13.8h-2.8c2.4-4.3,3.7-8.8,3.7-13.8
		c0-5-1.2-9.5-3.7-13.9H1119.7z"/>
	<path class="st8" d="M1127.5,784h4.2v4c0,2.5-1.6,4.3-4,4.7v-1.8c1.3-0.3,2-1.6,2-2.9h-2.1V784z"/>
	<path class="st8" d="M1142.4,772.5h2.6v-4.6h3.4v4.6h3.1v2.6h-3.1v8.3c0,1.4,0.1,2.1,1.7,2.1c0.5,0,1,0,1.4-0.1v2.6
		c-0.8,0.1-1.5,0.2-2.2,0.2c-3.6,0-4.2-1.4-4.3-4v-9.1h-2.6V772.5z"/>
	<path class="st8" d="M1153.9,766.6h3.4v7.9h0.1c0.8-1.4,2.6-2.5,4.6-2.5c3.4,0,5.5,1.8,5.5,5.3V788h-3.4v-9.8c-0.1-2.4-1-3.5-3-3.5
		c-2.3,0-3.8,1.8-3.8,4.1v9.1h-3.4V766.6z"/>
	<path class="st8" d="M1173.8,781.2c0,2.4,1.3,4.6,4.2,4.6c2,0,3.2-0.9,3.8-2.6h3.2c-0.7,3.4-3.7,5.3-7,5.3c-4.9,0-7.6-3.4-7.6-8.2
		c0-4.4,2.9-8.2,7.5-8.2c4.9,0,7.9,4.4,7.3,9.1H1173.8z M1181.8,778.9c-0.1-2.2-1.6-4.1-3.9-4.1c-2.4,0-4,1.8-4.1,4.1H1181.8z"/>
	<path class="st8" d="M1196.3,772.5h3.2v2.1h0.1c1-1.8,2.8-2.5,4.8-2.5c4.9,0,7.3,3.7,7.3,8.2c0,4.2-2.1,8.1-6.7,8.1
		c-2,0-4.1-0.7-5.2-2.4h-0.1v7.7h-3.4V772.5z M1203.9,774.8c-2.9,0-4.4,2.2-4.4,5.5c0,3.1,1.6,5.5,4.4,5.5c3.1,0,4.3-2.8,4.3-5.5
		C1208.2,777.5,1206.7,774.8,1203.9,774.8z"/>
	<path class="st8" d="M1214.5,772.5h3.2v3h0.1c0.4-1.6,2.5-3.4,4.5-3.4c0.8,0,1,0.1,1.3,0.1v3.3c-0.5-0.1-1-0.2-1.5-0.2
		c-2.3,0-4.2,1.9-4.2,5.3v7.4h-3.4V772.5z"/>
	<path class="st8" d="M1223.8,780.3c0-4.7,2.9-8.2,7.8-8.2c5,0,7.8,3.5,7.8,8.2c0,4.8-2.9,8.2-7.8,8.2
		C1226.7,788.4,1223.8,785,1223.8,780.3z M1236.1,780.3c0-2.7-1.3-5.5-4.4-5.5c-3.1,0-4.4,2.8-4.4,5.5c0,2.7,1.3,5.5,4.4,5.5
		C1234.7,785.7,1236.1,783,1236.1,780.3z"/>
	<path class="st8" d="M1242.4,772.5h3.4v16.8c0,3.1-1.2,4.8-4.4,4.8c-0.7,0-1.1,0-1.5-0.1v-2.7c0.5,0.1,0.8,0.1,1.2,0.1
		c1.2,0,1.4-0.8,1.4-2.3V772.5z M1242.4,766.6h3.4v3.2h-3.4V766.6z"/>
	<path class="st8" d="M1252.2,781.2c0,2.4,1.3,4.6,4.2,4.6c2,0,3.2-0.9,3.8-2.6h3.2c-0.7,3.4-3.7,5.3-7,5.3c-4.9,0-7.6-3.4-7.6-8.2
		c0-4.4,2.9-8.2,7.5-8.2c4.9,0,7.9,4.4,7.3,9.1H1252.2z M1260.2,778.9c-0.1-2.2-1.6-4.1-3.9-4.1c-2.4,0-4,1.8-4.1,4.1H1260.2z"/>
	<path class="st8" d="M1276.7,777.7c-0.3-1.9-1.6-2.9-3.5-2.9c-1.8,0-4.3,1-4.3,5.6c0,2.6,1.1,5.3,4.1,5.3c2,0,3.4-1.3,3.7-3.5h3.4
		c-0.6,4-3.1,6.2-7.1,6.2c-4.9,0-7.5-3.5-7.5-8c0-4.7,2.5-8.3,7.6-8.3c3.6,0,6.7,1.8,7,5.6H1276.7z"/>
	<path class="st8" d="M1281.4,772.5h2.6v-4.6h3.4v4.6h3.1v2.6h-3.1v8.3c0,1.4,0.1,2.1,1.6,2.1c0.5,0,1,0,1.4-0.1v2.6
		c-0.8,0.1-1.5,0.2-2.2,0.2c-3.6,0-4.2-1.4-4.3-4v-9.1h-2.6V772.5z"/>
	<path class="st8" d="M1301.3,766.6h3.4v3.2h-3.4V766.6z M1301.3,772.5h3.4V788h-3.4V772.5z"/>
	<path class="st8" d="M1311,783c0.2,2,1.7,2.7,3.5,2.7c1.3,0,3.5-0.3,3.5-2c-0.1-1.8-2.6-2-5.1-2.6c-2.5-0.5-5-1.4-5-4.6
		c0-3.4,3.7-4.4,6.5-4.4c3.2,0,6.1,1.3,6.5,4.8h-3.6c-0.3-1.7-1.6-2.1-3.2-2.1c-1,0-2.8,0.2-2.8,1.6c0,1.7,2.5,2,5,2.5
		c2.5,0.6,5,1.5,5,4.5c0,3.7-3.7,5-6.9,5c-3.9,0-6.8-1.7-6.9-5.4H1311z"/>
	<path class="st8" d="M627.2,808.5h2.6v-4.6h3.4v4.6h3.1v2.6h-3.1v8.3c0,1.4,0.1,2.1,1.6,2.1c0.5,0,1,0,1.4-0.1v2.6
		c-0.8,0.1-1.5,0.2-2.2,0.2c-3.6,0-4.2-1.4-4.3-4v-9.1h-2.6V808.5z"/>
	<path class="st8" d="M638.7,808.5h3.2v3h0.1c0.4-1.6,2.5-3.4,4.5-3.4c0.8,0,1,0.1,1.3,0.1v3.3c-0.5-0.1-1-0.2-1.5-0.2
		c-2.3,0-4.2,1.9-4.2,5.3v7.4h-3.4V808.5z"/>
	<path class="st8" d="M651.4,817.2c0,2.4,1.3,4.6,4.2,4.6c2,0,3.2-0.9,3.8-2.6h3.2c-0.7,3.4-3.7,5.3-7,5.3c-4.9,0-7.6-3.4-7.6-8.2
		c0-4.4,2.9-8.2,7.5-8.2c4.9,0,7.9,4.4,7.3,9.1H651.4z M659.4,814.9c-0.1-2.2-1.6-4.1-3.9-4.1c-2.4,0-4,1.8-4.1,4.1H659.4z"/>
	<path class="st8" d="M678.4,820.6c0,0.8,0.2,1.2,0.8,1.2h0.4c0.2,0,0.3,0,0.5-0.1v2.4c-0.5,0.2-1.6,0.4-2.2,0.4
		c-1.4,0-2.4-0.5-2.6-1.9c-1.3,1.3-3.5,1.9-5.4,1.9c-2.8,0-5.3-1.5-5.3-4.5c0-3.9,3.1-4.5,6-4.8c2.5-0.5,4.6-0.2,4.6-2.2
		c0-1.8-1.9-2.1-3.2-2.1c-1.9,0-3.3,0.8-3.4,2.5h-3.4c0.2-4,3.6-5.2,7-5.2c3,0,6.2,1.2,6.2,4.5V820.6z M675,816.3
		c-1,0.7-2.7,0.7-4.2,0.9c-1.5,0.2-2.8,0.8-2.8,2.6c0,1.6,2,2,3.1,2c1.5,0,3.8-0.8,3.8-2.9V816.3z"/>
	<path class="st8" d="M680.6,808.5h2.6v-4.6h3.4v4.6h3.1v2.6h-3.1v8.3c0,1.4,0.1,2.1,1.6,2.1c0.5,0,1,0,1.4-0.1v2.6
		c-0.8,0.1-1.5,0.2-2.2,0.2c-3.6,0-4.2-1.4-4.3-4v-9.1h-2.6V808.5z"/>
	<path class="st8" d="M694.8,817.2c0,2.4,1.3,4.6,4.2,4.6c2,0,3.2-0.9,3.8-2.6h3.2c-0.7,3.4-3.7,5.3-7,5.3c-4.9,0-7.6-3.4-7.6-8.2
		c0-4.4,2.9-8.2,7.5-8.2c4.9,0,7.9,4.4,7.3,9.1H694.8z M702.8,814.9c-0.1-2.2-1.6-4.1-3.9-4.1c-2.4,0-4,1.8-4.1,4.1H702.8z"/>
	<path class="st8" d="M723.4,824h-3.2v-2.1h-0.1c-0.9,1.8-2.8,2.5-4.8,2.5c-4.9,0-7.3-3.6-7.3-8.3c0-5.6,3.3-8.1,6.7-8.1
		c1.9,0,4.1,0.7,5.2,2.4h0.1v-7.9h3.4V824z M715.7,821.7c3,0,4.3-2.8,4.3-5.5c0-3.5-1.6-5.5-4.3-5.5c-3.2,0-4.3,2.9-4.3,5.6
		C711.5,819.1,712.8,821.7,715.7,821.7z"/>
	<path class="st8" d="M748.4,820.6c0,0.8,0.2,1.2,0.8,1.2h0.4c0.2,0,0.3,0,0.5-0.1v2.4c-0.5,0.2-1.6,0.4-2.2,0.4
		c-1.4,0-2.4-0.5-2.6-1.9c-1.3,1.3-3.5,1.9-5.4,1.9c-2.8,0-5.3-1.5-5.3-4.5c0-3.9,3.1-4.5,6-4.8c2.5-0.5,4.6-0.2,4.6-2.2
		c0-1.8-1.9-2.1-3.2-2.1c-1.9,0-3.3,0.8-3.4,2.5h-3.4c0.2-4,3.6-5.2,7-5.2c3,0,6.2,1.2,6.2,4.5V820.6z M745,816.3
		c-1,0.7-2.7,0.7-4.2,0.9c-1.5,0.2-2.8,0.8-2.8,2.6c0,1.6,2,2,3.1,2c1.5,0,3.8-0.8,3.8-2.9V816.3z"/>
	<path class="st8" d="M754.7,819c0.2,2,1.7,2.7,3.5,2.7c1.3,0,3.5-0.3,3.5-2c-0.1-1.8-2.6-2-5.1-2.6c-2.5-0.5-5-1.4-5-4.6
		c0-3.4,3.7-4.4,6.5-4.4c3.2,0,6.1,1.3,6.5,4.8H761c-0.3-1.7-1.6-2.1-3.2-2.1c-1,0-2.8,0.2-2.8,1.6c0,1.7,2.5,2,5,2.5
		c2.5,0.6,5,1.5,5,4.5c0,3.7-3.7,5-6.9,5c-3.9,0-6.8-1.7-6.9-5.4H754.7z"/>
	<path class="st8" d="M789,820.6c0,0.8,0.2,1.2,0.8,1.2h0.4c0.2,0,0.3,0,0.5-0.1v2.4c-0.5,0.2-1.6,0.4-2.2,0.4
		c-1.4,0-2.4-0.5-2.6-1.9c-1.3,1.3-3.5,1.9-5.4,1.9c-2.8,0-5.3-1.5-5.3-4.5c0-3.9,3.1-4.5,6-4.8c2.5-0.5,4.6-0.2,4.6-2.2
		c0-1.8-1.9-2.1-3.2-2.1c-1.9,0-3.3,0.8-3.4,2.5h-3.4c0.2-4,3.6-5.2,7-5.2c3,0,6.2,1.2,6.2,4.5V820.6z M785.6,816.3
		c-1,0.7-2.7,0.7-4.2,0.9c-1.5,0.2-2.8,0.8-2.8,2.6c0,1.6,2,2,3.1,2c1.5,0,3.8-0.8,3.8-2.9V816.3z"/>
	<path class="st8" d="M801.2,808.5h3.2v2.1h0.1c1-1.8,2.8-2.5,4.8-2.5c4.9,0,7.3,3.7,7.3,8.2c0,4.2-2.1,8.1-6.7,8.1
		c-2,0-4.1-0.7-5.2-2.4h-0.1v7.7h-3.4V808.5z M808.8,810.8c-2.9,0-4.4,2.2-4.4,5.5c0,3.1,1.6,5.5,4.4,5.5c3.1,0,4.3-2.8,4.3-5.5
		C813.1,813.5,811.6,810.8,808.8,810.8z"/>
	<path class="st8" d="M819.5,802.6h3.4V824h-3.4V802.6z"/>
	<path class="st8" d="M839.6,820.6c0,0.8,0.2,1.2,0.8,1.2h0.4c0.2,0,0.3,0,0.5-0.1v2.4c-0.5,0.2-1.6,0.4-2.2,0.4
		c-1.4,0-2.4-0.5-2.6-1.9c-1.3,1.3-3.5,1.9-5.4,1.9c-2.8,0-5.3-1.5-5.3-4.5c0-3.9,3.1-4.5,6-4.8c2.5-0.5,4.6-0.2,4.6-2.2
		c0-1.8-1.9-2.1-3.2-2.1c-1.9,0-3.3,0.8-3.4,2.5h-3.4c0.2-4,3.6-5.2,7-5.2c3,0,6.2,1.2,6.2,4.5V820.6z M836.2,816.3
		c-1,0.7-2.7,0.7-4.2,0.9c-1.5,0.2-2.8,0.8-2.8,2.6c0,1.6,2,2,3.1,2c1.5,0,3.8-0.8,3.8-2.9V816.3z"/>
	<path class="st8" d="M841.7,808.5h2.6v-4.6h3.4v4.6h3.1v2.6h-3.1v8.3c0,1.4,0.1,2.1,1.7,2.1c0.5,0,1,0,1.4-0.1v2.6
		c-0.8,0.1-1.5,0.2-2.2,0.2c-3.6,0-4.2-1.4-4.3-4v-9.1h-2.6V808.5z"/>
	<path class="st8" d="M851.8,808.5h2.6v-1.3c0-4,2.1-4.6,4.3-4.6c1.1,0,1.9,0.1,2.4,0.2v2.7c-0.5-0.1-0.9-0.2-1.6-0.2
		c-0.9,0-1.7,0.3-1.7,1.6v1.6h2.9v2.6h-2.9v13h-3.4v-13h-2.6V808.5z"/>
	<path class="st8" d="M862,816.3c0-4.7,2.9-8.2,7.8-8.2c5,0,7.8,3.5,7.8,8.2c0,4.8-2.9,8.2-7.8,8.2C864.9,824.4,862,821,862,816.3z
		 M874.3,816.3c0-2.7-1.3-5.5-4.4-5.5c-3.1,0-4.4,2.8-4.4,5.5c0,2.7,1.3,5.5,4.4,5.5C872.9,821.7,874.3,819,874.3,816.3z"/>
	<path class="st8" d="M880.5,808.5h3.2v3h0.1c0.4-1.6,2.5-3.4,4.5-3.4c0.8,0,1,0.1,1.3,0.1v3.3c-0.5-0.1-1-0.2-1.5-0.2
		c-2.3,0-4.2,1.9-4.2,5.3v7.4h-3.4V808.5z"/>
	<path class="st8" d="M891.1,808.5h3.2v2.2h0.1c1-1.5,2.3-2.6,4.8-2.6c1.9,0,3.7,0.8,4.3,2.6c1.2-1.6,2.6-2.6,4.9-2.6
		c3.3,0,5.2,1.5,5.2,5.2V824h-3.4V815c0-2.5-0.1-4.2-2.8-4.2c-2.3,0-3.3,1.5-3.3,4.1v9.1h-3.4v-10c0-2.2-0.7-3.3-2.7-3.3
		c-1.8,0-3.4,1.5-3.4,4v9.2h-3.4V808.5z"/>
	<path class="st8" d="M938.5,820.6c0,0.8,0.2,1.2,0.8,1.2h0.4c0.2,0,0.3,0,0.5-0.1v2.4c-0.5,0.2-1.6,0.4-2.2,0.4
		c-1.4,0-2.4-0.5-2.6-1.9c-1.3,1.3-3.5,1.9-5.4,1.9c-2.8,0-5.3-1.5-5.3-4.5c0-3.9,3.1-4.5,6-4.8c2.5-0.5,4.6-0.2,4.6-2.2
		c0-1.8-1.9-2.1-3.2-2.1c-1.9,0-3.3,0.8-3.4,2.5h-3.4c0.2-4,3.6-5.2,7-5.2c3,0,6.2,1.2,6.2,4.5V820.6z M935.1,816.3
		c-1,0.7-2.7,0.7-4.2,0.9c-1.5,0.2-2.8,0.8-2.8,2.6c0,1.6,2,2,3.1,2c1.5,0,3.8-0.8,3.8-2.9V816.3z"/>
	<path class="st8" d="M942.2,808.5h3.2v2.3l0.1,0.1c1-1.7,2.8-2.8,4.8-2.8c3.4,0,5.5,1.8,5.5,5.3V824h-3.4v-9.8
		c-0.1-2.4-1-3.5-3-3.5c-2.3,0-3.8,1.8-3.8,4.1v9.1h-3.4V808.5z"/>
	<path class="st8" d="M974,824h-3.2v-2.1h-0.1c-0.9,1.8-2.8,2.5-4.8,2.5c-4.9,0-7.3-3.6-7.3-8.3c0-5.6,3.3-8.1,6.7-8.1
		c1.9,0,4.1,0.7,5.2,2.4h0.1v-7.9h3.4V824z M966.4,821.7c3,0,4.3-2.8,4.3-5.5c0-3.5-1.6-5.5-4.3-5.5c-3.2,0-4.3,2.9-4.3,5.6
		C962.1,819.1,963.4,821.7,966.4,821.7z"/>
	<path class="st8" d="M999.1,820.6c0,0.8,0.2,1.2,0.8,1.2h0.4c0.2,0,0.3,0,0.5-0.1v2.4c-0.5,0.2-1.6,0.4-2.2,0.4
		c-1.4,0-2.4-0.5-2.6-1.9c-1.3,1.3-3.5,1.9-5.4,1.9c-2.8,0-5.3-1.5-5.3-4.5c0-3.9,3.1-4.5,6-4.8c2.5-0.5,4.6-0.2,4.6-2.2
		c0-1.8-1.9-2.1-3.2-2.1c-1.9,0-3.3,0.8-3.4,2.5h-3.4c0.2-4,3.6-5.2,7-5.2c3,0,6.2,1.2,6.2,4.5V820.6z M995.7,816.3
		c-1,0.7-2.7,0.7-4.2,0.9c-1.5,0.2-2.8,0.8-2.8,2.6c0,1.6,2,2,3.1,2c1.5,0,3.8-0.8,3.8-2.9V816.3z"/>
	<path class="st8" d="M1009.6,808.5h2.6v-1.3c0-4,2.1-4.6,4.3-4.6c1.1,0,1.9,0.1,2.4,0.2v2.7c-0.5-0.1-0.9-0.2-1.6-0.2
		c-0.9,0-1.7,0.3-1.7,1.6v1.6h2.9v2.6h-2.9v13h-3.4v-13h-2.6V808.5z"/>
	<path class="st8" d="M1033.6,820.6c0,0.8,0.2,1.2,0.8,1.2h0.4c0.2,0,0.3,0,0.5-0.1v2.4c-0.5,0.2-1.6,0.4-2.2,0.4
		c-1.4,0-2.4-0.5-2.6-1.9c-1.3,1.3-3.5,1.9-5.4,1.9c-2.8,0-5.3-1.5-5.3-4.5c0-3.9,3.1-4.5,6-4.8c2.5-0.5,4.6-0.2,4.6-2.2
		c0-1.8-1.9-2.1-3.2-2.1c-1.9,0-3.3,0.8-3.4,2.5h-3.4c0.2-4,3.6-5.2,7-5.2c3,0,6.2,1.2,6.2,4.5V820.6z M1030.1,816.3
		c-1,0.7-2.7,0.7-4.2,0.9c-1.5,0.2-2.8,0.8-2.8,2.6c0,1.6,2,2,3.1,2c1.5,0,3.8-0.8,3.8-2.9V816.3z"/>
	<path class="st8" d="M1037.3,808.5h3.2v2.2h0.1c1-1.5,2.3-2.6,4.8-2.6c1.9,0,3.7,0.8,4.3,2.6c1.2-1.6,2.6-2.6,4.9-2.6
		c3.3,0,5.2,1.5,5.2,5.2V824h-3.4V815c0-2.5-0.1-4.2-2.8-4.2c-2.3,0-3.3,1.5-3.3,4.1v9.1h-3.4v-10c0-2.2-0.7-3.3-2.7-3.3
		c-1.8,0-3.4,1.5-3.4,4v9.2h-3.4V808.5z"/>
	<path class="st8" d="M1063.4,802.6h3.4v3.2h-3.4V802.6z M1063.4,808.5h3.4V824h-3.4V808.5z"/>
	<path class="st8" d="M1070.7,802.6h3.4V824h-3.4V802.6z"/>
	<path class="st8" d="M1076.1,808.5h3.8l4,11.6h0.1l3.9-11.6h3.6l-6,16.3c-1.1,2.8-1.9,5.3-5.5,5.3c-0.8,0-1.6-0.1-2.4-0.2v-2.9
		c0.6,0.1,1.1,0.2,1.6,0.2c1.6,0,2-0.8,2.4-2.2l0.4-1.2L1076.1,808.5z"/>
	<path class="st8" d="M1102.2,802.6h8.9c6.6,0,9.5,4.8,9.5,10.7c0,5.9-2.8,10.7-9.5,10.7h-8.9V802.6z M1106,821h3.7
		c5.9,0,7.1-3.3,7.1-7.7c0-4.3-1.3-7.6-7.1-7.6h-3.7V821z"/>
	<path class="st8" d="M1123.8,802.6h3.8v8.5h9.8v-8.5h3.8V824h-3.8v-9.7h-9.8v9.7h-3.8V802.6z"/>
	<path class="st8" d="M1145.5,802.6h14.8v3.2h-11v5.6h9.7v3.1h-9.7v9.5h-3.7V802.6z"/>
	<path class="st8" d="M1171.3,802.6h3.4v3.2h-3.4V802.6z M1171.3,808.5h3.4V824h-3.4V808.5z"/>
	<path class="st8" d="M1181,819c0.2,2,1.7,2.7,3.5,2.7c1.3,0,3.5-0.3,3.5-2c-0.1-1.8-2.6-2-5.1-2.6c-2.5-0.5-5-1.4-5-4.6
		c0-3.4,3.7-4.4,6.5-4.4c3.2,0,6.1,1.3,6.5,4.8h-3.6c-0.3-1.7-1.6-2.1-3.2-2.1c-1,0-2.8,0.2-2.8,1.6c0,1.7,2.5,2,5,2.5
		c2.5,0.6,5,1.5,5,4.5c0,3.7-3.7,5-6.9,5c-3.9,0-6.8-1.7-6.9-5.4H1181z"/>
	<path class="st8" d="M1215.9,824h-3.4v-2.2h-0.1c-0.8,1.6-2.7,2.6-4.4,2.6c-4.1,0-5.8-2-5.8-6.1v-9.8h3.4v9.5c0,2.7,1.1,3.7,3,3.7
		c2.8,0,3.8-1.8,3.8-4.2v-9h3.4V824z"/>
	<path class="st8" d="M1222.1,819c0.2,2,1.7,2.7,3.5,2.7c1.3,0,3.5-0.3,3.5-2c-0.1-1.8-2.6-2-5.1-2.6c-2.5-0.5-5-1.4-5-4.6
		c0-3.4,3.7-4.4,6.5-4.4c3.2,0,6.1,1.3,6.5,4.8h-3.6c-0.3-1.7-1.6-2.1-3.2-2.1c-1,0-2.8,0.2-2.8,1.6c0,1.7,2.5,2,5,2.5
		c2.5,0.6,5,1.5,5,4.5c0,3.7-3.7,5-6.9,5c-3.9,0-6.8-1.7-6.9-5.4H1222.1z"/>
	<path class="st8" d="M1237.8,817.2c0,2.4,1.3,4.6,4.2,4.6c2,0,3.2-0.9,3.8-2.6h3.2c-0.7,3.4-3.7,5.3-7,5.3c-4.9,0-7.6-3.4-7.6-8.2
		c0-4.4,2.9-8.2,7.5-8.2c4.9,0,7.9,4.4,7.3,9.1H1237.8z M1245.7,814.9c-0.1-2.2-1.6-4.1-3.9-4.1c-2.4,0-4,1.8-4.1,4.1H1245.7z"/>
	<path class="st8" d="M1266.4,824h-3.2v-2.1h-0.1c-0.9,1.8-2.8,2.5-4.8,2.5c-4.9,0-7.3-3.6-7.3-8.3c0-5.6,3.3-8.1,6.7-8.1
		c1.9,0,4.1,0.7,5.2,2.4h0.1v-7.9h3.4V824z M1258.7,821.7c3,0,4.3-2.8,4.3-5.5c0-3.5-1.6-5.5-4.3-5.5c-3.2,0-4.3,2.9-4.3,5.6
		C1254.4,819.1,1255.8,821.7,1258.7,821.7z"/>
</g>
<circle class="st9" cx="513.3" cy="245" r="52.4"/>
<circle class="st9" cx="509.4" cy="432.9" r="52.4"/>
<circle class="st9" cx="513.3" cy="627" r="52.4"/>
<g>
	<polygon class="st10" points="529.2,216.6 528.3,215.7 528.3,215.7 	"/>
	<path class="st10" d="M538.6,280.9l-45.8,0c-2.4,0-4.4-2-4.4-4.4l0-63.6c0-2.4,2-4.4,4.4-4.4l31.3,0l19,19l0,49
		C543,278.9,541,280.9,538.6,280.9z"/>
	<polygon class="st11" points="536.3,220.7 543,227.5 543,243.9 525.3,226.2 	"/>
	<path class="st12" d="M543,227.5h-14.6c-2.4,0-4.4-2-4.4-4.4l0-14.6L543,227.5z"/>
	<path class="st13" d="M520.9,236.3l0,15.9c0,1.7-1.4,3-3,3l-35.9,0c-1.7,0-3.1-1.4-3.1-3l0-15.9c0-1.7,1.4-3,3-3h35.9
		C519.5,233.3,520.9,234.7,520.9,236.3z"/>
</g>
<path class="st12" d="M537.9,618.8c-2.2-6-8.5-9.7-14.9-8.6c-0.7,0.1-1.4-0.3-1.6-1l-0.5-1.8c-0.1-0.4,0-0.8,0.2-1.1
	c0.2-0.3,0.5-0.6,0.9-0.6c8.7-1.6,17.3,3.4,20.3,11.7c0.1,0.4,0.1,0.8-0.1,1.1c-0.2,0.4-0.5,0.6-0.9,0.7l-1.8,0.5
	C538.8,619.8,538.1,619.5,537.9,618.8z"/>
<path class="st12" d="M545.8,616.6c-3.5-10.4-14.2-16.6-24.9-14.4c-0.7,0.2-1.4-0.3-1.7-1l-0.5-1.8c-0.1-0.4-0.1-0.8,0.2-1.1
	c0.2-0.3,0.5-0.6,0.9-0.6c13.1-2.7,26.3,4.9,30.5,17.6c0.1,0.4,0.1,0.8-0.1,1.1c-0.2,0.4-0.5,0.6-0.9,0.7l-1.8,0.5
	C546.8,617.7,546.1,617.3,545.8,616.6z"/>
<path class="st12" d="M487.8,649.7c-6.9,0-12.4-5.6-12.4-12.4c0-6.2,4.6-11.4,10.6-12.3c1.1-8.7,8.6-15.5,17.6-15.5
	c6,0,11.3,3,14.5,7.5c1.1-0.3,2.3-0.5,3.5-0.5c5.5,0,10.1,3.5,11.8,8.4c6.2,0.7,11.1,6,11.1,12.4c0,6.9-5.6,12.4-12.4,12.4
	L487.8,649.7z"/>
<g>
	<polygon class="st10" points="526.1,403.7 525.4,402.9 525.4,402.9 	"/>
	<path class="st14" d="M534,457.5l-38.4,0c-2,0-3.7-1.6-3.7-3.7l0-53.3c0-2,1.6-3.7,3.7-3.7l26.2,0l15.9,15.9l0,41.1
		C537.7,455.9,536,457.5,534,457.5z"/>
	<polygon class="st15" points="532,407.2 537.7,412.8 537.7,426.5 522.9,411.8 	"/>
	<path class="st16" d="M534,457.5h-7.2l0-33.2l10.8,10.9v18.6C537.7,455.9,536,457.5,534,457.5z"/>
	<path class="st10" d="M537.7,412.8h-12.2c-2,0-3.7-1.7-3.7-3.7l0-12.2L537.7,412.8z"/>
	<polygon class="st10" points="515.2,415.2 514.5,414.5 514.5,414.5 	"/>
	<path class="st10" d="M523.1,469.1l-38.4,0c-2,0-3.7-1.7-3.7-3.7l0-53.3c0-2,1.7-3.7,3.7-3.7l26.2,0l15.9,15.9l0,41.1
		C526.8,467.4,525.1,469.1,523.1,469.1z"/>
	<polygon class="st17" points="521.2,418.7 526.8,424.4 526.8,438.1 512,423.3 	"/>
	<path class="st12" d="M526.8,424.4h-12.2c-2,0-3.7-1.7-3.7-3.7v-12.2L526.8,424.4z"/>
</g>
<g>
</g>
<g>
</g>
<g>
</g>
<g>
</g>
<g>
</g>
<g>
</g>
</svg>
