<?xml version="1.0" encoding="utf-8"?>
<!-- Generator: Adobe Illustrator 19.2.0, SVG Export Plug-In . SVG Version: 6.00 Build 0)  -->
<svg version="1.1" id="Layer_1" xmlns="http://www.w3.org/2000/svg" xmlns:xlink="http://www.w3.org/1999/xlink" x="0px" y="0px"
	 viewBox="0 0 2048 1000" style="enable-background:new 0 0 2048 1000;" xml:space="preserve">
<style type="text/css">
	.st0{fill:#B9E5FB;}
	.st1{fill:#116BB4;}
	.st2{fill:#FFFFFF;}
	.st3{fill:#2C5871;}
	.st4{fill:#D1ECFB;}
	.st5{fill-rule:evenodd;clip-rule:evenodd;fill:#DAE1E6;}
	.st6{fill-rule:evenodd;clip-rule:evenodd;fill:#B3B3B3;}
	.st7{fill-rule:evenodd;clip-rule:evenodd;fill:#ECF0F1;}
	.st8{fill-rule:evenodd;clip-rule:evenodd;fill:#2C3E50;}
	.st9{fill-rule:evenodd;clip-rule:evenodd;fill:#FACC4D;}
	.st10{fill-rule:evenodd;clip-rule:evenodd;fill:#3D566E;}
	.st11{fill:none;stroke:#343636;stroke-width:4.9841;stroke-miterlimit:10;}
	.st12{fill:#231F20;}
	.st13{fill:#333333;}
	.st14{fill:none;}
	.st15{fill:#074164;}
</style>
<rect class="st0" width="2048" height="1000"/>
<rect x="1.2" y="639.1" class="st1" width="2046.5" height="360.6"/>
<g>
	<g>
		<polygon class="st2" points="1588.6,894.9 1588.6,519.6 1588.6,314.8 1427,168 322.2,168 322.2,894.9 		"/>
		<g>
			<polygon class="st3" points="1427,314.8 1588.6,314.8 1427,168 			"/>
			<polygon class="st4" points="1588.6,314.8 1427,314.8 1588.6,461.5 			"/>
		</g>
	</g>
</g>
<g>
	<path class="st5" d="M1929,883.6h-100.3c-5.3,0-9.6-4.3-9.6-9.6V734.9c0-5.3,4.3-9.6,9.6-9.6h68.3l41.5,41.5V874
		C1938.6,879.3,1934.3,883.6,1929,883.6z"/>
	<polygon class="st6" points="1923.9,752.1 1938.6,766.8 1938.6,802.7 1900,764.1 	"/>
	<path class="st7" d="M1938.6,766.8h-31.9c-5.3,0-9.6-4.3-9.6-9.6v-31.9L1938.6,766.8z"/>
	<path class="st8" d="M1888.7,871.6h-52.9h-2.6V869v-18.5V828v-38.4v-22.5v-17.7v-2.6h2.6h61.4v5.1h-58.8v15.1v22.5V828v22.5v16
		h50.4V871.6L1888.7,871.6z M1837.3,767.1h-0.7h-0.4h-1h-0.6h-0.5v22.5h0.5h0.6h1h0.4h0.7V767.1L1837.3,767.1z M1837.3,828h-0.5
		h-0.6h-1h-0.6h-0.5v22.5h0.5h0.6h1h0.6h0.5V828z"/>
	<rect x="1911" y="766.8" class="st8" width="5.1" height="6.9"/>
	<polygon class="st8" points="1893.6,806.7 1911,806.7 1911,796.2 1916.1,796.2 1916.1,809.2 1916.1,811.8 1913.5,811.8 
		1893.6,811.8 	"/>
	<rect x="1835.7" y="806.7" class="st8" width="35.3" height="5.1"/>
	<path class="st6" d="M1929,883.6h-29.5l-12.9-12.9l0,0l0-0.1c0,0-0.1-0.1-0.1-0.1l-0.1-0.1l-0.1-0.1l0,0l0-0.1l0,0l0-0.1l0,0l0-0.1
		l0,0l0-0.1l0,0l0-0.1l0,0l0-0.1v0l0-0.1l0,0l0-0.1l0,0l0-0.1v0l0-0.1l0,0l0-0.1l0,0l0-0.1l0,0l0-0.1l0,0l0,0v0v0l0,0v0l0,0l0,0l0,0
		v0l0,0v-0.1l0,0l0,0l0,0v0l0,0v-0.1l0,0l0,0l0,0v0l0,0l0,0l0,0v0l0,0v0l0,0v0v0v0l0,0v0l0,0v0v0l0,0l0,0v0l0,0v-0.1l0,0v0l0,0v0
		l0,0v-0.1v0l0,0v0l0,0v0l0,0v0l0,0v0l0,0l0,0l0,0v0l0,0v0v0v0l0,0v0l0,0v0l0,0v0l0,0v0l0,0v0l0,0v0l0,0l0,0l0,0v0l0,0v0l0,0l0,0
		l0,0v0l0,0v0l0,0v0l0,0l0,0l0,0v0l0,0v0l0,0v0l0,0h0v0v0v0v0v0l0,0v0l1.8-6.2l2.9-9.9l0,0l7.3-24.5v0l18.1-18.1l22.6-22.6v88
		C1938.6,879.3,1934.3,883.6,1929,883.6z"/>
	<polygon class="st6" points="1938.6,786 1938.6,802.7 1930.3,794.4 	"/>
	<g>
		<path class="st9" d="M1976.6,761.3c4.1,2.3,7.8,5.1,11,8.3l0.2,0.2c3.2,3.2,5.8,6.8,8.1,10.9c1.4,2.5,1.9,5.3,1.5,8
			c-0.4,2.7-1.6,5.3-3.7,7.3h0h0l-63.4,63.4l-40.6,12c-1.7,0.5-3.5-0.5-4-2.2c-0.2-0.6-0.2-1.2,0-1.8l12.1-40.6l63.4-63.4
			c2-2.1,4.6-3.3,7.3-3.7C1971.2,759.4,1974,759.9,1976.6,761.3z"/>
		<path class="st8" d="M1908.5,836.5l67.8-67.8c-0.9-0.6-1.9-1.2-2.8-1.7c-1.3-0.7-2.7-1-4-0.8c-1.3,0.2-2.6,0.8-3.6,1.9l-61.6,61.6
			L1908.5,836.5z"/>
		<path class="st8" d="M1906.1,866.6l-16.3,4.9c-1.7,0.5-3.5-0.5-4-2.3c-0.2-0.6-0.2-1.2,0-1.8l4.8-16.1l2.7,5.7l9.1,0.5
			L1906.1,866.6z"/>
		<path class="st8" d="M1976.6,761.3c4.1,2.3,7.8,5.1,11,8.3l0.2,0.2c3.2,3.2,5.8,6.8,8.1,10.9c1.4,2.5,1.9,5.3,1.5,8
			c-0.4,2.7-1.6,5.3-3.7,7.3h0h0l-63.4,63.4l-4.3-8.8c-6.8-3.5-13.6-7-20.4-10.5l-7.8-13.3l63.4-63.4c2.1-2.1,4.6-3.3,7.3-3.7
			C1971.2,759.4,1974,759.9,1976.6,761.3z"/>
		<path class="st10" d="M1976.6,761.3c1.7,0.9,3.3,2,4.8,3l-75.8,75.8l-7.8-13.3l63.4-63.4c2.1-2.1,4.6-3.3,7.3-3.7
			C1971.2,759.4,1974,759.9,1976.6,761.3z"/>
		<path class="st10" d="M1995.9,780.7c1.4,2.5,1.9,5.3,1.5,8c-0.4,2.7-1.6,5.3-3.7,7.3h0h0l-63.4,63.4l-4.3-8.8L1995.9,780.7z"/>
	</g>
</g>
<line class="st11" x1="50.8" y1="53.7" x2="1997.5" y2="53.7"/>
<g>
	<g>
		<path class="st12" d="M51,76h5.8l5.9,25.1h0.1L69.5,76h5.9l6.4,25.1H82L88.1,76h5.8l-9.1,32.8H79l-6.6-25.1h-0.1l-6.7,25.1h-5.9
			L51,76z"/>
		<path class="st12" d="M96.9,76h5.2v12.2h0.1c1.3-2.2,4-3.8,7.1-3.8c5.2,0,8.4,2.7,8.4,8.1v16.3h-5.2v-15c-0.1-3.7-1.5-5.3-4.6-5.3
			c-3.5,0-5.8,2.8-5.8,6.3v14h-5.2V76z"/>
		<path class="st12" d="M143.3,103.5c0,1.3,0.3,1.8,1.2,1.8h0.6c0.2,0,0.5,0,0.7-0.1v3.6c-0.8,0.3-2.4,0.6-3.3,0.6
			c-2.2,0-3.6-0.7-4-2.9c-2.1,2-5.4,2.9-8.2,2.9c-4.3,0-8.1-2.3-8.1-6.9c0-5.9,4.7-6.9,9.2-7.4c3.8-0.7,7.1-0.2,7.1-3.4
			c0-2.8-2.9-3.2-4.9-3.2c-2.9,0-5,1.2-5.2,3.8h-5.2c0.4-6.1,5.5-7.9,10.8-7.9c4.6,0,9.5,1.9,9.5,6.9V103.5z M138,96.9
			c-1.6,1.1-4.1,1-6.4,1.4c-2.3,0.4-4.3,1.2-4.3,4c0,2.4,3,3,4.8,3c2.3,0,5.9-1.2,5.9-4.5V96.9z"/>
		<path class="st12" d="M146.5,85h4v-7.1h5.2V85h4.7v3.9h-4.7v12.7c0,2.2,0.2,3.3,2.5,3.3c0.7,0,1.5,0,2.2-0.2v4
			c-1.1,0.1-2.3,0.3-3.4,0.3c-5.5,0-6.4-2.1-6.6-6.1v-14h-4V85z"/>
		<path class="st12" d="M177.2,76h5.2v5h-5.2V76z M177.2,85h5.2v23.8h-5.2V85z"/>
		<path class="st12" d="M192.1,101.2c0.3,3.1,2.6,4.1,5.4,4.1c2,0,5.4-0.4,5.3-3.1c-0.1-2.8-4-3.1-7.8-4c-3.9-0.8-7.6-2.2-7.6-7
			c0-5.2,5.6-6.8,9.9-6.8c4.9,0,9.3,2,9.9,7.3h-5.5c-0.5-2.5-2.5-3.2-4.8-3.2c-1.5,0-4.3,0.4-4.3,2.4c0,2.6,3.9,3,7.7,3.8
			c3.8,0.9,7.7,2.3,7.7,6.9c0,5.7-5.7,7.7-10.6,7.7c-6,0-10.4-2.7-10.5-8.3H192.1z"/>
		<path class="st12" d="M222.4,85h5.7l6,18.3h0.1l5.8-18.3h5.4l-8.5,23.8h-5.9L222.4,85z"/>
		<path class="st12" d="M252.7,98.3c0,3.7,2,7,6.4,7c3.1,0,4.9-1.3,5.8-4h5c-1.1,5.2-5.6,8.1-10.8,8.1c-7.5,0-11.6-5.2-11.6-12.5
			c0-6.8,4.4-12.6,11.5-12.6c7.5,0,12.1,6.8,11.2,13.9H252.7z M265,94.8c-0.2-3.3-2.4-6.3-6-6.3c-3.6,0-6.1,2.8-6.3,6.3H265z"/>
		<path class="st12" d="M274.2,85h4.9v4.6h0.1c0.6-2.5,3.8-5.2,6.9-5.2c1.2,0,1.5,0.1,2,0.1v5.1c-0.7-0.1-1.5-0.2-2.3-0.2
			c-3.5,0-6.4,2.9-6.4,8.1v11.3h-5.2V85z"/>
		<path class="st12" d="M290.6,76h5.2v5h-5.2V76z M290.6,85h5.2v23.8h-5.2V85z"/>
		<path class="st12" d="M299.2,85h3.9v-2c0-6.1,3.2-7.1,6.6-7.1c1.7,0,2.9,0.1,3.7,0.3v4.1c-0.7-0.2-1.4-0.3-2.4-0.3
			c-1.4,0-2.6,0.5-2.6,2.5V85h4.5v3.9h-4.5v19.9h-5.2V88.9h-3.9V85z M316.1,76h5.2v5h-5.2V76z M316.1,85h5.2v23.8h-5.2V85z"/>
		<path class="st12" d="M343.1,93c-0.4-2.9-2.5-4.5-5.4-4.5c-2.7,0-6.5,1.5-6.5,8.6c0,4,1.7,8.1,6.3,8.1c3.1,0,5.2-2,5.7-5.4h5.2
			c-1,6.2-4.8,9.6-10.9,9.6c-7.5,0-11.5-5.3-11.5-12.3c0-7.2,3.9-12.8,11.7-12.8c5.5,0,10.2,2.8,10.7,8.6H343.1z"/>
		<path class="st12" d="M372.6,103.5c0,1.3,0.3,1.8,1.2,1.8h0.6c0.2,0,0.5,0,0.7-0.1v3.6c-0.8,0.3-2.4,0.6-3.3,0.6
			c-2.2,0-3.6-0.7-4-2.9c-2.1,2-5.4,2.9-8.2,2.9c-4.3,0-8.1-2.3-8.1-6.9c0-5.9,4.7-6.9,9.2-7.4c3.8-0.7,7.1-0.2,7.1-3.4
			c0-2.8-2.9-3.2-4.9-3.2c-2.9,0-5,1.2-5.2,3.8h-5.2c0.4-6.1,5.5-7.9,10.8-7.9c4.6,0,9.5,1.9,9.5,6.9V103.5z M367.3,96.9
			c-1.6,1.1-4.1,1-6.4,1.4c-2.3,0.4-4.3,1.2-4.3,4c0,2.4,3,3,4.8,3c2.3,0,5.9-1.2,5.9-4.5V96.9z"/>
		<path class="st12" d="M375.8,85h4v-7.1h5.2V85h4.7v3.9H385v12.7c0,2.2,0.2,3.3,2.5,3.3c0.7,0,1.5,0,2.2-0.2v4
			c-1.1,0.1-2.3,0.3-3.4,0.3c-5.5,0-6.4-2.1-6.6-6.1v-14h-4V85z"/>
		<path class="st12" d="M393.7,76h5.2v5h-5.2V76z M393.7,85h5.2v23.8h-5.2V85z"/>
		<path class="st12" d="M403.5,96.9c0-7.2,4.4-12.5,12-12.5s12,5.3,12,12.5c0,7.3-4.4,12.6-12,12.6S403.5,104.2,403.5,96.9z
			 M422.3,96.9c0-4.1-2.1-8.4-6.8-8.4s-6.8,4.3-6.8,8.4c0,4.1,2.1,8.4,6.8,8.4S422.3,101,422.3,96.9z"/>
		<path class="st12" d="M431.9,85h5v3.5l0.1,0.1c1.6-2.6,4.3-4.2,7.4-4.2c5.2,0,8.4,2.7,8.4,8.1v16.3h-5.2v-15
			c-0.1-3.7-1.5-5.3-4.6-5.3c-3.5,0-5.8,2.8-5.8,6.3v14h-5.2V85z"/>
		<path class="st12" d="M491,103.5c0,1.3,0.3,1.8,1.2,1.8h0.6c0.2,0,0.5,0,0.7-0.1v3.6c-0.8,0.3-2.4,0.6-3.3,0.6
			c-2.2,0-3.6-0.7-4-2.9c-2.1,2-5.4,2.9-8.2,2.9c-4.3,0-8.1-2.3-8.1-6.9c0-5.9,4.7-6.9,9.2-7.4c3.8-0.7,7.1-0.2,7.1-3.4
			c0-2.8-2.9-3.2-4.9-3.2c-2.9,0-5,1.2-5.2,3.8h-5.2c0.4-6.1,5.5-7.9,10.8-7.9c4.6,0,9.5,1.9,9.5,6.9V103.5z M485.8,96.9
			c-1.6,1.1-4.1,1-6.4,1.4c-2.3,0.4-4.3,1.2-4.3,4c0,2.4,3,3,4.8,3c2.3,0,5.9-1.2,5.9-4.5V96.9z"/>
		<path class="st12" d="M496.7,85h5v3.5l0.1,0.1c1.6-2.6,4.3-4.2,7.4-4.2c5.2,0,8.4,2.7,8.4,8.1v16.3h-5.2v-15
			c-0.1-3.7-1.5-5.3-4.6-5.3c-3.5,0-5.8,2.8-5.8,6.3v14h-5.2V85z"/>
		<path class="st12" d="M545.5,108.8h-5v-3.2h-0.1c-1.4,2.8-4.4,3.9-7.4,3.9c-7.5,0-11.1-5.6-11.1-12.7c0-8.6,5.1-12.4,10.3-12.4
			c2.9,0,6.3,1.1,7.9,3.7h0.1V76h5.2V108.8z M533.8,105.3c4.6,0,6.7-4.3,6.7-8.4c0-5.3-2.5-8.4-6.6-8.4c-4.9,0-6.7,4.4-6.7,8.6
			C527.2,101.3,529.2,105.3,533.8,105.3z"/>
		<path class="st12" d="M561.6,85h5.7l6,18.3h0.1l5.8-18.3h5.4l-8.5,23.8h-5.9L561.6,85z"/>
		<path class="st12" d="M607.8,103.5c0,1.3,0.3,1.8,1.2,1.8h0.6c0.2,0,0.5,0,0.7-0.1v3.6c-0.8,0.3-2.4,0.6-3.3,0.6
			c-2.2,0-3.6-0.7-4-2.9c-2.1,2-5.4,2.9-8.2,2.9c-4.3,0-8.1-2.3-8.1-6.9c0-5.9,4.7-6.9,9.2-7.4c3.8-0.7,7.1-0.2,7.1-3.4
			c0-2.8-2.9-3.2-4.9-3.2c-2.9,0-5,1.2-5.2,3.8h-5.2c0.4-6.1,5.5-7.9,10.8-7.9c4.6,0,9.5,1.9,9.5,6.9V103.5z M602.5,96.9
			c-1.6,1.1-4.1,1-6.4,1.4c-2.3,0.4-4.3,1.2-4.3,4c0,2.4,3,3,4.8,3c2.3,0,5.9-1.2,5.9-4.5V96.9z"/>
		<path class="st12" d="M613.6,76h5.2v32.8h-5.2V76z"/>
		<path class="st12" d="M624.7,76h5.2v5h-5.2V76z M624.7,85h5.2v23.8h-5.2V85z"/>
		<path class="st12" d="M658,108.8h-5v-3.2h-0.1c-1.4,2.8-4.4,3.9-7.4,3.9c-7.5,0-11.1-5.6-11.1-12.7c0-8.6,5.1-12.4,10.3-12.4
			c2.9,0,6.3,1.1,7.9,3.7h0.1V76h5.2V108.8z M646.3,105.3c4.6,0,6.7-4.3,6.7-8.4c0-5.3-2.5-8.4-6.6-8.4c-4.9,0-6.7,4.4-6.7,8.6
			C639.7,101.3,641.7,105.3,646.3,105.3z"/>
		<path class="st12" d="M683.6,103.5c0,1.3,0.3,1.8,1.2,1.8h0.6c0.2,0,0.5,0,0.7-0.1v3.6c-0.8,0.3-2.4,0.6-3.3,0.6
			c-2.2,0-3.6-0.7-4-2.9c-2.1,2-5.4,2.9-8.2,2.9c-4.3,0-8.1-2.3-8.1-6.9c0-5.9,4.7-6.9,9.2-7.4c3.8-0.7,7.1-0.2,7.1-3.4
			c0-2.8-2.9-3.2-4.9-3.2c-2.9,0-5,1.2-5.2,3.8h-5.2c0.4-6.1,5.5-7.9,10.8-7.9c4.6,0,9.5,1.9,9.5,6.9V103.5z M678.4,96.9
			c-1.6,1.1-4.1,1-6.4,1.4c-2.3,0.4-4.3,1.2-4.3,4c0,2.4,3,3,4.8,3c2.3,0,5.9-1.2,5.9-4.5V96.9z"/>
		<path class="st12" d="M686.9,85h4v-7.1h5.2V85h4.7v3.9h-4.7v12.7c0,2.2,0.2,3.3,2.5,3.3c0.7,0,1.5,0,2.2-0.2v4
			c-1.1,0.1-2.3,0.3-3.4,0.3c-5.5,0-6.4-2.1-6.6-6.1v-14h-4V85z"/>
		<path class="st12" d="M704.7,76h5.2v5h-5.2V76z M704.7,85h5.2v23.8h-5.2V85z"/>
		<path class="st12" d="M714.6,96.9c0-7.2,4.4-12.5,12-12.5s12,5.3,12,12.5c0,7.3-4.4,12.6-12,12.6S714.6,104.2,714.6,96.9z
			 M733.4,96.9c0-4.1-2.1-8.4-6.8-8.4s-6.8,4.3-6.8,8.4c0,4.1,2.1,8.4,6.8,8.4S733.4,101,733.4,96.9z"/>
		<path class="st12" d="M743,85h5v3.5l0.1,0.1c1.6-2.6,4.3-4.2,7.4-4.2c5.2,0,8.4,2.7,8.4,8.1v16.3h-5.2v-15
			c-0.1-3.7-1.5-5.3-4.6-5.3c-3.5,0-5.8,2.8-5.8,6.3v14H743V85z"/>
		<path class="st12" d="M768.9,86.4c0-6.8,4.2-11.2,11-11.2c5.6,0,10,3.4,10,9.3c0,4.4-2.1,5.9-4,7.6c-2.3,2-4,3.4-4,7.8h-5
			c0-5.3,1.1-7.3,3.6-9.3c1.9-1.7,3.7-2.8,3.7-5.9c0-3.7-2.9-5.1-4.5-5.1c-3.8,0-5.6,2.7-5.6,6.9H768.9z M776.2,103.1h6.2v5.8h-6.2
			V103.1z"/>
	</g>
</g>
<g>
	<g>
		<path class="st13" d="M614.7,238c3.6,0,6.4,2.8,6.4,6.4c0,3.6-2.9,6.4-6.4,6.4s-6.4-2.9-6.4-6.4C608.3,240.9,611.1,238,614.7,238z
			"/>
		<path class="st13" d="M646.5,231.6h8.8c7.9,0,12.3,4,12.3,12.2c0,8.6-3.8,13.5-12.3,13.5h-8.8V231.6z M649.9,254.4h5.7
			c2.3,0,8.6-0.6,8.6-10.1c0-6.1-2.3-9.8-8.6-9.8h-5.8V254.4z"/>
		<path class="st13" d="M687.2,251.4c-0.8,4.1-3.7,6.3-8,6.3c-5.9,0-8.7-4.1-8.9-9.8c0-5.6,3.7-9.7,8.7-9.7c6.6,0,8.6,6.2,8.4,10.7
			h-13.9c-0.1,3.2,1.7,6.1,5.8,6.1c2.6,0,4.3-1.2,4.8-3.6H687.2z M684.3,246.2c-0.2-2.9-2.3-5.3-5.4-5.3c-3.2,0-5.1,2.4-5.3,5.3
			H684.3z"/>
		<path class="st13" d="M692.5,251.4c0.1,2.7,2.5,3.6,5,3.6c1.9,0,4.5-0.4,4.5-2.8c0-4.8-12.2-1.5-12.2-8.7c0-3.7,3.7-5.3,6.9-5.3
			c4.2,0,7.3,1.3,7.6,5.8h-3.1c-0.2-2.4-2.3-3.1-4.3-3.1c-1.8,0-4,0.5-4,2.4c0,2.2,3.2,2.6,6.1,3.2c3.1,0.7,6.1,1.7,6.1,5.3
			c0,4.5-4.1,5.9-7.9,5.9c-4.2,0-7.7-1.7-7.9-6.3H692.5z"/>
		<path class="st13" d="M711.9,235.3h-3.1v-3.7h3.1V235.3z M708.9,238.7h3.1v18.6h-3.1V238.7z"/>
		<path class="st13" d="M732.7,255.7c0,6.1-2.7,9.1-8.6,9.1c-3.5,0-7.5-1.4-7.7-5.5h3.1c0.1,2.2,2.8,3,4.8,3c4,0,5.6-2.9,5.6-7.1
			v-1.2h-0.1c-1,2.3-3.4,3.4-5.8,3.4c-5.5,0-8.3-4.4-8.3-9.4c0-4.4,2.1-9.8,8.6-9.8c2.3,0,4.4,1,5.5,3.1h0v-2.7h2.9V255.7z
			 M729.7,247.6c0-3.3-1.4-6.7-5.3-6.7c-3.9,0-5.5,3.2-5.5,6.8c0,3.3,1.2,7.1,5.3,7.1C728.2,254.8,729.7,251.1,729.7,247.6z"/>
		<path class="st13" d="M737.3,238.7h2.9v3h0.1c1.3-2.3,3.3-3.4,6-3.4c4.9,0,6.4,2.8,6.4,6.8v12.2h-3.1v-12.6c0-2.3-1.4-3.7-3.8-3.7
			c-3.7,0-5.5,2.5-5.5,5.8v10.5h-3.1V238.7z"/>
		<path class="st13" d="M778,257.3h-3.9l-9.1-25.7h3.7l7.3,22.3h0.1l7.4-22.3h3.6L778,257.3z"/>
		<path class="st13" d="M805.2,251.4c-0.8,4.1-3.7,6.3-8,6.3c-5.9,0-8.7-4.1-8.9-9.8c0-5.6,3.7-9.7,8.7-9.7c6.6,0,8.6,6.2,8.4,10.7
			h-13.9c-0.1,3.2,1.7,6.1,5.8,6.1c2.6,0,4.3-1.2,4.8-3.6H805.2z M802.3,246.2c-0.2-2.9-2.3-5.3-5.4-5.3c-3.2,0-5.1,2.4-5.3,5.3
			H802.3z"/>
		<path class="st13" d="M808.6,238.7h2.9v3.9h0.1c1.5-3,3.5-4.5,6.8-4.4v3.2c-4.9,0-6.7,2.8-6.7,7.5v8.3h-3.1V238.7z"/>
		<path class="st13" d="M823.9,235.3h-3.1v-3.7h3.1V235.3z M820.8,238.7h3.1v18.6h-3.1V238.7z"/>
		<path class="st13" d="M829.9,241.4h-3.1v-2.7h3.1v-2.8c0-3,1.8-4.6,5.1-4.6c0.6,0,1.4,0.1,2,0.3v2.7c-0.5-0.2-1.2-0.3-1.7-0.3
			c-1.5,0-2.3,0.5-2.3,2.1v2.6h3.6v2.7H833v15.9h-3.1V241.4z M839.5,235.3v-3.7h3.1v3.7H839.5z M839.5,257.3v-18.6h3.1v18.6H839.5z"
			/>
		<path class="st13" d="M859.9,244.7c-0.5-2.3-2.1-3.7-4.6-3.7c-4.4,0-5.8,3.5-5.8,7.3c0,3.5,1.5,6.8,5.4,6.8c3,0,4.7-1.7,5.1-4.5
			h3.1c-0.7,4.6-3.5,7.2-8.2,7.2c-5.7,0-8.7-3.9-8.7-9.5c0-5.6,2.9-10,8.8-10c4.2,0,7.6,2,8,6.4H859.9z"/>
		<path class="st13" d="M883.1,257.2c-0.5,0.3-1.3,0.5-2.2,0.5c-1.6,0-2.6-0.9-2.6-2.9c-1.7,2-4,2.9-6.6,2.9c-3.4,0-6.2-1.5-6.2-5.2
			c0-4.2,3.1-5.1,6.3-5.7c3.3-0.7,6.3-0.4,6.3-2.7c0-2.7-2.2-3.1-4.1-3.1c-2.6,0-4.5,0.8-4.6,3.5h-3.1c0.2-4.6,3.7-6.2,7.9-6.2
			c3.3,0,7,0.8,7,5.1v9.6c0,1.4,0,2.1,1,2.1c0.3,0,0.6-0.1,0.9-0.2V257.2z M878.2,247.7c-2.4,1.8-9.3,0-9.3,4.6c0,2,1.7,2.7,3.6,2.7
			c4,0,5.7-2.5,5.7-4.2V247.7z"/>
		<path class="st13" d="M890.2,238.7h3.7v2.7h-3.7v11.6c0,1.4,0.4,1.7,2.3,1.7h1.4v2.7h-2.3c-3.2,0-4.4-0.6-4.4-4.1v-11.8H884v-2.7
			h3.2v-5.6h3.1V238.7z"/>
		<path class="st13" d="M900.5,235.3h-3.1v-3.7h3.1V235.3z M897.5,238.7h3.1v18.6h-3.1V238.7z"/>
		<path class="st13" d="M913.3,238.3c5.9,0,9,4.3,9,9.8c0,5.4-3.1,9.7-9,9.7s-9-4.3-9-9.7C904.3,242.5,907.4,238.3,913.3,238.3z
			 M913.3,255c3.2,0,5.8-2.5,5.8-7c0-4.5-2.6-7.1-5.8-7.1c-3.2,0-5.8,2.6-5.8,7.1C907.5,252.5,910.1,255,913.3,255z"/>
		<path class="st13" d="M926,238.7h2.9v3h0.1c1.3-2.3,3.3-3.4,6-3.4c4.9,0,6.4,2.8,6.4,6.8v12.2h-3.1v-12.6c0-2.3-1.4-3.7-3.8-3.7
			c-3.7,0-5.5,2.5-5.5,5.8v10.5H926V238.7z"/>
		<path class="st13" d="M956,238.7h2.9v2.7h0.1c1.4-2.1,3.4-3.2,6-3.2c2.3,0,4.4,0.9,5.1,3.2c1.3-2,3.4-3.2,5.8-3.2
			c3.7,0,6.2,1.5,6.2,5.4v13.6H979v-12.2c0-2.3-0.6-4.1-3.6-4.1s-4.9,1.9-4.9,4.8v11.6h-3.1v-12.2c0-2.4-0.8-4.1-3.5-4.1
			c-3.6,0-5,3.3-5,4.8v11.6H956V238.7z"/>
		<path class="st13" d="M1002.6,251.4c-0.8,4.1-3.7,6.3-8,6.3c-5.9,0-8.7-4.1-8.9-9.8c0-5.6,3.7-9.7,8.7-9.7c6.6,0,8.6,6.2,8.4,10.7
			h-13.9c-0.1,3.2,1.7,6.1,5.8,6.1c2.6,0,4.3-1.2,4.8-3.6H1002.6z M999.6,246.2c-0.2-2.9-2.3-5.3-5.4-5.3c-3.2,0-5.1,2.4-5.3,5.3
			H999.6z"/>
		<path class="st13" d="M1022.5,257.2c-0.5,0.3-1.3,0.5-2.2,0.5c-1.6,0-2.6-0.9-2.6-2.9c-1.7,2-4,2.9-6.6,2.9
			c-3.4,0-6.2-1.5-6.2-5.2c0-4.2,3.1-5.1,6.3-5.7c3.3-0.7,6.3-0.4,6.3-2.7c0-2.7-2.2-3.1-4.1-3.1c-2.6,0-4.5,0.8-4.6,3.5h-3.1
			c0.2-4.6,3.7-6.2,7.9-6.2c3.3,0,7,0.8,7,5.1v9.6c0,1.4,0,2.1,1,2.1c0.3,0,0.6-0.1,0.9-0.2V257.2z M1017.5,247.7
			c-2.4,1.8-9.3,0-9.3,4.6c0,2,1.7,2.7,3.6,2.7c4,0,5.7-2.5,5.7-4.2V247.7z"/>
		<path class="st13" d="M1025.4,238.7h2.9v3h0.1c1.3-2.3,3.3-3.4,6-3.4c4.9,0,6.4,2.8,6.4,6.8v12.2h-3.1v-12.6
			c0-2.3-1.4-3.7-3.8-3.7c-3.7,0-5.5,2.5-5.5,5.8v10.5h-3.1V238.7z"/>
		<path class="st13" d="M1047.2,251.4c0.1,2.7,2.5,3.6,5,3.6c1.9,0,4.5-0.4,4.5-2.8c0-4.8-12.2-1.5-12.2-8.7c0-3.7,3.7-5.3,6.9-5.3
			c4.2,0,7.3,1.3,7.6,5.8h-3.1c-0.2-2.4-2.3-3.1-4.3-3.1c-1.8,0-4,0.5-4,2.4c0,2.2,3.2,2.6,6.1,3.2c3.1,0.7,6.1,1.7,6.1,5.3
			c0,4.5-4.1,5.9-7.9,5.9c-4.2,0-7.7-1.7-7.9-6.3H1047.2z"/>
		<path class="st13" d="M1086,244.7c-0.5-2.3-2.1-3.7-4.6-3.7c-4.4,0-5.8,3.5-5.8,7.3c0,3.5,1.5,6.8,5.4,6.8c3,0,4.7-1.7,5.1-4.5
			h3.1c-0.7,4.6-3.5,7.2-8.2,7.2c-5.7,0-8.7-3.9-8.7-9.5c0-5.6,2.9-10,8.8-10c4.2,0,7.6,2,8,6.4H1086z"/>
		<path class="st13" d="M1100.7,238.3c5.9,0,9,4.3,9,9.8c0,5.4-3.1,9.7-9,9.7s-9-4.3-9-9.7C1091.7,242.5,1094.8,238.3,1100.7,238.3z
			 M1100.7,255c3.2,0,5.8-2.5,5.8-7c0-4.5-2.6-7.1-5.8-7.1c-3.2,0-5.8,2.6-5.8,7.1C1094.9,252.5,1097.5,255,1100.7,255z"/>
		<path class="st13" d="M1113.4,238.7h2.9v3h0.1c1.3-2.3,3.3-3.4,6-3.4c4.9,0,6.4,2.8,6.4,6.8v12.2h-3.1v-12.6
			c0-2.3-1.4-3.7-3.8-3.7c-3.7,0-5.5,2.5-5.5,5.8v10.5h-3.1V238.7z"/>
		<path class="st13" d="M1134.7,241.4h-3.1v-2.7h3.1v-2.8c0-3,1.8-4.6,5.1-4.6c0.6,0,1.4,0.1,2,0.3v2.7c-0.5-0.2-1.2-0.3-1.7-0.3
			c-1.5,0-2.3,0.5-2.3,2.1v2.6h3.6v2.7h-3.6v15.9h-3.1V241.4z M1144.2,235.3v-3.7h3.1v3.7H1144.2z M1144.2,257.3v-18.6h3.1v18.6
			H1144.2z"/>
		<path class="st13" d="M1151.9,238.7h2.9v3.9h0.1c1.5-3,3.5-4.5,6.8-4.4v3.2c-4.9,0-6.7,2.8-6.7,7.5v8.3h-3.1V238.7z"/>
		<path class="st13" d="M1164,238.7h2.9v2.7h0.1c1.4-2.1,3.4-3.2,6-3.2c2.3,0,4.4,0.9,5.1,3.2c1.3-2,3.4-3.2,5.8-3.2
			c3.7,0,6.2,1.5,6.2,5.4v13.6h-3.1v-12.2c0-2.3-0.6-4.1-3.6-4.1s-4.9,1.9-4.9,4.8v11.6h-3.1v-12.2c0-2.4-0.8-4.1-3.5-4.1
			c-3.6,0-5,3.3-5,4.8v11.6h-3.1V238.7z"/>
		<path class="st13" d="M1211.2,257.2c-0.5,0.3-1.3,0.5-2.2,0.5c-1.6,0-2.6-0.9-2.6-2.9c-1.7,2-4,2.9-6.6,2.9
			c-3.4,0-6.2-1.5-6.2-5.2c0-4.2,3.1-5.1,6.3-5.7c3.3-0.7,6.3-0.4,6.3-2.7c0-2.7-2.2-3.1-4.1-3.1c-2.6,0-4.5,0.8-4.6,3.5h-3.1
			c0.2-4.6,3.7-6.2,7.9-6.2c3.3,0,7,0.8,7,5.1v9.6c0,1.4,0,2.1,1,2.1c0.3,0,0.6-0.1,0.9-0.2V257.2z M1206.3,247.7
			c-2.4,1.8-9.3,0-9.3,4.6c0,2,1.7,2.7,3.6,2.7c4,0,5.7-2.5,5.7-4.2V247.7z"/>
		<path class="st13" d="M1218.3,238.7h3.7v2.7h-3.7v11.6c0,1.4,0.4,1.7,2.3,1.7h1.4v2.7h-2.3c-3.2,0-4.4-0.6-4.4-4.1v-11.8h-3.2
			v-2.7h3.2v-5.6h3.1V238.7z"/>
		<path class="st13" d="M1228.6,235.3h-3.1v-3.7h3.1V235.3z M1225.6,238.7h3.1v18.6h-3.1V238.7z"/>
		<path class="st13" d="M1241.4,238.3c5.9,0,9,4.3,9,9.8c0,5.4-3.1,9.7-9,9.7s-9-4.3-9-9.7C1232.4,242.5,1235.5,238.3,1241.4,238.3z
			 M1241.4,255c3.2,0,5.8-2.5,5.8-7c0-4.5-2.6-7.1-5.8-7.1c-3.2,0-5.8,2.6-5.8,7.1C1235.6,252.5,1238.2,255,1241.4,255z"/>
		<path class="st13" d="M1254.1,238.7h2.9v3h0.1c1.3-2.3,3.3-3.4,6-3.4c4.9,0,6.4,2.8,6.4,6.8v12.2h-3.1v-12.6
			c0-2.3-1.4-3.7-3.8-3.7c-3.7,0-5.5,2.5-5.5,5.8v10.5h-3.1V238.7z"/>
		<path class="st13" d="M1284.2,231.6h3.1v9.6h0.1c1-2.1,3.3-3,5.9-3c5.7,0,8.6,4.5,8.6,9.8c0,5.3-2.8,9.7-8.5,9.7
			c-1.9,0-4.7-0.7-6-2.9h-0.1v2.5h-3.1V231.6z M1292.8,241c-4.1,0-5.7,3.6-5.7,7c0,3.6,1.7,7.1,5.9,7.1c4.2,0,5.6-3.6,5.6-7.2
			C1298.6,244.3,1296.8,241,1292.8,241z"/>
		<path class="st13" d="M1312.7,259.8c-1.4,3.6-2.7,5-5.4,5c-0.7,0-1.4-0.1-2.1-0.3v-2.8c0.6,0.2,1.2,0.4,1.8,0.4
			c1.3,0,1.9-0.6,2.5-1.7l1.3-3.2l-7.4-18.5h3.5l5.4,15.2h0.1l5.2-15.2h3.2L1312.7,259.8z"/>
		<path class="st13" d="M658.9,294.6c-0.8,4.1-3.7,6.3-8,6.3c-5.9,0-8.7-4.1-8.9-9.8c0-5.6,3.7-9.7,8.7-9.7c6.6,0,8.6,6.2,8.4,10.7
			h-13.9c-0.1,3.2,1.7,6.1,5.8,6.1c2.6,0,4.3-1.2,4.8-3.6H658.9z M655.9,289.4c-0.2-2.9-2.3-5.3-5.4-5.3c-3.2,0-5.1,2.4-5.3,5.3
			H655.9z"/>
		<path class="st13" d="M667.3,290.7l-6.5-8.8h3.9l4.5,6.5l4.6-6.5h3.7l-6.4,8.6l7.2,10h-3.9l-5.2-7.7l-5.2,7.7h-3.7L667.3,290.7z"
			/>
		<path class="st13" d="M697.4,300.4c-0.5,0.3-1.3,0.5-2.2,0.5c-1.6,0-2.6-0.9-2.6-2.9c-1.7,2-4,2.9-6.6,2.9c-3.4,0-6.2-1.5-6.2-5.2
			c0-4.2,3.1-5.1,6.3-5.7c3.3-0.7,6.3-0.4,6.3-2.7c0-2.7-2.2-3.1-4.1-3.1c-2.6,0-4.5,0.8-4.6,3.5h-3.1c0.2-4.6,3.7-6.2,7.9-6.2
			c3.3,0,7,0.8,7,5.1v9.6c0,1.4,0,2.1,1,2.1c0.3,0,0.6-0.1,0.9-0.2V300.4z M692.5,290.9c-2.4,1.8-9.3,0-9.3,4.6c0,2,1.7,2.7,3.6,2.7
			c4,0,5.7-2.5,5.7-4.2V290.9z"/>
		<path class="st13" d="M700.3,281.9h2.9v2.7h0.1c1.4-2.1,3.4-3.2,6-3.2c2.3,0,4.4,0.9,5.1,3.2c1.3-2,3.4-3.2,5.8-3.2
			c3.7,0,6.2,1.5,6.2,5.4v13.6h-3.1v-12.2c0-2.3-0.6-4.1-3.6-4.1s-4.9,1.9-4.9,4.8v11.6h-3.1v-12.2c0-2.4-0.8-4.1-3.5-4.1
			c-3.6,0-5,3.3-5,4.8v11.6h-3.1V281.9z"/>
		<path class="st13" d="M734.2,278.5h-3.1v-3.7h3.1V278.5z M731.2,281.9h3.1v18.6h-3.1V281.9z"/>
		<path class="st13" d="M739,281.9h2.9v3h0.1c1.3-2.3,3.3-3.4,6-3.4c4.9,0,6.4,2.8,6.4,6.8v12.2h-3.1v-12.6c0-2.3-1.4-3.7-3.8-3.7
			c-3.7,0-5.5,2.5-5.5,5.8v10.5H739V281.9z"/>
		<path class="st13" d="M775.5,300.4c-0.5,0.3-1.3,0.5-2.2,0.5c-1.6,0-2.6-0.9-2.6-2.9c-1.7,2-4,2.9-6.6,2.9c-3.4,0-6.2-1.5-6.2-5.2
			c0-4.2,3.1-5.1,6.3-5.7c3.3-0.7,6.3-0.4,6.3-2.7c0-2.7-2.2-3.1-4.1-3.1c-2.6,0-4.5,0.8-4.6,3.5h-3.1c0.2-4.6,3.7-6.2,7.9-6.2
			c3.3,0,7,0.8,7,5.1v9.6c0,1.4,0,2.1,1,2.1c0.3,0,0.6-0.1,0.9-0.2V300.4z M770.5,290.9c-2.4,1.8-9.3,0-9.3,4.6c0,2,1.7,2.7,3.6,2.7
			c4,0,5.7-2.5,5.7-4.2V290.9z"/>
		<path class="st13" d="M782.6,281.9h3.7v2.7h-3.7v11.6c0,1.4,0.4,1.7,2.3,1.7h1.4v2.7H784c-3.2,0-4.4-0.6-4.4-4.1v-11.8h-3.2v-2.7
			h3.2v-5.6h3.1V281.9z"/>
		<path class="st13" d="M792.9,278.5h-3.1v-3.7h3.1V278.5z M789.9,281.9h3.1v18.6h-3.1V281.9z"/>
		<path class="st13" d="M805.7,281.5c5.9,0,9,4.3,9,9.8c0,5.4-3.1,9.7-9,9.7s-9-4.3-9-9.7C796.7,285.7,799.8,281.5,805.7,281.5z
			 M805.7,298.2c3.2,0,5.8-2.5,5.8-7c0-4.5-2.6-7.1-5.8-7.1c-3.2,0-5.8,2.6-5.8,7.1C799.9,295.7,802.5,298.2,805.7,298.2z"/>
		<path class="st13" d="M818.3,281.9h2.9v3h0.1c1.3-2.3,3.3-3.4,6-3.4c4.9,0,6.4,2.8,6.4,6.8v12.2h-3.1v-12.6c0-2.3-1.4-3.7-3.8-3.7
			c-3.7,0-5.5,2.5-5.5,5.8v10.5h-3.1V281.9z"/>
		<path class="st13" d="M864.8,300.4c-0.5,0.3-1.3,0.5-2.2,0.5c-1.6,0-2.6-0.9-2.6-2.9c-1.7,2-4,2.9-6.6,2.9c-3.4,0-6.2-1.5-6.2-5.2
			c0-4.2,3.1-5.1,6.3-5.7c3.3-0.7,6.3-0.4,6.3-2.7c0-2.7-2.2-3.1-4.1-3.1c-2.6,0-4.5,0.8-4.6,3.5h-3.1c0.2-4.6,3.7-6.2,7.9-6.2
			c3.3,0,7,0.8,7,5.1v9.6c0,1.4,0,2.1,1,2.1c0.3,0,0.6-0.1,0.9-0.2V300.4z M859.9,290.9c-2.4,1.8-9.3,0-9.3,4.6c0,2,1.7,2.7,3.6,2.7
			c4,0,5.7-2.5,5.7-4.2V290.9z"/>
		<path class="st13" d="M867.7,281.9h2.9v3h0.1c1.3-2.3,3.3-3.4,6-3.4c4.9,0,6.4,2.8,6.4,6.8v12.2H880v-12.6c0-2.3-1.4-3.7-3.8-3.7
			c-3.7,0-5.5,2.5-5.5,5.8v10.5h-3.1V281.9z"/>
		<path class="st13" d="M904.3,300.5h-3.1V298h-0.1c-1,2.1-3.3,3-5.9,3c-5.7,0-8.6-4.5-8.6-9.8s2.8-9.7,8.5-9.7c1.9,0,4.7,0.7,6,2.9
			h0.1v-9.6h3.1V300.5z M895.7,298.2c4.1,0,5.7-3.6,5.7-7c0-3.6-1.7-7.1-5.9-7.1c-4.2,0-5.6,3.6-5.6,7.2
			C889.9,294.8,891.7,298.2,895.7,298.2z"/>
		<path class="st13" d="M919.2,281.9h3.1v2.5h0.1c1-2.1,3.3-3,5.9-3c5.7,0,8.6,4.5,8.6,9.8c0,5.3-2.8,9.7-8.5,9.7
			c-1.9,0-4.7-0.7-6-2.9h-0.1v9.6h-3.1V281.9z M927.8,284.2c-4.1,0-5.7,3.6-5.7,7c0,3.6,1.7,7.1,5.9,7.1c4.2,0,5.6-3.6,5.6-7.2
			C933.6,287.5,931.8,284.2,927.8,284.2z"/>
		<path class="st13" d="M940.3,281.9h2.9v3.9h0.1c1.5-3,3.5-4.5,6.8-4.4v3.2c-4.9,0-6.7,2.8-6.7,7.5v8.3h-3.1V281.9z"/>
		<path class="st13" d="M960.4,281.5c5.9,0,9,4.3,9,9.8c0,5.4-3.1,9.7-9,9.7s-9-4.3-9-9.7C951.4,285.7,954.5,281.5,960.4,281.5z
			 M960.4,298.2c3.2,0,5.8-2.5,5.8-7c0-4.5-2.6-7.1-5.8-7.1c-3.2,0-5.8,2.6-5.8,7.1C954.6,295.7,957.2,298.2,960.4,298.2z"/>
		<path class="st13" d="M981.4,300.5h-3.3l-6.9-18.6h3.4l5.2,15.5h0.1l5.1-15.5h3.2L981.4,300.5z"/>
		<path class="st13" d="M994.3,278.5h-3.1v-3.7h3.1V278.5z M991.2,281.9h3.1v18.6h-3.1V281.9z"/>
		<path class="st13" d="M1000.9,294.6c0.1,2.7,2.5,3.6,5,3.6c1.9,0,4.5-0.4,4.5-2.8c0-4.8-12.2-1.5-12.2-8.7c0-3.7,3.7-5.3,6.9-5.3
			c4.2,0,7.3,1.3,7.6,5.8h-3.1c-0.2-2.4-2.3-3.1-4.3-3.1c-1.8,0-4,0.5-4,2.4c0,2.2,3.2,2.6,6.1,3.2c3.1,0.7,6.1,1.7,6.1,5.3
			c0,4.5-4.1,5.9-7.9,5.9c-4.2,0-7.7-1.7-7.9-6.3H1000.9z"/>
		<path class="st13" d="M1020.3,278.5h-3.1v-3.7h3.1V278.5z M1017.2,281.9h3.1v18.6h-3.1V281.9z"/>
		<path class="st13" d="M1033.1,281.5c5.9,0,9,4.3,9,9.8c0,5.4-3.1,9.7-9,9.7s-9-4.3-9-9.7C1024,285.7,1027.2,281.5,1033.1,281.5z
			 M1033.1,298.2c3.2,0,5.8-2.5,5.8-7c0-4.5-2.6-7.1-5.8-7.1c-3.2,0-5.8,2.6-5.8,7.1C1027.3,295.7,1029.9,298.2,1033.1,298.2z"/>
		<path class="st13" d="M1045.7,281.9h2.9v3h0.1c1.3-2.3,3.3-3.4,6-3.4c4.9,0,6.4,2.8,6.4,6.8v12.2h-3.1v-12.6
			c0-2.3-1.4-3.7-3.8-3.7c-3.7,0-5.5,2.5-5.5,5.8v10.5h-3.1V281.9z"/>
		<path class="st13" d="M1083.8,281.5c5.9,0,9,4.3,9,9.8c0,5.4-3.1,9.7-9,9.7s-9-4.3-9-9.7C1074.7,285.7,1077.9,281.5,1083.8,281.5z
			 M1083.8,298.2c3.2,0,5.8-2.5,5.8-7c0-4.5-2.6-7.1-5.8-7.1c-3.2,0-5.8,2.6-5.8,7.1C1078,295.7,1080.6,298.2,1083.8,298.2z"/>
		<path class="st13" d="M1097.7,284.6h-3.1v-2.7h3.1v-2.8c0-3,1.8-4.6,5.1-4.6c0.6,0,1.4,0.1,2,0.3v2.7c-0.5-0.2-1.2-0.3-1.7-0.3
			c-1.5,0-2.3,0.5-2.3,2.1v2.6h3.6v2.7h-3.6v15.9h-3.1V284.6z"/>
		<path class="st13" d="M1125.1,281.5c5.9,0,9,4.3,9,9.8c0,5.4-3.1,9.7-9,9.7s-9-4.3-9-9.7C1116,285.7,1119.2,281.5,1125.1,281.5z
			 M1125.1,298.2c3.2,0,5.8-2.5,5.8-7c0-4.5-2.6-7.1-5.8-7.1c-3.2,0-5.8,2.6-5.8,7.1C1119.3,295.7,1121.9,298.2,1125.1,298.2z"/>
		<path class="st13" d="M1137.8,274.8h3.1v9.6h0.1c1-2.1,3.3-3,5.9-3c5.7,0,8.6,4.5,8.6,9.8c0,5.3-2.8,9.7-8.5,9.7
			c-1.9,0-4.7-0.7-6-2.9h-0.1v2.5h-3.1V274.8z M1146.5,284.2c-4.1,0-5.7,3.6-5.7,7c0,3.6,1.7,7.1,5.9,7.1c4.2,0,5.6-3.6,5.6-7.2
			C1152.2,287.5,1150.4,284.2,1146.5,284.2z"/>
		<path class="st13" d="M1162.3,302.9c0,3.3-1.7,4.8-4.5,4.8c-0.5,0-1,0-1.6-0.1v-2.6c0.2,0,0.4,0.1,0.6,0.1h0.6
			c1.3,0,1.7-0.6,1.7-2.6v-20.5h3.1V302.9z M1162.3,278.5h-3.1v-3.7h3.1V278.5z"/>
		<path class="st13" d="M1182.9,294.6c-0.8,4.1-3.7,6.3-8,6.3c-5.9,0-8.7-4.1-8.9-9.8c0-5.6,3.7-9.7,8.7-9.7c6.6,0,8.6,6.2,8.4,10.7
			h-13.9c-0.1,3.2,1.7,6.1,5.8,6.1c2.6,0,4.3-1.2,4.8-3.6H1182.9z M1180,289.4c-0.2-2.9-2.3-5.3-5.4-5.3c-3.2,0-5.1,2.4-5.3,5.3
			H1180z"/>
		<path class="st13" d="M1199,287.9c-0.5-2.3-2.1-3.7-4.6-3.7c-4.4,0-5.8,3.5-5.8,7.3c0,3.5,1.5,6.8,5.4,6.8c3,0,4.7-1.7,5.1-4.5
			h3.1c-0.7,4.6-3.5,7.2-8.2,7.2c-5.7,0-8.7-3.9-8.7-9.5c0-5.6,2.9-10,8.8-10c4.2,0,7.6,2,8,6.4H1199z"/>
		<path class="st13" d="M1210,281.9h3.7v2.7h-3.7v11.6c0,1.4,0.4,1.7,2.3,1.7h1.4v2.7h-2.3c-3.2,0-4.4-0.6-4.4-4.1v-11.8h-3.2v-2.7
			h3.2v-5.6h3.1V281.9z"/>
		<path class="st13" d="M1220.3,278.5h-3.1v-3.7h3.1V278.5z M1217.2,281.9h3.1v18.6h-3.1V281.9z"/>
		<path class="st13" d="M1233.4,300.5h-3.3l-6.9-18.6h3.4l5.2,15.5h0.1l5.1-15.5h3.2L1233.4,300.5z"/>
		<path class="st13" d="M1258.9,294.6c-0.8,4.1-3.7,6.3-8,6.3c-5.9,0-8.7-4.1-8.9-9.8c0-5.6,3.7-9.7,8.7-9.7c6.6,0,8.6,6.2,8.4,10.7
			h-13.9c-0.1,3.2,1.7,6.1,5.8,6.1c2.6,0,4.3-1.2,4.8-3.6H1258.9z M1256,289.4c-0.2-2.9-2.3-5.3-5.4-5.3c-3.2,0-5.1,2.4-5.3,5.3
			H1256z"/>
		<path class="st13" d="M658.9,337.8c-0.8,4.1-3.7,6.3-8,6.3c-5.9,0-8.7-4.1-8.9-9.8c0-5.6,3.7-9.7,8.7-9.7c6.6,0,8.6,6.2,8.4,10.7
			h-13.9c-0.1,3.2,1.7,6.1,5.8,6.1c2.6,0,4.3-1.2,4.8-3.6H658.9z M655.9,332.6c-0.2-2.9-2.3-5.3-5.4-5.3c-3.2,0-5.1,2.4-5.3,5.3
			H655.9z"/>
		<path class="st13" d="M670.7,343.7h-3.3l-6.9-18.6h3.4l5.2,15.5h0.1l5.1-15.5h3.2L670.7,343.7z"/>
		<path class="st13" d="M683.6,321.7h-3.1V318h3.1V321.7z M680.5,325.1h3.1v18.6h-3.1V325.1z"/>
		<path class="st13" d="M704.9,343.7h-3.1v-2.5h-0.1c-1,2.1-3.3,3-5.9,3c-5.7,0-8.6-4.5-8.6-9.8s2.8-9.7,8.5-9.7
			c1.9,0,4.7,0.7,6,2.9h0.1V318h3.1V343.7z M696.3,341.4c4.1,0,5.7-3.6,5.7-7c0-3.6-1.7-7.1-5.9-7.1c-4.2,0-5.6,3.6-5.6,7.2
			C690.5,338,692.3,341.4,696.3,341.4z"/>
		<path class="st13" d="M725.5,337.8c-0.8,4.1-3.7,6.3-8,6.3c-5.9,0-8.7-4.1-8.9-9.8c0-5.6,3.7-9.7,8.7-9.7c6.6,0,8.6,6.2,8.4,10.7
			h-13.9c-0.1,3.2,1.7,6.1,5.8,6.1c2.6,0,4.3-1.2,4.8-3.6H725.5z M722.6,332.6c-0.2-2.9-2.3-5.3-5.4-5.3c-3.2,0-5.1,2.4-5.3,5.3
			H722.6z"/>
		<path class="st13" d="M729,325.1h2.9v3h0.1c1.3-2.3,3.3-3.4,6-3.4c4.9,0,6.4,2.8,6.4,6.8v12.2h-3.1v-12.6c0-2.3-1.4-3.7-3.8-3.7
			c-3.7,0-5.5,2.5-5.5,5.8v10.5H729V325.1z"/>
		<path class="st13" d="M761.6,331.1c-0.5-2.3-2.1-3.7-4.6-3.7c-4.4,0-5.8,3.5-5.8,7.3c0,3.5,1.5,6.8,5.4,6.8c3,0,4.7-1.7,5.1-4.5
			h3.1c-0.7,4.6-3.5,7.2-8.2,7.2c-5.7,0-8.7-3.9-8.7-9.5c0-5.6,2.9-10,8.8-10c4.2,0,7.6,2,8,6.4H761.6z"/>
		<path class="st13" d="M784.2,337.8c-0.8,4.1-3.7,6.3-8,6.3c-5.9,0-8.7-4.1-8.9-9.8c0-5.6,3.7-9.7,8.7-9.7c6.6,0,8.6,6.2,8.4,10.7
			h-13.9c-0.1,3.2,1.7,6.1,5.8,6.1c2.6,0,4.3-1.2,4.8-3.6H784.2z M781.3,332.6c-0.2-2.9-2.3-5.3-5.4-5.3c-3.2,0-5.1,2.4-5.3,5.3
			H781.3z"/>
		<path class="st13" d="M801.9,325.1h3.7v2.7h-3.7v11.6c0,1.4,0.4,1.7,2.3,1.7h1.4v2.7h-2.3c-3.2,0-4.4-0.6-4.4-4.1v-11.8h-3.2v-2.7
			h3.2v-5.6h3.1V325.1z"/>
		<path class="st13" d="M809,318h3.1v9.8h0.1c1-2.3,3.7-3.2,5.9-3.2c4.9,0,6.4,2.8,6.4,6.8v12.2h-3.1v-12.6c0-2.3-1.4-3.7-3.8-3.7
			c-3.7,0-5.5,2.5-5.5,5.8v10.5H809V318z"/>
		<path class="st13" d="M845.5,343.6c-0.5,0.3-1.3,0.5-2.2,0.5c-1.6,0-2.6-0.9-2.6-2.9c-1.7,2-4,2.9-6.6,2.9c-3.4,0-6.2-1.5-6.2-5.2
			c0-4.2,3.1-5.1,6.3-5.7c3.3-0.7,6.3-0.4,6.3-2.7c0-2.7-2.2-3.1-4.1-3.1c-2.6,0-4.5,0.8-4.6,3.5h-3.1c0.2-4.6,3.7-6.2,7.9-6.2
			c3.3,0,7,0.8,7,5.1v9.6c0,1.4,0,2.1,1,2.1c0.3,0,0.6-0.1,0.9-0.2V343.6z M840.5,334.1c-2.4,1.8-9.3,0-9.3,4.6c0,2,1.7,2.7,3.6,2.7
			c4,0,5.7-2.5,5.7-4.2V334.1z"/>
		<path class="st13" d="M852.6,325.1h3.7v2.7h-3.7v11.6c0,1.4,0.4,1.7,2.3,1.7h1.4v2.7H854c-3.2,0-4.4-0.6-4.4-4.1v-11.8h-3.2v-2.7
			h3.2v-5.6h3.1V325.1z"/>
		<path class="st13" d="M877.7,324.7c5.9,0,9,4.3,9,9.8c0,5.4-3.1,9.7-9,9.7s-9-4.3-9-9.7C868.7,328.9,871.8,324.7,877.7,324.7z
			 M877.7,341.4c3.2,0,5.8-2.5,5.8-7c0-4.5-2.6-7.1-5.8-7.1c-3.2,0-5.8,2.6-5.8,7.1C871.9,338.9,874.5,341.4,877.7,341.4z"/>
		<path class="st13" d="M905.8,343.7h-2.9v-3h-0.1c-1.3,2.3-3.3,3.4-6,3.4c-4.9,0-6.4-2.8-6.4-6.8v-12.2h3.1v12.6
			c0,2.3,1.4,3.7,3.8,3.7c3.7,0,5.5-2.5,5.5-5.8v-10.5h3.1V343.7z"/>
		<path class="st13" d="M914.6,325.1h3.7v2.7h-3.7v11.6c0,1.4,0.4,1.7,2.3,1.7h1.4v2.7H916c-3.2,0-4.4-0.6-4.4-4.1v-11.8h-3.2v-2.7
			h3.2v-5.6h3.1V325.1z"/>
		<path class="st13" d="M921.8,325.1h3.1v2.5h0.1c1-2.1,3.3-3,5.9-3c5.7,0,8.6,4.5,8.6,9.8c0,5.3-2.8,9.7-8.5,9.7
			c-1.9,0-4.7-0.7-6-2.9h-0.1v9.6h-3.1V325.1z M930.5,327.4c-4.1,0-5.7,3.6-5.7,7c0,3.6,1.7,7.1,5.9,7.1c4.2,0,5.6-3.6,5.6-7.2
			C936.2,330.7,934.4,327.4,930.5,327.4z"/>
		<path class="st13" d="M958.5,343.7h-2.9v-3h-0.1c-1.3,2.3-3.3,3.4-6,3.4c-4.9,0-6.4-2.8-6.4-6.8v-12.2h3.1v12.6
			c0,2.3,1.4,3.7,3.8,3.7c3.7,0,5.5-2.5,5.5-5.8v-10.5h3.1V343.7z"/>
		<path class="st13" d="M967.3,325.1h3.7v2.7h-3.7v11.6c0,1.4,0.4,1.7,2.3,1.7h1.4v2.7h-2.3c-3.2,0-4.4-0.6-4.4-4.1v-11.8h-3.2v-2.7
			h3.2v-5.6h3.1V325.1z"/>
		<path class="st13" d="M984.4,325.1h2.9v2.7h0.1c1.4-2.1,3.4-3.2,6-3.2c2.3,0,4.4,0.9,5.1,3.2c1.3-2,3.4-3.2,5.8-3.2
			c3.7,0,6.2,1.5,6.2,5.4v13.6h-3.1v-12.2c0-2.3-0.6-4.1-3.6-4.1s-4.9,1.9-4.9,4.8v11.6H996v-12.2c0-2.4-0.8-4.1-3.5-4.1
			c-3.6,0-5,3.3-5,4.8v11.6h-3.1V325.1z"/>
		<path class="st13" d="M1031,337.8c-0.8,4.1-3.7,6.3-8,6.3c-5.9,0-8.7-4.1-8.9-9.8c0-5.6,3.7-9.7,8.7-9.7c6.6,0,8.6,6.2,8.4,10.7
			h-13.9c-0.1,3.2,1.7,6.1,5.8,6.1c2.6,0,4.3-1.2,4.8-3.6H1031z M1028.1,332.6c-0.2-2.9-2.3-5.3-5.4-5.3c-3.2,0-5.1,2.4-5.3,5.3
			H1028.1z"/>
		<path class="st13" d="M1050.3,337.8c-0.8,4.1-3.7,6.3-8,6.3c-5.9,0-8.7-4.1-8.9-9.8c0-5.6,3.7-9.7,8.7-9.7c6.6,0,8.6,6.2,8.4,10.7
			h-13.9c-0.1,3.2,1.7,6.1,5.8,6.1c2.6,0,4.3-1.2,4.8-3.6H1050.3z M1047.4,332.6c-0.2-2.9-2.3-5.3-5.4-5.3c-3.2,0-5.1,2.4-5.3,5.3
			H1047.4z"/>
		<path class="st13" d="M1058.1,325.1h3.7v2.7h-3.7v11.6c0,1.4,0.4,1.7,2.3,1.7h1.4v2.7h-2.3c-3.2,0-4.4-0.6-4.4-4.1v-11.8h-3.2
			v-2.7h3.2v-5.6h3.1V325.1z"/>
		<path class="st13" d="M1067,337.8c0.1,2.7,2.5,3.6,5,3.6c1.9,0,4.5-0.4,4.5-2.8c0-4.8-12.2-1.5-12.2-8.7c0-3.7,3.7-5.3,6.9-5.3
			c4.2,0,7.3,1.3,7.6,5.8h-3.1c-0.2-2.4-2.3-3.1-4.3-3.1c-1.8,0-4,0.5-4,2.4c0,2.2,3.2,2.6,6.1,3.2c3.1,0.7,6.1,1.7,6.1,5.3
			c0,4.5-4.1,5.9-7.9,5.9c-4.2,0-7.7-1.7-7.9-6.3H1067z"/>
		<path class="st13" d="M1096.4,321.7h-3.1V318h3.1V321.7z M1093.3,325.1h3.1v18.6h-3.1V325.1z"/>
		<path class="st13" d="M1101.1,325.1h2.9v3h0.1c1.3-2.3,3.3-3.4,6-3.4c4.9,0,6.4,2.8,6.4,6.8v12.2h-3.1v-12.6
			c0-2.3-1.4-3.7-3.8-3.7c-3.7,0-5.5,2.5-5.5,5.8v10.5h-3.1V325.1z"/>
		<path class="st13" d="M1121.3,325.1h3.1v2.5h0.1c1-2.1,3.3-3,5.9-3c5.7,0,8.6,4.5,8.6,9.8c0,5.3-2.8,9.7-8.5,9.7
			c-1.9,0-4.7-0.7-6-2.9h-0.1v9.6h-3.1V325.1z M1129.9,327.4c-4.1,0-5.7,3.6-5.7,7c0,3.6,1.7,7.1,5.9,7.1c4.2,0,5.6-3.6,5.6-7.2
			C1135.7,330.7,1133.9,327.4,1129.9,327.4z"/>
		<path class="st13" d="M1157.9,343.7h-2.9v-3h-0.1c-1.3,2.3-3.3,3.4-6,3.4c-4.9,0-6.4-2.8-6.4-6.8v-12.2h3.1v12.6
			c0,2.3,1.4,3.7,3.8,3.7c3.7,0,5.5-2.5,5.5-5.8v-10.5h3.1V343.7z"/>
		<path class="st13" d="M1166.8,325.1h3.7v2.7h-3.7v11.6c0,1.4,0.4,1.7,2.3,1.7h1.4v2.7h-2.3c-3.2,0-4.4-0.6-4.4-4.1v-11.8h-3.2
			v-2.7h3.2v-5.6h3.1V325.1z"/>
		<path class="st13" d="M642.9,368.3h2.9v3.9h0.1c1.5-3,3.5-4.5,6.8-4.4v3.2c-4.9,0-6.7,2.8-6.7,7.5v8.3h-3.1V368.3z"/>
		<path class="st13" d="M670.8,381c-0.8,4.1-3.7,6.3-8,6.3c-5.9,0-8.7-4.1-8.9-9.8c0-5.6,3.7-9.7,8.7-9.7c6.6,0,8.6,6.2,8.4,10.7
			h-13.9c-0.1,3.2,1.7,6.1,5.8,6.1c2.6,0,4.3-1.2,4.8-3.6H670.8z M667.9,375.8c-0.2-2.9-2.3-5.3-5.4-5.3c-3.2,0-5.1,2.4-5.3,5.3
			H667.9z"/>
		<path class="st13" d="M690.9,394h-3.1v-9.6h-0.1c-1,2.1-3.3,3-5.9,3c-5.7,0-8.6-4.5-8.6-9.8s2.8-9.7,8.5-9.7c1.9,0,4.7,0.7,6,2.9
			h0.1v-2.5h3.1V394z M682.3,384.6c4.1,0,5.7-3.6,5.7-7c0-3.6-1.7-7.1-5.9-7.1c-4.2,0-5.6,3.6-5.6,7.2
			C676.5,381.2,678.3,384.6,682.3,384.6z"/>
		<path class="st13" d="M711.1,386.9h-2.9v-3h-0.1c-1.3,2.3-3.3,3.4-6,3.4c-4.9,0-6.4-2.8-6.4-6.8v-12.2h3.1v12.6
			c0,2.3,1.4,3.7,3.8,3.7c3.7,0,5.5-2.5,5.5-5.8v-10.5h3.1V386.9z"/>
		<path class="st13" d="M718.9,364.9h-3.1v-3.7h3.1V364.9z M715.8,368.3h3.1v18.6h-3.1V368.3z"/>
		<path class="st13" d="M723.5,368.3h2.9v3.9h0.1c1.5-3,3.5-4.5,6.8-4.4v3.2c-4.9,0-6.7,2.8-6.7,7.5v8.3h-3.1V368.3z"/>
		<path class="st13" d="M751.5,381c-0.8,4.1-3.7,6.3-8,6.3c-5.9,0-8.7-4.1-8.9-9.8c0-5.6,3.7-9.7,8.7-9.7c6.6,0,8.6,6.2,8.4,10.7
			h-13.9c-0.1,3.2,1.7,6.1,5.8,6.1c2.6,0,4.3-1.2,4.8-3.6H751.5z M748.6,375.8c-0.2-2.9-2.3-5.3-5.4-5.3c-3.2,0-5.1,2.4-5.3,5.3
			H748.6z"/>
		<path class="st13" d="M755,368.3h2.9v2.7h0.1c1.4-2.1,3.4-3.2,6-3.2c2.3,0,4.4,0.9,5.1,3.2c1.3-2,3.4-3.2,5.8-3.2
			c3.7,0,6.2,1.5,6.2,5.4v13.6H778v-12.2c0-2.3-0.6-4.1-3.6-4.1s-4.9,1.9-4.9,4.8v11.6h-3.1v-12.2c0-2.4-0.8-4.1-3.5-4.1
			c-3.6,0-5,3.3-5,4.8v11.6H755V368.3z"/>
		<path class="st13" d="M801.6,381c-0.8,4.1-3.7,6.3-8,6.3c-5.9,0-8.7-4.1-8.9-9.8c0-5.6,3.7-9.7,8.7-9.7c6.6,0,8.6,6.2,8.4,10.7
			h-13.9c-0.1,3.2,1.7,6.1,5.8,6.1c2.6,0,4.3-1.2,4.8-3.6H801.6z M798.6,375.8c-0.2-2.9-2.3-5.3-5.4-5.3c-3.2,0-5.1,2.4-5.3,5.3
			H798.6z"/>
		<path class="st13" d="M805,368.3h2.9v3h0.1c1.3-2.3,3.3-3.4,6-3.4c4.9,0,6.4,2.8,6.4,6.8v12.2h-3.1v-12.6c0-2.3-1.4-3.7-3.8-3.7
			c-3.7,0-5.5,2.5-5.5,5.8v10.5H805V368.3z"/>
		<path class="st13" d="M829.3,368.3h3.7v2.7h-3.7v11.6c0,1.4,0.4,1.7,2.3,1.7h1.4v2.7h-2.3c-3.2,0-4.4-0.6-4.4-4.1V371H823v-2.7
			h3.2v-5.6h3.1V368.3z"/>
		<path class="st13" d="M838.2,381c0.1,2.7,2.5,3.6,5,3.6c1.9,0,4.5-0.4,4.5-2.8c0-4.8-12.2-1.5-12.2-8.7c0-3.7,3.7-5.3,6.9-5.3
			c4.2,0,7.3,1.3,7.6,5.8h-3.1c-0.2-2.4-2.3-3.1-4.3-3.1c-1.8,0-4,0.5-4,2.4c0,2.2,3.2,2.6,6.1,3.2c3.1,0.7,6.1,1.7,6.1,5.3
			c0,4.5-4.1,5.9-7.9,5.9c-4.2,0-7.7-1.7-7.9-6.3H838.2z"/>
	</g>
</g>
<g>
	<rect x="358.7" y="228.5" class="st14" width="232.8" height="41.2"/>
	<path class="st15" d="M373.2,254.2h-6.4l-8.4-25.7h5.8l5.7,18.1h0.1l5.8-18.1h5.8L373.2,254.2z"/>
	<path class="st15" d="M387.6,246.2c0.1,3.3,1.7,4.7,4.6,4.7c2.1,0,3.7-1.3,4-2.4h4.5c-1.4,4.4-4.5,6.3-8.7,6.3
		c-5.9,0-9.5-4-9.5-9.8c0-5.6,3.9-9.8,9.5-9.8c6.3,0,9.4,5.3,9,11.1H387.6z M395.9,242.9c-0.5-2.6-1.6-4-4.1-4c-3.3,0-4.1,2.5-4.2,4
		H395.9z"/>
	<path class="st15" d="M404,235.6h4.9v3.5h0.1c1-2.3,3.4-4,5.9-4c0.4,0,0.8,0.1,1.1,0.2v4.8c-0.5-0.1-1.2-0.2-1.8-0.2
		c-3.8,0-5,2.7-5,6v8.4H404V235.6z"/>
	<path class="st15" d="M423.3,232.7h-5.1v-4.2h5.1V232.7z M418.2,235.6h5.1v18.6h-5.1V235.6z"/>
	<path class="st15" d="M428.4,239h-3.1v-3.4h3.1v-1.4c0-3.3,2.1-5.7,6.2-5.7c0.9,0,1.8,0.1,2.7,0.1v3.8c-0.6-0.1-1.3-0.1-1.9-0.1
		c-1.4,0-1.9,0.6-1.9,2.1v1.1h3.5v3.4h-3.5v15.2h-5.1V239z M445.3,232.7h-5.1v-4.2h5.1V232.7z M440.2,235.6h5.1v18.6h-5.1V235.6z"/>
	<path class="st15" d="M462,242.2c-0.3-2.1-1.6-3.2-3.8-3.2c-3.3,0-4.4,3.3-4.4,6c0,2.7,1,5.9,4.2,5.9c2.4,0,3.7-1.5,4.1-3.8h4.9
		c-0.7,4.9-4,7.6-9,7.6c-5.6,0-9.4-4-9.4-9.5c0-5.8,3.5-10.1,9.5-10.1c4.4,0,8.5,2.3,8.7,7.1H462z"/>
	<path class="st15" d="M469.8,241.3c0.3-4.8,4.6-6.2,8.7-6.2c3.7,0,8.2,0.8,8.2,5.3v9.7c0,1.7,0.2,3.4,0.6,4.1h-5.2
		c-0.2-0.6-0.3-1.2-0.4-1.8c-1.6,1.7-4,2.3-6.3,2.3c-3.6,0-6.3-1.8-6.3-5.6c0.1-8.5,12.6-3.9,12.4-8.1c0-2.2-1.5-2.5-3.3-2.5
		c-2,0-3.2,0.8-3.4,2.8H469.8z M481.6,245.1c-0.9,0.8-2.7,0.8-4.2,1.1c-1.6,0.3-3,0.9-3,2.7c0,1.9,1.5,2.4,3.1,2.4
		c4,0,4.1-3.1,4.1-4.3V245.1z"/>
	<path class="st15" d="M497.1,235.6h3.7v3.4h-3.7v9.2c0,1.7,0.4,2.2,2.2,2.2c0.6,0,1.1,0,1.6-0.1v4c-0.9,0.1-2,0.2-3,0.2
		c-3.2,0-5.9-0.7-5.9-4.4v-11h-3.1v-3.4h3.1V230h5.1V235.6z"/>
	<path class="st15" d="M508.6,232.7h-5.1v-4.2h5.1V232.7z M503.5,235.6h5.1v18.6h-5.1V235.6z"/>
	<path class="st15" d="M521.6,235.1c5.9,0,9.6,3.9,9.6,9.8c0,5.9-3.8,9.8-9.6,9.8c-5.8,0-9.6-3.9-9.6-9.8
		C512,239,515.8,235.1,521.6,235.1z M521.6,250.9c3.5,0,4.5-3,4.5-5.9c0-3-1-6-4.5-6c-3.5,0-4.5,3-4.5,6
		C517.1,247.9,518.2,250.9,521.6,250.9z"/>
	<path class="st15" d="M534.6,235.6h4.9v2.6h0.1c1.3-2.1,3.5-3.1,5.7-3.1c5.4,0,6.8,3.1,6.8,7.7v11.4h-5.1v-10.5
		c0-3.1-0.9-4.6-3.3-4.6c-2.8,0-4,1.5-4,5.3v9.8h-5.1V235.6z"/>
</g>
<g>
	<g>
		<path class="st13" d="M614.7,563.9c3.6,0,6.4,2.8,6.4,6.4s-2.9,6.4-6.4,6.4s-6.4-2.9-6.4-6.4S611.1,563.9,614.7,563.9z"/>
		<path class="st13" d="M646.5,557.4h8.8c7.9,0,12.3,4,12.3,12.2c0,8.6-3.8,13.5-12.3,13.5h-8.8V557.4z M649.9,580.3h5.7
			c2.3,0,8.6-0.6,8.6-10.1c0-6.1-2.3-9.8-8.6-9.8h-5.8V580.3z"/>
		<path class="st13" d="M687.2,577.2c-0.8,4.1-3.7,6.3-8,6.3c-5.9,0-8.7-4.1-8.9-9.8c0-5.6,3.7-9.7,8.7-9.7c6.6,0,8.6,6.2,8.4,10.7
			h-13.9c-0.1,3.2,1.7,6.1,5.8,6.1c2.6,0,4.3-1.2,4.8-3.6H687.2z M684.3,572.1c-0.2-2.9-2.3-5.3-5.4-5.3c-3.2,0-5.1,2.4-5.3,5.3
			H684.3z"/>
		<path class="st13" d="M692.5,577.3c0.1,2.7,2.5,3.6,5,3.6c1.9,0,4.5-0.4,4.5-2.8c0-4.8-12.2-1.5-12.2-8.7c0-3.7,3.7-5.3,6.9-5.3
			c4.2,0,7.3,1.3,7.6,5.8h-3.1c-0.2-2.4-2.3-3.1-4.3-3.1c-1.8,0-4,0.5-4,2.4c0,2.2,3.2,2.6,6.1,3.2c3.1,0.7,6.1,1.7,6.1,5.3
			c0,4.5-4.1,5.9-7.9,5.9c-4.2,0-7.7-1.7-7.9-6.3H692.5z"/>
		<path class="st13" d="M711.9,561.2h-3.1v-3.7h3.1V561.2z M708.9,564.5h3.1v18.6h-3.1V564.5z"/>
		<path class="st13" d="M732.7,581.6c0,6.1-2.7,9.1-8.6,9.1c-3.5,0-7.5-1.4-7.7-5.5h3.1c0.1,2.2,2.8,3,4.8,3c4,0,5.6-2.9,5.6-7.1
			V580h-0.1c-1,2.3-3.4,3.4-5.8,3.4c-5.5,0-8.3-4.4-8.3-9.4c0-4.4,2.1-9.8,8.6-9.8c2.3,0,4.4,1,5.5,3.1h0v-2.7h2.9V581.6z
			 M729.7,573.5c0-3.3-1.4-6.7-5.3-6.7c-3.9,0-5.5,3.2-5.5,6.8c0,3.3,1.2,7.1,5.3,7.1C728.2,580.7,729.7,576.9,729.7,573.5z"/>
		<path class="st13" d="M737.3,564.5h2.9v3h0.1c1.3-2.3,3.3-3.4,6-3.4c4.9,0,6.4,2.8,6.4,6.8v12.2h-3.1v-12.6c0-2.3-1.4-3.7-3.8-3.7
			c-3.7,0-5.5,2.5-5.5,5.8v10.5h-3.1V564.5z"/>
		<path class="st13" d="M778,583.1h-3.9l-9.1-25.7h3.7l7.3,22.3h0.1l7.4-22.3h3.6L778,583.1z"/>
		<path class="st13" d="M805.8,583.1c-0.5,0.3-1.3,0.5-2.2,0.5c-1.6,0-2.6-0.9-2.6-2.9c-1.7,2-4,2.9-6.6,2.9c-3.4,0-6.2-1.5-6.2-5.2
			c0-4.2,3.1-5.1,6.3-5.7c3.3-0.7,6.3-0.4,6.3-2.7c0-2.7-2.2-3.1-4.1-3.1c-2.6,0-4.5,0.8-4.6,3.5h-3.1c0.2-4.6,3.7-6.2,7.9-6.2
			c3.3,0,7,0.8,7,5.1v9.6c0,1.4,0,2.1,1,2.1c0.3,0,0.6-0.1,0.9-0.2V583.1z M800.9,573.5c-2.4,1.8-9.3,0-9.3,4.6c0,2,1.7,2.7,3.6,2.7
			c4,0,5.7-2.5,5.7-4.2V573.5z"/>
		<path class="st13" d="M808.9,557.4h3.1v25.7h-3.1V557.4z"/>
		<path class="st13" d="M819.9,561.2h-3.1v-3.7h3.1V561.2z M816.8,564.5h3.1v18.6h-3.1V564.5z"/>
		<path class="st13" d="M841.3,583.1h-3.1v-2.5h-0.1c-1,2.1-3.3,3-5.9,3c-5.7,0-8.6-4.5-8.6-9.8c0-5.3,2.8-9.7,8.5-9.7
			c1.9,0,4.7,0.7,6,2.9h0.1v-9.6h3.1V583.1z M832.7,580.9c4.1,0,5.7-3.6,5.7-7c0-3.6-1.7-7.1-5.9-7.1c-4.2,0-5.6,3.6-5.6,7.2
			C826.9,577.5,828.7,580.9,832.7,580.9z"/>
		<path class="st13" d="M862.5,583.1c-0.5,0.3-1.3,0.5-2.2,0.5c-1.6,0-2.6-0.9-2.6-2.9c-1.7,2-4,2.9-6.6,2.9c-3.4,0-6.2-1.5-6.2-5.2
			c0-4.2,3.1-5.1,6.3-5.7c3.3-0.7,6.3-0.4,6.3-2.7c0-2.7-2.2-3.1-4.1-3.1c-2.6,0-4.5,0.8-4.6,3.5h-3.1c0.2-4.6,3.7-6.2,7.9-6.2
			c3.3,0,7,0.8,7,5.1v9.6c0,1.4,0,2.1,1,2.1c0.3,0,0.6-0.1,0.9-0.2V583.1z M857.5,573.5c-2.4,1.8-9.3,0-9.3,4.6c0,2,1.7,2.7,3.6,2.7
			c4,0,5.7-2.5,5.7-4.2V573.5z"/>
		<path class="st13" d="M869.6,564.5h3.7v2.7h-3.7v11.6c0,1.4,0.4,1.7,2.3,1.7h1.4v2.7H871c-3.2,0-4.4-0.6-4.4-4.1v-11.8h-3.2v-2.7
			h3.2V559h3.1V564.5z"/>
		<path class="st13" d="M879.9,561.2h-3.1v-3.7h3.1V561.2z M876.9,564.5h3.1v18.6h-3.1V564.5z"/>
		<path class="st13" d="M892.7,564.1c5.9,0,9,4.3,9,9.8c0,5.4-3.1,9.7-9,9.7s-9-4.3-9-9.7C883.7,568.4,886.8,564.1,892.7,564.1z
			 M892.7,580.9c3.2,0,5.8-2.5,5.8-7s-2.6-7.1-5.8-7.1c-3.2,0-5.8,2.6-5.8,7.1S889.5,580.9,892.7,580.9z"/>
		<path class="st13" d="M905.3,564.5h2.9v3h0.1c1.3-2.3,3.3-3.4,6-3.4c4.9,0,6.4,2.8,6.4,6.8v12.2h-3.1v-12.6c0-2.3-1.4-3.7-3.8-3.7
			c-3.7,0-5.5,2.5-5.5,5.8v10.5h-3.1V564.5z"/>
		<path class="st13" d="M935.4,564.5h2.9v2.7h0.1c1.4-2.1,3.4-3.2,6-3.2c2.3,0,4.4,0.9,5.1,3.2c1.3-2,3.4-3.2,5.8-3.2
			c3.7,0,6.2,1.5,6.2,5.4v13.6h-3.1v-12.2c0-2.3-0.6-4.1-3.6-4.1s-4.9,1.9-4.9,4.8v11.6h-3.1v-12.2c0-2.4-0.8-4.1-3.5-4.1
			c-3.6,0-5,3.3-5,4.8v11.6h-3.1V564.5z"/>
		<path class="st13" d="M981.9,577.2c-0.8,4.1-3.7,6.3-8,6.3c-5.9,0-8.7-4.1-8.9-9.8c0-5.6,3.7-9.7,8.7-9.7c6.6,0,8.6,6.2,8.4,10.7
			h-13.9c-0.1,3.2,1.7,6.1,5.8,6.1c2.6,0,4.3-1.2,4.8-3.6H981.9z M979,572.1c-0.2-2.9-2.3-5.3-5.4-5.3c-3.2,0-5.1,2.4-5.3,5.3H979z"
			/>
		<path class="st13" d="M1001.9,583.1c-0.5,0.3-1.3,0.5-2.2,0.5c-1.6,0-2.6-0.9-2.6-2.9c-1.7,2-4,2.9-6.6,2.9
			c-3.4,0-6.2-1.5-6.2-5.2c0-4.2,3.1-5.1,6.3-5.7c3.3-0.7,6.3-0.4,6.3-2.7c0-2.7-2.2-3.1-4.1-3.1c-2.6,0-4.5,0.8-4.6,3.5h-3.1
			c0.2-4.6,3.7-6.2,7.9-6.2c3.3,0,7,0.8,7,5.1v9.6c0,1.4,0,2.1,1,2.1c0.3,0,0.6-0.1,0.9-0.2V583.1z M996.9,573.5
			c-2.4,1.8-9.3,0-9.3,4.6c0,2,1.7,2.7,3.6,2.7c4,0,5.7-2.5,5.7-4.2V573.5z"/>
		<path class="st13" d="M1004.7,564.5h2.9v3h0.1c1.3-2.3,3.3-3.4,6-3.4c4.9,0,6.4,2.8,6.4,6.8v12.2h-3.1v-12.6
			c0-2.3-1.4-3.7-3.8-3.7c-3.7,0-5.5,2.5-5.5,5.8v10.5h-3.1V564.5z"/>
		<path class="st13" d="M1026.6,577.3c0.1,2.7,2.5,3.6,5,3.6c1.9,0,4.5-0.4,4.5-2.8c0-4.8-12.2-1.5-12.2-8.7c0-3.7,3.7-5.3,6.9-5.3
			c4.2,0,7.3,1.3,7.6,5.8h-3.1c-0.2-2.4-2.3-3.1-4.3-3.1c-1.8,0-4,0.5-4,2.4c0,2.2,3.2,2.6,6.1,3.2c3.1,0.7,6.1,1.7,6.1,5.3
			c0,4.5-4.1,5.9-7.9,5.9c-4.2,0-7.7-1.7-7.9-6.3H1026.6z"/>
		<path class="st13" d="M1068.6,577.2c-0.8,4.1-3.7,6.3-8,6.3c-5.9,0-8.7-4.1-8.9-9.8c0-5.6,3.7-9.7,8.7-9.7c6.6,0,8.6,6.2,8.4,10.7
			H1055c-0.1,3.2,1.7,6.1,5.8,6.1c2.6,0,4.3-1.2,4.8-3.6H1068.6z M1065.7,572.1c-0.2-2.9-2.3-5.3-5.4-5.3c-3.2,0-5.1,2.4-5.3,5.3
			H1065.7z"/>
		<path class="st13" d="M1074,577.3c0.1,2.7,2.5,3.6,5,3.6c1.9,0,4.5-0.4,4.5-2.8c0-4.8-12.2-1.5-12.2-8.7c0-3.7,3.7-5.3,6.9-5.3
			c4.2,0,7.3,1.3,7.6,5.8h-3.1c-0.2-2.4-2.3-3.1-4.3-3.1c-1.8,0-4,0.5-4,2.4c0,2.2,3.2,2.6,6.1,3.2c3.1,0.7,6.1,1.7,6.1,5.3
			c0,4.5-4.1,5.9-7.9,5.9c-4.2,0-7.7-1.7-7.9-6.3H1074z"/>
		<path class="st13" d="M1094.3,564.5h3.7v2.7h-3.7v11.6c0,1.4,0.4,1.7,2.3,1.7h1.4v2.7h-2.3c-3.2,0-4.4-0.6-4.4-4.1v-11.8h-3.2
			v-2.7h3.2V559h3.1V564.5z"/>
		<path class="st13" d="M1117.9,583.1c-0.5,0.3-1.3,0.5-2.2,0.5c-1.6,0-2.6-0.9-2.6-2.9c-1.7,2-4,2.9-6.6,2.9
			c-3.4,0-6.2-1.5-6.2-5.2c0-4.2,3.1-5.1,6.3-5.7c3.3-0.7,6.3-0.4,6.3-2.7c0-2.7-2.2-3.1-4.1-3.1c-2.6,0-4.5,0.8-4.6,3.5h-3.1
			c0.2-4.6,3.7-6.2,7.9-6.2c3.3,0,7,0.8,7,5.1v9.6c0,1.4,0,2.1,1,2.1c0.3,0,0.6-0.1,0.9-0.2V583.1z M1112.9,573.5
			c-2.4,1.8-9.3,0-9.3,4.6c0,2,1.7,2.7,3.6,2.7c4,0,5.7-2.5,5.7-4.2V573.5z"/>
		<path class="st13" d="M1120.9,557.4h3.1v9.6h0.1c1-2.1,3.3-3,5.9-3c5.7,0,8.6,4.5,8.6,9.8c0,5.3-2.8,9.7-8.5,9.7
			c-1.9,0-4.7-0.7-6-2.9h-0.1v2.5h-3.1V557.4z M1129.5,566.8c-4.1,0-5.7,3.6-5.7,7c0,3.6,1.7,7.1,5.9,7.1c4.2,0,5.6-3.6,5.6-7.2
			C1135.3,570.2,1133.5,566.8,1129.5,566.8z"/>
		<path class="st13" d="M1142.3,557.4h3.1v25.7h-3.1V557.4z"/>
		<path class="st13" d="M1153.3,561.2h-3.1v-3.7h3.1V561.2z M1150.3,564.5h3.1v18.6h-3.1V564.5z"/>
		<path class="st13" d="M1160,577.3c0.1,2.7,2.5,3.6,5,3.6c1.9,0,4.5-0.4,4.5-2.8c0-4.8-12.2-1.5-12.2-8.7c0-3.7,3.7-5.3,6.9-5.3
			c4.2,0,7.3,1.3,7.6,5.8h-3.1c-0.2-2.4-2.3-3.1-4.3-3.1c-1.8,0-4,0.5-4,2.4c0,2.2,3.2,2.6,6.1,3.2c3.1,0.7,6.1,1.7,6.1,5.3
			c0,4.5-4.1,5.9-7.9,5.9c-4.2,0-7.7-1.7-7.9-6.3H1160z"/>
		<path class="st13" d="M1176.1,557.4h3.1v9.8h0.1c1-2.3,3.7-3.2,5.9-3.2c4.9,0,6.4,2.8,6.4,6.8v12.2h-3.1v-12.6
			c0-2.3-1.4-3.7-3.8-3.7c-3.7,0-5.5,2.5-5.5,5.8v10.5h-3.1V557.4z"/>
		<path class="st13" d="M1199.3,561.2h-3.1v-3.7h3.1V561.2z M1196.3,564.5h3.1v18.6h-3.1V564.5z"/>
		<path class="st13" d="M1204.1,564.5h2.9v3h0.1c1.3-2.3,3.3-3.4,6-3.4c4.9,0,6.4,2.8,6.4,6.8v12.2h-3.1v-12.6
			c0-2.3-1.4-3.7-3.8-3.7c-3.7,0-5.5,2.5-5.5,5.8v10.5h-3.1V564.5z"/>
		<path class="st13" d="M1240.2,581.6c0,6.1-2.7,9.1-8.6,9.1c-3.5,0-7.5-1.4-7.7-5.5h3.1c0.1,2.2,2.8,3,4.8,3c4,0,5.6-2.9,5.6-7.1
			V580h-0.1c-1,2.3-3.4,3.4-5.8,3.4c-5.5,0-8.3-4.4-8.3-9.4c0-4.4,2.1-9.8,8.6-9.8c2.3,0,4.4,1,5.5,3.1h0v-2.7h2.9V581.6z
			 M1237.1,573.5c0-3.3-1.4-6.7-5.3-6.7c-3.9,0-5.5,3.2-5.5,6.8c0,3.3,1.2,7.1,5.3,7.1C1235.6,580.7,1237.1,576.9,1237.1,573.5z"/>
		<path class="st13" d="M1254.9,557.4h3.1v9.6h0.1c1-2.1,3.3-3,5.9-3c5.7,0,8.6,4.5,8.6,9.8c0,5.3-2.8,9.7-8.5,9.7
			c-1.9,0-4.7-0.7-6-2.9h-0.1v2.5h-3.1V557.4z M1263.5,566.8c-4.1,0-5.7,3.6-5.7,7c0,3.6,1.7,7.1,5.9,7.1c4.2,0,5.6-3.6,5.6-7.2
			C1269.3,570.2,1267.5,566.8,1263.5,566.8z"/>
		<path class="st13" d="M1283.4,585.6c-1.4,3.6-2.7,5-5.4,5c-0.7,0-1.4-0.1-2.1-0.3v-2.8c0.6,0.2,1.2,0.4,1.8,0.4
			c1.3,0,1.9-0.6,2.5-1.7l1.3-3.2l-7.4-18.5h3.5l5.4,15.2h0.1l5.2-15.2h3.2L1283.4,585.6z"/>
		<path class="st13" d="M651,607.3c5.9,0,9,4.3,9,9.8c0,5.4-3.1,9.7-9,9.7s-9-4.3-9-9.7C642,611.6,645.1,607.3,651,607.3z
			 M651,624.1c3.2,0,5.8-2.5,5.8-7s-2.6-7.1-5.8-7.1c-3.2,0-5.8,2.6-5.8,7.1S647.8,624.1,651,624.1z"/>
		<path class="st13" d="M663.8,600.6h3.1v9.6h0.1c1-2.1,3.3-3,5.9-3c5.7,0,8.6,4.5,8.6,9.8c0,5.3-2.8,9.7-8.5,9.7
			c-1.9,0-4.7-0.7-6-2.9h-0.1v2.5h-3.1V600.6z M672.4,610c-4.1,0-5.7,3.6-5.7,7c0,3.6,1.7,7.1,5.9,7.1c4.2,0,5.6-3.6,5.6-7.2
			C678.2,613.4,676.4,610,672.4,610z"/>
		<path class="st13" d="M688.2,628.7c0,3.3-1.7,4.8-4.5,4.8c-0.5,0-1,0-1.6-0.1v-2.6c0.2,0,0.4,0.1,0.6,0.1h0.6
			c1.3,0,1.7-0.6,1.7-2.6v-20.5h3.1V628.7z M688.2,604.4h-3.1v-3.7h3.1V604.4z"/>
		<path class="st13" d="M708.9,620.4c-0.8,4.1-3.7,6.3-8,6.3c-5.9,0-8.7-4.1-8.9-9.8c0-5.6,3.7-9.7,8.7-9.7c6.6,0,8.6,6.2,8.4,10.7
			h-13.9c-0.1,3.2,1.7,6.1,5.8,6.1c2.6,0,4.3-1.2,4.8-3.6H708.9z M705.9,615.3c-0.2-2.9-2.3-5.3-5.4-5.3c-3.2,0-5.1,2.4-5.3,5.3
			H705.9z"/>
		<path class="st13" d="M725,613.7c-0.5-2.3-2.1-3.7-4.6-3.7c-4.4,0-5.8,3.5-5.8,7.3c0,3.5,1.5,6.8,5.4,6.8c3,0,4.7-1.7,5.1-4.5h3.1
			c-0.7,4.6-3.5,7.2-8.2,7.2c-5.7,0-8.7-3.9-8.7-9.5s2.9-10,8.8-10c4.2,0,7.6,2,8,6.4H725z"/>
		<path class="st13" d="M735.9,607.7h3.7v2.7h-3.7V622c0,1.4,0.4,1.7,2.3,1.7h1.4v2.7h-2.3c-3.2,0-4.4-0.6-4.4-4.1v-11.8h-3.2v-2.7
			h3.2v-5.6h3.1V607.7z"/>
		<path class="st13" d="M746.2,604.4h-3.1v-3.7h3.1V604.4z M743.2,607.7h3.1v18.6h-3.1V607.7z"/>
		<path class="st13" d="M759.4,626.3h-3.3l-6.9-18.6h3.4l5.2,15.5h0.1l5.1-15.5h3.2L759.4,626.3z"/>
		<path class="st13" d="M784.9,620.4c-0.8,4.1-3.7,6.3-8,6.3c-5.9,0-8.7-4.1-8.9-9.8c0-5.6,3.7-9.7,8.7-9.7c6.6,0,8.6,6.2,8.4,10.7
			h-13.9c-0.1,3.2,1.7,6.1,5.8,6.1c2.6,0,4.3-1.2,4.8-3.6H784.9z M781.9,615.3c-0.2-2.9-2.3-5.3-5.4-5.3c-3.2,0-5.1,2.4-5.3,5.3
			H781.9z"/>
		<path class="st13" d="M814.2,620.4c-0.8,4.1-3.7,6.3-8,6.3c-5.9,0-8.7-4.1-8.9-9.8c0-5.6,3.7-9.7,8.7-9.7c6.6,0,8.6,6.2,8.4,10.7
			h-13.9c-0.1,3.2,1.7,6.1,5.8,6.1c2.6,0,4.3-1.2,4.8-3.6H814.2z M811.2,615.3c-0.2-2.9-2.3-5.3-5.4-5.3c-3.2,0-5.1,2.4-5.3,5.3
			H811.2z"/>
		<path class="st13" d="M826,626.3h-3.3l-6.9-18.6h3.4l5.2,15.5h0.1l5.1-15.5h3.2L826,626.3z"/>
		<path class="st13" d="M838.9,604.4h-3.1v-3.7h3.1V604.4z M835.8,607.7h3.1v18.6h-3.1V607.7z"/>
		<path class="st13" d="M860.3,626.3h-3.1v-2.5h-0.1c-1,2.1-3.3,3-5.9,3c-5.7,0-8.6-4.5-8.6-9.8c0-5.3,2.8-9.7,8.5-9.7
			c1.9,0,4.7,0.7,6,2.9h0.1v-9.6h3.1V626.3z M851.6,624.1c4.1,0,5.7-3.6,5.7-7c0-3.6-1.7-7.1-5.9-7.1c-4.2,0-5.6,3.6-5.6,7.2
			C845.9,620.7,847.7,624.1,851.6,624.1z"/>
		<path class="st13" d="M880.9,620.4c-0.8,4.1-3.7,6.3-8,6.3c-5.9,0-8.7-4.1-8.9-9.8c0-5.6,3.7-9.7,8.7-9.7c6.6,0,8.6,6.2,8.4,10.7
			h-13.9c-0.1,3.2,1.7,6.1,5.8,6.1c2.6,0,4.3-1.2,4.8-3.6H880.9z M877.9,615.3c-0.2-2.9-2.3-5.3-5.4-5.3c-3.2,0-5.1,2.4-5.3,5.3
			H877.9z"/>
		<path class="st13" d="M884.3,607.7h2.9v3h0.1c1.3-2.3,3.3-3.4,6-3.4c4.9,0,6.4,2.8,6.4,6.8v12.2h-3.1v-12.6c0-2.3-1.4-3.7-3.8-3.7
			c-3.7,0-5.5,2.5-5.5,5.8v10.5h-3.1V607.7z"/>
		<path class="st13" d="M917,613.7c-0.5-2.3-2.1-3.7-4.6-3.7c-4.4,0-5.8,3.5-5.8,7.3c0,3.5,1.5,6.8,5.4,6.8c3,0,4.7-1.7,5.1-4.5h3.1
			c-0.7,4.6-3.5,7.2-8.2,7.2c-5.7,0-8.7-3.9-8.7-9.5s2.9-10,8.8-10c4.2,0,7.6,2,8,6.4H917z"/>
		<path class="st13" d="M939.5,620.4c-0.8,4.1-3.7,6.3-8,6.3c-5.9,0-8.7-4.1-8.9-9.8c0-5.6,3.7-9.7,8.7-9.7c6.6,0,8.6,6.2,8.4,10.7
			h-13.9c-0.1,3.2,1.7,6.1,5.8,6.1c2.6,0,4.3-1.2,4.8-3.6H939.5z M936.6,615.3c-0.2-2.9-2.3-5.3-5.4-5.3c-3.2,0-5.1,2.4-5.3,5.3
			H936.6z"/>
		<path class="st13" d="M957.3,607.7h3.7v2.7h-3.7V622c0,1.4,0.4,1.7,2.3,1.7h1.4v2.7h-2.3c-3.2,0-4.4-0.6-4.4-4.1v-11.8H951v-2.7
			h3.2v-5.6h3.1V607.7z"/>
		<path class="st13" d="M964.3,600.6h3.1v9.8h0.1c1-2.3,3.7-3.2,5.9-3.2c4.9,0,6.4,2.8,6.4,6.8v12.2h-3.1v-12.6
			c0-2.3-1.4-3.7-3.8-3.7c-3.7,0-5.5,2.5-5.5,5.8v10.5h-3.1V600.6z"/>
		<path class="st13" d="M1000.8,626.3c-0.5,0.3-1.3,0.5-2.2,0.5c-1.6,0-2.6-0.9-2.6-2.9c-1.7,2-4,2.9-6.6,2.9
			c-3.4,0-6.2-1.5-6.2-5.2c0-4.2,3.1-5.1,6.3-5.7c3.3-0.7,6.3-0.4,6.3-2.7c0-2.7-2.2-3.1-4.1-3.1c-2.6,0-4.5,0.8-4.6,3.5h-3.1
			c0.2-4.6,3.7-6.2,7.9-6.2c3.3,0,7,0.8,7,5.1v9.6c0,1.4,0,2.1,1,2.1c0.3,0,0.6-0.1,0.9-0.2V626.3z M995.9,616.7
			c-2.4,1.8-9.3,0-9.3,4.6c0,2,1.7,2.7,3.6,2.7c4,0,5.7-2.5,5.7-4.2V616.7z"/>
		<path class="st13" d="M1007.9,607.7h3.7v2.7h-3.7V622c0,1.4,0.4,1.7,2.3,1.7h1.4v2.7h-2.3c-3.2,0-4.4-0.6-4.4-4.1v-11.8h-3.2v-2.7
			h3.2v-5.6h3.1V607.7z"/>
		<path class="st13" d="M1026.9,620.5c0.1,2.7,2.5,3.6,5,3.6c1.9,0,4.5-0.4,4.5-2.8c0-4.8-12.2-1.5-12.2-8.7c0-3.7,3.7-5.3,6.9-5.3
			c4.2,0,7.3,1.3,7.6,5.8h-3.1c-0.2-2.4-2.3-3.1-4.3-3.1c-1.8,0-4,0.5-4,2.4c0,2.2,3.2,2.6,6.1,3.2c3.1,0.7,6.1,1.7,6.1,5.3
			c0,4.5-4.1,5.9-7.9,5.9c-4.2,0-7.7-1.7-7.9-6.3H1026.9z"/>
		<path class="st13" d="M1043.2,607.7h3.1v2.5h0.1c1-2.1,3.3-3,5.9-3c5.7,0,8.6,4.5,8.6,9.8c0,5.3-2.8,9.7-8.5,9.7
			c-1.9,0-4.7-0.7-6-2.9h-0.1v9.6h-3.1V607.7z M1051.8,610c-4.1,0-5.7,3.6-5.7,7c0,3.6,1.7,7.1,5.9,7.1c4.2,0,5.6-3.6,5.6-7.2
			C1057.5,613.4,1055.7,610,1051.8,610z"/>
		<path class="st13" d="M1080.3,620.4c-0.8,4.1-3.7,6.3-8,6.3c-5.9,0-8.7-4.1-8.9-9.8c0-5.6,3.7-9.7,8.7-9.7c6.6,0,8.6,6.2,8.4,10.7
			h-13.9c-0.1,3.2,1.7,6.1,5.8,6.1c2.6,0,4.3-1.2,4.8-3.6H1080.3z M1077.3,615.3c-0.2-2.9-2.3-5.3-5.4-5.3c-3.2,0-5.1,2.4-5.3,5.3
			H1077.3z"/>
		<path class="st13" d="M1096.4,613.7c-0.5-2.3-2.1-3.7-4.6-3.7c-4.4,0-5.8,3.5-5.8,7.3c0,3.5,1.5,6.8,5.4,6.8c3,0,4.7-1.7,5.1-4.5
			h3.1c-0.7,4.6-3.5,7.2-8.2,7.2c-5.7,0-8.7-3.9-8.7-9.5s2.9-10,8.8-10c4.2,0,7.6,2,8,6.4H1096.4z"/>
		<path class="st13" d="M1106.3,604.4h-3.1v-3.7h3.1V604.4z M1103.2,607.7h3.1v18.6h-3.1V607.7z"/>
		<path class="st13" d="M1112.3,610.4h-3.1v-2.7h3.1V605c0-3,1.8-4.6,5.1-4.6c0.6,0,1.4,0.1,2,0.3v2.7c-0.5-0.2-1.2-0.3-1.7-0.3
			c-1.5,0-2.3,0.5-2.3,2.1v2.6h3.6v2.7h-3.6v15.9h-3.1V610.4z M1121.9,604.4v-3.7h3.1v3.7H1121.9z M1121.9,626.3v-18.6h3.1v18.6
			H1121.9z"/>
		<path class="st13" d="M1142.3,613.7c-0.5-2.3-2.1-3.7-4.6-3.7c-4.4,0-5.8,3.5-5.8,7.3c0,3.5,1.5,6.8,5.4,6.8c3,0,4.7-1.7,5.1-4.5
			h3.1c-0.7,4.6-3.5,7.2-8.2,7.2c-5.7,0-8.7-3.9-8.7-9.5s2.9-10,8.8-10c4.2,0,7.6,2,8,6.4H1142.3z"/>
		<path class="st13" d="M1165.5,626.3c-0.5,0.3-1.3,0.5-2.2,0.5c-1.6,0-2.6-0.9-2.6-2.9c-1.7,2-4,2.9-6.6,2.9
			c-3.4,0-6.2-1.5-6.2-5.2c0-4.2,3.1-5.1,6.3-5.7c3.3-0.7,6.3-0.4,6.3-2.7c0-2.7-2.2-3.1-4.1-3.1c-2.6,0-4.5,0.8-4.6,3.5h-3.1
			c0.2-4.6,3.7-6.2,7.9-6.2c3.3,0,7,0.8,7,5.1v9.6c0,1.4,0,2.1,1,2.1c0.3,0,0.6-0.1,0.9-0.2V626.3z M1160.5,616.7
			c-2.4,1.8-9.3,0-9.3,4.6c0,2,1.7,2.7,3.6,2.7c4,0,5.7-2.5,5.7-4.2V616.7z"/>
		<path class="st13" d="M1172.6,607.7h3.7v2.7h-3.7V622c0,1.4,0.4,1.7,2.3,1.7h1.4v2.7h-2.3c-3.2,0-4.4-0.6-4.4-4.1v-11.8h-3.2v-2.7
			h3.2v-5.6h3.1V607.7z"/>
		<path class="st13" d="M1182.9,604.4h-3.1v-3.7h3.1V604.4z M1179.9,607.7h3.1v18.6h-3.1V607.7z"/>
		<path class="st13" d="M1195.7,607.3c5.9,0,9,4.3,9,9.8c0,5.4-3.1,9.7-9,9.7s-9-4.3-9-9.7C1186.7,611.6,1189.8,607.3,1195.7,607.3z
			 M1195.7,624.1c3.2,0,5.8-2.5,5.8-7s-2.6-7.1-5.8-7.1c-3.2,0-5.8,2.6-5.8,7.1S1192.5,624.1,1195.7,624.1z"/>
		<path class="st13" d="M1208.4,607.7h2.9v3h0.1c1.3-2.3,3.3-3.4,6-3.4c4.9,0,6.4,2.8,6.4,6.8v12.2h-3.1v-12.6
			c0-2.3-1.4-3.7-3.8-3.7c-3.7,0-5.5,2.5-5.5,5.8v10.5h-3.1V607.7z"/>
		<path class="st13" d="M1230.2,620.5c0.1,2.7,2.5,3.6,5,3.6c1.9,0,4.5-0.4,4.5-2.8c0-4.8-12.2-1.5-12.2-8.7c0-3.7,3.7-5.3,6.9-5.3
			c4.2,0,7.3,1.3,7.6,5.8h-3.1c-0.2-2.4-2.3-3.1-4.3-3.1c-1.8,0-4,0.5-4,2.4c0,2.2,3.2,2.6,6.1,3.2c3.1,0.7,6.1,1.7,6.1,5.3
			c0,4.5-4.1,5.9-7.9,5.9c-4.2,0-7.7-1.7-7.9-6.3H1230.2z"/>
		<path class="st13" d="M1261.4,633.5c-3.5-5.4-5.7-10.5-5.7-16.8c0-5.7,1.9-11.7,5.7-16.6h2.3c-3.5,5.4-4.8,10.7-4.8,16.6
			c0,6,1.3,11.3,4.8,16.8H1261.4z"/>
		<path class="st13" d="M1267.6,620.5c0.1,2.7,2.5,3.6,5,3.6c1.9,0,4.5-0.4,4.5-2.8c0-4.8-12.2-1.5-12.2-8.7c0-3.7,3.7-5.3,6.9-5.3
			c4.2,0,7.3,1.3,7.6,5.8h-3.1c-0.2-2.4-2.3-3.1-4.3-3.1c-1.8,0-4,0.5-4,2.4c0,2.2,3.2,2.6,6.1,3.2c3.1,0.7,6.1,1.7,6.1,5.3
			c0,4.5-4.1,5.9-7.9,5.9c-4.2,0-7.7-1.7-7.9-6.3H1267.6z"/>
		<path class="st13" d="M1283.8,607.7h3.1v2.5h0.1c1-2.1,3.3-3,5.9-3c5.7,0,8.6,4.5,8.6,9.8c0,5.3-2.8,9.7-8.5,9.7
			c-1.9,0-4.7-0.7-6-2.9h-0.1v9.6h-3.1V607.7z M1292.4,610c-4.1,0-5.7,3.6-5.7,7c0,3.6,1.7,7.1,5.9,7.1c4.2,0,5.6-3.6,5.6-7.2
			C1298.2,613.4,1296.4,610,1292.4,610z"/>
		<path class="st13" d="M1320.9,620.4c-0.8,4.1-3.7,6.3-8,6.3c-5.9,0-8.7-4.1-8.9-9.8c0-5.6,3.7-9.7,8.7-9.7c6.6,0,8.6,6.2,8.4,10.7
			h-13.9c-0.1,3.2,1.7,6.1,5.8,6.1c2.6,0,4.3-1.2,4.8-3.6H1320.9z M1318,615.3c-0.2-2.9-2.3-5.3-5.4-5.3c-3.2,0-5.1,2.4-5.3,5.3
			H1318z"/>
		<path class="st13" d="M1337,613.7c-0.5-2.3-2.1-3.7-4.6-3.7c-4.4,0-5.8,3.5-5.8,7.3c0,3.5,1.5,6.8,5.4,6.8c3,0,4.7-1.7,5.1-4.5
			h3.1c-0.7,4.6-3.5,7.2-8.2,7.2c-5.7,0-8.7-3.9-8.7-9.5s2.9-10,8.8-10c4.2,0,7.6,2,8,6.4H1337z"/>
		<path class="st13" d="M1347,604.4h-3.1v-3.7h3.1V604.4z M1343.9,607.7h3.1v18.6h-3.1V607.7z"/>
		<path class="st13" d="M1353,610.4h-3.1v-2.7h3.1V605c0-3,1.8-4.6,5.1-4.6c0.6,0,1.4,0.1,2,0.3v2.7c-0.5-0.2-1.2-0.3-1.7-0.3
			c-1.5,0-2.3,0.5-2.3,2.1v2.6h3.6v2.7h-3.6v15.9h-3.1V610.4z M1362.5,604.4v-3.7h3.1v3.7H1362.5z M1362.5,626.3v-18.6h3.1v18.6
			H1362.5z"/>
		<path class="st13" d="M1386.2,620.4c-0.8,4.1-3.7,6.3-8,6.3c-5.9,0-8.7-4.1-8.9-9.8c0-5.6,3.7-9.7,8.7-9.7c6.6,0,8.6,6.2,8.4,10.7
			h-13.9c-0.1,3.2,1.7,6.1,5.8,6.1c2.6,0,4.3-1.2,4.8-3.6H1386.2z M1383.3,615.3c-0.2-2.9-2.3-5.3-5.4-5.3c-3.2,0-5.1,2.4-5.3,5.3
			H1383.3z"/>
		<path class="st13" d="M1406.3,626.3h-3.1v-2.5h-0.1c-1,2.1-3.3,3-5.9,3c-5.7,0-8.6-4.5-8.6-9.8c0-5.3,2.8-9.7,8.5-9.7
			c1.9,0,4.7,0.7,6,2.9h0.1v-9.6h3.1V626.3z M1397.7,624.1c4.1,0,5.7-3.6,5.7-7c0-3.6-1.7-7.1-5.9-7.1c-4.2,0-5.6,3.6-5.6,7.2
			C1391.9,620.7,1393.7,624.1,1397.7,624.1z"/>
		<path class="st13" d="M642.9,650.9h2.9v3.9h0.1c1.5-3,3.5-4.5,6.8-4.4v3.2c-4.9,0-6.7,2.8-6.7,7.5v8.3h-3.1V650.9z"/>
		<path class="st13" d="M670.8,663.6c-0.8,4.1-3.7,6.3-8,6.3c-5.9,0-8.7-4.1-8.9-9.8c0-5.6,3.7-9.7,8.7-9.7c6.6,0,8.6,6.2,8.4,10.7
			h-13.9c-0.1,3.2,1.7,6.1,5.8,6.1c2.6,0,4.3-1.2,4.8-3.6H670.8z M667.9,658.5c-0.2-2.9-2.3-5.3-5.4-5.3c-3.2,0-5.1,2.4-5.3,5.3
			H667.9z"/>
		<path class="st13" d="M690.9,676.7h-3.1V667h-0.1c-1,2.1-3.3,3-5.9,3c-5.7,0-8.6-4.5-8.6-9.8c0-5.3,2.8-9.7,8.5-9.7
			c1.9,0,4.7,0.7,6,2.9h0.1v-2.5h3.1V676.7z M682.3,667.3c4.1,0,5.7-3.6,5.7-7c0-3.6-1.7-7.1-5.9-7.1c-4.2,0-5.6,3.6-5.6,7.2
			C676.5,663.9,678.3,667.3,682.3,667.3z"/>
		<path class="st13" d="M711.1,669.5h-2.9v-3h-0.1c-1.3,2.3-3.3,3.4-6,3.4c-4.9,0-6.4-2.8-6.4-6.8v-12.2h3.1v12.6
			c0,2.3,1.4,3.7,3.8,3.7c3.7,0,5.5-2.5,5.5-5.8v-10.5h3.1V669.5z"/>
		<path class="st13" d="M718.9,647.6h-3.1v-3.7h3.1V647.6z M715.8,650.9h3.1v18.6h-3.1V650.9z"/>
		<path class="st13" d="M723.5,650.9h2.9v3.9h0.1c1.5-3,3.5-4.5,6.8-4.4v3.2c-4.9,0-6.7,2.8-6.7,7.5v8.3h-3.1V650.9z"/>
		<path class="st13" d="M751.5,663.6c-0.8,4.1-3.7,6.3-8,6.3c-5.9,0-8.7-4.1-8.9-9.8c0-5.6,3.7-9.7,8.7-9.7c6.6,0,8.6,6.2,8.4,10.7
			h-13.9c-0.1,3.2,1.7,6.1,5.8,6.1c2.6,0,4.3-1.2,4.8-3.6H751.5z M748.6,658.5c-0.2-2.9-2.3-5.3-5.4-5.3c-3.2,0-5.1,2.4-5.3,5.3
			H748.6z"/>
		<path class="st13" d="M755,650.9h2.9v2.7h0.1c1.4-2.1,3.4-3.2,6-3.2c2.3,0,4.4,0.9,5.1,3.2c1.3-2,3.4-3.2,5.8-3.2
			c3.7,0,6.2,1.5,6.2,5.4v13.6H778v-12.2c0-2.3-0.6-4.1-3.6-4.1s-4.9,1.9-4.9,4.8v11.6h-3.1v-12.2c0-2.4-0.8-4.1-3.5-4.1
			c-3.6,0-5,3.3-5,4.8v11.6H755V650.9z"/>
		<path class="st13" d="M801.6,663.6c-0.8,4.1-3.7,6.3-8,6.3c-5.9,0-8.7-4.1-8.9-9.8c0-5.6,3.7-9.7,8.7-9.7c6.6,0,8.6,6.2,8.4,10.7
			h-13.9c-0.1,3.2,1.7,6.1,5.8,6.1c2.6,0,4.3-1.2,4.8-3.6H801.6z M798.6,658.5c-0.2-2.9-2.3-5.3-5.4-5.3c-3.2,0-5.1,2.4-5.3,5.3
			H798.6z"/>
		<path class="st13" d="M805,650.9h2.9v3h0.1c1.3-2.3,3.3-3.4,6-3.4c4.9,0,6.4,2.8,6.4,6.8v12.2h-3.1v-12.6c0-2.3-1.4-3.7-3.8-3.7
			c-3.7,0-5.5,2.5-5.5,5.8v10.5H805V650.9z"/>
		<path class="st13" d="M829.3,650.9h3.7v2.7h-3.7v11.6c0,1.4,0.4,1.7,2.3,1.7h1.4v2.7h-2.3c-3.2,0-4.4-0.6-4.4-4.1v-11.8H823v-2.7
			h3.2v-5.6h3.1V650.9z"/>
		<path class="st13" d="M838.2,663.7c0.1,2.7,2.5,3.6,5,3.6c1.9,0,4.5-0.4,4.5-2.8c0-4.8-12.2-1.5-12.2-8.7c0-3.7,3.7-5.3,6.9-5.3
			c4.2,0,7.3,1.3,7.6,5.8h-3.1c-0.2-2.4-2.3-3.1-4.3-3.1c-1.8,0-4,0.5-4,2.4c0,2.2,3.2,2.6,6.1,3.2c3.1,0.7,6.1,1.7,6.1,5.3
			c0,4.5-4.1,5.9-7.9,5.9c-4.2,0-7.7-1.7-7.9-6.3H838.2z"/>
		<path class="st13" d="M851.7,676.7c3.5-5.4,4.8-10.7,4.8-16.6c0-6-1.3-11.3-4.8-16.8h2.3c3.5,5.4,5.7,10.5,5.7,16.8
			c0,5.7-1.9,11.7-5.7,16.6H851.7z"/>
		<path class="st13" d="M886.3,656.9c-0.5-2.3-2.1-3.7-4.6-3.7c-4.4,0-5.8,3.5-5.8,7.3c0,3.5,1.5,6.8,5.4,6.8c3,0,4.7-1.7,5.1-4.5
			h3.1c-0.7,4.6-3.5,7.2-8.2,7.2c-5.7,0-8.7-3.9-8.7-9.5c0-5.6,2.9-10,8.8-10c4.2,0,7.6,2,8,6.4H886.3z"/>
		<path class="st13" d="M901.1,650.5c5.9,0,9,4.3,9,9.8c0,5.4-3.1,9.7-9,9.7s-9-4.3-9-9.7C892,654.8,895.2,650.5,901.1,650.5z
			 M901.1,667.3c3.2,0,5.8-2.5,5.8-7c0-4.5-2.6-7.1-5.8-7.1c-3.2,0-5.8,2.6-5.8,7.1C895.3,664.8,897.9,667.3,901.1,667.3z"/>
		<path class="st13" d="M913.7,650.9h2.9v3h0.1c1.3-2.3,3.3-3.4,6-3.4c4.9,0,6.4,2.8,6.4,6.8v12.2H926v-12.6c0-2.3-1.4-3.7-3.8-3.7
			c-3.7,0-5.5,2.5-5.5,5.8v10.5h-3.1V650.9z"/>
		<path class="st13" d="M935,653.6h-3.1v-2.7h3.1v-2.8c0-3,1.8-4.6,5.1-4.6c0.6,0,1.4,0.1,2,0.3v2.7c-0.5-0.2-1.2-0.3-1.7-0.3
			c-1.5,0-2.3,0.5-2.3,2.1v2.6h3.6v2.7H938v15.9H935V653.6z"/>
		<path class="st13" d="M952.4,650.5c5.9,0,9,4.3,9,9.8c0,5.4-3.1,9.7-9,9.7s-9-4.3-9-9.7C943.4,654.8,946.5,650.5,952.4,650.5z
			 M952.4,667.3c3.2,0,5.8-2.5,5.8-7c0-4.5-2.6-7.1-5.8-7.1c-3.2,0-5.8,2.6-5.8,7.1C946.6,664.8,949.2,667.3,952.4,667.3z"/>
		<path class="st13" d="M964.9,650.9h2.9v3.9h0.1c1.5-3,3.5-4.5,6.8-4.4v3.2c-4.9,0-6.7,2.8-6.7,7.5v8.3h-3.1V650.9z"/>
		<path class="st13" d="M977,650.9h2.9v2.7h0.1c1.4-2.1,3.4-3.2,6-3.2c2.3,0,4.4,0.9,5.1,3.2c1.3-2,3.4-3.2,5.8-3.2
			c3.7,0,6.2,1.5,6.2,5.4v13.6h-3.1v-12.2c0-2.3-0.6-4.1-3.6-4.1s-4.9,1.9-4.9,4.8v11.6h-3.1v-12.2c0-2.4-0.8-4.1-3.5-4.1
			c-3.6,0-5,3.3-5,4.8v11.6H977V650.9z"/>
		<path class="st13" d="M1036.2,669.5h-3.2l-3.8-14.8h-0.1l-3.7,14.8h-3.3l-6-18.6h3.4l4.2,15.2h0.1l3.7-15.2h3.3l3.9,15.2h0.1
			l4.2-15.2h3.2L1036.2,669.5z"/>
		<path class="st13" d="M1048.3,647.6h-3.1v-3.7h3.1V647.6z M1045.2,650.9h3.1v18.6h-3.1V650.9z"/>
		<path class="st13" d="M1057.3,650.9h3.7v2.7h-3.7v11.6c0,1.4,0.4,1.7,2.3,1.7h1.4v2.7h-2.3c-3.2,0-4.4-0.6-4.4-4.1v-11.8h-3.2
			v-2.7h3.2v-5.6h3.1V650.9z"/>
		<path class="st13" d="M1064.4,643.8h3.1v9.8h0.1c1-2.3,3.7-3.2,5.9-3.2c4.9,0,6.4,2.8,6.4,6.8v12.2h-3.1v-12.6
			c0-2.3-1.4-3.7-3.8-3.7c-3.7,0-5.5,2.5-5.5,5.8v10.5h-3.1V643.8z"/>
		<path class="st13" d="M1109.8,669.5h-2.9v-3h-0.1c-1.3,2.3-3.3,3.4-6,3.4c-4.9,0-6.4-2.8-6.4-6.8v-12.2h3.1v12.6
			c0,2.3,1.4,3.7,3.8,3.7c3.7,0,5.5-2.5,5.5-5.8v-10.5h3.1V669.5z"/>
		<path class="st13" d="M1116.3,663.7c0.1,2.7,2.5,3.6,5,3.6c1.9,0,4.5-0.4,4.5-2.8c0-4.8-12.2-1.5-12.2-8.7c0-3.7,3.7-5.3,6.9-5.3
			c4.2,0,7.3,1.3,7.6,5.8h-3.1c-0.2-2.4-2.3-3.1-4.3-3.1c-1.8,0-4,0.5-4,2.4c0,2.2,3.2,2.6,6.1,3.2c3.1,0.7,6.1,1.7,6.1,5.3
			c0,4.5-4.1,5.9-7.9,5.9c-4.2,0-7.7-1.7-7.9-6.3H1116.3z"/>
		<path class="st13" d="M1148.3,663.6c-0.8,4.1-3.7,6.3-8,6.3c-5.9,0-8.7-4.1-8.9-9.8c0-5.6,3.7-9.7,8.7-9.7c6.6,0,8.6,6.2,8.4,10.7
			h-13.9c-0.1,3.2,1.7,6.1,5.8,6.1c2.6,0,4.3-1.2,4.8-3.6H1148.3z M1145.3,658.5c-0.2-2.9-2.3-5.3-5.4-5.3c-3.2,0-5.1,2.4-5.3,5.3
			H1145.3z"/>
		<path class="st13" d="M1151.6,650.9h2.9v3.9h0.1c1.5-3,3.5-4.5,6.8-4.4v3.2c-4.9,0-6.7,2.8-6.7,7.5v8.3h-3.1V650.9z"/>
		<path class="st13" d="M1173.7,650.9h2.9v3h0.1c1.3-2.3,3.3-3.4,6-3.4c4.9,0,6.4,2.8,6.4,6.8v12.2h-3.1v-12.6
			c0-2.3-1.4-3.7-3.8-3.7c-3.7,0-5.5,2.5-5.5,5.8v10.5h-3.1V650.9z"/>
		<path class="st13" d="M1209.6,663.6c-0.8,4.1-3.7,6.3-8,6.3c-5.9,0-8.7-4.1-8.9-9.8c0-5.6,3.7-9.7,8.7-9.7c6.6,0,8.6,6.2,8.4,10.7
			H1196c-0.1,3.2,1.7,6.1,5.8,6.1c2.6,0,4.3-1.2,4.8-3.6H1209.6z M1206.7,658.5c-0.2-2.9-2.3-5.3-5.4-5.3c-3.2,0-5.1,2.4-5.3,5.3
			H1206.7z"/>
		<path class="st13" d="M1228.9,663.6c-0.8,4.1-3.7,6.3-8,6.3c-5.9,0-8.7-4.1-8.9-9.8c0-5.6,3.7-9.7,8.7-9.7c6.6,0,8.6,6.2,8.4,10.7
			h-13.9c-0.1,3.2,1.7,6.1,5.8,6.1c2.6,0,4.3-1.2,4.8-3.6H1228.9z M1226,658.5c-0.2-2.9-2.3-5.3-5.4-5.3c-3.2,0-5.1,2.4-5.3,5.3
			H1226z"/>
		<path class="st13" d="M1249,669.5h-3.1V667h-0.1c-1,2.1-3.3,3-5.9,3c-5.7,0-8.6-4.5-8.6-9.8c0-5.3,2.8-9.7,8.5-9.7
			c1.9,0,4.7,0.7,6,2.9h0.1v-9.6h3.1V669.5z M1240.4,667.3c4.1,0,5.7-3.6,5.7-7c0-3.6-1.7-7.1-5.9-7.1c-4.2,0-5.6,3.6-5.6,7.2
			C1234.6,663.9,1236.4,667.3,1240.4,667.3z"/>
		<path class="st13" d="M1255.6,663.7c0.1,2.7,2.5,3.6,5,3.6c1.9,0,4.5-0.4,4.5-2.8c0-4.8-12.2-1.5-12.2-8.7c0-3.7,3.7-5.3,6.9-5.3
			c4.2,0,7.3,1.3,7.6,5.8h-3.1c-0.2-2.4-2.3-3.1-4.3-3.1c-1.8,0-4,0.5-4,2.4c0,2.2,3.2,2.6,6.1,3.2c3.1,0.7,6.1,1.7,6.1,5.3
			c0,4.5-4.1,5.9-7.9,5.9c-4.2,0-7.7-1.7-7.9-6.3H1255.6z"/>
		<path class="st13" d="M1298.2,669.5c-0.5,0.3-1.3,0.5-2.2,0.5c-1.6,0-2.6-0.9-2.6-2.9c-1.7,2-4,2.9-6.6,2.9
			c-3.4,0-6.2-1.5-6.2-5.2c0-4.2,3.1-5.1,6.3-5.7c3.3-0.7,6.3-0.4,6.3-2.7c0-2.7-2.2-3.1-4.1-3.1c-2.6,0-4.5,0.8-4.6,3.5h-3.1
			c0.2-4.6,3.7-6.2,7.9-6.2c3.3,0,7,0.8,7,5.1v9.6c0,1.4,0,2.1,1,2.1c0.3,0,0.6-0.1,0.9-0.2V669.5z M1293.3,659.9
			c-2.4,1.8-9.3,0-9.3,4.6c0,2,1.7,2.7,3.6,2.7c4,0,5.7-2.5,5.7-4.2V659.9z"/>
		<path class="st13" d="M1301.1,650.9h2.9v3h0.1c1.3-2.3,3.3-3.4,6-3.4c4.9,0,6.4,2.8,6.4,6.8v12.2h-3.1v-12.6
			c0-2.3-1.4-3.7-3.8-3.7c-3.7,0-5.5,2.5-5.5,5.8v10.5h-3.1V650.9z"/>
		<path class="st13" d="M1337.7,669.5h-3.1V667h-0.1c-1,2.1-3.3,3-5.9,3c-5.7,0-8.6-4.5-8.6-9.8c0-5.3,2.8-9.7,8.5-9.7
			c1.9,0,4.7,0.7,6,2.9h0.1v-9.6h3.1V669.5z M1329.1,667.3c4.1,0,5.7-3.6,5.7-7c0-3.6-1.7-7.1-5.9-7.1c-4.2,0-5.6,3.6-5.6,7.2
			C1323.3,663.9,1325.1,667.3,1329.1,667.3z"/>
		<path class="st13" d="M646.2,690.8h-3.1V687h3.1V690.8z M643.2,694.1h3.1v18.6h-3.1V694.1z"/>
		<path class="st13" d="M651,694.1h2.9v3h0.1c1.3-2.3,3.3-3.4,6-3.4c4.9,0,6.4,2.8,6.4,6.8v12.2h-3.1v-12.6c0-2.3-1.4-3.7-3.8-3.7
			c-3.7,0-5.5,2.5-5.5,5.8v10.5H651V694.1z"/>
		<path class="st13" d="M675.2,694.1h3.7v2.7h-3.7v11.6c0,1.4,0.4,1.7,2.3,1.7h1.4v2.7h-2.3c-3.2,0-4.4-0.6-4.4-4.1v-11.8H669v-2.7
			h3.2v-5.6h3.1V694.1z"/>
		<path class="st13" d="M698.2,706.8c-0.8,4.1-3.7,6.3-8,6.3c-5.9,0-8.7-4.1-8.9-9.8c0-5.6,3.7-9.7,8.7-9.7c6.6,0,8.6,6.2,8.4,10.7
			h-13.9c-0.1,3.2,1.7,6.1,5.8,6.1c2.6,0,4.3-1.2,4.8-3.6H698.2z M695.3,701.7c-0.2-2.9-2.3-5.3-5.4-5.3c-3.2,0-5.1,2.4-5.3,5.3
			H695.3z"/>
		<path class="st13" d="M701.7,694.1h2.9v3h0.1c1.3-2.3,3.3-3.4,6-3.4c4.9,0,6.4,2.8,6.4,6.8v12.2H714v-12.6c0-2.3-1.4-3.7-3.8-3.7
			c-3.7,0-5.5,2.5-5.5,5.8v10.5h-3.1V694.1z"/>
		<path class="st13" d="M738.3,712.7h-3.1v-2.5h-0.1c-1,2.1-3.3,3-5.9,3c-5.7,0-8.6-4.5-8.6-9.8c0-5.3,2.8-9.7,8.5-9.7
			c1.9,0,4.7,0.7,6,2.9h0.1V687h3.1V712.7z M729.7,710.5c4.1,0,5.7-3.6,5.7-7c0-3.6-1.7-7.1-5.9-7.1c-4.2,0-5.6,3.6-5.6,7.2
			C723.9,707.1,725.7,710.5,729.7,710.5z"/>
		<path class="st13" d="M758.9,706.8c-0.8,4.1-3.7,6.3-8,6.3c-5.9,0-8.7-4.1-8.9-9.8c0-5.6,3.7-9.7,8.7-9.7c6.6,0,8.6,6.2,8.4,10.7
			h-13.9c-0.1,3.2,1.7,6.1,5.8,6.1c2.6,0,4.3-1.2,4.8-3.6H758.9z M755.9,701.7c-0.2-2.9-2.3-5.3-5.4-5.3c-3.2,0-5.1,2.4-5.3,5.3
			H755.9z"/>
		<path class="st13" d="M779,712.7h-3.1v-2.5h-0.1c-1,2.1-3.3,3-5.9,3c-5.7,0-8.6-4.5-8.6-9.8c0-5.3,2.8-9.7,8.5-9.7
			c1.9,0,4.7,0.7,6,2.9h0.1V687h3.1V712.7z M770.3,710.5c4.1,0,5.7-3.6,5.7-7c0-3.6-1.7-7.1-5.9-7.1c-4.2,0-5.6,3.6-5.6,7.2
			C764.6,707.1,766.4,710.5,770.3,710.5z"/>
		<path class="st13" d="M809.1,712.7h-2.9v-3h-0.1c-1.3,2.3-3.3,3.4-6,3.4c-4.9,0-6.4-2.8-6.4-6.8v-12.2h3.1v12.6
			c0,2.3,1.4,3.7,3.8,3.7c3.7,0,5.5-2.5,5.5-5.8v-10.5h3.1V712.7z"/>
		<path class="st13" d="M815.6,706.9c0.1,2.7,2.5,3.6,5,3.6c1.9,0,4.5-0.4,4.5-2.8c0-4.8-12.2-1.5-12.2-8.7c0-3.7,3.7-5.3,6.9-5.3
			c4.2,0,7.3,1.3,7.6,5.8h-3.1c-0.2-2.4-2.3-3.1-4.3-3.1c-1.8,0-4,0.5-4,2.4c0,2.2,3.2,2.6,6.1,3.2c3.1,0.7,6.1,1.7,6.1,5.3
			c0,4.5-4.1,5.9-7.9,5.9c-4.2,0-7.7-1.7-7.9-6.3H815.6z"/>
		<path class="st13" d="M847.6,706.8c-0.8,4.1-3.7,6.3-8,6.3c-5.9,0-8.7-4.1-8.9-9.8c0-5.6,3.7-9.7,8.7-9.7c6.6,0,8.6,6.2,8.4,10.7
			H834c-0.1,3.2,1.7,6.1,5.8,6.1c2.6,0,4.3-1.2,4.8-3.6H847.6z M844.6,701.7c-0.2-2.9-2.3-5.3-5.4-5.3c-3.2,0-5.1,2.4-5.3,5.3H844.6
			z"/>
		<path class="st13" d="M856.1,719.9c-3.5-5.4-5.7-10.5-5.7-16.8c0-5.7,1.9-11.7,5.7-16.6h2.3c-3.5,5.4-4.8,10.7-4.8,16.6
			c0,6,1.3,11.3,4.8,16.8H856.1z"/>
		<path class="st13" d="M862.3,706.9c0.1,2.7,2.5,3.6,5,3.6c1.9,0,4.5-0.4,4.5-2.8c0-4.8-12.2-1.5-12.2-8.7c0-3.7,3.7-5.3,6.9-5.3
			c4.2,0,7.3,1.3,7.6,5.8h-3.1c-0.2-2.4-2.3-3.1-4.3-3.1c-1.8,0-4,0.5-4,2.4c0,2.2,3.2,2.6,6.1,3.2c3.1,0.7,6.1,1.7,6.1,5.3
			c0,4.5-4.1,5.9-7.9,5.9c-4.2,0-7.7-1.7-7.9-6.3H862.3z"/>
		<path class="st13" d="M875.7,719.9c3.5-5.4,4.8-10.7,4.8-16.6c0-6-1.3-11.3-4.8-16.8h2.3c3.5,5.4,5.7,10.5,5.7,16.8
			c0,5.7-1.9,11.7-5.7,16.6H875.7z"/>
		<path class="st13" d="M614.7,751.7c3.6,0,6.4,2.8,6.4,6.4s-2.9,6.4-6.4,6.4s-6.4-2.9-6.4-6.4S611.1,751.7,614.7,751.7z"/>
		<path class="st13" d="M646.6,745.2h3.4v25.7h-3.4V745.2z"/>
		<path class="st13" d="M655.3,752.3h2.9v3h0.1c1.3-2.3,3.3-3.4,6-3.4c4.9,0,6.4,2.8,6.4,6.8v12.2h-3.1v-12.6c0-2.3-1.4-3.7-3.8-3.7
			c-3.7,0-5.5,2.5-5.5,5.8v10.5h-3.1V752.3z"/>
		<path class="st13" d="M688,758.3c-0.5-2.3-2.1-3.7-4.6-3.7c-4.4,0-5.8,3.5-5.8,7.3c0,3.5,1.5,6.8,5.4,6.8c3,0,4.7-1.7,5.1-4.5h3.1
			c-0.7,4.6-3.5,7.2-8.2,7.2c-5.7,0-8.7-3.9-8.7-9.5c0-5.6,2.9-10,8.8-10c4.2,0,7.6,2,8,6.4H688z"/>
		<path class="st13" d="M694.8,745.2h3.1v25.7h-3.1V745.2z"/>
		<path class="st13" d="M718.1,770.9h-2.9v-3h-0.1c-1.3,2.3-3.3,3.4-6,3.4c-4.9,0-6.4-2.8-6.4-6.8v-12.2h3.1v12.6
			c0,2.3,1.4,3.7,3.8,3.7c3.7,0,5.5-2.5,5.5-5.8v-10.5h3.1V770.9z"/>
		<path class="st13" d="M739.3,770.9h-3.1v-2.5h-0.1c-1,2.1-3.3,3-5.9,3c-5.7,0-8.6-4.5-8.6-9.8c0-5.3,2.8-9.7,8.5-9.7
			c1.9,0,4.7,0.7,6,2.9h0.1v-9.6h3.1V770.9z M730.7,768.7c4.1,0,5.7-3.6,5.7-7c0-3.6-1.7-7.1-5.9-7.1c-4.2,0-5.6,3.6-5.6,7.2
			C724.9,765.3,726.7,768.7,730.7,768.7z"/>
		<path class="st13" d="M759.9,765c-0.8,4.1-3.7,6.3-8,6.3c-5.9,0-8.7-4.1-8.9-9.8c0-5.6,3.7-9.7,8.7-9.7c6.6,0,8.6,6.2,8.4,10.7
			h-13.9c-0.1,3.2,1.7,6.1,5.8,6.1c2.6,0,4.3-1.2,4.8-3.6H759.9z M756.9,759.9c-0.2-2.9-2.3-5.3-5.4-5.3c-3.2,0-5.1,2.4-5.3,5.3
			H756.9z"/>
		<path class="st13" d="M765.2,765.1c0.1,2.7,2.5,3.6,5,3.6c1.9,0,4.5-0.4,4.5-2.8c0-4.8-12.2-1.5-12.2-8.7c0-3.7,3.7-5.3,6.9-5.3
			c4.2,0,7.3,1.3,7.6,5.8h-3.1c-0.2-2.4-2.3-3.1-4.3-3.1c-1.8,0-4,0.5-4,2.4c0,2.2,3.2,2.6,6.1,3.2c3.1,0.7,6.1,1.7,6.1,5.3
			c0,4.5-4.1,5.9-7.9,5.9c-4.2,0-7.7-1.7-7.9-6.3H765.2z"/>
		<path class="st13" d="M791.3,752.3h2.9v3.9h0.1c1.5-3,3.5-4.5,6.8-4.4v3.2c-4.9,0-6.7,2.8-6.7,7.5v8.3h-3.1V752.3z"/>
		<path class="st13" d="M806.6,749h-3.1v-3.7h3.1V749z M803.5,752.3h3.1v18.6h-3.1V752.3z"/>
		<path class="st13" d="M813.2,765.1c0.1,2.7,2.5,3.6,5,3.6c1.9,0,4.5-0.4,4.5-2.8c0-4.8-12.2-1.5-12.2-8.7c0-3.7,3.7-5.3,6.9-5.3
			c4.2,0,7.3,1.3,7.6,5.8h-3.1c-0.2-2.4-2.3-3.1-4.3-3.1c-1.8,0-4,0.5-4,2.4c0,2.2,3.2,2.6,6.1,3.2c3.1,0.7,6.1,1.7,6.1,5.3
			c0,4.5-4.1,5.9-7.9,5.9c-4.2,0-7.7-1.7-7.9-6.3H813.2z"/>
		<path class="st13" d="M829.5,745.2h3.1v15.2l8.5-8.1h4.1l-7.4,6.8l7.9,11.8h-3.9l-6.4-9.7l-2.9,2.7v7.1h-3.1V745.2z"/>
		<path class="st13" d="M874.5,770.9c-0.5,0.3-1.3,0.5-2.2,0.5c-1.6,0-2.6-0.9-2.6-2.9c-1.7,2-4,2.9-6.6,2.9c-3.4,0-6.2-1.5-6.2-5.2
			c0-4.2,3.1-5.1,6.3-5.7c3.3-0.7,6.3-0.4,6.3-2.7c0-2.7-2.2-3.1-4.1-3.1c-2.6,0-4.5,0.8-4.6,3.5h-3.1c0.2-4.6,3.7-6.2,7.9-6.2
			c3.3,0,7,0.8,7,5.1v9.6c0,1.4,0,2.1,1,2.1c0.3,0,0.6-0.1,0.9-0.2V770.9z M869.5,761.3c-2.4,1.8-9.3,0-9.3,4.6c0,2,1.7,2.7,3.6,2.7
			c4,0,5.7-2.5,5.7-4.2V761.3z"/>
		<path class="st13" d="M877.4,752.3h2.9v3h0.1c1.3-2.3,3.3-3.4,6-3.4c4.9,0,6.4,2.8,6.4,6.8v12.2h-3.1v-12.6c0-2.3-1.4-3.7-3.8-3.7
			c-3.7,0-5.5,2.5-5.5,5.8v10.5h-3.1V752.3z"/>
		<path class="st13" d="M913.9,770.9c-0.5,0.3-1.3,0.5-2.2,0.5c-1.6,0-2.6-0.9-2.6-2.9c-1.7,2-4,2.9-6.6,2.9c-3.4,0-6.2-1.5-6.2-5.2
			c0-4.2,3.1-5.1,6.3-5.7c3.3-0.7,6.3-0.4,6.3-2.7c0-2.7-2.2-3.1-4.1-3.1c-2.6,0-4.5,0.8-4.6,3.5h-3.1c0.2-4.6,3.7-6.2,7.9-6.2
			c3.3,0,7,0.8,7,5.1v9.6c0,1.4,0,2.1,1,2.1c0.3,0,0.6-0.1,0.9-0.2V770.9z M908.9,761.3c-2.4,1.8-9.3,0-9.3,4.6c0,2,1.7,2.7,3.6,2.7
			c4,0,5.7-2.5,5.7-4.2V761.3z"/>
		<path class="st13" d="M916.9,745.2h3.1v25.7h-3.1V745.2z"/>
		<path class="st13" d="M932,773.4c-1.4,3.6-2.7,5-5.4,5c-0.7,0-1.4-0.1-2.1-0.3v-2.8c0.6,0.2,1.2,0.4,1.8,0.4
			c1.3,0,1.9-0.6,2.5-1.7l1.3-3.2l-7.4-18.5h3.5l5.4,15.2h0.1l5.2-15.2h3.2L932,773.4z"/>
		<path class="st13" d="M944.6,765.1c0.1,2.7,2.5,3.6,5,3.6c1.9,0,4.5-0.4,4.5-2.8c0-4.8-12.2-1.5-12.2-8.7c0-3.7,3.7-5.3,6.9-5.3
			c4.2,0,7.3,1.3,7.6,5.8h-3.1c-0.2-2.4-2.3-3.1-4.3-3.1c-1.8,0-4,0.5-4,2.4c0,2.2,3.2,2.6,6.1,3.2c3.1,0.7,6.1,1.7,6.1,5.3
			c0,4.5-4.1,5.9-7.9,5.9c-4.2,0-7.7-1.7-7.9-6.3H944.6z"/>
		<path class="st13" d="M963.9,749h-3.1v-3.7h3.1V749z M960.9,752.3h3.1v18.6h-3.1V752.3z"/>
		<path class="st13" d="M970.6,765.1c0.1,2.7,2.5,3.6,5,3.6c1.9,0,4.5-0.4,4.5-2.8c0-4.8-12.2-1.5-12.2-8.7c0-3.7,3.7-5.3,6.9-5.3
			c4.2,0,7.3,1.3,7.6,5.8h-3.1c-0.2-2.4-2.3-3.1-4.3-3.1c-1.8,0-4,0.5-4,2.4c0,2.2,3.2,2.6,6.1,3.2c3.1,0.7,6.1,1.7,6.1,5.3
			c0,4.5-4.1,5.9-7.9,5.9c-4.2,0-7.7-1.7-7.9-6.3H970.6z"/>
	</g>
</g>
<g>
	<rect x="358.7" y="563.3" class="st14" width="176.3" height="41.2"/>
	<path class="st15" d="M373.2,589h-6.4l-8.4-25.7h5.8l5.7,18.1h0.1l5.8-18.1h5.8L373.2,589z"/>
	<path class="st15" d="M383.1,576.1c0.3-4.8,4.6-6.2,8.7-6.2c3.7,0,8.2,0.8,8.2,5.3v9.7c0,1.7,0.2,3.4,0.6,4.1h-5.2
		c-0.2-0.6-0.3-1.2-0.4-1.8c-1.6,1.7-4,2.3-6.3,2.3c-3.6,0-6.3-1.8-6.3-5.6c0.1-8.5,12.6-3.9,12.4-8.1c0-2.2-1.5-2.5-3.3-2.5
		c-2,0-3.2,0.8-3.4,2.8H383.1z M395,579.9c-0.9,0.8-2.7,0.8-4.2,1.1c-1.6,0.3-3,0.9-3,2.7c0,1.9,1.5,2.4,3.1,2.4
		c4,0,4.1-3.1,4.1-4.3V579.9z"/>
	<path class="st15" d="M404.2,563.3h5.1V589h-5.1V563.3z"/>
	<path class="st15" d="M418.6,567.5h-5.1v-4.2h5.1V567.5z M413.5,570.4h5.1V589h-5.1V570.4z"/>
	<path class="st15" d="M435.9,586.7L435.9,586.7c-1.3,2-3.3,2.9-5.7,2.9c-5.6,0-8.4-4.8-8.4-10c0-5,2.8-9.6,8.2-9.6
		c2.2,0,4.4,0.9,5.5,2.8h0.1v-9.4h5.1V589h-4.9V586.7z M431.4,573.8c-3.3,0-4.5,2.9-4.5,5.9c0,2.9,1.3,6,4.5,6c3.3,0,4.4-3,4.4-6
		C435.8,576.7,434.7,573.8,431.4,573.8z"/>
	<path class="st15" d="M444.4,576.1c0.3-4.8,4.6-6.2,8.7-6.2c3.7,0,8.2,0.8,8.2,5.3v9.7c0,1.7,0.2,3.4,0.6,4.1h-5.2
		c-0.2-0.6-0.3-1.2-0.4-1.8c-1.6,1.7-4,2.3-6.3,2.3c-3.6,0-6.3-1.8-6.3-5.6c0.1-8.5,12.6-3.9,12.4-8.1c0-2.2-1.5-2.5-3.3-2.5
		c-2,0-3.2,0.8-3.4,2.8H444.4z M456.2,579.9c-0.9,0.8-2.7,0.8-4.2,1.1c-1.6,0.3-3,0.9-3,2.7c0,1.9,1.5,2.4,3.1,2.4
		c4,0,4.1-3.1,4.1-4.3V579.9z"/>
	<path class="st15" d="M471.7,570.4h3.7v3.4h-3.7v9.2c0,1.7,0.4,2.2,2.2,2.2c0.6,0,1.1,0,1.6-0.1v4c-0.9,0.1-2,0.2-3,0.2
		c-3.2,0-5.9-0.7-5.9-4.4v-11h-3.1v-3.4h3.1v-5.6h5.1V570.4z"/>
	<path class="st15" d="M483.2,567.5h-5.1v-4.2h5.1V567.5z M478.1,570.4h5.1V589h-5.1V570.4z"/>
	<path class="st15" d="M496.3,569.9c5.9,0,9.6,3.9,9.6,9.8c0,5.9-3.8,9.8-9.6,9.8c-5.8,0-9.6-3.9-9.6-9.8
		C486.6,573.8,490.4,569.9,496.3,569.9z M496.3,585.7c3.5,0,4.5-3,4.5-5.9c0-3-1-6-4.5-6c-3.5,0-4.5,3-4.5,6
		C491.8,582.7,492.8,585.7,496.3,585.7z"/>
	<path class="st15" d="M509.2,570.4h4.9v2.6h0.1c1.3-2.1,3.5-3.1,5.7-3.1c5.4,0,6.8,3.1,6.8,7.7V589h-5.1v-10.5
		c0-3.1-0.9-4.6-3.3-4.6c-2.8,0-4,1.5-4,5.3v9.8h-5.1V570.4z"/>
</g>
<g>
</g>
<g>
</g>
<g>
</g>
<g>
</g>
<g>
</g>
<g>
</g>
</svg>
