<?xml version="1.0" encoding="utf-8"?>
<!-- Generator: Adobe Illustrator 19.2.0, SVG Export Plug-In . SVG Version: 6.00 Build 0)  -->
<svg version="1.1" id="Layer_1" xmlns="http://www.w3.org/2000/svg" xmlns:xlink="http://www.w3.org/1999/xlink" x="0px" y="0px"
	 viewBox="0 0 2048 1000" style="enable-background:new 0 0 2048 1000;" xml:space="preserve">
<style type="text/css">
	.st0{fill:#B9E5FB;}
	.st1{fill:#116BB4;}
	.st2{fill:#FFFFFF;}
	.st3{fill:#2C5871;}
	.st4{fill:#D1ECFB;}
	.st5{fill-rule:evenodd;clip-rule:evenodd;fill:#DAE1E6;}
	.st6{fill-rule:evenodd;clip-rule:evenodd;fill:#B3B3B3;}
	.st7{fill-rule:evenodd;clip-rule:evenodd;fill:#ECF0F1;}
	.st8{fill-rule:evenodd;clip-rule:evenodd;fill:#2C3E50;}
	.st9{fill-rule:evenodd;clip-rule:evenodd;fill:#FACC4D;}
	.st10{fill-rule:evenodd;clip-rule:evenodd;fill:#3D566E;}
	.st11{fill:none;stroke:#343636;stroke-width:4.9841;stroke-miterlimit:10;}
	.st12{fill:#231F20;}
	.st13{fill:none;stroke:#4EA8DE;stroke-width:1.9487;stroke-miterlimit:10;}
	.st14{fill:#4EA8DE;}
	.st15{fill:none;}
	.st16{fill:#074164;}
	.st17{enable-background:new    ;}
	.st18{fill:#333333;}
</style>
<rect class="st0" width="2048" height="1000"/>
<rect x="1.2" y="639.1" class="st1" width="2046.5" height="360.6"/>
<g>
	<g>
		<polygon class="st2" points="1588.6,894.9 1588.6,519.6 1588.6,314.8 1427,168 322.2,168 322.2,894.9 		"/>
		<g>
			<polygon class="st3" points="1427,314.8 1588.6,314.8 1427,168 			"/>
			<polygon class="st4" points="1588.6,314.8 1427,314.8 1588.6,461.5 			"/>
		</g>
	</g>
</g>
<g>
	<path class="st5" d="M1929,883.6h-100.3c-5.3,0-9.6-4.3-9.6-9.6V734.9c0-5.3,4.3-9.6,9.6-9.6h68.3l41.5,41.5V874
		C1938.6,879.3,1934.3,883.6,1929,883.6z"/>
	<polygon class="st6" points="1923.9,752.1 1938.6,766.8 1938.6,802.7 1900,764.1 	"/>
	<path class="st7" d="M1938.6,766.8h-31.9c-5.3,0-9.6-4.3-9.6-9.6v-31.9L1938.6,766.8z"/>
	<path class="st8" d="M1888.7,871.6h-52.9h-2.6V869v-18.5V828v-38.4v-22.5v-17.7v-2.6h2.6h61.4v5.1h-58.8v15.1v22.5V828v22.5v16
		h50.4V871.6L1888.7,871.6z M1837.3,767.1h-0.7h-0.4h-1h-0.6h-0.5v22.5h0.5h0.6h1h0.4h0.7V767.1L1837.3,767.1z M1837.3,828h-0.5
		h-0.6h-1h-0.6h-0.5v22.5h0.5h0.6h1h0.6h0.5V828z"/>
	<rect x="1911" y="766.8" class="st8" width="5.1" height="6.9"/>
	<polygon class="st8" points="1893.6,806.7 1911,806.7 1911,796.2 1916.1,796.2 1916.1,809.2 1916.1,811.8 1913.5,811.8 
		1893.6,811.8 	"/>
	<rect x="1835.7" y="806.7" class="st8" width="35.3" height="5.1"/>
	<path class="st6" d="M1929,883.6h-29.5l-12.9-12.9l0,0l0-0.1c0,0-0.1-0.1-0.1-0.1l-0.1-0.1l-0.1-0.1l0,0l0-0.1l0,0l0-0.1l0,0l0-0.1
		l0,0l0-0.1l0,0l0-0.1l0,0l0-0.1v0l0-0.1l0,0l0-0.1l0,0l0-0.1v0l0-0.1l0,0l0-0.1l0,0l0-0.1l0,0l0-0.1l0,0l0,0v0v0l0,0v0l0,0l0,0l0,0
		v0l0,0v-0.1l0,0l0,0l0,0v0l0,0v-0.1l0,0l0,0l0,0v0l0,0l0,0l0,0v0l0,0v0l0,0v0v0v0l0,0v0l0,0v0v0l0,0l0,0v0l0,0v-0.1l0,0v0l0,0v0
		l0,0v-0.1v0l0,0v0l0,0v0l0,0v0l0,0v0l0,0l0,0l0,0v0l0,0v0v0v0l0,0v0l0,0v0l0,0v0l0,0v0l0,0v0l0,0v0l0,0l0,0l0,0v0l0,0v0l0,0l0,0
		l0,0v0l0,0v0l0,0v0l0,0l0,0l0,0v0l0,0v0l0,0v0l0,0h0v0v0v0v0v0l0,0v0l1.8-6.2l2.9-9.9l0,0l7.3-24.5v0l18.1-18.1l22.6-22.6v88
		C1938.6,879.3,1934.3,883.6,1929,883.6z"/>
	<polygon class="st6" points="1938.6,786 1938.6,802.7 1930.3,794.4 	"/>
	<g>
		<path class="st9" d="M1976.6,761.3c4.1,2.3,7.8,5.1,11,8.3l0.2,0.2c3.2,3.2,5.8,6.8,8.1,10.9c1.4,2.5,1.9,5.3,1.5,8
			c-0.4,2.7-1.6,5.3-3.7,7.3h0h0l-63.4,63.4l-40.6,12c-1.7,0.5-3.5-0.5-4-2.2c-0.2-0.6-0.2-1.2,0-1.8l12.1-40.6l63.4-63.4
			c2-2.1,4.6-3.3,7.3-3.7C1971.2,759.4,1974,759.9,1976.6,761.3z"/>
		<path class="st8" d="M1908.5,836.5l67.8-67.8c-0.9-0.6-1.9-1.2-2.8-1.7c-1.3-0.7-2.7-1-4-0.8c-1.3,0.2-2.6,0.8-3.6,1.9l-61.6,61.6
			L1908.5,836.5z"/>
		<path class="st8" d="M1906.1,866.6l-16.3,4.9c-1.7,0.5-3.5-0.5-4-2.3c-0.2-0.6-0.2-1.2,0-1.8l4.8-16.1l2.7,5.7l9.1,0.5
			L1906.1,866.6z"/>
		<path class="st8" d="M1976.6,761.3c4.1,2.3,7.8,5.1,11,8.3l0.2,0.2c3.2,3.2,5.8,6.8,8.1,10.9c1.4,2.5,1.9,5.3,1.5,8
			c-0.4,2.7-1.6,5.3-3.7,7.3h0h0l-63.4,63.4l-4.3-8.8c-6.8-3.5-13.6-7-20.4-10.5l-7.8-13.3l63.4-63.4c2.1-2.1,4.6-3.3,7.3-3.7
			C1971.2,759.4,1974,759.9,1976.6,761.3z"/>
		<path class="st10" d="M1976.6,761.3c1.7,0.9,3.3,2,4.8,3l-75.8,75.8l-7.8-13.3l63.4-63.4c2.1-2.1,4.6-3.3,7.3-3.7
			C1971.2,759.4,1974,759.9,1976.6,761.3z"/>
		<path class="st10" d="M1995.9,780.7c1.4,2.5,1.9,5.3,1.5,8c-0.4,2.7-1.6,5.3-3.7,7.3h0h0l-63.4,63.4l-4.3-8.8L1995.9,780.7z"/>
	</g>
</g>
<line class="st11" x1="50.8" y1="53.7" x2="1997.5" y2="53.7"/>
<g>
	<g>
		<path class="st12" d="M54.3,76h13.6c10.1,0,14.5,7.4,14.5,16.4s-4.4,16.4-14.5,16.4H54.3V76z M60,104.1h5.7
			c9,0,10.9-5.1,10.9-11.7c0-6.6-1.9-11.7-10.9-11.7H60V104.1z"/>
		<path class="st12" d="M90.8,98.3c0,3.7,2,7,6.4,7c3.1,0,4.9-1.3,5.8-4h5c-1.1,5.2-5.6,8.1-10.8,8.1c-7.5,0-11.6-5.2-11.6-12.5
			c0-6.8,4.4-12.6,11.5-12.6c7.5,0,12.1,6.8,11.2,13.9H90.8z M103.1,94.8c-0.2-3.3-2.4-6.3-6-6.3c-3.6,0-6.1,2.8-6.3,6.3H103.1z"/>
		<path class="st12" d="M116.3,101.2c0.3,3.1,2.6,4.1,5.4,4.1c2,0,5.4-0.4,5.3-3.1c-0.1-2.8-4-3.1-7.8-4c-3.9-0.8-7.6-2.2-7.6-7
			c0-5.2,5.6-6.8,9.9-6.8c4.9,0,9.3,2,9.9,7.3h-5.5c-0.5-2.5-2.5-3.2-4.8-3.2c-1.5,0-4.3,0.4-4.3,2.4c0,2.6,3.9,3,7.7,3.8
			c3.8,0.9,7.7,2.3,7.7,6.9c0,5.7-5.7,7.7-10.6,7.7c-6,0-10.4-2.7-10.5-8.3H116.3z"/>
		<path class="st12" d="M136.3,76h5.2v5h-5.2V76z M136.3,85h5.2v23.8h-5.2V85z"/>
		<path class="st12" d="M169.3,107.6c0,7.2-4.1,10.7-11.7,10.7c-4.8,0-10.1-1.8-10.6-7.4h5.2c0.6,3,3,3.5,5.7,3.5
			c4.2,0,6.1-2.2,6.1-6.1v-3.6h-0.1c-1.5,2.6-4.2,4.2-7.1,4.2c-7.5,0-10.7-5.7-10.7-12.5c0-6.4,4-11.9,10.8-11.9c3,0,5.7,1.2,7,3.9
			h0.1V85h5.2V107.6z M164,96.4c0-4.1-1.8-7.9-6.4-7.9c-4.6,0-6.3,4.3-6.3,8.3c0,3.9,1.9,7.9,6.3,7.9
			C162.3,104.7,164,100.5,164,96.4z"/>
		<path class="st12" d="M174.5,85h5v3.5l0.1,0.1c1.6-2.6,4.3-4.2,7.4-4.2c5.2,0,8.4,2.7,8.4,8.1v16.3h-5.2v-15
			c-0.1-3.7-1.5-5.3-4.6-5.3c-3.5,0-5.8,2.8-5.8,6.3v14h-5.2V85z"/>
		<path class="st12" d="M214.5,76h5.8v32.8h-5.8V76z"/>
		<path class="st12" d="M226.5,85h5v3.5l0.1,0.1c1.6-2.6,4.3-4.2,7.4-4.2c5.2,0,8.4,2.7,8.4,8.1v16.3h-5.2v-15
			c-0.1-3.7-1.5-5.3-4.6-5.3c-3.5,0-5.8,2.8-5.8,6.3v14h-5.2V85z"/>
		<path class="st12" d="M253.1,85h5v3.2h0.1c1.5-2.8,4.3-3.9,7.4-3.9c7.5,0,11.1,5.7,11.1,12.7c0,6.4-3.3,12.4-10.3,12.4
			c-3,0-6.3-1.1-8-3.7h-0.1v11.9h-5.2V85z M264.8,88.5c-4.4,0-6.7,3.3-6.7,8.4c0,4.8,2.4,8.4,6.7,8.4c4.8,0,6.6-4.2,6.6-8.4
			C271.4,92.7,269.1,88.5,264.8,88.5z"/>
		<path class="st12" d="M301.9,108.8h-5.2v-3.3h-0.1c-1.3,2.4-4.1,4-6.8,4c-6.3,0-8.9-3.1-8.9-9.3V85h5.2v14.6
			c0,4.2,1.7,5.7,4.6,5.7c4.4,0,5.8-2.8,5.8-6.5V85h5.2V108.8z"/>
		<path class="st12" d="M305,85h4v-7.1h5.2V85h4.7v3.9h-4.7v12.7c0,2.2,0.2,3.3,2.5,3.3c0.7,0,1.5,0,2.2-0.2v4
			c-1.1,0.1-2.3,0.3-3.4,0.3c-5.5,0-6.4-2.1-6.6-6.1v-14h-4V85z"/>
	</g>
</g>
<g>
	<g>
		<line class="st13" x1="418.9" y1="380.6" x2="418.9" y2="492.5"/>
		<g>
			<polygon class="st14" points="406.7,488.2 408.9,487.3 419,492.4 429.1,487.3 431.3,488.2 419,494.5 			"/>
		</g>
	</g>
</g>
<g>
	<rect x="347.8" y="211.4" class="st15" width="232.8" height="160"/>
	<path class="st16" d="M350.2,211.5h18.2v4.5h-12.8v5.2h11.8v4.1h-11.8v5.9h13.1v4.5h-18.4V211.5z"/>
	<path class="st16" d="M376.2,226.5l-5.8-8.3h5.5l3.1,4.6l3.1-4.6h5.3l-5.8,8.2l6.5,9.3h-5.5l-3.7-5.5l-3.7,5.5h-5.4L376.2,226.5z"
		/>
	<path class="st16" d="M389.8,223.6c0.3-4.5,4.3-5.9,8.3-5.9c3.5,0,7.7,0.8,7.7,5v9.1c0,1.6,0.2,3.2,0.6,3.9h-4.9
		c-0.2-0.5-0.3-1.1-0.3-1.7c-1.5,1.6-3.7,2.2-5.9,2.2c-3.4,0-6-1.7-6-5.3c0.1-8,11.9-3.7,11.7-7.6c0-2-1.4-2.4-3.1-2.4
		c-1.9,0-3,0.7-3.2,2.7H389.8z M400.9,227.1c-0.8,0.7-2.5,0.7-4,1c-1.5,0.3-2.9,0.8-2.9,2.6c0,1.8,1.4,2.2,3,2.2c3.8,0,3.9-3,3.9-4
		V227.1z"/>
	<path class="st16" d="M409.6,218.1h4.6v2.4h0.1c1.3-1.8,3.1-2.9,5.4-2.9c2.2,0,4.2,0.8,5.1,2.9c1.1-1.5,2.9-2.9,5.3-2.9
		c3.7,0,6.4,1.7,6.4,6.3v11.8h-4.8v-10c0-2.3-0.2-4.3-3-4.3c-2.7,0-3.2,2.3-3.2,4.5v9.8h-4.8v-9.9c0-2,0.1-4.4-2.9-4.4
		c-1,0-3.3,0.6-3.3,4v10.2h-4.8V218.1z"/>
	<path class="st16" d="M440.3,218.1h4.6v2.2h0.1c1.2-1.9,3.1-2.7,5.2-2.7c5.5,0,8,4.5,8,9.5c0,4.7-2.5,9.1-7.7,9.1
		c-2.1,0-4.1-0.9-5.3-2.7h-0.1v8.4h-4.8V218.1z M453.3,227c0-2.8-1.1-5.7-4.2-5.7c-3.2,0-4.2,2.8-4.2,5.7s1.1,5.6,4.2,5.6
		C452.3,232.6,453.3,229.8,453.3,227z"/>
	<path class="st16" d="M461.2,211.5h4.8v24.3h-4.8V211.5z"/>
	<path class="st16" d="M473.8,228.1c0.1,3.1,1.6,4.5,4.3,4.5c1.9,0,3.5-1.2,3.8-2.3h4.2c-1.4,4.2-4.2,5.9-8.2,5.9
		c-5.5,0-9-3.8-9-9.2c0-5.3,3.6-9.3,9-9.3c6,0,8.9,5,8.5,10.4H473.8z M481.7,225.1c-0.4-2.4-1.5-3.7-3.8-3.7c-3.1,0-3.9,2.4-4,3.7
		H481.7z"/>
	<path class="st16" d="M507.3,217.7c5.5,0,9.1,3.7,9.1,9.3c0,5.6-3.6,9.2-9.1,9.2c-5.5,0-9.1-3.7-9.1-9.2
		C498.2,221.3,501.8,217.7,507.3,217.7z M507.3,232.6c3.3,0,4.3-2.8,4.3-5.6c0-2.8-1-5.6-4.3-5.6c-3.3,0-4.2,2.8-4.2,5.6
		C503.1,229.8,504.1,232.6,507.3,232.6z"/>
	<path class="st16" d="M520.6,221.4h-2.9v-3.2h2.9v-1.4c0-3.1,1.9-5.3,5.9-5.3c0.9,0,1.7,0.1,2.5,0.1v3.6c-0.6-0.1-1.2-0.1-1.8-0.1
		c-1.3,0-1.8,0.5-1.8,2v1.1h3.3v3.2h-3.3v14.3h-4.8V221.4z"/>
	<path class="st16" d="M355.8,258.9h3.5v3.2h-3.5v8.7c0,1.6,0.4,2,2,2c0.5,0,1.1,0,1.5-0.1v3.8c-0.8,0.1-1.9,0.2-2.8,0.2
		c-3,0-5.5-0.6-5.5-4.2v-10.4H348v-3.2h2.9v-5.3h4.8V258.9z"/>
	<path class="st16" d="M361.6,258.9h4.6v3.3h0.1c0.9-2.2,3.2-3.7,5.6-3.7c0.4,0,0.7,0.1,1.1,0.2v4.5c-0.4-0.1-1.2-0.2-1.7-0.2
		c-3.6,0-4.8,2.5-4.8,5.6v7.9h-4.8V258.9z"/>
	<path class="st16" d="M374.7,264.4c0.3-4.5,4.3-5.9,8.3-5.9c3.5,0,7.7,0.8,7.7,5v9.1c0,1.6,0.2,3.2,0.6,3.9h-4.9
		c-0.2-0.5-0.3-1.1-0.3-1.7c-1.5,1.6-3.7,2.2-5.9,2.2c-3.4,0-6-1.7-6-5.3c0.1-8,11.9-3.7,11.7-7.6c0-2-1.4-2.4-3.1-2.4
		c-1.9,0-3,0.7-3.2,2.7H374.7z M385.8,267.9c-0.8,0.7-2.5,0.7-4,1c-1.5,0.3-2.9,0.8-2.9,2.6c0,1.8,1.4,2.2,3,2.2c3.8,0,3.9-3,3.9-4
		V267.9z"/>
	<path class="st16" d="M394.4,258.9h4.6v2.4h0.1c1.2-2,3.3-2.9,5.4-2.9c5.1,0,6.4,2.9,6.4,7.2v10.8H406v-9.9c0-2.9-0.8-4.3-3.1-4.3
		c-2.6,0-3.7,1.5-3.7,5v9.2h-4.8V258.9z"/>
	<path class="st16" d="M418.3,270.8c0,2.1,1.8,3,3.7,3c1.4,0,3.2-0.5,3.2-2.2c0-1.5-2-2-5.5-2.7c-2.8-0.6-5.6-1.6-5.6-4.7
		c0-4.5,3.9-5.6,7.6-5.6c3.8,0,7.4,1.3,7.8,5.6h-4.6c-0.1-1.9-1.6-2.4-3.3-2.4c-1.1,0-2.7,0.2-2.7,1.6c0,1.7,2.8,2,5.5,2.6
		c2.8,0.6,5.6,1.7,5.6,4.9c0,4.6-4,6.1-8,6.1c-4.1,0-8.1-1.5-8.3-6.2H418.3z"/>
	<path class="st16" d="M432.9,252.3h4.8v24.3h-4.8V252.3z"/>
	<path class="st16" d="M441.4,264.4c0.3-4.5,4.3-5.9,8.3-5.9c3.5,0,7.7,0.8,7.7,5v9.1c0,1.6,0.2,3.2,0.6,3.9h-4.9
		c-0.2-0.5-0.3-1.1-0.3-1.7c-1.5,1.6-3.7,2.2-5.9,2.2c-3.4,0-6-1.7-6-5.3c0.1-8,11.9-3.7,11.7-7.6c0-2-1.4-2.4-3.1-2.4
		c-1.9,0-3,0.7-3.2,2.7H441.4z M452.5,267.9c-0.8,0.7-2.5,0.7-4,1c-1.5,0.3-2.9,0.8-2.9,2.6c0,1.8,1.4,2.2,3,2.2c3.8,0,3.9-3,3.9-4
		V267.9z"/>
	<path class="st16" d="M467.2,258.9h3.5v3.2h-3.5v8.7c0,1.6,0.4,2,2,2c0.5,0,1.1,0,1.5-0.1v3.8c-0.8,0.1-1.9,0.2-2.8,0.2
		c-3,0-5.5-0.6-5.5-4.2v-10.4h-2.9v-3.2h2.9v-5.3h4.8V258.9z"/>
	<path class="st16" d="M478,256.2h-4.8v-4h4.8V256.2z M473.2,258.9h4.8v17.6h-4.8V258.9z"/>
	<path class="st16" d="M481.8,258.9h4.6v2.4h0.1c1.2-2,3.3-2.9,5.4-2.9c5.1,0,6.4,2.9,6.4,7.2v10.8h-4.8v-9.9c0-2.9-0.8-4.3-3.1-4.3
		c-2.6,0-3.7,1.5-3.7,5v9.2h-4.8V258.9z"/>
	<path class="st16" d="M518.9,275.4c0,2.9-1.1,7.8-9.1,7.8c-3.5,0-7.5-1.7-7.8-5.6h4.8c0.4,1.8,1.9,2.4,3.6,2.4
		c2.7,0,3.9-1.8,3.9-4.4v-2.3h-0.1c-1.1,1.9-3.1,2.7-5.3,2.7c-5.3,0-7.5-4-7.5-8.8c0-4.6,2.7-8.7,7.5-8.7c2.3,0,4,0.8,5.2,2.8h0.1
		v-2.3h4.6V275.4z M514.3,267.5c0-2.9-1-5.4-4.1-5.4c-2.7,0-3.9,2.4-3.9,5c0,2.5,0.9,5.3,3.9,5.3C512.9,272.4,514.3,270,514.3,267.5
		z"/>
	<path class="st16" d="M370.8,308.1c0,6.6-3.9,9.8-10.4,9.8c-6.6,0-10.3-3.1-10.3-9.8v-15.1h5.3v15.1c0,2.7,0.7,5.3,5,5.3
		c3.8,0,5-1.6,5-5.3v-15.1h5.3V308.1z"/>
	<path class="st16" d="M378.6,311.6c0,2.1,1.8,3,3.7,3c1.4,0,3.2-0.5,3.2-2.2c0-1.5-2-2-5.5-2.7c-2.8-0.6-5.6-1.6-5.6-4.7
		c0-4.5,3.9-5.6,7.6-5.6c3.8,0,7.4,1.3,7.8,5.6h-4.6c-0.1-1.9-1.6-2.4-3.3-2.4c-1.1,0-2.7,0.2-2.7,1.6c0,1.7,2.8,2,5.5,2.6
		c2.8,0.6,5.6,1.7,5.6,4.9c0,4.6-4,6.1-8,6.1c-4.1,0-8.1-1.5-8.3-6.2H378.6z"/>
	<path class="st16" d="M397.1,309.7c0.1,3.1,1.6,4.5,4.3,4.5c1.9,0,3.5-1.2,3.8-2.3h4.2c-1.4,4.2-4.2,5.9-8.2,5.9
		c-5.5,0-9-3.8-9-9.2c0-5.3,3.6-9.3,9-9.3c6,0,8.9,5,8.5,10.4H397.1z M405,306.7c-0.4-2.4-1.5-3.7-3.8-3.7c-3.1,0-3.9,2.4-4,3.7H405
		z"/>
	<path class="st16" d="M412.6,299.7h4.6v3.3h0.1c0.9-2.2,3.2-3.7,5.6-3.7c0.4,0,0.7,0.1,1.1,0.2v4.5c-0.4-0.1-1.2-0.2-1.7-0.2
		c-3.6,0-4.8,2.5-4.8,5.6v7.9h-4.8V299.7z"/>
	<path class="st16" d="M435.3,299.7h4.6v2.4h0.1c1.2-2,3.3-2.9,5.4-2.9c5.1,0,6.4,2.9,6.4,7.2v10.8H447v-9.9c0-2.9-0.8-4.3-3.1-4.3
		c-2.6,0-3.7,1.5-3.7,5v9.2h-4.8V299.7z"/>
	<path class="st16" d="M459.5,309.7c0.1,3.1,1.6,4.5,4.3,4.5c1.9,0,3.5-1.2,3.8-2.3h4.2c-1.4,4.2-4.2,5.9-8.2,5.9
		c-5.5,0-9-3.8-9-9.2c0-5.3,3.6-9.3,9-9.3c6,0,8.9,5,8.5,10.4H459.5z M467.3,306.7c-0.4-2.4-1.5-3.7-3.8-3.7c-3.1,0-3.9,2.4-4,3.7
		H467.3z"/>
	<path class="st16" d="M479,309.7c0.1,3.1,1.6,4.5,4.3,4.5c1.9,0,3.5-1.2,3.8-2.3h4.2c-1.4,4.2-4.2,5.9-8.2,5.9c-5.5,0-9-3.8-9-9.2
		c0-5.3,3.6-9.3,9-9.3c6,0,8.9,5,8.5,10.4H479z M486.8,306.7c-0.4-2.4-1.5-3.7-3.8-3.7c-3.1,0-3.9,2.4-4,3.7H486.8z"/>
	<path class="st16" d="M507.1,315.1L507.1,315.1c-1.2,1.9-3.1,2.7-5.4,2.7c-5.3,0-7.9-4.5-7.9-9.4c0-4.7,2.6-9.1,7.8-9.1
		c2.1,0,4.1,0.9,5.2,2.6h0.1v-8.8h4.8v24.3h-4.6V315.1z M502.8,302.9c-3.2,0-4.2,2.8-4.2,5.6c0,2.8,1.3,5.6,4.2,5.6
		c3.2,0,4.1-2.8,4.1-5.7C507,305.6,506,302.9,502.8,302.9z"/>
	<path class="st16" d="M519,311.6c0,2.1,1.8,3,3.7,3c1.4,0,3.2-0.5,3.2-2.2c0-1.5-2-2-5.5-2.7c-2.8-0.6-5.6-1.6-5.6-4.7
		c0-4.5,3.9-5.6,7.6-5.6c3.8,0,7.4,1.3,7.8,5.6h-4.6c-0.1-1.9-1.6-2.4-3.3-2.4c-1.1,0-2.7,0.2-2.7,1.6c0,1.7,2.8,2,5.5,2.6
		c2.8,0.6,5.6,1.7,5.6,4.9c0,4.6-4,6.1-8,6.1c-4.1,0-8.1-1.5-8.3-6.2H519z"/>
	<path class="st16" d="M549.1,299.7h3.5v3.2h-3.5v8.7c0,1.6,0.4,2,2,2c0.5,0,1.1,0,1.5-0.1v3.8c-0.8,0.1-1.9,0.2-2.8,0.2
		c-3,0-5.5-0.6-5.5-4.2V303h-2.9v-3.2h2.9v-5.3h4.8V299.7z"/>
	<path class="st16" d="M563.5,299.3c5.5,0,9.1,3.7,9.1,9.3c0,5.6-3.6,9.2-9.1,9.2c-5.5,0-9.1-3.7-9.1-9.2
		C554.4,302.9,558,299.3,563.5,299.3z M563.5,314.2c3.3,0,4.3-2.8,4.3-5.6c0-2.8-1-5.6-4.3-5.6c-3.3,0-4.2,2.8-4.2,5.6
		C559.2,311.4,560.2,314.2,563.5,314.2z"/>
	<path class="st16" d="M350.2,333.9h10.5c6.3,0,11,4,11,12c0,7-3.6,12.3-11,12.3h-10.5V333.9z M355.5,353.6h4.8
		c3.1,0,6.1-1.9,6.1-7.3c0-4.9-1.7-8-7-8h-3.8V353.6z"/>
	<path class="st16" d="M378.8,350.5c0.1,3.1,1.6,4.5,4.3,4.5c1.9,0,3.5-1.2,3.8-2.3h4.2c-1.4,4.2-4.2,5.9-8.2,5.9
		c-5.5,0-9-3.8-9-9.2c0-5.3,3.6-9.3,9-9.3c6,0,8.9,5,8.5,10.4H378.8z M386.7,347.5c-0.4-2.4-1.5-3.7-3.8-3.7c-3.1,0-3.9,2.4-4,3.7
		H386.7z"/>
	<path class="st16" d="M398.1,352.4c0,2.1,1.8,3,3.7,3c1.4,0,3.2-0.5,3.2-2.2c0-1.5-2-2-5.5-2.7c-2.8-0.6-5.6-1.6-5.6-4.7
		c0-4.5,3.9-5.6,7.6-5.6c3.8,0,7.4,1.3,7.8,5.6h-4.6c-0.1-1.9-1.6-2.4-3.3-2.4c-1.1,0-2.7,0.2-2.7,1.6c0,1.7,2.8,2,5.5,2.6
		c2.8,0.6,5.6,1.7,5.6,4.9c0,4.6-4,6.1-8,6.1c-4.1,0-8.1-1.5-8.3-6.2H398.1z"/>
	<path class="st16" d="M417.6,337.8h-4.8v-4h4.8V337.8z M412.8,340.5h4.8v17.6h-4.8V340.5z"/>
	<path class="st16" d="M438.3,357c0,2.9-1.1,7.8-9.1,7.8c-3.5,0-7.5-1.7-7.8-5.6h4.8c0.4,1.8,1.9,2.4,3.6,2.4c2.7,0,3.9-1.8,3.9-4.4
		v-2.3h-0.1c-1.1,1.9-3.1,2.7-5.3,2.7c-5.3,0-7.5-4-7.5-8.8c0-4.6,2.7-8.7,7.5-8.7c2.3,0,4,0.8,5.2,2.8h0.1v-2.3h4.6V357z
		 M433.7,349.1c0-2.9-1-5.4-4.1-5.4c-2.7,0-3.9,2.4-3.9,5c0,2.5,0.9,5.3,3.9,5.3C432.4,354,433.7,351.6,433.7,349.1z"/>
	<path class="st16" d="M442.2,340.5h4.6v2.4h0.1c1.2-2,3.3-2.9,5.4-2.9c5.1,0,6.4,2.9,6.4,7.2v10.8h-4.8v-9.9c0-2.9-0.8-4.3-3.1-4.3
		c-2.6,0-3.7,1.5-3.7,5v9.2h-4.8V340.5z"/>
	<path class="st16" d="M472.3,333.9h5.3v24.3h-5.3V333.9z"/>
	<path class="st16" d="M481.8,340.5h4.6v2.4h0.1c1.2-2,3.3-2.9,5.4-2.9c5.1,0,6.4,2.9,6.4,7.2v10.8h-4.8v-9.9c0-2.9-0.8-4.3-3.1-4.3
		c-2.6,0-3.7,1.5-3.7,5v9.2h-4.8V340.5z"/>
	<path class="st16" d="M502,340.5h4.6v2.2h0.1c1.2-1.9,3.1-2.7,5.2-2.7c5.5,0,8,4.5,8,9.5c0,4.7-2.5,9.1-7.7,9.1
		c-2.1,0-4.1-0.9-5.3-2.7h-0.1v8.4H502V340.5z M515,349.4c0-2.8-1.1-5.7-4.2-5.7c-3.2,0-4.2,2.8-4.2,5.7s1.1,5.6,4.2,5.6
		C514,355,515,352.2,515,349.4z"/>
	<path class="st16" d="M539.3,358.1h-4.6v-2.4h-0.1c-1.2,2-3.3,2.9-5.4,2.9c-5.1,0-6.4-2.9-6.4-7.2v-10.8h4.8v9.9
		c0,2.9,0.8,4.3,3.1,4.3c2.6,0,3.7-1.5,3.7-5v-9.2h4.8V358.1z"/>
	<path class="st16" d="M549,340.5h3.5v3.2H549v8.7c0,1.6,0.4,2,2,2c0.5,0,1.1,0,1.5-0.1v3.8c-0.8,0.1-1.9,0.2-2.8,0.2
		c-3,0-5.5-0.6-5.5-4.2v-10.4h-2.9v-3.2h2.9v-5.3h4.8V340.5z"/>
</g>
<g>
	<rect x="347.8" y="590.3" class="st15" width="259.2" height="155.8"/>
	<path class="st16" d="M350.2,590.3h18.2v4.5h-12.8v5.2h11.8v4.1h-11.8v5.9h13.1v4.5h-18.4V590.3z"/>
	<path class="st16" d="M376.2,605.3l-5.8-8.3h5.5l3.1,4.6l3.1-4.6h5.3l-5.8,8.2l6.5,9.3h-5.5l-3.7-5.5l-3.7,5.5h-5.4L376.2,605.3z"
		/>
	<path class="st16" d="M389.8,602.4c0.3-4.5,4.3-5.9,8.3-5.9c3.5,0,7.7,0.8,7.7,5v9.1c0,1.6,0.2,3.2,0.6,3.9h-4.9
		c-0.2-0.5-0.3-1.1-0.3-1.7c-1.5,1.6-3.7,2.2-5.9,2.2c-3.4,0-6-1.7-6-5.3c0.1-8,11.9-3.7,11.7-7.6c0-2-1.4-2.4-3.1-2.4
		c-1.9,0-3,0.7-3.2,2.7H389.8z M400.9,606c-0.8,0.7-2.5,0.7-4,1c-1.5,0.3-2.9,0.8-2.9,2.6c0,1.8,1.4,2.2,3,2.2c3.8,0,3.9-3,3.9-4
		V606z"/>
	<path class="st16" d="M409.6,597h4.6v2.4h0.1c1.3-1.8,3.1-2.9,5.4-2.9c2.2,0,4.2,0.8,5.1,2.9c1.1-1.5,2.9-2.9,5.3-2.9
		c3.7,0,6.4,1.7,6.4,6.3v11.8h-4.8v-10c0-2.3-0.2-4.3-3-4.3c-2.7,0-3.2,2.3-3.2,4.5v9.8h-4.8v-9.9c0-2,0.1-4.4-2.9-4.4
		c-1,0-3.3,0.6-3.3,4v10.2h-4.8V597z"/>
	<path class="st16" d="M440.3,597h4.6v2.2h0.1c1.2-1.9,3.1-2.7,5.2-2.7c5.5,0,8,4.5,8,9.4c0,4.7-2.5,9.1-7.7,9.1
		c-2.1,0-4.1-0.9-5.3-2.7h-0.1v8.4h-4.8V597z M453.3,605.8c0-2.8-1.1-5.7-4.2-5.7c-3.2,0-4.2,2.8-4.2,5.7s1.1,5.6,4.2,5.6
		C452.3,611.4,453.3,608.7,453.3,605.8z"/>
	<path class="st16" d="M461.2,590.3h4.8v24.3h-4.8V590.3z"/>
	<path class="st16" d="M473.8,607c0.1,3.1,1.6,4.5,4.3,4.5c1.9,0,3.5-1.2,3.8-2.3h4.2c-1.4,4.2-4.2,5.9-8.2,5.9c-5.5,0-9-3.8-9-9.2
		c0-5.3,3.6-9.3,9-9.3c6,0,8.9,5,8.5,10.4H473.8z M481.7,603.9c-0.4-2.4-1.5-3.7-3.8-3.7c-3.1,0-3.9,2.4-4,3.7H481.7z"/>
	<path class="st16" d="M493.1,608.9c0,2.1,1.8,3,3.7,3c1.4,0,3.2-0.5,3.2-2.2c0-1.5-2-2-5.5-2.7c-2.8-0.6-5.6-1.6-5.6-4.7
		c0-4.5,3.9-5.6,7.6-5.6c3.8,0,7.4,1.3,7.8,5.6h-4.6c-0.1-1.9-1.6-2.4-3.3-2.4c-1.1,0-2.7,0.2-2.7,1.6c0,1.7,2.8,2,5.5,2.6
		c2.8,0.6,5.6,1.7,5.6,4.9c0,4.6-4,6.1-8,6.1c-4.1,0-8.1-1.5-8.3-6.2H493.1z"/>
	<path class="st16" d="M525.6,596.5c5.5,0,9.1,3.7,9.1,9.3c0,5.6-3.6,9.2-9.1,9.2c-5.5,0-9.1-3.7-9.1-9.2
		C516.5,600.2,520.1,596.5,525.6,596.5z M525.6,611.4c3.3,0,4.3-2.8,4.3-5.6c0-2.8-1-5.6-4.3-5.6c-3.3,0-4.2,2.8-4.2,5.6
		C521.3,608.6,522.3,611.4,525.6,611.4z"/>
	<path class="st16" d="M538.9,600.2H536V597h2.9v-1.4c0-3.1,1.9-5.3,5.9-5.3c0.9,0,1.7,0.1,2.5,0.1v3.6c-0.6-0.1-1.2-0.1-1.8-0.1
		c-1.3,0-1.8,0.5-1.8,2v1.1h3.3v3.2h-3.3v14.3h-4.8V600.2z"/>
	<path class="st16" d="M350.2,631.1h10.5c6.3,0,11,4,11,12c0,7-3.6,12.3-11,12.3h-10.5V631.1z M355.5,650.9h4.8
		c3.1,0,6.1-1.9,6.1-7.3c0-4.9-1.7-8-7-8h-3.8V650.9z"/>
	<path class="st16" d="M378.8,647.8c0.1,3.1,1.6,4.5,4.3,4.5c1.9,0,3.5-1.2,3.8-2.3h4.2c-1.4,4.2-4.2,5.9-8.2,5.9
		c-5.5,0-9-3.8-9-9.2c0-5.3,3.6-9.3,9-9.3c6,0,8.9,5,8.5,10.4H378.8z M386.7,644.7c-0.4-2.4-1.5-3.7-3.8-3.7c-3.1,0-3.9,2.4-4,3.7
		H386.7z"/>
	<path class="st16" d="M398.1,649.7c0,2.1,1.8,3,3.7,3c1.4,0,3.2-0.5,3.2-2.2c0-1.5-2-2-5.5-2.7c-2.8-0.6-5.6-1.6-5.6-4.7
		c0-4.5,3.9-5.6,7.6-5.6c3.8,0,7.4,1.3,7.8,5.6h-4.6c-0.1-1.9-1.6-2.4-3.3-2.4c-1.1,0-2.7,0.2-2.7,1.6c0,1.7,2.8,2,5.5,2.6
		c2.8,0.6,5.6,1.7,5.6,4.9c0,4.6-4,6.1-8,6.1c-4.1,0-8.1-1.5-8.3-6.2H398.1z"/>
	<path class="st16" d="M417.6,635.1h-4.8v-4h4.8V635.1z M412.8,637.8h4.8v17.6h-4.8V637.8z"/>
	<path class="st16" d="M438.3,654.3c0,2.9-1.1,7.8-9.1,7.8c-3.5,0-7.5-1.7-7.8-5.6h4.8c0.4,1.8,1.9,2.4,3.6,2.4
		c2.7,0,3.9-1.8,3.9-4.4v-2.3h-0.1c-1.1,1.9-3.1,2.7-5.3,2.7c-5.3,0-7.5-4-7.5-8.8c0-4.6,2.7-8.7,7.5-8.7c2.3,0,4,0.8,5.2,2.8h0.1
		v-2.3h4.6V654.3z M433.7,646.4c0-2.9-1-5.4-4.1-5.4c-2.7,0-3.9,2.4-3.9,5c0,2.5,0.9,5.3,3.9,5.3
		C432.4,651.2,433.7,648.9,433.7,646.4z"/>
	<path class="st16" d="M442.2,637.8h4.6v2.4h0.1c1.2-2,3.3-2.9,5.4-2.9c5.1,0,6.4,2.9,6.4,7.2v10.8h-4.8v-9.9c0-2.9-0.8-4.3-3.1-4.3
		c-2.6,0-3.7,1.5-3.7,5v9.2h-4.8V637.8z"/>
	<path class="st16" d="M472.3,631.1h5.3v24.3h-5.3V631.1z"/>
	<path class="st16" d="M481.8,637.8h4.6v2.4h0.1c1.2-2,3.3-2.9,5.4-2.9c5.1,0,6.4,2.9,6.4,7.2v10.8h-4.8v-9.9c0-2.9-0.8-4.3-3.1-4.3
		c-2.6,0-3.7,1.5-3.7,5v9.2h-4.8V637.8z"/>
	<path class="st16" d="M502,637.8h4.6v2.2h0.1c1.2-1.9,3.1-2.7,5.2-2.7c5.5,0,8,4.5,8,9.5c0,4.7-2.5,9.1-7.7,9.1
		c-2.1,0-4.1-0.9-5.3-2.7h-0.1v8.4H502V637.8z M515,646.6c0-2.8-1.1-5.7-4.2-5.7c-3.2,0-4.2,2.8-4.2,5.7s1.1,5.6,4.2,5.6
		C514,652.2,515,649.5,515,646.6z"/>
	<path class="st16" d="M539.3,655.4h-4.6v-2.4h-0.1c-1.2,2-3.3,2.9-5.4,2.9c-5.1,0-6.4-2.9-6.4-7.2v-10.8h4.8v9.9
		c0,2.9,0.8,4.3,3.1,4.3c2.6,0,3.7-1.5,3.7-5v-9.2h4.8V655.4z"/>
	<path class="st16" d="M549,637.8h3.5v3.2H549v8.7c0,1.6,0.4,2,2,2c0.5,0,1.1,0,1.5-0.1v3.8c-0.8,0.1-1.9,0.2-2.8,0.2
		c-3,0-5.5-0.6-5.5-4.2V641h-2.9v-3.2h2.9v-5.3h4.8V637.8z"/>
</g>
<polygon class="st14" points="723.9,353.4 746.4,378 768.8,353.4 762.4,346.5 746.4,364.1 730.3,346.5 "/>
<g class="st17">
</g>
<g>
	<g>
		<path class="st18" d="M688,588.7h9.8v2.7H688V588.7z"/>
		<path class="st18" d="M721.1,575.2h3.2v21.6h12.9v2.7h-16.1V575.2z"/>
		<path class="st18" d="M755.1,599.4c-0.5,0.3-1.2,0.5-2.1,0.5c-1.5,0-2.4-0.8-2.4-2.7c-1.6,1.9-3.7,2.7-6.2,2.7
			c-3.2,0-5.8-1.4-5.8-4.9c0-4,3-4.9,5.9-5.4c3.2-0.6,5.9-0.4,5.9-2.6c0-2.5-2.1-2.9-3.9-2.9c-2.4,0-4.2,0.7-4.4,3.3h-2.9
			c0.2-4.4,3.5-5.9,7.4-5.9c3.2,0,6.6,0.7,6.6,4.8v9c0,1.4,0,2,0.9,2c0.3,0,0.6-0.1,0.9-0.2V599.4z M750.4,590.4
			c-2.2,1.7-8.8,0-8.8,4.4c0,1.9,1.6,2.6,3.4,2.6c3.8,0,5.4-2.3,5.4-4V590.4z"/>
		<path class="st18" d="M757.9,575.2h2.9v9.1h0.1c1-1.9,3.2-2.8,5.6-2.8c5.4,0,8.1,4.3,8.1,9.2c0,5-2.7,9.1-8,9.1
			c-1.8,0-4.4-0.7-5.7-2.8h-0.1v2.3h-2.9V575.2z M766.1,584c-3.9,0-5.4,3.4-5.4,6.6c0,3.4,1.6,6.7,5.5,6.7c3.9,0,5.3-3.4,5.3-6.8
			C771.5,587.2,769.8,584,766.1,584z"/>
		<path class="st18" d="M793,593.9c-0.8,3.9-3.5,6-7.5,6c-5.6,0-8.3-3.9-8.4-9.2c0-5.3,3.5-9.1,8.3-9.1c6.2,0,8.1,5.8,8,10.1h-13.2
			c-0.1,3.1,1.6,5.8,5.5,5.8c2.4,0,4-1.1,4.6-3.4H793z M790.2,589c-0.2-2.8-2.2-5-5.1-5c-3,0-4.9,2.2-5,5H790.2z"/>
		<path class="st18" d="M796.4,575.2h2.9v24.3h-2.9V575.2z"/>
		<path class="st18" d="M828.8,599.4c-0.5,0.3-1.2,0.5-2.1,0.5c-1.5,0-2.4-0.8-2.4-2.7c-1.6,1.9-3.7,2.7-6.2,2.7
			c-3.2,0-5.8-1.4-5.8-4.9c0-4,3-4.9,5.9-5.4c3.2-0.6,5.9-0.4,5.9-2.6c0-2.5-2.1-2.9-3.9-2.9c-2.4,0-4.2,0.7-4.4,3.3H813
			c0.2-4.4,3.5-5.9,7.4-5.9c3.2,0,6.6,0.7,6.6,4.8v9c0,1.4,0,2,0.9,2c0.3,0,0.6-0.1,0.9-0.2V599.4z M824.1,590.4
			c-2.2,1.7-8.8,0-8.8,4.4c0,1.9,1.6,2.6,3.4,2.6c3.8,0,5.4-2.3,5.4-4V590.4z"/>
		<path class="st18" d="M831.5,581.9h2.7v2.8h0.1c1.2-2.2,3.2-3.2,5.7-3.2c4.6,0,6.1,2.7,6.1,6.4v11.6h-2.9v-11.9
			c0-2.2-1.4-3.5-3.6-3.5c-3.5,0-5.2,2.3-5.2,5.5v9.9h-2.9V581.9z"/>
		<path class="st18" d="M866.1,599.5h-2.9v-2.4h-0.1c-1,1.9-3.2,2.8-5.6,2.8c-5.4,0-8.1-4.3-8.1-9.2s2.7-9.1,8-9.1
			c1.8,0,4.4,0.7,5.7,2.8h0.1v-9h2.9V599.5z M857.9,597.3c3.9,0,5.4-3.4,5.4-6.6c0-3.4-1.6-6.7-5.5-6.7c-3.9,0-5.3,3.4-5.3,6.8
			C852.5,594.1,854.2,597.3,857.9,597.3z"/>
		<path class="st18" d="M880.2,575.2h2.9v24.3h-2.9V575.2z"/>
		<path class="st18" d="M903.1,599.4c-0.5,0.3-1.2,0.5-2.1,0.5c-1.5,0-2.4-0.8-2.4-2.7c-1.6,1.9-3.7,2.7-6.2,2.7
			c-3.2,0-5.8-1.4-5.8-4.9c0-4,3-4.9,5.9-5.4c3.2-0.6,5.9-0.4,5.9-2.6c0-2.5-2.1-2.9-3.9-2.9c-2.4,0-4.2,0.7-4.4,3.3h-2.9
			c0.2-4.4,3.5-5.9,7.4-5.9c3.2,0,6.6,0.7,6.6,4.8v9c0,1.4,0,2,0.9,2c0.3,0,0.6-0.1,0.9-0.2V599.4z M898.4,590.4
			c-2.2,1.7-8.8,0-8.8,4.4c0,1.9,1.6,2.6,3.4,2.6c3.8,0,5.4-2.3,5.4-4V590.4z"/>
		<path class="st18" d="M905.9,575.2h2.9v9.1h0.1c1-1.9,3.2-2.8,5.6-2.8c5.4,0,8.1,4.3,8.1,9.2c0,5-2.7,9.1-8,9.1
			c-1.8,0-4.4-0.7-5.7-2.8h-0.1v2.3h-2.9V575.2z M914.1,584c-3.9,0-5.4,3.4-5.4,6.6c0,3.4,1.6,6.7,5.5,6.7c3.9,0,5.3-3.4,5.3-6.8
			C919.5,587.2,917.8,584,914.1,584z"/>
		<path class="st18" d="M941,593.9c-0.8,3.9-3.5,6-7.5,6c-5.6,0-8.3-3.9-8.4-9.2c0-5.3,3.5-9.1,8.3-9.1c6.2,0,8.1,5.8,8,10.1h-13.2
			c-0.1,3.1,1.6,5.8,5.5,5.8c2.4,0,4-1.1,4.6-3.4H941z M938.2,589c-0.2-2.8-2.2-5-5.1-5c-3,0-4.9,2.2-5,5H938.2z"/>
		<path class="st18" d="M944.4,575.2h2.9v24.3h-2.9V575.2z"/>
		<path class="st18" d="M954.8,578.7h-2.9v-3.5h2.9V578.7z M951.9,581.9h2.9v17.6h-2.9V581.9z"/>
		<path class="st18" d="M959.3,581.9h2.7v2.8h0.1c1.2-2.2,3.2-3.2,5.7-3.2c4.6,0,6.1,2.7,6.1,6.4v11.6H971v-11.9
			c0-2.2-1.4-3.5-3.6-3.5c-3.5,0-5.2,2.3-5.2,5.5v9.9h-2.9V581.9z"/>
		<path class="st18" d="M993.4,598c0,5.7-2.6,8.6-8.2,8.6c-3.3,0-7.1-1.4-7.3-5.2h2.9c0.1,2.1,2.7,2.9,4.6,2.9
			c3.8,0,5.3-2.7,5.3-6.7v-1.2h-0.1c-1,2.1-3.2,3.2-5.5,3.2c-5.2,0-7.9-4.1-7.9-8.9c0-4.1,2-9.3,8.1-9.3c2.2,0,4.2,1,5.2,2.9h0v-2.5
			h2.7V598z M990.5,590.3c0-3.1-1.4-6.3-5-6.3c-3.7,0-5.2,3-5.2,6.4c0,3.2,1.2,6.7,5,6.7S990.5,593.6,990.5,590.3z"/>
		<path class="st18" d="M1012,606.2c-3.3-5.1-5.3-10-5.3-15.9c0-5.3,1.8-11,5.3-15.7h2.2c-3.3,5.1-4.5,10.1-4.5,15.7
			c0,5.7,1.3,10.7,4.5,15.9H1012z"/>
		<path class="st18" d="M1031,593.9c-0.8,3.9-3.5,6-7.5,6c-5.6,0-8.3-3.9-8.4-9.2c0-5.3,3.5-9.1,8.3-9.1c6.2,0,8.1,5.8,8,10.1h-13.2
			c-0.1,3.1,1.6,5.8,5.5,5.8c2.4,0,4-1.1,4.6-3.4H1031z M1028.2,589c-0.2-2.8-2.2-5-5.1-5c-3,0-4.9,2.2-5,5H1028.2z"/>
		<path class="st18" d="M1034.9,595.7h3.8v3.8h-3.8V595.7z"/>
		<path class="st18" d="M1058.9,598c0,5.7-2.6,8.6-8.2,8.6c-3.3,0-7.1-1.4-7.3-5.2h2.9c0.1,2.1,2.7,2.9,4.6,2.9
			c3.8,0,5.3-2.7,5.3-6.7v-1.2h-0.1c-1,2.1-3.2,3.2-5.5,3.2c-5.2,0-7.9-4.1-7.9-8.9c0-4.1,2-9.3,8.1-9.3c2.2,0,4.2,1,5.2,2.9h0v-2.5
			h2.7V598z M1056,590.3c0-3.1-1.4-6.3-5-6.3c-3.7,0-5.2,3-5.2,6.4c0,3.2,1.2,6.7,5,6.7C1054.6,597.1,1056,593.6,1056,590.3z"/>
		<path class="st18" d="M1063.9,595.7h3.8v3.8h-3.8V595.7z"/>
		<path class="st18" d="M1073.3,595.7h3.8v3.4c0,2.6-1.1,4.6-3.7,5.3v-1.7c1.5-0.5,2.1-2.2,2-3.3h-2V595.7z"/>
		<path class="st18" d="M733.4,631.5c0,6.2-3.5,9.3-9.6,9.3c-6.3,0-10-2.9-10-9.3V616h3.2v15.5c0,4.3,2.4,6.6,6.7,6.6
			c4.1,0,6.3-2.3,6.3-6.6V616h3.2V631.5z"/>
		<path class="st18" d="M739.8,634.7c0.1,2.6,2.4,3.4,4.7,3.4c1.8,0,4.2-0.4,4.2-2.6c0-4.5-11.5-1.5-11.5-8.2c0-3.5,3.5-5,6.6-5
			c3.9,0,6.9,1.2,7.2,5.5h-2.9c-0.2-2.2-2.2-3-4.1-3c-1.7,0-3.7,0.5-3.7,2.2c0,2,3.1,2.4,5.7,3.1c2.9,0.6,5.7,1.6,5.7,5
			c0,4.2-3.9,5.5-7.5,5.5c-3.9,0-7.3-1.6-7.4-5.9H739.8z"/>
		<path class="st18" d="M770.1,634.7c-0.8,3.9-3.5,6-7.5,6c-5.6,0-8.3-3.9-8.4-9.2c0-5.3,3.5-9.1,8.3-9.1c6.2,0,8.1,5.8,8,10.1
			h-13.2c-0.1,3.1,1.6,5.8,5.5,5.8c2.4,0,4-1.1,4.6-3.4H770.1z M767.3,629.8c-0.2-2.8-2.2-5-5.1-5c-3,0-4.9,2.2-5,5H767.3z"/>
		<path class="st18" d="M773.2,622.7h2.7v3.7h0.1c1.4-2.9,3.3-4.2,6.5-4.1v3.1c-4.7,0-6.4,2.6-6.4,7.1v7.8h-2.9V622.7z"/>
		<path class="st18" d="M794.1,622.7h2.7v2.6h0.1c1.3-2,3.2-3,5.7-3c2.2,0,4.1,0.8,4.8,3c1.2-1.9,3.2-3,5.5-3c3.5,0,5.8,1.5,5.8,5.1
			v12.9h-2.9v-11.5c0-2.2-0.6-3.9-3.4-3.9c-2.8,0-4.6,1.8-4.6,4.5v10.9H805v-11.5c0-2.3-0.7-3.9-3.3-3.9c-3.4,0-4.7,3.1-4.7,4.5
			v10.9h-2.9V622.7z"/>
		<path class="st18" d="M838.7,640.2c-0.5,0.3-1.2,0.5-2.1,0.5c-1.5,0-2.4-0.8-2.4-2.7c-1.6,1.9-3.7,2.7-6.2,2.7
			c-3.2,0-5.8-1.4-5.8-4.9c0-4,3-4.9,5.9-5.4c3.2-0.6,5.9-0.4,5.9-2.6c0-2.5-2.1-2.9-3.9-2.9c-2.4,0-4.2,0.7-4.4,3.3h-2.9
			c0.2-4.4,3.5-5.9,7.4-5.9c3.2,0,6.6,0.7,6.6,4.8v9c0,1.4,0,2,0.9,2c0.3,0,0.6-0.1,0.9-0.2V640.2z M834,631.2
			c-2.2,1.7-8.8,0-8.8,4.4c0,1.9,1.6,2.6,3.4,2.6c3.8,0,5.4-2.3,5.4-4V631.2z"/>
		<path class="st18" d="M841.4,622.7h2.7v2.8h0.1c1.2-2.2,3.2-3.2,5.7-3.2c4.6,0,6.1,2.7,6.1,6.4v11.6H853v-11.9
			c0-2.2-1.4-3.5-3.6-3.5c-3.5,0-5.2,2.3-5.2,5.5v9.9h-2.9V622.7z"/>
		<path class="st18" d="M874.8,640.3h-2.7v-2.8H872c-1.2,2.2-3.2,3.2-5.7,3.2c-4.6,0-6.1-2.7-6.1-6.4v-11.6h2.9v11.9
			c0,2.2,1.4,3.5,3.6,3.5c3.5,0,5.2-2.3,5.2-5.5v-9.9h2.9V640.3z"/>
		<path class="st18" d="M894.7,640.2c-0.5,0.3-1.2,0.5-2.1,0.5c-1.5,0-2.4-0.8-2.4-2.7c-1.6,1.9-3.7,2.7-6.2,2.7
			c-3.2,0-5.8-1.4-5.8-4.9c0-4,3-4.9,5.9-5.4c3.2-0.6,5.9-0.4,5.9-2.6c0-2.5-2.1-2.9-3.9-2.9c-2.4,0-4.2,0.7-4.4,3.3h-2.9
			c0.2-4.4,3.5-5.9,7.4-5.9c3.2,0,6.6,0.7,6.6,4.8v9c0,1.4,0,2,0.9,2c0.3,0,0.6-0.1,0.9-0.2V640.2z M890,631.2
			c-2.2,1.7-8.8,0-8.8,4.4c0,1.9,1.6,2.6,3.4,2.6c3.8,0,5.4-2.3,5.4-4V631.2z"/>
		<path class="st18" d="M897.6,616h2.9v24.3h-2.9V616z"/>
		<path class="st18" d="M905.6,636.5h3.8v3.4c0,2.6-1.1,4.6-3.7,5.3v-1.7c1.5-0.5,2.1-2.2,2-3.3h-2V636.5z"/>
		<path class="st18" d="M924.5,616h3.2v24.3h-3.2V616z"/>
		<path class="st18" d="M933.2,616h8.8c2.1,0,5,0,6.4,0.9c1.6,1,2.9,2.7,2.9,5.1c0,2.6-1.3,4.5-3.6,5.4v0.1c3,0.6,4.6,2.9,4.6,5.8
			c0,3.5-2.6,7-7.4,7h-11.7V616z M936.4,626.4h6.5c3.7,0,5.2-1.3,5.2-3.9c0-3.4-2.3-3.8-5.2-3.8h-6.5V626.4z M936.4,637.6h8.1
			c2.8,0,4.6-1.7,4.6-4.4c0-3.2-2.5-4-5.3-4h-7.4V637.6z"/>
		<path class="st18" d="M956.5,616h4.4l7.6,20.4l7.7-20.4h4.4v24.3h-3.1v-20.2h-0.1l-7.6,20.2h-2.8l-7.6-20.2h-0.1v20.2h-3.1V616z"
			/>
		<path class="st18" d="M995.2,616h2.9v24.3h-2.9V616z"/>
		<path class="st18" d="M1010.2,622.3c5.6,0,8.5,4,8.5,9.2c0,5.1-3,9.2-8.5,9.2s-8.5-4-8.5-9.2
			C1001.6,626.3,1004.6,622.3,1010.2,622.3z M1010.2,638.1c3,0,5.5-2.4,5.5-6.6c0-4.2-2.4-6.7-5.5-6.7c-3,0-5.5,2.4-5.5,6.7
			C1004.7,635.8,1007.1,638.1,1010.2,638.1z"/>
		<path class="st18" d="M1037.3,638.8c0,5.7-2.6,8.6-8.2,8.6c-3.3,0-7.1-1.4-7.3-5.2h2.9c0.1,2.1,2.7,2.9,4.6,2.9
			c3.8,0,5.3-2.7,5.3-6.7v-1.2h-0.1c-1,2.1-3.2,3.2-5.5,3.2c-5.2,0-7.9-4.1-7.9-8.9c0-4.1,2-9.3,8.1-9.3c2.2,0,4.2,1,5.2,2.9h0v-2.5
			h2.7V638.8z M1034.4,631.1c0-3.1-1.4-6.3-5-6.3c-3.7,0-5.2,3-5.2,6.4c0,3.2,1.2,6.7,5,6.7C1033,637.9,1034.4,634.4,1034.4,631.1z"
			/>
		<path class="st18" d="M1049.2,622.3c5.6,0,8.5,4,8.5,9.2c0,5.1-3,9.2-8.5,9.2c-5.6,0-8.5-4-8.5-9.2
			C1040.7,626.3,1043.6,622.3,1049.2,622.3z M1049.2,638.1c3,0,5.5-2.4,5.5-6.6c0-4.2-2.4-6.7-5.5-6.7c-3,0-5.5,2.4-5.5,6.7
			C1043.7,635.8,1046.2,638.1,1049.2,638.1z"/>
		<path class="st18" d="M1058.6,647c3.3-5.1,4.5-10.1,4.5-15.7c0-5.7-1.3-10.7-4.5-15.9h2.2c3.3,5.1,5.3,10,5.3,15.9
			c0,5.3-1.8,11-5.3,15.7H1058.6z"/>
		<path class="st18" d="M688,670.3h9.8v2.7H688V670.3z"/>
		<path class="st18" d="M721.3,656.8h3.2v24.3h-3.2V656.8z"/>
		<path class="st18" d="M729.5,663.5h2.7v2.8h0.1c1.2-2.2,3.2-3.2,5.7-3.2c4.6,0,6.1,2.7,6.1,6.4v11.6h-2.9v-11.9
			c0-2.2-1.4-3.5-3.6-3.5c-3.5,0-5.2,2.3-5.2,5.5v9.9h-2.9V663.5z"/>
		<path class="st18" d="M752.4,663.5h3.5v2.5h-3.5V677c0,1.4,0.4,1.6,2.2,1.6h1.3v2.5h-2.2c-3,0-4.2-0.6-4.2-3.8v-11.2h-3v-2.5h3
			v-5.3h2.9V663.5z"/>
		<path class="st18" d="M774.1,675.5c-0.8,3.9-3.5,6-7.5,6c-5.6,0-8.3-3.9-8.4-9.2c0-5.3,3.5-9.1,8.3-9.1c6.2,0,8.1,5.8,8,10.1
			h-13.2c-0.1,3.1,1.6,5.8,5.5,5.8c2.4,0,4-1.1,4.6-3.4H774.1z M771.3,670.6c-0.2-2.8-2.2-5-5.1-5c-3,0-4.9,2.2-5,5H771.3z"/>
		<path class="st18" d="M777.2,663.5h2.7v3.7h0.1c1.4-2.9,3.3-4.2,6.5-4.1v3.1c-4.7,0-6.4,2.6-6.4,7.1v7.8h-2.9V663.5z"/>
		<path class="st18" d="M789.8,666.1h-3v-2.5h3v-2.6c0-2.9,1.7-4.4,4.9-4.4c0.5,0,1.3,0.1,1.9,0.3v2.5c-0.5-0.2-1.1-0.2-1.6-0.2
			c-1.4,0-2.2,0.4-2.2,2v2.4h3.4v2.5h-3.4v15h-2.9V666.1z"/>
		<path class="st18" d="M814.3,681c-0.5,0.3-1.2,0.5-2.1,0.5c-1.5,0-2.4-0.8-2.4-2.7c-1.6,1.9-3.7,2.7-6.2,2.7
			c-3.2,0-5.8-1.4-5.8-4.9c0-4,3-4.9,5.9-5.4c3.2-0.6,5.9-0.4,5.9-2.6c0-2.5-2.1-2.9-3.9-2.9c-2.4,0-4.2,0.7-4.4,3.3h-2.9
			c0.2-4.4,3.5-5.9,7.4-5.9c3.2,0,6.6,0.7,6.6,4.8v9c0,1.4,0,2,0.9,2c0.3,0,0.6-0.1,0.9-0.2V681z M809.6,672c-2.2,1.7-8.8,0-8.8,4.4
			c0,1.9,1.6,2.6,3.4,2.6c3.8,0,5.4-2.3,5.4-4V672z"/>
		<path class="st18" d="M828.9,669.1c-0.4-2.2-1.9-3.5-4.4-3.5c-4.2,0-5.5,3.3-5.5,6.9c0,3.3,1.5,6.4,5.1,6.4c2.8,0,4.5-1.6,4.8-4.3
			h3c-0.6,4.3-3.3,6.8-7.8,6.8c-5.4,0-8.2-3.7-8.2-9c0-5.3,2.7-9.4,8.3-9.4c4,0,7.1,1.9,7.6,6.1H828.9z"/>
		<path class="st18" d="M850.2,675.5c-0.8,3.9-3.5,6-7.5,6c-5.6,0-8.3-3.9-8.4-9.2c0-5.3,3.5-9.1,8.3-9.1c6.2,0,8.1,5.8,8,10.1
			h-13.2c-0.1,3.1,1.6,5.8,5.5,5.8c2.4,0,4-1.1,4.6-3.4H850.2z M847.4,670.6c-0.2-2.8-2.2-5-5.1-5c-3,0-4.9,2.2-5,5H847.4z"/>
		<path class="st18" d="M880.3,681.1h-3.1l-3.6-14h-0.1l-3.5,14H867l-5.6-17.6h3.2l4,14.4h0.1l3.5-14.4h3.2l3.7,14.4h0.1l3.9-14.4h3
			L880.3,681.1z"/>
		<path class="st18" d="M891.8,660.3h-2.9v-3.5h2.9V660.3z M888.9,663.5h2.9v17.6h-2.9V663.5z"/>
		<path class="st18" d="M900.3,663.5h3.5v2.5h-3.5V677c0,1.4,0.4,1.6,2.2,1.6h1.3v2.5h-2.2c-3,0-4.2-0.6-4.2-3.8v-11.2h-3v-2.5h3
			v-5.3h2.9V663.5z"/>
		<path class="st18" d="M907,656.8h2.9v9.3h0.1c0.9-2.1,3.5-3,5.5-3c4.6,0,6.1,2.7,6.1,6.4v11.6h-2.9v-11.9c0-2.2-1.4-3.5-3.6-3.5
			c-3.5,0-5.2,2.3-5.2,5.5v9.9H907V656.8z"/>
		<path class="st18" d="M942.9,663.1c5.6,0,8.5,4,8.5,9.2c0,5.1-3,9.2-8.5,9.2s-8.5-4-8.5-9.2C934.4,667.1,937.3,663.1,942.9,663.1z
			 M942.9,678.9c3,0,5.5-2.4,5.5-6.6c0-4.2-2.4-6.7-5.5-6.7s-5.5,2.4-5.5,6.7C937.4,676.6,939.9,678.9,942.9,678.9z"/>
		<path class="st18" d="M958.8,663.5h3.5v2.5h-3.5V677c0,1.4,0.4,1.6,2.2,1.6h1.3v2.5h-2.2c-3,0-4.2-0.6-4.2-3.8v-11.2h-3v-2.5h3
			v-5.3h2.9V663.5z"/>
		<path class="st18" d="M965.5,656.8h2.9v9.3h0.1c0.9-2.1,3.5-3,5.5-3c4.6,0,6.1,2.7,6.1,6.4v11.6h-2.9v-11.9c0-2.2-1.4-3.5-3.6-3.5
			c-3.5,0-5.2,2.3-5.2,5.5v9.9h-2.9V656.8z"/>
		<path class="st18" d="M999.4,675.5c-0.8,3.9-3.5,6-7.5,6c-5.6,0-8.3-3.9-8.4-9.2c0-5.3,3.5-9.1,8.3-9.1c6.2,0,8.1,5.8,8,10.1
			h-13.2c-0.1,3.1,1.6,5.8,5.5,5.8c2.4,0,4-1.1,4.6-3.4H999.4z M996.7,670.6c-0.2-2.8-2.2-5-5.1-5c-3,0-4.9,2.2-5,5H996.7z"/>
		<path class="st18" d="M1002.6,663.5h2.7v3.7h0.1c1.4-2.9,3.3-4.2,6.5-4.1v3.1c-4.7,0-6.4,2.6-6.4,7.1v7.8h-2.9V663.5z"/>
		<path class="st18" d="M715.3,716.3c0.1,2.6,2.4,3.4,4.7,3.4c1.8,0,4.2-0.4,4.2-2.6c0-4.5-11.5-1.5-11.5-8.2c0-3.5,3.5-5,6.6-5
			c3.9,0,6.9,1.2,7.2,5.5h-2.9c-0.2-2.2-2.2-3-4.1-3c-1.7,0-3.7,0.5-3.7,2.2c0,2,3.1,2.4,5.7,3.1c2.9,0.6,5.7,1.6,5.7,5
			c0,4.2-3.9,5.5-7.5,5.5c-3.9,0-7.3-1.6-7.4-5.9H715.3z"/>
		<path class="st18" d="M737.4,724.2c-1.4,3.4-2.5,4.7-5.1,4.7c-0.7,0-1.4-0.1-2-0.3V726c0.5,0.2,1.1,0.4,1.7,0.4
			c1.2,0,1.8-0.5,2.4-1.6l1.2-3l-7-17.5h3.3l5.1,14.4h0.1l4.9-14.4h3.1L737.4,724.2z"/>
		<path class="st18" d="M749.3,716.3c0.1,2.6,2.4,3.4,4.7,3.4c1.8,0,4.2-0.4,4.2-2.6c0-4.5-11.5-1.5-11.5-8.2c0-3.5,3.5-5,6.6-5
			c3.9,0,6.9,1.2,7.2,5.5h-2.9c-0.2-2.2-2.2-3-4.1-3c-1.7,0-3.7,0.5-3.7,2.2c0,2,3.1,2.4,5.7,3.1c2.9,0.6,5.7,1.6,5.7,5
			c0,4.2-3.9,5.5-7.5,5.5c-3.9,0-7.3-1.6-7.4-5.9H749.3z"/>
		<path class="st18" d="M768.5,704.3h3.5v2.5h-3.5v10.9c0,1.4,0.4,1.6,2.2,1.6h1.3v2.5h-2.2c-3,0-4.2-0.6-4.2-3.8v-11.2h-3v-2.5h3
			V699h2.9V704.3z"/>
		<path class="st18" d="M790.2,716.3c-0.8,3.9-3.5,6-7.5,6c-5.6,0-8.3-3.9-8.4-9.2c0-5.3,3.5-9.1,8.3-9.1c6.2,0,8.1,5.8,8,10.1
			h-13.2c-0.1,3.1,1.6,5.8,5.5,5.8c2.4,0,4-1.1,4.6-3.4H790.2z M787.4,711.4c-0.2-2.8-2.2-5-5.1-5c-3,0-4.9,2.2-5,5H787.4z"/>
		<path class="st18" d="M793.5,704.3h2.7v2.6h0.1c1.3-2,3.2-3,5.7-3c2.2,0,4.1,0.8,4.8,3c1.2-1.9,3.2-3,5.5-3c3.5,0,5.8,1.5,5.8,5.1
			v12.9h-2.9v-11.5c0-2.2-0.6-3.9-3.4-3.9c-2.8,0-4.6,1.8-4.6,4.5v10.9h-2.9v-11.5c0-2.3-0.7-3.9-3.3-3.9c-3.4,0-4.7,3.1-4.7,4.5
			v10.9h-2.9V704.3z"/>
		<path class="st18" d="M824.3,716.3c0.1,2.6,2.4,3.4,4.7,3.4c1.8,0,4.2-0.4,4.2-2.6c0-4.5-11.5-1.5-11.5-8.2c0-3.5,3.5-5,6.6-5
			c3.9,0,6.9,1.2,7.2,5.5h-2.9c-0.2-2.2-2.2-3-4.1-3c-1.7,0-3.7,0.5-3.7,2.2c0,2,3.1,2.4,5.7,3.1c2.9,0.6,5.7,1.6,5.7,5
			c0,4.2-3.9,5.5-7.5,5.5c-3.9,0-7.3-1.6-7.4-5.9H824.3z"/>
		<path class="st18" d="M688,751.9h9.8v2.7H688V751.9z"/>
		<path class="st18" d="M721.1,738.4h15.9v2.7h-12.7v7.7h11.2v2.7h-11.2v11.1h-3.2V738.4z"/>
		<path class="st18" d="M754.7,762.7H752v-2.8h-0.1c-1.2,2.2-3.2,3.2-5.7,3.2c-4.6,0-6.1-2.7-6.1-6.4v-11.6h2.9V757
			c0,2.2,1.4,3.5,3.6,3.5c3.5,0,5.2-2.3,5.2-5.5v-9.9h2.9V762.7z"/>
		<path class="st18" d="M759.1,745.1h2.7v2.8h0.1c1.2-2.2,3.2-3.2,5.7-3.2c4.6,0,6.1,2.7,6.1,6.4v11.6h-2.9v-11.9
			c0-2.2-1.4-3.5-3.6-3.5c-3.5,0-5.2,2.3-5.2,5.5v9.9h-2.9V745.1z"/>
		<path class="st18" d="M789.9,750.7c-0.4-2.2-1.9-3.5-4.4-3.5c-4.2,0-5.5,3.3-5.5,6.9c0,3.3,1.5,6.4,5.1,6.4c2.8,0,4.5-1.6,4.8-4.3
			h3c-0.6,4.3-3.3,6.8-7.8,6.8c-5.4,0-8.2-3.7-8.2-9s2.7-9.4,8.3-9.4c4,0,7.1,1.9,7.6,6.1H789.9z"/>
		<path class="st18" d="M800.2,745.1h3.5v2.5h-3.5v10.9c0,1.4,0.4,1.6,2.2,1.6h1.3v2.5h-2.2c-3,0-4.2-0.6-4.2-3.8v-11.2h-3v-2.5h3
			v-5.3h2.9V745.1z"/>
		<path class="st18" d="M810,741.9h-2.9v-3.5h2.9V741.9z M807.1,745.1h2.9v17.6h-2.9V745.1z"/>
		<path class="st18" d="M822.1,744.7c5.6,0,8.5,4,8.5,9.2c0,5.1-3,9.2-8.5,9.2s-8.5-4-8.5-9.2C813.5,748.7,816.5,744.7,822.1,744.7z
			 M822.1,760.5c3,0,5.5-2.4,5.5-6.6c0-4.2-2.4-6.7-5.5-6.7s-5.5,2.4-5.5,6.7C816.6,758.2,819,760.5,822.1,760.5z"/>
		<path class="st18" d="M834,745.1h2.7v2.8h0.1c1.2-2.2,3.2-3.2,5.7-3.2c4.6,0,6.1,2.7,6.1,6.4v11.6h-2.9v-11.9
			c0-2.2-1.4-3.5-3.6-3.5c-3.5,0-5.2,2.3-5.2,5.5v9.9H834V745.1z"/>
		<path class="st18" d="M868.5,762.6c-0.5,0.3-1.2,0.5-2.1,0.5c-1.5,0-2.4-0.8-2.4-2.7c-1.6,1.9-3.7,2.7-6.2,2.7
			c-3.2,0-5.8-1.4-5.8-4.9c0-4,3-4.9,5.9-5.4c3.2-0.6,5.9-0.4,5.9-2.6c0-2.5-2.1-2.9-3.9-2.9c-2.4,0-4.2,0.7-4.4,3.3h-2.9
			c0.2-4.4,3.5-5.9,7.4-5.9c3.2,0,6.6,0.7,6.6,4.8v9c0,1.4,0,2,0.9,2c0.3,0,0.6-0.1,0.9-0.2V762.6z M863.8,753.6
			c-2.2,1.7-8.8,0-8.8,4.4c0,1.9,1.6,2.6,3.4,2.6c3.8,0,5.4-2.3,5.4-4V753.6z"/>
		<path class="st18" d="M871.3,738.4h2.9v24.3h-2.9V738.4z"/>
		<path class="st18" d="M903.7,762.6c-0.5,0.3-1.2,0.5-2.1,0.5c-1.5,0-2.4-0.8-2.4-2.7c-1.6,1.9-3.7,2.7-6.2,2.7
			c-3.2,0-5.8-1.4-5.8-4.9c0-4,3-4.9,5.9-5.4c3.2-0.6,5.9-0.4,5.9-2.6c0-2.5-2.1-2.9-3.9-2.9c-2.4,0-4.2,0.7-4.4,3.3h-2.9
			c0.2-4.4,3.5-5.9,7.4-5.9c3.2,0,6.6,0.7,6.6,4.8v9c0,1.4,0,2,0.9,2c0.3,0,0.6-0.1,0.9-0.2V762.6z M899,753.6
			c-2.2,1.7-8.8,0-8.8,4.4c0,1.9,1.6,2.6,3.4,2.6c3.8,0,5.4-2.3,5.4-4V753.6z"/>
		<path class="st18" d="M906.4,745.1h2.7v2.8h0.1c1.2-2.2,3.2-3.2,5.7-3.2c4.6,0,6.1,2.7,6.1,6.4v11.6h-2.9v-11.9
			c0-2.2-1.4-3.5-3.6-3.5c-3.5,0-5.2,2.3-5.2,5.5v9.9h-2.9V745.1z"/>
		<path class="st18" d="M941,762.7h-2.9v-2.4h-0.1c-1,1.9-3.2,2.8-5.6,2.8c-5.4,0-8.1-4.3-8.1-9.2c0-5,2.7-9.1,8-9.1
			c1.8,0,4.4,0.7,5.7,2.8h0.1v-9h2.9V762.7z M932.9,760.5c3.9,0,5.4-3.4,5.4-6.6c0-3.4-1.6-6.7-5.5-6.7c-3.9,0-5.3,3.4-5.3,6.8
			C927.4,757.3,929.1,760.5,932.9,760.5z"/>
		<path class="st18" d="M966.9,750.7c-0.4-2.2-1.9-3.5-4.4-3.5c-4.2,0-5.5,3.3-5.5,6.9c0,3.3,1.5,6.4,5.1,6.4c2.8,0,4.5-1.6,4.8-4.3
			h3c-0.6,4.3-3.3,6.8-7.8,6.8c-5.4,0-8.2-3.7-8.2-9s2.7-9.4,8.3-9.4c4,0,7.1,1.9,7.6,6.1H966.9z"/>
		<path class="st18" d="M988.8,762.6c-0.5,0.3-1.2,0.5-2.1,0.5c-1.5,0-2.4-0.8-2.4-2.7c-1.6,1.9-3.7,2.7-6.2,2.7
			c-3.2,0-5.8-1.4-5.8-4.9c0-4,3-4.9,5.9-5.4c3.2-0.6,5.9-0.4,5.9-2.6c0-2.5-2.1-2.9-3.9-2.9c-2.4,0-4.2,0.7-4.4,3.3h-2.9
			c0.2-4.4,3.5-5.9,7.4-5.9c3.2,0,6.6,0.7,6.6,4.8v9c0,1.4,0,2,0.9,2c0.3,0,0.6-0.1,0.9-0.2V762.6z M984.1,753.6
			c-2.2,1.7-8.8,0-8.8,4.4c0,1.9,1.6,2.6,3.4,2.6c3.8,0,5.4-2.3,5.4-4V753.6z"/>
		<path class="st18" d="M991.6,745.1h2.9v2.4h0.1c1-1.9,3.2-2.8,5.6-2.8c5.4,0,8.1,4.3,8.1,9.2c0,5-2.7,9.1-8,9.1
			c-1.8,0-4.4-0.7-5.7-2.8h-0.1v9.1h-2.9V745.1z M999.7,747.2c-3.9,0-5.4,3.4-5.4,6.6c0,3.4,1.6,6.7,5.5,6.7c3.9,0,5.3-3.4,5.3-6.8
			C1005.2,750.4,1003.5,747.2,999.7,747.2z"/>
		<path class="st18" d="M1027.2,762.6c-0.5,0.3-1.2,0.5-2.1,0.5c-1.5,0-2.4-0.8-2.4-2.7c-1.6,1.9-3.7,2.7-6.2,2.7
			c-3.2,0-5.8-1.4-5.8-4.9c0-4,3-4.9,5.9-5.4c3.2-0.6,5.9-0.4,5.9-2.6c0-2.5-2.1-2.9-3.9-2.9c-2.4,0-4.2,0.7-4.4,3.3h-2.9
			c0.2-4.4,3.5-5.9,7.4-5.9c3.2,0,6.6,0.7,6.6,4.8v9c0,1.4,0,2,0.9,2c0.3,0,0.6-0.1,0.9-0.2V762.6z M1022.5,753.6
			c-2.2,1.7-8.8,0-8.8,4.4c0,1.9,1.6,2.6,3.4,2.6c3.8,0,5.4-2.3,5.4-4V753.6z"/>
		<path class="st18" d="M1030,738.4h2.9v9.1h0.1c1-1.9,3.2-2.8,5.6-2.8c5.4,0,8.1,4.3,8.1,9.2c0,5-2.7,9.1-8,9.1
			c-1.8,0-4.4-0.7-5.7-2.8h-0.1v2.3h-2.9V738.4z M1038.1,747.2c-3.9,0-5.4,3.4-5.4,6.6c0,3.4,1.6,6.7,5.5,6.7c3.9,0,5.3-3.4,5.3-6.8
			C1043.6,750.4,1041.9,747.2,1038.1,747.2z"/>
		<path class="st18" d="M1053.1,741.9h-2.9v-3.5h2.9V741.9z M1050.2,745.1h2.9v17.6h-2.9V745.1z"/>
		<path class="st18" d="M1057.8,738.4h2.9v24.3h-2.9V738.4z"/>
		<path class="st18" d="M1068.2,741.9h-2.9v-3.5h2.9V741.9z M1065.3,745.1h2.9v17.6h-2.9V745.1z"/>
		<path class="st18" d="M1076.7,745.1h3.5v2.5h-3.5v10.9c0,1.4,0.4,1.6,2.2,1.6h1.3v2.5h-2.2c-3,0-4.2-0.6-4.2-3.8v-11.2h-3v-2.5h3
			v-5.3h2.9V745.1z"/>
		<path class="st18" d="M1090.3,765c-1.4,3.4-2.5,4.7-5.1,4.7c-0.7,0-1.4-0.1-2-0.3v-2.7c0.5,0.2,1.1,0.4,1.7,0.4
			c1.2,0,1.8-0.5,2.4-1.6l1.2-3l-7-17.5h3.3l5.1,14.4h0.1l4.9-14.4h3.1L1090.3,765z"/>
		<path class="st18" d="M688,792.7h9.8v2.7H688V792.7z"/>
		<path class="st18" d="M735.2,786.3c-0.4-3.5-2.7-5-6-5c-2.8,0-5.4,1-5.4,4.1c0,6,15.5,1.8,15.5,11.3c0,5.2-5.1,7.2-9.5,7.2
			c-5.4,0-10-2.7-10-8.6h3.1c0,4.1,3.4,5.8,7.1,5.8c2.9,0,6.2-0.9,6.2-4.4c0-6.7-15.5-2.3-15.5-11.2c0-4.9,4.4-7.1,8.8-7.1
			c5,0,8.8,2.3,8.9,7.7H735.2z"/>
		<path class="st18" d="M750.3,785.5c5.6,0,8.5,4,8.5,9.2c0,5.1-3,9.2-8.5,9.2s-8.5-4-8.5-9.2C741.7,789.5,744.7,785.5,750.3,785.5z
			 M750.3,801.3c3,0,5.5-2.4,5.5-6.6c0-4.2-2.4-6.7-5.5-6.7c-3,0-5.5,2.4-5.5,6.7C744.8,799,747.2,801.3,750.3,801.3z"/>
		<path class="st18" d="M763.4,788.5h-3v-2.5h3v-2.6c0-2.9,1.7-4.4,4.9-4.4c0.5,0,1.3,0.1,1.9,0.3v2.5c-0.5-0.2-1.1-0.2-1.6-0.2
			c-1.4,0-2.2,0.4-2.2,2v2.4h3.4v2.5h-3.4v15h-2.9V788.5z"/>
		<path class="st18" d="M776.3,785.9h3.5v2.5h-3.5v10.9c0,1.4,0.4,1.6,2.2,1.6h1.3v2.5h-2.2c-3,0-4.2-0.6-4.2-3.8v-11.2h-3v-2.5h3
			v-5.3h2.9V785.9z"/>
		<path class="st18" d="M800.4,803.5h-3.1l-3.6-14h-0.1l-3.5,14H787l-5.6-17.6h3.2l4,14.4h0.1l3.5-14.4h3.2l3.7,14.4h0.1l3.9-14.4h3
			L800.4,803.5z"/>
		<path class="st18" d="M824.3,803.4c-0.5,0.3-1.2,0.5-2.1,0.5c-1.5,0-2.4-0.8-2.4-2.7c-1.6,1.9-3.7,2.7-6.2,2.7
			c-3.2,0-5.8-1.4-5.8-4.9c0-4,3-4.9,5.9-5.4c3.2-0.6,5.9-0.4,5.9-2.6c0-2.5-2.1-2.9-3.9-2.9c-2.4,0-4.2,0.7-4.4,3.3h-2.9
			c0.2-4.4,3.5-5.9,7.4-5.9c3.2,0,6.6,0.7,6.6,4.8v9c0,1.4,0,2,0.9,2c0.3,0,0.6-0.1,0.9-0.2V803.4z M819.6,794.4
			c-2.2,1.7-8.8,0-8.8,4.4c0,1.9,1.6,2.6,3.4,2.6c3.8,0,5.4-2.3,5.4-4V794.4z"/>
		<path class="st18" d="M826.9,785.9h2.7v3.7h0.1c1.4-2.9,3.3-4.2,6.5-4.1v3.1c-4.7,0-6.4,2.6-6.4,7.1v7.8h-2.9V785.9z"/>
		<path class="st18" d="M853.3,797.9c-0.8,3.9-3.5,6-7.5,6c-5.6,0-8.3-3.9-8.4-9.2c0-5.3,3.5-9.1,8.3-9.1c6.2,0,8.1,5.8,8,10.1
			h-13.2c-0.1,3.1,1.6,5.8,5.5,5.8c2.4,0,4-1.1,4.6-3.4H853.3z M850.5,793c-0.2-2.8-2.2-5-5.1-5c-3,0-4.9,2.2-5,5H850.5z"/>
		<path class="st18" d="M881.7,803.5h-2.9v-2.4h-0.1c-1,1.9-3.2,2.8-5.6,2.8c-5.4,0-8.1-4.3-8.1-9.2s2.7-9.1,8-9.1
			c1.8,0,4.4,0.7,5.7,2.8h0.1v-9h2.9V803.5z M873.6,801.3c3.9,0,5.4-3.4,5.4-6.6c0-3.4-1.6-6.7-5.5-6.7c-3.9,0-5.3,3.4-5.3,6.8
			C868.1,798.1,869.8,801.3,873.6,801.3z"/>
		<path class="st18" d="M886.1,785.9h2.7v3.7h0.1c1.4-2.9,3.3-4.2,6.5-4.1v3.1c-4.7,0-6.4,2.6-6.4,7.1v7.8h-2.9V785.9z"/>
		<path class="st18" d="M900.6,782.7h-2.9v-3.5h2.9V782.7z M897.7,785.9h2.9v17.6h-2.9V785.9z"/>
		<path class="st18" d="M913,803.5h-3.1l-6.5-17.6h3.2l4.9,14.7h0.1l4.8-14.7h3L913,803.5z"/>
		<path class="st18" d="M937,797.9c-0.8,3.9-3.5,6-7.5,6c-5.6,0-8.3-3.9-8.4-9.2c0-5.3,3.5-9.1,8.3-9.1c6.2,0,8.1,5.8,8,10.1h-13.2
			c-0.1,3.1,1.6,5.8,5.5,5.8c2.4,0,4-1.1,4.6-3.4H937z M934.3,793c-0.2-2.8-2.2-5-5.1-5c-3,0-4.9,2.2-5,5H934.3z"/>
		<path class="st18" d="M940.3,785.9h2.7v2.8h0.1c1.2-2.2,3.2-3.2,5.7-3.2c4.6,0,6.1,2.7,6.1,6.4v11.6H952v-11.9
			c0-2.2-1.4-3.5-3.6-3.5c-3.5,0-5.2,2.3-5.2,5.5v9.9h-2.9V785.9z"/>
		<path class="st18" d="M729.1,844.2c-0.5,0.3-1.2,0.5-2.1,0.5c-1.5,0-2.4-0.8-2.4-2.7c-1.6,1.9-3.7,2.7-6.2,2.7
			c-3.2,0-5.8-1.4-5.8-4.9c0-4,3-4.9,5.9-5.4c3.2-0.6,5.9-0.4,5.9-2.6c0-2.5-2.1-2.9-3.9-2.9c-2.4,0-4.2,0.7-4.4,3.3h-2.9
			c0.2-4.4,3.5-5.9,7.4-5.9c3.2,0,6.6,0.7,6.6,4.8v9c0,1.4,0,2,0.9,2c0.3,0,0.6-0.1,0.9-0.2V844.2z M724.4,835.2
			c-2.2,1.7-8.8,0-8.8,4.4c0,1.9,1.6,2.6,3.4,2.6c3.8,0,5.4-2.3,5.4-4V835.2z"/>
		<path class="st18" d="M731.9,820h2.9v24.3h-2.9V820z"/>
		<path class="st18" d="M754.3,838.7c-0.8,3.9-3.5,6-7.5,6c-5.6,0-8.3-3.9-8.4-9.2c0-5.3,3.5-9.1,8.3-9.1c6.2,0,8.1,5.8,8,10.1
			h-13.2c-0.1,3.1,1.6,5.8,5.5,5.8c2.4,0,4-1.1,4.6-3.4H754.3z M751.5,833.8c-0.2-2.8-2.2-5-5.1-5c-3,0-4.9,2.2-5,5H751.5z"/>
		<path class="st18" d="M757.5,826.7h2.7v3.7h0.1c1.4-2.9,3.3-4.2,6.5-4.1v3.1c-4.7,0-6.4,2.6-6.4,7.1v7.8h-2.9V826.7z"/>
		<path class="st18" d="M772.9,826.7h3.5v2.5h-3.5v10.9c0,1.4,0.4,1.6,2.2,1.6h1.3v2.5h-2.2c-3,0-4.2-0.6-4.2-3.8v-11.2h-3v-2.5h3
			v-5.3h2.9V826.7z"/>
		<path class="st18" d="M781.4,838.7c0.1,2.6,2.4,3.4,4.7,3.4c1.8,0,4.2-0.4,4.2-2.6c0-4.5-11.5-1.5-11.5-8.2c0-3.5,3.5-5,6.6-5
			c3.9,0,6.9,1.2,7.2,5.5h-2.9c-0.2-2.2-2.2-3-4.1-3c-1.7,0-3.7,0.5-3.7,2.2c0,2,3.1,2.4,5.7,3.1c2.9,0.6,5.7,1.6,5.7,5
			c0,4.2-3.9,5.5-7.5,5.5c-3.9,0-7.3-1.6-7.4-5.9H781.4z"/>
		<path class="st18" d="M803.9,819.4h2.5l-10.1,25.4h-2.5L803.9,819.4z"/>
		<path class="st18" d="M825.3,844.3h-3.1l-3.6-14h-0.1l-3.5,14H812l-5.6-17.6h3.2l4,14.4h0.1l3.5-14.4h3.2l3.7,14.4h0.1l3.9-14.4h3
			L825.3,844.3z"/>
		<path class="st18" d="M849.3,844.2c-0.5,0.3-1.2,0.5-2.1,0.5c-1.5,0-2.4-0.8-2.4-2.7c-1.6,1.9-3.7,2.7-6.2,2.7
			c-3.2,0-5.8-1.4-5.8-4.9c0-4,3-4.9,5.9-5.4c3.2-0.6,5.9-0.4,5.9-2.6c0-2.5-2.1-2.9-3.9-2.9c-2.4,0-4.2,0.7-4.4,3.3h-2.9
			c0.2-4.4,3.5-5.9,7.4-5.9c3.2,0,6.6,0.7,6.6,4.8v9c0,1.4,0,2,0.9,2c0.3,0,0.6-0.1,0.9-0.2V844.2z M844.6,835.2
			c-2.2,1.7-8.8,0-8.8,4.4c0,1.9,1.6,2.6,3.4,2.6c3.8,0,5.4-2.3,5.4-4V835.2z"/>
		<path class="st18" d="M851.9,826.7h2.7v3.7h0.1c1.4-2.9,3.3-4.2,6.5-4.1v3.1c-4.7,0-6.4,2.6-6.4,7.1v7.8h-2.9V826.7z"/>
		<path class="st18" d="M863.3,826.7h2.7v2.8h0.1c1.2-2.2,3.2-3.2,5.7-3.2c4.6,0,6.1,2.7,6.1,6.4v11.6h-2.9v-11.9
			c0-2.2-1.4-3.5-3.6-3.5c-3.5,0-5.2,2.3-5.2,5.5v9.9h-2.9V826.7z"/>
		<path class="st18" d="M885.2,823.5h-2.9V820h2.9V823.5z M882.4,826.7h2.9v17.6h-2.9V826.7z"/>
		<path class="st18" d="M889.7,826.7h2.7v2.8h0.1c1.2-2.2,3.2-3.2,5.7-3.2c4.6,0,6.1,2.7,6.1,6.4v11.6h-2.9v-11.9
			c0-2.2-1.4-3.5-3.6-3.5c-3.5,0-5.2,2.3-5.2,5.5v9.9h-2.9V826.7z"/>
		<path class="st18" d="M923.8,842.8c0,5.7-2.6,8.6-8.2,8.6c-3.3,0-7.1-1.4-7.3-5.2h2.9c0.1,2.1,2.7,2.9,4.6,2.9
			c3.8,0,5.3-2.7,5.3-6.7v-1.2H921c-1,2.1-3.2,3.2-5.5,3.2c-5.2,0-7.9-4.1-7.9-8.9c0-4.1,2-9.3,8.1-9.3c2.2,0,4.2,1,5.2,2.9h0v-2.5
			h2.7V842.8z M920.9,835.1c0-3.1-1.4-6.3-5-6.3c-3.7,0-5.2,3-5.2,6.4c0,3.2,1.2,6.7,5,6.7S920.9,838.4,920.9,835.1z"/>
		<path class="st18" d="M929.9,838.7c0.1,2.6,2.4,3.4,4.7,3.4c1.8,0,4.2-0.4,4.2-2.6c0-4.5-11.5-1.5-11.5-8.2c0-3.5,3.5-5,6.6-5
			c3.9,0,6.9,1.2,7.2,5.5h-2.9c-0.2-2.2-2.2-3-4.1-3c-1.7,0-3.7,0.5-3.7,2.2c0,2,3.1,2.4,5.7,3.1c2.9,0.6,5.7,1.6,5.7,5
			c0,4.2-3.9,5.5-7.5,5.5c-3.9,0-7.3-1.6-7.4-5.9H929.9z"/>
		<path class="st18" d="M1129.4,588.7h9.8v2.7h-9.8V588.7z"/>
		<path class="st18" d="M1176.5,582.3c-0.4-3.5-2.7-5-6-5c-2.8,0-5.4,1-5.4,4.1c0,6,15.5,1.8,15.5,11.3c0,5.2-5.1,7.2-9.5,7.2
			c-5.4,0-10-2.7-10-8.6h3.1c0,4.1,3.4,5.8,7.1,5.8c2.9,0,6.2-0.9,6.2-4.4c0-6.7-15.5-2.3-15.5-11.2c0-4.9,4.4-7.1,8.8-7.1
			c5,0,8.8,2.3,8.9,7.7H1176.5z"/>
		<path class="st18" d="M1199,593.9c-0.8,3.9-3.5,6-7.5,6c-5.6,0-8.3-3.9-8.4-9.2c0-5.3,3.5-9.1,8.3-9.1c6.2,0,8.1,5.8,8,10.1h-13.2
			c-0.1,3.1,1.6,5.8,5.5,5.8c2.4,0,4-1.1,4.6-3.4H1199z M1196.2,589c-0.2-2.8-2.2-5-5.1-5c-3,0-4.9,2.2-5,5H1196.2z"/>
		<path class="st18" d="M1214.2,587.5c-0.4-2.2-1.9-3.5-4.4-3.5c-4.2,0-5.5,3.3-5.5,6.9c0,3.3,1.5,6.4,5.1,6.4
			c2.8,0,4.5-1.6,4.8-4.3h3c-0.6,4.3-3.3,6.8-7.8,6.8c-5.4,0-8.2-3.7-8.2-9c0-5.3,2.7-9.4,8.3-9.4c4,0,7.1,1.9,7.6,6.1H1214.2z"/>
		<path class="st18" d="M1235.1,599.5h-2.7v-2.8h-0.1c-1.2,2.2-3.2,3.2-5.7,3.2c-4.6,0-6.1-2.7-6.1-6.4v-11.6h2.9v11.9
			c0,2.2,1.4,3.5,3.6,3.5c3.5,0,5.2-2.3,5.2-5.5v-9.9h2.9V599.5z"/>
		<path class="st18" d="M1239.3,581.9h2.7v3.7h0.1c1.4-2.9,3.3-4.2,6.5-4.1v3.1c-4.7,0-6.4,2.6-6.4,7.1v7.8h-2.9V581.9z"/>
		<path class="st18" d="M1253.8,578.7h-2.9v-3.5h2.9V578.7z M1250.9,581.9h2.9v17.6h-2.9V581.9z"/>
		<path class="st18" d="M1262.3,581.9h3.5v2.5h-3.5v10.9c0,1.4,0.4,1.6,2.2,1.6h1.3v2.5h-2.2c-3,0-4.2-0.6-4.2-3.8v-11.2h-3v-2.5h3
			v-5.3h2.9V581.9z"/>
		<path class="st18" d="M1275.9,601.8c-1.4,3.4-2.5,4.7-5.1,4.7c-0.7,0-1.4-0.1-2-0.3v-2.7c0.5,0.2,1.1,0.4,1.7,0.4
			c1.2,0,1.8-0.5,2.4-1.6l1.2-3l-7-17.5h3.3l5.1,14.4h0.1l4.9-14.4h3.1L1275.9,601.8z"/>
		<path class="st18" d="M1129.4,629.5h9.8v2.7h-9.8V629.5z"/>
		<path class="st18" d="M1181.8,631.5c0,6.2-3.5,9.3-9.6,9.3c-6.3,0-10-2.9-10-9.3V616h3.2v15.5c0,4.3,2.4,6.6,6.7,6.6
			c4.1,0,6.3-2.3,6.3-6.6V616h3.2V631.5z"/>
		<path class="st18" d="M1188.3,634.7c0.1,2.6,2.4,3.4,4.7,3.4c1.8,0,4.2-0.4,4.2-2.6c0-4.5-11.5-1.5-11.5-8.2c0-3.5,3.5-5,6.6-5
			c3.9,0,6.9,1.2,7.2,5.5h-2.9c-0.2-2.2-2.2-3-4.1-3c-1.7,0-3.7,0.5-3.7,2.2c0,2,3.1,2.4,5.7,3.1c2.9,0.6,5.7,1.6,5.7,5
			c0,4.2-3.9,5.5-7.5,5.5c-3.9,0-7.3-1.6-7.4-5.9H1188.3z"/>
		<path class="st18" d="M1219.1,640.2c-0.5,0.3-1.2,0.5-2.1,0.5c-1.5,0-2.4-0.8-2.4-2.7c-1.6,1.9-3.7,2.7-6.2,2.7
			c-3.2,0-5.8-1.4-5.8-4.9c0-4,3-4.9,5.9-5.4c3.2-0.6,5.9-0.4,5.9-2.6c0-2.5-2.1-2.9-3.9-2.9c-2.4,0-4.2,0.7-4.4,3.3h-2.9
			c0.2-4.4,3.5-5.9,7.4-5.9c3.2,0,6.6,0.7,6.6,4.8v9c0,1.4,0,2,0.9,2c0.3,0,0.6-0.1,0.9-0.2V640.2z M1214.4,631.2
			c-2.2,1.7-8.8,0-8.8,4.4c0,1.9,1.6,2.6,3.4,2.6c3.8,0,5.4-2.3,5.4-4V631.2z"/>
		<path class="st18" d="M1221.9,616h2.9v9.1h0.1c1-1.9,3.2-2.8,5.6-2.8c5.4,0,8.1,4.3,8.1,9.2c0,5-2.7,9.1-8,9.1
			c-1.8,0-4.4-0.7-5.7-2.8h-0.1v2.3h-2.9V616z M1230,624.8c-3.9,0-5.4,3.4-5.4,6.6c0,3.4,1.6,6.7,5.5,6.7c3.9,0,5.3-3.4,5.3-6.8
			C1235.5,628,1233.8,624.8,1230,624.8z"/>
		<path class="st18" d="M1245,619.5h-2.9V616h2.9V619.5z M1242.1,622.7h2.9v17.6h-2.9V622.7z"/>
		<path class="st18" d="M1249.7,616h2.9v24.3h-2.9V616z"/>
		<path class="st18" d="M1260.1,619.5h-2.9V616h2.9V619.5z M1257.2,622.7h2.9v17.6h-2.9V622.7z"/>
		<path class="st18" d="M1268.6,622.7h3.5v2.5h-3.5v10.9c0,1.4,0.4,1.6,2.2,1.6h1.3v2.5h-2.2c-3,0-4.2-0.6-4.2-3.8v-11.2h-3v-2.5h3
			v-5.3h2.9V622.7z"/>
		<path class="st18" d="M1282.2,642.6c-1.4,3.4-2.5,4.7-5.1,4.7c-0.7,0-1.4-0.1-2-0.3v-2.7c0.5,0.2,1.1,0.4,1.7,0.4
			c1.2,0,1.8-0.5,2.4-1.6l1.2-3l-7-17.5h3.3l5.1,14.4h0.1l4.9-14.4h3.1L1282.2,642.6z"/>
		<path class="st18" d="M1129.4,670.3h9.8v2.7h-9.8V670.3z"/>
		<path class="st18" d="M1162.5,656.8h8.3c7.5,0,11.7,3.8,11.7,11.6c0,8.1-3.6,12.7-11.7,12.7h-8.3V656.8z M1165.7,678.4h5.4
			c2.2,0,8.2-0.6,8.2-9.6c0-5.8-2.1-9.3-8.1-9.3h-5.4V678.4z"/>
		<path class="st18" d="M1201.5,681c-0.5,0.3-1.2,0.5-2.1,0.5c-1.5,0-2.4-0.8-2.4-2.7c-1.6,1.9-3.7,2.7-6.2,2.7
			c-3.2,0-5.8-1.4-5.8-4.9c0-4,3-4.9,5.9-5.4c3.2-0.6,5.9-0.4,5.9-2.6c0-2.5-2.1-2.9-3.9-2.9c-2.4,0-4.2,0.7-4.4,3.3h-2.9
			c0.2-4.4,3.5-5.9,7.4-5.9c3.2,0,6.6,0.7,6.6,4.8v9c0,1.4,0,2,0.9,2c0.3,0,0.6-0.1,0.9-0.2V681z M1196.8,672
			c-2.2,1.7-8.8,0-8.8,4.4c0,1.9,1.6,2.6,3.4,2.6c3.8,0,5.4-2.3,5.4-4V672z"/>
		<path class="st18" d="M1208.2,663.5h3.5v2.5h-3.5V677c0,1.4,0.4,1.6,2.2,1.6h1.3v2.5h-2.2c-3,0-4.2-0.6-4.2-3.8v-11.2h-3v-2.5h3
			v-5.3h2.9V663.5z"/>
		<path class="st18" d="M1230.4,681c-0.5,0.3-1.2,0.5-2.1,0.5c-1.5,0-2.4-0.8-2.4-2.7c-1.6,1.9-3.7,2.7-6.2,2.7
			c-3.2,0-5.8-1.4-5.8-4.9c0-4,3-4.9,5.9-5.4c3.2-0.6,5.9-0.4,5.9-2.6c0-2.5-2.1-2.9-3.9-2.9c-2.4,0-4.2,0.7-4.4,3.3h-2.9
			c0.2-4.4,3.5-5.9,7.4-5.9c3.2,0,6.6,0.7,6.6,4.8v9c0,1.4,0,2,0.9,2c0.3,0,0.6-0.1,0.9-0.2V681z M1225.8,672
			c-2.2,1.7-8.8,0-8.8,4.4c0,1.9,1.6,2.6,3.4,2.6c3.8,0,5.4-2.3,5.4-4V672z"/>
		<path class="st18" d="M1258.3,681.1h-2.9v-2.4h-0.1c-1,1.9-3.2,2.8-5.6,2.8c-5.4,0-8.1-4.3-8.1-9.2s2.7-9.1,8-9.1
			c1.8,0,4.4,0.7,5.7,2.8h0.1v-9h2.9V681.1z M1250.1,678.9c3.9,0,5.4-3.4,5.4-6.6c0-3.4-1.6-6.7-5.5-6.7c-3.9,0-5.3,3.4-5.3,6.8
			C1244.7,675.7,1246.4,678.9,1250.1,678.9z"/>
		<path class="st18" d="M1277.7,675.5c-0.8,3.9-3.5,6-7.5,6c-5.6,0-8.3-3.9-8.4-9.2c0-5.3,3.5-9.1,8.3-9.1c6.2,0,8.1,5.8,8,10.1
			h-13.2c-0.1,3.1,1.6,5.8,5.5,5.8c2.4,0,4-1.1,4.6-3.4H1277.7z M1275,670.6c-0.2-2.8-2.2-5-5.1-5c-3,0-4.9,2.2-5,5H1275z"/>
		<path class="st18" d="M1282.2,666.1h-3v-2.5h3v-2.6c0-2.9,1.7-4.4,4.9-4.4c0.5,0,1.3,0.1,1.9,0.3v2.5c-0.5-0.2-1.1-0.2-1.6-0.2
			c-1.4,0-2.2,0.4-2.2,2v2.4h3.4v2.5h-3.4v15h-2.9V666.1z M1291.2,660.3v-3.5h2.9v3.5H1291.2z M1291.2,681.1v-17.6h2.9v17.6H1291.2z
			"/>
		<path class="st18" d="M1298.6,663.5h2.7v2.8h0.1c1.2-2.2,3.2-3.2,5.7-3.2c4.6,0,6.1,2.7,6.1,6.4v11.6h-2.9v-11.9
			c0-2.2-1.4-3.5-3.6-3.5c-3.5,0-5.2,2.3-5.2,5.5v9.9h-2.9V663.5z"/>
		<path class="st18" d="M1320.6,660.3h-2.9v-3.5h2.9V660.3z M1317.7,663.5h2.9v17.6h-2.9V663.5z"/>
		<path class="st18" d="M1329.1,663.5h3.5v2.5h-3.5V677c0,1.4,0.4,1.6,2.2,1.6h1.3v2.5h-2.2c-3,0-4.2-0.6-4.2-3.8v-11.2h-3v-2.5h3
			v-5.3h2.9V663.5z"/>
		<path class="st18" d="M1338.8,660.3h-2.9v-3.5h2.9V660.3z M1336,663.5h2.9v17.6h-2.9V663.5z"/>
		<path class="st18" d="M1350.9,663.1c5.6,0,8.5,4,8.5,9.2c0,5.1-3,9.2-8.5,9.2c-5.6,0-8.5-4-8.5-9.2
			C1342.4,667.1,1345.3,663.1,1350.9,663.1z M1350.9,678.9c3,0,5.5-2.4,5.5-6.6c0-4.2-2.4-6.7-5.5-6.7s-5.5,2.4-5.5,6.7
			C1345.4,676.6,1347.9,678.9,1350.9,678.9z"/>
		<path class="st18" d="M1362.8,663.5h2.7v2.8h0.1c1.2-2.2,3.2-3.2,5.7-3.2c4.6,0,6.1,2.7,6.1,6.4v11.6h-2.9v-11.9
			c0-2.2-1.4-3.5-3.6-3.5c-3.5,0-5.2,2.3-5.2,5.5v9.9h-2.9V663.5z"/>
		<path class="st18" d="M1406.8,681c-0.5,0.3-1.2,0.5-2.1,0.5c-1.5,0-2.4-0.8-2.4-2.7c-1.6,1.9-3.7,2.7-6.2,2.7
			c-3.2,0-5.8-1.4-5.8-4.9c0-4,3-4.9,5.9-5.4c3.2-0.6,5.9-0.4,5.9-2.6c0-2.5-2.1-2.9-3.9-2.9c-2.4,0-4.2,0.7-4.4,3.3h-2.9
			c0.2-4.4,3.5-5.9,7.4-5.9c3.2,0,6.6,0.7,6.6,4.8v9c0,1.4,0,2,0.9,2c0.3,0,0.6-0.1,0.9-0.2V681z M1402.1,672
			c-2.2,1.7-8.8,0-8.8,4.4c0,1.9,1.6,2.6,3.4,2.6c3.8,0,5.4-2.3,5.4-4V672z"/>
		<path class="st18" d="M1409.5,663.5h2.7v2.8h0.1c1.2-2.2,3.2-3.2,5.7-3.2c4.6,0,6.1,2.7,6.1,6.4v11.6h-2.9v-11.9
			c0-2.2-1.4-3.5-3.6-3.5c-3.5,0-5.2,2.3-5.2,5.5v9.9h-2.9V663.5z"/>
		<path class="st18" d="M1444.1,681.1h-2.9v-2.4h-0.1c-1,1.9-3.2,2.8-5.6,2.8c-5.4,0-8.1-4.3-8.1-9.2s2.7-9.1,8-9.1
			c1.8,0,4.4,0.7,5.7,2.8h0.1v-9h2.9V681.1z M1435.9,678.9c3.9,0,5.4-3.4,5.4-6.6c0-3.4-1.6-6.7-5.5-6.7c-3.9,0-5.3,3.4-5.3,6.8
			C1430.5,675.7,1432.2,678.9,1435.9,678.9z"/>
		<path class="st18" d="M1170.6,721.9h-2.9v-2.4h-0.1c-1,1.9-3.2,2.8-5.6,2.8c-5.4,0-8.1-4.3-8.1-9.2c0-5,2.7-9.1,8-9.1
			c1.8,0,4.4,0.7,5.7,2.8h0.1v-9h2.9V721.9z M1162.4,719.7c3.9,0,5.4-3.4,5.4-6.6c0-3.4-1.6-6.7-5.5-6.7c-3.9,0-5.3,3.4-5.3,6.8
			C1157,716.5,1158.7,719.7,1162.4,719.7z"/>
		<path class="st18" d="M1190.6,721.8c-0.5,0.3-1.2,0.5-2.1,0.5c-1.5,0-2.4-0.8-2.4-2.7c-1.6,1.9-3.7,2.7-6.2,2.7
			c-3.2,0-5.8-1.4-5.8-4.9c0-4,3-4.9,5.9-5.4c3.2-0.6,5.9-0.4,5.9-2.6c0-2.5-2.1-2.9-3.9-2.9c-2.4,0-4.2,0.7-4.4,3.3h-2.9
			c0.2-4.4,3.5-5.9,7.4-5.9c3.2,0,6.6,0.7,6.6,4.8v9c0,1.4,0,2,0.9,2c0.3,0,0.6-0.1,0.9-0.2V721.8z M1185.9,712.8
			c-2.2,1.7-8.8,0-8.8,4.4c0,1.9,1.6,2.6,3.4,2.6c3.8,0,5.4-2.3,5.4-4V712.8z"/>
		<path class="st18" d="M1197.3,704.3h3.5v2.5h-3.5v10.9c0,1.4,0.4,1.6,2.2,1.6h1.3v2.5h-2.2c-3,0-4.2-0.6-4.2-3.8v-11.2h-3v-2.5h3
			V699h2.9V704.3z"/>
		<path class="st18" d="M1219.5,721.8c-0.5,0.3-1.2,0.5-2.1,0.5c-1.5,0-2.4-0.8-2.4-2.7c-1.6,1.9-3.7,2.7-6.2,2.7
			c-3.2,0-5.8-1.4-5.8-4.9c0-4,3-4.9,5.9-5.4c3.2-0.6,5.9-0.4,5.9-2.6c0-2.5-2.1-2.9-3.9-2.9c-2.4,0-4.2,0.7-4.4,3.3h-2.9
			c0.2-4.4,3.5-5.9,7.4-5.9c3.2,0,6.6,0.7,6.6,4.8v9c0,1.4,0,2,0.9,2c0.3,0,0.6-0.1,0.9-0.2V721.8z M1214.9,712.8
			c-2.2,1.7-8.8,0-8.8,4.4c0,1.9,1.6,2.6,3.4,2.6c3.8,0,5.4-2.3,5.4-4V712.8z"/>
		<path class="st18" d="M1222.3,697.6h2.9v9.1h0.1c1-1.9,3.2-2.8,5.6-2.8c5.4,0,8.1,4.3,8.1,9.2c0,5-2.7,9.1-8,9.1
			c-1.8,0-4.4-0.7-5.7-2.8h-0.1v2.3h-2.9V697.6z M1230.5,706.4c-3.9,0-5.4,3.4-5.4,6.6c0,3.4,1.6,6.7,5.5,6.7c3.9,0,5.3-3.4,5.3-6.8
			C1235.9,709.6,1234.2,706.4,1230.5,706.4z"/>
		<path class="st18" d="M1258,721.8c-0.5,0.3-1.2,0.5-2.1,0.5c-1.5,0-2.4-0.8-2.4-2.7c-1.6,1.9-3.7,2.7-6.2,2.7
			c-3.2,0-5.8-1.4-5.8-4.9c0-4,3-4.9,5.9-5.4c3.2-0.6,5.9-0.4,5.9-2.6c0-2.5-2.1-2.9-3.9-2.9c-2.4,0-4.2,0.7-4.4,3.3h-2.9
			c0.2-4.4,3.5-5.9,7.4-5.9c3.2,0,6.6,0.7,6.6,4.8v9c0,1.4,0,2,0.9,2c0.3,0,0.6-0.1,0.9-0.2V721.8z M1253.3,712.8
			c-2.2,1.7-8.8,0-8.8,4.4c0,1.9,1.6,2.6,3.4,2.6c3.8,0,5.4-2.3,5.4-4V712.8z"/>
		<path class="st18" d="M1262.4,716.3c0.1,2.6,2.4,3.4,4.7,3.4c1.8,0,4.2-0.4,4.2-2.6c0-4.5-11.5-1.5-11.5-8.2c0-3.5,3.5-5,6.6-5
			c3.9,0,6.9,1.2,7.2,5.5h-2.9c-0.2-2.2-2.2-3-4.1-3c-1.7,0-3.7,0.5-3.7,2.2c0,2,3.1,2.4,5.7,3.1c2.9,0.6,5.7,1.6,5.7,5
			c0,4.2-3.9,5.5-7.5,5.5c-3.9,0-7.3-1.6-7.4-5.9H1262.4z"/>
		<path class="st18" d="M1292.6,716.3c-0.8,3.9-3.5,6-7.5,6c-5.6,0-8.3-3.9-8.4-9.2c0-5.3,3.5-9.1,8.3-9.1c6.2,0,8.1,5.8,8,10.1
			h-13.2c-0.1,3.1,1.6,5.8,5.5,5.8c2.4,0,4-1.1,4.6-3.4H1292.6z M1289.9,711.4c-0.2-2.8-2.2-5-5.1-5c-3,0-4.9,2.2-5,5H1289.9z"/>
		<path class="st18" d="M1129.4,751.9h9.8v2.7h-9.8V751.9z"/>
		<path class="st18" d="M1169,738.4h3.6l9.5,24.3h-3.6l-2.7-7.3h-10.3l-2.7,7.3h-3.3L1169,738.4z M1166.6,752.7h8.2l-4-11.3h-0.1
			L1166.6,752.7z"/>
		<path class="st18" d="M1195.9,750.7c-0.4-2.2-1.9-3.5-4.4-3.5c-4.2,0-5.5,3.3-5.5,6.9c0,3.3,1.5,6.4,5.1,6.4
			c2.8,0,4.5-1.6,4.8-4.3h3c-0.6,4.3-3.3,6.8-7.8,6.8c-5.4,0-8.2-3.7-8.2-9s2.7-9.4,8.3-9.4c4,0,7.1,1.9,7.6,6.1H1195.9z"/>
		<path class="st18" d="M1214.2,750.7c-0.4-2.2-1.9-3.5-4.4-3.5c-4.2,0-5.5,3.3-5.5,6.9c0,3.3,1.5,6.4,5.1,6.4
			c2.8,0,4.5-1.6,4.8-4.3h3c-0.6,4.3-3.3,6.8-7.8,6.8c-5.4,0-8.2-3.7-8.2-9s2.7-9.4,8.3-9.4c4,0,7.1,1.9,7.6,6.1H1214.2z"/>
		<path class="st18" d="M1235.5,757.1c-0.8,3.9-3.5,6-7.5,6c-5.6,0-8.3-3.9-8.4-9.2c0-5.3,3.5-9.1,8.3-9.1c6.2,0,8.1,5.8,8,10.1
			h-13.2c-0.1,3.1,1.6,5.8,5.5,5.8c2.4,0,4-1.1,4.6-3.4H1235.5z M1232.7,752.2c-0.2-2.8-2.2-5-5.1-5c-3,0-4.9,2.2-5,5H1232.7z"/>
		<path class="st18" d="M1240.5,757.1c0.1,2.6,2.4,3.4,4.7,3.4c1.8,0,4.2-0.4,4.2-2.6c0-4.5-11.5-1.5-11.5-8.2c0-3.5,3.5-5,6.6-5
			c3.9,0,6.9,1.2,7.2,5.5h-2.9c-0.2-2.2-2.2-3-4.1-3c-1.7,0-3.7,0.5-3.7,2.2c0,2,3.1,2.4,5.7,3.1c2.9,0.6,5.7,1.6,5.7,5
			c0,4.2-3.9,5.5-7.5,5.5c-3.9,0-7.3-1.6-7.4-5.9H1240.5z"/>
		<path class="st18" d="M1257.5,757.1c0.1,2.6,2.4,3.4,4.7,3.4c1.8,0,4.2-0.4,4.2-2.6c0-4.5-11.5-1.5-11.5-8.2c0-3.5,3.5-5,6.6-5
			c3.9,0,6.9,1.2,7.2,5.5h-2.9c-0.2-2.2-2.2-3-4.1-3c-1.7,0-3.7,0.5-3.7,2.2c0,2,3.1,2.4,5.7,3.1c2.9,0.6,5.7,1.6,5.7,5
			c0,4.2-3.9,5.5-7.5,5.5c-3.9,0-7.3-1.6-7.4-5.9H1257.5z"/>
		<path class="st18" d="M1275.8,741.9h-2.9v-3.5h2.9V741.9z M1273,745.1h2.9v17.6h-2.9V745.1z"/>
		<path class="st18" d="M1280.4,738.4h2.9v9.1h0.1c1-1.9,3.2-2.8,5.6-2.8c5.4,0,8.1,4.3,8.1,9.2c0,5-2.7,9.1-8,9.1
			c-1.8,0-4.4-0.7-5.7-2.8h-0.1v2.3h-2.9V738.4z M1288.6,747.2c-3.9,0-5.4,3.4-5.4,6.6c0,3.4,1.6,6.7,5.5,6.7c3.9,0,5.3-3.4,5.3-6.8
			C1294,750.4,1292.3,747.2,1288.6,747.2z"/>
		<path class="st18" d="M1303.5,741.9h-2.9v-3.5h2.9V741.9z M1300.7,745.1h2.9v17.6h-2.9V745.1z"/>
		<path class="st18" d="M1308.2,738.4h2.9v24.3h-2.9V738.4z"/>
		<path class="st18" d="M1318.6,741.9h-2.9v-3.5h2.9V741.9z M1315.8,745.1h2.9v17.6h-2.9V745.1z"/>
		<path class="st18" d="M1327.1,745.1h3.5v2.5h-3.5v10.9c0,1.4,0.4,1.6,2.2,1.6h1.3v2.5h-2.2c-3,0-4.2-0.6-4.2-3.8v-11.2h-3v-2.5h3
			v-5.3h2.9V745.1z"/>
		<path class="st18" d="M1340.7,765c-1.4,3.4-2.5,4.7-5.1,4.7c-0.7,0-1.4-0.1-2-0.3v-2.7c0.5,0.2,1.1,0.4,1.7,0.4
			c1.2,0,1.8-0.5,2.4-1.6l1.2-3l-7-17.5h3.3l5.1,14.4h0.1l4.9-14.4h3.1L1340.7,765z"/>
		<path class="st18" d="M1129.4,792.7h9.8v2.7h-9.8V792.7z"/>
		<path class="st18" d="M1169,779.2h3.6l9.5,24.3h-3.6l-2.7-7.3h-10.3l-2.7,7.3h-3.3L1169,779.2z M1166.6,793.5h8.2l-4-11.3h-0.1
			L1166.6,793.5z"/>
		<path class="st18" d="M1183.9,785.9h2.7v3.7h0.1c1.4-2.9,3.3-4.2,6.5-4.1v3.1c-4.7,0-6.4,2.6-6.4,7.1v7.8h-2.9V785.9z"/>
		<path class="st18" d="M1207.3,791.5c-0.4-2.2-1.9-3.5-4.4-3.5c-4.2,0-5.5,3.3-5.5,6.9c0,3.3,1.5,6.4,5.1,6.4
			c2.8,0,4.5-1.6,4.8-4.3h3c-0.6,4.3-3.3,6.8-7.8,6.8c-5.4,0-8.2-3.7-8.2-9c0-5.3,2.7-9.4,8.3-9.4c4,0,7.1,1.9,7.6,6.1H1207.3z"/>
		<path class="st18" d="M1213.6,779.2h2.9v9.3h0.1c0.9-2.1,3.5-3,5.5-3c4.6,0,6.1,2.7,6.1,6.4v11.6h-2.9v-11.9
			c0-2.2-1.4-3.5-3.6-3.5c-3.5,0-5.2,2.3-5.2,5.5v9.9h-2.9V779.2z"/>
		<path class="st18" d="M1235.6,782.7h-2.9v-3.5h2.9V782.7z M1232.7,785.9h2.9v17.6h-2.9V785.9z"/>
		<path class="st18" d="M1244.1,785.9h3.5v2.5h-3.5v10.9c0,1.4,0.4,1.6,2.2,1.6h1.3v2.5h-2.2c-3,0-4.2-0.6-4.2-3.8v-11.2h-3v-2.5h3
			v-5.3h2.9V785.9z"/>
		<path class="st18" d="M1265.7,797.9c-0.8,3.9-3.5,6-7.5,6c-5.6,0-8.3-3.9-8.4-9.2c0-5.3,3.5-9.1,8.3-9.1c6.2,0,8.1,5.8,8,10.1
			h-13.2c-0.1,3.1,1.6,5.8,5.5,5.8c2.4,0,4-1.1,4.6-3.4H1265.7z M1263,793c-0.2-2.8-2.2-5-5.1-5c-3,0-4.9,2.2-5,5H1263z"/>
		<path class="st18" d="M1280.9,791.5c-0.4-2.2-1.9-3.5-4.4-3.5c-4.2,0-5.5,3.3-5.5,6.9c0,3.3,1.5,6.4,5.1,6.4
			c2.8,0,4.5-1.6,4.8-4.3h3c-0.6,4.3-3.3,6.8-7.8,6.8c-5.4,0-8.2-3.7-8.2-9c0-5.3,2.7-9.4,8.3-9.4c4,0,7.1,1.9,7.6,6.1H1280.9z"/>
		<path class="st18" d="M1291.3,785.9h3.5v2.5h-3.5v10.9c0,1.4,0.4,1.6,2.2,1.6h1.3v2.5h-2.2c-3,0-4.2-0.6-4.2-3.8v-11.2h-3v-2.5h3
			v-5.3h2.9V785.9z"/>
		<path class="st18" d="M1312.5,803.5h-2.7v-2.8h-0.1c-1.2,2.2-3.2,3.2-5.7,3.2c-4.6,0-6.1-2.7-6.1-6.4v-11.6h2.9v11.9
			c0,2.2,1.4,3.5,3.6,3.5c3.5,0,5.2-2.3,5.2-5.5v-9.9h2.9V803.5z"/>
		<path class="st18" d="M1316.8,785.9h2.7v3.7h0.1c1.4-2.9,3.3-4.2,6.5-4.1v3.1c-4.7,0-6.4,2.6-6.4,7.1v7.8h-2.9V785.9z"/>
		<path class="st18" d="M1343.8,803.4c-0.5,0.3-1.2,0.5-2.1,0.5c-1.5,0-2.4-0.8-2.4-2.7c-1.6,1.9-3.7,2.7-6.2,2.7
			c-3.2,0-5.8-1.4-5.8-4.9c0-4,3-4.9,5.9-5.4c3.2-0.6,5.9-0.4,5.9-2.6c0-2.5-2.1-2.9-3.9-2.9c-2.4,0-4.2,0.7-4.4,3.3h-2.9
			c0.2-4.4,3.5-5.9,7.4-5.9c3.2,0,6.6,0.7,6.6,4.8v9c0,1.4,0,2,0.9,2c0.3,0,0.6-0.1,0.9-0.2V803.4z M1339.1,794.4
			c-2.2,1.7-8.8,0-8.8,4.4c0,1.9,1.6,2.6,3.4,2.6c3.8,0,5.4-2.3,5.4-4V794.4z"/>
		<path class="st18" d="M1346.6,779.2h2.9v24.3h-2.9V779.2z"/>
	</g>
</g>
<g>
	<g>
		<path class="st18" d="M709.3,229.5c0,6.6-3.9,9.8-10.4,9.8c-6.6,0-10.3-3.1-10.3-9.8v-15.1h5.3v15.1c0,2.7,0.7,5.3,5,5.3
			c3.8,0,5-1.6,5-5.3v-15.1h5.3V229.5z"/>
		<path class="st18" d="M717.1,233c0,2.1,1.8,3,3.7,3c1.4,0,3.2-0.5,3.2-2.2c0-1.5-2-2-5.5-2.7c-2.8-0.6-5.6-1.6-5.6-4.7
			c0-4.5,3.9-5.6,7.6-5.6c3.8,0,7.4,1.3,7.8,5.6h-4.6c-0.1-1.9-1.6-2.4-3.3-2.4c-1.1,0-2.7,0.2-2.7,1.6c0,1.7,2.8,2,5.5,2.6
			c2.8,0.6,5.6,1.7,5.6,4.9c0,4.6-4,6.1-8,6.1c-4.1,0-8.1-1.5-8.3-6.2H717.1z"/>
		<path class="st18" d="M735.6,231.1c0.1,3.1,1.6,4.5,4.3,4.5c1.9,0,3.5-1.2,3.8-2.3h4.2c-1.4,4.2-4.2,5.9-8.2,5.9
			c-5.5,0-9-3.8-9-9.2c0-5.3,3.6-9.3,9-9.3c6,0,8.9,5,8.5,10.4H735.6z M743.5,228.1c-0.4-2.4-1.5-3.7-3.8-3.7c-3.1,0-3.9,2.4-4,3.7
			H743.5z"/>
		<path class="st18" d="M751.1,221.2h4.6v3.3h0.1c0.9-2.2,3.2-3.7,5.6-3.7c0.4,0,0.7,0.1,1.1,0.2v4.5c-0.4-0.1-1.2-0.2-1.7-0.2
			c-3.6,0-4.8,2.5-4.8,5.6v7.9h-4.8V221.2z"/>
		<path class="st18" d="M774.3,214.5h5.3l10.1,16.3h0.1v-16.3h5v24.3h-5.3l-10.1-16.3h-0.1v16.3h-5V214.5z"/>
		<path class="st18" d="M803,231.1c0.1,3.1,1.6,4.5,4.3,4.5c1.9,0,3.5-1.2,3.8-2.3h4.2c-1.4,4.2-4.2,5.9-8.2,5.9c-5.5,0-9-3.8-9-9.2
			c0-5.3,3.6-9.3,9-9.3c6,0,8.9,5,8.5,10.4H803z M810.8,228.1c-0.4-2.4-1.5-3.7-3.8-3.7c-3.1,0-3.9,2.4-4,3.7H810.8z"/>
		<path class="st18" d="M822.5,231.1c0.1,3.1,1.6,4.5,4.3,4.5c1.9,0,3.5-1.2,3.8-2.3h4.2c-1.4,4.2-4.2,5.9-8.2,5.9
			c-5.5,0-9-3.8-9-9.2c0-5.3,3.6-9.3,9-9.3c6,0,8.9,5,8.5,10.4H822.5z M830.4,228.1c-0.4-2.4-1.5-3.7-3.8-3.7c-3.1,0-3.9,2.4-4,3.7
			H830.4z"/>
		<path class="st18" d="M850.6,236.5L850.6,236.5c-1.2,1.9-3.1,2.7-5.4,2.7c-5.3,0-7.9-4.5-7.9-9.4c0-4.7,2.6-9.1,7.8-9.1
			c2.1,0,4.1,0.9,5.2,2.6h0.1v-8.8h4.8v24.3h-4.6V236.5z M846.4,224.3c-3.2,0-4.2,2.8-4.2,5.6c0,2.8,1.3,5.6,4.2,5.6
			c3.2,0,4.1-2.8,4.1-5.7C850.5,227,849.5,224.3,846.4,224.3z"/>
		<path class="st18" d="M689,255.3h10.6c4.9,0,7.4,2.7,7.4,7.2s-2.6,7.2-7.4,7.2h-7.4v9.9H689V255.3z M692.2,266.9h6.3
			c3.7,0,5.3-1.6,5.3-4.5s-1.6-4.5-5.3-4.5h-6.3V266.9z"/>
		<path class="st18" d="M725.1,279.5h-2.7v-2.8h-0.1c-1.2,2.2-3.2,3.2-5.7,3.2c-4.6,0-6.1-2.7-6.1-6.4V262h2.9v11.9
			c0,2.2,1.4,3.5,3.6,3.5c3.5,0,5.2-2.3,5.2-5.5V262h2.9V279.5z"/>
		<path class="st18" d="M729.5,262h2.7v2.6h0.1c1.3-2,3.2-3,5.7-3c2.2,0,4.1,0.8,4.8,3c1.2-1.9,3.2-3,5.5-3c3.5,0,5.8,1.5,5.8,5.1
			v12.9h-2.9V268c0-2.2-0.6-3.9-3.4-3.9c-2.8,0-4.6,1.8-4.6,4.5v10.9h-2.9V268c0-2.3-0.7-3.9-3.3-3.9c-3.4,0-4.7,3.1-4.7,4.5v10.9
			h-2.9V262z"/>
		<path class="st18" d="M758.6,262h2.9v2.4h0.1c1-1.9,3.2-2.8,5.6-2.8c5.4,0,8.1,4.3,8.1,9.2c0,5-2.7,9.1-8,9.1
			c-1.8,0-4.4-0.7-5.7-2.8h-0.1v9.1h-2.9V262z M766.7,264.1c-3.9,0-5.4,3.4-5.4,6.6c0,3.4,1.6,6.7,5.5,6.7c3.9,0,5.3-3.4,5.3-6.8
			C772.2,267.3,770.5,264.1,766.7,264.1z"/>
		<path class="st18" d="M788.1,262h2.7v2.6h0.1c1.3-2,3.2-3,5.7-3c2.2,0,4.1,0.8,4.8,3c1.2-1.9,3.2-3,5.5-3c3.5,0,5.8,1.5,5.8,5.1
			v12.9h-2.9V268c0-2.2-0.6-3.9-3.4-3.9c-2.8,0-4.6,1.8-4.6,4.5v10.9h-2.9V268c0-2.3-0.7-3.9-3.3-3.9c-3.4,0-4.7,3.1-4.7,4.5v10.9
			h-2.9V262z"/>
		<path class="st18" d="M831.6,279.5h-2.7v-2.8h-0.1c-1.2,2.2-3.2,3.2-5.7,3.2c-4.6,0-6.1-2.7-6.1-6.4V262h2.9v11.9
			c0,2.2,1.4,3.5,3.6,3.5c3.5,0,5.2-2.3,5.2-5.5V262h2.9V279.5z"/>
		<path class="st18" d="M837.7,274c0.1,2.6,2.4,3.4,4.7,3.4c1.8,0,4.2-0.4,4.2-2.6c0-4.5-11.5-1.5-11.5-8.2c0-3.5,3.5-5,6.6-5
			c3.9,0,6.9,1.2,7.2,5.5h-2.9c-0.2-2.2-2.2-3-4.1-3c-1.7,0-3.7,0.5-3.7,2.2c0,2,3.1,2.4,5.7,3.1c2.9,0.6,5.7,1.6,5.7,5
			c0,4.2-3.9,5.5-7.5,5.5c-3.9,0-7.3-1.6-7.4-5.9H837.7z"/>
		<path class="st18" d="M857,262h3.5v2.5H857v10.9c0,1.4,0.4,1.6,2.2,1.6h1.3v2.5h-2.2c-3,0-4.2-0.6-4.2-3.8v-11.2h-3V262h3v-5.3
			h2.9V262z"/>
		<path class="st18" d="M873.2,255.3h2.9v9.1h0.1c1-1.9,3.2-2.8,5.6-2.8c5.4,0,8.1,4.3,8.1,9.2c0,5-2.7,9.1-8,9.1
			c-1.8,0-4.4-0.7-5.7-2.8h-0.1v2.3h-2.9V255.3z M881.4,264.1c-3.9,0-5.4,3.4-5.4,6.6c0,3.4,1.6,6.7,5.5,6.7c3.9,0,5.3-3.4,5.3-6.8
			C886.8,267.3,885.1,264.1,881.4,264.1z"/>
		<path class="st18" d="M908.3,274c-0.8,3.9-3.5,6-7.5,6c-5.6,0-8.3-3.9-8.4-9.2c0-5.3,3.5-9.1,8.3-9.1c6.2,0,8.1,5.8,8,10.1h-13.2
			c-0.1,3.1,1.6,5.8,5.5,5.8c2.4,0,4-1.1,4.6-3.4H908.3z M905.5,269.1c-0.2-2.8-2.2-5-5.1-5c-3,0-4.9,2.2-5,5H905.5z"/>
		<path class="st18" d="M932.9,267.6c-0.4-2.2-1.9-3.5-4.4-3.5c-4.2,0-5.5,3.3-5.5,6.9c0,3.3,1.5,6.4,5.1,6.4c2.8,0,4.5-1.6,4.8-4.3
			h3c-0.6,4.3-3.3,6.8-7.8,6.8c-5.4,0-8.2-3.7-8.2-9c0-5.3,2.7-9.4,8.3-9.4c4,0,7.1,1.9,7.6,6.1H932.9z"/>
		<path class="st18" d="M954.8,279.5c-0.5,0.3-1.2,0.5-2.1,0.5c-1.5,0-2.4-0.8-2.4-2.7c-1.6,1.9-3.7,2.7-6.2,2.7
			c-3.2,0-5.8-1.4-5.8-4.9c0-4,3-4.9,5.9-5.4c3.2-0.6,5.9-0.4,5.9-2.6c0-2.5-2.1-2.9-3.9-2.9c-2.4,0-4.2,0.7-4.4,3.3H939
			c0.2-4.4,3.5-5.9,7.4-5.9c3.2,0,6.6,0.7,6.6,4.8v9c0,1.4,0,2,0.9,2c0.3,0,0.6-0.1,0.9-0.2V279.5z M950.1,270.5
			c-2.2,1.7-8.8,0-8.8,4.4c0,1.9,1.6,2.6,3.4,2.6c3.8,0,5.4-2.3,5.4-4V270.5z"/>
		<path class="st18" d="M957.6,262h2.9v2.4h0.1c1-1.9,3.2-2.8,5.6-2.8c5.4,0,8.1,4.3,8.1,9.2c0,5-2.7,9.1-8,9.1
			c-1.8,0-4.4-0.7-5.7-2.8h-0.1v9.1h-2.9V262z M965.8,264.1c-3.9,0-5.4,3.4-5.4,6.6c0,3.4,1.6,6.7,5.5,6.7c3.9,0,5.3-3.4,5.3-6.8
			C971.2,267.3,969.5,264.1,965.8,264.1z"/>
		<path class="st18" d="M993.3,279.5c-0.5,0.3-1.2,0.5-2.1,0.5c-1.5,0-2.4-0.8-2.4-2.7c-1.6,1.9-3.7,2.7-6.2,2.7
			c-3.2,0-5.8-1.4-5.8-4.9c0-4,3-4.9,5.9-5.4c3.2-0.6,5.9-0.4,5.9-2.6c0-2.5-2.1-2.9-3.9-2.9c-2.4,0-4.2,0.7-4.4,3.3h-2.9
			c0.2-4.4,3.5-5.9,7.4-5.9c3.2,0,6.6,0.7,6.6,4.8v9c0,1.4,0,2,0.9,2c0.3,0,0.6-0.1,0.9-0.2V279.5z M988.6,270.5
			c-2.2,1.7-8.8,0-8.8,4.4c0,1.9,1.6,2.6,3.4,2.6c3.8,0,5.4-2.3,5.4-4V270.5z"/>
		<path class="st18" d="M996,255.3h2.9v9.1h0.1c1-1.9,3.2-2.8,5.6-2.8c5.4,0,8.1,4.3,8.1,9.2c0,5-2.7,9.1-8,9.1
			c-1.8,0-4.4-0.7-5.7-2.8h-0.1v2.3H996V255.3z M1004.2,264.1c-3.9,0-5.4,3.4-5.4,6.6c0,3.4,1.6,6.7,5.5,6.7c3.9,0,5.3-3.4,5.3-6.8
			C1009.6,267.3,1007.9,264.1,1004.2,264.1z"/>
		<path class="st18" d="M1016.3,255.3h2.9v24.3h-2.9V255.3z"/>
		<path class="st18" d="M1038.6,274c-0.8,3.9-3.5,6-7.5,6c-5.6,0-8.3-3.9-8.4-9.2c0-5.3,3.5-9.1,8.3-9.1c6.2,0,8.1,5.8,8,10.1h-13.2
			c-0.1,3.1,1.6,5.8,5.5,5.8c2.4,0,4-1.1,4.6-3.4H1038.6z M1035.9,269.1c-0.2-2.8-2.2-5-5.1-5c-3,0-4.9,2.2-5,5H1035.9z"/>
		<path class="st18" d="M1058.9,261.5c5.6,0,8.5,4,8.5,9.2c0,5.1-3,9.2-8.5,9.2c-5.6,0-8.5-4-8.5-9.2
			C1050.4,265.6,1053.4,261.5,1058.9,261.5z M1058.9,277.4c3,0,5.5-2.4,5.5-6.6s-2.4-6.7-5.5-6.7s-5.5,2.4-5.5,6.7
			S1055.9,277.4,1058.9,277.4z"/>
		<path class="st18" d="M1072.1,264.5h-3V262h3v-2.6c0-2.9,1.7-4.4,4.9-4.4c0.5,0,1.3,0.1,1.9,0.3v2.5c-0.5-0.2-1.1-0.2-1.6-0.2
			c-1.4,0-2.2,0.4-2.2,2v2.4h3.4v2.5h-3.4v15h-2.9V264.5z"/>
		<path class="st18" d="M1091.6,264.5h-3V262h3v-2.6c0-2.9,1.7-4.4,4.9-4.4c0.5,0,1.3,0.1,1.9,0.3v2.5c-0.5-0.2-1.1-0.2-1.6-0.2
			c-1.4,0-2.2,0.4-2.2,2v2.4h3.4v2.5h-3.4v15h-2.9V264.5z"/>
		<path class="st18" d="M1115,279.5h-2.7v-2.8h-0.1c-1.2,2.2-3.2,3.2-5.7,3.2c-4.6,0-6.1-2.7-6.1-6.4V262h2.9v11.9
			c0,2.2,1.4,3.5,3.6,3.5c3.5,0,5.2-2.3,5.2-5.5V262h2.9V279.5z"/>
		<path class="st18" d="M1119.4,262h2.7v2.8h0.1c1.2-2.2,3.2-3.2,5.7-3.2c4.6,0,6.1,2.7,6.1,6.4v11.6h-2.9v-11.9
			c0-2.2-1.4-3.5-3.6-3.5c-3.5,0-5.2,2.3-5.2,5.5v9.9h-2.9V262z"/>
		<path class="st18" d="M1150.2,267.6c-0.4-2.2-1.9-3.5-4.4-3.5c-4.2,0-5.5,3.3-5.5,6.9c0,3.3,1.5,6.4,5.1,6.4
			c2.8,0,4.5-1.6,4.8-4.3h3c-0.6,4.3-3.3,6.8-7.8,6.8c-5.4,0-8.2-3.7-8.2-9c0-5.3,2.7-9.4,8.3-9.4c4,0,7.1,1.9,7.6,6.1H1150.2z"/>
		<path class="st18" d="M1160.5,262h3.5v2.5h-3.5v10.9c0,1.4,0.4,1.6,2.2,1.6h1.3v2.5h-2.2c-3,0-4.2-0.6-4.2-3.8v-11.2h-3V262h3
			v-5.3h2.9V262z"/>
		<path class="st18" d="M1170.3,258.8h-2.9v-3.5h2.9V258.8z M1167.4,262h2.9v17.6h-2.9V262z"/>
		<path class="st18" d="M1182.4,261.5c5.6,0,8.5,4,8.5,9.2c0,5.1-3,9.2-8.5,9.2c-5.6,0-8.5-4-8.5-9.2
			C1173.8,265.6,1176.8,261.5,1182.4,261.5z M1182.4,277.4c3,0,5.5-2.4,5.5-6.6s-2.4-6.7-5.5-6.7c-3,0-5.5,2.4-5.5,6.7
			S1179.3,277.4,1182.4,277.4z"/>
		<path class="st18" d="M1194.3,262h2.7v2.8h0.1c1.2-2.2,3.2-3.2,5.7-3.2c4.6,0,6.1,2.7,6.1,6.4v11.6h-2.9v-11.9
			c0-2.2-1.4-3.5-3.6-3.5c-3.5,0-5.2,2.3-5.2,5.5v9.9h-2.9V262z"/>
		<path class="st18" d="M1216.3,258.8h-2.9v-3.5h2.9V258.8z M1213.4,262h2.9v17.6h-2.9V262z"/>
		<path class="st18" d="M1220.7,262h2.7v2.8h0.1c1.2-2.2,3.2-3.2,5.7-3.2c4.6,0,6.1,2.7,6.1,6.4v11.6h-2.9v-11.9
			c0-2.2-1.4-3.5-3.6-3.5c-3.5,0-5.2,2.3-5.2,5.5v9.9h-2.9V262z"/>
		<path class="st18" d="M1254.8,278c0,5.7-2.6,8.6-8.2,8.6c-3.3,0-7.1-1.4-7.3-5.2h2.9c0.1,2.1,2.7,2.9,4.6,2.9
			c3.8,0,5.3-2.7,5.3-6.7v-1.2h-0.1c-1,2.1-3.2,3.2-5.5,3.2c-5.2,0-7.9-4.1-7.9-8.9c0-4.1,2-9.3,8.1-9.3c2.2,0,4.2,1,5.2,2.9h0V262
			h2.7V278z M1252,270.4c0-3.1-1.4-6.3-5-6.3c-3.7,0-5.2,3-5.2,6.4c0,3.2,1.2,6.7,5,6.7C1250.5,277.2,1252,273.7,1252,270.4z"/>
		<path class="st18" d="M1271.7,258.8h-2.9v-3.5h2.9V258.8z M1268.8,262h2.9v17.6h-2.9V262z"/>
		<path class="st18" d="M1276.2,262h2.7v2.8h0.1c1.2-2.2,3.2-3.2,5.7-3.2c4.6,0,6.1,2.7,6.1,6.4v11.6h-2.9v-11.9
			c0-2.2-1.4-3.5-3.6-3.5c-3.5,0-5.2,2.3-5.2,5.5v9.9h-2.9V262z"/>
		<path class="st18" d="M1320.1,279.5c-0.5,0.3-1.2,0.5-2.1,0.5c-1.5,0-2.4-0.8-2.4-2.7c-1.6,1.9-3.7,2.7-6.2,2.7
			c-3.2,0-5.8-1.4-5.8-4.9c0-4,3-4.9,5.9-5.4c3.2-0.6,5.9-0.4,5.9-2.6c0-2.5-2.1-2.9-3.9-2.9c-2.4,0-4.2,0.7-4.4,3.3h-2.9
			c0.2-4.4,3.5-5.9,7.4-5.9c3.2,0,6.6,0.7,6.6,4.8v9c0,1.4,0,2,0.9,2c0.3,0,0.6-0.1,0.9-0.2V279.5z M1315.4,270.5
			c-2.2,1.7-8.8,0-8.8,4.4c0,1.9,1.6,2.6,3.4,2.6c3.8,0,5.4-2.3,5.4-4V270.5z"/>
		<path class="st18" d="M1322.8,262h2.7v2.8h0.1c1.2-2.2,3.2-3.2,5.7-3.2c4.6,0,6.1,2.7,6.1,6.4v11.6h-2.9v-11.9
			c0-2.2-1.4-3.5-3.6-3.5c-3.5,0-5.2,2.3-5.2,5.5v9.9h-2.9V262z"/>
		<path class="st18" d="M703.5,314.8c-0.8,3.9-3.5,6-7.5,6c-5.6,0-8.3-3.9-8.4-9.2c0-5.3,3.5-9.1,8.3-9.1c6.2,0,8.1,5.8,8,10.1
			h-13.2c-0.1,3.1,1.6,5.8,5.5,5.8c2.4,0,4-1.1,4.6-3.4H703.5z M700.7,309.9c-0.2-2.8-2.2-5-5.1-5c-3,0-4.9,2.2-5,5H700.7z"/>
		<path class="st18" d="M706.9,296.1h2.9v24.3h-2.9V296.1z"/>
		<path class="st18" d="M729.3,314.8c-0.8,3.9-3.5,6-7.5,6c-5.6,0-8.3-3.9-8.4-9.2c0-5.3,3.5-9.1,8.3-9.1c6.2,0,8.1,5.8,8,10.1
			h-13.2c-0.1,3.1,1.6,5.8,5.5,5.8c2.4,0,4-1.1,4.6-3.4H729.3z M726.5,309.9c-0.2-2.8-2.2-5-5.1-5c-3,0-4.9,2.2-5,5H726.5z"/>
		<path class="st18" d="M744.5,308.4c-0.4-2.2-1.9-3.5-4.4-3.5c-4.2,0-5.5,3.3-5.5,6.9c0,3.3,1.5,6.4,5.1,6.4c2.8,0,4.5-1.6,4.8-4.3
			h3c-0.6,4.3-3.3,6.8-7.8,6.8c-5.4,0-8.2-3.7-8.2-9c0-5.3,2.7-9.4,8.3-9.4c4,0,7.1,1.9,7.6,6.1H744.5z"/>
		<path class="st18" d="M754.8,302.8h3.5v2.5h-3.5v10.9c0,1.4,0.4,1.6,2.2,1.6h1.3v2.5h-2.2c-3,0-4.2-0.6-4.2-3.8v-11.2h-3v-2.5h3
			v-5.3h2.9V302.8z"/>
		<path class="st18" d="M761.4,302.8h2.7v3.7h0.1c1.4-2.9,3.3-4.2,6.5-4.1v3.1c-4.7,0-6.4,2.6-6.4,7.1v7.8h-2.9V302.8z"/>
		<path class="st18" d="M780.4,302.3c5.6,0,8.5,4,8.5,9.2c0,5.1-3,9.2-8.5,9.2s-8.5-4-8.5-9.2C771.9,306.4,774.9,302.3,780.4,302.3z
			 M780.4,318.2c3,0,5.5-2.4,5.5-6.6s-2.4-6.7-5.5-6.7s-5.5,2.4-5.5,6.7S777.4,318.2,780.4,318.2z"/>
		<path class="st18" d="M792.4,302.8h2.7v2.6h0.1c1.3-2,3.2-3,5.7-3c2.2,0,4.1,0.8,4.8,3c1.2-1.9,3.2-3,5.5-3c3.5,0,5.8,1.5,5.8,5.1
			v12.9h-2.9v-11.5c0-2.2-0.6-3.9-3.4-3.9c-2.8,0-4.6,1.8-4.6,4.5v10.9h-2.9v-11.5c0-2.3-0.7-3.9-3.3-3.9c-3.4,0-4.7,3.1-4.7,4.5
			v10.9h-2.9V302.8z"/>
		<path class="st18" d="M837,320.3c-0.5,0.3-1.2,0.5-2.1,0.5c-1.5,0-2.4-0.8-2.4-2.7c-1.6,1.9-3.7,2.7-6.2,2.7
			c-3.2,0-5.8-1.4-5.8-4.9c0-4,3-4.9,5.9-5.4c3.2-0.6,5.9-0.4,5.9-2.6c0-2.5-2.1-2.9-3.9-2.9c-2.4,0-4.2,0.7-4.4,3.3h-2.9
			c0.2-4.4,3.5-5.9,7.4-5.9c3.2,0,6.6,0.7,6.6,4.8v9c0,1.4,0,2,0.9,2c0.3,0,0.6-0.1,0.9-0.2V320.3z M832.3,311.3
			c-2.2,1.7-8.8,0-8.8,4.4c0,1.9,1.6,2.6,3.4,2.6c3.8,0,5.4-2.3,5.4-4V311.3z"/>
		<path class="st18" d="M854.8,318.8c0,5.7-2.6,8.6-8.2,8.6c-3.3,0-7.1-1.4-7.3-5.2h2.9c0.1,2.1,2.7,2.9,4.6,2.9
			c3.8,0,5.3-2.7,5.3-6.7v-1.2H852c-1,2.1-3.2,3.2-5.5,3.2c-5.2,0-7.9-4.1-7.9-8.9c0-4.1,2-9.3,8.1-9.3c2.2,0,4.2,1,5.2,2.9h0v-2.5
			h2.7V318.8z M851.9,311.2c0-3.1-1.4-6.3-5-6.3c-3.7,0-5.2,3-5.2,6.4c0,3.2,1.2,6.7,5,6.7S851.9,314.5,851.9,311.2z"/>
		<path class="st18" d="M859.2,302.8h2.7v2.8h0.1c1.2-2.2,3.2-3.2,5.7-3.2c4.6,0,6.1,2.7,6.1,6.4v11.6h-2.9v-11.9
			c0-2.2-1.4-3.5-3.6-3.5c-3.5,0-5.2,2.3-5.2,5.5v9.9h-2.9V302.8z"/>
		<path class="st18" d="M893.1,314.8c-0.8,3.9-3.5,6-7.5,6c-5.6,0-8.3-3.9-8.4-9.2c0-5.3,3.5-9.1,8.3-9.1c6.2,0,8.1,5.8,8,10.1
			h-13.2c-0.1,3.1,1.6,5.8,5.5,5.8c2.4,0,4-1.1,4.6-3.4H893.1z M890.3,309.9c-0.2-2.8-2.2-5-5.1-5c-3,0-4.9,2.2-5,5H890.3z"/>
		<path class="st18" d="M900.3,302.8h3.5v2.5h-3.5v10.9c0,1.4,0.4,1.6,2.2,1.6h1.3v2.5h-2.2c-3,0-4.2-0.6-4.2-3.8v-11.2h-3v-2.5h3
			v-5.3h2.9V302.8z"/>
		<path class="st18" d="M910.1,299.6h-2.9v-3.5h2.9V299.6z M907.2,302.8h2.9v17.6h-2.9V302.8z"/>
		<path class="st18" d="M926.5,308.4c-0.4-2.2-1.9-3.5-4.4-3.5c-4.2,0-5.5,3.3-5.5,6.9c0,3.3,1.5,6.4,5.1,6.4c2.8,0,4.5-1.6,4.8-4.3
			h3c-0.6,4.3-3.3,6.8-7.8,6.8c-5.4,0-8.2-3.7-8.2-9c0-5.3,2.7-9.4,8.3-9.4c4,0,7.1,1.9,7.6,6.1H926.5z"/>
		<path class="st18" d="M957.3,314.8c-0.8,3.9-3.5,6-7.5,6c-5.6,0-8.3-3.9-8.4-9.2c0-5.3,3.5-9.1,8.3-9.1c6.2,0,8.1,5.8,8,10.1
			h-13.2c-0.1,3.1,1.6,5.8,5.5,5.8c2.4,0,4-1.1,4.6-3.4H957.3z M954.5,309.9c-0.2-2.8-2.2-5-5.1-5c-3,0-4.9,2.2-5,5H954.5z"/>
		<path class="st18" d="M960.5,302.8h2.7v2.8h0.1c1.2-2.2,3.2-3.2,5.7-3.2c4.6,0,6.1,2.7,6.1,6.4v11.6h-2.9v-11.9
			c0-2.2-1.4-3.5-3.6-3.5c-3.5,0-5.2,2.3-5.2,5.5v9.9h-2.9V302.8z"/>
		<path class="st18" d="M987.4,320.3h-3.1l-6.5-17.6h3.2l4.9,14.7h0.1l4.8-14.7h3L987.4,320.3z"/>
		<path class="st18" d="M999.5,299.6h-2.9v-3.5h2.9V299.6z M996.6,302.8h2.9v17.6h-2.9V302.8z"/>
		<path class="st18" d="M1003.9,302.8h2.7v3.7h0.1c1.4-2.9,3.3-4.2,6.5-4.1v3.1c-4.7,0-6.4,2.6-6.4,7.1v7.8h-2.9V302.8z"/>
		<path class="st18" d="M1022.9,302.3c5.6,0,8.5,4,8.5,9.2c0,5.1-3,9.2-8.5,9.2c-5.6,0-8.5-4-8.5-9.2
			C1014.4,306.4,1017.3,302.3,1022.9,302.3z M1022.9,318.2c3,0,5.5-2.4,5.5-6.6s-2.4-6.7-5.5-6.7c-3,0-5.5,2.4-5.5,6.7
			S1019.9,318.2,1022.9,318.2z"/>
		<path class="st18" d="M1034.8,302.8h2.7v2.8h0.1c1.2-2.2,3.2-3.2,5.7-3.2c4.6,0,6.1,2.7,6.1,6.4v11.6h-2.9v-11.9
			c0-2.2-1.4-3.5-3.6-3.5c-3.5,0-5.2,2.3-5.2,5.5v9.9h-2.9V302.8z"/>
		<path class="st18" d="M1053.7,302.8h2.7v2.6h0.1c1.3-2,3.2-3,5.7-3c2.2,0,4.1,0.8,4.8,3c1.2-1.9,3.2-3,5.5-3
			c3.5,0,5.8,1.5,5.8,5.1v12.9h-2.9v-11.5c0-2.2-0.6-3.9-3.4-3.9s-4.6,1.8-4.6,4.5v10.9h-2.9v-11.5c0-2.3-0.7-3.9-3.3-3.9
			c-3.4,0-4.7,3.1-4.7,4.5v10.9h-2.9V302.8z"/>
		<path class="st18" d="M1097.7,314.8c-0.8,3.9-3.5,6-7.5,6c-5.6,0-8.3-3.9-8.4-9.2c0-5.3,3.5-9.1,8.3-9.1c6.2,0,8.1,5.8,8,10.1
			h-13.2c-0.1,3.1,1.6,5.8,5.5,5.8c2.4,0,4-1.1,4.6-3.4H1097.7z M1094.9,309.9c-0.2-2.8-2.2-5-5.1-5c-3,0-4.9,2.2-5,5H1094.9z"/>
		<path class="st18" d="M1101,302.8h2.7v2.8h0.1c1.2-2.2,3.2-3.2,5.7-3.2c4.6,0,6.1,2.7,6.1,6.4v11.6h-2.9v-11.9
			c0-2.2-1.4-3.5-3.6-3.5c-3.5,0-5.2,2.3-5.2,5.5v9.9h-2.9V302.8z"/>
		<path class="st18" d="M1123.9,302.8h3.5v2.5h-3.5v10.9c0,1.4,0.4,1.6,2.2,1.6h1.3v2.5h-2.2c-3,0-4.2-0.6-4.2-3.8v-11.2h-3v-2.5h3
			v-5.3h2.9V302.8z"/>
		<path class="st18" d="M1144.8,327.1c-3.3-5.1-5.3-10-5.3-15.9c0-5.3,1.8-11,5.3-15.7h2.2c-3.3,5.1-4.5,10.1-4.5,15.7
			c0,5.7,1.3,10.7,4.5,15.9H1144.8z"/>
		<path class="st18" d="M1163.9,314.8c-0.8,3.9-3.5,6-7.5,6c-5.6,0-8.3-3.9-8.4-9.2c0-5.3,3.5-9.1,8.3-9.1c6.2,0,8.1,5.8,8,10.1
			H1151c-0.1,3.1,1.6,5.8,5.5,5.8c2.4,0,4-1.1,4.6-3.4H1163.9z M1161.1,309.9c-0.2-2.8-2.2-5-5.1-5c-3,0-4.9,2.2-5,5H1161.1z"/>
		<path class="st18" d="M1167.8,316.6h3.8v3.8h-3.8V316.6z"/>
		<path class="st18" d="M1191.7,318.8c0,5.7-2.6,8.6-8.2,8.6c-3.3,0-7.1-1.4-7.3-5.2h2.9c0.1,2.1,2.7,2.9,4.6,2.9
			c3.8,0,5.3-2.7,5.3-6.7v-1.2h-0.1c-1,2.1-3.2,3.2-5.5,3.2c-5.2,0-7.9-4.1-7.9-8.9c0-4.1,2-9.3,8.1-9.3c2.2,0,4.2,1,5.2,2.9h0v-2.5
			h2.7V318.8z M1188.9,311.2c0-3.1-1.4-6.3-5-6.3c-3.7,0-5.2,3-5.2,6.4c0,3.2,1.2,6.7,5,6.7C1187.5,318,1188.9,314.5,1188.9,311.2z"
			/>
		<path class="st18" d="M1196.7,316.6h3.8v3.8h-3.8V316.6z"/>
		<path class="st18" d="M1206.2,316.6h3.8v3.4c0,2.6-1.1,4.6-3.7,5.3v-1.7c1.5-0.5,2.1-2.2,2-3.3h-2V316.6z"/>
		<path class="st18" d="M1224.5,296.1h2.9v9.3h0.1c0.9-2.1,3.5-3,5.5-3c4.6,0,6.1,2.7,6.1,6.4v11.6h-2.9v-11.9
			c0-2.2-1.4-3.5-3.6-3.5c-3.5,0-5.2,2.3-5.2,5.5v9.9h-2.9V296.1z"/>
		<path class="st18" d="M1250.9,302.3c5.6,0,8.5,4,8.5,9.2c0,5.1-3,9.2-8.5,9.2c-5.6,0-8.5-4-8.5-9.2
			C1242.4,306.4,1245.4,302.3,1250.9,302.3z M1250.9,318.2c3,0,5.5-2.4,5.5-6.6s-2.4-6.7-5.5-6.7s-5.5,2.4-5.5,6.7
			S1247.9,318.2,1250.9,318.2z"/>
		<path class="st18" d="M1264.6,314.8c0.1,2.6,2.4,3.4,4.7,3.4c1.8,0,4.2-0.4,4.2-2.6c0-4.5-11.5-1.5-11.5-8.2c0-3.5,3.5-5,6.6-5
			c3.9,0,6.9,1.2,7.2,5.5h-2.9c-0.2-2.2-2.2-3-4.1-3c-1.7,0-3.7,0.5-3.7,2.2c0,2,3.1,2.4,5.7,3.1c2.9,0.6,5.7,1.6,5.7,5
			c0,4.2-3.9,5.5-7.5,5.5c-3.9,0-7.3-1.6-7.4-5.9H1264.6z"/>
		<path class="st18" d="M1280,302.8h2.9v2.4h0.1c1-1.9,3.2-2.8,5.6-2.8c5.4,0,8.1,4.3,8.1,9.2c0,5-2.7,9.1-8,9.1
			c-1.8,0-4.4-0.7-5.7-2.8h-0.1v9.1h-2.9V302.8z M1288.1,304.9c-3.9,0-5.4,3.4-5.4,6.6c0,3.4,1.6,6.7,5.5,6.7c3.9,0,5.3-3.4,5.3-6.8
			C1293.6,308.1,1291.9,304.9,1288.1,304.9z"/>
		<path class="st18" d="M1303.1,299.6h-2.9v-3.5h2.9V299.6z M1300.2,302.8h2.9v17.6h-2.9V302.8z"/>
		<path class="st18" d="M1311.6,302.8h3.5v2.5h-3.5v10.9c0,1.4,0.4,1.6,2.2,1.6h1.3v2.5h-2.2c-3,0-4.2-0.6-4.2-3.8v-11.2h-3v-2.5h3
			v-5.3h2.9V302.8z"/>
		<path class="st18" d="M1333.9,320.3c-0.5,0.3-1.2,0.5-2.1,0.5c-1.5,0-2.4-0.8-2.4-2.7c-1.6,1.9-3.7,2.7-6.2,2.7
			c-3.2,0-5.8-1.4-5.8-4.9c0-4,3-4.9,5.9-5.4c3.2-0.6,5.9-0.4,5.9-2.6c0-2.5-2.1-2.9-3.9-2.9c-2.4,0-4.2,0.7-4.4,3.3h-2.9
			c0.2-4.4,3.5-5.9,7.4-5.9c3.2,0,6.6,0.7,6.6,4.8v9c0,1.4,0,2,0.9,2c0.3,0,0.6-0.1,0.9-0.2V320.3z M1329.2,311.3
			c-2.2,1.7-8.8,0-8.8,4.4c0,1.9,1.6,2.6,3.4,2.6c3.8,0,5.4-2.3,5.4-4V311.3z"/>
		<path class="st18" d="M1336.7,296.1h2.9v24.3h-2.9V296.1z"/>
		<path class="st18" d="M1341.6,327.1c3.3-5.1,4.5-10.1,4.5-15.7c0-5.7-1.3-10.7-4.5-15.9h2.2c3.3,5.1,5.3,10,5.3,15.9
			c0,5.3-1.8,11-5.3,15.7H1341.6z"/>
	</g>
</g>
<g>
	<g>
		<path class="st18" d="M688.7,398.9h10.5c6.3,0,11,4,11,12c0,7-3.6,12.3-11,12.3h-10.5V398.9z M694,418.7h4.8
			c3.1,0,6.1-1.9,6.1-7.3c0-4.9-1.7-8-7-8H694V418.7z"/>
		<path class="st18" d="M717.3,415.6c0.1,3.1,1.6,4.5,4.3,4.5c1.9,0,3.5-1.2,3.8-2.3h4.2c-1.4,4.2-4.2,5.9-8.2,5.9
			c-5.5,0-9-3.8-9-9.2c0-5.3,3.6-9.3,9-9.3c6,0,8.9,5,8.5,10.4H717.3z M725.2,412.5c-0.4-2.4-1.5-3.7-3.8-3.7c-3.1,0-3.9,2.4-4,3.7
			H725.2z"/>
		<path class="st18" d="M736.6,417.5c0,2.1,1.8,3,3.7,3c1.4,0,3.2-0.5,3.2-2.2c0-1.5-2-2-5.5-2.7c-2.8-0.6-5.6-1.6-5.6-4.7
			c0-4.5,3.9-5.6,7.6-5.6c3.8,0,7.4,1.3,7.8,5.6h-4.6c-0.1-1.9-1.6-2.4-3.3-2.4c-1.1,0-2.7,0.2-2.7,1.6c0,1.7,2.8,2,5.5,2.6
			c2.8,0.6,5.6,1.7,5.6,4.9c0,4.6-4,6.1-8,6.1c-4.1,0-8.1-1.5-8.3-6.2H736.6z"/>
		<path class="st18" d="M756.1,402.9h-4.8v-4h4.8V402.9z M751.3,405.6h4.8v17.6h-4.8V405.6z"/>
		<path class="st18" d="M776.8,422.1c0,2.9-1.1,7.8-9.1,7.8c-3.5,0-7.5-1.7-7.8-5.6h4.8c0.4,1.8,1.9,2.4,3.6,2.4
			c2.7,0,3.9-1.8,3.9-4.4V420h-0.1c-1.1,1.9-3.1,2.7-5.3,2.7c-5.3,0-7.5-4-7.5-8.8c0-4.6,2.7-8.7,7.5-8.7c2.3,0,4,0.8,5.2,2.8h0.1
			v-2.3h4.6V422.1z M772.2,414.2c0-2.9-1-5.4-4.1-5.4c-2.7,0-3.9,2.4-3.9,5c0,2.5,0.9,5.3,3.9,5.3
			C770.9,419.1,772.2,416.7,772.2,414.2z"/>
		<path class="st18" d="M780.7,405.6h4.6v2.4h0.1c1.2-2,3.3-2.9,5.4-2.9c5.1,0,6.4,2.9,6.4,7.2v10.8h-4.8v-9.9
			c0-2.9-0.8-4.3-3.1-4.3c-2.6,0-3.7,1.5-3.7,5v9.2h-4.8V405.6z"/>
		<path class="st18" d="M810.8,398.9h5.3v24.3h-5.3V398.9z"/>
		<path class="st18" d="M820.3,405.6h4.6v2.4h0.1c1.2-2,3.3-2.9,5.4-2.9c5.1,0,6.4,2.9,6.4,7.2v10.8H832v-9.9c0-2.9-0.8-4.3-3.1-4.3
			c-2.6,0-3.7,1.5-3.7,5v9.2h-4.8V405.6z"/>
		<path class="st18" d="M840.5,405.6h4.6v2.2h0.1c1.2-1.9,3.1-2.7,5.2-2.7c5.5,0,8,4.5,8,9.5c0,4.7-2.5,9.1-7.7,9.1
			c-2.1,0-4.1-0.9-5.3-2.7h-0.1v8.4h-4.8V405.6z M853.5,414.5c0-2.8-1.1-5.7-4.2-5.7c-3.2,0-4.2,2.8-4.2,5.7c0,2.9,1.1,5.6,4.2,5.6
			C852.5,420,853.5,417.3,853.5,414.5z"/>
		<path class="st18" d="M877.8,423.2h-4.6v-2.4h-0.1c-1.2,2-3.3,2.9-5.4,2.9c-5.1,0-6.4-2.9-6.4-7.2v-10.8h4.8v9.9
			c0,2.9,0.8,4.3,3.1,4.3c2.6,0,3.7-1.5,3.7-5v-9.2h4.8V423.2z"/>
		<path class="st18" d="M887.5,405.6h3.5v3.2h-3.5v8.7c0,1.6,0.4,2,2,2c0.5,0,1.1,0,1.5-0.1v3.8c-0.8,0.1-1.9,0.2-2.8,0.2
			c-3,0-5.5-0.6-5.5-4.2v-10.4h-2.9v-3.2h2.9v-5.3h4.8V405.6z"/>
		<path class="st18" d="M689,439.7h10.6c4.9,0,7.4,2.7,7.4,7.2s-2.6,7.2-7.4,7.2h-7.4v9.9H689V439.7z M692.2,451.4h6.3
			c3.7,0,5.3-1.6,5.3-4.5s-1.6-4.5-5.3-4.5h-6.3V451.4z"/>
		<path class="st18" d="M725.1,464h-2.7v-2.8h-0.1c-1.2,2.2-3.2,3.2-5.7,3.2c-4.6,0-6.1-2.7-6.1-6.4v-11.6h2.9v11.9
			c0,2.2,1.4,3.5,3.6,3.5c3.5,0,5.2-2.3,5.2-5.5v-9.9h2.9V464z"/>
		<path class="st18" d="M729.5,446.4h2.7v2.6h0.1c1.3-2,3.2-3,5.7-3c2.2,0,4.1,0.8,4.8,3c1.2-1.9,3.2-3,5.5-3c3.5,0,5.8,1.5,5.8,5.1
			V464h-2.9v-11.5c0-2.2-0.6-3.9-3.4-3.9c-2.8,0-4.6,1.8-4.6,4.5V464h-2.9v-11.5c0-2.3-0.7-3.9-3.3-3.9c-3.4,0-4.7,3.1-4.7,4.5V464
			h-2.9V446.4z"/>
		<path class="st18" d="M758.6,446.4h2.9v2.4h0.1c1-1.9,3.2-2.8,5.6-2.8c5.4,0,8.1,4.3,8.1,9.2c0,5-2.7,9.1-8,9.1
			c-1.8,0-4.4-0.7-5.7-2.8h-0.1v9.1h-2.9V446.4z M766.7,448.6c-3.9,0-5.4,3.4-5.4,6.6c0,3.4,1.6,6.7,5.5,6.7c3.9,0,5.3-3.4,5.3-6.8
			C772.2,451.8,770.5,448.6,766.7,448.6z"/>
		<path class="st18" d="M788.1,446.4h2.7v2.6h0.1c1.3-2,3.2-3,5.7-3c2.2,0,4.1,0.8,4.8,3c1.2-1.9,3.2-3,5.5-3c3.5,0,5.8,1.5,5.8,5.1
			V464h-2.9v-11.5c0-2.2-0.6-3.9-3.4-3.9c-2.8,0-4.6,1.8-4.6,4.5V464h-2.9v-11.5c0-2.3-0.7-3.9-3.3-3.9c-3.4,0-4.7,3.1-4.7,4.5V464
			h-2.9V446.4z"/>
		<path class="st18" d="M831.6,464h-2.7v-2.8h-0.1c-1.2,2.2-3.2,3.2-5.7,3.2c-4.6,0-6.1-2.7-6.1-6.4v-11.6h2.9v11.9
			c0,2.2,1.4,3.5,3.6,3.5c3.5,0,5.2-2.3,5.2-5.5v-9.9h2.9V464z"/>
		<path class="st18" d="M837.7,458.5c0.1,2.6,2.4,3.4,4.7,3.4c1.8,0,4.2-0.4,4.2-2.6c0-4.5-11.5-1.5-11.5-8.2c0-3.5,3.5-5,6.6-5
			c3.9,0,6.9,1.2,7.2,5.5h-2.9c-0.2-2.2-2.2-3-4.1-3c-1.7,0-3.7,0.5-3.7,2.2c0,2,3.1,2.4,5.7,3.1c2.9,0.6,5.7,1.6,5.7,5
			c0,4.2-3.9,5.5-7.5,5.5c-3.9,0-7.3-1.6-7.4-5.9H837.7z"/>
		<path class="st18" d="M857,446.4h3.5v2.5H857v10.9c0,1.4,0.4,1.6,2.2,1.6h1.3v2.5h-2.2c-3,0-4.2-0.6-4.2-3.8V449h-3v-2.5h3v-5.3
			h2.9V446.4z"/>
		<path class="st18" d="M874.3,449h-3v-2.5h3v-2.6c0-2.9,1.7-4.4,4.9-4.4c0.5,0,1.3,0.1,1.9,0.3v2.5c-0.5-0.2-1.1-0.2-1.6-0.2
			c-1.4,0-2.2,0.4-2.2,2v2.4h3.4v2.5h-3.4v15h-2.9V449z"/>
		<path class="st18" d="M897.8,464H895v-2.8H895c-1.2,2.2-3.2,3.2-5.7,3.2c-4.6,0-6.1-2.7-6.1-6.4v-11.6h2.9v11.9
			c0,2.2,1.4,3.5,3.6,3.5c3.5,0,5.2-2.3,5.2-5.5v-9.9h2.9V464z"/>
		<path class="st18" d="M902.1,446.4h2.7v2.8h0.1c1.2-2.2,3.2-3.2,5.7-3.2c4.6,0,6.1,2.7,6.1,6.4V464h-2.9v-11.9
			c0-2.2-1.4-3.5-3.6-3.5c-3.5,0-5.2,2.3-5.2,5.5v9.9h-2.9V446.4z"/>
		<path class="st18" d="M932.9,452.1c-0.4-2.2-1.9-3.5-4.4-3.5c-4.2,0-5.5,3.3-5.5,6.9c0,3.3,1.5,6.4,5.1,6.4c2.8,0,4.5-1.6,4.8-4.3
			h3c-0.6,4.3-3.3,6.8-7.8,6.8c-5.4,0-8.2-3.7-8.2-9c0-5.3,2.7-9.4,8.3-9.4c4,0,7.1,1.9,7.6,6.1H932.9z"/>
		<path class="st18" d="M943.3,446.4h3.5v2.5h-3.5v10.9c0,1.4,0.4,1.6,2.2,1.6h1.3v2.5h-2.2c-3,0-4.2-0.6-4.2-3.8V449h-3v-2.5h3
			v-5.3h2.9V446.4z"/>
		<path class="st18" d="M953,443.3h-2.9v-3.5h2.9V443.3z M950.1,446.4h2.9V464h-2.9V446.4z"/>
		<path class="st18" d="M965.1,446c5.6,0,8.5,4,8.5,9.2c0,5.1-3,9.2-8.5,9.2s-8.5-4-8.5-9.2C956.6,450.1,959.5,446,965.1,446z
			 M965.1,461.9c3,0,5.5-2.4,5.5-6.6s-2.4-6.7-5.5-6.7c-3,0-5.5,2.4-5.5,6.7S962.1,461.9,965.1,461.9z"/>
		<path class="st18" d="M977,446.4h2.7v2.8h0.1c1.2-2.2,3.2-3.2,5.7-3.2c4.6,0,6.1,2.7,6.1,6.4V464h-2.9v-11.9
			c0-2.2-1.4-3.5-3.6-3.5c-3.5,0-5.2,2.3-5.2,5.5v9.9H977V446.4z"/>
		<path class="st18" d="M1019.9,464h-2.7v-2.8h-0.1c-1.2,2.2-3.2,3.2-5.7,3.2c-4.6,0-6.1-2.7-6.1-6.4v-11.6h2.9v11.9
			c0,2.2,1.4,3.5,3.6,3.5c3.5,0,5.2-2.3,5.2-5.5v-9.9h2.9V464z"/>
		<path class="st18" d="M1024.3,446.4h2.7v2.8h0.1c1.2-2.2,3.2-3.2,5.7-3.2c4.6,0,6.1,2.7,6.1,6.4V464h-2.9v-11.9
			c0-2.2-1.4-3.5-3.6-3.5c-3.5,0-5.2,2.3-5.2,5.5v9.9h-2.9V446.4z"/>
		<path class="st18" d="M1046.3,443.3h-2.9v-3.5h2.9V443.3z M1043.4,446.4h2.9V464h-2.9V446.4z"/>
		<path class="st18" d="M1050.8,446.4h2.7v2.8h0.1c1.2-2.2,3.2-3.2,5.7-3.2c4.6,0,6.1,2.7,6.1,6.4V464h-2.9v-11.9
			c0-2.2-1.4-3.5-3.6-3.5c-3.5,0-5.2,2.3-5.2,5.5v9.9h-2.9V446.4z"/>
		<path class="st18" d="M1073.7,446.4h3.5v2.5h-3.5v10.9c0,1.4,0.4,1.6,2.2,1.6h1.3v2.5h-2.2c-3,0-4.2-0.6-4.2-3.8V449h-3v-2.5h3
			v-5.3h2.9V446.4z"/>
		<path class="st18" d="M1095.4,458.4c-0.8,3.9-3.5,6-7.5,6c-5.6,0-8.3-3.9-8.4-9.2c0-5.3,3.5-9.1,8.3-9.1c6.2,0,8.1,5.8,8,10.1
			h-13.2c-0.1,3.1,1.6,5.8,5.5,5.8c2.4,0,4-1.1,4.6-3.4H1095.4z M1092.6,453.5c-0.2-2.8-2.2-5-5.1-5c-3,0-4.9,2.2-5,5H1092.6z"/>
		<path class="st18" d="M1098.5,446.4h2.7v3.7h0.1c1.4-2.9,3.3-4.2,6.5-4.1v3.1c-4.7,0-6.4,2.6-6.4,7.1v7.8h-2.9V446.4z"/>
		<path class="st18" d="M1109.8,446.4h2.7v3.7h0.1c1.4-2.9,3.3-4.2,6.5-4.1v3.1c-4.7,0-6.4,2.6-6.4,7.1v7.8h-2.9V446.4z"/>
		<path class="st18" d="M1135.8,464h-2.7v-2.8h-0.1c-1.2,2.2-3.2,3.2-5.7,3.2c-4.6,0-6.1-2.7-6.1-6.4v-11.6h2.9v11.9
			c0,2.2,1.4,3.5,3.6,3.5c3.5,0,5.2-2.3,5.2-5.5v-9.9h2.9V464z"/>
		<path class="st18" d="M1140.3,446.4h2.9v2.4h0.1c1-1.9,3.2-2.8,5.6-2.8c5.4,0,8.1,4.3,8.1,9.2c0,5-2.7,9.1-8,9.1
			c-1.8,0-4.4-0.7-5.7-2.8h-0.1v9.1h-2.9V446.4z M1148.4,448.6c-3.9,0-5.4,3.4-5.4,6.6c0,3.4,1.6,6.7,5.5,6.7c3.9,0,5.3-3.4,5.3-6.8
			C1153.9,451.8,1152.2,448.6,1148.4,448.6z"/>
		<path class="st18" d="M1164.3,446.4h3.5v2.5h-3.5v10.9c0,1.4,0.4,1.6,2.2,1.6h1.3v2.5h-2.2c-3,0-4.2-0.6-4.2-3.8V449h-3v-2.5h3
			v-5.3h2.9V446.4z"/>
		<path class="st18" d="M1186,458.4c-0.8,3.9-3.5,6-7.5,6c-5.6,0-8.3-3.9-8.4-9.2c0-5.3,3.5-9.1,8.3-9.1c6.2,0,8.1,5.8,8,10.1h-13.2
			c-0.1,3.1,1.6,5.8,5.5,5.8c2.4,0,4-1.1,4.6-3.4H1186z M1183.2,453.5c-0.2-2.8-2.2-5-5.1-5c-3,0-4.9,2.2-5,5H1183.2z"/>
		<path class="st18" d="M1205,464h-2.9v-2.4h-0.1c-1,1.9-3.2,2.8-5.6,2.8c-5.4,0-8.1-4.3-8.1-9.2c0-5,2.7-9.1,8-9.1
			c1.8,0,4.4,0.7,5.7,2.8h0.1v-9h2.9V464z M1196.8,461.9c3.9,0,5.4-3.4,5.4-6.6c0-3.4-1.6-6.7-5.5-6.7c-3.9,0-5.3,3.4-5.3,6.8
			C1191.4,458.7,1193.1,461.9,1196.8,461.9z"/>
		<path class="st18" d="M1236.3,464h-3.1l-3.6-14h-0.1l-3.5,14h-3.1l-5.6-17.6h3.2l4,14.4h0.1l3.5-14.4h3.2l3.7,14.4h0.1l3.9-14.4h3
			L1236.3,464z"/>
		<path class="st18" d="M1244.7,439.7h2.9v9.3h0.1c0.9-2.1,3.5-3,5.5-3c4.6,0,6.1,2.7,6.1,6.4V464h-2.9v-11.9c0-2.2-1.4-3.5-3.6-3.5
			c-3.5,0-5.2,2.3-5.2,5.5v9.9h-2.9V439.7z"/>
		<path class="st18" d="M1278.6,458.4c-0.8,3.9-3.5,6-7.5,6c-5.6,0-8.3-3.9-8.4-9.2c0-5.3,3.5-9.1,8.3-9.1c6.2,0,8.1,5.8,8,10.1
			h-13.2c-0.1,3.1,1.6,5.8,5.5,5.8c2.4,0,4-1.1,4.6-3.4H1278.6z M1275.8,453.5c-0.2-2.8-2.2-5-5.1-5c-3,0-4.9,2.2-5,5H1275.8z"/>
		<path class="st18" d="M1281.8,446.4h2.7v2.8h0.1c1.2-2.2,3.2-3.2,5.7-3.2c4.6,0,6.1,2.7,6.1,6.4V464h-2.9v-11.9
			c0-2.2-1.4-3.5-3.6-3.5c-3.5,0-5.2,2.3-5.2,5.5v9.9h-2.9V446.4z"/>
		<path class="st18" d="M1324.8,464h-2.7v-2.8h-0.1c-1.2,2.2-3.2,3.2-5.7,3.2c-4.6,0-6.1-2.7-6.1-6.4v-11.6h2.9v11.9
			c0,2.2,1.4,3.5,3.6,3.5c3.5,0,5.2-2.3,5.2-5.5v-9.9h2.9V464z"/>
		<path class="st18" d="M1330.9,458.5c0.1,2.6,2.4,3.4,4.7,3.4c1.8,0,4.2-0.4,4.2-2.6c0-4.5-11.5-1.5-11.5-8.2c0-3.5,3.5-5,6.6-5
			c3.9,0,6.9,1.2,7.2,5.5h-2.9c-0.2-2.2-2.2-3-4.1-3c-1.7,0-3.7,0.5-3.7,2.2c0,2,3.1,2.4,5.7,3.1c2.9,0.6,5.7,1.6,5.7,5
			c0,4.2-3.9,5.5-7.5,5.5c-3.9,0-7.3-1.6-7.4-5.9H1330.9z"/>
		<path class="st18" d="M1361.1,458.4c-0.8,3.9-3.5,6-7.5,6c-5.6,0-8.3-3.9-8.4-9.2c0-5.3,3.5-9.1,8.3-9.1c6.2,0,8.1,5.8,8,10.1
			h-13.2c-0.1,3.1,1.6,5.8,5.5,5.8c2.4,0,4-1.1,4.6-3.4H1361.1z M1358.3,453.5c-0.2-2.8-2.2-5-5.1-5c-3,0-4.9,2.2-5,5H1358.3z"/>
		<path class="st18" d="M1380.1,464h-2.9v-2.4h-0.1c-1,1.9-3.2,2.8-5.6,2.8c-5.4,0-8.1-4.3-8.1-9.2c0-5,2.7-9.1,8-9.1
			c1.8,0,4.4,0.7,5.7,2.8h0.1v-9h2.9V464z M1371.9,461.9c3.9,0,5.4-3.4,5.4-6.6c0-3.4-1.6-6.7-5.5-6.7c-3.9,0-5.3,3.4-5.3,6.8
			C1366.5,458.7,1368.2,461.9,1371.9,461.9z"/>
		<path class="st18" d="M1411.4,464h-3.1l-3.6-14h-0.1l-3.5,14h-3.1l-5.6-17.6h3.2l4,14.4h0.1l3.5-14.4h3.2l3.7,14.4h0.1l3.9-14.4h3
			L1411.4,464z"/>
		<path class="st18" d="M1422.8,443.3h-2.9v-3.5h2.9V443.3z M1419.9,446.4h2.9V464h-2.9V446.4z"/>
		<path class="st18" d="M1431.3,446.4h3.5v2.5h-3.5v10.9c0,1.4,0.4,1.6,2.2,1.6h1.3v2.5h-2.2c-3,0-4.2-0.6-4.2-3.8V449h-3v-2.5h3
			v-5.3h2.9V446.4z"/>
		<path class="st18" d="M1438,439.7h2.9v9.3h0.1c0.9-2.1,3.5-3,5.5-3c4.6,0,6.1,2.7,6.1,6.4V464h-2.9v-11.9c0-2.2-1.4-3.5-3.6-3.5
			c-3.5,0-5.2,2.3-5.2,5.5v9.9h-2.9V439.7z"/>
		<path class="st18" d="M688.6,487.2h2.9v2.4h0.1c1-1.9,3.2-2.8,5.6-2.8c5.4,0,8.1,4.3,8.1,9.2c0,5-2.7,9.1-8,9.1
			c-1.8,0-4.4-0.7-5.7-2.8h-0.1v9.1h-2.9V487.2z M696.8,489.4c-3.9,0-5.4,3.4-5.4,6.6c0,3.4,1.6,6.7,5.5,6.7c3.9,0,5.3-3.4,5.3-6.8
			C702.2,492.6,700.5,489.4,696.8,489.4z"/>
		<path class="st18" d="M708.6,487.2h2.7v3.7h0.1c1.4-2.9,3.3-4.2,6.5-4.1v3.1c-4.7,0-6.4,2.6-6.4,7.1v7.8h-2.9V487.2z"/>
		<path class="st18" d="M727.6,486.8c5.6,0,8.5,4,8.5,9.2c0,5.1-3,9.2-8.5,9.2s-8.5-4-8.5-9.2C719,490.9,722,486.8,727.6,486.8z
			 M727.6,502.7c3,0,5.5-2.4,5.5-6.6s-2.4-6.7-5.5-6.7c-3,0-5.5,2.4-5.5,6.7S724.6,502.7,727.6,502.7z"/>
		<path class="st18" d="M755.2,504.8h-2.9v-2.4h-0.1c-1,1.9-3.2,2.8-5.6,2.8c-5.4,0-8.1-4.3-8.1-9.2c0-5,2.7-9.1,8-9.1
			c1.8,0,4.4,0.7,5.7,2.8h0.1v-9h2.9V504.8z M747.1,502.7c3.9,0,5.4-3.4,5.4-6.6c0-3.4-1.6-6.7-5.5-6.7c-3.9,0-5.3,3.4-5.3,6.8
			C741.6,499.5,743.3,502.7,747.1,502.7z"/>
		<path class="st18" d="M774.2,504.8h-2.7V502h-0.1c-1.2,2.2-3.2,3.2-5.7,3.2c-4.6,0-6.1-2.7-6.1-6.4v-11.6h2.9v11.9
			c0,2.2,1.4,3.5,3.6,3.5c3.5,0,5.2-2.3,5.2-5.5v-9.9h2.9V504.8z"/>
		<path class="st18" d="M790.5,492.9c-0.4-2.2-1.9-3.5-4.4-3.5c-4.2,0-5.5,3.3-5.5,6.9c0,3.3,1.5,6.4,5.1,6.4c2.8,0,4.5-1.6,4.8-4.3
			h3c-0.6,4.3-3.3,6.8-7.8,6.8c-5.4,0-8.2-3.7-8.2-9c0-5.3,2.7-9.4,8.3-9.4c4,0,7.1,1.9,7.6,6.1H790.5z"/>
		<path class="st18" d="M800.8,487.2h3.5v2.5h-3.5v10.9c0,1.4,0.4,1.6,2.2,1.6h1.3v2.5h-2.2c-3,0-4.2-0.6-4.2-3.8v-11.2h-3v-2.5h3
			V482h2.9V487.2z"/>
		<path class="st18" d="M809.3,499.3c0.1,2.6,2.4,3.4,4.7,3.4c1.8,0,4.2-0.4,4.2-2.6c0-4.5-11.5-1.5-11.5-8.2c0-3.5,3.5-5,6.6-5
			c3.9,0,6.9,1.2,7.2,5.5h-2.9c-0.2-2.2-2.2-3-4.1-3c-1.7,0-3.7,0.5-3.7,2.2c0,2,3.1,2.4,5.7,3.1c2.9,0.6,5.7,1.6,5.7,5
			c0,4.2-3.9,5.5-7.5,5.5c-3.9,0-7.3-1.6-7.4-5.9H809.3z"/>
		<path class="st18" d="M838,487.2h3.5v2.5H838v10.9c0,1.4,0.4,1.6,2.2,1.6h1.3v2.5h-2.2c-3,0-4.2-0.6-4.2-3.8v-11.2h-3v-2.5h3V482
			h2.9V487.2z"/>
		<path class="st18" d="M844.7,480.5h2.9v9.3h0.1c0.9-2.1,3.5-3,5.5-3c4.6,0,6.1,2.7,6.1,6.4v11.6h-2.9v-11.9c0-2.2-1.4-3.5-3.6-3.5
			c-3.5,0-5.2,2.3-5.2,5.5v9.9h-2.9V480.5z"/>
		<path class="st18" d="M879.2,504.7c-0.5,0.3-1.2,0.5-2.1,0.5c-1.5,0-2.4-0.8-2.4-2.7c-1.6,1.9-3.7,2.7-6.2,2.7
			c-3.2,0-5.8-1.4-5.8-4.9c0-4,3-4.9,5.9-5.4c3.2-0.6,5.9-0.4,5.9-2.6c0-2.5-2.1-2.9-3.9-2.9c-2.4,0-4.2,0.7-4.4,3.3h-2.9
			c0.2-4.4,3.5-5.9,7.4-5.9c3.2,0,6.6,0.7,6.6,4.8v9c0,1.4,0,2,0.9,2c0.3,0,0.6-0.1,0.9-0.2V504.7z M874.5,495.7
			c-2.2,1.7-8.8,0-8.8,4.4c0,1.9,1.6,2.6,3.4,2.6c3.8,0,5.4-2.3,5.4-4V495.7z"/>
		<path class="st18" d="M885.9,487.2h3.5v2.5h-3.5v10.9c0,1.4,0.4,1.6,2.2,1.6h1.3v2.5h-2.2c-3,0-4.2-0.6-4.2-3.8v-11.2h-3v-2.5h3
			V482h2.9V487.2z"/>
		<path class="st18" d="M917.2,503.3c0,5.7-2.6,8.6-8.2,8.6c-3.3,0-7.1-1.4-7.3-5.2h2.9c0.1,2.1,2.7,2.9,4.6,2.9
			c3.8,0,5.3-2.7,5.3-6.7v-1.2h-0.1c-1,2.1-3.2,3.2-5.5,3.2c-5.2,0-7.9-4.1-7.9-8.9c0-4.1,2-9.3,8.1-9.3c2.2,0,4.2,1,5.2,2.9h0v-2.5
			h2.7V503.3z M914.3,495.7c0-3.1-1.4-6.3-5-6.3c-3.7,0-5.2,3-5.2,6.4c0,3.2,1.2,6.7,5,6.7S914.3,499,914.3,495.7z"/>
		<path class="st18" d="M936.5,499.2c-0.8,3.9-3.5,6-7.5,6c-5.6,0-8.3-3.9-8.4-9.2c0-5.3,3.5-9.1,8.3-9.1c6.2,0,8.1,5.8,8,10.1
			h-13.2c-0.1,3.1,1.6,5.8,5.5,5.8c2.4,0,4-1.1,4.6-3.4H936.5z M933.8,494.3c-0.2-2.8-2.2-5-5.1-5c-3,0-4.9,2.2-5,5H933.8z"/>
		<path class="st18" d="M939.8,487.2h2.7v2.8h0.1c1.2-2.2,3.2-3.2,5.7-3.2c4.6,0,6.1,2.7,6.1,6.4v11.6h-2.9v-11.9
			c0-2.2-1.4-3.5-3.6-3.5c-3.5,0-5.2,2.3-5.2,5.5v9.9h-2.9V487.2z"/>
		<path class="st18" d="M973.7,499.2c-0.8,3.9-3.5,6-7.5,6c-5.6,0-8.3-3.9-8.4-9.2c0-5.3,3.5-9.1,8.3-9.1c6.2,0,8.1,5.8,8,10.1
			h-13.2c-0.1,3.1,1.6,5.8,5.5,5.8c2.4,0,4-1.1,4.6-3.4H973.7z M970.9,494.3c-0.2-2.8-2.2-5-5.1-5c-3,0-4.9,2.2-5,5H970.9z"/>
		<path class="st18" d="M976.9,487.2h2.7v3.7h0.1c1.4-2.9,3.3-4.2,6.5-4.1v3.1c-4.7,0-6.4,2.6-6.4,7.1v7.8h-2.9V487.2z"/>
		<path class="st18" d="M1003.9,504.7c-0.5,0.3-1.2,0.5-2.1,0.5c-1.5,0-2.4-0.8-2.4-2.7c-1.6,1.9-3.7,2.7-6.2,2.7
			c-3.2,0-5.8-1.4-5.8-4.9c0-4,3-4.9,5.9-5.4c3.2-0.6,5.9-0.4,5.9-2.6c0-2.5-2.1-2.9-3.9-2.9c-2.4,0-4.2,0.7-4.4,3.3H988
			c0.2-4.4,3.5-5.9,7.4-5.9c3.2,0,6.6,0.7,6.6,4.8v9c0,1.4,0,2,0.9,2c0.3,0,0.6-0.1,0.9-0.2V504.7z M999.2,495.7
			c-2.2,1.7-8.8,0-8.8,4.4c0,1.9,1.6,2.6,3.4,2.6c3.8,0,5.4-2.3,5.4-4V495.7z"/>
		<path class="st18" d="M1010.6,487.2h3.5v2.5h-3.5v10.9c0,1.4,0.4,1.6,2.2,1.6h1.3v2.5h-2.2c-3,0-4.2-0.6-4.2-3.8v-11.2h-3v-2.5h3
			V482h2.9V487.2z"/>
		<path class="st18" d="M1032.2,499.2c-0.8,3.9-3.5,6-7.5,6c-5.6,0-8.3-3.9-8.4-9.2c0-5.3,3.5-9.1,8.3-9.1c6.2,0,8.1,5.8,8,10.1
			h-13.2c-0.1,3.1,1.6,5.8,5.5,5.8c2.4,0,4-1.1,4.6-3.4H1032.2z M1029.5,494.3c-0.2-2.8-2.2-5-5.1-5c-3,0-4.9,2.2-5,5H1029.5z"/>
		<path class="st18" d="M1060.5,504.7c-0.5,0.3-1.2,0.5-2.1,0.5c-1.5,0-2.4-0.8-2.4-2.7c-1.6,1.9-3.7,2.7-6.2,2.7
			c-3.2,0-5.8-1.4-5.8-4.9c0-4,3-4.9,5.9-5.4c3.2-0.6,5.9-0.4,5.9-2.6c0-2.5-2.1-2.9-3.9-2.9c-2.4,0-4.2,0.7-4.4,3.3h-2.9
			c0.2-4.4,3.5-5.9,7.4-5.9c3.2,0,6.6,0.7,6.6,4.8v9c0,1.4,0,2,0.9,2c0.3,0,0.6-0.1,0.9-0.2V504.7z M1055.8,495.7
			c-2.2,1.7-8.8,0-8.8,4.4c0,1.9,1.6,2.6,3.4,2.6c3.8,0,5.4-2.3,5.4-4V495.7z"/>
		<path class="st18" d="M1063.2,487.2h2.7v2.8h0.1c1.2-2.2,3.2-3.2,5.7-3.2c4.6,0,6.1,2.7,6.1,6.4v11.6h-2.9v-11.9
			c0-2.2-1.4-3.5-3.6-3.5c-3.5,0-5.2,2.3-5.2,5.5v9.9h-2.9V487.2z"/>
		<path class="st18" d="M1106.6,499.2c-0.8,3.9-3.5,6-7.5,6c-5.6,0-8.3-3.9-8.4-9.2c0-5.3,3.5-9.1,8.3-9.1c6.2,0,8.1,5.8,8,10.1
			h-13.2c-0.1,3.1,1.6,5.8,5.5,5.8c2.4,0,4-1.1,4.6-3.4H1106.6z M1103.8,494.3c-0.2-2.8-2.2-5-5.1-5c-3,0-4.9,2.2-5,5H1103.8z"/>
		<path class="st18" d="M1110,480.5h2.9v24.3h-2.9V480.5z"/>
		<path class="st18" d="M1132.4,499.2c-0.8,3.9-3.5,6-7.5,6c-5.6,0-8.3-3.9-8.4-9.2c0-5.3,3.5-9.1,8.3-9.1c6.2,0,8.1,5.8,8,10.1
			h-13.2c-0.1,3.1,1.6,5.8,5.5,5.8c2.4,0,4-1.1,4.6-3.4H1132.4z M1129.6,494.3c-0.2-2.8-2.2-5-5.1-5c-3,0-4.9,2.2-5,5H1129.6z"/>
		<path class="st18" d="M1147.6,492.9c-0.4-2.2-1.9-3.5-4.4-3.5c-4.2,0-5.5,3.3-5.5,6.9c0,3.3,1.5,6.4,5.1,6.4
			c2.8,0,4.5-1.6,4.8-4.3h3c-0.6,4.3-3.3,6.8-7.8,6.8c-5.4,0-8.2-3.7-8.2-9c0-5.3,2.7-9.4,8.3-9.4c4,0,7.1,1.9,7.6,6.1H1147.6z"/>
		<path class="st18" d="M1157.9,487.2h3.5v2.5h-3.5v10.9c0,1.4,0.4,1.6,2.2,1.6h1.3v2.5h-2.2c-3,0-4.2-0.6-4.2-3.8v-11.2h-3v-2.5h3
			V482h2.9V487.2z"/>
		<path class="st18" d="M1164.5,487.2h2.7v3.7h0.1c1.4-2.9,3.3-4.2,6.5-4.1v3.1c-4.7,0-6.4,2.6-6.4,7.1v7.8h-2.9V487.2z"/>
		<path class="st18" d="M1183.5,486.8c5.6,0,8.5,4,8.5,9.2c0,5.1-3,9.2-8.5,9.2s-8.5-4-8.5-9.2
			C1175,490.9,1177.9,486.8,1183.5,486.8z M1183.5,502.7c3,0,5.5-2.4,5.5-6.6s-2.4-6.7-5.5-6.7s-5.5,2.4-5.5,6.7
			S1180.5,502.7,1183.5,502.7z"/>
		<path class="st18" d="M1195.5,487.2h2.7v2.6h0.1c1.3-2,3.2-3,5.7-3c2.2,0,4.1,0.8,4.8,3c1.2-1.9,3.2-3,5.5-3
			c3.5,0,5.8,1.5,5.8,5.1v12.9h-2.9v-11.5c0-2.2-0.6-3.9-3.4-3.9c-2.8,0-4.6,1.8-4.6,4.5v10.9h-2.9v-11.5c0-2.3-0.7-3.9-3.3-3.9
			c-3.4,0-4.7,3.1-4.7,4.5v10.9h-2.9V487.2z"/>
		<path class="st18" d="M1240,504.7c-0.5,0.3-1.2,0.5-2.1,0.5c-1.5,0-2.4-0.8-2.4-2.7c-1.6,1.9-3.7,2.7-6.2,2.7
			c-3.2,0-5.8-1.4-5.8-4.9c0-4,3-4.9,5.9-5.4c3.2-0.6,5.9-0.4,5.9-2.6c0-2.5-2.1-2.9-3.9-2.9c-2.4,0-4.2,0.7-4.4,3.3h-2.9
			c0.2-4.4,3.5-5.9,7.4-5.9c3.2,0,6.6,0.7,6.6,4.8v9c0,1.4,0,2,0.9,2c0.3,0,0.6-0.1,0.9-0.2V504.7z M1235.3,495.7
			c-2.2,1.7-8.8,0-8.8,4.4c0,1.9,1.6,2.6,3.4,2.6c3.8,0,5.4-2.3,5.4-4V495.7z"/>
		<path class="st18" d="M1257.9,503.3c0,5.7-2.6,8.6-8.2,8.6c-3.3,0-7.1-1.4-7.3-5.2h2.9c0.1,2.1,2.7,2.9,4.6,2.9
			c3.8,0,5.3-2.7,5.3-6.7v-1.2h-0.1c-1,2.1-3.2,3.2-5.5,3.2c-5.2,0-7.9-4.1-7.9-8.9c0-4.1,2-9.3,8.1-9.3c2.2,0,4.2,1,5.2,2.9h0v-2.5
			h2.7V503.3z M1255,495.7c0-3.1-1.4-6.3-5-6.3c-3.7,0-5.2,3-5.2,6.4c0,3.2,1.2,6.7,5,6.7S1255,499,1255,495.7z"/>
		<path class="st18" d="M1262.2,487.2h2.7v2.8h0.1c1.2-2.2,3.2-3.2,5.7-3.2c4.6,0,6.1,2.7,6.1,6.4v11.6h-2.9v-11.9
			c0-2.2-1.4-3.5-3.6-3.5c-3.5,0-5.2,2.3-5.2,5.5v9.9h-2.9V487.2z"/>
		<path class="st18" d="M1296.1,499.2c-0.8,3.9-3.5,6-7.5,6c-5.6,0-8.3-3.9-8.4-9.2c0-5.3,3.5-9.1,8.3-9.1c6.2,0,8.1,5.8,8,10.1
			h-13.2c-0.1,3.1,1.6,5.8,5.5,5.8c2.4,0,4-1.1,4.6-3.4H1296.1z M1293.3,494.3c-0.2-2.8-2.2-5-5.1-5c-3,0-4.9,2.2-5,5H1293.3z"/>
		<path class="st18" d="M1303.4,487.2h3.5v2.5h-3.5v10.9c0,1.4,0.4,1.6,2.2,1.6h1.3v2.5h-2.2c-3,0-4.2-0.6-4.2-3.8v-11.2h-3v-2.5h3
			V482h2.9V487.2z"/>
		<path class="st18" d="M1313.2,484.1h-2.9v-3.5h2.9V484.1z M1310.3,487.2h2.9v17.6h-2.9V487.2z"/>
		<path class="st18" d="M1329.6,492.9c-0.4-2.2-1.9-3.5-4.4-3.5c-4.2,0-5.5,3.3-5.5,6.9c0,3.3,1.5,6.4,5.1,6.4
			c2.8,0,4.5-1.6,4.8-4.3h3c-0.6,4.3-3.3,6.8-7.8,6.8c-5.4,0-8.2-3.7-8.2-9c0-5.3,2.7-9.4,8.3-9.4c4,0,7.1,1.9,7.6,6.1H1329.6z"/>
		<path class="st18" d="M1346.5,489.8h-3v-2.5h3v-2.6c0-2.9,1.7-4.4,4.9-4.4c0.5,0,1.3,0.1,1.9,0.3v2.5c-0.5-0.2-1.1-0.2-1.6-0.2
			c-1.4,0-2.2,0.4-2.2,2v2.4h3.4v2.5h-3.4v15h-2.9V489.8z M1355.6,484.1v-3.5h2.9v3.5H1355.6z M1355.6,504.8v-17.6h2.9v17.6H1355.6z
			"/>
		<path class="st18" d="M1378,499.2c-0.8,3.9-3.5,6-7.5,6c-5.6,0-8.3-3.9-8.4-9.2c0-5.3,3.5-9.1,8.3-9.1c6.2,0,8.1,5.8,8,10.1h-13.2
			c-0.1,3.1,1.6,5.8,5.5,5.8c2.4,0,4-1.1,4.6-3.4H1378z M1375.2,494.3c-0.2-2.8-2.2-5-5.1-5c-3,0-4.9,2.2-5,5H1375.2z"/>
		<path class="st18" d="M1381.4,480.5h2.9v24.3h-2.9V480.5z"/>
		<path class="st18" d="M1404.5,504.8h-2.9v-2.4h-0.1c-1,1.9-3.2,2.8-5.6,2.8c-5.4,0-8.1-4.3-8.1-9.2c0-5,2.7-9.1,8-9.1
			c1.8,0,4.4,0.7,5.7,2.8h0.1v-9h2.9V504.8z M1396.3,502.7c3.9,0,5.4-3.4,5.4-6.6c0-3.4-1.6-6.7-5.5-6.7c-3.9,0-5.3,3.4-5.3,6.8
			C1390.9,499.5,1392.6,502.7,1396.3,502.7z"/>
	</g>
</g>
<g>
</g>
<g>
</g>
<g>
</g>
<g>
</g>
<g>
</g>
<g>
</g>
</svg>
