<?xml version="1.0" encoding="utf-8"?>
<!-- Generator: Adobe Illustrator 19.2.0, SVG Export Plug-In . SVG Version: 6.00 Build 0)  -->
<svg version="1.1" id="Layer_1" xmlns="http://www.w3.org/2000/svg" xmlns:xlink="http://www.w3.org/1999/xlink" x="0px" y="0px"
	 viewBox="0 0 2048 1000" style="enable-background:new 0 0 2048 1000;" xml:space="preserve">
<style type="text/css">
	.st0{fill:#B9E5FB;}
	.st1{fill:#116BB4;}
	.st2{fill:#FFFFFF;}
	.st3{fill:#2C5871;}
	.st4{fill:#D1ECFB;}
	.st5{fill:none;stroke:#343636;stroke-width:4.984;stroke-miterlimit:10;}
	.st6{fill:#4EA8DE;}
	.st7{fill:#333333;}
	.st8{fill:none;}
	.st9{fill-rule:evenodd;clip-rule:evenodd;fill:#2C3E50;}
	.st10{fill-rule:evenodd;clip-rule:evenodd;fill:#121220;}
	.st11{fill-rule:evenodd;clip-rule:evenodd;fill:#EEEEEE;}
	.st12{fill-rule:evenodd;clip-rule:evenodd;fill:#4E4E5D;}
	.st13{fill-rule:evenodd;clip-rule:evenodd;fill:#6EBCC6;}
	.st14{fill-rule:evenodd;clip-rule:evenodd;fill:#ECF0F1;}
	.st15{fill-rule:evenodd;clip-rule:evenodd;fill:#DAE1E6;}
	.st16{fill-rule:evenodd;clip-rule:evenodd;fill:#2980B9;}
	.st17{fill-rule:evenodd;clip-rule:evenodd;fill:#9B59B6;}
	.st18{fill-rule:evenodd;clip-rule:evenodd;fill:#FFCB05;}
	.st19{fill-rule:evenodd;clip-rule:evenodd;fill:#6699FF;}
	.st20{fill-rule:evenodd;clip-rule:evenodd;fill:#95A5A6;}
</style>
<rect class="st0" width="2048" height="1000"/>
<rect x="1.5" y="640.1" class="st1" width="2046.5" height="359.9"/>
<polygon class="st2" points="1678.9,954 1678.9,488.7 1678.9,283.9 1517.3,137.1 412.5,137.1 412.5,954 "/>
<polygon class="st3" points="1517.3,283.9 1678.9,283.9 1517.3,137.1 "/>
<polygon class="st4" points="1678.9,283.9 1517.3,283.9 1678.9,430.6 "/>
<line class="st5" x1="50.8" y1="53.7" x2="1997.5" y2="53.7"/>
<g>
	<path class="st6" d="M608.1,279h3.5v20h-3.5V279z"/>
	<path class="st6" d="M615.4,284.5h3v2.1l0.1,0.1c1-1.6,2.6-2.6,4.5-2.6c3.2,0,5.1,1.7,5.1,4.9v9.9h-3.2v-9.1
		c-0.1-2.3-0.9-3.2-2.8-3.2c-2.1,0-3.5,1.7-3.5,3.8v8.5h-3.2V284.5z"/>
	<path class="st6" d="M633.9,294.3c0.2,1.9,1.6,2.5,3.3,2.5c1.2,0,3.3-0.3,3.2-1.9c-0.1-1.7-2.4-1.9-4.7-2.4
		c-2.4-0.5-4.6-1.3-4.6-4.3c0-3.2,3.4-4.1,6-4.1c3,0,5.7,1.2,6,4.5h-3.3c-0.3-1.5-1.5-1.9-2.9-1.9c-0.9,0-2.6,0.2-2.6,1.5
		c0,1.6,2.4,1.8,4.7,2.3c2.3,0.5,4.7,1.4,4.7,4.2c0,3.4-3.5,4.7-6.5,4.7c-3.7,0-6.3-1.6-6.4-5H633.9z"/>
	<path class="st6" d="M644.6,284.5h2.4v-4.3h3.2v4.3h2.9v2.4h-2.9v7.7c0,1.3,0.1,2,1.5,2c0.4,0,0.9,0,1.3-0.1v2.5
		c-0.7,0.1-1.4,0.2-2.1,0.2c-3.4,0-3.9-1.3-4-3.7v-8.5h-2.4V284.5z"/>
	<path class="st6" d="M667.5,295.7c0,0.8,0.2,1.1,0.8,1.1h0.3c0.1,0,0.3,0,0.4-0.1v2.2c-0.5,0.2-1.5,0.4-2,0.4
		c-1.3,0-2.2-0.4-2.5-1.8c-1.3,1.2-3.3,1.8-5,1.8c-2.6,0-5-1.4-5-4.2c0-3.6,2.9-4.2,5.6-4.5c2.3-0.4,4.3-0.1,4.3-2c0-1.7-1.7-2-3-2
		c-1.8,0-3.1,0.7-3.2,2.3h-3.2c0.2-3.7,3.4-4.8,6.6-4.8c2.8,0,5.8,1.1,5.8,4.2V295.7z M664.3,291.7c-1,0.6-2.5,0.6-3.9,0.9
		c-1.4,0.2-2.6,0.7-2.6,2.4c0,1.5,1.8,1.8,2.9,1.8c1.4,0,3.6-0.7,3.6-2.7V291.7z"/>
	<path class="st6" d="M671,279h3.2v20H671V279z"/>
	<path class="st6" d="M677.7,279h3.2v20h-3.2V279z"/>
	<path class="st6" d="M691.5,291.7c0-4.4,2.7-7.6,7.3-7.6s7.3,3.2,7.3,7.6c0,4.5-2.7,7.6-7.3,7.6S691.5,296.2,691.5,291.7z
		 M702.9,291.7c0-2.5-1.3-5.1-4.1-5.1s-4.1,2.6-4.1,5.1c0,2.5,1.3,5.1,4.1,5.1S702.9,294.2,702.9,291.7z"/>
	<path class="st6" d="M708.8,284.5h3v2.1l0.1,0.1c1-1.6,2.6-2.6,4.5-2.6c3.2,0,5.1,1.7,5.1,4.9v9.9h-3.2v-9.1
		c-0.1-2.3-0.9-3.2-2.8-3.2c-2.1,0-3.5,1.7-3.5,3.8v8.5h-3.2V284.5z"/>
	<path class="st6" d="M732.7,284.5h3v2h0.1c0.9-1.7,2.6-2.4,4.5-2.4c4.6,0,6.8,3.4,6.8,7.7c0,3.9-2,7.6-6.2,7.6
		c-1.8,0-3.9-0.7-4.8-2.3h-0.1v7.2h-3.2V284.5z M739.9,286.6c-2.7,0-4.1,2-4.1,5.1c0,2.9,1.5,5.1,4.1,5.1c2.9,0,4-2.6,4-5.1
		C743.9,289.1,742.5,286.6,739.9,286.6z"/>
	<path class="st6" d="M749.8,284.5h3v2.8h0.1c0.4-1.5,2.3-3.2,4.2-3.2c0.8,0,0.9,0.1,1.2,0.1v3.1c-0.4-0.1-0.9-0.1-1.4-0.1
		c-2.2,0-3.9,1.7-3.9,5v6.9h-3.2V284.5z"/>
	<path class="st6" d="M762.1,292.5c0,2.3,1.2,4.3,3.9,4.3c1.9,0,3-0.8,3.5-2.4h3c-0.7,3.2-3.4,4.9-6.6,4.9c-4.6,0-7.1-3.1-7.1-7.6
		c0-4.1,2.7-7.6,7-7.6c4.6,0,7.4,4.1,6.8,8.5H762.1z M769.6,290.4c-0.1-2-1.5-3.8-3.6-3.8c-2.2,0-3.7,1.7-3.8,3.8H769.6z"/>
	<path class="st6" d="M775.2,284.5h3v2h0.1c1-1.4,2.1-2.4,4.5-2.4c1.8,0,3.4,0.8,4.1,2.4c1.1-1.5,2.4-2.4,4.5-2.4
		c3.1,0,4.8,1.4,4.8,4.9v10H793v-8.5c0-2.3-0.1-3.9-2.6-3.9c-2.2,0-3.1,1.4-3.1,3.9v8.5h-3.2v-9.3c0-2-0.6-3.1-2.5-3.1
		c-1.7,0-3.2,1.4-3.2,3.8v8.6h-3.2V284.5z"/>
	<path class="st6" d="M799.6,279h3.2v3h-3.2V279z M799.6,284.5h3.2V299h-3.2V284.5z"/>
	<path class="st6" d="M808.7,294.3c0.2,1.9,1.6,2.5,3.3,2.5c1.2,0,3.3-0.3,3.2-1.9c-0.1-1.7-2.4-1.9-4.7-2.4
		c-2.4-0.5-4.6-1.3-4.6-4.3c0-3.2,3.4-4.1,6-4.1c3,0,5.7,1.2,6,4.5h-3.3c-0.3-1.5-1.5-1.9-2.9-1.9c-0.9,0-2.6,0.2-2.6,1.5
		c0,1.6,2.4,1.8,4.7,2.3c2.3,0.5,4.7,1.4,4.7,4.2c0,3.4-3.5,4.7-6.5,4.7c-3.7,0-6.3-1.6-6.4-5H808.7z"/>
	<path class="st6" d="M823.3,292.5c0,2.3,1.2,4.3,3.9,4.3c1.9,0,3-0.8,3.5-2.4h3c-0.7,3.2-3.4,4.9-6.6,4.9c-4.6,0-7.1-3.1-7.1-7.6
		c0-4.1,2.7-7.6,7-7.6c4.6,0,7.4,4.1,6.8,8.5H823.3z M830.8,290.4c-0.1-2-1.5-3.8-3.6-3.8c-2.2,0-3.7,1.7-3.8,3.8H830.8z"/>
</g>
<g>
	<path class="st7" d="M904.4,282.6c2.7,0,5.3-0.9,5.7-3.2h2.6V299h-3.5v-13.8h-4.8V282.6z"/>
	<path class="st7" d="M928.4,279h8.3c6.2,0,8.8,4.5,8.8,10c0,5.5-2.7,10-8.8,10h-8.3V279z M931.9,296.1h3.4c5.5,0,6.7-3.1,6.7-7.1
		c0-4-1.2-7.1-6.7-7.1h-3.4V296.1z"/>
	<path class="st7" d="M948.6,279h3.5v8h9.1v-8h3.5v20h-3.5v-9h-9.1v9h-3.5V279z"/>
	<path class="st7" d="M968.9,279h13.8v3h-10.3v5.2h9v2.9h-9v8.9h-3.5V279z"/>
	<path class="st7" d="M992.9,284.5h3v2h0.1c0.9-1.7,2.6-2.4,4.5-2.4c4.6,0,6.8,3.4,6.8,7.7c0,3.9-2,7.6-6.2,7.6
		c-1.8,0-3.9-0.7-4.8-2.3h-0.1v7.2h-3.2V284.5z M1000,286.6c-2.7,0-4.1,2-4.1,5.1c0,2.9,1.5,5.1,4.1,5.1c2.9,0,4-2.6,4-5.1
		C1004,289.1,1002.7,286.6,1000,286.6z"/>
	<path class="st7" d="M1012.4,292.5c0,2.3,1.2,4.3,3.9,4.3c1.9,0,3-0.8,3.5-2.4h3c-0.7,3.2-3.4,4.9-6.6,4.9c-4.6,0-7.1-3.1-7.1-7.6
		c0-4.1,2.7-7.6,7-7.6c4.6,0,7.4,4.1,6.8,8.5H1012.4z M1019.9,290.4c-0.1-2-1.5-3.8-3.6-3.8c-2.2,0-3.7,1.7-3.8,3.8H1019.9z"/>
	<path class="st7" d="M1025.5,284.5h3v2.8h0.1c0.4-1.5,2.3-3.2,4.2-3.2c0.8,0,0.9,0.1,1.2,0.1v3.1c-0.4-0.1-0.9-0.1-1.4-0.1
		c-2.2,0-3.9,1.7-3.9,5v6.9h-3.2V284.5z"/>
	<path class="st7" d="M1061.7,289c0,5.7-3.6,10.5-9.6,10.5c-6,0-9.6-4.7-9.6-10.5c0-5.7,3.6-10.5,9.6-10.5
		C1058,278.5,1061.7,283.3,1061.7,289z M1046,289c0,3.8,1.8,7.6,6.1,7.6c4.3,0,6.1-3.8,6.1-7.6s-1.8-7.6-6.1-7.6
		C1047.8,281.3,1046,285.1,1046,289z"/>
	<path class="st7" d="M1063,284.5h2.4v-1.2c0-3.7,1.9-4.3,4-4.3c1,0,1.8,0.1,2.2,0.2v2.5c-0.4-0.1-0.8-0.2-1.5-0.2
		c-0.9,0-1.6,0.3-1.6,1.5v1.5h2.7v2.4h-2.7V299h-3.2v-12.1h-2.4V284.5z"/>
	<path class="st7" d="M1071.8,284.5h2.4v-1.2c0-3.7,1.9-4.3,4-4.3c1,0,1.8,0.1,2.2,0.2v2.5c-0.4-0.1-0.8-0.2-1.5-0.2
		c-0.9,0-1.6,0.3-1.6,1.5v1.5h2.7v2.4h-2.7V299h-3.2v-12.1h-2.4V284.5z"/>
	<path class="st7" d="M1084.5,292.5c0,2.3,1.2,4.3,3.9,4.3c1.9,0,3-0.8,3.5-2.4h3c-0.7,3.2-3.4,4.9-6.6,4.9c-4.6,0-7.1-3.1-7.1-7.6
		c0-4.1,2.7-7.6,7-7.6c4.6,0,7.4,4.1,6.8,8.5H1084.5z M1092,290.4c-0.1-2-1.5-3.8-3.6-3.8c-2.2,0-3.7,1.7-3.8,3.8H1092z"/>
	<path class="st7" d="M1097.6,284.5h3v2.8h0.1c0.4-1.5,2.3-3.2,4.2-3.2c0.8,0,0.9,0.1,1.2,0.1v3.1c-0.4-0.1-0.9-0.1-1.4-0.1
		c-2.2,0-3.9,1.7-3.9,5v6.9h-3.2V284.5z"/>
	<path class="st7" d="M1107.5,279h3.2v3h-3.2V279z M1107.5,284.5h3.2V299h-3.2V284.5z"/>
	<path class="st7" d="M1114.2,284.5h3v2.1l0.1,0.1c1-1.6,2.6-2.6,4.5-2.6c3.2,0,5.1,1.7,5.1,4.9v9.9h-3.2v-9.1
		c-0.1-2.3-0.9-3.2-2.8-3.2c-2.1,0-3.5,1.7-3.5,3.8v8.5h-3.2V284.5z"/>
	<path class="st7" d="M1143.7,298.2c0,4.4-2.5,6.5-7.1,6.5c-2.9,0-6.2-1.1-6.5-4.5h3.2c0.4,1.8,1.8,2.1,3.5,2.1
		c2.6,0,3.7-1.3,3.7-3.7v-2.2h-0.1c-0.9,1.6-2.5,2.5-4.3,2.5c-4.6,0-6.5-3.5-6.5-7.6c0-3.9,2.4-7.3,6.6-7.3c1.8,0,3.5,0.7,4.3,2.4
		h0.1v-2h3.2V298.2z M1140.5,291.4c0-2.5-1.1-4.8-3.9-4.8c-2.8,0-3.8,2.6-3.8,5c0,2.4,1.1,4.8,3.8,4.8
		C1139.4,296.4,1140.5,293.9,1140.5,291.4z"/>
</g>
<g>
	<path class="st7" d="M904.4,468.4c2.7,0,5.3-0.9,5.7-3.2h2.6v19.6h-3.5v-13.8h-4.8V468.4z"/>
	<path class="st7" d="M928.4,464.8h8.3c6.2,0,8.8,4.5,8.8,10c0,5.5-2.7,10-8.8,10h-8.3V464.8z M931.9,481.9h3.4
		c5.5,0,6.7-3.1,6.7-7.1c0-4-1.2-7.1-6.7-7.1h-3.4V481.9z"/>
	<path class="st7" d="M948.6,464.8h3.5v8h9.1v-8h3.5v20h-3.5v-9h-9.1v9h-3.5V464.8z"/>
	<path class="st7" d="M968.9,464.8h13.8v3h-10.3v5.2h9v2.9h-9v8.9h-3.5V464.8z"/>
	<path class="st7" d="M992.9,470.3h3v2h0.1c0.9-1.7,2.6-2.4,4.5-2.4c4.6,0,6.8,3.4,6.8,7.7c0,3.9-2,7.6-6.2,7.6
		c-1.8,0-3.9-0.7-4.8-2.3h-0.1v7.2h-3.2V470.3z M1000,472.4c-2.7,0-4.1,2-4.1,5.1c0,2.9,1.5,5.1,4.1,5.1c2.9,0,4-2.6,4-5.1
		C1004,474.9,1002.7,472.4,1000,472.4z"/>
	<path class="st7" d="M1012.4,478.4c0,2.3,1.2,4.3,3.9,4.3c1.9,0,3-0.8,3.5-2.4h3c-0.7,3.2-3.4,4.9-6.6,4.9c-4.6,0-7.1-3.1-7.1-7.6
		c0-4.1,2.7-7.6,7-7.6c4.6,0,7.4,4.1,6.8,8.5H1012.4z M1019.9,476.3c-0.1-2-1.5-3.8-3.6-3.8c-2.2,0-3.7,1.7-3.8,3.8H1019.9z"/>
	<path class="st7" d="M1025.5,470.3h3v2.8h0.1c0.4-1.5,2.3-3.2,4.2-3.2c0.8,0,0.9,0.1,1.2,0.1v3.1c-0.4-0.1-0.9-0.1-1.4-0.1
		c-2.2,0-3.9,1.7-3.9,5v6.9h-3.2V470.3z"/>
	<path class="st7" d="M1061.7,474.8c0,5.7-3.6,10.5-9.6,10.5c-6,0-9.6-4.7-9.6-10.5c0-5.7,3.6-10.5,9.6-10.5
		C1058,464.3,1061.7,469.1,1061.7,474.8z M1046,474.8c0,3.8,1.8,7.6,6.1,7.6c4.3,0,6.1-3.8,6.1-7.6s-1.8-7.6-6.1-7.6
		C1047.8,467.2,1046,470.9,1046,474.8z"/>
	<path class="st7" d="M1063,470.3h2.4v-1.2c0-3.7,1.9-4.3,4-4.3c1,0,1.8,0.1,2.2,0.2v2.5c-0.4-0.1-0.8-0.2-1.5-0.2
		c-0.9,0-1.6,0.3-1.6,1.5v1.5h2.7v2.4h-2.7v12.1h-3.2v-12.1h-2.4V470.3z"/>
	<path class="st7" d="M1071.8,470.3h2.4v-1.2c0-3.7,1.9-4.3,4-4.3c1,0,1.8,0.1,2.2,0.2v2.5c-0.4-0.1-0.8-0.2-1.5-0.2
		c-0.9,0-1.6,0.3-1.6,1.5v1.5h2.7v2.4h-2.7v12.1h-3.2v-12.1h-2.4V470.3z"/>
	<path class="st7" d="M1084.5,478.4c0,2.3,1.2,4.3,3.9,4.3c1.9,0,3-0.8,3.5-2.4h3c-0.7,3.2-3.4,4.9-6.6,4.9c-4.6,0-7.1-3.1-7.1-7.6
		c0-4.1,2.7-7.6,7-7.6c4.6,0,7.4,4.1,6.8,8.5H1084.5z M1092,476.3c-0.1-2-1.5-3.8-3.6-3.8c-2.2,0-3.7,1.7-3.8,3.8H1092z"/>
	<path class="st7" d="M1097.6,470.3h3v2.8h0.1c0.4-1.5,2.3-3.2,4.2-3.2c0.8,0,0.9,0.1,1.2,0.1v3.1c-0.4-0.1-0.9-0.1-1.4-0.1
		c-2.2,0-3.9,1.7-3.9,5v6.9h-3.2V470.3z"/>
	<path class="st7" d="M1107.5,464.8h3.2v3h-3.2V464.8z M1107.5,470.3h3.2v14.5h-3.2V470.3z"/>
	<path class="st7" d="M1114.2,470.3h3v2.1l0.1,0.1c1-1.6,2.6-2.6,4.5-2.6c3.2,0,5.1,1.7,5.1,4.9v9.9h-3.2v-9.1
		c-0.1-2.3-0.9-3.2-2.8-3.2c-2.1,0-3.5,1.7-3.5,3.8v8.5h-3.2V470.3z"/>
	<path class="st7" d="M1143.7,484c0,4.4-2.5,6.5-7.1,6.5c-2.9,0-6.2-1.1-6.5-4.5h3.2c0.4,1.8,1.8,2.1,3.5,2.1c2.6,0,3.7-1.3,3.7-3.7
		v-2.2h-0.1c-0.9,1.6-2.5,2.5-4.3,2.5c-4.6,0-6.5-3.5-6.5-7.6c0-3.9,2.4-7.3,6.6-7.3c1.8,0,3.5,0.7,4.3,2.4h0.1v-2h3.2V484z
		 M1140.5,477.2c0-2.5-1.1-4.8-3.9-4.8c-2.8,0-3.8,2.6-3.8,5c0,2.4,1.1,4.8,3.8,4.8C1139.4,482.2,1140.5,479.7,1140.5,477.2z"/>
</g>
<path class="st6" d="M565.6,290c0,28.9-23.4,52.4-52.4,52.4c-28.9,0-52.4-23.4-52.4-52.4c0-28.9,23.4-52.4,52.4-52.4
	C542.2,237.6,565.6,261.1,565.6,290"/>
<g>
	<path class="st6" d="M610.4,466.6c0,3.1,2.3,4.3,5.1,4.3c3.1,0,4.2-1.5,4.2-3c0-1.5-0.8-2.2-1.7-2.5c-1.4-0.5-3.2-0.9-6-1.7
		c-3.4-0.9-4.4-3-4.4-5.1c0-4,3.7-5.9,7.3-5.9c4.1,0,7.7,2.2,7.7,6.4h-3.5c-0.2-2.6-1.9-3.5-4.3-3.5c-1.6,0-3.7,0.6-3.7,2.6
		c0,1.4,1,2.2,2.4,2.6c0.3,0.1,4.7,1.2,5.8,1.5c2.6,0.8,3.9,3,3.9,5.1c0,4.5-4,6.3-8,6.3c-4.6,0-8.3-2.2-8.3-7.1H610.4z"/>
	<path class="st6" d="M625.1,466c0-4.4,2.7-7.6,7.3-7.6s7.3,3.2,7.3,7.6c0,4.5-2.7,7.6-7.3,7.6S625.1,470.5,625.1,466z M636.5,466
		c0-2.5-1.3-5.1-4.1-5.1s-4.1,2.6-4.1,5.1c0,2.5,1.3,5.1,4.1,5.1S636.5,468.5,636.5,466z"/>
	<path class="st6" d="M641,458.8h2.4v-1.2c0-3.7,1.9-4.3,4-4.3c1,0,1.8,0.1,2.2,0.2v2.5c-0.4-0.1-0.8-0.2-1.5-0.2
		c-0.9,0-1.6,0.3-1.6,1.5v1.5h2.7v2.4h-2.7v12.1h-3.2v-12.1H641V458.8z"/>
	<path class="st6" d="M649.7,458.8h2.4v-4.3h3.2v4.3h2.9v2.4h-2.9v7.7c0,1.3,0.1,2,1.5,2c0.4,0,0.9,0,1.3-0.1v2.5
		c-0.7,0.1-1.4,0.2-2.1,0.2c-3.4,0-3.9-1.3-4-3.7v-8.5h-2.4V458.8z"/>
	<path class="st6" d="M659.2,458.8h3.4l2.8,10.8h0.1l2.7-10.8h3.2l2.6,10.8h0.1l2.9-10.8h3.2l-4.5,14.5h-3.3l-2.7-10.8h-0.1
		l-2.7,10.8h-3.4L659.2,458.8z"/>
	<path class="st6" d="M694.4,470.1c0,0.8,0.2,1.1,0.8,1.1h0.3c0.1,0,0.3,0,0.4-0.1v2.2c-0.5,0.2-1.5,0.4-2,0.4
		c-1.3,0-2.2-0.4-2.5-1.8c-1.3,1.2-3.3,1.8-5,1.8c-2.6,0-5-1.4-5-4.2c0-3.6,2.9-4.2,5.6-4.5c2.3-0.4,4.3-0.1,4.3-2c0-1.7-1.7-2-3-2
		c-1.8,0-3.1,0.7-3.2,2.3h-3.2c0.2-3.7,3.4-4.8,6.6-4.8c2.8,0,5.8,1.1,5.8,4.2V470.1z M691.2,466c-1,0.6-2.5,0.6-3.9,0.9
		c-1.4,0.2-2.6,0.7-2.6,2.4c0,1.5,1.8,1.8,2.9,1.8c1.4,0,3.6-0.7,3.6-2.7V466z"/>
	<path class="st6" d="M697.9,458.8h3v2.8h0.1c0.4-1.5,2.3-3.2,4.2-3.2c0.8,0,0.9,0.1,1.2,0.1v3.1c-0.4-0.1-0.9-0.1-1.4-0.1
		c-2.2,0-3.9,1.7-3.9,5v6.9h-3.2V458.8z"/>
	<path class="st6" d="M710.2,466.9c0,2.3,1.2,4.3,3.9,4.3c1.9,0,3-0.8,3.5-2.4h3c-0.7,3.2-3.4,4.9-6.6,4.9c-4.6,0-7.1-3.1-7.1-7.6
		c0-4.1,2.7-7.6,7-7.6c4.6,0,7.4,4.1,6.8,8.5H710.2z M717.7,464.8c-0.1-2-1.5-3.8-3.6-3.8c-2.2,0-3.7,1.7-3.8,3.8H717.7z"/>
	<path class="st6" d="M743.2,470.1c0,0.8,0.2,1.1,0.8,1.1h0.3c0.1,0,0.3,0,0.4-0.1v2.2c-0.5,0.2-1.5,0.4-2,0.4
		c-1.3,0-2.2-0.4-2.5-1.8c-1.3,1.2-3.3,1.8-5,1.8c-2.6,0-5-1.4-5-4.2c0-3.6,2.9-4.2,5.6-4.5c2.3-0.4,4.3-0.1,4.3-2c0-1.7-1.7-2-3-2
		c-1.8,0-3.1,0.7-3.2,2.3h-3.2c0.2-3.7,3.4-4.8,6.6-4.8c2.8,0,5.8,1.1,5.8,4.2V470.1z M740,466c-1,0.6-2.5,0.6-3.9,0.9
		c-1.4,0.2-2.6,0.7-2.6,2.4c0,1.5,1.8,1.8,2.9,1.8c1.4,0,3.6-0.7,3.6-2.7V466z"/>
	<path class="st6" d="M749.1,468.6c0.2,1.9,1.6,2.5,3.3,2.5c1.2,0,3.3-0.3,3.2-1.9c-0.1-1.7-2.4-1.9-4.7-2.4
		c-2.4-0.5-4.6-1.3-4.6-4.3c0-3.2,3.4-4.1,6-4.1c3,0,5.7,1.2,6,4.5h-3.3c-0.3-1.5-1.5-1.9-2.9-1.9c-0.9,0-2.6,0.2-2.6,1.5
		c0,1.6,2.4,1.8,4.7,2.3c2.3,0.5,4.7,1.4,4.7,4.2c0,3.4-3.5,4.7-6.5,4.7c-3.7,0-6.3-1.6-6.4-5H749.1z"/>
	<path class="st6" d="M619.8,503.7c0,0.8,0.2,1.1,0.8,1.1h0.3c0.1,0,0.3,0,0.4-0.1v2.2c-0.5,0.2-1.5,0.4-2,0.4
		c-1.3,0-2.2-0.4-2.5-1.8c-1.3,1.2-3.3,1.8-5,1.8c-2.6,0-5-1.4-5-4.2c0-3.6,2.9-4.2,5.6-4.5c2.3-0.4,4.3-0.1,4.3-2c0-1.7-1.7-2-3-2
		c-1.8,0-3.1,0.7-3.2,2.3h-3.2c0.2-3.7,3.4-4.8,6.6-4.8c2.8,0,5.8,1.1,5.8,4.2V503.7z M616.6,499.6c-1,0.6-2.5,0.6-3.9,0.9
		c-1.4,0.2-2.6,0.7-2.6,2.4c0,1.5,1.8,1.8,2.9,1.8c1.4,0,3.6-0.7,3.6-2.7V499.6z"/>
	<path class="st6" d="M633.4,502.2c0.2,1.9,1.6,2.5,3.3,2.5c1.2,0,3.3-0.3,3.2-1.9c-0.1-1.7-2.4-1.9-4.7-2.4
		c-2.4-0.5-4.6-1.3-4.6-4.3c0-3.2,3.4-4.1,6-4.1c3,0,5.7,1.2,6,4.5h-3.3c-0.3-1.5-1.5-1.9-2.9-1.9c-0.9,0-2.6,0.2-2.6,1.5
		c0,1.6,2.4,1.8,4.7,2.3c2.3,0.5,4.7,1.4,4.7,4.2c0,3.4-3.5,4.7-6.5,4.7c-3.7,0-6.3-1.6-6.4-5H633.4z"/>
	<path class="st6" d="M648,500.5c0,2.3,1.2,4.3,3.9,4.3c1.9,0,3-0.8,3.5-2.4h3c-0.7,3.2-3.4,4.9-6.6,4.9c-4.6,0-7.1-3.1-7.1-7.6
		c0-4.1,2.7-7.6,7-7.6c4.6,0,7.4,4.1,6.8,8.5H648z M655.5,498.4c-0.1-2-1.5-3.8-3.6-3.8c-2.2,0-3.7,1.7-3.8,3.8H655.5z"/>
	<path class="st6" d="M661.1,492.4h3v2.8h0.1c0.4-1.5,2.3-3.2,4.2-3.2c0.8,0,0.9,0.1,1.2,0.1v3.1c-0.4-0.1-0.9-0.1-1.4-0.1
		c-2.2,0-3.9,1.7-3.9,5v6.9h-3.2V492.4z"/>
	<path class="st6" d="M669.5,492.4h3.5l3.7,11.1h0.1l3.5-11.1h3.3l-5.2,14.5h-3.6L669.5,492.4z"/>
	<path class="st6" d="M685.6,486.9h3.2v3h-3.2V486.9z M685.6,492.4h3.2v14.5h-3.2V492.4z"/>
	<path class="st6" d="M702,497.2c-0.3-1.8-1.5-2.7-3.3-2.7c-1.7,0-4,0.9-4,5.3c0,2.4,1.1,5,3.8,5c1.9,0,3.1-1.2,3.4-3.3h3.2
		c-0.6,3.8-2.9,5.8-6.6,5.8c-4.5,0-7-3.2-7-7.5c0-4.4,2.4-7.8,7.1-7.8c3.4,0,6.2,1.7,6.5,5.2H702z"/>
	<path class="st6" d="M710.3,500.5c0,2.3,1.2,4.3,3.9,4.3c1.9,0,3-0.8,3.5-2.4h3c-0.7,3.2-3.4,4.9-6.6,4.9c-4.6,0-7.1-3.1-7.1-7.6
		c0-4.1,2.7-7.6,7-7.6c4.6,0,7.4,4.1,6.8,8.5H710.3z M717.7,498.4c-0.1-2-1.5-3.8-3.6-3.8c-2.2,0-3.7,1.7-3.8,3.8H717.7z"/>
</g>
<path class="st6" d="M561.7,477.9c0,28.9-23.4,52.4-52.4,52.4c-28.9,0-52.4-23.4-52.4-52.4c0-28.9,23.4-52.4,52.4-52.4
	C538.3,425.5,561.7,449,561.7,477.9"/>
<g>
	<path class="st6" d="M608,658.9h3.5v8h9.1v-8h3.5v20h-3.5v-9h-9.1v9H608V658.9z"/>
	<path class="st6" d="M626.3,664.4h3.5l3.8,10.8h0.1l3.7-10.8h3.3l-5.6,15.3c-1,2.6-1.8,5-5.1,5c-0.8,0-1.5-0.1-2.2-0.2v-2.7
		c0.5,0.1,1,0.2,1.5,0.2c1.5,0,1.9-0.8,2.2-2l0.4-1.1L626.3,664.4z"/>
	<path class="st6" d="M642.5,658.9h3.2v7.4h0.1c0.9-1.4,2.7-2.3,4.3-2.3c4.6,0,6.8,3.4,6.8,7.7c0,3.9-2,7.6-6.2,7.6
		c-2,0-4.1-0.5-5-2.4h-0.1v2h-3V658.9z M649.6,666.5c-2.7,0-4.1,2-4.1,5.1c0,2.9,1.5,5.1,4.1,5.1c2.9,0,4-2.6,4-5.1
		C653.6,669.1,652.2,666.5,649.6,666.5z"/>
	<path class="st6" d="M659.5,664.4h3v2.8h0.1c0.4-1.5,2.3-3.2,4.2-3.2c0.8,0,0.9,0.1,1.2,0.1v3.1c-0.4-0.1-0.9-0.1-1.4-0.1
		c-2.2,0-3.9,1.7-3.9,5v6.9h-3.2V664.4z"/>
	<path class="st6" d="M669.4,658.9h3.2v3h-3.2V658.9z M669.4,664.4h3.2v14.5h-3.2V664.4z"/>
	<path class="st6" d="M689.7,678.9h-3v-2h-0.1c-0.9,1.7-2.7,2.4-4.5,2.4c-4.6,0-6.8-3.4-6.8-7.7c0-5.3,3.1-7.5,6.3-7.5
		c1.8,0,3.8,0.7,4.8,2.3h0.1v-7.4h3.2V678.9z M682.6,676.8c2.8,0,4.1-2.6,4.1-5.1c0-3.2-1.5-5.1-4-5.1c-3,0-4.1,2.7-4.1,5.3
		C678.6,674.3,679.8,676.8,682.6,676.8z"/>
</g>
<path class="st6" d="M565.6,672c0,28.9-23.4,52.4-52.4,52.4c-28.9,0-52.4-23.4-52.4-52.4c0-28.9,23.4-52.4,52.4-52.4
	C542.2,619.6,565.6,643.1,565.6,672"/>
<g>
	<rect x="903" y="652" class="st8" width="669" height="140"/>
	<path class="st7" d="M905,652h4.9l5.5,15.7h0.1l5.4-15.7h4.9v20h-3.3v-15.4h-0.1l-5.5,15.4H914l-5.5-15.4h-0.1V672H905V652z"/>
	<path class="st7" d="M942.2,672h-3.1v-2H939c-0.8,1.5-2.5,2.4-4.1,2.4c-3.8,0-5.4-1.9-5.4-5.7v-9.2h3.2v8.9c0,2.5,1,3.5,2.8,3.5
		c2.7,0,3.6-1.7,3.6-3.9v-8.4h3.2V672z"/>
	<path class="st7" d="M945.7,652h3.2v20h-3.2V652z"/>
	<path class="st7" d="M950.9,657.5h2.4v-4.3h3.2v4.3h2.9v2.4h-2.9v7.7c0,1.3,0.1,2,1.5,2c0.4,0,0.9,0,1.3-0.1v2.5
		c-0.7,0.1-1.4,0.2-2.1,0.2c-3.4,0-3.9-1.3-4-3.7v-8.5h-2.4V657.5z"/>
	<path class="st7" d="M961.8,652h3.2v3h-3.2V652z M961.8,657.5h3.2V672h-3.2V657.5z"/>
	<path class="st7" d="M968.5,657.5h3v2h0.1c0.9-1.7,2.6-2.4,4.5-2.4c4.6,0,6.8,3.4,6.8,7.7c0,3.9-2,7.6-6.2,7.6
		c-1.8,0-3.9-0.7-4.8-2.3h-0.1v7.2h-3.2V657.5z M975.6,659.6c-2.7,0-4.1,2-4.1,5.1c0,2.9,1.5,5.1,4.1,5.1c2.9,0,4-2.6,4-5.1
		C979.6,662.2,978.3,659.6,975.6,659.6z"/>
	<path class="st7" d="M985.6,652h3.2v20h-3.2V652z"/>
	<path class="st7" d="M994.8,665.6c0,2.3,1.2,4.3,3.9,4.3c1.9,0,3-0.8,3.5-2.4h3c-0.7,3.2-3.4,4.9-6.6,4.9c-4.6,0-7.1-3.1-7.1-7.6
		c0-4.1,2.7-7.6,7-7.6c4.6,0,7.4,4.1,6.8,8.5H994.8z M1002.2,663.5c-0.1-2-1.5-3.8-3.6-3.8c-2.2,0-3.7,1.7-3.8,3.8H1002.2z"/>
	<path class="st7" d="M1016.1,652h8.3c6.2,0,8.8,4.5,8.8,10s-2.7,10-8.8,10h-8.3V652z M1019.6,669.1h3.4c5.5,0,6.7-3.1,6.7-7.1
		s-1.2-7.1-6.7-7.1h-3.4V669.1z"/>
	<path class="st7" d="M1036.2,652h3.5v8h9.1v-8h3.5v20h-3.5v-9h-9.1v9h-3.5V652z"/>
	<path class="st7" d="M1056.5,652h13.8v3H1060v5.2h9v2.9h-9v8.9h-3.5V652z"/>
	<path class="st7" d="M1075.1,667.3c0.2,1.9,1.6,2.5,3.3,2.5c1.2,0,3.3-0.3,3.2-1.9c-0.1-1.7-2.4-1.9-4.7-2.4
		c-2.4-0.5-4.6-1.3-4.6-4.3c0-3.2,3.4-4.1,6-4.1c3,0,5.7,1.2,6,4.5h-3.3c-0.3-1.5-1.5-1.9-2.9-1.9c-0.9,0-2.6,0.2-2.6,1.5
		c0,1.6,2.4,1.8,4.7,2.3c2.3,0.5,4.7,1.4,4.7,4.2c0,3.4-3.5,4.7-6.5,4.7c-3.7,0-6.3-1.6-6.4-5H1075.1z"/>
	<path class="st7" d="M1095.1,657.5h3v2h0.1c0.9-1.7,2.6-2.4,4.5-2.4c4.6,0,6.8,3.4,6.8,7.7c0,3.9-2,7.6-6.2,7.6
		c-1.8,0-3.9-0.7-4.8-2.3h-0.1v7.2h-3.2V657.5z M1102.2,659.6c-2.7,0-4.1,2-4.1,5.1c0,2.9,1.5,5.1,4.1,5.1c2.9,0,4-2.6,4-5.1
		C1106.2,662.2,1104.8,659.6,1102.2,659.6z"/>
	<path class="st7" d="M1114.6,665.6c0,2.3,1.2,4.3,3.9,4.3c1.9,0,3-0.8,3.5-2.4h3c-0.7,3.2-3.4,4.9-6.6,4.9c-4.6,0-7.1-3.1-7.1-7.6
		c0-4.1,2.7-7.6,7-7.6c4.6,0,7.4,4.1,6.8,8.5H1114.6z M1122,663.5c-0.1-2-1.5-3.8-3.6-3.8c-2.2,0-3.7,1.7-3.8,3.8H1122z"/>
	<path class="st7" d="M1127.7,657.5h3v2.8h0.1c0.4-1.5,2.3-3.2,4.2-3.2c0.8,0,0.9,0.1,1.2,0.1v3.1c-0.4-0.1-0.9-0.1-1.4-0.1
		c-2.2,0-3.9,1.7-3.9,5v6.9h-3.2V657.5z"/>
	<path class="st7" d="M1144.6,664.7c0-4.4,2.7-7.6,7.3-7.6c4.6,0,7.3,3.2,7.3,7.6c0,4.5-2.7,7.6-7.3,7.6
		C1147.3,672.4,1144.6,669.2,1144.6,664.7z M1156,664.7c0-2.5-1.3-5.1-4.1-5.1c-2.9,0-4.1,2.6-4.1,5.1c0,2.5,1.3,5.1,4.1,5.1
		C1154.8,669.9,1156,667.3,1156,664.7z"/>
	<path class="st7" d="M1160.5,657.5h2.4v-1.2c0-3.7,1.9-4.3,4-4.3c1,0,1.8,0.1,2.2,0.2v2.5c-0.4-0.1-0.8-0.2-1.5-0.2
		c-0.9,0-1.6,0.3-1.6,1.5v1.5h2.7v2.4h-2.7V672h-3.2v-12.1h-2.4V657.5z"/>
	<path class="st7" d="M1169.3,657.5h2.4v-1.2c0-3.7,1.9-4.3,4-4.3c1,0,1.8,0.1,2.2,0.2v2.5c-0.4-0.1-0.8-0.2-1.5-0.2
		c-0.9,0-1.6,0.3-1.6,1.5v1.5h2.7v2.4h-2.7V672h-3.2v-12.1h-2.4V657.5z"/>
	<path class="st7" d="M1182,665.6c0,2.3,1.2,4.3,3.9,4.3c1.9,0,3-0.8,3.5-2.4h3c-0.7,3.2-3.4,4.9-6.6,4.9c-4.6,0-7.1-3.1-7.1-7.6
		c0-4.1,2.7-7.6,7-7.6c4.6,0,7.4,4.1,6.8,8.5H1182z M1189.5,663.5c-0.1-2-1.5-3.8-3.6-3.8c-2.2,0-3.7,1.7-3.8,3.8H1189.5z"/>
	<path class="st7" d="M1195.1,657.5h3v2.8h0.1c0.4-1.5,2.3-3.2,4.2-3.2c0.8,0,0.9,0.1,1.2,0.1v3.1c-0.4-0.1-0.9-0.1-1.4-0.1
		c-2.2,0-3.9,1.7-3.9,5v6.9h-3.2V657.5z"/>
	<path class="st7" d="M1205,652h3.2v3h-3.2V652z M1205,657.5h3.2V672h-3.2V657.5z"/>
	<path class="st7" d="M1211.7,657.5h3v2.1l0.1,0.1c1-1.6,2.6-2.6,4.5-2.6c3.2,0,5.1,1.7,5.1,4.9v9.9h-3.2v-9.1
		c-0.1-2.3-0.9-3.2-2.8-3.2c-2.1,0-3.5,1.7-3.5,3.8v8.5h-3.2V657.5z"/>
	<path class="st7" d="M1241.2,671.2c0,4.4-2.5,6.5-7.1,6.5c-2.9,0-6.2-1.1-6.5-4.5h3.2c0.4,1.8,1.8,2.1,3.5,2.1
		c2.6,0,3.7-1.3,3.7-3.7v-2.2h-0.1c-0.9,1.6-2.5,2.5-4.3,2.5c-4.6,0-6.5-3.5-6.5-7.6c0-3.9,2.4-7.3,6.6-7.3c1.8,0,3.5,0.7,4.3,2.4
		h0.1v-2h3.2V671.2z M1238,664.4c0-2.5-1.1-4.8-3.9-4.8c-2.8,0-3.8,2.6-3.8,5c0,2.4,1.1,4.8,3.8,4.8
		C1236.9,669.5,1238,666.9,1238,664.4z"/>
	<path class="st7" d="M940.3,696.5h8.1v3h-8.1V696.5z"/>
	<path class="st7" d="M973.3,692c-0.6-2.3-2.1-4-5-4c-4.3,0-6.1,3.8-6.1,7.6s1.8,7.6,6.1,7.6c3.1,0,4.8-2.3,5.1-5.2h3.4
		c-0.3,4.8-3.7,8.1-8.5,8.1c-6,0-9.6-4.7-9.6-10.5c0-5.7,3.6-10.5,9.6-10.5c4.5,0,8,2.5,8.5,6.8H973.3z"/>
	<path class="st7" d="M978.9,698.3c0-4.4,2.7-7.6,7.3-7.6s7.3,3.2,7.3,7.6c0,4.5-2.7,7.6-7.3,7.6S978.9,702.8,978.9,698.3z
		 M990.3,698.3c0-2.5-1.3-5.1-4.1-5.1s-4.1,2.6-4.1,5.1c0,2.5,1.3,5.1,4.1,5.1S990.3,700.9,990.3,698.3z"/>
	<path class="st7" d="M996.1,691.1h3v2.1l0.1,0.1c1-1.6,2.6-2.6,4.5-2.6c3.2,0,5.1,1.7,5.1,4.9v9.9h-3.2v-9.1
		c-0.1-2.3-0.9-3.2-2.8-3.2c-2.1,0-3.5,1.7-3.5,3.8v8.5h-3.2V691.1z"/>
	<path class="st7" d="M1014.6,700.9c0.2,1.9,1.6,2.5,3.3,2.5c1.2,0,3.3-0.3,3.2-1.9c-0.1-1.7-2.4-1.9-4.7-2.4
		c-2.4-0.5-4.6-1.3-4.6-4.3c0-3.2,3.4-4.1,6-4.1c3,0,5.7,1.2,6,4.5h-3.3c-0.3-1.5-1.5-1.9-2.9-1.9c-0.9,0-2.6,0.2-2.6,1.5
		c0,1.6,2.4,1.8,4.7,2.3c2.3,0.5,4.7,1.4,4.7,4.2c0,3.4-3.5,4.7-6.5,4.7c-3.7,0-6.3-1.6-6.4-5H1014.6z"/>
	<path class="st7" d="M1026.8,685.6h3.2v3h-3.2V685.6z M1026.8,691.1h3.2v14.5h-3.2V691.1z"/>
	<path class="st7" d="M1047.1,705.6h-3v-2h-0.1c-0.9,1.7-2.7,2.4-4.5,2.4c-4.6,0-6.8-3.4-6.8-7.7c0-5.3,3.1-7.5,6.3-7.5
		c1.8,0,3.8,0.7,4.8,2.3h0.1v-7.4h3.2V705.6z M1040,703.5c2.8,0,4.1-2.6,4.1-5.1c0-3.2-1.5-5.1-4-5.1c-3,0-4.1,2.7-4.1,5.3
		C1036,701,1037.2,703.5,1040,703.5z"/>
	<path class="st7" d="M1053.1,699.2c0,2.3,1.2,4.3,3.9,4.3c1.9,0,3-0.8,3.5-2.4h3c-0.7,3.2-3.4,4.9-6.6,4.9c-4.6,0-7.1-3.1-7.1-7.6
		c0-4.1,2.7-7.6,7-7.6c4.6,0,7.4,4.1,6.8,8.5H1053.1z M1060.5,697.1c-0.1-2-1.5-3.8-3.6-3.8c-2.2,0-3.7,1.7-3.8,3.8H1060.5z"/>
	<path class="st7" d="M1066.2,691.1h3v2.8h0.1c0.4-1.5,2.3-3.2,4.2-3.2c0.8,0,0.9,0.1,1.2,0.1v3.1c-0.4-0.1-0.9-0.1-1.4-0.1
		c-2.2,0-3.9,1.7-3.9,5v6.9h-3.2V691.1z"/>
	<path class="st7" d="M1082.3,691.1h2.4v-4.3h3.2v4.3h2.9v2.4h-2.9v7.7c0,1.3,0.1,2,1.5,2c0.4,0,0.9,0,1.3-0.1v2.5
		c-0.7,0.1-1.4,0.2-2.1,0.2c-3.4,0-3.9-1.3-4-3.7v-8.5h-2.4V691.1z"/>
	<path class="st7" d="M1095.6,699.2c0,2.3,1.2,4.3,3.9,4.3c1.9,0,3-0.8,3.5-2.4h3c-0.7,3.2-3.4,4.9-6.6,4.9c-4.6,0-7.1-3.1-7.1-7.6
		c0-4.1,2.7-7.6,7-7.6c4.6,0,7.4,4.1,6.8,8.5H1095.6z M1103.1,697.1c-0.1-2-1.5-3.8-3.6-3.8c-2.2,0-3.7,1.7-3.8,3.8H1103.1z"/>
	<path class="st7" d="M1118.5,696c-0.3-1.8-1.5-2.7-3.3-2.7c-1.7,0-4,0.9-4,5.3c0,2.4,1.1,5,3.8,5c1.9,0,3.1-1.2,3.4-3.3h3.2
		c-0.6,3.8-2.9,5.8-6.6,5.8c-4.5,0-7-3.2-7-7.5c0-4.4,2.4-7.8,7.1-7.8c3.4,0,6.2,1.7,6.5,5.2H1118.5z"/>
	<path class="st7" d="M1124.3,685.6h3.2v7.4h0.1c0.8-1.3,2.4-2.3,4.3-2.3c3.2,0,5.1,1.7,5.1,4.9v9.9h-3.2v-9.1
		c-0.1-2.3-0.9-3.2-2.8-3.2c-2.1,0-3.5,1.7-3.5,3.8v8.5h-3.2V685.6z"/>
	<path class="st7" d="M1140.3,691.1h3v2.1l0.1,0.1c1-1.6,2.6-2.6,4.5-2.6c3.2,0,5.1,1.7,5.1,4.9v9.9h-3.2v-9.1
		c-0.1-2.3-0.9-3.2-2.8-3.2c-2.1,0-3.5,1.7-3.5,3.8v8.5h-3.2V691.1z"/>
	<path class="st7" d="M1156.5,685.6h3.2v3h-3.2V685.6z M1156.5,691.1h3.2v14.5h-3.2V691.1z"/>
	<path class="st7" d="M1172.9,696c-0.3-1.8-1.5-2.7-3.3-2.7c-1.7,0-4,0.9-4,5.3c0,2.4,1.1,5,3.8,5c1.9,0,3.1-1.2,3.4-3.3h3.2
		c-0.6,3.8-2.9,5.8-6.6,5.8c-4.5,0-7-3.2-7-7.5c0-4.4,2.4-7.8,7.1-7.8c3.4,0,6.2,1.7,6.5,5.2H1172.9z"/>
	<path class="st7" d="M1190.8,702.4c0,0.8,0.2,1.1,0.8,1.1h0.3c0.1,0,0.3,0,0.4-0.1v2.2c-0.5,0.2-1.5,0.4-2,0.4
		c-1.3,0-2.2-0.4-2.5-1.8c-1.3,1.2-3.3,1.8-5,1.8c-2.6,0-5-1.4-5-4.2c0-3.6,2.9-4.2,5.6-4.5c2.3-0.4,4.3-0.1,4.3-2c0-1.7-1.7-2-3-2
		c-1.8,0-3.1,0.7-3.2,2.3h-3.2c0.2-3.7,3.4-4.8,6.6-4.8c2.8,0,5.8,1.1,5.8,4.2V702.4z M1187.6,698.3c-1,0.6-2.5,0.6-3.9,0.9
		c-1.4,0.2-2.6,0.7-2.6,2.4c0,1.5,1.8,1.8,2.9,1.8c1.4,0,3.6-0.7,3.6-2.7V698.3z"/>
	<path class="st7" d="M1194.4,685.6h3.2v20h-3.2V685.6z"/>
	<path class="st7" d="M1220.9,702.4c0,0.8,0.2,1.1,0.8,1.1h0.3c0.1,0,0.3,0,0.4-0.1v2.2c-0.5,0.2-1.5,0.4-2,0.4
		c-1.3,0-2.2-0.4-2.5-1.8c-1.3,1.2-3.3,1.8-5,1.8c-2.6,0-5-1.4-5-4.2c0-3.6,2.9-4.2,5.6-4.5c2.3-0.4,4.3-0.1,4.3-2c0-1.7-1.7-2-3-2
		c-1.8,0-3.1,0.7-3.2,2.3h-3.2c0.2-3.7,3.4-4.8,6.6-4.8c2.8,0,5.8,1.1,5.8,4.2V702.4z M1217.7,698.3c-1,0.6-2.5,0.6-3.9,0.9
		c-1.4,0.2-2.6,0.7-2.6,2.4c0,1.5,1.8,1.8,2.9,1.8c1.4,0,3.6-0.7,3.6-2.7V698.3z"/>
	<path class="st7" d="M1224.4,691.1h3v2.1l0.1,0.1c1-1.6,2.6-2.6,4.5-2.6c3.2,0,5.1,1.7,5.1,4.9v9.9h-3.2v-9.1
		c-0.1-2.3-0.9-3.2-2.8-3.2c-2.1,0-3.5,1.7-3.5,3.8v8.5h-3.2V691.1z"/>
	<path class="st7" d="M1254.1,705.6h-3v-2h-0.1c-0.9,1.7-2.7,2.4-4.5,2.4c-4.6,0-6.8-3.4-6.8-7.7c0-5.3,3.1-7.5,6.3-7.5
		c1.8,0,3.8,0.7,4.8,2.3h0.1v-7.4h3.2V705.6z M1247,703.5c2.8,0,4.1-2.6,4.1-5.1c0-3.2-1.5-5.1-4-5.1c-3,0-4.1,2.7-4.1,5.3
		C1242.9,701,1244.2,703.5,1247,703.5z"/>
	<path class="st7" d="M1265.4,691.1h3v2h0.1c0.9-1.7,2.6-2.4,4.5-2.4c4.6,0,6.8,3.4,6.8,7.7c0,3.9-2,7.6-6.2,7.6
		c-1.8,0-3.9-0.7-4.8-2.3h-0.1v7.2h-3.2V691.1z M1272.6,693.2c-2.7,0-4.1,2-4.1,5.1c0,2.9,1.5,5.1,4.1,5.1c2.9,0,4-2.6,4-5.1
		C1276.6,695.8,1275.2,693.2,1272.6,693.2z"/>
	<path class="st7" d="M1282.5,691.1h3v2.8h0.1c0.4-1.5,2.3-3.2,4.2-3.2c0.8,0,0.9,0.1,1.2,0.1v3.1c-0.4-0.1-0.9-0.1-1.4-0.1
		c-2.2,0-3.9,1.7-3.9,5v6.9h-3.2V691.1z"/>
	<path class="st7" d="M1291.6,698.3c0-4.4,2.7-7.6,7.3-7.6c4.6,0,7.3,3.2,7.3,7.6c0,4.5-2.7,7.6-7.3,7.6
		C1294.3,706,1291.6,702.8,1291.6,698.3z M1303.1,698.3c0-2.5-1.3-5.1-4.1-5.1c-2.9,0-4.1,2.6-4.1,5.1c0,2.5,1.3,5.1,4.1,5.1
		C1301.8,703.5,1303.1,700.9,1303.1,698.3z"/>
	<path class="st7" d="M1322.6,705.6h-3v-2h-0.1c-0.9,1.7-2.7,2.4-4.5,2.4c-4.6,0-6.8-3.4-6.8-7.7c0-5.3,3.1-7.5,6.3-7.5
		c1.8,0,3.8,0.7,4.8,2.3h0.1v-7.4h3.2V705.6z M1315.4,703.5c2.8,0,4.1-2.6,4.1-5.1c0-3.2-1.5-5.1-4-5.1c-3,0-4.1,2.7-4.1,5.3
		C1311.4,701,1312.6,703.5,1315.4,703.5z"/>
	<path class="st7" d="M1338.7,705.6h-3.1v-2h-0.1c-0.8,1.5-2.5,2.4-4.1,2.4c-3.8,0-5.4-1.9-5.4-5.7v-9.2h3.2v8.9
		c0,2.5,1,3.5,2.8,3.5c2.7,0,3.6-1.7,3.6-3.9v-8.4h3.2V705.6z"/>
	<path class="st7" d="M1351.9,696c-0.3-1.8-1.5-2.7-3.3-2.7c-1.7,0-4,0.9-4,5.3c0,2.4,1.1,5,3.8,5c1.9,0,3.1-1.2,3.4-3.3h3.2
		c-0.6,3.8-2.9,5.8-6.6,5.8c-4.5,0-7-3.2-7-7.5c0-4.4,2.4-7.8,7.1-7.8c3.4,0,6.2,1.7,6.5,5.2H1351.9z"/>
	<path class="st7" d="M1356.2,691.1h2.4v-4.3h3.2v4.3h2.9v2.4h-2.9v7.7c0,1.3,0.1,2,1.5,2c0.4,0,0.9,0,1.3-0.1v2.5
		c-0.7,0.1-1.4,0.2-2.1,0.2c-3.4,0-3.9-1.3-4-3.7v-8.5h-2.4V691.1z"/>
	<path class="st7" d="M1374.8,691.1h3v2.8h0.1c0.4-1.5,2.3-3.2,4.2-3.2c0.8,0,0.9,0.1,1.2,0.1v3.1c-0.4-0.1-0.9-0.1-1.4-0.1
		c-2.2,0-3.9,1.7-3.9,5v6.9h-3.2V691.1z"/>
	<path class="st7" d="M1387.1,699.2c0,2.3,1.2,4.3,3.9,4.3c1.9,0,3-0.8,3.5-2.4h3c-0.7,3.2-3.4,4.9-6.6,4.9c-4.6,0-7.1-3.1-7.1-7.6
		c0-4.1,2.7-7.6,7-7.6c4.6,0,7.4,4.1,6.8,8.5H1387.1z M1394.6,697.1c-0.1-2-1.5-3.8-3.6-3.8c-2.2,0-3.7,1.7-3.8,3.8H1394.6z"/>
	<path class="st7" d="M1413.8,710.9h-3.2v-7.2h-0.1c-1.1,1.6-2.9,2.3-4.8,2.3c-4.3,0-6.2-3.6-6.2-7.6c0-4.3,2.2-7.7,6.8-7.7
		c1.9,0,3.6,0.7,4.5,2.4h0.1v-2h3V710.9z M1406.7,703.5c2.8,0,4.1-2.1,4.1-5.1c0-3.2-1.4-5.1-4.1-5.1c-2.6,0-4,2.5-4,5.1
		C1402.7,700.9,1403.8,703.5,1406.7,703.5z"/>
	<path class="st7" d="M1430,705.6h-3.1v-2h-0.1c-0.8,1.5-2.5,2.4-4.1,2.4c-3.8,0-5.4-1.9-5.4-5.7v-9.2h3.2v8.9c0,2.5,1,3.5,2.8,3.5
		c2.7,0,3.6-1.7,3.6-3.9v-8.4h3.2V705.6z"/>
	<path class="st7" d="M1433.5,685.6h3.2v3h-3.2V685.6z M1433.5,691.1h3.2v14.5h-3.2V691.1z"/>
	<path class="st7" d="M1440.1,691.1h3v2.8h0.1c0.4-1.5,2.3-3.2,4.2-3.2c0.8,0,0.9,0.1,1.2,0.1v3.1c-0.4-0.1-0.9-0.1-1.4-0.1
		c-2.2,0-3.9,1.7-3.9,5v6.9h-3.2V691.1z"/>
	<path class="st7" d="M1452.5,699.2c0,2.3,1.2,4.3,3.9,4.3c1.9,0,3-0.8,3.5-2.4h3c-0.7,3.2-3.4,4.9-6.6,4.9c-4.6,0-7.1-3.1-7.1-7.6
		c0-4.1,2.7-7.6,7-7.6c4.6,0,7.4,4.1,6.8,8.5H1452.5z M1459.9,697.1c-0.1-2-1.5-3.8-3.6-3.8c-2.2,0-3.7,1.7-3.8,3.8H1459.9z"/>
	<path class="st7" d="M1465.5,691.1h3v2h0.1c1-1.4,2.1-2.4,4.5-2.4c1.8,0,3.4,0.8,4.1,2.4c1.1-1.5,2.4-2.4,4.5-2.4
		c3.1,0,4.8,1.4,4.8,4.9v10h-3.2v-8.5c0-2.3-0.1-3.9-2.6-3.9c-2.2,0-3.1,1.4-3.1,3.9v8.5h-3.2v-9.3c0-2-0.6-3.1-2.5-3.1
		c-1.7,0-3.2,1.4-3.2,3.8v8.6h-3.2V691.1z"/>
	<path class="st7" d="M1492.4,699.2c0,2.3,1.2,4.3,3.9,4.3c1.9,0,3-0.8,3.5-2.4h3c-0.7,3.2-3.4,4.9-6.6,4.9c-4.6,0-7.1-3.1-7.1-7.6
		c0-4.1,2.7-7.6,7-7.6c4.6,0,7.4,4.1,6.8,8.5H1492.4z M1499.8,697.1c-0.1-2-1.5-3.8-3.6-3.8c-2.2,0-3.7,1.7-3.8,3.8H1499.8z"/>
	<path class="st7" d="M1505.5,691.1h3v2.1l0.1,0.1c1-1.6,2.6-2.6,4.5-2.6c3.2,0,5.1,1.7,5.1,4.9v9.9h-3.2v-9.1
		c-0.1-2.3-0.9-3.2-2.8-3.2c-2.1,0-3.5,1.7-3.5,3.8v8.5h-3.2V691.1z"/>
	<path class="st7" d="M1520.1,691.1h2.4v-4.3h3.2v4.3h2.9v2.4h-2.9v7.7c0,1.3,0.1,2,1.5,2c0.4,0,0.9,0,1.3-0.1v2.5
		c-0.7,0.1-1.4,0.2-2.1,0.2c-3.4,0-3.9-1.3-4-3.7v-8.5h-2.4V691.1z"/>
	<path class="st7" d="M1533.3,700.9c0.2,1.9,1.6,2.5,3.3,2.5c1.2,0,3.3-0.3,3.2-1.9c-0.1-1.7-2.4-1.9-4.7-2.4
		c-2.4-0.5-4.6-1.3-4.6-4.3c0-3.2,3.4-4.1,6-4.1c3,0,5.7,1.2,6,4.5h-3.3c-0.3-1.5-1.5-1.9-2.9-1.9c-0.9,0-2.6,0.2-2.6,1.5
		c0,1.6,2.4,1.8,4.7,2.3c2.3,0.5,4.7,1.4,4.7,4.2c0,3.4-3.5,4.7-6.5,4.7c-3.7,0-6.3-1.6-6.4-5H1533.3z"/>
	<path class="st7" d="M948.4,744.5c-2.2-3.6-4-7.5-4-12.9c0-4.5,1.5-9,4-12.9h2.6c-2.2,4-3.4,8.2-3.4,12.9c0,4.7,1.1,8.9,3.4,12.9
		H948.4z"/>
	<path class="st7" d="M954.9,732.8c0,2.3,1.2,4.3,3.9,4.3c1.9,0,3-0.8,3.5-2.4h3c-0.7,3.2-3.4,4.9-6.6,4.9c-4.6,0-7.1-3.1-7.1-7.6
		c0-4.1,2.7-7.6,7-7.6c4.6,0,7.4,4.1,6.8,8.5H954.9z M962.4,730.7c-0.1-2-1.5-3.8-3.6-3.8c-2.2,0-3.7,1.7-3.8,3.8H962.4z"/>
	<path class="st7" d="M968.2,735.4h3.9v3.8h-3.9V735.4z"/>
	<path class="st7" d="M989.2,738.4c0,4.4-2.5,6.5-7.1,6.5c-2.9,0-6.2-1.1-6.5-4.5h3.2c0.4,1.8,1.8,2.1,3.5,2.1
		c2.6,0,3.7-1.3,3.7-3.7v-2.2h-0.1c-0.9,1.6-2.5,2.5-4.3,2.5c-4.6,0-6.5-3.5-6.5-7.6c0-3.9,2.4-7.3,6.6-7.3c1.8,0,3.5,0.7,4.3,2.4
		h0.1v-2h3.2V738.4z M986,731.6c0-2.5-1.1-4.8-3.9-4.8c-2.8,0-3.8,2.6-3.8,5c0,2.4,1.1,4.8,3.8,4.8C984.9,736.7,986,734.1,986,731.6
		z"/>
	<path class="st7" d="M992.6,735.4h3.9v3.8h-3.9V735.4z"/>
	<path class="st7" d="M1000.4,735.4h3.9v3.8c0,2.3-1.5,4-3.8,4.4v-1.7c1.2-0.3,1.8-1.5,1.8-2.7h-1.9V735.4z"/>
	<path class="st7" d="M1015.5,722.8c2.7,0,5.3-0.9,5.7-3.2h2.6v19.6h-3.5v-13.8h-4.8V722.8z"/>
	<path class="st7" d="M1039.5,719.2h8.3c6.2,0,8.8,4.5,8.8,10s-2.7,10-8.8,10h-8.3V719.2z M1043,736.3h3.4c5.5,0,6.7-3.1,6.7-7.1
		s-1.2-7.1-6.7-7.1h-3.4V736.3z"/>
	<path class="st7" d="M1059.7,719.2h3.5v8h9.1v-8h3.5v20h-3.5v-9h-9.1v9h-3.5V719.2z"/>
	<path class="st7" d="M1080,719.2h13.8v3h-10.3v5.2h9v2.9h-9v8.9h-3.5V719.2z"/>
	<path class="st7" d="M1104,724.7h3v2h0.1c0.9-1.7,2.6-2.4,4.5-2.4c4.6,0,6.8,3.4,6.8,7.7c0,3.9-2,7.6-6.2,7.6
		c-1.8,0-3.9-0.7-4.8-2.3h-0.1v7.2h-3.2V724.7z M1111.1,726.8c-2.7,0-4.1,2-4.1,5.1c0,2.9,1.5,5.1,4.1,5.1c2.9,0,4-2.6,4-5.1
		C1115.1,729.4,1113.8,726.8,1111.1,726.8z"/>
	<path class="st7" d="M1123.5,732.8c0,2.3,1.2,4.3,3.9,4.3c1.9,0,3-0.8,3.5-2.4h3c-0.7,3.2-3.4,4.9-6.6,4.9c-4.6,0-7.1-3.1-7.1-7.6
		c0-4.1,2.7-7.6,7-7.6c4.6,0,7.4,4.1,6.8,8.5H1123.5z M1130.9,730.7c-0.1-2-1.5-3.8-3.6-3.8c-2.2,0-3.7,1.7-3.8,3.8H1130.9z"/>
	<path class="st7" d="M1136.6,724.7h3v2.8h0.1c0.4-1.5,2.3-3.2,4.2-3.2c0.8,0,0.9,0.1,1.2,0.1v3.1c-0.4-0.1-0.9-0.1-1.4-0.1
		c-2.2,0-3.9,1.7-3.9,5v6.9h-3.2V724.7z"/>
	<path class="st7" d="M1167.9,739.2h-3v-2h-0.1c-0.9,1.7-2.7,2.4-4.5,2.4c-4.6,0-6.8-3.4-6.8-7.7c0-5.3,3.1-7.5,6.3-7.5
		c1.8,0,3.8,0.7,4.8,2.3h0.1v-7.4h3.2V739.2z M1160.7,737.1c2.8,0,4.1-2.6,4.1-5.1c0-3.2-1.5-5.1-4-5.1c-3,0-4.1,2.7-4.1,5.3
		C1156.7,734.6,1157.9,737.1,1160.7,737.1z"/>
	<path class="st7" d="M1173.8,732.8c0,2.3,1.2,4.3,3.9,4.3c1.9,0,3-0.8,3.5-2.4h3c-0.7,3.2-3.4,4.9-6.6,4.9c-4.6,0-7.1-3.1-7.1-7.6
		c0-4.1,2.7-7.6,7-7.6c4.6,0,7.4,4.1,6.8,8.5H1173.8z M1181.3,730.7c-0.1-2-1.5-3.8-3.6-3.8c-2.2,0-3.7,1.7-3.8,3.8H1181.3z"/>
	<path class="st7" d="M1187,724.7h3v2h0.1c0.9-1.7,2.6-2.4,4.5-2.4c4.6,0,6.8,3.4,6.8,7.7c0,3.9-2,7.6-6.2,7.6
		c-1.8,0-3.9-0.7-4.8-2.3h-0.1v7.2h-3.2V724.7z M1194.1,726.8c-2.7,0-4.1,2-4.1,5.1c0,2.9,1.5,5.1,4.1,5.1c2.9,0,4-2.6,4-5.1
		C1198.1,729.4,1196.7,726.8,1194.1,726.8z"/>
	<path class="st7" d="M1204.1,719.2h3.2v20h-3.2V719.2z"/>
	<path class="st7" d="M1210.1,731.9c0-4.4,2.7-7.6,7.3-7.6c4.6,0,7.3,3.2,7.3,7.6c0,4.5-2.7,7.6-7.3,7.6
		C1212.8,739.6,1210.1,736.4,1210.1,731.9z M1221.5,731.9c0-2.5-1.3-5.1-4.1-5.1c-2.9,0-4.1,2.6-4.1,5.1c0,2.5,1.3,5.1,4.1,5.1
		C1220.2,737.1,1221.5,734.5,1221.5,731.9z"/>
	<path class="st7" d="M1225.8,724.7h3.5l3.8,10.8h0.1l3.7-10.8h3.3l-5.6,15.3c-1,2.6-1.8,5-5.1,5c-0.8,0-1.5-0.1-2.2-0.2v-2.7
		c0.5,0.1,1,0.2,1.5,0.2c1.5,0,1.9-0.8,2.2-2l0.4-1.1L1225.8,724.7z"/>
	<path class="st7" d="M1241.9,724.7h3v2h0.1c1-1.4,2.1-2.4,4.5-2.4c1.8,0,3.4,0.8,4.1,2.4c1.1-1.5,2.4-2.4,4.5-2.4
		c3.1,0,4.8,1.4,4.8,4.9v10h-3.2v-8.5c0-2.3-0.1-3.9-2.6-3.9c-2.2,0-3.1,1.4-3.1,3.9v8.5h-3.2v-9.3c0-2-0.6-3.1-2.5-3.1
		c-1.7,0-3.2,1.4-3.2,3.8v8.6h-3.2V724.7z"/>
	<path class="st7" d="M1268.7,732.8c0,2.3,1.2,4.3,3.9,4.3c1.9,0,3-0.8,3.5-2.4h3c-0.7,3.2-3.4,4.9-6.6,4.9c-4.6,0-7.1-3.1-7.1-7.6
		c0-4.1,2.7-7.6,7-7.6c4.6,0,7.4,4.1,6.8,8.5H1268.7z M1276.2,730.7c-0.1-2-1.5-3.8-3.6-3.8c-2.2,0-3.7,1.7-3.8,3.8H1276.2z"/>
	<path class="st7" d="M1281.8,724.7h3v2.1l0.1,0.1c1-1.6,2.6-2.6,4.5-2.6c3.2,0,5.1,1.7,5.1,4.9v9.9h-3.2v-9.1
		c-0.1-2.3-0.9-3.2-2.8-3.2c-2.1,0-3.5,1.7-3.5,3.8v8.5h-3.2V724.7z"/>
	<path class="st7" d="M1296.4,724.7h2.4v-4.3h3.2v4.3h2.9v2.4h-2.9v7.7c0,1.3,0.1,2,1.5,2c0.4,0,0.9,0,1.3-0.1v2.5
		c-0.7,0.1-1.4,0.2-2.1,0.2c-3.4,0-3.9-1.3-4-3.7v-8.5h-2.4V724.7z"/>
	<path class="st7" d="M1313.5,724.7h2.4v-4.3h3.2v4.3h2.9v2.4h-2.9v7.7c0,1.3,0.1,2,1.5,2c0.4,0,0.9,0,1.3-0.1v2.5
		c-0.7,0.1-1.4,0.2-2.1,0.2c-3.4,0-3.9-1.3-4-3.7v-8.5h-2.4V724.7z"/>
	<path class="st7" d="M1322.7,724.7h3.5l3.8,10.8h0.1l3.7-10.8h3.3l-5.6,15.3c-1,2.6-1.8,5-5.1,5c-0.8,0-1.5-0.1-2.2-0.2v-2.7
		c0.5,0.1,1,0.2,1.5,0.2c1.5,0,1.9-0.8,2.2-2l0.4-1.1L1322.7,724.7z"/>
	<path class="st7" d="M1338.9,724.7h3v2h0.1c0.9-1.7,2.6-2.4,4.5-2.4c4.6,0,6.8,3.4,6.8,7.7c0,3.9-2,7.6-6.2,7.6
		c-1.8,0-3.9-0.7-4.8-2.3h-0.1v7.2h-3.2V724.7z M1346.1,726.8c-2.7,0-4.1,2-4.1,5.1c0,2.9,1.5,5.1,4.1,5.1c2.9,0,4-2.6,4-5.1
		C1350.1,729.4,1348.7,726.8,1346.1,726.8z"/>
	<path class="st7" d="M1358.4,732.8c0,2.3,1.2,4.3,3.9,4.3c1.9,0,3-0.8,3.5-2.4h3c-0.7,3.2-3.4,4.9-6.6,4.9c-4.6,0-7.1-3.1-7.1-7.6
		c0-4.1,2.7-7.6,7-7.6c4.6,0,7.4,4.1,6.8,8.5H1358.4z M1365.9,730.7c-0.1-2-1.5-3.8-3.6-3.8c-2.2,0-3.7,1.7-3.8,3.8H1365.9z"/>
	<path class="st7" d="M1372.2,718.7c2.2,3.6,4,7.6,4,12.9c0,4.5-1.5,9-4,12.9h-2.6c2.2-4,3.4-8.2,3.4-12.9s-1.1-8.9-3.4-12.9H1372.2
		z"/>
</g>
<g>
	<path class="st9" d="M532.4,265.5l16.7,0c2.1,0,3.9,1.8,3.9,3.9l0,40.5c0,2.1-1.8,3.9-3.9,3.9l-16.7,0c-2.1,0-3.9-1.8-3.9-3.9
		l0-40.5C528.5,267.2,530.3,265.5,532.4,265.5z"/>
	<path class="st10" d="M553,284.4l0,25.5c0,2.1-1.8,3.9-3.9,3.9l-16.7,0c-2.1,0-3.9-1.8-3.9-3.9l0-34.7l5.6-9.7L553,284.4z"/>
	
		<ellipse transform="matrix(1.004105e-03 -1 1 1.004105e-03 233.7585 846.9407)" class="st11" cx="540.8" cy="306.5" rx="2.9" ry="2.9"/>
	<path class="st12" d="M534.6,271.6l12.4,0c0.8,0,1.5,0.7,1.5,1.5v3.1c0,0.8-0.7,1.5-1.5,1.5l-12.4,0c-0.8,0-1.5-0.7-1.5-1.5l0-3.1
		C533.1,272.3,533.7,271.6,534.6,271.6z"/>
	<rect x="534.8" y="291.4" class="st12" width="11.9" height="1.8"/>
	<rect x="534.8" y="296.3" class="st12" width="11.9" height="1.8"/>
	<rect x="534.8" y="286.5" class="st12" width="11.9" height="1.8"/>
	
		<ellipse transform="matrix(1.285424e-03 -1 1 1.285424e-03 233.6069 846.8539)" class="st10" cx="540.8" cy="306.5" rx="2.3" ry="2.2"/>
	<path class="st10" d="M499.7,305.9l14.5,0c0,1.8,0,3.4,0,5.2c32.6,0-48.1,0-14.4,0C499.7,309.3,499.7,307.7,499.7,305.9z"/>
	<path class="st9" d="M480,265.4l54.1,0c2.1,0,3.9,1.8,3.9,3.9l0,32.7c0,2.1-1.8,3.9-3.9,3.9l-54.1,0c-2.1,0-3.9-1.8-3.9-3.9l0-32.7
		C476.1,267.2,477.9,265.4,480,265.4z"/>
	<path class="st13" d="M480.3,268.1l53.6,0c1,0,1.7,0.8,1.7,1.7l0,31.5c0,1-0.8,1.7-1.7,1.7l-53.6,0c-1,0-1.7-0.8-1.7-1.7l0-31.5
		C478.6,268.9,479.3,268.1,480.3,268.1z"/>
	<path class="st13" d="M507.3,268.2l26.6,0c1,0,1.7,0.8,1.7,1.7l0,31.5c0,1-0.8,1.7-1.7,1.7l-26.6,0L507.3,268.2z"/>
	<path class="st14" d="M507.8,303.9c-0.1-0.1-0.3-0.2-0.5-0.2c-0.2,0-0.4,0.1-0.5,0.2c-0.1,0.1-0.2,0.3-0.2,0.5
		c0,0.2,0.1,0.4,0.2,0.5c0.1,0.1,0.3,0.2,0.5,0.2c0.2,0,0.4-0.1,0.5-0.2c0.1-0.1,0.2-0.3,0.2-0.5C508,304.2,507.9,304,507.8,303.9z"
		/>
	<path class="st9" d="M521.2,311.1c0.8,0,1.5,0.7,1.5,1.5v1.2l-31.7,0v-1.2c0-0.8,0.7-1.5,1.5-1.5
		C503.9,311.1,509.8,311.1,521.2,311.1z"/>
	<rect x="487.1" y="275.2" class="st15" width="40.3" height="24.1"/>
	<rect x="487.1" y="271.7" class="st16" width="40.3" height="3.5"/>
	<path class="st17" d="M497.3,280.9L497.3,280.9c0.5,0,1,0.4,1,1l0,0c0,0.5-0.4,1-1,1l0,0c-0.5,0-1-0.4-1-1l0,0
		C496.3,281.3,496.8,280.9,497.3,280.9z"/>
	<path class="st18" d="M497.3,286.2L497.3,286.2c0.5,0,1,0.4,1,1l0,0c0,0.5-0.4,1-1,1l0,0c-0.5,0-1-0.4-1-1l0,0
		C496.3,286.7,496.8,286.2,497.3,286.2z"/>
	<path class="st19" d="M497.3,291.9L497.3,291.9c0.5,0,1,0.4,1,1l0,0c0,0.5-0.4,1-1,1l0,0c-0.5,0-1-0.4-1-1l0,0
		C496.3,292.3,496.8,291.9,497.3,291.9z"/>
	<rect x="500.3" y="281.4" class="st20" width="15.3" height="1"/>
	<rect x="500.3" y="286.7" class="st20" width="16.6" height="1"/>
	<rect x="500.3" y="292.3" class="st20" width="13" height="1"/>
</g>
<g>
	<path class="st9" d="M529,666.9l12.5,0c1.6,0,2.9,1.3,2.9,2.9l0,30.3c0,1.6-1.3,2.9-2.9,2.9l-12.5,0c-1.6,0-2.9-1.3-2.9-2.9l0-30.3
		C526.1,668.2,527.4,666.9,529,666.9z"/>
	<path class="st10" d="M544.4,681.1l0,19.1c0,1.6-1.3,2.9-2.9,2.9l-12.5,0c-1.6,0-2.9-1.3-2.9-2.9l0-25.9l4.2-7.3L544.4,681.1z"/>
	
		<ellipse transform="matrix(1.020763e-03 -1 1 1.020763e-03 -162.8869 1232.1602)" class="st11" cx="535.3" cy="697.6" rx="2.2" ry="2.2"/>
	<path class="st12" d="M530.6,671.5l9.3,0c0.6,0,1.1,0.5,1.1,1.1v2.3c0,0.6-0.5,1.1-1.1,1.1l-9.3,0c-0.6,0-1.1-0.5-1.1-1.1l0-2.3
		C529.5,672,530,671.5,530.6,671.5z"/>
	<rect x="530.8" y="686.3" class="st12" width="8.9" height="1.3"/>
	<rect x="530.8" y="690" class="st12" width="8.9" height="1.3"/>
	<rect x="530.8" y="682.7" class="st12" width="8.9" height="1.3"/>
	
		<ellipse transform="matrix(1.307114e-03 -1 1 1.307114e-03 -163.0396 1231.96)" class="st10" cx="535.3" cy="697.6" rx="1.7" ry="1.7"/>
	<path class="st10" d="M504.5,697.2l10.8,0c0,1.3,0,2.5,0,3.9c24.4,0-36,0-10.8,0C504.5,699.7,504.5,698.5,504.5,697.2z"/>
	<path class="st9" d="M489.8,666.9l40.5,0c1.6,0,2.9,1.3,2.9,2.9l0,24.5c0,1.6-1.3,2.9-2.9,2.9l-40.5,0c-1.6,0-2.9-1.3-2.9-2.9
		l0-24.5C486.9,668.2,488.2,666.9,489.8,666.9z"/>
	<path class="st13" d="M490,668.9l40,0c0.7,0,1.3,0.6,1.3,1.3l0,23.6c0,0.7-0.6,1.3-1.3,1.3l-40,0c-0.7,0-1.3-0.6-1.3-1.3l0-23.6
		C488.7,669.5,489.3,668.9,490,668.9z"/>
	<path class="st13" d="M510.2,668.9l19.9,0c0.7,0,1.3,0.6,1.3,1.3l0,23.6c0,0.7-0.6,1.3-1.3,1.3l-19.9,0L510.2,668.9z"/>
	<path class="st14" d="M510.6,695.7c-0.1-0.1-0.2-0.2-0.4-0.2c-0.2,0-0.3,0.1-0.4,0.2c-0.1,0.1-0.2,0.2-0.2,0.4
		c0,0.2,0.1,0.3,0.2,0.4c0.1,0.1,0.2,0.2,0.4,0.2c0.2,0,0.3-0.1,0.4-0.2c0.1-0.1,0.2-0.2,0.2-0.4S510.7,695.8,510.6,695.7z"/>
	<path class="st9" d="M520.7,701.1c0.6,0,1.1,0.5,1.1,1.1v0.9l-23.7,0v-0.9c0-0.6,0.5-1.1,1.1-1.1
		C507.7,701.1,512.1,701.1,520.7,701.1z"/>
	<rect x="495.1" y="674.2" class="st15" width="30.1" height="18"/>
	<rect x="495.1" y="671.6" class="st16" width="30.1" height="2.6"/>
	<path class="st17" d="M502.8,678.5L502.8,678.5c0.4,0,0.7,0.3,0.7,0.7l0,0c0,0.4-0.3,0.7-0.7,0.7l0,0c-0.4,0-0.7-0.3-0.7-0.7l0,0
		C502,678.8,502.4,678.5,502.8,678.5z"/>
	<path class="st18" d="M502.8,682.5L502.8,682.5c0.4,0,0.7,0.3,0.7,0.7l0,0c0,0.4-0.3,0.7-0.7,0.7l0,0c-0.4,0-0.7-0.3-0.7-0.7l0,0
		C502,682.8,502.4,682.5,502.8,682.5z"/>
	<path class="st19" d="M502.8,686.7L502.8,686.7c0.4,0,0.7,0.3,0.7,0.7l0,0c0,0.4-0.3,0.7-0.7,0.7l0,0c-0.4,0-0.7-0.3-0.7-0.7l0,0
		C502,687,502.4,686.7,502.8,686.7z"/>
	<rect x="505" y="678.9" class="st20" width="11.5" height="0.7"/>
	<rect x="505" y="682.8" class="st20" width="12.4" height="0.7"/>
	<rect x="505" y="687" class="st20" width="9.8" height="0.7"/>
</g>
<g>
	<path class="st14" d="M531.2,469c-2.1-5.6-7.9-9-13.8-8c-0.7,0.1-1.3-0.3-1.5-1l-0.5-1.7c-0.1-0.4,0-0.7,0.2-1
		c0.2-0.3,0.5-0.5,0.9-0.6c8.1-1.5,16.1,3.2,18.8,10.9c0.1,0.4,0.1,0.7-0.1,1.1c-0.2,0.3-0.5,0.6-0.8,0.7l-1.7,0.5
		C532.1,470,531.4,469.6,531.2,469z"/>
	<path class="st14" d="M538.6,467c-3.2-9.7-13.2-15.4-23.2-13.4c-0.7,0.1-1.3-0.3-1.5-0.9l-0.5-1.7c-0.1-0.4,0-0.7,0.2-1
		c0.2-0.3,0.5-0.5,0.8-0.6c12.2-2.5,24.4,4.5,28.3,16.4c0.1,0.4,0.1,0.7-0.1,1c-0.2,0.3-0.5,0.6-0.8,0.6l-1.7,0.5
		C539.5,468,538.8,467.6,538.6,467z"/>
	<path class="st14" d="M484.7,497.7c-6.4,0-11.6-5.2-11.6-11.6c0-5.8,4.3-10.6,9.8-11.4c1-8.1,8-14.4,16.3-14.3
		c5.6,0,10.5,2.8,13.4,7c1-0.3,2.1-0.5,3.3-0.5c5.1,0,9.4,3.3,10.9,7.8c5.8,0.6,10.3,5.5,10.3,11.5c0,6.4-5.2,11.6-11.6,11.5
		L484.7,497.7z"/>
</g>
<g>
	<path class="st14" d="M512.4,654.7c-1.5-4.1-5.7-6.5-10-5.8c-0.5,0.1-1-0.2-1.1-0.7l-0.3-1.2c-0.1-0.3,0-0.5,0.1-0.8
		c0.1-0.2,0.4-0.4,0.6-0.4c5.9-1.1,11.6,2.3,13.7,7.9c0.1,0.3,0.1,0.5-0.1,0.8c-0.1,0.2-0.3,0.4-0.6,0.5l-1.2,0.3
		C513.1,655.5,512.6,655.2,512.4,654.7z"/>
	<path class="st14" d="M517.8,653.3c-2.3-7-9.5-11.2-16.8-9.7c-0.5,0.1-1-0.2-1.1-0.7l-0.3-1.2c-0.1-0.3,0-0.5,0.1-0.7
		c0.1-0.2,0.3-0.4,0.6-0.4c8.8-1.8,17.7,3.3,20.5,11.9c0.1,0.3,0.1,0.5-0.1,0.7c-0.1,0.2-0.3,0.4-0.6,0.5l-1.2,0.3
		C518.5,654,518,653.8,517.8,653.3z"/>
	<path class="st14" d="M478.8,675.6c-4.6,0-8.4-3.8-8.4-8.4c0-4.2,3.1-7.7,7.1-8.3c0.8-5.9,5.8-10.4,11.8-10.4c4,0,7.6,2,9.7,5
		c0.8-0.2,1.6-0.3,2.4-0.3c3.7,0,6.8,2.4,7.9,5.7c4.2,0.4,7.5,4,7.5,8.3c0,4.6-3.8,8.4-8.4,8.4L478.8,675.6z"/>
</g>
</svg>
