<?xml version="1.0" encoding="utf-8"?>
<!-- Generator: Adobe Illustrator 19.2.0, SVG Export Plug-In . SVG Version: 6.00 Build 0)  -->
<svg version="1.1" id="Layer_1" xmlns="http://www.w3.org/2000/svg" xmlns:xlink="http://www.w3.org/1999/xlink" x="0px" y="0px"
	 viewBox="0 0 2048 1000" style="enable-background:new 0 0 2048 1000;" xml:space="preserve">
<style type="text/css">
	.st0{fill:#B9E5FB;}
	.st1{display:none;fill:#B9E5FB;}
	.st2{fill:#0065BD;}
	.st3{fill:#00ADEF;}
	.st4{fill:#66307C;}
	.st5{fill:#7BB50C;}
	.st6{fill:#004F62;}
	.st7{fill:#2F3E85;}
	.st8{fill:none;}
	.st9{fill:#FFFFFF;}
	.st10{fill:#333333;}
	.st11{fill:#1695A4;}
	.st12{fill:#E37222;stroke:#FFFFFF;stroke-width:4;stroke-miterlimit:10;}
	.st13{fill:#A7A9AC;stroke:#FFFFFF;stroke-width:4;stroke-miterlimit:10;}
	.st14{fill:#E37222;}
	.st15{fill:#091F3D;}
	.st16{fill:none;stroke:#231F20;stroke-width:6;stroke-miterlimit:10;}
</style>
<rect class="st0" width="2048" height="1000"/>
<rect y="283.5" class="st1" width="2048" height="716.5"/>
<rect x="41.2" y="179.5" class="st2" width="335" height="287.3"/>
<rect x="431.8" y="179.5" class="st3" width="335" height="287.3"/>
<rect x="847" y="179.5" class="st3" width="335" height="287.3"/>
<rect x="1247.9" y="179.5" class="st4" width="335" height="287.3"/>
<rect x="1636.4" y="179.5" class="st4" width="335" height="287.3"/>
<rect x="41.2" y="561.6" class="st5" width="335" height="287.3"/>
<rect x="431.8" y="561.6" class="st6" width="335" height="287.3"/>
<rect x="847" y="561.6" class="st7" width="335" height="287.3"/>
<rect x="1247.9" y="561.6" class="st4" width="335" height="287.3"/>
<rect x="1636.4" y="561.6" class="st4" width="335" height="287.3"/>
<g>
	<rect x="55.3" y="306.8" class="st8" width="308.8" height="98.5"/>
	<path class="st9" d="M80.1,306.8h11.8c8.8,0,12.6,6.4,12.6,14.3c0,7.9-3.8,14.3-12.6,14.3H80.1V306.8z M85.1,331.2H90
		c7.8,0,9.5-4.4,9.5-10.2c0-5.8-1.7-10.2-9.5-10.2h-4.9V331.2z"/>
	<path class="st9" d="M111.9,326.2c0,3.2,1.8,6.1,5.6,6.1c2.7,0,4.2-1.2,5-3.4h4.3c-1,4.5-4.9,7-9.4,7c-6.5,0-10.1-4.5-10.1-10.9
		c0-5.9,3.8-10.9,10-10.9c6.5,0,10.5,5.9,9.8,12.1H111.9z M122.5,323.2c-0.2-2.9-2.1-5.5-5.2-5.5c-3.2,0-5.3,2.4-5.4,5.5H122.5z"/>
	<path class="st9" d="M144.5,321.6c-0.4-2.6-2.2-3.9-4.7-3.9c-2.4,0-5.7,1.3-5.7,7.5c0,3.4,1.5,7.1,5.5,7.1c2.7,0,4.5-1.7,4.9-4.7
		h4.6c-0.8,5.4-4.2,8.3-9.5,8.3c-6.5,0-10-4.6-10-10.7c0-6.2,3.4-11.1,10.2-11.1c4.8,0,8.9,2.4,9.3,7.5H144.5z"/>
	<path class="st9" d="M152.9,306.8h4.6v4.3h-4.6V306.8z M152.9,314.7h4.6v20.7h-4.6V314.7z"/>
	<path class="st9" d="M165.9,328.7c0.3,2.7,2.2,3.6,4.7,3.6c1.8,0,4.7-0.4,4.6-2.7c-0.1-2.4-3.4-2.7-6.8-3.4
		c-3.4-0.7-6.6-1.9-6.6-6.1c0-4.5,4.9-5.9,8.6-5.9c4.2,0,8.1,1.7,8.6,6.4h-4.8c-0.4-2.2-2.2-2.8-4.2-2.8c-1.3,0-3.8,0.3-3.8,2.1
		c0,2.2,3.4,2.6,6.7,3.3c3.3,0.8,6.7,2,6.7,6c0,4.9-5,6.7-9.2,6.7c-5.2,0-9-2.3-9.2-7.2H165.9z"/>
	<path class="st9" d="M183.3,306.8h4.6v4.3h-4.6V306.8z M183.3,314.7h4.6v20.7h-4.6V314.7z"/>
	<path class="st9" d="M191.9,325c0-6.3,3.8-10.9,10.4-10.9c6.6,0,10.4,4.6,10.4,10.9c0,6.4-3.8,10.9-10.4,10.9
		C195.7,335.9,191.9,331.3,191.9,325z M208.2,325c0-3.6-1.8-7.3-5.9-7.3c-4.1,0-5.9,3.7-5.9,7.3c0,3.6,1.8,7.3,5.9,7.3
		C206.4,332.3,208.2,328.6,208.2,325z"/>
	<path class="st9" d="M216.6,314.7h4.3v3l0.1,0.1c1.4-2.3,3.7-3.7,6.4-3.7c4.5,0,7.3,2.4,7.3,7v14.2h-4.6v-13
		c-0.1-3.2-1.3-4.6-4-4.6c-3,0-5,2.4-5,5.4v12.2h-4.6V314.7z"/>
	<path class="st9" d="M250.8,314.7h4.3v2.8h0.1c1.3-2.4,3.7-3.4,6.4-3.4c6.5,0,9.7,4.9,9.7,11c0,5.6-2.8,10.8-8.9,10.8
		c-2.6,0-5.5-1-6.9-3.2h-0.1V343h-4.6V314.7z M261,317.7c-3.8,0-5.8,2.9-5.8,7.3c0,4.2,2.1,7.3,5.8,7.3c4.2,0,5.7-3.7,5.7-7.3
		C266.7,321.3,264.7,317.7,261,317.7z"/>
	<path class="st9" d="M274.1,325c0-6.3,3.8-10.9,10.4-10.9c6.6,0,10.4,4.6,10.4,10.9c0,6.4-3.8,10.9-10.4,10.9
		C278,335.9,274.1,331.3,274.1,325z M290.4,325c0-3.6-1.8-7.3-5.9-7.3c-4.1,0-5.9,3.7-5.9,7.3c0,3.6,1.8,7.3,5.9,7.3
		C288.6,332.3,290.4,328.6,290.4,325z"/>
	<path class="st9" d="M298.9,306.8h4.6v4.3h-4.6V306.8z M298.9,314.7h4.6v20.7h-4.6V314.7z"/>
	<path class="st9" d="M308.4,314.7h4.3v3l0.1,0.1c1.4-2.3,3.7-3.7,6.4-3.7c4.5,0,7.3,2.4,7.3,7v14.2H322v-13c-0.1-3.2-1.3-4.6-4-4.6
		c-3,0-5,2.4-5,5.4v12.2h-4.6V314.7z"/>
	<path class="st9" d="M329.3,314.7h3.4v-6.2h4.6v6.2h4.1v3.4h-4.1v11c0,1.9,0.2,2.8,2.2,2.8c0.6,0,1.3,0,1.9-0.2v3.5
		c-1,0.1-2,0.2-3,0.2c-4.8,0-5.6-1.8-5.7-5.3v-12.2h-3.4V314.7z"/>
</g>
<g>
	<g>
		<rect x="439.6" y="297.5" class="st8" width="308.8" height="98.5"/>
		<path class="st9" d="M479.6,297.5h12.6c8.2,0,9.7,5.3,9.7,8.8c0,3.6-1.6,8.8-9.7,8.8h-7.6v11h-5V297.5z M484.6,311.1h7.3
			c2.2,0,5-1.1,5-4.7c0-3.8-2.3-4.7-4.9-4.7h-7.4V311.1z"/>
		<path class="st9" d="M505.6,305.4h4.3v4h0.1c0.5-2.2,3.3-4.6,6-4.6c1.1,0,1.3,0.1,1.7,0.1v4.4c-0.6-0.1-1.3-0.2-2-0.2
			c-3.1,0-5.6,2.5-5.6,7.1v9.8h-4.6V305.4z"/>
		<path class="st9" d="M518,315.7c0-6.3,3.8-10.9,10.4-10.9c6.6,0,10.4,4.6,10.4,10.9c0,6.4-3.8,10.9-10.4,10.9
			C521.9,326.7,518,322.1,518,315.7z M534.4,315.7c0-3.6-1.8-7.3-5.9-7.3c-4.1,0-5.9,3.7-5.9,7.3c0,3.6,1.8,7.3,5.9,7.3
			C532.6,323.1,534.4,319.3,534.4,315.7z"/>
		<path class="st9" d="M542.8,305.4h4.6v22.4c0,4.1-1.6,6.4-5.9,6.4c-0.9,0-1.4,0-2-0.2v-3.6c0.6,0.1,1.1,0.2,1.6,0.2
			c1.6,0,1.8-1,1.8-3V305.4z M542.8,297.5h4.6v4.3h-4.6V297.5z"/>
		<path class="st9" d="M555.9,316.9c0,3.2,1.8,6.1,5.6,6.1c2.7,0,4.2-1.2,5-3.4h4.3c-1,4.5-4.9,7-9.4,7c-6.5,0-10.1-4.5-10.1-10.9
			c0-5.9,3.8-10.9,10-10.9c6.5,0,10.5,5.9,9.8,12.1H555.9z M566.6,313.9c-0.2-2.9-2.1-5.5-5.2-5.5c-3.2,0-5.3,2.4-5.4,5.5H566.6z"/>
		<path class="st9" d="M588.6,312.3c-0.4-2.6-2.2-3.9-4.7-3.9c-2.4,0-5.7,1.3-5.7,7.5c0,3.4,1.5,7.1,5.5,7.1c2.7,0,4.5-1.7,4.9-4.7
			h4.6c-0.8,5.4-4.2,8.3-9.5,8.3c-6.5,0-10-4.6-10-10.7c0-6.2,3.4-11.1,10.2-11.1c4.8,0,8.9,2.4,9.3,7.5H588.6z"/>
		<path class="st9" d="M594.8,305.4h3.4v-6.2h4.6v6.2h4.1v3.4h-4.1v11c0,1.9,0.2,2.8,2.2,2.8c0.6,0,1.3,0,1.9-0.2v3.5
			c-1,0.1-2,0.2-3,0.2c-4.8,0-5.6-1.8-5.7-5.3v-12.2h-3.4V305.4z"/>
		<path class="st9" d="M619.2,305.4h3.4v-6.2h4.6v6.2h4.1v3.4h-4.1v11c0,1.9,0.2,2.8,2.2,2.8c0.6,0,1.3,0,1.9-0.2v3.5
			c-1,0.1-2,0.2-3,0.2c-4.8,0-5.6-1.8-5.7-5.3v-12.2h-3.4V305.4z"/>
		<path class="st9" d="M638.2,316.9c0,3.2,1.8,6.1,5.6,6.1c2.7,0,4.2-1.2,5-3.4h4.3c-1,4.5-4.9,7-9.4,7c-6.5,0-10.1-4.5-10.1-10.9
			c0-5.9,3.8-10.9,10-10.9c6.5,0,10.5,5.9,9.8,12.1H638.2z M648.8,313.9c-0.2-2.9-2.1-5.5-5.2-5.5c-3.2,0-5.3,2.4-5.4,5.5H648.8z"/>
		<path class="st9" d="M674.2,321.5c0,1.1,0.2,1.6,1.1,1.6h0.5c0.2,0,0.4,0,0.6-0.1v3.2c-0.7,0.2-2.1,0.5-2.9,0.5
			c-1.9,0-3.2-0.6-3.5-2.5c-1.8,1.8-4.7,2.5-7.2,2.5c-3.7,0-7.1-2-7.1-6c0-5.2,4.1-6,8-6.4c3.3-0.6,6.2-0.2,6.2-2.9
			c0-2.4-2.5-2.8-4.3-2.8c-2.6,0-4.4,1-4.6,3.3h-4.6c0.3-5.3,4.8-6.9,9.4-6.9c4,0,8.3,1.6,8.3,6V321.5z M669.6,315.7
			c-1.4,0.9-3.6,0.9-5.6,1.2c-2,0.3-3.7,1-3.7,3.4c0,2.1,2.6,2.6,4.2,2.6c2,0,5.1-1,5.1-3.9V315.7z"/>
		<path class="st9" d="M679.1,305.4h4.3v2.9h0.1c1.4-2,3-3.4,6.4-3.4c2.5,0,4.9,1.1,5.8,3.4c1.6-2.1,3.4-3.4,6.5-3.4
			c4.4,0,6.9,2,6.9,7v14.3h-4.6V314c0-3.3-0.2-5.6-3.8-5.6c-3.1,0-4.4,2-4.4,5.5v12.1h-4.6v-13.3c0-2.9-0.9-4.4-3.6-4.4
			c-2.4,0-4.5,2-4.5,5.4v12.3h-4.6V305.4z"/>
	</g>
</g>
<g>
	<g>
		<rect x="865.9" y="277.5" class="st8" width="308.8" height="98.5"/>
		<path class="st9" d="M923.7,296.6c0,4.4,3.2,6.1,7.2,6.1c4.4,0,6-2.2,6-4.3c0-2.2-1.2-3.1-2.4-3.5c-2-0.8-4.6-1.3-8.5-2.4
			c-4.9-1.3-6.3-4.3-6.3-7.2c0-5.8,5.3-8.4,10.4-8.4c5.9,0,11,3.2,11,9.1h-5c-0.3-3.7-2.7-5-6.2-5c-2.3,0-5.2,0.8-5.2,3.7
			c0,2,1.4,3.1,3.4,3.7c0.4,0.1,6.8,1.8,8.2,2.2c3.7,1.2,5.6,4.2,5.6,7.3c0,6.4-5.7,9-11.4,9c-6.5,0-11.8-3.1-11.9-10.2H923.7z"/>
		<path class="st9" d="M945.8,285.4h4.3v2.8h0.1c1.3-2.4,3.7-3.4,6.4-3.4c6.5,0,9.7,4.9,9.7,11c0,5.6-2.8,10.8-8.9,10.8
			c-2.6,0-5.5-1-6.9-3.2h-0.1v10.3h-4.6V285.4z M956,288.5c-3.8,0-5.8,2.9-5.8,7.3c0,4.2,2.1,7.3,5.8,7.3c4.2,0,5.7-3.7,5.7-7.3
			C961.7,292.1,959.7,288.5,956,288.5z"/>
		<path class="st9" d="M970.1,285.4h4.3v4h0.1c0.5-2.2,3.3-4.6,6-4.6c1.1,0,1.3,0.1,1.7,0.1v4.4c-0.6-0.1-1.3-0.2-2-0.2
			c-3.1,0-5.6,2.5-5.6,7.1v9.8h-4.6V285.4z"/>
		<path class="st9" d="M984.3,277.5h4.6v4.3h-4.6V277.5z M984.3,285.4h4.6v20.7h-4.6V285.4z"/>
		<path class="st9" d="M993.8,285.4h4.3v3l0.1,0.1c1.4-2.3,3.7-3.7,6.4-3.7c4.5,0,7.3,2.4,7.3,7v14.2h-4.6v-13
			c-0.1-3.2-1.3-4.6-4-4.6c-3,0-5,2.4-5,5.4v12.2h-4.6V285.4z"/>
		<path class="st9" d="M1014.7,285.4h3.4v-6.2h4.6v6.2h4.1v3.4h-4.1v11c0,1.9,0.2,2.8,2.2,2.8c0.6,0,1.3,0,1.9-0.2v3.5
			c-1,0.1-2,0.2-3,0.2c-4.8,0-5.6-1.8-5.7-5.3v-12.2h-3.4V285.4z"/>
		<path class="st9" d="M1041.3,277.5h4.6v28.6h-4.6V277.5z"/>
		<path class="st9" d="M1054.4,296.9c0,3.2,1.8,6.1,5.6,6.1c2.7,0,4.2-1.2,5-3.4h4.3c-1,4.5-4.9,7-9.4,7c-6.5,0-10.1-4.5-10.1-10.9
			c0-5.9,3.8-10.9,10-10.9c6.5,0,10.5,5.9,9.8,12.1H1054.4z M1065.1,293.9c-0.2-2.9-2.1-5.5-5.2-5.5c-3.2,0-5.3,2.4-5.4,5.5H1065.1z
			"/>
		<path class="st9" d="M1071.1,285.4h5l5.2,15.9h0.1l5-15.9h4.7l-7.4,20.7h-5.1L1071.1,285.4z"/>
		<path class="st9" d="M1097.4,296.9c0,3.2,1.8,6.1,5.6,6.1c2.7,0,4.2-1.2,5-3.4h4.3c-1,4.5-4.9,7-9.4,7c-6.5,0-10.1-4.5-10.1-10.9
			c0-5.9,3.8-10.9,10-10.9c6.5,0,10.5,5.9,9.8,12.1H1097.4z M1108.1,293.9c-0.2-2.9-2.1-5.5-5.2-5.5c-3.2,0-5.3,2.4-5.4,5.5H1108.1z
			"/>
		<path class="st9" d="M1116.2,277.5h4.6v28.6h-4.6V277.5z"/>
		<path class="st9" d="M948.3,333.4h4.3v2.9h0.1c1.4-2,3-3.4,6.4-3.4c2.5,0,4.9,1.1,5.8,3.4c1.6-2.1,3.4-3.4,6.5-3.4
			c4.4,0,6.9,2,6.9,7v14.3h-4.6V342c0-3.3-0.2-5.6-3.8-5.6c-3.1,0-4.4,2-4.4,5.5v12.1H961v-13.3c0-2.9-0.9-4.4-3.6-4.4
			c-2.4,0-4.5,2-4.5,5.4v12.3h-4.6V333.4z"/>
		<path class="st9" d="M986.6,344.9c0,3.2,1.8,6.1,5.6,6.1c2.7,0,4.2-1.2,5-3.4h4.3c-1,4.5-4.9,7-9.4,7c-6.5,0-10.1-4.5-10.1-10.9
			c0-5.9,3.8-10.9,10-10.9c6.5,0,10.5,5.9,9.8,12.1H986.6z M997.3,341.9c-0.2-2.9-2.1-5.5-5.2-5.5c-3.2,0-5.3,2.4-5.4,5.5H997.3z"/>
		<path class="st9" d="M1008.9,344.9c0,3.2,1.8,6.1,5.6,6.1c2.7,0,4.2-1.2,5-3.4h4.3c-1,4.5-4.9,7-9.4,7c-6.5,0-10.1-4.5-10.1-10.9
			c0-5.9,3.8-10.9,10-10.9c6.5,0,10.5,5.9,9.8,12.1H1008.9z M1019.5,341.9c-0.2-2.9-2.1-5.5-5.2-5.5c-3.2,0-5.3,2.4-5.4,5.5H1019.5z
			"/>
		<path class="st9" d="M1025.5,333.4h3.4v-6.2h4.6v6.2h4.1v3.4h-4.1v11c0,1.9,0.2,2.8,2.2,2.8c0.6,0,1.3,0,1.9-0.2v3.5
			c-1,0.1-2,0.2-3,0.2c-4.8,0-5.6-1.8-5.7-5.3v-12.2h-3.4V333.4z"/>
		<path class="st9" d="M1041,325.5h4.6v4.3h-4.6V325.5z M1041,333.4h4.6v20.7h-4.6V333.4z"/>
		<path class="st9" d="M1050.5,333.4h4.3v3l0.1,0.1c1.4-2.3,3.7-3.7,6.4-3.7c4.5,0,7.3,2.4,7.3,7v14.2h-4.6v-13
			c-0.1-3.2-1.3-4.6-4-4.6c-3,0-5,2.4-5,5.4v12.2h-4.6V333.4z"/>
		<path class="st9" d="M1092.6,353c0,6.2-3.6,9.3-10.2,9.3c-4.2,0-8.8-1.6-9.2-6.4h4.6c0.6,2.6,2.6,3,5,3c3.7,0,5.3-1.9,5.3-5.3
			v-3.2h-0.1c-1.3,2.3-3.6,3.6-6.2,3.6c-6.6,0-9.3-5-9.3-10.9c0-5.6,3.5-10.4,9.4-10.4c2.6,0,5,1,6.1,3.4h0.1v-2.8h4.6V353z
			 M1088,343.3c0-3.6-1.6-6.8-5.6-6.8c-4,0-5.4,3.8-5.4,7.2c0,3.4,1.6,6.8,5.4,6.8C1086.5,350.5,1088,346.9,1088,343.3z"/>
	</g>
</g>
<g>
	<g>
		<rect x="920.4" y="51.3" class="st8" width="281.2" height="48.1"/>
		<path class="st10" d="M923.1,51.3H934c8.1,0,11.6,5.9,11.6,13.1c0,7.2-3.5,13.1-11.6,13.1h-10.9V51.3z M927.7,73.7h4.5
			c7.2,0,8.7-4.1,8.7-9.4s-1.5-9.4-8.7-9.4h-4.5V73.7z"/>
		<path class="st10" d="M952.3,69.1c0,3,1.6,5.6,5.1,5.6c2.5,0,3.9-1.1,4.6-3.2h4c-0.9,4.1-4.5,6.5-8.6,6.5c-6,0-9.3-4.1-9.3-10
			c0-5.4,3.5-10,9.2-10c6,0,9.6,5.4,9,11.1H952.3z M962.1,66.3c-0.2-2.6-1.9-5-4.8-5c-2.9,0-4.9,2.2-5,5H962.1z"/>
		<path class="st10" d="M972.6,71.4c0.3,2.5,2.1,3.3,4.3,3.3c1.6,0,4.3-0.3,4.2-2.5c-0.1-2.2-3.2-2.5-6.2-3.2
			c-3.1-0.7-6.1-1.8-6.1-5.6c0-4.1,4.5-5.4,7.9-5.4c3.9,0,7.4,1.6,7.9,5.8h-4.4c-0.4-2-2-2.5-3.9-2.5c-1.2,0-3.4,0.3-3.4,1.9
			c0,2.1,3.1,2.4,6.2,3c3,0.7,6.1,1.8,6.1,5.5c0,4.5-4.5,6.2-8.5,6.2c-4.8,0-8.3-2.1-8.4-6.6H972.6z"/>
		<path class="st10" d="M988.6,51.3h4.2v4h-4.2V51.3z M988.6,58.5h4.2v19h-4.2V58.5z"/>
		<path class="st10" d="M1014.9,76.5c0,5.7-3.3,8.5-9.3,8.5c-3.8,0-8.1-1.5-8.5-5.9h4.2c0.5,2.4,2.4,2.8,4.5,2.8
			c3.4,0,4.9-1.7,4.9-4.8v-2.9h-0.1c-1.2,2.1-3.3,3.3-5.7,3.3c-6,0-8.5-4.5-8.5-10c0-5.1,3.2-9.5,8.6-9.5c2.4,0,4.5,1,5.6,3.1h0.1
			v-2.6h4.2V76.5z M1010.7,67.6c0-3.3-1.5-6.3-5.1-6.3c-3.7,0-5,3.4-5,6.6c0,3.1,1.5,6.3,5,6.3C1009.3,74.2,1010.7,70.8,1010.7,67.6
			z"/>
		<path class="st10" d="M1019.1,58.5h4v2.8l0.1,0.1c1.3-2.1,3.4-3.4,5.9-3.4c4.1,0,6.7,2.2,6.7,6.5v13h-4.2V65.6
			c-0.1-3-1.2-4.3-3.7-4.3c-2.8,0-4.6,2.2-4.6,5v11.2h-4.2V58.5z"/>
		<path class="st10" d="M1050.9,51.3h12.5c5.8,0,8.7,2.6,8.7,7.1c0,5-3.4,6.3-4.3,6.6v0.1c1.6,0.2,3.9,1.4,3.9,5.5
			c0,3.1,0.4,5.8,1.4,6.9h-4.9c-0.7-1.1-0.7-2.6-0.7-3.9c0-4.8-1-6.9-5.2-6.9h-6.8v10.8h-4.6V51.3z M1055.5,63.2h7.5
			c2.9,0,4.5-1.4,4.5-4.2c0-3.4-2.2-4-4.5-4h-7.4V63.2z"/>
		<path class="st10" d="M1079.4,69.1c0,3,1.6,5.6,5.1,5.6c2.5,0,3.9-1.1,4.6-3.2h4c-0.9,4.1-4.5,6.5-8.6,6.5c-6,0-9.3-4.1-9.3-10
			c0-5.4,3.5-10,9.2-10c6,0,9.6,5.4,9,11.1H1079.4z M1089.2,66.3c-0.2-2.6-1.9-5-4.8-5c-2.9,0-4.9,2.2-5,5H1089.2z"/>
		<path class="st10" d="M1094.7,58.5h4.5l4.8,14.6h0.1l4.6-14.6h4.3l-6.8,19h-4.7L1094.7,58.5z"/>
		<path class="st10" d="M1115.7,51.3h4.2v4h-4.2V51.3z M1115.7,58.5h4.2v19h-4.2V58.5z"/>
		<path class="st10" d="M1127.7,69.1c0,3,1.6,5.6,5.1,5.6c2.5,0,3.9-1.1,4.6-3.2h4c-0.9,4.1-4.5,6.5-8.6,6.5c-6,0-9.3-4.1-9.3-10
			c0-5.4,3.5-10,9.2-10c6,0,9.6,5.4,9,11.1H1127.7z M1137.4,66.3c-0.2-2.6-1.9-5-4.8-5c-2.9,0-4.9,2.2-5,5H1137.4z"/>
		<path class="st10" d="M1143.1,58.5h4.4l3.7,14.2h0.1l3.6-14.2h4.2l3.4,14.2h0.1l3.9-14.2h4.3l-5.9,19h-4.3l-3.5-14.1h-0.1
			l-3.5,14.1h-4.4L1143.1,58.5z"/>
		<path class="st10" d="M1176.5,71.4c0.3,2.5,2.1,3.3,4.3,3.3c1.6,0,4.3-0.3,4.2-2.5c-0.1-2.2-3.2-2.5-6.2-3.2
			c-3.1-0.7-6.1-1.8-6.1-5.6c0-4.1,4.5-5.4,7.9-5.4c3.9,0,7.4,1.6,7.9,5.8h-4.4c-0.4-2-2-2.5-3.9-2.5c-1.2,0-3.4,0.3-3.4,1.9
			c0,2.1,3.1,2.4,6.2,3c3,0.7,6.1,1.8,6.1,5.5c0,4.5-4.5,6.2-8.5,6.2c-4.8,0-8.3-2.1-8.4-6.6H1176.5z"/>
	</g>
</g>
<g>
	<g>
		<rect x="50" y="903.8" class="st8" width="992.1" height="42"/>
		<path class="st10" d="M70.9,911.5c-0.8-3.6-3.6-5.5-7.2-5.5c-6.1,0-8.7,5-8.7,10.4c0,5.9,2.6,10.8,8.7,10.8c4.5,0,7.1-3.2,7.4-7.4
			h3.4c-0.7,6.4-4.6,10.3-11.1,10.3c-8,0-11.9-5.9-11.9-13.4s4.2-13.5,12.2-13.5c5.4,0,9.8,2.9,10.6,8.4H70.9z"/>
		<path class="st10" d="M78.5,903.8h3.1v25.7h-3.1V903.8z"/>
		<path class="st10" d="M89.5,907.5h-3.1v-3.7h3.1V907.5z M86.5,910.8h3.1v18.6h-3.1V910.8z"/>
		<path class="st10" d="M106.9,916.8c-0.5-2.3-2.1-3.7-4.6-3.7c-4.4,0-5.8,3.5-5.8,7.3c0,3.5,1.5,6.8,5.4,6.8c3,0,4.7-1.7,5.1-4.5
			h3.1c-0.7,4.6-3.5,7.2-8.2,7.2c-5.7,0-8.7-3.9-8.7-9.5c0-5.6,2.9-10,8.8-10c4.2,0,7.6,2,8,6.4H106.9z"/>
		<path class="st10" d="M113.8,903.8h3.1V919l8.5-8.1h4.1l-7.4,6.8l7.9,11.8h-3.9l-6.4-9.7l-2.9,2.7v7.1h-3.1V903.8z"/>
		<path class="st10" d="M150.3,910.4c5.9,0,9,4.3,9,9.8c0,5.4-3.1,9.7-9,9.7s-9-4.3-9-9.7C141.3,914.7,144.4,910.4,150.3,910.4z
			 M150.3,927.2c3.2,0,5.8-2.5,5.8-7c0-4.5-2.6-7.1-5.8-7.1c-3.2,0-5.8,2.6-5.8,7.1C144.5,924.7,147.1,927.2,150.3,927.2z"/>
		<path class="st10" d="M163,910.8h2.9v3h0.1c1.3-2.3,3.3-3.4,6-3.4c4.9,0,6.4,2.8,6.4,6.8v12.2h-3.1v-12.6c0-2.3-1.4-3.7-3.8-3.7
			c-3.7,0-5.5,2.5-5.5,5.8v10.5H163V910.8z"/>
		<path class="st10" d="M209.6,929.5h-3.1v-2.5h-0.1c-1,2.1-3.3,3-5.9,3c-5.7,0-8.6-4.5-8.6-9.8c0-5.3,2.8-9.7,8.5-9.7
			c1.9,0,4.7,0.7,6,2.9h0.1v-9.6h3.1V929.5z M201,927.2c4.1,0,5.7-3.6,5.7-7c0-3.6-1.7-7.1-5.9-7.1c-4.2,0-5.6,3.6-5.6,7.2
			C195.2,923.8,197,927.2,201,927.2z"/>
		<path class="st10" d="M230.2,923.6c-0.8,4.1-3.7,6.3-8,6.3c-5.9,0-8.7-4.1-8.9-9.8c0-5.6,3.7-9.7,8.7-9.7c6.6,0,8.6,6.2,8.4,10.7
			h-13.9c-0.1,3.2,1.7,6.1,5.8,6.1c2.6,0,4.3-1.2,4.8-3.6H230.2z M227.3,918.4c-0.2-2.9-2.3-5.3-5.4-5.3c-3.2,0-5.1,2.4-5.3,5.3
			H227.3z"/>
		<path class="st10" d="M235.5,923.6c0.1,2.7,2.5,3.6,5,3.6c1.9,0,4.5-0.4,4.5-2.8c0-4.8-12.2-1.5-12.2-8.7c0-3.7,3.7-5.3,6.9-5.3
			c4.2,0,7.3,1.3,7.6,5.8h-3.1c-0.2-2.4-2.3-3.1-4.3-3.1c-1.8,0-4,0.5-4,2.4c0,2.2,3.2,2.6,6.1,3.2c3.1,0.7,6.1,1.7,6.1,5.3
			c0,4.5-4.1,5.9-7.9,5.9c-4.2,0-7.7-1.7-7.9-6.3H235.5z"/>
		<path class="st10" d="M254.9,907.5h-3.1v-3.7h3.1V907.5z M251.8,910.8h3.1v18.6h-3.1V910.8z"/>
		<path class="st10" d="M275.7,927.9c0,6.1-2.7,9.1-8.6,9.1c-3.5,0-7.5-1.4-7.7-5.5h3.1c0.1,2.2,2.8,3,4.8,3c4,0,5.6-2.9,5.6-7.1
			v-1.2h-0.1c-1,2.3-3.4,3.4-5.8,3.4c-5.5,0-8.3-4.4-8.3-9.4c0-4.4,2.1-9.8,8.6-9.8c2.3,0,4.4,1,5.5,3.1h0v-2.7h2.9V927.9z
			 M272.7,919.8c0-3.3-1.4-6.7-5.3-6.7c-3.9,0-5.5,3.2-5.5,6.8c0,3.3,1.2,7.1,5.3,7.1C271.2,927,272.7,923.3,272.7,919.8z"/>
		<path class="st10" d="M280.3,910.8h2.9v3h0.1c1.3-2.3,3.3-3.4,6-3.4c4.9,0,6.4,2.8,6.4,6.8v12.2h-3.1v-12.6c0-2.3-1.4-3.7-3.8-3.7
			c-3.7,0-5.5,2.5-5.5,5.8v10.5h-3.1V910.8z"/>
		<path class="st10" d="M310.2,910.8h2.9v3.9h0.1c1.5-3,3.5-4.5,6.8-4.4v3.2c-4.9,0-6.7,2.8-6.7,7.5v8.3h-3.1V910.8z"/>
		<path class="st10" d="M338.2,923.6c-0.8,4.1-3.7,6.3-8,6.3c-5.9,0-8.7-4.1-8.9-9.8c0-5.6,3.7-9.7,8.7-9.7c6.6,0,8.6,6.2,8.4,10.7
			h-13.9c-0.1,3.2,1.7,6.1,5.8,6.1c2.6,0,4.3-1.2,4.8-3.6H338.2z M335.3,918.4c-0.2-2.9-2.3-5.3-5.4-5.3c-3.2,0-5.1,2.4-5.3,5.3
			H335.3z"/>
		<path class="st10" d="M350.1,929.5h-3.3l-6.9-18.6h3.4l5.2,15.5h0.1l5.1-15.5h3.2L350.1,929.5z"/>
		<path class="st10" d="M362.9,907.5h-3.1v-3.7h3.1V907.5z M359.8,910.8h3.1v18.6h-3.1V910.8z"/>
		<path class="st10" d="M383.5,923.6c-0.8,4.1-3.7,6.3-8,6.3c-5.9,0-8.7-4.1-8.9-9.8c0-5.6,3.7-9.7,8.7-9.7c6.6,0,8.6,6.2,8.4,10.7
			h-13.9c-0.1,3.2,1.7,6.1,5.8,6.1c2.6,0,4.3-1.2,4.8-3.6H383.5z M380.6,918.4c-0.2-2.9-2.3-5.3-5.4-5.3c-3.2,0-5.1,2.4-5.3,5.3
			H380.6z"/>
		<path class="st10" d="M405.4,929.5h-3.2l-3.8-14.8h-0.1l-3.7,14.8h-3.3l-6-18.6h3.4l4.2,15.2h0.1l3.7-15.2h3.3l3.9,15.2h0.1
			l4.2-15.2h3.2L405.4,929.5z"/>
		<path class="st10" d="M424.4,903.8h3.1v9.6h0.1c1-2.1,3.3-3,5.9-3c5.7,0,8.6,4.5,8.6,9.8c0,5.3-2.8,9.7-8.5,9.7
			c-1.9,0-4.7-0.7-6-2.9h-0.1v2.5h-3.1V903.8z M433,913.1c-4.1,0-5.7,3.6-5.7,7c0,3.6,1.7,7.1,5.9,7.1c4.2,0,5.6-3.6,5.6-7.2
			C438.8,916.5,437,913.1,433,913.1z"/>
		<path class="st10" d="M461,929.5h-2.9v-3h-0.1c-1.3,2.3-3.3,3.4-6,3.4c-4.9,0-6.4-2.8-6.4-6.8v-12.2h3.1v12.6
			c0,2.3,1.4,3.7,3.8,3.7c3.7,0,5.5-2.5,5.5-5.8v-10.5h3.1V929.5z"/>
		<path class="st10" d="M465.8,903.8h3.1v9.6h0.1c1-2.1,3.3-3,5.9-3c5.7,0,8.6,4.5,8.6,9.8c0,5.3-2.8,9.7-8.5,9.7
			c-1.9,0-4.7-0.7-6-2.9h-0.1v2.5h-3.1V903.8z M474.4,913.1c-4.1,0-5.7,3.6-5.7,7c0,3.6,1.7,7.1,5.9,7.1c4.2,0,5.6-3.6,5.6-7.2
			C480.2,916.5,478.4,913.1,474.4,913.1z"/>
		<path class="st10" d="M487.2,903.8h3.1v25.7h-3.1V903.8z"/>
		<path class="st10" d="M510.9,923.6c-0.8,4.1-3.7,6.3-8,6.3c-5.9,0-8.7-4.1-8.9-9.8c0-5.6,3.7-9.7,8.7-9.7c6.6,0,8.6,6.2,8.4,10.7
			h-13.9c-0.1,3.2,1.7,6.1,5.8,6.1c2.6,0,4.3-1.2,4.8-3.6H510.9z M507.9,918.4c-0.2-2.9-2.3-5.3-5.4-5.3c-3.2,0-5.1,2.4-5.3,5.3
			H507.9z"/>
		<path class="st10" d="M516.2,923.6c0.1,2.7,2.5,3.6,5,3.6c1.9,0,4.5-0.4,4.5-2.8c0-4.8-12.2-1.5-12.2-8.7c0-3.7,3.7-5.3,6.9-5.3
			c4.2,0,7.3,1.3,7.6,5.8H525c-0.2-2.4-2.3-3.1-4.3-3.1c-1.8,0-4,0.5-4,2.4c0,2.2,3.2,2.6,6.1,3.2c3.1,0.7,6.1,1.7,6.1,5.3
			c0,4.5-4.1,5.9-7.9,5.9c-4.2,0-7.7-1.7-7.9-6.3H516.2z"/>
		<path class="st10" d="M543.6,913.5h-3.1v-2.7h3.1v-2.8c0-3,1.8-4.6,5.1-4.6c0.6,0,1.4,0.1,2,0.3v2.7c-0.5-0.2-1.2-0.3-1.7-0.3
			c-1.5,0-2.3,0.5-2.3,2.1v2.6h3.6v2.7h-3.6v15.9h-3.1V913.5z"/>
		<path class="st10" d="M561,910.4c5.9,0,9,4.3,9,9.8c0,5.4-3.1,9.7-9,9.7s-9-4.3-9-9.7C552,914.7,555.1,910.4,561,910.4z
			 M561,927.2c3.2,0,5.8-2.5,5.8-7c0-4.5-2.6-7.1-5.8-7.1c-3.2,0-5.8,2.6-5.8,7.1C555.2,924.7,557.8,927.2,561,927.2z"/>
		<path class="st10" d="M573.5,910.8h2.9v3.9h0.1c1.5-3,3.5-4.5,6.8-4.4v3.2c-4.9,0-6.7,2.8-6.7,7.5v8.3h-3.1V910.8z"/>
		<path class="st10" d="M595.6,910.8h2.9v2.7h0.1c1.4-2.1,3.4-3.2,6-3.2c2.3,0,4.4,0.9,5.1,3.2c1.3-2,3.4-3.2,5.8-3.2
			c3.7,0,6.2,1.5,6.2,5.4v13.6h-3.1v-12.2c0-2.3-0.6-4.1-3.6-4.1s-4.9,1.9-4.9,4.8v11.6h-3.1v-12.2c0-2.4-0.8-4.1-3.5-4.1
			c-3.6,0-5,3.3-5,4.8v11.6h-3.1V910.8z"/>
		<path class="st10" d="M634.4,910.4c5.9,0,9,4.3,9,9.8c0,5.4-3.1,9.7-9,9.7s-9-4.3-9-9.7C625.3,914.7,628.5,910.4,634.4,910.4z
			 M634.4,927.2c3.2,0,5.8-2.5,5.8-7c0-4.5-2.6-7.1-5.8-7.1c-3.2,0-5.8,2.6-5.8,7.1C628.6,924.7,631.2,927.2,634.4,927.2z"/>
		<path class="st10" d="M646.9,910.8h2.9v3.9h0.1c1.5-3,3.5-4.5,6.8-4.4v3.2c-4.9,0-6.7,2.8-6.7,7.5v8.3h-3.1V910.8z"/>
		<path class="st10" d="M674.9,923.6c-0.8,4.1-3.7,6.3-8,6.3c-5.9,0-8.7-4.1-8.9-9.8c0-5.6,3.7-9.7,8.7-9.7c6.6,0,8.6,6.2,8.4,10.7
			h-13.9c-0.1,3.2,1.7,6.1,5.8,6.1c2.6,0,4.3-1.2,4.8-3.6H674.9z M671.9,918.4c-0.2-2.9-2.3-5.3-5.4-5.3c-3.2,0-5.1,2.4-5.3,5.3
			H671.9z"/>
		<path class="st10" d="M691.6,907.5h-3.1v-3.7h3.1V907.5z M688.5,910.8h3.1v18.6h-3.1V910.8z"/>
		<path class="st10" d="M696.3,910.8h2.9v3h0.1c1.3-2.3,3.3-3.4,6-3.4c4.9,0,6.4,2.8,6.4,6.8v12.2h-3.1v-12.6c0-2.3-1.4-3.7-3.8-3.7
			c-3.7,0-5.5,2.5-5.5,5.8v10.5h-3.1V910.8z"/>
		<path class="st10" d="M717.6,913.5h-3.1v-2.7h3.1v-2.8c0-3,1.8-4.6,5.1-4.6c0.6,0,1.4,0.1,2,0.3v2.7c-0.5-0.2-1.2-0.3-1.7-0.3
			c-1.5,0-2.3,0.5-2.3,2.1v2.6h3.6v2.7h-3.6v15.9h-3.1V913.5z"/>
		<path class="st10" d="M735,910.4c5.9,0,9,4.3,9,9.8c0,5.4-3.1,9.7-9,9.7s-9-4.3-9-9.7C726,914.7,729.1,910.4,735,910.4z
			 M735,927.2c3.2,0,5.8-2.5,5.8-7c0-4.5-2.6-7.1-5.8-7.1c-3.2,0-5.8,2.6-5.8,7.1C729.2,924.7,731.8,927.2,735,927.2z"/>
		<path class="st10" d="M747.6,910.8h2.9v3.9h0.1c1.5-3,3.5-4.5,6.8-4.4v3.2c-4.9,0-6.7,2.8-6.7,7.5v8.3h-3.1V910.8z"/>
		<path class="st10" d="M759.7,910.8h2.9v2.7h0.1c1.4-2.1,3.4-3.2,6-3.2c2.3,0,4.4,0.9,5.1,3.2c1.3-2,3.4-3.2,5.8-3.2
			c3.7,0,6.2,1.5,6.2,5.4v13.6h-3.1v-12.2c0-2.3-0.6-4.1-3.6-4.1s-4.9,1.9-4.9,4.8v11.6h-3.1v-12.2c0-2.4-0.8-4.1-3.5-4.1
			c-3.6,0-5,3.3-5,4.8v11.6h-3.1V910.8z"/>
		<path class="st10" d="M806.8,929.4c-0.5,0.3-1.3,0.5-2.2,0.5c-1.6,0-2.6-0.9-2.6-2.9c-1.7,2-4,2.9-6.6,2.9c-3.4,0-6.2-1.5-6.2-5.2
			c0-4.2,3.1-5.1,6.3-5.7c3.3-0.7,6.3-0.4,6.3-2.7c0-2.7-2.2-3.1-4.1-3.1c-2.6,0-4.5,0.8-4.6,3.5h-3.1c0.2-4.6,3.7-6.2,7.9-6.2
			c3.3,0,7,0.8,7,5.1v9.6c0,1.4,0,2.1,1,2.1c0.3,0,0.6-0.1,0.9-0.2V929.4z M801.9,919.8c-2.4,1.8-9.3,0-9.3,4.6c0,2,1.7,2.7,3.6,2.7
			c4,0,5.7-2.5,5.7-4.2V919.8z"/>
		<path class="st10" d="M813.9,910.8h3.7v2.7h-3.7v11.6c0,1.4,0.4,1.7,2.3,1.7h1.4v2.7h-2.3c-3.2,0-4.4-0.6-4.4-4.1v-11.8h-3.2v-2.7
			h3.2v-5.6h3.1V910.8z"/>
		<path class="st10" d="M824.3,907.5h-3.1v-3.7h3.1V907.5z M821.2,910.8h3.1v18.6h-3.1V910.8z"/>
		<path class="st10" d="M837.1,910.4c5.9,0,9,4.3,9,9.8c0,5.4-3.1,9.7-9,9.7s-9-4.3-9-9.7C828,914.7,831.1,910.4,837.1,910.4z
			 M837.1,927.2c3.2,0,5.8-2.5,5.8-7c0-4.5-2.6-7.1-5.8-7.1c-3.2,0-5.8,2.6-5.8,7.1C831.3,924.7,833.8,927.2,837.1,927.2z"/>
		<path class="st10" d="M849.7,910.8h2.9v3h0.1c1.3-2.3,3.3-3.4,6-3.4c4.9,0,6.4,2.8,6.4,6.8v12.2H862v-12.6c0-2.3-1.4-3.7-3.8-3.7
			c-3.7,0-5.5,2.5-5.5,5.8v10.5h-3.1V910.8z"/>
	</g>
</g>
<g>
	<g>
		<rect x="1352.7" y="50.7" class="st8" width="706.7" height="48.1"/>
		<path class="st10" d="M1358.5,68.2c0,4,3,5.6,6.6,5.6c4,0,5.5-2,5.5-4c0-2-1.1-2.8-2.2-3.2c-1.9-0.7-4.2-1.2-7.8-2.2
			c-4.5-1.2-5.8-3.9-5.8-6.6c0-5.3,4.8-7.7,9.6-7.7c5.4,0,10.1,2.9,10.1,8.4h-4.6c-0.3-3.4-2.5-4.6-5.6-4.6c-2.1,0-4.8,0.8-4.8,3.4
			c0,1.9,1.2,2.8,3.1,3.4c0.4,0.1,6.2,1.6,7.6,2c3.4,1.1,5.1,3.9,5.1,6.7c0,5.9-5.2,8.2-10.4,8.2c-6,0-10.8-2.9-10.9-9.4H1358.5z"/>
		<path class="st10" d="M1376.8,58h3.2v-5.7h4.2V58h3.8v3.1h-3.8v10.1c0,1.7,0.1,2.6,2,2.6c0.6,0,1.2,0,1.8-0.1v3.2
			c-0.9,0.1-1.8,0.2-2.7,0.2c-4.4,0-5.1-1.7-5.2-4.8V61.1h-3.2V58z"/>
		<path class="st10" d="M1394.2,68.5c0,3,1.6,5.6,5.1,5.6c2.5,0,3.9-1.1,4.6-3.2h4c-0.9,4.1-4.5,6.5-8.6,6.5c-6,0-9.3-4.1-9.3-10
			c0-5.4,3.5-10,9.2-10c6,0,9.6,5.4,9,11.1H1394.2z M1403.9,65.8c-0.2-2.6-1.9-5-4.8-5c-2.9,0-4.9,2.2-5,5H1403.9z"/>
		<path class="st10" d="M1411.4,58h4v2.6h0.1c1.2-2.2,3.4-3.1,5.9-3.1c6,0,8.9,4.5,8.9,10.1c0,5.1-2.6,9.9-8.2,9.9
			c-2.4,0-5.1-0.9-6.3-3h-0.1v9.5h-4.2V58z M1420.8,60.8c-3.5,0-5.3,2.6-5.3,6.7c0,3.8,1.9,6.7,5.3,6.7c3.8,0,5.2-3.4,5.2-6.7
			C1426,64.1,1424.2,60.8,1420.8,60.8z"/>
		<path class="st10" d="M1436.9,70.8c0.3,2.5,2.1,3.3,4.3,3.3c1.6,0,4.3-0.3,4.2-2.5c-0.1-2.2-3.2-2.5-6.2-3.2
			c-3.1-0.7-6.1-1.8-6.1-5.6c0-4.1,4.5-5.4,7.9-5.4c3.9,0,7.4,1.6,7.9,5.8h-4.4c-0.4-2-2-2.5-3.9-2.5c-1.2,0-3.4,0.3-3.4,1.9
			c0,2.1,3.1,2.4,6.2,3c3,0.7,6.1,1.8,6.1,5.5c0,4.5-4.5,6.2-8.5,6.2c-4.8,0-8.3-2.1-8.4-6.6H1436.9z"/>
		<path class="st10" d="M1462.1,67.4c0-5.8,3.5-10,9.6-10s9.6,4.2,9.6,10c0,5.8-3.5,10-9.6,10S1462.1,73.3,1462.1,67.4z M1477,67.4
			c0-3.3-1.7-6.7-5.4-6.7s-5.4,3.4-5.4,6.7c0,3.3,1.7,6.7,5.4,6.7S1477,70.7,1477,67.4z"/>
		<path class="st10" d="M1497.5,64.3c-0.3-2.3-2-3.6-4.3-3.6c-2.2,0-5.2,1.2-5.2,6.9c0,3.2,1.4,6.5,5,6.5c2.5,0,4.1-1.6,4.5-4.3h4.2
			c-0.8,5-3.8,7.6-8.7,7.6c-5.9,0-9.2-4.2-9.2-9.8c0-5.7,3.1-10.2,9.4-10.2c4.4,0,8.1,2.2,8.5,6.9H1497.5z"/>
		<path class="st10" d="M1517.9,64.3c-0.3-2.3-2-3.6-4.3-3.6c-2.2,0-5.2,1.2-5.2,6.9c0,3.2,1.4,6.5,5,6.5c2.5,0,4.1-1.6,4.5-4.3h4.2
			c-0.8,5-3.8,7.6-8.7,7.6c-5.9,0-9.2-4.2-9.2-9.8c0-5.7,3.1-10.2,9.4-10.2c4.4,0,8.1,2.2,8.5,6.9H1517.9z"/>
		<path class="st10" d="M1542.2,76.9h-4.1v-2.6h-0.1c-1,1.9-3.3,3.2-5.4,3.2c-5,0-7.1-2.5-7.1-7.4V58h4.2v11.6
			c0,3.3,1.3,4.5,3.6,4.5c3.5,0,4.7-2.2,4.7-5.2V58h4.2V76.9z"/>
		<path class="st10" d="M1546.6,58h3.9v3.7h0.1c0.5-2,3-4.2,5.5-4.2c1,0,1.2,0.1,1.6,0.1v4c-0.6-0.1-1.2-0.2-1.8-0.2
			c-2.8,0-5.1,2.3-5.1,6.5v9h-4.2V58z"/>
		<path class="st10" d="M1569.8,50.7h4.2v4h-4.2V50.7z M1569.8,58h4.2v19h-4.2V58z"/>
		<path class="st10" d="M1576.6,58h3.2v-5.7h4.2V58h3.8v3.1h-3.8v10.1c0,1.7,0.1,2.6,2,2.6c0.6,0,1.2,0,1.8-0.1v3.2
			c-0.9,0.1-1.8,0.2-2.7,0.2c-4.4,0-5.1-1.7-5.2-4.8V61.1h-3.2V58z"/>
		<path class="st10" d="M1594,68.5c0,3,1.6,5.6,5.1,5.6c2.5,0,3.9-1.1,4.6-3.2h4c-0.9,4.1-4.5,6.5-8.6,6.5c-6,0-9.3-4.1-9.3-10
			c0-5.4,3.5-10,9.2-10c6,0,9.6,5.4,9,11.1H1594z M1603.8,65.8c-0.2-2.6-1.9-5-4.8-5c-2.9,0-4.9,2.2-5,5H1603.8z"/>
		<path class="st10" d="M1611.1,58h3.9v3.7h0.1c0.5-2,3-4.2,5.5-4.2c1,0,1.2,0.1,1.6,0.1v4c-0.6-0.1-1.2-0.2-1.8-0.2
			c-2.8,0-5.1,2.3-5.1,6.5v9h-4.2V58z"/>
		<path class="st10" d="M1639.9,72.7c0,1,0.2,1.4,1,1.4h0.4c0.2,0,0.4,0,0.6-0.1V77c-0.6,0.2-1.9,0.5-2.6,0.5
			c-1.7,0-2.9-0.6-3.2-2.3c-1.7,1.6-4.3,2.3-6.6,2.3c-3.4,0-6.5-1.8-6.5-5.5c0-4.7,3.8-5.5,7.3-5.9c3-0.6,5.7-0.2,5.7-2.7
			c0-2.2-2.3-2.6-3.9-2.6c-2.3,0-4,1-4.2,3h-4.2c0.3-4.9,4.4-6.3,8.6-6.3c3.7,0,7.6,1.5,7.6,5.5V72.7z M1635.7,67.4
			c-1.3,0.8-3.3,0.8-5.1,1.1c-1.8,0.3-3.4,1-3.4,3.2c0,1.9,2.4,2.4,3.9,2.4c1.8,0,4.7-1,4.7-3.6V67.4z"/>
		<path class="st10" d="M1642.5,58h3.2v-5.7h4.2V58h3.8v3.1h-3.8v10.1c0,1.7,0.1,2.6,2,2.6c0.6,0,1.2,0,1.8-0.1v3.2
			c-0.9,0.1-1.8,0.2-2.7,0.2c-4.4,0-5.1-1.7-5.2-4.8V61.1h-3.2V58z"/>
		<path class="st10" d="M1656.8,50.7h4.2v4h-4.2V50.7z M1656.8,58h4.2v19h-4.2V58z"/>
		<path class="st10" d="M1663.6,58h4.5l4.8,14.6h0.1l4.6-14.6h4.3l-6.8,19h-4.7L1663.6,58z"/>
		<path class="st10" d="M1687.8,68.5c0,3,1.6,5.6,5.1,5.6c2.5,0,3.9-1.1,4.6-3.2h4c-0.9,4.1-4.5,6.5-8.6,6.5c-6,0-9.3-4.1-9.3-10
			c0-5.4,3.5-10,9.2-10c6,0,9.6,5.4,9,11.1H1687.8z M1697.6,65.8c-0.2-2.6-1.9-5-4.8-5c-2.9,0-4.9,2.2-5,5H1697.6z"/>
		<path class="st10" d="M1705,50.7h4.2v26.2h-4.2V50.7z"/>
		<path class="st10" d="M1711.7,58h4.6l5,14.2h0.1l4.8-14.2h4.4l-7.4,20c-1.4,3.4-2.3,6.5-6.7,6.5c-1,0-1.9-0.1-2.9-0.2v-3.5
			c0.7,0.1,1.3,0.3,2,0.3c1.9,0,2.5-1,2.9-2.6l0.5-1.5L1711.7,58z"/>
		<path class="st10" d="M1741.3,58h4.4l3.7,14.2h0.1l3.6-14.2h4.2l3.4,14.2h0.1l3.9-14.2h4.3l-5.9,19h-4.3l-3.5-14.1h-0.1l-3.5,14.1
			h-4.4L1741.3,58z"/>
		<path class="st10" d="M1771.7,50.7h4.2v4h-4.2V50.7z M1771.7,58h4.2v19h-4.2V58z"/>
		<path class="st10" d="M1778.5,58h3.2v-5.7h4.2V58h3.8v3.1h-3.8v10.1c0,1.7,0.1,2.6,2,2.6c0.6,0,1.2,0,1.8-0.1v3.2
			c-0.9,0.1-1.8,0.2-2.7,0.2c-4.4,0-5.1-1.7-5.2-4.8V61.1h-3.2V58z"/>
		<path class="st10" d="M1792.6,50.7h4.2v9.7h0.1c1-1.7,3.2-3,5.7-3c4.1,0,6.7,2.2,6.7,6.5v13h-4.2V65c-0.1-3-1.2-4.3-3.7-4.3
			c-2.8,0-4.6,2.2-4.6,5v11.2h-4.2V50.7z"/>
		<path class="st10" d="M1813.8,50.7h4.2v4h-4.2V50.7z M1813.8,58h4.2v19h-4.2V58z"/>
		<path class="st10" d="M1822.5,58h4v2.8l0.1,0.1c1.3-2.1,3.4-3.4,5.9-3.4c4.1,0,6.7,2.2,6.7,6.5v13h-4.2V65c-0.1-3-1.2-4.3-3.7-4.3
			c-2.8,0-4.6,2.2-4.6,5v11.2h-4.2V58z"/>
		<path class="st10" d="M1851.8,58h3.2v-5.7h4.2V58h3.8v3.1h-3.8v10.1c0,1.7,0.1,2.6,2,2.6c0.6,0,1.2,0,1.8-0.1v3.2
			c-0.9,0.1-1.8,0.2-2.7,0.2c-4.4,0-5.1-1.7-5.2-4.8V61.1h-3.2V58z"/>
		<path class="st10" d="M1866,50.7h4.2v9.7h0.1c1-1.7,3.2-3,5.7-3c4.1,0,6.7,2.2,6.7,6.5v13h-4.2V65c-0.1-3-1.2-4.3-3.7-4.3
			c-2.8,0-4.6,2.2-4.6,5v11.2h-4.2V50.7z"/>
		<path class="st10" d="M1887.1,50.7h4.2v4h-4.2V50.7z M1887.1,58h4.2v19h-4.2V58z"/>
		<path class="st10" d="M1899,70.8c0.3,2.5,2.1,3.3,4.3,3.3c1.6,0,4.3-0.3,4.2-2.5c-0.1-2.2-3.2-2.5-6.2-3.2
			c-3.1-0.7-6.1-1.8-6.1-5.6c0-4.1,4.5-5.4,7.9-5.4c3.9,0,7.4,1.6,7.9,5.8h-4.4c-0.4-2-2-2.5-3.9-2.5c-1.2,0-3.4,0.3-3.4,1.9
			c0,2.1,3.1,2.4,6.2,3c3,0.7,6.1,1.8,6.1,5.5c0,4.5-4.5,6.2-8.5,6.2c-4.8,0-8.3-2.1-8.4-6.6H1899z"/>
		<path class="st10" d="M1923.2,58h3.1v-1.6c0-4.8,2.5-5.6,5.2-5.6c1.4,0,2.3,0.1,2.9,0.3v3.3c-0.5-0.1-1.1-0.2-1.9-0.2
			c-1.1,0-2.1,0.4-2.1,2V58h3.6v3.1h-3.6v15.8h-4.2V61.1h-3.1V58z M1936.8,50.7h4.2v26.2h-4.2V50.7z"/>
		<path class="st10" d="M1944.6,67.4c0-5.8,3.5-10,9.6-10s9.6,4.2,9.6,10c0,5.8-3.5,10-9.6,10S1944.6,73.3,1944.6,67.4z
			 M1959.6,67.4c0-3.3-1.7-6.7-5.4-6.7s-5.4,3.4-5.4,6.7c0,3.3,1.7,6.7,5.4,6.7S1959.6,70.7,1959.6,67.4z"/>
		<path class="st10" d="M1965.5,58h4.4l3.7,14.2h0.1l3.6-14.2h4.2l3.4,14.2h0.1l3.9-14.2h4.3l-5.9,19h-4.3l-3.5-14.1h-0.1l-3.5,14.1
			h-4.4L1965.5,58z"/>
	</g>
</g>
<g>
	<g>
		<rect x="1264.2" y="277.5" class="st8" width="308.8" height="98.5"/>
		<path class="st9" d="M1291.3,277.5h11.8c8.8,0,12.6,6.4,12.6,14.3c0,7.9-3.8,14.3-12.6,14.3h-11.8V277.5z M1296.3,302h4.9
			c7.8,0,9.5-4.4,9.5-10.2c0-5.8-1.7-10.2-9.5-10.2h-4.9V302z"/>
		<path class="st9" d="M1323.1,296.9c0,3.2,1.8,6.1,5.6,6.1c2.7,0,4.2-1.2,5-3.4h4.3c-1,4.5-4.9,7-9.4,7c-6.5,0-10.1-4.5-10.1-10.9
			c0-5.9,3.8-10.9,10-10.9c6.5,0,10.5,5.9,9.8,12.1H1323.1z M1333.7,293.9c-0.2-2.9-2.1-5.5-5.2-5.5c-3.2,0-5.3,2.4-5.4,5.5H1333.7z
			"/>
		<path class="st9" d="M1345.2,299.5c0.3,2.7,2.2,3.6,4.7,3.6c1.8,0,4.7-0.4,4.6-2.7c-0.1-2.4-3.4-2.7-6.8-3.4
			c-3.4-0.7-6.6-1.9-6.6-6.1c0-4.5,4.9-5.9,8.6-5.9c4.2,0,8.1,1.7,8.6,6.4h-4.8c-0.4-2.2-2.2-2.8-4.2-2.8c-1.3,0-3.8,0.3-3.8,2.1
			c0,2.2,3.4,2.6,6.7,3.3c3.3,0.8,6.7,2,6.7,6c0,4.9-5,6.7-9.2,6.7c-5.2,0-9-2.3-9.2-7.2H1345.2z"/>
		<path class="st9" d="M1362.6,277.5h4.6v4.3h-4.6V277.5z M1362.6,285.4h4.6v20.7h-4.6V285.4z"/>
		<path class="st9" d="M1391.3,305c0,6.2-3.6,9.3-10.2,9.3c-4.2,0-8.8-1.6-9.2-6.4h4.6c0.6,2.6,2.6,3,5,3c3.7,0,5.3-1.9,5.3-5.3
			v-3.2h-0.1c-1.3,2.3-3.6,3.6-6.2,3.6c-6.6,0-9.3-5-9.3-10.9c0-5.6,3.5-10.4,9.4-10.4c2.6,0,5,1,6.1,3.4h0.1v-2.8h4.6V305z
			 M1386.7,295.3c0-3.6-1.6-6.8-5.6-6.8c-4,0-5.4,3.8-5.4,7.2c0,3.4,1.6,6.8,5.4,6.8C1385.2,302.5,1386.7,298.9,1386.7,295.3z"/>
		<path class="st9" d="M1395.9,285.4h4.3v3l0.1,0.1c1.4-2.3,3.7-3.7,6.4-3.7c4.5,0,7.3,2.4,7.3,7v14.2h-4.6v-13
			c-0.1-3.2-1.3-4.6-4-4.6c-3,0-5,2.4-5,5.4v12.2h-4.6V285.4z"/>
		<path class="st9" d="M1419.2,300.7h5.6v5.4c0,3.3-2.2,5.7-5.4,6.3V310c1.8-0.4,2.6-2.2,2.6-3.9h-2.8V300.7z"/>
		<path class="st9" d="M1461,286.6c-0.8-3.3-3-5.7-7.1-5.7c-6.1,0-8.7,5.4-8.7,10.9c0,5.5,2.6,10.9,8.7,10.9c4.5,0,6.8-3.3,7.3-7.5
			h4.9c-0.4,6.8-5.2,11.6-12.2,11.6c-8.5,0-13.7-6.8-13.7-15c0-8.1,5.2-15,13.7-15c6.5,0,11.5,3.6,12.1,9.8H1461z"/>
		<path class="st9" d="M1469,295.7c0-6.3,3.8-10.9,10.4-10.9s10.4,4.6,10.4,10.9c0,6.4-3.8,10.9-10.4,10.9S1469,302.1,1469,295.7z
			 M1485.3,295.7c0-3.6-1.8-7.3-5.9-7.3s-5.9,3.7-5.9,7.3c0,3.6,1.8,7.3,5.9,7.3S1485.3,299.3,1485.3,295.7z"/>
		<path class="st9" d="M1513.2,306.1h-4.3v-2.8h-0.1c-1.2,2.4-3.8,3.4-6.4,3.4c-6.5,0-9.7-4.8-9.7-11c0-7.5,4.4-10.8,9-10.8
			c2.6,0,5.5,1,6.9,3.2h0.1v-10.6h4.6V306.1z M1503,303.1c4,0,5.8-3.7,5.8-7.3c0-4.6-2.2-7.3-5.7-7.3c-4.3,0-5.8,3.8-5.8,7.5
			C1497.2,299.5,1499,303.1,1503,303.1z"/>
		<path class="st9" d="M1521.7,296.9c0,3.2,1.8,6.1,5.6,6.1c2.7,0,4.2-1.2,5-3.4h4.3c-1,4.5-4.9,7-9.4,7c-6.5,0-10.1-4.5-10.1-10.9
			c0-5.9,3.8-10.9,10-10.9c6.5,0,10.5,5.9,9.8,12.1H1521.7z M1532.3,293.9c-0.2-2.9-2.1-5.5-5.2-5.5c-3.2,0-5.3,2.4-5.4,5.5H1532.3z
			"/>
		<path class="st9" d="M1540.7,300.7h5.6v5.4c0,3.3-2.2,5.7-5.4,6.3V310c1.8-0.4,2.6-2.2,2.6-3.9h-2.8V300.7z"/>
		<path class="st9" d="M1340.6,325.5h5v16.6c0,3.8,0.2,8.3,6.7,8.3s6.7-4.4,6.7-8.3v-16.6h5v18.3c0,7.3-4.7,11-11.7,11
			s-11.7-3.6-11.7-11V325.5z"/>
		<path class="st9" d="M1369.2,333.4h4.3v3l0.1,0.1c1.4-2.3,3.7-3.7,6.4-3.7c4.5,0,7.3,2.4,7.3,7v14.2h-4.6v-13
			c-0.1-3.2-1.3-4.6-4-4.6c-3,0-5,2.4-5,5.4v12.2h-4.6V333.4z"/>
		<path class="st9" d="M1392.3,325.5h4.6v4.3h-4.6V325.5z M1392.3,333.4h4.6v20.7h-4.6V333.4z"/>
		<path class="st9" d="M1399.7,333.4h3.4v-6.2h4.6v6.2h4.1v3.4h-4.1v11c0,1.9,0.2,2.8,2.2,2.8c0.6,0,1.3,0,1.9-0.2v3.5
			c-1,0.1-2,0.2-3,0.2c-4.8,0-5.6-1.8-5.7-5.3v-12.2h-3.4V333.4z"/>
		<path class="st9" d="M1424.1,325.5h23.1v4.3h-9.1v24.2h-5v-24.2h-9V325.5z"/>
		<path class="st9" d="M1449.1,344.9c0,3.2,1.8,6.1,5.6,6.1c2.7,0,4.2-1.2,5-3.4h4.3c-1,4.5-4.9,7-9.4,7c-6.5,0-10.1-4.5-10.1-10.9
			c0-5.9,3.8-10.9,10-10.9c6.5,0,10.5,5.9,9.8,12.1H1449.1z M1459.7,341.9c-0.2-2.9-2.1-5.5-5.2-5.5c-3.2,0-5.3,2.4-5.4,5.5H1459.7z
			"/>
		<path class="st9" d="M1471.2,347.5c0.3,2.7,2.2,3.6,4.7,3.6c1.8,0,4.7-0.4,4.6-2.7c-0.1-2.4-3.4-2.7-6.8-3.4
			c-3.4-0.7-6.6-1.9-6.6-6.1c0-4.5,4.9-5.9,8.6-5.9c4.2,0,8.1,1.7,8.6,6.4h-4.8c-0.4-2.2-2.2-2.8-4.2-2.8c-1.3,0-3.8,0.3-3.8,2.1
			c0,2.2,3.4,2.6,6.7,3.3c3.3,0.8,6.7,2,6.7,6c0,4.9-5,6.7-9.2,6.7c-5.2,0-9-2.3-9.2-7.2H1471.2z"/>
		<path class="st9" d="M1486.4,333.4h3.4v-6.2h4.6v6.2h4.1v3.4h-4.1v11c0,1.9,0.2,2.8,2.2,2.8c0.6,0,1.3,0,1.9-0.2v3.5
			c-1,0.1-2,0.2-3,0.2c-4.8,0-5.6-1.8-5.7-5.3v-12.2h-3.4V333.4z"/>
	</g>
</g>
<g>
	<g>
		<g>
			<path class="st9" d="M1648.9,300.9h5v28.6h-5V300.9z"/>
			<path class="st9" d="M1659.4,308.8h4.3v3l0.1,0.1c1.4-2.3,3.7-3.7,6.4-3.7c4.5,0,7.3,2.4,7.3,7v14.2h-4.6v-13
				c-0.1-3.2-1.3-4.6-4-4.6c-3,0-5,2.4-5,5.4v12.2h-4.6V308.8z"/>
			<path class="st9" d="M1680.3,308.8h3.4v-6.2h4.6v6.2h4.1v3.4h-4.1v11c0,1.9,0.2,2.8,2.2,2.8c0.6,0,1.3,0,1.9-0.2v3.5
				c-1,0.1-2,0.2-3,0.2c-4.8,0-5.6-1.8-5.7-5.3v-12.2h-3.4V308.8z"/>
			<path class="st9" d="M1699.2,320.3c0,3.2,1.8,6.1,5.6,6.1c2.7,0,4.2-1.2,5-3.4h4.3c-1,4.5-4.9,7-9.4,7c-6.5,0-10.1-4.5-10.1-10.9
				c0-5.9,3.8-10.9,10-10.9c6.5,0,10.5,5.9,9.8,12.1H1699.2z M1709.8,317.3c-0.2-2.9-2.1-5.5-5.2-5.5c-3.2,0-5.3,2.4-5.4,5.5H1709.8
				z"/>
			<path class="st9" d="M1737,328.4c0,6.2-3.6,9.3-10.2,9.3c-4.2,0-8.8-1.6-9.2-6.4h4.6c0.6,2.6,2.6,3,5,3c3.7,0,5.3-1.9,5.3-5.3
				v-3.2h-0.1c-1.3,2.3-3.6,3.6-6.2,3.6c-6.6,0-9.3-5-9.3-10.9c0-5.6,3.5-10.4,9.4-10.4c2.6,0,5,1,6.1,3.4h0.1v-2.8h4.6V328.4z
				 M1732.4,318.6c0-3.6-1.6-6.8-5.6-6.8c-4,0-5.4,3.8-5.4,7.2c0,3.4,1.6,6.8,5.4,6.8C1730.9,325.8,1732.4,322.2,1732.4,318.6z"/>
			<path class="st9" d="M1741.6,308.8h4.3v4h0.1c0.5-2.2,3.3-4.6,6-4.6c1.1,0,1.3,0.1,1.7,0.1v4.4c-0.6-0.1-1.3-0.2-2-0.2
				c-3.1,0-5.6,2.5-5.6,7.1v9.8h-4.6V308.8z"/>
			<path class="st9" d="M1773,324.8c0,1.1,0.2,1.6,1.1,1.6h0.5c0.2,0,0.4,0,0.6-0.1v3.2c-0.7,0.2-2.1,0.5-2.9,0.5
				c-1.9,0-3.2-0.6-3.5-2.5c-1.8,1.8-4.7,2.5-7.2,2.5c-3.7,0-7.1-2-7.1-6c0-5.2,4.1-6,8-6.4c3.3-0.6,6.2-0.2,6.2-2.9
				c0-2.4-2.5-2.8-4.3-2.8c-2.6,0-4.4,1-4.6,3.3h-4.6c0.3-5.3,4.8-6.9,9.4-6.9c4,0,8.3,1.6,8.3,6V324.8z M1768.4,319.1
				c-1.4,0.9-3.6,0.9-5.6,1.2c-2,0.3-3.7,1-3.7,3.4c0,2.1,2.6,2.6,4.2,2.6c2,0,5.1-1,5.1-3.9V319.1z"/>
			<path class="st9" d="M1775.8,308.8h3.4v-6.2h4.6v6.2h4.1v3.4h-4.1v11c0,1.9,0.2,2.8,2.2,2.8c0.6,0,1.3,0,1.9-0.2v3.5
				c-1,0.1-2,0.2-3,0.2c-4.8,0-5.6-1.8-5.7-5.3v-12.2h-3.4V308.8z"/>
			<path class="st9" d="M1794.8,320.3c0,3.2,1.8,6.1,5.6,6.1c2.7,0,4.2-1.2,5-3.4h4.3c-1,4.5-4.9,7-9.4,7c-6.5,0-10.1-4.5-10.1-10.9
				c0-5.9,3.8-10.9,10-10.9c6.5,0,10.5,5.9,9.8,12.1H1794.8z M1805.4,317.3c-0.2-2.9-2.1-5.5-5.2-5.5c-3.2,0-5.3,2.4-5.4,5.5H1805.4
				z"/>
			<path class="st9" d="M1840.5,326.2c-2.1,2.6-4.6,3.8-8,3.8c-5.3,0-9-3.2-9-8.5c0-4,3.2-6.6,6.6-8.3c-1.5-1.9-2.9-3.7-2.9-6.2
				c0-4.1,3.1-6.8,7-6.8c3.7,0,7.1,2.2,7.1,6.8c0,3.4-2.4,5.8-5.2,7.2l4.4,5.4c0.3-0.9,0.7-2,0.9-3.8h4c-0.3,2.5-1,5-2.2,7l5.5,6.6
				h-5.6L1840.5,326.2z M1832.4,316.2c-1.7,1-4.4,2-4.4,5.4c0,3.1,1.9,4.8,4.6,4.8c3.3,0,4.6-2,5.4-3.2L1832.4,316.2z M1831.2,306.8
				c0,1.9,1.5,3.4,2.6,4.8c1.7-1.2,3.4-2.4,3.4-4.6c0-1.9-1.2-3.3-2.9-3.3C1832.6,303.6,1831.2,304.8,1831.2,306.8z"/>
			<path class="st9" d="M1862.3,300.9h13.9c5.1,0,8.5,2.3,8.5,7.1c0,2.9-1.5,5-4.1,6.1v0.1c3.5,0.8,5.4,3.5,5.4,7.4
				c0,4.5-3.1,8-10.5,8h-13.1V300.9z M1867.3,312.8h8.2c2.4,0,4.2-1.4,4.2-4c0-2.9-1.5-3.9-4.2-3.9h-8.2V312.8z M1867.3,325.4h8.8
				c3,0,4.8-1.6,4.8-4.5c0-2.8-1.8-4.4-4.8-4.4h-8.8V325.4z"/>
			<path class="st9" d="M1908,329.4h-4.5v-2.9h-0.1c-1.1,2.1-3.6,3.4-5.9,3.4c-5.4,0-7.7-2.7-7.7-8.1v-13.1h4.6v12.7
				c0,3.6,1.4,5,4,5c3.8,0,5.1-2.4,5.1-5.6v-12h4.6V329.4z"/>
			<path class="st9" d="M1912.9,300.9h4.6v4.3h-4.6V300.9z M1912.9,308.8h4.6v20.7h-4.6V308.8z"/>
			<path class="st9" d="M1922.5,300.9h4.6v28.6h-4.6V300.9z"/>
			<path class="st9" d="M1951.5,329.4h-4.3v-2.8h-0.1c-1.2,2.4-3.8,3.4-6.4,3.4c-6.5,0-9.7-4.8-9.7-11c0-7.5,4.4-10.8,9-10.8
				c2.6,0,5.5,1,6.9,3.2h0.1v-10.6h4.6V329.4z M1941.3,326.4c4,0,5.8-3.7,5.8-7.3c0-4.6-2.2-7.3-5.7-7.3c-4.3,0-5.8,3.8-5.8,7.5
				C1935.6,322.9,1937.4,326.4,1941.3,326.4z"/>
		</g>
	</g>
</g>
<g>
	<rect x="41.5" y="662.8" class="st8" width="308.8" height="98.5"/>
	<path class="st9" d="M125.2,662.8h13.6c6.3,0,9.4,2.9,9.4,7.7c0,5.5-3.8,6.9-4.7,7.2v0.1c1.7,0.2,4.2,1.6,4.2,6
		c0,3.4,0.5,6.4,1.6,7.5H144c-0.8-1.2-0.8-2.8-0.8-4.2c0-5.2-1.1-7.6-5.7-7.6h-7.4v11.8h-5V662.8z M130.2,675.8h8.2
		c3.2,0,4.9-1.5,4.9-4.6c0-3.7-2.4-4.4-5-4.4h-8.1V675.8z"/>
	<path class="st9" d="M156.2,682.2c0,3.2,1.8,6.1,5.6,6.1c2.7,0,4.2-1.2,5-3.4h4.3c-1,4.5-4.9,7-9.4,7c-6.5,0-10.1-4.5-10.1-10.9
		c0-5.9,3.8-10.9,10-10.9c6.5,0,10.5,5.9,9.8,12.1H156.2z M166.9,679.2c-0.2-2.9-2.1-5.5-5.2-5.5c-3.2,0-5.3,2.4-5.4,5.5H166.9z"/>
	<path class="st9" d="M175,662.8h4.6v28.6H175V662.8z"/>
	<path class="st9" d="M188.1,682.2c0,3.2,1.8,6.1,5.6,6.1c2.7,0,4.2-1.2,5-3.4h4.3c-1,4.5-4.9,7-9.4,7c-6.5,0-10.1-4.5-10.1-10.9
		c0-5.9,3.8-10.9,10-10.9c6.5,0,10.5,5.9,9.8,12.1H188.1z M198.8,679.2c-0.2-2.9-2.1-5.5-5.2-5.5c-3.2,0-5.3,2.4-5.4,5.5H198.8z"/>
	<path class="st9" d="M224.1,686.7c0,1.1,0.2,1.6,1.1,1.6h0.5c0.2,0,0.4,0,0.6-0.1v3.2c-0.7,0.2-2.1,0.5-2.9,0.5
		c-1.9,0-3.2-0.6-3.5-2.5c-1.8,1.8-4.7,2.5-7.2,2.5c-3.7,0-7.1-2-7.1-6c0-5.2,4.1-6,8-6.4c3.3-0.6,6.2-0.2,6.2-2.9
		c0-2.4-2.5-2.8-4.3-2.8c-2.6,0-4.4,1-4.6,3.3h-4.6c0.3-5.3,4.8-6.9,9.4-6.9c4,0,8.3,1.6,8.3,6V686.7z M219.6,681
		c-1.4,0.9-3.6,0.9-5.6,1.2c-2,0.3-3.7,1-3.7,3.4c0,2.1,2.6,2.6,4.2,2.6c2,0,5.1-1,5.1-3.9V681z"/>
	<path class="st9" d="M232.5,684.7c0.3,2.7,2.2,3.6,4.7,3.6c1.8,0,4.7-0.4,4.6-2.7c-0.1-2.4-3.4-2.7-6.8-3.4
		c-3.4-0.7-6.6-1.9-6.6-6.1c0-4.5,4.9-5.9,8.6-5.9c4.2,0,8.1,1.7,8.6,6.4h-4.8c-0.4-2.2-2.2-2.8-4.2-2.8c-1.3,0-3.8,0.3-3.8,2.1
		c0,2.2,3.4,2.6,6.7,3.3c3.3,0.8,6.7,2,6.7,6c0,4.9-5,6.7-9.2,6.7c-5.2,0-9-2.3-9.2-7.2H232.5z"/>
	<path class="st9" d="M253.4,682.2c0,3.2,1.8,6.1,5.6,6.1c2.7,0,4.2-1.2,5-3.4h4.3c-1,4.5-4.9,7-9.4,7c-6.5,0-10.1-4.5-10.1-10.9
		c0-5.9,3.8-10.9,10-10.9c6.5,0,10.5,5.9,9.8,12.1H253.4z M264,679.2c-0.2-2.9-2.1-5.5-5.2-5.5c-3.2,0-5.3,2.4-5.4,5.5H264z"/>
</g>
<g>
	<g>
		<rect x="443.8" y="642.8" class="st8" width="308.8" height="98.5"/>
		<path class="st9" d="M527.5,642.8h13.6c6.3,0,9.4,2.9,9.4,7.7c0,5.5-3.8,6.9-4.7,7.2v0.1c1.7,0.2,4.2,1.6,4.2,6
			c0,3.4,0.5,6.4,1.6,7.5h-5.4c-0.8-1.2-0.8-2.8-0.8-4.2c0-5.2-1.1-7.6-5.7-7.6h-7.4v11.8h-5V642.8z M532.5,655.8h8.2
			c3.2,0,4.9-1.5,4.9-4.6c0-3.7-2.4-4.4-5-4.4h-8.1V655.8z"/>
		<path class="st9" d="M558.6,662.2c0,3.2,1.8,6.1,5.6,6.1c2.7,0,4.2-1.2,5-3.4h4.3c-1,4.5-4.9,7-9.4,7c-6.5,0-10.1-4.5-10.1-10.9
			c0-5.9,3.8-10.9,10-10.9c6.5,0,10.5,5.9,9.8,12.1H558.6z M569.2,659.2c-0.2-2.9-2.1-5.5-5.2-5.5c-3.2,0-5.3,2.4-5.4,5.5H569.2z"/>
		<path class="st9" d="M577.4,642.8h4.6v28.6h-4.6V642.8z"/>
		<path class="st9" d="M590.4,662.2c0,3.2,1.8,6.1,5.6,6.1c2.7,0,4.2-1.2,5-3.4h4.3c-1,4.5-4.9,7-9.4,7c-6.5,0-10.1-4.5-10.1-10.9
			c0-5.9,3.8-10.9,10-10.9c6.5,0,10.5,5.9,9.8,12.1H590.4z M601.1,659.2c-0.2-2.9-2.1-5.5-5.2-5.5c-3.2,0-5.3,2.4-5.4,5.5H601.1z"/>
		<path class="st9" d="M626.4,666.7c0,1.1,0.2,1.6,1.1,1.6h0.5c0.2,0,0.4,0,0.6-0.1v3.2c-0.7,0.2-2.1,0.5-2.9,0.5
			c-1.9,0-3.2-0.6-3.5-2.5c-1.8,1.8-4.7,2.5-7.2,2.5c-3.7,0-7.1-2-7.1-6c0-5.2,4.1-6,8-6.4c3.3-0.6,6.2-0.2,6.2-2.9
			c0-2.4-2.5-2.8-4.3-2.8c-2.6,0-4.4,1-4.6,3.3h-4.6c0.3-5.3,4.8-6.9,9.4-6.9c4,0,8.3,1.6,8.3,6V666.7z M621.9,661
			c-1.4,0.9-3.6,0.9-5.6,1.2c-2,0.3-3.7,1-3.7,3.4c0,2.1,2.6,2.6,4.2,2.6c2,0,5.1-1,5.1-3.9V661z"/>
		<path class="st9" d="M634.8,664.7c0.3,2.7,2.2,3.6,4.7,3.6c1.8,0,4.7-0.4,4.6-2.7c-0.1-2.4-3.4-2.7-6.8-3.4
			c-3.4-0.7-6.6-1.9-6.6-6.1c0-4.5,4.9-5.9,8.6-5.9c4.2,0,8.1,1.7,8.6,6.4h-4.8c-0.4-2.2-2.2-2.8-4.2-2.8c-1.3,0-3.8,0.3-3.8,2.1
			c0,2.2,3.4,2.6,6.7,3.3c3.3,0.8,6.7,2,6.7,6c0,4.9-5,6.7-9.2,6.7c-5.2,0-9-2.3-9.2-7.2H634.8z"/>
		<path class="st9" d="M655.7,662.2c0,3.2,1.8,6.1,5.6,6.1c2.7,0,4.2-1.2,5-3.4h4.3c-1,4.5-4.9,7-9.4,7c-6.5,0-10.1-4.5-10.1-10.9
			c0-5.9,3.8-10.9,10-10.9c6.5,0,10.5,5.9,9.8,12.1H655.7z M666.3,659.2c-0.2-2.9-2.1-5.5-5.2-5.5c-3.2,0-5.3,2.4-5.4,5.5H666.3z"/>
		<path class="st9" d="M504.5,690.8h13.6c6.3,0,9.4,2.9,9.4,7.7c0,5.5-3.8,6.9-4.7,7.2v0.1c1.7,0.2,4.2,1.6,4.2,6
			c0,3.4,0.5,6.4,1.6,7.5h-5.4c-0.8-1.2-0.8-2.8-0.8-4.2c0-5.2-1.1-7.6-5.7-7.6h-7.4v11.8h-5V690.8z M509.5,703.8h8.2
			c3.2,0,4.9-1.5,4.9-4.6c0-3.7-2.4-4.4-5-4.4h-8.1V703.8z"/>
		<path class="st9" d="M535.6,710.2c0,3.2,1.8,6.1,5.6,6.1c2.7,0,4.2-1.2,5-3.4h4.3c-1,4.5-4.9,7-9.4,7c-6.5,0-10.1-4.5-10.1-10.9
			c0-5.9,3.8-10.9,10-10.9c6.5,0,10.5,5.9,9.8,12.1H535.6z M546.2,707.2c-0.2-2.9-2.1-5.5-5.2-5.5c-3.2,0-5.3,2.4-5.4,5.5H546.2z"/>
		<path class="st9" d="M571.6,714.7c0,1.1,0.2,1.6,1.1,1.6h0.5c0.2,0,0.4,0,0.6-0.1v3.2c-0.7,0.2-2.1,0.5-2.9,0.5
			c-1.9,0-3.2-0.6-3.5-2.5c-1.8,1.8-4.7,2.5-7.2,2.5c-3.7,0-7.1-2-7.1-6c0-5.2,4.1-6,8-6.4c3.3-0.6,6.2-0.2,6.2-2.9
			c0-2.4-2.5-2.8-4.3-2.8c-2.6,0-4.4,1-4.6,3.3h-4.6c0.3-5.3,4.8-6.9,9.4-6.9c4,0,8.3,1.6,8.3,6V714.7z M567,709
			c-1.4,0.9-3.6,0.9-5.6,1.2c-2,0.3-3.7,1-3.7,3.4c0,2.1,2.6,2.6,4.2,2.6c2,0,5.1-1,5.1-3.9V709z"/>
		<path class="st9" d="M596,719.3h-4.3v-2.8h-0.1c-1.2,2.4-3.8,3.4-6.4,3.4c-6.5,0-9.7-4.8-9.7-11c0-7.5,4.4-10.8,9-10.8
			c2.6,0,5.5,1,6.9,3.2h0.1v-10.6h4.6V719.3z M585.8,716.3c4,0,5.8-3.7,5.8-7.3c0-4.6-2.2-7.3-5.7-7.3c-4.3,0-5.8,3.8-5.8,7.5
			C580.1,712.8,581.8,716.3,585.8,716.3z"/>
		<path class="st9" d="M601.1,690.8h4.6v4.3h-4.6V690.8z M601.1,698.7h4.6v20.7h-4.6V698.7z"/>
		<path class="st9" d="M610.6,698.7h4.3v3l0.1,0.1c1.4-2.3,3.7-3.7,6.4-3.7c4.5,0,7.3,2.4,7.3,7v14.2h-4.6v-13
			c-0.1-3.2-1.3-4.6-4-4.6c-3,0-5,2.4-5,5.4v12.2h-4.6V698.7z"/>
		<path class="st9" d="M637.1,710.2c0,3.2,1.8,6.1,5.6,6.1c2.7,0,4.2-1.2,5-3.4h4.3c-1,4.5-4.9,7-9.4,7c-6.5,0-10.1-4.5-10.1-10.9
			c0-5.9,3.8-10.9,10-10.9c6.5,0,10.5,5.9,9.8,12.1H637.1z M647.8,707.2c-0.2-2.9-2.1-5.5-5.2-5.5c-3.2,0-5.3,2.4-5.4,5.5H647.8z"/>
		<path class="st9" d="M659.2,712.7c0.3,2.7,2.2,3.6,4.7,3.6c1.8,0,4.7-0.4,4.6-2.7c-0.1-2.4-3.4-2.7-6.8-3.4
			c-3.4-0.7-6.6-1.9-6.6-6.1c0-4.5,4.9-5.9,8.6-5.9c4.2,0,8.1,1.7,8.6,6.4h-4.8c-0.4-2.2-2.2-2.8-4.2-2.8c-1.3,0-3.8,0.3-3.8,2.1
			c0,2.2,3.4,2.6,6.7,3.3c3.3,0.8,6.7,2,6.7,6c0,4.9-5,6.7-9.2,6.7c-5.2,0-9-2.3-9.2-7.2H659.2z"/>
		<path class="st9" d="M680,712.7c0.3,2.7,2.2,3.6,4.7,3.6c1.8,0,4.7-0.4,4.6-2.7c-0.1-2.4-3.4-2.7-6.8-3.4
			c-3.4-0.7-6.6-1.9-6.6-6.1c0-4.5,4.9-5.9,8.6-5.9c4.2,0,8.1,1.7,8.6,6.4h-4.8c-0.4-2.2-2.2-2.8-4.2-2.8c-1.3,0-3.8,0.3-3.8,2.1
			c0,2.2,3.4,2.6,6.7,3.3c3.3,0.8,6.7,2,6.7,6c0,4.9-5,6.7-9.2,6.7c-5.2,0-9-2.3-9.2-7.2H680z"/>
	</g>
</g>
<g>
	<g>
		<rect x="858.1" y="662.8" class="st8" width="308.8" height="98.5"/>
		<path class="st9" d="M904.1,662.8h11.8c8.8,0,12.6,6.4,12.6,14.3c0,7.9-3.8,14.3-12.6,14.3h-11.8V662.8z M909.1,687.3h4.9
			c7.8,0,9.5-4.4,9.5-10.2c0-5.8-1.7-10.2-9.5-10.2h-4.9V687.3z"/>
		<path class="st9" d="M935.9,682.2c0,3.2,1.8,6.1,5.6,6.1c2.7,0,4.2-1.2,5-3.4h4.3c-1,4.5-4.9,7-9.4,7c-6.5,0-10.1-4.5-10.1-10.9
			c0-5.9,3.8-10.9,10-10.9c6.5,0,10.5,5.9,9.8,12.1H935.9z M946.5,679.2c-0.2-2.9-2.1-5.5-5.2-5.5c-3.2,0-5.3,2.4-5.4,5.5H946.5z"/>
		<path class="st9" d="M954.7,670.7h4.3v2.8h0.1c1.3-2.4,3.7-3.4,6.4-3.4c6.5,0,9.7,4.9,9.7,11c0,5.6-2.8,10.8-8.9,10.8
			c-2.6,0-5.5-1-6.9-3.2h-0.1V699h-4.6V670.7z M964.9,673.7c-3.8,0-5.8,2.9-5.8,7.3c0,4.2,2.1,7.3,5.8,7.3c4.2,0,5.7-3.7,5.7-7.3
			C970.6,677.3,968.6,673.7,964.9,673.7z"/>
		<path class="st9" d="M979.1,662.8h4.6v28.6h-4.6V662.8z"/>
		<path class="st9" d="M987.7,681c0-6.3,3.8-10.9,10.4-10.9c6.6,0,10.4,4.6,10.4,10.9c0,6.4-3.8,10.9-10.4,10.9
			C991.5,691.9,987.7,687.3,987.7,681z M1004,681c0-3.6-1.8-7.3-5.9-7.3c-4.1,0-5.9,3.7-5.9,7.3c0,3.6,1.8,7.3,5.9,7.3
			C1002.2,688.3,1004,684.6,1004,681z"/>
		<path class="st9" d="M1010.1,670.7h5l5.4,15.4h0.1l5.2-15.4h4.8l-8,21.8c-1.5,3.7-2.5,7.1-7.3,7.1c-1.1,0-2.1-0.1-3.2-0.2v-3.8
			c0.8,0.1,1.4,0.3,2.2,0.3c2.1,0,2.7-1.1,3.2-2.9l0.5-1.6L1010.1,670.7z"/>
		<path class="st9" d="M1033.1,670.7h4.3v2.9h0.1c1.4-2,3-3.4,6.4-3.4c2.5,0,4.9,1.1,5.8,3.4c1.6-2.1,3.4-3.4,6.5-3.4
			c4.4,0,6.9,2,6.9,7v14.3h-4.6v-12.1c0-3.3-0.2-5.6-3.8-5.6c-3.1,0-4.4,2-4.4,5.5v12.1h-4.6v-13.3c0-2.9-0.9-4.4-3.6-4.4
			c-2.4,0-4.5,2-4.5,5.4v12.3h-4.6V670.7z"/>
		<path class="st9" d="M1071.5,682.2c0,3.2,1.8,6.1,5.6,6.1c2.7,0,4.2-1.2,5-3.4h4.3c-1,4.5-4.9,7-9.4,7c-6.5,0-10.1-4.5-10.1-10.9
			c0-5.9,3.8-10.9,10-10.9c6.5,0,10.5,5.9,9.8,12.1H1071.5z M1082.1,679.2c-0.2-2.9-2.1-5.5-5.2-5.5c-3.2,0-5.3,2.4-5.4,5.5H1082.1z
			"/>
		<path class="st9" d="M1090.1,670.7h4.3v3l0.1,0.1c1.4-2.3,3.7-3.7,6.4-3.7c4.5,0,7.3,2.4,7.3,7v14.2h-4.6v-13
			c-0.1-3.2-1.3-4.6-4-4.6c-3,0-5,2.4-5,5.4v12.2h-4.6V670.7z"/>
		<path class="st9" d="M1111,670.7h3.4v-6.2h4.6v6.2h4.1v3.4h-4.1v11c0,1.9,0.2,2.8,2.2,2.8c0.6,0,1.3,0,1.9-0.2v3.5
			c-1,0.1-2,0.2-3,0.2c-4.8,0-5.6-1.8-5.7-5.3v-12.2h-3.4V670.7z"/>
	</g>
</g>
<g>
	<g>
		<rect x="1288.1" y="649" class="st8" width="261.1" height="139.6"/>
		<path class="st9" d="M1316.2,649h5.2l7.2,22.6h0.1l7.3-22.6h5.1l-9.8,28.6h-5.6L1316.2,649z"/>
		<path class="st9" d="M1344.6,668.4c0,3.2,1.8,6.1,5.6,6.1c2.7,0,4.2-1.2,5-3.4h4.3c-1,4.5-4.9,7-9.4,7c-6.5,0-10.1-4.5-10.1-10.9
			c0-5.9,3.8-10.9,10-10.9c6.5,0,10.5,5.9,9.8,12.1H1344.6z M1355.2,665.4c-0.2-2.9-2.1-5.5-5.2-5.5c-3.2,0-5.3,2.4-5.4,5.5H1355.2z
			"/>
		<path class="st9" d="M1363.3,656.9h4.3v4h0.1c0.5-2.2,3.3-4.6,6-4.6c1.1,0,1.3,0.1,1.7,0.1v4.4c-0.6-0.1-1.3-0.2-2-0.2
			c-3.1,0-5.6,2.5-5.6,7.1v9.8h-4.6V656.9z"/>
		<path class="st9" d="M1377.5,649h4.6v4.3h-4.6V649z M1377.5,656.9h4.6v20.7h-4.6V656.9z"/>
		<path class="st9" d="M1384.9,656.9h3.4v-1.7c0-5.3,2.8-6.2,5.7-6.2c1.5,0,2.5,0.1,3.2,0.3v3.6c-0.6-0.2-1.2-0.2-2.1-0.2
			c-1.2,0-2.2,0.4-2.2,2.2v2.1h3.9v3.4h-3.9v17.3h-4.6v-17.3h-3.4V656.9z M1399.7,649h4.6v4.3h-4.6V649z M1399.7,656.9h4.6v20.7
			h-4.6V656.9z"/>
		<path class="st9" d="M1423.2,663.8c-0.4-2.6-2.2-3.9-4.7-3.9c-2.4,0-5.7,1.3-5.7,7.5c0,3.4,1.5,7.1,5.5,7.1c2.7,0,4.5-1.7,4.9-4.7
			h4.6c-0.8,5.4-4.2,8.3-9.5,8.3c-6.5,0-10-4.6-10-10.7c0-6.2,3.4-11.1,10.2-11.1c4.8,0,8.9,2.4,9.3,7.5H1423.2z"/>
		<path class="st9" d="M1448.8,673c0,1.1,0.2,1.6,1.1,1.6h0.5c0.2,0,0.4,0,0.6-0.1v3.2c-0.7,0.2-2.1,0.5-2.9,0.5
			c-1.9,0-3.2-0.6-3.5-2.5c-1.8,1.8-4.7,2.5-7.2,2.5c-3.7,0-7.1-2-7.1-6c0-5.2,4.1-6,8-6.4c3.3-0.6,6.2-0.2,6.2-2.9
			c0-2.4-2.5-2.8-4.3-2.8c-2.6,0-4.4,1-4.6,3.3h-4.6c0.3-5.3,4.8-6.9,9.4-6.9c4,0,8.3,1.6,8.3,6V673z M1444.2,667.2
			c-1.4,0.9-3.6,0.9-5.6,1.2c-2,0.3-3.7,1-3.7,3.4c0,2.1,2.6,2.6,4.2,2.6c2,0,5.1-1,5.1-3.9V667.2z"/>
		<path class="st9" d="M1451.6,656.9h3.4v-6.2h4.6v6.2h4.1v3.4h-4.1v11c0,1.9,0.2,2.8,2.2,2.8c0.6,0,1.3,0,1.9-0.2v3.5
			c-1,0.1-2,0.2-3,0.2c-4.8,0-5.6-1.8-5.7-5.3v-12.2h-3.4V656.9z"/>
		<path class="st9" d="M1467.1,649h4.6v4.3h-4.6V649z M1467.1,656.9h4.6v20.7h-4.6V656.9z"/>
		<path class="st9" d="M1475.7,667.2c0-6.3,3.8-10.9,10.4-10.9s10.4,4.6,10.4,10.9c0,6.4-3.8,10.9-10.4,10.9
			S1475.7,673.6,1475.7,667.2z M1492,667.2c0-3.6-1.8-7.3-5.9-7.3s-5.9,3.7-5.9,7.3c0,3.6,1.8,7.3,5.9,7.3S1492,670.8,1492,667.2z"
			/>
		<path class="st9" d="M1500.4,656.9h4.3v3l0.1,0.1c1.4-2.3,3.7-3.7,6.4-3.7c4.5,0,7.3,2.4,7.3,7v14.2h-4.6v-13
			c-0.1-3.2-1.3-4.6-4-4.6c-3,0-5,2.4-5,5.4v12.2h-4.6V656.9z"/>
		<path class="st9" d="M1308,721c0,1.1,0.2,1.6,1.1,1.6h0.5c0.2,0,0.4,0,0.6-0.1v3.2c-0.7,0.2-2.1,0.5-2.9,0.5
			c-1.9,0-3.2-0.6-3.5-2.5c-1.8,1.8-4.7,2.5-7.2,2.5c-3.7,0-7.1-2-7.1-6c0-5.2,4.1-6,8-6.4c3.3-0.6,6.2-0.2,6.2-2.9
			c0-2.4-2.5-2.8-4.3-2.8c-2.6,0-4.4,1-4.6,3.3h-4.6c0.3-5.3,4.8-6.9,9.4-6.9c4,0,8.3,1.6,8.3,6V721z M1303.4,715.2
			c-1.4,0.9-3.6,0.9-5.6,1.2c-2,0.3-3.7,1-3.7,3.4c0,2.1,2.6,2.6,4.2,2.6c2,0,5.1-1,5.1-3.9V715.2z"/>
		<path class="st9" d="M1312.9,704.9h4.3v3l0.1,0.1c1.4-2.3,3.7-3.7,6.4-3.7c4.5,0,7.3,2.4,7.3,7v14.2h-4.6v-13
			c-0.1-3.2-1.3-4.6-4-4.6c-3,0-5,2.4-5,5.4v12.2h-4.6V704.9z"/>
		<path class="st9" d="M1355.3,725.6h-4.3v-2.8h-0.1c-1.2,2.4-3.8,3.4-6.4,3.4c-6.5,0-9.7-4.8-9.7-11c0-7.5,4.4-10.8,9-10.8
			c2.6,0,5.5,1,6.9,3.2h0.1V697h4.6V725.6z M1345.1,722.5c4,0,5.8-3.7,5.8-7.3c0-4.6-2.2-7.3-5.7-7.3c-4.3,0-5.8,3.8-5.8,7.5
			C1339.4,719,1341.2,722.5,1345.1,722.5z"/>
		<path class="st9" d="M1368.8,697h5.2l7.2,22.6h0.1l7.3-22.6h5.1l-9.8,28.6h-5.6L1368.8,697z"/>
		<path class="st9" d="M1411,721c0,1.1,0.2,1.6,1.1,1.6h0.5c0.2,0,0.4,0,0.6-0.1v3.2c-0.7,0.2-2.1,0.5-2.9,0.5
			c-1.9,0-3.2-0.6-3.5-2.5c-1.8,1.8-4.7,2.5-7.2,2.5c-3.7,0-7.1-2-7.1-6c0-5.2,4.1-6,8-6.4c3.3-0.6,6.2-0.2,6.2-2.9
			c0-2.4-2.5-2.8-4.3-2.8c-2.6,0-4.4,1-4.6,3.3h-4.6c0.3-5.3,4.8-6.9,9.4-6.9c4,0,8.3,1.6,8.3,6V721z M1406.4,715.2
			c-1.4,0.9-3.6,0.9-5.6,1.2c-2,0.3-3.7,1-3.7,3.4c0,2.1,2.6,2.6,4.2,2.6c2,0,5.1-1,5.1-3.9V715.2z"/>
		<path class="st9" d="M1416,697h4.6v28.6h-4.6V697z"/>
		<path class="st9" d="M1425.6,697h4.6v4.3h-4.6V697z M1425.6,704.9h4.6v20.7h-4.6V704.9z"/>
		<path class="st9" d="M1454.6,725.6h-4.3v-2.8h-0.1c-1.2,2.4-3.8,3.4-6.4,3.4c-6.5,0-9.7-4.8-9.7-11c0-7.5,4.4-10.8,9-10.8
			c2.6,0,5.5,1,6.9,3.2h0.1V697h4.6V725.6z M1444.4,722.5c4,0,5.8-3.7,5.8-7.3c0-4.6-2.2-7.3-5.7-7.3c-4.3,0-5.8,3.8-5.8,7.5
			C1438.7,719,1440.5,722.5,1444.4,722.5z"/>
		<path class="st9" d="M1476.9,721c0,1.1,0.2,1.6,1.1,1.6h0.5c0.2,0,0.4,0,0.6-0.1v3.2c-0.7,0.2-2.1,0.5-2.9,0.5
			c-1.9,0-3.2-0.6-3.5-2.5c-1.8,1.8-4.7,2.5-7.2,2.5c-3.7,0-7.1-2-7.1-6c0-5.2,4.1-6,8-6.4c3.3-0.6,6.2-0.2,6.2-2.9
			c0-2.4-2.5-2.8-4.3-2.8c-2.6,0-4.4,1-4.6,3.3h-4.6c0.3-5.3,4.8-6.9,9.4-6.9c4,0,8.3,1.6,8.3,6V721z M1472.4,715.2
			c-1.4,0.9-3.6,0.9-5.6,1.2c-2,0.3-3.7,1-3.7,3.4c0,2.1,2.6,2.6,4.2,2.6c2,0,5.1-1,5.1-3.9V715.2z"/>
		<path class="st9" d="M1479.8,704.9h3.4v-6.2h4.6v6.2h4.1v3.4h-4.1v11c0,1.9,0.2,2.8,2.2,2.8c0.6,0,1.3,0,1.9-0.2v3.5
			c-1,0.1-2,0.2-3,0.2c-4.8,0-5.6-1.8-5.7-5.3v-12.2h-3.4V704.9z"/>
		<path class="st9" d="M1495.3,697h4.6v4.3h-4.6V697z M1495.3,704.9h4.6v20.7h-4.6V704.9z"/>
		<path class="st9" d="M1503.8,715.2c0-6.3,3.8-10.9,10.4-10.9s10.4,4.6,10.4,10.9c0,6.4-3.8,10.9-10.4,10.9
			S1503.8,721.6,1503.8,715.2z M1520.1,715.2c0-3.6-1.8-7.3-5.9-7.3s-5.9,3.7-5.9,7.3c0,3.6,1.8,7.3,5.9,7.3
			S1520.1,718.8,1520.1,715.2z"/>
		<path class="st9" d="M1528.5,704.9h4.3v3l0.1,0.1c1.4-2.3,3.7-3.7,6.4-3.7c4.5,0,7.3,2.4,7.3,7v14.2h-4.6v-13
			c-0.1-3.2-1.3-4.6-4-4.6c-3,0-5,2.4-5,5.4v12.2h-4.6V704.9z"/>
		<path class="st9" d="M1370.8,745h23.1v4.3h-9.1v24.2h-5v-24.2h-9V745z"/>
		<path class="st9" d="M1395.7,764.4c0,3.2,1.8,6.1,5.6,6.1c2.7,0,4.2-1.2,5-3.4h4.3c-1,4.5-4.9,7-9.4,7c-6.5,0-10.1-4.5-10.1-10.9
			c0-5.9,3.8-10.9,10-10.9c6.5,0,10.5,5.9,9.8,12.1H1395.7z M1406.4,761.4c-0.2-2.9-2.1-5.5-5.2-5.5c-3.2,0-5.3,2.4-5.4,5.5H1406.4z
			"/>
		<path class="st9" d="M1417.8,766.9c0.3,2.7,2.2,3.6,4.7,3.6c1.8,0,4.7-0.4,4.6-2.7c-0.1-2.4-3.4-2.7-6.8-3.4
			c-3.4-0.7-6.6-1.9-6.6-6.1c0-4.5,4.9-5.9,8.6-5.9c4.2,0,8.1,1.7,8.6,6.4h-4.8c-0.4-2.2-2.2-2.8-4.2-2.8c-1.3,0-3.8,0.3-3.8,2.1
			c0,2.2,3.4,2.6,6.7,3.3c3.3,0.8,6.7,2,6.7,6c0,4.9-5,6.7-9.2,6.7c-5.2,0-9-2.3-9.2-7.2H1417.8z"/>
		<path class="st9" d="M1433.1,752.9h3.4v-6.2h4.6v6.2h4.1v3.4h-4.1v11c0,1.9,0.2,2.8,2.2,2.8c0.6,0,1.3,0,1.9-0.2v3.5
			c-1,0.1-2,0.2-3,0.2c-4.8,0-5.6-1.8-5.7-5.3v-12.2h-3.4V752.9z"/>
		<path class="st9" d="M1451.9,766.9c0.3,2.7,2.2,3.6,4.7,3.6c1.8,0,4.7-0.4,4.6-2.7c-0.1-2.4-3.4-2.7-6.8-3.4
			c-3.4-0.7-6.6-1.9-6.6-6.1c0-4.5,4.9-5.9,8.6-5.9c4.2,0,8.1,1.7,8.6,6.4h-4.8c-0.4-2.2-2.2-2.8-4.2-2.8c-1.3,0-3.8,0.3-3.8,2.1
			c0,2.2,3.4,2.6,6.7,3.3c3.3,0.8,6.7,2,6.7,6c0,4.9-5,6.7-9.2,6.7c-5.2,0-9-2.3-9.2-7.2H1451.9z"/>
	</g>
</g>
<g>
	<g>
		<rect x="1646.7" y="642.8" class="st8" width="308.8" height="98.5"/>
		<path class="st9" d="M1671.9,642.8h11.8c8.8,0,12.6,6.4,12.6,14.3c0,7.9-3.8,14.3-12.6,14.3h-11.8V642.8z M1676.9,667.3h4.9
			c7.8,0,9.5-4.4,9.5-10.2c0-5.8-1.7-10.2-9.5-10.2h-4.9V667.3z"/>
		<path class="st9" d="M1703.7,662.2c0,3.2,1.8,6.1,5.6,6.1c2.7,0,4.2-1.2,5-3.4h4.3c-1,4.5-4.9,7-9.4,7c-6.5,0-10.1-4.5-10.1-10.9
			c0-5.9,3.8-10.9,10-10.9c6.5,0,10.5,5.9,9.8,12.1H1703.7z M1714.4,659.2c-0.2-2.9-2.1-5.5-5.2-5.5c-3.2,0-5.3,2.4-5.4,5.5H1714.4z
			"/>
		<path class="st9" d="M1722.5,650.7h4.3v2.8h0.1c1.3-2.4,3.7-3.4,6.4-3.4c6.5,0,9.7,4.9,9.7,11c0,5.6-2.8,10.8-8.9,10.8
			c-2.6,0-5.5-1-6.9-3.2h-0.1V679h-4.6V650.7z M1732.7,653.7c-3.8,0-5.8,2.9-5.8,7.3c0,4.2,2.1,7.3,5.8,7.3c4.2,0,5.7-3.7,5.7-7.3
			C1738.4,657.3,1736.5,653.7,1732.7,653.7z"/>
		<path class="st9" d="M1747,642.8h4.6v28.6h-4.6V642.8z"/>
		<path class="st9" d="M1755.5,661c0-6.3,3.8-10.9,10.4-10.9s10.4,4.6,10.4,10.9c0,6.4-3.8,10.9-10.4,10.9S1755.5,667.3,1755.5,661z
			 M1771.8,661c0-3.6-1.8-7.3-5.9-7.3s-5.9,3.7-5.9,7.3c0,3.6,1.8,7.3,5.9,7.3S1771.8,664.6,1771.8,661z"/>
		<path class="st9" d="M1777.9,650.7h5l5.4,15.4h0.1l5.2-15.4h4.8l-8,21.8c-1.5,3.7-2.5,7.1-7.3,7.1c-1.1,0-2.1-0.1-3.2-0.2v-3.8
			c0.8,0.1,1.4,0.3,2.2,0.3c2.1,0,2.7-1.1,3.2-2.9l0.5-1.6L1777.9,650.7z"/>
		<path class="st9" d="M1810,650.7h3.4v-6.2h4.6v6.2h4.1v3.4h-4.1v11c0,1.9,0.2,2.8,2.2,2.8c0.6,0,1.3,0,1.9-0.2v3.5
			c-1,0.1-2,0.2-3,0.2c-4.8,0-5.6-1.8-5.7-5.3v-12.2h-3.4V650.7z"/>
		<path class="st9" d="M1824.4,661c0-6.3,3.8-10.9,10.4-10.9s10.4,4.6,10.4,10.9c0,6.4-3.8,10.9-10.4,10.9S1824.4,667.3,1824.4,661z
			 M1840.7,661c0-3.6-1.8-7.3-5.9-7.3s-5.9,3.7-5.9,7.3c0,3.6,1.8,7.3,5.9,7.3S1840.7,664.6,1840.7,661z"/>
		<path class="st9" d="M1858.2,642.8h23.1v4.3h-9.1v24.2h-5v-24.2h-9V642.8z"/>
		<path class="st9" d="M1883.1,662.2c0,3.2,1.8,6.1,5.6,6.1c2.7,0,4.2-1.2,5-3.4h4.3c-1,4.5-4.9,7-9.4,7c-6.5,0-10.1-4.5-10.1-10.9
			c0-5.9,3.8-10.9,10-10.9c6.5,0,10.5,5.9,9.8,12.1H1883.1z M1893.7,659.2c-0.2-2.9-2.1-5.5-5.2-5.5c-3.2,0-5.3,2.4-5.4,5.5H1893.7z
			"/>
		<path class="st9" d="M1905.2,664.7c0.3,2.7,2.2,3.6,4.7,3.6c1.8,0,4.7-0.4,4.6-2.7c-0.1-2.4-3.4-2.7-6.8-3.4
			c-3.4-0.7-6.6-1.9-6.6-6.1c0-4.5,4.9-5.9,8.6-5.9c4.2,0,8.1,1.7,8.6,6.4h-4.8c-0.4-2.2-2.2-2.8-4.2-2.8c-1.3,0-3.8,0.3-3.8,2.1
			c0,2.2,3.4,2.6,6.7,3.3c3.3,0.8,6.7,2,6.7,6c0,4.9-5,6.7-9.2,6.7c-5.2,0-9-2.3-9.2-7.2H1905.2z"/>
		<path class="st9" d="M1920.4,650.7h3.4v-6.2h4.6v6.2h4.1v3.4h-4.1v11c0,1.9,0.2,2.8,2.2,2.8c0.6,0,1.3,0,1.9-0.2v3.5
			c-1,0.1-2,0.2-3,0.2c-4.8,0-5.6-1.8-5.7-5.3v-12.2h-3.4V650.7z"/>
		<path class="st9" d="M1728.2,709.8c0,4.4,3.2,6.1,7.2,6.1c4.4,0,6-2.2,6-4.3c0-2.2-1.2-3.1-2.4-3.5c-2-0.8-4.6-1.3-8.5-2.4
			c-4.9-1.3-6.3-4.3-6.3-7.2c0-5.8,5.3-8.4,10.4-8.4c5.9,0,11,3.2,11,9.1h-5c-0.3-3.7-2.7-5-6.2-5c-2.3,0-5.2,0.8-5.2,3.7
			c0,2,1.4,3.1,3.4,3.7c0.4,0.1,6.8,1.8,8.2,2.2c3.7,1.2,5.6,4.2,5.6,7.3c0,6.4-5.7,9-11.4,9c-6.5,0-11.8-3.1-11.9-10.2H1728.2z"/>
		<path class="st9" d="M1747.9,698.7h5l5.4,15.4h0.1l5.2-15.4h4.8l-8,21.8c-1.5,3.7-2.5,7.1-7.3,7.1c-1.1,0-2.1-0.1-3.2-0.2v-3.8
			c0.8,0.1,1.4,0.3,2.2,0.3c2.1,0,2.7-1.1,3.2-2.9l0.5-1.6L1747.9,698.7z"/>
		<path class="st9" d="M1774.4,712.7c0.3,2.7,2.2,3.6,4.7,3.6c1.8,0,4.7-0.4,4.6-2.7c-0.1-2.4-3.4-2.7-6.8-3.4
			c-3.4-0.7-6.6-1.9-6.6-6.1c0-4.5,4.9-5.9,8.6-5.9c4.2,0,8.1,1.7,8.6,6.4h-4.8c-0.4-2.2-2.2-2.8-4.2-2.8c-1.3,0-3.8,0.3-3.8,2.1
			c0,2.2,3.4,2.6,6.7,3.3c3.3,0.8,6.7,2,6.7,6c0,4.9-5,6.7-9.2,6.7c-5.2,0-9-2.3-9.2-7.2H1774.4z"/>
		<path class="st9" d="M1789.6,698.7h3.4v-6.2h4.6v6.2h4.1v3.4h-4.1v11c0,1.9,0.2,2.8,2.2,2.8c0.6,0,1.3,0,1.9-0.2v3.5
			c-1,0.1-2,0.2-3,0.2c-4.8,0-5.6-1.8-5.7-5.3v-12.2h-3.4V698.7z"/>
		<path class="st9" d="M1808.6,710.2c0,3.2,1.8,6.1,5.6,6.1c2.7,0,4.2-1.2,5-3.4h4.3c-1,4.5-4.9,7-9.4,7c-6.5,0-10.1-4.5-10.1-10.9
			c0-5.9,3.8-10.9,10-10.9c6.5,0,10.5,5.9,9.8,12.1H1808.6z M1819.2,707.2c-0.2-2.9-2.1-5.5-5.2-5.5c-3.2,0-5.3,2.4-5.4,5.5H1819.2z
			"/>
		<path class="st9" d="M1827.3,698.7h4.3v2.9h0.1c1.4-2,3-3.4,6.4-3.4c2.5,0,4.9,1.1,5.8,3.4c1.6-2.1,3.4-3.4,6.5-3.4
			c4.4,0,6.9,2,6.9,7v14.3h-4.6v-12.1c0-3.3-0.2-5.6-3.8-5.6c-3.1,0-4.4,2-4.4,5.5v12.1h-4.6v-13.3c0-2.9-0.9-4.4-3.6-4.4
			c-2.4,0-4.5,2-4.5,5.4v12.3h-4.6V698.7z"/>
		<path class="st9" d="M1865.5,712.7c0.3,2.7,2.2,3.6,4.7,3.6c1.8,0,4.7-0.4,4.6-2.7c-0.1-2.4-3.4-2.7-6.8-3.4
			c-3.4-0.7-6.6-1.9-6.6-6.1c0-4.5,4.9-5.9,8.6-5.9c4.2,0,8.1,1.7,8.6,6.4h-4.8c-0.4-2.2-2.2-2.8-4.2-2.8c-1.3,0-3.8,0.3-3.8,2.1
			c0,2.2,3.4,2.6,6.7,3.3c3.3,0.8,6.7,2,6.7,6c0,4.9-5,6.7-9.2,6.7c-5.2,0-9-2.3-9.2-7.2H1865.5z"/>
	</g>
</g>
<g>
	<path class="st11" d="M1337.4,47.1c-0.3-0.3-0.7-0.5-1.2-0.5c-0.4,0-0.8,0.2-1.2,0.5l-3.4,3.3c-1.8-1.7-3.9-3.1-6.3-4
		c-2.4-1-4.8-1.4-7.3-1.4c-4.7,0-8.9,1.4-12.4,4.3c-3.5,2.9-5.8,6.6-7,11.2v0.2c0,0.2,0.1,0.4,0.2,0.6c0.2,0.2,0.4,0.2,0.6,0.2h5.1
		c0.4,0,0.6-0.2,0.8-0.6c0.7-1.7,1.2-2.7,1.4-3c1.2-2,2.8-3.5,4.8-4.6c2-1.1,4.1-1.7,6.4-1.7c3.5,0,6.5,1.2,9,3.5l-3.6,3.6
		c-0.3,0.3-0.5,0.7-0.5,1.2s0.2,0.8,0.5,1.2c0.3,0.3,0.7,0.5,1.2,0.5h11.6c0.4,0,0.8-0.2,1.2-0.5c0.3-0.3,0.5-0.7,0.5-1.2V48.3
		C1337.8,47.8,1337.7,47.4,1337.4,47.1L1337.4,47.1z M1337.4,47.1"/>
	<path class="st11" d="M1336.4,68.1h-5c-0.4,0-0.6,0.2-0.8,0.6c-0.7,1.7-1.2,2.7-1.4,3c-1.2,2-2.8,3.5-4.8,4.6
		c-2,1.1-4.1,1.7-6.5,1.7c-1.7,0-3.3-0.3-4.8-0.9c-1.5-0.6-2.9-1.5-4.2-2.6l3.5-3.5c0.3-0.3,0.5-0.7,0.5-1.2c0-0.4-0.2-0.8-0.5-1.2
		c-0.3-0.3-0.7-0.5-1.2-0.5h-11.6c-0.4,0-0.8,0.2-1.2,0.5c-0.3,0.3-0.5,0.7-0.5,1.2v11.6c0,0.4,0.2,0.8,0.5,1.2
		c0.3,0.3,0.7,0.5,1.2,0.5c0.4,0,0.8-0.2,1.2-0.5l3.3-3.3c1.8,1.8,3.9,3.1,6.3,4.1c2.4,0.9,4.8,1.4,7.3,1.4c4.7,0,8.8-1.4,12.3-4.3
		c3.5-2.9,5.8-6.6,6.9-11.2c0,0,0-0.1,0-0.2c0-0.2-0.1-0.4-0.2-0.6C1336.8,68.2,1336.6,68.1,1336.4,68.1L1336.4,68.1z M1336.4,68.1"
		/>
</g>
<g>
	<path class="st11" d="M1673.8,545c-0.6-0.6-1.2-0.8-2-0.8c-0.8,0-1.4,0.3-2,0.8l-5.7,5.6c-3.1-2.9-6.7-5.2-10.7-6.8
		c-4-1.6-8.1-2.4-12.4-2.4c-8,0-15,2.4-21,7.3c-6,4.8-9.9,11.2-11.8,19v0.3c0,0.4,0.1,0.7,0.4,1c0.3,0.3,0.6,0.4,1,0.4h8.7
		c0.6,0,1.1-0.3,1.3-1c1.2-2.9,2-4.6,2.3-5.1c2-3.3,4.7-5.9,8.1-7.8c3.4-1.9,7-2.8,10.9-2.8c5.9,0,10.9,2,15.2,6l-6,6
		c-0.5,0.6-0.8,1.2-0.8,2c0,0.8,0.3,1.4,0.8,2c0.6,0.6,1.2,0.8,2,0.8h19.6c0.8,0,1.4-0.3,2-0.8c0.6-0.6,0.8-1.2,0.8-2v-19.6
		C1674.7,546.2,1674.4,545.5,1673.8,545L1673.8,545z M1673.8,545"/>
	<path class="st11" d="M1672.2,580.5h-8.4c-0.6,0-1.1,0.3-1.3,1c-1.2,2.9-2,4.6-2.3,5.1c-2,3.3-4.7,5.9-8.1,7.8
		c-3.4,1.9-7,2.8-10.9,2.8c-2.8,0-5.5-0.5-8.2-1.6c-2.6-1-5-2.5-7-4.5l6-6c0.6-0.6,0.8-1.2,0.8-2c0-0.8-0.3-1.4-0.8-2
		c-0.6-0.6-1.2-0.8-2-0.8h-19.6c-0.8,0-1.4,0.3-2,0.8c-0.6,0.6-0.8,1.2-0.8,2v19.6c0,0.8,0.3,1.4,0.8,2c0.6,0.6,1.2,0.8,2,0.8
		c0.8,0,1.4-0.3,2-0.8l5.6-5.6c3.1,3,6.7,5.3,10.6,6.9c4,1.6,8.1,2.4,12.3,2.4c8,0,14.9-2.4,20.9-7.3c5.9-4.8,9.8-11.2,11.7-19
		c0-0.1,0-0.2,0-0.3c0-0.4-0.1-0.7-0.4-1C1672.9,580.6,1672.5,580.5,1672.2,580.5L1672.2,580.5z M1672.2,580.5"/>
</g>
<g>
	<path class="st11" d="M1673.8,153.1c-0.6-0.6-1.2-0.8-2-0.8c-0.8,0-1.4,0.3-2,0.8l-5.7,5.6c-3.1-2.9-6.7-5.2-10.7-6.8
		c-4-1.6-8.1-2.4-12.4-2.4c-8,0-15,2.4-21,7.3c-6,4.8-9.9,11.2-11.8,19v0.3c0,0.4,0.1,0.7,0.4,1c0.3,0.3,0.6,0.4,1,0.4h8.7
		c0.6,0,1.1-0.3,1.3-1c1.2-2.9,2-4.6,2.3-5.1c2-3.3,4.7-5.9,8.1-7.8c3.4-1.9,7-2.8,10.9-2.8c5.9,0,10.9,2,15.2,6l-6,6
		c-0.5,0.6-0.8,1.2-0.8,2c0,0.8,0.3,1.4,0.8,2c0.6,0.6,1.2,0.8,2,0.8h19.6c0.8,0,1.4-0.3,2-0.8c0.6-0.6,0.8-1.2,0.8-2V155
		C1674.7,154.3,1674.4,153.6,1673.8,153.1L1673.8,153.1z M1673.8,153.1"/>
	<path class="st11" d="M1672.2,188.6h-8.4c-0.6,0-1.1,0.3-1.3,1c-1.2,2.9-2,4.6-2.3,5.1c-2,3.3-4.7,5.9-8.1,7.8
		c-3.4,1.9-7,2.8-10.9,2.8c-2.8,0-5.5-0.5-8.2-1.6c-2.6-1-5-2.5-7-4.5l6-6c0.6-0.6,0.8-1.2,0.8-2s-0.3-1.4-0.8-2
		c-0.6-0.6-1.2-0.8-2-0.8h-19.6c-0.8,0-1.4,0.3-2,0.8c-0.6,0.6-0.8,1.2-0.8,2v19.6c0,0.8,0.3,1.4,0.8,2c0.6,0.6,1.2,0.8,2,0.8
		c0.8,0,1.4-0.3,2-0.8l5.6-5.6c3.1,3,6.7,5.3,10.6,6.9c4,1.6,8.1,2.4,12.3,2.4c8,0,14.9-2.4,20.9-7.3c5.9-4.8,9.8-11.2,11.7-19
		c0-0.1,0-0.2,0-0.3c0-0.4-0.1-0.7-0.4-1C1672.9,188.7,1672.5,188.6,1672.2,188.6L1672.2,188.6z M1672.2,188.6"/>
</g>
<g>
	<path class="st11" d="M1281.6,153.1c-0.6-0.6-1.2-0.8-2-0.8c-0.8,0-1.4,0.3-2,0.8l-5.7,5.6c-3.1-2.9-6.7-5.2-10.7-6.8
		c-4-1.6-8.1-2.4-12.4-2.4c-8,0-15,2.4-21,7.3c-6,4.8-9.9,11.2-11.8,19v0.3c0,0.4,0.1,0.7,0.4,1c0.3,0.3,0.6,0.4,1,0.4h8.7
		c0.6,0,1.1-0.3,1.3-1c1.2-2.9,2-4.6,2.3-5.1c2-3.3,4.7-5.9,8.1-7.8c3.4-1.9,7-2.8,10.9-2.8c5.9,0,10.9,2,15.2,6l-6,6
		c-0.5,0.6-0.8,1.2-0.8,2c0,0.8,0.3,1.4,0.8,2c0.6,0.6,1.2,0.8,2,0.8h19.6c0.8,0,1.4-0.3,2-0.8c0.6-0.6,0.8-1.2,0.8-2V155
		C1282.4,154.3,1282.1,153.6,1281.6,153.1L1281.6,153.1z M1281.6,153.1"/>
	<path class="st11" d="M1279.9,188.6h-8.4c-0.6,0-1.1,0.3-1.3,1c-1.2,2.9-2,4.6-2.3,5.1c-2,3.3-4.7,5.9-8.1,7.8
		c-3.4,1.9-7,2.8-10.9,2.8c-2.8,0-5.5-0.5-8.2-1.6c-2.6-1-5-2.5-7-4.5l6-6c0.6-0.6,0.8-1.2,0.8-2s-0.3-1.4-0.8-2
		c-0.6-0.6-1.2-0.8-2-0.8h-19.6c-0.8,0-1.4,0.3-2,0.8c-0.6,0.6-0.8,1.2-0.8,2v19.6c0,0.8,0.3,1.4,0.8,2c0.6,0.6,1.2,0.8,2,0.8
		c0.8,0,1.4-0.3,2-0.8l5.6-5.6c3.1,3,6.7,5.3,10.6,6.9c4,1.6,8.1,2.4,12.3,2.4c8,0,14.9-2.4,20.9-7.3c5.9-4.8,9.8-11.2,11.7-19
		c0-0.1,0-0.2,0-0.3c0-0.4-0.1-0.7-0.4-1C1280.6,188.7,1280.3,188.6,1279.9,188.6L1279.9,188.6z M1279.9,188.6"/>
</g>
<g>
	<path class="st11" d="M890.8,153.1c-0.6-0.6-1.2-0.8-2-0.8c-0.8,0-1.4,0.3-2,0.8l-5.7,5.6c-3.1-2.9-6.7-5.2-10.7-6.8
		c-4-1.6-8.1-2.4-12.4-2.4c-8,0-15,2.4-21,7.3c-6,4.8-9.9,11.2-11.8,19v0.3c0,0.4,0.1,0.7,0.4,1c0.3,0.3,0.6,0.4,1,0.4h8.7
		c0.6,0,1.1-0.3,1.3-1c1.2-2.9,2-4.6,2.3-5.1c2-3.3,4.7-5.9,8.1-7.8c3.4-1.9,7-2.8,10.9-2.8c5.9,0,10.9,2,15.2,6l-6,6
		c-0.5,0.6-0.8,1.2-0.8,2c0,0.8,0.3,1.4,0.8,2c0.6,0.6,1.2,0.8,2,0.8h19.6c0.8,0,1.4-0.3,2-0.8c0.6-0.6,0.8-1.2,0.8-2V155
		C891.6,154.3,891.4,153.6,890.8,153.1L890.8,153.1z M890.8,153.1"/>
	<path class="st11" d="M889.2,188.6h-8.4c-0.6,0-1.1,0.3-1.3,1c-1.2,2.9-2,4.6-2.3,5.1c-2,3.3-4.7,5.9-8.1,7.8
		c-3.4,1.9-7,2.8-10.9,2.8c-2.8,0-5.5-0.5-8.2-1.6c-2.6-1-5-2.5-7-4.5l6-6c0.6-0.6,0.8-1.2,0.8-2s-0.3-1.4-0.8-2
		c-0.6-0.6-1.2-0.8-2-0.8h-19.6c-0.8,0-1.4,0.3-2,0.8c-0.6,0.6-0.8,1.2-0.8,2v19.6c0,0.8,0.3,1.4,0.8,2c0.6,0.6,1.2,0.8,2,0.8
		c0.8,0,1.4-0.3,2-0.8l5.6-5.6c3.1,3,6.7,5.3,10.6,6.9c4,1.6,8.1,2.4,12.3,2.4c8,0,14.9-2.4,20.9-7.3c5.9-4.8,9.8-11.2,11.7-19
		c0-0.1,0-0.2,0-0.3c0-0.4-0.1-0.7-0.4-1C889.9,188.7,889.5,188.6,889.2,188.6L889.2,188.6z M889.2,188.6"/>
</g>
<g>
	<path class="st11" d="M1293,538.7c-0.6-0.6-1.2-0.8-2-0.8c-0.8,0-1.4,0.3-2,0.8l-5.7,5.6c-3.1-2.9-6.7-5.2-10.7-6.8
		c-4-1.6-8.1-2.4-12.4-2.4c-8,0-15,2.4-21,7.3c-6,4.8-9.9,11.2-11.8,19v0.3c0,0.4,0.1,0.7,0.4,1c0.3,0.3,0.6,0.4,1,0.4h8.7
		c0.6,0,1.1-0.3,1.3-1c1.2-2.9,2-4.6,2.3-5.1c2-3.3,4.7-5.9,8.1-7.8c3.4-1.9,7-2.8,10.9-2.8c5.9,0,10.9,2,15.2,6l-6,6
		c-0.5,0.6-0.8,1.2-0.8,2c0,0.8,0.3,1.4,0.8,2c0.6,0.6,1.2,0.8,2,0.8h19.6c0.8,0,1.4-0.3,2-0.8c0.6-0.6,0.8-1.2,0.8-2v-19.6
		C1293.9,539.9,1293.6,539.3,1293,538.7L1293,538.7z M1293,538.7"/>
	<path class="st11" d="M1291.4,574.2h-8.4c-0.6,0-1.1,0.3-1.3,1c-1.2,2.9-2,4.6-2.3,5.1c-2,3.3-4.7,5.9-8.1,7.8
		c-3.4,1.9-7,2.8-10.9,2.8c-2.8,0-5.5-0.5-8.2-1.6c-2.6-1-5-2.5-7-4.5l6-6c0.6-0.6,0.8-1.2,0.8-2c0-0.8-0.3-1.4-0.8-2
		c-0.6-0.6-1.2-0.8-2-0.8h-19.6c-0.8,0-1.4,0.3-2,0.8c-0.6,0.6-0.8,1.2-0.8,2v19.6c0,0.8,0.3,1.4,0.8,2c0.6,0.6,1.2,0.8,2,0.8
		c0.8,0,1.4-0.3,2-0.8l5.6-5.6c3.1,3,6.7,5.3,10.6,6.9c4,1.6,8.1,2.4,12.3,2.4c8,0,14.9-2.4,20.9-7.3c5.9-4.8,9.8-11.2,11.7-19
		c0-0.1,0-0.2,0-0.3c0-0.4-0.1-0.7-0.4-1C1292.1,574.4,1291.8,574.2,1291.4,574.2L1291.4,574.2z M1291.4,574.2"/>
</g>
<path class="st12" d="M450.5,355.6c0,3.1-2,5.6-4.6,5.6h-8.8v21l-21.6-21h-56.3c-2.5,0-4.6-2.5-4.6-5.6v-74.2c0-3.1,2-5.6,4.6-5.6
	H446c2.5,0,4.6,2.5,4.6,5.6V355.6z"/>
<path class="st12" d="M855.1,355.6c0,3.1-2,5.6-4.6,5.6h-8.8v21l-21.6-21h-56.3c-2.5,0-4.6-2.5-4.6-5.6v-74.2c0-3.1,2-5.6,4.6-5.6
	h86.8c2.5,0,4.6,2.5,4.6,5.6V355.6z"/>
<path class="st12" d="M1264.1,728.8c0,3.1-2,5.6-4.6,5.6h-8.8v21l-21.6-21h-56.3c-2.5,0-4.6-2.5-4.6-5.6v-74.2c0-3.1,2-5.6,4.6-5.6
	h86.8c2.5,0,4.6,2.5,4.6,5.6V728.8z"/>
<path class="st13" d="M450.5,728.8c0,3.1-2,5.6-4.6,5.6h-8.8v21l-21.6-21h-56.3c-2.5,0-4.6-2.5-4.6-5.6v-74.2c0-3.1,2-5.6,4.6-5.6
	H446c2.5,0,4.6,2.5,4.6,5.6V728.8z"/>
<path class="st14" d="M889.3,86.5c0,1.6-1,2.8-2.3,2.8h-4.5V100l-11-10.6H843c-1.3,0-2.3-1.3-2.3-2.8V48.8c0-1.6,1-2.8,2.3-2.8h44
	c1.3,0,2.3,1.3,2.3,2.8V86.5z"/>
<polygon class="st15" points="407.3,372 399,372 409.1,382.2 386.9,382.2 386.9,388 409,388 399,398 407.3,398 420.3,385 "/>
<g>
	<polygon class="st15" points="1988.7,788.6 1997,788.6 1986.9,778.5 2009.2,778.5 2009.2,772.7 1987,772.7 1997,762.6 
		1988.7,762.6 1975.7,775.6 	"/>
	<polyline class="st16" points="1971.4,294.1 2026.9,294.1 2026.9,775.8 1999.2,775.8 	"/>
</g>
<g>
	<path class="st9" d="M393.6,307.6c3.8,0,7.5-1.2,8.2-4.6h3.7v28h-5v-19.8h-6.9V307.6z"/>
</g>
<g>
	<path class="st9" d="M816.7,329.5h-19.1c0-4.6,2.4-8,6.2-10.6c3.6-2.7,8.3-4.8,8.4-9.2c0-2-0.8-5-4.7-5c-3.6,0-4.7,3-4.8,7h-4.6
		c0-6.2,3.4-10.8,9.6-10.8c6.8,0,9,5,9,8.6c0,9-12.2,10.9-13.7,15.9h13.6V329.5z"/>
</g>
<g>
	<path class="st9" d="M1214.1,688.9c3,0.1,6.2-1,6.2-4.4c0-2.4-1.8-4-4.4-4c-3.2,0-4.8,2.8-4.6,5.7h-4.6c0.2-5.4,3.7-9.5,9.3-9.5
		c4.4,0,8.8,2.5,8.8,7.5c0,2.8-1.2,5-4,6v0.1c3.2,0.6,5.1,3.4,5.1,7c0,5.3-4.6,8.6-9.9,8.6c-6.5,0-9.7-3.9-9.8-9.8h4.6
		c-0.1,3.4,1.7,6,5.3,6c3,0,5.4-1.8,5.4-5c0-4.4-3.7-4.9-7.3-4.8V688.9z"/>
</g>
<g>
	<path class="st9" d="M413.7,698.7h-3.6v6.6h-4.3v-6.6h-12v-4.5l12-16.8h4.3v17.8h3.6V698.7z M397.4,695.1h8.5v-12.3h-0.1
		L397.4,695.1z"/>
</g>
<g>
</g>
<g>
</g>
<g>
</g>
<g>
</g>
<g>
</g>
<g>
</g>
</svg>
