<?xml version="1.0" encoding="utf-8"?>
<!-- Generator: Adobe Illustrator 19.2.0, SVG Export Plug-In . SVG Version: 6.00 Build 0)  -->
<svg version="1.1" id="Layer_1" xmlns="http://www.w3.org/2000/svg" xmlns:xlink="http://www.w3.org/1999/xlink" x="0px" y="0px"
	 viewBox="0 0 2048 1000" style="enable-background:new 0 0 2048 1000;" xml:space="preserve">
<style type="text/css">
	.st0{fill:#B9E5FB;}
	.st1{fill:#116BB4;}
	.st2{fill:#FFFFFF;}
	.st3{fill:#2C5871;}
	.st4{fill:#D1ECFB;}
	.st5{fill:none;}
	.st6{fill:#3A3A3C;}
	.st7{fill-rule:evenodd;clip-rule:evenodd;fill:#DAE1E6;}
	.st8{fill-rule:evenodd;clip-rule:evenodd;fill:#B3B3B3;}
	.st9{fill-rule:evenodd;clip-rule:evenodd;fill:#ECF0F1;}
	.st10{fill-rule:evenodd;clip-rule:evenodd;fill:#2C3E50;}
	.st11{fill-rule:evenodd;clip-rule:evenodd;fill:#FACC4D;}
	.st12{fill-rule:evenodd;clip-rule:evenodd;fill:#3D566E;}
	.st13{fill:none;stroke:#343636;stroke-width:4.9841;stroke-miterlimit:10;}
	.st14{fill:#231F20;}
</style>
<rect class="st0" width="2048" height="1000"/>
<rect x="1.2" y="639.1" class="st1" width="2046.5" height="360.6"/>
<g>
	<g>
		<polygon class="st2" points="1588.6,894.9 1588.6,519.6 1588.6,314.8 1427,168 322.2,168 322.2,894.9 		"/>
		<g>
			<polygon class="st3" points="1427,314.8 1588.6,314.8 1427,168 			"/>
			<polygon class="st4" points="1588.6,314.8 1427,314.8 1588.6,461.5 			"/>
		</g>
	</g>
</g>
<g>
	<rect x="411.3" y="279.6" class="st5" width="973.7" height="119.4"/>
	<path class="st6" d="M420.4,284.9h-8.6v-5.3h23.4v5.3h-8.6v23.3h-6.3V284.9z"/>
	<path class="st6" d="M437.9,279.6h5.7v10.8h0.1c1.4-2.4,3.9-3.4,6-3.4c6,0,7.6,3.4,7.6,8.5v12.7h-5.7v-11.7c0-3.4-1-5.1-3.6-5.1
		c-3.1,0-4.4,1.7-4.4,5.9v10.8h-5.7V279.6z"/>
	<path class="st6" d="M466.3,299.2c0.2,3.6,1.9,5.2,5.1,5.2c2.3,0,4.1-1.4,4.5-2.7h5c-1.6,4.9-5,7-9.7,7c-6.5,0-10.6-4.5-10.6-10.9
		c0-6.2,4.3-10.9,10.6-10.9c7,0,10.5,5.9,10,12.3H466.3z M475.6,295.6c-0.5-2.9-1.8-4.4-4.5-4.4c-3.7,0-4.6,2.8-4.7,4.4H475.6z"/>
	<path class="st6" d="M484.6,287.5h5.4v3.8h0.1c1.1-2.6,3.8-4.4,6.6-4.4c0.4,0,0.8,0.1,1.2,0.2v5.3c-0.5-0.1-1.4-0.2-2-0.2
		c-4.2,0-5.6,3-5.6,6.6v9.3h-5.7V287.5z"/>
	<path class="st6" d="M504.9,299.2c0.2,3.6,1.9,5.2,5.1,5.2c2.3,0,4.1-1.4,4.5-2.7h5c-1.6,4.9-5,7-9.7,7c-6.5,0-10.6-4.5-10.6-10.9
		c0-6.2,4.3-10.9,10.6-10.9c7,0,10.5,5.9,10,12.3H504.9z M514.1,295.6c-0.5-2.9-1.8-4.4-4.5-4.4c-3.7,0-4.6,2.8-4.7,4.4H514.1z"/>
	<path class="st6" d="M534,293.9c0.3-5.3,5.1-6.9,9.7-6.9c4.1,0,9.1,0.9,9.1,5.9v10.8c0,1.9,0.2,3.8,0.7,4.6h-5.8
		c-0.2-0.6-0.4-1.3-0.4-2c-1.8,1.9-4.4,2.6-7,2.6c-4,0-7-2-7-6.2c0.1-9.4,14-4.4,13.8-9c0-2.4-1.7-2.8-3.7-2.8
		c-2.2,0-3.6,0.9-3.8,3.1H534z M547.1,298.1c-1,0.8-3,0.9-4.7,1.2s-3.4,1-3.4,3s1.6,2.6,3.5,2.6c4.4,0,4.6-3.5,4.6-4.8V298.1z"/>
	<path class="st6" d="M557.2,287.5h5.4v3.8h0.1c1.1-2.6,3.8-4.4,6.6-4.4c0.4,0,0.8,0.1,1.2,0.2v5.3c-0.5-0.1-1.4-0.2-2-0.2
		c-4.2,0-5.6,3-5.6,6.6v9.3h-5.7V287.5z"/>
	<path class="st6" d="M577.5,299.2c0.2,3.6,1.9,5.2,5.1,5.2c2.3,0,4.1-1.4,4.5-2.7h5c-1.6,4.9-5,7-9.7,7c-6.5,0-10.6-4.5-10.6-10.9
		c0-6.2,4.3-10.9,10.6-10.9c7,0,10.5,5.9,10,12.3H577.5z M586.7,295.6c-0.5-2.9-1.8-4.4-4.5-4.4c-3.7,0-4.6,2.8-4.7,4.4H586.7z"/>
	<path class="st6" d="M614.1,287.5h4.2v3.8h-4.2v10.2c0,1.9,0.5,2.4,2.4,2.4c0.6,0,1.2,0,1.8-0.2v4.4c-1,0.2-2.2,0.2-3.3,0.2
		c-3.5,0-6.5-0.8-6.5-4.9v-12.2h-3.4v-3.8h3.4v-6.2h5.7V287.5z"/>
	<path class="st6" d="M644.6,308.2h-5.8l-3.7-13.9H635l-3.5,13.9h-5.9l-6.6-20.7h6l3.8,14h0.1l3.4-14h5.5l3.5,14h0.1l3.8-14h5.8
		L644.6,308.2z"/>
	<path class="st6" d="M663.5,286.9c6.5,0,10.7,4.3,10.7,10.9c0,6.6-4.2,10.9-10.7,10.9c-6.5,0-10.7-4.3-10.7-10.9
		C652.9,291.3,657.1,286.9,663.5,286.9z M663.5,304.5c3.9,0,5-3.3,5-6.6s-1.2-6.6-5-6.6c-3.8,0-5,3.3-5,6.6S659.7,304.5,663.5,304.5
		z"/>
	<path class="st6" d="M696.3,287.5h4.2v3.8h-4.2v10.2c0,1.9,0.5,2.4,2.4,2.4c0.6,0,1.2,0,1.8-0.2v4.4c-1,0.2-2.2,0.2-3.3,0.2
		c-3.5,0-6.5-0.8-6.5-4.9v-12.2h-3.4v-3.8h3.4v-6.2h5.7V287.5z"/>
	<path class="st6" d="M713.3,310.8c-1.2,3.3-3.2,4.7-7.1,4.7c-1.2,0-2.3-0.1-3.5-0.2v-4.7c1.1,0.1,2.2,0.2,3.3,0.2
		c1.5-0.2,2.2-1.3,2.2-2.6c0-0.4-0.1-0.9-0.2-1.3l-7.3-19.4h6.1l4.7,14.2h0.1l4.5-14.2h5.9L713.3,310.8z"/>
	<path class="st6" d="M723.9,287.5h5.4v2.6h0.1c1.4-2.2,3.6-3.2,6.2-3.2c6.5,0,9.4,5.2,9.4,11.1c0,5.5-3,10.7-9.1,10.7
		c-2.5,0-4.8-1.1-6.2-3.1h-0.1v9.8h-5.7V287.5z M739.3,297.9c0-3.3-1.3-6.7-5-6.7c-3.7,0-4.9,3.3-4.9,6.7s1.3,6.6,5,6.6
		C738.1,304.5,739.3,301.3,739.3,297.9z"/>
	<path class="st6" d="M753,299.2c0.2,3.6,1.9,5.2,5.1,5.2c2.3,0,4.1-1.4,4.5-2.7h5c-1.6,4.9-5,7-9.7,7c-6.5,0-10.6-4.5-10.6-10.9
		c0-6.2,4.3-10.9,10.6-10.9c7,0,10.5,5.9,10,12.3H753z M762.3,295.6c-0.5-2.9-1.8-4.4-4.5-4.4c-3.7,0-4.6,2.8-4.7,4.4H762.3z"/>
	<path class="st6" d="M775.7,301.5c0,2.4,2.2,3.5,4.4,3.5c1.6,0,3.7-0.6,3.7-2.6c0-1.7-2.4-2.4-6.4-3.2c-3.3-0.8-6.6-1.8-6.6-5.5
		c0-5.3,4.6-6.6,9-6.6c4.5,0,8.7,1.5,9.1,6.6h-5.4c-0.2-2.2-1.8-2.8-3.9-2.8c-1.3,0-3.2,0.2-3.2,1.9c0,2,3.2,2.3,6.4,3.1
		c3.3,0.8,6.6,2,6.6,5.8c0,5.4-4.8,7.2-9.4,7.2c-4.8,0-9.5-1.8-9.7-7.3H775.7z"/>
	<path class="st6" d="M813.9,286.9c6.5,0,10.7,4.3,10.7,10.9c0,6.6-4.2,10.9-10.7,10.9c-6.5,0-10.7-4.3-10.7-10.9
		C803.3,291.3,807.5,286.9,813.9,286.9z M813.9,304.5c3.9,0,5-3.3,5-6.6s-1.2-6.6-5-6.6c-3.8,0-5,3.3-5,6.6S810.1,304.5,813.9,304.5
		z"/>
	<path class="st6" d="M829.6,291.3h-3.4v-3.8h3.4v-1.6c0-3.7,2.3-6.3,6.9-6.3c1,0,2,0.1,3,0.2v4.2c-0.7-0.1-1.4-0.1-2.1-0.1
		c-1.6,0-2.2,0.6-2.2,2.4v1.2h3.9v3.8h-3.9v16.9h-5.7V291.3z"/>
	<path class="st6" d="M853.4,279.6h12.3c7.4,0,13,4.7,13,14.1c0,8.3-4.2,14.4-13,14.4h-12.3V279.6z M859.7,302.9h5.6
		c3.6,0,7.1-2.2,7.1-8.6c0-5.8-2-9.4-8.2-9.4h-4.5V302.9z"/>
	<path class="st6" d="M887.1,299.2c0.2,3.6,1.9,5.2,5.1,5.2c2.3,0,4.1-1.4,4.5-2.7h5c-1.6,4.9-5,7-9.7,7c-6.5,0-10.6-4.5-10.6-10.9
		c0-6.2,4.3-10.9,10.6-10.9c7,0,10.5,5.9,10,12.3H887.1z M896.3,295.6c-0.5-2.9-1.8-4.4-4.5-4.4c-3.7,0-4.6,2.8-4.7,4.4H896.3z"/>
	<path class="st6" d="M909.8,301.5c0,2.4,2.2,3.5,4.4,3.5c1.6,0,3.7-0.6,3.7-2.6c0-1.7-2.4-2.4-6.4-3.2c-3.3-0.8-6.6-1.8-6.6-5.5
		c0-5.3,4.6-6.6,9-6.6c4.5,0,8.7,1.5,9.1,6.6h-5.4c-0.2-2.2-1.8-2.8-3.9-2.8c-1.3,0-3.2,0.2-3.2,1.9c0,2,3.2,2.3,6.4,3.1
		c3.3,0.8,6.6,2,6.6,5.8c0,5.4-4.8,7.2-9.4,7.2c-4.8,0-9.5-1.8-9.7-7.3H909.8z"/>
	<path class="st6" d="M932.7,284.3H927v-4.7h5.7V284.3z M927,287.5h5.7v20.7H927V287.5z"/>
	<path class="st6" d="M957.1,306.9c0,3.4-1.2,9.2-10.7,9.2c-4.1,0-8.8-2-9.1-6.6h5.6c0.5,2.1,2.2,2.8,4.2,2.8c3.2,0,4.6-2.1,4.6-5.1
		v-2.7h-0.1c-1.2,2.2-3.7,3.2-6.2,3.2c-6.2,0-8.8-4.7-8.8-10.4c0-5.4,3.1-10.2,8.9-10.2c2.7,0,4.8,0.9,6.2,3.3h0.1v-2.8h5.4V306.9z
		 M951.7,297.6c0-3.4-1.2-6.4-4.8-6.4c-3.2,0-4.6,2.8-4.6,5.9c0,3,1.1,6.2,4.6,6.2C950.1,303.3,951.7,300.5,951.7,297.6z"/>
	<path class="st6" d="M961.6,287.5h5.4v2.9h0.1c1.4-2.4,3.9-3.4,6.3-3.4c6,0,7.6,3.4,7.6,8.5v12.7h-5.7v-11.7c0-3.4-1-5.1-3.6-5.1
		c-3.1,0-4.4,1.7-4.4,5.9v10.8h-5.7V287.5z"/>
	<path class="st6" d="M996.2,293.9c0.3-5.3,5.1-6.9,9.7-6.9c4.1,0,9.1,0.9,9.1,5.9v10.8c0,1.9,0.2,3.8,0.7,4.6h-5.8
		c-0.2-0.6-0.4-1.3-0.4-2c-1.8,1.9-4.4,2.6-7,2.6c-4,0-7-2-7-6.2c0.1-9.4,14-4.4,13.8-9c0-2.4-1.7-2.8-3.7-2.8
		c-2.2,0-3.6,0.9-3.8,3.1H996.2z M1009.3,298.1c-1,0.8-3,0.9-4.7,1.2s-3.4,1-3.4,3s1.6,2.6,3.5,2.6c4.4,0,4.6-3.5,4.6-4.8V298.1z"/>
	<path class="st6" d="M1019.4,287.5h5.4v2.9h0.1c1.4-2.4,3.9-3.4,6.3-3.4c6,0,7.6,3.4,7.6,8.5v12.7h-5.7v-11.7c0-3.4-1-5.1-3.6-5.1
		c-3.1,0-4.4,1.7-4.4,5.9v10.8h-5.7V287.5z"/>
	<path class="st6" d="M1057.9,305.5L1057.9,305.5c-1.4,2.2-3.7,3.2-6.4,3.2c-6.2,0-9.3-5.3-9.3-11.1c0-5.6,3.1-10.7,9.2-10.7
		c2.4,0,4.8,1,6.1,3.1h0.1v-10.4h5.7v28.6h-5.4V305.5z M1052.9,291.2c-3.7,0-5,3.2-5,6.6c0,3.2,1.5,6.6,5,6.6c3.7,0,4.9-3.3,4.9-6.7
		C1057.8,294.4,1056.6,291.2,1052.9,291.2z"/>
	<path class="st6" d="M1079.3,279.6h12.3c7.4,0,13,4.7,13,14.1c0,8.3-4.2,14.4-13,14.4h-12.3V279.6z M1085.6,302.9h5.6
		c3.6,0,7.1-2.2,7.1-8.6c0-5.8-2-9.4-8.2-9.4h-4.5V302.9z"/>
	<path class="st6" d="M1113,299.2c0.2,3.6,1.9,5.2,5.1,5.2c2.3,0,4.1-1.4,4.5-2.7h5c-1.6,4.9-5,7-9.7,7c-6.5,0-10.6-4.5-10.6-10.9
		c0-6.2,4.3-10.9,10.6-10.9c7,0,10.5,5.9,10,12.3H1113z M1122.3,295.6c-0.5-2.9-1.8-4.4-4.5-4.4c-3.7,0-4.6,2.8-4.7,4.4H1122.3z"/>
	<path class="st6" d="M1142.7,308.2h-6.3l-7.1-20.7h6l4.4,14.1h0.1l4.4-14.1h5.6L1142.7,308.2z"/>
	<path class="st6" d="M1156.8,299.2c0.2,3.6,1.9,5.2,5.1,5.2c2.3,0,4.1-1.4,4.5-2.7h5c-1.6,4.9-5,7-9.7,7c-6.5,0-10.6-4.5-10.6-10.9
		c0-6.2,4.3-10.9,10.6-10.9c7,0,10.5,5.9,10,12.3H1156.8z M1166,295.6c-0.5-2.9-1.8-4.4-4.5-4.4c-3.7,0-4.6,2.8-4.7,4.4H1166z"/>
	<path class="st6" d="M1175.2,279.6h5.7v28.6h-5.7V279.6z"/>
	<path class="st6" d="M1195.4,286.9c6.5,0,10.7,4.3,10.7,10.9c0,6.6-4.2,10.9-10.7,10.9c-6.5,0-10.7-4.3-10.7-10.9
		C1184.7,291.3,1188.9,286.9,1195.4,286.9z M1195.4,304.5c3.9,0,5-3.3,5-6.6s-1.2-6.6-5-6.6c-3.8,0-5,3.3-5,6.6
		S1191.6,304.5,1195.4,304.5z"/>
	<path class="st6" d="M1209.8,287.5h5.4v2.6h0.1c1.4-2.2,3.6-3.2,6.2-3.2c6.5,0,9.4,5.2,9.4,11.1c0,5.5-3,10.7-9.1,10.7
		c-2.5,0-4.8-1.1-6.2-3.1h-0.1v9.8h-5.7V287.5z M1225.2,297.9c0-3.3-1.3-6.7-5-6.7c-3.7,0-4.9,3.3-4.9,6.7s1.3,6.6,5,6.6
		C1224,304.5,1225.2,301.3,1225.2,297.9z"/>
	<path class="st6" d="M1234.4,287.5h5.4v2.8h0.1c1.5-2.1,3.6-3.4,6.3-3.4c2.6,0,4.9,0.9,6,3.4c1.2-1.8,3.4-3.4,6.2-3.4
		c4.4,0,7.6,2,7.6,7.4v13.8h-5.7v-11.7c0-2.8-0.2-5-3.5-5c-3.2,0-3.8,2.7-3.8,5.2v11.5h-5.7v-11.6c0-2.4,0.2-5.2-3.4-5.2
		c-1.1,0-3.8,0.7-3.8,4.8v12h-5.7V287.5z"/>
	<path class="st6" d="M1275.2,299.2c0.2,3.6,1.9,5.2,5.1,5.2c2.3,0,4.1-1.4,4.5-2.7h5c-1.6,4.9-5,7-9.7,7c-6.5,0-10.6-4.5-10.6-10.9
		c0-6.2,4.3-10.9,10.6-10.9c7,0,10.5,5.9,10,12.3H1275.2z M1284.4,295.6c-0.5-2.9-1.8-4.4-4.5-4.4c-3.7,0-4.6,2.8-4.7,4.4H1284.4z"
		/>
	<path class="st6" d="M1293.5,287.5h5.4v2.9h0.1c1.4-2.4,3.9-3.4,6.3-3.4c6,0,7.6,3.4,7.6,8.5v12.7h-5.7v-11.7c0-3.4-1-5.1-3.6-5.1
		c-3.1,0-4.4,1.7-4.4,5.9v10.8h-5.7V287.5z"/>
	<path class="st6" d="M1324.4,287.5h4.2v3.8h-4.2v10.2c0,1.9,0.5,2.4,2.4,2.4c0.6,0,1.2,0,1.8-0.2v4.4c-1,0.2-2.2,0.2-3.3,0.2
		c-3.5,0-6.5-0.8-6.5-4.9v-12.2h-3.4v-3.8h3.4v-6.2h5.7V287.5z"/>
	<path class="st6" d="M414.1,327.6H427c7.2,0,9.9,4.5,9.9,9.2c0,4.6-2.7,9.2-9.9,9.2h-6.6v10.2h-6.3V327.6z M420.4,341.1h4.9
		c2.9,0,5.5-0.6,5.5-4.3c0-3.6-2.6-4.3-5.5-4.3h-4.9V341.1z"/>
	<path class="st6" d="M440.3,327.6h5.7v28.6h-5.7V327.6z"/>
	<path class="st6" d="M450.3,341.9c0.3-5.3,5.1-6.9,9.7-6.9c4.1,0,9.1,0.9,9.1,5.9v10.8c0,1.9,0.2,3.8,0.7,4.6H464
		c-0.2-0.6-0.4-1.3-0.4-2c-1.8,1.9-4.4,2.6-7,2.6c-4,0-7-2-7-6.2c0.1-9.4,14-4.4,13.8-9c0-2.4-1.7-2.8-3.7-2.8
		c-2.2,0-3.6,0.9-3.8,3.1H450.3z M463.4,346.1c-1,0.8-3,0.9-4.7,1.2s-3.4,1-3.4,3s1.6,2.6,3.5,2.6c4.4,0,4.6-3.5,4.6-4.8V346.1z"/>
	<path class="st6" d="M473.5,335.5h5.4v2.9h0.1c1.4-2.4,3.9-3.4,6.3-3.4c6,0,7.6,3.4,7.6,8.5v12.7h-5.7v-11.7c0-3.4-1-5.1-3.6-5.1
		c-3.1,0-4.4,1.7-4.4,5.9v10.8h-5.7V335.5z"/>
	<path class="st6" d="M501.6,349.5c0,2.4,2.2,3.5,4.4,3.5c1.6,0,3.7-0.6,3.7-2.6c0-1.7-2.4-2.4-6.4-3.2c-3.3-0.8-6.6-1.8-6.6-5.5
		c0-5.3,4.6-6.6,9-6.6c4.5,0,8.7,1.5,9.1,6.6h-5.4c-0.2-2.2-1.8-2.8-3.9-2.8c-1.3,0-3.2,0.2-3.2,1.9c0,2,3.2,2.3,6.4,3.1
		c3.3,0.8,6.6,2,6.6,5.8c0,5.4-4.8,7.2-9.4,7.2c-4.8,0-9.5-1.8-9.7-7.3H501.6z"/>
</g>
<g>
	<rect x="411.3" y="439.5" class="st5" width="884.4" height="471.5"/>
	<path class="st6" d="M421.3,446.6c4,0,7.2,3.2,7.2,7.1c0,4-3.2,7.2-7.2,7.2c-4,0-7.1-3.2-7.1-7.2
		C414.2,449.8,417.4,446.6,421.3,446.6z"/>
	<path class="st6" d="M445.6,439.5h12.5c5.7,0,8.8,3.1,8.8,8.4c0,5.3-3,8.5-8.8,8.4h-8.7V468h-3.8V439.5z M449.4,453.1h7.4
		c4.3,0,6.2-1.8,6.2-5.2s-1.9-5.2-6.2-5.2h-7.4V453.1z"/>
	<path class="st6" d="M470.8,447.3h3.2v4.4h0.1c1.6-3.4,3.9-5,7.6-4.8v3.6c-5.5,0-7.5,3.1-7.5,8.4v9.2h-3.4V447.3z"/>
	<path class="st6" d="M493.2,446.9c6.6,0,10,4.8,10,10.8c0,6-3.5,10.8-10,10.8c-6.6,0-10-4.8-10-10.8
		C483.1,451.6,486.6,446.9,493.2,446.9z M493.2,465.5c3.6,0,6.4-2.8,6.4-7.8s-2.9-7.8-6.4-7.8c-3.6,0-6.4,2.8-6.4,7.8
		S489.6,465.5,493.2,465.5z"/>
	<path class="st6" d="M510.8,470.7c0,3.7-1.9,5.3-5,5.3c-0.6,0-1.2,0-1.8-0.2v-2.9c0.2,0,0.5,0.1,0.7,0.1h0.7c1.5,0,1.9-0.7,1.9-2.8
		v-22.8h3.4V470.7z M510.8,443.6h-3.4v-4.2h3.4V443.6z"/>
	<path class="st6" d="M533.7,461.5c-0.9,4.6-4.2,7-8.8,7c-6.6,0-9.7-4.6-9.9-10.9c0-6.2,4.1-10.8,9.7-10.8c7.3,0,9.6,6.8,9.4,11.8
		h-15.5c-0.1,3.6,1.9,6.8,6.4,6.8c2.8,0,4.8-1.3,5.4-4H533.7z M530.5,455.7c-0.2-3.2-2.6-5.8-6-5.8c-3.5,0-5.7,2.6-5.9,5.8H530.5z"
		/>
	<path class="st6" d="M551.6,454c-0.5-2.6-2.3-4.1-5.1-4.1c-4.9,0-6.4,3.9-6.4,8.1c0,3.8,1.7,7.6,6,7.6c3.3,0,5.2-1.9,5.7-5h3.5
		c-0.8,5.1-3.9,8-9.1,8c-6.3,0-9.7-4.4-9.7-10.6c0-6.2,3.2-11.1,9.8-11.1c4.7,0,8.4,2.2,8.9,7.1H551.6z"/>
	<path class="st6" d="M563.8,447.3h4.1v3h-4.1v12.8c0,1.6,0.4,1.8,2.6,1.8h1.6v3h-2.6c-3.5,0-4.9-0.7-4.9-4.5v-13.2h-3.5v-3h3.5
		v-6.2h3.4V447.3z"/>
	<path class="st6" d="M583.3,439.5h9.8c8.8,0,13.7,4.4,13.7,13.6c0,9.6-4.2,15-13.7,15h-9.8V439.5z M587.1,464.8h6.3
		c2.6,0,9.6-0.7,9.6-11.2c0-6.8-2.5-10.9-9.5-10.9h-6.4V464.8z"/>
	<path class="st6" d="M628.6,461.5c-0.9,4.6-4.2,7-8.8,7c-6.6,0-9.7-4.6-9.9-10.9c0-6.2,4.1-10.8,9.7-10.8c7.3,0,9.6,6.8,9.4,11.8
		h-15.5c-0.1,3.6,1.9,6.8,6.4,6.8c2.8,0,4.8-1.3,5.4-4H628.6z M625.3,455.7c-0.2-3.2-2.6-5.8-6-5.8c-3.5,0-5.7,2.6-5.9,5.8H625.3z"
		/>
	<path class="st6" d="M641.7,468h-3.6l-7.7-20.7h3.8l5.8,17.2h0.1l5.6-17.2h3.6L641.7,468z"/>
	<path class="st6" d="M670.1,461.5c-0.9,4.6-4.2,7-8.8,7c-6.6,0-9.7-4.6-9.9-10.9c0-6.2,4.1-10.8,9.7-10.8c7.3,0,9.6,6.8,9.4,11.8
		h-15.5c-0.1,3.6,1.9,6.8,6.4,6.8c2.8,0,4.8-1.3,5.4-4H670.1z M666.8,455.7c-0.2-3.2-2.6-5.8-6-5.8c-3.5,0-5.7,2.6-5.9,5.8H666.8z"
		/>
	<path class="st6" d="M674.1,439.5h3.4V468h-3.4V439.5z"/>
	<path class="st6" d="M691.7,446.9c6.6,0,10,4.8,10,10.8c0,6-3.5,10.8-10,10.8c-6.6,0-10-4.8-10-10.8
		C681.7,451.6,685.1,446.9,691.7,446.9z M691.7,465.5c3.6,0,6.4-2.8,6.4-7.8s-2.9-7.8-6.4-7.8c-3.6,0-6.4,2.8-6.4,7.8
		S688.1,465.5,691.7,465.5z"/>
	<path class="st6" d="M705.9,447.3h3.4v2.8h0.1c1.1-2.3,3.7-3.3,6.6-3.3c6.4,0,9.5,5,9.5,10.9c0,5.9-3.1,10.8-9.4,10.8
		c-2.1,0-5.2-0.8-6.7-3.2h-0.1v10.7h-3.4V447.3z M715.5,449.9c-4.6,0-6.3,4-6.3,7.8c0,4,1.8,7.8,6.5,7.8c4.6,0,6.2-4,6.2-8
		C721.9,453.6,719.9,449.9,715.5,449.9z"/>
	<path class="st6" d="M729.5,447.3h3.2v3h0.1c1.6-2.4,3.8-3.5,6.7-3.5c2.6,0,4.8,1,5.7,3.5c1.4-2.2,3.8-3.5,6.5-3.5
		c4.1,0,6.9,1.7,6.9,6V468h-3.4v-13.6c0-2.6-0.7-4.6-4-4.6s-5.4,2.1-5.4,5.3V468h-3.4v-13.6c0-2.7-0.8-4.6-3.9-4.6
		c-4,0-5.5,3.7-5.5,5.3V468h-3.4V447.3z"/>
	<path class="st6" d="M781.2,461.5c-0.9,4.6-4.2,7-8.8,7c-6.6,0-9.7-4.6-9.9-10.9c0-6.2,4.1-10.8,9.7-10.8c7.3,0,9.6,6.8,9.4,11.8
		h-15.5c-0.1,3.6,1.9,6.8,6.4,6.8c2.8,0,4.8-1.3,5.4-4H781.2z M777.9,455.7c-0.2-3.2-2.6-5.8-6-5.8c-3.5,0-5.7,2.6-5.9,5.8H777.9z"
		/>
	<path class="st6" d="M785.1,447.3h3.2v3.3h0.1c1.4-2.6,3.7-3.8,6.7-3.8c5.4,0,7.1,3.1,7.1,7.6V468h-3.4v-14c0-2.6-1.6-4.2-4.2-4.2
		c-4.1,0-6.1,2.8-6.1,6.5V468h-3.4V447.3z"/>
	<path class="st6" d="M812,447.3h4.1v3H812v12.8c0,1.6,0.4,1.8,2.6,1.8h1.6v3h-2.6c-3.5,0-4.9-0.7-4.9-4.5v-13.2h-3.5v-3h3.5v-6.2
		h3.4V447.3z"/>
	<path class="st6" d="M831.6,439.5h12.5c5.7,0,8.8,3.1,8.8,8.4c0,5.3-3,8.5-8.8,8.4h-8.7V468h-3.8V439.5z M835.4,453.1h7.4
		c4.3,0,6.2-1.8,6.2-5.2s-1.9-5.2-6.2-5.2h-7.4V453.1z"/>
	<path class="st6" d="M857.1,439.5h3.4V468h-3.4V439.5z"/>
	<path class="st6" d="M884.1,467.9c-0.6,0.4-1.4,0.6-2.4,0.6c-1.8,0-2.9-1-2.9-3.2c-1.9,2.2-4.4,3.2-7.3,3.2c-3.8,0-6.8-1.6-6.8-5.8
		c0-4.7,3.5-5.7,7-6.4c3.7-0.8,7-0.4,7-3c0-3-2.5-3.4-4.6-3.4c-2.9,0-5,0.9-5.2,3.9h-3.4c0.2-5.1,4.1-6.9,8.8-6.9
		c3.7,0,7.8,0.8,7.8,5.7v10.6c0,1.6,0,2.3,1.1,2.3c0.3,0,0.7-0.1,1-0.2V467.9z M878.6,457.3c-2.6,2-10.3,0-10.3,5.1c0,2.2,1.9,3,4,3
		c4.5,0,6.3-2.8,6.3-4.7V457.3z"/>
	<path class="st6" d="M887.3,447.3h3.2v3.3h0.1c1.4-2.6,3.7-3.8,6.7-3.8c5.4,0,7.1,3.1,7.1,7.6V468H901v-14c0-2.6-1.6-4.2-4.2-4.2
		c-4.1,0-6.1,2.8-6.1,6.5V468h-3.4V447.3z"/>
	<path class="st6" d="M918.1,455.3h20v3.2h-20V455.3z"/>
	<path class="st6" d="M965.8,454c-0.5-2.6-2.3-4.1-5.1-4.1c-4.9,0-6.4,3.9-6.4,8.1c0,3.8,1.7,7.6,6,7.6c3.3,0,5.2-1.9,5.7-5h3.5
		c-0.8,5.1-3.9,8-9.1,8c-6.3,0-9.7-4.4-9.7-10.6c0-6.2,3.2-11.1,9.8-11.1c4.7,0,8.4,2.2,8.9,7.1H965.8z"/>
	<path class="st6" d="M991.6,467.9c-0.6,0.4-1.4,0.6-2.4,0.6c-1.8,0-2.9-1-2.9-3.2c-1.9,2.2-4.4,3.2-7.3,3.2c-3.8,0-6.8-1.6-6.8-5.8
		c0-4.7,3.5-5.7,7-6.4c3.7-0.8,7-0.4,7-3c0-3-2.5-3.4-4.6-3.4c-2.9,0-5,0.9-5.2,3.9h-3.4c0.2-5.1,4.1-6.9,8.8-6.9
		c3.7,0,7.8,0.8,7.8,5.7v10.6c0,1.6,0,2.3,1.1,2.3c0.3,0,0.7-0.1,1-0.2V467.9z M986.1,457.3c-2.6,2-10.3,0-10.3,5.1c0,2.2,1.9,3,4,3
		c4.5,0,6.3-2.8,6.3-4.7V457.3z"/>
	<path class="st6" d="M994.9,447.3h3.4v2.8h0.1c1.1-2.3,3.7-3.3,6.6-3.3c6.4,0,9.5,5,9.5,10.9c0,5.9-3.1,10.8-9.4,10.8
		c-2.1,0-5.2-0.8-6.7-3.2h-0.1v10.7h-3.4V447.3z M1004.5,449.9c-4.6,0-6.3,4-6.3,7.8c0,4,1.8,7.8,6.5,7.8c4.6,0,6.2-4,6.2-8
		C1010.9,453.6,1008.9,449.9,1004.5,449.9z"/>
	<path class="st6" d="M1023.2,447.3h4.1v3h-4.1v12.8c0,1.6,0.4,1.8,2.6,1.8h1.6v3h-2.6c-3.5,0-4.9-0.7-4.9-4.5v-13.2h-3.5v-3h3.5
		v-6.2h3.4V447.3z"/>
	<path class="st6" d="M1048.2,468h-3.2v-3.3h-0.1c-1.4,2.6-3.7,3.8-6.7,3.8c-5.4,0-7.1-3.1-7.1-7.6v-13.6h3.4v14
		c0,2.6,1.6,4.2,4.2,4.2c4.1,0,6.1-2.8,6.1-6.5v-11.7h3.4V468z"/>
	<path class="st6" d="M1053.2,447.3h3.2v4.4h0.1c1.6-3.4,3.9-5,7.6-4.8v3.6c-5.5,0-7.5,3.1-7.5,8.4v9.2h-3.4V447.3z"/>
	<path class="st6" d="M1084.3,461.5c-0.9,4.6-4.2,7-8.8,7c-6.6,0-9.7-4.6-9.9-10.9c0-6.2,4.1-10.8,9.7-10.8c7.3,0,9.6,6.8,9.4,11.8
		h-15.5c-0.1,3.6,1.9,6.8,6.4,6.8c2.8,0,4.8-1.3,5.4-4H1084.3z M1081,455.7c-0.2-3.2-2.6-5.8-6-5.8c-3.5,0-5.7,2.6-5.9,5.8H1081z"/>
	<path class="st6" d="M1090.2,461.5c0.1,3,2.8,4,5.6,4c2.1,0,5-0.5,5-3.1c0-5.3-13.5-1.7-13.5-9.7c0-4.2,4.1-5.9,7.7-5.9
		c4.6,0,8.2,1.4,8.5,6.5h-3.4c-0.2-2.6-2.6-3.5-4.8-3.5c-2,0-4.4,0.6-4.4,2.6c0,2.4,3.6,2.9,6.8,3.6c3.4,0.8,6.8,1.9,6.8,5.9
		c0,5-4.6,6.5-8.8,6.5c-4.6,0-8.6-1.9-8.8-7H1090.2z"/>
	<path class="st6" d="M1119.2,439.5h3.4v10.9h0.1c1.1-2.5,4.1-3.5,6.5-3.5c5.4,0,7.1,3.1,7.1,7.6V468h-3.4v-14
		c0-2.6-1.6-4.2-4.2-4.2c-4.1,0-6.1,2.8-6.1,6.5V468h-3.4V439.5z"/>
	<path class="st6" d="M1145.1,443.6h-3.4v-4.2h3.4V443.6z M1141.7,447.3h3.4V468h-3.4V447.3z"/>
	<path class="st6" d="M1168.2,466.3c0,6.8-3,10.2-9.6,10.2c-3.9,0-8.4-1.6-8.6-6.1h3.4c0.1,2.4,3.2,3.4,5.4,3.4
		c4.4,0,6.2-3.2,6.2-7.8v-1.4h-0.1c-1.2,2.5-3.8,3.8-6.4,3.8c-6.2,0-9.2-4.8-9.2-10.5c0-4.9,2.4-10.9,9.6-10.9
		c2.6,0,4.9,1.2,6.2,3.4h0v-3h3.2V466.3z M1164.8,457.3c0-3.6-1.6-7.4-5.9-7.4c-4.4,0-6.1,3.6-6.1,7.5c0,3.7,1.4,7.9,5.8,7.9
		C1163.1,465.3,1164.8,461.1,1164.8,457.3z"/>
	<path class="st6" d="M1173.3,439.5h3.4v10.9h0.1c1.1-2.5,4.1-3.5,6.5-3.5c5.4,0,7.1,3.1,7.1,7.6V468h-3.4v-14
		c0-2.6-1.6-4.2-4.2-4.2c-4.1,0-6.1,2.8-6.1,6.5V468h-3.4V439.5z"/>
	<path class="st6" d="M1195,455.3h11.6v3.2H1195V455.3z"/>
	<path class="st6" d="M1211.3,439.5h3.4V468h-3.4V439.5z"/>
	<path class="st6" d="M1237.6,461.5c-0.9,4.6-4.2,7-8.8,7c-6.6,0-9.7-4.6-9.9-10.9c0-6.2,4.1-10.8,9.7-10.8c7.3,0,9.6,6.8,9.4,11.8
		h-15.5c-0.1,3.6,1.9,6.8,6.4,6.8c2.8,0,4.8-1.3,5.4-4H1237.6z M1234.3,455.7c-0.2-3.2-2.6-5.8-6-5.8c-3.5,0-5.7,2.6-5.9,5.8H1234.3
		z"/>
	<path class="st6" d="M1250.8,468h-3.6l-7.7-20.7h3.8l5.8,17.2h0.1l5.6-17.2h3.6L1250.8,468z"/>
	<path class="st6" d="M1279.1,461.5c-0.9,4.6-4.2,7-8.8,7c-6.6,0-9.7-4.6-9.9-10.9c0-6.2,4.1-10.8,9.7-10.8c7.3,0,9.6,6.8,9.4,11.8
		h-15.5c-0.1,3.6,1.9,6.8,6.4,6.8c2.8,0,4.8-1.3,5.4-4H1279.1z M1275.8,455.7c-0.2-3.2-2.6-5.8-6-5.8c-3.5,0-5.7,2.6-5.9,5.8H1275.8
		z"/>
	<path class="st6" d="M1283.1,439.5h3.4V468h-3.4V439.5z"/>
	<path class="st6" d="M434,495.3h3.4v2.8h0.1c1.1-2.3,3.7-3.3,6.6-3.3c6.4,0,9.5,5,9.5,10.9c0,5.9-3.1,10.8-9.4,10.8
		c-2.1,0-5.2-0.8-6.7-3.2h-0.1v10.7H434V495.3z M443.6,497.9c-4.6,0-6.3,4-6.3,7.8c0,4,1.8,7.8,6.5,7.8c4.6,0,6.2-4,6.2-8
		C450,501.6,448,497.9,443.6,497.9z"/>
	<path class="st6" d="M457.8,487.5h3.4V516h-3.4V487.5z"/>
	<path class="st6" d="M484.8,515.9c-0.6,0.4-1.4,0.6-2.4,0.6c-1.8,0-2.9-1-2.9-3.2c-1.9,2.2-4.4,3.2-7.3,3.2c-3.8,0-6.8-1.6-6.8-5.8
		c0-4.7,3.5-5.7,7-6.4c3.7-0.8,7-0.4,7-3c0-3-2.5-3.4-4.6-3.4c-2.9,0-5,0.9-5.2,3.9h-3.4c0.2-5.1,4.1-6.9,8.8-6.9
		c3.7,0,7.8,0.8,7.8,5.7v10.6c0,1.6,0,2.3,1.1,2.3c0.3,0,0.7-0.1,1-0.2V515.9z M479.3,505.3c-2.6,2-10.3,0-10.3,5.1c0,2.2,1.9,3,4,3
		c4.5,0,6.3-2.8,6.3-4.7V505.3z"/>
	<path class="st6" d="M488,495.3h3.2v3.3h0.1c1.4-2.6,3.7-3.8,6.7-3.8c5.4,0,7.1,3.1,7.1,7.6V516h-3.4v-14c0-2.6-1.6-4.2-4.2-4.2
		c-4.1,0-6.1,2.8-6.1,6.5V516H488V495.3z"/>
	<path class="st6" d="M510.2,495.3h3.2v3.3h0.1c1.4-2.6,3.7-3.8,6.7-3.8c5.4,0,7.1,3.1,7.1,7.6V516h-3.4v-14c0-2.6-1.6-4.2-4.2-4.2
		c-4.1,0-6.1,2.8-6.1,6.5V516h-3.4V495.3z"/>
	<path class="st6" d="M536.1,491.6h-3.4v-4.2h3.4V491.6z M532.7,495.3h3.4V516h-3.4V495.3z"/>
	<path class="st6" d="M541.3,495.3h3.2v3.3h0.1c1.4-2.6,3.7-3.8,6.7-3.8c5.4,0,7.1,3.1,7.1,7.6V516h-3.4v-14c0-2.6-1.6-4.2-4.2-4.2
		c-4.1,0-6.1,2.8-6.1,6.5V516h-3.4V495.3z"/>
	<path class="st6" d="M581.4,514.3c0,6.8-3,10.2-9.6,10.2c-3.9,0-8.4-1.6-8.6-6.1h3.4c0.1,2.4,3.2,3.4,5.4,3.4
		c4.4,0,6.2-3.2,6.2-7.8v-1.4h-0.1c-1.2,2.5-3.8,3.8-6.4,3.8c-6.2,0-9.2-4.8-9.2-10.5c0-4.9,2.4-10.9,9.6-10.9
		c2.6,0,4.9,1.2,6.2,3.4h0v-3h3.2V514.3z M578.1,505.3c0-3.6-1.6-7.4-5.9-7.4c-4.4,0-6.1,3.6-6.1,7.5c0,3.7,1.4,7.9,5.8,7.9
		S578.1,509.1,578.1,505.3z"/>
	<path class="st6" d="M616,515.9c-0.6,0.4-1.4,0.6-2.4,0.6c-1.8,0-2.9-1-2.9-3.2c-1.9,2.2-4.4,3.2-7.3,3.2c-3.8,0-6.8-1.6-6.8-5.8
		c0-4.7,3.5-5.7,7-6.4c3.7-0.8,7-0.4,7-3c0-3-2.5-3.4-4.6-3.4c-2.9,0-5,0.9-5.2,3.9h-3.4c0.2-5.1,4.1-6.9,8.8-6.9
		c3.7,0,7.8,0.8,7.8,5.7v10.6c0,1.6,0,2.3,1.1,2.3c0.3,0,0.7-0.1,1-0.2V515.9z M610.5,505.3c-2.6,2-10.3,0-10.3,5.1c0,2.2,1.9,3,4,3
		c4.5,0,6.3-2.8,6.3-4.7V505.3z"/>
	<path class="st6" d="M619.1,495.3h3.2v3.3h0.1c1.4-2.6,3.7-3.8,6.7-3.8c5.4,0,7.1,3.1,7.1,7.6V516h-3.4v-14c0-2.6-1.6-4.2-4.2-4.2
		c-4.1,0-6.1,2.8-6.1,6.5V516h-3.4V495.3z"/>
	<path class="st6" d="M659.9,516h-3.4v-2.8h-0.1c-1.1,2.3-3.7,3.3-6.6,3.3c-6.4,0-9.5-5-9.5-10.9c0-5.8,3.1-10.8,9.4-10.8
		c2.1,0,5.2,0.8,6.7,3.2h0.1v-10.6h3.4V516z M650.3,513.5c4.6,0,6.3-4,6.3-7.8c0-4-1.8-7.8-6.5-7.8c-4.6,0-6.2,4-6.2,8
		C643.9,509.7,645.9,513.5,650.3,513.5z"/>
	<path class="st6" d="M690.3,502c-0.5-2.6-2.3-4.1-5.1-4.1c-4.9,0-6.4,3.9-6.4,8.1c0,3.8,1.7,7.6,6,7.6c3.3,0,5.2-1.9,5.7-5h3.5
		c-0.8,5.1-3.9,8-9.1,8c-6.3,0-9.7-4.4-9.7-10.6s3.2-11.1,9.8-11.1c4.7,0,8.4,2.2,8.9,7.1H690.3z"/>
	<path class="st6" d="M706.6,494.9c6.6,0,10,4.8,10,10.8c0,6-3.5,10.8-10,10.8c-6.6,0-10-4.8-10-10.8
		C696.6,499.6,700.1,494.9,706.6,494.9z M706.6,513.5c3.6,0,6.4-2.8,6.4-7.8s-2.9-7.8-6.4-7.8c-3.6,0-6.4,2.8-6.4,7.8
		S703.1,513.5,706.6,513.5z"/>
	<path class="st6" d="M720.7,495.3h3.2v3.3h0.1c1.4-2.6,3.7-3.8,6.7-3.8c5.4,0,7.1,3.1,7.1,7.6V516h-3.4v-14c0-2.6-1.6-4.2-4.2-4.2
		c-4.1,0-6.1,2.8-6.1,6.5V516h-3.4V495.3z"/>
	<path class="st6" d="M745,509.5c0.1,3,2.8,4,5.6,4c2.1,0,5-0.5,5-3.1c0-5.3-13.5-1.7-13.5-9.7c0-4.2,4.1-5.9,7.7-5.9
		c4.6,0,8.2,1.4,8.5,6.5h-3.4c-0.2-2.6-2.6-3.5-4.8-3.5c-2,0-4.4,0.6-4.4,2.6c0,2.4,3.6,2.9,6.8,3.6c3.4,0.8,6.8,1.9,6.8,5.9
		c0,5-4.6,6.5-8.8,6.5c-4.6,0-8.6-1.9-8.8-7H745z"/>
	<path class="st6" d="M766.5,491.6h-3.4v-4.2h3.4V491.6z M763.1,495.3h3.4V516h-3.4V495.3z"/>
	<path class="st6" d="M773.9,509.5c0.1,3,2.8,4,5.6,4c2.1,0,5-0.5,5-3.1c0-5.3-13.5-1.7-13.5-9.7c0-4.2,4.1-5.9,7.7-5.9
		c4.6,0,8.2,1.4,8.5,6.5h-3.4c-0.2-2.6-2.6-3.5-4.8-3.5c-2,0-4.4,0.6-4.4,2.6c0,2.4,3.6,2.9,6.8,3.6c3.4,0.8,6.8,1.9,6.8,5.9
		c0,5-4.6,6.5-8.8,6.5c-4.6,0-8.6-1.9-8.8-7H773.9z"/>
	<path class="st6" d="M796.5,495.3h4.1v3h-4.1v12.8c0,1.6,0.4,1.8,2.6,1.8h1.6v3H798c-3.5,0-4.9-0.7-4.9-4.5v-13.2h-3.5v-3h3.5v-6.2
		h3.4V495.3z"/>
	<path class="st6" d="M806.5,509.5c0.1,3,2.8,4,5.6,4c2.1,0,5-0.5,5-3.1c0-5.3-13.5-1.7-13.5-9.7c0-4.2,4.1-5.9,7.7-5.9
		c4.6,0,8.2,1.4,8.5,6.5h-3.4c-0.2-2.6-2.6-3.5-4.8-3.5c-2,0-4.4,0.6-4.4,2.6c0,2.4,3.6,2.9,6.8,3.6c3.4,0.8,6.8,1.9,6.8,5.9
		c0,5-4.6,6.5-8.8,6.5c-4.6,0-8.6-1.9-8.8-7H806.5z"/>
	<path class="st6" d="M844.4,494.9c6.6,0,10,4.8,10,10.8c0,6-3.5,10.8-10,10.8c-6.6,0-10-4.8-10-10.8
		C834.4,499.6,837.9,494.9,844.4,494.9z M844.4,513.5c3.6,0,6.4-2.8,6.4-7.8s-2.9-7.8-6.4-7.8c-3.6,0-6.4,2.8-6.4,7.8
		S840.9,513.5,844.4,513.5z"/>
	<path class="st6" d="M859.9,498.3h-3.5v-3h3.5v-3.1c0-3.4,2-5.1,5.7-5.1c0.6,0,1.6,0.1,2.2,0.3v3c-0.6-0.2-1.3-0.3-1.9-0.3
		c-1.6,0-2.6,0.5-2.6,2.3v2.9h4v3h-4V516h-3.4V498.3z"/>
	<path class="st6" d="M886.1,495.3h4.1v3h-4.1v12.8c0,1.6,0.4,1.8,2.6,1.8h1.6v3h-2.6c-3.5,0-4.9-0.7-4.9-4.5v-13.2h-3.5v-3h3.5
		v-6.2h3.4V495.3z"/>
	<path class="st6" d="M894,487.5h3.4v10.9h0.1c1.1-2.5,4.1-3.5,6.5-3.5c5.4,0,7.1,3.1,7.1,7.6V516h-3.4v-14c0-2.6-1.6-4.2-4.2-4.2
		c-4.1,0-6.1,2.8-6.1,6.5V516H894V487.5z"/>
	<path class="st6" d="M933.9,509.5c-0.9,4.6-4.2,7-8.8,7c-6.6,0-9.7-4.6-9.9-10.9c0-6.2,4.1-10.8,9.7-10.8c7.3,0,9.6,6.8,9.4,11.8
		h-15.5c-0.1,3.6,1.9,6.8,6.4,6.8c2.8,0,4.8-1.3,5.4-4H933.9z M930.6,503.7c-0.2-3.2-2.6-5.8-6-5.8c-3.5,0-5.7,2.6-5.9,5.8H930.6z"
		/>
	<path class="st6" d="M949,495.3h3.4v2.8h0.1c1.1-2.3,3.7-3.3,6.6-3.3c6.4,0,9.5,5,9.5,10.9c0,5.9-3.1,10.8-9.4,10.8
		c-2.1,0-5.2-0.8-6.7-3.2h-0.1v10.7H949V495.3z M958.6,497.9c-4.6,0-6.3,4-6.3,7.8c0,4,1.8,7.8,6.5,7.8c4.6,0,6.2-4,6.2-8
		C965,501.6,963,497.9,958.6,497.9z"/>
	<path class="st6" d="M972.8,487.5h3.4V516h-3.4V487.5z"/>
	<path class="st6" d="M999.8,515.9c-0.6,0.4-1.4,0.6-2.4,0.6c-1.8,0-2.9-1-2.9-3.2c-1.9,2.2-4.4,3.2-7.3,3.2c-3.8,0-6.8-1.6-6.8-5.8
		c0-4.7,3.5-5.7,7-6.4c3.7-0.8,7-0.4,7-3c0-3-2.5-3.4-4.6-3.4c-2.9,0-5,0.9-5.2,3.9h-3.4c0.2-5.1,4.1-6.9,8.8-6.9
		c3.7,0,7.8,0.8,7.8,5.7v10.6c0,1.6,0,2.3,1.1,2.3c0.3,0,0.7-0.1,1-0.2V515.9z M994.3,505.3c-2.6,2-10.3,0-10.3,5.1c0,2.2,1.9,3,4,3
		c4.5,0,6.3-2.8,6.3-4.7V505.3z"/>
	<path class="st6" d="M1002.9,495.3h3.2v3.3h0.1c1.4-2.6,3.7-3.8,6.7-3.8c5.4,0,7.1,3.1,7.1,7.6V516h-3.4v-14c0-2.6-1.6-4.2-4.2-4.2
		c-4.1,0-6.1,2.8-6.1,6.5V516h-3.4V495.3z"/>
	<path class="st6" d="M1037.7,498.3h-3.5v-3h3.5v-3.1c0-3.4,2-5.1,5.7-5.1c0.6,0,1.6,0.1,2.2,0.3v3c-0.6-0.2-1.3-0.3-1.9-0.3
		c-1.6,0-2.6,0.5-2.6,2.3v2.9h4v3h-4V516h-3.4V498.3z"/>
	<path class="st6" d="M1057.1,494.9c6.6,0,10,4.8,10,10.8c0,6-3.5,10.8-10,10.8c-6.6,0-10-4.8-10-10.8
		C1047,499.6,1050.5,494.9,1057.1,494.9z M1057.1,513.5c3.6,0,6.4-2.8,6.4-7.8s-2.9-7.8-6.4-7.8c-3.6,0-6.4,2.8-6.4,7.8
		S1053.5,513.5,1057.1,513.5z"/>
	<path class="st6" d="M1071,495.3h3.2v4.4h0.1c1.6-3.4,3.9-5,7.6-4.8v3.6c-5.5,0-7.5,3.1-7.5,8.4v9.2h-3.4V495.3z"/>
	<path class="st6" d="M1100.3,495.3h4.1v3h-4.1v12.8c0,1.6,0.4,1.8,2.6,1.8h1.6v3h-2.6c-3.5,0-4.9-0.7-4.9-4.5v-13.2h-3.5v-3h3.5
		v-6.2h3.4V495.3z"/>
	<path class="st6" d="M1108.1,487.5h3.4v10.9h0.1c1.1-2.5,4.1-3.5,6.5-3.5c5.4,0,7.1,3.1,7.1,7.6V516h-3.4v-14
		c0-2.6-1.6-4.2-4.2-4.2c-4.1,0-6.1,2.8-6.1,6.5V516h-3.4V487.5z"/>
	<path class="st6" d="M1148,509.5c-0.9,4.6-4.2,7-8.8,7c-6.6,0-9.7-4.6-9.9-10.9c0-6.2,4.1-10.8,9.7-10.8c7.3,0,9.6,6.8,9.4,11.8
		h-15.5c-0.1,3.6,1.9,6.8,6.4,6.8c2.8,0,4.8-1.3,5.4-4H1148z M1144.7,503.7c-0.2-3.2-2.6-5.8-6-5.8c-3.5,0-5.7,2.6-5.9,5.8H1144.7z"
		/>
	<path class="st6" d="M1180.6,509.5c-0.9,4.6-4.2,7-8.8,7c-6.6,0-9.7-4.6-9.9-10.9c0-6.2,4.1-10.8,9.7-10.8c7.3,0,9.6,6.8,9.4,11.8
		h-15.5c-0.1,3.6,1.9,6.8,6.4,6.8c2.8,0,4.8-1.3,5.4-4H1180.6z M1177.3,503.7c-0.2-3.2-2.6-5.8-6-5.8c-3.5,0-5.7,2.6-5.9,5.8H1177.3
		z"/>
	<path class="st6" d="M1184.5,495.3h3.2v3.3h0.1c1.4-2.6,3.7-3.8,6.7-3.8c5.4,0,7.1,3.1,7.1,7.6V516h-3.4v-14c0-2.6-1.6-4.2-4.2-4.2
		c-4.1,0-6.1,2.8-6.1,6.5V516h-3.4V495.3z"/>
	<path class="st6" d="M1211.4,495.3h4.1v3h-4.1v12.8c0,1.6,0.4,1.8,2.6,1.8h1.6v3h-2.6c-3.5,0-4.9-0.7-4.9-4.5v-13.2h-3.5v-3h3.5
		v-6.2h3.4V495.3z"/>
	<path class="st6" d="M1222.9,491.6h-3.4v-4.2h3.4V491.6z M1219.5,495.3h3.4V516h-3.4V495.3z"/>
	<path class="st6" d="M1228.1,495.3h3.2v4.4h0.1c1.6-3.4,3.9-5,7.6-4.8v3.6c-5.5,0-7.5,3.1-7.5,8.4v9.2h-3.4V495.3z"/>
	<path class="st6" d="M1259.1,509.5c-0.9,4.6-4.2,7-8.8,7c-6.6,0-9.7-4.6-9.9-10.9c0-6.2,4.1-10.8,9.7-10.8c7.3,0,9.6,6.8,9.4,11.8
		H1244c-0.1,3.6,1.9,6.8,6.4,6.8c2.8,0,4.8-1.3,5.4-4H1259.1z M1255.9,503.7c-0.2-3.2-2.6-5.8-6-5.8c-3.5,0-5.7,2.6-5.9,5.8H1255.9z
		"/>
	<path class="st6" d="M446.5,534.8c9.1,0,13.7,7.2,13.7,15s-4.6,15-13.7,15c-9.1,0-13.7-7.2-13.7-15S437.5,534.8,446.5,534.8z
		 M446.5,561.5c7,0,9.9-6,9.9-11.8s-2.9-11.8-9.9-11.8s-9.9,6-9.9,11.8S439.6,561.5,446.5,561.5z"/>
	<path class="st6" d="M465.7,546.3h-3.5v-3h3.5v-3.1c0-3.4,2-5.1,5.7-5.1c0.6,0,1.6,0.1,2.2,0.3v3c-0.6-0.2-1.3-0.3-1.9-0.3
		c-1.6,0-2.6,0.5-2.6,2.3v2.9h4v3h-4V564h-3.4V546.3z"/>
	<path class="st6" d="M477.5,546.3h-3.5v-3h3.5v-3.1c0-3.4,2-5.1,5.7-5.1c0.6,0,1.6,0.1,2.2,0.3v3c-0.6-0.2-1.3-0.3-1.9-0.3
		c-1.6,0-2.6,0.5-2.6,2.3v2.9h4v3h-4V564h-3.4V546.3z"/>
	<path class="st6" d="M505.6,557.5c-0.9,4.6-4.2,7-8.8,7c-6.6,0-9.7-4.6-9.9-10.9c0-6.2,4.1-10.8,9.7-10.8c7.3,0,9.6,6.8,9.4,11.8
		h-15.5c-0.1,3.6,1.9,6.8,6.4,6.8c2.8,0,4.8-1.3,5.4-4H505.6z M502.3,551.7c-0.2-3.2-2.6-5.8-6-5.8c-3.5,0-5.7,2.6-5.9,5.8H502.3z"
		/>
	<path class="st6" d="M509.3,543.3h3.2v4.4h0.1c1.6-3.4,3.9-5,7.6-4.8v3.6c-5.5,0-7.5,3.1-7.5,8.4v9.2h-3.4V543.3z"/>
	<path class="st6" d="M526.4,539.6H523v-4.2h3.4V539.6z M523,543.3h3.4V564H523V543.3z"/>
	<path class="st6" d="M531.7,543.3h3.2v3.3h0.1c1.4-2.6,3.7-3.8,6.7-3.8c5.4,0,7.1,3.1,7.1,7.6V564h-3.4v-14c0-2.6-1.6-4.2-4.2-4.2
		c-4.1,0-6.1,2.8-6.1,6.5V564h-3.4V543.3z"/>
	<path class="st6" d="M571.7,562.3c0,6.8-3,10.2-9.6,10.2c-3.9,0-8.4-1.6-8.6-6.1h3.4c0.1,2.4,3.2,3.4,5.4,3.4
		c4.4,0,6.2-3.2,6.2-7.8v-1.4h-0.1c-1.2,2.5-3.8,3.8-6.4,3.8c-6.2,0-9.2-4.8-9.2-10.5c0-4.9,2.4-10.9,9.6-10.9
		c2.6,0,4.9,1.2,6.2,3.4h0v-3h3.2V562.3z M568.4,553.3c0-3.6-1.6-7.4-5.9-7.4c-4.4,0-6.1,3.6-6.1,7.5c0,3.7,1.4,7.9,5.8,7.9
		S568.4,557.1,568.4,553.3z"/>
	<path class="st6" d="M592.7,543.3h4.1v3h-4.1v12.8c0,1.6,0.4,1.8,2.6,1.8h1.6v3h-2.6c-3.5,0-4.9-0.7-4.9-4.5v-13.2h-3.5v-3h3.5
		v-6.2h3.4V543.3z"/>
	<path class="st6" d="M600.6,535.5h3.4v10.9h0.1c1.1-2.5,4.1-3.5,6.5-3.5c5.4,0,7.1,3.1,7.1,7.6V564h-3.4v-14c0-2.6-1.6-4.2-4.2-4.2
		c-4.1,0-6.1,2.8-6.1,6.5V564h-3.4V535.5z"/>
	<path class="st6" d="M622.7,543.3h3.2v4.4h0.1c1.6-3.4,3.9-5,7.6-4.8v3.6c-5.5,0-7.5,3.1-7.5,8.4v9.2h-3.4V543.3z"/>
	<path class="st6" d="M645.1,542.9c6.6,0,10,4.8,10,10.8c0,6-3.5,10.8-10,10.8c-6.6,0-10-4.8-10-10.8
		C635,547.6,638.5,542.9,645.1,542.9z M645.1,561.5c3.6,0,6.4-2.8,6.4-7.8s-2.9-7.8-6.4-7.8c-3.6,0-6.4,2.8-6.4,7.8
		S641.5,561.5,645.1,561.5z"/>
	<path class="st6" d="M676.2,564H673v-3.3h-0.1c-1.4,2.6-3.7,3.8-6.7,3.8c-5.4,0-7.1-3.1-7.1-7.6v-13.6h3.4v14
		c0,2.6,1.6,4.2,4.2,4.2c4.1,0,6.1-2.8,6.1-6.5v-11.7h3.4V564z"/>
	<path class="st6" d="M699.2,562.3c0,6.8-3,10.2-9.6,10.2c-3.9,0-8.4-1.6-8.6-6.1h3.4c0.1,2.4,3.2,3.4,5.4,3.4
		c4.4,0,6.2-3.2,6.2-7.8v-1.4h-0.1c-1.2,2.5-3.8,3.8-6.4,3.8c-6.2,0-9.2-4.8-9.2-10.5c0-4.9,2.4-10.9,9.6-10.9
		c2.6,0,4.9,1.2,6.2,3.4h0v-3h3.2V562.3z M695.8,553.3c0-3.6-1.6-7.4-5.9-7.4c-4.4,0-6.1,3.6-6.1,7.5c0,3.7,1.4,7.9,5.8,7.9
		S695.8,557.1,695.8,553.3z"/>
	<path class="st6" d="M704.3,535.5h3.4v10.9h0.1c1.1-2.5,4.1-3.5,6.5-3.5c5.4,0,7.1,3.1,7.1,7.6V564H718v-14c0-2.6-1.6-4.2-4.2-4.2
		c-4.1,0-6.1,2.8-6.1,6.5V564h-3.4V535.5z"/>
	<path class="st6" d="M737.7,543.3h3.2v3h0.1c1.6-2.4,3.8-3.5,6.7-3.5c2.6,0,4.8,1,5.7,3.5c1.4-2.2,3.8-3.5,6.5-3.5
		c4.1,0,6.9,1.7,6.9,6V564h-3.4v-13.6c0-2.6-0.7-4.6-4-4.6s-5.4,2.1-5.4,5.3V564h-3.4v-13.6c0-2.7-0.8-4.6-3.9-4.6
		c-4,0-5.5,3.7-5.5,5.3V564h-3.4V543.3z"/>
	<path class="st6" d="M788.9,564h-3.2v-3.3h-0.1c-1.4,2.6-3.7,3.8-6.7,3.8c-5.4,0-7.1-3.1-7.1-7.6v-13.6h3.4v14
		c0,2.6,1.6,4.2,4.2,4.2c4.1,0,6.1-2.8,6.1-6.5v-11.7h3.4V564z"/>
	<path class="st6" d="M794.2,535.5h3.4V564h-3.4V535.5z"/>
	<path class="st6" d="M807.6,543.3h4.1v3h-4.1v12.8c0,1.6,0.4,1.8,2.6,1.8h1.6v3h-2.6c-3.5,0-4.9-0.7-4.9-4.5v-13.2h-3.5v-3h3.5
		v-6.2h3.4V543.3z"/>
	<path class="st6" d="M819.1,539.6h-3.4v-4.2h3.4V539.6z M815.7,543.3h3.4V564h-3.4V543.3z"/>
	<path class="st6" d="M824.5,543.3h3.4v2.8h0.1c1.1-2.3,3.7-3.3,6.6-3.3c6.4,0,9.5,5,9.5,10.9c0,5.9-3.1,10.8-9.4,10.8
		c-2.1,0-5.2-0.8-6.7-3.2h-0.1v10.7h-3.4V543.3z M834.1,545.9c-4.6,0-6.3,4-6.3,7.8c0,4,1.8,7.8,6.5,7.8c4.6,0,6.2-4,6.2-8
		C840.5,549.6,838.5,545.9,834.1,545.9z"/>
	<path class="st6" d="M848.3,535.5h3.4V564h-3.4V535.5z"/>
	<path class="st6" d="M874.6,557.5c-0.9,4.6-4.2,7-8.8,7c-6.6,0-9.7-4.6-9.9-10.9c0-6.2,4.1-10.8,9.7-10.8c7.3,0,9.6,6.8,9.4,11.8
		h-15.5c-0.1,3.6,1.9,6.8,6.4,6.8c2.8,0,4.8-1.3,5.4-4H874.6z M871.3,551.7c-0.2-3.2-2.6-5.8-6-5.8c-3.5,0-5.7,2.6-5.9,5.8H871.3z"
		/>
	<path class="st6" d="M889.5,543.3h3.2v4.4h0.1c1.6-3.4,3.9-5,7.6-4.8v3.6c-5.5,0-7.5,3.1-7.5,8.4v9.2h-3.4V543.3z"/>
	<path class="st6" d="M920.5,557.5c-0.9,4.6-4.2,7-8.8,7c-6.6,0-9.7-4.6-9.9-10.9c0-6.2,4.1-10.8,9.7-10.8c7.3,0,9.6,6.8,9.4,11.8
		h-15.5c-0.1,3.6,1.9,6.8,6.4,6.8c2.8,0,4.8-1.3,5.4-4H920.5z M917.3,551.7c-0.2-3.2-2.6-5.8-6-5.8c-3.5,0-5.7,2.6-5.9,5.8H917.3z"
		/>
	<path class="st6" d="M924.6,535.5h3.4V564h-3.4V535.5z"/>
	<path class="st6" d="M950.9,557.5c-0.9,4.6-4.2,7-8.8,7c-6.6,0-9.7-4.6-9.9-10.9c0-6.2,4.1-10.8,9.7-10.8c7.3,0,9.6,6.8,9.4,11.8
		h-15.5c-0.1,3.6,1.9,6.8,6.4,6.8c2.8,0,4.8-1.3,5.4-4H950.9z M947.6,551.7c-0.2-3.2-2.6-5.8-6-5.8c-3.5,0-5.7,2.6-5.9,5.8H947.6z"
		/>
	<path class="st6" d="M973.1,563.9c-0.6,0.4-1.4,0.6-2.4,0.6c-1.8,0-2.9-1-2.9-3.2c-1.9,2.2-4.4,3.2-7.3,3.2c-3.8,0-6.8-1.6-6.8-5.8
		c0-4.7,3.5-5.7,7-6.4c3.7-0.8,7-0.4,7-3c0-3-2.5-3.4-4.6-3.4c-2.9,0-5,0.9-5.2,3.9h-3.4c0.2-5.1,4.1-6.9,8.8-6.9
		c3.7,0,7.8,0.8,7.8,5.7v10.6c0,1.6,0,2.3,1.1,2.3c0.3,0,0.7-0.1,1-0.2V563.9z M967.5,553.3c-2.6,2-10.3,0-10.3,5.1c0,2.2,1.9,3,4,3
		c4.5,0,6.3-2.8,6.3-4.7V553.3z"/>
	<path class="st6" d="M978.3,557.5c0.1,3,2.8,4,5.6,4c2.1,0,5-0.5,5-3.1c0-5.3-13.5-1.7-13.5-9.7c0-4.2,4.1-5.9,7.7-5.9
		c4.6,0,8.2,1.4,8.5,6.5h-3.4c-0.2-2.6-2.6-3.5-4.8-3.5c-2,0-4.4,0.6-4.4,2.6c0,2.4,3.6,2.9,6.8,3.6c3.4,0.8,6.8,1.9,6.8,5.9
		c0,5-4.6,6.5-8.8,6.5c-4.6,0-8.6-1.9-8.8-7H978.3z"/>
	<path class="st6" d="M1013.9,557.5c-0.9,4.6-4.2,7-8.8,7c-6.6,0-9.7-4.6-9.9-10.9c0-6.2,4.1-10.8,9.7-10.8c7.3,0,9.6,6.8,9.4,11.8
		h-15.5c-0.1,3.6,1.9,6.8,6.4,6.8c2.8,0,4.8-1.3,5.4-4H1013.9z M1010.6,551.7c-0.2-3.2-2.6-5.8-6-5.8c-3.5,0-5.7,2.6-5.9,5.8H1010.6
		z"/>
	<path class="st6" d="M1019.8,557.5c0.1,3,2.8,4,5.6,4c2.1,0,5-0.5,5-3.1c0-5.3-13.5-1.7-13.5-9.7c0-4.2,4.1-5.9,7.7-5.9
		c4.6,0,8.2,1.4,8.5,6.5h-3.4c-0.2-2.6-2.6-3.5-4.8-3.5c-2,0-4.4,0.6-4.4,2.6c0,2.4,3.6,2.9,6.8,3.6c3.4,0.8,6.8,1.9,6.8,5.9
		c0,5-4.6,6.5-8.8,6.5c-4.6,0-8.6-1.9-8.8-7H1019.8z"/>
	<path class="st6" d="M421.3,638.6c4,0,7.2,3.2,7.2,7.1s-3.2,7.2-7.2,7.2c-4,0-7.1-3.2-7.1-7.2S417.4,638.6,421.3,638.6z"/>
	<path class="st6" d="M445.6,631.5H459c5.4,0,8.7,2.9,8.7,7.5c0,3.5-1.5,6.3-5,7.2v0.1c3.3,0.6,4,3.1,4.3,5.9c0.2,2.8,0.1,6,1.7,7.9
		h-4.2c-1.1-1.2-0.5-4.2-1-7c-0.4-2.8-1.1-5.2-4.8-5.2h-9.3V660h-3.8V631.5z M457.3,644.6c3.5,0,6.6-0.9,6.6-5.1
		c0-2.8-1.5-4.9-5.1-4.9h-9.4v10H457.3z"/>
	<path class="st6" d="M490.1,653.5c-0.9,4.6-4.2,7-8.8,7c-6.6,0-9.7-4.6-9.9-10.9c0-6.2,4.1-10.8,9.7-10.8c7.3,0,9.6,6.8,9.4,11.8
		h-15.5c-0.1,3.6,1.9,6.8,6.4,6.8c2.8,0,4.8-1.3,5.4-4H490.1z M486.8,647.7c-0.2-3.2-2.6-5.8-6-5.8c-3.5,0-5.7,2.6-5.9,5.8H486.8z"
		/>
	<path class="st6" d="M494.1,631.5h3.4V660h-3.4V631.5z"/>
	<path class="st6" d="M520.4,653.5c-0.9,4.6-4.2,7-8.8,7c-6.6,0-9.7-4.6-9.9-10.9c0-6.2,4.1-10.8,9.7-10.8c7.3,0,9.6,6.8,9.4,11.8
		h-15.5c-0.1,3.6,1.9,6.8,6.4,6.8c2.8,0,4.8-1.3,5.4-4H520.4z M517.1,647.7c-0.2-3.2-2.6-5.8-6-5.8c-3.5,0-5.7,2.6-5.9,5.8H517.1z"
		/>
	<path class="st6" d="M542.6,659.9c-0.6,0.4-1.4,0.6-2.4,0.6c-1.8,0-2.9-1-2.9-3.2c-1.9,2.2-4.4,3.2-7.3,3.2c-3.8,0-6.8-1.6-6.8-5.8
		c0-4.7,3.5-5.7,7-6.4c3.7-0.8,7-0.4,7-3c0-3-2.5-3.4-4.6-3.4c-2.9,0-5,0.9-5.2,3.9h-3.4c0.2-5.1,4.1-6.9,8.8-6.9
		c3.7,0,7.8,0.8,7.8,5.7v10.6c0,1.6,0,2.3,1.1,2.3c0.3,0,0.7-0.1,1-0.2V659.9z M537.1,649.3c-2.6,2-10.3,0-10.3,5.1c0,2.2,1.9,3,4,3
		c4.5,0,6.3-2.8,6.3-4.7V649.3z"/>
	<path class="st6" d="M547.8,653.5c0.1,3,2.8,4,5.6,4c2.1,0,5-0.5,5-3.1c0-5.3-13.5-1.7-13.5-9.7c0-4.2,4.1-5.9,7.7-5.9
		c4.6,0,8.2,1.4,8.5,6.5h-3.4c-0.2-2.6-2.6-3.5-4.8-3.5c-2,0-4.4,0.6-4.4,2.6c0,2.4,3.6,2.9,6.8,3.6c3.4,0.8,6.8,1.9,6.8,5.9
		c0,5-4.6,6.5-8.8,6.5c-4.6,0-8.6-1.9-8.8-7H547.8z"/>
	<path class="st6" d="M583.4,653.5c-0.9,4.6-4.2,7-8.8,7c-6.6,0-9.7-4.6-9.9-10.9c0-6.2,4.1-10.8,9.7-10.8c7.3,0,9.6,6.8,9.4,11.8
		h-15.5c-0.1,3.6,1.9,6.8,6.4,6.8c2.8,0,4.8-1.3,5.4-4H583.4z M580.1,647.7c-0.2-3.2-2.6-5.8-6-5.8c-3.5,0-5.7,2.6-5.9,5.8H580.1z"
		/>
	<path class="st6" d="M598.9,631.5h9.8c8.8,0,13.7,4.4,13.7,13.6c0,9.6-4.2,15-13.7,15h-9.8V631.5z M602.7,656.8h6.3
		c2.6,0,9.6-0.7,9.6-11.2c0-6.8-2.5-10.9-9.5-10.9h-6.4V656.8z"/>
	<path class="st6" d="M644.1,653.5c-0.9,4.6-4.2,7-8.8,7c-6.6,0-9.7-4.6-9.9-10.9c0-6.2,4.1-10.8,9.7-10.8c7.3,0,9.6,6.8,9.4,11.8
		H629c-0.1,3.6,1.9,6.8,6.4,6.8c2.8,0,4.8-1.3,5.4-4H644.1z M640.9,647.7c-0.2-3.2-2.6-5.8-6-5.8c-3.5,0-5.7,2.6-5.9,5.8H640.9z"/>
	<path class="st6" d="M657.3,660h-3.6l-7.7-20.7h3.8l5.8,17.2h0.1l5.6-17.2h3.6L657.3,660z"/>
	<path class="st6" d="M685.6,653.5c-0.9,4.6-4.2,7-8.8,7c-6.6,0-9.7-4.6-9.9-10.9c0-6.2,4.1-10.8,9.7-10.8c7.3,0,9.6,6.8,9.4,11.8
		h-15.5c-0.1,3.6,1.9,6.8,6.4,6.8c2.8,0,4.8-1.3,5.4-4H685.6z M682.3,647.7c-0.2-3.2-2.6-5.8-6-5.8c-3.5,0-5.7,2.6-5.9,5.8H682.3z"
		/>
	<path class="st6" d="M689.7,631.5h3.4V660h-3.4V631.5z"/>
	<path class="st6" d="M707.3,638.9c6.6,0,10,4.8,10,10.8c0,6-3.5,10.8-10,10.8c-6.6,0-10-4.8-10-10.8
		C697.2,643.6,700.7,638.9,707.3,638.9z M707.3,657.5c3.6,0,6.4-2.8,6.4-7.8s-2.9-7.8-6.4-7.8c-3.6,0-6.4,2.8-6.4,7.8
		S703.7,657.5,707.3,657.5z"/>
	<path class="st6" d="M721.4,639.3h3.4v2.8h0.1c1.1-2.3,3.7-3.3,6.6-3.3c6.4,0,9.5,5,9.5,10.9c0,5.9-3.1,10.8-9.4,10.8
		c-2.1,0-5.2-0.8-6.7-3.2h-0.1v10.7h-3.4V639.3z M731,641.9c-4.6,0-6.3,4-6.3,7.8c0,4,1.8,7.8,6.5,7.8c4.6,0,6.2-4,6.2-8
		C737.4,645.6,735.4,641.9,731,641.9z"/>
	<path class="st6" d="M745,639.3h3.2v3h0.1c1.6-2.4,3.8-3.5,6.7-3.5c2.6,0,4.8,1,5.7,3.5c1.4-2.2,3.8-3.5,6.5-3.5
		c4.1,0,6.9,1.7,6.9,6V660h-3.4v-13.6c0-2.6-0.7-4.6-4-4.6s-5.4,2.1-5.4,5.3V660h-3.4v-13.6c0-2.7-0.8-4.6-3.9-4.6
		c-4,0-5.5,3.7-5.5,5.3V660H745V639.3z"/>
	<path class="st6" d="M796.8,653.5c-0.9,4.6-4.2,7-8.8,7c-6.6,0-9.7-4.6-9.9-10.9c0-6.2,4.1-10.8,9.7-10.8c7.3,0,9.6,6.8,9.4,11.8
		h-15.5c-0.1,3.6,1.9,6.8,6.4,6.8c2.8,0,4.8-1.3,5.4-4H796.8z M793.5,647.7c-0.2-3.2-2.6-5.8-6-5.8c-3.5,0-5.7,2.6-5.9,5.8H793.5z"
		/>
	<path class="st6" d="M800.6,639.3h3.2v3.3h0.1c1.4-2.6,3.7-3.8,6.7-3.8c5.4,0,7.1,3.1,7.1,7.6V660h-3.4v-14c0-2.6-1.6-4.2-4.2-4.2
		c-4.1,0-6.1,2.8-6.1,6.5V660h-3.4V639.3z"/>
	<path class="st6" d="M827.6,639.3h4.1v3h-4.1v12.8c0,1.6,0.4,1.8,2.6,1.8h1.6v3h-2.6c-3.5,0-4.9-0.7-4.9-4.5v-13.2h-3.5v-3h3.5
		v-6.2h3.4V639.3z"/>
	<path class="st6" d="M847.1,631.5h12.5c5.7,0,8.8,3.1,8.8,8.4s-3,8.5-8.8,8.4h-8.7V660h-3.8V631.5z M850.9,645.1h7.4
		c4.3,0,6.2-1.8,6.2-5.2s-1.9-5.2-6.2-5.2h-7.4V645.1z"/>
	<path class="st6" d="M872.7,631.5h3.4V660h-3.4V631.5z"/>
	<path class="st6" d="M899.7,659.9c-0.6,0.4-1.4,0.6-2.4,0.6c-1.8,0-2.9-1-2.9-3.2c-1.9,2.2-4.4,3.2-7.3,3.2c-3.8,0-6.8-1.6-6.8-5.8
		c0-4.7,3.5-5.7,7-6.4c3.7-0.8,7-0.4,7-3c0-3-2.5-3.4-4.6-3.4c-2.9,0-5,0.9-5.2,3.9h-3.4c0.2-5.1,4.1-6.9,8.8-6.9
		c3.7,0,7.8,0.8,7.8,5.7v10.6c0,1.6,0,2.3,1.1,2.3c0.3,0,0.7-0.1,1-0.2V659.9z M894.2,649.3c-2.6,2-10.3,0-10.3,5.1c0,2.2,1.9,3,4,3
		c4.5,0,6.3-2.8,6.3-4.7V649.3z"/>
	<path class="st6" d="M902.9,639.3h3.2v3.3h0.1c1.4-2.6,3.7-3.8,6.7-3.8c5.4,0,7.1,3.1,7.1,7.6V660h-3.4v-14c0-2.6-1.6-4.2-4.2-4.2
		c-4.1,0-6.1,2.8-6.1,6.5V660h-3.4V639.3z"/>
	<path class="st6" d="M933.7,647.3h20v3.2h-20V647.3z"/>
	<path class="st6" d="M981.4,646c-0.5-2.6-2.3-4.1-5.1-4.1c-4.9,0-6.4,3.9-6.4,8.1c0,3.8,1.7,7.6,6,7.6c3.3,0,5.2-1.9,5.7-5h3.5
		c-0.8,5.1-3.9,8-9.1,8c-6.3,0-9.7-4.4-9.7-10.6s3.2-11.1,9.8-11.1c4.7,0,8.4,2.2,8.9,7.1H981.4z"/>
	<path class="st6" d="M1007.1,659.9c-0.6,0.4-1.4,0.6-2.4,0.6c-1.8,0-2.9-1-2.9-3.2c-1.9,2.2-4.4,3.2-7.3,3.2
		c-3.8,0-6.8-1.6-6.8-5.8c0-4.7,3.5-5.7,7-6.4c3.7-0.8,7-0.4,7-3c0-3-2.5-3.4-4.6-3.4c-2.9,0-5,0.9-5.2,3.9h-3.4
		c0.2-5.1,4.1-6.9,8.8-6.9c3.7,0,7.8,0.8,7.8,5.7v10.6c0,1.6,0,2.3,1.1,2.3c0.3,0,0.7-0.1,1-0.2V659.9z M1001.6,649.3
		c-2.6,2-10.3,0-10.3,5.1c0,2.2,1.9,3,4,3c4.5,0,6.3-2.8,6.3-4.7V649.3z"/>
	<path class="st6" d="M1010.4,639.3h3.4v2.8h0.1c1.1-2.3,3.7-3.3,6.6-3.3c6.4,0,9.5,5,9.5,10.9c0,5.9-3.1,10.8-9.4,10.8
		c-2.1,0-5.2-0.8-6.7-3.2h-0.1v10.7h-3.4V639.3z M1020,641.9c-4.6,0-6.3,4-6.3,7.8c0,4,1.8,7.8,6.5,7.8c4.6,0,6.2-4,6.2-8
		C1026.4,645.6,1024.4,641.9,1020,641.9z"/>
	<path class="st6" d="M1038.7,639.3h4.1v3h-4.1v12.8c0,1.6,0.4,1.8,2.6,1.8h1.6v3h-2.6c-3.5,0-4.9-0.7-4.9-4.5v-13.2h-3.5v-3h3.5
		v-6.2h3.4V639.3z"/>
	<path class="st6" d="M1063.7,660h-3.2v-3.3h-0.1c-1.4,2.6-3.7,3.8-6.7,3.8c-5.4,0-7.1-3.1-7.1-7.6v-13.6h3.4v14
		c0,2.6,1.6,4.2,4.2,4.2c4.1,0,6.1-2.8,6.1-6.5v-11.7h3.4V660z"/>
	<path class="st6" d="M1068.7,639.3h3.2v4.4h0.1c1.6-3.4,3.9-5,7.6-4.8v3.6c-5.5,0-7.5,3.1-7.5,8.4v9.2h-3.4V639.3z"/>
	<path class="st6" d="M1099.8,653.5c-0.9,4.6-4.2,7-8.8,7c-6.6,0-9.7-4.6-9.9-10.9c0-6.2,4.1-10.8,9.7-10.8c7.3,0,9.6,6.8,9.4,11.8
		h-15.5c-0.1,3.6,1.9,6.8,6.4,6.8c2.8,0,4.8-1.3,5.4-4H1099.8z M1096.5,647.7c-0.2-3.2-2.6-5.8-6-5.8c-3.5,0-5.7,2.6-5.9,5.8H1096.5
		z"/>
	<path class="st6" d="M1105.7,653.5c0.1,3,2.8,4,5.6,4c2.1,0,5-0.5,5-3.1c0-5.3-13.5-1.7-13.5-9.7c0-4.2,4.1-5.9,7.7-5.9
		c4.6,0,8.2,1.4,8.5,6.5h-3.4c-0.2-2.6-2.6-3.5-4.8-3.5c-2,0-4.4,0.6-4.4,2.6c0,2.4,3.6,2.9,6.8,3.6c3.4,0.8,6.8,1.9,6.8,5.9
		c0,5-4.6,6.5-8.8,6.5c-4.6,0-8.6-1.9-8.8-7H1105.7z"/>
	<path class="st6" d="M1134.8,639.3h3.2v3h0.1c1.6-2.4,3.8-3.5,6.7-3.5c2.6,0,4.8,1,5.7,3.5c1.4-2.2,3.8-3.5,6.5-3.5
		c4.1,0,6.9,1.7,6.9,6V660h-3.4v-13.6c0-2.6-0.7-4.6-4-4.6c-3.3,0-5.4,2.1-5.4,5.3V660h-3.4v-13.6c0-2.7-0.8-4.6-3.9-4.6
		c-4,0-5.5,3.7-5.5,5.3V660h-3.4V639.3z"/>
	<path class="st6" d="M1172.5,635.6h-3.4v-4.2h3.4V635.6z M1169.1,639.3h3.4V660h-3.4V639.3z"/>
	<path class="st6" d="M1196.2,660h-3.4v-2.8h-0.1c-1.1,2.3-3.7,3.3-6.6,3.3c-6.4,0-9.5-5-9.5-10.9c0-5.8,3.1-10.8,9.4-10.8
		c2.1,0,5.2,0.8,6.7,3.2h0.1v-10.6h3.4V660z M1186.7,657.5c4.6,0,6.3-4,6.3-7.8c0-4-1.8-7.8-6.5-7.8c-4.6,0-6.2,4-6.2,8
		C1180.3,653.7,1182.3,657.5,1186.7,657.5z"/>
	<path class="st6" d="M1200.9,647.3h11.6v3.2h-11.6V647.3z"/>
	<path class="st6" d="M1217.3,631.5h3.4V660h-3.4V631.5z"/>
	<path class="st6" d="M1243.6,653.5c-0.9,4.6-4.2,7-8.8,7c-6.6,0-9.7-4.6-9.9-10.9c0-6.2,4.1-10.8,9.7-10.8c7.3,0,9.6,6.8,9.4,11.8
		h-15.5c-0.1,3.6,1.9,6.8,6.4,6.8c2.8,0,4.8-1.3,5.4-4H1243.6z M1240.3,647.7c-0.2-3.2-2.6-5.8-6-5.8c-3.5,0-5.7,2.6-5.9,5.8H1240.3
		z"/>
	<path class="st6" d="M1256.7,660h-3.6l-7.7-20.7h3.8l5.8,17.2h0.1l5.6-17.2h3.6L1256.7,660z"/>
	<path class="st6" d="M1285,653.5c-0.9,4.6-4.2,7-8.8,7c-6.6,0-9.7-4.6-9.9-10.9c0-6.2,4.1-10.8,9.7-10.8c7.3,0,9.6,6.8,9.4,11.8
		h-15.5c-0.1,3.6,1.9,6.8,6.4,6.8c2.8,0,4.8-1.3,5.4-4H1285z M1281.8,647.7c-0.2-3.2-2.6-5.8-6-5.8c-3.5,0-5.7,2.6-5.9,5.8H1281.8z"
		/>
	<path class="st6" d="M1289.1,631.5h3.4V660h-3.4V631.5z"/>
	<path class="st6" d="M434,687.3h3.4v2.8h0.1c1.1-2.3,3.7-3.3,6.6-3.3c6.4,0,9.5,5,9.5,10.9c0,5.9-3.1,10.8-9.4,10.8
		c-2.1,0-5.2-0.8-6.7-3.2h-0.1v10.7H434V687.3z M443.6,689.9c-4.6,0-6.3,4-6.3,7.8c0,4,1.8,7.8,6.5,7.8c4.6,0,6.2-4,6.2-8
		C450,693.6,448,689.9,443.6,689.9z"/>
	<path class="st6" d="M457.8,679.5h3.4V708h-3.4V679.5z"/>
	<path class="st6" d="M484.8,707.9c-0.6,0.4-1.4,0.6-2.4,0.6c-1.8,0-2.9-1-2.9-3.2c-1.9,2.2-4.4,3.2-7.3,3.2c-3.8,0-6.8-1.6-6.8-5.8
		c0-4.7,3.5-5.7,7-6.4c3.7-0.8,7-0.4,7-3c0-3-2.5-3.4-4.6-3.4c-2.9,0-5,0.9-5.2,3.9h-3.4c0.2-5.1,4.1-6.9,8.8-6.9
		c3.7,0,7.8,0.8,7.8,5.7v10.6c0,1.6,0,2.3,1.1,2.3c0.3,0,0.7-0.1,1-0.2V707.9z M479.3,697.3c-2.6,2-10.3,0-10.3,5.1c0,2.2,1.9,3,4,3
		c4.5,0,6.3-2.8,6.3-4.7V697.3z"/>
	<path class="st6" d="M488,687.3h3.2v3.3h0.1c1.4-2.6,3.7-3.8,6.7-3.8c5.4,0,7.1,3.1,7.1,7.6V708h-3.4v-14c0-2.6-1.6-4.2-4.2-4.2
		c-4.1,0-6.1,2.8-6.1,6.5V708H488V687.3z"/>
	<path class="st6" d="M510.2,687.3h3.2v3.3h0.1c1.4-2.6,3.7-3.8,6.7-3.8c5.4,0,7.1,3.1,7.1,7.6V708h-3.4v-14c0-2.6-1.6-4.2-4.2-4.2
		c-4.1,0-6.1,2.8-6.1,6.5V708h-3.4V687.3z"/>
	<path class="st6" d="M536.1,683.6h-3.4v-4.2h3.4V683.6z M532.7,687.3h3.4V708h-3.4V687.3z"/>
	<path class="st6" d="M541.3,687.3h3.2v3.3h0.1c1.4-2.6,3.7-3.8,6.7-3.8c5.4,0,7.1,3.1,7.1,7.6V708h-3.4v-14c0-2.6-1.6-4.2-4.2-4.2
		c-4.1,0-6.1,2.8-6.1,6.5V708h-3.4V687.3z"/>
	<path class="st6" d="M581.4,706.3c0,6.8-3,10.2-9.6,10.2c-3.9,0-8.4-1.6-8.6-6.1h3.4c0.1,2.4,3.2,3.4,5.4,3.4
		c4.4,0,6.2-3.2,6.2-7.8v-1.4h-0.1c-1.2,2.5-3.8,3.8-6.4,3.8c-6.2,0-9.2-4.8-9.2-10.5c0-4.9,2.4-10.9,9.6-10.9
		c2.6,0,4.9,1.2,6.2,3.4h0v-3h3.2V706.3z M578.1,697.3c0-3.6-1.6-7.4-5.9-7.4c-4.4,0-6.1,3.6-6.1,7.5c0,3.7,1.4,7.9,5.8,7.9
		S578.1,701.1,578.1,697.3z"/>
	<path class="st6" d="M616,707.9c-0.6,0.4-1.4,0.6-2.4,0.6c-1.8,0-2.9-1-2.9-3.2c-1.9,2.2-4.4,3.2-7.3,3.2c-3.8,0-6.8-1.6-6.8-5.8
		c0-4.7,3.5-5.7,7-6.4c3.7-0.8,7-0.4,7-3c0-3-2.5-3.4-4.6-3.4c-2.9,0-5,0.9-5.2,3.9h-3.4c0.2-5.1,4.1-6.9,8.8-6.9
		c3.7,0,7.8,0.8,7.8,5.7v10.6c0,1.6,0,2.3,1.1,2.3c0.3,0,0.7-0.1,1-0.2V707.9z M610.5,697.3c-2.6,2-10.3,0-10.3,5.1c0,2.2,1.9,3,4,3
		c4.5,0,6.3-2.8,6.3-4.7V697.3z"/>
	<path class="st6" d="M619.1,687.3h3.2v3.3h0.1c1.4-2.6,3.7-3.8,6.7-3.8c5.4,0,7.1,3.1,7.1,7.6V708h-3.4v-14c0-2.6-1.6-4.2-4.2-4.2
		c-4.1,0-6.1,2.8-6.1,6.5V708h-3.4V687.3z"/>
	<path class="st6" d="M659.9,708h-3.4v-2.8h-0.1c-1.1,2.3-3.7,3.3-6.6,3.3c-6.4,0-9.5-5-9.5-10.9c0-5.8,3.1-10.8,9.4-10.8
		c2.1,0,5.2,0.8,6.7,3.2h0.1v-10.6h3.4V708z M650.3,705.5c4.6,0,6.3-4,6.3-7.8c0-4-1.8-7.8-6.5-7.8c-4.6,0-6.2,4-6.2,8
		C643.9,701.7,645.9,705.5,650.3,705.5z"/>
	<path class="st6" d="M690.3,694c-0.5-2.6-2.3-4.1-5.1-4.1c-4.9,0-6.4,3.9-6.4,8.1c0,3.8,1.7,7.6,6,7.6c3.3,0,5.2-1.9,5.7-5h3.5
		c-0.8,5.1-3.9,8-9.1,8c-6.3,0-9.7-4.4-9.7-10.6s3.2-11.1,9.8-11.1c4.7,0,8.4,2.2,8.9,7.1H690.3z"/>
	<path class="st6" d="M706.6,686.9c6.6,0,10,4.8,10,10.8c0,6-3.5,10.8-10,10.8c-6.6,0-10-4.8-10-10.8
		C696.6,691.6,700.1,686.9,706.6,686.9z M706.6,705.5c3.6,0,6.4-2.8,6.4-7.8s-2.9-7.8-6.4-7.8c-3.6,0-6.4,2.8-6.4,7.8
		S703.1,705.5,706.6,705.5z"/>
	<path class="st6" d="M720.7,687.3h3.2v3.3h0.1c1.4-2.6,3.7-3.8,6.7-3.8c5.4,0,7.1,3.1,7.1,7.6V708h-3.4v-14c0-2.6-1.6-4.2-4.2-4.2
		c-4.1,0-6.1,2.8-6.1,6.5V708h-3.4V687.3z"/>
	<path class="st6" d="M745,701.5c0.1,3,2.8,4,5.6,4c2.1,0,5-0.5,5-3.1c0-5.3-13.5-1.7-13.5-9.7c0-4.2,4.1-5.9,7.7-5.9
		c4.6,0,8.2,1.4,8.5,6.5h-3.4c-0.2-2.6-2.6-3.5-4.8-3.5c-2,0-4.4,0.6-4.4,2.6c0,2.4,3.6,2.9,6.8,3.6c3.4,0.8,6.8,1.9,6.8,5.9
		c0,5-4.6,6.5-8.8,6.5c-4.6,0-8.6-1.9-8.8-7H745z"/>
	<path class="st6" d="M766.5,683.6h-3.4v-4.2h3.4V683.6z M763.1,687.3h3.4V708h-3.4V687.3z"/>
	<path class="st6" d="M773.9,701.5c0.1,3,2.8,4,5.6,4c2.1,0,5-0.5,5-3.1c0-5.3-13.5-1.7-13.5-9.7c0-4.2,4.1-5.9,7.7-5.9
		c4.6,0,8.2,1.4,8.5,6.5h-3.4c-0.2-2.6-2.6-3.5-4.8-3.5c-2,0-4.4,0.6-4.4,2.6c0,2.4,3.6,2.9,6.8,3.6c3.4,0.8,6.8,1.9,6.8,5.9
		c0,5-4.6,6.5-8.8,6.5c-4.6,0-8.6-1.9-8.8-7H773.9z"/>
	<path class="st6" d="M796.5,687.3h4.1v3h-4.1v12.8c0,1.6,0.4,1.8,2.6,1.8h1.6v3H798c-3.5,0-4.9-0.7-4.9-4.5v-13.2h-3.5v-3h3.5v-6.2
		h3.4V687.3z"/>
	<path class="st6" d="M806.5,701.5c0.1,3,2.8,4,5.6,4c2.1,0,5-0.5,5-3.1c0-5.3-13.5-1.7-13.5-9.7c0-4.2,4.1-5.9,7.7-5.9
		c4.6,0,8.2,1.4,8.5,6.5h-3.4c-0.2-2.6-2.6-3.5-4.8-3.5c-2,0-4.4,0.6-4.4,2.6c0,2.4,3.6,2.9,6.8,3.6c3.4,0.8,6.8,1.9,6.8,5.9
		c0,5-4.6,6.5-8.8,6.5c-4.6,0-8.6-1.9-8.8-7H806.5z"/>
	<path class="st6" d="M844.4,686.9c6.6,0,10,4.8,10,10.8c0,6-3.5,10.8-10,10.8c-6.6,0-10-4.8-10-10.8
		C834.4,691.6,837.9,686.9,844.4,686.9z M844.4,705.5c3.6,0,6.4-2.8,6.4-7.8s-2.9-7.8-6.4-7.8c-3.6,0-6.4,2.8-6.4,7.8
		S840.9,705.5,844.4,705.5z"/>
	<path class="st6" d="M859.9,690.3h-3.5v-3h3.5v-3.1c0-3.4,2-5.1,5.7-5.1c0.6,0,1.6,0.1,2.2,0.3v3c-0.6-0.2-1.3-0.3-1.9-0.3
		c-1.6,0-2.6,0.5-2.6,2.3v2.9h4v3h-4V708h-3.4V690.3z"/>
	<path class="st6" d="M886.1,687.3h4.1v3h-4.1v12.8c0,1.6,0.4,1.8,2.6,1.8h1.6v3h-2.6c-3.5,0-4.9-0.7-4.9-4.5v-13.2h-3.5v-3h3.5
		v-6.2h3.4V687.3z"/>
	<path class="st6" d="M894,679.5h3.4v10.9h0.1c1.1-2.5,4.1-3.5,6.5-3.5c5.4,0,7.1,3.1,7.1,7.6V708h-3.4v-14c0-2.6-1.6-4.2-4.2-4.2
		c-4.1,0-6.1,2.8-6.1,6.5V708H894V679.5z"/>
	<path class="st6" d="M933.9,701.5c-0.9,4.6-4.2,7-8.8,7c-6.6,0-9.7-4.6-9.9-10.9c0-6.2,4.1-10.8,9.7-10.8c7.3,0,9.6,6.8,9.4,11.8
		h-15.5c-0.1,3.6,1.9,6.8,6.4,6.8c2.8,0,4.8-1.3,5.4-4H933.9z M930.6,695.7c-0.2-3.2-2.6-5.8-6-5.8c-3.5,0-5.7,2.6-5.9,5.8H930.6z"
		/>
	<path class="st6" d="M949,687.3h3.4v2.8h0.1c1.1-2.3,3.7-3.3,6.6-3.3c6.4,0,9.5,5,9.5,10.9c0,5.9-3.1,10.8-9.4,10.8
		c-2.1,0-5.2-0.8-6.7-3.2h-0.1v10.7H949V687.3z M958.6,689.9c-4.6,0-6.3,4-6.3,7.8c0,4,1.8,7.8,6.5,7.8c4.6,0,6.2-4,6.2-8
		C965,693.6,963,689.9,958.6,689.9z"/>
	<path class="st6" d="M972.8,679.5h3.4V708h-3.4V679.5z"/>
	<path class="st6" d="M999.8,707.9c-0.6,0.4-1.4,0.6-2.4,0.6c-1.8,0-2.9-1-2.9-3.2c-1.9,2.2-4.4,3.2-7.3,3.2c-3.8,0-6.8-1.6-6.8-5.8
		c0-4.7,3.5-5.7,7-6.4c3.7-0.8,7-0.4,7-3c0-3-2.5-3.4-4.6-3.4c-2.9,0-5,0.9-5.2,3.9h-3.4c0.2-5.1,4.1-6.9,8.8-6.9
		c3.7,0,7.8,0.8,7.8,5.7v10.6c0,1.6,0,2.3,1.1,2.3c0.3,0,0.7-0.1,1-0.2V707.9z M994.3,697.3c-2.6,2-10.3,0-10.3,5.1c0,2.2,1.9,3,4,3
		c4.5,0,6.3-2.8,6.3-4.7V697.3z"/>
	<path class="st6" d="M1002.9,687.3h3.2v3.3h0.1c1.4-2.6,3.7-3.8,6.7-3.8c5.4,0,7.1,3.1,7.1,7.6V708h-3.4v-14c0-2.6-1.6-4.2-4.2-4.2
		c-4.1,0-6.1,2.8-6.1,6.5V708h-3.4V687.3z"/>
	<path class="st6" d="M1037.7,690.3h-3.5v-3h3.5v-3.1c0-3.4,2-5.1,5.7-5.1c0.6,0,1.6,0.1,2.2,0.3v3c-0.6-0.2-1.3-0.3-1.9-0.3
		c-1.6,0-2.6,0.5-2.6,2.3v2.9h4v3h-4V708h-3.4V690.3z"/>
	<path class="st6" d="M1057.1,686.9c6.6,0,10,4.8,10,10.8c0,6-3.5,10.8-10,10.8c-6.6,0-10-4.8-10-10.8
		C1047,691.6,1050.5,686.9,1057.1,686.9z M1057.1,705.5c3.6,0,6.4-2.8,6.4-7.8s-2.9-7.8-6.4-7.8c-3.6,0-6.4,2.8-6.4,7.8
		S1053.5,705.5,1057.1,705.5z"/>
	<path class="st6" d="M1071,687.3h3.2v4.4h0.1c1.6-3.4,3.9-5,7.6-4.8v3.6c-5.5,0-7.5,3.1-7.5,8.4v9.2h-3.4V687.3z"/>
	<path class="st6" d="M1100.3,687.3h4.1v3h-4.1v12.8c0,1.6,0.4,1.8,2.6,1.8h1.6v3h-2.6c-3.5,0-4.9-0.7-4.9-4.5v-13.2h-3.5v-3h3.5
		v-6.2h3.4V687.3z"/>
	<path class="st6" d="M1108.1,679.5h3.4v10.9h0.1c1.1-2.5,4.1-3.5,6.5-3.5c5.4,0,7.1,3.1,7.1,7.6V708h-3.4v-14
		c0-2.6-1.6-4.2-4.2-4.2c-4.1,0-6.1,2.8-6.1,6.5V708h-3.4V679.5z"/>
	<path class="st6" d="M1148,701.5c-0.9,4.6-4.2,7-8.8,7c-6.6,0-9.7-4.6-9.9-10.9c0-6.2,4.1-10.8,9.7-10.8c7.3,0,9.6,6.8,9.4,11.8
		h-15.5c-0.1,3.6,1.9,6.8,6.4,6.8c2.8,0,4.8-1.3,5.4-4H1148z M1144.7,695.7c-0.2-3.2-2.6-5.8-6-5.8c-3.5,0-5.7,2.6-5.9,5.8H1144.7z"
		/>
	<path class="st6" d="M1162.9,687.3h3.2v4.4h0.1c1.6-3.4,3.9-5,7.6-4.8v3.6c-5.5,0-7.5,3.1-7.5,8.4v9.2h-3.4V687.3z"/>
	<path class="st6" d="M1193.9,701.5c-0.9,4.6-4.2,7-8.8,7c-6.6,0-9.7-4.6-9.9-10.9c0-6.2,4.1-10.8,9.7-10.8c7.3,0,9.6,6.8,9.4,11.8
		h-15.5c-0.1,3.6,1.9,6.8,6.4,6.8c2.8,0,4.8-1.3,5.4-4H1193.9z M1190.7,695.7c-0.2-3.2-2.6-5.8-6-5.8c-3.5,0-5.7,2.6-5.9,5.8H1190.7
		z"/>
	<path class="st6" d="M1198,679.5h3.4V708h-3.4V679.5z"/>
	<path class="st6" d="M1224.3,701.5c-0.9,4.6-4.2,7-8.8,7c-6.6,0-9.7-4.6-9.9-10.9c0-6.2,4.1-10.8,9.7-10.8c7.3,0,9.6,6.8,9.4,11.8
		h-15.5c-0.1,3.6,1.9,6.8,6.4,6.8c2.8,0,4.8-1.3,5.4-4H1224.3z M1221,695.7c-0.2-3.2-2.6-5.8-6-5.8c-3.5,0-5.7,2.6-5.9,5.8H1221z"/>
	<path class="st6" d="M1246.5,707.9c-0.6,0.4-1.4,0.6-2.4,0.6c-1.8,0-2.9-1-2.9-3.2c-1.9,2.2-4.4,3.2-7.3,3.2
		c-3.8,0-6.8-1.6-6.8-5.8c0-4.7,3.5-5.7,7-6.4c3.7-0.8,7-0.4,7-3c0-3-2.5-3.4-4.6-3.4c-2.9,0-5,0.9-5.2,3.9h-3.4
		c0.2-5.1,4.1-6.9,8.8-6.9c3.7,0,7.8,0.8,7.8,5.7v10.6c0,1.6,0,2.3,1.1,2.3c0.3,0,0.7-0.1,1-0.2V707.9z M1240.9,697.3
		c-2.6,2-10.3,0-10.3,5.1c0,2.2,1.9,3,4,3c4.5,0,6.3-2.8,6.3-4.7V697.3z"/>
	<path class="st6" d="M1251.7,701.5c0.1,3,2.8,4,5.6,4c2.1,0,5-0.5,5-3.1c0-5.3-13.5-1.7-13.5-9.7c0-4.2,4.1-5.9,7.7-5.9
		c4.6,0,8.2,1.4,8.5,6.5h-3.4c-0.2-2.6-2.6-3.5-4.8-3.5c-2,0-4.4,0.6-4.4,2.6c0,2.4,3.6,2.9,6.8,3.6c3.4,0.8,6.8,1.9,6.8,5.9
		c0,5-4.6,6.5-8.8,6.5c-4.6,0-8.6-1.9-8.8-7H1251.7z"/>
	<path class="st6" d="M1287.3,701.5c-0.9,4.6-4.2,7-8.8,7c-6.6,0-9.7-4.6-9.9-10.9c0-6.2,4.1-10.8,9.7-10.8c7.3,0,9.6,6.8,9.4,11.8
		h-15.5c-0.1,3.6,1.9,6.8,6.4,6.8c2.8,0,4.8-1.3,5.4-4H1287.3z M1284,695.7c-0.2-3.2-2.6-5.8-6-5.8c-3.5,0-5.7,2.6-5.9,5.8H1284z"/>
</g>
<g>
	<path class="st7" d="M1929,883.6h-100.3c-5.3,0-9.6-4.3-9.6-9.6V734.9c0-5.3,4.3-9.6,9.6-9.6h68.3l41.5,41.5V874
		C1938.6,879.3,1934.3,883.6,1929,883.6z"/>
	<polygon class="st8" points="1923.9,752.1 1938.6,766.8 1938.6,802.7 1900,764.1 	"/>
	<path class="st9" d="M1938.6,766.8h-31.9c-5.3,0-9.6-4.3-9.6-9.6v-31.9L1938.6,766.8z"/>
	<path class="st10" d="M1888.7,871.6h-52.9h-2.6V869v-18.5V828v-38.4v-22.5v-17.7v-2.6h2.6h61.4v5.1h-58.8v15.1v22.5V828v22.5v16
		h50.4V871.6L1888.7,871.6z M1837.3,767.1h-0.7h-0.4h-1h-0.6h-0.5v22.5h0.5h0.6h1h0.4h0.7V767.1L1837.3,767.1z M1837.3,828h-0.5
		h-0.6h-1h-0.6h-0.5v22.5h0.5h0.6h1h0.6h0.5V828z"/>
	<rect x="1911" y="766.8" class="st10" width="5.1" height="6.9"/>
	<polygon class="st10" points="1893.6,806.7 1911,806.7 1911,796.2 1916.1,796.2 1916.1,809.2 1916.1,811.8 1913.5,811.8 
		1893.6,811.8 	"/>
	<rect x="1835.7" y="806.7" class="st10" width="35.3" height="5.1"/>
	<path class="st8" d="M1929,883.6h-29.5l-12.9-12.9l0,0l0-0.1c0,0-0.1-0.1-0.1-0.1l-0.1-0.1l-0.1-0.1l0,0l0-0.1l0,0l0-0.1l0,0l0-0.1
		l0,0l0-0.1l0,0l0-0.1l0,0l0-0.1v0l0-0.1l0,0l0-0.1l0,0l0-0.1v0l0-0.1l0,0l0-0.1l0,0l0-0.1l0,0l0-0.1l0,0l0,0v0v0l0,0v0l0,0l0,0l0,0
		v0l0,0v-0.1l0,0l0,0l0,0v0l0,0v-0.1l0,0l0,0l0,0v0l0,0l0,0l0,0v0l0,0v0l0,0v0v0v0l0,0v0l0,0v0v0l0,0l0,0v0l0,0v-0.1l0,0v0l0,0v0
		l0,0v-0.1v0l0,0v0l0,0v0l0,0v0l0,0v0l0,0l0,0l0,0v0l0,0v0v0v0l0,0v0l0,0v0l0,0v0l0,0v0l0,0v0l0,0v0l0,0l0,0l0,0v0l0,0v0l0,0l0,0
		l0,0v0l0,0v0l0,0v0l0,0l0,0l0,0v0l0,0v0l0,0v0l0,0h0v0v0v0v0v0l0,0v0l1.8-6.2l2.9-9.9l0,0l7.3-24.5v0l18.1-18.1l22.6-22.6v88
		C1938.6,879.3,1934.3,883.6,1929,883.6z"/>
	<polygon class="st8" points="1938.6,786 1938.6,802.7 1930.3,794.4 	"/>
	<g>
		<path class="st11" d="M1976.6,761.3c4.1,2.3,7.8,5.1,11,8.3l0.2,0.2c3.2,3.2,5.8,6.8,8.1,10.9c1.4,2.5,1.9,5.3,1.5,8
			c-0.4,2.7-1.6,5.3-3.7,7.3h0h0l-63.4,63.4l-40.6,12c-1.7,0.5-3.5-0.5-4-2.2c-0.2-0.6-0.2-1.2,0-1.8l12.1-40.6l63.4-63.4
			c2-2.1,4.6-3.3,7.3-3.7C1971.2,759.4,1974,759.9,1976.6,761.3z"/>
		<path class="st10" d="M1908.5,836.5l67.8-67.8c-0.9-0.6-1.9-1.2-2.8-1.7c-1.3-0.7-2.7-1-4-0.8c-1.3,0.2-2.6,0.8-3.6,1.9
			l-61.6,61.6L1908.5,836.5z"/>
		<path class="st10" d="M1906.1,866.6l-16.3,4.9c-1.7,0.5-3.5-0.5-4-2.3c-0.2-0.6-0.2-1.2,0-1.8l4.8-16.1l2.7,5.7l9.1,0.5
			L1906.1,866.6z"/>
		<path class="st10" d="M1976.6,761.3c4.1,2.3,7.8,5.1,11,8.3l0.2,0.2c3.2,3.2,5.8,6.8,8.1,10.9c1.4,2.5,1.9,5.3,1.5,8
			c-0.4,2.7-1.6,5.3-3.7,7.3h0h0l-63.4,63.4l-4.3-8.8c-6.8-3.5-13.6-7-20.4-10.5l-7.8-13.3l63.4-63.4c2.1-2.1,4.6-3.3,7.3-3.7
			C1971.2,759.4,1974,759.9,1976.6,761.3z"/>
		<path class="st12" d="M1976.6,761.3c1.7,0.9,3.3,2,4.8,3l-75.8,75.8l-7.8-13.3l63.4-63.4c2.1-2.1,4.6-3.3,7.3-3.7
			C1971.2,759.4,1974,759.9,1976.6,761.3z"/>
		<path class="st12" d="M1995.9,780.7c1.4,2.5,1.9,5.3,1.5,8c-0.4,2.7-1.6,5.3-3.7,7.3h0h0l-63.4,63.4l-4.3-8.8L1995.9,780.7z"/>
	</g>
</g>
<line class="st13" x1="50.8" y1="53.7" x2="1997.5" y2="53.7"/>
<g>
	<g>
		<path class="st14" d="M54.3,76h13.6c10.1,0,14.5,7.4,14.5,16.4s-4.4,16.4-14.5,16.4H54.3V76z M60,104.1h5.7
			c9,0,10.9-5.1,10.9-11.7c0-6.6-1.9-11.7-10.9-11.7H60V104.1z"/>
		<path class="st14" d="M90.8,98.3c0,3.7,2,7,6.4,7c3.1,0,4.9-1.3,5.8-4h5c-1.1,5.2-5.6,8.1-10.8,8.1c-7.5,0-11.6-5.2-11.6-12.5
			c0-6.8,4.4-12.6,11.5-12.6c7.5,0,12.1,6.8,11.2,13.9H90.8z M103.1,94.8c-0.2-3.3-2.4-6.3-6-6.3c-3.6,0-6.1,2.8-6.3,6.3H103.1z"/>
		<path class="st14" d="M116.3,101.2c0.3,3.1,2.6,4.1,5.4,4.1c2,0,5.4-0.4,5.3-3.1c-0.1-2.8-4-3.1-7.8-4c-3.9-0.8-7.6-2.2-7.6-7
			c0-5.2,5.6-6.8,9.9-6.8c4.9,0,9.3,2,9.9,7.3h-5.5c-0.5-2.5-2.5-3.2-4.8-3.2c-1.5,0-4.3,0.4-4.3,2.4c0,2.6,3.9,3,7.7,3.8
			c3.8,0.9,7.7,2.3,7.7,6.9c0,5.7-5.7,7.7-10.6,7.7c-6,0-10.4-2.7-10.5-8.3H116.3z"/>
		<path class="st14" d="M136.3,76h5.2v5h-5.2V76z M136.3,85h5.2v23.8h-5.2V85z"/>
		<path class="st14" d="M169.3,107.6c0,7.2-4.1,10.7-11.7,10.7c-4.8,0-10.1-1.8-10.6-7.4h5.2c0.6,3,3,3.5,5.7,3.5
			c4.2,0,6.1-2.2,6.1-6.1v-3.6h-0.1c-1.5,2.6-4.2,4.2-7.1,4.2c-7.5,0-10.7-5.7-10.7-12.5c0-6.4,4-11.9,10.8-11.9c3,0,5.7,1.2,7,3.9
			h0.1V85h5.2V107.6z M164,96.4c0-4.1-1.8-7.9-6.4-7.9c-4.6,0-6.3,4.3-6.3,8.3c0,3.9,1.9,7.9,6.3,7.9
			C162.3,104.7,164,100.5,164,96.4z"/>
		<path class="st14" d="M174.5,85h5v3.5l0.1,0.1c1.6-2.6,4.3-4.2,7.4-4.2c5.2,0,8.4,2.7,8.4,8.1v16.3h-5.2v-15
			c-0.1-3.7-1.5-5.3-4.6-5.3c-3.5,0-5.8,2.8-5.8,6.3v14h-5.2V85z"/>
		<path class="st14" d="M214.3,76h5.8V89h15V76h5.8v32.8H235V94h-15v14.8h-5.8V76z"/>
		<path class="st14" d="M247.1,76h5.2v5h-5.2V76z M247.1,85h5.2v23.8h-5.2V85z"/>
		<path class="st14" d="M262,101.2c0.3,3.1,2.6,4.1,5.4,4.1c2,0,5.4-0.4,5.3-3.1c-0.1-2.8-4-3.1-7.8-4c-3.9-0.8-7.6-2.2-7.6-7
			c0-5.2,5.6-6.8,9.9-6.8c4.9,0,9.3,2,9.9,7.3h-5.5c-0.5-2.5-2.5-3.2-4.8-3.2c-1.5,0-4.3,0.4-4.3,2.4c0,2.6,3.9,3,7.7,3.8
			c3.8,0.9,7.7,2.3,7.7,6.9c0,5.7-5.7,7.7-10.6,7.7c-6,0-10.4-2.7-10.5-8.3H262z"/>
		<path class="st14" d="M279.5,85h4v-7.1h5.2V85h4.7v3.9h-4.7v12.7c0,2.2,0.2,3.3,2.5,3.3c0.7,0,1.5,0,2.2-0.2v4
			c-1.1,0.1-2.3,0.3-3.4,0.3c-5.5,0-6.4-2.1-6.6-6.1v-14h-4V85z"/>
		<path class="st14" d="M296.1,96.9c0-7.2,4.4-12.5,12-12.5s12,5.3,12,12.5c0,7.3-4.4,12.6-12,12.6S296.1,104.2,296.1,96.9z
			 M314.9,96.9c0-4.1-2.1-8.4-6.8-8.4s-6.8,4.3-6.8,8.4c0,4.1,2.1,8.4,6.8,8.4S314.9,101,314.9,96.9z"/>
		<path class="st14" d="M324.5,85h4.9v4.6h0.1c0.6-2.5,3.8-5.2,6.9-5.2c1.2,0,1.5,0.1,2,0.1v5.1c-0.7-0.1-1.5-0.2-2.3-0.2
			c-3.5,0-6.4,2.9-6.4,8.1v11.3h-5.2V85z"/>
		<path class="st14" d="M338.1,85h5.8l6.2,17.8h0.1l6-17.8h5.5l-9.2,25.1c-1.7,4.3-2.9,8.1-8.4,8.1c-1.2,0-2.4-0.1-3.6-0.3v-4.4
			c0.9,0.1,1.6,0.3,2.5,0.3c2.4,0,3.1-1.3,3.7-3.3l0.6-1.8L338.1,85z"/>
		<path class="st14" d="M378.1,76h22.7v5h-16.9v8.6h14.9v4.7h-14.9v14.6h-5.8V76z"/>
		<path class="st14" d="M404.8,76h5.2v5h-5.2V76z M404.8,85h5.2v23.8h-5.2V85z"/>
		<path class="st14" d="M415.9,76h5.2v32.8h-5.2V76z"/>
		<path class="st14" d="M430.9,98.3c0,3.7,2,7,6.4,7c3.1,0,4.9-1.3,5.8-4h5c-1.1,5.2-5.6,8.1-10.8,8.1c-7.5,0-11.6-5.2-11.6-12.5
			c0-6.8,4.4-12.6,11.5-12.6c7.5,0,12.1,6.8,11.2,13.9H430.9z M443.1,94.8c-0.2-3.3-2.4-6.3-6-6.3c-3.6,0-6.1,2.8-6.3,6.3H443.1z"/>
	</g>
</g>
<g>
</g>
<g>
</g>
<g>
</g>
<g>
</g>
<g>
</g>
<g>
</g>
</svg>
