<?xml version="1.0" encoding="utf-8"?>
<!-- Generator: Adobe Illustrator 16.0.3, SVG Export Plug-In . SVG Version: 6.00 Build 0)  -->
<!DOCTYPE svg PUBLIC "-//W3C//DTD SVG 1.1//EN" "http://www.w3.org/Graphics/SVG/1.1/DTD/svg11.dtd">
<svg version="1.1" id="Layer_1" xmlns="http://www.w3.org/2000/svg" xmlns:xlink="http://www.w3.org/1999/xlink" x="0px" y="0px"
	 width="2048px" height="1000px" viewBox="0 0 2048 1000" enable-background="new 0 0 2048 1000" xml:space="preserve">
<rect fill="#B9E5FB" width="2048" height="1000"/>
<g>
	<g>
		<g>
			<polygon fill="#FFFFFF" points="1934.946,942.812 1934.946,496.546 1934.946,300.125 1779.95,159.363 720.421,159.363 
				720.421,942.812 			"/>
			<g>
				<polygon fill="#2C5871" points="1779.95,300.125 1934.946,300.125 1779.95,159.363 				"/>
				<polygon fill="#D1ECFB" points="1934.946,300.125 1779.95,300.125 1934.946,440.863 				"/>
			</g>
		</g>
	</g>
</g>
<rect fill="#4EA8DE" width="570" height="1000"/>
<rect x="1" y="710" fill="#116BB4" width="569" height="288.9"/>
<text transform="matrix(1 0 0 1 48.2358 110.3975)" fill="#FFFFFF" font-family="'HelveticaNeueLTPro-Bd'" font-size="46">Who</text>
<line fill="none" stroke="#343636" stroke-width="3.5617" stroke-miterlimit="10" x1="48.187" y1="51.9" x2="528.101" y2="51.9"/>
<g>
	<rect x="1020.229" y="203.654" fill="none" width="631.487" height="73.743"/>
	<text transform="matrix(1 0 0 1 1020.229 222.2173)"><tspan x="0" y="0" fill="#333333" font-family="'HelveticaNeueLTPro-Roman'" font-size="26">•  Nonconforming materials will be assigned one of </tspan><tspan x="25" y="31.2" fill="#333333" font-family="'HelveticaNeueLTPro-Roman'" font-size="26">five dispositions based on the investigation</tspan></text>
</g>
<g>
	<g>
		
			<line fill="none" stroke="#4EA8DE" stroke-width="2" stroke-miterlimit="10" x1="898.679" y1="288.794" x2="898.679" y2="406.914"/>
		<g>
			<polygon fill="#4EA8DE" points="886.408,396.973 888.607,394.926 898.676,405.762 908.748,394.926 910.945,396.973 
				898.676,410.168 			"/>
		</g>
	</g>
</g>
<rect x="782.262" y="200.591" fill="none" width="283.366" height="83.511"/>
<text transform="matrix(1 0 0 1 782.2617 222.0107)"><tspan x="0" y="0" fill="#074164" font-family="'HelveticaNeueLTPro-Bd'" font-size="30">Determine </tspan><tspan x="0" y="36" fill="#074164" font-family="'HelveticaNeueLTPro-Bd'" font-size="30">disposition</tspan></text>
<rect x="782.262" y="439.085" fill="none" width="198.045" height="112.003"/>
<text transform="matrix(1 0 0 1 782.2617 460.5049)"><tspan x="0" y="0" fill="#074164" font-family="'HelveticaNeueLTPro-Bd'" font-size="30">Document </tspan><tspan x="0" y="36" fill="#074164" font-family="'HelveticaNeueLTPro-Bd'" font-size="30">disposition </tspan><tspan x="0" y="72" fill="#074164" font-family="'HelveticaNeueLTPro-Bd'" font-size="30">on IDF</tspan></text>
<path fill="#FFFFFF" d="M517.648,471.162H66.916c-4.718,0-8.579-5.118-8.579-11.373V182.533c0-6.255,3.86-11.372,8.579-11.372
	h450.732c4.718,0,8.579,5.117,8.579,11.372v277.256C526.227,466.044,522.367,471.162,517.648,471.162"/>
<path fill="#EFEFF0" d="M516.404,171.162H258.637v300h257.767c3.756,0,6.823-4.549,6.823-10.122V181.283
	C523.227,175.709,520.16,171.162,516.404,171.162"/>
<g>
	<rect x="85" y="394.71" fill="#8CC63F" width="1.2" height="12.8"/>
	<path fill="#8CC63F" d="M88.6,394.71H94c2.1,0,4.1,0.699,4.1,3.1c0,1.3-0.9,2.6-2.2,2.9c1.7,0.199,2.7,1.5,2.7,3.1
		c0,1.2-0.4,3.6-4.6,3.6h-5.4V394.71z M89.8,400.31H94c1.9,0,2.9-1,2.9-2.2c0-1.6-1-2.399-2.9-2.399h-4.2V400.31z M89.8,406.41H94
		c1.8,0,3.4-0.6,3.4-2.6c0-1.7-1.2-2.5-3.4-2.5h-4.2V406.41z"/>
	<polygon fill="#8CC63F" points="100.6,394.71 102.4,394.71 106.8,405.91 111.2,394.71 113,394.71 113,407.51 111.8,407.51 
		111.8,396.41 107.4,407.51 106.2,407.51 101.8,396.41 101.8,407.51 100.6,407.51 	"/>
	<polygon fill="#173E68" points="130.2,407.41 127.4,407.41 125.2,398.71 123.1,407.41 120.2,407.41 116.8,394.61 119.6,394.61 
		121.6,403.31 123.8,394.61 126.4,394.61 128.6,403.41 130.7,394.61 133.5,394.61 	"/>
	<path fill="#173E68" d="M133.9,400.91c0.2-2.399,2.3-3.1,4.4-3.1c1.8,0,4.1,0.4,4.1,2.6v4.801c0,0.8,0.1,1.699,0.3,2.1h-2.6
		c-0.1-0.3-0.2-0.6-0.2-0.9c-0.8,0.801-2,1.2-3.1,1.2c-1.8,0-3.1-0.899-3.1-2.8c0-4.2,6.3-2,6.2-4c0-1.1-0.7-1.2-1.7-1.2
		s-1.6,0.4-1.7,1.4h-2.6V400.91z M139.8,402.81c-0.4,0.4-1.3,0.4-2.1,0.5c-0.8,0.2-1.5,0.4-1.5,1.4s0.7,1.199,1.6,1.199
		c2,0,2.1-1.6,2.1-2.1v-1H139.8z"/>
	<path fill="#173E68" d="M147.5,398.11h1.9v1.7h-1.9v4.6c0,0.9,0.2,1.101,1.1,1.101c0.3,0,0.6,0,0.8-0.101v2
		c-0.4,0.101-1,0.101-1.5,0.101c-1.6,0-2.9-0.3-2.9-2.2v-5.5h-1.6v-1.7h1.6v-2.8h2.6L147.5,398.11z"/>
	<path fill="#173E68" d="M152.6,404.41c0,1.101,1,1.601,2,1.601c0.7,0,1.7-0.3,1.7-1.2c0-0.8-1.1-1.1-2.9-1.4c-1.5-0.3-3-0.8-3-2.5
		c0-2.399,2.1-3,4-3c2,0,3.9,0.7,4.1,3h-2.4c-0.1-1-0.8-1.199-1.7-1.199c-0.6,0-1.4,0.1-1.4,0.899c0,0.9,1.5,1,2.9,1.4
		c1.5,0.3,3,0.899,3,2.6c0,2.4-2.1,3.2-4.2,3.2c-2.1,0-4.3-0.8-4.4-3.3h2.3V404.41z"/>
	<path fill="#173E68" d="M164.6,397.91c2.9,0,4.8,1.9,4.8,4.9s-1.9,4.9-4.8,4.9s-4.8-1.9-4.8-4.9S161.6,397.91,164.6,397.91
		 M164.6,405.71c1.7,0,2.3-1.5,2.3-3s-0.5-3-2.3-3c-1.7,0-2.2,1.5-2.2,3S162.8,405.71,164.6,405.71"/>
	<path fill="#173E68" d="M170.6,398.11h2.4v1.3h0.1c0.7-1.1,1.7-1.6,2.8-1.6c2.7,0,3.4,1.5,3.4,3.8v5.7h-2.6v-5.2
		c0-1.5-0.4-2.3-1.6-2.3c-1.4,0-2,0.8-2,2.6v4.9h-2.6L170.6,398.11z"/>
	<polygon fill="#173E68" points="184.4,394.61 187.2,394.61 187.2,399.51 192.4,399.51 192.4,394.61 195.2,394.61 195.2,407.41 
		192.4,407.41 192.4,401.91 187.2,401.91 187.2,407.41 184.4,407.41 	"/>
	<path fill="#173E68" d="M199.4,403.41c0.1,1.601,0.8,2.4,2.3,2.4c1,0,1.8-0.6,2-1.2h2.2c-0.7,2.2-2.2,3.101-4.3,3.101
		c-2.9,0-4.7-2-4.7-4.9c0-2.8,1.9-4.9,4.7-4.9c3.1,0,4.7,2.601,4.5,5.5H199.4z M203.5,401.71c-0.2-1.301-0.8-2-2-2
		c-1.7,0-2.1,1.199-2.1,2H203.5z"/>
	<path fill="#173E68" d="M207.6,400.91c0.2-2.399,2.3-3.1,4.4-3.1c1.8,0,4.1,0.4,4.1,2.6v4.801c0,0.8,0.1,1.699,0.3,2.1h-2.6
		c-0.1-0.3-0.2-0.6-0.2-0.9c-0.8,0.801-2,1.2-3.1,1.2c-1.8,0-3.1-0.899-3.1-2.8c0-4.2,6.3-2,6.2-4c0-1.1-0.7-1.2-1.7-1.2
		s-1.6,0.4-1.7,1.4h-2.6V400.91z M213.4,402.81c-0.4,0.4-1.3,0.4-2.1,0.5c-0.8,0.2-1.5,0.4-1.5,1.4s0.7,1.199,1.6,1.199
		c2,0,2.1-1.6,2.1-2.1v-1H213.4z"/>
	<path fill="#173E68" d="M225.7,398.11h1.9v1.7h-1.9v4.6c0,0.9,0.2,1.101,1.1,1.101c0.3,0,0.6,0,0.8-0.101v2
		c-0.4,0.101-1,0.101-1.5,0.101c-1.6,0-2.9-0.3-2.9-2.2v-5.5h-1.6v-1.7h1.6v-2.8h2.6v2.8H225.7z"/>
	<path fill="#173E68" d="M229.2,394.61h2.6v4.8h0.1c0.7-1.1,1.7-1.6,2.7-1.6c2.7,0,3.4,1.5,3.4,3.8v5.7h-2.6v-5.2
		c0-1.5-0.4-2.3-1.6-2.3c-1.4,0-2,0.8-2,2.6v4.9h-2.6V394.61z"/>
	<rect x="217.9" y="394.61" fill="#173E68" width="2.6" height="12.8"/>
</g>
<rect x="283.837" y="203.654" fill="none" width="222.779" height="59.792"/>
<text transform="matrix(1 0 0 1 283.8374 223.6455)" fill="#231F20" font-family="'HelveticaNeueLTPro-Md'" font-size="28">The ORB </text>
<g>
	<rect x="287.609" y="278.009" fill="none" width="211.507" height="177.083"/>
	<text transform="matrix(1 0 0 1 287.6094 294.4312)"><tspan x="0" y="0" fill="#333333" font-family="'HelveticaNeueLTPro-Roman'" font-size="23">is responsible for </tspan><tspan x="0" y="27.6" fill="#333333" font-family="'HelveticaNeueLTPro-Roman'" font-size="23">determining the </tspan><tspan x="0" y="55.2" fill="#333333" font-family="'HelveticaNeueLTPro-Roman'" font-size="23">disposition decision </tspan><tspan x="0" y="82.8" fill="#333333" font-family="'HelveticaNeueLTPro-Roman'" font-size="23">of the </tspan><tspan x="0" y="110.4" fill="#333333" font-family="'HelveticaNeueLTPro-Roman'" font-size="23">nonconforming </tspan><tspan x="0" y="138" fill="#333333" font-family="'HelveticaNeueLTPro-Roman'" font-size="23">material</tspan></text>
</g>
<path fill="#89C240" d="M202.45,362.414h-95.7c-5.5,0-10-4.5-10-10v-107.9c0-5.5,4.5-10,10-10h95.7c5.5,0,10,4.5,10,10v107.9
	C212.45,357.914,207.95,362.414,202.45,362.414"/>
<path fill="#FFFFFF" d="M517.648,844.064H66.916c-4.718,0-8.579-5.117-8.579-11.373V555.437c0-6.255,3.86-11.372,8.579-11.372
	h450.732c4.718,0,8.579,5.117,8.579,11.372v277.255C526.227,838.947,522.367,844.064,517.648,844.064"/>
<path fill="#EFEFF0" d="M516.404,544.064H258.637v300h257.767c3.756,0,6.823-4.548,6.823-10.122V554.187
	C523.227,548.612,520.16,544.064,516.404,544.064"/>
<g>
	<rect x="85" y="767.613" fill="#8CC63F" width="1.2" height="12.801"/>
	<path fill="#8CC63F" d="M88.6,767.613H94c2.1,0,4.1,0.699,4.1,3.1c0,1.301-0.9,2.6-2.2,2.9c1.7,0.199,2.7,1.5,2.7,3.1
		c0,1.201-0.4,3.6-4.6,3.6h-5.4V767.613z M89.8,773.213H94c1.9,0,2.9-1,2.9-2.199c0-1.6-1-2.4-2.9-2.4h-4.2V773.213z M89.8,779.312
		H94c1.8,0,3.4-0.6,3.4-2.6c0-1.699-1.2-2.5-3.4-2.5h-4.2V779.312z"/>
	<polygon fill="#8CC63F" points="100.6,767.613 102.4,767.613 106.8,778.812 111.2,767.613 113,767.613 113,780.414 111.8,780.414 
		111.8,769.312 107.4,780.414 106.2,780.414 101.8,769.312 101.8,780.414 100.6,780.414 	"/>
	<polygon fill="#173E68" points="130.2,780.312 127.4,780.312 125.2,771.613 123.1,780.312 120.2,780.312 116.8,767.514 
		119.6,767.514 121.6,776.213 123.8,767.514 126.4,767.514 128.6,776.312 130.7,767.514 133.5,767.514 	"/>
	<path fill="#173E68" d="M133.9,773.812c0.2-2.398,2.3-3.1,4.4-3.1c1.8,0,4.1,0.4,4.1,2.6v4.801c0,0.801,0.1,1.699,0.3,2.1h-2.6
		c-0.1-0.299-0.2-0.6-0.2-0.9c-0.8,0.801-2,1.201-3.1,1.201c-1.8,0-3.1-0.9-3.1-2.801c0-4.199,6.3-2,6.2-4
		c0-1.1-0.7-1.199-1.7-1.199s-1.6,0.4-1.7,1.4h-2.6V773.812z M139.8,775.713c-0.4,0.4-1.3,0.4-2.1,0.5c-0.8,0.201-1.5,0.4-1.5,1.4
		s0.7,1.199,1.6,1.199c2,0,2.1-1.6,2.1-2.1v-1H139.8z"/>
	<path fill="#173E68" d="M147.5,771.014h1.9v1.699h-1.9v4.6c0,0.9,0.2,1.102,1.1,1.102c0.3,0,0.6,0,0.8-0.102v2
		c-0.4,0.102-1,0.102-1.5,0.102c-1.6,0-2.9-0.301-2.9-2.201v-5.5h-1.6v-1.699h1.6v-2.801h2.6L147.5,771.014z"/>
	<path fill="#173E68" d="M152.6,777.312c0,1.102,1,1.602,2,1.602c0.7,0,1.7-0.301,1.7-1.201c0-0.799-1.1-1.1-2.9-1.4
		c-1.5-0.299-3-0.799-3-2.5c0-2.398,2.1-3,4-3c2,0,3.9,0.701,4.1,3h-2.4c-0.1-1-0.8-1.199-1.7-1.199c-0.6,0-1.4,0.1-1.4,0.9
		c0,0.9,1.5,1,2.9,1.4c1.5,0.299,3,0.898,3,2.6c0,2.4-2.1,3.199-4.2,3.199c-2.1,0-4.3-0.799-4.4-3.299h2.3V777.312z"/>
	<path fill="#173E68" d="M164.6,770.812c2.9,0,4.8,1.9,4.8,4.9s-1.9,4.9-4.8,4.9s-4.8-1.9-4.8-4.9S161.6,770.812,164.6,770.812
		 M164.6,778.613c1.7,0,2.3-1.5,2.3-3s-0.5-3-2.3-3c-1.7,0-2.2,1.5-2.2,3S162.8,778.613,164.6,778.613"/>
	<path fill="#173E68" d="M170.6,771.014h2.4v1.299h0.1c0.7-1.1,1.7-1.6,2.8-1.6c2.7,0,3.4,1.5,3.4,3.801v5.699h-2.6v-5.199
		c0-1.5-0.4-2.301-1.6-2.301c-1.4,0-2,0.801-2,2.6v4.9h-2.6L170.6,771.014z"/>
	<polygon fill="#173E68" points="184.4,767.514 187.2,767.514 187.2,772.414 192.4,772.414 192.4,767.514 195.2,767.514 
		195.2,780.312 192.4,780.312 192.4,774.812 187.2,774.812 187.2,780.312 184.4,780.312 	"/>
	<path fill="#173E68" d="M199.4,776.312c0.1,1.602,0.8,2.4,2.3,2.4c1,0,1.8-0.6,2-1.199h2.2c-0.7,2.199-2.2,3.1-4.3,3.1
		c-2.9,0-4.7-2-4.7-4.9c0-2.799,1.9-4.9,4.7-4.9c3.1,0,4.7,2.602,4.5,5.5H199.4z M203.5,774.613c-0.2-1.301-0.8-2-2-2
		c-1.7,0-2.1,1.199-2.1,2H203.5z"/>
	<path fill="#173E68" d="M207.6,773.812c0.2-2.398,2.3-3.1,4.4-3.1c1.8,0,4.1,0.4,4.1,2.6v4.801c0,0.801,0.1,1.699,0.3,2.1h-2.6
		c-0.1-0.299-0.2-0.6-0.2-0.9c-0.8,0.801-2,1.201-3.1,1.201c-1.8,0-3.1-0.9-3.1-2.801c0-4.199,6.3-2,6.2-4
		c0-1.1-0.7-1.199-1.7-1.199s-1.6,0.4-1.7,1.4h-2.6V773.812z M213.4,775.713c-0.4,0.4-1.3,0.4-2.1,0.5c-0.8,0.201-1.5,0.4-1.5,1.4
		s0.7,1.199,1.6,1.199c2,0,2.1-1.6,2.1-2.1v-1H213.4z"/>
	<path fill="#173E68" d="M225.7,771.014h1.9v1.699h-1.9v4.6c0,0.9,0.2,1.102,1.1,1.102c0.3,0,0.6,0,0.8-0.102v2
		c-0.4,0.102-1,0.102-1.5,0.102c-1.6,0-2.9-0.301-2.9-2.201v-5.5h-1.6v-1.699h1.6v-2.801h2.6v2.801H225.7z"/>
	<path fill="#173E68" d="M229.2,767.514h2.6v4.799h0.1c0.7-1.1,1.7-1.6,2.7-1.6c2.7,0,3.4,1.5,3.4,3.801v5.699h-2.6v-5.199
		c0-1.5-0.4-2.301-1.6-2.301c-1.4,0-2,0.801-2,2.6v4.9h-2.6V767.514z"/>
	<rect x="217.9" y="767.514" fill="#173E68" width="2.6" height="12.799"/>
</g>
<rect x="287.609" y="575.874" fill="none" width="211.507" height="63.084"/>
<text transform="matrix(1 0 0 1 287.6094 595.8652)"><tspan x="0" y="0" fill="#231F20" font-family="'HelveticaNeueLTPro-Md'" font-size="28">The ORB </tspan><tspan x="0" y="33.601" fill="#231F20" font-family="'HelveticaNeueLTPro-Md'" font-size="28">Chairperson </tspan></text>
<g>
	<rect x="287.609" y="679.235" fill="none" width="211.507" height="176.557"/>
	<text transform="matrix(1 0 0 1 287.6094 695.6572)"><tspan x="0" y="0" fill="#333333" font-family="'HelveticaNeueLTPro-Roman'" font-size="23">is responsible for </tspan><tspan x="0" y="27.601" fill="#333333" font-family="'HelveticaNeueLTPro-Roman'" font-size="23">documenting the </tspan><tspan x="0" y="55.2" fill="#333333" font-family="'HelveticaNeueLTPro-Roman'" font-size="23">final disposition on </tspan><tspan x="0" y="82.8" fill="#333333" font-family="'HelveticaNeueLTPro-Roman'" font-size="23">IDF with supporting </tspan><tspan x="0" y="110.399" fill="#333333" font-family="'HelveticaNeueLTPro-Roman'" font-size="23">justification</tspan></text>
</g>
<path fill="#89C240" d="M202.45,735.316h-95.7c-5.5,0-10-4.5-10-10v-107.9c0-5.5,4.5-10,10-10h95.7c5.5,0,10,4.5,10,10v107.9
	C212.45,730.816,207.95,735.316,202.45,735.316"/>
<g>
	<path fill-rule="evenodd" clip-rule="evenodd" fill="#E3CCA4" d="M141.569,662.27h25.694l2.732,29.229
		c0.19,2.029,1.957,3.586,4.14,3.654l0.489,0.012l-3.259,10.932l-34.137-2.66l-2.518-8.271l0.948-0.133
		c1.987-0.289,3.46-1.779,3.606-3.664L141.569,662.27z"/>
	<path fill-rule="evenodd" clip-rule="evenodd" fill="#D4C5A3" d="M154.604,704.787l-17.375-1.352l-2.518-8.271l0.948-0.133
		c1.987-0.289,3.46-1.779,3.606-3.664l1.639-20.619h13.7V704.787z"/>
	<path fill-rule="evenodd" clip-rule="evenodd" fill="#CCBC97" d="M141.569,662.27h25.694l2.066,22.1
		c-0.471,0.775-0.783,1.217-1.302,1.938c-3.753,5.16-8.631,8.676-13.346,8.676c-4.712,0-9.591-3.516-13.345-8.676
		c-0.581-0.801-0.972-1.375-1.492-2.242L141.569,662.27z"/>
	<path fill-rule="evenodd" clip-rule="evenodd" fill="#2C3E50" d="M154.604,687.291c-6.003,0-12.02-3.881-16.5-9.598
		c-4.415-5.618-7.397-13.064-7.397-20.266v-0.178l0.024-0.085c-0.019-0.478-0.031-0.954-0.031-1.437
		c0-17.276-3.172-31.281,23.904-31.281c27.074,0,23.902,14.005,23.902,31.281c0,0.482-0.012,0.959-0.036,1.437l0.03,0.085v0.178
		c0,7.201-2.984,14.647-7.397,20.266C166.615,683.41,160.601,687.291,154.604,687.291z"/>
	<path fill-rule="evenodd" clip-rule="evenodd" fill="#ECF0F1" d="M158.759,701.193h-8.058l-11.608-8.934l-4.457,2.904
		c-14.256,2.941-25.187,9.244-25.187,18.902c0,4.75,0,9.5,0,14.25c0,3.852,3.362,7,7.482,7h13.92H149.7h10.063h16.451h16.048
		c4.119,0,7.481-3.148,7.481-7l0.006-14.25c0-9.664-10.943-15.961-25.199-18.902l-4.371-2.799L158.759,701.193z"/>
	<polygon fill-rule="evenodd" clip-rule="evenodd" fill="#DAE1E6" points="158.759,701.193 150.702,701.193 139.094,692.26 
		134.637,695.164 157.806,719.178 159.763,735.316 160.776,735.316 158.393,712.996 176.103,695.502 174.55,695.164 
		170.179,692.365 	"/>
	<path fill-rule="evenodd" clip-rule="evenodd" fill="#FFE7BD" d="M138.641,680.891c4.488,5.717,10.326,9.604,15.963,9.604
		c5.629,0,11.468-3.887,15.954-9.604c4.61-5.881,7.74-13.621,7.794-21.109l-1.576-5.955c-0.563-2.127-0.612-4.107-0.649-6.002
		c-0.055-2.471-0.11-4.757-1.565-6.633c-2.329-3.008-6.009-2.03-10.331-0.881c-2.946,0.783-6.144,1.632-9.628,1.632
		c-3.479,0-6.676-0.849-9.623-1.632h-0.013c-4.321-1.149-7.996-2.127-10.331,0.881c-1.449,1.876-1.504,4.162-1.559,6.633
		c-0.037,1.895-0.091,3.875-0.647,6.002l-1.578,5.955C130.908,667.27,134.033,675.01,138.641,680.891z"/>
	<path fill-rule="evenodd" clip-rule="evenodd" fill="#E8D6AC" d="M138.641,680.891c4.488,5.717,10.326,9.604,15.963,9.604v-48.552
		c-3.479,0-6.676-0.849-9.623-1.632h-0.013c-4.321-1.149-7.996-2.127-10.331,0.881c-1.449,1.876-1.504,4.162-1.559,6.633
		c-0.037,1.889-0.091,3.875-0.654,6.002l-1.571,5.955C130.908,667.27,134.033,675.01,138.641,680.891z"/>
	<path fill-rule="evenodd" clip-rule="evenodd" fill="#3D566E" d="M149.7,735.316h10.063c-1.082-8.932-2.17-15.949-3.253-24.881
		c-0.055-0.482,0.08-0.887,0.33-1.32l2.697-6.615c0.164-0.279,0.189-0.586,0.03-0.867c-0.171-0.281-0.464-0.439-0.808-0.439
		c-2.683,0-5.367,0-8.058,0c-0.334,0-0.635,0.158-0.8,0.439s-0.135,0.588,0.024,0.867l2.702,6.615
		c0.251,0.434,0.386,0.838,0.324,1.32C151.87,719.367,150.789,726.385,149.7,735.316z"/>
	<path fill-rule="evenodd" clip-rule="evenodd" fill="#2C3E50" d="M156.51,710.436c-0.055-0.482,0.08-0.887,0.33-1.32l2.697-6.615
		c0.164-0.279,0.189-0.586,0.03-0.867c-0.171-0.281-0.464-0.439-0.808-0.439c-2.683,0-5.367,0-8.058,0
		c-0.341,0-0.635,0.158-0.8,0.439s-0.135,0.588,0.024,0.867l2.696,6.615c0.257,0.434,0.392,0.838,0.33,1.32l-0.402,3.338
		l4.871,4.156L156.51,710.436z"/>
	<polygon fill-rule="evenodd" clip-rule="evenodd" fill="#ECF0F1" points="154.731,701.193 139.094,692.26 134.637,695.164 
		149.981,709.818 	"/>
	<polygon fill-rule="evenodd" clip-rule="evenodd" fill="#ECF0F1" points="154.731,701.193 170.179,692.365 174.625,695.164 
		159.487,709.818 	"/>
	<path fill-rule="evenodd" clip-rule="evenodd" fill="#2C3E50" d="M109.45,714.066c0,4.75,0,9.5,0,14.25c0,3.852,3.362,7,7.482,7
		h36.349l-2.939-5.246c-7.116-12.941-11.249-18.504-15.706-34.906C120.381,698.105,109.45,704.408,109.45,714.066L109.45,714.066z
		 M155.899,735.316h36.362c4.119,0,7.481-3.148,7.481-7l0.006-14.25c0-9.664-10.943-15.961-25.199-18.902
		c-4.408,16.219-8.498,21.838-15.473,34.486L155.899,735.316z"/>
</g>
<g>
	<polygon fill="#89C240" points="1895.547,903.394 1909.014,916.893 1895.547,930.392 1900.881,935.726 1919.714,916.893 
		1900.881,898.06 	"/>
	<polygon fill="#89C240" points="1883.364,935.726 1902.197,916.893 1883.364,898.06 1878.03,903.394 1891.529,916.893 
		1878.03,930.392 	"/>
</g>
<rect x="1520.138" y="907.992" fill="none" width="352.547" height="21.806"/>
<text transform="matrix(1 0 0 1 1537.8516 922.2715)" fill="#333333" font-family="'HelveticaNeueLTPro-It'" font-size="20">Disposition descriptions on next page</text>
<g>
	<rect x="176.089" y="287.174" fill-rule="evenodd" clip-rule="evenodd" fill="#666666" width="0" height="0"/>
	<polygon fill-rule="evenodd" clip-rule="evenodd" fill="#666666" points="139.879,317.462 139.879,317.462 139.879,317.462 	"/>
	<path fill-rule="evenodd" clip-rule="evenodd" fill="#916F45" d="M142.522,284.965l25.125,0.014l2.656,31.142
		c0.19,2.155,1.911,3.822,4.039,3.889l0.474,0.014l-6.559,6.153l-12.915,18.783l-12.807-19.175l-6.735-5.774l0.921-0.149
		c1.951-0.298,3.388-1.897,3.537-3.889L142.522,284.965z"/>
	<path fill-rule="evenodd" clip-rule="evenodd" fill="#85633C" d="M155.342,344.959L155.342,344.959l-12.807-19.175l-6.735-5.774
		l0.921-0.149c1.951-0.298,3.388-1.897,3.537-3.889l1.816-24.962l13.28,0.014L155.342,344.959z"/>
	<path fill-rule="evenodd" clip-rule="evenodd" fill="#735735" d="M140.923,306.852L169.53,307l0.108,1.342
		c-0.46,0.813-0.745,1.26-1.26,2.019c-3.673,5.448-8.443,9.161-13.051,9.147c-4.607,0-9.378-3.713-13.036-9.161
		c-0.569-0.84-0.949-1.423-1.45-2.344L140.923,306.852z"/>
	<path fill-rule="evenodd" clip-rule="evenodd" fill="#ECF0F1" d="M132.209,320.173l6.613-1.274l6.613,2.724
		c1.139,0.461,1.897,1.288,2.398,2.372l7.508,16.465l7.48-17.169c0.461-1.044,1.314-1.762,2.412-2.182l6.274-2.344l5.759,1.233
		l4.215,1.288l7.209,41.129l-66.647-0.027l6.288-40.709L132.209,320.173z"/>
	<path fill-rule="evenodd" clip-rule="evenodd" fill="#2C3E50" d="M195.956,355.042c0.068-14.907-0.976-30.654-18.404-35.045
		c1.437,2.751,0.339,5.218,3.186,13.132l-13.146-7.332c-4.174,10.055-8.361,20.097-12.549,30.139l-12.508-30.152l-13.159,7.331
		c2.806-7.738,1.816-10.272,3.104-12.941c-16.723,4.607-17.752,20.205-17.698,34.827c0.013,4.08,3.266,7.386,7.263,7.386
		c22.212,0.014,44.422,0.014,66.647,0.027C192.677,362.414,195.942,359.107,195.956,355.042z"/>
	<path fill-rule="evenodd" clip-rule="evenodd" fill="#2C3E50" d="M136.044,305.753c-28.255-45.885,15.938-63.231,17.658-56.889
		c0.434,1.653,0.515,0.881,1.586,0.135c13.511-9.5,42.891,21.019,19.216,56.999c-1.504,0.406-3.321,0.772-5.38,1.057l-0.122,0.163
		c1.735-2.372,3.239-5.176,4.418-8.32l0,0c0.624-1.83,1.179-3.795,1.626-5.801c0.448-1.978,0.814-3.998,1.043-5.962l0,0
		c0.082-0.827,0.149-1.653,0.19-2.493c0.041-0.772,0.054-1.64,0.054-2.575c0-0.678,0-1.233-0.013-1.627
		c-0.014-0.447-0.041-0.962-0.068-1.503c-0.529-4.324-6.369-5.299-12.657-6.342c-7.386-1.22-15.273-2.535-18.444-9.148l-0.054,0.041
		c-3.171,2.738-9.093,7.833-10.313,17.197c-0.108,0.84-0.189,1.721-0.229,2.628c-0.041,0.895-0.041,1.816-0.014,2.765h0.014
		c0.623,8.28,3.184,15.598,6.952,20.869C139.378,306.607,137.521,306.214,136.044,305.753z"/>
	<path fill-rule="evenodd" clip-rule="evenodd" fill="#AA8150" d="M173.419,298.897c0.624-1.83,1.179-3.795,1.626-5.801
		c0.448-1.978,0.8-3.984,1.043-5.962l0,0c0.082-0.827,0.149-1.653,0.19-2.493c0.041-0.772,0.054-1.64,0.054-2.575
		c0-0.678,0-1.233-0.013-1.627c-0.014-0.447-0.041-0.962-0.068-1.503c-0.529-4.324-6.369-5.299-12.657-6.342
		c-7.386-1.22-15.273-2.535-18.444-9.148l-0.054,0.041c-3.171,2.738-9.093,7.833-10.313,17.21c-0.108,0.827-0.189,1.708-0.229,2.615
		c-0.041,0.895-0.041,1.816-0.014,2.765h0.014c0.637,8.415,3.279,15.842,7.142,21.113h0.013c3.673,5.028,8.457,8.077,13.646,8.077
		c3.673,0,7.156-1.532,10.177-4.215h0.014C168.785,308.166,171.509,303.965,173.419,298.897L173.419,298.897z"/>
	<path fill-rule="evenodd" clip-rule="evenodd" fill="#977042" d="M155.369,270.912c-4.405-1.273-8.24-3.333-10.219-7.467
		l-0.054,0.041c-3.171,2.738-9.093,7.833-10.313,17.197c-0.108,0.84-0.189,1.721-0.229,2.628c-0.041,0.895-0.041,1.816-0.014,2.765
		h0.014c0.637,8.415,3.279,15.842,7.142,21.113h0.013c3.673,5.028,8.457,8.077,13.646,8.077L155.369,270.912z"/>
</g>
<line fill="none" stroke="#4EA8DE" stroke-width="4.6908" stroke-miterlimit="10" stroke-dasharray="19.9393,6.6464" x1="1427.844" y1="503.511" x2="1427.844" y2="602.309"/>
<line fill="none" stroke="#4EA8DE" stroke-width="4.6908" stroke-miterlimit="10" stroke-dasharray="18.5248,6.1749" x1="1427.844" y1="602.309" x2="1427.844" y2="687.586"/>
<line fill="none" stroke="#4EA8DE" stroke-width="4.6908" stroke-miterlimit="10" stroke-dasharray="18.5248,6.1749" x1="1612.078" y1="602.309" x2="1612.078" y2="687.586"/>
<line fill="none" stroke="#4EA8DE" stroke-width="4.6908" stroke-miterlimit="10" stroke-dasharray="18.5248,6.1749" x1="1791.836" y1="602.309" x2="1791.836" y2="687.586"/>
<line fill="none" stroke="#4EA8DE" stroke-width="4.6908" stroke-miterlimit="10" stroke-dasharray="18.5248,6.1749" x1="1246.503" y1="602.309" x2="1246.503" y2="687.586"/>
<line fill="none" stroke="#4EA8DE" stroke-width="4.6908" stroke-miterlimit="10" stroke-dasharray="18.5248,6.1749" x1="1063.592" y1="602.309" x2="1063.592" y2="687.586"/>
<line fill="none" stroke="#4EA8DE" stroke-width="4.6908" stroke-miterlimit="10" stroke-dasharray="54.1346,18.0448" x1="1063.592" y1="602.307" x2="1791.836" y2="602.307"/>
<rect x="1259.65" y="446.302" fill="#4EA8DE" stroke="#4EA8DE" stroke-width="5.8635" stroke-miterlimit="10" width="334.286" height="55.439"/>
<rect x="1246.504" y="463.821" fill="none" width="362.924" height="26.156"/>
<text transform="matrix(1 0 0 1 1352.4404 483.9175)" fill="#FFFFFF" font-family="'HelveticaNeueLTPro-Bd'" font-size="28.1448">Disposition</text>
<g>
	
		<rect x="981.277" y="687.586" fill="#FFFFFF" stroke="#4EA8DE" stroke-width="5.8635" stroke-miterlimit="10" width="153.689" height="74.991"/>
	
		<rect x="1166.138" y="687.586" fill="#FFFFFF" stroke="#4EA8DE" stroke-width="5.8635" stroke-miterlimit="10" width="153.69" height="74.991"/>
	
		<rect x="1350.998" y="687.586" fill="#FFFFFF" stroke="#4EA8DE" stroke-width="5.8635" stroke-miterlimit="10" width="153.69" height="74.991"/>
	
		<rect x="1535.859" y="687.586" fill="#FFFFFF" stroke="#4EA8DE" stroke-width="5.8635" stroke-miterlimit="10" width="153.69" height="74.991"/>
	
		<rect x="1720.72" y="687.586" fill="#FFFFFF" stroke="#4EA8DE" stroke-width="5.8635" stroke-miterlimit="10" width="153.69" height="74.991"/>
	<rect x="986.953" y="703.291" fill="none" width="142.338" height="48.731"/>
	<text transform="matrix(1 0 0 1 1005.1167 720.0371)"><tspan x="0" y="0" fill="#333333" font-family="'HelveticaNeueLTPro-Md'" font-size="23.454">No defect </tspan><tspan x="21.73" y="28.145" fill="#333333" font-family="'HelveticaNeueLTPro-Md'" font-size="23.454">found</tspan></text>
	<rect x="1171.814" y="703.291" fill="none" width="142.338" height="48.731"/>
	<text transform="matrix(1 0 0 1 1192.5928 720.0371)"><tspan x="0" y="0" fill="#333333" font-family="'HelveticaNeueLTPro-Md'" font-size="23.454">Return to </tspan><tspan x="12.806" y="28.145" fill="#333333" font-family="'HelveticaNeueLTPro-Md'" font-size="23.454">vendor</tspan></text>
	<rect x="1356.674" y="714.188" fill="none" width="142.338" height="21.79"/>
	<text transform="matrix(1 0 0 1 1386.5635 730.9326)" fill="#333333" font-family="'HelveticaNeueLTPro-Md'" font-size="23.454">Rework</text>
	<rect x="1540.908" y="714.188" fill="none" width="142.338" height="21.79"/>
	<text transform="matrix(1 0 0 1 1580.1445 730.9326)" fill="#333333" font-family="'HelveticaNeueLTPro-Md'" font-size="23.454">Scrap</text>
	<rect x="1726.396" y="714.188" fill="none" width="142.338" height="21.79"/>
	<text transform="matrix(1 0 0 1 1748.4521 730.9326)" fill="#333333" font-family="'HelveticaNeueLTPro-Md'" font-size="23.454">Use as is</text>
</g>
<g>
	<path fill="#A6DAE9" d="M965.757,827.47c0-50.137-40.644-90.783-90.785-90.783c-50.137,0-90.781,40.646-90.781,90.783
		c0,50.138,40.644,90.781,90.781,90.781C925.113,918.251,965.757,877.607,965.757,827.47z"/>
	<path fill="#8FC4D7" d="M904.259,787.378c-5.327-1.539-11.306-0.225-15.503,3.975c-4.579,4.574-5.744,11.281-3.495,16.947
		l-11.855,11.859l-24.821-24.819l-0.066,0.066l-0.027-0.23l-11.169-7.196l-2.49,2.49l-1.481,1.483l7.194,11.163l0.062,0.008
		l24.918,24.917l-14.521,14.526c-5.67-2.252-12.377-1.087-16.96,3.488c-3.601,3.607-5.078,8.521-4.451,13.22l11.216,10.939
		l-1.703,1.705l45.784,45.782c39.101-4.248,70.734-33.315,78.837-71.124l-59.331-59.333L904.259,787.378z"/>
	<g>
		<g>
			<path fill="#2C5871" d="M859.796,851.362l34.269-34.263c5.662,2.253,12.357,1.091,16.944-3.495
				c2.834-2.82,4.342-6.462,4.571-10.164l-6.617,6.623l-10.693-2.862l-2.857-10.69l9.077-9.08
				c-5.386-1.645-11.478-0.336-15.733,3.922c-4.579,4.574-5.744,11.281-3.495,16.947l-34.257,34.268
				c-5.67-2.252-12.377-1.087-16.96,3.488c-3.601,3.607-5.078,8.521-4.451,13.22l8.469-8.473l8.772,2.352l2.358,8.778l-9.872,9.868
				c5.674,2.267,12.393,1.11,16.984-3.482C860.891,863.729,862.053,857.026,859.796,851.362z"/>
			<path fill="#0E303F" d="M859.796,851.362l34.269-34.263c5.662,2.253,12.357,1.091,16.944-3.495
				c2.834-2.82,4.342-6.462,4.571-10.164l-6.617,6.623l-10.693-2.862l-0.994-3.706l-50.274,50.273l2.19,8.164l-9.872,9.868
				c5.674,2.267,12.393,1.11,16.984-3.482C860.891,863.729,862.053,857.026,859.796,851.362z"/>
		</g>
		<g>
			<polygon fill="#2C5871" points="848.49,795.176 837.321,787.979 833.35,791.953 840.544,803.116 845.076,803.682 
				845.201,803.563 878.764,837.128 882.497,833.39 848.935,799.827 849.052,799.708 			"/>
			<polygon fill="#0E303F" points="834.831,790.47 880.124,835.764 882.497,833.39 848.935,799.827 849.052,799.708 848.49,795.176 
				837.321,787.979 			"/>
			<g>
				<path fill="#15B0BF" d="M893.137,834.397c-0.998-0.98-2.436-1.237-3.679-0.785c0.159-1.648-0.495-3.531-1.536-4.577
					c-0.553-0.552-1.017-1.016-1.406-1.405c-1.36-1.359-1.816-1.812-1.816-1.814c-0.39-0.387-0.854-0.852-1.403-1.402
					c-1.368-1.362-3.593-1.37-4.98,0.002c-2.841,2.841-5.69,5.689-8.531,8.529c-1.372,1.389-1.368,3.618,0,4.982
					c0.549,0.549,1.013,1.013,1.403,1.402c1.36,1.358,1.812,1.814,1.812,1.814c0.39,0.39,0.857,0.855,1.407,1.407
					c1.037,1.05,2.918,1.7,4.572,1.537c-0.565,1.304-0.32,2.868,0.74,3.911c8.827,8.712,12.291,12.128,21.122,20.838
					c1.36,1.358,4.144,2.046,5.975,1.128c3.761-1.897,6.809-4.98,8.652-8.772c0.889-1.839,0.159-4.608-1.208-5.963
					C905.429,846.523,901.968,843.109,893.137,834.397z"/>
				<path fill="#1695A4" d="M889.458,833.612c0.159-1.648-0.495-3.531-1.536-4.577c-0.553-0.552-1.017-1.016-1.406-1.405
					c-1.36-1.359-1.816-1.812-1.816-1.814c-0.39-0.387-0.854-0.852-1.403-1.402c-1.368-1.362-3.593-1.37-4.98,0.002
					c-1.438,1.434-2.872,2.872-4.31,4.309l37.706,37.705c1.523-1.515,2.806-3.279,3.757-5.236c0.889-1.839,0.159-4.608-1.208-5.963
					c-8.831-8.706-12.292-12.12-21.123-20.832C892.139,833.417,890.701,833.16,889.458,833.612z"/>
				<g>
					<path fill="#1695A4" d="M904.189,861.351c0.623,0.625,0.627,1.643,0,2.268l0,0c-0.624,0.626-1.646,0.626-2.269,0
						l-16.801-16.805c-0.628-0.623-0.628-1.639-0.004-2.266l0,0c0.627-0.626,1.645-0.626,2.271,0L904.189,861.351z"/>
					<path fill="#15B0BF" d="M908.986,856.551c0.628,0.624,0.628,1.641,0.004,2.267l0,0c-0.627,0.625-1.645,0.625-2.269,0
						l-16.805-16.801c-0.623-0.626-0.623-1.643,0-2.271l0,0c0.624-0.625,1.646-0.623,2.269,0L908.986,856.551z"/>
				</g>
				<g>
					<path fill="#15B0BF" d="M870.833,833.994c2.845-2.839,5.689-5.687,8.535-8.529c1.387-1.37,3.608-1.362,4.977-0.002
						c-0.176-0.175-0.254-0.255-0.254-0.255c-0.39-0.39-0.245-0.244-0.795-0.795c-1.368-1.362-3.593-1.37-4.98,0.002
						c-2.841,2.841-5.69,5.689-8.531,8.529c-1.372,1.389-1.368,3.618,0,4.982c0.549,0.549,0.405,0.405,0.795,0.795
						c0.089,0.094,0.171,0.169,0.253,0.255C869.469,837.612,869.465,835.384,870.833,833.994z"/>
				</g>
			</g>
		</g>
	</g>
</g>
<g enable-background="new    ">
	<g>
		<defs>
			<rect id="SVGID_1_" x="624.144" y="72.794" width="96.277" height="49.588"/>
		</defs>
		<clipPath id="SVGID_2_">
			<use xlink:href="#SVGID_1_"  overflow="visible"/>
		</clipPath>
		<g clip-path="url(#SVGID_2_)">
			<text transform="matrix(1 0 0 1 624.1436 112.2158)" fill="#231F20" font-family="'HelveticaNeueLTPro-Md'" font-size="46">How</text>
		</g>
	</g>
</g>
<line fill="none" stroke="#343636" stroke-width="4.1771" stroke-miterlimit="10" x1="624.131" y1="53.718" x2="1991.542" y2="53.718"/>
</svg>
