<?xml version="1.0" encoding="utf-8"?>
<!-- Generator: Adobe Illustrator 16.0.3, SVG Export Plug-In . SVG Version: 6.00 Build 0)  -->
<!DOCTYPE svg PUBLIC "-//W3C//DTD SVG 1.1//EN" "http://www.w3.org/Graphics/SVG/1.1/DTD/svg11.dtd">
<svg version="1.1" id="Layer_1" xmlns="http://www.w3.org/2000/svg" xmlns:xlink="http://www.w3.org/1999/xlink" x="0px" y="0px"
	 width="2048px" height="1000px" viewBox="0 0 2048 1000" enable-background="new 0 0 2048 1000" xml:space="preserve">
<rect fill="#B9E5FB" width="2048" height="1000"/>
<rect y="-2" fill="#4EA8DE" width="561" height="1001.818"/>
<line fill="none" stroke="#343636" stroke-width="4.9841" stroke-miterlimit="10" x1="50.751" y1="53.718" x2="1997.543" y2="53.718"/>
<g>
	<rect x="50.763" y="75.963" fill="none" width="1271.153" height="48.624"/>
	<text transform="matrix(1 0 0 1 50.7603 108.8066)" fill="#231F20" font-family="'HelveticaNeueLTPro-Md'" font-size="46">Key takeaways</text>
</g>
<g enable-background="new    ">
	<g>
		<text transform="matrix(1 0 0 1 632.5767 270.1172)" fill="#B9E5FB" font-family="'FontAwesome'" font-size="37.6251">    </text>
	</g>
</g>
<g enable-background="new    ">
	<g>
		<text transform="matrix(1 0 0 1 632.5767 353.8481)" fill="#B9E5FB" font-family="'FontAwesome'" font-size="37.6251">    </text>
	</g>
</g>
<g enable-background="new    ">
	<g>
		<text transform="matrix(1 0 0 1 632.5767 465.1343)" fill="#B9E5FB" font-family="'FontAwesome'" font-size="37.6251">    </text>
	</g>
</g>
<g>
	<path fill="#FFFFFF" d="M264.171,462.627h34.591c7.393,0,13.386-5.988,13.386-13.387v-4.462c0-0.186-0.021-0.369-0.031-0.555
		h-29.54L264.171,462.627z"/>
	<path fill="#FFFFFF" d="M269.122,474.158l22.471-22.471c2.124-2.127,3.372-4.791,3.77-7.553h-22.25l-30.021,30.023H269.122z"/>
	<g>
		<g>
			<g>
				<g>
					<g>
						<path fill="#1695A4" d="M323.8,496.214c0.772,4.355-2.141,8.509-6.492,9.275l-21.028,3.71
							c-4.354,0.77-8.506-2.142-9.274-6.497l-9.5-53.883c-0.769-4.353,2.138-8.503,6.496-9.27l21.023-3.713
							c4.354-0.767,8.505,2.144,9.279,6.5L323.8,496.214z"/>
						<g>
							<path fill="#1695A4" d="M434.92,398.438c-5.896-5.896-15.467-5.896-21.352,0.006c-5.901,5.887-5.905,15.435-0.006,21.337
								l0.006,0.005l0.008,0.006c5.889,5.891,15.462,5.888,21.344-0.009C440.805,413.888,440.797,404.334,434.92,398.438
								L434.92,398.438L434.92,398.438z"/>
						</g>
						<path fill="#FFFFFF" d="M327.697,366.285l-0.002,62.795h83.803v-97.046c-14.655,16.775-33.949,28.856-55.842,33.209
							C346.102,367.141,336.711,367.418,327.697,366.285z"/>
						<path fill="#15B0BF" d="M329.657,366.07h-46.04c-17.689,0-32.028,14.342-32.028,32.03l-0.003,22.018
							c0,17.686,14.341,32.024,32.031,32.024l46.039,0.003L329.657,366.07z"/>
						<path fill="#C2D64C" d="M415.726,491.147c-4.006,0-7.256-3.715-7.256-8.303l0.002-147.468
							c-0.002-4.591,3.248-8.309,7.254-8.309h7.254c4.007-0.003,7.258,3.721,7.258,8.309v147.465c0,4.585-3.251,8.306-7.258,8.306
							H415.726z"/>
						<path fill="#A6DAE9" d="M411.498,485.956v-77.309h-83.806l0.005,43.066c9.007-1.139,18.404-0.858,27.957,1.036
							C377.549,457.103,396.837,469.189,411.498,485.956z"/>
						<path fill="#1695A4" d="M329.656,408.647h-78.067l-0.003,11.471c0,17.686,14.341,32.024,32.031,32.024l46.039,0.003V408.647z"
							/>
						<path fill="#A1B400" d="M430.237,482.842l-0.003-74.212h-21.763l-0.002,74.215c0,4.588,3.25,8.303,7.256,8.303h7.254
							C426.986,491.147,430.237,487.427,430.237,482.842z"/>
						<path fill="#15B0BF" d="M294.263,458.892c-0.519-2.799-3.209-4.654-6.023-4.136l0,0c-2.801,0.521-4.651,3.211-4.136,6.019
							l7.412,40.067c0.519,2.805,3.217,4.662,6.023,4.142l0,0c2.798-0.519,4.654-3.215,4.139-6.02L294.263,458.892z"/>
					</g>
					<g>
						<g>
							<path fill="#FFFFFF" d="M451.709,411.179c-0.933,0-1.691-0.756-1.691-1.69c0-0.933,0.759-1.69,1.691-1.69l62.192-0.002
								c0.935,0,1.69,0.755,1.69,1.69c0,0.933-0.756,1.69-1.69,1.69L451.709,411.179L451.709,411.179z"/>
						</g>
						<g>
							<g>
								<path fill="#FFFFFF" d="M450.562,397.774c-0.624,0-1.225-0.348-1.52-0.946c-0.411-0.839-0.066-1.852,0.772-2.263
									l55.816-27.428c0.836-0.416,1.851-0.067,2.265,0.771c0.41,0.839,0.065,1.852-0.772,2.263L451.306,397.6
									C451.065,397.718,450.812,397.774,450.562,397.774L450.562,397.774z"/>
							</g>
							<g>
								<path fill="#FFFFFF" d="M506.374,452.014c-0.25,0-0.505-0.056-0.744-0.175l-55.818-27.425
									c-0.839-0.41-1.184-1.424-0.772-2.262c0.412-0.839,1.425-1.188,2.264-0.771l55.818,27.425
									c0.837,0.41,1.184,1.424,0.771,2.263C507.6,451.666,507,452.014,506.374,452.014L506.374,452.014z"/>
							</g>
						</g>
					</g>
				</g>
			</g>
		</g>
	</g>
	<path fill="#FFFFFF" d="M180.829,542.703h87.068c8.824,0,15.979-7.15,15.979-15.977v-25.959c0-8.824-7.152-15.979-15.979-15.979
		h-87.068V542.703z"/>
	<path fill="#FFFFFF" d="M346.087,498.429c0,5.006-4.062,9.064-9.066,9.064h-66.759c-5.006,0.003-9.067-4.059-9.067-9.064l0,0
		c0-5.006,4.061-9.067,9.067-9.067h66.759C342.025,489.361,346.087,493.423,346.087,498.429L346.087,498.429z"/>
	<path fill="#FFFFFF" d="M260.793,466.809c-13.008,0-23.552,10.544-23.549,23.552v38.272c-0.003,13.005,10.541,23.552,23.549,23.552
		h38.272c13.006,0,23.55-10.547,23.55-23.552V490.36c0-13.014-10.541-23.552-23.55-23.552H260.793z"/>
	<path fill="#FFFFFF" d="M328.359,543.118c0,5.005-4.062,9.066-9.064,9.066h-42.76c-5.006,0-9.067-4.062-9.067-9.066l0,0
		c0-5.006,4.062-9.064,9.067-9.064h42.76C324.298,534.054,328.359,538.112,328.359,543.118L328.359,543.118z"/>
	<path fill="#FFFFFF" d="M337.83,520.928c0,5.009-4.062,9.07-9.067,9.07h-66.762c-5.005,0-9.067-4.062-9.067-9.07l0,0
		c0-5.006,4.062-9.064,9.067-9.064h66.762C333.769,511.863,337.83,515.922,337.83,520.928L337.83,520.928z"/>
	<path fill="#FFFFFF" d="M346.385,475.924c0,5.009-4.062,9.067-9.067,9.067h-39.03c-5.006,0-9.067-4.059-9.067-9.067l0,0
		c0-5.003,4.062-9.064,9.067-9.064h39.03C342.323,466.859,346.385,470.921,346.385,475.924L346.385,475.924z"/>
	<g>
		<g>
			<g>
				<g>
					<g>
						<g>
							<rect x="184.7" y="480.091" fill="#A6DAE9" width="42.831" height="84.061"/>
							<rect x="-106.451" y="476.923" fill="#C2D64C" width="325.989" height="90.396"/>
							<rect x="212.8" y="476.923" fill="#A1B400" width="6.737" height="90.396"/>
						</g>
						<rect x="219.538" y="522.167" fill="#8FC4D7" width="7.994" height="41.984"/>
						<rect x="-106.451" y="522.167" fill="#A1B400" width="319.251" height="45.152"/>
						<polygon fill="#A1B400" points="219.538,522.167 212.8,522.167 212.8,567.319 219.538,567.319 219.538,564.151 						"/>
						<path fill="#A6DAE9" d="M199.603,557.626c-2.381,0-4.308-1.93-4.308-4.308c0-2.376,1.926-4.302,4.308-4.302
							c2.373,0,4.305,1.926,4.305,4.302C203.908,555.696,201.976,557.626,199.603,557.626z"/>
					</g>
				</g>
			</g>
		</g>
	</g>
</g>
<rect x="737.683" y="187.228" fill="none" width="1071.317" height="70.778"/>
<text transform="matrix(1 0 0 1 737.6826 209.3618)"><tspan x="0" y="0" fill="#275B8B" font-family="'HelveticaNeueLTPro-Roman'" font-size="31">The process steps for a nonconformance are: identification, segregation, </tspan><tspan x="0" y="37.2" fill="#275B8B" font-family="'HelveticaNeueLTPro-Roman'" font-size="31">evaluation, and disposition</tspan></text>
<g enable-background="new    ">
	<g>
		<text transform="matrix(1 0 0 1 661.1953 217.0869)" fill="#074164" font-family="'FontAwesome'" font-size="42.7856">    </text>
	</g>
</g>
<rect x="737.683" y="301.06" fill="none" width="954.411" height="158.764"/>
<text transform="matrix(1 0 0 1 737.6826 323.1934)"><tspan x="0" y="0" fill="#275B8B" font-family="'HelveticaNeueLTPro-Roman'" font-size="31">Once a nonconformance has been identified by anyone </tspan><tspan x="0" y="40.2" fill="#275B8B" font-family="'HelveticaNeueLTPro-Roman'" font-size="31" letter-spacing="31">	</tspan><tspan x="40.222" y="40.2" fill="#275B8B" font-family="'HelveticaNeueLTPro-Roman'" font-size="31">- Immediately start documenting on NCN</tspan><tspan x="0" y="80.399" fill="#275B8B" font-family="'HelveticaNeueLTPro-Roman'" font-size="31" letter-spacing="31">	</tspan><tspan x="40.222" y="80.399" fill="#275B8B" font-family="'HelveticaNeueLTPro-Roman'" font-size="31">- Segregate the nonconforming Offering (if possible)</tspan><tspan x="0" y="120.6" fill="#275B8B" font-family="'HelveticaNeueLTPro-Roman'" font-size="31" letter-spacing="31">	</tspan><tspan x="40.222" y="120.6" fill="#275B8B" font-family="'HelveticaNeueLTPro-Roman'" font-size="31">- Submit NCN to ORB Chairperson</tspan></text>
<g enable-background="new    ">
	<g>
		<text transform="matrix(1 0 0 1 661.1953 332.5859)" fill="#074164" font-family="'FontAwesome'" font-size="42.7856">    </text>
	</g>
</g>
<rect x="737.683" y="502.878" fill="none" width="1022.317" height="223.198"/>
<text transform="matrix(1 0 0 1 737.6826 525.0117)"><tspan x="0" y="0" fill="#275B8B" font-family="'HelveticaNeueLTPro-Roman'" font-size="31">ORB Chairperson responsible for  </tspan><tspan x="0" y="40.199" fill="#275B8B" font-family="'HelveticaNeueLTPro-Roman'" font-size="31" letter-spacing="31">	</tspan><tspan x="40.222" y="40.199" fill="#275B8B" font-family="'HelveticaNeueLTPro-Roman'" font-size="31">- Evaluating the need for and extent of an investigation to determine </tspan><tspan x="25" y="77.398" fill="#275B8B" font-family="'HelveticaNeueLTPro-Roman'" font-size="31">  the root cause of the nonconformance</tspan><tspan x="0" y="117.6" fill="#275B8B" font-family="'HelveticaNeueLTPro-Roman'" font-size="31" letter-spacing="31">	</tspan><tspan x="40.222" y="117.6" fill="#275B8B" font-family="'HelveticaNeueLTPro-Roman'" font-size="31">- Assess if a CAPA is needed to prevent the reoccurrence of </tspan><tspan x="25" y="154.799" fill="#275B8B" font-family="'HelveticaNeueLTPro-Roman'" font-size="31">  nonconforming materials</tspan><tspan x="0" y="195" fill="#275B8B" font-family="'HelveticaNeueLTPro-Roman'" font-size="31" letter-spacing="31">	</tspan><tspan x="40.222" y="195" fill="#275B8B" font-family="'HelveticaNeueLTPro-Roman'" font-size="31">- The final decision for dispositioning a nonconforming Offering</tspan></text>
<g enable-background="new    ">
	<g>
		<text transform="matrix(1 0 0 1 661.1953 534.4043)" fill="#074164" font-family="'FontAwesome'" font-size="42.7856">    </text>
	</g>
</g>
<rect x="737.683" y="108.685" fill="none" width="954.411" height="31.805"/>
<text transform="matrix(1 0 0 1 737.6826 130.8188)" fill="#275B8B" font-family="'HelveticaNeueLTPro-Roman'" font-size="31">A nonconformance is the failure to meet a specification</text>
<g enable-background="new    ">
	<g>
		<text transform="matrix(1 0 0 1 661.1953 136.3711)" fill="#074164" font-family="'FontAwesome'" font-size="42.7856">    </text>
	</g>
</g>
<rect x="737.683" y="772.97" fill="none" width="1022.317" height="27.686"/>
<text transform="matrix(1 0 0 1 737.6826 795.1035)" fill="#275B8B" font-family="'HelveticaNeueLTPro-Roman'" font-size="31">The evaluation done by the ORB Chairperson is documented on an IDF</text>
<g enable-background="new    ">
	<g>
		<text transform="matrix(1 0 0 1 661.1953 800.6553)" fill="#074164" font-family="'FontAwesome'" font-size="42.7856">    </text>
	</g>
</g>
<rect x="737.683" y="853.686" fill="none" width="971.317" height="65.314"/>
<text transform="matrix(1 0 0 1 737.6826 875.8193)"><tspan x="0" y="0" fill="#275B8B" font-family="'HelveticaNeueLTPro-Roman'" font-size="31">Possible dispositions include No defect found, Return to vendor, </tspan><tspan x="0" y="37.2" fill="#275B8B" font-family="'HelveticaNeueLTPro-Roman'" font-size="31">Rework, Scrap, and Use as is</tspan></text>
<g enable-background="new    ">
	<g>
		<text transform="matrix(1 0 0 1 661.1953 881.3711)" fill="#074164" font-family="'FontAwesome'" font-size="42.7856">    </text>
	</g>
</g>
</svg>
