<?xml version="1.0" encoding="utf-8"?>
<!-- Generator: Adobe Illustrator 16.0.3, SVG Export Plug-In . SVG Version: 6.00 Build 0)  -->
<!DOCTYPE svg PUBLIC "-//W3C//DTD SVG 1.1//EN" "http://www.w3.org/Graphics/SVG/1.1/DTD/svg11.dtd">
<svg version="1.1" id="Layer_1" xmlns="http://www.w3.org/2000/svg" xmlns:xlink="http://www.w3.org/1999/xlink" x="0px" y="0px"
	 width="2048px" height="1000px" viewBox="0 0 2048 1000" enable-background="new 0 0 2048 1000" xml:space="preserve">
<rect fill="#B9E5FB" width="2048" height="1000"/>
<rect x="1.5" y="640.118" fill="#116BB4" width="2046.5" height="360.601"/>
<g>
	<g>
		<path fill-rule="evenodd" clip-rule="evenodd" fill="#FFFFFF" d="M607.925,782.07l-494.216-0.263
			c-25.961-0.129-47.196-25.626-47.196-57.009L66.837,110c0.051-31.382,21.236-56.947,47.247-56.947L528.63,53.25l126.765,156.699
			l-0.273,515.107C655.122,756.439,633.937,782.07,607.925,782.07z"/>
		<polygon fill-rule="evenodd" clip-rule="evenodd" fill="#D1D3D4" points="582.999,191.508 655.395,206.271 655.294,305.599 
			536.527,195.064 		"/>
		<path fill-rule="evenodd" clip-rule="evenodd" fill="#F1F2F2" d="M655.395,206.273l-97.574-0.039
			c-16.091,0-29.228-15.846-29.228-35.298L528.63,53.25L655.395,206.273z"/>
	</g>
	<g>
		<path fill="#116BB4" d="M203.417,79.019h18.521v4.057h-13.825v7.025h12.134v3.832h-12.134v11.909h-4.696V79.019z"/>
		<path fill="#116BB4" d="M224.192,96.112c0-5.898,3.606-10.218,9.805-10.218c6.199,0,9.805,4.32,9.805,10.218
			c0,5.973-3.606,10.256-9.805,10.256C227.799,106.368,224.192,102.085,224.192,96.112z M239.52,96.112
			c0-3.343-1.69-6.837-5.522-6.837c-3.832,0-5.522,3.494-5.522,6.837c0,3.381,1.69,6.875,5.522,6.875
			C237.829,102.987,239.52,99.493,239.52,96.112z"/>
		<path fill="#116BB4" d="M247.372,86.419h4.02v3.757h0.075c0.489-2.066,3.081-4.283,5.673-4.283c1.014,0,1.202,0.075,1.615,0.113
			v4.132c-0.601-0.113-1.24-0.188-1.841-0.188c-2.893,0-5.259,2.33-5.259,6.649v9.242h-4.283V86.419z"/>
		<path fill="#116BB4" d="M271.642,79.019h19.31v4.057h-14.614v7.025h13.524v3.832h-13.524v7.852h14.877v4.057h-19.573V79.019z"/>
		<path fill="#116BB4" d="M310.976,101.521c0,1.052,0.226,1.465,1.015,1.465h0.451c0.188,0,0.375-0.038,0.601-0.075v2.968
			c-0.639,0.226-1.991,0.488-2.705,0.488c-1.766,0-2.968-0.601-3.306-2.367c-1.69,1.653-4.433,2.367-6.725,2.367
			c-3.494,0-6.649-1.878-6.649-5.672c0-4.846,3.87-5.635,7.476-6.048c3.118-0.601,5.823-0.188,5.823-2.743
			c0-2.254-2.329-2.629-4.02-2.629c-2.404,0-4.095,0.977-4.283,3.08h-4.283c0.3-4.996,4.508-6.461,8.828-6.461
			c3.794,0,7.776,1.541,7.776,5.635V101.521z M306.693,96.112c-1.315,0.864-3.343,0.827-5.259,1.165
			c-1.841,0.301-3.494,0.977-3.494,3.231c0,1.954,2.442,2.479,3.944,2.479c1.878,0,4.809-0.977,4.809-3.682V96.112z"/>
		<path fill="#116BB4" d="M328.708,92.919c-0.338-2.404-2.028-3.644-4.433-3.644c-2.216,0-5.334,1.202-5.334,7.062
			c0,3.23,1.427,6.649,5.146,6.649c2.517,0,4.208-1.616,4.621-4.433h4.283c-0.789,5.072-3.907,7.814-8.903,7.814
			c-6.086,0-9.429-4.32-9.429-10.03c0-5.86,3.193-10.444,9.58-10.444c4.508,0,8.34,2.254,8.753,7.025H328.708z"/>
		<path fill="#116BB4" d="M336.486,79.019h4.283v9.955h0.075c1.052-1.766,3.269-3.081,5.823-3.081c4.245,0,6.875,2.217,6.875,6.612
			v13.336h-4.283V93.632c-0.113-3.043-1.24-4.357-3.794-4.357c-2.855,0-4.696,2.254-4.696,5.109v11.458h-4.283V79.019z"/>
		<path fill="#116BB4" d="M369.096,79.019h11.834c7.664,0,9.128,4.958,9.128,8.302c0,3.343-1.465,8.227-9.128,8.227h-7.138v10.293
			h-4.696V79.019z M373.792,91.717h6.875c2.104,0,4.696-1.052,4.696-4.433c0-3.531-2.141-4.433-4.621-4.433h-6.95V91.717z"/>
		<path fill="#116BB4" d="M393.554,86.419h4.02v3.757h0.075c0.489-2.066,3.081-4.283,5.673-4.283c1.014,0,1.202,0.075,1.615,0.113
			v4.132c-0.601-0.113-1.24-0.188-1.841-0.188c-2.893,0-5.259,2.33-5.259,6.649v9.242h-4.283V86.419z"/>
		<path fill="#116BB4" d="M405.876,96.112c0-5.898,3.606-10.218,9.805-10.218c6.199,0,9.805,4.32,9.805,10.218
			c0,5.973-3.606,10.256-9.805,10.256C409.483,106.368,405.876,102.085,405.876,96.112z M421.204,96.112
			c0-3.343-1.69-6.837-5.522-6.837c-3.832,0-5.522,3.494-5.522,6.837c0,3.381,1.69,6.875,5.522,6.875
			C419.513,102.987,421.204,99.493,421.204,96.112z"/>
		<path fill="#116BB4" d="M429.169,86.419h4.283v21.075c0,3.87-1.541,6.048-5.56,6.048c-0.864,0-1.353-0.038-1.916-0.15v-3.381
			c0.563,0.113,1.052,0.15,1.465,0.15c1.54,0,1.728-0.939,1.728-2.855V86.419z M429.169,79.019h4.283v4.057h-4.283V79.019z"/>
		<path fill="#116BB4" d="M441.454,97.239c0,3.043,1.653,5.748,5.222,5.748c2.517,0,3.982-1.089,4.733-3.231h4.057
			c-0.901,4.245-4.583,6.612-8.791,6.612c-6.124,0-9.504-4.208-9.504-10.218c0-5.522,3.606-10.256,9.392-10.256
			c6.124,0,9.88,5.522,9.167,11.345H441.454z M451.447,94.421c-0.188-2.705-1.954-5.146-4.884-5.146
			c-2.968,0-4.997,2.254-5.109,5.146H451.447z"/>
		<path fill="#116BB4" d="M472.11,92.919c-0.338-2.404-2.028-3.644-4.433-3.644c-2.216,0-5.334,1.202-5.334,7.062
			c0,3.23,1.427,6.649,5.146,6.649c2.517,0,4.208-1.616,4.621-4.433h4.283c-0.789,5.072-3.907,7.814-8.903,7.814
			c-6.086,0-9.429-4.32-9.429-10.03c0-5.86,3.193-10.444,9.58-10.444c4.508,0,8.34,2.254,8.753,7.025H472.11z"/>
		<path fill="#116BB4" d="M477.935,86.419h3.23v-5.823h4.283v5.823h3.87v3.193h-3.87v10.369c0,1.766,0.15,2.667,2.066,2.667
			c0.601,0,1.202,0,1.803-0.15v3.306c-0.939,0.113-1.841,0.226-2.78,0.226c-4.508,0-5.259-1.728-5.372-4.959V89.613h-3.23V86.419z"
			/>
	</g>
</g>
<g>
	<g>
		<path fill-rule="evenodd" clip-rule="evenodd" fill="#D1D3D4" d="M1958.306,868.99l-494.215-0.263
			c-25.963-0.129-47.197-25.625-47.197-57.008l0.324-614.799c0.051-31.382,21.234-56.947,47.247-56.947l414.545,0.196l126.766,156.7
			l-0.272,515.106C2005.503,843.359,1984.316,868.99,1958.306,868.99z"/>
		<polygon fill-rule="evenodd" clip-rule="evenodd" fill="#939598" points="1933.378,278.428 2005.775,293.191 2005.673,392.519 
			1886.908,281.984 		"/>
		<path fill-rule="evenodd" clip-rule="evenodd" fill="#BCBEC0" d="M2005.775,293.193l-97.576-0.039
			c-16.089,0-29.227-15.846-29.227-35.298l0.037-117.687L2005.775,293.193z"/>
	</g>
	<g>
		<path fill-rule="evenodd" clip-rule="evenodd" fill="#F1F2F2" d="M1943.252,884.045l-494.217-0.264
			c-25.961-0.127-47.195-25.625-47.195-57.008l0.324-614.798c0.05-31.382,21.233-56.948,47.247-56.948l414.545,0.197l126.768,156.7
			l-0.275,515.106C1990.448,858.414,1969.264,884.045,1943.252,884.045z"/>
		<polygon fill-rule="evenodd" clip-rule="evenodd" fill="#A7A9AC" points="1918.325,293.482 1990.724,308.246 1990.621,407.573 
			1871.856,297.039 		"/>
		<path fill-rule="evenodd" clip-rule="evenodd" fill="#D1D3D4" d="M1990.724,308.248l-97.576-0.038
			c-16.09,0-29.228-15.846-29.228-35.298l0.036-117.687L1990.724,308.248z"/>
	</g>
	<g>
		<path fill-rule="evenodd" clip-rule="evenodd" fill="#FFFFFF" d="M1910.687,906.023l-494.216-0.264
			c-25.962-0.129-47.197-25.625-47.197-57.007l0.324-614.8c0.051-31.382,21.235-56.947,47.247-56.947l414.545,0.196l126.766,156.7
			l-0.273,515.106C1957.882,880.392,1936.696,906.023,1910.687,906.023z"/>
		<polygon fill-rule="evenodd" clip-rule="evenodd" fill="#D1D3D4" points="1885.759,315.46 1958.155,330.224 1958.054,429.551 
			1839.287,319.017 		"/>
		<path fill-rule="evenodd" clip-rule="evenodd" fill="#F1F2F2" d="M1958.155,330.226l-97.576-0.038
			c-16.09,0-29.227-15.846-29.227-35.298l0.037-117.687L1958.155,330.226z"/>
	</g>
	<g>
		<path fill="#116BB4" d="M1525.444,203.121h18.521v4.057h-13.825v7.025h12.135v3.832h-12.135v11.909h-4.695V203.121z"/>
		<path fill="#116BB4" d="M1546.22,220.213c0-5.898,3.606-10.218,9.805-10.218c6.199,0,9.806,4.32,9.806,10.218
			c0,5.973-3.606,10.256-9.806,10.256C1549.826,230.469,1546.22,226.187,1546.22,220.213z M1561.547,220.213
			c0-3.343-1.69-6.837-5.522-6.837s-5.522,3.494-5.522,6.837c0,3.381,1.69,6.875,5.522,6.875S1561.547,223.595,1561.547,220.213z"/>
		<path fill="#116BB4" d="M1569.399,210.521h4.02v3.757h0.075c0.488-2.066,3.081-4.283,5.673-4.283c1.015,0,1.202,0.075,1.615,0.113
			v4.132c-0.601-0.113-1.239-0.188-1.841-0.188c-2.893,0-5.259,2.33-5.259,6.649v9.242h-4.283V210.521z"/>
		<path fill="#116BB4" d="M1593.669,203.121h19.31v4.057h-14.614v7.025h13.524v3.832h-13.524v7.852h14.877v4.057h-19.572V203.121z"
			/>
		<path fill="#116BB4" d="M1633.002,225.623c0,1.052,0.226,1.465,1.015,1.465h0.45c0.188,0,0.376-0.038,0.602-0.075v2.968
			c-0.639,0.226-1.991,0.488-2.705,0.488c-1.766,0-2.968-0.601-3.306-2.367c-1.69,1.653-4.433,2.367-6.725,2.367
			c-3.494,0-6.649-1.878-6.649-5.672c0-4.846,3.869-5.635,7.476-6.048c3.118-0.601,5.823-0.188,5.823-2.743
			c0-2.254-2.329-2.629-4.02-2.629c-2.404,0-4.095,0.977-4.283,3.08h-4.282c0.301-4.996,4.508-6.461,8.828-6.461
			c3.794,0,7.776,1.541,7.776,5.635V225.623z M1628.72,220.213c-1.315,0.864-3.344,0.827-5.26,1.165
			c-1.841,0.301-3.494,0.977-3.494,3.231c0,1.954,2.442,2.479,3.945,2.479c1.878,0,4.809-0.977,4.809-3.682V220.213z"/>
		<path fill="#116BB4" d="M1650.735,217.021c-0.338-2.404-2.029-3.644-4.434-3.644c-2.216,0-5.334,1.202-5.334,7.062
			c0,3.23,1.428,6.649,5.146,6.649c2.517,0,4.208-1.616,4.621-4.433h4.282c-0.789,5.072-3.907,7.814-8.903,7.814
			c-6.086,0-9.43-4.32-9.43-10.03c0-5.86,3.193-10.444,9.58-10.444c4.508,0,8.34,2.254,8.753,7.025H1650.735z"/>
		<path fill="#116BB4" d="M1658.513,203.121h4.283v9.955h0.074c1.053-1.766,3.269-3.081,5.823-3.081
			c4.245,0,6.875,2.217,6.875,6.612v13.336h-4.282v-12.209c-0.113-3.043-1.24-4.357-3.795-4.357c-2.854,0-4.695,2.254-4.695,5.109
			v11.458h-4.283V203.121z"/>
		<path fill="#116BB4" d="M1694.203,221.002c0,4.095,3.043,5.748,6.8,5.748c4.132,0,5.673-2.066,5.673-4.057
			c0-2.066-1.127-2.893-2.217-3.306c-1.916-0.714-4.282-1.202-8.002-2.217c-4.62-1.202-5.936-4.02-5.936-6.799
			c0-5.41,4.959-7.889,9.805-7.889c5.561,0,10.294,2.968,10.294,8.565h-4.696c-0.263-3.456-2.517-4.733-5.785-4.733
			c-2.179,0-4.921,0.789-4.921,3.494c0,1.916,1.277,2.893,3.193,3.456c0.413,0.113,6.349,1.653,7.738,2.066
			c3.494,1.089,5.222,3.982,5.222,6.837c0,6.011-5.372,8.415-10.669,8.415c-6.123,0-11.082-2.93-11.195-9.58H1694.203z"/>
		<path fill="#116BB4" d="M1712.913,210.521h3.23v-5.823h4.283v5.823h3.869v3.193h-3.869v10.369c0,1.766,0.149,2.667,2.065,2.667
			c0.602,0,1.202,0,1.804-0.15v3.306c-0.939,0.113-1.841,0.226-2.78,0.226c-4.508,0-5.26-1.728-5.372-4.959v-11.458h-3.23V210.521z"
			/>
		<path fill="#116BB4" d="M1726.476,220.213c0-5.898,3.606-10.218,9.805-10.218c6.199,0,9.806,4.32,9.806,10.218
			c0,5.973-3.606,10.256-9.806,10.256C1730.082,230.469,1726.476,226.187,1726.476,220.213z M1741.803,220.213
			c0-3.343-1.69-6.837-5.522-6.837s-5.522,3.494-5.522,6.837c0,3.381,1.69,6.875,5.522,6.875S1741.803,223.595,1741.803,220.213z"/>
		<path fill="#116BB4" d="M1749.655,210.521h4.02v3.757h0.075c0.488-2.066,3.081-4.283,5.673-4.283c1.015,0,1.202,0.075,1.615,0.113
			v4.132c-0.601-0.113-1.239-0.188-1.841-0.188c-2.893,0-5.259,2.33-5.259,6.649v9.242h-4.283V210.521z"/>
		<path fill="#116BB4" d="M1760.737,210.521h4.696l5.071,14.501h0.075l4.922-14.501h4.47l-7.551,20.474
			c-1.39,3.494-2.366,6.649-6.875,6.649c-1.014,0-1.99-0.075-2.968-0.225v-3.606c0.714,0.112,1.315,0.263,2.029,0.263
			c1.953,0,2.517-1.052,3.005-2.705l0.488-1.503L1760.737,210.521z"/>
	</g>
	<polygon fill-rule="evenodd" clip-rule="evenodd" fill="#DAE1E6" points="1656.565,566.982 1654.616,565.021 1654.659,565.021 	"/>
</g>
<g>
	<g>
		<path fill-rule="evenodd" clip-rule="evenodd" fill="#D1D3D4" d="M1278.859,834.605l-494.216-0.262
			c-25.962-0.129-47.197-25.627-47.197-57.01l0.325-614.797c0.05-31.383,21.234-56.948,47.247-56.948l414.545,0.197l126.765,156.7
			l-0.272,515.106C1326.056,808.975,1304.87,834.605,1278.859,834.605z"/>
		<polygon fill-rule="evenodd" clip-rule="evenodd" fill="#939598" points="1253.932,244.043 1326.328,258.807 1326.227,358.134 
			1207.461,247.6 		"/>
		<path fill-rule="evenodd" clip-rule="evenodd" fill="#BCBEC0" d="M1326.328,258.808l-97.575-0.037
			c-16.09,0-29.227-15.846-29.227-35.298l0.037-117.687L1326.328,258.808z"/>
	</g>
	<g>
		<path fill-rule="evenodd" clip-rule="evenodd" fill="#F1F2F2" d="M1263.805,849.662l-494.216-0.266
			c-25.961-0.129-47.197-25.625-47.197-57.008l0.325-614.799c0.051-31.382,21.235-56.946,47.248-56.946l414.544,0.195l126.768,156.7
			l-0.275,515.107C1311.001,824.029,1289.817,849.662,1263.805,849.662z"/>
		<polygon fill-rule="evenodd" clip-rule="evenodd" fill="#A7A9AC" points="1238.879,259.097 1311.276,273.861 1311.174,373.189 
			1192.409,262.654 		"/>
		<path fill-rule="evenodd" clip-rule="evenodd" fill="#D1D3D4" d="M1311.276,273.863l-97.576-0.039
			c-16.089,0-29.227-15.846-29.227-35.298l0.035-117.687L1311.276,273.863z"/>
	</g>
	<g>
		<path fill-rule="evenodd" clip-rule="evenodd" fill="#FFFFFF" d="M1231.24,871.641l-494.218-0.266
			c-25.96-0.129-47.196-25.625-47.196-57.008l0.325-614.799c0.05-31.382,21.235-56.947,47.246-56.947l414.545,0.197l126.768,156.699
			l-0.274,515.108C1278.436,846.008,1257.249,871.641,1231.24,871.641z"/>
		<polygon fill-rule="evenodd" clip-rule="evenodd" fill="#D1D3D4" points="1206.311,281.076 1278.71,295.839 1278.607,395.167 
			1159.842,284.632 		"/>
		<path fill-rule="evenodd" clip-rule="evenodd" fill="#F1F2F2" d="M1278.71,295.841l-97.577-0.039
			c-16.09,0-29.228-15.846-29.228-35.298l0.037-117.687L1278.71,295.841z"/>
	</g>
	<g>
		<path fill="#116BB4" d="M822.647,168.736h18.521v4.057h-13.825v7.025h12.134v3.832h-12.134v11.909h-4.696V168.736z"/>
		<path fill="#116BB4" d="M843.423,185.829c0-5.898,3.606-10.218,9.805-10.218c6.199,0,9.805,4.32,9.805,10.218
			c0,5.973-3.606,10.256-9.805,10.256C847.03,196.085,843.423,191.802,843.423,185.829z M858.75,185.829
			c0-3.343-1.69-6.837-5.522-6.837c-3.832,0-5.522,3.494-5.522,6.837c0,3.381,1.69,6.875,5.522,6.875
			C857.06,192.704,858.75,189.21,858.75,185.829z"/>
		<path fill="#116BB4" d="M866.603,176.137h4.02v3.757h0.075c0.489-2.066,3.081-4.283,5.673-4.283c1.014,0,1.202,0.075,1.615,0.113
			v4.132c-0.601-0.113-1.24-0.188-1.841-0.188c-2.893,0-5.259,2.33-5.259,6.649v9.242h-4.283V176.137z"/>
		<path fill="#116BB4" d="M890.873,168.736h19.31v4.057h-14.614v7.025h13.524v3.832h-13.524v7.852h14.877v4.057h-19.573V168.736z"/>
		<path fill="#116BB4" d="M930.207,191.239c0,1.052,0.226,1.465,1.014,1.465h0.451c0.188,0,0.375-0.038,0.601-0.075v2.968
			c-0.639,0.226-1.991,0.488-2.705,0.488c-1.766,0-2.968-0.601-3.306-2.367c-1.69,1.653-4.433,2.367-6.725,2.367
			c-3.494,0-6.649-1.878-6.649-5.672c0-4.846,3.87-5.635,7.476-6.048c3.118-0.601,5.823-0.188,5.823-2.743
			c0-2.254-2.329-2.629-4.02-2.629c-2.404,0-4.095,0.977-4.283,3.08h-4.283c0.3-4.996,4.508-6.461,8.828-6.461
			c3.794,0,7.776,1.541,7.776,5.635V191.239z M925.924,185.829c-1.314,0.864-3.343,0.827-5.259,1.165
			c-1.841,0.301-3.494,0.977-3.494,3.231c0,1.954,2.442,2.479,3.944,2.479c1.878,0,4.809-0.977,4.809-3.682V185.829z"/>
		<path fill="#116BB4" d="M947.939,182.636c-0.338-2.404-2.028-3.644-4.433-3.644c-2.217,0-5.334,1.202-5.334,7.062
			c0,3.23,1.427,6.649,5.146,6.649c2.517,0,4.208-1.616,4.621-4.433h4.283c-0.789,5.072-3.907,7.814-8.903,7.814
			c-6.086,0-9.429-4.32-9.429-10.03c0-5.86,3.193-10.444,9.58-10.444c4.508,0,8.34,2.254,8.753,7.025H947.939z"/>
		<path fill="#116BB4" d="M955.717,168.736H960v9.955h0.075c1.052-1.766,3.269-3.081,5.823-3.081c4.245,0,6.875,2.217,6.875,6.612
			v13.336h-4.283V183.35c-0.113-3.043-1.24-4.357-3.794-4.357c-2.855,0-4.696,2.254-4.696,5.109v11.458h-4.283V168.736z"/>
		<path fill="#116BB4" d="M988.327,168.736h12.811c5.898,0,8.866,2.705,8.866,7.25c0,5.146-3.531,6.461-4.433,6.762v0.075
			c1.615,0.188,3.982,1.465,3.982,5.673c0,3.155,0.451,5.973,1.465,7.062h-5.034c-0.713-1.165-0.713-2.63-0.713-3.944
			c0-4.921-1.014-7.101-5.334-7.101h-6.913v11.045h-4.696V168.736z M993.023,180.945h7.702c3.005,0,4.583-1.427,4.583-4.283
			c0-3.456-2.216-4.095-4.658-4.095h-7.626V180.945z"/>
		<path fill="#116BB4" d="M1017.519,186.956c0,3.043,1.652,5.748,5.222,5.748c2.517,0,3.982-1.089,4.733-3.231h4.058
			c-0.902,4.245-4.583,6.612-8.791,6.612c-6.123,0-9.505-4.208-9.505-10.218c0-5.522,3.606-10.256,9.393-10.256
			c6.123,0,9.88,5.522,9.166,11.345H1017.519z M1027.512,184.139c-0.188-2.705-1.954-5.146-4.884-5.146
			c-2.968,0-4.997,2.254-5.109,5.146H1027.512z"/>
		<path fill="#116BB4" d="M1035.177,168.736h4.282v26.823h-4.282V168.736z"/>
		<path fill="#116BB4" d="M1047.461,186.956c0,3.043,1.652,5.748,5.222,5.748c2.517,0,3.982-1.089,4.733-3.231h4.058
			c-0.902,4.245-4.584,6.612-8.791,6.612c-6.123,0-9.505-4.208-9.505-10.218c0-5.522,3.606-10.256,9.393-10.256
			c6.123,0,9.88,5.522,9.166,11.345H1047.461z M1057.454,184.139c-0.188-2.705-1.954-5.146-4.884-5.146
			c-2.968,0-4.997,2.254-5.109,5.146H1057.454z"/>
		<path fill="#116BB4" d="M1081.272,191.239c0,1.052,0.226,1.465,1.015,1.465h0.45c0.188,0,0.376-0.038,0.602-0.075v2.968
			c-0.639,0.226-1.991,0.488-2.705,0.488c-1.766,0-2.968-0.601-3.306-2.367c-1.69,1.653-4.433,2.367-6.725,2.367
			c-3.494,0-6.649-1.878-6.649-5.672c0-4.846,3.869-5.635,7.476-6.048c3.118-0.601,5.823-0.188,5.823-2.743
			c0-2.254-2.329-2.629-4.02-2.629c-2.404,0-4.095,0.977-4.283,3.08h-4.282c0.301-4.996,4.508-6.461,8.828-6.461
			c3.794,0,7.776,1.541,7.776,5.635V191.239z M1076.99,185.829c-1.315,0.864-3.344,0.827-5.26,1.165
			c-1.841,0.301-3.494,0.977-3.494,3.231c0,1.954,2.442,2.479,3.945,2.479c1.878,0,4.809-0.977,4.809-3.682V185.829z"/>
		<path fill="#116BB4" d="M1089.125,189.323c0.264,2.517,2.104,3.381,4.396,3.381c1.653,0,4.434-0.338,4.32-2.555
			c-0.112-2.254-3.23-2.517-6.349-3.231c-3.155-0.676-6.236-1.803-6.236-5.748c0-4.245,4.583-5.56,8.114-5.56
			c3.982,0,7.627,1.615,8.115,5.973h-4.471c-0.413-2.066-2.028-2.592-3.944-2.592c-1.24,0-3.531,0.3-3.531,1.991
			c0,2.104,3.155,2.442,6.311,3.118c3.118,0.714,6.274,1.841,6.274,5.673c0,4.621-4.658,6.311-8.679,6.311
			c-4.921,0-8.49-2.179-8.603-6.762H1089.125z"/>
		<path fill="#116BB4" d="M1108.736,186.956c0,3.043,1.652,5.748,5.222,5.748c2.517,0,3.982-1.089,4.733-3.231h4.058
			c-0.902,4.245-4.584,6.612-8.791,6.612c-6.123,0-9.505-4.208-9.505-10.218c0-5.522,3.606-10.256,9.393-10.256
			c6.123,0,9.88,5.522,9.166,11.345H1108.736z M1118.729,184.139c-0.188-2.705-1.954-5.146-4.884-5.146
			c-2.968,0-4.997,2.254-5.109,5.146H1118.729z"/>
	</g>
</g>
<polygon fill-rule="evenodd" clip-rule="evenodd" fill="#DAE1E6" points="977.119,443.028 975.171,441.068 975.212,441.068 "/>
<g>
	<g>
		
			<line fill="none" stroke="#4D245D" stroke-width="4.2427" stroke-miterlimit="10" stroke-dasharray="21.9787,7.3262" x1="83.566" y1="935.426" x2="1956.426" y2="935.426"/>
		<g>
			<polygon fill="#4D245D" points="97.624,952.777 100.518,949.67 85.194,935.43 100.518,921.186 97.624,918.078 78.965,935.43 			
				"/>
		</g>
		<g>
			<polygon fill="#4D245D" points="1942.368,952.777 1939.475,949.67 1954.798,935.43 1939.475,921.186 1942.368,918.078 
				1961.027,935.43 			"/>
		</g>
	</g>
</g>
<g>
	<path fill="#4D245D" d="M908.623,953.95h8.88c6.6,0,9.449,4.8,9.449,10.71c0,5.909-2.85,10.709-9.449,10.709h-8.88V953.95z
		 M912.373,972.309h3.689c5.88,0,7.14-3.329,7.14-7.648c0-4.32-1.26-7.65-7.14-7.65h-3.689V972.309z"/>
	<path fill="#4D245D" d="M932.473,968.5c0,2.43,1.319,4.59,4.17,4.59c2.01,0,3.18-0.871,3.779-2.58h3.24
		c-0.72,3.39-3.66,5.279-7.02,5.279c-4.89,0-7.59-3.359-7.59-8.16c0-4.409,2.88-8.189,7.5-8.189c4.89,0,7.89,4.41,7.319,9.061
		H932.473z M940.452,966.25c-0.15-2.16-1.56-4.11-3.899-4.11c-2.37,0-3.99,1.8-4.08,4.11H940.452z"/>
	<path fill="#4D245D" d="M949.062,970.389c0.21,2.011,1.68,2.701,3.51,2.701c1.32,0,3.54-0.271,3.45-2.041
		c-0.09-1.799-2.58-2.01-5.07-2.58c-2.52-0.539-4.979-1.439-4.979-4.59c0-3.389,3.66-4.439,6.479-4.439c3.181,0,6.09,1.29,6.48,4.77
		h-3.57c-0.33-1.649-1.62-2.069-3.149-2.069c-0.99,0-2.82,0.24-2.82,1.59c0,1.681,2.52,1.95,5.04,2.49
		c2.489,0.569,5.01,1.47,5.01,4.53c0,3.689-3.72,5.039-6.93,5.039c-3.93,0-6.78-1.74-6.87-5.4H949.062z"/>
	<path fill="#4D245D" d="M962.143,953.95h3.42v3.239h-3.42V953.95z M962.143,959.859h3.42v15.51h-3.42V959.859z"/>
	<path fill="#4D245D" d="M983.622,974.559c0,4.68-2.7,6.961-7.62,6.961c-3.119,0-6.6-1.201-6.93-4.83h3.42
		c0.42,1.949,1.98,2.279,3.72,2.279c2.761,0,3.99-1.41,3.99-3.959v-2.371h-0.06c-0.96,1.711-2.73,2.73-4.65,2.73
		c-4.92,0-6.96-3.72-6.96-8.16c0-4.17,2.61-7.77,7.021-7.77c1.949,0,3.72,0.78,4.59,2.551h0.06v-2.131h3.42V974.559z
		 M980.202,967.27c0-2.67-1.2-5.13-4.17-5.13c-3.03,0-4.08,2.819-4.08,5.399c0,2.521,1.23,5.131,4.08,5.131
		C979.062,972.67,980.202,969.939,980.202,967.27z"/>
	<path fill="#4D245D" d="M987.072,959.859h3.239v2.28l0.061,0.06c1.05-1.709,2.79-2.76,4.83-2.76c3.39,0,5.489,1.771,5.489,5.28
		v10.649h-3.42v-9.75c-0.09-2.43-0.989-3.479-3.029-3.479c-2.28,0-3.75,1.8-3.75,4.08v9.149h-3.42V959.859z"/>
	<path fill="#4D245D" d="M1027.571,960.76c-0.63-2.49-2.22-4.26-5.34-4.26c-4.59,0-6.51,4.05-6.51,8.16
		c0,4.109,1.92,8.159,6.51,8.159c3.359,0,5.13-2.49,5.46-5.61h3.659c-0.33,5.131-3.93,8.67-9.119,8.67
		c-6.39,0-10.26-5.069-10.26-11.219c0-6.09,3.87-11.221,10.26-11.221c4.859,0,8.609,2.701,9.09,7.32H1027.571z"/>
	<path fill="#4D245D" d="M1034.291,953.95h3.42v7.95h0.061c0.84-1.41,2.609-2.461,4.649-2.461c3.39,0,5.49,1.771,5.49,5.28v10.649
		h-3.42v-9.75c-0.09-2.43-0.99-3.479-3.03-3.479c-2.279,0-3.75,1.8-3.75,4.08v9.149h-3.42V953.95z"/>
	<path fill="#4D245D" d="M1064.501,971.92c0,0.84,0.18,1.17,0.81,1.17h0.36c0.149,0,0.3-0.031,0.479-0.061v2.369
		c-0.51,0.181-1.59,0.391-2.16,0.391c-1.409,0-2.369-0.48-2.64-1.89c-1.35,1.319-3.54,1.89-5.37,1.89c-2.789,0-5.31-1.5-5.31-4.529
		c0-3.87,3.09-4.5,5.97-4.83c2.49-0.48,4.65-0.15,4.65-2.189c0-1.801-1.86-2.101-3.21-2.101c-1.92,0-3.271,0.78-3.42,2.46h-3.42
		c0.24-3.99,3.6-5.16,7.05-5.16c3.029,0,6.21,1.23,6.21,4.5V971.92z M1061.081,967.6c-1.051,0.689-2.67,0.66-4.2,0.93
		c-1.47,0.24-2.79,0.78-2.79,2.58c0,1.561,1.95,1.98,3.15,1.98c1.5,0,3.84-0.781,3.84-2.94V967.6z"/>
	<path fill="#4D245D" d="M1068.191,959.859h3.239v2.28l0.061,0.06c1.05-1.709,2.79-2.76,4.83-2.76c3.39,0,5.489,1.771,5.489,5.28
		v10.649h-3.42v-9.75c-0.09-2.43-0.989-3.479-3.029-3.479c-2.28,0-3.75,1.8-3.75,4.08v9.149h-3.42V959.859z"/>
	<path fill="#4D245D" d="M1099.75,974.559c0,4.68-2.699,6.961-7.619,6.961c-3.12,0-6.6-1.201-6.93-4.83h3.42
		c0.42,1.949,1.979,2.279,3.72,2.279c2.76,0,3.989-1.41,3.989-3.959v-2.371h-0.06c-0.96,1.711-2.729,2.73-4.649,2.73
		c-4.92,0-6.96-3.72-6.96-8.16c0-4.17,2.609-7.77,7.02-7.77c1.95,0,3.72,0.78,4.59,2.551h0.06v-2.131h3.42V974.559z M1096.33,967.27
		c0-2.67-1.199-5.13-4.169-5.13c-3.03,0-4.08,2.819-4.08,5.399c0,2.521,1.229,5.131,4.08,5.131
		C1095.19,972.67,1096.33,969.939,1096.33,967.27z"/>
	<path fill="#4D245D" d="M1105.87,968.5c0,2.43,1.32,4.59,4.17,4.59c2.01,0,3.18-0.871,3.78-2.58h3.239
		c-0.72,3.39-3.659,5.279-7.02,5.279c-4.89,0-7.59-3.359-7.59-8.16c0-4.409,2.88-8.189,7.5-8.189c4.89,0,7.89,4.41,7.319,9.061
		H1105.87z M1113.851,966.25c-0.15-2.16-1.561-4.11-3.9-4.11c-2.37,0-3.99,1.8-4.08,4.11H1113.851z"/>
	<path fill="#4D245D" d="M1122.461,970.389c0.21,2.011,1.68,2.701,3.51,2.701c1.319,0,3.54-0.271,3.449-2.041
		c-0.09-1.799-2.579-2.01-5.069-2.58c-2.52-0.539-4.979-1.439-4.979-4.59c0-3.389,3.659-4.439,6.479-4.439
		c3.18,0,6.09,1.29,6.479,4.77h-3.569c-0.33-1.649-1.62-2.069-3.15-2.069c-0.99,0-2.819,0.24-2.819,1.59
		c0,1.681,2.52,1.95,5.039,2.49c2.49,0.569,5.01,1.47,5.01,4.53c0,3.689-3.72,5.039-6.93,5.039c-3.93,0-6.779-1.74-6.869-5.4
		H1122.461z"/>
</g>
<g>
	<path d="M27.462,972.68c-0.22-2.06-1.561-2.92-3.541-2.92c-1.62,0-3.201,0.58-3.201,2.44c0,3.521,9.142,1.04,9.142,6.661
		c0,3.041-2.98,4.261-5.581,4.261c-3.201,0-5.901-1.58-5.901-5.041h1.8c0,2.4,2,3.44,4.161,3.44c1.72,0,3.621-0.54,3.621-2.6
		c0-3.921-9.142-1.341-9.142-6.582c0-2.881,2.561-4.181,5.181-4.181c2.92,0,5.161,1.38,5.261,4.521H27.462z"/>
	<path d="M38.202,968.159c4.541,0,6.841,3.581,6.841,7.481c0,3.901-2.3,7.481-6.841,7.481s-6.841-3.58-6.841-7.481
		C31.36,971.74,33.661,968.159,38.202,968.159z M38.202,981.521c3.481,0,4.941-3,4.941-5.881s-1.46-5.881-4.941-5.881
		c-3.48,0-4.941,3-4.941,5.881S34.721,981.521,38.202,981.521z"/>
	<path d="M58.763,977.621c0,3.621-2.041,5.501-5.621,5.501c-3.681,0-5.861-1.7-5.861-5.501v-9.122h1.9v9.122
		c0,2.541,1.42,3.9,3.961,3.9c2.42,0,3.721-1.359,3.721-3.9v-9.122h1.9V977.621z"/>
	<path d="M61.8,968.499h6.721c2.701,0,4.341,1.44,4.341,3.741c0,1.74-0.74,3.141-2.48,3.62v0.04c1.661,0.32,1.98,1.561,2.141,2.941
		c0.1,1.38,0.04,2.98,0.84,3.94h-2.121c-0.54-0.58-0.24-2.12-0.52-3.521c-0.22-1.381-0.541-2.581-2.381-2.581H63.7v6.102h-1.9
		V968.499z M67.661,975.081c1.761,0,3.301-0.461,3.301-2.541c0-1.42-0.76-2.44-2.541-2.44H63.7v4.981H67.661z"/>
	<path d="M85.542,972.8c-0.42-2.021-2-3.04-4.001-3.04c-3.401,0-4.841,2.8-4.841,5.781c0,3.261,1.44,5.98,4.861,5.98
		c2.48,0,3.961-1.76,4.121-4.12h1.9c-0.38,3.58-2.561,5.721-6.182,5.721c-4.421,0-6.601-3.28-6.601-7.441s2.36-7.521,6.761-7.521
		c2.98,0,5.461,1.601,5.881,4.641H85.542z"/>
	<path d="M89.939,968.499h9.862v1.601H91.84v4.541h7.421v1.601H91.84v4.94h8.021v1.601h-9.922V968.499z"/>
	<path d="M104.479,974.66h-2.221v-2.22h2.221V974.66z M102.259,980.562h2.221v2.221h-2.221V980.562z"/>
	<path d="M112.599,973.62c-0.16-2.881,1.56-5.021,4.561-5.021c2.46,0,4.441,1.439,4.441,4.08c0,2.501-1.681,3.741-3.441,4.861
		c-1.76,1.061-3.661,2.001-3.981,3.741h7.282v1.5h-9.262c0.26-3.341,1.98-4.601,3.981-5.801c2.4-1.501,3.621-2.341,3.621-4.321
		c0-1.54-1.24-2.561-2.74-2.561c-1.98,0-2.821,1.82-2.761,3.521H112.599z"/>
	<path d="M129.96,982.782h-1.7V972.62h-3.681v-1.36c1.94,0,3.701-0.5,4.081-2.66h1.3V982.782z"/>
	<path d="M145.562,972.8c-0.42-2.021-2-3.04-4.001-3.04c-3.401,0-4.841,2.8-4.841,5.781c0,3.261,1.44,5.98,4.861,5.98
		c2.48,0,3.961-1.76,4.121-4.12h1.9c-0.38,3.58-2.561,5.721-6.182,5.721c-4.421,0-6.601-3.28-6.601-7.441s2.36-7.521,6.761-7.521
		c2.98,0,5.461,1.601,5.881,4.641H145.562z"/>
	<path d="M149.959,968.499h9.382v1.601h-7.481v4.541h6.561v1.601h-6.561v6.541h-1.9V968.499z"/>
	<path d="M161.439,968.499h6.721c2.701,0,4.341,1.44,4.341,3.741c0,1.74-0.74,3.141-2.48,3.62v0.04
		c1.661,0.32,1.98,1.561,2.141,2.941c0.1,1.38,0.04,2.98,0.84,3.94h-2.12c-0.54-0.58-0.24-2.12-0.52-3.521
		c-0.22-1.381-0.541-2.581-2.381-2.581h-4.641v6.102h-1.9V968.499z M167.3,975.081c1.761,0,3.301-0.461,3.301-2.541
		c0-1.42-0.76-2.44-2.541-2.44h-4.721v4.981H167.3z"/>
	<path d="M179.039,968.6c3.101,0,4.301,1.8,4.301,3.62c0,1.28-0.78,2.4-1.96,2.94c1.7,0.541,2.521,1.781,2.521,3.541
		c0,2.741-2.081,4.321-4.701,4.321c-2.721,0-4.821-1.44-4.821-4.321c0-1.681,0.88-2.98,2.48-3.541c-1.2-0.479-1.98-1.66-1.98-2.94
		C174.878,969.899,176.859,968.6,179.039,968.6z M179.199,981.521c1.701,0,2.901-1.18,2.901-2.76c0-1.521-1.32-2.701-2.921-2.701
		c-1.68,0-3,1.061-3,2.721C176.179,980.481,177.439,981.521,179.199,981.521z M179.199,974.561c1.36,0,2.341-0.84,2.341-2.28
		s-1-2.181-2.381-2.181c-1.36,0-2.48,0.76-2.48,2.181C176.679,973.82,177.819,974.561,179.199,974.561z"/>
	<path d="M185.579,973.62c-0.16-2.881,1.56-5.021,4.561-5.021c2.46,0,4.441,1.439,4.441,4.08c0,2.501-1.681,3.741-3.441,4.861
		c-1.76,1.061-3.661,2.001-3.981,3.741h7.282v1.5h-9.262c0.26-3.341,1.98-4.601,3.981-5.801c2.4-1.501,3.621-2.341,3.621-4.321
		c0-1.54-1.24-2.561-2.74-2.561c-1.98,0-2.821,1.82-2.761,3.521H185.579z"/>
	<path d="M201.379,968.6c4.441,0,4.721,4.101,4.721,7.221c0,3.121-0.28,7.202-4.721,7.202s-4.721-4.081-4.721-7.202
		C196.659,972.7,196.938,968.6,201.379,968.6z M201.379,981.521c2.901,0,2.921-3.601,2.921-5.721c0-2.101-0.02-5.701-2.921-5.701
		c-2.9,0-2.92,3.601-2.92,5.701C198.459,977.921,198.479,981.521,201.379,981.521z"/>
	<path d="M208.599,980.562h2.221v2.221h-2.221V980.562z"/>
	<path d="M216.859,974.681c0.14,0.02,0.26,0.02,0.38,0.02h0.36c1.44,0,2.701-0.8,2.701-2.32c0-1.5-1.081-2.28-2.521-2.28
		c-1.84,0-2.681,1.42-2.681,3.081h-1.7c0.1-2.701,1.54-4.581,4.381-4.581c2.46,0,4.321,1.18,4.321,3.801c0,1.26-0.86,2.32-1.96,2.82
		v0.04c1.74,0.38,2.561,1.74,2.561,3.44c0,2.82-2.22,4.321-4.881,4.321c-2.881,0-4.781-1.681-4.721-4.621h1.7
		c0.06,1.84,1.081,3.12,3.021,3.12c1.66,0,3.081-1.04,3.081-2.74c0-1.78-1.34-2.721-3.021-2.721c-0.36,0-0.7,0.021-1.021,0.061
		V974.681z"/>
	<path d="M229.18,968.6c4.441,0,4.721,4.101,4.721,7.221c0,3.121-0.28,7.202-4.721,7.202s-4.721-4.081-4.721-7.202
		C224.459,972.7,224.739,968.6,229.18,968.6z M229.18,981.521c2.901,0,2.921-3.601,2.921-5.721c0-2.101-0.02-5.701-2.921-5.701
		c-2.9,0-2.92,3.601-2.92,5.701C226.259,977.921,226.279,981.521,229.18,981.521z"/>
	<path d="M236.399,980.562h2.221v2.021c0,1.521-0.66,2.681-2.201,3.141v-1c0.88-0.32,1.22-1.28,1.161-1.94h-1.181V980.562z"/>
	<path d="M247.499,968.499h1.9v14.283h-1.9V968.499z"/>
	<path d="M260.861,972.68c-0.22-2.06-1.561-2.92-3.541-2.92c-1.62,0-3.201,0.58-3.201,2.44c0,3.521,9.142,1.04,9.142,6.661
		c0,3.041-2.98,4.261-5.581,4.261c-3.201,0-5.901-1.58-5.901-5.041h1.8c0,2.4,2,3.44,4.161,3.44c1.72,0,3.621-0.54,3.621-2.6
		c0-3.921-9.142-1.341-9.142-6.582c0-2.881,2.561-4.181,5.181-4.181c2.92,0,5.161,1.38,5.261,4.521H260.861z"/>
	<path d="M271.6,968.159c4.541,0,6.841,3.581,6.841,7.481c0,3.901-2.3,7.481-6.841,7.481s-6.841-3.58-6.841-7.481
		C264.759,971.74,267.059,968.159,271.6,968.159z M271.6,981.521c3.481,0,4.941-3,4.941-5.881s-1.46-5.881-4.941-5.881
		c-3.48,0-4.941,3-4.941,5.881S268.12,981.521,271.6,981.521z"/>
	<path d="M286.32,982.782h-1.7V972.62h-3.681v-1.36c1.94,0,3.701-0.5,4.081-2.66h1.3V982.782z"/>
	<path d="M294.679,974.681c0.14,0.02,0.26,0.02,0.38,0.02h0.36c1.44,0,2.701-0.8,2.701-2.32c0-1.5-1.08-2.28-2.521-2.28
		c-1.84,0-2.681,1.42-2.681,3.081h-1.7c0.1-2.701,1.54-4.581,4.381-4.581c2.46,0,4.321,1.18,4.321,3.801c0,1.26-0.86,2.32-1.96,2.82
		v0.04c1.74,0.38,2.561,1.74,2.561,3.44c0,2.82-2.22,4.321-4.881,4.321c-2.881,0-4.781-1.681-4.721-4.621h1.7
		c0.06,1.84,1.081,3.12,3.021,3.12c1.66,0,3.081-1.04,3.081-2.74c0-1.78-1.34-2.721-3.021-2.721c-0.36,0-0.7,0.021-1.021,0.061
		V974.681z"/>
	<path d="M309.82,977.961h1.92v1.501h-1.92v3.32h-1.601v-3.32h-6.221v-1.641l6.461-9.222h1.36V977.961z M308.22,977.961v-6.941
		h-0.04l-4.721,6.941H308.22z"/>
	<path d="M318.02,968.6c3.101,0,4.301,1.8,4.301,3.62c0,1.28-0.78,2.4-1.96,2.94c1.7,0.541,2.521,1.781,2.521,3.541
		c0,2.741-2.081,4.321-4.701,4.321c-2.721,0-4.821-1.44-4.821-4.321c0-1.681,0.88-2.98,2.48-3.541c-1.2-0.479-1.98-1.66-1.98-2.94
		C313.859,969.899,315.839,968.6,318.02,968.6z M318.18,981.521c1.701,0,2.901-1.18,2.901-2.76c0-1.521-1.32-2.701-2.921-2.701
		c-1.68,0-3,1.061-3,2.721C315.159,980.481,316.419,981.521,318.18,981.521z M318.18,974.561c1.36,0,2.341-0.84,2.341-2.28
		s-1-2.181-2.381-2.181c-1.36,0-2.48,0.76-2.48,2.181C315.659,973.82,316.799,974.561,318.18,974.561z"/>
	<path d="M333.081,970.34h-5.721l-0.76,4.081l0.04,0.039c0.62-0.699,1.681-1.02,2.641-1.02c2.521,0,4.581,1.601,4.581,4.861
		c0,2.4-1.66,4.721-4.961,4.721c-2.46,0-4.461-1.501-4.521-4.062h1.7c0.1,1.461,1.28,2.561,2.981,2.561c1.62,0,3-1.12,3-3.36
		c0-1.86-1.28-3.221-3.201-3.221c-1.1,0-1.98,0.54-2.641,1.341l-1.46-0.08l1.32-7.362h7.001V970.34z"/>
	<path d="M336.459,980.562h2.221v2.021c0,1.521-0.66,2.681-2.201,3.141v-1c0.88-0.32,1.22-1.28,1.161-1.94h-1.181V980.562z"/>
	<path d="M347.559,968.499h1.9v14.283h-1.9V968.499z"/>
	<path d="M352.659,968.499h9.862v1.601h-7.961v4.541h7.421v1.601h-7.421v4.94h8.021v1.601h-9.922V968.499z"/>
	<path d="M374.921,972.8c-0.42-2.021-2-3.04-4.001-3.04c-3.401,0-4.841,2.8-4.841,5.781c0,3.261,1.44,5.98,4.861,5.98
		c2.48,0,3.961-1.76,4.121-4.12h1.9c-0.38,3.58-2.561,5.721-6.182,5.721c-4.421,0-6.601-3.28-6.601-7.441s2.36-7.521,6.761-7.521
		c2.98,0,5.461,1.601,5.881,4.641H374.921z"/>
	<path d="M386.04,972.22c-0.16-1.28-1.02-2.12-2.38-2.12c-2.881,0-3.381,3.2-3.441,5.381l0.04,0.04c0.8-1.3,2-1.86,3.541-1.86
		c2.72,0,4.341,1.98,4.341,4.602c0,2.08-1.16,4.761-4.741,4.761c-4.221,0-4.881-3.861-4.881-6.821c0-3.901,1.18-7.602,5.221-7.602
		c2.34,0,3.781,1.3,4,3.62H386.04z M380.539,978.361c0,1.761,1.08,3.16,2.94,3.16c1.84,0,2.861-1.46,2.861-3.141
		c0-1.76-0.92-3.221-2.861-3.221C381.579,975.16,380.539,976.581,380.539,978.361z"/>
	<path d="M389.758,973.62c-0.16-2.881,1.56-5.021,4.561-5.021c2.46,0,4.441,1.439,4.441,4.08c0,2.501-1.681,3.741-3.441,4.861
		c-1.76,1.061-3.661,2.001-3.981,3.741h7.282v1.5h-9.262c0.26-3.341,1.98-4.601,3.981-5.801c2.4-1.501,3.621-2.341,3.621-4.321
		c0-1.54-1.24-2.561-2.74-2.561c-1.98,0-2.821,1.82-2.761,3.521H389.758z"/>
	<path d="M404.359,974.681c0.14,0.02,0.26,0.02,0.38,0.02h0.36c1.44,0,2.701-0.8,2.701-2.32c0-1.5-1.08-2.28-2.521-2.28
		c-1.84,0-2.681,1.42-2.681,3.081h-1.7c0.1-2.701,1.54-4.581,4.381-4.581c2.46,0,4.321,1.18,4.321,3.801c0,1.26-0.86,2.32-1.96,2.82
		v0.04c1.74,0.38,2.561,1.74,2.561,3.44c0,2.82-2.22,4.321-4.881,4.321c-2.881,0-4.781-1.681-4.721-4.621h1.7
		c0.06,1.84,1.081,3.12,3.021,3.12c1.66,0,3.081-1.04,3.081-2.74c0-1.78-1.34-2.721-3.021-2.721c-0.36,0-0.7,0.021-1.021,0.061
		V974.681z"/>
	<path d="M416.679,968.6c4.441,0,4.721,4.101,4.721,7.221c0,3.121-0.28,7.202-4.721,7.202s-4.721-4.081-4.721-7.202
		C411.958,972.7,412.238,968.6,416.679,968.6z M416.679,981.521c2.901,0,2.921-3.601,2.921-5.721c0-2.101-0.02-5.701-2.921-5.701
		c-2.9,0-2.92,3.601-2.92,5.701C413.759,977.921,413.779,981.521,416.679,981.521z"/>
	<path d="M430.62,977.961h1.92v1.501h-1.92v3.32h-1.601v-3.32h-6.221v-1.641l6.461-9.222h1.36V977.961z M429.02,977.961v-6.941
		h-0.04l-4.721,6.941H429.02z"/>
	<path d="M435.019,980.562h2.221v2.021c0,1.521-0.66,2.681-2.201,3.141v-1c0.88-0.32,1.22-1.28,1.161-1.94h-1.181V980.562z"/>
	<path d="M449.92,968.499h2.1l5.582,14.283h-2.101l-1.561-4.301h-6.041l-1.601,4.301h-1.96L449.92,968.499z M448.5,976.881h4.841
		l-2.38-6.661h-0.04L448.5,976.881z"/>
	<path d="M462.88,968.499h2.1l5.582,14.283h-2.101l-1.561-4.301h-6.041l-1.601,4.301h-1.96L462.88,968.499z M461.459,976.881h4.841
		l-2.38-6.661h-0.04L461.459,976.881z"/>
	<path d="M471.999,968.499h2.6l4.501,12.003l4.521-12.003h2.601v14.283h-1.8v-11.883h-0.04l-4.461,11.883h-1.62l-4.461-11.883h-0.04
		v11.883h-1.8V968.499z"/>
	<path d="M489.458,968.499h1.9v14.283h-1.9V968.499z"/>
	<path d="M503.359,970.1h-4.761v-1.601h11.422v1.601h-4.761v12.683h-1.9V970.1z"/>
	<path d="M511.678,968.499h1.9v14.283h-1.9V968.499z"/>
	<path d="M516.778,968.499h6.721c2.701,0,4.341,1.44,4.341,3.741c0,1.74-0.74,3.141-2.48,3.62v0.04
		c1.661,0.32,1.98,1.561,2.141,2.941c0.1,1.38,0.04,2.98,0.84,3.94h-2.121c-0.54-0.58-0.24-2.12-0.52-3.521
		c-0.22-1.381-0.541-2.581-2.381-2.581h-4.641v6.102h-1.9V968.499z M522.639,975.081c1.761,0,3.301-0.461,3.301-2.541
		c0-1.42-0.76-2.44-2.541-2.44h-4.721v4.981H522.639z"/>
	<path d="M537.3,977.961h1.92v1.501h-1.92v3.32h-1.601v-3.32h-6.221v-1.641l6.461-9.222h1.36V977.961z M535.699,977.961v-6.941
		h-0.04l-4.721,6.941H535.699z"/>
	<path d="M549.44,970.34h-5.721l-0.76,4.081l0.04,0.039c0.62-0.699,1.681-1.02,2.641-1.02c2.521,0,4.581,1.601,4.581,4.861
		c0,2.4-1.66,4.721-4.961,4.721c-2.46,0-4.461-1.501-4.521-4.062h1.7c0.1,1.461,1.28,2.561,2.981,2.561c1.62,0,3-1.12,3-3.36
		c0-1.86-1.28-3.221-3.201-3.221c-1.1,0-1.98,0.54-2.641,1.341l-1.46-0.08l1.32-7.362h7.001V970.34z"/>
	<path d="M555.039,974.66h-2.221v-2.22h2.221V974.66z M552.818,980.562h2.221v2.221h-2.221V980.562z"/>
	<path d="M557.599,973.62c-0.16-2.881,1.56-5.021,4.561-5.021c2.461,0,4.441,1.439,4.441,4.08c0,2.501-1.681,3.741-3.441,4.861
		c-1.76,1.061-3.661,2.001-3.981,3.741h7.282v1.5h-9.262c0.26-3.341,1.98-4.601,3.981-5.801c2.4-1.501,3.621-2.341,3.621-4.321
		c0-1.54-1.24-2.561-2.74-2.561c-1.98,0-2.821,1.82-2.761,3.521H557.599z"/>
	<path d="M573.399,968.6c4.441,0,4.721,4.101,4.721,7.221c0,3.121-0.28,7.202-4.721,7.202s-4.721-4.081-4.721-7.202
		C568.679,972.7,568.958,968.6,573.399,968.6z M573.399,981.521c2.901,0,2.921-3.601,2.921-5.721c0-2.101-0.02-5.701-2.921-5.701
		c-2.9,0-2.92,3.601-2.92,5.701C570.479,977.921,570.499,981.521,573.399,981.521z"/>
	<path d="M586.08,982.782h-1.7V972.62h-3.681v-1.36c1.94,0,3.701-0.5,4.081-2.66h1.3V982.782z"/>
	<path d="M590.959,973.62c-0.16-2.881,1.56-5.021,4.561-5.021c2.461,0,4.441,1.439,4.441,4.08c0,2.501-1.681,3.741-3.441,4.861
		c-1.76,1.061-3.661,2.001-3.981,3.741h7.282v1.5h-9.262c0.26-3.341,1.98-4.601,3.981-5.801c2.4-1.501,3.621-2.341,3.621-4.321
		c0-1.54-1.24-2.561-2.74-2.561c-1.98,0-2.821,1.82-2.761,3.521H590.959z"/>
	<path d="M602.859,980.562h2.221v2.021c0,1.521-0.66,2.681-2.201,3.141v-1c0.88-0.32,1.22-1.28,1.161-1.94h-1.181V980.562z"/>
</g>
</svg>
