<?xml version="1.0" encoding="utf-8"?>
<!-- Generator: Adobe Illustrator 16.0.3, SVG Export Plug-In . SVG Version: 6.00 Build 0)  -->
<!DOCTYPE svg PUBLIC "-//W3C//DTD SVG 1.1//EN" "http://www.w3.org/Graphics/SVG/1.1/DTD/svg11.dtd">
<svg version="1.1" id="Layer_1" xmlns="http://www.w3.org/2000/svg" xmlns:xlink="http://www.w3.org/1999/xlink" x="0px" y="0px"
	 width="2048px" height="1000px" viewBox="0 0 2048 1000" enable-background="new 0 0 2048 1000" xml:space="preserve">
<rect fill="#B9E5FB" width="2048" height="1000"/>
<rect x="1.5" y="640.118" fill="#116BB4" width="2046.5" height="360.601"/>
<g>
	<g>
		<polygon fill="#FFFFFF" points="1678.883,844.459 1678.883,508.125 1678.883,303.315 1517.267,156.542 412.484,156.542 
			412.484,844.459 		"/>
		<g>
			<polygon fill="#2C5871" points="1517.267,303.315 1678.883,303.315 1517.267,156.542 			"/>
			<polygon fill="#D1ECFB" points="1678.883,303.315 1517.267,303.315 1678.883,450.064 			"/>
		</g>
	</g>
</g>
<line fill="none" stroke="#343636" stroke-width="4.9841" stroke-miterlimit="10" x1="50.751" y1="53.718" x2="1997.543" y2="53.718"/>
<g>
	<g>
		<path fill="#231F20" d="M51.128,75.959h26.591v4.968H67.276v27.879h-5.751V80.927H51.128V75.959z"/>
		<path fill="#231F20" d="M80.936,75.959h5.245v4.968h-5.245V75.959z M80.936,85.022h5.245v23.785h-5.245V85.022z"/>
		<path fill="#231F20" d="M92.022,85.022h4.968v3.22h0.092c1.472-2.76,4.278-3.864,7.361-3.864c7.499,0,11.133,5.659,11.133,12.651
			c0,6.441-3.267,12.421-10.259,12.421c-3.036,0-6.349-1.104-7.959-3.727h-0.092v11.87h-5.245V85.022z M103.753,88.519
			c-4.417,0-6.671,3.312-6.671,8.419c0,4.784,2.438,8.373,6.671,8.373c4.784,0,6.579-4.232,6.579-8.373
			C110.332,92.659,108.078,88.519,103.753,88.519z"/>
		<path fill="#231F20" d="M123.946,101.17c0.322,3.082,2.576,4.14,5.383,4.14c2.024,0,5.428-0.414,5.291-3.128
			c-0.138-2.76-3.957-3.082-7.775-3.956c-3.865-0.828-7.637-2.208-7.637-7.039c0-5.198,5.613-6.809,9.938-6.809
			c4.876,0,9.339,1.978,9.937,7.315h-5.475c-0.506-2.53-2.484-3.174-4.831-3.174c-1.518,0-4.325,0.368-4.325,2.438
			c0,2.576,3.865,2.99,7.729,3.818c3.818,0.874,7.683,2.254,7.683,6.947c0,5.659-5.705,7.729-10.627,7.729
			c-6.027,0-10.397-2.668-10.535-8.281H123.946z"/>
	</g>
</g>
<g>
	<path fill="#333333" d="M609.958,243.658h3.99l8.249,21.419h-4.02l-2.01-5.67h-8.55l-2.01,5.67h-3.87L609.958,243.658z
		 M608.638,256.558h6.54l-3.21-9.21h-0.09L608.638,256.558z"/>
	<path fill="#333333" d="M623.848,243.658h3.42v21.419h-3.42V243.658z"/>
	<path fill="#333333" d="M631.077,243.658h3.42v21.419h-3.42V243.658z"/>
	<path fill="#333333" d="M644.997,249.567h2.58v-4.649h3.42v4.649h3.09v2.551h-3.09v8.279c0,1.41,0.119,2.13,1.649,2.13
		c0.48,0,0.96,0,1.44-0.12v2.64c-0.75,0.09-1.471,0.181-2.221,0.181c-3.6,0-4.199-1.38-4.289-3.96v-9.149h-2.58V249.567z"/>
	<path fill="#333333" d="M659.217,258.207c0,2.431,1.32,4.59,4.17,4.59c2.01,0,3.18-0.869,3.78-2.579h3.239
		c-0.72,3.39-3.659,5.279-7.02,5.279c-4.89,0-7.59-3.359-7.59-8.159c0-4.41,2.88-8.19,7.5-8.19c4.89,0,7.89,4.41,7.319,9.06H659.217
		z M667.196,255.958c-0.149-2.16-1.56-4.11-3.899-4.11c-2.37,0-3.99,1.8-4.08,4.11H667.196z"/>
	<path fill="#333333" d="M677.396,256.917l-5.37-7.35h4.141l3.239,4.771l3.39-4.771h3.96l-5.279,7.17l5.939,8.34h-4.109
		l-3.931-5.729l-3.81,5.729h-4.02L677.396,256.917z"/>
	<path fill="#333333" d="M687.776,249.567h2.58v-4.649h3.42v4.649h3.09v2.551h-3.09v8.279c0,1.41,0.119,2.13,1.649,2.13
		c0.48,0,0.96,0,1.44-0.12v2.64c-0.75,0.09-1.471,0.181-2.221,0.181c-3.6,0-4.199-1.38-4.289-3.96v-9.149h-2.58V249.567z"/>
	<path fill="#333333" d="M706.256,249.567h3.63l3.03,11.58h0.06l2.91-11.58h3.45l2.79,11.58h0.06l3.149-11.58h3.48l-4.86,15.51
		h-3.51l-2.88-11.52h-0.06l-2.85,11.52h-3.601L706.256,249.567z"/>
	<path fill="#333333" d="M731.096,243.658h3.42v3.239h-3.42V243.658z M731.096,249.567h3.42v15.51h-3.42V249.567z"/>
	<path fill="#333333" d="M738.325,243.658h3.42v21.419h-3.42V243.658z"/>
	<path fill="#333333" d="M745.555,243.658h3.42v21.419h-3.42V243.658z"/>
	<path fill="#333333" d="M761.124,243.658h3.42v7.92h0.061c0.96-1.5,2.85-2.431,4.619-2.431c4.891,0,7.26,3.69,7.26,8.25
		c0,4.2-2.13,8.1-6.689,8.1c-2.1,0-4.35-0.51-5.37-2.55h-0.06v2.13h-3.24V243.658z M768.774,251.848c-2.88,0-4.351,2.16-4.351,5.49
		c0,3.119,1.59,5.459,4.351,5.459c3.119,0,4.289-2.76,4.289-5.459C773.063,254.548,771.594,251.848,768.774,251.848z"/>
	<path fill="#333333" d="M782.034,258.207c0,2.431,1.32,4.59,4.17,4.59c2.01,0,3.18-0.869,3.78-2.579h3.239
		c-0.72,3.39-3.66,5.279-7.02,5.279c-4.89,0-7.59-3.359-7.59-8.159c0-4.41,2.88-8.19,7.5-8.19c4.89,0,7.89,4.41,7.319,9.06H782.034z
		 M790.014,255.958c-0.149-2.16-1.56-4.11-3.899-4.11c-2.37,0-3.99,1.8-4.08,4.11H790.014z"/>
	<path fill="#333333" d="M804.474,243.658h3.42v7.92h0.061c0.96-1.5,2.85-2.431,4.619-2.431c4.891,0,7.26,3.69,7.26,8.25
		c0,4.2-2.13,8.1-6.689,8.1c-2.1,0-4.35-0.51-5.37-2.55h-0.06v2.13h-3.24V243.658z M812.124,251.848c-2.88,0-4.351,2.16-4.351,5.49
		c0,3.119,1.59,5.459,4.351,5.459c3.119,0,4.289-2.76,4.289-5.459C816.413,254.548,814.943,251.848,812.124,251.848z"/>
	<path fill="#333333" d="M822.804,243.658h3.42v21.419h-3.42V243.658z"/>
	<path fill="#333333" d="M842.933,261.627c0,0.84,0.181,1.17,0.811,1.17h0.359c0.15,0,0.301-0.029,0.48-0.06v2.37
		c-0.51,0.18-1.59,0.39-2.16,0.39c-1.41,0-2.37-0.479-2.64-1.89c-1.35,1.319-3.54,1.89-5.37,1.89c-2.79,0-5.31-1.5-5.31-4.529
		c0-3.87,3.09-4.5,5.97-4.83c2.49-0.48,4.649-0.15,4.649-2.19c0-1.8-1.859-2.1-3.209-2.1c-1.92,0-3.271,0.78-3.42,2.46h-3.42
		c0.239-3.99,3.6-5.16,7.05-5.16c3.029,0,6.209,1.23,6.209,4.5V261.627z M839.513,257.308c-1.05,0.689-2.67,0.66-4.199,0.93
		c-1.47,0.24-2.79,0.78-2.79,2.58c0,1.56,1.95,1.979,3.149,1.979c1.5,0,3.84-0.779,3.84-2.939V257.308z"/>
	<path fill="#333333" d="M857.093,254.758c-0.27-1.92-1.62-2.91-3.54-2.91c-1.77,0-4.26,0.96-4.26,5.64c0,2.58,1.14,5.31,4.11,5.31
		c2.01,0,3.359-1.29,3.689-3.539h3.42c-0.63,4.05-3.12,6.239-7.109,6.239c-4.86,0-7.53-3.45-7.53-8.01c0-4.68,2.55-8.34,7.649-8.34
		c3.601,0,6.66,1.8,6.99,5.61H857.093z"/>
	<path fill="#333333" d="M863.393,243.658h3.42v12.18l6.18-6.271h4.2l-5.939,5.7l6.51,9.81h-4.17l-4.74-7.529l-2.04,1.979v5.55
		h-3.42V243.658z"/>
	<path fill="#333333" d="M887.842,243.658h3.42v3.239h-3.42V243.658z M887.842,249.567h3.42v15.51h-3.42V249.567z"/>
	<path fill="#333333" d="M894.981,249.567h3.24v2.28l0.06,0.06c1.05-1.709,2.79-2.76,4.83-2.76c3.39,0,5.489,1.771,5.489,5.28
		v10.649h-3.42v-9.75c-0.09-2.43-0.989-3.479-3.029-3.479c-2.28,0-3.75,1.8-3.75,4.08v9.149h-3.42V249.567z"/>
	<path fill="#333333" d="M918.981,249.567h2.58v-4.649h3.42v4.649h3.09v2.551h-3.09v8.279c0,1.41,0.119,2.13,1.649,2.13
		c0.48,0,0.96,0,1.44-0.12v2.64c-0.75,0.09-1.471,0.181-2.221,0.181c-3.6,0-4.199-1.38-4.289-3.96v-9.149h-2.58V249.567z"/>
	<path fill="#333333" d="M930.531,243.658h3.42v7.949h0.06c0.841-1.409,2.61-2.46,4.65-2.46c3.39,0,5.489,1.771,5.489,5.28v10.649
		h-3.419v-9.75c-0.091-2.43-0.99-3.479-3.03-3.479c-2.28,0-3.75,1.8-3.75,4.08v9.149h-3.42V243.658z"/>
	<path fill="#333333" d="M950.421,258.207c0,2.431,1.32,4.59,4.17,4.59c2.01,0,3.18-0.869,3.78-2.579h3.239
		c-0.72,3.39-3.66,5.279-7.02,5.279c-4.89,0-7.59-3.359-7.59-8.159c0-4.41,2.88-8.19,7.5-8.19c4.89,0,7.89,4.41,7.319,9.06H950.421z
		 M958.4,255.958c-0.149-2.16-1.56-4.11-3.899-4.11c-2.37,0-3.99,1.8-4.08,4.11H958.4z"/>
	<path fill="#333333" d="M971.24,249.567h2.551v-1.289c0-3.96,2.069-4.62,4.289-4.62c1.11,0,1.891,0.06,2.4,0.21v2.67
		c-0.45-0.12-0.9-0.18-1.59-0.18c-0.931,0-1.681,0.329-1.681,1.619v1.59h2.91v2.551h-2.91v12.959h-3.419v-12.959h-2.551V249.567z
		 M982.311,243.658h3.42v3.239h-3.42V243.658z M982.311,249.567h3.42v15.51h-3.42V249.567z"/>
	<path fill="#333333" d="M989.45,249.567h3.24v2.28l0.06,0.06c1.05-1.709,2.79-2.76,4.83-2.76c3.39,0,5.489,1.771,5.489,5.28v10.649
		h-3.42v-9.75c-0.09-2.43-0.989-3.479-3.029-3.479c-2.28,0-3.75,1.8-3.75,4.08v9.149h-3.42V249.567z"/>
	<path fill="#333333" d="M1019.659,261.627c0,0.84,0.181,1.17,0.811,1.17h0.359c0.15,0,0.301-0.029,0.48-0.06v2.37
		c-0.51,0.18-1.59,0.39-2.16,0.39c-1.41,0-2.37-0.479-2.64-1.89c-1.35,1.319-3.54,1.89-5.37,1.89c-2.79,0-5.31-1.5-5.31-4.529
		c0-3.87,3.09-4.5,5.97-4.83c2.49-0.48,4.649-0.15,4.649-2.19c0-1.8-1.859-2.1-3.209-2.1c-1.92,0-3.271,0.78-3.42,2.46h-3.42
		c0.239-3.99,3.6-5.16,7.05-5.16c3.029,0,6.209,1.23,6.209,4.5V261.627z M1016.239,257.308c-1.05,0.689-2.67,0.66-4.199,0.93
		c-1.47,0.24-2.79,0.78-2.79,2.58c0,1.56,1.95,1.979,3.149,1.979c1.5,0,3.84-0.779,3.84-2.939V257.308z"/>
	<path fill="#333333" d="M1023.439,243.658h3.42v21.419h-3.42V243.658z"/>
	<path fill="#333333" d="M1037.389,249.567h3.721l3.93,11.91h0.06l3.78-11.91h3.54l-5.55,15.51h-3.84L1037.389,249.567z"/>
	<path fill="#333333" d="M1057.159,258.207c0,2.431,1.32,4.59,4.17,4.59c2.01,0,3.18-0.869,3.78-2.579h3.239
		c-0.72,3.39-3.66,5.279-7.02,5.279c-4.89,0-7.59-3.359-7.59-8.159c0-4.41,2.88-8.19,7.5-8.19c4.89,0,7.89,4.41,7.319,9.06H1057.159
		z M1065.139,255.958c-0.149-2.16-1.56-4.11-3.899-4.11c-2.37,0-3.99,1.8-4.08,4.11H1065.139z"/>
	<path fill="#333333" d="M1071.169,249.567h3.21v3h0.06c0.391-1.649,2.46-3.42,4.53-3.42c0.81,0,0.96,0.061,1.29,0.09v3.301
		c-0.48-0.091-0.99-0.15-1.47-0.15c-2.311,0-4.2,1.86-4.2,5.31v7.38h-3.42V249.567z"/>
	<path fill="#333333" d="M1084.309,260.098c0.21,2.01,1.68,2.699,3.51,2.699c1.32,0,3.54-0.27,3.45-2.04
		c-0.09-1.8-2.58-2.01-5.07-2.579c-2.52-0.54-4.979-1.44-4.979-4.59c0-3.39,3.66-4.44,6.479-4.44c3.18,0,6.09,1.29,6.479,4.771
		h-3.569c-0.33-1.65-1.62-2.07-3.15-2.07c-0.989,0-2.819,0.24-2.819,1.59c0,1.68,2.52,1.95,5.04,2.49
		c2.489,0.569,5.01,1.47,5.01,4.529c0,3.69-3.721,5.04-6.93,5.04c-3.931,0-6.78-1.74-6.87-5.399H1084.309z"/>
	<path fill="#333333" d="M1097.389,243.658h3.42v3.239h-3.42V243.658z M1097.389,249.567h3.42v15.51h-3.42V249.567z"/>
	<path fill="#333333" d="M1103.809,257.308c0-4.71,2.88-8.16,7.829-8.16c4.95,0,7.83,3.45,7.83,8.16c0,4.77-2.88,8.189-7.83,8.189
		C1106.688,265.497,1103.809,262.077,1103.809,257.308z M1116.048,257.308c0-2.67-1.35-5.46-4.41-5.46
		c-3.06,0-4.409,2.79-4.409,5.46c0,2.7,1.35,5.489,4.409,5.489C1114.698,262.797,1116.048,260.008,1116.048,257.308z"/>
	<path fill="#333333" d="M1122.318,249.567h3.24v2.28l0.06,0.06c1.05-1.709,2.79-2.76,4.83-2.76c3.39,0,5.489,1.771,5.489,5.28
		v10.649h-3.419v-9.75c-0.091-2.43-0.99-3.479-3.03-3.479c-2.28,0-3.75,1.8-3.75,4.08v9.149h-3.42V249.567z"/>
</g>
<g>
	<path fill="#333333" d="M602.188,427.847h17.339v3.239h-6.81v18.18h-3.75v-18.18h-6.779V427.847z"/>
	<path fill="#333333" d="M621.538,427.847h3.42v7.949h0.061c0.84-1.409,2.609-2.46,4.649-2.46c3.39,0,5.489,1.771,5.489,5.28v10.649
		h-3.42v-9.75c-0.09-2.43-0.989-3.479-3.029-3.479c-2.28,0-3.75,1.8-3.75,4.08v9.149h-3.42V427.847z"/>
	<path fill="#333333" d="M641.428,442.396c0,2.431,1.32,4.59,4.17,4.59c2.01,0,3.18-0.869,3.78-2.579h3.239
		c-0.72,3.39-3.659,5.279-7.02,5.279c-4.89,0-7.59-3.359-7.59-8.159c0-4.41,2.88-8.19,7.5-8.19c4.89,0,7.89,4.41,7.319,9.06H641.428
		z M649.407,440.146c-0.149-2.16-1.56-4.11-3.899-4.11c-2.37,0-3.99,1.8-4.08,4.11H649.407z"/>
	<path fill="#333333" d="M674.247,438.946c-0.27-1.92-1.62-2.91-3.54-2.91c-1.77,0-4.26,0.96-4.26,5.64c0,2.58,1.14,5.31,4.11,5.31
		c2.01,0,3.359-1.29,3.689-3.539h3.42c-0.63,4.05-3.12,6.239-7.109,6.239c-4.86,0-7.53-3.45-7.53-8.01c0-4.68,2.55-8.34,7.649-8.34
		c3.601,0,6.66,1.8,6.99,5.61H674.247z"/>
	<path fill="#333333" d="M679.737,441.496c0-4.71,2.88-8.16,7.829-8.16c4.95,0,7.83,3.45,7.83,8.16c0,4.77-2.88,8.189-7.83,8.189
		C682.617,449.686,679.737,446.266,679.737,441.496z M691.977,441.496c0-2.67-1.35-5.46-4.41-5.46c-3.06,0-4.409,2.79-4.409,5.46
		c0,2.7,1.35,5.489,4.409,5.489C690.627,446.985,691.977,444.196,691.977,441.496z"/>
	<path fill="#333333" d="M698.247,433.756h3.24v2.28l0.06,0.06c1.05-1.709,2.79-2.76,4.83-2.76c3.39,0,5.489,1.771,5.489,5.28
		v10.649h-3.42v-9.75c-0.09-2.43-0.989-3.479-3.029-3.479c-2.28,0-3.75,1.8-3.75,4.08v9.149h-3.42V433.756z"/>
	<path fill="#333333" d="M713.907,433.756h2.58v-4.649h3.42v4.649h3.09v2.551h-3.09v8.279c0,1.41,0.119,2.13,1.649,2.13
		c0.48,0,0.96,0,1.44-0.12v2.64c-0.75,0.09-1.471,0.181-2.221,0.181c-3.6,0-4.199-1.38-4.289-3.96v-9.149h-2.58V433.756z"/>
	<path fill="#333333" d="M728.127,442.396c0,2.431,1.32,4.59,4.17,4.59c2.01,0,3.18-0.869,3.78-2.579h3.239
		c-0.72,3.39-3.659,5.279-7.02,5.279c-4.89,0-7.59-3.359-7.59-8.159c0-4.41,2.88-8.19,7.5-8.19c4.89,0,7.89,4.41,7.319,9.06H728.127
		z M736.106,440.146c-0.149-2.16-1.56-4.11-3.899-4.11c-2.37,0-3.99,1.8-4.08,4.11H736.106z"/>
	<path fill="#333333" d="M742.137,433.756h3.24v2.28l0.06,0.06c1.05-1.709,2.79-2.76,4.83-2.76c3.39,0,5.489,1.771,5.489,5.28
		v10.649h-3.419v-9.75c-0.091-2.43-0.99-3.479-3.03-3.479c-2.28,0-3.75,1.8-3.75,4.08v9.149h-3.42V433.756z"/>
	<path fill="#333333" d="M757.797,433.756h2.58v-4.649h3.419v4.649h3.091v2.551h-3.091v8.279c0,1.41,0.12,2.13,1.65,2.13
		c0.48,0,0.96,0,1.44-0.12v2.64c-0.75,0.09-1.471,0.181-2.221,0.181c-3.6,0-4.199-1.38-4.289-3.96v-9.149h-2.58V433.756z"/>
	<path fill="#333333" d="M776.156,433.756h2.551v-1.289c0-3.96,2.069-4.62,4.289-4.62c1.11,0,1.891,0.06,2.4,0.21v2.67
		c-0.45-0.12-0.9-0.18-1.59-0.18c-0.931,0-1.681,0.329-1.681,1.619v1.59h2.91v2.551h-2.91v12.959h-3.419v-12.959h-2.551V433.756z"/>
	<path fill="#333333" d="M787.136,433.756h3.21v3h0.06c0.391-1.649,2.46-3.42,4.53-3.42c0.81,0,0.96,0.061,1.29,0.09v3.301
		c-0.48-0.091-0.99-0.15-1.47-0.15c-2.311,0-4.2,1.86-4.2,5.31v7.38h-3.42V433.756z"/>
	<path fill="#333333" d="M796.436,441.496c0-4.71,2.88-8.16,7.829-8.16c4.95,0,7.83,3.45,7.83,8.16c0,4.77-2.88,8.189-7.83,8.189
		C799.315,449.686,796.436,446.266,796.436,441.496z M808.675,441.496c0-2.67-1.35-5.46-4.41-5.46c-3.06,0-4.409,2.79-4.409,5.46
		c0,2.7,1.35,5.489,4.409,5.489C807.325,446.985,808.675,444.196,808.675,441.496z"/>
	<path fill="#333333" d="M814.945,433.756h3.24v2.16h0.09c1.05-1.529,2.28-2.58,4.77-2.58c1.89,0,3.66,0.811,4.35,2.58
		c1.17-1.59,2.58-2.58,4.86-2.58c3.27,0,5.189,1.471,5.189,5.22v10.71h-3.42v-9.06c0-2.49-0.149-4.17-2.819-4.17
		c-2.311,0-3.3,1.5-3.3,4.14v9.09h-3.42v-9.96c0-2.159-0.66-3.27-2.73-3.27c-1.77,0-3.39,1.47-3.39,4.02v9.21h-3.42V433.756z"/>
	<path fill="#333333" d="M847.825,433.756h2.58v-4.649h3.42v4.649h3.09v2.551h-3.09v8.279c0,1.41,0.119,2.13,1.649,2.13
		c0.48,0,0.96,0,1.44-0.12v2.64c-0.75,0.09-1.471,0.181-2.221,0.181c-3.6,0-4.199-1.38-4.289-3.96v-9.149h-2.58V433.756z"/>
	<path fill="#333333" d="M859.375,427.847h3.42v7.949h0.06c0.841-1.409,2.61-2.46,4.65-2.46c3.39,0,5.489,1.771,5.489,5.28v10.649
		h-3.419v-9.75c-0.091-2.43-0.99-3.479-3.03-3.479c-2.28,0-3.75,1.8-3.75,4.08v9.149h-3.42V427.847z"/>
	<path fill="#333333" d="M879.265,442.396c0,2.431,1.32,4.59,4.17,4.59c2.01,0,3.18-0.869,3.78-2.579h3.239
		c-0.72,3.39-3.66,5.279-7.02,5.279c-4.89,0-7.59-3.359-7.59-8.159c0-4.41,2.88-8.19,7.5-8.19c4.89,0,7.89,4.41,7.319,9.06H879.265z
		 M887.244,440.146c-0.149-2.16-1.56-4.11-3.899-4.11c-2.37,0-3.99,1.8-4.08,4.11H887.244z"/>
	<path fill="#333333" d="M901.704,427.847h3.42v21.419h-3.42V427.847z"/>
	<path fill="#333333" d="M908.934,427.847h3.42v3.239h-3.42V427.847z M908.934,433.756h3.42v15.51h-3.42V433.756z"/>
	<path fill="#333333" d="M916.073,433.756h3.24v2.28l0.06,0.06c1.05-1.709,2.79-2.76,4.83-2.76c3.39,0,5.489,1.771,5.489,5.28
		v10.649h-3.42v-9.75c-0.09-2.43-0.989-3.479-3.029-3.479c-2.28,0-3.75,1.8-3.75,4.08v9.149h-3.42V433.756z"/>
	<path fill="#333333" d="M933.383,427.847h3.42v12.18l6.18-6.271h4.2l-5.939,5.7l6.51,9.81h-4.17l-4.74-7.529l-2.04,1.979v5.55
		h-3.42V427.847z"/>
	<path fill="#333333" d="M951.982,444.286c0.21,2.01,1.68,2.699,3.51,2.699c1.32,0,3.54-0.27,3.45-2.04
		c-0.09-1.8-2.58-2.01-5.07-2.579c-2.52-0.54-4.979-1.44-4.979-4.59c0-3.39,3.66-4.44,6.479-4.44c3.18,0,6.09,1.29,6.479,4.771
		h-3.569c-0.33-1.65-1.62-2.07-3.15-2.07c-0.989,0-2.819,0.24-2.819,1.59c0,1.68,2.52,1.95,5.04,2.49
		c2.489,0.569,5.01,1.47,5.01,4.529c0,3.69-3.721,5.04-6.93,5.04c-3.931,0-6.78-1.74-6.87-5.399H951.982z"/>
	<path fill="#333333" d="M973.312,433.756h3.24v2.28l0.06,0.06c1.05-1.709,2.79-2.76,4.83-2.76c3.39,0,5.489,1.771,5.489,5.28
		v10.649h-3.419v-9.75c-0.091-2.43-0.99-3.479-3.03-3.479c-2.28,0-3.75,1.8-3.75,4.08v9.149h-3.42V433.756z"/>
	<path fill="#333333" d="M993.202,442.396c0,2.431,1.32,4.59,4.17,4.59c2.01,0,3.18-0.869,3.78-2.579h3.239
		c-0.72,3.39-3.66,5.279-7.02,5.279c-4.89,0-7.59-3.359-7.59-8.159c0-4.41,2.88-8.19,7.5-8.19c4.89,0,7.89,4.41,7.319,9.06H993.202z
		 M1001.182,440.146c-0.149-2.16-1.56-4.11-3.899-4.11c-2.37,0-3.99,1.8-4.08,4.11H1001.182z"/>
	<path fill="#333333" d="M1009.882,442.396c0,2.431,1.32,4.59,4.17,4.59c2.01,0,3.18-0.869,3.78-2.579h3.239
		c-0.72,3.39-3.66,5.279-7.02,5.279c-4.89,0-7.59-3.359-7.59-8.159c0-4.41,2.88-8.19,7.5-8.19c4.89,0,7.89,4.41,7.319,9.06H1009.882
		z M1017.861,440.146c-0.149-2.16-1.56-4.11-3.899-4.11c-2.37,0-3.99,1.8-4.08,4.11H1017.861z"/>
	<path fill="#333333" d="M1038.501,449.266h-3.239v-2.1h-0.061c-0.93,1.8-2.85,2.52-4.8,2.52c-4.89,0-7.26-3.63-7.26-8.279
		c0-5.64,3.33-8.07,6.72-8.07c1.92,0,4.11,0.721,5.16,2.431h0.06v-7.92h3.42V449.266z M1030.852,446.985
		c3.029,0,4.35-2.789,4.35-5.489c0-3.45-1.649-5.46-4.29-5.46c-3.21,0-4.35,2.88-4.35,5.64
		C1026.562,444.346,1027.882,446.985,1030.852,446.985z"/>
	<path fill="#333333" d="M1049.002,433.756h2.58v-4.649h3.419v4.649h3.091v2.551h-3.091v8.279c0,1.41,0.12,2.13,1.65,2.13
		c0.48,0,0.96,0,1.44-0.12v2.64c-0.75,0.09-1.471,0.181-2.221,0.181c-3.6,0-4.199-1.38-4.289-3.96v-9.149h-2.58V433.756z"/>
	<path fill="#333333" d="M1059.832,441.496c0-4.71,2.88-8.16,7.829-8.16c4.95,0,7.83,3.45,7.83,8.16c0,4.77-2.88,8.189-7.83,8.189
		C1062.712,449.686,1059.832,446.266,1059.832,441.496z M1072.071,441.496c0-2.67-1.35-5.46-4.41-5.46
		c-3.06,0-4.409,2.79-4.409,5.46c0,2.7,1.35,5.489,4.409,5.489C1070.722,446.985,1072.071,444.196,1072.071,441.496z"/>
	<path fill="#333333" d="M1086.771,427.847h3.42v7.92h0.061c0.96-1.5,2.85-2.431,4.619-2.431c4.89,0,7.26,3.69,7.26,8.25
		c0,4.2-2.13,8.1-6.689,8.1c-2.1,0-4.35-0.51-5.37-2.55h-0.06v2.13h-3.24V427.847z M1094.422,436.036c-2.88,0-4.351,2.16-4.351,5.49
		c0,3.119,1.59,5.459,4.351,5.459c3.119,0,4.289-2.76,4.289-5.459C1098.711,438.736,1097.241,436.036,1094.422,436.036z"/>
	<path fill="#333333" d="M1107.682,442.396c0,2.431,1.32,4.59,4.17,4.59c2.01,0,3.18-0.869,3.78-2.579h3.239
		c-0.72,3.39-3.659,5.279-7.02,5.279c-4.89,0-7.59-3.359-7.59-8.159c0-4.41,2.88-8.19,7.5-8.19c4.89,0,7.89,4.41,7.319,9.06
		H1107.682z M1115.661,440.146c-0.149-2.16-1.56-4.11-3.899-4.11c-2.37,0-3.99,1.8-4.08,4.11H1115.661z"/>
	<path fill="#333333" d="M1143.021,445.815c0,0.84,0.181,1.17,0.811,1.17h0.359c0.15,0,0.301-0.029,0.48-0.06v2.37
		c-0.51,0.18-1.59,0.39-2.16,0.39c-1.41,0-2.37-0.479-2.64-1.89c-1.35,1.319-3.54,1.89-5.37,1.89c-2.79,0-5.31-1.5-5.31-4.529
		c0-3.87,3.09-4.5,5.97-4.83c2.49-0.48,4.649-0.15,4.649-2.19c0-1.8-1.859-2.1-3.209-2.1c-1.92,0-3.271,0.78-3.42,2.46h-3.42
		c0.239-3.99,3.6-5.16,7.05-5.16c3.029,0,6.209,1.23,6.209,4.5V445.815z M1139.601,441.496c-1.05,0.689-2.67,0.66-4.199,0.93
		c-1.47,0.24-2.79,0.78-2.79,2.58c0,1.56,1.95,1.979,3.149,1.979c1.5,0,3.84-0.779,3.84-2.939V441.496z"/>
	<path fill="#333333" d="M1146.801,433.756h3.24v2.101h0.06c0.96-1.8,2.79-2.521,4.8-2.521c4.89,0,7.26,3.69,7.26,8.25
		c0,4.2-2.13,8.1-6.689,8.1c-1.979,0-4.14-0.72-5.189-2.43h-0.061v7.739h-3.42V433.756z M1154.451,436.036
		c-2.88,0-4.351,2.16-4.351,5.49c0,3.119,1.59,5.459,4.351,5.459c3.119,0,4.289-2.76,4.289-5.459
		C1158.74,438.736,1157.271,436.036,1154.451,436.036z"/>
	<path fill="#333333" d="M1165.131,433.756h3.24v2.101h0.06c0.96-1.8,2.79-2.521,4.8-2.521c4.89,0,7.26,3.69,7.26,8.25
		c0,4.2-2.13,8.1-6.689,8.1c-1.979,0-4.14-0.72-5.189-2.43h-0.061v7.739h-3.42V433.756z M1172.781,436.036
		c-2.88,0-4.351,2.16-4.351,5.49c0,3.119,1.59,5.459,4.351,5.459c3.119,0,4.289-2.76,4.289-5.459
		C1177.07,438.736,1175.601,436.036,1172.781,436.036z"/>
	<path fill="#333333" d="M1186.041,442.396c0,2.431,1.32,4.59,4.17,4.59c2.01,0,3.18-0.869,3.78-2.579h3.239
		c-0.72,3.39-3.659,5.279-7.02,5.279c-4.89,0-7.59-3.359-7.59-8.159c0-4.41,2.88-8.19,7.5-8.19c4.89,0,7.89,4.41,7.319,9.06
		H1186.041z M1194.021,440.146c-0.149-2.16-1.56-4.11-3.899-4.11c-2.37,0-3.99,1.8-4.08,4.11H1194.021z"/>
	<path fill="#333333" d="M1200.051,433.756h3.24v2.28l0.06,0.06c1.05-1.709,2.79-2.76,4.83-2.76c3.39,0,5.489,1.771,5.489,5.28
		v10.649h-3.419v-9.75c-0.091-2.43-0.99-3.479-3.03-3.479c-2.28,0-3.75,1.8-3.75,4.08v9.149h-3.42V433.756z"/>
	<path fill="#333333" d="M1231.88,449.266h-3.239v-2.1h-0.061c-0.93,1.8-2.85,2.52-4.8,2.52c-4.89,0-7.26-3.63-7.26-8.279
		c0-5.64,3.33-8.07,6.72-8.07c1.92,0,4.11,0.721,5.16,2.431h0.06v-7.92h3.42V449.266z M1224.23,446.985
		c3.029,0,4.35-2.789,4.35-5.489c0-3.45-1.649-5.46-4.29-5.46c-3.21,0-4.35,2.88-4.35,5.64
		C1219.94,444.346,1221.261,446.985,1224.23,446.985z"/>
	<path fill="#333333" d="M1238.271,442.396c0,2.431,1.32,4.59,4.17,4.59c2.01,0,3.18-0.869,3.78-2.579h3.239
		c-0.72,3.39-3.66,5.279-7.02,5.279c-4.89,0-7.59-3.359-7.59-8.159c0-4.41,2.88-8.19,7.5-8.19c4.89,0,7.89,4.41,7.319,9.06H1238.271
		z M1246.25,440.146c-0.149-2.16-1.56-4.11-3.899-4.11c-2.37,0-3.99,1.8-4.08,4.11H1246.25z"/>
	<path fill="#333333" d="M1266.89,449.266h-3.239v-2.1h-0.061c-0.93,1.8-2.85,2.52-4.8,2.52c-4.89,0-7.26-3.63-7.26-8.279
		c0-5.64,3.33-8.07,6.72-8.07c1.92,0,4.11,0.721,5.16,2.431h0.06v-7.92h3.42V449.266z M1259.24,446.985
		c3.029,0,4.35-2.789,4.35-5.489c0-3.45-1.649-5.46-4.29-5.46c-3.21,0-4.35,2.88-4.35,5.64
		C1254.95,444.346,1256.271,446.985,1259.24,446.985z"/>
	<path fill="#333333" d="M1277.391,433.756h2.58v-4.649h3.419v4.649h3.091v2.551h-3.091v8.279c0,1.41,0.12,2.13,1.65,2.13
		c0.48,0,0.96,0,1.44-0.12v2.64c-0.75,0.09-1.471,0.181-2.221,0.181c-3.6,0-4.199-1.38-4.289-3.96v-9.149h-2.58V433.756z"/>
	<path fill="#333333" d="M1288.221,441.496c0-4.71,2.88-8.16,7.829-8.16c4.95,0,7.83,3.45,7.83,8.16c0,4.77-2.88,8.189-7.83,8.189
		C1291.101,449.686,1288.221,446.266,1288.221,441.496z M1300.46,441.496c0-2.67-1.35-5.46-4.41-5.46c-3.06,0-4.409,2.79-4.409,5.46
		c0,2.7,1.35,5.489,4.409,5.489C1299.11,446.985,1300.46,444.196,1300.46,441.496z"/>
	<path fill="#333333" d="M1313.511,433.756h2.58v-4.649h3.42v4.649h3.09v2.551h-3.09v8.279c0,1.41,0.119,2.13,1.649,2.13
		c0.48,0,0.96,0,1.44-0.12v2.64c-0.75,0.09-1.471,0.181-2.221,0.181c-3.6,0-4.199-1.38-4.289-3.96v-9.149h-2.58V433.756z"/>
	<path fill="#333333" d="M1325.061,427.847h3.42v7.949h0.06c0.841-1.409,2.61-2.46,4.65-2.46c3.39,0,5.489,1.771,5.489,5.28v10.649
		h-3.419v-9.75c-0.091-2.43-0.99-3.479-3.03-3.479c-2.28,0-3.75,1.8-3.75,4.08v9.149h-3.42V427.847z"/>
	<path fill="#333333" d="M1344.95,442.396c0,2.431,1.32,4.59,4.17,4.59c2.01,0,3.18-0.869,3.78-2.579h3.239
		c-0.72,3.39-3.66,5.279-7.02,5.279c-4.89,0-7.59-3.359-7.59-8.159c0-4.41,2.88-8.19,7.5-8.19c4.89,0,7.89,4.41,7.319,9.06H1344.95z
		 M1352.93,440.146c-0.149-2.16-1.56-4.11-3.899-4.11c-2.37,0-3.99,1.8-4.08,4.11H1352.93z"/>
	<path fill="#333333" d="M618.357,485.266h-3.239v-2.1h-0.061c-0.93,1.8-2.85,2.52-4.8,2.52c-4.89,0-7.26-3.63-7.26-8.279
		c0-5.64,3.33-8.07,6.72-8.07c1.92,0,4.11,0.721,5.16,2.431h0.06v-7.92h3.42V485.266z M610.708,482.985
		c3.029,0,4.35-2.789,4.35-5.489c0-3.45-1.649-5.46-4.29-5.46c-3.21,0-4.35,2.88-4.35,5.64
		C606.418,480.346,607.738,482.985,610.708,482.985z"/>
	<path fill="#333333" d="M621.358,477.496c0-4.71,2.88-8.16,7.829-8.16c4.95,0,7.83,3.45,7.83,8.16c0,4.77-2.88,8.189-7.83,8.189
		C624.238,485.686,621.358,482.266,621.358,477.496z M633.598,477.496c0-2.67-1.35-5.46-4.41-5.46c-3.06,0-4.409,2.79-4.409,5.46
		c0,2.7,1.35,5.489,4.409,5.489C632.248,482.985,633.598,480.196,633.598,477.496z"/>
	<path fill="#333333" d="M650.338,474.946c-0.271-1.92-1.62-2.91-3.54-2.91c-1.77,0-4.26,0.96-4.26,5.64c0,2.58,1.14,5.31,4.11,5.31
		c2.01,0,3.359-1.29,3.689-3.539h3.42c-0.63,4.05-3.12,6.239-7.109,6.239c-4.86,0-7.53-3.45-7.53-8.01c0-4.68,2.55-8.34,7.649-8.34
		c3.601,0,6.66,1.8,6.99,5.61H650.338z"/>
	<path fill="#333333" d="M670.167,485.266h-3.359v-2.16h-0.061c-0.84,1.561-2.699,2.58-4.409,2.58c-4.08,0-5.79-2.01-5.79-6.09
		v-9.84h3.42v9.51c0,2.73,1.08,3.72,2.97,3.72c2.851,0,3.81-1.829,3.81-4.229v-9h3.42V485.266z"/>
	<path fill="#333333" d="M673.768,469.756h3.24v2.16h0.09c1.05-1.529,2.28-2.58,4.77-2.58c1.89,0,3.66,0.811,4.35,2.58
		c1.17-1.59,2.58-2.58,4.86-2.58c3.27,0,5.189,1.471,5.189,5.22v10.71h-3.42v-9.06c0-2.49-0.149-4.17-2.819-4.17
		c-2.311,0-3.3,1.5-3.3,4.14v9.09h-3.42v-9.96c0-2.159-0.66-3.27-2.73-3.27c-1.77,0-3.39,1.47-3.39,4.02v9.21h-3.42V469.756z"/>
	<path fill="#333333" d="M702.537,478.396c0,2.431,1.32,4.59,4.17,4.59c2.01,0,3.18-0.869,3.78-2.579h3.239
		c-0.72,3.39-3.659,5.279-7.02,5.279c-4.89,0-7.59-3.359-7.59-8.159c0-4.41,2.88-8.19,7.5-8.19c4.89,0,7.89,4.41,7.319,9.06H702.537
		z M710.517,476.146c-0.149-2.16-1.56-4.11-3.899-4.11c-2.37,0-3.99,1.8-4.08,4.11H710.517z"/>
	<path fill="#333333" d="M716.547,469.756h3.24v2.28l0.06,0.06c1.05-1.709,2.79-2.76,4.83-2.76c3.39,0,5.489,1.771,5.489,5.28
		v10.649h-3.419v-9.75c-0.091-2.43-0.99-3.479-3.03-3.479c-2.28,0-3.75,1.8-3.75,4.08v9.149h-3.42V469.756z"/>
	<path fill="#333333" d="M732.207,469.756h2.58v-4.649h3.419v4.649h3.091v2.551h-3.091v8.279c0,1.41,0.12,2.13,1.65,2.13
		c0.48,0,0.96,0,1.44-0.12v2.64c-0.75,0.09-1.471,0.181-2.221,0.181c-3.6,0-4.199-1.38-4.289-3.96v-9.149h-2.58V469.756z"/>
</g>
<g>
	<path fill="#333333" d="M609.958,634.885h3.99l8.249,21.419h-4.02l-2.01-5.67h-8.55l-2.01,5.67h-3.87L609.958,634.885z
		 M608.638,647.784h6.54l-3.21-9.21h-0.09L608.638,647.784z"/>
	<path fill="#333333" d="M623.848,634.885h3.42v21.419h-3.42V634.885z"/>
	<path fill="#333333" d="M631.077,634.885h3.42v21.419h-3.42V634.885z"/>
	<path fill="#333333" d="M646.557,640.794h3.24v2.16h0.09c1.05-1.529,2.28-2.58,4.77-2.58c1.89,0,3.66,0.811,4.35,2.58
		c1.17-1.59,2.58-2.58,4.86-2.58c3.27,0,5.189,1.471,5.189,5.22v10.71h-3.42v-9.06c0-2.49-0.149-4.17-2.819-4.17
		c-2.311,0-3.3,1.5-3.3,4.14v9.09h-3.42v-9.96c0-2.159-0.66-3.27-2.73-3.27c-1.77,0-3.39,1.47-3.39,4.02v9.21h-3.42V640.794z"/>
	<path fill="#333333" d="M685.646,652.854c0,0.84,0.181,1.17,0.811,1.17h0.359c0.15,0,0.301-0.029,0.48-0.06v2.37
		c-0.51,0.18-1.59,0.39-2.16,0.39c-1.41,0-2.37-0.479-2.64-1.89c-1.35,1.319-3.54,1.89-5.37,1.89c-2.79,0-5.31-1.5-5.31-4.529
		c0-3.87,3.09-4.5,5.97-4.83c2.49-0.48,4.649-0.15,4.649-2.19c0-1.8-1.859-2.1-3.209-2.1c-1.92,0-3.271,0.78-3.42,2.46h-3.42
		c0.239-3.99,3.6-5.16,7.05-5.16c3.029,0,6.209,1.23,6.209,4.5V652.854z M682.226,648.534c-1.05,0.689-2.67,0.66-4.199,0.93
		c-1.47,0.24-2.79,0.78-2.79,2.58c0,1.56,1.95,1.979,3.149,1.979c1.5,0,3.84-0.779,3.84-2.939V648.534z"/>
	<path fill="#333333" d="M689.336,640.794h3.21v3h0.06c0.391-1.649,2.46-3.42,4.53-3.42c0.81,0,0.96,0.061,1.29,0.09v3.301
		c-0.48-0.091-0.99-0.15-1.47-0.15c-2.311,0-4.2,1.86-4.2,5.31v7.38h-3.42V640.794z"/>
	<path fill="#333333" d="M699.985,634.885h3.42v12.18l6.18-6.271h4.2l-5.939,5.7l6.51,9.81h-4.17l-4.74-7.529l-2.04,1.979v5.55
		h-3.42V634.885z"/>
	<path fill="#333333" d="M716.095,634.885h3.42v3.239h-3.42V634.885z M716.095,640.794h3.42v15.51h-3.42V640.794z"/>
	<path fill="#333333" d="M723.234,640.794h3.24v2.28l0.06,0.06c1.05-1.709,2.79-2.76,4.83-2.76c3.39,0,5.489,1.771,5.489,5.28
		v10.649h-3.419v-9.75c-0.091-2.43-0.99-3.479-3.03-3.479c-2.28,0-3.75,1.8-3.75,4.08v9.149h-3.42V640.794z"/>
	<path fill="#333333" d="M754.794,655.494c0,4.68-2.7,6.959-7.62,6.959c-3.12,0-6.6-1.199-6.93-4.829h3.42
		c0.42,1.949,1.979,2.279,3.72,2.279c2.76,0,3.99-1.41,3.99-3.96v-2.369h-0.061c-0.96,1.71-2.729,2.729-4.649,2.729
		c-4.92,0-6.96-3.72-6.96-8.16c0-4.169,2.61-7.77,7.02-7.77c1.95,0,3.72,0.78,4.59,2.55h0.061v-2.13h3.42V655.494z M751.374,648.204
		c0-2.67-1.2-5.13-4.17-5.13c-3.03,0-4.08,2.82-4.08,5.399c0,2.521,1.23,5.13,4.08,5.13
		C750.233,653.604,751.374,650.874,751.374,648.204z"/>
	<path fill="#333333" d="M760.824,651.324c0.21,2.01,1.68,2.699,3.51,2.699c1.32,0,3.54-0.27,3.45-2.04
		c-0.09-1.8-2.58-2.01-5.07-2.579c-2.52-0.54-4.979-1.44-4.979-4.59c0-3.39,3.66-4.44,6.479-4.44c3.18,0,6.09,1.29,6.479,4.771
		h-3.569c-0.33-1.65-1.62-2.07-3.15-2.07c-0.989,0-2.819,0.24-2.819,1.59c0,1.68,2.52,1.95,5.04,2.49
		c2.489,0.569,5.01,1.47,5.01,4.529c0,3.69-3.721,5.04-6.93,5.04c-3.931,0-6.78-1.74-6.87-5.399H760.824z"/>
	<path fill="#333333" d="M784.734,651.324c0.21,2.01,1.68,2.699,3.51,2.699c1.32,0,3.54-0.27,3.45-2.04
		c-0.09-1.8-2.58-2.01-5.07-2.579c-2.52-0.54-4.979-1.44-4.979-4.59c0-3.39,3.66-4.44,6.479-4.44c3.18,0,6.09,1.29,6.479,4.771
		h-3.569c-0.33-1.65-1.62-2.07-3.15-2.07c-0.989,0-2.819,0.24-2.819,1.59c0,1.68,2.52,1.95,5.04,2.49
		c2.489,0.569,5.01,1.47,5.01,4.529c0,3.69-3.721,5.04-6.93,5.04c-3.931,0-6.78-1.74-6.87-5.399H784.734z"/>
	<path fill="#333333" d="M797.725,634.885h3.42v7.949h0.06c0.841-1.409,2.61-2.46,4.65-2.46c3.39,0,5.489,1.771,5.489,5.28v10.649
		h-3.419v-9.75c-0.091-2.43-0.99-3.479-3.03-3.479c-2.28,0-3.75,1.8-3.75,4.08v9.149h-3.42V634.885z"/>
	<path fill="#333333" d="M814.225,648.534c0-4.71,2.88-8.16,7.829-8.16c4.95,0,7.83,3.45,7.83,8.16c0,4.77-2.88,8.189-7.83,8.189
		C817.104,656.724,814.225,653.304,814.225,648.534z M826.464,648.534c0-2.67-1.35-5.46-4.41-5.46c-3.06,0-4.409,2.79-4.409,5.46
		c0,2.7,1.35,5.489,4.409,5.489C825.114,654.023,826.464,651.234,826.464,648.534z"/>
	<path fill="#333333" d="M846.354,656.304h-3.359v-2.16h-0.06c-0.841,1.561-2.7,2.58-4.41,2.58c-4.08,0-5.79-2.01-5.79-6.09v-9.84
		h3.42v9.51c0,2.73,1.08,3.72,2.97,3.72c2.85,0,3.811-1.829,3.811-4.229v-9h3.419V656.304z"/>
	<path fill="#333333" d="M850.044,634.885h3.42v21.419h-3.42V634.885z"/>
	<path fill="#333333" d="M871.793,656.304h-3.239v-2.1h-0.061c-0.93,1.8-2.85,2.52-4.8,2.52c-4.89,0-7.26-3.63-7.26-8.279
		c0-5.64,3.33-8.07,6.72-8.07c1.92,0,4.11,0.721,5.16,2.431h0.06v-7.92h3.42V656.304z M864.144,654.023
		c3.029,0,4.35-2.789,4.35-5.489c0-3.45-1.649-5.46-4.29-5.46c-3.21,0-4.35,2.88-4.35,5.64
		C859.854,651.384,861.174,654.023,864.144,654.023z"/>
	<path fill="#333333" d="M883.943,634.885h3.42v7.92h0.061c0.96-1.5,2.85-2.431,4.619-2.431c4.89,0,7.26,3.69,7.26,8.25
		c0,4.2-2.13,8.1-6.689,8.1c-2.1,0-4.35-0.51-5.37-2.55h-0.06v2.13h-3.24V634.885z M891.594,643.074c-2.88,0-4.351,2.16-4.351,5.49
		c0,3.119,1.59,5.459,4.351,5.459c3.119,0,4.289-2.76,4.289-5.459C895.883,645.774,894.413,643.074,891.594,643.074z"/>
	<path fill="#333333" d="M904.854,649.434c0,2.431,1.32,4.59,4.17,4.59c2.01,0,3.18-0.869,3.78-2.579h3.239
		c-0.72,3.39-3.659,5.279-7.02,5.279c-4.89,0-7.59-3.359-7.59-8.159c0-4.41,2.88-8.19,7.5-8.19c4.89,0,7.89,4.41,7.319,9.06H904.854
		z M912.833,647.185c-0.149-2.16-1.56-4.11-3.899-4.11c-2.37,0-3.99,1.8-4.08,4.11H912.833z"/>
	<path fill="#333333" d="M927.293,634.885h3.42v3.239h-3.42V634.885z M927.293,640.794h3.42v15.51h-3.42V640.794z"/>
	<path fill="#333333" d="M934.433,640.794h3.24v2.28l0.06,0.06c1.05-1.709,2.79-2.76,4.83-2.76c3.39,0,5.489,1.771,5.489,5.28
		v10.649h-3.42v-9.75c-0.09-2.43-0.989-3.479-3.029-3.479c-2.28,0-3.75,1.8-3.75,4.08v9.149h-3.42V640.794z"/>
	<path fill="#333333" d="M960.082,634.885h3.42v7.92h0.061c0.96-1.5,2.85-2.431,4.619-2.431c4.89,0,7.26,3.69,7.26,8.25
		c0,4.2-2.13,8.1-6.689,8.1c-2.1,0-4.35-0.51-5.37-2.55h-0.06v2.13h-3.24V634.885z M967.732,643.074c-2.88,0-4.351,2.16-4.351,5.49
		c0,3.119,1.59,5.459,4.351,5.459c3.119,0,4.289-2.76,4.289-5.459C972.021,645.774,970.552,643.074,967.732,643.074z"/>
	<path fill="#333333" d="M978.412,634.885h3.42v21.419h-3.42V634.885z"/>
	<path fill="#333333" d="M999.171,656.304h-3.359v-2.16h-0.061c-0.84,1.561-2.699,2.58-4.409,2.58c-4.08,0-5.79-2.01-5.79-6.09
		v-9.84h3.42v9.51c0,2.73,1.08,3.72,2.97,3.72c2.851,0,3.81-1.829,3.81-4.229v-9h3.42V656.304z"/>
	<path fill="#333333" d="M1005.441,649.434c0,2.431,1.32,4.59,4.17,4.59c2.01,0,3.18-0.869,3.78-2.579h3.239
		c-0.72,3.39-3.659,5.279-7.02,5.279c-4.89,0-7.59-3.359-7.59-8.159c0-4.41,2.88-8.19,7.5-8.19c4.89,0,7.89,4.41,7.319,9.06
		H1005.441z M1013.421,647.185c-0.149-2.16-1.56-4.11-3.899-4.11c-2.37,0-3.99,1.8-4.08,4.11H1013.421z"/>
	<path fill="#333333" d="M1027.071,648.534c0-4.71,2.88-8.16,7.829-8.16c4.95,0,7.83,3.45,7.83,8.16c0,4.77-2.88,8.189-7.83,8.189
		C1029.951,656.724,1027.071,653.304,1027.071,648.534z M1039.311,648.534c0-2.67-1.35-5.46-4.41-5.46
		c-3.06,0-4.409,2.79-4.409,5.46c0,2.7,1.35,5.489,4.409,5.489C1037.961,654.023,1039.311,651.234,1039.311,648.534z"/>
	<path fill="#333333" d="M1045.581,640.794h3.21v3h0.06c0.391-1.649,2.46-3.42,4.53-3.42c0.81,0,0.96,0.061,1.29,0.09v3.301
		c-0.48-0.091-0.99-0.15-1.47-0.15c-2.311,0-4.2,1.86-4.2,5.31v7.38h-3.42V640.794z"/>
	<path fill="#333333" d="M1064.57,634.885h3.42v7.92h0.061c0.96-1.5,2.85-2.431,4.619-2.431c4.89,0,7.26,3.69,7.26,8.25
		c0,4.2-2.13,8.1-6.689,8.1c-2.1,0-4.35-0.51-5.37-2.55h-0.06v2.13h-3.24V634.885z M1072.221,643.074c-2.88,0-4.351,2.16-4.351,5.49
		c0,3.119,1.59,5.459,4.351,5.459c3.119,0,4.289-2.76,4.289-5.459C1076.51,645.774,1075.04,643.074,1072.221,643.074z"/>
	<path fill="#333333" d="M1082.9,634.885h3.42v21.419h-3.42V634.885z"/>
	<path fill="#333333" d="M1103.029,652.854c0,0.84,0.181,1.17,0.811,1.17h0.359c0.15,0,0.301-0.029,0.48-0.06v2.37
		c-0.51,0.18-1.59,0.39-2.16,0.39c-1.41,0-2.37-0.479-2.64-1.89c-1.35,1.319-3.54,1.89-5.37,1.89c-2.79,0-5.31-1.5-5.31-4.529
		c0-3.87,3.09-4.5,5.97-4.83c2.49-0.48,4.649-0.15,4.649-2.19c0-1.8-1.859-2.1-3.209-2.1c-1.92,0-3.271,0.78-3.42,2.46h-3.42
		c0.239-3.99,3.6-5.16,7.05-5.16c3.029,0,6.209,1.23,6.209,4.5V652.854z M1099.609,648.534c-1.05,0.689-2.67,0.66-4.199,0.93
		c-1.47,0.24-2.79,0.78-2.79,2.58c0,1.56,1.95,1.979,3.149,1.979c1.5,0,3.84-0.779,3.84-2.939V648.534z"/>
	<path fill="#333333" d="M1117.189,645.984c-0.271-1.92-1.62-2.91-3.54-2.91c-1.77,0-4.26,0.96-4.26,5.64
		c0,2.58,1.14,5.31,4.11,5.31c2.01,0,3.359-1.29,3.689-3.539h3.42c-0.63,4.05-3.12,6.239-7.109,6.239c-4.86,0-7.53-3.45-7.53-8.01
		c0-4.68,2.55-8.34,7.649-8.34c3.601,0,6.66,1.8,6.99,5.61H1117.189z"/>
	<path fill="#333333" d="M1123.489,634.885h3.42v12.18l6.18-6.271h4.2l-5.939,5.7l6.51,9.81h-4.17l-4.74-7.529l-2.04,1.979v5.55
		h-3.42V634.885z"/>
	<path fill="#333333" d="M1147.938,634.885h3.42v3.239h-3.42V634.885z M1147.938,640.794h3.42v15.51h-3.42V640.794z"/>
	<path fill="#333333" d="M1155.078,640.794h3.24v2.28l0.06,0.06c1.05-1.709,2.79-2.76,4.83-2.76c3.39,0,5.489,1.771,5.489,5.28
		v10.649h-3.419v-9.75c-0.091-2.43-0.99-3.479-3.03-3.479c-2.28,0-3.75,1.8-3.75,4.08v9.149h-3.42V640.794z"/>
	<path fill="#333333" d="M1172.388,634.885h3.42v12.18l6.18-6.271h4.2l-5.939,5.7l6.51,9.81h-4.17l-4.74-7.529l-2.04,1.979v5.55
		h-3.42V634.885z"/>
	<path fill="#333333" d="M1200.737,662.033c-2.4-3.869-4.32-8.039-4.32-13.829c0-4.83,1.561-9.6,4.32-13.829h2.79
		c-2.4,4.319-3.69,8.789-3.69,13.829s1.17,9.539,3.69,13.829H1200.737z"/>
	<path fill="#333333" d="M1205.087,640.794h3.24v2.28l0.06,0.06c1.05-1.709,2.79-2.76,4.83-2.76c3.39,0,5.489,1.771,5.489,5.28
		v10.649h-3.42v-9.75c-0.09-2.43-0.989-3.479-3.029-3.479c-2.28,0-3.75,1.8-3.75,4.08v9.149h-3.42V640.794z"/>
	<path fill="#333333" d="M1221.587,648.534c0-4.71,2.88-8.16,7.829-8.16c4.95,0,7.83,3.45,7.83,8.16c0,4.77-2.88,8.189-7.83,8.189
		C1224.467,656.724,1221.587,653.304,1221.587,648.534z M1233.826,648.534c0-2.67-1.35-5.46-4.41-5.46
		c-3.06,0-4.409,2.79-4.409,5.46c0,2.7,1.35,5.489,4.409,5.489C1232.477,654.023,1233.826,651.234,1233.826,648.534z"/>
	<path fill="#333333" d="M1248.917,634.885h10.229c4.71,0,7.079,2.16,7.079,5.79c0,4.109-2.819,5.159-3.539,5.399v0.06
		c1.289,0.15,3.18,1.17,3.18,4.53c0,2.52,0.359,4.77,1.17,5.64h-4.021c-0.569-0.93-0.569-2.1-0.569-3.149
		c0-3.931-0.811-5.67-4.26-5.67h-5.521v8.819h-3.749V634.885z M1252.666,644.634h6.15c2.399,0,3.659-1.14,3.659-3.42
		c0-2.76-1.77-3.27-3.72-3.27h-6.09V644.634z"/>
	<path fill="#333333" d="M1272.227,649.434c0,2.431,1.32,4.59,4.17,4.59c2.01,0,3.18-0.869,3.78-2.579h3.239
		c-0.72,3.39-3.659,5.279-7.02,5.279c-4.89,0-7.59-3.359-7.59-8.159c0-4.41,2.88-8.19,7.5-8.19c4.89,0,7.89,4.41,7.319,9.06
		H1272.227z M1280.206,647.185c-0.149-2.16-1.56-4.11-3.899-4.11c-2.37,0-3.99,1.8-4.08,4.11H1280.206z"/>
	<path fill="#333333" d="M1300.846,656.304h-3.239v-2.1h-0.061c-0.93,1.8-2.85,2.52-4.8,2.52c-4.89,0-7.26-3.63-7.26-8.279
		c0-5.64,3.33-8.07,6.72-8.07c1.92,0,4.11,0.721,5.16,2.431h0.06v-7.92h3.42V656.304z M1293.196,654.023
		c3.029,0,4.35-2.789,4.35-5.489c0-3.45-1.649-5.46-4.29-5.46c-3.21,0-4.35,2.88-4.35,5.64
		C1288.906,651.384,1290.227,654.023,1293.196,654.023z"/>
	<path fill="#333333" d="M1312.996,634.885h3.42v3.239h-3.42V634.885z M1312.996,640.794h3.42v15.51h-3.42V640.794z"/>
	<path fill="#333333" d="M1320.136,640.794h3.24v2.28l0.06,0.06c1.05-1.709,2.79-2.76,4.83-2.76c3.39,0,5.489,1.771,5.489,5.28
		v10.649h-3.42v-9.75c-0.09-2.43-0.989-3.479-3.029-3.479c-2.28,0-3.75,1.8-3.75,4.08v9.149h-3.42V640.794z"/>
	<path fill="#333333" d="M1337.445,634.885h3.42v12.18l6.18-6.271h4.2l-5.939,5.7l6.51,9.81h-4.17l-4.74-7.529l-2.04,1.979v5.55
		h-3.42V634.885z"/>
	<path fill="#333333" d="M1354.215,634.375c2.4,3.84,4.32,8.129,4.32,13.859c0,4.829-1.561,9.6-4.32,13.799h-2.79
		c2.4-4.29,3.69-8.76,3.69-13.799c0-5.04-1.17-9.54-3.69-13.859H1354.215z"/>
</g>
<circle fill="#4EA8DE" cx="513.252" cy="277.255" r="52.369"/>
<circle fill="#4EA8DE" cx="509.354" cy="465.16" r="52.369"/>
<circle fill="#4EA8DE" cx="513.253" cy="659.287" r="52.369"/>
<g>
	<path fill="#2C5871" d="M495.958,250.739c-2.314,1.217-6.277,0.01-9.728-3.001l-0.424,0.42l0.042,0.042l6.968,6.967
		c0.359-0.188,0.811-0.137,1.113,0.165c0.37,0.37,0.37,0.973,0,1.344c-0.371,0.371-0.974,0.369-1.343,0
		c-0.303-0.302-0.354-0.753-0.166-1.113l-6.967-6.967l-0.042-0.042l-0.42,0.423c3.011,3.451,4.217,7.415,3.001,9.728
		c1.37,0.8,2.799,1.786,4.21,2.943c1.4,1.146,2.636,2.34,3.685,3.518c0.834-1.156,1.848-2.353,3.016-3.515
		c1.166-1.166,2.359-2.182,3.514-3.017c-1.176-1.048-2.37-2.284-3.516-3.685C497.744,253.537,496.756,252.109,495.958,250.739z"/>
	<path fill="#091F3D" d="M527.594,295.928c6.195,6.191,11.778,0.607,5.583-5.588c-10.271-10.551-20.542-21.103-30.813-31.653
		c-2.142,2.142-4.284,4.285-6.427,6.427C506.489,275.383,517.041,285.655,527.594,295.928z"/>
	
		<rect x="493.966" y="260.726" transform="matrix(-0.7071 0.7071 -0.7071 -0.7071 1036.1299 93.6544)" fill="#A6DAE9" width="9.406" height="1.382"/>
	<path fill="#A6DAE9" d="M511.609,282.363l22.981,22.98c1.781,1.781,4.535,1.915,6.15,0.3l2.013-2.012
		c1.615-1.616,1.48-4.369-0.301-6.15l-22.98-22.98L511.609,282.363z"/>
	<path fill="#2C5871" d="M527.149,277.744l-2.995-2.995c-0.634,1.237-0.48,2.911,0.348,3.739
		C525.328,279.314,526.514,278.981,527.149,277.744z"/>
	<g>
		<path fill="#2C5871" d="M532.574,305.343c-0.334-0.334-0.334-0.875,0-1.209l7.861-7.862c0.778-0.778,0.778-2.044,0-2.822
			l-15.825-15.825c-0.334-0.334-0.334-0.875,0-1.209s0.875-0.334,1.209,0l15.825,15.825c1.445,1.445,1.445,3.795,0,5.241
			l-7.861,7.861C533.449,305.678,532.908,305.678,532.574,305.343L532.574,305.343z"/>
	</g>
</g>
<g>
	<g>
		<path fill="#074164" d="M500.619,492.696c-4.306,0-8.61-1.635-11.886-4.911c-6.55-6.555-6.55-17.215-0.002-23.768l12.304-12.302
			c0.862-0.858,2.261-0.858,3.119,0.002c0.862,0.86,0.862,2.259,0,3.121l-12.302,12.298c-4.83,4.832-4.83,12.695,0,17.527
			c4.834,4.828,12.697,4.833,17.529-0.002l21.74-21.739c0.862-0.862,2.259-0.862,3.119-0.003c0.861,0.863,0.861,2.26,0,3.122
			l-21.74,21.741C509.226,491.058,504.923,492.696,500.619,492.696L500.619,492.696z"/>
	</g>
	<g>
		<path fill="#074164" d="M517.457,469.317c-0.563,0-1.131-0.215-1.56-0.646c-0.862-0.863-0.862-2.26,0-3.122l9.951-9.953
			c1.504-1.504,2.333-3.497,2.333-5.617s-0.827-4.113-2.331-5.612c-3-3.003-8.229-3.001-11.227-0.002l-9.961,9.96
			c-0.862,0.858-2.256,0.858-3.119,0c-0.862-0.862-0.862-2.261,0-3.124l9.956-9.955c2.333-2.333,5.437-3.62,8.736-3.62
			s6.403,1.287,8.736,3.62c2.332,2.332,3.619,5.434,3.619,8.733s-1.287,6.401-3.622,8.738l-9.953,9.951
			C518.587,469.102,518.021,469.317,517.457,469.317L517.457,469.317z"/>
	</g>
	<g>
		<path fill="#074164" d="M501.481,482.762c0,0,0,0-0.002,0c-2.223-0.002-4.31-0.866-5.876-2.435
			c-3.239-3.242-3.239-8.518,0.002-11.762l16.618-16.618c0.863-0.858,2.262-0.86,3.119,0c0.863,0.862,0.863,2.259,0,3.121
			l-16.618,16.616c-1.52,1.523-1.52,3.999,0,5.523c0.735,0.734,1.714,1.139,2.757,1.139l0,0c1.046,0,2.024-0.404,2.762-1.139
			l12.517-12.521c0.862-0.86,2.259-0.862,3.119,0c0.862,0.86,0.862,2.257,0,3.119l-12.517,12.521
			C505.794,481.896,503.707,482.762,501.481,482.762L501.481,482.762z"/>
	</g>
</g>
<g>
	<g>
		<g>
			<polygon fill="#FFFFFF" points="533.494,693.555 533.494,657.401 533.494,639.274 520.506,626.289 484.275,626.289 
				484.275,639.707 484.275,657.401 484.275,693.555 			"/>
			<polygon fill="#15B0BF" points="520.506,639.274 533.494,639.274 520.506,626.289 			"/>
			<polygon fill="#D1ECFB" points="533.494,639.277 520.506,639.277 533.494,652.263 			"/>
			<rect x="493.594" y="641.69" fill="#15B0BF" width="15.062" height="1.229"/>
			<g>
				<rect x="493.594" y="647.74" fill="#A6DAE9" width="30.58" height="1.229"/>
				<rect x="493.594" y="651.602" fill="#A6DAE9" width="30.58" height="1.23"/>
				<rect x="493.594" y="655.465" fill="#A6DAE9" width="30.58" height="1.229"/>
				<rect x="493.594" y="659.328" fill="#A6DAE9" width="30.58" height="1.229"/>
				<rect x="493.594" y="663.188" fill="#A6DAE9" width="30.58" height="1.23"/>
				<rect x="493.594" y="667.051" fill="#A6DAE9" width="30.58" height="1.23"/>
				<rect x="493.594" y="670.914" fill="#A6DAE9" width="30.58" height="1.229"/>
			</g>
			<g>
				<path fill="#FFFFFF" d="M512.089,685.208c-0.009,0-0.017,0-0.024-0.002c-0.306-0.051-0.447-0.415-0.535-0.726
					c-0.266-0.932-0.118-1.942,0.395-2.756c-0.089-0.278-0.202-0.551-0.347-0.807c-0.082-0.145-0.031-0.327,0.114-0.41
					c0.143-0.082,0.327-0.027,0.408,0.114c0.1,0.176,0.187,0.36,0.262,0.549c0.546-0.552,1.269-0.863,2.034-0.863
					c0.986,0,1.905,0.892,2.438,1.725c0.021,0.033,0.042,0.066,0.062,0.1c0.923-0.615,2.153-1.093,2.821-1.005
					c0.88,0.104,0.979,0.941,0.988,1.488c0.237-0.323,0.318-0.556,0.377-0.729c0.227-0.657,0.456-0.608,1.925-0.327l0.309,0.059
					c0.162,0.031,0.271,0.188,0.239,0.352c-0.032,0.163-0.179,0.274-0.352,0.239l-0.311-0.061c-0.648-0.124-1.12-0.214-1.222-0.185
					c-0.097,0.334-0.209,0.663-0.562,1.111c-0.241,0.308-0.465,0.564-0.736,0.459c-0.272-0.096-0.269-0.384-0.267-0.719
					c0.005-0.688-0.065-1.046-0.458-1.094c-0.61-0.063-1.694,0.417-2.471,0.945c0.239,0.545,0.341,1.107,0.086,1.448
					c-0.107,0.143-0.362,0.357-0.903,0.206c-0.726-0.209-0.684-0.717-0.652-0.868c0.06-0.305,0.33-0.64,0.707-0.958
					c-0.025-0.046-0.055-0.094-0.084-0.139c-0.425-0.668-1.188-1.446-1.932-1.446c-0.715,0-1.359,0.326-1.817,0.922
					c0.353,1.345,0.224,2.742-0.074,3.166C512.443,685.086,512.212,685.208,512.089,685.208L512.089,685.208z M512.135,682.682
					c-0.168,0.524-0.183,1.096-0.029,1.633c0.004,0.017,0.009,0.03,0.012,0.043C512.193,683.995,512.227,683.371,512.135,682.682
					L512.135,682.682z M516.683,683.048c-0.216,0.195-0.362,0.378-0.39,0.523c-0.007,0.03-0.021,0.101,0.23,0.173
					c0.167,0.049,0.244,0.027,0.258,0.012C516.834,683.686,516.829,683.429,516.683,683.048L516.683,683.048z"/>
			</g>
			<g>
				<g>
					<path fill="#1B5E8F" d="M496.373,684.525c-1.681,0-3.049-1.369-3.049-3.049c0-1.681,1.368-3.048,3.049-3.048
						c1.68,0,3.046,1.367,3.046,3.048C499.419,683.156,498.053,684.525,496.373,684.525L496.373,684.525z M496.373,679.564
						c-1.056,0-1.915,0.857-1.915,1.912c0,1.057,0.859,1.914,1.915,1.914c1.054,0,1.913-0.857,1.913-1.914
						C498.286,680.422,497.427,679.564,496.373,679.564L496.373,679.564z"/>
				</g>
				<g>
					<path fill="#1B5E8F" d="M495.55,684.582c-0.172,0-0.338-0.079-0.447-0.22l-0.429-0.548l-0.651-0.237
						c-0.218-0.079-0.366-0.281-0.374-0.514l-0.024-0.694l-0.389-0.574c-0.129-0.193-0.129-0.445,0.001-0.637l0.39-0.574
						l0.024-0.694c0.008-0.232,0.157-0.437,0.375-0.516l0.65-0.231l0.425-0.549c0.144-0.185,0.387-0.256,0.606-0.196l0.665,0.193
						l0.664-0.193c0.222-0.06,0.464,0.012,0.606,0.196l0.426,0.549l0.652,0.237c0.219,0.079,0.368,0.283,0.375,0.515l0.021,0.69
						l0.39,0.573c0.13,0.191,0.131,0.443,0,0.637l-0.39,0.574l-0.021,0.692c-0.007,0.232-0.156,0.438-0.375,0.517l-0.654,0.236
						l-0.424,0.548c-0.143,0.183-0.385,0.264-0.606,0.197l-0.664-0.193l-0.665,0.193
						C495.657,684.573,495.603,684.582,495.55,684.582L495.55,684.582z M494.77,682.642l0.445,0.162
						c0.1,0.035,0.188,0.1,0.254,0.185l0.292,0.374l0.454-0.132c0.104-0.028,0.212-0.028,0.316,0l0.452,0.132l0.289-0.374
						c0.066-0.085,0.155-0.149,0.256-0.187l0.446-0.16l0.015-0.471c0.003-0.107,0.037-0.211,0.097-0.301l0.267-0.394l-0.266-0.391
						c-0.061-0.088-0.094-0.193-0.098-0.3l-0.015-0.472l-0.444-0.161c-0.101-0.035-0.19-0.101-0.256-0.185l-0.291-0.375
						l-0.452,0.132c-0.104,0.028-0.213,0.028-0.316,0l-0.453-0.132l-0.291,0.375c-0.067,0.084-0.156,0.149-0.256,0.186l-0.443,0.158
						l-0.017,0.474c-0.003,0.106-0.038,0.21-0.098,0.298l-0.266,0.393l0.266,0.392c0.06,0.09,0.093,0.191,0.097,0.299
						L494.77,682.642L494.77,682.642z"/>
				</g>
				<g>
					<g>
						<path fill="#1B5E8F" d="M498.263,686.052c-0.173,0-0.343-0.079-0.455-0.228l-0.943-1.258
							c-0.188-0.252-0.137-0.606,0.113-0.795c0.253-0.189,0.606-0.135,0.793,0.113l0.944,1.258c0.188,0.252,0.137,0.606-0.113,0.795
							C498.5,686.015,498.381,686.052,498.263,686.052L498.263,686.052z"/>
					</g>
					<g>
						<path fill="#1B5E8F" d="M494.481,686.052c-0.118,0-0.237-0.037-0.34-0.114c-0.25-0.188-0.3-0.543-0.112-0.795l0.945-1.258
							c0.188-0.248,0.539-0.305,0.794-0.113c0.25,0.188,0.301,0.543,0.113,0.795l-0.946,1.258
							C494.824,685.973,494.653,686.052,494.481,686.052L494.481,686.052z"/>
					</g>
				</g>
			</g>
			<g>
				<path fill="#D1ECFB" d="M539.25,687.688c1.627,0.506,2.896,2.89,3.101,5.867h0.386l0.002-0.039l-0.002-6.422
					c-0.251-0.077-0.436-0.308-0.436-0.587c0-0.341,0.278-0.619,0.619-0.619s0.619,0.278,0.619,0.619c0,0.277-0.183,0.51-0.436,0.59
					v6.419v0.039l0.389-0.002c0.202-2.976,1.473-5.359,3.1-5.865c-0.264-0.998-0.467-2.112-0.585-3.293
					c-0.116-1.175-0.135-2.296-0.077-3.318c-0.917,0.147-1.933,0.231-3.009,0.229c-1.074,0-2.092-0.081-3.009-0.229
					c0.06,1.022,0.04,2.144-0.078,3.318C539.716,685.575,539.514,686.689,539.25,687.688z"/>
				<path fill="#1695A4" d="M545.493,652.291c-0.001-5.705-5.146-5.705-5.146,0.003c-0.128,9.593-0.256,19.189-0.388,28.782
					c1.975,0,3.949,0,5.923,0C545.751,671.483,545.623,661.887,545.493,652.291z"/>
				<rect x="539.856" y="681.068" fill="#C2D64C" width="6.128" height="0.9"/>
				<path fill="#C2D64C" d="M546.609,659.4v-21.178c0-1.641-1.208-2.97-2.696-2.97h-1.853c-1.489,0-2.694,1.329-2.694,2.972V659.4
					H546.609z"/>
				<path fill="#1695A4" d="M537.322,654.368v2.759c0.863-0.277,1.562-1.117,1.562-1.88S538.185,654.09,537.322,654.368z"/>
				<g>
					<path fill="#1695A4" d="M537.879,656.15c-0.309,0-0.557-0.25-0.557-0.559v-14.581c0-1.332,1.083-2.415,2.413-2.415h7.244
						c0.31,0,0.558,0.25,0.558,0.559c0,0.307-0.248,0.556-0.558,0.556h-7.244c-0.717,0-1.301,0.584-1.301,1.301v14.581
						C538.435,655.9,538.185,656.15,537.879,656.15L537.879,656.15z"/>
				</g>
			</g>
		</g>
	</g>
</g>
</svg>
