<?xml version="1.0" encoding="utf-8"?>
<!-- Generator: Adobe Illustrator 16.0.3, SVG Export Plug-In . SVG Version: 6.00 Build 0)  -->
<!DOCTYPE svg PUBLIC "-//W3C//DTD SVG 1.1//EN" "http://www.w3.org/Graphics/SVG/1.1/DTD/svg11.dtd">
<svg version="1.1" id="Layer_1" xmlns="http://www.w3.org/2000/svg" xmlns:xlink="http://www.w3.org/1999/xlink" x="0px" y="0px"
	 width="2048px" height="1000px" viewBox="0 0 2048 1000" enable-background="new 0 0 2048 1000" xml:space="preserve">
<rect x="-1" y="-1" opacity="0.5" fill="#B9E5FB" width="2048" height="1000"/>
<g>
	<g>
		<path fill="#333333" d="M1421.486,29.338h5.921c4.401,0,6.302,3.201,6.302,7.142s-1.9,7.142-6.302,7.142h-5.921V29.338z
			 M1423.986,41.581h2.461c3.921,0,4.761-2.22,4.761-5.101c0-2.88-0.84-5.101-4.761-5.101h-2.461V41.581z"/>
		<path fill="#333333" d="M1437.387,39.041c0,1.621,0.88,3.061,2.78,3.061c1.341,0,2.12-0.58,2.521-1.72h2.16
			c-0.48,2.261-2.439,3.521-4.681,3.521c-3.261,0-5.062-2.241-5.062-5.441c0-2.94,1.921-5.461,5.002-5.461
			c3.26,0,5.261,2.94,4.881,6.041H1437.387z M1442.707,37.541c-0.1-1.44-1.039-2.741-2.6-2.741c-1.58,0-2.661,1.2-2.721,2.741
			H1442.707z"/>
		<path fill="#333333" d="M1448.446,40.301c0.14,1.34,1.12,1.8,2.341,1.8c0.88,0,2.36-0.18,2.301-1.36
			c-0.061-1.2-1.721-1.34-3.381-1.72c-1.681-0.36-3.32-0.96-3.32-3.061c0-2.26,2.439-2.96,4.32-2.96c2.121,0,4.061,0.86,4.32,3.181
			h-2.38c-0.22-1.101-1.08-1.38-2.101-1.38c-0.66,0-1.881,0.16-1.881,1.06c0,1.12,1.681,1.3,3.361,1.661
			c1.66,0.38,3.341,0.98,3.341,3.021c0,2.46-2.481,3.361-4.621,3.361c-2.62,0-4.521-1.161-4.581-3.601H1448.446z"/>
		<path fill="#333333" d="M1457.166,29.338h2.28v2.161h-2.28V29.338z M1457.166,33.279h2.28v10.342h-2.28V33.279z"/>
		<path fill="#333333" d="M1471.488,43.082c0,3.121-1.801,4.641-5.082,4.641c-2.08,0-4.4-0.8-4.621-3.221h2.281
			c0.279,1.3,1.32,1.52,2.48,1.52c1.84,0,2.66-0.94,2.66-2.641v-1.58h-0.039c-0.641,1.14-1.82,1.82-3.102,1.82
			c-3.28,0-4.641-2.48-4.641-5.441c0-2.78,1.74-5.181,4.682-5.181c1.3,0,2.48,0.52,3.061,1.7h0.039v-1.42h2.281V43.082z
			 M1469.207,38.22c0-1.78-0.8-3.42-2.78-3.42c-2.021,0-2.721,1.88-2.721,3.601c0,1.681,0.82,3.421,2.721,3.421
			C1468.447,41.821,1469.207,40.001,1469.207,38.22z"/>
		<path fill="#333333" d="M1473.785,33.279h2.161V34.8l0.04,0.04c0.7-1.14,1.86-1.84,3.221-1.84c2.26,0,3.66,1.18,3.66,3.521v7.102
			h-2.279V37.12c-0.061-1.62-0.66-2.32-2.021-2.32c-1.52,0-2.5,1.2-2.5,2.721v6.101h-2.281V33.279z"/>
		<path fill="#333333" d="M1491.146,29.338h6.82c3.141,0,4.722,1.44,4.722,3.861c0,2.741-1.88,3.441-2.36,3.601v0.04
			c0.859,0.1,2.12,0.78,2.12,3.021c0,1.68,0.24,3.181,0.78,3.761h-2.681c-0.38-0.62-0.38-1.4-0.38-2.101
			c0-2.621-0.541-3.781-2.841-3.781h-3.681v5.881h-2.5V29.338z M1493.646,35.84h4.101c1.601,0,2.44-0.76,2.44-2.28
			c0-1.84-1.18-2.181-2.48-2.181h-4.061V35.84z"/>
		<path fill="#333333" d="M1506.686,39.041c0,1.621,0.881,3.061,2.781,3.061c1.34,0,2.121-0.58,2.521-1.72h2.161
			c-0.48,2.261-2.441,3.521-4.682,3.521c-3.261,0-5.061-2.241-5.061-5.441c0-2.94,1.92-5.461,5-5.461
			c3.262,0,5.262,2.94,4.881,6.041H1506.686z M1512.008,37.541c-0.101-1.44-1.041-2.741-2.602-2.741c-1.58,0-2.66,1.2-2.721,2.741
			H1512.008z"/>
		<path fill="#333333" d="M1515.006,33.279h2.48l2.621,7.942h0.039l2.521-7.942h2.359l-3.7,10.342h-2.561L1515.006,33.279z"/>
		<path fill="#333333" d="M1526.466,29.338h2.28v2.161h-2.28V29.338z M1526.466,33.279h2.28v10.342h-2.28V33.279z"/>
		<path fill="#333333" d="M1533.006,39.041c0,1.621,0.881,3.061,2.781,3.061c1.34,0,2.12-0.58,2.52-1.72h2.161
			c-0.48,2.261-2.44,3.521-4.681,3.521c-3.262,0-5.062-2.241-5.062-5.441c0-2.94,1.921-5.461,5.001-5.461
			c3.261,0,5.262,2.94,4.881,6.041H1533.006z M1538.327,37.541c-0.101-1.44-1.04-2.741-2.601-2.741c-1.58,0-2.66,1.2-2.721,2.741
			H1538.327z"/>
		<path fill="#333333" d="M1541.406,33.279h2.42l2.021,7.722h0.04l1.94-7.722h2.3l1.861,7.722h0.039l2.102-7.722h2.32l-3.241,10.342
			h-2.341l-1.92-7.682h-0.04l-1.9,7.682h-2.4L1541.406,33.279z"/>
		<path fill="#333333" d="M1559.626,40.301c0.14,1.34,1.12,1.8,2.341,1.8c0.88,0,2.36-0.18,2.301-1.36
			c-0.061-1.2-1.721-1.34-3.381-1.72c-1.681-0.36-3.32-0.96-3.32-3.061c0-2.26,2.439-2.96,4.32-2.96c2.121,0,4.061,0.86,4.32,3.181
			h-2.38c-0.22-1.101-1.08-1.38-2.101-1.38c-0.66,0-1.881,0.16-1.881,1.06c0,1.12,1.681,1.3,3.361,1.661
			c1.66,0.38,3.341,0.98,3.341,3.021c0,2.46-2.481,3.361-4.621,3.361c-2.62,0-4.521-1.161-4.581-3.601H1559.626z"/>
	</g>
</g>
<g>
	<g>
		<path fill="#333333" d="M1658.852,38.559c0,2.181,1.62,3.061,3.62,3.061c2.2,0,3.021-1.101,3.021-2.161c0-1.1-0.6-1.541-1.18-1.76
			c-1.021-0.38-2.281-0.64-4.262-1.18c-2.46-0.64-3.16-2.141-3.16-3.621c0-2.88,2.641-4.201,5.221-4.201
			c2.961,0,5.481,1.58,5.481,4.561h-2.501c-0.139-1.84-1.34-2.521-3.08-2.521c-1.16,0-2.621,0.42-2.621,1.86
			c0,1.02,0.681,1.54,1.701,1.84c0.22,0.06,3.381,0.88,4.121,1.1c1.859,0.58,2.78,2.121,2.78,3.641c0,3.201-2.86,4.481-5.681,4.481
			c-3.262,0-5.902-1.56-5.962-5.101H1658.852z"/>
		<path fill="#333333" d="M1668.811,32.978h1.721v-3.101h2.279v3.101h2.061v1.701h-2.061V40.2c0,0.94,0.08,1.42,1.102,1.42
			c0.319,0,0.64,0,0.959-0.08v1.76c-0.5,0.06-0.979,0.12-1.479,0.12c-2.401,0-2.801-0.92-2.86-2.641v-6.101h-1.721V32.978z"/>
		<path fill="#333333" d="M1678.291,38.739c0,1.621,0.88,3.061,2.78,3.061c1.341,0,2.12-0.58,2.521-1.72h2.16
			c-0.48,2.261-2.439,3.521-4.681,3.521c-3.261,0-5.062-2.241-5.062-5.441c0-2.94,1.921-5.461,5.002-5.461
			c3.26,0,5.261,2.94,4.881,6.041H1678.291z M1683.611,37.239c-0.1-1.44-1.039-2.741-2.6-2.741c-1.58,0-2.661,1.2-2.721,2.741
			H1683.611z"/>
		<path fill="#333333" d="M1687.69,32.978h2.161v1.4h0.039c0.641-1.2,1.861-1.68,3.201-1.68c3.26,0,4.841,2.46,4.841,5.501
			c0,2.801-1.421,5.401-4.461,5.401c-1.32,0-2.761-0.48-3.461-1.621h-0.04v5.161h-2.28V32.978z M1692.791,34.499
			c-1.92,0-2.9,1.44-2.9,3.661c0,2.081,1.061,3.641,2.9,3.641c2.081,0,2.861-1.84,2.861-3.641
			C1695.652,36.299,1694.672,34.499,1692.791,34.499z"/>
		<path fill="#333333" d="M1701.57,40c0.141,1.34,1.121,1.8,2.341,1.8c0.88,0,2.36-0.18,2.3-1.36c-0.06-1.2-1.72-1.34-3.381-1.72
			c-1.68-0.36-3.32-0.96-3.32-3.061c0-2.26,2.441-2.96,4.321-2.96c2.12,0,4.062,0.86,4.321,3.181h-2.381
			c-0.221-1.101-1.08-1.38-2.101-1.38c-0.66,0-1.88,0.16-1.88,1.06c0,1.12,1.68,1.3,3.36,1.661c1.66,0.38,3.341,0.98,3.341,3.021
			c0,2.46-2.48,3.361-4.621,3.361c-2.621,0-4.521-1.161-4.581-3.601H1701.57z"/>
		<path fill="#333333" d="M1715.311,38.139c0-3.141,1.92-5.441,5.221-5.441s5.221,2.3,5.221,5.441c0,3.181-1.92,5.461-5.221,5.461
			S1715.311,41.32,1715.311,38.139z M1723.472,38.139c0-1.78-0.899-3.641-2.94-3.641s-2.941,1.86-2.941,3.641
			c0,1.8,0.9,3.661,2.941,3.661S1723.472,39.939,1723.472,38.139z"/>
		<path fill="#333333" d="M1734.631,36.439c-0.18-1.28-1.08-1.94-2.359-1.94c-1.181,0-2.842,0.64-2.842,3.761
			c0,1.72,0.761,3.541,2.741,3.541c1.341,0,2.241-0.86,2.46-2.36h2.281c-0.42,2.701-2.08,4.161-4.741,4.161
			c-3.241,0-5.021-2.301-5.021-5.341c0-3.121,1.699-5.561,5.101-5.561c2.4,0,4.44,1.2,4.661,3.741H1734.631z"/>
		<path fill="#333333" d="M1745.752,36.439c-0.18-1.28-1.08-1.94-2.361-1.94c-1.18,0-2.84,0.64-2.84,3.761
			c0,1.72,0.76,3.541,2.74,3.541c1.34,0,2.24-0.86,2.461-2.36h2.28c-0.421,2.701-2.081,4.161-4.741,4.161
			c-3.24,0-5.021-2.301-5.021-5.341c0-3.121,1.701-5.561,5.102-5.561c2.4,0,4.441,1.2,4.661,3.741H1745.752z"/>
		<path fill="#333333" d="M1758.973,43.32h-2.241v-1.44h-0.04c-0.561,1.041-1.801,1.721-2.94,1.721c-2.721,0-3.86-1.34-3.86-4.061
			v-6.562h2.28v6.341c0,1.82,0.72,2.48,1.979,2.48c1.9,0,2.541-1.22,2.541-2.82v-6.001h2.281V43.32z"/>
		<path fill="#333333" d="M1761.37,32.978h2.141v2h0.04c0.26-1.1,1.641-2.28,3.021-2.28c0.54,0,0.64,0.04,0.86,0.06v2.201
			c-0.32-0.06-0.66-0.1-0.98-0.1c-1.54,0-2.801,1.24-2.801,3.541v4.921h-2.28V32.978z"/>
		<path fill="#333333" d="M1774.029,29.037h2.281v2.161h-2.281V29.037z M1774.029,32.978h2.281V43.32h-2.281V32.978z"/>
		<path fill="#333333" d="M1777.75,32.978h1.72v-3.101h2.28v3.101h2.061v1.701h-2.061V40.2c0,0.94,0.08,1.42,1.101,1.42
			c0.319,0,0.64,0,0.96-0.08v1.76c-0.5,0.06-0.98,0.12-1.48,0.12c-2.4,0-2.801-0.92-2.86-2.641v-6.101h-1.72V32.978z"/>
		<path fill="#333333" d="M1787.229,38.739c0,1.621,0.88,3.061,2.78,3.061c1.341,0,2.121-0.58,2.521-1.72h2.16
			c-0.48,2.261-2.441,3.521-4.682,3.521c-3.26,0-5.061-2.241-5.061-5.441c0-2.94,1.92-5.461,5.001-5.461
			c3.261,0,5.261,2.94,4.881,6.041H1787.229z M1792.551,37.239c-0.1-1.44-1.04-2.741-2.601-2.741c-1.58,0-2.661,1.2-2.721,2.741
			H1792.551z"/>
		<path fill="#333333" d="M1796.569,32.978h2.141v2h0.04c0.26-1.1,1.641-2.28,3.021-2.28c0.54,0,0.64,0.04,0.86,0.06v2.201
			c-0.32-0.06-0.66-0.1-0.98-0.1c-1.54,0-2.801,1.24-2.801,3.541v4.921h-2.28V32.978z"/>
		<path fill="#333333" d="M1812.271,41.02c0,0.56,0.119,0.78,0.539,0.78h0.24c0.1,0,0.2-0.02,0.32-0.04v1.581
			c-0.34,0.12-1.061,0.26-1.44,0.26c-0.94,0-1.58-0.32-1.761-1.26c-0.9,0.88-2.359,1.26-3.58,1.26c-1.861,0-3.541-1-3.541-3.021
			c0-2.581,2.061-3,3.98-3.221c1.66-0.32,3.102-0.1,3.102-1.46c0-1.201-1.24-1.4-2.141-1.4c-1.281,0-2.181,0.52-2.281,1.64h-2.28
			c0.16-2.661,2.401-3.44,4.701-3.44c2.021,0,4.142,0.82,4.142,3V41.02z M1809.99,38.139c-0.7,0.46-1.78,0.44-2.801,0.62
			c-0.98,0.16-1.86,0.52-1.86,1.72c0,1.041,1.3,1.32,2.101,1.32c1,0,2.561-0.52,2.561-1.96V38.139z"/>
		<path fill="#333333" d="M1813.689,32.978h1.72v-3.101h2.28v3.101h2.061v1.701h-2.061V40.2c0,0.94,0.08,1.42,1.101,1.42
			c0.319,0,0.64,0,0.96-0.08v1.76c-0.5,0.06-0.98,0.12-1.48,0.12c-2.4,0-2.801-0.92-2.86-2.641v-6.101h-1.72V32.978z"/>
		<path fill="#333333" d="M1821.449,29.037h2.279v2.161h-2.279V29.037z M1821.449,32.978h2.279V43.32h-2.279V32.978z"/>
		<path fill="#333333" d="M1825.188,32.978h2.48l2.62,7.942h0.041l2.52-7.942h2.361l-3.701,10.342h-2.561L1825.188,32.978z"/>
		<path fill="#333333" d="M1838.369,38.739c0,1.621,0.88,3.061,2.78,3.061c1.341,0,2.12-0.58,2.521-1.72h2.16
			c-0.48,2.261-2.439,3.521-4.681,3.521c-3.261,0-5.062-2.241-5.062-5.441c0-2.94,1.921-5.461,5.002-5.461
			c3.26,0,5.261,2.94,4.881,6.041H1838.369z M1843.689,37.239c-0.1-1.44-1.039-2.741-2.6-2.741c-1.58,0-2.661,1.2-2.721,2.741
			H1843.689z"/>
		<path fill="#333333" d="M1847.769,29.037h2.28V43.32h-2.28V29.037z"/>
		<path fill="#333333" d="M1851.389,32.978h2.5l2.701,7.722h0.039l2.621-7.722h2.381l-4.021,10.902
			c-0.74,1.86-1.26,3.541-3.66,3.541c-0.541,0-1.061-0.04-1.581-0.12v-1.92c0.38,0.06,0.7,0.14,1.081,0.14
			c1.039,0,1.34-0.561,1.6-1.44l0.26-0.8L1851.389,32.978z"/>
		<path fill="#333333" d="M1867.528,32.978h2.421l2.02,7.722h0.041l1.939-7.722h2.301l1.86,7.722h0.04l2.101-7.722h2.32
			l-3.241,10.342h-2.34l-1.92-7.682h-0.041l-1.9,7.682h-2.4L1867.528,32.978z"/>
		<path fill="#333333" d="M1884.088,29.037h2.281v2.161h-2.281V29.037z M1884.088,32.978h2.281V43.32h-2.281V32.978z"/>
		<path fill="#333333" d="M1887.809,32.978h1.72v-3.101h2.28v3.101h2.061v1.701h-2.061V40.2c0,0.94,0.08,1.42,1.101,1.42
			c0.319,0,0.64,0,0.96-0.08v1.76c-0.5,0.06-0.98,0.12-1.48,0.12c-2.4,0-2.801-0.92-2.86-2.641v-6.101h-1.72V32.978z"/>
		<path fill="#333333" d="M1895.508,29.037h2.281v5.301h0.039c0.561-0.94,1.74-1.64,3.102-1.64c2.26,0,3.66,1.18,3.66,3.521v7.102
			h-2.281v-6.501c-0.059-1.62-0.659-2.32-2.02-2.32c-1.521,0-2.5,1.2-2.5,2.721v6.101h-2.281V29.037z"/>
		<path fill="#333333" d="M1907.048,29.037h2.28v2.161h-2.28V29.037z M1907.048,32.978h2.28V43.32h-2.28V32.978z"/>
		<path fill="#333333" d="M1911.808,32.978h2.161v1.521l0.039,0.04c0.701-1.14,1.861-1.84,3.221-1.84
			c2.261,0,3.661,1.18,3.661,3.521v7.102h-2.28v-6.501c-0.061-1.62-0.66-2.32-2.021-2.32c-1.521,0-2.501,1.2-2.501,2.721v6.101
			h-2.28V32.978z"/>
		<path fill="#333333" d="M1927.808,32.978h1.72v-3.101h2.281v3.101h2.061v1.701h-2.061V40.2c0,0.94,0.08,1.42,1.1,1.42
			c0.32,0,0.641,0,0.961-0.08v1.76c-0.5,0.06-0.98,0.12-1.48,0.12c-2.4,0-2.801-0.92-2.861-2.641v-6.101h-1.72V32.978z"/>
		<path fill="#333333" d="M1935.508,29.037h2.28v5.301h0.04c0.561-0.94,1.74-1.64,3.101-1.64c2.261,0,3.661,1.18,3.661,3.521v7.102
			h-2.281v-6.501c-0.06-1.62-0.66-2.32-2.02-2.32c-1.521,0-2.501,1.2-2.501,2.721v6.101h-2.28V29.037z"/>
		<path fill="#333333" d="M1947.047,29.037h2.281v2.161h-2.281V29.037z M1947.047,32.978h2.281V43.32h-2.281V32.978z"/>
		<path fill="#333333" d="M1953.527,40c0.141,1.34,1.121,1.8,2.341,1.8c0.88,0,2.36-0.18,2.3-1.36c-0.06-1.2-1.72-1.34-3.381-1.72
			c-1.68-0.36-3.32-0.96-3.32-3.061c0-2.26,2.441-2.96,4.321-2.96c2.12,0,4.062,0.86,4.321,3.181h-2.381
			c-0.221-1.101-1.08-1.38-2.101-1.38c-0.66,0-1.88,0.16-1.88,1.06c0,1.12,1.68,1.3,3.36,1.661c1.66,0.38,3.341,0.98,3.341,3.021
			c0,2.46-2.48,3.361-4.621,3.361c-2.621,0-4.521-1.161-4.581-3.601H1953.527z"/>
		<path fill="#333333" d="M1966.727,32.978h1.701v-0.86c0-2.641,1.38-3.081,2.86-3.081c0.739,0,1.261,0.04,1.601,0.14v1.78
			c-0.301-0.08-0.601-0.12-1.061-0.12c-0.62,0-1.121,0.22-1.121,1.08v1.06h1.941v1.701h-1.941v8.642h-2.279v-8.642h-1.701V32.978z
			 M1974.108,29.037h2.28V43.32h-2.28V29.037z"/>
		<path fill="#333333" d="M1978.387,38.139c0-3.141,1.921-5.441,5.222-5.441s5.222,2.3,5.222,5.441c0,3.181-1.921,5.461-5.222,5.461
			S1978.387,41.32,1978.387,38.139z M1986.549,38.139c0-1.78-0.9-3.641-2.94-3.641s-2.94,1.86-2.94,3.641
			c0,1.8,0.9,3.661,2.94,3.661S1986.549,39.939,1986.549,38.139z"/>
		<path fill="#333333" d="M1989.787,32.978h2.42l2.021,7.722h0.039l1.941-7.722h2.3l1.86,7.722h0.04l2.101-7.722h2.32l-3.24,10.342
			h-2.341l-1.921-7.682h-0.039l-1.9,7.682h-2.4L1989.787,32.978z"/>
	</g>
</g>
<g>
	<path fill="#1695A4" d="M1647.312,27.068c-0.179-0.178-0.391-0.267-0.634-0.267s-0.454,0.089-0.633,0.267l-1.828,1.814
		c-1.004-0.947-2.153-1.681-3.446-2.201c-1.294-0.52-2.625-0.781-3.995-0.781c-2.579,0-4.829,0.781-6.752,2.342
		c-1.922,1.562-3.188,3.599-3.798,6.112v0.099c0,0.121,0.045,0.227,0.134,0.316s0.195,0.133,0.316,0.133h2.799
		c0.207,0,0.348-0.108,0.422-0.323c0.395-0.938,0.643-1.487,0.746-1.646c0.656-1.07,1.529-1.909,2.617-2.518
		c1.087-0.61,2.26-0.916,3.516-0.916c1.885,0,3.521,0.643,4.909,1.928l-1.941,1.941c-0.178,0.178-0.267,0.389-0.267,0.633
		s0.089,0.455,0.267,0.632c0.178,0.179,0.39,0.268,0.634,0.268h6.301c0.243,0,0.455-0.089,0.634-0.268
		c0.178-0.178,0.268-0.388,0.268-0.632v-6.302C1647.579,27.457,1647.49,27.246,1647.312,27.068L1647.312,27.068z M1647.312,27.068"
		/>
	<path fill="#1695A4" d="M1646.776,38.504h-2.701c-0.206,0-0.347,0.108-0.421,0.323c-0.395,0.938-0.643,1.487-0.746,1.646
		c-0.656,1.069-1.528,1.908-2.616,2.518s-2.26,0.915-3.517,0.915c-0.909,0-1.787-0.169-2.631-0.506
		c-0.844-0.337-1.599-0.816-2.264-1.436l1.928-1.926c0.177-0.179,0.267-0.389,0.267-0.633s-0.09-0.456-0.267-0.634
		c-0.179-0.178-0.39-0.267-0.634-0.267h-6.301c-0.244,0-0.456,0.088-0.635,0.267c-0.178,0.178-0.267,0.39-0.267,0.634v6.301
		c0,0.244,0.089,0.455,0.267,0.633c0.179,0.178,0.391,0.267,0.635,0.267c0.242,0,0.454-0.089,0.632-0.267l1.814-1.815
		c1.004,0.957,2.146,1.693,3.425,2.209c1.281,0.516,2.605,0.773,3.975,0.773c2.569,0,4.812-0.78,6.724-2.342
		c1.912-1.561,3.169-3.598,3.771-6.111c0.009-0.018,0.014-0.052,0.014-0.098c0-0.123-0.045-0.228-0.135-0.316
		C1647.004,38.548,1646.897,38.504,1646.776,38.504L1646.776,38.504z M1646.776,38.504"/>
</g>
<path fill="#E37222" d="M1403.025,48.531c0,0.855-0.564,1.545-1.26,1.545h-2.439v5.796l-5.981-5.796h-15.575
	c-0.697,0-1.26-0.69-1.26-1.545V28.003c0-0.855,0.562-1.546,1.26-1.546h23.996c0.695,0,1.26,0.691,1.26,1.546V48.531z"/>
<path fill="#E37222" d="M1250.683,480.91c0,2.377,1.602,4.299,3.582,4.299h6.943v16.126l17.013-16.126h44.31
	c1.982,0,3.584-1.921,3.584-4.299V423.8c0-2.376-1.602-4.3-3.584-4.3h-68.266c-1.98,0-3.582,1.924-3.582,4.3V480.91z"/>
<g>
	<g>
		
			<line fill="none" stroke="#004C8E" stroke-width="2" stroke-miterlimit="10" x1="559.117" y1="526.763" x2="677.237" y2="526.762"/>
		<g>
			<polygon fill="#004C8E" points="667.295,539.032 665.249,536.833 676.084,526.765 665.249,516.692 667.295,514.495 
				680.491,526.765 			"/>
		</g>
	</g>
</g>
<g>
	<g>
		
			<line fill="none" stroke="#004C8E" stroke-width="2" stroke-miterlimit="10" x1="1227.71" y1="526.763" x2="1345.831" y2="526.762"/>
		<g>
			<polygon fill="#004C8E" points="1335.89,539.032 1333.843,536.833 1344.679,526.765 1333.843,516.692 1335.89,514.495 
				1349.085,526.765 			"/>
		</g>
	</g>
</g>
<g>
	<g>
		
			<line fill="none" stroke="#004C8E" stroke-width="2" stroke-miterlimit="10" x1="1892.58" y1="526.763" x2="2010.701" y2="526.762"/>
		<g>
			<polygon fill="#004C8E" points="2000.76,539.032 1998.713,536.833 2009.549,526.765 1998.713,516.692 2000.76,514.495 
				2013.955,526.765 			"/>
		</g>
	</g>
</g>
<g>
	<polygon fill="#FFFFFF" points="534.867,834.786 534.867,490.501 534.867,317.885 411.182,194.204 66.148,194.204 66.148,321.994 
		66.148,490.501 66.148,834.786 	"/>
	<polygon fill="#9EABB3" points="411.182,317.885 534.867,317.885 411.182,194.204 	"/>
	<polygon fill="#D1ECFB" points="534.867,317.889 411.182,317.889 534.867,441.572 	"/>
</g>
<g>
	<polygon fill="#FFFFFF" points="1193.622,834.786 1193.622,490.502 1193.622,317.885 1069.938,194.204 724.904,194.204 
		724.904,321.994 724.904,490.502 724.904,834.786 	"/>
	<polygon fill="#6A952F" points="1069.938,317.885 1193.622,317.885 1069.938,194.204 	"/>
	<polygon fill="#D1ECFB" points="1193.622,317.889 1069.938,317.889 1193.622,441.573 	"/>
</g>
<g>
	<polygon fill="#FFFFFF" points="1856.569,834.786 1856.569,490.502 1856.569,317.885 1732.885,194.204 1387.852,194.204 
		1387.852,321.994 1387.852,490.502 1387.852,834.786 	"/>
	<polygon fill="#7BB50C" points="1732.885,317.885 1856.569,317.885 1732.885,194.204 	"/>
	<polygon fill="#D1ECFB" points="1856.569,317.889 1732.885,317.889 1856.569,441.573 	"/>
</g>
<g>
	<g>
		<g>
			<path fill="#9EABB3" d="M104.001,344.99h9.855c7.325,0,10.488,5.327,10.488,11.886s-3.163,11.886-10.488,11.886h-9.855V344.99z
				 M108.164,365.367h4.095c6.526,0,7.924-3.696,7.924-8.49s-1.398-8.49-7.924-8.49h-4.095V365.367z"/>
			<path fill="#9EABB3" d="M130.467,361.138c0,2.697,1.465,5.094,4.628,5.094c2.231,0,3.529-0.966,4.195-2.863h3.596
				c-0.799,3.762-4.062,5.86-7.791,5.86c-5.427,0-8.423-3.729-8.423-9.056c0-4.895,3.196-9.09,8.323-9.09
				c5.427,0,8.757,4.895,8.124,10.055H130.467z M139.323,358.641c-0.167-2.397-1.731-4.562-4.329-4.562
				c-2.63,0-4.428,1.998-4.528,4.562H139.323z"/>
			<path fill="#9EABB3" d="M146.113,351.549h3.596v2.331h0.066c1.065-1.998,3.097-2.797,5.327-2.797
				c5.427,0,8.058,4.095,8.058,9.156c0,4.661-2.364,8.99-7.425,8.99c-2.197,0-4.595-0.799-5.76-2.697h-0.067v8.59h-3.795V351.549z
				 M154.603,354.08c-3.196,0-4.828,2.397-4.828,6.093c0,3.462,1.765,6.06,4.828,6.06c3.462,0,4.761-3.063,4.761-6.06
				C159.364,357.076,157.732,354.08,154.603,354.08z"/>
			<path fill="#9EABB3" d="M166.453,344.99h3.795v23.772h-3.795V344.99z"/>
			<path fill="#9EABB3" d="M173.577,360.139c0-5.227,3.196-9.056,8.69-9.056s8.69,3.829,8.69,9.056c0,5.294-3.196,9.09-8.69,9.09
				S173.577,365.433,173.577,360.139z M187.161,360.139c0-2.963-1.498-6.06-4.894-6.06s-4.895,3.097-4.895,6.06
				c0,2.997,1.499,6.093,4.895,6.093S187.161,363.136,187.161,360.139z"/>
			<path fill="#9EABB3" d="M192.219,351.549h4.162l4.495,12.852h0.067l4.361-12.852h3.962l-6.692,18.146
				c-1.232,3.097-2.098,5.893-6.093,5.893c-0.899,0-1.765-0.066-2.63-0.2v-3.196c0.632,0.1,1.165,0.233,1.798,0.233
				c1.731,0,2.23-0.933,2.664-2.397l0.433-1.332L192.219,351.549z"/>
			<path fill="#9EABB3" d="M211.394,351.549h3.596v2.397h0.1c1.166-1.698,2.53-2.864,5.294-2.864c2.098,0,4.062,0.899,4.828,2.864
				c1.298-1.765,2.863-2.864,5.394-2.864c3.629,0,5.76,1.632,5.76,5.793v11.886h-3.796v-10.055c0-2.763-0.166-4.628-3.129-4.628
				c-2.564,0-3.663,1.665-3.663,4.595v10.088h-3.795v-11.054c0-2.397-0.732-3.629-3.03-3.629c-1.964,0-3.762,1.632-3.762,4.461
				v10.222h-3.796V351.549z"/>
			<path fill="#9EABB3" d="M243.319,361.138c0,2.697,1.465,5.094,4.628,5.094c2.231,0,3.529-0.966,4.195-2.863h3.596
				c-0.799,3.762-4.062,5.86-7.791,5.86c-5.427,0-8.423-3.729-8.423-9.056c0-4.895,3.196-9.09,8.323-9.09
				c5.427,0,8.757,4.895,8.124,10.055H243.319z M252.175,358.641c-0.167-2.397-1.731-4.562-4.329-4.562
				c-2.63,0-4.428,1.998-4.528,4.562H252.175z"/>
			<path fill="#9EABB3" d="M258.865,351.549h3.596v2.53l0.067,0.067c1.165-1.898,3.096-3.063,5.36-3.063
				c3.762,0,6.093,1.964,6.093,5.86v11.82h-3.795v-10.821c-0.1-2.697-1.099-3.862-3.363-3.862c-2.53,0-4.162,1.998-4.162,4.528
				v10.155h-3.796V351.549z"/>
			<path fill="#9EABB3" d="M276.242,351.549h2.863v-5.161h3.795v5.161h3.429v2.83H282.9v9.189c0,1.565,0.133,2.364,1.831,2.364
				c0.533,0,1.065,0,1.598-0.133v2.93c-0.832,0.1-1.631,0.2-2.464,0.2c-3.995,0-4.661-1.532-4.761-4.395v-10.155h-2.863V351.549z"/>
		</g>
	</g>
</g>
<g>
	<g>
		<path fill="#9EABB3" d="M109.177,428.018c3.052,0,5.518,2.435,5.518,5.486c0,3.052-2.466,5.518-5.518,5.518
			c-3.051,0-5.486-2.466-5.486-5.518C103.69,430.453,106.125,428.018,109.177,428.018z"/>
		<path fill="#9EABB3" d="M127.861,422.501h7.551c6.781,0,10.572,3.421,10.572,10.479c0,7.367-3.236,11.528-10.572,11.528h-7.551
			V422.501z M130.79,442.042h4.87c2.004,0,7.397-0.555,7.397-8.661c0-5.24-1.941-8.415-7.335-8.415h-4.932V442.042z"/>
		<path fill="#9EABB3" d="M162.727,439.453c-0.709,3.545-3.206,5.425-6.812,5.425c-5.086,0-7.49-3.544-7.645-8.384
			c0-4.808,3.144-8.291,7.49-8.291c5.641,0,7.367,5.271,7.212,9.124h-11.928c-0.093,2.774,1.479,5.24,4.962,5.24
			c2.188,0,3.668-1.017,4.13-3.113H162.727z M160.199,435.015c-0.154-2.497-1.973-4.5-4.593-4.5c-2.712,0-4.408,2.034-4.562,4.5
			H160.199z"/>
		<path fill="#9EABB3" d="M165.781,428.573h2.62v2.158h0.062c0.863-1.757,2.867-2.527,5.086-2.527c4.901,0,7.336,3.884,7.336,8.384
			c0,4.531-2.404,8.291-7.274,8.291c-1.603,0-4.007-0.616-5.147-2.497h-0.062v8.23h-2.62V428.573z M173.179,430.515
			c-3.544,0-4.87,3.052-4.87,6.011c0,3.113,1.417,6.041,5.024,6.041c3.575,0,4.777-3.051,4.777-6.165
			C178.11,433.412,176.569,430.515,173.179,430.515z"/>
		<path fill="#9EABB3" d="M184.125,422.501h2.62v22.007h-2.62V422.501z"/>
		<path fill="#9EABB3" d="M197.688,428.203c5.055,0,7.736,3.668,7.736,8.353c0,4.654-2.682,8.322-7.736,8.322
			c-5.055,0-7.737-3.667-7.737-8.322C189.951,431.871,192.633,428.203,197.688,428.203z M197.688,442.566
			c2.743,0,4.962-2.158,4.962-6.01c0-3.853-2.219-6.042-4.962-6.042s-4.962,2.188-4.962,6.042
			C192.726,440.409,194.945,442.566,197.688,442.566z"/>
		<path fill="#9EABB3" d="M214.768,446.635c-1.233,3.082-2.281,4.253-4.623,4.253c-0.617,0-1.233-0.062-1.819-0.277v-2.404
			c0.493,0.154,1.017,0.37,1.542,0.37c1.079,0,1.664-0.493,2.157-1.449l1.079-2.712l-6.319-15.843h2.959l4.654,13.038h0.062
			l4.469-13.038h2.774L214.768,446.635z"/>
		<path fill="#9EABB3" d="M236.134,428.573h3.175v2.312h-3.175v9.894c0,1.233,0.339,1.418,1.973,1.418h1.202v2.312h-2.004
			c-2.712,0-3.791-0.555-3.791-3.483v-10.141h-2.712v-2.312h2.712v-4.777h2.62V428.573z"/>
		<path fill="#9EABB3" d="M249.081,428.203c5.055,0,7.736,3.668,7.736,8.353c0,4.654-2.682,8.322-7.736,8.322
			s-7.736-3.667-7.736-8.322C241.345,431.871,244.026,428.203,249.081,428.203z M249.081,442.566c2.743,0,4.962-2.158,4.962-6.01
			c0-3.853-2.219-6.042-4.962-6.042s-4.963,2.188-4.963,6.042C244.118,440.409,246.338,442.566,249.081,442.566z"/>
		<path fill="#9EABB3" d="M123.486,465.569h2.62v2.158h0.062c0.863-1.757,2.867-2.527,5.086-2.527c4.901,0,7.336,3.884,7.336,8.384
			c0,4.531-2.404,8.291-7.274,8.291c-1.603,0-4.007-0.616-5.147-2.497h-0.062v8.23h-2.62V465.569z M130.884,467.511
			c-3.544,0-4.87,3.052-4.87,6.011c0,3.113,1.417,6.041,5.024,6.041c3.575,0,4.777-3.051,4.777-6.165
			C135.815,470.408,134.274,467.511,130.884,467.511z"/>
		<path fill="#9EABB3" d="M141.583,465.569h2.466v3.36h0.062c1.264-2.589,3.021-3.822,5.856-3.729v2.774
			c-4.223,0-5.764,2.374-5.764,6.442v7.089h-2.62V465.569z"/>
		<path fill="#9EABB3" d="M165.535,476.449c-0.709,3.545-3.206,5.425-6.812,5.425c-5.085,0-7.49-3.544-7.644-8.384
			c0-4.808,3.144-8.291,7.49-8.291c5.641,0,7.367,5.271,7.212,9.124h-11.928c-0.093,2.774,1.479,5.24,4.962,5.24
			c2.188,0,3.668-1.017,4.13-3.113H165.535z M163.007,472.011c-0.154-2.497-1.973-4.5-4.593-4.5c-2.712,0-4.408,2.034-4.562,4.5
			H163.007z"/>
		<path fill="#9EABB3" d="M168.065,471.703h8.908v2.466h-8.908V471.703z"/>
		<path fill="#9EABB3" d="M180.582,465.569h2.62v2.158h0.062c0.863-1.757,2.867-2.527,5.086-2.527c4.901,0,7.336,3.884,7.336,8.384
			c0,4.531-2.404,8.291-7.274,8.291c-1.603,0-4.007-0.616-5.147-2.497h-0.062v8.23h-2.62V465.569z M187.979,467.511
			c-3.544,0-4.87,3.052-4.87,6.011c0,3.113,1.417,6.041,5.024,6.041c3.575,0,4.777-3.051,4.777-6.165
			C192.911,470.408,191.37,467.511,187.979,467.511z"/>
		<path fill="#9EABB3" d="M198.679,465.569h2.466v3.36h0.062c1.264-2.589,3.021-3.822,5.856-3.729v2.774
			c-4.223,0-5.764,2.374-5.764,6.442v7.089h-2.62V465.569z"/>
		<path fill="#9EABB3" d="M215.911,465.199c5.055,0,7.736,3.668,7.736,8.353c0,4.654-2.682,8.322-7.736,8.322
			c-5.055,0-7.736-3.667-7.736-8.322C208.175,468.867,210.856,465.199,215.911,465.199z M215.911,479.562
			c2.743,0,4.962-2.158,4.962-6.01c0-3.853-2.219-6.042-4.962-6.042s-4.962,2.188-4.962,6.042
			C210.949,477.405,213.168,479.562,215.911,479.562z"/>
		<path fill="#9EABB3" d="M240.974,481.504h-2.62v-2.158h-0.062c-0.863,1.757-2.867,2.527-5.086,2.527
			c-4.901,0-7.335-3.883-7.335-8.384c0-4.5,2.404-8.291,7.274-8.291c1.603,0,4.007,0.616,5.147,2.497h0.062v-8.199h2.62V481.504z
			 M233.577,479.562c3.544,0,4.87-3.051,4.87-6.01c0-3.113-1.417-6.042-5.024-6.042c-3.575,0-4.777,3.052-4.777,6.165
			C228.645,476.665,230.186,479.562,233.577,479.562z"/>
		<path fill="#9EABB3" d="M258.208,481.504h-2.466v-2.527h-0.062c-1.11,1.973-2.867,2.897-5.179,2.897
			c-4.191,0-5.486-2.404-5.486-5.825v-10.48h2.62v10.788c0,1.973,1.232,3.206,3.236,3.206c3.175,0,4.716-2.127,4.716-4.993v-9h2.62
			V481.504z"/>
		<path fill="#9EABB3" d="M272.976,470.686c-0.4-2.003-1.757-3.175-3.945-3.175c-3.791,0-4.962,3.021-4.962,6.227
			c0,2.959,1.325,5.825,4.654,5.825c2.559,0,4.037-1.449,4.377-3.884h2.682c-0.586,3.915-2.99,6.195-7.028,6.195
			c-4.87,0-7.459-3.359-7.459-8.137c0-4.778,2.466-8.538,7.521-8.538c3.638,0,6.474,1.695,6.874,5.486H272.976z"/>
		<path fill="#9EABB3" d="M282.35,465.569h3.175v2.312h-3.175v9.894c0,1.233,0.34,1.418,1.973,1.418h1.202v2.312h-2.003
			c-2.713,0-3.791-0.555-3.791-3.483v-10.141h-2.713v-2.312h2.713v-4.777h2.619V465.569z"/>
		<path fill="#9EABB3" d="M291.198,462.703h-2.62v-3.206h2.62V462.703z M288.578,465.569h2.62v15.936h-2.62V465.569z"/>
		<path fill="#9EABB3" d="M302.141,465.199c5.056,0,7.737,3.668,7.737,8.353c0,4.654-2.682,8.322-7.737,8.322
			c-5.055,0-7.736-3.667-7.736-8.322C294.404,468.867,297.086,465.199,302.141,465.199z M302.141,479.562
			c2.744,0,4.963-2.158,4.963-6.01c0-3.853-2.219-6.042-4.963-6.042c-2.743,0-4.962,2.188-4.962,6.042
			C297.179,477.405,299.397,479.562,302.141,479.562z"/>
		<path fill="#9EABB3" d="M312.964,465.569h2.466v2.528h0.062c1.109-1.973,2.866-2.897,5.179-2.897c4.191,0,5.486,2.404,5.486,5.825
			v10.48h-2.62v-10.788c0-1.973-1.233-3.206-3.236-3.206c-3.175,0-4.716,2.127-4.716,4.993v9h-2.62V465.569z"/>
		<path fill="#9EABB3" d="M136.987,513.445c-0.709,3.545-3.206,5.425-6.812,5.425c-5.085,0-7.49-3.544-7.644-8.384
			c0-4.809,3.144-8.291,7.49-8.291c5.641,0,7.367,5.271,7.212,9.123h-11.928c-0.093,2.774,1.479,5.24,4.962,5.24
			c2.188,0,3.668-1.018,4.13-3.113H136.987z M134.459,509.007c-0.154-2.497-1.973-4.5-4.593-4.5c-2.712,0-4.408,2.034-4.562,4.5
			H134.459z"/>
		<path fill="#9EABB3" d="M139.949,502.564h2.466v2.528h0.062c1.11-1.973,2.867-2.897,5.178-2.897c4.192,0,5.487,2.404,5.487,5.825
			V518.5h-2.62v-10.787c0-1.973-1.233-3.206-3.236-3.206c-3.175,0-4.716,2.127-4.716,4.993v9h-2.62V502.564z"/>
		<path fill="#9EABB3" d="M164.272,518.5h-2.805l-5.918-15.936h2.928l4.469,13.285h0.062l4.346-13.285h2.743L164.272,518.5z"/>
		<path fill="#9EABB3" d="M175.28,499.699h-2.62v-3.206h2.62V499.699z M172.66,502.564h2.62V518.5h-2.62V502.564z"/>
		<path fill="#9EABB3" d="M179.257,502.564h2.466v3.36h0.062c1.264-2.589,3.021-3.822,5.856-3.729v2.773
			c-4.223,0-5.764,2.374-5.764,6.442v7.089h-2.62V502.564z"/>
		<path fill="#9EABB3" d="M196.489,502.195c5.055,0,7.736,3.668,7.736,8.354c0,4.654-2.682,8.321-7.736,8.321
			c-5.055,0-7.736-3.667-7.736-8.321C188.753,505.863,191.434,502.195,196.489,502.195z M196.489,516.559
			c2.743,0,4.962-2.158,4.962-6.01c0-3.854-2.219-6.042-4.962-6.042s-4.962,2.188-4.962,6.042
			C191.527,514.4,193.746,516.559,196.489,516.559z"/>
		<path fill="#9EABB3" d="M207.312,502.564h2.466v2.528h0.062c1.11-1.973,2.867-2.897,5.178-2.897c4.192,0,5.486,2.404,5.486,5.825
			V518.5h-2.62v-10.787c0-1.973-1.233-3.206-3.236-3.206c-3.175,0-4.716,2.127-4.716,4.993v9h-2.62V502.564z"/>
		<path fill="#9EABB3" d="M224.454,502.564h2.466v2.344h0.062c1.202-1.819,2.897-2.713,5.147-2.713c1.973,0,3.729,0.74,4.377,2.713
			c1.079-1.727,2.928-2.713,4.993-2.713c3.175,0,5.301,1.325,5.301,4.623V518.5h-2.62v-10.448c0-1.973-0.523-3.545-3.082-3.545
			c-2.558,0-4.161,1.603-4.161,4.069v9.924h-2.62v-10.448c0-2.065-0.647-3.545-2.99-3.545c-3.083,0-4.253,2.836-4.253,4.069v9.924
			h-2.62V502.564z"/>
		<path fill="#9EABB3" d="M264.345,513.445c-0.709,3.545-3.205,5.425-6.812,5.425c-5.086,0-7.49-3.544-7.645-8.384
			c0-4.809,3.145-8.291,7.49-8.291c5.641,0,7.366,5.271,7.213,9.123h-11.929c-0.093,2.774,1.479,5.24,4.962,5.24
			c2.188,0,3.668-1.018,4.131-3.113H264.345z M261.817,509.007c-0.154-2.497-1.973-4.5-4.593-4.5c-2.712,0-4.407,2.034-4.562,4.5
			H261.817z"/>
		<path fill="#9EABB3" d="M267.308,502.564h2.466v2.528h0.062c1.109-1.973,2.866-2.897,5.179-2.897c4.191,0,5.486,2.404,5.486,5.825
			V518.5h-2.62v-10.787c0-1.973-1.233-3.206-3.236-3.206c-3.175,0-4.716,2.127-4.716,4.993v9h-2.62V502.564z"/>
		<path fill="#9EABB3" d="M288.086,502.564h3.175v2.312h-3.175v9.895c0,1.232,0.34,1.418,1.973,1.418h1.202v2.311h-2.003
			c-2.713,0-3.791-0.555-3.791-3.482v-10.141h-2.713v-2.312h2.713v-4.777h2.619V502.564z"/>
		<path fill="#9EABB3" d="M307.046,524.604c-2.959-4.593-4.84-9.031-4.84-14.426c0-4.838,1.665-9.986,4.84-14.208h2.003
			c-2.959,4.654-4.068,9.185-4.068,14.208c0,5.179,1.141,9.71,4.068,14.426H307.046z"/>
		<path fill="#9EABB3" d="M310.715,502.564h2.466v2.528h0.062c1.109-1.973,2.866-2.897,5.179-2.897c4.191,0,5.486,2.404,5.486,5.825
			V518.5h-2.62v-10.787c0-1.973-1.233-3.206-3.236-3.206c-3.175,0-4.716,2.127-4.716,4.993v9h-2.62V502.564z"/>
		<path fill="#9EABB3" d="M334.729,502.195c5.056,0,7.737,3.668,7.737,8.354c0,4.654-2.682,8.321-7.737,8.321
			c-5.055,0-7.736-3.667-7.736-8.321C326.993,505.863,329.675,502.195,334.729,502.195z M334.729,516.559
			c2.743,0,4.963-2.158,4.963-6.01c0-3.854-2.22-6.042-4.963-6.042s-4.962,2.188-4.962,6.042
			C329.768,514.4,331.986,516.559,334.729,516.559z"/>
		<path fill="#9EABB3" d="M349.189,502.564h3.175v2.312h-3.175v9.895c0,1.232,0.34,1.418,1.973,1.418h1.202v2.311h-2.003
			c-2.713,0-3.791-0.555-3.791-3.482v-10.141h-2.713v-2.312h2.713v-4.777h2.619V502.564z"/>
		<path fill="#9EABB3" d="M366.608,499.699h-2.62v-3.206h2.62V499.699z M363.988,502.564h2.62V518.5h-2.62V502.564z"/>
		<path fill="#9EABB3" d="M370.678,502.564h2.466v2.528h0.062c1.109-1.973,2.866-2.897,5.179-2.897c4.191,0,5.486,2.404,5.486,5.825
			V518.5h-2.62v-10.787c0-1.973-1.233-3.206-3.236-3.206c-3.175,0-4.716,2.127-4.716,4.993v9h-2.62V502.564z"/>
		<path fill="#9EABB3" d="M410.507,518.439c-0.463,0.277-1.11,0.431-1.881,0.431c-1.355,0-2.219-0.739-2.219-2.466
			c-1.449,1.727-3.391,2.466-5.61,2.466c-2.896,0-5.271-1.264-5.271-4.47c0-3.605,2.682-4.407,5.395-4.9
			c2.866-0.586,5.363-0.339,5.363-2.342c0-2.312-1.911-2.651-3.545-2.651c-2.22,0-3.853,0.679-3.977,3.021h-2.62
			c0.154-3.945,3.175-5.332,6.751-5.332c2.866,0,5.979,0.647,5.979,4.377v8.199c0,1.232,0,1.787,0.832,1.787
			c0.246,0,0.524-0.062,0.802-0.154V518.439z M406.253,510.271c-2.034,1.51-7.952,0.03-7.952,3.945c0,1.726,1.479,2.342,3.082,2.342
			c3.452,0,4.87-2.127,4.87-3.606V510.271z"/>
		<path fill="#9EABB3" d="M126.877,541.441h-3.421v-3.422c0-2.435,1.048-4.53,3.391-4.53v1.541c-1.387,0-1.788,1.571-1.788,2.989
			h1.818V541.441z M132.518,541.441h-3.421v-3.422c0-2.435,1.048-4.53,3.391-4.53v1.541c-1.387,0-1.788,1.571-1.788,2.989h1.818
			V541.441z"/>
		<path fill="#9EABB3" d="M136.682,533.489h2.62v22.007h-2.62V533.489z"/>
		<path fill="#9EABB3" d="M146.145,536.695h-2.62v-3.206h2.62V536.695z M143.525,539.561h2.62v15.936h-2.62V539.561z"/>
		<path fill="#9EABB3" d="M157.396,555.496h-2.805l-5.918-15.936h2.928l4.469,13.285h0.062l4.346-13.285h2.743L157.396,555.496z"/>
		<path fill="#9EABB3" d="M179.223,550.441c-0.709,3.545-3.206,5.425-6.812,5.425c-5.086,0-7.49-3.544-7.645-8.384
			c0-4.809,3.144-8.291,7.49-8.291c5.641,0,7.367,5.271,7.212,9.123h-11.928c-0.093,2.774,1.479,5.24,4.962,5.24
			c2.188,0,3.668-1.018,4.13-3.113H179.223z M176.695,546.003c-0.154-2.497-1.973-4.5-4.593-4.5c-2.712,0-4.408,2.034-4.562,4.5
			H176.695z"/>
		<path fill="#9EABB3" d="M203.948,555.496h-2.466v-2.527h-0.062c-1.109,1.973-2.866,2.897-5.178,2.897
			c-4.192,0-5.486-2.403-5.486-5.825v-10.48h2.62v10.789c0,1.973,1.233,3.205,3.236,3.205c3.175,0,4.716-2.127,4.716-4.993v-9.001
			h2.62V555.496z"/>
		<path fill="#9EABB3" d="M209.5,550.473c0.093,2.342,2.158,3.082,4.285,3.082c1.633,0,3.853-0.369,3.853-2.373
			c0-4.1-10.418-1.326-10.418-7.459c0-3.206,3.144-4.531,5.949-4.531c3.576,0,6.288,1.109,6.535,4.993h-2.62
			c-0.154-2.034-2.003-2.682-3.699-2.682c-1.572,0-3.391,0.432-3.391,2.034c0,1.85,2.774,2.22,5.209,2.774
			c2.62,0.585,5.209,1.479,5.209,4.53c0,3.822-3.545,5.024-6.781,5.024c-3.575,0-6.596-1.448-6.75-5.394H209.5z"/>
		<path fill="#9EABB3" d="M236.905,550.441c-0.709,3.545-3.206,5.425-6.812,5.425c-5.086,0-7.49-3.544-7.645-8.384
			c0-4.809,3.144-8.291,7.49-8.291c5.641,0,7.367,5.271,7.212,9.123h-11.928c-0.093,2.774,1.479,5.24,4.962,5.24
			c2.188,0,3.668-1.018,4.13-3.113H236.905z M234.378,546.003c-0.154-2.497-1.973-4.5-4.593-4.5c-2.712,0-4.408,2.034-4.562,4.5
			H234.378z"/>
		<path fill="#9EABB3" d="M239.929,533.489h3.421v3.421c0,2.436-1.048,4.531-3.391,4.531V539.9c1.387,0,1.788-1.572,1.788-2.99
			h-1.819V533.489z M245.57,533.489h3.421v3.421c0,2.436-1.048,4.531-3.391,4.531V539.9c1.387,0,1.788-1.572,1.788-2.99h-1.818
			V533.489z"/>
		<path fill="#9EABB3" d="M263.174,550.473c0.093,2.342,2.158,3.082,4.284,3.082c1.634,0,3.854-0.369,3.854-2.373
			c0-4.1-10.418-1.326-10.418-7.459c0-3.206,3.144-4.531,5.948-4.531c3.575,0,6.288,1.109,6.534,4.993h-2.619
			c-0.154-2.034-2.004-2.682-3.699-2.682c-1.572,0-3.391,0.432-3.391,2.034c0,1.85,2.774,2.22,5.209,2.774
			c2.62,0.585,5.209,1.479,5.209,4.53c0,3.822-3.544,5.024-6.78,5.024c-3.576,0-6.597-1.448-6.751-5.394H263.174z"/>
		<path fill="#9EABB3" d="M290.579,550.441c-0.709,3.545-3.205,5.425-6.812,5.425c-5.086,0-7.49-3.544-7.645-8.384
			c0-4.809,3.145-8.291,7.49-8.291c5.641,0,7.366,5.271,7.213,9.123h-11.929c-0.093,2.774,1.479,5.24,4.962,5.24
			c2.188,0,3.668-1.018,4.131-3.113H290.579z M288.052,546.003c-0.154-2.497-1.973-4.5-4.593-4.5c-2.712,0-4.407,2.034-4.562,4.5
			H288.052z"/>
		<path fill="#9EABB3" d="M297.179,539.561h3.175v2.312h-3.175v9.895c0,1.232,0.34,1.418,1.973,1.418h1.202v2.311h-2.003
			c-2.713,0-3.791-0.555-3.791-3.482v-10.141h-2.713v-2.312h2.713v-4.777h2.619V539.561z"/>
		<path fill="#9EABB3" d="M306.89,539.561h3.175v2.312h-3.175v9.895c0,1.232,0.34,1.418,1.973,1.418h1.202v2.311h-2.003
			c-2.713,0-3.791-0.555-3.791-3.482v-10.141h-2.713v-2.312h2.713v-4.777h2.619V539.561z"/>
		<path fill="#9EABB3" d="M315.738,536.695h-2.62v-3.206h2.62V536.695z M313.118,539.561h2.62v15.936h-2.62V539.561z"/>
		<path fill="#9EABB3" d="M319.808,539.561h2.466v2.528h0.062c1.109-1.973,2.866-2.897,5.179-2.897c4.191,0,5.486,2.404,5.486,5.825
			v10.479h-2.62v-10.787c0-1.973-1.233-3.206-3.236-3.206c-3.175,0-4.716,2.127-4.716,4.993v9h-2.62V539.561z"/>
		<path fill="#9EABB3" d="M350.696,554.141c0,5.209-2.343,7.828-7.397,7.828c-2.99,0-6.442-1.232-6.596-4.685h2.619
			c0.093,1.88,2.436,2.589,4.131,2.589c3.421,0,4.777-2.465,4.777-6.041v-1.048h-0.062c-0.895,1.942-2.929,2.897-4.963,2.897
			c-4.746,0-7.12-3.729-7.12-8.076c0-3.76,1.818-8.414,7.367-8.414c2.003,0,3.791,0.894,4.746,2.65h0.031v-2.281h2.466V554.141z
			 M348.107,547.205c0-2.805-1.233-5.702-4.531-5.702c-3.359,0-4.716,2.743-4.716,5.795c0,2.866,1.048,6.071,4.5,6.071
			S348.107,550.195,348.107,547.205z"/>
		<path fill="#9EABB3" d="M352.364,561.6c2.959-4.654,4.069-9.186,4.069-14.209c0-5.179-1.141-9.709-4.069-14.426h2.004
			c2.959,4.593,4.839,9.031,4.839,14.426c0,4.839-1.664,9.986-4.839,14.209H352.364z"/>
	</g>
</g>
<g>
	<g>
		<g>
			<path fill="#6A952F" d="M763.649,348.704h11.354c5.228,0,7.857,2.397,7.857,6.426c0,4.562-3.129,5.727-3.929,5.993v0.066
				c1.432,0.167,3.529,1.299,3.529,5.028c0,2.797,0.399,5.294,1.299,6.259h-4.462c-0.632-1.032-0.632-2.331-0.632-3.496
				c0-4.361-0.899-6.292-4.728-6.292h-6.126v9.789h-4.162V348.704z M767.812,359.525h6.825c2.664,0,4.062-1.265,4.062-3.795
				c0-3.063-1.964-3.629-4.128-3.629h-6.759V359.525z"/>
			<path fill="#6A952F" d="M789.516,364.852c0,2.697,1.465,5.094,4.628,5.094c2.231,0,3.529-0.966,4.195-2.863h3.596
				c-0.799,3.762-4.062,5.86-7.791,5.86c-5.427,0-8.423-3.729-8.423-9.056c0-4.895,3.196-9.09,8.323-9.09
				c5.427,0,8.757,4.895,8.124,10.055H789.516z M798.373,362.355c-0.167-2.397-1.731-4.562-4.329-4.562
				c-2.63,0-4.428,1.998-4.528,4.562H798.373z"/>
			<path fill="#6A952F" d="M805.162,348.704h3.795v23.772h-3.795V348.704z"/>
			<path fill="#6A952F" d="M816.048,364.852c0,2.697,1.465,5.094,4.628,5.094c2.231,0,3.529-0.966,4.195-2.863h3.596
				c-0.799,3.762-4.062,5.86-7.791,5.86c-5.427,0-8.423-3.729-8.423-9.056c0-4.895,3.196-9.09,8.323-9.09
				c5.427,0,8.757,4.895,8.124,10.055H816.048z M824.905,362.355c-0.167-2.397-1.731-4.562-4.329-4.562
				c-2.63,0-4.428,1.998-4.528,4.562H824.905z"/>
			<path fill="#6A952F" d="M846.011,368.647c0,0.933,0.2,1.299,0.899,1.299h0.399c0.167,0,0.333-0.033,0.533-0.067v2.63
				c-0.566,0.2-1.765,0.433-2.397,0.433c-1.565,0-2.63-0.533-2.93-2.098c-1.499,1.465-3.929,2.098-5.96,2.098
				c-3.096,0-5.893-1.665-5.893-5.028c0-4.295,3.429-4.994,6.625-5.36c2.764-0.533,5.161-0.167,5.161-2.431
				c0-1.998-2.064-2.331-3.562-2.331c-2.131,0-3.629,0.866-3.795,2.73h-3.795c0.266-4.428,3.995-5.727,7.824-5.727
				c3.363,0,6.892,1.365,6.892,4.995V368.647z M842.215,363.853c-1.166,0.766-2.963,0.733-4.661,1.032
				c-1.631,0.267-3.097,0.866-3.097,2.863c0,1.731,2.165,2.198,3.496,2.198c1.665,0,4.262-0.866,4.262-3.263V363.853z"/>
			<path fill="#6A952F" d="M852.967,366.95c0.233,2.23,1.865,2.997,3.896,2.997c1.465,0,3.929-0.3,3.829-2.264
				c-0.1-1.998-2.863-2.231-5.627-2.863c-2.797-0.6-5.527-1.598-5.527-5.094c0-3.762,4.062-4.928,7.192-4.928
				c3.529,0,6.759,1.432,7.191,5.294h-3.962c-0.366-1.831-1.798-2.297-3.496-2.297c-1.099,0-3.13,0.267-3.13,1.765
				c0,1.865,2.797,2.164,5.594,2.764c2.764,0.632,5.56,1.631,5.56,5.027c0,4.095-4.128,5.594-7.691,5.594
				c-4.362,0-7.524-1.931-7.625-5.993H852.967z"/>
			<path fill="#6A952F" d="M870.344,364.852c0,2.697,1.465,5.094,4.628,5.094c2.231,0,3.529-0.966,4.195-2.863h3.596
				c-0.799,3.762-4.062,5.86-7.791,5.86c-5.427,0-8.423-3.729-8.423-9.056c0-4.895,3.196-9.09,8.323-9.09
				c5.427,0,8.757,4.895,8.124,10.055H870.344z M879.201,362.355c-0.167-2.397-1.731-4.562-4.329-4.562
				c-2.63,0-4.428,1.998-4.528,4.562H879.201z"/>
			<path fill="#6A952F" d="M895.677,348.704h11.354c5.228,0,7.857,2.397,7.857,6.426c0,4.562-3.129,5.727-3.929,5.993v0.066
				c1.432,0.167,3.529,1.299,3.529,5.028c0,2.797,0.399,5.294,1.298,6.259h-4.461c-0.632-1.032-0.632-2.331-0.632-3.496
				c0-4.361-0.899-6.292-4.728-6.292h-6.126v9.789h-4.162V348.704z M899.839,359.525h6.825c2.664,0,4.062-1.265,4.062-3.795
				c0-3.063-1.964-3.629-4.128-3.629h-6.759V359.525z"/>
			<path fill="#6A952F" d="M921.544,364.852c0,2.697,1.465,5.094,4.628,5.094c2.231,0,3.529-0.966,4.195-2.863h3.596
				c-0.799,3.762-4.062,5.86-7.791,5.86c-5.427,0-8.423-3.729-8.423-9.056c0-4.895,3.196-9.09,8.323-9.09
				c5.427,0,8.757,4.895,8.124,10.055H921.544z M930.4,362.355c-0.167-2.397-1.731-4.562-4.329-4.562
				c-2.63,0-4.428,1.998-4.528,4.562H930.4z"/>
			<path fill="#6A952F" d="M951.506,368.647c0,0.933,0.2,1.299,0.899,1.299h0.4c0.167,0,0.333-0.033,0.533-0.067v2.63
				c-0.566,0.2-1.765,0.433-2.397,0.433c-1.565,0-2.63-0.533-2.93-2.098c-1.499,1.465-3.929,2.098-5.96,2.098
				c-3.096,0-5.893-1.665-5.893-5.028c0-4.295,3.429-4.994,6.625-5.36c2.764-0.533,5.161-0.167,5.161-2.431
				c0-1.998-2.064-2.331-3.562-2.331c-2.131,0-3.629,0.866-3.795,2.73h-3.795c0.266-4.428,3.995-5.727,7.824-5.727
				c3.363,0,6.892,1.365,6.892,4.995V368.647z M947.711,363.853c-1.165,0.766-2.963,0.733-4.661,1.032
				c-1.631,0.267-3.097,0.866-3.097,2.863c0,1.731,2.165,2.198,3.496,2.198c1.665,0,4.262-0.866,4.262-3.263V363.853z"/>
			<path fill="#6A952F" d="M971.814,372.477h-3.596v-2.331h-0.066c-1.032,1.998-3.163,2.797-5.327,2.797
				c-5.427,0-8.057-4.029-8.057-9.189c0-6.259,3.695-8.957,7.458-8.957c2.131,0,4.561,0.799,5.727,2.697h0.066v-8.79h3.796V372.477z
				 M963.324,369.946c3.363,0,4.828-3.097,4.828-6.093c0-3.829-1.831-6.06-4.761-6.06c-3.562,0-4.828,3.196-4.828,6.26
				C958.562,367.016,960.027,369.946,963.324,369.946z"/>
			<path fill="#6A952F" d="M976.039,348.704h3.795v3.596h-3.795V348.704z M976.039,355.263h3.795v17.213h-3.795V355.263z"/>
			<path fill="#6A952F" d="M983.962,355.263h3.596v2.53l0.067,0.067c1.165-1.898,3.096-3.063,5.36-3.063
				c3.762,0,6.093,1.964,6.093,5.86v11.82h-3.795v-10.821c-0.1-2.697-1.099-3.862-3.363-3.862c-2.53,0-4.162,1.998-4.162,4.528
				v10.155h-3.796V355.263z"/>
			<path fill="#6A952F" d="M1006.033,364.852c0,2.697,1.465,5.094,4.628,5.094c2.231,0,3.529-0.966,4.195-2.863h3.596
				c-0.799,3.762-4.062,5.86-7.791,5.86c-5.427,0-8.423-3.729-8.423-9.056c0-4.895,3.196-9.09,8.323-9.09
				c5.427,0,8.757,4.895,8.124,10.055H1006.033z M1014.89,362.355c-0.167-2.397-1.731-4.562-4.329-4.562
				c-2.63,0-4.428,1.998-4.528,4.562H1014.89z"/>
			<path fill="#6A952F" d="M1024.442,366.95c0.233,2.23,1.864,2.997,3.896,2.997c1.465,0,3.929-0.3,3.829-2.264
				c-0.101-1.998-2.863-2.231-5.627-2.863c-2.797-0.6-5.527-1.598-5.527-5.094c0-3.762,4.062-4.928,7.192-4.928
				c3.529,0,6.759,1.432,7.191,5.294h-3.962c-0.366-1.831-1.798-2.297-3.496-2.297c-1.099,0-3.13,0.267-3.13,1.765
				c0,1.865,2.797,2.164,5.594,2.764c2.764,0.632,5.561,1.631,5.561,5.027c0,4.095-4.129,5.594-7.691,5.594
				c-4.362,0-7.524-1.931-7.625-5.993H1024.442z"/>
			<path fill="#6A952F" d="M1041.72,366.95c0.233,2.23,1.864,2.997,3.896,2.997c1.465,0,3.929-0.3,3.829-2.264
				c-0.101-1.998-2.863-2.231-5.627-2.863c-2.797-0.6-5.526-1.598-5.526-5.094c0-3.762,4.062-4.928,7.191-4.928
				c3.529,0,6.759,1.432,7.191,5.294h-3.962c-0.366-1.831-1.798-2.297-3.496-2.297c-1.099,0-3.13,0.267-3.13,1.765
				c0,1.865,2.797,2.164,5.594,2.764c2.764,0.632,5.561,1.631,5.561,5.027c0,4.095-4.129,5.594-7.691,5.594
				c-4.361,0-7.524-1.931-7.625-5.993H1041.72z"/>
		</g>
	</g>
</g>
<g>
	<g>
		<path fill="#6A952F" d="M768.825,431.732c3.052,0,5.518,2.435,5.518,5.486c0,3.052-2.466,5.518-5.518,5.518
			c-3.051,0-5.486-2.466-5.486-5.518C763.338,434.167,765.773,431.732,768.825,431.732z"/>
		<path fill="#6A952F" d="M793.489,426.215h3.236l8.6,22.007h-3.236l-2.404-6.627h-9.309l-2.466,6.627h-3.021L793.489,426.215z
			 M791.3,439.129h7.459l-3.667-10.264h-0.062L791.3,439.129z"/>
		<path fill="#6A952F" d="M807.147,432.287h2.62v2.158h0.062c0.863-1.757,2.867-2.527,5.086-2.527c4.901,0,7.336,3.884,7.336,8.384
			c0,4.531-2.404,8.291-7.274,8.291c-1.603,0-4.007-0.616-5.147-2.497h-0.062v8.23h-2.62V432.287z M814.545,434.229
			c-3.544,0-4.87,3.052-4.87,6.011c0,3.113,1.417,6.041,5.024,6.041c3.575,0,4.777-3.051,4.777-6.165
			C819.477,437.126,817.936,434.229,814.545,434.229z"/>
		<path fill="#6A952F" d="M825.429,432.287h2.62v2.158h0.062c0.863-1.757,2.867-2.527,5.086-2.527c4.901,0,7.336,3.884,7.336,8.384
			c0,4.531-2.404,8.291-7.274,8.291c-1.603,0-4.007-0.616-5.147-2.497h-0.062v8.23h-2.62V432.287z M832.827,434.229
			c-3.544,0-4.87,3.052-4.87,6.011c0,3.113,1.417,6.041,5.024,6.041c3.576,0,4.777-3.051,4.777-6.165
			C837.758,437.126,836.217,434.229,832.827,434.229z"/>
		<path fill="#6A952F" d="M843.526,432.287h2.466v3.36h0.062c1.264-2.589,3.021-3.822,5.856-3.729v2.774
			c-4.223,0-5.764,2.374-5.764,6.442v7.089h-2.62V432.287z"/>
		<path fill="#6A952F" d="M860.758,431.917c5.055,0,7.736,3.668,7.736,8.353c0,4.654-2.682,8.322-7.736,8.322
			c-5.055,0-7.737-3.667-7.737-8.322C853.021,435.585,855.703,431.917,860.758,431.917z M860.758,446.28
			c2.743,0,4.962-2.158,4.962-6.01c0-3.853-2.219-6.042-4.962-6.042s-4.962,2.188-4.962,6.042
			C855.796,444.123,858.015,446.28,860.758,446.28z"/>
		<path fill="#6A952F" d="M871.673,432.287h2.62v2.158h0.062c0.863-1.757,2.867-2.527,5.086-2.527c4.901,0,7.336,3.884,7.336,8.384
			c0,4.531-2.404,8.291-7.274,8.291c-1.603,0-4.007-0.616-5.147-2.497h-0.062v8.23h-2.62V432.287z M879.071,434.229
			c-3.544,0-4.87,3.052-4.87,6.011c0,3.113,1.417,6.041,5.024,6.041c3.576,0,4.777-3.051,4.777-6.165
			C884.002,437.126,882.461,434.229,879.071,434.229z"/>
		<path fill="#6A952F" d="M889.771,432.287h2.466v3.36h0.062c1.264-2.589,3.021-3.822,5.856-3.729v2.774
			c-4.223,0-5.764,2.374-5.764,6.442v7.089h-2.62V432.287z"/>
		<path fill="#6A952F" d="M902.903,429.42h-2.62v-3.206h2.62V429.42z M900.283,432.287h2.62v15.936h-2.62V432.287z"/>
		<path fill="#6A952F" d="M921.089,448.161c-0.462,0.277-1.109,0.431-1.88,0.431c-1.356,0-2.219-0.739-2.219-2.466
			c-1.449,1.727-3.391,2.466-5.61,2.466c-2.897,0-5.271-1.264-5.271-4.469c0-3.606,2.682-4.408,5.394-4.901
			c2.867-0.585,5.363-0.339,5.363-2.342c0-2.312-1.911-2.651-3.544-2.651c-2.219,0-3.853,0.678-3.976,3.021h-2.62
			c0.154-3.945,3.175-5.332,6.75-5.332c2.867,0,5.98,0.647,5.98,4.377v8.199c0,1.233,0,1.788,0.832,1.788
			c0.247,0,0.524-0.062,0.801-0.154V448.161z M916.836,439.993c-2.034,1.51-7.952,0.031-7.952,3.945
			c0,1.726,1.479,2.342,3.082,2.342c3.452,0,4.87-2.127,4.87-3.606V439.993z"/>
		<path fill="#6A952F" d="M927.165,432.287h3.175v2.312h-3.175v9.894c0,1.233,0.339,1.418,1.973,1.418h1.202v2.312h-2.004
			c-2.712,0-3.791-0.555-3.791-3.483v-10.141h-2.712v-2.312h2.712v-4.777h2.62V432.287z"/>
		<path fill="#6A952F" d="M946.832,443.167c-0.709,3.545-3.206,5.425-6.812,5.425c-5.085,0-7.49-3.544-7.644-8.384
			c0-4.808,3.144-8.291,7.49-8.291c5.641,0,7.367,5.271,7.212,9.124H935.15c-0.093,2.774,1.479,5.24,4.962,5.24
			c2.188,0,3.668-1.017,4.13-3.113H946.832z M944.304,438.729c-0.154-2.497-1.973-4.5-4.593-4.5c-2.712,0-4.408,2.034-4.562,4.5
			H944.304z"/>
		<path fill="#6A952F" d="M962.002,432.287h3.175v2.312h-3.175v9.894c0,1.233,0.339,1.418,1.973,1.418h1.202v2.312h-2.004
			c-2.712,0-3.791-0.555-3.791-3.483v-10.141h-2.712v-2.312h2.712v-4.777h2.62V432.287z"/>
		<path fill="#6A952F" d="M981.668,443.167c-0.709,3.545-3.206,5.425-6.812,5.425c-5.085,0-7.49-3.544-7.644-8.384
			c0-4.808,3.144-8.291,7.49-8.291c5.641,0,7.367,5.271,7.212,9.124h-11.928c-0.093,2.774,1.479,5.24,4.962,5.24
			c2.188,0,3.668-1.017,4.13-3.113H981.668z M979.141,438.729c-0.154-2.497-1.973-4.5-4.593-4.5c-2.712,0-4.408,2.034-4.562,4.5
			H979.141z"/>
		<path fill="#6A952F" d="M986.233,443.198c0.093,2.342,2.158,3.082,4.285,3.082c1.633,0,3.853-0.37,3.853-2.373
			c0-4.1-10.418-1.326-10.418-7.459c0-3.206,3.144-4.531,5.949-4.531c3.576,0,6.288,1.109,6.535,4.993h-2.62
			c-0.154-2.034-2.003-2.682-3.699-2.682c-1.572,0-3.391,0.432-3.391,2.034c0,1.85,2.774,2.22,5.209,2.774
			c2.62,0.585,5.209,1.479,5.209,4.531c0,3.822-3.545,5.024-6.781,5.024c-3.575,0-6.596-1.448-6.75-5.394H986.233z"/>
		<path fill="#6A952F" d="M1003.683,432.287h3.175v2.312h-3.175v9.894c0,1.233,0.339,1.418,1.973,1.418h1.202v2.312h-2.003
			c-2.713,0-3.792-0.555-3.792-3.483v-10.141h-2.712v-2.312h2.712v-4.777h2.62V432.287z"/>
		<path fill="#6A952F" d="M1011.359,443.198c0.093,2.342,2.158,3.082,4.285,3.082c1.633,0,3.853-0.37,3.853-2.373
			c0-4.1-10.418-1.326-10.418-7.459c0-3.206,3.144-4.531,5.949-4.531c3.576,0,6.288,1.109,6.535,4.993h-2.62
			c-0.154-2.034-2.003-2.682-3.699-2.682c-1.572,0-3.391,0.432-3.391,2.034c0,1.85,2.774,2.22,5.209,2.774
			c2.62,0.585,5.209,1.479,5.209,4.531c0,3.822-3.545,5.024-6.781,5.024c-3.575,0-6.596-1.448-6.75-5.394H1011.359z"/>
		<path fill="#6A952F" d="M1037.38,432.287h3.175v2.312h-3.175v9.894c0,1.233,0.339,1.418,1.973,1.418h1.202v2.312h-2.004
			c-2.712,0-3.791-0.555-3.791-3.483v-10.141h-2.713v-2.312h2.713v-4.777h2.62V432.287z"/>
		<path fill="#6A952F" d="M1050.327,431.917c5.055,0,7.736,3.668,7.736,8.353c0,4.654-2.682,8.322-7.736,8.322
			c-5.056,0-7.736-3.667-7.736-8.322C1042.591,435.585,1045.271,431.917,1050.327,431.917z M1050.327,446.28
			c2.743,0,4.962-2.158,4.962-6.01c0-3.853-2.219-6.042-4.962-6.042s-4.962,2.188-4.962,6.042
			C1045.365,444.123,1047.584,446.28,1050.327,446.28z"/>
		<path fill="#6A952F" d="M795.668,480.163c-0.709,3.545-3.206,5.425-6.812,5.425c-5.086,0-7.49-3.544-7.645-8.384
			c0-4.808,3.144-8.291,7.49-8.291c5.641,0,7.367,5.271,7.212,9.124h-11.928c-0.093,2.774,1.479,5.24,4.962,5.24
			c2.188,0,3.668-1.017,4.13-3.113H795.668z M793.141,475.725c-0.154-2.497-1.973-4.5-4.593-4.5c-2.712,0-4.408,2.034-4.562,4.5
			H793.141z"/>
		<path fill="#6A952F" d="M798.63,469.283h2.466v2.528h0.062c1.11-1.973,2.867-2.897,5.178-2.897c4.192,0,5.486,2.404,5.486,5.825
			v10.48h-2.62V474.43c0-1.973-1.233-3.206-3.236-3.206c-3.175,0-4.716,2.127-4.716,4.993v9h-2.62V469.283z"/>
		<path fill="#6A952F" d="M817.375,480.194c0.092,2.342,2.157,3.082,4.284,3.082c1.634,0,3.853-0.37,3.853-2.373
			c0-4.1-10.418-1.326-10.418-7.459c0-3.206,3.144-4.531,5.949-4.531c3.576,0,6.288,1.109,6.535,4.993h-2.62
			c-0.154-2.034-2.003-2.682-3.699-2.682c-1.572,0-3.39,0.432-3.39,2.034c0,1.85,2.774,2.22,5.209,2.774
			c2.62,0.585,5.209,1.479,5.209,4.531c0,3.822-3.545,5.024-6.781,5.024c-3.575,0-6.596-1.448-6.75-5.394H817.375z"/>
		<path fill="#6A952F" d="M844.379,485.218h-2.466v-2.527h-0.062c-1.109,1.973-2.866,2.897-5.178,2.897
			c-4.192,0-5.486-2.404-5.486-5.825v-10.48h2.62v10.788c0,1.973,1.233,3.206,3.236,3.206c3.175,0,4.716-2.127,4.716-4.993v-9h2.62
			V485.218z"/>
		<path fill="#6A952F" d="M848.236,469.283h2.466v3.36h0.062c1.264-2.589,3.021-3.822,5.856-3.729v2.774
			c-4.223,0-5.764,2.374-5.764,6.442v7.089h-2.62V469.283z"/>
		<path fill="#6A952F" d="M872.188,480.163c-0.709,3.545-3.206,5.425-6.812,5.425c-5.086,0-7.49-3.544-7.645-8.384
			c0-4.808,3.144-8.291,7.49-8.291c5.641,0,7.367,5.271,7.212,9.124h-11.928c-0.093,2.774,1.479,5.24,4.962,5.24
			c2.188,0,3.668-1.017,4.13-3.113H872.188z M869.66,475.725c-0.154-2.497-1.973-4.5-4.593-4.5c-2.712,0-4.408,2.034-4.562,4.5
			H869.66z"/>
		<path fill="#6A952F" d="M885.323,480.194c0.093,2.342,2.158,3.082,4.285,3.082c1.633,0,3.853-0.37,3.853-2.373
			c0-4.1-10.418-1.326-10.418-7.459c0-3.206,3.144-4.531,5.949-4.531c3.576,0,6.288,1.109,6.535,4.993h-2.62
			c-0.154-2.034-2.003-2.682-3.699-2.682c-1.572,0-3.391,0.432-3.391,2.034c0,1.85,2.774,2.22,5.209,2.774
			c2.62,0.585,5.209,1.479,5.209,4.531c0,3.822-3.545,5.024-6.781,5.024c-3.575,0-6.596-1.448-6.75-5.394H885.323z"/>
		<path fill="#6A952F" d="M905.393,487.345c-1.233,3.082-2.281,4.253-4.623,4.253c-0.617,0-1.233-0.062-1.819-0.277v-2.404
			c0.493,0.154,1.017,0.37,1.542,0.37c1.079,0,1.664-0.493,2.157-1.449l1.079-2.712l-6.319-15.843h2.959l4.654,13.038h0.062
			l4.469-13.038h2.774L905.393,487.345z"/>
		<path fill="#6A952F" d="M916.153,480.194c0.093,2.342,2.158,3.082,4.285,3.082c1.633,0,3.853-0.37,3.853-2.373
			c0-4.1-10.418-1.326-10.418-7.459c0-3.206,3.144-4.531,5.949-4.531c3.576,0,6.288,1.109,6.535,4.993h-2.62
			c-0.154-2.034-2.003-2.682-3.699-2.682c-1.572,0-3.391,0.432-3.391,2.034c0,1.85,2.774,2.22,5.209,2.774
			c2.62,0.585,5.209,1.479,5.209,4.531c0,3.822-3.545,5.024-6.781,5.024c-3.575,0-6.596-1.448-6.75-5.394H916.153z"/>
		<path fill="#6A952F" d="M933.603,469.283h3.175v2.312h-3.175v9.894c0,1.233,0.339,1.418,1.973,1.418h1.202v2.312h-2.003
			c-2.713,0-3.792-0.555-3.792-3.483v-10.141h-2.712v-2.312h2.712v-4.777h2.62V469.283z"/>
		<path fill="#6A952F" d="M953.27,480.163c-0.709,3.545-3.206,5.425-6.812,5.425c-5.086,0-7.49-3.544-7.645-8.384
			c0-4.808,3.144-8.291,7.49-8.291c5.641,0,7.367,5.271,7.212,9.124h-11.928c-0.093,2.774,1.479,5.24,4.962,5.24
			c2.188,0,3.668-1.017,4.13-3.113H953.27z M950.742,475.725c-0.154-2.497-1.973-4.5-4.593-4.5c-2.712,0-4.408,2.034-4.562,4.5
			H950.742z"/>
		<path fill="#6A952F" d="M956.232,469.283h2.466v2.343h0.062c1.202-1.819,2.897-2.712,5.147-2.712c1.973,0,3.729,0.74,4.377,2.712
			c1.079-1.726,2.928-2.712,4.993-2.712c3.175,0,5.302,1.325,5.302,4.624v11.682h-2.62V474.77c0-1.973-0.524-3.545-3.083-3.545
			c-2.558,0-4.161,1.603-4.161,4.069v9.925h-2.62V474.77c0-2.065-0.647-3.545-2.99-3.545c-3.083,0-4.253,2.836-4.253,4.069v9.925
			h-2.62V469.283z"/>
		<path fill="#6A952F" d="M993.875,466.417h-2.62v-3.206h2.62V466.417z M991.255,469.283h2.62v15.936h-2.62V469.283z"/>
		<path fill="#6A952F" d="M999.547,480.194c0.093,2.342,2.158,3.082,4.285,3.082c1.633,0,3.853-0.37,3.853-2.373
			c0-4.1-10.418-1.326-10.418-7.459c0-3.206,3.144-4.531,5.949-4.531c3.576,0,6.288,1.109,6.535,4.993h-2.62
			c-0.154-2.034-2.003-2.682-3.699-2.682c-1.572,0-3.391,0.432-3.391,2.034c0,1.85,2.774,2.22,5.209,2.774
			c2.62,0.585,5.209,1.479,5.209,4.531c0,3.822-3.545,5.024-6.781,5.024c-3.575,0-6.596-1.448-6.75-5.394H999.547z"/>
		<path fill="#6A952F" d="M782.167,506.279h2.62v2.157h0.062c0.863-1.757,2.867-2.527,5.086-2.527c4.901,0,7.336,3.884,7.336,8.384
			c0,4.531-2.404,8.291-7.274,8.291c-1.603,0-4.007-0.616-5.147-2.496h-0.062v8.229h-2.62V506.279z M789.565,508.221
			c-3.544,0-4.87,3.052-4.87,6.011c0,3.112,1.417,6.041,5.024,6.041c3.576,0,4.777-3.052,4.777-6.165
			C794.497,511.118,792.956,508.221,789.565,508.221z"/>
		<path fill="#6A952F" d="M800.265,506.279h2.466v3.359h0.062c1.264-2.589,3.021-3.822,5.856-3.729v2.774
			c-4.223,0-5.764,2.373-5.764,6.441v7.09h-2.62V506.279z"/>
		<path fill="#6A952F" d="M817.497,505.909c5.055,0,7.736,3.668,7.736,8.353c0,4.654-2.682,8.322-7.736,8.322
			c-5.055,0-7.737-3.668-7.737-8.322C809.76,509.577,812.441,505.909,817.497,505.909z M817.497,520.272
			c2.743,0,4.962-2.157,4.962-6.011c0-3.853-2.219-6.041-4.962-6.041s-4.962,2.188-4.962,6.041
			C812.534,518.115,814.753,520.272,817.497,520.272z"/>
		<path fill="#6A952F" d="M842.56,522.215h-2.62v-2.158h-0.062c-0.863,1.757-2.867,2.527-5.086,2.527
			c-4.901,0-7.336-3.883-7.336-8.384c0-4.5,2.404-8.291,7.274-8.291c1.603,0,4.007,0.616,5.147,2.497h0.062v-8.199h2.62V522.215z
			 M835.162,520.272c3.544,0,4.87-3.052,4.87-6.011c0-3.113-1.418-6.041-5.024-6.041c-3.575,0-4.777,3.052-4.777,6.164
			C830.23,517.375,831.771,520.272,835.162,520.272z"/>
		<path fill="#6A952F" d="M859.793,522.215h-2.466v-2.527h-0.062c-1.109,1.973-2.866,2.896-5.178,2.896
			c-4.192,0-5.486-2.404-5.486-5.825v-10.479h2.62v10.787c0,1.973,1.233,3.206,3.236,3.206c3.175,0,4.716-2.127,4.716-4.993v-9h2.62
			V522.215z"/>
		<path fill="#6A952F" d="M874.562,511.396c-0.401-2.003-1.757-3.175-3.945-3.175c-3.791,0-4.962,3.021-4.962,6.227
			c0,2.959,1.325,5.825,4.654,5.825c2.558,0,4.038-1.448,4.376-3.884h2.682c-0.585,3.914-2.99,6.195-7.027,6.195
			c-4.87,0-7.459-3.359-7.459-8.137s2.466-8.538,7.521-8.538c3.637,0,6.473,1.695,6.874,5.486H874.562z"/>
		<path fill="#6A952F" d="M883.935,506.279h3.175v2.312h-3.175v9.894c0,1.233,0.339,1.418,1.973,1.418h1.202v2.312h-2.003
			c-2.713,0-3.792-0.555-3.792-3.483v-10.141h-2.712v-2.312h2.712v-4.777h2.62V506.279z"/>
		<path fill="#6A952F" d="M892.783,503.412h-2.62v-3.205h2.62V503.412z M890.163,506.279h2.62v15.936h-2.62V506.279z"/>
		<path fill="#6A952F" d="M903.726,505.909c5.055,0,7.736,3.668,7.736,8.353c0,4.654-2.682,8.322-7.736,8.322
			c-5.055,0-7.737-3.668-7.737-8.322C895.989,509.577,898.671,505.909,903.726,505.909z M903.726,520.272
			c2.743,0,4.962-2.157,4.962-6.011c0-3.853-2.219-6.041-4.962-6.041s-4.962,2.188-4.962,6.041
			C898.764,518.115,900.983,520.272,903.726,520.272z"/>
		<path fill="#6A952F" d="M914.549,506.279h2.466v2.527h0.062c1.11-1.973,2.867-2.897,5.178-2.897c4.192,0,5.487,2.404,5.487,5.825
			v10.48h-2.62v-10.789c0-1.973-1.233-3.205-3.236-3.205c-3.175,0-4.716,2.127-4.716,4.993v9.001h-2.62V506.279z"/>
		<path fill="#6A952F" d="M940.169,506.279h2.466v3.359h0.062c1.264-2.589,3.021-3.822,5.856-3.729v2.774
			c-4.223,0-5.764,2.373-5.764,6.441v7.09h-2.62V506.279z"/>
		<path fill="#6A952F" d="M964.12,517.159c-0.709,3.545-3.206,5.425-6.812,5.425c-5.086,0-7.49-3.545-7.645-8.384
			c0-4.808,3.144-8.291,7.49-8.291c5.641,0,7.367,5.271,7.212,9.124h-11.928c-0.093,2.773,1.479,5.239,4.962,5.239
			c2.188,0,3.668-1.017,4.13-3.113H964.12z M961.593,512.721c-0.154-2.496-1.973-4.5-4.593-4.5c-2.712,0-4.408,2.034-4.562,4.5
			H961.593z"/>
		<path fill="#6A952F" d="M981.199,522.152c-0.462,0.277-1.109,0.432-1.88,0.432c-1.356,0-2.219-0.739-2.219-2.466
			c-1.449,1.727-3.391,2.466-5.61,2.466c-2.897,0-5.271-1.264-5.271-4.469c0-3.606,2.681-4.408,5.394-4.901
			c2.867-0.585,5.363-0.339,5.363-2.343c0-2.311-1.911-2.65-3.544-2.65c-2.219,0-3.853,0.678-3.976,3.021h-2.62
			c0.154-3.945,3.175-5.332,6.75-5.332c2.867,0,5.98,0.647,5.98,4.377v8.198c0,1.233,0,1.788,0.832,1.788
			c0.247,0,0.524-0.062,0.801-0.154V522.152z M976.946,513.984c-2.034,1.511-7.952,0.031-7.952,3.945
			c0,1.727,1.479,2.343,3.082,2.343c3.452,0,4.87-2.127,4.87-3.606V513.984z"/>
		<path fill="#6A952F" d="M997.878,522.215h-2.62v-2.158h-0.062c-0.863,1.757-2.867,2.527-5.086,2.527
			c-4.901,0-7.336-3.883-7.336-8.384c0-4.5,2.404-8.291,7.274-8.291c1.603,0,4.007,0.616,5.147,2.497h0.062v-8.199h2.62V522.215z
			 M990.48,520.272c3.544,0,4.87-3.052,4.87-6.011c0-3.113-1.418-6.041-5.024-6.041c-3.575,0-4.777,3.052-4.777,6.164
			C985.549,517.375,987.09,520.272,990.48,520.272z"/>
		<path fill="#6A952F" d="M1008.176,524.342c-1.233,3.082-2.281,4.253-4.623,4.253c-0.617,0-1.233-0.062-1.819-0.277v-2.404
			c0.493,0.154,1.017,0.37,1.541,0.37c1.079,0,1.665-0.493,2.158-1.449l1.079-2.712l-6.319-15.843h2.959l4.654,13.037h0.062
			l4.469-13.037h2.774L1008.176,524.342z"/>
		<path fill="#6A952F" d="M1030.221,528.317c-2.959-4.593-4.84-9.031-4.84-14.425c0-4.84,1.665-9.986,4.84-14.209h2.004
			c-2.959,4.654-4.069,9.185-4.069,14.209c0,5.178,1.141,9.709,4.069,14.425H1030.221z"/>
		<path fill="#6A952F" d="M1047.482,517.159c-0.709,3.545-3.205,5.425-6.812,5.425c-5.086,0-7.49-3.545-7.645-8.384
			c0-4.808,3.144-8.291,7.49-8.291c5.641,0,7.366,5.271,7.212,9.124h-11.928c-0.093,2.773,1.479,5.239,4.963,5.239
			c2.188,0,3.668-1.017,4.13-3.113H1047.482z M1044.955,512.721c-0.154-2.496-1.973-4.5-4.593-4.5c-2.712,0-4.407,2.034-4.562,4.5
			H1044.955z"/>
		<path fill="#6A952F" d="M1051.03,518.793h3.421v3.422h-3.421V518.793z"/>
		<path fill="#6A952F" d="M1072.763,520.858c0,5.209-2.343,7.829-7.397,7.829c-2.99,0-6.441-1.233-6.596-4.686h2.619
			c0.093,1.881,2.436,2.59,4.131,2.59c3.421,0,4.777-2.467,4.777-6.042v-1.048h-0.062c-0.894,1.941-2.929,2.897-4.963,2.897
			c-4.747,0-7.12-3.729-7.12-8.075c0-3.761,1.818-8.415,7.367-8.415c2.003,0,3.791,0.894,4.746,2.651h0.031v-2.281h2.466V520.858z
			 M1070.174,513.923c0-2.805-1.233-5.702-4.531-5.702c-3.359,0-4.716,2.743-4.716,5.795c0,2.866,1.048,6.072,4.5,6.072
			S1070.174,516.913,1070.174,513.923z"/>
		<path fill="#6A952F" d="M1077.297,518.793h3.422v3.422h-3.422V518.793z"/>
		<path fill="#6A952F" d="M1085.868,518.793h3.421v3.113c0,2.342-1.017,4.13-3.39,4.839v-1.541c1.356-0.493,1.88-1.973,1.788-2.989
			h-1.819V518.793z"/>
		<path fill="#6A952F" d="M1102.332,506.279h2.466v3.359h0.062c1.264-2.589,3.021-3.822,5.856-3.729v2.774
			c-4.223,0-5.765,2.373-5.765,6.441v7.09h-2.619V506.279z"/>
		<path fill="#6A952F" d="M1125.883,522.215h-2.466v-2.527h-0.062c-1.109,1.973-2.867,2.896-5.179,2.896
			c-4.192,0-5.486-2.404-5.486-5.825v-10.479h2.62v10.787c0,1.973,1.232,3.206,3.236,3.206c3.175,0,4.716-2.127,4.716-4.993v-9h2.62
			V522.215z"/>
		<path fill="#6A952F" d="M1129.832,506.279h2.466v2.527h0.062c1.109-1.973,2.867-2.897,5.178-2.897
			c4.192,0,5.487,2.404,5.487,5.825v10.48h-2.62v-10.789c0-1.973-1.232-3.205-3.236-3.205c-3.175,0-4.716,2.127-4.716,4.993v9.001
			h-2.62V506.279z"/>
		<path fill="#6A952F" d="M781.983,543.275h2.466v3.359h0.062c1.264-2.589,3.021-3.822,5.856-3.729v2.774
			c-4.223,0-5.764,2.373-5.764,6.441v7.09h-2.62V543.275z"/>
		<path fill="#6A952F" d="M805.934,554.155c-0.709,3.545-3.206,5.425-6.812,5.425c-5.085,0-7.49-3.545-7.644-8.384
			c0-4.808,3.144-8.291,7.49-8.291c5.641,0,7.367,5.271,7.212,9.124h-11.928c-0.093,2.773,1.479,5.239,4.962,5.239
			c2.188,0,3.668-1.017,4.13-3.113H805.934z M803.407,549.717c-0.154-2.496-1.973-4.5-4.593-4.5c-2.712,0-4.408,2.034-4.562,4.5
			H803.407z"/>
		<path fill="#6A952F" d="M822.644,557.854c0,5.209-2.343,7.829-7.397,7.829c-2.99,0-6.442-1.233-6.596-4.686h2.62
			c0.092,1.881,2.435,2.59,4.13,2.59c3.421,0,4.778-2.467,4.778-6.042v-1.048h-0.062c-0.894,1.941-2.928,2.897-4.963,2.897
			c-4.747,0-7.12-3.729-7.12-8.075c0-3.761,1.819-8.415,7.367-8.415c2.003,0,3.792,0.894,4.747,2.651h0.031v-2.281h2.466V557.854z
			 M820.054,550.919c0-2.805-1.233-5.702-4.531-5.702c-3.36,0-4.716,2.743-4.716,5.795c0,2.866,1.048,6.072,4.5,6.072
			S820.054,553.909,820.054,550.919z"/>
		<path fill="#6A952F" d="M826.5,543.275h2.466v3.359h0.062c1.264-2.589,3.021-3.822,5.856-3.729v2.774
			c-4.223,0-5.764,2.373-5.764,6.441v7.09h-2.62V543.275z"/>
		<path fill="#6A952F" d="M850.452,554.155c-0.709,3.545-3.206,5.425-6.812,5.425c-5.085,0-7.49-3.545-7.644-8.384
			c0-4.808,3.144-8.291,7.49-8.291c5.641,0,7.367,5.271,7.212,9.124H838.77c-0.093,2.773,1.479,5.239,4.962,5.239
			c2.188,0,3.668-1.017,4.13-3.113H850.452z M847.924,549.717c-0.154-2.496-1.973-4.5-4.593-4.5c-2.712,0-4.408,2.034-4.562,4.5
			H847.924z"/>
		<path fill="#6A952F" d="M855.017,554.187c0.093,2.343,2.158,3.082,4.285,3.082c1.633,0,3.853-0.37,3.853-2.373
			c0-4.1-10.418-1.325-10.418-7.46c0-3.205,3.144-4.53,5.949-4.53c3.576,0,6.288,1.109,6.535,4.993h-2.62
			c-0.154-2.034-2.003-2.682-3.699-2.682c-1.572,0-3.391,0.432-3.391,2.034c0,1.85,2.774,2.22,5.209,2.774
			c2.62,0.586,5.209,1.479,5.209,4.531c0,3.822-3.545,5.023-6.781,5.023c-3.575,0-6.596-1.448-6.75-5.394H855.017z"/>
		<path fill="#6A952F" d="M870.432,554.187c0.093,2.343,2.158,3.082,4.285,3.082c1.633,0,3.853-0.37,3.853-2.373
			c0-4.1-10.418-1.325-10.418-7.46c0-3.205,3.144-4.53,5.949-4.53c3.576,0,6.288,1.109,6.535,4.993h-2.62
			c-0.154-2.034-2.003-2.682-3.699-2.682c-1.572,0-3.391,0.432-3.391,2.034c0,1.85,2.774,2.22,5.209,2.774
			c2.62,0.586,5.209,1.479,5.209,4.531c0,3.822-3.545,5.023-6.781,5.023c-3.575,0-6.596-1.448-6.75-5.394H870.432z"/>
		<path fill="#6A952F" d="M887.018,540.408h-2.62v-3.205h2.62V540.408z M884.398,543.275h2.62v15.936h-2.62V543.275z"/>
		<path fill="#6A952F" d="M897.961,542.905c5.055,0,7.736,3.668,7.736,8.353c0,4.654-2.682,8.322-7.736,8.322
			c-5.055,0-7.737-3.668-7.737-8.322C890.225,546.573,892.906,542.905,897.961,542.905z M897.961,557.269
			c2.743,0,4.962-2.157,4.962-6.011c0-3.853-2.219-6.041-4.962-6.041s-4.962,2.188-4.962,6.041
			C892.999,555.111,895.218,557.269,897.961,557.269z"/>
		<path fill="#6A952F" d="M908.784,543.275h2.466v2.527h0.062c1.11-1.973,2.867-2.897,5.178-2.897c4.192,0,5.487,2.404,5.487,5.825
			v10.48h-2.62v-10.789c0-1.973-1.233-3.205-3.236-3.205c-3.175,0-4.716,2.127-4.716,4.993v9.001h-2.62V543.275z"/>
		<path fill="#6A952F" d="M938.134,543.275h3.175v2.312h-3.175v9.894c0,1.233,0.339,1.418,1.973,1.418h1.202v2.312h-2.004
			c-2.712,0-3.791-0.555-3.791-3.483v-10.141h-2.712v-2.312h2.712v-4.777h2.62V543.275z"/>
		<path fill="#6A952F" d="M957.8,554.155c-0.709,3.545-3.206,5.425-6.812,5.425c-5.085,0-7.49-3.545-7.644-8.384
			c0-4.808,3.144-8.291,7.49-8.291c5.641,0,7.367,5.271,7.212,9.124h-11.928c-0.093,2.773,1.479,5.239,4.962,5.239
			c2.188,0,3.668-1.017,4.13-3.113H957.8z M955.273,549.717c-0.154-2.496-1.973-4.5-4.593-4.5c-2.712,0-4.408,2.034-4.562,4.5
			H955.273z"/>
		<path fill="#6A952F" d="M962.365,554.187c0.093,2.343,2.158,3.082,4.285,3.082c1.633,0,3.853-0.37,3.853-2.373
			c0-4.1-10.418-1.325-10.418-7.46c0-3.205,3.144-4.53,5.949-4.53c3.576,0,6.288,1.109,6.535,4.993h-2.62
			c-0.154-2.034-2.003-2.682-3.699-2.682c-1.572,0-3.391,0.432-3.391,2.034c0,1.85,2.774,2.22,5.209,2.774
			c2.62,0.586,5.209,1.479,5.209,4.531c0,3.822-3.545,5.023-6.781,5.023c-3.575,0-6.596-1.448-6.75-5.394H962.365z"/>
		<path fill="#6A952F" d="M979.815,543.275h3.175v2.312h-3.175v9.894c0,1.233,0.339,1.418,1.973,1.418h1.202v2.312h-2.003
			c-2.713,0-3.792-0.555-3.792-3.483v-10.141h-2.712v-2.312h2.712v-4.777h2.62V543.275z"/>
		<path fill="#6A952F" d="M987.491,554.187c0.093,2.343,2.158,3.082,4.285,3.082c1.633,0,3.853-0.37,3.853-2.373
			c0-4.1-10.418-1.325-10.418-7.46c0-3.205,3.144-4.53,5.949-4.53c3.576,0,6.288,1.109,6.535,4.993h-2.62
			c-0.154-2.034-2.003-2.682-3.699-2.682c-1.572,0-3.391,0.432-3.391,2.034c0,1.85,2.774,2.22,5.209,2.774
			c2.62,0.586,5.209,1.479,5.209,4.531c0,3.822-3.545,5.023-6.781,5.023c-3.575,0-6.596-1.448-6.75-5.394H987.491z"/>
		<path fill="#6A952F" d="M999.023,565.313c2.959-4.654,4.068-9.186,4.068-14.21c0-5.178-1.14-9.709-4.068-14.424h2.003
			c2.959,4.592,4.839,9.03,4.839,14.424c0,4.84-1.664,9.987-4.839,14.21H999.023z"/>
		<path fill="#6A952F" d="M768.825,584.716c3.052,0,5.518,2.435,5.518,5.486s-2.466,5.518-5.518,5.518
			c-3.051,0-5.486-2.466-5.486-5.518S765.773,584.716,768.825,584.716z"/>
		<path fill="#6A952F" d="M802.982,585.826c-0.647-3.113-3.083-4.686-6.165-4.686c-5.24,0-7.459,4.314-7.459,8.908
			c0,5.023,2.219,9.215,7.49,9.215c3.822,0,6.103-2.712,6.349-6.35h2.928c-0.585,5.518-3.945,8.816-9.524,8.816
			c-6.812,0-10.172-5.055-10.172-11.467c0-6.41,3.637-11.589,10.418-11.589c4.592,0,8.415,2.466,9.062,7.151H802.982z"/>
		<path fill="#6A952F" d="M809.336,579.199h2.62v8.414h0.062c0.832-1.941,3.144-2.713,5.024-2.713c4.192,0,5.486,2.404,5.486,5.826
			v10.479h-2.62v-10.788c0-1.973-1.233-3.205-3.236-3.205c-3.175,0-4.716,2.127-4.716,4.993v9h-2.62V579.199z"/>
		<path fill="#6A952F" d="M840.071,596.151c-0.709,3.544-3.206,5.425-6.812,5.425c-5.085,0-7.49-3.545-7.644-8.384
			c0-4.809,3.144-8.292,7.49-8.292c5.641,0,7.367,5.271,7.212,9.124h-11.928c-0.093,2.774,1.479,5.239,4.962,5.239
			c2.188,0,3.668-1.017,4.13-3.112H840.071z M837.543,591.713c-0.154-2.497-1.973-4.5-4.593-4.5c-2.712,0-4.408,2.034-4.562,4.5
			H837.543z"/>
		<path fill="#6A952F" d="M853.852,590.387c-0.401-2.003-1.757-3.174-3.945-3.174c-3.792,0-4.962,3.021-4.962,6.226
			c0,2.959,1.325,5.825,4.654,5.825c2.558,0,4.038-1.448,4.376-3.883h2.682c-0.585,3.914-2.99,6.195-7.027,6.195
			c-4.87,0-7.459-3.359-7.459-8.138c0-4.777,2.466-8.538,7.521-8.538c3.637,0,6.473,1.695,6.874,5.486H853.852z"/>
		<path fill="#6A952F" d="M859.743,579.199h2.62v13.037l7.274-6.966h3.514l-6.319,5.795l6.781,10.141h-3.329l-5.456-8.322
			l-2.466,2.281v6.041h-2.62V579.199z"/>
		<path fill="#6A952F" d="M884.314,579.199h2.62v22.007h-2.62V579.199z"/>
		<path fill="#6A952F" d="M905.12,601.145c-0.462,0.277-1.109,0.432-1.88,0.432c-1.356,0-2.219-0.74-2.219-2.466
			c-1.449,1.726-3.391,2.466-5.61,2.466c-2.897,0-5.271-1.264-5.271-4.47c0-3.606,2.681-4.407,5.394-4.9
			c2.867-0.586,5.363-0.339,5.363-2.343c0-2.312-1.911-2.65-3.544-2.65c-2.219,0-3.853,0.678-3.976,3.021h-2.62
			c0.154-3.945,3.175-5.333,6.75-5.333c2.867,0,5.98,0.647,5.98,4.377v8.199c0,1.232,0,1.787,0.832,1.787
			c0.247,0,0.524-0.061,0.801-0.153V601.145z M900.867,592.977c-2.034,1.51-7.952,0.031-7.952,3.945
			c0,1.727,1.479,2.342,3.082,2.342c3.452,0,4.87-2.126,4.87-3.605V592.977z"/>
		<path fill="#6A952F" d="M907.651,579.199h2.62v8.229h0.062c0.863-1.756,2.867-2.527,5.086-2.527c4.901,0,7.336,3.885,7.336,8.385
			c0,4.53-2.404,8.291-7.274,8.291c-1.603,0-4.007-0.617-5.147-2.497h-0.062v2.127h-2.62V579.199z M915.048,587.213
			c-3.544,0-4.87,3.051-4.87,6.01c0,3.113,1.417,6.041,5.024,6.041c3.576,0,4.777-3.051,4.777-6.164
			C919.98,590.109,918.439,587.213,915.048,587.213z"/>
		<path fill="#6A952F" d="M939.433,596.151c-0.709,3.544-3.206,5.425-6.812,5.425c-5.085,0-7.49-3.545-7.644-8.384
			c0-4.809,3.144-8.292,7.49-8.292c5.641,0,7.367,5.271,7.212,9.124h-11.928c-0.093,2.774,1.479,5.239,4.962,5.239
			c2.188,0,3.668-1.017,4.13-3.112H939.433z M936.906,591.713c-0.154-2.497-1.973-4.5-4.593-4.5c-2.712,0-4.408,2.034-4.562,4.5
			H936.906z"/>
		<path fill="#6A952F" d="M942.55,579.199h2.62v22.007h-2.62V579.199z"/>
		<path fill="#6A952F" d="M952.013,582.404h-2.62v-3.205h2.62V582.404z M949.394,585.271h2.62v15.936h-2.62V585.271z"/>
		<path fill="#6A952F" d="M956.083,585.271h2.466v2.528h0.062c1.11-1.973,2.867-2.898,5.178-2.898c4.192,0,5.487,2.404,5.487,5.826
			v10.479h-2.62v-10.788c0-1.973-1.233-3.205-3.236-3.205c-3.175,0-4.716,2.127-4.716,4.993v9h-2.62V585.271z"/>
		<path fill="#6A952F" d="M986.972,599.85c0,5.209-2.343,7.829-7.397,7.829c-2.99,0-6.442-1.233-6.596-4.685h2.62
			c0.092,1.88,2.435,2.589,4.13,2.589c3.421,0,4.778-2.466,4.778-6.042v-1.047h-0.062c-0.894,1.941-2.928,2.896-4.963,2.896
			c-4.747,0-7.12-3.729-7.12-8.075c0-3.761,1.819-8.415,7.367-8.415c2.003,0,3.792,0.895,4.747,2.651h0.031v-2.281h2.466V599.85z
			 M984.382,592.914c0-2.805-1.233-5.701-4.531-5.701c-3.36,0-4.716,2.742-4.716,5.795c0,2.865,1.048,6.071,4.5,6.071
			S984.382,595.904,984.382,592.914z"/>
		<path fill="#6A952F" d="M781.983,622.267h2.466v3.36h0.062c1.264-2.59,3.021-3.822,5.856-3.73v2.774
			c-4.223,0-5.764,2.374-5.764,6.442v7.089h-2.62V622.267z"/>
		<path fill="#6A952F" d="M805.934,633.147c-0.709,3.544-3.206,5.425-6.812,5.425c-5.085,0-7.49-3.545-7.644-8.384
			c0-4.809,3.144-8.292,7.49-8.292c5.641,0,7.367,5.271,7.212,9.124h-11.928c-0.093,2.774,1.479,5.239,4.962,5.239
			c2.188,0,3.668-1.017,4.13-3.112H805.934z M803.407,628.709c-0.154-2.497-1.973-4.5-4.593-4.5c-2.712,0-4.408,2.034-4.562,4.5
			H803.407z"/>
		<path fill="#6A952F" d="M823.137,644.305h-2.62v-8.26h-0.062c-0.863,1.756-2.867,2.527-5.086,2.527
			c-4.901,0-7.336-3.884-7.336-8.384c0-4.501,2.404-8.292,7.274-8.292c1.603,0,4.007,0.617,5.147,2.497h0.062v-2.127h2.62V644.305z
			 M815.739,636.26c3.544,0,4.87-3.051,4.87-6.01c0-3.113-1.418-6.041-5.024-6.041c-3.575,0-4.777,3.051-4.777,6.164
			C810.808,633.363,812.349,636.26,815.739,636.26z"/>
		<path fill="#6A952F" d="M840.37,638.202h-2.466v-2.527h-0.062c-1.109,1.973-2.866,2.897-5.178,2.897
			c-4.192,0-5.486-2.404-5.486-5.826v-10.479h2.62v10.788c0,1.973,1.233,3.205,3.236,3.205c3.175,0,4.716-2.126,4.716-4.992v-9.001
			h2.62V638.202z"/>
		<path fill="#6A952F" d="M847.094,619.4h-2.62v-3.205h2.62V619.4z M844.474,622.267h2.62v15.936h-2.62V622.267z"/>
		<path fill="#6A952F" d="M851.071,622.267h2.466v3.36h0.062c1.264-2.59,3.021-3.822,5.856-3.73v2.774
			c-4.223,0-5.764,2.374-5.764,6.442v7.089h-2.62V622.267z"/>
		<path fill="#6A952F" d="M875.022,633.147c-0.709,3.544-3.206,5.425-6.812,5.425c-5.086,0-7.49-3.545-7.645-8.384
			c0-4.809,3.144-8.292,7.49-8.292c5.641,0,7.367,5.271,7.212,9.124h-11.928c-0.093,2.774,1.479,5.239,4.962,5.239
			c2.188,0,3.668-1.017,4.13-3.112H875.022z M872.495,628.709c-0.154-2.497-1.973-4.5-4.593-4.5c-2.712,0-4.408,2.034-4.562,4.5
			H872.495z"/>
		<path fill="#6A952F" d="M877.985,622.267h2.466v2.343h0.062c1.202-1.818,2.897-2.713,5.147-2.713c1.973,0,3.729,0.74,4.377,2.713
			c1.079-1.727,2.928-2.713,4.993-2.713c3.175,0,5.302,1.326,5.302,4.624v11.682h-2.62v-10.448c0-1.973-0.524-3.545-3.083-3.545
			c-2.558,0-4.161,1.603-4.161,4.068v9.925h-2.62v-10.448c0-2.066-0.647-3.545-2.99-3.545c-3.083,0-4.253,2.836-4.253,4.068v9.925
			h-2.62V622.267z"/>
		<path fill="#6A952F" d="M917.875,633.147c-0.709,3.544-3.206,5.425-6.812,5.425c-5.085,0-7.49-3.545-7.644-8.384
			c0-4.809,3.144-8.292,7.49-8.292c5.641,0,7.367,5.271,7.212,9.124h-11.928c-0.093,2.774,1.479,5.239,4.962,5.239
			c2.188,0,3.668-1.017,4.13-3.112H917.875z M915.348,628.709c-0.154-2.497-1.973-4.5-4.593-4.5c-2.712,0-4.408,2.034-4.562,4.5
			H915.348z"/>
		<path fill="#6A952F" d="M920.838,622.267h2.466v2.528h0.062c1.11-1.973,2.867-2.898,5.178-2.898c4.192,0,5.487,2.404,5.487,5.826
			v10.479h-2.62v-10.788c0-1.973-1.233-3.205-3.236-3.205c-3.175,0-4.716,2.127-4.716,4.993v9h-2.62V622.267z"/>
		<path fill="#6A952F" d="M941.617,622.267h3.175v2.312h-3.175v9.895c0,1.232,0.339,1.418,1.973,1.418h1.202v2.312h-2.003
			c-2.713,0-3.792-0.555-3.792-3.483v-10.141h-2.712v-2.312h2.712v-4.777h2.62V622.267z"/>
		<path fill="#6A952F" d="M949.293,633.178c0.093,2.343,2.158,3.082,4.285,3.082c1.633,0,3.853-0.369,3.853-2.373
			c0-4.1-10.418-1.325-10.418-7.459c0-3.205,3.144-4.531,5.949-4.531c3.576,0,6.288,1.109,6.535,4.994h-2.62
			c-0.154-2.035-2.003-2.682-3.699-2.682c-1.572,0-3.391,0.432-3.391,2.034c0,1.849,2.774,2.219,5.209,2.774
			c2.62,0.585,5.209,1.479,5.209,4.53c0,3.822-3.545,5.024-6.781,5.024c-3.575,0-6.596-1.449-6.75-5.395H949.293z"/>
		<path fill="#6A952F" d="M985.793,638.141c-0.462,0.277-1.109,0.432-1.88,0.432c-1.356,0-2.219-0.74-2.219-2.466
			c-1.449,1.726-3.391,2.466-5.61,2.466c-2.897,0-5.271-1.264-5.271-4.47c0-3.606,2.681-4.407,5.394-4.9
			c2.867-0.586,5.363-0.339,5.363-2.343c0-2.312-1.911-2.65-3.544-2.65c-2.219,0-3.853,0.678-3.976,3.021h-2.62
			c0.154-3.945,3.175-5.333,6.75-5.333c2.867,0,5.98,0.647,5.98,4.377v8.199c0,1.232,0,1.787,0.832,1.787
			c0.247,0,0.524-0.061,0.801-0.153V638.141z M981.54,629.973c-2.034,1.51-7.952,0.031-7.952,3.945c0,1.727,1.479,2.342,3.082,2.342
			c3.452,0,4.87-2.126,4.87-3.605V629.973z"/>
		<path fill="#6A952F" d="M988.139,622.267h2.466v3.36h0.062c1.264-2.59,3.021-3.822,5.856-3.73v2.774
			c-4.223,0-5.764,2.374-5.764,6.442v7.089h-2.62V622.267z"/>
		<path fill="#6A952F" d="M1012.09,633.147c-0.709,3.544-3.206,5.425-6.812,5.425c-5.085,0-7.49-3.545-7.644-8.384
			c0-4.809,3.144-8.292,7.49-8.292c5.641,0,7.367,5.271,7.212,9.124h-11.928c-0.093,2.774,1.479,5.239,4.962,5.239
			c2.188,0,3.668-1.017,4.13-3.112H1012.09z M1009.563,628.709c-0.154-2.497-1.973-4.5-4.593-4.5c-2.712,0-4.408,2.034-4.562,4.5
			H1009.563z"/>
		<path fill="#6A952F" d="M1023.624,622.267h2.466v2.343h0.061c1.203-1.818,2.898-2.713,5.148-2.713c1.973,0,3.729,0.74,4.377,2.713
			c1.078-1.727,2.928-2.713,4.992-2.713c3.176,0,5.303,1.326,5.303,4.624v11.682h-2.621v-10.448c0-1.973-0.523-3.545-3.082-3.545
			s-4.16,1.603-4.16,4.068v9.925h-2.621v-10.448c0-2.066-0.646-3.545-2.989-3.545c-3.083,0-4.253,2.836-4.253,4.068v9.925h-2.621
			V622.267z"/>
		<path fill="#6A952F" d="M1063.514,633.147c-0.709,3.544-3.205,5.425-6.812,5.425c-5.085,0-7.489-3.545-7.644-8.384
			c0-4.809,3.144-8.292,7.49-8.292c5.641,0,7.366,5.271,7.212,9.124h-11.929c-0.092,2.774,1.48,5.239,4.963,5.239
			c2.188,0,3.668-1.017,4.131-3.112H1063.514z M1060.986,628.709c-0.154-2.497-1.973-4.5-4.592-4.5c-2.713,0-4.408,2.034-4.562,4.5
			H1060.986z"/>
		<path fill="#6A952F" d="M1070.113,622.267h3.176v2.312h-3.176v9.895c0,1.232,0.34,1.418,1.973,1.418h1.203v2.312h-2.004
			c-2.713,0-3.791-0.555-3.791-3.483v-10.141h-2.713v-2.312h2.713v-4.777h2.619V622.267z"/>
	</g>
</g>
<g>
	<g>
		<path fill="#7BB50C" d="M1457.163,349.522h11.354c5.228,0,7.857,2.397,7.857,6.426c0,4.562-3.13,5.727-3.929,5.993v0.066
			c1.432,0.167,3.529,1.299,3.529,5.028c0,2.797,0.399,5.294,1.299,6.259h-4.462c-0.632-1.032-0.632-2.331-0.632-3.496
			c0-4.361-0.899-6.292-4.729-6.292h-6.126v9.789h-4.162V349.522z M1461.325,360.343h6.825c2.664,0,4.062-1.265,4.062-3.795
			c0-3.063-1.965-3.629-4.129-3.629h-6.759V360.343z"/>
		<path fill="#7BB50C" d="M1483.029,365.67c0,2.697,1.465,5.094,4.629,5.094c2.23,0,3.529-0.966,4.195-2.863h3.596
			c-0.8,3.762-4.062,5.86-7.791,5.86c-5.428,0-8.424-3.729-8.424-9.056c0-4.895,3.196-9.09,8.323-9.09
			c5.427,0,8.757,4.895,8.124,10.055H1483.029z M1491.887,363.173c-0.167-2.397-1.732-4.562-4.329-4.562
			c-2.63,0-4.428,1.998-4.528,4.562H1491.887z"/>
		<path fill="#7BB50C" d="M1498.676,349.522h3.795v23.772h-3.795V349.522z"/>
		<path fill="#7BB50C" d="M1509.562,365.67c0,2.697,1.465,5.094,4.627,5.094c2.231,0,3.529-0.966,4.195-2.863h3.596
			c-0.799,3.762-4.062,5.86-7.791,5.86c-5.427,0-8.423-3.729-8.423-9.056c0-4.895,3.196-9.09,8.323-9.09
			c5.428,0,8.757,4.895,8.124,10.055H1509.562z M1518.418,363.173c-0.166-2.397-1.73-4.562-4.328-4.562
			c-2.63,0-4.428,1.998-4.527,4.562H1518.418z"/>
		<path fill="#7BB50C" d="M1539.524,369.466c0,0.933,0.2,1.299,0.899,1.299h0.399c0.167,0,0.333-0.033,0.532-0.067v2.63
			c-0.565,0.2-1.764,0.433-2.396,0.433c-1.565,0-2.631-0.533-2.93-2.098c-1.499,1.465-3.93,2.098-5.961,2.098
			c-3.096,0-5.893-1.665-5.893-5.028c0-4.295,3.43-4.994,6.625-5.36c2.764-0.533,5.161-0.167,5.161-2.431
			c0-1.998-2.063-2.331-3.562-2.331c-2.131,0-3.629,0.866-3.796,2.73h-3.795c0.266-4.428,3.995-5.727,7.824-5.727
			c3.363,0,6.892,1.365,6.892,4.995V369.466z M1535.729,364.671c-1.165,0.766-2.963,0.733-4.66,1.032
			c-1.632,0.267-3.098,0.866-3.098,2.863c0,1.731,2.165,2.198,3.496,2.198c1.665,0,4.262-0.866,4.262-3.263V364.671z"/>
		<path fill="#7BB50C" d="M1546.48,367.768c0.233,2.23,1.865,2.997,3.896,2.997c1.466,0,3.929-0.3,3.829-2.264
			c-0.1-1.998-2.863-2.231-5.627-2.863c-2.797-0.6-5.527-1.598-5.527-5.094c0-3.762,4.062-4.928,7.192-4.928
			c3.528,0,6.759,1.432,7.191,5.294h-3.962c-0.366-1.831-1.798-2.297-3.496-2.297c-1.099,0-3.13,0.267-3.13,1.765
			c0,1.865,2.797,2.164,5.594,2.764c2.764,0.632,5.56,1.631,5.56,5.027c0,4.095-4.128,5.594-7.69,5.594
			c-4.362,0-7.524-1.931-7.624-5.993H1546.48z"/>
		<path fill="#7BB50C" d="M1563.857,365.67c0,2.697,1.465,5.094,4.629,5.094c2.23,0,3.529-0.966,4.195-2.863h3.596
			c-0.8,3.762-4.062,5.86-7.791,5.86c-5.428,0-8.424-3.729-8.424-9.056c0-4.895,3.196-9.09,8.323-9.09
			c5.427,0,8.757,4.895,8.124,10.055H1563.857z M1572.715,363.173c-0.167-2.397-1.732-4.562-4.329-4.562
			c-2.63,0-4.428,1.998-4.528,4.562H1572.715z"/>
	</g>
</g>
<g>
	<g>
		<path fill="#7BB50C" d="M1462.339,432.548c3.052,0,5.518,2.435,5.518,5.486c0,3.052-2.466,5.518-5.518,5.518
			s-5.486-2.466-5.486-5.518C1456.853,434.983,1459.287,432.548,1462.339,432.548z"/>
		<path fill="#7BB50C" d="M1481.023,427.031h10.356c4.161,0,6.688,2.219,6.688,5.764c0,2.682-1.141,4.839-3.822,5.579v0.062
			c2.559,0.493,3.052,2.404,3.299,4.531c0.153,2.127,0.061,4.593,1.294,6.072h-3.267c-0.833-0.894-0.371-3.267-0.802-5.425
			c-0.339-2.127-0.833-3.976-3.668-3.976h-7.151v9.401h-2.928V427.031z M1490.055,437.172c2.712,0,5.086-0.709,5.086-3.915
			c0-2.188-1.172-3.76-3.915-3.76h-7.274v7.675H1490.055z"/>
		<path fill="#7BB50C" d="M1515.303,443.983c-0.709,3.545-3.205,5.425-6.812,5.425c-5.085,0-7.489-3.544-7.644-8.384
			c0-4.808,3.144-8.291,7.49-8.291c5.641,0,7.366,5.271,7.212,9.124h-11.929c-0.092,2.774,1.48,5.24,4.963,5.24
			c2.188,0,3.668-1.017,4.131-3.113H1515.303z M1512.775,439.545c-0.154-2.497-1.973-4.5-4.592-4.5c-2.713,0-4.408,2.034-4.562,4.5
			H1512.775z"/>
		<path fill="#7BB50C" d="M1518.42,427.031h2.619v22.007h-2.619V427.031z"/>
		<path fill="#7BB50C" d="M1538.702,443.983c-0.709,3.545-3.206,5.425-6.812,5.425c-5.086,0-7.49-3.544-7.645-8.384
			c0-4.808,3.145-8.291,7.49-8.291c5.641,0,7.367,5.271,7.213,9.124h-11.929c-0.093,2.774,1.479,5.24,4.962,5.24
			c2.189,0,3.668-1.017,4.131-3.113H1538.702z M1536.175,439.545c-0.154-2.497-1.973-4.5-4.593-4.5c-2.713,0-4.408,2.034-4.562,4.5
			H1536.175z"/>
		<path fill="#7BB50C" d="M1555.781,448.977c-0.463,0.277-1.109,0.431-1.88,0.431c-1.356,0-2.22-0.739-2.22-2.466
			c-1.448,1.727-3.391,2.466-5.609,2.466c-2.897,0-5.271-1.264-5.271-4.469c0-3.606,2.681-4.408,5.394-4.901
			c2.867-0.585,5.363-0.339,5.363-2.342c0-2.312-1.911-2.651-3.545-2.651c-2.219,0-3.853,0.678-3.976,3.021h-2.62
			c0.154-3.945,3.175-5.332,6.75-5.332c2.867,0,5.98,0.647,5.98,4.377v8.199c0,1.233,0,1.788,0.832,1.788
			c0.246,0,0.523-0.062,0.801-0.154V448.977z M1551.527,440.809c-2.033,1.51-7.951,0.031-7.951,3.945
			c0,1.726,1.479,2.342,3.082,2.342c3.451,0,4.869-2.127,4.869-3.606V440.809z"/>
		<path fill="#7BB50C" d="M1559.822,444.015c0.093,2.342,2.158,3.082,4.285,3.082c1.633,0,3.853-0.37,3.853-2.373
			c0-4.1-10.419-1.326-10.419-7.459c0-3.206,3.145-4.531,5.949-4.531c3.576,0,6.288,1.109,6.535,4.993h-2.621
			c-0.153-2.034-2.003-2.682-3.698-2.682c-1.571,0-3.391,0.432-3.391,2.034c0,1.85,2.774,2.22,5.21,2.774
			c2.619,0.585,5.209,1.479,5.209,4.531c0,3.822-3.545,5.024-6.781,5.024c-3.576,0-6.597-1.448-6.75-5.394H1559.822z"/>
		<path fill="#7BB50C" d="M1587.228,443.983c-0.709,3.545-3.206,5.425-6.812,5.425c-5.086,0-7.49-3.544-7.645-8.384
			c0-4.808,3.145-8.291,7.49-8.291c5.641,0,7.367,5.271,7.213,9.124h-11.929c-0.093,2.774,1.479,5.24,4.962,5.24
			c2.189,0,3.668-1.017,4.131-3.113H1587.228z M1584.7,439.545c-0.154-2.497-1.973-4.5-4.593-4.5c-2.713,0-4.408,2.034-4.562,4.5
			H1584.7z"/>
		<path fill="#7BB50C" d="M1605.635,432.733c5.055,0,7.736,3.668,7.736,8.353c0,4.654-2.682,8.322-7.736,8.322
			c-5.056,0-7.737-3.667-7.737-8.322C1597.897,436.401,1600.579,432.733,1605.635,432.733z M1605.635,447.097
			c2.742,0,4.962-2.158,4.962-6.01c0-3.853-2.22-6.042-4.962-6.042c-2.744,0-4.963,2.188-4.963,6.042
			C1600.672,444.939,1602.891,447.097,1605.635,447.097z"/>
		<path fill="#7BB50C" d="M1617.535,435.415h-2.681v-2.312h2.681v-2.373c0-2.589,1.542-3.945,4.408-3.945
			c0.493,0,1.202,0.092,1.695,0.247v2.281c-0.463-0.154-1.018-0.216-1.479-0.216c-1.264,0-2.003,0.401-2.003,1.788v2.219h3.082
			v2.312h-3.082v13.624h-2.621V435.415z"/>
		<path fill="#7BB50C" d="M1641.027,432.733c5.055,0,7.736,3.668,7.736,8.353c0,4.654-2.682,8.322-7.736,8.322
			c-5.056,0-7.737-3.667-7.737-8.322C1633.29,436.401,1635.972,432.733,1641.027,432.733z M1641.027,447.097
			c2.742,0,4.962-2.158,4.962-6.01c0-3.853-2.22-6.042-4.962-6.042c-2.744,0-4.963,2.188-4.963,6.042
			C1636.064,444.939,1638.283,447.097,1641.027,447.097z"/>
		<path fill="#7BB50C" d="M1652.928,435.415h-2.681v-2.312h2.681v-2.373c0-2.589,1.542-3.945,4.408-3.945
			c0.493,0,1.202,0.092,1.695,0.247v2.281c-0.463-0.154-1.018-0.216-1.479-0.216c-1.264,0-2.003,0.401-2.003,1.788v2.219h3.082
			v2.312h-3.082v13.624h-2.621V435.415z"/>
		<path fill="#7BB50C" d="M1662.054,435.415h-2.682v-2.312h2.682v-2.373c0-2.589,1.542-3.945,4.407-3.945
			c0.494,0,1.203,0.092,1.695,0.247v2.281c-0.462-0.154-1.017-0.216-1.479-0.216c-1.264,0-2.004,0.401-2.004,1.788v2.219h3.082
			v2.312h-3.082v13.624h-2.62V435.415z"/>
		<path fill="#7BB50C" d="M1683.693,443.983c-0.709,3.545-3.205,5.425-6.812,5.425c-5.086,0-7.49-3.544-7.645-8.384
			c0-4.808,3.144-8.291,7.49-8.291c5.641,0,7.366,5.271,7.212,9.124h-11.928c-0.093,2.774,1.479,5.24,4.963,5.24
			c2.188,0,3.668-1.017,4.13-3.113H1683.693z M1681.166,439.545c-0.154-2.497-1.973-4.5-4.593-4.5c-2.712,0-4.407,2.034-4.562,4.5
			H1681.166z"/>
		<path fill="#7BB50C" d="M1686.563,433.103h2.466v3.36h0.062c1.264-2.589,3.021-3.822,5.856-3.729v2.774
			c-4.223,0-5.764,2.374-5.764,6.442v7.089h-2.62V433.103z"/>
		<path fill="#7BB50C" d="M1699.695,430.237h-2.619v-3.206h2.619V430.237z M1697.076,433.103h2.619v15.936h-2.619V433.103z"/>
		<path fill="#7BB50C" d="M1703.766,433.103h2.466v2.528h0.062c1.109-1.973,2.867-2.897,5.178-2.897
			c4.192,0,5.487,2.404,5.487,5.825v10.48h-2.62V438.25c0-1.973-1.232-3.206-3.236-3.206c-3.175,0-4.716,2.127-4.716,4.993v9h-2.62
			V433.103z"/>
		<path fill="#7BB50C" d="M1734.654,447.683c0,5.209-2.343,7.829-7.397,7.829c-2.989,0-6.442-1.233-6.597-4.685h2.621
			c0.092,1.88,2.435,2.589,4.129,2.589c3.422,0,4.778-2.466,4.778-6.042v-1.048h-0.062c-0.895,1.942-2.928,2.897-4.963,2.897
			c-4.746,0-7.12-3.729-7.12-8.076c0-3.76,1.819-8.415,7.366-8.415c2.004,0,3.792,0.894,4.748,2.651h0.03v-2.281h2.466V447.683z
			 M1732.064,440.747c0-2.805-1.232-5.702-4.53-5.702c-3.36,0-4.716,2.743-4.716,5.795c0,2.866,1.048,6.072,4.5,6.072
			S1732.064,443.737,1732.064,440.747z"/>
		<path fill="#7BB50C" d="M1476.668,472.411h-2.682v-2.312h2.682v-2.373c0-2.589,1.541-3.945,4.408-3.945
			c0.492,0,1.201,0.092,1.695,0.247v2.281c-0.463-0.154-1.018-0.216-1.48-0.216c-1.264,0-2.003,0.401-2.003,1.788v2.219h3.082v2.312
			h-3.082v13.624h-2.62V472.411z"/>
		<path fill="#7BB50C" d="M1491.588,469.729c5.055,0,7.736,3.668,7.736,8.353c0,4.654-2.682,8.322-7.736,8.322
			s-7.736-3.667-7.736-8.322C1483.852,473.397,1486.533,469.729,1491.588,469.729z M1491.588,484.093
			c2.744,0,4.963-2.158,4.963-6.01c0-3.853-2.219-6.042-4.963-6.042c-2.742,0-4.962,2.188-4.962,6.042
			C1486.626,481.935,1488.846,484.093,1491.588,484.093z"/>
		<path fill="#7BB50C" d="M1502.318,470.099h2.467v3.36h0.061c1.264-2.589,3.021-3.822,5.857-3.729v2.774
			c-4.224,0-5.765,2.374-5.765,6.442v7.089h-2.62V470.099z"/>
		<path fill="#7BB50C" d="M1524.021,467.233h-2.619v-3.206h2.619V467.233z M1521.402,470.099h2.619v15.936h-2.619V470.099z"/>
		<path fill="#7BB50C" d="M1531.729,470.099h3.176v2.312h-3.176v9.894c0,1.233,0.34,1.418,1.973,1.418h1.203v2.312h-2.004
			c-2.713,0-3.791-0.555-3.791-3.483v-10.141h-2.713v-2.312h2.713v-4.777h2.619V470.099z"/>
		<path fill="#7BB50C" d="M1539.405,481.011c0.093,2.342,2.157,3.082,4.284,3.082c1.634,0,3.854-0.37,3.854-2.373
			c0-4.1-10.418-1.326-10.418-7.459c0-3.206,3.144-4.531,5.948-4.531c3.575,0,6.288,1.109,6.534,4.993h-2.619
			c-0.154-2.034-2.004-2.682-3.699-2.682c-1.572,0-3.391,0.432-3.391,2.034c0,1.85,2.774,2.22,5.209,2.774
			c2.62,0.585,5.209,1.479,5.209,4.531c0,3.822-3.545,5.024-6.781,5.024c-3.574,0-6.596-1.448-6.75-5.394H1539.405z"/>
		<path fill="#7BB50C" d="M1564.562,467.233h-2.619v-3.206h2.619V467.233z M1561.943,470.099h2.619v15.936h-2.619V470.099z"/>
		<path fill="#7BB50C" d="M1568.633,470.099h2.465v2.528h0.062c1.109-1.973,2.866-2.897,5.178-2.897
			c4.191,0,5.486,2.404,5.486,5.825v10.48h-2.619v-10.788c0-1.973-1.233-3.206-3.236-3.206c-3.176,0-4.717,2.127-4.717,4.993v9
			h-2.619V470.099z"/>
		<path fill="#7BB50C" d="M1589.411,470.099h3.175v2.312h-3.175v9.894c0,1.233,0.339,1.418,1.973,1.418h1.202v2.312h-2.004
			c-2.712,0-3.791-0.555-3.791-3.483v-10.141h-2.713v-2.312h2.713v-4.777h2.62V470.099z"/>
		<path fill="#7BB50C" d="M1609.078,480.979c-0.709,3.545-3.206,5.425-6.812,5.425c-5.086,0-7.49-3.544-7.644-8.384
			c0-4.808,3.144-8.291,7.489-8.291c5.641,0,7.367,5.271,7.213,9.124h-11.928c-0.094,2.774,1.479,5.24,4.962,5.24
			c2.188,0,3.668-1.017,4.13-3.113H1609.078z M1606.551,476.541c-0.154-2.497-1.973-4.5-4.594-4.5c-2.712,0-4.407,2.034-4.561,4.5
			H1606.551z"/>
		<path fill="#7BB50C" d="M1612.04,470.099h2.466v2.528h0.062c1.11-1.973,2.866-2.897,5.179-2.897c4.191,0,5.486,2.404,5.486,5.825
			v10.48h-2.62v-10.788c0-1.973-1.233-3.206-3.236-3.206c-3.175,0-4.716,2.127-4.716,4.993v9h-2.62V470.099z"/>
		<path fill="#7BB50C" d="M1643.422,486.035h-2.62v-2.158h-0.062c-0.863,1.757-2.867,2.527-5.086,2.527
			c-4.9,0-7.336-3.883-7.336-8.384c0-4.5,2.404-8.291,7.274-8.291c1.603,0,4.007,0.616,5.147,2.497h0.062v-8.199h2.62V486.035z
			 M1636.024,484.093c3.544,0,4.87-3.051,4.87-6.01c0-3.113-1.418-6.042-5.024-6.042c-3.575,0-4.777,3.052-4.777,6.165
			C1631.093,481.195,1632.634,484.093,1636.024,484.093z"/>
		<path fill="#7BB50C" d="M1661.057,480.979c-0.709,3.545-3.206,5.425-6.812,5.425c-5.086,0-7.49-3.544-7.644-8.384
			c0-4.808,3.144-8.291,7.489-8.291c5.641,0,7.367,5.271,7.213,9.124h-11.928c-0.094,2.774,1.479,5.24,4.962,5.24
			c2.188,0,3.668-1.017,4.13-3.113H1661.057z M1658.529,476.541c-0.154-2.497-1.973-4.5-4.594-4.5c-2.712,0-4.407,2.034-4.561,4.5
			H1658.529z"/>
		<path fill="#7BB50C" d="M1678.259,486.035h-2.62v-2.158h-0.062c-0.863,1.757-2.866,2.527-5.086,2.527
			c-4.901,0-7.336-3.883-7.336-8.384c0-4.5,2.404-8.291,7.274-8.291c1.603,0,4.007,0.616,5.147,2.497h0.062v-8.199h2.62V486.035z
			 M1670.861,484.093c3.545,0,4.87-3.051,4.87-6.01c0-3.113-1.418-6.042-5.024-6.042c-3.575,0-4.777,3.052-4.777,6.165
			C1665.93,481.195,1667.471,484.093,1670.861,484.093z"/>
		<path fill="#7BB50C" d="M1704.063,486.035h-2.466v-2.527h-0.062c-1.109,1.973-2.865,2.897-5.178,2.897
			c-4.191,0-5.486-2.404-5.486-5.825v-10.48h2.62v10.788c0,1.973,1.233,3.206,3.236,3.206c3.175,0,4.716-2.127,4.716-4.993v-9h2.62
			V486.035z"/>
		<path fill="#7BB50C" d="M1709.615,481.011c0.093,2.342,2.158,3.082,4.285,3.082c1.633,0,3.853-0.37,3.853-2.373
			c0-4.1-10.419-1.326-10.419-7.459c0-3.206,3.145-4.531,5.949-4.531c3.576,0,6.288,1.109,6.535,4.993h-2.621
			c-0.153-2.034-2.003-2.682-3.698-2.682c-1.571,0-3.391,0.432-3.391,2.034c0,1.85,2.774,2.22,5.21,2.774
			c2.619,0.585,5.209,1.479,5.209,4.531c0,3.822-3.545,5.024-6.781,5.024c-3.576,0-6.597-1.448-6.75-5.394H1709.615z"/>
		<path fill="#7BB50C" d="M1737.021,480.979c-0.709,3.545-3.206,5.425-6.812,5.425c-5.086,0-7.49-3.544-7.645-8.384
			c0-4.808,3.145-8.291,7.49-8.291c5.641,0,7.367,5.271,7.213,9.124h-11.929c-0.093,2.774,1.479,5.24,4.962,5.24
			c2.189,0,3.668-1.017,4.131-3.113H1737.021z M1734.493,476.541c-0.154-2.497-1.973-4.5-4.593-4.5c-2.713,0-4.408,2.034-4.562,4.5
			H1734.493z"/>
	</g>
</g>
</svg>
