<?xml version="1.0" encoding="utf-8"?>
<!-- Generator: Adobe Illustrator 19.2.1, SVG Export Plug-In . SVG Version: 6.00 Build 0)  -->
<svg version="1.1" id="Layer_1" xmlns="http://www.w3.org/2000/svg" xmlns:xlink="http://www.w3.org/1999/xlink" x="0px" y="0px"
	 viewBox="0 0 2048 1000" enable-background="new 0 0 2048 1000" xml:space="preserve">
<rect fill="#B9E5FB" width="2048" height="1000"/>
<rect fill="#4EA8DE" width="1012.917" height="1000"/>
<rect x="1.023" y="710" fill="#116BB4" width="1011.893" height="288.9"/>
<path fill="#FFFFFF" d="M824.873,738.731c0,13.732-11.133,24.866-24.866,24.866H233.123c-13.734,0-24.867-11.134-24.867-24.866
	V170.666c0-13.734,11.133-24.867,24.867-24.867h566.884c13.733,0,24.866,11.133,24.866,24.867V738.731z"/>
<path fill="#EFEFF0" d="M824.873,871.665c0,10.956-11.133,19.839-24.866,19.839H233.123c-13.734,0-24.867-8.883-24.867-19.839
	V418.457h616.617V871.665z"/>
<g>
	<g>
		<g>
			<polygon fill="#FFFFFF" points="1934.946,942.812 1934.946,496.546 1934.946,300.125 1779.95,159.363 1291.902,159.363 
				1291.902,942.812 			"/>
			<g>
				<polygon fill="#2C5871" points="1779.95,300.125 1934.946,300.125 1779.95,159.363 				"/>
				<polygon fill="#D1ECFB" points="1934.946,300.125 1779.95,300.125 1934.946,440.863 				"/>
			</g>
		</g>
	</g>
</g>
<line fill="none" stroke="#343636" stroke-width="3.5217" stroke-miterlimit="10" x1="1053.404" y1="53.718" x2="2025.366" y2="53.718"/>
<g>
	<path fill="#89C240" d="M559.984,337.617H435.585c-7.149,0-12.999-5.85-12.999-12.999V184.361c0-7.149,5.849-12.999,12.999-12.999
		h124.398c7.149,0,12.999,5.849,12.999,12.999v140.256C572.983,331.767,567.133,337.617,559.984,337.617"/>
	<g>
		<rect x="399.2" y="378.974" fill="#8CC63F" width="1.56" height="16.638"/>
		<path fill="#8CC63F" d="M403.88,378.974h7.02c2.729,0,5.329,0.909,5.329,4.029c0,1.69-1.169,3.379-2.86,3.77
			c2.21,0.259,3.51,1.95,3.51,4.029c0,1.561-0.52,4.679-5.979,4.679h-7.02V378.974z M405.439,386.252h5.46
			c2.469,0,3.769-1.299,3.769-2.859c0-2.08-1.3-3.119-3.769-3.119h-5.46V386.252z M405.439,394.182h5.46
			c2.339,0,4.419-0.78,4.419-3.379c0-2.21-1.56-3.249-4.419-3.249h-5.46V394.182z"/>
		<polygon fill="#8CC63F" points="419.478,378.974 421.818,378.974 427.537,393.532 433.257,378.974 435.597,378.974 
			435.597,395.612 434.037,395.612 434.037,381.183 428.317,395.612 426.758,395.612 421.038,381.183 421.038,395.612 
			419.478,395.612 		"/>
		<polygon fill="#173E68" points="457.955,395.481 454.315,395.481 451.456,384.173 448.726,395.481 444.956,395.481 
			440.536,378.843 444.176,378.843 446.776,390.153 449.635,378.843 453.015,378.843 455.875,390.282 458.605,378.843 
			462.244,378.843 		"/>
		<path fill="#173E68" d="M462.764,387.032c0.26-3.119,2.99-4.029,5.719-4.029c2.34,0,5.33,0.521,5.33,3.379v6.241
			c0,1.039,0.13,2.209,0.391,2.729h-3.38c-0.13-0.39-0.26-0.779-0.26-1.171c-1.039,1.041-2.599,1.56-4.029,1.56
			c-2.34,0-4.029-1.169-4.029-3.639c0-5.46,8.189-2.6,8.059-5.2c0-1.429-0.909-1.56-2.21-1.56c-1.299,0-2.08,0.521-2.21,1.82h-3.379
			V387.032z M470.433,389.502c-0.52,0.52-1.689,0.52-2.729,0.65c-1.041,0.26-1.95,0.521-1.95,1.82c0,1.3,0.909,1.559,2.079,1.559
			c2.6,0,2.729-2.08,2.729-2.73v-1.3H470.433z"/>
		<path fill="#173E68" d="M480.443,383.393h2.47v2.21h-2.47v5.979c0,1.17,0.26,1.43,1.43,1.43c0.39,0,0.78,0,1.04-0.131v2.6
			c-0.52,0.131-1.3,0.131-1.95,0.131c-2.08,0-3.77-0.39-3.77-2.86v-7.149h-2.08v-2.21h2.08v-3.64h3.38L480.443,383.393z"/>
		<path fill="#173E68" d="M487.072,391.582c0,1.43,1.299,2.08,2.6,2.08c0.91,0,2.209-0.39,2.209-1.56c0-1.04-1.43-1.429-3.77-1.821
			c-1.95-0.389-3.9-1.04-3.9-3.25c0-3.119,2.73-3.899,5.2-3.899c2.6,0,5.069,0.91,5.33,3.899h-3.12c-0.13-1.3-1.04-1.559-2.21-1.559
			c-0.78,0-1.819,0.129-1.819,1.169c0,1.17,1.95,1.3,3.769,1.821c1.95,0.389,3.9,1.169,3.9,3.379c0,3.12-2.73,4.16-5.459,4.16
			c-2.73,0-5.59-1.04-5.72-4.29h2.99V391.582z"/>
		<path fill="#173E68" d="M502.671,383.133c3.769,0,6.239,2.47,6.239,6.37c0,3.899-2.47,6.37-6.239,6.37
			c-3.77,0-6.24-2.471-6.24-6.37C496.431,385.603,498.771,383.133,502.671,383.133 M502.671,393.272c2.21,0,2.989-1.95,2.989-3.9
			c0-1.95-0.649-3.899-2.989-3.899c-2.21,0-2.86,1.95-2.86,3.899C499.81,391.323,500.331,393.272,502.671,393.272"/>
		<path fill="#173E68" d="M510.47,383.393h3.12v1.689h0.13c0.909-1.429,2.21-2.079,3.639-2.079c3.51,0,4.419,1.95,4.419,4.94v7.409
			h-3.379v-6.76c0-1.95-0.521-2.989-2.08-2.989c-1.82,0-2.6,1.04-2.6,3.379v6.37h-3.38L510.47,383.393z"/>
		<polygon fill="#173E68" points="528.408,378.843 532.048,378.843 532.048,385.213 538.807,385.213 538.807,378.843 
			542.447,378.843 542.447,395.481 538.807,395.481 538.807,388.332 532.048,388.332 532.048,395.481 528.408,395.481 		"/>
		<path fill="#173E68" d="M547.906,390.282c0.13,2.081,1.04,3.12,2.99,3.12c1.299,0,2.339-0.779,2.6-1.56h2.859
			c-0.91,2.86-2.859,4.03-5.589,4.03c-3.77,0-6.11-2.6-6.11-6.37c0-3.639,2.47-6.37,6.11-6.37c4.03,0,6.109,3.38,5.85,7.149H547.906
			z M553.236,388.073c-0.26-1.691-1.04-2.6-2.6-2.6c-2.21,0-2.73,1.559-2.73,2.6H553.236z"/>
		<path fill="#173E68" d="M558.565,387.032c0.26-3.119,2.99-4.029,5.72-4.029c2.339,0,5.329,0.521,5.329,3.379v6.241
			c0,1.039,0.13,2.209,0.39,2.729h-3.38c-0.129-0.39-0.259-0.779-0.259-1.171c-1.041,1.041-2.6,1.56-4.029,1.56
			c-2.34,0-4.03-1.169-4.03-3.639c0-5.46,8.19-2.6,8.06-5.2c0-1.429-0.91-1.56-2.21-1.56c-1.3,0-2.08,0.521-2.209,1.82h-3.38
			V387.032z M566.104,389.502c-0.52,0.52-1.69,0.52-2.73,0.65c-1.039,0.26-1.95,0.521-1.95,1.82c0,1.3,0.911,1.559,2.08,1.559
			c2.6,0,2.73-2.08,2.73-2.73v-1.3H566.104z"/>
		<path fill="#173E68" d="M582.093,383.393h2.47v2.21h-2.47v5.979c0,1.17,0.26,1.43,1.43,1.43c0.39,0,0.78,0,1.041-0.131v2.6
			c-0.52,0.131-1.3,0.131-1.951,0.131c-2.08,0-3.769-0.39-3.769-2.86v-7.149h-2.08v-2.21h2.08v-3.64h3.379v3.64H582.093z"/>
		<path fill="#173E68" d="M586.643,378.843h3.379v6.239h0.13c0.91-1.429,2.21-2.079,3.51-2.079c3.51,0,4.419,1.95,4.419,4.94v7.409
			h-3.379v-6.76c0-1.95-0.52-2.989-2.08-2.989c-1.82,0-2.6,1.04-2.6,3.379v6.37h-3.379V378.843z"/>
		<rect x="571.954" y="378.843" fill="#173E68" width="3.38" height="16.638"/>
	</g>
	<g>
		<defs>
			<path id="SVGID_1_" d="M436.43,171.363c-7.149,0-12.999,5.849-12.999,12.999v140.256c0,7.149,5.849,12.999,12.999,12.999h124.398
				c7.149,0,12.999-5.85,12.999-12.999V184.361c0-7.149-5.85-12.999-12.999-12.999H436.43z"/>
		</defs>
		<clipPath id="SVGID_2_">
			<use xlink:href="#SVGID_1_"  overflow="visible"/>
		</clipPath>
		<path clip-path="url(#SVGID_2_)" fill="#E3CCA4" d="M480.496,242.725h36.267l3.9,41.207c0.259,2.86,2.729,5.07,5.849,5.2h0.649
			l-4.549,15.469l-48.096-3.77l-3.51-11.699l1.3-0.26c2.859-0.39,4.939-2.469,5.069-5.199L480.496,242.725z"/>
		<path clip-path="url(#SVGID_2_)" fill="#D4C5A3" d="M498.824,302.78l-24.437-1.95l-3.51-11.699l1.3-0.26
			c2.859-0.39,4.94-2.469,5.069-5.199l2.34-29.117h19.368L498.824,302.78z"/>
		<path clip-path="url(#SVGID_2_)" fill="#CCBC97" d="M480.496,242.725h36.267l2.86,31.197c-0.65,1.04-1.169,1.689-1.82,2.73
			c-5.33,7.279-12.219,12.218-18.849,12.218c-6.629,0-13.518-4.939-18.848-12.218c-0.78-1.17-1.43-1.95-2.08-3.12L480.496,242.725z"
			/>
		<path clip-path="url(#SVGID_2_)" fill="#2C3E50" d="M498.824,278.082c-8.449,0-16.898-5.459-23.268-13.519
			c-6.239-7.929-10.399-18.457-10.399-28.598v-0.258v-0.131v-2.079c0-24.308-4.419-44.066,33.796-44.066
			c38.217,0,33.667,19.758,33.667,44.066v1.95v0.129v0.26c0,10.139-4.159,20.669-10.399,28.598
			C515.853,272.623,507.274,278.082,498.824,278.082"/>
		<path clip-path="url(#SVGID_2_)" fill="#ECF0F1" d="M476.986,285.102c-14.689,9.619-41.856,10.399-41.856,30.677v20.148
			c0,5.46,4.679,9.878,10.529,9.878h106.2c5.85,0,10.529-4.419,10.529-9.878v-20.019c0-20.538-26.777-21.317-41.726-30.676
			C505.714,295.11,494.665,298.491,476.986,285.102"/>
		<path clip-path="url(#SVGID_2_)" fill="#FFE7BD" d="M476.337,268.983c6.369,8.06,14.558,13.52,22.487,13.52
			c7.93,0,16.249-5.459,22.488-13.52c6.5-8.319,10.919-19.238,11.049-29.768l-2.21-8.449c-0.78-2.99-0.91-5.85-0.91-8.45
			c-0.13-3.509-0.13-6.758-2.21-9.358c-3.25-4.29-8.45-2.86-14.559-1.3c-4.159,1.169-8.709,2.339-13.519,2.339
			c-4.939,0-9.359-1.17-13.518-2.339c-6.11-1.691-11.309-2.991-14.559,1.169c-2.08,2.6-2.08,5.849-2.21,9.359
			c0,2.729-0.13,5.46-0.91,8.449l-2.21,8.449C465.418,249.745,469.837,260.794,476.337,268.983"/>
		<path clip-path="url(#SVGID_2_)" fill="#DAE1E6" d="M472.827,287.442c3.64,7.018,13.518,15.338,26.127,15.338
			c11.959,0,21.838-8.189,26.128-15.209c-4.29,8.059-13.779,16.638-26.128,16.508C486.605,304.08,476.337,295.37,472.827,287.442"/>
		<path clip-path="url(#SVGID_2_)" fill="#E8D6AC" d="M476.337,268.983c6.369,8.06,14.558,13.52,22.487,13.52v-68.504
			c-4.939,0-9.358-1.17-13.518-2.339c-6.11-1.691-11.31-2.991-14.56,1.169c-2.079,2.6-2.079,5.849-2.21,9.359
			c0,2.729-0.13,5.46-0.91,8.449l-2.209,8.449C465.418,249.745,469.837,260.794,476.337,268.983"/>
		<path clip-path="url(#SVGID_2_)" fill="#DAE1E6" d="M468.797,288.092c-13.908,5.979-33.666,7.278-33.666,27.558v20.148
			c0,5.458,4.679,9.878,10.529,9.878h53.164h53.165c5.849,0,10.529-4.42,10.529-9.878v-20.019c0-20.278-19.758-21.708-33.667-27.687
			c-8.58,13.259-19.368,20.017-30.028,20.148C488.165,308.24,477.376,301.48,468.797,288.092"/>
		<path clip-path="url(#SVGID_2_)" fill="#B3B3B3" d="M468.797,287.961c-1.95,0.91-4.029,1.56-6.109,2.341
			c11.829,18.717,25.867,24.307,36.266,24.438c10.27-0.131,24.438-5.72,36.267-24.438c-2.08-0.781-4.159-1.431-6.109-2.341
			c-8.579,13.259-19.498,20.279-30.158,20.408C488.165,308.24,477.376,301.351,468.797,287.961"/>
	</g>
</g>
<g>
	<g>
		<path fill="#333333" d="M1345.723,384.016h4.199l11.158,28.555h-4.199l-3.119-8.599h-12.078l-3.199,8.599h-3.92L1345.723,384.016z
			 M1342.884,400.773h9.678l-4.759-13.318h-0.08L1342.884,400.773z"/>
		<path fill="#333333" d="M1363.324,391.894h3.199v3.28h0.08c1.439-2.56,3.72-3.759,6.719-3.759c5.439,0,7.119,3.119,7.119,7.559
			v13.598h-3.399v-13.998c0-2.56-1.6-4.159-4.199-4.159c-4.119,0-6.119,2.759-6.119,6.479v11.678h-3.399V391.894z"/>
		<path fill="#333333" d="M1393.683,415.331c-1.6,3.999-2.959,5.519-5.998,5.519c-0.801,0-1.601-0.08-2.36-0.36v-3.119
			c0.641,0.2,1.32,0.48,2,0.48c1.399,0,2.159-0.64,2.8-1.88l1.399-3.52l-8.198-20.557h3.839l6.039,16.917h0.08l5.799-16.917h3.6
			L1393.683,415.331z"/>
		<path fill="#333333" d="M1416.564,391.894h3.199v4.359h0.08c1.64-3.359,3.92-4.959,7.599-4.839v3.599
			c-5.479,0-7.479,3.08-7.479,8.359v9.198h-3.399V391.894z"/>
		<path fill="#333333" d="M1447.641,406.012c-0.92,4.6-4.159,7.039-8.838,7.039c-6.6,0-9.719-4.599-9.919-10.878
			c0-6.239,4.08-10.758,9.719-10.758c7.318,0,9.559,6.839,9.358,11.838h-15.478c-0.12,3.599,1.92,6.799,6.439,6.799
			c2.839,0,4.759-1.32,5.358-4.04H1447.641z M1444.361,400.253c-0.2-3.24-2.56-5.839-5.959-5.839c-3.52,0-5.719,2.639-5.919,5.839
			H1444.361z"/>
		<path fill="#333333" d="M1469.32,410.811c0,6.759-3.039,10.158-9.599,10.158c-3.879,0-8.358-1.6-8.559-6.079h3.399
			c0.12,2.439,3.16,3.359,5.359,3.359c4.439,0,6.199-3.2,6.199-7.839v-1.36h-0.08c-1.16,2.52-3.8,3.759-6.439,3.759
			c-6.158,0-9.238-4.839-9.238-10.478c0-4.879,2.36-10.918,9.559-10.918c2.6,0,4.919,1.16,6.159,3.439h0.04v-2.96h3.199V410.811z
			 M1465.961,401.812c0-3.639-1.6-7.398-5.879-7.398c-4.359,0-6.119,3.559-6.119,7.519c0,3.719,1.36,7.878,5.839,7.878
			C1464.281,409.811,1465.961,405.692,1465.961,401.812z"/>
		<path fill="#333333" d="M1491.561,412.571h-3.199v-3.279h-0.08c-1.44,2.56-3.72,3.759-6.719,3.759
			c-5.439,0-7.119-3.12-7.119-7.559v-13.598h3.399v13.998c0,2.56,1.6,4.159,4.199,4.159c4.119,0,6.119-2.76,6.119-6.479v-11.678
			h3.399V412.571z"/>
		<path fill="#333333" d="M1496.884,384.016h3.399v28.555h-3.399V384.016z"/>
		<path fill="#333333" d="M1523.88,412.491c-0.601,0.36-1.44,0.56-2.44,0.56c-1.76,0-2.879-0.96-2.879-3.2
			c-1.88,2.24-4.399,3.2-7.279,3.2c-3.759,0-6.839-1.64-6.839-5.799c0-4.679,3.479-5.719,6.999-6.359
			c3.72-0.76,6.959-0.44,6.959-3.039c0-3-2.479-3.439-4.6-3.439c-2.879,0-4.999,0.88-5.159,3.919h-3.399
			c0.2-5.119,4.12-6.918,8.759-6.918c3.72,0,7.759,0.84,7.759,5.679v10.638c0,1.6,0,2.32,1.08,2.32c0.319,0,0.68-0.08,1.04-0.2
			V412.491z M1518.36,401.893c-2.64,1.959-10.318,0.04-10.318,5.119c0,2.24,1.92,3.04,3.999,3.04c4.479,0,6.319-2.76,6.319-4.679
			V401.893z"/>
		<path fill="#333333" d="M1531.761,391.894h4.12v3h-4.12v12.838c0,1.6,0.44,1.84,2.56,1.84h1.561v3h-2.6
			c-3.52,0-4.92-0.72-4.92-4.519v-13.158h-3.519v-3h3.519v-6.199h3.399V391.894z"/>
		<path fill="#333333" d="M1557.278,406.012c-0.92,4.6-4.159,7.039-8.838,7.039c-6.6,0-9.719-4.599-9.919-10.878
			c0-6.239,4.08-10.758,9.719-10.758c7.318,0,9.559,6.839,9.358,11.838h-15.478c-0.12,3.599,1.92,6.799,6.439,6.799
			c2.839,0,4.759-1.32,5.358-4.04H1557.278z M1553.999,400.253c-0.2-3.24-2.56-5.839-5.959-5.839c-3.52,0-5.719,2.639-5.919,5.839
			H1553.999z"/>
		<path fill="#333333" d="M1579.598,412.571h-3.399v-2.799h-0.08c-1.119,2.279-3.719,3.279-6.599,3.279
			c-6.358,0-9.519-5.039-9.519-10.878c0-5.839,3.12-10.758,9.438-10.758c2.08,0,5.199,0.8,6.679,3.239h0.08v-10.638h3.399V412.571z
			 M1570,410.051c4.599,0,6.318-3.959,6.318-7.799c0-4.039-1.84-7.838-6.519-7.838c-4.64,0-6.199,3.959-6.199,7.999
			C1563.601,406.292,1565.601,410.051,1570,410.051z"/>
		<path fill="#333333" d="M1608.599,383.336c9.079,0,13.678,7.159,13.678,14.957c0,7.799-4.599,14.958-13.678,14.958
			c-9.078,0-13.678-7.159-13.678-14.958C1594.921,390.495,1599.521,383.336,1608.599,383.336z M1608.599,410.051
			c6.959,0,9.879-5.999,9.879-11.758c0-5.759-2.92-11.758-9.879-11.758s-9.878,5.999-9.878,11.758
			C1598.721,404.052,1601.64,410.051,1608.599,410.051z"/>
		<path fill="#333333" d="M1627.76,394.894h-3.479v-3h3.479v-3.079c0-3.359,2-5.119,5.72-5.119c0.64,0,1.56,0.12,2.199,0.32v2.959
			c-0.6-0.2-1.319-0.28-1.92-0.28c-1.64,0-2.6,0.52-2.6,2.319v2.879h4v3h-4v17.677h-3.399V394.894z"/>
		<path fill="#333333" d="M1639.6,394.894h-3.479v-3h3.479v-3.079c0-3.359,2-5.119,5.72-5.119c0.64,0,1.56,0.12,2.199,0.32v2.959
			c-0.6-0.2-1.319-0.28-1.92-0.28c-1.64,0-2.6,0.52-2.6,2.319v2.879h4v3h-4v17.677h-3.399V394.894z"/>
		<path fill="#333333" d="M1667.677,406.012c-0.92,4.6-4.159,7.039-8.838,7.039c-6.6,0-9.719-4.599-9.919-10.878
			c0-6.239,4.08-10.758,9.719-10.758c7.318,0,9.559,6.839,9.358,11.838h-15.478c-0.12,3.599,1.92,6.799,6.439,6.799
			c2.839,0,4.759-1.32,5.358-4.04H1667.677z M1664.397,400.253c-0.2-3.24-2.56-5.839-5.959-5.839c-3.52,0-5.719,2.639-5.919,5.839
			H1664.397z"/>
		<path fill="#333333" d="M1671.399,391.894h3.199v4.359h0.08c1.64-3.359,3.92-4.959,7.599-4.839v3.599
			c-5.479,0-7.479,3.08-7.479,8.359v9.198h-3.399V391.894z"/>
		<path fill="#333333" d="M1688.438,388.175h-3.399v-4.159h3.399V388.175z M1685.039,391.894h3.399v20.677h-3.399V391.894z"/>
		<path fill="#333333" d="M1693.719,391.894h3.199v3.28h0.08c1.439-2.56,3.72-3.759,6.719-3.759c5.439,0,7.119,3.119,7.119,7.559
			v13.598h-3.399v-13.998c0-2.56-1.6-4.159-4.199-4.159c-4.119,0-6.119,2.759-6.119,6.479v11.678h-3.399V391.894z"/>
		<path fill="#333333" d="M1733.796,410.811c0,6.759-3.039,10.158-9.599,10.158c-3.879,0-8.358-1.6-8.559-6.079h3.399
			c0.12,2.439,3.16,3.359,5.359,3.359c4.439,0,6.199-3.2,6.199-7.839v-1.36h-0.08c-1.16,2.52-3.8,3.759-6.439,3.759
			c-6.158,0-9.238-4.839-9.238-10.478c0-4.879,2.36-10.918,9.559-10.918c2.6,0,4.919,1.16,6.159,3.439h0.04v-2.96h3.199V410.811z
			 M1730.437,401.812c0-3.639-1.6-7.398-5.879-7.398c-4.359,0-6.119,3.559-6.119,7.519c0,3.719,1.359,7.878,5.839,7.878
			S1730.437,405.692,1730.437,401.812z"/>
		<path fill="#333333" d="M1755.638,420.489c-3.839-5.959-6.278-11.718-6.278-18.717c0-6.279,2.159-12.958,6.278-18.437h2.6
			c-3.839,6.039-5.278,11.918-5.278,18.437c0,6.719,1.479,12.598,5.278,18.717H1755.638z"/>
		<path fill="#333333" d="M1762.479,406.052c0.119,3.04,2.799,4,5.559,4c2.12,0,4.999-0.48,4.999-3.08
			c0-5.319-13.518-1.72-13.518-9.678c0-4.159,4.079-5.879,7.719-5.879c4.64,0,8.158,1.439,8.479,6.479h-3.399
			c-0.2-2.639-2.6-3.479-4.799-3.479c-2.04,0-4.399,0.56-4.399,2.639c0,2.4,3.6,2.88,6.759,3.6c3.399,0.76,6.759,1.919,6.759,5.879
			c0,4.959-4.6,6.519-8.799,6.519c-4.639,0-8.559-1.88-8.758-6.999H1762.479z"/>
		<path fill="#333333" d="M1797.516,412.571h-3.199v-3.279h-0.08c-1.44,2.56-3.72,3.759-6.719,3.759
			c-5.439,0-7.119-3.12-7.119-7.559v-13.598h3.399v13.998c0,2.56,1.6,4.159,4.199,4.159c4.119,0,6.119-2.76,6.119-6.479v-11.678
			h3.399V412.571z"/>
		<path fill="#333333" d="M1802.759,384.016h3.399v10.678h0.08c1.119-2.28,3.719-3.279,6.599-3.279
			c6.359,0,9.519,5.039,9.519,10.878c0,5.879-3.119,10.758-9.438,10.758c-2.08,0-5.199-0.8-6.679-3.24h-0.08v2.76h-3.399V384.016z
			 M1812.357,394.414c-4.6,0-6.319,3.959-6.319,7.798c0,4.04,1.84,7.839,6.519,7.839c4.64,0,6.199-3.959,6.199-7.999
			C1818.756,398.173,1816.756,394.414,1812.357,394.414z"/>
		<path fill="#333333" d="M1829.958,415.21c0,3.679-1.92,5.279-4.959,5.279c-0.601,0-1.16-0.04-1.76-0.16v-2.919
			c0.239,0.04,0.479,0.08,0.68,0.08h0.72c1.479,0,1.92-0.72,1.92-2.839v-22.756h3.399V415.21z M1829.958,388.175h-3.399v-4.159
			h3.399V388.175z"/>
		<path fill="#333333" d="M1852.875,406.012c-0.92,4.6-4.159,7.039-8.838,7.039c-6.6,0-9.719-4.599-9.919-10.878
			c0-6.239,4.08-10.758,9.719-10.758c7.318,0,9.559,6.839,9.358,11.838h-15.478c-0.12,3.599,1.92,6.799,6.439,6.799
			c2.839,0,4.759-1.32,5.358-4.04H1852.875z M1849.596,400.253c-0.2-3.24-2.56-5.839-5.959-5.839c-3.52,0-5.719,2.639-5.919,5.839
			H1849.596z"/>
		<path fill="#333333" d="M1870.756,398.533c-0.521-2.6-2.28-4.119-5.119-4.119c-4.92,0-6.439,3.919-6.439,8.079
			c0,3.839,1.72,7.559,6.039,7.559c3.319,0,5.239-1.88,5.679-5.039h3.479c-0.76,5.079-3.879,8.039-9.118,8.039
			c-6.319,0-9.679-4.359-9.679-10.558c0-6.199,3.2-11.078,9.759-11.078c4.719,0,8.398,2.199,8.918,7.119H1870.756z"/>
		<path fill="#333333" d="M1882.916,391.894h4.12v3h-4.12v12.838c0,1.6,0.44,1.84,2.56,1.84h1.561v3h-2.6
			c-3.52,0-4.92-0.72-4.92-4.519v-13.158h-3.519v-3h3.519v-6.199h3.399V391.894z"/>
		<path fill="#333333" d="M1342.123,441.894h4.12v3h-4.12v12.838c0,1.6,0.44,1.84,2.56,1.84h1.561v3h-2.6
			c-3.52,0-4.92-0.72-4.92-4.519v-13.158h-3.519v-3h3.519v-6.199h3.399V441.894z"/>
		<path fill="#333333" d="M1358.923,441.415c6.559,0,10.038,4.759,10.038,10.838c0,6.039-3.479,10.798-10.038,10.798
			c-6.56,0-10.039-4.759-10.039-10.798C1348.884,446.173,1352.363,441.415,1358.923,441.415z M1358.923,460.051
			c3.559,0,6.438-2.8,6.438-7.799s-2.88-7.838-6.438-7.838c-3.56,0-6.439,2.839-6.439,7.838S1355.363,460.051,1358.923,460.051z"/>
		<path fill="#333333" d="M1391.123,437.215h-9.519v-3.199h22.836v3.199h-9.519v25.356h-3.799V437.215z"/>
		<path fill="#333333" d="M1410.644,438.175h-3.399v-4.159h3.399V438.175z M1407.244,441.894h3.399v20.677h-3.399V441.894z"/>
		<path fill="#333333" d="M1420.643,441.894h4.12v3h-4.12v12.838c0,1.6,0.44,1.84,2.56,1.84h1.561v3h-2.6
			c-3.52,0-4.92-0.72-4.92-4.519v-13.158h-3.519v-3h3.519v-6.199h3.399V441.894z"/>
		<path fill="#333333" d="M1428.724,434.016h3.399v28.555h-3.399V434.016z"/>
		<path fill="#333333" d="M1455.039,456.012c-0.92,4.6-4.159,7.039-8.838,7.039c-6.6,0-9.719-4.599-9.919-10.878
			c0-6.239,4.08-10.758,9.719-10.758c7.318,0,9.559,6.839,9.358,11.838h-15.478c-0.12,3.599,1.92,6.799,6.439,6.799
			c2.839,0,4.759-1.32,5.358-4.04H1455.039z M1451.76,450.253c-0.2-3.24-2.56-5.839-5.959-5.839c-3.52,0-5.719,2.639-5.919,5.839
			H1451.76z"/>
		<path fill="#333333" d="M1469.202,444.254c-0.32-5.759,3.119-10.039,9.118-10.039c4.919,0,8.879,2.88,8.879,8.159
			c0,5-3.359,7.479-6.879,9.719c-3.52,2.12-7.319,3.999-7.959,7.479h14.558v3h-18.517c0.52-6.679,3.959-9.198,7.959-11.598
			c4.799-3,7.238-4.679,7.238-8.639c0-3.079-2.479-5.119-5.479-5.119c-3.959,0-5.639,3.64-5.519,7.039H1469.202z"/>
		<path fill="#333333" d="M1503.92,462.571h-3.399v-20.316h-7.358v-2.72c3.879,0,7.398-1,8.158-5.319h2.6V462.571z"/>
		<path fill="#333333" d="M1546.239,442.614c-0.84-4.04-4-6.079-7.999-6.079c-6.799,0-9.678,5.599-9.678,11.558
			c0,6.519,2.879,11.958,9.718,11.958c4.959,0,7.919-3.52,8.238-8.239h3.8c-0.76,7.159-5.119,11.438-12.357,11.438
			c-8.839,0-13.198-6.559-13.198-14.877c0-8.318,4.719-15.037,13.518-15.037c5.959,0,10.918,3.199,11.758,9.278H1546.239z"/>
		<path fill="#333333" d="M1563.401,441.415c6.559,0,10.038,4.759,10.038,10.838c0,6.039-3.479,10.798-10.038,10.798
			c-6.56,0-10.039-4.759-10.039-10.798C1553.362,446.173,1556.842,441.415,1563.401,441.415z M1563.401,460.051
			c3.559,0,6.438-2.8,6.438-7.799s-2.88-7.838-6.438-7.838c-3.56,0-6.439,2.839-6.439,7.838S1559.842,460.051,1563.401,460.051z"/>
		<path fill="#333333" d="M1595.919,462.571h-3.399v-2.799h-0.08c-1.119,2.279-3.719,3.279-6.599,3.279
			c-6.358,0-9.519-5.039-9.519-10.878c0-5.839,3.12-10.758,9.438-10.758c2.08,0,5.199,0.8,6.679,3.239h0.08v-10.638h3.399V462.571z
			 M1586.321,460.051c4.599,0,6.318-3.959,6.318-7.799c0-4.039-1.84-7.838-6.519-7.838c-4.64,0-6.199,3.959-6.199,7.999
			C1579.922,456.292,1581.922,460.051,1586.321,460.051z"/>
		<path fill="#333333" d="M1618.799,456.012c-0.92,4.6-4.159,7.039-8.838,7.039c-6.6,0-9.719-4.599-9.919-10.878
			c0-6.239,4.08-10.758,9.719-10.758c7.318,0,9.559,6.839,9.358,11.838h-15.478c-0.12,3.599,1.92,6.799,6.439,6.799
			c2.839,0,4.759-1.32,5.358-4.04H1618.799z M1615.52,450.253c-0.2-3.24-2.56-5.839-5.959-5.839c-3.52,0-5.719,2.639-5.919,5.839
			H1615.52z"/>
		<path fill="#333333" d="M1642.681,441.415c6.559,0,10.038,4.759,10.038,10.838c0,6.039-3.479,10.798-10.038,10.798
			c-6.56,0-10.039-4.759-10.039-10.798C1632.642,446.173,1636.121,441.415,1642.681,441.415z M1642.681,460.051
			c3.559,0,6.438-2.8,6.438-7.799s-2.88-7.838-6.438-7.838c-3.56,0-6.439,2.839-6.439,7.838S1639.121,460.051,1642.681,460.051z"/>
		<path fill="#333333" d="M1658.121,444.894h-3.479v-3h3.479v-3.079c0-3.359,2-5.119,5.72-5.119c0.64,0,1.56,0.12,2.199,0.32v2.959
			c-0.6-0.2-1.319-0.28-1.92-0.28c-1.64,0-2.6,0.52-2.6,2.319v2.879h4v3h-4v17.677h-3.399V444.894z"/>
		<path fill="#333333" d="M1680.241,434.016h18.757v3.199h-14.957v9.079h13.118v3.2h-13.118v13.078h-3.8V434.016z"/>
		<path fill="#333333" d="M1720.278,456.012c-0.92,4.6-4.159,7.039-8.838,7.039c-6.6,0-9.719-4.599-9.919-10.878
			c0-6.239,4.08-10.758,9.719-10.758c7.318,0,9.559,6.839,9.358,11.838h-15.478c-0.12,3.599,1.92,6.799,6.439,6.799
			c2.839,0,4.759-1.32,5.358-4.04H1720.278z M1716.999,450.253c-0.2-3.24-2.56-5.839-5.959-5.839c-3.52,0-5.719,2.639-5.919,5.839
			H1716.999z"/>
		<path fill="#333333" d="M1742.598,462.571h-3.399v-2.799h-0.08c-1.119,2.279-3.719,3.279-6.599,3.279
			c-6.358,0-9.519-5.039-9.519-10.878c0-5.839,3.12-10.758,9.438-10.758c2.08,0,5.199,0.8,6.679,3.239h0.08v-10.638h3.399V462.571z
			 M1733,460.051c4.599,0,6.318-3.959,6.318-7.799c0-4.039-1.84-7.838-6.519-7.838c-4.64,0-6.199,3.959-6.199,7.999
			C1726.601,456.292,1728.601,460.051,1733,460.051z"/>
		<path fill="#333333" d="M1765.478,456.012c-0.92,4.6-4.159,7.039-8.838,7.039c-6.6,0-9.719-4.599-9.919-10.878
			c0-6.239,4.08-10.758,9.719-10.758c7.318,0,9.559,6.839,9.358,11.838h-15.478c-0.12,3.599,1.92,6.799,6.439,6.799
			c2.839,0,4.759-1.32,5.358-4.04H1765.478z M1762.198,450.253c-0.2-3.24-2.56-5.839-5.959-5.839c-3.52,0-5.719,2.639-5.919,5.839
			H1762.198z"/>
		<path fill="#333333" d="M1769.2,441.894h3.199v4.359h0.08c1.64-3.359,3.92-4.959,7.599-4.839v3.599
			c-5.479,0-7.479,3.08-7.479,8.359v9.198h-3.399V441.894z"/>
		<path fill="#333333" d="M1800.957,462.491c-0.601,0.36-1.44,0.56-2.44,0.56c-1.76,0-2.879-0.96-2.879-3.2
			c-1.88,2.24-4.399,3.2-7.279,3.2c-3.759,0-6.839-1.64-6.839-5.799c0-4.679,3.479-5.719,6.999-6.359
			c3.72-0.76,6.959-0.44,6.959-3.039c0-3-2.479-3.439-4.6-3.439c-2.879,0-4.999,0.88-5.159,3.919h-3.399
			c0.2-5.119,4.12-6.918,8.759-6.918c3.72,0,7.759,0.84,7.759,5.679v10.638c0,1.6,0,2.32,1.08,2.32c0.319,0,0.68-0.08,1.04-0.2
			V462.491z M1795.438,451.893c-2.64,1.959-10.318,0.04-10.318,5.119c0,2.24,1.92,3.04,3.999,3.04c4.479,0,6.319-2.76,6.319-4.679
			V451.893z"/>
		<path fill="#333333" d="M1804.319,434.016h3.399v28.555h-3.399V434.016z"/>
		<path fill="#333333" d="M1337.964,484.016h13.438c5.398,0,8.678,2.879,8.678,7.479c0,3.479-1.479,6.279-4.959,7.239v0.08
			c3.319,0.64,3.96,3.12,4.279,5.878c0.2,2.76,0.08,5.96,1.68,7.879h-4.239c-1.08-1.159-0.479-4.239-1.04-7.038
			c-0.439-2.76-1.079-5.159-4.759-5.159h-9.278v12.197h-3.8V484.016z M1349.683,497.173c3.519,0,6.599-0.92,6.599-5.079
			c0-2.839-1.52-4.879-5.079-4.879h-9.438v9.958H1349.683z"/>
		<path fill="#333333" d="M1382.441,506.012c-0.92,4.6-4.159,7.039-8.838,7.039c-6.6,0-9.719-4.6-9.919-10.879
			c0-6.238,4.08-10.757,9.719-10.757c7.318,0,9.559,6.839,9.358,11.837h-15.478c-0.12,3.6,1.92,6.799,6.439,6.799
			c2.839,0,4.759-1.319,5.358-4.039H1382.441z M1379.162,500.253c-0.2-3.24-2.56-5.839-5.959-5.839c-3.52,0-5.719,2.639-5.919,5.839
			H1379.162z"/>
		<path fill="#333333" d="M1404.121,510.811c0,6.759-3.039,10.158-9.599,10.158c-3.879,0-8.358-1.6-8.559-6.078h3.399
			c0.12,2.439,3.16,3.359,5.359,3.359c4.439,0,6.199-3.2,6.199-7.839v-1.36h-0.08c-1.16,2.52-3.8,3.76-6.439,3.76
			c-6.158,0-9.238-4.839-9.238-10.479c0-4.879,2.36-10.917,9.559-10.917c2.6,0,4.919,1.16,6.159,3.439h0.04v-2.96h3.199V510.811z
			 M1400.762,501.812c0-3.639-1.6-7.398-5.879-7.398c-4.359,0-6.119,3.559-6.119,7.519c0,3.719,1.36,7.878,5.839,7.878
			C1399.082,509.811,1400.762,505.691,1400.762,501.812z"/>
		<path fill="#333333" d="M1426.361,512.57h-3.199v-3.279h-0.08c-1.44,2.56-3.72,3.76-6.719,3.76c-5.439,0-7.119-3.12-7.119-7.559
			v-13.598h3.399v13.998c0,2.56,1.6,4.159,4.199,4.159c4.119,0,6.119-2.76,6.119-6.479v-11.678h3.399V512.57z"/>
		<path fill="#333333" d="M1431.685,484.016h3.399v28.555h-3.399V484.016z"/>
		<path fill="#333333" d="M1458.681,512.49c-0.601,0.36-1.44,0.561-2.44,0.561c-1.76,0-2.879-0.96-2.879-3.2
			c-1.88,2.24-4.399,3.2-7.279,3.2c-3.759,0-6.839-1.64-6.839-5.8c0-4.679,3.479-5.719,6.999-6.358
			c3.72-0.76,6.959-0.44,6.959-3.039c0-3-2.479-3.439-4.6-3.439c-2.879,0-4.999,0.88-5.159,3.919h-3.399
			c0.2-5.119,4.12-6.918,8.759-6.918c3.72,0,7.759,0.84,7.759,5.679v10.638c0,1.6,0,2.319,1.08,2.319c0.319,0,0.68-0.08,1.04-0.2
			V512.49z M1453.161,501.893c-2.64,1.959-10.318,0.04-10.318,5.119c0,2.239,1.92,3.039,3.999,3.039c4.479,0,6.319-2.76,6.319-4.679
			V501.893z"/>
		<path fill="#333333" d="M1466.562,491.894h4.12v3h-4.12v12.838c0,1.6,0.44,1.84,2.56,1.84h1.561v2.999h-2.6
			c-3.52,0-4.92-0.72-4.92-4.519v-13.158h-3.519v-3h3.519v-6.199h3.399V491.894z"/>
		<path fill="#333333" d="M1478.042,488.175h-3.399v-4.159h3.399V488.175z M1474.643,491.894h3.399v20.676h-3.399V491.894z"/>
		<path fill="#333333" d="M1492.241,491.415c6.559,0,10.038,4.759,10.038,10.837c0,6.039-3.479,10.799-10.038,10.799
			c-6.56,0-10.039-4.76-10.039-10.799C1482.202,496.173,1485.682,491.415,1492.241,491.415z M1492.241,510.051
			c3.559,0,6.438-2.8,6.438-7.799c0-4.999-2.88-7.838-6.438-7.838c-3.56,0-6.439,2.839-6.439,7.838
			C1485.802,507.251,1488.682,510.051,1492.241,510.051z"/>
		<path fill="#333333" d="M1506.282,491.894h3.199v3.28h0.08c1.439-2.56,3.72-3.759,6.719-3.759c5.439,0,7.119,3.119,7.119,7.559
			v13.597H1520v-13.997c0-2.56-1.6-4.159-4.199-4.159c-4.119,0-6.119,2.759-6.119,6.479v11.678h-3.399V491.894z"/>
		<path fill="#333333" d="M1530.603,506.052c0.119,3.039,2.799,3.999,5.559,3.999c2.12,0,4.999-0.479,4.999-3.079
			c0-5.319-13.518-1.72-13.518-9.678c0-4.159,4.079-5.879,7.719-5.879c4.64,0,8.158,1.439,8.479,6.479h-3.399
			c-0.2-2.639-2.6-3.479-4.799-3.479c-2.04,0-4.399,0.56-4.399,2.639c0,2.4,3.6,2.88,6.759,3.6c3.399,0.759,6.759,1.919,6.759,5.878
			c0,4.96-4.6,6.52-8.799,6.52c-4.639,0-8.559-1.88-8.758-6.999H1530.603z"/>
		<path fill="#333333" d="M1545.562,520.489c3.84-6.039,5.279-11.918,5.279-18.437c0-6.719-1.479-12.598-5.279-18.717h2.6
			c3.84,5.959,6.279,11.718,6.279,18.717c0,6.278-2.159,12.957-6.279,18.437H1545.562z"/>
		<path fill="#333333" d="M1588.319,512.49c-0.601,0.36-1.44,0.561-2.44,0.561c-1.76,0-2.879-0.96-2.879-3.2
			c-1.88,2.24-4.399,3.2-7.279,3.2c-3.759,0-6.839-1.64-6.839-5.8c0-4.679,3.479-5.719,6.999-6.358
			c3.72-0.76,6.959-0.44,6.959-3.039c0-3-2.479-3.439-4.6-3.439c-2.879,0-4.999,0.88-5.159,3.919h-3.399
			c0.2-5.119,4.12-6.918,8.759-6.918c3.72,0,7.759,0.84,7.759,5.679v10.638c0,1.6,0,2.319,1.08,2.319c0.319,0,0.68-0.08,1.04-0.2
			V512.49z M1582.8,501.893c-2.64,1.959-10.318,0.04-10.318,5.119c0,2.239,1.92,3.039,3.999,3.039c4.479,0,6.319-2.76,6.319-4.679
			V501.893z"/>
		<path fill="#333333" d="M1593.562,506.052c0.119,3.039,2.799,3.999,5.559,3.999c2.12,0,4.999-0.479,4.999-3.079
			c0-5.319-13.518-1.72-13.518-9.678c0-4.159,4.079-5.879,7.719-5.879c4.64,0,8.158,1.439,8.479,6.479h-3.399
			c-0.2-2.639-2.6-3.479-4.799-3.479c-2.04,0-4.399,0.56-4.399,2.639c0,2.4,3.6,2.88,6.759,3.6c3.399,0.759,6.759,1.919,6.759,5.878
			c0,4.96-4.6,6.52-8.799,6.52c-4.639,0-8.559-1.88-8.758-6.999H1593.562z"/>
		<path fill="#333333" d="M1641.078,512.57h-3.399v-2.799h-0.08c-1.119,2.279-3.719,3.279-6.599,3.279
			c-6.358,0-9.519-5.039-9.519-10.879c0-5.838,3.12-10.757,9.438-10.757c2.08,0,5.199,0.8,6.679,3.239h0.08v-10.638h3.399V512.57z
			 M1631.48,510.051c4.599,0,6.318-3.959,6.318-7.799c0-4.039-1.84-7.838-6.519-7.838c-4.64,0-6.199,3.959-6.199,7.998
			C1625.081,506.292,1627.081,510.051,1631.48,510.051z"/>
		<path fill="#333333" d="M1663.958,506.012c-0.92,4.6-4.159,7.039-8.838,7.039c-6.6,0-9.719-4.6-9.919-10.879
			c0-6.238,4.08-10.757,9.719-10.757c7.318,0,9.559,6.839,9.358,11.837h-15.478c-0.12,3.6,1.92,6.799,6.439,6.799
			c2.839,0,4.759-1.319,5.358-4.039H1663.958z M1660.679,500.253c-0.2-3.24-2.56-5.839-5.959-5.839c-3.52,0-5.719,2.639-5.919,5.839
			H1660.679z"/>
		<path fill="#333333" d="M1669.2,494.894h-3.479v-3h3.479v-3.079c0-3.359,2-5.119,5.72-5.119c0.64,0,1.56,0.12,2.199,0.32v2.959
			c-0.6-0.2-1.319-0.28-1.92-0.28c-1.64,0-2.6,0.52-2.6,2.319v2.879h4v3h-4v17.677h-3.399V494.894z M1679.839,488.175v-4.159h3.399
			v4.159H1679.839z M1679.839,512.57v-20.676h3.399v20.676H1679.839z"/>
		<path fill="#333333" d="M1688.521,491.894h3.199v3.28h0.08c1.439-2.56,3.72-3.759,6.719-3.759c5.439,0,7.119,3.119,7.119,7.559
			v13.597h-3.399v-13.997c0-2.56-1.6-4.159-4.199-4.159c-4.119,0-6.119,2.759-6.119,6.479v11.678h-3.399V491.894z"/>
		<path fill="#333333" d="M1728.397,506.012c-0.92,4.6-4.159,7.039-8.838,7.039c-6.6,0-9.719-4.6-9.919-10.879
			c0-6.238,4.08-10.757,9.719-10.757c7.318,0,9.559,6.839,9.358,11.837h-15.478c-0.12,3.6,1.92,6.799,6.439,6.799
			c2.839,0,4.759-1.319,5.358-4.039H1728.397z M1725.118,500.253c-0.2-3.24-2.56-5.839-5.959-5.839c-3.52,0-5.719,2.639-5.919,5.839
			H1725.118z"/>
		<path fill="#333333" d="M1750.717,512.57h-3.399v-2.799h-0.08c-1.119,2.279-3.719,3.279-6.599,3.279
			c-6.358,0-9.519-5.039-9.519-10.879c0-5.838,3.12-10.757,9.438-10.757c2.08,0,5.199,0.8,6.679,3.239h0.08v-10.638h3.399V512.57z
			 M1741.119,510.051c4.599,0,6.318-3.959,6.318-7.799c0-4.039-1.84-7.838-6.519-7.838c-4.64,0-6.199,3.959-6.199,7.998
			C1734.72,506.292,1736.72,510.051,1741.119,510.051z"/>
		<path fill="#333333" d="M1767.2,484.016h3.399v10.678h0.08c1.119-2.28,3.719-3.279,6.599-3.279c6.359,0,9.519,5.039,9.519,10.877
			c0,5.879-3.119,10.759-9.438,10.759c-2.08,0-5.199-0.8-6.679-3.24h-0.08v2.76h-3.399V484.016z M1776.799,494.414
			c-4.6,0-6.319,3.959-6.319,7.798c0,4.04,1.84,7.839,6.519,7.839c4.64,0,6.199-3.959,6.199-7.998
			C1783.197,498.173,1781.197,494.414,1776.799,494.414z"/>
		<path fill="#333333" d="M1798.918,515.33c-1.6,3.999-2.959,5.52-5.998,5.52c-0.801,0-1.601-0.08-2.36-0.36v-3.119
			c0.641,0.199,1.32,0.479,2,0.479c1.399,0,2.159-0.64,2.8-1.88l1.399-3.52l-8.198-20.556h3.839l6.039,16.917h0.08l5.799-16.917h3.6
			L1798.918,515.33z"/>
		<path fill="#333333" d="M1359.32,559.012c-2.239,2.96-5.839,4.239-9.158,4.239c-8.519,0-13.598-6.919-13.598-14.397
			c0-8.318,4.56-15.518,13.598-15.518c6.199,0,11.238,2.8,12.278,9.479h-3.8c-0.76-4.319-4.199-6.279-8.479-6.279
			c-6.919,0-9.798,6.039-9.798,12.118c0,5.959,3.439,11.398,9.798,11.398c5.919,0,9.358-4.08,9.158-9.318h-9.118v-3.2h12.518v15.038
			h-2.399L1359.32,559.012z"/>
		<path fill="#333333" d="M1373.322,551.693l-7.198-9.799h4.359l4.959,7.239l5.159-7.239h4.079l-7.118,9.519l7.998,11.158h-4.359
			l-5.759-8.559l-5.759,8.559h-4.119L1373.322,551.693z"/>
		<path fill="#333333" d="M1389.043,534.016h12.519c5.719,0,8.758,3.12,8.758,8.438c0,5.319-3.039,8.479-8.758,8.438h-8.719v11.679
			h-3.8V534.016z M1392.843,547.693h7.438c4.319,0.04,6.239-1.84,6.239-5.239s-1.92-5.239-6.239-5.239h-7.438V547.693z"/>
		<path fill="#333333" d="M1438.161,533.336c9.079,0,13.678,7.159,13.678,14.957c0,7.799-4.599,14.958-13.678,14.958
			c-9.078,0-13.678-7.159-13.678-14.958C1424.483,540.495,1429.083,533.336,1438.161,533.336z M1438.161,560.052
			c6.959,0,9.879-5.999,9.879-11.759c0-5.759-2.92-11.758-9.879-11.758s-9.878,5.999-9.878,11.758
			C1428.283,554.053,1431.202,560.052,1438.161,560.052z"/>
		<path fill="#333333" d="M1457.322,544.894h-3.479v-2.999h3.479v-3.079c0-3.359,2-5.119,5.72-5.119c0.64,0,1.56,0.119,2.199,0.319
			v2.96c-0.6-0.2-1.319-0.28-1.92-0.28c-1.64,0-2.6,0.52-2.6,2.319v2.88h4v2.999h-4v17.678h-3.399V544.894z"/>
		<path fill="#333333" d="M1469.162,544.894h-3.479v-2.999h3.479v-3.079c0-3.359,2-5.119,5.72-5.119c0.64,0,1.56,0.119,2.199,0.319
			v2.96c-0.6-0.2-1.319-0.28-1.92-0.28c-1.64,0-2.6,0.52-2.6,2.319v2.88h4v2.999h-4v17.678h-3.399V544.894z"/>
		<path fill="#333333" d="M1497.239,556.012c-0.92,4.6-4.159,7.039-8.838,7.039c-6.6,0-9.719-4.599-9.919-10.878
			c0-6.239,4.08-10.758,9.719-10.758c7.318,0,9.559,6.839,9.358,11.838h-15.478c-0.12,3.599,1.92,6.799,6.439,6.799
			c2.839,0,4.759-1.32,5.358-4.04H1497.239z M1493.96,550.253c-0.2-3.239-2.56-5.839-5.959-5.839c-3.52,0-5.719,2.64-5.919,5.839
			H1493.96z"/>
		<path fill="#333333" d="M1500.962,541.895h3.199v4.359h0.08c1.64-3.359,3.92-4.959,7.599-4.839v3.599
			c-5.479,0-7.479,3.08-7.479,8.359v9.198h-3.399V541.895z"/>
		<path fill="#333333" d="M1518.001,538.175h-3.399v-4.159h3.399V538.175z M1514.602,541.895h3.399v20.677h-3.399V541.895z"/>
		<path fill="#333333" d="M1523.281,541.895h3.199v3.279h0.08c1.439-2.56,3.72-3.759,6.719-3.759c5.439,0,7.119,3.119,7.119,7.559
			v13.598h-3.399v-13.998c0-2.56-1.6-4.159-4.199-4.159c-4.119,0-6.119,2.76-6.119,6.479v11.679h-3.399V541.895z"/>
		<path fill="#333333" d="M1563.358,560.812c0,6.759-3.039,10.158-9.599,10.158c-3.879,0-8.358-1.6-8.559-6.079h3.399
			c0.12,2.439,3.16,3.359,5.359,3.359c4.439,0,6.199-3.199,6.199-7.839v-1.359h-0.08c-1.16,2.52-3.8,3.76-6.439,3.76
			c-6.158,0-9.238-4.84-9.238-10.479c0-4.88,2.36-10.918,9.559-10.918c2.6,0,4.919,1.159,6.159,3.439h0.04v-2.96h3.199V560.812z
			 M1559.999,551.812c0-3.639-1.6-7.398-5.879-7.398c-4.359,0-6.119,3.56-6.119,7.519c0,3.72,1.359,7.879,5.839,7.879
			S1559.999,555.692,1559.999,551.812z"/>
		<path fill="#333333" d="M1587.92,534.016h4.199l11.158,28.556h-4.199l-3.119-8.599h-12.078l-3.199,8.599h-3.92L1587.92,534.016z
			 M1585.081,550.773h9.678L1590,537.455h-0.08L1585.081,550.773z"/>
		<path fill="#333333" d="M1607.602,556.052c0.119,3.04,2.799,4,5.559,4c2.12,0,4.999-0.48,4.999-3.08
			c0-5.318-13.518-1.72-13.518-9.678c0-4.159,4.079-5.879,7.719-5.879c4.64,0,8.158,1.439,8.479,6.479h-3.399
			c-0.2-2.64-2.6-3.479-4.799-3.479c-2.04,0-4.399,0.56-4.399,2.64c0,2.399,3.6,2.88,6.759,3.6c3.399,0.76,6.759,1.919,6.759,5.879
			c0,4.959-4.6,6.519-8.799,6.519c-4.639,0-8.559-1.879-8.758-6.999H1607.602z"/>
		<path fill="#333333" d="M1627.602,556.052c0.119,3.04,2.799,4,5.559,4c2.12,0,4.999-0.48,4.999-3.08
			c0-5.318-13.518-1.72-13.518-9.678c0-4.159,4.079-5.879,7.719-5.879c4.64,0,8.158,1.439,8.479,6.479h-3.399
			c-0.2-2.64-2.6-3.479-4.799-3.479c-2.04,0-4.399,0.56-4.399,2.64c0,2.399,3.6,2.88,6.759,3.6c3.399,0.76,6.759,1.919,6.759,5.879
			c0,4.959-4.6,6.519-8.799,6.519c-4.639,0-8.559-1.879-8.758-6.999H1627.602z"/>
		<path fill="#333333" d="M1663.158,556.012c-0.92,4.6-4.159,7.039-8.838,7.039c-6.6,0-9.719-4.599-9.919-10.878
			c0-6.239,4.08-10.758,9.719-10.758c7.318,0,9.559,6.839,9.358,11.838h-15.478c-0.12,3.599,1.92,6.799,6.439,6.799
			c2.839,0,4.759-1.32,5.358-4.04H1663.158z M1659.879,550.253c-0.2-3.239-2.56-5.839-5.959-5.839c-3.52,0-5.719,2.64-5.919,5.839
			H1659.879z"/>
		<path fill="#333333" d="M1669.081,556.052c0.119,3.04,2.799,4,5.559,4c2.12,0,4.999-0.48,4.999-3.08
			c0-5.318-13.518-1.72-13.518-9.678c0-4.159,4.079-5.879,7.719-5.879c4.64,0,8.158,1.439,8.479,6.479h-3.399
			c-0.2-2.64-2.6-3.479-4.799-3.479c-2.04,0-4.399,0.56-4.399,2.64c0,2.399,3.6,2.88,6.759,3.6c3.399,0.76,6.759,1.919,6.759,5.879
			c0,4.959-4.6,6.519-8.799,6.519c-4.639,0-8.559-1.879-8.758-6.999H1669.081z"/>
		<path fill="#333333" d="M1689.081,556.052c0.119,3.04,2.799,4,5.559,4c2.12,0,4.999-0.48,4.999-3.08
			c0-5.318-13.518-1.72-13.518-9.678c0-4.159,4.079-5.879,7.719-5.879c4.64,0,8.158,1.439,8.479,6.479h-3.399
			c-0.2-2.64-2.6-3.479-4.799-3.479c-2.04,0-4.399,0.56-4.399,2.64c0,2.399,3.6,2.88,6.759,3.6c3.399,0.76,6.759,1.919,6.759,5.879
			c0,4.959-4.6,6.519-8.799,6.519c-4.639,0-8.559-1.879-8.758-6.999H1689.081z"/>
		<path fill="#333333" d="M1707.001,541.895h3.199v3.039h0.08c1.56-2.359,3.76-3.519,6.679-3.519c2.56,0,4.84,0.959,5.68,3.519
			c1.399-2.239,3.799-3.519,6.479-3.519c4.119,0,6.879,1.72,6.879,5.999v15.157h-3.399v-13.558c0-2.56-0.68-4.6-3.999-4.6
			s-5.399,2.08-5.399,5.279v12.878h-3.399v-13.558c0-2.68-0.84-4.6-3.879-4.6c-4,0-5.52,3.68-5.52,5.279v12.878h-3.399V541.895z"/>
		<path fill="#333333" d="M1758.758,556.012c-0.92,4.6-4.159,7.039-8.838,7.039c-6.6,0-9.719-4.599-9.919-10.878
			c0-6.239,4.08-10.758,9.719-10.758c7.318,0,9.559,6.839,9.358,11.838h-15.478c-0.12,3.599,1.92,6.799,6.439,6.799
			c2.839,0,4.759-1.32,5.358-4.04H1758.758z M1755.479,550.253c-0.2-3.239-2.56-5.839-5.959-5.839c-3.52,0-5.719,2.64-5.919,5.839
			H1755.479z"/>
		<path fill="#333333" d="M1762.601,541.895h3.199v3.279h0.08c1.439-2.56,3.72-3.759,6.719-3.759c5.439,0,7.119,3.119,7.119,7.559
			v13.598h-3.399v-13.998c0-2.56-1.6-4.159-4.199-4.159c-4.119,0-6.119,2.76-6.119,6.479v11.679h-3.399V541.895z"/>
		<path fill="#333333" d="M1789.56,541.895h4.12v2.999h-4.12v12.838c0,1.601,0.44,1.84,2.56,1.84h1.561v3h-2.6
			c-3.52,0-4.92-0.72-4.92-4.52v-13.158h-3.519v-2.999h3.519v-6.199h3.399V541.895z"/>
		<path fill="#333333" d="M1363.76,612.571h-3.959l-6.52-23.996h-0.08l-6.599,23.996h-3.959l-7.319-28.556h3.88l5.599,23.757h0.08
			l6.399-23.757h4.119l6.318,23.757h0.08l5.8-23.757h3.799L1363.76,612.571z"/>
		<path fill="#333333" d="M1375.004,584.016h3.8v12.278h15.037v-12.278h3.8v28.556h-3.8v-13.078h-15.037v13.078h-3.8V584.016z"/>
		<path fill="#333333" d="M1400.765,615.57h19.997v2h-19.997V615.57z"/>
		<path fill="#333333" d="M1447.16,615.051l-4.359-3.52c-1.92,1.16-4.199,1.72-6.839,1.72c-9.078,0-13.678-7.158-13.678-14.957
			s4.6-14.958,13.678-14.958c9.079,0,13.678,7.159,13.678,14.958c0,4.359-1.439,8.519-4.319,11.357l3.76,3L1447.16,615.051z
			 M1438.762,604.413l3.799,3.039c2.24-2.239,3.28-5.679,3.28-9.158c0-5.76-2.92-11.758-9.879-11.758s-9.878,5.998-9.878,11.758
			c0,5.759,2.919,11.758,9.878,11.758c1.4,0,2.72-0.28,3.96-0.8l-3.16-2.52L1438.762,604.413z"/>
		<path fill="#333333" d="M1454.363,584.016h5.199l8.999,23.996l9.038-23.996h5.199v28.556h-3.6v-23.756h-0.08l-8.918,23.756h-3.24
			l-8.918-23.756h-0.08v23.756h-3.6V584.016z"/>
		<path fill="#333333" d="M1505.641,592.375c-0.44-4.12-3.119-5.839-7.079-5.839c-3.239,0-6.398,1.159-6.398,4.879
			c0,7.039,18.276,2.079,18.276,13.317c0,6.079-5.959,8.519-11.158,8.519c-6.398,0-11.798-3.159-11.798-10.078h3.6
			c0,4.799,3.999,6.879,8.318,6.879c3.439,0,7.239-1.08,7.239-5.199c0-7.839-18.277-2.68-18.277-13.158
			c0-5.759,5.119-8.358,10.358-8.358c5.839,0,10.318,2.76,10.519,9.039H1505.641z"/>
		<path fill="#333333" d="M1511.924,615.57h19.997v2h-19.997V615.57z"/>
		<path fill="#333333" d="M1551.561,592.375c-0.44-4.12-3.119-5.839-7.079-5.839c-3.239,0-6.398,1.159-6.398,4.879
			c0,7.039,18.276,2.079,18.276,13.317c0,6.079-5.959,8.519-11.158,8.519c-6.398,0-11.798-3.159-11.798-10.078h3.6
			c0,4.799,3.999,6.879,8.318,6.879c3.439,0,7.239-1.08,7.239-5.199c0-7.839-18.277-2.68-18.277-13.158
			c0-5.759,5.119-8.358,10.358-8.358c5.839,0,10.318,2.76,10.519,9.039H1551.561z"/>
		<path fill="#333333" d="M1573.041,583.336c9.079,0,13.678,7.159,13.678,14.958s-4.599,14.957-13.678,14.957
			c-9.078,0-13.678-7.158-13.678-14.957S1563.963,583.336,1573.041,583.336z M1573.041,610.052c6.959,0,9.879-5.999,9.879-11.758
			c0-5.76-2.92-11.758-9.879-11.758s-9.878,5.998-9.878,11.758C1563.163,604.053,1566.082,610.052,1573.041,610.052z"/>
		<path fill="#333333" d="M1591.362,584.016h12.519c5.719,0,8.758,3.12,8.758,8.439c0,5.318-3.039,8.479-8.758,8.438h-8.719v11.678
			h-3.8V584.016z M1595.162,597.693h7.438c4.319,0.04,6.239-1.839,6.239-5.238s-1.92-5.239-6.239-5.239h-7.438V597.693z"/>
		<path fill="#333333" d="M1614.163,615.57h19.997v2h-19.997V615.57z"/>
		<path fill="#333333" d="M1645.281,584.216c8.879,0,9.438,8.199,9.438,14.438c0,6.239-0.56,14.397-9.438,14.397
			s-9.438-8.158-9.438-14.397C1635.843,592.415,1636.402,584.216,1645.281,584.216z M1645.281,610.052
			c5.799,0,5.839-7.199,5.839-11.438c0-4.199-0.04-11.397-5.839-11.397s-5.839,7.198-5.839,11.397
			C1639.442,602.853,1639.482,610.052,1645.281,610.052z"/>
		<path fill="#333333" d="M1667.521,584.216c8.879,0,9.438,8.199,9.438,14.438c0,6.239-0.56,14.397-9.438,14.397
			s-9.438-8.158-9.438-14.397C1658.083,592.415,1658.643,584.216,1667.521,584.216z M1667.521,610.052
			c5.799,0,5.839-7.199,5.839-11.438c0-4.199-0.04-11.397-5.839-11.397s-5.839,7.198-5.839,11.397
			C1661.683,602.853,1661.723,610.052,1667.521,610.052z"/>
		<path fill="#333333" d="M1689.762,584.216c8.879,0,9.438,8.199,9.438,14.438c0,6.239-0.56,14.397-9.438,14.397
			s-9.438-8.158-9.438-14.397C1680.323,592.415,1680.883,584.216,1689.762,584.216z M1689.762,610.052
			c5.799,0,5.839-7.199,5.839-11.438c0-4.199-0.04-11.397-5.839-11.397s-5.839,7.198-5.839,11.397
			C1683.923,602.853,1683.963,610.052,1689.762,610.052z"/>
		<path fill="#333333" d="M1719.681,587.695h-11.438l-1.52,8.159l0.08,0.08c1.24-1.4,3.359-2.04,5.279-2.04
			c5.039,0,9.158,3.199,9.158,9.718c0,4.8-3.319,9.438-9.918,9.438c-4.919,0-8.919-2.999-9.039-8.118h3.399
			c0.2,2.92,2.56,5.119,5.959,5.119c3.24,0,5.999-2.239,5.999-6.719c0-3.72-2.56-6.439-6.398-6.439c-2.2,0-3.96,1.08-5.279,2.68
			l-2.92-0.16l2.64-14.717h13.998V587.695z"/>
		<path fill="#333333" d="M1726.443,608.132h4.439v4.439h-4.439V608.132z"/>
	</g>
</g>
<g>
	<rect x="243.105" y="463.498" fill="none" width="548.021" height="469.233"/>
	<path fill="#333333" d="M253.104,470.661c3.959,0,7.159,3.16,7.159,7.119c0,3.959-3.2,7.159-7.159,7.159
		c-3.959,0-7.119-3.2-7.119-7.159C245.984,473.821,249.144,470.661,253.104,470.661z"/>
	<path fill="#333333" d="M285.103,463.502h4.2l11.158,28.555h-4.199l-3.119-8.599h-12.078l-3.2,8.599h-3.919L285.103,463.502z
		 M282.264,480.26h9.678l-4.759-13.318h-0.08L282.264,480.26z"/>
	<path fill="#333333" d="M302.905,463.502h3.399v28.555h-3.399V463.502z"/>
	<path fill="#333333" d="M311.784,463.502h3.399v28.555h-3.399V463.502z"/>
	<path fill="#333333" d="M357.939,492.058h-3.959l-6.519-23.996h-0.08l-6.599,23.996h-3.959l-7.319-28.555h3.879l5.599,23.756h0.08
		l6.399-23.756h4.12l6.319,23.756h0.08l5.799-23.756h3.799L357.939,492.058z"/>
	<path fill="#333333" d="M386.94,491.978c-0.6,0.36-1.44,0.56-2.439,0.56c-1.76,0-2.879-0.96-2.879-3.2
		c-1.88,2.24-4.399,3.2-7.279,3.2c-3.76,0-6.839-1.64-6.839-5.799c0-4.679,3.479-5.719,6.999-6.359
		c3.72-0.76,6.959-0.44,6.959-3.039c0-3-2.479-3.439-4.599-3.439c-2.88,0-5,0.88-5.159,3.919h-3.399
		c0.2-5.119,4.119-6.918,8.758-6.918c3.72,0,7.759,0.84,7.759,5.679v10.638c0,1.6,0,2.32,1.08,2.32c0.32,0,0.68-0.08,1.04-0.2
		V491.978z M381.421,481.379c-2.64,1.959-10.318,0.04-10.318,5.119c0,2.24,1.92,3.04,4,3.04c4.479,0,6.319-2.76,6.319-4.679V481.379
		z"/>
	<path fill="#333333" d="M394.822,471.381h4.119v3h-4.119v12.838c0,1.6,0.44,1.84,2.56,1.84h1.56v3h-2.6
		c-3.519,0-4.919-0.72-4.919-4.519V474.38h-3.52v-3h3.52v-6.199h3.399V471.381z"/>
	<path fill="#333333" d="M404.782,485.539c0.12,3.04,2.8,4,5.559,4c2.12,0,4.999-0.48,4.999-3.08c0-5.319-13.518-1.72-13.518-9.678
		c0-4.159,4.079-5.879,7.719-5.879c4.639,0,8.159,1.439,8.479,6.479h-3.399c-0.2-2.639-2.6-3.479-4.799-3.479
		c-2.04,0-4.399,0.56-4.399,2.639c0,2.4,3.599,2.88,6.759,3.6c3.399,0.76,6.759,1.919,6.759,5.879c0,4.959-4.599,6.519-8.798,6.519
		c-4.64,0-8.559-1.88-8.759-6.999H404.782z"/>
	<path fill="#333333" d="M431.621,470.901c6.559,0,10.039,4.759,10.039,10.838c0,6.039-3.479,10.798-10.039,10.798
		s-10.038-4.759-10.038-10.798C421.583,475.66,425.062,470.901,431.621,470.901z M431.621,489.538c3.56,0,6.439-2.8,6.439-7.799
		s-2.879-7.838-6.439-7.838s-6.439,2.839-6.439,7.838S428.062,489.538,431.621,489.538z"/>
	<path fill="#333333" d="M445.662,471.381h3.2v3.28h0.08c1.44-2.56,3.72-3.759,6.719-3.759c5.439,0,7.119,3.119,7.119,7.559v13.598
		h-3.399V478.06c0-2.56-1.6-4.159-4.199-4.159c-4.12,0-6.119,2.759-6.119,6.479v11.678h-3.399V471.381z"/>
	<path fill="#333333" d="M479.582,463.502h3.799v12.278h15.038v-12.278h3.799v28.555h-3.799V478.98h-15.038v13.078h-3.799V463.502z"
		/>
	<path fill="#333333" d="M525.539,485.499c-0.92,4.6-4.16,7.039-8.839,7.039c-6.599,0-9.718-4.599-9.918-10.878
		c0-6.239,4.079-10.758,9.718-10.758c7.319,0,9.558,6.839,9.358,11.838h-15.478c-0.12,3.599,1.92,6.799,6.439,6.799
		c2.839,0,4.759-1.32,5.359-4.04H525.539z M522.259,479.74c-0.2-3.24-2.56-5.839-5.959-5.839c-3.519,0-5.719,2.639-5.919,5.839
		H522.259z"/>
	<path fill="#333333" d="M547.698,491.978c-0.6,0.36-1.44,0.56-2.439,0.56c-1.76,0-2.879-0.96-2.879-3.2
		c-1.88,2.24-4.399,3.2-7.279,3.2c-3.76,0-6.839-1.64-6.839-5.799c0-4.679,3.479-5.719,6.999-6.359
		c3.719-0.76,6.959-0.44,6.959-3.039c0-3-2.479-3.439-4.599-3.439c-2.88,0-5,0.88-5.159,3.919h-3.399
		c0.2-5.119,4.119-6.918,8.758-6.918c3.719,0,7.759,0.84,7.759,5.679v10.638c0,1.6,0,2.32,1.08,2.32c0.32,0,0.68-0.08,1.04-0.2
		V491.978z M542.179,481.379c-2.64,1.959-10.318,0.04-10.318,5.119c0,2.24,1.92,3.04,4,3.04c4.479,0,6.319-2.76,6.319-4.679V481.379
		z"/>
	<path fill="#333333" d="M551.061,463.502h3.399v28.555h-3.399V463.502z"/>
	<path fill="#333333" d="M564.459,471.381h4.119v3h-4.119v12.838c0,1.6,0.44,1.84,2.56,1.84h1.56v3h-2.6
		c-3.519,0-4.919-0.72-4.919-4.519V474.38h-3.52v-3h3.52v-6.199h3.399V471.381z"/>
	<path fill="#333333" d="M572.339,463.502h3.399v10.918h0.08c1.08-2.52,4.079-3.519,6.519-3.519c5.439,0,7.119,3.119,7.119,7.559
		v13.598h-3.399V478.06c0-2.56-1.6-4.159-4.199-4.159c-4.12,0-6.119,2.759-6.119,6.479v11.678h-3.399V463.502z"/>
	<path fill="#333333" d="M606.26,463.502h12.518c5.719,0,8.759,3.12,8.759,8.438c0,5.319-3.04,8.479-8.759,8.438h-8.718v11.678
		h-3.799V463.502z M610.059,477.18h7.438c4.319,0.04,6.239-1.84,6.239-5.239s-1.92-5.239-6.239-5.239h-7.438V477.18z"/>
	<path fill="#333333" d="M649.257,485.499c-0.92,4.6-4.16,7.039-8.839,7.039c-6.599,0-9.718-4.599-9.918-10.878
		c0-6.239,4.079-10.758,9.718-10.758c7.319,0,9.558,6.839,9.358,11.838h-15.478c-0.12,3.599,1.92,6.799,6.439,6.799
		c2.839,0,4.759-1.32,5.359-4.04H649.257z M645.977,479.74c-0.2-3.24-2.56-5.839-5.959-5.839c-3.519,0-5.719,2.639-5.919,5.839
		H645.977z"/>
	<path fill="#333333" d="M652.979,471.381h3.2v4.359h0.08c1.64-3.359,3.919-4.959,7.599-4.839v3.599
		c-5.479,0-7.479,3.08-7.479,8.359v9.198h-3.399V471.381z"/>
	<path fill="#333333" d="M668.499,485.539c0.12,3.04,2.8,4,5.559,4c2.12,0,4.999-0.48,4.999-3.08c0-5.319-13.518-1.72-13.518-9.678
		c0-4.159,4.08-5.879,7.719-5.879c4.639,0,8.159,1.439,8.479,6.479h-3.399c-0.2-2.639-2.6-3.479-4.799-3.479
		c-2.04,0-4.399,0.56-4.399,2.639c0,2.4,3.599,2.88,6.759,3.6c3.399,0.76,6.759,1.919,6.759,5.879c0,4.959-4.599,6.519-8.798,6.519
		c-4.64,0-8.559-1.88-8.759-6.999H668.499z"/>
	<path fill="#333333" d="M695.337,470.901c6.559,0,10.039,4.759,10.039,10.838c0,6.039-3.479,10.798-10.039,10.798
		s-10.038-4.759-10.038-10.798C685.299,475.66,688.778,470.901,695.337,470.901z M695.337,489.538c3.56,0,6.439-2.8,6.439-7.799
		s-2.879-7.838-6.439-7.838s-6.439,2.839-6.439,7.838S691.778,489.538,695.337,489.538z"/>
	<path fill="#333333" d="M709.378,471.381h3.199v3.28h0.08c1.44-2.56,3.72-3.759,6.719-3.759c5.439,0,7.119,3.119,7.119,7.559
		v13.598h-3.399V478.06c0-2.56-1.6-4.159-4.199-4.159c-4.12,0-6.119,2.759-6.119,6.479v11.678h-3.399V471.381z"/>
	<path fill="#333333" d="M731.619,471.381h3.199v3.28h0.08c1.44-2.56,3.72-3.759,6.719-3.759c5.439,0,7.119,3.119,7.119,7.559
		v13.598h-3.399V478.06c0-2.56-1.6-4.159-4.199-4.159c-4.12,0-6.119,2.759-6.119,6.479v11.678h-3.399V471.381z"/>
	<path fill="#333333" d="M771.496,485.499c-0.92,4.6-4.16,7.039-8.839,7.039c-6.599,0-9.718-4.599-9.918-10.878
		c0-6.239,4.079-10.758,9.718-10.758c7.319,0,9.558,6.839,9.358,11.838h-15.478c-0.12,3.599,1.92,6.799,6.439,6.799
		c2.839,0,4.759-1.32,5.359-4.04H771.496z M768.216,479.74c-0.2-3.24-2.56-5.839-5.959-5.839c-3.519,0-5.719,2.639-5.919,5.839
		H768.216z"/>
	<path fill="#333333" d="M775.539,463.502h3.399v28.555h-3.399V463.502z"/>
	<path fill="#333333" d="M296.141,540.058h-3.6l-4.199-16.437h-0.08l-4.159,16.437h-3.679l-6.639-20.677h3.76l4.679,16.918h0.08
		l4.16-16.918h3.719l4.319,16.918h0.08l4.639-16.918h3.52L296.141,540.058z"/>
	<path fill="#333333" d="M305.984,511.502h3.399v10.918h0.08c1.08-2.52,4.079-3.519,6.519-3.519c5.439,0,7.119,3.119,7.119,7.559
		v13.598h-3.399v-13.997c0-2.561-1.6-4.16-4.199-4.16c-4.12,0-6.119,2.76-6.119,6.479v11.679h-3.399V511.502z"/>
	<path fill="#333333" d="M337.143,518.901c6.559,0,10.039,4.759,10.039,10.838c0,6.039-3.479,10.798-10.039,10.798
		s-10.038-4.759-10.038-10.798C327.104,523.66,330.583,518.901,337.143,518.901z M337.143,537.538c3.56,0,6.439-2.8,6.439-7.799
		s-2.879-7.839-6.439-7.839s-6.439,2.84-6.439,7.839S333.583,537.538,337.143,537.538z"/>
	<path fill="#333333" d="M382.78,540.058h-3.6l-4.199-16.437h-0.08l-4.159,16.437h-3.679l-6.639-20.677h3.76l4.679,16.918h0.08
		l4.16-16.918h3.719l4.319,16.918h0.08l4.639-16.918h3.52L382.78,540.058z"/>
	<path fill="#333333" d="M396.223,515.662h-3.399v-4.16h3.399V515.662z M392.824,519.381h3.399v20.677h-3.399V519.381z"/>
	<path fill="#333333" d="M406.222,519.381h4.119v3h-4.119v12.838c0,1.6,0.44,1.84,2.56,1.84h1.56v2.999h-2.6
		c-3.519,0-4.919-0.72-4.919-4.519v-13.158h-3.52v-3h3.52v-6.199h3.399V519.381z"/>
	<path fill="#333333" d="M414.103,519.381h3.2v3.279h0.08c1.44-2.559,3.72-3.759,6.719-3.759c5.439,0,7.119,3.119,7.119,7.559
		v13.598h-3.399v-13.997c0-2.561-1.6-4.16-4.199-4.16c-4.12,0-6.119,2.76-6.119,6.479v11.679h-3.399V519.381z"/>
	<path fill="#333333" d="M453.979,533.498c-0.92,4.6-4.16,7.039-8.839,7.039c-6.599,0-9.718-4.599-9.918-10.878
		c0-6.239,4.079-10.758,9.718-10.758c7.319,0,9.558,6.839,9.358,11.838h-15.478c-0.12,3.599,1.92,6.799,6.439,6.799
		c2.839,0,4.759-1.319,5.359-4.04H453.979z M450.7,527.74c-0.2-3.24-2.56-5.84-5.959-5.84c-3.519,0-5.719,2.64-5.919,5.84H450.7z"/>
	<path fill="#333333" d="M459.901,533.539c0.12,3.039,2.8,3.999,5.559,3.999c2.12,0,4.999-0.479,4.999-3.079
		c0-5.319-13.518-1.721-13.518-9.679c0-4.159,4.079-5.879,7.719-5.879c4.639,0,8.159,1.439,8.479,6.479h-3.399
		c-0.2-2.64-2.6-3.479-4.799-3.479c-2.04,0-4.399,0.561-4.399,2.64c0,2.399,3.599,2.88,6.759,3.6
		c3.399,0.76,6.759,1.919,6.759,5.879c0,4.96-4.599,6.519-8.798,6.519c-4.64,0-8.559-1.879-8.759-6.998H459.901z"/>
	<path fill="#333333" d="M479.901,533.539c0.12,3.039,2.8,3.999,5.559,3.999c2.12,0,4.999-0.479,4.999-3.079
		c0-5.319-13.518-1.721-13.518-9.679c0-4.159,4.079-5.879,7.719-5.879c4.639,0,8.159,1.439,8.479,6.479h-3.399
		c-0.2-2.64-2.6-3.479-4.799-3.479c-2.04,0-4.399,0.561-4.399,2.64c0,2.399,3.599,2.88,6.759,3.6
		c3.399,0.76,6.759,1.919,6.759,5.879c0,4.96-4.599,6.519-8.798,6.519c-4.64,0-8.559-1.879-8.759-6.998H479.901z"/>
	<path fill="#333333" d="M498.582,535.618h4.439v4.04c0,3.039-1.32,5.358-4.399,6.278v-1.999c1.76-0.641,2.439-2.561,2.32-3.88
		h-2.36V535.618z"/>
	<path fill="#333333" d="M520.062,511.502h3.399v10.918h0.08c1.08-2.52,4.079-3.519,6.519-3.519c5.439,0,7.119,3.119,7.119,7.559
		v13.598h-3.399v-13.997c0-2.561-1.6-4.16-4.199-4.16c-4.12,0-6.119,2.76-6.119,6.479v11.679h-3.399V511.502z"/>
	<path fill="#333333" d="M559.939,533.498c-0.92,4.6-4.16,7.039-8.839,7.039c-6.599,0-9.718-4.599-9.918-10.878
		c0-6.239,4.079-10.758,9.718-10.758c7.319,0,9.558,6.839,9.358,11.838h-15.478c-0.12,3.599,1.92,6.799,6.439,6.799
		c2.839,0,4.759-1.319,5.359-4.04H559.939z M556.66,527.74c-0.2-3.24-2.56-5.84-5.959-5.84c-3.519,0-5.719,2.64-5.919,5.84H556.66z"
		/>
	<path fill="#333333" d="M582.099,539.978c-0.6,0.36-1.44,0.56-2.439,0.56c-1.76,0-2.879-0.959-2.879-3.199
		c-1.88,2.24-4.399,3.199-7.279,3.199c-3.76,0-6.839-1.639-6.839-5.799c0-4.68,3.479-5.719,6.999-6.359
		c3.72-0.76,6.959-0.439,6.959-3.039c0-2.999-2.479-3.439-4.599-3.439c-2.88,0-5,0.881-5.159,3.92h-3.399
		c0.2-5.119,4.119-6.919,8.758-6.919c3.72,0,7.759,0.84,7.759,5.679v10.639c0,1.6,0,2.319,1.08,2.319c0.32,0,0.68-0.08,1.04-0.2
		V539.978z M576.58,529.379c-2.64,1.96-10.318,0.041-10.318,5.119c0,2.24,1.92,3.04,4,3.04c4.479,0,6.319-2.76,6.319-4.679V529.379z
		"/>
	<path fill="#333333" d="M585.141,519.381h3.2v4.359h0.08c1.64-3.359,3.919-4.959,7.599-4.839v3.599
		c-5.479,0-7.479,3.08-7.479,8.359v9.198h-3.399V519.381z"/>
	<path fill="#333333" d="M618.62,518.901c6.559,0,10.039,4.759,10.039,10.838c0,6.039-3.479,10.798-10.039,10.798
		s-10.038-4.759-10.038-10.798C608.582,523.66,612.061,518.901,618.62,518.901z M618.62,537.538c3.56,0,6.439-2.8,6.439-7.799
		s-2.879-7.839-6.439-7.839s-6.439,2.84-6.439,7.839S615.06,537.538,618.62,537.538z"/>
	<path fill="#333333" d="M634.061,522.381h-3.479v-3h3.479v-3.079c0-3.359,2-5.119,5.719-5.119c0.64,0,1.56,0.12,2.2,0.319v2.96
		c-0.6-0.2-1.32-0.28-1.919-0.28c-1.64,0-2.6,0.52-2.6,2.32v2.879h3.999v3h-3.999v17.677h-3.399V522.381z"/>
	<path fill="#333333" d="M645.26,535.618h4.439v4.04c0,3.039-1.32,5.358-4.399,6.278v-1.999c1.76-0.641,2.439-2.561,2.32-3.88h-2.36
		V535.618z"/>
	<path fill="#333333" d="M675.659,518.901c6.559,0,10.039,4.759,10.039,10.838c0,6.039-3.479,10.798-10.039,10.798
		s-10.038-4.759-10.038-10.798C665.621,523.66,669.1,518.901,675.659,518.901z M675.659,537.538c3.56,0,6.439-2.8,6.439-7.799
		s-2.879-7.839-6.439-7.839s-6.439,2.84-6.439,7.839S672.1,537.538,675.659,537.538z"/>
	<path fill="#333333" d="M689.58,519.381h3.2v4.359h0.08c1.64-3.359,3.919-4.959,7.599-4.839v3.599c-5.479,0-7.479,3.08-7.479,8.359
		v9.198h-3.399V519.381z"/>
	<path fill="#333333" d="M293.302,581.498c-0.92,4.6-4.16,7.039-8.839,7.039c-6.599,0-9.718-4.599-9.918-10.878
		c0-6.239,4.079-10.758,9.718-10.758c7.319,0,9.558,6.839,9.358,11.838h-15.478c-0.12,3.599,1.92,6.799,6.439,6.799
		c2.839,0,4.759-1.319,5.359-4.04H293.302z M290.022,575.74c-0.2-3.24-2.56-5.84-5.959-5.84c-3.519,0-5.719,2.64-5.919,5.84H290.022
		z"/>
	<path fill="#333333" d="M302.703,577.18l-7.199-9.799h4.359l4.959,7.238l5.159-7.238h4.079l-7.119,9.519l7.999,11.158h-4.359
		l-5.759-8.559l-5.759,8.559h-4.12L302.703,577.18z"/>
	<path fill="#333333" d="M317.984,567.381h3.399v2.8h0.08c1.12-2.28,3.719-3.279,6.599-3.279c6.359,0,9.519,5.039,9.519,10.878
		c0,5.879-3.12,10.758-9.438,10.758c-2.08,0-5.199-0.799-6.679-3.239h-0.08v10.679h-3.399V567.381z M327.582,569.9
		c-4.599,0-6.319,3.959-6.319,7.799c0,4.039,1.84,7.839,6.519,7.839c4.639,0,6.199-3.96,6.199-7.999
		C333.981,573.66,331.981,569.9,327.582,569.9z"/>
	<path fill="#333333" d="M359.221,581.498c-0.92,4.6-4.16,7.039-8.839,7.039c-6.599,0-9.718-4.599-9.918-10.878
		c0-6.239,4.079-10.758,9.718-10.758c7.319,0,9.558,6.839,9.358,11.838h-15.478c-0.12,3.599,1.92,6.799,6.439,6.799
		c2.839,0,4.759-1.319,5.359-4.04H359.221z M355.941,575.74c-0.2-3.24-2.56-5.84-5.959-5.84c-3.519,0-5.719,2.64-5.919,5.84H355.941
		z"/>
	<path fill="#333333" d="M362.943,567.381h3.2v4.359h0.08c1.64-3.359,3.919-4.959,7.599-4.839v3.599
		c-5.479,0-7.479,3.08-7.479,8.359v9.198h-3.399V567.381z"/>
	<path fill="#333333" d="M379.982,563.662h-3.399v-4.16h3.399V563.662z M376.583,567.381h3.399v20.677h-3.399V567.381z"/>
	<path fill="#333333" d="M402.899,581.498c-0.92,4.6-4.16,7.039-8.839,7.039c-6.599,0-9.718-4.599-9.918-10.878
		c0-6.239,4.079-10.758,9.718-10.758c7.319,0,9.558,6.839,9.358,11.838h-15.478c-0.12,3.599,1.92,6.799,6.439,6.799
		c2.839,0,4.759-1.319,5.359-4.04H402.899z M399.62,575.74c-0.2-3.24-2.56-5.84-5.959-5.84c-3.519,0-5.719,2.64-5.919,5.84H399.62z"
		/>
	<path fill="#333333" d="M406.742,567.381h3.199v3.279h0.08c1.44-2.559,3.72-3.759,6.719-3.759c5.439,0,7.119,3.119,7.119,7.559
		v13.598h-3.399v-13.997c0-2.561-1.6-4.16-4.199-4.16c-4.12,0-6.119,2.76-6.119,6.479v11.679h-3.399V567.381z"/>
	<path fill="#333333" d="M443.02,574.02c-0.52-2.6-2.28-4.119-5.119-4.119c-4.919,0-6.439,3.92-6.439,8.079
		c0,3.839,1.72,7.559,6.039,7.559c3.319,0,5.239-1.88,5.679-5.039h3.479c-0.76,5.079-3.879,8.038-9.119,8.038
		c-6.319,0-9.678-4.359-9.678-10.558c0-6.199,3.199-11.078,9.758-11.078c4.719,0,8.398,2.199,8.918,7.118H443.02z"/>
	<path fill="#333333" d="M468.099,581.498c-0.92,4.6-4.16,7.039-8.839,7.039c-6.599,0-9.718-4.599-9.918-10.878
		c0-6.239,4.079-10.758,9.718-10.758c7.319,0,9.558,6.839,9.358,11.838h-15.478c-0.12,3.599,1.92,6.799,6.439,6.799
		c2.839,0,4.759-1.319,5.359-4.04H468.099z M464.819,575.74c-0.2-3.24-2.56-5.84-5.959-5.84c-3.519,0-5.719,2.64-5.919,5.84H464.819
		z"/>
	<path fill="#333333" d="M501.378,587.978c-0.6,0.36-1.44,0.56-2.439,0.56c-1.76,0-2.879-0.959-2.879-3.199
		c-1.88,2.24-4.399,3.199-7.279,3.199c-3.76,0-6.839-1.639-6.839-5.799c0-4.68,3.479-5.719,6.999-6.359
		c3.72-0.76,6.959-0.439,6.959-3.039c0-2.999-2.479-3.439-4.599-3.439c-2.88,0-5,0.881-5.159,3.92h-3.399
		c0.2-5.119,4.119-6.919,8.758-6.919c3.72,0,7.759,0.84,7.759,5.679v10.639c0,1.6,0,2.319,1.08,2.319c0.32,0,0.68-0.08,1.04-0.2
		V587.978z M495.859,577.379c-2.64,1.96-10.318,0.041-10.318,5.119c0,2.24,1.92,3.04,4,3.04c4.479,0,6.319-2.76,6.319-4.679V577.379
		z"/>
	<path fill="#333333" d="M515.781,567.381h3.399v2.8h0.08c1.12-2.28,3.719-3.279,6.599-3.279c6.359,0,9.519,5.039,9.519,10.878
		c0,5.879-3.12,10.758-9.438,10.758c-2.08,0-5.199-0.799-6.679-3.239h-0.08v10.679h-3.399V567.381z M525.379,569.9
		c-4.599,0-6.319,3.959-6.319,7.799c0,4.039,1.84,7.839,6.519,7.839c4.639,0,6.199-3.96,6.199-7.999
		C531.778,573.66,529.778,569.9,525.379,569.9z"/>
	<path fill="#333333" d="M539.26,567.381h3.2v4.359h0.08c1.64-3.359,3.919-4.959,7.599-4.839v3.599c-5.479,0-7.479,3.08-7.479,8.359
		v9.198h-3.399V567.381z"/>
	<path fill="#333333" d="M561.619,566.901c6.559,0,10.039,4.759,10.039,10.838c0,6.039-3.479,10.798-10.039,10.798
		s-10.038-4.759-10.038-10.798C551.581,571.66,555.06,566.901,561.619,566.901z M561.619,585.538c3.56,0,6.439-2.8,6.439-7.799
		s-2.879-7.839-6.439-7.839s-6.439,2.84-6.439,7.839S558.059,585.538,561.619,585.538z"/>
	<path fill="#333333" d="M575.78,559.502h3.399v10.679h0.08c1.12-2.28,3.719-3.279,6.599-3.279c6.359,0,9.519,5.039,9.519,10.878
		c0,5.879-3.12,10.758-9.438,10.758c-2.08,0-5.199-0.799-6.679-3.239h-0.08v2.76h-3.399V559.502z M585.378,569.9
		c-4.599,0-6.319,3.959-6.319,7.799c0,4.039,1.84,7.839,6.519,7.839c4.639,0,6.199-3.96,6.199-7.999
		C591.777,573.66,589.777,569.9,585.378,569.9z"/>
	<path fill="#333333" d="M599.58,559.502h3.399v28.556h-3.399V559.502z"/>
	<path fill="#333333" d="M625.896,581.498c-0.92,4.6-4.16,7.039-8.839,7.039c-6.599,0-9.718-4.599-9.918-10.878
		c0-6.239,4.079-10.758,9.718-10.758c7.319,0,9.558,6.839,9.358,11.838h-15.478c-0.12,3.599,1.92,6.799,6.439,6.799
		c2.839,0,4.759-1.319,5.359-4.04H625.896z M622.616,575.74c-0.2-3.24-2.56-5.84-5.959-5.84c-3.519,0-5.719,2.64-5.919,5.84H622.616
		z"/>
	<path fill="#333333" d="M629.738,567.381h3.2v3.039h0.08c1.56-2.359,3.759-3.519,6.679-3.519c2.56,0,4.839,0.96,5.679,3.519
		c1.4-2.238,3.799-3.519,6.479-3.519c4.12,0,6.879,1.72,6.879,5.999v15.157h-3.399V574.5c0-2.56-0.68-4.6-4-4.6
		c-3.319,0-5.399,2.08-5.399,5.279v12.878h-3.399V574.5c0-2.68-0.84-4.6-3.879-4.6c-4,0-5.519,3.68-5.519,5.279v12.878h-3.399
		V567.381z"/>
	<path fill="#333333" d="M695.455,588.058h-3.6l-4.199-16.437h-0.08l-4.159,16.437h-3.679l-6.639-20.677h3.76l4.679,16.918h0.08
		l4.16-16.918h3.719l4.319,16.918h0.08l4.639-16.918h3.52L695.455,588.058z"/>
	<path fill="#333333" d="M708.897,563.662h-3.399v-4.16h3.399V563.662z M705.498,567.381h3.399v20.677h-3.399V567.381z"/>
	<path fill="#333333" d="M718.896,567.381h4.119v3h-4.119v12.838c0,1.6,0.44,1.84,2.56,1.84h1.56v2.999h-2.6
		c-3.519,0-4.919-0.72-4.919-4.519v-13.158h-3.52v-3h3.52v-6.199h3.399V567.381z"/>
	<path fill="#333333" d="M726.777,559.502h3.399v10.918h0.08c1.08-2.52,4.079-3.519,6.519-3.519c5.439,0,7.119,3.119,7.119,7.559
		v13.598h-3.399v-13.997c0-2.561-1.6-4.16-4.199-4.16c-4.12,0-6.119,2.76-6.119,6.479v11.679h-3.399V559.502z"/>
	<path fill="#333333" d="M293.981,635.978c-0.6,0.36-1.44,0.56-2.439,0.56c-1.76,0-2.879-0.959-2.879-3.199
		c-1.88,2.24-4.399,3.199-7.279,3.199c-3.76,0-6.839-1.639-6.839-5.799c0-4.68,3.479-5.719,6.999-6.359
		c3.72-0.76,6.959-0.439,6.959-3.039c0-2.999-2.479-3.439-4.599-3.439c-2.88,0-5,0.881-5.159,3.92h-3.399
		c0.2-5.119,4.119-6.919,8.758-6.919c3.72,0,7.759,0.84,7.759,5.679v10.639c0,1.6,0,2.319,1.08,2.319c0.32,0,0.68-0.08,1.04-0.2
		V635.978z M288.462,625.379c-2.64,1.96-10.318,0.041-10.318,5.119c0,2.24,1.92,3.04,4,3.04c4.479,0,6.319-2.76,6.319-4.679V625.379
		z"/>
	<path fill="#333333" d="M297.144,615.381h3.199v3.279h0.08c1.44-2.559,3.72-3.759,6.719-3.759c5.439,0,7.119,3.119,7.119,7.559
		v13.598h-3.399v-13.997c0-2.561-1.6-4.16-4.199-4.16c-4.12,0-6.119,2.76-6.119,6.479v11.679h-3.399V615.381z"/>
	<path fill="#333333" d="M343.142,606.822c9.079,0,13.678,7.159,13.678,14.957c0,7.799-4.599,14.958-13.678,14.958
		c-9.078,0-13.678-7.159-13.678-14.958C329.464,613.981,334.064,606.822,343.142,606.822z M343.142,633.538
		c6.959,0,9.878-5.999,9.878-11.759c0-5.758-2.919-11.758-9.878-11.758c-6.958,0-9.878,6-9.878,11.758
		C333.264,627.539,336.184,633.538,343.142,633.538z"/>
	<path fill="#333333" d="M362.304,618.381h-3.479v-3h3.479v-3.079c0-3.359,2-5.119,5.719-5.119c0.64,0,1.56,0.12,2.2,0.319v2.96
		c-0.6-0.2-1.32-0.28-1.919-0.28c-1.64,0-2.6,0.52-2.6,2.32v2.879h3.999v3h-3.999v17.677h-3.399V618.381z"/>
	<path fill="#333333" d="M374.144,618.381h-3.479v-3h3.479v-3.079c0-3.359,2-5.119,5.719-5.119c0.64,0,1.56,0.12,2.2,0.319v2.96
		c-0.6-0.2-1.32-0.28-1.919-0.28c-1.64,0-2.6,0.52-2.6,2.32v2.879h3.999v3h-3.999v17.677h-3.399V618.381z"/>
	<path fill="#333333" d="M402.221,629.498c-0.92,4.6-4.16,7.039-8.839,7.039c-6.599,0-9.718-4.599-9.918-10.878
		c0-6.239,4.079-10.758,9.718-10.758c7.319,0,9.558,6.839,9.358,11.838h-15.478c-0.12,3.599,1.92,6.799,6.439,6.799
		c2.839,0,4.759-1.319,5.359-4.04H402.221z M398.941,623.74c-0.2-3.24-2.56-5.84-5.959-5.84c-3.519,0-5.719,2.64-5.919,5.84H398.941
		z"/>
	<path fill="#333333" d="M405.943,615.381h3.2v4.359h0.08c1.64-3.359,3.919-4.959,7.599-4.839v3.599
		c-5.479,0-7.479,3.08-7.479,8.359v9.198h-3.399V615.381z"/>
	<path fill="#333333" d="M422.982,611.662h-3.399v-4.16h3.399V611.662z M419.583,615.381h3.399v20.677h-3.399V615.381z"/>
	<path fill="#333333" d="M428.262,615.381h3.199v3.279h0.08c1.44-2.559,3.72-3.759,6.719-3.759c5.439,0,7.119,3.119,7.119,7.559
		v13.598h-3.399v-13.997c0-2.561-1.6-4.16-4.199-4.16c-4.12,0-6.119,2.76-6.119,6.479v11.679h-3.399V615.381z"/>
	<path fill="#333333" d="M468.339,634.298c0,6.759-3.04,10.158-9.598,10.158c-3.879,0-8.359-1.6-8.559-6.079h3.399
		c0.12,2.439,3.159,3.359,5.359,3.359c4.439,0,6.199-3.199,6.199-7.838v-1.36h-0.08c-1.16,2.52-3.799,3.759-6.439,3.759
		c-6.159,0-9.238-4.838-9.238-10.478c0-4.88,2.359-10.918,9.558-10.918c2.6,0,4.919,1.159,6.159,3.439h0.04v-2.96h3.199V634.298z
		 M464.98,625.299c0-3.639-1.6-7.398-5.879-7.398c-4.359,0-6.119,3.56-6.119,7.52c0,3.719,1.36,7.878,5.839,7.878
		C463.3,633.298,464.98,629.179,464.98,625.299z"/>
	<path fill="#333333" d="M253.104,682.661c3.959,0,7.159,3.159,7.159,7.118c0,3.96-3.2,7.16-7.159,7.16
		c-3.959,0-7.119-3.2-7.119-7.16C245.984,685.82,249.144,682.661,253.104,682.661z"/>
	<path fill="#333333" d="M285.103,675.502h4.2l11.158,28.556h-4.199l-3.119-8.599h-12.078l-3.2,8.599h-3.919L285.103,675.502z
		 M282.264,692.26h9.678l-4.759-13.318h-0.08L282.264,692.26z"/>
	<path fill="#333333" d="M302.905,675.502h3.399v28.556h-3.399V675.502z"/>
	<path fill="#333333" d="M311.784,675.502h3.399v28.556h-3.399V675.502z"/>
	<path fill="#333333" d="M357.939,704.058h-3.959l-6.519-23.996h-0.08l-6.599,23.996h-3.959l-7.319-28.556h3.879l5.599,23.756h0.08
		l6.399-23.756h4.12l6.319,23.756h0.08l5.799-23.756h3.799L357.939,704.058z"/>
	<path fill="#333333" d="M386.94,703.978c-0.6,0.36-1.44,0.56-2.439,0.56c-1.76,0-2.879-0.959-2.879-3.199
		c-1.88,2.24-4.399,3.199-7.279,3.199c-3.76,0-6.839-1.639-6.839-5.799c0-4.68,3.479-5.719,6.999-6.359
		c3.72-0.76,6.959-0.439,6.959-3.039c0-2.999-2.479-3.439-4.599-3.439c-2.88,0-5,0.881-5.159,3.92h-3.399
		c0.2-5.119,4.119-6.919,8.758-6.919c3.72,0,7.759,0.84,7.759,5.679v10.639c0,1.6,0,2.319,1.08,2.319c0.32,0,0.68-0.08,1.04-0.2
		V703.978z M381.421,693.379c-2.64,1.96-10.318,0.041-10.318,5.119c0,2.24,1.92,3.04,4,3.04c4.479,0,6.319-2.76,6.319-4.679V693.379
		z"/>
	<path fill="#333333" d="M394.822,683.381h4.119v3h-4.119v12.838c0,1.6,0.44,1.84,2.56,1.84h1.56v2.999h-2.6
		c-3.519,0-4.919-0.72-4.919-4.519v-13.158h-3.52v-3h3.52v-6.199h3.399V683.381z"/>
	<path fill="#333333" d="M404.782,697.539c0.12,3.039,2.8,3.999,5.559,3.999c2.12,0,4.999-0.479,4.999-3.079
		c0-5.319-13.518-1.721-13.518-9.679c0-4.159,4.079-5.879,7.719-5.879c4.639,0,8.159,1.439,8.479,6.479h-3.399
		c-0.2-2.64-2.6-3.479-4.799-3.479c-2.04,0-4.399,0.561-4.399,2.64c0,2.399,3.599,2.88,6.759,3.6
		c3.399,0.76,6.759,1.919,6.759,5.879c0,4.96-4.599,6.519-8.798,6.519c-4.64,0-8.559-1.879-8.759-6.998H404.782z"/>
	<path fill="#333333" d="M431.621,682.901c6.559,0,10.039,4.759,10.039,10.838c0,6.039-3.479,10.798-10.039,10.798
		s-10.038-4.759-10.038-10.798C421.583,687.66,425.062,682.901,431.621,682.901z M431.621,701.538c3.56,0,6.439-2.8,6.439-7.799
		s-2.879-7.839-6.439-7.839s-6.439,2.84-6.439,7.839S428.062,701.538,431.621,701.538z"/>
	<path fill="#333333" d="M445.662,683.381h3.2v3.279h0.08c1.44-2.559,3.72-3.759,6.719-3.759c5.439,0,7.119,3.119,7.119,7.559
		v13.598h-3.399v-13.997c0-2.561-1.6-4.16-4.199-4.16c-4.12,0-6.119,2.76-6.119,6.479v11.679h-3.399V683.381z"/>
	<path fill="#333333" d="M479.582,675.502h3.799v12.278h15.038v-12.278h3.799v28.556h-3.799V690.98h-15.038v13.077h-3.799V675.502z"
		/>
	<path fill="#333333" d="M525.539,697.498c-0.92,4.6-4.16,7.039-8.839,7.039c-6.599,0-9.718-4.599-9.918-10.878
		c0-6.239,4.079-10.758,9.718-10.758c7.319,0,9.558,6.839,9.358,11.838h-15.478c-0.12,3.599,1.92,6.799,6.439,6.799
		c2.839,0,4.759-1.319,5.359-4.04H525.539z M522.259,691.74c-0.2-3.24-2.56-5.84-5.959-5.84c-3.519,0-5.719,2.64-5.919,5.84H522.259
		z"/>
	<path fill="#333333" d="M547.698,703.978c-0.6,0.36-1.44,0.56-2.439,0.56c-1.76,0-2.879-0.959-2.879-3.199
		c-1.88,2.24-4.399,3.199-7.279,3.199c-3.76,0-6.839-1.639-6.839-5.799c0-4.68,3.479-5.719,6.999-6.359
		c3.719-0.76,6.959-0.439,6.959-3.039c0-2.999-2.479-3.439-4.599-3.439c-2.88,0-5,0.881-5.159,3.92h-3.399
		c0.2-5.119,4.119-6.919,8.758-6.919c3.719,0,7.759,0.84,7.759,5.679v10.639c0,1.6,0,2.319,1.08,2.319c0.32,0,0.68-0.08,1.04-0.2
		V703.978z M542.179,693.379c-2.64,1.96-10.318,0.041-10.318,5.119c0,2.24,1.92,3.04,4,3.04c4.479,0,6.319-2.76,6.319-4.679V693.379
		z"/>
	<path fill="#333333" d="M551.061,675.502h3.399v28.556h-3.399V675.502z"/>
	<path fill="#333333" d="M564.459,683.381h4.119v3h-4.119v12.838c0,1.6,0.44,1.84,2.56,1.84h1.56v2.999h-2.6
		c-3.519,0-4.919-0.72-4.919-4.519v-13.158h-3.52v-3h3.52v-6.199h3.399V683.381z"/>
	<path fill="#333333" d="M572.339,675.502h3.399v10.918h0.08c1.08-2.52,4.079-3.519,6.519-3.519c5.439,0,7.119,3.119,7.119,7.559
		v13.598h-3.399v-13.997c0-2.561-1.6-4.16-4.199-4.16c-4.12,0-6.119,2.76-6.119,6.479v11.679h-3.399V675.502z"/>
	<path fill="#333333" d="M606.26,675.502h12.518c5.719,0,8.759,3.12,8.759,8.439c0,5.318-3.04,8.479-8.759,8.438h-8.718v11.679
		h-3.799V675.502z M610.059,689.18h7.438c4.319,0.041,6.239-1.84,6.239-5.238c0-3.4-1.92-5.24-6.239-5.24h-7.438V689.18z"/>
	<path fill="#333333" d="M649.257,697.498c-0.92,4.6-4.16,7.039-8.839,7.039c-6.599,0-9.718-4.599-9.918-10.878
		c0-6.239,4.079-10.758,9.718-10.758c7.319,0,9.558,6.839,9.358,11.838h-15.478c-0.12,3.599,1.92,6.799,6.439,6.799
		c2.839,0,4.759-1.319,5.359-4.04H649.257z M645.977,691.74c-0.2-3.24-2.56-5.84-5.959-5.84c-3.519,0-5.719,2.64-5.919,5.84H645.977
		z"/>
	<path fill="#333333" d="M652.979,683.381h3.2v4.359h0.08c1.64-3.359,3.919-4.959,7.599-4.839v3.599
		c-5.479,0-7.479,3.08-7.479,8.359v9.198h-3.399V683.381z"/>
	<path fill="#333333" d="M668.499,697.539c0.12,3.039,2.8,3.999,5.559,3.999c2.12,0,4.999-0.479,4.999-3.079
		c0-5.319-13.518-1.721-13.518-9.679c0-4.159,4.08-5.879,7.719-5.879c4.639,0,8.159,1.439,8.479,6.479h-3.399
		c-0.2-2.64-2.6-3.479-4.799-3.479c-2.04,0-4.399,0.561-4.399,2.64c0,2.399,3.599,2.88,6.759,3.6
		c3.399,0.76,6.759,1.919,6.759,5.879c0,4.96-4.599,6.519-8.798,6.519c-4.64,0-8.559-1.879-8.759-6.998H668.499z"/>
	<path fill="#333333" d="M695.337,682.901c6.559,0,10.039,4.759,10.039,10.838c0,6.039-3.479,10.798-10.039,10.798
		s-10.038-4.759-10.038-10.798C685.299,687.66,688.778,682.901,695.337,682.901z M695.337,701.538c3.56,0,6.439-2.8,6.439-7.799
		s-2.879-7.839-6.439-7.839s-6.439,2.84-6.439,7.839S691.778,701.538,695.337,701.538z"/>
	<path fill="#333333" d="M709.378,683.381h3.199v3.279h0.08c1.44-2.559,3.72-3.759,6.719-3.759c5.439,0,7.119,3.119,7.119,7.559
		v13.598h-3.399v-13.997c0-2.561-1.6-4.16-4.199-4.16c-4.12,0-6.119,2.76-6.119,6.479v11.679h-3.399V683.381z"/>
	<path fill="#333333" d="M731.619,683.381h3.199v3.279h0.08c1.44-2.559,3.72-3.759,6.719-3.759c5.439,0,7.119,3.119,7.119,7.559
		v13.598h-3.399v-13.997c0-2.561-1.6-4.16-4.199-4.16c-4.12,0-6.119,2.76-6.119,6.479v11.679h-3.399V683.381z"/>
	<path fill="#333333" d="M771.496,697.498c-0.92,4.6-4.16,7.039-8.839,7.039c-6.599,0-9.718-4.599-9.918-10.878
		c0-6.239,4.079-10.758,9.718-10.758c7.319,0,9.558,6.839,9.358,11.838h-15.478c-0.12,3.599,1.92,6.799,6.439,6.799
		c2.839,0,4.759-1.319,5.359-4.04H771.496z M768.216,691.74c-0.2-3.24-2.56-5.84-5.959-5.84c-3.519,0-5.719,2.64-5.919,5.84H768.216
		z"/>
	<path fill="#333333" d="M775.539,675.502h3.399v28.556h-3.399V675.502z"/>
	<path fill="#333333" d="M296.141,752.059h-3.6l-4.199-16.438h-0.08l-4.159,16.438h-3.679l-6.639-20.678h3.76l4.679,16.918h0.08
		l4.16-16.918h3.719l4.319,16.918h0.08l4.639-16.918h3.52L296.141,752.059z"/>
	<path fill="#333333" d="M305.984,723.502h3.399v10.92h0.08c1.08-2.52,4.079-3.52,6.519-3.52c5.439,0,7.119,3.119,7.119,7.559
		v13.598h-3.399v-13.998c0-2.561-1.6-4.16-4.199-4.16c-4.12,0-6.119,2.76-6.119,6.48v11.678h-3.399V723.502z"/>
	<path fill="#333333" d="M337.143,730.902c6.559,0,10.039,4.758,10.039,10.838c0,6.039-3.479,10.797-10.039,10.797
		s-10.038-4.758-10.038-10.797C327.104,735.66,330.583,730.902,337.143,730.902z M337.143,749.539c3.56,0,6.439-2.801,6.439-7.799
		c0-5-2.879-7.84-6.439-7.84s-6.439,2.84-6.439,7.84C330.704,746.738,333.583,749.539,337.143,749.539z"/>
	<path fill="#333333" d="M362.184,731.381h3.2v4.359h0.08c1.64-3.359,3.919-4.959,7.599-4.838v3.6c-5.479,0-7.479,3.078-7.479,8.357
		v9.199h-3.399V731.381z"/>
	<path fill="#333333" d="M393.261,745.5c-0.92,4.598-4.16,7.037-8.839,7.037c-6.599,0-9.718-4.598-9.918-10.877
		c0-6.238,4.079-10.758,9.718-10.758c7.319,0,9.558,6.838,9.358,11.838h-15.478c-0.12,3.6,1.92,6.799,6.439,6.799
		c2.839,0,4.759-1.32,5.359-4.039H393.261z M389.981,739.74c-0.2-3.24-2.56-5.84-5.959-5.84c-3.519,0-5.719,2.641-5.919,5.84
		H389.981z"/>
	<path fill="#333333" d="M411.141,738.02c-0.52-2.598-2.28-4.119-5.119-4.119c-4.919,0-6.439,3.92-6.439,8.08
		c0,3.838,1.72,7.559,6.039,7.559c3.319,0,5.239-1.881,5.679-5.039h3.479c-0.76,5.078-3.879,8.037-9.119,8.037
		c-6.319,0-9.678-4.357-9.678-10.557s3.199-11.078,9.758-11.078c4.719,0,8.398,2.199,8.918,7.117H411.141z"/>
	<path fill="#333333" d="M427.501,730.902c6.559,0,10.039,4.758,10.039,10.838c0,6.039-3.479,10.797-10.039,10.797
		s-10.038-4.758-10.038-10.797C417.463,735.66,420.942,730.902,427.501,730.902z M427.501,749.539c3.56,0,6.439-2.801,6.439-7.799
		c0-5-2.879-7.84-6.439-7.84s-6.439,2.84-6.439,7.84C421.062,746.738,423.941,749.539,427.501,749.539z"/>
	<path fill="#333333" d="M441.422,731.381h3.2v4.359h0.08c1.64-3.359,3.919-4.959,7.599-4.838v3.6c-5.479,0-7.479,3.078-7.479,8.357
		v9.199h-3.399V731.381z"/>
	<path fill="#333333" d="M473.339,752.059h-3.399v-2.801h-0.08c-1.12,2.281-3.719,3.279-6.599,3.279
		c-6.359,0-9.518-5.039-9.518-10.877c0-5.84,3.119-10.758,9.438-10.758c2.08,0,5.199,0.799,6.679,3.238h0.08v-10.639h3.399V752.059z
		 M463.74,749.539c4.599,0,6.319-3.959,6.319-7.799c0-4.039-1.839-7.84-6.519-7.84c-4.639,0-6.199,3.961-6.199,8
		C457.341,745.779,459.341,749.539,463.74,749.539z"/>
	<path fill="#333333" d="M479.341,747.619h4.439v4.039c0,3.039-1.32,5.359-4.399,6.279v-2c1.76-0.641,2.439-2.561,2.32-3.879h-2.36
		V747.619z"/>
	<path fill="#333333" d="M505.541,731.381h4.119v3h-4.119v12.838c0,1.6,0.44,1.84,2.56,1.84h1.56v3h-2.6
		c-3.519,0-4.919-0.721-4.919-4.52v-13.158h-3.52v-3h3.52v-6.197h3.399V731.381z"/>
	<path fill="#333333" d="M513.301,731.381h3.2v4.359h0.08c1.64-3.359,3.919-4.959,7.599-4.838v3.6c-5.479,0-7.479,3.078-7.479,8.357
		v9.199h-3.399V731.381z"/>
	<path fill="#333333" d="M530.341,727.662h-3.399v-4.16h3.399V727.662z M526.941,731.381h3.399v20.678h-3.399V731.381z"/>
	<path fill="#333333" d="M553.938,751.979c-0.6,0.359-1.44,0.559-2.439,0.559c-1.76,0-2.879-0.959-2.879-3.199
		c-1.88,2.24-4.399,3.199-7.279,3.199c-3.76,0-6.839-1.639-6.839-5.799c0-4.678,3.479-5.719,6.999-6.357
		c3.72-0.76,6.959-0.441,6.959-3.041c0-2.998-2.479-3.439-4.599-3.439c-2.88,0-5,0.881-5.159,3.92h-3.399
		c0.2-5.119,4.119-6.918,8.758-6.918c3.72,0,7.759,0.84,7.759,5.678v10.639c0,1.6,0,2.32,1.08,2.32c0.32,0,0.68-0.08,1.04-0.201
		V751.979z M548.418,741.381c-2.64,1.959-10.318,0.039-10.318,5.119c0,2.238,1.92,3.039,4,3.039c4.479,0,6.319-2.76,6.319-4.68
		V741.381z"/>
	<path fill="#333333" d="M574.937,750.299c0,6.758-3.04,10.158-9.598,10.158c-3.879,0-8.359-1.6-8.559-6.08h3.399
		c0.12,2.439,3.159,3.359,5.359,3.359c4.439,0,6.199-3.199,6.199-7.838v-1.359h-0.08c-1.16,2.52-3.799,3.76-6.439,3.76
		c-6.159,0-9.238-4.84-9.238-10.479c0-4.879,2.359-10.918,9.558-10.918c2.6,0,4.919,1.158,6.159,3.439h0.04v-2.961h3.199V750.299z
		 M571.578,741.301c0-3.641-1.6-7.4-5.879-7.4c-4.359,0-6.119,3.561-6.119,7.52c0,3.719,1.36,7.879,5.839,7.879
		C569.898,749.299,571.578,745.18,571.578,741.301z"/>
	<path fill="#333333" d="M597.697,745.5c-0.92,4.598-4.16,7.037-8.839,7.037c-6.599,0-9.718-4.598-9.918-10.877
		c0-6.238,4.079-10.758,9.718-10.758c7.319,0,9.558,6.838,9.358,11.838h-15.478c-0.12,3.6,1.92,6.799,6.439,6.799
		c2.839,0,4.759-1.32,5.359-4.039H597.697z M594.417,739.74c-0.2-3.24-2.56-5.84-5.959-5.84c-3.519,0-5.719,2.641-5.919,5.84
		H594.417z"/>
	<path fill="#333333" d="M602.299,747.619h4.439v4.039c0,3.039-1.32,5.359-4.399,6.279v-2c1.76-0.641,2.439-2.561,2.32-3.879h-2.36
		V747.619z"/>
	<path fill="#333333" d="M623.899,731.381h3.399v2.801h0.08c1.12-2.279,3.719-3.279,6.599-3.279c6.359,0,9.519,5.039,9.519,10.877
		c0,5.879-3.12,10.758-9.438,10.758c-2.08,0-5.199-0.799-6.679-3.238h-0.08v10.678h-3.399V731.381z M633.498,733.9
		c-4.599,0-6.319,3.961-6.319,7.799c0,4.039,1.84,7.84,6.519,7.84c4.639,0,6.199-3.959,6.199-8
		C639.896,737.66,637.897,733.9,633.498,733.9z"/>
	<path fill="#333333" d="M647.378,731.381h3.2v4.359h0.08c1.64-3.359,3.919-4.959,7.599-4.838v3.6c-5.479,0-7.479,3.078-7.479,8.357
		v9.199h-3.399V731.381z"/>
	<path fill="#333333" d="M669.737,730.902c6.559,0,10.039,4.758,10.039,10.838c0,6.039-3.479,10.797-10.039,10.797
		s-10.038-4.758-10.038-10.797C659.699,735.66,663.178,730.902,669.737,730.902z M669.737,749.539c3.56,0,6.439-2.801,6.439-7.799
		c0-5-2.879-7.84-6.439-7.84s-6.439,2.84-6.439,7.84C663.298,746.738,666.177,749.539,669.737,749.539z"/>
	<path fill="#333333" d="M697.815,738.02c-0.52-2.598-2.28-4.119-5.119-4.119c-4.919,0-6.439,3.92-6.439,8.08
		c0,3.838,1.72,7.559,6.039,7.559c3.319,0,5.239-1.881,5.679-5.039h3.479c-0.76,5.078-3.879,8.037-9.119,8.037
		c-6.319,0-9.678-4.357-9.678-10.557s3.199-11.078,9.758-11.078c4.719,0,8.398,2.199,8.918,7.117H697.815z"/>
	<path fill="#333333" d="M722.895,745.5c-0.92,4.598-4.16,7.037-8.839,7.037c-6.599,0-9.718-4.598-9.918-10.877
		c0-6.238,4.079-10.758,9.718-10.758c7.319,0,9.558,6.838,9.358,11.838h-15.478c-0.12,3.6,1.92,6.799,6.439,6.799
		c2.839,0,4.759-1.32,5.359-4.039H722.895z M719.615,739.74c-0.2-3.24-2.56-5.84-5.959-5.84c-3.519,0-5.719,2.641-5.919,5.84
		H719.615z"/>
	<path fill="#333333" d="M728.816,745.539c0.12,3.039,2.8,4,5.559,4c2.12,0,4.999-0.48,4.999-3.08
		c0-5.318-13.518-1.719-13.518-9.678c0-4.16,4.079-5.879,7.719-5.879c4.639,0,8.159,1.439,8.479,6.479h-3.399
		c-0.2-2.641-2.6-3.48-4.799-3.48c-2.04,0-4.399,0.561-4.399,2.641c0,2.398,3.599,2.879,6.759,3.6
		c3.399,0.76,6.759,1.92,6.759,5.879c0,4.959-4.599,6.518-8.798,6.518c-4.64,0-8.559-1.879-8.759-6.998H728.816z"/>
	<path fill="#333333" d="M748.816,745.539c0.12,3.039,2.8,4,5.559,4c2.12,0,4.999-0.48,4.999-3.08
		c0-5.318-13.518-1.719-13.518-9.678c0-4.16,4.079-5.879,7.719-5.879c4.639,0,8.159,1.439,8.479,6.479h-3.399
		c-0.2-2.641-2.6-3.48-4.799-3.48c-2.04,0-4.399,0.561-4.399,2.641c0,2.398,3.599,2.879,6.759,3.6
		c3.399,0.76,6.759,1.92,6.759,5.879c0,4.959-4.599,6.518-8.798,6.518c-4.64,0-8.559-1.879-8.759-6.998H748.816z"/>
	<path fill="#333333" d="M767.497,747.619h4.439v4.039c0,3.039-1.32,5.359-4.399,6.279v-2c1.76-0.641,2.439-2.561,2.32-3.879h-2.36
		V747.619z"/>
	<path fill="#333333" d="M279.264,775.662h-3.399v-4.16h3.399V775.662z M275.865,779.381h3.399v20.678h-3.399V779.381z"/>
	<path fill="#333333" d="M284.544,779.381h3.2v3.279h0.08c1.44-2.559,3.72-3.758,6.719-3.758c5.439,0,7.119,3.119,7.119,7.559
		v13.598h-3.399v-13.998c0-2.561-1.6-4.16-4.199-4.16c-4.12,0-6.119,2.76-6.119,6.48v11.678h-3.399V779.381z"/>
	<path fill="#333333" d="M316.102,800.059h-3.639l-7.679-20.678h3.799l5.799,17.238h0.08l5.639-17.238h3.559L316.102,800.059z"/>
	<path fill="#333333" d="M344.421,793.5c-0.92,4.598-4.16,7.037-8.839,7.037c-6.599,0-9.718-4.598-9.918-10.877
		c0-6.238,4.079-10.758,9.718-10.758c7.319,0,9.558,6.838,9.358,11.838h-15.478c-0.12,3.6,1.92,6.799,6.439,6.799
		c2.839,0,4.759-1.32,5.359-4.039H344.421z M341.141,787.74c-0.2-3.24-2.56-5.84-5.959-5.84c-3.519,0-5.719,2.641-5.919,5.84
		H341.141z"/>
	<path fill="#333333" d="M350.343,793.539c0.12,3.039,2.8,4,5.559,4c2.12,0,4.999-0.48,4.999-3.08
		c0-5.318-13.518-1.719-13.518-9.678c0-4.16,4.079-5.879,7.719-5.879c4.639,0,8.159,1.439,8.479,6.479h-3.399
		c-0.2-2.641-2.6-3.48-4.799-3.48c-2.04,0-4.399,0.561-4.399,2.641c0,2.398,3.599,2.879,6.759,3.6
		c3.399,0.76,6.759,1.92,6.759,5.879c0,4.959-4.599,6.518-8.798,6.518c-4.64,0-8.559-1.879-8.759-6.998H350.343z"/>
	<path fill="#333333" d="M372.982,779.381h4.119v3h-4.119v12.838c0,1.6,0.44,1.84,2.56,1.84h1.56v3h-2.6
		c-3.519,0-4.919-0.721-4.919-4.52v-13.158h-3.52v-3h3.52v-6.197h3.399V779.381z"/>
	<path fill="#333333" d="M384.462,775.662h-3.399v-4.16h3.399V775.662z M381.063,779.381h3.399v20.678h-3.399V779.381z"/>
	<path fill="#333333" d="M407.579,798.299c0,6.758-3.04,10.158-9.598,10.158c-3.879,0-8.359-1.6-8.559-6.08h3.399
		c0.12,2.439,3.159,3.359,5.359,3.359c4.439,0,6.199-3.199,6.199-7.838v-1.359h-0.08c-1.16,2.52-3.799,3.76-6.439,3.76
		c-6.159,0-9.238-4.84-9.238-10.479c0-4.879,2.359-10.918,9.558-10.918c2.6,0,4.919,1.158,6.159,3.439h0.04v-2.961h3.199V798.299z
		 M404.22,789.301c0-3.641-1.6-7.4-5.879-7.4c-4.359,0-6.119,3.561-6.119,7.52c0,3.719,1.36,7.879,5.839,7.879
		C402.54,797.299,404.22,793.18,404.22,789.301z"/>
	<path fill="#333333" d="M431.019,799.979c-0.6,0.359-1.44,0.559-2.439,0.559c-1.76,0-2.879-0.959-2.879-3.199
		c-1.88,2.24-4.399,3.199-7.279,3.199c-3.76,0-6.839-1.639-6.839-5.799c0-4.678,3.479-5.719,6.999-6.357
		c3.72-0.76,6.959-0.441,6.959-3.041c0-2.998-2.479-3.439-4.599-3.439c-2.88,0-5,0.881-5.159,3.92h-3.399
		c0.2-5.119,4.119-6.918,8.758-6.918c3.72,0,7.759,0.84,7.759,5.678v10.639c0,1.6,0,2.32,1.08,2.32c0.32,0,0.68-0.08,1.04-0.201
		V799.979z M425.5,789.381c-2.64,1.959-10.318,0.039-10.318,5.119c0,2.238,1.92,3.039,4,3.039c4.479,0,6.319-2.76,6.319-4.68
		V789.381z"/>
	<path fill="#333333" d="M438.9,779.381h4.119v3H438.9v12.838c0,1.6,0.44,1.84,2.56,1.84h1.56v3h-2.6
		c-3.519,0-4.919-0.721-4.919-4.52v-13.158h-3.52v-3h3.52v-6.197h3.399V779.381z"/>
	<path fill="#333333" d="M464.418,793.5c-0.92,4.598-4.16,7.037-8.839,7.037c-6.599,0-9.718-4.598-9.918-10.877
		c0-6.238,4.079-10.758,9.718-10.758c7.319,0,9.558,6.838,9.358,11.838H449.26c-0.12,3.6,1.92,6.799,6.439,6.799
		c2.839,0,4.759-1.32,5.359-4.039H464.418z M461.138,787.74c-0.2-3.24-2.56-5.84-5.959-5.84c-3.519,0-5.719,2.641-5.919,5.84
		H461.138z"/>
	<path fill="#333333" d="M469.02,795.619h4.439v4.039c0,3.039-1.32,5.359-4.399,6.279v-2c1.76-0.641,2.439-2.561,2.32-3.879h-2.36
		V795.619z"/>
	<path fill="#333333" d="M492.58,793.539c0.12,3.039,2.8,4,5.559,4c2.12,0,4.999-0.48,4.999-3.08c0-5.318-13.518-1.719-13.518-9.678
		c0-4.16,4.079-5.879,7.719-5.879c4.639,0,8.159,1.439,8.479,6.479h-3.399c-0.2-2.641-2.6-3.48-4.799-3.48
		c-2.04,0-4.399,0.561-4.399,2.641c0,2.398,3.599,2.879,6.759,3.6c3.399,0.76,6.759,1.92,6.759,5.879
		c0,4.959-4.599,6.518-8.798,6.518c-4.64,0-8.559-1.879-8.759-6.998H492.58z"/>
	<path fill="#333333" d="M519.419,778.902c6.559,0,10.039,4.758,10.039,10.838c0,6.039-3.479,10.797-10.039,10.797
		s-10.038-4.758-10.038-10.797C509.381,783.66,512.86,778.902,519.419,778.902z M519.419,797.539c3.56,0,6.439-2.801,6.439-7.799
		c0-5-2.879-7.84-6.439-7.84s-6.439,2.84-6.439,7.84C512.98,794.738,515.859,797.539,519.419,797.539z"/>
	<path fill="#333333" d="M533.66,771.502h3.399v28.557h-3.399V771.502z"/>
	<path fill="#333333" d="M551.658,800.059h-3.639l-7.679-20.678h3.799l5.799,17.238h0.08l5.639-17.238h3.559L551.658,800.059z"/>
	<path fill="#333333" d="M579.977,793.5c-0.92,4.598-4.16,7.037-8.839,7.037c-6.599,0-9.718-4.598-9.918-10.877
		c0-6.238,4.079-10.758,9.718-10.758c7.319,0,9.558,6.838,9.358,11.838h-15.478c-0.12,3.6,1.92,6.799,6.439,6.799
		c2.839,0,4.759-1.32,5.359-4.039H579.977z M576.697,787.74c-0.2-3.24-2.56-5.84-5.959-5.84c-3.519,0-5.719,2.641-5.919,5.84
		H576.697z"/>
	<path fill="#333333" d="M584.579,795.619h4.439v4.039c0,3.039-1.32,5.359-4.399,6.279v-2c1.76-0.641,2.439-2.561,2.32-3.879h-2.36
		V795.619z"/>
	<path fill="#333333" d="M624.376,799.979c-0.6,0.359-1.44,0.559-2.439,0.559c-1.76,0-2.879-0.959-2.879-3.199
		c-1.88,2.24-4.399,3.199-7.279,3.199c-3.76,0-6.839-1.639-6.839-5.799c0-4.678,3.479-5.719,6.999-6.357
		c3.72-0.76,6.959-0.441,6.959-3.041c0-2.998-2.479-3.439-4.599-3.439c-2.88,0-5,0.881-5.159,3.92h-3.399
		c0.2-5.119,4.119-6.918,8.758-6.918c3.72,0,7.759,0.84,7.759,5.678v10.639c0,1.6,0,2.32,1.08,2.32c0.32,0,0.68-0.08,1.04-0.201
		V799.979z M618.857,789.381c-2.64,1.959-10.318,0.039-10.318,5.119c0,2.238,1.92,3.039,4,3.039c4.479,0,6.319-2.76,6.319-4.68
		V789.381z"/>
	<path fill="#333333" d="M627.539,779.381h3.199v3.279h0.08c1.44-2.559,3.72-3.758,6.719-3.758c5.439,0,7.119,3.119,7.119,7.559
		v13.598h-3.399v-13.998c0-2.561-1.6-4.16-4.199-4.16c-4.12,0-6.119,2.76-6.119,6.48v11.678h-3.399V779.381z"/>
	<path fill="#333333" d="M668.256,800.059h-3.399v-2.801h-0.08c-1.12,2.281-3.719,3.279-6.599,3.279
		c-6.359,0-9.518-5.039-9.518-10.877c0-5.84,3.119-10.758,9.438-10.758c2.08,0,5.199,0.799,6.679,3.238h0.08v-10.639h3.399V800.059z
		 M658.657,797.539c4.599,0,6.319-3.959,6.319-7.799c0-4.039-1.839-7.84-6.519-7.84c-4.639,0-6.199,3.961-6.199,8
		C652.258,793.779,654.258,797.539,658.657,797.539z"/>
	<path fill="#333333" d="M698.656,786.02c-0.52-2.598-2.28-4.119-5.119-4.119c-4.919,0-6.439,3.92-6.439,8.08
		c0,3.838,1.72,7.559,6.039,7.559c3.319,0,5.239-1.881,5.679-5.039h3.479c-0.76,5.078-3.879,8.037-9.119,8.037
		c-6.319,0-9.678-4.357-9.678-10.557s3.199-11.078,9.758-11.078c4.719,0,8.398,2.199,8.918,7.117H698.656z"/>
	<path fill="#333333" d="M706.298,771.502h3.399v28.557h-3.399V771.502z"/>
	<path fill="#333333" d="M723.896,778.902c6.559,0,10.039,4.758,10.039,10.838c0,6.039-3.479,10.797-10.039,10.797
		s-10.038-4.758-10.038-10.797C713.858,783.66,717.337,778.902,723.896,778.902z M723.896,797.539c3.56,0,6.439-2.801,6.439-7.799
		c0-5-2.879-7.84-6.439-7.84s-6.439,2.84-6.439,7.84C717.457,794.738,720.336,797.539,723.896,797.539z"/>
	<path fill="#333333" d="M740.017,793.539c0.12,3.039,2.8,4,5.559,4c2.12,0,4.999-0.48,4.999-3.08
		c0-5.318-13.518-1.719-13.518-9.678c0-4.16,4.079-5.879,7.719-5.879c4.639,0,8.159,1.439,8.479,6.479h-3.399
		c-0.2-2.641-2.6-3.48-4.799-3.48c-2.04,0-4.399,0.561-4.399,2.641c0,2.398,3.599,2.879,6.759,3.6
		c3.399,0.76,6.759,1.92,6.759,5.879c0,4.959-4.599,6.518-8.798,6.518c-4.64,0-8.559-1.879-8.759-6.998H740.017z"/>
	<path fill="#333333" d="M775.574,793.5c-0.92,4.598-4.16,7.037-8.839,7.037c-6.599,0-9.718-4.598-9.918-10.877
		c0-6.238,4.079-10.758,9.718-10.758c7.319,0,9.558,6.838,9.358,11.838h-15.478c-0.12,3.6,1.92,6.799,6.439,6.799
		c2.839,0,4.759-1.32,5.359-4.039H775.574z M772.294,787.74c-0.2-3.24-2.56-5.84-5.959-5.84c-3.519,0-5.719,2.641-5.919,5.84
		H772.294z"/>
	<path fill="#333333" d="M289.702,834.02c-0.52-2.598-2.28-4.119-5.119-4.119c-4.919,0-6.439,3.92-6.439,8.08
		c0,3.838,1.72,7.559,6.039,7.559c3.319,0,5.239-1.881,5.679-5.039h3.479c-0.76,5.078-3.879,8.037-9.119,8.037
		c-6.319,0-9.678-4.357-9.678-10.557s3.199-11.078,9.758-11.078c4.719,0,8.398,2.199,8.918,7.117H289.702z"/>
	<path fill="#333333" d="M306.062,826.902c6.559,0,10.039,4.758,10.039,10.838c0,6.039-3.479,10.797-10.039,10.797
		s-10.038-4.758-10.038-10.797C296.024,831.66,299.503,826.902,306.062,826.902z M306.062,845.539c3.56,0,6.439-2.801,6.439-7.799
		c0-5-2.879-7.84-6.439-7.84s-6.439,2.84-6.439,7.84C299.624,842.738,302.503,845.539,306.062,845.539z"/>
	<path fill="#333333" d="M320.104,827.381h3.2v3.041h0.08c1.56-2.361,3.759-3.52,6.679-3.52c2.56,0,4.839,0.959,5.679,3.52
		c1.4-2.24,3.799-3.52,6.479-3.52c4.12,0,6.879,1.719,6.879,5.998v15.158h-3.399V834.5c0-2.559-0.68-4.6-4-4.6
		c-3.319,0-5.399,2.08-5.399,5.279v12.879h-3.399V834.5c0-2.68-0.84-4.6-3.879-4.6c-4,0-5.519,3.68-5.519,5.279v12.879h-3.399
		V827.381z"/>
	<path fill="#333333" d="M354.343,827.381h3.399v2.801h0.08c1.12-2.279,3.719-3.279,6.599-3.279c6.359,0,9.519,5.039,9.519,10.877
		c0,5.879-3.12,10.758-9.438,10.758c-2.08,0-5.199-0.799-6.679-3.238h-0.08v10.678h-3.399V827.381z M363.941,829.9
		c-4.599,0-6.319,3.961-6.319,7.799c0,4.039,1.84,7.84,6.519,7.84c4.639,0,6.199-3.959,6.199-8
		C370.34,833.66,368.341,829.9,363.941,829.9z"/>
	<path fill="#333333" d="M378.143,819.502h3.399v28.557h-3.399V819.502z"/>
	<path fill="#333333" d="M405.139,847.979c-0.6,0.359-1.44,0.559-2.439,0.559c-1.76,0-2.879-0.959-2.879-3.199
		c-1.88,2.24-4.399,3.199-7.279,3.199c-3.76,0-6.839-1.639-6.839-5.799c0-4.678,3.479-5.719,6.999-6.357
		c3.719-0.76,6.959-0.441,6.959-3.041c0-2.998-2.479-3.439-4.599-3.439c-2.88,0-5,0.881-5.159,3.92h-3.399
		c0.2-5.119,4.119-6.918,8.758-6.918c3.719,0,7.759,0.84,7.759,5.678v10.639c0,1.6,0,2.32,1.08,2.32c0.32,0,0.68-0.08,1.04-0.201
		V847.979z M399.62,837.381c-2.64,1.959-10.318,0.039-10.318,5.119c0,2.238,1.92,3.039,4,3.039c4.479,0,6.319-2.76,6.319-4.68
		V837.381z"/>
	<path fill="#333333" d="M411.901,823.662h-3.399v-4.16h3.399V823.662z M408.502,827.381h3.399v20.678h-3.399V827.381z"/>
	<path fill="#333333" d="M417.181,827.381h3.199v3.279h0.08c1.44-2.559,3.72-3.758,6.719-3.758c5.439,0,7.119,3.119,7.119,7.559
		v13.598h-3.399v-13.998c0-2.561-1.6-4.16-4.199-4.16c-4.12,0-6.119,2.76-6.119,6.48v11.678h-3.399V827.381z"/>
	<path fill="#333333" d="M444.141,827.381h4.119v3h-4.119v12.838c0,1.6,0.44,1.84,2.56,1.84h1.56v3h-2.6
		c-3.519,0-4.919-0.721-4.919-4.52v-13.158h-3.52v-3h3.52v-6.197h3.399V827.381z"/>
	<path fill="#333333" d="M454.101,841.539c0.12,3.039,2.8,4,5.559,4c2.12,0,4.999-0.48,4.999-3.08
		c0-5.318-13.518-1.719-13.518-9.678c0-4.16,4.079-5.879,7.719-5.879c4.639,0,8.159,1.439,8.479,6.479h-3.399
		c-0.2-2.641-2.6-3.48-4.799-3.48c-2.04,0-4.399,0.561-4.399,2.641c0,2.398,3.599,2.879,6.759,3.6
		c3.399,0.76,6.759,1.92,6.759,5.879c0,4.959-4.599,6.518-8.798,6.518c-4.64,0-8.559-1.879-8.759-6.998H454.101z"/>
</g>
<g>
	<g>
		<line fill="none" stroke="#4EA8DE" stroke-width="2" stroke-miterlimit="10" x1="870.45" y1="305.236" x2="870.45" y2="347.646"/>
		<g>
			<polygon fill="#4EA8DE" points="858.179,337.704 860.378,335.657 870.447,346.493 880.519,335.657 882.716,337.704 
				870.447,350.899 			"/>
		</g>
	</g>
</g>
<g enable-background="new    ">
	<path fill="#FFFFFF" d="M82.694,110.397h-7.177L69.95,88.039h-0.092l-5.475,22.358h-7.315L48.374,77.55h7.223l5.199,22.358h0.092
		l5.705-22.358h6.763l5.613,22.635h0.092l5.382-22.635h7.085L82.694,110.397z"/>
	<path fill="#FFFFFF" d="M94.144,77.55h6.533v12.375h0.138c1.656-2.714,4.508-3.956,6.947-3.956c6.947,0,8.695,3.91,8.695,9.799
		v14.63h-6.533V96.964c0-3.91-1.104-5.843-4.187-5.843c-3.542,0-5.061,1.979-5.061,6.809v12.468h-6.533V77.55z"/>
	<path fill="#FFFFFF" d="M132.968,85.969c7.499,0,12.329,4.969,12.329,12.56c0,7.545-4.831,12.514-12.329,12.514
		c-7.453,0-12.284-4.969-12.284-12.514C120.685,90.938,125.515,85.969,132.968,85.969z M132.968,106.119
		c4.462,0,5.796-3.772,5.796-7.591s-1.334-7.637-5.796-7.637c-4.417,0-5.751,3.818-5.751,7.637S128.552,106.119,132.968,106.119z"/>
</g>
<line fill="none" stroke="#343636" stroke-width="4.9065" stroke-miterlimit="10" x1="48.187" y1="51.9" x2="958.919" y2="51.9"/>
<g>
	<rect x="1053.404" y="71.974" fill="none" width="202.49" height="49.498"/>
	<path d="M1087.863,104.818h-7.178l-5.566-22.358h-0.092l-5.475,22.358h-7.314l-8.695-32.848h7.223l5.199,22.358h0.092l5.704-22.358
		h6.763l5.613,22.634h0.092l5.383-22.634h7.084L1087.863,104.818z"/>
	<path d="M1099.312,71.97h6.533v12.375h0.138c1.655-2.714,4.509-3.957,6.946-3.957c6.947,0,8.695,3.91,8.695,9.799v14.63h-6.533
		V91.384c0-3.91-1.104-5.843-4.186-5.843c-3.543,0-5.061,1.979-5.061,6.809v12.467h-6.533V71.97z"/>
	<path d="M1126.314,88.348c0.367-6.073,5.842-7.959,11.179-7.959c4.738,0,10.442,1.058,10.442,6.763v12.375
		c0,2.162,0.23,4.324,0.828,5.291h-6.624c-0.229-0.736-0.414-1.518-0.46-2.3c-2.07,2.162-5.061,2.944-8.006,2.944
		c-4.554,0-8.096-2.254-8.096-7.131c0.092-10.811,16.102-5.015,15.825-10.351c0-2.76-1.933-3.22-4.232-3.22
		c-2.53,0-4.095,1.012-4.324,3.588H1126.314z M1141.403,93.179c-1.104,0.966-3.404,1.012-5.429,1.38
		c-2.023,0.368-3.864,1.104-3.864,3.497c0,2.392,1.886,3.036,4.003,3.036c5.105,0,5.29-4.002,5.29-5.475V93.179z"/>
	<path d="M1161.273,81.033h4.785v4.371h-4.785v11.777c0,2.208,0.553,2.76,2.761,2.76c0.736,0,1.427-0.046,2.024-0.184v5.106
		c-1.104,0.184-2.53,0.23-3.818,0.23c-4.049,0-7.499-0.874-7.499-5.659V85.404h-3.956v-4.371h3.956v-7.131h6.532V81.033z"/>
</g>
<g>
</g>
<g>
</g>
<g>
</g>
<g>
</g>
<g>
</g>
<g>
</g>
</svg>
