<?xml version="1.0" encoding="utf-8"?>
<!-- Generator: Adobe Illustrator 19.2.1, SVG Export Plug-In . SVG Version: 6.00 Build 0)  -->
<svg version="1.1" id="Layer_1" xmlns="http://www.w3.org/2000/svg" xmlns:xlink="http://www.w3.org/1999/xlink" x="0px" y="0px"
	 viewBox="0 0 2048 1000" enable-background="new 0 0 2048 1000" xml:space="preserve">
<rect x="1" fill="#B9E5FB" width="2048" height="1000"/>
<rect x="-1.605" y="656.426" fill="#4EA8DE" width="2049.604" height="342.574"/>
<rect x="2588.023" y="826.714" transform="matrix(0.7072 -0.707 0.707 0.7072 168.772 2083.2095)" fill="#0E303F" width="23.147" height="22.239"/>
<rect x="2614.519" y="837.844" transform="matrix(0.707 -0.7072 0.7072 0.707 158.1088 2110.3079)" fill="#2C5871" width="23.151" height="52.96"/>
<polygon fill="#0E303F" points="2636.719,891.322 2652.459,907.068 2668.82,890.695 2653.087,874.955 "/>
<polyline fill="none" stroke="#1365A8" stroke-width="6" stroke-miterlimit="10" stroke-dasharray="14,8" points="365.78,96.1 
	310.126,96.1 310.126,500 310.126,904.9 377.623,904.9 "/>
<line fill="none" stroke="#1365A8" stroke-width="6" stroke-miterlimit="10" stroke-dasharray="14,8" x1="310.126" y1="231.998" x2="365.78" y2="231.998"/>
<line fill="none" stroke="#1365A8" stroke-width="6" stroke-miterlimit="10" stroke-dasharray="14,8" x1="310.126" y1="365.7" x2="377.623" y2="365.7"/>
<line fill="none" stroke="#1365A8" stroke-width="6" stroke-miterlimit="10" stroke-dasharray="14,8" x1="310.126" y1="500" x2="371.623" y2="500"/>
<line fill="none" stroke="#1365A8" stroke-width="6" stroke-miterlimit="10" stroke-dasharray="14,8" x1="310.126" y1="634.252" x2="371.623" y2="634.252"/>
<line fill="none" stroke="#1365A8" stroke-width="6" stroke-miterlimit="10" stroke-dasharray="14,8" x1="310.126" y1="767.459" x2="377.623" y2="767.459"/>
<path fill="#1365A8" d="M402.847,59.034c20.472,0,37.067,16.595,37.067,37.067c0,20.472-16.595,37.067-37.067,37.067
	c-20.472,0-37.067-16.595-37.067-37.067C365.78,75.629,382.375,59.034,402.847,59.034"/>
<g enable-background="new    ">
	<g>
		<defs>
			<rect id="SVGID_1_" x="389.442" y="69.241" width="26.81" height="51.643"/>
		</defs>
		<clipPath id="SVGID_2_">
			<use xlink:href="#SVGID_1_"  overflow="visible"/>
		</clipPath>
		<g clip-path="url(#SVGID_2_)">
			
				<text transform="matrix(1 0 0 1 389.4424 110.5654)" fill="#FFFFFF" font-family="'HelveticaNeueLTPro-Roman'" font-size="48.2195px">1</text>
		</g>
	</g>
</g>
<path fill="#1365A8" d="M402.847,194.932c20.472,0,37.067,16.595,37.067,37.067c0,20.472-16.595,37.067-37.067,37.067
	c-20.472,0-37.067-16.595-37.067-37.067C365.78,211.527,382.375,194.932,402.847,194.932"/>
<g enable-background="new    ">
	<g>
		<defs>
			<rect id="SVGID_3_" x="390.543" y="205.139" width="26.811" height="51.644"/>
		</defs>
		<clipPath id="SVGID_4_">
			<use xlink:href="#SVGID_3_"  overflow="visible"/>
		</clipPath>
		<g clip-path="url(#SVGID_4_)">
			
				<text transform="matrix(1 0 0 1 390.5435 246.4639)" fill="#FFFFFF" font-family="'HelveticaNeueLTPro-Roman'" font-size="48.2195px">2</text>
		</g>
	</g>
</g>
<path fill="#1365A8" d="M402.847,328.633c20.472,0,37.067,16.595,37.067,37.067c0,20.472-16.595,37.067-37.067,37.067
	c-20.472,0-37.067-16.595-37.067-37.067C365.78,345.228,382.375,328.633,402.847,328.633"/>
<g enable-background="new    ">
	<g>
		<defs>
			<rect id="SVGID_5_" x="390.443" y="339.879" width="26.81" height="51.643"/>
		</defs>
		<clipPath id="SVGID_6_">
			<use xlink:href="#SVGID_5_"  overflow="visible"/>
		</clipPath>
		<g clip-path="url(#SVGID_6_)">
			
				<text transform="matrix(1 0 0 1 390.4434 381.2031)" fill="#FFFFFF" font-family="'HelveticaNeueLTPro-Roman'" font-size="48.2195px">3</text>
		</g>
	</g>
</g>
<path fill="#1365A8" d="M402.847,463.433c20.472,0,37.067,16.595,37.067,37.067c0,20.472-16.595,37.067-37.067,37.067
	c-20.472,0-37.067-16.596-37.067-37.067C365.78,480.028,382.375,463.433,402.847,463.433"/>
<g enable-background="new    ">
	<g>
		<defs>
			<rect id="SVGID_7_" x="389.442" y="474.643" width="26.81" height="51.643"/>
		</defs>
		<clipPath id="SVGID_8_">
			<use xlink:href="#SVGID_7_"  overflow="visible"/>
		</clipPath>
		<g clip-path="url(#SVGID_8_)">
			
				<text transform="matrix(1 0 0 1 389.4424 515.9668)" fill="#FFFFFF" font-family="'HelveticaNeueLTPro-Roman'" font-size="48.2195px">4</text>
		</g>
	</g>
</g>
<g enable-background="new    ">
	<g>
		<defs>
			<rect id="SVGID_9_" x="471.261" y="611.867" width="441.552" height="42.84"/>
		</defs>
		<clipPath id="SVGID_10_">
			<use xlink:href="#SVGID_9_"  overflow="visible"/>
		</clipPath>
	</g>
</g>
<path fill="#1365A8" d="M402.847,597.185c20.472,0,37.067,16.596,37.067,37.067c0,20.472-16.595,37.067-37.067,37.067
	c-20.472,0-37.067-16.596-37.067-37.067C365.78,613.78,382.375,597.185,402.847,597.185"/>
<g enable-background="new    ">
	<g>
		<defs>
			<rect id="SVGID_11_" x="389.442" y="608.394" width="26.81" height="51.644"/>
		</defs>
		<clipPath id="SVGID_12_">
			<use xlink:href="#SVGID_11_"  overflow="visible"/>
		</clipPath>
		<g clip-path="url(#SVGID_12_)">
			
				<text transform="matrix(1 0 0 1 389.4424 649.7188)" fill="#FFFFFF" font-family="'HelveticaNeueLTPro-Roman'" font-size="48.2195px">5</text>
		</g>
	</g>
</g>
<path fill="#1365A8" d="M402.847,731.172c20.472,0,37.067,16.595,37.067,37.067c0,20.472-16.595,37.066-37.067,37.066
	c-20.472,0-37.067-16.595-37.067-37.066C365.78,747.767,382.375,731.172,402.847,731.172"/>
<g enable-background="new    ">
	<g>
		<defs>
			<rect id="SVGID_13_" x="389.442" y="743.419" width="26.81" height="51.643"/>
		</defs>
		<clipPath id="SVGID_14_">
			<use xlink:href="#SVGID_13_"  overflow="visible"/>
		</clipPath>
		<g clip-path="url(#SVGID_14_)">
			
				<text transform="matrix(1 0 0 1 389.4424 784.7432)" fill="#FFFFFF" font-family="'HelveticaNeueLTPro-Roman'" font-size="48.2195px">6</text>
		</g>
	</g>
</g>
<path fill="#1365A8" d="M402.847,867.832c20.472,0,37.067,16.595,37.067,37.067c0,20.472-16.595,37.066-37.067,37.066
	c-20.472,0-37.067-16.595-37.067-37.066C365.78,884.427,382.375,867.832,402.847,867.832"/>
<g enable-background="new    ">
	<g>
		<defs>
			<rect id="SVGID_15_" x="389.442" y="879.043" width="26.81" height="51.644"/>
		</defs>
		<clipPath id="SVGID_16_">
			<use xlink:href="#SVGID_15_"  overflow="visible"/>
		</clipPath>
		<g clip-path="url(#SVGID_16_)">
			
				<text transform="matrix(1 0 0 1 389.4424 920.3672)" fill="#FFFFFF" font-family="'HelveticaNeueLTPro-Roman'" font-size="48.2195px">7</text>
		</g>
	</g>
</g>
<g>
	<polygon fill="#FFFFFF" points="1630.109,972.214 1630.109,819.688 1630.109,743.232 1684.896,688.438 1837.739,688.438 
		1837.739,745.045 1837.739,819.688 1837.739,972.214 	"/>
	<polygon fill="#2C5871" points="1684.896,743.232 1630.109,743.232 1684.896,688.438 	"/>
	<polygon fill="#D1ECFB" points="1630.109,743.232 1684.896,743.232 1630.109,798.014 	"/>
	<g>
		<defs>
			<polygon id="SVGID_17_" points="1684.896,688.438 1630.109,743.232 1630.109,819.688 1630.109,972.214 1837.739,972.214 
				1837.739,819.688 1837.739,745.045 1837.739,688.438 			"/>
		</defs>
		<clipPath id="SVGID_18_">
			<use xlink:href="#SVGID_17_"  overflow="visible"/>
		</clipPath>
		<path clip-path="url(#SVGID_18_)" fill="#A6DAE9" d="M1918.862,749.639l-33.706-33.697l-14.145-14.155L1735.089,837.7
			c-0.019-0.013-0.031-0.024-0.048-0.033l-0.066,62.158l62.166-0.061c-0.018-0.013-0.021-0.029-0.029-0.044L1933.03,763.81
			L1918.862,749.639z"/>
	</g>
	<path fill="#1695A4" d="M1867.491,686.271l-135.905,135.91c8.345,6.514,18.848,7.618,25.688,2.626l124.371-124.377
		L1867.491,686.271z"/>
	<path fill="#15B0BF" d="M1915.347,734.132l-33.701-33.701l-124.37,124.377h0.015c-0.05,0.061-0.076,0.14-0.118,0.202
		c0.059-0.052,0.135-0.104,0.174-0.158c-5.572,7.635-3.563,19.857,5.057,28.526c8.677,8.624,20.883,10.622,28.513,5.053
		c-0.032,0.053-0.104,0.118-0.147,0.175c0.061-0.035,0.139-0.062,0.197-0.114v0.018L1915.347,734.132z"/>
	<path fill="#1695A4" d="M1790.964,858.51c-4.99,6.84-3.865,17.363,2.632,25.699L1929.5,748.304l-14.153-14.171L1790.964,858.51z"/>
	<path fill="#D1ECFB" d="M1793.631,884.252c-6.532-8.345-7.657-18.895-2.667-25.743v-0.018c-0.058,0.053-0.136,0.079-0.197,0.114
		c0.044-0.057,0.113-0.123,0.147-0.175c-7.63,5.569-19.835,3.571-28.514-5.053c-8.619-8.669-10.628-20.892-5.057-28.526
		c-0.038,0.054-0.114,0.106-0.174,0.158c0.043-0.061,0.068-0.141,0.119-0.202h-0.016c-6.849,5.001-17.379,3.888-25.754-2.652
		l-0.056,62.154L1793.631,884.252z"/>
	<path fill="#1695A4" d="M1731.493,853.799l-0.029,30.511l30.514-0.031c-3.972-5.815-8.554-11.436-13.809-16.671
		C1742.934,862.363,1737.316,857.766,1731.493,853.799"/>
	
		<rect x="1871.701" y="675.793" transform="matrix(0.7072 -0.707 0.707 0.7072 66.2087 1531.4746)" fill="#0E303F" width="20.834" height="20.016"/>
	
		<rect x="1895.568" y="685.802" transform="matrix(0.7071 -0.7072 0.7072 0.7071 56.525 1555.7166)" fill="#2C5871" width="20.834" height="47.662"/>
	
		<rect x="1919.562" y="723.645" transform="matrix(0.7072 -0.707 0.707 0.7072 46.3836 1579.3269)" fill="#0E303F" width="20.833" height="20.036"/>
	<path fill="#E6E7E8" d="M1696.804,814.139c0,5.428-4.399,9.827-9.826,9.827h-19.649c-5.427,0-9.826-4.399-9.826-9.827v-19.647
		c0-5.427,4.399-9.825,9.826-9.825h19.649c5.427,0,9.826,4.398,9.826,9.825V814.139z"/>
	<path fill="#15B0BF" d="M1677.039,819.679l-12.623-18.969c-1.066-1.595-0.63-3.755,0.969-4.817
		c1.592-1.073,3.756-0.639,4.821,0.967l7.065,10.606l21.143-29.273c1.126-1.562,3.3-1.911,4.856-0.784
		c1.559,1.124,1.909,3.299,0.784,4.854L1677.039,819.679z"/>
	<path fill="#E6E7E8" d="M1696.804,867.016c0,5.428-4.399,9.826-9.826,9.826h-19.649c-5.427,0-9.826-4.398-9.826-9.826v-19.647
		c0-5.428,4.399-9.824,9.826-9.824h19.649c5.427,0,9.826,4.397,9.826,9.824V867.016z"/>
	<path fill="#15B0BF" d="M1677.039,872.556l-12.623-18.969c-1.066-1.595-0.63-3.755,0.969-4.817
		c1.592-1.074,3.756-0.639,4.821,0.967l7.065,10.606l21.143-29.273c1.126-1.562,3.3-1.912,4.856-0.784
		c1.559,1.124,1.909,3.299,0.784,4.854L1677.039,872.556z"/>
	<path fill="#E6E7E8" d="M1696.804,919.457c0,5.428-4.399,9.827-9.826,9.827h-19.649c-5.427,0-9.826-4.399-9.826-9.827v-19.645
		c0-5.428,4.399-9.825,9.826-9.825h19.649c5.427,0,9.826,4.397,9.826,9.825V919.457z"/>
	<path fill="#15B0BF" d="M1677.039,924.997l-12.623-18.969c-1.066-1.595-0.63-3.756,0.969-4.818
		c1.592-1.072,3.756-0.638,4.821,0.968l7.065,10.607l21.143-29.273c1.126-1.562,3.3-1.911,4.856-0.784
		c1.559,1.125,1.909,3.298,0.784,4.854L1677.039,924.997z"/>
</g>
<rect x="471.261" y="78.203" fill="none" width="674.967" height="35.795"/>
<text transform="matrix(1 0 0 1 471.2607 106.7627)" fill="#333333" font-family="'HelveticaNeueLTPro-Roman'" font-size="40px">Receiving Offering Event Information</text>
<rect x="471.261" y="482.603" fill="none" width="674.967" height="35.796"/>
<text transform="matrix(1 0 0 1 471.2607 511.1621)" fill="#333333" font-family="'HelveticaNeueLTPro-Roman'" font-size="40px">Investigating Complaints</text>
<rect x="471.261" y="615.39" fill="none" width="942.63" height="35.796"/>
<text transform="matrix(1 0 0 1 471.2607 643.9492)" fill="#333333" font-family="'HelveticaNeueLTPro-Roman'" font-size="40px">Identifying and implementing corrective actions</text>
<rect x="471.261" y="750.341" fill="none" width="942.63" height="35.796"/>
<text transform="matrix(1 0 0 1 471.2607 778.9004)" fill="#333333" font-family="'HelveticaNeueLTPro-Roman'" font-size="40px">Closing complaints</text>
<rect x="471.261" y="886.967" fill="none" width="942.63" height="35.796"/>
<text transform="matrix(1 0 0 1 471.2607 915.5264)" fill="#333333" font-family="'HelveticaNeueLTPro-Roman'" font-size="40px">Trending complaints and initiate CAPAs</text>
<rect x="471.261" y="214.102" fill="none" width="674.967" height="35.795"/>
<text transform="matrix(1 0 0 1 471.2607 242.6611)" fill="#333333" font-family="'HelveticaNeueLTPro-Roman'" font-size="40px">Identifying Complaints</text>
<rect x="471.261" y="347.803" fill="none" width="674.967" height="35.795"/>
<text transform="matrix(1 0 0 1 471.2607 376.3623)" fill="#333333" font-family="'HelveticaNeueLTPro-Roman'" font-size="40px">Evaluating Complaints</text>
</svg>
