<?xml version="1.0" encoding="utf-8"?>
<!-- Generator: Adobe Illustrator 17.0.2, SVG Export Plug-In . SVG Version: 6.00 Build 0)  -->
<!DOCTYPE svg PUBLIC "-//W3C//DTD SVG 1.1//EN" "http://www.w3.org/Graphics/SVG/1.1/DTD/svg11.dtd">
<svg version="1.1" id="Layer_1" xmlns="http://www.w3.org/2000/svg" xmlns:xlink="http://www.w3.org/1999/xlink" x="0px" y="0px"
	 width="2048px" height="1000px" viewBox="0 0 2048 1000" enable-background="new 0 0 2048 1000" xml:space="preserve">
<rect fill="#B9E5FB" width="2048" height="1000"/>
<rect x="965.725" y="1469.961" fill="none" width="1226.361" height="80.672"/>
<text transform="matrix(1 0 0 1 965.7246 1489.9531)" fill="#333333" font-family="'HelveticaNeueLTPro-Roman'" font-size="28">•  The lead can close the report if it remains open for more than 30 days without a response or if a </text>
<text transform="matrix(1 0 0 1 995.7246 1525.5531)" fill="#333333" font-family="'HelveticaNeueLTPro-Roman'" font-size="28">customer requests closure</text>
<rect x="-3.5" fill="#4EA8DE" width="694.1" height="1001.818"/>
<rect y="640.118" fill="#116BB4" width="690.6" height="360.601"/>
<line fill="none" stroke="#343636" stroke-width="4" stroke-miterlimit="10" x1="62.7" y1="53.718" x2="668" y2="53.718"/>
<line fill="none" stroke="#343636" stroke-width="4" stroke-miterlimit="10" x1="742.2" y1="53.718" x2="1996.1" y2="53.718"/>
<g>
	<path fill="#FFFFFF" d="M593.737,463.077h-525.4c-5.5,0-10-4.5-10-10v-243.8c0-5.5,4.5-10,10-10h525.4c5.5,0,10,4.5,10,10v243.8
		C603.737,458.577,599.237,463.077,593.737,463.077"/>
	<path fill="#EFEFF0" d="M594.838,199.277H258.637v263.8h336.201c4.899,0,8.899-4,8.899-8.9v-246
		C603.737,203.277,599.737,199.277,594.838,199.277"/>
	<path fill="#89C240" d="M202.6,382.055h-95.7c-5.5,0-10-4.5-10-10v-107.9c0-5.5,4.5-10,10-10h95.7c5.5,0,10,4.5,10,10v107.899
		C212.6,377.555,208.1,382.055,202.6,382.055"/>
	<rect x="85" y="411.155" fill="#8CC63F" width="1.2" height="12.8"/>
	<path fill="#8CC63F" d="M88.6,411.155H94c2.1,0,4.1,0.699,4.1,3.1c0,1.3-0.9,2.6-2.2,2.9c1.7,0.199,2.7,1.5,2.7,3.1
		c0,1.2-0.4,3.6-4.6,3.6h-5.4V411.155z M89.8,416.755H94c1.9,0,2.9-1,2.9-2.2c0-1.6-1-2.399-2.9-2.399h-4.2V416.755z M89.8,422.854
		H94c1.8,0,3.4-0.6,3.4-2.6c0-1.7-1.2-2.5-3.4-2.5h-4.2V422.854z"/>
	<polygon fill="#8CC63F" points="100.6,411.155 102.4,411.155 106.8,422.354 111.2,411.155 113,411.155 113,423.955 111.8,423.955 
		111.8,412.854 107.4,423.955 106.2,423.955 101.8,412.854 101.8,423.955 100.6,423.955 	"/>
	<polygon fill="#173E68" points="130.2,423.854 127.4,423.854 125.2,415.155 123.1,423.854 120.2,423.854 116.8,411.055 
		119.6,411.055 121.6,419.755 123.8,411.055 126.4,411.055 128.6,419.854 130.7,411.055 133.5,411.055 	"/>
	<path fill="#173E68" d="M133.9,417.354c0.2-2.399,2.3-3.1,4.4-3.1c1.8,0,4.1,0.4,4.1,2.6v4.801c0,0.8,0.1,1.699,0.3,2.1h-2.6
		c-0.1-0.3-0.2-0.6-0.2-0.9c-0.8,0.801-2,1.2-3.1,1.2c-1.8,0-3.1-0.899-3.1-2.8c0-4.2,6.3-2,6.2-4c0-1.1-0.7-1.2-1.7-1.2
		s-1.6,0.4-1.7,1.4h-2.6L133.9,417.354L133.9,417.354z M139.8,419.255c-0.4,0.4-1.3,0.4-2.1,0.5c-0.8,0.2-1.5,0.4-1.5,1.4
		s0.7,1.199,1.6,1.199c2,0,2.1-1.6,2.1-2.1v-1h-0.1V419.255z"/>
	<path fill="#173E68" d="M147.5,414.555h1.9v1.7h-1.9v4.6c0,0.9,0.2,1.101,1.1,1.101c0.3,0,0.6,0,0.8-0.101v2
		c-0.4,0.101-1,0.101-1.5,0.101c-1.6,0-2.9-0.3-2.9-2.2v-5.5h-1.6v-1.7h1.6v-2.8h2.6L147.5,414.555z"/>
	<path fill="#173E68" d="M152.6,420.854c0,1.101,1,1.601,2,1.601c0.7,0,1.7-0.3,1.7-1.2c0-0.8-1.1-1.1-2.9-1.4c-1.5-0.3-3-0.8-3-2.5
		c0-2.399,2.1-3,4-3c2,0,3.9,0.7,4.1,3h-2.4c-0.1-1-0.8-1.199-1.7-1.199c-0.6,0-1.4,0.1-1.4,0.899c0,0.9,1.5,1,2.9,1.4
		c1.5,0.3,3,0.899,3,2.6c0,2.4-2.1,3.2-4.2,3.2c-2.1,0-4.3-0.8-4.4-3.3h2.3L152.6,420.854L152.6,420.854z"/>
	<path fill="#173E68" d="M164.6,414.354c2.9,0,4.8,1.9,4.8,4.9s-1.9,4.9-4.8,4.9s-4.8-1.9-4.8-4.9S161.6,414.354,164.6,414.354
		 M164.6,422.155c1.7,0,2.3-1.5,2.3-3s-0.5-3-2.3-3c-1.7,0-2.2,1.5-2.2,3S162.8,422.155,164.6,422.155"/>
	<path fill="#173E68" d="M170.6,414.555h2.4v1.3h0.1c0.7-1.1,1.7-1.6,2.8-1.6c2.7,0,3.4,1.5,3.4,3.8v5.7h-2.6v-5.2
		c0-1.5-0.4-2.3-1.6-2.3c-1.4,0-2,0.8-2,2.6v4.9h-2.6L170.6,414.555z"/>
	<polygon fill="#173E68" points="184.4,411.055 187.2,411.055 187.2,415.955 192.4,415.955 192.4,411.055 195.2,411.055 
		195.2,423.854 192.4,423.854 192.4,418.354 187.2,418.354 187.2,423.854 184.4,423.854 	"/>
	<path fill="#173E68" d="M199.4,419.854c0.1,1.601,0.8,2.4,2.3,2.4c1,0,1.8-0.6,2-1.2h2.2c-0.7,2.2-2.2,3.101-4.3,3.101
		c-2.9,0-4.7-2-4.7-4.9c0-2.8,1.9-4.9,4.7-4.9c3.1,0,4.7,2.601,4.5,5.5h-6.7V419.854z M203.5,418.155c-0.2-1.301-0.8-2-2-2
		c-1.7,0-2.1,1.199-2.1,2H203.5z"/>
	<path fill="#173E68" d="M207.6,417.354c0.2-2.399,2.3-3.1,4.4-3.1c1.8,0,4.1,0.4,4.1,2.6v4.801c0,0.8,0.1,1.699,0.3,2.1h-2.6
		c-0.1-0.3-0.2-0.6-0.2-0.9c-0.8,0.801-2,1.2-3.1,1.2c-1.8,0-3.1-0.899-3.1-2.8c0-4.2,6.3-2,6.2-4c0-1.1-0.7-1.2-1.7-1.2
		s-1.6,0.4-1.7,1.4h-2.6L207.6,417.354L207.6,417.354z M213.4,419.255c-0.4,0.4-1.3,0.4-2.1,0.5c-0.8,0.2-1.5,0.4-1.5,1.4
		s0.7,1.199,1.6,1.199c2,0,2.1-1.6,2.1-2.1v-1h-0.1V419.255z"/>
	<path fill="#173E68" d="M225.7,414.555h1.9v1.7h-1.9v4.6c0,0.9,0.2,1.101,1.1,1.101c0.3,0,0.6,0,0.8-0.101v2
		c-0.4,0.101-1,0.101-1.5,0.101c-1.6,0-2.9-0.3-2.9-2.2v-5.5h-1.6v-1.7h1.6v-2.8h2.6v2.8h-0.1V414.555z"/>
	<path fill="#173E68" d="M229.2,411.055h2.6v4.8h0.1c0.7-1.1,1.7-1.6,2.7-1.6c2.7,0,3.4,1.5,3.4,3.8v5.7h-2.6v-5.2
		c0-1.5-0.4-2.3-1.6-2.3c-1.4,0-2,0.8-2,2.6v4.9h-2.6L229.2,411.055L229.2,411.055z"/>
	<rect x="217.9" y="411.055" fill="#173E68" width="2.6" height="12.8"/>
	<g>
		<g>
			<defs>
				<path id="SVGID_1_" d="M106.9,254.155c-5.5,0-10,4.5-10,10v107.899c0,5.5,4.5,10,10,10h95.7c5.5,0,10-4.5,10-10V264.155
					c0-5.5-4.5-10-10-10H106.9z"/>
			</defs>
			<clipPath id="SVGID_2_">
				<use xlink:href="#SVGID_1_"  overflow="visible"/>
			</clipPath>
			<path clip-path="url(#SVGID_2_)" fill="#E3CCA4" d="M140.8,309.055h27.9l3,31.7c0.2,2.2,2.1,3.9,4.5,4h0.5l-3.5,11.9l-37-2.9
				l-2.7-9l1-0.2c2.2-0.3,3.8-1.899,3.9-4L140.8,309.055z"/>
		</g>
		<g>
			<defs>
				<path id="SVGID_3_" d="M106.9,254.155c-5.5,0-10,4.5-10,10v107.899c0,5.5,4.5,10,10,10h95.7c5.5,0,10-4.5,10-10V264.155
					c0-5.5-4.5-10-10-10H106.9z"/>
			</defs>
			<clipPath id="SVGID_4_">
				<use xlink:href="#SVGID_3_"  overflow="visible"/>
			</clipPath>
			<path clip-path="url(#SVGID_4_)" fill="#D4C5A3" d="M154.9,355.255l-18.8-1.5l-2.7-9l1-0.2c2.2-0.3,3.8-1.899,3.9-4l1.8-22.399
				H155L154.9,355.255z"/>
		</g>
		<g>
			<defs>
				<path id="SVGID_5_" d="M106.9,254.155c-5.5,0-10,4.5-10,10v107.899c0,5.5,4.5,10,10,10h95.7c5.5,0,10-4.5,10-10V264.155
					c0-5.5-4.5-10-10-10H106.9z"/>
			</defs>
			<clipPath id="SVGID_6_">
				<use xlink:href="#SVGID_5_"  overflow="visible"/>
			</clipPath>
			<path clip-path="url(#SVGID_6_)" fill="#CCBC97" d="M140.8,309.055h27.9l2.2,24c-0.5,0.8-0.9,1.3-1.4,2.101
				c-4.1,5.6-9.4,9.399-14.5,9.399s-10.4-3.8-14.5-9.399c-0.6-0.9-1.1-1.5-1.6-2.4L140.8,309.055z"/>
		</g>
		<g>
			<defs>
				<path id="SVGID_7_" d="M106.9,254.155c-5.5,0-10,4.5-10,10v107.899c0,5.5,4.5,10,10,10h95.7c5.5,0,10-4.5,10-10V264.155
					c0-5.5-4.5-10-10-10H106.9z"/>
			</defs>
			<clipPath id="SVGID_8_">
				<use xlink:href="#SVGID_7_"  overflow="visible"/>
			</clipPath>
			<path clip-path="url(#SVGID_8_)" fill="#2C3E50" d="M154.9,336.255c-6.5,0-13-4.2-17.9-10.4c-4.8-6.1-8-14.199-8-22v-0.199
				v-0.101v-1.6c0-18.7-3.4-33.9,26-33.9s25.9,15.2,25.9,33.9v1.5v0.1v0.2c0,7.8-3.2,15.9-8,22
				C168,332.055,161.4,336.255,154.9,336.255"/>
		</g>
		<g>
			<defs>
				<path id="SVGID_9_" d="M106.9,254.155c-5.5,0-10,4.5-10,10v107.899c0,5.5,4.5,10,10,10h95.7c5.5,0,10-4.5,10-10V264.155
					c0-5.5-4.5-10-10-10H106.9z"/>
			</defs>
			<clipPath id="SVGID_10_">
				<use xlink:href="#SVGID_9_"  overflow="visible"/>
			</clipPath>
			<path clip-path="url(#SVGID_10_)" fill="#ECF0F1" d="M138.1,341.655c-11.3,7.399-32.2,8-32.2,23.6v15.5c0,4.2,3.6,7.6,8.1,7.6
				h81.7c4.5,0,8.1-3.399,8.1-7.6v-15.4c0-15.8-20.6-16.399-32.1-23.6C160.2,349.354,151.7,351.955,138.1,341.655"/>
		</g>
		<g>
			<defs>
				<path id="SVGID_11_" d="M106.9,254.155c-5.5,0-10,4.5-10,10v107.899c0,5.5,4.5,10,10,10h95.7c5.5,0,10-4.5,10-10V264.155
					c0-5.5-4.5-10-10-10H106.9z"/>
			</defs>
			<clipPath id="SVGID_12_">
				<use xlink:href="#SVGID_11_"  overflow="visible"/>
			</clipPath>
			<path clip-path="url(#SVGID_12_)" fill="#FFE7BD" d="M137.6,329.255c4.9,6.2,11.2,10.4,17.3,10.4s12.5-4.2,17.3-10.4
				c5-6.4,8.4-14.8,8.5-22.9l-1.7-6.5c-0.6-2.3-0.7-4.5-0.7-6.5c-0.1-2.699-0.1-5.199-1.7-7.199c-2.5-3.301-6.5-2.2-11.2-1
				c-3.2,0.899-6.7,1.8-10.4,1.8c-3.8,0-7.2-0.9-10.4-1.8c-4.7-1.301-8.7-2.301-11.2,0.899c-1.6,2-1.6,4.5-1.7,7.2
				c0,2.1-0.1,4.2-0.7,6.5l-1.7,6.5C129.2,314.455,132.6,322.955,137.6,329.255"/>
		</g>
		<g>
			<defs>
				<path id="SVGID_13_" d="M106.9,254.155c-5.5,0-10,4.5-10,10v107.899c0,5.5,4.5,10,10,10h95.7c5.5,0,10-4.5,10-10V264.155
					c0-5.5-4.5-10-10-10H106.9z"/>
			</defs>
			<clipPath id="SVGID_14_">
				<use xlink:href="#SVGID_13_"  overflow="visible"/>
			</clipPath>
			<path clip-path="url(#SVGID_14_)" fill="#DAE1E6" d="M134.9,343.455c2.8,5.399,10.4,11.8,20.1,11.8c9.2,0,16.8-6.3,20.1-11.7
				c-3.3,6.2-10.6,12.8-20.1,12.7C145.5,356.255,137.6,349.555,134.9,343.455"/>
		</g>
		<g>
			<defs>
				<path id="SVGID_15_" d="M106.9,254.155c-5.5,0-10,4.5-10,10v107.899c0,5.5,4.5,10,10,10h95.7c5.5,0,10-4.5,10-10V264.155
					c0-5.5-4.5-10-10-10H106.9z"/>
			</defs>
			<clipPath id="SVGID_16_">
				<use xlink:href="#SVGID_15_"  overflow="visible"/>
			</clipPath>
			<path clip-path="url(#SVGID_16_)" fill="#E8D6AC" d="M137.6,329.255c4.9,6.2,11.2,10.4,17.3,10.4v-52.7c-3.8,0-7.2-0.9-10.4-1.8
				c-4.7-1.301-8.7-2.301-11.2,0.899c-1.6,2-1.6,4.5-1.7,7.2c0,2.1-0.1,4.2-0.7,6.5l-1.7,6.5
				C129.2,314.455,132.6,322.955,137.6,329.255"/>
		</g>
		<g>
			<defs>
				<path id="SVGID_17_" d="M106.9,254.155c-5.5,0-10,4.5-10,10v107.899c0,5.5,4.5,10,10,10h95.7c5.5,0,10-4.5,10-10V264.155
					c0-5.5-4.5-10-10-10H106.9z"/>
			</defs>
			<clipPath id="SVGID_18_">
				<use xlink:href="#SVGID_17_"  overflow="visible"/>
			</clipPath>
			<path clip-path="url(#SVGID_18_)" fill="#DAE1E6" d="M131.8,343.955c-10.7,4.6-25.9,5.6-25.9,21.2v15.5c0,4.199,3.6,7.6,8.1,7.6
				h40.9h40.9c4.5,0,8.1-3.4,8.1-7.6v-15.4c0-15.6-15.2-16.7-25.9-21.3c-6.6,10.2-14.9,15.399-23.1,15.5
				C146.7,359.455,138.4,354.255,131.8,343.955"/>
		</g>
		<g>
			<defs>
				<path id="SVGID_19_" d="M106.9,254.155c-5.5,0-10,4.5-10,10v107.899c0,5.5,4.5,10,10,10h95.7c5.5,0,10-4.5,10-10V264.155
					c0-5.5-4.5-10-10-10H106.9z"/>
			</defs>
			<clipPath id="SVGID_20_">
				<use xlink:href="#SVGID_19_"  overflow="visible"/>
			</clipPath>
			<path clip-path="url(#SVGID_20_)" fill="#B3B3B3" d="M131.8,343.854c-1.5,0.7-3.1,1.2-4.7,1.801
				c9.1,14.399,19.9,18.699,27.9,18.8c7.9-0.101,18.8-4.4,27.9-18.8c-1.6-0.601-3.2-1.101-4.7-1.801c-6.6,10.2-15,15.601-23.2,15.7
				C146.7,359.455,138.4,354.155,131.8,343.854"/>
		</g>
		<g>
			<defs>
				<path id="SVGID_21_" d="M106.9,254.155c-5.5,0-10,4.5-10,10v107.899c0,5.5,4.5,10,10,10h95.7c5.5,0,10-4.5,10-10V264.155
					c0-5.5-4.5-10-10-10H106.9z"/>
			</defs>
			<clipPath id="SVGID_22_">
				<use xlink:href="#SVGID_21_"  overflow="visible"/>
			</clipPath>
			<path clip-path="url(#SVGID_22_)" fill="#2C3E50" d="M155.3,336.354h6c1,0,1.9,0.7,2.2,1.601c5.9-1,10.3-3.7,13.6-7.5
				c2.8-3.2,4.6-7.2,5.8-11.601l-1.4-0.1l1.1-14.7l0.1-1.899l5,0.3l-0.2,2.8l1.7,0.1l-0.8,11.101l-1.7-0.101l-0.2,2.801l-1.9-0.101
				c-1.2,4.7-3.2,9.101-6.2,12.601c-3.5,4.1-8.4,7.1-14.8,8.1c0,1.3-1.1,2.4-2.4,2.4h-6c-1.3,0-2.4-1.101-2.4-2.4v-1
				C152.9,337.455,153.9,336.354,155.3,336.354"/>
		</g>
	</g>
	<rect x="292.46" y="219.883" fill="none" width="289.674" height="106.953"/>
	<text transform="matrix(1 0 0 1 292.46 239.875)" fill="#231F20" font-family="'HelveticaNeueLTPro-Md'" font-size="28">The Customer </text>
	<text transform="matrix(1 0 0 1 292.46 273.475)" fill="#231F20" font-family="'HelveticaNeueLTPro-Md'" font-size="28">Interface Team (CIT) </text>
	<text transform="matrix(1 0 0 1 292.46 307.075)" fill="#231F20" font-family="'HelveticaNeueLTPro-Md'" font-size="28">Representative </text>
	<rect x="292.46" y="359.287" fill="none" width="299.376" height="82.415"/>
	<text transform="matrix(1 0 0 1 292.46 376.4224)" fill="#333333" font-family="'HelveticaNeueLTPro-Roman'" font-size="24">is responsible for intaking </text>
	<text transform="matrix(1 0 0 1 292.46 405.2224)" fill="#333333" font-family="'HelveticaNeueLTPro-Roman'" font-size="24">customer calls </text>
</g>
<path fill="#FFFFFF" d="M593.737,761.502h-525.4c-5.5,0-10-4.5-10-10V507.701c0-5.5,4.5-10,10-10h525.4c5.5,0,10,4.5,10,10v243.801
	C603.737,757.002,599.237,761.502,593.737,761.502"/>
<path fill="#EFEFF0" d="M594.838,497.702H258.637v263.8h336.201c4.899,0,8.899-4,8.899-8.9v-246
	C603.737,501.701,599.737,497.702,594.838,497.702"/>
<rect x="85" y="709.58" fill="#8CC63F" width="1.2" height="12.8"/>
<path fill="#8CC63F" d="M88.6,709.58H94c2.1,0,4.1,0.699,4.1,3.1c0,1.3-0.9,2.6-2.2,2.9c1.7,0.199,2.7,1.5,2.7,3.1
	c0,1.2-0.4,3.6-4.6,3.6h-5.4V709.58z M89.8,715.18H94c1.9,0,2.9-1,2.9-2.2c0-1.6-1-2.399-2.9-2.399h-4.2V715.18z M89.8,721.279H94
	c1.8,0,3.4-0.6,3.4-2.6c0-1.7-1.2-2.5-3.4-2.5h-4.2V721.279z"/>
<polygon fill="#8CC63F" points="100.6,709.58 102.4,709.58 106.8,720.779 111.2,709.58 113,709.58 113,722.38 111.8,722.38 
	111.8,711.279 107.4,722.38 106.2,722.38 101.8,711.279 101.8,722.38 100.6,722.38 "/>
<polygon fill="#173E68" points="130.2,722.279 127.4,722.279 125.2,713.58 123.1,722.279 120.2,722.279 116.8,709.479 
	119.6,709.479 121.6,718.18 123.8,709.479 126.4,709.479 128.6,718.279 130.7,709.479 133.5,709.479 "/>
<path fill="#173E68" d="M133.9,715.779c0.2-2.399,2.3-3.1,4.4-3.1c1.8,0,4.1,0.4,4.1,2.6v4.801c0,0.8,0.1,1.699,0.3,2.1h-2.6
	c-0.1-0.3-0.2-0.6-0.2-0.9c-0.8,0.801-2,1.2-3.1,1.2c-1.8,0-3.1-0.899-3.1-2.8c0-4.2,6.3-2,6.2-4c0-1.1-0.7-1.2-1.7-1.2
	s-1.6,0.4-1.7,1.4h-2.6L133.9,715.779L133.9,715.779z M139.8,717.68c-0.4,0.4-1.3,0.4-2.1,0.5c-0.8,0.2-1.5,0.4-1.5,1.4
	s0.7,1.199,1.6,1.199c2,0,2.1-1.6,2.1-2.1v-1L139.8,717.68L139.8,717.68z"/>
<path fill="#173E68" d="M147.5,712.979h1.9v1.7h-1.9v4.6c0,0.9,0.2,1.101,1.1,1.101c0.3,0,0.6,0,0.8-0.101v2
	c-0.4,0.101-1,0.101-1.5,0.101c-1.6,0-2.9-0.3-2.9-2.2v-5.5h-1.6v-1.7h1.6v-2.8h2.6L147.5,712.979z"/>
<path fill="#173E68" d="M152.6,719.279c0,1.101,1,1.601,2,1.601c0.7,0,1.7-0.3,1.7-1.2c0-0.8-1.1-1.1-2.9-1.4c-1.5-0.3-3-0.8-3-2.5
	c0-2.399,2.1-3,4-3c2,0,3.9,0.7,4.1,3h-2.4c-0.1-1-0.8-1.199-1.7-1.199c-0.6,0-1.4,0.1-1.4,0.899c0,0.9,1.5,1,2.9,1.4
	c1.5,0.3,3,0.899,3,2.6c0,2.4-2.1,3.2-4.2,3.2c-2.1,0-4.3-0.8-4.4-3.3h2.3L152.6,719.279L152.6,719.279z"/>
<path fill="#173E68" d="M164.6,712.779c2.9,0,4.8,1.9,4.8,4.9s-1.9,4.9-4.8,4.9s-4.8-1.9-4.8-4.9S161.6,712.779,164.6,712.779
	 M164.6,720.58c1.7,0,2.3-1.5,2.3-3s-0.5-3-2.3-3c-1.7,0-2.2,1.5-2.2,3S162.8,720.58,164.6,720.58"/>
<path fill="#173E68" d="M170.6,712.979h2.4v1.3h0.1c0.7-1.1,1.7-1.6,2.8-1.6c2.7,0,3.4,1.5,3.4,3.8v5.7h-2.6v-5.2
	c0-1.5-0.4-2.3-1.6-2.3c-1.4,0-2,0.8-2,2.6v4.9h-2.6L170.6,712.979z"/>
<polygon fill="#173E68" points="184.4,709.479 187.2,709.479 187.2,714.38 192.4,714.38 192.4,709.479 195.2,709.479 195.2,722.279 
	192.4,722.279 192.4,716.779 187.2,716.779 187.2,722.279 184.4,722.279 "/>
<path fill="#173E68" d="M199.4,718.279c0.1,1.601,0.8,2.4,2.3,2.4c1,0,1.8-0.6,2-1.2h2.2c-0.7,2.2-2.2,3.101-4.3,3.101
	c-2.9,0-4.7-2-4.7-4.9c0-2.8,1.9-4.9,4.7-4.9c3.1,0,4.7,2.601,4.5,5.5L199.4,718.279L199.4,718.279z M203.5,716.58
	c-0.2-1.301-0.8-2-2-2c-1.7,0-2.1,1.199-2.1,2H203.5z"/>
<path fill="#173E68" d="M207.6,715.779c0.2-2.399,2.3-3.1,4.4-3.1c1.8,0,4.1,0.4,4.1,2.6v4.801c0,0.8,0.1,1.699,0.3,2.1h-2.6
	c-0.1-0.3-0.2-0.6-0.2-0.9c-0.8,0.801-2,1.2-3.1,1.2c-1.8,0-3.1-0.899-3.1-2.8c0-4.2,6.3-2,6.2-4c0-1.1-0.7-1.2-1.7-1.2
	s-1.6,0.4-1.7,1.4h-2.6L207.6,715.779L207.6,715.779z M213.4,717.68c-0.4,0.4-1.3,0.4-2.1,0.5c-0.8,0.2-1.5,0.4-1.5,1.4
	s0.7,1.199,1.6,1.199c2,0,2.1-1.6,2.1-2.1v-1L213.4,717.68L213.4,717.68z"/>
<path fill="#173E68" d="M225.7,712.979h1.9v1.7h-1.9v4.6c0,0.9,0.2,1.101,1.1,1.101c0.3,0,0.6,0,0.8-0.101v2
	c-0.4,0.101-1,0.101-1.5,0.101c-1.6,0-2.9-0.3-2.9-2.2v-5.5h-1.6v-1.7h1.6v-2.8h2.6v2.8L225.7,712.979L225.7,712.979z"/>
<path fill="#173E68" d="M229.2,709.479h2.6v4.8h0.1c0.7-1.1,1.7-1.6,2.7-1.6c2.7,0,3.4,1.5,3.4,3.8v5.7h-2.6v-5.2
	c0-1.5-0.4-2.3-1.6-2.3c-1.4,0-2,0.8-2,2.6v4.9h-2.6L229.2,709.479L229.2,709.479z"/>
<rect x="217.9" y="709.479" fill="#173E68" width="2.6" height="12.8"/>
<rect x="292.46" y="518.309" fill="none" width="289.674" height="126.632"/>
<text transform="matrix(1 0 0 1 292.46 538.3008)" fill="#231F20" font-family="'HelveticaNeueLTPro-Md'" font-size="28">The Central </text>
<text transform="matrix(1 0 0 1 292.46 571.9008)" fill="#231F20" font-family="'HelveticaNeueLTPro-Md'" font-size="28">Complaint Handling </text>
<text transform="matrix(1 0 0 1 292.46 605.4998)" fill="#231F20" font-family="'HelveticaNeueLTPro-Md'" font-size="28">Team (CCHT) </text>
<text transform="matrix(1 0 0 1 292.46 639.0998)" fill="#231F20" font-family="'HelveticaNeueLTPro-Md'" font-size="28">Representative</text>
<polygon fill="#FFFFFF" points="1886.793,919.26 1886.793,527.428 1886.793,271.006 1827.049,190.245 830.487,190.245 
	830.487,335.667 830.487,527.428 830.487,919.26 "/>
<g>
	<polygon fill="#2C5871" points="1826.364,250.366 1886.478,250.366 1826.364,190.245 	"/>
	<polygon fill="#D1ECFB" points="1886.478,250.366 1826.364,250.366 1886.478,310.478 	"/>
</g>
<g>
	<rect x="292.46" y="674.621" fill="none" width="299.376" height="82.416"/>
	<text transform="matrix(1 0 0 1 292.46 691.7578)" fill="#333333" font-family="'HelveticaNeueLTPro-Roman'" font-size="24">receives  </text>
	<text transform="matrix(1 0 0 1 292.46 720.5568)" fill="#333333" font-family="'HelveticaNeueLTPro-Roman'" font-size="24">complaint and reviews </text>
</g>
<rect x="61.972" y="75.963" fill="none" width="583.486" height="48.624"/>
<text transform="matrix(1 0 0 1 61.9722 108.8071)" fill="#FFFFFF" font-family="'HelveticaNeueLTPro-Md'" font-size="46">Who</text>
<g>
	<rect x="742.213" y="75.963" fill="none" width="1074.664" height="48.624"/>
	<text transform="matrix(1 0 0 1 742.2129 108.8066)" fill="#231F20" font-family="'HelveticaNeueLTPro-Md'" font-size="46">How</text>
</g>
<path fill="#89C240" d="M202.45,682.652h-95.7c-5.5,0-10-4.5-10-10v-107.9c0-5.5,4.5-10,10-10h95.7c5.5,0,10,4.5,10,10v107.9
	C212.45,678.152,207.95,682.652,202.45,682.652"/>
<g>
	<g>
		<defs>
			<path id="SVGID_23_" d="M106.75,554.752c-5.5,0-10,4.5-10,10v107.9c0,5.5,4.5,10,10,10h95.7c5.5,0,10-4.5,10-10v-107.9
				c0-5.5-4.5-10-10-10H106.75z"/>
		</defs>
		<clipPath id="SVGID_24_">
			<use xlink:href="#SVGID_23_"  overflow="visible"/>
		</clipPath>
		<path clip-path="url(#SVGID_24_)" fill="#E3CCA4" d="M141.05,612.354h26.1l2.8,32.398c0.2,2.301,2,4,4.2,4h0.5l-6.8,6.4
			l-13.4,19.5l-13.3-19.9l-7-6l1-0.199c2-0.301,3.5-2,3.7-4.1L141.05,612.354z"/>
	</g>
	<g>
		<defs>
			<path id="SVGID_25_" d="M106.75,554.752c-5.5,0-10,4.5-10,10v107.9c0,5.5,4.5,10,10,10h95.7c5.5,0,10-4.5,10-10v-107.9
				c0-5.5-4.5-10-10-10H106.75z"/>
		</defs>
		<clipPath id="SVGID_26_">
			<use xlink:href="#SVGID_25_"  overflow="visible"/>
		</clipPath>
		<path clip-path="url(#SVGID_26_)" fill="#D4C5A3" d="M154.45,674.752L154.45,674.752l-13.3-19.898l-7-6l1-0.201
			c2-0.299,3.5-2,3.7-4.1l1.9-25.9h13.8v56.1L154.45,674.752L154.45,674.752z"/>
	</g>
	<g>
		<defs>
			<path id="SVGID_27_" d="M106.75,554.752c-5.5,0-10,4.5-10,10v107.9c0,5.5,4.5,10,10,10h95.7c5.5,0,10-4.5,10-10v-107.9
				c0-5.5-4.5-10-10-10H106.75z"/>
		</defs>
		<clipPath id="SVGID_28_">
			<use xlink:href="#SVGID_27_"  overflow="visible"/>
		</clipPath>
		<path clip-path="url(#SVGID_28_)" fill="#CCBC97" d="M139.45,635.152l29.7,0.1l0.1,1.4c-0.5,0.801-0.8,1.301-1.3,2.1
			c-3.8,5.701-8.8,9.5-13.6,9.5s-9.8-3.898-13.6-9.5c-0.6-0.898-1-1.5-1.5-2.398L139.45,635.152z"/>
	</g>
	<g>
		<defs>
			<path id="SVGID_29_" d="M106.75,554.752c-5.5,0-10,4.5-10,10v107.9c0,5.5,4.5,10,10,10h95.7c5.5,0,10-4.5,10-10v-107.9
				c0-5.5-4.5-10-10-10H106.75z"/>
		</defs>
		<clipPath id="SVGID_30_">
			<use xlink:href="#SVGID_29_"  overflow="visible"/>
		</clipPath>
		<path clip-path="url(#SVGID_30_)" fill="#ECF0F1" d="M130.35,648.953l6.9-1.301l6.9,2.801c1.2,0.5,2,1.299,2.5,2.5l7.8,17.1
			l7.8-17.9c0.5-1.1,1.4-1.799,2.5-2.299l6.5-2.4l6,1.299l4.4,1.301l7.5,42.801h-69.3l6.5-42.301L130.35,648.953z"/>
	</g>
	<g>
		<defs>
			<path id="SVGID_31_" d="M106.75,554.752c-5.5,0-10,4.5-10,10v107.9c0,5.5,4.5,10,10,10h95.7c5.5,0,10-4.5,10-10v-107.9
				c0-5.5-4.5-10-10-10H106.75z"/>
		</defs>
		<clipPath id="SVGID_32_">
			<use xlink:href="#SVGID_31_"  overflow="visible"/>
		</clipPath>
		<path clip-path="url(#SVGID_32_)" fill="#2C3E50" d="M196.649,685.252c0.1-15.5-1-31.898-19.1-36.398
			c1.5,2.898,0.4,5.398,3.3,13.6l-13.7-7.6c-4.3,10.398-8.7,20.898-13,31.299l-13-31.299l-13.7,7.6c2.9-8,1.9-10.701,3.2-13.5
			c-17.4,4.799-18.5,21-18.4,36.199c0,4.201,3.4,7.701,7.5,7.701h69.3C193.25,692.854,196.649,689.453,196.649,685.252"/>
	</g>
	<g>
		<defs>
			<path id="SVGID_33_" d="M106.75,554.752c-5.5,0-10,4.5-10,10v107.9c0,5.5,4.5,10,10,10h95.7c5.5,0,10-4.5,10-10v-107.9
				c0-5.5-4.5-10-10-10H106.75z"/>
		</defs>
		<clipPath id="SVGID_34_">
			<use xlink:href="#SVGID_33_"  overflow="visible"/>
		</clipPath>
		<path clip-path="url(#SVGID_34_)" fill="#7D7662" d="M134.35,633.953c-29.4-47.701,16.5-65.701,18.3-59.1
			c0.5,1.699,0.6,0.898,1.7,0.1c14-9.9,44.6,21.799,20,59.299c-1.6,0.4-3.5,0.801-5.6,1.102l-0.1,0.199c1.8-2.5,3.4-5.4,4.6-8.699
			c0.6-1.9,1.2-4,1.7-6c0.5-2.102,0.8-4.201,1.1-6.201c0.1-0.9,0.1-1.699,0.2-2.6c0-0.801,0.1-1.699,0.1-2.699v-1.701
			c0-0.5,0-1-0.1-1.6c-0.5-4.5-6.6-5.5-13.2-6.6c-7.7-1.301-15.9-2.6-19.2-9.5h-0.1c-3.3,2.799-9.4,8.1-10.7,17.9
			c-0.1,0.898-0.2,1.799-0.2,2.699v2.9c0.7,8.6,3.3,16.199,7.2,21.699C137.85,634.854,135.95,634.453,134.35,633.953"/>
	</g>
	<g>
		<defs>
			<path id="SVGID_35_" d="M106.75,554.752c-5.5,0-10,4.5-10,10v107.9c0,5.5,4.5,10,10,10h95.7c5.5,0,10-4.5,10-10v-107.9
				c0-5.5-4.5-10-10-10H106.75z"/>
		</defs>
		<clipPath id="SVGID_36_">
			<use xlink:href="#SVGID_35_"  overflow="visible"/>
		</clipPath>
		<path clip-path="url(#SVGID_36_)" fill="#FFE7BD" d="M173.25,626.854c0.6-1.9,1.2-4,1.7-6c0.5-2.102,0.8-4.201,1.1-6.201
			c0.1-0.9,0.1-1.699,0.2-2.6c0-0.801,0.1-1.699,0.1-2.699v-1.701c0-0.5,0-1-0.1-1.6c-0.5-4.5-6.6-5.5-13.2-6.6
			c-7.7-1.301-15.9-2.6-19.2-9.5h-0.1c-3.3,2.799-9.5,8.1-10.7,17.9c-0.1,0.898-0.2,1.799-0.2,2.699v2.9c0.7,8.699,3.4,16.5,7.4,22
			c3.8,5.199,8.8,8.4,14.2,8.4c3.8,0,7.4-1.602,10.6-4.4C168.45,636.453,171.25,632.152,173.25,626.854"/>
	</g>
	<g>
		<defs>
			<path id="SVGID_37_" d="M106.75,554.752c-5.5,0-10,4.5-10,10v107.9c0,5.5,4.5,10,10,10h95.7c5.5,0,10-4.5,10-10v-107.9
				c0-5.5-4.5-10-10-10H106.75z"/>
		</defs>
		<clipPath id="SVGID_38_">
			<use xlink:href="#SVGID_37_"  overflow="visible"/>
		</clipPath>
		<path clip-path="url(#SVGID_38_)" fill="#E8D6AC" d="M154.45,597.752c-4.6-1.299-8.6-3.5-10.6-7.799h-0.1
			c-3.3,2.799-9.4,8.1-10.7,17.9c-0.1,0.898-0.2,1.799-0.2,2.699v2.9c0.7,8.699,3.4,16.5,7.4,21.9c3.8,5.199,8.8,8.398,14.2,8.398
			L154.45,597.752L154.45,597.752z"/>
	</g>
</g>
<rect x="866.599" y="452.253" fill="#15B0BF" width="157.401" height="123.247"/>
<g>
	<text transform="matrix(1 0 0 1 893.469 508.3008)"><tspan x="0" y="0" fill="#FFFFFF" font-family="'HelveticaNeueLTPro-Roman'" font-size="28">Offering</tspan><tspan x="0" y="33.6" fill="#FFFFFF" font-family="'HelveticaNeueLTPro-Roman'" font-size="28">Event</tspan></text>
</g>
<g>
	<rect x="1499.969" y="461.582" fill="none" width="316.452" height="103.718"/>
	<text transform="matrix(1 0 0 1 1489.9688 481.5739)"><tspan x="0" y="0" fill="#15B0BF" font-family="'HelveticaNeueLTPro-Roman'" font-size="28">1. Impacts custome use </tspan><tspan x="30" y="33.6" fill="#15B0BF" font-family="'HelveticaNeueLTPro-Roman'" font-size="28">of Offering or perfor</tspan><tspan x="277.827" y="33.6" fill="#15B0BF" font-family="'HelveticaNeueLTPro-Roman'" font-size="28">-</tspan><tspan x="30" y="67.2" fill="#15B0BF" font-family="'HelveticaNeueLTPro-Roman'" font-size="28">mance of Offering</tspan></text>
</g>
<g>
	<rect x="1499.969" y="635.84" fill="none" width="316.452" height="74.997"/>
	<text transform="matrix(1 0 0 1 1489.9688 655.8315)"><tspan x="0" y="0" fill="#15B0BF" font-family="'HelveticaNeueLTPro-Roman'" font-size="28">2. Causes harm/places </tspan><tspan x="30" y="33.6" fill="#15B0BF" font-family="'HelveticaNeueLTPro-Roman'" font-size="28">patient at risk</tspan></text>
</g>
<g>
	<rect x="1499.969" y="799.146" fill="none" width="316.452" height="74.997"/>
	<text transform="matrix(1 0 0 1 1489.9688 819.1376)"><tspan x="0" y="0" fill="#15B0BF" font-family="'HelveticaNeueLTPro-Roman'" font-size="28">3. Security and Privacy </tspan><tspan x="30" y="33.6" fill="#15B0BF" font-family="'HelveticaNeueLTPro-Roman'" font-size="28">Data issue</tspan></text>
</g>
<g>
	<g>
		<rect x="1094.64" y="265.906" fill="none" width="293.86" height="94.358"/>
		<text transform="matrix(1 0 0 1 1084.64 285.8974)"><tspan x="0" y="0" fill="#15B0BF" font-family="'HelveticaNeueLTPro-Roman'" font-size="28">A. Offering support  </tspan><tspan x="30" y="33.6" fill="#15B0BF" font-family="'HelveticaNeueLTPro-Roman'" font-size="28">request</tspan></text>
	</g>
	<rect x="1065.186" y="236.265" fill="none" stroke="#15B0BF" stroke-miterlimit="10" width="323.314" height="135.917"/>
</g>
<g>
	<g>
		<rect x="1094.64" y="440" fill="none" width="251.979" height="145.861"/>
		<text transform="matrix(1 0 0 1 1084.64 459.9912)"><tspan x="0" y="0" fill="#15B0BF" font-family="'HelveticaNeueLTPro-Roman'" font-size="28">B. Customer nuance </tspan><tspan x="30" y="33.6" fill="#15B0BF" font-family="'HelveticaNeueLTPro-Roman'" font-size="28">or enhancement </tspan><tspan x="30" y="67.2" fill="#15B0BF" font-family="'HelveticaNeueLTPro-Roman'" font-size="28">request beyond </tspan><tspan x="30" y="100.8" fill="#15B0BF" font-family="'HelveticaNeueLTPro-Roman'" font-size="28">intended use</tspan></text>
	</g>
	<rect x="1065.186" y="407.827" fill="none" stroke="#15B0BF" stroke-miterlimit="10" width="323.314" height="195.277"/>
</g>
<g>
	<g>
		<rect x="1094.64" y="676.643" fill="none" width="264" height="91.764"/>
		<text transform="matrix(1 0 0 1 1084.64 696.6345)"><tspan x="0" y="0" fill="#15B0BF" font-family="'HelveticaNeueLTPro-Roman'" font-size="28">C. Offering </tspan><tspan x="30" y="33.6" fill="#15B0BF" font-family="'HelveticaNeueLTPro-Roman'" font-size="28">Performance issue</tspan></text>
	</g>
	<rect x="1065.186" y="630.495" fill="none" stroke="#15B0BF" stroke-miterlimit="10" width="323.314" height="152.425"/>
</g>
<line fill="none" stroke="#15B0BF" stroke-miterlimit="10" x1="1012.558" y1="505.465" x2="1065.186" y2="505.465"/>
<polyline fill="none" stroke="#15B0BF" stroke-miterlimit="10" points="1067.552,725.783 1037.139,725.783 1037.139,283.475 
	1067.552,283.475 "/>
<line fill="none" stroke="#15B0BF" stroke-miterlimit="10" x1="1385.887" y1="681.514" x2="1476.72" y2="681.514"/>
<polyline fill="none" stroke="#15B0BF" stroke-miterlimit="10" points="1473.615,825.335 1431.941,825.335 1431.941,513.441 
	1473.615,513.441 "/>
<rect x="1476.72" y="439.999" fill="none" stroke="#15B0BF" stroke-miterlimit="10" width="340.157" height="141.901"/>
<rect x="1476.72" y="607.429" fill="none" stroke="#15B0BF" stroke-miterlimit="10" width="339.701" height="123.128"/>
<rect x="1476.72" y="760.894" fill="none" stroke="#15B0BF" stroke-miterlimit="10" width="339.701" height="128.882"/>
<text transform="matrix(1 0 0 1 1479.5 240.9468)"><tspan x="0" y="0" font-family="'HelveticaNeueLTPro-Roman'" font-size="24">A. Not a complaint</tspan><tspan x="0" y="37" font-family="'HelveticaNeueLTPro-Roman'" font-size="24">B. Not a complaint</tspan><tspan x="0" y="74" font-family="'HelveticaNeueLTPro-Roman'" font-size="24">C1. Requires complaint handling</tspan><tspan x="0" y="111" font-family="'HelveticaNeueLTPro-Roman'" font-size="24">C2. Requires complaint handling</tspan><tspan x="0" y="148" font-family="'HelveticaNeueLTPro-Roman'" font-size="24">C3. Requires data issue handling</tspan></text>
</svg>
