<?xml version="1.0" encoding="utf-8"?>
<!-- Generator: Adobe Illustrator 19.2.0, SVG Export Plug-In . SVG Version: 6.00 Build 0)  -->
<svg version="1.1" id="Layer_1" xmlns="http://www.w3.org/2000/svg" xmlns:xlink="http://www.w3.org/1999/xlink" x="0px" y="0px"
	 viewBox="0 0 2048 1000" style="enable-background:new 0 0 2048 1000;" xml:space="preserve">
<style type="text/css">
	.st0{fill:#B9E5FB;}
	.st1{fill:none;stroke:#343636;stroke-width:7.1988;stroke-miterlimit:10;}
	.st2{fill:#FFFFFF;}
	.st3{fill:#4EA8DE;}
	.st4{fill:#333333;}
	.st5{fill:none;stroke:#116BB4;stroke-miterlimit:10;}
</style>
<rect class="st0" width="2048" height="1000"/>
<line class="st1" x1="48.2" y1="51.9" x2="2008.4" y2="51.9"/>
<g>
	<g>
		<polygon class="st2" points="1992.1,941.5 1992.1,476.2 1992.1,271.4 1992.1,124.6 115.2,124.6 115.2,941.5 		"/>
	</g>
</g>
<rect x="130.4" y="174.4" class="st3" width="1843" height="117.7"/>
<g>
	<path class="st4" d="M142.2,191.7h6.3c4.1,0,4.9,2.6,4.9,4.4c0,1.8-0.8,4.4-4.9,4.4h-3.8v5.5h-2.5L142.2,191.7L142.2,191.7z
		 M144.7,198.5h3.7c1.1,0,2.5-0.6,2.5-2.4c0-1.9-1.1-2.4-2.5-2.4h-3.7L144.7,198.5L144.7,198.5z"/>
	<path class="st4" d="M155.2,195.7h2.1v2h0c0.3-1.1,1.6-2.3,3-2.3c0.5,0,0.6,0,0.9,0.1v2.2c-0.3-0.1-0.7-0.1-1-0.1
		c-1.5,0-2.8,1.2-2.8,3.5v4.9h-2.3L155.2,195.7L155.2,195.7z"/>
	<path class="st4" d="M161.4,200.8c0-3.1,1.9-5.4,5.2-5.4s5.2,2.3,5.2,5.4c0,3.2-1.9,5.5-5.2,5.5S161.4,204,161.4,200.8z
		 M169.5,200.8c0-1.8-0.9-3.6-2.9-3.6s-2.9,1.9-2.9,3.6c0,1.8,0.9,3.7,2.9,3.7S169.5,202.6,169.5,200.8z"/>
	<path class="st4" d="M173.7,195.7h2.2v1.4h0.1c0.7-1,1.5-1.7,3.2-1.7c1.3,0,2.4,0.5,2.9,1.7c0.8-1.1,1.7-1.7,3.2-1.7
		c2.2,0,3.5,1,3.5,3.5v7.1h-2.3v-6c0-1.7-0.1-2.8-1.9-2.8c-1.5,0-2.2,1-2.2,2.8v6.1h-2.3v-6.6c0-1.4-0.4-2.2-1.8-2.2
		c-1.2,0-2.3,1-2.3,2.7v6.1h-2.3L173.7,195.7L173.7,195.7z"/>
	<path class="st4" d="M190.6,200.8c0-3.1,1.9-5.4,5.2-5.4s5.2,2.3,5.2,5.4c0,3.2-1.9,5.5-5.2,5.5S190.6,204,190.6,200.8z
		 M198.8,200.8c0-1.8-0.9-3.6-2.9-3.6s-2.9,1.9-2.9,3.6c0,1.8,0.9,3.7,2.9,3.7S198.8,202.6,198.8,200.8z"/>
	<path class="st4" d="M201.9,195.7h1.7v-3.1h2.3v3.1h2.1v1.7h-2.1v5.5c0,0.9,0.1,1.4,1.1,1.4c0.3,0,0.6,0,1-0.1v1.8
		c-0.5,0.1-1,0.1-1.5,0.1c-2.4,0-2.8-0.9-2.9-2.6v-6.1h-1.7L201.9,195.7L201.9,195.7z"/>
	<path class="st4" d="M209.7,191.7h2.3v2.2h-2.3V191.7z M209.7,195.7h2.3V206h-2.3V195.7z"/>
	<path class="st4" d="M214,200.8c0-3.1,1.9-5.4,5.2-5.4s5.2,2.3,5.2,5.4c0,3.2-1.9,5.5-5.2,5.5S214,204,214,200.8z M222.1,200.8
		c0-1.8-0.9-3.6-2.9-3.6s-2.9,1.9-2.9,3.6c0,1.8,0.9,3.7,2.9,3.7S222.1,202.6,222.1,200.8z"/>
	<path class="st4" d="M226.3,195.7h2.2v1.5l0,0c0.7-1.1,1.9-1.8,3.2-1.8c2.3,0,3.7,1.2,3.7,3.5v7.1h-2.3v-6.5
		c-0.1-1.6-0.7-2.3-2-2.3c-1.5,0-2.5,1.2-2.5,2.7v6.1h-2.3L226.3,195.7L226.3,195.7z"/>
	<path class="st4" d="M246.5,203.7c0,0.6,0.1,0.8,0.5,0.8h0.2c0.1,0,0.2,0,0.3,0v1.6c-0.3,0.1-1.1,0.3-1.4,0.3
		c-0.9,0-1.6-0.3-1.8-1.3c-0.9,0.9-2.4,1.3-3.6,1.3c-1.9,0-3.5-1-3.5-3c0-2.6,2.1-3,4-3.2c1.7-0.3,3.1-0.1,3.1-1.5
		c0-1.2-1.2-1.4-2.1-1.4c-1.3,0-2.2,0.5-2.3,1.6h-2.3c0.2-2.7,2.4-3.4,4.7-3.4c2,0,4.1,0.8,4.1,3L246.5,203.7L246.5,203.7z
		 M244.2,200.8c-0.7,0.5-1.8,0.4-2.8,0.6c-1,0.2-1.9,0.5-1.9,1.7c0,1,1.3,1.3,2.1,1.3c1,0,2.6-0.5,2.6-2L244.2,200.8L244.2,200.8z"
		/>
	<path class="st4" d="M249,191.7h2.3V206H249V191.7z"/>
	<path class="st4" d="M142.1,215.7h3.5l3.9,11.2h0l3.8-11.2h3.5V230h-2.4v-11h0l-4,11h-2.1l-4-11h0v11h-2.4L142.1,215.7L142.1,215.7
		z"/>
	<path class="st4" d="M168.3,227.7c0,0.6,0.1,0.8,0.5,0.8h0.2c0.1,0,0.2,0,0.3,0v1.6c-0.3,0.1-1.1,0.3-1.4,0.3
		c-0.9,0-1.6-0.3-1.8-1.3c-0.9,0.9-2.4,1.3-3.6,1.3c-1.9,0-3.5-1-3.5-3c0-2.6,2.1-3,4-3.2c1.7-0.3,3.1-0.1,3.1-1.5
		c0-1.2-1.2-1.4-2.1-1.4c-1.3,0-2.2,0.5-2.3,1.6h-2.3c0.2-2.7,2.4-3.4,4.7-3.4c2,0,4.1,0.8,4.1,3L168.3,227.7L168.3,227.7z
		 M166,224.8c-0.7,0.5-1.8,0.4-2.8,0.6c-1,0.2-1.9,0.5-1.9,1.7c0,1,1.3,1.3,2.1,1.3c1,0,2.6-0.5,2.6-2L166,224.8L166,224.8z"/>
	<path class="st4" d="M169.7,219.7h1.7v-3.1h2.3v3.1h2.1v1.7h-2.1v5.5c0,0.9,0.1,1.4,1.1,1.4c0.3,0,0.6,0,1-0.1v1.8
		c-0.5,0.1-1,0.1-1.5,0.1c-2.4,0-2.8-0.9-2.9-2.6v-6.1h-1.7L169.7,219.7L169.7,219.7z"/>
	<path class="st4" d="M179.2,225.4c0,1.6,0.9,3.1,2.8,3.1c1.3,0,2.1-0.6,2.5-1.7h2.2c-0.5,2.3-2.4,3.5-4.7,3.5
		c-3.3,0-5.1-2.2-5.1-5.4c0-2.9,1.9-5.5,5-5.5c3.3,0,5.3,2.9,4.9,6L179.2,225.4L179.2,225.4z M184.5,223.9c-0.1-1.4-1-2.7-2.6-2.7
		c-1.6,0-2.7,1.2-2.7,2.7H184.5z"/>
	<path class="st4" d="M188.5,219.7h2.1v2h0c0.3-1.1,1.6-2.3,3-2.3c0.5,0,0.6,0,0.9,0.1v2.2c-0.3-0.1-0.7-0.1-1-0.1
		c-1.5,0-2.8,1.2-2.8,3.5v4.9h-2.3L188.5,219.7L188.5,219.7z"/>
	<path class="st4" d="M195.6,215.7h2.3v2.2h-2.3V215.7z M195.6,219.7h2.3V230h-2.3V219.7z"/>
	<path class="st4" d="M209,227.7c0,0.6,0.1,0.8,0.5,0.8h0.2c0.1,0,0.2,0,0.3,0v1.6c-0.3,0.1-1.1,0.3-1.4,0.3c-0.9,0-1.6-0.3-1.8-1.3
		c-0.9,0.9-2.4,1.3-3.6,1.3c-1.9,0-3.5-1-3.5-3c0-2.6,2.1-3,4-3.2c1.7-0.3,3.1-0.1,3.1-1.5c0-1.2-1.2-1.4-2.1-1.4
		c-1.3,0-2.2,0.5-2.3,1.6h-2.3c0.2-2.7,2.4-3.4,4.7-3.4c2,0,4.1,0.8,4.1,3L209,227.7L209,227.7z M206.8,224.8
		c-0.7,0.5-1.8,0.4-2.8,0.6c-1,0.2-1.9,0.5-1.9,1.7c0,1,1.3,1.3,2.1,1.3c1,0,2.6-0.5,2.6-2L206.8,224.8L206.8,224.8z"/>
	<path class="st4" d="M211.6,215.7h2.3V230h-2.3V215.7z"/>
	<path class="st4" d="M140.8,239.7h11.6v2.2h-4.5V254h-2.5v-12.1h-4.5V239.7z"/>
	<path class="st4" d="M151.9,243.7h2.1v2h0c0.3-1.1,1.6-2.3,3-2.3c0.5,0,0.6,0,0.9,0.1v2.2c-0.3-0.1-0.7-0.1-1-0.1
		c-1.5,0-2.8,1.2-2.8,3.5v4.9h-2.3L151.9,243.7L151.9,243.7z"/>
	<path class="st4" d="M167.6,251.7c0,0.6,0.1,0.8,0.5,0.8h0.2c0.1,0,0.2,0,0.3,0v1.6c-0.3,0.1-1.1,0.3-1.4,0.3
		c-0.9,0-1.6-0.3-1.8-1.3c-0.9,0.9-2.4,1.3-3.6,1.3c-1.9,0-3.5-1-3.5-3c0-2.6,2.1-3,4-3.2c1.7-0.3,3.1-0.1,3.1-1.5
		c0-1.2-1.2-1.4-2.1-1.4c-1.3,0-2.2,0.5-2.3,1.6h-2.3c0.2-2.7,2.4-3.4,4.7-3.4c2,0,4.1,0.8,4.1,3L167.6,251.7L167.6,251.7z
		 M165.3,248.8c-0.7,0.5-1.8,0.4-2.8,0.6c-1,0.2-1.9,0.5-1.9,1.7c0,1,1.3,1.3,2.1,1.3c1,0,2.6-0.5,2.6-2L165.3,248.8L165.3,248.8z"
		/>
	<path class="st4" d="M177,247.1c-0.2-1.3-1.1-1.9-2.4-1.9c-1.2,0-2.8,0.6-2.8,3.8c0,1.7,0.8,3.5,2.7,3.5c1.3,0,2.2-0.9,2.5-2.4h2.3
		c-0.4,2.7-2.1,4.2-4.7,4.2c-3.2,0-5-2.3-5-5.3c0-3.1,1.7-5.6,5.1-5.6c2.4,0,4.4,1.2,4.7,3.7L177,247.1L177,247.1z"/>
	<path class="st4" d="M181.2,239.7h2.3v8.1l4.1-4.2h2.8l-4,3.8l4.3,6.5H188l-3.2-5l-1.4,1.3v3.7h-2.3V239.7z"/>
	<path class="st4" d="M191.9,239.7h2.3v2.2h-2.3V239.7z M191.9,243.7h2.3V254h-2.3V243.7z"/>
	<path class="st4" d="M196.7,243.7h2.2v1.5l0,0c0.7-1.1,1.9-1.8,3.2-1.8c2.3,0,3.7,1.2,3.7,3.5v7.1h-2.3v-6.5
		c-0.1-1.6-0.7-2.3-2-2.3c-1.5,0-2.5,1.2-2.5,2.7v6.1h-2.3L196.7,243.7L196.7,243.7z"/>
	<path class="st4" d="M217.7,253.5c0,3.1-1.8,4.6-5.1,4.6c-2.1,0-4.4-0.8-4.6-3.2h2.3c0.3,1.3,1.3,1.5,2.5,1.5
		c1.8,0,2.7-0.9,2.7-2.6v-1.6h0c-0.6,1.1-1.8,1.8-3.1,1.8c-3.3,0-4.6-2.5-4.6-5.4c0-2.8,1.7-5.2,4.7-5.2c1.3,0,2.5,0.5,3.1,1.7h0
		v-1.4h2.3V253.5z M215.5,248.6c0-1.8-0.8-3.4-2.8-3.4c-2,0-2.7,1.9-2.7,3.6c0,1.7,0.8,3.4,2.7,3.4
		C214.7,252.2,215.5,250.4,215.5,248.6z"/>
	<path class="st4" d="M142.1,263.7h2.6l6.5,10.5h0v-10.5h2.4V278H151l-6.5-10.5h-0.1V278h-2.4L142.1,263.7L142.1,263.7z"/>
	<path class="st4" d="M165.4,278h-2.2v-1.4h0c-0.6,1-1.8,1.7-2.9,1.7c-2.7,0-3.9-1.3-3.9-4.1v-6.6h2.3v6.3c0,1.8,0.7,2.5,2,2.5
		c1.9,0,2.5-1.2,2.5-2.8v-6h2.3L165.4,278L165.4,278z"/>
	<path class="st4" d="M167.8,267.7h2.2v1.4h0.1c0.7-1,1.5-1.7,3.2-1.7c1.3,0,2.4,0.5,2.9,1.7c0.8-1.1,1.7-1.7,3.2-1.7
		c2.2,0,3.5,1,3.5,3.5v7.1h-2.3v-6c0-1.7-0.1-2.8-1.9-2.8c-1.5,0-2.2,1-2.2,2.8v6.1h-2.3v-6.6c0-1.4-0.4-2.2-1.8-2.2
		c-1.2,0-2.3,1-2.3,2.7v6.1h-2.3L167.8,267.7L167.8,267.7z"/>
	<path class="st4" d="M185.2,263.7h2.3v5.3h0c0.6-1,1.9-1.6,3.1-1.6c3.3,0,4.8,2.5,4.8,5.5c0,2.8-1.4,5.4-4.5,5.4
		c-1.4,0-2.9-0.3-3.6-1.7h0v1.4h-2.2L185.2,263.7L185.2,263.7z M190.3,269.2c-1.9,0-2.9,1.4-2.9,3.7c0,2.1,1.1,3.6,2.9,3.6
		c2.1,0,2.9-1.8,2.9-3.6C193.2,271,192.2,269.2,190.3,269.2z"/>
	<path class="st4" d="M199.2,273.4c0,1.6,0.9,3.1,2.8,3.1c1.3,0,2.1-0.6,2.5-1.7h2.2c-0.5,2.3-2.4,3.5-4.7,3.5
		c-3.3,0-5.1-2.2-5.1-5.4c0-2.9,1.9-5.5,5-5.5c3.3,0,5.3,2.9,4.9,6L199.2,273.4L199.2,273.4z M204.5,271.9c-0.1-1.4-1-2.7-2.6-2.7
		c-1.6,0-2.7,1.2-2.7,2.7H204.5z"/>
	<path class="st4" d="M208.5,267.7h2.1v2h0c0.3-1.1,1.6-2.3,3-2.3c0.5,0,0.6,0,0.9,0.1v2.2c-0.3-0.1-0.7-0.1-1-0.1
		c-1.5,0-2.8,1.2-2.8,3.5v4.9h-2.3L208.5,267.7L208.5,267.7z"/>
</g>
<g>
	<path class="st4" d="M145.8,305.3h2l5.3,13.6h-2l-1.5-4.1h-5.7l-1.5,4.1h-1.9L145.8,305.3z M144.5,313.2h4.6l-2.3-6.3h0
		L144.5,313.2z"/>
	<path class="st4" d="M155.2,315.7c0.1,1.4,1.3,1.9,2.6,1.9c1,0,2.4-0.2,2.4-1.5c0-2.5-6.4-0.8-6.4-4.6c0-2,1.9-2.8,3.7-2.8
		c2.2,0,3.9,0.7,4,3.1h-1.6c-0.1-1.3-1.2-1.7-2.3-1.7c-1,0-2.1,0.3-2.1,1.3c0,1.1,1.7,1.4,3.2,1.7c1.6,0.4,3.2,0.9,3.2,2.8
		c0,2.4-2.2,3.1-4.2,3.1c-2.2,0-4.1-0.9-4.2-3.3L155.2,315.7L155.2,315.7z"/>
	<path class="st4" d="M164.7,315.7c0.1,1.4,1.3,1.9,2.6,1.9c1,0,2.4-0.2,2.4-1.5c0-2.5-6.4-0.8-6.4-4.6c0-2,1.9-2.8,3.7-2.8
		c2.2,0,3.9,0.7,4,3.1h-1.6c-0.1-1.3-1.2-1.7-2.3-1.7c-1,0-2.1,0.3-2.1,1.3c0,1.1,1.7,1.4,3.2,1.7c1.6,0.4,3.2,0.9,3.2,2.8
		c0,2.4-2.2,3.1-4.2,3.1c-2.2,0-4.1-0.9-4.2-3.3L164.7,315.7L164.7,315.7z"/>
	<path class="st4" d="M174.9,307.2h-1.6v-2h1.6V307.2z M173.3,309h1.6v9.8h-1.6V309z"/>
	<path class="st4" d="M185.9,318c0,3.2-1.4,4.8-4.6,4.8c-1.8,0-4-0.8-4.1-2.9h1.6c0.1,1.2,1.5,1.6,2.5,1.6c2.1,0,2.9-1.5,2.9-3.7
		v-0.6h0c-0.6,1.2-1.8,1.8-3.1,1.8c-2.9,0-4.4-2.3-4.4-5c0-2.3,1.1-5.2,4.5-5.2c1.2,0,2.3,0.6,2.9,1.6h0V309h1.5L185.9,318
		L185.9,318z M184.3,313.7c0-1.7-0.8-3.5-2.8-3.5c-2.1,0-2.9,1.7-2.9,3.6c0,1.8,0.6,3.7,2.8,3.7
		C183.5,317.5,184.3,315.5,184.3,313.7z"/>
	<path class="st4" d="M188.3,309h1.5v1.6h0c0.7-1.2,1.8-1.8,3.2-1.8c2.6,0,3.4,1.5,3.4,3.6v6.5h-1.6v-6.6c0-1.2-0.8-2-2-2
		c-2,0-2.9,1.3-2.9,3.1v5.5h-1.6L188.3,309L188.3,309z"/>
	<path class="st4" d="M212.8,318.8c-0.3,0.2-0.7,0.3-1.2,0.3c-0.8,0-1.4-0.5-1.4-1.5c-0.9,1.1-2.1,1.5-3.5,1.5
		c-1.8,0-3.2-0.8-3.2-2.8c0-2.2,1.7-2.7,3.3-3c1.8-0.4,3.3-0.2,3.3-1.4c0-1.4-1.2-1.6-2.2-1.6c-1.4,0-2.4,0.4-2.5,1.9H204
		c0.1-2.4,2-3.3,4.2-3.3c1.8,0,3.7,0.4,3.7,2.7v5.1c0,0.8,0,1.1,0.5,1.1c0.2,0,0.3,0,0.5-0.1L212.8,318.8L212.8,318.8z M210.2,313.7
		c-1.3,0.9-4.9,0-4.9,2.4c0,1.1,0.9,1.4,1.9,1.4c2.1,0,3-1.3,3-2.2V313.7z"/>
	<path class="st4" d="M220.6,315.7c0.1,1.4,1.3,1.9,2.6,1.9c1,0,2.4-0.2,2.4-1.5c0-2.5-6.4-0.8-6.4-4.6c0-2,1.9-2.8,3.7-2.8
		c2.2,0,3.9,0.7,4,3.1h-1.6c-0.1-1.3-1.2-1.7-2.3-1.7c-1,0-2.1,0.3-2.1,1.3c0,1.1,1.7,1.4,3.2,1.7c1.6,0.4,3.2,0.9,3.2,2.8
		c0,2.4-2.2,3.1-4.2,3.1c-2.2,0-4.1-0.9-4.2-3.3L220.6,315.7L220.6,315.7z"/>
	<path class="st4" d="M237.5,315.7c-0.4,2.2-2,3.3-4.2,3.3c-3.1,0-4.6-2.2-4.7-5.2c0-3,1.9-5.1,4.6-5.1c3.5,0,4.5,3.2,4.4,5.6h-7.4
		c-0.1,1.7,0.9,3.2,3.1,3.2c1.3,0,2.3-0.6,2.5-1.9H237.5z M235.9,313c-0.1-1.5-1.2-2.8-2.8-2.8c-1.7,0-2.7,1.3-2.8,2.8H235.9z"/>
	<path class="st4" d="M239.3,309h1.5v2.1h0c0.8-1.6,1.9-2.4,3.6-2.3v1.7c-2.6,0-3.6,1.5-3.6,4v4.4h-1.6L239.3,309L239.3,309z"/>
	<path class="st4" d="M247.4,307.2h-1.6v-2h1.6V307.2z M245.7,309h1.6v9.8h-1.6V309z"/>
	<path class="st4" d="M258.6,318.8c-0.3,0.2-0.7,0.3-1.2,0.3c-0.8,0-1.4-0.5-1.4-1.5c-0.9,1.1-2.1,1.5-3.5,1.5
		c-1.8,0-3.2-0.8-3.2-2.8c0-2.2,1.7-2.7,3.3-3c1.8-0.4,3.3-0.2,3.3-1.4c0-1.4-1.2-1.6-2.2-1.6c-1.4,0-2.4,0.4-2.5,1.9h-1.6
		c0.1-2.4,2-3.3,4.2-3.3c1.8,0,3.7,0.4,3.7,2.7v5.1c0,0.8,0,1.1,0.5,1.1c0.2,0,0.3,0,0.5-0.1L258.6,318.8L258.6,318.8z M255.9,313.7
		c-1.3,0.9-4.9,0-4.9,2.4c0,1.1,0.9,1.4,1.9,1.4c2.1,0,3-1.3,3-2.2V313.7z"/>
	<path class="st4" d="M260.2,305.3h1.6v13.6h-1.6V305.3z"/>
	<path class="st4" d="M141.9,331.8h1.5v1.6h0c0.7-1.2,1.8-1.8,3.2-1.8c2.6,0,3.4,1.5,3.4,3.6v6.5h-1.6V335c0-1.2-0.8-2-2-2
		c-2,0-2.9,1.3-2.9,3.1v5.5h-1.6L141.9,331.8L141.9,331.8z"/>
	<path class="st4" d="M160.5,341.6H159v-1.6h0c-0.7,1.2-1.8,1.8-3.2,1.8c-2.6,0-3.4-1.5-3.4-3.6v-6.5h1.6v6.6c0,1.2,0.8,2,2,2
		c2,0,2.9-1.3,2.9-3.1v-5.5h1.6L160.5,341.6L160.5,341.6z"/>
	<path class="st4" d="M163,331.8h1.5v1.4h0c0.7-1.1,1.8-1.7,3.2-1.7c1.2,0,2.3,0.5,2.7,1.7c0.7-1.1,1.8-1.7,3.1-1.7
		c2,0,3.3,0.8,3.3,2.9v7.2h-1.6v-6.4c0-1.2-0.3-2.2-1.9-2.2s-2.6,1-2.6,2.5v6.1h-1.6v-6.4c0-1.3-0.4-2.2-1.8-2.2
		c-1.9,0-2.6,1.7-2.6,2.5v6.1H163L163,331.8L163,331.8z"/>
	<path class="st4" d="M179.2,328.1h1.6v5.1h0c0.5-1.1,1.8-1.6,3.1-1.6c3,0,4.5,2.4,4.5,5.2c0,2.8-1.5,5.1-4.5,5.1
		c-1,0-2.5-0.4-3.2-1.5h0v1.3h-1.6V328.1z M183.8,333c-2.2,0-3,1.9-3,3.7c0,1.9,0.9,3.7,3.1,3.7c2.2,0,2.9-1.9,2.9-3.8
		C186.8,334.8,185.9,333,183.8,333z"/>
	<path class="st4" d="M198.8,338.5c-0.4,2.2-2,3.3-4.2,3.3c-3.1,0-4.6-2.2-4.7-5.2c0-3,1.9-5.1,4.6-5.1c3.5,0,4.5,3.2,4.4,5.6h-7.4
		c-0.1,1.7,0.9,3.2,3.1,3.2c1.3,0,2.3-0.6,2.5-1.9H198.8z M197.3,335.8c-0.1-1.5-1.2-2.8-2.8-2.8c-1.7,0-2.7,1.3-2.8,2.8H197.3z"/>
	<path class="st4" d="M200.6,331.8h1.5v2.1h0c0.8-1.6,1.9-2.4,3.6-2.3v1.7c-2.6,0-3.6,1.5-3.6,4v4.4h-1.6V331.8z"/>
	<path class="st4" d="M214.5,331.8h2v1.4h-2v6.1c0,0.8,0.2,0.9,1.2,0.9h0.7v1.4h-1.2c-1.7,0-2.3-0.3-2.3-2.1v-6.2h-1.7v-1.4h1.7
		v-2.9h1.6L214.5,331.8L214.5,331.8z"/>
	<path class="st4" d="M222.5,331.6c3.1,0,4.8,2.3,4.8,5.1c0,2.9-1.7,5.1-4.8,5.1s-4.8-2.3-4.8-5.1
		C217.7,333.8,219.4,331.6,222.5,331.6z M222.5,340.4c1.7,0,3.1-1.3,3.1-3.7s-1.4-3.7-3.1-3.7s-3.1,1.3-3.1,3.7
		S220.8,340.4,222.5,340.4z"/>
	<path class="st4" d="M242.8,338.5c-0.4,2.2-2,3.3-4.2,3.3c-3.1,0-4.6-2.2-4.7-5.2c0-3,1.9-5.1,4.6-5.1c3.5,0,4.5,3.2,4.4,5.6h-7.4
		c-0.1,1.7,0.9,3.2,3.1,3.2c1.3,0,2.3-0.6,2.5-1.9H242.8z M241.3,335.8c-0.1-1.5-1.2-2.8-2.8-2.8c-1.7,0-2.7,1.3-2.8,2.8H241.3z"/>
	<path class="st4" d="M253.3,341.6c-0.3,0.2-0.7,0.3-1.2,0.3c-0.8,0-1.4-0.5-1.4-1.5c-0.9,1.1-2.1,1.5-3.5,1.5
		c-1.8,0-3.2-0.8-3.2-2.8c0-2.2,1.7-2.7,3.3-3c1.8-0.4,3.3-0.2,3.3-1.4c0-1.4-1.2-1.6-2.2-1.6c-1.4,0-2.4,0.4-2.5,1.9h-1.6
		c0.1-2.4,2-3.3,4.2-3.3c1.8,0,3.7,0.4,3.7,2.7v5.1c0,0.8,0,1.1,0.5,1.1c0.2,0,0.3,0,0.5-0.1L253.3,341.6L253.3,341.6z M250.7,336.5
		c-1.3,0.9-4.9,0-4.9,2.4c0,1.1,0.9,1.4,1.9,1.4c2.1,0,3-1.3,3-2.2V336.5z"/>
	<path class="st4" d="M261.5,334.9c-0.2-1.2-1.1-2-2.4-2c-2.3,0-3.1,1.9-3.1,3.8c0,1.8,0.8,3.6,2.9,3.6c1.6,0,2.5-0.9,2.7-2.4h1.7
		c-0.4,2.4-1.8,3.8-4.3,3.8c-3,0-4.6-2.1-4.6-5c0-2.9,1.5-5.3,4.6-5.3c2.2,0,4,1,4.2,3.4L261.5,334.9L261.5,334.9z"/>
	<path class="st4" d="M265,328.1h1.6v5.2h0c0.5-1.2,1.9-1.7,3.1-1.7c2.6,0,3.4,1.5,3.4,3.6v6.5h-1.6V335c0-1.2-0.8-2-2-2
		c-2,0-2.9,1.3-2.9,3.1v5.5H265L265,328.1L265,328.1z"/>
	<path class="st4" d="M141.9,354.6h1.6v1.3h0c0.5-1.1,1.8-1.6,3.1-1.6c3,0,4.5,2.4,4.5,5.2c0,2.8-1.5,5.1-4.5,5.1
		c-1,0-2.5-0.4-3.2-1.5h0v5.1h-1.6V354.6z M146.5,355.8c-2.2,0-3,1.9-3,3.7c0,1.9,0.9,3.7,3.1,3.7c2.2,0,2.9-1.9,2.9-3.8
		C149.5,357.6,148.6,355.8,146.5,355.8z"/>
	<path class="st4" d="M153.1,354.6h1.5v2.1h0c0.8-1.6,1.9-2.4,3.6-2.3v1.7c-2.6,0-3.6,1.5-3.6,4v4.4h-1.6L153.1,354.6L153.1,354.6z"
		/>
	<path class="st4" d="M163.7,354.4c3.1,0,4.8,2.3,4.8,5.1c0,2.9-1.7,5.1-4.8,5.1s-4.8-2.3-4.8-5.1
		C158.9,356.6,160.6,354.4,163.7,354.4z M163.7,363.2c1.7,0,3.1-1.3,3.1-3.7s-1.4-3.7-3.1-3.7s-3.1,1.3-3.1,3.7
		S162,363.2,163.7,363.2z"/>
	<path class="st4" d="M170.4,354.6h1.5v1.4h0c0.7-1.1,1.8-1.7,3.2-1.7c1.2,0,2.3,0.5,2.7,1.7c0.7-1.1,1.8-1.7,3.1-1.7
		c2,0,3.3,0.8,3.3,2.9v7.2h-1.6V358c0-1.2-0.3-2.2-1.9-2.2s-2.6,1-2.6,2.5v6.1h-1.6V358c0-1.3-0.4-2.2-1.8-2.2
		c-1.9,0-2.6,1.7-2.6,2.5v6.1h-1.6L170.4,354.6L170.4,354.6z"/>
	<path class="st4" d="M190.8,354.4c3.1,0,4.8,2.3,4.8,5.1c0,2.9-1.7,5.1-4.8,5.1s-4.8-2.3-4.8-5.1
		C186,356.6,187.7,354.4,190.8,354.4z M190.8,363.2c1.7,0,3.1-1.3,3.1-3.7s-1.4-3.7-3.1-3.7s-3.1,1.3-3.1,3.7
		S189.1,363.2,190.8,363.2z"/>
	<path class="st4" d="M199.7,354.6h2v1.4h-2v6.1c0,0.8,0.2,0.9,1.2,0.9h0.7v1.4h-1.2c-1.7,0-2.3-0.3-2.3-2.1V356h-1.7v-1.4h1.7v-2.9
		h1.6L199.7,354.6L199.7,354.6z"/>
	<path class="st4" d="M205.2,352.8h-1.6v-2h1.6V352.8z M203.5,354.6h1.6v9.8h-1.6V354.6z"/>
	<path class="st4" d="M211.9,354.4c3.1,0,4.8,2.3,4.8,5.1c0,2.9-1.7,5.1-4.8,5.1s-4.8-2.3-4.8-5.1
		C207.1,356.6,208.8,354.4,211.9,354.4z M211.9,363.2c1.7,0,3.1-1.3,3.1-3.7s-1.4-3.7-3.1-3.7s-3.1,1.3-3.1,3.7
		S210.2,363.2,211.9,363.2z"/>
	<path class="st4" d="M218.6,354.6h1.5v1.6h0c0.7-1.2,1.8-1.8,3.2-1.8c2.6,0,3.4,1.5,3.4,3.6v6.5h-1.6v-6.6c0-1.2-0.8-2-2-2
		c-2,0-2.9,1.3-2.9,3.1v5.5h-1.6L218.6,354.6L218.6,354.6z"/>
	<path class="st4" d="M237.8,364.4c-0.3,0.2-0.7,0.3-1.2,0.3c-0.8,0-1.4-0.5-1.4-1.5c-0.9,1.1-2.1,1.5-3.5,1.5
		c-1.8,0-3.2-0.8-3.2-2.8c0-2.2,1.7-2.7,3.3-3c1.8-0.4,3.3-0.2,3.3-1.4c0-1.4-1.2-1.6-2.2-1.6c-1.4,0-2.4,0.4-2.5,1.9H229
		c0.1-2.4,2-3.3,4.2-3.3c1.8,0,3.7,0.4,3.7,2.7v5.1c0,0.8,0,1.1,0.5,1.1c0.2,0,0.3,0,0.5-0.1L237.8,364.4L237.8,364.4z M235.2,359.3
		c-1.3,0.9-4.9,0-4.9,2.4c0,1.1,0.9,1.4,1.9,1.4c2.1,0,3-1.3,3-2.2V359.3z"/>
	<path class="st4" d="M239.4,350.9h1.6v13.6h-1.6V350.9z"/>
	<path class="st4" d="M141.9,377.4h1.5v1.4h0c0.7-1.1,1.8-1.7,3.2-1.7c1.2,0,2.3,0.5,2.7,1.7c0.7-1.1,1.8-1.7,3.1-1.7
		c2,0,3.3,0.8,3.3,2.9v7.2H154v-6.4c0-1.2-0.3-2.2-1.9-2.2s-2.6,1-2.6,2.5v6.1h-1.6v-6.4c0-1.3-0.4-2.2-1.8-2.2
		c-1.9,0-2.6,1.7-2.6,2.5v6.1h-1.6L141.9,377.4L141.9,377.4z"/>
	<path class="st4" d="M166.8,387.2c-0.3,0.2-0.7,0.3-1.2,0.3c-0.8,0-1.4-0.5-1.4-1.5c-0.9,1.1-2.1,1.5-3.5,1.5
		c-1.8,0-3.2-0.8-3.2-2.8c0-2.2,1.7-2.7,3.3-3c1.8-0.4,3.3-0.2,3.3-1.4c0-1.4-1.2-1.6-2.2-1.6c-1.4,0-2.4,0.4-2.5,1.9h-1.6
		c0.1-2.4,2-3.3,4.2-3.3c1.8,0,3.7,0.4,3.7,2.7v5.1c0,0.8,0,1.1,0.5,1.1c0.2,0,0.3,0,0.5-0.1L166.8,387.2L166.8,387.2z M164.1,382.1
		c-1.3,0.9-4.9,0-4.9,2.4c0,1.1,0.9,1.4,1.9,1.4c2.1,0,3-1.3,3-2.2V382.1z"/>
	<path class="st4" d="M170.5,377.4h2v1.4h-2v6.1c0,0.8,0.2,0.9,1.2,0.9h0.7v1.4h-1.2c-1.7,0-2.3-0.3-2.3-2.1v-6.2h-1.7v-1.4h1.7
		v-2.9h1.6L170.5,377.4L170.5,377.4z"/>
	<path class="st4" d="M182.6,384.1c-0.4,2.2-2,3.3-4.2,3.3c-3.1,0-4.6-2.2-4.7-5.2c0-3,1.9-5.1,4.6-5.1c3.5,0,4.5,3.2,4.4,5.6h-7.4
		c-0.1,1.7,0.9,3.2,3.1,3.2c1.3,0,2.3-0.6,2.5-1.9H182.6z M181.1,381.4c-0.1-1.5-1.2-2.8-2.8-2.8c-1.7,0-2.7,1.3-2.8,2.8H181.1z"/>
	<path class="st4" d="M184.4,377.4h1.5v2.1h0c0.8-1.6,1.9-2.4,3.6-2.3v1.7c-2.6,0-3.6,1.5-3.6,4v4.4h-1.6L184.4,377.4L184.4,377.4z"
		/>
	<path class="st4" d="M192.5,375.6h-1.6v-2h1.6V375.6z M190.9,377.4h1.6v9.8h-1.6V377.4z"/>
	<path class="st4" d="M203.7,387.2c-0.3,0.2-0.7,0.3-1.2,0.3c-0.8,0-1.4-0.5-1.4-1.5c-0.9,1.1-2.1,1.5-3.5,1.5
		c-1.8,0-3.2-0.8-3.2-2.8c0-2.2,1.7-2.7,3.3-3c1.8-0.4,3.3-0.2,3.3-1.4c0-1.4-1.2-1.6-2.2-1.6c-1.4,0-2.4,0.4-2.5,1.9h-1.6
		c0.1-2.4,2-3.3,4.2-3.3c1.8,0,3.7,0.4,3.7,2.7v5.1c0,0.8,0,1.1,0.5,1.1c0.2,0,0.3,0,0.5-0.1L203.7,387.2L203.7,387.2z M201.1,382.1
		c-1.3,0.9-4.9,0-4.9,2.4c0,1.1,0.9,1.4,1.9,1.4c2.1,0,3-1.3,3-2.2V382.1z"/>
	<path class="st4" d="M205.3,373.7h1.6v13.6h-1.6V373.7z"/>
	<path class="st4" d="M215.4,378.8h-1.7v-1.4h1.7v-1.5c0-1.6,0.9-2.4,2.7-2.4c0.3,0,0.7,0.1,1,0.2v1.4c-0.3-0.1-0.6-0.1-0.9-0.1
		c-0.8,0-1.2,0.2-1.2,1.1v1.4h1.9v1.4H217v8.4h-1.6L215.4,378.8L215.4,378.8z"/>
	<path class="st4" d="M224.6,377.2c3.1,0,4.8,2.3,4.8,5.1c0,2.9-1.7,5.1-4.8,5.1s-4.8-2.3-4.8-5.1
		C219.8,379.4,221.4,377.2,224.6,377.2z M224.6,386c1.7,0,3.1-1.3,3.1-3.7s-1.4-3.7-3.1-3.7s-3.1,1.3-3.1,3.7S222.9,386,224.6,386z"
		/>
	<path class="st4" d="M231.2,377.4h1.5v2.1h0c0.8-1.6,1.9-2.4,3.6-2.3v1.7c-2.6,0-3.6,1.5-3.6,4v4.4h-1.6L231.2,377.4L231.2,377.4z"
		/>
	<path class="st4" d="M144.1,400.2h2v1.4h-2v6.1c0,0.8,0.2,0.9,1.2,0.9h0.7v1.4h-1.2c-1.7,0-2.3-0.3-2.3-2.1v-6.2h-1.7v-1.4h1.7
		v-2.9h1.6L144.1,400.2L144.1,400.2z"/>
	<path class="st4" d="M147.8,400.2h1.5v2.1h0c0.8-1.6,1.9-2.4,3.6-2.3v1.7c-2.6,0-3.6,1.5-3.6,4v4.4h-1.6L147.8,400.2L147.8,400.2z"
		/>
	<path class="st4" d="M162.9,410c-0.3,0.2-0.7,0.3-1.2,0.3c-0.8,0-1.4-0.5-1.4-1.5c-0.9,1.1-2.1,1.5-3.5,1.5c-1.8,0-3.2-0.8-3.2-2.8
		c0-2.2,1.7-2.7,3.3-3c1.8-0.4,3.3-0.2,3.3-1.4c0-1.4-1.2-1.6-2.2-1.6c-1.4,0-2.4,0.4-2.5,1.9H154c0.1-2.4,2-3.3,4.2-3.3
		c1.8,0,3.7,0.4,3.7,2.7v5.1c0,0.8,0,1.1,0.5,1.1c0.2,0,0.3,0,0.5-0.1L162.9,410L162.9,410z M160.2,404.9c-1.3,0.9-4.9,0-4.9,2.4
		c0,1.1,0.9,1.4,1.9,1.4c2.1,0,3-1.3,3-2.2V404.9z"/>
	<path class="st4" d="M171,403.3c-0.2-1.2-1.1-2-2.4-2c-2.3,0-3.1,1.9-3.1,3.8c0,1.8,0.8,3.6,2.9,3.6c1.6,0,2.5-0.9,2.7-2.4h1.7
		c-0.4,2.4-1.8,3.8-4.3,3.8c-3,0-4.6-2.1-4.6-5c0-2.9,1.5-5.3,4.6-5.3c2.2,0,4,1,4.2,3.4L171,403.3L171,403.3z"/>
	<path class="st4" d="M174.7,396.5h1.6v8l4.5-4.3h2.2l-3.9,3.6l4.2,6.2h-2.1l-3.4-5.1l-1.5,1.4v3.7h-1.6L174.7,396.5L174.7,396.5z"
		/>
	<path class="st4" d="M186.1,398.4h-1.6v-2h1.6V398.4z M184.5,400.2h1.6v9.8h-1.6V400.2z"/>
	<path class="st4" d="M188.6,400.2h1.5v1.6h0c0.7-1.2,1.8-1.8,3.2-1.8c2.6,0,3.4,1.5,3.4,3.6v6.5h-1.6v-6.6c0-1.2-0.8-2-2-2
		c-2,0-2.9,1.3-2.9,3.1v5.5h-1.6L188.6,400.2L188.6,400.2z"/>
	<path class="st4" d="M207.7,409.2c0,3.2-1.4,4.8-4.6,4.8c-1.8,0-4-0.8-4.1-2.9h1.6c0.1,1.2,1.5,1.6,2.5,1.6c2.1,0,2.9-1.5,2.9-3.7
		v-0.6h0c-0.6,1.2-1.8,1.8-3.1,1.8c-2.9,0-4.4-2.3-4.4-5c0-2.3,1.1-5.2,4.5-5.2c1.2,0,2.3,0.6,2.9,1.6h0v-1.4h1.5L207.7,409.2
		L207.7,409.2z M206.1,404.9c0-1.7-0.8-3.5-2.8-3.5c-2.1,0-2.9,1.7-2.9,3.6c0,1.8,0.6,3.7,2.8,3.7S206.1,406.7,206.1,404.9z"/>
	<path class="st4" d="M141.9,423h1.6v1.3h0c0.5-1.1,1.8-1.6,3.1-1.6c3,0,4.5,2.4,4.5,5.2c0,2.8-1.5,5.1-4.5,5.1
		c-1,0-2.5-0.4-3.2-1.5h0v5.1h-1.6V423z M146.5,424.2c-2.2,0-3,1.9-3,3.7c0,1.9,0.9,3.7,3.1,3.7c2.2,0,2.9-1.9,2.9-3.8
		C149.5,426,148.6,424.2,146.5,424.2z"/>
	<path class="st4" d="M161.2,432.8h-1.5v-1.6h0c-0.7,1.2-1.8,1.8-3.2,1.8c-2.6,0-3.4-1.5-3.4-3.6V423h1.6v6.6c0,1.2,0.8,2,2,2
		c2,0,2.9-1.3,2.9-3.1V423h1.6L161.2,432.8L161.2,432.8z"/>
	<path class="st4" d="M163.6,423h1.5v2.1h0c0.8-1.6,1.9-2.4,3.6-2.3v1.7c-2.6,0-3.6,1.5-3.6,4v4.4h-1.6L163.6,423L163.6,423z"/>
	<path class="st4" d="M170.1,423h1.6v1.3h0c0.5-1.1,1.8-1.6,3.1-1.6c3,0,4.5,2.4,4.5,5.2c0,2.8-1.5,5.1-4.5,5.1
		c-1,0-2.5-0.4-3.2-1.5h0v5.1h-1.6V423z M174.6,424.2c-2.2,0-3,1.9-3,3.7c0,1.9,0.9,3.7,3.1,3.7c2.2,0,2.9-1.9,2.9-3.8
		C177.7,426,176.7,424.2,174.6,424.2z"/>
	<path class="st4" d="M185.5,422.8c3.1,0,4.8,2.3,4.8,5.1c0,2.9-1.7,5.1-4.8,5.1s-4.8-2.3-4.8-5.1
		C180.7,425,182.4,422.8,185.5,422.8z M185.5,431.6c1.7,0,3.1-1.3,3.1-3.7s-1.4-3.7-3.1-3.7s-3.1,1.3-3.1,3.7
		S183.8,431.6,185.5,431.6z"/>
	<path class="st4" d="M193.2,429.7c0.1,1.4,1.3,1.9,2.6,1.9c1,0,2.4-0.2,2.4-1.5c0-2.5-6.4-0.8-6.4-4.6c0-2,1.9-2.8,3.7-2.8
		c2.2,0,3.9,0.7,4,3.1h-1.6c-0.1-1.3-1.2-1.7-2.3-1.7c-1,0-2.1,0.3-2.1,1.3c0,1.1,1.7,1.4,3.2,1.7c1.6,0.4,3.2,0.9,3.2,2.8
		c0,2.4-2.2,3.1-4.2,3.1c-2.2,0-4.1-0.9-4.2-3.3L193.2,429.7L193.2,429.7z"/>
	<path class="st4" d="M210.1,429.7c-0.4,2.2-2,3.3-4.2,3.3c-3.1,0-4.6-2.2-4.7-5.2c0-3,1.9-5.1,4.6-5.1c3.5,0,4.5,3.2,4.4,5.6h-7.4
		c-0.1,1.7,0.9,3.2,3.1,3.2c1.3,0,2.3-0.6,2.5-1.9H210.1z M208.5,427c-0.1-1.5-1.2-2.8-2.8-2.8c-1.7,0-2.7,1.3-2.8,2.8H208.5z"/>
	<path class="st4" d="M212.9,429.7c0.1,1.4,1.3,1.9,2.6,1.9c1,0,2.4-0.2,2.4-1.5c0-2.5-6.4-0.8-6.4-4.6c0-2,1.9-2.8,3.7-2.8
		c2.2,0,3.9,0.7,4,3.1h-1.6c-0.1-1.3-1.2-1.7-2.3-1.7c-1,0-2.1,0.3-2.1,1.3c0,1.1,1.7,1.4,3.2,1.7c1.6,0.4,3.2,0.9,3.2,2.8
		c0,2.4-2.2,3.1-4.2,3.1c-2.2,0-4.1-0.9-4.2-3.3L212.9,429.7L212.9,429.7z"/>
</g>
<g>
	<path class="st4" d="M320,398.4l-8.1,3.7l8.1,3.7v1.3l-9.6-4.4v-1.2l9.6-4.4V398.4z"/>
	<path class="st4" d="M330.5,403.8c-0.4,2.2-2,3.3-4.2,3.3c-3.1,0-4.6-2.2-4.7-5.2c0-3,1.9-5.1,4.6-5.1c3.5,0,4.5,3.2,4.4,5.6h-7.4
		c-0.1,1.7,0.9,3.2,3.1,3.2c1.3,0,2.3-0.6,2.5-1.9H330.5z M328.9,401.1c-0.1-1.5-1.2-2.8-2.8-2.8c-1.7,0-2.7,1.3-2.8,2.8H328.9z"/>
	<path class="st4" d="M340.8,406.1c0,3.2-1.4,4.8-4.6,4.8c-1.8,0-4-0.8-4.1-2.9h1.6c0.1,1.2,1.5,1.6,2.5,1.6c2.1,0,2.9-1.5,2.9-3.7
		v-0.6h0c-0.6,1.2-1.8,1.8-3.1,1.8c-2.9,0-4.4-2.3-4.4-5c0-2.3,1.1-5.2,4.5-5.2c1.2,0,2.3,0.6,2.9,1.6h0v-1.4h1.5L340.8,406.1
		L340.8,406.1z M339.2,401.8c0-1.7-0.8-3.5-2.8-3.5c-2.1,0-2.9,1.7-2.9,3.6c0,1.8,0.6,3.7,2.8,3.7
		C338.4,405.6,339.2,403.6,339.2,401.8z"/>
	<path class="st4" d="M343.6,404.8h2.1v1.9c0,1.4-0.6,2.5-2.1,3v-1c0.8-0.3,1.2-1.2,1.1-1.8h-1.1V404.8z"/>
	<path class="st4" d="M366.3,406.9h-1.9l-3.1-11.4h0l-3.1,11.4h-1.9l-3.5-13.6h1.8l2.7,11.3h0l3-11.3h2l3,11.3h0l2.8-11.3h1.8
		L366.3,406.9z"/>
	<path class="st4" d="M380.1,406.9c-0.3,0.2-0.7,0.3-1.2,0.3c-0.8,0-1.4-0.5-1.4-1.5c-0.9,1.1-2.1,1.5-3.5,1.5
		c-1.8,0-3.2-0.8-3.2-2.8c0-2.2,1.7-2.7,3.3-3c1.8-0.4,3.3-0.2,3.3-1.4c0-1.4-1.2-1.6-2.2-1.6c-1.4,0-2.4,0.4-2.5,1.9h-1.6
		c0.1-2.4,2-3.3,4.2-3.3c1.8,0,3.7,0.4,3.7,2.7v5.1c0,0.8,0,1.1,0.5,1.1c0.2,0,0.3,0,0.5-0.1L380.1,406.9L380.1,406.9z M377.4,401.8
		c-1.3,0.9-4.9,0-4.9,2.4c0,1.1,0.9,1.4,1.9,1.4c2.1,0,3-1.3,3-2.2V401.8z"/>
	<path class="st4" d="M383.8,397.1h2v1.4h-2v6.1c0,0.8,0.2,0.9,1.2,0.9h0.7v1.4h-1.2c-1.7,0-2.3-0.3-2.3-2.1v-6.2h-1.7v-1.4h1.7
		v-2.9h1.6L383.8,397.1L383.8,397.1z"/>
	<path class="st4" d="M388.5,403.8c0.1,1.4,1.3,1.9,2.6,1.9c1,0,2.4-0.2,2.4-1.5c0-2.5-6.4-0.8-6.4-4.6c0-2,1.9-2.8,3.7-2.8
		c2.2,0,3.9,0.7,4,3.1h-1.6c-0.1-1.3-1.2-1.7-2.3-1.7c-1,0-2.1,0.3-2.1,1.3c0,1.1,1.7,1.4,3.2,1.7c1.6,0.4,3.2,0.9,3.2,2.8
		c0,2.4-2.2,3.1-4.2,3.1c-2.2,0-4.1-0.9-4.2-3.3L388.5,403.8L388.5,403.8z"/>
	<path class="st4" d="M401.3,396.9c3.1,0,4.8,2.3,4.8,5.1c0,2.9-1.7,5.1-4.8,5.1s-4.8-2.3-4.8-5.1
		C396.5,399.1,398.2,396.9,401.3,396.9z M401.3,405.7c1.7,0,3.1-1.3,3.1-3.7s-1.4-3.7-3.1-3.7s-3.1,1.3-3.1,3.7
		S399.6,405.7,401.3,405.7z"/>
	<path class="st4" d="M408,397.1h1.5v1.6h0c0.7-1.2,1.8-1.8,3.2-1.8c2.6,0,3.4,1.5,3.4,3.6v6.5h-1.6v-6.6c0-1.2-0.8-2-2-2
		c-2,0-2.9,1.3-2.9,3.1v5.5H408L408,397.1L408,397.1z"/>
	<path class="st4" d="M424.5,398.5h-1.7v-1.4h1.7v-1.5c0-1.6,1-2.4,2.7-2.4c0.3,0,0.7,0.1,1,0.2v1.4c-0.3-0.1-0.6-0.1-0.9-0.1
		c-0.8,0-1.2,0.2-1.2,1.1v1.4h1.9v1.4h-1.9v8.4h-1.6L424.5,398.5L424.5,398.5z"/>
	<path class="st4" d="M433.7,396.9c3.1,0,4.8,2.3,4.8,5.1c0,2.9-1.7,5.1-4.8,5.1s-4.8-2.3-4.8-5.1
		C428.9,399.1,430.6,396.9,433.7,396.9z M433.7,405.7c1.7,0,3.1-1.3,3.1-3.7s-1.4-3.7-3.1-3.7s-3.1,1.3-3.1,3.7
		S432,405.7,433.7,405.7z"/>
	<path class="st4" d="M440.3,397.1h1.5v2.1h0c0.8-1.6,1.9-2.4,3.6-2.3v1.7c-2.6,0-3.6,1.5-3.6,4v4.4h-1.6L440.3,397.1L440.3,397.1z"
		/>
	<path class="st4" d="M316.7,415.8c4.3,0,6.5,3.4,6.5,7.1c0,3.7-2.2,7.1-6.5,7.1s-6.5-3.4-6.5-7.1
		C310.2,419.2,312.4,415.8,316.7,415.8z M316.7,428.5c3.3,0,4.7-2.9,4.7-5.6s-1.4-5.6-4.7-5.6s-4.7,2.9-4.7,5.6
		C312,425.7,313.4,428.5,316.7,428.5z"/>
	<path class="st4" d="M325.1,419.9h1.5v1.6h0c0.7-1.2,1.8-1.8,3.2-1.8c2.6,0,3.4,1.5,3.4,3.6v6.5h-1.6v-6.6c0-1.2-0.8-2-2-2
		c-2,0-2.9,1.3-2.9,3.1v5.5h-1.6L325.1,419.9L325.1,419.9z"/>
	<path class="st4" d="M342.4,423c-0.2-1.2-1.1-2-2.4-2c-2.3,0-3.1,1.9-3.1,3.8c0,1.8,0.8,3.6,2.9,3.6c1.6,0,2.5-0.9,2.7-2.4h1.7
		c-0.4,2.4-1.8,3.8-4.3,3.8c-3,0-4.6-2.1-4.6-5c0-2.9,1.5-5.3,4.6-5.3c2.2,0,4,1,4.2,3.4L342.4,423L342.4,423z"/>
	<path class="st4" d="M350.1,419.7c3.1,0,4.8,2.3,4.8,5.1c0,2.9-1.7,5.1-4.8,5.1s-4.8-2.3-4.8-5.1
		C345.4,421.9,347,419.7,350.1,419.7z M350.1,428.5c1.7,0,3.1-1.3,3.1-3.7s-1.4-3.7-3.1-3.7s-3.1,1.3-3.1,3.7
		S348.5,428.5,350.1,428.5z"/>
	<path class="st4" d="M356.9,416.1h1.6v13.6h-1.6V416.1z"/>
	<path class="st4" d="M365.3,419.7c3.1,0,4.8,2.3,4.8,5.1c0,2.9-1.7,5.1-4.8,5.1s-4.8-2.3-4.8-5.1
		C360.5,421.9,362.2,419.7,365.3,419.7z M365.3,428.5c1.7,0,3.1-1.3,3.1-3.7s-1.4-3.7-3.1-3.7s-3.1,1.3-3.1,3.7
		S363.6,428.5,365.3,428.5z"/>
	<path class="st4" d="M380.4,428.9c0,3.2-1.4,4.8-4.6,4.8c-1.8,0-4-0.8-4.1-2.9h1.6c0.1,1.2,1.5,1.6,2.5,1.6c2.1,0,2.9-1.5,2.9-3.7
		V428h0c-0.6,1.2-1.8,1.8-3.1,1.8c-2.9,0-4.4-2.3-4.4-5c0-2.3,1.1-5.2,4.5-5.2c1.2,0,2.3,0.6,2.9,1.6h0v-1.4h1.5L380.4,428.9
		L380.4,428.9z M378.8,424.6c0-1.7-0.8-3.5-2.8-3.5c-2.1,0-2.9,1.7-2.9,3.6c0,1.8,0.6,3.7,2.8,3.7
		C378,428.4,378.8,426.4,378.8,424.6z"/>
	<path class="st4" d="M386.7,431c-0.8,1.9-1.4,2.6-2.9,2.6c-0.4,0-0.8,0-1.1-0.2V432c0.3,0.1,0.6,0.2,1,0.2c0.7,0,1-0.3,1.3-0.9
		l0.7-1.7l-3.9-9.8h1.8l2.9,8h0l2.8-8h1.7L386.7,431z"/>
	<path class="st4" d="M392,428.6l8.1-3.7l-8.1-3.7v-1.3l9.6,4.4v1.2l-9.6,4.4V428.6z"/>
</g>
<g>
	<path class="st4" d="M1150.9,400.4l-8.1,3.7l8.1,3.7v1.3l-9.7-4.4v-1.2l9.7-4.4V400.4z"/>
	<path class="st4" d="M1153.3,395.3h1.9l7.1,11h0v-11h1.7v13.6h-2L1155,398h0v10.9h-1.7V395.3z"/>
	<path class="st4" d="M1175.4,408.9c-0.3,0.2-0.7,0.3-1.2,0.3c-0.8,0-1.4-0.5-1.4-1.5c-0.9,1.1-2.1,1.5-3.5,1.5
		c-1.8,0-3.2-0.8-3.2-2.8c0-2.2,1.7-2.7,3.3-3c1.8-0.4,3.3-0.2,3.3-1.4c0-1.4-1.2-1.6-2.2-1.6c-1.4,0-2.4,0.4-2.4,1.9h-1.6
		c0.1-2.4,2-3.3,4.2-3.3c1.8,0,3.7,0.4,3.7,2.7v5.1c0,0.8,0,1.1,0.5,1.1c0.2,0,0.3,0,0.5-0.1L1175.4,408.9L1175.4,408.9z
		 M1172.8,403.8c-1.3,0.9-4.9,0-4.9,2.4c0,1.1,0.9,1.4,1.9,1.4c2.1,0,3-1.3,3-2.2V403.8z"/>
	<path class="st4" d="M1176.9,399.1h1.5v1.4h0c0.7-1.1,1.8-1.7,3.2-1.7c1.2,0,2.3,0.5,2.7,1.7c0.7-1.1,1.8-1.7,3.1-1.7
		c2,0,3.3,0.8,3.3,2.9v7.2h-1.6v-6.4c0-1.2-0.3-2.2-1.9-2.2s-2.6,1-2.6,2.5v6.1h-1.6v-6.4c0-1.3-0.4-2.2-1.8-2.2
		c-1.9,0-2.6,1.7-2.6,2.5v6.1h-1.6L1176.9,399.1L1176.9,399.1z"/>
	<path class="st4" d="M1201.5,405.8c-0.4,2.2-2,3.3-4.2,3.3c-3.1,0-4.6-2.2-4.7-5.2c0-3,1.9-5.1,4.6-5.1c3.5,0,4.5,3.2,4.4,5.6h-7.4
		c-0.1,1.7,0.9,3.2,3.1,3.2c1.3,0,2.3-0.6,2.5-1.9H1201.5z M1200,403.1c-0.1-1.5-1.2-2.8-2.8-2.8c-1.7,0-2.7,1.3-2.8,2.8H1200z"/>
	<path class="st4" d="M1217.3,408.9c-0.3,0.2-0.7,0.3-1.2,0.3c-0.8,0-1.4-0.5-1.4-1.5c-0.9,1.1-2.1,1.5-3.5,1.5
		c-1.8,0-3.2-0.8-3.2-2.8c0-2.2,1.7-2.7,3.3-3c1.8-0.4,3.3-0.2,3.3-1.4c0-1.4-1.2-1.6-2.2-1.6c-1.4,0-2.4,0.4-2.4,1.9h-1.6
		c0.1-2.4,2-3.3,4.2-3.3c1.8,0,3.7,0.4,3.7,2.7v5.1c0,0.8,0,1.1,0.5,1.1c0.2,0,0.3,0,0.5-0.1L1217.3,408.9L1217.3,408.9z
		 M1214.7,403.8c-1.3,0.9-4.9,0-4.9,2.4c0,1.1,0.9,1.4,1.9,1.4c2.1,0,3-1.3,3-2.2V403.8z"/>
	<path class="st4" d="M1218.8,399.1h1.5v1.6h0c0.7-1.2,1.8-1.8,3.2-1.8c2.6,0,3.4,1.5,3.4,3.6v6.5h-1.6v-6.6c0-1.2-0.8-2-2-2
		c-2,0-2.9,1.3-2.9,3.1v5.5h-1.6L1218.8,399.1L1218.8,399.1z"/>
	<path class="st4" d="M1238.2,408.9h-1.6v-1.3h0c-0.5,1.1-1.8,1.6-3.1,1.6c-3,0-4.5-2.4-4.5-5.2c0-2.8,1.5-5.1,4.5-5.1
		c1,0,2.5,0.4,3.2,1.5h0v-5.1h1.6V408.9z M1233.6,407.7c2.2,0,3-1.9,3-3.7c0-1.9-0.9-3.7-3.1-3.7c-2.2,0-2.9,1.9-2.9,3.8
		C1230.6,405.9,1231.5,407.7,1233.6,407.7z"/>
	<path class="st4" d="M1142.6,428.6c0.1,1.4,1.3,1.9,2.6,1.9c1,0,2.4-0.2,2.4-1.5c0-2.5-6.4-0.8-6.4-4.6c0-2,1.9-2.8,3.7-2.8
		c2.2,0,3.9,0.7,4,3.1h-1.6c-0.1-1.3-1.2-1.7-2.3-1.7c-1,0-2.1,0.3-2.1,1.3c0,1.1,1.7,1.4,3.2,1.7c1.6,0.4,3.2,0.9,3.2,2.8
		c0,2.4-2.2,3.1-4.2,3.1c-2.2,0-4.1-0.9-4.2-3.3L1142.6,428.6L1142.6,428.6z"/>
	<path class="st4" d="M1152.8,420.1h-1.6v-2h1.6V420.1z M1151.2,421.9h1.6v9.8h-1.6V421.9z"/>
	<path class="st4" d="M1163.8,430.9c0,3.2-1.4,4.8-4.6,4.8c-1.8,0-4-0.8-4.1-2.9h1.6c0.1,1.2,1.5,1.6,2.5,1.6c2.1,0,2.9-1.5,2.9-3.7
		V430h0c-0.6,1.2-1.8,1.8-3.1,1.8c-2.9,0-4.4-2.3-4.4-5c0-2.3,1.1-5.2,4.5-5.2c1.2,0,2.3,0.6,2.9,1.6h0v-1.4h1.5L1163.8,430.9
		L1163.8,430.9z M1162.2,426.6c0-1.7-0.8-3.5-2.8-3.5c-2.1,0-2.9,1.7-2.9,3.6c0,1.8,0.6,3.7,2.8,3.7
		C1161.4,430.4,1162.2,428.4,1162.2,426.6z"/>
	<path class="st4" d="M1166.2,421.9h1.5v1.6h0c0.7-1.2,1.8-1.8,3.2-1.8c2.6,0,3.4,1.5,3.4,3.6v6.5h-1.6v-6.6c0-1.2-0.8-2-2-2
		c-2,0-2.9,1.3-2.9,3.1v5.5h-1.6L1166.2,421.9L1166.2,421.9z"/>
	<path class="st4" d="M1185.5,431.7c-0.3,0.2-0.7,0.3-1.2,0.3c-0.8,0-1.4-0.5-1.4-1.5c-0.9,1.1-2.1,1.5-3.5,1.5
		c-1.8,0-3.2-0.8-3.2-2.8c0-2.2,1.7-2.7,3.3-3c1.8-0.4,3.3-0.2,3.3-1.4c0-1.4-1.2-1.6-2.2-1.6c-1.4,0-2.4,0.4-2.5,1.9h-1.6
		c0.1-2.4,2-3.3,4.2-3.3c1.8,0,3.7,0.4,3.7,2.7v5.1c0,0.8,0,1.1,0.5,1.1c0.2,0,0.3,0,0.5-0.1L1185.5,431.7L1185.5,431.7z
		 M1182.9,426.6c-1.3,0.9-4.9,0-4.9,2.4c0,1.1,0.9,1.4,1.9,1.4c2.1,0,3-1.3,3-2.2V426.6z"/>
	<path class="st4" d="M1189.2,421.9h2v1.4h-2v6.1c0,0.8,0.2,0.9,1.2,0.9h0.7v1.4h-1.2c-1.7,0-2.3-0.3-2.3-2.1v-6.2h-1.7v-1.4h1.7
		v-2.9h1.6L1189.2,421.9L1189.2,421.9z"/>
	<path class="st4" d="M1201.1,431.7h-1.5v-1.6h0c-0.7,1.2-1.8,1.8-3.2,1.8c-2.6,0-3.4-1.5-3.4-3.6v-6.5h1.6v6.6c0,1.2,0.8,2,2,2
		c2,0,2.9-1.3,2.9-3.1v-5.5h1.6L1201.1,431.7L1201.1,431.7z"/>
	<path class="st4" d="M1203.5,421.9h1.5v2.1h0c0.8-1.6,1.9-2.4,3.6-2.3v1.7c-2.6,0-3.6,1.5-3.6,4v4.4h-1.6V421.9z"/>
	<path class="st4" d="M1218.2,428.6c-0.4,2.2-2,3.3-4.2,3.3c-3.1,0-4.6-2.2-4.7-5.2c0-3,1.9-5.1,4.6-5.1c3.5,0,4.5,3.2,4.4,5.6h-7.4
		c-0.1,1.7,0.9,3.2,3.1,3.2c1.3,0,2.3-0.6,2.5-1.9H1218.2z M1216.7,425.9c-0.1-1.5-1.2-2.8-2.8-2.8c-1.7,0-2.7,1.3-2.8,2.8H1216.7z"
		/>
	<path class="st4" d="M1219.7,430.6l8.1-3.7l-8.1-3.7v-1.3l9.7,4.4v1.2l-9.7,4.4V430.6z"/>
</g>
<g>
	<path class="st4" d="M1322.9,400.4l-8.1,3.7l8.1,3.7v1.3l-9.7-4.4v-1.2l9.7-4.4V400.4z"/>
	<path class="st4" d="M1325.2,395.3h1.9l7.1,11h0v-11h1.7v13.6h-2L1327,398h0v10.9h-1.7V395.3z"/>
	<path class="st4" d="M1347.4,408.9c-0.3,0.2-0.7,0.3-1.2,0.3c-0.8,0-1.4-0.5-1.4-1.5c-0.9,1.1-2.1,1.5-3.5,1.5
		c-1.8,0-3.2-0.8-3.2-2.8c0-2.2,1.7-2.7,3.3-3c1.8-0.4,3.3-0.2,3.3-1.4c0-1.4-1.2-1.6-2.2-1.6c-1.4,0-2.4,0.4-2.4,1.9h-1.6
		c0.1-2.4,2-3.3,4.2-3.3c1.8,0,3.7,0.4,3.7,2.7v5.1c0,0.8,0,1.1,0.5,1.1c0.2,0,0.3,0,0.5-0.1L1347.4,408.9L1347.4,408.9z
		 M1344.8,403.8c-1.3,0.9-4.9,0-4.9,2.4c0,1.1,0.9,1.4,1.9,1.4c2.1,0,3-1.3,3-2.2V403.8z"/>
	<path class="st4" d="M1348.9,399.1h1.5v1.4h0c0.7-1.1,1.8-1.7,3.2-1.7c1.2,0,2.3,0.5,2.7,1.7c0.7-1.1,1.8-1.7,3.1-1.7
		c2,0,3.3,0.8,3.3,2.9v7.2h-1.6v-6.4c0-1.2-0.3-2.2-1.9-2.2s-2.6,1-2.6,2.5v6.1h-1.6v-6.4c0-1.3-0.4-2.2-1.8-2.2
		c-1.9,0-2.6,1.7-2.6,2.5v6.1h-1.6L1348.9,399.1L1348.9,399.1z"/>
	<path class="st4" d="M1373.5,405.8c-0.4,2.2-2,3.3-4.2,3.3c-3.1,0-4.6-2.2-4.7-5.2c0-3,1.9-5.1,4.6-5.1c3.5,0,4.5,3.2,4.4,5.6h-7.4
		c-0.1,1.7,0.9,3.2,3.1,3.2c1.3,0,2.3-0.6,2.5-1.9H1373.5z M1371.9,403.1c-0.1-1.5-1.2-2.8-2.8-2.8c-1.7,0-2.7,1.3-2.8,2.8H1371.9z"
		/>
	<path class="st4" d="M1389.3,408.9c-0.3,0.2-0.7,0.3-1.2,0.3c-0.8,0-1.4-0.5-1.4-1.5c-0.9,1.1-2.1,1.5-3.5,1.5
		c-1.8,0-3.2-0.8-3.2-2.8c0-2.2,1.7-2.7,3.3-3c1.8-0.4,3.3-0.2,3.3-1.4c0-1.4-1.2-1.6-2.2-1.6c-1.4,0-2.4,0.4-2.4,1.9h-1.6
		c0.1-2.4,2-3.3,4.2-3.3c1.8,0,3.7,0.4,3.7,2.7v5.1c0,0.8,0,1.1,0.5,1.1c0.2,0,0.3,0,0.5-0.1L1389.3,408.9L1389.3,408.9z
		 M1386.7,403.8c-1.3,0.9-4.9,0-4.9,2.4c0,1.1,0.9,1.4,1.9,1.4c2.1,0,3-1.3,3-2.2V403.8z"/>
	<path class="st4" d="M1390.8,399.1h1.5v1.6h0c0.7-1.2,1.8-1.8,3.2-1.8c2.6,0,3.4,1.5,3.4,3.6v6.5h-1.6v-6.6c0-1.2-0.8-2-2-2
		c-2,0-2.9,1.3-2.9,3.1v5.5h-1.6L1390.8,399.1L1390.8,399.1z"/>
	<path class="st4" d="M1410.1,408.9h-1.6v-1.3h0c-0.5,1.1-1.8,1.6-3.1,1.6c-3,0-4.5-2.4-4.5-5.2c0-2.8,1.5-5.1,4.5-5.1
		c1,0,2.5,0.4,3.2,1.5h0v-5.1h1.6V408.9z M1405.6,407.7c2.2,0,3-1.9,3-3.7c0-1.9-0.9-3.7-3.1-3.7c-2.2,0-2.9,1.9-2.9,3.8
		C1402.5,405.9,1403.5,407.7,1405.6,407.7z"/>
	<path class="st4" d="M1314.6,428.6c0.1,1.4,1.3,1.9,2.6,1.9c1,0,2.4-0.2,2.4-1.5c0-2.5-6.4-0.8-6.4-4.6c0-2,1.9-2.8,3.7-2.8
		c2.2,0,3.9,0.7,4,3.1h-1.6c-0.1-1.3-1.2-1.7-2.3-1.7c-1,0-2.1,0.3-2.1,1.3c0,1.1,1.7,1.4,3.2,1.7c1.6,0.4,3.2,0.9,3.2,2.8
		c0,2.4-2.2,3.1-4.2,3.1c-2.2,0-4.1-0.9-4.2-3.3L1314.6,428.6L1314.6,428.6z"/>
	<path class="st4" d="M1324.8,420.1h-1.6v-2h1.6V420.1z M1323.2,421.9h1.6v9.8h-1.6V421.9z"/>
	<path class="st4" d="M1335.8,430.9c0,3.2-1.4,4.8-4.6,4.8c-1.8,0-4-0.8-4.1-2.9h1.6c0.1,1.2,1.5,1.6,2.5,1.6c2.1,0,2.9-1.5,2.9-3.7
		V430h0c-0.6,1.2-1.8,1.8-3.1,1.8c-2.9,0-4.4-2.3-4.4-5c0-2.3,1.1-5.2,4.5-5.2c1.2,0,2.3,0.6,2.9,1.6h0v-1.4h1.5L1335.8,430.9
		L1335.8,430.9z M1334.2,426.6c0-1.7-0.8-3.5-2.8-3.5c-2.1,0-2.9,1.7-2.9,3.6c0,1.8,0.6,3.7,2.8,3.7
		C1333.4,430.4,1334.2,428.4,1334.2,426.6z"/>
	<path class="st4" d="M1338.2,421.9h1.5v1.6h0c0.7-1.2,1.8-1.8,3.2-1.8c2.6,0,3.4,1.5,3.4,3.6v6.5h-1.6v-6.6c0-1.2-0.8-2-2-2
		c-2,0-2.9,1.3-2.9,3.1v5.5h-1.6L1338.2,421.9L1338.2,421.9z"/>
	<path class="st4" d="M1357.5,431.7c-0.3,0.2-0.7,0.3-1.2,0.3c-0.8,0-1.4-0.5-1.4-1.5c-0.9,1.1-2.1,1.5-3.5,1.5
		c-1.8,0-3.2-0.8-3.2-2.8c0-2.2,1.7-2.7,3.3-3c1.8-0.4,3.3-0.2,3.3-1.4c0-1.4-1.2-1.6-2.2-1.6c-1.4,0-2.4,0.4-2.5,1.9h-1.6
		c0.1-2.4,2-3.3,4.2-3.3c1.8,0,3.7,0.4,3.7,2.7v5.1c0,0.8,0,1.1,0.5,1.1c0.2,0,0.3,0,0.5-0.1L1357.5,431.7L1357.5,431.7z
		 M1354.8,426.6c-1.3,0.9-4.9,0-4.9,2.4c0,1.1,0.9,1.4,1.9,1.4c2.1,0,3-1.3,3-2.2V426.6z"/>
	<path class="st4" d="M1361.2,421.9h2v1.4h-2v6.1c0,0.8,0.2,0.9,1.2,0.9h0.7v1.4h-1.2c-1.7,0-2.3-0.3-2.3-2.1v-6.2h-1.7v-1.4h1.7
		v-2.9h1.6L1361.2,421.9L1361.2,421.9z"/>
	<path class="st4" d="M1373.1,431.7h-1.5v-1.6h0c-0.7,1.2-1.8,1.8-3.2,1.8c-2.6,0-3.4-1.5-3.4-3.6v-6.5h1.6v6.6c0,1.2,0.8,2,2,2
		c2,0,2.9-1.3,2.9-3.1v-5.5h1.6L1373.1,431.7L1373.1,431.7z"/>
	<path class="st4" d="M1375.4,421.9h1.5v2.1h0c0.8-1.6,1.9-2.4,3.6-2.3v1.7c-2.6,0-3.6,1.5-3.6,4v4.4h-1.6V421.9z"/>
	<path class="st4" d="M1390.2,428.6c-0.4,2.2-2,3.3-4.2,3.3c-3.1,0-4.6-2.2-4.7-5.2c0-3,1.9-5.1,4.6-5.1c3.5,0,4.5,3.2,4.4,5.6h-7.4
		c-0.1,1.7,0.9,3.2,3.1,3.2c1.3,0,2.3-0.6,2.5-1.9H1390.2z M1388.7,425.9c-0.1-1.5-1.2-2.8-2.8-2.8c-1.7,0-2.7,1.3-2.8,2.8H1388.7z"
		/>
	<path class="st4" d="M1391.7,430.6l8.1-3.7l-8.1-3.7v-1.3l9.7,4.4v1.2l-9.7,4.4V430.6z"/>
</g>
<g>
	<path class="st4" d="M1490.7,400.4l-8.1,3.7l8.1,3.7v1.3l-9.7-4.4v-1.2l9.7-4.4V400.4z"/>
	<path class="st4" d="M1493,395.3h1.9l7.1,11h0v-11h1.7v13.6h-2l-7.1-10.9h0v10.9h-1.7V395.3z"/>
	<path class="st4" d="M1515.2,408.9c-0.3,0.2-0.7,0.3-1.2,0.3c-0.8,0-1.4-0.5-1.4-1.5c-0.9,1.1-2.1,1.5-3.5,1.5
		c-1.8,0-3.2-0.8-3.2-2.8c0-2.2,1.7-2.7,3.3-3c1.8-0.4,3.3-0.2,3.3-1.4c0-1.4-1.2-1.6-2.2-1.6c-1.4,0-2.4,0.4-2.4,1.9h-1.6
		c0.1-2.4,2-3.3,4.2-3.3c1.8,0,3.7,0.4,3.7,2.7v5.1c0,0.8,0,1.1,0.5,1.1c0.2,0,0.3,0,0.5-0.1L1515.2,408.9L1515.2,408.9z
		 M1512.6,403.8c-1.3,0.9-4.9,0-4.9,2.4c0,1.1,0.9,1.4,1.9,1.4c2.1,0,3-1.3,3-2.2V403.8z"/>
	<path class="st4" d="M1516.7,399.1h1.5v1.4h0c0.7-1.1,1.8-1.7,3.2-1.7c1.2,0,2.3,0.5,2.7,1.7c0.7-1.1,1.8-1.7,3.1-1.7
		c2,0,3.3,0.8,3.3,2.9v7.2h-1.6v-6.4c0-1.2-0.3-2.2-1.9-2.2s-2.6,1-2.6,2.5v6.1h-1.6v-6.4c0-1.3-0.4-2.2-1.8-2.2
		c-1.9,0-2.6,1.7-2.6,2.5v6.1h-1.6L1516.7,399.1L1516.7,399.1z"/>
	<path class="st4" d="M1541.3,405.8c-0.4,2.2-2,3.3-4.2,3.3c-3.1,0-4.6-2.2-4.7-5.2c0-3,1.9-5.1,4.6-5.1c3.5,0,4.5,3.2,4.4,5.6h-7.4
		c-0.1,1.7,0.9,3.2,3.1,3.2c1.3,0,2.3-0.6,2.5-1.9H1541.3z M1539.7,403.1c-0.1-1.5-1.2-2.8-2.8-2.8c-1.7,0-2.7,1.3-2.8,2.8H1539.7z"
		/>
	<path class="st4" d="M1557.1,408.9c-0.3,0.2-0.7,0.3-1.2,0.3c-0.8,0-1.4-0.5-1.4-1.5c-0.9,1.1-2.1,1.5-3.5,1.5
		c-1.8,0-3.2-0.8-3.2-2.8c0-2.2,1.7-2.7,3.3-3c1.8-0.4,3.3-0.2,3.3-1.4c0-1.4-1.2-1.6-2.2-1.6c-1.4,0-2.4,0.4-2.4,1.9h-1.6
		c0.1-2.4,2-3.3,4.2-3.3c1.8,0,3.7,0.4,3.7,2.7v5.1c0,0.8,0,1.1,0.5,1.1c0.2,0,0.3,0,0.5-0.1L1557.1,408.9L1557.1,408.9z
		 M1554.5,403.8c-1.3,0.9-4.9,0-4.9,2.4c0,1.1,0.9,1.4,1.9,1.4c2.1,0,3-1.3,3-2.2V403.8z"/>
	<path class="st4" d="M1558.6,399.1h1.5v1.6h0c0.7-1.2,1.8-1.8,3.2-1.8c2.6,0,3.4,1.5,3.4,3.6v6.5h-1.6v-6.6c0-1.2-0.8-2-2-2
		c-2,0-2.9,1.3-2.9,3.1v5.5h-1.6L1558.6,399.1L1558.6,399.1z"/>
	<path class="st4" d="M1578,408.9h-1.6v-1.3h0c-0.5,1.1-1.8,1.6-3.1,1.6c-3,0-4.5-2.4-4.5-5.2c0-2.8,1.5-5.1,4.5-5.1
		c1,0,2.5,0.4,3.2,1.5h0v-5.1h1.6V408.9z M1573.4,407.7c2.2,0,3-1.9,3-3.7c0-1.9-0.9-3.7-3.1-3.7c-2.2,0-2.9,1.9-2.9,3.8
		C1570.4,405.9,1571.3,407.7,1573.4,407.7z"/>
	<path class="st4" d="M1482.4,428.6c0.1,1.4,1.3,1.9,2.6,1.9c1,0,2.4-0.2,2.4-1.5c0-2.5-6.4-0.8-6.4-4.6c0-2,1.9-2.8,3.7-2.8
		c2.2,0,3.9,0.7,4,3.1h-1.6c-0.1-1.3-1.2-1.7-2.3-1.7c-1,0-2.1,0.3-2.1,1.3c0,1.1,1.7,1.4,3.2,1.7c1.6,0.4,3.2,0.9,3.2,2.8
		c0,2.4-2.2,3.1-4.2,3.1c-2.2,0-4.1-0.9-4.2-3.3L1482.4,428.6L1482.4,428.6z"/>
	<path class="st4" d="M1492.6,420.1h-1.6v-2h1.6V420.1z M1491,421.9h1.6v9.8h-1.6V421.9z"/>
	<path class="st4" d="M1503.6,430.9c0,3.2-1.4,4.8-4.6,4.8c-1.8,0-4-0.8-4.1-2.9h1.6c0.1,1.2,1.5,1.6,2.5,1.6c2.1,0,2.9-1.5,2.9-3.7
		V430h0c-0.6,1.2-1.8,1.8-3.1,1.8c-2.9,0-4.4-2.3-4.4-5c0-2.3,1.1-5.2,4.5-5.2c1.2,0,2.3,0.6,2.9,1.6h0v-1.4h1.5L1503.6,430.9
		L1503.6,430.9z M1502,426.6c0-1.7-0.8-3.5-2.8-3.5c-2.1,0-2.9,1.7-2.9,3.6c0,1.8,0.6,3.7,2.8,3.7
		C1501.2,430.4,1502,428.4,1502,426.6z"/>
	<path class="st4" d="M1506,421.9h1.5v1.6h0c0.7-1.2,1.8-1.8,3.2-1.8c2.6,0,3.4,1.5,3.4,3.6v6.5h-1.6v-6.6c0-1.2-0.8-2-2-2
		c-2,0-2.9,1.3-2.9,3.1v5.5h-1.6L1506,421.9L1506,421.9z"/>
	<path class="st4" d="M1525.3,431.7c-0.3,0.2-0.7,0.3-1.2,0.3c-0.8,0-1.4-0.5-1.4-1.5c-0.9,1.1-2.1,1.5-3.5,1.5
		c-1.8,0-3.2-0.8-3.2-2.8c0-2.2,1.7-2.7,3.3-3c1.8-0.4,3.3-0.2,3.3-1.4c0-1.4-1.2-1.6-2.2-1.6c-1.4,0-2.4,0.4-2.5,1.9h-1.6
		c0.1-2.4,2-3.3,4.2-3.3c1.8,0,3.7,0.4,3.7,2.7v5.1c0,0.8,0,1.1,0.5,1.1c0.2,0,0.3,0,0.5-0.1L1525.3,431.7L1525.3,431.7z
		 M1522.7,426.6c-1.3,0.9-4.9,0-4.9,2.4c0,1.1,0.9,1.4,1.9,1.4c2.1,0,3-1.3,3-2.2V426.6z"/>
	<path class="st4" d="M1529,421.9h2v1.4h-2v6.1c0,0.8,0.2,0.9,1.2,0.9h0.7v1.4h-1.2c-1.7,0-2.3-0.3-2.3-2.1v-6.2h-1.7v-1.4h1.7v-2.9
		h1.6L1529,421.9L1529,421.9z"/>
	<path class="st4" d="M1540.9,431.7h-1.5v-1.6h0c-0.7,1.2-1.8,1.8-3.2,1.8c-2.6,0-3.4-1.5-3.4-3.6v-6.5h1.6v6.6c0,1.2,0.8,2,2,2
		c2,0,2.9-1.3,2.9-3.1v-5.5h1.6L1540.9,431.7L1540.9,431.7z"/>
	<path class="st4" d="M1543.3,421.9h1.5v2.1h0c0.8-1.6,1.9-2.4,3.6-2.3v1.7c-2.6,0-3.6,1.5-3.6,4v4.4h-1.6V421.9z"/>
	<path class="st4" d="M1558,428.6c-0.4,2.2-2,3.3-4.2,3.3c-3.1,0-4.6-2.2-4.7-5.2c0-3,1.9-5.1,4.6-5.1c3.5,0,4.5,3.2,4.4,5.6h-7.4
		c-0.1,1.7,0.9,3.2,3.1,3.2c1.3,0,2.3-0.6,2.5-1.9H1558z M1556.5,425.9c-0.1-1.5-1.2-2.8-2.8-2.8c-1.7,0-2.7,1.3-2.8,2.8H1556.5z"/>
	<path class="st4" d="M1559.5,430.6l8.1-3.7l-8.1-3.7v-1.3l9.7,4.4v1.2l-9.7,4.4V430.6z"/>
</g>
<g>
	<path class="st4" d="M654.6,423l-8.1,3.7l8.1,3.7v1.3l-9.7-4.4v-1.2l9.7-4.4V423z"/>
	<path class="st4" d="M665.1,428.4c-0.4,2.2-2,3.3-4.2,3.3c-3.1,0-4.6-2.2-4.7-5.2c0-3,1.9-5.1,4.6-5.1c3.5,0,4.5,3.2,4.4,5.6h-7.4
		c-0.1,1.7,0.9,3.2,3.1,3.2c1.3,0,2.3-0.6,2.5-1.9H665.1z M663.6,425.6c-0.1-1.5-1.2-2.8-2.8-2.8c-1.7,0-2.7,1.3-2.8,2.8H663.6z"/>
	<path class="st4" d="M675.4,430.7c0,3.2-1.4,4.8-4.6,4.8c-1.8,0-4-0.8-4.1-2.9h1.6c0.1,1.2,1.5,1.6,2.5,1.6c2.1,0,2.9-1.5,2.9-3.7
		v-0.6h0c-0.6,1.2-1.8,1.8-3.1,1.8c-2.9,0-4.4-2.3-4.4-5c0-2.3,1.1-5.2,4.5-5.2c1.2,0,2.3,0.6,2.9,1.6h0v-1.4h1.5L675.4,430.7
		L675.4,430.7z M673.8,426.4c0-1.7-0.8-3.5-2.8-3.5c-2.1,0-2.9,1.7-2.9,3.6c0,1.8,0.6,3.7,2.8,3.7
		C673,430.2,673.8,428.2,673.8,426.4z"/>
	<path class="st4" d="M678.2,429.4h2.1v1.9c0,1.4-0.6,2.5-2.1,3v-1c0.8-0.3,1.2-1.2,1.1-1.8h-1.1V429.4z"/>
	<path class="st4" d="M691.7,419.5h-4.5v-1.5h10.8v1.5h-4.5v12h-1.8V419.5z"/>
	<path class="st4" d="M704.9,431.5h-2.1l-4.8-13.6h2l3.9,11.8h0l3.9-11.8h1.9L704.9,431.5z"/>
	<path class="st4" d="M724.9,431.5c-0.3,0.2-0.7,0.3-1.2,0.3c-0.8,0-1.4-0.5-1.4-1.5c-0.9,1.1-2.1,1.5-3.5,1.5
		c-1.8,0-3.2-0.8-3.2-2.8c0-2.2,1.7-2.7,3.3-3c1.8-0.4,3.3-0.2,3.3-1.4c0-1.4-1.2-1.6-2.2-1.6c-1.4,0-2.4,0.4-2.5,1.9H716
		c0.1-2.4,2-3.3,4.2-3.3c1.8,0,3.7,0.4,3.7,2.7v5.1c0,0.8,0,1.1,0.5,1.1c0.2,0,0.3,0,0.5-0.1L724.9,431.5L724.9,431.5z M722.3,426.4
		c-1.3,0.9-4.9,0-4.9,2.4c0,1.1,0.9,1.4,1.9,1.4c2.1,0,3-1.3,3-2.2V426.4z"/>
	<path class="st4" d="M735.2,431.5h-1.6v-1.3h0c-0.5,1.1-1.8,1.6-3.1,1.6c-3,0-4.5-2.4-4.5-5.2c0-2.8,1.5-5.1,4.5-5.1
		c1,0,2.5,0.4,3.2,1.5h0v-5.1h1.6L735.2,431.5L735.2,431.5z M730.6,430.3c2.2,0,3-1.9,3-3.7c0-1.9-0.9-3.7-3.1-3.7
		c-2.2,0-2.9,1.9-2.9,3.8C727.6,428.5,728.5,430.3,730.6,430.3z"/>
	<path class="st4" d="M738.7,428.4c0.1,1.4,1.3,1.9,2.6,1.9c1,0,2.4-0.2,2.4-1.5c0-2.5-6.4-0.8-6.4-4.6c0-2,1.9-2.8,3.7-2.8
		c2.2,0,3.9,0.7,4,3.1h-1.6c-0.1-1.3-1.2-1.7-2.3-1.7c-1,0-2.1,0.3-2.1,1.3c0,1.1,1.7,1.4,3.2,1.7c1.6,0.4,3.2,0.9,3.2,2.8
		c0,2.4-2.2,3.1-4.2,3.1c-2.2,0-4.1-0.9-4.2-3.3L738.7,428.4L738.7,428.4z"/>
	<path class="st4" d="M746.8,430.4l8.1-3.7l-8.1-3.7v-1.3l9.7,4.4v1.2l-9.7,4.4V430.4z"/>
</g>
<g>
	<path class="st4" d="M323.9,266.4c0,4.1-2.6,7.5-6.8,7.5s-6.8-3.4-6.8-7.5c0-4.1,2.6-7.5,6.8-7.5S323.9,262.4,323.9,266.4z
		 M312.7,266.4c0,2.7,1.3,5.4,4.3,5.4s4.3-2.7,4.3-5.4s-1.3-5.4-4.3-5.4S312.7,263.7,312.7,266.4z"/>
	<path class="st4" d="M324.9,263.2h1.7v-0.9c0-2.6,1.4-3.1,2.9-3.1c0.7,0,1.3,0,1.6,0.1v1.8c-0.3-0.1-0.6-0.1-1.1-0.1
		c-0.6,0-1.1,0.2-1.1,1.1v1.1h1.9v1.7h-1.9v8.6h-2.3v-8.6h-1.7V263.2z"/>
	<path class="st4" d="M330.8,263.2h1.7v-0.9c0-2.6,1.4-3.1,2.9-3.1c0.7,0,1.3,0,1.6,0.1v1.8c-0.3-0.1-0.6-0.1-1.1-0.1
		c-0.6,0-1.1,0.2-1.1,1.1v1.1h1.9v1.7h-1.9v8.6h-2.3v-8.6h-1.7V263.2z"/>
	<path class="st4" d="M339.9,269c0,1.6,0.9,3.1,2.8,3.1c1.3,0,2.1-0.6,2.5-1.7h2.2c-0.5,2.3-2.4,3.5-4.7,3.5c-3.3,0-5.1-2.2-5.1-5.4
		c0-2.9,1.9-5.5,5-5.5c3.3,0,5.3,2.9,4.9,6L339.9,269L339.9,269z M345.2,267.5c-0.1-1.4-1-2.7-2.6-2.7c-1.6,0-2.7,1.2-2.7,2.7H345.2
		z"/>
	<path class="st4" d="M349.2,263.2h2.1v2h0c0.3-1.1,1.6-2.3,3-2.3c0.5,0,0.6,0,0.9,0.1v2.2c-0.3-0.1-0.7-0.1-1-0.1
		c-1.5,0-2.8,1.2-2.8,3.5v4.9h-2.3L349.2,263.2L349.2,263.2z"/>
	<path class="st4" d="M356.3,259.3h2.3v2.2h-2.3V259.3z M356.3,263.2h2.3v10.3h-2.3V263.2z"/>
	<path class="st4" d="M361.1,263.2h2.2v1.5l0,0c0.7-1.1,1.9-1.8,3.2-1.8c2.3,0,3.7,1.2,3.7,3.5v7.1h-2.3v-6.5
		c-0.1-1.6-0.7-2.3-2-2.3c-1.5,0-2.5,1.2-2.5,2.7v6.1h-2.3L361.1,263.2L361.1,263.2z"/>
	<path class="st4" d="M382.1,273c0,3.1-1.8,4.6-5.1,4.6c-2.1,0-4.4-0.8-4.6-3.2h2.3c0.3,1.3,1.3,1.5,2.5,1.5c1.8,0,2.7-0.9,2.7-2.6
		v-1.6h0c-0.6,1.1-1.8,1.8-3.1,1.8c-3.3,0-4.6-2.5-4.6-5.4c0-2.8,1.7-5.2,4.7-5.2c1.3,0,2.5,0.5,3.1,1.7h0v-1.4h2.3L382.1,273
		L382.1,273z M379.9,268.2c0-1.8-0.8-3.4-2.8-3.4c-2,0-2.7,1.9-2.7,3.6c0,1.7,0.8,3.4,2.7,3.4C379.1,271.8,379.9,269.9,379.9,268.2z
		"/>
	<path class="st4" d="M390.2,259.3h2.6l6.5,10.5h0v-10.5h2.4v14.3h-2.6l-6.5-10.5h-0.1v10.5h-2.4L390.2,259.3L390.2,259.3z"/>
	<path class="st4" d="M413.1,271.3c0,0.6,0.1,0.8,0.5,0.8h0.2c0.1,0,0.2,0,0.3,0v1.6c-0.3,0.1-1.1,0.3-1.4,0.3
		c-0.9,0-1.6-0.3-1.8-1.3c-0.9,0.9-2.4,1.3-3.6,1.3c-1.9,0-3.5-1-3.5-3c0-2.6,2.1-3,4-3.2c1.7-0.3,3.1-0.1,3.1-1.5
		c0-1.2-1.2-1.4-2.1-1.4c-1.3,0-2.2,0.5-2.3,1.6h-2.3c0.2-2.7,2.4-3.4,4.7-3.4c2,0,4.1,0.8,4.1,3V271.3z M410.8,268.4
		c-0.7,0.5-1.8,0.4-2.8,0.6c-1,0.2-1.9,0.5-1.9,1.7c0,1,1.3,1.3,2.1,1.3c1,0,2.6-0.5,2.6-2L410.8,268.4L410.8,268.4z"/>
	<path class="st4" d="M415.6,263.2h2.2v1.4h0.1c0.7-1,1.5-1.7,3.2-1.7c1.3,0,2.4,0.5,2.9,1.7c0.8-1.1,1.7-1.7,3.2-1.7
		c2.2,0,3.5,1,3.5,3.5v7.1h-2.3v-6c0-1.7-0.1-2.8-1.9-2.8c-1.5,0-2.2,1-2.2,2.8v6.1h-2.3v-6.6c0-1.4-0.4-2.2-1.8-2.2
		c-1.2,0-2.3,1-2.3,2.7v6.1h-2.3L415.6,263.2L415.6,263.2z"/>
	<path class="st4" d="M434.7,269c0,1.6,0.9,3.1,2.8,3.1c1.3,0,2.1-0.6,2.5-1.7h2.2c-0.5,2.3-2.4,3.5-4.7,3.5c-3.3,0-5.1-2.2-5.1-5.4
		c0-2.9,1.9-5.5,5-5.5c3.3,0,5.3,2.9,4.9,6L434.7,269L434.7,269z M440.1,267.5c-0.1-1.4-1-2.7-2.6-2.7c-1.6,0-2.7,1.2-2.7,2.7H440.1
		z"/>
</g>
<g>
	<path class="st4" d="M489.7,244.9c0,4.1-2.6,7.5-6.8,7.5s-6.8-3.4-6.8-7.5c0-4.1,2.6-7.5,6.8-7.5S489.7,240.9,489.7,244.9z
		 M478.5,244.9c0,2.7,1.3,5.4,4.3,5.4s4.3-2.7,4.3-5.4s-1.3-5.4-4.3-5.4S478.5,242.2,478.5,244.9z"/>
	<path class="st4" d="M490.6,241.7h1.7v-0.9c0-2.6,1.4-3.1,2.9-3.1c0.7,0,1.3,0,1.6,0.1v1.8c-0.3-0.1-0.6-0.1-1.1-0.1
		c-0.6,0-1.1,0.2-1.1,1.1v1.1h1.9v1.7h-1.9v8.6h-2.3v-8.6h-1.7V241.7z"/>
	<path class="st4" d="M496.6,241.7h1.7v-0.9c0-2.6,1.4-3.1,2.9-3.1c0.7,0,1.3,0,1.6,0.1v1.8c-0.3-0.1-0.6-0.1-1.1-0.1
		c-0.6,0-1.1,0.2-1.1,1.1v1.1h1.9v1.7h-1.9v8.6h-2.3v-8.6h-1.7V241.7z"/>
	<path class="st4" d="M505.7,247.5c0,1.6,0.9,3.1,2.8,3.1c1.3,0,2.1-0.6,2.5-1.7h2.2c-0.5,2.3-2.4,3.5-4.7,3.5
		c-3.3,0-5.1-2.2-5.1-5.4c0-2.9,1.9-5.5,5-5.5c3.3,0,5.3,2.9,4.9,6L505.7,247.5L505.7,247.5z M511,246c-0.1-1.4-1-2.7-2.6-2.7
		c-1.6,0-2.7,1.2-2.7,2.7H511z"/>
	<path class="st4" d="M515,241.7h2.1v2h0c0.3-1.1,1.6-2.3,3-2.3c0.5,0,0.6,0,0.9,0.1v2.2c-0.3-0.1-0.7-0.1-1-0.1
		c-1.5,0-2.8,1.2-2.8,3.5v4.9H515L515,241.7L515,241.7z"/>
	<path class="st4" d="M522.1,237.8h2.3v2.2h-2.3V237.8z M522.1,241.7h2.3v10.3h-2.3V241.7z"/>
	<path class="st4" d="M526.9,241.7h2.2v1.5l0,0c0.7-1.1,1.9-1.8,3.2-1.8c2.3,0,3.7,1.2,3.7,3.5v7.1h-2.3v-6.5
		c-0.1-1.6-0.7-2.3-2-2.3c-1.5,0-2.5,1.2-2.5,2.7v6.1h-2.3L526.9,241.7L526.9,241.7z"/>
	<path class="st4" d="M547.9,251.5c0,3.1-1.8,4.6-5.1,4.6c-2.1,0-4.4-0.8-4.6-3.2h2.3c0.3,1.3,1.3,1.5,2.5,1.5
		c1.8,0,2.7-0.9,2.7-2.6v-1.6h0c-0.6,1.1-1.8,1.8-3.1,1.8c-3.3,0-4.6-2.5-4.6-5.4c0-2.8,1.7-5.2,4.7-5.2c1.3,0,2.5,0.5,3.1,1.7h0
		v-1.4h2.3L547.9,251.5L547.9,251.5z M545.6,246.7c0-1.8-0.8-3.4-2.8-3.4c-2,0-2.7,1.9-2.7,3.6c0,1.7,0.8,3.4,2.7,3.4
		C544.9,250.3,545.6,248.5,545.6,246.7z"/>
	<path class="st4" d="M554.5,237.8h2.6l3.6,11.3h0l3.7-11.3h2.5l-4.9,14.3h-2.8L554.5,237.8z"/>
	<path class="st4" d="M568.7,247.5c0,1.6,0.9,3.1,2.8,3.1c1.3,0,2.1-0.6,2.5-1.7h2.2c-0.5,2.3-2.4,3.5-4.7,3.5
		c-3.3,0-5.1-2.2-5.1-5.4c0-2.9,1.9-5.5,5-5.5c3.3,0,5.3,2.9,4.9,6L568.7,247.5L568.7,247.5z M574,246c-0.1-1.4-1-2.7-2.6-2.7
		c-1.6,0-2.7,1.2-2.7,2.7H574z"/>
	<path class="st4" d="M578,241.7h2.1v2h0c0.3-1.1,1.6-2.3,3-2.3c0.5,0,0.6,0,0.9,0.1v2.2c-0.3-0.1-0.7-0.1-1-0.1
		c-1.5,0-2.8,1.2-2.8,3.5v4.9H578L578,241.7L578,241.7z"/>
	<path class="st4" d="M586.8,248.8c0.1,1.3,1.1,1.8,2.3,1.8c0.9,0,2.4-0.2,2.3-1.4c-0.1-1.2-1.7-1.3-3.4-1.7c-1.7-0.4-3.3-1-3.3-3.1
		c0-2.3,2.4-3,4.3-3c2.1,0,4.1,0.9,4.3,3.2H591c-0.2-1.1-1.1-1.4-2.1-1.4c-0.7,0-1.9,0.2-1.9,1.1c0,1.1,1.7,1.3,3.4,1.7
		c1.7,0.4,3.3,1,3.3,3c0,2.5-2.5,3.4-4.6,3.4c-2.6,0-4.5-1.2-4.6-3.6L586.8,248.8L586.8,248.8z"/>
	<path class="st4" d="M595.5,237.8h2.3v2.2h-2.3V237.8z M595.5,241.7h2.3v10.3h-2.3V241.7z"/>
	<path class="st4" d="M599.8,246.9c0-3.1,1.9-5.4,5.2-5.4s5.2,2.3,5.2,5.4c0,3.2-1.9,5.5-5.2,5.5S599.8,250.1,599.8,246.9z
		 M607.9,246.9c0-1.8-0.9-3.6-2.9-3.6s-2.9,1.9-2.9,3.6c0,1.8,0.9,3.7,2.9,3.7S607.9,248.7,607.9,246.9z"/>
	<path class="st4" d="M612.1,241.7h2.2v1.5l0,0c0.7-1.1,1.9-1.8,3.2-1.8c2.3,0,3.7,1.2,3.7,3.5v7.1h-2.3v-6.5
		c-0.1-1.6-0.7-2.3-2-2.3c-1.5,0-2.5,1.2-2.5,2.7v6.1h-2.3L612.1,241.7L612.1,241.7z"/>
	<path class="st4" d="M479.1,279.9c-1.6-2.6-2.9-5.4-2.9-9.2c0-3.2,1-6.4,2.9-9.2h1.9c-1.6,2.9-2.5,5.9-2.5,9.2s0.8,6.4,2.5,9.2
		L479.1,279.9L479.1,279.9z"/>
	<path class="st4" d="M482.1,261.8h2.3v2.2h-2.3V261.8z M482.1,265.7h2.3v10.3h-2.3V265.7z"/>
	<path class="st4" d="M485.8,265.7h1.7v-0.9c0-2.6,1.4-3.1,2.9-3.1c0.7,0,1.3,0,1.6,0.1v1.8c-0.3-0.1-0.6-0.1-1.1-0.1
		c-0.6,0-1.1,0.2-1.1,1.1v1.1h1.9v1.7h-1.9v8.6h-2.3v-8.6h-1.7V265.7z"/>
	<path class="st4" d="M507.4,273.8c0,0.6,0.1,0.8,0.5,0.8h0.2c0.1,0,0.2,0,0.3,0v1.6c-0.3,0.1-1.1,0.3-1.4,0.3
		c-0.9,0-1.6-0.3-1.8-1.3c-0.9,0.9-2.4,1.3-3.6,1.3c-1.9,0-3.5-1-3.5-3c0-2.6,2.1-3,4-3.2c1.7-0.3,3.1-0.1,3.1-1.5
		c0-1.2-1.2-1.4-2.1-1.4c-1.3,0-2.2,0.5-2.3,1.6h-2.3c0.2-2.7,2.4-3.4,4.7-3.4c2,0,4.1,0.8,4.1,3V273.8z M505.1,270.9
		c-0.7,0.5-1.8,0.4-2.8,0.6c-1,0.2-1.9,0.5-1.9,1.7c0,1,1.3,1.3,2.1,1.3c1,0,2.6-0.5,2.6-2L505.1,270.9L505.1,270.9z"/>
	<path class="st4" d="M509.9,265.7h2.2v1.4h0c0.6-1.2,1.9-1.7,3.2-1.7c3.3,0,4.8,2.5,4.8,5.5c0,2.8-1.4,5.4-4.5,5.4
		c-1.3,0-2.8-0.5-3.5-1.6h0v5.2h-2.3L509.9,265.7L509.9,265.7z M515,267.3c-1.9,0-2.9,1.4-2.9,3.7c0,2.1,1.1,3.6,2.9,3.6
		c2.1,0,2.9-1.8,2.9-3.6C517.8,269.1,516.9,267.3,515,267.3z"/>
	<path class="st4" d="M522.1,265.7h2.2v1.4h0c0.6-1.2,1.9-1.7,3.2-1.7c3.3,0,4.8,2.5,4.8,5.5c0,2.8-1.4,5.4-4.5,5.4
		c-1.3,0-2.8-0.5-3.5-1.6h0v5.2h-2.3L522.1,265.7L522.1,265.7z M527.2,267.3c-1.9,0-2.9,1.4-2.9,3.7c0,2.1,1.1,3.6,2.9,3.6
		c2.1,0,2.9-1.8,2.9-3.6C530.1,269.1,529.1,267.3,527.2,267.3z"/>
	<path class="st4" d="M534.3,261.8h2.3v14.3h-2.3V261.8z"/>
	<path class="st4" d="M539.1,261.8h2.3v2.2h-2.3V261.8z M539.1,265.7h2.3v10.3h-2.3V265.7z"/>
	<path class="st4" d="M550.9,269.2c-0.2-1.3-1.1-1.9-2.4-1.9c-1.2,0-2.8,0.6-2.8,3.8c0,1.7,0.8,3.5,2.7,3.5c1.3,0,2.2-0.9,2.5-2.4
		h2.3c-0.4,2.7-2.1,4.2-4.7,4.2c-3.2,0-5-2.3-5-5.3c0-3.1,1.7-5.6,5.1-5.6c2.4,0,4.4,1.2,4.7,3.7L550.9,269.2L550.9,269.2z"/>
	<path class="st4" d="M563.7,273.8c0,0.6,0.1,0.8,0.5,0.8h0.2c0.1,0,0.2,0,0.3,0v1.6c-0.3,0.1-1.1,0.3-1.4,0.3
		c-0.9,0-1.6-0.3-1.8-1.3c-0.9,0.9-2.4,1.3-3.6,1.3c-1.9,0-3.5-1-3.5-3c0-2.6,2.1-3,4-3.2c1.7-0.3,3.1-0.1,3.1-1.5
		c0-1.2-1.2-1.4-2.1-1.4c-1.3,0-2.2,0.5-2.3,1.6h-2.3c0.2-2.7,2.4-3.4,4.7-3.4c2,0,4.1,0.8,4.1,3L563.7,273.8L563.7,273.8z
		 M561.4,270.9c-0.7,0.5-1.8,0.4-2.8,0.6c-1,0.2-1.9,0.5-1.9,1.7c0,1,1.3,1.3,2.1,1.3c1,0,2.6-0.5,2.6-2L561.4,270.9L561.4,270.9z"
		/>
	<path class="st4" d="M566.2,261.8h2.3v5.3h0c0.6-1,1.9-1.6,3.1-1.6c3.3,0,4.8,2.5,4.8,5.5c0,2.8-1.4,5.4-4.5,5.4
		c-1.4,0-2.9-0.3-3.6-1.7h0v1.4h-2.2L566.2,261.8L566.2,261.8z M571.3,267.3c-1.9,0-2.9,1.4-2.9,3.7c0,2.1,1.1,3.6,2.9,3.6
		c2.1,0,2.9-1.8,2.9-3.6C574.2,269.1,573.2,267.3,571.3,267.3z"/>
	<path class="st4" d="M578.4,261.8h2.3v14.3h-2.3V261.8z"/>
	<path class="st4" d="M585,271.5c0,1.6,0.9,3.1,2.8,3.1c1.3,0,2.1-0.6,2.5-1.7h2.2c-0.5,2.3-2.4,3.5-4.7,3.5c-3.3,0-5.1-2.2-5.1-5.4
		c0-2.9,1.9-5.5,5-5.5c3.3,0,5.3,2.9,4.9,6L585,271.5L585,271.5z M590.3,270c-0.1-1.4-1-2.7-2.6-2.7c-1.6,0-2.7,1.2-2.7,2.7H590.3z"
		/>
	<path class="st4" d="M594.8,261.5c1.6,2.6,2.9,5.4,2.9,9.2c0,3.2-1,6.4-2.9,9.2h-1.9c1.6-2.9,2.5-5.8,2.5-9.2
		c0-3.4-0.8-6.4-2.5-9.2H594.8z"/>
</g>
<g>
	<path class="st4" d="M645.6,237.8h3.5l3.9,11.2h0l3.8-11.2h3.5v14.3H658v-11h0l-4,11H652l-4-11h0v11h-2.4L645.6,237.8L645.6,237.8z
		"/>
	<path class="st4" d="M662.6,246.9c0-3.1,1.9-5.4,5.2-5.4s5.2,2.3,5.2,5.4c0,3.2-1.9,5.5-5.2,5.5S662.6,250.1,662.6,246.9z
		 M670.8,246.9c0-1.8-0.9-3.6-2.9-3.6s-2.9,1.9-2.9,3.6c0,1.8,0.9,3.7,2.9,3.7S670.8,248.7,670.8,246.9z"/>
	<path class="st4" d="M684.7,252.1h-2.2v-1.4h0c-0.6,1.2-1.9,1.7-3.2,1.7c-3.3,0-4.8-2.4-4.8-5.5c0-3.8,2.2-5.4,4.5-5.4
		c1.3,0,2.7,0.5,3.4,1.6h0v-5.3h2.3V252.1z M679.6,250.6c2,0,2.9-1.9,2.9-3.7c0-2.3-1.1-3.6-2.9-3.6c-2.1,0-2.9,1.9-2.9,3.8
		C676.7,248.8,677.6,250.6,679.6,250.6z"/>
	<path class="st4" d="M689,247.5c0,1.6,0.9,3.1,2.8,3.1c1.3,0,2.1-0.6,2.5-1.7h2.2c-0.5,2.3-2.4,3.5-4.7,3.5c-3.3,0-5.1-2.2-5.1-5.4
		c0-2.9,1.9-5.5,5-5.5c3.3,0,5.3,2.9,4.9,6L689,247.5L689,247.5z M694.3,246c-0.1-1.4-1-2.7-2.6-2.7c-1.6,0-2.7,1.2-2.7,2.7H694.3z"
		/>
	<path class="st4" d="M703.4,246.9c0-3.1,1.9-5.4,5.2-5.4s5.2,2.3,5.2,5.4c0,3.2-1.9,5.5-5.2,5.5S703.4,250.1,703.4,246.9z
		 M711.5,246.9c0-1.8-0.9-3.6-2.9-3.6s-2.9,1.9-2.9,3.6c0,1.8,0.9,3.7,2.9,3.7S711.5,248.7,711.5,246.9z"/>
	<path class="st4" d="M714.7,241.7h1.7v-0.9c0-2.6,1.4-3.1,2.9-3.1c0.7,0,1.3,0,1.6,0.1v1.8c-0.3-0.1-0.6-0.1-1.1-0.1
		c-0.6,0-1.1,0.2-1.1,1.1v1.1h1.9v1.7h-1.9v8.6h-2.3v-8.6h-1.7V241.7z"/>
	<path class="st4" d="M645.6,261.8h5.9c4.4,0,6.3,3.2,6.3,7.1s-1.9,7.1-6.3,7.1h-5.9V261.8z M648.1,274h2.5c3.9,0,4.8-2.2,4.8-5.1
		c0-2.9-0.8-5.1-4.8-5.1h-2.5V274z"/>
	<path class="st4" d="M659.8,261.8h2.3v2.2h-2.3V261.8z M659.8,265.7h2.3v10.3h-2.3V265.7z"/>
	<path class="st4" d="M666.3,272.8c0.1,1.3,1.1,1.8,2.3,1.8c0.9,0,2.4-0.2,2.3-1.4c-0.1-1.2-1.7-1.3-3.4-1.7c-1.7-0.4-3.3-1-3.3-3.1
		c0-2.3,2.4-3,4.3-3c2.1,0,4.1,0.9,4.3,3.2h-2.4c-0.2-1.1-1.1-1.4-2.1-1.4c-0.7,0-1.9,0.2-1.9,1.1c0,1.1,1.7,1.3,3.4,1.7
		c1.7,0.4,3.3,1,3.3,3c0,2.5-2.5,3.4-4.6,3.4c-2.6,0-4.5-1.2-4.6-3.6L666.3,272.8L666.3,272.8z"/>
	<path class="st4" d="M673.9,265.7h1.7v-3.1h2.3v3.1h2.1v1.7h-2.1v5.5c0,0.9,0.1,1.4,1.1,1.4c0.3,0,0.6,0,1-0.1v1.8
		c-0.5,0.1-1,0.1-1.5,0.1c-2.4,0-2.8-0.9-2.9-2.6v-6.1h-1.7L673.9,265.7L673.9,265.7z"/>
	<path class="st4" d="M681.6,265.7h2.1v2h0c0.3-1.1,1.6-2.3,3-2.3c0.5,0,0.6,0,0.9,0.1v2.2c-0.3-0.1-0.7-0.1-1-0.1
		c-1.5,0-2.8,1.2-2.8,3.5v4.9h-2.3L681.6,265.7L681.6,265.7z"/>
	<path class="st4" d="M688.7,261.8h2.3v2.2h-2.3V261.8z M688.7,265.7h2.3v10.3h-2.3V265.7z"/>
	<path class="st4" d="M693.5,261.8h2.3v5.3h0c0.6-1,1.9-1.6,3.1-1.6c3.3,0,4.8,2.5,4.8,5.5c0,2.8-1.4,5.4-4.5,5.4
		c-1.4,0-2.9-0.3-3.6-1.7h0v1.4h-2.2L693.5,261.8L693.5,261.8z M698.6,267.3c-1.9,0-2.9,1.4-2.9,3.7c0,2.1,1.1,3.6,2.9,3.6
		c2.1,0,2.9-1.8,2.9-3.6C701.5,269.1,700.5,267.3,698.6,267.3z"/>
	<path class="st4" d="M714.8,276.1h-2.2v-1.4h0c-0.6,1-1.8,1.7-2.9,1.7c-2.7,0-3.9-1.3-3.9-4.1v-6.6h2.3v6.3c0,1.8,0.7,2.5,2,2.5
		c1.9,0,2.5-1.2,2.5-2.8v-6h2.3L714.8,276.1L714.8,276.1z"/>
	<path class="st4" d="M716.1,265.7h1.7v-3.1h2.3v3.1h2.1v1.7h-2.1v5.5c0,0.9,0.1,1.4,1.1,1.4c0.3,0,0.6,0,1-0.1v1.8
		c-0.5,0.1-1,0.1-1.5,0.1c-2.4,0-2.8-0.9-2.9-2.6v-6.1h-1.7V265.7z"/>
	<path class="st4" d="M723.9,261.8h2.3v2.2h-2.3V261.8z M723.9,265.7h2.3v10.3h-2.3V265.7z"/>
	<path class="st4" d="M728.2,270.9c0-3.1,1.9-5.4,5.2-5.4s5.2,2.3,5.2,5.4c0,3.2-1.9,5.5-5.2,5.5S728.2,274.1,728.2,270.9z
		 M736.3,270.9c0-1.8-0.9-3.6-2.9-3.6s-2.9,1.9-2.9,3.6c0,1.8,0.9,3.7,2.9,3.7S736.3,272.7,736.3,270.9z"/>
	<path class="st4" d="M740.5,265.7h2.2v1.5l0,0c0.7-1.1,1.9-1.8,3.2-1.8c2.3,0,3.7,1.2,3.7,3.5v7.1h-2.3v-6.5
		c-0.1-1.6-0.7-2.3-2-2.3c-1.5,0-2.5,1.2-2.5,2.7v6.1h-2.3L740.5,265.7L740.5,265.7z"/>
</g>
<g>
	<path class="st4" d="M825.2,237.7c-0.4-1.7-1.5-2.8-3.6-2.8c-3.1,0-4.3,2.7-4.3,5.4s1.3,5.4,4.3,5.4c2.2,0,3.4-1.7,3.6-3.7h2.4
		c-0.2,3.4-2.6,5.8-6.1,5.8c-4.3,0-6.8-3.4-6.8-7.5c0-4.1,2.6-7.5,6.8-7.5c3.2,0,5.7,1.8,6.1,4.9L825.2,237.7L825.2,237.7z"/>
	<path class="st4" d="M829.7,233.2h2.3v14.3h-2.3V233.2z"/>
	<path class="st4" d="M834.5,233.2h2.3v2.2h-2.3V233.2z M834.5,237.1h2.3v10.3h-2.3V237.1z"/>
	<path class="st4" d="M841,242.9c0,1.6,0.9,3.1,2.8,3.1c1.3,0,2.1-0.6,2.5-1.7h2.2c-0.5,2.3-2.4,3.5-4.7,3.5c-3.3,0-5.1-2.2-5.1-5.4
		c0-2.9,1.9-5.5,5-5.5c3.3,0,5.3,2.9,4.9,6L841,242.9L841,242.9z M846.4,241.4c-0.1-1.4-1-2.7-2.6-2.7c-1.6,0-2.7,1.2-2.7,2.7H846.4
		z"/>
	<path class="st4" d="M850.4,237.1h2.2v1.5l0,0c0.7-1.1,1.9-1.8,3.2-1.8c2.3,0,3.7,1.2,3.7,3.5v7.1h-2.3V241c-0.1-1.6-0.7-2.3-2-2.3
		c-1.5,0-2.5,1.2-2.5,2.7v6.1h-2.3L850.4,237.1L850.4,237.1z"/>
	<path class="st4" d="M860.8,237.1h1.7V234h2.3v3.1h2.1v1.7h-2.1v5.5c0,0.9,0.1,1.4,1.1,1.4c0.3,0,0.6,0,1-0.1v1.8
		c-0.5,0.1-1,0.1-1.5,0.1c-2.4,0-2.8-0.9-2.9-2.6v-6.1h-1.7L860.8,237.1L860.8,237.1z"/>
	<path class="st4" d="M817.9,275.3c-1.6-2.6-2.9-5.4-2.9-9.2c0-3.2,1-6.4,2.9-9.2h1.9c-1.6,2.9-2.5,5.9-2.5,9.2s0.8,6.4,2.5,9.2
		L817.9,275.3L817.9,275.3z"/>
	<path class="st4" d="M820.8,257.2h2.3v2.2h-2.3V257.2z M820.8,261.1h2.3v10.3h-2.3V261.1z"/>
	<path class="st4" d="M824.5,261.1h1.7v-0.9c0-2.6,1.4-3.1,2.9-3.1c0.7,0,1.3,0,1.6,0.1v1.8c-0.3-0.1-0.6-0.1-1.1-0.1
		c-0.6,0-1.1,0.2-1.1,1.1v1.1h1.9v1.7h-1.9v8.6h-2.3v-8.6h-1.7V261.1z"/>
	<path class="st4" d="M846.1,269.2c0,0.6,0.1,0.8,0.5,0.8h0.2c0.1,0,0.2,0,0.3,0v1.6c-0.3,0.1-1.1,0.3-1.4,0.3
		c-0.9,0-1.6-0.3-1.8-1.3c-0.9,0.9-2.4,1.3-3.6,1.3c-1.9,0-3.5-1-3.5-3c0-2.6,2.1-3,4-3.2c1.7-0.3,3.1-0.1,3.1-1.5
		c0-1.2-1.2-1.4-2.1-1.4c-1.3,0-2.2,0.5-2.3,1.6h-2.3c0.2-2.7,2.4-3.4,4.7-3.4c2,0,4.1,0.8,4.1,3L846.1,269.2L846.1,269.2z
		 M843.8,266.3c-0.7,0.5-1.8,0.4-2.8,0.6c-1,0.2-1.9,0.5-1.9,1.7c0,1,1.3,1.3,2.1,1.3c1,0,2.6-0.5,2.6-2L843.8,266.3L843.8,266.3z"
		/>
	<path class="st4" d="M848.6,261.1h2.2v1.4h0c0.6-1.2,1.9-1.7,3.2-1.7c3.3,0,4.8,2.5,4.8,5.5c0,2.8-1.4,5.4-4.5,5.4
		c-1.3,0-2.8-0.5-3.5-1.6h0v5.2h-2.3L848.6,261.1L848.6,261.1z M853.7,262.7c-1.9,0-2.9,1.4-2.9,3.7c0,2.1,1.1,3.6,2.9,3.6
		c2.1,0,2.9-1.8,2.9-3.6C856.6,264.5,855.6,262.7,853.7,262.7z"/>
	<path class="st4" d="M860.8,261.1h2.2v1.4h0c0.6-1.2,1.9-1.7,3.2-1.7c3.3,0,4.8,2.5,4.8,5.5c0,2.8-1.4,5.4-4.5,5.4
		c-1.3,0-2.8-0.5-3.5-1.6h0v5.2h-2.3L860.8,261.1L860.8,261.1z M865.9,262.7c-1.9,0-2.9,1.4-2.9,3.7c0,2.1,1.1,3.6,2.9,3.6
		c2.1,0,2.9-1.8,2.9-3.6C868.8,264.5,867.8,262.7,865.9,262.7z"/>
	<path class="st4" d="M873,257.2h2.3v14.3H873V257.2z"/>
	<path class="st4" d="M877.9,257.2h2.3v2.2h-2.3V257.2z M877.9,261.1h2.3v10.3h-2.3V261.1z"/>
	<path class="st4" d="M889.6,264.6c-0.2-1.3-1.1-1.9-2.4-1.9c-1.2,0-2.8,0.6-2.8,3.8c0,1.7,0.8,3.5,2.7,3.5c1.3,0,2.2-0.9,2.5-2.4
		h2.3c-0.4,2.7-2.1,4.2-4.7,4.2c-3.2,0-5-2.3-5-5.3c0-3.1,1.7-5.6,5.1-5.6c2.4,0,4.4,1.2,4.7,3.7L889.6,264.6L889.6,264.6z"/>
	<path class="st4" d="M902.4,269.2c0,0.6,0.1,0.8,0.5,0.8h0.2c0.1,0,0.2,0,0.3,0v1.6c-0.3,0.1-1.1,0.3-1.4,0.3
		c-0.9,0-1.6-0.3-1.8-1.3c-0.9,0.9-2.4,1.3-3.6,1.3c-1.9,0-3.5-1-3.5-3c0-2.6,2.1-3,4-3.2c1.7-0.3,3.1-0.1,3.1-1.5
		c0-1.2-1.2-1.4-2.1-1.4c-1.3,0-2.2,0.5-2.3,1.6h-2.3c0.2-2.7,2.4-3.4,4.7-3.4c2,0,4.1,0.8,4.1,3L902.4,269.2L902.4,269.2z
		 M900.1,266.3c-0.7,0.5-1.8,0.4-2.8,0.6c-1,0.2-1.9,0.5-1.9,1.7c0,1,1.3,1.3,2.1,1.3c1,0,2.6-0.5,2.6-2L900.1,266.3L900.1,266.3z"
		/>
	<path class="st4" d="M904.9,257.2h2.3v5.3h0c0.6-1,1.9-1.6,3.1-1.6c3.3,0,4.8,2.5,4.8,5.5c0,2.8-1.4,5.4-4.5,5.4
		c-1.4,0-2.9-0.3-3.6-1.7h0v1.4h-2.2L904.9,257.2L904.9,257.2z M910,262.7c-1.9,0-2.9,1.4-2.9,3.7c0,2.1,1.1,3.6,2.9,3.6
		c2.1,0,2.9-1.8,2.9-3.6C912.9,264.5,911.9,262.7,910,262.7z"/>
	<path class="st4" d="M917.1,257.2h2.3v14.3h-2.3V257.2z"/>
	<path class="st4" d="M923.7,266.9c0,1.6,0.9,3.1,2.8,3.1c1.3,0,2.1-0.6,2.5-1.7h2.2c-0.5,2.3-2.4,3.5-4.7,3.5
		c-3.3,0-5.1-2.2-5.1-5.4c0-2.9,1.9-5.5,5-5.5c3.3,0,5.3,2.9,4.9,6L923.7,266.9L923.7,266.9z M929,265.4c-0.1-1.4-1-2.7-2.6-2.7
		c-1.6,0-2.7,1.2-2.7,2.7H929z"/>
	<path class="st4" d="M933.5,256.9c1.6,2.6,2.9,5.4,2.9,9.2c0,3.2-1,6.4-2.9,9.2h-1.9c1.6-2.9,2.5-5.8,2.5-9.2
		c0-3.4-0.8-6.4-2.5-9.2H933.5z"/>
</g>
<g>
	<path class="st4" d="M984.4,191.7h5.9c4.4,0,6.3,3.2,6.3,7.1s-1.9,7.1-6.3,7.1h-5.9V191.7z M986.9,204h2.5c3.9,0,4.8-2.2,4.8-5.1
		c0-2.9-0.8-5.1-4.8-5.1h-2.5V204z"/>
	<path class="st4" d="M1007.1,203.7c0,0.6,0.1,0.8,0.5,0.8h0.2c0.1,0,0.2,0,0.3,0v1.6c-0.3,0.1-1.1,0.3-1.4,0.3
		c-0.9,0-1.6-0.3-1.8-1.3c-0.9,0.9-2.4,1.3-3.6,1.3c-1.9,0-3.5-1-3.5-3c0-2.6,2.1-3,4-3.2c1.7-0.3,3.1-0.1,3.1-1.5
		c0-1.2-1.2-1.4-2.1-1.4c-1.3,0-2.2,0.5-2.3,1.6h-2.3c0.2-2.7,2.4-3.4,4.7-3.4c2,0,4.1,0.8,4.1,3L1007.1,203.7L1007.1,203.7z
		 M1004.9,200.8c-0.7,0.5-1.8,0.4-2.8,0.6c-1,0.2-1.9,0.5-1.9,1.7c0,1,1.3,1.3,2.1,1.3c1,0,2.6-0.5,2.6-2L1004.9,200.8L1004.9,200.8
		z"/>
	<path class="st4" d="M1008.6,195.7h1.7v-3.1h2.3v3.1h2.1v1.7h-2.1v5.5c0,0.9,0.1,1.4,1.1,1.4c0.3,0,0.6,0,1-0.1v1.8
		c-0.5,0.1-1,0.1-1.5,0.1c-2.4,0-2.8-0.9-2.9-2.6v-6.1h-1.7V195.7z"/>
	<path class="st4" d="M1018,201.4c0,1.6,0.9,3.1,2.8,3.1c1.3,0,2.1-0.6,2.5-1.7h2.2c-0.5,2.3-2.4,3.5-4.7,3.5
		c-3.3,0-5.1-2.2-5.1-5.4c0-2.9,1.9-5.5,5-5.5c3.3,0,5.3,2.9,4.9,6L1018,201.4L1018,201.4z M1023.4,199.9c-0.1-1.4-1-2.7-2.6-2.7
		c-1.6,0-2.7,1.2-2.7,2.7H1023.4z"/>
	<path class="st4" d="M1032.5,200.8c0-3.1,1.9-5.4,5.2-5.4s5.2,2.3,5.2,5.4c0,3.2-1.9,5.5-5.2,5.5S1032.5,204,1032.5,200.8z
		 M1040.6,200.8c0-1.8-0.9-3.6-2.9-3.6s-2.9,1.9-2.9,3.6c0,1.8,0.9,3.7,2.9,3.7S1040.6,202.6,1040.6,200.8z"/>
	<path class="st4" d="M1043.8,195.7h1.7v-0.9c0-2.6,1.4-3.1,2.9-3.1c0.7,0,1.3,0,1.6,0.1v1.8c-0.3-0.1-0.6-0.1-1.1-0.1
		c-0.6,0-1.1,0.2-1.1,1.1v1.1h1.9v1.7h-1.9v8.6h-2.3v-8.6h-1.7L1043.8,195.7L1043.8,195.7z"/>
	<path class="st4" d="M986,225.3c0,2.2,1.6,3.1,3.6,3.1c2.2,0,3-1.1,3-2.2c0-1.1-0.6-1.5-1.2-1.8c-1-0.4-2.3-0.6-4.3-1.2
		c-2.5-0.6-3.2-2.1-3.2-3.6c0-2.9,2.6-4.2,5.2-4.2c3,0,5.5,1.6,5.5,4.6h-2.5c-0.1-1.8-1.3-2.5-3.1-2.5c-1.2,0-2.6,0.4-2.6,1.9
		c0,1,0.7,1.5,1.7,1.8c0.2,0.1,3.4,0.9,4.1,1.1c1.9,0.6,2.8,2.1,2.8,3.6c0,3.2-2.9,4.5-5.7,4.5c-3.3,0-5.9-1.6-6-5.1L986,225.3
		L986,225.3z"/>
	<path class="st4" d="M1006.1,230h-2.2v-1.4h0c-0.6,1-1.8,1.7-2.9,1.7c-2.7,0-3.9-1.3-3.9-4.1v-6.6h2.3v6.3c0,1.8,0.7,2.5,2,2.5
		c1.9,0,2.5-1.2,2.5-2.8v-6h2.3L1006.1,230L1006.1,230z"/>
	<path class="st4" d="M1008.5,215.7h2.3v5.3h0c0.6-1,1.9-1.6,3.1-1.6c3.3,0,4.8,2.5,4.8,5.5c0,2.8-1.4,5.4-4.5,5.4
		c-1.4,0-2.9-0.3-3.6-1.7h0v1.4h-2.2L1008.5,215.7L1008.5,215.7z M1013.6,221.2c-1.9,0-2.9,1.4-2.9,3.7c0,2.1,1.1,3.6,2.9,3.6
		c2.1,0,2.9-1.8,2.9-3.6C1016.5,223,1015.5,221.2,1013.6,221.2z"/>
	<path class="st4" d="M1020.7,219.7h2.2v1.4h0.1c0.7-1,1.5-1.7,3.2-1.7c1.3,0,2.4,0.5,2.9,1.7c0.8-1.1,1.7-1.7,3.2-1.7
		c2.2,0,3.5,1,3.5,3.5v7.1h-2.3v-6c0-1.7-0.1-2.8-1.9-2.8c-1.5,0-2.2,1-2.2,2.8v6.1h-2.3v-6.6c0-1.4-0.4-2.2-1.8-2.2
		c-1.2,0-2.3,1-2.3,2.7v6.1h-2.3L1020.7,219.7L1020.7,219.7z"/>
	<path class="st4" d="M1038.2,215.7h2.3v2.2h-2.3V215.7z M1038.2,219.7h2.3V230h-2.3V219.7z"/>
	<path class="st4" d="M1044.6,226.7c0.1,1.3,1.1,1.8,2.3,1.8c0.9,0,2.4-0.2,2.3-1.4c-0.1-1.2-1.7-1.3-3.4-1.7
		c-1.7-0.4-3.3-1-3.3-3.1c0-2.3,2.4-3,4.3-3c2.1,0,4.1,0.9,4.3,3.2h-2.4c-0.2-1.1-1.1-1.4-2.1-1.4c-0.7,0-1.9,0.2-1.9,1.1
		c0,1.1,1.7,1.3,3.4,1.7c1.7,0.4,3.3,1,3.3,3c0,2.5-2.5,3.4-4.6,3.4c-2.6,0-4.5-1.2-4.6-3.6L1044.6,226.7L1044.6,226.7z"/>
	<path class="st4" d="M1055,226.7c0.1,1.3,1.1,1.8,2.3,1.8c0.9,0,2.4-0.2,2.3-1.4c-0.1-1.2-1.7-1.3-3.4-1.7c-1.7-0.4-3.3-1-3.3-3.1
		c0-2.3,2.4-3,4.3-3c2.1,0,4.1,0.9,4.3,3.2h-2.4c-0.2-1.1-1.1-1.4-2.1-1.4c-0.7,0-1.9,0.2-1.9,1.1c0,1.1,1.7,1.3,3.4,1.7
		c1.7,0.4,3.3,1,3.3,3c0,2.5-2.5,3.4-4.6,3.4c-2.6,0-4.5-1.2-4.6-3.6L1055,226.7L1055,226.7z"/>
	<path class="st4" d="M1063.7,215.7h2.3v2.2h-2.3V215.7z M1063.7,219.7h2.3V230h-2.3V219.7z"/>
	<path class="st4" d="M1068,224.8c0-3.1,1.9-5.4,5.2-5.4s5.2,2.3,5.2,5.4c0,3.2-1.9,5.5-5.2,5.5S1068,228,1068,224.8z M1076.2,224.8
		c0-1.8-0.9-3.6-2.9-3.6c-2,0-2.9,1.9-2.9,3.6c0,1.8,0.9,3.7,2.9,3.7C1075.3,228.5,1076.2,226.6,1076.2,224.8z"/>
	<path class="st4" d="M1080.4,219.7h2.2v1.5l0,0c0.7-1.1,1.9-1.8,3.2-1.8c2.3,0,3.7,1.2,3.7,3.5v7.1h-2.3v-6.5
		c-0.1-1.6-0.7-2.3-2-2.3c-1.5,0-2.5,1.2-2.5,2.7v6.1h-2.3L1080.4,219.7L1080.4,219.7z"/>
	<path class="st4" d="M1096.4,219.7h1.7v-3.1h2.3v3.1h2.1v1.7h-2.1v5.5c0,0.9,0.1,1.4,1.1,1.4c0.3,0,0.6,0,1-0.1v1.8
		c-0.5,0.1-1,0.1-1.5,0.1c-2.4,0-2.8-0.9-2.9-2.6v-6.1h-1.7L1096.4,219.7L1096.4,219.7z"/>
	<path class="st4" d="M1103.6,224.8c0-3.1,1.9-5.4,5.2-5.4s5.2,2.3,5.2,5.4c0,3.2-1.9,5.5-5.2,5.5S1103.6,228,1103.6,224.8z
		 M1111.7,224.8c0-1.8-0.9-3.6-2.9-3.6c-2,0-2.9,1.9-2.9,3.6c0,1.8,0.9,3.7,2.9,3.7C1110.8,228.5,1111.7,226.6,1111.7,224.8z"/>
	<path class="st4" d="M984.4,239.7h2.5v12.1h7.3v2.2h-9.8L984.4,239.7L984.4,239.7z"/>
	<path class="st4" d="M997.3,249.4c0,1.6,0.9,3.1,2.8,3.1c1.3,0,2.1-0.6,2.5-1.7h2.2c-0.5,2.3-2.4,3.5-4.7,3.5
		c-3.3,0-5.1-2.2-5.1-5.4c0-2.9,1.9-5.5,5-5.5c3.3,0,5.3,2.9,4.9,6L997.3,249.4L997.3,249.4z M1002.6,247.9c-0.1-1.4-1-2.7-2.6-2.7
		c-1.6,0-2.7,1.2-2.7,2.7H1002.6z"/>
	<path class="st4" d="M1016.2,253.5c0,3.1-1.8,4.6-5.1,4.6c-2.1,0-4.4-0.8-4.6-3.2h2.3c0.3,1.3,1.3,1.5,2.5,1.5
		c1.8,0,2.7-0.9,2.7-2.6v-1.6h0c-0.6,1.1-1.8,1.8-3.1,1.8c-3.3,0-4.6-2.5-4.6-5.4c0-2.8,1.7-5.2,4.7-5.2c1.3,0,2.5,0.5,3.1,1.7h0
		v-1.4h2.3L1016.2,253.5L1016.2,253.5z M1013.9,248.6c0-1.8-0.8-3.4-2.8-3.4c-2,0-2.7,1.9-2.7,3.6c0,1.7,0.8,3.4,2.7,3.4
		C1013.2,252.2,1013.9,250.4,1013.9,248.6z"/>
	<path class="st4" d="M1027.2,251.7c0,0.6,0.1,0.8,0.5,0.8h0.2c0.1,0,0.2,0,0.3,0v1.6c-0.3,0.1-1.1,0.3-1.4,0.3
		c-0.9,0-1.6-0.3-1.8-1.3c-0.9,0.9-2.4,1.3-3.6,1.3c-1.9,0-3.5-1-3.5-3c0-2.6,2.1-3,4-3.2c1.7-0.3,3.1-0.1,3.1-1.5
		c0-1.2-1.2-1.4-2.1-1.4c-1.3,0-2.2,0.5-2.3,1.6h-2.3c0.2-2.7,2.4-3.4,4.7-3.4c2,0,4.1,0.8,4.1,3L1027.2,251.7L1027.2,251.7z
		 M1024.9,248.8c-0.7,0.5-1.8,0.4-2.8,0.6c-1,0.2-1.9,0.5-1.9,1.7c0,1,1.3,1.3,2.1,1.3c1,0,2.6-0.5,2.6-2L1024.9,248.8L1024.9,248.8
		z"/>
	<path class="st4" d="M1029.7,239.7h2.3V254h-2.3V239.7z"/>
	<path class="st4" d="M1039,243.7h1.7v-0.9c0-2.6,1.4-3.1,2.9-3.1c0.7,0,1.3,0,1.6,0.1v1.8c-0.3-0.1-0.6-0.1-1.1-0.1
		c-0.6,0-1.1,0.2-1.1,1.1v1.1h1.9v1.7h-1.9v8.6h-2.3v-8.6h-1.7L1039,243.7L1039,243.7z"/>
	<path class="st4" d="M1045.8,248.8c0-3.1,1.9-5.4,5.2-5.4s5.2,2.3,5.2,5.4c0,3.2-1.9,5.5-5.2,5.5S1045.8,252,1045.8,248.8z
		 M1054,248.8c0-1.8-0.9-3.6-2.9-3.6c-2,0-2.9,1.9-2.9,3.6c0,1.8,0.9,3.7,2.9,3.7C1053.1,252.5,1054,250.6,1054,248.8z"/>
	<path class="st4" d="M1058.2,243.7h2.1v2h0c0.3-1.1,1.6-2.3,3-2.3c0.5,0,0.6,0,0.9,0.1v2.2c-0.3-0.1-0.7-0.1-1-0.1
		c-1.5,0-2.8,1.2-2.8,3.5v4.9h-2.3L1058.2,243.7L1058.2,243.7z"/>
	<path class="st4" d="M992.7,275.7c0,0.6,0.1,0.8,0.5,0.8h0.2c0.1,0,0.2,0,0.3,0v1.6c-0.3,0.1-1.1,0.3-1.4,0.3
		c-0.9,0-1.6-0.3-1.8-1.3c-0.9,0.9-2.4,1.3-3.6,1.3c-1.9,0-3.5-1-3.5-3c0-2.6,2.1-3,4-3.2c1.7-0.3,3.1-0.1,3.1-1.5
		c0-1.2-1.2-1.4-2.1-1.4c-1.3,0-2.2,0.5-2.3,1.6h-2.3c0.2-2.7,2.4-3.4,4.7-3.4c2,0,4.1,0.8,4.1,3L992.7,275.7L992.7,275.7z
		 M990.4,272.8c-0.7,0.5-1.8,0.4-2.8,0.6c-1,0.2-1.9,0.5-1.9,1.7c0,1,1.3,1.3,2.1,1.3c1,0,2.6-0.5,2.6-2L990.4,272.8L990.4,272.8z"
		/>
	<path class="st4" d="M995.2,267.7h2.2v1.4h0c0.6-1.2,1.9-1.7,3.2-1.7c3.3,0,4.8,2.5,4.8,5.5c0,2.8-1.4,5.4-4.5,5.4
		c-1.3,0-2.8-0.5-3.5-1.6h0v5.2h-2.3L995.2,267.7L995.2,267.7z M1000.3,269.2c-1.9,0-2.9,1.4-2.9,3.7c0,2.1,1.1,3.6,2.9,3.6
		c2.1,0,2.9-1.8,2.9-3.6C1003.2,271,1002.2,269.2,1000.3,269.2z"/>
	<path class="st4" d="M1007.4,267.7h2.2v1.4h0c0.6-1.2,1.9-1.7,3.2-1.7c3.3,0,4.8,2.5,4.8,5.5c0,2.8-1.4,5.4-4.5,5.4
		c-1.3,0-2.8-0.5-3.5-1.6h0v5.2h-2.3L1007.4,267.7L1007.4,267.7z M1012.5,269.2c-1.9,0-2.9,1.4-2.9,3.7c0,2.1,1.1,3.6,2.9,3.6
		c2.1,0,2.9-1.8,2.9-3.6C1015.4,271,1014.4,269.2,1012.5,269.2z"/>
	<path class="st4" d="M1019.6,267.7h2.1v2h0c0.3-1.1,1.6-2.3,3-2.3c0.5,0,0.6,0,0.9,0.1v2.2c-0.3-0.1-0.7-0.1-1-0.1
		c-1.5,0-2.8,1.2-2.8,3.5v4.9h-2.3L1019.6,267.7L1019.6,267.7z"/>
	<path class="st4" d="M1025.8,272.8c0-3.1,1.9-5.4,5.2-5.4s5.2,2.3,5.2,5.4c0,3.2-1.9,5.5-5.2,5.5S1025.8,276,1025.8,272.8z
		 M1034,272.8c0-1.8-0.9-3.6-2.9-3.6c-2,0-2.9,1.9-2.9,3.6c0,1.8,0.9,3.7,2.9,3.7C1033.1,276.5,1034,274.6,1034,272.8z"/>
	<path class="st4" d="M1037.1,267.7h2.5l2.6,7.9h0l2.5-7.9h2.4l-3.7,10.3h-2.6L1037.1,267.7z"/>
	<path class="st4" d="M1057.2,275.7c0,0.6,0.1,0.8,0.5,0.8h0.2c0.1,0,0.2,0,0.3,0v1.6c-0.3,0.1-1.1,0.3-1.4,0.3
		c-0.9,0-1.6-0.3-1.8-1.3c-0.9,0.9-2.4,1.3-3.6,1.3c-1.9,0-3.5-1-3.5-3c0-2.6,2.1-3,4-3.2c1.7-0.3,3.1-0.1,3.1-1.5
		c0-1.2-1.2-1.4-2.1-1.4c-1.3,0-2.2,0.5-2.3,1.6h-2.3c0.2-2.7,2.4-3.4,4.7-3.4c2,0,4.1,0.8,4.1,3L1057.2,275.7L1057.2,275.7z
		 M1054.9,272.8c-0.7,0.5-1.8,0.4-2.8,0.6c-1,0.2-1.9,0.5-1.9,1.7c0,1,1.3,1.3,2.1,1.3c1,0,2.6-0.5,2.6-2L1054.9,272.8L1054.9,272.8
		z"/>
	<path class="st4" d="M1059.7,263.7h2.3V278h-2.3V263.7z"/>
</g>
<g>
	<path class="st4" d="M1150.1,191.7h9.9v2.2h-7.4v3.7h6.5v2h-6.5v6.3h-2.5L1150.1,191.7L1150.1,191.7z"/>
	<path class="st4" d="M1170.8,206h-2.2v-1.4h0c-0.6,1-1.8,1.7-2.9,1.7c-2.7,0-3.9-1.3-3.9-4.1v-6.6h2.3v6.3c0,1.8,0.7,2.5,2,2.5
		c1.9,0,2.5-1.2,2.5-2.8v-6h2.3L1170.8,206L1170.8,206z"/>
	<path class="st4" d="M1173.2,195.7h2.2v1.5l0,0c0.7-1.1,1.9-1.8,3.2-1.8c2.3,0,3.7,1.2,3.7,3.5v7.1h-2.3v-6.5
		c-0.1-1.6-0.7-2.3-2-2.3c-1.5,0-2.5,1.2-2.5,2.7v6.1h-2.3L1173.2,195.7L1173.2,195.7z"/>
	<path class="st4" d="M1191.6,199.1c-0.2-1.3-1.1-1.9-2.4-1.9c-1.2,0-2.8,0.6-2.8,3.8c0,1.7,0.8,3.5,2.7,3.5c1.3,0,2.2-0.9,2.5-2.4
		h2.3c-0.4,2.7-2.1,4.2-4.7,4.2c-3.2,0-5-2.3-5-5.3c0-3.1,1.7-5.6,5.1-5.6c2.4,0,4.4,1.2,4.7,3.7L1191.6,199.1L1191.6,199.1z"/>
	<path class="st4" d="M1194.7,195.7h1.7v-3.1h2.3v3.1h2.1v1.7h-2.1v5.5c0,0.9,0.1,1.4,1.1,1.4c0.3,0,0.6,0,1-0.1v1.8
		c-0.5,0.1-1,0.1-1.5,0.1c-2.4,0-2.8-0.9-2.9-2.6v-6.1h-1.7L1194.7,195.7L1194.7,195.7z"/>
	<path class="st4" d="M1202.5,191.7h2.3v2.2h-2.3V191.7z M1202.5,195.7h2.3V206h-2.3V195.7z"/>
	<path class="st4" d="M1206.8,200.8c0-3.1,1.9-5.4,5.2-5.4s5.2,2.3,5.2,5.4c0,3.2-1.9,5.5-5.2,5.5S1206.8,204,1206.8,200.8z
		 M1214.9,200.8c0-1.8-0.9-3.6-2.9-3.6c-2,0-2.9,1.9-2.9,3.6c0,1.8,0.9,3.7,2.9,3.7C1214,204.5,1214.9,202.6,1214.9,200.8z"/>
	<path class="st4" d="M1219.1,195.7h2.2v1.5l0,0c0.7-1.1,1.9-1.8,3.2-1.8c2.3,0,3.7,1.2,3.7,3.5v7.1h-2.3v-6.5
		c-0.1-1.6-0.7-2.3-2-2.3c-1.5,0-2.5,1.2-2.5,2.7v6.1h-2.3L1219.1,195.7L1219.1,195.7z"/>
	<path class="st4" d="M1239.2,203.7c0,0.6,0.1,0.8,0.5,0.8h0.2c0.1,0,0.2,0,0.3,0v1.6c-0.3,0.1-1.1,0.3-1.4,0.3
		c-0.9,0-1.6-0.3-1.8-1.3c-0.9,0.9-2.4,1.3-3.6,1.3c-1.9,0-3.5-1-3.5-3c0-2.6,2.1-3,4-3.2c1.7-0.3,3.1-0.1,3.1-1.5
		c0-1.2-1.2-1.4-2.1-1.4c-1.3,0-2.2,0.5-2.3,1.6h-2.3c0.2-2.7,2.4-3.4,4.7-3.4c2,0,4.1,0.8,4.1,3L1239.2,203.7L1239.2,203.7z
		 M1237,200.8c-0.7,0.5-1.8,0.4-2.8,0.6c-1,0.2-1.9,0.5-1.9,1.7c0,1,1.3,1.3,2.1,1.3c1,0,2.6-0.5,2.6-2L1237,200.8L1237,200.8z"/>
	<path class="st4" d="M1241.8,191.7h2.3V206h-2.3V191.7z"/>
	<path class="st4" d="M1150.1,215.7h2.5v5.7h6.5v-5.7h2.5V230h-2.5v-6.4h-6.5v6.4h-2.5V215.7z"/>
	<path class="st4" d="M1166,225.4c0,1.6,0.9,3.1,2.8,3.1c1.3,0,2.1-0.6,2.5-1.7h2.2c-0.5,2.3-2.4,3.5-4.7,3.5
		c-3.3,0-5.1-2.2-5.1-5.4c0-2.9,1.9-5.5,5-5.5c3.3,0,5.3,2.9,4.9,6L1166,225.4L1166,225.4z M1171.4,223.9c-0.1-1.4-1-2.7-2.6-2.7
		c-1.6,0-2.7,1.2-2.7,2.7H1171.4z"/>
	<path class="st4" d="M1184,227.7c0,0.6,0.1,0.8,0.5,0.8h0.2c0.1,0,0.2,0,0.3,0v1.6c-0.3,0.1-1.1,0.3-1.4,0.3
		c-0.9,0-1.6-0.3-1.8-1.3c-0.9,0.9-2.4,1.3-3.6,1.3c-1.9,0-3.5-1-3.5-3c0-2.6,2.1-3,4-3.2c1.7-0.3,3.1-0.1,3.1-1.5
		c0-1.2-1.2-1.4-2.1-1.4c-1.3,0-2.2,0.5-2.3,1.6h-2.3c0.2-2.7,2.4-3.4,4.7-3.4c2,0,4.1,0.8,4.1,3L1184,227.7L1184,227.7z
		 M1181.8,224.8c-0.7,0.5-1.8,0.4-2.8,0.6c-1,0.2-1.9,0.5-1.9,1.7c0,1,1.3,1.3,2.1,1.3c1,0,2.6-0.5,2.6-2L1181.8,224.8L1181.8,224.8
		z"/>
	<path class="st4" d="M1196.2,230h-2.2v-1.4h0c-0.6,1.2-1.9,1.7-3.2,1.7c-3.3,0-4.8-2.4-4.8-5.5c0-3.8,2.2-5.4,4.5-5.4
		c1.3,0,2.7,0.5,3.4,1.6h0v-5.3h2.3L1196.2,230L1196.2,230z M1191.1,228.5c2,0,2.9-1.9,2.9-3.7c0-2.3-1.1-3.6-2.9-3.6
		c-2.1,0-2.9,1.9-2.9,3.8C1188.3,226.7,1189.2,228.5,1191.1,228.5z"/>
	<path class="st4" d="M1203.8,224.8c0-3.1,1.9-5.4,5.2-5.4s5.2,2.3,5.2,5.4c0,3.2-1.9,5.5-5.2,5.5S1203.8,228,1203.8,224.8z
		 M1212,224.8c0-1.8-0.9-3.6-2.9-3.6s-2.9,1.9-2.9,3.6c0,1.8,0.9,3.7,2.9,3.7S1212,226.6,1212,224.8z"/>
	<path class="st4" d="M1215.1,219.7h1.7v-0.9c0-2.6,1.4-3.1,2.9-3.1c0.7,0,1.3,0,1.6,0.1v1.8c-0.3-0.1-0.6-0.1-1.1-0.1
		c-0.6,0-1.1,0.2-1.1,1.1v1.1h1.9v1.7h-1.9v8.6h-2.3v-8.6h-1.7L1215.1,219.7L1215.1,219.7z"/>
	<path class="st4" d="M1150.1,239.7h3.5l3.9,11.2h0l3.8-11.2h3.5V254h-2.4v-11h0l-4,11h-2.1l-4-11h0v11h-2.4L1150.1,239.7
		L1150.1,239.7z"/>
	<path class="st4" d="M1176.3,251.7c0,0.6,0.1,0.8,0.5,0.8h0.2c0.1,0,0.2,0,0.3,0v1.6c-0.3,0.1-1.1,0.3-1.4,0.3
		c-0.9,0-1.6-0.3-1.8-1.3c-0.9,0.9-2.4,1.3-3.6,1.3c-1.9,0-3.5-1-3.5-3c0-2.6,2.1-3,4-3.2c1.7-0.3,3.1-0.1,3.1-1.5
		c0-1.2-1.2-1.4-2.1-1.4c-1.3,0-2.2,0.5-2.3,1.6h-2.3c0.2-2.7,2.4-3.4,4.7-3.4c2,0,4.1,0.8,4.1,3V251.7z M1174,248.8
		c-0.7,0.5-1.8,0.4-2.8,0.6c-1,0.2-1.9,0.5-1.9,1.7c0,1,1.3,1.3,2.1,1.3c1,0,2.6-0.5,2.6-2L1174,248.8L1174,248.8z"/>
	<path class="st4" d="M1178.7,243.7h2.1v2h0c0.3-1.1,1.6-2.3,3-2.3c0.5,0,0.6,0,0.9,0.1v2.2c-0.3-0.1-0.7-0.1-1-0.1
		c-1.5,0-2.8,1.2-2.8,3.5v4.9h-2.3L1178.7,243.7L1178.7,243.7z"/>
	<path class="st4" d="M1185.8,239.7h2.3v8.1l4.1-4.2h2.8l-4,3.8l4.3,6.5h-2.8l-3.2-5l-1.4,1.3v3.7h-2.3L1185.8,239.7L1185.8,239.7z"
		/>
	<path class="st4" d="M1198.3,249.4c0,1.6,0.9,3.1,2.8,3.1c1.3,0,2.1-0.6,2.5-1.7h2.2c-0.5,2.3-2.4,3.5-4.7,3.5
		c-3.3,0-5.1-2.2-5.1-5.4c0-2.9,1.9-5.5,5-5.5c3.3,0,5.3,2.9,4.9,6L1198.3,249.4L1198.3,249.4z M1203.6,247.9
		c-0.1-1.4-1-2.7-2.6-2.7c-1.6,0-2.7,1.2-2.7,2.7H1203.6z"/>
	<path class="st4" d="M1206.6,243.7h1.7v-3.1h2.3v3.1h2.1v1.7h-2.1v5.5c0,0.9,0.1,1.4,1.1,1.4c0.3,0,0.6,0,1-0.1v1.8
		c-0.5,0.1-1,0.1-1.5,0.1c-2.4,0-2.8-0.9-2.9-2.6v-6.1h-1.7L1206.6,243.7L1206.6,243.7z"/>
	<path class="st4" d="M1214.3,239.7h2.3v2.2h-2.3V239.7z M1214.3,243.7h2.3V254h-2.3V243.7z"/>
	<path class="st4" d="M1219.1,243.7h2.2v1.5l0,0c0.7-1.1,1.9-1.8,3.2-1.8c2.3,0,3.7,1.2,3.7,3.5v7.1h-2.3v-6.5
		c-0.1-1.6-0.7-2.3-2-2.3c-1.5,0-2.5,1.2-2.5,2.7v6.1h-2.3L1219.1,243.7L1219.1,243.7z"/>
	<path class="st4" d="M1240.1,253.5c0,3.1-1.8,4.6-5.1,4.6c-2.1,0-4.4-0.8-4.6-3.2h2.3c0.3,1.3,1.3,1.5,2.5,1.5
		c1.8,0,2.7-0.9,2.7-2.6v-1.6h0c-0.6,1.1-1.8,1.8-3.1,1.8c-3.3,0-4.6-2.5-4.6-5.4c0-2.8,1.7-5.2,4.7-5.2c1.3,0,2.5,0.5,3.1,1.7h0
		v-1.4h2.3L1240.1,253.5L1240.1,253.5z M1237.9,248.6c0-1.8-0.8-3.4-2.8-3.4c-2,0-2.7,1.9-2.7,3.6c0,1.7,0.8,3.4,2.7,3.4
		C1237.1,252.2,1237.9,250.4,1237.9,248.6z"/>
	<path class="st4" d="M1250.7,257.9c-1.6-2.6-2.9-5.4-2.9-9.2c0-3.2,1-6.4,2.9-9.2h1.9c-1.6,2.9-2.5,5.9-2.5,9.2s0.8,6.4,2.5,9.2
		H1250.7z"/>
	<path class="st4" d="M1253.1,248.8c0-3.1,1.9-5.4,5.2-5.4s5.2,2.3,5.2,5.4c0,3.2-1.9,5.5-5.2,5.5S1253.1,252,1253.1,248.8z
		 M1261.2,248.8c0-1.8-0.9-3.6-2.9-3.6s-2.9,1.9-2.9,3.6c0,1.8,0.9,3.7,2.9,3.7S1261.2,250.6,1261.2,248.8z"/>
	<path class="st4" d="M1265.4,243.7h2.1v2h0c0.3-1.1,1.6-2.3,3-2.3c0.5,0,0.6,0,0.9,0.1v2.2c-0.3-0.1-0.7-0.1-1-0.1
		c-1.5,0-2.8,1.2-2.8,3.5v4.9h-2.3L1265.4,243.7L1265.4,243.7z"/>
	<path class="st4" d="M1159.6,278h-2.2v-1.4h0c-0.6,1.2-1.9,1.7-3.2,1.7c-3.3,0-4.8-2.4-4.8-5.5c0-3.8,2.2-5.4,4.5-5.4
		c1.3,0,2.7,0.5,3.4,1.6h0v-5.3h2.3L1159.6,278L1159.6,278z M1154.5,276.5c2,0,2.9-1.9,2.9-3.7c0-2.3-1.1-3.6-2.9-3.6
		c-2.1,0-2.9,1.9-2.9,3.8C1151.6,274.7,1152.5,276.5,1154.5,276.5z"/>
	<path class="st4" d="M1163.8,273.4c0,1.6,0.9,3.1,2.8,3.1c1.3,0,2.1-0.6,2.5-1.7h2.2c-0.5,2.3-2.4,3.5-4.7,3.5
		c-3.3,0-5.1-2.2-5.1-5.4c0-2.9,1.9-5.5,5-5.5c3.3,0,5.3,2.9,4.9,6L1163.8,273.4L1163.8,273.4z M1169.1,271.9
		c-0.1-1.4-1-2.7-2.6-2.7c-1.6,0-2.7,1.2-2.7,2.7H1169.1z"/>
	<path class="st4" d="M1174.9,274.7c0.1,1.3,1.1,1.8,2.3,1.8c0.9,0,2.4-0.2,2.3-1.4c-0.1-1.2-1.7-1.3-3.4-1.7
		c-1.7-0.4-3.3-1-3.3-3.1c0-2.3,2.4-3,4.3-3c2.1,0,4.1,0.9,4.3,3.2h-2.4c-0.2-1.1-1.1-1.4-2.1-1.4c-0.7,0-1.9,0.2-1.9,1.1
		c0,1.1,1.7,1.3,3.4,1.7c1.7,0.4,3.3,1,3.3,3c0,2.5-2.5,3.4-4.6,3.4c-2.6,0-4.5-1.2-4.6-3.6L1174.9,274.7L1174.9,274.7z"/>
	<path class="st4" d="M1183.6,263.7h2.3v2.2h-2.3V263.7z M1183.6,267.7h2.3V278h-2.3V267.7z"/>
	<path class="st4" d="M1197.9,277.5c0,3.1-1.8,4.6-5.1,4.6c-2.1,0-4.4-0.8-4.6-3.2h2.3c0.3,1.3,1.3,1.5,2.5,1.5
		c1.8,0,2.7-0.9,2.7-2.6v-1.6h0c-0.6,1.1-1.8,1.8-3.1,1.8c-3.3,0-4.6-2.5-4.6-5.4c0-2.8,1.7-5.2,4.7-5.2c1.3,0,2.5,0.5,3.1,1.7h0
		v-1.4h2.3L1197.9,277.5L1197.9,277.5z M1195.6,272.6c0-1.8-0.8-3.4-2.8-3.4c-2,0-2.7,1.9-2.7,3.6c0,1.7,0.8,3.4,2.7,3.4
		C1194.9,276.2,1195.6,274.4,1195.6,272.6z"/>
	<path class="st4" d="M1200.2,267.7h2.2v1.5l0,0c0.7-1.1,1.9-1.8,3.2-1.8c2.3,0,3.7,1.2,3.7,3.5v7.1h-2.3v-6.5
		c-0.1-1.6-0.7-2.3-2-2.3c-1.5,0-2.5,1.2-2.5,2.7v6.1h-2.3V267.7z"/>
	<path class="st4" d="M1213.5,273.4c0,1.6,0.9,3.1,2.8,3.1c1.3,0,2.1-0.6,2.5-1.7h2.2c-0.5,2.3-2.4,3.5-4.7,3.5
		c-3.3,0-5.1-2.2-5.1-5.4c0-2.9,1.9-5.5,5-5.5c3.3,0,5.3,2.9,4.9,6L1213.5,273.4L1213.5,273.4z M1218.8,271.9
		c-0.1-1.4-1-2.7-2.6-2.7c-1.6,0-2.7,1.2-2.7,2.7H1218.8z"/>
	<path class="st4" d="M1224.6,273.4c0,1.6,0.9,3.1,2.8,3.1c1.3,0,2.1-0.6,2.5-1.7h2.2c-0.5,2.3-2.4,3.5-4.7,3.5
		c-3.3,0-5.1-2.2-5.1-5.4c0-2.9,1.9-5.5,5-5.5c3.3,0,5.3,2.9,4.9,6L1224.6,273.4L1224.6,273.4z M1229.9,271.9
		c-0.1-1.4-1-2.7-2.6-2.7c-1.6,0-2.7,1.2-2.7,2.7H1229.9z"/>
	<path class="st4" d="M1234.4,263.4c1.6,2.6,2.9,5.4,2.9,9.2c0,3.2-1,6.4-2.9,9.2h-1.9c1.6-2.9,2.5-5.8,2.5-9.2
		c0-3.4-0.8-6.4-2.5-9.2H1234.4z"/>
</g>
<g>
	<path class="st4" d="M1319,241.9h6.8c3.1,0,4.7,1.4,4.7,3.9c0,2.7-1.9,3.4-2.4,3.6v0c0.9,0.1,2.1,0.8,2.1,3c0,1.7,0.2,3.2,0.8,3.8
		h-2.7c-0.4-0.6-0.4-1.4-0.4-2.1c0-2.6-0.5-3.8-2.8-3.8h-3.7v5.9h-2.5L1319,241.9L1319,241.9z M1321.5,248.4h4.1
		c1.6,0,2.4-0.8,2.4-2.3c0-1.8-1.2-2.2-2.5-2.2h-4.1V248.4z"/>
	<path class="st4" d="M1334.5,251.6c0,1.6,0.9,3.1,2.8,3.1c1.3,0,2.1-0.6,2.5-1.7h2.2c-0.5,2.3-2.4,3.5-4.7,3.5
		c-3.3,0-5.1-2.2-5.1-5.4c0-2.9,1.9-5.5,5-5.5c3.3,0,5.3,2.9,4.9,6L1334.5,251.6L1334.5,251.6z M1339.9,250.1
		c-0.1-1.4-1-2.7-2.6-2.7c-1.6,0-2.7,1.2-2.7,2.7H1339.9z"/>
	<path class="st4" d="M1353.4,255.6c0,3.1-1.8,4.6-5.1,4.6c-2.1,0-4.4-0.8-4.6-3.2h2.3c0.3,1.3,1.3,1.5,2.5,1.5
		c1.8,0,2.7-0.9,2.7-2.6v-1.6h0c-0.6,1.1-1.8,1.8-3.1,1.8c-3.3,0-4.6-2.5-4.6-5.4c0-2.8,1.7-5.2,4.7-5.2c1.3,0,2.5,0.5,3.1,1.7h0
		v-1.4h2.3L1353.4,255.6L1353.4,255.6z M1351.2,250.8c0-1.8-0.8-3.4-2.8-3.4c-2,0-2.7,1.9-2.7,3.6c0,1.7,0.8,3.4,2.7,3.4
		C1350.4,254.4,1351.2,252.6,1351.2,250.8z"/>
	<path class="st4" d="M1364.8,256.2h-2.2v-1.4h0c-0.6,1-1.8,1.7-2.9,1.7c-2.7,0-3.9-1.3-3.9-4.1v-6.6h2.3v6.3c0,1.8,0.7,2.5,2,2.5
		c1.9,0,2.5-1.2,2.5-2.8v-6h2.3L1364.8,256.2L1364.8,256.2z"/>
	<path class="st4" d="M1367.3,241.9h2.3v14.3h-2.3V241.9z"/>
	<path class="st4" d="M1380.7,253.9c0,0.6,0.1,0.8,0.5,0.8h0.2c0.1,0,0.2,0,0.3,0v1.6c-0.3,0.1-1.1,0.3-1.4,0.3
		c-0.9,0-1.6-0.3-1.8-1.3c-0.9,0.9-2.4,1.3-3.6,1.3c-1.9,0-3.5-1-3.5-3c0-2.6,2.1-3,4-3.2c1.7-0.3,3.1-0.1,3.1-1.5
		c0-1.2-1.2-1.4-2.1-1.4c-1.3,0-2.2,0.5-2.3,1.6h-2.3c0.2-2.7,2.4-3.4,4.7-3.4c2,0,4.1,0.8,4.1,3V253.9z M1378.4,251
		c-0.7,0.5-1.8,0.4-2.8,0.6c-1,0.2-1.9,0.5-1.9,1.7c0,1,1.3,1.3,2.1,1.3c1,0,2.6-0.5,2.6-2L1378.4,251L1378.4,251z"/>
	<path class="st4" d="M1382.1,245.8h1.7v-3.1h2.3v3.1h2.1v1.7h-2.1v5.5c0,0.9,0.1,1.4,1.1,1.4c0.3,0,0.6,0,1-0.1v1.8
		c-0.5,0.1-1,0.1-1.5,0.1c-2.4,0-2.8-0.9-2.9-2.6v-6.1h-1.7L1382.1,245.8L1382.1,245.8z"/>
	<path class="st4" d="M1389.3,251c0-3.1,1.9-5.4,5.2-5.4s5.2,2.3,5.2,5.4c0,3.2-1.9,5.5-5.2,5.5S1389.3,254.2,1389.3,251z
		 M1397.5,251c0-1.8-0.9-3.6-2.9-3.6s-2.9,1.9-2.9,3.6c0,1.8,0.9,3.7,2.9,3.7S1397.5,252.8,1397.5,251z"/>
	<path class="st4" d="M1401.7,245.8h2.1v2h0c0.3-1.1,1.6-2.3,3-2.3c0.5,0,0.6,0,0.9,0.1v2.2c-0.3-0.1-0.7-0.1-1-0.1
		c-1.5,0-2.8,1.2-2.8,3.5v4.9h-2.3L1401.7,245.8L1401.7,245.8z"/>
	<path class="st4" d="M1407.6,245.8h2.5l2.7,7.7h0l2.6-7.7h2.4l-4,10.9c-0.7,1.9-1.3,3.5-3.7,3.5c-0.5,0-1.1,0-1.6-0.1v-1.9
		c0.4,0.1,0.7,0.1,1.1,0.1c1,0,1.3-0.6,1.6-1.4l0.3-0.8L1407.6,245.8z"/>
	<path class="st4" d="M1322.8,265.9h2.7l5.5,14.3h-2.7l-1.3-3.8h-5.7l-1.3,3.8h-2.6L1322.8,265.9z M1321.9,274.5h4.4l-2.1-6.1h-0.1
		L1321.9,274.5z"/>
	<path class="st4" d="M1331,269.8h1.7V269c0-2.6,1.4-3.1,2.9-3.1c0.7,0,1.3,0,1.6,0.1v1.8c-0.3-0.1-0.6-0.1-1.1-0.1
		c-0.6,0-1.1,0.2-1.1,1.1v1.1h1.9v1.7h-1.9v8.6h-2.3v-8.6h-1.7L1331,269.8L1331,269.8z"/>
	<path class="st4" d="M1336.9,269.8h1.7V269c0-2.6,1.4-3.1,2.9-3.1c0.7,0,1.3,0,1.6,0.1v1.8c-0.3-0.1-0.6-0.1-1.1-0.1
		c-0.6,0-1.1,0.2-1.1,1.1v1.1h1.9v1.7h-1.9v8.6h-2.3v-8.6h-1.7L1336.9,269.8L1336.9,269.8z"/>
	<path class="st4" d="M1352.9,277.9c0,0.6,0.1,0.8,0.5,0.8h0.2c0.1,0,0.2,0,0.3,0v1.6c-0.3,0.1-1.1,0.3-1.4,0.3
		c-0.9,0-1.6-0.3-1.8-1.3c-0.9,0.9-2.4,1.3-3.6,1.3c-1.9,0-3.5-1-3.5-3c0-2.6,2.1-3,4-3.2c1.7-0.3,3.1-0.1,3.1-1.5
		c0-1.2-1.2-1.4-2.1-1.4c-1.3,0-2.2,0.5-2.3,1.6h-2.3c0.2-2.7,2.4-3.4,4.7-3.4c2,0,4.1,0.8,4.1,3L1352.9,277.9L1352.9,277.9z
		 M1350.6,275c-0.7,0.5-1.8,0.4-2.8,0.6c-1,0.2-1.9,0.5-1.9,1.7c0,1,1.3,1.3,2.1,1.3c1,0,2.6-0.5,2.6-2L1350.6,275L1350.6,275z"/>
	<path class="st4" d="M1355.4,265.9h2.3v2.2h-2.3V265.9z M1355.4,269.8h2.3v10.3h-2.3V269.8z"/>
	<path class="st4" d="M1360.2,269.8h2.1v2h0c0.3-1.1,1.6-2.3,3-2.3c0.5,0,0.6,0,0.9,0.1v2.2c-0.3-0.1-0.7-0.1-1-0.1
		c-1.5,0-2.8,1.2-2.8,3.5v4.9h-2.3L1360.2,269.8L1360.2,269.8z"/>
	<path class="st4" d="M1368.9,276.9c0.1,1.3,1.1,1.8,2.3,1.8c0.9,0,2.4-0.2,2.3-1.4c-0.1-1.2-1.7-1.3-3.4-1.7
		c-1.7-0.4-3.3-1-3.3-3.1c0-2.3,2.4-3,4.3-3c2.1,0,4.1,0.9,4.3,3.2h-2.4c-0.2-1.1-1.1-1.4-2.1-1.4c-0.7,0-1.9,0.2-1.9,1.1
		c0,1.1,1.7,1.3,3.4,1.7c1.7,0.4,3.3,1,3.3,3c0,2.5-2.5,3.4-4.6,3.4c-2.6,0-4.5-1.2-4.6-3.6L1368.9,276.9L1368.9,276.9z"/>
</g>
<g>
	<path class="st4" d="M1481.7,261.3h2.5v12.1h7.3v2.2h-9.8V261.3z"/>
	<path class="st4" d="M1494.6,271c0,1.6,0.9,3.1,2.8,3.1c1.3,0,2.1-0.6,2.5-1.7h2.2c-0.5,2.3-2.4,3.5-4.7,3.5
		c-3.3,0-5.1-2.2-5.1-5.4c0-2.9,1.9-5.5,5-5.5c3.3,0,5.3,2.9,4.9,6L1494.6,271L1494.6,271z M1500,269.5c-0.1-1.4-1-2.7-2.6-2.7
		c-1.6,0-2.7,1.2-2.7,2.7H1500z"/>
	<path class="st4" d="M1513.5,275.1c0,3.1-1.8,4.6-5.1,4.6c-2.1,0-4.4-0.8-4.6-3.2h2.3c0.3,1.3,1.3,1.5,2.5,1.5
		c1.8,0,2.7-0.9,2.7-2.6v-1.6h0c-0.6,1.1-1.8,1.8-3.1,1.8c-3.3,0-4.6-2.5-4.6-5.4c0-2.8,1.7-5.2,4.7-5.2c1.3,0,2.5,0.5,3.1,1.7h0
		v-1.4h2.3L1513.5,275.1L1513.5,275.1z M1511.3,270.2c0-1.8-0.8-3.4-2.8-3.4c-2,0-2.7,1.9-2.7,3.6c0,1.7,0.8,3.4,2.7,3.4
		C1510.5,273.8,1511.3,272,1511.3,270.2z"/>
	<path class="st4" d="M1524.5,273.3c0,0.6,0.1,0.8,0.5,0.8h0.2c0.1,0,0.2,0,0.3,0v1.6c-0.3,0.1-1.1,0.3-1.4,0.3
		c-0.9,0-1.6-0.3-1.8-1.3c-0.9,0.9-2.4,1.3-3.6,1.3c-1.9,0-3.5-1-3.5-3c0-2.6,2.1-3,4-3.2c1.7-0.3,3.1-0.1,3.1-1.5
		c0-1.2-1.2-1.4-2.1-1.4c-1.3,0-2.2,0.5-2.3,1.6h-2.3c0.2-2.7,2.4-3.4,4.7-3.4c2,0,4.1,0.8,4.1,3L1524.5,273.3L1524.5,273.3z
		 M1522.2,270.4c-0.7,0.5-1.8,0.4-2.8,0.6c-1,0.2-1.9,0.5-1.9,1.7c0,1,1.3,1.3,2.1,1.3c1,0,2.6-0.5,2.6-2L1522.2,270.4L1522.2,270.4
		z"/>
	<path class="st4" d="M1527,261.3h2.3v14.3h-2.3V261.3z"/>
</g>
<g>
	<path class="st4" d="M1647.5,241.9h5.9c4.4,0,6.3,3.2,6.3,7.1s-1.9,7.1-6.3,7.1h-5.9V241.9z M1650,254.1h2.5c3.9,0,4.8-2.2,4.8-5.1
		c0-2.9-0.8-5.1-4.8-5.1h-2.5V254.1z"/>
	<path class="st4" d="M1670.3,253.9c0,0.6,0.1,0.8,0.5,0.8h0.2c0.1,0,0.2,0,0.3,0v1.6c-0.3,0.1-1.1,0.3-1.4,0.3
		c-0.9,0-1.6-0.3-1.8-1.3c-0.9,0.9-2.4,1.3-3.6,1.3c-1.9,0-3.5-1-3.5-3c0-2.6,2.1-3,4-3.2c1.7-0.3,3.1-0.1,3.1-1.5
		c0-1.2-1.2-1.4-2.1-1.4c-1.3,0-2.2,0.5-2.3,1.6h-2.3c0.2-2.7,2.4-3.4,4.7-3.4c2,0,4.1,0.8,4.1,3V253.9z M1668,251
		c-0.7,0.5-1.8,0.4-2.8,0.6c-1,0.2-1.9,0.5-1.9,1.7c0,1,1.3,1.3,2.1,1.3c1,0,2.6-0.5,2.6-2L1668,251L1668,251z"/>
	<path class="st4" d="M1671.7,245.8h1.7v-3.1h2.3v3.1h2.1v1.7h-2.1v5.5c0,0.9,0.1,1.4,1.1,1.4c0.3,0,0.6,0,1-0.1v1.8
		c-0.5,0.1-1,0.1-1.5,0.1c-2.4,0-2.8-0.9-2.9-2.6v-6.1h-1.7L1671.7,245.8L1671.7,245.8z"/>
	<path class="st4" d="M1681.2,251.6c0,1.6,0.9,3.1,2.8,3.1c1.3,0,2.1-0.6,2.5-1.7h2.2c-0.5,2.3-2.4,3.5-4.7,3.5
		c-3.3,0-5.1-2.2-5.1-5.4c0-2.9,1.9-5.5,5-5.5c3.3,0,5.3,2.9,4.9,6L1681.2,251.6L1681.2,251.6z M1686.5,250.1
		c-0.1-1.4-1-2.7-2.6-2.7c-1.6,0-2.7,1.2-2.7,2.7H1686.5z"/>
	<path class="st4" d="M1695.6,251c0-3.1,1.9-5.4,5.2-5.4s5.2,2.3,5.2,5.4c0,3.2-1.9,5.5-5.2,5.5S1695.6,254.2,1695.6,251z
		 M1703.7,251c0-1.8-0.9-3.6-2.9-3.6c-2,0-2.9,1.9-2.9,3.6c0,1.8,0.9,3.7,2.9,3.7C1702.8,254.7,1703.7,252.8,1703.7,251z"/>
	<path class="st4" d="M1706.9,245.8h1.7V245c0-2.6,1.4-3.1,2.9-3.1c0.7,0,1.3,0,1.6,0.1v1.8c-0.3-0.1-0.6-0.1-1.1-0.1
		c-0.6,0-1.1,0.2-1.1,1.1v1.1h1.9v1.7h-1.9v8.6h-2.3v-8.6h-1.7L1706.9,245.8L1706.9,245.8z"/>
	<path class="st4" d="M1647.5,265.9h5.9c4.4,0,6.3,3.2,6.3,7.1s-1.9,7.1-6.3,7.1h-5.9V265.9z M1650,278.1h2.5c3.9,0,4.8-2.2,4.8-5.1
		c0-2.9-0.8-5.1-4.8-5.1h-2.5V278.1z"/>
	<path class="st4" d="M1661.7,265.9h2.3v2.2h-2.3V265.9z M1661.7,269.8h2.3v10.3h-2.3V269.8z"/>
	<path class="st4" d="M1668.1,276.9c0.1,1.3,1.1,1.8,2.3,1.8c0.9,0,2.4-0.2,2.3-1.4c-0.1-1.2-1.7-1.3-3.4-1.7
		c-1.7-0.4-3.3-1-3.3-3.1c0-2.3,2.4-3,4.3-3c2.1,0,4.1,0.9,4.3,3.2h-2.4c-0.2-1.1-1.1-1.4-2.1-1.4c-0.7,0-1.9,0.2-1.9,1.1
		c0,1.1,1.7,1.3,3.4,1.7c1.7,0.4,3.3,1,3.3,3c0,2.5-2.5,3.4-4.6,3.4c-2.6,0-4.5-1.2-4.6-3.6L1668.1,276.9L1668.1,276.9z"/>
	<path class="st4" d="M1675.8,269.8h1.7v-3.1h2.3v3.1h2.1v1.7h-2.1v5.5c0,0.9,0.1,1.4,1.1,1.4c0.3,0,0.6,0,1-0.1v1.8
		c-0.5,0.1-1,0.1-1.5,0.1c-2.4,0-2.8-0.9-2.9-2.6v-6.1h-1.7L1675.8,269.8L1675.8,269.8z"/>
	<path class="st4" d="M1683.5,269.8h2.1v2h0c0.3-1.1,1.6-2.3,3-2.3c0.5,0,0.6,0,0.9,0.1v2.2c-0.3-0.1-0.7-0.1-1-0.1
		c-1.5,0-2.8,1.2-2.8,3.5v4.9h-2.3L1683.5,269.8L1683.5,269.8z"/>
	<path class="st4" d="M1690.6,265.9h2.3v2.2h-2.3V265.9z M1690.6,269.8h2.3v10.3h-2.3V269.8z"/>
	<path class="st4" d="M1695.4,265.9h2.3v5.3h0c0.6-1,1.9-1.6,3.1-1.6c3.3,0,4.8,2.5,4.8,5.5c0,2.8-1.4,5.4-4.5,5.4
		c-1.4,0-2.9-0.3-3.6-1.7h0v1.4h-2.2L1695.4,265.9L1695.4,265.9z M1700.5,271.4c-1.9,0-2.9,1.4-2.9,3.7c0,2.1,1.1,3.6,2.9,3.6
		c2.1,0,2.9-1.8,2.9-3.6C1703.3,273.2,1702.4,271.4,1700.5,271.4z"/>
	<path class="st4" d="M1716.6,280.2h-2.2v-1.4h0c-0.6,1-1.8,1.7-2.9,1.7c-2.7,0-3.9-1.3-3.9-4.1v-6.6h2.3v6.3c0,1.8,0.7,2.5,2,2.5
		c1.9,0,2.5-1.2,2.5-2.8v-6h2.3L1716.6,280.2L1716.6,280.2z"/>
	<path class="st4" d="M1718,269.8h1.7v-3.1h2.3v3.1h2.1v1.7h-2.1v5.5c0,0.9,0.1,1.4,1.1,1.4c0.3,0,0.6,0,1-0.1v1.8
		c-0.5,0.1-1,0.1-1.5,0.1c-2.4,0-2.8-0.9-2.9-2.6v-6.1h-1.7L1718,269.8L1718,269.8z"/>
	<path class="st4" d="M1725.7,265.9h2.3v2.2h-2.3V265.9z M1725.7,269.8h2.3v10.3h-2.3V269.8z"/>
	<path class="st4" d="M1730,275c0-3.1,1.9-5.4,5.2-5.4s5.2,2.3,5.2,5.4c0,3.2-1.9,5.5-5.2,5.5S1730,278.2,1730,275z M1738.2,275
		c0-1.8-0.9-3.6-2.9-3.6c-2,0-2.9,1.9-2.9,3.6c0,1.8,0.9,3.7,2.9,3.7C1737.3,278.7,1738.2,276.8,1738.2,275z"/>
	<path class="st4" d="M1742.4,269.8h2.2v1.5l0,0c0.7-1.1,1.9-1.8,3.2-1.8c2.3,0,3.7,1.2,3.7,3.5v7.1h-2.3v-6.5
		c-0.1-1.6-0.7-2.3-2-2.3c-1.5,0-2.5,1.2-2.5,2.7v6.1h-2.3V269.8z"/>
</g>
<g>
	<path class="st4" d="M1816.3,216.3h5.9c4.4,0,6.3,3.2,6.3,7.1s-1.9,7.1-6.3,7.1h-5.9V216.3z M1818.8,228.5h2.5
		c3.9,0,4.8-2.2,4.8-5.1c0-2.9-0.8-5.1-4.8-5.1h-2.5V228.5z"/>
	<path class="st4" d="M1839.1,228.3c0,0.6,0.1,0.8,0.5,0.8h0.2c0.1,0,0.2,0,0.3,0v1.6c-0.3,0.1-1.1,0.3-1.4,0.3
		c-0.9,0-1.6-0.3-1.8-1.3c-0.9,0.9-2.4,1.3-3.6,1.3c-1.9,0-3.5-1-3.5-3c0-2.6,2.1-3,4-3.2c1.7-0.3,3.1-0.1,3.1-1.5
		c0-1.2-1.2-1.4-2.1-1.4c-1.3,0-2.2,0.5-2.3,1.6h-2.3c0.2-2.7,2.4-3.4,4.7-3.4c2,0,4.1,0.8,4.1,3V228.3z M1836.8,225.4
		c-0.7,0.5-1.8,0.4-2.8,0.6c-1,0.2-1.9,0.5-1.9,1.7c0,1,1.3,1.3,2.1,1.3c1,0,2.6-0.5,2.6-2L1836.8,225.4L1836.8,225.4z"/>
	<path class="st4" d="M1840.5,220.2h1.7v-3.1h2.3v3.1h2.1v1.7h-2.1v5.5c0,0.9,0.1,1.4,1.1,1.4c0.3,0,0.6,0,1-0.1v1.8
		c-0.5,0.1-1,0.1-1.5,0.1c-2.4,0-2.8-0.9-2.9-2.6v-6.1h-1.7L1840.5,220.2L1840.5,220.2z"/>
	<path class="st4" d="M1850,226c0,1.6,0.9,3.1,2.8,3.1c1.3,0,2.1-0.6,2.5-1.7h2.2c-0.5,2.3-2.4,3.5-4.7,3.5c-3.3,0-5.1-2.2-5.1-5.4
		c0-2.9,1.9-5.5,5-5.5c3.3,0,5.3,2.9,4.9,6L1850,226L1850,226z M1855.3,224.5c-0.1-1.4-1-2.7-2.6-2.7c-1.6,0-2.7,1.2-2.7,2.7H1855.3
		z"/>
	<path class="st4" d="M1864.4,225.4c0-3.1,1.9-5.4,5.2-5.4s5.2,2.3,5.2,5.4c0,3.2-1.9,5.5-5.2,5.5S1864.4,228.6,1864.4,225.4z
		 M1872.6,225.4c0-1.8-0.9-3.6-2.9-3.6c-2,0-2.9,1.9-2.9,3.6c0,1.8,0.9,3.7,2.9,3.7C1871.7,229.1,1872.6,227.2,1872.6,225.4z"/>
	<path class="st4" d="M1875.7,220.2h1.7v-0.9c0-2.6,1.4-3.1,2.9-3.1c0.7,0,1.3,0,1.6,0.1v1.8c-0.3-0.1-0.6-0.1-1.1-0.1
		c-0.6,0-1.1,0.2-1.1,1.1v1.1h1.9v1.7h-1.9v8.6h-2.3v-8.6h-1.7L1875.7,220.2L1875.7,220.2z"/>
	<path class="st4" d="M1823,247.7c-0.2-1.3-1.1-1.9-2.4-1.9c-1.2,0-2.8,0.6-2.8,3.8c0,1.7,0.8,3.5,2.7,3.5c1.3,0,2.2-0.9,2.5-2.4
		h2.3c-0.4,2.7-2.1,4.2-4.7,4.2c-3.2,0-5-2.3-5-5.3c0-3.1,1.7-5.6,5.1-5.6c2.4,0,4.4,1.2,4.7,3.7L1823,247.7L1823,247.7z"/>
	<path class="st4" d="M1827.2,240.3h2.3v14.3h-2.3V240.3z"/>
	<path class="st4" d="M1840.6,252.3c0,0.6,0.1,0.8,0.5,0.8h0.2c0.1,0,0.2,0,0.3,0v1.6c-0.3,0.1-1.1,0.3-1.4,0.3
		c-0.9,0-1.6-0.3-1.8-1.3c-0.9,0.9-2.4,1.3-3.6,1.3c-1.9,0-3.5-1-3.5-3c0-2.6,2.1-3,4-3.2c1.7-0.3,3.1-0.1,3.1-1.5
		c0-1.2-1.2-1.4-2.1-1.4c-1.3,0-2.2,0.5-2.3,1.6h-2.3c0.2-2.7,2.4-3.4,4.7-3.4c2,0,4.1,0.8,4.1,3V252.3z M1838.3,249.4
		c-0.7,0.5-1.8,0.4-2.8,0.6c-1,0.2-1.9,0.5-1.9,1.7c0,1,1.3,1.3,2.1,1.3c1,0,2.6-0.5,2.6-2L1838.3,249.4L1838.3,249.4z"/>
	<path class="st4" d="M1844.8,251.3c0.1,1.3,1.1,1.8,2.3,1.8c0.9,0,2.4-0.2,2.3-1.4c-0.1-1.2-1.7-1.3-3.4-1.7
		c-1.7-0.4-3.3-1-3.3-3.1c0-2.3,2.4-3,4.3-3c2.1,0,4.1,0.9,4.3,3.2h-2.4c-0.2-1.1-1.1-1.4-2.1-1.4c-0.7,0-1.9,0.2-1.9,1.1
		c0,1.1,1.7,1.3,3.4,1.7c1.7,0.4,3.3,1,3.3,3c0,2.5-2.5,3.4-4.6,3.4c-2.6,0-4.5-1.2-4.6-3.6L1844.8,251.3L1844.8,251.3z"/>
	<path class="st4" d="M1855.2,251.3c0.1,1.3,1.1,1.8,2.3,1.8c0.9,0,2.4-0.2,2.3-1.4c-0.1-1.2-1.7-1.3-3.4-1.7
		c-1.7-0.4-3.3-1-3.3-3.1c0-2.3,2.4-3,4.3-3c2.1,0,4.1,0.9,4.3,3.2h-2.4c-0.2-1.1-1.1-1.4-2.1-1.4c-0.7,0-1.9,0.2-1.9,1.1
		c0,1.1,1.7,1.3,3.4,1.7c1.7,0.4,3.3,1,3.3,3c0,2.5-2.5,3.4-4.6,3.4c-2.6,0-4.5-1.2-4.6-3.6L1855.2,251.3L1855.2,251.3z"/>
	<path class="st4" d="M1863.9,240.3h2.3v2.2h-2.3V240.3z M1863.9,244.2h2.3v10.3h-2.3V244.2z"/>
	<path class="st4" d="M1867.6,244.2h1.7v-0.9c0-2.6,1.4-3.1,2.9-3.1c0.7,0,1.3,0,1.6,0.1v1.8c-0.3-0.1-0.6-0.1-1.1-0.1
		c-0.6,0-1.1,0.2-1.1,1.1v1.1h1.9v1.7h-1.9v8.6h-2.3v-8.6h-1.7L1867.6,244.2L1867.6,244.2z M1875,240.3h2.3v2.2h-2.3V240.3z
		 M1875,244.2h2.3v10.3h-2.3V244.2z"/>
	<path class="st4" d="M1886.8,247.7c-0.2-1.3-1.1-1.9-2.4-1.9c-1.2,0-2.8,0.6-2.8,3.8c0,1.7,0.8,3.5,2.7,3.5c1.3,0,2.2-0.9,2.5-2.4
		h2.3c-0.4,2.7-2.1,4.2-4.7,4.2c-3.2,0-5-2.3-5-5.3c0-3.1,1.7-5.6,5.1-5.6c2.4,0,4.4,1.2,4.7,3.7L1886.8,247.7L1886.8,247.7z"/>
	<path class="st4" d="M1899.6,252.3c0,0.6,0.1,0.8,0.5,0.8h0.2c0.1,0,0.2,0,0.3,0v1.6c-0.3,0.1-1.1,0.3-1.4,0.3
		c-0.9,0-1.6-0.3-1.8-1.3c-0.9,0.9-2.4,1.3-3.6,1.3c-1.9,0-3.5-1-3.5-3c0-2.6,2.1-3,4-3.2c1.7-0.3,3.1-0.1,3.1-1.5
		c0-1.2-1.2-1.4-2.1-1.4c-1.3,0-2.2,0.5-2.3,1.6h-2.3c0.2-2.7,2.4-3.4,4.7-3.4c2,0,4.1,0.8,4.1,3L1899.6,252.3L1899.6,252.3z
		 M1897.3,249.4c-0.7,0.5-1.8,0.4-2.8,0.6c-1,0.2-1.9,0.5-1.9,1.7c0,1,1.3,1.3,2.1,1.3c1,0,2.6-0.5,2.6-2L1897.3,249.4L1897.3,249.4
		z"/>
	<path class="st4" d="M1901,244.2h1.7v-3.1h2.3v3.1h2.1v1.7h-2.1v5.5c0,0.9,0.1,1.4,1.1,1.4c0.3,0,0.6,0,1-0.1v1.8
		c-0.5,0.1-1,0.1-1.5,0.1c-2.4,0-2.8-0.9-2.9-2.6v-6.1h-1.7L1901,244.2L1901,244.2z"/>
	<path class="st4" d="M1908.7,240.3h2.3v2.2h-2.3V240.3z M1908.7,244.2h2.3v10.3h-2.3V244.2z"/>
	<path class="st4" d="M1913,249.4c0-3.1,1.9-5.4,5.2-5.4s5.2,2.3,5.2,5.4c0,3.2-1.9,5.5-5.2,5.5S1913,252.6,1913,249.4z
		 M1921.2,249.4c0-1.8-0.9-3.6-2.9-3.6s-2.9,1.9-2.9,3.6c0,1.8,0.9,3.7,2.9,3.7S1921.2,251.2,1921.2,249.4z"/>
	<path class="st4" d="M1925.3,244.2h2.2v1.5l0,0c0.7-1.1,1.9-1.8,3.2-1.8c2.3,0,3.7,1.2,3.7,3.5v7.1h-2.3v-6.5
		c-0.1-1.6-0.7-2.3-2-2.3c-1.5,0-2.5,1.2-2.5,2.7v6.1h-2.3L1925.3,244.2L1925.3,244.2z"/>
	<path class="st4" d="M1951.1,252.3c0,0.6,0.1,0.8,0.5,0.8h0.2c0.1,0,0.2,0,0.3,0v1.6c-0.3,0.1-1.1,0.3-1.4,0.3
		c-0.9,0-1.6-0.3-1.8-1.3c-0.9,0.9-2.4,1.3-3.6,1.3c-1.9,0-3.5-1-3.5-3c0-2.6,2.1-3,4-3.2c1.7-0.3,3.1-0.1,3.1-1.5
		c0-1.2-1.2-1.4-2.1-1.4c-1.3,0-2.2,0.5-2.3,1.6h-2.3c0.2-2.7,2.4-3.4,4.7-3.4c2,0,4.1,0.8,4.1,3V252.3z M1948.8,249.4
		c-0.7,0.5-1.8,0.4-2.8,0.6c-1,0.2-1.9,0.5-1.9,1.7c0,1,1.3,1.3,2.1,1.3c1,0,2.6-0.5,2.6-2L1948.8,249.4L1948.8,249.4z"/>
	<path class="st4" d="M1955.2,251.3c0.1,1.3,1.1,1.8,2.3,1.8c0.9,0,2.4-0.2,2.3-1.4c-0.1-1.2-1.7-1.3-3.4-1.7
		c-1.7-0.4-3.3-1-3.3-3.1c0-2.3,2.4-3,4.3-3c2.1,0,4.1,0.9,4.3,3.2h-2.4c-0.2-1.1-1.1-1.4-2.1-1.4c-0.7,0-1.9,0.2-1.9,1.1
		c0,1.1,1.7,1.3,3.4,1.7c1.7,0.4,3.3,1,3.3,3c0,2.5-2.5,3.4-4.6,3.4c-2.6,0-4.5-1.2-4.6-3.6L1955.2,251.3L1955.2,251.3z"/>
	<path class="st4" d="M1815.5,273.4c0-3.1,1.9-5.4,5.2-5.4s5.2,2.3,5.2,5.4c0,3.2-1.9,5.5-5.2,5.5S1815.5,276.6,1815.5,273.4z
		 M1823.7,273.4c0-1.8-0.9-3.6-2.9-3.6s-2.9,1.9-2.9,3.6c0,1.8,0.9,3.7,2.9,3.7S1823.7,275.2,1823.7,273.4z"/>
	<path class="st4" d="M1827.9,264.3h2.3v5.3h0c0.6-1,1.9-1.6,3.1-1.6c3.3,0,4.8,2.5,4.8,5.5c0,2.8-1.4,5.4-4.5,5.4
		c-1.4,0-2.9-0.3-3.6-1.7h0v1.4h-2.2V264.3z M1833,269.8c-1.9,0-2.9,1.4-2.9,3.7c0,2.1,1.1,3.6,2.9,3.6c2.1,0,2.9-1.8,2.9-3.6
		C1835.9,271.6,1834.9,269.8,1833,269.8z"/>
	<path class="st4" d="M1841.8,275.3c0.1,1.3,1.1,1.8,2.3,1.8c0.9,0,2.4-0.2,2.3-1.4c-0.1-1.2-1.7-1.3-3.4-1.7
		c-1.7-0.4-3.3-1-3.3-3.1c0-2.3,2.4-3,4.3-3c2.1,0,4.1,0.9,4.3,3.2h-2.4c-0.2-1.1-1.1-1.4-2.1-1.4c-0.7,0-1.9,0.2-1.9,1.1
		c0,1.1,1.7,1.3,3.4,1.7c1.7,0.4,3.3,1,3.3,3c0,2.5-2.5,3.4-4.6,3.4c-2.6,0-4.5-1.2-4.6-3.6L1841.8,275.3L1841.8,275.3z"/>
	<path class="st4" d="M1850,273.4c0-3.1,1.9-5.4,5.2-5.4s5.2,2.3,5.2,5.4c0,3.2-1.9,5.5-5.2,5.5S1850,276.6,1850,273.4z
		 M1858.2,273.4c0-1.8-0.9-3.6-2.9-3.6c-2,0-2.9,1.9-2.9,3.6c0,1.8,0.9,3.7,2.9,3.7C1857.2,277.1,1858.2,275.2,1858.2,273.4z"/>
	<path class="st4" d="M1862.4,264.3h2.3v14.3h-2.3V264.3z"/>
	<path class="st4" d="M1868.9,274c0,1.6,0.9,3.1,2.8,3.1c1.3,0,2.1-0.6,2.5-1.7h2.2c-0.5,2.3-2.4,3.5-4.7,3.5
		c-3.3,0-5.1-2.2-5.1-5.4c0-2.9,1.9-5.5,5-5.5c3.3,0,5.3,2.9,4.9,6L1868.9,274L1868.9,274z M1874.2,272.5c-0.1-1.4-1-2.7-2.6-2.7
		c-1.6,0-2.7,1.2-2.7,2.7H1874.2z"/>
	<path class="st4" d="M1877.2,268.2h1.7v-3.1h2.3v3.1h2.1v1.7h-2.1v5.5c0,0.9,0.1,1.4,1.1,1.4c0.3,0,0.6,0,1-0.1v1.8
		c-0.5,0.1-1,0.1-1.5,0.1c-2.4,0-2.8-0.9-2.9-2.6v-6.1h-1.7L1877.2,268.2L1877.2,268.2z"/>
	<path class="st4" d="M1886.7,274c0,1.6,0.9,3.1,2.8,3.1c1.3,0,2.1-0.6,2.5-1.7h2.2c-0.5,2.3-2.4,3.5-4.7,3.5
		c-3.3,0-5.1-2.2-5.1-5.4c0-2.9,1.9-5.5,5-5.5c3.3,0,5.3,2.9,4.9,6L1886.7,274L1886.7,274z M1892,272.5c-0.1-1.4-1-2.7-2.6-2.7
		c-1.6,0-2.7,1.2-2.7,2.7H1892z"/>
</g>
<rect x="130.4" y="174.4" class="st5" width="1843" height="722.5"/>
<line class="st5" x1="297.2" y1="174.4" x2="297.2" y2="896.8"/>
<line class="st5" x1="463.9" y1="174.4" x2="463.9" y2="896.8"/>
<line class="st5" x1="633.9" y1="174.4" x2="633.9" y2="896.8"/>
<line class="st5" x1="800.7" y1="174.4" x2="800.7" y2="896.8"/>
<line class="st5" x1="969.5" y1="174.4" x2="969.5" y2="896.8"/>
<line class="st5" x1="1133.3" y1="174.4" x2="1133.3" y2="896.8"/>
<line class="st5" x1="1304.2" y1="174.4" x2="1304.2" y2="896.8"/>
<line class="st5" x1="1468.9" y1="174.4" x2="1468.9" y2="896.8"/>
<line class="st5" x1="1638.8" y1="174.4" x2="1638.8" y2="896.8"/>
<line class="st5" x1="1803.6" y1="174.4" x2="1803.6" y2="896.8"/>
<line class="st5" x1="130.4" y1="447.6" x2="1973.4" y2="447.6"/>
<line class="st5" x1="130.4" y1="487.6" x2="1973.4" y2="487.6"/>
<line class="st5" x1="130.4" y1="487.6" x2="1973.4" y2="487.6"/>
<line class="st5" x1="130.4" y1="527.6" x2="1973.4" y2="527.6"/>
<line class="st5" x1="130.4" y1="527.6" x2="1973.4" y2="527.6"/>
<line class="st5" x1="130.4" y1="567.6" x2="1973.4" y2="567.6"/>
<line class="st5" x1="130.4" y1="567.6" x2="1973.4" y2="567.6"/>
<line class="st5" x1="130.4" y1="607.6" x2="1973.4" y2="607.6"/>
<line class="st5" x1="130.4" y1="607.6" x2="1973.4" y2="607.6"/>
<line class="st5" x1="130.4" y1="647.6" x2="1973.4" y2="647.6"/>
<line class="st5" x1="130.4" y1="647.6" x2="1973.4" y2="647.6"/>
<line class="st5" x1="130.4" y1="687.6" x2="1973.4" y2="687.6"/>
<line class="st5" x1="130.4" y1="687.6" x2="1973.4" y2="687.6"/>
<line class="st5" x1="130.4" y1="727.6" x2="1973.4" y2="727.6"/>
<line class="st5" x1="130.4" y1="727.6" x2="1973.4" y2="727.6"/>
<line class="st5" x1="130.4" y1="767.6" x2="1973.4" y2="767.6"/>
<line class="st5" x1="130.4" y1="767.6" x2="1973.4" y2="767.6"/>
<line class="st5" x1="130.4" y1="807.6" x2="1973.4" y2="807.6"/>
<line class="st5" x1="130.4" y1="807.6" x2="1973.4" y2="807.6"/>
<line class="st5" x1="130.4" y1="847.6" x2="1973.4" y2="847.6"/>
</svg>
