<?xml version="1.0" encoding="utf-8"?>
<!-- Generator: Adobe Illustrator 19.2.1, SVG Export Plug-In . SVG Version: 6.00 Build 0)  -->
<svg version="1.1" baseProfile="basic" id="Layer_1"
	 xmlns="http://www.w3.org/2000/svg" xmlns:xlink="http://www.w3.org/1999/xlink" x="0px" y="0px" viewBox="0 0 2048 1000"
	 xml:space="preserve">
<rect fill="#B9E5FB" width="2048" height="1000"/>
<rect fill="#4EA8DE" width="2049" height="1000"/>
<rect x="1" y="710" fill="#116BB4" width="2047" height="288.9"/>
<line fill="none" stroke="#343636" stroke-width="5.0032" stroke-miterlimit="10" x1="48.187" y1="51.9" x2="2010" y2="51.9"/>
<g>
	<rect x="455.129" y="315.816" fill="none" width="1147.743" height="304.367"/>
	<path fill="#FFFFFF" d="M471.448,315.817h6.3l16.739,42.838h-6.3l-4.68-12.899h-18.119l-4.8,12.899h-5.88L471.448,315.817z
		 M467.188,340.957h14.52l-7.14-19.979h-0.12L467.188,340.957z"/>
	<path fill="#FFFFFF" d="M542.247,358.656h-5.1v-4.2h-0.12c-1.68,3.42-5.58,4.92-9.899,4.92c-9.54,0-14.28-7.56-14.28-16.319
		c0-8.76,4.68-16.14,14.16-16.14c3.12,0,7.8,1.2,10.02,4.86h0.12v-15.959h5.1V358.656z M527.848,354.876c6.9,0,9.48-5.94,9.48-11.7
		c0-6.06-2.76-11.759-9.78-11.759c-6.96,0-9.3,5.939-9.3,12C518.248,349.236,521.248,354.876,527.848,354.876z"/>
	<path fill="#FFFFFF" d="M576.566,348.816c-1.38,6.899-6.24,10.56-13.259,10.56c-9.9,0-14.58-6.9-14.88-16.319
		c0-9.36,6.12-16.14,14.58-16.14c10.979,0,14.339,10.26,14.04,17.759h-23.219c-0.18,5.4,2.88,10.2,9.66,10.2
		c4.26,0,7.14-1.98,8.04-6.06H576.566z M571.646,340.177c-0.3-4.86-3.84-8.76-8.939-8.76c-5.28,0-8.58,3.96-8.88,8.76H571.646z"/>
	<path fill="#FFFFFF" d="M582.507,327.637h5.1v4.2h0.12c1.68-3.42,5.58-4.92,9.899-4.92c9.54,0,14.279,7.56,14.279,16.319
		c0,8.82-4.68,16.14-14.159,16.14c-3.12,0-7.8-1.2-10.02-4.86h-0.12v16.019h-5.1V327.637z M596.906,331.417
		c-6.9,0-9.48,5.939-9.48,11.699c0,6.06,2.76,11.76,9.78,11.76c6.959,0,9.3-5.94,9.3-12
		C606.506,337.057,603.506,331.417,596.906,331.417z"/>
	<path fill="#FFFFFF" d="M645.385,358.536c-0.9,0.54-2.16,0.84-3.66,0.84c-2.64,0-4.32-1.44-4.32-4.8
		c-2.82,3.359-6.6,4.8-10.919,4.8c-5.64,0-10.259-2.46-10.259-8.7c0-7.02,5.22-8.58,10.5-9.54c5.58-1.14,10.439-0.66,10.439-4.56
		c0-4.5-3.72-5.16-6.9-5.16c-4.32,0-7.5,1.32-7.74,5.88h-5.1c0.3-7.68,6.18-10.38,13.14-10.38c5.58,0,11.639,1.26,11.639,8.52
		v15.959c0,2.4,0,3.48,1.62,3.48c0.48,0,1.02-0.12,1.56-0.3V358.536z M637.105,342.636c-3.96,2.94-15.479,0.06-15.479,7.68
		c0,3.36,2.88,4.56,6,4.56c6.72,0,9.479-4.14,9.479-7.02V342.636z"/>
	<path fill="#FFFFFF" d="M649.945,327.637h4.8v6.54h0.12c2.46-5.04,5.88-7.439,11.399-7.26v5.4c-8.22,0-11.219,4.62-11.219,12.54
		v13.799h-5.1V327.637z"/>
	<path fill="#FFFFFF" d="M677.184,327.637h6.18v4.5h-6.18v19.259c0,2.4,0.66,2.76,3.84,2.76h2.34v4.5h-3.899
		c-5.28,0-7.38-1.08-7.38-6.78v-19.739h-5.28v-4.5h5.28v-9.3h5.1V327.637z"/>
	<path fill="#FFFFFF" d="M714.683,358.656h-4.8v-4.92h-0.12c-2.16,3.84-5.58,5.64-10.08,5.64c-8.16,0-10.68-4.68-10.68-11.34
		v-20.399h5.1v20.999c0,3.84,2.4,6.24,6.3,6.24c6.18,0,9.18-4.14,9.18-9.72v-17.519h5.1V358.656z"/>
	<path fill="#FFFFFF" d="M722.184,327.637h4.8v6.54h0.12c2.46-5.04,5.88-7.439,11.399-7.26v5.4c-8.219,0-11.219,4.62-11.219,12.54
		v13.799h-5.1V327.637z"/>
	<path fill="#FFFFFF" d="M768.802,348.816c-1.38,6.899-6.24,10.56-13.26,10.56c-9.899,0-14.579-6.9-14.879-16.319
		c0-9.36,6.12-16.14,14.579-16.14c10.979,0,14.339,10.26,14.04,17.759h-23.219c-0.18,5.4,2.88,10.2,9.66,10.2
		c4.26,0,7.14-1.98,8.04-6.06H768.802z M763.882,340.177c-0.3-4.86-3.84-8.76-8.939-8.76c-5.28,0-8.58,3.96-8.88,8.76H763.882z"/>
	<path fill="#FFFFFF" d="M793.343,332.137h-5.22v-4.5h5.22v-4.62c0-5.04,3-7.68,8.58-7.68c0.96,0,2.34,0.18,3.3,0.48v4.44
		c-0.9-0.3-1.98-0.42-2.88-0.42c-2.46,0-3.9,0.78-3.9,3.48v4.32h6v4.5h-6v26.519h-5.1V332.137z"/>
	<path fill="#FFFFFF" d="M808.822,327.637h4.8v6.54h0.12c2.46-5.04,5.88-7.439,11.399-7.26v5.4c-8.22,0-11.219,4.62-11.219,12.54
		v13.799h-5.1V327.637z"/>
	<path fill="#FFFFFF" d="M842.361,326.917c9.84,0,15.06,7.14,15.06,16.259c0,9.06-5.22,16.2-15.06,16.2
		c-9.839,0-15.06-7.14-15.06-16.2C827.301,334.057,832.521,326.917,842.361,326.917z M842.361,354.876c5.34,0,9.66-4.2,9.66-11.7
		c0-7.5-4.32-11.759-9.66-11.759s-9.66,4.26-9.66,11.759C832.701,350.676,837.021,354.876,842.361,354.876z"/>
	<path fill="#FFFFFF" d="M863.421,327.637h4.8v4.56h0.12c2.34-3.54,5.64-5.28,10.02-5.28c3.84,0,7.26,1.44,8.52,5.28
		c2.1-3.36,5.7-5.28,9.72-5.28c6.18,0,10.319,2.58,10.319,9v22.739h-5.1v-20.339c0-3.84-1.02-6.899-6-6.899
		c-4.98,0-8.1,3.12-8.1,7.919v19.319h-5.1v-20.339c0-4.02-1.26-6.899-5.82-6.899c-6,0-8.28,5.52-8.28,7.919v19.319h-5.1V327.637z"/>
	<path fill="#FFFFFF" d="M958.76,358.536c-0.9,0.54-2.16,0.84-3.66,0.84c-2.64,0-4.32-1.44-4.32-4.8c-2.82,3.359-6.6,4.8-10.919,4.8
		c-5.64,0-10.259-2.46-10.259-8.7c0-7.02,5.22-8.58,10.5-9.54c5.58-1.14,10.439-0.66,10.439-4.56c0-4.5-3.72-5.16-6.9-5.16
		c-4.32,0-7.5,1.32-7.74,5.88h-5.1c0.3-7.68,6.18-10.38,13.14-10.38c5.58,0,11.639,1.26,11.639,8.52v15.959c0,2.4,0,3.48,1.62,3.48
		c0.48,0,1.02-0.12,1.56-0.3V358.536z M950.48,342.636c-3.96,2.94-15.479,0.06-15.479,7.68c0,3.36,2.88,4.56,6,4.56
		c6.72,0,9.479-4.14,9.479-7.02V342.636z"/>
	<path fill="#FFFFFF" d="M963.68,327.637h5.1v4.2h0.12c1.68-3.42,5.58-4.92,9.899-4.92c9.54,0,14.279,7.56,14.279,16.319
		c0,8.82-4.68,16.14-14.159,16.14c-3.12,0-7.8-1.2-10.02-4.86h-0.12v16.019h-5.1V327.637z M978.08,331.417
		c-6.9,0-9.48,5.939-9.48,11.699c0,6.06,2.76,11.76,9.78,11.76c6.96,0,9.3-5.94,9.3-12
		C987.679,337.057,984.679,331.417,978.08,331.417z"/>
	<path fill="#FFFFFF" d="M999.259,327.637h5.1v4.2h0.12c1.68-3.42,5.58-4.92,9.899-4.92c9.54,0,14.28,7.56,14.28,16.319
		c0,8.82-4.68,16.14-14.16,16.14c-3.12,0-7.8-1.2-10.02-4.86h-0.12v16.019h-5.1V327.637z M1013.659,331.417
		c-6.9,0-9.48,5.939-9.48,11.699c0,6.06,2.76,11.76,9.78,11.76c6.96,0,9.3-5.94,9.3-12
		C1023.258,337.057,1020.258,331.417,1013.659,331.417z"/>
	<path fill="#FFFFFF" d="M1034.479,327.637h4.8v6.54h0.12c2.46-5.04,5.88-7.439,11.399-7.26v5.4c-8.22,0-11.22,4.62-11.22,12.54
		v13.799h-5.1V327.637z"/>
	<path fill="#FFFFFF" d="M1068.018,326.917c9.84,0,15.06,7.14,15.06,16.259c0,9.06-5.22,16.2-15.06,16.2s-15.06-7.14-15.06-16.2
		C1052.958,334.057,1058.178,326.917,1068.018,326.917z M1068.018,354.876c5.34,0,9.659-4.2,9.659-11.7
		c0-7.5-4.319-11.759-9.659-11.759s-9.66,4.26-9.66,11.759C1058.357,350.676,1062.678,354.876,1068.018,354.876z"/>
	<path fill="#FFFFFF" d="M1103.057,358.656h-5.46l-11.52-31.019h5.7l8.699,25.859h0.12l8.46-25.859h5.34L1103.057,358.656z"/>
	<path fill="#FFFFFF" d="M1145.536,348.816c-1.38,6.899-6.239,10.56-13.259,10.56c-9.9,0-14.58-6.9-14.88-16.319
		c0-9.36,6.12-16.14,14.579-16.14c10.979,0,14.34,10.26,14.04,17.759h-23.22c-0.18,5.4,2.88,10.2,9.66,10.2
		c4.26,0,7.14-1.98,8.039-6.06H1145.536z M1140.616,340.177c-0.3-4.86-3.84-8.76-8.939-8.76c-5.279,0-8.579,3.96-8.88,8.76H1140.616
		z"/>
	<path fill="#FFFFFF" d="M1179.016,358.656h-5.1v-4.2h-0.12c-1.68,3.42-5.58,4.92-9.899,4.92c-9.54,0-14.279-7.56-14.279-16.319
		c0-8.76,4.68-16.14,14.159-16.14c3.12,0,7.8,1.2,10.02,4.86h0.12v-15.959h5.1V358.656z M1164.616,354.876
		c6.899,0,9.479-5.94,9.479-11.7c0-6.06-2.76-11.759-9.779-11.759c-6.96,0-9.3,5.939-9.3,12
		C1155.017,349.236,1158.017,354.876,1164.616,354.876z"/>
	<path fill="#FFFFFF" d="M1203.736,327.637h5.1v4.2h0.12c1.68-3.42,5.579-4.92,9.899-4.92c9.539,0,14.279,7.56,14.279,16.319
		c0,8.82-4.68,16.14-14.159,16.14c-3.12,0-7.8-1.2-10.02-4.86h-0.12v16.019h-5.1V327.637z M1218.136,331.417
		c-6.9,0-9.48,5.939-9.48,11.699c0,6.06,2.761,11.76,9.78,11.76c6.96,0,9.3-5.94,9.3-12
		C1227.735,337.057,1224.735,331.417,1218.136,331.417z"/>
	<path fill="#FFFFFF" d="M1238.955,327.637h4.8v6.54h0.12c2.46-5.04,5.88-7.439,11.399-7.26v5.4c-8.22,0-11.22,4.62-11.22,12.54
		v13.799h-5.1V327.637z"/>
	<path fill="#FFFFFF" d="M1272.494,326.917c9.84,0,15.06,7.14,15.06,16.259c0,9.06-5.22,16.2-15.06,16.2s-15.06-7.14-15.06-16.2
		C1257.435,334.057,1262.654,326.917,1272.494,326.917z M1272.494,354.876c5.34,0,9.659-4.2,9.659-11.7
		c0-7.5-4.319-11.759-9.659-11.759s-9.66,4.26-9.66,11.759C1262.834,350.676,1267.154,354.876,1272.494,354.876z"/>
	<path fill="#FFFFFF" d="M1314.613,337.597c-0.78-3.9-3.42-6.18-7.68-6.18c-7.38,0-9.66,5.88-9.66,12.119
		c0,5.76,2.58,11.34,9.06,11.34c4.98,0,7.86-2.82,8.521-7.56h5.22c-1.141,7.62-5.82,12.06-13.68,12.06
		c-9.479,0-14.52-6.54-14.52-15.84c0-9.299,4.8-16.619,14.64-16.619c7.079,0,12.6,3.3,13.379,10.68H1314.613z"/>
	<path fill="#FFFFFF" d="M1352.232,348.816c-1.38,6.899-6.24,10.56-13.26,10.56c-9.899,0-14.579-6.9-14.879-16.319
		c0-9.36,6.119-16.14,14.579-16.14c10.979,0,14.339,10.26,14.039,17.759h-23.219c-0.18,5.4,2.88,10.2,9.659,10.2
		c4.26,0,7.14-1.98,8.04-6.06H1352.232z M1347.312,340.177c-0.3-4.86-3.84-8.76-8.939-8.76c-5.28,0-8.58,3.96-8.88,8.76H1347.312z"
		/>
	<path fill="#FFFFFF" d="M1361.112,348.876c0.18,4.56,4.2,6,8.34,6c3.18,0,7.5-0.72,7.5-4.62c0-7.979-20.279-2.58-20.279-14.519
		c0-6.24,6.119-8.82,11.579-8.82c6.96,0,12.239,2.16,12.72,9.72h-5.1c-0.301-3.96-3.9-5.22-7.2-5.22c-3.06,0-6.6,0.84-6.6,3.96
		c0,3.6,5.399,4.319,10.14,5.399c5.1,1.14,10.14,2.88,10.14,8.82c0,7.439-6.899,9.78-13.199,9.78c-6.96,0-12.84-2.82-13.14-10.5
		H1361.112z"/>
	<path fill="#FFFFFF" d="M1391.112,348.876c0.18,4.56,4.2,6,8.34,6c3.18,0,7.5-0.72,7.5-4.62c0-7.979-20.279-2.58-20.279-14.519
		c0-6.24,6.119-8.82,11.579-8.82c6.96,0,12.239,2.16,12.72,9.72h-5.1c-0.301-3.96-3.9-5.22-7.2-5.22c-3.06,0-6.6,0.84-6.6,3.96
		c0,3.6,5.399,4.319,10.14,5.399c5.1,1.14,10.14,2.88,10.14,8.82c0,7.439-6.899,9.78-13.199,9.78c-6.96,0-12.84-2.82-13.14-10.5
		H1391.112z"/>
	<path fill="#FFFFFF" d="M1444.451,348.816c-1.38,6.899-6.239,10.56-13.259,10.56c-9.9,0-14.58-6.9-14.88-16.319
		c0-9.36,6.12-16.14,14.579-16.14c10.979,0,14.34,10.26,14.04,17.759h-23.22c-0.18,5.4,2.88,10.2,9.66,10.2
		c4.26,0,7.14-1.98,8.039-6.06H1444.451z M1439.531,340.177c-0.3-4.86-3.84-8.76-8.939-8.76c-5.279,0-8.579,3.96-8.88,8.76H1439.531
		z"/>
	<path fill="#FFFFFF" d="M1453.332,348.876c0.18,4.56,4.199,6,8.339,6c3.181,0,7.5-0.72,7.5-4.62c0-7.979-20.279-2.58-20.279-14.519
		c0-6.24,6.12-8.82,11.58-8.82c6.959,0,12.239,2.16,12.719,9.72h-5.1c-0.3-3.96-3.899-5.22-7.199-5.22c-3.061,0-6.6,0.84-6.6,3.96
		c0,3.6,5.399,4.319,10.139,5.399c5.101,1.14,10.14,2.88,10.14,8.82c0,7.439-6.899,9.78-13.199,9.78c-6.96,0-12.839-2.82-13.14-10.5
		H1453.332z"/>
	<path fill="#FFFFFF" d="M1503.972,327.637h6.18v4.5h-6.18v19.259c0,2.4,0.66,2.76,3.84,2.76h2.34v4.5h-3.899
		c-5.28,0-7.38-1.08-7.38-6.78v-19.739h-5.28v-4.5h5.28v-9.3h5.1V327.637z"/>
	<path fill="#FFFFFF" d="M1515.791,315.817h5.1v16.379h0.12c1.62-3.78,6.12-5.28,9.78-5.28c8.159,0,10.68,4.68,10.68,11.34v20.399
		h-5.101v-20.999c0-3.84-2.399-6.24-6.3-6.24c-6.18,0-9.18,4.14-9.18,9.72v17.519h-5.1V315.817z"/>
	<path fill="#FFFFFF" d="M1576.63,358.536c-0.899,0.54-2.16,0.84-3.66,0.84c-2.64,0-4.319-1.44-4.319-4.8
		c-2.82,3.359-6.6,4.8-10.92,4.8c-5.64,0-10.259-2.46-10.259-8.7c0-7.02,5.22-8.58,10.499-9.54c5.58-1.14,10.439-0.66,10.439-4.56
		c0-4.5-3.72-5.16-6.899-5.16c-4.32,0-7.5,1.32-7.74,5.88h-5.1c0.3-7.68,6.18-10.38,13.14-10.38c5.58,0,11.64,1.26,11.64,8.52
		v15.959c0,2.4,0,3.48,1.62,3.48c0.479,0,1.02-0.12,1.56-0.3V358.536z M1568.351,342.636c-3.96,2.94-15.479,0.06-15.479,7.68
		c0,3.36,2.88,4.56,6,4.56c6.72,0,9.479-4.14,9.479-7.02V342.636z"/>
	<path fill="#FFFFFF" d="M1588.45,327.637h6.18v4.5h-6.18v19.259c0,2.4,0.659,2.76,3.84,2.76h2.34v4.5h-3.9
		c-5.279,0-7.38-1.08-7.38-6.78v-19.739h-5.279v-4.5h5.279v-9.3h5.101V327.637z"/>
	<path fill="#FFFFFF" d="M458.788,399.637h4.8v6.54h0.12c2.46-5.04,5.88-7.439,11.399-7.26v5.4c-8.219,0-11.219,4.62-11.219,12.54
		v13.799h-5.1V399.637z"/>
	<path fill="#FFFFFF" d="M505.407,420.816c-1.38,6.899-6.24,10.56-13.26,10.56c-9.899,0-14.579-6.9-14.879-16.319
		c0-9.36,6.12-16.14,14.579-16.14c10.979,0,14.339,10.26,14.04,17.759h-23.219c-0.18,5.4,2.88,10.2,9.66,10.2
		c4.26,0,7.14-1.98,8.04-6.06H505.407z M500.487,412.177c-0.3-4.86-3.84-8.76-8.939-8.76c-5.28,0-8.58,3.96-8.88,8.76H500.487z"/>
	<path fill="#FFFFFF" d="M538.886,442.535h-5.1v-16.079h-0.12c-1.68,3.42-5.58,4.92-9.899,4.92c-9.54,0-14.28-7.56-14.28-16.319
		c0-8.76,4.68-16.14,14.16-16.14c3.12,0,7.8,1.2,10.02,4.86h0.12v-4.14h5.1V442.535z M524.486,426.876c6.9,0,9.48-5.94,9.48-11.7
		c0-6.06-2.76-11.759-9.78-11.759c-6.96,0-9.3,5.939-9.3,12C514.887,421.236,517.887,426.876,524.486,426.876z"/>
	<path fill="#FFFFFF" d="M572.425,430.656h-4.8v-4.92h-0.12c-2.16,3.84-5.58,5.64-10.08,5.64c-8.16,0-10.68-4.68-10.68-11.34
		v-20.399h5.1v20.999c0,3.84,2.4,6.24,6.3,6.24c6.18,0,9.18-4.14,9.18-9.72v-17.519h5.1V430.656z"/>
	<path fill="#FFFFFF" d="M585.506,394.057h-5.1v-6.24h5.1V394.057z M580.406,399.637h5.1v31.019h-5.1V399.637z"/>
	<path fill="#FFFFFF" d="M593.245,399.637h4.8v6.54h0.12c2.46-5.04,5.88-7.439,11.399-7.26v5.4c-8.219,0-11.219,4.62-11.219,12.54
		v13.799h-5.1V399.637z"/>
	<path fill="#FFFFFF" d="M639.864,420.816c-1.38,6.899-6.24,10.56-13.26,10.56c-9.899,0-14.579-6.9-14.879-16.319
		c0-9.36,6.12-16.14,14.579-16.14c10.979,0,14.339,10.26,14.04,17.759h-23.219c-0.18,5.4,2.88,10.2,9.66,10.2
		c4.26,0,7.14-1.98,8.04-6.06H639.864z M634.944,412.177c-0.3-4.86-3.84-8.76-8.939-8.76c-5.28,0-8.58,3.96-8.88,8.76H634.944z"/>
	<path fill="#FFFFFF" d="M648.744,420.876c0.18,4.56,4.2,6,8.34,6c3.18,0,7.5-0.72,7.5-4.62c0-7.979-20.279-2.58-20.279-14.519
		c0-6.24,6.12-8.82,11.58-8.82c6.959,0,12.239,2.16,12.719,9.72h-5.1c-0.3-3.96-3.9-5.22-7.2-5.22c-3.06,0-6.6,0.84-6.6,3.96
		c0,3.6,5.4,4.319,10.14,5.399c5.1,1.14,10.14,2.88,10.14,8.82c0,7.439-6.899,9.78-13.199,9.78c-6.96,0-12.84-2.82-13.14-10.5
		H648.744z"/>
	<path fill="#FFFFFF" d="M719.783,430.536c-0.9,0.54-2.16,0.84-3.66,0.84c-2.64,0-4.32-1.44-4.32-4.8
		c-2.82,3.359-6.6,4.8-10.919,4.8c-5.64,0-10.259-2.46-10.259-8.7c0-7.02,5.22-8.58,10.5-9.54c5.58-1.14,10.439-0.66,10.439-4.56
		c0-4.5-3.72-5.16-6.9-5.16c-4.32,0-7.5,1.32-7.74,5.88h-5.1c0.3-7.68,6.18-10.38,13.14-10.38c5.58,0,11.639,1.26,11.639,8.52
		v15.959c0,2.4,0,3.48,1.62,3.48c0.48,0,1.02-0.12,1.56-0.3V430.536z M711.503,414.636c-3.96,2.94-15.479,0.06-15.479,7.68
		c0,3.36,2.88,4.56,6,4.56c6.72,0,9.479-4.14,9.479-7.02V414.636z"/>
	<path fill="#FFFFFF" d="M752.242,430.656h-5.1v-4.2h-0.12c-1.68,3.42-5.58,4.92-9.899,4.92c-9.54,0-14.28-7.56-14.28-16.319
		c0-8.76,4.68-16.14,14.16-16.14c3.12,0,7.8,1.2,10.02,4.86h0.12v-15.959h5.1V430.656z M737.843,426.876c6.9,0,9.48-5.94,9.48-11.7
		c0-6.06-2.76-11.759-9.78-11.759c-6.96,0-9.3,5.939-9.3,12C728.243,421.236,731.243,426.876,737.843,426.876z"/>
	<path fill="#FFFFFF" d="M787.821,430.656h-5.1v-4.2h-0.12c-1.68,3.42-5.58,4.92-9.899,4.92c-9.54,0-14.28-7.56-14.28-16.319
		c0-8.76,4.68-16.14,14.16-16.14c3.12,0,7.8,1.2,10.02,4.86h0.12v-15.959h5.1V430.656z M773.422,426.876c6.9,0,9.48-5.94,9.48-11.7
		c0-6.06-2.76-11.759-9.78-11.759c-6.96,0-9.3,5.939-9.3,12C763.822,421.236,766.822,426.876,773.422,426.876z"/>
	<path fill="#FFFFFF" d="M801.082,394.057h-5.1v-6.24h5.1V394.057z M795.981,399.637h5.1v31.019h-5.1V399.637z"/>
	<path fill="#FFFFFF" d="M816.08,399.637h6.18v4.5h-6.18v19.259c0,2.4,0.66,2.76,3.84,2.76h2.34v4.5h-3.9
		c-5.279,0-7.379-1.08-7.379-6.78v-19.739h-5.28v-4.5h5.28v-9.3h5.1V399.637z"/>
	<path fill="#FFFFFF" d="M833.3,394.057h-5.1v-6.24h5.1V394.057z M828.2,399.637h5.1v31.019h-5.1V399.637z"/>
	<path fill="#FFFFFF" d="M854.599,398.917c9.84,0,15.06,7.14,15.06,16.259c0,9.06-5.22,16.2-15.06,16.2
		c-9.839,0-15.059-7.14-15.059-16.2C839.54,406.057,844.759,398.917,854.599,398.917z M854.599,426.876c5.34,0,9.66-4.2,9.66-11.7
		c0-7.5-4.32-11.759-9.66-11.759s-9.66,4.26-9.66,11.759C844.939,422.676,849.259,426.876,854.599,426.876z"/>
	<path fill="#FFFFFF" d="M875.659,399.637h4.8v4.919h0.12c2.16-3.84,5.58-5.64,10.08-5.64c8.16,0,10.679,4.68,10.679,11.34v20.399
		h-5.1v-20.999c0-3.84-2.4-6.24-6.3-6.24c-6.18,0-9.18,4.14-9.18,9.72v17.519h-5.1V399.637z"/>
	<path fill="#FFFFFF" d="M936.498,430.536c-0.9,0.54-2.16,0.84-3.66,0.84c-2.64,0-4.32-1.44-4.32-4.8
		c-2.82,3.359-6.6,4.8-10.919,4.8c-5.64,0-10.26-2.46-10.26-8.7c0-7.02,5.22-8.58,10.5-9.54c5.58-1.14,10.439-0.66,10.439-4.56
		c0-4.5-3.72-5.16-6.9-5.16c-4.32,0-7.5,1.32-7.74,5.88h-5.1c0.3-7.68,6.18-10.38,13.14-10.38c5.58,0,11.639,1.26,11.639,8.52
		v15.959c0,2.4,0,3.48,1.62,3.48c0.48,0,1.02-0.12,1.56-0.3V430.536z M928.218,414.636c-3.96,2.94-15.479,0.06-15.479,7.68
		c0,3.36,2.88,4.56,6,4.56c6.72,0,9.479-4.14,9.479-7.02V414.636z"/>
	<path fill="#FFFFFF" d="M941.538,387.817h5.1v42.838h-5.1V387.817z"/>
	<path fill="#FFFFFF" d="M998.956,430.656h-5.1v-4.2h-0.12c-1.68,3.42-5.58,4.92-9.899,4.92c-9.54,0-14.28-7.56-14.28-16.319
		c0-8.76,4.68-16.14,14.16-16.14c3.12,0,7.8,1.2,10.02,4.86h0.12v-15.959h5.1V430.656z M984.557,426.876c6.9,0,9.48-5.94,9.48-11.7
		c0-6.06-2.76-11.759-9.78-11.759c-6.96,0-9.3,5.939-9.3,12C974.957,421.236,977.957,426.876,984.557,426.876z"/>
	<path fill="#FFFFFF" d="M1020.196,398.917c9.84,0,15.06,7.14,15.06,16.259c0,9.06-5.22,16.2-15.06,16.2
		c-9.839,0-15.06-7.14-15.06-16.2C1005.136,406.057,1010.356,398.917,1020.196,398.917z M1020.196,426.876
		c5.34,0,9.66-4.2,9.66-11.7c0-7.5-4.319-11.759-9.66-11.759c-5.34,0-9.66,4.26-9.66,11.759
		C1010.536,422.676,1014.856,426.876,1020.196,426.876z"/>
	<path fill="#FFFFFF" d="M1062.315,409.597c-0.78-3.9-3.42-6.18-7.68-6.18c-7.38,0-9.66,5.88-9.66,12.119
		c0,5.76,2.58,11.34,9.06,11.34c4.98,0,7.86-2.82,8.521-7.56h5.22c-1.141,7.62-5.82,12.06-13.68,12.06
		c-9.479,0-14.52-6.54-14.52-15.84c0-9.299,4.8-16.619,14.64-16.619c7.079,0,12.6,3.3,13.379,10.68H1062.315z"/>
	<path fill="#FFFFFF" d="M1099.154,430.656h-4.8v-4.92h-0.12c-2.16,3.84-5.58,5.64-10.079,5.64c-8.16,0-10.68-4.68-10.68-11.34
		v-20.399h5.1v20.999c0,3.84,2.399,6.24,6.3,6.24c6.18,0,9.18-4.14,9.18-9.72v-17.519h5.1V430.656z"/>
	<path fill="#FFFFFF" d="M1106.835,399.637h4.8v4.56h0.12c2.34-3.54,5.64-5.28,10.02-5.28c3.84,0,7.26,1.44,8.52,5.28
		c2.101-3.36,5.7-5.28,9.72-5.28c6.18,0,10.319,2.58,10.319,9v22.739h-5.1v-20.339c0-3.84-1.02-6.899-5.999-6.899
		c-4.98,0-8.101,3.12-8.101,7.919v19.319h-5.1v-20.339c0-4.02-1.26-6.899-5.819-6.899c-6,0-8.28,5.52-8.28,7.919v19.319h-5.1
		V399.637z"/>
	<path fill="#FFFFFF" d="M1184.474,420.816c-1.38,6.899-6.239,10.56-13.259,10.56c-9.9,0-14.58-6.9-14.88-16.319
		c0-9.36,6.12-16.14,14.579-16.14c10.979,0,14.34,10.26,14.04,17.759h-23.22c-0.18,5.4,2.88,10.2,9.66,10.2
		c4.26,0,7.14-1.98,8.039-6.06H1184.474z M1179.554,412.177c-0.3-4.86-3.84-8.76-8.939-8.76c-5.279,0-8.579,3.96-8.88,8.76H1179.554
		z"/>
	<path fill="#FFFFFF" d="M1190.234,399.637h4.8v4.919h0.12c2.159-3.84,5.579-5.64,10.079-5.64c8.16,0,10.68,4.68,10.68,11.34v20.399
		h-5.1v-20.999c0-3.84-2.4-6.24-6.3-6.24c-6.18,0-9.18,4.14-9.18,9.72v17.519h-5.1V399.637z"/>
	<path fill="#FFFFFF" d="M1230.674,399.637h6.18v4.5h-6.18v19.259c0,2.4,0.66,2.76,3.84,2.76h2.34v4.5h-3.899
		c-5.28,0-7.38-1.08-7.38-6.78v-19.739h-5.28v-4.5h5.28v-9.3h5.1V399.637z"/>
	<path fill="#FFFFFF" d="M1269.973,430.536c-0.9,0.54-2.16,0.84-3.66,0.84c-2.64,0-4.32-1.44-4.32-4.8
		c-2.819,3.359-6.6,4.8-10.919,4.8c-5.64,0-10.26-2.46-10.26-8.7c0-7.02,5.22-8.58,10.5-9.54c5.579-1.14,10.439-0.66,10.439-4.56
		c0-4.5-3.72-5.16-6.9-5.16c-4.319,0-7.499,1.32-7.739,5.88h-5.1c0.3-7.68,6.18-10.38,13.14-10.38c5.579,0,11.639,1.26,11.639,8.52
		v15.959c0,2.4,0,3.48,1.62,3.48c0.48,0,1.021-0.12,1.561-0.3V430.536z M1261.692,414.636c-3.96,2.94-15.479,0.06-15.479,7.68
		c0,3.36,2.88,4.56,6,4.56c6.72,0,9.479-4.14,9.479-7.02V414.636z"/>
	<path fill="#FFFFFF" d="M1281.792,399.637h6.18v4.5h-6.18v19.259c0,2.4,0.66,2.76,3.84,2.76h2.34v4.5h-3.899
		c-5.279,0-7.38-1.08-7.38-6.78v-19.739h-5.279v-4.5h5.279v-9.3h5.1V399.637z"/>
	<path fill="#FFFFFF" d="M1299.012,394.057h-5.1v-6.24h5.1V394.057z M1293.912,399.637h5.1v31.019h-5.1V399.637z"/>
	<path fill="#FFFFFF" d="M1320.311,398.917c9.84,0,15.06,7.14,15.06,16.259c0,9.06-5.22,16.2-15.06,16.2
		c-9.839,0-15.059-7.14-15.059-16.2C1305.252,406.057,1310.472,398.917,1320.311,398.917z M1320.311,426.876
		c5.34,0,9.66-4.2,9.66-11.7c0-7.5-4.32-11.759-9.66-11.759s-9.659,4.26-9.659,11.759
		C1310.651,422.676,1314.971,426.876,1320.311,426.876z"/>
	<path fill="#FFFFFF" d="M1341.371,399.637h4.8v4.919h0.12c2.159-3.84,5.579-5.64,10.079-5.64c8.16,0,10.68,4.68,10.68,11.34v20.399
		h-5.1v-20.999c0-3.84-2.4-6.24-6.3-6.24c-6.18,0-9.18,4.14-9.18,9.72v17.519h-5.1V399.637z"/>
	<path fill="#FFFFFF" d="M1375.871,423.996h6.659v6.06c0,4.56-1.979,8.04-6.6,9.42v-3c2.64-0.96,3.66-3.84,3.479-5.82h-3.539
		V423.996z"/>
	<path fill="#FFFFFF" d="M480.027,481.597c-0.78-3.9-3.42-6.18-7.68-6.18c-7.379,0-9.66,5.88-9.66,12.119
		c0,5.76,2.58,11.34,9.06,11.34c4.98,0,7.86-2.82,8.52-7.56h5.22c-1.14,7.62-5.82,12.06-13.68,12.06
		c-9.479,0-14.519-6.54-14.519-15.84c0-9.299,4.8-16.619,14.639-16.619c7.08,0,12.6,3.3,13.379,10.68H480.027z"/>
	<path fill="#FFFFFF" d="M504.567,470.917c9.84,0,15.06,7.14,15.06,16.259c0,9.06-5.22,16.2-15.06,16.2
		c-9.839,0-15.06-7.14-15.06-16.2C489.507,478.057,494.728,470.917,504.567,470.917z M504.567,498.876c5.34,0,9.66-4.2,9.66-11.7
		c0-7.5-4.32-11.759-9.66-11.759s-9.66,4.26-9.66,11.759C494.907,494.676,499.227,498.876,504.567,498.876z"/>
	<path fill="#FFFFFF" d="M525.447,471.637h4.8v6.54h0.12c2.46-5.04,5.88-7.439,11.399-7.26v5.4c-8.22,0-11.219,4.62-11.219,12.54
		v13.799h-5.1V471.637z"/>
	<path fill="#FFFFFF" d="M545.426,471.637h4.8v6.54h0.12c2.46-5.04,5.88-7.439,11.399-7.26v5.4c-8.22,0-11.219,4.62-11.219,12.54
		v13.799h-5.1V471.637z"/>
	<path fill="#FFFFFF" d="M592.045,492.816c-1.38,6.899-6.24,10.56-13.259,10.56c-9.9,0-14.58-6.9-14.88-16.319
		c0-9.36,6.12-16.14,14.58-16.14c10.979,0,14.339,10.26,14.04,17.759h-23.219c-0.18,5.4,2.88,10.2,9.66,10.2
		c4.26,0,7.14-1.98,8.04-6.06H592.045z M587.125,484.177c-0.3-4.86-3.84-8.76-8.939-8.76c-5.28,0-8.58,3.96-8.88,8.76H587.125z"/>
	<path fill="#FFFFFF" d="M618.864,481.597c-0.78-3.9-3.42-6.18-7.68-6.18c-7.379,0-9.66,5.88-9.66,12.119
		c0,5.76,2.58,11.34,9.06,11.34c4.98,0,7.86-2.82,8.52-7.56h5.22c-1.14,7.62-5.82,12.06-13.68,12.06
		c-9.479,0-14.519-6.54-14.519-15.84c0-9.299,4.8-16.619,14.639-16.619c7.08,0,12.6,3.3,13.379,10.68H618.864z"/>
	<path fill="#FFFFFF" d="M637.104,471.637h6.18v4.5h-6.18v19.259c0,2.4,0.66,2.76,3.84,2.76h2.34v4.5h-3.899
		c-5.28,0-7.38-1.08-7.38-6.779v-19.739h-5.28v-4.5h5.28v-9.3h5.1V471.637z"/>
	<path fill="#FFFFFF" d="M654.324,466.057h-5.1v-6.24h5.1V466.057z M649.224,471.637h5.1v31.018h-5.1V471.637z"/>
	<path fill="#FFFFFF" d="M676.222,502.655h-5.46l-11.52-31.018h5.7l8.7,25.859h0.12l8.459-25.859h5.34L676.222,502.655z"/>
	<path fill="#FFFFFF" d="M718.702,492.816c-1.38,6.899-6.24,10.56-13.26,10.56c-9.899,0-14.579-6.9-14.879-16.319
		c0-9.36,6.12-16.14,14.579-16.14c10.979,0,14.339,10.26,14.04,17.759h-23.219c-0.18,5.4,2.88,10.2,9.66,10.2
		c4.26,0,7.14-1.98,8.04-6.06H718.702z M713.782,484.177c-0.3-4.86-3.84-8.76-8.939-8.76c-5.28,0-8.58,3.96-8.88,8.76H713.782z"/>
	<path fill="#FFFFFF" d="M768.621,502.535c-0.9,0.54-2.16,0.841-3.66,0.841c-2.64,0-4.32-1.44-4.32-4.8
		c-2.82,3.359-6.6,4.8-10.919,4.8c-5.64,0-10.259-2.46-10.259-8.7c0-7.02,5.22-8.58,10.5-9.54c5.58-1.14,10.439-0.66,10.439-4.56
		c0-4.5-3.72-5.16-6.9-5.16c-4.32,0-7.5,1.32-7.74,5.88h-5.1c0.3-7.68,6.18-10.38,13.14-10.38c5.58,0,11.639,1.26,11.639,8.52
		v15.959c0,2.4,0,3.48,1.62,3.48c0.48,0,1.02-0.12,1.56-0.3V502.535z M760.341,486.636c-3.96,2.94-15.479,0.06-15.479,7.68
		c0,3.36,2.88,4.56,6,4.56c6.72,0,9.479-4.14,9.479-7.02V486.636z"/>
	<path fill="#FFFFFF" d="M794.42,481.597c-0.78-3.9-3.42-6.18-7.68-6.18c-7.38,0-9.66,5.88-9.66,12.119
		c0,5.76,2.58,11.34,9.06,11.34c4.98,0,7.86-2.82,8.52-7.56h5.22c-1.14,7.62-5.82,12.06-13.68,12.06
		c-9.479,0-14.52-6.54-14.52-15.84c0-9.299,4.8-16.619,14.64-16.619c7.08,0,12.6,3.3,13.379,10.68H794.42z"/>
	<path fill="#FFFFFF" d="M812.66,471.637h6.18v4.5h-6.18v19.259c0,2.4,0.66,2.76,3.84,2.76h2.34v4.5h-3.9
		c-5.279,0-7.379-1.08-7.379-6.779v-19.739h-5.28v-4.5h5.28v-9.3h5.1V471.637z"/>
	<path fill="#FFFFFF" d="M829.88,466.057h-5.1v-6.24h5.1V466.057z M824.78,471.637h5.1v31.018h-5.1V471.637z"/>
	<path fill="#FFFFFF" d="M851.179,470.917c9.84,0,15.06,7.14,15.06,16.259c0,9.06-5.22,16.2-15.06,16.2
		c-9.839,0-15.059-7.14-15.059-16.2C836.12,478.057,841.339,470.917,851.179,470.917z M851.179,498.876c5.34,0,9.66-4.2,9.66-11.7
		c0-7.5-4.32-11.759-9.66-11.759s-9.66,4.26-9.66,11.759C841.519,494.676,845.839,498.876,851.179,498.876z"/>
	<path fill="#FFFFFF" d="M872.239,471.637h4.8v4.919h0.12c2.16-3.84,5.58-5.64,10.08-5.64c8.16,0,10.679,4.68,10.679,11.34v20.398
		h-5.1v-20.999c0-3.84-2.4-6.24-6.3-6.24c-6.18,0-9.18,4.14-9.18,9.72v17.519h-5.1V471.637z"/>
	<path fill="#FFFFFF" d="M908.718,492.876c0.18,4.56,4.2,6,8.34,6c3.18,0,7.5-0.72,7.5-4.62c0-7.979-20.279-2.58-20.279-14.519
		c0-6.24,6.12-8.82,11.58-8.82c6.959,0,12.239,2.16,12.719,9.72h-5.1c-0.3-3.96-3.9-5.22-7.2-5.22c-3.06,0-6.6,0.84-6.6,3.96
		c0,3.6,5.4,4.319,10.14,5.399c5.1,1.14,10.14,2.88,10.14,8.82c0,7.439-6.899,9.78-13.199,9.78c-6.96,0-12.84-2.82-13.14-10.5
		H908.718z"/>
	<path fill="#FFFFFF" d="M936.739,495.996h6.66v6.06c0,4.56-1.98,8.04-6.6,9.42v-3c2.64-0.96,3.66-3.84,3.48-5.82h-3.54V495.996z"/>
	<path fill="#FFFFFF" d="M996.438,502.535c-0.9,0.54-2.16,0.841-3.66,0.841c-2.64,0-4.32-1.44-4.32-4.8
		c-2.82,3.359-6.6,4.8-10.919,4.8c-5.64,0-10.26-2.46-10.26-8.7c0-7.02,5.22-8.58,10.5-9.54c5.58-1.14,10.439-0.66,10.439-4.56
		c0-4.5-3.72-5.16-6.9-5.16c-4.32,0-7.5,1.32-7.74,5.88h-5.1c0.3-7.68,6.18-10.38,13.14-10.38c5.58,0,11.639,1.26,11.639,8.52
		v15.959c0,2.4,0,3.48,1.62,3.48c0.48,0,1.02-0.12,1.56-0.3V502.535z M988.158,486.636c-3.96,2.94-15.479,0.06-15.479,7.68
		c0,3.36,2.88,4.56,6,4.56c6.72,0,9.479-4.14,9.479-7.02V486.636z"/>
	<path fill="#FFFFFF" d="M1001.178,471.637h4.8v4.919h0.12c2.16-3.84,5.58-5.64,10.08-5.64c8.16,0,10.68,4.68,10.68,11.34v20.398
		h-5.1v-20.999c0-3.84-2.4-6.24-6.3-6.24c-6.18,0-9.18,4.14-9.18,9.72v17.519h-5.1V471.637z"/>
	<path fill="#FFFFFF" d="M1062.257,502.655h-5.1v-4.199h-0.12c-1.68,3.42-5.579,4.92-9.899,4.92c-9.539,0-14.279-7.56-14.279-16.319
		c0-8.76,4.68-16.14,14.159-16.14c3.12,0,7.8,1.2,10.02,4.86h0.12v-15.959h5.1V502.655z M1047.857,498.876
		c6.9,0,9.48-5.94,9.48-11.7c0-6.06-2.761-11.759-9.78-11.759c-6.96,0-9.3,5.939-9.3,12
		C1038.258,493.236,1041.258,498.876,1047.857,498.876z"/>
	<path fill="#FFFFFF" d="M1114.276,502.535c-0.899,0.54-2.16,0.841-3.66,0.841c-2.64,0-4.319-1.44-4.319-4.8
		c-2.82,3.359-6.6,4.8-10.92,4.8c-5.64,0-10.259-2.46-10.259-8.7c0-7.02,5.22-8.58,10.499-9.54c5.58-1.14,10.439-0.66,10.439-4.56
		c0-4.5-3.72-5.16-6.899-5.16c-4.32,0-7.5,1.32-7.74,5.88h-5.1c0.3-7.68,6.18-10.38,13.14-10.38c5.58,0,11.64,1.26,11.64,8.52
		v15.959c0,2.4,0,3.48,1.62,3.48c0.479,0,1.02-0.12,1.56-0.3V502.535z M1105.997,486.636c-3.96,2.94-15.479,0.06-15.479,7.68
		c0,3.36,2.88,4.56,6,4.56c6.72,0,9.479-4.14,9.479-7.02V486.636z"/>
	<path fill="#FFFFFF" d="M1119.197,471.637h5.1v4.2h0.12c1.68-3.42,5.579-4.92,9.899-4.92c9.539,0,14.279,7.56,14.279,16.319
		c0,8.82-4.68,16.14-14.159,16.14c-3.12,0-7.8-1.2-10.02-4.86h-0.12v16.019h-5.1V471.637z M1133.597,475.417
		c-6.9,0-9.48,5.939-9.48,11.699c0,6.06,2.761,11.76,9.78,11.76c6.96,0,9.3-5.94,9.3-12
		C1143.196,481.057,1140.196,475.417,1133.597,475.417z"/>
	<path fill="#FFFFFF" d="M1154.776,471.637h5.1v4.2h0.12c1.68-3.42,5.579-4.92,9.899-4.92c9.539,0,14.279,7.56,14.279,16.319
		c0,8.82-4.68,16.14-14.159,16.14c-3.12,0-7.8-1.2-10.02-4.86h-0.12v16.019h-5.1V471.637z M1169.176,475.417
		c-6.9,0-9.48,5.939-9.48,11.699c0,6.06,2.761,11.76,9.78,11.76c6.96,0,9.3-5.94,9.3-12
		C1178.775,481.057,1175.775,475.417,1169.176,475.417z"/>
	<path fill="#FFFFFF" d="M1189.995,471.637h4.8v6.54h0.12c2.46-5.04,5.88-7.439,11.399-7.26v5.4c-8.22,0-11.22,4.62-11.22,12.54
		v13.799h-5.1V471.637z"/>
	<path fill="#FFFFFF" d="M1223.534,470.917c9.84,0,15.06,7.14,15.06,16.259c0,9.06-5.22,16.2-15.06,16.2s-15.06-7.14-15.06-16.2
		C1208.475,478.057,1213.694,470.917,1223.534,470.917z M1223.534,498.876c5.34,0,9.659-4.2,9.659-11.7
		c0-7.5-4.319-11.759-9.659-11.759s-9.66,4.26-9.66,11.759C1213.874,494.676,1218.194,498.876,1223.534,498.876z"/>
	<path fill="#FFFFFF" d="M1258.573,502.655h-5.46l-11.52-31.018h5.7l8.699,25.859h0.12l8.46-25.859h5.34L1258.573,502.655z"/>
	<path fill="#FFFFFF" d="M1302.073,502.535c-0.9,0.54-2.16,0.841-3.66,0.841c-2.64,0-4.32-1.44-4.32-4.8
		c-2.819,3.359-6.6,4.8-10.919,4.8c-5.64,0-10.26-2.46-10.26-8.7c0-7.02,5.22-8.58,10.5-9.54c5.579-1.14,10.439-0.66,10.439-4.56
		c0-4.5-3.72-5.16-6.9-5.16c-4.319,0-7.499,1.32-7.739,5.88h-5.1c0.3-7.68,6.18-10.38,13.14-10.38c5.579,0,11.639,1.26,11.639,8.52
		v15.959c0,2.4,0,3.48,1.62,3.48c0.48,0,1.021-0.12,1.561-0.3V502.535z M1293.793,486.636c-3.96,2.94-15.479,0.06-15.479,7.68
		c0,3.36,2.88,4.56,6,4.56c6.72,0,9.479-4.14,9.479-7.02V486.636z"/>
	<path fill="#FFFFFF" d="M1307.113,459.817h5.1v42.838h-5.1V459.817z"/>
	<path fill="#FFFFFF" d="M1323.253,492.876c0.18,4.56,4.199,6,8.339,6c3.181,0,7.5-0.72,7.5-4.62c0-7.979-20.279-2.58-20.279-14.519
		c0-6.24,6.12-8.82,11.58-8.82c6.959,0,12.239,2.16,12.719,9.72h-5.1c-0.3-3.96-3.899-5.22-7.199-5.22c-3.061,0-6.6,0.84-6.6,3.96
		c0,3.6,5.399,4.319,10.139,5.399c5.101,1.14,10.14,2.88,10.14,8.82c0,7.439-6.899,9.78-13.199,9.78c-6.96,0-12.839-2.82-13.14-10.5
		H1323.253z"/>
</g>
<g>
	<polygon fill="#FFFFFF" points="1571.656,859.298 1571.656,706.773 1571.656,630.317 1626.443,575.522 1779.286,575.522 
		1779.286,632.129 1779.286,706.773 1779.286,859.298 	"/>
	<polygon fill="#2C5871" points="1626.443,630.317 1571.656,630.317 1626.443,575.522 	"/>
	<polygon fill="#D1ECFB" points="1571.656,630.317 1626.443,630.317 1571.656,685.098 	"/>
	<path fill="#A6DAE9" d="M1779.286,706.773v-74.644v-9.989l-102.651,102.644c-0.019-0.013-0.031-0.024-0.048-0.033l-0.066,62.158
		l62.166-0.062c-0.018-0.013-0.02-0.029-0.029-0.044l40.628-40.625V706.773z"/>
	<path fill="#1695A4" d="M1809.038,573.356l-135.905,135.91c8.345,6.514,18.848,7.618,25.688,2.626l124.371-124.377
		L1809.038,573.356z"/>
	<path fill="#15B0BF" d="M1856.894,621.216l-33.701-33.701l-124.37,124.377h0.015c-0.05,0.061-0.076,0.14-0.118,0.202
		c0.059-0.052,0.135-0.104,0.174-0.158c-5.572,7.635-3.563,19.857,5.057,28.526c8.677,8.624,20.883,10.622,28.513,5.053
		c-0.032,0.053-0.104,0.118-0.147,0.175c0.061-0.035,0.139-0.062,0.197-0.114v0.018L1856.894,621.216z"/>
	<path fill="#1695A4" d="M1732.511,745.594c-4.99,6.84-3.865,17.363,2.632,25.699l135.904-135.905l-14.153-14.171L1732.511,745.594z
		"/>
	<path fill="#D1ECFB" d="M1735.178,771.336c-6.532-8.345-7.657-18.895-2.667-25.743v-0.018c-0.058,0.053-0.136,0.079-0.197,0.114
		c0.044-0.057,0.113-0.123,0.147-0.175c-7.63,5.569-19.835,3.571-28.514-5.053c-8.619-8.669-10.628-20.892-5.057-28.526
		c-0.038,0.054-0.114,0.106-0.174,0.158c0.043-0.061,0.068-0.141,0.119-0.202h-0.016c-6.849,5.001-17.379,3.888-25.754-2.652
		l-0.056,62.154L1735.178,771.336z"/>
	<path fill="#1695A4" d="M1673.04,740.883l-0.029,30.511l30.514-0.031c-3.972-5.815-8.554-11.435-13.809-16.671
		C1684.481,749.448,1678.863,744.85,1673.04,740.883"/>
	
		<rect x="1813.248" y="562.877" transform="matrix(0.7072 -0.707 0.707 0.7072 128.9264 1457.0865)" fill="#0E303F" width="20.834" height="20.016"/>
	
		<rect x="1837.115" y="572.887" transform="matrix(0.7071 -0.7072 0.7072 0.7071 119.2508 1481.3029)" fill="#2C5871" width="20.834" height="47.662"/>
	
		<rect x="1861.109" y="610.729" transform="matrix(0.7072 -0.707 0.707 0.7072 109.1013 1504.9387)" fill="#0E303F" width="20.833" height="20.036"/>
	<path fill="#E6E7E8" d="M1638.351,701.223c0,5.428-4.399,9.827-9.826,9.827h-19.649c-5.427,0-9.826-4.399-9.826-9.827v-19.646
		c0-5.427,4.399-9.825,9.826-9.825h19.649c5.427,0,9.826,4.398,9.826,9.825V701.223z"/>
	<path fill="#15B0BF" d="M1618.586,706.763l-12.623-18.969c-1.066-1.595-0.63-3.755,0.969-4.817
		c1.592-1.073,3.756-0.639,4.821,0.967l7.065,10.606l21.143-29.273c1.126-1.562,3.3-1.911,4.856-0.784
		c1.559,1.124,1.909,3.299,0.784,4.854L1618.586,706.763z"/>
	<path fill="#E6E7E8" d="M1638.351,754.1c0,5.428-4.399,9.826-9.826,9.826h-19.649c-5.427,0-9.826-4.398-9.826-9.826v-19.647
		c0-5.428,4.399-9.824,9.826-9.824h19.649c5.427,0,9.826,4.396,9.826,9.824V754.1z"/>
	<path fill="#E6E7E8" d="M1638.351,806.541c0,5.428-4.399,9.827-9.826,9.827h-19.649c-5.427,0-9.826-4.399-9.826-9.827v-19.646
		c0-5.428,4.399-9.825,9.826-9.825h19.649c5.427,0,9.826,4.398,9.826,9.825V806.541z"/>
	<path fill="#15B0BF" d="M1618.586,753.982l-12.623-18.969c-1.066-1.595-0.63-3.756,0.969-4.818
		c1.592-1.072,3.756-0.638,4.821,0.968l7.065,10.607l21.143-29.273c1.126-1.562,3.3-1.911,4.856-0.784
		c1.559,1.125,1.909,3.298,0.784,4.855L1618.586,753.982z"/>
	<g>
		
			<line fill="none" stroke="#C62626" stroke-width="10" stroke-miterlimit="10" x1="1604.636" y1="782.656" x2="1632.763" y2="810.783"/>
		
			<line fill="none" stroke="#C62626" stroke-width="10" stroke-miterlimit="10" x1="1632.763" y1="782.656" x2="1604.636" y2="810.783"/>
	</g>
</g>
</svg>
