<?xml version="1.0" encoding="utf-8"?>
<!-- Generator: Adobe Illustrator 19.2.1, SVG Export Plug-In . SVG Version: 6.00 Build 0)  -->
<svg version="1.1" baseProfile="basic" id="Layer_1"
	 xmlns="http://www.w3.org/2000/svg" xmlns:xlink="http://www.w3.org/1999/xlink" x="0px" y="0px" viewBox="0 0 2048 1000"
	 xml:space="preserve">
<rect fill="#B9E5FB" width="2048" height="1000"/>
<rect fill="#116BB4" width="2049" height="1000"/>
<rect x="1" y="710" fill="#4EA8DE" width="2047" height="288.9"/>
<line fill="none" stroke="#343636" stroke-width="5.0032" stroke-miterlimit="10" x1="48.187" y1="51.9" x2="2010" y2="51.9"/>
<g>
	<g>
		<g>
			<polygon fill="#FFFFFF" points="1382.631,861.724 1382.631,475.458 1382.631,279.037 1227.635,138.276 665.369,138.276 
				665.369,861.724 			"/>
			<g>
				<polygon fill="#2C5871" points="1227.635,279.037 1382.631,279.037 1227.635,138.276 				"/>
				<polygon fill="#D1ECFB" points="1382.631,279.037 1227.635,279.037 1382.631,419.775 				"/>
			</g>
		</g>
	</g>
</g>
<g>
	<rect x="829.301" y="269.953" fill="none" width="493.699" height="41.896"/>
	<path d="M832.581,269.958h3.799v28.555h-3.799V269.958z"/>
	<path d="M860.697,298.513h-3.399v-2.799h-0.08c-1.12,2.279-3.719,3.279-6.599,3.279c-6.359,0-9.518-5.039-9.518-10.878
		c0-5.839,3.119-10.758,9.438-10.758c2.08,0,5.199,0.8,6.679,3.239h0.08v-10.638h3.399V298.513z M851.099,295.994
		c4.599,0,6.319-3.959,6.319-7.799c0-4.039-1.839-7.838-6.519-7.838c-4.639,0-6.199,3.959-6.199,7.999
		C844.7,292.234,846.7,295.994,851.099,295.994z"/>
	<path d="M883.577,291.954c-0.92,4.6-4.16,7.039-8.839,7.039c-6.599,0-9.718-4.599-9.918-10.878c0-6.239,4.079-10.758,9.718-10.758
		c7.319,0,9.558,6.839,9.358,11.838h-15.478c-0.12,3.599,1.92,6.799,6.439,6.799c2.839,0,4.759-1.32,5.359-4.04H883.577z
		 M880.297,286.195c-0.2-3.24-2.56-5.839-5.959-5.839c-3.519,0-5.719,2.639-5.919,5.839H880.297z"/>
	<path d="M887.419,277.836h3.199v3.28h0.08c1.44-2.56,3.72-3.759,6.719-3.759c5.439,0,7.119,3.119,7.119,7.559v13.598h-3.399
		v-13.998c0-2.56-1.6-4.159-4.199-4.159c-4.12,0-6.119,2.759-6.119,6.479v11.678h-3.399V277.836z"/>
	<path d="M914.379,277.836h4.119v3h-4.119v12.838c0,1.6,0.44,1.84,2.56,1.84h1.56v3h-2.6c-3.519,0-4.919-0.72-4.919-4.519v-13.158
		h-3.52v-3h3.52v-6.199h3.399V277.836z"/>
	<path d="M925.859,274.117h-3.399v-4.159h3.399V274.117z M922.459,277.836h3.399v20.677h-3.399V277.836z"/>
	<path d="M932.539,280.836h-3.479v-3h3.479v-3.079c0-3.359,2-5.119,5.719-5.119c0.64,0,1.56,0.12,2.2,0.32v2.959
		c-0.6-0.2-1.32-0.28-1.919-0.28c-1.64,0-2.6,0.52-2.6,2.319v2.879h3.999v3h-3.999v17.677h-3.399V280.836z"/>
	<path d="M951.097,301.273c-1.6,3.999-2.959,5.519-5.999,5.519c-0.8,0-1.6-0.08-2.359-0.36v-3.119c0.64,0.2,1.319,0.48,2,0.48
		c1.4,0,2.16-0.64,2.799-1.88l1.4-3.52l-8.199-20.557h3.839l6.039,16.917h0.08l5.799-16.917h3.6L951.097,301.273z"/>
	<path d="M992.575,298.513h-3.399v-2.799h-0.08c-1.12,2.279-3.719,3.279-6.599,3.279c-6.359,0-9.518-5.039-9.518-10.878
		c0-5.839,3.119-10.758,9.438-10.758c2.08,0,5.199,0.8,6.679,3.239h0.08v-10.638h3.399V298.513z M982.977,295.994
		c4.599,0,6.319-3.959,6.319-7.799c0-4.039-1.839-7.838-6.519-7.838c-4.639,0-6.199,3.959-6.199,7.999
		C976.578,292.234,978.578,295.994,982.977,295.994z"/>
	<path d="M1015.455,291.954c-0.92,4.6-4.16,7.039-8.839,7.039c-6.599,0-9.718-4.599-9.918-10.878c0-6.239,4.079-10.758,9.718-10.758
		c7.319,0,9.558,6.839,9.358,11.838h-15.478c-0.12,3.599,1.92,6.799,6.439,6.799c2.839,0,4.759-1.32,5.359-4.04H1015.455z
		 M1012.175,286.195c-0.2-3.24-2.56-5.839-5.959-5.839c-3.519,0-5.719,2.639-5.919,5.839H1012.175z"/>
	<path d="M1028.615,298.513h-3.639l-7.679-20.677h3.799l5.798,17.237h0.08l5.64-17.237h3.559L1028.615,298.513z"/>
	<path d="M1042.896,274.117h-3.399v-4.159h3.399V274.117z M1039.497,277.836h3.399v20.677h-3.399V277.836z"/>
	<path d="M1066.493,298.433c-0.6,0.36-1.439,0.56-2.439,0.56c-1.76,0-2.879-0.96-2.879-3.2c-1.88,2.24-4.399,3.2-7.279,3.2
		c-3.76,0-6.839-1.64-6.839-5.799c0-4.679,3.479-5.719,6.999-6.359c3.719-0.76,6.959-0.44,6.959-3.039c0-3-2.479-3.439-4.6-3.439
		c-2.88,0-4.999,0.88-5.159,3.919h-3.399c0.2-5.119,4.119-6.918,8.759-6.918c3.719,0,7.759,0.84,7.759,5.679v10.638
		c0,1.6,0,2.32,1.079,2.32c0.32,0,0.681-0.08,1.04-0.2V298.433z M1060.975,287.835c-2.64,1.959-10.318,0.04-10.318,5.119
		c0,2.24,1.92,3.04,3.999,3.04c4.479,0,6.319-2.76,6.319-4.679V287.835z"/>
	<path d="M1074.375,277.836h4.119v3h-4.119v12.838c0,1.6,0.44,1.84,2.56,1.84h1.56v3h-2.6c-3.519,0-4.919-0.72-4.919-4.519v-13.158
		h-3.52v-3h3.52v-6.199h3.399V277.836z"/>
	<path d="M1085.855,274.117h-3.399v-4.159h3.399V274.117z M1082.456,277.836h3.399v20.677h-3.399V277.836z"/>
	<path d="M1100.054,277.357c6.559,0,10.038,4.759,10.038,10.838c0,6.039-3.479,10.798-10.038,10.798
		c-6.56,0-10.038-4.759-10.038-10.798C1090.016,282.116,1093.494,277.357,1100.054,277.357z M1100.054,295.994
		c3.56,0,6.438-2.8,6.438-7.799s-2.879-7.838-6.438-7.838s-6.439,2.839-6.439,7.838S1096.494,295.994,1100.054,295.994z"/>
	<path d="M1114.095,277.836h3.199v3.28h0.08c1.439-2.56,3.72-3.759,6.719-3.759c5.439,0,7.119,3.119,7.119,7.559v13.598h-3.399
		v-13.998c0-2.56-1.6-4.159-4.199-4.159c-4.12,0-6.119,2.759-6.119,6.479v11.678h-3.399V277.836z"/>
</g>
<circle fill="#89BE46" cx="763.151" cy="284.901" r="36.849"/>
<g>
	<path fill="#FFFFFF" d="M768.24,299.044h-4.906V283.36h-6.08v-3.697c3.42,0.104,6.529-1.105,7.082-4.802h3.904V299.044z"/>
</g>
<g>
	<rect x="829.301" y="369.367" fill="none" width="493.699" height="41.896"/>
	<path d="M844.499,368.691c9.079,0,13.678,7.159,13.678,14.957c0,7.799-4.599,14.958-13.678,14.958
		c-9.078,0-13.678-7.159-13.678-14.958C830.821,375.85,835.42,368.691,844.499,368.691z M844.499,395.407
		c6.959,0,9.878-5.999,9.878-11.758c0-5.759-2.919-11.758-9.878-11.758c-6.958,0-9.878,5.999-9.878,11.758
		C834.621,389.408,837.54,395.407,844.499,395.407z"/>
	<path d="M862.381,377.25h3.399v2.8h0.08c1.12-2.28,3.719-3.279,6.599-3.279c6.359,0,9.519,5.039,9.519,10.878
		c0,5.879-3.12,10.758-9.438,10.758c-2.08,0-5.199-0.8-6.679-3.24h-0.08v10.678h-3.399V377.25z M871.979,379.77
		c-4.599,0-6.319,3.959-6.319,7.798c0,4.04,1.84,7.839,6.519,7.839c4.639,0,6.199-3.959,6.199-7.999
		C878.378,383.529,876.378,379.77,871.979,379.77z"/>
	<path d="M903.617,391.367c-0.92,4.6-4.16,7.039-8.839,7.039c-6.599,0-9.718-4.599-9.918-10.878c0-6.239,4.079-10.758,9.718-10.758
		c7.319,0,9.558,6.839,9.358,11.838h-15.478c-0.12,3.599,1.92,6.799,6.439,6.799c2.839,0,4.759-1.32,5.359-4.04H903.617z
		 M900.337,385.608c-0.2-3.24-2.56-5.839-5.959-5.839c-3.519,0-5.719,2.639-5.919,5.839H900.337z"/>
	<path d="M907.459,377.25h3.199v3.28h0.08c1.44-2.56,3.72-3.759,6.719-3.759c5.439,0,7.119,3.119,7.119,7.559v13.598h-3.399v-13.998
		c0-2.56-1.6-4.159-4.199-4.159c-4.12,0-6.119,2.759-6.119,6.479v11.678h-3.399V377.25z"/>
	<path d="M959.297,397.926h-3.399v-2.799h-0.08c-1.12,2.279-3.719,3.279-6.599,3.279c-6.359,0-9.518-5.039-9.518-10.878
		c0-5.839,3.119-10.758,9.438-10.758c2.08,0,5.199,0.8,6.679,3.239h0.08v-10.638h3.399V397.926z M949.698,395.407
		c4.599,0,6.319-3.959,6.319-7.799c0-4.039-1.839-7.838-6.519-7.838c-4.639,0-6.199,3.959-6.199,7.999
		C943.299,391.647,945.299,395.407,949.698,395.407z"/>
	<path d="M982.177,391.367c-0.92,4.6-4.16,7.039-8.839,7.039c-6.599,0-9.718-4.599-9.918-10.878c0-6.239,4.079-10.758,9.718-10.758
		c7.319,0,9.558,6.839,9.358,11.838h-15.478c-0.12,3.599,1.92,6.799,6.439,6.799c2.839,0,4.759-1.32,5.359-4.04H982.177z
		 M978.897,385.608c-0.2-3.24-2.56-5.839-5.959-5.839c-3.519,0-5.719,2.639-5.919,5.839H978.897z"/>
	<path d="M995.337,397.926h-3.639l-7.679-20.677h3.799l5.799,17.237h0.08l5.639-17.237h3.559L995.337,397.926z"/>
	<path d="M1009.619,373.53h-3.399v-4.159h3.399V373.53z M1006.219,377.25h3.399v20.677h-3.399V377.25z"/>
	<path d="M1033.215,397.846c-0.6,0.36-1.439,0.56-2.439,0.56c-1.76,0-2.879-0.96-2.879-3.2c-1.88,2.24-4.399,3.2-7.279,3.2
		c-3.76,0-6.839-1.64-6.839-5.799c0-4.679,3.479-5.719,6.999-6.359c3.719-0.76,6.959-0.44,6.959-3.039c0-3-2.479-3.439-4.599-3.439
		c-2.88,0-5,0.88-5.159,3.919h-3.399c0.2-5.119,4.119-6.918,8.758-6.918c3.719,0,7.759,0.84,7.759,5.679v10.638
		c0,1.6,0,2.32,1.079,2.32c0.32,0,0.681-0.08,1.04-0.2V397.846z M1027.696,387.248c-2.64,1.959-10.318,0.04-10.318,5.119
		c0,2.24,1.92,3.04,4,3.04c4.479,0,6.319-2.76,6.319-4.679V387.248z"/>
	<path d="M1041.097,377.25h4.119v3h-4.119v12.838c0,1.6,0.44,1.84,2.56,1.84h1.56v3h-2.6c-3.519,0-4.919-0.72-4.919-4.519v-13.158
		h-3.52v-3h3.52v-6.199h3.399V377.25z"/>
	<path d="M1052.577,373.53h-3.399v-4.159h3.399V373.53z M1049.178,377.25h3.399v20.677h-3.399V377.25z"/>
	<path d="M1066.775,376.77c6.559,0,10.038,4.759,10.038,10.838c0,6.039-3.479,10.798-10.038,10.798
		c-6.56,0-10.038-4.759-10.038-10.798C1056.737,381.529,1060.216,376.77,1066.775,376.77z M1066.775,395.407
		c3.56,0,6.438-2.8,6.438-7.799s-2.879-7.838-6.438-7.838s-6.439,2.839-6.439,7.838S1063.216,395.407,1066.775,395.407z"/>
	<path d="M1080.816,377.25h3.199v3.28h0.08c1.439-2.56,3.72-3.759,6.719-3.759c5.439,0,7.119,3.119,7.119,7.559v13.598h-3.399
		v-13.998c0-2.56-1.6-4.159-4.199-4.159c-4.12,0-6.119,2.759-6.119,6.479v11.678h-3.399V377.25z"/>
</g>
<circle fill="#89BE46" cx="763.151" cy="384.315" r="36.849"/>
<g>
	<path fill="#FFFFFF" d="M755.976,383.568c-0.173-5.527,2.971-9.777,8.774-9.777c4.422,0,8.291,2.833,8.291,7.566
		c0,7.324-7.773,7.911-11.296,12.885h11.435v4.215h-17.756c0-5.631,3.455-7.945,7.634-10.813c2.107-1.485,5.079-2.936,5.079-5.907
		c0-2.314-1.52-3.731-3.627-3.731c-2.902,0-3.834,3.005-3.834,5.562H755.976z"/>
</g>
<g>
	<rect x="829.301" y="471.953" fill="none" width="493.699" height="41.896"/>
	<path d="M840.179,471.958h4.2l11.158,28.555h-4.199l-3.119-8.598H836.14l-3.2,8.598h-3.919L840.179,471.958z M837.34,488.715h9.678
		l-4.759-13.318h-0.08L837.34,488.715z"/>
	<path d="M859.86,493.994c0.12,3.04,2.8,4,5.559,4c2.12,0,4.999-0.48,4.999-3.08c0-5.319-13.518-1.72-13.518-9.678
		c0-4.159,4.079-5.879,7.719-5.879c4.639,0,8.159,1.439,8.479,6.479h-3.399c-0.2-2.639-2.6-3.479-4.799-3.479
		c-2.04,0-4.399,0.56-4.399,2.639c0,2.4,3.599,2.88,6.759,3.6c3.399,0.76,6.759,1.919,6.759,5.879c0,4.959-4.599,6.519-8.798,6.519
		c-4.64,0-8.559-1.88-8.759-6.999H859.86z"/>
	<path d="M879.86,493.994c0.12,3.04,2.8,4,5.559,4c2.12,0,4.999-0.48,4.999-3.08c0-5.319-13.518-1.72-13.518-9.678
		c0-4.159,4.079-5.879,7.719-5.879c4.639,0,8.159,1.439,8.479,6.479h-3.399c-0.2-2.639-2.6-3.479-4.799-3.479
		c-2.04,0-4.399,0.56-4.399,2.639c0,2.4,3.599,2.88,6.759,3.6c3.399,0.76,6.759,1.919,6.759,5.879c0,4.959-4.599,6.519-8.798,6.519
		c-4.64,0-8.559-1.88-8.759-6.999H879.86z"/>
	<path d="M915.418,493.954c-0.92,4.6-4.16,7.039-8.839,7.039c-6.599,0-9.718-4.599-9.918-10.878c0-6.239,4.079-10.758,9.718-10.758
		c7.319,0,9.558,6.839,9.358,11.838H900.26c-0.12,3.599,1.92,6.799,6.439,6.799c2.839,0,4.759-1.32,5.359-4.04H915.418z
		 M912.138,488.195c-0.2-3.24-2.56-5.839-5.959-5.839c-3.519,0-5.719,2.639-5.919,5.839H912.138z"/>
	<path d="M921.34,493.994c0.12,3.04,2.8,4,5.559,4c2.12,0,4.999-0.48,4.999-3.08c0-5.319-13.518-1.72-13.518-9.678
		c0-4.159,4.079-5.879,7.719-5.879c4.639,0,8.159,1.439,8.479,6.479h-3.399c-0.2-2.639-2.6-3.479-4.799-3.479
		c-2.04,0-4.399,0.56-4.399,2.639c0,2.4,3.599,2.88,6.759,3.6c3.399,0.76,6.759,1.919,6.759,5.879c0,4.959-4.599,6.519-8.798,6.519
		c-4.64,0-8.559-1.88-8.759-6.999H921.34z"/>
	<path d="M941.34,493.994c0.12,3.04,2.8,4,5.559,4c2.12,0,4.999-0.48,4.999-3.08c0-5.319-13.518-1.72-13.518-9.678
		c0-4.159,4.079-5.879,7.719-5.879c4.639,0,8.159,1.439,8.479,6.479h-3.399c-0.2-2.639-2.6-3.479-4.799-3.479
		c-2.04,0-4.399,0.56-4.399,2.639c0,2.4,3.599,2.88,6.759,3.6c3.399,0.76,6.759,1.919,6.759,5.879c0,4.959-4.599,6.519-8.798,6.519
		c-4.64,0-8.559-1.88-8.759-6.999H941.34z"/>
	<path d="M988.857,500.513h-3.399v-2.799h-0.08c-1.12,2.279-3.719,3.279-6.599,3.279c-6.359,0-9.518-5.039-9.518-10.878
		c0-5.839,3.119-10.758,9.438-10.758c2.08,0,5.199,0.8,6.679,3.239h0.08v-10.638h3.399V500.513z M979.259,497.994
		c4.599,0,6.319-3.959,6.319-7.799c0-4.039-1.839-7.838-6.519-7.838c-4.639,0-6.199,3.959-6.199,7.999
		C972.86,494.234,974.86,497.994,979.259,497.994z"/>
	<path d="M1011.737,493.954c-0.92,4.6-4.16,7.039-8.839,7.039c-6.599,0-9.718-4.599-9.918-10.878c0-6.239,4.079-10.758,9.718-10.758
		c7.319,0,9.558,6.839,9.358,11.838H996.58c-0.12,3.599,1.92,6.799,6.439,6.799c2.839,0,4.759-1.32,5.359-4.04H1011.737z
		 M1008.458,488.195c-0.2-3.24-2.56-5.839-5.959-5.839c-3.519,0-5.719,2.639-5.919,5.839H1008.458z"/>
	<path d="M1024.897,500.513h-3.639l-7.679-20.676h3.799l5.799,17.237h0.08l5.639-17.237h3.559L1024.897,500.513z"/>
	<path d="M1039.179,476.117h-3.399v-4.159h3.399V476.117z M1035.779,479.836h3.399v20.676h-3.399V479.836z"/>
	<path d="M1062.775,500.433c-0.6,0.36-1.439,0.561-2.439,0.561c-1.76,0-2.879-0.96-2.879-3.2c-1.88,2.24-4.399,3.2-7.279,3.2
		c-3.76,0-6.839-1.64-6.839-5.799c0-4.679,3.479-5.719,6.999-6.359c3.719-0.76,6.959-0.44,6.959-3.039c0-3-2.479-3.439-4.6-3.439
		c-2.88,0-4.999,0.88-5.159,3.919h-3.399c0.2-5.119,4.119-6.918,8.759-6.918c3.719,0,7.759,0.84,7.759,5.679v10.638
		c0,1.6,0,2.32,1.079,2.32c0.32,0,0.681-0.08,1.04-0.2V500.433z M1057.257,489.835c-2.64,1.959-10.318,0.04-10.318,5.119
		c0,2.24,1.92,3.04,3.999,3.04c4.479,0,6.319-2.76,6.319-4.679V489.835z"/>
	<path d="M1070.657,479.836h4.119v3h-4.119v12.838c0,1.6,0.44,1.84,2.56,1.84h1.56v2.999h-2.6c-3.519,0-4.919-0.719-4.919-4.519
		v-13.158h-3.52v-3h3.52v-6.199h3.399V479.836z"/>
	<path d="M1082.138,476.117h-3.399v-4.159h3.399V476.117z M1078.738,479.836h3.399v20.676h-3.399V479.836z"/>
	<path d="M1096.336,479.357c6.559,0,10.038,4.759,10.038,10.838c0,6.039-3.479,10.798-10.038,10.798
		c-6.56,0-10.038-4.759-10.038-10.798C1086.298,484.116,1089.776,479.357,1096.336,479.357z M1096.336,497.994
		c3.56,0,6.438-2.8,6.438-7.799s-2.879-7.838-6.438-7.838s-6.439,2.839-6.439,7.838S1092.776,497.994,1096.336,497.994z"/>
	<path d="M1110.377,479.836h3.199v3.28h0.08c1.439-2.56,3.72-3.759,6.719-3.759c5.439,0,7.119,3.119,7.119,7.559v13.597h-3.399
		v-13.997c0-2.56-1.6-4.159-4.199-4.159c-4.12,0-6.119,2.759-6.119,6.479v11.678h-3.399V479.836z"/>
	<path d="M1147.336,476.117h-3.399v-4.159h3.399V476.117z M1143.937,479.836h3.399v20.676h-3.399V479.836z"/>
	<path d="M1152.616,479.836h3.199v3.04h0.08c1.56-2.359,3.759-3.519,6.679-3.519c2.56,0,4.839,0.959,5.679,3.519
		c1.4-2.239,3.8-3.519,6.479-3.519c4.119,0,6.879,1.72,6.879,5.999v15.157h-3.399v-13.557c0-2.56-0.68-4.599-4-4.599
		c-3.319,0-5.398,2.08-5.398,5.279v12.877h-3.399v-13.557c0-2.68-0.84-4.599-3.88-4.599c-3.999,0-5.519,3.679-5.519,5.279v12.877
		h-3.399V479.836z"/>
	<path d="M1186.855,479.836h3.399v2.8h0.08c1.12-2.28,3.72-3.279,6.599-3.279c6.359,0,9.519,5.039,9.519,10.878
		c0,5.879-3.119,10.758-9.438,10.758c-2.079,0-5.199-0.8-6.679-3.24h-0.08v10.678h-3.399V479.836z M1196.454,482.356
		c-4.6,0-6.319,3.959-6.319,7.798c0,4.04,1.84,7.839,6.52,7.839c4.639,0,6.198-3.959,6.198-7.999
		C1202.853,486.116,1200.854,482.356,1196.454,482.356z"/>
	<path d="M1228.772,500.433c-0.601,0.36-1.44,0.561-2.439,0.561c-1.76,0-2.88-0.96-2.88-3.2c-1.88,2.24-4.399,3.2-7.278,3.2
		c-3.76,0-6.839-1.64-6.839-5.799c0-4.679,3.479-5.719,6.998-6.359c3.72-0.76,6.959-0.44,6.959-3.039c0-3-2.479-3.439-4.599-3.439
		c-2.88,0-5,0.88-5.159,3.919h-3.399c0.199-5.119,4.119-6.918,8.758-6.918c3.72,0,7.759,0.84,7.759,5.679v10.638
		c0,1.6,0,2.32,1.08,2.32c0.32,0,0.68-0.08,1.04-0.2V500.433z M1223.253,489.835c-2.64,1.959-10.318,0.04-10.318,5.119
		c0,2.24,1.92,3.04,4,3.04c4.479,0,6.318-2.76,6.318-4.679V489.835z"/>
	<path d="M1245.973,486.476c-0.521-2.6-2.28-4.119-5.119-4.119c-4.919,0-6.439,3.919-6.439,8.079c0,3.839,1.72,7.559,6.039,7.559
		c3.319,0,5.239-1.88,5.68-5.039h3.479c-0.761,5.079-3.88,8.039-9.119,8.039c-6.318,0-9.678-4.359-9.678-10.558
		c0-6.199,3.199-11.078,9.758-11.078c4.72,0,8.398,2.199,8.919,7.119H1245.973z"/>
	<path d="M1258.134,479.836h4.119v3h-4.119v12.838c0,1.6,0.439,1.84,2.56,1.84h1.56v2.999h-2.6c-3.52,0-4.919-0.719-4.919-4.519
		v-13.158h-3.52v-3h3.52v-6.199h3.399V479.836z"/>
</g>
<circle fill="#89BE46" cx="763.151" cy="486.901" r="36.849"/>
<g>
	<path fill="#FFFFFF" d="M762.574,486.638c2.107,0.173,5.147-0.242,5.147-3.005c0-2.073-1.624-3.213-3.42-3.213
		c-2.487,0-3.766,1.831-3.731,4.318h-4.664c0.173-4.975,3.351-8.36,8.36-8.36c3.869,0,8.118,2.384,8.118,6.702
		c0,2.314-1.14,4.284-3.385,4.94v0.069c2.66,0.587,4.283,2.764,4.283,5.493c0,5.078-4.283,7.945-8.981,7.945
		c-5.424,0-9.086-3.247-8.982-8.809h4.664c0.104,2.625,1.416,4.768,4.249,4.768c2.211,0,3.938-1.486,3.938-3.8
		c0-3.662-3.213-3.593-5.597-3.593V486.638z"/>
</g>
<g>
	<rect x="829.301" y="701.052" fill="none" width="493.699" height="41.896"/>
	<path d="M852.498,709.655c-0.84-4.04-4-6.079-7.999-6.079c-6.799,0-9.678,5.599-9.678,11.558c0,6.52,2.879,11.958,9.718,11.958
		c4.959,0,7.919-3.52,8.239-8.238h3.799c-0.76,7.158-5.119,11.438-12.358,11.438c-8.838,0-13.198-6.559-13.198-14.877
		s4.719-15.037,13.518-15.037c5.959,0,10.918,3.199,11.758,9.278H852.498z"/>
	<path d="M860.94,701.057h3.399v28.555h-3.399V701.057z"/>
	<path d="M878.538,708.455c6.559,0,10.039,4.759,10.039,10.838c0,6.039-3.479,10.799-10.039,10.799s-10.038-4.76-10.038-10.799
		C868.5,713.214,871.979,708.455,878.538,708.455z M878.538,727.092c3.56,0,6.439-2.8,6.439-7.799s-2.879-7.838-6.439-7.838
		s-6.439,2.839-6.439,7.838S874.979,727.092,878.538,727.092z"/>
	<path d="M894.659,723.093c0.12,3.039,2.8,3.999,5.559,3.999c2.12,0,4.999-0.479,4.999-3.079c0-5.319-13.518-1.72-13.518-9.679
		c0-4.159,4.08-5.879,7.719-5.879c4.639,0,8.159,1.439,8.479,6.479h-3.399c-0.2-2.639-2.6-3.479-4.799-3.479
		c-2.04,0-4.399,0.56-4.399,2.639c0,2.4,3.599,2.88,6.759,3.6c3.399,0.76,6.759,1.92,6.759,5.879c0,4.96-4.599,6.52-8.798,6.52
		c-4.64,0-8.559-1.88-8.759-6.999H894.659z"/>
	<path d="M930.216,723.053c-0.92,4.6-4.16,7.039-8.839,7.039c-6.599,0-9.718-4.6-9.918-10.879c0-6.238,4.079-10.758,9.718-10.758
		c7.319,0,9.558,6.839,9.358,11.838h-15.478c-0.12,3.6,1.92,6.799,6.439,6.799c2.839,0,4.759-1.319,5.359-4.039H930.216z
		 M926.937,717.294c-0.2-3.24-2.56-5.839-5.959-5.839c-3.519,0-5.719,2.639-5.919,5.839H926.937z"/>
	<path d="M963.656,729.611h-3.399v-2.799h-0.08c-1.12,2.279-3.719,3.279-6.599,3.279c-6.359,0-9.518-5.039-9.518-10.879
		c0-5.839,3.119-10.758,9.438-10.758c2.08,0,5.199,0.8,6.679,3.239h0.08v-10.638h3.399V729.611z M954.057,727.092
		c4.599,0,6.319-3.959,6.319-7.799c0-4.039-1.839-7.838-6.519-7.838c-4.639,0-6.199,3.959-6.199,7.998
		C947.658,723.333,949.658,727.092,954.057,727.092z"/>
	<path d="M986.535,723.053c-0.92,4.6-4.16,7.039-8.839,7.039c-6.599,0-9.718-4.6-9.918-10.879c0-6.238,4.079-10.758,9.718-10.758
		c7.319,0,9.558,6.839,9.358,11.838h-15.478c-0.12,3.6,1.92,6.799,6.439,6.799c2.839,0,4.759-1.319,5.359-4.039H986.535z
		 M983.255,717.294c-0.2-3.24-2.56-5.839-5.959-5.839c-3.519,0-5.719,2.639-5.919,5.839H983.255z"/>
	<path d="M999.696,729.611h-3.639l-7.679-20.677h3.799l5.799,17.237h0.08l5.639-17.237h3.559L999.696,729.611z"/>
	<path d="M1013.977,705.216h-3.399v-4.159h3.399V705.216z M1010.578,708.935h3.399v20.677h-3.399V708.935z"/>
	<path d="M1037.573,729.531c-0.6,0.36-1.439,0.561-2.439,0.561c-1.76,0-2.879-0.96-2.879-3.2c-1.88,2.24-4.399,3.2-7.279,3.2
		c-3.759,0-6.838-1.64-6.838-5.8c0-4.679,3.479-5.719,6.999-6.358c3.719-0.76,6.959-0.44,6.959-3.039c0-3-2.479-3.439-4.6-3.439
		c-2.88,0-4.999,0.88-5.159,3.919h-3.399c0.2-5.119,4.119-6.919,8.758-6.919c3.719,0,7.759,0.84,7.759,5.679v10.639
		c0,1.6,0,2.319,1.079,2.319c0.32,0,0.681-0.08,1.04-0.2V729.531z M1032.055,718.934c-2.64,1.959-10.318,0.04-10.318,5.119
		c0,2.239,1.92,3.039,3.999,3.039c4.479,0,6.319-2.76,6.319-4.679V718.934z"/>
	<path d="M1045.455,708.935h4.119v3h-4.119v12.838c0,1.6,0.44,1.84,2.56,1.84h1.56v2.999h-2.6c-3.519,0-4.919-0.72-4.919-4.519
		v-13.158h-3.52v-3h3.52v-6.198h3.399V708.935z"/>
	<path d="M1056.936,705.216h-3.399v-4.159h3.399V705.216z M1053.536,708.935h3.399v20.677h-3.399V708.935z"/>
	<path d="M1071.134,708.455c6.559,0,10.038,4.759,10.038,10.838c0,6.039-3.479,10.799-10.038,10.799
		c-6.56,0-10.038-4.76-10.038-10.799C1061.096,713.214,1064.574,708.455,1071.134,708.455z M1071.134,727.092
		c3.56,0,6.438-2.8,6.438-7.799s-2.879-7.838-6.438-7.838s-6.439,2.839-6.439,7.838S1067.574,727.092,1071.134,727.092z"/>
	<path d="M1085.175,708.935h3.199v3.28h0.08c1.439-2.56,3.72-3.76,6.719-3.76c5.439,0,7.119,3.119,7.119,7.559v13.598h-3.399
		v-13.997c0-2.56-1.6-4.159-4.199-4.159c-4.12,0-6.119,2.759-6.119,6.479v11.678h-3.399V708.935z"/>
</g>
<circle fill="#89BE46" cx="763.151" cy="716" r="36.849"/>
<g>
	<path fill="#FFFFFF" d="M771.971,710.002h-9.984l-0.967,5.493l0.069,0.069c1.347-1.348,2.798-1.866,4.732-1.866
		c4.768,0,7.462,3.696,7.462,8.223c0,4.975-4.146,8.809-8.981,8.705c-4.698,0-8.878-2.591-8.982-7.669h4.906
		c0.242,2.176,1.796,3.627,3.973,3.627c2.557,0,4.18-2.245,4.18-4.663c0-2.522-1.555-4.526-4.18-4.526
		c-1.762,0-2.729,0.588-3.696,1.935h-4.422l2.384-13.369h13.507V710.002z"/>
</g>
<g>
	<rect x="829.301" y="577.367" fill="none" width="493.699" height="90.633"/>
	<path d="M832.581,577.372h3.799v28.555h-3.799V577.372z"/>
	<path d="M842.22,585.25h3.199v3.28h0.08c1.44-2.56,3.72-3.76,6.719-3.76c5.439,0,7.119,3.119,7.119,7.559v13.598h-3.399V591.93
		c0-2.56-1.6-4.159-4.199-4.159c-4.12,0-6.119,2.759-6.119,6.479v11.678h-3.399V585.25z"/>
	<path d="M873.779,605.927h-3.639l-7.679-20.677h3.799l5.799,17.237h0.08l5.639-17.237h3.559L873.779,605.927z"/>
	<path d="M902.098,599.368c-0.92,4.6-4.16,7.039-8.839,7.039c-6.599,0-9.718-4.6-9.918-10.879c0-6.238,4.079-10.758,9.718-10.758
		c7.319,0,9.558,6.839,9.358,11.838H886.94c-0.12,3.6,1.92,6.799,6.439,6.799c2.839,0,4.759-1.319,5.359-4.039H902.098z
		 M898.818,593.609c-0.2-3.24-2.56-5.839-5.959-5.839c-3.519,0-5.719,2.639-5.919,5.839H898.818z"/>
	<path d="M908.02,599.408c0.12,3.039,2.8,3.999,5.559,3.999c2.12,0,4.999-0.479,4.999-3.079c0-5.319-13.518-1.72-13.518-9.679
		c0-4.159,4.079-5.879,7.719-5.879c4.639,0,8.159,1.439,8.479,6.479h-3.399c-0.2-2.639-2.6-3.479-4.799-3.479
		c-2.04,0-4.399,0.56-4.399,2.639c0,2.4,3.599,2.88,6.759,3.6c3.399,0.76,6.759,1.92,6.759,5.879c0,4.96-4.599,6.52-8.798,6.52
		c-4.64,0-8.559-1.88-8.759-6.999H908.02z"/>
	<path d="M930.659,585.25h4.119v3h-4.119v12.838c0,1.6,0.44,1.84,2.56,1.84h1.56v2.999h-2.6c-3.519,0-4.919-0.72-4.919-4.519V588.25
		h-3.52v-3h3.52v-6.198h3.399V585.25z"/>
	<path d="M942.139,581.531h-3.399v-4.159h3.399V581.531z M938.74,585.25h3.399v20.677h-3.399V585.25z"/>
	<path d="M965.256,604.167c0,6.759-3.04,10.158-9.598,10.158c-3.879,0-8.359-1.6-8.559-6.078h3.399
		c0.12,2.439,3.159,3.359,5.359,3.359c4.439,0,6.199-3.2,6.199-7.839v-1.36h-0.08c-1.16,2.52-3.799,3.76-6.439,3.76
		c-6.159,0-9.238-4.839-9.238-10.479c0-4.879,2.359-10.918,9.558-10.918c2.6,0,4.919,1.16,6.159,3.439h0.04v-2.96h3.199V604.167z
		 M961.896,595.169c0-3.64-1.6-7.398-5.879-7.398c-4.359,0-6.119,3.559-6.119,7.519c0,3.719,1.36,7.878,5.839,7.878
		C960.217,603.167,961.896,599.048,961.896,595.169z"/>
	<path d="M988.695,605.847c-0.6,0.36-1.44,0.561-2.439,0.561c-1.76,0-2.879-0.96-2.879-3.2c-1.88,2.24-4.399,3.2-7.279,3.2
		c-3.76,0-6.839-1.64-6.839-5.8c0-4.679,3.479-5.719,6.999-6.358c3.72-0.76,6.959-0.44,6.959-3.04c0-2.999-2.479-3.438-4.599-3.438
		c-2.88,0-5,0.879-5.159,3.919h-3.399c0.2-5.119,4.119-6.919,8.758-6.919c3.72,0,7.759,0.84,7.759,5.679v10.639
		c0,1.6,0,2.319,1.08,2.319c0.32,0,0.68-0.08,1.04-0.2V605.847z M983.176,595.249c-2.64,1.959-10.318,0.04-10.318,5.119
		c0,2.239,1.92,3.039,4,3.039c4.479,0,6.319-2.76,6.319-4.679V595.249z"/>
	<path d="M996.577,585.25h4.119v3h-4.119v12.838c0,1.6,0.44,1.84,2.56,1.84h1.56v2.999h-2.6c-3.519,0-4.919-0.72-4.919-4.519V588.25
		h-3.52v-3h3.52v-6.198h3.399V585.25z"/>
	<path d="M1022.095,599.368c-0.92,4.6-4.16,7.039-8.839,7.039c-6.599,0-9.718-4.6-9.918-10.879c0-6.238,4.079-10.758,9.718-10.758
		c7.319,0,9.558,6.839,9.358,11.838h-15.478c-0.12,3.6,1.92,6.799,6.439,6.799c2.839,0,4.759-1.319,5.359-4.039H1022.095z
		 M1018.815,593.609c-0.2-3.24-2.56-5.839-5.959-5.839c-3.519,0-5.719,2.639-5.919,5.839H1018.815z"/>
	<path d="M1055.374,605.847c-0.601,0.36-1.44,0.561-2.439,0.561c-1.76,0-2.88-0.96-2.88-3.2c-1.88,2.24-4.399,3.2-7.278,3.2
		c-3.76,0-6.839-1.64-6.839-5.8c0-4.679,3.479-5.719,6.998-6.358c3.72-0.76,6.959-0.44,6.959-3.04c0-2.999-2.479-3.438-4.599-3.438
		c-2.88,0-5,0.879-5.159,3.919h-3.399c0.199-5.119,4.119-6.919,8.758-6.919c3.72,0,7.759,0.84,7.759,5.679v10.639
		c0,1.6,0,2.319,1.08,2.319c0.32,0,0.68-0.08,1.04-0.2V605.847z M1049.854,595.249c-2.64,1.959-10.318,0.04-10.318,5.119
		c0,2.239,1.92,3.039,4,3.039c4.479,0,6.318-2.76,6.318-4.679V595.249z"/>
	<path d="M1058.536,585.25h3.199v3.28h0.08c1.44-2.56,3.72-3.76,6.72-3.76c5.438,0,7.118,3.119,7.118,7.559v13.598h-3.399V591.93
		c0-2.56-1.6-4.159-4.199-4.159c-4.119,0-6.119,2.759-6.119,6.479v11.678h-3.399V585.25z"/>
	<path d="M1099.254,605.927h-3.399v-2.799h-0.08c-1.12,2.279-3.72,3.279-6.6,3.279c-6.358,0-9.518-5.039-9.518-10.879
		c0-5.839,3.119-10.758,9.438-10.758c2.08,0,5.199,0.8,6.68,3.239h0.08v-10.638h3.399V605.927z M1089.655,603.407
		c4.599,0,6.318-3.959,6.318-7.799c0-4.039-1.839-7.838-6.519-7.838c-4.639,0-6.199,3.959-6.199,7.998
		C1083.256,599.648,1085.256,603.407,1089.655,603.407z"/>
	<path d="M1129.654,591.89c-0.521-2.6-2.28-4.119-5.119-4.119c-4.919,0-6.439,3.919-6.439,8.078c0,3.84,1.72,7.559,6.039,7.559
		c3.319,0,5.239-1.88,5.68-5.039h3.479c-0.761,5.079-3.88,8.039-9.119,8.039c-6.318,0-9.678-4.359-9.678-10.559
		s3.199-11.078,9.758-11.078c4.72,0,8.398,2.199,8.919,7.119H1129.654z"/>
	<path d="M1146.015,584.771c6.559,0,10.038,4.759,10.038,10.838c0,6.039-3.479,10.799-10.038,10.799
		c-6.56,0-10.038-4.76-10.038-10.799C1135.977,589.529,1139.455,584.771,1146.015,584.771z M1146.015,603.407
		c3.56,0,6.438-2.8,6.438-7.799s-2.879-7.838-6.438-7.838s-6.439,2.839-6.439,7.838S1142.455,603.407,1146.015,603.407z"/>
	<path d="M1159.936,585.25h3.199v4.359h0.08c1.64-3.359,3.919-4.959,7.599-4.839v3.6c-5.479,0-7.479,3.079-7.479,8.358v9.198h-3.399
		V585.25z"/>
	<path d="M1173.255,585.25h3.2v4.359h0.08c1.64-3.359,3.919-4.959,7.599-4.839v3.6c-5.479,0-7.479,3.079-7.479,8.358v9.198h-3.399
		V585.25z"/>
	<path d="M1204.332,599.368c-0.92,4.6-4.159,7.039-8.839,7.039c-6.599,0-9.718-4.6-9.918-10.879c0-6.238,4.079-10.758,9.719-10.758
		c7.318,0,9.558,6.839,9.358,11.838h-15.478c-0.12,3.6,1.92,6.799,6.438,6.799c2.84,0,4.76-1.319,5.359-4.039H1204.332z
		 M1201.053,593.609c-0.2-3.24-2.56-5.839-5.959-5.839c-3.52,0-5.719,2.639-5.919,5.839H1201.053z"/>
	<path d="M1222.212,591.89c-0.52-2.6-2.279-4.119-5.119-4.119c-4.919,0-6.438,3.919-6.438,8.078c0,3.84,1.72,7.559,6.039,7.559
		c3.319,0,5.239-1.88,5.679-5.039h3.479c-0.76,5.079-3.879,8.039-9.118,8.039c-6.319,0-9.679-4.359-9.679-10.559
		s3.199-11.078,9.759-11.078c4.719,0,8.398,2.199,8.918,7.119H1222.212z"/>
	<path d="M1234.373,585.25h4.119v3h-4.119v12.838c0,1.6,0.44,1.84,2.56,1.84h1.56v2.999h-2.6c-3.519,0-4.919-0.72-4.919-4.519
		V588.25h-3.52v-3h3.52v-6.198h3.399V585.25z"/>
	<path d="M850.338,653.927h-3.399v-2.799h-0.08c-1.12,2.279-3.719,3.279-6.599,3.279c-6.359,0-9.518-5.039-9.518-10.879
		c0-5.839,3.119-10.758,9.438-10.758c2.08,0,5.199,0.8,6.679,3.239h0.08v-10.638h3.399V653.927z M840.739,651.407
		c4.599,0,6.319-3.959,6.319-7.799c0-4.039-1.839-7.838-6.519-7.838c-4.639,0-6.199,3.959-6.199,7.998
		C834.34,647.648,836.34,651.407,840.739,651.407z"/>
	<path d="M873.218,647.368c-0.92,4.6-4.16,7.039-8.839,7.039c-6.599,0-9.718-4.6-9.918-10.879c0-6.238,4.079-10.758,9.718-10.758
		c7.319,0,9.558,6.839,9.358,11.838H858.06c-0.12,3.6,1.92,6.799,6.439,6.799c2.839,0,4.759-1.319,5.359-4.039H873.218z
		 M869.938,641.609c-0.2-3.24-2.56-5.839-5.959-5.839c-3.519,0-5.719,2.639-5.919,5.839H869.938z"/>
	<path d="M886.378,653.927h-3.639l-7.679-20.677h3.799l5.799,17.237h0.08l5.639-17.237h3.559L886.378,653.927z"/>
	<path d="M900.66,629.531h-3.399v-4.159h3.399V629.531z M897.26,633.25h3.399v20.677h-3.399V633.25z"/>
	<path d="M924.256,653.847c-0.6,0.36-1.44,0.561-2.439,0.561c-1.76,0-2.879-0.96-2.879-3.2c-1.88,2.24-4.399,3.2-7.279,3.2
		c-3.76,0-6.839-1.64-6.839-5.8c0-4.679,3.479-5.719,6.999-6.358c3.719-0.76,6.959-0.44,6.959-3.04c0-2.999-2.479-3.438-4.599-3.438
		c-2.88,0-5,0.879-5.159,3.919h-3.399c0.2-5.119,4.119-6.919,8.758-6.919c3.719,0,7.759,0.84,7.759,5.679v10.639
		c0,1.6,0,2.319,1.08,2.319c0.32,0,0.68-0.08,1.04-0.2V653.847z M918.737,643.249c-2.64,1.959-10.318,0.04-10.318,5.119
		c0,2.239,1.92,3.039,4,3.039c4.479,0,6.319-2.76,6.319-4.679V643.249z"/>
	<path d="M932.138,633.25h4.119v3h-4.119v12.838c0,1.6,0.44,1.84,2.56,1.84h1.56v2.999h-2.6c-3.519,0-4.919-0.72-4.919-4.519V636.25
		h-3.52v-3h3.52v-6.198h3.399V633.25z"/>
	<path d="M943.618,629.531h-3.399v-4.159h3.399V629.531z M940.219,633.25h3.399v20.677h-3.399V633.25z"/>
	<path d="M957.816,632.771c6.559,0,10.039,4.759,10.039,10.838c0,6.039-3.479,10.799-10.039,10.799s-10.038-4.76-10.038-10.799
		C947.778,637.529,951.257,632.771,957.816,632.771z M957.816,651.407c3.56,0,6.439-2.8,6.439-7.799s-2.879-7.838-6.439-7.838
		s-6.439,2.839-6.439,7.838S954.257,651.407,957.816,651.407z"/>
	<path d="M971.857,633.25h3.2v3.28h0.08c1.44-2.56,3.72-3.76,6.719-3.76c5.439,0,7.119,3.119,7.119,7.559v13.598h-3.399V639.93
		c0-2.56-1.6-4.159-4.199-4.159c-4.12,0-6.119,2.759-6.119,6.479v11.678h-3.399V633.25z"/>
</g>
<circle fill="#89BE46" cx="763.151" cy="592.315" r="36.849"/>
<g>
	<path fill="#FFFFFF" d="M765.476,600.86H755.25v-4.49l10.502-14.095h4.387v14.544h3.213v4.041h-3.213v5.597h-4.664V600.86z
		 M765.476,588.424h-0.104l-6.253,8.396h6.356V588.424z"/>
</g>
</svg>
