<?xml version="1.0" encoding="utf-8"?>
<!-- Generator: Adobe Illustrator 16.0.3, SVG Export Plug-In . SVG Version: 6.00 Build 0)  -->
<!DOCTYPE svg PUBLIC "-//W3C//DTD SVG 1.1//EN" "http://www.w3.org/Graphics/SVG/1.1/DTD/svg11.dtd">
<svg version="1.1" id="Layer_1" xmlns="http://www.w3.org/2000/svg" xmlns:xlink="http://www.w3.org/1999/xlink" x="0px" y="0px"
	 width="2048px" height="1000px" viewBox="0 0 2048 1000" enable-background="new 0 0 2048 1000" xml:space="preserve">
<rect fill="#B9E5FB" width="2048" height="1000"/>
<rect fill="#4EA8DE" width="2048" height="1000"/>
<rect x="1" y="710" fill="#116BB4" width="2047" height="288.9"/>
<line fill="none" stroke="#343636" stroke-width="5.003" stroke-miterlimit="10" x1="48.187" y1="51.9" x2="2009.999" y2="51.9"/>
<polygon fill="#FFFFFF" points="1382.631,896.725 1382.631,520.458 1382.631,324.037 1227.635,183.275 665.368,183.275 
	665.368,896.725 "/>
<polygon fill="#2C5871" points="1227.635,324.037 1382.631,324.037 1227.635,183.276 "/>
<polygon fill="#D1ECFB" points="1382.631,324.037 1227.635,324.037 1382.631,464.775 "/>
<g>
	<path d="M733.839,279.648c3.959,0,7.159,3.16,7.159,7.119c0,3.959-3.2,7.159-7.159,7.159c-3.959,0-7.119-3.2-7.119-7.159
		C726.72,282.808,729.88,279.648,733.839,279.648z"/>
	<path d="M765.839,272.489h4.2l11.158,28.555h-4.199l-3.119-8.599H761.8l-3.2,8.599h-3.919L765.839,272.489z M763,289.247h9.678
		l-4.759-13.318h-0.08L763,289.247z"/>
	<path d="M783.641,272.489h3.399v28.555h-3.399V272.489z"/>
	<path d="M792.52,272.489h3.399v28.555h-3.399V272.489z"/>
	<path d="M838.674,301.044h-3.959l-6.519-23.996h-0.08l-6.599,23.996h-3.959l-7.319-28.555h3.879l5.599,23.756h0.08l6.399-23.756
		h4.12l6.319,23.756h0.08l5.799-23.756h3.799L838.674,301.044z"/>
	<path d="M867.676,300.964c-0.6,0.36-1.44,0.56-2.439,0.56c-1.76,0-2.879-0.96-2.879-3.2c-1.88,2.24-4.399,3.2-7.279,3.2
		c-3.76,0-6.839-1.64-6.839-5.799c0-4.679,3.479-5.719,6.999-6.359c3.719-0.76,6.959-0.44,6.959-3.039c0-3-2.479-3.439-4.599-3.439
		c-2.88,0-5,0.88-5.159,3.919h-3.399c0.2-5.119,4.119-6.918,8.758-6.918c3.719,0,7.759,0.84,7.759,5.679v10.638
		c0,1.6,0,2.32,1.08,2.32c0.32,0,0.68-0.08,1.04-0.2V300.964z M862.157,290.366c-2.64,1.959-10.318,0.04-10.318,5.119
		c0,2.24,1.92,3.04,4,3.04c4.479,0,6.319-2.76,6.319-4.679V290.366z"/>
	<path d="M875.558,280.368h4.119v3h-4.119v12.838c0,1.6,0.44,1.84,2.56,1.84h1.56v3h-2.6c-3.519,0-4.919-0.72-4.919-4.519v-13.158
		h-3.52v-3h3.52v-6.199h3.399V280.368z"/>
	<path d="M885.517,294.525c0.12,3.04,2.8,4,5.559,4c2.12,0,4.999-0.48,4.999-3.08c0-5.319-13.518-1.72-13.518-9.678
		c0-4.159,4.079-5.879,7.719-5.879c4.639,0,8.159,1.439,8.479,6.479h-3.399c-0.2-2.639-2.6-3.479-4.799-3.479
		c-2.04,0-4.399,0.56-4.399,2.639c0,2.4,3.599,2.88,6.759,3.6c3.399,0.76,6.759,1.919,6.759,5.879c0,4.959-4.599,6.519-8.798,6.519
		c-4.64,0-8.559-1.88-8.759-6.999H885.517z"/>
	<path d="M912.356,279.888c6.559,0,10.039,4.759,10.039,10.838c0,6.039-3.479,10.798-10.039,10.798s-10.038-4.759-10.038-10.798
		C902.318,284.647,905.797,279.888,912.356,279.888z M912.356,298.525c3.56,0,6.439-2.8,6.439-7.799s-2.879-7.838-6.439-7.838
		s-6.439,2.839-6.439,7.838S908.796,298.525,912.356,298.525z"/>
	<path d="M926.397,280.368h3.199v3.28h0.08c1.44-2.56,3.72-3.759,6.719-3.759c5.439,0,7.119,3.119,7.119,7.559v13.598h-3.399
		v-13.998c0-2.56-1.6-4.159-4.199-4.159c-4.12,0-6.119,2.759-6.119,6.479v11.678h-3.399V280.368z"/>
	<path d="M960.317,272.489h3.799v12.278h15.038v-12.278h3.799v28.555h-3.799v-13.078h-15.038v13.078h-3.799V272.489z"/>
	<path d="M1006.274,294.485c-0.92,4.6-4.16,7.039-8.839,7.039c-6.599,0-9.718-4.599-9.918-10.878c0-6.239,4.079-10.758,9.718-10.758
		c7.319,0,9.558,6.839,9.358,11.838h-15.478c-0.12,3.599,1.92,6.799,6.439,6.799c2.839,0,4.759-1.32,5.359-4.04H1006.274z
		 M1002.994,288.727c-0.2-3.24-2.56-5.839-5.959-5.839c-3.519,0-5.719,2.639-5.919,5.839H1002.994z"/>
	<path d="M1028.434,300.964c-0.601,0.36-1.44,0.56-2.44,0.56c-1.76,0-2.879-0.96-2.879-3.2c-1.88,2.24-4.399,3.2-7.279,3.2
		c-3.76,0-6.839-1.64-6.839-5.799c0-4.679,3.479-5.719,6.999-6.359c3.72-0.76,6.959-0.44,6.959-3.039c0-3-2.479-3.439-4.599-3.439
		c-2.88,0-5,0.88-5.159,3.919h-3.399c0.2-5.119,4.119-6.918,8.758-6.918c3.72,0,7.759,0.84,7.759,5.679v10.638
		c0,1.6,0,2.32,1.08,2.32c0.319,0,0.68-0.08,1.04-0.2V300.964z M1022.914,290.366c-2.64,1.959-10.318,0.04-10.318,5.119
		c0,2.24,1.92,3.04,4,3.04c4.479,0,6.319-2.76,6.319-4.679V290.366z"/>
	<path d="M1031.796,272.489h3.399v28.555h-3.399V272.489z"/>
	<path d="M1045.194,280.368h4.12v3h-4.12v12.838c0,1.6,0.44,1.84,2.56,1.84h1.561v3h-2.6c-3.52,0-4.92-0.72-4.92-4.519v-13.158
		h-3.519v-3h3.519v-6.199h3.399V280.368z"/>
	<path d="M1053.074,272.489h3.399v10.918h0.08c1.08-2.52,4.079-3.519,6.519-3.519c5.439,0,7.119,3.119,7.119,7.559v13.598h-3.399
		v-13.998c0-2.56-1.6-4.159-4.199-4.159c-4.119,0-6.119,2.759-6.119,6.479v11.678h-3.399V272.489z"/>
</g>
<g>
	<path d="M748.761,328.368h3.399v2.8h0.08c1.12-2.28,3.719-3.279,6.599-3.279c6.359,0,9.519,5.039,9.519,10.878
		c0,5.879-3.12,10.758-9.438,10.758c-2.08,0-5.199-0.8-6.679-3.24h-0.08v10.678h-3.399V328.368z M758.359,330.888
		c-4.599,0-6.319,3.959-6.319,7.798c0,4.04,1.84,7.839,6.519,7.839c4.639,0,6.199-3.959,6.199-7.999
		C764.758,334.647,762.758,330.888,758.359,330.888z"/>
	<path d="M789.997,342.485c-0.92,4.6-4.16,7.039-8.839,7.039c-6.599,0-9.718-4.599-9.918-10.878c0-6.239,4.079-10.758,9.718-10.758
		c7.319,0,9.558,6.839,9.358,11.838h-15.478c-0.12,3.599,1.92,6.799,6.439,6.799c2.839,0,4.759-1.32,5.359-4.04H789.997z
		 M786.717,336.727c-0.2-3.24-2.56-5.839-5.959-5.839c-3.519,0-5.719,2.639-5.919,5.839H786.717z"/>
	<path d="M793.719,328.368h3.2v4.359h0.08c1.64-3.359,3.919-4.959,7.599-4.839v3.599c-5.479,0-7.479,3.08-7.479,8.359v9.198h-3.399
		V328.368z"/>
	<path d="M809.239,342.525c0.12,3.04,2.8,4,5.559,4c2.12,0,4.999-0.48,4.999-3.08c0-5.319-13.518-1.72-13.518-9.678
		c0-4.159,4.079-5.879,7.719-5.879c4.639,0,8.159,1.439,8.479,6.479h-3.399c-0.2-2.639-2.6-3.479-4.799-3.479
		c-2.04,0-4.399,0.56-4.399,2.639c0,2.4,3.599,2.88,6.759,3.6c3.399,0.76,6.759,1.919,6.759,5.879c0,4.959-4.599,6.519-8.798,6.519
		c-4.64,0-8.559-1.88-8.759-6.999H809.239z"/>
	<path d="M836.078,327.888c6.559,0,10.039,4.759,10.039,10.838c0,6.039-3.479,10.798-10.039,10.798s-10.038-4.759-10.038-10.798
		C826.04,332.647,829.519,327.888,836.078,327.888z M836.078,346.525c3.56,0,6.439-2.8,6.439-7.799s-2.879-7.838-6.439-7.838
		s-6.439,2.839-6.439,7.838S832.518,346.525,836.078,346.525z"/>
	<path d="M850.119,328.368h3.2v3.28h0.08c1.44-2.56,3.72-3.759,6.719-3.759c5.439,0,7.119,3.119,7.119,7.559v13.598h-3.399v-13.998
		c0-2.56-1.6-4.159-4.199-4.159c-4.12,0-6.119,2.759-6.119,6.479v11.678h-3.399V328.368z"/>
	<path d="M872.358,328.368h3.199v3.28h0.08c1.44-2.56,3.72-3.759,6.719-3.759c5.439,0,7.119,3.119,7.119,7.559v13.598h-3.399
		v-13.998c0-2.56-1.6-4.159-4.199-4.159c-4.12,0-6.119,2.759-6.119,6.479v11.678h-3.399V328.368z"/>
	<path d="M912.236,342.485c-0.92,4.6-4.16,7.039-8.839,7.039c-6.599,0-9.718-4.599-9.918-10.878c0-6.239,4.079-10.758,9.718-10.758
		c7.319,0,9.558,6.839,9.358,11.838h-15.478c-0.12,3.599,1.92,6.799,6.439,6.799c2.839,0,4.759-1.32,5.359-4.04H912.236z
		 M908.956,336.727c-0.2-3.24-2.56-5.839-5.959-5.839c-3.519,0-5.719,2.639-5.919,5.839H908.956z"/>
	<path d="M916.278,320.489h3.399v28.555h-3.399V320.489z"/>
	<path d="M950.115,335.007c-0.52-2.6-2.28-4.119-5.119-4.119c-4.919,0-6.439,3.919-6.439,8.079c0,3.839,1.72,7.559,6.039,7.559
		c3.319,0,5.239-1.88,5.679-5.039h3.479c-0.76,5.079-3.879,8.039-9.119,8.039c-6.319,0-9.678-4.359-9.678-10.558
		c0-6.199,3.199-11.078,9.758-11.078c4.719,0,8.398,2.199,8.918,7.119H950.115z"/>
	<path d="M975.874,348.964c-0.6,0.36-1.44,0.56-2.439,0.56c-1.76,0-2.879-0.96-2.879-3.2c-1.88,2.24-4.399,3.2-7.279,3.2
		c-3.76,0-6.839-1.64-6.839-5.799c0-4.679,3.479-5.719,6.999-6.359c3.719-0.76,6.959-0.44,6.959-3.039c0-3-2.479-3.439-4.599-3.439
		c-2.88,0-5,0.88-5.159,3.919h-3.399c0.2-5.119,4.119-6.918,8.758-6.918c3.719,0,7.759,0.84,7.759,5.679v10.638
		c0,1.6,0,2.32,1.08,2.32c0.32,0,0.68-0.08,1.04-0.2V348.964z M970.355,338.366c-2.64,1.959-10.318,0.04-10.318,5.119
		c0,2.24,1.92,3.04,4,3.04c4.479,0,6.319-2.76,6.319-4.679V338.366z"/>
	<path d="M979.037,328.368h3.2v3.28h0.08c1.44-2.56,3.72-3.759,6.719-3.759c5.439,0,7.119,3.119,7.119,7.559v13.598h-3.399v-13.998
		c0-2.56-1.6-4.159-4.199-4.159c-4.12,0-6.119,2.759-6.119,6.479v11.678h-3.399V328.368z"/>
	<path d="M1015.996,324.648h-3.399v-4.159h3.399V324.648z M1012.597,328.368h3.399v20.677h-3.399V328.368z"/>
	<path d="M1039.753,349.044h-3.399v-2.799h-0.08c-1.12,2.279-3.72,3.279-6.599,3.279c-6.359,0-9.519-5.039-9.519-10.878
		c0-5.839,3.119-10.758,9.438-10.758c2.079,0,5.199,0.8,6.679,3.239h0.08v-10.638h3.399V349.044z M1030.154,346.525
		c4.6,0,6.319-3.959,6.319-7.799c0-4.039-1.84-7.838-6.52-7.838c-4.639,0-6.199,3.959-6.199,7.999
		C1023.755,342.766,1025.755,346.525,1030.154,346.525z"/>
	<path d="M1062.632,342.485c-0.92,4.6-4.159,7.039-8.838,7.039c-6.6,0-9.719-4.599-9.919-10.878c0-6.239,4.08-10.758,9.719-10.758
		c7.318,0,9.559,6.839,9.358,11.838h-15.478c-0.12,3.599,1.92,6.799,6.439,6.799c2.839,0,4.759-1.32,5.358-4.04H1062.632z
		 M1059.353,336.727c-0.2-3.24-2.56-5.839-5.959-5.839c-3.52,0-5.719,2.639-5.919,5.839H1059.353z"/>
	<path d="M1066.475,328.368h3.199v3.28h0.08c1.439-2.56,3.72-3.759,6.719-3.759c5.439,0,7.119,3.119,7.119,7.559v13.598h-3.399
		v-13.998c0-2.56-1.6-4.159-4.199-4.159c-4.119,0-6.119,2.759-6.119,6.479v11.678h-3.399V328.368z"/>
	<path d="M1093.434,328.368h4.12v3h-4.12v12.838c0,1.6,0.44,1.84,2.56,1.84h1.561v3h-2.6c-3.52,0-4.92-0.72-4.92-4.519v-13.158
		h-3.519v-3h3.519v-6.199h3.399V328.368z"/>
	<path d="M1104.914,324.648h-3.399v-4.159h3.399V324.648z M1101.515,328.368h3.399v20.677h-3.399V328.368z"/>
	<path d="M1111.593,331.367h-3.479v-3h3.479v-3.079c0-3.359,2-5.119,5.72-5.119c0.64,0,1.56,0.12,2.199,0.32v2.959
		c-0.6-0.2-1.319-0.28-1.92-0.28c-1.64,0-2.6,0.52-2.6,2.319v2.879h4v3h-4v17.677h-3.399V331.367z"/>
	<path d="M1130.151,351.804c-1.6,3.999-2.959,5.519-5.998,5.519c-0.801,0-1.601-0.08-2.36-0.36v-3.119c0.641,0.2,1.32,0.48,2,0.48
		c1.399,0,2.159-0.64,2.8-1.88l1.399-3.52l-8.198-20.557h3.839l6.039,16.917h0.08l5.799-16.917h3.6L1130.151,351.804z"/>
	<path d="M1171.471,348.964c-0.601,0.36-1.44,0.56-2.44,0.56c-1.76,0-2.879-0.96-2.879-3.2c-1.88,2.24-4.399,3.2-7.279,3.2
		c-3.759,0-6.839-1.64-6.839-5.799c0-4.679,3.479-5.719,6.999-6.359c3.72-0.76,6.959-0.44,6.959-3.039c0-3-2.479-3.439-4.6-3.439
		c-2.879,0-4.999,0.88-5.159,3.919h-3.399c0.2-5.119,4.12-6.918,8.759-6.918c3.72,0,7.759,0.84,7.759,5.679v10.638
		c0,1.6,0,2.32,1.08,2.32c0.319,0,0.68-0.08,1.04-0.2V348.964z M1165.951,338.366c-2.64,1.959-10.318,0.04-10.318,5.119
		c0,2.24,1.92,3.04,3.999,3.04c4.479,0,6.319-2.76,6.319-4.679V338.366z"/>
</g>
<g>
	<path d="M749.201,368.489h12.518c5.719,0,8.759,3.12,8.759,8.438c0,5.319-3.04,8.479-8.759,8.438H753v11.678h-3.799V368.489z
		 M753,382.167h7.438c4.319,0.04,6.239-1.84,6.239-5.239s-1.92-5.239-6.239-5.239H753V382.167z"/>
	<path d="M774.44,376.368h3.2v4.359h0.08c1.64-3.359,3.919-4.959,7.599-4.839v3.599c-5.479,0-7.479,3.08-7.479,8.359v9.198h-3.399
		V376.368z"/>
	<path d="M796.798,375.888c6.559,0,10.039,4.759,10.039,10.838c0,6.039-3.479,10.798-10.039,10.798s-10.038-4.759-10.038-10.798
		C786.76,380.647,790.239,375.888,796.798,375.888z M796.798,394.525c3.56,0,6.439-2.8,6.439-7.799s-2.879-7.838-6.439-7.838
		s-6.439,2.839-6.439,7.838S793.239,394.525,796.798,394.525z"/>
	<path d="M824.877,383.007c-0.52-2.6-2.28-4.119-5.119-4.119c-4.919,0-6.439,3.919-6.439,8.079c0,3.839,1.72,7.559,6.039,7.559
		c3.319,0,5.239-1.88,5.679-5.039h3.479c-0.76,5.079-3.879,8.039-9.119,8.039c-6.319,0-9.678-4.359-9.678-10.558
		c0-6.199,3.199-11.078,9.758-11.078c4.719,0,8.398,2.199,8.918,7.119H824.877z"/>
	<path d="M849.956,390.485c-0.92,4.6-4.16,7.039-8.839,7.039c-6.599,0-9.718-4.599-9.918-10.878c0-6.239,4.079-10.758,9.718-10.758
		c7.319,0,9.558,6.839,9.358,11.838h-15.478c-0.12,3.599,1.92,6.799,6.439,6.799c2.839,0,4.759-1.32,5.359-4.04H849.956z
		 M846.676,384.727c-0.2-3.24-2.56-5.839-5.959-5.839c-3.519,0-5.719,2.639-5.919,5.839H846.676z"/>
	<path d="M855.878,390.525c0.12,3.04,2.8,4,5.559,4c2.12,0,4.999-0.48,4.999-3.08c0-5.319-13.518-1.72-13.518-9.678
		c0-4.159,4.08-5.879,7.719-5.879c4.639,0,8.159,1.439,8.479,6.479h-3.399c-0.2-2.639-2.6-3.479-4.799-3.479
		c-2.04,0-4.399,0.56-4.399,2.639c0,2.4,3.599,2.88,6.759,3.6c3.399,0.76,6.759,1.919,6.759,5.879c0,4.959-4.599,6.519-8.798,6.519
		c-4.64,0-8.559-1.88-8.759-6.999H855.878z"/>
	<path d="M875.878,390.525c0.12,3.04,2.8,4,5.559,4c2.12,0,4.999-0.48,4.999-3.08c0-5.319-13.518-1.72-13.518-9.678
		c0-4.159,4.08-5.879,7.719-5.879c4.639,0,8.159,1.439,8.479,6.479h-3.399c-0.2-2.639-2.6-3.479-4.799-3.479
		c-2.04,0-4.399,0.56-4.399,2.639c0,2.4,3.599,2.88,6.759,3.6c3.399,0.76,6.759,1.919,6.759,5.879c0,4.959-4.599,6.519-8.798,6.519
		c-4.64,0-8.559-1.88-8.759-6.999H875.878z"/>
	<path d="M905.479,368.489h9.798c8.798,0,13.718,4.439,13.718,13.598c0,9.559-4.2,14.958-13.718,14.958h-9.798V368.489z
		 M909.278,393.845h6.319c2.6,0,9.598-0.72,9.598-11.238c0-6.799-2.52-10.918-9.518-10.918h-6.399V393.845z"/>
	<path d="M950.715,390.485c-0.92,4.6-4.16,7.039-8.839,7.039c-6.599,0-9.718-4.599-9.918-10.878c0-6.239,4.079-10.758,9.718-10.758
		c7.319,0,9.558,6.839,9.358,11.838h-15.478c-0.12,3.599,1.92,6.799,6.439,6.799c2.839,0,4.759-1.32,5.359-4.04H950.715z
		 M947.436,384.727c-0.2-3.24-2.56-5.839-5.959-5.839c-3.519,0-5.719,2.639-5.919,5.839H947.436z"/>
	<path d="M963.876,397.044h-3.639l-7.679-20.677h3.799l5.799,17.237h0.08l5.639-17.237h3.559L963.876,397.044z"/>
	<path d="M978.157,372.648h-3.399v-4.159h3.399V372.648z M974.758,376.368h3.399v20.677h-3.399V376.368z"/>
	<path d="M1001.754,396.964c-0.6,0.36-1.44,0.56-2.439,0.56c-1.76,0-2.879-0.96-2.879-3.2c-1.88,2.24-4.399,3.2-7.279,3.2
		c-3.76,0-6.839-1.64-6.839-5.799c0-4.679,3.479-5.719,6.999-6.359c3.719-0.76,6.959-0.44,6.959-3.039c0-3-2.479-3.439-4.599-3.439
		c-2.88,0-5,0.88-5.159,3.919h-3.399c0.2-5.119,4.119-6.918,8.758-6.918c3.719,0,7.759,0.84,7.759,5.679v10.638
		c0,1.6,0,2.32,1.08,2.32c0.32,0,0.68-0.08,1.04-0.2V396.964z M996.235,386.366c-2.64,1.959-10.318,0.04-10.318,5.119
		c0,2.24,1.92,3.04,4,3.04c4.479,0,6.319-2.76,6.319-4.679V386.366z"/>
	<path d="M1009.636,376.368h4.119v3h-4.119v12.838c0,1.6,0.44,1.84,2.56,1.84h1.56v3h-2.6c-3.519,0-4.919-0.72-4.919-4.519v-13.158
		h-3.52v-3h3.52v-6.199h3.399V376.368z"/>
	<path d="M1021.116,372.648h-3.399v-4.159h3.399V372.648z M1017.716,376.368h3.399v20.677h-3.399V376.368z"/>
	<path d="M1035.314,375.888c6.559,0,10.038,4.759,10.038,10.838c0,6.039-3.479,10.798-10.038,10.798
		c-6.56,0-10.039-4.759-10.039-10.798C1025.275,380.647,1028.755,375.888,1035.314,375.888z M1035.314,394.525
		c3.559,0,6.438-2.8,6.438-7.799s-2.88-7.838-6.438-7.838c-3.56,0-6.439,2.839-6.439,7.838S1031.755,394.525,1035.314,394.525z"/>
	<path d="M1049.355,376.368h3.199v3.28h0.08c1.439-2.56,3.72-3.759,6.719-3.759c5.439,0,7.119,3.119,7.119,7.559v13.598h-3.399
		v-13.998c0-2.56-1.6-4.159-4.199-4.159c-4.119,0-6.119,2.759-6.119,6.479v11.678h-3.399V376.368z"/>
</g>
<g>
	<path d="M733.839,471.648c3.959,0,7.159,3.16,7.159,7.119c0,3.959-3.2,7.159-7.159,7.159c-3.959,0-7.119-3.2-7.119-7.159
		C726.72,474.808,729.88,471.648,733.839,471.648z"/>
	<path d="M774.598,472.848c-0.44-4.119-3.12-5.839-7.079-5.839c-3.24,0-6.399,1.16-6.399,4.879c0,7.039,18.277,2.08,18.277,13.317
		c0,6.079-5.959,8.519-11.158,8.519c-6.399,0-11.798-3.159-11.798-10.078h3.599c0,4.799,4,6.879,8.319,6.879
		c3.439,0,7.239-1.08,7.239-5.199c0-7.839-18.277-2.68-18.277-13.158c0-5.759,5.119-8.358,10.358-8.358
		c5.839,0,10.318,2.759,10.519,9.038H774.598z"/>
	<path d="M783.561,472.368h3.399v2.8h0.08c1.12-2.28,3.719-3.279,6.599-3.279c6.359,0,9.519,5.039,9.519,10.878
		c0,5.879-3.12,10.758-9.438,10.758c-2.08,0-5.199-0.8-6.679-3.24h-0.08v10.678h-3.399V472.368z M793.159,474.888
		c-4.599,0-6.319,3.959-6.319,7.798c0,4.04,1.84,7.839,6.519,7.839c4.639,0,6.199-3.959,6.199-7.999
		C799.558,478.647,797.558,474.888,793.159,474.888z"/>
	<path d="M824.797,486.485c-0.92,4.6-4.16,7.039-8.839,7.039c-6.599,0-9.718-4.599-9.918-10.878c0-6.239,4.079-10.758,9.718-10.758
		c7.319,0,9.558,6.839,9.358,11.838h-15.478c-0.12,3.599,1.92,6.799,6.439,6.799c2.839,0,4.759-1.32,5.359-4.04H824.797z
		 M821.517,480.727c-0.2-3.24-2.56-5.839-5.959-5.839c-3.519,0-5.719,2.639-5.919,5.839H821.517z"/>
	<path d="M842.677,479.007c-0.52-2.6-2.28-4.119-5.119-4.119c-4.919,0-6.439,3.919-6.439,8.079c0,3.839,1.72,7.559,6.039,7.559
		c3.319,0,5.239-1.88,5.679-5.039h3.479c-0.76,5.079-3.879,8.039-9.119,8.039c-6.319,0-9.678-4.359-9.678-10.558
		c0-6.199,3.199-11.078,9.758-11.078c4.719,0,8.398,2.199,8.918,7.119H842.677z"/>
	<path d="M853.718,468.648h-3.399v-4.159h3.399V468.648z M850.319,472.368h3.399v20.677h-3.399V472.368z"/>
	<path d="M877.315,492.964c-0.6,0.36-1.44,0.56-2.439,0.56c-1.76,0-2.879-0.96-2.879-3.2c-1.88,2.24-4.399,3.2-7.279,3.2
		c-3.76,0-6.839-1.64-6.839-5.799c0-4.679,3.479-5.719,6.999-6.359c3.72-0.76,6.959-0.44,6.959-3.039c0-3-2.479-3.439-4.599-3.439
		c-2.88,0-5,0.88-5.159,3.919h-3.399c0.2-5.119,4.119-6.918,8.758-6.918c3.72,0,7.759,0.84,7.759,5.679v10.638
		c0,1.6,0,2.32,1.08,2.32c0.32,0,0.68-0.08,1.04-0.2V492.964z M871.796,482.366c-2.64,1.959-10.318,0.04-10.318,5.119
		c0,2.24,1.92,3.04,4,3.04c4.479,0,6.319-2.76,6.319-4.679V482.366z"/>
	<path d="M880.678,464.489h3.399v28.555h-3.399V464.489z"/>
	<path d="M892.957,468.648h-3.399v-4.159h3.399V468.648z M889.557,472.368h3.399v20.677h-3.399V472.368z"/>
	<path d="M896.557,490.445l12.478-15.078h-11.678v-3h16.077v2.32l-12.638,15.357h13.198v3h-17.437V490.445z"/>
	<path d="M935.073,486.485c-0.92,4.6-4.16,7.039-8.839,7.039c-6.599,0-9.718-4.599-9.918-10.878c0-6.239,4.079-10.758,9.718-10.758
		c7.319,0,9.558,6.839,9.358,11.838h-15.478c-0.12,3.599,1.92,6.799,6.439,6.799c2.839,0,4.759-1.32,5.359-4.04H935.073z
		 M931.793,480.727c-0.2-3.24-2.56-5.839-5.959-5.839c-3.519,0-5.719,2.639-5.919,5.839H931.793z"/>
	<path d="M957.393,493.044h-3.399v-2.799h-0.08c-1.12,2.279-3.719,3.279-6.599,3.279c-6.359,0-9.518-5.039-9.518-10.878
		c0-5.839,3.119-10.758,9.438-10.758c2.08,0,5.199,0.8,6.679,3.239h0.08v-10.638h3.399V493.044z M947.794,490.525
		c4.599,0,6.319-3.959,6.319-7.799c0-4.039-1.839-7.838-6.519-7.838c-4.639,0-6.199,3.959-6.199,7.999
		C941.395,486.766,943.395,490.525,947.794,490.525z"/>
	<path d="M973.875,472.368h3.399v2.8h0.08c1.12-2.28,3.719-3.279,6.599-3.279c6.359,0,9.519,5.039,9.519,10.878
		c0,5.879-3.12,10.758-9.438,10.758c-2.08,0-5.199-0.8-6.679-3.24h-0.08v10.678h-3.399V472.368z M983.473,474.888
		c-4.599,0-6.319,3.959-6.319,7.798c0,4.04,1.84,7.839,6.519,7.839c4.639,0,6.199-3.959,6.199-7.999
		C989.872,478.647,987.873,474.888,983.473,474.888z"/>
	<path d="M1015.112,486.485c-0.92,4.6-4.16,7.039-8.839,7.039c-6.599,0-9.718-4.599-9.918-10.878c0-6.239,4.079-10.758,9.718-10.758
		c7.319,0,9.558,6.839,9.358,11.838h-15.478c-0.12,3.599,1.92,6.799,6.439,6.799c2.839,0,4.759-1.32,5.359-4.04H1015.112z
		 M1011.832,480.727c-0.2-3.24-2.56-5.839-5.959-5.839c-3.519,0-5.719,2.639-5.919,5.839H1011.832z"/>
	<path d="M1018.834,472.368h3.2v4.359h0.08c1.64-3.359,3.919-4.959,7.598-4.839v3.599c-5.479,0-7.479,3.08-7.479,8.359v9.198h-3.399
		V472.368z"/>
	<path d="M1034.354,486.525c0.119,3.04,2.799,4,5.559,4c2.12,0,4.999-0.48,4.999-3.08c0-5.319-13.518-1.72-13.518-9.678
		c0-4.159,4.079-5.879,7.719-5.879c4.64,0,8.158,1.439,8.479,6.479h-3.399c-0.2-2.639-2.6-3.479-4.799-3.479
		c-2.04,0-4.399,0.56-4.399,2.639c0,2.4,3.6,2.88,6.759,3.6c3.399,0.76,6.759,1.919,6.759,5.879c0,4.959-4.6,6.519-8.799,6.519
		c-4.639,0-8.559-1.88-8.758-6.999H1034.354z"/>
	<path d="M1061.192,471.888c6.559,0,10.038,4.759,10.038,10.838c0,6.039-3.479,10.798-10.038,10.798
		c-6.56,0-10.039-4.759-10.039-10.798C1051.153,476.647,1054.633,471.888,1061.192,471.888z M1061.192,490.525
		c3.559,0,6.438-2.8,6.438-7.799s-2.88-7.838-6.438-7.838c-3.56,0-6.439,2.839-6.439,7.838S1057.633,490.525,1061.192,490.525z"/>
	<path d="M1075.233,472.368h3.199v3.28h0.08c1.439-2.56,3.72-3.759,6.719-3.759c5.439,0,7.119,3.119,7.119,7.559v13.598h-3.399
		v-13.998c0-2.56-1.6-4.159-4.199-4.159c-4.119,0-6.119,2.759-6.119,6.479v11.678h-3.399V472.368z"/>
	<path d="M1097.474,472.368h3.199v3.28h0.08c1.439-2.56,3.72-3.759,6.719-3.759c5.439,0,7.119,3.119,7.119,7.559v13.598h-3.399
		v-13.998c0-2.56-1.6-4.159-4.199-4.159c-4.119,0-6.119,2.759-6.119,6.479v11.678h-3.399V472.368z"/>
	<path d="M1137.351,486.485c-0.92,4.6-4.159,7.039-8.838,7.039c-6.6,0-9.719-4.599-9.919-10.878c0-6.239,4.08-10.758,9.719-10.758
		c7.318,0,9.559,6.839,9.358,11.838h-15.478c-0.12,3.599,1.92,6.799,6.439,6.799c2.839,0,4.759-1.32,5.358-4.04H1137.351z
		 M1134.071,480.727c-0.2-3.24-2.56-5.839-5.959-5.839c-3.52,0-5.719,2.639-5.919,5.839H1134.071z"/>
	<path d="M1141.393,464.489h3.399v28.555h-3.399V464.489z"/>
	<path d="M1181.669,493.044h-3.6l-4.199-16.437h-0.08l-4.159,16.437h-3.68l-6.639-20.677h3.76l4.679,16.917h0.08l4.159-16.917h3.72
		l4.319,16.917h0.08l4.639-16.917h3.52L1181.669,493.044z"/>
	<path d="M1195.111,468.648h-3.399v-4.159h3.399V468.648z M1191.712,472.368h3.399v20.677h-3.399V472.368z"/>
	<path d="M1200.592,464.489h3.399v28.555h-3.399V464.489z"/>
	<path d="M1209.471,464.489h3.399v28.555h-3.399V464.489z"/>
</g>
<g>
	<path d="M748.761,520.367h3.399v2.8h0.08c1.12-2.279,3.719-3.279,6.599-3.279c6.359,0,9.519,5.039,9.519,10.878
		c0,5.879-3.12,10.758-9.438,10.758c-2.08,0-5.199-0.8-6.679-3.239h-0.08v10.679h-3.399V520.367z M758.359,522.887
		c-4.599,0-6.319,3.96-6.319,7.799c0,4.039,1.84,7.839,6.519,7.839c4.639,0,6.199-3.959,6.199-7.999
		C764.758,526.646,762.758,522.887,758.359,522.887z"/>
	<path d="M790.677,540.964c-0.6,0.36-1.44,0.56-2.439,0.56c-1.76,0-2.879-0.959-2.879-3.199c-1.88,2.24-4.399,3.199-7.279,3.199
		c-3.76,0-6.839-1.64-6.839-5.799c0-4.679,3.479-5.719,6.999-6.358c3.719-0.76,6.959-0.44,6.959-3.04
		c0-2.999-2.479-3.439-4.599-3.439c-2.88,0-5,0.88-5.159,3.92h-3.399c0.2-5.119,4.119-6.919,8.758-6.919
		c3.719,0,7.759,0.84,7.759,5.679v10.639c0,1.6,0,2.319,1.08,2.319c0.32,0,0.68-0.08,1.04-0.2V540.964z M785.158,530.366
		c-2.64,1.959-10.318,0.039-10.318,5.119c0,2.239,1.92,3.039,4,3.039c4.479,0,6.319-2.76,6.319-4.68V530.366z"/>
	<path d="M793.719,520.367h3.2v4.359h0.08c1.64-3.359,3.919-4.959,7.599-4.839v3.6c-5.479,0-7.479,3.079-7.479,8.358v9.198h-3.399
		V520.367z"/>
	<path d="M811.878,520.367h4.119v3h-4.119v12.838c0,1.6,0.44,1.84,2.56,1.84h1.56v2.999h-2.6c-3.519,0-4.919-0.72-4.919-4.52
		v-13.157h-3.52v-3h3.52v-6.199h3.399V520.367z"/>
	<path d="M823.358,516.648h-3.399v-4.16h3.399V516.648z M819.959,520.367h3.399v20.677h-3.399V520.367z"/>
	<path d="M842.675,527.006c-0.52-2.6-2.28-4.119-5.119-4.119c-4.919,0-6.439,3.92-6.439,8.079c0,3.839,1.72,7.559,6.039,7.559
		c3.319,0,5.239-1.88,5.679-5.039h3.479c-0.76,5.079-3.879,8.038-9.119,8.038c-6.319,0-9.678-4.358-9.678-10.558
		s3.199-11.078,9.758-11.078c4.719,0,8.398,2.199,8.918,7.118H842.675z"/>
	<path d="M853.717,516.648h-3.399v-4.16h3.399V516.648z M850.317,520.367h3.399v20.677h-3.399V520.367z"/>
	<path d="M859.117,520.367h3.399v2.8h0.08c1.12-2.279,3.719-3.279,6.599-3.279c6.359,0,9.519,5.039,9.519,10.878
		c0,5.879-3.12,10.758-9.438,10.758c-2.08,0-5.199-0.8-6.679-3.239h-0.08v10.679h-3.399V520.367z M868.715,522.887
		c-4.599,0-6.319,3.96-6.319,7.799c0,4.039,1.84,7.839,6.519,7.839c4.639,0,6.199-3.959,6.199-7.999
		C875.114,526.646,873.115,522.887,868.715,522.887z"/>
	<path d="M901.033,540.964c-0.6,0.36-1.44,0.56-2.439,0.56c-1.76,0-2.879-0.959-2.879-3.199c-1.88,2.24-4.399,3.199-7.279,3.199
		c-3.76,0-6.839-1.64-6.839-5.799c0-4.679,3.479-5.719,6.999-6.358c3.719-0.76,6.959-0.44,6.959-3.04
		c0-2.999-2.479-3.439-4.599-3.439c-2.88,0-5,0.88-5.159,3.92h-3.399c0.2-5.119,4.119-6.919,8.758-6.919
		c3.719,0,7.759,0.84,7.759,5.679v10.639c0,1.6,0,2.319,1.08,2.319c0.32,0,0.68-0.08,1.04-0.2V540.964z M895.514,530.366
		c-2.64,1.959-10.318,0.039-10.318,5.119c0,2.239,1.92,3.039,4,3.039c4.479,0,6.319-2.76,6.319-4.68V530.366z"/>
	<path d="M908.915,520.367h4.119v3h-4.119v12.838c0,1.6,0.44,1.84,2.56,1.84h1.56v2.999h-2.6c-3.519,0-4.919-0.72-4.919-4.52
		v-13.157h-3.52v-3h3.52v-6.199h3.399V520.367z"/>
	<path d="M934.433,534.485c-0.92,4.599-4.16,7.038-8.839,7.038c-6.599,0-9.718-4.599-9.918-10.878
		c0-6.239,4.079-10.758,9.718-10.758c7.319,0,9.558,6.839,9.358,11.838h-15.478c-0.12,3.6,1.92,6.799,6.439,6.799
		c2.839,0,4.759-1.319,5.359-4.039H934.433z M931.153,528.726c-0.2-3.239-2.56-5.839-5.959-5.839c-3.519,0-5.719,2.64-5.919,5.839
		H931.153z"/>
	<path d="M952.994,516.648h-3.399v-4.16h3.399V516.648z M949.595,520.367h3.399v20.677h-3.399V520.367z"/>
	<path d="M958.274,520.367h3.199v3.279h0.08c1.44-2.56,3.72-3.759,6.719-3.759c5.439,0,7.119,3.119,7.119,7.559v13.598h-3.399
		v-13.998c0-2.56-1.6-4.159-4.199-4.159c-4.12,0-6.119,2.76-6.119,6.479v11.678h-3.399V520.367z"/>
	<path d="M1000.553,519.888c6.559,0,10.039,4.759,10.039,10.838c0,6.039-3.479,10.798-10.039,10.798s-10.038-4.759-10.038-10.798
		C990.515,524.646,993.994,519.888,1000.553,519.888z M1000.553,538.524c3.56,0,6.439-2.8,6.439-7.799s-2.879-7.839-6.439-7.839
		s-6.439,2.84-6.439,7.839S996.993,538.524,1000.553,538.524z"/>
	<path d="M1014.714,520.367h3.399v2.8h0.08c1.12-2.279,3.719-3.279,6.599-3.279c6.359,0,9.519,5.039,9.519,10.878
		c0,5.879-3.119,10.758-9.438,10.758c-2.08,0-5.199-0.8-6.679-3.239h-0.08v10.679h-3.399V520.367z M1024.312,522.887
		c-4.6,0-6.319,3.96-6.319,7.799c0,4.039,1.84,7.839,6.519,7.839c4.64,0,6.199-3.959,6.199-7.999
		C1030.711,526.646,1028.711,522.887,1024.312,522.887z"/>
	<path d="M1055.95,534.485c-0.92,4.599-4.159,7.038-8.838,7.038c-6.6,0-9.719-4.599-9.919-10.878c0-6.239,4.08-10.758,9.719-10.758
		c7.318,0,9.559,6.839,9.358,11.838h-15.478c-0.12,3.6,1.92,6.799,6.439,6.799c2.839,0,4.759-1.319,5.358-4.039H1055.95z
		 M1052.671,528.726c-0.2-3.239-2.56-5.839-5.959-5.839c-3.52,0-5.719,2.64-5.919,5.839H1052.671z"/>
	<path d="M1059.793,520.367h3.199v3.279h0.08c1.439-2.56,3.72-3.759,6.719-3.759c5.439,0,7.119,3.119,7.119,7.559v13.598h-3.399
		v-13.998c0-2.56-1.6-4.159-4.199-4.159c-4.119,0-6.119,2.76-6.119,6.479v11.678h-3.399V520.367z"/>
	<path d="M1085.632,516.648h-3.399v-4.16h3.399V516.648z M1082.232,520.367h3.399v20.677h-3.399V520.367z"/>
	<path d="M1090.912,520.367h3.199v3.279h0.08c1.439-2.56,3.72-3.759,6.719-3.759c5.439,0,7.119,3.119,7.119,7.559v13.598h-3.399
		v-13.998c0-2.56-1.6-4.159-4.199-4.159c-4.119,0-6.119,2.76-6.119,6.479v11.678h-3.399V520.367z"/>
	<path d="M1130.989,539.284c0,6.759-3.039,10.158-9.599,10.158c-3.879,0-8.358-1.6-8.559-6.079h3.399
		c0.12,2.439,3.16,3.359,5.359,3.359c4.439,0,6.199-3.199,6.199-7.838v-1.36h-0.08c-1.16,2.52-3.8,3.76-6.439,3.76
		c-6.158,0-9.238-4.84-9.238-10.479c0-4.879,2.36-10.918,9.559-10.918c2.6,0,4.919,1.159,6.159,3.439h0.04v-2.96h3.199V539.284z
		 M1127.63,530.286c0-3.64-1.6-7.399-5.879-7.399c-4.359,0-6.119,3.56-6.119,7.519c0,3.72,1.36,7.879,5.839,7.879
		C1125.95,538.284,1127.63,534.165,1127.63,530.286z"/>
	<path d="M1136.871,536.604h4.439v4.039c0,3.04-1.32,5.359-4.399,6.279v-2c1.76-0.64,2.439-2.56,2.319-3.879h-2.359V536.604z"/>
</g>
<g>
	<path d="M752.24,564.648h-3.399v-4.16h3.399V564.648z M748.841,568.367h3.399v20.677h-3.399V568.367z"/>
	<path d="M757.52,568.367h3.199v3.279h0.08c1.44-2.56,3.72-3.759,6.719-3.759c5.439,0,7.119,3.119,7.119,7.559v13.598h-3.399
		v-13.998c0-2.56-1.6-4.159-4.199-4.159c-4.12,0-6.119,2.76-6.119,6.479v11.678h-3.399V568.367z"/>
	<path d="M789.078,589.044h-3.639l-7.679-20.677h3.799l5.799,17.237h0.08l5.639-17.237h3.559L789.078,589.044z"/>
	<path d="M817.397,582.485c-0.92,4.599-4.16,7.038-8.839,7.038c-6.599,0-9.718-4.599-9.918-10.878
		c0-6.239,4.079-10.758,9.718-10.758c7.319,0,9.558,6.839,9.358,11.838h-15.478c-0.12,3.6,1.92,6.799,6.439,6.799
		c2.839,0,4.759-1.319,5.359-4.039H817.397z M814.117,576.726c-0.2-3.239-2.56-5.839-5.959-5.839c-3.519,0-5.719,2.64-5.919,5.839
		H814.117z"/>
	<path d="M823.319,582.525c0.12,3.039,2.8,3.999,5.559,3.999c2.12,0,4.999-0.479,4.999-3.079c0-5.319-13.518-1.72-13.518-9.679
		c0-4.159,4.079-5.879,7.719-5.879c4.639,0,8.159,1.439,8.479,6.479h-3.399c-0.2-2.64-2.6-3.479-4.799-3.479
		c-2.04,0-4.399,0.561-4.399,2.64c0,2.399,3.599,2.88,6.759,3.6c3.399,0.76,6.759,1.92,6.759,5.879c0,4.959-4.599,6.519-8.798,6.519
		c-4.64,0-8.559-1.879-8.759-6.998H823.319z"/>
	<path d="M845.958,568.367h4.119v3h-4.119v12.838c0,1.6,0.44,1.84,2.56,1.84h1.56v2.999h-2.6c-3.519,0-4.919-0.72-4.919-4.52
		v-13.157h-3.52v-3h3.52v-6.199h3.399V568.367z"/>
	<path d="M857.438,564.648h-3.399v-4.16h3.399V564.648z M854.039,568.367h3.399v20.677h-3.399V568.367z"/>
	<path d="M880.555,587.284c0,6.759-3.04,10.158-9.598,10.158c-3.879,0-8.359-1.6-8.559-6.079h3.399
		c0.12,2.439,3.159,3.359,5.359,3.359c4.439,0,6.199-3.199,6.199-7.838v-1.36h-0.08c-1.16,2.52-3.799,3.76-6.439,3.76
		c-6.159,0-9.238-4.84-9.238-10.479c0-4.879,2.359-10.918,9.558-10.918c2.6,0,4.919,1.159,6.159,3.439h0.04v-2.96h3.199V587.284z
		 M877.196,578.286c0-3.64-1.6-7.399-5.879-7.399c-4.359,0-6.119,3.56-6.119,7.519c0,3.72,1.36,7.879,5.839,7.879
		C875.516,586.284,877.196,582.165,877.196,578.286z"/>
	<path d="M903.995,588.964c-0.6,0.36-1.44,0.56-2.439,0.56c-1.76,0-2.879-0.959-2.879-3.199c-1.88,2.24-4.399,3.199-7.279,3.199
		c-3.76,0-6.839-1.64-6.839-5.799c0-4.679,3.479-5.719,6.999-6.358c3.72-0.76,6.959-0.44,6.959-3.04
		c0-2.999-2.479-3.439-4.599-3.439c-2.88,0-5,0.88-5.159,3.92h-3.399c0.2-5.119,4.119-6.919,8.758-6.919
		c3.72,0,7.759,0.84,7.759,5.679v10.639c0,1.6,0,2.319,1.08,2.319c0.32,0,0.68-0.08,1.04-0.2V588.964z M898.476,578.366
		c-2.64,1.959-10.318,0.039-10.318,5.119c0,2.239,1.92,3.039,4,3.039c4.479,0,6.319-2.76,6.319-4.68V578.366z"/>
	<path d="M911.876,568.367h4.119v3h-4.119v12.838c0,1.6,0.44,1.84,2.56,1.84h1.56v2.999h-2.6c-3.519,0-4.919-0.72-4.919-4.52
		v-13.157h-3.52v-3h3.52v-6.199h3.399V568.367z"/>
	<path d="M923.356,564.648h-3.399v-4.16h3.399V564.648z M919.957,568.367h3.399v20.677h-3.399V568.367z"/>
	<path d="M928.636,568.367h3.2v3.279h0.08c1.44-2.56,3.72-3.759,6.719-3.759c5.439,0,7.119,3.119,7.119,7.559v13.598h-3.399v-13.998
		c0-2.56-1.6-4.159-4.199-4.159c-4.12,0-6.119,2.76-6.119,6.479v11.678h-3.399V568.367z"/>
	<path d="M968.713,587.284c0,6.759-3.04,10.158-9.598,10.158c-3.879,0-8.359-1.6-8.559-6.079h3.399
		c0.12,2.439,3.159,3.359,5.359,3.359c4.439,0,6.199-3.199,6.199-7.838v-1.36h-0.08c-1.16,2.52-3.799,3.76-6.439,3.76
		c-6.159,0-9.238-4.84-9.238-10.479c0-4.879,2.359-10.918,9.558-10.918c2.6,0,4.919,1.159,6.159,3.439h0.04v-2.96h3.199V587.284z
		 M965.354,578.286c0-3.64-1.6-7.399-5.879-7.399c-4.359,0-6.119,3.56-6.119,7.519c0,3.72,1.36,7.879,5.839,7.879
		C963.674,586.284,965.354,582.165,965.354,578.286z"/>
	<path d="M974.596,584.604h4.439v4.039c0,3.04-1.32,5.359-4.399,6.279v-2c1.76-0.64,2.439-2.56,2.32-3.879h-2.36V584.604z"/>
	<path d="M1010.113,575.006c-0.52-2.6-2.28-4.119-5.119-4.119c-4.919,0-6.439,3.92-6.439,8.079c0,3.839,1.72,7.559,6.039,7.559
		c3.319,0,5.239-1.88,5.679-5.039h3.479c-0.76,5.079-3.879,8.038-9.119,8.038c-6.319,0-9.678-4.358-9.678-10.558
		s3.199-11.078,9.758-11.078c4.719,0,8.398,2.199,8.918,7.118H1010.113z"/>
	<path d="M1026.474,567.888c6.559,0,10.038,4.759,10.038,10.838c0,6.039-3.479,10.798-10.038,10.798
		c-6.559,0-10.038-4.759-10.038-10.798C1016.436,572.646,1019.915,567.888,1026.474,567.888z M1026.474,586.524
		c3.56,0,6.438-2.8,6.438-7.799s-2.879-7.839-6.438-7.839s-6.439,2.84-6.439,7.839S1022.914,586.524,1026.474,586.524z"/>
	<path d="M1040.395,568.367h3.199v4.359h0.08c1.64-3.359,3.92-4.959,7.599-4.839v3.6c-5.479,0-7.479,3.079-7.479,8.358v9.198h-3.399
		V568.367z"/>
	<path d="M1053.715,568.367h3.199v4.359h0.08c1.64-3.359,3.92-4.959,7.599-4.839v3.6c-5.479,0-7.479,3.079-7.479,8.358v9.198h-3.399
		V568.367z"/>
	<path d="M1084.791,582.485c-0.92,4.599-4.159,7.038-8.838,7.038c-6.6,0-9.719-4.599-9.919-10.878c0-6.239,4.08-10.758,9.719-10.758
		c7.318,0,9.559,6.839,9.358,11.838h-15.478c-0.12,3.6,1.92,6.799,6.439,6.799c2.839,0,4.759-1.319,5.358-4.039H1084.791z
		 M1081.512,576.726c-0.2-3.239-2.56-5.839-5.959-5.839c-3.52,0-5.719,2.64-5.919,5.839H1081.512z"/>
	<path d="M1102.672,575.006c-0.521-2.6-2.28-4.119-5.119-4.119c-4.92,0-6.439,3.92-6.439,8.079c0,3.839,1.72,7.559,6.039,7.559
		c3.319,0,5.239-1.88,5.679-5.039h3.479c-0.76,5.079-3.879,8.038-9.118,8.038c-6.319,0-9.679-4.358-9.679-10.558
		s3.2-11.078,9.759-11.078c4.719,0,8.398,2.199,8.918,7.118H1102.672z"/>
	<path d="M1114.832,568.367h4.12v3h-4.12v12.838c0,1.6,0.44,1.84,2.56,1.84h1.561v2.999h-2.6c-3.52,0-4.92-0.72-4.92-4.52v-13.157
		h-3.519v-3h3.519v-6.199h3.399V568.367z"/>
	<path d="M1126.312,564.648h-3.399v-4.16h3.399V564.648z M1122.913,568.367h3.399v20.677h-3.399V568.367z"/>
	<path d="M1131.592,568.367h3.199v3.279h0.08c1.439-2.56,3.72-3.759,6.719-3.759c5.439,0,7.119,3.119,7.119,7.559v13.598h-3.399
		v-13.998c0-2.56-1.6-4.159-4.199-4.159c-4.119,0-6.119,2.76-6.119,6.479v11.678h-3.399V568.367z"/>
	<path d="M1171.669,587.284c0,6.759-3.039,10.158-9.599,10.158c-3.879,0-8.358-1.6-8.559-6.079h3.399
		c0.12,2.439,3.16,3.359,5.359,3.359c4.439,0,6.199-3.199,6.199-7.838v-1.36h-0.08c-1.16,2.52-3.8,3.76-6.439,3.76
		c-6.158,0-9.238-4.84-9.238-10.479c0-4.879,2.36-10.918,9.559-10.918c2.6,0,4.919,1.159,6.159,3.439h0.04v-2.96h3.199V587.284z
		 M1168.31,578.286c0-3.64-1.6-7.399-5.879-7.399c-4.359,0-6.119,3.56-6.119,7.519c0,3.72,1.36,7.879,5.839,7.879
		C1166.63,586.284,1168.31,582.165,1168.31,578.286z"/>
	<path d="M1177.552,584.604h4.439v4.039c0,3.04-1.32,5.359-4.399,6.279v-2c1.76-0.64,2.439-2.56,2.319-3.879h-2.359V584.604z"/>
</g>
<g>
	<path d="M766.958,636.964c-0.6,0.36-1.44,0.56-2.439,0.56c-1.76,0-2.879-0.959-2.879-3.199c-1.88,2.24-4.399,3.199-7.279,3.199
		c-3.76,0-6.839-1.64-6.839-5.799c0-4.679,3.479-5.719,6.999-6.358c3.72-0.76,6.959-0.44,6.959-3.04
		c0-2.999-2.479-3.439-4.599-3.439c-2.88,0-5,0.88-5.159,3.92h-3.399c0.2-5.119,4.119-6.919,8.758-6.919
		c3.72,0,7.759,0.84,7.759,5.679v10.639c0,1.6,0,2.319,1.08,2.319c0.32,0,0.68-0.08,1.04-0.2V636.964z M761.438,626.366
		c-2.64,1.959-10.318,0.039-10.318,5.119c0,2.239,1.92,3.039,4,3.039c4.479,0,6.319-2.76,6.319-4.68V626.366z"/>
	<path d="M770.12,616.367h3.199v3.279h0.08c1.44-2.56,3.72-3.759,6.719-3.759c5.439,0,7.119,3.119,7.119,7.559v13.598h-3.399
		v-13.998c0-2.56-1.6-4.159-4.199-4.159c-4.12,0-6.119,2.76-6.119,6.479v11.678h-3.399V616.367z"/>
	<path d="M810.837,637.044h-3.399v-2.8h-0.08c-1.12,2.28-3.719,3.279-6.599,3.279c-6.359,0-9.518-5.039-9.518-10.878
		s3.119-10.758,9.438-10.758c2.08,0,5.199,0.8,6.679,3.239h0.08v-10.639h3.399V637.044z M801.238,634.524
		c4.599,0,6.319-3.959,6.319-7.799c0-4.039-1.839-7.839-6.519-7.839c-4.639,0-6.199,3.96-6.199,7.999
		C794.839,630.765,796.839,634.524,801.238,634.524z"/>
	<path d="M841.237,623.006c-0.52-2.6-2.28-4.119-5.119-4.119c-4.919,0-6.439,3.92-6.439,8.079c0,3.839,1.72,7.559,6.039,7.559
		c3.319,0,5.239-1.88,5.679-5.039h3.479c-0.76,5.079-3.879,8.038-9.119,8.038c-6.319,0-9.678-4.358-9.678-10.558
		s3.199-11.078,9.758-11.078c4.719,0,8.398,2.199,8.918,7.118H841.237z"/>
	<path d="M848.879,608.488h3.399v28.556h-3.399V608.488z"/>
	<path d="M866.477,615.888c6.559,0,10.039,4.759,10.039,10.838c0,6.039-3.479,10.798-10.039,10.798s-10.038-4.759-10.038-10.798
		C856.438,620.646,859.917,615.888,866.477,615.888z M866.477,634.524c3.56,0,6.439-2.8,6.439-7.799s-2.879-7.839-6.439-7.839
		s-6.439,2.84-6.439,7.839S862.917,634.524,866.477,634.524z"/>
	<path d="M882.597,630.525c0.12,3.039,2.8,3.999,5.559,3.999c2.12,0,4.999-0.479,4.999-3.079c0-5.319-13.518-1.72-13.518-9.679
		c0-4.159,4.079-5.879,7.719-5.879c4.639,0,8.159,1.439,8.479,6.479h-3.399c-0.2-2.64-2.6-3.479-4.799-3.479
		c-2.04,0-4.399,0.561-4.399,2.64c0,2.399,3.599,2.88,6.759,3.6c3.399,0.76,6.759,1.92,6.759,5.879c0,4.959-4.599,6.519-8.798,6.519
		c-4.64,0-8.559-1.879-8.759-6.998H882.597z"/>
	<path d="M904.117,612.648h-3.399v-4.16h3.399V612.648z M900.718,616.367h3.399v20.677h-3.399V616.367z"/>
	<path d="M909.397,616.367h3.199v3.279h0.08c1.44-2.56,3.72-3.759,6.719-3.759c5.439,0,7.119,3.119,7.119,7.559v13.598h-3.399
		v-13.998c0-2.56-1.6-4.159-4.199-4.159c-4.12,0-6.119,2.76-6.119,6.479v11.678h-3.399V616.367z"/>
	<path d="M949.474,635.284c0,6.759-3.04,10.158-9.598,10.158c-3.879,0-8.359-1.6-8.559-6.079h3.399
		c0.12,2.439,3.159,3.359,5.359,3.359c4.439,0,6.199-3.199,6.199-7.838v-1.36h-0.08c-1.16,2.52-3.799,3.76-6.439,3.76
		c-6.159,0-9.238-4.84-9.238-10.479c0-4.879,2.359-10.918,9.558-10.918c2.6,0,4.919,1.159,6.159,3.439h0.04v-2.96h3.199V635.284z
		 M946.115,626.286c0-3.64-1.6-7.399-5.879-7.399c-4.359,0-6.119,3.56-6.119,7.519c0,3.72,1.36,7.879,5.839,7.879
		C944.435,634.284,946.115,630.165,946.115,626.286z"/>
	<path d="M984.034,636.964c-0.6,0.36-1.44,0.56-2.439,0.56c-1.76,0-2.879-0.959-2.879-3.199c-1.88,2.24-4.399,3.199-7.279,3.199
		c-3.76,0-6.839-1.64-6.839-5.799c0-4.679,3.479-5.719,6.999-6.358c3.72-0.76,6.959-0.44,6.959-3.04
		c0-2.999-2.479-3.439-4.599-3.439c-2.88,0-5,0.88-5.159,3.92h-3.399c0.2-5.119,4.119-6.919,8.758-6.919
		c3.72,0,7.759,0.84,7.759,5.679v10.639c0,1.6,0,2.319,1.08,2.319c0.32,0,0.68-0.08,1.04-0.2V636.964z M978.515,626.366
		c-2.64,1.959-10.318,0.039-10.318,5.119c0,2.239,1.92,3.039,4,3.039c4.479,0,6.319-2.76,6.319-4.68V626.366z"/>
	<path d="M1016.793,637.044h-3.399v-2.8h-0.08c-1.12,2.28-3.719,3.279-6.599,3.279c-6.359,0-9.518-5.039-9.518-10.878
		s3.119-10.758,9.438-10.758c2.08,0,5.199,0.8,6.679,3.239h0.08v-10.639h3.399V637.044z M1007.195,634.524
		c4.599,0,6.319-3.959,6.319-7.799c0-4.039-1.839-7.839-6.519-7.839c-4.639,0-6.199,3.96-6.199,7.999
		C1000.796,630.765,1002.796,634.524,1007.195,634.524z"/>
	<path d="M1039.673,630.485c-0.92,4.599-4.159,7.038-8.839,7.038c-6.599,0-9.718-4.599-9.918-10.878
		c0-6.239,4.079-10.758,9.718-10.758c7.319,0,9.559,6.839,9.358,11.838h-15.477c-0.12,3.6,1.919,6.799,6.438,6.799
		c2.84,0,4.759-1.319,5.359-4.039H1039.673z M1036.394,624.726c-0.2-3.239-2.56-5.839-5.959-5.839c-3.52,0-5.72,2.64-5.919,5.839
		H1036.394z"/>
	<path d="M1052.834,637.044h-3.64l-7.679-20.677h3.8l5.799,17.237h0.08l5.639-17.237h3.56L1052.834,637.044z"/>
	<path d="M1067.115,612.648h-3.399v-4.16h3.399V612.648z M1063.716,616.367h3.399v20.677h-3.399V616.367z"/>
	<path d="M1090.712,636.964c-0.601,0.36-1.44,0.56-2.44,0.56c-1.76,0-2.879-0.959-2.879-3.199c-1.88,2.24-4.399,3.199-7.279,3.199
		c-3.759,0-6.839-1.64-6.839-5.799c0-4.679,3.479-5.719,6.999-6.358c3.72-0.76,6.959-0.44,6.959-3.04c0-2.999-2.479-3.439-4.6-3.439
		c-2.879,0-4.999,0.88-5.159,3.92h-3.399c0.2-5.119,4.12-6.919,8.759-6.919c3.72,0,7.759,0.84,7.759,5.679v10.639
		c0,1.6,0,2.319,1.08,2.319c0.319,0,0.68-0.08,1.04-0.2V636.964z M1085.192,626.366c-2.64,1.959-10.318,0.039-10.318,5.119
		c0,2.239,1.92,3.039,3.999,3.039c4.479,0,6.319-2.76,6.319-4.68V626.366z"/>
	<path d="M1098.593,616.367h4.12v3h-4.12v12.838c0,1.6,0.44,1.84,2.56,1.84h1.561v2.999h-2.6c-3.52,0-4.92-0.72-4.92-4.52v-13.157
		h-3.519v-3h3.519v-6.199h3.399V616.367z"/>
	<path d="M1110.073,612.648h-3.399v-4.16h3.399V612.648z M1106.674,616.367h3.399v20.677h-3.399V616.367z"/>
	<path d="M1124.271,615.888c6.559,0,10.038,4.759,10.038,10.838c0,6.039-3.479,10.798-10.038,10.798
		c-6.56,0-10.039-4.759-10.039-10.798C1114.232,620.646,1117.712,615.888,1124.271,615.888z M1124.271,634.524
		c3.559,0,6.438-2.8,6.438-7.799s-2.88-7.839-6.438-7.839c-3.56,0-6.439,2.84-6.439,7.839S1120.712,634.524,1124.271,634.524z"/>
	<path d="M1138.312,616.367h3.199v3.279h0.08c1.439-2.56,3.72-3.759,6.719-3.759c5.439,0,7.119,3.119,7.119,7.559v13.598h-3.399
		v-13.998c0-2.56-1.6-4.159-4.199-4.159c-4.119,0-6.119,2.76-6.119,6.479v11.678h-3.399V616.367z"/>
</g>
<g>
	<defs>
		<rect id="SVGID_1_" width="2048" height="1000"/>
	</defs>
	<clipPath id="SVGID_2_">
		<use xlink:href="#SVGID_1_"  overflow="visible"/>
	</clipPath>
	<path clip-path="url(#SVGID_2_)" fill="#074164" d="M1421.599,952.351c-0.022,0.007-0.03,0.03-0.044,0.044
		c-9.929,9.886-26.001,9.843-35.896-0.079l-77.393-77.762c-9.872-9.932-9.836-25.975,0.045-35.854
		c0.019-0.014,0.034-0.029,0.041-0.043c9.94-9.893,26.013-9.856,35.891,0.079l77.404,77.763
		C1431.51,926.429,1431.484,942.456,1421.599,952.351"/>
	<path clip-path="url(#SVGID_2_)" fill="#2C5871" d="M1410.556,951.867c-3.813,3.8-10.048,3.779-13.869-0.057l-77.393-77.764
		c-3.807-3.83-3.807-10.05,0.013-13.872c3.857-3.837,10.094-3.824,13.913,0.014l77.396,77.763c3.804,3.838,3.804,10.051-0.018,13.88
		L1410.556,951.867z"/>
	<path clip-path="url(#SVGID_2_)" fill="#074164" d="M1157.305,687.374v-0.007c18.808-18.812,43.793-29.141,70.332-29.099
		c54.693,0.1,99.115,44.679,99.016,99.366c-0.044,26.392-10.375,51.24-29.083,69.954c-18.802,18.799-43.764,29.119-70.292,29.083
		c-26.461-0.043-51.349-10.427-70.077-29.211c-18.724-18.793-29.012-43.711-28.963-70.176
		C1128.285,730.906,1138.602,706.072,1157.305,687.374"/>
	<path clip-path="url(#SVGID_2_)" fill="#D1ECFB" d="M1175.27,705.305c-13.923,13.923-21.608,32.407-21.652,52.046
		c-0.077,40.698,32.97,73.876,73.677,73.939c19.746,0.035,38.33-7.651,52.352-21.666c13.919-13.923,21.604-32.395,21.641-52.018
		c0.034-19.683-7.632-38.225-21.573-52.216c-13.938-13.995-32.456-21.711-52.148-21.746
		C1207.849,683.614,1189.27,691.302,1175.27,705.305"/>
	<path clip-path="url(#SVGID_2_)" fill="#FFFFFF" d="M1279.713,705.39c-13.938-13.995-32.457-21.71-52.148-21.746
		c-5.545-0.007-10.993,0.612-16.281,1.793c-8.035,3.632-15.44,8.707-21.874,15.154c-13.926,13.915-21.606,32.4-21.642,52.047
		c-0.077,40.692,32.978,73.869,73.677,73.947c5.546,0.007,11.006-0.613,16.293-1.793c8.048-3.645,15.468-8.728,21.907-15.168
		c13.921-13.923,21.604-32.395,21.642-52.019C1301.32,737.924,1293.654,719.382,1279.713,705.39"/>
	<path clip-path="url(#SVGID_2_)" fill="#0E303F" d="M1318.293,849.091c-4.958,4.949-12.994,4.926-17.945-0.041l-15.805-16.314
		c-4.939-4.969-4.933-12.983,0.015-17.931c0,0,0.021-0.008,0.029-0.021c4.965-4.939,12.989-4.934,17.944,0.044l15.805,16.32
		c4.938,4.954,4.929,12.977-0.018,17.923C1318.318,849.07,1318.295,849.084,1318.293,849.091"/>
	<path clip-path="url(#SVGID_2_)" fill="#2C5871" d="M1227.625,663.878c51.602,0.1,93.509,42.158,93.416,93.749
		c-0.055,24.919-9.799,48.352-27.443,65.998c-17.681,17.693-41.163,27.432-66.129,27.432h-0.175l0.021-12.484h0.153
		c21.631,0,41.97-8.442,57.294-23.781c15.298-15.288,23.747-35.597,23.794-57.185c0.078-44.708-36.239-81.15-80.956-81.243
		L1227.625,663.878z"/>
</g>
</svg>
