<?xml version="1.0" encoding="utf-8"?>
<!-- Generator: Adobe Illustrator 16.0.3, SVG Export Plug-In . SVG Version: 6.00 Build 0)  -->
<!DOCTYPE svg PUBLIC "-//W3C//DTD SVG 1.1//EN" "http://www.w3.org/Graphics/SVG/1.1/DTD/svg11.dtd">
<svg version="1.1" id="Layer_1" xmlns="http://www.w3.org/2000/svg" xmlns:xlink="http://www.w3.org/1999/xlink" x="0px" y="0px"
	 width="2048px" height="1000px" viewBox="0 0 2048 1000" enable-background="new 0 0 2048 1000" xml:space="preserve">
<rect fill="#B9E5FB" width="1272" height="1000"/>
<g>
	<g opacity="0.3" enable-background="new    ">
		<g>
			<defs>
				<rect id="SVGID_1_" x="1272" width="779.9" height="1000"/>
			</defs>
			<clipPath id="SVGID_2_">
				<use xlink:href="#SVGID_1_"  overflow="visible"/>
			</clipPath>
			<rect x="1272" clip-path="url(#SVGID_2_)" fill="#B9E5FB" width="779.9" height="1000"/>
		</g>
	</g>
</g>
<rect fill="#4EA8DE" width="448.619" height="1000"/>
<line fill="none" stroke="#343636" stroke-width="3.2048" stroke-miterlimit="10" x1="484.849" y1="53.7" x2="1221.081" y2="53.7"/>
<line fill="none" stroke="#343636" stroke-width="3" stroke-miterlimit="10" x1="1306.103" y1="53.7" x2="1982" y2="53.7"/>
<g>
	<path fill="#FFFFFF" d="M322.623,214.83h5.651v25.701h-5.651V214.83z"/>
	<path fill="#FFFFFF" d="M332.703,221.921h4.859v2.592h0.108c1.296-2.124,3.527-3.096,5.688-3.096c5.436,0,6.803,3.06,6.803,7.667
		v11.446h-5.111V230.02c0-3.06-0.863-4.571-3.275-4.571c-2.771,0-3.959,1.548-3.959,5.327v9.755h-5.111V221.921z"/>
	<path fill="#FFFFFF" d="M354.05,221.921h4.859v2.375h0.072c1.26-2.016,3.239-2.879,5.543-2.879c5.832,0,8.459,4.715,8.459,10.007
		c0,4.967-2.699,9.61-8.171,9.61c-2.268,0-4.319-0.972-5.579-2.808h-0.072v8.854h-5.111V221.921z M367.872,231.28
		c0-2.987-1.188-6.011-4.463-6.011c-3.348,0-4.428,2.987-4.428,6.011s1.152,5.903,4.464,5.903
		C366.793,237.183,367.872,234.303,367.872,231.28z"/>
	<path fill="#FFFFFF" d="M393.504,240.531h-4.859v-2.592h-0.107c-1.296,2.124-3.528,3.096-5.688,3.096
		c-5.436,0-6.804-3.06-6.804-7.667v-11.446h5.111v10.511c0,3.06,0.864,4.571,3.276,4.571c2.771,0,3.959-1.548,3.959-5.327v-9.755
		h5.111V240.531z"/>
	<path fill="#FFFFFF" d="M403.873,221.921h3.743v3.419h-3.743v9.215c0,1.729,0.432,2.16,2.16,2.16c0.575,0,1.115-0.036,1.583-0.145
		v3.996c-0.863,0.144-1.979,0.18-2.987,0.18c-3.167,0-5.867-0.684-5.867-4.428V225.34h-3.096v-3.419h3.096v-5.58h5.111V221.921z"/>
</g>
<g>
	<path fill="#FFFFFF" d="M304.082,806.689c7.919,0,12.634,5.939,12.634,13.57c0,7.414-4.715,13.354-12.634,13.354
		c-7.919,0-12.635-5.939-12.635-13.354C291.447,812.629,296.162,806.689,304.082,806.689z M304.082,828.861
		c5.075,0,6.983-4.318,6.983-8.602c0-4.5-1.908-8.82-6.983-8.82c-5.076,0-6.983,4.32-6.983,8.82
		C297.098,824.543,299.006,828.861,304.082,828.861z"/>
	<path fill="#FFFFFF" d="M337.488,833.002h-4.859v-2.592h-0.108c-1.296,2.123-3.527,3.096-5.687,3.096
		c-5.436,0-6.803-3.061-6.803-7.668v-11.445h5.111v10.51c0,3.061,0.864,4.572,3.275,4.572c2.772,0,3.959-1.549,3.959-5.328v-9.754
		h5.111V833.002z"/>
	<path fill="#FFFFFF" d="M347.857,814.393h3.743v3.418h-3.743v9.215c0,1.729,0.432,2.16,2.16,2.16c0.575,0,1.115-0.035,1.583-0.145
		v3.996c-0.863,0.145-1.979,0.18-2.987,0.18c-3.167,0-5.867-0.684-5.867-4.428v-10.979h-3.096v-3.418h3.096v-5.58h5.111V814.393z"/>
	<path fill="#FFFFFF" d="M354.05,814.393h4.859v2.375h0.072c1.26-2.016,3.239-2.879,5.543-2.879c5.832,0,8.459,4.715,8.459,10.006
		c0,4.967-2.699,9.611-8.171,9.611c-2.268,0-4.319-0.973-5.579-2.809h-0.072v8.855h-5.111V814.393z M367.872,823.75
		c0-2.986-1.188-6.01-4.463-6.01c-3.348,0-4.428,2.986-4.428,6.01s1.152,5.904,4.464,5.904
		C366.793,829.654,367.872,826.773,367.872,823.75z"/>
	<path fill="#FFFFFF" d="M393.504,833.002h-4.859v-2.592h-0.107c-1.296,2.123-3.528,3.096-5.688,3.096
		c-5.436,0-6.804-3.061-6.804-7.668v-11.445h5.111v10.51c0,3.061,0.864,4.572,3.276,4.572c2.771,0,3.959-1.549,3.959-5.328v-9.754
		h5.111V833.002z"/>
	<path fill="#FFFFFF" d="M403.873,814.393h3.743v3.418h-3.743v9.215c0,1.729,0.432,2.16,2.16,2.16c0.575,0,1.115-0.035,1.583-0.145
		v3.996c-0.863,0.145-1.979,0.18-2.987,0.18c-3.167,0-5.867-0.684-5.867-4.428v-10.979h-3.096v-3.418h3.096v-5.58h5.111V814.393z"/>
</g>
<g>
	<path fill="#FFFFFF" d="M290.978,474.375h5.795l9.611,25.701h-5.867l-1.944-5.723h-9.611l-2.016,5.723h-5.723L290.978,474.375z
		 M290.438,490.142h6.659l-3.24-9.431h-0.072L290.438,490.142z"/>
	<path fill="#FFFFFF" d="M320.749,488.018c-0.324-2.124-1.584-3.203-3.78-3.203c-3.275,0-4.355,3.312-4.355,6.047
		c0,2.699,1.044,5.867,4.248,5.867c2.412,0,3.744-1.476,4.067-3.779h4.932c-0.684,4.932-4.032,7.63-8.963,7.63
		c-5.615,0-9.395-3.958-9.395-9.539c0-5.795,3.456-10.078,9.503-10.078c4.392,0,8.459,2.304,8.747,7.055H320.749z"/>
	<path fill="#FFFFFF" d="M335.221,481.467h3.744v3.419h-3.744v9.215c0,1.729,0.432,2.16,2.16,2.16c0.576,0,1.116-0.036,1.584-0.145
		v3.997c-0.864,0.143-1.98,0.18-2.988,0.18c-3.167,0-5.867-0.684-5.867-4.428v-10.979h-3.096v-3.419h3.096v-5.58h5.111V481.467z"/>
	<path fill="#FFFFFF" d="M346.669,478.587h-5.111v-4.212h5.111V478.587z M341.558,481.467h5.111v18.609h-5.111V481.467z"/>
	<path fill="#FFFFFF" d="M360.996,500.076h-5.688l-6.371-18.609h5.363l3.924,12.706h0.072l3.923-12.706h5.076L360.996,500.076z"/>
	<path fill="#FFFFFF" d="M374.677,478.587h-5.111v-4.212h5.111V478.587z M369.565,481.467h5.111v18.609h-5.111V481.467z"/>
	<path fill="#FFFFFF" d="M385.188,481.467h3.743v3.419h-3.743v9.215c0,1.729,0.432,2.16,2.16,2.16c0.575,0,1.115-0.036,1.583-0.145
		v3.997c-0.863,0.143-1.979,0.18-2.987,0.18c-3.167,0-5.867-0.684-5.867-4.428v-10.979h-3.096v-3.419h3.096v-5.58h5.111V481.467z"/>
	<path fill="#FFFFFF" d="M400.561,502.416c-1.116,2.988-2.916,4.211-6.407,4.211c-1.044,0-2.088-0.07-3.132-0.18v-4.211
		c0.972,0.107,1.979,0.217,2.987,0.18c1.332-0.145,1.979-1.188,1.979-2.34c0-0.395-0.071-0.792-0.216-1.152l-6.551-17.457h5.471
		l4.212,12.742h0.072l4.067-12.742h5.291L400.561,502.416z"/>
</g>
<g>
	<path fill="#231F20" d="M486.346,69.381h5.75v32.848h-5.75V69.381z"/>
	<path fill="#231F20" d="M498.397,78.444h4.969v3.497l0.092,0.092c1.61-2.622,4.279-4.232,7.407-4.232
		c5.199,0,8.419,2.714,8.419,8.097v16.332h-5.244V87.277c-0.138-3.727-1.519-5.336-4.647-5.336c-3.496,0-5.75,2.76-5.75,6.256
		v14.032h-5.245V78.444z"/>
	<path fill="#231F20" d="M528.757,94.592c0.322,3.082,2.576,4.14,5.383,4.14c2.024,0,5.428-0.414,5.291-3.128
		c-0.138-2.76-3.957-3.082-7.775-3.956c-3.865-0.828-7.637-2.208-7.637-7.039c0-5.198,5.613-6.809,9.938-6.809
		c4.876,0,9.339,1.978,9.937,7.315h-5.475c-0.506-2.53-2.484-3.174-4.831-3.174c-1.518,0-4.325,0.368-4.325,2.438
		c0,2.576,3.865,2.99,7.729,3.818c3.818,0.874,7.683,2.254,7.683,6.947c0,5.659-5.705,7.729-10.627,7.729
		c-6.027,0-10.397-2.668-10.535-8.281H528.757z"/>
	<path fill="#231F20" d="M546.283,78.444h3.957v-7.131h5.245v7.131h4.738v3.911h-4.738v12.697c0,2.162,0.184,3.266,2.53,3.266
		c0.736,0,1.472,0,2.208-0.184v4.048c-1.15,0.138-2.254,0.276-3.404,0.276c-5.521,0-6.441-2.116-6.579-6.073V82.354h-3.957V78.444z"
		/>
	<path fill="#231F20" d="M583.913,96.938c0,1.288,0.276,1.794,1.242,1.794h0.552c0.23,0,0.46-0.046,0.736-0.092v3.634
		c-0.782,0.276-2.438,0.598-3.312,0.598c-2.162,0-3.634-0.736-4.048-2.898c-2.07,2.024-5.429,2.898-8.235,2.898
		c-4.279,0-8.143-2.3-8.143-6.947c0-5.935,4.739-6.901,9.155-7.407c3.818-0.736,7.13-0.23,7.13-3.358c0-2.76-2.852-3.22-4.922-3.22
		c-2.944,0-5.015,1.196-5.245,3.772h-5.245c0.368-6.119,5.521-7.913,10.812-7.913c4.646,0,9.523,1.886,9.523,6.901V96.938z
		 M578.668,90.313c-1.61,1.058-4.095,1.012-6.441,1.426c-2.254,0.368-4.278,1.196-4.278,3.957c0,2.392,2.99,3.036,4.831,3.036
		c2.3,0,5.889-1.196,5.889-4.508V90.313z"/>
	<path fill="#231F20" d="M589.707,69.381h5.245v32.848h-5.245V69.381z"/>
	<path fill="#231F20" d="M600.793,69.381h5.245v32.848h-5.245V69.381z"/>
	<path fill="#231F20" d="M615.835,91.693c0,3.727,2.024,7.039,6.395,7.039c3.083,0,4.876-1.334,5.797-3.956h4.968
		c-1.104,5.198-5.613,8.097-10.765,8.097c-7.499,0-11.639-5.152-11.639-12.513c0-6.763,4.417-12.56,11.501-12.56
		c7.499,0,12.1,6.763,11.226,13.894H615.835z M628.073,88.243c-0.23-3.312-2.393-6.303-5.981-6.303c-3.634,0-6.119,2.76-6.256,6.303
		H628.073z"/>
	<path fill="#231F20" d="M637.317,78.444h4.923v4.601h0.092c0.598-2.53,3.772-5.245,6.947-5.245c1.242,0,1.472,0.092,1.978,0.138
		v5.061c-0.736-0.138-1.518-0.23-2.254-0.23c-3.542,0-6.441,2.853-6.441,8.143v11.317h-5.245V78.444z"/>
</g>
<g>
	<path fill="#231F20" d="M1309.599,69.381h15.688c7.224,0,10.857,3.312,10.857,8.879c0,6.303-4.325,7.913-5.429,8.281v0.092
		c1.979,0.23,4.877,1.794,4.877,6.947c0,3.864,0.552,7.315,1.794,8.649h-6.165c-0.874-1.426-0.874-3.22-0.874-4.831
		c0-6.027-1.242-8.695-6.532-8.695h-8.465v13.525h-5.751V69.381z M1315.35,84.333h9.431c3.681,0,5.612-1.748,5.612-5.245
		c0-4.232-2.714-5.015-5.705-5.015h-9.338V84.333z"/>
	<path fill="#231F20" d="M1345.341,91.693c0,3.727,2.024,7.039,6.395,7.039c3.083,0,4.876-1.334,5.797-3.956h4.968
		c-1.104,5.198-5.611,8.097-10.765,8.097c-7.499,0-11.64-5.152-11.64-12.513c0-6.763,4.417-12.56,11.502-12.56
		c7.498,0,12.1,6.763,11.225,13.894H1345.341z M1357.578,88.243c-0.23-3.312-2.393-6.303-5.98-6.303
		c-3.635,0-6.119,2.76-6.257,6.303H1357.578z"/>
	<path fill="#231F20" d="M1382.878,86.403c-0.413-2.944-2.483-4.462-5.429-4.462c-2.714,0-6.532,1.472-6.532,8.649
		c0,3.956,1.748,8.143,6.303,8.143c3.082,0,5.152-1.978,5.658-5.428h5.245c-0.967,6.21-4.785,9.569-10.903,9.569
		c-7.453,0-11.548-5.291-11.548-12.283c0-7.177,3.91-12.79,11.731-12.79c5.521,0,10.214,2.76,10.72,8.603H1382.878z"/>
	<path fill="#231F20" d="M1391.295,90.313c0-7.223,4.416-12.513,12.007-12.513s12.007,5.291,12.007,12.513
		c0,7.315-4.416,12.56-12.007,12.56S1391.295,97.628,1391.295,90.313z M1410.064,90.313c0-4.094-2.07-8.373-6.763-8.373
		s-6.763,4.278-6.763,8.373c0,4.141,2.07,8.419,6.763,8.419S1410.064,94.454,1410.064,90.313z"/>
	<path fill="#231F20" d="M1419.676,78.444h4.923v4.601h0.092c0.599-2.53,3.772-5.245,6.946-5.245c1.242,0,1.473,0.092,1.979,0.138
		v5.061c-0.736-0.138-1.518-0.23-2.254-0.23c-3.543,0-6.441,2.853-6.441,8.143v11.317h-5.244V78.444z"/>
	<path fill="#231F20" d="M1458.271,102.229h-4.969v-3.22h-0.092c-1.426,2.76-4.37,3.864-7.36,3.864
		c-7.499,0-11.134-5.566-11.134-12.697c0-8.649,5.107-12.375,10.306-12.375c2.944,0,6.303,1.104,7.913,3.727h0.092V69.381h5.244
		V102.229z M1446.541,98.732c4.646,0,6.67-4.278,6.67-8.419c0-5.291-2.529-8.373-6.578-8.373c-4.923,0-6.671,4.417-6.671,8.649
		C1439.962,94.684,1441.986,98.732,1446.541,98.732z"/>
	<path fill="#231F20" d="M1475.656,90.313c0-7.223,4.417-12.513,12.008-12.513s12.008,5.291,12.008,12.513
		c0,7.315-4.417,12.56-12.008,12.56S1475.656,97.628,1475.656,90.313z M1494.427,90.313c0-4.094-2.07-8.373-6.763-8.373
		s-6.763,4.278-6.763,8.373c0,4.141,2.07,8.419,6.763,8.419S1494.427,94.454,1494.427,90.313z"/>
	<path fill="#231F20" d="M1501.876,78.444h5.566l4.646,17.758h0.093l4.462-17.758h5.29l4.279,17.758h0.092l4.83-17.758h5.337
		l-7.452,23.785h-5.383l-4.417-17.666h-0.092l-4.37,17.666h-5.521L1501.876,78.444z"/>
	<path fill="#231F20" d="M1539.826,78.444h4.969v3.497l0.092,0.092c1.61-2.622,4.279-4.232,7.406-4.232
		c5.199,0,8.42,2.714,8.42,8.097v16.332h-5.244V87.277c-0.139-3.727-1.52-5.336-4.647-5.336c-3.496,0-5.751,2.76-5.751,6.256v14.032
		h-5.244V78.444z"/>
	<path fill="#231F20" d="M1570.324,91.693c0,3.727,2.023,7.039,6.395,7.039c3.082,0,4.877-1.334,5.797-3.956h4.969
		c-1.104,5.198-5.613,8.097-10.766,8.097c-7.499,0-11.639-5.152-11.639-12.513c0-6.763,4.416-12.56,11.5-12.56
		c7.5,0,12.1,6.763,11.227,13.894H1570.324z M1582.562,88.243c-0.229-3.312-2.393-6.303-5.981-6.303
		c-3.634,0-6.118,2.76-6.256,6.303H1582.562z"/>
	<path fill="#231F20" d="M1591.806,78.444h4.923v4.601h0.092c0.598-2.53,3.772-5.245,6.947-5.245c1.242,0,1.472,0.092,1.978,0.138
		v5.061c-0.735-0.138-1.519-0.23-2.254-0.23c-3.542,0-6.44,2.853-6.44,8.143v11.317h-5.245V78.444z"/>
</g>
<rect x="602.701" y="172.229" fill="#FFFFFF" stroke="#4EA8DE" stroke-width="4.5681" stroke-miterlimit="10" width="543.114" height="141.678"/>
<rect x="748.227" y="406.175" transform="matrix(0.7071 -0.7071 0.7071 0.7071 -123.7155 779.988)" fill="#FFFFFF" stroke="#4EA8DE" stroke-width="4.8454" stroke-miterlimit="10" width="262.868" height="266.31"/>
<g>
	<path fill="#333333" d="M711.247,204.19h12.095c4.859,0,7.811,2.592,7.811,6.731c0,3.132-1.332,5.651-4.464,6.515v0.072
		c2.988,0.576,3.564,2.808,3.852,5.291c0.18,2.484,0.072,5.363,1.512,7.091h-3.815c-0.972-1.044-0.432-3.815-0.936-6.335
		c-0.396-2.483-0.972-4.643-4.284-4.643h-8.351v10.979h-3.419V204.19z M721.793,216.032c3.167,0,5.939-0.828,5.939-4.571
		c0-2.556-1.368-4.392-4.571-4.392h-8.495v8.963H721.793z"/>
	<path fill="#333333" d="M751.276,223.987c-0.828,4.14-3.744,6.335-7.955,6.335c-5.939,0-8.747-4.14-8.927-9.791
		c0-5.615,3.671-9.683,8.747-9.683c6.587,0,8.603,6.155,8.423,10.655h-13.93c-0.108,3.239,1.728,6.119,5.795,6.119
		c2.556,0,4.284-1.188,4.824-3.636H751.276z M748.325,218.804c-0.18-2.916-2.304-5.255-5.363-5.255
		c-3.167,0-5.147,2.375-5.327,5.255H748.325z"/>
	<path fill="#333333" d="M771.364,237.018h-3.06v-9.646h-0.072c-1.008,2.052-3.348,2.952-5.939,2.952
		c-5.723,0-8.567-4.536-8.567-9.791s2.808-9.683,8.495-9.683c1.872,0,4.68,0.72,6.012,2.916h0.072v-2.484h3.06V237.018z
		 M762.725,227.623c4.139,0,5.687-3.563,5.687-7.019c0-3.636-1.656-7.055-5.867-7.055c-4.175,0-5.579,3.563-5.579,7.199
		C756.966,224.239,758.766,227.623,762.725,227.623z"/>
	<path fill="#333333" d="M791.488,229.891h-2.88v-2.952h-0.072c-1.296,2.304-3.348,3.384-6.047,3.384
		c-4.896,0-6.407-2.808-6.407-6.803v-12.239h3.06v12.599c0,2.304,1.44,3.744,3.78,3.744c3.708,0,5.507-2.484,5.507-5.832v-10.511
		h3.06V229.891z"/>
	<path fill="#333333" d="M811.972,223.987c-0.828,4.14-3.744,6.335-7.955,6.335c-5.939,0-8.747-4.14-8.927-9.791
		c0-5.615,3.671-9.683,8.747-9.683c6.587,0,8.603,6.155,8.423,10.655h-13.93c-0.108,3.239,1.728,6.119,5.795,6.119
		c2.556,0,4.284-1.188,4.824-3.636H811.972z M809.02,218.804c-0.18-2.916-2.304-5.255-5.363-5.255c-3.167,0-5.147,2.375-5.327,5.255
		H809.02z"/>
	<path fill="#333333" d="M817.301,224.023c0.108,2.735,2.52,3.6,5.003,3.6c1.908,0,4.5-0.432,4.5-2.772
		c0-4.787-12.167-1.548-12.167-8.711c0-3.743,3.671-5.291,6.947-5.291c4.175,0,7.343,1.296,7.631,5.831h-3.06
		c-0.18-2.375-2.34-3.131-4.319-3.131c-1.836,0-3.959,0.504-3.959,2.375c0,2.16,3.24,2.592,6.083,3.24
		c3.06,0.684,6.083,1.728,6.083,5.291c0,4.464-4.14,5.868-7.919,5.868c-4.176,0-7.703-1.692-7.883-6.299H817.301z"/>
	<path fill="#333333" d="M837.677,211.281h3.708v2.7h-3.708v11.555c0,1.44,0.396,1.656,2.304,1.656h1.404v2.7h-2.34
		c-3.167,0-4.427-0.648-4.427-4.067V213.98h-3.168v-2.7h3.168v-5.579h3.06V211.281z"/>
	<path fill="#333333" d="M859.024,211.281h3.708v2.7h-3.708v11.555c0,1.44,0.396,1.656,2.304,1.656h1.404v2.7h-2.34
		c-3.167,0-4.427-0.648-4.427-4.067V213.98h-3.168v-2.7h3.168v-5.579h3.06V211.281z"/>
	<path fill="#333333" d="M874.143,210.849c5.903,0,9.035,4.283,9.035,9.755c0,5.435-3.132,9.719-9.035,9.719
		s-9.035-4.284-9.035-9.719C865.108,215.132,868.239,210.849,874.143,210.849z M874.143,227.623c3.204,0,5.795-2.52,5.795-7.019
		c0-4.5-2.592-7.055-5.795-7.055s-5.795,2.556-5.795,7.055C868.348,225.103,870.939,227.623,874.143,227.623z"/>
	<path fill="#333333" d="M900.027,207.934h-3.06v-3.744h3.06V207.934z M896.967,211.281h3.06v18.61h-3.06V211.281z"/>
	<path fill="#333333" d="M904.778,211.281h2.88v2.952h0.072c1.296-2.304,3.348-3.383,6.047-3.383c4.895,0,6.407,2.808,6.407,6.803
		v12.238h-3.06v-12.599c0-2.304-1.44-3.743-3.78-3.743c-3.708,0-5.507,2.483-5.507,5.831v10.511h-3.06V211.281z"/>
	<path fill="#333333" d="M926.666,224.023c0.108,2.735,2.52,3.6,5.003,3.6c1.908,0,4.5-0.432,4.5-2.772
		c0-4.787-12.167-1.548-12.167-8.711c0-3.743,3.671-5.291,6.947-5.291c4.175,0,7.343,1.296,7.631,5.831h-3.06
		c-0.18-2.375-2.34-3.131-4.319-3.131c-1.836,0-3.959,0.504-3.959,2.375c0,2.16,3.24,2.592,6.083,3.24
		c3.06,0.684,6.083,1.728,6.083,5.291c0,4.464-4.14,5.868-7.919,5.868c-4.176,0-7.703-1.692-7.883-6.299H926.666z"/>
	<path fill="#333333" d="M947.042,211.281h3.708v2.7h-3.708v11.555c0,1.44,0.396,1.656,2.304,1.656h1.404v2.7h-2.34
		c-3.167,0-4.427-0.648-4.427-4.067V213.98h-3.168v-2.7h3.168v-5.579h3.06V211.281z"/>
	<path fill="#333333" d="M970.62,229.819c-0.54,0.324-1.296,0.504-2.196,0.504c-1.583,0-2.591-0.864-2.591-2.88
		c-1.692,2.016-3.959,2.88-6.551,2.88c-3.384,0-6.155-1.476-6.155-5.22c0-4.211,3.131-5.147,6.299-5.723
		c3.347-0.684,6.263-0.396,6.263-2.736c0-2.699-2.232-3.095-4.14-3.095c-2.592,0-4.5,0.792-4.644,3.527h-3.06
		c0.18-4.607,3.708-6.227,7.883-6.227c3.347,0,6.983,0.756,6.983,5.111v9.575c0,1.44,0,2.088,0.972,2.088
		c0.288,0,0.612-0.072,0.936-0.18V229.819z M965.652,220.28c-2.375,1.764-9.287,0.036-9.287,4.607c0,2.016,1.728,2.736,3.599,2.736
		c4.032,0,5.688-2.484,5.688-4.211V220.28z"/>
	<path fill="#333333" d="M973.646,204.19h3.06v25.701h-3.06V204.19z"/>
	<path fill="#333333" d="M981.637,204.19h3.06v25.701h-3.06V204.19z"/>
	<path fill="#333333" d="M1015.942,229.819c-0.54,0.324-1.296,0.504-2.196,0.504c-1.583,0-2.591-0.864-2.591-2.88
		c-1.692,2.016-3.959,2.88-6.551,2.88c-3.384,0-6.155-1.476-6.155-5.22c0-4.211,3.131-5.147,6.299-5.723
		c3.347-0.684,6.263-0.396,6.263-2.736c0-2.699-2.232-3.095-4.14-3.095c-2.592,0-4.5,0.792-4.644,3.527h-3.06
		c0.18-4.607,3.708-6.227,7.883-6.227c3.347,0,6.983,0.756,6.983,5.111v9.575c0,1.44,0,2.088,0.972,2.088
		c0.288,0,0.612-0.072,0.936-0.18V229.819z M1010.975,220.28c-2.375,1.764-9.287,0.036-9.287,4.607c0,2.016,1.728,2.736,3.599,2.736
		c4.032,0,5.688-2.484,5.688-4.211V220.28z"/>
	<path fill="#333333" d="M1018.788,211.281h2.879v2.952h0.072c1.296-2.304,3.348-3.383,6.047-3.383c4.896,0,6.407,2.808,6.407,6.803
		v12.238h-3.06v-12.599c0-2.304-1.439-3.743-3.779-3.743c-3.708,0-5.507,2.483-5.507,5.831v10.511h-3.06V211.281z"/>
	<path fill="#333333" d="M821.818,254.049c5.903,0,9.035,4.283,9.035,9.755c0,5.435-3.132,9.719-9.035,9.719
		s-9.035-4.284-9.035-9.719C812.784,258.333,815.915,254.049,821.818,254.049z M821.818,270.823c3.204,0,5.795-2.52,5.795-7.019
		c0-4.5-2.592-7.055-5.795-7.055s-5.795,2.556-5.795,7.055C816.023,268.303,818.615,270.823,821.818,270.823z"/>
	<path fill="#333333" d="M835.715,257.181h-3.131v-2.7h3.131v-2.771c0-3.023,1.8-4.607,5.147-4.607c0.576,0,1.404,0.108,1.979,0.288
		v2.664c-0.54-0.18-1.188-0.252-1.728-0.252c-1.476,0-2.34,0.468-2.34,2.088v2.591h3.6v2.7h-3.6v15.91h-3.06V257.181z"/>
	<path fill="#333333" d="M846.371,257.181h-3.131v-2.7h3.131v-2.771c0-3.023,1.8-4.607,5.147-4.607c0.576,0,1.404,0.108,1.979,0.288
		v2.664c-0.54-0.18-1.188-0.252-1.728-0.252c-1.476,0-2.34,0.468-2.34,2.088v2.591h3.6v2.7h-3.6v15.91h-3.06V257.181z"/>
	<path fill="#333333" d="M871.641,267.188c-0.828,4.14-3.744,6.335-7.955,6.335c-5.939,0-8.747-4.14-8.927-9.791
		c0-5.615,3.671-9.683,8.747-9.683c6.587,0,8.603,6.155,8.423,10.655h-13.93c-0.108,3.239,1.728,6.119,5.795,6.119
		c2.556,0,4.284-1.188,4.824-3.636H871.641z M868.689,262.004c-0.18-2.916-2.304-5.255-5.363-5.255
		c-3.167,0-5.147,2.375-5.327,5.255H868.689z"/>
	<path fill="#333333" d="M874.99,254.481h2.879v3.924h0.072c1.476-3.024,3.527-4.463,6.839-4.355v3.239
		c-4.931,0-6.731,2.772-6.731,7.523v8.279h-3.06V254.481z"/>
	<path fill="#333333" d="M890.326,251.134h-3.06v-3.744h3.06V251.134z M887.266,254.481h3.06v18.61h-3.06V254.481z"/>
	<path fill="#333333" d="M895.077,254.481h2.88v2.952h0.072c1.296-2.304,3.348-3.383,6.047-3.383c4.895,0,6.407,2.808,6.407,6.803
		v12.238h-3.06v-12.599c0-2.304-1.44-3.743-3.78-3.743c-3.708,0-5.507,2.483-5.507,5.831v10.511h-3.06V254.481z"/>
	<path fill="#333333" d="M931.147,271.507c0,6.083-2.736,9.143-8.639,9.143c-3.492,0-7.523-1.44-7.703-5.471h3.06
		c0.108,2.196,2.844,3.023,4.824,3.023c3.995,0,5.579-2.879,5.579-7.055v-1.224h-0.072c-1.044,2.268-3.42,3.383-5.795,3.383
		c-5.543,0-8.315-4.355-8.315-9.431c0-4.392,2.124-9.827,8.603-9.827c2.339,0,4.427,1.044,5.543,3.096h0.036v-2.664h2.88V271.507z
		 M928.124,263.408c0-3.276-1.44-6.659-5.291-6.659c-3.924,0-5.507,3.204-5.507,6.767c0,3.348,1.224,7.091,5.255,7.091
		C926.612,270.607,928.124,266.899,928.124,263.408z"/>
</g>
<rect x="1376.163" y="461.633" fill="#FFFFFF" stroke="#4EA8DE" stroke-width="4.5681" stroke-miterlimit="10" width="543.114" height="141.678"/>
<g>
	<path fill="#333333" d="M1493.797,501.332c-0.756-3.635-3.6-5.471-7.199-5.471c-6.119,0-8.711,5.04-8.711,10.403
		c0,5.867,2.592,10.763,8.746,10.763c4.464,0,7.127-3.168,7.416-7.415h3.419c-0.684,6.443-4.607,10.295-11.122,10.295
		c-7.955,0-11.879-5.904-11.879-13.391c0-7.487,4.248-13.534,12.166-13.534c5.363,0,9.827,2.879,10.583,8.351H1493.797z"/>
	<path fill="#333333" d="M1501.106,500.684h2.88v3.924h0.072c1.475-3.023,3.527-4.463,6.838-4.355v3.24
		c-4.931,0-6.73,2.771-6.73,7.523v8.278h-3.06V500.684z"/>
	<path fill="#333333" d="M1529.076,513.391c-0.828,4.14-3.744,6.336-7.955,6.336c-5.939,0-8.747-4.141-8.927-9.791
		c0-5.615,3.671-9.684,8.747-9.684c6.587,0,8.603,6.156,8.423,10.655h-13.931c-0.107,3.239,1.729,6.119,5.795,6.119
		c2.557,0,4.284-1.188,4.824-3.636H1529.076z M1526.125,508.207c-0.181-2.916-2.305-5.255-5.363-5.255
		c-3.168,0-5.148,2.376-5.328,5.255H1526.125z"/>
	<path fill="#333333" d="M1549.02,519.223c-0.54,0.323-1.296,0.504-2.195,0.504c-1.584,0-2.592-0.865-2.592-2.881
		c-1.691,2.016-3.959,2.881-6.551,2.881c-3.385,0-6.156-1.477-6.156-5.221c0-4.211,3.132-5.146,6.3-5.723
		c3.347-0.684,6.263-0.396,6.263-2.736c0-2.699-2.231-3.095-4.139-3.095c-2.592,0-4.5,0.792-4.645,3.527h-3.059
		c0.18-4.607,3.707-6.228,7.883-6.228c3.348,0,6.982,0.756,6.982,5.111v9.575c0,1.44,0,2.088,0.973,2.088
		c0.287,0,0.611-0.072,0.936-0.181V519.223z M1544.053,509.684c-2.376,1.764-9.287,0.035-9.287,4.607c0,2.016,1.728,2.735,3.6,2.735
		c4.031,0,5.688-2.483,5.688-4.212V509.684z"/>
	<path fill="#333333" d="M1556.113,500.684h3.707v2.7h-3.707v11.555c0,1.44,0.396,1.655,2.303,1.655h1.404v2.7h-2.34
		c-3.168,0-4.428-0.647-4.428-4.067v-11.843h-3.168v-2.7h3.168v-5.579h3.061V500.684z"/>
	<path fill="#333333" d="M1579.078,513.391c-0.828,4.14-3.743,6.336-7.955,6.336c-5.938,0-8.746-4.141-8.926-9.791
		c0-5.615,3.671-9.684,8.746-9.684c6.588,0,8.604,6.156,8.424,10.655h-13.931c-0.108,3.239,1.728,6.119,5.795,6.119
		c2.556,0,4.284-1.188,4.823-3.636H1579.078z M1576.127,508.207c-0.18-2.916-2.304-5.255-5.363-5.255
		c-3.168,0-5.147,2.376-5.327,5.255H1576.127z"/>
	<path fill="#333333" d="M1592.544,500.684h2.88v2.952h0.072c1.295-2.304,3.348-3.384,6.047-3.384c4.895,0,6.407,2.809,6.407,6.804
		v12.238h-3.06v-12.599c0-2.304-1.439-3.743-3.779-3.743c-3.708,0-5.508,2.483-5.508,5.831v10.511h-3.06V500.684z"/>
	<path fill="#333333" d="M1628.434,513.391c-0.828,4.14-3.743,6.336-7.955,6.336c-5.938,0-8.746-4.141-8.926-9.791
		c0-5.615,3.671-9.684,8.746-9.684c6.588,0,8.604,6.156,8.424,10.655h-13.931c-0.108,3.239,1.728,6.119,5.795,6.119
		c2.556,0,4.284-1.188,4.823-3.636H1628.434z M1625.482,508.207c-0.18-2.916-2.304-5.255-5.363-5.255
		c-3.168,0-5.147,2.376-5.327,5.255H1625.482z"/>
	<path fill="#333333" d="M1650.321,519.294h-3.239l-3.779-14.794h-0.072l-3.744,14.794h-3.311l-5.977-18.61h3.385l4.211,15.227
		h0.072l3.743-15.227h3.348l3.888,15.227h0.072l4.175-15.227h3.168L1650.321,519.294z"/>
	<path fill="#333333" d="M1669.691,493.593h8.818c7.919,0,12.347,3.996,12.347,12.239c0,8.603-3.78,13.462-12.347,13.462h-8.818
		V493.593z M1673.11,516.414h5.688c2.34,0,8.639-0.647,8.639-10.114c0-6.12-2.268-9.827-8.567-9.827h-5.759V516.414z"/>
	<path fill="#333333" d="M1695.107,493.593h4.679l8.099,21.597l8.135-21.597h4.68v25.701h-3.239v-21.381h-0.072l-8.026,21.381
		h-2.916l-8.027-21.381h-0.072v21.381h-3.238V493.593z"/>
	<path fill="#333333" d="M1726.391,493.593h12.094c4.859,0,7.812,2.592,7.812,6.731c0,3.132-1.332,5.651-4.464,6.516v0.072
		c2.988,0.575,3.564,2.807,3.852,5.291c0.18,2.483,0.072,5.363,1.512,7.091h-3.815c-0.972-1.044-0.432-3.815-0.936-6.335
		c-0.396-2.484-0.972-4.644-4.284-4.644h-8.351v10.979h-3.419V493.593z M1736.938,505.436c3.167,0,5.938-0.828,5.938-4.571
		c0-2.556-1.368-4.392-4.571-4.392h-8.495v8.963H1736.938z"/>
	<path fill="#333333" d="M1777.04,519.223c-0.54,0.323-1.296,0.504-2.196,0.504c-1.583,0-2.591-0.865-2.591-2.881
		c-1.692,2.016-3.96,2.881-6.552,2.881c-3.383,0-6.154-1.477-6.154-5.221c0-4.211,3.131-5.146,6.299-5.723
		c3.348-0.684,6.264-0.396,6.264-2.736c0-2.699-2.232-3.095-4.141-3.095c-2.592,0-4.499,0.792-4.643,3.527h-3.061
		c0.181-4.607,3.708-6.228,7.884-6.228c3.347,0,6.983,0.756,6.983,5.111v9.575c0,1.44,0,2.088,0.971,2.088
		c0.289,0,0.613-0.072,0.937-0.181V519.223z M1772.072,509.684c-2.375,1.764-9.286,0.035-9.286,4.607
		c0,2.016,1.728,2.735,3.599,2.735c4.032,0,5.688-2.483,5.688-4.212V509.684z"/>
	<path fill="#333333" d="M1779.886,500.684h2.88v2.952h0.072c1.295-2.304,3.348-3.384,6.047-3.384c4.895,0,6.407,2.809,6.407,6.804
		v12.238h-3.06v-12.599c0-2.304-1.439-3.743-3.779-3.743c-3.708,0-5.508,2.483-5.508,5.831v10.511h-3.06V500.684z"/>
	<path fill="#333333" d="M1816.531,519.294h-3.059v-2.52h-0.072c-1.008,2.052-3.348,2.952-5.939,2.952
		c-5.723,0-8.566-4.536-8.566-9.791c0-5.256,2.807-9.684,8.494-9.684c1.871,0,4.68,0.721,6.012,2.916h0.072v-9.575h3.059V519.294z
		 M1807.893,517.026c4.141,0,5.688-3.563,5.688-7.019c0-3.637-1.656-7.056-5.867-7.056c-4.176,0-5.58,3.563-5.58,7.198
		C1802.133,513.643,1803.934,517.026,1807.893,517.026z"/>
	<path fill="#333333" d="M1470.399,536.793h8.819c7.918,0,12.346,3.996,12.346,12.238c0,8.604-3.779,13.463-12.346,13.463h-8.819
		V536.793z M1473.818,559.615h5.688c2.34,0,8.639-0.648,8.639-10.115c0-6.119-2.268-9.827-8.566-9.827h-5.76V559.615z"/>
	<path fill="#333333" d="M1495.743,536.793h3.419v11.051h13.535v-11.051h3.42v25.701h-3.42v-11.771h-13.535v11.771h-3.419V536.793z"
		/>
	<path fill="#333333" d="M1521.734,536.793h12.096c4.859,0,7.811,2.592,7.811,6.731c0,3.132-1.332,5.651-4.464,6.515v0.072
		c2.987,0.576,3.563,2.809,3.852,5.291c0.181,2.484,0.072,5.363,1.513,7.092h-3.816c-0.972-1.044-0.432-3.815-0.936-6.336
		c-0.396-2.482-0.973-4.643-4.283-4.643h-8.352v10.979h-3.42V536.793z M1532.281,548.636c3.168,0,5.939-0.827,5.939-4.571
		c0-2.556-1.367-4.392-4.571-4.392h-8.495v8.963H1532.281z"/>
	<path fill="#333333" d="M1557.158,546.584h-3.131v-2.699h3.131v-2.771c0-3.023,1.801-4.607,5.148-4.607
		c0.575,0,1.403,0.107,1.979,0.287v2.664c-0.539-0.18-1.188-0.252-1.727-0.252c-1.477,0-2.34,0.468-2.34,2.088v2.592h3.6v2.699h-3.6
		v15.91h-3.061V546.584z"/>
	<path fill="#333333" d="M1574.582,543.453c5.902,0,9.035,4.283,9.035,9.754c0,5.436-3.133,9.719-9.035,9.719
		c-5.904,0-9.035-4.283-9.035-9.719C1565.547,547.736,1568.678,543.453,1574.582,543.453z M1574.582,560.227
		c3.203,0,5.795-2.52,5.795-7.02c0-4.499-2.592-7.055-5.795-7.055c-3.204,0-5.795,2.556-5.795,7.055
		C1568.787,557.707,1571.378,560.227,1574.582,560.227z"/>
	<path fill="#333333" d="M1587.11,543.885h2.88v3.924h0.072c1.475-3.024,3.527-4.464,6.838-4.355v3.238
		c-4.931,0-6.73,2.772-6.73,7.523v8.279h-3.06V543.885z"/>
	<path fill="#333333" d="M1620.588,536.182c8.172,0,12.311,6.443,12.311,13.462c0,7.02-4.139,13.462-12.311,13.462
		c-8.17,0-12.311-6.442-12.311-13.462C1608.277,542.625,1612.418,536.182,1620.588,536.182z M1620.588,560.227
		c6.264,0,8.892-5.399,8.892-10.583c0-5.183-2.628-10.583-8.892-10.583c-6.263,0-8.891,5.4-8.891,10.583
		C1611.697,554.827,1614.325,560.227,1620.588,560.227z"/>
	<path fill="#333333" d="M1637.834,546.584h-3.132v-2.699h3.132v-2.771c0-3.023,1.799-4.607,5.146-4.607
		c0.576,0,1.404,0.107,1.98,0.287v2.664c-0.54-0.18-1.188-0.252-1.729-0.252c-1.475,0-2.34,0.468-2.34,2.088v2.592h3.6v2.699h-3.6
		v15.91h-3.059V546.584z"/>
	<path fill="#333333" d="M1648.489,546.584h-3.132v-2.699h3.132v-2.771c0-3.023,1.8-4.607,5.147-4.607
		c0.576,0,1.404,0.107,1.979,0.287v2.664c-0.54-0.18-1.188-0.252-1.728-0.252c-1.477,0-2.34,0.468-2.34,2.088v2.592h3.6v2.699h-3.6
		v15.91h-3.06V546.584z"/>
	<path fill="#333333" d="M1673.76,556.591c-0.828,4.14-3.744,6.335-7.955,6.335c-5.939,0-8.748-4.139-8.928-9.791
		c0-5.615,3.672-9.682,8.748-9.682c6.586,0,8.602,6.154,8.422,10.654h-13.93c-0.108,3.239,1.728,6.119,5.795,6.119
		c2.556,0,4.283-1.188,4.824-3.636H1673.76z M1670.808,551.408c-0.181-2.916-2.304-5.256-5.363-5.256
		c-3.167,0-5.147,2.375-5.327,5.256H1670.808z"/>
	<path fill="#333333" d="M1677.109,543.885h2.879v3.924h0.072c1.476-3.024,3.527-4.464,6.839-4.355v3.238
		c-4.931,0-6.731,2.772-6.731,7.523v8.279h-3.059V543.885z"/>
	<path fill="#333333" d="M1692.444,540.537h-3.06v-3.744h3.06V540.537z M1689.385,543.885h3.06v18.609h-3.06V543.885z"/>
	<path fill="#333333" d="M1697.195,543.885h2.881v2.951h0.071c1.296-2.304,3.348-3.383,6.048-3.383c4.895,0,6.406,2.807,6.406,6.803
		v12.238h-3.059v-12.599c0-2.304-1.44-3.743-3.78-3.743c-3.708,0-5.507,2.483-5.507,5.831v10.511h-3.061V543.885z"/>
	<path fill="#333333" d="M1733.266,560.91c0,6.084-2.735,9.143-8.639,9.143c-3.492,0-7.523-1.439-7.703-5.471h3.06
		c0.108,2.195,2.844,3.023,4.823,3.023c3.996,0,5.58-2.879,5.58-7.055v-1.225h-0.072c-1.044,2.268-3.42,3.384-5.795,3.384
		c-5.544,0-8.315-4.355-8.315-9.431c0-4.392,2.124-9.826,8.603-9.826c2.34,0,4.428,1.043,5.543,3.096h0.037v-2.664h2.879V560.91z
		 M1730.242,552.812c0-3.276-1.439-6.659-5.291-6.659c-3.924,0-5.508,3.203-5.508,6.768c0,3.348,1.225,7.09,5.256,7.09
		S1730.242,556.303,1730.242,552.812z"/>
	<path fill="#333333" d="M1747.991,536.793h3.06v9.611h0.072c1.008-2.052,3.348-2.951,5.939-2.951c5.723,0,8.566,4.535,8.566,9.79
		c0,5.292-2.808,9.683-8.494,9.683c-1.873,0-4.68-0.72-6.012-2.916h-0.072v2.484h-3.06V536.793z M1756.631,546.152
		c-4.141,0-5.688,3.563-5.688,7.02c0,3.635,1.655,7.055,5.867,7.055c4.176,0,5.579-3.563,5.579-7.199
		C1762.39,549.535,1760.59,546.152,1756.631,546.152z"/>
	<path fill="#333333" d="M1784.637,562.494h-2.879v-2.951h-0.072c-1.296,2.303-3.348,3.383-6.047,3.383
		c-4.896,0-6.408-2.807-6.408-6.803v-12.238h3.061v12.598c0,2.305,1.439,3.744,3.779,3.744c3.707,0,5.508-2.484,5.508-5.832v-10.51
		h3.059V562.494z"/>
	<path fill="#333333" d="M1792.486,540.537h-3.059v-3.744h3.059V540.537z M1789.428,543.885h3.059v18.609h-3.059V543.885z"/>
	<path fill="#333333" d="M1797.419,536.793h3.06v25.701h-3.06V536.793z"/>
	<path fill="#333333" d="M1821.859,562.494h-3.059v-2.52h-0.072c-1.008,2.052-3.348,2.951-5.939,2.951
		c-5.723,0-8.566-4.535-8.566-9.791c0-5.255,2.807-9.682,8.494-9.682c1.871,0,4.68,0.719,6.012,2.915h0.072v-9.575h3.059V562.494z
		 M1813.221,560.227c4.141,0,5.688-3.563,5.688-7.02c0-3.635-1.656-7.055-5.867-7.055c-4.176,0-5.58,3.563-5.58,7.199
		C1807.461,556.843,1809.262,560.227,1813.221,560.227z"/>
</g>
<rect x="602.701" y="769.199" fill="#FFFFFF" stroke="#4EA8DE" stroke-width="4.5681" stroke-miterlimit="10" width="543.114" height="141.678"/>
<g>
	<path fill="#333333" d="M688.838,817.573c0,6.515-3.672,9.898-10.115,9.898c-6.623,0-10.547-3.06-10.547-9.898v-16.414h3.419
		v16.414c0,4.571,2.556,7.019,7.127,7.019c4.355,0,6.695-2.447,6.695-7.019v-16.414h3.42V817.573z"/>
	<path fill="#333333" d="M695.679,820.992c0.108,2.736,2.52,3.6,5.003,3.6c1.908,0,4.5-0.432,4.5-2.771
		c0-4.787-12.167-1.548-12.167-8.711c0-3.743,3.672-5.291,6.947-5.291c4.175,0,7.343,1.296,7.631,5.831h-3.06
		c-0.18-2.376-2.34-3.132-4.319-3.132c-1.836,0-3.959,0.504-3.959,2.376c0,2.159,3.24,2.592,6.083,3.239
		c3.06,0.684,6.083,1.729,6.083,5.291c0,4.465-4.14,5.868-7.919,5.868c-4.176,0-7.703-1.692-7.883-6.3H695.679z"/>
	<path fill="#333333" d="M727.682,820.957c-0.828,4.139-3.744,6.335-7.955,6.335c-5.939,0-8.747-4.14-8.927-9.791
		c0-5.615,3.671-9.683,8.747-9.683c6.587,0,8.603,6.155,8.423,10.654h-13.93c-0.108,3.24,1.728,6.119,5.795,6.119
		c2.556,0,4.284-1.188,4.824-3.635H727.682z M724.73,815.773c-0.18-2.916-2.304-5.256-5.363-5.256c-3.167,0-5.147,2.376-5.327,5.256
		H724.73z"/>
	<path fill="#333333" d="M753.781,814.226c-0.468-2.34-2.052-3.708-4.607-3.708c-4.427,0-5.795,3.527-5.795,7.271
		c0,3.455,1.547,6.803,5.435,6.803c2.988,0,4.715-1.691,5.111-4.535h3.132c-0.684,4.571-3.492,7.235-8.207,7.235
		c-5.688,0-8.711-3.924-8.711-9.503c0-5.58,2.879-9.971,8.783-9.971c4.248,0,7.559,1.979,8.027,6.407H753.781z"/>
	<path fill="#333333" d="M775.885,826.859h-2.88v-2.951h-0.072c-1.296,2.304-3.348,3.384-6.047,3.384
		c-4.896,0-6.407-2.808-6.407-6.804V808.25h3.06v12.599c0,2.304,1.44,3.743,3.78,3.743c3.708,0,5.507-2.483,5.507-5.831V808.25h3.06
		V826.859z"/>
	<path fill="#333333" d="M780.387,808.25h2.879v3.924h0.072c1.476-3.023,3.527-4.463,6.839-4.355v3.239
		c-4.931,0-6.731,2.772-6.731,7.523v8.278h-3.06V808.25z"/>
	<path fill="#333333" d="M792.375,808.25h2.879v3.924h0.072c1.476-3.023,3.527-4.463,6.839-4.355v3.239
		c-4.931,0-6.731,2.772-6.731,7.523v8.278h-3.06V808.25z"/>
	<path fill="#333333" d="M820.344,820.957c-0.828,4.139-3.744,6.335-7.955,6.335c-5.939,0-8.747-4.14-8.927-9.791
		c0-5.615,3.671-9.683,8.747-9.683c6.587,0,8.603,6.155,8.423,10.654h-13.93c-0.108,3.24,1.728,6.119,5.795,6.119
		c2.556,0,4.284-1.188,4.824-3.635H820.344z M817.393,815.773c-0.18-2.916-2.304-5.256-5.363-5.256
		c-3.167,0-5.147,2.376-5.327,5.256H817.393z"/>
	<path fill="#333333" d="M823.802,808.25h2.88v2.951h0.072c1.296-2.303,3.348-3.383,6.047-3.383c4.895,0,6.407,2.808,6.407,6.803
		v12.238h-3.06v-12.598c0-2.305-1.44-3.744-3.78-3.744c-3.708,0-5.507,2.484-5.507,5.832v10.51h-3.06V808.25z"/>
	<path fill="#333333" d="M848.065,808.25h3.708v2.699h-3.708v11.555c0,1.44,0.396,1.656,2.304,1.656h1.404v2.699h-2.34
		c-3.167,0-4.427-0.647-4.427-4.066v-11.844h-3.168v-2.699h3.168v-5.579h3.06V808.25z"/>
	<path fill="#333333" d="M873.552,826.859h-3.275l-6.911-18.609h3.419l5.22,15.514h0.072l5.075-15.514h3.204L873.552,826.859z"/>
	<path fill="#333333" d="M899.039,820.957c-0.828,4.139-3.744,6.335-7.955,6.335c-5.939,0-8.747-4.14-8.927-9.791
		c0-5.615,3.671-9.683,8.747-9.683c6.587,0,8.603,6.155,8.423,10.654h-13.93c-0.108,3.24,1.728,6.119,5.795,6.119
		c2.556,0,4.284-1.188,4.824-3.635H899.039z M896.087,815.773c-0.18-2.916-2.304-5.256-5.363-5.256
		c-3.167,0-5.147,2.376-5.327,5.256H896.087z"/>
	<path fill="#333333" d="M902.389,808.25h2.879v3.924h0.072c1.476-3.023,3.527-4.463,6.839-4.355v3.239
		c-4.931,0-6.731,2.772-6.731,7.523v8.278h-3.06V808.25z"/>
	<path fill="#333333" d="M916.356,820.992c0.108,2.736,2.52,3.6,5.003,3.6c1.908,0,4.5-0.432,4.5-2.771
		c0-4.787-12.167-1.548-12.167-8.711c0-3.743,3.672-5.291,6.947-5.291c4.175,0,7.343,1.296,7.631,5.831h-3.06
		c-0.18-2.376-2.34-3.132-4.319-3.132c-1.836,0-3.959,0.504-3.959,2.376c0,2.159,3.24,2.592,6.083,3.239
		c3.06,0.684,6.083,1.729,6.083,5.291c0,4.465-4.14,5.868-7.919,5.868c-4.176,0-7.703-1.692-7.883-6.3H916.356z"/>
	<path fill="#333333" d="M935.724,804.902h-3.06v-3.743h3.06V804.902z M932.665,808.25h3.06v18.609h-3.06V808.25z"/>
	<path fill="#333333" d="M948.502,807.818c5.903,0,9.035,4.283,9.035,9.755c0,5.435-3.132,9.719-9.035,9.719
		s-9.035-4.284-9.035-9.719C939.468,812.102,942.599,807.818,948.502,807.818z M948.502,824.592c3.204,0,5.795-2.52,5.795-7.019
		s-2.592-7.056-5.795-7.056s-5.795,2.557-5.795,7.056S945.299,824.592,948.502,824.592z"/>
	<path fill="#333333" d="M961.139,808.25h2.879v2.951h0.072c1.296-2.303,3.348-3.383,6.047-3.383c4.895,0,6.407,2.808,6.407,6.803
		v12.238h-3.06v-12.598c0-2.305-1.44-3.744-3.78-3.744c-3.708,0-5.507,2.484-5.507,5.832v10.51h-3.06V808.25z"/>
	<path fill="#333333" d="M999.19,807.818c5.903,0,9.035,4.283,9.035,9.755c0,5.435-3.132,9.719-9.035,9.719
		s-9.035-4.284-9.035-9.719C990.155,812.102,993.287,807.818,999.19,807.818z M999.19,824.592c3.204,0,5.795-2.52,5.795-7.019
		s-2.592-7.056-5.795-7.056s-5.795,2.557-5.795,7.056S995.986,824.592,999.19,824.592z"/>
	<path fill="#333333" d="M1013.086,810.949h-3.131v-2.699h3.131v-2.771c0-3.023,1.8-4.607,5.147-4.607
		c0.576,0,1.404,0.107,1.979,0.288v2.663c-0.54-0.18-1.188-0.252-1.728-0.252c-1.476,0-2.34,0.469-2.34,2.088v2.592h3.6v2.699h-3.6
		v15.91h-3.06V810.949z"/>
	<path fill="#333333" d="M1032.994,801.159h8.819c7.919,0,12.346,3.995,12.346,12.238c0,8.603-3.779,13.462-12.346,13.462h-8.819
		V801.159z M1036.414,823.98h5.687c2.34,0,8.64-0.648,8.64-10.115c0-6.119-2.268-9.826-8.567-9.826h-5.759V823.98z"/>
	<path fill="#333333" d="M1058.338,801.159h3.42v11.05h13.534v-11.05h3.419v25.7h-3.419v-11.77h-13.534v11.77h-3.42V801.159z"/>
	<path fill="#333333" d="M1084.329,801.159h12.095c4.859,0,7.811,2.592,7.811,6.731c0,3.131-1.332,5.65-4.463,6.515v0.072
		c2.987,0.575,3.563,2.808,3.852,5.291c0.18,2.483,0.071,5.364,1.512,7.091h-3.815c-0.973-1.043-0.433-3.814-0.937-6.334
		c-0.396-2.484-0.972-4.645-4.283-4.645h-8.351v10.979h-3.42V801.159z M1094.876,813.002c3.167,0,5.939-0.828,5.939-4.572
		c0-2.555-1.368-4.391-4.572-4.391h-8.494v8.963H1094.876z"/>
	<path fill="#333333" d="M720.394,854.15h-3.131v-2.7h3.131v-2.771c0-3.023,1.8-4.607,5.147-4.607c0.576,0,1.404,0.108,1.979,0.288
		v2.664c-0.54-0.181-1.188-0.252-1.728-0.252c-1.476,0-2.34,0.467-2.34,2.088v2.591h3.6v2.7h-3.6v15.91h-3.06V854.15z"/>
	<path fill="#333333" d="M737.817,851.019c5.903,0,9.035,4.283,9.035,9.755c0,5.436-3.132,9.719-9.035,9.719
		s-9.035-4.283-9.035-9.719C728.782,855.302,731.914,851.019,737.817,851.019z M737.817,867.793c3.204,0,5.795-2.521,5.795-7.02
		c0-4.5-2.592-7.055-5.795-7.055s-5.795,2.555-5.795,7.055C732.022,865.272,734.613,867.793,737.817,867.793z"/>
	<path fill="#333333" d="M750.346,851.45h2.879v3.924h0.072c1.476-3.024,3.527-4.464,6.839-4.355v3.239
		c-4.931,0-6.731,2.771-6.731,7.523v8.279h-3.06V851.45z"/>
	<path fill="#333333" d="M776.697,851.45h3.708v2.7h-3.708v11.555c0,1.439,0.396,1.655,2.304,1.655h1.404v2.7h-2.34
		c-3.167,0-4.427-0.648-4.427-4.068V854.15h-3.168v-2.7h3.168v-5.579h3.06V851.45z"/>
	<path fill="#333333" d="M783.789,844.359h3.06v9.826h0.072c0.972-2.268,3.671-3.167,5.867-3.167c4.895,0,6.407,2.808,6.407,6.804
		v12.238h-3.06v-12.6c0-2.303-1.44-3.742-3.78-3.742c-3.708,0-5.507,2.482-5.507,5.83v10.512h-3.06V844.359z"/>
	<path fill="#333333" d="M807.044,848.104h-3.06v-3.744h3.06V848.104z M803.985,851.45h3.06v18.61h-3.06V851.45z"/>
	<path fill="#333333" d="M813.667,864.193c0.108,2.734,2.52,3.6,5.003,3.6c1.908,0,4.5-0.433,4.5-2.772
		c0-4.787-12.167-1.548-12.167-8.711c0-3.743,3.672-5.291,6.947-5.291c4.175,0,7.343,1.296,7.631,5.831h-3.06
		c-0.18-2.375-2.34-3.131-4.319-3.131c-1.836,0-3.959,0.504-3.959,2.375c0,2.16,3.24,2.592,6.083,3.24
		c3.06,0.684,6.083,1.727,6.083,5.291c0,4.463-4.14,5.867-7.919,5.867c-4.176,0-7.703-1.691-7.883-6.299H813.667z"/>
	<path fill="#333333" d="M851.178,843.748c8.171,0,12.311,6.442,12.311,13.461c0,7.02-4.14,13.463-12.311,13.463
		s-12.311-6.443-12.311-13.463C838.868,850.19,843.007,843.748,851.178,843.748z M851.178,867.793c6.263,0,8.891-5.4,8.891-10.584
		c0-5.183-2.628-10.582-8.891-10.582s-8.891,5.399-8.891,10.582C842.288,862.393,844.915,867.793,851.178,867.793z"/>
	<path fill="#333333" d="M868.423,854.15h-3.131v-2.7h3.131v-2.771c0-3.023,1.8-4.607,5.147-4.607c0.576,0,1.404,0.108,1.979,0.288
		v2.664c-0.54-0.181-1.188-0.252-1.728-0.252c-1.476,0-2.34,0.467-2.34,2.088v2.591h3.6v2.7h-3.6v15.91h-3.06V854.15z"/>
	<path fill="#333333" d="M879.079,854.15h-3.131v-2.7h3.131v-2.771c0-3.023,1.8-4.607,5.147-4.607c0.576,0,1.404,0.108,1.979,0.288
		v2.664c-0.54-0.181-1.188-0.252-1.728-0.252c-1.476,0-2.34,0.467-2.34,2.088v2.591h3.6v2.7h-3.6v15.91h-3.06V854.15z"/>
	<path fill="#333333" d="M904.349,864.156c-0.828,4.141-3.744,6.336-7.955,6.336c-5.939,0-8.747-4.14-8.927-9.791
		c0-5.615,3.671-9.683,8.747-9.683c6.587,0,8.603,6.155,8.423,10.655h-13.93c-0.108,3.238,1.728,6.119,5.795,6.119
		c2.556,0,4.284-1.188,4.824-3.637H904.349z M901.397,858.974c-0.18-2.916-2.304-5.255-5.363-5.255
		c-3.167,0-5.147,2.375-5.327,5.255H901.397z"/>
	<path fill="#333333" d="M907.699,851.45h2.879v3.924h0.072c1.476-3.024,3.527-4.464,6.839-4.355v3.239
		c-4.931,0-6.731,2.771-6.731,7.523v8.279h-3.06V851.45z"/>
	<path fill="#333333" d="M923.034,848.104h-3.06v-3.744h3.06V848.104z M919.975,851.45h3.06v18.61h-3.06V851.45z"/>
	<path fill="#333333" d="M927.786,851.45h2.88v2.952h0.072c1.296-2.305,3.348-3.384,6.047-3.384c4.895,0,6.407,2.808,6.407,6.804
		v12.238h-3.06v-12.6c0-2.303-1.44-3.742-3.78-3.742c-3.708,0-5.507,2.482-5.507,5.83v10.512h-3.06V851.45z"/>
	<path fill="#333333" d="M963.856,868.477c0,6.083-2.736,9.143-8.639,9.143c-3.492,0-7.523-1.439-7.703-5.471h3.06
		c0.108,2.195,2.844,3.023,4.824,3.023c3.995,0,5.579-2.88,5.579-7.056v-1.224h-0.072c-1.044,2.268-3.42,3.383-5.795,3.383
		c-5.543,0-8.315-4.355-8.315-9.43c0-4.393,2.124-9.827,8.603-9.827c2.339,0,4.427,1.044,5.543,3.096h0.036v-2.664h2.88V868.477z
		 M960.833,860.377c0-3.275-1.44-6.658-5.291-6.658c-3.924,0-5.507,3.203-5.507,6.767c0,3.348,1.224,7.091,5.255,7.091
		C959.321,867.576,960.833,863.869,960.833,860.377z"/>
	<path fill="#333333" d="M978.582,844.359h3.06v9.611h0.072c1.008-2.053,3.348-2.952,5.939-2.952c5.724,0,8.567,4.535,8.567,9.79
		c0,5.292-2.808,9.684-8.495,9.684c-1.872,0-4.68-0.721-6.011-2.916h-0.072v2.484h-3.06V844.359z M987.221,853.719
		c-4.14,0-5.688,3.562-5.688,7.019c0,3.636,1.656,7.056,5.867,7.056c4.176,0,5.58-3.564,5.58-7.199
		C992.98,857.102,991.18,853.719,987.221,853.719z"/>
	<path fill="#333333" d="M1015.228,870.061h-2.88v-2.952h-0.072c-1.296,2.304-3.348,3.384-6.047,3.384
		c-4.896,0-6.407-2.808-6.407-6.803V851.45h3.06v12.599c0,2.304,1.44,3.744,3.78,3.744c3.708,0,5.507-2.484,5.507-5.832V851.45h3.06
		V870.061z"/>
	<path fill="#333333" d="M1023.077,848.104h-3.06v-3.744h3.06V848.104z M1020.018,851.45h3.06v18.61h-3.06V851.45z"/>
	<path fill="#333333" d="M1028.009,844.359h3.06v25.701h-3.06V844.359z"/>
	<path fill="#333333" d="M1052.45,870.061h-3.06v-2.52h-0.072c-1.008,2.051-3.348,2.951-5.939,2.951
		c-5.723,0-8.566-4.535-8.566-9.791s2.808-9.683,8.495-9.683c1.871,0,4.679,0.72,6.011,2.915h0.072v-9.574h3.06V870.061z
		 M1043.812,867.793c4.14,0,5.688-3.564,5.688-7.02c0-3.636-1.656-7.055-5.868-7.055c-4.175,0-5.579,3.562-5.579,7.198
		C1038.052,864.408,1039.852,867.793,1043.812,867.793z"/>
</g>
<g>
	<path fill="#333333" d="M769.934,480.382h3.42v25.701h-3.42V480.382z"/>
	<path fill="#333333" d="M780.481,500.216c0.108,2.735,2.52,3.6,5.003,3.6c1.908,0,4.5-0.433,4.5-2.772
		c0-4.787-12.167-1.548-12.167-8.711c0-3.743,3.672-5.291,6.947-5.291c4.176,0,7.344,1.296,7.631,5.831h-3.06
		c-0.18-2.375-2.34-3.131-4.319-3.131c-1.836,0-3.959,0.504-3.959,2.375c0,2.16,3.239,2.592,6.083,3.24
		c3.06,0.684,6.083,1.728,6.083,5.292c0,4.464-4.14,5.867-7.919,5.867c-4.176,0-7.703-1.691-7.883-6.299H780.481z"/>
	<path fill="#333333" d="M810.865,487.473h3.707v2.7h-3.707v11.555c0,1.439,0.396,1.655,2.304,1.655h1.403v2.7h-2.34
		c-3.167,0-4.427-0.648-4.427-4.067v-11.843h-3.168v-2.7h3.168v-5.579h3.06V487.473z"/>
	<path fill="#333333" d="M817.957,480.382h3.06v9.827h0.072c0.972-2.268,3.671-3.167,5.867-3.167c4.895,0,6.407,2.808,6.407,6.803
		v12.239h-3.06v-12.599c0-2.304-1.44-3.743-3.78-3.743c-3.707,0-5.507,2.483-5.507,5.831v10.511h-3.06V480.382z"/>
	<path fill="#333333" d="M841.213,484.125h-3.06v-3.744h3.06V484.125z M838.153,487.473h3.06v18.61h-3.06V487.473z"/>
	<path fill="#333333" d="M847.836,500.216c0.108,2.735,2.52,3.6,5.003,3.6c1.908,0,4.5-0.433,4.5-2.772
		c0-4.787-12.167-1.548-12.167-8.711c0-3.743,3.672-5.291,6.947-5.291c4.176,0,7.344,1.296,7.631,5.831h-3.06
		c-0.18-2.375-2.34-3.131-4.319-3.131c-1.836,0-3.959,0.504-3.959,2.375c0,2.16,3.239,2.592,6.083,3.24
		c3.06,0.684,6.083,1.728,6.083,5.292c0,4.464-4.14,5.867-7.919,5.867c-4.176,0-7.703-1.691-7.883-6.299H847.836z"/>
	<path fill="#333333" d="M878.22,487.473h3.707v2.7h-3.707v11.555c0,1.439,0.396,1.655,2.304,1.655h1.403v2.7h-2.34
		c-3.167,0-4.427-0.648-4.427-4.067v-11.843h-3.168v-2.7h3.168v-5.579h3.06V487.473z"/>
	<path fill="#333333" d="M885.312,480.382h3.06v9.827h0.072c0.972-2.268,3.671-3.167,5.867-3.167c4.895,0,6.407,2.808,6.407,6.803
		v12.239h-3.06v-12.599c0-2.304-1.44-3.743-3.78-3.743c-3.707,0-5.507,2.483-5.507,5.831v10.511h-3.06V480.382z"/>
	<path fill="#333333" d="M921.201,500.18c-0.828,4.14-3.743,6.335-7.955,6.335c-5.938,0-8.747-4.14-8.927-9.791
		c0-5.615,3.672-9.683,8.747-9.683c6.587,0,8.603,6.155,8.423,10.655h-13.93c-0.108,3.24,1.728,6.12,5.795,6.12
		c2.556,0,4.283-1.188,4.823-3.636H921.201z M918.25,494.996c-0.181-2.916-2.304-5.255-5.363-5.255
		c-3.168,0-5.147,2.375-5.327,5.255H918.25z"/>
	<path fill="#333333" d="M935.927,490.172h-3.132v-2.7h3.132v-2.771c0-3.023,1.8-4.607,5.147-4.607c0.575,0,1.403,0.108,1.979,0.288
		v2.664c-0.54-0.18-1.188-0.252-1.728-0.252c-1.477,0-2.34,0.468-2.34,2.088v2.591h3.6v2.7h-3.6v15.911h-3.06V490.172z
		 M945.501,484.125v-3.744h3.06v3.744H945.501z M945.501,506.083v-18.61h3.06v18.61H945.501z"/>
	<path fill="#333333" d="M953.206,487.473h2.88v3.924h0.072c1.476-3.024,3.527-4.463,6.839-4.355v3.239
		c-4.932,0-6.731,2.772-6.731,7.523v8.279h-3.06V487.473z"/>
	<path fill="#333333" d="M967.174,500.216c0.108,2.735,2.52,3.6,5.003,3.6c1.908,0,4.5-0.433,4.5-2.772
		c0-4.787-12.167-1.548-12.167-8.711c0-3.743,3.672-5.291,6.947-5.291c4.176,0,7.344,1.296,7.631,5.831h-3.06
		c-0.18-2.375-2.34-3.131-4.319-3.131c-1.836,0-3.959,0.504-3.959,2.375c0,2.16,3.239,2.592,6.083,3.24
		c3.06,0.684,6.083,1.728,6.083,5.292c0,4.464-4.14,5.867-7.919,5.867c-4.176,0-7.703-1.691-7.883-6.299H967.174z"/>
	<path fill="#333333" d="M987.55,487.473h3.707v2.7h-3.707v11.555c0,1.439,0.396,1.655,2.304,1.655h1.403v2.7h-2.34
		c-3.167,0-4.427-0.648-4.427-4.067v-11.843h-3.168v-2.7h3.168v-5.579h3.06V487.473z"/>
	<path fill="#333333" d="M772.545,527.326h-3.06v-3.744h3.06V527.326z M769.485,530.673h3.06v18.61h-3.06V530.673z"/>
	<path fill="#333333" d="M777.296,530.673h2.88v2.952h0.072c1.296-2.304,3.348-3.384,6.047-3.384c4.896,0,6.407,2.808,6.407,6.804
		v12.238h-3.06v-12.599c0-2.304-1.439-3.743-3.779-3.743c-3.708,0-5.508,2.483-5.508,5.831v10.511h-3.06V530.673z"/>
	<path fill="#333333" d="M799.184,543.416c0.108,2.735,2.521,3.6,5.004,3.6c1.907,0,4.499-0.433,4.499-2.772
		c0-4.787-12.166-1.548-12.166-8.711c0-3.743,3.671-5.291,6.947-5.291c4.175,0,7.343,1.296,7.631,5.831h-3.06
		c-0.18-2.375-2.34-3.131-4.319-3.131c-1.836,0-3.96,0.504-3.96,2.375c0,2.16,3.24,2.592,6.083,3.24
		c3.06,0.684,6.084,1.728,6.084,5.291c0,4.464-4.14,5.867-7.919,5.867c-4.176,0-7.703-1.691-7.884-6.299H799.184z"/>
	<path fill="#333333" d="M819.56,530.673h3.708v2.7h-3.708v11.555c0,1.439,0.396,1.655,2.304,1.655h1.404v2.7h-2.34
		c-3.168,0-4.428-0.648-4.428-4.067v-11.843h-3.168v-2.7h3.168v-5.579h3.06V530.673z"/>
	<path fill="#333333" d="M843.138,549.211c-0.54,0.324-1.296,0.504-2.196,0.504c-1.583,0-2.591-0.864-2.591-2.88
		c-1.692,2.016-3.96,2.88-6.552,2.88c-3.384,0-6.155-1.476-6.155-5.22c0-4.211,3.132-5.146,6.3-5.723
		c3.347-0.685,6.263-0.396,6.263-2.736c0-2.699-2.231-3.095-4.14-3.095c-2.592,0-4.499,0.791-4.644,3.527h-3.06
		c0.181-4.607,3.708-6.228,7.884-6.228c3.347,0,6.982,0.756,6.982,5.111v9.575c0,1.439,0,2.088,0.972,2.088
		c0.288,0,0.612-0.072,0.937-0.181V549.211z M838.17,539.672c-2.375,1.764-9.286,0.036-9.286,4.607c0,2.016,1.728,2.736,3.599,2.736
		c4.032,0,5.688-2.484,5.688-4.212V539.672z"/>
	<path fill="#333333" d="M846.163,523.582h3.06v25.701h-3.06V523.582z"/>
	<path fill="#333333" d="M854.155,523.582h3.06v25.701h-3.06V523.582z"/>
	<path fill="#333333" d="M878.452,549.211c-0.54,0.324-1.296,0.504-2.196,0.504c-1.583,0-2.591-0.864-2.591-2.88
		c-1.692,2.016-3.96,2.88-6.552,2.88c-3.384,0-6.155-1.476-6.155-5.22c0-4.211,3.132-5.146,6.3-5.723
		c3.347-0.685,6.263-0.396,6.263-2.736c0-2.699-2.231-3.095-4.14-3.095c-2.592,0-4.499,0.791-4.644,3.527h-3.06
		c0.181-4.607,3.708-6.228,7.884-6.228c3.347,0,6.982,0.756,6.982,5.111v9.575c0,1.439,0,2.088,0.972,2.088
		c0.288,0,0.612-0.072,0.937-0.181V549.211z M873.484,539.672c-2.375,1.764-9.286,0.036-9.286,4.607
		c0,2.016,1.728,2.736,3.599,2.736c4.032,0,5.688-2.484,5.688-4.212V539.672z"/>
	<path fill="#333333" d="M885.545,530.673h3.708v2.7h-3.708v11.555c0,1.439,0.396,1.655,2.304,1.655h1.404v2.7h-2.34
		c-3.168,0-4.428-0.648-4.428-4.067v-11.843h-3.168v-2.7h3.168v-5.579h3.06V530.673z"/>
	<path fill="#333333" d="M895.877,527.326h-3.06v-3.744h3.06V527.326z M892.817,530.673h3.06v18.61h-3.06V530.673z"/>
	<path fill="#333333" d="M908.655,530.241c5.903,0,9.035,4.283,9.035,9.755c0,5.436-3.132,9.719-9.035,9.719
		s-9.035-4.283-9.035-9.719C899.62,534.524,902.752,530.241,908.655,530.241z M908.655,547.016c3.203,0,5.795-2.521,5.795-7.02
		s-2.592-7.055-5.795-7.055c-3.204,0-5.795,2.556-5.795,7.055S905.451,547.016,908.655,547.016z"/>
	<path fill="#333333" d="M921.292,530.673h2.879v2.952h0.072c1.296-2.304,3.348-3.384,6.048-3.384c4.895,0,6.407,2.808,6.407,6.804
		v12.238h-3.06v-12.599c0-2.304-1.44-3.743-3.78-3.743c-3.707,0-5.507,2.483-5.507,5.831v10.511h-3.06V530.673z"/>
	<path fill="#333333" d="M952.575,533.373h-3.131v-2.7h3.131v-2.771c0-3.023,1.8-4.607,5.147-4.607c0.576,0,1.404,0.108,1.979,0.288
		v2.664c-0.539-0.181-1.188-0.252-1.728-0.252c-1.476,0-2.34,0.468-2.34,2.088v2.591h3.6v2.7h-3.6v15.91h-3.06V533.373z"/>
	<path fill="#333333" d="M969.998,530.241c5.903,0,9.035,4.283,9.035,9.755c0,5.436-3.132,9.719-9.035,9.719
		s-9.034-4.283-9.034-9.719C960.964,534.524,964.095,530.241,969.998,530.241z M969.998,547.016c3.204,0,5.796-2.521,5.796-7.02
		s-2.592-7.055-5.796-7.055c-3.203,0-5.795,2.556-5.795,7.055S966.795,547.016,969.998,547.016z"/>
	<path fill="#333333" d="M982.527,530.673h2.879v3.924h0.072c1.476-3.023,3.527-4.463,6.839-4.355v3.239
		c-4.931,0-6.73,2.772-6.73,7.523v8.279h-3.06V530.673z"/>
	<path fill="#333333" d="M788.203,573.873h3.708v2.699h-3.708v11.555c0,1.439,0.396,1.656,2.304,1.656h1.404v2.699h-2.34
		c-3.168,0-4.428-0.647-4.428-4.067v-11.843h-3.168v-2.699h3.168v-5.58h3.06V573.873z"/>
	<path fill="#333333" d="M795.295,566.781h3.06v9.827h0.072c0.972-2.268,3.672-3.168,5.867-3.168c4.896,0,6.407,2.808,6.407,6.804
		v12.238h-3.06v-12.599c0-2.304-1.439-3.743-3.779-3.743c-3.708,0-5.508,2.483-5.508,5.831v10.511h-3.06V566.781z"/>
	<path fill="#333333" d="M818.551,570.525h-3.06v-3.744h3.06V570.525z M815.491,573.873h3.06v18.609h-3.06V573.873z"/>
	<path fill="#333333" d="M825.175,586.615c0.108,2.735,2.52,3.6,5.003,3.6c1.908,0,4.5-0.432,4.5-2.771
		c0-4.788-12.167-1.548-12.167-8.711c0-3.744,3.672-5.292,6.947-5.292c4.176,0,7.344,1.296,7.631,5.832h-3.06
		c-0.18-2.376-2.34-3.132-4.319-3.132c-1.836,0-3.959,0.504-3.959,2.376c0,2.159,3.239,2.591,6.083,3.239
		c3.06,0.684,6.083,1.728,6.083,5.291c0,4.464-4.14,5.867-7.919,5.867c-4.176,0-7.703-1.691-7.883-6.299H825.175z"/>
	<path fill="#333333" d="M862.686,566.17c8.171,0,12.311,6.443,12.311,13.462c0,7.02-4.14,13.463-12.311,13.463
		s-12.311-6.443-12.311-13.463C850.375,572.613,854.515,566.17,862.686,566.17z M862.686,590.215c6.263,0,8.891-5.399,8.891-10.583
		s-2.628-10.582-8.891-10.582c-6.264,0-8.891,5.398-8.891,10.582S856.422,590.215,862.686,590.215z"/>
	<path fill="#333333" d="M879.931,576.572h-3.132v-2.699h3.132v-2.771c0-3.024,1.8-4.607,5.147-4.607
		c0.575,0,1.403,0.107,1.979,0.287v2.664c-0.54-0.18-1.188-0.252-1.728-0.252c-1.477,0-2.34,0.468-2.34,2.088v2.592h3.6v2.699h-3.6
		v15.91h-3.06V576.572z"/>
	<path fill="#333333" d="M890.586,576.572h-3.131v-2.699h3.131v-2.771c0-3.024,1.8-4.607,5.147-4.607
		c0.576,0,1.404,0.107,1.979,0.287v2.664c-0.539-0.18-1.188-0.252-1.728-0.252c-1.476,0-2.34,0.468-2.34,2.088v2.592h3.6v2.699h-3.6
		v15.91h-3.06V576.572z"/>
	<path fill="#333333" d="M915.856,586.579c-0.828,4.14-3.744,6.335-7.955,6.335c-5.939,0-8.747-4.14-8.927-9.79
		c0-5.616,3.671-9.684,8.747-9.684c6.587,0,8.603,6.155,8.423,10.655h-13.931c-0.108,3.239,1.728,6.119,5.795,6.119
		c2.556,0,4.284-1.188,4.824-3.636H915.856z M912.904,581.396c-0.18-2.915-2.304-5.255-5.363-5.255
		c-3.167,0-5.147,2.376-5.327,5.255H912.904z"/>
	<path fill="#333333" d="M919.206,573.873h2.879v3.923h0.072c1.476-3.023,3.527-4.463,6.839-4.355v3.24
		c-4.931,0-6.73,2.771-6.73,7.522v8.279h-3.06V573.873z"/>
	<path fill="#333333" d="M934.541,570.525h-3.06v-3.744h3.06V570.525z M931.481,573.873h3.06v18.609h-3.06V573.873z"/>
	<path fill="#333333" d="M939.293,573.873h2.88v2.951h0.072c1.296-2.304,3.348-3.384,6.047-3.384c4.896,0,6.407,2.808,6.407,6.804
		v12.238h-3.06v-12.599c0-2.304-1.439-3.743-3.779-3.743c-3.708,0-5.508,2.483-5.508,5.831v10.511h-3.06V573.873z"/>
	<path fill="#333333" d="M975.363,590.898c0,6.083-2.735,9.143-8.639,9.143c-3.492,0-7.523-1.439-7.703-5.471h3.06
		c0.107,2.195,2.844,3.023,4.823,3.023c3.995,0,5.579-2.88,5.579-7.055v-1.225h-0.071c-1.044,2.269-3.42,3.384-5.796,3.384
		c-5.543,0-8.314-4.355-8.314-9.431c0-4.392,2.123-9.827,8.603-9.827c2.34,0,4.428,1.044,5.543,3.096h0.036v-2.663h2.88V590.898z
		 M972.34,582.8c0-3.275-1.44-6.659-5.291-6.659c-3.924,0-5.508,3.203-5.508,6.767c0,3.348,1.224,7.092,5.255,7.092
		C970.828,589.999,972.34,586.291,972.34,582.8z"/>
	<path fill="#333333" d="M832.717,609.981h3.06v9.611h0.072c1.008-2.052,3.348-2.952,5.939-2.952c5.724,0,8.566,4.536,8.566,9.791
		c0,5.291-2.808,9.683-8.494,9.683c-1.872,0-4.68-0.72-6.012-2.915h-0.072v2.483h-3.06V609.981z M841.356,619.341
		c-4.14,0-5.688,3.563-5.688,7.019c0,3.636,1.655,7.056,5.867,7.056c4.176,0,5.579-3.563,5.579-7.199
		C847.115,622.725,845.315,619.341,841.356,619.341z"/>
	<path fill="#333333" d="M869.363,635.683h-2.88v-2.951h-0.072c-1.296,2.304-3.348,3.383-6.047,3.383
		c-4.896,0-6.407-2.808-6.407-6.803v-12.238h3.06v12.598c0,2.304,1.439,3.744,3.779,3.744c3.708,0,5.508-2.483,5.508-5.831v-10.511
		h3.06V635.683z"/>
	<path fill="#333333" d="M877.213,613.726h-3.06v-3.744h3.06V613.726z M874.153,617.073h3.06v18.609h-3.06V617.073z"/>
	<path fill="#333333" d="M882.145,609.981h3.06v25.701h-3.06V609.981z"/>
	<path fill="#333333" d="M906.585,635.683h-3.06v-2.52h-0.071c-1.009,2.052-3.348,2.951-5.939,2.951
		c-5.724,0-8.567-4.535-8.567-9.79c0-5.256,2.808-9.684,8.495-9.684c1.872,0,4.68,0.721,6.012,2.916h0.071v-9.575h3.06V635.683z
		 M897.946,633.415c4.14,0,5.688-3.563,5.688-7.02c0-3.636-1.656-7.055-5.867-7.055c-4.176,0-5.579,3.563-5.579,7.199
		C892.188,630.031,893.986,633.415,897.946,633.415z"/>
	<path fill="#333333" d="M910.979,618.009c-0.108-4.932,3.06-8.639,8.062-8.639c4.464,0,7.595,2.628,7.595,7.199
		c0,2.987-1.548,4.571-3.096,6.119c-1.548,1.439-3.131,2.88-3.131,5.327v1.403h-3.06v-1.691c0.252-6.011,6.335-6.155,6.047-11.446
		c-0.18-2.628-1.764-4.212-4.355-4.212c-3.455,0-5.003,2.628-5.003,5.939H910.979z M916.847,631.688h3.995v3.995h-3.995V631.688z"/>
</g>
<g>
	<g>
		<g>
			<line fill="#B8D890" x1="879.354" y1="313.907" x2="879.354" y2="352.238"/>
			<g>
				
					<line fill="none" stroke="#4EA8DE" stroke-width="6" stroke-miterlimit="10" x1="879.354" y1="313.907" x2="879.354" y2="345.38"/>
				<g>
					<polygon fill="#4EA8DE" points="869.182,333.43 879.354,343.607 889.525,333.43 889.525,342.066 879.354,352.238 
						869.182,342.066 					"/>
				</g>
			</g>
		</g>
	</g>
</g>
<g>
	<g>
		<g>
			<line fill="#B8D890" x1="1065.999" y1="539.331" x2="1376.163" y2="539.331"/>
			<g>
				
					<line fill="none" stroke="#89C240" stroke-width="6" stroke-miterlimit="10" x1="1065.999" y1="539.331" x2="1369.306" y2="539.331"/>
				<g>
					<polygon fill="#89C240" points="1357.354,549.503 1367.532,539.331 1357.354,529.159 1365.991,529.159 1376.163,539.331 
						1365.991,549.503 					"/>
				</g>
			</g>
		</g>
	</g>
</g>
<g>
	<g>
		<g>
			<line fill="#4EA8DE" x1="879.354" y1="726.424" x2="879.354" y2="769.199"/>
			<g>
				
					<line fill="none" stroke="#ED1C24" stroke-width="6" stroke-miterlimit="10" x1="879.354" y1="726.424" x2="879.354" y2="762.342"/>
				<g>
					<polygon fill="#ED1C24" points="869.182,750.391 879.354,760.568 889.525,750.391 889.525,759.027 879.354,769.199 
						869.182,759.027 					"/>
				</g>
			</g>
		</g>
	</g>
</g>
<g>
	<g>
		<g>
			<path fill="#B8D890" d="M880.269,667.061"/>
		</g>
	</g>
</g>
<line fill="none" stroke="#AAD0E4" stroke-miterlimit="10" x1="33.901" y1="352.238" x2="2014.046" y2="352.238"/>
<line fill="none" stroke="#AAD0E4" stroke-miterlimit="10" x1="33.901" y1="718.079" x2="2014.046" y2="718.079"/>
<g>
	<path fill="#333333" d="M1891.244,930.144v5.841h-1.9v-5.841l-5.521-8.442h2.261l4.281,6.802l4.181-6.802h2.16L1891.244,930.144z"
		/>
	<path fill="#333333" d="M1906.845,932.704c-0.46,2.301-2.081,3.521-4.421,3.521c-3.301,0-4.861-2.301-4.961-5.441
		c0-3.12,2.041-5.381,4.861-5.381c3.66,0,4.781,3.421,4.681,5.921h-7.741c-0.061,1.801,0.96,3.401,3.221,3.401
		c1.42,0,2.38-0.66,2.68-2.021H1906.845z M1905.205,929.823c-0.101-1.62-1.281-2.921-2.981-2.921c-1.761,0-2.86,1.32-2.96,2.921
		H1905.205z"/>
	<path fill="#333333" d="M1909.803,932.724c0.061,1.521,1.4,2.001,2.781,2.001c1.06,0,2.5-0.24,2.5-1.541
		c0-2.66-6.762-0.859-6.762-4.841c0-2.08,2.041-2.94,3.861-2.94c2.32,0,4.08,0.72,4.24,3.24h-1.699
		c-0.101-1.319-1.301-1.74-2.401-1.74c-1.021,0-2.2,0.28-2.2,1.32c0,1.2,1.801,1.44,3.381,1.801c1.7,0.38,3.381,0.96,3.381,2.94
		c0,2.48-2.301,3.261-4.401,3.261c-2.32,0-4.28-0.94-4.381-3.501H1909.803z"/>
</g>
<rect x="1851.113" y="917.884" fill="#89C240" width="23.823" height="23.822"/>
<g>
	<path fill="#333333" d="M1885.323,961.906h2.021l7.521,11.582h0.04v-11.582h1.8v14.283h-2.08l-7.461-11.463h-0.041v11.463h-1.8
		V961.906z"/>
	<path fill="#333333" d="M1903.963,965.607c3.281,0,5.021,2.38,5.021,5.421c0,3.021-1.74,5.401-5.021,5.401
		c-3.28,0-5.021-2.381-5.021-5.401C1898.942,967.987,1900.683,965.607,1903.963,965.607z M1903.963,974.929
		c1.781,0,3.221-1.4,3.221-3.9c0-2.501-1.439-3.921-3.221-3.921c-1.779,0-3.221,1.42-3.221,3.921
		C1900.742,973.528,1902.184,974.929,1903.963,974.929z"/>
</g>
<rect x="1851.113" y="958.089" fill="#FF0000" width="23.823" height="23.822"/>
</svg>
