<?xml version="1.0" encoding="utf-8"?>
<!-- Generator: Adobe Illustrator 16.0.3, SVG Export Plug-In . SVG Version: 6.00 Build 0)  -->
<!DOCTYPE svg PUBLIC "-//W3C//DTD SVG 1.1//EN" "http://www.w3.org/Graphics/SVG/1.1/DTD/svg11.dtd">
<svg version="1.1" id="Layer_1" xmlns="http://www.w3.org/2000/svg" xmlns:xlink="http://www.w3.org/1999/xlink" x="0px" y="0px"
	 width="2048px" height="1000px" viewBox="0 0 2048 1000" enable-background="new 0 0 2048 1000" xml:space="preserve">
<rect fill="#B9E5FB" width="2048" height="1000"/>
<line fill="none" stroke="#343636" stroke-width="7.1988" stroke-miterlimit="10" x1="48.187" y1="51.9" x2="2008.374" y2="51.9"/>
<g>
	<g>
		<polygon fill="#FFFFFF" points="2005.599,941.496 2005.599,457.442 2005.599,244.39 2005.599,91.71 53.214,91.71 53.214,941.496 
					"/>
	</g>
</g>
<rect x="68.983" y="143.481" fill="#4EA8DE" width="1917.188" height="122.419"/>
<g>
	<path fill="#333333" d="M81.368,216.235h6.774c5.036,0,7.21,3.662,7.21,8.171c0,4.509-2.174,8.171-7.21,8.171h-6.774V216.235z
		 M84.229,230.243h2.815c4.486,0,5.448-2.541,5.448-5.836s-0.961-5.836-5.448-5.836h-2.815V230.243z"/>
	<path fill="#333333" d="M99.562,227.336c0,1.854,1.007,3.501,3.182,3.501c1.534,0,2.426-0.664,2.884-1.968h2.472
		c-0.549,2.586-2.792,4.028-5.356,4.028c-3.731,0-5.791-2.563-5.791-6.226c0-3.364,2.197-6.249,5.722-6.249
		c3.731,0,6.02,3.365,5.585,6.913H99.562z M105.65,225.619c-0.114-1.648-1.19-3.136-2.976-3.136c-1.808,0-3.044,1.374-3.113,3.136
		H105.65z"/>
	<path fill="#333333" d="M109.082,220.744h2.838l2.999,9.086h0.046l2.884-9.086h2.701l-4.234,11.833h-2.93L109.082,220.744z"/>
	<path fill="#333333" d="M122.195,216.235h2.609v2.472h-2.609V216.235z M122.195,220.744h2.609v11.833h-2.609V220.744z"/>
	<path fill="#333333" d="M137.552,229.945c0,0.641,0.138,0.893,0.618,0.893h0.274c0.115,0,0.229-0.022,0.366-0.045v1.808
		c-0.389,0.137-1.213,0.297-1.647,0.297c-1.076,0-1.809-0.366-2.015-1.442c-1.03,1.007-2.701,1.442-4.097,1.442
		c-2.129,0-4.051-1.144-4.051-3.456c0-2.953,2.357-3.433,4.555-3.685c1.9-0.366,3.548-0.114,3.548-1.671
		c0-1.373-1.419-1.602-2.449-1.602c-1.465,0-2.495,0.595-2.609,1.877h-2.609c0.183-3.044,2.747-3.937,5.378-3.937
		c2.312,0,4.738,0.938,4.738,3.434V229.945z M134.943,226.649c-0.801,0.526-2.037,0.504-3.205,0.71
		c-1.122,0.183-2.128,0.595-2.128,1.968c0,1.19,1.488,1.51,2.403,1.51c1.144,0,2.93-0.595,2.93-2.243V226.649z"/>
	<path fill="#333333" d="M139.175,220.744h1.968v-3.548h2.609v3.548h2.357v1.945h-2.357v6.317c0,1.076,0.092,1.625,1.259,1.625
		c0.366,0,0.732,0,1.099-0.092v2.014c-0.572,0.069-1.122,0.137-1.694,0.137c-2.747,0-3.204-1.053-3.273-3.021v-6.981h-1.968V220.744
		z"/>
	<path fill="#333333" d="M148.055,216.235h2.609v2.472h-2.609V216.235z M148.055,220.744h2.609v11.833h-2.609V220.744z"/>
	<path fill="#333333" d="M152.952,226.649c0-3.593,2.197-6.226,5.974-6.226s5.974,2.632,5.974,6.226c0,3.64-2.197,6.249-5.974,6.249
		S152.952,230.289,152.952,226.649z M162.29,226.649c0-2.037-1.03-4.166-3.364-4.166s-3.365,2.128-3.365,4.166
		c0,2.06,1.03,4.188,3.365,4.188S162.29,228.709,162.29,226.649z"/>
	<path fill="#333333" d="M167.072,220.744h2.472v1.739l0.046,0.046c0.801-1.305,2.128-2.106,3.685-2.106
		c2.586,0,4.188,1.351,4.188,4.028v8.125h-2.609v-7.438c-0.069-1.854-0.755-2.655-2.312-2.655c-1.74,0-2.861,1.374-2.861,3.113
		v6.981h-2.609V220.744z"/>
	<path fill="#333333" d="M81.253,243.697h3.021l7.461,12.04h0.046v-12.04h2.724v16.342h-3.021l-7.438-12.016h-0.069v12.016h-2.724
		V243.697z"/>
	<path fill="#333333" d="M107.916,260.04h-2.563v-1.648h-0.046c-0.641,1.19-2.06,1.968-3.365,1.968
		c-3.113,0-4.417-1.533-4.417-4.646v-7.507h2.609v7.255c0,2.083,0.824,2.838,2.266,2.838c2.174,0,2.907-1.396,2.907-3.228v-6.866
		h2.609V260.04z"/>
	<path fill="#333333" d="M110.66,248.207h2.472v1.648h0.069c0.801-1.167,1.739-1.969,3.639-1.969c1.442,0,2.792,0.618,3.319,1.969
		c0.893-1.213,1.968-1.969,3.708-1.969c2.495,0,3.96,1.122,3.96,3.983v8.171h-2.609v-6.912c0-1.9-0.114-3.182-2.151-3.182
		c-1.763,0-2.518,1.145-2.518,3.159v6.935h-2.609v-7.599c0-1.648-0.503-2.495-2.083-2.495c-1.35,0-2.586,1.122-2.586,3.067v7.027
		h-2.609V248.207z"/>
	<path fill="#333333" d="M130.639,243.697h2.609v6.042h0.046c0.732-1.145,2.174-1.854,3.524-1.854c3.731,0,5.539,2.815,5.539,6.294
		c0,3.204-1.625,6.18-5.104,6.18c-1.602,0-3.319-0.389-4.097-1.945h-0.045v1.625h-2.472V243.697z M136.476,249.946
		c-2.197,0-3.319,1.648-3.319,4.188c0,2.38,1.213,4.166,3.319,4.166c2.38,0,3.273-2.106,3.273-4.166
		C139.749,252.006,138.627,249.946,136.476,249.946z"/>
	<path fill="#333333" d="M146.59,254.798c0,1.854,1.007,3.502,3.182,3.502c1.534,0,2.426-0.664,2.884-1.969h2.472
		c-0.549,2.586-2.792,4.028-5.356,4.028c-3.731,0-5.791-2.563-5.791-6.226c0-3.364,2.197-6.249,5.722-6.249
		c3.731,0,6.02,3.365,5.585,6.913H146.59z M152.679,253.082c-0.114-1.648-1.19-3.136-2.976-3.136c-1.808,0-3.044,1.374-3.113,3.136
		H152.679z"/>
	<path fill="#333333" d="M157.277,248.207h2.449v2.289h0.046c0.297-1.259,1.877-2.609,3.456-2.609c0.618,0,0.732,0.046,0.984,0.069
		v2.518c-0.366-0.068-0.755-0.114-1.122-0.114c-1.763,0-3.205,1.419-3.205,4.051v5.63h-2.609V248.207z"/>
</g>
<g>
	<path fill="#333333" d="M211.351,211.633h6.775c5.035,0,7.209,3.662,7.209,8.171c0,4.509-2.174,8.171-7.209,8.171h-6.775V211.633z
		 M214.212,225.641h2.815c4.486,0,5.447-2.541,5.447-5.836s-0.961-5.836-5.447-5.836h-2.815V225.641z"/>
	<path fill="#333333" d="M237.418,225.343c0,0.641,0.138,0.893,0.618,0.893h0.274c0.115,0,0.229-0.022,0.366-0.045v1.808
		c-0.389,0.137-1.213,0.297-1.647,0.297c-1.076,0-1.809-0.366-2.015-1.442c-1.03,1.007-2.701,1.442-4.097,1.442
		c-2.129,0-4.051-1.144-4.051-3.456c0-2.953,2.357-3.433,4.555-3.685c1.9-0.366,3.548-0.114,3.548-1.671
		c0-1.373-1.419-1.602-2.449-1.602c-1.465,0-2.495,0.595-2.609,1.877h-2.609c0.183-3.044,2.747-3.937,5.378-3.937
		c2.312,0,4.738,0.938,4.738,3.434V225.343z M234.809,222.047c-0.801,0.526-2.037,0.504-3.205,0.71
		c-1.122,0.183-2.128,0.595-2.128,1.968c0,1.19,1.488,1.51,2.403,1.51c1.144,0,2.93-0.595,2.93-2.243V222.047z"/>
	<path fill="#333333" d="M239.042,216.143h1.968v-3.548h2.609v3.548h2.357v1.945h-2.357v6.317c0,1.076,0.092,1.625,1.259,1.625
		c0.366,0,0.732,0,1.099-0.092v2.014c-0.572,0.069-1.122,0.137-1.694,0.137c-2.747,0-3.204-1.053-3.273-3.021v-6.981h-1.968V216.143
		z"/>
	<path fill="#333333" d="M249.889,222.734c0,1.854,1.007,3.501,3.182,3.501c1.534,0,2.426-0.664,2.884-1.968h2.472
		c-0.549,2.586-2.792,4.028-5.356,4.028c-3.731,0-5.791-2.563-5.791-6.226c0-3.364,2.197-6.249,5.722-6.249
		c3.731,0,6.02,3.365,5.585,6.913H249.889z M255.978,221.018c-0.114-1.648-1.19-3.136-2.976-3.136c-1.808,0-3.044,1.374-3.113,3.136
		H255.978z"/>
	<path fill="#333333" d="M211.351,239.096h2.861v16.342h-2.861V239.096z"/>
	<path fill="#333333" d="M228.494,255.438h-2.472v-1.602h-0.046c-0.709,1.373-2.174,1.922-3.662,1.922
		c-3.73,0-5.539-2.77-5.539-6.317c0-4.303,2.541-6.157,5.127-6.157c1.465,0,3.135,0.549,3.937,1.854h0.046v-6.042h2.609V255.438z
		 M222.657,253.699c2.312,0,3.318-2.129,3.318-4.189c0-2.632-1.259-4.166-3.273-4.166c-2.449,0-3.319,2.197-3.319,4.303
		C219.384,251.684,220.391,253.699,222.657,253.699z"/>
	<path fill="#333333" d="M233.367,250.197c0,1.854,1.007,3.502,3.182,3.502c1.534,0,2.426-0.664,2.884-1.969h2.472
		c-0.549,2.586-2.792,4.028-5.356,4.028c-3.731,0-5.791-2.563-5.791-6.226c0-3.364,2.197-6.249,5.722-6.249
		c3.731,0,6.02,3.365,5.585,6.913H233.367z M239.455,248.48c-0.114-1.648-1.19-3.136-2.976-3.136c-1.808,0-3.044,1.374-3.113,3.136
		H239.455z"/>
	<path fill="#333333" d="M244.054,243.605h2.472v1.739l0.046,0.046c0.801-1.305,2.128-2.106,3.685-2.106
		c2.586,0,4.188,1.351,4.188,4.028v8.125h-2.609V248c-0.069-1.854-0.755-2.655-2.312-2.655c-1.74,0-2.861,1.374-2.861,3.113v6.981
		h-2.609V243.605z"/>
	<path fill="#333333" d="M256,243.605h1.968v-3.548h2.609v3.548h2.357v1.945h-2.357v6.317c0,1.076,0.092,1.625,1.259,1.625
		c0.366,0,0.732,0,1.099-0.092v2.014c-0.572,0.069-1.122,0.137-1.694,0.137c-2.747,0-3.204-1.053-3.273-3.021v-6.981H256V243.605z"
		/>
	<path fill="#333333" d="M264.879,239.096h2.609v2.472h-2.609V239.096z M264.879,243.605h2.609v11.833h-2.609V243.605z"/>
	<path fill="#333333" d="M269.158,243.605h1.945v-0.984c0-3.021,1.58-3.525,3.273-3.525c0.847,0,1.442,0.046,1.831,0.16v2.037
		c-0.343-0.091-0.687-0.137-1.213-0.137c-0.709,0-1.282,0.252-1.282,1.236v1.213h2.22v1.945h-2.22v9.888h-2.609v-9.888h-1.945
		V243.605z M277.604,239.096h2.609v2.472h-2.609V239.096z M277.604,243.605h2.609v11.833h-2.609V243.605z"/>
	<path fill="#333333" d="M285.086,250.197c0,1.854,1.007,3.502,3.182,3.502c1.534,0,2.426-0.664,2.884-1.969h2.472
		c-0.549,2.586-2.792,4.028-5.356,4.028c-3.731,0-5.791-2.563-5.791-6.226c0-3.364,2.197-6.249,5.722-6.249
		c3.731,0,6.02,3.365,5.585,6.913H285.086z M291.175,248.48c-0.114-1.648-1.19-3.136-2.976-3.136c-1.808,0-3.044,1.374-3.113,3.136
		H291.175z"/>
	<path fill="#333333" d="M306.92,255.438h-2.472v-1.602h-0.046c-0.709,1.373-2.174,1.922-3.662,1.922
		c-3.73,0-5.539-2.77-5.539-6.317c0-4.303,2.541-6.157,5.127-6.157c1.465,0,3.135,0.549,3.937,1.854h0.046v-6.042h2.609V255.438z
		 M301.084,253.699c2.312,0,3.318-2.129,3.318-4.189c0-2.632-1.259-4.166-3.273-4.166c-2.449,0-3.319,2.197-3.319,4.303
		C297.811,251.684,298.818,253.699,301.084,253.699z"/>
</g>
<g>
	<path fill="#333333" d="M340.786,216.235h2.861v16.342h-2.861V216.235z"/>
	<path fill="#333333" d="M357.928,232.577h-2.472v-1.602h-0.046c-0.709,1.373-2.174,1.922-3.662,1.922
		c-3.73,0-5.539-2.77-5.539-6.317c0-4.303,2.541-6.157,5.127-6.157c1.465,0,3.136,0.549,3.937,1.854h0.046v-6.042h2.609V232.577z
		 M352.091,230.837c2.312,0,3.319-2.128,3.319-4.188c0-2.632-1.259-4.166-3.273-4.166c-2.449,0-3.319,2.197-3.319,4.303
		C348.818,228.824,349.826,230.837,352.091,230.837z"/>
	<path fill="#333333" d="M362.801,227.336c0,1.854,1.007,3.501,3.182,3.501c1.534,0,2.426-0.664,2.884-1.968h2.472
		c-0.549,2.586-2.792,4.028-5.356,4.028c-3.731,0-5.791-2.563-5.791-6.226c0-3.364,2.197-6.249,5.722-6.249
		c3.731,0,6.02,3.365,5.585,6.913H362.801z M368.89,225.619c-0.114-1.648-1.19-3.136-2.976-3.136c-1.808,0-3.044,1.374-3.113,3.136
		H368.89z"/>
	<path fill="#333333" d="M373.489,220.744h2.472v1.739l0.046,0.046c0.801-1.305,2.128-2.106,3.685-2.106
		c2.586,0,4.188,1.351,4.188,4.028v8.125h-2.609v-7.438c-0.069-1.854-0.755-2.655-2.312-2.655c-1.74,0-2.861,1.374-2.861,3.113
		v6.981h-2.609V220.744z"/>
	<path fill="#333333" d="M385.434,220.744h1.968v-3.548h2.609v3.548h2.357v1.945h-2.357v6.317c0,1.076,0.091,1.625,1.259,1.625
		c0.366,0,0.732,0,1.099-0.092v2.014c-0.572,0.069-1.122,0.137-1.694,0.137c-2.747,0-3.204-1.053-3.273-3.021v-6.981h-1.968V220.744
		z"/>
	<path fill="#333333" d="M394.313,216.235h2.609v2.472h-2.609V216.235z M394.313,220.744h2.609v11.833h-2.609V220.744z"/>
	<path fill="#333333" d="M398.593,220.744h1.945v-0.984c0-3.021,1.58-3.525,3.273-3.525c0.847,0,1.442,0.046,1.831,0.16v2.037
		c-0.343-0.091-0.687-0.137-1.213-0.137c-0.709,0-1.282,0.252-1.282,1.236v1.213h2.22v1.945h-2.22v9.888h-2.609v-9.888h-1.945
		V220.744z M407.039,216.235h2.609v2.472h-2.609V216.235z M407.039,220.744h2.609v11.833h-2.609V220.744z"/>
	<path fill="#333333" d="M414.521,227.336c0,1.854,1.007,3.501,3.182,3.501c1.534,0,2.426-0.664,2.884-1.968h2.472
		c-0.549,2.586-2.792,4.028-5.356,4.028c-3.731,0-5.791-2.563-5.791-6.226c0-3.364,2.197-6.249,5.722-6.249
		c3.731,0,6.02,3.365,5.585,6.913H414.521z M420.609,225.619c-0.114-1.648-1.19-3.136-2.976-3.136c-1.808,0-3.044,1.374-3.113,3.136
		H420.609z"/>
	<path fill="#333333" d="M425.208,220.744h2.449v2.289h0.046c0.297-1.259,1.877-2.609,3.456-2.609c0.618,0,0.732,0.046,0.984,0.069
		v2.518c-0.366-0.068-0.755-0.114-1.122-0.114c-1.763,0-3.205,1.419-3.205,4.051v5.63h-2.609V220.744z"/>
	<path fill="#333333" d="M435.232,228.778c0.16,1.533,1.282,2.06,2.678,2.06c1.007,0,2.701-0.206,2.632-1.556
		c-0.069-1.374-1.968-1.534-3.868-1.968c-1.923-0.412-3.799-1.099-3.799-3.502c0-2.586,2.792-3.388,4.944-3.388
		c2.426,0,4.646,0.984,4.944,3.64h-2.724c-0.252-1.259-1.236-1.58-2.403-1.58c-0.755,0-2.152,0.183-2.152,1.213
		c0,1.281,1.923,1.487,3.845,1.899c1.9,0.435,3.822,1.122,3.822,3.456c0,2.815-2.838,3.845-5.287,3.845
		c-2.998,0-5.172-1.328-5.241-4.12H435.232z"/>
	<path fill="#333333" d="M340.671,243.697h3.021l7.461,12.04h0.046v-12.04h2.724v16.342h-3.021l-7.438-12.016h-0.069v12.016h-2.724
		V243.697z"/>
	<path fill="#333333" d="M366.853,257.407c0,0.641,0.138,0.893,0.618,0.893h0.275c0.114,0,0.229-0.023,0.366-0.046v1.808
		c-0.389,0.137-1.213,0.297-1.648,0.297c-1.076,0-1.808-0.366-2.014-1.442c-1.03,1.007-2.701,1.442-4.097,1.442
		c-2.128,0-4.051-1.145-4.051-3.456c0-2.953,2.357-3.433,4.555-3.685c1.9-0.366,3.548-0.114,3.548-1.671
		c0-1.373-1.419-1.602-2.449-1.602c-1.465,0-2.495,0.595-2.609,1.877h-2.609c0.183-3.044,2.747-3.937,5.378-3.937
		c2.312,0,4.738,0.938,4.738,3.434V257.407z M364.244,254.111c-0.801,0.527-2.037,0.504-3.205,0.709
		c-1.122,0.184-2.128,0.595-2.128,1.969c0,1.19,1.488,1.511,2.403,1.511c1.144,0,2.93-0.595,2.93-2.243V254.111z"/>
	<path fill="#333333" d="M369.667,248.207h2.472v1.648h0.069c0.801-1.167,1.739-1.969,3.639-1.969c1.442,0,2.792,0.618,3.319,1.969
		c0.893-1.213,1.968-1.969,3.708-1.969c2.495,0,3.96,1.122,3.96,3.983v8.171h-2.609v-6.912c0-1.9-0.114-3.182-2.151-3.182
		c-1.763,0-2.518,1.145-2.518,3.159v6.935h-2.609v-7.599c0-1.648-0.504-2.495-2.083-2.495c-1.351,0-2.586,1.122-2.586,3.067v7.027
		h-2.609V248.207z"/>
	<path fill="#333333" d="M391.613,254.798c0,1.854,1.007,3.502,3.182,3.502c1.534,0,2.426-0.664,2.884-1.969h2.472
		c-0.549,2.586-2.792,4.028-5.356,4.028c-3.731,0-5.791-2.563-5.791-6.226c0-3.364,2.197-6.249,5.722-6.249
		c3.731,0,6.02,3.365,5.585,6.913H391.613z M397.702,253.082c-0.114-1.648-1.19-3.136-2.976-3.136c-1.808,0-3.044,1.374-3.113,3.136
		H397.702z"/>
</g>
<g>
	<path fill="#333333" d="M469.102,216.235h2.861v16.342h-2.861V216.235z"/>
	<path fill="#333333" d="M486.244,232.577h-2.472v-1.602h-0.046c-0.709,1.373-2.174,1.922-3.662,1.922
		c-3.73,0-5.539-2.77-5.539-6.317c0-4.303,2.541-6.157,5.127-6.157c1.465,0,3.136,0.549,3.937,1.854h0.046v-6.042h2.609V232.577z
		 M480.407,230.837c2.312,0,3.319-2.128,3.319-4.188c0-2.632-1.259-4.166-3.273-4.166c-2.449,0-3.319,2.197-3.319,4.303
		C477.134,228.824,478.142,230.837,480.407,230.837z"/>
	<path fill="#333333" d="M491.117,227.336c0,1.854,1.007,3.501,3.182,3.501c1.534,0,2.426-0.664,2.884-1.968h2.472
		c-0.549,2.586-2.792,4.028-5.356,4.028c-3.731,0-5.791-2.563-5.791-6.226c0-3.364,2.197-6.249,5.722-6.249
		c3.731,0,6.02,3.365,5.585,6.913H491.117z M497.206,225.619c-0.114-1.648-1.19-3.136-2.976-3.136c-1.808,0-3.044,1.374-3.113,3.136
		H497.206z"/>
	<path fill="#333333" d="M501.805,220.744h2.472v1.739l0.046,0.046c0.801-1.305,2.128-2.106,3.685-2.106
		c2.586,0,4.188,1.351,4.188,4.028v8.125h-2.609v-7.438c-0.069-1.854-0.755-2.655-2.312-2.655c-1.74,0-2.861,1.374-2.861,3.113
		v6.981h-2.609V220.744z"/>
	<path fill="#333333" d="M513.75,220.744h1.968v-3.548h2.609v3.548h2.357v1.945h-2.357v6.317c0,1.076,0.091,1.625,1.259,1.625
		c0.366,0,0.732,0,1.099-0.092v2.014c-0.572,0.069-1.122,0.137-1.694,0.137c-2.747,0-3.204-1.053-3.273-3.021v-6.981h-1.968V220.744
		z"/>
	<path fill="#333333" d="M522.629,216.235h2.609v2.472h-2.609V216.235z M522.629,220.744h2.609v11.833h-2.609V220.744z"/>
	<path fill="#333333" d="M526.909,220.744h1.945v-0.984c0-3.021,1.58-3.525,3.273-3.525c0.847,0,1.442,0.046,1.831,0.16v2.037
		c-0.343-0.091-0.687-0.137-1.213-0.137c-0.709,0-1.282,0.252-1.282,1.236v1.213h2.22v1.945h-2.22v9.888h-2.609v-9.888h-1.945
		V220.744z M535.354,216.235h2.609v2.472h-2.609V216.235z M535.354,220.744h2.609v11.833h-2.609V220.744z"/>
	<path fill="#333333" d="M542.837,227.336c0,1.854,1.007,3.501,3.182,3.501c1.534,0,2.426-0.664,2.884-1.968h2.472
		c-0.549,2.586-2.792,4.028-5.356,4.028c-3.731,0-5.791-2.563-5.791-6.226c0-3.364,2.197-6.249,5.722-6.249
		c3.731,0,6.02,3.365,5.585,6.913H542.837z M548.925,225.619c-0.114-1.648-1.19-3.136-2.976-3.136c-1.808,0-3.044,1.374-3.113,3.136
		H548.925z"/>
	<path fill="#333333" d="M553.524,220.744h2.449v2.289h0.046c0.297-1.259,1.877-2.609,3.456-2.609c0.618,0,0.732,0.046,0.984,0.069
		v2.518c-0.366-0.068-0.755-0.114-1.122-0.114c-1.763,0-3.205,1.419-3.205,4.051v5.63h-2.609V220.744z"/>
	<path fill="#333333" d="M563.548,228.778c0.16,1.533,1.282,2.06,2.678,2.06c1.007,0,2.701-0.206,2.632-1.556
		c-0.069-1.374-1.968-1.534-3.868-1.968c-1.923-0.412-3.799-1.099-3.799-3.502c0-2.586,2.792-3.388,4.944-3.388
		c2.426,0,4.646,0.984,4.944,3.64h-2.724c-0.252-1.259-1.236-1.58-2.403-1.58c-0.755,0-2.152,0.183-2.152,1.213
		c0,1.281,1.923,1.487,3.845,1.899c1.9,0.435,3.822,1.122,3.822,3.456c0,2.815-2.838,3.845-5.287,3.845
		c-2.998,0-5.172-1.328-5.241-4.12H563.548z"/>
	<path fill="#333333" d="M469.102,243.697h7.805c3.593,0,5.401,1.648,5.401,4.417c0,3.136-2.151,3.937-2.701,4.12v0.045
		c0.984,0.115,2.426,0.893,2.426,3.457c0,1.922,0.274,3.639,0.893,4.303h-3.067c-0.435-0.709-0.435-1.602-0.435-2.403
		c0-2.998-0.618-4.326-3.25-4.326h-4.211v6.729h-2.861V243.697z M471.962,251.136h4.692c1.831,0,2.792-0.87,2.792-2.609
		c0-2.106-1.351-2.495-2.838-2.495h-4.646V251.136z"/>
	<path fill="#333333" d="M484.297,254.111c0-3.593,2.197-6.226,5.974-6.226c3.776,0,5.974,2.632,5.974,6.226
		c0,3.639-2.197,6.249-5.974,6.249C486.494,260.36,484.297,257.75,484.297,254.111z M493.636,254.111
		c0-2.037-1.03-4.166-3.365-4.166s-3.365,2.129-3.365,4.166c0,2.06,1.03,4.189,3.365,4.189S493.636,256.171,493.636,254.111z"/>
	<path fill="#333333" d="M498.486,243.697h2.609v16.342h-2.609V243.697z"/>
	<path fill="#333333" d="M505.969,254.798c0,1.854,1.007,3.502,3.182,3.502c1.534,0,2.426-0.664,2.884-1.969h2.472
		c-0.549,2.586-2.792,4.028-5.356,4.028c-3.731,0-5.791-2.563-5.791-6.226c0-3.364,2.197-6.249,5.722-6.249
		c3.731,0,6.02,3.365,5.585,6.913H505.969z M512.058,253.082c-0.114-1.648-1.19-3.136-2.976-3.136c-1.808,0-3.044,1.374-3.113,3.136
		H512.058z"/>
</g>
<g>
	<path fill="#333333" d="M599.681,187.267h7.21c4.669,0,5.562,3.021,5.562,5.059c0,2.037-0.893,5.012-5.562,5.012h-4.349v6.271
		h-2.861V187.267z M602.542,195.003h4.188c1.282,0,2.861-0.641,2.861-2.701c0-2.151-1.304-2.701-2.815-2.701h-4.234V195.003z"/>
	<path fill="#333333" d="M614.58,191.776h2.449v2.289h0.046c0.297-1.259,1.877-2.609,3.456-2.609c0.618,0,0.732,0.046,0.984,0.069
		v2.518c-0.366-0.068-0.755-0.114-1.122-0.114c-1.763,0-3.205,1.419-3.205,4.051v5.63h-2.609V191.776z"/>
	<path fill="#333333" d="M621.673,197.681c0-3.593,2.197-6.226,5.974-6.226c3.776,0,5.974,2.632,5.974,6.226
		c0,3.639-2.197,6.249-5.974,6.249C623.871,203.929,621.673,201.32,621.673,197.681z M631.012,197.681
		c0-2.037-1.03-4.166-3.365-4.166s-3.365,2.129-3.365,4.166c0,2.06,1.03,4.189,3.365,4.189S631.012,199.741,631.012,197.681z"/>
	<path fill="#333333" d="M643.782,195.735c-0.206-1.465-1.236-2.22-2.701-2.22c-1.351,0-3.25,0.732-3.25,4.303
		c0,1.968,0.87,4.051,3.136,4.051c1.534,0,2.563-0.984,2.815-2.701h2.609c-0.481,3.09-2.38,4.761-5.425,4.761
		c-3.708,0-5.745-2.632-5.745-6.111c0-3.571,1.945-6.363,5.836-6.363c2.747,0,5.081,1.374,5.333,4.28H643.782z"/>
	<path fill="#333333" d="M650.555,198.368c0,1.854,1.007,3.502,3.182,3.502c1.534,0,2.426-0.664,2.884-1.969h2.472
		c-0.549,2.586-2.792,4.028-5.356,4.028c-3.731,0-5.791-2.563-5.791-6.226c0-3.364,2.197-6.249,5.722-6.249
		c3.731,0,6.02,3.365,5.585,6.913H650.555z M656.643,196.651c-0.114-1.648-1.19-3.136-2.976-3.136c-1.808,0-3.044,1.374-3.113,3.136
		H656.643z"/>
	<path fill="#333333" d="M663.21,199.81c0.16,1.533,1.282,2.06,2.678,2.06c1.007,0,2.701-0.206,2.632-1.557
		c-0.069-1.373-1.968-1.534-3.868-1.968c-1.923-0.412-3.799-1.099-3.799-3.502c0-2.586,2.792-3.388,4.944-3.388
		c2.426,0,4.646,0.984,4.944,3.639h-2.724c-0.252-1.259-1.236-1.579-2.403-1.579c-0.755,0-2.152,0.183-2.152,1.213
		c0,1.282,1.923,1.488,3.845,1.9c1.9,0.435,3.822,1.122,3.822,3.456c0,2.815-2.838,3.845-5.287,3.845
		c-2.998,0-5.172-1.327-5.241-4.12H663.21z"/>
	<path fill="#333333" d="M675.088,199.81c0.16,1.533,1.282,2.06,2.678,2.06c1.007,0,2.701-0.206,2.632-1.557
		c-0.069-1.373-1.969-1.534-3.868-1.968c-1.923-0.412-3.799-1.099-3.799-3.502c0-2.586,2.792-3.388,4.944-3.388
		c2.426,0,4.646,0.984,4.944,3.639h-2.724c-0.251-1.259-1.236-1.579-2.403-1.579c-0.755,0-2.152,0.183-2.152,1.213
		c0,1.282,1.923,1.488,3.845,1.9c1.9,0.435,3.823,1.122,3.823,3.456c0,2.815-2.838,3.845-5.288,3.845
		c-2.998,0-5.172-1.327-5.241-4.12H675.088z"/>
	<path fill="#333333" d="M689.689,186.877h2.495l-6.569,17.121h-2.495L689.689,186.877z"/>
	<path fill="#333333" d="M599.681,214.729h7.21c4.669,0,5.562,3.021,5.562,5.059s-0.893,5.012-5.562,5.012h-4.349v6.271h-2.861
		V214.729z M602.542,222.465h4.188c1.282,0,2.861-0.641,2.861-2.701c0-2.152-1.304-2.701-2.815-2.701h-4.234V222.465z"/>
	<path fill="#333333" d="M614.58,219.238h2.449v2.289h0.046c0.297-1.259,1.877-2.609,3.456-2.609c0.618,0,0.732,0.046,0.984,0.069
		v2.518c-0.366-0.068-0.755-0.114-1.122-0.114c-1.763,0-3.205,1.419-3.205,4.051v5.63h-2.609V219.238z"/>
	<path fill="#333333" d="M621.673,225.143c0-3.593,2.197-6.226,5.974-6.226c3.776,0,5.974,2.632,5.974,6.226
		c0,3.64-2.197,6.249-5.974,6.249C623.871,231.392,621.673,228.783,621.673,225.143z M631.012,225.143
		c0-2.037-1.03-4.166-3.365-4.166s-3.365,2.128-3.365,4.166c0,2.06,1.03,4.188,3.365,4.188S631.012,227.203,631.012,225.143z"/>
	<path fill="#333333" d="M643.782,223.198c-0.206-1.465-1.236-2.22-2.701-2.22c-1.351,0-3.25,0.732-3.25,4.303
		c0,1.968,0.87,4.051,3.136,4.051c1.534,0,2.563-0.984,2.815-2.701h2.609c-0.481,3.09-2.38,4.761-5.425,4.761
		c-3.708,0-5.745-2.632-5.745-6.111c0-3.571,1.945-6.363,5.836-6.363c2.747,0,5.081,1.374,5.333,4.28H643.782z"/>
	<path fill="#333333" d="M650.555,225.83c0,1.854,1.007,3.501,3.182,3.501c1.534,0,2.426-0.664,2.884-1.968h2.472
		c-0.549,2.586-2.792,4.028-5.356,4.028c-3.731,0-5.791-2.563-5.791-6.226c0-3.364,2.197-6.249,5.722-6.249
		c3.731,0,6.02,3.365,5.585,6.913H650.555z M656.643,224.113c-0.114-1.648-1.19-3.136-2.976-3.136c-1.808,0-3.044,1.374-3.113,3.136
		H656.643z"/>
	<path fill="#333333" d="M672.389,231.071h-2.472v-1.602h-0.046c-0.709,1.373-2.174,1.922-3.662,1.922
		c-3.73,0-5.539-2.77-5.539-6.317c0-4.303,2.541-6.157,5.127-6.157c1.465,0,3.135,0.549,3.937,1.854h0.046v-6.042h2.609V231.071z
		 M666.552,229.332c2.312,0,3.318-2.128,3.318-4.188c0-2.632-1.259-4.166-3.273-4.166c-2.449,0-3.319,2.197-3.319,4.303
		C663.279,227.318,664.286,229.332,666.552,229.332z"/>
	<path fill="#333333" d="M685.616,231.071h-2.563v-1.648h-0.046c-0.641,1.19-2.06,1.968-3.365,1.968
		c-3.113,0-4.417-1.533-4.417-4.646v-7.507h2.609v7.255c0,2.083,0.824,2.838,2.266,2.838c2.174,0,2.907-1.396,2.907-3.227v-6.866
		h2.609V231.071z"/>
	<path fill="#333333" d="M688.361,219.238h2.449v2.289h0.046c0.297-1.259,1.877-2.609,3.456-2.609c0.618,0,0.732,0.046,0.984,0.069
		v2.518c-0.366-0.068-0.755-0.114-1.122-0.114c-1.763,0-3.205,1.419-3.205,4.051v5.63h-2.609V219.238z"/>
	<path fill="#333333" d="M698.041,225.83c0,1.854,1.007,3.501,3.182,3.501c1.534,0,2.426-0.664,2.884-1.968h2.472
		c-0.549,2.586-2.792,4.028-5.356,4.028c-3.731,0-5.791-2.563-5.791-6.226c0-3.364,2.197-6.249,5.722-6.249
		c3.731,0,6.02,3.365,5.585,6.913H698.041z M704.129,224.113c-0.114-1.648-1.19-3.136-2.976-3.136c-1.808,0-3.044,1.374-3.113,3.136
		H704.129z"/>
	<path fill="#333333" d="M599.681,242.191h6.775c5.035,0,7.209,3.662,7.209,8.171c0,4.509-2.174,8.171-7.209,8.171h-6.775V242.191z
		 M602.542,256.199h2.815c4.486,0,5.447-2.541,5.447-5.836s-0.961-5.837-5.447-5.837h-2.815V256.199z"/>
	<path fill="#333333" d="M617.875,253.292c0,1.854,1.007,3.502,3.182,3.502c1.534,0,2.426-0.664,2.884-1.969h2.472
		c-0.549,2.586-2.792,4.028-5.356,4.028c-3.731,0-5.791-2.563-5.791-6.226c0-3.364,2.197-6.249,5.722-6.249
		c3.731,0,6.02,3.365,5.585,6.913H617.875z M623.963,251.576c-0.114-1.648-1.19-3.136-2.976-3.136c-1.808,0-3.044,1.374-3.113,3.136
		H623.963z"/>
	<path fill="#333333" d="M627.395,246.701h2.838l2.999,9.086h0.046l2.884-9.086h2.701l-4.234,11.833h-2.93L627.395,246.701z"/>
	<path fill="#333333" d="M640.508,242.191h2.609v2.472h-2.609V242.191z M640.508,246.701h2.609v11.833h-2.609V246.701z"/>
	<path fill="#333333" d="M655.865,255.901c0,0.641,0.138,0.893,0.618,0.893h0.275c0.114,0,0.229-0.023,0.366-0.046v1.808
		c-0.389,0.137-1.213,0.297-1.648,0.297c-1.076,0-1.808-0.366-2.014-1.442c-1.03,1.007-2.701,1.442-4.097,1.442
		c-2.128,0-4.051-1.145-4.051-3.456c0-2.953,2.357-3.433,4.555-3.685c1.9-0.366,3.548-0.114,3.548-1.671
		c0-1.373-1.419-1.602-2.449-1.602c-1.465,0-2.495,0.595-2.609,1.877h-2.609c0.183-3.044,2.747-3.937,5.378-3.937
		c2.312,0,4.738,0.938,4.738,3.434V255.901z M653.256,252.605c-0.801,0.527-2.037,0.504-3.205,0.709
		c-1.122,0.184-2.128,0.595-2.128,1.969c0,1.19,1.488,1.511,2.403,1.511c1.144,0,2.93-0.595,2.93-2.243V252.605z"/>
	<path fill="#333333" d="M657.489,246.701h1.968v-3.548h2.609v3.548h2.357v1.945h-2.357v6.317c0,1.076,0.091,1.625,1.259,1.625
		c0.366,0,0.732,0,1.099-0.092v2.014c-0.572,0.069-1.122,0.137-1.694,0.137c-2.747,0-3.204-1.053-3.273-3.021v-6.981h-1.968V246.701
		z"/>
	<path fill="#333333" d="M668.336,253.292c0,1.854,1.007,3.502,3.182,3.502c1.534,0,2.426-0.664,2.884-1.969h2.472
		c-0.549,2.586-2.792,4.028-5.356,4.028c-3.731,0-5.791-2.563-5.791-6.226c0-3.364,2.197-6.249,5.722-6.249
		c3.731,0,6.02,3.365,5.585,6.913H668.336z M674.425,251.576c-0.114-1.648-1.19-3.136-2.976-3.136c-1.808,0-3.044,1.374-3.113,3.136
		H674.425z"/>
	<path fill="#333333" d="M690.17,258.534h-2.472v-1.602h-0.046c-0.709,1.373-2.174,1.922-3.662,1.922
		c-3.73,0-5.539-2.77-5.539-6.317c0-4.303,2.541-6.157,5.127-6.157c1.465,0,3.136,0.549,3.937,1.854h0.046v-6.042h2.609V258.534z
		 M684.333,256.794c2.312,0,3.319-2.129,3.319-4.189c0-2.632-1.259-4.166-3.273-4.166c-2.449,0-3.319,2.197-3.319,4.303
		C681.061,254.78,682.068,256.794,684.333,256.794z"/>
	<path fill="#333333" d="M699.735,242.191h11.284v2.472h-8.423v4.28h7.393v2.335h-7.393v7.255h-2.861V242.191z"/>
	<path fill="#333333" d="M712.39,252.605c0-3.593,2.197-6.226,5.974-6.226c3.776,0,5.974,2.632,5.974,6.226
		c0,3.639-2.197,6.249-5.974,6.249C714.587,258.854,712.39,256.245,712.39,252.605z M721.729,252.605
		c0-2.037-1.03-4.166-3.365-4.166S715,250.569,715,252.605c0,2.06,1.03,4.189,3.365,4.189S721.729,254.666,721.729,252.605z"/>
	<path fill="#333333" d="M726.51,246.701h2.449v2.289h0.046c0.297-1.259,1.877-2.609,3.456-2.609c0.618,0,0.732,0.046,0.984,0.069
		v2.518c-0.366-0.068-0.755-0.114-1.122-0.114c-1.763,0-3.205,1.419-3.205,4.051v5.63h-2.609V246.701z"/>
	<path fill="#333333" d="M734.566,246.701h2.472v1.648h0.069c0.801-1.167,1.739-1.969,3.639-1.969c1.442,0,2.792,0.618,3.319,1.969
		c0.893-1.213,1.968-1.969,3.708-1.969c2.495,0,3.96,1.122,3.96,3.983v8.171h-2.609v-6.912c0-1.9-0.114-3.182-2.151-3.182
		c-1.763,0-2.518,1.145-2.518,3.159v6.935h-2.609v-7.599c0-1.648-0.504-2.495-2.083-2.495c-1.351,0-2.586,1.122-2.586,3.067v7.027
		h-2.609V246.701z"/>
</g>
<g>
	<path fill="#333333" d="M779.943,187.639h6.775c5.035,0,7.209,3.662,7.209,8.171c0,4.509-2.174,8.171-7.209,8.171h-6.775V187.639z
		 M782.805,201.646h2.815c4.486,0,5.447-2.541,5.447-5.836s-0.961-5.837-5.447-5.837h-2.815V201.646z"/>
	<path fill="#333333" d="M798.137,198.74c0,1.854,1.007,3.502,3.182,3.502c1.534,0,2.426-0.664,2.884-1.969h2.472
		c-0.549,2.586-2.792,4.028-5.356,4.028c-3.731,0-5.791-2.563-5.791-6.226c0-3.364,2.197-6.249,5.722-6.249
		c3.731,0,6.02,3.365,5.585,6.913H798.137z M804.226,197.023c-0.114-1.648-1.19-3.136-2.976-3.136c-1.808,0-3.044,1.374-3.113,3.136
		H804.226z"/>
	<path fill="#333333" d="M810.793,200.182c0.16,1.533,1.282,2.06,2.678,2.06c1.007,0,2.701-0.206,2.632-1.557
		c-0.069-1.373-1.968-1.534-3.868-1.968c-1.923-0.412-3.799-1.099-3.799-3.502c0-2.586,2.792-3.388,4.944-3.388
		c2.426,0,4.646,0.984,4.944,3.639H815.6c-0.252-1.259-1.236-1.579-2.403-1.579c-0.755,0-2.152,0.183-2.152,1.213
		c0,1.282,1.923,1.488,3.845,1.9c1.9,0.435,3.822,1.122,3.822,3.456c0,2.815-2.838,3.845-5.287,3.845
		c-2.998,0-5.172-1.327-5.241-4.12H810.793z"/>
	<path fill="#333333" d="M828.69,196.107c-0.206-1.465-1.236-2.22-2.701-2.22c-1.351,0-3.25,0.732-3.25,4.303
		c0,1.968,0.87,4.051,3.136,4.051c1.534,0,2.563-0.984,2.815-2.701h2.609c-0.481,3.09-2.38,4.761-5.425,4.761
		c-3.708,0-5.745-2.632-5.745-6.111c0-3.571,1.945-6.363,5.836-6.363c2.747,0,5.081,1.374,5.333,4.28H828.69z"/>
	<path fill="#333333" d="M833.426,192.148h2.449v2.289h0.046c0.297-1.259,1.877-2.609,3.456-2.609c0.618,0,0.732,0.046,0.984,0.069
		v2.518c-0.366-0.068-0.755-0.114-1.122-0.114c-1.763,0-3.205,1.419-3.205,4.051v5.63h-2.609V192.148z"/>
	<path fill="#333333" d="M841.55,187.639h2.609v2.472h-2.609V187.639z M841.55,192.148h2.609v11.833h-2.609V192.148z"/>
	<path fill="#333333" d="M847.065,192.148h2.472v1.602h0.046c0.732-1.374,2.128-1.923,3.662-1.923c3.73,0,5.539,2.815,5.539,6.294
		c0,3.204-1.626,6.18-5.104,6.18c-1.511,0-3.158-0.549-3.96-1.854h-0.046v5.905h-2.608V192.148z M852.901,193.887
		c-2.197,0-3.318,1.648-3.318,4.188c0,2.38,1.213,4.166,3.318,4.166c2.381,0,3.273-2.106,3.273-4.166
		C856.175,195.947,855.053,193.887,852.901,193.887z"/>
	<path fill="#333333" d="M859.789,192.148h1.968V188.6h2.609v3.548h2.357v1.945h-2.357v6.317c0,1.076,0.092,1.625,1.259,1.625
		c0.366,0,0.732,0,1.099-0.092v2.014c-0.572,0.069-1.121,0.137-1.693,0.137c-2.747,0-3.205-1.053-3.273-3.021v-6.981h-1.968V192.148
		z"/>
	<path fill="#333333" d="M868.669,187.639h2.608v2.472h-2.608V187.639z M868.669,192.148h2.608v11.833h-2.608V192.148z"/>
	<path fill="#333333" d="M873.566,198.053c0-3.593,2.197-6.226,5.974-6.226s5.974,2.632,5.974,6.226
		c0,3.639-2.197,6.249-5.974,6.249S873.566,201.692,873.566,198.053z M882.904,198.053c0-2.037-1.029-4.166-3.364-4.166
		s-3.364,2.129-3.364,4.166c0,2.06,1.029,4.189,3.364,4.189S882.904,200.113,882.904,198.053z"/>
	<path fill="#333333" d="M887.686,192.148h2.473v1.739l0.045,0.046c0.802-1.305,2.129-2.106,3.686-2.106
		c2.586,0,4.188,1.351,4.188,4.028v8.125h-2.609v-7.438c-0.068-1.854-0.755-2.655-2.312-2.655c-1.739,0-2.861,1.374-2.861,3.113
		v6.981h-2.609V192.148z"/>
	<path fill="#333333" d="M779.028,225.515c0-3.593,2.197-6.226,5.974-6.226s5.974,2.632,5.974,6.226c0,3.64-2.197,6.249-5.974,6.249
		S779.028,229.155,779.028,225.515z M788.366,225.515c0-2.037-1.03-4.166-3.364-4.166s-3.365,2.128-3.365,4.166
		c0,2.06,1.03,4.188,3.365,4.188S788.366,227.575,788.366,225.515z"/>
	<path fill="#333333" d="M791.981,219.61h1.945v-0.984c0-3.021,1.58-3.525,3.273-3.525c0.847,0,1.442,0.046,1.831,0.16v2.037
		c-0.343-0.091-0.687-0.137-1.213-0.137c-0.709,0-1.282,0.252-1.282,1.236v1.213h2.22v1.945h-2.22v9.888h-2.609v-9.888h-1.945
		V219.61z"/>
	<path fill="#333333" d="M779.943,242.563h6.775c5.035,0,7.209,3.662,7.209,8.171c0,4.509-2.174,8.171-7.209,8.171h-6.775V242.563z
		 M782.805,256.571h2.815c4.486,0,5.447-2.541,5.447-5.836s-0.961-5.837-5.447-5.837h-2.815V256.571z"/>
	<path fill="#333333" d="M798.137,253.665c0,1.854,1.007,3.502,3.182,3.502c1.534,0,2.426-0.664,2.884-1.969h2.472
		c-0.549,2.586-2.792,4.028-5.356,4.028c-3.731,0-5.791-2.563-5.791-6.226c0-3.364,2.197-6.249,5.722-6.249
		c3.731,0,6.02,3.365,5.585,6.913H798.137z M804.226,251.948c-0.114-1.648-1.19-3.136-2.976-3.136c-1.808,0-3.044,1.374-3.113,3.136
		H804.226z"/>
	<path fill="#333333" d="M807.657,247.073h2.838l2.999,9.086h0.046l2.884-9.086h2.701l-4.234,11.833h-2.93L807.657,247.073z"/>
	<path fill="#333333" d="M820.771,242.563h2.609v2.472h-2.609V242.563z M820.771,247.073h2.609v11.833h-2.609V247.073z"/>
	<path fill="#333333" d="M836.127,256.273c0,0.641,0.138,0.893,0.618,0.893h0.275c0.114,0,0.229-0.023,0.366-0.046v1.808
		c-0.389,0.137-1.213,0.297-1.648,0.297c-1.076,0-1.808-0.366-2.014-1.442c-1.03,1.007-2.701,1.442-4.097,1.442
		c-2.128,0-4.051-1.145-4.051-3.456c0-2.953,2.357-3.433,4.555-3.685c1.9-0.366,3.548-0.114,3.548-1.671
		c0-1.373-1.419-1.602-2.449-1.602c-1.465,0-2.495,0.595-2.609,1.877h-2.609c0.183-3.044,2.747-3.937,5.378-3.937
		c2.312,0,4.738,0.938,4.738,3.434V256.273z M833.519,252.978c-0.801,0.527-2.037,0.504-3.205,0.709
		c-1.122,0.184-2.128,0.595-2.128,1.969c0,1.19,1.488,1.511,2.403,1.511c1.144,0,2.93-0.595,2.93-2.243V252.978z"/>
	<path fill="#333333" d="M837.751,247.073h1.968v-3.548h2.609v3.548h2.357v1.945h-2.357v6.317c0,1.076,0.091,1.625,1.259,1.625
		c0.366,0,0.732,0,1.099-0.092v2.014c-0.572,0.069-1.122,0.137-1.694,0.137c-2.747,0-3.204-1.053-3.273-3.021v-6.981h-1.968V247.073
		z"/>
	<path fill="#333333" d="M846.631,242.563h2.608v2.472h-2.608V242.563z M846.631,247.073h2.608v11.833h-2.608V247.073z"/>
	<path fill="#333333" d="M851.528,252.978c0-3.593,2.197-6.226,5.974-6.226s5.974,2.632,5.974,6.226
		c0,3.639-2.197,6.249-5.974,6.249S851.528,256.617,851.528,252.978z M860.866,252.978c0-2.037-1.029-4.166-3.364-4.166
		s-3.364,2.129-3.364,4.166c0,2.06,1.029,4.189,3.364,4.189S860.866,255.038,860.866,252.978z"/>
	<path fill="#333333" d="M865.647,247.073h2.472v1.739l0.046,0.046c0.802-1.305,2.129-2.106,3.686-2.106
		c2.586,0,4.188,1.351,4.188,4.028v8.125h-2.609v-7.438c-0.068-1.854-0.755-2.655-2.312-2.655c-1.739,0-2.861,1.374-2.861,3.113
		v6.981h-2.609V247.073z"/>
	<path fill="#333333" d="M880.752,255.106c0.16,1.533,1.281,2.06,2.678,2.06c1.007,0,2.701-0.206,2.632-1.557
		c-0.068-1.373-1.968-1.534-3.868-1.968c-1.922-0.412-3.799-1.099-3.799-3.502c0-2.586,2.792-3.388,4.943-3.388
		c2.427,0,4.646,0.984,4.944,3.639h-2.724c-0.252-1.259-1.236-1.579-2.403-1.579c-0.756,0-2.151,0.183-2.151,1.213
		c0,1.282,1.922,1.488,3.845,1.9c1.899,0.435,3.822,1.122,3.822,3.456c0,2.815-2.838,3.845-5.287,3.845
		c-2.998,0-5.173-1.327-5.241-4.12H880.752z"/>
</g>
<g>
	<path fill="#333333" d="M946.206,195.81c0,4.692-2.953,8.56-7.828,8.56s-7.827-3.868-7.827-8.56c0-4.646,2.952-8.561,7.827-8.561
		S946.206,191.164,946.206,195.81z M933.411,195.81c0,3.136,1.465,6.226,4.967,6.226s4.967-3.09,4.967-6.226
		s-1.465-6.226-4.967-6.226S933.411,192.674,933.411,195.81z"/>
	<path fill="#333333" d="M947.279,192.148h1.945v-0.984c0-3.021,1.579-3.525,3.273-3.525c0.847,0,1.441,0.046,1.831,0.16v2.037
		c-0.344-0.091-0.687-0.137-1.214-0.137c-0.709,0-1.281,0.252-1.281,1.236v1.213h2.22v1.945h-2.22v9.888h-2.609v-9.888h-1.945
		V192.148z"/>
	<path fill="#333333" d="M954.076,192.148h1.945v-0.984c0-3.021,1.579-3.525,3.273-3.525c0.847,0,1.441,0.046,1.831,0.16v2.037
		c-0.344-0.091-0.687-0.137-1.214-0.137c-0.709,0-1.281,0.252-1.281,1.236v1.213h2.22v1.945h-2.22v9.888h-2.609v-9.888h-1.945
		V192.148z"/>
	<path fill="#333333" d="M964.489,198.74c0,1.854,1.007,3.502,3.182,3.502c1.533,0,2.426-0.664,2.884-1.969h2.472
		c-0.549,2.586-2.792,4.028-5.355,4.028c-3.73,0-5.791-2.563-5.791-6.226c0-3.364,2.197-6.249,5.723-6.249
		c3.73,0,6.02,3.365,5.584,6.913H964.489z M970.578,197.023c-0.115-1.648-1.19-3.136-2.976-3.136c-1.809,0-3.044,1.374-3.113,3.136
		H970.578z"/>
	<path fill="#333333" d="M975.177,192.148h2.449v2.289h0.046c0.298-1.259,1.877-2.609,3.456-2.609c0.618,0,0.732,0.046,0.984,0.069
		v2.518c-0.366-0.068-0.756-0.114-1.122-0.114c-1.762,0-3.204,1.419-3.204,4.051v5.63h-2.609V192.148z"/>
	<path fill="#333333" d="M983.302,187.639h2.608v2.472h-2.608V187.639z M983.302,192.148h2.608v11.833h-2.608V192.148z"/>
	<path fill="#333333" d="M988.748,192.148h2.473v1.739l0.045,0.046c0.802-1.305,2.129-2.106,3.686-2.106
		c2.586,0,4.188,1.351,4.188,4.028v8.125h-2.609v-7.438c-0.068-1.854-0.755-2.655-2.312-2.655c-1.739,0-2.861,1.374-2.861,3.113
		v6.981h-2.609V192.148z"/>
	<path fill="#333333" d="M1012.824,203.363c0,3.571-2.06,5.31-5.813,5.31c-2.38,0-5.035-0.916-5.287-3.685h2.609
		c0.32,1.488,1.511,1.74,2.838,1.74c2.106,0,3.044-1.076,3.044-3.021v-1.809h-0.045c-0.732,1.305-2.083,2.083-3.548,2.083
		c-3.754,0-5.311-2.838-5.311-6.226c0-3.182,1.991-5.928,5.356-5.928c1.487,0,2.838,0.595,3.502,1.946h0.045v-1.625h2.609V203.363z
		 M1010.215,197.801c0-2.037-0.915-3.914-3.181-3.914c-2.312,0-3.113,2.151-3.113,4.12c0,1.922,0.938,3.914,3.113,3.914
		C1009.346,201.921,1010.215,199.838,1010.215,197.801z"/>
	<path fill="#333333" d="M931.42,215.101h2.861v16.342h-2.861V215.101z"/>
	<path fill="#333333" d="M937.416,219.61h2.473v1.648h0.068c0.801-1.167,1.739-1.969,3.639-1.969c1.442,0,2.793,0.618,3.319,1.969
		c0.893-1.213,1.968-1.969,3.708-1.969c2.494,0,3.959,1.122,3.959,3.983v8.171h-2.609v-6.912c0-1.9-0.114-3.182-2.151-3.182
		c-1.762,0-2.518,1.145-2.518,3.159v6.935h-2.609v-7.599c0-1.647-0.503-2.495-2.082-2.495c-1.351,0-2.587,1.122-2.587,3.067v7.027
		h-2.609V219.61z"/>
	<path fill="#333333" d="M957.396,219.61h2.472v1.602h0.046c0.732-1.374,2.128-1.923,3.662-1.923c3.73,0,5.539,2.815,5.539,6.294
		c0,3.205-1.626,6.18-5.104,6.18c-1.511,0-3.158-0.549-3.96-1.854h-0.046v5.905h-2.608V219.61z M963.231,221.35
		c-2.197,0-3.318,1.648-3.318,4.188c0,2.38,1.213,4.166,3.318,4.166c2.381,0,3.273-2.105,3.273-4.166
		C966.505,223.41,965.383,221.35,963.231,221.35z"/>
	<path fill="#333333" d="M981.22,228.811c0,0.641,0.137,0.893,0.618,0.893h0.274c0.114,0,0.229-0.022,0.366-0.045v1.808
		c-0.39,0.137-1.213,0.297-1.648,0.297c-1.075,0-1.808-0.366-2.014-1.442c-1.03,1.007-2.701,1.442-4.098,1.442
		c-2.128,0-4.051-1.144-4.051-3.456c0-2.953,2.357-3.433,4.555-3.685c1.899-0.366,3.548-0.114,3.548-1.671
		c0-1.373-1.419-1.602-2.449-1.602c-1.465,0-2.495,0.595-2.609,1.877h-2.609c0.184-3.044,2.747-3.937,5.379-3.937
		c2.312,0,4.738,0.938,4.738,3.434V228.811z M978.61,225.515c-0.802,0.526-2.037,0.504-3.204,0.71
		c-1.122,0.183-2.129,0.595-2.129,1.968c0,1.19,1.487,1.51,2.403,1.51c1.145,0,2.93-0.595,2.93-2.243V225.515z"/>
	<path fill="#333333" d="M992.021,223.57c-0.206-1.465-1.236-2.22-2.701-2.22c-1.35,0-3.25,0.732-3.25,4.303
		c0,1.968,0.87,4.051,3.136,4.051c1.533,0,2.563-0.984,2.815-2.701h2.609c-0.48,3.09-2.381,4.761-5.425,4.761
		c-3.708,0-5.745-2.632-5.745-6.111c0-3.571,1.945-6.363,5.837-6.363c2.746,0,5.081,1.374,5.333,4.28H992.021z"/>
	<path fill="#333333" d="M995.568,219.61h1.968v-3.548h2.609v3.548h2.357v1.945h-2.357v6.317c0,1.076,0.092,1.625,1.259,1.625
		c0.366,0,0.732,0,1.099-0.092v2.014c-0.572,0.069-1.121,0.137-1.693,0.137c-2.747,0-3.205-1.053-3.273-3.021v-6.981h-1.968V219.61z
		"/>
	<path fill="#333333" d="M1006.416,226.202c0,1.854,1.007,3.501,3.182,3.501c1.533,0,2.426-0.664,2.884-1.968h2.472
		c-0.549,2.586-2.792,4.028-5.355,4.028c-3.73,0-5.791-2.563-5.791-6.226c0-3.364,2.197-6.249,5.723-6.249
		c3.73,0,6.02,3.365,5.584,6.913H1006.416z M1012.505,224.485c-0.115-1.648-1.19-3.136-2.976-3.136
		c-1.809,0-3.045,1.374-3.113,3.136H1012.505z"/>
	<path fill="#333333" d="M1028.25,231.443h-2.472v-1.602h-0.046c-0.709,1.373-2.174,1.922-3.662,1.922
		c-3.73,0-5.539-2.77-5.539-6.317c0-4.303,2.541-6.157,5.127-6.157c1.465,0,3.136,0.549,3.938,1.854h0.045v-6.042h2.609V231.443z
		 M1022.414,229.704c2.312,0,3.318-2.128,3.318-4.188c0-2.632-1.259-4.166-3.272-4.166c-2.449,0-3.319,2.197-3.319,4.303
		C1019.141,227.69,1020.147,229.704,1022.414,229.704z"/>
	<path fill="#333333" d="M1040.492,235.815c-1.831-2.953-3.296-6.134-3.296-10.551c0-3.685,1.19-7.324,3.296-10.552h2.129
		c-1.831,3.296-2.815,6.707-2.815,10.552s0.893,7.278,2.815,10.551H1040.492z"/>
	<path fill="#333333" d="M1043.88,215.101h2.608v2.472h-2.608V215.101z M1043.88,219.61h2.608v11.833h-2.608V219.61z"/>
	<path fill="#333333" d="M1048.159,219.61h1.945v-0.984c0-3.021,1.579-3.525,3.273-3.525c0.847,0,1.441,0.046,1.831,0.16v2.037
		c-0.344-0.091-0.687-0.137-1.213-0.137c-0.71,0-1.282,0.252-1.282,1.236v1.213h2.22v1.945h-2.22v9.888h-2.609v-9.888h-1.945V219.61
		z"/>
	<path fill="#333333" d="M940.965,256.273c0,0.641,0.137,0.893,0.617,0.893h0.275c0.114,0,0.229-0.023,0.366-0.046v1.808
		c-0.39,0.137-1.213,0.297-1.648,0.297c-1.075,0-1.808-0.366-2.014-1.442c-1.03,1.007-2.701,1.442-4.098,1.442
		c-2.128,0-4.051-1.145-4.051-3.456c0-2.953,2.357-3.433,4.555-3.685c1.899-0.366,3.548-0.114,3.548-1.671
		c0-1.373-1.419-1.602-2.449-1.602c-1.465,0-2.495,0.595-2.609,1.877h-2.609c0.184-3.044,2.747-3.937,5.379-3.937
		c2.312,0,4.738,0.938,4.738,3.434V256.273z M938.355,252.978c-0.801,0.527-2.037,0.504-3.204,0.709
		c-1.122,0.184-2.129,0.595-2.129,1.969c0,1.19,1.487,1.511,2.403,1.511c1.145,0,2.93-0.595,2.93-2.243V252.978z"/>
	<path fill="#333333" d="M943.848,247.073h2.472v1.602h0.046c0.732-1.374,2.128-1.923,3.662-1.923c3.73,0,5.539,2.815,5.539,6.294
		c0,3.204-1.625,6.18-5.104,6.18c-1.511,0-3.158-0.549-3.96-1.854h-0.046v5.905h-2.608V247.073z M949.684,248.812
		c-2.197,0-3.318,1.648-3.318,4.188c0,2.38,1.213,4.166,3.318,4.166c2.381,0,3.273-2.106,3.273-4.166
		C952.957,250.872,951.835,248.812,949.684,248.812z"/>
	<path fill="#333333" d="M957.83,247.073h2.472v1.602h0.046c0.732-1.374,2.128-1.923,3.662-1.923c3.73,0,5.539,2.815,5.539,6.294
		c0,3.204-1.625,6.18-5.104,6.18c-1.511,0-3.158-0.549-3.96-1.854h-0.046v5.905h-2.608V247.073z M963.666,248.812
		c-2.197,0-3.318,1.648-3.318,4.188c0,2.38,1.213,4.166,3.318,4.166c2.381,0,3.273-2.106,3.273-4.166
		C966.939,250.872,965.817,248.812,963.666,248.812z"/>
	<path fill="#333333" d="M971.812,242.563h2.608v16.342h-2.608V242.563z"/>
	<path fill="#333333" d="M977.328,242.563h2.608v2.472h-2.608V242.563z M977.328,247.073h2.608v11.833h-2.608V247.073z"/>
	<path fill="#333333" d="M990.763,251.032c-0.206-1.465-1.236-2.22-2.701-2.22c-1.351,0-3.25,0.732-3.25,4.303
		c0,1.968,0.87,4.051,3.136,4.051c1.533,0,2.563-0.984,2.815-2.701h2.609c-0.48,3.09-2.381,4.761-5.425,4.761
		c-3.708,0-5.745-2.632-5.745-6.111c0-3.571,1.946-6.363,5.837-6.363c2.746,0,5.081,1.374,5.333,4.28H990.763z"/>
	<path fill="#333333" d="M1005.41,256.273c0,0.641,0.137,0.893,0.617,0.893h0.275c0.114,0,0.229-0.023,0.366-0.046v1.808
		c-0.39,0.137-1.213,0.297-1.648,0.297c-1.075,0-1.808-0.366-2.014-1.442c-1.03,1.007-2.701,1.442-4.098,1.442
		c-2.128,0-4.051-1.145-4.051-3.456c0-2.953,2.357-3.433,4.555-3.685c1.899-0.366,3.548-0.114,3.548-1.671
		c0-1.373-1.419-1.602-2.449-1.602c-1.465,0-2.495,0.595-2.609,1.877h-2.609c0.184-3.044,2.747-3.937,5.379-3.937
		c2.312,0,4.738,0.938,4.738,3.434V256.273z M1002.801,252.978c-0.801,0.527-2.037,0.504-3.204,0.709
		c-1.122,0.184-2.129,0.595-2.129,1.969c0,1.19,1.487,1.511,2.403,1.511c1.145,0,2.93-0.595,2.93-2.243V252.978z"/>
	<path fill="#333333" d="M1008.293,242.563h2.608v6.042h0.046c0.732-1.145,2.175-1.854,3.525-1.854c3.73,0,5.539,2.815,5.539,6.294
		c0,3.204-1.625,6.18-5.104,6.18c-1.603,0-3.318-0.389-4.097-1.945h-0.046v1.625h-2.472V242.563z M1014.129,248.812
		c-2.197,0-3.318,1.648-3.318,4.188c0,2.38,1.213,4.166,3.318,4.166c2.381,0,3.273-2.106,3.273-4.166
		C1017.402,250.872,1016.28,248.812,1014.129,248.812z"/>
	<path fill="#333333" d="M1022.275,242.563h2.608v16.342h-2.608V242.563z"/>
	<path fill="#333333" d="M1029.759,253.665c0,1.854,1.007,3.502,3.182,3.502c1.533,0,2.426-0.664,2.884-1.969h2.472
		c-0.549,2.586-2.792,4.028-5.355,4.028c-3.73,0-5.791-2.563-5.791-6.226c0-3.364,2.197-6.249,5.723-6.249
		c3.73,0,6.02,3.365,5.584,6.913H1029.759z M1035.848,251.948c-0.115-1.648-1.19-3.136-2.976-3.136
		c-1.809,0-3.044,1.374-3.113,3.136H1035.848z"/>
	<path fill="#333333" d="M1041.019,242.174c1.831,2.93,3.296,6.203,3.296,10.575c0,3.685-1.19,7.324-3.296,10.528h-2.128
		c1.83-3.273,2.814-6.683,2.814-10.528s-0.893-7.279-2.814-10.575H1041.019z"/>
</g>
<g>
	<path fill="#333333" d="M1082.172,212.692h6.775c5.035,0,7.21,3.662,7.21,8.171c0,4.509-2.175,8.171-7.21,8.171h-6.775V212.692z
		 M1085.033,226.7h2.815c4.486,0,5.447-2.541,5.447-5.836s-0.961-5.836-5.447-5.836h-2.815V226.7z"/>
	<path fill="#333333" d="M1100.365,223.793c0,1.854,1.007,3.501,3.182,3.501c1.533,0,2.426-0.664,2.884-1.968h2.472
		c-0.549,2.586-2.792,4.028-5.355,4.028c-3.73,0-5.791-2.563-5.791-6.226c0-3.364,2.197-6.249,5.723-6.249
		c3.73,0,6.02,3.365,5.584,6.913H1100.365z M1106.454,222.077c-0.115-1.648-1.19-3.136-2.976-3.136
		c-1.809,0-3.044,1.374-3.113,3.136H1106.454z"/>
	<path fill="#333333" d="M1109.886,217.202h2.838l2.998,9.086h0.046l2.884-9.086h2.701l-4.234,11.833h-2.93L1109.886,217.202z"/>
	<path fill="#333333" d="M1122.999,212.692h2.608v2.472h-2.608V212.692z M1122.999,217.202h2.608v11.833h-2.608V217.202z"/>
	<path fill="#333333" d="M1138.356,226.402c0,0.641,0.137,0.893,0.617,0.893h0.275c0.114,0,0.229-0.022,0.366-0.045v1.808
		c-0.39,0.137-1.213,0.297-1.648,0.297c-1.075,0-1.808-0.366-2.014-1.442c-1.03,1.007-2.701,1.442-4.098,1.442
		c-2.128,0-4.051-1.144-4.051-3.456c0-2.953,2.357-3.433,4.555-3.685c1.899-0.366,3.548-0.114,3.548-1.671
		c0-1.373-1.419-1.602-2.449-1.602c-1.465,0-2.495,0.595-2.609,1.877h-2.609c0.184-3.044,2.747-3.937,5.379-3.937
		c2.312,0,4.738,0.938,4.738,3.434V226.402z M1135.747,223.106c-0.801,0.526-2.037,0.504-3.204,0.71
		c-1.122,0.183-2.129,0.595-2.129,1.968c0,1.19,1.487,1.51,2.403,1.51c1.145,0,2.93-0.595,2.93-2.243V223.106z"/>
	<path fill="#333333" d="M1139.979,217.202h1.969v-3.548h2.609v3.548h2.357v1.945h-2.357v6.317c0,1.076,0.092,1.625,1.259,1.625
		c0.366,0,0.732,0,1.099-0.092v2.014c-0.572,0.069-1.121,0.137-1.693,0.137c-2.747,0-3.205-1.053-3.273-3.021v-6.981h-1.969V217.202
		z"/>
	<path fill="#333333" d="M1148.86,212.692h2.608v2.472h-2.608V212.692z M1148.86,217.202h2.608v11.833h-2.608V217.202z"/>
	<path fill="#333333" d="M1153.758,223.106c0-3.593,2.197-6.226,5.974-6.226s5.974,2.632,5.974,6.226
		c0,3.64-2.197,6.249-5.974,6.249S1153.758,226.746,1153.758,223.106z M1163.096,223.106c0-2.037-1.029-4.166-3.364-4.166
		s-3.364,2.128-3.364,4.166c0,2.06,1.029,4.188,3.364,4.188S1163.096,225.167,1163.096,223.106z"/>
	<path fill="#333333" d="M1167.877,217.202h2.472v1.739l0.046,0.046c0.802-1.305,2.129-2.106,3.686-2.106
		c2.586,0,4.188,1.351,4.188,4.028v8.125h-2.609v-7.438c-0.068-1.854-0.755-2.655-2.312-2.655c-1.739,0-2.861,1.374-2.861,3.113
		v6.981h-2.609V217.202z"/>
	<path fill="#333333" d="M1096.958,248.326c0,4.692-2.953,8.56-7.828,8.56s-7.827-3.868-7.827-8.56c0-4.646,2.952-8.561,7.827-8.561
		S1096.958,243.68,1096.958,248.326z M1084.163,248.326c0,3.136,1.465,6.226,4.967,6.226s4.967-3.09,4.967-6.226
		s-1.465-6.226-4.967-6.226S1084.163,245.19,1084.163,248.326z"/>
	<path fill="#333333" d="M1098.123,244.664h2.77l2.312,8.834h0.046l2.22-8.834h2.632l2.129,8.834h0.046l2.403-8.834h2.655
		l-3.708,11.833h-2.678l-2.197-8.789h-0.046l-2.175,8.789h-2.746L1098.123,244.664z"/>
	<path fill="#333333" d="M1117.003,244.664h2.473v1.739l0.045,0.046c0.802-1.305,2.129-2.106,3.686-2.106
		c2.586,0,4.188,1.351,4.188,4.028v8.125h-2.609v-7.438c-0.068-1.854-0.755-2.655-2.312-2.655c-1.739,0-2.861,1.374-2.861,3.113
		v6.981h-2.609V244.664z"/>
	<path fill="#333333" d="M1132.176,251.256c0,1.854,1.007,3.502,3.182,3.502c1.533,0,2.426-0.664,2.884-1.969h2.472
		c-0.549,2.586-2.792,4.028-5.355,4.028c-3.73,0-5.791-2.563-5.791-6.226c0-3.364,2.197-6.249,5.723-6.249
		c3.73,0,6.02,3.365,5.584,6.913H1132.176z M1138.265,249.539c-0.115-1.648-1.19-3.136-2.976-3.136
		c-1.809,0-3.044,1.374-3.113,3.136H1138.265z"/>
	<path fill="#333333" d="M1142.863,244.664h2.449v2.289h0.046c0.298-1.259,1.877-2.609,3.456-2.609c0.618,0,0.732,0.046,0.984,0.069
		v2.518c-0.366-0.068-0.756-0.114-1.122-0.114c-1.762,0-3.204,1.419-3.204,4.051v5.63h-2.609V244.664z"/>
</g>
<g>
	<path fill="#333333" d="M1216.333,209.243h7.805c3.594,0,5.402,1.648,5.402,4.417c0,3.136-2.151,3.937-2.701,4.12v0.045
		c0.984,0.115,2.426,0.893,2.426,3.456c0,1.923,0.275,3.64,0.894,4.303h-3.067c-0.435-0.709-0.435-1.602-0.435-2.403
		c0-2.999-0.618-4.326-3.251-4.326h-4.211v6.729h-2.861V209.243z M1219.194,216.682h4.692c1.831,0,2.792-0.87,2.792-2.609
		c0-2.106-1.351-2.495-2.838-2.495h-4.646V216.682z"/>
	<path fill="#333333" d="M1231.529,219.657c0-3.593,2.197-6.226,5.974-6.226s5.974,2.632,5.974,6.226
		c0,3.64-2.197,6.249-5.974,6.249S1231.529,223.296,1231.529,219.657z M1240.867,219.657c0-2.037-1.029-4.166-3.364-4.166
		s-3.364,2.128-3.364,4.166c0,2.06,1.029,4.188,3.364,4.188S1240.867,221.717,1240.867,219.657z"/>
	<path fill="#333333" d="M1245.1,219.657c0-3.593,2.197-6.226,5.974-6.226s5.974,2.632,5.974,6.226c0,3.64-2.197,6.249-5.974,6.249
		S1245.1,223.296,1245.1,219.657z M1254.438,219.657c0-2.037-1.029-4.166-3.364-4.166s-3.364,2.128-3.364,4.166
		c0,2.06,1.029,4.188,3.364,4.188S1254.438,221.717,1254.438,219.657z"/>
	<path fill="#333333" d="M1258.029,213.752h1.968v-3.548h2.609v3.548h2.357v1.945h-2.357v6.317c0,1.076,0.092,1.625,1.259,1.625
		c0.366,0,0.732,0,1.099-0.092v2.014c-0.572,0.069-1.121,0.137-1.693,0.137c-2.747,0-3.205-1.053-3.273-3.021v-6.981h-1.968V213.752
		z"/>
	<path fill="#333333" d="M1227.365,241.901c-0.48-1.9-1.693-3.25-4.074-3.25c-3.502,0-4.967,3.09-4.967,6.226
		s1.465,6.226,4.967,6.226c2.563,0,3.914-1.9,4.166-4.28h2.792c-0.252,3.914-2.998,6.615-6.958,6.615
		c-4.875,0-7.827-3.868-7.827-8.56c0-4.646,2.952-8.561,7.827-8.561c3.708,0,6.569,2.06,6.936,5.585H1227.365z"/>
	<path fill="#333333" d="M1242.4,250.415c0,0.641,0.137,0.893,0.617,0.893h0.275c0.114,0,0.229-0.023,0.366-0.046v1.808
		c-0.39,0.137-1.213,0.297-1.648,0.297c-1.075,0-1.808-0.366-2.014-1.442c-1.03,1.007-2.701,1.442-4.098,1.442
		c-2.128,0-4.051-1.145-4.051-3.456c0-2.953,2.357-3.433,4.555-3.685c1.899-0.366,3.548-0.114,3.548-1.671
		c0-1.373-1.419-1.602-2.449-1.602c-1.465,0-2.495,0.595-2.609,1.877h-2.609c0.184-3.044,2.747-3.937,5.379-3.937
		c2.312,0,4.738,0.938,4.738,3.434V250.415z M1239.791,247.119c-0.801,0.527-2.037,0.504-3.204,0.709
		c-1.122,0.184-2.129,0.595-2.129,1.969c0,1.19,1.487,1.511,2.403,1.511c1.145,0,2.93-0.595,2.93-2.243V247.119z"/>
	<path fill="#333333" d="M1255.605,253.047h-2.563v-1.648h-0.046c-0.641,1.19-2.06,1.968-3.364,1.968
		c-3.113,0-4.418-1.533-4.418-4.646v-7.507h2.609v7.255c0,2.083,0.824,2.838,2.266,2.838c2.175,0,2.907-1.396,2.907-3.228v-6.866
		h2.609V253.047z"/>
	<path fill="#333333" d="M1260.318,249.248c0.16,1.533,1.281,2.06,2.678,2.06c1.007,0,2.701-0.206,2.632-1.557
		c-0.068-1.373-1.968-1.534-3.868-1.968c-1.922-0.412-3.799-1.099-3.799-3.502c0-2.586,2.792-3.388,4.943-3.388
		c2.427,0,4.646,0.984,4.944,3.639h-2.724c-0.252-1.259-1.236-1.579-2.403-1.579c-0.756,0-2.151,0.183-2.151,1.213
		c0,1.282,1.922,1.488,3.845,1.9c1.899,0.435,3.822,1.122,3.822,3.456c0,2.815-2.838,3.845-5.287,3.845
		c-2.998,0-5.173-1.327-5.241-4.12H1260.318z"/>
	<path fill="#333333" d="M1272.264,247.806c0,1.854,1.007,3.502,3.182,3.502c1.533,0,2.426-0.664,2.884-1.969h2.472
		c-0.549,2.586-2.792,4.028-5.355,4.028c-3.73,0-5.791-2.563-5.791-6.226c0-3.364,2.197-6.249,5.723-6.249
		c3.73,0,6.02,3.365,5.584,6.913H1272.264z M1278.353,246.089c-0.115-1.648-1.19-3.136-2.976-3.136
		c-1.809,0-3.045,1.374-3.113,3.136H1278.353z"/>
</g>
<g>
	<path fill="#333333" d="M1599.809,214.438c-0.48-1.9-1.693-3.25-4.074-3.25c-3.502,0-4.967,3.09-4.967,6.226
		c0,3.135,1.465,6.226,4.967,6.226c2.563,0,3.914-1.9,4.166-4.28h2.792c-0.252,3.914-2.998,6.615-6.958,6.615
		c-4.875,0-7.827-3.868-7.827-8.56c0-4.646,2.952-8.561,7.827-8.561c3.708,0,6.569,2.06,6.936,5.585H1599.809z"/>
	<path fill="#333333" d="M1605.002,209.243h2.608v16.342h-2.608V209.243z"/>
	<path fill="#333333" d="M1609.899,219.657c0-3.593,2.197-6.226,5.974-6.226s5.974,2.632,5.974,6.226
		c0,3.64-2.197,6.249-5.974,6.249S1609.899,223.296,1609.899,219.657z M1619.237,219.657c0-2.037-1.029-4.166-3.364-4.166
		s-3.364,2.128-3.364,4.166c0,2.06,1.029,4.188,3.364,4.188S1619.237,221.717,1619.237,219.657z"/>
	<path fill="#333333" d="M1625.987,221.786c0.16,1.533,1.281,2.06,2.678,2.06c1.007,0,2.701-0.206,2.632-1.556
		c-0.068-1.374-1.968-1.534-3.868-1.968c-1.922-0.412-3.799-1.099-3.799-3.502c0-2.586,2.792-3.388,4.943-3.388
		c2.427,0,4.646,0.984,4.944,3.64h-2.724c-0.252-1.259-1.236-1.58-2.403-1.58c-0.756,0-2.151,0.183-2.151,1.213
		c0,1.281,1.922,1.487,3.845,1.899c1.9,0.435,3.822,1.122,3.822,3.456c0,2.815-2.838,3.845-5.287,3.845
		c-2.998,0-5.173-1.328-5.241-4.12H1625.987z"/>
	<path fill="#333333" d="M1646.287,225.585h-2.563v-1.648h-0.046c-0.641,1.19-2.06,1.968-3.364,1.968
		c-3.113,0-4.418-1.533-4.418-4.646v-7.507h2.609v7.255c0,2.083,0.824,2.838,2.266,2.838c2.175,0,2.907-1.396,2.907-3.227v-6.866
		h2.609V225.585z"/>
	<path fill="#333333" d="M1649.031,213.752h2.449v2.289h0.046c0.298-1.259,1.877-2.609,3.456-2.609c0.618,0,0.732,0.046,0.984,0.069
		v2.518c-0.366-0.068-0.756-0.114-1.122-0.114c-1.762,0-3.204,1.419-3.204,4.051v5.63h-2.609V213.752z"/>
	<path fill="#333333" d="M1658.712,220.344c0,1.854,1.007,3.501,3.182,3.501c1.533,0,2.426-0.664,2.884-1.968h2.472
		c-0.549,2.586-2.792,4.028-5.355,4.028c-3.73,0-5.791-2.563-5.791-6.226c0-3.364,2.197-6.249,5.723-6.249
		c3.73,0,6.02,3.365,5.584,6.913H1658.712z M1664.801,218.627c-0.115-1.648-1.19-3.136-2.976-3.136
		c-1.809,0-3.044,1.374-3.113,3.136H1664.801z"/>
	<path fill="#333333" d="M1588.776,236.705h6.775c5.035,0,7.21,3.662,7.21,8.171c0,4.509-2.175,8.171-7.21,8.171h-6.775V236.705z
		 M1591.638,250.713h2.815c4.486,0,5.447-2.541,5.447-5.836s-0.961-5.837-5.447-5.837h-2.815V250.713z"/>
	<path fill="#333333" d="M1614.844,250.415c0,0.641,0.137,0.893,0.617,0.893h0.275c0.114,0,0.229-0.023,0.366-0.046v1.808
		c-0.39,0.137-1.213,0.297-1.648,0.297c-1.075,0-1.808-0.366-2.014-1.442c-1.03,1.007-2.701,1.442-4.098,1.442
		c-2.128,0-4.051-1.145-4.051-3.456c0-2.953,2.357-3.433,4.555-3.685c1.899-0.366,3.548-0.114,3.548-1.671
		c0-1.373-1.419-1.602-2.449-1.602c-1.465,0-2.495,0.595-2.609,1.877h-2.609c0.184-3.044,2.747-3.937,5.379-3.937
		c2.312,0,4.738,0.938,4.738,3.434V250.415z M1612.234,247.119c-0.801,0.527-2.037,0.504-3.204,0.709
		c-1.122,0.184-2.129,0.595-2.129,1.969c0,1.19,1.487,1.511,2.403,1.511c1.145,0,2.93-0.595,2.93-2.243V247.119z"/>
	<path fill="#333333" d="M1616.467,241.214h1.969v-3.548h2.609v3.548h2.357v1.945h-2.357v6.317c0,1.076,0.092,1.625,1.259,1.625
		c0.366,0,0.732,0,1.099-0.092v2.014c-0.572,0.069-1.121,0.137-1.693,0.137c-2.747,0-3.205-1.053-3.273-3.021v-6.981h-1.969V241.214
		z"/>
	<path fill="#333333" d="M1627.315,247.806c0,1.854,1.007,3.502,3.182,3.502c1.533,0,2.426-0.664,2.884-1.969h2.472
		c-0.549,2.586-2.792,4.028-5.355,4.028c-3.73,0-5.791-2.563-5.791-6.226c0-3.364,2.197-6.249,5.723-6.249
		c3.73,0,6.02,3.365,5.584,6.913H1627.315z M1633.404,246.089c-0.115-1.648-1.19-3.136-2.976-3.136
		c-1.809,0-3.044,1.374-3.113,3.136H1633.404z"/>
</g>
<g>
	<path fill="#333333" d="M1332.248,182.791c-0.48-1.9-1.693-3.25-4.074-3.25c-3.502,0-4.967,3.09-4.967,6.226
		c0,3.135,1.465,6.226,4.967,6.226c2.562,0,3.914-1.9,4.166-4.28h2.791c-0.252,3.914-2.998,6.615-6.957,6.615
		c-4.875,0-7.828-3.868-7.828-8.56c0-4.646,2.953-8.561,7.828-8.561c3.707,0,6.568,2.06,6.936,5.585H1332.248z"/>
	<path fill="#333333" d="M1337.371,177.595h2.609v6.065h0.047c0.641-1.076,1.99-1.877,3.547-1.877c2.586,0,4.189,1.351,4.189,4.028
		v8.125h-2.609v-7.438c-0.068-1.854-0.756-2.655-2.312-2.655c-1.738,0-2.861,1.374-2.861,3.113v6.981h-2.609V177.595z"/>
	<path fill="#333333" d="M1360.418,191.305c0,0.641,0.137,0.893,0.617,0.893h0.275c0.115,0,0.229-0.022,0.367-0.045v1.808
		c-0.391,0.137-1.213,0.297-1.648,0.297c-1.076,0-1.809-0.366-2.014-1.442c-1.031,1.007-2.701,1.442-4.098,1.442
		c-2.129,0-4.051-1.144-4.051-3.456c0-2.953,2.357-3.433,4.555-3.685c1.898-0.366,3.547-0.114,3.547-1.671
		c0-1.373-1.418-1.602-2.449-1.602c-1.465,0-2.494,0.595-2.609,1.877h-2.609c0.184-3.044,2.748-3.937,5.379-3.937
		c2.312,0,4.738,0.938,4.738,3.434V191.305z M1357.809,188.009c-0.801,0.526-2.037,0.504-3.203,0.71
		c-1.123,0.183-2.129,0.595-2.129,1.968c0,1.19,1.486,1.51,2.402,1.51c1.145,0,2.93-0.595,2.93-2.243V188.009z"/>
	<path fill="#333333" d="M1363.232,182.104h2.471v1.739l0.047,0.046c0.801-1.305,2.129-2.106,3.686-2.106
		c2.586,0,4.188,1.351,4.188,4.028v8.125h-2.609v-7.438c-0.068-1.854-0.754-2.655-2.311-2.655c-1.74,0-2.861,1.374-2.861,3.113
		v6.981h-2.609V182.104z"/>
	<path fill="#333333" d="M1387.309,193.319c0,3.571-2.061,5.31-5.814,5.31c-2.379,0-5.035-0.916-5.287-3.685h2.609
		c0.32,1.487,1.512,1.739,2.838,1.739c2.107,0,3.045-1.076,3.045-3.021v-1.808h-0.045c-0.732,1.305-2.084,2.083-3.549,2.083
		c-3.754,0-5.311-2.838-5.311-6.226c0-3.182,1.992-5.928,5.357-5.928c1.486,0,2.838,0.595,3.502,1.946h0.045v-1.625h2.609V193.319z
		 M1384.699,187.758c0-2.037-0.916-3.914-3.182-3.914c-2.312,0-3.113,2.151-3.113,4.12c0,1.922,0.939,3.914,3.113,3.914
		C1383.83,191.877,1384.699,189.795,1384.699,187.758z"/>
	<path fill="#333333" d="M1391.975,188.696c0,1.854,1.008,3.501,3.182,3.501c1.533,0,2.426-0.664,2.885-1.968h2.471
		c-0.549,2.586-2.791,4.028-5.355,4.028c-3.73,0-5.791-2.563-5.791-6.226c0-3.364,2.197-6.249,5.723-6.249
		c3.73,0,6.02,3.365,5.584,6.913H1391.975z M1398.064,186.979c-0.115-1.648-1.191-3.136-2.977-3.136
		c-1.809,0-3.045,1.374-3.113,3.136H1398.064z"/>
	<path fill="#333333" d="M1332.248,210.253c-0.48-1.9-1.693-3.25-4.074-3.25c-3.502,0-4.967,3.09-4.967,6.226
		s1.465,6.226,4.967,6.226c2.562,0,3.914-1.9,4.166-4.28h2.791c-0.252,3.914-2.998,6.615-6.957,6.615
		c-4.875,0-7.828-3.868-7.828-8.56c0-4.646,2.953-8.561,7.828-8.561c3.707,0,6.568,2.06,6.936,5.585H1332.248z"/>
	<path fill="#333333" d="M1336.822,215.472c0-3.593,2.197-6.226,5.975-6.226c3.775,0,5.973,2.632,5.973,6.226
		c0,3.639-2.197,6.249-5.973,6.249C1339.02,221.72,1336.822,219.111,1336.822,215.472z M1346.16,215.472
		c0-2.037-1.029-4.166-3.363-4.166c-2.336,0-3.365,2.129-3.365,4.166c0,2.06,1.029,4.189,3.365,4.189
		C1345.131,219.661,1346.16,217.532,1346.16,215.472z"/>
	<path fill="#333333" d="M1350.941,209.567h2.473v1.739l0.045,0.046c0.803-1.305,2.129-2.106,3.686-2.106
		c2.586,0,4.189,1.351,4.189,4.028v8.125h-2.609v-7.438c-0.068-1.854-0.756-2.655-2.312-2.655c-1.738,0-2.861,1.374-2.861,3.113
		v6.981h-2.609V209.567z"/>
	<path fill="#333333" d="M1362.887,209.567h1.969v-3.548h2.609v3.548h2.357v1.945h-2.357v6.317c0,1.076,0.092,1.625,1.26,1.625
		c0.365,0,0.732,0,1.098-0.092v2.014c-0.572,0.069-1.121,0.137-1.693,0.137c-2.746,0-3.205-1.053-3.273-3.021v-6.981h-1.969V209.567
		z"/>
	<path fill="#333333" d="M1371.699,209.567h2.449v2.289h0.045c0.299-1.259,1.877-2.609,3.457-2.609c0.617,0,0.732,0.046,0.984,0.069
		v2.518c-0.367-0.068-0.756-0.114-1.123-0.114c-1.762,0-3.203,1.419-3.203,4.051v5.63h-2.609V209.567z"/>
	<path fill="#333333" d="M1378.793,215.472c0-3.593,2.197-6.226,5.975-6.226c3.775,0,5.973,2.632,5.973,6.226
		c0,3.639-2.197,6.249-5.973,6.249C1380.99,221.72,1378.793,219.111,1378.793,215.472z M1388.131,215.472
		c0-2.037-1.029-4.166-3.363-4.166c-2.336,0-3.365,2.129-3.365,4.166c0,2.06,1.029,4.189,3.365,4.189
		C1387.102,219.661,1388.131,217.532,1388.131,215.472z"/>
	<path fill="#333333" d="M1392.982,205.058h2.607V221.4h-2.607V205.058z"/>
	<path fill="#333333" d="M1321.102,232.52h3.021l7.461,12.039h0.045V232.52h2.725v16.342h-3.021l-7.439-12.016h-0.068v12.016h-2.723
		V232.52z"/>
	<path fill="#333333" d="M1347.764,248.862h-2.564v-1.648h-0.045c-0.641,1.19-2.061,1.968-3.365,1.968
		c-3.113,0-4.418-1.533-4.418-4.646v-7.507h2.609v7.255c0,2.083,0.824,2.838,2.266,2.838c2.176,0,2.908-1.396,2.908-3.227v-6.866
		h2.609V248.862z"/>
	<path fill="#333333" d="M1350.508,237.029h2.471v1.648h0.07c0.801-1.167,1.738-1.969,3.639-1.969c1.441,0,2.793,0.618,3.318,1.969
		c0.893-1.213,1.969-1.969,3.709-1.969c2.494,0,3.959,1.122,3.959,3.983v8.171h-2.609v-6.912c0-1.9-0.115-3.182-2.152-3.182
		c-1.762,0-2.518,1.145-2.518,3.159v6.935h-2.609v-7.599c0-1.647-0.502-2.495-2.082-2.495c-1.35,0-2.586,1.122-2.586,3.067v7.027
		h-2.609V237.029z"/>
	<path fill="#333333" d="M1370.486,232.52h2.609v6.042h0.045c0.732-1.144,2.176-1.854,3.525-1.854c3.73,0,5.539,2.815,5.539,6.294
		c0,3.205-1.625,6.18-5.104,6.18c-1.604,0-3.318-0.389-4.098-1.945h-0.045v1.625h-2.473V232.52z M1376.322,238.769
		c-2.197,0-3.318,1.648-3.318,4.188c0,2.38,1.213,4.166,3.318,4.166c2.381,0,3.273-2.105,3.273-4.166
		C1379.596,240.829,1378.475,238.769,1376.322,238.769z"/>
	<path fill="#333333" d="M1386.438,243.621c0,1.854,1.006,3.501,3.182,3.501c1.533,0,2.426-0.664,2.883-1.968h2.473
		c-0.549,2.586-2.793,4.028-5.355,4.028c-3.73,0-5.791-2.563-5.791-6.226c0-3.364,2.197-6.249,5.723-6.249
		c3.73,0,6.02,3.365,5.584,6.913H1386.438z M1392.525,241.904c-0.115-1.648-1.189-3.136-2.975-3.136
		c-1.809,0-3.045,1.374-3.113,3.136H1392.525z"/>
	<path fill="#333333" d="M1397.125,237.029h2.449v2.289h0.045c0.299-1.259,1.877-2.609,3.457-2.609c0.617,0,0.732,0.046,0.984,0.069
		v2.518c-0.367-0.068-0.756-0.114-1.123-0.114c-1.762,0-3.203,1.419-3.203,4.051v5.63h-2.609V237.029z"/>
</g>
<g>
	<path fill="#333333" d="M1447.001,219.449c-0.48-1.9-1.693-3.25-4.074-3.25c-3.502,0-4.967,3.09-4.967,6.226
		c0,3.135,1.465,6.226,4.967,6.226c2.563,0,3.914-1.9,4.166-4.28h2.792c-0.252,3.914-2.998,6.615-6.958,6.615
		c-4.875,0-7.827-3.868-7.827-8.56c0-4.646,2.952-8.561,7.827-8.561c3.708,0,6.569,2.06,6.936,5.585H1447.001z"/>
	<path fill="#333333" d="M1451.576,224.667c0-3.593,2.197-6.226,5.974-6.226s5.974,2.632,5.974,6.226
		c0,3.64-2.197,6.249-5.974,6.249S1451.576,228.307,1451.576,224.667z M1460.914,224.667c0-2.037-1.029-4.166-3.364-4.166
		s-3.364,2.128-3.364,4.166c0,2.06,1.029,4.188,3.364,4.188S1460.914,226.728,1460.914,224.667z"/>
	<path fill="#333333" d="M1465.695,218.763h2.449v2.289h0.046c0.298-1.259,1.877-2.609,3.456-2.609c0.618,0,0.732,0.046,0.984,0.069
		v2.518c-0.366-0.068-0.756-0.114-1.122-0.114c-1.762,0-3.204,1.419-3.204,4.051v5.63h-2.609V218.763z"/>
	<path fill="#333333" d="M1473.751,218.763h2.449v2.289h0.046c0.298-1.259,1.877-2.609,3.456-2.609c0.618,0,0.732,0.046,0.984,0.069
		v2.518c-0.366-0.068-0.756-0.114-1.122-0.114c-1.762,0-3.204,1.419-3.204,4.051v5.63h-2.609V218.763z"/>
	<path fill="#333333" d="M1483.432,225.354c0,1.854,1.007,3.501,3.182,3.501c1.533,0,2.426-0.664,2.884-1.968h2.472
		c-0.549,2.586-2.792,4.028-5.355,4.028c-3.73,0-5.791-2.563-5.791-6.226c0-3.364,2.197-6.249,5.723-6.249
		c3.73,0,6.02,3.365,5.584,6.913H1483.432z M1489.521,223.638c-0.115-1.648-1.19-3.136-2.976-3.136
		c-1.809,0-3.045,1.374-3.113,3.136H1489.521z"/>
	<path fill="#333333" d="M1502.107,222.722c-0.206-1.465-1.236-2.22-2.701-2.22c-1.35,0-3.25,0.732-3.25,4.303
		c0,1.968,0.87,4.051,3.136,4.051c1.533,0,2.563-0.984,2.815-2.701h2.609c-0.48,3.09-2.381,4.761-5.425,4.761
		c-3.708,0-5.745-2.632-5.745-6.111c0-3.571,1.945-6.363,5.837-6.363c2.746,0,5.081,1.374,5.333,4.28H1502.107z"/>
	<path fill="#333333" d="M1505.654,218.763h1.968v-3.548h2.609v3.548h2.357v1.945h-2.357v6.317c0,1.076,0.092,1.625,1.259,1.625
		c0.366,0,0.732,0,1.099-0.092v2.014c-0.572,0.069-1.121,0.137-1.693,0.137c-2.747,0-3.205-1.053-3.273-3.021v-6.981h-1.968V218.763
		z"/>
	<path fill="#333333" d="M1514.534,214.253h2.608v2.472h-2.608V214.253z M1514.534,218.763h2.608v11.833h-2.608V218.763z"/>
	<path fill="#333333" d="M1519.432,224.667c0-3.593,2.197-6.226,5.974-6.226s5.974,2.632,5.974,6.226
		c0,3.64-2.197,6.249-5.974,6.249S1519.432,228.307,1519.432,224.667z M1528.77,224.667c0-2.037-1.029-4.166-3.364-4.166
		s-3.364,2.128-3.364,4.166c0,2.06,1.029,4.188,3.364,4.188S1528.77,226.728,1528.77,224.667z"/>
	<path fill="#333333" d="M1533.551,218.763h2.473v1.739l0.045,0.046c0.802-1.305,2.129-2.106,3.686-2.106
		c2.586,0,4.188,1.351,4.188,4.028v8.125h-2.609v-7.438c-0.068-1.854-0.755-2.655-2.312-2.655c-1.739,0-2.861,1.374-2.861,3.113
		v6.981h-2.609V218.763z"/>
	<path fill="#333333" d="M1438.646,262.43c-1.831-2.953-3.296-6.134-3.296-10.551c0-3.685,1.19-7.324,3.296-10.552h2.129
		c-1.831,3.296-2.815,6.707-2.815,10.552s0.893,7.278,2.815,10.551H1438.646z"/>
	<path fill="#333333" d="M1453.111,258.058h-2.472v-1.602h-0.046c-0.709,1.373-2.174,1.922-3.662,1.922
		c-3.73,0-5.539-2.77-5.539-6.317c0-4.303,2.541-6.157,5.127-6.157c1.465,0,3.136,0.549,3.938,1.854h0.045v-6.042h2.609V258.058z
		 M1447.275,256.319c2.312,0,3.318-2.129,3.318-4.189c0-2.632-1.259-4.166-3.272-4.166c-2.449,0-3.319,2.197-3.319,4.303
		C1444.002,254.304,1445.009,256.319,1447.275,256.319z"/>
	<path fill="#333333" d="M1457.984,252.817c0,1.854,1.007,3.502,3.182,3.502c1.533,0,2.426-0.664,2.884-1.969h2.472
		c-0.549,2.586-2.792,4.028-5.355,4.028c-3.73,0-5.791-2.563-5.791-6.226c0-3.364,2.197-6.249,5.723-6.249
		c3.73,0,6.02,3.365,5.584,6.913H1457.984z M1464.073,251.1c-0.115-1.648-1.19-3.136-2.976-3.136c-1.809,0-3.045,1.374-3.113,3.136
		H1464.073z"/>
	<path fill="#333333" d="M1470.641,254.259c0.16,1.533,1.281,2.06,2.678,2.06c1.007,0,2.701-0.206,2.632-1.557
		c-0.068-1.373-1.968-1.534-3.868-1.968c-1.922-0.412-3.799-1.099-3.799-3.502c0-2.586,2.792-3.388,4.943-3.388
		c2.427,0,4.646,0.984,4.944,3.639h-2.724c-0.252-1.259-1.236-1.579-2.403-1.579c-0.756,0-2.151,0.183-2.151,1.213
		c0,1.282,1.922,1.488,3.845,1.9c1.899,0.435,3.822,1.122,3.822,3.456c0,2.815-2.838,3.845-5.287,3.845
		c-2.998,0-5.173-1.327-5.241-4.12H1470.641z"/>
	<path fill="#333333" d="M1488.537,250.185c-0.206-1.465-1.236-2.22-2.701-2.22c-1.35,0-3.25,0.732-3.25,4.303
		c0,1.968,0.87,4.051,3.136,4.051c1.533,0,2.563-0.984,2.815-2.701h2.609c-0.48,3.09-2.381,4.761-5.425,4.761
		c-3.708,0-5.745-2.632-5.745-6.111c0-3.571,1.945-6.363,5.837-6.363c2.746,0,5.081,1.374,5.333,4.28H1488.537z"/>
	<path fill="#333333" d="M1493.273,246.225h2.449v2.289h0.046c0.298-1.259,1.877-2.609,3.456-2.609c0.618,0,0.732,0.046,0.984,0.069
		v2.518c-0.366-0.068-0.756-0.114-1.122-0.114c-1.762,0-3.204,1.419-3.204,4.051v5.63h-2.609V246.225z"/>
	<path fill="#333333" d="M1501.398,241.716h2.608v2.472h-2.608V241.716z M1501.398,246.225h2.608v11.833h-2.608V246.225z"/>
	<path fill="#333333" d="M1506.914,246.225h2.472v1.602h0.046c0.732-1.374,2.128-1.923,3.662-1.923c3.73,0,5.539,2.815,5.539,6.294
		c0,3.204-1.625,6.18-5.104,6.18c-1.511,0-3.158-0.549-3.96-1.854h-0.046v5.905h-2.608V246.225z M1512.75,247.964
		c-2.197,0-3.318,1.648-3.318,4.188c0,2.38,1.213,4.166,3.318,4.166c2.381,0,3.273-2.106,3.273-4.166
		C1516.023,250.024,1514.901,247.964,1512.75,247.964z"/>
	<path fill="#333333" d="M1519.637,246.225h1.969v-3.548h2.609v3.548h2.357v1.945h-2.357v6.317c0,1.076,0.092,1.625,1.259,1.625
		c0.366,0,0.732,0,1.099-0.092v2.014c-0.572,0.069-1.121,0.137-1.693,0.137c-2.747,0-3.205-1.053-3.273-3.021v-6.981h-1.969V246.225
		z"/>
	<path fill="#333333" d="M1528.518,241.716h2.608v2.472h-2.608V241.716z M1528.518,246.225h2.608v11.833h-2.608V246.225z"/>
	<path fill="#333333" d="M1533.415,252.13c0-3.593,2.197-6.226,5.974-6.226s5.974,2.632,5.974,6.226
		c0,3.639-2.197,6.249-5.974,6.249S1533.415,255.769,1533.415,252.13z M1542.753,252.13c0-2.037-1.029-4.166-3.364-4.166
		s-3.364,2.129-3.364,4.166c0,2.06,1.029,4.189,3.364,4.189S1542.753,254.19,1542.753,252.13z"/>
	<path fill="#333333" d="M1547.534,246.225h2.472v1.739l0.046,0.046c0.802-1.305,2.129-2.106,3.686-2.106
		c2.586,0,4.188,1.351,4.188,4.028v8.125h-2.609v-7.438c-0.068-1.854-0.755-2.655-2.312-2.655c-1.739,0-2.861,1.374-2.861,3.113
		v6.981h-2.609V246.225z"/>
	<path fill="#333333" d="M1561.242,241.327c1.831,2.93,3.296,6.203,3.296,10.575c0,3.685-1.19,7.324-3.296,10.528h-2.129
		c1.832-3.273,2.815-6.683,2.815-10.528s-0.893-7.279-2.815-10.575H1561.242z"/>
</g>
<g>
	<path fill="#333333" d="M1700.164,192.834c-0.48-1.9-1.693-3.25-4.074-3.25c-3.502,0-4.967,3.09-4.967,6.226
		s1.465,6.226,4.967,6.226c2.563,0,3.914-1.9,4.166-4.28h2.792c-0.252,3.914-2.998,6.615-6.958,6.615
		c-4.875,0-7.827-3.868-7.827-8.56c0-4.646,2.952-8.561,7.827-8.561c3.708,0,6.569,2.06,6.936,5.585H1700.164z"/>
	<path fill="#333333" d="M1710.026,187.639h3.044l6.294,16.342h-3.066l-1.534-4.326h-6.522l-1.534,4.326h-2.952L1710.026,187.639z
		 M1709.02,197.481h4.989l-2.449-7.027h-0.068L1709.02,197.481z"/>
	<path fill="#333333" d="M1720.919,187.639h7.21c4.669,0,5.562,3.021,5.562,5.059c0,2.037-0.893,5.012-5.562,5.012h-4.349v6.271
		h-2.861V187.639z M1723.78,195.375h4.188c1.282,0,2.861-0.641,2.861-2.701c0-2.151-1.305-2.701-2.815-2.701h-4.234V195.375z"/>
	<path fill="#333333" d="M1738.862,187.639h3.044l6.294,16.342h-3.066l-1.534-4.326h-6.522l-1.534,4.326h-2.952L1738.862,187.639z
		 M1737.855,197.481h4.989l-2.449-7.027h-0.068L1737.855,197.481z"/>
	<path fill="#333333" d="M1689.018,215.101h3.021l7.461,12.039h0.046v-12.039h2.724v16.342h-3.021l-7.439-12.016h-0.068v12.016
		h-2.724V215.101z"/>
	<path fill="#333333" d="M1715.68,231.443h-2.563v-1.648h-0.046c-0.641,1.19-2.06,1.968-3.364,1.968
		c-3.113,0-4.418-1.533-4.418-4.646v-7.507h2.609v7.255c0,2.083,0.824,2.838,2.266,2.838c2.175,0,2.907-1.396,2.907-3.227v-6.866
		h2.609V231.443z"/>
	<path fill="#333333" d="M1718.424,219.61h2.472v1.648h0.069c0.801-1.167,1.739-1.969,3.639-1.969c1.442,0,2.793,0.618,3.319,1.969
		c0.893-1.213,1.968-1.969,3.708-1.969c2.494,0,3.959,1.122,3.959,3.983v8.171h-2.608v-6.912c0-1.9-0.115-3.182-2.152-3.182
		c-1.762,0-2.518,1.145-2.518,3.159v6.935h-2.609v-7.599c0-1.647-0.503-2.495-2.082-2.495c-1.351,0-2.587,1.122-2.587,3.067v7.027
		h-2.609V219.61z"/>
	<path fill="#333333" d="M1738.403,215.101h2.608v6.042h0.046c0.732-1.144,2.175-1.854,3.525-1.854c3.73,0,5.539,2.815,5.539,6.294
		c0,3.205-1.625,6.18-5.104,6.18c-1.603,0-3.318-0.389-4.097-1.945h-0.046v1.625h-2.472V215.101z M1744.239,221.35
		c-2.197,0-3.318,1.648-3.318,4.188c0,2.38,1.213,4.166,3.318,4.166c2.381,0,3.273-2.105,3.273-4.166
		C1747.513,223.41,1746.391,221.35,1744.239,221.35z"/>
	<path fill="#333333" d="M1754.354,226.202c0,1.854,1.007,3.501,3.182,3.501c1.533,0,2.426-0.664,2.884-1.968h2.472
		c-0.549,2.586-2.792,4.028-5.355,4.028c-3.73,0-5.791-2.563-5.791-6.226c0-3.364,2.197-6.249,5.723-6.249
		c3.73,0,6.02,3.365,5.584,6.913H1754.354z M1760.442,224.485c-0.115-1.648-1.19-3.136-2.976-3.136
		c-1.809,0-3.044,1.374-3.113,3.136H1760.442z"/>
	<path fill="#333333" d="M1765.041,219.61h2.449v2.289h0.046c0.298-1.259,1.877-2.609,3.456-2.609c0.618,0,0.732,0.046,0.984,0.069
		v2.518c-0.366-0.068-0.756-0.114-1.122-0.114c-1.762,0-3.204,1.419-3.204,4.051v5.63h-2.609V219.61z"/>
	<path fill="#333333" d="M1688.217,252.978c0-3.593,2.197-6.226,5.974-6.226s5.974,2.632,5.974,6.226
		c0,3.639-2.197,6.249-5.974,6.249S1688.217,256.617,1688.217,252.978z M1697.555,252.978c0-2.037-1.029-4.166-3.364-4.166
		s-3.364,2.129-3.364,4.166c0,2.06,1.029,4.189,3.364,4.189S1697.555,255.038,1697.555,252.978z"/>
	<path fill="#333333" d="M1702.336,247.073h2.449v2.289h0.046c0.298-1.259,1.877-2.609,3.456-2.609c0.618,0,0.732,0.046,0.984,0.069
		v2.518c-0.366-0.068-0.756-0.114-1.122-0.114c-1.762,0-3.204,1.419-3.204,4.051v5.63h-2.609V247.073z"/>
	<path fill="#333333" d="M1719.615,243.891c-0.916,0.343-1.396,1.053-1.396,2.037h1.396v3.09h-2.861v-3.09
		c0-1.74,1.305-2.884,2.861-3.365V243.891z M1724.17,243.891c-0.915,0.343-1.396,1.053-1.396,2.037h1.396v3.09h-2.861v-3.09
		c0-1.74,1.305-2.884,2.861-3.365V243.891z"/>
	<path fill="#333333" d="M1727.167,242.563h3.021l7.461,12.04h0.046v-12.04h2.724v16.342h-3.021l-7.439-12.016h-0.068v12.016h-2.724
		V242.563z"/>
	<path fill="#333333" d="M1748.13,242.174h2.495l-6.569,17.121h-2.495L1748.13,242.174z"/>
	<path fill="#333333" d="M1756.231,242.563h3.044l6.294,16.342h-3.066l-1.534-4.326h-6.522l-1.534,4.326h-2.952L1756.231,242.563z
		 M1755.225,252.406h4.989l-2.449-7.027h-0.068L1755.225,252.406z"/>
	<path fill="#333333" d="M1766.758,247.69c0.938-0.343,1.396-1.053,1.396-2.037h-1.396v-3.09h2.861v3.09
		c0,1.717-1.305,2.953-2.861,3.365V247.69z M1771.312,247.69c0.938-0.343,1.396-1.053,1.396-2.037h-1.396v-3.09h2.861v3.09
		c0,1.717-1.305,2.953-2.861,3.365V247.69z"/>
</g>
<g>
	<path fill="#333333" d="M1803.625,159.179h2.861v16.342h-2.861V159.179z"/>
	<path fill="#333333" d="M1808.454,163.688h1.945v-0.984c0-3.021,1.579-3.525,3.273-3.525c0.847,0,1.441,0.046,1.831,0.16v2.037
		c-0.344-0.091-0.687-0.137-1.214-0.137c-0.709,0-1.281,0.252-1.281,1.236v1.213h2.22v1.945h-2.22v9.888h-2.609v-9.888h-1.945
		V163.688z"/>
	<path fill="#333333" d="M1833.104,172.889c0,0.641,0.137,0.893,0.618,0.893h0.274c0.114,0,0.229-0.022,0.366-0.045v1.808
		c-0.39,0.137-1.213,0.297-1.648,0.297c-1.075,0-1.808-0.366-2.014-1.442c-1.03,1.007-2.701,1.442-4.098,1.442
		c-2.128,0-4.051-1.144-4.051-3.456c0-2.953,2.357-3.433,4.555-3.685c1.899-0.366,3.548-0.114,3.548-1.671
		c0-1.373-1.419-1.602-2.449-1.602c-1.465,0-2.495,0.595-2.609,1.877h-2.609c0.184-3.044,2.747-3.937,5.379-3.937
		c2.312,0,4.738,0.938,4.738,3.434V172.889z M1830.494,169.593c-0.802,0.526-2.037,0.504-3.204,0.71
		c-1.122,0.183-2.129,0.595-2.129,1.968c0,1.19,1.487,1.51,2.403,1.51c1.145,0,2.93-0.595,2.93-2.243V169.593z"/>
	<path fill="#333333" d="M1835.986,159.179h2.608v16.342h-2.608V159.179z"/>
	<path fill="#333333" d="M1841.433,163.688h2.449v2.289h0.046c0.298-1.259,1.877-2.609,3.456-2.609c0.618,0,0.732,0.046,0.984,0.069
		v2.518c-0.366-0.068-0.756-0.114-1.122-0.114c-1.762,0-3.204,1.419-3.204,4.051v5.63h-2.609V163.688z"/>
	<path fill="#333333" d="M1851.113,170.28c0,1.854,1.007,3.501,3.182,3.501c1.533,0,2.426-0.664,2.884-1.968h2.472
		c-0.549,2.586-2.792,4.028-5.355,4.028c-3.73,0-5.791-2.563-5.791-6.226c0-3.364,2.197-6.249,5.723-6.249
		c3.73,0,6.02,3.365,5.584,6.913H1851.113z M1857.202,168.563c-0.115-1.648-1.19-3.136-2.976-3.136
		c-1.809,0-3.044,1.374-3.113,3.136H1857.202z"/>
	<path fill="#333333" d="M1871.712,172.889c0,0.641,0.137,0.893,0.617,0.893h0.275c0.114,0,0.229-0.022,0.366-0.045v1.808
		c-0.39,0.137-1.213,0.297-1.648,0.297c-1.075,0-1.808-0.366-2.014-1.442c-1.03,1.007-2.701,1.442-4.098,1.442
		c-2.128,0-4.051-1.144-4.051-3.456c0-2.953,2.357-3.433,4.555-3.685c1.899-0.366,3.548-0.114,3.548-1.671
		c0-1.373-1.419-1.602-2.449-1.602c-1.465,0-2.495,0.595-2.609,1.877h-2.609c0.184-3.044,2.747-3.937,5.379-3.937
		c2.312,0,4.738,0.938,4.738,3.434V172.889z M1869.103,169.593c-0.801,0.526-2.037,0.504-3.204,0.71
		c-1.122,0.183-2.129,0.595-2.129,1.968c0,1.19,1.487,1.51,2.403,1.51c1.145,0,2.93-0.595,2.93-2.243V169.593z"/>
	<path fill="#333333" d="M1885.672,175.521h-2.472v-1.602h-0.046c-0.709,1.373-2.174,1.922-3.662,1.922
		c-3.73,0-5.539-2.77-5.539-6.317c0-4.303,2.541-6.157,5.127-6.157c1.465,0,3.136,0.549,3.938,1.854h0.045v-6.042h2.609V175.521z
		 M1879.836,173.782c2.312,0,3.318-2.128,3.318-4.188c0-2.632-1.259-4.166-3.272-4.166c-2.449,0-3.319,2.197-3.319,4.303
		C1876.562,171.768,1877.569,173.782,1879.836,173.782z"/>
	<path fill="#333333" d="M1887.203,163.688h2.861l3.09,8.834h0.046l2.998-8.834h2.724l-4.601,12.474
		c-0.847,2.128-1.441,4.051-4.188,4.051c-0.618,0-1.213-0.045-1.808-0.137v-2.197c0.435,0.069,0.801,0.16,1.235,0.16
		c1.19,0,1.534-0.641,1.831-1.648l0.298-0.916L1887.203,163.688z"/>
	<path fill="#333333" d="M1906.198,169.593c0-3.593,2.197-6.226,5.974-6.226s5.974,2.632,5.974,6.226
		c0,3.64-2.197,6.249-5.974,6.249S1906.198,173.233,1906.198,169.593z M1915.536,169.593c0-2.037-1.029-4.166-3.364-4.166
		s-3.364,2.128-3.364,4.166c0,2.06,1.029,4.188,3.364,4.188S1915.536,171.653,1915.536,169.593z"/>
	<path fill="#333333" d="M1920.387,163.688h2.472v1.602h0.046c0.732-1.374,2.128-1.923,3.662-1.923c3.73,0,5.539,2.815,5.539,6.294
		c0,3.205-1.626,6.18-5.104,6.18c-1.511,0-3.158-0.549-3.96-1.854h-0.046v5.905h-2.608V163.688z M1926.223,165.428
		c-2.197,0-3.318,1.648-3.318,4.188c0,2.38,1.213,4.166,3.318,4.166c2.381,0,3.273-2.105,3.273-4.166
		C1929.496,167.488,1928.374,165.428,1926.223,165.428z"/>
	<path fill="#333333" d="M1936.337,170.28c0,1.854,1.007,3.501,3.182,3.501c1.533,0,2.426-0.664,2.884-1.968h2.472
		c-0.549,2.586-2.792,4.028-5.355,4.028c-3.73,0-5.791-2.563-5.791-6.226c0-3.364,2.197-6.249,5.723-6.249
		c3.73,0,6.02,3.365,5.584,6.913H1936.337z M1942.426,168.563c-0.115-1.648-1.19-3.136-2.976-3.136
		c-1.809,0-3.045,1.374-3.113,3.136H1942.426z"/>
	<path fill="#333333" d="M1947.024,163.688h2.473v1.739l0.045,0.046c0.802-1.305,2.129-2.106,3.686-2.106
		c2.586,0,4.188,1.351,4.188,4.028v8.125h-2.609v-7.438c-0.068-1.854-0.755-2.655-2.312-2.655c-1.739,0-2.861,1.374-2.861,3.113
		v6.981h-2.609V163.688z"/>
	<path fill="#333333" d="M1960.366,172.432h3.182v3.09c-0.022,1.9-1.259,3.25-3.09,3.616v-1.396c1.007-0.252,1.511-1.236,1.487-2.22
		h-1.579V172.432z"/>
	<path fill="#333333" d="M1803.259,191.151h2.449v2.289h0.046c0.298-1.259,1.877-2.609,3.456-2.609c0.618,0,0.732,0.046,0.984,0.069
		v2.518c-0.366-0.068-0.756-0.114-1.122-0.114c-1.762,0-3.204,1.419-3.204,4.051v5.63h-2.609V191.151z"/>
	<path fill="#333333" d="M1812.939,197.743c0,1.854,1.007,3.502,3.182,3.502c1.533,0,2.426-0.664,2.884-1.969h2.472
		c-0.549,2.586-2.792,4.028-5.355,4.028c-3.73,0-5.791-2.563-5.791-6.226c0-3.364,2.197-6.249,5.723-6.249
		c3.73,0,6.02,3.365,5.584,6.913H1812.939z M1819.028,196.026c-0.115-1.648-1.19-3.136-2.976-3.136
		c-1.809,0-3.044,1.374-3.113,3.136H1819.028z"/>
	<path fill="#333333" d="M1822.46,191.151h1.945v-0.984c0-3.021,1.579-3.525,3.273-3.525c0.847,0,1.441,0.046,1.831,0.16v2.037
		c-0.344-0.091-0.687-0.137-1.214-0.137c-0.709,0-1.281,0.252-1.281,1.236v1.213h2.22v1.945h-2.22v9.888h-2.609v-9.888h-1.945
		V191.151z"/>
	<path fill="#333333" d="M1832.873,197.743c0,1.854,1.007,3.502,3.182,3.502c1.533,0,2.426-0.664,2.884-1.969h2.472
		c-0.549,2.586-2.792,4.028-5.355,4.028c-3.73,0-5.791-2.563-5.791-6.226c0-3.364,2.197-6.249,5.723-6.249
		c3.73,0,6.02,3.365,5.584,6.913H1832.873z M1838.962,196.026c-0.115-1.648-1.19-3.136-2.976-3.136
		c-1.809,0-3.044,1.374-3.113,3.136H1838.962z"/>
	<path fill="#333333" d="M1843.561,191.151h2.449v2.289h0.046c0.298-1.259,1.877-2.609,3.456-2.609c0.618,0,0.732,0.046,0.984,0.069
		v2.518c-0.366-0.068-0.756-0.114-1.122-0.114c-1.762,0-3.204,1.419-3.204,4.051v5.63h-2.609V191.151z"/>
	<path fill="#333333" d="M1853.242,197.743c0,1.854,1.007,3.502,3.182,3.502c1.533,0,2.426-0.664,2.884-1.969h2.472
		c-0.549,2.586-2.792,4.028-5.355,4.028c-3.73,0-5.791-2.563-5.791-6.226c0-3.364,2.197-6.249,5.723-6.249
		c3.73,0,6.02,3.365,5.584,6.913H1853.242z M1859.331,196.026c-0.115-1.648-1.19-3.136-2.976-3.136
		c-1.809,0-3.044,1.374-3.113,3.136H1859.331z"/>
	<path fill="#333333" d="M1863.93,191.151h2.472v1.739l0.046,0.046c0.802-1.305,2.129-2.106,3.686-2.106
		c2.586,0,4.188,1.351,4.188,4.028v8.125h-2.609v-7.438c-0.068-1.854-0.755-2.655-2.312-2.655c-1.739,0-2.861,1.374-2.861,3.113
		v6.981h-2.609V191.151z"/>
	<path fill="#333333" d="M1885.054,195.11c-0.206-1.465-1.236-2.22-2.701-2.22c-1.35,0-3.25,0.732-3.25,4.303
		c0,1.968,0.87,4.051,3.136,4.051c1.533,0,2.563-0.984,2.815-2.701h2.609c-0.48,3.09-2.381,4.761-5.425,4.761
		c-3.708,0-5.745-2.632-5.745-6.111c0-3.571,1.945-6.363,5.837-6.363c2.746,0,5.081,1.374,5.333,4.28H1885.054z"/>
	<path fill="#333333" d="M1891.827,197.743c0,1.854,1.007,3.502,3.182,3.502c1.533,0,2.426-0.664,2.884-1.969h2.472
		c-0.549,2.586-2.792,4.028-5.355,4.028c-3.73,0-5.791-2.563-5.791-6.226c0-3.364,2.197-6.249,5.723-6.249
		c3.73,0,6.02,3.365,5.584,6.913H1891.827z M1897.916,196.026c-0.115-1.648-1.19-3.136-2.976-3.136
		c-1.809,0-3.045,1.374-3.113,3.136H1897.916z"/>
	<path fill="#333333" d="M1814.405,230.446h-2.472v-1.602h-0.046c-0.709,1.373-2.174,1.922-3.662,1.922
		c-3.73,0-5.539-2.77-5.539-6.317c0-4.303,2.541-6.157,5.127-6.157c1.465,0,3.136,0.549,3.938,1.854h0.045v-6.042h2.609V230.446z
		 M1808.569,228.707c2.312,0,3.318-2.128,3.318-4.188c0-2.632-1.259-4.166-3.272-4.166c-2.449,0-3.319,2.197-3.319,4.303
		C1805.296,226.693,1806.303,228.707,1808.569,228.707z"/>
	<path fill="#333333" d="M1816.692,224.518c0-3.593,2.197-6.226,5.974-6.226s5.974,2.632,5.974,6.226
		c0,3.64-2.197,6.249-5.974,6.249S1816.692,228.158,1816.692,224.518z M1826.03,224.518c0-2.037-1.029-4.166-3.364-4.166
		s-3.364,2.128-3.364,4.166c0,2.06,1.029,4.188,3.364,4.188S1826.03,226.578,1826.03,224.518z"/>
	<path fill="#333333" d="M1838.8,222.573c-0.206-1.465-1.236-2.22-2.701-2.22c-1.35,0-3.25,0.732-3.25,4.303
		c0,1.968,0.87,4.051,3.136,4.051c1.533,0,2.563-0.984,2.815-2.701h2.609c-0.48,3.09-2.381,4.761-5.425,4.761
		c-3.708,0-5.745-2.632-5.745-6.111c0-3.571,1.945-6.363,5.837-6.363c2.746,0,5.081,1.374,5.333,4.28H1838.8z"/>
	<path fill="#333333" d="M1853.928,230.446h-2.563v-1.648h-0.046c-0.641,1.19-2.06,1.968-3.364,1.968
		c-3.113,0-4.418-1.533-4.418-4.646v-7.507h2.609v7.255c0,2.083,0.824,2.838,2.266,2.838c2.175,0,2.907-1.396,2.907-3.227v-6.866
		h2.609V230.446z"/>
	<path fill="#333333" d="M1856.672,218.613h2.472v1.648h0.069c0.801-1.167,1.739-1.969,3.639-1.969c1.442,0,2.793,0.618,3.319,1.969
		c0.893-1.213,1.968-1.969,3.708-1.969c2.494,0,3.959,1.122,3.959,3.983v8.171h-2.608v-6.912c0-1.9-0.115-3.182-2.152-3.182
		c-1.762,0-2.518,1.145-2.518,3.159v6.935h-2.609v-7.599c0-1.647-0.503-2.495-2.082-2.495c-1.351,0-2.587,1.122-2.587,3.067v7.027
		h-2.609V218.613z"/>
	<path fill="#333333" d="M1878.619,225.205c0,1.854,1.007,3.501,3.182,3.501c1.533,0,2.426-0.664,2.884-1.968h2.472
		c-0.549,2.586-2.792,4.028-5.355,4.028c-3.73,0-5.791-2.563-5.791-6.226c0-3.364,2.197-6.249,5.723-6.249
		c3.73,0,6.02,3.365,5.584,6.913H1878.619z M1884.708,223.488c-0.115-1.648-1.19-3.136-2.976-3.136
		c-1.809,0-3.044,1.374-3.113,3.136H1884.708z"/>
	<path fill="#333333" d="M1889.307,218.613h2.472v1.739l0.046,0.046c0.802-1.305,2.129-2.106,3.686-2.106
		c2.586,0,4.188,1.351,4.188,4.028v8.125h-2.609v-7.438c-0.068-1.854-0.755-2.655-2.312-2.655c-1.739,0-2.861,1.374-2.861,3.113
		v6.981h-2.609V218.613z"/>
	<path fill="#333333" d="M1901.253,218.613h1.968v-3.548h2.609v3.548h2.357v1.945h-2.357v6.317c0,1.076,0.092,1.625,1.259,1.625
		c0.366,0,0.732,0,1.099-0.092v2.014c-0.572,0.069-1.121,0.137-1.693,0.137c-2.747,0-3.205-1.053-3.273-3.021v-6.981h-1.968V218.613
		z"/>
	<path fill="#333333" d="M1926.337,227.814c0,0.641,0.137,0.893,0.617,0.893h0.275c0.114,0,0.229-0.022,0.366-0.045v1.808
		c-0.39,0.137-1.213,0.297-1.648,0.297c-1.075,0-1.808-0.366-2.014-1.442c-1.03,1.007-2.701,1.442-4.098,1.442
		c-2.128,0-4.051-1.144-4.051-3.456c0-2.953,2.357-3.433,4.555-3.685c1.899-0.366,3.548-0.114,3.548-1.671
		c0-1.373-1.419-1.602-2.449-1.602c-1.465,0-2.495,0.595-2.609,1.877h-2.609c0.184-3.044,2.747-3.937,5.379-3.937
		c2.312,0,4.738,0.938,4.738,3.434V227.814z M1923.728,224.518c-0.801,0.526-2.037,0.504-3.204,0.71
		c-1.122,0.183-2.129,0.595-2.129,1.968c0,1.19,1.487,1.51,2.403,1.51c1.145,0,2.93-0.595,2.93-2.243V224.518z"/>
	<path fill="#333333" d="M1929.15,218.613h2.472v1.739l0.046,0.046c0.802-1.305,2.129-2.106,3.686-2.106
		c2.586,0,4.188,1.351,4.188,4.028v8.125h-2.609v-7.438c-0.068-1.854-0.755-2.655-2.312-2.655c-1.739,0-2.861,1.374-2.861,3.113
		v6.981h-2.609V218.613z"/>
	<path fill="#333333" d="M1953.433,230.446h-2.472v-1.602h-0.046c-0.709,1.373-2.174,1.922-3.662,1.922
		c-3.73,0-5.539-2.77-5.539-6.317c0-4.303,2.541-6.157,5.127-6.157c1.465,0,3.136,0.549,3.938,1.854h0.045v-6.042h2.609V230.446z
		 M1947.597,228.707c2.312,0,3.318-2.128,3.318-4.188c0-2.632-1.259-4.166-3.272-4.166c-2.449,0-3.319,2.197-3.319,4.303
		C1944.323,226.693,1945.33,228.707,1947.597,228.707z"/>
	<path fill="#333333" d="M1803.259,246.076h2.473v1.739l0.045,0.046c0.802-1.305,2.129-2.106,3.686-2.106
		c2.586,0,4.188,1.351,4.188,4.028v8.125h-2.609v-7.438c-0.068-1.854-0.755-2.655-2.312-2.655c-1.739,0-2.861,1.374-2.861,3.113
		v6.981h-2.609V246.076z"/>
	<path fill="#333333" d="M1826.786,257.909h-2.563v-1.648h-0.046c-0.641,1.19-2.06,1.968-3.364,1.968
		c-3.113,0-4.418-1.533-4.418-4.646v-7.507h2.609v7.255c0,2.083,0.824,2.838,2.266,2.838c2.175,0,2.907-1.396,2.907-3.228v-6.866
		h2.609V257.909z"/>
	<path fill="#333333" d="M1829.53,246.076h2.473v1.648h0.068c0.801-1.167,1.739-1.969,3.639-1.969c1.442,0,2.793,0.618,3.319,1.969
		c0.893-1.213,1.968-1.969,3.708-1.969c2.494,0,3.959,1.122,3.959,3.983v8.171h-2.609v-6.912c0-1.9-0.114-3.182-2.151-3.182
		c-1.762,0-2.518,1.145-2.518,3.159v6.935h-2.609v-7.599c0-1.648-0.503-2.495-2.082-2.495c-1.351,0-2.587,1.122-2.587,3.067v7.027
		h-2.609V246.076z"/>
	<path fill="#333333" d="M1849.51,241.566h2.608v6.042h0.046c0.732-1.145,2.175-1.854,3.525-1.854c3.73,0,5.539,2.815,5.539,6.294
		c0,3.204-1.626,6.18-5.104,6.18c-1.603,0-3.318-0.389-4.097-1.945h-0.046v1.625h-2.472V241.566z M1855.346,247.815
		c-2.197,0-3.318,1.648-3.318,4.188c0,2.38,1.213,4.166,3.318,4.166c2.381,0,3.273-2.106,3.273-4.166
		C1858.619,249.875,1857.497,247.815,1855.346,247.815z"/>
	<path fill="#333333" d="M1865.46,252.667c0,1.854,1.007,3.502,3.182,3.502c1.533,0,2.426-0.664,2.884-1.969h2.472
		c-0.549,2.586-2.792,4.028-5.355,4.028c-3.73,0-5.791-2.563-5.791-6.226c0-3.364,2.197-6.249,5.723-6.249
		c3.73,0,6.02,3.365,5.584,6.913H1865.46z M1871.549,250.951c-0.115-1.648-1.19-3.136-2.976-3.136c-1.809,0-3.045,1.374-3.113,3.136
		H1871.549z"/>
	<path fill="#333333" d="M1876.147,246.076h2.449v2.289h0.046c0.298-1.259,1.877-2.609,3.456-2.609c0.618,0,0.732,0.046,0.984,0.069
		v2.518c-0.366-0.068-0.756-0.114-1.122-0.114c-1.762,0-3.204,1.419-3.204,4.051v5.63h-2.609V246.076z"/>
</g>
<rect x="68.983" y="143.481" fill="none" stroke="#116BB4" stroke-miterlimit="10" width="1917.188" height="751.546"/>
<line fill="none" stroke="#116BB4" stroke-miterlimit="10" x1="200.962" y1="143.481" x2="200.962" y2="895.027"/>
<line fill="none" stroke="#116BB4" stroke-miterlimit="10" x1="327.243" y1="143.481" x2="327.243" y2="895.027"/>
<line fill="none" stroke="#116BB4" stroke-miterlimit="10" x1="456.718" y1="143.481" x2="456.718" y2="895.027"/>
<line fill="none" stroke="#116BB4" stroke-miterlimit="10" x1="589.296" y1="143.481" x2="589.296" y2="895.027"/>
<line fill="none" stroke="#116BB4" stroke-miterlimit="10" x1="770.406" y1="143.481" x2="770.406" y2="895.027"/>
<line fill="none" stroke="#116BB4" stroke-miterlimit="10" x1="918.189" y1="143.481" x2="918.189" y2="895.027"/>
<line fill="none" stroke="#116BB4" stroke-miterlimit="10" x1="1073.478" y1="143.481" x2="1073.478" y2="895.027"/>
<line fill="none" stroke="#116BB4" stroke-miterlimit="10" x1="1205.321" y1="143.481" x2="1205.321" y2="895.027"/>
<line fill="none" stroke="#116BB4" stroke-miterlimit="10" x1="1306.269" y1="143.481" x2="1306.269" y2="895.027"/>
<line fill="none" stroke="#116BB4" stroke-miterlimit="10" x1="1419.831" y1="143.481" x2="1419.831" y2="895.027"/>
<line fill="none" stroke="#116BB4" stroke-miterlimit="10" x1="1578.336" y1="143.481" x2="1578.336" y2="895.027"/>
<line fill="none" stroke="#116BB4" stroke-miterlimit="10" x1="1679.062" y1="143.481" x2="1679.062" y2="895.027"/>
<line fill="none" stroke="#116BB4" stroke-miterlimit="10" x1="1790.174" y1="143.481" x2="1790.174" y2="895.027"/>
<line fill="none" stroke="#116BB4" stroke-miterlimit="10" x1="68.983" y1="427.706" x2="1986.172" y2="427.706"/>
<line fill="none" stroke="#116BB4" stroke-miterlimit="10" x1="68.983" y1="387.959" x2="1986.172" y2="387.959"/>
<line fill="none" stroke="#116BB4" stroke-miterlimit="10" x1="68.983" y1="341.462" x2="1986.172" y2="341.462"/>
<line fill="none" stroke="#116BB4" stroke-miterlimit="10" x1="68.983" y1="300.465" x2="1986.172" y2="300.465"/>
<line fill="none" stroke="#116BB4" stroke-miterlimit="10" x1="68.983" y1="469.315" x2="1986.172" y2="469.315"/>
<line fill="none" stroke="#116BB4" stroke-miterlimit="10" x1="68.983" y1="469.315" x2="1986.172" y2="469.315"/>
<line fill="none" stroke="#116BB4" stroke-miterlimit="10" x1="68.983" y1="510.926" x2="1986.172" y2="510.926"/>
<line fill="none" stroke="#116BB4" stroke-miterlimit="10" x1="68.983" y1="510.926" x2="1986.172" y2="510.926"/>
<line fill="none" stroke="#116BB4" stroke-miterlimit="10" x1="68.983" y1="552.534" x2="1986.172" y2="552.534"/>
<line fill="none" stroke="#116BB4" stroke-miterlimit="10" x1="68.983" y1="552.534" x2="1986.172" y2="552.534"/>
<line fill="none" stroke="#116BB4" stroke-miterlimit="10" x1="68.983" y1="594.145" x2="1986.172" y2="594.145"/>
<line fill="none" stroke="#116BB4" stroke-miterlimit="10" x1="68.983" y1="594.145" x2="1986.172" y2="594.145"/>
<line fill="none" stroke="#116BB4" stroke-miterlimit="10" x1="68.983" y1="635.754" x2="1986.172" y2="635.754"/>
<line fill="none" stroke="#116BB4" stroke-miterlimit="10" x1="68.983" y1="635.754" x2="1986.172" y2="635.754"/>
<line fill="none" stroke="#116BB4" stroke-miterlimit="10" x1="68.983" y1="677.364" x2="1986.172" y2="677.364"/>
<line fill="none" stroke="#116BB4" stroke-miterlimit="10" x1="68.983" y1="677.364" x2="1986.172" y2="677.364"/>
<line fill="none" stroke="#116BB4" stroke-miterlimit="10" x1="68.983" y1="718.973" x2="1986.172" y2="718.973"/>
<line fill="none" stroke="#116BB4" stroke-miterlimit="10" x1="68.983" y1="718.973" x2="1986.172" y2="718.973"/>
<line fill="none" stroke="#116BB4" stroke-miterlimit="10" x1="68.983" y1="760.583" x2="1986.172" y2="760.583"/>
<line fill="none" stroke="#116BB4" stroke-miterlimit="10" x1="68.983" y1="760.583" x2="1986.172" y2="760.583"/>
<line fill="none" stroke="#116BB4" stroke-miterlimit="10" x1="68.983" y1="802.193" x2="1986.172" y2="802.193"/>
<line fill="none" stroke="#116BB4" stroke-miterlimit="10" x1="68.983" y1="802.193" x2="1986.172" y2="802.193"/>
<line fill="none" stroke="#116BB4" stroke-miterlimit="10" x1="68.983" y1="843.803" x2="1986.172" y2="843.803"/>
</svg>
