<?xml version="1.0" encoding="utf-8"?>
<!-- Generator: Adobe Illustrator 16.0.3, SVG Export Plug-In . SVG Version: 6.00 Build 0)  -->
<!DOCTYPE svg PUBLIC "-//W3C//DTD SVG 1.1//EN" "http://www.w3.org/Graphics/SVG/1.1/DTD/svg11.dtd">
<svg version="1.1" id="Layer_1" xmlns="http://www.w3.org/2000/svg" xmlns:xlink="http://www.w3.org/1999/xlink" x="0px" y="0px"
	 width="2048px" height="1000px" viewBox="0 0 2048 1000" enable-background="new 0 0 2048 1000" xml:space="preserve">
<rect fill="#B9E5FB" width="2048" height="1000"/>
<rect y="-3" fill="#4EA8DE" width="2048" height="1000"/>
<rect x="1" y="710" fill="#116BB4" width="2047" height="288.9"/>
<line fill="none" stroke="#343636" stroke-width="5.003" stroke-miterlimit="10" x1="48.187" y1="51.9" x2="2009.999" y2="51.9"/>
<polygon fill="#FFFFFF" points="1384.631,913.811 1384.631,467.544 1384.631,271.124 1229.635,130.361 604,130.361 604,913.811 "/>
<polygon fill="#2C5871" points="1229.635,271.123 1384.631,271.123 1229.635,130.362 "/>
<polygon fill="#D1ECFB" points="1384.631,271.123 1229.635,271.123 1384.631,411.861 "/>
<g>
	<path d="M731.716,318.101h13.477c4.48,0,7.316,3.115,7.316,6.896c0,2.94-1.155,5.146-3.956,6.266v0.07
		c2.695,0.735,3.465,3.291,3.641,5.846c0.105,1.575,0.035,4.55,1.05,5.916h-5.496c-0.63-1.575-0.595-3.99-0.875-5.986
		c-0.385-2.625-1.4-3.78-4.166-3.78h-5.496v9.766h-5.496V318.101z M737.212,329.407h6.021c2.485,0,3.78-1.05,3.78-3.57
		c0-2.415-1.295-3.465-3.78-3.465h-6.021V329.407z"/>
	<path d="M760.557,335.253c0.14,3.186,1.645,4.585,4.445,4.585c1.995,0,3.605-1.225,3.92-2.345h4.375
		c-1.4,4.306-4.375,6.091-8.471,6.091c-5.706,0-9.241-3.92-9.241-9.521c0-5.426,3.745-9.556,9.241-9.556
		c6.161,0,9.171,5.181,8.786,10.746H760.557z M768.642,332.103c-0.455-2.52-1.54-3.851-3.955-3.851c-3.221,0-4.025,2.451-4.13,3.851
		H768.642z"/>
	<path d="M794.192,349.464h-4.971v-8.646h-0.07c-1.155,1.96-3.5,2.766-5.706,2.766c-3.326,0-7.666-2.416-7.666-9.416
		c0-4.971,2.625-9.661,8.121-9.661c2.24,0,4.375,0.805,5.495,2.8h0.07v-2.31h4.726V349.464z M785.056,339.838
		c3.22,0,4.34-2.73,4.34-5.706c0-2.8-1.12-5.881-4.235-5.881c-3.255,0-4.41,2.871-4.41,5.811
		C780.751,336.968,781.801,339.838,785.056,339.838z"/>
	<path d="M814.912,343.094h-4.726v-2.521h-0.105c-1.26,2.065-3.431,3.011-5.531,3.011c-5.286,0-6.616-2.976-6.616-7.456v-11.131
		h4.971v10.221c0,2.976,0.84,4.446,3.185,4.446c2.695,0,3.851-1.505,3.851-5.181v-9.486h4.971V343.094z"/>
	<path d="M823.801,322.197h-4.971v-4.096h4.971V322.197z M818.83,324.997h4.971v18.097h-4.971V324.997z"/>
	<path d="M827.72,324.997h4.726v3.36h0.07c0.945-2.275,3.291-3.851,5.776-3.851c0.385,0,0.735,0.07,1.085,0.175v4.621
		c-0.455-0.105-1.19-0.175-1.785-0.175c-3.675,0-4.9,2.59-4.9,5.811v8.156h-4.971V324.997z"/>
	<path d="M845.43,335.253c0.14,3.186,1.645,4.585,4.445,4.585c1.995,0,3.605-1.225,3.92-2.345h4.375
		c-1.4,4.306-4.375,6.091-8.471,6.091c-5.706,0-9.241-3.92-9.241-9.521c0-5.426,3.746-9.556,9.241-9.556
		c6.161,0,9.171,5.181,8.786,10.746H845.43z M853.516,332.103c-0.455-2.52-1.54-3.851-3.955-3.851c-3.221,0-4.025,2.451-4.13,3.851
		H853.516z"/>
	<path d="M874.34,340.784h-0.07c-1.155,1.96-3.15,2.8-5.496,2.8c-5.46,0-8.121-4.656-8.121-9.696c0-4.865,2.695-9.381,8.016-9.381
		c2.135,0,4.236,0.91,5.356,2.695h0.07v-9.101h4.971v24.993h-4.726V340.784z M870,328.252c-3.255,0-4.375,2.835-4.375,5.776
		c0,2.835,1.295,5.811,4.375,5.811c3.255,0,4.27-2.87,4.27-5.846C874.27,331.053,873.22,328.252,870,328.252z"/>
	<path d="M892.539,318.101h4.971v9.101h0.07c1.225-1.855,3.465-2.695,5.706-2.695c3.605,0,7.491,2.905,7.491,9.521
		s-3.885,9.556-7.491,9.556c-2.66,0-4.865-0.805-5.951-2.8h-0.07v2.31h-4.726V318.101z M901.569,328.252
		c-2.94,0-4.235,2.73-4.235,5.811c0,3.01,1.295,5.775,4.235,5.775c2.94,0,4.236-2.765,4.236-5.775
		C905.805,330.982,904.51,328.252,901.569,328.252z"/>
	<path d="M922.85,345.369c-1.085,2.905-2.836,4.095-6.231,4.095c-1.015,0-2.03-0.07-3.045-0.175v-4.096
		c0.945,0.105,1.925,0.21,2.905,0.175c1.295-0.14,1.925-1.155,1.925-2.275c0-0.385-0.07-0.77-0.21-1.12l-6.371-16.977h5.32
		l4.096,12.391h0.07l3.955-12.391h5.146L922.85,345.369z"/>
	<path d="M942.344,318.101h17.572v4.621H947.84v5.775h10.466v4.271H947.84v10.326h-5.496V318.101z"/>
	<path d="M963.098,318.101h10.781c6.476,0,11.341,4.096,11.341,12.356c0,7.246-3.71,12.636-11.341,12.636h-10.781V318.101z
		 M968.594,338.473h4.9c3.186,0,6.23-1.96,6.23-7.491c0-5.041-1.785-8.261-7.211-8.261h-3.92V338.473z"/>
	<path d="M995.859,318.101h5.636l9.346,24.993h-5.706l-1.89-5.565h-9.347l-1.96,5.565h-5.565L995.859,318.101z M995.334,333.433
		h6.476l-3.15-9.171h-0.069L995.334,333.433z"/>
</g>
<g>
	<path d="M738.052,371.372c3.465,0,6.266,2.765,6.266,6.231c0,3.465-2.8,6.266-6.266,6.266s-6.231-2.8-6.231-6.266
		C731.821,374.137,734.587,371.372,738.052,371.372z"/>
	<path d="M758.071,374.067c-0.28-5.041,2.73-8.786,7.981-8.786c4.306,0,7.771,2.52,7.771,7.141c0,4.375-2.94,6.545-6.021,8.506
		c-3.08,1.855-6.405,3.5-6.965,6.546h12.741v2.625h-16.207c0.455-5.846,3.466-8.051,6.966-10.151
		c4.201-2.625,6.336-4.096,6.336-7.561c0-2.695-2.17-4.48-4.795-4.48c-3.465,0-4.936,3.186-4.831,6.161H758.071z"/>
	<path d="M788.453,390.099h-2.976v-17.782h-6.44v-2.38c3.395,0,6.476-0.875,7.141-4.655h2.275V390.099z"/>
	<path d="M825.483,372.632c-0.735-3.535-3.5-5.321-7.001-5.321c-5.951,0-8.471,4.901-8.471,10.116c0,5.706,2.52,10.466,8.506,10.466
		c4.34,0,6.931-3.081,7.211-7.211h3.325c-0.665,6.266-4.48,10.011-10.816,10.011c-7.735,0-11.551-5.74-11.551-13.021
		s4.13-13.162,11.831-13.162c5.215,0,9.556,2.8,10.291,8.121H825.483z"/>
	<path d="M833.181,365.106h16.417v2.8h-13.091v7.946h11.481v2.8h-11.481v11.446h-3.325V365.106z"/>
	<path d="M853.271,365.106h11.761c4.725,0,7.596,2.521,7.596,6.546c0,3.045-1.295,5.496-4.34,6.335v0.07
		c2.905,0.56,3.465,2.73,3.745,5.146c0.175,2.415,0.07,5.215,1.47,6.896h-3.71c-0.945-1.015-0.42-3.71-0.91-6.161
		c-0.385-2.415-0.945-4.516-4.166-4.516h-8.121v10.676h-3.325V365.106z M863.527,376.622c3.081,0,5.776-0.805,5.776-4.445
		c0-2.485-1.331-4.271-4.446-4.271h-8.261v8.716H863.527z"/>
	<path d="M893.801,365.281c5.425,0,7.526,3.15,7.526,6.335c0,2.24-1.365,4.201-3.431,5.146c2.976,0.945,4.411,3.115,4.411,6.196
		c0,4.795-3.641,7.561-8.226,7.561c-4.76,0-8.436-2.521-8.436-7.561c0-2.94,1.54-5.216,4.34-6.196
		c-2.1-0.84-3.465-2.905-3.465-5.146C886.521,367.556,889.986,365.281,893.801,365.281z M894.081,387.894
		c2.976,0,5.076-2.065,5.076-4.831c0-2.66-2.31-4.726-5.111-4.726c-2.94,0-5.25,1.855-5.25,4.76
		C888.795,386.073,891.001,387.894,894.081,387.894z M894.081,375.712c2.38,0,4.096-1.47,4.096-3.99c0-2.52-1.75-3.815-4.166-3.815
		c-2.38,0-4.34,1.33-4.34,3.815C889.671,374.417,891.666,375.712,894.081,375.712z"/>
	<path d="M905.245,374.067c-0.28-5.041,2.73-8.786,7.981-8.786c4.306,0,7.771,2.52,7.771,7.141c0,4.375-2.94,6.545-6.021,8.506
		c-3.08,1.855-6.405,3.5-6.965,6.546h12.741v2.625h-16.207c0.455-5.846,3.466-8.051,6.966-10.151
		c4.201-2.625,6.336-4.096,6.336-7.561c0-2.695-2.17-4.48-4.795-4.48c-3.465,0-4.936,3.186-4.831,6.161H905.245z"/>
	<path d="M932.896,365.281c7.771,0,8.261,7.176,8.261,12.636s-0.49,12.601-8.261,12.601c-7.771,0-8.262-7.141-8.262-12.601
		S925.125,365.281,932.896,365.281z M932.896,387.894c5.075,0,5.11-6.301,5.11-10.011c0-3.675-0.035-9.976-5.11-9.976
		c-5.076,0-5.111,6.301-5.111,9.976C927.785,381.593,927.82,387.894,932.896,387.894z"/>
	<path d="M949.416,375.887h-3.886v-3.885h3.886V375.887z M945.53,386.213h3.886v3.885h-3.886V386.213z"/>
	<path d="M964.885,365.106h4.551l7.876,21.002l7.911-21.002h4.55v24.993h-3.15v-20.792h-0.069l-7.806,20.792h-2.836l-7.806-20.792
		h-0.07v20.792h-3.15V365.106z"/>
	<path d="M1010.246,384.358c-0.805,4.026-3.641,6.161-7.735,6.161c-5.776,0-8.506-4.025-8.682-9.521c0-5.46,3.57-9.416,8.506-9.416
		c6.406,0,8.366,5.986,8.191,10.361h-13.547c-0.104,3.15,1.681,5.951,5.636,5.951c2.485,0,4.166-1.155,4.69-3.536H1010.246z
		 M1007.376,379.317c-0.175-2.835-2.24-5.11-5.216-5.11c-3.08,0-5.005,2.31-5.181,5.11H1007.376z"/>
	<path d="M1029.776,390.099h-2.976v-2.45h-0.07c-0.979,1.995-3.255,2.87-5.775,2.87c-5.565,0-8.331-4.41-8.331-9.521
		c0-5.11,2.73-9.416,8.261-9.416c1.82,0,4.551,0.7,5.846,2.835h0.07v-9.311h2.976V390.099z M1021.375,387.894
		c4.025,0,5.531-3.465,5.531-6.826c0-3.536-1.61-6.861-5.706-6.861c-4.061,0-5.426,3.465-5.426,7
		C1015.774,384.603,1017.525,387.894,1021.375,387.894z"/>
	<path d="M1037.51,368.747h-2.976v-3.641h2.976V368.747z M1034.534,372.002h2.976v18.097h-2.976V372.002z"/>
	<path d="M1054.415,377.812c-0.455-2.275-1.995-3.605-4.48-3.605c-4.306,0-5.636,3.43-5.636,7.071c0,3.36,1.506,6.616,5.286,6.616
		c2.905,0,4.585-1.646,4.971-4.411h3.045c-0.665,4.446-3.396,7.036-7.98,7.036c-5.531,0-8.472-3.815-8.472-9.241
		c0-5.426,2.801-9.696,8.541-9.696c4.131,0,7.351,1.925,7.806,6.231H1054.415z"/>
	<path d="M1076.954,390.028c-0.524,0.315-1.26,0.49-2.135,0.49c-1.54,0-2.521-0.84-2.521-2.8c-1.645,1.96-3.851,2.8-6.37,2.8
		c-3.291,0-5.986-1.435-5.986-5.075c0-4.096,3.046-5.006,6.126-5.566c3.256-0.665,6.091-0.385,6.091-2.66
		c0-2.625-2.17-3.01-4.025-3.01c-2.521,0-4.376,0.77-4.516,3.43h-2.976c0.175-4.48,3.605-6.056,7.666-6.056
		c3.256,0,6.791,0.735,6.791,4.971v9.311c0,1.4,0,2.03,0.945,2.03c0.279,0,0.595-0.07,0.909-0.175V390.028z M1072.124,380.752
		c-2.311,1.715-9.031,0.035-9.031,4.48c0,1.96,1.681,2.661,3.501,2.661c3.92,0,5.53-2.416,5.53-4.096V380.752z"/>
	<path d="M1079.893,365.106h2.976v24.993h-2.976V365.106z"/>
	<path d="M1113.389,390.099h-2.976v-2.45h-0.07c-0.979,1.995-3.255,2.87-5.775,2.87c-5.565,0-8.331-4.41-8.331-9.521
		c0-5.11,2.73-9.416,8.262-9.416c1.819,0,4.55,0.7,5.845,2.835h0.07v-9.311h2.976V390.099z M1104.987,387.894
		c4.025,0,5.531-3.465,5.531-6.826c0-3.536-1.61-6.861-5.706-6.861c-4.061,0-5.426,3.465-5.426,7
		C1099.387,384.603,1101.137,387.894,1104.987,387.894z"/>
	<path d="M1133.408,384.358c-0.805,4.026-3.641,6.161-7.735,6.161c-5.776,0-8.506-4.025-8.682-9.521c0-5.46,3.57-9.416,8.506-9.416
		c6.406,0,8.366,5.986,8.191,10.361h-13.547c-0.104,3.15,1.681,5.951,5.636,5.951c2.485,0,4.166-1.155,4.69-3.536H1133.408z
		 M1130.538,379.317c-0.175-2.835-2.24-5.11-5.216-5.11c-3.08,0-5.005,2.31-5.181,5.11H1130.538z"/>
	<path d="M1144.923,390.099h-3.186l-6.721-18.097h3.325l5.075,15.086h0.07l4.936-15.086h3.115L1144.923,390.099z"/>
	<path d="M1157.417,368.747h-2.976v-3.641h2.976V368.747z M1154.441,372.002h2.976v18.097h-2.976V372.002z"/>
	<path d="M1174.322,377.812c-0.455-2.275-1.995-3.605-4.48-3.605c-4.306,0-5.636,3.43-5.636,7.071c0,3.36,1.506,6.616,5.286,6.616
		c2.905,0,4.585-1.646,4.971-4.411h3.045c-0.665,4.446-3.396,7.036-7.98,7.036c-5.531,0-8.472-3.815-8.472-9.241
		c0-5.426,2.801-9.696,8.541-9.696c4.131,0,7.351,1.925,7.806,6.231H1174.322z"/>
	<path d="M1196.267,384.358c-0.805,4.026-3.641,6.161-7.735,6.161c-5.776,0-8.506-4.025-8.682-9.521c0-5.46,3.57-9.416,8.506-9.416
		c6.406,0,8.366,5.986,8.191,10.361H1183c-0.104,3.15,1.681,5.951,5.636,5.951c2.485,0,4.166-1.155,4.69-3.536H1196.267z
		 M1193.396,379.317c-0.175-2.835-2.24-5.11-5.216-5.11c-3.08,0-5.005,2.31-5.181,5.11H1193.396z"/>
</g>
<g>
	<path d="M760.731,414.002h2.8v2.66h0.07c1.365-2.065,3.291-3.08,5.846-3.08c2.24,0,4.235,0.84,4.971,3.08
		c1.225-1.96,3.325-3.08,5.67-3.08c3.605,0,6.021,1.505,6.021,5.25v13.267h-2.975v-11.866c0-2.24-0.595-4.025-3.5-4.025
		s-4.726,1.82-4.726,4.62v11.271h-2.975v-11.866c0-2.346-0.735-4.025-3.396-4.025c-3.5,0-4.831,3.221-4.831,4.62v11.271h-2.975
		V414.002z"/>
	<path d="M806.618,432.028c-0.525,0.315-1.26,0.49-2.135,0.49c-1.54,0-2.521-0.84-2.521-2.8c-1.645,1.96-3.85,2.8-6.371,2.8
		c-3.29,0-5.985-1.435-5.985-5.075c0-4.096,3.045-5.006,6.125-5.565c3.255-0.665,6.091-0.386,6.091-2.661
		c0-2.625-2.17-3.01-4.025-3.01c-2.521,0-4.375,0.77-4.516,3.431h-2.975c0.175-4.48,3.605-6.056,7.666-6.056
		c3.255,0,6.791,0.734,6.791,4.97v9.312c0,1.4,0,2.03,0.945,2.03c0.28,0,0.595-0.07,0.91-0.175V432.028z M801.788,422.753
		c-2.31,1.715-9.031,0.035-9.031,4.48c0,1.96,1.68,2.66,3.5,2.66c3.92,0,5.531-2.415,5.531-4.096V422.753z"/>
	<path d="M809.381,414.002h2.8v2.87h0.07c1.26-2.24,3.255-3.29,5.881-3.29c4.76,0,6.23,2.729,6.23,6.615v11.901h-2.975v-12.251
		c0-2.24-1.4-3.641-3.675-3.641c-3.605,0-5.356,2.415-5.356,5.671v10.221h-2.975V414.002z"/>
	<path d="M843.822,432.099h-2.8v-2.87h-0.07c-1.26,2.24-3.255,3.29-5.881,3.29c-4.76,0-6.23-2.73-6.23-6.615v-11.901h2.975v12.251
		c0,2.24,1.4,3.641,3.676,3.641c3.605,0,5.355-2.415,5.355-5.671v-10.221h2.975V432.099z"/>
	<path d="M849.526,416.627h-3.045v-2.625h3.045v-2.695c0-2.94,1.75-4.48,5.005-4.48c0.56,0,1.365,0.104,1.925,0.28v2.59
		c-0.525-0.175-1.155-0.245-1.68-0.245c-1.435,0-2.275,0.455-2.275,2.03v2.521h3.5v2.625h-3.5v15.472h-2.975V416.627z"/>
	<path d="M874.692,432.028c-0.525,0.315-1.26,0.49-2.135,0.49c-1.54,0-2.521-0.84-2.521-2.8c-1.645,1.96-3.85,2.8-6.371,2.8
		c-3.29,0-5.985-1.435-5.985-5.075c0-4.096,3.045-5.006,6.125-5.565c3.255-0.665,6.091-0.386,6.091-2.661
		c0-2.625-2.17-3.01-4.025-3.01c-2.521,0-4.375,0.77-4.516,3.431h-2.975c0.175-4.48,3.605-6.056,7.666-6.056
		c3.255,0,6.791,0.734,6.791,4.97v9.312c0,1.4,0,2.03,0.945,2.03c0.28,0,0.595-0.07,0.91-0.175V432.028z M869.862,422.753
		c-2.31,1.715-9.031,0.035-9.031,4.48c0,1.96,1.68,2.66,3.5,2.66c3.92,0,5.531-2.415,5.531-4.096V422.753z"/>
	<path d="M889.741,419.812c-0.455-2.275-1.995-3.605-4.48-3.605c-4.305,0-5.635,3.431-5.635,7.07c0,3.36,1.505,6.616,5.285,6.616
		c2.906,0,4.585-1.646,4.971-4.41h3.045c-0.665,4.445-3.396,7.035-7.981,7.035c-5.531,0-8.471-3.815-8.471-9.241
		c0-5.425,2.8-9.695,8.541-9.695c4.131,0,7.351,1.925,7.806,6.23H889.741z"/>
	<path d="M900.38,414.002h3.605v2.625h-3.605v11.236c0,1.4,0.385,1.61,2.24,1.61h1.365v2.625h-2.275c-3.08,0-4.305-0.63-4.305-3.955
		v-11.517h-3.081v-2.625h3.081v-5.426h2.975V414.002z"/>
	<path d="M922.256,432.099h-2.8v-2.87h-0.07c-1.26,2.24-3.255,3.29-5.881,3.29c-4.76,0-6.23-2.73-6.23-6.615v-11.901h2.975v12.251
		c0,2.24,1.4,3.641,3.676,3.641c3.605,0,5.355-2.415,5.355-5.671v-10.221h2.976V432.099z"/>
	<path d="M926.629,414.002h2.801v3.815h0.07c1.435-2.94,3.43-4.341,6.65-4.235v3.15c-4.796,0-6.546,2.695-6.546,7.315v8.051h-2.976
		V414.002z"/>
	<path d="M941.539,410.746h-2.976v-3.64h2.976V410.746z M938.563,414.002h2.976v18.097h-2.976V414.002z"/>
	<path d="M946.158,414.002h2.801v2.87h0.069c1.261-2.24,3.256-3.29,5.881-3.29c4.761,0,6.23,2.729,6.23,6.615v11.901h-2.976v-12.251
		c0-2.24-1.399-3.641-3.675-3.641c-3.605,0-5.355,2.415-5.355,5.671v10.221h-2.976V414.002z"/>
	<path d="M981.229,430.559c0,5.915-2.66,8.891-8.4,8.891c-3.396,0-7.316-1.4-7.491-5.32h2.976c0.104,2.135,2.766,2.94,4.69,2.94
		c3.886,0,5.426-2.801,5.426-6.861v-1.189h-0.07c-1.015,2.205-3.325,3.29-5.636,3.29c-5.391,0-8.086-4.235-8.086-9.171
		c0-4.271,2.065-9.556,8.366-9.556c2.275,0,4.306,1.015,5.391,3.01h0.035v-2.59h2.8V430.559z M978.289,422.683
		c0-3.186-1.399-6.476-5.146-6.476c-3.815,0-5.355,3.115-5.355,6.581c0,3.255,1.19,6.896,5.11,6.896
		C976.819,429.684,978.289,426.078,978.289,422.683z"/>
</g>
<path fill="#89BE46" d="M705.301,336.104c0,17.673-14.327,32-32,32c-17.673,0-32-14.327-32-32c0-17.673,14.327-32,32-32
	C690.974,304.104,705.301,318.431,705.301,336.104"/>
<g>
	<path fill="#FFFFFF" d="M677.721,348.385h-4.26v-13.62h-5.28v-3.209c2.97,0.09,5.67-0.96,6.15-4.17h3.39V348.385z"/>
</g>
<path fill="#89BE46" d="M705.301,592.104c0,17.674-14.327,32-32,32c-17.673,0-32-14.326-32-32c0-17.673,14.327-32,32-32
	C690.974,560.104,705.301,574.431,705.301,592.104"/>
<g>
	<path fill="#FFFFFF" d="M667.071,591.455c-0.15-4.8,2.58-8.489,7.62-8.489c3.84,0,7.2,2.46,7.2,6.569c0,6.36-6.75,6.87-9.81,11.189
		h9.93v3.66h-15.419c0-4.89,3-6.899,6.63-9.39c1.83-1.29,4.41-2.55,4.41-5.13c0-2.01-1.32-3.24-3.15-3.24
		c-2.52,0-3.33,2.61-3.33,4.83H667.071z"/>
</g>
<g>
	<path fill="#2C5871" d="M665.458,200.844h-7.177l-5.567-22.358h-0.092l-5.475,22.358h-7.315l-8.695-32.848h7.223l5.199,22.358
		h0.092l5.705-22.358h6.763l5.613,22.634h0.092l5.382-22.634h7.085L665.458,200.844z"/>
	<path fill="#2C5871" d="M676.908,167.996h6.533v12.375h0.138c1.656-2.714,4.508-3.957,6.947-3.957c6.947,0,8.695,3.91,8.695,9.799
		v14.63h-6.533V187.41c0-3.91-1.104-5.843-4.187-5.843c-3.542,0-5.061,1.979-5.061,6.809v12.467h-6.533V167.996z"/>
	<path fill="#2C5871" d="M715.917,203.834c-1.426,3.818-3.727,5.383-8.189,5.383c-1.334,0-2.668-0.092-4.002-0.23v-5.383
		c1.242,0.138,2.53,0.276,3.818,0.23c1.702-0.184,2.53-1.518,2.53-2.99c0-0.506-0.092-1.012-0.276-1.472l-8.373-22.312h6.993
		l5.383,16.286h0.092l5.199-16.286h6.763L715.917,203.834z"/>
	<path fill="#2C5871" d="M741.031,177.059h6.165v3.22h0.092c1.703-2.438,4.141-3.864,7.269-3.864c2.99,0,5.659,1.058,6.947,3.957
		c1.426-2.07,3.864-3.957,7.177-3.957c5.061,0,8.695,2.346,8.695,8.511v15.918h-6.533v-13.479c0-3.174-0.276-5.797-4.002-5.797
		c-3.68,0-4.37,3.083-4.37,6.027v13.25h-6.533v-13.341c0-2.761,0.184-5.935-3.957-5.935c-1.288,0-4.417,0.828-4.417,5.475v13.802
		h-6.533V177.059z"/>
	<path fill="#2C5871" d="M804.835,200.844h-6.211v-3.312h-0.138c-1.656,2.714-4.509,3.957-7.269,3.957
		c-6.947,0-8.695-3.911-8.695-9.799v-14.629h6.533v13.434c0,3.91,1.104,5.843,4.187,5.843c3.542,0,5.061-1.979,5.061-6.809v-12.467
		h6.533V200.844z"/>
	<path fill="#2C5871" d="M814.861,193.115c0,2.807,2.484,4.002,5.015,4.002c1.84,0,4.278-0.736,4.278-3.036
		c0-1.979-2.76-2.714-7.407-3.681c-3.818-0.874-7.545-2.116-7.545-6.349c0-6.073,5.245-7.637,10.351-7.637
		c5.153,0,9.983,1.748,10.489,7.591h-6.21c-0.184-2.53-2.117-3.22-4.463-3.22c-1.472,0-3.634,0.23-3.634,2.208
		c0,2.346,3.727,2.668,7.407,3.542c3.818,0.874,7.545,2.254,7.545,6.671c0,6.256-5.475,8.281-10.857,8.281
		c-5.521,0-10.949-2.07-11.179-8.373H814.861z"/>
	<path fill="#2C5871" d="M842.783,177.059h4.785v4.371h-4.785v11.777c0,2.208,0.552,2.76,2.76,2.76c0.736,0,1.426-0.046,2.024-0.184
		v5.106c-1.104,0.184-2.53,0.23-3.818,0.23c-4.048,0-7.499-0.874-7.499-5.659V181.43h-3.957v-4.371h3.957v-7.131h6.533V177.059z"/>
	<path fill="#2C5871" d="M890.67,200.844h-6.717l-4.232-15.964h-0.092l-4.049,15.964h-6.763l-7.545-23.785h6.901l4.371,16.148h0.092
		l3.957-16.148h6.349l4.049,16.102h0.092l4.371-16.102h6.717L890.67,200.844z"/>
	<path fill="#2C5871" d="M906.308,190.539c0.184,4.187,2.163,6.027,5.843,6.027c2.623,0,4.739-1.61,5.153-3.083h5.75
		c-1.84,5.659-5.75,8.005-11.133,8.005c-7.499,0-12.146-5.152-12.146-12.513c0-7.131,4.923-12.56,12.146-12.56
		c8.097,0,12.053,6.809,11.547,14.124H906.308z M916.935,186.398c-0.598-3.312-2.024-5.061-5.199-5.061
		c-4.232,0-5.291,3.221-5.429,5.061H916.935z"/>
	<path fill="#2C5871" d="M940.301,177.059h6.165v3.22h0.092c1.703-2.438,4.141-3.864,7.269-3.864c2.99,0,5.659,1.058,6.947,3.957
		c1.426-2.07,3.864-3.957,7.177-3.957c5.061,0,8.695,2.346,8.695,8.511v15.918h-6.533v-13.479c0-3.174-0.276-5.797-4.002-5.797
		c-3.68,0-4.37,3.083-4.37,6.027v13.25h-6.533v-13.341c0-2.761,0.184-5.935-3.957-5.935c-1.288,0-4.417,0.828-4.417,5.475v13.802
		h-6.533V177.059z"/>
	<path fill="#2C5871" d="M981.517,184.374c0.368-6.073,5.842-7.959,11.179-7.959c4.738,0,10.443,1.058,10.443,6.763v12.375
		c0,2.162,0.23,4.324,0.828,5.291h-6.625c-0.23-0.736-0.414-1.518-0.46-2.3c-2.07,2.162-5.061,2.944-8.005,2.944
		c-4.554,0-8.097-2.254-8.097-7.131c0.092-10.811,16.102-5.015,15.826-10.351c0-2.76-1.932-3.22-4.232-3.22
		c-2.53,0-4.094,1.012-4.324,3.588H981.517z M996.606,189.205c-1.104,0.966-3.404,1.012-5.429,1.38
		c-2.024,0.368-3.864,1.104-3.864,3.497c0,2.392,1.886,3.036,4.002,3.036c5.106,0,5.291-4.002,5.291-5.475V189.205z"/>
	<path fill="#2C5871" d="M1008.196,177.059h6.21v3.312h0.138c1.656-2.714,4.508-3.957,7.269-3.957c6.946,0,8.694,3.91,8.694,9.799
		v14.63h-6.532V187.41c0-3.91-1.104-5.843-4.187-5.843c-3.542,0-5.061,1.979-5.061,6.809v12.467h-6.533V177.059z"/>
	<path fill="#2C5871" d="M1035.197,184.374c0.368-6.073,5.843-7.959,11.18-7.959c4.738,0,10.443,1.058,10.443,6.763v12.375
		c0,2.162,0.229,4.324,0.828,5.291h-6.625c-0.23-0.736-0.414-1.518-0.46-2.3c-2.07,2.162-5.061,2.944-8.005,2.944
		c-4.555,0-8.098-2.254-8.098-7.131c0.093-10.811,16.103-5.015,15.826-10.351c0-2.76-1.932-3.22-4.232-3.22
		c-2.53,0-4.095,1.012-4.324,3.588H1035.197z M1050.287,189.205c-1.104,0.966-3.404,1.012-5.429,1.38s-3.864,1.104-3.864,3.497
		c0,2.392,1.887,3.036,4.003,3.036c5.106,0,5.29-4.002,5.29-5.475V189.205z"/>
	<path fill="#2C5871" d="M1084.741,199.326c0,3.91-1.426,10.535-12.329,10.535c-4.692,0-10.121-2.254-10.489-7.637h6.486
		c0.599,2.438,2.53,3.266,4.877,3.266c3.635,0,5.291-2.438,5.245-5.889v-3.128h-0.093c-1.426,2.53-4.232,3.681-7.131,3.681
		c-7.177,0-10.167-5.429-10.167-11.961c0-6.165,3.589-11.777,10.213-11.777c3.129,0,5.475,1.058,7.085,3.818h0.093v-3.174h6.21
		V199.326z M1078.531,188.652c0-3.864-1.335-7.315-5.567-7.315c-3.68,0-5.29,3.221-5.29,6.763c0,3.405,1.242,7.131,5.29,7.131
		C1076.69,195.231,1078.531,192.057,1078.531,188.652z"/>
	<path fill="#2C5871" d="M1095.365,190.539c0.184,4.187,2.162,6.027,5.843,6.027c2.622,0,4.738-1.61,5.152-3.083h5.751
		c-1.841,5.659-5.751,8.005-11.134,8.005c-7.499,0-12.146-5.152-12.146-12.513c0-7.131,4.923-12.56,12.146-12.56
		c8.097,0,12.054,6.809,11.548,14.124H1095.365z M1105.992,186.398c-0.598-3.312-2.024-5.061-5.198-5.061
		c-4.232,0-5.291,3.221-5.429,5.061H1105.992z"/>
	<path fill="#2C5871" d="M634.174,223.196h14.814c8.235,0,11.363,5.199,11.363,10.535s-3.128,10.535-11.363,10.535h-7.591v11.777
		h-7.223V223.196z M641.397,238.653h5.613c3.312,0,6.349-0.736,6.349-4.922s-3.036-4.922-6.349-4.922h-5.613V238.653z"/>
	<path fill="#2C5871" d="M664.166,232.259h6.21v4.417h0.092c1.242-2.99,4.324-5.061,7.591-5.061c0.506,0,0.966,0.092,1.426,0.23
		v6.073c-0.598-0.138-1.564-0.23-2.346-0.23c-4.831,0-6.441,3.404-6.441,7.637v10.719h-6.533V232.259z"/>
	<path fill="#2C5871" d="M693.607,231.615c7.499,0,12.329,4.968,12.329,12.56c0,7.544-4.831,12.513-12.329,12.513
		c-7.453,0-12.284-4.969-12.284-12.513C681.323,236.583,686.154,231.615,693.607,231.615z M693.607,251.765
		c4.462,0,5.796-3.772,5.796-7.591c0-3.819-1.334-7.637-5.796-7.637c-4.417,0-5.751,3.818-5.751,7.637
		C687.856,247.993,689.19,251.765,693.607,251.765z"/>
	<path fill="#2C5871" d="M726.359,240.632c-0.414-2.714-2.024-4.095-4.831-4.095c-4.187,0-5.567,4.232-5.567,7.729
		c0,3.45,1.334,7.499,5.429,7.499c3.083,0,4.785-1.886,5.199-4.831h6.303c-0.874,6.303-5.153,9.753-11.456,9.753
		c-7.177,0-12.007-5.061-12.007-12.191c0-7.407,4.417-12.881,12.146-12.881c5.613,0,10.811,2.944,11.179,9.017H726.359z"/>
	<path fill="#2C5871" d="M741.951,245.738c0.184,4.187,2.163,6.027,5.843,6.027c2.623,0,4.739-1.61,5.153-3.083h5.75
		c-1.84,5.659-5.75,8.005-11.133,8.005c-7.499,0-12.146-5.152-12.146-12.513c0-7.131,4.923-12.56,12.146-12.56
		c8.097,0,12.053,6.809,11.547,14.124H741.951z M752.578,241.598c-0.598-3.312-2.024-5.061-5.199-5.061
		c-4.232,0-5.291,3.221-5.429,5.061H752.578z"/>
	<path fill="#2C5871" d="M768.032,248.314c0,2.807,2.484,4.002,5.015,4.002c1.84,0,4.278-0.736,4.278-3.036
		c0-1.979-2.76-2.714-7.407-3.681c-3.818-0.874-7.545-2.116-7.545-6.349c0-6.073,5.245-7.637,10.351-7.637
		c5.153,0,9.983,1.748,10.489,7.591h-6.21c-0.184-2.53-2.117-3.22-4.463-3.22c-1.472,0-3.634,0.23-3.634,2.208
		c0,2.346,3.727,2.668,7.407,3.542c3.818,0.874,7.545,2.254,7.545,6.671c0,6.256-5.475,8.281-10.857,8.281
		c-5.521,0-10.95-2.07-11.18-8.373H768.032z"/>
	<path fill="#2C5871" d="M792.733,248.314c0,2.807,2.484,4.002,5.015,4.002c1.84,0,4.278-0.736,4.278-3.036
		c0-1.979-2.76-2.714-7.407-3.681c-3.818-0.874-7.545-2.116-7.545-6.349c0-6.073,5.245-7.637,10.351-7.637
		c5.153,0,9.983,1.748,10.489,7.591h-6.21c-0.184-2.53-2.117-3.22-4.463-3.22c-1.472,0-3.634,0.23-3.634,2.208
		c0,2.346,3.727,2.668,7.407,3.542c3.818,0.874,7.545,2.254,7.545,6.671c0,6.256-5.475,8.281-10.857,8.281
		c-5.521,0-10.95-2.07-11.18-8.373H792.733z"/>
	<path fill="#2C5871" d="M825.852,223.196h14.169c8.511,0,14.906,5.382,14.906,16.24c0,9.523-4.876,16.608-14.906,16.608h-14.169
		V223.196z M833.075,249.971h6.441c4.187,0,8.189-2.576,8.189-9.845c0-6.625-2.346-10.857-9.477-10.857h-5.153V249.971z"/>
	<path fill="#2C5871" d="M864.63,245.738c0.184,4.187,2.163,6.027,5.843,6.027c2.623,0,4.739-1.61,5.153-3.083h5.75
		c-1.84,5.659-5.75,8.005-11.133,8.005c-7.499,0-12.146-5.152-12.146-12.513c0-7.131,4.923-12.56,12.146-12.56
		c8.097,0,12.053,6.809,11.547,14.124H864.63z M875.258,241.598c-0.598-3.312-2.024-5.061-5.199-5.061
		c-4.232,0-5.291,3.221-5.429,5.061H875.258z"/>
	<path fill="#2C5871" d="M898.809,256.043h-7.269l-8.143-23.785h6.855l5.015,16.24h0.092l5.015-16.24h6.487L898.809,256.043z"/>
	<path fill="#2C5871" d="M916.288,228.578h-6.533v-5.382h6.533V228.578z M909.755,232.259h6.533v23.785h-6.533V232.259z"/>
	<path fill="#2C5871" d="M921.162,239.574c0.368-6.073,5.843-7.959,11.18-7.959c4.738,0,10.443,1.058,10.443,6.763v12.375
		c0,2.162,0.23,4.324,0.828,5.291h-6.625c-0.23-0.736-0.414-1.518-0.46-2.3c-2.07,2.162-5.061,2.944-8.005,2.944
		c-4.555,0-8.097-2.254-8.097-7.131c0.092-10.811,16.102-5.015,15.826-10.351c0-2.76-1.932-3.22-4.232-3.22
		c-2.53,0-4.094,1.012-4.324,3.588H921.162z M936.252,244.404c-1.104,0.966-3.404,1.012-5.429,1.38
		c-2.024,0.368-3.864,1.104-3.864,3.497c0,2.392,1.886,3.036,4.002,3.036c5.106,0,5.291-4.002,5.291-5.475V244.404z"/>
	<path fill="#2C5871" d="M956.123,232.259h4.785v4.371h-4.785v11.777c0,2.208,0.552,2.76,2.76,2.76c0.736,0,1.426-0.046,2.024-0.184
		v5.106c-1.104,0.184-2.53,0.23-3.818,0.23c-4.048,0-7.499-0.874-7.499-5.659v-14.031h-3.957v-4.371h3.957v-7.131h6.533V232.259z"/>
	<path fill="#2C5871" d="M970.75,228.578h-6.533v-5.382h6.533V228.578z M964.217,232.259h6.533v23.785h-6.533V232.259z"/>
	<path fill="#2C5871" d="M987.448,231.615c7.499,0,12.329,4.968,12.329,12.56c0,7.544-4.831,12.513-12.329,12.513
		c-7.453,0-12.284-4.969-12.284-12.513C975.165,236.583,979.995,231.615,987.448,231.615z M987.448,251.765
		c4.462,0,5.796-3.772,5.796-7.591c0-3.819-1.334-7.637-5.796-7.637c-4.417,0-5.751,3.818-5.751,7.637
		C981.697,247.993,983.032,251.765,987.448,251.765z"/>
	<path fill="#2C5871" d="M1004.006,232.259h6.21v3.312h0.138c1.656-2.714,4.508-3.957,7.269-3.957c6.946,0,8.694,3.91,8.694,9.799
		v14.63h-6.532V242.61c0-3.91-1.104-5.843-4.187-5.843c-3.542,0-5.061,1.979-5.061,6.809v12.467h-6.533V232.259z"/>
	<path fill="#2C5871" d="M1036.345,248.314c0,2.807,2.484,4.002,5.015,4.002c1.84,0,4.278-0.736,4.278-3.036
		c0-1.979-2.761-2.714-7.407-3.681c-3.818-0.874-7.545-2.116-7.545-6.349c0-6.073,5.245-7.637,10.352-7.637
		c5.152,0,9.983,1.748,10.489,7.591h-6.211c-0.184-2.53-2.116-3.22-4.462-3.22c-1.473,0-3.635,0.23-3.635,2.208
		c0,2.346,3.727,2.668,7.407,3.542c3.818,0.874,7.545,2.254,7.545,6.671c0,6.256-5.475,8.281-10.857,8.281
		c-5.521,0-10.949-2.07-11.18-8.373H1036.345z"/>
	<path fill="#2C5871" d="M1054.973,233.777c0.139-6.579,4.417-11.363,11.18-11.363c8.649,0,11.455,5.383,11.455,8.879
		c0,8.787-7.591,7.591-8.373,13.158v1.748h-6.21v-2.07c0.644-7.959,7.498-7.223,7.36-12.191c0-2.806-1.472-4.14-3.91-4.14
		c-3.312,0-4.738,2.714-4.738,5.98H1054.973z M1062.38,248.958h7.223v7.085h-7.223V248.958z"/>
</g>
<g>
	<path d="M736.751,456.263c3.465,0,6.266,2.765,6.266,6.23c0,3.465-2.8,6.266-6.266,6.266s-6.23-2.801-6.23-6.266
		C730.521,459.027,733.286,456.263,736.751,456.263z"/>
	<path d="M756.77,458.958c-0.28-5.041,2.73-8.786,7.981-8.786c4.306,0,7.771,2.521,7.771,7.141c0,4.375-2.94,6.546-6.021,8.506
		c-3.08,1.855-6.405,3.5-6.965,6.546h12.741v2.625H756.07c0.455-5.846,3.465-8.051,6.965-10.151
		c4.201-2.625,6.336-4.095,6.336-7.561c0-2.695-2.17-4.48-4.795-4.48c-3.466,0-4.936,3.186-4.831,6.161H756.77z"/>
	<path d="M787.151,474.989h-2.976v-17.782h-6.44v-2.38c3.396,0,6.476-0.875,7.141-4.655h2.275V474.989z"/>
	<path d="M824.182,457.522c-0.735-3.535-3.5-5.32-7.001-5.32c-5.951,0-8.471,4.9-8.471,10.116c0,5.705,2.52,10.466,8.506,10.466
		c4.34,0,6.931-3.08,7.211-7.211h3.325c-0.665,6.266-4.48,10.011-10.816,10.011c-7.736,0-11.551-5.74-11.551-13.021
		c0-7.28,4.13-13.161,11.831-13.161c5.215,0,9.556,2.801,10.291,8.121H824.182z"/>
	<path d="M831.88,449.997h16.417v2.8h-13.091v7.946h11.481v2.8h-11.481v11.446h-3.325V449.997z"/>
	<path d="M851.97,449.997h11.761c4.725,0,7.596,2.52,7.596,6.545c0,3.046-1.295,5.496-4.34,6.336v0.07
		c2.905,0.56,3.465,2.73,3.745,5.146c0.175,2.415,0.07,5.215,1.47,6.896h-3.71c-0.945-1.015-0.42-3.71-0.91-6.161
		c-0.385-2.415-0.945-4.515-4.166-4.515h-8.121v10.676h-3.325V449.997z M862.226,461.513c3.081,0,5.775-0.805,5.775-4.445
		c0-2.485-1.33-4.271-4.445-4.271h-8.261v8.716H862.226z"/>
	<path d="M884.484,458.958c-0.28-5.041,2.73-8.786,7.981-8.786c4.306,0,7.771,2.521,7.771,7.141c0,4.375-2.94,6.546-6.021,8.506
		c-3.08,1.855-6.405,3.5-6.965,6.546h12.741v2.625h-16.207c0.455-5.846,3.466-8.051,6.966-10.151
		c4.201-2.625,6.336-4.095,6.336-7.561c0-2.695-2.17-4.48-4.795-4.48c-3.465,0-4.936,3.186-4.831,6.161H884.484z"/>
	<path d="M914.866,474.989h-2.976v-17.782h-6.44v-2.38c3.395,0,6.476-0.875,7.141-4.655h2.275V474.989z"/>
	<path d="M934.325,474.989h-2.975v-17.782h-6.441v-2.38c3.396,0,6.476-0.875,7.142-4.655h2.274V474.989z"/>
	<path d="M944.229,471.104h3.886v3.886h-3.886V471.104z"/>
	<path d="M963.516,474.989h-2.975v-17.782H954.1v-2.38c3.396,0,6.477-0.875,7.142-4.655h2.274V474.989z"/>
	<path d="M980.246,450.172c7.771,0,8.261,7.176,8.261,12.636c0,5.461-0.49,12.602-8.261,12.602c-7.771,0-8.262-7.141-8.262-12.602
		C971.984,457.348,972.475,450.172,980.246,450.172z M980.246,472.784c5.075,0,5.11-6.301,5.11-10.011
		c0-3.676-0.035-9.977-5.11-9.977c-5.076,0-5.111,6.301-5.111,9.977C975.135,466.483,975.17,472.784,980.246,472.784z"/>
	<path d="M999.706,450.172c7.771,0,8.261,7.176,8.261,12.636c0,5.461-0.49,12.602-8.261,12.602c-7.771,0-8.262-7.141-8.262-12.602
		C991.444,457.348,991.935,450.172,999.706,450.172z M999.706,472.784c5.075,0,5.11-6.301,5.11-10.011
		c0-3.676-0.035-9.977-5.11-9.977c-5.076,0-5.111,6.301-5.111,9.977C994.595,466.483,994.63,472.784,999.706,472.784z"/>
	<path d="M1016.226,460.777h-3.886v-3.885h3.886V460.777z M1012.34,471.104h3.886v3.886h-3.886V471.104z"/>
	<path d="M1054.203,474.989h-3.465l-5.706-21.002h-0.07l-5.775,21.002h-3.465l-6.406-24.992h3.396l4.9,20.792h0.07l5.601-20.792
		h3.605l5.53,20.792h0.07l5.075-20.792h3.325L1054.203,474.989z"/>
	<path d="M1063.44,456.893h2.801v3.815h0.07c1.435-2.94,3.43-4.341,6.65-4.235v3.15c-4.796,0-6.546,2.695-6.546,7.315v8.051h-2.976
		V456.893z"/>
	<path d="M1078.351,453.637h-2.976v-3.64h2.976V453.637z M1075.375,456.893h2.976v18.097h-2.976V456.893z"/>
	<path d="M1087.101,456.893h3.604v2.625h-3.604v11.236c0,1.4,0.385,1.61,2.24,1.61h1.364v2.625h-2.274
		c-3.081,0-4.306-0.63-4.306-3.955v-11.517h-3.08v-2.625h3.08v-5.426h2.976V456.893z"/>
	<path d="M1098.125,456.893h3.604v2.625h-3.604v11.236c0,1.4,0.385,1.61,2.24,1.61h1.364v2.625h-2.274
		c-3.081,0-4.306-0.63-4.306-3.955v-11.517h-3.08v-2.625h3.08v-5.426h2.976V456.893z"/>
	<path d="M1120.455,469.249c-0.805,4.025-3.641,6.16-7.735,6.16c-5.776,0-8.506-4.025-8.682-9.521c0-5.461,3.57-9.416,8.506-9.416
		c6.406,0,8.366,5.985,8.191,10.36h-13.547c-0.104,3.15,1.681,5.951,5.636,5.951c2.485,0,4.166-1.155,4.69-3.535H1120.455z
		 M1117.585,464.208c-0.175-2.835-2.24-5.11-5.216-5.11c-3.08,0-5.005,2.311-5.181,5.11H1117.585z"/>
	<path d="M1123.813,456.893h2.8v2.87h0.07c1.261-2.24,3.256-3.29,5.881-3.29c4.761,0,6.23,2.729,6.23,6.615v11.901h-2.976v-12.251
		c0-2.24-1.399-3.641-3.675-3.641c-3.605,0-5.355,2.415-5.355,5.671v10.221h-2.976V456.893z"/>
	<path d="M760.345,498.893h2.975v2.45h0.07c0.98-1.995,3.255-2.87,5.775-2.87c5.566,0,8.331,4.41,8.331,9.521
		c0,5.146-2.73,9.416-8.261,9.416c-1.82,0-4.551-0.7-5.846-2.835h-0.07v9.346h-2.975V498.893z M768.746,501.098
		c-4.025,0-5.531,3.465-5.531,6.825c0,3.536,1.61,6.861,5.706,6.861c4.061,0,5.426-3.466,5.426-7.001
		C774.347,504.388,772.597,501.098,768.746,501.098z"/>
	<path d="M780.89,498.893h2.8v3.815h0.07c1.436-2.94,3.431-4.341,6.651-4.235v3.15c-4.795,0-6.546,2.695-6.546,7.315v8.051h-2.975
		V498.893z"/>
	<path d="M800.455,498.473c5.741,0,8.786,4.165,8.786,9.485c0,5.286-3.045,9.451-8.786,9.451c-5.74,0-8.786-4.165-8.786-9.451
		C791.669,502.638,794.715,498.473,800.455,498.473z M800.455,514.784c3.115,0,5.636-2.45,5.636-6.826
		c0-4.375-2.521-6.86-5.636-6.86s-5.635,2.485-5.635,6.86C794.82,512.334,797.34,514.784,800.455,514.784z"/>
	<path d="M825.025,504.703c-0.455-2.275-1.995-3.605-4.48-3.605c-4.305,0-5.635,3.431-5.635,7.07c0,3.36,1.505,6.616,5.285,6.616
		c2.906,0,4.585-1.646,4.971-4.41h3.045c-0.665,4.445-3.396,7.035-7.981,7.035c-5.531,0-8.471-3.815-8.471-9.241
		c0-5.425,2.8-9.695,8.541-9.695c4.131,0,7.351,1.925,7.806,6.23H825.025z"/>
	<path d="M846.97,511.249c-0.805,4.025-3.64,6.16-7.736,6.16c-5.775,0-8.506-4.025-8.681-9.521c0-5.461,3.57-9.416,8.506-9.416
		c6.406,0,8.366,5.985,8.191,10.36h-13.546c-0.105,3.15,1.68,5.951,5.635,5.951c2.485,0,4.166-1.155,4.69-3.535H846.97z
		 M844.1,506.208c-0.175-2.835-2.24-5.11-5.216-5.11c-3.08,0-5.005,2.311-5.18,5.11H844.1z"/>
	<path d="M866.5,516.989h-2.976v-2.45h-0.07c-0.98,1.995-3.255,2.87-5.776,2.87c-5.565,0-8.331-4.41-8.331-9.521
		c0-5.111,2.73-9.416,8.261-9.416c1.82,0,4.55,0.7,5.846,2.835h0.07v-9.311h2.976V516.989z M858.099,514.784
		c4.025,0,5.53-3.466,5.53-6.826c0-3.535-1.61-6.86-5.706-6.86c-4.061,0-5.425,3.465-5.425,7.001
		C852.499,511.494,854.249,514.784,858.099,514.784z"/>
	<path d="M886.064,516.989h-2.8v-2.87h-0.07c-1.26,2.24-3.255,3.29-5.881,3.29c-4.76,0-6.23-2.73-6.23-6.615v-11.901h2.975v12.251
		c0,2.24,1.4,3.641,3.676,3.641c3.605,0,5.355-2.415,5.355-5.671v-10.221h2.975V516.989z"/>
	<path d="M890.438,498.893h2.8v3.815h0.07c1.436-2.94,3.431-4.341,6.651-4.235v3.15c-4.795,0-6.546,2.695-6.546,7.315v8.051h-2.975
		V498.893z"/>
	<path d="M917.634,511.249c-0.805,4.025-3.64,6.16-7.736,6.16c-5.775,0-8.506-4.025-8.681-9.521c0-5.461,3.57-9.416,8.506-9.416
		c6.406,0,8.366,5.985,8.191,10.36h-13.546c-0.105,3.15,1.68,5.951,5.635,5.951c2.485,0,4.166-1.155,4.69-3.535H917.634z
		 M914.764,506.208c-0.175-2.835-2.24-5.11-5.216-5.11c-3.08,0-5.005,2.311-5.18,5.11H914.764z"/>
	<path d="M922.812,511.283c0.105,2.661,2.45,3.501,4.866,3.501c1.854,0,4.375-0.42,4.375-2.695c0-4.655-11.831-1.505-11.831-8.471
		c0-3.641,3.57-5.146,6.756-5.146c4.061,0,7.141,1.26,7.421,5.67h-2.976c-0.175-2.31-2.275-3.045-4.2-3.045
		c-1.785,0-3.851,0.49-3.851,2.311c0,2.1,3.15,2.52,5.915,3.15c2.976,0.665,5.916,1.68,5.916,5.146c0,4.34-4.025,5.705-7.701,5.705
		c-4.06,0-7.49-1.646-7.665-6.126H922.812z"/>
	<path d="M943.043,502.777h-3.886v-3.885h3.886V502.777z M939.157,513.104h3.886v3.536c0.035,2.66-1.155,4.69-3.851,5.495v-1.75
		c1.54-0.561,2.135-2.24,2.03-3.396h-2.065V513.104z"/>
	<path d="M974.125,516.989h-2.976v-2.45h-0.07c-0.979,1.995-3.255,2.87-5.775,2.87c-5.565,0-8.331-4.41-8.331-9.521
		c0-5.111,2.73-9.416,8.262-9.416c1.819,0,4.55,0.7,5.845,2.835h0.07v-9.311h2.976V516.989z M965.724,514.784
		c4.025,0,5.531-3.466,5.531-6.826c0-3.535-1.61-6.86-5.706-6.86c-4.061,0-5.426,3.465-5.426,7.001
		C960.123,511.494,961.873,514.784,965.724,514.784z"/>
	<path d="M994.145,511.249c-0.805,4.025-3.641,6.16-7.735,6.16c-5.776,0-8.506-4.025-8.682-9.521c0-5.461,3.57-9.416,8.506-9.416
		c6.406,0,8.366,5.985,8.191,10.36h-13.547c-0.104,3.15,1.681,5.951,5.636,5.951c2.485,0,4.166-1.155,4.69-3.535H994.145z
		 M991.274,506.208c-0.175-2.835-2.24-5.11-5.216-5.11c-3.08,0-5.005,2.311-5.181,5.11H991.274z"/>
	<path d="M1005.659,516.989h-3.186l-6.721-18.097h3.325l5.075,15.086h0.07l4.936-15.086h3.115L1005.659,516.989z"/>
	<path d="M1018.153,495.637h-2.976v-3.64h2.976V495.637z M1015.178,498.893h2.976v18.097h-2.976V498.893z"/>
	<path d="M1038.804,516.919c-0.524,0.315-1.26,0.49-2.135,0.49c-1.54,0-2.521-0.84-2.521-2.8c-1.645,1.96-3.851,2.8-6.37,2.8
		c-3.291,0-5.986-1.435-5.986-5.075c0-4.096,3.046-5.006,6.126-5.565c3.256-0.665,6.091-0.386,6.091-2.661
		c0-2.625-2.17-3.01-4.025-3.01c-2.521,0-4.376,0.77-4.516,3.431h-2.976c0.175-4.48,3.605-6.056,7.666-6.056
		c3.256,0,6.791,0.734,6.791,4.97v9.312c0,1.4,0,2.03,0.945,2.03c0.279,0,0.595-0.07,0.909-0.175V516.919z M1033.974,507.644
		c-2.311,1.715-9.031,0.035-9.031,4.48c0,1.96,1.681,2.66,3.501,2.66c3.92,0,5.53-2.415,5.53-4.096V507.644z"/>
	<path d="M1045.698,498.893h3.604v2.625h-3.604v11.236c0,1.4,0.385,1.61,2.24,1.61h1.364v2.625h-2.274
		c-3.081,0-4.306-0.63-4.306-3.955v-11.517h-3.08v-2.625h3.08v-5.426h2.976V498.893z"/>
	<path d="M1055.742,495.637h-2.976v-3.64h2.976V495.637z M1052.767,498.893h2.976v18.097h-2.976V498.893z"/>
	<path d="M1068.167,498.473c5.741,0,8.786,4.165,8.786,9.485c0,5.286-3.045,9.451-8.786,9.451c-5.74,0-8.786-4.165-8.786-9.451
		C1059.381,502.638,1062.427,498.473,1068.167,498.473z M1068.167,514.784c3.115,0,5.636-2.45,5.636-6.826
		c0-4.375-2.521-6.86-5.636-6.86s-5.636,2.485-5.636,6.86C1062.531,512.334,1065.052,514.784,1068.167,514.784z"/>
	<path d="M1080.451,498.893h2.801v2.87h0.069c1.261-2.24,3.256-3.29,5.881-3.29c4.761,0,6.23,2.729,6.23,6.615v11.901h-2.976
		v-12.251c0-2.24-1.399-3.641-3.675-3.641c-3.605,0-5.355,2.415-5.355,5.671v10.221h-2.976V498.893z"/>
	<path d="M1101.731,511.283c0.104,2.661,2.45,3.501,4.865,3.501c1.855,0,4.376-0.42,4.376-2.695c0-4.655-11.832-1.505-11.832-8.471
		c0-3.641,3.57-5.146,6.756-5.146c4.061,0,7.141,1.26,7.421,5.67h-2.976c-0.175-2.31-2.274-3.045-4.2-3.045
		c-1.785,0-3.851,0.49-3.851,2.311c0,2.1,3.15,2.52,5.916,3.15c2.976,0.665,5.916,1.68,5.916,5.146c0,4.34-4.025,5.705-7.701,5.705
		c-4.061,0-7.491-1.646-7.666-6.126H1101.731z"/>
</g>
<g>
	<path d="M730.73,574.997h17.257v2.8h-13.932v7.946h12.986v2.8h-12.986v8.646h14.037v2.8H730.73V574.997z"/>
	<path d="M751.625,581.893h2.8v2.87h0.07c1.26-2.24,3.255-3.29,5.881-3.29c4.76,0,6.23,2.729,6.23,6.615v11.901h-2.975v-12.251
		c0-2.24-1.4-3.641-3.675-3.641c-3.605,0-5.356,2.415-5.356,5.671v10.221h-2.975V581.893z"/>
	<path d="M772.905,594.283c0.105,2.661,2.45,3.501,4.865,3.501c1.855,0,4.375-0.42,4.375-2.695c0-4.655-11.831-1.505-11.831-8.471
		c0-3.641,3.57-5.146,6.756-5.146c4.06,0,7.141,1.26,7.42,5.67h-2.975c-0.175-2.31-2.275-3.045-4.201-3.045
		c-1.785,0-3.85,0.49-3.85,2.311c0,2.1,3.15,2.52,5.916,3.15c2.975,0.665,5.916,1.68,5.916,5.146c0,4.34-4.025,5.705-7.701,5.705
		c-4.061,0-7.491-1.646-7.666-6.126H772.905z"/>
	<path d="M803.566,599.989h-2.8v-2.87h-0.07c-1.26,2.24-3.255,3.29-5.881,3.29c-4.76,0-6.23-2.73-6.23-6.615v-11.901h2.975v12.251
		c0,2.24,1.4,3.641,3.676,3.641c3.605,0,5.355-2.415,5.355-5.671v-10.221h2.975V599.989z"/>
	<path d="M807.94,581.893h2.8v3.815h0.07c1.435-2.94,3.431-4.341,6.651-4.235v3.15c-4.795,0-6.546,2.695-6.546,7.315v8.051h-2.975
		V581.893z"/>
	<path d="M835.136,594.249c-0.805,4.025-3.64,6.16-7.736,6.16c-5.775,0-8.506-4.025-8.681-9.521c0-5.461,3.57-9.416,8.506-9.416
		c6.406,0,8.366,5.985,8.191,10.36H821.87c-0.105,3.15,1.68,5.951,5.635,5.951c2.485,0,4.166-1.155,4.69-3.535H835.136z
		 M832.266,589.208c-0.175-2.835-2.24-5.11-5.216-5.11c-3.08,0-5.005,2.311-5.18,5.11H832.266z"/>
	<path d="M852.354,581.893h3.605v2.625h-3.605v11.236c0,1.4,0.385,1.61,2.24,1.61h1.365v2.625h-2.275
		c-3.08,0-4.305-0.63-4.305-3.955v-11.517h-3.081v-2.625h3.081v-5.426h2.975V581.893z"/>
	<path d="M859.249,574.997h2.975v9.556h0.07c0.945-2.205,3.57-3.08,5.706-3.08c4.76,0,6.23,2.729,6.23,6.615v11.901h-2.975v-12.251
		c0-2.24-1.4-3.641-3.675-3.641c-3.605,0-5.356,2.415-5.356,5.671v10.221h-2.975V574.997z"/>
	<path d="M894.74,599.919c-0.525,0.315-1.26,0.49-2.135,0.49c-1.54,0-2.521-0.84-2.521-2.8c-1.645,1.96-3.85,2.8-6.371,2.8
		c-3.29,0-5.985-1.435-5.985-5.075c0-4.096,3.045-5.006,6.125-5.565c3.255-0.665,6.091-0.386,6.091-2.661
		c0-2.625-2.17-3.01-4.025-3.01c-2.521,0-4.375,0.77-4.516,3.431h-2.975c0.175-4.48,3.605-6.056,7.666-6.056
		c3.255,0,6.791,0.734,6.791,4.97v9.312c0,1.4,0,2.03,0.945,2.03c0.28,0,0.595-0.07,0.91-0.175V599.919z M889.91,590.644
		c-2.31,1.715-9.031,0.035-9.031,4.48c0,1.96,1.68,2.66,3.5,2.66c3.92,0,5.531-2.415,5.531-4.096V590.644z"/>
	<path d="M901.633,581.893h3.605v2.625h-3.605v11.236c0,1.4,0.385,1.61,2.24,1.61h1.365v2.625h-2.275
		c-3.08,0-4.305-0.63-4.305-3.955v-11.517h-3.081v-2.625h3.081v-5.426h2.975V581.893z"/>
	<path d="M939.119,602.159l-3.815-3.08c-1.68,1.016-3.675,1.505-5.985,1.505c-7.945,0-11.971-6.266-11.971-13.091
		c0-6.826,4.026-13.092,11.971-13.092c7.946,0,11.972,6.266,11.972,13.092c0,3.815-1.261,7.456-3.78,9.94l3.29,2.626
		L939.119,602.159z M931.769,592.849l3.325,2.66c1.961-1.96,2.871-4.971,2.871-8.016c0-5.041-2.556-10.291-8.646-10.291
		s-8.646,5.25-8.646,10.291c0,5.04,2.555,10.291,8.646,10.291c1.226,0,2.381-0.245,3.466-0.7l-2.766-2.205L931.769,592.849z"/>
	<path d="M945.418,574.997h4.55l7.876,21.002l7.911-21.002h4.55v24.992h-3.15v-20.792h-0.069l-7.806,20.792h-2.836l-7.806-20.792
		h-0.07v20.792h-3.149V574.997z"/>
	<path d="M990.288,582.312c-0.385-3.605-2.73-5.11-6.195-5.11c-2.835,0-5.601,1.015-5.601,4.271c0,6.16,15.997,1.82,15.997,11.656
		c0,5.32-5.216,7.455-9.767,7.455c-5.601,0-10.326-2.765-10.326-8.82h3.15c0,4.2,3.501,6.021,7.281,6.021
		c3.01,0,6.335-0.945,6.335-4.551c0-6.86-15.996-2.345-15.996-11.516c0-5.041,4.48-7.316,9.065-7.316
		c5.111,0,9.031,2.415,9.206,7.911H990.288z"/>
	<path d="M1007.857,581.893h2.975v2.45h0.07c0.98-1.995,3.255-2.87,5.775-2.87c5.565,0,8.331,4.41,8.331,9.521
		c0,5.146-2.73,9.416-8.261,9.416c-1.82,0-4.551-0.7-5.846-2.835h-0.07v9.346h-2.975V581.893z M1016.258,584.098
		c-4.025,0-5.53,3.465-5.53,6.825c0,3.536,1.61,6.861,5.705,6.861c4.061,0,5.426-3.466,5.426-7.001
		C1021.858,587.388,1020.108,584.098,1016.258,584.098z"/>
	<path d="M1028.401,581.893h2.801v3.815h0.07c1.435-2.94,3.43-4.341,6.65-4.235v3.15c-4.796,0-6.546,2.695-6.546,7.315v8.051h-2.976
		V581.893z"/>
	<path d="M1047.967,581.473c5.741,0,8.786,4.165,8.786,9.485c0,5.286-3.045,9.451-8.786,9.451c-5.74,0-8.786-4.165-8.786-9.451
		C1039.181,585.638,1042.227,581.473,1047.967,581.473z M1047.967,597.784c3.115,0,5.636-2.45,5.636-6.826
		c0-4.375-2.521-6.86-5.636-6.86s-5.636,2.485-5.636,6.86C1042.331,595.334,1044.852,597.784,1047.967,597.784z"/>
	<path d="M1072.537,587.703c-0.455-2.275-1.995-3.605-4.48-3.605c-4.306,0-5.636,3.431-5.636,7.07c0,3.36,1.506,6.616,5.286,6.616
		c2.905,0,4.585-1.646,4.971-4.41h3.045c-0.665,4.445-3.396,7.035-7.98,7.035c-5.531,0-8.472-3.815-8.472-9.241
		c0-5.425,2.801-9.695,8.541-9.695c4.131,0,7.351,1.925,7.806,6.23H1072.537z"/>
	<path d="M1094.482,594.249c-0.805,4.025-3.641,6.16-7.735,6.16c-5.776,0-8.506-4.025-8.682-9.521c0-5.461,3.57-9.416,8.506-9.416
		c6.406,0,8.366,5.985,8.191,10.36h-13.547c-0.104,3.15,1.681,5.951,5.636,5.951c2.485,0,4.166-1.155,4.69-3.535H1094.482z
		 M1091.612,589.208c-0.175-2.835-2.24-5.11-5.216-5.11c-3.08,0-5.005,2.311-5.181,5.11H1091.612z"/>
	<path d="M1114.013,599.989h-2.976v-2.45h-0.07c-0.979,1.995-3.255,2.87-5.775,2.87c-5.565,0-8.331-4.41-8.331-9.521
		c0-5.111,2.73-9.416,8.261-9.416c1.82,0,4.551,0.7,5.846,2.835h0.07v-9.311h2.976V599.989z M1105.611,597.784
		c4.025,0,5.531-3.466,5.531-6.826c0-3.535-1.61-6.86-5.706-6.86c-4.061,0-5.426,3.465-5.426,7.001
		C1100.011,594.494,1101.762,597.784,1105.611,597.784z"/>
	<path d="M1133.577,599.989h-2.8v-2.87h-0.07c-1.26,2.24-3.256,3.29-5.881,3.29c-4.761,0-6.23-2.73-6.23-6.615v-11.901h2.976v12.251
		c0,2.24,1.399,3.641,3.675,3.641c3.605,0,5.355-2.415,5.355-5.671v-10.221h2.976V599.989z"/>
	<path d="M1137.95,581.893h2.801v3.815h0.07c1.435-2.94,3.43-4.341,6.65-4.235v3.15c-4.796,0-6.546,2.695-6.546,7.315v8.051h-2.976
		V581.893z"/>
	<path d="M1165.146,594.249c-0.805,4.025-3.641,6.16-7.735,6.16c-5.776,0-8.506-4.025-8.682-9.521c0-5.461,3.57-9.416,8.506-9.416
		c6.406,0,8.366,5.985,8.191,10.36h-13.547c-0.104,3.15,1.681,5.951,5.636,5.951c2.485,0,4.166-1.155,4.69-3.535H1165.146z
		 M1162.276,589.208c-0.175-2.835-2.24-5.11-5.216-5.11c-3.08,0-5.005,2.311-5.181,5.11H1162.276z"/>
	<path d="M1170.325,594.283c0.104,2.661,2.45,3.501,4.865,3.501c1.855,0,4.376-0.42,4.376-2.695c0-4.655-11.832-1.505-11.832-8.471
		c0-3.641,3.57-5.146,6.756-5.146c4.061,0,7.141,1.26,7.421,5.67h-2.976c-0.175-2.31-2.274-3.045-4.2-3.045
		c-1.785,0-3.851,0.49-3.851,2.311c0,2.1,3.15,2.52,5.916,3.15c2.976,0.665,5.916,1.68,5.916,5.146c0,4.34-4.025,5.705-7.701,5.705
		c-4.061,0-7.491-1.646-7.666-6.126H1170.325z"/>
	<path d="M746.272,641.919c-0.525,0.315-1.26,0.49-2.135,0.49c-1.54,0-2.521-0.84-2.521-2.8c-1.645,1.96-3.85,2.8-6.371,2.8
		c-3.29,0-5.985-1.435-5.985-5.075c0-4.096,3.045-5.006,6.125-5.565c3.255-0.665,6.091-0.386,6.091-2.661
		c0-2.625-2.17-3.01-4.025-3.01c-2.521,0-4.375,0.77-4.516,3.431h-2.976c0.175-4.48,3.605-6.056,7.666-6.056
		c3.255,0,6.791,0.734,6.791,4.97v9.312c0,1.4,0,2.03,0.945,2.03c0.28,0,0.595-0.07,0.91-0.175V641.919z M741.441,632.644
		c-2.31,1.715-9.031,0.035-9.031,4.48c0,1.96,1.68,2.66,3.5,2.66c3.92,0,5.531-2.415,5.531-4.096V632.644z"/>
	<path d="M748.93,623.893h2.8v3.815h0.07c1.436-2.94,3.431-4.341,6.651-4.235v3.15c-4.795,0-6.546,2.695-6.546,7.315v8.051h-2.975
		V623.893z"/>
	<path d="M776.126,636.249c-0.805,4.025-3.64,6.16-7.736,6.16c-5.775,0-8.506-4.025-8.681-9.521c0-5.461,3.57-9.416,8.506-9.416
		c6.406,0,8.366,5.985,8.191,10.36H762.86c-0.105,3.15,1.68,5.951,5.635,5.951c2.485,0,4.166-1.155,4.69-3.535H776.126z
		 M773.256,631.208c-0.175-2.835-2.24-5.11-5.216-5.11c-3.08,0-5.005,2.311-5.18,5.11H773.256z"/>
	<path d="M789.319,616.997h2.975v9.346h0.07c0.98-1.995,3.255-2.87,5.775-2.87c5.566,0,8.331,4.41,8.331,9.521
		c0,5.146-2.73,9.416-8.261,9.416c-1.82,0-4.551-0.7-5.846-2.835h-0.07v2.415h-2.975V616.997z M797.72,626.098
		c-4.025,0-5.531,3.465-5.531,6.825c0,3.536,1.61,6.861,5.706,6.861c4.061,0,5.426-3.466,5.426-7.001
		C803.32,629.388,801.57,626.098,797.72,626.098z"/>
	<path d="M825.405,636.249c-0.805,4.025-3.64,6.16-7.736,6.16c-5.775,0-8.506-4.025-8.681-9.521c0-5.461,3.57-9.416,8.506-9.416
		c6.406,0,8.366,5.985,8.191,10.36h-13.546c-0.105,3.15,1.68,5.951,5.635,5.951c2.485,0,4.166-1.155,4.69-3.535H825.405z
		 M822.535,631.208c-0.175-2.835-2.24-5.11-5.216-5.11c-3.08,0-5.005,2.311-5.18,5.11H822.535z"/>
	<path d="M831.913,620.637h-2.976v-3.64h2.976V620.637z M828.938,623.893h2.976v18.097h-2.976V623.893z"/>
	<path d="M836.532,623.893h2.8v2.87h0.07c1.26-2.24,3.255-3.29,5.881-3.29c4.76,0,6.23,2.729,6.23,6.615v11.901h-2.975v-12.251
		c0-2.24-1.4-3.641-3.675-3.641c-3.605,0-5.356,2.415-5.356,5.671v10.221h-2.975V623.893z"/>
	<path d="M871.604,640.449c0,5.915-2.661,8.891-8.401,8.891c-3.396,0-7.316-1.4-7.491-5.32h2.976c0.105,2.135,2.765,2.94,4.69,2.94
		c3.885,0,5.426-2.801,5.426-6.861v-1.189h-0.07c-1.015,2.205-3.325,3.29-5.635,3.29c-5.391,0-8.086-4.235-8.086-9.171
		c0-4.271,2.065-9.556,8.366-9.556c2.275,0,4.306,1.015,5.391,3.01h0.035v-2.59h2.8V640.449z M868.664,632.573
		c0-3.186-1.4-6.476-5.146-6.476c-3.815,0-5.355,3.115-5.355,6.581c0,3.255,1.19,6.896,5.11,6.896S868.664,635.969,868.664,632.573z
		"/>
	<path d="M887.037,626.518h-3.045v-2.625h3.045v-2.695c0-2.94,1.75-4.48,5.005-4.48c0.56,0,1.365,0.104,1.925,0.28v2.59
		c-0.525-0.175-1.155-0.245-1.68-0.245c-1.435,0-2.275,0.455-2.275,2.03v2.521h3.5v2.625h-3.5v15.472h-2.976V626.518z"/>
	<path d="M903.978,623.473c5.741,0,8.786,4.165,8.786,9.485c0,5.286-3.045,9.451-8.786,9.451c-5.74,0-8.786-4.165-8.786-9.451
		C895.192,627.638,898.237,623.473,903.978,623.473z M903.978,639.784c3.115,0,5.636-2.45,5.636-6.826
		c0-4.375-2.521-6.86-5.636-6.86s-5.635,2.485-5.635,6.86C898.342,637.334,900.862,639.784,903.978,639.784z"/>
	<path d="M916.437,616.997h2.976v24.992h-2.976V616.997z"/>
	<path d="M924.206,616.997h2.976v24.992h-2.976V616.997z"/>
	<path d="M939.606,623.473c5.741,0,8.786,4.165,8.786,9.485c0,5.286-3.045,9.451-8.786,9.451c-5.74,0-8.786-4.165-8.786-9.451
		C930.82,627.638,933.866,623.473,939.606,623.473z M939.606,639.784c3.115,0,5.636-2.45,5.636-6.826c0-4.375-2.521-6.86-5.636-6.86
		s-5.636,2.485-5.636,6.86C933.971,637.334,936.491,639.784,939.606,639.784z"/>
	<path d="M969.812,641.989h-3.15l-3.676-14.387h-0.069l-3.641,14.387h-3.221l-5.811-18.097h3.291l4.095,14.807h0.07l3.641-14.807
		h3.255l3.78,14.807h0.07l4.061-14.807h3.08L969.812,641.989z"/>
	<path d="M993.857,636.249c-0.805,4.025-3.641,6.16-7.735,6.16c-5.776,0-8.506-4.025-8.682-9.521c0-5.461,3.57-9.416,8.506-9.416
		c6.406,0,8.366,5.985,8.191,10.36h-13.547c-0.104,3.15,1.681,5.951,5.636,5.951c2.485,0,4.166-1.155,4.69-3.535H993.857z
		 M990.987,631.208c-0.175-2.835-2.24-5.11-5.216-5.11c-3.08,0-5.005,2.311-5.181,5.11H990.987z"/>
	<path d="M1013.388,641.989h-2.976v-2.45h-0.07c-0.979,1.995-3.255,2.87-5.775,2.87c-5.565,0-8.331-4.41-8.331-9.521
		c0-5.111,2.73-9.416,8.261-9.416c1.82,0,4.551,0.7,5.846,2.835h0.07v-9.311h2.976V641.989z M1004.986,639.784
		c4.025,0,5.531-3.466,5.531-6.826c0-3.535-1.61-6.86-5.706-6.86c-4.061,0-5.426,3.465-5.426,7.001
		C999.386,636.494,1001.137,639.784,1004.986,639.784z"/>
</g>
<path fill="#89BE46" d="M705.301,741.104c0,17.674-14.327,32-32,32c-17.673,0-32-14.326-32-32c0-17.673,14.327-32,32-32
	C690.974,709.104,705.301,723.431,705.301,741.104"/>
<g>
	<path fill="#FFFFFF" d="M672.801,740.875c1.83,0.15,4.47-0.21,4.47-2.609c0-1.8-1.41-2.79-2.97-2.79c-2.16,0-3.27,1.59-3.24,3.75
		h-4.05c0.15-4.32,2.91-7.26,7.26-7.26c3.36,0,7.05,2.069,7.05,5.819c0,2.01-0.99,3.72-2.94,4.29v0.06
		c2.31,0.511,3.72,2.4,3.72,4.771c0,4.409-3.72,6.899-7.799,6.899c-4.71,0-7.89-2.82-7.8-7.649h4.05c0.09,2.279,1.23,4.14,3.69,4.14
		c1.92,0,3.42-1.29,3.42-3.3c0-3.18-2.79-3.12-4.86-3.12V740.875z"/>
</g>
<g>
	<path d="M730.73,709.997h8.576c7.701,0,12.006,3.885,12.006,11.9c0,8.366-3.675,13.092-12.006,13.092h-8.576V709.997z
		 M734.056,732.189h5.531c2.275,0,8.401-0.631,8.401-9.837c0-5.95-2.206-9.556-8.331-9.556h-5.601V732.189z"/>
	<path d="M770.316,729.249c-0.805,4.025-3.64,6.16-7.736,6.16c-5.775,0-8.506-4.025-8.681-9.521c0-5.461,3.57-9.416,8.506-9.416
		c6.406,0,8.366,5.985,8.191,10.36H757.05c-0.105,3.15,1.68,5.951,5.635,5.951c2.485,0,4.166-1.155,4.69-3.535H770.316z
		 M767.446,724.208c-0.175-2.835-2.24-5.11-5.216-5.11c-3.08,0-5.005,2.311-5.18,5.11H767.446z"/>
	<path d="M777.805,716.893h3.605v2.625h-3.605v11.236c0,1.4,0.385,1.61,2.24,1.61h1.365v2.625h-2.275
		c-3.08,0-4.305-0.63-4.305-3.955v-11.517h-3.081v-2.625h3.081v-5.426h2.975V716.893z"/>
	<path d="M800.135,729.249c-0.805,4.025-3.64,6.16-7.736,6.16c-5.775,0-8.506-4.025-8.681-9.521c0-5.461,3.57-9.416,8.506-9.416
		c6.406,0,8.366,5.985,8.191,10.36h-13.546c-0.105,3.15,1.68,5.951,5.635,5.951c2.485,0,4.166-1.155,4.69-3.535H800.135z
		 M797.265,724.208c-0.175-2.835-2.24-5.11-5.216-5.11c-3.08,0-5.005,2.311-5.18,5.11H797.265z"/>
	<path d="M803.388,716.893h2.8v3.815h0.07c1.435-2.94,3.431-4.341,6.651-4.235v3.15c-4.795,0-6.546,2.695-6.546,7.315v8.051h-2.975
		V716.893z"/>
	<path d="M815.148,716.893h2.8v2.66h0.07c1.365-2.065,3.291-3.08,5.846-3.08c2.24,0,4.235,0.84,4.971,3.08
		c1.225-1.96,3.325-3.08,5.67-3.08c3.605,0,6.021,1.505,6.021,5.25v13.267h-2.975v-11.866c0-2.24-0.595-4.025-3.5-4.025
		s-4.726,1.82-4.726,4.62v11.271h-2.975v-11.866c0-2.346-0.735-4.025-3.396-4.025c-3.5,0-4.831,3.221-4.831,4.62v11.271h-2.975
		V716.893z"/>
	<path d="M848.153,713.637h-2.976v-3.64h2.976V713.637z M845.178,716.893h2.976v18.097h-2.976V716.893z"/>
	<path d="M852.772,716.893h2.8v2.87h0.07c1.26-2.24,3.255-3.29,5.881-3.29c4.76,0,6.23,2.729,6.23,6.615v11.901h-2.975v-12.251
		c0-2.24-1.4-3.641-3.675-3.641c-3.605,0-5.356,2.415-5.356,5.671v10.221h-2.975V716.893z"/>
	<path d="M887.669,729.249c-0.805,4.025-3.64,6.16-7.736,6.16c-5.775,0-8.506-4.025-8.681-9.521c0-5.461,3.57-9.416,8.506-9.416
		c6.406,0,8.366,5.985,8.191,10.36h-13.546c-0.105,3.15,1.68,5.951,5.635,5.951c2.485,0,4.166-1.155,4.69-3.535H887.669z
		 M884.799,724.208c-0.175-2.835-2.24-5.11-5.216-5.11c-3.08,0-5.005,2.311-5.18,5.11H884.799z"/>
	<path d="M900.652,716.893h2.8v3.815h0.07c1.435-2.94,3.431-4.341,6.651-4.235v3.15c-4.795,0-6.546,2.695-6.546,7.315v8.051h-2.975
		V716.893z"/>
	<path d="M920.218,716.473c5.74,0,8.785,4.165,8.785,9.485c0,5.286-3.045,9.451-8.785,9.451c-5.741,0-8.786-4.165-8.786-9.451
		C911.432,720.638,914.477,716.473,920.218,716.473z M920.218,732.784c3.115,0,5.636-2.45,5.636-6.826
		c0-4.375-2.521-6.86-5.636-6.86c-3.116,0-5.636,2.485-5.636,6.86C914.582,730.334,917.102,732.784,920.218,732.784z"/>
	<path d="M940.307,716.473c5.741,0,8.786,4.165,8.786,9.485c0,5.286-3.045,9.451-8.786,9.451c-5.74,0-8.786-4.165-8.786-9.451
		C931.521,720.638,934.566,716.473,940.307,716.473z M940.307,732.784c3.115,0,5.636-2.45,5.636-6.826
		c0-4.375-2.521-6.86-5.636-6.86s-5.636,2.485-5.636,6.86C934.671,730.334,937.191,732.784,940.307,732.784z"/>
	<path d="M956.722,716.893h3.604v2.625h-3.604v11.236c0,1.4,0.385,1.61,2.24,1.61h1.364v2.625h-2.274
		c-3.081,0-4.306-0.63-4.306-3.955v-11.517h-3.08v-2.625h3.08v-5.426h2.976V716.893z"/>
	<path d="M985.632,722.703c-0.455-2.275-1.995-3.605-4.48-3.605c-4.306,0-5.636,3.431-5.636,7.07c0,3.36,1.506,6.616,5.286,6.616
		c2.905,0,4.585-1.646,4.971-4.41h3.045c-0.665,4.445-3.396,7.035-7.98,7.035c-5.531,0-8.472-3.815-8.472-9.241
		c0-5.425,2.801-9.695,8.541-9.695c4.131,0,7.351,1.925,7.806,6.23H985.632z"/>
	<path d="M1008.172,734.919c-0.524,0.315-1.26,0.49-2.135,0.49c-1.54,0-2.521-0.84-2.521-2.8c-1.645,1.96-3.851,2.8-6.37,2.8
		c-3.291,0-5.986-1.435-5.986-5.075c0-4.096,3.046-5.006,6.126-5.565c3.255-0.665,6.091-0.386,6.091-2.661
		c0-2.625-2.17-3.01-4.025-3.01c-2.521,0-4.376,0.77-4.516,3.431h-2.976c0.175-4.48,3.605-6.056,7.666-6.056
		c3.255,0,6.791,0.734,6.791,4.97v9.312c0,1.4,0,2.03,0.944,2.03c0.28,0,0.596-0.07,0.91-0.175V734.919z M1003.342,725.644
		c-2.311,1.715-9.031,0.035-9.031,4.48c0,1.96,1.681,2.66,3.501,2.66c3.92,0,5.53-2.415,5.53-4.096V725.644z"/>
	<path d="M1025.917,734.989h-2.8v-2.87h-0.07c-1.26,2.24-3.256,3.29-5.881,3.29c-4.761,0-6.23-2.73-6.23-6.615v-11.901h2.976v12.251
		c0,2.24,1.399,3.641,3.675,3.641c3.605,0,5.355-2.415,5.355-5.671v-10.221h2.976V734.989z"/>
	<path d="M1032.216,729.283c0.104,2.661,2.45,3.501,4.865,3.501c1.855,0,4.376-0.42,4.376-2.695c0-4.655-11.832-1.505-11.832-8.471
		c0-3.641,3.57-5.146,6.756-5.146c4.061,0,7.141,1.26,7.421,5.67h-2.976c-0.175-2.31-2.274-3.045-4.2-3.045
		c-1.785,0-3.851,0.49-3.851,2.311c0,2.1,3.15,2.52,5.916,3.15c2.976,0.665,5.916,1.68,5.916,5.146c0,4.34-4.025,5.705-7.701,5.705
		c-4.061,0-7.491-1.646-7.666-6.126H1032.216z"/>
	<path d="M1063.332,729.249c-0.805,4.025-3.641,6.16-7.735,6.16c-5.776,0-8.506-4.025-8.682-9.521c0-5.461,3.57-9.416,8.506-9.416
		c6.406,0,8.366,5.985,8.191,10.36h-13.547c-0.104,3.15,1.681,5.951,5.636,5.951c2.485,0,4.166-1.155,4.69-3.535H1063.332z
		 M1060.462,724.208c-0.175-2.835-2.24-5.11-5.216-5.11c-3.08,0-5.005,2.311-5.181,5.11H1060.462z"/>
	<path d="M1092.452,734.919c-0.524,0.315-1.26,0.49-2.135,0.49c-1.54,0-2.521-0.84-2.521-2.8c-1.645,1.96-3.851,2.8-6.37,2.8
		c-3.291,0-5.986-1.435-5.986-5.075c0-4.096,3.046-5.006,6.126-5.565c3.256-0.665,6.091-0.386,6.091-2.661
		c0-2.625-2.17-3.01-4.025-3.01c-2.521,0-4.376,0.77-4.516,3.431h-2.976c0.175-4.48,3.605-6.056,7.666-6.056
		c3.256,0,6.791,0.734,6.791,4.97v9.312c0,1.4,0,2.03,0.945,2.03c0.279,0,0.595-0.07,0.909-0.175V734.919z M1087.622,725.644
		c-2.311,1.715-9.031,0.035-9.031,4.48c0,1.96,1.681,2.66,3.501,2.66c3.92,0,5.53-2.415,5.53-4.096V725.644z"/>
	<path d="M1095.216,716.893h2.8v2.87h0.07c1.261-2.24,3.256-3.29,5.881-3.29c4.761,0,6.23,2.729,6.23,6.615v11.901h-2.976v-12.251
		c0-2.24-1.399-3.641-3.675-3.641c-3.605,0-5.355,2.415-5.355,5.671v10.221h-2.976V716.893z"/>
	<path d="M1130.848,734.989h-2.976v-2.45h-0.07c-0.979,1.995-3.255,2.87-5.775,2.87c-5.565,0-8.331-4.41-8.331-9.521
		c0-5.111,2.73-9.416,8.262-9.416c1.819,0,4.55,0.7,5.845,2.835h0.07v-9.311h2.976V734.989z M1122.446,732.784
		c4.025,0,5.531-3.466,5.531-6.826c0-3.535-1.61-6.86-5.706-6.86c-4.061,0-5.426,3.465-5.426,7.001
		C1116.846,729.494,1118.596,732.784,1122.446,732.784z"/>
	<path d="M733.391,755.637h-2.976v-3.64h2.976V755.637z M730.415,758.893h2.976v18.097h-2.976V758.893z"/>
	<path d="M738.01,758.893h2.8v2.66h0.07c1.365-2.065,3.291-3.08,5.846-3.08c2.24,0,4.235,0.84,4.971,3.08
		c1.225-1.96,3.325-3.08,5.67-3.08c3.605,0,6.021,1.505,6.021,5.25v13.267h-2.975v-11.866c0-2.24-0.595-4.025-3.5-4.025
		s-4.726,1.82-4.726,4.62v11.271h-2.975v-11.866c0-2.346-0.735-4.025-3.396-4.025c-3.5,0-4.831,3.221-4.831,4.62v11.271h-2.975
		V758.893z"/>
	<path d="M767.97,758.893h2.976v2.45h0.07c0.98-1.995,3.255-2.87,5.775-2.87c5.566,0,8.331,4.41,8.331,9.521
		c0,5.146-2.73,9.416-8.261,9.416c-1.82,0-4.551-0.7-5.846-2.835h-0.07v9.346h-2.976V758.893z M776.371,761.098
		c-4.025,0-5.531,3.465-5.531,6.825c0,3.536,1.61,6.861,5.706,6.861c4.06,0,5.425-3.466,5.425-7.001
		C781.971,764.388,780.221,761.098,776.371,761.098z"/>
	<path d="M788.794,751.997h2.976v24.992h-2.976V751.997z"/>
	<path d="M811.825,771.249c-0.805,4.025-3.64,6.16-7.736,6.16c-5.775,0-8.506-4.025-8.681-9.521c0-5.461,3.57-9.416,8.506-9.416
		c6.406,0,8.366,5.985,8.191,10.36h-13.546c-0.105,3.15,1.68,5.951,5.635,5.951c2.485,0,4.166-1.155,4.69-3.535H811.825z
		 M808.955,766.208c-0.175-2.835-2.24-5.11-5.216-5.11c-3.08,0-5.005,2.311-5.18,5.11H808.955z"/>
	<path d="M815.183,758.893h2.8v2.66h0.07c1.365-2.065,3.291-3.08,5.846-3.08c2.24,0,4.235,0.84,4.971,3.08
		c1.225-1.96,3.325-3.08,5.67-3.08c3.605,0,6.021,1.505,6.021,5.25v13.267h-2.975v-11.866c0-2.24-0.595-4.025-3.5-4.025
		s-4.726,1.82-4.726,4.62v11.271h-2.975v-11.866c0-2.346-0.735-4.025-3.396-4.025c-3.5,0-4.831,3.221-4.831,4.62v11.271h-2.975
		V758.893z"/>
	<path d="M860.475,771.249c-0.805,4.025-3.64,6.16-7.736,6.16c-5.775,0-8.506-4.025-8.681-9.521c0-5.461,3.57-9.416,8.506-9.416
		c6.406,0,8.366,5.985,8.191,10.36h-13.546c-0.105,3.15,1.68,5.951,5.635,5.951c2.485,0,4.166-1.155,4.69-3.535H860.475z
		 M857.604,766.208c-0.175-2.835-2.24-5.11-5.216-5.11c-3.08,0-5.005,2.311-5.18,5.11H857.604z"/>
	<path d="M863.833,758.893h2.8v2.87h0.07c1.26-2.24,3.255-3.29,5.881-3.29c4.76,0,6.23,2.729,6.23,6.615v11.901h-2.975v-12.251
		c0-2.24-1.4-3.641-3.675-3.641c-3.605,0-5.356,2.415-5.356,5.671v10.221h-2.975V758.893z"/>
	<path d="M887.423,758.893h3.605v2.625h-3.605v11.236c0,1.4,0.385,1.61,2.24,1.61h1.365v2.625h-2.275
		c-3.08,0-4.305-0.63-4.305-3.955v-11.517h-3.081v-2.625h3.081v-5.426h2.975V758.893z"/>
	<path d="M916.333,764.703c-0.455-2.275-1.995-3.605-4.48-3.605c-4.305,0-5.635,3.431-5.635,7.07c0,3.36,1.505,6.616,5.285,6.616
		c2.906,0,4.585-1.646,4.971-4.41h3.045c-0.665,4.445-3.396,7.035-7.981,7.035c-5.531,0-8.471-3.815-8.471-9.241
		c0-5.425,2.8-9.695,8.541-9.695c4.131,0,7.351,1.925,7.806,6.23H916.333z"/>
	<path d="M930.647,758.473c5.741,0,8.786,4.165,8.786,9.485c0,5.286-3.045,9.451-8.786,9.451c-5.74,0-8.786-4.165-8.786-9.451
		C921.861,762.638,924.907,758.473,930.647,758.473z M930.647,774.784c3.115,0,5.636-2.45,5.636-6.826
		c0-4.375-2.521-6.86-5.636-6.86s-5.636,2.485-5.636,6.86C925.012,772.334,927.532,774.784,930.647,774.784z"/>
	<path d="M942.826,758.893h2.801v3.815h0.07c1.435-2.94,3.43-4.341,6.65-4.235v3.15c-4.796,0-6.546,2.695-6.546,7.315v8.051h-2.976
		V758.893z"/>
	<path d="M954.48,758.893h2.801v3.815h0.07c1.435-2.94,3.43-4.341,6.65-4.235v3.15c-4.796,0-6.546,2.695-6.546,7.315v8.051h-2.976
		V758.893z"/>
	<path d="M981.677,771.249c-0.805,4.025-3.641,6.16-7.735,6.16c-5.776,0-8.506-4.025-8.682-9.521c0-5.461,3.57-9.416,8.506-9.416
		c6.406,0,8.366,5.985,8.191,10.36H968.41c-0.104,3.15,1.681,5.951,5.636,5.951c2.485,0,4.166-1.155,4.69-3.535H981.677z
		 M978.807,766.208c-0.175-2.835-2.24-5.11-5.216-5.11c-3.08,0-5.005,2.311-5.181,5.11H978.807z"/>
	<path d="M997.321,764.703c-0.455-2.275-1.995-3.605-4.48-3.605c-4.306,0-5.636,3.431-5.636,7.07c0,3.36,1.506,6.616,5.286,6.616
		c2.905,0,4.585-1.646,4.971-4.41h3.045c-0.665,4.445-3.396,7.035-7.98,7.035c-5.531,0-8.472-3.815-8.472-9.241
		c0-5.425,2.801-9.695,8.541-9.695c4.131,0,7.351,1.925,7.806,6.23H997.321z"/>
	<path d="M1007.961,758.893h3.604v2.625h-3.604v11.236c0,1.4,0.385,1.61,2.24,1.61h1.364v2.625h-2.274
		c-3.081,0-4.306-0.63-4.306-3.955v-11.517h-3.08v-2.625h3.08v-5.426h2.976V758.893z"/>
	<path d="M1018.005,755.637h-2.976v-3.64h2.976V755.637z M1015.029,758.893h2.976v18.097h-2.976V758.893z"/>
	<path d="M1030.43,758.473c5.741,0,8.786,4.165,8.786,9.485c0,5.286-3.045,9.451-8.786,9.451c-5.74,0-8.786-4.165-8.786-9.451
		C1021.644,762.638,1024.689,758.473,1030.43,758.473z M1030.43,774.784c3.115,0,5.636-2.45,5.636-6.826
		c0-4.375-2.521-6.86-5.636-6.86s-5.636,2.485-5.636,6.86C1024.794,772.334,1027.314,774.784,1030.43,774.784z"/>
	<path d="M1042.714,758.893h2.8v2.87h0.07c1.261-2.24,3.256-3.29,5.881-3.29c4.761,0,6.23,2.729,6.23,6.615v11.901h-2.976v-12.251
		c0-2.24-1.399-3.641-3.675-3.641c-3.605,0-5.355,2.415-5.355,5.671v10.221h-2.976V758.893z"/>
	<path d="M1063.994,771.283c0.104,2.661,2.45,3.501,4.865,3.501c1.855,0,4.376-0.42,4.376-2.695c0-4.655-11.832-1.505-11.832-8.471
		c0-3.641,3.571-5.146,6.756-5.146c4.061,0,7.141,1.26,7.421,5.67h-2.976c-0.175-2.31-2.274-3.045-4.2-3.045
		c-1.785,0-3.851,0.49-3.851,2.311c0,2.1,3.15,2.52,5.916,3.15c2.976,0.665,5.916,1.68,5.916,5.146c0,4.34-4.025,5.705-7.701,5.705
		c-4.061,0-7.491-1.646-7.666-6.126H1063.994z"/>
	<path d="M1107.326,776.989h-3.15l-3.676-14.387h-0.069l-3.641,14.387h-3.221l-5.811-18.097h3.291l4.095,14.807h0.07l3.641-14.807
		h3.255l3.78,14.807h0.07l4.061-14.807h3.08L1107.326,776.989z"/>
	<path d="M1115.935,751.997h2.976v9.556h0.069c0.945-2.205,3.57-3.08,5.706-3.08c4.761,0,6.23,2.729,6.23,6.615v11.901h-2.976
		v-12.251c0-2.24-1.399-3.641-3.675-3.641c-3.605,0-5.355,2.415-5.355,5.671v10.221h-2.976V751.997z"/>
	<path d="M1150.831,771.249c-0.805,4.025-3.641,6.16-7.735,6.16c-5.776,0-8.506-4.025-8.682-9.521c0-5.461,3.57-9.416,8.506-9.416
		c6.406,0,8.366,5.985,8.191,10.36h-13.547c-0.104,3.15,1.681,5.951,5.636,5.951c2.485,0,4.166-1.155,4.69-3.535H1150.831z
		 M1147.961,766.208c-0.175-2.835-2.24-5.11-5.216-5.11c-3.08,0-5.005,2.311-5.181,5.11H1147.961z"/>
	<path d="M1154.189,758.893h2.801v2.87h0.069c1.261-2.24,3.256-3.29,5.881-3.29c4.761,0,6.23,2.729,6.23,6.615v11.901h-2.976
		v-12.251c0-2.24-1.399-3.641-3.675-3.641c-3.605,0-5.355,2.415-5.355,5.671v10.221h-2.976V758.893z"/>
	<path d="M1199.411,776.919c-0.524,0.315-1.26,0.49-2.135,0.49c-1.54,0-2.521-0.84-2.521-2.8c-1.645,1.96-3.851,2.8-6.37,2.8
		c-3.291,0-5.986-1.435-5.986-5.075c0-4.096,3.046-5.006,6.126-5.565c3.256-0.665,6.091-0.386,6.091-2.661
		c0-2.625-2.17-3.01-4.025-3.01c-2.521,0-4.376,0.77-4.516,3.431h-2.976c0.175-4.48,3.605-6.056,7.666-6.056
		c3.256,0,6.791,0.734,6.791,4.97v9.312c0,1.4,0,2.03,0.945,2.03c0.279,0,0.595-0.07,0.909-0.175V776.919z M1194.581,767.644
		c-2.311,1.715-9.031,0.035-9.031,4.48c0,1.96,1.681,2.66,3.501,2.66c3.92,0,5.53-2.415,5.53-4.096V767.644z"/>
	<path d="M746.412,818.989h-2.976v-2.45h-0.07c-0.98,1.995-3.255,2.87-5.776,2.87c-5.565,0-8.331-4.41-8.331-9.521
		c0-5.111,2.73-9.416,8.261-9.416c1.82,0,4.55,0.7,5.846,2.835h0.07v-9.311h2.976V818.989z M738.011,816.784
		c4.025,0,5.53-3.466,5.53-6.826c0-3.535-1.61-6.86-5.706-6.86c-4.061,0-5.425,3.465-5.425,7.001
		C732.411,813.494,734.161,816.784,738.011,816.784z"/>
	<path d="M766.431,813.249c-0.805,4.025-3.64,6.16-7.736,6.16c-5.775,0-8.506-4.025-8.681-9.521c0-5.461,3.57-9.416,8.506-9.416
		c6.406,0,8.366,5.985,8.191,10.36h-13.546c-0.105,3.15,1.68,5.951,5.635,5.951c2.485,0,4.166-1.155,4.69-3.535H766.431z
		 M763.561,808.208c-0.175-2.835-2.24-5.11-5.216-5.11c-3.08,0-5.005,2.311-5.18,5.11H763.561z"/>
	<path d="M777.945,818.989h-3.185l-6.721-18.097h3.325l5.076,15.086h0.07l4.936-15.086h3.115L777.945,818.989z"/>
	<path d="M790.439,797.637h-2.976v-3.64h2.976V797.637z M787.464,800.893h2.976v18.097h-2.976V800.893z"/>
	<path d="M811.09,818.919c-0.525,0.315-1.26,0.49-2.135,0.49c-1.54,0-2.521-0.84-2.521-2.8c-1.645,1.96-3.85,2.8-6.371,2.8
		c-3.29,0-5.985-1.435-5.985-5.075c0-4.096,3.045-5.006,6.125-5.565c3.255-0.665,6.091-0.386,6.091-2.661
		c0-2.625-2.17-3.01-4.025-3.01c-2.521,0-4.375,0.77-4.516,3.431h-2.976c0.175-4.48,3.605-6.056,7.666-6.056
		c3.255,0,6.791,0.734,6.791,4.97v9.312c0,1.4,0,2.03,0.945,2.03c0.28,0,0.595-0.07,0.91-0.175V818.919z M806.26,809.644
		c-2.31,1.715-9.031,0.035-9.031,4.48c0,1.96,1.68,2.66,3.5,2.66c3.92,0,5.531-2.415,5.531-4.096V809.644z"/>
	<path d="M817.983,800.893h3.605v2.625h-3.605v11.236c0,1.4,0.385,1.61,2.24,1.61h1.365v2.625h-2.275
		c-3.08,0-4.305-0.63-4.305-3.955v-11.517h-3.081v-2.625h3.081v-5.426h2.975V800.893z"/>
	<path d="M828.028,797.637h-2.976v-3.64h2.976V797.637z M825.052,800.893h2.976v18.097h-2.976V800.893z"/>
	<path d="M840.453,800.473c5.741,0,8.786,4.165,8.786,9.485c0,5.286-3.045,9.451-8.786,9.451c-5.74,0-8.786-4.165-8.786-9.451
		C831.667,804.638,834.712,800.473,840.453,800.473z M840.453,816.784c3.116,0,5.636-2.45,5.636-6.826c0-4.375-2.52-6.86-5.636-6.86
		c-3.115,0-5.635,2.485-5.635,6.86C834.817,814.334,837.337,816.784,840.453,816.784z"/>
	<path d="M852.737,800.893h2.8v2.87h0.07c1.26-2.24,3.255-3.29,5.881-3.29c4.76,0,6.23,2.729,6.23,6.615v11.901h-2.975v-12.251
		c0-2.24-1.4-3.641-3.675-3.641c-3.605,0-5.356,2.415-5.356,5.671v10.221h-2.975V800.893z"/>
	<path d="M889.732,800.473c5.741,0,8.786,4.165,8.786,9.485c0,5.286-3.045,9.451-8.786,9.451c-5.74,0-8.786-4.165-8.786-9.451
		C880.947,804.638,883.992,800.473,889.732,800.473z M889.732,816.784c3.115,0,5.636-2.45,5.636-6.826
		c0-4.375-2.521-6.86-5.636-6.86s-5.635,2.485-5.635,6.86C884.097,814.334,886.617,816.784,889.732,816.784z"/>
	<path d="M914.303,806.703c-0.455-2.275-1.995-3.605-4.48-3.605c-4.305,0-5.635,3.431-5.635,7.07c0,3.36,1.505,6.616,5.285,6.616
		c2.906,0,4.585-1.646,4.971-4.41h3.045c-0.665,4.445-3.396,7.035-7.981,7.035c-5.531,0-8.471-3.815-8.471-9.241
		c0-5.425,2.8-9.695,8.541-9.695c4.131,0,7.351,1.925,7.806,6.23H914.303z"/>
	<path d="M933.098,806.703c-0.455-2.275-1.995-3.605-4.48-3.605c-4.306,0-5.636,3.431-5.636,7.07c0,3.36,1.505,6.616,5.285,6.616
		c2.905,0,4.586-1.646,4.971-4.41h3.045c-0.665,4.445-3.395,7.035-7.98,7.035c-5.53,0-8.471-3.815-8.471-9.241
		c0-5.425,2.8-9.695,8.541-9.695c4.13,0,7.351,1.925,7.806,6.23H933.098z"/>
	<path d="M954.587,818.989h-2.8v-2.87h-0.07c-1.26,2.24-3.256,3.29-5.881,3.29c-4.761,0-6.23-2.73-6.23-6.615v-11.901h2.976v12.251
		c0,2.24,1.399,3.641,3.675,3.641c3.605,0,5.355-2.415,5.355-5.671v-10.221h2.976V818.989z"/>
	<path d="M958.96,800.893h2.801v3.815h0.07c1.435-2.94,3.43-4.341,6.65-4.235v3.15c-4.796,0-6.546,2.695-6.546,7.315v8.051h-2.976
		V800.893z"/>
	<path d="M970.614,800.893h2.801v3.815h0.07c1.435-2.94,3.43-4.341,6.65-4.235v3.15c-4.796,0-6.546,2.695-6.546,7.315v8.051h-2.976
		V800.893z"/>
	<path d="M984.194,813.283c0.104,2.661,2.45,3.501,4.865,3.501c1.855,0,4.376-0.42,4.376-2.695c0-4.655-11.832-1.505-11.832-8.471
		c0-3.641,3.57-5.146,6.756-5.146c4.061,0,7.141,1.26,7.421,5.67h-2.976c-0.175-2.31-2.274-3.045-4.2-3.045
		c-1.785,0-3.851,0.49-3.851,2.311c0,2.1,3.15,2.52,5.916,3.15c2.976,0.665,5.916,1.68,5.916,5.146c0,4.34-4.025,5.705-7.701,5.705
		c-4.061,0-7.491-1.646-7.666-6.126H984.194z"/>
	<path d="M1013.735,800.893h3.604v2.625h-3.604v11.236c0,1.4,0.385,1.61,2.24,1.61h1.364v2.625h-2.274
		c-3.081,0-4.306-0.63-4.306-3.955v-11.517h-3.08v-2.625h3.08v-5.426h2.976V800.893z"/>
	<path d="M1028.435,800.473c5.741,0,8.786,4.165,8.786,9.485c0,5.286-3.045,9.451-8.786,9.451c-5.74,0-8.786-4.165-8.786-9.451
		C1019.648,804.638,1022.694,800.473,1028.435,800.473z M1028.435,816.784c3.115,0,5.636-2.45,5.636-6.826
		c0-4.375-2.521-6.86-5.636-6.86s-5.636,2.485-5.636,6.86C1022.799,814.334,1025.319,816.784,1028.435,816.784z"/>
	<path d="M1062.735,806.703c-0.455-2.275-1.995-3.605-4.48-3.605c-4.306,0-5.636,3.431-5.636,7.07c0,3.36,1.506,6.616,5.286,6.616
		c2.905,0,4.585-1.646,4.971-4.41h3.045c-0.665,4.445-3.396,7.035-7.98,7.035c-5.531,0-8.472-3.815-8.472-9.241
		c0-5.425,2.801-9.695,8.541-9.695c4.131,0,7.351,1.925,7.806,6.23H1062.735z"/>
	<path d="M1077.05,800.473c5.741,0,8.786,4.165,8.786,9.485c0,5.286-3.045,9.451-8.786,9.451c-5.74,0-8.786-4.165-8.786-9.451
		C1068.264,804.638,1071.31,800.473,1077.05,800.473z M1077.05,816.784c3.115,0,5.636-2.45,5.636-6.826
		c0-4.375-2.521-6.86-5.636-6.86s-5.636,2.485-5.636,6.86C1071.414,814.334,1073.935,816.784,1077.05,816.784z"/>
	<path d="M1089.334,800.893h2.801v2.87h0.069c1.261-2.24,3.256-3.29,5.881-3.29c4.761,0,6.23,2.729,6.23,6.615v11.901h-2.976
		v-12.251c0-2.24-1.399-3.641-3.675-3.641c-3.605,0-5.355,2.415-5.355,5.671v10.221h-2.976V800.893z"/>
	<path d="M1112.925,800.893h3.604v2.625h-3.604v11.236c0,1.4,0.385,1.61,2.24,1.61h1.364v2.625h-2.274
		c-3.081,0-4.306-0.63-4.306-3.955v-11.517h-3.08v-2.625h3.08v-5.426h2.976V800.893z"/>
	<path d="M1122.969,797.637h-2.976v-3.64h2.976V797.637z M1119.993,800.893h2.976v18.097h-2.976V800.893z"/>
	<path d="M1127.588,800.893h2.801v2.87h0.069c1.261-2.24,3.256-3.29,5.881-3.29c4.761,0,6.23,2.729,6.23,6.615v11.901h-2.976
		v-12.251c0-2.24-1.399-3.641-3.675-3.641c-3.605,0-5.355,2.415-5.355,5.671v10.221h-2.976V800.893z"/>
	<path d="M1162.029,818.989h-2.8v-2.87h-0.07c-1.26,2.24-3.256,3.29-5.881,3.29c-4.761,0-6.23-2.73-6.23-6.615v-11.901h2.976v12.251
		c0,2.24,1.399,3.641,3.675,3.641c3.605,0,5.355-2.415,5.355-5.671v-10.221h2.976V818.989z"/>
	<path d="M1174.313,800.473c5.741,0,8.786,4.165,8.786,9.485c0,5.286-3.045,9.451-8.786,9.451c-5.74,0-8.786-4.165-8.786-9.451
		C1165.527,804.638,1168.573,800.473,1174.313,800.473z M1174.313,816.784c3.115,0,5.636-2.45,5.636-6.826
		c0-4.375-2.521-6.86-5.636-6.86s-5.636,2.485-5.636,6.86C1168.678,814.334,1171.198,816.784,1174.313,816.784z"/>
	<path d="M1201.579,818.989h-2.8v-2.87h-0.07c-1.26,2.24-3.256,3.29-5.881,3.29c-4.761,0-6.23-2.73-6.23-6.615v-11.901h2.976v12.251
		c0,2.24,1.399,3.641,3.675,3.641c3.605,0,5.355-2.415,5.355-5.671v-10.221h2.976V818.989z"/>
	<path d="M1207.878,813.283c0.104,2.661,2.45,3.501,4.865,3.501c1.855,0,4.376-0.42,4.376-2.695c0-4.655-11.832-1.505-11.832-8.471
		c0-3.641,3.57-5.146,6.756-5.146c4.061,0,7.141,1.26,7.421,5.67h-2.976c-0.175-2.31-2.274-3.045-4.2-3.045
		c-1.785,0-3.851,0.49-3.851,2.311c0,2.1,3.15,2.52,5.916,3.15c2.976,0.665,5.916,1.68,5.916,5.146c0,4.34-4.025,5.705-7.701,5.705
		c-4.061,0-7.491-1.646-7.666-6.126H1207.878z"/>
	<path d="M1223.732,793.997h2.976v24.992h-2.976V793.997z"/>
	<path d="M1238.433,821.404c-1.399,3.501-2.59,4.831-5.25,4.831c-0.7,0-1.4-0.07-2.065-0.315v-2.73c0.56,0.175,1.155,0.42,1.75,0.42
		c1.226,0,1.891-0.56,2.45-1.645l1.226-3.081l-7.176-17.991h3.36l5.285,14.807h0.07l5.075-14.807h3.15L1238.433,821.404z"/>
	<path d="M733.391,839.637h-2.976v-3.64h2.976V839.637z M730.415,842.893h2.976v18.097h-2.976V842.893z"/>
	<path d="M738.01,842.893h2.8v2.66h0.07c1.365-2.065,3.291-3.08,5.846-3.08c2.24,0,4.235,0.84,4.971,3.08
		c1.225-1.96,3.325-3.08,5.67-3.08c3.605,0,6.021,1.505,6.021,5.25v13.267h-2.975v-11.866c0-2.24-0.595-4.025-3.5-4.025
		s-4.726,1.82-4.726,4.62v11.271h-2.975v-11.866c0-2.346-0.735-4.025-3.396-4.025c-3.5,0-4.831,3.221-4.831,4.62v11.271h-2.975
		V842.893z"/>
	<path d="M767.97,842.893h2.976v2.45h0.07c0.98-1.995,3.255-2.87,5.775-2.87c5.566,0,8.331,4.41,8.331,9.521
		c0,5.146-2.73,9.416-8.261,9.416c-1.82,0-4.551-0.7-5.846-2.835h-0.07v9.346h-2.976V842.893z M776.371,845.098
		c-4.025,0-5.531,3.465-5.531,6.825c0,3.536,1.61,6.861,5.706,6.861c4.06,0,5.425-3.466,5.425-7.001
		C781.971,848.388,780.221,845.098,776.371,845.098z"/>
	<path d="M788.514,842.893h2.8v3.815h0.07c1.435-2.94,3.431-4.341,6.651-4.235v3.15c-4.795,0-6.546,2.695-6.546,7.315v8.051h-2.975
		V842.893z"/>
	<path d="M808.08,842.473c5.741,0,8.786,4.165,8.786,9.485c0,5.286-3.045,9.451-8.786,9.451c-5.74,0-8.786-4.165-8.786-9.451
		C799.294,846.638,802.339,842.473,808.08,842.473z M808.08,858.784c3.116,0,5.636-2.45,5.636-6.826c0-4.375-2.52-6.86-5.636-6.86
		c-3.115,0-5.635,2.485-5.635,6.86C802.444,856.334,804.964,858.784,808.08,858.784z"/>
	<path d="M828.52,860.989h-3.185l-6.721-18.097h3.325l5.076,15.086h0.07l4.936-15.086h3.115L828.52,860.989z"/>
	<path d="M853.3,855.249c-0.805,4.025-3.64,6.16-7.736,6.16c-5.775,0-8.506-4.025-8.681-9.521c0-5.461,3.57-9.416,8.506-9.416
		c6.406,0,8.366,5.985,8.191,10.36h-13.546c-0.105,3.15,1.68,5.951,5.635,5.951c2.485,0,4.166-1.155,4.69-3.535H853.3z
		 M850.43,850.208c-0.175-2.835-2.24-5.11-5.216-5.11c-3.08,0-5.005,2.311-5.18,5.11H850.43z"/>
	<path d="M870.519,842.893h3.605v2.625h-3.605v11.236c0,1.4,0.385,1.61,2.24,1.61h1.365v2.625h-2.275
		c-3.08,0-4.305-0.63-4.305-3.955v-11.517h-3.081v-2.625h3.081v-5.426h2.975V842.893z"/>
	<path d="M877.413,835.997h2.975v9.556h0.07c0.945-2.205,3.57-3.08,5.706-3.08c4.76,0,6.23,2.729,6.23,6.615v11.901h-2.975v-12.251
		c0-2.24-1.4-3.641-3.675-3.641c-3.605,0-5.356,2.415-5.356,5.671v10.221h-2.975V835.997z"/>
	<path d="M912.309,855.249c-0.805,4.025-3.64,6.16-7.736,6.16c-5.775,0-8.506-4.025-8.681-9.521c0-5.461,3.57-9.416,8.506-9.416
		c6.406,0,8.366,5.985,8.191,10.36h-13.546c-0.105,3.15,1.68,5.951,5.635,5.951c2.485,0,4.166-1.155,4.69-3.535H912.309z
		 M909.439,850.208c-0.175-2.835-2.24-5.11-5.216-5.11c-3.08,0-5.005,2.311-5.18,5.11H909.439z"/>
	<path d="M946.26,863.159l-3.815-3.08c-1.681,1.016-3.676,1.505-5.985,1.505c-7.946,0-11.972-6.266-11.972-13.091
		c0-6.826,4.025-13.092,11.972-13.092c7.945,0,11.971,6.266,11.971,13.092c0,3.815-1.26,7.456-3.78,9.94l3.29,2.626L946.26,863.159z
		 M938.909,853.849l3.325,2.66c1.96-1.96,2.87-4.971,2.87-8.016c0-5.041-2.556-10.291-8.646-10.291
		c-6.091,0-8.646,5.25-8.646,10.291c0,5.04,2.556,10.291,8.646,10.291c1.225,0,2.38-0.245,3.465-0.7l-2.766-2.205L938.909,853.849z"
		/>
	<path d="M952.557,835.997h4.551l7.876,21.002l7.911-21.002h4.55v24.992h-3.15v-20.792h-0.069l-7.806,20.792h-2.836l-7.806-20.792
		h-0.07v20.792h-3.15V835.997z"/>
	<path d="M997.428,843.312c-0.385-3.605-2.73-5.11-6.195-5.11c-2.835,0-5.601,1.015-5.601,4.271c0,6.16,15.997,1.82,15.997,11.656
		c0,5.32-5.216,7.455-9.767,7.455c-5.601,0-10.326-2.765-10.326-8.82h3.15c0,4.2,3.501,6.021,7.281,6.021
		c3.01,0,6.335-0.945,6.335-4.551c0-6.86-15.996-2.345-15.996-11.516c0-5.041,4.48-7.316,9.065-7.316
		c5.11,0,9.031,2.415,9.206,7.911H997.428z"/>
</g>
</svg>
