<?xml version="1.0" encoding="utf-8"?>
<!-- Generator: Adobe Illustrator 16.0.3, SVG Export Plug-In . SVG Version: 6.00 Build 0)  -->
<!DOCTYPE svg PUBLIC "-//W3C//DTD SVG 1.1//EN" "http://www.w3.org/Graphics/SVG/1.1/DTD/svg11.dtd">
<svg version="1.1" id="Layer_1" xmlns="http://www.w3.org/2000/svg" xmlns:xlink="http://www.w3.org/1999/xlink" x="0px" y="0px"
	 width="2048px" height="1000px" viewBox="0 0 2048 1000" enable-background="new 0 0 2048 1000" xml:space="preserve">
<rect fill="#B9E5FB" width="2048" height="1000"/>
<rect fill="#116BB4" width="2048" height="1000"/>
<rect x="1" y="710" fill="#4EA8DE" width="2047" height="288.9"/>
<line fill="none" stroke="#343636" stroke-width="5.003" stroke-miterlimit="10" x1="48.187" y1="51.9" x2="2009.999" y2="51.9"/>
<polygon fill="#FFFFFF" points="1382.631,861.725 1382.631,475.458 1382.631,279.037 1227.635,138.275 552,138.275 552,861.725 "/>
<polygon fill="#2C5871" points="1227.635,279.037 1382.631,279.037 1227.635,138.276 "/>
<polygon fill="#D1ECFB" points="1382.631,279.037 1227.635,279.037 1382.631,419.775 "/>
<g>
	<path d="M731.581,269.958h3.799v28.555h-3.799V269.958z"/>
	<path d="M759.697,298.513h-3.399v-2.799h-0.08c-1.12,2.279-3.719,3.279-6.599,3.279c-6.359,0-9.518-5.039-9.518-10.878
		c0-5.839,3.119-10.758,9.438-10.758c2.08,0,5.199,0.8,6.679,3.239h0.08v-10.638h3.399V298.513z M750.099,295.994
		c4.599,0,6.319-3.959,6.319-7.799c0-4.039-1.839-7.838-6.519-7.838c-4.639,0-6.199,3.959-6.199,7.999
		C743.7,292.234,745.699,295.994,750.099,295.994z"/>
	<path d="M782.577,291.954c-0.92,4.6-4.16,7.039-8.839,7.039c-6.599,0-9.718-4.599-9.918-10.878c0-6.239,4.079-10.758,9.718-10.758
		c7.319,0,9.558,6.839,9.358,11.838h-15.478c-0.12,3.599,1.92,6.799,6.439,6.799c2.839,0,4.759-1.32,5.359-4.04H782.577z
		 M779.297,286.195c-0.2-3.24-2.56-5.839-5.959-5.839c-3.519,0-5.719,2.639-5.919,5.839H779.297z"/>
	<path d="M786.419,277.836h3.2v3.28h0.08c1.44-2.56,3.72-3.759,6.719-3.759c5.439,0,7.119,3.119,7.119,7.559v13.598h-3.399v-13.998
		c0-2.56-1.6-4.159-4.199-4.159c-4.12,0-6.119,2.759-6.119,6.479v11.678h-3.399V277.836z"/>
	<path d="M813.378,277.836h4.119v3h-4.119v12.838c0,1.6,0.44,1.84,2.56,1.84h1.56v3h-2.6c-3.519,0-4.919-0.72-4.919-4.519v-13.158
		h-3.52v-3h3.52v-6.199h3.399V277.836z"/>
	<path d="M824.858,274.117h-3.399v-4.159h3.399V274.117z M821.459,277.836h3.399v20.677h-3.399V277.836z"/>
	<path d="M831.538,280.836h-3.479v-3h3.479v-3.079c0-3.359,2-5.119,5.719-5.119c0.64,0,1.56,0.12,2.2,0.32v2.959
		c-0.6-0.2-1.32-0.28-1.919-0.28c-1.64,0-2.6,0.52-2.6,2.319v2.879h3.999v3h-3.999v17.677h-3.399V280.836z"/>
	<path d="M850.096,301.273c-1.6,3.999-2.959,5.519-5.999,5.519c-0.8,0-1.6-0.08-2.359-0.36v-3.119c0.64,0.2,1.319,0.48,2,0.48
		c1.4,0,2.16-0.64,2.799-1.88l1.4-3.52l-8.199-20.557h3.839l6.039,16.917h0.08l5.799-16.917h3.6L850.096,301.273z"/>
	<path d="M873.658,269.958h12.518c5.719,0,8.759,3.12,8.759,8.438c0,5.319-3.04,8.479-8.759,8.438h-8.718v11.678h-3.799V269.958z
		 M877.457,283.636h7.438c4.319,0.04,6.239-1.84,6.239-5.239s-1.92-5.239-6.239-5.239h-7.438V283.636z"/>
	<path d="M898.897,277.836h3.2v4.359h0.08c1.64-3.359,3.919-4.959,7.599-4.839v3.599c-5.479,0-7.479,3.08-7.479,8.359v9.198h-3.399
		V277.836z"/>
	<path d="M921.256,277.357c6.559,0,10.038,4.759,10.038,10.838c0,6.039-3.479,10.798-10.038,10.798
		c-6.559,0-10.038-4.759-10.038-10.798C911.218,282.116,914.697,277.357,921.256,277.357z M921.256,295.994
		c3.56,0,6.439-2.8,6.439-7.799s-2.88-7.838-6.439-7.838s-6.439,2.839-6.439,7.838S917.696,295.994,921.256,295.994z"/>
	<path d="M949.335,284.476c-0.521-2.6-2.28-4.119-5.119-4.119c-4.92,0-6.439,3.919-6.439,8.079c0,3.839,1.72,7.559,6.039,7.559
		c3.319,0,5.239-1.88,5.679-5.039h3.479c-0.76,5.079-3.879,8.039-9.118,8.039c-6.319,0-9.679-4.359-9.679-10.558
		c0-6.199,3.2-11.078,9.759-11.078c4.719,0,8.398,2.199,8.918,7.119H949.335z"/>
	<path d="M974.413,291.954c-0.92,4.6-4.159,7.039-8.838,7.039c-6.6,0-9.719-4.599-9.919-10.878c0-6.239,4.08-10.758,9.719-10.758
		c7.318,0,9.559,6.839,9.358,11.838h-15.478c-0.12,3.599,1.92,6.799,6.439,6.799c2.839,0,4.759-1.32,5.358-4.04H974.413z
		 M971.134,286.195c-0.2-3.24-2.56-5.839-5.959-5.839c-3.52,0-5.719,2.639-5.919,5.839H971.134z"/>
	<path d="M980.336,291.994c0.119,3.04,2.799,4,5.559,4c2.12,0,4.999-0.48,4.999-3.08c0-5.319-13.518-1.72-13.518-9.678
		c0-4.159,4.079-5.879,7.719-5.879c4.64,0,8.158,1.439,8.479,6.479h-3.399c-0.2-2.639-2.6-3.479-4.799-3.479
		c-2.04,0-4.399,0.56-4.399,2.639c0,2.4,3.6,2.88,6.759,3.6c3.399,0.76,6.759,1.919,6.759,5.879c0,4.959-4.6,6.519-8.799,6.519
		c-4.639,0-8.559-1.88-8.758-6.999H980.336z"/>
	<path d="M1000.336,291.994c0.119,3.04,2.799,4,5.559,4c2.12,0,4.999-0.48,4.999-3.08c0-5.319-13.518-1.72-13.518-9.678
		c0-4.159,4.079-5.879,7.719-5.879c4.64,0,8.158,1.439,8.479,6.479h-3.399c-0.2-2.639-2.6-3.479-4.799-3.479
		c-2.04,0-4.399,0.56-4.399,2.639c0,2.4,3.6,2.88,6.759,3.6c3.399,0.76,6.759,1.919,6.759,5.879c0,4.959-4.6,6.519-8.799,6.519
		c-4.639,0-8.559-1.88-8.758-6.999H1000.336z"/>
	<path d="M1029.936,269.958h9.799c8.799,0,13.718,4.439,13.718,13.598c0,9.559-4.199,14.958-13.718,14.958h-9.799V269.958z
		 M1033.735,295.313h6.318c2.6,0,9.599-0.72,9.599-11.238c0-6.799-2.52-10.918-9.519-10.918h-6.398V295.313z"/>
	<path d="M1075.173,291.954c-0.92,4.6-4.159,7.039-8.838,7.039c-6.6,0-9.719-4.599-9.919-10.878c0-6.239,4.08-10.758,9.719-10.758
		c7.318,0,9.559,6.839,9.358,11.838h-15.478c-0.12,3.599,1.92,6.799,6.439,6.799c2.839,0,4.759-1.32,5.358-4.04H1075.173z
		 M1071.894,286.195c-0.2-3.24-2.56-5.839-5.959-5.839c-3.52,0-5.719,2.639-5.919,5.839H1071.894z"/>
	<path d="M1088.333,298.513h-3.64l-7.679-20.677h3.8l5.799,17.237h0.08l5.639-17.237h3.56L1088.333,298.513z"/>
	<path d="M1102.614,274.117h-3.399v-4.159h3.399V274.117z M1099.215,277.836h3.399v20.677h-3.399V277.836z"/>
	<path d="M1126.212,298.433c-0.601,0.36-1.44,0.56-2.44,0.56c-1.76,0-2.879-0.96-2.879-3.2c-1.88,2.24-4.399,3.2-7.279,3.2
		c-3.759,0-6.839-1.64-6.839-5.799c0-4.679,3.479-5.719,6.999-6.359c3.72-0.76,6.959-0.44,6.959-3.039c0-3-2.479-3.439-4.6-3.439
		c-2.879,0-4.999,0.88-5.159,3.919h-3.399c0.2-5.119,4.12-6.918,8.759-6.918c3.72,0,7.759,0.84,7.759,5.679v10.638
		c0,1.6,0,2.32,1.08,2.32c0.319,0,0.68-0.08,1.04-0.2V298.433z M1120.692,287.835c-2.64,1.959-10.318,0.04-10.318,5.119
		c0,2.24,1.92,3.04,3.999,3.04c4.479,0,6.319-2.76,6.319-4.679V287.835z"/>
	<path d="M1134.093,277.836h4.12v3h-4.12v12.838c0,1.6,0.44,1.84,2.56,1.84h1.561v3h-2.6c-3.52,0-4.92-0.72-4.92-4.519v-13.158
		h-3.519v-3h3.519v-6.199h3.399V277.836z"/>
	<path d="M1145.573,274.117h-3.399v-4.159h3.399V274.117z M1142.174,277.836h3.399v20.677h-3.399V277.836z"/>
	<path d="M1159.771,277.357c6.559,0,10.038,4.759,10.038,10.838c0,6.039-3.479,10.798-10.038,10.798
		c-6.56,0-10.039-4.759-10.039-10.798C1149.732,282.116,1153.212,277.357,1159.771,277.357z M1159.771,295.994
		c3.559,0,6.438-2.8,6.438-7.799s-2.88-7.838-6.438-7.838c-3.56,0-6.439,2.839-6.439,7.838S1156.212,295.994,1159.771,295.994z"/>
	<path d="M1173.812,277.836h3.199v3.28h0.08c1.439-2.56,3.72-3.759,6.719-3.759c5.439,0,7.119,3.119,7.119,7.559v13.598h-3.399
		v-13.998c0-2.56-1.6-4.159-4.199-4.159c-4.119,0-6.119,2.759-6.119,6.479v11.678h-3.399V277.836z"/>
</g>
<path fill="#89BE46" d="M699,284.901c0,20.351-16.498,36.849-36.849,36.849c-20.352,0-36.85-16.498-36.85-36.849
	s16.498-36.849,36.85-36.849C682.502,248.052,699,264.55,699,284.901"/>
<g>
	<path fill="#FFFFFF" d="M667.24,299.044h-4.906V283.36h-6.08v-3.697c3.42,0.104,6.529-1.105,7.082-4.802h3.904V299.044z"/>
</g>
<g>
	<path d="M743.499,368.691c9.079,0,13.678,7.159,13.678,14.957c0,7.799-4.599,14.958-13.678,14.958
		c-9.078,0-13.678-7.159-13.678-14.958C729.821,375.85,734.42,368.691,743.499,368.691z M743.499,395.407
		c6.959,0,9.878-5.999,9.878-11.758c0-5.759-2.919-11.758-9.878-11.758c-6.958,0-9.878,5.999-9.878,11.758
		C733.621,389.408,736.54,395.407,743.499,395.407z"/>
	<path d="M761.381,377.25h3.399v2.8h0.08c1.12-2.28,3.719-3.279,6.599-3.279c6.359,0,9.519,5.039,9.519,10.878
		c0,5.879-3.12,10.758-9.438,10.758c-2.08,0-5.199-0.8-6.679-3.24h-0.08v10.678h-3.399V377.25z M770.979,379.77
		c-4.599,0-6.319,3.959-6.319,7.798c0,4.04,1.84,7.839,6.519,7.839c4.639,0,6.199-3.959,6.199-7.999
		C777.378,383.529,775.378,379.77,770.979,379.77z"/>
	<path d="M802.617,391.367c-0.92,4.6-4.16,7.039-8.839,7.039c-6.599,0-9.718-4.599-9.918-10.878c0-6.239,4.079-10.758,9.718-10.758
		c7.319,0,9.558,6.839,9.358,11.838h-15.478c-0.12,3.599,1.92,6.799,6.439,6.799c2.839,0,4.759-1.32,5.359-4.04H802.617z
		 M799.337,385.608c-0.2-3.24-2.56-5.839-5.959-5.839c-3.519,0-5.719,2.639-5.919,5.839H799.337z"/>
	<path d="M806.459,377.25h3.2v3.28h0.08c1.44-2.56,3.72-3.759,6.719-3.759c5.439,0,7.119,3.119,7.119,7.559v13.598h-3.399v-13.998
		c0-2.56-1.6-4.159-4.199-4.159c-4.12,0-6.119,2.759-6.119,6.479v11.678h-3.399V377.25z"/>
	<path d="M840.379,369.371h12.518c5.719,0,8.759,3.12,8.759,8.438c0,5.319-3.04,8.479-8.759,8.438h-8.718v11.678h-3.799V369.371z
		 M844.179,383.049h7.438c4.319,0.04,6.239-1.84,6.239-5.239s-1.92-5.239-6.239-5.239h-7.438V383.049z"/>
	<path d="M865.619,377.25h3.2v4.359h0.08c1.64-3.359,3.919-4.959,7.599-4.839v3.599c-5.479,0-7.479,3.08-7.479,8.359v9.198h-3.399
		V377.25z"/>
	<path d="M887.978,376.77c6.559,0,10.039,4.759,10.039,10.838c0,6.039-3.479,10.798-10.039,10.798s-10.038-4.759-10.038-10.798
		C877.939,381.529,881.418,376.77,887.978,376.77z M887.978,395.407c3.56,0,6.439-2.8,6.439-7.799s-2.879-7.838-6.439-7.838
		s-6.439,2.839-6.439,7.838S884.418,395.407,887.978,395.407z"/>
	<path d="M916.056,383.889c-0.52-2.6-2.28-4.119-5.119-4.119c-4.919,0-6.439,3.919-6.439,8.079c0,3.839,1.72,7.559,6.039,7.559
		c3.319,0,5.239-1.88,5.679-5.039h3.479c-0.76,5.079-3.879,8.039-9.119,8.039c-6.319,0-9.678-4.359-9.678-10.558
		c0-6.199,3.199-11.078,9.758-11.078c4.719,0,8.398,2.199,8.918,7.119H916.056z"/>
	<path d="M941.135,391.367c-0.92,4.6-4.159,7.039-8.838,7.039c-6.6,0-9.719-4.599-9.918-10.878c0-6.239,4.08-10.758,9.718-10.758
		c7.318,0,9.559,6.839,9.358,11.838h-15.478c-0.12,3.599,1.92,6.799,6.439,6.799c2.839,0,4.759-1.32,5.358-4.04H941.135z
		 M937.855,385.608c-0.2-3.24-2.56-5.839-5.959-5.839c-3.52,0-5.719,2.639-5.919,5.839H937.855z"/>
	<path d="M947.058,391.407c0.119,3.04,2.799,4,5.559,4c2.12,0,4.999-0.48,4.999-3.08c0-5.319-13.518-1.72-13.518-9.678
		c0-4.159,4.079-5.879,7.719-5.879c4.64,0,8.158,1.439,8.479,6.479h-3.399c-0.2-2.639-2.6-3.479-4.799-3.479
		c-2.04,0-4.399,0.56-4.399,2.639c0,2.4,3.6,2.88,6.759,3.6c3.399,0.76,6.759,1.919,6.759,5.879c0,4.959-4.6,6.519-8.799,6.519
		c-4.639,0-8.559-1.88-8.758-6.999H947.058z"/>
	<path d="M967.058,391.407c0.119,3.04,2.799,4,5.559,4c2.12,0,4.999-0.48,4.999-3.08c0-5.319-13.518-1.72-13.518-9.678
		c0-4.159,4.079-5.879,7.719-5.879c4.64,0,8.158,1.439,8.479,6.479h-3.399c-0.2-2.639-2.6-3.479-4.799-3.479
		c-2.04,0-4.399,0.56-4.399,2.639c0,2.4,3.6,2.88,6.759,3.6c3.399,0.76,6.759,1.919,6.759,5.879c0,4.959-4.6,6.519-8.799,6.519
		c-4.639,0-8.559-1.88-8.758-6.999H967.058z"/>
	<path d="M996.657,369.371h9.799c8.799,0,13.718,4.439,13.718,13.598c0,9.559-4.199,14.958-13.718,14.958h-9.799V369.371z
		 M1000.457,394.727h6.318c2.6,0,9.599-0.72,9.599-11.238c0-6.799-2.52-10.918-9.519-10.918h-6.398V394.727z"/>
	<path d="M1041.895,391.367c-0.92,4.6-4.159,7.039-8.838,7.039c-6.6,0-9.719-4.599-9.919-10.878c0-6.239,4.08-10.758,9.719-10.758
		c7.318,0,9.559,6.839,9.358,11.838h-15.478c-0.12,3.599,1.92,6.799,6.439,6.799c2.839,0,4.759-1.32,5.358-4.04H1041.895z
		 M1038.615,385.608c-0.2-3.24-2.56-5.839-5.959-5.839c-3.52,0-5.719,2.639-5.919,5.839H1038.615z"/>
	<path d="M1055.056,397.926h-3.64l-7.679-20.677h3.8l5.799,17.237h0.08l5.639-17.237h3.56L1055.056,397.926z"/>
	<path d="M1069.337,373.53h-3.399v-4.159h3.399V373.53z M1065.938,377.25h3.399v20.677h-3.399V377.25z"/>
	<path d="M1092.934,397.846c-0.601,0.36-1.44,0.56-2.44,0.56c-1.76,0-2.879-0.96-2.879-3.2c-1.88,2.24-4.399,3.2-7.279,3.2
		c-3.759,0-6.839-1.64-6.839-5.799c0-4.679,3.479-5.719,6.999-6.359c3.72-0.76,6.959-0.44,6.959-3.039c0-3-2.479-3.439-4.6-3.439
		c-2.879,0-4.999,0.88-5.159,3.919h-3.399c0.2-5.119,4.12-6.918,8.759-6.918c3.72,0,7.759,0.84,7.759,5.679v10.638
		c0,1.6,0,2.32,1.08,2.32c0.319,0,0.68-0.08,1.04-0.2V397.846z M1087.414,387.248c-2.64,1.959-10.318,0.04-10.318,5.119
		c0,2.24,1.92,3.04,3.999,3.04c4.479,0,6.319-2.76,6.319-4.679V387.248z"/>
	<path d="M1100.814,377.25h4.12v3h-4.12v12.838c0,1.6,0.44,1.84,2.56,1.84h1.561v3h-2.6c-3.52,0-4.92-0.72-4.92-4.519v-13.158
		h-3.519v-3h3.519v-6.199h3.399V377.25z"/>
	<path d="M1112.295,373.53h-3.399v-4.159h3.399V373.53z M1108.896,377.25h3.399v20.677h-3.399V377.25z"/>
	<path d="M1126.494,376.77c6.559,0,10.038,4.759,10.038,10.838c0,6.039-3.479,10.798-10.038,10.798
		c-6.56,0-10.039-4.759-10.039-10.798C1116.455,381.529,1119.935,376.77,1126.494,376.77z M1126.494,395.407
		c3.559,0,6.438-2.8,6.438-7.799s-2.88-7.838-6.438-7.838c-3.56,0-6.439,2.839-6.439,7.838S1122.935,395.407,1126.494,395.407z"/>
	<path d="M1140.534,377.25h3.199v3.28h0.08c1.439-2.56,3.72-3.759,6.719-3.759c5.439,0,7.119,3.119,7.119,7.559v13.598h-3.399
		v-13.998c0-2.56-1.6-4.159-4.199-4.159c-4.119,0-6.119,2.759-6.119,6.479v11.678h-3.399V377.25z"/>
</g>
<path fill="#89BE46" d="M699,384.314c0,20.351-16.498,36.849-36.849,36.849c-20.352,0-36.85-16.498-36.85-36.849
	c0-20.351,16.498-36.849,36.85-36.849C682.502,347.466,699,363.964,699,384.314"/>
<g>
	<path fill="#FFFFFF" d="M654.976,383.568c-0.173-5.527,2.971-9.777,8.774-9.777c4.422,0,8.291,2.833,8.291,7.566
		c0,7.324-7.773,7.911-11.296,12.885h11.435v4.215h-17.756c0-5.631,3.455-7.945,7.634-10.813c2.107-1.485,5.079-2.936,5.079-5.907
		c0-2.314-1.52-3.731-3.627-3.731c-2.902,0-3.834,3.005-3.834,5.562H654.976z"/>
</g>
<g>
	<path d="M739.18,471.958h4.199l11.158,28.555h-4.2l-3.119-8.599H735.14l-3.2,8.599h-3.919L739.18,471.958z M736.34,488.715h9.678
		l-4.759-13.318h-0.08L736.34,488.715z"/>
	<path d="M758.86,493.994c0.12,3.04,2.8,4,5.559,4c2.12,0,4.999-0.48,4.999-3.08c0-5.319-13.518-1.72-13.518-9.678
		c0-4.159,4.08-5.879,7.719-5.879c4.639,0,8.159,1.439,8.479,6.479h-3.399c-0.2-2.639-2.6-3.479-4.799-3.479
		c-2.04,0-4.399,0.56-4.399,2.639c0,2.4,3.599,2.88,6.759,3.6c3.399,0.76,6.759,1.919,6.759,5.879c0,4.959-4.599,6.519-8.798,6.519
		c-4.64,0-8.559-1.88-8.759-6.999H758.86z"/>
	<path d="M778.86,493.994c0.12,3.04,2.8,4,5.559,4c2.12,0,4.999-0.48,4.999-3.08c0-5.319-13.518-1.72-13.518-9.678
		c0-4.159,4.08-5.879,7.719-5.879c4.639,0,8.159,1.439,8.479,6.479h-3.399c-0.2-2.639-2.6-3.479-4.799-3.479
		c-2.04,0-4.399,0.56-4.399,2.639c0,2.4,3.599,2.88,6.759,3.6c3.399,0.76,6.759,1.919,6.759,5.879c0,4.959-4.599,6.519-8.798,6.519
		c-4.64,0-8.559-1.88-8.759-6.999H778.86z"/>
	<path d="M814.418,493.954c-0.92,4.6-4.16,7.039-8.839,7.039c-6.599,0-9.718-4.599-9.918-10.878c0-6.239,4.079-10.758,9.718-10.758
		c7.319,0,9.558,6.839,9.358,11.838H799.26c-0.12,3.599,1.92,6.799,6.439,6.799c2.839,0,4.759-1.32,5.359-4.04H814.418z
		 M811.138,488.195c-0.2-3.24-2.56-5.839-5.959-5.839c-3.519,0-5.719,2.639-5.919,5.839H811.138z"/>
	<path d="M820.34,493.994c0.12,3.04,2.8,4,5.559,4c2.12,0,4.999-0.48,4.999-3.08c0-5.319-13.518-1.72-13.518-9.678
		c0-4.159,4.08-5.879,7.719-5.879c4.639,0,8.159,1.439,8.479,6.479h-3.399c-0.2-2.639-2.6-3.479-4.799-3.479
		c-2.04,0-4.399,0.56-4.399,2.639c0,2.4,3.599,2.88,6.759,3.6c3.399,0.76,6.759,1.919,6.759,5.879c0,4.959-4.599,6.519-8.798,6.519
		c-4.64,0-8.559-1.88-8.759-6.999H820.34z"/>
	<path d="M840.34,493.994c0.12,3.04,2.8,4,5.559,4c2.12,0,4.999-0.48,4.999-3.08c0-5.319-13.518-1.72-13.518-9.678
		c0-4.159,4.08-5.879,7.719-5.879c4.639,0,8.159,1.439,8.479,6.479h-3.399c-0.2-2.639-2.6-3.479-4.799-3.479
		c-2.04,0-4.399,0.56-4.399,2.639c0,2.4,3.599,2.88,6.759,3.6c3.399,0.76,6.759,1.919,6.759,5.879c0,4.959-4.599,6.519-8.798,6.519
		c-4.64,0-8.559-1.88-8.759-6.999H840.34z"/>
	<path d="M869.94,471.958h12.518c5.719,0,8.759,3.12,8.759,8.438c0,5.319-3.04,8.479-8.759,8.438h-8.718v11.678h-3.799V471.958z
		 M873.739,485.636h7.438c4.319,0.04,6.239-1.84,6.239-5.239s-1.92-5.239-6.239-5.239h-7.438V485.636z"/>
	<path d="M895.18,479.836h3.2v4.359h0.08c1.64-3.359,3.919-4.959,7.599-4.839v3.599c-5.479,0-7.479,3.08-7.479,8.359v9.198h-3.399
		V479.836z"/>
	<path d="M917.538,479.357c6.559,0,10.038,4.759,10.038,10.838c0,6.039-3.479,10.798-10.038,10.798
		c-6.559,0-10.038-4.759-10.038-10.798C907.5,484.116,910.979,479.357,917.538,479.357z M917.538,497.994
		c3.56,0,6.438-2.8,6.438-7.799s-2.879-7.838-6.438-7.838s-6.439,2.839-6.439,7.838S913.979,497.994,917.538,497.994z"/>
	<path d="M945.617,486.476c-0.521-2.6-2.28-4.119-5.119-4.119c-4.92,0-6.439,3.919-6.439,8.079c0,3.839,1.72,7.559,6.039,7.559
		c3.319,0,5.239-1.88,5.679-5.039h3.479c-0.76,5.079-3.879,8.039-9.118,8.039c-6.319,0-9.679-4.359-9.679-10.558
		c0-6.199,3.2-11.078,9.759-11.078c4.719,0,8.398,2.199,8.918,7.119H945.617z"/>
	<path d="M970.695,493.954c-0.92,4.6-4.159,7.039-8.838,7.039c-6.6,0-9.719-4.599-9.919-10.878c0-6.239,4.08-10.758,9.719-10.758
		c7.318,0,9.559,6.839,9.358,11.838h-15.478c-0.12,3.599,1.92,6.799,6.439,6.799c2.839,0,4.759-1.32,5.358-4.04H970.695z
		 M967.416,488.195c-0.2-3.24-2.56-5.839-5.959-5.839c-3.52,0-5.719,2.639-5.919,5.839H967.416z"/>
	<path d="M976.618,493.994c0.119,3.04,2.799,4,5.559,4c2.12,0,4.999-0.48,4.999-3.08c0-5.319-13.518-1.72-13.518-9.678
		c0-4.159,4.079-5.879,7.719-5.879c4.64,0,8.158,1.439,8.479,6.479h-3.399c-0.2-2.639-2.6-3.479-4.799-3.479
		c-2.04,0-4.399,0.56-4.399,2.639c0,2.4,3.6,2.88,6.759,3.6c3.399,0.76,6.759,1.919,6.759,5.879c0,4.959-4.6,6.519-8.799,6.519
		c-4.639,0-8.559-1.88-8.758-6.999H976.618z"/>
	<path d="M996.618,493.994c0.119,3.04,2.799,4,5.559,4c2.12,0,4.999-0.48,4.999-3.08c0-5.319-13.518-1.72-13.518-9.678
		c0-4.159,4.079-5.879,7.719-5.879c4.64,0,8.158,1.439,8.479,6.479h-3.399c-0.2-2.639-2.6-3.479-4.799-3.479
		c-2.04,0-4.399,0.56-4.399,2.639c0,2.4,3.6,2.88,6.759,3.6c3.399,0.76,6.759,1.919,6.759,5.879c0,4.959-4.6,6.519-8.799,6.519
		c-4.639,0-8.559-1.88-8.758-6.999H996.618z"/>
	<path d="M1026.218,471.958h9.799c8.799,0,13.718,4.439,13.718,13.598c0,9.559-4.199,14.958-13.718,14.958h-9.799V471.958z
		 M1030.018,497.313h6.318c2.6,0,9.599-0.72,9.599-11.238c0-6.799-2.52-10.918-9.519-10.918h-6.398V497.313z"/>
	<path d="M1071.455,493.954c-0.92,4.6-4.159,7.039-8.838,7.039c-6.6,0-9.719-4.599-9.919-10.878c0-6.239,4.08-10.758,9.719-10.758
		c7.318,0,9.559,6.839,9.358,11.838h-15.478c-0.12,3.599,1.92,6.799,6.439,6.799c2.839,0,4.759-1.32,5.358-4.04H1071.455z
		 M1068.176,488.195c-0.2-3.24-2.56-5.839-5.959-5.839c-3.52,0-5.719,2.639-5.919,5.839H1068.176z"/>
	<path d="M1084.616,500.513h-3.64l-7.679-20.677h3.8l5.799,17.237h0.08l5.639-17.237h3.56L1084.616,500.513z"/>
	<path d="M1098.897,476.117h-3.399v-4.159h3.399V476.117z M1095.498,479.836h3.399v20.677h-3.399V479.836z"/>
	<path d="M1122.494,500.433c-0.601,0.36-1.44,0.56-2.44,0.56c-1.76,0-2.879-0.96-2.879-3.2c-1.88,2.24-4.399,3.2-7.279,3.2
		c-3.759,0-6.839-1.64-6.839-5.799c0-4.679,3.479-5.719,6.999-6.359c3.72-0.76,6.959-0.44,6.959-3.039c0-3-2.479-3.439-4.6-3.439
		c-2.879,0-4.999,0.88-5.159,3.919h-3.399c0.2-5.119,4.12-6.918,8.759-6.918c3.72,0,7.759,0.84,7.759,5.679v10.638
		c0,1.6,0,2.32,1.08,2.32c0.319,0,0.68-0.08,1.04-0.2V500.433z M1116.975,489.835c-2.64,1.959-10.318,0.04-10.318,5.119
		c0,2.24,1.92,3.04,3.999,3.04c4.479,0,6.319-2.76,6.319-4.679V489.835z"/>
	<path d="M1130.375,479.836h4.12v3h-4.12v12.838c0,1.6,0.44,1.84,2.56,1.84h1.561v3h-2.6c-3.52,0-4.92-0.72-4.92-4.519v-13.158
		h-3.519v-3h3.519v-6.199h3.399V479.836z"/>
	<path d="M1141.855,476.117h-3.399v-4.159h3.399V476.117z M1138.456,479.836h3.399v20.677h-3.399V479.836z"/>
	<path d="M1156.055,479.357c6.559,0,10.038,4.759,10.038,10.838c0,6.039-3.479,10.798-10.038,10.798
		c-6.56,0-10.039-4.759-10.039-10.798C1146.016,484.116,1149.495,479.357,1156.055,479.357z M1156.055,497.994
		c3.559,0,6.438-2.8,6.438-7.799s-2.88-7.838-6.438-7.838c-3.56,0-6.439,2.839-6.439,7.838S1152.495,497.994,1156.055,497.994z"/>
	<path d="M1170.095,479.836h3.199v3.28h0.08c1.439-2.56,3.72-3.759,6.719-3.759c5.439,0,7.119,3.119,7.119,7.559v13.598h-3.399
		v-13.998c0-2.56-1.6-4.159-4.199-4.159c-4.119,0-6.119,2.759-6.119,6.479v11.678h-3.399V479.836z"/>
	<path d="M1207.055,476.117h-3.399v-4.159h3.399V476.117z M1203.655,479.836h3.399v20.677h-3.399V479.836z"/>
	<path d="M1212.334,479.836h3.199v3.04h0.08c1.56-2.359,3.76-3.519,6.679-3.519c2.56,0,4.84,0.959,5.68,3.519
		c1.399-2.239,3.799-3.519,6.479-3.519c4.119,0,6.879,1.72,6.879,5.999v15.157h-3.399v-13.558c0-2.56-0.68-4.599-3.999-4.599
		s-5.399,2.08-5.399,5.279v12.878h-3.399v-13.558c0-2.68-0.84-4.599-3.879-4.599c-4,0-5.52,3.679-5.52,5.279v12.878h-3.399V479.836z
		"/>
	<path d="M1246.574,479.836h3.399v2.8h0.08c1.119-2.28,3.719-3.279,6.599-3.279c6.359,0,9.519,5.039,9.519,10.878
		c0,5.879-3.119,10.758-9.438,10.758c-2.08,0-5.199-0.8-6.679-3.24h-0.08v10.678h-3.399V479.836z M1256.173,482.356
		c-4.6,0-6.319,3.959-6.319,7.798c0,4.04,1.84,7.839,6.519,7.839c4.64,0,6.199-3.959,6.199-7.999
		C1262.571,486.116,1260.571,482.356,1256.173,482.356z"/>
	<path d="M1288.491,500.433c-0.601,0.36-1.44,0.56-2.44,0.56c-1.76,0-2.879-0.96-2.879-3.2c-1.88,2.24-4.399,3.2-7.279,3.2
		c-3.759,0-6.839-1.64-6.839-5.799c0-4.679,3.479-5.719,6.999-6.359c3.72-0.76,6.959-0.44,6.959-3.039c0-3-2.479-3.439-4.6-3.439
		c-2.879,0-4.999,0.88-5.159,3.919h-3.399c0.2-5.119,4.12-6.918,8.759-6.918c3.72,0,7.759,0.84,7.759,5.679v10.638
		c0,1.6,0,2.32,1.08,2.32c0.319,0,0.68-0.08,1.04-0.2V500.433z M1282.972,489.835c-2.64,1.959-10.318,0.04-10.318,5.119
		c0,2.24,1.92,3.04,3.999,3.04c4.479,0,6.319-2.76,6.319-4.679V489.835z"/>
	<path d="M1305.691,486.476c-0.521-2.6-2.28-4.119-5.119-4.119c-4.92,0-6.439,3.919-6.439,8.079c0,3.839,1.72,7.559,6.039,7.559
		c3.319,0,5.239-1.88,5.679-5.039h3.479c-0.76,5.079-3.879,8.039-9.118,8.039c-6.319,0-9.679-4.359-9.679-10.558
		c0-6.199,3.2-11.078,9.759-11.078c4.719,0,8.398,2.199,8.918,7.119H1305.691z"/>
	<path d="M1317.852,479.836h4.12v3h-4.12v12.838c0,1.6,0.44,1.84,2.56,1.84h1.561v3h-2.6c-3.52,0-4.92-0.72-4.92-4.519v-13.158
		h-3.519v-3h3.519v-6.199h3.399V479.836z"/>
</g>
<path fill="#89BE46" d="M699,486.901c0,20.351-16.498,36.849-36.849,36.849c-20.352,0-36.85-16.498-36.85-36.849
	c0-20.351,16.498-36.849,36.85-36.849C682.502,450.052,699,466.55,699,486.901"/>
<g>
	<path fill="#FFFFFF" d="M661.574,486.638c2.107,0.173,5.147-0.242,5.147-3.005c0-2.073-1.624-3.213-3.42-3.213
		c-2.487,0-3.766,1.831-3.731,4.318h-4.664c0.173-4.975,3.351-8.36,8.36-8.36c3.869,0,8.118,2.384,8.118,6.702
		c0,2.314-1.14,4.284-3.385,4.94v0.069c2.66,0.587,4.283,2.764,4.283,5.493c0,5.078-4.283,7.945-8.981,7.945
		c-5.424,0-9.086-3.247-8.982-8.809h4.664c0.104,2.625,1.416,4.768,4.249,4.768c2.211,0,3.938-1.486,3.938-3.8
		c0-3.662-3.213-3.593-5.597-3.593V486.638z"/>
</g>
<g>
	<path d="M751.498,731.654c-0.84-4.039-4-6.078-7.999-6.078c-6.799,0-9.678,5.599-9.678,11.558c0,6.519,2.879,11.958,9.718,11.958
		c4.959,0,7.919-3.52,8.239-8.238h3.799c-0.76,7.158-5.119,11.438-12.358,11.438c-8.838,0-13.198-6.559-13.198-14.877
		c0-8.319,4.719-15.038,13.518-15.038c5.959,0,10.918,3.2,11.758,9.278H751.498z"/>
	<path d="M759.94,723.056h3.399v28.556h-3.399V723.056z"/>
	<path d="M777.538,730.455c6.559,0,10.039,4.759,10.039,10.838c0,6.039-3.479,10.798-10.039,10.798s-10.038-4.759-10.038-10.798
		C767.5,735.214,770.979,730.455,777.538,730.455z M777.538,749.092c3.56,0,6.439-2.8,6.439-7.799s-2.879-7.839-6.439-7.839
		s-6.439,2.84-6.439,7.839S773.979,749.092,777.538,749.092z"/>
	<path d="M793.659,745.093c0.12,3.039,2.8,3.999,5.559,3.999c2.12,0,4.999-0.479,4.999-3.079c0-5.319-13.518-1.72-13.518-9.679
		c0-4.159,4.079-5.879,7.719-5.879c4.639,0,8.159,1.439,8.479,6.479h-3.399c-0.2-2.64-2.6-3.479-4.799-3.479
		c-2.04,0-4.399,0.561-4.399,2.64c0,2.399,3.599,2.88,6.759,3.6c3.399,0.76,6.759,1.92,6.759,5.879c0,4.959-4.599,6.519-8.798,6.519
		c-4.64,0-8.559-1.879-8.759-6.998H793.659z"/>
	<path d="M829.216,745.053c-0.92,4.599-4.16,7.038-8.839,7.038c-6.599,0-9.718-4.599-9.918-10.878
		c0-6.238,4.079-10.758,9.718-10.758c7.319,0,9.558,6.839,9.358,11.838h-15.478c-0.12,3.6,1.92,6.799,6.439,6.799
		c2.839,0,4.759-1.32,5.359-4.039H829.216z M825.937,739.293c-0.2-3.239-2.56-5.839-5.959-5.839c-3.519,0-5.719,2.64-5.919,5.839
		H825.937z"/>
	<path d="M844.739,723.056h12.518c5.719,0,8.759,3.12,8.759,8.439c0,5.318-3.04,8.479-8.759,8.438h-8.718v11.678h-3.799V723.056z
		 M848.538,736.733h7.438c4.319,0.04,6.239-1.839,6.239-5.238s-1.92-5.239-6.239-5.239h-7.438V736.733z"/>
	<path d="M869.979,730.935h3.2v4.359h0.08c1.64-3.359,3.919-4.959,7.599-4.839v3.6c-5.479,0-7.479,3.079-7.479,8.358v9.198h-3.399
		V730.935z"/>
	<path d="M892.336,730.455c6.559,0,10.039,4.759,10.039,10.838c0,6.039-3.479,10.798-10.039,10.798s-10.038-4.759-10.038-10.798
		C882.298,735.214,885.777,730.455,892.336,730.455z M892.336,749.092c3.56,0,6.439-2.8,6.439-7.799s-2.879-7.839-6.439-7.839
		s-6.439,2.84-6.439,7.839S888.777,749.092,892.336,749.092z"/>
	<path d="M920.416,737.573c-0.52-2.599-2.28-4.119-5.119-4.119c-4.919,0-6.439,3.92-6.439,8.079c0,3.839,1.72,7.559,6.039,7.559
		c3.319,0,5.239-1.88,5.679-5.039h3.479c-0.76,5.079-3.879,8.038-9.118,8.038c-6.319,0-9.678-4.358-9.678-10.558
		s3.199-11.078,9.758-11.078c4.719,0,8.398,2.199,8.918,7.118H920.416z"/>
	<path d="M945.494,745.053c-0.92,4.599-4.159,7.038-8.838,7.038c-6.6,0-9.719-4.599-9.919-10.878c0-6.238,4.08-10.758,9.719-10.758
		c7.318,0,9.559,6.839,9.358,11.838h-15.478c-0.12,3.6,1.92,6.799,6.439,6.799c2.839,0,4.759-1.32,5.358-4.039H945.494z
		 M942.215,739.293c-0.2-3.239-2.56-5.839-5.959-5.839c-3.52,0-5.719,2.64-5.919,5.839H942.215z"/>
	<path d="M951.417,745.093c0.119,3.039,2.799,3.999,5.559,3.999c2.12,0,4.999-0.479,4.999-3.079c0-5.319-13.518-1.72-13.518-9.679
		c0-4.159,4.079-5.879,7.719-5.879c4.64,0,8.158,1.439,8.479,6.479h-3.399c-0.2-2.64-2.6-3.479-4.799-3.479
		c-2.04,0-4.399,0.561-4.399,2.64c0,2.399,3.6,2.88,6.759,3.6c3.399,0.76,6.759,1.92,6.759,5.879c0,4.959-4.6,6.519-8.799,6.519
		c-4.639,0-8.559-1.879-8.758-6.998H951.417z"/>
	<path d="M971.417,745.093c0.119,3.039,2.799,3.999,5.559,3.999c2.12,0,4.999-0.479,4.999-3.079c0-5.319-13.518-1.72-13.518-9.679
		c0-4.159,4.079-5.879,7.719-5.879c4.64,0,8.158,1.439,8.479,6.479h-3.399c-0.2-2.64-2.6-3.479-4.799-3.479
		c-2.04,0-4.399,0.561-4.399,2.64c0,2.399,3.6,2.88,6.759,3.6c3.399,0.76,6.759,1.92,6.759,5.879c0,4.959-4.6,6.519-8.799,6.519
		c-4.639,0-8.559-1.879-8.758-6.998H971.417z"/>
	<path d="M1001.017,723.056h9.799c8.799,0,13.718,4.439,13.718,13.599c0,9.558-4.199,14.957-13.718,14.957h-9.799V723.056z
		 M1004.816,748.412h6.318c2.6,0,9.599-0.72,9.599-11.238c0-6.799-2.52-10.918-9.519-10.918h-6.398V748.412z"/>
	<path d="M1046.253,745.053c-0.92,4.599-4.159,7.038-8.838,7.038c-6.6,0-9.719-4.599-9.919-10.878c0-6.238,4.08-10.758,9.719-10.758
		c7.318,0,9.559,6.839,9.358,11.838h-15.478c-0.12,3.6,1.92,6.799,6.439,6.799c2.839,0,4.759-1.32,5.358-4.039H1046.253z
		 M1042.974,739.293c-0.2-3.239-2.56-5.839-5.959-5.839c-3.52,0-5.719,2.64-5.919,5.839H1042.974z"/>
	<path d="M1059.414,751.611h-3.64l-7.679-20.677h3.8l5.799,17.237h0.08l5.639-17.237h3.56L1059.414,751.611z"/>
	<path d="M1073.695,727.216h-3.399v-4.16h3.399V727.216z M1070.296,730.935h3.399v20.677h-3.399V730.935z"/>
	<path d="M1097.293,751.531c-0.601,0.36-1.44,0.56-2.44,0.56c-1.76,0-2.879-0.959-2.879-3.199c-1.88,2.24-4.399,3.199-7.279,3.199
		c-3.759,0-6.839-1.64-6.839-5.799c0-4.679,3.479-5.719,6.999-6.358c3.72-0.76,6.959-0.44,6.959-3.04c0-2.999-2.479-3.439-4.6-3.439
		c-2.879,0-4.999,0.88-5.159,3.92h-3.399c0.2-5.119,4.12-6.919,8.759-6.919c3.72,0,7.759,0.84,7.759,5.679v10.639
		c0,1.6,0,2.319,1.08,2.319c0.319,0,0.68-0.08,1.04-0.2V751.531z M1091.773,740.934c-2.64,1.959-10.318,0.039-10.318,5.119
		c0,2.239,1.92,3.039,3.999,3.039c4.479,0,6.319-2.76,6.319-4.68V740.934z"/>
	<path d="M1105.174,730.935h4.12v3h-4.12v12.838c0,1.6,0.44,1.84,2.56,1.84h1.561v2.999h-2.6c-3.52,0-4.92-0.72-4.92-4.52v-13.157
		h-3.519v-3h3.519v-6.198h3.399V730.935z"/>
	<path d="M1116.654,727.216h-3.399v-4.16h3.399V727.216z M1113.255,730.935h3.399v20.677h-3.399V730.935z"/>
	<path d="M1130.853,730.455c6.559,0,10.038,4.759,10.038,10.838c0,6.039-3.479,10.798-10.038,10.798
		c-6.56,0-10.039-4.759-10.039-10.798C1120.813,735.214,1124.293,730.455,1130.853,730.455z M1130.853,749.092
		c3.559,0,6.438-2.8,6.438-7.799s-2.88-7.839-6.438-7.839c-3.56,0-6.439,2.84-6.439,7.839S1127.293,749.092,1130.853,749.092z"/>
	<path d="M1144.894,730.935h3.199v3.279h0.08c1.439-2.56,3.72-3.759,6.719-3.759c5.439,0,7.119,3.119,7.119,7.559v13.598h-3.399
		v-13.998c0-2.56-1.6-4.159-4.199-4.159c-4.119,0-6.119,2.76-6.119,6.479v11.678h-3.399V730.935z"/>
</g>
<path fill="#89BE46" d="M699,738c0,20.351-16.498,36.849-36.849,36.849c-20.352,0-36.85-16.498-36.85-36.849
	s16.498-36.849,36.85-36.849C682.502,701.151,699,717.649,699,738"/>
<g>
	<path fill="#FFFFFF" d="M670.971,732.002h-9.984l-0.967,5.493l0.069,0.069c1.347-1.348,2.798-1.865,4.732-1.865
		c4.768,0,7.462,3.696,7.462,8.222c0,4.975-4.146,8.809-8.981,8.705c-4.698,0-8.878-2.591-8.982-7.669h4.906
		c0.242,2.177,1.796,3.627,3.973,3.627c2.557,0,4.18-2.245,4.18-4.663c0-2.522-1.555-4.525-4.18-4.525
		c-1.762,0-2.729,0.587-3.696,1.935h-4.422l2.384-13.369h13.507V732.002z"/>
</g>
<g>
	<path d="M731.581,577.371h3.799v28.556h-3.799V577.371z"/>
	<path d="M741.22,585.25h3.2v3.279h0.08c1.44-2.56,3.72-3.759,6.719-3.759c5.439,0,7.119,3.119,7.119,7.559v13.598h-3.399v-13.998
		c0-2.56-1.6-4.159-4.199-4.159c-4.12,0-6.119,2.76-6.119,6.479v11.678h-3.399V585.25z"/>
	<path d="M772.778,605.927h-3.639l-7.679-20.677h3.799l5.799,17.237h0.08l5.639-17.237h3.559L772.778,605.927z"/>
	<path d="M801.097,599.368c-0.92,4.599-4.16,7.038-8.839,7.038c-6.599,0-9.718-4.599-9.918-10.878
		c0-6.239,4.079-10.758,9.718-10.758c7.319,0,9.558,6.839,9.358,11.838h-15.478c-0.12,3.6,1.92,6.799,6.439,6.799
		c2.839,0,4.759-1.319,5.359-4.039H801.097z M797.817,593.608c-0.2-3.239-2.56-5.839-5.959-5.839c-3.519,0-5.719,2.64-5.919,5.839
		H797.817z"/>
	<path d="M807.019,599.408c0.12,3.039,2.8,3.999,5.559,3.999c2.12,0,4.999-0.479,4.999-3.079c0-5.319-13.518-1.72-13.518-9.679
		c0-4.159,4.079-5.879,7.719-5.879c4.639,0,8.159,1.439,8.479,6.479h-3.399c-0.2-2.64-2.6-3.479-4.799-3.479
		c-2.04,0-4.399,0.561-4.399,2.64c0,2.399,3.599,2.88,6.759,3.6c3.399,0.76,6.759,1.92,6.759,5.879c0,4.959-4.599,6.519-8.798,6.519
		c-4.64,0-8.559-1.879-8.759-6.998H807.019z"/>
	<path d="M829.659,585.25h4.119v3h-4.119v12.838c0,1.6,0.44,1.84,2.56,1.84h1.56v2.999h-2.6c-3.519,0-4.919-0.72-4.919-4.52V588.25
		h-3.52v-3h3.52v-6.199h3.399V585.25z"/>
	<path d="M841.139,581.531h-3.399v-4.16h3.399V581.531z M837.739,585.25h3.399v20.677h-3.399V585.25z"/>
	<path d="M864.255,604.167c0,6.759-3.04,10.158-9.598,10.158c-3.879,0-8.359-1.6-8.559-6.079h3.399
		c0.12,2.439,3.159,3.359,5.359,3.359c4.439,0,6.199-3.199,6.199-7.838v-1.36h-0.08c-1.16,2.52-3.799,3.76-6.439,3.76
		c-6.159,0-9.238-4.84-9.238-10.479c0-4.879,2.359-10.918,9.558-10.918c2.6,0,4.919,1.159,6.159,3.439h0.04v-2.96h3.199V604.167z
		 M860.896,595.169c0-3.64-1.6-7.399-5.879-7.399c-4.359,0-6.119,3.56-6.119,7.519c0,3.72,1.36,7.879,5.839,7.879
		C859.216,603.167,860.896,599.048,860.896,595.169z"/>
	<path d="M887.695,605.847c-0.6,0.36-1.44,0.56-2.439,0.56c-1.76,0-2.879-0.959-2.879-3.199c-1.88,2.24-4.399,3.199-7.279,3.199
		c-3.76,0-6.839-1.64-6.839-5.799c0-4.679,3.479-5.719,6.999-6.358c3.72-0.76,6.959-0.44,6.959-3.04
		c0-2.999-2.479-3.439-4.599-3.439c-2.88,0-5,0.88-5.159,3.92h-3.399c0.2-5.119,4.119-6.919,8.758-6.919
		c3.72,0,7.759,0.84,7.759,5.679v10.639c0,1.6,0,2.319,1.08,2.319c0.32,0,0.68-0.08,1.04-0.2V605.847z M882.176,595.249
		c-2.64,1.959-10.318,0.039-10.318,5.119c0,2.239,1.92,3.039,4,3.039c4.479,0,6.319-2.76,6.319-4.68V595.249z"/>
	<path d="M895.577,585.25h4.119v3h-4.119v12.838c0,1.6,0.44,1.84,2.56,1.84h1.56v2.999h-2.6c-3.519,0-4.919-0.72-4.919-4.52V588.25
		h-3.52v-3h3.52v-6.199h3.399V585.25z"/>
	<path d="M921.094,599.368c-0.92,4.599-4.16,7.038-8.839,7.038c-6.599,0-9.718-4.599-9.918-10.878
		c0-6.239,4.079-10.758,9.718-10.758c7.319,0,9.558,6.839,9.358,11.838h-15.478c-0.12,3.6,1.92,6.799,6.439,6.799
		c2.839,0,4.759-1.319,5.359-4.039H921.094z M917.814,593.608c-0.2-3.239-2.56-5.839-5.959-5.839c-3.519,0-5.719,2.64-5.919,5.839
		H917.814z"/>
	<path d="M954.374,605.847c-0.601,0.36-1.44,0.56-2.44,0.56c-1.76,0-2.879-0.959-2.879-3.199c-1.88,2.24-4.399,3.199-7.279,3.199
		c-3.759,0-6.839-1.64-6.839-5.799c0-4.679,3.479-5.719,6.999-6.358c3.72-0.76,6.959-0.44,6.959-3.04c0-2.999-2.479-3.439-4.6-3.439
		c-2.879,0-4.999,0.88-5.159,3.92h-3.399c0.2-5.119,4.12-6.919,8.759-6.919c3.72,0,7.759,0.84,7.759,5.679v10.639
		c0,1.6,0,2.319,1.08,2.319c0.319,0,0.68-0.08,1.04-0.2V605.847z M948.854,595.249c-2.64,1.959-10.318,0.039-10.318,5.119
		c0,2.239,1.92,3.039,3.999,3.039c4.479,0,6.319-2.76,6.319-4.68V595.249z"/>
	<path d="M957.536,585.25h3.199v3.279h0.08c1.439-2.56,3.72-3.759,6.719-3.759c5.439,0,7.119,3.119,7.119,7.559v13.598h-3.399
		v-13.998c0-2.56-1.6-4.159-4.199-4.159c-4.119,0-6.119,2.76-6.119,6.479v11.678h-3.399V585.25z"/>
	<path d="M998.253,605.927h-3.399v-2.8h-0.08c-1.119,2.28-3.719,3.279-6.599,3.279c-6.358,0-9.519-5.039-9.519-10.878
		s3.12-10.758,9.438-10.758c2.08,0,5.199,0.8,6.679,3.239h0.08v-10.639h3.399V605.927z M988.655,603.407
		c4.599,0,6.318-3.959,6.318-7.799c0-4.039-1.84-7.839-6.519-7.839c-4.64,0-6.199,3.96-6.199,7.999
		C982.256,599.647,984.256,603.407,988.655,603.407z"/>
	<path d="M1028.654,591.889c-0.521-2.6-2.28-4.119-5.119-4.119c-4.92,0-6.439,3.92-6.439,8.079c0,3.839,1.72,7.559,6.039,7.559
		c3.319,0,5.239-1.88,5.679-5.039h3.479c-0.76,5.079-3.879,8.038-9.118,8.038c-6.319,0-9.679-4.358-9.679-10.558
		s3.2-11.078,9.759-11.078c4.719,0,8.398,2.199,8.918,7.118H1028.654z"/>
	<path d="M1045.015,584.771c6.559,0,10.038,4.759,10.038,10.838c0,6.039-3.479,10.798-10.038,10.798
		c-6.56,0-10.039-4.759-10.039-10.798C1034.976,589.529,1038.455,584.771,1045.015,584.771z M1045.015,603.407
		c3.559,0,6.438-2.8,6.438-7.799s-2.88-7.839-6.438-7.839c-3.56,0-6.439,2.84-6.439,7.839S1041.455,603.407,1045.015,603.407z"/>
	<path d="M1058.936,585.25h3.199v4.359h0.08c1.64-3.359,3.92-4.959,7.599-4.839v3.6c-5.479,0-7.479,3.079-7.479,8.358v9.198h-3.399
		V585.25z"/>
	<path d="M1072.255,585.25h3.199v4.359h0.08c1.64-3.359,3.92-4.959,7.599-4.839v3.6c-5.479,0-7.479,3.079-7.479,8.358v9.198h-3.399
		V585.25z"/>
	<path d="M1103.331,599.368c-0.92,4.599-4.159,7.038-8.838,7.038c-6.6,0-9.719-4.599-9.919-10.878c0-6.239,4.08-10.758,9.719-10.758
		c7.318,0,9.559,6.839,9.358,11.838h-15.478c-0.12,3.6,1.92,6.799,6.439,6.799c2.839,0,4.759-1.319,5.358-4.039H1103.331z
		 M1100.052,593.608c-0.2-3.239-2.56-5.839-5.959-5.839c-3.52,0-5.719,2.64-5.919,5.839H1100.052z"/>
	<path d="M1121.212,591.889c-0.521-2.6-2.28-4.119-5.119-4.119c-4.92,0-6.439,3.92-6.439,8.079c0,3.839,1.72,7.559,6.039,7.559
		c3.319,0,5.239-1.88,5.679-5.039h3.479c-0.76,5.079-3.879,8.038-9.118,8.038c-6.319,0-9.679-4.358-9.679-10.558
		s3.2-11.078,9.759-11.078c4.719,0,8.398,2.199,8.918,7.118H1121.212z"/>
	<path d="M1133.372,585.25h4.12v3h-4.12v12.838c0,1.6,0.44,1.84,2.56,1.84h1.561v2.999h-2.6c-3.52,0-4.92-0.72-4.92-4.52V588.25
		h-3.519v-3h3.519v-6.199h3.399V585.25z"/>
</g>
<g>
	<path d="M731.421,625.371h12.518c5.719,0,8.759,3.12,8.759,8.439c0,5.318-3.04,8.479-8.759,8.438h-8.718v11.678h-3.799V625.371z
		 M735.22,639.049h7.438c4.319,0.04,6.239-1.839,6.239-5.238s-1.92-5.239-6.239-5.239h-7.438V639.049z"/>
	<path d="M756.661,633.25h3.2v4.359h0.08c1.64-3.359,3.919-4.959,7.599-4.839v3.6c-5.479,0-7.479,3.079-7.479,8.358v9.198h-3.399
		V633.25z"/>
	<path d="M779.019,632.771c6.559,0,10.039,4.759,10.039,10.838c0,6.039-3.479,10.798-10.039,10.798s-10.038-4.759-10.038-10.798
		C768.981,637.529,772.46,632.771,779.019,632.771z M779.019,651.407c3.56,0,6.439-2.8,6.439-7.799s-2.879-7.839-6.439-7.839
		s-6.439,2.84-6.439,7.839S775.459,651.407,779.019,651.407z"/>
	<path d="M807.098,639.889c-0.52-2.6-2.28-4.119-5.119-4.119c-4.919,0-6.439,3.92-6.439,8.079c0,3.839,1.72,7.559,6.039,7.559
		c3.319,0,5.239-1.88,5.679-5.039h3.479c-0.76,5.079-3.879,8.038-9.119,8.038c-6.319,0-9.678-4.358-9.678-10.558
		s3.199-11.078,9.758-11.078c4.719,0,8.398,2.199,8.918,7.118H807.098z"/>
	<path d="M832.177,647.368c-0.92,4.599-4.16,7.038-8.839,7.038c-6.599,0-9.718-4.599-9.918-10.878
		c0-6.239,4.079-10.758,9.718-10.758c7.319,0,9.558,6.839,9.358,11.838h-15.478c-0.12,3.6,1.92,6.799,6.439,6.799
		c2.839,0,4.759-1.319,5.359-4.039H832.177z M828.897,641.608c-0.2-3.239-2.56-5.839-5.959-5.839c-3.519,0-5.719,2.64-5.919,5.839
		H828.897z"/>
	<path d="M838.099,647.408c0.12,3.039,2.8,3.999,5.559,3.999c2.12,0,4.999-0.479,4.999-3.079c0-5.319-13.518-1.72-13.518-9.679
		c0-4.159,4.08-5.879,7.719-5.879c4.639,0,8.159,1.439,8.479,6.479h-3.399c-0.2-2.64-2.6-3.479-4.799-3.479
		c-2.04,0-4.399,0.561-4.399,2.64c0,2.399,3.599,2.88,6.759,3.6c3.399,0.76,6.759,1.92,6.759,5.879c0,4.959-4.599,6.519-8.798,6.519
		c-4.64,0-8.559-1.879-8.759-6.998H838.099z"/>
	<path d="M858.099,647.408c0.12,3.039,2.8,3.999,5.559,3.999c2.12,0,4.999-0.479,4.999-3.079c0-5.319-13.518-1.72-13.518-9.679
		c0-4.159,4.08-5.879,7.719-5.879c4.639,0,8.159,1.439,8.479,6.479h-3.399c-0.2-2.64-2.6-3.479-4.799-3.479
		c-2.04,0-4.399,0.561-4.399,2.64c0,2.399,3.599,2.88,6.759,3.6c3.399,0.76,6.759,1.92,6.759,5.879c0,4.959-4.599,6.519-8.798,6.519
		c-4.64,0-8.559-1.879-8.759-6.998H858.099z"/>
	<path d="M887.699,625.371h9.798c8.798,0,13.718,4.439,13.718,13.599c0,9.558-4.2,14.957-13.718,14.957h-9.798V625.371z
		 M891.498,650.728h6.319c2.6,0,9.598-0.72,9.598-11.238c0-6.799-2.52-10.918-9.518-10.918h-6.399V650.728z"/>
	<path d="M932.936,647.368c-0.92,4.599-4.159,7.038-8.838,7.038c-6.599,0-9.719-4.599-9.918-10.878
		c0-6.239,4.079-10.758,9.718-10.758c7.318,0,9.559,6.839,9.358,11.838h-15.478c-0.12,3.6,1.92,6.799,6.439,6.799
		c2.839,0,4.759-1.319,5.358-4.039H932.936z M929.656,641.608c-0.2-3.239-2.56-5.839-5.959-5.839c-3.519,0-5.719,2.64-5.919,5.839
		H929.656z"/>
	<path d="M946.097,653.927h-3.64l-7.679-20.677h3.8l5.799,17.237h0.08l5.639-17.237h3.56L946.097,653.927z"/>
	<path d="M960.378,629.531h-3.399v-4.16h3.399V629.531z M956.979,633.25h3.399v20.677h-3.399V633.25z"/>
	<path d="M983.975,653.847c-0.601,0.36-1.44,0.56-2.44,0.56c-1.76,0-2.879-0.959-2.879-3.199c-1.88,2.24-4.399,3.199-7.279,3.199
		c-3.759,0-6.839-1.64-6.839-5.799c0-4.679,3.479-5.719,6.999-6.358c3.72-0.76,6.959-0.44,6.959-3.04c0-2.999-2.479-3.439-4.6-3.439
		c-2.879,0-4.999,0.88-5.159,3.92h-3.399c0.2-5.119,4.12-6.919,8.759-6.919c3.72,0,7.759,0.84,7.759,5.679v10.639
		c0,1.6,0,2.319,1.08,2.319c0.319,0,0.68-0.08,1.04-0.2V653.847z M978.455,643.249c-2.64,1.959-10.318,0.039-10.318,5.119
		c0,2.239,1.92,3.039,3.999,3.039c4.479,0,6.319-2.76,6.319-4.68V643.249z"/>
	<path d="M991.855,633.25h4.12v3h-4.12v12.838c0,1.6,0.44,1.84,2.56,1.84h1.561v2.999h-2.6c-3.52,0-4.92-0.72-4.92-4.52V636.25
		h-3.519v-3h3.519v-6.199h3.399V633.25z"/>
	<path d="M1003.336,629.531h-3.399v-4.16h3.399V629.531z M999.937,633.25h3.399v20.677h-3.399V633.25z"/>
	<path d="M1017.535,632.771c6.559,0,10.038,4.759,10.038,10.838c0,6.039-3.479,10.798-10.038,10.798
		c-6.56,0-10.039-4.759-10.039-10.798C1007.496,637.529,1010.976,632.771,1017.535,632.771z M1017.535,651.407
		c3.559,0,6.438-2.8,6.438-7.799s-2.88-7.839-6.438-7.839c-3.56,0-6.439,2.84-6.439,7.839S1013.976,651.407,1017.535,651.407z"/>
	<path d="M1031.575,633.25h3.199v3.279h0.08c1.439-2.56,3.72-3.759,6.719-3.759c5.439,0,7.119,3.119,7.119,7.559v13.598h-3.399
		v-13.998c0-2.56-1.6-4.159-4.199-4.159c-4.119,0-6.119,2.76-6.119,6.479v11.678h-3.399V633.25z"/>
</g>
<path fill="#89BE46" d="M699,592.314c0,20.352-16.498,36.85-36.849,36.85c-20.352,0-36.85-16.498-36.85-36.85
	c0-20.351,16.498-36.849,36.85-36.849C682.502,555.466,699,571.964,699,592.314"/>
<g>
	<path fill="#FFFFFF" d="M664.476,600.86H654.25v-4.491l10.502-14.094h4.387v14.543h3.213v4.042h-3.213v5.597h-4.664V600.86z
		 M664.476,588.424h-0.104l-6.253,8.395h6.356V588.424z"/>
</g>
</svg>
