<?xml version="1.0" encoding="utf-8"?>
<!-- Generator: Adobe Illustrator 16.0.3, SVG Export Plug-In . SVG Version: 6.00 Build 0)  -->
<!DOCTYPE svg PUBLIC "-//W3C//DTD SVG 1.1//EN" "http://www.w3.org/Graphics/SVG/1.1/DTD/svg11.dtd">
<svg version="1.1" id="Layer_1" xmlns="http://www.w3.org/2000/svg" xmlns:xlink="http://www.w3.org/1999/xlink" x="0px" y="0px"
	 width="2048px" height="1000px" viewBox="0 0 2048 1000" enable-background="new 0 0 2048 1000" xml:space="preserve">
<rect x="1" fill="#B9E5FB" width="2048" height="1000"/>
<rect x="0.198" fill="#4EA8DE" width="710.908" height="1000"/>
<rect x="303.445" y="188.96" fill="none" width="159.121" height="26.621"/>
<g enable-background="new    ">
	<path d="M385.765,181.823h6.279v28.556h-6.279V181.823z"/>
	<path d="M396.965,189.702h5.399v2.88h0.12c1.44-2.359,3.919-3.439,6.319-3.439c6.039,0,7.559,3.399,7.559,8.519v12.718h-5.679
		v-11.678c0-3.399-0.96-5.079-3.64-5.079c-3.079,0-4.399,1.72-4.399,5.919v10.838h-5.679V189.702z"/>
	<path d="M426.523,186.503h-5.679v-4.68h5.679V186.503z M420.845,189.702h5.679v20.677h-5.679V189.702z"/>
	<path d="M438.203,189.702h4.159v3.8h-4.159v10.238c0,1.92,0.48,2.399,2.399,2.399c0.64,0,1.24-0.04,1.76-0.16v4.439
		c-0.959,0.16-2.2,0.2-3.319,0.2c-3.52,0-6.519-0.76-6.519-4.92v-12.197h-3.439v-3.8h3.439v-6.198h5.679V189.702z"/>
	<path d="M450.923,186.503h-5.679v-4.68h5.679V186.503z M445.244,189.702h5.679v20.677h-5.679V189.702z"/>
	<path d="M455.164,196.062c0.32-5.279,5.08-6.919,9.719-6.919c4.119,0,9.078,0.92,9.078,5.879v10.758c0,1.88,0.2,3.76,0.72,4.6
		h-5.759c-0.2-0.64-0.36-1.319-0.4-2c-1.8,1.88-4.399,2.56-6.958,2.56c-3.959,0-7.039-1.959-7.039-6.198
		c0.08-9.398,13.998-4.359,13.758-8.999c0-2.399-1.68-2.8-3.68-2.8c-2.199,0-3.559,0.88-3.759,3.12H455.164z M468.282,200.261
		c-0.96,0.84-2.959,0.88-4.719,1.199c-1.76,0.32-3.359,0.96-3.359,3.04c0,2.079,1.64,2.64,3.479,2.64
		c4.439,0,4.599-3.479,4.599-4.76V200.261z"/>
	<path d="M485.562,189.702h4.159v3.8h-4.159v10.238c0,1.92,0.48,2.399,2.399,2.399c0.64,0,1.24-0.04,1.76-0.16v4.439
		c-0.959,0.16-2.2,0.2-3.319,0.2c-3.52,0-6.519-0.76-6.519-4.92v-12.197h-3.439v-3.8h3.439v-6.198h5.679V189.702z"/>
	<path d="M498.282,186.503h-5.679v-4.68h5.679V186.503z M492.603,189.702h5.679v20.677h-5.679V189.702z"/>
	<path d="M512.801,189.143c6.519,0,10.718,4.319,10.718,10.918c0,6.559-4.199,10.878-10.718,10.878
		c-6.479,0-10.678-4.319-10.678-10.878C502.123,193.462,506.322,189.143,512.801,189.143z M512.801,206.659
		c3.879,0,5.04-3.279,5.04-6.599s-1.16-6.639-5.04-6.639c-3.839,0-4.999,3.319-4.999,6.639S508.961,206.659,512.801,206.659z"/>
	<path d="M527.202,189.702h5.399v2.88h0.12c1.44-2.359,3.919-3.439,6.319-3.439c6.039,0,7.559,3.399,7.559,8.519v12.718h-5.679
		v-11.678c0-3.399-0.96-5.079-3.64-5.079c-3.079,0-4.399,1.72-4.399,5.919v10.838h-5.679V189.702z"/>
</g>
<line fill="none" stroke="#343636" stroke-width="4" stroke-miterlimit="10" x1="742.2" y1="53.718" x2="1996.1" y2="53.718"/>
<g>
	<path fill="#231F20" d="M747.602,74.607h13.617c10.122,0,14.492,7.361,14.492,16.424s-4.37,16.424-14.492,16.424h-13.617V74.607z
		 M753.352,102.763h5.659c9.017,0,10.949-5.107,10.949-11.731c0-6.625-1.932-11.731-10.949-11.731h-5.659V102.763z"/>
	<path fill="#231F20" d="M784.171,96.92c0,3.727,2.024,7.039,6.395,7.039c3.083,0,4.876-1.334,5.797-3.956h4.968
		c-1.104,5.198-5.613,8.097-10.765,8.097c-7.499,0-11.639-5.152-11.639-12.513c0-6.763,4.417-12.56,11.501-12.56
		c7.499,0,12.1,6.763,11.226,13.894H784.171z M796.409,93.47c-0.23-3.312-2.393-6.303-5.981-6.303c-3.634,0-6.119,2.76-6.256,6.303
		H796.409z"/>
	<path fill="#231F20" d="M809.609,99.818c0.322,3.082,2.576,4.14,5.383,4.14c2.024,0,5.428-0.414,5.291-3.128
		c-0.138-2.76-3.957-3.082-7.775-3.956c-3.865-0.828-7.637-2.208-7.637-7.039c0-5.198,5.613-6.809,9.938-6.809
		c4.876,0,9.339,1.978,9.937,7.315h-5.474c-0.506-2.53-2.484-3.174-4.831-3.174c-1.518,0-4.325,0.368-4.325,2.438
		c0,2.576,3.865,2.99,7.729,3.818c3.818,0.874,7.683,2.254,7.683,6.947c0,5.659-5.704,7.729-10.627,7.729
		c-6.027,0-10.397-2.668-10.535-8.281H809.609z"/>
	<path fill="#231F20" d="M845.583,91.629c-0.414-2.944-2.484-4.462-5.429-4.462c-2.715,0-6.533,1.472-6.533,8.649
		c0,3.956,1.748,8.143,6.303,8.143c3.083,0,5.153-1.978,5.659-5.428h5.244c-0.966,6.21-4.784,9.569-10.903,9.569
		c-7.452,0-11.547-5.291-11.547-12.283c0-7.177,3.91-12.79,11.731-12.79c5.521,0,10.213,2.76,10.719,8.603H845.583z"/>
	<path fill="#231F20" d="M855.103,83.67h4.922v4.601h0.092c0.599-2.53,3.772-5.245,6.947-5.245c1.242,0,1.472,0.092,1.979,0.138
		v5.061c-0.736-0.138-1.519-0.23-2.255-0.23c-3.542,0-6.44,2.853-6.44,8.143v11.317h-5.244V83.67z"/>
	<path fill="#231F20" d="M871.432,74.607h5.244v4.968h-5.244V74.607z M871.432,83.67h5.244v23.785h-5.244V83.67z"/>
	<path fill="#231F20" d="M882.518,83.67h4.969v3.22h0.092c1.472-2.76,4.278-3.864,7.36-3.864c7.499,0,11.134,5.659,11.134,12.651
		c0,6.441-3.267,12.421-10.26,12.421c-3.036,0-6.349-1.104-7.958-3.727h-0.093v11.87h-5.244V83.67z M894.25,87.167
		c-4.417,0-6.671,3.312-6.671,8.419c0,4.784,2.438,8.373,6.671,8.373c4.784,0,6.578-4.232,6.578-8.373
		C900.828,91.307,898.574,87.167,894.25,87.167z"/>
	<path fill="#231F20" d="M908.093,83.67h3.956V76.54h5.245v7.131h4.738v3.911h-4.738v12.697c0,2.162,0.184,3.266,2.53,3.266
		c0.736,0,1.472,0,2.208-0.184v4.048c-1.15,0.138-2.254,0.276-3.404,0.276c-5.521,0-6.44-2.116-6.579-6.073V87.581h-3.956V83.67z"/>
	<path fill="#231F20" d="M925.941,74.607h5.244v4.968h-5.244V74.607z M925.941,83.67h5.244v23.785h-5.244V83.67z"/>
	<path fill="#231F20" d="M935.785,95.54c0-7.223,4.416-12.513,12.007-12.513c7.592,0,12.008,5.291,12.008,12.513
		c0,7.315-4.416,12.56-12.008,12.56C940.201,108.099,935.785,102.854,935.785,95.54z M954.555,95.54c0-4.094-2.07-8.373-6.764-8.373
		c-4.692,0-6.763,4.278-6.763,8.373c0,4.141,2.07,8.419,6.763,8.419C952.485,103.958,954.555,99.68,954.555,95.54z"/>
	<path fill="#231F20" d="M964.167,83.67h4.968v3.497l0.093,0.092c1.609-2.622,4.278-4.232,7.406-4.232
		c5.199,0,8.419,2.714,8.419,8.097v16.332h-5.244V92.503c-0.139-3.727-1.519-5.336-4.646-5.336c-3.497,0-5.751,2.76-5.751,6.256
		v14.032h-5.244V83.67z"/>
	<path fill="#231F20" d="M1002.253,95.54c0-7.223,4.416-12.513,12.007-12.513c7.592,0,12.007,5.291,12.007,12.513
		c0,7.315-4.416,12.56-12.007,12.56C1006.669,108.099,1002.253,102.854,1002.253,95.54z M1021.024,95.54
		c0-4.094-2.07-8.373-6.764-8.373c-4.692,0-6.763,4.278-6.763,8.373c0,4.141,2.07,8.419,6.763,8.419
		C1018.954,103.958,1021.024,99.68,1021.024,95.54z"/>
	<path fill="#231F20" d="M1028.289,83.67h3.91v-1.978c0-6.073,3.174-7.085,6.578-7.085c1.703,0,2.898,0.092,3.682,0.322v4.095
		c-0.691-0.184-1.381-0.276-2.439-0.276c-1.426,0-2.576,0.506-2.576,2.484v2.438h4.463v3.911h-4.463v19.874h-5.244V87.581h-3.91
		V83.67z"/>
	<path fill="#231F20" d="M1058.051,83.67h4.969v3.22h0.092c1.471-2.76,4.277-3.864,7.359-3.864c7.5,0,11.135,5.659,11.135,12.651
		c0,6.441-3.268,12.421-10.26,12.421c-3.037,0-6.35-1.104-7.959-3.727h-0.092v11.87h-5.244V83.67z M1069.781,87.167
		c-4.416,0-6.67,3.312-6.67,8.419c0,4.784,2.438,8.373,6.67,8.373c4.785,0,6.578-4.232,6.578-8.373
		C1076.359,91.307,1074.105,87.167,1069.781,87.167z"/>
	<path fill="#231F20" d="M1086.018,83.67h4.922v4.601h0.092c0.6-2.53,3.773-5.245,6.947-5.245c1.242,0,1.473,0.092,1.979,0.138
		v5.061c-0.736-0.138-1.518-0.23-2.254-0.23c-3.543,0-6.441,2.853-6.441,8.143v11.317h-5.244V83.67z"/>
	<path fill="#231F20" d="M1101.105,95.54c0-7.223,4.416-12.513,12.006-12.513c7.592,0,12.008,5.291,12.008,12.513
		c0,7.315-4.416,12.56-12.008,12.56C1105.521,108.099,1101.105,102.854,1101.105,95.54z M1119.875,95.54
		c0-4.094-2.07-8.373-6.764-8.373c-4.691,0-6.762,4.278-6.762,8.373c0,4.141,2.07,8.419,6.762,8.419
		C1117.805,103.958,1119.875,99.68,1119.875,95.54z"/>
	<path fill="#231F20" d="M1145.543,91.629c-0.414-2.944-2.484-4.462-5.43-4.462c-2.715,0-6.533,1.472-6.533,8.649
		c0,3.956,1.748,8.143,6.303,8.143c3.084,0,5.154-1.978,5.66-5.428h5.244c-0.967,6.21-4.785,9.569-10.904,9.569
		c-7.451,0-11.547-5.291-11.547-12.283c0-7.177,3.91-12.79,11.732-12.79c5.52,0,10.213,2.76,10.719,8.603H1145.543z"/>
	<path fill="#231F20" d="M1159.156,96.92c0,3.727,2.025,7.039,6.395,7.039c3.084,0,4.877-1.334,5.797-3.956h4.969
		c-1.104,5.198-5.611,8.097-10.766,8.097c-7.498,0-11.639-5.152-11.639-12.513c0-6.763,4.416-12.56,11.502-12.56
		c7.498,0,12.1,6.763,11.225,13.894H1159.156z M1171.395,93.47c-0.23-3.312-2.393-6.303-5.98-6.303c-3.635,0-6.119,2.76-6.258,6.303
		H1171.395z"/>
	<path fill="#231F20" d="M1184.596,99.818c0.322,3.082,2.576,4.14,5.383,4.14c2.023,0,5.428-0.414,5.289-3.128
		c-0.137-2.76-3.955-3.082-7.773-3.956c-3.865-0.828-7.637-2.208-7.637-7.039c0-5.198,5.611-6.809,9.936-6.809
		c4.877,0,9.34,1.978,9.938,7.315h-5.475c-0.506-2.53-2.484-3.174-4.83-3.174c-1.518,0-4.324,0.368-4.324,2.438
		c0,2.576,3.863,2.99,7.729,3.818c3.818,0.874,7.684,2.254,7.684,6.947c0,5.659-5.705,7.729-10.627,7.729
		c-6.027,0-10.398-2.668-10.537-8.281H1184.596z"/>
	<path fill="#231F20" d="M1208.469,99.818c0.322,3.082,2.576,4.14,5.383,4.14c2.025,0,5.43-0.414,5.291-3.128
		c-0.139-2.76-3.957-3.082-7.775-3.956c-3.863-0.828-7.637-2.208-7.637-7.039c0-5.198,5.613-6.809,9.938-6.809
		c4.877,0,9.34,1.978,9.938,7.315h-5.475c-0.506-2.53-2.484-3.174-4.832-3.174c-1.518,0-4.324,0.368-4.324,2.438
		c0,2.576,3.865,2.99,7.73,3.818c3.818,0.874,7.682,2.254,7.682,6.947c0,5.659-5.705,7.729-10.627,7.729
		c-6.027,0-10.396-2.668-10.535-8.281H1208.469z"/>
	<path fill="#231F20" d="M1245.131,99.818c0.322,3.082,2.576,4.14,5.383,4.14c2.025,0,5.43-0.414,5.291-3.128
		c-0.139-2.76-3.957-3.082-7.775-3.956c-3.863-0.828-7.637-2.208-7.637-7.039c0-5.198,5.613-6.809,9.938-6.809
		c4.877,0,9.34,1.978,9.938,7.315h-5.475c-0.506-2.53-2.484-3.174-4.832-3.174c-1.518,0-4.324,0.368-4.324,2.438
		c0,2.576,3.865,2.99,7.73,3.818c3.818,0.874,7.682,2.254,7.682,6.947c0,5.659-5.705,7.729-10.627,7.729
		c-6.027,0-10.396-2.668-10.535-8.281H1245.131z"/>
	<path fill="#231F20" d="M1262.656,83.67h3.957V76.54h5.244v7.131h4.738v3.911h-4.738v12.697c0,2.162,0.184,3.266,2.531,3.266
		c0.736,0,1.471,0,2.207-0.184v4.048c-1.15,0.138-2.254,0.276-3.404,0.276c-5.52,0-6.439-2.116-6.578-6.073V87.581h-3.957V83.67z"/>
	<path fill="#231F20" d="M1284.461,96.92c0,3.727,2.023,7.039,6.395,7.039c3.082,0,4.877-1.334,5.797-3.956h4.969
		c-1.105,5.198-5.613,8.097-10.766,8.097c-7.498,0-11.639-5.152-11.639-12.513c0-6.763,4.416-12.56,11.5-12.56
		c7.5,0,12.1,6.763,11.227,13.894H1284.461z M1296.697,93.47c-0.229-3.312-2.391-6.303-5.98-6.303c-3.633,0-6.117,2.76-6.256,6.303
		H1296.697z"/>
	<path fill="#231F20" d="M1306.08,83.67h4.969v3.22h0.092c1.473-2.76,4.279-3.864,7.361-3.864c7.498,0,11.133,5.659,11.133,12.651
		c0,6.441-3.266,12.421-10.26,12.421c-3.035,0-6.348-1.104-7.957-3.727h-0.094v11.87h-5.244V83.67z M1317.812,87.167
		c-4.418,0-6.672,3.312-6.672,8.419c0,4.784,2.439,8.373,6.672,8.373c4.783,0,6.578-4.232,6.578-8.373
		C1324.391,91.307,1322.137,87.167,1317.812,87.167z"/>
</g>
<line fill="none" stroke="#343636" stroke-width="4" stroke-miterlimit="10" x1="42.158" y1="53.718" x2="679.608" y2="53.718"/>
<g>
	<path fill="#231F20" d="M51.332,96.506c0,5.015,3.726,7.039,8.327,7.039c5.061,0,6.947-2.53,6.947-4.968
		c0-2.53-1.38-3.542-2.714-4.048c-2.346-0.875-5.245-1.472-9.799-2.714c-5.659-1.472-7.269-4.923-7.269-8.327
		c0-6.625,6.073-9.661,12.007-9.661c6.809,0,12.605,3.634,12.605,10.489h-5.75c-0.322-4.232-3.083-5.797-7.085-5.797
		c-2.668,0-6.027,0.966-6.027,4.279c0,2.346,1.564,3.542,3.911,4.232c0.506,0.138,7.775,2.024,9.477,2.53
		c4.278,1.334,6.395,4.876,6.395,8.373c0,7.361-6.579,10.305-13.066,10.305c-7.499,0-13.571-3.588-13.709-11.731H51.332z"/>
	<path fill="#231F20" d="M74.239,83.67h3.957V76.54h5.245v7.131h4.738v3.911H83.44v12.697c0,2.162,0.184,3.266,2.53,3.266
		c0.736,0,1.472,0,2.208-0.184v4.048c-1.15,0.138-2.254,0.276-3.404,0.276c-5.521,0-6.441-2.116-6.579-6.073V87.581h-3.957V83.67z"
		/>
	<path fill="#231F20" d="M96.043,96.92c0,3.727,2.024,7.039,6.395,7.039c3.083,0,4.876-1.334,5.797-3.956h4.968
		c-1.104,5.198-5.613,8.097-10.765,8.097c-7.499,0-11.639-5.152-11.639-12.513c0-6.763,4.417-12.56,11.501-12.56
		c7.499,0,12.1,6.763,11.226,13.894H96.043z M108.281,93.47c-0.23-3.312-2.393-6.303-5.981-6.303c-3.634,0-6.119,2.76-6.256,6.303
		H108.281z"/>
	<path fill="#231F20" d="M117.663,83.67h4.968v3.22h0.092c1.472-2.76,4.279-3.864,7.361-3.864c7.499,0,11.133,5.659,11.133,12.651
		c0,6.441-3.266,12.421-10.259,12.421c-3.036,0-6.349-1.104-7.959-3.727h-0.092v11.87h-5.245V83.67z M129.394,87.167
		c-4.416,0-6.67,3.312-6.67,8.419c0,4.784,2.438,8.373,6.67,8.373c4.785,0,6.579-4.232,6.579-8.373
		C135.973,91.307,133.719,87.167,129.394,87.167z"/>
</g>
<g>
	<path d="M774.8,189.925c-0.84-4.04-4-6.079-7.999-6.079c-6.799,0-9.678,5.599-9.678,11.558c0,6.519,2.879,11.958,9.718,11.958
		c4.959,0,7.919-3.52,8.239-8.239h3.799c-0.76,7.159-5.119,11.438-12.358,11.438c-8.838,0-13.198-6.559-13.198-14.877
		c0-8.318,4.719-15.037,13.518-15.037c5.959,0,10.918,3.199,11.758,9.278H774.8z"/>
	<path d="M783.043,181.326h3.399v10.918h0.08c1.08-2.52,4.079-3.519,6.519-3.519c5.439,0,7.119,3.119,7.119,7.559v13.598h-3.399
		v-13.998c0-2.56-1.6-4.159-4.199-4.159c-4.12,0-6.119,2.759-6.119,6.479v11.678h-3.399V181.326z"/>
	<path d="M823.6,209.801c-0.6,0.36-1.44,0.56-2.439,0.56c-1.76,0-2.879-0.96-2.879-3.2c-1.88,2.24-4.399,3.2-7.279,3.2
		c-3.76,0-6.839-1.64-6.839-5.799c0-4.679,3.479-5.719,6.999-6.359c3.72-0.76,6.959-0.44,6.959-3.04
		c0-2.999-2.479-3.439-4.599-3.439c-2.88,0-5,0.879-5.159,3.919h-3.399c0.2-5.119,4.119-6.918,8.758-6.918
		c3.72,0,7.759,0.84,7.759,5.679v10.638c0,1.6,0,2.32,1.08,2.32c0.32,0,0.68-0.08,1.04-0.2V209.801z M818.081,199.203
		c-2.64,1.959-10.318,0.04-10.318,5.119c0,2.24,1.92,3.04,4,3.04c4.479,0,6.319-2.76,6.319-4.679V199.203z"/>
	<path d="M826.763,189.205h3.199v3.28h0.08c1.44-2.56,3.72-3.759,6.719-3.759c5.439,0,7.119,3.119,7.119,7.559v13.598h-3.399
		v-13.998c0-2.56-1.6-4.159-4.199-4.159c-4.12,0-6.119,2.759-6.119,6.479v11.678h-3.399V189.205z"/>
	<path d="M866.84,208.122c0,6.759-3.04,10.158-9.598,10.158c-3.879,0-8.359-1.6-8.559-6.079h3.399
		c0.12,2.439,3.159,3.359,5.359,3.359c4.439,0,6.199-3.2,6.199-7.839v-1.36h-0.08c-1.16,2.52-3.799,3.759-6.439,3.759
		c-6.159,0-9.238-4.839-9.238-10.478c0-4.879,2.359-10.918,9.558-10.918c2.6,0,4.919,1.16,6.159,3.439h0.04v-2.96h3.199V208.122z
		 M863.48,199.123c0-3.639-1.6-7.398-5.879-7.398c-4.359,0-6.119,3.559-6.119,7.519c0,3.719,1.36,7.878,5.839,7.878
		C861.801,207.122,863.48,203.002,863.48,199.123z"/>
	<path d="M889.6,203.322c-0.92,4.6-4.16,7.039-8.839,7.039c-6.599,0-9.718-4.599-9.918-10.878c0-6.239,4.079-10.758,9.718-10.758
		c7.319,0,9.558,6.839,9.358,11.838h-15.478c-0.12,3.599,1.92,6.799,6.439,6.799c2.839,0,4.759-1.32,5.359-4.04H889.6z
		 M886.32,197.563c-0.2-3.24-2.56-5.839-5.959-5.839c-3.519,0-5.719,2.639-5.919,5.839H886.32z"/>
	<path d="M904.442,189.205h3.2v4.359h0.08c1.64-3.359,3.919-4.959,7.599-4.839v3.599c-5.479,0-7.479,3.08-7.479,8.359v9.198h-3.399
		V189.205z"/>
	<path d="M935.519,203.322c-0.92,4.6-4.16,7.039-8.839,7.039c-6.599,0-9.718-4.599-9.918-10.878c0-6.239,4.079-10.758,9.718-10.758
		c7.319,0,9.558,6.839,9.358,11.838h-15.478c-0.12,3.599,1.92,6.799,6.439,6.799c2.839,0,4.759-1.32,5.359-4.04H935.519z
		 M932.239,197.563c-0.2-3.24-2.56-5.839-5.959-5.839c-3.519,0-5.719,2.639-5.919,5.839H932.239z"/>
	<path d="M957.838,217.8h-3.399v-10.718h-0.08c-1.12,2.279-3.719,3.279-6.599,3.279c-6.359,0-9.518-5.039-9.518-10.878
		c0-5.839,3.119-10.758,9.438-10.758c2.08,0,5.199,0.8,6.679,3.239h0.08v-2.76h3.399V217.8z M948.24,207.362
		c4.599,0,6.319-3.959,6.319-7.799c0-4.039-1.839-7.838-6.519-7.838c-4.639,0-6.199,3.959-6.199,7.999
		C941.841,203.603,943.841,207.362,948.24,207.362z"/>
	<path d="M980.198,209.881h-3.2v-3.279h-0.08c-1.44,2.56-3.72,3.759-6.719,3.759c-5.439,0-7.119-3.12-7.119-7.559v-13.598h3.399
		v13.998c0,2.56,1.6,4.159,4.199,4.159c4.12,0,6.119-2.76,6.119-6.479v-11.678h3.399V209.881z"/>
	<path d="M1002.958,203.322c-0.92,4.6-4.16,7.039-8.839,7.039c-6.599,0-9.718-4.599-9.918-10.878c0-6.239,4.079-10.758,9.718-10.758
		c7.319,0,9.558,6.839,9.358,11.838h-15.478c-0.12,3.599,1.92,6.799,6.439,6.799c2.839,0,4.759-1.32,5.359-4.04H1002.958z
		 M999.679,197.563c-0.2-3.24-2.56-5.839-5.959-5.839c-3.519,0-5.719,2.639-5.919,5.839H999.679z"/>
	<path d="M1008.88,203.362c0.12,3.04,2.8,4,5.559,4c2.12,0,4.999-0.48,4.999-3.08c0-5.319-13.518-1.72-13.518-9.678
		c0-4.159,4.079-5.879,7.719-5.879c4.639,0,8.159,1.439,8.479,6.479h-3.399c-0.2-2.639-2.6-3.479-4.799-3.479
		c-2.04,0-4.399,0.56-4.399,2.639c0,2.4,3.599,2.88,6.759,3.6c3.399,0.76,6.759,1.919,6.759,5.879c0,4.959-4.599,6.519-8.798,6.519
		c-4.64,0-8.559-1.88-8.759-6.999H1008.88z"/>
	<path d="M1031.52,189.205h4.12v3h-4.12v12.838c0,1.6,0.44,1.84,2.56,1.84h1.561v3h-2.6c-3.52,0-4.92-0.72-4.92-4.519v-13.158
		h-3.519v-3h3.519v-6.199h3.399V189.205z"/>
	<path d="M1054.12,185.485h-3.399v-4.159h3.399V185.485z M1050.721,189.205h3.399v20.677h-3.399V189.205z"/>
	<path d="M1061.479,203.362c0.119,3.04,2.799,4,5.559,4c2.12,0,4.999-0.48,4.999-3.08c0-5.319-13.518-1.72-13.518-9.678
		c0-4.159,4.079-5.879,7.719-5.879c4.64,0,8.158,1.439,8.479,6.479h-3.399c-0.2-2.639-2.6-3.479-4.799-3.479
		c-2.04,0-4.399,0.56-4.399,2.639c0,2.4,3.6,2.88,6.759,3.6c3.399,0.76,6.759,1.919,6.759,5.879c0,4.959-4.6,6.519-8.799,6.519
		c-4.639,0-8.559-1.88-8.758-6.999H1061.479z"/>
	<path d="M1108.837,209.801c-0.601,0.36-1.44,0.56-2.44,0.56c-1.76,0-2.879-0.96-2.879-3.2c-1.88,2.24-4.399,3.2-7.279,3.2
		c-3.759,0-6.839-1.64-6.839-5.799c0-4.679,3.479-5.719,6.999-6.359c3.72-0.76,6.959-0.44,6.959-3.04c0-2.999-2.479-3.439-4.6-3.439
		c-2.879,0-4.999,0.879-5.159,3.919h-3.399c0.2-5.119,4.12-6.918,8.759-6.918c3.72,0,7.759,0.84,7.759,5.679v10.638
		c0,1.6,0,2.32,1.08,2.32c0.319,0,0.68-0.08,1.04-0.2V209.801z M1103.317,199.203c-2.64,1.959-10.318,0.04-10.318,5.119
		c0,2.24,1.92,3.04,3.999,3.04c4.479,0,6.319-2.76,6.319-4.679V199.203z"/>
	<path d="M1114.079,203.362c0.119,3.04,2.799,4,5.559,4c2.12,0,4.999-0.48,4.999-3.08c0-5.319-13.518-1.72-13.518-9.678
		c0-4.159,4.079-5.879,7.719-5.879c4.64,0,8.158,1.439,8.479,6.479h-3.399c-0.2-2.639-2.6-3.479-4.799-3.479
		c-2.04,0-4.399,0.56-4.399,2.639c0,2.4,3.6,2.88,6.759,3.6c3.399,0.76,6.759,1.919,6.759,5.879c0,4.959-4.6,6.519-8.799,6.519
		c-4.639,0-8.559-1.88-8.758-6.999H1114.079z"/>
	<path d="M1134.079,203.362c0.119,3.04,2.799,4,5.559,4c2.12,0,4.999-0.48,4.999-3.08c0-5.319-13.518-1.72-13.518-9.678
		c0-4.159,4.079-5.879,7.719-5.879c4.64,0,8.158,1.439,8.479,6.479h-3.399c-0.2-2.639-2.6-3.479-4.799-3.479
		c-2.04,0-4.399,0.56-4.399,2.639c0,2.4,3.6,2.88,6.759,3.6c3.399,0.76,6.759,1.919,6.759,5.879c0,4.959-4.6,6.519-8.799,6.519
		c-4.639,0-8.559-1.88-8.758-6.999H1134.079z"/>
	<path d="M1169.636,203.322c-0.92,4.6-4.159,7.039-8.838,7.039c-6.6,0-9.719-4.599-9.919-10.878c0-6.239,4.08-10.758,9.719-10.758
		c7.318,0,9.559,6.839,9.358,11.838h-15.478c-0.12,3.599,1.92,6.799,6.439,6.799c2.839,0,4.759-1.32,5.358-4.04H1169.636z
		 M1166.356,197.563c-0.2-3.24-2.56-5.839-5.959-5.839c-3.52,0-5.719,2.639-5.919,5.839H1166.356z"/>
	<path d="M1175.559,203.362c0.119,3.04,2.799,4,5.559,4c2.12,0,4.999-0.48,4.999-3.08c0-5.319-13.518-1.72-13.518-9.678
		c0-4.159,4.079-5.879,7.719-5.879c4.64,0,8.158,1.439,8.479,6.479h-3.399c-0.2-2.639-2.6-3.479-4.799-3.479
		c-2.04,0-4.399,0.56-4.399,2.639c0,2.4,3.6,2.88,6.759,3.6c3.399,0.76,6.759,1.919,6.759,5.879c0,4.959-4.6,6.519-8.799,6.519
		c-4.639,0-8.559-1.88-8.758-6.999H1175.559z"/>
	<path d="M1195.559,203.362c0.119,3.04,2.799,4,5.559,4c2.12,0,4.999-0.48,4.999-3.08c0-5.319-13.518-1.72-13.518-9.678
		c0-4.159,4.079-5.879,7.719-5.879c4.64,0,8.158,1.439,8.479,6.479h-3.399c-0.2-2.639-2.6-3.479-4.799-3.479
		c-2.04,0-4.399,0.56-4.399,2.639c0,2.4,3.6,2.88,6.759,3.6c3.399,0.76,6.759,1.919,6.759,5.879c0,4.959-4.6,6.519-8.799,6.519
		c-4.639,0-8.559-1.88-8.758-6.999H1195.559z"/>
	<path d="M1231.115,203.322c-0.92,4.6-4.159,7.039-8.838,7.039c-6.6,0-9.719-4.599-9.919-10.878c0-6.239,4.08-10.758,9.719-10.758
		c7.318,0,9.559,6.839,9.358,11.838h-15.478c-0.12,3.599,1.92,6.799,6.439,6.799c2.839,0,4.759-1.32,5.358-4.04H1231.115z
		 M1227.836,197.563c-0.2-3.24-2.56-5.839-5.959-5.839c-3.52,0-5.719,2.639-5.919,5.839H1227.836z"/>
	<path d="M1253.435,209.881h-3.399v-2.799h-0.08c-1.119,2.279-3.719,3.279-6.599,3.279c-6.358,0-9.519-5.039-9.519-10.878
		c0-5.839,3.12-10.758,9.438-10.758c2.08,0,5.199,0.8,6.679,3.239h0.08v-10.638h3.399V209.881z M1243.837,207.362
		c4.599,0,6.318-3.959,6.318-7.799c0-4.039-1.84-7.838-6.519-7.838c-4.64,0-6.199,3.959-6.199,7.999
		C1237.438,203.603,1239.438,207.362,1243.837,207.362z"/>
	<path d="M1288.115,209.801c-0.601,0.36-1.44,0.56-2.44,0.56c-1.76,0-2.879-0.96-2.879-3.2c-1.88,2.24-4.399,3.2-7.279,3.2
		c-3.759,0-6.839-1.64-6.839-5.799c0-4.679,3.479-5.719,6.999-6.359c3.72-0.76,6.959-0.44,6.959-3.04c0-2.999-2.479-3.439-4.6-3.439
		c-2.879,0-4.999,0.879-5.159,3.919h-3.399c0.2-5.119,4.12-6.918,8.759-6.918c3.72,0,7.759,0.84,7.759,5.679v10.638
		c0,1.6,0,2.32,1.08,2.32c0.319,0,0.68-0.08,1.04-0.2V209.801z M1282.596,199.203c-2.64,1.959-10.318,0.04-10.318,5.119
		c0,2.24,1.92,3.04,3.999,3.04c4.479,0,6.319-2.76,6.319-4.679V199.203z"/>
	<path d="M1291.277,189.205h3.199v3.28h0.08c1.439-2.56,3.72-3.759,6.719-3.759c5.439,0,7.119,3.119,7.119,7.559v13.598h-3.399
		v-13.998c0-2.56-1.6-4.159-4.199-4.159c-4.119,0-6.119,2.759-6.119,6.479v11.678h-3.399V189.205z"/>
	<path d="M1331.994,209.881h-3.399v-2.799h-0.08c-1.119,2.279-3.719,3.279-6.599,3.279c-6.358,0-9.519-5.039-9.519-10.878
		c0-5.839,3.12-10.758,9.438-10.758c2.08,0,5.199,0.8,6.679,3.239h0.08v-10.638h3.399V209.881z M1322.396,207.362
		c4.599,0,6.318-3.959,6.318-7.799c0-4.039-1.84-7.838-6.519-7.838c-4.64,0-6.199,3.959-6.199,7.999
		C1315.997,203.603,1317.997,207.362,1322.396,207.362z"/>
	<path d="M1362.396,195.844c-0.521-2.6-2.28-4.119-5.119-4.119c-4.92,0-6.439,3.919-6.439,8.079c0,3.839,1.72,7.559,6.039,7.559
		c3.319,0,5.239-1.88,5.679-5.039h3.479c-0.76,5.079-3.879,8.039-9.118,8.039c-6.319,0-9.679-4.359-9.679-10.558
		c0-6.199,3.2-11.078,9.759-11.078c4.719,0,8.398,2.199,8.918,7.119H1362.396z"/>
	<path d="M1388.154,209.801c-0.601,0.36-1.44,0.56-2.44,0.56c-1.76,0-2.879-0.96-2.879-3.2c-1.88,2.24-4.399,3.2-7.279,3.2
		c-3.759,0-6.839-1.64-6.839-5.799c0-4.679,3.479-5.719,6.999-6.359c3.72-0.76,6.959-0.44,6.959-3.04c0-2.999-2.479-3.439-4.6-3.439
		c-2.879,0-4.999,0.879-5.159,3.919h-3.399c0.2-5.119,4.12-6.918,8.759-6.918c3.72,0,7.759,0.84,7.759,5.679v10.638
		c0,1.6,0,2.32,1.08,2.32c0.319,0,0.68-0.08,1.04-0.2V209.801z M1382.635,199.203c-2.64,1.959-10.318,0.04-10.318,5.119
		c0,2.24,1.92,3.04,3.999,3.04c4.479,0,6.319-2.76,6.319-4.679V199.203z"/>
	<path d="M1396.035,189.205h4.12v3h-4.12v12.838c0,1.6,0.44,1.84,2.56,1.84h1.561v3h-2.6c-3.52,0-4.92-0.72-4.92-4.519v-13.158
		h-3.519v-3h3.519v-6.199h3.399V189.205z"/>
	<path d="M1421.553,203.322c-0.92,4.6-4.159,7.039-8.838,7.039c-6.6,0-9.719-4.599-9.919-10.878c0-6.239,4.08-10.758,9.719-10.758
		c7.318,0,9.559,6.839,9.358,11.838h-15.478c-0.12,3.599,1.92,6.799,6.439,6.799c2.839,0,4.759-1.32,5.358-4.04H1421.553z
		 M1418.273,197.563c-0.2-3.24-2.56-5.839-5.959-5.839c-3.52,0-5.719,2.639-5.919,5.839H1418.273z"/>
	<path d="M1443.232,208.122c0,6.759-3.039,10.158-9.599,10.158c-3.879,0-8.358-1.6-8.559-6.079h3.399
		c0.12,2.439,3.16,3.359,5.359,3.359c4.439,0,6.199-3.2,6.199-7.839v-1.36h-0.08c-1.16,2.52-3.8,3.759-6.439,3.759
		c-6.158,0-9.238-4.839-9.238-10.478c0-4.879,2.36-10.918,9.559-10.918c2.6,0,4.919,1.16,6.159,3.439h0.04v-2.96h3.199V208.122z
		 M1439.873,199.123c0-3.639-1.6-7.398-5.879-7.398c-4.359,0-6.119,3.559-6.119,7.519c0,3.719,1.359,7.878,5.839,7.878
		S1439.873,203.002,1439.873,199.123z"/>
	<path d="M1457.274,188.725c6.559,0,10.038,4.759,10.038,10.838c0,6.039-3.479,10.798-10.038,10.798
		c-6.56,0-10.039-4.759-10.039-10.798C1447.235,193.484,1450.715,188.725,1457.274,188.725z M1457.274,207.362
		c3.559,0,6.438-2.8,6.438-7.799s-2.88-7.838-6.438-7.838c-3.56,0-6.439,2.839-6.439,7.838S1453.715,207.362,1457.274,207.362z"/>
	<path d="M1471.195,189.205h3.199v4.359h0.08c1.64-3.359,3.92-4.959,7.599-4.839v3.599c-5.479,0-7.479,3.08-7.479,8.359v9.198
		h-3.399V189.205z"/>
	<path d="M1488.234,185.485h-3.399v-4.159h3.399V185.485z M1484.835,189.205h3.399v20.677h-3.399V189.205z"/>
	<path d="M1491.835,207.282l12.478-15.078h-11.678v-3h16.077v2.32l-12.638,15.357h13.198v3h-17.438V207.282z"/>
	<path d="M1530.352,203.322c-0.92,4.6-4.159,7.039-8.838,7.039c-6.6,0-9.719-4.599-9.919-10.878c0-6.239,4.08-10.758,9.719-10.758
		c7.318,0,9.559,6.839,9.358,11.838h-15.478c-0.12,3.599,1.92,6.799,6.439,6.799c2.839,0,4.759-1.32,5.358-4.04H1530.352z
		 M1527.072,197.563c-0.2-3.24-2.56-5.839-5.959-5.839c-3.52,0-5.719,2.639-5.919,5.839H1527.072z"/>
	<path d="M1552.671,209.881h-3.399v-2.799h-0.08c-1.119,2.279-3.719,3.279-6.599,3.279c-6.358,0-9.519-5.039-9.519-10.878
		c0-5.839,3.12-10.758,9.438-10.758c2.08,0,5.199,0.8,6.679,3.239h0.08v-10.638h3.399V209.881z M1543.073,207.362
		c4.599,0,6.318-3.959,6.318-7.799c0-4.039-1.84-7.838-6.519-7.838c-4.64,0-6.199,3.959-6.199,7.999
		C1536.674,203.603,1538.674,207.362,1543.073,207.362z"/>
	<path d="M1587.352,209.801c-0.601,0.36-1.44,0.56-2.44,0.56c-1.76,0-2.879-0.96-2.879-3.2c-1.88,2.24-4.399,3.2-7.279,3.2
		c-3.759,0-6.839-1.64-6.839-5.799c0-4.679,3.479-5.719,6.999-6.359c3.72-0.76,6.959-0.44,6.959-3.04c0-2.999-2.479-3.439-4.6-3.439
		c-2.879,0-4.999,0.879-5.159,3.919h-3.399c0.2-5.119,4.12-6.918,8.759-6.918c3.72,0,7.759,0.84,7.759,5.679v10.638
		c0,1.6,0,2.32,1.08,2.32c0.319,0,0.68-0.08,1.04-0.2V209.801z M1581.832,199.203c-2.64,1.959-10.318,0.04-10.318,5.119
		c0,2.24,1.92,3.04,3.999,3.04c4.479,0,6.319-2.76,6.319-4.679V199.203z"/>
	<path d="M1592.594,203.362c0.119,3.04,2.799,4,5.559,4c2.12,0,4.999-0.48,4.999-3.08c0-5.319-13.518-1.72-13.518-9.678
		c0-4.159,4.079-5.879,7.719-5.879c4.64,0,8.158,1.439,8.479,6.479h-3.399c-0.2-2.639-2.6-3.479-4.799-3.479
		c-2.04,0-4.399,0.56-4.399,2.639c0,2.4,3.6,2.88,6.759,3.6c3.399,0.76,6.759,1.919,6.759,5.879c0,4.959-4.6,6.519-8.799,6.519
		c-4.639,0-8.559-1.88-8.758-6.999H1592.594z"/>
	<path d="M1639.951,209.801c-0.601,0.36-1.44,0.56-2.44,0.56c-1.76,0-2.879-0.96-2.879-3.2c-1.88,2.24-4.399,3.2-7.279,3.2
		c-3.759,0-6.839-1.64-6.839-5.799c0-4.679,3.479-5.719,6.999-6.359c3.72-0.76,6.959-0.44,6.959-3.04c0-2.999-2.479-3.439-4.6-3.439
		c-2.879,0-4.999,0.879-5.159,3.919h-3.399c0.2-5.119,4.12-6.918,8.759-6.918c3.72,0,7.759,0.84,7.759,5.679v10.638
		c0,1.6,0,2.32,1.08,2.32c0.319,0,0.68-0.08,1.04-0.2V209.801z M1634.432,199.203c-2.64,1.959-10.318,0.04-10.318,5.119
		c0,2.24,1.92,3.04,3.999,3.04c4.479,0,6.319-2.76,6.319-4.679V199.203z"/>
	<path d="M1654.233,181.326h3.399v10.918h0.08c1.08-2.52,4.079-3.519,6.519-3.519c5.439,0,7.119,3.119,7.119,7.559v13.598h-3.399
		v-13.998c0-2.56-1.6-4.159-4.199-4.159c-4.119,0-6.119,2.759-6.119,6.479v11.678h-3.399V181.326z"/>
	<path d="M1680.073,185.485h-3.399v-4.159h3.399V185.485z M1676.674,189.205h3.399v20.677h-3.399V189.205z"/>
	<path d="M1703.189,208.122c0,6.759-3.039,10.158-9.599,10.158c-3.879,0-8.358-1.6-8.559-6.079h3.399
		c0.12,2.439,3.16,3.359,5.359,3.359c4.439,0,6.199-3.2,6.199-7.839v-1.36h-0.08c-1.16,2.52-3.8,3.759-6.439,3.759
		c-6.158,0-9.238-4.839-9.238-10.478c0-4.879,2.36-10.918,9.559-10.918c2.6,0,4.919,1.16,6.159,3.439h0.04v-2.96h3.199V208.122z
		 M1699.83,199.123c0-3.639-1.6-7.398-5.879-7.398c-4.359,0-6.119,3.559-6.119,7.519c0,3.719,1.359,7.878,5.839,7.878
		S1699.83,203.002,1699.83,199.123z"/>
	<path d="M1708.312,181.326h3.399v10.918h0.08c1.08-2.52,4.079-3.519,6.519-3.519c5.439,0,7.119,3.119,7.119,7.559v13.598h-3.399
		v-13.998c0-2.56-1.6-4.159-4.199-4.159c-4.119,0-6.119,2.759-6.119,6.479v11.678h-3.399V181.326z"/>
	<path d="M1731.312,205.442h4.439v4.04c0,3.04-1.32,5.359-4.399,6.279v-2c1.76-0.64,2.439-2.56,2.319-3.879h-2.359V205.442z"/>
	<path d="M1752.793,189.205h3.199v3.04h0.08c1.56-2.359,3.76-3.519,6.679-3.519c2.56,0,4.84,0.959,5.68,3.519
		c1.399-2.239,3.799-3.519,6.479-3.519c4.119,0,6.879,1.72,6.879,5.999v15.157h-3.399v-13.558c0-2.56-0.68-4.599-3.999-4.599
		s-5.399,2.08-5.399,5.279v12.878h-3.399v-13.558c0-2.68-0.84-4.599-3.879-4.599c-4,0-5.52,3.679-5.52,5.279v12.878h-3.399V189.205z
		"/>
	<path d="M1804.55,203.322c-0.92,4.6-4.159,7.039-8.838,7.039c-6.6,0-9.719-4.599-9.919-10.878c0-6.239,4.08-10.758,9.719-10.758
		c7.318,0,9.559,6.839,9.358,11.838h-15.478c-0.12,3.599,1.92,6.799,6.439,6.799c2.839,0,4.759-1.32,5.358-4.04H1804.55z
		 M1801.271,197.563c-0.2-3.24-2.56-5.839-5.959-5.839c-3.52,0-5.719,2.639-5.919,5.839H1801.271z"/>
	<path d="M1826.869,209.881h-3.399v-2.799h-0.08c-1.119,2.279-3.719,3.279-6.599,3.279c-6.358,0-9.519-5.039-9.519-10.878
		c0-5.839,3.12-10.758,9.438-10.758c2.08,0,5.199,0.8,6.679,3.239h0.08v-10.638h3.399V209.881z M1817.271,207.362
		c4.599,0,6.318-3.959,6.318-7.799c0-4.039-1.84-7.838-6.519-7.838c-4.64,0-6.199,3.959-6.199,7.999
		C1810.872,203.603,1812.872,207.362,1817.271,207.362z"/>
	<path d="M1835.712,185.485h-3.399v-4.159h3.399V185.485z M1832.312,189.205h3.399v20.677h-3.399V189.205z"/>
	<path d="M1858.108,209.881h-3.199v-3.279h-0.08c-1.44,2.56-3.72,3.759-6.719,3.759c-5.439,0-7.119-3.12-7.119-7.559v-13.598h3.399
		v13.998c0,2.56,1.6,4.159,4.199,4.159c4.119,0,6.119-2.76,6.119-6.479v-11.678h3.399V209.881z"/>
	<path d="M1863.231,189.205h3.199v3.04h0.08c1.56-2.359,3.76-3.519,6.679-3.519c2.56,0,4.84,0.959,5.68,3.519
		c1.399-2.239,3.799-3.519,6.479-3.519c4.119,0,6.879,1.72,6.879,5.999v15.157h-3.399v-13.558c0-2.56-0.68-4.599-3.999-4.599
		s-5.399,2.08-5.399,5.279v12.878h-3.399v-13.558c0-2.68-0.84-4.599-3.879-4.599c-4,0-5.52,3.679-5.52,5.279v12.878h-3.399V189.205z
		"/>
	<path d="M1898.111,205.442h4.439v4.04c0,3.04-1.32,5.359-4.399,6.279v-2c1.76-0.64,2.439-2.56,2.319-3.879h-2.359V205.442z"/>
	<path d="M763.082,236.725c6.559,0,10.039,4.759,10.039,10.838c0,6.039-3.479,10.798-10.039,10.798s-10.038-4.759-10.038-10.798
		C753.044,241.484,756.523,236.725,763.082,236.725z M763.082,255.362c3.56,0,6.439-2.8,6.439-7.799s-2.879-7.838-6.439-7.838
		s-6.439,2.839-6.439,7.838S759.522,255.362,763.082,255.362z"/>
	<path d="M777.003,237.205h3.2v4.359h0.08c1.64-3.359,3.919-4.959,7.599-4.839v3.599c-5.479,0-7.479,3.08-7.479,8.359v9.198h-3.399
		V237.205z"/>
	<path d="M801.763,229.326h3.399v28.555h-3.399V229.326z"/>
	<path d="M819.361,236.725c6.559,0,10.039,4.759,10.039,10.838c0,6.039-3.479,10.798-10.039,10.798s-10.038-4.759-10.038-10.798
		C809.323,241.484,812.802,236.725,819.361,236.725z M819.361,255.362c3.56,0,6.439-2.8,6.439-7.799s-2.879-7.838-6.439-7.838
		s-6.439,2.839-6.439,7.838S815.801,255.362,819.361,255.362z"/>
	<path d="M853.878,257.881h-3.6l-4.199-16.437H846l-4.159,16.437h-3.679l-6.639-20.677h3.76l4.679,16.917h0.08l4.16-16.917h3.719
		l4.319,16.917h0.08l4.639-16.917h3.52L853.878,257.881z"/>
	<path d="M878.441,233.485h-3.399v-4.159h3.399V233.485z M875.042,237.205h3.399v20.677h-3.399V237.205z"/>
	<path d="M883.721,237.205h3.2v3.04H887c1.56-2.359,3.759-3.519,6.679-3.519c2.56,0,4.839,0.959,5.679,3.519
		c1.4-2.239,3.799-3.519,6.479-3.519c4.12,0,6.879,1.72,6.879,5.999v15.157h-3.399v-13.558c0-2.56-0.68-4.599-4-4.599
		c-3.319,0-5.399,2.08-5.399,5.279v12.878h-3.399v-13.558c0-2.68-0.84-4.599-3.879-4.599c-4,0-5.519,3.679-5.519,5.279v12.878
		h-3.399V237.205z"/>
	<path d="M917.961,237.205h3.399v2.8h0.08c1.12-2.28,3.719-3.279,6.599-3.279c6.359,0,9.519,5.039,9.519,10.878
		c0,5.879-3.12,10.758-9.438,10.758c-2.08,0-5.199-0.8-6.679-3.24h-0.08V265.8h-3.399V237.205z M927.559,239.725
		c-4.599,0-6.319,3.959-6.319,7.798c0,4.04,1.84,7.839,6.519,7.839c4.639,0,6.199-3.959,6.199-7.999
		C933.958,243.484,931.958,239.725,927.559,239.725z"/>
	<path d="M959.877,257.801c-0.6,0.36-1.44,0.56-2.439,0.56c-1.76,0-2.879-0.96-2.879-3.2c-1.88,2.24-4.399,3.2-7.279,3.2
		c-3.76,0-6.839-1.64-6.839-5.799c0-4.679,3.479-5.719,6.999-6.359c3.72-0.76,6.959-0.44,6.959-3.04
		c0-2.999-2.479-3.439-4.599-3.439c-2.88,0-5,0.879-5.159,3.919h-3.399c0.2-5.119,4.119-6.918,8.758-6.918
		c3.72,0,7.759,0.84,7.759,5.679v10.638c0,1.6,0,2.32,1.08,2.32c0.32,0,0.68-0.08,1.04-0.2V257.801z M954.358,247.203
		c-2.64,1.959-10.318,0.04-10.318,5.119c0,2.24,1.92,3.04,4,3.04c4.479,0,6.319-2.76,6.319-4.679V247.203z"/>
	<path d="M977.078,243.844c-0.52-2.6-2.28-4.119-5.119-4.119c-4.919,0-6.439,3.919-6.439,8.079c0,3.839,1.72,7.559,6.039,7.559
		c3.319,0,5.239-1.88,5.679-5.039h3.479c-0.76,5.079-3.879,8.039-9.119,8.039c-6.319,0-9.678-4.359-9.678-10.558
		c0-6.199,3.199-11.078,9.758-11.078c4.719,0,8.398,2.199,8.918,7.119H977.078z"/>
	<path d="M989.239,237.205h4.119v3h-4.119v12.838c0,1.6,0.44,1.84,2.56,1.84h1.56v3h-2.6c-3.519,0-4.919-0.72-4.919-4.519v-13.158
		h-3.52v-3h3.52v-6.199h3.399V237.205z"/>
	<path d="M1022.277,243.844c-0.52-2.6-2.28-4.119-5.119-4.119c-4.919,0-6.439,3.919-6.439,8.079c0,3.839,1.72,7.559,6.039,7.559
		c3.319,0,5.239-1.88,5.679-5.039h3.479c-0.76,5.079-3.879,8.039-9.118,8.039c-6.319,0-9.678-4.359-9.678-10.558
		c0-6.199,3.199-11.078,9.758-11.078c4.719,0,8.398,2.199,8.918,7.119H1022.277z"/>
	<path d="M1029.719,229.326h3.399v10.918h0.08c1.08-2.52,4.079-3.519,6.519-3.519c5.439,0,7.119,3.119,7.119,7.559v13.598h-3.399
		v-13.998c0-2.56-1.6-4.159-4.199-4.159c-4.119,0-6.119,2.759-6.119,6.479v11.678h-3.399V229.326z"/>
	<path d="M1070.276,257.801c-0.601,0.36-1.44,0.56-2.44,0.56c-1.76,0-2.879-0.96-2.879-3.2c-1.88,2.24-4.399,3.2-7.279,3.2
		c-3.759,0-6.839-1.64-6.839-5.799c0-4.679,3.479-5.719,6.999-6.359c3.72-0.76,6.959-0.44,6.959-3.04c0-2.999-2.479-3.439-4.6-3.439
		c-2.879,0-4.999,0.879-5.159,3.919h-3.399c0.2-5.119,4.12-6.918,8.759-6.918c3.72,0,7.759,0.84,7.759,5.679v10.638
		c0,1.6,0,2.32,1.08,2.32c0.319,0,0.68-0.08,1.04-0.2V257.801z M1064.757,247.203c-2.64,1.959-10.318,0.04-10.318,5.119
		c0,2.24,1.92,3.04,3.999,3.04c4.479,0,6.319-2.76,6.319-4.679V247.203z"/>
	<path d="M1073.438,237.205h3.199v3.28h0.08c1.439-2.56,3.72-3.759,6.719-3.759c5.439,0,7.119,3.119,7.119,7.559v13.598h-3.399
		v-13.998c0-2.56-1.6-4.159-4.199-4.159c-4.119,0-6.119,2.759-6.119,6.479v11.678h-3.399V237.205z"/>
	<path d="M1113.516,256.122c0,6.759-3.039,10.158-9.599,10.158c-3.879,0-8.358-1.6-8.559-6.079h3.399
		c0.12,2.439,3.16,3.359,5.359,3.359c4.439,0,6.199-3.2,6.199-7.839v-1.36h-0.08c-1.16,2.52-3.8,3.759-6.439,3.759
		c-6.158,0-9.238-4.839-9.238-10.478c0-4.879,2.36-10.918,9.559-10.918c2.6,0,4.919,1.16,6.159,3.439h0.04v-2.96h3.199V256.122z
		 M1110.156,247.123c0-3.639-1.6-7.398-5.879-7.398c-4.359,0-6.119,3.559-6.119,7.519c0,3.719,1.359,7.878,5.839,7.878
		S1110.156,251.002,1110.156,247.123z"/>
	<path d="M1136.275,251.322c-0.92,4.6-4.159,7.039-8.838,7.039c-6.6,0-9.719-4.599-9.919-10.878c0-6.239,4.08-10.758,9.719-10.758
		c7.318,0,9.559,6.839,9.358,11.838h-15.478c-0.12,3.599,1.92,6.799,6.439,6.799c2.839,0,4.759-1.32,5.358-4.04H1136.275z
		 M1132.996,245.563c-0.2-3.24-2.56-5.839-5.959-5.839c-3.52,0-5.719,2.639-5.919,5.839H1132.996z"/>
	<path d="M1140.878,253.442h4.439v4.439h-4.439V253.442z"/>
</g>
<g>
	<path d="M762.482,352.035h4.199l11.158,28.555h-4.2l-3.119-8.599h-12.078l-3.2,8.599h-3.919L762.482,352.035z M759.643,368.792
		h9.678l-4.759-13.318h-0.08L759.643,368.792z"/>
	<path d="M780.204,359.914h3.399v2.8h0.08c1.12-2.28,3.719-3.279,6.599-3.279c6.359,0,9.519,5.039,9.519,10.878
		c0,5.879-3.12,10.758-9.438,10.758c-2.08,0-5.199-0.8-6.679-3.24h-0.08v10.678h-3.399V359.914z M789.802,362.434
		c-4.599,0-6.319,3.959-6.319,7.798c0,4.04,1.84,7.839,6.519,7.839c4.639,0,6.199-3.959,6.199-7.999
		C796.201,366.193,794.201,362.434,789.802,362.434z"/>
	<path d="M803.923,359.914h3.399v2.8h0.08c1.12-2.28,3.719-3.279,6.599-3.279c6.359,0,9.519,5.039,9.519,10.878
		c0,5.879-3.12,10.758-9.438,10.758c-2.08,0-5.199-0.8-6.679-3.24h-0.08v10.678h-3.399V359.914z M813.521,362.434
		c-4.599,0-6.319,3.959-6.319,7.798c0,4.04,1.84,7.839,6.519,7.839c4.639,0,6.199-3.959,6.199-7.999
		C819.92,366.193,817.92,362.434,813.521,362.434z"/>
	<path d="M827.402,359.914h3.2v4.359h0.08c1.64-3.359,3.919-4.959,7.599-4.839v3.599c-5.479,0-7.479,3.08-7.479,8.359v9.198h-3.399
		V359.914z"/>
	<path d="M849.761,359.434c6.559,0,10.039,4.759,10.039,10.838c0,6.039-3.479,10.798-10.039,10.798s-10.038-4.759-10.038-10.798
		C839.723,364.193,843.202,359.434,849.761,359.434z M849.761,378.071c3.56,0,6.439-2.8,6.439-7.799s-2.879-7.838-6.439-7.838
		s-6.439,2.839-6.439,7.838S846.201,378.071,849.761,378.071z"/>
	<path d="M873.12,380.59h-3.639l-7.679-20.677h3.799l5.799,17.237h0.08l5.639-17.237h3.559L873.12,380.59z"/>
	<path d="M902.119,380.51c-0.6,0.36-1.44,0.56-2.439,0.56c-1.76,0-2.879-0.96-2.879-3.2c-1.88,2.24-4.399,3.2-7.279,3.2
		c-3.76,0-6.839-1.64-6.839-5.799c0-4.679,3.479-5.719,6.999-6.359c3.72-0.76,6.959-0.44,6.959-3.04
		c0-2.999-2.479-3.439-4.599-3.439c-2.88,0-5,0.879-5.159,3.919h-3.399c0.2-5.119,4.119-6.918,8.758-6.918
		c3.72,0,7.759,0.84,7.759,5.679v10.638c0,1.6,0,2.32,1.08,2.32c0.32,0,0.68-0.08,1.04-0.2V380.51z M896.6,369.912
		c-2.64,1.959-10.318,0.04-10.318,5.119c0,2.24,1.92,3.04,4,3.04c4.479,0,6.319-2.76,6.319-4.679V369.912z"/>
	<path d="M905.481,352.035h3.399v28.555h-3.399V352.035z"/>
	<path d="M934.199,359.434c6.559,0,10.039,4.759,10.039,10.838c0,6.039-3.479,10.798-10.039,10.798s-10.038-4.759-10.038-10.798
		C924.161,364.193,927.64,359.434,934.199,359.434z M934.199,378.071c3.56,0,6.439-2.8,6.439-7.799s-2.879-7.838-6.439-7.838
		s-6.439,2.839-6.439,7.838S930.64,378.071,934.199,378.071z"/>
	<path d="M949.64,362.913h-3.479v-3h3.479v-3.079c0-3.359,2-5.119,5.719-5.119c0.64,0,1.56,0.12,2.2,0.32v2.959
		c-0.6-0.2-1.32-0.28-1.919-0.28c-1.64,0-2.6,0.52-2.6,2.319v2.879h3.999v3h-3.999v17.677h-3.399V362.913z"/>
	<path d="M975.919,359.914h4.119v3h-4.119v12.838c0,1.6,0.44,1.84,2.56,1.84h1.56v3h-2.6c-3.519,0-4.919-0.72-4.919-4.519v-13.158
		H969v-3h3.52v-6.199h3.399V359.914z"/>
	<path d="M983.8,352.035h3.399v10.918h0.08c1.08-2.52,4.079-3.519,6.519-3.519c5.439,0,7.119,3.119,7.119,7.559v13.598h-3.399
		v-13.998c0-2.56-1.6-4.159-4.199-4.159c-4.12,0-6.119,2.759-6.119,6.479v11.678H983.8V352.035z"/>
	<path d="M1023.677,374.031c-0.92,4.6-4.16,7.039-8.839,7.039c-6.599,0-9.718-4.599-9.918-10.878c0-6.239,4.079-10.758,9.718-10.758
		c7.319,0,9.559,6.839,9.358,11.838h-15.478c-0.12,3.599,1.92,6.799,6.439,6.799c2.839,0,4.759-1.32,5.359-4.04H1023.677z
		 M1020.397,368.272c-0.2-3.24-2.56-5.839-5.959-5.839c-3.519,0-5.719,2.639-5.919,5.839H1020.397z"/>
	<path d="M1059.276,360.634c-0.84-4.04-3.999-6.079-7.999-6.079c-6.799,0-9.678,5.599-9.678,11.558
		c0,6.519,2.879,11.958,9.718,11.958c4.959,0,7.919-3.52,8.238-8.239h3.8c-0.76,7.159-5.119,11.438-12.357,11.438
		c-8.839,0-13.198-6.559-13.198-14.877c0-8.318,4.719-15.037,13.518-15.037c5.959,0,10.918,3.199,11.758,9.278H1059.276z"/>
	<path d="M1067.519,352.035h3.399v10.918h0.08c1.08-2.52,4.079-3.519,6.519-3.519c5.439,0,7.119,3.119,7.119,7.559v13.598h-3.399
		v-13.998c0-2.56-1.6-4.159-4.199-4.159c-4.119,0-6.119,2.759-6.119,6.479v11.678h-3.399V352.035z"/>
	<path d="M1108.076,380.51c-0.601,0.36-1.44,0.56-2.44,0.56c-1.76,0-2.879-0.96-2.879-3.2c-1.88,2.24-4.399,3.2-7.279,3.2
		c-3.759,0-6.839-1.64-6.839-5.799c0-4.679,3.479-5.719,6.999-6.359c3.72-0.76,6.959-0.44,6.959-3.04c0-2.999-2.479-3.439-4.6-3.439
		c-2.879,0-4.999,0.879-5.159,3.919h-3.399c0.2-5.119,4.12-6.918,8.759-6.918c3.72,0,7.759,0.84,7.759,5.679v10.638
		c0,1.6,0,2.32,1.08,2.32c0.319,0,0.68-0.08,1.04-0.2V380.51z M1102.557,369.912c-2.64,1.959-10.318,0.04-10.318,5.119
		c0,2.24,1.92,3.04,3.999,3.04c4.479,0,6.319-2.76,6.319-4.679V369.912z"/>
	<path d="M1111.238,359.914h3.199v3.28h0.08c1.439-2.56,3.72-3.759,6.719-3.759c5.439,0,7.119,3.119,7.119,7.559v13.598h-3.399
		v-13.998c0-2.56-1.6-4.159-4.199-4.159c-4.119,0-6.119,2.759-6.119,6.479v11.678h-3.399V359.914z"/>
	<path d="M1151.315,378.831c0,6.759-3.039,10.158-9.599,10.158c-3.879,0-8.358-1.6-8.559-6.079h3.399
		c0.12,2.439,3.16,3.359,5.359,3.359c4.439,0,6.199-3.2,6.199-7.839v-1.36h-0.08c-1.16,2.52-3.8,3.759-6.439,3.759
		c-6.158,0-9.238-4.839-9.238-10.478c0-4.879,2.36-10.918,9.559-10.918c2.6,0,4.919,1.16,6.159,3.439h0.04v-2.96h3.199V378.831z
		 M1147.956,369.832c0-3.639-1.6-7.398-5.879-7.398c-4.359,0-6.119,3.559-6.119,7.519c0,3.719,1.36,7.878,5.839,7.878
		C1146.276,377.831,1147.956,373.711,1147.956,369.832z"/>
	<path d="M1174.075,374.031c-0.92,4.6-4.159,7.039-8.838,7.039c-6.6,0-9.719-4.599-9.919-10.878c0-6.239,4.08-10.758,9.719-10.758
		c7.318,0,9.559,6.839,9.358,11.838h-15.478c-0.12,3.599,1.92,6.799,6.439,6.799c2.839,0,4.759-1.32,5.358-4.04H1174.075z
		 M1170.796,368.272c-0.2-3.24-2.56-5.839-5.959-5.839c-3.52,0-5.719,2.639-5.919,5.839H1170.796z"/>
	<path d="M1189.598,352.035h13.438c5.398,0,8.678,2.879,8.678,7.479c0,3.479-1.479,6.279-4.959,7.239v0.08
		c3.319,0.64,3.96,3.12,4.279,5.879c0.2,2.76,0.08,5.959,1.68,7.879h-4.239c-1.08-1.16-0.479-4.239-1.04-7.039
		c-0.439-2.759-1.079-5.159-4.759-5.159h-9.278v12.198h-3.8V352.035z M1201.316,365.193c3.519,0,6.599-0.92,6.599-5.079
		c0-2.839-1.52-4.879-5.079-4.879h-9.438v9.958H1201.316z"/>
	<path d="M1234.075,374.031c-0.92,4.6-4.159,7.039-8.838,7.039c-6.6,0-9.719-4.599-9.919-10.878c0-6.239,4.08-10.758,9.719-10.758
		c7.318,0,9.559,6.839,9.358,11.838h-15.478c-0.12,3.599,1.92,6.799,6.439,6.799c2.839,0,4.759-1.32,5.358-4.04H1234.075z
		 M1230.796,368.272c-0.2-3.24-2.56-5.839-5.959-5.839c-3.52,0-5.719,2.639-5.919,5.839H1230.796z"/>
	<path d="M1256.395,388.509h-3.399v-10.718h-0.08c-1.119,2.279-3.719,3.279-6.599,3.279c-6.358,0-9.519-5.039-9.519-10.878
		c0-5.839,3.12-10.758,9.438-10.758c2.08,0,5.199,0.8,6.679,3.239h0.08v-2.76h3.399V388.509z M1246.797,378.071
		c4.599,0,6.318-3.959,6.318-7.799c0-4.039-1.84-7.838-6.519-7.838c-4.64,0-6.199,3.959-6.199,7.999
		C1240.397,374.312,1242.397,378.071,1246.797,378.071z"/>
	<path d="M1278.755,380.59h-3.199v-3.279h-0.08c-1.44,2.56-3.72,3.759-6.719,3.759c-5.439,0-7.119-3.12-7.119-7.559v-13.598h3.399
		v13.998c0,2.56,1.6,4.159,4.199,4.159c4.119,0,6.119-2.76,6.119-6.479v-11.678h3.399V380.59z"/>
	<path d="M1301.515,374.031c-0.92,4.6-4.159,7.039-8.838,7.039c-6.6,0-9.719-4.599-9.919-10.878c0-6.239,4.08-10.758,9.719-10.758
		c7.318,0,9.559,6.839,9.358,11.838h-15.478c-0.12,3.599,1.92,6.799,6.439,6.799c2.839,0,4.759-1.32,5.358-4.04H1301.515z
		 M1298.235,368.272c-0.2-3.24-2.56-5.839-5.959-5.839c-3.52,0-5.719,2.639-5.919,5.839H1298.235z"/>
	<path d="M1307.438,374.071c0.119,3.04,2.799,4,5.559,4c2.12,0,4.999-0.48,4.999-3.08c0-5.319-13.518-1.72-13.518-9.678
		c0-4.159,4.079-5.879,7.719-5.879c4.64,0,8.158,1.439,8.479,6.479h-3.399c-0.2-2.639-2.6-3.479-4.799-3.479
		c-2.04,0-4.399,0.56-4.399,2.639c0,2.4,3.6,2.88,6.759,3.6c3.399,0.76,6.759,1.919,6.759,5.879c0,4.959-4.6,6.519-8.799,6.519
		c-4.639,0-8.559-1.88-8.758-6.999H1307.438z"/>
	<path d="M1330.076,359.914h4.12v3h-4.12v12.838c0,1.6,0.44,1.84,2.56,1.84h1.561v3h-2.6c-3.52,0-4.92-0.72-4.92-4.519v-13.158
		h-3.519v-3h3.519v-6.199h3.399V359.914z"/>
</g>
<g>
	<polygon fill="#89C240" points="474.015,264.683 448.691,284.787 423.367,264.683 413.361,272.645 448.691,300.762 
		484.021,272.645 	"/>
	<polygon fill="#89C240" points="413.361,246.496 448.691,274.612 484.021,246.496 474.015,238.532 448.691,258.686 
		423.367,238.532 	"/>
</g>
<g>
	<path fill="#1365A8" d="M318.334,159.685c20.471,0,37.066,16.594,37.066,37.066c0,20.473-16.596,37.068-37.066,37.068
		c-20.473,0-37.068-16.596-37.068-37.068C281.266,176.279,297.861,159.685,318.334,159.685"/>
	<g>
		<path fill="#FFFFFF" d="M322.094,211.658h-4.099v-24.495h-8.872v-3.279c4.677,0,8.92-1.206,9.836-6.413h3.134V211.658z"/>
	</g>
</g>
<rect x="303.445" y="362.368" fill="none" width="159.121" height="26.621"/>
<g enable-background="new    ">
	<path d="M393.563,355.231h6.439l10.678,28.556h-6.519l-2.16-6.359h-10.678l-2.239,6.359h-6.359L393.563,355.231z M392.964,372.749
		h7.398l-3.599-10.479h-0.08L392.964,372.749z"/>
	<path d="M416.964,377.068c0,2.439,2.16,3.479,4.359,3.479c1.6,0,3.72-0.64,3.72-2.64c0-1.72-2.4-2.359-6.439-3.199
		c-3.319-0.76-6.559-1.84-6.559-5.52c0-5.279,4.559-6.639,8.999-6.639c4.479,0,8.679,1.52,9.119,6.599h-5.399
		c-0.16-2.199-1.839-2.8-3.879-2.8c-1.28,0-3.159,0.2-3.159,1.92c0,2.04,3.239,2.319,6.439,3.08c3.319,0.76,6.559,1.959,6.559,5.799
		c0,5.438-4.759,7.198-9.438,7.198c-4.799,0-9.519-1.8-9.719-7.278H416.964z"/>
	<path d="M438.444,377.068c0,2.439,2.16,3.479,4.359,3.479c1.6,0,3.72-0.64,3.72-2.64c0-1.72-2.4-2.359-6.439-3.199
		c-3.319-0.76-6.559-1.84-6.559-5.52c0-5.279,4.559-6.639,8.999-6.639c4.479,0,8.679,1.52,9.119,6.599h-5.399
		c-0.16-2.199-1.839-2.8-3.879-2.8c-1.28,0-3.159,0.2-3.159,1.92c0,2.04,3.239,2.319,6.439,3.08c3.319,0.76,6.559,1.959,6.559,5.799
		c0,5.438-4.759,7.198-9.438,7.198c-4.799,0-9.519-1.8-9.719-7.278H438.444z"/>
	<path d="M460.203,374.828c0.16,3.64,1.88,5.239,5.079,5.239c2.28,0,4.119-1.399,4.479-2.679h4.999
		c-1.6,4.919-4.999,6.958-9.678,6.958c-6.519,0-10.559-4.479-10.559-10.878c0-6.199,4.279-10.918,10.559-10.918
		c7.039,0,10.478,5.919,10.038,12.277H460.203z M469.441,371.229c-0.52-2.88-1.76-4.399-4.519-4.399c-3.679,0-4.599,2.8-4.719,4.399
		H469.441z"/>
	<path d="M482.883,377.068c0,2.439,2.16,3.479,4.359,3.479c1.6,0,3.72-0.64,3.72-2.64c0-1.72-2.4-2.359-6.439-3.199
		c-3.319-0.76-6.559-1.84-6.559-5.52c0-5.279,4.559-6.639,8.999-6.639c4.479,0,8.679,1.52,9.119,6.599h-5.399
		c-0.16-2.199-1.839-2.8-3.879-2.8c-1.28,0-3.159,0.2-3.159,1.92c0,2.04,3.239,2.319,6.439,3.08c3.319,0.76,6.559,1.959,6.559,5.799
		c0,5.438-4.759,7.198-9.438,7.198c-4.799,0-9.518-1.8-9.718-7.278H482.883z"/>
	<path d="M504.362,377.068c0,2.439,2.16,3.479,4.359,3.479c1.6,0,3.72-0.64,3.72-2.64c0-1.72-2.4-2.359-6.439-3.199
		c-3.319-0.76-6.559-1.84-6.559-5.52c0-5.279,4.559-6.639,8.999-6.639c4.479,0,8.679,1.52,9.119,6.599h-5.399
		c-0.16-2.199-1.839-2.8-3.879-2.8c-1.28,0-3.159,0.2-3.159,1.92c0,2.04,3.239,2.319,6.439,3.08c3.319,0.76,6.559,1.959,6.559,5.799
		c0,5.438-4.759,7.198-9.438,7.198c-4.799,0-9.518-1.8-9.718-7.278H504.362z"/>
	<path d="M521.603,363.11h5.359v2.8h0.08c1.479-2.12,3.599-3.359,6.319-3.359c2.6,0,4.919,0.92,6.039,3.439
		c1.24-1.8,3.359-3.439,6.239-3.439c4.399,0,7.559,2.039,7.559,7.398v13.838h-5.679v-11.718c0-2.76-0.24-5.039-3.479-5.039
		c-3.2,0-3.799,2.679-3.799,5.239v11.518h-5.679v-11.598c0-2.4,0.16-5.159-3.439-5.159c-1.12,0-3.839,0.72-3.839,4.759v11.998
		h-5.679V363.11z"/>
	<path d="M562.361,374.828c0.16,3.64,1.88,5.239,5.079,5.239c2.28,0,4.119-1.399,4.479-2.679h4.999
		c-1.6,4.919-4.999,6.958-9.678,6.958c-6.519,0-10.559-4.479-10.559-10.878c0-6.199,4.279-10.918,10.559-10.918
		c7.039,0,10.478,5.919,10.038,12.277H562.361z M571.6,371.229c-0.52-2.88-1.76-4.399-4.519-4.399c-3.679,0-4.599,2.8-4.719,4.399
		H571.6z"/>
	<path d="M580.642,363.11h5.399v2.88h0.12c1.44-2.359,3.919-3.439,6.319-3.439c6.039,0,7.559,3.399,7.559,8.519v12.718h-5.679
		v-11.678c0-3.399-0.96-5.079-3.64-5.079c-3.079,0-4.399,1.72-4.399,5.919v10.838h-5.679V363.11z"/>
	<path d="M611.56,363.11h4.159v3.8h-4.159v10.238c0,1.92,0.48,2.399,2.399,2.399c0.64,0,1.24-0.04,1.76-0.16v4.439
		c-0.959,0.16-2.2,0.2-3.319,0.2c-3.52,0-6.519-0.76-6.519-4.92V366.91h-3.439v-3.8h3.439v-6.198h5.679V363.11z"/>
</g>
<g>
	<polygon fill="#89C240" points="474.015,438.09 448.691,458.195 423.367,438.09 413.361,446.052 448.691,474.169 484.021,446.052 	
		"/>
	<polygon fill="#89C240" points="413.361,419.903 448.691,448.02 484.021,419.903 474.015,411.94 448.691,432.093 423.367,411.94 	
		"/>
</g>
<g>
	<path fill="#1365A8" d="M318.334,333.093c20.471,0,37.066,16.594,37.066,37.066c0,20.473-16.596,37.068-37.066,37.068
		c-20.473,0-37.068-16.596-37.068-37.068C281.266,349.687,297.861,333.093,318.334,333.093"/>
	<g>
		<path fill="#FFFFFF" d="M307.05,362.981c-0.386-6.943,3.761-12.103,10.994-12.103c5.931,0,10.704,3.472,10.704,9.836
			c0,6.027-4.05,9.017-8.293,11.717c-4.243,2.555-8.824,4.821-9.596,9.017h17.551v3.616h-22.325
			c0.627-8.052,4.773-11.09,9.595-13.983c5.786-3.616,8.728-5.641,8.728-10.415c0-3.712-2.99-6.172-6.606-6.172
			c-4.773,0-6.799,4.388-6.654,8.486H307.05z"/>
	</g>
</g>
<g>
	<path d="M754.883,512.656h3.799v28.555h-3.799V512.656z"/>
	<path d="M764.523,520.535h3.2v3.039h0.08c1.56-2.359,3.759-3.52,6.679-3.52c2.56,0,4.839,0.96,5.679,3.52
		c1.4-2.239,3.799-3.52,6.479-3.52c4.12,0,6.879,1.721,6.879,6v15.156h-3.399v-13.557c0-2.561-0.68-4.6-4-4.6
		c-3.319,0-5.399,2.08-5.399,5.279v12.877h-3.399v-13.557c0-2.68-0.84-4.6-3.879-4.6c-4,0-5.519,3.68-5.519,5.279v12.877h-3.399
		V520.535z"/>
	<path d="M798.763,520.535h3.399v2.799h0.08c1.12-2.279,3.719-3.279,6.599-3.279c6.359,0,9.519,5.039,9.519,10.879
		c0,5.879-3.12,10.758-9.438,10.758c-2.08,0-5.199-0.8-6.679-3.24h-0.08v10.679h-3.399V520.535z M808.361,523.055
		c-4.599,0-6.319,3.959-6.319,7.799c0,4.039,1.84,7.838,6.519,7.838c4.639,0,6.199-3.959,6.199-7.998
		C814.76,526.814,812.76,523.055,808.361,523.055z"/>
	<path d="M822.562,512.656h3.399v28.555h-3.399V512.656z"/>
	<path d="M848.879,534.652c-0.92,4.6-4.16,7.039-8.839,7.039c-6.599,0-9.718-4.6-9.918-10.879c0-6.238,4.079-10.758,9.718-10.758
		c7.319,0,9.558,6.84,9.358,11.838h-15.478c-0.12,3.6,1.92,6.799,6.439,6.799c2.839,0,4.759-1.319,5.359-4.039H848.879z
		 M845.599,528.894c-0.2-3.239-2.56-5.839-5.959-5.839c-3.519,0-5.719,2.639-5.919,5.839H845.599z"/>
	<path d="M852.721,520.535h3.2v3.039H856c1.56-2.359,3.759-3.52,6.679-3.52c2.56,0,4.839,0.96,5.679,3.52
		c1.4-2.239,3.799-3.52,6.479-3.52c4.12,0,6.879,1.721,6.879,6v15.156h-3.399v-13.557c0-2.561-0.68-4.6-4-4.6
		c-3.319,0-5.399,2.08-5.399,5.279v12.877h-3.399v-13.557c0-2.68-0.84-4.6-3.879-4.6c-4,0-5.519,3.68-5.519,5.279v12.877h-3.399
		V520.535z"/>
	<path d="M904.478,534.652c-0.92,4.6-4.16,7.039-8.839,7.039c-6.599,0-9.718-4.6-9.918-10.879c0-6.238,4.079-10.758,9.718-10.758
		c7.319,0,9.558,6.84,9.358,11.838H889.32c-0.12,3.6,1.92,6.799,6.439,6.799c2.839,0,4.759-1.319,5.359-4.039H904.478z
		 M901.198,528.894c-0.2-3.239-2.56-5.839-5.959-5.839c-3.519,0-5.719,2.639-5.919,5.839H901.198z"/>
	<path d="M908.32,520.535h3.199v3.279h0.08c1.44-2.56,3.72-3.76,6.719-3.76c5.439,0,7.119,3.119,7.119,7.559v13.598h-3.399v-13.997
		c0-2.56-1.6-4.159-4.199-4.159c-4.12,0-6.119,2.76-6.119,6.479v11.678h-3.399V520.535z"/>
	<path d="M935.28,520.535h4.119v2.999h-4.119v12.838c0,1.601,0.44,1.84,2.56,1.84h1.56v2.999h-2.6c-3.519,0-4.919-0.719-4.919-4.519
		v-13.158h-3.52v-2.999h3.52v-6.199h3.399V520.535z"/>
	<path d="M961.477,541.131c-0.6,0.36-1.44,0.561-2.439,0.561c-1.76,0-2.879-0.96-2.879-3.199c-1.88,2.239-4.399,3.199-7.279,3.199
		c-3.76,0-6.839-1.64-6.839-5.799c0-4.68,3.479-5.719,6.999-6.359c3.72-0.76,6.959-0.439,6.959-3.039c0-3-2.479-3.439-4.599-3.439
		c-2.88,0-5,0.879-5.159,3.919h-3.399c0.2-5.119,4.119-6.919,8.758-6.919c3.72,0,7.759,0.84,7.759,5.68v10.638
		c0,1.601,0,2.319,1.08,2.319c0.32,0,0.68-0.08,1.04-0.199V541.131z M955.958,530.533c-2.64,1.959-10.318,0.04-10.318,5.119
		c0,2.24,1.92,3.039,4,3.039c4.479,0,6.319-2.76,6.319-4.679V530.533z"/>
	<path d="M969.359,520.535h4.119v2.999h-4.119v12.838c0,1.601,0.44,1.84,2.56,1.84h1.56v2.999h-2.6
		c-3.519,0-4.919-0.719-4.919-4.519v-13.158h-3.52v-2.999h3.52v-6.199h3.399V520.535z"/>
	<path d="M980.839,516.815h-3.399v-4.159h3.399V516.815z M977.439,520.535h3.399v20.676h-3.399V520.535z"/>
	<path d="M995.037,520.055c6.559,0,10.039,4.76,10.039,10.838c0,6.039-3.479,10.799-10.039,10.799s-10.038-4.76-10.038-10.799
		C984.999,524.814,988.478,520.055,995.037,520.055z M995.037,538.691c3.56,0,6.439-2.799,6.439-7.799
		c0-4.998-2.879-7.838-6.439-7.838s-6.439,2.84-6.439,7.838C988.598,535.893,991.478,538.691,995.037,538.691z"/>
	<path d="M1009.078,520.535h3.199v3.279h0.08c1.44-2.56,3.72-3.76,6.719-3.76c5.439,0,7.119,3.119,7.119,7.559v13.598h-3.399
		v-13.997c0-2.56-1.6-4.159-4.199-4.159c-4.12,0-6.119,2.76-6.119,6.479v11.678h-3.399V520.535z"/>
	<path d="M1051.357,520.055c6.559,0,10.038,4.76,10.038,10.838c0,6.039-3.479,10.799-10.038,10.799
		c-6.56,0-10.039-4.76-10.039-10.799C1041.318,524.814,1044.798,520.055,1051.357,520.055z M1051.357,538.691
		c3.559,0,6.438-2.799,6.438-7.799c0-4.998-2.88-7.838-6.438-7.838c-3.56,0-6.439,2.84-6.439,7.838
		C1044.918,535.893,1047.798,538.691,1051.357,538.691z"/>
	<path d="M1066.798,523.534h-3.479v-2.999h3.479v-3.08c0-3.359,2-5.119,5.72-5.119c0.64,0,1.56,0.12,2.199,0.32v2.959
		c-0.6-0.199-1.319-0.279-1.92-0.279c-1.64,0-2.6,0.52-2.6,2.319v2.88h4v2.999h-4v17.677h-3.399V523.534z"/>
	<path d="M1093.077,520.535h4.12v2.999h-4.12v12.838c0,1.601,0.44,1.84,2.56,1.84h1.561v2.999h-2.6c-3.52,0-4.92-0.719-4.92-4.519
		v-13.158h-3.519v-2.999h3.519v-6.199h3.399V520.535z"/>
	<path d="M1100.958,512.656h3.399v10.918h0.08c1.08-2.52,4.079-3.52,6.519-3.52c5.439,0,7.119,3.119,7.119,7.559v13.598h-3.399
		v-13.997c0-2.56-1.6-4.159-4.199-4.159c-4.119,0-6.119,2.76-6.119,6.479v11.678h-3.399V512.656z"/>
	<path d="M1140.835,534.652c-0.92,4.6-4.159,7.039-8.838,7.039c-6.6,0-9.719-4.6-9.919-10.879c0-6.238,4.08-10.758,9.719-10.758
		c7.318,0,9.559,6.84,9.358,11.838h-15.478c-0.12,3.6,1.92,6.799,6.439,6.799c2.839,0,4.759-1.319,5.358-4.039H1140.835z
		 M1137.556,528.894c-0.2-3.239-2.56-5.839-5.959-5.839c-3.52,0-5.719,2.639-5.919,5.839H1137.556z"/>
	<path d="M1174.115,541.131c-0.601,0.36-1.44,0.561-2.44,0.561c-1.76,0-2.879-0.96-2.879-3.199c-1.88,2.239-4.399,3.199-7.279,3.199
		c-3.759,0-6.839-1.64-6.839-5.799c0-4.68,3.479-5.719,6.999-6.359c3.72-0.76,6.959-0.439,6.959-3.039c0-3-2.479-3.439-4.6-3.439
		c-2.879,0-4.999,0.879-5.159,3.919h-3.399c0.2-5.119,4.12-6.919,8.759-6.919c3.72,0,7.759,0.84,7.759,5.68v10.638
		c0,1.601,0,2.319,1.08,2.319c0.319,0,0.68-0.08,1.04-0.199V541.131z M1168.596,530.533c-2.64,1.959-10.318,0.04-10.318,5.119
		c0,2.24,1.92,3.039,3.999,3.039c4.479,0,6.319-2.76,6.319-4.679V530.533z"/>
	<path d="M1177.397,520.535h3.399v2.799h0.08c1.119-2.279,3.719-3.279,6.599-3.279c6.359,0,9.519,5.039,9.519,10.879
		c0,5.879-3.119,10.758-9.438,10.758c-2.08,0-5.199-0.8-6.679-3.24h-0.08v10.679h-3.399V520.535z M1186.996,523.055
		c-4.6,0-6.319,3.959-6.319,7.799c0,4.039,1.84,7.838,6.519,7.838c4.64,0,6.199-3.959,6.199-7.998
		C1193.395,526.814,1191.395,523.055,1186.996,523.055z"/>
	<path d="M1201.117,520.535h3.399v2.799h0.08c1.119-2.279,3.719-3.279,6.599-3.279c6.359,0,9.519,5.039,9.519,10.879
		c0,5.879-3.119,10.758-9.438,10.758c-2.08,0-5.199-0.8-6.679-3.24h-0.08v10.679h-3.399V520.535z M1210.716,523.055
		c-4.6,0-6.319,3.959-6.319,7.799c0,4.039,1.84,7.838,6.519,7.838c4.64,0,6.199-3.959,6.199-7.998
		C1217.114,526.814,1215.114,523.055,1210.716,523.055z"/>
	<path d="M1224.597,520.535h3.199v4.359h0.08c1.64-3.359,3.92-4.959,7.599-4.84v3.6c-5.479,0-7.479,3.08-7.479,8.359v9.197h-3.399
		V520.535z"/>
	<path d="M1246.955,520.055c6.559,0,10.038,4.76,10.038,10.838c0,6.039-3.479,10.799-10.038,10.799
		c-6.56,0-10.039-4.76-10.039-10.799C1236.916,524.814,1240.396,520.055,1246.955,520.055z M1246.955,538.691
		c3.559,0,6.438-2.799,6.438-7.799c0-4.998-2.88-7.838-6.438-7.838c-3.56,0-6.439,2.84-6.439,7.838
		C1240.516,535.893,1243.396,538.691,1246.955,538.691z"/>
	<path d="M1270.314,541.211h-3.64l-7.679-20.676h3.8l5.799,17.236h0.08l5.639-17.236h3.56L1270.314,541.211z"/>
	<path d="M1298.633,534.652c-0.92,4.6-4.159,7.039-8.838,7.039c-6.6,0-9.719-4.6-9.919-10.879c0-6.238,4.08-10.758,9.719-10.758
		c7.318,0,9.559,6.84,9.358,11.838h-15.478c-0.12,3.6,1.92,6.799,6.439,6.799c2.839,0,4.759-1.319,5.358-4.039H1298.633z
		 M1295.354,528.894c-0.2-3.239-2.56-5.839-5.959-5.839c-3.52,0-5.719,2.639-5.919,5.839H1295.354z"/>
	<path d="M1320.952,541.211h-3.399v-2.799h-0.08c-1.119,2.279-3.719,3.279-6.599,3.279c-6.358,0-9.519-5.039-9.519-10.879
		c0-5.838,3.12-10.758,9.438-10.758c2.08,0,5.199,0.801,6.679,3.24h0.08v-10.639h3.399V541.211z M1311.354,538.691
		c4.599,0,6.318-3.959,6.318-7.799c0-4.039-1.84-7.838-6.519-7.838c-4.64,0-6.199,3.959-6.199,7.998
		C1304.955,534.933,1306.955,538.691,1311.354,538.691z"/>
	<path d="M1357.952,521.255c-0.84-4.04-3.999-6.079-7.999-6.079c-6.799,0-9.678,5.6-9.678,11.559c0,6.519,2.879,11.957,9.718,11.957
		c4.959,0,7.919-3.52,8.238-8.238h3.8c-0.76,7.158-5.119,11.438-12.357,11.438c-8.839,0-13.198-6.559-13.198-14.877
		s4.719-15.037,13.518-15.037c5.959,0,10.918,3.199,11.758,9.278H1357.952z"/>
	<path d="M1366.194,512.656h3.399v10.918h0.08c1.08-2.52,4.079-3.52,6.519-3.52c5.439,0,7.119,3.119,7.119,7.559v13.598h-3.399
		v-13.997c0-2.56-1.6-4.159-4.199-4.159c-4.119,0-6.119,2.76-6.119,6.479v11.678h-3.399V512.656z"/>
	<path d="M1406.752,541.131c-0.601,0.36-1.44,0.561-2.44,0.561c-1.76,0-2.879-0.96-2.879-3.199c-1.88,2.239-4.399,3.199-7.279,3.199
		c-3.759,0-6.839-1.64-6.839-5.799c0-4.68,3.479-5.719,6.999-6.359c3.72-0.76,6.959-0.439,6.959-3.039c0-3-2.479-3.439-4.6-3.439
		c-2.879,0-4.999,0.879-5.159,3.919h-3.399c0.2-5.119,4.12-6.919,8.759-6.919c3.72,0,7.759,0.84,7.759,5.68v10.638
		c0,1.601,0,2.319,1.08,2.319c0.319,0,0.68-0.08,1.04-0.199V541.131z M1401.232,530.533c-2.64,1.959-10.318,0.04-10.318,5.119
		c0,2.24,1.92,3.039,3.999,3.039c4.479,0,6.319-2.76,6.319-4.679V530.533z"/>
	<path d="M1409.914,520.535h3.199v3.279h0.08c1.439-2.56,3.72-3.76,6.719-3.76c5.439,0,7.119,3.119,7.119,7.559v13.598h-3.399
		v-13.997c0-2.56-1.6-4.159-4.199-4.159c-4.119,0-6.119,2.76-6.119,6.479v11.678h-3.399V520.535z"/>
	<path d="M1449.991,539.451c0,6.76-3.039,10.158-9.599,10.158c-3.879,0-8.358-1.6-8.559-6.078h3.399
		c0.12,2.439,3.16,3.359,5.359,3.359c4.439,0,6.199-3.199,6.199-7.839v-1.36h-0.08c-1.16,2.52-3.8,3.76-6.439,3.76
		c-6.158,0-9.238-4.839-9.238-10.479c0-4.879,2.36-10.918,9.559-10.918c2.6,0,4.919,1.16,6.159,3.439h0.04v-2.959h3.199V539.451z
		 M1446.632,530.453c0-3.639-1.6-7.398-5.879-7.398c-4.359,0-6.119,3.559-6.119,7.519c0,3.72,1.36,7.878,5.839,7.878
		C1444.952,538.451,1446.632,534.332,1446.632,530.453z"/>
	<path d="M1472.751,534.652c-0.92,4.6-4.159,7.039-8.838,7.039c-6.6,0-9.719-4.6-9.919-10.879c0-6.238,4.08-10.758,9.719-10.758
		c7.318,0,9.559,6.84,9.358,11.838h-15.478c-0.12,3.6,1.92,6.799,6.439,6.799c2.839,0,4.759-1.319,5.358-4.039H1472.751z
		 M1469.472,528.894c-0.2-3.239-2.56-5.839-5.959-5.839c-3.52,0-5.719,2.639-5.919,5.839H1469.472z"/>
	<path d="M1488.273,512.656h13.438c5.398,0,8.678,2.879,8.678,7.479c0,3.479-1.479,6.279-4.959,7.238v0.08
		c3.319,0.641,3.96,3.12,4.279,5.879c0.2,2.76,0.08,5.959,1.68,7.879h-4.239c-1.08-1.159-0.479-4.238-1.04-7.039
		c-0.439-2.759-1.079-5.158-4.759-5.158h-9.278v12.197h-3.8V512.656z M1499.992,525.814c3.519,0,6.599-0.92,6.599-5.08
		c0-2.839-1.52-4.879-5.079-4.879h-9.438v9.959H1499.992z"/>
	<path d="M1532.751,534.652c-0.92,4.6-4.159,7.039-8.838,7.039c-6.6,0-9.719-4.6-9.919-10.879c0-6.238,4.08-10.758,9.719-10.758
		c7.318,0,9.559,6.84,9.358,11.838h-15.478c-0.12,3.6,1.92,6.799,6.439,6.799c2.839,0,4.759-1.319,5.358-4.039H1532.751z
		 M1529.472,528.894c-0.2-3.239-2.56-5.839-5.959-5.839c-3.52,0-5.719,2.639-5.919,5.839H1529.472z"/>
	<path d="M1555.07,549.13h-3.399v-10.718h-0.08c-1.119,2.279-3.719,3.279-6.599,3.279c-6.358,0-9.519-5.039-9.519-10.879
		c0-5.838,3.12-10.758,9.438-10.758c2.08,0,5.199,0.801,6.679,3.24h0.08v-2.76h3.399V549.13z M1545.473,538.691
		c4.599,0,6.318-3.959,6.318-7.799c0-4.039-1.84-7.838-6.519-7.838c-4.64,0-6.199,3.959-6.199,7.998
		C1539.073,534.933,1541.073,538.691,1545.473,538.691z"/>
	<path d="M1577.431,541.211h-3.199v-3.279h-0.08c-1.44,2.561-3.72,3.76-6.719,3.76c-5.439,0-7.119-3.119-7.119-7.559v-13.598h3.399
		v13.998c0,2.559,1.6,4.158,4.199,4.158c4.119,0,6.119-2.76,6.119-6.479v-11.678h3.399V541.211z"/>
	<path d="M1600.19,534.652c-0.92,4.6-4.159,7.039-8.838,7.039c-6.6,0-9.719-4.6-9.919-10.879c0-6.238,4.08-10.758,9.719-10.758
		c7.318,0,9.559,6.84,9.358,11.838h-15.478c-0.12,3.6,1.92,6.799,6.439,6.799c2.839,0,4.759-1.319,5.358-4.039H1600.19z
		 M1596.911,528.894c-0.2-3.239-2.56-5.839-5.959-5.839c-3.52,0-5.719,2.639-5.919,5.839H1596.911z"/>
	<path d="M1606.113,534.692c0.119,3.04,2.799,3.999,5.559,3.999c2.12,0,4.999-0.479,4.999-3.079c0-5.319-13.518-1.72-13.518-9.679
		c0-4.158,4.079-5.879,7.719-5.879c4.64,0,8.158,1.439,8.479,6.479h-3.399c-0.2-2.639-2.6-3.479-4.799-3.479
		c-2.04,0-4.399,0.56-4.399,2.639c0,2.4,3.6,2.881,6.759,3.6c3.399,0.76,6.759,1.92,6.759,5.879c0,4.96-4.6,6.52-8.799,6.52
		c-4.639,0-8.559-1.88-8.758-6.999H1606.113z"/>
	<path d="M1628.752,520.535h4.12v2.999h-4.12v12.838c0,1.601,0.44,1.84,2.56,1.84h1.561v2.999h-2.6c-3.52,0-4.92-0.719-4.92-4.519
		v-13.158h-3.519v-2.999h3.519v-6.199h3.399V520.535z"/>
	<path d="M1637.393,536.771h4.439v4.439h-4.439V536.771z"/>
</g>
<g>
	<defs>
		<rect id="SVGID_1_" y="1163" width="332" height="37"/>
	</defs>
	<clipPath id="SVGID_2_">
		<use xlink:href="#SVGID_1_"  overflow="visible"/>
	</clipPath>
	
		<rect y="1163" opacity="0" clip-path="url(#SVGID_2_)" fill-rule="evenodd" clip-rule="evenodd" fill="#FFFFFF" width="332" height="37"/>
</g>
<g>
	<path d="M774.8,870.43c-0.84-4.04-4-6.08-7.999-6.08c-6.799,0-9.678,5.6-9.678,11.559c0,6.52,2.879,11.958,9.718,11.958
		c4.959,0,7.919-3.52,8.239-8.239h3.799c-0.76,7.159-5.119,11.438-12.358,11.438c-8.838,0-13.198-6.559-13.198-14.878
		c0-8.318,4.719-15.037,13.518-15.037c5.959,0,10.918,3.199,11.758,9.279H774.8z"/>
	<path d="M783.243,861.83h3.399v28.556h-3.399V861.83z"/>
	<path d="M800.841,869.229c6.559,0,10.039,4.759,10.039,10.838c0,6.039-3.479,10.798-10.039,10.798s-10.038-4.759-10.038-10.798
		C790.803,873.988,794.282,869.229,800.841,869.229z M800.841,887.866c3.56,0,6.439-2.8,6.439-7.799s-2.879-7.839-6.439-7.839
		s-6.439,2.84-6.439,7.839S797.281,887.866,800.841,887.866z"/>
	<path d="M816.961,883.867c0.12,3.039,2.8,3.999,5.559,3.999c2.12,0,4.999-0.479,4.999-3.079c0-5.319-13.518-1.721-13.518-9.679
		c0-4.159,4.079-5.879,7.719-5.879c4.639,0,8.159,1.439,8.479,6.479H826.8c-0.2-2.64-2.6-3.479-4.799-3.479
		c-2.04,0-4.399,0.561-4.399,2.64c0,2.399,3.599,2.88,6.759,3.6c3.399,0.76,6.759,1.919,6.759,5.879c0,4.96-4.599,6.519-8.798,6.519
		c-4.64,0-8.559-1.879-8.759-6.998H816.961z"/>
	<path d="M851.999,890.386h-3.2v-3.279h-0.08c-1.44,2.56-3.72,3.759-6.719,3.759c-5.439,0-7.119-3.119-7.119-7.559v-13.598h3.399
		v13.998c0,2.56,1.6,4.159,4.199,4.159c4.12,0,6.119-2.76,6.119-6.479v-11.678h3.399V890.386z"/>
	<path d="M857.002,869.709h3.2v4.359h0.08c1.64-3.359,3.919-4.959,7.599-4.839v3.599c-5.479,0-7.479,3.08-7.479,8.359v9.198h-3.399
		V869.709z"/>
	<path d="M888.079,883.826c-0.92,4.6-4.16,7.039-8.839,7.039c-6.599,0-9.718-4.599-9.918-10.878c0-6.239,4.079-10.758,9.718-10.758
		c7.319,0,9.558,6.839,9.358,11.838h-15.478c-0.12,3.599,1.92,6.799,6.439,6.799c2.839,0,4.759-1.319,5.359-4.04H888.079z
		 M884.799,878.068c-0.2-3.24-2.56-5.84-5.959-5.84c-3.519,0-5.719,2.64-5.919,5.84H884.799z"/>
	<path d="M911.96,869.229c6.559,0,10.039,4.759,10.039,10.838c0,6.039-3.479,10.798-10.039,10.798s-10.038-4.759-10.038-10.798
		C901.922,873.988,905.401,869.229,911.96,869.229z M911.96,887.866c3.56,0,6.439-2.8,6.439-7.799s-2.879-7.839-6.439-7.839
		s-6.439,2.84-6.439,7.839S908.4,887.866,911.96,887.866z"/>
	<path d="M927.401,872.709h-3.479v-3h3.479v-3.079c0-3.359,2-5.119,5.719-5.119c0.64,0,1.56,0.12,2.2,0.319v2.96
		c-0.6-0.2-1.32-0.28-1.919-0.28c-1.64,0-2.6,0.52-2.6,2.32v2.879h3.999v3H930.8v17.677h-3.399V872.709z"/>
	<path d="M969.598,870.43c-0.84-4.04-4-6.08-7.999-6.08c-6.799,0-9.678,5.6-9.678,11.559c0,6.52,2.879,11.958,9.718,11.958
		c4.959,0,7.919-3.52,8.239-8.239h3.799c-0.76,7.159-5.119,11.438-12.358,11.438c-8.838,0-13.198-6.559-13.198-14.878
		c0-8.318,4.719-15.037,13.518-15.037c5.959,0,10.918,3.199,11.758,9.279H969.598z"/>
	<path d="M977.84,861.83h3.399v10.918h0.08c1.08-2.52,4.079-3.519,6.519-3.519c5.439,0,7.119,3.119,7.119,7.559v13.598h-3.399
		v-13.997c0-2.561-1.6-4.16-4.199-4.16c-4.12,0-6.119,2.76-6.119,6.479v11.679h-3.399V861.83z"/>
	<path d="M1018.397,890.306c-0.6,0.36-1.44,0.56-2.439,0.56c-1.76,0-2.879-0.959-2.879-3.199c-1.88,2.24-4.399,3.199-7.279,3.199
		c-3.76,0-6.839-1.639-6.839-5.799c0-4.68,3.479-5.719,6.999-6.359c3.72-0.76,6.959-0.439,6.959-3.039
		c0-2.999-2.479-3.439-4.599-3.439c-2.88,0-5,0.88-5.159,3.92h-3.399c0.2-5.119,4.119-6.919,8.758-6.919
		c3.72,0,7.759,0.84,7.759,5.679v10.639c0,1.6,0,2.319,1.08,2.319c0.32,0,0.68-0.08,1.04-0.2V890.306z M1012.878,879.707
		c-2.64,1.96-10.318,0.041-10.318,5.119c0,2.24,1.92,3.04,4,3.04c4.479,0,6.319-2.76,6.319-4.679V879.707z"/>
	<path d="M1021.56,869.709h3.199v3.279h0.08c1.439-2.559,3.72-3.759,6.719-3.759c5.439,0,7.119,3.119,7.119,7.559v13.598h-3.399
		v-13.997c0-2.561-1.6-4.16-4.199-4.16c-4.119,0-6.119,2.76-6.119,6.479v11.679h-3.399V869.709z"/>
	<path d="M1061.637,888.626c0,6.759-3.039,10.158-9.599,10.158c-3.879,0-8.358-1.6-8.559-6.079h3.399
		c0.12,2.439,3.16,3.359,5.359,3.359c4.439,0,6.199-3.199,6.199-7.838v-1.36h-0.08c-1.16,2.52-3.8,3.759-6.439,3.759
		c-6.158,0-9.238-4.838-9.238-10.478c0-4.88,2.36-10.918,9.559-10.918c2.6,0,4.919,1.159,6.159,3.439h0.04v-2.96h3.199V888.626z
		 M1058.277,879.627c0-3.639-1.6-7.398-5.879-7.398c-4.359,0-6.119,3.56-6.119,7.52c0,3.719,1.359,7.878,5.839,7.878
		S1058.277,883.507,1058.277,879.627z"/>
	<path d="M1084.396,883.826c-0.92,4.6-4.159,7.039-8.838,7.039c-6.6,0-9.719-4.599-9.919-10.878c0-6.239,4.08-10.758,9.719-10.758
		c7.318,0,9.559,6.839,9.358,11.838h-15.478c-0.12,3.599,1.92,6.799,6.439,6.799c2.839,0,4.759-1.319,5.358-4.04H1084.396z
		 M1081.117,878.068c-0.2-3.24-2.56-5.84-5.959-5.84c-3.52,0-5.719,2.64-5.919,5.84H1081.117z"/>
	<path d="M1099.919,861.83h13.438c5.398,0,8.678,2.88,8.678,7.479c0,3.48-1.479,6.279-4.959,7.239v0.08
		c3.319,0.64,3.96,3.12,4.279,5.879c0.2,2.76,0.08,5.959,1.68,7.879h-4.239c-1.08-1.159-0.479-4.239-1.04-7.039
		c-0.439-2.759-1.079-5.159-4.759-5.159h-9.278v12.198h-3.8V861.83z M1111.638,874.988c3.519,0,6.599-0.92,6.599-5.079
		c0-2.839-1.52-4.88-5.079-4.88h-9.438v9.959H1111.638z"/>
	<path d="M1144.396,883.826c-0.92,4.6-4.159,7.039-8.838,7.039c-6.6,0-9.719-4.599-9.919-10.878c0-6.239,4.08-10.758,9.719-10.758
		c7.318,0,9.559,6.839,9.358,11.838h-15.478c-0.12,3.599,1.92,6.799,6.439,6.799c2.839,0,4.759-1.319,5.358-4.04H1144.396z
		 M1141.116,878.068c-0.2-3.24-2.56-5.84-5.959-5.84c-3.52,0-5.719,2.64-5.919,5.84H1141.116z"/>
	<path d="M1166.715,898.305h-3.399v-10.719h-0.08c-1.119,2.279-3.719,3.279-6.599,3.279c-6.358,0-9.519-5.039-9.519-10.878
		s3.12-10.758,9.438-10.758c2.08,0,5.199,0.8,6.679,3.239h0.08v-2.76h3.399V898.305z M1157.117,887.866
		c4.599,0,6.318-3.96,6.318-7.799c0-4.039-1.84-7.839-6.519-7.839c-4.64,0-6.199,3.959-6.199,7.999
		C1150.718,884.107,1152.718,887.866,1157.117,887.866z"/>
	<path d="M1189.075,890.386h-3.199v-3.279h-0.08c-1.44,2.56-3.72,3.759-6.719,3.759c-5.439,0-7.119-3.119-7.119-7.559v-13.598h3.399
		v13.998c0,2.56,1.6,4.159,4.199,4.159c4.119,0,6.119-2.76,6.119-6.479v-11.678h3.399V890.386z"/>
	<path d="M1211.835,883.826c-0.92,4.6-4.159,7.039-8.838,7.039c-6.6,0-9.719-4.599-9.919-10.878c0-6.239,4.08-10.758,9.719-10.758
		c7.318,0,9.559,6.839,9.358,11.838h-15.478c-0.12,3.599,1.92,6.799,6.439,6.799c2.839,0,4.759-1.319,5.358-4.04H1211.835z
		 M1208.556,878.068c-0.2-3.24-2.56-5.84-5.959-5.84c-3.52,0-5.719,2.64-5.919,5.84H1208.556z"/>
	<path d="M1217.758,883.867c0.119,3.039,2.799,3.999,5.559,3.999c2.12,0,4.999-0.479,4.999-3.079c0-5.319-13.518-1.721-13.518-9.679
		c0-4.159,4.079-5.879,7.719-5.879c4.64,0,8.158,1.439,8.479,6.479h-3.399c-0.2-2.64-2.6-3.479-4.799-3.479
		c-2.04,0-4.399,0.561-4.399,2.64c0,2.399,3.6,2.88,6.759,3.6c3.399,0.76,6.759,1.919,6.759,5.879c0,4.96-4.6,6.519-8.799,6.519
		c-4.639,0-8.559-1.879-8.758-6.998H1217.758z"/>
	<path d="M1240.396,869.709h4.12v3h-4.12v12.838c0,1.6,0.44,1.84,2.56,1.84h1.561v2.999h-2.6c-3.52,0-4.92-0.72-4.92-4.519v-13.158
		h-3.519v-3h3.519v-6.199h3.399V869.709z"/>
</g>
<rect x="303.445" y="522.988" fill="none" width="159.121" height="26.622"/>
<g enable-background="new    ">
	<path d="M393.563,515.852h6.439l10.678,28.557h-6.519l-2.16-6.359h-10.678l-2.239,6.359h-6.359L393.563,515.852z M392.964,533.369
		h7.398l-3.599-10.479h-0.08L392.964,533.369z"/>
	<path d="M412.565,523.73h5.399v2.641h0.08c1.4-2.24,3.6-3.199,6.159-3.199c6.479,0,9.398,5.238,9.398,11.117
		c0,5.52-3,10.678-9.079,10.678c-2.52,0-4.799-1.078-6.199-3.119h-0.08v9.838h-5.679V523.73z M427.922,534.129
		c0-3.318-1.32-6.678-4.959-6.678c-3.72,0-4.919,3.318-4.919,6.678s1.28,6.559,4.959,6.559
		C426.723,540.688,427.922,537.488,427.922,534.129z"/>
	<path d="M437.005,523.73h5.399v2.641h0.08c1.4-2.24,3.6-3.199,6.159-3.199c6.479,0,9.398,5.238,9.398,11.117
		c0,5.52-3,10.678-9.079,10.678c-2.52,0-4.799-1.078-6.199-3.119h-0.08v9.838h-5.679V523.73z M452.362,534.129
		c0-3.318-1.32-6.678-4.959-6.678c-3.72,0-4.919,3.318-4.919,6.678s1.28,6.559,4.959,6.559
		C451.163,540.688,452.362,537.488,452.362,534.129z"/>
	<path d="M461.444,523.73h5.399v3.84h0.08c1.08-2.6,3.759-4.398,6.599-4.398c0.44,0,0.84,0.08,1.24,0.199v5.279
		c-0.52-0.119-1.36-0.199-2.04-0.199c-4.199,0-5.599,2.959-5.599,6.639v9.318h-5.679V523.73z"/>
	<path d="M487.042,523.172c6.519,0,10.718,4.318,10.718,10.918c0,6.559-4.199,10.877-10.718,10.877
		c-6.479,0-10.678-4.318-10.678-10.877C476.364,527.49,480.563,523.172,487.042,523.172z M487.042,540.688
		c3.879,0,5.04-3.279,5.04-6.598c0-3.32-1.16-6.639-5.04-6.639c-3.839,0-4.999,3.318-4.999,6.639
		C482.043,537.408,483.203,540.688,487.042,540.688z"/>
	<path d="M512.882,544.408h-6.319l-7.079-20.678h5.959l4.359,14.119h0.08l4.359-14.119h5.639L512.882,544.408z"/>
	<path d="M522.003,530.09c0.32-5.279,5.079-6.918,9.718-6.918c4.119,0,9.078,0.92,9.078,5.879v10.758c0,1.879,0.2,3.76,0.72,4.6
		h-5.759c-0.2-0.641-0.36-1.32-0.4-2c-1.8,1.879-4.399,2.559-6.959,2.559c-3.959,0-7.039-1.959-7.039-6.197
		c0.08-9.398,13.998-4.359,13.758-9c0-2.398-1.68-2.799-3.68-2.799c-2.199,0-3.559,0.879-3.759,3.119H522.003z M535.121,534.289
		c-0.96,0.84-2.959,0.881-4.719,1.199c-1.76,0.32-3.359,0.961-3.359,3.041c0,2.078,1.64,2.639,3.479,2.639
		c4.439,0,4.599-3.479,4.599-4.76V534.289z"/>
	<path d="M545.363,515.852h5.679v28.557h-5.679V515.852z"/>
</g>
<g>
	<polygon fill="#89C240" points="474.015,598.712 448.691,618.815 423.367,598.712 413.361,606.673 448.691,634.79 484.021,606.673 
			"/>
	<polygon fill="#89C240" points="413.361,580.524 448.691,608.64 484.021,580.524 474.015,572.562 448.691,592.714 423.367,572.562 
			"/>
</g>
<g>
	<path fill="#1365A8" d="M318.334,493.714c20.471,0,37.066,16.594,37.066,37.066s-16.596,37.068-37.066,37.068
		c-20.473,0-37.068-16.596-37.068-37.068S297.861,493.714,318.334,493.714"/>
	<g>
		<path fill="#FFFFFF" d="M315.44,526.158c0.337,0.048,0.626,0.048,0.916,0.048h0.868c3.472,0,6.509-1.929,6.509-5.593
			c0-3.616-2.604-5.497-6.075-5.497c-4.436,0-6.461,3.424-6.461,7.426h-4.099c0.241-6.51,3.713-11.042,10.56-11.042
			c5.931,0,10.415,2.845,10.415,9.161c0,3.038-2.073,5.594-4.726,6.799v0.097c4.195,0.916,6.172,4.194,6.172,8.293
			c0,6.799-5.352,10.415-11.765,10.415c-6.943,0-11.524-4.05-11.38-11.138h4.099c0.145,4.436,2.604,7.521,7.281,7.521
			c4.002,0,7.425-2.507,7.425-6.605c0-4.292-3.23-6.558-7.281-6.558c-0.868,0-1.688,0.048-2.459,0.145V526.158z"/>
	</g>
</g>
<g>
	<path d="M754.724,689.482h13.438c5.399,0,8.679,2.88,8.679,7.479c0,3.48-1.48,6.279-4.959,7.239v0.08
		c3.32,0.64,3.959,3.12,4.279,5.879c0.2,2.76,0.08,5.96,1.68,7.879h-4.24c-1.08-1.159-0.479-4.239-1.04-7.038
		c-0.44-2.76-1.08-5.16-4.759-5.16h-9.278v12.198h-3.799V689.482z M766.441,702.641c3.52,0,6.599-0.92,6.599-5.079
		c0-2.839-1.52-4.88-5.079-4.88h-9.438v9.959H766.441z"/>
	<path d="M799.201,711.479c-0.92,4.6-4.16,7.039-8.839,7.039c-6.599,0-9.718-4.599-9.918-10.878c0-6.239,4.079-10.758,9.718-10.758
		c7.319,0,9.558,6.839,9.358,11.838h-15.478c-0.12,3.599,1.92,6.799,6.439,6.799c2.839,0,4.759-1.319,5.359-4.04H799.201z
		 M795.921,705.721c-0.2-3.24-2.56-5.84-5.959-5.84c-3.519,0-5.719,2.64-5.919,5.84H795.921z"/>
	<path d="M812.361,718.038h-3.639l-7.679-20.677h3.799l5.799,17.237h0.08l5.639-17.237h3.559L812.361,718.038z"/>
	<path d="M826.643,693.643h-3.399v-4.16h3.399V693.643z M823.243,697.361h3.399v20.677h-3.399V697.361z"/>
	<path d="M849.56,711.479c-0.92,4.6-4.16,7.039-8.839,7.039c-6.599,0-9.718-4.599-9.918-10.878c0-6.239,4.079-10.758,9.718-10.758
		c7.319,0,9.558,6.839,9.358,11.838h-15.478c-0.12,3.599,1.92,6.799,6.439,6.799c2.839,0,4.759-1.319,5.359-4.04H849.56z
		 M846.28,705.721c-0.2-3.24-2.56-5.84-5.959-5.84c-3.519,0-5.719,2.64-5.919,5.84H846.28z"/>
	<path d="M873.878,718.038h-3.6l-4.199-16.437H866l-4.159,16.437h-3.679l-6.639-20.677h3.76l4.679,16.918h0.08l4.16-16.918h3.719
		l4.319,16.918h0.08l4.639-16.918h3.52L873.878,718.038z"/>
	<path d="M913.159,717.958c-0.6,0.36-1.44,0.56-2.439,0.56c-1.76,0-2.879-0.959-2.879-3.199c-1.88,2.24-4.399,3.199-7.279,3.199
		c-3.76,0-6.839-1.639-6.839-5.799c0-4.68,3.479-5.719,6.999-6.359c3.72-0.76,6.959-0.439,6.959-3.039
		c0-2.999-2.479-3.439-4.599-3.439c-2.88,0-5,0.881-5.159,3.92h-3.399c0.2-5.119,4.119-6.919,8.758-6.919
		c3.72,0,7.759,0.84,7.759,5.679v10.639c0,1.6,0,2.319,1.08,2.319c0.32,0,0.68-0.08,1.04-0.2V717.958z M907.64,707.359
		c-2.64,1.96-10.318,0.041-10.318,5.119c0,2.24,1.92,3.04,4,3.04c4.479,0,6.319-2.76,6.319-4.679V707.359z"/>
	<path d="M916.321,697.361h3.199v3.279h0.08c1.44-2.559,3.72-3.759,6.719-3.759c5.439,0,7.119,3.119,7.119,7.559v13.598h-3.399
		v-13.997c0-2.561-1.6-4.16-4.199-4.16c-4.12,0-6.119,2.76-6.119,6.479v11.679h-3.399V697.361z"/>
	<path d="M957.039,718.038h-3.399v-2.8h-0.08c-1.12,2.279-3.719,3.279-6.599,3.279c-6.359,0-9.518-5.039-9.518-10.878
		s3.119-10.758,9.438-10.758c2.08,0,5.199,0.8,6.679,3.239h0.08v-10.639h3.399V718.038z M947.44,715.519
		c4.599,0,6.319-3.96,6.319-7.799c0-4.039-1.839-7.839-6.519-7.839c-4.639,0-6.199,3.959-6.199,7.999
		C941.041,711.76,943.041,715.519,947.44,715.519z"/>
	<path d="M987.439,704c-0.52-2.6-2.28-4.119-5.119-4.119c-4.919,0-6.439,3.92-6.439,8.079c0,3.839,1.72,7.559,6.039,7.559
		c3.319,0,5.239-1.88,5.679-5.039h3.479c-0.76,5.079-3.879,8.038-9.119,8.038c-6.319,0-9.678-4.359-9.678-10.558
		c0-6.199,3.199-11.078,9.758-11.078c4.719,0,8.398,2.199,8.918,7.118H987.439z"/>
	<path d="M1003.799,696.882c6.559,0,10.039,4.759,10.039,10.838c0,6.039-3.479,10.798-10.039,10.798s-10.038-4.759-10.038-10.798
		C993.761,701.641,997.24,696.882,1003.799,696.882z M1003.799,715.519c3.56,0,6.439-2.8,6.439-7.799s-2.879-7.839-6.439-7.839
		s-6.439,2.84-6.439,7.839S1000.24,715.519,1003.799,715.519z"/>
	<path d="M1017.84,697.361h3.2v3.279h0.08c1.44-2.559,3.719-3.759,6.719-3.759c5.438,0,7.118,3.119,7.118,7.559v13.598h-3.399
		v-13.997c0-2.561-1.6-4.16-4.199-4.16c-4.119,0-6.119,2.76-6.119,6.479v11.679h-3.399V697.361z"/>
	<path d="M1041.479,700.361H1038v-3h3.479v-3.079c0-3.359,2-5.119,5.72-5.119c0.64,0,1.56,0.12,2.199,0.319v2.96
		c-0.6-0.2-1.319-0.28-1.92-0.28c-1.64,0-2.6,0.52-2.6,2.32v2.879h4v3h-4v17.677h-3.399V700.361z M1052.118,693.643v-4.16h3.399
		v4.16H1052.118z M1052.118,718.038v-20.677h3.399v20.677H1052.118z"/>
	<path d="M1060.68,697.361h3.199v4.359h0.08c1.64-3.359,3.92-4.959,7.599-4.839v3.599c-5.479,0-7.479,3.08-7.479,8.359v9.198h-3.399
		V697.361z"/>
	<path d="M1074.119,697.361h3.199v3.039h0.08c1.56-2.359,3.76-3.519,6.679-3.519c2.56,0,4.84,0.96,5.68,3.519
		c1.399-2.238,3.799-3.519,6.479-3.519c4.119,0,6.879,1.72,6.879,5.999v15.157h-3.399V704.48c0-2.56-0.68-4.6-3.999-4.6
		s-5.399,2.08-5.399,5.279v12.878h-3.399V704.48c0-2.68-0.84-4.6-3.879-4.6c-4,0-5.52,3.68-5.52,5.279v12.878h-3.399V697.361z"/>
	<path d="M1126.557,717.958c-0.601,0.36-1.44,0.56-2.44,0.56c-1.76,0-2.879-0.959-2.879-3.199c-1.88,2.24-4.399,3.199-7.279,3.199
		c-3.759,0-6.839-1.639-6.839-5.799c0-4.68,3.479-5.719,6.999-6.359c3.72-0.76,6.959-0.439,6.959-3.039
		c0-2.999-2.479-3.439-4.6-3.439c-2.879,0-4.999,0.881-5.159,3.92h-3.399c0.2-5.119,4.12-6.919,8.759-6.919
		c3.72,0,7.759,0.84,7.759,5.679v10.639c0,1.6,0,2.319,1.08,2.319c0.319,0,0.68-0.08,1.04-0.2V717.958z M1121.037,707.359
		c-2.64,1.96-10.318,0.041-10.318,5.119c0,2.24,1.92,3.04,3.999,3.04c4.479,0,6.319-2.76,6.319-4.679V707.359z"/>
	<path d="M1134.438,697.361h4.12v3h-4.12v12.838c0,1.6,0.44,1.84,2.56,1.84h1.561v2.999h-2.6c-3.52,0-4.92-0.72-4.92-4.519v-13.158
		h-3.519v-3h3.519v-6.199h3.399V697.361z"/>
	<path d="M1145.918,693.643h-3.399v-4.16h3.399V693.643z M1142.519,697.361h3.399v20.677h-3.399V697.361z"/>
	<path d="M1160.117,696.882c6.559,0,10.038,4.759,10.038,10.838c0,6.039-3.479,10.798-10.038,10.798
		c-6.56,0-10.039-4.759-10.039-10.798C1150.078,701.641,1153.558,696.882,1160.117,696.882z M1160.117,715.519
		c3.559,0,6.438-2.8,6.438-7.799s-2.88-7.839-6.438-7.839c-3.56,0-6.439,2.84-6.439,7.839S1156.558,715.519,1160.117,715.519z"/>
	<path d="M1174.158,697.361h3.199v3.279h0.08c1.439-2.559,3.72-3.759,6.719-3.759c5.439,0,7.119,3.119,7.119,7.559v13.598h-3.399
		v-13.997c0-2.561-1.6-4.16-4.199-4.16c-4.119,0-6.119,2.76-6.119,6.479v11.679h-3.399V697.361z"/>
	<path d="M1212.237,697.361h4.12v3h-4.12v12.838c0,1.6,0.44,1.84,2.56,1.84h1.561v2.999h-2.6c-3.52,0-4.92-0.72-4.92-4.519v-13.158
		h-3.519v-3h3.519v-6.199h3.399V697.361z"/>
	<path d="M1220.118,689.482h3.399V700.4h0.08c1.08-2.52,4.079-3.519,6.519-3.519c5.439,0,7.119,3.119,7.119,7.559v13.598h-3.399
		v-13.997c0-2.561-1.6-4.16-4.199-4.16c-4.119,0-6.119,2.76-6.119,6.479v11.679h-3.399V689.482z"/>
	<path d="M1260.676,717.958c-0.601,0.36-1.44,0.56-2.44,0.56c-1.76,0-2.879-0.959-2.879-3.199c-1.88,2.24-4.399,3.199-7.279,3.199
		c-3.759,0-6.839-1.639-6.839-5.799c0-4.68,3.479-5.719,6.999-6.359c3.72-0.76,6.959-0.439,6.959-3.039
		c0-2.999-2.479-3.439-4.6-3.439c-2.879,0-4.999,0.881-5.159,3.92h-3.399c0.2-5.119,4.12-6.919,8.759-6.919
		c3.72,0,7.759,0.84,7.759,5.679v10.639c0,1.6,0,2.319,1.08,2.319c0.319,0,0.68-0.08,1.04-0.2V717.958z M1255.156,707.359
		c-2.64,1.96-10.318,0.041-10.318,5.119c0,2.24,1.92,3.04,3.999,3.04c4.479,0,6.319-2.76,6.319-4.679V707.359z"/>
	<path d="M1268.557,697.361h4.12v3h-4.12v12.838c0,1.6,0.44,1.84,2.56,1.84h1.561v2.999h-2.6c-3.52,0-4.92-0.72-4.92-4.519v-13.158
		h-3.519v-3h3.519v-6.199h3.399V697.361z"/>
	<path d="M1292.276,697.361h4.12v3h-4.12v12.838c0,1.6,0.44,1.84,2.56,1.84h1.561v2.999h-2.6c-3.52,0-4.92-0.72-4.92-4.519v-13.158
		h-3.519v-3h3.519v-6.199h3.399V697.361z"/>
	<path d="M1300.157,689.482h3.399V700.4h0.08c1.08-2.52,4.079-3.519,6.519-3.519c5.439,0,7.119,3.119,7.119,7.559v13.598h-3.399
		v-13.997c0-2.561-1.6-4.16-4.199-4.16c-4.119,0-6.119,2.76-6.119,6.479v11.679h-3.399V689.482z"/>
	<path d="M1340.034,711.479c-0.92,4.6-4.159,7.039-8.838,7.039c-6.6,0-9.719-4.599-9.919-10.878c0-6.239,4.08-10.758,9.719-10.758
		c7.318,0,9.559,6.839,9.358,11.838h-15.478c-0.12,3.599,1.92,6.799,6.439,6.799c2.839,0,4.759-1.319,5.358-4.04H1340.034z
		 M1336.755,705.721c-0.2-3.24-2.56-5.84-5.959-5.84c-3.52,0-5.719,2.64-5.919,5.84H1336.755z"/>
	<path d="M1373.314,717.958c-0.601,0.36-1.44,0.56-2.44,0.56c-1.76,0-2.879-0.959-2.879-3.199c-1.88,2.24-4.399,3.199-7.279,3.199
		c-3.759,0-6.839-1.639-6.839-5.799c0-4.68,3.479-5.719,6.999-6.359c3.72-0.76,6.959-0.439,6.959-3.039
		c0-2.999-2.479-3.439-4.6-3.439c-2.879,0-4.999,0.881-5.159,3.92h-3.399c0.2-5.119,4.12-6.919,8.759-6.919
		c3.72,0,7.759,0.84,7.759,5.679v10.639c0,1.6,0,2.319,1.08,2.319c0.319,0,0.68-0.08,1.04-0.2V717.958z M1367.795,707.359
		c-2.64,1.96-10.318,0.041-10.318,5.119c0,2.24,1.92,3.04,3.999,3.04c4.479,0,6.319-2.76,6.319-4.679V707.359z"/>
	<path d="M1376.597,697.361h3.399v2.8h0.08c1.119-2.28,3.719-3.279,6.599-3.279c6.359,0,9.519,5.039,9.519,10.878
		c0,5.879-3.119,10.758-9.438,10.758c-2.08,0-5.199-0.799-6.679-3.239h-0.08v10.679h-3.399V697.361z M1386.195,699.881
		c-4.6,0-6.319,3.959-6.319,7.799c0,4.039,1.84,7.839,6.519,7.839c4.64,0,6.199-3.96,6.199-7.999
		C1392.594,703.641,1390.594,699.881,1386.195,699.881z"/>
	<path d="M1400.316,697.361h3.399v2.8h0.08c1.119-2.28,3.719-3.279,6.599-3.279c6.359,0,9.519,5.039,9.519,10.878
		c0,5.879-3.119,10.758-9.438,10.758c-2.08,0-5.199-0.799-6.679-3.239h-0.08v10.679h-3.399V697.361z M1409.915,699.881
		c-4.6,0-6.319,3.959-6.319,7.799c0,4.039,1.84,7.839,6.519,7.839c4.64,0,6.199-3.96,6.199-7.999
		C1416.313,703.641,1414.313,699.881,1409.915,699.881z"/>
	<path d="M1423.796,697.361h3.199v4.359h0.08c1.64-3.359,3.92-4.959,7.599-4.839v3.599c-5.479,0-7.479,3.08-7.479,8.359v9.198
		h-3.399V697.361z"/>
	<path d="M1446.154,696.882c6.559,0,10.038,4.759,10.038,10.838c0,6.039-3.479,10.798-10.038,10.798
		c-6.56,0-10.039-4.759-10.039-10.798C1436.115,701.641,1439.595,696.882,1446.154,696.882z M1446.154,715.519
		c3.559,0,6.438-2.8,6.438-7.799s-2.88-7.839-6.438-7.839c-3.56,0-6.439,2.84-6.439,7.839S1442.595,715.519,1446.154,715.519z"/>
	<path d="M1469.514,718.038h-3.64l-7.679-20.677h3.8l5.799,17.237h0.08l5.639-17.237h3.56L1469.514,718.038z"/>
	<path d="M1497.832,711.479c-0.92,4.6-4.159,7.039-8.838,7.039c-6.6,0-9.719-4.599-9.919-10.878c0-6.239,4.08-10.758,9.719-10.758
		c7.318,0,9.559,6.839,9.358,11.838h-15.478c-0.12,3.599,1.92,6.799,6.439,6.799c2.839,0,4.759-1.319,5.358-4.04H1497.832z
		 M1494.553,705.721c-0.2-3.24-2.56-5.84-5.959-5.84c-3.52,0-5.719,2.64-5.919,5.84H1494.553z"/>
	<path d="M1520.151,718.038h-3.399v-2.8h-0.08c-1.119,2.279-3.719,3.279-6.599,3.279c-6.358,0-9.519-5.039-9.519-10.878
		s3.12-10.758,9.438-10.758c2.08,0,5.199,0.8,6.679,3.239h0.08v-10.639h3.399V718.038z M1510.554,715.519
		c4.599,0,6.318-3.96,6.318-7.799c0-4.039-1.84-7.839-6.519-7.839c-4.64,0-6.199,3.959-6.199,7.999
		C1504.154,711.76,1506.154,715.519,1510.554,715.519z"/>
	<path d="M1550.553,704c-0.521-2.6-2.28-4.119-5.119-4.119c-4.92,0-6.439,3.92-6.439,8.079c0,3.839,1.72,7.559,6.039,7.559
		c3.319,0,5.239-1.88,5.679-5.039h3.479c-0.76,5.079-3.879,8.038-9.118,8.038c-6.319,0-9.679-4.359-9.679-10.558
		c0-6.199,3.2-11.078,9.759-11.078c4.719,0,8.398,2.199,8.918,7.118H1550.553z"/>
	<path d="M1557.994,689.482h3.399V700.4h0.08c1.08-2.52,4.079-3.519,6.519-3.519c5.439,0,7.119,3.119,7.119,7.559v13.598h-3.399
		v-13.997c0-2.561-1.6-4.16-4.199-4.16c-4.119,0-6.119,2.76-6.119,6.479v11.679h-3.399V689.482z"/>
	<path d="M1598.552,717.958c-0.601,0.36-1.44,0.56-2.44,0.56c-1.76,0-2.879-0.959-2.879-3.199c-1.88,2.24-4.399,3.199-7.279,3.199
		c-3.759,0-6.839-1.639-6.839-5.799c0-4.68,3.479-5.719,6.999-6.359c3.72-0.76,6.959-0.439,6.959-3.039
		c0-2.999-2.479-3.439-4.6-3.439c-2.879,0-4.999,0.881-5.159,3.92h-3.399c0.2-5.119,4.12-6.919,8.759-6.919
		c3.72,0,7.759,0.84,7.759,5.679v10.639c0,1.6,0,2.319,1.08,2.319c0.319,0,0.68-0.08,1.04-0.2V717.958z M1593.032,707.359
		c-2.64,1.96-10.318,0.041-10.318,5.119c0,2.24,1.92,3.04,3.999,3.04c4.479,0,6.319-2.76,6.319-4.679V707.359z"/>
	<path d="M1601.714,697.361h3.199v3.279h0.08c1.439-2.559,3.72-3.759,6.719-3.759c5.439,0,7.119,3.119,7.119,7.559v13.598h-3.399
		v-13.997c0-2.561-1.6-4.16-4.199-4.16c-4.119,0-6.119,2.76-6.119,6.479v11.679h-3.399V697.361z"/>
	<path d="M1641.791,716.278c0,6.759-3.039,10.158-9.599,10.158c-3.879,0-8.358-1.6-8.559-6.079h3.399
		c0.12,2.439,3.16,3.359,5.359,3.359c4.439,0,6.199-3.199,6.199-7.838v-1.36h-0.08c-1.16,2.52-3.8,3.759-6.439,3.759
		c-6.158,0-9.238-4.838-9.238-10.478c0-4.88,2.36-10.918,9.559-10.918c2.6,0,4.919,1.159,6.159,3.439h0.04v-2.96h3.199V716.278z
		 M1638.432,707.279c0-3.639-1.6-7.398-5.879-7.398c-4.359,0-6.119,3.56-6.119,7.52c0,3.719,1.359,7.878,5.839,7.878
		S1638.432,711.159,1638.432,707.279z"/>
	<path d="M1664.551,711.479c-0.92,4.6-4.159,7.039-8.838,7.039c-6.6,0-9.719-4.599-9.919-10.878c0-6.239,4.08-10.758,9.719-10.758
		c7.318,0,9.559,6.839,9.358,11.838h-15.478c-0.12,3.599,1.92,6.799,6.439,6.799c2.839,0,4.759-1.319,5.358-4.04H1664.551z
		 M1661.271,705.721c-0.2-3.24-2.56-5.84-5.959-5.84c-3.52,0-5.719,2.64-5.919,5.84H1661.271z"/>
	<path d="M1679.514,689.482h3.399V700.4h0.08c1.08-2.52,4.079-3.519,6.519-3.519c5.439,0,7.119,3.119,7.119,7.559v13.598h-3.399
		v-13.997c0-2.561-1.6-4.16-4.199-4.16c-4.119,0-6.119,2.76-6.119,6.479v11.679h-3.399V689.482z"/>
	<path d="M1720.071,717.958c-0.601,0.36-1.44,0.56-2.44,0.56c-1.76,0-2.879-0.959-2.879-3.199c-1.88,2.24-4.399,3.199-7.279,3.199
		c-3.759,0-6.839-1.639-6.839-5.799c0-4.68,3.479-5.719,6.999-6.359c3.72-0.76,6.959-0.439,6.959-3.039
		c0-2.999-2.479-3.439-4.6-3.439c-2.879,0-4.999,0.881-5.159,3.92h-3.399c0.2-5.119,4.12-6.919,8.759-6.919
		c3.72,0,7.759,0.84,7.759,5.679v10.639c0,1.6,0,2.319,1.08,2.319c0.319,0,0.68-0.08,1.04-0.2V717.958z M1714.552,707.359
		c-2.64,1.96-10.318,0.041-10.318,5.119c0,2.24,1.92,3.04,3.999,3.04c4.479,0,6.319-2.76,6.319-4.679V707.359z"/>
	<path d="M1725.313,711.52c0.119,3.039,2.799,3.999,5.559,3.999c2.12,0,4.999-0.479,4.999-3.079c0-5.319-13.518-1.721-13.518-9.679
		c0-4.159,4.079-5.879,7.719-5.879c4.64,0,8.158,1.439,8.479,6.479h-3.399c-0.2-2.64-2.6-3.479-4.799-3.479
		c-2.04,0-4.399,0.561-4.399,2.64c0,2.399,3.6,2.88,6.759,3.6c3.399,0.76,6.759,1.919,6.759,5.879c0,4.96-4.6,6.519-8.799,6.519
		c-4.639,0-8.559-1.879-8.758-6.998H1725.313z"/>
	<path d="M1754.474,689.482h3.399v10.679h0.08c1.119-2.28,3.719-3.279,6.599-3.279c6.359,0,9.519,5.039,9.519,10.878
		c0,5.879-3.119,10.758-9.438,10.758c-2.08,0-5.199-0.799-6.679-3.239h-0.08v2.76h-3.399V689.482z M1764.072,699.881
		c-4.6,0-6.319,3.959-6.319,7.799c0,4.039,1.84,7.839,6.519,7.839c4.64,0,6.199-3.96,6.199-7.999
		C1770.471,703.641,1768.471,699.881,1764.072,699.881z"/>
	<path d="M1795.71,711.479c-0.92,4.6-4.159,7.039-8.838,7.039c-6.6,0-9.719-4.599-9.919-10.878c0-6.239,4.08-10.758,9.719-10.758
		c7.318,0,9.559,6.839,9.358,11.838h-15.478c-0.12,3.599,1.92,6.799,6.439,6.799c2.839,0,4.759-1.319,5.358-4.04H1795.71z
		 M1792.431,705.721c-0.2-3.24-2.56-5.84-5.959-5.84c-3.52,0-5.719,2.64-5.919,5.84H1792.431z"/>
	<path d="M1817.189,711.479c-0.92,4.6-4.159,7.039-8.838,7.039c-6.6,0-9.719-4.599-9.919-10.878c0-6.239,4.08-10.758,9.719-10.758
		c7.318,0,9.559,6.839,9.358,11.838h-15.478c-0.12,3.599,1.92,6.799,6.439,6.799c2.839,0,4.759-1.319,5.358-4.04H1817.189z
		 M1813.91,705.721c-0.2-3.24-2.56-5.84-5.959-5.84c-3.52,0-5.719,2.64-5.919,5.84H1813.91z"/>
	<path d="M1821.032,697.361h3.199v3.279h0.08c1.439-2.559,3.72-3.759,6.719-3.759c5.439,0,7.119,3.119,7.119,7.559v13.598h-3.399
		v-13.997c0-2.561-1.6-4.16-4.199-4.16c-4.119,0-6.119,2.76-6.119,6.479v11.679h-3.399V697.361z"/>
	<path d="M756.243,759.52c0.12,3.039,2.8,3.999,5.559,3.999c2.12,0,4.999-0.479,4.999-3.079c0-5.319-13.518-1.721-13.518-9.679
		c0-4.159,4.08-5.879,7.719-5.879c4.639,0,8.159,1.439,8.479,6.479h-3.399c-0.2-2.64-2.6-3.479-4.799-3.479
		c-2.04,0-4.399,0.561-4.399,2.64c0,2.399,3.599,2.88,6.759,3.6c3.399,0.76,6.759,1.919,6.759,5.879c0,4.96-4.599,6.519-8.798,6.519
		c-4.64,0-8.559-1.879-8.759-6.998H756.243z"/>
	<path d="M791.281,766.038h-3.2v-3.279h-0.08c-1.44,2.56-3.72,3.759-6.719,3.759c-5.439,0-7.119-3.119-7.119-7.559v-13.598h3.399
		v13.998c0,2.56,1.6,4.159,4.199,4.159c4.12,0,6.119-2.76,6.119-6.479v-11.678h3.399V766.038z"/>
	<path d="M810.441,752c-0.52-2.6-2.28-4.119-5.119-4.119c-4.919,0-6.439,3.92-6.439,8.079c0,3.839,1.72,7.559,6.039,7.559
		c3.319,0,5.239-1.88,5.679-5.039h3.479c-0.76,5.079-3.879,8.038-9.119,8.038c-6.319,0-9.678-4.359-9.678-10.558
		c0-6.199,3.199-11.078,9.758-11.078c4.719,0,8.398,2.199,8.918,7.118H810.441z"/>
	<path d="M831.92,752c-0.52-2.6-2.28-4.119-5.119-4.119c-4.919,0-6.439,3.92-6.439,8.079c0,3.839,1.72,7.559,6.039,7.559
		c3.319,0,5.239-1.88,5.679-5.039h3.479c-0.76,5.079-3.879,8.038-9.119,8.038c-6.319,0-9.678-4.359-9.678-10.558
		c0-6.199,3.199-11.078,9.758-11.078c4.719,0,8.398,2.199,8.918,7.118H831.92z"/>
	<path d="M857,759.479c-0.92,4.6-4.16,7.039-8.839,7.039c-6.599,0-9.718-4.599-9.918-10.878c0-6.239,4.079-10.758,9.718-10.758
		c7.319,0,9.558,6.839,9.358,11.838h-15.478c-0.12,3.599,1.92,6.799,6.439,6.799c2.839,0,4.759-1.319,5.359-4.04H857z
		 M853.72,753.721c-0.2-3.24-2.56-5.84-5.959-5.84c-3.519,0-5.719,2.64-5.919,5.84H853.72z"/>
	<path d="M862.921,759.52c0.12,3.039,2.8,3.999,5.559,3.999c2.12,0,4.999-0.479,4.999-3.079c0-5.319-13.518-1.721-13.518-9.679
		c0-4.159,4.079-5.879,7.719-5.879c4.639,0,8.159,1.439,8.479,6.479h-3.399c-0.2-2.64-2.6-3.479-4.799-3.479
		c-2.04,0-4.399,0.561-4.399,2.64c0,2.399,3.599,2.88,6.759,3.6c3.399,0.76,6.759,1.919,6.759,5.879c0,4.96-4.599,6.519-8.798,6.519
		c-4.64,0-8.559-1.879-8.759-6.998H862.921z"/>
	<path d="M882.921,759.52c0.12,3.039,2.8,3.999,5.559,3.999c2.12,0,4.999-0.479,4.999-3.079c0-5.319-13.518-1.721-13.518-9.679
		c0-4.159,4.079-5.879,7.719-5.879c4.639,0,8.159,1.439,8.479,6.479h-3.399c-0.2-2.64-2.6-3.479-4.799-3.479
		c-2.04,0-4.399,0.561-4.399,2.64c0,2.399,3.599,2.88,6.759,3.6c3.399,0.76,6.759,1.919,6.759,5.879c0,4.96-4.599,6.519-8.798,6.519
		c-4.64,0-8.559-1.879-8.759-6.998H882.921z"/>
	<path d="M902.242,748.361h-3.479v-3h3.479v-3.079c0-3.359,2-5.119,5.719-5.119c0.64,0,1.56,0.12,2.2,0.319v2.96
		c-0.6-0.2-1.32-0.28-1.919-0.28c-1.64,0-2.6,0.52-2.6,2.32v2.879h3.999v3h-3.999v17.677h-3.399V748.361z"/>
	<path d="M929.799,766.038h-3.2v-3.279h-0.08c-1.44,2.56-3.72,3.759-6.719,3.759c-5.439,0-7.119-3.119-7.119-7.559v-13.598h3.399
		v13.998c0,2.56,1.6,4.159,4.199,4.159c4.12,0,6.119-2.76,6.119-6.479v-11.678h3.399V766.038z"/>
	<path d="M935.122,737.482h3.399v28.556h-3.399V737.482z"/>
	<path d="M944.001,737.482h3.399v28.556h-3.399V737.482z"/>
	<path d="M960.799,768.798c-1.6,3.999-2.959,5.519-5.999,5.519c-0.8,0-1.6-0.08-2.359-0.359v-3.119c0.64,0.199,1.319,0.479,2,0.479
		c1.4,0,2.16-0.64,2.799-1.88l1.4-3.52l-8.199-20.557h3.839l6.039,16.918h0.08l5.799-16.918h3.6L960.799,768.798z"/>
	<path d="M987.4,741.643h-3.399v-4.16h3.399V741.643z M984.001,745.361h3.399v20.677h-3.399V745.361z"/>
	<path d="M992.68,745.361h3.2v3.039h0.08c1.56-2.359,3.759-3.519,6.679-3.519c2.56,0,4.839,0.96,5.679,3.519
		c1.4-2.238,3.799-3.519,6.479-3.519c4.12,0,6.879,1.72,6.879,5.999v15.157h-3.399V752.48c0-2.56-0.68-4.6-4-4.6
		c-3.319,0-5.399,2.08-5.399,5.279v12.878h-3.399V752.48c0-2.68-0.84-4.6-3.879-4.6c-4,0-5.519,3.68-5.519,5.279v12.878h-3.399
		V745.361z"/>
	<path d="M1026.92,745.361h3.399v2.8h0.08c1.119-2.28,3.719-3.279,6.599-3.279c6.359,0,9.519,5.039,9.519,10.878
		c0,5.879-3.119,10.758-9.438,10.758c-2.08,0-5.199-0.799-6.679-3.239h-0.08v10.679h-3.399V745.361z M1036.519,747.881
		c-4.6,0-6.319,3.959-6.319,7.799c0,4.039,1.84,7.839,6.519,7.839c4.64,0,6.199-3.96,6.199-7.999
		C1042.917,751.641,1040.917,747.881,1036.519,747.881z"/>
	<path d="M1050.72,737.482h3.399v28.556h-3.399V737.482z"/>
	<path d="M1077.036,759.479c-0.92,4.6-4.159,7.039-8.838,7.039c-6.6,0-9.719-4.599-9.919-10.878c0-6.239,4.08-10.758,9.719-10.758
		c7.318,0,9.559,6.839,9.358,11.838h-15.478c-0.12,3.599,1.92,6.799,6.439,6.799c2.839,0,4.759-1.319,5.358-4.04H1077.036z
		 M1073.757,753.721c-0.2-3.24-2.56-5.84-5.959-5.84c-3.52,0-5.719,2.64-5.919,5.84H1073.757z"/>
	<path d="M1080.879,745.361h3.199v3.039h0.08c1.56-2.359,3.76-3.519,6.679-3.519c2.56,0,4.84,0.96,5.68,3.519
		c1.399-2.238,3.799-3.519,6.479-3.519c4.119,0,6.879,1.72,6.879,5.999v15.157h-3.399V752.48c0-2.56-0.68-4.6-3.999-4.6
		s-5.399,2.08-5.399,5.279v12.878h-3.399V752.48c0-2.68-0.84-4.6-3.879-4.6c-4,0-5.52,3.68-5.52,5.279v12.878h-3.399V745.361z"/>
	<path d="M1132.636,759.479c-0.92,4.6-4.159,7.039-8.838,7.039c-6.6,0-9.719-4.599-9.919-10.878c0-6.239,4.08-10.758,9.719-10.758
		c7.318,0,9.559,6.839,9.358,11.838h-15.478c-0.12,3.599,1.92,6.799,6.439,6.799c2.839,0,4.759-1.319,5.358-4.04H1132.636z
		 M1129.356,753.721c-0.2-3.24-2.56-5.84-5.959-5.84c-3.52,0-5.719,2.64-5.919,5.84H1129.356z"/>
	<path d="M1136.479,745.361h3.199v3.279h0.08c1.439-2.559,3.72-3.759,6.719-3.759c5.439,0,7.119,3.119,7.119,7.559v13.598h-3.399
		v-13.997c0-2.561-1.6-4.16-4.199-4.16c-4.119,0-6.119,2.76-6.119,6.479v11.679h-3.399V745.361z"/>
	<path d="M1163.438,745.361h4.12v3h-4.12v12.838c0,1.6,0.44,1.84,2.56,1.84h1.561v2.999h-2.6c-3.52,0-4.92-0.72-4.92-4.519v-13.158
		h-3.519v-3h3.519v-6.199h3.399V745.361z"/>
	<path d="M1188.955,759.479c-0.92,4.6-4.159,7.039-8.838,7.039c-6.6,0-9.719-4.599-9.919-10.878c0-6.239,4.08-10.758,9.719-10.758
		c7.318,0,9.559,6.839,9.358,11.838h-15.478c-0.12,3.599,1.92,6.799,6.439,6.799c2.839,0,4.759-1.319,5.358-4.04H1188.955z
		 M1185.676,753.721c-0.2-3.24-2.56-5.84-5.959-5.84c-3.52,0-5.719,2.64-5.919,5.84H1185.676z"/>
	<path d="M1211.274,766.038h-3.399v-2.8h-0.08c-1.119,2.279-3.719,3.279-6.599,3.279c-6.358,0-9.519-5.039-9.519-10.878
		s3.12-10.758,9.438-10.758c2.08,0,5.199,0.8,6.679,3.239h0.08v-10.639h3.399V766.038z M1201.677,763.519
		c4.599,0,6.318-3.96,6.318-7.799c0-4.039-1.84-7.839-6.519-7.839c-4.64,0-6.199,3.959-6.199,7.999
		C1195.277,759.76,1197.277,763.519,1201.677,763.519z"/>
	<path d="M1217.277,761.599h4.439v4.439h-4.439V761.599z"/>
</g>
<rect x="303.445" y="699.814" fill="none" width="159.121" height="26.621"/>
<g enable-background="new    ">
	<path d="M385.765,692.678h6.279v28.557h-6.279V692.678z"/>
	<path d="M397.125,700.557h5.359v2.801h0.08c1.479-2.121,3.599-3.359,6.319-3.359c2.6,0,4.919,0.92,6.039,3.439
		c1.24-1.801,3.359-3.439,6.239-3.439c4.399,0,7.559,2.039,7.559,7.398v13.838h-5.679v-11.719c0-2.76-0.24-5.039-3.479-5.039
		c-3.2,0-3.799,2.68-3.799,5.24v11.518h-5.679v-11.598c0-2.4,0.16-5.16-3.439-5.16c-1.12,0-3.839,0.721-3.839,4.76v11.998h-5.679
		V700.557z"/>
	<path d="M433.205,700.557h5.399v2.641h0.08c1.4-2.24,3.6-3.199,6.159-3.199c6.479,0,9.398,5.238,9.398,11.117
		c0,5.52-3,10.678-9.079,10.678c-2.52,0-4.799-1.078-6.199-3.119h-0.08v9.838h-5.679V700.557z M448.562,710.955
		c0-3.318-1.32-6.678-4.959-6.678c-3.72,0-4.919,3.318-4.919,6.678s1.28,6.559,4.959,6.559
		C447.362,717.514,448.562,714.314,448.562,710.955z"/>
	<path d="M457.805,692.678h5.679v28.557h-5.679V692.678z"/>
	<path d="M472.643,712.275c0.16,3.639,1.88,5.238,5.079,5.238c2.28,0,4.119-1.398,4.479-2.678h4.999
		c-1.6,4.918-4.999,6.957-9.678,6.957c-6.519,0-10.559-4.479-10.559-10.877c0-6.199,4.279-10.918,10.559-10.918
		c7.039,0,10.478,5.918,10.038,12.277H472.643z M481.881,708.676c-0.52-2.879-1.76-4.398-4.519-4.398
		c-3.679,0-4.599,2.799-4.719,4.398H481.881z"/>
	<path d="M491.084,700.557h5.359v2.801h0.08c1.479-2.121,3.599-3.359,6.319-3.359c2.6,0,4.919,0.92,6.039,3.439
		c1.24-1.801,3.359-3.439,6.239-3.439c4.399,0,7.559,2.039,7.559,7.398v13.838H517v-11.719c0-2.76-0.24-5.039-3.479-5.039
		c-3.2,0-3.799,2.68-3.799,5.24v11.518h-5.679v-11.598c0-2.4,0.16-5.16-3.439-5.16c-1.12,0-3.839,0.721-3.839,4.76v11.998h-5.679
		V700.557z"/>
	<path d="M531.842,712.275c0.16,3.639,1.88,5.238,5.079,5.238c2.28,0,4.119-1.398,4.479-2.678h4.999
		c-1.6,4.918-4.999,6.957-9.678,6.957c-6.519,0-10.559-4.479-10.559-10.877c0-6.199,4.279-10.918,10.559-10.918
		c7.039,0,10.478,5.918,10.038,12.277H531.842z M541.081,708.676c-0.52-2.879-1.76-4.398-4.519-4.398
		c-3.679,0-4.599,2.799-4.719,4.398H541.081z"/>
	<path d="M550.123,700.557h5.399v2.881h0.12c1.44-2.359,3.919-3.439,6.319-3.439c6.039,0,7.559,3.398,7.559,8.518v12.719h-5.679
		v-11.678c0-3.4-0.96-5.08-3.64-5.08c-3.079,0-4.399,1.721-4.399,5.92v10.838h-5.679V700.557z"/>
	<path d="M581.041,700.557h4.159v3.801h-4.159v10.238c0,1.92,0.48,2.398,2.399,2.398c0.64,0,1.24-0.039,1.76-0.16v4.439
		c-0.959,0.16-2.2,0.201-3.319,0.201c-3.52,0-6.519-0.76-6.519-4.92v-12.197h-3.439v-3.801h3.439v-6.197h5.679V700.557z"/>
	<path d="M587.682,706.916c0.32-5.279,5.079-6.918,9.718-6.918c4.119,0,9.078,0.92,9.078,5.879v10.758c0,1.879,0.2,3.76,0.72,4.6
		h-5.759c-0.2-0.641-0.36-1.32-0.4-2c-1.8,1.879-4.399,2.559-6.959,2.559c-3.959,0-7.039-1.959-7.039-6.197
		c0.08-9.398,13.998-4.359,13.758-9c0-2.398-1.68-2.799-3.68-2.799c-2.199,0-3.559,0.879-3.759,3.119H587.682z M600.8,711.115
		c-0.96,0.84-2.959,0.881-4.719,1.199c-1.76,0.32-3.359,0.961-3.359,3.041c0,2.078,1.64,2.639,3.479,2.639
		c4.439,0,4.599-3.479,4.599-4.76V711.115z"/>
	<path d="M618.081,700.557h4.159v3.801h-4.159v10.238c0,1.92,0.48,2.398,2.399,2.398c0.64,0,1.24-0.039,1.76-0.16v4.439
		c-0.959,0.16-2.2,0.201-3.319,0.201c-3.52,0-6.519-0.76-6.519-4.92v-12.197h-3.439v-3.801h3.439v-6.197h5.679V700.557z"/>
	<path d="M630.8,697.357h-5.679v-4.68h5.679V697.357z M625.121,700.557h5.679v20.678h-5.679V700.557z"/>
	<path d="M645.319,699.998c6.519,0,10.718,4.318,10.718,10.918c0,6.559-4.199,10.877-10.718,10.877
		c-6.479,0-10.678-4.318-10.678-10.877C634.641,704.316,638.841,699.998,645.319,699.998z M645.319,717.514
		c3.879,0,5.04-3.279,5.04-6.598c0-3.32-1.16-6.639-5.04-6.639c-3.839,0-4.999,3.318-4.999,6.639
		C640.32,714.234,641.48,717.514,645.319,717.514z"/>
	<path d="M659.721,700.557h5.399v2.881h0.12c1.44-2.359,3.919-3.439,6.319-3.439c6.039,0,7.559,3.398,7.559,8.518v12.719h-5.679
		v-11.678c0-3.4-0.96-5.08-3.64-5.08c-3.079,0-4.399,1.721-4.399,5.92v10.838h-5.679V700.557z"/>
</g>
<g>
	<polygon fill="#89C240" points="474.015,775.537 448.691,795.643 423.367,775.537 413.361,783.5 448.691,811.617 484.021,783.5 	
		"/>
	<polygon fill="#89C240" points="413.361,757.352 448.691,785.467 484.021,757.352 474.015,749.387 448.691,769.541 
		423.367,749.387 	"/>
</g>
<g>
	<path fill="#1365A8" d="M318.334,670.54c20.471,0,37.066,16.594,37.066,37.065c0,20.473-16.596,37.068-37.066,37.068
		c-20.473,0-37.068-16.596-37.068-37.068C281.266,687.134,297.861,670.54,318.334,670.54"/>
	<g>
		<path fill="#FFFFFF" d="M325.131,710.892h4.629v3.617h-4.629v8.004h-3.857v-8.004h-14.996v-3.954l15.574-22.229h3.279V710.892z
			 M321.274,710.892V694.16h-0.096l-11.379,16.731H321.274z"/>
	</g>
</g>
<rect x="303.445" y="864.054" fill="none" width="159.121" height="26.621"/>
<g enable-background="new    ">
	<path d="M404.802,866.516c-0.44-2.838-3.16-4.998-6.239-4.998c-5.639,0-7.759,4.799-7.759,9.799c0,4.758,2.12,9.557,7.759,9.557
		c3.839,0,5.999-2.6,6.479-6.398h6.079c-0.64,7.158-5.519,11.678-12.558,11.678c-8.799,0-14.038-6.598-14.038-14.836
		c0-8.479,5.239-15.078,14.038-15.078c6.239,0,11.558,3.68,12.318,10.277H404.802z"/>
	<path d="M414.965,856.918h5.679v28.555h-5.679V856.918z"/>
	<path d="M435.163,864.236c6.519,0,10.718,4.32,10.718,10.918c0,6.559-4.199,10.879-10.718,10.879
		c-6.479,0-10.678-4.32-10.678-10.879C424.485,868.557,428.685,864.236,435.163,864.236z M435.163,881.754
		c3.879,0,5.04-3.279,5.04-6.6c0-3.318-1.16-6.639-5.04-6.639c-3.839,0-4.999,3.32-4.999,6.639
		C430.164,878.475,431.324,881.754,435.163,881.754z"/>
	<path d="M453.964,878.754c0,2.439,2.16,3.48,4.359,3.48c1.6,0,3.72-0.641,3.72-2.641c0-1.719-2.4-2.359-6.439-3.199
		c-3.319-0.76-6.559-1.84-6.559-5.52c0-5.279,4.559-6.639,8.999-6.639c4.479,0,8.679,1.52,9.119,6.6h-5.399
		c-0.16-2.199-1.839-2.801-3.879-2.801c-1.28,0-3.159,0.201-3.159,1.92c0,2.041,3.239,2.32,6.439,3.08
		c3.319,0.76,6.559,1.959,6.559,5.799c0,5.439-4.759,7.199-9.438,7.199c-4.799,0-9.518-1.801-9.718-7.279H453.964z"/>
	<path d="M490.44,885.473h-5.399v-2.879h-0.12c-1.439,2.359-3.919,3.439-6.319,3.439c-6.039,0-7.559-3.4-7.559-8.52v-12.717h5.679
		v11.678c0,3.4,0.959,5.08,3.639,5.08c3.08,0,4.399-1.721,4.399-5.92v-10.838h5.679V885.473z"/>
	<path d="M494.764,864.797h5.399v3.84h0.08c1.08-2.6,3.759-4.4,6.599-4.4c0.44,0,0.84,0.08,1.24,0.201v5.277
		c-0.52-0.119-1.36-0.199-2.04-0.199c-4.199,0-5.599,2.959-5.599,6.639v9.318h-5.679V864.797z"/>
	<path d="M515.002,876.514c0.16,3.641,1.88,5.24,5.079,5.24c2.28,0,4.119-1.4,4.479-2.68h4.999c-1.6,4.92-4.999,6.959-9.678,6.959
		c-6.519,0-10.559-4.479-10.559-10.879c0-6.199,4.279-10.918,10.559-10.918c7.039,0,10.478,5.92,10.038,12.277H515.002z
		 M524.241,872.916c-0.52-2.881-1.76-4.4-4.519-4.4c-3.679,0-4.599,2.801-4.719,4.4H524.241z"/>
</g>
<g>
	<path fill="#1365A8" d="M318.334,834.779c20.471,0,37.066,16.594,37.066,37.065c0,20.473-16.596,37.068-37.066,37.068
		c-20.473,0-37.068-16.596-37.068-37.068C281.266,851.373,297.861,834.779,318.334,834.779"/>
	<g>
		<path fill="#FFFFFF" d="M325.131,875.131h4.629v3.617h-4.629v8.004h-3.857v-8.004h-14.996v-3.954l15.574-22.229h3.279V875.131z
			 M321.274,875.131v-16.731h-0.096l-11.379,16.731H321.274z"/>
	</g>
</g>
</svg>
