<?xml version="1.0" encoding="utf-8"?>
<!-- Generator: Adobe Illustrator 16.0.3, SVG Export Plug-In . SVG Version: 6.00 Build 0)  -->
<!DOCTYPE svg PUBLIC "-//W3C//DTD SVG 1.1//EN" "http://www.w3.org/Graphics/SVG/1.1/DTD/svg11.dtd">
<svg version="1.1" id="Layer_1" xmlns="http://www.w3.org/2000/svg" xmlns:xlink="http://www.w3.org/1999/xlink" x="0px" y="0px"
	 width="2048px" height="1000px" viewBox="0 0 2048 1000" enable-background="new 0 0 2048 1000" xml:space="preserve">
<rect fill="#B9E5FB" width="2048" height="1000"/>
<g>
	<g>
		<g>
			<polygon fill="#FFFFFF" points="1326.915,942.812 1326.915,496.546 1326.915,300.125 1171.919,159.363 683.871,159.363 
				683.871,942.812 			"/>
			<g>
				<polygon fill="#2C5871" points="1171.919,300.125 1326.915,300.125 1171.919,159.363 				"/>
				<polygon fill="#D1ECFB" points="1326.915,300.125 1171.919,300.125 1326.915,440.863 				"/>
			</g>
		</g>
	</g>
</g>
<line fill="none" stroke="#343636" stroke-width="3" stroke-miterlimit="10" x1="50" y1="53.718" x2="2010.762" y2="53.718"/>
<g>
	<g>
		<path fill="#333333" d="M783.25,364.503h4.199l11.158,28.555h-4.199l-3.119-8.599h-12.078l-3.199,8.599h-3.92L783.25,364.503z
			 M780.411,381.26h9.678l-4.759-13.318h-0.08L780.411,381.26z"/>
		<path fill="#333333" d="M811.852,372.381h3.199v4.359h0.08c1.64-3.359,3.92-4.959,7.599-4.839v3.599
			c-5.479,0-7.479,3.08-7.479,8.359v9.198h-3.399V372.381z"/>
		<path fill="#333333" d="M842.928,386.499c-0.92,4.6-4.159,7.039-8.838,7.039c-6.6,0-9.719-4.599-9.919-10.878
			c0-6.239,4.08-10.758,9.719-10.758c7.318,0,9.559,6.839,9.358,11.838h-15.478c-0.12,3.599,1.92,6.799,6.439,6.799
			c2.839,0,4.759-1.32,5.358-4.04H842.928z M839.648,380.74c-0.2-3.24-2.56-5.839-5.959-5.839c-3.52,0-5.719,2.639-5.919,5.839
			H839.648z"/>
		<path fill="#333333" d="M860.809,379.021c-0.521-2.6-2.28-4.119-5.119-4.119c-4.92,0-6.439,3.919-6.439,8.079
			c0,3.839,1.72,7.559,6.039,7.559c3.319,0,5.239-1.88,5.679-5.039h3.479c-0.76,5.079-3.879,8.039-9.118,8.039
			c-6.319,0-9.679-4.359-9.679-10.558c0-6.199,3.2-11.078,9.759-11.078c4.719,0,8.398,2.199,8.918,7.119H860.809z"/>
		<path fill="#333333" d="M877.169,371.902c6.559,0,10.038,4.759,10.038,10.838c0,6.039-3.479,10.798-10.038,10.798
			c-6.56,0-10.039-4.759-10.039-10.798C867.13,376.661,870.609,371.902,877.169,371.902z M877.169,390.539
			c3.559,0,6.438-2.8,6.438-7.799s-2.88-7.838-6.438-7.838c-3.56,0-6.439,2.839-6.439,7.838S873.609,390.539,877.169,390.539z"/>
		<path fill="#333333" d="M891.09,372.381h3.199v4.359h0.08c1.64-3.359,3.92-4.959,7.599-4.839v3.599
			c-5.479,0-7.479,3.08-7.479,8.359v9.198h-3.399V372.381z"/>
		<path fill="#333333" d="M923.006,393.058h-3.399v-2.799h-0.08c-1.119,2.279-3.719,3.279-6.599,3.279
			c-6.358,0-9.519-5.039-9.519-10.878c0-5.839,3.12-10.758,9.438-10.758c2.08,0,5.199,0.8,6.679,3.239h0.08v-10.638h3.399V393.058z
			 M913.408,390.539c4.599,0,6.318-3.959,6.318-7.799c0-4.039-1.84-7.838-6.519-7.838c-4.64,0-6.199,3.959-6.199,7.999
			C907.009,386.779,909.009,390.539,913.408,390.539z"/>
		<path fill="#333333" d="M959.846,393.058h-3.6l-4.199-16.437h-0.08l-4.159,16.437h-3.68l-6.639-20.677h3.76l4.679,16.917h0.08
			l4.159-16.917h3.72l4.319,16.917h0.08l4.639-16.917h3.52L959.846,393.058z"/>
		<path fill="#333333" d="M969.689,364.503h3.399v10.918h0.08c1.08-2.52,4.079-3.519,6.519-3.519c5.439,0,7.119,3.119,7.119,7.559
			v13.598h-3.399v-13.998c0-2.56-1.6-4.159-4.199-4.159c-4.119,0-6.119,2.759-6.119,6.479v11.678h-3.399V364.503z"/>
		<path fill="#333333" d="M995.529,368.662h-3.399v-4.159h3.399V368.662z M992.13,372.381h3.399v20.677h-3.399V372.381z"/>
		<path fill="#333333" d="M1014.847,379.021c-0.521-2.6-2.28-4.119-5.119-4.119c-4.92,0-6.439,3.919-6.439,8.079
			c0,3.839,1.72,7.559,6.039,7.559c3.319,0,5.239-1.88,5.679-5.039h3.479c-0.76,5.079-3.879,8.039-9.118,8.039
			c-6.319,0-9.679-4.359-9.679-10.558c0-6.199,3.2-11.078,9.759-11.078c4.719,0,8.398,2.199,8.918,7.119H1014.847z"/>
		<path fill="#333333" d="M1022.288,364.503h3.399v10.918h0.08c1.08-2.52,4.079-3.519,6.519-3.519c5.439,0,7.119,3.119,7.119,7.559
			v13.598h-3.399v-13.998c0-2.56-1.6-4.159-4.199-4.159c-4.119,0-6.119,2.759-6.119,6.479v11.678h-3.399V364.503z"/>
		<path fill="#333333" d="M1059.248,368.662h-3.399v-4.159h3.399V368.662z M1055.849,372.381h3.399v20.677h-3.399V372.381z"/>
		<path fill="#333333" d="M1064.527,372.381h3.199v3.28h0.08c1.439-2.56,3.72-3.759,6.719-3.759c5.439,0,7.119,3.119,7.119,7.559
			v13.598h-3.399v-13.998c0-2.56-1.6-4.159-4.199-4.159c-4.119,0-6.119,2.759-6.119,6.479v11.678h-3.399V372.381z"/>
		<path fill="#333333" d="M1100.806,379.021c-0.521-2.6-2.28-4.119-5.119-4.119c-4.92,0-6.439,3.919-6.439,8.079
			c0,3.839,1.72,7.559,6.039,7.559c3.319,0,5.239-1.88,5.679-5.039h3.479c-0.76,5.079-3.879,8.039-9.118,8.039
			c-6.319,0-9.679-4.359-9.679-10.558c0-6.199,3.2-11.078,9.759-11.078c4.719,0,8.398,2.199,8.918,7.119H1100.806z"/>
		<path fill="#333333" d="M1108.447,364.503h3.399v28.555h-3.399V364.503z"/>
		<path fill="#333333" d="M1134.244,393.058h-3.199v-3.279h-0.08c-1.44,2.56-3.72,3.759-6.719,3.759
			c-5.439,0-7.119-3.12-7.119-7.559v-13.598h3.399v13.998c0,2.56,1.6,4.159,4.199,4.159c4.119,0,6.119-2.76,6.119-6.479v-11.678
			h3.399V393.058z"/>
		<path fill="#333333" d="M1157.844,393.058h-3.399v-2.799h-0.08c-1.119,2.279-3.719,3.279-6.599,3.279
			c-6.358,0-9.519-5.039-9.519-10.878c0-5.839,3.12-10.758,9.438-10.758c2.08,0,5.199,0.8,6.679,3.239h0.08v-10.638h3.399V393.058z
			 M1148.246,390.539c4.599,0,6.318-3.959,6.318-7.799c0-4.039-1.84-7.838-6.519-7.838c-4.64,0-6.199,3.959-6.199,7.999
			C1141.847,386.779,1143.847,390.539,1148.246,390.539z"/>
		<path fill="#333333" d="M1180.724,386.499c-0.92,4.6-4.159,7.039-8.838,7.039c-6.6,0-9.719-4.599-9.919-10.878
			c0-6.239,4.08-10.758,9.719-10.758c7.318,0,9.559,6.839,9.358,11.838h-15.478c-0.12,3.599,1.92,6.799,6.439,6.799
			c2.839,0,4.759-1.32,5.358-4.04H1180.724z M1177.444,380.74c-0.2-3.24-2.56-5.839-5.959-5.839c-3.52,0-5.719,2.639-5.919,5.839
			H1177.444z"/>
		<path fill="#333333" d="M1186.646,386.539c0.119,3.04,2.799,4,5.559,4c2.12,0,4.999-0.48,4.999-3.08
			c0-5.319-13.518-1.72-13.518-9.678c0-4.159,4.079-5.879,7.719-5.879c4.64,0,8.158,1.439,8.479,6.479h-3.399
			c-0.2-2.639-2.6-3.479-4.799-3.479c-2.04,0-4.399,0.56-4.399,2.639c0,2.4,3.6,2.88,6.759,3.6c3.399,0.76,6.759,1.919,6.759,5.879
			c0,4.959-4.6,6.519-8.799,6.519c-4.639,0-8.559-1.88-8.758-6.999H1186.646z"/>
		<path fill="#333333" d="M793.249,442.978c-0.601,0.36-1.44,0.56-2.44,0.56c-1.76,0-2.879-0.96-2.879-3.2
			c-1.88,2.24-4.399,3.2-7.279,3.2c-3.759,0-6.839-1.64-6.839-5.799c0-4.679,3.479-5.719,6.999-6.359
			c3.72-0.76,6.959-0.44,6.959-3.039c0-3-2.479-3.439-4.6-3.439c-2.879,0-4.999,0.88-5.159,3.919h-3.399
			c0.2-5.119,4.12-6.918,8.759-6.918c3.72,0,7.759,0.84,7.759,5.679v10.638c0,1.6,0,2.32,1.08,2.32c0.319,0,0.68-0.08,1.04-0.2
			V442.978z M787.729,432.38c-2.64,1.959-10.318,0.04-10.318,5.119c0,2.24,1.92,3.04,3.999,3.04c4.479,0,6.319-2.76,6.319-4.679
			V432.38z"/>
		<path fill="#333333" d="M826.008,443.058h-3.399v-2.799h-0.08c-1.119,2.279-3.719,3.279-6.599,3.279
			c-6.358,0-9.519-5.039-9.519-10.878c0-5.839,3.12-10.758,9.438-10.758c2.08,0,5.199,0.8,6.679,3.239h0.08v-10.638h3.399V443.058z
			 M816.41,440.539c4.599,0,6.318-3.959,6.318-7.799c0-4.039-1.84-7.838-6.519-7.838c-4.64,0-6.199,3.959-6.199,7.999
			C810.011,436.779,812.011,440.539,816.41,440.539z"/>
		<path fill="#333333" d="M848.888,436.499c-0.92,4.6-4.159,7.039-8.838,7.039c-6.6,0-9.719-4.599-9.919-10.878
			c0-6.239,4.08-10.758,9.719-10.758c7.318,0,9.559,6.839,9.358,11.838H833.73c-0.12,3.599,1.92,6.799,6.439,6.799
			c2.839,0,4.759-1.32,5.358-4.04H848.888z M845.608,430.74c-0.2-3.24-2.56-5.839-5.959-5.839c-3.52,0-5.719,2.639-5.919,5.839
			H845.608z"/>
		<path fill="#333333" d="M854.811,436.539c0.119,3.04,2.799,4,5.559,4c2.12,0,4.999-0.48,4.999-3.08
			c0-5.319-13.518-1.72-13.518-9.678c0-4.159,4.079-5.879,7.719-5.879c4.64,0,8.158,1.439,8.479,6.479h-3.399
			c-0.2-2.639-2.6-3.479-4.799-3.479c-2.04,0-4.399,0.56-4.399,2.639c0,2.4,3.6,2.88,6.759,3.6c3.399,0.76,6.759,1.919,6.759,5.879
			c0,4.959-4.6,6.519-8.799,6.519c-4.639,0-8.559-1.88-8.758-6.999H854.811z"/>
		<path fill="#333333" d="M886.769,429.021c-0.521-2.6-2.28-4.119-5.119-4.119c-4.92,0-6.439,3.919-6.439,8.079
			c0,3.839,1.72,7.559,6.039,7.559c3.319,0,5.239-1.88,5.679-5.039h3.479c-0.76,5.079-3.879,8.039-9.118,8.039
			c-6.319,0-9.679-4.359-9.679-10.558c0-6.199,3.2-11.078,9.759-11.078c4.719,0,8.398,2.199,8.918,7.119H886.769z"/>
		<path fill="#333333" d="M894.09,422.381h3.199v4.359h0.08c1.64-3.359,3.92-4.959,7.599-4.839v3.599
			c-5.479,0-7.479,3.08-7.479,8.359v9.198h-3.399V422.381z"/>
		<path fill="#333333" d="M911.129,418.662h-3.399v-4.159h3.399V418.662z M907.729,422.381h3.399v20.677h-3.399V422.381z"/>
		<path fill="#333333" d="M916.528,422.381h3.399v2.8h0.08c1.119-2.28,3.719-3.279,6.599-3.279c6.359,0,9.519,5.039,9.519,10.878
			c0,5.879-3.119,10.758-9.438,10.758c-2.08,0-5.199-0.8-6.679-3.24h-0.08v10.678h-3.399V422.381z M926.127,424.901
			c-4.6,0-6.319,3.959-6.319,7.798c0,4.04,1.84,7.839,6.519,7.839c4.64,0,6.199-3.959,6.199-7.999
			C932.525,428.661,930.525,424.901,926.127,424.901z"/>
		<path fill="#333333" d="M944.847,422.381h4.12v3h-4.12v12.838c0,1.6,0.44,1.84,2.56,1.84h1.561v3h-2.6
			c-3.52,0-4.92-0.72-4.92-4.519v-13.158h-3.519v-3h3.519v-6.199h3.399V422.381z"/>
		<path fill="#333333" d="M956.327,418.662h-3.399v-4.159h3.399V418.662z M952.928,422.381h3.399v20.677h-3.399V422.381z"/>
		<path fill="#333333" d="M970.526,421.902c6.559,0,10.038,4.759,10.038,10.838c0,6.039-3.479,10.798-10.038,10.798
			c-6.56,0-10.039-4.759-10.039-10.798C960.487,426.661,963.967,421.902,970.526,421.902z M970.526,440.539
			c3.559,0,6.438-2.8,6.438-7.799s-2.88-7.838-6.438-7.838c-3.56,0-6.439,2.839-6.439,7.838S966.967,440.539,970.526,440.539z"/>
		<path fill="#333333" d="M984.567,422.381h3.199v3.28h0.08c1.439-2.56,3.72-3.759,6.719-3.759c5.439,0,7.119,3.119,7.119,7.559
			v13.598h-3.399v-13.998c0-2.56-1.6-4.159-4.199-4.159c-4.119,0-6.119,2.759-6.119,6.479v11.678h-3.399V422.381z"/>
		<path fill="#333333" d="M1026.847,421.902c6.559,0,10.038,4.759,10.038,10.838c0,6.039-3.479,10.798-10.038,10.798
			c-6.56,0-10.039-4.759-10.039-10.798C1016.808,426.661,1020.287,421.902,1026.847,421.902z M1026.847,440.539
			c3.559,0,6.438-2.8,6.438-7.799s-2.88-7.838-6.438-7.838c-3.56,0-6.439,2.839-6.439,7.838S1023.287,440.539,1026.847,440.539z"/>
		<path fill="#333333" d="M1042.287,425.381h-3.479v-3h3.479v-3.079c0-3.359,2-5.119,5.72-5.119c0.64,0,1.56,0.12,2.199,0.32v2.959
			c-0.6-0.2-1.319-0.28-1.92-0.28c-1.64,0-2.6,0.52-2.6,2.319v2.879h4v3h-4v17.677h-3.399V425.381z"/>
		<path fill="#333333" d="M1068.566,422.381h4.12v3h-4.12v12.838c0,1.6,0.44,1.84,2.56,1.84h1.561v3h-2.6
			c-3.52,0-4.92-0.72-4.92-4.519v-13.158h-3.519v-3h3.519v-6.199h3.399V422.381z"/>
		<path fill="#333333" d="M1076.447,414.503h3.399v10.918h0.08c1.08-2.52,4.079-3.519,6.519-3.519c5.439,0,7.119,3.119,7.119,7.559
			v13.598h-3.399v-13.998c0-2.56-1.6-4.159-4.199-4.159c-4.119,0-6.119,2.759-6.119,6.479v11.678h-3.399V414.503z"/>
		<path fill="#333333" d="M1116.324,436.499c-0.92,4.6-4.159,7.039-8.838,7.039c-6.6,0-9.719-4.599-9.919-10.878
			c0-6.239,4.08-10.758,9.719-10.758c7.318,0,9.559,6.839,9.358,11.838h-15.478c-0.12,3.599,1.92,6.799,6.439,6.799
			c2.839,0,4.759-1.32,5.358-4.04H1116.324z M1113.045,430.74c-0.2-3.24-2.56-5.839-5.959-5.839c-3.52,0-5.719,2.639-5.919,5.839
			H1113.045z"/>
		<path fill="#333333" d="M775.052,472.381h3.399v2.8h0.08c1.119-2.28,3.719-3.279,6.599-3.279c6.359,0,9.519,5.039,9.519,10.878
			c0,5.879-3.119,10.758-9.438,10.758c-2.08,0-5.199-0.8-6.679-3.24h-0.08v10.678h-3.399V472.381z M784.65,474.901
			c-4.6,0-6.319,3.959-6.319,7.798c0,4.04,1.84,7.839,6.519,7.839c4.64,0,6.199-3.959,6.199-7.999
			C791.049,478.661,789.049,474.901,784.65,474.901z"/>
		<path fill="#333333" d="M798.531,472.381h3.199v4.359h0.08c1.64-3.359,3.92-4.959,7.599-4.839v3.599
			c-5.479,0-7.479,3.08-7.479,8.359v9.198h-3.399V472.381z"/>
		<path fill="#333333" d="M820.89,471.902c6.559,0,10.038,4.759,10.038,10.838c0,6.039-3.479,10.798-10.038,10.798
			c-6.56,0-10.039-4.759-10.039-10.798C810.851,476.661,814.33,471.902,820.89,471.902z M820.89,490.539
			c3.559,0,6.438-2.8,6.438-7.799s-2.88-7.838-6.438-7.838c-3.56,0-6.439,2.839-6.439,7.838S817.33,490.539,820.89,490.539z"/>
		<path fill="#333333" d="M835.051,472.381h3.399v2.8h0.08c1.119-2.28,3.719-3.279,6.599-3.279c6.359,0,9.519,5.039,9.519,10.878
			c0,5.879-3.119,10.758-9.438,10.758c-2.08,0-5.199-0.8-6.679-3.24h-0.08v10.678h-3.399V472.381z M844.649,474.901
			c-4.6,0-6.319,3.959-6.319,7.798c0,4.04,1.84,7.839,6.519,7.839c4.64,0,6.199-3.959,6.199-7.999
			C851.048,478.661,849.048,474.901,844.649,474.901z"/>
		<path fill="#333333" d="M867.569,471.902c6.559,0,10.038,4.759,10.038,10.838c0,6.039-3.479,10.798-10.038,10.798
			c-6.56,0-10.039-4.759-10.039-10.798C857.53,476.661,861.01,471.902,867.569,471.902z M867.569,490.539
			c3.559,0,6.438-2.8,6.438-7.799s-2.88-7.838-6.438-7.838c-3.56,0-6.439,2.839-6.439,7.838S864.01,490.539,867.569,490.539z"/>
		<path fill="#333333" d="M883.69,486.539c0.119,3.04,2.799,4,5.559,4c2.12,0,4.999-0.48,4.999-3.08
			c0-5.319-13.518-1.72-13.518-9.678c0-4.159,4.079-5.879,7.719-5.879c4.64,0,8.158,1.439,8.479,6.479h-3.399
			c-0.2-2.639-2.6-3.479-4.799-3.479c-2.04,0-4.399,0.56-4.399,2.639c0,2.4,3.6,2.88,6.759,3.6c3.399,0.76,6.759,1.919,6.759,5.879
			c0,4.959-4.6,6.519-8.799,6.519c-4.639,0-8.559-1.88-8.758-6.999H883.69z"/>
		<path fill="#333333" d="M919.247,486.499c-0.92,4.6-4.159,7.039-8.838,7.039c-6.6,0-9.719-4.599-9.919-10.878
			c0-6.239,4.08-10.758,9.719-10.758c7.318,0,9.559,6.839,9.358,11.838H904.09c-0.12,3.599,1.92,6.799,6.439,6.799
			c2.839,0,4.759-1.32,5.358-4.04H919.247z M915.968,480.74c-0.2-3.24-2.56-5.839-5.959-5.839c-3.52,0-5.719,2.639-5.919,5.839
			H915.968z"/>
		<path fill="#333333" d="M941.566,493.058h-3.399v-2.799h-0.08c-1.119,2.279-3.719,3.279-6.599,3.279
			c-6.358,0-9.519-5.039-9.519-10.878c0-5.839,3.12-10.758,9.438-10.758c2.08,0,5.199,0.8,6.679,3.239h0.08v-10.638h3.399V493.058z
			 M931.969,490.539c4.599,0,6.318-3.959,6.318-7.799c0-4.039-1.84-7.838-6.519-7.838c-4.64,0-6.199,3.959-6.199,7.999
			C925.569,486.779,927.569,490.539,931.969,490.539z"/>
		<path fill="#333333" d="M971.968,479.021c-0.521-2.6-2.28-4.119-5.119-4.119c-4.92,0-6.439,3.919-6.439,8.079
			c0,3.839,1.72,7.559,6.039,7.559c3.319,0,5.239-1.88,5.679-5.039h3.479c-0.76,5.079-3.879,8.039-9.118,8.039
			c-6.319,0-9.679-4.359-9.679-10.558c0-6.199,3.2-11.078,9.759-11.078c4.719,0,8.398,2.199,8.918,7.119H971.968z"/>
		<path fill="#333333" d="M979.409,464.503h3.399v10.918h0.08c1.08-2.52,4.079-3.519,6.519-3.519c5.439,0,7.119,3.119,7.119,7.559
			v13.598h-3.399v-13.998c0-2.56-1.6-4.159-4.199-4.159c-4.119,0-6.119,2.759-6.119,6.479v11.678h-3.399V464.503z"/>
		<path fill="#333333" d="M1019.967,492.978c-0.601,0.36-1.44,0.56-2.44,0.56c-1.76,0-2.879-0.96-2.879-3.2
			c-1.88,2.24-4.399,3.2-7.279,3.2c-3.759,0-6.839-1.64-6.839-5.799c0-4.679,3.479-5.719,6.999-6.359
			c3.72-0.76,6.959-0.44,6.959-3.039c0-3-2.479-3.439-4.6-3.439c-2.879,0-4.999,0.88-5.159,3.919h-3.399
			c0.2-5.119,4.12-6.918,8.759-6.918c3.72,0,7.759,0.84,7.759,5.679v10.638c0,1.6,0,2.32,1.08,2.32c0.319,0,0.68-0.08,1.04-0.2
			V492.978z M1014.447,482.38c-2.64,1.959-10.318,0.04-10.318,5.119c0,2.24,1.92,3.04,3.999,3.04c4.479,0,6.319-2.76,6.319-4.679
			V482.38z"/>
		<path fill="#333333" d="M1023.129,472.381h3.199v3.28h0.08c1.439-2.56,3.72-3.759,6.719-3.759c5.439,0,7.119,3.119,7.119,7.559
			v13.598h-3.399v-13.998c0-2.56-1.6-4.159-4.199-4.159c-4.119,0-6.119,2.759-6.119,6.479v11.678h-3.399V472.381z"/>
		<path fill="#333333" d="M1063.206,491.298c0,6.759-3.039,10.159-9.599,10.159c-3.879,0-8.358-1.6-8.559-6.079h3.399
			c0.12,2.439,3.16,3.359,5.359,3.359c4.439,0,6.199-3.2,6.199-7.839v-1.36h-0.08c-1.16,2.52-3.8,3.759-6.439,3.759
			c-6.158,0-9.238-4.839-9.238-10.478c0-4.879,2.36-10.918,9.559-10.918c2.6,0,4.919,1.16,6.159,3.439h0.04v-2.96h3.199V491.298z
			 M1059.847,482.3c0-3.639-1.6-7.398-5.879-7.398c-4.359,0-6.119,3.559-6.119,7.519c0,3.719,1.359,7.878,5.839,7.878
			S1059.847,486.179,1059.847,482.3z"/>
		<path fill="#333333" d="M1085.966,486.499c-0.92,4.6-4.159,7.039-8.838,7.039c-6.6,0-9.719-4.599-9.919-10.878
			c0-6.239,4.08-10.758,9.719-10.758c7.318,0,9.559,6.839,9.358,11.838h-15.478c-0.12,3.599,1.92,6.799,6.439,6.799
			c2.839,0,4.759-1.32,5.358-4.04H1085.966z M1082.687,480.74c-0.2-3.24-2.56-5.839-5.959-5.839c-3.52,0-5.719,2.639-5.919,5.839
			H1082.687z"/>
		<path fill="#333333" d="M1090.568,488.619h4.439v4.04c0,3.04-1.32,5.359-4.399,6.279v-2c1.76-0.64,2.439-2.56,2.319-3.879h-2.359
			V488.619z"/>
		<path fill="#333333" d="M778.531,545.698c0,3.68-1.92,5.279-4.959,5.279c-0.601,0-1.16-0.04-1.76-0.16v-2.92
			c0.239,0.04,0.479,0.08,0.68,0.08h0.72c1.479,0,1.92-0.72,1.92-2.839v-22.757h3.399V545.698z M778.531,518.662h-3.399v-4.158
			h3.399V518.662z"/>
		<path fill="#333333" d="M800.928,543.059h-3.199v-3.279h-0.08c-1.44,2.56-3.72,3.759-6.719,3.759
			c-5.439,0-7.119-3.119-7.119-7.558v-13.599h3.399v13.998c0,2.56,1.6,4.159,4.199,4.159c4.119,0,6.119-2.76,6.119-6.479v-11.679
			h3.399V543.059z"/>
		<path fill="#333333" d="M808.131,536.539c0.119,3.04,2.799,4,5.559,4c2.12,0,4.999-0.48,4.999-3.08
			c0-5.318-13.518-1.719-13.518-9.678c0-4.159,4.079-5.879,7.719-5.879c4.64,0,8.158,1.439,8.479,6.479h-3.399
			c-0.2-2.639-2.6-3.479-4.799-3.479c-2.04,0-4.399,0.559-4.399,2.639c0,2.4,3.6,2.88,6.759,3.6c3.399,0.76,6.759,1.92,6.759,5.879
			c0,4.959-4.6,6.519-8.799,6.519c-4.639,0-8.559-1.879-8.758-6.999H808.131z"/>
		<path fill="#333333" d="M830.77,522.382h4.12v2.999h-4.12v12.838c0,1.601,0.44,1.84,2.56,1.84h1.561v3h-2.6
			c-3.52,0-4.92-0.72-4.92-4.52v-13.158h-3.519v-2.999h3.519v-6.198h3.399V522.382z"/>
		<path fill="#333333" d="M842.25,518.662h-3.399v-4.158h3.399V518.662z M838.851,522.382h3.399v20.677h-3.399V522.382z"/>
		<path fill="#333333" d="M848.929,525.381h-3.479v-2.999h3.479v-3.079c0-3.359,2-5.119,5.72-5.119c0.64,0,1.56,0.119,2.199,0.32
			v2.959c-0.6-0.2-1.319-0.279-1.92-0.279c-1.64,0-2.6,0.52-2.6,2.318v2.88h4v2.999h-4v17.678h-3.399V525.381z M859.567,518.662
			v-4.158h3.399v4.158H859.567z M859.567,543.059v-20.677h3.399v20.677H859.567z"/>
		<path fill="#333333" d="M882.287,529.021c-0.521-2.6-2.28-4.119-5.119-4.119c-4.92,0-6.439,3.918-6.439,8.078
			c0,3.84,1.72,7.559,6.039,7.559c3.319,0,5.239-1.88,5.679-5.039h3.479c-0.76,5.079-3.879,8.038-9.118,8.038
			c-6.319,0-9.679-4.358-9.679-10.558s3.2-11.078,9.759-11.078c4.719,0,8.398,2.199,8.918,7.119H882.287z"/>
		<path fill="#333333" d="M908.046,542.979c-0.601,0.36-1.44,0.56-2.44,0.56c-1.76,0-2.879-0.959-2.879-3.199
			c-1.88,2.24-4.399,3.199-7.279,3.199c-3.759,0-6.839-1.64-6.839-5.799c0-4.679,3.479-5.719,6.999-6.358
			c3.72-0.76,6.959-0.44,6.959-3.04c0-2.999-2.479-3.438-4.6-3.438c-2.879,0-4.999,0.879-5.159,3.918h-3.399
			c0.2-5.119,4.12-6.918,8.759-6.918c3.72,0,7.759,0.84,7.759,5.679v10.638c0,1.601,0,2.32,1.08,2.32c0.319,0,0.68-0.08,1.04-0.2
			V542.979z M902.526,532.381c-2.64,1.959-10.318,0.039-10.318,5.119c0,2.239,1.92,3.039,3.999,3.039c4.479,0,6.319-2.76,6.319-4.68
			V532.381z"/>
		<path fill="#333333" d="M915.927,522.382h4.12v2.999h-4.12v12.838c0,1.601,0.44,1.84,2.56,1.84h1.561v3h-2.6
			c-3.52,0-4.92-0.72-4.92-4.52v-13.158h-3.519v-2.999h3.519v-6.198h3.399V522.382z"/>
		<path fill="#333333" d="M927.407,518.662h-3.399v-4.158h3.399V518.662z M924.008,522.382h3.399v20.677h-3.399V522.382z"/>
		<path fill="#333333" d="M941.606,521.902c6.559,0,10.038,4.759,10.038,10.838c0,6.039-3.479,10.798-10.038,10.798
			c-6.56,0-10.039-4.759-10.039-10.798C931.567,526.661,935.047,521.902,941.606,521.902z M941.606,540.539
			c3.559,0,6.438-2.8,6.438-7.799s-2.88-7.838-6.438-7.838c-3.56,0-6.439,2.839-6.439,7.838S938.047,540.539,941.606,540.539z"/>
		<path fill="#333333" d="M955.647,522.382h3.199v3.28h0.08c1.439-2.561,3.72-3.76,6.719-3.76c5.439,0,7.119,3.119,7.119,7.559
			v13.598h-3.399v-13.998c0-2.559-1.6-4.158-4.199-4.158c-4.119,0-6.119,2.759-6.119,6.479v11.678h-3.399V522.382z"/>
		<path fill="#333333" d="M990.407,525.381h-3.479v-2.999h3.479v-3.079c0-3.359,2-5.119,5.72-5.119c0.64,0,1.56,0.119,2.199,0.32
			v2.959c-0.6-0.2-1.319-0.279-1.92-0.279c-1.64,0-2.6,0.52-2.6,2.318v2.88h4v2.999h-4v17.678h-3.399V525.381z"/>
		<path fill="#333333" d="M1009.767,521.902c6.559,0,10.038,4.759,10.038,10.838c0,6.039-3.479,10.798-10.038,10.798
			c-6.56,0-10.039-4.759-10.039-10.798C999.728,526.661,1003.207,521.902,1009.767,521.902z M1009.767,540.539
			c3.559,0,6.438-2.8,6.438-7.799s-2.88-7.838-6.438-7.838c-3.56,0-6.439,2.839-6.439,7.838S1006.207,540.539,1009.767,540.539z"/>
		<path fill="#333333" d="M1023.688,522.382h3.199v4.359h0.08c1.64-3.359,3.92-4.959,7.599-4.839v3.6
			c-5.479,0-7.479,3.079-7.479,8.358v9.198h-3.399V522.382z"/>
		<path fill="#333333" d="M1052.966,522.382h4.12v2.999h-4.12v12.838c0,1.601,0.44,1.84,2.56,1.84h1.561v3h-2.6
			c-3.52,0-4.92-0.72-4.92-4.52v-13.158h-3.519v-2.999h3.519v-6.198h3.399V522.382z"/>
		<path fill="#333333" d="M1060.847,514.504h3.399v10.918h0.08c1.08-2.52,4.079-3.52,6.519-3.52c5.439,0,7.119,3.119,7.119,7.559
			v13.598h-3.399v-13.998c0-2.559-1.6-4.158-4.199-4.158c-4.119,0-6.119,2.759-6.119,6.479v11.678h-3.399V514.504z"/>
		<path fill="#333333" d="M1100.724,536.5c-0.92,4.6-4.159,7.038-8.838,7.038c-6.6,0-9.719-4.599-9.919-10.878
			c0-6.238,4.08-10.758,9.719-10.758c7.318,0,9.559,6.839,9.358,11.838h-15.478c-0.12,3.6,1.92,6.799,6.439,6.799
			c2.839,0,4.759-1.32,5.358-4.039H1100.724z M1097.444,530.74c-0.2-3.239-2.56-5.838-5.959-5.838c-3.52,0-5.719,2.639-5.919,5.838
			H1097.444z"/>
		<path fill="#333333" d="M788.97,579.021c-0.521-2.599-2.28-4.119-5.119-4.119c-4.92,0-6.439,3.92-6.439,8.079
			c0,3.839,1.72,7.559,6.039,7.559c3.319,0,5.239-1.88,5.679-5.039h3.479c-0.76,5.079-3.879,8.038-9.118,8.038
			c-6.319,0-9.679-4.358-9.679-10.558s3.2-11.078,9.759-11.078c4.719,0,8.398,2.199,8.918,7.118H788.97z"/>
		<path fill="#333333" d="M796.411,564.503h3.399v10.919h0.08c1.08-2.52,4.079-3.52,6.519-3.52c5.439,0,7.119,3.119,7.119,7.559
			v13.598h-3.399v-13.998c0-2.56-1.6-4.159-4.199-4.159c-4.119,0-6.119,2.76-6.119,6.479v11.678h-3.399V564.503z"/>
		<path fill="#333333" d="M836.969,592.979c-0.601,0.36-1.44,0.56-2.44,0.56c-1.76,0-2.879-0.959-2.879-3.199
			c-1.88,2.24-4.399,3.199-7.279,3.199c-3.759,0-6.839-1.64-6.839-5.799c0-4.679,3.479-5.719,6.999-6.358
			c3.72-0.76,6.959-0.44,6.959-3.04c0-2.999-2.479-3.439-4.6-3.439c-2.879,0-4.999,0.88-5.159,3.92h-3.399
			c0.2-5.119,4.12-6.919,8.759-6.919c3.72,0,7.759,0.84,7.759,5.679v10.639c0,1.6,0,2.319,1.08,2.319c0.319,0,0.68-0.08,1.04-0.2
			V592.979z M831.449,582.381c-2.64,1.959-10.318,0.039-10.318,5.119c0,2.239,1.92,3.039,3.999,3.039c4.479,0,6.319-2.76,6.319-4.68
			V582.381z"/>
		<path fill="#333333" d="M840.131,572.382h3.199v3.279h0.08c1.439-2.56,3.72-3.759,6.719-3.759c5.439,0,7.119,3.119,7.119,7.559
			v13.598h-3.399v-13.998c0-2.56-1.6-4.159-4.199-4.159c-4.119,0-6.119,2.76-6.119,6.479v11.678h-3.399V572.382z"/>
		<path fill="#333333" d="M880.208,591.299c0,6.759-3.039,10.158-9.599,10.158c-3.879,0-8.358-1.6-8.559-6.079h3.399
			c0.12,2.439,3.16,3.359,5.359,3.359c4.439,0,6.199-3.199,6.199-7.838v-1.36h-0.08c-1.16,2.52-3.8,3.76-6.439,3.76
			c-6.158,0-9.238-4.84-9.238-10.479c0-4.879,2.36-10.918,9.559-10.918c2.6,0,4.919,1.159,6.159,3.439h0.04v-2.96h3.199V591.299z
			 M876.849,582.301c0-3.64-1.6-7.399-5.879-7.399c-4.359,0-6.119,3.56-6.119,7.519c0,3.72,1.359,7.879,5.839,7.879
			S876.849,586.18,876.849,582.301z"/>
		<path fill="#333333" d="M902.968,586.5c-0.92,4.599-4.159,7.038-8.838,7.038c-6.6,0-9.719-4.599-9.919-10.878
			c0-6.238,4.08-10.758,9.719-10.758c7.318,0,9.559,6.839,9.358,11.838h-15.478c-0.12,3.6,1.92,6.799,6.439,6.799
			c2.839,0,4.759-1.32,5.358-4.039H902.968z M899.688,580.74c-0.2-3.239-2.56-5.839-5.959-5.839c-3.52,0-5.719,2.64-5.919,5.839
			H899.688z"/>
		<path fill="#333333" d="M907.57,588.619h4.439v4.039c0,3.04-1.32,5.359-4.399,6.279v-2c1.76-0.64,2.439-2.56,2.319-3.879h-2.359
			V588.619z"/>
		<path fill="#333333" d="M947.368,592.979c-0.601,0.36-1.44,0.56-2.44,0.56c-1.76,0-2.879-0.959-2.879-3.199
			c-1.88,2.24-4.399,3.199-7.279,3.199c-3.759,0-6.839-1.64-6.839-5.799c0-4.679,3.479-5.719,6.999-6.358
			c3.72-0.76,6.959-0.44,6.959-3.04c0-2.999-2.479-3.439-4.6-3.439c-2.879,0-4.999,0.88-5.159,3.92h-3.399
			c0.2-5.119,4.12-6.919,8.759-6.919c3.72,0,7.759,0.84,7.759,5.679v10.639c0,1.6,0,2.319,1.08,2.319c0.319,0,0.68-0.08,1.04-0.2
			V592.979z M941.849,582.381c-2.64,1.959-10.318,0.039-10.318,5.119c0,2.239,1.92,3.039,3.999,3.039c4.479,0,6.319-2.76,6.319-4.68
			V582.381z"/>
		<path fill="#333333" d="M950.53,572.382h3.199v3.279h0.08c1.439-2.56,3.72-3.759,6.719-3.759c5.439,0,7.119,3.119,7.119,7.559
			v13.598h-3.399v-13.998c0-2.56-1.6-4.159-4.199-4.159c-4.119,0-6.119,2.76-6.119,6.479v11.678h-3.399V572.382z"/>
		<path fill="#333333" d="M991.247,593.059h-3.399v-2.8h-0.08c-1.119,2.28-3.719,3.279-6.599,3.279
			c-6.358,0-9.519-5.039-9.519-10.878s3.12-10.758,9.438-10.758c2.08,0,5.199,0.8,6.679,3.239h0.08v-10.639h3.399V593.059z
			 M981.649,590.539c4.599,0,6.318-3.959,6.318-7.799c0-4.039-1.84-7.839-6.519-7.839c-4.64,0-6.199,3.96-6.199,7.999
			C975.25,586.779,977.25,590.539,981.649,590.539z"/>
		<path fill="#333333" d="M1007.49,572.382h3.199v4.359h0.08c1.64-3.359,3.92-4.959,7.599-4.839v3.6
			c-5.479,0-7.479,3.079-7.479,8.358v9.198h-3.399V572.382z"/>
		<path fill="#333333" d="M1038.566,586.5c-0.92,4.599-4.159,7.038-8.838,7.038c-6.6,0-9.719-4.599-9.919-10.878
			c0-6.238,4.08-10.758,9.719-10.758c7.318,0,9.559,6.839,9.358,11.838h-15.478c-0.12,3.6,1.92,6.799,6.439,6.799
			c2.839,0,4.759-1.32,5.358-4.039H1038.566z M1035.287,580.74c-0.2-3.239-2.56-5.839-5.959-5.839c-3.52,0-5.719,2.64-5.919,5.839
			H1035.287z"/>
		<path fill="#333333" d="M1060.886,600.978h-3.399v-10.719h-0.08c-1.119,2.28-3.719,3.279-6.599,3.279
			c-6.358,0-9.519-5.039-9.519-10.878s3.12-10.758,9.438-10.758c2.08,0,5.199,0.8,6.679,3.239h0.08v-2.76h3.399V600.978z
			 M1051.288,590.539c4.599,0,6.318-3.959,6.318-7.799c0-4.039-1.84-7.839-6.519-7.839c-4.64,0-6.199,3.96-6.199,7.999
			C1044.889,586.779,1046.889,590.539,1051.288,590.539z"/>
		<path fill="#333333" d="M1083.246,593.059h-3.199v-3.279h-0.08c-1.44,2.56-3.72,3.759-6.719,3.759
			c-5.439,0-7.119-3.119-7.119-7.559v-13.598h3.399v13.998c0,2.56,1.6,4.159,4.199,4.159c4.119,0,6.119-2.76,6.119-6.479v-11.679
			h3.399V593.059z"/>
		<path fill="#333333" d="M1106.006,586.5c-0.92,4.599-4.159,7.038-8.838,7.038c-6.6,0-9.719-4.599-9.919-10.878
			c0-6.238,4.08-10.758,9.719-10.758c7.318,0,9.559,6.839,9.358,11.838h-15.478c-0.12,3.6,1.92,6.799,6.439,6.799
			c2.839,0,4.759-1.32,5.358-4.039H1106.006z M1102.727,580.74c-0.2-3.239-2.56-5.839-5.959-5.839c-3.52,0-5.719,2.64-5.919,5.839
			H1102.727z"/>
		<path fill="#333333" d="M1111.929,586.54c0.119,3.039,2.799,3.999,5.559,3.999c2.12,0,4.999-0.479,4.999-3.079
			c0-5.319-13.518-1.72-13.518-9.679c0-4.159,4.079-5.879,7.719-5.879c4.64,0,8.158,1.439,8.479,6.479h-3.399
			c-0.2-2.64-2.6-3.479-4.799-3.479c-2.04,0-4.399,0.561-4.399,2.64c0,2.399,3.6,2.88,6.759,3.6c3.399,0.76,6.759,1.92,6.759,5.879
			c0,4.959-4.6,6.519-8.799,6.519c-4.639,0-8.559-1.879-8.758-6.998H1111.929z"/>
		<path fill="#333333" d="M1134.567,572.382h4.12v3h-4.12v12.838c0,1.6,0.44,1.84,2.56,1.84h1.561v2.999h-2.6
			c-3.52,0-4.92-0.72-4.92-4.52v-13.157h-3.519v-3h3.519v-6.198h3.399V572.382z"/>
		<path fill="#333333" d="M1160.085,586.5c-0.92,4.599-4.159,7.038-8.838,7.038c-6.6,0-9.719-4.599-9.919-10.878
			c0-6.238,4.08-10.758,9.719-10.758c7.318,0,9.559,6.839,9.358,11.838h-15.478c-0.12,3.6,1.92,6.799,6.439,6.799
			c2.839,0,4.759-1.32,5.358-4.039H1160.085z M1156.806,580.74c-0.2-3.239-2.56-5.839-5.959-5.839c-3.52,0-5.719,2.64-5.919,5.839
			H1156.806z"/>
		<path fill="#333333" d="M1182.404,593.059h-3.399v-2.8h-0.08c-1.119,2.28-3.719,3.279-6.599,3.279
			c-6.358,0-9.519-5.039-9.519-10.878s3.12-10.758,9.438-10.758c2.08,0,5.199,0.8,6.679,3.239h0.08v-10.639h3.399V593.059z
			 M1172.807,590.539c4.599,0,6.318-3.959,6.318-7.799c0-4.039-1.84-7.839-6.519-7.839c-4.64,0-6.199,3.96-6.199,7.999
			C1166.407,586.779,1168.407,590.539,1172.807,590.539z"/>
		<path fill="#333333" d="M792.568,636.5c-0.92,4.599-4.159,7.038-8.838,7.038c-6.6,0-9.719-4.599-9.919-10.878
			c0-6.238,4.08-10.758,9.719-10.758c7.318,0,9.559,6.839,9.358,11.838h-15.478c-0.12,3.6,1.92,6.799,6.439,6.799
			c2.839,0,4.759-1.32,5.358-4.039H792.568z M789.289,630.74c-0.2-3.239-2.56-5.839-5.959-5.839c-3.52,0-5.719,2.64-5.919,5.839
			H789.289z"/>
		<path fill="#333333" d="M797.811,625.382h-3.479v-3h3.479v-3.079c0-3.359,2-5.119,5.72-5.119c0.64,0,1.56,0.12,2.199,0.319v2.96
			c-0.6-0.2-1.319-0.28-1.92-0.28c-1.64,0-2.6,0.521-2.6,2.32v2.879h4v3h-4v17.677h-3.399V625.382z"/>
		<path fill="#333333" d="M809.65,625.382h-3.479v-3h3.479v-3.079c0-3.359,2-5.119,5.72-5.119c0.64,0,1.56,0.12,2.199,0.319v2.96
			c-0.6-0.2-1.319-0.28-1.92-0.28c-1.64,0-2.6,0.521-2.6,2.32v2.879h4v3h-4v17.677h-3.399V625.382z"/>
		<path fill="#333333" d="M837.728,636.5c-0.92,4.599-4.159,7.038-8.838,7.038c-6.6,0-9.719-4.599-9.919-10.878
			c0-6.238,4.08-10.758,9.719-10.758c7.318,0,9.559,6.839,9.358,11.838H822.57c-0.12,3.6,1.92,6.799,6.439,6.799
			c2.839,0,4.759-1.32,5.358-4.039H837.728z M834.448,630.74c-0.2-3.239-2.56-5.839-5.959-5.839c-3.52,0-5.719,2.64-5.919,5.839
			H834.448z"/>
		<path fill="#333333" d="M855.608,629.021c-0.521-2.599-2.28-4.119-5.119-4.119c-4.92,0-6.439,3.92-6.439,8.079
			c0,3.839,1.72,7.559,6.039,7.559c3.319,0,5.239-1.88,5.679-5.039h3.479c-0.76,5.079-3.879,8.038-9.118,8.038
			c-6.319,0-9.679-4.358-9.679-10.558s3.2-11.078,9.759-11.078c4.719,0,8.398,2.199,8.918,7.118H855.608z"/>
		<path fill="#333333" d="M867.769,622.382h4.12v3h-4.12v12.838c0,1.6,0.44,1.84,2.56,1.84h1.561v2.999h-2.6
			c-3.52,0-4.92-0.72-4.92-4.52v-13.157h-3.519v-3h3.519v-6.198h3.399V622.382z"/>
		<path fill="#333333" d="M879.249,618.663h-3.399v-4.16h3.399V618.663z M875.85,622.382h3.399v20.677h-3.399V622.382z"/>
		<path fill="#333333" d="M893.848,643.059h-3.64l-7.679-20.677h3.8l5.799,17.237h0.08l5.639-17.237h3.56L893.848,643.059z"/>
		<path fill="#333333" d="M922.166,636.5c-0.92,4.599-4.159,7.038-8.838,7.038c-6.6,0-9.719-4.599-9.919-10.878
			c0-6.238,4.08-10.758,9.719-10.758c7.318,0,9.559,6.839,9.358,11.838h-15.478c-0.12,3.6,1.92,6.799,6.439,6.799
			c2.839,0,4.759-1.32,5.358-4.039H922.166z M918.887,630.74c-0.2-3.239-2.56-5.839-5.959-5.839c-3.52,0-5.719,2.64-5.919,5.839
			H918.887z"/>
		<path fill="#333333" d="M955.605,643.059h-3.399v-2.8h-0.08c-1.119,2.28-3.719,3.279-6.599,3.279
			c-6.358,0-9.519-5.039-9.519-10.878s3.12-10.758,9.438-10.758c2.08,0,5.199,0.8,6.679,3.239h0.08v-10.639h3.399V643.059z
			 M946.008,640.539c4.599,0,6.318-3.959,6.318-7.799c0-4.039-1.84-7.839-6.519-7.839c-4.64,0-6.199,3.96-6.199,7.999
			C939.608,636.779,941.608,640.539,946.008,640.539z"/>
		<path fill="#333333" d="M979.166,642.979c-0.601,0.36-1.44,0.56-2.44,0.56c-1.76,0-2.879-0.959-2.879-3.199
			c-1.88,2.24-4.399,3.199-7.279,3.199c-3.759,0-6.839-1.64-6.839-5.799c0-4.679,3.479-5.719,6.999-6.358
			c3.72-0.76,6.959-0.44,6.959-3.04c0-2.999-2.479-3.439-4.6-3.439c-2.879,0-4.999,0.88-5.159,3.92h-3.399
			c0.2-5.119,4.12-6.919,8.759-6.919c3.72,0,7.759,0.84,7.759,5.679v10.639c0,1.6,0,2.319,1.08,2.319c0.319,0,0.68-0.08,1.04-0.2
			V642.979z M973.646,632.381c-2.64,1.959-10.318,0.039-10.318,5.119c0,2.239,1.92,3.039,3.999,3.039c4.479,0,6.319-2.76,6.319-4.68
			V632.381z"/>
		<path fill="#333333" d="M987.047,622.382h4.12v3h-4.12v12.838c0,1.6,0.44,1.84,2.56,1.84h1.561v2.999h-2.6
			c-3.52,0-4.92-0.72-4.92-4.52v-13.157h-3.519v-3h3.519v-6.198h3.399V622.382z"/>
		<path fill="#333333" d="M1012.564,636.5c-0.92,4.599-4.159,7.038-8.838,7.038c-6.6,0-9.719-4.599-9.919-10.878
			c0-6.238,4.08-10.758,9.719-10.758c7.318,0,9.559,6.839,9.358,11.838h-15.478c-0.12,3.6,1.92,6.799,6.439,6.799
			c2.839,0,4.759-1.32,5.358-4.039H1012.564z M1009.285,630.74c-0.2-3.239-2.56-5.839-5.959-5.839c-3.52,0-5.719,2.64-5.919,5.839
			H1009.285z"/>
		<path fill="#333333" d="M1017.167,638.619h4.439v4.439h-4.439V638.619z"/>
	</g>
</g>
<g>
	<g>
		<path fill="#A1B400" d="M1464.396,945.801c-0.023,0.008-0.031,0.031-0.047,0.047c-10.593,10.548-27.739,10.501-38.295-0.084
			l-82.566-82.962c-10.532-10.594-10.494-27.71,0.046-38.25c0.021-0.015,0.037-0.03,0.045-0.046
			c10.604-10.555,27.752-10.517,38.29,0.084l82.58,82.961C1474.969,918.146,1474.943,935.245,1464.396,945.801L1464.396,945.801z"/>
		<path fill="#C2D64C" d="M1452.614,945.285c-4.067,4.055-10.72,4.032-14.797-0.061l-82.567-82.963
			c-4.06-4.085-4.06-10.722,0.016-14.799c4.115-4.093,10.768-4.079,14.842,0.014l82.571,82.963
			c4.058,4.093,4.058,10.722-0.02,14.808L1452.614,945.285z"/>
		<path fill="#0E303F" d="M1182.432,663.109c0-0.008,0-0.008,0-0.008c20.065-20.07,46.72-31.089,75.033-31.044
			c58.351,0.107,105.742,47.666,105.637,106.009c-0.047,28.157-11.069,54.667-31.027,74.632
			c-20.059,20.056-46.69,31.066-74.992,31.027c-28.229-0.045-54.781-11.124-74.761-31.164
			c-19.976-20.049-30.952-46.633-30.899-74.866C1151.472,709.552,1162.479,683.058,1182.432,663.109L1182.432,663.109z"/>
		<g>
			<path fill="none" d="M1323.152,803.737"/>
		</g>
		<path fill="#D1ECFB" d="M1201.598,682.237c-14.854,14.854-23.054,34.575-23.1,55.526c-0.083,43.421,35.174,78.815,78.603,78.884
			c21.065,0.037,40.893-8.164,55.852-23.116l0,0c14.85-14.854,23.048-34.559,23.086-55.495c0.038-20.997-8.141-40.779-23.014-55.707
			c-14.871-14.93-34.626-23.162-55.636-23.199C1236.354,659.099,1216.535,667.3,1201.598,682.237L1201.598,682.237z"/>
		<path fill="#FFFFFF" d="M1313.024,682.329c-14.871-14.93-34.626-23.162-55.636-23.199c-5.914-0.008-11.729,0.653-17.369,1.913
			c-8.573,3.874-16.473,9.288-23.336,16.167c-14.857,14.846-23.052,34.566-23.089,55.525c-0.084,43.413,35.182,78.809,78.603,78.892
			c5.916,0.008,11.74-0.653,17.382-1.913c8.585-3.888,16.502-9.31,23.373-16.183l0,0c14.85-14.854,23.048-34.559,23.086-55.495
			C1336.076,717.039,1327.897,697.257,1313.024,682.329z"/>
		<g>
			<path fill="#0E303F" d="M1354.183,835.639c-5.289,5.278-13.862,5.255-19.144-0.045l-16.861-17.406
				c-5.271-5.3-5.263-13.851,0.015-19.128c0,0,0.023-0.008,0.031-0.023c5.296-5.27,13.858-5.262,19.144,0.047l16.862,17.412
				c5.266,5.285,5.258,13.843-0.02,19.12C1354.21,835.615,1354.187,835.631,1354.183,835.639z"/>
		</g>
		<g>
			<path fill="#2C5871" d="M1257.453,638.042c55.052,0.105,99.761,44.979,99.661,100.017c-0.057,26.586-10.452,51.585-29.277,70.41
				c-18.864,18.877-43.915,29.267-70.55,29.267c-0.061,0-0.125,0-0.187,0l0.022-13.32c0.054,0,0.114,0,0.164,0
				c23.077,0,44.775-9.007,61.125-25.371c16.32-16.311,25.334-37.976,25.383-61.008c0.084-47.696-38.66-86.575-86.367-86.675
				L1257.453,638.042L1257.453,638.042z"/>
		</g>
	</g>
</g>
</svg>
