<?xml version="1.0" encoding="utf-8"?>
<!-- Generator: Adobe Illustrator 16.0.3, SVG Export Plug-In . SVG Version: 6.00 Build 0)  -->
<!DOCTYPE svg PUBLIC "-//W3C//DTD SVG 1.1//EN" "http://www.w3.org/Graphics/SVG/1.1/DTD/svg11.dtd">
<svg version="1.1" id="Layer_1" xmlns="http://www.w3.org/2000/svg" xmlns:xlink="http://www.w3.org/1999/xlink" x="0px" y="0px"
	 width="2048px" height="1000px" viewBox="0 0 2048 1000" enable-background="new 0 0 2048 1000" xml:space="preserve">
<rect fill="#B9E5FB" width="2048" height="1000"/>
<polygon fill="#4EA8DE" points="0,999.818 1210.081,999.818 1210.081,236.104 1246.08,198.742 1210.081,152.108 1210.081,-2 0,-2 
	"/>
<polyline fill="#4EA8DE" points="1210.081,999.818 1210.081,720.323 1246.08,682.961 1210.081,636.328 1210.081,-2 "/>
<line fill="none" stroke="#343636" stroke-width="3.0731" stroke-miterlimit="10" x1="50.751" y1="53.718" x2="1148.584" y2="53.718"/>
<g>
	<rect x="50.763" y="75.963" fill="none" width="1046.237" height="48.624"/>
	<text transform="matrix(1 0 0 1 50.7627 108.8066)" fill="#FFFFFF" font-family="'HelveticaNeueLTPro-Md'" font-size="46">Questions</text>
</g>
<line fill="none" stroke="#343636" stroke-width="2.6551" stroke-miterlimit="10" x1="1255.917" y1="53.718" x2="2008.041" y2="53.718"/>
<g>
	<rect x="1255.928" y="75.963" fill="none" width="800.571" height="48.624"/>
	<text transform="matrix(1 0 0 1 1255.9277 108.8066)" fill="#231F20" font-family="'HelveticaNeueLTPro-Md'" font-size="46">Answers</text>
</g>
<rect x="50.763" y="161.381" fill="none" width="1114.94" height="74.723"/>
<text transform="matrix(1 0 0 1 50.7627 187.0845)"><tspan x="0" y="0" fill="#333333" font-family="'HelveticaNeueLTPro-Bd'" font-size="36">Click and drag</tspan><tspan x="249.261" y="0" fill="#333333" font-family="'HelveticaNeueLTPro-Roman'" font-size="36"> the following information points that are not included </tspan><tspan x="0" y="43.2" fill="#333333" font-family="'HelveticaNeueLTPro-Roman'" font-size="36">in information collected by the Customer Interface Team (CIT):</tspan></text>
<rect x="1279.909" y="161.381" fill="none" width="752.618" height="47.725"/>
<text transform="matrix(1 0 0 1 1279.9092 187.0845)"><tspan x="0" y="0" fill="#333333" font-family="'HelveticaNeueLTPro-Roman'" font-size="36">Information points </tspan><tspan x="302.071" y="0" fill="#333333" font-family="'HelveticaNeueLTPro-Bd'" font-size="36">not</tspan><tspan x="358.087" y="0" fill="#333333" font-family="'HelveticaNeueLTPro-Roman'" font-size="36"> collected by the CIT:</tspan></text>
<rect x="50.763" y="593.544" fill="none" width="955.329" height="74.723"/>
<text transform="matrix(1 0 0 1 50.7627 619.248)"><tspan x="0" y="0" fill="#333333" font-family="'HelveticaNeueLTPro-Bd'" font-size="36">True or False:</tspan><tspan x="235.329" y="0" fill="#333333" font-family="'HelveticaNeueLTPro-Roman'" font-size="36">  the CIT must send 3 notices to the </tspan><tspan x="0" y="43.199" fill="#333333" font-family="'HelveticaNeueLTPro-Roman'" font-size="36">complainant to collect additional information.</tspan></text>
<rect x="50.763" y="278.375" fill="none" width="852.029" height="257.714"/>
<text transform="matrix(1 0 0 1 50.7627 304.0786)"><tspan x="0" y="0" fill="#FFFFFF" font-family="'HelveticaNeueLTPro-Bd'" font-size="36">A. </tspan><tspan x="44.676" y="0" fill="#333333" font-family="'HelveticaNeueLTPro-Roman'" font-size="36">The Offering name</tspan><tspan x="0" y="47.2" fill="#FFFFFF" font-family="'HelveticaNeueLTPro-Bd'" font-size="36">B. </tspan><tspan x="45.359" y="47.2" fill="#333333" font-family="'HelveticaNeueLTPro-Roman'" font-size="36">The Offering version</tspan><tspan x="0" y="94.4" fill="#FFFFFF" font-family="'HelveticaNeueLTPro-Bd'" font-size="36">C. </tspan><tspan x="46.691" y="94.4" fill="#333333" font-family="'HelveticaNeueLTPro-Roman'" font-size="36">Response requested date</tspan><tspan x="0" y="141.6" fill="#FFFFFF" font-family="'HelveticaNeueLTPro-Bd'" font-size="36">D. </tspan><tspan x="46.691" y="141.6" fill="#333333" font-family="'HelveticaNeueLTPro-Roman'" font-size="36">Complainant name</tspan><tspan x="0" y="188.8" fill="#FFFFFF" font-family="'HelveticaNeueLTPro-Bd'" font-size="36">E. </tspan><tspan x="43.343" y="188.8" fill="#333333" font-family="'HelveticaNeueLTPro-Roman'" font-size="36">Promised next steps</tspan></text>
<rect x="1279.898" y="192.605" fill="none" width="722.127" height="200.991"/>
<text transform="matrix(1 0 0 1 1279.8984 265.5093)"><tspan x="0" y="0" fill="#333333" font-family="'HelveticaNeueLTPro-Bd'" font-size="36">C. </tspan><tspan x="46.691" y="0" fill="#333333" font-family="'HelveticaNeueLTPro-Roman'" font-size="36">Response requested date</tspan><tspan x="0" y="94.399" fill="#333333" font-family="'HelveticaNeueLTPro-Bd'" font-size="36">E. </tspan><tspan x="43.344" y="94.399" fill="#333333" font-family="'HelveticaNeueLTPro-Roman'" font-size="36">Promised next steps</tspan></text>
<rect x="50.763" y="694.01" fill="none" width="559.237" height="88.352"/>
<text transform="matrix(1 0 0 1 50.7627 719.7129)"><tspan x="0" y="0" fill="#FFFFFF" font-family="'HelveticaNeueLTPro-Bd'" font-size="36">A. </tspan><tspan x="44.676" y="0" fill="#333333" font-family="'HelveticaNeueLTPro-Roman'" font-size="36">True</tspan><tspan x="0" y="47.201" fill="#FFFFFF" font-family="'HelveticaNeueLTPro-Bd'" font-size="36">B. </tspan><tspan x="45.359" y="47.201" fill="#333333" font-family="'HelveticaNeueLTPro-Roman'" font-size="36">False</tspan></text>
<rect x="1294.184" y="668.099" fill="none" width="559.237" height="88.352"/>
<text transform="matrix(1 0 0 1 1294.1836 693.8027)"><tspan x="0" y="0" fill="#333333" font-family="'HelveticaNeueLTPro-Bd'" font-size="36">A. </tspan><tspan x="44.676" y="0" fill="#333333" font-family="'HelveticaNeueLTPro-Roman'" font-size="36">True</tspan></text>
<g>
	<g>
		<path fill="#FFFFFF" d="M1050.385,600.863c6.197,0,11.229,5.024,11.229,11.228v82.673c0.005,6.202-5.03,11.229-11.229,11.229l0,0
			c-6.197,0-11.229-5.027-11.229-11.229v-82.673C1039.155,605.888,1044.183,600.863,1050.385,600.863L1050.385,600.863z"/>
		<path fill="#FFFFFF" d="M1011.225,706.485c0,16.112,13.06,29.169,29.168,29.169h47.392c16.108,0,29.168-13.057,29.168-29.169
			v-47.394c0-16.104-13.056-29.164-29.168-29.164h-47.392c-16.108,0-29.168,13.057-29.168,29.164V706.485z"/>
		<path fill="#FFFFFF" d="M1105.728,622.815c6.206,0,11.225,5.029,11.225,11.228v52.955c0,6.196-5.019,11.226-11.225,11.226l0,0
			c-6.205,0-11.228-5.029-11.228-11.226v-52.955C1094.5,627.845,1099.522,622.815,1105.728,622.815L1105.728,622.815z"/>
		<path fill="#FFFFFF" d="M1078.248,611.086c6.203,0,11.232,5.034,11.232,11.231v82.676c0,6.199-5.029,11.227-11.232,11.227l0,0
			c-6.193,0-11.225-5.027-11.225-11.227v-82.676C1067.023,616.12,1072.055,611.086,1078.248,611.086L1078.248,611.086z"/>
		<path fill="#FFFFFF" d="M1022.52,566.145c6.203,0,11.229,5.037,11.229,11.233v82.674c0,6.204-5.025,11.233-11.229,11.233l0,0
			c-6.199,0-11.229-5.029-11.229-11.233v-82.674C1011.291,571.182,1016.32,566.145,1022.52,566.145L1022.52,566.145z"/>
		<path fill="#FFFFFF" d="M1105.217,830.443l-0.006-107.825c0.006-10.928-8.859-19.785-19.782-19.785h-32.15
			c-10.922,0-19.785,8.855-19.785,19.785v107.825H1105.217z"/>
		<path fill="#FFFFFF" d="M1006.053,702.304v-42.836c0-9.157-7.418-16.579-16.582-16.579h-5.521c-0.236,0-0.459,0.027-0.693,0.041
			v36.582L1006.053,702.304z"/>
		<path fill="#FFFFFF" d="M1020.332,696.176l-27.828-27.823c-2.631-2.639-5.935-4.181-9.357-4.676v27.56l37.186,37.173V696.176z"/>
	</g>
	<g>
		<g>
			<g>
				<rect x="1019.945" y="758.734" fill="#C1E2DE" width="107.178" height="54.609"/>
				<rect x="1015.906" y="768.926" fill="#15B0BF" width="115.25" height="250.027"/>
				<rect x="1015.906" y="768.926" fill="#0E303F" width="115.25" height="8.588"/>
			</g>
			<rect x="1073.589" y="758.734" fill="#A8C5C2" width="53.534" height="10.191"/>
			<rect x="1073.589" y="777.514" fill="#1695A4" width="57.567" height="241.439"/>
			<polygon fill="#0E303F" points="1073.589,768.926 1073.589,777.514 1131.156,777.514 1131.156,768.926 1127.123,768.926 			"/>
			<path fill="#A8C5C2" d="M1118.797,794.344c0,3.038-2.461,5.491-5.486,5.491c-3.037,0-5.49-2.453-5.49-5.491
				c0-3.027,2.453-5.49,5.49-5.49C1116.336,788.854,1118.797,791.316,1118.797,794.344z"/>
		</g>
	</g>
</g>
<g opacity="0.2">
	<g>
		<path fill="#1695A4" d="M2005.071,848.102h-217.48c-1.92,0-3.477-1.558-3.477-3.477s1.557-3.475,3.477-3.475h217.48
			c1.919,0,3.475,1.556,3.475,3.475S2006.99,848.102,2005.071,848.102L2005.071,848.102z"/>
	</g>
	<g>
		<path fill="#1695A4" d="M2005.071,884.591h-217.48c-1.92,0-3.477-1.558-3.477-3.476c0-1.92,1.557-3.477,3.477-3.477h217.48
			c1.919,0,3.475,1.557,3.475,3.477C2008.546,883.033,2006.99,884.591,2005.071,884.591L2005.071,884.591z"/>
	</g>
	<g>
		<path fill="#1695A4" d="M2005.071,921.077h-275.674c-1.919,0-3.475-1.556-3.475-3.475s1.556-3.475,3.475-3.475h275.674
			c1.919,0,3.475,1.556,3.475,3.475S2006.99,921.077,2005.071,921.077L2005.071,921.077z"/>
	</g>
	<g>
		<path fill="#1695A4" d="M2005.071,957.567h-275.674c-1.919,0-3.475-1.556-3.475-3.475s1.556-3.475,3.475-3.475h275.674
			c1.919,0,3.475,1.556,3.475,3.475S2006.99,957.567,2005.071,957.567L2005.071,957.567z"/>
	</g>
	<g>
		<g>
			<path fill="#1695A4" d="M1766.43,893.618c-1.372,0-2.671-0.819-3.22-2.167l-15.299-37.605l-15.294,37.605
				c-0.724,1.776-2.751,2.634-4.528,1.909c-1.778-0.724-2.633-2.75-1.91-4.528l18.514-45.517c0.533-1.31,1.806-2.165,3.219-2.165
				c1.414,0,2.687,0.855,3.219,2.165l18.519,45.517c0.723,1.778-0.132,3.805-1.91,4.528
				C1767.31,893.535,1766.866,893.618,1766.43,893.618L1766.43,893.618z"/>
		</g>
		<g>
			<path fill="#1695A4" d="M1758.93,884.528h-24.481c-1.92,0-3.477-1.558-3.477-3.476c0-1.92,1.557-3.477,3.477-3.477h24.481
				c1.919,0,3.476,1.557,3.476,3.477C1762.405,882.971,1760.849,884.528,1758.93,884.528L1758.93,884.528z"/>
		</g>
	</g>
</g>
<g opacity="0.5">
	<g>
		<g>
			<path fill="#1695A4" d="M322.155,848.102h-217.48c-1.92,0-3.477-1.558-3.477-3.477s1.557-3.475,3.477-3.475h217.48
				c1.919,0,3.475,1.556,3.475,3.475S324.074,848.102,322.155,848.102L322.155,848.102z"/>
		</g>
		<g>
			<path fill="#1695A4" d="M322.155,884.591h-217.48c-1.92,0-3.477-1.558-3.477-3.476c0-1.92,1.557-3.477,3.477-3.477h217.48
				c1.919,0,3.475,1.557,3.475,3.477C325.63,883.033,324.074,884.591,322.155,884.591L322.155,884.591z"/>
		</g>
		<g>
			<path fill="#1695A4" d="M322.155,921.077H46.481c-1.919,0-3.475-1.556-3.475-3.475s1.556-3.475,3.475-3.475h275.674
				c1.919,0,3.475,1.556,3.475,3.475S324.074,921.077,322.155,921.077L322.155,921.077z"/>
		</g>
		<g>
			<path fill="#1695A4" d="M322.155,957.567H46.481c-1.919,0-3.475-1.556-3.475-3.475s1.556-3.475,3.475-3.475h275.674
				c1.919,0,3.475,1.556,3.475,3.475S324.074,957.567,322.155,957.567L322.155,957.567z"/>
		</g>
	</g>
	<text transform="matrix(1 0 0 1 40.2822 892.291)" fill="#1695A4" font-family="'HelveticaNeueLTPro-Md'" font-size="72.0072">Q</text>
</g>
</svg>
