<?xml version="1.0" encoding="utf-8"?>
<!-- Generator: Adobe Illustrator 16.0.3, SVG Export Plug-In . SVG Version: 6.00 Build 0)  -->
<!DOCTYPE svg PUBLIC "-//W3C//DTD SVG 1.1//EN" "http://www.w3.org/Graphics/SVG/1.1/DTD/svg11.dtd">
<svg version="1.1" id="Layer_1" xmlns="http://www.w3.org/2000/svg" xmlns:xlink="http://www.w3.org/1999/xlink" x="0px" y="0px"
	 width="2048px" height="1000px" viewBox="0 0 2048 1000" enable-background="new 0 0 2048 1000" xml:space="preserve">
<rect fill="#89BE46" width="2048" height="1000"/>
<rect x="0.5" y="695.942" fill="#678F35" width="2048" height="304.058"/>
<g>
	<path fill="#333333" d="M212.271,210.02h-11.9v-4h28.552v4h-11.901v31.702h-4.75V210.02z"/>
	<path fill="#333333" d="M232.171,206.02h4.25v13.651h0.1c1.35-3.15,5.101-4.4,8.151-4.4c6.8,0,8.9,3.9,8.9,9.451v17.001h-4.25
		v-17.501c0-3.2-2-5.2-5.25-5.2c-5.15,0-7.65,3.45-7.65,8.1v14.601h-4.25V206.02z"/>
	<path fill="#333333" d="M264.471,211.22h-4.25v-5.2h4.25V211.22z M260.221,215.871h4.25v25.852h-4.25V215.871z"/>
	<path fill="#333333" d="M273.67,233.572c0.15,3.8,3.5,5,6.951,5c2.65,0,6.25-0.6,6.25-3.85c0-6.65-16.901-2.15-16.901-12.101
		c0-5.2,5.101-7.351,9.65-7.351c5.801,0,10.201,1.8,10.601,8.101h-4.25c-0.25-3.3-3.25-4.35-6-4.35c-2.55,0-5.5,0.7-5.5,3.3
		c0,3,4.5,3.601,8.45,4.5c4.25,0.95,8.451,2.4,8.451,7.351c0,6.2-5.75,8.15-11,8.15c-5.801,0-10.701-2.35-10.951-8.75H273.67z"/>
	<path fill="#333333" d="M327.521,224.171c-0.65-3.25-2.851-5.15-6.4-5.15c-6.15,0-8.051,4.9-8.051,10.101
		c0,4.8,2.15,9.45,7.551,9.45c4.15,0,6.55-2.35,7.1-6.3h4.351c-0.95,6.351-4.851,10.051-11.401,10.051
		c-7.9,0-12.101-5.45-12.101-13.201s4-13.851,12.201-13.851c5.9,0,10.5,2.75,11.15,8.9H327.521z"/>
	<path fill="#333333" d="M347.97,215.271c8.2,0,12.551,5.95,12.551,13.551c0,7.551-4.351,13.501-12.551,13.501
		c-8.201,0-12.551-5.95-12.551-13.501C335.419,221.221,339.77,215.271,347.97,215.271z M347.97,238.572c4.45,0,8.05-3.5,8.05-9.75
		s-3.6-9.8-8.05-9.8c-4.451,0-8.051,3.55-8.051,9.8S343.52,238.572,347.97,238.572z"/>
	<path fill="#333333" d="M386.92,241.722h-4v-4.1h-0.1c-1.8,3.2-4.65,4.7-8.401,4.7c-6.8,0-8.9-3.9-8.9-9.451v-17.001h4.25v17.501
		c0,3.2,2,5.2,5.25,5.2c5.15,0,7.65-3.45,7.65-8.1v-14.601h4.25V241.722z"/>
	<path fill="#333333" d="M393.169,215.871h4v5.45h0.1c2.05-4.2,4.9-6.2,9.5-6.05v4.5c-6.85,0-9.351,3.85-9.351,10.451v11.5h-4.25
		V215.871z"/>
	<path fill="#333333" d="M412.568,233.572c0.15,3.8,3.5,5,6.951,5c2.65,0,6.25-0.6,6.25-3.85c0-6.65-16.901-2.15-16.901-12.101
		c0-5.2,5.101-7.351,9.65-7.351c5.801,0,10.201,1.8,10.601,8.101h-4.25c-0.25-3.3-3.25-4.35-6-4.35c-2.55,0-5.5,0.7-5.5,3.3
		c0,3,4.5,3.601,8.45,4.5c4.25,0.95,8.451,2.4,8.451,7.351c0,6.2-5.75,8.15-11,8.15c-5.801,0-10.701-2.35-10.951-8.75H412.568z"/>
	<path fill="#333333" d="M457.02,233.521c-1.15,5.75-5.2,8.801-11.051,8.801c-8.25,0-12.15-5.75-12.4-13.601
		c0-7.8,5.1-13.451,12.15-13.451c9.151,0,11.951,8.551,11.701,14.801h-19.351c-0.15,4.5,2.4,8.5,8.051,8.5
		c3.55,0,5.95-1.65,6.7-5.05H457.02z M452.919,226.321c-0.25-4.05-3.2-7.3-7.451-7.3c-4.4,0-7.15,3.3-7.4,7.3H452.919z"/>
	<path fill="#333333" d="M501.319,241.722h-4.5l-5.25-20.551h-0.1l-5.2,20.551h-4.601l-8.3-25.852h4.7l5.851,21.151h0.1
		l5.201-21.151h4.65l5.4,21.151h0.1l5.8-21.151h4.4L501.319,241.722z"/>
	<path fill="#333333" d="M518.118,211.22h-4.25v-5.2h4.25V211.22z M513.867,215.871h4.25v25.852h-4.25V215.871z"/>
	<path fill="#333333" d="M524.966,206.02h4.25v35.702h-4.25V206.02z"/>
	<path fill="#333333" d="M536.065,206.02h4.25v35.702h-4.25V206.02z"/>
	<path fill="#333333" d="M578.366,224.171c-0.65-3.25-2.851-5.15-6.4-5.15c-6.15,0-8.051,4.9-8.051,10.101
		c0,4.8,2.15,9.45,7.551,9.45c4.15,0,6.55-2.35,7.1-6.3h4.351c-0.95,6.351-4.851,10.051-11.401,10.051
		c-7.9,0-12.101-5.45-12.101-13.201s4-13.851,12.201-13.851c5.9,0,10.5,2.75,11.15,8.9H578.366z"/>
	<path fill="#333333" d="M598.815,215.271c8.2,0,12.551,5.95,12.551,13.551c0,7.551-4.351,13.501-12.551,13.501
		c-8.201,0-12.551-5.95-12.551-13.501C586.264,221.221,590.614,215.271,598.815,215.271z M598.815,238.572
		c4.45,0,8.05-3.5,8.05-9.75s-3.6-9.8-8.05-9.8c-4.451,0-8.051,3.55-8.051,9.8S594.364,238.572,598.815,238.572z"/>
	<path fill="#333333" d="M628.015,241.722h-4.55l-9.601-25.852h4.75l7.25,21.551h0.1l7.05-21.551h4.45L628.015,241.722z"/>
	<path fill="#333333" d="M663.415,233.521c-1.15,5.75-5.2,8.801-11.051,8.801c-8.25,0-12.15-5.75-12.4-13.601
		c0-7.8,5.1-13.451,12.15-13.451c9.151,0,11.951,8.551,11.701,14.801h-19.351c-0.15,4.5,2.4,8.5,8.051,8.5
		c3.55,0,5.95-1.65,6.7-5.05H663.415z M659.315,226.321c-0.25-4.05-3.2-7.3-7.451-7.3c-4.4,0-7.15,3.3-7.4,7.3H659.315z"/>
	<path fill="#333333" d="M668.063,215.871h4v5.45h0.1c2.05-4.2,4.9-6.2,9.5-6.05v4.5c-6.85,0-9.351,3.85-9.351,10.451v11.5h-4.25
		V215.871z"/>
	<path fill="#333333" d="M721.664,241.622c-0.75,0.45-1.8,0.7-3.05,0.7c-2.2,0-3.6-1.2-3.6-4c-2.35,2.8-5.5,4-9.101,4
		c-4.7,0-8.55-2.05-8.55-7.25c0-5.851,4.35-7.15,8.75-7.951c4.65-0.95,8.7-0.55,8.7-3.8c0-3.75-3.1-4.3-5.75-4.3
		c-3.601,0-6.25,1.1-6.451,4.9h-4.25c0.25-6.4,5.15-8.65,10.951-8.65c4.65,0,9.701,1.05,9.701,7.101v13.301c0,2,0,2.9,1.35,2.9
		c0.4,0,0.85-0.1,1.3-0.25V241.622z M714.763,228.372c-3.3,2.45-12.901,0.05-12.901,6.4c0,2.8,2.4,3.8,5,3.8
		c5.6,0,7.9-3.45,7.9-5.85V228.372z"/>
	<path fill="#333333" d="M725.611,215.871h4v4.1h0.1c1.8-3.2,4.65-4.7,8.401-4.7c6.8,0,8.9,3.9,8.9,9.451v17.001h-4.25v-17.501
		c0-3.2-2-5.2-5.25-5.2c-5.15,0-7.65,3.45-7.65,8.1v14.601h-4.25V215.871z"/>
	<path fill="#333333" d="M763.562,245.172c-2,5-3.7,6.9-7.5,6.9c-1,0-2-0.1-2.95-0.45v-3.9c0.8,0.25,1.65,0.6,2.5,0.6
		c1.75,0,2.7-0.8,3.5-2.35l1.75-4.4l-10.251-25.702h4.8l7.551,21.151h0.1l7.25-21.151h4.5L763.562,245.172z"/>
	<path fill="#333333" d="M793.011,206.02h12.25c11.001,0,17.151,5.55,17.151,17.001c0,11.951-5.25,18.701-17.151,18.701h-12.25
		V206.02z M797.761,237.722h7.9c3.25,0,12.001-0.9,12.001-14.051c0-8.5-3.15-13.651-11.901-13.651h-8V237.722z"/>
	<path fill="#333333" d="M849.562,233.521c-1.15,5.75-5.2,8.801-11.051,8.801c-8.25,0-12.15-5.75-12.4-13.601
		c0-7.8,5.1-13.451,12.15-13.451c9.151,0,11.951,8.551,11.701,14.801h-19.351c-0.15,4.5,2.4,8.5,8.051,8.5
		c3.55,0,5.95-1.65,6.7-5.05H849.562z M845.462,226.321c-0.25-4.05-3.2-7.3-7.451-7.3c-4.4,0-7.15,3.3-7.4,7.3H845.462z"/>
	<path fill="#333333" d="M856.96,233.572c0.15,3.8,3.5,5,6.951,5c2.65,0,6.25-0.6,6.25-3.85c0-6.65-16.901-2.15-16.901-12.101
		c0-5.2,5.1-7.351,9.65-7.351c5.801,0,10.201,1.8,10.601,8.101h-4.25c-0.25-3.3-3.25-4.35-6-4.35c-2.55,0-5.5,0.7-5.5,3.3
		c0,3,4.5,3.601,8.45,4.5c4.25,0.95,8.451,2.4,8.451,7.351c0,6.2-5.75,8.15-11,8.15c-5.801,0-10.701-2.35-10.951-8.75H856.96z"/>
	<path fill="#333333" d="M883.861,211.22h-4.25v-5.2h4.25V211.22z M879.61,215.871h4.25v25.852h-4.25V215.871z"/>
	<path fill="#333333" d="M912.761,239.522c0,8.451-3.8,12.701-12,12.701c-4.851,0-10.451-2-10.701-7.6h4.25
		c0.15,3.05,3.95,4.2,6.701,4.2c5.55,0,7.75-4,7.75-9.801v-1.7h-0.1c-1.45,3.15-4.75,4.7-8.051,4.7c-7.7,0-11.55-6.05-11.55-13.101
		c0-6.101,2.95-13.651,11.951-13.651c3.25,0,6.15,1.45,7.7,4.3h0.05v-3.7h4V239.522z M908.561,228.271c0-4.55-2-9.25-7.351-9.25
		c-5.45,0-7.65,4.45-7.65,9.4c0,4.65,1.7,9.851,7.301,9.851C906.46,238.272,908.561,233.122,908.561,228.271z"/>
	<path fill="#333333" d="M919.159,215.871h4v4.1h0.1c1.8-3.2,4.65-4.7,8.401-4.7c6.8,0,8.9,3.9,8.9,9.451v17.001h-4.25v-17.501
		c0-3.2-2-5.2-5.25-5.2c-5.15,0-7.65,3.45-7.65,8.1v14.601h-4.25V215.871z"/>
	<path fill="#333333" d="M986.661,216.771c-1.05-5.05-5-7.6-10.001-7.6c-8.5,0-12.101,7-12.101,14.451
		c0,8.15,3.601,14.951,12.15,14.951c6.201,0,9.901-4.4,10.301-10.3h4.751c-0.95,8.95-6.4,14.301-15.451,14.301
		c-11.051,0-16.501-8.201-16.501-18.601c0-10.401,5.9-18.801,16.9-18.801c7.451,0,13.651,4,14.701,11.601H986.661z"/>
	<path fill="#333333" d="M996.959,206.02h4.25v13.651h0.101c1.35-3.15,5.1-4.4,8.15-4.4c6.8,0,8.9,3.9,8.9,9.451v17.001h-4.25
		v-17.501c0-3.2-2-5.2-5.251-5.2c-5.15,0-7.65,3.45-7.65,8.1v14.601h-4.25V206.02z"/>
	<path fill="#333333" d="M1047.66,241.622c-0.75,0.45-1.8,0.7-3.05,0.7c-2.2,0-3.601-1.2-3.601-4c-2.351,2.8-5.5,4-9.101,4
		c-4.7,0-8.551-2.05-8.551-7.25c0-5.851,4.351-7.15,8.751-7.951c4.65-0.95,8.7-0.55,8.7-3.8c0-3.75-3.1-4.3-5.75-4.3
		c-3.601,0-6.251,1.1-6.45,4.9h-4.251c0.25-6.4,5.15-8.65,10.951-8.65c4.65,0,9.7,1.05,9.7,7.101v13.301c0,2,0,2.9,1.351,2.9
		c0.399,0,0.85-0.1,1.3-0.25V241.622z M1040.76,228.372c-3.3,2.45-12.9,0.05-12.9,6.4c0,2.8,2.399,3.8,5,3.8
		c5.601,0,7.9-3.45,7.9-5.85V228.372z"/>
	<path fill="#333333" d="M1051.608,215.871h4v4.1h0.101c1.8-3.2,4.65-4.7,8.4-4.7c6.8,0,8.9,3.9,8.9,9.451v17.001h-4.25v-17.501
		c0-3.2-2-5.2-5.251-5.2c-5.15,0-7.65,3.45-7.65,8.1v14.601h-4.25V215.871z"/>
	<path fill="#333333" d="M1101.71,239.522c0,8.451-3.801,12.701-12.001,12.701c-4.851,0-10.451-2-10.701-7.6h4.251
		c0.149,3.05,3.95,4.2,6.7,4.2c5.55,0,7.75-4,7.75-9.801v-1.7h-0.1c-1.45,3.15-4.75,4.7-8.051,4.7c-7.7,0-11.551-6.05-11.551-13.101
		c0-6.101,2.95-13.651,11.951-13.651c3.25,0,6.15,1.45,7.7,4.3h0.05v-3.7h4.001V239.522z M1097.51,228.271
		c0-4.55-2.001-9.25-7.351-9.25c-5.45,0-7.65,4.45-7.65,9.4c0,4.65,1.699,9.851,7.3,9.851S1097.51,233.122,1097.51,228.271z"/>
	<path fill="#333333" d="M1130.159,233.521c-1.15,5.75-5.201,8.801-11.051,8.801c-8.251,0-12.151-5.75-12.401-13.601
		c0-7.8,5.101-13.451,12.151-13.451c9.15,0,11.95,8.551,11.7,14.801h-19.351c-0.15,4.5,2.399,8.5,8.05,8.5
		c3.551,0,5.95-1.65,6.701-5.05H1130.159z M1126.059,226.321c-0.25-4.05-3.2-7.3-7.45-7.3c-4.4,0-7.15,3.3-7.4,7.3H1126.059z"/>
	<path fill="#333333" d="M1137.558,233.572c0.149,3.8,3.5,5,6.95,5c2.65,0,6.25-0.6,6.25-3.85c0-6.65-16.9-2.15-16.9-12.101
		c0-5.2,5.1-7.351,9.65-7.351c5.8,0,10.2,1.8,10.601,8.101h-4.25c-0.25-3.3-3.251-4.35-6.001-4.35c-2.55,0-5.5,0.7-5.5,3.3
		c0,3,4.5,3.601,8.45,4.5c4.25,0.95,8.45,2.4,8.45,7.351c0,6.2-5.75,8.15-11,8.15c-5.801,0-10.701-2.35-10.951-8.75H1137.558z"/>
	<path fill="#333333" d="M1175.607,219.621h-4.351v-3.75h4.351v-3.85c0-4.2,2.5-6.4,7.15-6.4c0.8,0,1.95,0.15,2.75,0.4v3.7
		c-0.75-0.25-1.649-0.35-2.399-0.35c-2.051,0-3.251,0.65-3.251,2.9v3.6h5.001v3.75h-5.001v22.102h-4.25V219.621z"/>
	<path fill="#333333" d="M1199.808,215.271c8.201,0,12.551,5.95,12.551,13.551c0,7.551-4.35,13.501-12.551,13.501
		c-8.2,0-12.551-5.95-12.551-13.501C1187.257,221.221,1191.607,215.271,1199.808,215.271z M1199.808,238.572
		c4.45,0,8.051-3.5,8.051-9.75s-3.601-9.8-8.051-9.8s-8.05,3.55-8.05,9.8S1195.357,238.572,1199.808,238.572z"/>
	<path fill="#333333" d="M1217.206,215.871h4.001v5.45h0.1c2.05-4.2,4.9-6.2,9.501-6.05v4.5c-6.851,0-9.351,3.85-9.351,10.451v11.5
		h-4.251V215.871z"/>
	<path fill="#333333" d="M1263.707,205.17c11.351,0,17.102,8.951,17.102,18.701s-5.751,18.701-17.102,18.701
		s-17.101-8.951-17.101-18.701S1252.356,205.17,1263.707,205.17z M1263.707,238.572c8.701,0,12.351-7.5,12.351-14.701
		c0-7.201-3.649-14.701-12.351-14.701c-8.7,0-12.351,7.5-12.351,14.701C1251.356,231.071,1255.007,238.572,1263.707,238.572z"/>
	<path fill="#333333" d="M1287.656,219.621h-4.351v-3.75h4.351v-3.85c0-4.2,2.5-6.4,7.15-6.4c0.8,0,1.95,0.15,2.75,0.4v3.7
		c-0.75-0.25-1.649-0.35-2.399-0.35c-2.051,0-3.251,0.65-3.251,2.9v3.6h5.001v3.75h-5.001v22.102h-4.25V219.621z"/>
	<path fill="#333333" d="M1302.456,219.621h-4.351v-3.75h4.351v-3.85c0-4.2,2.5-6.4,7.15-6.4c0.8,0,1.95,0.15,2.75,0.4v3.7
		c-0.75-0.25-1.649-0.35-2.399-0.35c-2.051,0-3.251,0.65-3.251,2.9v3.6h5.001v3.75h-5.001v22.102h-4.25V219.621z"/>
	<path fill="#333333" d="M1337.558,233.521c-1.15,5.75-5.201,8.801-11.051,8.801c-8.251,0-12.151-5.75-12.401-13.601
		c0-7.8,5.101-13.451,12.151-13.451c9.15,0,11.95,8.551,11.7,14.801h-19.351c-0.15,4.5,2.399,8.5,8.05,8.5
		c3.551,0,5.95-1.65,6.701-5.05H1337.558z M1333.457,226.321c-0.25-4.05-3.2-7.3-7.45-7.3c-4.4,0-7.15,3.3-7.4,7.3H1333.457z"/>
	<path fill="#333333" d="M1342.205,215.871h4.001v5.45h0.1c2.05-4.2,4.9-6.2,9.501-6.05v4.5c-6.851,0-9.351,3.85-9.351,10.451v11.5
		h-4.251V215.871z"/>
	<path fill="#333333" d="M1363.505,211.22h-4.25v-5.2h4.25V211.22z M1359.255,215.871h4.25v25.852h-4.25V215.871z"/>
	<path fill="#333333" d="M1370.104,215.871h4v4.1h0.101c1.8-3.2,4.65-4.7,8.4-4.7c6.8,0,8.9,3.9,8.9,9.451v17.001h-4.25v-17.501
		c0-3.2-2-5.2-5.251-5.2c-5.15,0-7.65,3.45-7.65,8.1v14.601h-4.25V215.871z"/>
	<path fill="#333333" d="M1420.206,239.522c0,8.451-3.801,12.701-12.001,12.701c-4.851,0-10.451-2-10.701-7.6h4.251
		c0.149,3.05,3.95,4.2,6.7,4.2c5.55,0,7.75-4,7.75-9.801v-1.7h-0.1c-1.45,3.15-4.75,4.7-8.051,4.7c-7.7,0-11.551-6.05-11.551-13.101
		c0-6.101,2.95-13.651,11.951-13.651c3.25,0,6.15,1.45,7.7,4.3h0.05v-3.7h4.001V239.522z M1416.006,228.271
		c0-4.55-2.001-9.25-7.351-9.25c-5.45,0-7.65,4.45-7.65,9.4c0,4.65,1.699,9.851,7.3,9.851S1416.006,233.122,1416.006,228.271z"/>
	<path fill="#333333" d="M1429.204,233.572c0.149,3.8,3.5,5,6.95,5c2.65,0,6.25-0.6,6.25-3.85c0-6.65-16.9-2.15-16.9-12.101
		c0-5.2,5.1-7.351,9.65-7.351c5.8,0,10.2,1.8,10.601,8.101h-4.25c-0.25-3.3-3.251-4.35-6.001-4.35c-2.55,0-5.5,0.7-5.5,3.3
		c0,3,4.5,3.601,8.45,4.5c4.25,0.95,8.45,2.4,8.45,7.351c0,6.2-5.75,8.15-11,8.15c-5.801,0-10.701-2.35-10.951-8.75H1429.204z"/>
	<path fill="#333333" d="M1471.404,215.871h5.15v3.75h-5.15v16.051c0,2,0.55,2.3,3.2,2.3h1.95v3.75h-3.25c-4.4,0-6.15-0.9-6.15-5.65
		v-16.451h-4.4v-3.75h4.4v-7.75h4.25V215.871z"/>
	<path fill="#333333" d="M1481.253,206.02h4.25v13.651h0.101c1.35-3.15,5.1-4.4,8.15-4.4c6.8,0,8.9,3.9,8.9,9.451v17.001h-4.25
		v-17.501c0-3.2-2-5.2-5.251-5.2c-5.15,0-7.65,3.45-7.65,8.1v14.601h-4.25V206.02z"/>
	<path fill="#333333" d="M1531.954,241.622c-0.75,0.45-1.8,0.7-3.05,0.7c-2.2,0-3.601-1.2-3.601-4c-2.351,2.8-5.5,4-9.101,4
		c-4.7,0-8.551-2.05-8.551-7.25c0-5.851,4.351-7.15,8.751-7.951c4.65-0.95,8.7-0.55,8.7-3.8c0-3.75-3.1-4.3-5.75-4.3
		c-3.601,0-6.251,1.1-6.45,4.9h-4.251c0.25-6.4,5.15-8.65,10.951-8.65c4.65,0,9.7,1.05,9.7,7.101v13.301c0,2,0,2.9,1.351,2.9
		c0.399,0,0.85-0.1,1.3-0.25V241.622z M1525.054,228.372c-3.3,2.45-12.9,0.05-12.9,6.4c0,2.8,2.399,3.8,5,3.8
		c5.601,0,7.9-3.45,7.9-5.85V228.372z"/>
	<path fill="#333333" d="M1541.803,215.871h5.15v3.75h-5.15v16.051c0,2,0.55,2.3,3.2,2.3h1.95v3.75h-3.25c-4.4,0-6.15-0.9-6.15-5.65
		v-16.451h-4.4v-3.75h4.4v-7.75h4.25V215.871z"/>
	<path fill="#333333" d="M1588.453,241.622c-0.75,0.45-1.8,0.7-3.05,0.7c-2.2,0-3.601-1.2-3.601-4c-2.351,2.8-5.5,4-9.101,4
		c-4.7,0-8.551-2.05-8.551-7.25c0-5.851,4.351-7.15,8.751-7.951c4.65-0.95,8.7-0.55,8.7-3.8c0-3.75-3.1-4.3-5.75-4.3
		c-3.601,0-6.251,1.1-6.45,4.9h-4.251c0.25-6.4,5.15-8.65,10.951-8.65c4.65,0,9.7,1.05,9.7,7.101v13.301c0,2,0,2.9,1.351,2.9
		c0.399,0,0.85-0.1,1.3-0.25V241.622z M1581.553,228.372c-3.3,2.45-12.9,0.05-12.9,6.4c0,2.8,2.399,3.8,5,3.8
		c5.601,0,7.9-3.45,7.9-5.85V228.372z"/>
	<path fill="#333333" d="M1592.251,215.871h4.001v5.45h0.1c2.05-4.2,4.9-6.2,9.501-6.05v4.5c-6.851,0-9.351,3.85-9.351,10.451v11.5
		h-4.251V215.871z"/>
	<path fill="#333333" d="M1631.103,233.521c-1.15,5.75-5.201,8.801-11.051,8.801c-8.251,0-12.151-5.75-12.401-13.601
		c0-7.8,5.101-13.451,12.151-13.451c9.15,0,11.95,8.551,11.7,14.801h-19.351c-0.15,4.5,2.399,8.5,8.05,8.5
		c3.551,0,5.95-1.65,6.701-5.05H1631.103z M1627.002,226.321c-0.25-4.05-3.2-7.3-7.45-7.3c-4.4,0-7.15,3.3-7.4,7.3H1627.002z"/>
	<path fill="#333333" d="M1655.701,215.871h5.15v3.75h-5.15v16.051c0,2,0.55,2.3,3.2,2.3h1.95v3.75h-3.25c-4.4,0-6.15-0.9-6.15-5.65
		v-16.451h-4.4v-3.75h4.4v-7.75h4.25V215.871z"/>
	<path fill="#333333" d="M1676.7,215.271c8.201,0,12.551,5.95,12.551,13.551c0,7.551-4.35,13.501-12.551,13.501
		c-8.2,0-12.551-5.95-12.551-13.501C1664.149,221.221,1668.5,215.271,1676.7,215.271z M1676.7,238.572c4.45,0,8.051-3.5,8.051-9.75
		s-3.601-9.8-8.051-9.8s-8.05,3.55-8.05,9.8S1672.25,238.572,1676.7,238.572z"/>
	<path fill="#333333" d="M1714.05,215.871h5.15v3.75h-5.15v16.051c0,2,0.55,2.3,3.2,2.3h1.95v3.75h-3.25c-4.4,0-6.15-0.9-6.15-5.65
		v-16.451h-4.4v-3.75h4.4v-7.75h4.25V215.871z"/>
	<path fill="#333333" d="M1746.8,241.622c-0.75,0.45-1.8,0.7-3.05,0.7c-2.2,0-3.601-1.2-3.601-4c-2.351,2.8-5.5,4-9.101,4
		c-4.7,0-8.551-2.05-8.551-7.25c0-5.851,4.351-7.15,8.751-7.951c4.65-0.95,8.7-0.55,8.7-3.8c0-3.75-3.1-4.3-5.75-4.3
		c-3.601,0-6.251,1.1-6.45,4.9h-4.251c0.25-6.4,5.15-8.65,10.951-8.65c4.65,0,9.7,1.05,9.7,7.101v13.301c0,2,0,2.9,1.351,2.9
		c0.399,0,0.85-0.1,1.3-0.25V241.622z M1739.899,228.372c-3.3,2.45-12.9,0.05-12.9,6.4c0,2.8,2.399,3.8,5,3.8
		c5.601,0,7.9-3.45,7.9-5.85V228.372z"/>
	<path fill="#333333" d="M1750.998,206.02h4.25v21.151l11.801-11.301h5.7l-10.25,9.4l11,16.451h-5.4l-8.85-13.501l-4.001,3.7v9.801
		h-4.25V206.02z"/>
	<path fill="#333333" d="M1798.75,233.521c-1.15,5.75-5.201,8.801-11.051,8.801c-8.251,0-12.151-5.75-12.401-13.601
		c0-7.8,5.101-13.451,12.151-13.451c9.15,0,11.95,8.551,11.7,14.801h-19.351c-0.15,4.5,2.399,8.5,8.05,8.5
		c3.551,0,5.95-1.65,6.701-5.05H1798.75z M1794.649,226.321c-0.25-4.05-3.2-7.3-7.45-7.3c-4.4,0-7.15,3.3-7.4,7.3H1794.649z"/>
	<path fill="#333333" d="M203.621,275.871h4.25v3.5h0.1c1.4-2.85,4.65-4.1,8.25-4.1c7.95,0,11.9,6.3,11.9,13.601
		c0,7.35-3.9,13.451-11.801,13.451c-2.6,0-6.5-1-8.35-4.05h-0.1v13.351h-4.25V275.871z M215.622,279.021c-5.75,0-7.9,4.95-7.9,9.75
		c0,5.05,2.3,9.8,8.15,9.8c5.8,0,7.75-4.95,7.75-10C223.623,283.721,221.122,279.021,215.622,279.021z"/>
	<path fill="#333333" d="M233.371,266.02h4.25v35.702h-4.25V266.02z"/>
	<path fill="#333333" d="M267.121,301.622c-0.75,0.45-1.8,0.7-3.05,0.7c-2.2,0-3.6-1.2-3.6-4c-2.35,2.8-5.5,4-9.101,4
		c-4.7,0-8.55-2.05-8.55-7.25c0-5.851,4.35-7.15,8.75-7.951c4.65-0.95,8.7-0.55,8.7-3.8c0-3.75-3.1-4.3-5.75-4.3
		c-3.601,0-6.25,1.1-6.451,4.9h-4.25c0.25-6.4,5.15-8.65,10.951-8.65c4.65,0,9.701,1.05,9.701,7.101v13.301c0,2,0,2.9,1.35,2.9
		c0.4,0,0.85-0.1,1.3-0.25V301.622z M260.221,288.372c-3.3,2.45-12.901,0.05-12.901,6.4c0,2.8,2.4,3.8,5,3.8
		c5.6,0,7.9-3.45,7.9-5.85V288.372z"/>
	<path fill="#333333" d="M288.621,284.171c-0.65-3.25-2.851-5.15-6.4-5.15c-6.15,0-8.051,4.9-8.051,10.101
		c0,4.8,2.15,9.45,7.551,9.45c4.15,0,6.55-2.35,7.1-6.3h4.351c-0.95,6.351-4.851,10.051-11.401,10.051
		c-7.9,0-12.101-5.45-12.101-13.201s4-13.851,12.201-13.851c5.9,0,10.5,2.75,11.15,8.9H288.621z"/>
	<path fill="#333333" d="M319.97,293.521c-1.15,5.75-5.2,8.801-11.051,8.801c-8.25,0-12.15-5.75-12.4-13.601
		c0-7.8,5.1-13.451,12.15-13.451c9.151,0,11.951,8.551,11.701,14.801h-19.351c-0.15,4.5,2.4,8.5,8.051,8.5
		c3.55,0,5.95-1.65,6.7-5.05H319.97z M315.87,286.321c-0.25-4.05-3.2-7.3-7.451-7.3c-4.4,0-7.15,3.3-7.4,7.3H315.87z"/>
	<path fill="#333333" d="M349.819,275.271c8.2,0,12.551,5.95,12.551,13.551c0,7.551-4.351,13.501-12.551,13.501
		c-8.201,0-12.551-5.95-12.551-13.501C337.269,281.221,341.619,275.271,349.819,275.271z M349.819,298.572
		c4.45,0,8.05-3.5,8.05-9.75s-3.6-9.8-8.05-9.8c-4.451,0-8.051,3.55-8.051,9.8S345.369,298.572,349.819,298.572z"/>
	<path fill="#333333" d="M367.368,275.871h4v4.1h0.1c1.8-3.2,4.65-4.7,8.401-4.7c6.8,0,8.9,3.9,8.9,9.451v17.001h-4.25v-17.501
		c0-3.2-2-5.2-5.25-5.2c-5.15,0-7.65,3.45-7.65,8.1v14.601h-4.25V275.871z"/>
	<path fill="#333333" d="M412.719,284.171c-0.65-3.25-2.851-5.15-6.4-5.15c-6.15,0-8.051,4.9-8.051,10.101
		c0,4.8,2.15,9.45,7.551,9.45c4.15,0,6.55-2.35,7.1-6.3h4.351c-0.95,6.351-4.851,10.051-11.401,10.051
		c-7.9,0-12.101-5.45-12.101-13.201s4-13.851,12.201-13.851c5.9,0,10.5,2.75,11.15,8.9H412.719z"/>
	<path fill="#333333" d="M444.069,293.521c-1.15,5.75-5.2,8.801-11.051,8.801c-8.25,0-12.15-5.75-12.4-13.601
		c0-7.8,5.1-13.451,12.15-13.451c9.151,0,11.951,8.551,11.701,14.801h-19.351c-0.15,4.5,2.4,8.5,8.051,8.5
		c3.55,0,5.95-1.65,6.7-5.05H444.069z M439.969,286.321c-0.25-4.05-3.2-7.3-7.451-7.3c-4.4,0-7.15,3.3-7.4,7.3H439.969z"/>
	<path fill="#333333" d="M468.667,275.871h5.15v3.75h-5.15v16.051c0,2,0.55,2.3,3.2,2.3h1.95v3.75h-3.25c-4.4,0-6.15-0.9-6.15-5.65
		v-16.451h-4.4v-3.75h4.4v-7.75h4.25V275.871z"/>
	<path fill="#333333" d="M478.517,266.02h4.25v13.651h0.1c1.35-3.15,5.101-4.4,8.151-4.4c6.8,0,8.9,3.9,8.9,9.451v17.001h-4.25
		v-17.501c0-3.2-2-5.2-5.25-5.2c-5.15,0-7.65,3.45-7.65,8.1v14.601h-4.25V266.02z"/>
	<path fill="#333333" d="M528.368,293.521c-1.15,5.75-5.2,8.801-11.051,8.801c-8.25,0-12.15-5.75-12.4-13.601
		c0-7.8,5.1-13.451,12.15-13.451c9.151,0,11.951,8.551,11.701,14.801h-19.351c-0.15,4.5,2.4,8.5,8.051,8.5
		c3.55,0,5.95-1.65,6.7-5.05H528.368z M524.268,286.321c-0.25-4.05-3.2-7.3-7.451-7.3c-4.4,0-7.15,3.3-7.4,7.3H524.268z"/>
	<path fill="#333333" d="M570.167,301.722h-4.25v-3.5h-0.1c-1.4,2.85-4.65,4.1-8.25,4.1c-7.95,0-11.9-6.3-11.9-13.601
		c0-7.3,3.9-13.451,11.801-13.451c2.6,0,6.5,1,8.35,4.05h0.1V266.02h4.25V301.722z M558.167,298.572c5.75,0,7.9-4.95,7.9-9.75
		c0-5.05-2.3-9.8-8.15-9.8c-5.8,0-7.75,4.95-7.75,10C550.166,293.872,552.666,298.572,558.167,298.572z"/>
	<path fill="#333333" d="M598.767,293.521c-1.15,5.75-5.2,8.801-11.051,8.801c-8.25,0-12.15-5.75-12.4-13.601
		c0-7.8,5.1-13.451,12.15-13.451c9.151,0,11.951,8.551,11.701,14.801h-19.351c-0.15,4.5,2.4,8.5,8.051,8.5
		c3.55,0,5.95-1.65,6.7-5.05H598.767z M594.667,286.321c-0.25-4.05-3.2-7.3-7.451-7.3c-4.4,0-7.15,3.3-7.4,7.3H594.667z"/>
	<path fill="#333333" d="M606.165,293.572c0.15,3.8,3.5,5,6.951,5c2.65,0,6.25-0.6,6.25-3.85c0-6.65-16.901-2.15-16.901-12.101
		c0-5.2,5.1-7.351,9.65-7.351c5.801,0,10.201,1.8,10.601,8.101h-4.25c-0.25-3.3-3.25-4.35-6-4.35c-2.55,0-5.5,0.7-5.5,3.3
		c0,3,4.5,3.601,8.45,4.5c4.25,0.95,8.451,2.4,8.451,7.351c0,6.2-5.75,8.15-11,8.15c-5.801,0-10.701-2.35-10.951-8.75H606.165z"/>
	<path fill="#333333" d="M633.065,271.22h-4.25v-5.2h4.25V271.22z M628.814,275.871h4.25v25.852h-4.25V275.871z"/>
	<path fill="#333333" d="M661.965,299.522c0,8.451-3.8,12.701-12,12.701c-4.851,0-10.451-2-10.701-7.6h4.25
		c0.15,3.05,3.95,4.2,6.701,4.2c5.55,0,7.75-4,7.75-9.801v-1.7h-0.1c-1.45,3.15-4.75,4.7-8.051,4.7c-7.7,0-11.55-6.05-11.55-13.101
		c0-6.101,2.95-13.651,11.951-13.651c3.25,0,6.15,1.45,7.7,4.3h0.05v-3.7h4V299.522z M657.765,288.271c0-4.55-2-9.25-7.351-9.25
		c-5.45,0-7.65,4.45-7.65,9.4c0,4.65,1.7,9.851,7.301,9.851C655.665,298.272,657.765,293.122,657.765,288.271z"/>
	<path fill="#333333" d="M668.363,275.871h4v4.1h0.1c1.8-3.2,4.65-4.7,8.401-4.7c6.8,0,8.9,3.9,8.9,9.451v17.001h-4.25v-17.501
		c0-3.2-2-5.2-5.25-5.2c-5.15,0-7.65,3.45-7.65,8.1v14.601h-4.25V275.871z"/>
	<path fill="#333333" d="M698.763,293.572c0.15,3.8,3.5,5,6.951,5c2.65,0,6.25-0.6,6.25-3.85c0-6.65-16.901-2.15-16.901-12.101
		c0-5.2,5.1-7.351,9.65-7.351c5.801,0,10.201,1.8,10.601,8.101h-4.25c-0.25-3.3-3.25-4.35-6-4.35c-2.55,0-5.5,0.7-5.5,3.3
		c0,3,4.5,3.601,8.45,4.5c4.25,0.95,8.451,2.4,8.451,7.351c0,6.2-5.75,8.15-11,8.15c-5.801,0-10.701-2.35-10.951-8.75H698.763z"/>
	<path fill="#333333" d="M735.063,266.02h4.25v13.651h0.1c1.35-3.15,5.101-4.4,8.151-4.4c6.8,0,8.9,3.9,8.9,9.451v17.001h-4.25
		v-17.501c0-3.2-2-5.2-5.25-5.2c-5.15,0-7.65,3.45-7.65,8.1v14.601h-4.25V266.02z"/>
	<path fill="#333333" d="M785.764,301.622c-0.75,0.45-1.8,0.7-3.05,0.7c-2.2,0-3.6-1.2-3.6-4c-2.35,2.8-5.5,4-9.101,4
		c-4.7,0-8.55-2.05-8.55-7.25c0-5.851,4.35-7.15,8.75-7.951c4.65-0.95,8.7-0.55,8.7-3.8c0-3.75-3.1-4.3-5.75-4.3
		c-3.601,0-6.25,1.1-6.451,4.9h-4.25c0.25-6.4,5.15-8.65,10.951-8.65c4.65,0,9.701,1.05,9.701,7.101v13.301c0,2,0,2.9,1.35,2.9
		c0.4,0,0.85-0.1,1.3-0.25V301.622z M778.864,288.372c-3.3,2.45-12.901,0.05-12.901,6.4c0,2.8,2.4,3.8,5,3.8
		c5.6,0,7.9-3.45,7.9-5.85V288.372z"/>
	<path fill="#333333" d="M801.363,301.722h-4.55l-9.601-25.852h4.75l7.25,21.551h0.1l7.05-21.551h4.45L801.363,301.722z"/>
	<path fill="#333333" d="M836.763,293.521c-1.15,5.75-5.2,8.801-11.051,8.801c-8.25,0-12.15-5.75-12.4-13.601
		c0-7.8,5.1-13.451,12.15-13.451c9.151,0,11.951,8.551,11.701,14.801h-19.351c-0.15,4.5,2.4,8.5,8.051,8.5
		c3.55,0,5.95-1.65,6.7-5.05H836.763z M832.663,286.321c-0.25-4.05-3.2-7.3-7.451-7.3c-4.4,0-7.15,3.3-7.4,7.3H832.663z"/>
	<path fill="#333333" d="M855.611,266.02h4.25v13.351h0.1c1.4-2.85,4.65-4.1,8.25-4.1c7.95,0,11.9,6.3,11.9,13.601
		c0,7.35-3.9,13.451-11.801,13.451c-2.6,0-6.5-1-8.35-4.05h-0.1v3.45h-4.25V266.02z M867.612,279.021c-5.75,0-7.9,4.95-7.9,9.75
		c0,5.05,2.3,9.8,8.15,9.8c5.8,0,7.75-4.95,7.75-10C875.613,283.721,873.112,279.021,867.612,279.021z"/>
	<path fill="#333333" d="M907.162,293.521c-1.15,5.75-5.2,8.801-11.051,8.801c-8.25,0-12.15-5.75-12.4-13.601
		c0-7.8,5.1-13.451,12.15-13.451c9.151,0,11.951,8.551,11.701,14.801h-19.351c-0.15,4.5,2.4,8.5,8.051,8.5
		c3.55,0,5.95-1.65,6.7-5.05H907.162z M903.062,286.321c-0.25-4.05-3.2-7.3-7.451-7.3c-4.4,0-7.15,3.3-7.4,7.3H903.062z"/>
	<path fill="#333333" d="M934.011,293.521c-1.15,5.75-5.2,8.801-11.051,8.801c-8.25,0-12.15-5.75-12.4-13.601
		c0-7.8,5.1-13.451,12.15-13.451c9.151,0,11.951,8.551,11.701,14.801H915.06c-0.15,4.5,2.4,8.5,8.051,8.5c3.55,0,5.95-1.65,6.7-5.05
		H934.011z M929.911,286.321c-0.25-4.05-3.2-7.3-7.451-7.3c-4.4,0-7.15,3.3-7.4,7.3H929.911z"/>
	<path fill="#333333" d="M938.81,275.871h4v4.1h0.101c1.8-3.2,4.65-4.7,8.4-4.7c6.8,0,8.9,3.9,8.9,9.451v17.001h-4.25v-17.501
		c0-3.2-2-5.2-5.251-5.2c-5.15,0-7.65,3.45-7.65,8.1v14.601h-4.25V275.871z"/>
	<path fill="#333333" d="M1003.411,301.622c-0.75,0.45-1.8,0.7-3.05,0.7c-2.2,0-3.601-1.2-3.601-4c-2.351,2.8-5.5,4-9.101,4
		c-4.7,0-8.551-2.05-8.551-7.25c0-5.851,4.351-7.15,8.751-7.951c4.65-0.95,8.7-0.55,8.7-3.8c0-3.75-3.1-4.3-5.75-4.3
		c-3.601,0-6.251,1.1-6.45,4.9h-4.251c0.25-6.4,5.15-8.65,10.951-8.65c4.65,0,9.7,1.05,9.7,7.101v13.301c0,2,0,2.9,1.351,2.9
		c0.399,0,0.85-0.1,1.3-0.25V301.622z M996.511,288.372c-3.3,2.45-12.9,0.05-12.9,6.4c0,2.8,2.399,3.8,5,3.8
		c5.601,0,7.9-3.45,7.9-5.85V288.372z"/>
	<path fill="#333333" d="M1007.51,275.871h4.25v3.5h0.1c1.4-2.85,4.65-4.1,8.251-4.1c7.95,0,11.9,6.3,11.9,13.601
		c0,7.35-3.9,13.451-11.801,13.451c-2.6,0-6.5-1-8.351-4.05h-0.1v13.351h-4.25V275.871z M1019.51,279.021c-5.75,0-7.9,4.95-7.9,9.75
		c0,5.05,2.301,9.8,8.15,9.8c5.801,0,7.751-4.95,7.751-10C1027.511,283.721,1025.011,279.021,1019.51,279.021z"/>
	<path fill="#333333" d="M1037.159,275.871h4.25v3.5h0.1c1.4-2.85,4.65-4.1,8.251-4.1c7.95,0,11.9,6.3,11.9,13.601
		c0,7.35-3.9,13.451-11.801,13.451c-2.6,0-6.5-1-8.351-4.05h-0.1v13.351h-4.25V275.871z M1049.159,279.021
		c-5.75,0-7.9,4.95-7.9,9.75c0,5.05,2.301,9.8,8.15,9.8c5.801,0,7.751-4.95,7.751-10
		C1057.16,283.721,1054.66,279.021,1049.159,279.021z"/>
	<path fill="#333333" d="M1066.508,275.871h4.001v5.45h0.1c2.05-4.2,4.9-6.2,9.501-6.05v4.5c-6.851,0-9.351,3.85-9.351,10.451v11.5
		h-4.251V275.871z"/>
	<path fill="#333333" d="M1094.458,275.271c8.201,0,12.551,5.95,12.551,13.551c0,7.551-4.35,13.501-12.551,13.501
		c-8.2,0-12.551-5.95-12.551-13.501C1081.907,281.221,1086.258,275.271,1094.458,275.271z M1094.458,298.572
		c4.45,0,8.051-3.5,8.051-9.75s-3.601-9.8-8.051-9.8s-8.05,3.55-8.05,9.8S1090.008,298.572,1094.458,298.572z"/>
	<path fill="#333333" d="M1123.657,301.722h-4.55l-9.601-25.852h4.75l7.251,21.551h0.1l7.051-21.551h4.45L1123.657,301.722z"/>
	<path fill="#333333" d="M1159.059,293.521c-1.15,5.75-5.201,8.801-11.051,8.801c-8.251,0-12.151-5.75-12.401-13.601
		c0-7.8,5.101-13.451,12.151-13.451c9.15,0,11.95,8.551,11.7,14.801h-19.351c-0.15,4.5,2.399,8.5,8.05,8.5
		c3.551,0,5.95-1.65,6.701-5.05H1159.059z M1154.958,286.321c-0.25-4.05-3.2-7.3-7.45-7.3c-4.4,0-7.15,3.3-7.4,7.3H1154.958z"/>
	<path fill="#333333" d="M1186.958,301.722h-4.25v-3.5h-0.101c-1.4,2.85-4.65,4.1-8.25,4.1c-7.951,0-11.901-6.3-11.901-13.601
		c0-7.3,3.9-13.451,11.801-13.451c2.601,0,6.501,1,8.351,4.05h0.101V266.02h4.25V301.722z M1174.957,298.572
		c5.75,0,7.9-4.95,7.9-9.75c0-5.05-2.3-9.8-8.15-9.8c-5.8,0-7.75,4.95-7.75,10C1166.957,293.872,1169.457,298.572,1174.957,298.572z
		"/>
	<path fill="#333333" d="M1194.456,296.172h5.55v5.55h-5.55V296.172z"/>
	<path fill="#333333" d="M212.271,390.02h-11.9v-4h28.552v4h-11.901v31.702h-4.75V390.02z"/>
	<path fill="#333333" d="M232.171,386.02h4.25v13.651h0.1c1.35-3.15,5.101-4.4,8.151-4.4c6.8,0,8.9,3.9,8.9,9.451v17.001h-4.25
		v-17.501c0-3.2-2-5.2-5.25-5.2c-5.15,0-7.65,3.45-7.65,8.1v14.601h-4.25V386.02z"/>
	<path fill="#333333" d="M264.471,391.22h-4.25v-5.2h4.25V391.22z M260.221,395.871h4.25v25.852h-4.25V395.871z"/>
	<path fill="#333333" d="M273.67,413.572c0.15,3.8,3.5,5,6.951,5c2.65,0,6.25-0.6,6.25-3.85c0-6.65-16.901-2.15-16.901-12.101
		c0-5.2,5.101-7.351,9.65-7.351c5.801,0,10.201,1.8,10.601,8.101h-4.25c-0.25-3.3-3.25-4.35-6-4.35c-2.55,0-5.5,0.7-5.5,3.3
		c0,3,4.5,3.601,8.45,4.5c4.25,0.95,8.451,2.4,8.451,7.351c0,6.2-5.75,8.15-11,8.15c-5.801,0-10.701-2.35-10.951-8.75H273.67z"/>
	<path fill="#333333" d="M327.521,404.171c-0.65-3.25-2.851-5.15-6.4-5.15c-6.15,0-8.051,4.9-8.051,10.101
		c0,4.8,2.15,9.45,7.551,9.45c4.15,0,6.55-2.35,7.1-6.3h4.351c-0.95,6.351-4.851,10.051-11.401,10.051
		c-7.9,0-12.101-5.45-12.101-13.201s4-13.851,12.201-13.851c5.9,0,10.5,2.75,11.15,8.9H327.521z"/>
	<path fill="#333333" d="M347.97,395.271c8.2,0,12.551,5.95,12.551,13.551c0,7.551-4.351,13.501-12.551,13.501
		c-8.201,0-12.551-5.95-12.551-13.501C335.419,401.221,339.77,395.271,347.97,395.271z M347.97,418.572c4.45,0,8.05-3.5,8.05-9.75
		s-3.6-9.8-8.05-9.8c-4.451,0-8.051,3.55-8.051,9.8S343.52,418.572,347.97,418.572z"/>
	<path fill="#333333" d="M386.92,421.722h-4v-4.1h-0.1c-1.8,3.2-4.65,4.7-8.401,4.7c-6.8,0-8.9-3.9-8.9-9.451v-17.001h4.25v17.501
		c0,3.2,2,5.2,5.25,5.2c5.15,0,7.65-3.45,7.65-8.1v-14.601h4.25V421.722z"/>
	<path fill="#333333" d="M393.169,395.871h4v5.45h0.1c2.05-4.2,4.9-6.2,9.5-6.05v4.5c-6.85,0-9.351,3.85-9.351,10.451v11.5h-4.25
		V395.871z"/>
	<path fill="#333333" d="M412.568,413.572c0.15,3.8,3.5,5,6.951,5c2.65,0,6.25-0.6,6.25-3.85c0-6.65-16.901-2.15-16.901-12.101
		c0-5.2,5.101-7.351,9.65-7.351c5.801,0,10.201,1.8,10.601,8.101h-4.25c-0.25-3.3-3.25-4.35-6-4.35c-2.55,0-5.5,0.7-5.5,3.3
		c0,3,4.5,3.601,8.45,4.5c4.25,0.95,8.451,2.4,8.451,7.351c0,6.2-5.75,8.15-11,8.15c-5.801,0-10.701-2.35-10.951-8.75H412.568z"/>
	<path fill="#333333" d="M457.02,413.521c-1.15,5.75-5.2,8.801-11.051,8.801c-8.25,0-12.15-5.75-12.4-13.601
		c0-7.8,5.1-13.451,12.15-13.451c9.151,0,11.951,8.551,11.701,14.801h-19.351c-0.15,4.5,2.4,8.5,8.051,8.5
		c3.55,0,5.95-1.65,6.7-5.05H457.02z M452.919,406.321c-0.25-4.05-3.2-7.3-7.451-7.3c-4.4,0-7.15,3.3-7.4,7.3H452.919z"/>
	<path fill="#333333" d="M498.819,421.722h-4.25v-3.5h-0.1c-1.4,2.85-4.65,4.1-8.25,4.1c-7.95,0-11.9-6.3-11.9-13.601
		c0-7.3,3.9-13.451,11.801-13.451c2.6,0,6.5,1,8.35,4.05h0.1V386.02h4.25V421.722z M486.818,418.572c5.75,0,7.9-4.95,7.9-9.75
		c0-5.05-2.3-9.8-8.15-9.8c-5.8,0-7.75,4.95-7.75,10C478.817,413.872,481.317,418.572,486.818,418.572z"/>
	<path fill="#333333" d="M516.518,395.271c8.2,0,12.551,5.95,12.551,13.551c0,7.551-4.351,13.501-12.551,13.501
		c-8.201,0-12.551-5.95-12.551-13.501C503.967,401.221,508.317,395.271,516.518,395.271z M516.518,418.572
		c4.45,0,8.05-3.5,8.05-9.75s-3.6-9.8-8.05-9.8c-4.451,0-8.051,3.55-8.051,9.8S512.067,418.572,516.518,418.572z"/>
	<path fill="#333333" d="M556.118,413.521c-1.15,5.75-5.2,8.801-11.051,8.801c-8.25,0-12.15-5.75-12.4-13.601
		c0-7.8,5.1-13.451,12.15-13.451c9.151,0,11.951,8.551,11.701,14.801h-19.351c-0.15,4.5,2.4,8.5,8.051,8.5
		c3.55,0,5.95-1.65,6.7-5.05H556.118z M552.018,406.321c-0.25-4.05-3.2-7.3-7.451-7.3c-4.4,0-7.15,3.3-7.4,7.3H552.018z"/>
	<path fill="#333333" d="M563.516,413.572c0.15,3.8,3.5,5,6.951,5c2.65,0,6.25-0.6,6.25-3.85c0-6.65-16.901-2.15-16.901-12.101
		c0-5.2,5.1-7.351,9.65-7.351c5.801,0,10.201,1.8,10.601,8.101h-4.25c-0.25-3.3-3.25-4.35-6-4.35c-2.55,0-5.5,0.7-5.5,3.3
		c0,3,4.5,3.601,8.45,4.5c4.25,0.95,8.451,2.4,8.451,7.351c0,6.2-5.75,8.15-11,8.15c-5.801,0-10.701-2.35-10.951-8.75H563.516z"/>
	<path fill="#333333" d="M599.816,395.871h4v4.1h0.1c1.8-3.2,4.65-4.7,8.401-4.7c6.8,0,8.9,3.9,8.9,9.451v17.001h-4.25v-17.501
		c0-3.2-2-5.2-5.25-5.2c-5.15,0-7.65,3.45-7.65,8.1v14.601h-4.25V395.871z"/>
	<path fill="#333333" d="M638.767,395.271c8.2,0,12.551,5.95,12.551,13.551c0,7.551-4.351,13.501-12.551,13.501
		c-8.201,0-12.551-5.95-12.551-13.501C626.216,401.221,630.566,395.271,638.767,395.271z M638.767,418.572
		c4.45,0,8.05-3.5,8.05-9.75s-3.6-9.8-8.05-9.8c-4.451,0-8.051,3.55-8.051,9.8S634.316,418.572,638.767,418.572z"/>
	<path fill="#333333" d="M662.216,395.871h5.15v3.75h-5.15v16.051c0,2,0.55,2.3,3.2,2.3h1.95v3.75h-3.25c-4.4,0-6.15-0.9-6.15-5.65
		v-16.451h-4.4v-3.75h4.4v-7.75h4.25V395.871z"/>
	<path fill="#333333" d="M703.516,404.171c-0.65-3.25-2.851-5.15-6.4-5.15c-6.15,0-8.051,4.9-8.051,10.101
		c0,4.8,2.15,9.45,7.551,9.45c4.15,0,6.55-2.35,7.1-6.3h4.351c-0.95,6.351-4.851,10.051-11.401,10.051
		c-7.9,0-12.101-5.45-12.101-13.201s4-13.851,12.201-13.851c5.9,0,10.5,2.75,11.15,8.9H703.516z"/>
	<path fill="#333333" d="M723.965,395.271c8.2,0,12.551,5.95,12.551,13.551c0,7.551-4.351,13.501-12.551,13.501
		c-8.201,0-12.551-5.95-12.551-13.501C711.415,401.221,715.765,395.271,723.965,395.271z M723.965,418.572
		c4.45,0,8.05-3.5,8.05-9.75s-3.6-9.8-8.05-9.8c-4.451,0-8.051,3.55-8.051,9.8S719.515,418.572,723.965,418.572z"/>
	<path fill="#333333" d="M753.165,421.722h-4.55l-9.601-25.852h4.75l7.25,21.551h0.1l7.05-21.551h4.45L753.165,421.722z"/>
	<path fill="#333333" d="M788.565,413.521c-1.15,5.75-5.2,8.801-11.051,8.801c-8.25,0-12.15-5.75-12.4-13.601
		c0-7.8,5.1-13.451,12.15-13.451c9.151,0,11.951,8.551,11.701,14.801h-19.351c-0.15,4.5,2.4,8.5,8.051,8.5
		c3.55,0,5.95-1.65,6.7-5.05H788.565z M784.465,406.321c-0.25-4.05-3.2-7.3-7.451-7.3c-4.4,0-7.15,3.3-7.4,7.3H784.465z"/>
	<path fill="#333333" d="M793.213,395.871h4v5.45h0.1c2.05-4.2,4.9-6.2,9.5-6.05v4.5c-6.85,0-9.351,3.85-9.351,10.451v11.5h-4.25
		V395.871z"/>
	<path fill="#333333" d="M846.814,421.622c-0.75,0.45-1.8,0.7-3.05,0.7c-2.2,0-3.6-1.2-3.6-4c-2.35,2.8-5.5,4-9.101,4
		c-4.7,0-8.55-2.05-8.55-7.25c0-5.851,4.35-7.15,8.75-7.951c4.65-0.95,8.7-0.55,8.7-3.8c0-3.75-3.1-4.3-5.75-4.3
		c-3.601,0-6.25,1.1-6.451,4.9h-4.25c0.25-6.4,5.15-8.65,10.951-8.65c4.65,0,9.701,1.05,9.701,7.101v13.301c0,2,0,2.9,1.35,2.9
		c0.4,0,0.85-0.1,1.3-0.25V421.622z M839.914,408.372c-3.3,2.45-12.901,0.05-12.901,6.4c0,2.8,2.4,3.8,5,3.8
		c5.6,0,7.9-3.45,7.9-5.85V408.372z"/>
	<path fill="#333333" d="M850.762,395.871h4v4.1h0.1c1.8-3.2,4.65-4.7,8.401-4.7c6.8,0,8.9,3.9,8.9,9.451v17.001h-4.25v-17.501
		c0-3.2-2-5.2-5.25-5.2c-5.15,0-7.65,3.45-7.65,8.1v14.601h-4.25V395.871z"/>
	<path fill="#333333" d="M888.712,425.172c-2,5-3.7,6.9-7.5,6.9c-1,0-2-0.1-2.95-0.45v-3.9c0.8,0.25,1.65,0.6,2.5,0.6
		c1.75,0,2.7-0.8,3.5-2.35l1.75-4.4l-10.251-25.702h4.8l7.551,21.151h0.1l7.25-21.151h4.5L888.712,425.172z"/>
	<path fill="#333333" d="M935.013,404.171c-0.65-3.25-2.851-5.15-6.4-5.15c-6.15,0-8.051,4.9-8.051,10.101
		c0,4.8,2.15,9.45,7.551,9.45c4.15,0,6.55-2.35,7.1-6.3h4.35c-0.95,6.351-4.85,10.051-11.4,10.051c-7.9,0-12.101-5.45-12.101-13.201
		s4-13.851,12.201-13.851c5.9,0,10.5,2.75,11.151,8.9H935.013z"/>
	<path fill="#333333" d="M944.311,386.02h4.25v13.651h0.101c1.35-3.15,5.1-4.4,8.15-4.4c6.8,0,8.9,3.9,8.9,9.451v17.001h-4.25
		v-17.501c0-3.2-2-5.2-5.251-5.2c-5.15,0-7.65,3.45-7.65,8.1v14.601h-4.25V386.02z"/>
	<path fill="#333333" d="M995.012,421.622c-0.75,0.45-1.8,0.7-3.05,0.7c-2.2,0-3.601-1.2-3.601-4c-2.351,2.8-5.5,4-9.101,4
		c-4.7,0-8.551-2.05-8.551-7.25c0-5.851,4.351-7.15,8.751-7.951c4.65-0.95,8.7-0.55,8.7-3.8c0-3.75-3.1-4.3-5.75-4.3
		c-3.601,0-6.251,1.1-6.45,4.9h-4.251c0.25-6.4,5.15-8.65,10.951-8.65c4.65,0,9.7,1.05,9.7,7.101v13.301c0,2,0,2.9,1.351,2.9
		c0.399,0,0.85-0.1,1.3-0.25V421.622z M988.111,408.372c-3.3,2.45-12.9,0.05-12.9,6.4c0,2.8,2.399,3.8,5,3.8
		c5.601,0,7.9-3.45,7.9-5.85V408.372z"/>
	<path fill="#333333" d="M998.96,395.871h4v4.1h0.101c1.8-3.2,4.65-4.7,8.4-4.7c6.8,0,8.9,3.9,8.9,9.451v17.001h-4.25v-17.501
		c0-3.2-2-5.2-5.251-5.2c-5.15,0-7.65,3.45-7.65,8.1v14.601h-4.25V395.871z"/>
	<path fill="#333333" d="M1049.062,419.522c0,8.451-3.801,12.701-12.001,12.701c-4.851,0-10.451-2-10.701-7.6h4.251
		c0.149,3.05,3.95,4.2,6.7,4.2c5.55,0,7.75-4,7.75-9.801v-1.7h-0.1c-1.45,3.15-4.75,4.7-8.051,4.7c-7.7,0-11.551-6.05-11.551-13.101
		c0-6.101,2.95-13.651,11.951-13.651c3.25,0,6.15,1.45,7.7,4.3h0.05v-3.7h4.001V419.522z M1044.861,408.271
		c0-4.55-2.001-9.25-7.351-9.25c-5.45,0-7.65,4.45-7.65,9.4c0,4.65,1.699,9.851,7.3,9.851S1044.861,413.122,1044.861,408.271z"/>
	<path fill="#333333" d="M1077.511,413.521c-1.15,5.75-5.201,8.801-11.051,8.801c-8.251,0-12.151-5.75-12.401-13.601
		c0-7.8,5.101-13.451,12.151-13.451c9.15,0,11.95,8.551,11.7,14.801h-19.351c-0.15,4.5,2.399,8.5,8.05,8.5
		c3.551,0,5.95-1.65,6.701-5.05H1077.511z M1073.41,406.321c-0.25-4.05-3.2-7.3-7.45-7.3c-4.4,0-7.15,3.3-7.4,7.3H1073.41z"/>
	<path fill="#333333" d="M1084.909,413.572c0.149,3.8,3.5,5,6.95,5c2.65,0,6.25-0.6,6.25-3.85c0-6.65-16.9-2.15-16.9-12.101
		c0-5.2,5.1-7.351,9.65-7.351c5.8,0,10.2,1.8,10.601,8.101h-4.25c-0.25-3.3-3.251-4.35-6.001-4.35c-2.55,0-5.5,0.7-5.5,3.3
		c0,3,4.5,3.601,8.45,4.5c4.25,0.95,8.45,2.4,8.45,7.351c0,6.2-5.75,8.15-11,8.15c-5.801,0-10.701-2.35-10.951-8.75H1084.909z"/>
	<path fill="#333333" d="M1127.109,395.871h5.15v3.75h-5.15v16.051c0,2,0.55,2.3,3.2,2.3h1.95v3.75h-3.25c-4.4,0-6.15-0.9-6.15-5.65
		v-16.451h-4.4v-3.75h4.4v-7.75h4.25V395.871z"/>
	<path fill="#333333" d="M1148.108,395.271c8.201,0,12.551,5.95,12.551,13.551c0,7.551-4.35,13.501-12.551,13.501
		c-8.2,0-12.551-5.95-12.551-13.501C1135.558,401.221,1139.908,395.271,1148.108,395.271z M1148.108,418.572
		c4.45,0,8.051-3.5,8.051-9.75s-3.601-9.8-8.051-9.8s-8.05,3.55-8.05,9.8S1143.658,418.572,1148.108,418.572z"/>
	<path fill="#333333" d="M1179.708,395.871h4.25v3.5h0.1c1.4-2.85,4.65-4.1,8.251-4.1c7.95,0,11.9,6.3,11.9,13.601
		c0,7.35-3.9,13.451-11.801,13.451c-2.6,0-6.5-1-8.351-4.05h-0.1v13.351h-4.25V395.871z M1191.708,399.021
		c-5.75,0-7.9,4.95-7.9,9.75c0,5.05,2.301,9.8,8.15,9.8c5.801,0,7.751-4.95,7.751-10
		C1199.709,403.721,1197.209,399.021,1191.708,399.021z"/>
	<path fill="#333333" d="M1209.057,395.871h4.001v5.45h0.1c2.05-4.2,4.9-6.2,9.501-6.05v4.5c-6.851,0-9.351,3.85-9.351,10.451v11.5
		h-4.251V395.871z"/>
	<path fill="#333333" d="M1237.007,395.271c8.201,0,12.551,5.95,12.551,13.551c0,7.551-4.35,13.501-12.551,13.501
		c-8.2,0-12.551-5.95-12.551-13.501C1224.456,401.221,1228.807,395.271,1237.007,395.271z M1237.007,418.572
		c4.45,0,8.051-3.5,8.051-9.75s-3.601-9.8-8.051-9.8s-8.05,3.55-8.05,9.8S1232.557,418.572,1237.007,418.572z"/>
	<path fill="#333333" d="M1272.106,404.171c-0.649-3.25-2.85-5.15-6.4-5.15c-6.15,0-8.05,4.9-8.05,10.101
		c0,4.8,2.149,9.45,7.55,9.45c4.15,0,6.551-2.35,7.101-6.3h4.351c-0.95,6.351-4.851,10.051-11.401,10.051
		c-7.9,0-12.101-5.45-12.101-13.201s4.001-13.851,12.201-13.851c5.9,0,10.501,2.75,11.15,8.9H1272.106z"/>
	<path fill="#333333" d="M1303.457,413.521c-1.15,5.75-5.201,8.801-11.051,8.801c-8.251,0-12.151-5.75-12.401-13.601
		c0-7.8,5.101-13.451,12.151-13.451c9.15,0,11.95,8.551,11.7,14.801h-19.351c-0.15,4.5,2.399,8.5,8.05,8.5
		c3.551,0,5.95-1.65,6.701-5.05H1303.457z M1299.356,406.321c-0.25-4.05-3.2-7.3-7.45-7.3c-4.4,0-7.15,3.3-7.4,7.3H1299.356z"/>
	<path fill="#333333" d="M1331.356,421.722h-4.25v-3.5h-0.101c-1.4,2.85-4.65,4.1-8.25,4.1c-7.951,0-11.901-6.3-11.901-13.601
		c0-7.3,3.9-13.451,11.801-13.451c2.601,0,6.501,1,8.351,4.05h0.101V386.02h4.25V421.722z M1319.355,418.572
		c5.75,0,7.9-4.95,7.9-9.75c0-5.05-2.3-9.8-8.15-9.8c-5.8,0-7.75,4.95-7.75,10C1311.355,413.872,1313.855,418.572,1319.355,418.572z
		"/>
	<path fill="#333333" d="M1359.306,421.722h-4v-4.1h-0.101c-1.8,3.2-4.65,4.7-8.4,4.7c-6.8,0-8.9-3.9-8.9-9.451v-17.001h4.25v17.501
		c0,3.2,2,5.2,5.251,5.2c5.15,0,7.65-3.45,7.65-8.1v-14.601h4.25V421.722z"/>
	<path fill="#333333" d="M1365.554,395.871h4.001v5.45h0.1c2.05-4.2,4.9-6.2,9.501-6.05v4.5c-6.851,0-9.351,3.85-9.351,10.451v11.5
		h-4.251V395.871z"/>
	<path fill="#333333" d="M1404.405,413.521c-1.15,5.75-5.201,8.801-11.051,8.801c-8.251,0-12.151-5.75-12.401-13.601
		c0-7.8,5.101-13.451,12.151-13.451c9.15,0,11.95,8.551,11.7,14.801h-19.351c-0.15,4.5,2.399,8.5,8.05,8.5
		c3.551,0,5.95-1.65,6.701-5.05H1404.405z M1400.305,406.321c-0.25-4.05-3.2-7.3-7.45-7.3c-4.4,0-7.15,3.3-7.4,7.3H1400.305z"/>
	<path fill="#333333" d="M1411.804,413.572c0.149,3.8,3.5,5,6.95,5c2.65,0,6.25-0.6,6.25-3.85c0-6.65-16.9-2.15-16.9-12.101
		c0-5.2,5.1-7.351,9.65-7.351c5.8,0,10.2,1.8,10.601,8.101h-4.25c-0.25-3.3-3.251-4.35-6.001-4.35c-2.55,0-5.5,0.7-5.5,3.3
		c0,3,4.5,3.601,8.45,4.5c4.25,0.95,8.45,2.4,8.45,7.351c0,6.2-5.75,8.15-11,8.15c-5.801,0-10.701-2.35-10.951-8.75H1411.804z"/>
	<path fill="#333333" d="M1435.153,416.172h5.55v5.05c0,3.8-1.649,6.7-5.5,7.851v-2.5c2.2-0.8,3.05-3.2,2.9-4.85h-2.95V416.172z"/>
	<path fill="#333333" d="M1485.105,421.722h-4.25v-3.5h-0.101c-1.4,2.85-4.65,4.1-8.25,4.1c-7.951,0-11.901-6.3-11.901-13.601
		c0-7.3,3.9-13.451,11.801-13.451c2.601,0,6.501,1,8.351,4.05h0.101V386.02h4.25V421.722z M1473.104,418.572
		c5.75,0,7.9-4.95,7.9-9.75c0-5.05-2.3-9.8-8.15-9.8c-5.8,0-7.75,4.95-7.75,10C1465.104,413.872,1467.604,418.572,1473.104,418.572z
		"/>
	<path fill="#333333" d="M1502.804,395.271c8.201,0,12.551,5.95,12.551,13.551c0,7.551-4.35,13.501-12.551,13.501
		c-8.2,0-12.551-5.95-12.551-13.501C1490.253,401.221,1494.604,395.271,1502.804,395.271z M1502.804,418.572
		c4.45,0,8.051-3.5,8.051-9.75s-3.601-9.8-8.051-9.8s-8.05,3.55-8.05,9.8S1498.354,418.572,1502.804,418.572z"/>
	<path fill="#333333" d="M1537.903,404.171c-0.649-3.25-2.85-5.15-6.4-5.15c-6.15,0-8.05,4.9-8.05,10.101
		c0,4.8,2.149,9.45,7.55,9.45c4.15,0,6.551-2.35,7.101-6.3h4.351c-0.95,6.351-4.851,10.051-11.401,10.051
		c-7.9,0-12.101-5.45-12.101-13.201s4.001-13.851,12.201-13.851c5.9,0,10.501,2.75,11.15,8.9H1537.903z"/>
	<path fill="#333333" d="M1568.604,421.722h-4v-4.1h-0.101c-1.8,3.2-4.65,4.7-8.4,4.7c-6.8,0-8.9-3.9-8.9-9.451v-17.001h4.25v17.501
		c0,3.2,2,5.2,5.251,5.2c5.15,0,7.65-3.45,7.65-8.1v-14.601h4.25V421.722z"/>
	<path fill="#333333" d="M1575.002,395.871h4v3.8h0.101c1.95-2.95,4.7-4.4,8.351-4.4c3.2,0,6.05,1.2,7.1,4.4
		c1.751-2.8,4.751-4.4,8.101-4.4c5.15,0,8.601,2.15,8.601,7.5v18.951h-4.25v-16.951c0-3.2-0.85-5.75-5-5.75s-6.751,2.6-6.751,6.6
		v16.101h-4.25v-16.951c0-3.35-1.05-5.75-4.851-5.75c-5,0-6.9,4.6-6.9,6.6v16.101h-4.25V395.871z"/>
	<path fill="#333333" d="M1639.703,413.521c-1.15,5.75-5.201,8.801-11.051,8.801c-8.251,0-12.151-5.75-12.401-13.601
		c0-7.8,5.101-13.451,12.151-13.451c9.15,0,11.95,8.551,11.7,14.801h-19.351c-0.15,4.5,2.399,8.5,8.05,8.5
		c3.551,0,5.95-1.65,6.701-5.05H1639.703z M1635.603,406.321c-0.25-4.05-3.2-7.3-7.45-7.3c-4.4,0-7.15,3.3-7.4,7.3H1635.603z"/>
	<path fill="#333333" d="M1644.501,395.871h4v4.1h0.101c1.8-3.2,4.65-4.7,8.4-4.7c6.8,0,8.9,3.9,8.9,9.451v17.001h-4.25v-17.501
		c0-3.2-2-5.2-5.251-5.2c-5.15,0-7.65,3.45-7.65,8.1v14.601h-4.25V395.871z"/>
	<path fill="#333333" d="M1678.201,395.871h5.15v3.75h-5.15v16.051c0,2,0.55,2.3,3.2,2.3h1.95v3.75h-3.25c-4.4,0-6.15-0.9-6.15-5.65
		v-16.451h-4.4v-3.75h4.4v-7.75h4.25V395.871z"/>
	<path fill="#333333" d="M1690.65,413.572c0.149,3.8,3.5,5,6.95,5c2.65,0,6.25-0.6,6.25-3.85c0-6.65-16.9-2.15-16.9-12.101
		c0-5.2,5.1-7.351,9.65-7.351c5.8,0,10.2,1.8,10.601,8.101h-4.25c-0.25-3.3-3.251-4.35-6.001-4.35c-2.55,0-5.5,0.7-5.5,3.3
		c0,3,4.5,3.601,8.45,4.5c4.25,0.95,8.45,2.4,8.45,7.351c0,6.2-5.75,8.15-11,8.15c-5.801,0-10.701-2.35-10.951-8.75H1690.65z"/>
	<path fill="#333333" d="M1714,416.172h5.55v5.05c0,3.8-1.649,6.7-5.5,7.851v-2.5c2.2-0.8,3.05-3.2,2.9-4.85H1714V416.172z"/>
	<path fill="#333333" d="M1752.001,395.271c8.201,0,12.551,5.95,12.551,13.551c0,7.551-4.35,13.501-12.551,13.501
		c-8.2,0-12.551-5.95-12.551-13.501C1739.45,401.221,1743.801,395.271,1752.001,395.271z M1752.001,418.572
		c4.45,0,8.051-3.5,8.051-9.75s-3.601-9.8-8.051-9.8s-8.05,3.55-8.05,9.8S1747.551,418.572,1752.001,418.572z"/>
	<path fill="#333333" d="M1769.399,395.871h4.001v5.45h0.1c2.05-4.2,4.9-6.2,9.501-6.05v4.5c-6.851,0-9.351,3.85-9.351,10.451v11.5
		h-4.251V395.871z"/>
	<path fill="#333333" d="M206.071,473.572c0.15,3.8,3.5,5,6.951,5c2.65,0,6.25-0.6,6.25-3.85c0-6.65-16.901-2.15-16.901-12.101
		c0-5.2,5.101-7.351,9.65-7.351c5.801,0,10.201,1.8,10.601,8.101h-4.25c-0.25-3.3-3.25-4.35-6-4.35c-2.55,0-5.5,0.7-5.5,3.3
		c0,3,4.5,3.601,8.45,4.5c4.25,0.95,8.451,2.4,8.451,7.351c0,6.2-5.75,8.15-11,8.15c-5.801,0-10.701-2.35-10.951-8.75H206.071z"/>
	<path fill="#333333" d="M238.622,485.172c-2,5-3.7,6.9-7.5,6.9c-1,0-2-0.1-2.95-0.45v-3.9c0.8,0.25,1.65,0.6,2.5,0.6
		c1.75,0,2.7-0.8,3.5-2.35l1.75-4.4l-10.251-25.702h4.8l7.551,21.151h0.1l7.25-21.151h4.5L238.622,485.172z"/>
	<path fill="#333333" d="M256.071,473.572c0.15,3.8,3.5,5,6.951,5c2.65,0,6.25-0.6,6.25-3.85c0-6.65-16.901-2.15-16.901-12.101
		c0-5.2,5.101-7.351,9.65-7.351c5.801,0,10.201,1.8,10.601,8.101h-4.25c-0.25-3.3-3.25-4.35-6-4.35c-2.55,0-5.5,0.7-5.5,3.3
		c0,3,4.5,3.601,8.45,4.5c4.25,0.95,8.451,2.4,8.451,7.351c0,6.2-5.75,8.15-11,8.15c-5.801,0-10.701-2.35-10.951-8.75H256.071z"/>
	<path fill="#333333" d="M284.372,455.871h5.15v3.75h-5.15v16.051c0,2,0.55,2.3,3.2,2.3h1.95v3.75h-3.25c-4.4,0-6.15-0.9-6.15-5.65
		v-16.451h-4.4v-3.75h4.4v-7.75h4.25V455.871z"/>
	<path fill="#333333" d="M316.272,473.521c-1.15,5.75-5.2,8.801-11.051,8.801c-8.25,0-12.15-5.75-12.4-13.601
		c0-7.8,5.1-13.451,12.15-13.451c9.151,0,11.951,8.551,11.701,14.801h-19.351c-0.15,4.5,2.4,8.5,8.051,8.5
		c3.55,0,5.95-1.65,6.7-5.05H316.272z M312.172,466.321c-0.25-4.05-3.2-7.3-7.451-7.3c-4.4,0-7.15,3.3-7.4,7.3H312.172z"/>
	<path fill="#333333" d="M321.07,455.871h4v3.8h0.1c1.95-2.95,4.701-4.4,8.351-4.4c3.2,0,6.05,1.2,7.101,4.4
		c1.75-2.8,4.75-4.4,8.101-4.4c5.15,0,8.601,2.15,8.601,7.5v18.951h-4.25v-16.951c0-3.2-0.85-5.75-5-5.75c-4.15,0-6.75,2.6-6.75,6.6
		v16.101h-4.25v-16.951c0-3.35-1.05-5.75-4.85-5.75c-5,0-6.9,4.6-6.9,6.6v16.101h-4.25V455.871z"/>
	<path fill="#333333" d="M366.32,473.572c0.15,3.8,3.5,5,6.951,5c2.65,0,6.25-0.6,6.25-3.85c0-6.65-16.901-2.15-16.901-12.101
		c0-5.2,5.101-7.351,9.65-7.351c5.801,0,10.201,1.8,10.601,8.101h-4.25c-0.25-3.3-3.25-4.35-6-4.35c-2.55,0-5.5,0.7-5.5,3.3
		c0,3,4.5,3.601,8.45,4.5c4.25,0.95,8.451,2.4,8.451,7.351c0,6.2-5.75,8.15-11,8.15c-5.801,0-10.701-2.35-10.951-8.75H366.32z"/>
	<path fill="#333333" d="M389.67,476.172h5.55v5.05c0,3.8-1.65,6.7-5.5,7.851v-2.5c2.2-0.8,3.05-3.2,2.9-4.85h-2.95V476.172z"/>
	<path fill="#333333" d="M442.122,481.722h-4.5l-5.25-20.551h-0.1l-5.2,20.551h-4.601l-8.3-25.852h4.7l5.851,21.151h0.1
		l5.201-21.151h4.65l5.4,21.151h0.1l5.8-21.151h4.4L442.122,481.722z"/>
	<path fill="#333333" d="M454.42,446.02h4.25v13.651h0.1c1.35-3.15,5.101-4.4,8.151-4.4c6.8,0,8.9,3.9,8.9,9.451v17.001h-4.25
		v-17.501c0-3.2-2-5.2-5.25-5.2c-5.15,0-7.65,3.45-7.65,8.1v14.601h-4.25V446.02z"/>
	<path fill="#333333" d="M486.72,451.22h-4.25v-5.2h4.25V451.22z M482.47,455.871h4.25v25.852h-4.25V455.871z"/>
	<path fill="#333333" d="M510.87,464.171c-0.65-3.25-2.851-5.15-6.4-5.15c-6.15,0-8.051,4.9-8.051,10.101
		c0,4.8,2.15,9.45,7.551,9.45c4.15,0,6.55-2.35,7.1-6.3h4.351c-0.95,6.351-4.851,10.051-11.401,10.051
		c-7.9,0-12.101-5.45-12.101-13.201s4-13.851,12.201-13.851c5.9,0,10.5,2.75,11.15,8.9H510.87z"/>
	<path fill="#333333" d="M520.168,446.02h4.25v13.651h0.1c1.35-3.15,5.101-4.4,8.151-4.4c6.8,0,8.9,3.9,8.9,9.451v17.001h-4.25
		v-17.501c0-3.2-2-5.2-5.25-5.2c-5.15,0-7.65,3.45-7.65,8.1v14.601h-4.25V446.02z"/>
	<path fill="#333333" d="M566.368,451.22h-4.25v-5.2h4.25V451.22z M562.118,455.871h4.25v25.852h-4.25V455.871z"/>
	<path fill="#333333" d="M575.567,473.572c0.15,3.8,3.5,5,6.951,5c2.65,0,6.25-0.6,6.25-3.85c0-6.65-16.901-2.15-16.901-12.101
		c0-5.2,5.1-7.351,9.65-7.351c5.801,0,10.201,1.8,10.601,8.101h-4.25c-0.25-3.3-3.25-4.35-6-4.35c-2.55,0-5.5,0.7-5.5,3.3
		c0,3,4.5,3.601,8.45,4.5c4.25,0.95,8.451,2.4,8.451,7.351c0,6.2-5.75,8.15-11,8.15c-5.801,0-10.701-2.35-10.951-8.75H575.567z"/>
	<path fill="#333333" d="M629.418,464.171c-0.65-3.25-2.851-5.15-6.4-5.15c-6.15,0-8.051,4.9-8.051,10.101
		c0,4.8,2.15,9.45,7.551,9.45c4.15,0,6.55-2.35,7.1-6.3h4.351c-0.95,6.351-4.851,10.051-11.401,10.051
		c-7.9,0-12.101-5.45-12.101-13.201s4-13.851,12.201-13.851c5.9,0,10.5,2.75,11.15,8.9H629.418z"/>
	<path fill="#333333" d="M649.867,455.271c8.2,0,12.551,5.95,12.551,13.551c0,7.551-4.351,13.501-12.551,13.501
		c-8.201,0-12.551-5.95-12.551-13.501C637.316,461.221,641.666,455.271,649.867,455.271z M649.867,478.572
		c4.45,0,8.05-3.5,8.05-9.75s-3.6-9.8-8.05-9.8c-4.451,0-8.051,3.55-8.051,9.8S645.416,478.572,649.867,478.572z"/>
	<path fill="#333333" d="M679.066,481.722h-4.55l-9.601-25.852h4.75l7.25,21.551h0.1l7.05-21.551h4.45L679.066,481.722z"/>
	<path fill="#333333" d="M714.467,473.521c-1.15,5.75-5.2,8.801-11.051,8.801c-8.25,0-12.15-5.75-12.4-13.601
		c0-7.8,5.1-13.451,12.15-13.451c9.151,0,11.951,8.551,11.701,14.801h-19.351c-0.15,4.5,2.4,8.5,8.051,8.5
		c3.55,0,5.95-1.65,6.7-5.05H714.467z M710.367,466.321c-0.25-4.05-3.2-7.3-7.451-7.3c-4.4,0-7.15,3.3-7.4,7.3H710.367z"/>
	<path fill="#333333" d="M719.115,455.871h4v5.45h0.1c2.05-4.2,4.9-6.2,9.5-6.05v4.5c-6.85,0-9.351,3.85-9.351,10.451v11.5h-4.25
		V455.871z"/>
	<path fill="#333333" d="M757.965,473.521c-1.15,5.75-5.2,8.801-11.051,8.801c-8.25,0-12.15-5.75-12.4-13.601
		c0-7.8,5.1-13.451,12.15-13.451c9.151,0,11.951,8.551,11.701,14.801h-19.351c-0.15,4.5,2.4,8.5,8.051,8.5
		c3.55,0,5.95-1.65,6.7-5.05H757.965z M753.865,466.321c-0.25-4.05-3.2-7.3-7.451-7.3c-4.4,0-7.15,3.3-7.4,7.3H753.865z"/>
	<path fill="#333333" d="M785.865,481.722h-4.25v-3.5h-0.1c-1.4,2.85-4.65,4.1-8.25,4.1c-7.95,0-11.9-6.3-11.9-13.601
		c0-7.3,3.9-13.451,11.8-13.451c2.601,0,6.5,1,8.351,4.05h0.1V446.02h4.25V481.722z M773.864,478.572c5.75,0,7.9-4.95,7.9-9.75
		c0-5.05-2.3-9.8-8.15-9.8c-5.8,0-7.75,4.95-7.75,10C765.864,473.872,768.364,478.572,773.864,478.572z"/>
	<path fill="#333333" d="M806.463,446.02h4.25v13.351h0.1c1.4-2.85,4.65-4.1,8.25-4.1c7.95,0,11.9,6.3,11.9,13.601
		c0,7.35-3.9,13.451-11.801,13.451c-2.6,0-6.5-1-8.35-4.05h-0.1v3.45h-4.25V446.02z M818.464,459.021c-5.75,0-7.9,4.95-7.9,9.75
		c0,5.05,2.3,9.8,8.15,9.8c5.8,0,7.75-4.95,7.75-10C826.464,463.721,823.964,459.021,818.464,459.021z"/>
	<path fill="#333333" d="M846.113,485.172c-2,5-3.7,6.9-7.5,6.9c-1,0-2-0.1-2.95-0.45v-3.9c0.8,0.25,1.65,0.6,2.5,0.6
		c1.75,0,2.7-0.8,3.5-2.35l1.75-4.4l-10.251-25.702h4.8l7.551,21.151h0.1l7.25-21.151h4.5L846.113,485.172z"/>
	<path fill="#333333" d="M900.664,456.771c-1.05-5.05-5-7.6-10.001-7.6c-8.5,0-12.101,7-12.101,14.451
		c0,8.15,3.6,14.951,12.151,14.951c6.2,0,9.9-4.4,10.3-10.3h4.75c-0.95,8.95-6.4,14.301-15.451,14.301
		c-11.051,0-16.501-8.201-16.501-18.601c0-10.401,5.9-18.801,16.901-18.801c7.45,0,13.651,4,14.701,11.601H900.664z"/>
	<path fill="#333333" d="M910.961,446.02h4.25v13.651h0.1c1.35-3.15,5.101-4.4,8.151-4.4c6.8,0,8.9,3.9,8.9,9.451v17.001h-4.25
		v-17.501c0-3.2-2-5.2-5.25-5.2c-5.15,0-7.65,3.45-7.65,8.1v14.601h-4.25V446.02z"/>
	<path fill="#333333" d="M961.663,481.622c-0.751,0.45-1.801,0.7-3.051,0.7c-2.2,0-3.6-1.2-3.6-4c-2.351,2.8-5.501,4-9.101,4
		c-4.701,0-8.551-2.05-8.551-7.25c0-5.851,4.35-7.15,8.75-7.951c4.65-0.95,8.701-0.55,8.701-3.8c0-3.75-3.101-4.3-5.751-4.3
		c-3.6,0-6.25,1.1-6.45,4.9h-4.25c0.25-6.4,5.15-8.65,10.95-8.65c4.65,0,9.701,1.05,9.701,7.101v13.301c0,2,0,2.9,1.35,2.9
		c0.4,0,0.851-0.1,1.301-0.25V481.622z M954.763,468.372c-3.301,2.45-12.901,0.05-12.901,6.4c0,2.8,2.4,3.8,5,3.8
		c5.601,0,7.901-3.45,7.901-5.85V468.372z"/>
	<path fill="#333333" d="M965.61,455.871h4v4.1h0.101c1.8-3.2,4.65-4.7,8.4-4.7c6.8,0,8.9,3.9,8.9,9.451v17.001h-4.25v-17.501
		c0-3.2-2-5.2-5.251-5.2c-5.15,0-7.65,3.45-7.65,8.1v14.601h-4.25V455.871z"/>
	<path fill="#333333" d="M1015.712,479.522c0,8.451-3.801,12.701-12.001,12.701c-4.851,0-10.451-2-10.701-7.6h4.251
		c0.149,3.05,3.95,4.2,6.7,4.2c5.55,0,7.75-4,7.75-9.801v-1.7h-0.1c-1.45,3.15-4.75,4.7-8.051,4.7c-7.7,0-11.551-6.05-11.551-13.101
		c0-6.101,2.95-13.651,11.951-13.651c3.25,0,6.15,1.45,7.7,4.3h0.05v-3.7h4.001V479.522z M1011.512,468.271
		c0-4.55-2.001-9.25-7.351-9.25c-5.45,0-7.65,4.45-7.65,9.4c0,4.65,1.699,9.851,7.3,9.851S1011.512,473.122,1011.512,468.271z"/>
	<path fill="#333333" d="M1044.161,473.521c-1.15,5.75-5.201,8.801-11.051,8.801c-8.251,0-12.151-5.75-12.401-13.601
		c0-7.8,5.101-13.451,12.151-13.451c9.15,0,11.95,8.551,11.7,14.801h-19.351c-0.15,4.5,2.399,8.5,8.05,8.5
		c3.551,0,5.95-1.65,6.701-5.05H1044.161z M1040.061,466.321c-0.25-4.05-3.2-7.3-7.45-7.3c-4.4,0-7.15,3.3-7.4,7.3H1040.061z"/>
	<path fill="#333333" d="M1063.659,446.02h6.501l11.25,30.002l11.301-30.002h6.501v35.702h-4.501v-29.702h-0.1l-11.15,29.702h-4.051
		l-11.15-29.702h-0.1v29.702h-4.501V446.02z"/>
	<path fill="#333333" d="M1129.311,481.622c-0.75,0.45-1.8,0.7-3.05,0.7c-2.2,0-3.601-1.2-3.601-4c-2.351,2.8-5.5,4-9.101,4
		c-4.7,0-8.551-2.05-8.551-7.25c0-5.851,4.351-7.15,8.751-7.951c4.65-0.95,8.7-0.55,8.7-3.8c0-3.75-3.1-4.3-5.75-4.3
		c-3.601,0-6.251,1.1-6.45,4.9h-4.251c0.25-6.4,5.15-8.65,10.951-8.65c4.65,0,9.7,1.05,9.7,7.101v13.301c0,2,0,2.9,1.351,2.9
		c0.399,0,0.85-0.1,1.3-0.25V481.622z M1122.41,468.372c-3.3,2.45-12.9,0.05-12.9,6.4c0,2.8,2.399,3.8,5,3.8
		c5.601,0,7.9-3.45,7.9-5.85V468.372z"/>
	<path fill="#333333" d="M1133.259,455.871h4v4.1h0.101c1.8-3.2,4.65-4.7,8.4-4.7c6.8,0,8.9,3.9,8.9,9.451v17.001h-4.25v-17.501
		c0-3.2-2-5.2-5.251-5.2c-5.15,0-7.65,3.45-7.65,8.1v14.601h-4.25V455.871z"/>
	<path fill="#333333" d="M1183.96,481.622c-0.75,0.45-1.8,0.7-3.05,0.7c-2.2,0-3.601-1.2-3.601-4c-2.351,2.8-5.5,4-9.101,4
		c-4.7,0-8.551-2.05-8.551-7.25c0-5.851,4.351-7.15,8.751-7.951c4.65-0.95,8.7-0.55,8.7-3.8c0-3.75-3.1-4.3-5.75-4.3
		c-3.601,0-6.251,1.1-6.45,4.9h-4.251c0.25-6.4,5.15-8.65,10.951-8.65c4.65,0,9.7,1.05,9.7,7.101v13.301c0,2,0,2.9,1.351,2.9
		c0.399,0,0.85-0.1,1.3-0.25V481.622z M1177.06,468.372c-3.3,2.45-12.9,0.05-12.9,6.4c0,2.8,2.399,3.8,5,3.8
		c5.601,0,7.9-3.45,7.9-5.85V468.372z"/>
	<path fill="#333333" d="M1210.21,479.522c0,8.451-3.801,12.701-12.001,12.701c-4.851,0-10.451-2-10.701-7.6h4.251
		c0.149,3.05,3.95,4.2,6.7,4.2c5.55,0,7.75-4,7.75-9.801v-1.7h-0.1c-1.45,3.15-4.75,4.7-8.051,4.7c-7.7,0-11.551-6.05-11.551-13.101
		c0-6.101,2.95-13.651,11.951-13.651c3.25,0,6.15,1.45,7.7,4.3h0.05v-3.7h4.001V479.522z M1206.01,468.271
		c0-4.55-2.001-9.25-7.351-9.25c-5.45,0-7.65,4.45-7.65,9.4c0,4.65,1.699,9.851,7.3,9.851S1206.01,473.122,1206.01,468.271z"/>
	<path fill="#333333" d="M1238.659,473.521c-1.15,5.75-5.201,8.801-11.051,8.801c-8.251,0-12.151-5.75-12.401-13.601
		c0-7.8,5.101-13.451,12.151-13.451c9.15,0,11.95,8.551,11.7,14.801h-19.351c-0.15,4.5,2.399,8.5,8.05,8.5
		c3.551,0,5.95-1.65,6.701-5.05H1238.659z M1234.559,466.321c-0.25-4.05-3.2-7.3-7.45-7.3c-4.4,0-7.15,3.3-7.4,7.3H1234.559z"/>
	<path fill="#333333" d="M1243.457,455.871h4v3.8h0.101c1.95-2.95,4.7-4.4,8.351-4.4c3.2,0,6.05,1.2,7.1,4.4
		c1.751-2.8,4.751-4.4,8.101-4.4c5.15,0,8.601,2.15,8.601,7.5v18.951h-4.25v-16.951c0-3.2-0.85-5.75-5-5.75s-6.751,2.6-6.751,6.6
		v16.101h-4.25v-16.951c0-3.35-1.05-5.75-4.851-5.75c-5,0-6.9,4.6-6.9,6.6v16.101h-4.25V455.871z"/>
	<path fill="#333333" d="M1308.158,473.521c-1.15,5.75-5.201,8.801-11.051,8.801c-8.251,0-12.151-5.75-12.401-13.601
		c0-7.8,5.101-13.451,12.151-13.451c9.15,0,11.95,8.551,11.7,14.801h-19.351c-0.15,4.5,2.399,8.5,8.05,8.5
		c3.551,0,5.95-1.65,6.701-5.05H1308.158z M1304.058,466.321c-0.25-4.05-3.2-7.3-7.45-7.3c-4.4,0-7.15,3.3-7.4,7.3H1304.058z"/>
	<path fill="#333333" d="M1312.956,455.871h4v4.1h0.101c1.8-3.2,4.65-4.7,8.4-4.7c6.8,0,8.9,3.9,8.9,9.451v17.001h-4.25v-17.501
		c0-3.2-2-5.2-5.251-5.2c-5.15,0-7.65,3.45-7.65,8.1v14.601h-4.25V455.871z"/>
	<path fill="#333333" d="M1346.656,455.871h5.15v3.75h-5.15v16.051c0,2,0.55,2.3,3.2,2.3h1.95v3.75h-3.25c-4.4,0-6.15-0.9-6.15-5.65
		v-16.451h-4.4v-3.75h4.4v-7.75h4.25V455.871z"/>
	<path fill="#333333" d="M1391.757,456.471c-0.551-5.15-3.9-7.3-8.851-7.3c-4.051,0-8.001,1.45-8.001,6.1
		c0,8.801,22.852,2.6,22.852,16.651c0,7.601-7.45,10.651-13.951,10.651c-8,0-14.75-3.95-14.75-12.601h4.5c0,6,5,8.6,10.4,8.6
		c4.301,0,9.051-1.35,9.051-6.5c0-9.801-22.852-3.351-22.852-16.451c0-7.201,6.4-10.451,12.951-10.451c7.3,0,12.9,3.45,13.15,11.301
		H1391.757z"/>
	<path fill="#333333" d="M1418.605,445.17c11.351,0,17.102,8.951,17.102,18.701s-5.751,18.701-17.102,18.701
		s-17.101-8.951-17.101-18.701S1407.255,445.17,1418.605,445.17z M1418.605,478.572c8.701,0,12.351-7.5,12.351-14.701
		c0-7.201-3.649-14.701-12.351-14.701c-8.7,0-12.351,7.5-12.351,14.701C1406.255,471.071,1409.905,478.572,1418.605,478.572z"/>
	<path fill="#333333" d="M1441.505,446.02h15.65c7.15,0,10.951,3.9,10.951,10.551s-3.801,10.601-10.951,10.55h-10.9v14.601h-4.75
		V446.02z M1446.255,463.121h9.301c5.4,0.05,7.801-2.3,7.801-6.55c0-4.25-2.4-6.551-7.801-6.551h-9.301V463.121z"/>
	<path fill="#333333" d="M210.472,551.623c-4.8-7.451-7.851-14.651-7.851-23.402c0-7.85,2.7-16.2,7.851-23.051h3.25
		c-4.8,7.551-6.6,14.9-6.6,23.051c0,8.401,1.85,15.752,6.6,23.402H210.472z"/>
	<path fill="#333333" d="M249.373,541.723h-4.951l-8.15-30.002h-0.1l-8.25,30.002h-4.95l-9.15-35.703h4.85l7,29.702h0.1l8-29.702
		h5.15l7.9,29.702h0.1l7.25-29.702h4.75L249.373,541.723z"/>
	<path fill="#333333" d="M263.42,506.02h4.75v15.352h18.801V506.02h4.75v35.703h-4.75v-16.352H268.17v16.352h-4.75V506.02z"/>
	<path fill="#333333" d="M295.619,545.473h25.001v2.5h-25.001V545.473z"/>
	<path fill="#333333" d="M353.621,544.822l-5.45-4.4c-2.4,1.45-5.25,2.15-8.551,2.15c-11.351,0-17.101-8.951-17.101-18.701
		s5.75-18.701,17.101-18.701c11.351,0,17.101,8.951,17.101,18.701c0,5.45-1.8,10.65-5.4,14.201l4.701,3.75L353.621,544.822z
		 M343.121,531.521l4.75,3.801c2.8-2.801,4.101-7.102,4.101-11.451c0-7.201-3.65-14.701-12.351-14.701
		c-8.7,0-12.351,7.5-12.351,14.701c0,7.2,3.65,14.701,12.351,14.701c1.75,0,3.4-0.35,4.951-1l-3.951-3.15L343.121,531.521z"/>
	<path fill="#333333" d="M362.619,506.02h6.5l11.251,30.002l11.301-30.002h6.5v35.703h-4.5v-29.702h-0.1l-11.151,29.702h-4.05
		l-11.15-29.702h-0.1v29.702h-4.5V506.02z"/>
	<path fill="#333333" d="M426.719,516.471c-0.55-5.15-3.9-7.301-8.85-7.301c-4.05,0-8,1.45-8,6.101
		c0,8.801,22.851,2.601,22.851,16.651c0,7.6-7.45,10.65-13.951,10.65c-8,0-14.751-3.95-14.751-12.601h4.5c0,6,5,8.601,10.4,8.601
		c4.3,0,9.051-1.351,9.051-6.5c0-9.801-22.852-3.352-22.852-16.451c0-7.201,6.4-10.451,12.951-10.451
		c7.3,0,12.901,3.45,13.151,11.301H426.719z"/>
	<path fill="#333333" d="M434.568,545.473h25.001v2.5h-25.001V545.473z"/>
	<path fill="#333333" d="M484.119,516.471c-0.55-5.15-3.9-7.301-8.85-7.301c-4.05,0-8,1.45-8,6.101
		c0,8.801,22.851,2.601,22.851,16.651c0,7.6-7.45,10.65-13.951,10.65c-8,0-14.751-3.95-14.751-12.601h4.5c0,6,5,8.601,10.4,8.601
		c4.3,0,9.051-1.351,9.051-6.5c0-9.801-22.852-3.352-22.852-16.451c0-7.201,6.4-10.451,12.951-10.451
		c7.301,0,12.901,3.45,13.151,11.301H484.119z"/>
	<path fill="#333333" d="M510.969,505.17c11.351,0,17.101,8.951,17.101,18.701s-5.75,18.701-17.101,18.701
		c-11.351,0-17.101-8.951-17.101-18.701S499.618,505.17,510.969,505.17z M510.969,538.572c8.701,0,12.351-7.501,12.351-14.701
		c0-7.201-3.65-14.701-12.351-14.701c-8.7,0-12.351,7.5-12.351,14.701C498.618,531.071,502.269,538.572,510.969,538.572z"/>
	<path fill="#333333" d="M533.868,506.02h15.651c7.15,0,10.951,3.9,10.951,10.551s-3.8,10.602-10.951,10.551h-10.901v14.602h-4.75
		V506.02z M538.618,523.121h9.301c5.4,0.05,7.8-2.301,7.8-6.551s-2.4-6.551-7.8-6.551h-9.301V523.121z"/>
	<path fill="#333333" d="M562.367,545.473h25.001v2.5h-25.001V545.473z"/>
	<path fill="#333333" d="M601.268,506.27c11.101,0,11.801,10.251,11.801,18.052c0,7.8-0.7,18.001-11.801,18.001
		s-11.801-10.201-11.801-18.001C589.467,516.521,590.167,506.27,601.268,506.27z M601.268,538.572c7.25,0,7.3-9.001,7.3-14.301
		c0-5.25-0.05-14.252-7.3-14.252s-7.3,9.002-7.3,14.252C593.968,529.571,594.018,538.572,601.268,538.572z"/>
	<path fill="#333333" d="M629.068,506.27c11.101,0,11.801,10.251,11.801,18.052c0,7.8-0.7,18.001-11.801,18.001
		s-11.801-10.201-11.801-18.001C617.267,516.521,617.967,506.27,629.068,506.27z M629.068,538.572c7.25,0,7.3-9.001,7.3-14.301
		c0-5.25-0.05-14.252-7.3-14.252s-7.3,9.002-7.3,14.252C621.768,529.571,621.817,538.572,629.068,538.572z"/>
	<path fill="#333333" d="M656.868,506.27c11.101,0,11.801,10.251,11.801,18.052c0,7.8-0.7,18.001-11.801,18.001
		s-11.801-10.201-11.801-18.001C645.067,516.521,645.767,506.27,656.868,506.27z M656.868,538.572c7.25,0,7.3-9.001,7.3-14.301
		c0-5.25-0.05-14.252-7.3-14.252s-7.3,9.002-7.3,14.252C649.567,529.571,649.617,538.572,656.868,538.572z"/>
	<path fill="#333333" d="M691.718,529.672h4.8v3.75h-4.8v8.301h-4v-8.301h-15.551v-4.101l16.151-23.052h3.4V529.672z
		 M687.718,529.672V512.32h-0.1l-11.801,17.352H687.718z"/>
	<path fill="#333333" d="M698.066,551.623c4.8-7.551,6.601-14.901,6.601-23.052c0-8.4-1.85-15.751-6.601-23.401h3.25
		c4.8,7.451,7.851,14.65,7.851,23.401c0,7.851-2.7,16.201-7.851,23.052H698.066z"/>
	<path fill="#333333" d="M714.816,506.02h5.55v5.551c0,3.95-1.7,7.351-5.5,7.351v-2.501c2.25,0,2.9-2.549,2.9-4.85h-2.95V506.02z
		 M723.966,506.02h5.55v5.551c0,3.95-1.7,7.351-5.5,7.351v-2.501c2.25,0,2.9-2.549,2.9-4.85h-2.95V506.02z"/>
</g>
<line fill="none" stroke="#343636" stroke-width="4" stroke-miterlimit="10" x1="53.283" y1="54.113" x2="1919.92" y2="54.113"/>
<g>
	<g>
		<path fill="#A1B400" d="M1896.311,963.803c-0.018,0.006-0.023,0.023-0.035,0.035c-8.024,7.99-21.014,7.955-29.01-0.063
			l-62.547-62.846c-7.979-8.025-7.949-20.991,0.035-28.976c0.017-0.012,0.028-0.023,0.034-0.035
			c8.033-7.995,21.022-7.967,29.006,0.063l62.557,62.846C1904.32,942.853,1904.301,955.807,1896.311,963.803L1896.311,963.803z"/>
		<path fill="#C2D64C" d="M1887.386,963.412c-3.081,3.071-8.12,3.055-11.209-0.046l-62.547-62.847
			c-3.075-3.095-3.075-8.122,0.012-11.211c3.117-3.101,8.156-3.09,11.243,0.011l62.55,62.847c3.074,3.101,3.074,8.122-0.015,11.217
			L1887.386,963.412z"/>
		<path fill="#0E303F" d="M1682.715,749.655c0-0.006,0-0.006,0-0.006c15.2-15.204,35.392-23.551,56.84-23.517
			c44.202,0.081,80.103,36.108,80.022,80.305c-0.035,21.33-8.385,41.412-23.504,56.536c-15.195,15.192-35.369,23.533-56.809,23.504
			c-21.385-0.034-41.499-8.427-56.634-23.607c-15.132-15.188-23.447-35.326-23.407-56.714
			C1659.262,784.837,1667.6,764.767,1682.715,749.655L1682.715,749.655z"/>
		<g>
			<path fill="none" d="M1789.314,856.186"/>
		</g>
		<path fill="#D1ECFB" d="M1697.233,764.146c-11.252,11.252-17.464,26.191-17.499,42.062c-0.062,32.893,26.646,59.705,59.544,59.757
			c15.958,0.028,30.978-6.185,42.31-17.511l0,0c11.249-11.252,17.459-26.18,17.488-42.039c0.028-15.906-6.167-30.892-17.434-42.2
			c-11.266-11.31-26.23-17.546-42.146-17.574C1723.562,746.617,1708.549,752.83,1697.233,764.146L1697.233,764.146z"/>
		<path fill="#FFFFFF" d="M1781.643,764.215c-11.266-11.31-26.23-17.546-42.146-17.574c-4.48-0.006-8.885,0.495-13.158,1.449
			c-6.494,2.935-12.479,7.036-17.678,12.247c-11.255,11.246-17.462,26.186-17.49,42.062c-0.063,32.887,26.651,59.699,59.544,59.763
			c4.481,0.006,8.894-0.495,13.167-1.449c6.504-2.945,12.501-7.053,17.706-12.259l0,0c11.249-11.252,17.459-26.18,17.488-42.039
			C1799.104,790.509,1792.909,775.523,1781.643,764.215z"/>
		<g>
			<path fill="#0E303F" d="M1812.821,880.352c-4.007,3.998-10.501,3.98-14.502-0.034l-12.773-13.186
				c-3.992-4.015-3.986-10.492,0.012-14.49c0,0,0.018-0.006,0.023-0.018c4.012-3.992,10.498-3.986,14.502,0.035l12.773,13.19
				c3.989,4.004,3.983,10.486-0.015,14.484C1812.842,880.334,1812.824,880.346,1812.821,880.352z"/>
		</g>
		<g>
			<path fill="#2C5871" d="M1739.546,730.666c41.703,0.08,75.571,34.072,75.496,75.766c-0.043,20.14-7.918,39.077-22.179,53.338
				c-14.29,14.3-33.267,22.17-53.443,22.17c-0.046,0-0.095,0-0.142,0l0.018-10.09c0.04,0,0.086,0,0.124,0
				c17.481,0,33.919-6.823,46.304-19.22c12.363-12.355,19.191-28.768,19.229-46.215c0.063-36.132-29.286-65.584-65.426-65.659
				L1739.546,730.666L1739.546,730.666z"/>
		</g>
	</g>
</g>
</svg>
