<?xml version="1.0" encoding="utf-8"?>
<!-- Generator: Adobe Illustrator 16.0.3, SVG Export Plug-In . SVG Version: 6.00 Build 0)  -->
<!DOCTYPE svg PUBLIC "-//W3C//DTD SVG 1.1//EN" "http://www.w3.org/Graphics/SVG/1.1/DTD/svg11.dtd">
<svg version="1.1" id="Layer_1" xmlns="http://www.w3.org/2000/svg" xmlns:xlink="http://www.w3.org/1999/xlink" x="0px" y="0px"
	 width="2048px" height="1000px" viewBox="0 0 2048 1000" enable-background="new 0 0 2048 1000" xml:space="preserve">
<rect fill="#B9E5FB" width="2048" height="1000"/>
<g>
	<g>
		<g>
			<polygon fill="#FFFFFF" points="1934.946,829.021 1934.946,541.297 1934.946,344.876 1779.95,204.115 720.421,204.115 
				720.421,829.021 			"/>
			<g>
				<polygon fill="#2C5871" points="1779.95,344.876 1934.946,344.876 1779.95,204.115 				"/>
				<polygon fill="#D1ECFB" points="1934.946,344.876 1779.95,344.876 1934.946,485.615 				"/>
			</g>
		</g>
	</g>
</g>
<rect fill="#4EA8DE" width="570" height="1000"/>
<line fill="none" stroke="#343636" stroke-width="4.1836" stroke-miterlimit="10" x1="634.206" y1="51.818" x2="2005.867" y2="51.818"/>
<g>
	<g>
		<path fill="#333333" d="M1049.238,254.134c3.168,0,5.729,2.528,5.729,5.695c0,3.168-2.561,5.728-5.729,5.728
			c-3.166,0-5.695-2.56-5.695-5.728C1043.543,256.662,1046.072,254.134,1049.238,254.134z"/>
		<path fill="#333333" d="M1077.529,248.407h10.75c4.32,0,6.943,2.304,6.943,5.983c0,2.784-1.184,5.023-3.967,5.792v0.064
			c2.656,0.512,3.168,2.496,3.424,4.704c0.16,2.208,0.064,4.768,1.344,6.304h-3.393c-0.863-0.928-0.383-3.392-0.832-5.632
			c-0.352-2.208-0.863-4.127-3.807-4.127h-7.424v9.759h-3.039V248.407z M1086.904,258.934c2.814,0,5.279-0.736,5.279-4.063
			c0-2.272-1.217-3.904-4.064-3.904h-7.551v7.967H1086.904z"/>
		<path fill="#333333" d="M1113.111,266.005c-0.736,3.68-3.328,5.631-7.072,5.631c-5.279,0-7.775-3.68-7.934-8.703
			c0-4.992,3.264-8.607,7.775-8.607c5.855,0,7.646,5.472,7.486,9.471h-12.383c-0.096,2.88,1.535,5.44,5.152,5.44
			c2.271,0,3.807-1.056,4.287-3.232H1113.111z M1110.488,261.397c-0.16-2.592-2.049-4.671-4.768-4.671
			c-2.816,0-4.576,2.112-4.736,4.671H1110.488z"/>
		<path fill="#333333" d="M1130.967,277.588h-2.719v-8.575h-0.064c-0.896,1.824-2.977,2.624-5.279,2.624
			c-5.088,0-7.615-4.032-7.615-8.703c0-4.672,2.494-8.607,7.551-8.607c1.664,0,4.16,0.64,5.344,2.592h0.064v-2.208h2.719V277.588z
			 M1123.287,269.237c3.68,0,5.057-3.168,5.057-6.24c0-3.232-1.473-6.271-5.217-6.271c-3.711,0-4.959,3.167-4.959,6.399
			C1118.168,266.229,1119.768,269.237,1123.287,269.237z"/>
		<path fill="#333333" d="M1148.855,271.253h-2.561v-2.624h-0.064c-1.152,2.048-2.975,3.008-5.375,3.008
			c-4.352,0-5.695-2.496-5.695-6.047V254.71h2.719v11.199c0,2.048,1.281,3.328,3.359,3.328c3.297,0,4.896-2.208,4.896-5.184v-9.343
			h2.721V271.253z"/>
		<path fill="#333333" d="M1167.062,266.005c-0.736,3.68-3.328,5.631-7.072,5.631c-5.279,0-7.775-3.68-7.934-8.703
			c0-4.992,3.264-8.607,7.775-8.607c5.855,0,7.646,5.472,7.486,9.471h-12.383c-0.096,2.88,1.535,5.44,5.152,5.44
			c2.271,0,3.807-1.056,4.287-3.232H1167.062z M1164.439,261.397c-0.16-2.592-2.049-4.671-4.768-4.671
			c-2.816,0-4.576,2.112-4.736,4.671H1164.439z"/>
		<path fill="#333333" d="M1171.799,266.037c0.096,2.432,2.24,3.2,4.447,3.2c1.697,0,4-0.384,4-2.464
			c0-4.256-10.814-1.376-10.814-7.744c0-3.328,3.264-4.704,6.176-4.704c3.711,0,6.527,1.152,6.783,5.184h-2.721
			c-0.16-2.112-2.08-2.784-3.84-2.784c-1.631,0-3.52,0.448-3.52,2.112c0,1.92,2.881,2.304,5.408,2.88
			c2.721,0.608,5.408,1.536,5.408,4.704c0,3.968-3.68,5.215-7.041,5.215c-3.711,0-6.846-1.504-7.006-5.6H1171.799z"/>
		<path fill="#333333" d="M1189.91,254.71h3.297v2.4h-3.297v10.271c0,1.28,0.354,1.472,2.049,1.472h1.248v2.4h-2.08
			c-2.816,0-3.936-0.576-3.936-3.616V257.11h-2.816v-2.4h2.816v-4.959h2.719V254.71z"/>
		<path fill="#333333" d="M1203.352,254.326c5.246,0,8.031,3.808,8.031,8.671c0,4.832-2.785,8.639-8.031,8.639
			c-5.248,0-8.031-3.808-8.031-8.639C1195.32,258.134,1198.104,254.326,1203.352,254.326z M1203.352,269.237
			c2.848,0,5.15-2.24,5.15-6.24s-2.303-6.271-5.15-6.271s-5.152,2.272-5.152,6.271S1200.504,269.237,1203.352,269.237z"/>
		<path fill="#333333" d="M1214.486,254.71h2.561v3.488h0.062c1.312-2.688,3.137-3.968,6.08-3.872v2.88
			c-4.383,0-5.982,2.464-5.982,6.688v7.359h-2.721V254.71z"/>
		<path fill="#333333" d="M1234.039,254.71h2.561v3.488h0.062c1.312-2.688,3.137-3.968,6.08-3.872v2.88
			c-4.383,0-5.982,2.464-5.982,6.688v7.359h-2.721V254.71z"/>
		<path fill="#333333" d="M1258.902,266.005c-0.736,3.68-3.328,5.631-7.072,5.631c-5.279,0-7.775-3.68-7.934-8.703
			c0-4.992,3.264-8.607,7.775-8.607c5.855,0,7.646,5.472,7.486,9.471h-12.383c-0.096,2.88,1.535,5.44,5.152,5.44
			c2.271,0,3.807-1.056,4.287-3.232H1258.902z M1256.279,261.397c-0.16-2.592-2.049-4.671-4.768-4.671
			c-2.816,0-4.576,2.112-4.736,4.671H1256.279z"/>
		<path fill="#333333" d="M1276.758,277.588h-2.719v-8.575h-0.064c-0.896,1.824-2.977,2.624-5.279,2.624
			c-5.088,0-7.615-4.032-7.615-8.703c0-4.672,2.494-8.607,7.551-8.607c1.664,0,4.16,0.64,5.344,2.592h0.064v-2.208h2.719V277.588z
			 M1269.078,269.237c3.68,0,5.057-3.168,5.057-6.24c0-3.232-1.473-6.271-5.217-6.271c-3.711,0-4.959,3.167-4.959,6.399
			C1263.959,266.229,1265.559,269.237,1269.078,269.237z"/>
		<path fill="#333333" d="M1294.646,271.253h-2.561v-2.624h-0.064c-1.152,2.048-2.975,3.008-5.375,3.008
			c-4.352,0-5.695-2.496-5.695-6.047V254.71h2.719v11.199c0,2.048,1.281,3.328,3.359,3.328c3.297,0,4.896-2.208,4.896-5.184v-9.343
			h2.721V271.253z"/>
		<path fill="#333333" d="M1312.854,266.005c-0.736,3.68-3.328,5.631-7.072,5.631c-5.279,0-7.775-3.68-7.934-8.703
			c0-4.992,3.264-8.607,7.775-8.607c5.855,0,7.646,5.472,7.486,9.471h-12.383c-0.096,2.88,1.535,5.44,5.152,5.44
			c2.271,0,3.807-1.056,4.287-3.232H1312.854z M1310.23,261.397c-0.16-2.592-2.049-4.671-4.768-4.671
			c-2.816,0-4.576,2.112-4.736,4.671H1310.23z"/>
		<path fill="#333333" d="M1317.59,266.037c0.096,2.432,2.24,3.2,4.447,3.2c1.697,0,4-0.384,4-2.464
			c0-4.256-10.814-1.376-10.814-7.744c0-3.328,3.264-4.704,6.176-4.704c3.711,0,6.527,1.152,6.783,5.184h-2.721
			c-0.16-2.112-2.08-2.784-3.84-2.784c-1.631,0-3.52,0.448-3.52,2.112c0,1.92,2.881,2.304,5.408,2.88
			c2.721,0.608,5.408,1.536,5.408,4.704c0,3.968-3.68,5.215-7.041,5.215c-3.711,0-6.846-1.504-7.006-5.6H1317.59z"/>
		<path fill="#333333" d="M1335.701,254.71h3.297v2.4h-3.297v10.271c0,1.28,0.354,1.472,2.049,1.472h1.248v2.4h-2.08
			c-2.816,0-3.936-0.576-3.936-3.616V257.11h-2.816v-2.4h2.816v-4.959h2.719V254.71z"/>
		<path fill="#333333" d="M1343.67,266.037c0.096,2.432,2.24,3.2,4.447,3.2c1.697,0,4-0.384,4-2.464
			c0-4.256-10.814-1.376-10.814-7.744c0-3.328,3.264-4.704,6.176-4.704c3.711,0,6.527,1.152,6.783,5.184h-2.721
			c-0.16-2.112-2.08-2.784-3.84-2.784c-1.631,0-3.52,0.448-3.52,2.112c0,1.92,2.881,2.304,5.408,2.88
			c2.721,0.608,5.408,1.536,5.408,4.704c0,3.968-3.68,5.215-7.041,5.215c-3.711,0-6.846-1.504-7.006-5.6H1343.67z"/>
		<path fill="#333333" d="M1378.135,260.022c-0.416-2.08-1.824-3.296-4.096-3.296c-3.936,0-5.152,3.136-5.152,6.463
			c0,3.072,1.375,6.048,4.832,6.048c2.656,0,4.191-1.504,4.543-4.032h2.783c-0.607,4.063-3.104,6.431-7.295,6.431
			c-5.055,0-7.742-3.488-7.742-8.447s2.559-8.863,7.807-8.863c3.775,0,6.719,1.76,7.135,5.696H1378.135z"/>
		<path fill="#333333" d="M1384.086,248.407h2.721v8.735h0.064c0.863-2.016,3.264-2.816,5.215-2.816
			c4.352,0,5.695,2.496,5.695,6.047v10.879h-2.719v-11.199c0-2.048-1.281-3.328-3.361-3.328c-3.295,0-4.895,2.208-4.895,5.184v9.343
			h-2.721V248.407z"/>
		<path fill="#333333" d="M1416.533,271.189c-0.48,0.288-1.152,0.448-1.951,0.448c-1.408,0-2.305-0.768-2.305-2.56
			c-1.504,1.792-3.52,2.56-5.824,2.56c-3.006,0-5.471-1.312-5.471-4.64c0-3.744,2.783-4.576,5.6-5.087
			c2.977-0.608,5.568-0.352,5.568-2.432c0-2.399-1.984-2.751-3.68-2.751c-2.305,0-4,0.704-4.129,3.136h-2.719
			c0.16-4.096,3.295-5.536,7.008-5.536c2.975,0,6.207,0.672,6.207,4.543v8.512c0,1.28,0,1.856,0.863,1.856
			c0.256,0,0.545-0.064,0.832-0.16V271.189z M1412.117,262.709c-2.111,1.568-8.256,0.032-8.256,4.096
			c0,1.792,1.537,2.432,3.201,2.432c3.584,0,5.055-2.208,5.055-3.744V262.709z"/>
		<path fill="#333333" d="M1419.062,254.71h2.559v2.624h0.064c1.152-2.048,2.977-3.008,5.375-3.008c4.354,0,5.697,2.496,5.697,6.047
			v10.879h-2.721v-11.199c0-2.048-1.279-3.328-3.359-3.328c-3.297,0-4.896,2.208-4.896,5.184v9.343h-2.719V254.71z"/>
		<path fill="#333333" d="M1451.125,269.845c0,5.407-2.432,8.127-7.68,8.127c-3.104,0-6.688-1.28-6.848-4.864h2.721
			c0.096,1.952,2.527,2.688,4.287,2.688c3.553,0,4.959-2.56,4.959-6.271v-1.088h-0.062c-0.93,2.016-3.041,3.008-5.152,3.008
			c-4.928,0-7.391-3.872-7.391-8.383c0-3.904,1.887-8.735,7.646-8.735c2.08,0,3.936,0.928,4.928,2.752h0.031v-2.368h2.561V269.845z
			 M1448.438,262.646c0-2.912-1.279-5.919-4.703-5.919c-3.488,0-4.896,2.848-4.896,6.016c0,2.976,1.088,6.303,4.672,6.303
			S1448.438,265.75,1448.438,262.646z"/>
		<path fill="#333333" d="M1469.332,266.005c-0.736,3.68-3.328,5.631-7.072,5.631c-5.279,0-7.775-3.68-7.934-8.703
			c0-4.992,3.264-8.607,7.775-8.607c5.855,0,7.646,5.472,7.486,9.471h-12.383c-0.096,2.88,1.535,5.44,5.152,5.44
			c2.271,0,3.807-1.056,4.287-3.232H1469.332z M1466.709,261.397c-0.16-2.592-2.049-4.671-4.768-4.671
			c-2.816,0-4.576,2.112-4.736,4.671H1466.709z"/>
		<path fill="#333333" d="M1485.076,254.71h3.297v2.4h-3.297v10.271c0,1.28,0.354,1.472,2.049,1.472h1.248v2.4h-2.08
			c-2.816,0-3.936-0.576-3.936-3.616V257.11h-2.816v-2.4h2.816v-4.959h2.719V254.71z"/>
		<path fill="#333333" d="M1491.381,248.407h2.721v8.735h0.064c0.863-2.016,3.264-2.816,5.215-2.816
			c4.352,0,5.695,2.496,5.695,6.047v10.879h-2.719v-11.199c0-2.048-1.281-3.328-3.361-3.328c-3.295,0-4.895,2.208-4.895,5.184v9.343
			h-2.721V248.407z"/>
		<path fill="#333333" d="M1509.078,254.71h2.559v3.488h0.064c1.312-2.688,3.137-3.968,6.08-3.872v2.88
			c-4.385,0-5.984,2.464-5.984,6.688v7.359h-2.719V254.71z"/>
		<path fill="#333333" d="M1526.965,254.326c5.246,0,8.031,3.808,8.031,8.671c0,4.832-2.785,8.639-8.031,8.639
			c-5.248,0-8.031-3.808-8.031-8.639C1518.934,258.134,1521.717,254.326,1526.965,254.326z M1526.965,269.237
			c2.848,0,5.15-2.24,5.15-6.24s-2.303-6.271-5.15-6.271s-5.152,2.272-5.152,6.271S1524.117,269.237,1526.965,269.237z"/>
		<path fill="#333333" d="M1551.891,271.253h-2.561v-2.624h-0.062c-1.152,2.048-2.977,3.008-5.377,3.008
			c-4.352,0-5.695-2.496-5.695-6.047V254.71h2.721v11.199c0,2.048,1.279,3.328,3.359,3.328c3.295,0,4.896-2.208,4.896-5.184v-9.343
			h2.719V271.253z"/>
		<path fill="#333333" d="M1570.258,269.845c0,5.407-2.432,8.127-7.678,8.127c-3.105,0-6.688-1.28-6.848-4.864h2.719
			c0.096,1.952,2.527,2.688,4.289,2.688c3.551,0,4.959-2.56,4.959-6.271v-1.088h-0.064c-0.928,2.016-3.039,3.008-5.152,3.008
			c-4.926,0-7.391-3.872-7.391-8.383c0-3.904,1.889-8.735,7.648-8.735c2.078,0,3.936,0.928,4.926,2.752h0.033v-2.368h2.559V269.845z
			 M1567.57,262.646c0-2.912-1.279-5.919-4.703-5.919c-3.488,0-4.896,2.848-4.896,6.016c0,2.976,1.09,6.303,4.672,6.303
			C1566.227,269.045,1567.57,265.75,1567.57,262.646z"/>
		<path fill="#333333" d="M1574.355,248.407h2.721v8.735h0.064c0.863-2.016,3.264-2.816,5.215-2.816
			c4.352,0,5.695,2.496,5.695,6.047v10.879h-2.719v-11.199c0-2.048-1.281-3.328-3.361-3.328c-3.295,0-4.895,2.208-4.895,5.184v9.343
			h-2.721V248.407z"/>
		<path fill="#333333" d="M1091.982,309.653h-2.561v-2.624h-0.062c-1.152,2.048-2.977,3.008-5.377,3.008
			c-4.352,0-5.695-2.496-5.695-6.047V293.11h2.721v11.199c0,2.048,1.279,3.328,3.359,3.328c3.295,0,4.896-2.208,4.896-5.184v-9.343
			h2.719V309.653z"/>
		<path fill="#333333" d="M1096.176,293.11h2.719v2.24h0.064c0.896-1.824,2.977-2.624,5.279-2.624c5.088,0,7.615,4.032,7.615,8.703
			c0,4.704-2.494,8.607-7.551,8.607c-1.664,0-4.16-0.64-5.344-2.592h-0.064v8.543h-2.719V293.11z M1103.855,295.126
			c-3.68,0-5.057,3.167-5.057,6.239c0,3.232,1.473,6.272,5.217,6.272c3.711,0,4.959-3.168,4.959-6.4
			C1108.975,298.134,1107.375,295.126,1103.855,295.126z"/>
		<path fill="#333333" d="M1129.838,309.653h-2.719v-2.24h-0.064c-0.896,1.824-2.977,2.624-5.279,2.624
			c-5.088,0-7.615-4.032-7.615-8.703c0-4.672,2.494-8.607,7.551-8.607c1.664,0,4.16,0.64,5.344,2.592h0.064v-8.511h2.719V309.653z
			 M1122.158,307.637c3.68,0,5.057-3.168,5.057-6.24c0-3.232-1.473-6.271-5.217-6.271c-3.711,0-4.959,3.167-4.959,6.399
			C1117.039,304.629,1118.639,307.637,1122.158,307.637z"/>
		<path fill="#333333" d="M1148.686,309.589c-0.48,0.288-1.152,0.448-1.951,0.448c-1.408,0-2.305-0.768-2.305-2.56
			c-1.504,1.792-3.52,2.56-5.824,2.56c-3.006,0-5.471-1.312-5.471-4.64c0-3.744,2.783-4.576,5.6-5.087
			c2.977-0.608,5.568-0.352,5.568-2.432c0-2.4-1.984-2.752-3.68-2.752c-2.305,0-4,0.704-4.129,3.136h-2.719
			c0.16-4.096,3.295-5.536,7.008-5.536c2.975,0,6.207,0.672,6.207,4.543v8.512c0,1.28,0,1.856,0.863,1.856
			c0.256,0,0.545-0.064,0.832-0.16V309.589z M1144.27,301.109c-2.111,1.568-8.256,0.032-8.256,4.096
			c0,1.792,1.537,2.432,3.201,2.432c3.584,0,5.055-2.208,5.055-3.744V301.109z"/>
		<path fill="#333333" d="M1154.99,293.11h3.295v2.4h-3.295v10.271c0,1.28,0.352,1.472,2.047,1.472h1.248v2.4h-2.08
			c-2.814,0-3.936-0.576-3.936-3.616V295.51h-2.814v-2.4h2.814v-4.959h2.721V293.11z"/>
		<path fill="#333333" d="M1164.174,290.134h-2.721v-3.328h2.721V290.134z M1161.453,293.11h2.721v16.543h-2.721V293.11z"/>
		<path fill="#333333" d="M1168.396,293.11h2.561v2.624h0.064c1.15-2.048,2.975-3.008,5.375-3.008c4.352,0,5.695,2.496,5.695,6.047
			v10.879h-2.719v-11.199c0-2.048-1.281-3.328-3.361-3.328c-3.295,0-4.895,2.208-4.895,5.184v9.343h-2.721V293.11z"/>
		<path fill="#333333" d="M1200.459,308.245c0,5.407-2.432,8.127-7.678,8.127c-3.105,0-6.688-1.28-6.848-4.864h2.719
			c0.096,1.952,2.527,2.688,4.289,2.688c3.551,0,4.959-2.56,4.959-6.271v-1.088h-0.064c-0.928,2.016-3.039,3.008-5.152,3.008
			c-4.926,0-7.391-3.872-7.391-8.383c0-3.904,1.889-8.735,7.648-8.735c2.078,0,3.936,0.928,4.926,2.752h0.033v-2.368h2.559V308.245z
			 M1197.771,301.045c0-2.912-1.279-5.919-4.703-5.919c-3.488,0-4.896,2.848-4.896,6.016c0,2.976,1.09,6.303,4.672,6.303
			C1196.428,307.445,1197.771,304.149,1197.771,301.045z"/>
		<path fill="#333333" d="M1217.229,293.11h3.297v2.4h-3.297v10.271c0,1.28,0.354,1.472,2.049,1.472h1.248v2.4h-2.08
			c-2.816,0-3.936-0.576-3.936-3.616V295.51h-2.816v-2.4h2.816v-4.959h2.719V293.11z"/>
		<path fill="#333333" d="M1223.533,286.807h2.721v8.735h0.064c0.863-2.016,3.264-2.816,5.215-2.816
			c4.352,0,5.695,2.496,5.695,6.047v10.879h-2.719v-11.199c0-2.048-1.281-3.328-3.361-3.328c-3.295,0-4.895,2.208-4.895,5.184v9.343
			h-2.721V286.807z"/>
		<path fill="#333333" d="M1255.438,304.405c-0.736,3.68-3.328,5.631-7.072,5.631c-5.279,0-7.775-3.68-7.936-8.703
			c0-4.992,3.264-8.607,7.775-8.607c5.855,0,7.648,5.472,7.488,9.471h-12.385c-0.096,2.88,1.537,5.44,5.152,5.44
			c2.271,0,3.809-1.056,4.287-3.232H1255.438z M1252.812,299.797c-0.16-2.592-2.047-4.671-4.768-4.671
			c-2.816,0-4.576,2.112-4.736,4.671H1252.812z"/>
		<path fill="#333333" d="M1267.309,293.11h2.561v3.488h0.062c1.312-2.688,3.137-3.968,6.08-3.872v2.88
			c-4.383,0-5.982,2.464-5.982,6.688v7.359h-2.721V293.11z"/>
		<path fill="#333333" d="M1292.172,304.405c-0.736,3.68-3.328,5.631-7.072,5.631c-5.279,0-7.775-3.68-7.934-8.703
			c0-4.992,3.264-8.607,7.775-8.607c5.855,0,7.646,5.472,7.486,9.471h-12.383c-0.096,2.88,1.535,5.44,5.152,5.44
			c2.271,0,3.807-1.056,4.287-3.232H1292.172z M1289.549,299.797c-0.16-2.592-2.049-4.671-4.768-4.671
			c-2.816,0-4.576,2.112-4.736,4.671H1289.549z"/>
		<path fill="#333333" d="M1295.404,286.807h2.721v22.846h-2.721V286.807z"/>
		<path fill="#333333" d="M1316.459,304.405c-0.736,3.68-3.328,5.631-7.072,5.631c-5.279,0-7.775-3.68-7.934-8.703
			c0-4.992,3.264-8.607,7.775-8.607c5.855,0,7.646,5.472,7.486,9.471h-12.383c-0.096,2.88,1.535,5.44,5.152,5.44
			c2.271,0,3.807-1.056,4.287-3.232H1316.459z M1313.836,299.797c-0.16-2.592-2.049-4.671-4.768-4.671
			c-2.816,0-4.576,2.112-4.736,4.671H1313.836z"/>
		<path fill="#333333" d="M1326.986,309.653h-2.91l-6.145-16.543h3.039l4.641,13.791h0.064l4.512-13.791h2.848L1326.986,309.653z"/>
		<path fill="#333333" d="M1350.188,309.589c-0.48,0.288-1.152,0.448-1.953,0.448c-1.408,0-2.303-0.768-2.303-2.56
			c-1.504,1.792-3.52,2.56-5.824,2.56c-3.008,0-5.471-1.312-5.471-4.64c0-3.744,2.783-4.576,5.6-5.087
			c2.975-0.608,5.566-0.352,5.566-2.432c0-2.4-1.984-2.752-3.68-2.752c-2.303,0-4,0.704-4.127,3.136h-2.721
			c0.16-4.096,3.297-5.536,7.008-5.536c2.977,0,6.207,0.672,6.207,4.543v8.512c0,1.28,0,1.856,0.865,1.856
			c0.256,0,0.543-0.064,0.832-0.16V309.589z M1345.771,301.109c-2.113,1.568-8.256,0.032-8.256,4.096
			c0,1.792,1.535,2.432,3.199,2.432c3.584,0,5.057-2.208,5.057-3.744V301.109z"/>
		<path fill="#333333" d="M1352.715,293.11h2.561v2.624h0.064c1.15-2.048,2.975-3.008,5.375-3.008c4.352,0,5.695,2.496,5.695,6.047
			v10.879h-2.719v-11.199c0-2.048-1.281-3.328-3.361-3.328c-3.295,0-4.895,2.208-4.895,5.184v9.343h-2.721V293.11z"/>
		<path fill="#333333" d="M1374.283,293.11h3.295v2.4h-3.295v10.271c0,1.28,0.352,1.472,2.047,1.472h1.248v2.4h-2.08
			c-2.814,0-3.936-0.576-3.936-3.616V295.51h-2.814v-2.4h2.814v-4.959h2.721V293.11z"/>
		<path fill="#333333" d="M1404.266,309.653h-2.719v-2.24h-0.064c-0.896,1.824-2.977,2.624-5.279,2.624
			c-5.088,0-7.615-4.032-7.615-8.703c0-4.672,2.494-8.607,7.551-8.607c1.664,0,4.16,0.64,5.344,2.592h0.064v-8.511h2.719V309.653z
			 M1396.586,307.637c3.68,0,5.057-3.168,5.057-6.24c0-3.232-1.473-6.271-5.217-6.271c-3.711,0-4.959,3.167-4.959,6.399
			C1391.467,304.629,1393.066,307.637,1396.586,307.637z"/>
		<path fill="#333333" d="M1415.594,292.726c5.248,0,8.031,3.808,8.031,8.671c0,4.832-2.783,8.639-8.031,8.639
			s-8.031-3.808-8.031-8.639C1407.562,296.534,1410.346,292.726,1415.594,292.726z M1415.594,307.637c2.848,0,5.152-2.24,5.152-6.24
			s-2.305-6.271-5.152-6.271s-5.152,2.272-5.152,6.271S1412.746,307.637,1415.594,307.637z"/>
		<path fill="#333333" d="M1438.059,298.422c-0.416-2.08-1.824-3.296-4.096-3.296c-3.936,0-5.152,3.136-5.152,6.463
			c0,3.072,1.375,6.048,4.832,6.048c2.656,0,4.191-1.504,4.543-4.032h2.783c-0.607,4.063-3.104,6.431-7.295,6.431
			c-5.055,0-7.742-3.488-7.742-8.447s2.559-8.863,7.807-8.863c3.775,0,6.719,1.76,7.135,5.696H1438.059z"/>
		<path fill="#333333" d="M1457.705,309.653h-2.561v-2.624h-0.062c-1.152,2.048-2.977,3.008-5.377,3.008
			c-4.352,0-5.695-2.496-5.695-6.047V293.11h2.721v11.199c0,2.048,1.279,3.328,3.359,3.328c3.295,0,4.896-2.208,4.896-5.184v-9.343
			h2.719V309.653z"/>
		<path fill="#333333" d="M1461.803,293.11h2.559v2.432h0.064c1.248-1.888,3.008-2.816,5.344-2.816c2.049,0,3.871,0.768,4.543,2.816
			c1.121-1.792,3.041-2.816,5.184-2.816c3.297,0,5.504,1.376,5.504,4.8v12.127h-2.719v-10.847c0-2.048-0.545-3.68-3.201-3.68
			c-2.654,0-4.318,1.664-4.318,4.224v10.303h-2.721v-10.847c0-2.144-0.672-3.68-3.104-3.68c-3.199,0-4.416,2.944-4.416,4.224v10.303
			h-2.719V293.11z"/>
		<path fill="#333333" d="M1503.209,304.405c-0.736,3.68-3.328,5.631-7.072,5.631c-5.279,0-7.775-3.68-7.934-8.703
			c0-4.992,3.264-8.607,7.775-8.607c5.855,0,7.646,5.472,7.486,9.471h-12.383c-0.096,2.88,1.535,5.44,5.152,5.44
			c2.271,0,3.807-1.056,4.287-3.232H1503.209z M1500.586,299.797c-0.16-2.592-2.049-4.671-4.768-4.671
			c-2.816,0-4.576,2.112-4.736,4.671H1500.586z"/>
		<path fill="#333333" d="M1506.281,293.11h2.561v2.624h0.064c1.15-2.048,2.975-3.008,5.375-3.008c4.352,0,5.695,2.496,5.695,6.047
			v10.879h-2.719v-11.199c0-2.048-1.281-3.328-3.361-3.328c-3.295,0-4.895,2.208-4.895,5.184v9.343h-2.721V293.11z"/>
		<path fill="#333333" d="M1527.85,293.11h3.295v2.4h-3.295v10.271c0,1.28,0.352,1.472,2.047,1.472h1.248v2.4h-2.08
			c-2.814,0-3.936-0.576-3.936-3.616V295.51h-2.814v-2.4h2.814v-4.959h2.721V293.11z"/>
		<path fill="#333333" d="M1548.809,309.589c-0.48,0.288-1.152,0.448-1.953,0.448c-1.408,0-2.303-0.768-2.303-2.56
			c-1.504,1.792-3.52,2.56-5.824,2.56c-3.008,0-5.471-1.312-5.471-4.64c0-3.744,2.783-4.576,5.6-5.087
			c2.975-0.608,5.566-0.352,5.566-2.432c0-2.4-1.984-2.752-3.68-2.752c-2.303,0-4,0.704-4.127,3.136h-2.721
			c0.16-4.096,3.297-5.536,7.008-5.536c2.977,0,6.207,0.672,6.207,4.543v8.512c0,1.28,0,1.856,0.865,1.856
			c0.256,0,0.543-0.064,0.832-0.16V309.589z M1544.393,301.109c-2.113,1.568-8.256,0.032-8.256,4.096
			c0,1.792,1.535,2.432,3.199,2.432c3.584,0,5.057-2.208,5.057-3.744V301.109z"/>
		<path fill="#333333" d="M1555.111,293.11h3.297v2.4h-3.297v10.271c0,1.28,0.354,1.472,2.049,1.472h1.248v2.4h-2.08
			c-2.816,0-3.936-0.576-3.936-3.616V295.51h-2.816v-2.4h2.816v-4.959h2.719V293.11z"/>
		<path fill="#333333" d="M1564.297,290.134h-2.721v-3.328h2.721V290.134z M1561.576,293.11h2.721v16.543h-2.721V293.11z"/>
		<path fill="#333333" d="M1575.656,292.726c5.246,0,8.031,3.808,8.031,8.671c0,4.832-2.785,8.639-8.031,8.639
			c-5.248,0-8.031-3.808-8.031-8.639C1567.625,296.534,1570.408,292.726,1575.656,292.726z M1575.656,307.637
			c2.848,0,5.15-2.24,5.15-6.24s-2.303-6.271-5.15-6.271s-5.152,2.272-5.152,6.271S1572.809,307.637,1575.656,307.637z"/>
		<path fill="#333333" d="M1586.887,293.11h2.561v2.624h0.064c1.15-2.048,2.975-3.008,5.375-3.008c4.352,0,5.695,2.496,5.695,6.047
			v10.879h-2.719v-11.199c0-2.048-1.281-3.328-3.361-3.328c-3.295,0-4.895,2.208-4.895,5.184v9.343h-2.721V293.11z"/>
	</g>
</g>
<g>
	<g>
		<path fill="#333333" d="M1049.238,435.973c3.168,0,5.729,2.528,5.729,5.695c0,3.168-2.561,5.728-5.729,5.728
			c-3.166,0-5.695-2.56-5.695-5.728C1043.543,438.5,1046.072,435.973,1049.238,435.973z"/>
		<path fill="#333333" d="M1087.191,429.701c7.264,0,10.943,5.728,10.943,11.967c0,6.24-3.68,11.967-10.943,11.967
			s-10.943-5.728-10.943-11.967C1076.248,435.429,1079.928,429.701,1087.191,429.701z M1087.191,451.076
			c5.568,0,7.904-4.8,7.904-9.408c0-4.607-2.336-9.407-7.904-9.407c-5.566,0-7.902,4.8-7.902,9.407
			C1079.289,446.276,1081.625,451.076,1087.191,451.076z"/>
		<path fill="#333333" d="M1101.305,436.548h2.561v3.488h0.062c1.312-2.688,3.137-3.968,6.08-3.872v2.88
			c-4.383,0-5.982,2.464-5.982,6.688v7.359h-2.721V436.548z"/>
		<path fill="#333333" d="M1114.938,433.573h-2.721v-3.328h2.721V433.573z M1112.217,436.548h2.721v16.543h-2.721V436.548z"/>
		<path fill="#333333" d="M1133.432,451.684c0,5.407-2.432,8.127-7.68,8.127c-3.104,0-6.688-1.28-6.848-4.864h2.721
			c0.096,1.952,2.527,2.688,4.287,2.688c3.553,0,4.959-2.56,4.959-6.271v-1.088h-0.062c-0.93,2.016-3.041,3.008-5.152,3.008
			c-4.928,0-7.391-3.872-7.391-8.383c0-3.904,1.887-8.735,7.646-8.735c2.08,0,3.936,0.928,4.928,2.752h0.031v-2.368h2.561V451.684z
			 M1130.744,444.484c0-2.912-1.279-5.919-4.703-5.919c-3.488,0-4.896,2.848-4.896,6.016c0,2.976,1.088,6.303,4.672,6.303
			S1130.744,447.588,1130.744,444.484z"/>
		<path fill="#333333" d="M1140.408,433.573h-2.721v-3.328h2.721V433.573z M1137.688,436.548h2.721v16.543h-2.721V436.548z"/>
		<path fill="#333333" d="M1144.631,436.548h2.561v2.624h0.064c1.15-2.048,2.975-3.008,5.375-3.008c4.352,0,5.695,2.496,5.695,6.047
			v10.879h-2.719v-11.199c0-2.048-1.281-3.328-3.361-3.328c-3.295,0-4.895,2.208-4.895,5.184v9.343h-2.721V436.548z"/>
		<path fill="#333333" d="M1177.078,453.027c-0.48,0.288-1.152,0.448-1.951,0.448c-1.408,0-2.305-0.768-2.305-2.56
			c-1.504,1.792-3.52,2.56-5.824,2.56c-3.006,0-5.471-1.312-5.471-4.64c0-3.744,2.783-4.576,5.6-5.087
			c2.977-0.608,5.568-0.352,5.568-2.432c0-2.399-1.984-2.751-3.68-2.751c-2.305,0-4,0.704-4.129,3.136h-2.719
			c0.16-4.096,3.295-5.536,7.008-5.536c2.975,0,6.207,0.672,6.207,4.543v8.512c0,1.28,0,1.856,0.863,1.856
			c0.256,0,0.545-0.064,0.832-0.16V453.027z M1172.662,444.548c-2.111,1.568-8.256,0.032-8.256,4.096
			c0,1.792,1.537,2.432,3.201,2.432c3.584,0,5.055-2.208,5.055-3.744V444.548z"/>
		<path fill="#333333" d="M1179.768,430.245h2.719v22.846h-2.719V430.245z"/>
		<path fill="#333333" d="M1210.262,453.027c-0.48,0.288-1.152,0.448-1.953,0.448c-1.408,0-2.303-0.768-2.303-2.56
			c-1.504,1.792-3.52,2.56-5.824,2.56c-3.008,0-5.471-1.312-5.471-4.64c0-3.744,2.783-4.576,5.6-5.087
			c2.975-0.608,5.566-0.352,5.566-2.432c0-2.399-1.984-2.751-3.68-2.751c-2.303,0-4,0.704-4.127,3.136h-2.721
			c0.16-4.096,3.297-5.536,7.008-5.536c2.977,0,6.207,0.672,6.207,4.543v8.512c0,1.28,0,1.856,0.865,1.856
			c0.256,0,0.543-0.064,0.832-0.16V453.027z M1205.846,444.548c-2.113,1.568-8.256,0.032-8.256,4.096
			c0,1.792,1.535,2.432,3.199,2.432c3.584,0,5.057-2.208,5.057-3.744V444.548z"/>
		<path fill="#333333" d="M1212.885,436.548h2.721v2.24h0.064c0.895-1.824,2.975-2.624,5.279-2.624c5.088,0,7.615,4.032,7.615,8.703
			c0,4.704-2.496,8.607-7.551,8.607c-1.664,0-4.16-0.64-5.344-2.592h-0.064v8.543h-2.721V436.548z M1220.564,438.564
			c-3.68,0-5.055,3.167-5.055,6.239c0,3.232,1.471,6.272,5.215,6.272c3.713,0,4.961-3.168,4.961-6.4
			C1225.686,441.572,1224.084,438.564,1220.564,438.564z"/>
		<path fill="#333333" d="M1231.861,436.548h2.719v2.24h0.064c0.896-1.824,2.977-2.624,5.279-2.624c5.088,0,7.615,4.032,7.615,8.703
			c0,4.704-2.494,8.607-7.551,8.607c-1.664,0-4.16-0.64-5.344-2.592h-0.064v8.543h-2.719V436.548z M1239.541,438.564
			c-3.68,0-5.057,3.167-5.057,6.239c0,3.232,1.473,6.272,5.217,6.272c3.711,0,4.959-3.168,4.959-6.4
			C1244.66,441.572,1243.061,438.564,1239.541,438.564z"/>
		<path fill="#333333" d="M1250.645,436.548h2.561v3.488h0.062c1.312-2.688,3.137-3.968,6.08-3.872v2.88
			c-4.383,0-5.982,2.464-5.982,6.688v7.359h-2.721V436.548z"/>
		<path fill="#333333" d="M1268.533,436.165c5.246,0,8.031,3.808,8.031,8.671c0,4.832-2.785,8.639-8.031,8.639
			c-5.248,0-8.031-3.808-8.031-8.639C1260.502,439.972,1263.285,436.165,1268.533,436.165z M1268.533,451.076
			c2.848,0,5.15-2.24,5.15-6.24s-2.303-6.271-5.15-6.271s-5.152,2.272-5.152,6.271S1265.686,451.076,1268.533,451.076z"/>
		<path fill="#333333" d="M1287.219,453.091h-2.91l-6.145-16.543h3.039l4.641,13.791h0.064l4.512-13.791h2.848L1287.219,453.091z"/>
		<path fill="#333333" d="M1309.875,447.844c-0.736,3.68-3.328,5.631-7.072,5.631c-5.279,0-7.775-3.68-7.934-8.703
			c0-4.992,3.264-8.607,7.775-8.607c5.855,0,7.646,5.472,7.486,9.471h-12.383c-0.096,2.88,1.535,5.44,5.152,5.44
			c2.271,0,3.807-1.056,4.287-3.232H1309.875z M1307.252,443.236c-0.16-2.592-2.049-4.671-4.768-4.671
			c-2.816,0-4.576,2.112-4.736,4.671H1307.252z"/>
		<path fill="#333333" d="M1312.852,436.548h2.561v3.488h0.062c1.312-2.688,3.137-3.968,6.08-3.872v2.88
			c-4.383,0-5.982,2.464-5.982,6.688v7.359h-2.721V436.548z"/>
		<path fill="#333333" d="M1325.268,447.875c0.096,2.432,2.24,3.2,4.447,3.2c1.697,0,4-0.384,4-2.464
			c0-4.256-10.814-1.376-10.814-7.744c0-3.328,3.264-4.704,6.176-4.704c3.711,0,6.527,1.152,6.783,5.184h-2.721
			c-0.16-2.112-2.08-2.784-3.84-2.784c-1.631,0-3.52,0.448-3.52,2.112c0,1.92,2.881,2.304,5.408,2.88
			c2.721,0.608,5.408,1.536,5.408,4.704c0,3.968-3.68,5.215-7.041,5.215c-3.711,0-6.846-1.504-7.006-5.6H1325.268z"/>
		<path fill="#333333" d="M1348.404,436.548h2.561v3.488h0.062c1.312-2.688,3.137-3.968,6.08-3.872v2.88
			c-4.383,0-5.982,2.464-5.982,6.688v7.359h-2.721V436.548z"/>
		<path fill="#333333" d="M1373.268,447.844c-0.736,3.68-3.328,5.631-7.072,5.631c-5.279,0-7.775-3.68-7.934-8.703
			c0-4.992,3.264-8.607,7.775-8.607c5.855,0,7.646,5.472,7.486,9.471h-12.383c-0.096,2.88,1.535,5.44,5.152,5.44
			c2.271,0,3.807-1.056,4.287-3.232H1373.268z M1370.645,443.236c-0.16-2.592-2.049-4.671-4.768-4.671
			c-2.816,0-4.576,2.112-4.736,4.671H1370.645z"/>
		<path fill="#333333" d="M1383.795,453.091h-2.91l-6.145-16.543h3.039l4.641,13.791h0.064l4.512-13.791h2.848L1383.795,453.091z"/>
		<path fill="#333333" d="M1395.221,433.573h-2.721v-3.328h2.721V433.573z M1392.5,436.548h2.721v16.543h-2.721V436.548z"/>
		<path fill="#333333" d="M1413.555,447.844c-0.736,3.68-3.328,5.631-7.072,5.631c-5.279,0-7.775-3.68-7.934-8.703
			c0-4.992,3.264-8.607,7.775-8.607c5.855,0,7.646,5.472,7.486,9.471h-12.383c-0.096,2.88,1.535,5.44,5.152,5.44
			c2.271,0,3.807-1.056,4.287-3.232H1413.555z M1410.932,443.236c-0.16-2.592-2.049-4.671-4.768-4.671
			c-2.816,0-4.576,2.112-4.736,4.671H1410.932z"/>
		<path fill="#333333" d="M1433.01,453.091h-2.879l-3.359-13.151h-0.064l-3.328,13.151h-2.943l-5.312-16.543h3.008l3.744,13.535
			h0.064l3.328-13.535h2.975l3.457,13.535h0.062l3.713-13.535h2.814L1433.01,453.091z"/>
	</g>
</g>
<g>
	<g>
		<line fill="none" stroke="#4EA8DE" stroke-width="2" stroke-miterlimit="10" x1="851" y1="321.724" x2="851" y2="391.371"/>
		<g>
			<polygon fill="#4EA8DE" points="838.729,381.429 840.929,379.382 850.997,390.218 861.069,379.382 863.267,381.429 
				850.997,394.625 			"/>
		</g>
	</g>
</g>
<g>
	<path fill="#074164" d="M793.701,253.023c-0.352-2.271-2.528-4-4.992-4c-4.512,0-6.208,3.84-6.208,7.84
		c0,3.808,1.696,7.647,6.208,7.647c3.072,0,4.799-2.08,5.184-5.12h4.863c-0.512,5.729-4.416,9.344-10.047,9.344
		c-7.04,0-11.231-5.279-11.231-11.871c0-6.783,4.192-12.063,11.231-12.063c4.992,0,9.247,2.944,9.855,8.224H793.701z"/>
	<path fill="#074164" d="M801.702,245.343h4.543v8.607h0.096c1.152-1.888,3.136-2.752,4.832-2.752c4.832,0,6.047,2.721,6.047,6.816
		v10.175h-4.543v-9.344c0-2.72-0.768-4.063-2.912-4.063c-2.464,0-3.52,1.376-3.52,4.736v8.671h-4.543V245.343z"/>
	<path fill="#074164" d="M820.486,256.735c0.256-4.224,4.063-5.536,7.775-5.536c3.295,0,7.263,0.736,7.263,4.704v8.607
		c0,1.504,0.16,3.008,0.576,3.68h-4.608c-0.16-0.512-0.288-1.056-0.32-1.6c-1.44,1.504-3.52,2.048-5.568,2.048
		c-3.167,0-5.631-1.568-5.631-4.96c0.064-7.52,11.199-3.487,11.007-7.199c0-1.92-1.344-2.24-2.944-2.24
		c-1.76,0-2.848,0.704-3.008,2.496H820.486z M830.981,260.094c-0.768,0.672-2.368,0.704-3.776,0.96s-2.688,0.769-2.688,2.432
		c0,1.664,1.312,2.112,2.784,2.112c3.552,0,3.68-2.784,3.68-3.808V260.094z"/>
	<path fill="#074164" d="M839.045,251.647h4.319v2.304h0.096c1.152-1.888,3.136-2.752,5.056-2.752c4.832,0,6.047,2.721,6.047,6.816
		v10.175h-4.543v-9.344c0-2.72-0.768-4.063-2.912-4.063c-2.464,0-3.52,1.376-3.52,4.736v8.671h-4.543V251.647z"/>
	<path fill="#074164" d="M873.924,267.134c0,2.72-0.992,7.327-8.576,7.327c-3.264,0-7.04-1.567-7.295-5.312h4.512
		c0.416,1.696,1.76,2.271,3.392,2.271c2.528,0,3.68-1.695,3.648-4.096v-2.176h-0.064c-0.992,1.76-2.944,2.561-4.959,2.561
		c-4.992,0-7.072-3.776-7.072-8.32c0-4.287,2.496-8.191,7.104-8.191c2.176,0,3.808,0.736,4.928,2.656h0.064v-2.208h4.32V267.134z
		 M869.604,259.71c0-2.688-0.928-5.088-3.872-5.088c-2.56,0-3.68,2.24-3.68,4.704c0,2.368,0.864,4.96,3.68,4.96
		C868.324,264.287,869.604,262.079,869.604,259.71z"/>
	<path fill="#074164" d="M881.316,261.023c0.128,2.911,1.504,4.191,4.063,4.191c1.824,0,3.296-1.12,3.584-2.145h4
		c-1.28,3.937-4,5.568-7.743,5.568c-5.216,0-8.448-3.584-8.448-8.704c0-4.959,3.424-8.735,8.448-8.735
		c5.631,0,8.383,4.736,8.031,9.824H881.316z M888.708,258.143c-0.416-2.305-1.408-3.521-3.616-3.521c-2.944,0-3.68,2.24-3.776,3.521
		H888.708z"/>
	<path fill="#074164" d="M778.47,283.744h12.319c4.096,0,6.688,2.848,6.688,6.304c0,2.688-1.056,4.704-3.616,5.728v0.064
		c2.464,0.672,3.168,3.008,3.328,5.344c0.096,1.439,0.032,4.159,0.96,5.407h-5.023c-0.576-1.439-0.544-3.647-0.8-5.472
		c-0.352-2.399-1.28-3.456-3.808-3.456h-5.023v8.928h-5.023V283.744z M783.494,294.08h5.503c2.272,0,3.456-0.96,3.456-3.264
		c0-2.208-1.184-3.168-3.456-3.168h-5.503V294.08z"/>
	<path fill="#074164" d="M804.837,299.423c0.128,2.911,1.504,4.191,4.063,4.191c1.824,0,3.296-1.12,3.584-2.145h4
		c-1.28,3.937-4,5.568-7.743,5.568c-5.216,0-8.448-3.584-8.448-8.704c0-4.959,3.424-8.735,8.448-8.735
		c5.631,0,8.383,4.736,8.031,9.824H804.837z M812.229,296.543c-0.416-2.305-1.408-3.521-3.616-3.521c-2.944,0-3.68,2.24-3.776,3.521
		H812.229z"/>
	<path fill="#074164" d="M835.588,312.414h-4.543v-7.903h-0.064c-1.056,1.792-3.2,2.528-5.216,2.528
		c-3.04,0-7.007-2.208-7.007-8.607c0-4.544,2.4-8.832,7.423-8.832c2.048,0,4,0.736,5.024,2.561h0.064v-2.112h4.319V312.414z
		 M827.237,303.615c2.944,0,3.968-2.496,3.968-5.216c0-2.56-1.024-5.376-3.872-5.376c-2.976,0-4.032,2.624-4.032,5.312
		C823.301,300.991,824.261,303.615,827.237,303.615z"/>
	<path fill="#074164" d="M854.532,306.59h-4.319v-2.304h-0.096c-1.152,1.888-3.136,2.752-5.056,2.752
		c-4.832,0-6.047-2.72-6.047-6.815v-10.176h4.543v9.344c0,2.72,0.768,4.063,2.912,4.063c2.464,0,3.52-1.376,3.52-4.735v-8.672h4.543
		V306.59z"/>
	<path fill="#074164" d="M861.732,299.423c0.128,2.911,1.504,4.191,4.063,4.191c1.824,0,3.296-1.12,3.584-2.145h4
		c-1.28,3.937-4,5.568-7.743,5.568c-5.216,0-8.448-3.584-8.448-8.704c0-4.959,3.424-8.735,8.448-8.735
		c5.631,0,8.383,4.736,8.031,9.824H861.732z M869.124,296.543c-0.416-2.305-1.408-3.521-3.616-3.521c-2.944,0-3.68,2.24-3.776,3.521
		H869.124z"/>
	<path fill="#074164" d="M879.876,301.214c0,1.952,1.728,2.784,3.488,2.784c1.28,0,2.976-0.512,2.976-2.112
		c0-1.375-1.919-1.888-5.151-2.56c-2.656-0.607-5.248-1.472-5.248-4.415c0-4.225,3.647-5.312,7.199-5.312
		c3.584,0,6.944,1.217,7.295,5.28h-4.319c-0.128-1.76-1.472-2.24-3.104-2.24c-1.024,0-2.528,0.16-2.528,1.536
		c0,1.632,2.592,1.855,5.152,2.464c2.656,0.607,5.248,1.567,5.248,4.64c0,4.352-3.808,5.76-7.552,5.76
		c-3.839,0-7.615-1.44-7.775-5.824H879.876z"/>
	<path fill="#074164" d="M899.299,290.047h3.328v3.04h-3.328v8.191c0,1.536,0.384,1.92,1.92,1.92c0.512,0,0.992-0.032,1.408-0.128
		v3.552c-0.768,0.128-1.76,0.16-2.656,0.16c-2.815,0-5.215-0.608-5.215-3.937v-9.759h-2.752v-3.04h2.752v-4.96h4.543V290.047z"/>
</g>
<g>
	<path fill="#074164" d="M778.47,427.943h12.319c4.096,0,6.688,2.848,6.688,6.304c0,2.688-1.056,4.704-3.616,5.728v0.064
		c2.464,0.672,3.168,3.008,3.328,5.344c0.096,1.439,0.032,4.159,0.96,5.407h-5.023c-0.576-1.439-0.544-3.647-0.8-5.472
		c-0.352-2.399-1.28-3.456-3.808-3.456h-5.023v8.928h-5.023V427.943z M783.494,438.279h5.503c2.272,0,3.456-0.96,3.456-3.264
		c0-2.208-1.184-3.168-3.456-3.168h-5.503V438.279z"/>
	<path fill="#074164" d="M804.837,443.622c0.128,2.912,1.504,4.192,4.063,4.192c1.824,0,3.296-1.12,3.584-2.144h4
		c-1.28,3.936-4,5.567-7.743,5.567c-5.216,0-8.448-3.584-8.448-8.704c0-4.959,3.424-8.735,8.448-8.735
		c5.631,0,8.383,4.736,8.031,9.823H804.837z M812.229,440.743c-0.416-2.305-1.408-3.521-3.616-3.521c-2.944,0-3.68,2.24-3.776,3.521
		H812.229z"/>
	<path fill="#074164" d="M828.613,450.79h-5.056l-5.664-16.543h4.768l3.488,11.295h0.064l3.488-11.295h4.512L828.613,450.79z"/>
	<path fill="#074164" d="M840.772,431.688h-4.543v-3.744h4.543V431.688z M836.229,434.247h4.543v16.543h-4.543V434.247z"/>
	<path fill="#074164" d="M848.101,443.622c0.128,2.912,1.504,4.192,4.063,4.192c1.824,0,3.296-1.12,3.584-2.144h4
		c-1.28,3.936-4,5.567-7.743,5.567c-5.216,0-8.448-3.584-8.448-8.704c0-4.959,3.424-8.735,8.448-8.735
		c5.631,0,8.383,4.736,8.031,9.823H848.101z M855.492,440.743c-0.416-2.305-1.408-3.521-3.616-3.521c-2.944,0-3.68,2.24-3.776,3.521
		H855.492z"/>
	<path fill="#074164" d="M881.635,450.79h-4.672l-2.944-11.104h-0.064l-2.816,11.104h-4.704l-5.248-16.543h4.8l3.04,11.231h0.064
		l2.752-11.231h4.416l2.816,11.199h0.064l3.04-11.199h4.671L881.635,450.79z"/>
</g>
<g>
	<g>
		<path fill="#333333" d="M1049.238,599.863c3.168,0,5.729,2.527,5.729,5.695s-2.561,5.728-5.729,5.728
			c-3.166,0-5.695-2.56-5.695-5.728S1046.072,599.863,1049.238,599.863z"/>
		<path fill="#333333" d="M1087.191,593.592c7.264,0,10.943,5.728,10.943,11.967c0,6.24-3.68,11.967-10.943,11.967
			s-10.943-5.727-10.943-11.967C1076.248,599.319,1079.928,593.592,1087.191,593.592z M1087.191,614.967
			c5.568,0,7.904-4.801,7.904-9.408s-2.336-9.407-7.904-9.407c-5.566,0-7.902,4.8-7.902,9.407S1081.625,614.967,1087.191,614.967z"
			/>
		<path fill="#333333" d="M1101.4,600.439h2.561v2.623h0.064c1.15-2.047,2.975-3.008,5.375-3.008c4.352,0,5.695,2.496,5.695,6.048
			v10.88h-2.719v-11.199c0-2.049-1.281-3.328-3.361-3.328c-3.295,0-4.895,2.207-4.895,5.184v9.344h-2.721V600.439z"/>
		<path fill="#333333" d="M1130.424,605.751c-0.416-2.08-1.824-3.296-4.096-3.296c-3.936,0-5.152,3.136-5.152,6.463
			c0,3.072,1.377,6.049,4.832,6.049c2.656,0,4.191-1.504,4.545-4.032h2.783c-0.607,4.063-3.104,6.431-7.295,6.431
			c-5.057,0-7.744-3.487-7.744-8.447c0-4.959,2.561-8.863,7.807-8.863c3.777,0,6.721,1.76,7.137,5.696H1130.424z"/>
		<path fill="#333333" d="M1150.488,611.734c-0.736,3.68-3.328,5.631-7.072,5.631c-5.279,0-7.775-3.68-7.936-8.703
			c0-4.991,3.264-8.607,7.775-8.607c5.855,0,7.648,5.473,7.488,9.472h-12.385c-0.096,2.88,1.537,5.44,5.152,5.44
			c2.271,0,3.809-1.057,4.287-3.232H1150.488z M1147.863,607.127c-0.16-2.592-2.047-4.672-4.768-4.672
			c-2.816,0-4.576,2.111-4.736,4.672H1147.863z"/>
		<path fill="#333333" d="M1177.111,616.918c-0.48,0.288-1.152,0.447-1.953,0.447c-1.408,0-2.303-0.768-2.303-2.559
			c-1.504,1.791-3.52,2.559-5.824,2.559c-3.008,0-5.471-1.311-5.471-4.639c0-3.744,2.783-4.576,5.6-5.088
			c2.975-0.607,5.566-0.352,5.566-2.432c0-2.4-1.984-2.752-3.68-2.752c-2.303,0-4,0.703-4.127,3.136h-2.721
			c0.16-4.096,3.297-5.536,7.008-5.536c2.977,0,6.207,0.672,6.207,4.544v8.512c0,1.28,0,1.856,0.865,1.856
			c0.256,0,0.543-0.064,0.832-0.16V616.918z M1172.695,608.438c-2.113,1.567-8.256,0.032-8.256,4.096
			c0,1.792,1.535,2.433,3.199,2.433c3.584,0,5.057-2.209,5.057-3.744V608.438z"/>
		<path fill="#333333" d="M1179.734,600.439h2.721v2.24h0.064c0.895-1.824,2.975-2.625,5.279-2.625c5.088,0,7.615,4.032,7.615,8.703
			c0,4.705-2.496,8.607-7.551,8.607c-1.664,0-4.16-0.639-5.344-2.592h-0.064v8.544h-2.721V600.439z M1187.414,602.455
			c-3.68,0-5.055,3.168-5.055,6.239c0,3.231,1.471,6.272,5.215,6.272c3.713,0,4.961-3.168,4.961-6.4
			C1192.535,605.463,1190.934,602.455,1187.414,602.455z"/>
		<path fill="#333333" d="M1198.711,600.439h2.719v2.24h0.064c0.896-1.824,2.977-2.625,5.279-2.625c5.088,0,7.615,4.032,7.615,8.703
			c0,4.705-2.494,8.607-7.551,8.607c-1.664,0-4.16-0.639-5.344-2.592h-0.064v8.544h-2.719V600.439z M1206.391,602.455
			c-3.68,0-5.057,3.168-5.057,6.239c0,3.231,1.473,6.272,5.217,6.272c3.711,0,4.959-3.168,4.959-6.4
			C1211.51,605.463,1209.91,602.455,1206.391,602.455z"/>
		<path fill="#333333" d="M1217.494,600.439h2.561v3.487h0.062c1.312-2.688,3.137-3.968,6.08-3.872v2.881
			c-4.383,0-5.982,2.463-5.982,6.688v7.359h-2.721V600.439z"/>
		<path fill="#333333" d="M1235.383,600.055c5.246,0,8.031,3.809,8.031,8.672c0,4.832-2.785,8.639-8.031,8.639
			c-5.248,0-8.031-3.807-8.031-8.639C1227.352,603.863,1230.135,600.055,1235.383,600.055z M1235.383,614.967
			c2.848,0,5.15-2.24,5.15-6.24s-2.303-6.271-5.15-6.271s-5.152,2.271-5.152,6.271S1232.535,614.967,1235.383,614.967z"/>
		<path fill="#333333" d="M1254.068,616.982h-2.91l-6.145-16.543h3.039l4.641,13.791h0.064l4.512-13.791h2.848L1254.068,616.982z"/>
		<path fill="#333333" d="M1276.725,611.734c-0.736,3.68-3.328,5.631-7.072,5.631c-5.279,0-7.775-3.68-7.934-8.703
			c0-4.991,3.264-8.607,7.775-8.607c5.855,0,7.646,5.473,7.486,9.472h-12.383c-0.096,2.88,1.535,5.44,5.152,5.44
			c2.271,0,3.807-1.057,4.287-3.232H1276.725z M1274.102,607.127c-0.16-2.592-2.049-4.672-4.768-4.672
			c-2.816,0-4.576,2.111-4.736,4.672H1274.102z"/>
		<path fill="#333333" d="M1294.58,616.982h-2.719v-2.24h-0.064c-0.896,1.824-2.977,2.623-5.279,2.623
			c-5.088,0-7.615-4.031-7.615-8.703s2.494-8.607,7.551-8.607c1.664,0,4.16,0.641,5.344,2.592h0.064v-8.511h2.719V616.982z
			 M1286.9,614.967c3.68,0,5.057-3.168,5.057-6.24c0-3.232-1.473-6.271-5.217-6.271c-3.711,0-4.959,3.168-4.959,6.399
			C1281.781,611.959,1283.381,614.967,1286.9,614.967z"/>
		<path fill="#333333" d="M1307.764,594.136h2.721v8.544h0.064c0.895-1.824,2.975-2.625,5.279-2.625
			c5.088,0,7.615,4.032,7.615,8.703c0,4.705-2.496,8.607-7.551,8.607c-1.664,0-4.16-0.639-5.344-2.592h-0.064v2.209h-2.721V594.136z
			 M1315.443,602.455c-3.68,0-5.055,3.168-5.055,6.239c0,3.231,1.471,6.272,5.215,6.272c3.713,0,4.961-3.168,4.961-6.4
			C1320.564,605.463,1318.963,602.455,1315.443,602.455z"/>
		<path fill="#333333" d="M1333.139,619.189c-1.279,3.2-2.367,4.416-4.799,4.416c-0.641,0-1.279-0.064-1.889-0.288v-2.495
			c0.514,0.159,1.057,0.383,1.602,0.383c1.119,0,1.727-0.512,2.238-1.504l1.121-2.815l-6.561-16.446h3.072l4.832,13.535h0.064
			l4.639-13.535h2.881L1333.139,619.189z"/>
		<path fill="#333333" d="M1355.314,600.439h3.297v2.399h-3.297v10.271c0,1.28,0.354,1.472,2.049,1.472h1.248v2.4h-2.08
			c-2.816,0-3.936-0.576-3.936-3.616v-10.527h-2.816v-2.399h2.816v-4.96h2.719V600.439z"/>
		<path fill="#333333" d="M1361.619,594.136h2.721v8.735h0.064c0.863-2.016,3.264-2.816,5.215-2.816
			c4.352,0,5.695,2.496,5.695,6.048v10.88h-2.719v-11.199c0-2.049-1.281-3.328-3.361-3.328c-3.295,0-4.895,2.207-4.895,5.184v9.344
			h-2.721V594.136z"/>
		<path fill="#333333" d="M1393.523,611.734c-0.736,3.68-3.328,5.631-7.072,5.631c-5.279,0-7.775-3.68-7.936-8.703
			c0-4.991,3.264-8.607,7.775-8.607c5.855,0,7.648,5.473,7.488,9.472h-12.385c-0.096,2.88,1.537,5.44,5.152,5.44
			c2.271,0,3.809-1.057,4.287-3.232H1393.523z M1390.898,607.127c-0.16-2.592-2.047-4.672-4.768-4.672
			c-2.816,0-4.576,2.111-4.736,4.672H1390.898z"/>
		<path fill="#333333" d="M1412.627,600.055c5.246,0,8.031,3.809,8.031,8.672c0,4.832-2.785,8.639-8.031,8.639
			c-5.248,0-8.031-3.807-8.031-8.639C1404.596,603.863,1407.379,600.055,1412.627,600.055z M1412.627,614.967
			c2.848,0,5.15-2.24,5.15-6.24s-2.303-6.271-5.15-6.271s-5.152,2.271-5.152,6.271S1409.779,614.967,1412.627,614.967z"/>
		<path fill="#333333" d="M1423.762,600.439h2.561v3.487h0.062c1.312-2.688,3.137-3.968,6.08-3.872v2.881
			c-4.383,0-5.982,2.463-5.982,6.688v7.359h-2.721V600.439z"/>
		<path fill="#333333" d="M1437.395,597.463h-2.721v-3.327h2.721V597.463z M1434.674,600.439h2.721v16.543h-2.721V600.439z"/>
		<path fill="#333333" d="M1455.889,615.574c0,5.407-2.432,8.127-7.68,8.127c-3.104,0-6.688-1.279-6.848-4.863h2.721
			c0.096,1.951,2.527,2.688,4.287,2.688c3.553,0,4.959-2.56,4.959-6.271v-1.088h-0.062c-0.93,2.016-3.041,3.008-5.152,3.008
			c-4.928,0-7.391-3.871-7.391-8.383c0-3.904,1.887-8.736,7.646-8.736c2.08,0,3.936,0.928,4.928,2.752h0.031v-2.367h2.561V615.574z
			 M1453.201,608.375c0-2.912-1.279-5.92-4.703-5.92c-3.488,0-4.896,2.848-4.896,6.016c0,2.976,1.088,6.303,4.672,6.303
			S1453.201,611.479,1453.201,608.375z"/>
		<path fill="#333333" d="M1462.865,597.463h-2.721v-3.327h2.721V597.463z M1460.145,600.439h2.721v16.543h-2.721V600.439z"/>
		<path fill="#333333" d="M1467.088,600.439h2.561v2.623h0.064c1.15-2.047,2.975-3.008,5.375-3.008c4.352,0,5.695,2.496,5.695,6.048
			v10.88h-2.719v-11.199c0-2.049-1.281-3.328-3.361-3.328c-3.295,0-4.895,2.207-4.895,5.184v9.344h-2.721V600.439z"/>
		<path fill="#333333" d="M1499.535,616.918c-0.48,0.288-1.152,0.447-1.951,0.447c-1.408,0-2.305-0.768-2.305-2.559
			c-1.504,1.791-3.52,2.559-5.824,2.559c-3.006,0-5.471-1.311-5.471-4.639c0-3.744,2.783-4.576,5.6-5.088
			c2.977-0.607,5.568-0.352,5.568-2.432c0-2.4-1.984-2.752-3.68-2.752c-2.305,0-4,0.703-4.129,3.136h-2.719
			c0.16-4.096,3.295-5.536,7.008-5.536c2.975,0,6.207,0.672,6.207,4.544v8.512c0,1.28,0,1.856,0.863,1.856
			c0.256,0,0.545-0.064,0.832-0.16V616.918z M1495.119,608.438c-2.111,1.567-8.256,0.032-8.256,4.096
			c0,1.792,1.537,2.433,3.201,2.433c3.584,0,5.055-2.209,5.055-3.744V608.438z"/>
		<path fill="#333333" d="M1502.225,594.136h2.719v22.847h-2.719V594.136z"/>
		<path fill="#333333" d="M1532.719,616.918c-0.48,0.288-1.152,0.447-1.953,0.447c-1.408,0-2.303-0.768-2.303-2.559
			c-1.504,1.791-3.52,2.559-5.824,2.559c-3.008,0-5.471-1.311-5.471-4.639c0-3.744,2.783-4.576,5.6-5.088
			c2.975-0.607,5.566-0.352,5.566-2.432c0-2.4-1.984-2.752-3.68-2.752c-2.303,0-4,0.703-4.127,3.136h-2.721
			c0.16-4.096,3.297-5.536,7.008-5.536c2.977,0,6.207,0.672,6.207,4.544v8.512c0,1.28,0,1.856,0.865,1.856
			c0.256,0,0.543-0.064,0.832-0.16V616.918z M1528.303,608.438c-2.113,1.567-8.256,0.032-8.256,4.096
			c0,1.792,1.535,2.433,3.199,2.433c3.584,0,5.057-2.209,5.057-3.744V608.438z"/>
		<path fill="#333333" d="M1535.342,600.439h2.721v2.24h0.064c0.895-1.824,2.975-2.625,5.279-2.625c5.088,0,7.615,4.032,7.615,8.703
			c0,4.705-2.496,8.607-7.551,8.607c-1.664,0-4.16-0.639-5.344-2.592h-0.064v8.544h-2.721V600.439z M1543.021,602.455
			c-3.68,0-5.055,3.168-5.055,6.239c0,3.231,1.471,6.272,5.215,6.272c3.713,0,4.961-3.168,4.961-6.4
			C1548.143,605.463,1546.541,602.455,1543.021,602.455z"/>
		<path fill="#333333" d="M1554.318,600.439h2.719v2.24h0.064c0.896-1.824,2.977-2.625,5.279-2.625c5.088,0,7.615,4.032,7.615,8.703
			c0,4.705-2.494,8.607-7.551,8.607c-1.664,0-4.16-0.639-5.344-2.592h-0.064v8.544h-2.719V600.439z M1561.998,602.455
			c-3.68,0-5.057,3.168-5.057,6.239c0,3.231,1.473,6.272,5.217,6.272c3.711,0,4.959-3.168,4.959-6.4
			C1567.117,605.463,1565.518,602.455,1561.998,602.455z"/>
		<path fill="#333333" d="M1573.102,600.439h2.561v3.487h0.062c1.312-2.688,3.137-3.968,6.08-3.872v2.881
			c-4.383,0-5.982,2.463-5.982,6.688v7.359h-2.721V600.439z"/>
		<path fill="#333333" d="M1590.99,600.055c5.246,0,8.031,3.809,8.031,8.672c0,4.832-2.785,8.639-8.031,8.639
			c-5.248,0-8.031-3.807-8.031-8.639C1582.959,603.863,1585.742,600.055,1590.99,600.055z M1590.99,614.967
			c2.848,0,5.15-2.24,5.15-6.24s-2.303-6.271-5.15-6.271s-5.152,2.271-5.152,6.271S1588.143,614.967,1590.99,614.967z"/>
		<path fill="#333333" d="M1609.676,616.982h-2.91l-6.145-16.543h3.039l4.641,13.791h0.064l4.512-13.791h2.848L1609.676,616.982z"/>
		<path fill="#333333" d="M1632.332,611.734c-0.736,3.68-3.328,5.631-7.072,5.631c-5.279,0-7.775-3.68-7.934-8.703
			c0-4.991,3.264-8.607,7.775-8.607c5.855,0,7.646,5.473,7.486,9.472h-12.383c-0.096,2.88,1.535,5.44,5.152,5.44
			c2.271,0,3.807-1.057,4.287-3.232H1632.332z M1629.709,607.127c-0.16-2.592-2.049-4.672-4.768-4.672
			c-2.816,0-4.576,2.111-4.736,4.672H1629.709z"/>
		<path fill="#333333" d="M1635.309,600.439h2.561v3.487h0.062c1.312-2.688,3.137-3.968,6.08-3.872v2.881
			c-4.383,0-5.982,2.463-5.982,6.688v7.359h-2.721V600.439z"/>
		<path fill="#333333" d="M1647.725,611.766c0.096,2.433,2.24,3.201,4.447,3.201c1.697,0,4-0.385,4-2.465
			c0-4.256-10.814-1.375-10.814-7.743c0-3.327,3.264-4.704,6.176-4.704c3.711,0,6.527,1.152,6.783,5.184h-2.721
			c-0.16-2.111-2.08-2.783-3.84-2.783c-1.631,0-3.52,0.447-3.52,2.111c0,1.92,2.881,2.305,5.408,2.881
			c2.721,0.607,5.408,1.535,5.408,4.703c0,3.968-3.68,5.215-7.041,5.215c-3.711,0-6.846-1.504-7.006-5.6H1647.725z"/>
		<path fill="#333333" d="M1662.67,613.43h3.551v3.232c0,2.432-1.057,4.287-3.52,5.023v-1.6c1.408-0.512,1.951-2.048,1.855-3.104
			h-1.887V613.43z"/>
		<path fill="#333333" d="M1683.629,600.439h3.297v2.399h-3.297v10.271c0,1.28,0.354,1.472,2.049,1.472h1.248v2.4h-2.08
			c-2.816,0-3.936-0.576-3.936-3.616v-10.527h-2.816v-2.399h2.816v-4.96h2.719V600.439z"/>
		<path fill="#333333" d="M1689.934,594.136h2.721v8.735h0.064c0.863-2.016,3.264-2.816,5.215-2.816
			c4.352,0,5.695,2.496,5.695,6.048v10.88h-2.719v-11.199c0-2.049-1.281-3.328-3.361-3.328c-3.295,0-4.895,2.207-4.895,5.184v9.344
			h-2.721V594.136z"/>
		<path fill="#333333" d="M1721.838,611.734c-0.736,3.68-3.328,5.631-7.072,5.631c-5.279,0-7.775-3.68-7.936-8.703
			c0-4.991,3.264-8.607,7.775-8.607c5.855,0,7.648,5.473,7.488,9.472h-12.385c-0.096,2.88,1.537,5.44,5.152,5.44
			c2.271,0,3.809-1.057,4.287-3.232H1721.838z M1719.213,607.127c-0.16-2.592-2.047-4.672-4.768-4.672
			c-2.816,0-4.576,2.111-4.736,4.672H1719.213z"/>
		<path fill="#333333" d="M1093.07,655.382h-2.719v-2.239h-0.064c-0.896,1.823-2.977,2.623-5.279,2.623
			c-5.088,0-7.615-4.031-7.615-8.703s2.494-8.607,7.551-8.607c1.664,0,4.16,0.641,5.344,2.592h0.064v-8.512h2.719V655.382z
			 M1085.391,653.366c3.68,0,5.057-3.168,5.057-6.239c0-3.232-1.473-6.271-5.217-6.271c-3.711,0-4.959,3.167-4.959,6.398
			C1080.271,650.358,1081.871,653.366,1085.391,653.366z"/>
		<path fill="#333333" d="M1104.398,638.455c5.248,0,8.031,3.808,8.031,8.672c0,4.831-2.783,8.639-8.031,8.639
			s-8.031-3.808-8.031-8.639C1096.367,642.263,1099.15,638.455,1104.398,638.455z M1104.398,653.366c2.848,0,5.152-2.24,5.152-6.239
			c0-4-2.305-6.271-5.152-6.271s-5.152,2.271-5.152,6.271C1099.246,651.126,1101.551,653.366,1104.398,653.366z"/>
		<path fill="#333333" d="M1126.863,644.15c-0.416-2.08-1.824-3.295-4.096-3.295c-3.936,0-5.152,3.135-5.152,6.463
			c0,3.072,1.375,6.048,4.832,6.048c2.656,0,4.191-1.504,4.543-4.032h2.783c-0.607,4.064-3.104,6.432-7.295,6.432
			c-5.055,0-7.742-3.488-7.742-8.447s2.559-8.863,7.807-8.863c3.775,0,6.719,1.76,7.135,5.695H1126.863z"/>
		<path fill="#333333" d="M1146.51,655.382h-2.561v-2.624h-0.062c-1.152,2.048-2.977,3.008-5.377,3.008
			c-4.352,0-5.695-2.496-5.695-6.047v-10.88h2.721v11.199c0,2.048,1.279,3.328,3.359,3.328c3.295,0,4.896-2.208,4.896-5.185v-9.343
			h2.719V655.382z"/>
		<path fill="#333333" d="M1150.607,638.839h2.559v2.433h0.064c1.248-1.889,3.008-2.816,5.344-2.816
			c2.049,0,3.871,0.768,4.543,2.816c1.121-1.793,3.041-2.816,5.184-2.816c3.297,0,5.504,1.376,5.504,4.8v12.127h-2.719v-10.847
			c0-2.049-0.545-3.68-3.201-3.68c-2.654,0-4.318,1.663-4.318,4.223v10.304h-2.721v-10.847c0-2.145-0.672-3.68-3.104-3.68
			c-3.199,0-4.416,2.943-4.416,4.223v10.304h-2.719V638.839z"/>
		<path fill="#333333" d="M1192.014,650.135c-0.736,3.68-3.328,5.631-7.072,5.631c-5.279,0-7.775-3.68-7.934-8.703
			c0-4.992,3.264-8.607,7.775-8.607c5.855,0,7.646,5.472,7.486,9.471h-12.383c-0.096,2.881,1.535,5.44,5.152,5.44
			c2.271,0,3.807-1.056,4.287-3.231H1192.014z M1189.391,645.526c-0.16-2.592-2.049-4.671-4.768-4.671
			c-2.816,0-4.576,2.111-4.736,4.671H1189.391z"/>
		<path fill="#333333" d="M1195.086,638.839h2.561v2.624h0.064c1.15-2.048,2.975-3.008,5.375-3.008c4.352,0,5.695,2.496,5.695,6.047
			v10.88h-2.719v-11.199c0-2.048-1.281-3.327-3.361-3.327c-3.295,0-4.895,2.207-4.895,5.184v9.343h-2.721V638.839z"/>
		<path fill="#333333" d="M1216.654,638.839h3.295v2.399h-3.295v10.271c0,1.28,0.352,1.473,2.047,1.473h1.248v2.399h-2.08
			c-2.814,0-3.936-0.576-3.936-3.616v-10.527h-2.814v-2.399h2.814v-4.96h2.721V638.839z"/>
		<path fill="#333333" d="M1234.734,635.863h-2.721v-3.328h2.721V635.863z M1232.014,638.839h2.721v16.543h-2.721V638.839z"/>
		<path fill="#333333" d="M1240.621,650.166c0.096,2.432,2.24,3.2,4.447,3.2c1.697,0,4-0.384,4-2.464
			c0-4.256-10.814-1.376-10.814-7.744c0-3.327,3.264-4.703,6.176-4.703c3.711,0,6.527,1.152,6.783,5.184h-2.721
			c-0.16-2.111-2.08-2.783-3.84-2.783c-1.631,0-3.52,0.447-3.52,2.111c0,1.92,2.881,2.304,5.408,2.88
			c2.721,0.608,5.408,1.536,5.408,4.704c0,3.967-3.68,5.215-7.041,5.215c-3.711,0-6.846-1.504-7.006-5.6H1240.621z"/>
		<path fill="#333333" d="M1277.549,655.382h-2.561v-2.624h-0.062c-1.152,2.048-2.977,3.008-5.377,3.008
			c-4.352,0-5.695-2.496-5.695-6.047v-10.88h2.721v11.199c0,2.048,1.279,3.328,3.359,3.328c3.295,0,4.896-2.208,4.896-5.185v-9.343
			h2.719V655.382z"/>
		<path fill="#333333" d="M1281.742,638.839h2.719v2.24h0.064c0.896-1.824,2.977-2.624,5.279-2.624c5.088,0,7.615,4.031,7.615,8.703
			c0,4.704-2.494,8.607-7.551,8.607c-1.664,0-4.16-0.64-5.344-2.592h-0.064v8.543h-2.719V638.839z M1289.422,640.855
			c-3.68,0-5.057,3.167-5.057,6.238c0,3.232,1.473,6.272,5.217,6.272c3.711,0,4.959-3.168,4.959-6.399
			C1294.541,643.863,1292.941,640.855,1289.422,640.855z"/>
		<path fill="#333333" d="M1300.174,645.207h9.248v2.56h-9.248V645.207z"/>
		<path fill="#333333" d="M1320.523,655.382h-2.91l-6.145-16.543h3.039l4.641,13.791h0.064l4.512-13.791h2.848L1320.523,655.382z"/>
		<path fill="#333333" d="M1343.18,650.135c-0.736,3.68-3.328,5.631-7.072,5.631c-5.279,0-7.775-3.68-7.934-8.703
			c0-4.992,3.264-8.607,7.775-8.607c5.855,0,7.646,5.472,7.486,9.471h-12.383c-0.096,2.881,1.535,5.44,5.152,5.44
			c2.271,0,3.807-1.056,4.287-3.231H1343.18z M1340.557,645.526c-0.16-2.592-2.049-4.671-4.768-4.671
			c-2.816,0-4.576,2.111-4.736,4.671H1340.557z"/>
		<path fill="#333333" d="M1346.156,638.839h2.561v3.487h0.062c1.312-2.688,3.137-3.967,6.08-3.871v2.88
			c-4.383,0-5.982,2.464-5.982,6.688v7.359h-2.721V638.839z"/>
		<path fill="#333333" d="M1358.572,650.166c0.096,2.432,2.24,3.2,4.447,3.2c1.697,0,4-0.384,4-2.464
			c0-4.256-10.814-1.376-10.814-7.744c0-3.327,3.264-4.703,6.176-4.703c3.711,0,6.527,1.152,6.783,5.184h-2.721
			c-0.16-2.111-2.08-2.783-3.84-2.783c-1.631,0-3.52,0.447-3.52,2.111c0,1.92,2.881,2.304,5.408,2.88
			c2.721,0.608,5.408,1.536,5.408,4.704c0,3.967-3.68,5.215-7.041,5.215c-3.711,0-6.846-1.504-7.006-5.6H1358.572z"/>
		<path fill="#333333" d="M1375.789,635.863h-2.721v-3.328h2.721V635.863z M1373.068,638.839h2.721v16.543h-2.721V638.839z"/>
		<path fill="#333333" d="M1387.148,638.455c5.246,0,8.031,3.808,8.031,8.672c0,4.831-2.785,8.639-8.031,8.639
			c-5.248,0-8.031-3.808-8.031-8.639C1379.117,642.263,1381.9,638.455,1387.148,638.455z M1387.148,653.366
			c2.848,0,5.15-2.24,5.15-6.239c0-4-2.303-6.271-5.15-6.271s-5.152,2.271-5.152,6.271
			C1381.996,651.126,1384.301,653.366,1387.148,653.366z"/>
		<path fill="#333333" d="M1398.379,638.839h2.561v2.624h0.064c1.15-2.048,2.975-3.008,5.375-3.008c4.352,0,5.695,2.496,5.695,6.047
			v10.88h-2.719v-11.199c0-2.048-1.281-3.327-3.361-3.327c-3.295,0-4.895,2.207-4.895,5.184v9.343h-2.721V638.839z"/>
		<path fill="#333333" d="M1430.283,650.135c-0.736,3.68-3.328,5.631-7.072,5.631c-5.279,0-7.775-3.68-7.936-8.703
			c0-4.992,3.264-8.607,7.775-8.607c5.855,0,7.648,5.472,7.488,9.471h-12.385c-0.096,2.881,1.537,5.44,5.152,5.44
			c2.271,0,3.809-1.056,4.287-3.231H1430.283z M1427.658,645.526c-0.16-2.592-2.047-4.671-4.768-4.671
			c-2.816,0-4.576,2.111-4.736,4.671H1427.658z"/>
		<path fill="#333333" d="M1448.139,655.382h-2.721v-2.239h-0.064c-0.895,1.823-2.975,2.623-5.279,2.623
			c-5.088,0-7.615-4.031-7.615-8.703s2.496-8.607,7.551-8.607c1.664,0,4.16,0.641,5.344,2.592h0.064v-8.512h2.721V655.382z
			 M1440.459,653.366c3.68,0,5.055-3.168,5.055-6.239c0-3.232-1.471-6.271-5.215-6.271c-3.713,0-4.961,3.167-4.961,6.398
			C1435.338,650.358,1436.939,653.366,1440.459,653.366z"/>
		<path fill="#333333" d="M1049.238,686.663c3.168,0,5.729,2.528,5.729,5.695c0,3.168-2.561,5.728-5.729,5.728
			c-3.166,0-5.695-2.56-5.695-5.728C1043.543,689.191,1046.072,686.663,1049.238,686.663z"/>
		<path fill="#333333" d="M1077.529,680.936h7.838c7.041,0,10.977,3.552,10.977,10.879c0,7.647-3.359,11.967-10.977,11.967h-7.838
			V680.936z M1080.568,701.223h5.055c2.08,0,7.68-0.576,7.68-8.992c0-5.439-2.016-8.735-7.615-8.735h-5.119V701.223z"/>
		<path fill="#333333" d="M1106.744,686.855c5.246,0,8.031,3.807,8.031,8.671c0,4.831-2.785,8.64-8.031,8.64
			c-5.248,0-8.031-3.809-8.031-8.64C1098.713,690.662,1101.496,686.855,1106.744,686.855z M1106.744,701.766
			c2.848,0,5.15-2.24,5.15-6.239s-2.303-6.271-5.15-6.271s-5.152,2.272-5.152,6.271S1103.896,701.766,1106.744,701.766z"/>
		<path fill="#333333" d="M1129.207,692.551c-0.416-2.08-1.824-3.296-4.096-3.296c-3.936,0-5.152,3.136-5.152,6.464
			c0,3.071,1.375,6.047,4.832,6.047c2.656,0,4.191-1.504,4.543-4.031h2.783c-0.607,4.063-3.104,6.432-7.295,6.432
			c-5.055,0-7.742-3.488-7.742-8.447c0-4.96,2.559-8.863,7.807-8.863c3.775,0,6.719,1.76,7.135,5.695H1129.207z"/>
		<path fill="#333333" d="M1148.854,703.781h-2.561v-2.623h-0.062c-1.152,2.047-2.977,3.008-5.377,3.008
			c-4.352,0-5.695-2.496-5.695-6.048v-10.88h2.721v11.199c0,2.049,1.279,3.328,3.359,3.328c3.295,0,4.896-2.207,4.896-5.184v-9.344
			h2.719V703.781z"/>
		<path fill="#333333" d="M1152.951,687.238h2.559v2.433h0.064c1.248-1.888,3.008-2.815,5.344-2.815
			c2.049,0,3.871,0.768,4.543,2.815c1.121-1.792,3.041-2.815,5.184-2.815c3.297,0,5.504,1.375,5.504,4.799v12.127h-2.719v-10.847
			c0-2.048-0.545-3.68-3.201-3.68c-2.654,0-4.318,1.663-4.318,4.224v10.303h-2.721v-10.847c0-2.144-0.672-3.68-3.104-3.68
			c-3.199,0-4.416,2.944-4.416,4.224v10.303h-2.719V687.238z"/>
		<path fill="#333333" d="M1194.357,698.534c-0.736,3.68-3.328,5.632-7.072,5.632c-5.279,0-7.775-3.68-7.934-8.703
			c0-4.992,3.264-8.607,7.775-8.607c5.855,0,7.646,5.471,7.486,9.471h-12.383c-0.096,2.88,1.535,5.439,5.152,5.439
			c2.271,0,3.807-1.056,4.287-3.231H1194.357z M1191.734,693.926c-0.16-2.592-2.049-4.671-4.768-4.671
			c-2.816,0-4.576,2.112-4.736,4.671H1191.734z"/>
		<path fill="#333333" d="M1197.43,687.238h2.561v2.625h0.064c1.15-2.049,2.975-3.008,5.375-3.008c4.352,0,5.695,2.495,5.695,6.047
			v10.879h-2.719v-11.199c0-2.047-1.281-3.327-3.361-3.327c-3.295,0-4.895,2.208-4.895,5.184v9.343h-2.721V687.238z"/>
		<path fill="#333333" d="M1218.998,687.238h3.295v2.4h-3.295v10.271c0,1.279,0.352,1.472,2.047,1.472h1.248v2.399h-2.08
			c-2.814,0-3.936-0.576-3.936-3.615v-10.527h-2.814v-2.4h2.814v-4.959h2.721V687.238z"/>
		<path fill="#333333" d="M1237.078,684.264h-2.721v-3.328h2.721V684.264z M1234.357,687.238h2.721v16.543h-2.721V687.238z"/>
		<path fill="#333333" d="M1241.301,687.238h2.561v2.625h0.064c1.15-2.049,2.975-3.008,5.375-3.008c4.352,0,5.695,2.495,5.695,6.047
			v10.879h-2.719v-11.199c0-2.047-1.281-3.327-3.361-3.327c-3.295,0-4.895,2.208-4.895,5.184v9.343h-2.721V687.238z"/>
		<path fill="#333333" d="M1271.764,687.238h3.297v2.4h-3.297v10.271c0,1.279,0.354,1.472,2.049,1.472h1.248v2.399h-2.08
			c-2.816,0-3.936-0.576-3.936-3.615v-10.527h-2.816v-2.4h2.816v-4.959h2.719V687.238z"/>
		<path fill="#333333" d="M1278.068,680.936h2.721v8.735h0.064c0.863-2.017,3.264-2.815,5.215-2.815
			c4.352,0,5.695,2.495,5.695,6.047v10.879h-2.719v-11.199c0-2.047-1.281-3.327-3.361-3.327c-3.295,0-4.895,2.208-4.895,5.184v9.343
			h-2.721V680.936z"/>
		<path fill="#333333" d="M1309.973,698.534c-0.736,3.68-3.328,5.632-7.072,5.632c-5.279,0-7.775-3.68-7.936-8.703
			c0-4.992,3.264-8.607,7.775-8.607c5.855,0,7.648,5.471,7.488,9.471h-12.385c-0.096,2.88,1.537,5.439,5.152,5.439
			c2.271,0,3.809-1.056,4.287-3.231H1309.973z M1307.348,693.926c-0.16-2.592-2.047-4.671-4.768-4.671
			c-2.816,0-4.576,2.112-4.736,4.671H1307.348z"/>
		<path fill="#333333" d="M1322.389,680.936h7.838c7.041,0,10.977,3.552,10.977,10.879c0,7.647-3.359,11.967-10.977,11.967h-7.838
			V680.936z M1325.428,701.223h5.055c2.08,0,7.68-0.576,7.68-8.992c0-5.439-2.016-8.735-7.615-8.735h-5.119V701.223z"/>
		<path fill="#333333" d="M1344.916,680.936h3.039v9.823h12.031v-9.823h3.039v22.846h-3.039v-10.463h-12.031v10.463h-3.039V680.936z
			"/>
		<path fill="#333333" d="M1368.02,680.936h15.006v2.56h-11.967v7.264h10.496v2.56h-10.496v10.463h-3.039V680.936z"/>
	</g>
</g>
<g>
	<g>
		<line fill="none" stroke="#4EA8DE" stroke-width="2" stroke-miterlimit="10" x1="851" y1="485.615" x2="851" y2="555.262"/>
		<g>
			<polygon fill="#4EA8DE" points="838.729,545.32 840.929,543.273 850.997,554.109 861.069,543.273 863.267,545.32 
				850.997,558.516 			"/>
		</g>
	</g>
</g>
<g>
	<path fill="#074164" d="M784.709,591.834h5.152l8.543,22.847h-5.216l-1.728-5.088h-8.543l-1.792,5.088h-5.088L784.709,591.834z
		 M784.229,605.85h5.92l-2.88-8.384h-0.064L784.229,605.85z"/>
	<path fill="#074164" d="M799.91,598.138h4.319v2.112h0.064c1.12-1.792,2.88-2.561,4.928-2.561c5.184,0,7.52,4.192,7.52,8.896
		c0,4.416-2.4,8.544-7.263,8.544c-2.016,0-3.84-0.864-4.96-2.496h-0.064v7.871h-4.543V598.138z M812.197,606.457
		c0-2.655-1.056-5.344-3.968-5.344c-2.976,0-3.936,2.656-3.936,5.344c0,2.688,1.024,5.248,3.968,5.248
		C811.237,611.705,812.197,609.146,812.197,606.457z"/>
	<path fill="#074164" d="M819.462,598.138h4.319v2.112h0.064c1.12-1.792,2.88-2.561,4.928-2.561c5.184,0,7.52,4.192,7.52,8.896
		c0,4.416-2.4,8.544-7.263,8.544c-2.016,0-3.84-0.864-4.96-2.496h-0.064v7.871h-4.543V598.138z M831.749,606.457
		c0-2.655-1.056-5.344-3.968-5.344c-2.976,0-3.936,2.656-3.936,5.344c0,2.688,1.024,5.248,3.968,5.248
		C830.789,611.705,831.749,609.146,831.749,606.457z"/>
	<path fill="#074164" d="M839.014,598.138h4.319v3.072h0.064c0.864-2.08,3.008-3.521,5.28-3.521c0.352,0,0.672,0.064,0.992,0.16
		v4.224c-0.416-0.096-1.088-0.159-1.632-0.159c-3.359,0-4.479,2.367-4.479,5.312v7.455h-4.543V598.138z"/>
	<path fill="#074164" d="M859.493,597.689c5.216,0,8.575,3.456,8.575,8.735c0,5.248-3.359,8.704-8.575,8.704
		c-5.184,0-8.543-3.456-8.543-8.704C850.949,601.146,854.309,597.689,859.493,597.689z M859.493,611.705
		c3.104,0,4.032-2.624,4.032-5.28c0-2.655-0.928-5.312-4.032-5.312c-3.072,0-4,2.656-4,5.312
		C855.493,609.081,856.421,611.705,859.493,611.705z"/>
	<path fill="#074164" d="M880.165,614.681h-5.056l-5.664-16.543h4.768l3.488,11.295h0.064l3.488-11.295h4.512L880.165,614.681z"/>
	<path fill="#074164" d="M887.46,603.226c0.256-4.224,4.064-5.536,7.776-5.536c3.295,0,7.263,0.736,7.263,4.704v8.607
		c0,1.504,0.16,3.008,0.576,3.68h-4.608c-0.16-0.512-0.288-1.056-0.32-1.6c-1.44,1.504-3.52,2.048-5.567,2.048
		c-3.168,0-5.632-1.568-5.632-4.96c0.064-7.52,11.199-3.487,11.007-7.199c0-1.92-1.344-2.24-2.944-2.24
		c-1.76,0-2.848,0.704-3.008,2.496H887.46z M897.956,606.585c-0.768,0.672-2.368,0.704-3.776,0.96s-2.688,0.769-2.688,2.432
		c0,1.664,1.312,2.112,2.784,2.112c3.552,0,3.68-2.784,3.68-3.808V606.585z"/>
	<path fill="#074164" d="M906.148,591.834h4.543v22.847h-4.543V591.834z"/>
	<path fill="#074164" d="M922.98,603.226c0.256-4.224,4.064-5.536,7.776-5.536c3.295,0,7.263,0.736,7.263,4.704v8.607
		c0,1.504,0.16,3.008,0.576,3.68h-4.608c-0.16-0.512-0.288-1.056-0.32-1.6c-1.44,1.504-3.52,2.048-5.567,2.048
		c-3.168,0-5.632-1.568-5.632-4.96c0.064-7.52,11.199-3.487,11.007-7.199c0-1.92-1.344-2.24-2.944-2.24
		c-1.76,0-2.848,0.704-3.008,2.496H922.98z M933.476,606.585c-0.768,0.672-2.368,0.704-3.776,0.96s-2.688,0.769-2.688,2.432
		c0,1.664,1.312,2.112,2.784,2.112c3.552,0,3.68-2.784,3.68-3.808V606.585z"/>
	<path fill="#074164" d="M941.54,598.138h4.319v2.304h0.096c1.152-1.888,3.136-2.752,5.056-2.752c4.832,0,6.047,2.721,6.047,6.816
		v10.175h-4.543v-9.344c0-2.72-0.768-4.063-2.912-4.063c-2.464,0-3.52,1.376-3.52,4.736v8.671h-4.543V598.138z"/>
	<path fill="#074164" d="M972.323,612.568h-0.064c-1.056,1.792-2.88,2.561-5.024,2.561c-4.992,0-7.423-4.256-7.423-8.863
		c0-4.448,2.464-8.576,7.328-8.576c1.952,0,3.872,0.832,4.896,2.464h0.064v-8.319h4.543v22.847h-4.319V612.568z M968.355,601.113
		c-2.976,0-4,2.592-4,5.28c0,2.592,1.184,5.312,4,5.312c2.976,0,3.904-2.624,3.904-5.344
		C972.259,603.674,971.299,601.113,968.355,601.113z"/>
	<path fill="#074164" d="M778.47,630.234h9.855c5.92,0,10.367,3.744,10.367,11.296c0,6.623-3.392,11.551-10.367,11.551h-9.855
		V630.234z M783.494,648.857h4.479c2.912,0,5.696-1.792,5.696-6.848c0-4.607-1.632-7.552-6.591-7.552h-3.584V648.857z"/>
	<path fill="#074164" d="M809.733,636.09c5.216,0,8.575,3.456,8.575,8.735c0,5.248-3.359,8.704-8.575,8.704
		c-5.184,0-8.543-3.456-8.543-8.704C801.19,639.546,804.55,636.09,809.733,636.09z M809.733,650.105c3.104,0,4.032-2.624,4.032-5.28
		c0-2.655-0.928-5.312-4.032-5.312c-3.072,0-4,2.656-4,5.312C805.734,647.481,806.662,650.105,809.733,650.105z"/>
	<path fill="#074164" d="M832.517,642.362c-0.288-1.889-1.408-2.849-3.36-2.849c-2.912,0-3.872,2.944-3.872,5.376
		c0,2.399,0.928,5.216,3.775,5.216c2.144,0,3.328-1.312,3.616-3.36h4.384c-0.608,4.384-3.583,6.784-7.967,6.784
		c-4.992,0-8.352-3.521-8.352-8.479c0-5.151,3.072-8.96,8.447-8.96c3.904,0,7.52,2.048,7.776,6.272H832.517z"/>
	<path fill="#074164" d="M855.14,653.081h-4.319v-2.304h-0.096c-1.152,1.888-3.136,2.752-5.056,2.752
		c-4.832,0-6.047-2.72-6.047-6.815v-10.176h4.543v9.344c0,2.72,0.768,4.063,2.912,4.063c2.464,0,3.52-1.376,3.52-4.735v-8.672h4.543
		V653.081z"/>
	<path fill="#074164" d="M858.725,636.538h4.288v2.24h0.064c1.184-1.696,2.88-2.688,5.056-2.688c2.08,0,3.936,0.736,4.832,2.752
		c0.992-1.439,2.688-2.752,4.992-2.752c3.52,0,6.048,1.632,6.048,5.92v11.071h-4.544v-9.375c0-2.208-0.192-4.032-2.784-4.032
		c-2.56,0-3.04,2.144-3.04,4.192v9.215h-4.543v-9.279c0-1.92,0.128-4.128-2.752-4.128c-0.896,0-3.072,0.576-3.072,3.808v9.6h-4.543
		V636.538z"/>
	<path fill="#074164" d="M891.333,645.913c0.128,2.912,1.504,4.192,4.063,4.192c1.824,0,3.296-1.12,3.584-2.144h4
		c-1.28,3.936-4,5.567-7.743,5.567c-5.216,0-8.448-3.584-8.448-8.704c0-4.959,3.424-8.735,8.448-8.735
		c5.631,0,8.383,4.736,8.031,9.823H891.333z M898.724,643.034c-0.416-2.305-1.408-3.521-3.616-3.521c-2.944,0-3.68,2.24-3.776,3.521
		H898.724z"/>
	<path fill="#074164" d="M905.957,636.538h4.319v2.304h0.096c1.152-1.888,3.136-2.752,5.056-2.752c4.832,0,6.047,2.721,6.047,6.816
		v10.175h-4.543v-9.344c0-2.72-0.768-4.063-2.912-4.063c-2.464,0-3.52,1.376-3.52,4.736v8.671h-4.543V636.538z"/>
	<path fill="#074164" d="M930.691,636.538h3.328v3.04h-3.328v8.191c0,1.536,0.384,1.92,1.92,1.92c0.512,0,0.992-0.032,1.408-0.128
		v3.552c-0.768,0.128-1.76,0.16-2.656,0.16c-2.815,0-5.215-0.608-5.215-3.937v-9.759h-2.752v-3.04h2.752v-4.959h4.543V636.538z"/>
	<path fill="#074164" d="M936.003,641.626c0.256-4.224,4.064-5.536,7.776-5.536c3.295,0,7.263,0.736,7.263,4.704v8.607
		c0,1.504,0.16,3.008,0.576,3.68h-4.608c-0.16-0.512-0.288-1.056-0.32-1.6c-1.44,1.504-3.52,2.048-5.567,2.048
		c-3.168,0-5.632-1.568-5.632-4.96c0.064-7.52,11.199-3.487,11.007-7.199c0-1.92-1.344-2.24-2.944-2.24
		c-1.76,0-2.848,0.704-3.008,2.496H936.003z M946.499,644.985c-0.768,0.672-2.368,0.704-3.776,0.96s-2.688,0.769-2.688,2.432
		c0,1.664,1.312,2.112,2.784,2.112c3.552,0,3.68-2.784,3.68-3.808V644.985z"/>
	<path fill="#074164" d="M960.323,636.538h3.328v3.04h-3.328v8.191c0,1.536,0.384,1.92,1.92,1.92c0.512,0,0.992-0.032,1.408-0.128
		v3.552c-0.768,0.128-1.76,0.16-2.656,0.16c-2.815,0-5.215-0.608-5.215-3.937v-9.759h-2.752v-3.04h2.752v-4.959h4.543V636.538z"/>
	<path fill="#074164" d="M970.499,633.979h-4.543v-3.744h4.543V633.979z M965.955,636.538h4.543v16.543h-4.543V636.538z"/>
	<path fill="#074164" d="M982.114,636.09c5.216,0,8.575,3.456,8.575,8.735c0,5.248-3.359,8.704-8.575,8.704
		c-5.184,0-8.543-3.456-8.543-8.704C973.571,639.546,976.931,636.09,982.114,636.09z M982.114,650.105
		c3.104,0,4.032-2.624,4.032-5.28c0-2.655-0.928-5.312-4.032-5.312c-3.072,0-4,2.656-4,5.312
		C978.115,647.481,979.042,650.105,982.114,650.105z"/>
	<path fill="#074164" d="M993.635,636.538h4.319v2.304h0.096c1.152-1.888,3.136-2.752,5.056-2.752c4.832,0,6.047,2.721,6.047,6.816
		v10.175h-4.543v-9.344c0-2.72-0.768-4.063-2.912-4.063c-2.464,0-3.52,1.376-3.52,4.736v8.671h-4.543V636.538z"/>
</g>
<path fill="#FFFFFF" d="M525.711,461.816H67.067c-4.801,0-8.729-4.5-8.729-10V208.016c0-5.5,3.928-10,8.729-10h458.644
	c4.801,0,8.729,4.5,8.729,10v243.801C534.44,457.316,530.512,461.816,525.711,461.816"/>
<path fill="#EFEFF0" d="M527.328,198.016H258.637v263.8h268.691c3.916,0,7.112-4,7.112-8.9v-246
	C534.44,202.016,531.244,198.016,527.328,198.016"/>
<rect x="85" y="409.895" fill="#8CC63F" width="1.2" height="12.8"/>
<path fill="#8CC63F" d="M88.6,409.895H94c2.1,0,4.1,0.699,4.1,3.1c0,1.3-0.9,2.6-2.2,2.9c1.7,0.199,2.7,1.5,2.7,3.1
	c0,1.2-0.4,3.6-4.6,3.6h-5.4V409.895z M89.8,415.494H94c1.9,0,2.9-1,2.9-2.2c0-1.6-1-2.399-2.9-2.399h-4.2V415.494z M89.8,421.594
	H94c1.8,0,3.4-0.6,3.4-2.6c0-1.7-1.2-2.5-3.4-2.5h-4.2V421.594z"/>
<polygon fill="#8CC63F" points="100.6,409.895 102.4,409.895 106.8,421.094 111.2,409.895 113,409.895 113,422.694 111.8,422.694 
	111.8,411.594 107.4,422.694 106.2,422.694 101.8,411.594 101.8,422.694 100.6,422.694 "/>
<polygon fill="#173E68" points="130.2,422.594 127.4,422.594 125.2,413.895 123.1,422.594 120.2,422.594 116.8,409.794 
	119.6,409.794 121.6,418.494 123.8,409.794 126.4,409.794 128.6,418.594 130.7,409.794 133.5,409.794 "/>
<path fill="#173E68" d="M133.9,416.094c0.2-2.399,2.3-3.1,4.4-3.1c1.8,0,4.1,0.4,4.1,2.6v4.801c0,0.8,0.1,1.699,0.3,2.1h-2.6
	c-0.1-0.3-0.2-0.6-0.2-0.9c-0.8,0.801-2,1.2-3.1,1.2c-1.8,0-3.1-0.899-3.1-2.8c0-4.2,6.3-2,6.2-4c0-1.1-0.7-1.2-1.7-1.2
	s-1.6,0.4-1.7,1.4h-2.6V416.094z M139.8,417.994c-0.4,0.4-1.3,0.4-2.1,0.5c-0.8,0.2-1.5,0.4-1.5,1.4s0.7,1.199,1.6,1.199
	c2,0,2.1-1.6,2.1-2.1v-1H139.8z"/>
<path fill="#173E68" d="M147.5,413.294h1.9v1.7h-1.9v4.6c0,0.9,0.2,1.101,1.1,1.101c0.3,0,0.6,0,0.8-0.101v2
	c-0.4,0.101-1,0.101-1.5,0.101c-1.6,0-2.9-0.3-2.9-2.2v-5.5h-1.6v-1.7h1.6v-2.8h2.6L147.5,413.294z"/>
<path fill="#173E68" d="M152.6,419.594c0,1.101,1,1.601,2,1.601c0.7,0,1.7-0.3,1.7-1.2c0-0.8-1.1-1.1-2.9-1.4c-1.5-0.3-3-0.8-3-2.5
	c0-2.399,2.1-3,4-3c2,0,3.9,0.7,4.1,3h-2.4c-0.1-1-0.8-1.199-1.7-1.199c-0.6,0-1.4,0.1-1.4,0.899c0,0.9,1.5,1,2.9,1.4
	c1.5,0.3,3,0.899,3,2.6c0,2.4-2.1,3.2-4.2,3.2c-2.1,0-4.3-0.8-4.4-3.3h2.3V419.594z"/>
<path fill="#173E68" d="M164.6,413.094c2.9,0,4.8,1.9,4.8,4.9s-1.9,4.9-4.8,4.9s-4.8-1.9-4.8-4.9S161.6,413.094,164.6,413.094
	 M164.6,420.895c1.7,0,2.3-1.5,2.3-3s-0.5-3-2.3-3c-1.7,0-2.2,1.5-2.2,3S162.8,420.895,164.6,420.895"/>
<path fill="#173E68" d="M170.6,413.294h2.4v1.3h0.1c0.7-1.1,1.7-1.6,2.8-1.6c2.7,0,3.4,1.5,3.4,3.8v5.7h-2.6v-5.2
	c0-1.5-0.4-2.3-1.6-2.3c-1.4,0-2,0.8-2,2.6v4.9h-2.6L170.6,413.294z"/>
<polygon fill="#173E68" points="184.4,409.794 187.2,409.794 187.2,414.694 192.4,414.694 192.4,409.794 195.2,409.794 
	195.2,422.594 192.4,422.594 192.4,417.094 187.2,417.094 187.2,422.594 184.4,422.594 "/>
<path fill="#173E68" d="M199.4,418.594c0.1,1.601,0.8,2.4,2.3,2.4c1,0,1.8-0.6,2-1.2h2.2c-0.7,2.2-2.2,3.101-4.3,3.101
	c-2.9,0-4.7-2-4.7-4.9c0-2.8,1.9-4.9,4.7-4.9c3.1,0,4.7,2.601,4.5,5.5H199.4z M203.5,416.895c-0.2-1.301-0.8-2-2-2
	c-1.7,0-2.1,1.199-2.1,2H203.5z"/>
<path fill="#173E68" d="M207.6,416.094c0.2-2.399,2.3-3.1,4.4-3.1c1.8,0,4.1,0.4,4.1,2.6v4.801c0,0.8,0.1,1.699,0.3,2.1h-2.6
	c-0.1-0.3-0.2-0.6-0.2-0.9c-0.8,0.801-2,1.2-3.1,1.2c-1.8,0-3.1-0.899-3.1-2.8c0-4.2,6.3-2,6.2-4c0-1.1-0.7-1.2-1.7-1.2
	s-1.6,0.4-1.7,1.4h-2.6V416.094z M213.4,417.994c-0.4,0.4-1.3,0.4-2.1,0.5c-0.8,0.2-1.5,0.4-1.5,1.4s0.7,1.199,1.6,1.199
	c2,0,2.1-1.6,2.1-2.1v-1H213.4z"/>
<path fill="#173E68" d="M225.7,413.294h1.9v1.7h-1.9v4.6c0,0.9,0.2,1.101,1.1,1.101c0.3,0,0.6,0,0.8-0.101v2
	c-0.4,0.101-1,0.101-1.5,0.101c-1.6,0-2.9-0.3-2.9-2.2v-5.5h-1.6v-1.7h1.6v-2.8h2.6v2.8H225.7z"/>
<path fill="#173E68" d="M229.2,409.794h2.6v4.8h0.1c0.7-1.1,1.7-1.6,2.7-1.6c2.7,0,3.4,1.5,3.4,3.8v5.7h-2.6v-5.2
	c0-1.5-0.4-2.3-1.6-2.3c-1.4,0-2,0.8-2,2.6v4.9h-2.6V409.794z"/>
<rect x="217.9" y="409.794" fill="#173E68" width="2.6" height="12.8"/>
<g>
	<path fill="#231F20" d="M285.19,256.851h10.912c5.023,0,7.551,2.304,7.551,6.175c0,4.384-3.008,5.504-3.776,5.76v0.064
		c1.376,0.16,3.392,1.248,3.392,4.832c0,2.688,0.384,5.088,1.248,6.016h-4.288c-0.608-0.992-0.608-2.24-0.608-3.36
		c0-4.191-0.864-6.047-4.543-6.047h-5.888v9.407h-4V256.851z M289.19,267.25h6.56c2.56,0,3.903-1.216,3.903-3.647
		c0-2.944-1.888-3.488-3.967-3.488h-6.496V267.25z"/>
	<path fill="#231F20" d="M310.054,272.369c0,2.592,1.408,4.896,4.448,4.896c2.144,0,3.392-0.928,4.032-2.752h3.456
		c-0.768,3.616-3.903,5.631-7.487,5.631c-5.216,0-8.095-3.583-8.095-8.703c0-4.704,3.072-8.735,7.999-8.735
		c5.216,0,8.416,4.704,7.808,9.663H310.054z M318.565,269.969c-0.16-2.304-1.664-4.383-4.16-4.383c-2.528,0-4.255,1.92-4.352,4.383
		H318.565z"/>
	<path fill="#231F20" d="M340.581,285.808h-3.648v-8.255h-0.064c-1.216,1.824-3.36,2.592-5.536,2.592
		c-4.864,0-7.135-4.16-7.135-8.639c0-4.864,2.528-8.799,7.743-8.799c2.144,0,4.096,0.768,5.12,2.688h0.064v-2.24h3.456V285.808z
		 M332.421,277.265c3.168,0,4.64-2.368,4.64-5.824c0-3.616-1.568-5.855-4.64-5.855c-3.008,0-4.576,2.88-4.576,5.855
		C327.846,274.321,329.094,277.265,332.421,277.265z"/>
	<path fill="#231F20" d="M359.077,279.697h-3.583v-2.304h-0.064c-0.896,1.664-2.88,2.751-4.704,2.751
		c-4.352,0-6.175-2.144-6.175-6.495v-10.496h3.647v10.144c0,2.912,1.152,3.968,3.168,3.968c3.04,0,4.064-1.952,4.064-4.512v-9.6
		h3.647V279.697z"/>
	<path fill="#231F20" d="M365.765,272.369c0,2.592,1.408,4.896,4.448,4.896c2.144,0,3.392-0.928,4.032-2.752h3.456
		c-0.768,3.616-3.904,5.631-7.487,5.631c-5.216,0-8.095-3.583-8.095-8.703c0-4.704,3.072-8.735,7.999-8.735
		c5.216,0,8.416,4.704,7.808,9.663H365.765z M374.276,269.969c-0.16-2.304-1.664-4.383-4.16-4.383c-2.528,0-4.255,1.92-4.352,4.383
		H374.276z"/>
	<path fill="#231F20" d="M383.461,274.385c0.224,2.144,1.792,2.88,3.744,2.88c1.408,0,3.775-0.288,3.68-2.176
		c-0.096-1.92-2.752-2.144-5.408-2.752c-2.688-0.576-5.312-1.536-5.312-4.896c0-3.616,3.904-4.736,6.912-4.736
		c3.392,0,6.495,1.376,6.911,5.087h-3.808c-0.352-1.76-1.728-2.208-3.36-2.208c-1.056,0-3.008,0.256-3.008,1.696
		c0,1.792,2.688,2.08,5.376,2.656c2.656,0.608,5.343,1.568,5.343,4.832c0,3.936-3.967,5.375-7.391,5.375
		c-4.192,0-7.231-1.855-7.328-5.759H383.461z"/>
	<path fill="#231F20" d="M395.653,263.154h2.752v-4.959h3.648v4.959h3.295v2.72h-3.295v8.832c0,1.504,0.128,2.272,1.76,2.272
		c0.512,0,1.024,0,1.536-0.128v2.815c-0.8,0.096-1.568,0.192-2.368,0.192c-3.84,0-4.479-1.472-4.576-4.224v-9.76h-2.752V263.154z"/>
	<path fill="#231F20" d="M407.205,271.409c0-5.023,3.072-8.703,8.352-8.703c5.279,0,8.351,3.68,8.351,8.703
		c0,5.088-3.072,8.735-8.351,8.735C410.277,280.145,407.205,276.497,407.205,271.409z M420.26,271.409
		c0-2.848-1.44-5.823-4.704-5.823s-4.704,2.976-4.704,5.823c0,2.88,1.44,5.856,4.704,5.856S420.26,274.289,420.26,271.409z"/>
	<path fill="#231F20" d="M426.949,263.154h3.424v3.2h0.064c0.416-1.76,2.624-3.647,4.832-3.647c0.864,0,1.024,0.064,1.376,0.096
		v3.52c-0.512-0.096-1.056-0.16-1.568-0.16c-2.464,0-4.48,1.984-4.48,5.664v7.872h-3.647V263.154z"/>
</g>
<g>
	<g>
		<path fill="#333333" d="M284.588,332.357h2.4v3.27h0.06c1.229-2.52,2.939-3.72,5.7-3.63v2.7c-4.11,0-5.61,2.31-5.61,6.27v6.9
			h-2.55V332.357z"/>
		<path fill="#333333" d="M307.897,342.947c-0.69,3.45-3.12,5.28-6.63,5.28c-4.95,0-7.29-3.45-7.439-8.16
			c0-4.68,3.06-8.069,7.29-8.069c5.49,0,7.17,5.129,7.02,8.879h-11.609c-0.09,2.7,1.44,5.1,4.83,5.1c2.13,0,3.57-0.99,4.02-3.03
			H307.897z M305.438,338.627c-0.15-2.43-1.92-4.38-4.47-4.38c-2.64,0-4.29,1.98-4.44,4.38H305.438z"/>
		<path fill="#333333" d="M324.637,353.807h-2.55v-8.04h-0.06c-0.84,1.71-2.79,2.46-4.95,2.46c-4.77,0-7.14-3.78-7.14-8.16
			s2.34-8.069,7.08-8.069c1.56,0,3.9,0.6,5.01,2.43h0.06v-2.07h2.55V353.807z M317.438,345.977c3.45,0,4.74-2.97,4.74-5.85
			c0-3.03-1.38-5.88-4.89-5.88c-3.48,0-4.65,2.97-4.65,6C312.638,343.157,314.138,345.977,317.438,345.977z"/>
		<path fill="#333333" d="M341.407,347.867h-2.4v-2.46h-0.06c-1.08,1.92-2.79,2.82-5.04,2.82c-4.08,0-5.34-2.34-5.34-5.669v-10.2
			h2.55v10.5c0,1.92,1.2,3.12,3.15,3.12c3.09,0,4.59-2.07,4.59-4.859v-8.76h2.55V347.867z"/>
		<path fill="#333333" d="M358.477,342.947c-0.69,3.45-3.12,5.28-6.63,5.28c-4.95,0-7.29-3.45-7.439-8.16
			c0-4.68,3.06-8.069,7.29-8.069c5.49,0,7.17,5.129,7.02,8.879h-11.609c-0.09,2.7,1.44,5.1,4.83,5.1c2.13,0,3.57-0.99,4.02-3.03
			H358.477z M356.017,338.627c-0.15-2.43-1.92-4.38-4.47-4.38c-2.64,0-4.29,1.98-4.44,4.38H356.017z"/>
		<path fill="#333333" d="M362.917,342.977c0.09,2.28,2.1,3,4.17,3c1.59,0,3.75-0.36,3.75-2.31c0-3.99-10.14-1.29-10.14-7.26
			c0-3.12,3.06-4.41,5.79-4.41c3.48,0,6.12,1.08,6.36,4.859h-2.55c-0.15-1.979-1.95-2.61-3.6-2.61c-1.53,0-3.3,0.42-3.3,1.98
			c0,1.8,2.7,2.16,5.07,2.7c2.55,0.57,5.07,1.44,5.07,4.41c0,3.72-3.45,4.89-6.6,4.89c-3.479,0-6.419-1.41-6.569-5.25H362.917z"/>
		<path fill="#333333" d="M379.897,332.357h3.09v2.25h-3.09v9.629c0,1.2,0.33,1.38,1.92,1.38h1.17v2.25h-1.95
			c-2.64,0-3.69-0.54-3.69-3.39v-9.87h-2.64v-2.25h2.64v-4.65h2.55V332.357z"/>
		<path fill="#333333" d="M387.367,342.977c0.09,2.28,2.1,3,4.17,3c1.59,0,3.75-0.36,3.75-2.31c0-3.99-10.14-1.29-10.14-7.26
			c0-3.12,3.06-4.41,5.79-4.41c3.48,0,6.12,1.08,6.36,4.859h-2.55c-0.15-1.979-1.95-2.61-3.6-2.61c-1.53,0-3.3,0.42-3.3,1.98
			c0,1.8,2.7,2.16,5.07,2.7c2.55,0.57,5.07,1.44,5.07,4.41c0,3.72-3.45,4.89-6.6,4.89c-3.479,0-6.419-1.41-6.569-5.25H387.367z"/>
		<path fill="#333333" d="M419.676,337.337c-0.39-1.95-1.71-3.09-3.84-3.09c-3.69,0-4.83,2.94-4.83,6.06
			c0,2.88,1.29,5.669,4.53,5.669c2.49,0,3.93-1.41,4.26-3.78h2.61c-0.57,3.81-2.91,6.03-6.839,6.03c-4.74,0-7.26-3.27-7.26-7.919
			s2.4-8.31,7.32-8.31c3.54,0,6.299,1.65,6.689,5.339H419.676z"/>
		<path fill="#333333" d="M425.256,326.448h2.55v8.189h0.06c0.81-1.89,3.06-2.64,4.89-2.64c4.08,0,5.34,2.34,5.34,5.669v10.2h-2.55
			v-10.5c0-1.92-1.2-3.12-3.15-3.12c-3.09,0-4.59,2.07-4.59,4.86v8.76h-2.55V326.448z"/>
		<path fill="#333333" d="M455.676,347.807c-0.45,0.27-1.08,0.42-1.83,0.42c-1.32,0-2.16-0.72-2.16-2.4
			c-1.41,1.68-3.3,2.4-5.459,2.4c-2.82,0-5.13-1.23-5.13-4.35c0-3.51,2.61-4.29,5.25-4.77c2.79-0.57,5.22-0.33,5.22-2.28
			c0-2.25-1.86-2.58-3.45-2.58c-2.16,0-3.75,0.66-3.87,2.94h-2.55c0.15-3.84,3.09-5.189,6.569-5.189c2.79,0,5.82,0.63,5.82,4.26
			v7.979c0,1.2,0,1.74,0.81,1.74c0.24,0,0.51-0.06,0.78-0.15V347.807z M451.536,339.857c-1.98,1.47-7.74,0.03-7.74,3.84
			c0,1.68,1.44,2.28,3,2.28c3.36,0,4.74-2.07,4.74-3.51V339.857z"/>
		<path fill="#333333" d="M458.046,332.357h2.4v2.46h0.06c1.08-1.92,2.79-2.82,5.04-2.82c4.08,0,5.34,2.34,5.34,5.669v10.2h-2.55
			v-10.5c0-1.92-1.2-3.12-3.15-3.12c-3.09,0-4.59,2.07-4.59,4.86v8.76h-2.55V332.357z"/>
		<path fill="#333333" d="M488.106,346.547c0,5.07-2.28,7.62-7.2,7.62c-2.91,0-6.27-1.2-6.419-4.56h2.55
			c0.09,1.83,2.37,2.52,4.02,2.52c3.33,0,4.65-2.4,4.65-5.88v-1.02h-0.06c-0.87,1.89-2.85,2.82-4.83,2.82
			c-4.62,0-6.93-3.63-6.93-7.86c0-3.66,1.77-8.189,7.169-8.189c1.95,0,3.69,0.87,4.62,2.58h0.03v-2.22h2.4V346.547z
			 M485.586,339.797c0-2.73-1.2-5.55-4.41-5.55c-3.27,0-4.59,2.67-4.59,5.64c0,2.79,1.02,5.91,4.38,5.91
			S485.586,342.707,485.586,339.797z"/>
		<path fill="#333333" d="M505.176,342.947c-0.69,3.45-3.12,5.28-6.63,5.28c-4.95,0-7.29-3.45-7.439-8.16
			c0-4.68,3.06-8.069,7.29-8.069c5.49,0,7.17,5.129,7.02,8.879h-11.609c-0.09,2.7,1.44,5.1,4.83,5.1c2.13,0,3.57-0.99,4.02-3.03
			H505.176z M502.716,338.627c-0.15-2.43-1.92-4.38-4.47-4.38c-2.64,0-4.29,1.98-4.44,4.38H502.716z"/>
	</g>
</g>
<path fill="#89C240" d="M202.45,382.967h-95.7c-5.5,0-10-4.5-10-10v-107.9c0-5.5,4.5-10,10-10h95.7c5.5,0,10,4.5,10,10v107.9
	C212.45,378.467,207.95,382.967,202.45,382.967"/>
<g>
	<defs>
		<path id="SVGID_1_" d="M106.75,255.066c-5.5,0-10,4.5-10,10v107.9c0,5.5,4.5,10,10,10h95.7c5.5,0,10-4.5,10-10v-107.9
			c0-5.5-4.5-10-10-10H106.75z"/>
	</defs>
	<clipPath id="SVGID_2_">
		<use xlink:href="#SVGID_1_"  overflow="visible"/>
	</clipPath>
	<path clip-path="url(#SVGID_2_)" fill="#E3CCA4" d="M141.05,312.668h26.1l2.8,32.398c0.2,2.301,2,4,4.2,4h0.5l-6.8,6.4l-13.4,19.5
		l-13.3-19.9l-7-6l1-0.199c2-0.301,3.5-2,3.7-4.1L141.05,312.668z"/>
	<path clip-path="url(#SVGID_2_)" fill="#D4C5A3" d="M154.45,375.066L154.45,375.066l-13.3-19.898l-7-6l1-0.201
		c2-0.299,3.5-2,3.7-4.1l1.9-25.9h13.8v56.1H154.45z"/>
	<path clip-path="url(#SVGID_2_)" fill="#CCBC97" d="M139.45,335.467l29.7,0.1l0.1,1.4c-0.5,0.801-0.8,1.301-1.3,2.1
		c-3.8,5.701-8.8,9.5-13.6,9.5s-9.8-3.898-13.6-9.5c-0.6-0.898-1-1.5-1.5-2.398L139.45,335.467z"/>
	<path clip-path="url(#SVGID_2_)" fill="#ECF0F1" d="M130.35,349.268l6.9-1.301l6.9,2.801c1.2,0.5,2,1.299,2.5,2.5l7.8,17.1
		l7.8-17.9c0.5-1.1,1.4-1.799,2.5-2.299l6.5-2.4l6,1.299l4.4,1.301l7.5,42.801h-69.3l6.5-42.301L130.35,349.268z"/>
	<path clip-path="url(#SVGID_2_)" fill="#2C3E50" d="M196.649,385.566c0.1-15.5-1-31.898-19.1-36.398c1.5,2.898,0.4,5.398,3.3,13.6
		l-13.7-7.6c-4.3,10.398-8.7,20.898-13,31.299l-13-31.299l-13.7,7.6c2.9-8,1.9-10.701,3.2-13.5c-17.4,4.799-18.5,21-18.4,36.199
		c0,4.201,3.4,7.701,7.5,7.701h69.3C193.25,393.168,196.649,389.768,196.649,385.566"/>
	<path clip-path="url(#SVGID_2_)" fill="#7D7662" d="M134.35,334.268c-29.4-47.701,16.5-65.701,18.3-59.1
		c0.5,1.699,0.6,0.898,1.7,0.1c14-9.9,44.6,21.799,20,59.299c-1.6,0.4-3.5,0.801-5.6,1.102l-0.1,0.199c1.8-2.5,3.4-5.4,4.6-8.699
		c0.6-1.9,1.2-4,1.7-6c0.5-2.102,0.8-4.201,1.1-6.201c0.1-0.9,0.1-1.699,0.2-2.6c0-0.801,0.1-1.699,0.1-2.699v-1.701
		c0-0.5,0-1-0.1-1.6c-0.5-4.5-6.6-5.5-13.2-6.6c-7.7-1.301-15.9-2.6-19.2-9.5h-0.1c-3.3,2.799-9.4,8.1-10.7,17.9
		c-0.1,0.898-0.2,1.799-0.2,2.699v2.9c0.7,8.6,3.3,16.199,7.2,21.699C137.85,335.168,135.95,334.768,134.35,334.268"/>
	<path clip-path="url(#SVGID_2_)" fill="#FFE7BD" d="M173.25,327.168c0.6-1.9,1.2-4,1.7-6c0.5-2.102,0.8-4.201,1.1-6.201
		c0.1-0.9,0.1-1.699,0.2-2.6c0-0.801,0.1-1.699,0.1-2.699v-1.701c0-0.5,0-1-0.1-1.6c-0.5-4.5-6.6-5.5-13.2-6.6
		c-7.7-1.301-15.9-2.6-19.2-9.5h-0.1c-3.3,2.799-9.5,8.1-10.7,17.9c-0.1,0.898-0.2,1.799-0.2,2.699v2.9c0.7,8.699,3.4,16.5,7.4,22
		c3.8,5.199,8.8,8.4,14.2,8.4c3.8,0,7.4-1.602,10.6-4.4C168.45,336.768,171.25,332.467,173.25,327.168"/>
	<path clip-path="url(#SVGID_2_)" fill="#E8D6AC" d="M154.45,298.066c-4.6-1.299-8.6-3.5-10.6-7.799h-0.1
		c-3.3,2.799-9.4,8.1-10.7,17.9c-0.1,0.898-0.2,1.799-0.2,2.699v2.9c0.7,8.699,3.4,16.5,7.4,21.9c3.8,5.199,8.8,8.398,14.2,8.398
		V298.066z"/>
</g>
<path fill="#FFFFFF" d="M525.711,783.552H67.067c-4.801,0-8.729-4.5-8.729-10V529.751c0-5.5,3.928-10,8.729-10h458.644
	c4.801,0,8.729,4.5,8.729,10v243.801C534.44,779.052,530.512,783.552,525.711,783.552"/>
<path fill="#EFEFF0" d="M527.328,519.751H258.637v263.801h268.691c3.916,0,7.112-4,7.112-8.9v-246
	C534.44,523.751,531.244,519.751,527.328,519.751"/>
<rect x="85" y="731.63" fill="#8CC63F" width="1.2" height="12.8"/>
<path fill="#8CC63F" d="M88.6,731.63H94c2.1,0,4.1,0.699,4.1,3.1c0,1.3-0.9,2.6-2.2,2.9c1.7,0.199,2.7,1.5,2.7,3.1
	c0,1.2-0.4,3.6-4.6,3.6h-5.4V731.63z M89.8,737.229H94c1.9,0,2.9-1,2.9-2.2c0-1.6-1-2.399-2.9-2.399h-4.2V737.229z M89.8,743.329H94
	c1.8,0,3.4-0.6,3.4-2.6c0-1.7-1.2-2.5-3.4-2.5h-4.2V743.329z"/>
<polygon fill="#8CC63F" points="100.6,731.63 102.4,731.63 106.8,742.829 111.2,731.63 113,731.63 113,744.43 111.8,744.43 
	111.8,733.329 107.4,744.43 106.2,744.43 101.8,733.329 101.8,744.43 100.6,744.43 "/>
<polygon fill="#173E68" points="130.2,744.329 127.4,744.329 125.2,735.63 123.1,744.329 120.2,744.329 116.8,731.529 
	119.6,731.529 121.6,740.229 123.8,731.529 126.4,731.529 128.6,740.329 130.7,731.529 133.5,731.529 "/>
<path fill="#173E68" d="M133.9,737.829c0.2-2.399,2.3-3.1,4.4-3.1c1.8,0,4.1,0.4,4.1,2.6v4.801c0,0.8,0.1,1.699,0.3,2.1h-2.6
	c-0.1-0.3-0.2-0.6-0.2-0.9c-0.8,0.801-2,1.2-3.1,1.2c-1.8,0-3.1-0.899-3.1-2.8c0-4.2,6.3-2,6.2-4c0-1.1-0.7-1.2-1.7-1.2
	s-1.6,0.4-1.7,1.4h-2.6V737.829z M139.8,739.729c-0.4,0.4-1.3,0.4-2.1,0.5c-0.8,0.2-1.5,0.4-1.5,1.4s0.7,1.199,1.6,1.199
	c2,0,2.1-1.6,2.1-2.1v-1H139.8z"/>
<path fill="#173E68" d="M147.5,735.029h1.9v1.7h-1.9v4.6c0,0.9,0.2,1.101,1.1,1.101c0.3,0,0.6,0,0.8-0.101v2
	c-0.4,0.101-1,0.101-1.5,0.101c-1.6,0-2.9-0.3-2.9-2.2v-5.5h-1.6v-1.7h1.6v-2.8h2.6L147.5,735.029z"/>
<path fill="#173E68" d="M152.6,741.329c0,1.101,1,1.601,2,1.601c0.7,0,1.7-0.3,1.7-1.2c0-0.8-1.1-1.1-2.9-1.4c-1.5-0.3-3-0.8-3-2.5
	c0-2.399,2.1-3,4-3c2,0,3.9,0.7,4.1,3h-2.4c-0.1-1-0.8-1.199-1.7-1.199c-0.6,0-1.4,0.1-1.4,0.899c0,0.9,1.5,1,2.9,1.4
	c1.5,0.3,3,0.899,3,2.6c0,2.4-2.1,3.2-4.2,3.2c-2.1,0-4.3-0.8-4.4-3.3h2.3V741.329z"/>
<path fill="#173E68" d="M164.6,734.829c2.9,0,4.8,1.9,4.8,4.9s-1.9,4.9-4.8,4.9s-4.8-1.9-4.8-4.9S161.6,734.829,164.6,734.829
	 M164.6,742.63c1.7,0,2.3-1.5,2.3-3s-0.5-3-2.3-3c-1.7,0-2.2,1.5-2.2,3S162.8,742.63,164.6,742.63"/>
<path fill="#173E68" d="M170.6,735.029h2.4v1.3h0.1c0.7-1.1,1.7-1.6,2.8-1.6c2.7,0,3.4,1.5,3.4,3.8v5.7h-2.6v-5.2
	c0-1.5-0.4-2.3-1.6-2.3c-1.4,0-2,0.8-2,2.6v4.9h-2.6L170.6,735.029z"/>
<polygon fill="#173E68" points="184.4,731.529 187.2,731.529 187.2,736.43 192.4,736.43 192.4,731.529 195.2,731.529 195.2,744.329 
	192.4,744.329 192.4,738.829 187.2,738.829 187.2,744.329 184.4,744.329 "/>
<path fill="#173E68" d="M199.4,740.329c0.1,1.601,0.8,2.4,2.3,2.4c1,0,1.8-0.6,2-1.2h2.2c-0.7,2.2-2.2,3.101-4.3,3.101
	c-2.9,0-4.7-2-4.7-4.9c0-2.8,1.9-4.9,4.7-4.9c3.1,0,4.7,2.601,4.5,5.5H199.4z M203.5,738.63c-0.2-1.301-0.8-2-2-2
	c-1.7,0-2.1,1.199-2.1,2H203.5z"/>
<path fill="#173E68" d="M207.6,737.829c0.2-2.399,2.3-3.1,4.4-3.1c1.8,0,4.1,0.4,4.1,2.6v4.801c0,0.8,0.1,1.699,0.3,2.1h-2.6
	c-0.1-0.3-0.2-0.6-0.2-0.9c-0.8,0.801-2,1.2-3.1,1.2c-1.8,0-3.1-0.899-3.1-2.8c0-4.2,6.3-2,6.2-4c0-1.1-0.7-1.2-1.7-1.2
	s-1.6,0.4-1.7,1.4h-2.6V737.829z M213.4,739.729c-0.4,0.4-1.3,0.4-2.1,0.5c-0.8,0.2-1.5,0.4-1.5,1.4s0.7,1.199,1.6,1.199
	c2,0,2.1-1.6,2.1-2.1v-1H213.4z"/>
<path fill="#173E68" d="M225.7,735.029h1.9v1.7h-1.9v4.6c0,0.9,0.2,1.101,1.1,1.101c0.3,0,0.6,0,0.8-0.101v2
	c-0.4,0.101-1,0.101-1.5,0.101c-1.6,0-2.9-0.3-2.9-2.2v-5.5h-1.6v-1.7h1.6v-2.8h2.6v2.8H225.7z"/>
<path fill="#173E68" d="M229.2,731.529h2.6v4.8h0.1c0.7-1.1,1.7-1.6,2.7-1.6c2.7,0,3.4,1.5,3.4,3.8v5.7h-2.6v-5.2
	c0-1.5-0.4-2.3-1.6-2.3c-1.4,0-2,0.8-2,2.6v4.9h-2.6V731.529z"/>
<rect x="217.9" y="731.529" fill="#173E68" width="2.6" height="12.8"/>
<g>
	<path fill="#231F20" d="M303.591,590.01c0,6.559-4.128,11.967-10.943,11.967s-10.943-5.408-10.943-11.967
		c0-6.496,4.128-11.967,10.943-11.967S303.591,583.514,303.591,590.01z M285.705,590.01c0,4.383,2.048,8.703,6.943,8.703
		s6.943-4.32,6.943-8.703c0-4.384-2.048-8.703-6.943-8.703S285.705,585.626,285.705,590.01z"/>
	<path fill="#231F20" d="M306.729,584.89h3.424v3.2h0.064c0.416-1.76,2.624-3.648,4.832-3.648c0.864,0,1.024,0.064,1.376,0.096
		v3.521c-0.512-0.097-1.056-0.16-1.568-0.16c-2.464,0-4.48,1.983-4.48,5.663v7.872h-3.647V584.89z"/>
	<path fill="#231F20" d="M318.088,578.586h3.648v3.456h-3.648V578.586z M318.088,584.89h3.648v16.543h-3.648V584.89z"/>
	<path fill="#231F20" d="M340.999,600.568c0,4.992-2.88,7.424-8.127,7.424c-3.328,0-7.04-1.279-7.392-5.152h3.648
		c0.448,2.08,2.112,2.433,3.968,2.433c2.943,0,4.255-1.504,4.255-4.224v-2.527h-0.064c-1.024,1.823-2.912,2.911-4.959,2.911
		c-5.248,0-7.423-3.968-7.423-8.704c0-4.447,2.784-8.287,7.487-8.287c2.08,0,3.968,0.832,4.896,2.721h0.064v-2.272h3.648V600.568z
		 M337.351,592.793c0-2.848-1.28-5.471-4.448-5.471c-3.231,0-4.352,3.008-4.352,5.759c0,2.688,1.312,5.472,4.352,5.472
		C336.135,598.553,337.351,595.641,337.351,592.793z"/>
	<path fill="#231F20" d="M344.775,578.586h3.648v3.456h-3.648V578.586z M344.775,584.89h3.648v16.543h-3.648V584.89z"/>
	<path fill="#231F20" d="M352.392,584.89h3.456v2.433l0.064,0.063c1.12-1.823,2.976-2.944,5.152-2.944
		c3.616,0,5.855,1.889,5.855,5.632v11.359h-3.647v-10.399c-0.096-2.592-1.056-3.711-3.232-3.711c-2.432,0-4,1.92-4,4.352v9.759
		h-3.647V584.89z"/>
	<path fill="#231F20" d="M384.614,597.753c0,0.896,0.192,1.248,0.864,1.248h0.384c0.16,0,0.32-0.032,0.512-0.063v2.527
		c-0.544,0.191-1.696,0.416-2.304,0.416c-1.504,0-2.528-0.512-2.816-2.016c-1.44,1.407-3.776,2.016-5.728,2.016
		c-2.976,0-5.664-1.6-5.664-4.832c0-4.127,3.296-4.799,6.368-5.151c2.656-0.513,4.959-0.16,4.959-2.336
		c0-1.92-1.984-2.239-3.424-2.239c-2.048,0-3.488,0.832-3.647,2.623h-3.648c0.256-4.256,3.84-5.504,7.52-5.504
		c3.232,0,6.624,1.312,6.624,4.801V597.753z M380.966,593.145c-1.12,0.736-2.848,0.705-4.479,0.992
		c-1.568,0.256-2.976,0.832-2.976,2.752c0,1.664,2.08,2.112,3.359,2.112c1.6,0,4.096-0.832,4.096-3.136V593.145z"/>
	<path fill="#231F20" d="M388.647,578.586h3.648v22.847h-3.648V578.586z"/>
	<path fill="#231F20" d="M296.264,636.152c0,0.896,0.192,1.248,0.864,1.248h0.384c0.16,0,0.32-0.031,0.512-0.063v2.528
		c-0.544,0.191-1.696,0.415-2.304,0.415c-1.504,0-2.528-0.512-2.816-2.016c-1.44,1.407-3.776,2.016-5.728,2.016
		c-2.976,0-5.664-1.6-5.664-4.831c0-4.128,3.296-4.8,6.368-5.152c2.656-0.512,4.959-0.16,4.959-2.336
		c0-1.92-1.984-2.239-3.424-2.239c-2.048,0-3.488,0.832-3.647,2.624h-3.648c0.256-4.256,3.84-5.504,7.52-5.504
		c3.232,0,6.624,1.312,6.624,4.8V636.152z M292.616,631.545c-1.12,0.736-2.848,0.704-4.479,0.992
		c-1.568,0.256-2.976,0.832-2.976,2.752c0,1.664,2.08,2.111,3.359,2.111c1.6,0,4.096-0.832,4.096-3.135V631.545z"/>
	<path fill="#231F20" d="M300.296,623.289h3.456v2.24h0.064c1.024-1.92,2.976-2.688,5.12-2.688c5.216,0,7.743,3.936,7.743,8.799
		c0,4.48-2.271,8.64-7.135,8.64c-2.112,0-4.416-0.768-5.536-2.592h-0.064v8.255h-3.648V623.289z M308.456,625.722
		c-3.072,0-4.64,2.304-4.64,5.855c0,3.327,1.696,5.823,4.64,5.823c3.328,0,4.576-2.943,4.576-5.823
		C313.032,628.602,311.464,625.722,308.456,625.722z"/>
	<path fill="#231F20" d="M319.848,623.289h3.456v2.24h0.064c1.024-1.92,2.976-2.688,5.12-2.688c5.216,0,7.743,3.936,7.743,8.799
		c0,4.48-2.271,8.64-7.135,8.64c-2.112,0-4.416-0.768-5.536-2.592h-0.064v8.255h-3.648V623.289z M328.008,625.722
		c-3.072,0-4.64,2.304-4.64,5.855c0,3.327,1.696,5.823,4.64,5.823c3.328,0,4.576-2.943,4.576-5.823
		C332.583,628.602,331.016,625.722,328.008,625.722z"/>
	<path fill="#231F20" d="M339.304,623.289h3.424v3.2h0.064c0.416-1.76,2.624-3.647,4.832-3.647c0.864,0,1.024,0.064,1.376,0.096
		v3.52c-0.512-0.096-1.056-0.16-1.568-0.16c-2.464,0-4.48,1.984-4.48,5.664v7.871h-3.647V623.289z"/>
	<path fill="#231F20" d="M349.8,631.545c0-5.023,3.072-8.703,8.352-8.703c5.279,0,8.351,3.68,8.351,8.703
		c0,5.088-3.072,8.735-8.351,8.735C352.872,640.28,349.8,636.633,349.8,631.545z M362.855,631.545c0-2.848-1.44-5.823-4.704-5.823
		s-4.704,2.976-4.704,5.823c0,2.88,1.44,5.855,4.704,5.855S362.855,634.425,362.855,631.545z"/>
	<path fill="#231F20" d="M367.912,623.289h3.968l4.191,12.703h0.064l4.032-12.703h3.776l-5.919,16.543h-4.096L367.912,623.289z"/>
	<path fill="#231F20" d="M388.999,632.505c0,2.592,1.408,4.896,4.448,4.896c2.144,0,3.392-0.928,4.032-2.752h3.456
		c-0.768,3.616-3.903,5.632-7.487,5.632c-5.216,0-8.095-3.583-8.095-8.703c0-4.704,3.072-8.735,7.999-8.735
		c5.216,0,8.416,4.703,7.808,9.663H388.999z M397.51,630.105c-0.16-2.305-1.664-4.384-4.16-4.384c-2.528,0-4.255,1.92-4.352,4.384
		H397.51z"/>
	<path fill="#231F20" d="M403.943,623.289h3.424v3.2h0.064c0.416-1.76,2.624-3.647,4.832-3.647c0.864,0,1.024,0.064,1.376,0.096
		v3.52c-0.512-0.096-1.056-0.16-1.568-0.16c-2.464,0-4.48,1.984-4.48,5.664v7.871h-3.647V623.289z"/>
	<path fill="#231F20" d="M417.959,634.521c0.224,2.143,1.792,2.879,3.744,2.879c1.408,0,3.775-0.287,3.68-2.176
		c-0.096-1.92-2.752-2.144-5.408-2.752c-2.688-0.576-5.312-1.535-5.312-4.895c0-3.617,3.904-4.736,6.912-4.736
		c3.392,0,6.495,1.376,6.911,5.088h-3.808c-0.352-1.76-1.728-2.208-3.36-2.208c-1.056,0-3.008,0.256-3.008,1.696
		c0,1.791,2.688,2.079,5.376,2.655c2.656,0.608,5.343,1.567,5.343,4.831c0,3.937-3.968,5.376-7.391,5.376
		c-4.192,0-7.231-1.855-7.328-5.759H417.959z"/>
</g>
<path fill="#89C240" d="M202.45,704.702h-95.7c-5.5,0-10-4.5-10-10v-107.9c0-5.5,4.5-10,10-10h95.7c5.5,0,10,4.5,10,10v107.9
	C212.45,700.202,207.95,704.702,202.45,704.702"/>
<g enable-background="new    ">
	<path fill="#FFFFFF" d="M82.694,108.498h-7.177L69.95,86.139h-0.092l-5.475,22.358h-7.315L48.374,75.65h7.223l5.199,22.358h0.092
		l5.705-22.358h6.763l5.613,22.635h0.092l5.382-22.635h7.085L82.694,108.498z"/>
	<path fill="#FFFFFF" d="M94.144,75.65h6.533v12.375h0.138c1.656-2.714,4.508-3.956,6.947-3.956c6.947,0,8.695,3.91,8.695,9.799
		v14.63h-6.533V95.064c0-3.91-1.104-5.843-4.187-5.843c-3.542,0-5.061,1.979-5.061,6.809v12.468h-6.533V75.65z"/>
	<path fill="#FFFFFF" d="M132.968,84.069c7.499,0,12.329,4.969,12.329,12.56c0,7.545-4.831,12.514-12.329,12.514
		c-7.453,0-12.284-4.969-12.284-12.514C120.685,89.038,125.515,84.069,132.968,84.069z M132.968,104.219
		c4.462,0,5.796-3.772,5.796-7.591s-1.334-7.637-5.796-7.637c-4.417,0-5.751,3.818-5.751,7.637S128.552,104.219,132.968,104.219z"/>
</g>
<g enable-background="new    ">
	<path d="M637.38,75.65h7.223v12.605h13.296V75.65h7.223v32.848h-7.223v-14.17h-13.296v14.17h-7.223V75.65z"/>
	<path d="M682.324,84.069c7.499,0,12.329,4.969,12.329,12.56c0,7.545-4.831,12.514-12.329,12.514
		c-7.453,0-12.284-4.969-12.284-12.514C670.04,89.038,674.871,84.069,682.324,84.069z M682.324,104.219
		c4.462,0,5.796-3.772,5.796-7.591s-1.334-7.637-5.796-7.637c-4.417,0-5.751,3.818-5.751,7.637S677.907,104.219,682.324,104.219z"/>
	<path d="M726.071,108.498h-6.717l-4.232-15.964h-0.092l-4.049,15.964h-6.763l-7.545-23.785h6.901l4.371,16.148h0.092l3.957-16.148
		h6.349l4.049,16.103h0.092l4.371-16.103h6.717L726.071,108.498z"/>
</g>
<line fill="none" stroke="#343636" stroke-width="3.5617" stroke-miterlimit="10" x1="48.187" y1="50" x2="528.101" y2="50"/>
<polygon fill-rule="evenodd" clip-rule="evenodd" fill="#666666" points="170.431,602.966 170.431,602.966 170.378,603.005 
	170.431,602.966 "/>
<path fill-rule="evenodd" clip-rule="evenodd" fill="#916F45" d="M138.298,629.991l26.278,0.012l2.774,29.88
	c0.199,2.081,2,3.683,4.228,3.748l0.508,0.015l-3.335,11.164l-34.908-2.734l-2.561-8.444l0.959-0.146
	c2.042-0.294,3.548-1.813,3.695-3.748L138.298,629.991z"/>
<path fill-rule="evenodd" clip-rule="evenodd" fill="#85633C" d="M151.61,673.477l-17.767-1.401l-2.561-8.444l0.959-0.146
	c2.042-0.294,3.548-1.813,3.695-3.748l1.682-21.075h14.005L151.61,673.477z"/>
<path fill-rule="evenodd" clip-rule="evenodd" fill="#735735" d="M138.298,629.991l26.278,0.012l2.107,22.598
	c-0.494,0.8-0.814,1.24-1.348,1.974c-3.829,5.282-8.817,8.872-13.646,8.872c-4.815,0-9.791-3.604-13.632-8.872
	c-0.601-0.827-0.987-1.4-1.521-2.294L138.298,629.991z"/>
<path fill-rule="evenodd" clip-rule="evenodd" fill="#2C3E50" d="M151.61,655.575c-6.122,0-12.271-3.975-16.86-9.818
	c-4.509-5.748-7.549-13.352-7.549-20.715v-0.188l0.027-0.08c-0.014-0.492-0.027-0.986-0.027-1.467
	c0-17.66-3.241-31.986,24.45-31.974c27.678,0.014,24.424,14.326,24.424,31.987c0,0.493-0.014,0.986-0.04,1.467l0.026,0.094v0.173
	c0,7.363-3.055,14.979-7.577,20.716C163.909,651.613,157.747,655.588,151.61,655.575z"/>
<polygon fill-rule="evenodd" clip-rule="evenodd" fill="#ECF0F1" points="155.866,669.794 147.622,669.794 135.75,660.657 
	131.201,663.631 127.319,704.675 173.7,704.689 172.005,663.631 167.55,660.777 "/>
<polygon fill-rule="evenodd" clip-rule="evenodd" fill="#DAE1E6" points="155.866,669.794 147.622,669.794 135.75,660.657 
	131.908,663.165 131.308,663.725 154.545,685.388 154.291,704.689 173.687,704.689 172.005,663.646 167.55,660.777 "/>
<path fill-rule="evenodd" clip-rule="evenodd" fill="#AA8150" d="M135.296,649.025c4.589,5.855,10.552,9.831,16.314,9.831
	c5.763,0,11.739-3.976,16.327-9.817c4.708-6.003,7.91-13.913,7.977-21.583l-1.614-6.082c-0.573-2.175-0.613-4.202-0.654-6.137
	c-0.053-2.521-0.105-4.855-1.6-6.776c-2.375-3.081-6.149-2.081-10.565-0.907c-3.014,0.801-6.282,1.668-9.843,1.668
	c-3.562-0.014-6.83-0.881-9.832-1.68h-0.013c-4.429-1.174-8.177-2.176-10.564,0.906c-1.481,1.907-1.548,4.255-1.601,6.776
	c-0.04,1.934-0.094,3.961-0.667,6.136l-1.613,6.082C127.399,635.1,130.588,643.022,135.296,649.025z"/>
<path fill-rule="evenodd" clip-rule="evenodd" fill="#977042" d="M135.296,649.025c4.589,5.855,10.552,9.831,16.314,9.831
	l0.027-49.635c-3.562-0.014-6.83-0.881-9.832-1.68h-0.013c-4.429-1.174-8.177-2.176-10.564,0.906
	c-1.481,1.907-1.548,4.255-1.601,6.776c-0.04,1.934-0.094,3.961-0.667,6.136l-1.613,6.082
	C127.399,635.1,130.588,643.022,135.296,649.025z"/>
<path fill-rule="evenodd" clip-rule="evenodd" fill="#2C3E50" d="M105.443,682.933c0,4.856-0.013,9.711-0.013,14.566
	c0,3.949,3.442,7.163,7.656,7.163c25.665,0.013,51.341,0.027,77.006,0.04c4.214,0,7.656-3.215,7.656-7.162l0.013-14.553
	c0-9.885-11.178-16.328-25.758-19.356c-4.507,16.595-8.696,22.329-15.833,35.256l-2.614-21.597c-0.054-0.492,0.08-0.906,0.333-1.36
	l2.762-4.801c0.174-0.28,0.2-0.602,0.04-0.882c-0.173-0.293-0.481-0.453-0.827-0.453c-2.749,0-5.497,0-8.244,0
	c-0.347,0-0.641,0.16-0.814,0.453c-0.174,0.28-0.134,0.602,0.027,0.882l2.748,4.801c0.268,0.44,0.4,0.868,0.347,1.348l-2.695,22.036
	c-7.256-13.232-11.485-18.928-16.034-35.683C116.621,666.618,105.443,673.062,105.443,682.933z"/>
<path fill-rule="evenodd" clip-rule="evenodd" fill="#2C3E50" d="M153.558,677.29c-0.054-0.492,0.08-0.906,0.347-1.36l2.748-4.801
	c0.174-0.28,0.2-0.602,0.04-0.882c-0.173-0.293-0.481-0.453-0.827-0.453c-2.749,0-5.497,0-8.244,0c-0.347,0-0.641,0.16-0.814,0.453
	c-0.16,0.28-0.134,0.602,0.027,0.882l2.748,4.801c0.268,0.44,0.4,0.868,0.347,1.348l-0.427,3.415l5.042,4.695L153.558,677.29z"/>
<polygon fill-rule="evenodd" clip-rule="evenodd" fill="#ECF0F1" points="151.744,669.794 135.75,660.657 131.201,663.631 
	146.888,678.612 "/>
<polygon fill-rule="evenodd" clip-rule="evenodd" fill="#ECF0F1" points="151.744,669.794 167.55,660.777 172.086,663.646 
	156.599,678.612 "/>
</svg>
