<?xml version="1.0" encoding="utf-8"?>
<!-- Generator: Adobe Illustrator 19.2.0, SVG Export Plug-In . SVG Version: 6.00 Build 0)  -->
<svg version="1.1" id="Layer_1" xmlns="http://www.w3.org/2000/svg" xmlns:xlink="http://www.w3.org/1999/xlink" x="0px" y="0px"
	 viewBox="0 0 2048 1000" style="enable-background:new 0 0 2048 1000;" xml:space="preserve">
<style type="text/css">
	.st0{fill:#B9E5FB;}
	.st1{opacity:0.3;enable-background:new    ;}
	.st2{clip-path:url(#SVGID_2_);fill:#B9E5FB;}
	.st3{fill:#4EA8DE;}
	.st4{fill:none;}
	.st5{fill:#FFFFFF;}
	.st6{fill:#231F20;}
	.st7{fill:#1365A8;}
	.st8{enable-background:new    ;}
	.st9{fill:#666666;}
	.st10{fill:#E3CCA4;}
	.st11{fill:#D4C5A3;}
	.st12{fill:#CCBC97;}
	.st13{fill:#ECF0F1;}
	.st14{fill:#2C3E50;}
	.st15{fill:#FFE7BD;}
	.st16{fill:#E8D6AC;}
	.st17{fill:#DAE1E6;}
	.st18{fill:#999999;}
	.st19{fill:#3D566E;}
	.st20{fill:none;stroke:#1365A8;stroke-miterlimit:10;}
	.st21{fill:#F9B256;}
	.st22{fill:#D1D3D4;}
	.st23{fill:#686472;}
	.st24{fill-rule:evenodd;clip-rule:evenodd;fill:#DAE1E6;}
	.st25{fill-rule:evenodd;clip-rule:evenodd;fill:#CCCCCC;}
	.st26{fill-rule:evenodd;clip-rule:evenodd;fill:#2C3E50;}
	.st27{fill-rule:evenodd;clip-rule:evenodd;fill:#6EBCC6;}
	.st28{fill-rule:evenodd;clip-rule:evenodd;fill:#121220;}
	.st29{fill-rule:evenodd;clip-rule:evenodd;fill:#ECF0F1;}
	.st30{fill-rule:evenodd;clip-rule:evenodd;fill:#2980B9;}
	.st31{fill-rule:evenodd;clip-rule:evenodd;fill:#9B59B6;}
	.st32{fill-rule:evenodd;clip-rule:evenodd;fill:#FFCB05;}
	.st33{fill-rule:evenodd;clip-rule:evenodd;fill:#6699FF;}
	.st34{fill-rule:evenodd;clip-rule:evenodd;fill:#95A5A6;}
</style>
<rect class="st0" width="1389.9" height="1000"/>
<g>
	<g class="st1">
		<g>
			<defs>
				<rect id="SVGID_1_" x="1272" width="779.9" height="1000"/>
			</defs>
			<clipPath id="SVGID_2_">
				<use xlink:href="#SVGID_1_"  style="overflow:visible;"/>
			</clipPath>
			<rect x="1272" class="st2" width="779.9" height="1000"/>
		</g>
	</g>
</g>
<rect class="st3" width="570.9" height="1000"/>
<g>
	<rect x="221.3" y="184.1" class="st4" width="287.3" height="47.8"/>
	<path class="st5" d="M223.8,184.1h11.6c6.4,0,8.9,4.1,8.9,8.2c0,4.2-2.4,8.2-8.9,8.2h-5.9v9.2h-5.7V184.1z M229.5,196.2h4.4
		c2.6,0,5-0.6,5-3.9s-2.4-3.9-5-3.9h-4.4V196.2z"/>
	<path class="st5" d="M247.3,191.2h4.9v3.5h0.1c1-2.3,3.4-4,5.9-4c0.4,0,0.8,0.1,1.1,0.2v4.8c-0.5-0.1-1.2-0.2-1.8-0.2
		c-3.8,0-5,2.7-5,6v8.4h-5.1V191.2z"/>
	<path class="st5" d="M265.5,201.8c0.1,3.3,1.7,4.7,4.6,4.7c2.1,0,3.7-1.3,4-2.4h4.5c-1.4,4.4-4.5,6.3-8.7,6.3c-5.9,0-9.5-4-9.5-9.8
		c0-5.6,3.9-9.8,9.5-9.8c6.3,0,9.4,5.3,9,11.1H265.5z M273.8,198.5c-0.5-2.6-1.6-4-4.1-4c-3.3,0-4.1,2.5-4.2,4H273.8z"/>
	<path class="st5" d="M282,191.2h4.9v2.4h0.1c1.3-2,3.2-2.9,5.5-2.9c5.8,0,8.5,4.7,8.5,10c0,5-2.7,9.6-8.2,9.6c-2.3,0-4.3-1-5.6-2.8
		h-0.1v8.9H282V191.2z M295.8,200.6c0-3-1.2-6-4.5-6c-3.3,0-4.4,3-4.4,6s1.2,5.9,4.5,5.9C294.7,206.5,295.8,203.6,295.8,200.6z"/>
	<path class="st5" d="M303.7,196.9c0.3-4.8,4.6-6.2,8.7-6.2c3.7,0,8.2,0.8,8.2,5.3v9.7c0,1.7,0.2,3.4,0.6,4.1h-5.2
		c-0.2-0.6-0.3-1.2-0.4-1.8c-1.6,1.7-4,2.3-6.3,2.3c-3.6,0-6.3-1.8-6.3-5.6c0.1-8.5,12.6-3.9,12.4-8.1c0-2.2-1.5-2.5-3.3-2.5
		c-2,0-3.2,0.8-3.4,2.8H303.7z M315.5,200.7c-0.9,0.8-2.7,0.8-4.2,1.1c-1.6,0.3-3,0.9-3,2.7c0,1.9,1.5,2.4,3.1,2.4
		c4,0,4.1-3.1,4.1-4.3V200.7z"/>
	<path class="st5" d="M324.6,191.2h4.9v3.5h0.1c1-2.3,3.4-4,5.9-4c0.4,0,0.8,0.1,1.1,0.2v4.8c-0.5-0.1-1.2-0.2-1.8-0.2
		c-3.8,0-5,2.7-5,6v8.4h-5.1V191.2z"/>
	<path class="st5" d="M338.4,196.9c0.3-4.8,4.6-6.2,8.7-6.2c3.7,0,8.2,0.8,8.2,5.3v9.7c0,1.7,0.2,3.4,0.6,4.1h-5.2
		c-0.2-0.6-0.3-1.2-0.4-1.8c-1.6,1.7-4,2.3-6.3,2.3c-3.6,0-6.3-1.8-6.3-5.6c0.1-8.5,12.6-3.9,12.4-8.1c0-2.2-1.5-2.5-3.3-2.5
		c-2,0-3.2,0.8-3.4,2.8H338.4z M350.2,200.7c-0.9,0.8-2.7,0.8-4.2,1.1c-1.6,0.3-3,0.9-3,2.7c0,1.9,1.5,2.4,3.1,2.4
		c4,0,4.1-3.1,4.1-4.3V200.7z"/>
	<path class="st5" d="M365.8,191.2h3.7v3.4h-3.7v9.2c0,1.7,0.4,2.2,2.2,2.2c0.6,0,1.1,0,1.6-0.1v4c-0.9,0.1-2,0.2-3,0.2
		c-3.2,0-5.9-0.7-5.9-4.4v-11h-3.1v-3.4h3.1v-5.6h5.1V191.2z"/>
	<path class="st5" d="M377.2,188.3h-5.1v-4.2h5.1V188.3z M372.1,191.2h5.1v18.6h-5.1V191.2z"/>
	<path class="st5" d="M390.3,190.7c5.9,0,9.6,3.9,9.6,9.8c0,5.9-3.8,9.8-9.6,9.8c-5.8,0-9.6-3.9-9.6-9.8
		C380.7,194.6,384.5,190.7,390.3,190.7z M390.3,206.5c3.5,0,4.5-3,4.5-5.9c0-3-1-6-4.5-6c-3.5,0-4.5,3-4.5,6
		C385.8,203.5,386.8,206.5,390.3,206.5z"/>
	<path class="st5" d="M403.2,191.2h4.9v2.6h0.1c1.3-2.1,3.5-3.1,5.7-3.1c5.4,0,6.8,3.1,6.8,7.7v11.4h-5.1v-10.5
		c0-3.1-0.9-4.6-3.3-4.6c-2.8,0-4,1.5-4,5.3v9.8h-5.1V191.2z"/>
</g>
<g>
	<rect x="602.7" y="45.9" class="st4" width="373.2" height="49.6"/>
	<path class="st6" d="M606.2,45.9h13.6c10.1,0,14.5,7.4,14.5,16.4s-4.4,16.4-14.5,16.4h-13.6V45.9z M611.9,74.1h5.7
		c9,0,10.9-5.1,10.9-11.7c0-6.6-1.9-11.7-10.9-11.7h-5.7V74.1z"/>
	<path class="st6" d="M642.8,68.2c0,3.7,2,7,6.4,7c3.1,0,4.9-1.3,5.8-4h5c-1.1,5.2-5.6,8.1-10.8,8.1c-7.5,0-11.6-5.2-11.6-12.5
		c0-6.8,4.4-12.6,11.5-12.6c7.5,0,12.1,6.8,11.2,13.9H642.8z M655,64.8c-0.2-3.3-2.4-6.3-6-6.3c-3.6,0-6.1,2.8-6.3,6.3H655z"/>
	<path class="st6" d="M668.2,71.1c0.3,3.1,2.6,4.1,5.4,4.1c2,0,5.4-0.4,5.3-3.1c-0.1-2.8-4-3.1-7.8-4c-3.9-0.8-7.6-2.2-7.6-7
		c0-5.2,5.6-6.8,9.9-6.8c4.9,0,9.3,2,9.9,7.3h-5.5c-0.5-2.5-2.5-3.2-4.8-3.2c-1.5,0-4.3,0.4-4.3,2.4c0,2.6,3.9,3,7.7,3.8
		c3.8,0.9,7.7,2.3,7.7,6.9c0,5.7-5.7,7.7-10.6,7.7c-6,0-10.4-2.7-10.5-8.3H668.2z"/>
	<path class="st6" d="M704.2,62.9c-0.4-2.9-2.5-4.5-5.4-4.5c-2.7,0-6.5,1.5-6.5,8.6c0,4,1.7,8.1,6.3,8.1c3.1,0,5.2-2,5.7-5.4h5.2
		c-1,6.2-4.8,9.6-10.9,9.6c-7.5,0-11.5-5.3-11.5-12.3c0-7.2,3.9-12.8,11.7-12.8c5.5,0,10.2,2.8,10.7,8.6H704.2z"/>
	<path class="st6" d="M713.7,55h4.9v4.6h0.1c0.6-2.5,3.8-5.2,6.9-5.2c1.2,0,1.5,0.1,2,0.1v5.1c-0.7-0.1-1.5-0.2-2.3-0.2
		c-3.5,0-6.4,2.9-6.4,8.1v11.3h-5.2V55z"/>
	<path class="st6" d="M730,45.9h5.2v5H730V45.9z M730,55h5.2v23.8H730V55z"/>
	<path class="st6" d="M741.1,55h5v3.2h0.1c1.5-2.8,4.3-3.9,7.4-3.9c7.5,0,11.1,5.7,11.1,12.7c0,6.4-3.3,12.4-10.3,12.4
		c-3,0-6.3-1.1-8-3.7h-0.1v11.9h-5.2V55z M752.8,58.5c-4.4,0-6.7,3.3-6.7,8.4c0,4.8,2.4,8.4,6.7,8.4c4.8,0,6.6-4.2,6.6-8.4
		C759.4,62.6,757.2,58.5,752.8,58.5z"/>
	<path class="st6" d="M766.7,55h4v-7.1h5.2V55h4.7v3.9h-4.7v12.7c0,2.2,0.2,3.3,2.5,3.3c0.7,0,1.5,0,2.2-0.2v4
		c-1.1,0.1-2.3,0.3-3.4,0.3c-5.5,0-6.4-2.1-6.6-6.1v-14h-4V55z"/>
	<path class="st6" d="M784.5,45.9h5.2v5h-5.2V45.9z M784.5,55h5.2v23.8h-5.2V55z"/>
	<path class="st6" d="M794.4,66.9c0-7.2,4.4-12.5,12-12.5s12,5.3,12,12.5c0,7.3-4.4,12.6-12,12.6S794.4,74.2,794.4,66.9z
		 M813.2,66.9c0-4.1-2.1-8.4-6.8-8.4s-6.8,4.3-6.8,8.4c0,4.1,2.1,8.4,6.8,8.4S813.2,71,813.2,66.9z"/>
	<path class="st6" d="M822.8,55h5v3.5l0.1,0.1c1.6-2.6,4.3-4.2,7.4-4.2c5.2,0,8.4,2.7,8.4,8.1v16.3h-5.2v-15
		c-0.1-3.7-1.5-5.3-4.6-5.3c-3.5,0-5.8,2.8-5.8,6.3v14h-5.2V55z"/>
</g>
<g>
	<rect x="1418.6" y="45.9" class="st4" width="373.2" height="49.6"/>
	<path class="st6" d="M1422.1,45.9h15.7c7.2,0,10.9,3.3,10.9,8.9c0,6.3-4.3,7.9-5.4,8.3v0.1c2,0.2,4.9,1.8,4.9,6.9
		c0,3.9,0.6,7.3,1.8,8.6h-6.2c-0.9-1.4-0.9-3.2-0.9-4.8c0-6-1.2-8.7-6.5-8.7h-8.5v13.5h-5.8V45.9z M1427.8,60.9h9.4
		c3.7,0,5.6-1.7,5.6-5.2c0-4.2-2.7-5-5.7-5h-9.3V60.9z"/>
	<path class="st6" d="M1457.8,68.2c0,3.7,2,7,6.4,7c3.1,0,4.9-1.3,5.8-4h5c-1.1,5.2-5.6,8.1-10.8,8.1c-7.5,0-11.6-5.2-11.6-12.5
		c0-6.8,4.4-12.6,11.5-12.6c7.5,0,12.1,6.8,11.2,13.9H1457.8z M1470.1,64.8c-0.2-3.3-2.4-6.3-6-6.3c-3.6,0-6.1,2.8-6.3,6.3H1470.1z"
		/>
	<path class="st6" d="M1483.3,71.1c0.3,3.1,2.6,4.1,5.4,4.1c2,0,5.4-0.4,5.3-3.1c-0.1-2.8-4-3.1-7.8-4c-3.9-0.8-7.6-2.2-7.6-7
		c0-5.2,5.6-6.8,9.9-6.8c4.9,0,9.3,2,9.9,7.3h-5.5c-0.5-2.5-2.5-3.2-4.8-3.2c-1.5,0-4.3,0.4-4.3,2.4c0,2.6,3.9,3,7.7,3.8
		c3.8,0.9,7.7,2.3,7.7,6.9c0,5.7-5.7,7.7-10.6,7.7c-6,0-10.4-2.7-10.5-8.3H1483.3z"/>
	<path class="st6" d="M1503.3,55h5v3.2h0.1c1.5-2.8,4.3-3.9,7.4-3.9c7.5,0,11.1,5.7,11.1,12.7c0,6.4-3.3,12.4-10.3,12.4
		c-3,0-6.3-1.1-8-3.7h-0.1v11.9h-5.2V55z M1515.1,58.5c-4.4,0-6.7,3.3-6.7,8.4c0,4.8,2.4,8.4,6.7,8.4c4.8,0,6.6-4.2,6.6-8.4
		C1521.6,62.6,1519.4,58.5,1515.1,58.5z"/>
	<path class="st6" d="M1530.2,66.9c0-7.2,4.4-12.5,12-12.5s12,5.3,12,12.5c0,7.3-4.4,12.6-12,12.6S1530.2,74.2,1530.2,66.9z
		 M1549,66.9c0-4.1-2.1-8.4-6.8-8.4s-6.8,4.3-6.8,8.4c0,4.1,2.1,8.4,6.8,8.4S1549,71,1549,66.9z"/>
	<path class="st6" d="M1558.6,55h5v3.5l0.1,0.1c1.6-2.6,4.3-4.2,7.4-4.2c5.2,0,8.4,2.7,8.4,8.1v16.3h-5.2v-15
		c-0.1-3.7-1.5-5.3-4.6-5.3c-3.5,0-5.8,2.8-5.8,6.3v14h-5.2V55z"/>
	<path class="st6" d="M1588.9,71.1c0.3,3.1,2.6,4.1,5.4,4.1c2,0,5.4-0.4,5.3-3.1c-0.1-2.8-4-3.1-7.8-4c-3.9-0.8-7.6-2.2-7.6-7
		c0-5.2,5.6-6.8,9.9-6.8c4.9,0,9.3,2,9.9,7.3h-5.5c-0.5-2.5-2.5-3.2-4.8-3.2c-1.5,0-4.3,0.4-4.3,2.4c0,2.6,3.9,3,7.7,3.8
		c3.8,0.9,7.7,2.3,7.7,6.9c0,5.7-5.7,7.7-10.6,7.7c-6,0-10.4-2.7-10.5-8.3H1588.9z"/>
	<path class="st6" d="M1609,45.9h5.2v5h-5.2V45.9z M1609,55h5.2v23.8h-5.2V55z"/>
	<path class="st6" d="M1620.1,45.9h5.2v12.1h0.1c1.5-2.3,4.4-3.7,7.1-3.7c7.5,0,11.1,5.7,11.1,12.7c0,6.4-3.3,12.4-10.3,12.4
		c-3.2,0-6.7-0.8-8.2-3.9h-0.1v3.3h-5V45.9z M1631.8,58.5c-4.4,0-6.7,3.3-6.7,8.4c0,4.8,2.4,8.4,6.7,8.4c4.8,0,6.6-4.2,6.6-8.4
		C1638.4,62.6,1636.1,58.5,1631.8,58.5z"/>
	<path class="st6" d="M1648.2,45.9h5.2v32.8h-5.2V45.9z"/>
	<path class="st6" d="M1663.2,68.2c0,3.7,2,7,6.4,7c3.1,0,4.9-1.3,5.8-4h5c-1.1,5.2-5.6,8.1-10.8,8.1c-7.5,0-11.6-5.2-11.6-12.5
		c0-6.8,4.4-12.6,11.5-12.6c7.5,0,12.1,6.8,11.2,13.9H1663.2z M1675.5,64.8c-0.2-3.3-2.4-6.3-6-6.3c-3.6,0-6.1,2.8-6.3,6.3H1675.5z"
		/>
</g>
<g>
	<rect x="221.3" y="448" class="st4" width="287.3" height="47.8"/>
	<path class="st5" d="M235.8,473.7h-6.4l-8.4-25.7h5.8l5.7,18.1h0.1l5.8-18.1h5.8L235.8,473.7z"/>
	<path class="st5" d="M250.2,465.7c0.1,3.3,1.7,4.7,4.6,4.7c2.1,0,3.7-1.3,4-2.4h4.5c-1.4,4.4-4.5,6.3-8.7,6.3c-5.9,0-9.5-4-9.5-9.8
		c0-5.6,3.9-9.8,9.5-9.8c6.3,0,9.4,5.3,9,11.1H250.2z M258.5,462.4c-0.5-2.6-1.6-4-4.1-4c-3.3,0-4.1,2.5-4.2,4H258.5z"/>
	<path class="st5" d="M266.6,455.1h4.9v3.5h0.1c1-2.3,3.4-4,5.9-4c0.4,0,0.8,0.1,1.1,0.2v4.8c-0.5-0.1-1.2-0.2-1.8-0.2
		c-3.8,0-5,2.7-5,6v8.4h-5.1V455.1z"/>
	<path class="st5" d="M285.9,452.2h-5.1V448h5.1V452.2z M280.8,455.1h5.1v18.6h-5.1V455.1z"/>
	<path class="st5" d="M291,458.5H288v-3.4h3.1v-1.4c0-3.3,2.1-5.7,6.2-5.7c0.9,0,1.8,0.1,2.7,0.1v3.8c-0.6-0.1-1.3-0.1-1.9-0.1
		c-1.4,0-1.9,0.6-1.9,2.1v1.1h3.5v3.4h-3.5v15.2H291V458.5z M307.9,452.2h-5.1V448h5.1V452.2z M302.8,455.1h5.1v18.6h-5.1V455.1z"/>
	<path class="st5" d="M324.6,461.7c-0.3-2.1-1.6-3.2-3.8-3.2c-3.3,0-4.4,3.3-4.4,6c0,2.7,1,5.9,4.2,5.9c2.4,0,3.7-1.5,4.1-3.8h4.9
		c-0.7,4.9-4,7.6-9,7.6c-5.6,0-9.4-4-9.4-9.5c0-5.8,3.5-10.1,9.5-10.1c4.4,0,8.5,2.3,8.7,7.1H324.6z"/>
	<path class="st5" d="M332.4,460.8c0.3-4.8,4.6-6.2,8.7-6.2c3.7,0,8.2,0.8,8.2,5.3v9.7c0,1.7,0.2,3.4,0.6,4.1h-5.2
		c-0.2-0.6-0.3-1.2-0.4-1.8c-1.6,1.7-4,2.3-6.3,2.3c-3.6,0-6.3-1.8-6.3-5.6c0.1-8.5,12.6-3.9,12.4-8.1c0-2.2-1.5-2.5-3.3-2.5
		c-2,0-3.2,0.8-3.4,2.8H332.4z M344.2,464.6c-0.9,0.8-2.7,0.8-4.2,1.1c-1.6,0.3-3,0.9-3,2.7c0,1.9,1.5,2.4,3.1,2.4
		c4,0,4.1-3.1,4.1-4.3V464.6z"/>
	<path class="st5" d="M359.7,455.1h3.7v3.4h-3.7v9.2c0,1.7,0.4,2.2,2.2,2.2c0.6,0,1.1,0,1.6-0.1v4c-0.9,0.1-2,0.2-3,0.2
		c-3.2,0-5.9-0.7-5.9-4.4v-11h-3.1v-3.4h3.1v-5.6h5.1V455.1z"/>
	<path class="st5" d="M371.2,452.2h-5.1V448h5.1V452.2z M366.1,455.1h5.1v18.6h-5.1V455.1z"/>
	<path class="st5" d="M384.2,454.6c5.9,0,9.6,3.9,9.6,9.8c0,5.9-3.8,9.8-9.6,9.8c-5.8,0-9.6-3.9-9.6-9.8
		C374.6,458.5,378.4,454.6,384.2,454.6z M384.2,470.4c3.5,0,4.5-3,4.5-5.9c0-3-1-6-4.5-6c-3.5,0-4.5,3-4.5,6
		C379.7,467.4,380.8,470.4,384.2,470.4z"/>
	<path class="st5" d="M397.2,455.1h4.9v2.6h0.1c1.3-2.1,3.5-3.1,5.7-3.1c5.4,0,6.8,3.1,6.8,7.7v11.4h-5.1v-10.5
		c0-3.1-0.9-4.6-3.3-4.6c-2.8,0-4,1.5-4,5.3v9.8h-5.1V455.1z"/>
</g>
<g>
	<path class="st7" d="M-233.6,553.1c20.5,0,37.1,16.6,37.1,37.1c0,20.5-16.6,37.1-37.1,37.1c-20.5,0-37.1-16.6-37.1-37.1
		C-270.6,569.7-254,553.1-233.6,553.1"/>
	<g>
		<rect x="-256.7" y="570.6" class="st4" width="46.4" height="39"/>
		<path class="st5" d="M-244.9,583c-0.4-6.9,3.8-12.1,11-12.1c5.9,0,10.7,3.5,10.7,9.8c0,6-4,9-8.3,11.7c-4.2,2.6-8.8,4.8-9.6,9
			h17.6v3.6h-22.3c0.6-8.1,4.8-11.1,9.6-14c5.8-3.6,8.7-5.6,8.7-10.4c0-3.7-3-6.2-6.6-6.2c-4.8,0-6.8,4.4-6.7,8.5H-244.9z"/>
	</g>
</g>
<g>
	<rect x="604.7" y="167.7" class="st4" width="749.2" height="191.8"/>
	<path d="M613.7,174.1c3.6,0,6.4,2.8,6.4,6.4c0,3.6-2.9,6.4-6.4,6.4s-6.4-2.9-6.4-6.4C607.3,177,610.1,174.1,613.7,174.1z"/>
	<path d="M656,184.1c0,6.5-3.7,9.9-10.1,9.9c-6.6,0-10.5-3.1-10.5-9.9v-16.4h3.4v16.4c0,4.6,2.6,7,7.1,7c4.4,0,6.7-2.4,6.7-7v-16.4
		h3.4V184.1z"/>
	<path d="M662.9,187.5c0.1,2.7,2.5,3.6,5,3.6c1.9,0,4.5-0.4,4.5-2.8c0-4.8-12.2-1.5-12.2-8.7c0-3.7,3.7-5.3,6.9-5.3
		c4.2,0,7.3,1.3,7.6,5.8h-3.1c-0.2-2.4-2.3-3.1-4.3-3.1c-1.8,0-4,0.5-4,2.4c0,2.2,3.2,2.6,6.1,3.2c3.1,0.7,6.1,1.7,6.1,5.3
		c0,4.5-4.1,5.9-7.9,5.9c-4.2,0-7.7-1.7-7.9-6.3H662.9z"/>
	<path d="M694.9,187.5c-0.8,4.1-3.7,6.3-8,6.3c-5.9,0-8.7-4.1-8.9-9.8c0-5.6,3.7-9.7,8.7-9.7c6.6,0,8.6,6.2,8.4,10.7h-13.9
		c-0.1,3.2,1.7,6.1,5.8,6.1c2.6,0,4.3-1.2,4.8-3.6H694.9z M691.9,182.3c-0.2-2.9-2.3-5.3-5.4-5.3c-3.2,0-5.1,2.4-5.3,5.3H691.9z"/>
	<path d="M724.8,193.3c-0.5,0.3-1.3,0.5-2.2,0.5c-1.6,0-2.6-0.9-2.6-2.9c-1.7,2-4,2.9-6.6,2.9c-3.4,0-6.2-1.5-6.2-5.2
		c0-4.2,3.1-5.1,6.3-5.7c3.3-0.7,6.3-0.4,6.3-2.7c0-2.7-2.2-3.1-4.1-3.1c-2.6,0-4.5,0.8-4.6,3.5h-3.1c0.2-4.6,3.7-6.2,7.9-6.2
		c3.3,0,7,0.8,7,5.1v9.6c0,1.4,0,2.1,1,2.1c0.3,0,0.6-0.1,0.9-0.2V193.3z M719.9,183.8c-2.4,1.8-9.3,0-9.3,4.6c0,2,1.7,2.7,3.6,2.7
		c4,0,5.7-2.5,5.7-4.2V183.8z"/>
	<path d="M727.8,174.8h3.1v2.5h0.1c1-2.1,3.3-3,5.9-3c5.7,0,8.6,4.5,8.6,9.8c0,5.3-2.8,9.7-8.5,9.7c-1.9,0-4.7-0.7-6-2.9h-0.1v9.6
		h-3.1V174.8z M736.4,177c-4.1,0-5.7,3.6-5.7,7c0,3.6,1.7,7.1,5.9,7.1c4.2,0,5.6-3.6,5.6-7.2C742.2,180.4,740.4,177,736.4,177z"/>
	<path d="M749.1,174.8h3.1v2.5h0.1c1-2.1,3.3-3,5.9-3c5.7,0,8.6,4.5,8.6,9.8c0,5.3-2.8,9.7-8.5,9.7c-1.9,0-4.7-0.7-6-2.9h-0.1v9.6
		h-3.1V174.8z M757.8,177c-4.1,0-5.7,3.6-5.7,7c0,3.6,1.7,7.1,5.9,7.1c4.2,0,5.6-3.6,5.6-7.2C763.5,180.4,761.7,177,757.8,177z"/>
	<path d="M770.3,174.8h2.9v3.9h0.1c1.5-3,3.5-4.5,6.8-4.4v3.2c-4.9,0-6.7,2.8-6.7,7.5v8.3h-3.1V174.8z"/>
	<path d="M790.4,174.3c5.9,0,9,4.3,9,9.8c0,5.4-3.1,9.7-9,9.7s-9-4.3-9-9.7C781.4,178.6,784.5,174.3,790.4,174.3z M790.4,191.1
		c3.2,0,5.8-2.5,5.8-7c0-4.5-2.6-7.1-5.8-7.1s-5.8,2.6-5.8,7.1C784.6,188.6,787.2,191.1,790.4,191.1z"/>
	<path d="M811.4,193.4h-3.3l-6.9-18.6h3.4l5.2,15.5h0.1l5.1-15.5h3.2L811.4,193.4z"/>
	<path d="M836.9,187.5c-0.8,4.1-3.7,6.3-8,6.3c-5.9,0-8.7-4.1-8.9-9.8c0-5.6,3.7-9.7,8.7-9.7c6.6,0,8.6,6.2,8.4,10.7h-13.9
		c-0.1,3.2,1.7,6.1,5.8,6.1c2.6,0,4.3-1.2,4.8-3.6H836.9z M833.9,182.3c-0.2-2.9-2.3-5.3-5.4-5.3c-3.2,0-5.1,2.4-5.3,5.3H833.9z"/>
	<path d="M857,193.4h-3.1v-2.5h-0.1c-1,2.1-3.3,3-5.9,3c-5.7,0-8.6-4.5-8.6-9.8s2.8-9.7,8.5-9.7c1.9,0,4.7,0.7,6,2.9h0.1v-9.6h3.1
		V193.4z M848.3,191.1c4.1,0,5.7-3.6,5.7-7c0-3.6-1.7-7.1-5.9-7.1c-4.2,0-5.6,3.6-5.6,7.2C842.6,187.7,844.4,191.1,848.3,191.1z"/>
	<path d="M874.9,171.4h-3.1v-3.7h3.1V171.4z M871.9,174.8h3.1v18.6h-3.1V174.8z"/>
	<path d="M879.7,174.8h2.9v3h0.1c1.3-2.3,3.3-3.4,6-3.4c4.9,0,6.4,2.8,6.4,6.8v12.2H892v-12.6c0-2.3-1.4-3.7-3.8-3.7
		c-3.7,0-5.5,2.5-5.5,5.8v10.5h-3.1V174.8z"/>
	<path d="M901.6,187.5c0.1,2.7,2.5,3.6,5,3.6c1.9,0,4.5-0.4,4.5-2.8c0-4.8-12.2-1.5-12.2-8.7c0-3.7,3.7-5.3,6.9-5.3
		c4.2,0,7.3,1.3,7.6,5.8h-3.1c-0.2-2.4-2.3-3.1-4.3-3.1c-1.8,0-4,0.5-4,2.4c0,2.2,3.2,2.6,6.1,3.2c3.1,0.7,6.1,1.7,6.1,5.3
		c0,4.5-4.1,5.9-7.9,5.9c-4.2,0-7.7-1.7-7.9-6.3H901.6z"/>
	<path d="M922,174.8h3.7v2.7H922V189c0,1.4,0.4,1.7,2.3,1.7h1.4v2.7h-2.3c-3.2,0-4.4-0.6-4.4-4.1v-11.8h-3.2v-2.7h3.2v-5.6h3.1
		V174.8z"/>
	<path d="M945.5,193.3c-0.5,0.3-1.3,0.5-2.2,0.5c-1.6,0-2.6-0.9-2.6-2.9c-1.7,2-4,2.9-6.6,2.9c-3.4,0-6.2-1.5-6.2-5.2
		c0-4.2,3.1-5.1,6.3-5.7c3.3-0.7,6.3-0.4,6.3-2.7c0-2.7-2.2-3.1-4.1-3.1c-2.6,0-4.5,0.8-4.6,3.5h-3.1c0.2-4.6,3.7-6.2,7.9-6.2
		c3.3,0,7,0.8,7,5.1v9.6c0,1.4,0,2.1,1,2.1c0.3,0,0.6-0.1,0.9-0.2V193.3z M940.6,183.8c-2.4,1.8-9.3,0-9.3,4.6c0,2,1.7,2.7,3.6,2.7
		c4,0,5.7-2.5,5.7-4.2V183.8z"/>
	<path d="M948.6,167.7h3.1v25.7h-3.1V167.7z"/>
	<path d="M956.6,167.7h3.1v25.7h-3.1V167.7z"/>
	<path d="M980.9,193.3c-0.5,0.3-1.3,0.5-2.2,0.5c-1.6,0-2.6-0.9-2.6-2.9c-1.7,2-4,2.9-6.6,2.9c-3.4,0-6.2-1.5-6.2-5.2
		c0-4.2,3.1-5.1,6.3-5.7c3.3-0.7,6.3-0.4,6.3-2.7c0-2.7-2.2-3.1-4.1-3.1c-2.6,0-4.5,0.8-4.6,3.5h-3.1c0.2-4.6,3.7-6.2,7.9-6.2
		c3.3,0,7,0.8,7,5.1v9.6c0,1.4,0,2.1,1,2.1c0.3,0,0.6-0.1,0.9-0.2V193.3z M975.9,183.8c-2.4,1.8-9.3,0-9.3,4.6c0,2,1.7,2.7,3.6,2.7
		c4,0,5.7-2.5,5.7-4.2V183.8z"/>
	<path d="M987.9,174.8h3.7v2.7h-3.7V189c0,1.4,0.4,1.7,2.3,1.7h1.4v2.7h-2.3c-3.2,0-4.4-0.6-4.4-4.1v-11.8h-3.2v-2.7h3.2v-5.6h3.1
		V174.8z"/>
	<path d="M998.3,171.4h-3.1v-3.7h3.1V171.4z M995.2,174.8h3.1v18.6h-3.1V174.8z"/>
	<path d="M1011.1,174.3c5.9,0,9,4.3,9,9.8c0,5.4-3.1,9.7-9,9.7s-9-4.3-9-9.7C1002,178.6,1005.2,174.3,1011.1,174.3z M1011.1,191.1
		c3.2,0,5.8-2.5,5.8-7c0-4.5-2.6-7.1-5.8-7.1c-3.2,0-5.8,2.6-5.8,7.1C1005.3,188.6,1007.9,191.1,1011.1,191.1z"/>
	<path d="M1023.7,174.8h2.9v3h0.1c1.3-2.3,3.3-3.4,6-3.4c4.9,0,6.4,2.8,6.4,6.8v12.2h-3.1v-12.6c0-2.3-1.4-3.7-3.8-3.7
		c-3.7,0-5.5,2.5-5.5,5.8v10.5h-3.1V174.8z"/>
	<path d="M1054.2,167.7h8.8c7.9,0,12.3,4,12.3,12.2c0,8.6-3.8,13.5-12.3,13.5h-8.8V167.7z M1057.6,190.5h5.7c2.3,0,8.6-0.6,8.6-10.1
		c0-6.1-2.3-9.8-8.6-9.8h-5.8V190.5z"/>
	<path d="M1079.6,167.7h3.4v11.1h13.5v-11.1h3.4v25.7h-3.4v-11.8H1083v11.8h-3.4V167.7z"/>
	<path d="M1105.6,167.7h12.1c4.9,0,7.8,2.6,7.8,6.7c0,3.1-1.3,5.7-4.5,6.5v0.1c3,0.6,3.6,2.8,3.9,5.3c0.2,2.5,0.1,5.4,1.5,7.1h-3.8
		c-1-1-0.4-3.8-0.9-6.3c-0.4-2.5-1-4.6-4.3-4.6h-8.4v11h-3.4V167.7z M1116.1,179.5c3.2,0,5.9-0.8,5.9-4.6c0-2.6-1.4-4.4-4.6-4.4
		h-8.5v9H1116.1z"/>
	<path d="M1144,174.8h3.7v2.7h-3.7V189c0,1.4,0.4,1.7,2.3,1.7h1.4v2.7h-2.3c-3.2,0-4.4-0.6-4.4-4.1v-11.8h-3.2v-2.7h3.2v-5.6h3.1
		V174.8z"/>
	<path d="M1159.1,174.3c5.9,0,9,4.3,9,9.8c0,5.4-3.1,9.7-9,9.7s-9-4.3-9-9.7C1150.1,178.6,1153.2,174.3,1159.1,174.3z M1159.1,191.1
		c3.2,0,5.8-2.5,5.8-7c0-4.5-2.6-7.1-5.8-7.1c-3.2,0-5.8,2.6-5.8,7.1C1153.3,188.6,1155.9,191.1,1159.1,191.1z"/>
	<path d="M1198.4,193.4h-3.1v-2.5h-0.1c-1,2.1-3.3,3-5.9,3c-5.7,0-8.6-4.5-8.6-9.8s2.8-9.7,8.5-9.7c1.9,0,4.7,0.7,6,2.9h0.1v-9.6
		h3.1V193.4z M1189.7,191.1c4.1,0,5.7-3.6,5.7-7c0-3.6-1.7-7.1-5.9-7.1c-4.2,0-5.6,3.6-5.6,7.2
		C1184,187.7,1185.8,191.1,1189.7,191.1z"/>
	<path d="M1211.1,174.3c5.9,0,9,4.3,9,9.8c0,5.4-3.1,9.7-9,9.7s-9-4.3-9-9.7C1202.1,178.6,1205.2,174.3,1211.1,174.3z M1211.1,191.1
		c3.2,0,5.8-2.5,5.8-7c0-4.5-2.6-7.1-5.8-7.1c-3.2,0-5.8,2.6-5.8,7.1C1205.3,188.6,1207.9,191.1,1211.1,191.1z"/>
	<path d="M1236.4,180.7c-0.5-2.3-2.1-3.7-4.6-3.7c-4.4,0-5.8,3.5-5.8,7.3c0,3.5,1.5,6.8,5.4,6.8c3,0,4.7-1.7,5.1-4.5h3.1
		c-0.7,4.6-3.5,7.2-8.2,7.2c-5.7,0-8.7-3.9-8.7-9.5c0-5.6,2.9-10,8.8-10c4.2,0,7.6,2,8,6.4H1236.4z"/>
	<path d="M1258.5,193.4h-2.9v-3h-0.1c-1.3,2.3-3.3,3.4-6,3.4c-4.9,0-6.4-2.8-6.4-6.8v-12.2h3.1v12.6c0,2.3,1.4,3.7,3.8,3.7
		c3.7,0,5.5-2.5,5.5-5.8v-10.5h3.1V193.4z"/>
	<path d="M1263.1,174.8h2.9v2.7h0.1c1.4-2.1,3.4-3.2,6-3.2c2.3,0,4.4,0.9,5.1,3.2c1.3-2,3.4-3.2,5.8-3.2c3.7,0,6.2,1.5,6.2,5.4v13.6
		h-3.1v-12.2c0-2.3-0.6-4.1-3.6-4.1s-4.9,1.9-4.9,4.8v11.6h-3.1v-12.2c0-2.4-0.8-4.1-3.5-4.1c-3.6,0-5,3.3-5,4.8v11.6h-3.1V174.8z"
		/>
	<path d="M1309.7,187.5c-0.8,4.1-3.7,6.3-8,6.3c-5.9,0-8.7-4.1-8.9-9.8c0-5.6,3.7-9.7,8.7-9.7c6.6,0,8.6,6.2,8.4,10.7H1296
		c-0.1,3.2,1.7,6.1,5.8,6.1c2.6,0,4.3-1.2,4.8-3.6H1309.7z M1306.7,182.3c-0.2-2.9-2.3-5.3-5.4-5.3c-3.2,0-5.1,2.4-5.3,5.3H1306.7z"
		/>
	<path d="M1313.1,174.8h2.9v3h0.1c1.3-2.3,3.3-3.4,6-3.4c4.9,0,6.4,2.8,6.4,6.8v12.2h-3.1v-12.6c0-2.3-1.4-3.7-3.8-3.7
		c-3.7,0-5.5,2.5-5.5,5.8v10.5h-3.1V174.8z"/>
	<path d="M1337.4,174.8h3.7v2.7h-3.7V189c0,1.4,0.4,1.7,2.3,1.7h1.4v2.7h-2.3c-3.2,0-4.4-0.6-4.4-4.1v-11.8h-3.2v-2.7h3.2v-5.6h3.1
		V174.8z"/>
	<path d="M640.2,214.6h-3.1v-3.7h3.1V214.6z M637.2,218h3.1v18.6h-3.1V218z"/>
	<path d="M645,218h2.9v3h0.1c1.3-2.3,3.3-3.4,6-3.4c4.9,0,6.4,2.8,6.4,6.8v12.2h-3.1V224c0-2.3-1.4-3.7-3.8-3.7
		c-3.7,0-5.5,2.5-5.5,5.8v10.5H645V218z"/>
	<path d="M666.9,230.7c0.1,2.7,2.5,3.6,5,3.6c1.9,0,4.5-0.4,4.5-2.8c0-4.8-12.2-1.5-12.2-8.7c0-3.7,3.7-5.3,6.9-5.3
		c4.2,0,7.3,1.3,7.6,5.8h-3.1c-0.2-2.4-2.3-3.1-4.3-3.1c-1.8,0-4,0.5-4,2.4c0,2.2,3.2,2.6,6.1,3.2c3.1,0.7,6.1,1.7,6.1,5.3
		c0,4.5-4.1,5.9-7.9,5.9c-4.2,0-7.7-1.7-7.9-6.3H666.9z"/>
	<path d="M687.3,218h3.7v2.7h-3.7v11.6c0,1.4,0.4,1.7,2.3,1.7h1.4v2.7h-2.3c-3.2,0-4.4-0.6-4.4-4.1v-11.8H681V218h3.2v-5.6h3.1V218z
		"/>
	<path d="M710.8,236.5c-0.5,0.3-1.3,0.5-2.2,0.5c-1.6,0-2.6-0.9-2.6-2.9c-1.7,2-4,2.9-6.6,2.9c-3.4,0-6.2-1.5-6.2-5.2
		c0-4.2,3.1-5.1,6.3-5.7c3.3-0.7,6.3-0.4,6.3-2.7c0-2.7-2.2-3.1-4.1-3.1c-2.6,0-4.5,0.8-4.6,3.5h-3.1c0.2-4.6,3.7-6.2,7.9-6.2
		c3.3,0,7,0.8,7,5.1v9.6c0,1.4,0,2.1,1,2.1c0.3,0,0.6-0.1,0.9-0.2V236.5z M705.9,227c-2.4,1.8-9.3,0-9.3,4.6c0,2,1.7,2.7,3.6,2.7
		c4,0,5.7-2.5,5.7-4.2V227z"/>
	<path d="M713.9,210.9h3.1v25.7h-3.1V210.9z"/>
	<path d="M721.9,210.9h3.1v25.7h-3.1V210.9z"/>
	<path d="M746.2,236.5c-0.5,0.3-1.3,0.5-2.2,0.5c-1.6,0-2.6-0.9-2.6-2.9c-1.7,2-4,2.9-6.6,2.9c-3.4,0-6.2-1.5-6.2-5.2
		c0-4.2,3.1-5.1,6.3-5.7c3.3-0.7,6.3-0.4,6.3-2.7c0-2.7-2.2-3.1-4.1-3.1c-2.6,0-4.5,0.8-4.6,3.5h-3.1c0.2-4.6,3.7-6.2,7.9-6.2
		c3.3,0,7,0.8,7,5.1v9.6c0,1.4,0,2.1,1,2.1c0.3,0,0.6-0.1,0.9-0.2V236.5z M741.2,227c-2.4,1.8-9.3,0-9.3,4.6c0,2,1.7,2.7,3.6,2.7
		c4,0,5.7-2.5,5.7-4.2V227z"/>
	<path d="M753.2,218h3.7v2.7h-3.7v11.6c0,1.4,0.4,1.7,2.3,1.7h1.4v2.7h-2.3c-3.2,0-4.4-0.6-4.4-4.1v-11.8H747V218h3.2v-5.6h3.1V218z
		"/>
	<path d="M763.6,214.6h-3.1v-3.7h3.1V214.6z M760.5,218h3.1v18.6h-3.1V218z"/>
	<path d="M776.4,217.5c5.9,0,9,4.3,9,9.8c0,5.4-3.1,9.7-9,9.7s-9-4.3-9-9.7C767.3,221.8,770.5,217.5,776.4,217.5z M776.4,234.3
		c3.2,0,5.8-2.5,5.8-7c0-4.5-2.6-7.1-5.8-7.1s-5.8,2.6-5.8,7.1C770.6,231.8,773.2,234.3,776.4,234.3z"/>
	<path d="M789,218h2.9v3h0.1c1.3-2.3,3.3-3.4,6-3.4c4.9,0,6.4,2.8,6.4,6.8v12.2h-3.1V224c0-2.3-1.4-3.7-3.8-3.7
		c-3.7,0-5.5,2.5-5.5,5.8v10.5H789V218z"/>
	<path d="M835.5,236.5c-0.5,0.3-1.3,0.5-2.2,0.5c-1.6,0-2.6-0.9-2.6-2.9c-1.7,2-4,2.9-6.6,2.9c-3.4,0-6.2-1.5-6.2-5.2
		c0-4.2,3.1-5.1,6.3-5.7c3.3-0.7,6.3-0.4,6.3-2.7c0-2.7-2.2-3.1-4.1-3.1c-2.6,0-4.5,0.8-4.6,3.5h-3.1c0.2-4.6,3.7-6.2,7.9-6.2
		c3.3,0,7,0.8,7,5.1v9.6c0,1.4,0,2.1,1,2.1c0.3,0,0.6-0.1,0.9-0.2V236.5z M830.5,227c-2.4,1.8-9.3,0-9.3,4.6c0,2,1.7,2.7,3.6,2.7
		c4,0,5.7-2.5,5.7-4.2V227z"/>
	<path d="M851,223.9c-0.5-2.3-2.1-3.7-4.6-3.7c-4.4,0-5.8,3.5-5.8,7.3c0,3.5,1.5,6.8,5.4,6.8c3,0,4.7-1.7,5.1-4.5h3.1
		c-0.7,4.6-3.5,7.2-8.2,7.2c-5.7,0-8.7-3.9-8.7-9.5c0-5.6,2.9-10,8.8-10c4.2,0,7.6,2,8,6.4H851z"/>
	<path d="M861.9,218h3.7v2.7h-3.7v11.6c0,1.4,0.4,1.7,2.3,1.7h1.4v2.7h-2.3c-3.2,0-4.4-0.6-4.4-4.1v-11.8h-3.2V218h3.2v-5.6h3.1V218
		z"/>
	<path d="M872.3,214.6h-3.1v-3.7h3.1V214.6z M869.2,218h3.1v18.6h-3.1V218z"/>
	<path d="M885.4,236.6h-3.3l-6.9-18.6h3.4l5.2,15.5h0.1L889,218h3.2L885.4,236.6z"/>
	<path d="M898.2,214.6h-3.1v-3.7h3.1V214.6z M895.2,218h3.1v18.6h-3.1V218z"/>
	<path d="M907.2,218h3.7v2.7h-3.7v11.6c0,1.4,0.4,1.7,2.3,1.7h1.4v2.7h-2.3c-3.2,0-4.4-0.6-4.4-4.1v-11.8H901V218h3.2v-5.6h3.1V218z
		"/>
	<path d="M917.6,214.6h-3.1v-3.7h3.1V214.6z M914.5,218h3.1v18.6h-3.1V218z"/>
	<path d="M938.2,230.7c-0.8,4.1-3.7,6.3-8,6.3c-5.9,0-8.7-4.1-8.9-9.8c0-5.6,3.7-9.7,8.7-9.7c6.6,0,8.6,6.2,8.4,10.7h-13.9
		c-0.1,3.2,1.7,6.1,5.8,6.1c2.6,0,4.3-1.2,4.8-3.6H938.2z M935.3,225.5c-0.2-2.9-2.3-5.3-5.4-5.3c-3.2,0-5.1,2.4-5.3,5.3H935.3z"/>
	<path d="M943.5,230.7c0.1,2.7,2.5,3.6,5,3.6c1.9,0,4.5-0.4,4.5-2.8c0-4.8-12.2-1.5-12.2-8.7c0-3.7,3.7-5.3,6.9-5.3
		c4.2,0,7.3,1.3,7.6,5.8h-3.1c-0.2-2.4-2.3-3.1-4.3-3.1c-1.8,0-4,0.5-4,2.4c0,2.2,3.2,2.6,6.1,3.2c3.1,0.7,6.1,1.7,6.1,5.3
		c0,4.5-4.1,5.9-7.9,5.9c-4.2,0-7.7-1.7-7.9-6.3H943.5z"/>
	<path d="M613.7,270.5c3.6,0,6.4,2.8,6.4,6.4c0,3.6-2.9,6.4-6.4,6.4s-6.4-2.9-6.4-6.4C607.3,273.4,610.1,270.5,613.7,270.5z"/>
	<path d="M641.3,267h-8.6v-2.9h20.6v2.9h-8.6v22.8h-3.4V267z"/>
	<path d="M655.6,271.2h2.9v3.9h0.1c1.5-3,3.5-4.5,6.8-4.4v3.2c-4.9,0-6.7,2.8-6.7,7.5v8.3h-3.1V271.2z"/>
	<path d="M684.1,289.7c-0.5,0.3-1.3,0.5-2.2,0.5c-1.6,0-2.6-0.9-2.6-2.9c-1.7,2-4,2.9-6.6,2.9c-3.4,0-6.2-1.5-6.2-5.2
		c0-4.2,3.1-5.1,6.3-5.7c3.3-0.7,6.3-0.4,6.3-2.7c0-2.7-2.2-3.1-4.1-3.1c-2.6,0-4.5,0.8-4.6,3.5h-3.1c0.2-4.6,3.7-6.2,7.9-6.2
		c3.3,0,7,0.8,7,5.1v9.6c0,1.4,0,2.1,1,2.1c0.3,0,0.6-0.1,0.9-0.2V289.7z M679.2,280.2c-2.4,1.8-9.3,0-9.3,4.6c0,2,1.7,2.7,3.6,2.7
		c4,0,5.7-2.5,5.7-4.2V280.2z"/>
	<path d="M687,271.2h2.9v3h0.1c1.3-2.3,3.3-3.4,6-3.4c4.9,0,6.4,2.8,6.4,6.8v12.2h-3.1v-12.6c0-2.3-1.4-3.7-3.8-3.7
		c-3.7,0-5.5,2.5-5.5,5.8v10.5H687V271.2z"/>
	<path d="M708.9,283.9c0.1,2.7,2.5,3.6,5,3.6c1.9,0,4.5-0.4,4.5-2.8c0-4.8-12.2-1.5-12.2-8.7c0-3.7,3.7-5.3,6.9-5.3
		c4.2,0,7.3,1.3,7.6,5.8h-3.1c-0.2-2.4-2.3-3.1-4.3-3.1c-1.8,0-4,0.5-4,2.4c0,2.2,3.2,2.6,6.1,3.2c3.1,0.7,6.1,1.7,6.1,5.3
		c0,4.5-4.1,5.9-7.9,5.9c-4.2,0-7.7-1.7-7.9-6.3H708.9z"/>
	<path d="M726.3,273.9h-3.1v-2.7h3.1v-2.8c0-3,1.8-4.6,5.1-4.6c0.6,0,1.4,0.1,2,0.3v2.7c-0.5-0.2-1.2-0.3-1.7-0.3
		c-1.5,0-2.3,0.5-2.3,2.1v2.6h3.6v2.7h-3.6v15.9h-3.1V273.9z"/>
	<path d="M751.5,283.9c-0.8,4.1-3.7,6.3-8,6.3c-5.9,0-8.7-4.1-8.9-9.8c0-5.6,3.7-9.7,8.7-9.7c6.6,0,8.6,6.2,8.4,10.7h-13.9
		c-0.1,3.2,1.7,6.1,5.8,6.1c2.6,0,4.3-1.2,4.8-3.6H751.5z M748.6,278.7c-0.2-2.9-2.3-5.3-5.4-5.3c-3.2,0-5.1,2.4-5.3,5.3H748.6z"/>
	<path d="M754.9,271.2h2.9v3.9h0.1c1.5-3,3.5-4.5,6.8-4.4v3.2c-4.9,0-6.7,2.8-6.7,7.5v8.3h-3.1V271.2z"/>
	<path d="M781.2,271.2h3.7v2.7h-3.7v11.6c0,1.4,0.4,1.7,2.3,1.7h1.4v2.7h-2.3c-3.2,0-4.4-0.6-4.4-4.1v-11.8H775v-2.7h3.2v-5.6h3.1
		V271.2z"/>
	<path d="M788.3,264.1h3.1v9.8h0.1c1-2.3,3.7-3.2,5.9-3.2c4.9,0,6.4,2.8,6.4,6.8v12.2h-3.1v-12.6c0-2.3-1.4-3.7-3.8-3.7
		c-3.7,0-5.5,2.5-5.5,5.8v10.5h-3.1V264.1z"/>
	<path d="M824.2,283.9c-0.8,4.1-3.7,6.3-8,6.3c-5.9,0-8.7-4.1-8.9-9.8c0-5.6,3.7-9.7,8.7-9.7c6.6,0,8.6,6.2,8.4,10.7h-13.9
		c-0.1,3.2,1.7,6.1,5.8,6.1c2.6,0,4.3-1.2,4.8-3.6H824.2z M821.3,278.7c-0.2-2.9-2.3-5.3-5.4-5.3c-3.2,0-5.1,2.4-5.3,5.3H821.3z"/>
	<path d="M849.1,263.5c8.2,0,12.3,6.4,12.3,13.5c0,7-4.1,13.5-12.3,13.5s-12.3-6.4-12.3-13.5C836.8,269.9,840.9,263.5,849.1,263.5z
		 M849.1,287.5c6.3,0,8.9-5.4,8.9-10.6c0-5.2-2.6-10.6-8.9-10.6s-8.9,5.4-8.9,10.6C840.2,282.1,842.8,287.5,849.1,287.5z"/>
	<path d="M866.3,273.9h-3.1v-2.7h3.1v-2.8c0-3,1.8-4.6,5.1-4.6c0.6,0,1.4,0.1,2,0.3v2.7c-0.5-0.2-1.2-0.3-1.7-0.3
		c-1.5,0-2.3,0.5-2.3,2.1v2.6h3.6v2.7h-3.6v15.9h-3.1V273.9z"/>
	<path d="M877,273.9h-3.1v-2.7h3.1v-2.8c0-3,1.8-4.6,5.1-4.6c0.6,0,1.4,0.1,2,0.3v2.7c-0.5-0.2-1.2-0.3-1.7-0.3
		c-1.5,0-2.3,0.5-2.3,2.1v2.6h3.6v2.7H880v15.9H877V273.9z"/>
	<path d="M902.2,283.9c-0.8,4.1-3.7,6.3-8,6.3c-5.9,0-8.7-4.1-8.9-9.8c0-5.6,3.7-9.7,8.7-9.7c6.6,0,8.6,6.2,8.4,10.7h-13.9
		c-0.1,3.2,1.7,6.1,5.8,6.1c2.6,0,4.3-1.2,4.8-3.6H902.2z M899.3,278.7c-0.2-2.9-2.3-5.3-5.4-5.3c-3.2,0-5.1,2.4-5.3,5.3H899.3z"/>
	<path d="M905.6,271.2h2.9v3.9h0.1c1.5-3,3.5-4.5,6.8-4.4v3.2c-4.9,0-6.7,2.8-6.7,7.5v8.3h-3.1V271.2z"/>
	<path d="M920.9,267.8h-3.1v-3.7h3.1V267.8z M917.9,271.2h3.1v18.6h-3.1V271.2z"/>
	<path d="M925.7,271.2h2.9v3h0.1c1.3-2.3,3.3-3.4,6-3.4c4.9,0,6.4,2.8,6.4,6.8v12.2H938v-12.6c0-2.3-1.4-3.7-3.8-3.7
		c-3.7,0-5.5,2.5-5.5,5.8v10.5h-3.1V271.2z"/>
	<path d="M961.7,288.2c0,6.1-2.7,9.1-8.6,9.1c-3.5,0-7.5-1.4-7.7-5.5h3.1c0.1,2.2,2.8,3,4.8,3c4,0,5.6-2.9,5.6-7.1v-1.2h-0.1
		c-1,2.3-3.4,3.4-5.8,3.4c-5.5,0-8.3-4.4-8.3-9.4c0-4.4,2.1-9.8,8.6-9.8c2.3,0,4.4,1,5.5,3.1h0v-2.7h2.9V288.2z M958.7,280.1
		c0-3.3-1.4-6.7-5.3-6.7c-3.9,0-5.5,3.2-5.5,6.8c0,3.3,1.2,7.1,5.3,7.1S958.7,283.6,958.7,280.1z"/>
	<path d="M979.6,267.8h-3.1v-3.7h3.1V267.8z M976.5,271.2h3.1v18.6h-3.1V271.2z"/>
	<path d="M984.3,271.2h2.9v3h0.1c1.3-2.3,3.3-3.4,6-3.4c4.9,0,6.4,2.8,6.4,6.8v12.2h-3.1v-12.6c0-2.3-1.4-3.7-3.8-3.7
		c-3.7,0-5.5,2.5-5.5,5.8v10.5h-3.1V271.2z"/>
	<path d="M1008.6,271.2h3.7v2.7h-3.7v11.6c0,1.4,0.4,1.7,2.3,1.7h1.4v2.7h-2.3c-3.2,0-4.4-0.6-4.4-4.1v-11.8h-3.2v-2.7h3.2v-5.6h3.1
		V271.2z"/>
	<path d="M1023.7,270.7c5.9,0,9,4.3,9,9.8c0,5.4-3.1,9.7-9,9.7s-9-4.3-9-9.7C1014.7,275,1017.8,270.7,1023.7,270.7z M1023.7,287.5
		c3.2,0,5.8-2.5,5.8-7c0-4.5-2.6-7.1-5.8-7.1c-3.2,0-5.8,2.6-5.8,7.1C1017.9,285,1020.5,287.5,1023.7,287.5z"/>
	<path d="M1062.9,289.7c-0.5,0.3-1.3,0.5-2.2,0.5c-1.6,0-2.6-0.9-2.6-2.9c-1.7,2-4,2.9-6.6,2.9c-3.4,0-6.2-1.5-6.2-5.2
		c0-4.2,3.1-5.1,6.3-5.7c3.3-0.7,6.3-0.4,6.3-2.7c0-2.7-2.2-3.1-4.1-3.1c-2.6,0-4.5,0.8-4.6,3.5h-3.1c0.2-4.6,3.7-6.2,7.9-6.2
		c3.3,0,7,0.8,7,5.1v9.6c0,1.4,0,2.1,1,2.1c0.3,0,0.6-0.1,0.9-0.2V289.7z M1057.9,280.2c-2.4,1.8-9.3,0-9.3,4.6c0,2,1.7,2.7,3.6,2.7
		c4,0,5.7-2.5,5.7-4.2V280.2z"/>
	<path d="M1077.6,283.9c0.1,2.7,2.5,3.6,5,3.6c1.9,0,4.5-0.4,4.5-2.8c0-4.8-12.2-1.5-12.2-8.7c0-3.7,3.7-5.3,6.9-5.3
		c4.2,0,7.3,1.3,7.6,5.8h-3.1c-0.2-2.4-2.3-3.1-4.3-3.1c-1.8,0-4,0.5-4,2.4c0,2.2,3.2,2.6,6.1,3.2c3.1,0.7,6.1,1.7,6.1,5.3
		c0,4.5-4.1,5.9-7.9,5.9c-4.2,0-7.7-1.7-7.9-6.3H1077.6z"/>
	<path d="M1098,271.2h3.7v2.7h-3.7v11.6c0,1.4,0.4,1.7,2.3,1.7h1.4v2.7h-2.3c-3.2,0-4.4-0.6-4.4-4.1v-11.8h-3.2v-2.7h3.2v-5.6h3.1
		V271.2z"/>
	<path d="M1121.5,289.7c-0.5,0.3-1.3,0.5-2.2,0.5c-1.6,0-2.6-0.9-2.6-2.9c-1.7,2-4,2.9-6.6,2.9c-3.4,0-6.2-1.5-6.2-5.2
		c0-4.2,3.1-5.1,6.3-5.7c3.3-0.7,6.3-0.4,6.3-2.7c0-2.7-2.2-3.1-4.1-3.1c-2.6,0-4.5,0.8-4.6,3.5h-3.1c0.2-4.6,3.7-6.2,7.9-6.2
		c3.3,0,7,0.8,7,5.1v9.6c0,1.4,0,2.1,1,2.1c0.3,0,0.6-0.1,0.9-0.2V289.7z M1116.6,280.2c-2.4,1.8-9.3,0-9.3,4.6c0,2,1.7,2.7,3.6,2.7
		c4,0,5.7-2.5,5.7-4.2V280.2z"/>
	<path d="M1140.4,288.2c0,6.1-2.7,9.1-8.6,9.1c-3.5,0-7.5-1.4-7.7-5.5h3.1c0.1,2.2,2.8,3,4.8,3c4,0,5.6-2.9,5.6-7.1v-1.2h-0.1
		c-1,2.3-3.4,3.4-5.8,3.4c-5.5,0-8.3-4.4-8.3-9.4c0-4.4,2.1-9.8,8.6-9.8c2.3,0,4.4,1,5.5,3.1h0v-2.7h2.9V288.2z M1137.4,280.1
		c0-3.3-1.4-6.7-5.3-6.7c-3.9,0-5.5,3.2-5.5,6.8c0,3.3,1.2,7.1,5.3,7.1S1137.4,283.6,1137.4,280.1z"/>
	<path d="M1148.3,267.8h-3.1v-3.7h3.1V267.8z M1145.2,271.2h3.1v18.6h-3.1V271.2z"/>
	<path d="M1153,271.2h2.9v3h0.1c1.3-2.3,3.3-3.4,6-3.4c4.9,0,6.4,2.8,6.4,6.8v12.2h-3.1v-12.6c0-2.3-1.4-3.7-3.8-3.7
		c-3.7,0-5.5,2.5-5.5,5.8v10.5h-3.1V271.2z"/>
	<path d="M1189.1,288.2c0,6.1-2.7,9.1-8.6,9.1c-3.5,0-7.5-1.4-7.7-5.5h3.1c0.1,2.2,2.8,3,4.8,3c4,0,5.6-2.9,5.6-7.1v-1.2h-0.1
		c-1,2.3-3.4,3.4-5.8,3.4c-5.5,0-8.3-4.4-8.3-9.4c0-4.4,2.1-9.8,8.6-9.8c2.3,0,4.4,1,5.5,3.1h0v-2.7h2.9V288.2z M1186.1,280.1
		c0-3.3-1.4-6.7-5.3-6.7c-3.9,0-5.5,3.2-5.5,6.8c0,3.3,1.2,7.1,5.3,7.1C1184.6,287.3,1186.1,283.6,1186.1,280.1z"/>
	<path d="M1211.8,270.7c5.9,0,9,4.3,9,9.8c0,5.4-3.1,9.7-9,9.7s-9-4.3-9-9.7C1202.7,275,1205.9,270.7,1211.8,270.7z M1211.8,287.5
		c3.2,0,5.8-2.5,5.8-7c0-4.5-2.6-7.1-5.8-7.1c-3.2,0-5.8,2.6-5.8,7.1C1206,285,1208.6,287.5,1211.8,287.5z"/>
	<path d="M1224.3,271.2h2.9v3.9h0.1c1.5-3,3.5-4.5,6.8-4.4v3.2c-4.9,0-6.7,2.8-6.7,7.5v8.3h-3.1V271.2z"/>
	<path d="M637.1,314.4h3.1v2.5h0.1c1-2.1,3.3-3,5.9-3c5.7,0,8.6,4.5,8.6,9.8c0,5.3-2.8,9.7-8.5,9.7c-1.9,0-4.7-0.7-6-2.9h-0.1v9.6
		h-3.1V314.4z M645.8,316.6c-4.1,0-5.7,3.6-5.7,7c0,3.6,1.7,7.1,5.9,7.1c4.2,0,5.6-3.6,5.6-7.2C651.5,320,649.7,316.6,645.8,316.6z"
		/>
	<path d="M658.2,314.4h2.9v3.9h0.1c1.5-3,3.5-4.5,6.8-4.4v3.2c-4.9,0-6.7,2.8-6.7,7.5v8.3h-3.1V314.4z"/>
	<path d="M686.2,327.1c-0.8,4.1-3.7,6.3-8,6.3c-5.9,0-8.7-4.1-8.9-9.8c0-5.6,3.7-9.7,8.7-9.7c6.6,0,8.6,6.2,8.4,10.7h-13.9
		c-0.1,3.2,1.7,6.1,5.8,6.1c2.6,0,4.3-1.2,4.8-3.6H686.2z M683.3,321.9c-0.2-2.9-2.3-5.3-5.4-5.3c-3.2,0-5.1,2.4-5.3,5.3H683.3z"/>
	<path d="M689.2,321.5h10.4v2.9h-10.4V321.5z"/>
	<path d="M703.8,314.4h3.1v2.5h0.1c1-2.1,3.3-3,5.9-3c5.7,0,8.6,4.5,8.6,9.8c0,5.3-2.8,9.7-8.5,9.7c-1.9,0-4.7-0.7-6-2.9h-0.1v9.6
		h-3.1V314.4z M712.4,316.6c-4.1,0-5.7,3.6-5.7,7c0,3.6,1.7,7.1,5.9,7.1c4.2,0,5.6-3.6,5.6-7.2C718.2,320,716.4,316.6,712.4,316.6z"
		/>
	<path d="M724.9,314.4h2.9v3.9h0.1c1.5-3,3.5-4.5,6.8-4.4v3.2c-4.9,0-6.7,2.8-6.7,7.5v8.3h-3.1V314.4z"/>
	<path d="M745,313.9c5.9,0,9,4.3,9,9.8c0,5.4-3.1,9.7-9,9.7s-9-4.3-9-9.7C736,318.2,739.1,313.9,745,313.9z M745,330.7
		c3.2,0,5.8-2.5,5.8-7c0-4.5-2.6-7.1-5.8-7.1s-5.8,2.6-5.8,7.1C739.2,328.2,741.8,330.7,745,330.7z"/>
	<path d="M774.3,333h-3.1v-2.5h-0.1c-1,2.1-3.3,3-5.9,3c-5.7,0-8.6-4.5-8.6-9.8s2.8-9.7,8.5-9.7c1.9,0,4.7,0.7,6,2.9h0.1v-9.6h3.1
		V333z M765.7,330.7c4.1,0,5.7-3.6,5.7-7c0-3.6-1.7-7.1-5.9-7.1c-4.2,0-5.6,3.6-5.6,7.2C759.9,327.3,761.7,330.7,765.7,330.7z"/>
	<path d="M794.4,333h-2.9v-3h-0.1c-1.3,2.3-3.3,3.4-6,3.4c-4.9,0-6.4-2.8-6.4-6.8v-12.2h3.1V327c0,2.3,1.4,3.7,3.8,3.7
		c3.7,0,5.5-2.5,5.5-5.8v-10.5h3.1V333z"/>
	<path d="M811.7,320.3c-0.5-2.3-2.1-3.7-4.6-3.7c-4.4,0-5.8,3.5-5.8,7.3c0,3.5,1.5,6.8,5.4,6.8c3,0,4.7-1.7,5.1-4.5h3.1
		c-0.7,4.6-3.5,7.2-8.2,7.2c-5.7,0-8.7-3.9-8.7-9.5c0-5.6,2.9-10,8.8-10c4.2,0,7.6,2,8,6.4H811.7z"/>
	<path d="M822.6,314.4h3.7v2.7h-3.7v11.6c0,1.4,0.4,1.7,2.3,1.7h1.4v2.7H824c-3.2,0-4.4-0.6-4.4-4.1v-11.8h-3.2v-2.7h3.2v-5.6h3.1
		V314.4z"/>
	<path d="M832.9,311h-3.1v-3.7h3.1V311z M829.9,314.4h3.1V333h-3.1V314.4z"/>
	<path d="M845.7,313.9c5.9,0,9,4.3,9,9.8c0,5.4-3.1,9.7-9,9.7s-9-4.3-9-9.7C836.7,318.2,839.8,313.9,845.7,313.9z M845.7,330.7
		c3.2,0,5.8-2.5,5.8-7c0-4.5-2.6-7.1-5.8-7.1s-5.8,2.6-5.8,7.1C839.9,328.2,842.5,330.7,845.7,330.7z"/>
	<path d="M858.4,314.4h2.9v3h0.1c1.3-2.3,3.3-3.4,6-3.4c4.9,0,6.4,2.8,6.4,6.8V333h-3.1v-12.6c0-2.3-1.4-3.7-3.8-3.7
		c-3.7,0-5.5,2.5-5.5,5.8V333h-3.1V314.4z"/>
	<path d="M904.3,327.1c-0.8,4.1-3.7,6.3-8,6.3c-5.9,0-8.7-4.1-8.9-9.8c0-5.6,3.7-9.7,8.7-9.7c6.6,0,8.6,6.2,8.4,10.7h-13.9
		c-0.1,3.2,1.7,6.1,5.8,6.1c2.6,0,4.3-1.2,4.8-3.6H904.3z M901.3,321.9c-0.2-2.9-2.3-5.3-5.4-5.3c-3.2,0-5.1,2.4-5.3,5.3H901.3z"/>
	<path d="M907.7,314.4h2.9v3h0.1c1.3-2.3,3.3-3.4,6-3.4c4.9,0,6.4,2.8,6.4,6.8V333h-3.1v-12.6c0-2.3-1.4-3.7-3.8-3.7
		c-3.7,0-5.5,2.5-5.5,5.8V333h-3.1V314.4z"/>
	<path d="M936.1,333h-3.3l-6.9-18.6h3.4l5.2,15.5h0.1l5.1-15.5h3.2L936.1,333z"/>
	<path d="M949,311h-3.1v-3.7h3.1V311z M945.9,314.4h3.1V333h-3.1V314.4z"/>
	<path d="M953.6,314.4h2.9v3.9h0.1c1.5-3,3.5-4.5,6.8-4.4v3.2c-4.9,0-6.7,2.8-6.7,7.5v8.3h-3.1V314.4z"/>
	<path d="M973.7,313.9c5.9,0,9,4.3,9,9.8c0,5.4-3.1,9.7-9,9.7s-9-4.3-9-9.7C964.7,318.2,967.8,313.9,973.7,313.9z M973.7,330.7
		c3.2,0,5.8-2.5,5.8-7c0-4.5-2.6-7.1-5.8-7.1c-3.2,0-5.8,2.6-5.8,7.1C967.9,328.2,970.5,330.7,973.7,330.7z"/>
	<path d="M986.4,314.4h2.9v3h0.1c1.3-2.3,3.3-3.4,6-3.4c4.9,0,6.4,2.8,6.4,6.8V333h-3.1v-12.6c0-2.3-1.4-3.7-3.8-3.7
		c-3.7,0-5.5,2.5-5.5,5.8V333h-3.1V314.4z"/>
	<path d="M1006.4,314.4h2.9v2.7h0.1c1.4-2.1,3.4-3.2,6-3.2c2.3,0,4.4,0.9,5.1,3.2c1.3-2,3.4-3.2,5.8-3.2c3.7,0,6.2,1.5,6.2,5.4V333
		h-3.1v-12.2c0-2.3-0.6-4.1-3.6-4.1s-4.9,1.9-4.9,4.8V333h-3.1v-12.2c0-2.4-0.8-4.1-3.5-4.1c-3.6,0-5,3.3-5,4.8V333h-3.1V314.4z"/>
	<path d="M1053,327.1c-0.8,4.1-3.7,6.3-8,6.3c-5.9,0-8.7-4.1-8.9-9.8c0-5.6,3.7-9.7,8.7-9.7c6.6,0,8.6,6.2,8.4,10.7h-13.9
		c-0.1,3.2,1.7,6.1,5.8,6.1c2.6,0,4.3-1.2,4.8-3.6H1053z M1050,321.9c-0.2-2.9-2.3-5.3-5.4-5.3c-3.2,0-5.1,2.4-5.3,5.3H1050z"/>
	<path d="M1056.4,314.4h2.9v3h0.1c1.3-2.3,3.3-3.4,6-3.4c4.9,0,6.4,2.8,6.4,6.8V333h-3.1v-12.6c0-2.3-1.4-3.7-3.8-3.7
		c-3.7,0-5.5,2.5-5.5,5.8V333h-3.1V314.4z"/>
	<path d="M1080.7,314.4h3.7v2.7h-3.7v11.6c0,1.4,0.4,1.7,2.3,1.7h1.4v2.7h-2.3c-3.2,0-4.4-0.6-4.4-4.1v-11.8h-3.2v-2.7h3.2v-5.6h3.1
		V314.4z"/>
</g>
<g>
	<rect x="604.7" y="436.1" class="st4" width="749.2" height="119.5"/>
	<path d="M613.7,442.6c3.6,0,6.4,2.8,6.4,6.4c0,3.6-2.9,6.4-6.4,6.4s-6.4-2.9-6.4-6.4C607.3,445.4,610.1,442.6,613.7,442.6z"/>
	<path d="M645.6,461.8h-3.9l-9.1-25.7h3.7l7.3,22.3h0.1l7.4-22.3h3.6L645.6,461.8z"/>
	<path d="M672.9,455.9c-0.8,4.1-3.7,6.3-8,6.3c-5.9,0-8.7-4.1-8.9-9.8c0-5.6,3.7-9.7,8.7-9.7c6.6,0,8.6,6.2,8.4,10.7h-13.9
		c-0.1,3.2,1.7,6.1,5.8,6.1c2.6,0,4.3-1.2,4.8-3.6H672.9z M669.9,450.7c-0.2-2.9-2.3-5.3-5.4-5.3c-3.2,0-5.1,2.4-5.3,5.3H669.9z"/>
	<path d="M676.2,443.2h2.9v3.9h0.1c1.5-3,3.5-4.5,6.8-4.4v3.2c-4.9,0-6.7,2.8-6.7,7.5v8.3h-3.1V443.2z"/>
	<path d="M691.6,439.9h-3.1v-3.7h3.1V439.9z M688.5,443.2h3.1v18.6h-3.1V443.2z"/>
	<path d="M697.6,445.9h-3.1v-2.7h3.1v-2.8c0-3,1.8-4.6,5.1-4.6c0.6,0,1.4,0.1,2,0.3v2.7c-0.5-0.2-1.2-0.3-1.7-0.3
		c-1.5,0-2.3,0.5-2.3,2.1v2.6h3.6v2.7h-3.6v15.9h-3.1V445.9z"/>
	<path d="M714.3,464.3c-1.4,3.6-2.7,5-5.4,5c-0.7,0-1.4-0.1-2.1-0.3v-2.8c0.6,0.2,1.2,0.4,1.8,0.4c1.3,0,1.9-0.6,2.5-1.7l1.3-3.2
		l-7.4-18.5h3.5l5.4,15.2h0.1l5.2-15.2h3.2L714.3,464.3z"/>
	<path d="M751.5,461.7c-0.5,0.3-1.3,0.5-2.2,0.5c-1.6,0-2.6-0.9-2.6-2.9c-1.7,2-4,2.9-6.6,2.9c-3.4,0-6.2-1.5-6.2-5.2
		c0-4.2,3.1-5.1,6.3-5.7c3.3-0.7,6.3-0.4,6.3-2.7c0-2.7-2.2-3.1-4.1-3.1c-2.6,0-4.5,0.8-4.6,3.5h-3.1c0.2-4.6,3.7-6.2,7.9-6.2
		c3.3,0,7,0.8,7,5.1v9.6c0,1.4,0,2.1,1,2.1c0.3,0,0.6-0.1,0.9-0.2V461.7z M746.5,452.2c-2.4,1.8-9.3,0-9.3,4.6c0,2,1.7,2.7,3.6,2.7
		c4,0,5.7-2.5,5.7-4.2V452.2z"/>
	<path d="M754.3,443.2h2.9v3h0.1c1.3-2.3,3.3-3.4,6-3.4c4.9,0,6.4,2.8,6.4,6.8v12.2h-3.1v-12.6c0-2.3-1.4-3.7-3.8-3.7
		c-3.7,0-5.5,2.5-5.5,5.8v10.5h-3.1V443.2z"/>
	<path d="M795.7,435.5c8.2,0,12.3,6.4,12.3,13.5c0,7-4.1,13.5-12.3,13.5s-12.3-6.4-12.3-13.5C783.4,441.9,787.5,435.5,795.7,435.5z
		 M795.7,459.5c6.3,0,8.9-5.4,8.9-10.6c0-5.2-2.6-10.6-8.9-10.6s-8.9,5.4-8.9,10.6C786.8,454.1,789.4,459.5,795.7,459.5z"/>
	<path d="M813,445.9h-3.1v-2.7h3.1v-2.8c0-3,1.8-4.6,5.1-4.6c0.6,0,1.4,0.1,2,0.3v2.7c-0.5-0.2-1.2-0.3-1.7-0.3
		c-1.5,0-2.3,0.5-2.3,2.1v2.6h3.6v2.7H816v15.9H813V445.9z"/>
	<path d="M823.6,445.9h-3.1v-2.7h3.1v-2.8c0-3,1.8-4.6,5.1-4.6c0.6,0,1.4,0.1,2,0.3v2.7c-0.5-0.2-1.2-0.3-1.7-0.3
		c-1.5,0-2.3,0.5-2.3,2.1v2.6h3.6v2.7h-3.6v15.9h-3.1V445.9z"/>
	<path d="M848.9,455.9c-0.8,4.1-3.7,6.3-8,6.3c-5.9,0-8.7-4.1-8.9-9.8c0-5.6,3.7-9.7,8.7-9.7c6.6,0,8.6,6.2,8.4,10.7h-13.9
		c-0.1,3.2,1.7,6.1,5.8,6.1c2.6,0,4.3-1.2,4.8-3.6H848.9z M845.9,450.7c-0.2-2.9-2.3-5.3-5.4-5.3c-3.2,0-5.1,2.4-5.3,5.3H845.9z"/>
	<path d="M852.2,443.2h2.9v3.9h0.1c1.5-3,3.5-4.5,6.8-4.4v3.2c-4.9,0-6.7,2.8-6.7,7.5v8.3h-3.1V443.2z"/>
	<path d="M867.6,439.9h-3.1v-3.7h3.1V439.9z M864.5,443.2h3.1v18.6h-3.1V443.2z"/>
	<path d="M872.3,443.2h2.9v3h0.1c1.3-2.3,3.3-3.4,6-3.4c4.9,0,6.4,2.8,6.4,6.8v12.2h-3.1v-12.6c0-2.3-1.4-3.7-3.8-3.7
		c-3.7,0-5.5,2.5-5.5,5.8v10.5h-3.1V443.2z"/>
	<path d="M908.4,460.2c0,6.1-2.7,9.1-8.6,9.1c-3.5,0-7.5-1.4-7.7-5.5h3.1c0.1,2.2,2.8,3,4.8,3c4,0,5.6-2.9,5.6-7.1v-1.2h-0.1
		c-1,2.3-3.4,3.4-5.8,3.4c-5.5,0-8.3-4.4-8.3-9.4c0-4.4,2.1-9.8,8.6-9.8c2.3,0,4.4,1,5.5,3.1h0v-2.7h2.9V460.2z M905.4,452.1
		c0-3.3-1.4-6.7-5.3-6.7c-3.9,0-5.5,3.2-5.5,6.8c0,3.3,1.2,7.1,5.3,7.1C903.9,459.3,905.4,455.6,905.4,452.1z"/>
	<path d="M913.7,436.1h4v4c0,2.8-1.2,5.3-4,5.3v-1.8c1.6,0,2.1-1.8,2.1-3.5h-2.1V436.1z"/>
	<path d="M924.9,455.9c0.1,2.7,2.5,3.6,5,3.6c1.9,0,4.5-0.4,4.5-2.8c0-4.8-12.2-1.5-12.2-8.7c0-3.7,3.7-5.3,6.9-5.3
		c4.2,0,7.3,1.3,7.6,5.8h-3.1c-0.2-2.4-2.3-3.1-4.3-3.1c-1.8,0-4,0.5-4,2.4c0,2.2,3.2,2.6,6.1,3.2c3.1,0.7,6.1,1.7,6.1,5.3
		c0,4.5-4.1,5.9-7.9,5.9c-4.2,0-7.7-1.7-7.9-6.3H924.9z"/>
	<path d="M952.3,445.9h-3.1v-2.7h3.1v-2.8c0-3,1.8-4.6,5.1-4.6c0.6,0,1.4,0.1,2,0.3v2.7c-0.5-0.2-1.2-0.3-1.7-0.3
		c-1.5,0-2.3,0.5-2.3,2.1v2.6h3.6v2.7h-3.6v15.9h-3.1V445.9z"/>
	<path d="M977.1,461.8h-2.9v-3h-0.1c-1.3,2.3-3.3,3.4-6,3.4c-4.9,0-6.4-2.8-6.4-6.8v-12.2h3.1v12.6c0,2.3,1.4,3.7,3.8,3.7
		c3.7,0,5.5-2.5,5.5-5.8v-10.5h3.1V461.8z"/>
	<path d="M981.7,443.2h2.9v3h0.1c1.3-2.3,3.3-3.4,6-3.4c4.9,0,6.4,2.8,6.4,6.8v12.2H994v-12.6c0-2.3-1.4-3.7-3.8-3.7
		c-3.7,0-5.5,2.5-5.5,5.8v10.5h-3.1V443.2z"/>
	<path d="M1014.3,449.2c-0.5-2.3-2.1-3.7-4.6-3.7c-4.4,0-5.8,3.5-5.8,7.3c0,3.5,1.5,6.8,5.4,6.8c3,0,4.7-1.7,5.1-4.5h3.1
		c-0.7,4.6-3.5,7.2-8.2,7.2c-5.7,0-8.7-3.9-8.7-9.5c0-5.6,2.9-10,8.8-10c4.2,0,7.6,2,8,6.4H1014.3z"/>
	<path d="M1025.3,443.2h3.7v2.7h-3.7v11.6c0,1.4,0.4,1.7,2.3,1.7h1.4v2.7h-2.3c-3.2,0-4.4-0.6-4.4-4.1v-11.8h-3.2v-2.7h3.2v-5.6h3.1
		V443.2z"/>
	<path d="M1035.6,439.9h-3.1v-3.7h3.1V439.9z M1032.6,443.2h3.1v18.6h-3.1V443.2z"/>
	<path d="M1048.4,442.8c5.9,0,9,4.3,9,9.8c0,5.4-3.1,9.7-9,9.7s-9-4.3-9-9.7C1039.4,447.1,1042.5,442.8,1048.4,442.8z M1048.4,459.5
		c3.2,0,5.8-2.5,5.8-7c0-4.5-2.6-7.1-5.8-7.1c-3.2,0-5.8,2.6-5.8,7.1C1042.6,457,1045.2,459.5,1048.4,459.5z"/>
	<path d="M1061,443.2h2.9v3h0.1c1.3-2.3,3.3-3.4,6-3.4c4.9,0,6.4,2.8,6.4,6.8v12.2h-3.1v-12.6c0-2.3-1.4-3.7-3.8-3.7
		c-3.7,0-5.5,2.5-5.5,5.8v10.5h-3.1V443.2z"/>
	<path d="M1097.5,461.7c-0.5,0.3-1.3,0.5-2.2,0.5c-1.6,0-2.6-0.9-2.6-2.9c-1.7,2-4,2.9-6.6,2.9c-3.4,0-6.2-1.5-6.2-5.2
		c0-4.2,3.1-5.1,6.3-5.7c3.3-0.7,6.3-0.4,6.3-2.7c0-2.7-2.2-3.1-4.1-3.1c-2.6,0-4.5,0.8-4.6,3.5h-3.1c0.2-4.6,3.7-6.2,7.9-6.2
		c3.3,0,7,0.8,7,5.1v9.6c0,1.4,0,2.1,1,2.1c0.3,0,0.6-0.1,0.9-0.2V461.7z M1092.6,452.2c-2.4,1.8-9.3,0-9.3,4.6c0,2,1.7,2.7,3.6,2.7
		c4,0,5.7-2.5,5.7-4.2V452.2z"/>
	<path d="M1100.6,436.1h3.1v25.7h-3.1V436.1z"/>
	<path d="M1111.6,439.9h-3.1v-3.7h3.1V439.9z M1108.5,443.2h3.1v18.6h-3.1V443.2z"/>
	<path d="M1120.6,443.2h3.7v2.7h-3.7v11.6c0,1.4,0.4,1.7,2.3,1.7h1.4v2.7h-2.3c-3.2,0-4.4-0.6-4.4-4.1v-11.8h-3.2v-2.7h3.2v-5.6h3.1
		V443.2z"/>
	<path d="M1135,464.3c-1.4,3.6-2.7,5-5.4,5c-0.7,0-1.4-0.1-2.1-0.3v-2.8c0.6,0.2,1.2,0.4,1.8,0.4c1.3,0,1.9-0.6,2.5-1.7l1.3-3.2
		l-7.4-18.5h3.5l5.4,15.2h0.1l5.2-15.2h3.2L1135,464.3z"/>
	<path d="M1160,443.2h3.7v2.7h-3.7v11.6c0,1.4,0.4,1.7,2.3,1.7h1.4v2.7h-2.3c-3.2,0-4.4-0.6-4.4-4.1v-11.8h-3.2v-2.7h3.2v-5.6h3.1
		V443.2z"/>
	<path d="M1167,436.1h3.1v9.8h0.1c1-2.3,3.7-3.2,5.9-3.2c4.9,0,6.4,2.8,6.4,6.8v12.2h-3.1v-12.6c0-2.3-1.4-3.7-3.8-3.7
		c-3.7,0-5.5,2.5-5.5,5.8v10.5h-3.1V436.1z"/>
	<path d="M1187,443.2h2.9v3.9h0.1c1.5-3,3.5-4.5,6.8-4.4v3.2c-4.9,0-6.7,2.8-6.7,7.5v8.3h-3.1V443.2z"/>
	<path d="M1207.1,442.8c5.9,0,9,4.3,9,9.8c0,5.4-3.1,9.7-9,9.7s-9-4.3-9-9.7C1198,447.1,1201.2,442.8,1207.1,442.8z M1207.1,459.5
		c3.2,0,5.8-2.5,5.8-7c0-4.5-2.6-7.1-5.8-7.1c-3.2,0-5.8,2.6-5.8,7.1C1201.3,457,1203.9,459.5,1207.1,459.5z"/>
	<path d="M1235.1,461.8h-2.9v-3h-0.1c-1.3,2.3-3.3,3.4-6,3.4c-4.9,0-6.4-2.8-6.4-6.8v-12.2h3.1v12.6c0,2.3,1.4,3.7,3.8,3.7
		c3.7,0,5.5-2.5,5.5-5.8v-10.5h3.1V461.8z"/>
	<path d="M1255.8,460.2c0,6.1-2.7,9.1-8.6,9.1c-3.5,0-7.5-1.4-7.7-5.5h3.1c0.1,2.2,2.8,3,4.8,3c4,0,5.6-2.9,5.6-7.1v-1.2h-0.1
		c-1,2.3-3.4,3.4-5.8,3.4c-5.5,0-8.3-4.4-8.3-9.4c0-4.4,2.1-9.8,8.6-9.8c2.3,0,4.4,1,5.5,3.1h0v-2.7h2.9V460.2z M1252.8,452.1
		c0-3.3-1.4-6.7-5.3-6.7c-3.9,0-5.5,3.2-5.5,6.8c0,3.3,1.2,7.1,5.3,7.1C1251.2,459.3,1252.8,455.6,1252.8,452.1z"/>
	<path d="M1260.4,436.1h3.1v9.8h0.1c1-2.3,3.7-3.2,5.9-3.2c4.9,0,6.4,2.8,6.4,6.8v12.2h-3.1v-12.6c0-2.3-1.4-3.7-3.8-3.7
		c-3.7,0-5.5,2.5-5.5,5.8v10.5h-3.1V436.1z"/>
	<path d="M641.3,486.4h3.7v2.7h-3.7v11.6c0,1.4,0.4,1.7,2.3,1.7h1.4v2.7h-2.3c-3.2,0-4.4-0.6-4.4-4.1v-11.8H635v-2.7h3.2v-5.6h3.1
		V486.4z"/>
	<path d="M664.2,499.1c-0.8,4.1-3.7,6.3-8,6.3c-5.9,0-8.7-4.1-8.9-9.8c0-5.6,3.7-9.7,8.7-9.7c6.6,0,8.6,6.2,8.4,10.7h-13.9
		c-0.1,3.2,1.7,6.1,5.8,6.1c2.6,0,4.3-1.2,4.8-3.6H664.2z M661.3,493.9c-0.2-2.9-2.3-5.3-5.4-5.3c-3.2,0-5.1,2.4-5.3,5.3H661.3z"/>
	<path d="M669.5,499.1c0.1,2.7,2.5,3.6,5,3.6c1.9,0,4.5-0.4,4.5-2.8c0-4.8-12.2-1.5-12.2-8.7c0-3.7,3.7-5.3,6.9-5.3
		c4.2,0,7.3,1.3,7.6,5.8h-3.1c-0.2-2.4-2.3-3.1-4.3-3.1c-1.8,0-4,0.5-4,2.4c0,2.2,3.2,2.6,6.1,3.2c3.1,0.7,6.1,1.7,6.1,5.3
		c0,4.5-4.1,5.9-7.9,5.9c-4.2,0-7.7-1.7-7.9-6.3H669.5z"/>
	<path d="M689.9,486.4h3.7v2.7h-3.7v11.6c0,1.4,0.4,1.7,2.3,1.7h1.4v2.7h-2.3c-3.2,0-4.4-0.6-4.4-4.1v-11.8h-3.2v-2.7h3.2v-5.6h3.1
		V486.4z"/>
	<path d="M700.3,483.1h-3.1v-3.7h3.1V483.1z M697.2,486.4h3.1V505h-3.1V486.4z"/>
	<path d="M705,486.4h2.9v3h0.1c1.3-2.3,3.3-3.4,6-3.4c4.9,0,6.4,2.8,6.4,6.8V505h-3.1v-12.6c0-2.3-1.4-3.7-3.8-3.7
		c-3.7,0-5.5,2.5-5.5,5.8V505H705V486.4z"/>
	<path d="M741.1,503.4c0,6.1-2.7,9.1-8.6,9.1c-3.5,0-7.5-1.4-7.7-5.5h3.1c0.1,2.2,2.8,3,4.8,3c4,0,5.6-2.9,5.6-7.1v-1.2h-0.1
		c-1,2.3-3.4,3.4-5.8,3.4c-5.5,0-8.3-4.4-8.3-9.4c0-4.4,2.1-9.8,8.6-9.8c2.3,0,4.4,1,5.5,3.1h0v-2.7h2.9V503.4z M738.1,495.3
		c0-3.3-1.4-6.7-5.3-6.7c-3.9,0-5.5,3.2-5.5,6.8c0,3.3,1.2,7.1,5.3,7.1C736.5,502.5,738.1,498.8,738.1,495.3z"/>
	<path d="M759.9,486.4h3.7v2.7h-3.7v11.6c0,1.4,0.4,1.7,2.3,1.7h1.4v2.7h-2.3c-3.2,0-4.4-0.6-4.4-4.1v-11.8h-3.2v-2.7h3.2v-5.6h3.1
		V486.4z"/>
	<path d="M775.1,486c5.9,0,9,4.3,9,9.8c0,5.4-3.1,9.7-9,9.7s-9-4.3-9-9.7C766,490.3,769.2,486,775.1,486z M775.1,502.7
		c3.2,0,5.8-2.5,5.8-7c0-4.5-2.6-7.1-5.8-7.1s-5.8,2.6-5.8,7.1C769.3,500.2,771.9,502.7,775.1,502.7z"/>
	<path d="M813.6,499.1c-0.8,4.1-3.7,6.3-8,6.3c-5.9,0-8.7-4.1-8.9-9.8c0-5.6,3.7-9.7,8.7-9.7c6.6,0,8.6,6.2,8.4,10.7h-13.9
		c-0.1,3.2,1.7,6.1,5.8,6.1c2.6,0,4.3-1.2,4.8-3.6H813.6z M810.6,493.9c-0.2-2.9-2.3-5.3-5.4-5.3c-3.2,0-5.1,2.4-5.3,5.3H810.6z"/>
	<path d="M817,486.4h2.9v3h0.1c1.3-2.3,3.3-3.4,6-3.4c4.9,0,6.4,2.8,6.4,6.8V505h-3.1v-12.6c0-2.3-1.4-3.7-3.8-3.7
		c-3.7,0-5.5,2.5-5.5,5.8V505H817V486.4z"/>
	<path d="M838.9,499.1c0.1,2.7,2.5,3.6,5,3.6c1.9,0,4.5-0.4,4.5-2.8c0-4.8-12.2-1.5-12.2-8.7c0-3.7,3.7-5.3,6.9-5.3
		c4.2,0,7.3,1.3,7.6,5.8h-3.1c-0.2-2.4-2.3-3.1-4.3-3.1c-1.8,0-4,0.5-4,2.4c0,2.2,3.2,2.6,6.1,3.2c3.1,0.7,6.1,1.7,6.1,5.3
		c0,4.5-4.1,5.9-7.9,5.9c-4.2,0-7.7-1.7-7.9-6.3H838.9z"/>
	<path d="M870.5,505h-2.9v-3h-0.1c-1.3,2.3-3.3,3.4-6,3.4c-4.9,0-6.4-2.8-6.4-6.8v-12.2h3.1V499c0,2.3,1.4,3.7,3.8,3.7
		c3.7,0,5.5-2.5,5.5-5.8v-10.5h3.1V505z"/>
	<path d="M875,486.4h2.9v3.9h0.1c1.5-3,3.5-4.5,6.8-4.4v3.2c-4.9,0-6.7,2.8-6.7,7.5v8.3H875V486.4z"/>
	<path d="M902.9,499.1c-0.8,4.1-3.7,6.3-8,6.3c-5.9,0-8.7-4.1-8.9-9.8c0-5.6,3.7-9.7,8.7-9.7c6.6,0,8.6,6.2,8.4,10.7h-13.9
		c-0.1,3.2,1.7,6.1,5.8,6.1c2.6,0,4.3-1.2,4.8-3.6H902.9z M900,493.9c-0.2-2.9-2.3-5.3-5.4-5.3c-3.2,0-5.1,2.4-5.3,5.3H900z"/>
	<path d="M920.6,486.4h3.7v2.7h-3.7v11.6c0,1.4,0.4,1.7,2.3,1.7h1.4v2.7H922c-3.2,0-4.4-0.6-4.4-4.1v-11.8h-3.2v-2.7h3.2v-5.6h3.1
		V486.4z"/>
	<path d="M927.7,479.3h3.1v9.8h0.1c1-2.3,3.7-3.2,5.9-3.2c4.9,0,6.4,2.8,6.4,6.8V505h-3.1v-12.6c0-2.3-1.4-3.7-3.8-3.7
		c-3.7,0-5.5,2.5-5.5,5.8V505h-3.1V479.3z"/>
	<path d="M964.2,504.9c-0.5,0.3-1.3,0.5-2.2,0.5c-1.6,0-2.6-0.9-2.6-2.9c-1.7,2-4,2.9-6.6,2.9c-3.4,0-6.2-1.5-6.2-5.2
		c0-4.2,3.1-5.1,6.3-5.7c3.3-0.7,6.3-0.4,6.3-2.7c0-2.7-2.2-3.1-4.1-3.1c-2.6,0-4.5,0.8-4.6,3.5h-3.1c0.2-4.6,3.7-6.2,7.9-6.2
		c3.3,0,7,0.8,7,5.1v9.6c0,1.4,0,2.1,1,2.1c0.3,0,0.6-0.1,0.9-0.2V504.9z M959.3,495.4c-2.4,1.8-9.3,0-9.3,4.6c0,2,1.7,2.7,3.6,2.7
		c4,0,5.7-2.5,5.7-4.2V495.4z"/>
	<path d="M971.3,486.4h3.7v2.7h-3.7v11.6c0,1.4,0.4,1.7,2.3,1.7h1.4v2.7h-2.3c-3.2,0-4.4-0.6-4.4-4.1v-11.8h-3.2v-2.7h3.2v-5.6h3.1
		V486.4z"/>
	<path d="M992.7,486.4h3.7v2.7h-3.7v11.6c0,1.4,0.4,1.7,2.3,1.7h1.4v2.7H994c-3.2,0-4.4-0.6-4.4-4.1v-11.8h-3.2v-2.7h3.2v-5.6h3.1
		V486.4z"/>
	<path d="M999.8,479.3h3.1v9.8h0.1c1-2.3,3.7-3.2,5.9-3.2c4.9,0,6.4,2.8,6.4,6.8V505h-3.1v-12.6c0-2.3-1.4-3.7-3.8-3.7
		c-3.7,0-5.5,2.5-5.5,5.8V505h-3.1V479.3z"/>
	<path d="M1035.7,499.1c-0.8,4.1-3.7,6.3-8,6.3c-5.9,0-8.7-4.1-8.9-9.8c0-5.6,3.7-9.7,8.7-9.7c6.6,0,8.6,6.2,8.4,10.7H1022
		c-0.1,3.2,1.7,6.1,5.8,6.1c2.6,0,4.3-1.2,4.8-3.6H1035.7z M1032.7,493.9c-0.2-2.9-2.3-5.3-5.4-5.3c-3.2,0-5.1,2.4-5.3,5.3H1032.7z"
		/>
	<path d="M1060.5,478.7c8.2,0,12.3,6.4,12.3,13.5c0,7-4.1,13.5-12.3,13.5c-8.2,0-12.3-6.4-12.3-13.5
		C1048.2,485.1,1052.3,478.7,1060.5,478.7z M1060.5,502.7c6.3,0,8.9-5.4,8.9-10.6c0-5.2-2.6-10.6-8.9-10.6c-6.3,0-8.9,5.4-8.9,10.6
		C1051.6,497.3,1054.2,502.7,1060.5,502.7z"/>
	<path d="M1077.7,489.1h-3.1v-2.7h3.1v-2.8c0-3,1.8-4.6,5.1-4.6c0.6,0,1.4,0.1,2,0.3v2.7c-0.5-0.2-1.2-0.3-1.7-0.3
		c-1.5,0-2.3,0.5-2.3,2.1v2.6h3.6v2.7h-3.6V505h-3.1V489.1z"/>
	<path d="M1088.4,489.1h-3.1v-2.7h3.1v-2.8c0-3,1.8-4.6,5.1-4.6c0.6,0,1.4,0.1,2,0.3v2.7c-0.5-0.2-1.2-0.3-1.7-0.3
		c-1.5,0-2.3,0.5-2.3,2.1v2.6h3.6v2.7h-3.6V505h-3.1V489.1z"/>
	<path d="M1113.7,499.1c-0.8,4.1-3.7,6.3-8,6.3c-5.9,0-8.7-4.1-8.9-9.8c0-5.6,3.7-9.7,8.7-9.7c6.6,0,8.6,6.2,8.4,10.7H1100
		c-0.1,3.2,1.7,6.1,5.8,6.1c2.6,0,4.3-1.2,4.8-3.6H1113.7z M1110.7,493.9c-0.2-2.9-2.3-5.3-5.4-5.3c-3.2,0-5.1,2.4-5.3,5.3H1110.7z"
		/>
	<path d="M1117,486.4h2.9v3.9h0.1c1.5-3,3.5-4.5,6.8-4.4v3.2c-4.9,0-6.7,2.8-6.7,7.5v8.3h-3.1V486.4z"/>
	<path d="M1132.4,483.1h-3.1v-3.7h3.1V483.1z M1129.3,486.4h3.1V505h-3.1V486.4z"/>
	<path d="M1137.1,486.4h2.9v3h0.1c1.3-2.3,3.3-3.4,6-3.4c4.9,0,6.4,2.8,6.4,6.8V505h-3.1v-12.6c0-2.3-1.4-3.7-3.8-3.7
		c-3.7,0-5.5,2.5-5.5,5.8V505h-3.1V486.4z"/>
	<path d="M1173.2,503.4c0,6.1-2.7,9.1-8.6,9.1c-3.5,0-7.5-1.4-7.7-5.5h3.1c0.1,2.2,2.8,3,4.8,3c4,0,5.6-2.9,5.6-7.1v-1.2h-0.1
		c-1,2.3-3.4,3.4-5.8,3.4c-5.5,0-8.3-4.4-8.3-9.4c0-4.4,2.1-9.8,8.6-9.8c2.3,0,4.4,1,5.5,3.1h0v-2.7h2.9V503.4z M1170.2,495.3
		c0-3.3-1.4-6.7-5.3-6.7c-3.9,0-5.5,3.2-5.5,6.8c0,3.3,1.2,7.1,5.3,7.1S1170.2,498.8,1170.2,495.3z"/>
	<path d="M1191,483.1h-3.1v-3.7h3.1V483.1z M1188,486.4h3.1V505h-3.1V486.4z"/>
	<path d="M1197.7,499.1c0.1,2.7,2.5,3.6,5,3.6c1.9,0,4.5-0.4,4.5-2.8c0-4.8-12.2-1.5-12.2-8.7c0-3.7,3.7-5.3,6.9-5.3
		c4.2,0,7.3,1.3,7.6,5.8h-3.1c-0.2-2.4-2.3-3.1-4.3-3.1c-1.8,0-4,0.5-4,2.4c0,2.2,3.2,2.6,6.1,3.2c3.1,0.7,6.1,1.7,6.1,5.3
		c0,4.5-4.1,5.9-7.9,5.9c-4.2,0-7.7-1.7-7.9-6.3H1197.7z"/>
	<path d="M1223.7,486.4h2.9v3.9h0.1c1.5-3,3.5-4.5,6.8-4.4v3.2c-4.9,0-6.7,2.8-6.7,7.5v8.3h-3.1V486.4z"/>
	<path d="M1251.7,499.1c-0.8,4.1-3.7,6.3-8,6.3c-5.9,0-8.7-4.1-8.9-9.8c0-5.6,3.7-9.7,8.7-9.7c6.6,0,8.6,6.2,8.4,10.7H1238
		c-0.1,3.2,1.7,6.1,5.8,6.1c2.6,0,4.3-1.2,4.8-3.6H1251.7z M1248.7,493.9c-0.2-2.9-2.3-5.3-5.4-5.3c-3.2,0-5.1,2.4-5.3,5.3H1248.7z"
		/>
	<path d="M1271.6,504.9c-0.5,0.3-1.3,0.5-2.2,0.5c-1.6,0-2.6-0.9-2.6-2.9c-1.7,2-4,2.9-6.6,2.9c-3.4,0-6.2-1.5-6.2-5.2
		c0-4.2,3.1-5.1,6.3-5.7c3.3-0.7,6.3-0.4,6.3-2.7c0-2.7-2.2-3.1-4.1-3.1c-2.6,0-4.5,0.8-4.6,3.5h-3.1c0.2-4.6,3.7-6.2,7.9-6.2
		c3.3,0,7,0.8,7,5.1v9.6c0,1.4,0,2.1,1,2.1c0.3,0,0.6-0.1,0.9-0.2V504.9z M1266.6,495.4c-2.4,1.8-9.3,0-9.3,4.6c0,2,1.7,2.7,3.6,2.7
		c4,0,5.7-2.5,5.7-4.2V495.4z"/>
	<path d="M1291.1,505h-3.1v-2.5h-0.1c-1,2.1-3.3,3-5.9,3c-5.7,0-8.6-4.5-8.6-9.8s2.8-9.7,8.5-9.7c1.9,0,4.7,0.7,6,2.9h0.1v-9.6h3.1
		V505z M1282.4,502.7c4.1,0,5.7-3.6,5.7-7c0-3.6-1.7-7.1-5.9-7.1c-4.2,0-5.6,3.6-5.6,7.2C1276.7,499.4,1278.5,502.7,1282.4,502.7z"
		/>
	<path d="M1303.1,507.5c-1.4,3.6-2.7,5-5.4,5c-0.7,0-1.4-0.1-2.1-0.3v-2.8c0.6,0.2,1.2,0.4,1.8,0.4c1.3,0,1.9-0.6,2.5-1.7l1.3-3.2
		l-7.4-18.5h3.5l5.4,15.2h0.1l5.2-15.2h3.2L1303.1,507.5z"/>
	<path d="M638.3,532.3h-3.1v-2.7h3.1v-2.8c0-3,1.8-4.6,5.1-4.6c0.6,0,1.4,0.1,2,0.3v2.7c-0.5-0.2-1.2-0.3-1.7-0.3
		c-1.5,0-2.3,0.5-2.3,2.1v2.6h3.6v2.7h-3.6v15.9h-3.1V532.3z"/>
	<path d="M655.7,529.2c5.9,0,9,4.3,9,9.8c0,5.4-3.1,9.7-9,9.7s-9-4.3-9-9.7C646.7,533.5,649.8,529.2,655.7,529.2z M655.7,545.9
		c3.2,0,5.8-2.5,5.8-7c0-4.5-2.6-7.1-5.8-7.1s-5.8,2.6-5.8,7.1C649.9,543.4,652.5,545.9,655.7,545.9z"/>
	<path d="M668.2,529.6h2.9v3.9h0.1c1.5-3,3.5-4.5,6.8-4.4v3.2c-4.9,0-6.7,2.8-6.7,7.5v8.3h-3.1V529.6z"/>
	<path d="M690.4,529.6h3.1v2.5h0.1c1-2.1,3.3-3,5.9-3c5.7,0,8.6,4.5,8.6,9.8c0,5.3-2.8,9.7-8.5,9.7c-1.9,0-4.7-0.7-6-2.9h-0.1v9.6
		h-3.1V529.6z M699.1,531.9c-4.1,0-5.7,3.6-5.7,7c0,3.6,1.7,7.1,5.9,7.1c4.2,0,5.6-3.6,5.6-7.2C704.8,535.3,703,531.9,699.1,531.9z"
		/>
	<path d="M711.6,529.6h2.9v3.9h0.1c1.5-3,3.5-4.5,6.8-4.4v3.2c-4.9,0-6.7,2.8-6.7,7.5v8.3h-3.1V529.6z"/>
	<path d="M731.7,529.2c5.9,0,9,4.3,9,9.8c0,5.4-3.1,9.7-9,9.7s-9-4.3-9-9.7C722.6,533.5,725.8,529.2,731.7,529.2z M731.7,545.9
		c3.2,0,5.8-2.5,5.8-7c0-4.5-2.6-7.1-5.8-7.1s-5.8,2.6-5.8,7.1C725.9,543.4,728.5,545.9,731.7,545.9z"/>
	<path d="M760.9,548.2h-3.1v-2.5h-0.1c-1,2.1-3.3,3-5.9,3c-5.7,0-8.6-4.5-8.6-9.8c0-5.3,2.8-9.7,8.5-9.7c1.9,0,4.7,0.7,6,2.9h0.1
		v-9.6h3.1V548.2z M752.3,545.9c4.1,0,5.7-3.6,5.7-7c0-3.6-1.7-7.1-5.9-7.1c-4.2,0-5.6,3.6-5.6,7.2
		C746.6,542.6,748.3,545.9,752.3,545.9z"/>
	<path d="M781.1,548.2h-2.9v-3h-0.1c-1.3,2.3-3.3,3.4-6,3.4c-4.9,0-6.4-2.8-6.4-6.8v-12.2h3.1v12.6c0,2.3,1.4,3.7,3.8,3.7
		c3.7,0,5.5-2.5,5.5-5.8v-10.5h3.1V548.2z"/>
	<path d="M798.3,535.6c-0.5-2.3-2.1-3.7-4.6-3.7c-4.4,0-5.8,3.5-5.8,7.3c0,3.5,1.5,6.8,5.4,6.8c3,0,4.7-1.7,5.1-4.5h3.1
		c-0.7,4.6-3.5,7.2-8.2,7.2c-5.7,0-8.7-3.9-8.7-9.5c0-5.6,2.9-10,8.8-10c4.2,0,7.6,2,8,6.4H798.3z"/>
	<path d="M809.3,529.6h3.7v2.7h-3.7v11.6c0,1.4,0.4,1.7,2.3,1.7h1.4v2.7h-2.3c-3.2,0-4.4-0.6-4.4-4.1v-11.8H803v-2.7h3.2V524h3.1
		V529.6z"/>
	<path d="M819.6,526.3h-3.1v-3.7h3.1V526.3z M816.5,529.6h3.1v18.6h-3.1V529.6z"/>
	<path d="M832.4,529.2c5.9,0,9,4.3,9,9.8c0,5.4-3.1,9.7-9,9.7s-9-4.3-9-9.7C823.3,533.5,826.5,529.2,832.4,529.2z M832.4,545.9
		c3.2,0,5.8-2.5,5.8-7c0-4.5-2.6-7.1-5.8-7.1s-5.8,2.6-5.8,7.1C826.6,543.4,829.2,545.9,832.4,545.9z"/>
	<path d="M845,529.6h2.9v3h0.1c1.3-2.3,3.3-3.4,6-3.4c4.9,0,6.4,2.8,6.4,6.8v12.2h-3.1v-12.6c0-2.3-1.4-3.7-3.8-3.7
		c-3.7,0-5.5,2.5-5.5,5.8v10.5H845V529.6z"/>
</g>
<g>
	<circle class="st7" cx="1489.8" cy="220.2" r="63.6"/>
	<rect x="1576.5" y="210.4" class="st4" width="159.1" height="26.6"/>
	<g class="st8">
		<path d="M1579,206.1h5.7v25.7h-5.7V206.1z"/>
		<path d="M1589.1,213.2h4.9v2.6h0.1c1.3-2.1,3.5-3.1,5.7-3.1c5.4,0,6.8,3.1,6.8,7.7v11.4h-5.1v-10.5c0-3.1-0.9-4.6-3.3-4.6
			c-2.8,0-4,1.5-4,5.3v9.8h-5.1V213.2z"/>
		<path d="M1614.4,225.7c0,2.2,1.9,3.1,3.9,3.1c1.4,0,3.3-0.6,3.3-2.4c0-1.5-2.2-2.1-5.8-2.9c-3-0.7-5.9-1.7-5.9-5
			c0-4.8,4.1-6,8.1-6c4,0,7.8,1.4,8.2,5.9h-4.9c-0.1-2-1.7-2.5-3.5-2.5c-1.2,0-2.8,0.2-2.8,1.7c0,1.8,2.9,2.1,5.8,2.8
			c3,0.7,5.9,1.8,5.9,5.2c0,4.9-4.3,6.5-8.5,6.5c-4.3,0-8.6-1.6-8.7-6.6H1614.4z"/>
		<path d="M1636.2,213.2h3.7v3.4h-3.7v9.2c0,1.7,0.4,2.2,2.2,2.2c0.6,0,1.1,0,1.6-0.1v4c-0.9,0.1-2,0.2-3,0.2
			c-3.2,0-5.9-0.7-5.9-4.4v-11h-3.1v-3.4h3.1v-5.6h5.1V213.2z"/>
		<path d="M1642.2,218.9c0.3-4.8,4.6-6.2,8.7-6.2c3.7,0,8.2,0.8,8.2,5.3v9.7c0,1.7,0.2,3.4,0.6,4.1h-5.2c-0.2-0.6-0.3-1.2-0.4-1.8
			c-1.6,1.7-4,2.3-6.3,2.3c-3.6,0-6.3-1.8-6.3-5.6c0.1-8.5,12.6-3.9,12.4-8.1c0-2.2-1.5-2.5-3.3-2.5c-2,0-3.2,0.8-3.4,2.8H1642.2z
			 M1654,222.7c-0.9,0.8-2.7,0.8-4.2,1.1c-1.6,0.3-3,0.9-3,2.7c0,1.9,1.5,2.4,3.1,2.4c4,0,4.1-3.1,4.1-4.3V222.7z"/>
		<path d="M1663.2,206.1h5.1v25.7h-5.1V206.1z"/>
		<path d="M1672.5,206.1h5.1v25.7h-5.1V206.1z"/>
		<path d="M1685.9,223.7c0.1,3.3,1.7,4.7,4.6,4.7c2.1,0,3.7-1.3,4-2.4h4.5c-1.4,4.4-4.5,6.3-8.7,6.3c-5.9,0-9.5-4-9.5-9.8
			c0-5.6,3.9-9.8,9.5-9.8c6.3,0,9.4,5.3,9,11.1H1685.9z M1694.2,220.5c-0.5-2.6-1.6-4-4.1-4c-3.3,0-4.1,2.5-4.2,4H1694.2z"/>
		<path d="M1702.3,213.2h4.9v3.5h0.1c1-2.3,3.4-4,5.9-4c0.4,0,0.8,0.1,1.1,0.2v4.8c-0.5-0.1-1.2-0.2-1.8-0.2c-3.8,0-5,2.7-5,6v8.4
			h-5.1V213.2z"/>
	</g>
	<g>
		<path class="st9" d="M1479.4,219.6l0.1,0.1L1479.4,219.6z"/>
		<polygon class="st9" points="1477.3,215.4 1477.3,215.4 1477.3,215.4 		"/>
		<polygon class="st9" points="1476.5,213 1476.5,213.1 1476.5,213.1 		"/>
		<polygon class="st9" points="1475.8,210.3 1475.9,210.5 1475.9,210.5 		"/>
		<path class="st9" d="M1475.2,205.9L1475.2,205.9L1475.2,205.9z"/>
		<polygon class="st9" points="1475.2,205.7 1475.2,205.7 1475.2,205.7 1475.2,205.7 1475.2,205.8 1475.2,205.7 1475.2,205.7 
			1475.2,205.7 		"/>
		<path class="st9" d="M1475.2,205.6L1475.2,205.6L1475.2,205.6z"/>
		<polygon class="st9" points="1475.2,205.5 1475.2,205.5 1475.2,205.5 		"/>
		<polygon class="st9" points="1475.2,205.2 1475.2,205.3 1475.2,205.3 1475.2,205.3 1475.2,205.3 1475.2,205.2 1475.2,205.2 		"/>
		<polygon class="st9" points="1475.2,204.4 1475.2,204.4 1475.2,204.4 1475.2,204.5 1475.2,204.4 		"/>
		<polygon class="st9" points="1475.2,204.2 1475.2,204.3 1475.2,204.3 1475.2,204.3 1475.2,204.3 		"/>
		<polygon class="st9" points="1475.2,204.1 1475.2,204.1 1475.2,204.1 1475.2,204.2 1475.2,204.1 		"/>
		<polygon class="st9" points="1475.2,204 1475.2,204 1475.2,204 1475.2,204.1 1475.2,204.1 1475.2,204.1 1475.2,204.1 1475.2,204 
					"/>
		<polygon class="st9" points="1475.2,203.8 1475.2,203.8 1475.2,203.8 1475.2,203.9 1475.2,203.9 1475.2,203.9 1475.2,203.9 
			1475.2,204 1475.2,203.9 1475.2,203.9 1475.2,203.9 1475.2,203.9 1475.2,203.9 1475.2,203.8 		"/>
		<polygon class="st9" points="1475.2,203.7 1475.2,203.7 1475.2,203.7 		"/>
		<path class="st9" d="M1475.2,203.5L1475.2,203.5L1475.2,203.5z"/>
		<path class="st9" d="M1475.2,203.4L1475.2,203.4L1475.2,203.4z"/>
		<path class="st9" d="M1475.3,203.3L1475.3,203.3L1475.3,203.3z"/>
		<path class="st9" d="M1475.3,203L1475.3,203L1475.3,203z"/>
		<path class="st9" d="M1475.3,202.9L1475.3,202.9L1475.3,202.9z"/>
		<polygon class="st9" points="1475.3,202.8 1475.3,202.8 1475.3,202.8 		"/>
		<polygon class="st9" points="1475.3,202.6 1475.3,202.6 1475.3,202.6 		"/>
		<polygon class="st9" points="1475.3,202.4 1475.3,202.4 1475.3,202.4 		"/>
		<polygon class="st9" points="1475.4,202.3 1475.4,202.4 1475.4,202.4 		"/>
		<polygon class="st9" points="1484.8,192.7 1484.8,192.6 1484.8,192.6 		"/>
		<polygon class="st9" points="1502.7,215.2 1502.7,215 1502.7,215 		"/>
		<path class="st9" d="M1502.5,215.7c0.1-0.2,0.1-0.3,0.2-0.5C1502.6,215.4,1502.5,215.5,1502.5,215.7z"/>
		<path class="st10" d="M1480.9,205.2l17.8,0l1.9,22c0.1,1.5,1.4,2.7,2.9,2.8l0.3,0l-3.6,7.7l-10.2,9.9l-11.5-11.3l-2.3-6.4l0.7-0.1
			c1.4-0.2,2.4-1.3,2.5-2.8L1480.9,205.2z"/>
		<path class="st11" d="M1489.9,247.6L1489.9,247.6l-9.7-6.6l-4.1-11.1l0.7-0.1c1.4-0.2,2.4-1.3,2.5-2.8l1.3-17.7h9.4L1489.9,247.6z
			"/>
		<path class="st12" d="M1479.7,220.7l20.3,0.1l0.1,0.9c-0.3,0.6-0.5,0.9-0.9,1.4c-2.6,3.9-6,6.5-9.2,6.5c-3.3,0-6.6-2.6-9.2-6.5
			c-0.4-0.6-0.7-1-1-1.7L1479.7,220.7z"/>
		<path class="st13" d="M1478.2,229.2c7.1,6.9,14.5,8.3,23.1-0.1c2.4,0.5,4.9,0.9,7,1.8c9.9,4.2,10.3,14.6,10.3,23.9
			c0,2.9-2.3,5.2-5.1,5.2l-47.2,0c-2.8,0-5.1-2.3-5.1-5.2c0-9.4,0.6-19.4,9.6-23.6C1473.4,230,1475.5,229.7,1478.2,229.2z"/>
		<path class="st14" d="M1476.3,219.9c-20-32.5,11.3-44.8,12.5-40.3c0.3,1.2,0.4,0.6,1.1,0.1c9.6-6.7,30.3,14.9,13.6,40.4
			c-1.1,0.3-2.4,0.5-3.8,0.7l-0.1,0.1c1.2-1.7,2.3-3.7,3.1-5.9h0c0.4-1.3,0.8-2.7,1.2-4.1c0.3-1.4,0.6-2.8,0.7-4.2h0
			c0.1-0.6,0.1-1.2,0.1-1.8c0-0.5,0-1.2,0-1.8c0-0.5,0-0.9,0-1.2c0-0.3,0-0.7-0.1-1.1c-0.4-3.1-4.5-3.8-9-4.5
			c-5.2-0.9-10.8-1.8-13.1-6.5l0,0c-2.2,1.9-6.4,5.5-7.3,12.2c-0.1,0.6-0.1,1.2-0.2,1.9c0,0.6,0,1.3,0,2l0,0
			c0.4,5.9,2.3,11,4.9,14.8C1478.6,220.5,1477.3,220.2,1476.3,219.9z"/>
		<path class="st15" d="M1502.7,215c0.4-1.3,0.8-2.7,1.2-4.1c0.3-1.4,0.6-2.8,0.7-4.2l0,0c0.1-0.6,0.1-1.2,0.1-1.8
			c0-0.5,0-1.2,0-1.8c0-0.5,0-0.9,0-1.2c0-0.3,0-0.7-0.1-1.1c-0.4-3.1-4.5-3.8-9-4.5c-5.2-0.9-10.8-1.8-13.1-6.5l0,0
			c-2.2,1.9-6.4,5.5-7.3,12.2c-0.1,0.6-0.1,1.2-0.2,1.9c0,0.6,0,1.3,0,2l0,0c0.5,6,2.3,11.2,5.1,14.9h0c2.6,3.6,6,5.7,9.7,5.7
			c2.6,0,5.1-1.1,7.2-3l0,0C1499.4,221.6,1501.4,218.6,1502.7,215L1502.7,215L1502.7,215z"/>
		<path class="st16" d="M1490,195.2c-3.1-0.9-5.8-2.4-7.2-5.3l0,0c-2.2,1.9-6.4,5.5-7.3,12.2c-0.1,0.6-0.1,1.2-0.2,1.9
			c0,0.6,0,1.3,0,2l0,0c0.5,6,2.3,11.2,5.1,14.9h0c2.6,3.6,6,5.7,9.7,5.7L1490,195.2z"/>
		<path class="st17" d="M1476.1,229.6c1.9,3.7,7,8,13.6,8c6.2,0,11.4-4.2,13.6-7.9l0,0c-2.2,4.2-7.2,8.6-13.6,8.6
			C1483.3,238.2,1478,233.7,1476.1,229.6L1476.1,229.6z"/>
		<path class="st17" d="M1477,229.1c3,7.5,7.5,18.1,13,22.8c6-6.2,10.7-15.8,12.9-22.8c2.4,0.5,4.9,0.9,7,1.8l0,0l0,0
			c9.7,4,8.9,14.2,8.8,23.9c0,2.9-2.3,5.2-5.1,5.2l-47.2,0c-2.8,0-5.1-2.3-5.1-5.2c0-9.4-0.7-19.5,8.3-23.6v0l0,0
			C1472.1,229.9,1474.2,229.7,1477,229.1z"/>
		<path class="st18" d="M1477,229.1c3,7.5,7.5,18.1,13,22.8c6-6.2,10.7-15.8,12.8-22.9c0.7,0.2,1.4,0.3,2.2,0.4
			c-2.1,7.6-9.4,21.3-15,25.7c-5.2-1.9-11.5-15.3-14.8-25.7C1475.7,229.3,1476.3,229.2,1477,229.1z"/>
	</g>
</g>
<g>
	<circle class="st7" cx="1489.8" cy="476.2" r="63.6"/>
	<rect x="1576.5" y="466.4" class="st4" width="159.1" height="26.6"/>
	<g class="st8">
		<path d="M1579,462.1h5.7v25.7h-5.7V462.1z"/>
		<path d="M1589.1,469.2h4.9v2.6h0.1c1.3-2.1,3.5-3.1,5.7-3.1c5.4,0,6.8,3.1,6.8,7.7v11.4h-5.1v-10.5c0-3.1-0.9-4.6-3.3-4.6
			c-2.8,0-4,1.5-4,5.3v9.8h-5.1V469.2z"/>
		<path d="M1614.4,481.7c0,2.2,1.9,3.1,3.9,3.1c1.4,0,3.3-0.6,3.3-2.4c0-1.5-2.2-2.1-5.8-2.9c-3-0.7-5.9-1.7-5.9-5
			c0-4.8,4.1-6,8.1-6c4,0,7.8,1.4,8.2,5.9h-4.9c-0.1-2-1.7-2.5-3.5-2.5c-1.2,0-2.8,0.2-2.8,1.7c0,1.8,2.9,2.1,5.8,2.8
			c3,0.7,5.9,1.8,5.9,5.2c0,4.9-4.3,6.5-8.5,6.5c-4.3,0-8.6-1.6-8.7-6.6H1614.4z"/>
		<path d="M1636.2,469.2h3.7v3.4h-3.7v9.2c0,1.7,0.4,2.2,2.2,2.2c0.6,0,1.1,0,1.6-0.1v4c-0.9,0.1-2,0.2-3,0.2
			c-3.2,0-5.9-0.7-5.9-4.4v-11h-3.1v-3.4h3.1v-5.6h5.1V469.2z"/>
		<path d="M1642.2,474.9c0.3-4.8,4.6-6.2,8.7-6.2c3.7,0,8.2,0.8,8.2,5.3v9.7c0,1.7,0.2,3.4,0.6,4.1h-5.2c-0.2-0.6-0.3-1.2-0.4-1.8
			c-1.6,1.7-4,2.3-6.3,2.3c-3.6,0-6.3-1.8-6.3-5.6c0.1-8.5,12.6-3.9,12.4-8.1c0-2.2-1.5-2.5-3.3-2.5c-2,0-3.2,0.8-3.4,2.8H1642.2z
			 M1654,478.7c-0.9,0.8-2.7,0.8-4.2,1.1c-1.6,0.3-3,0.9-3,2.7c0,1.9,1.5,2.4,3.1,2.4c4,0,4.1-3.1,4.1-4.3V478.7z"/>
		<path d="M1663.2,462.1h5.1v25.7h-5.1V462.1z"/>
		<path d="M1672.5,462.1h5.1v25.7h-5.1V462.1z"/>
		<path d="M1685.9,479.7c0.1,3.3,1.7,4.7,4.6,4.7c2.1,0,3.7-1.3,4-2.4h4.5c-1.4,4.4-4.5,6.3-8.7,6.3c-5.9,0-9.5-4-9.5-9.8
			c0-5.6,3.9-9.8,9.5-9.8c6.3,0,9.4,5.3,9,11.1H1685.9z M1694.2,476.5c-0.5-2.6-1.6-4-4.1-4c-3.3,0-4.1,2.5-4.2,4H1694.2z"/>
		<path d="M1702.3,469.2h4.9v3.5h0.1c1-2.3,3.4-4,5.9-4c0.4,0,0.8,0.1,1.1,0.2v4.8c-0.5-0.1-1.2-0.2-1.8-0.2c-3.8,0-5,2.7-5,6v8.4
			h-5.1V469.2z"/>
	</g>
	<g>
		<path class="st9" d="M1479.4,475.6l0.1,0.1L1479.4,475.6z"/>
		<polygon class="st9" points="1477.3,471.4 1477.3,471.4 1477.3,471.4 		"/>
		<polygon class="st9" points="1476.5,469 1476.5,469.1 1476.5,469.1 		"/>
		<polygon class="st9" points="1475.8,466.3 1475.9,466.5 1475.9,466.5 		"/>
		<path class="st9" d="M1475.2,461.9L1475.2,461.9L1475.2,461.9z"/>
		<polygon class="st9" points="1475.2,461.7 1475.2,461.7 1475.2,461.7 1475.2,461.7 1475.2,461.8 1475.2,461.7 1475.2,461.7 
			1475.2,461.7 		"/>
		<path class="st9" d="M1475.2,461.6L1475.2,461.6L1475.2,461.6z"/>
		<polygon class="st9" points="1475.2,461.5 1475.2,461.6 1475.2,461.5 		"/>
		<polygon class="st9" points="1475.2,461.2 1475.2,461.3 1475.2,461.3 1475.2,461.3 1475.2,461.3 1475.2,461.2 1475.2,461.2 		"/>
		<polygon class="st9" points="1475.2,460.4 1475.2,460.4 1475.2,460.4 1475.2,460.5 1475.2,460.4 		"/>
		<polygon class="st9" points="1475.2,460.2 1475.2,460.3 1475.2,460.3 1475.2,460.3 1475.2,460.3 		"/>
		<polygon class="st9" points="1475.2,460.1 1475.2,460.2 1475.2,460.2 1475.2,460.2 1475.2,460.2 		"/>
		<polygon class="st9" points="1475.2,460 1475.2,460 1475.2,460 1475.2,460.1 1475.2,460.1 1475.2,460.1 1475.2,460.1 1475.2,460 
					"/>
		<polygon class="st9" points="1475.2,459.8 1475.2,459.9 1475.2,459.9 1475.2,459.9 1475.2,459.9 1475.2,459.9 1475.2,459.9 
			1475.2,460 1475.2,459.9 1475.2,459.9 1475.2,459.9 1475.2,459.9 1475.2,459.9 1475.2,459.9 		"/>
		<polygon class="st9" points="1475.2,459.7 1475.2,459.7 1475.2,459.7 		"/>
		<path class="st9" d="M1475.2,459.5L1475.2,459.5L1475.2,459.5z"/>
		<path class="st9" d="M1475.2,459.4L1475.2,459.4L1475.2,459.4z"/>
		<path class="st9" d="M1475.3,459.3L1475.3,459.3L1475.3,459.3z"/>
		<path class="st9" d="M1475.3,459L1475.3,459L1475.3,459z"/>
		<path class="st9" d="M1475.3,458.9L1475.3,458.9L1475.3,458.9z"/>
		<polygon class="st9" points="1475.3,458.8 1475.3,458.8 1475.3,458.8 		"/>
		<polygon class="st9" points="1475.3,458.6 1475.3,458.6 1475.3,458.6 		"/>
		<polygon class="st9" points="1475.3,458.4 1475.3,458.4 1475.3,458.4 		"/>
		<polygon class="st9" points="1475.4,458.3 1475.4,458.4 1475.4,458.4 		"/>
		<polygon class="st9" points="1484.8,448.7 1484.8,448.7 1484.8,448.7 		"/>
		<polygon class="st9" points="1502.7,471.2 1502.7,471 1502.7,471 		"/>
		<path class="st9" d="M1502.5,471.7c0.1-0.2,0.1-0.3,0.2-0.5C1502.6,471.4,1502.5,471.5,1502.5,471.7z"/>
		<path class="st10" d="M1480.9,461.2l17.8,0l1.9,22c0.1,1.5,1.4,2.7,2.9,2.8l0.3,0l-3.6,7.7l-10.2,9.9l-11.5-11.3l-2.3-6.4l0.7-0.1
			c1.4-0.2,2.4-1.3,2.5-2.8L1480.9,461.2z"/>
		<path class="st11" d="M1489.9,503.6L1489.9,503.6l-9.7-6.6l-4.1-11.1l0.7-0.1c1.4-0.2,2.4-1.3,2.5-2.8l1.3-17.7h9.4L1489.9,503.6z
			"/>
		<path class="st12" d="M1479.7,476.7l20.3,0.1l0.1,0.9c-0.3,0.6-0.5,0.9-0.9,1.4c-2.6,3.9-6,6.5-9.2,6.5c-3.3,0-6.6-2.6-9.2-6.5
			c-0.4-0.6-0.7-1-1-1.7L1479.7,476.7z"/>
		<path class="st13" d="M1478.2,485.2c7.1,6.9,14.5,8.3,23.1-0.1c2.4,0.5,4.9,0.9,7,1.8c9.9,4.2,10.3,14.6,10.3,23.9
			c0,2.9-2.3,5.2-5.1,5.2l-47.2,0c-2.8,0-5.1-2.3-5.1-5.2c0-9.4,0.6-19.4,9.6-23.6C1473.4,486,1475.5,485.7,1478.2,485.2z"/>
		<path class="st14" d="M1476.3,475.9c-20-32.5,11.3-44.8,12.5-40.3c0.3,1.2,0.4,0.6,1.1,0.1c9.6-6.7,30.3,14.9,13.6,40.4
			c-1.1,0.3-2.4,0.5-3.8,0.7l-0.1,0.1c1.2-1.7,2.3-3.7,3.1-5.9h0c0.4-1.3,0.8-2.7,1.2-4.1c0.3-1.4,0.6-2.8,0.7-4.2h0
			c0.1-0.6,0.1-1.2,0.1-1.8c0-0.5,0-1.2,0-1.8c0-0.5,0-0.9,0-1.2c0-0.3,0-0.7-0.1-1.1c-0.4-3.1-4.5-3.8-9-4.5
			c-5.2-0.9-10.8-1.8-13.1-6.5l0,0c-2.2,1.9-6.4,5.5-7.3,12.2c-0.1,0.6-0.1,1.2-0.2,1.9c0,0.6,0,1.3,0,2l0,0
			c0.4,5.9,2.3,11,4.9,14.8C1478.6,476.5,1477.3,476.2,1476.3,475.9z"/>
		<path class="st15" d="M1502.7,471c0.4-1.3,0.8-2.7,1.2-4.1c0.3-1.4,0.6-2.8,0.7-4.2l0,0c0.1-0.6,0.1-1.2,0.1-1.8
			c0-0.5,0-1.2,0-1.8c0-0.5,0-0.9,0-1.2c0-0.3,0-0.7-0.1-1.1c-0.4-3.1-4.5-3.8-9-4.5c-5.2-0.9-10.8-1.8-13.1-6.5l0,0
			c-2.2,1.9-6.4,5.5-7.3,12.2c-0.1,0.6-0.1,1.2-0.2,1.9c0,0.6,0,1.3,0,2l0,0c0.5,6,2.3,11.2,5.1,14.9h0c2.6,3.6,6,5.7,9.7,5.7
			c2.6,0,5.1-1.1,7.2-3l0,0C1499.4,477.6,1501.4,474.6,1502.7,471L1502.7,471L1502.7,471z"/>
		<path class="st16" d="M1490,451.2c-3.1-0.9-5.8-2.4-7.2-5.3l0,0c-2.2,1.9-6.4,5.5-7.3,12.2c-0.1,0.6-0.1,1.2-0.2,1.9
			c0,0.6,0,1.3,0,2l0,0c0.5,6,2.3,11.2,5.1,14.9h0c2.6,3.6,6,5.7,9.7,5.7L1490,451.2z"/>
		<path class="st17" d="M1476.1,485.6c1.9,3.7,7,8,13.6,8c6.2,0,11.4-4.2,13.6-7.9l0,0c-2.2,4.2-7.2,8.6-13.6,8.6
			C1483.3,494.2,1478,489.7,1476.1,485.6L1476.1,485.6z"/>
		<path class="st17" d="M1477,485.1c3,7.5,7.5,18.1,13,22.8c6-6.2,10.7-15.8,12.9-22.8c2.4,0.5,4.9,0.9,7,1.8l0,0l0,0
			c9.7,4,8.9,14.2,8.8,23.9c0,2.9-2.3,5.2-5.1,5.2l-47.2,0c-2.8,0-5.1-2.3-5.1-5.2c0-9.4-0.7-19.5,8.3-23.6v0l0,0
			C1472.1,485.9,1474.2,485.7,1477,485.1z"/>
		<path class="st18" d="M1477,485.1c3,7.5,7.5,18.1,13,22.8c6-6.2,10.7-15.8,12.8-22.9c0.7,0.2,1.4,0.3,2.2,0.4
			c-2.1,7.6-9.4,21.3-15,25.7c-5.2-1.9-11.5-15.3-14.8-25.7C1475.7,485.3,1476.3,485.2,1477,485.1z"/>
	</g>
</g>
<g>
	<rect x="221.3" y="680.5" class="st4" width="268.6" height="94.8"/>
	<path class="st5" d="M223.8,680.5h13.9c4.6,0,7.5,3.2,7.5,7.1c0,3-1.2,5.3-4.1,6.4v0.1c2.8,0.8,3.6,3.4,3.7,6
		c0.1,1.6,0,4.7,1.1,6.1h-5.7c-0.6-1.6-0.6-4.1-0.9-6.2c-0.4-2.7-1.4-3.9-4.3-3.9h-5.7v10h-5.7V680.5z M229.5,692.1h6.2
		c2.6,0,3.9-1.1,3.9-3.7c0-2.5-1.3-3.6-3.9-3.6h-6.2V692.1z"/>
	<path class="st5" d="M253.5,698.2c0.1,3.3,1.7,4.7,4.6,4.7c2.1,0,3.7-1.3,4-2.4h4.5c-1.4,4.4-4.5,6.3-8.7,6.3c-5.9,0-9.5-4-9.5-9.8
		c0-5.6,3.9-9.8,9.5-9.8c6.3,0,9.4,5.3,9,11.1H253.5z M261.8,694.9c-0.5-2.6-1.6-4-4.1-4c-3.3,0-4.1,2.5-4.2,4H261.8z"/>
	<path class="st5" d="M280.2,706.2h-5.7l-6.4-18.6h5.4l3.9,12.7h0.1l3.9-12.7h5.1L280.2,706.2z"/>
	<path class="st5" d="M293.9,684.7h-5.1v-4.2h5.1V684.7z M288.8,687.6h5.1v18.6h-5.1V687.6z"/>
	<path class="st5" d="M302.2,698.2c0.1,3.3,1.7,4.7,4.6,4.7c2.1,0,3.7-1.3,4-2.4h4.5c-1.4,4.4-4.5,6.3-8.7,6.3c-5.9,0-9.5-4-9.5-9.8
		c0-5.6,3.9-9.8,9.5-9.8c6.3,0,9.4,5.3,9,11.1H302.2z M310.5,694.9c-0.5-2.6-1.6-4-4.1-4c-3.3,0-4.1,2.5-4.2,4H310.5z"/>
	<path class="st5" d="M339.9,706.2h-5.3l-3.3-12.5h-0.1l-3.2,12.5h-5.3l-5.9-18.6h5.4l3.4,12.6h0.1l3.1-12.6h5l3.2,12.6h0.1
		l3.4-12.6h5.3L339.9,706.2z"/>
	<path class="st5" d="M357.7,693.3c0.3-4.8,4.6-6.2,8.7-6.2c3.7,0,8.2,0.8,8.2,5.3v9.7c0,1.7,0.2,3.4,0.6,4.1h-5.2
		c-0.2-0.6-0.3-1.2-0.4-1.8c-1.6,1.7-4,2.3-6.3,2.3c-3.6,0-6.3-1.8-6.3-5.6c0.1-8.5,12.6-3.9,12.4-8.1c0-2.2-1.5-2.5-3.3-2.5
		c-2,0-3.2,0.8-3.4,2.8H357.7z M369.5,697.1c-0.9,0.8-2.7,0.8-4.2,1.1c-1.6,0.3-3,0.9-3,2.7c0,1.9,1.5,2.4,3.1,2.4
		c4,0,4.1-3.1,4.1-4.3V697.1z"/>
	<path class="st5" d="M378.6,687.6h4.9v2.6h0.1c1.3-2.1,3.5-3.1,5.7-3.1c5.4,0,6.8,3.1,6.8,7.7v11.4h-5.1v-10.5
		c0-3.1-0.9-4.6-3.3-4.6c-2.8,0-4,1.5-4,5.3v9.8h-5.1V687.6z"/>
	<path class="st5" d="M413.2,703.8L413.2,703.8c-1.3,2-3.3,2.9-5.7,2.9c-5.6,0-8.4-4.8-8.4-10c0-5,2.8-9.6,8.2-9.6
		c2.2,0,4.4,0.9,5.5,2.8h0.1v-9.4h5.1v25.7h-4.9V703.8z M408.8,691c-3.3,0-4.5,2.9-4.5,5.9c0,2.9,1.3,6,4.5,6c3.3,0,4.4-3,4.4-6
		C413.1,693.8,412.1,691,408.8,691z"/>
	<path class="st5" d="M223.8,723.7h13.9c4.6,0,7.5,3.2,7.5,7.1c0,3-1.2,5.3-4.1,6.4v0.1c2.8,0.8,3.6,3.4,3.7,6
		c0.1,1.6,0,4.7,1.1,6.1h-5.7c-0.6-1.6-0.6-4.1-0.9-6.2c-0.4-2.7-1.4-3.9-4.3-3.9h-5.7v10h-5.7V723.7z M229.5,735.3h6.2
		c2.6,0,3.9-1.1,3.9-3.7c0-2.5-1.3-3.6-3.9-3.6h-6.2V735.3z"/>
	<path class="st5" d="M253.5,741.4c0.1,3.3,1.7,4.7,4.6,4.7c2.1,0,3.7-1.3,4-2.4h4.5c-1.4,4.4-4.5,6.3-8.7,6.3c-5.9,0-9.5-4-9.5-9.8
		c0-5.6,3.9-9.8,9.5-9.8c6.3,0,9.4,5.3,9,11H253.5z M261.8,738.1c-0.5-2.6-1.6-4-4.1-4c-3.3,0-4.1,2.5-4.2,4H261.8z"/>
	<path class="st5" d="M270.1,723.7h5.1v25.7h-5.1V723.7z"/>
	<path class="st5" d="M283.4,741.4c0.1,3.3,1.7,4.7,4.6,4.7c2.1,0,3.7-1.3,4-2.4h4.5c-1.4,4.4-4.5,6.3-8.7,6.3c-5.9,0-9.5-4-9.5-9.8
		c0-5.6,3.9-9.8,9.5-9.8c6.3,0,9.4,5.3,9,11H283.4z M291.8,738.1c-0.5-2.6-1.6-4-4.1-4c-3.3,0-4.1,2.5-4.2,4H291.8z"/>
	<path class="st5" d="M299.7,736.5c0.3-4.8,4.6-6.2,8.7-6.2c3.7,0,8.2,0.8,8.2,5.3v9.7c0,1.7,0.2,3.4,0.6,4.1h-5.2
		c-0.2-0.6-0.3-1.2-0.4-1.8c-1.6,1.7-4,2.3-6.3,2.3c-3.6,0-6.3-1.8-6.3-5.6c0.1-8.5,12.6-3.9,12.4-8.1c0-2.2-1.5-2.5-3.3-2.5
		c-2,0-3.2,0.8-3.4,2.8H299.7z M311.5,740.3c-0.9,0.8-2.7,0.8-4.2,1.1c-1.6,0.3-3,0.9-3,2.7c0,1.9,1.5,2.4,3.1,2.4
		c4,0,4.1-3.1,4.1-4.3V740.3z"/>
	<path class="st5" d="M324.5,743.4c0,2.2,1.9,3.1,3.9,3.1c1.4,0,3.3-0.6,3.3-2.4c0-1.5-2.2-2.1-5.8-2.9c-3-0.7-5.9-1.7-5.9-5
		c0-4.8,4.1-6,8.1-6c4,0,7.8,1.4,8.2,5.9h-4.9c-0.1-2-1.7-2.5-3.5-2.5c-1.2,0-2.8,0.2-2.8,1.7c0,1.8,2.9,2.1,5.8,2.8
		c3,0.7,5.9,1.8,5.9,5.2c0,4.9-4.3,6.5-8.5,6.5c-4.3,0-8.6-1.6-8.7-6.6H324.5z"/>
	<path class="st5" d="M344.1,741.4c0.1,3.3,1.7,4.7,4.6,4.7c2.1,0,3.7-1.3,4-2.4h4.5c-1.4,4.4-4.5,6.3-8.7,6.3c-5.9,0-9.5-4-9.5-9.8
		c0-5.6,3.9-9.8,9.5-9.8c6.3,0,9.4,5.3,9,11H344.1z M352.4,738.1c-0.5-2.6-1.6-4-4.1-4c-3.3,0-4.1,2.5-4.2,4H352.4z"/>
</g>
<g>
	<path class="st7" d="M-210.4,785.6c20.5,0,37.1,16.6,37.1,37.1c0,20.5-16.6,37.1-37.1,37.1c-20.5,0-37.1-16.6-37.1-37.1
		C-247.5,802.2-230.9,785.6-210.4,785.6"/>
	<g>
		<rect x="-233.6" y="803.1" class="st4" width="46.4" height="39"/>
		<path class="st5" d="M-213.3,818c0.3,0,0.6,0,0.9,0h0.9c3.5,0,6.5-1.9,6.5-5.6c0-3.6-2.6-5.5-6.1-5.5c-4.4,0-6.5,3.4-6.5,7.4h-4.1
			c0.2-6.5,3.7-11,10.6-11c5.9,0,10.4,2.8,10.4,9.2c0,3-2.1,5.6-4.7,6.8v0.1c4.2,0.9,6.2,4.2,6.2,8.3c0,6.8-5.4,10.4-11.8,10.4
			c-6.9,0-11.5-4-11.4-11.1h4.1c0.1,4.4,2.6,7.5,7.3,7.5c4,0,7.4-2.5,7.4-6.6c0-4.3-3.2-6.6-7.3-6.6c-0.9,0-1.7,0-2.5,0.1V818z"/>
	</g>
</g>
<g>
	<rect x="604.7" y="668.6" class="st4" width="749.2" height="119.5"/>
	<path d="M613.7,675c3.6,0,6.4,2.8,6.4,6.4c0,3.6-2.9,6.4-6.4,6.4s-6.4-2.9-6.4-6.4C607.3,677.9,610.1,675,613.7,675z"/>
	<path d="M635.5,668.6h12.1c4.9,0,7.8,2.6,7.8,6.7c0,3.1-1.3,5.7-4.5,6.5v0.1c3,0.6,3.6,2.8,3.9,5.3c0.2,2.5,0.1,5.4,1.5,7.1h-3.8
		c-1-1-0.4-3.8-0.9-6.3c-0.4-2.5-1-4.6-4.3-4.6h-8.4v11h-3.4V668.6z M646.1,680.4c3.2,0,5.9-0.8,5.9-4.6c0-2.6-1.4-4.4-4.6-4.4h-8.5
		v9H646.1z"/>
	<path d="M675.5,688.4c-0.8,4.1-3.7,6.3-8,6.3c-5.9,0-8.7-4.1-8.9-9.8c0-5.6,3.7-9.7,8.7-9.7c6.6,0,8.6,6.2,8.4,10.7h-13.9
		c-0.1,3.2,1.7,6.1,5.8,6.1c2.6,0,4.3-1.2,4.8-3.6H675.5z M672.6,683.2c-0.2-2.9-2.3-5.3-5.4-5.3c-3.2,0-5.1,2.4-5.3,5.3H672.6z"/>
	<path d="M687.4,694.3h-3.3l-6.9-18.6h3.4l5.2,15.5h0.1l5.1-15.5h3.2L687.4,694.3z"/>
	<path d="M700.2,672.3h-3.1v-3.7h3.1V672.3z M697.2,675.7h3.1v18.6h-3.1V675.7z"/>
	<path d="M720.9,688.4c-0.8,4.1-3.7,6.3-8,6.3c-5.9,0-8.7-4.1-8.9-9.8c0-5.6,3.7-9.7,8.7-9.7c6.6,0,8.6,6.2,8.4,10.7h-13.9
		c-0.1,3.2,1.7,6.1,5.8,6.1c2.6,0,4.3-1.2,4.8-3.6H720.9z M717.9,683.2c-0.2-2.9-2.3-5.3-5.4-5.3c-3.2,0-5.1,2.4-5.3,5.3H717.9z"/>
	<path d="M742.8,694.3h-3.2l-3.8-14.8h-0.1l-3.7,14.8h-3.3l-6-18.6h3.4l4.2,15.2h0.1l3.7-15.2h3.3l3.9,15.2h0.1l4.2-15.2h3.2
		L742.8,694.3z"/>
	<path d="M769.6,675.3c5.9,0,9,4.3,9,9.8c0,5.4-3.1,9.7-9,9.7s-9-4.3-9-9.7C760.6,679.5,763.7,675.3,769.6,675.3z M769.6,692
		c3.2,0,5.8-2.5,5.8-7c0-4.5-2.6-7.1-5.8-7.1s-5.8,2.6-5.8,7.1C763.9,689.5,766.4,692,769.6,692z"/>
	<path d="M783.5,678.4h-3.1v-2.7h3.1v-2.8c0-3,1.8-4.6,5.1-4.6c0.6,0,1.4,0.1,2,0.3v2.7c-0.5-0.2-1.2-0.3-1.7-0.3
		c-1.5,0-2.3,0.5-2.3,2.1v2.6h3.6v2.7h-3.6v15.9h-3.1V678.4z"/>
	<path d="M806.2,672.3h-3.1v-3.7h3.1V672.3z M803.1,675.7h3.1v18.6h-3.1V675.7z"/>
	<path d="M810.9,675.7h2.9v3h0.1c1.3-2.3,3.3-3.4,6-3.4c4.9,0,6.4,2.8,6.4,6.8v12.2h-3.1v-12.6c0-2.3-1.4-3.7-3.8-3.7
		c-3.7,0-5.5,2.5-5.5,5.8v10.5h-3.1V675.7z"/>
	<path d="M832.8,688.4c0.1,2.7,2.5,3.6,5,3.6c1.9,0,4.5-0.4,4.5-2.8c0-4.8-12.2-1.5-12.2-8.7c0-3.7,3.7-5.3,6.9-5.3
		c4.2,0,7.3,1.3,7.6,5.8h-3.1c-0.2-2.4-2.3-3.1-4.3-3.1c-1.8,0-4,0.5-4,2.4c0,2.2,3.2,2.6,6.1,3.2c3.1,0.7,6.1,1.7,6.1,5.3
		c0,4.5-4.1,5.9-7.9,5.9c-4.2,0-7.7-1.7-7.9-6.3H832.8z"/>
	<path d="M853.2,675.7h3.7v2.7h-3.7v11.6c0,1.4,0.4,1.7,2.3,1.7h1.4v2.7h-2.3c-3.2,0-4.4-0.6-4.4-4.1v-11.8H847v-2.7h3.2v-5.6h3.1
		V675.7z"/>
	<path d="M876.8,694.2c-0.5,0.3-1.3,0.5-2.2,0.5c-1.6,0-2.6-0.9-2.6-2.9c-1.7,2-4,2.9-6.6,2.9c-3.4,0-6.2-1.5-6.2-5.2
		c0-4.2,3.1-5.1,6.3-5.7c3.3-0.7,6.3-0.4,6.3-2.7c0-2.7-2.2-3.1-4.1-3.1c-2.6,0-4.5,0.8-4.6,3.5H860c0.2-4.6,3.7-6.2,7.9-6.2
		c3.3,0,7,0.8,7,5.1v9.6c0,1.4,0,2.1,1,2.1c0.3,0,0.6-0.1,0.9-0.2V694.2z M871.8,684.7c-2.4,1.8-9.3,0-9.3,4.6c0,2,1.7,2.7,3.6,2.7
		c4,0,5.7-2.5,5.7-4.2V684.7z"/>
	<path d="M879.8,668.6h3.1v25.7h-3.1V668.6z"/>
	<path d="M887.8,668.6h3.1v25.7h-3.1V668.6z"/>
	<path d="M912.1,694.2c-0.5,0.3-1.3,0.5-2.2,0.5c-1.6,0-2.6-0.9-2.6-2.9c-1.7,2-4,2.9-6.6,2.9c-3.4,0-6.2-1.5-6.2-5.2
		c0-4.2,3.1-5.1,6.3-5.7c3.3-0.7,6.3-0.4,6.3-2.7c0-2.7-2.2-3.1-4.1-3.1c-2.6,0-4.5,0.8-4.6,3.5h-3.1c0.2-4.6,3.7-6.2,7.9-6.2
		c3.3,0,7,0.8,7,5.1v9.6c0,1.4,0,2.1,1,2.1c0.3,0,0.6-0.1,0.9-0.2V694.2z M907.1,684.7c-2.4,1.8-9.3,0-9.3,4.6c0,2,1.7,2.7,3.6,2.7
		c4,0,5.7-2.5,5.7-4.2V684.7z"/>
	<path d="M919.2,675.7h3.7v2.7h-3.7v11.6c0,1.4,0.4,1.7,2.3,1.7h1.4v2.7h-2.3c-3.2,0-4.4-0.6-4.4-4.1v-11.8H913v-2.7h3.2v-5.6h3.1
		V675.7z"/>
	<path d="M929.5,672.3h-3.1v-3.7h3.1V672.3z M926.5,675.7h3.1v18.6h-3.1V675.7z"/>
	<path d="M942.3,675.3c5.9,0,9,4.3,9,9.8c0,5.4-3.1,9.7-9,9.7s-9-4.3-9-9.7C933.3,679.5,936.4,675.3,942.3,675.3z M942.3,692
		c3.2,0,5.8-2.5,5.8-7c0-4.5-2.6-7.1-5.8-7.1c-3.2,0-5.8,2.6-5.8,7.1C936.5,689.5,939.1,692,942.3,692z"/>
	<path d="M954.9,675.7h2.9v3h0.1c1.3-2.3,3.3-3.4,6-3.4c4.9,0,6.4,2.8,6.4,6.8v12.2h-3.1v-12.6c0-2.3-1.4-3.7-3.8-3.7
		c-3.7,0-5.5,2.5-5.5,5.8v10.5h-3.1V675.7z"/>
	<path d="M989.2,675.7h3.7v2.7h-3.7v11.6c0,1.4,0.4,1.7,2.3,1.7h1.4v2.7h-2.3c-3.2,0-4.4-0.6-4.4-4.1v-11.8H983v-2.7h3.2v-5.6h3.1
		V675.7z"/>
	<path d="M1012.2,688.4c-0.8,4.1-3.7,6.3-8,6.3c-5.9,0-8.7-4.1-8.9-9.8c0-5.6,3.7-9.7,8.7-9.7c6.6,0,8.6,6.2,8.4,10.7h-13.9
		c-0.1,3.2,1.7,6.1,5.8,6.1c2.6,0,4.3-1.2,4.8-3.6H1012.2z M1009.2,683.2c-0.2-2.9-2.3-5.3-5.4-5.3c-3.2,0-5.1,2.4-5.3,5.3H1009.2z"
		/>
	<path d="M1017.5,688.4c0.1,2.7,2.5,3.6,5,3.6c1.9,0,4.5-0.4,4.5-2.8c0-4.8-12.2-1.5-12.2-8.7c0-3.7,3.7-5.3,6.9-5.3
		c4.2,0,7.3,1.3,7.6,5.8h-3.1c-0.2-2.4-2.3-3.1-4.3-3.1c-1.8,0-4,0.5-4,2.4c0,2.2,3.2,2.6,6.1,3.2c3.1,0.7,6.1,1.7,6.1,5.3
		c0,4.5-4.1,5.9-7.9,5.9c-4.2,0-7.7-1.7-7.9-6.3H1017.5z"/>
	<path d="M1037.9,675.7h3.7v2.7h-3.7v11.6c0,1.4,0.4,1.7,2.3,1.7h1.4v2.7h-2.3c-3.2,0-4.4-0.6-4.4-4.1v-11.8h-3.2v-2.7h3.2v-5.6h3.1
		V675.7z"/>
	<path d="M1048.2,672.3h-3.1v-3.7h3.1V672.3z M1045.2,675.7h3.1v18.6h-3.1V675.7z"/>
	<path d="M1053,675.7h2.9v3h0.1c1.3-2.3,3.3-3.4,6-3.4c4.9,0,6.4,2.8,6.4,6.8v12.2h-3.1v-12.6c0-2.3-1.4-3.7-3.8-3.7
		c-3.7,0-5.5,2.5-5.5,5.8v10.5h-3.1V675.7z"/>
	<path d="M1089,692.7c0,6.1-2.7,9.1-8.6,9.1c-3.5,0-7.5-1.4-7.7-5.5h3.1c0.1,2.2,2.8,3,4.8,3c4,0,5.6-2.9,5.6-7.1v-1.2h-0.1
		c-1,2.3-3.4,3.4-5.8,3.4c-5.5,0-8.3-4.4-8.3-9.4c0-4.4,2.1-9.8,8.6-9.8c2.3,0,4.4,1,5.5,3.1h0v-2.7h2.9V692.7z M1086,684.6
		c0-3.3-1.4-6.7-5.3-6.7c-3.9,0-5.5,3.2-5.5,6.8c0,3.3,1.2,7.1,5.3,7.1C1084.5,691.8,1086,688.1,1086,684.6z"/>
	<path d="M1103.5,675.7h2.9v3.9h0.1c1.5-3,3.5-4.5,6.8-4.4v3.2c-4.9,0-6.7,2.8-6.7,7.5v8.3h-3.1V675.7z"/>
	<path d="M1131.5,688.4c-0.8,4.1-3.7,6.3-8,6.3c-5.9,0-8.7-4.1-8.9-9.8c0-5.6,3.7-9.7,8.7-9.7c6.6,0,8.6,6.2,8.4,10.7h-13.9
		c-0.1,3.2,1.7,6.1,5.8,6.1c2.6,0,4.3-1.2,4.8-3.6H1131.5z M1128.6,683.2c-0.2-2.9-2.3-5.3-5.4-5.3c-3.2,0-5.1,2.4-5.3,5.3H1128.6z"
		/>
	<path d="M1136.8,688.4c0.1,2.7,2.5,3.6,5,3.6c1.9,0,4.5-0.4,4.5-2.8c0-4.8-12.2-1.5-12.2-8.7c0-3.7,3.7-5.3,6.9-5.3
		c4.2,0,7.3,1.3,7.6,5.8h-3.1c-0.2-2.4-2.3-3.1-4.3-3.1c-1.8,0-4,0.5-4,2.4c0,2.2,3.2,2.6,6.1,3.2c3.1,0.7,6.1,1.7,6.1,5.3
		c0,4.5-4.1,5.9-7.9,5.9c-4.2,0-7.7-1.7-7.9-6.3H1136.8z"/>
	<path d="M1168.4,694.3h-2.9v-3h-0.1c-1.3,2.3-3.3,3.4-6,3.4c-4.9,0-6.4-2.8-6.4-6.8v-12.2h3.1v12.6c0,2.3,1.4,3.7,3.8,3.7
		c3.7,0,5.5-2.5,5.5-5.8v-10.5h3.1V694.3z"/>
	<path d="M1173.2,668.6h3.1v25.7h-3.1V668.6z"/>
	<path d="M1185.2,675.7h3.7v2.7h-3.7v11.6c0,1.4,0.4,1.7,2.3,1.7h1.4v2.7h-2.3c-3.2,0-4.4-0.6-4.4-4.1v-11.8h-3.2v-2.7h3.2v-5.6h3.1
		V675.7z"/>
	<path d="M1194.2,688.4c0.1,2.7,2.5,3.6,5,3.6c1.9,0,4.5-0.4,4.5-2.8c0-4.8-12.2-1.5-12.2-8.7c0-3.7,3.7-5.3,6.9-5.3
		c4.2,0,7.3,1.3,7.6,5.8h-3.1c-0.2-2.4-2.3-3.1-4.3-3.1c-1.8,0-4,0.5-4,2.4c0,2.2,3.2,2.6,6.1,3.2c3.1,0.7,6.1,1.7,6.1,5.3
		c0,4.5-4.1,5.9-7.9,5.9c-4.2,0-7.7-1.7-7.9-6.3H1194.2z"/>
	<path d="M1236.8,694.2c-0.5,0.3-1.3,0.5-2.2,0.5c-1.6,0-2.6-0.9-2.6-2.9c-1.7,2-4,2.9-6.6,2.9c-3.4,0-6.2-1.5-6.2-5.2
		c0-4.2,3.1-5.1,6.3-5.7c3.3-0.7,6.3-0.4,6.3-2.7c0-2.7-2.2-3.1-4.1-3.1c-2.6,0-4.5,0.8-4.6,3.5h-3.1c0.2-4.6,3.7-6.2,7.9-6.2
		c3.3,0,7,0.8,7,5.1v9.6c0,1.4,0,2.1,1,2.1c0.3,0,0.6-0.1,0.9-0.2V694.2z M1231.8,684.7c-2.4,1.8-9.3,0-9.3,4.6c0,2,1.7,2.7,3.6,2.7
		c4,0,5.7-2.5,5.7-4.2V684.7z"/>
	<path d="M1239.7,675.7h2.9v3h0.1c1.3-2.3,3.3-3.4,6-3.4c4.9,0,6.4,2.8,6.4,6.8v12.2h-3.1v-12.6c0-2.3-1.4-3.7-3.8-3.7
		c-3.7,0-5.5,2.5-5.5,5.8v10.5h-3.1V675.7z"/>
	<path d="M1276.3,694.3h-3.1v-2.5h-0.1c-1,2.1-3.3,3-5.9,3c-5.7,0-8.6-4.5-8.6-9.8c0-5.3,2.8-9.7,8.5-9.7c1.9,0,4.7,0.7,6,2.9h0.1
		v-9.6h3.1V694.3z M1267.7,692c4.1,0,5.7-3.6,5.7-7c0-3.6-1.7-7.1-5.9-7.1c-4.2,0-5.6,3.6-5.6,7.2
		C1261.9,688.6,1263.7,692,1267.7,692z"/>
	<path d="M636.9,718.9h2.9v3.9h0.1c1.5-3,3.5-4.5,6.8-4.4v3.2c-4.9,0-6.7,2.8-6.7,7.5v8.3h-3.1V718.9z"/>
	<path d="M664.9,731.6c-0.8,4.1-3.7,6.3-8,6.3c-5.9,0-8.7-4.1-8.9-9.8c0-5.6,3.7-9.7,8.7-9.7c6.6,0,8.6,6.2,8.4,10.7h-13.9
		c-0.1,3.2,1.7,6.1,5.8,6.1c2.6,0,4.3-1.2,4.8-3.6H664.9z M661.9,726.4c-0.2-2.9-2.3-5.3-5.4-5.3c-3.2,0-5.1,2.4-5.3,5.3H661.9z"/>
	<path d="M668.5,711.8h3.1v25.7h-3.1V711.8z"/>
	<path d="M692.2,731.6c-0.8,4.1-3.7,6.3-8,6.3c-5.9,0-8.7-4.1-8.9-9.8c0-5.6,3.7-9.7,8.7-9.7c6.6,0,8.6,6.2,8.4,10.7h-13.9
		c-0.1,3.2,1.7,6.1,5.8,6.1c2.6,0,4.3-1.2,4.8-3.6H692.2z M689.2,726.4c-0.2-2.9-2.3-5.3-5.4-5.3c-3.2,0-5.1,2.4-5.3,5.3H689.2z"/>
	<path d="M712.1,737.4c-0.5,0.3-1.3,0.5-2.2,0.5c-1.6,0-2.6-0.9-2.6-2.9c-1.7,2-4,2.9-6.6,2.9c-3.4,0-6.2-1.5-6.2-5.2
		c0-4.2,3.1-5.1,6.3-5.7c3.3-0.7,6.3-0.4,6.3-2.7c0-2.7-2.2-3.1-4.1-3.1c-2.6,0-4.5,0.8-4.6,3.5h-3.1c0.2-4.6,3.7-6.2,7.9-6.2
		c3.3,0,7,0.8,7,5.1v9.6c0,1.4,0,2.1,1,2.1c0.3,0,0.6-0.1,0.9-0.2V737.4z M707.2,727.9c-2.4,1.8-9.3,0-9.3,4.6c0,2,1.7,2.7,3.6,2.7
		c4,0,5.7-2.5,5.7-4.2V727.9z"/>
	<path d="M716.9,731.6c0.1,2.7,2.5,3.6,5,3.6c1.9,0,4.5-0.4,4.5-2.8c0-4.8-12.2-1.5-12.2-8.7c0-3.7,3.7-5.3,6.9-5.3
		c4.2,0,7.3,1.3,7.6,5.8h-3.1c-0.2-2.4-2.3-3.1-4.3-3.1c-1.8,0-4,0.5-4,2.4c0,2.2,3.2,2.6,6.1,3.2c3.1,0.7,6.1,1.7,6.1,5.3
		c0,4.5-4.1,5.9-7.9,5.9c-4.2,0-7.7-1.7-7.9-6.3H716.9z"/>
	<path d="M748.9,731.6c-0.8,4.1-3.7,6.3-8,6.3c-5.9,0-8.7-4.1-8.9-9.8c0-5.6,3.7-9.7,8.7-9.7c6.6,0,8.6,6.2,8.4,10.7h-13.9
		c-0.1,3.2,1.7,6.1,5.8,6.1c2.6,0,4.3-1.2,4.8-3.6H748.9z M745.9,726.4c-0.2-2.9-2.3-5.3-5.4-5.3c-3.2,0-5.1,2.4-5.3,5.3H745.9z"/>
	<path d="M770.3,718.5c5.9,0,9,4.3,9,9.8c0,5.4-3.1,9.7-9,9.7s-9-4.3-9-9.7C761.3,722.7,764.4,718.5,770.3,718.5z M770.3,735.2
		c3.2,0,5.8-2.5,5.8-7c0-4.5-2.6-7.1-5.8-7.1s-5.8,2.6-5.8,7.1C764.5,732.7,767.1,735.2,770.3,735.2z"/>
	<path d="M784.2,721.6h-3.1v-2.7h3.1v-2.8c0-3,1.8-4.6,5.1-4.6c0.6,0,1.4,0.1,2,0.3v2.7c-0.5-0.2-1.2-0.3-1.7-0.3
		c-1.5,0-2.3,0.5-2.3,2.1v2.6h3.6v2.7h-3.6v15.9h-3.1V721.6z"/>
	<path d="M807.9,718.9h3.7v2.7h-3.7v11.6c0,1.4,0.4,1.7,2.3,1.7h1.4v2.7h-2.3c-3.2,0-4.4-0.6-4.4-4.1v-11.8h-3.2v-2.7h3.2v-5.6h3.1
		V718.9z"/>
	<path d="M815,711.8h3.1v9.8h0.1c1-2.3,3.7-3.2,5.9-3.2c4.9,0,6.4,2.8,6.4,6.8v12.2h-3.1v-12.6c0-2.3-1.4-3.7-3.8-3.7
		c-3.7,0-5.5,2.5-5.5,5.8v10.5H815V711.8z"/>
	<path d="M850.9,731.6c-0.8,4.1-3.7,6.3-8,6.3c-5.9,0-8.7-4.1-8.9-9.8c0-5.6,3.7-9.7,8.7-9.7c6.6,0,8.6,6.2,8.4,10.7h-13.9
		c-0.1,3.2,1.7,6.1,5.8,6.1c2.6,0,4.3-1.2,4.8-3.6H850.9z M847.9,726.4c-0.2-2.9-2.3-5.3-5.4-5.3c-3.2,0-5.1,2.4-5.3,5.3H847.9z"/>
	<path d="M875.7,711.2c8.2,0,12.3,6.4,12.3,13.5c0,7-4.1,13.5-12.3,13.5c-8.2,0-12.3-6.4-12.3-13.5
		C863.4,717.6,867.5,711.2,875.7,711.2z M875.7,735.2c6.3,0,8.9-5.4,8.9-10.6c0-5.2-2.6-10.6-8.9-10.6s-8.9,5.4-8.9,10.6
		C866.8,729.8,869.5,735.2,875.7,735.2z"/>
	<path d="M893,721.6h-3.1v-2.7h3.1v-2.8c0-3,1.8-4.6,5.1-4.6c0.6,0,1.4,0.1,2,0.3v2.7c-0.5-0.2-1.2-0.3-1.7-0.3
		c-1.5,0-2.3,0.5-2.3,2.1v2.6h3.6v2.7H896v15.9H893V721.6z"/>
	<path d="M903.6,721.6h-3.1v-2.7h3.1v-2.8c0-3,1.8-4.6,5.1-4.6c0.6,0,1.4,0.1,2,0.3v2.7c-0.5-0.2-1.2-0.3-1.7-0.3
		c-1.5,0-2.3,0.5-2.3,2.1v2.6h3.6v2.7h-3.6v15.9h-3.1V721.6z"/>
	<path d="M928.9,731.6c-0.8,4.1-3.7,6.3-8,6.3c-5.9,0-8.7-4.1-8.9-9.8c0-5.6,3.7-9.7,8.7-9.7c6.6,0,8.6,6.2,8.4,10.7h-13.9
		c-0.1,3.2,1.7,6.1,5.8,6.1c2.6,0,4.3-1.2,4.8-3.6H928.9z M925.9,726.4c-0.2-2.9-2.3-5.3-5.4-5.3c-3.2,0-5.1,2.4-5.3,5.3H925.9z"/>
	<path d="M932.2,718.9h2.9v3.9h0.1c1.5-3,3.5-4.5,6.8-4.4v3.2c-4.9,0-6.7,2.8-6.7,7.5v8.3h-3.1V718.9z"/>
	<path d="M947.6,715.5h-3.1v-3.7h3.1V715.5z M944.5,718.9h3.1v18.6h-3.1V718.9z"/>
	<path d="M952.3,718.9h2.9v3h0.1c1.3-2.3,3.3-3.4,6-3.4c4.9,0,6.4,2.8,6.4,6.8v12.2h-3.1v-12.6c0-2.3-1.4-3.7-3.8-3.7
		c-3.7,0-5.5,2.5-5.5,5.8v10.5h-3.1V718.9z"/>
	<path d="M988.4,735.9c0,6.1-2.7,9.1-8.6,9.1c-3.5,0-7.5-1.4-7.7-5.5h3.1c0.1,2.2,2.8,3,4.8,3c4,0,5.6-2.9,5.6-7.1v-1.2h-0.1
		c-1,2.3-3.4,3.4-5.8,3.4c-5.5,0-8.3-4.4-8.3-9.4c0-4.4,2.1-9.8,8.6-9.8c2.3,0,4.4,1,5.5,3.1h0v-2.7h2.9V735.9z M985.4,727.8
		c0-3.3-1.4-6.7-5.3-6.7c-3.9,0-5.5,3.2-5.5,6.8c0,3.3,1.2,7.1,5.3,7.1S985.4,731.3,985.4,727.8z"/>
	<path d="M1006.2,715.5h-3.1v-3.7h3.1V715.5z M1003.2,718.9h3.1v18.6h-3.1V718.9z"/>
	<path d="M1011,718.9h2.9v3h0.1c1.3-2.3,3.3-3.4,6-3.4c4.9,0,6.4,2.8,6.4,6.8v12.2h-3.1v-12.6c0-2.3-1.4-3.7-3.8-3.7
		c-3.7,0-5.5,2.5-5.5,5.8v10.5h-3.1V718.9z"/>
	<path d="M1035.3,718.9h3.7v2.7h-3.7v11.6c0,1.4,0.4,1.7,2.3,1.7h1.4v2.7h-2.3c-3.2,0-4.4-0.6-4.4-4.1v-11.8h-3.2v-2.7h3.2v-5.6h3.1
		V718.9z"/>
	<path d="M1050.4,718.5c5.9,0,9,4.3,9,9.8c0,5.4-3.1,9.7-9,9.7s-9-4.3-9-9.7C1041.3,722.7,1044.5,718.5,1050.4,718.5z M1050.4,735.2
		c3.2,0,5.8-2.5,5.8-7c0-4.5-2.6-7.1-5.8-7.1c-3.2,0-5.8,2.6-5.8,7.1C1044.6,732.7,1047.2,735.2,1050.4,735.2z"/>
	<path d="M1085.7,724.9c-0.5-2.3-2.1-3.7-4.6-3.7c-4.4,0-5.8,3.5-5.8,7.3c0,3.5,1.5,6.8,5.4,6.8c3,0,4.7-1.7,5.1-4.5h3.1
		c-0.7,4.6-3.5,7.2-8.2,7.2c-5.7,0-8.7-3.9-8.7-9.5c0-5.6,2.9-10,8.8-10c4.2,0,7.6,2,8,6.4H1085.7z"/>
	<path d="M1092.5,711.8h3.1v25.7h-3.1V711.8z"/>
	<path d="M1103.6,715.5h-3.1v-3.7h3.1V715.5z M1100.5,718.9h3.1v18.6h-3.1V718.9z"/>
	<path d="M1124.2,731.6c-0.8,4.1-3.7,6.3-8,6.3c-5.9,0-8.7-4.1-8.9-9.8c0-5.6,3.7-9.7,8.7-9.7c6.6,0,8.6,6.2,8.4,10.7h-13.9
		c-0.1,3.2,1.7,6.1,5.8,6.1c2.6,0,4.3-1.2,4.8-3.6H1124.2z M1121.3,726.4c-0.2-2.9-2.3-5.3-5.4-5.3c-3.2,0-5.1,2.4-5.3,5.3H1121.3z"
		/>
	<path d="M1127.7,718.9h2.9v3h0.1c1.3-2.3,3.3-3.4,6-3.4c4.9,0,6.4,2.8,6.4,6.8v12.2h-3.1v-12.6c0-2.3-1.4-3.7-3.8-3.7
		c-3.7,0-5.5,2.5-5.5,5.8v10.5h-3.1V718.9z"/>
	<path d="M1151.9,718.9h3.7v2.7h-3.7v11.6c0,1.4,0.4,1.7,2.3,1.7h1.4v2.7h-2.3c-3.2,0-4.4-0.6-4.4-4.1v-11.8h-3.2v-2.7h3.2v-5.6h3.1
		V718.9z"/>
	<path d="M1169.1,718.9h3.1v2.5h0.1c1-2.1,3.3-3,5.9-3c5.7,0,8.6,4.5,8.6,9.8c0,5.3-2.8,9.7-8.5,9.7c-1.9,0-4.7-0.7-6-2.9h-0.1v9.6
		h-3.1V718.9z M1177.8,721.2c-4.1,0-5.7,3.6-5.7,7c0,3.6,1.7,7.1,5.9,7.1c4.2,0,5.6-3.6,5.6-7.2
		C1183.5,724.5,1181.7,721.2,1177.8,721.2z"/>
	<path d="M1190.3,718.9h2.9v3.9h0.1c1.5-3,3.5-4.5,6.8-4.4v3.2c-4.9,0-6.7,2.8-6.7,7.5v8.3h-3.1V718.9z"/>
	<path d="M1210.4,718.5c5.9,0,9,4.3,9,9.8c0,5.4-3.1,9.7-9,9.7s-9-4.3-9-9.7C1201.4,722.7,1204.5,718.5,1210.4,718.5z M1210.4,735.2
		c3.2,0,5.8-2.5,5.8-7c0-4.5-2.6-7.1-5.8-7.1c-3.2,0-5.8,2.6-5.8,7.1C1204.6,732.7,1207.2,735.2,1210.4,735.2z"/>
	<path d="M1239.7,737.5h-3.1V735h-0.1c-1,2.1-3.3,3-5.9,3c-5.7,0-8.6-4.5-8.6-9.8c0-5.3,2.8-9.7,8.5-9.7c1.9,0,4.7,0.7,6,2.9h0.1
		v-9.6h3.1V737.5z M1231,735.2c4.1,0,5.7-3.6,5.7-7c0-3.6-1.7-7.1-5.9-7.1c-4.2,0-5.6,3.6-5.6,7.2
		C1225.3,731.8,1227.1,735.2,1231,735.2z"/>
	<path d="M1259.8,737.5h-2.9v-3h-0.1c-1.3,2.3-3.3,3.4-6,3.4c-4.9,0-6.4-2.8-6.4-6.8v-12.2h3.1v12.6c0,2.3,1.4,3.7,3.8,3.7
		c3.7,0,5.5-2.5,5.5-5.8v-10.5h3.1V737.5z"/>
	<path d="M1277,724.9c-0.5-2.3-2.1-3.7-4.6-3.7c-4.4,0-5.8,3.5-5.8,7.3c0,3.5,1.5,6.8,5.4,6.8c3,0,4.7-1.7,5.1-4.5h3.1
		c-0.7,4.6-3.5,7.2-8.2,7.2c-5.7,0-8.7-3.9-8.7-9.5c0-5.6,2.9-10,8.8-10c4.2,0,7.6,2,8,6.4H1277z"/>
	<path d="M1288,718.9h3.7v2.7h-3.7v11.6c0,1.4,0.4,1.7,2.3,1.7h1.4v2.7h-2.3c-3.2,0-4.4-0.6-4.4-4.1v-11.8h-3.2v-2.7h3.2v-5.6h3.1
		V718.9z"/>
	<path d="M1298.3,715.5h-3.1v-3.7h3.1V715.5z M1295.2,718.9h3.1v18.6h-3.1V718.9z"/>
	<path d="M1311.1,718.5c5.9,0,9,4.3,9,9.8c0,5.4-3.1,9.7-9,9.7s-9-4.3-9-9.7C1302.1,722.7,1305.2,718.5,1311.1,718.5z M1311.1,735.2
		c3.2,0,5.8-2.5,5.8-7c0-4.5-2.6-7.1-5.8-7.1c-3.2,0-5.8,2.6-5.8,7.1C1305.3,732.7,1307.9,735.2,1311.1,735.2z"/>
	<path d="M1323.7,718.9h2.9v3h0.1c1.3-2.3,3.3-3.4,6-3.4c4.9,0,6.4,2.8,6.4,6.8v12.2h-3.1v-12.6c0-2.3-1.4-3.7-3.8-3.7
		c-3.7,0-5.5,2.5-5.5,5.8v10.5h-3.1V718.9z"/>
	<path d="M652.9,774.8c-0.8,4.1-3.7,6.3-8,6.3c-5.9,0-8.7-4.1-8.9-9.8c0-5.6,3.7-9.7,8.7-9.7c6.6,0,8.6,6.2,8.4,10.7h-13.9
		c-0.1,3.2,1.7,6.1,5.8,6.1c2.6,0,4.3-1.2,4.8-3.6H652.9z M649.9,769.6c-0.2-2.9-2.3-5.3-5.4-5.3c-3.2,0-5.1,2.4-5.3,5.3H649.9z"/>
	<path d="M656.3,762.1h2.9v3h0.1c1.3-2.3,3.3-3.4,6-3.4c4.9,0,6.4,2.8,6.4,6.8v12.2h-3.1v-12.6c0-2.3-1.4-3.7-3.8-3.7
		c-3.7,0-5.5,2.5-5.5,5.8v10.5h-3.1V762.1z"/>
	<path d="M684.7,780.7h-3.3l-6.9-18.6h3.4l5.2,15.5h0.1l5.1-15.5h3.2L684.7,780.7z"/>
	<path d="M697.6,758.7h-3.1V755h3.1V758.7z M694.5,762.1h3.1v18.6h-3.1V762.1z"/>
	<path d="M702.2,762.1h2.9v3.9h0.1c1.5-3,3.5-4.5,6.8-4.4v3.2c-4.9,0-6.7,2.8-6.7,7.5v8.3h-3.1V762.1z"/>
	<path d="M722.4,761.7c5.9,0,9,4.3,9,9.8c0,5.4-3.1,9.7-9,9.7s-9-4.3-9-9.7C713.3,765.9,716.5,761.7,722.4,761.7z M722.4,778.4
		c3.2,0,5.8-2.5,5.8-7s-2.6-7.1-5.8-7.1s-5.8,2.6-5.8,7.1S719.2,778.4,722.4,778.4z"/>
	<path d="M735,762.1h2.9v3h0.1c1.3-2.3,3.3-3.4,6-3.4c4.9,0,6.4,2.8,6.4,6.8v12.2h-3.1v-12.6c0-2.3-1.4-3.7-3.8-3.7
		c-3.7,0-5.5,2.5-5.5,5.8v10.5H735V762.1z"/>
	<path d="M755,762.1h2.9v2.7h0.1c1.4-2.1,3.4-3.2,6-3.2c2.3,0,4.4,0.9,5.1,3.2c1.3-2,3.4-3.2,5.8-3.2c3.7,0,6.2,1.5,6.2,5.4v13.6
		H778v-12.2c0-2.3-0.6-4.1-3.6-4.1s-4.9,1.9-4.9,4.8v11.6h-3.1v-12.2c0-2.4-0.8-4.1-3.5-4.1c-3.6,0-5,3.3-5,4.8v11.6H755V762.1z"/>
	<path d="M801.6,774.8c-0.8,4.1-3.7,6.3-8,6.3c-5.9,0-8.7-4.1-8.9-9.8c0-5.6,3.7-9.7,8.7-9.7c6.6,0,8.6,6.2,8.4,10.7H788
		c-0.1,3.2,1.7,6.1,5.8,6.1c2.6,0,4.3-1.2,4.8-3.6H801.6z M798.6,769.6c-0.2-2.9-2.3-5.3-5.4-5.3c-3.2,0-5.1,2.4-5.3,5.3H798.6z"/>
	<path d="M805.1,762.1h2.9v3h0.1c1.3-2.3,3.3-3.4,6-3.4c4.9,0,6.4,2.8,6.4,6.8v12.2h-3.1v-12.6c0-2.3-1.4-3.7-3.8-3.7
		c-3.7,0-5.5,2.5-5.5,5.8v10.5h-3.1V762.1z"/>
	<path d="M829.3,762.1h3.7v2.7h-3.7v11.6c0,1.4,0.4,1.7,2.3,1.7h1.4v2.7h-2.3c-3.2,0-4.4-0.6-4.4-4.1v-11.8h-3.2v-2.7h3.2v-5.6h3.1
		V762.1z"/>
</g>
<g>
	<circle class="st7" cx="1495.5" cy="697" r="63.6"/>
	<g>
		<path class="st10" d="M1486.2,683.8h18.5l2,21.1c0.1,1.5,1.4,2.6,3,2.6l0.4,0l-2.3,7.9l-24.6-1.9l-1.8-6l0.7-0.1
			c1.4-0.2,2.5-1.3,2.6-2.6L1486.2,683.8z"/>
		<path class="st11" d="M1495.6,714.5l-12.5-1l-1.8-6l0.7-0.1c1.4-0.2,2.5-1.3,2.6-2.6l1.2-14.9h9.9L1495.6,714.5L1495.6,714.5z"/>
		<path class="st12" d="M1486.2,683.8h18.5l1.5,15.9c-0.3,0.6-0.6,0.9-0.9,1.4c-2.7,3.7-6.2,6.3-9.6,6.3c-3.4,0-6.9-2.5-9.6-6.3
			c-0.4-0.6-0.7-1-1.1-1.6L1486.2,683.8z"/>
		<path class="st14" d="M1495.6,701.9c-4.3,0-8.7-2.8-11.9-6.9c-3.2-4.1-5.3-9.4-5.3-14.6v-0.1l0-0.1c0-0.3,0-0.7,0-1
			c0-12.5-2.3-22.6,17.2-22.6s17.2,10.1,17.2,22.6c0,0.3,0,0.7,0,1l0,0.1v0.1c0,5.2-2.1,10.6-5.3,14.6
			C1504.2,699.1,1499.9,701.9,1495.6,701.9z"/>
		<path class="st13" d="M1498.6,711.9h-5.8l-8.4-6.4l-3.2,2.1c-10.3,2.1-18.2,6.7-18.2,13.6c0,3.4,0,6.8,0,10.3c0,2.8,2.4,5,5.4,5
			h10h13.6h7.3h11.9h11.6c3,0,5.4-2.3,5.4-5l0-10.3c0-7-7.9-11.5-18.2-13.6l-3.1-2L1498.6,711.9z"/>
		<polygon class="st17" points="1498.6,711.9 1492.8,711.9 1484.4,705.5 1481.2,707.6 1497.9,724.9 1499.3,736.5 1500,736.5 
			1498.3,720.4 1511.1,707.8 1509.9,707.6 1506.8,705.5 		"/>
		<path class="st15" d="M1484.1,697.3c3.2,4.1,7.4,6.9,11.5,6.9c4.1,0,8.3-2.8,11.5-6.9c3.3-4.2,5.6-9.8,5.6-15.2l-1.1-4.3
			c-0.4-1.5-0.4-3-0.5-4.3c0-1.8-0.1-3.4-1.1-4.8c-1.7-2.2-4.3-1.5-7.5-0.6c-2.1,0.6-4.4,1.2-6.9,1.2s-4.8-0.6-6.9-1.2h0
			c-3.1-0.8-5.8-1.5-7.4,0.6c-1,1.3-1.1,3-1.1,4.8c0,1.4-0.1,2.8-0.5,4.3l-1.1,4.3C1478.5,687.5,1480.7,693,1484.1,697.3z"/>
		<path class="st16" d="M1484.1,697.3c3.2,4.1,7.4,6.9,11.5,6.9v-35c-2.5,0-4.8-0.6-6.9-1.2h0c-3.1-0.8-5.8-1.5-7.4,0.6
			c-1,1.3-1.1,3-1.1,4.8c0,1.4-0.1,2.8-0.5,4.3l-1.1,4.3C1478.5,687.5,1480.7,693,1484.1,697.3z"/>
		<path class="st19" d="M1492,736.5h7.2c-0.8-6.4-1.6-11.5-2.3-17.9c0-0.4,0.1-0.6,0.2-1l1.9-4.8c0.1-0.2,0.1-0.4,0-0.6
			c-0.1-0.2-0.3-0.3-0.6-0.3c-1.9,0-3.9,0-5.8,0c-0.2,0-0.5,0.1-0.6,0.3c-0.1,0.2-0.1,0.4,0,0.6l1.9,4.8c0.2,0.3,0.3,0.6,0.2,1
			C1493.6,725,1492.8,730.1,1492,736.5z"/>
		<path class="st14" d="M1496.9,718.6c0-0.4,0.1-0.6,0.2-1l1.9-4.8c0.1-0.2,0.1-0.4,0-0.6c-0.1-0.2-0.3-0.3-0.6-0.3
			c-1.9,0-3.9,0-5.8,0c-0.2,0-0.5,0.1-0.6,0.3c-0.1,0.2-0.1,0.4,0,0.6l1.9,4.8c0.2,0.3,0.3,0.6,0.2,1l-0.3,2.4l3.5,3L1496.9,718.6z"
			/>
		<polygon class="st13" points="1495.7,711.9 1484.4,705.5 1481.2,707.6 1492.2,718.1 		"/>
		<polygon class="st13" points="1495.7,711.9 1506.8,705.5 1510,707.6 1499.1,718.1 		"/>
		<path class="st14" d="M1463,721.2c0,3.4,0,6.8,0,10.3c0,2.8,2.4,5,5.4,5h26.2l-2.1-3.8c-5.1-9.3-8.1-13.3-11.3-25.2
			C1470.9,709.7,1463,714.2,1463,721.2L1463,721.2z M1496.5,736.5h26.2c3,0,5.4-2.3,5.4-5l0-10.3c0-7-7.9-11.5-18.2-13.6
			c-3.2,11.7-6.1,15.7-11.2,24.9L1496.5,736.5z"/>
	</g>
	<g>
		<rect x="1578.2" y="651.1" class="st4" width="288" height="77.8"/>
		<path d="M1580.7,651.1h13.9c4.6,0,7.5,3.2,7.5,7.1c0,3-1.2,5.3-4.1,6.4v0.1c2.8,0.8,3.6,3.4,3.7,6c0.1,1.6,0,4.7,1.1,6.1h-5.7
			c-0.6-1.6-0.6-4.1-0.9-6.2c-0.4-2.7-1.4-3.9-4.3-3.9h-5.7v10h-5.7V651.1z M1586.4,662.7h6.2c2.6,0,3.9-1.1,3.9-3.7
			c0-2.5-1.3-3.6-3.9-3.6h-6.2V662.7z"/>
		<path d="M1610.4,668.7c0.1,3.3,1.7,4.7,4.6,4.7c2.1,0,3.7-1.3,4-2.4h4.5c-1.4,4.4-4.5,6.3-8.7,6.3c-5.9,0-9.5-4-9.5-9.8
			c0-5.6,3.9-9.8,9.5-9.8c6.3,0,9.4,5.3,9,11.1H1610.4z M1618.7,665.5c-0.5-2.6-1.6-4-4.1-4c-3.3,0-4.1,2.5-4.2,4H1618.7z"/>
		<path d="M1637.1,676.8h-5.7l-6.4-18.6h5.4l3.9,12.7h0.1l3.9-12.7h5.1L1637.1,676.8z"/>
		<path d="M1650.8,655.3h-5.1v-4.2h5.1V655.3z M1645.7,658.2h5.1v18.6h-5.1V658.2z"/>
		<path d="M1659,668.7c0.1,3.3,1.7,4.7,4.6,4.7c2.1,0,3.7-1.3,4-2.4h4.5c-1.4,4.4-4.5,6.3-8.7,6.3c-5.9,0-9.5-4-9.5-9.8
			c0-5.6,3.9-9.8,9.5-9.8c6.3,0,9.4,5.3,9,11.1H1659z M1667.3,665.5c-0.5-2.6-1.6-4-4.1-4c-3.3,0-4.1,2.5-4.2,4H1667.3z"/>
		<path d="M1696.8,676.8h-5.3l-3.3-12.5h-0.1l-3.2,12.5h-5.3l-5.9-18.6h5.4l3.4,12.6h0.1l3.1-12.6h5l3.2,12.6h0.1l3.4-12.6h5.3
			L1696.8,676.8z"/>
		<path d="M1580.7,694.3h5.7V720h-5.7V694.3z"/>
		<path d="M1590.8,701.4h4.9v2.6h0.1c1.3-2.1,3.5-3.1,5.7-3.1c5.4,0,6.8,3.1,6.8,7.7V720h-5.1v-10.5c0-3.1-0.9-4.6-3.3-4.6
			c-2.8,0-4,1.5-4,5.3v9.8h-5.1V701.4z"/>
		<path d="M1625.4,717.6L1625.4,717.6c-1.3,2-3.3,2.9-5.7,2.9c-5.6,0-8.4-4.8-8.4-10c0-5,2.8-9.6,8.2-9.6c2.2,0,4.4,0.9,5.5,2.8h0.1
			v-9.4h5.1V720h-4.9V717.6z M1620.9,704.7c-3.3,0-4.5,2.9-4.5,5.9c0,2.9,1.3,6,4.5,6c3.3,0,4.4-3,4.4-6
			C1625.3,707.6,1624.3,704.7,1620.9,704.7z"/>
		<path d="M1639.4,698.5h-5.1v-4.2h5.1V698.5z M1634.3,701.4h5.1V720h-5.1V701.4z"/>
		<path d="M1653.7,720h-5.7l-6.4-18.6h5.4l3.9,12.7h0.1l3.9-12.7h5.1L1653.7,720z"/>
		<path d="M1667.4,698.5h-5.1v-4.2h5.1V698.5z M1662.3,701.4h5.1V720h-5.1V701.4z"/>
		<path d="M1684.7,717.6L1684.7,717.6c-1.3,2-3.3,2.9-5.7,2.9c-5.6,0-8.4-4.8-8.4-10c0-5,2.8-9.6,8.2-9.6c2.2,0,4.4,0.9,5.5,2.8h0.1
			v-9.4h5.1V720h-4.9V717.6z M1680.2,704.7c-3.3,0-4.5,2.9-4.5,5.9c0,2.9,1.3,6,4.5,6c3.3,0,4.4-3,4.4-6
			C1684.6,707.6,1683.5,704.7,1680.2,704.7z"/>
		<path d="M1710.9,720h-4.9v-2.6h-0.1c-1.3,2.1-3.5,3.1-5.7,3.1c-5.4,0-6.8-3.1-6.8-7.7v-11.4h5.1v10.5c0,3.1,0.9,4.6,3.3,4.6
			c2.8,0,4-1.5,4-5.3v-9.8h5.1V720z"/>
		<path d="M1714.5,707.1c0.3-4.8,4.6-6.2,8.7-6.2c3.7,0,8.2,0.8,8.2,5.3v9.7c0,1.7,0.2,3.4,0.6,4.1h-5.2c-0.2-0.6-0.3-1.2-0.4-1.8
			c-1.6,1.7-4,2.3-6.3,2.3c-3.6,0-6.3-1.8-6.3-5.6c0.1-8.5,12.6-3.9,12.4-8.1c0-2.2-1.5-2.5-3.3-2.5c-2,0-3.2,0.8-3.4,2.8H1714.5z
			 M1726.4,710.9c-0.9,0.8-2.7,0.8-4.2,1.1c-1.6,0.3-3,0.9-3,2.7s1.5,2.4,3.1,2.4c4,0,4.1-3.1,4.1-4.3V710.9z"/>
		<path d="M1735.6,694.3h5.1V720h-5.1V694.3z"/>
	</g>
</g>
<g>
	<g>
		<line class="st20" x1="316.5" y1="247.6" x2="316.5" y2="365.8"/>
		<g>
			<polygon class="st7" points="304.2,355.8 306.4,353.8 316.5,364.6 326.5,353.8 328.7,355.8 316.5,369 			"/>
		</g>
	</g>
</g>
<g>
	<g>
		<line class="st20" x1="316.5" y1="516" x2="316.5" y2="634.1"/>
		<g>
			<polygon class="st7" points="304.2,624.2 306.4,622.1 316.5,633 326.5,622.1 328.7,624.2 316.5,637.4 			"/>
		</g>
	</g>
</g>
<path class="st7" d="M185.6,193.5c0,30-24.3,54.3-54.3,54.3c-30,0-54.3-24.3-54.3-54.3c0-30,24.3-54.3,54.3-54.3
	C161.3,139.3,185.6,163.6,185.6,193.5"/>
<path class="st7" d="M185.6,461.2c0,30-24.3,54.3-54.3,54.3c-30,0-54.3-24.3-54.3-54.3c0-30,24.3-54.3,54.3-54.3
	C161.3,406.9,185.6,431.2,185.6,461.2"/>
<path class="st7" d="M185.6,717.9c0,30-24.3,54.3-54.3,54.3c-30,0-54.3-24.3-54.3-54.3c0-30,24.3-54.3,54.3-54.3
	C161.3,663.7,185.6,688,185.6,717.9"/>
<g>
	<path class="st21" d="M160.9,225.8c0,2.9-2.3,5.2-5.2,5.2h-48.4c-2.9,0-5.2-2.3-5.2-5.2v-58.7c0-2.9,2.3-5.2,5.2-5.2h48.4
		c2.9,0,5.2,2.3,5.2,5.2V225.8z"/>
	<path class="st5" d="M157.1,222c0,2.5-2,4.5-4.5,4.5h-42.2c-2.5,0-4.5-2-4.5-4.5v-51.2c0-2.5,2-4.5,4.5-4.5h42.2
		c2.5,0,4.5,2,4.5,4.5V222z"/>
	<path class="st22" d="M124.8,184.7c0,1.8-1.4,3.2-3.2,3.2h-6.4c-1.8,0-3.2-1.4-3.2-3.2v-6.4c0-1.8,1.4-3.2,3.2-3.2h6.4
		c1.8,0,3.2,1.4,3.2,3.2V184.7z"/>
	<path class="st22" d="M124.8,199.6c0,1.8-1.4,3.2-3.2,3.2h-6.4c-1.8,0-3.2-1.4-3.2-3.2v-6.4c0-1.8,1.4-3.2,3.2-3.2h6.4
		c1.8,0,3.2,1.4,3.2,3.2V199.6z"/>
	<path class="st22" d="M124.8,214.6c0,1.8-1.4,3.2-3.2,3.2h-6.4c-1.8,0-3.2-1.4-3.2-3.2v-6.4c0-1.8,1.4-3.2,3.2-3.2h6.4
		c1.8,0,3.2,1.4,3.2,3.2V214.6z"/>
	<path class="st23" d="M138.9,160h-0.5c-0.5,0-1-0.4-1-1v0c0-1.3-1.1-2.4-2.4-2.4h-6.9c-1.3,0-2.4,1.1-2.4,2.4v0c0,0.5-0.4,1-1,1
		h-0.5c-4.1,0-7.3,3.3-7.3,7.3v0.1c0,1.3,1.1,2.4,2.4,2.4h24.7c1.3,0,2.4-1.1,2.4-2.4v-0.1C146.2,163.3,142.9,160,138.9,160z
		 M131.5,160.6c-0.9,0-1.6-0.7-1.6-1.6c0-0.9,0.7-1.6,1.6-1.6c0.9,0,1.6,0.7,1.6,1.6C133.1,159.9,132.4,160.6,131.5,160.6z"/>
</g>
<polygon class="st24" points="105.5,436.2 165.9,456.5 145.3,467.7 162.7,485.1 154.3,493.5 136.9,476.1 125.7,496.7 "/>
<polygon class="st25" points="105.5,431.2 165.9,451.5 145.3,462.7 162.7,480.1 158.5,484.3 "/>
<g>
	<path class="st26" d="M107.9,697.1l48.4,0c2,0,3.6,1.6,3.6,3.6l0,29.8c0,2-1.6,3.6-3.6,3.6l-48.4,0c-2,0-3.6-1.6-3.6-3.6l0-29.8
		C104.3,698.7,105.9,697.1,107.9,697.1z"/>
	<path class="st27" d="M108.5,699.7l12.5,0l34.6,0c0.9,0,1.6,0.7,1.6,1.6l0,28.5c0,0.9-0.7,1.6-1.6,1.6l-39,0h-8.1
		c-0.9,0-1.6-0.7-1.6-1.6l0-28.5C106.9,700.5,107.6,699.7,108.5,699.7z"/>
	<path class="st28" d="M164.5,734.1l-64.7,0v0.1c0,2.3,1.8,4.1,4.1,4.1l56.5,0c2.3,0,4.1-1.8,4.1-4.1V734.1z"/>
	<rect x="125" y="734.1" class="st29" width="14.3" height="0.7"/>
	<path class="st27" d="M132.1,699.8l0,31.7l-23.6,0c-0.9,0-1.6-0.7-1.6-1.6l0-28.5c0-0.9,0.7-1.6,1.6-1.6l12.5,0L132.1,699.8z"/>
	<rect x="115.4" y="706.9" class="st24" width="33.3" height="19.9"/>
	<rect x="115.4" y="704" class="st30" width="33.3" height="2.9"/>
	<path class="st31" d="M123.9,711.6L123.9,711.6c0.4,0,0.8,0.4,0.8,0.8l0,0c0,0.4-0.4,0.8-0.8,0.8l0,0c-0.4,0-0.8-0.4-0.8-0.8l0,0
		C123.1,712,123.4,711.6,123.9,711.6z"/>
	<path class="st32" d="M123.9,716L123.9,716c0.4,0,0.8,0.4,0.8,0.8l0,0c0,0.4-0.4,0.8-0.8,0.8l0,0c-0.4,0-0.8-0.4-0.8-0.8l0,0
		C123.1,716.4,123.4,716,123.9,716z"/>
	<path class="st33" d="M123.9,720.7L123.9,720.7c0.4,0,0.8,0.4,0.8,0.8l0,0c0,0.4-0.4,0.8-0.8,0.8l0,0c-0.4,0-0.8-0.4-0.8-0.8l0,0
		C123.1,721,123.4,720.7,123.9,720.7z"/>
	<rect x="126.4" y="712" class="st34" width="12.7" height="0.8"/>
	<rect x="126.4" y="716.4" class="st34" width="13.7" height="0.8"/>
	<rect x="126.4" y="721.1" class="st34" width="10.8" height="0.8"/>
</g>
</svg>
