<?xml version="1.0" encoding="utf-8"?>
<!-- Generator: Adobe Illustrator 19.2.0, SVG Export Plug-In . SVG Version: 6.00 Build 0)  -->
<svg version="1.1" id="Layer_1" xmlns="http://www.w3.org/2000/svg" xmlns:xlink="http://www.w3.org/1999/xlink" x="0px" y="0px"
	 viewBox="0 0 2048 1000" style="enable-background:new 0 0 2048 1000;" xml:space="preserve">
<style type="text/css">
	.st0{fill:#B9E5FB;}
	.st1{fill:#4EA8DE;}
	.st2{fill:#116BB4;}
	.st3{fill:#FFFFFF;}
	.st4{fill:#2C5871;}
	.st5{fill:#D1ECFB;}
	.st6{fill:none;stroke:#343636;stroke-width:3.5217;stroke-miterlimit:10;}
	.st7{fill:#333333;}
	.st8{fill:none;stroke:#4EA8DE;stroke-width:2;stroke-miterlimit:10;}
	.st9{enable-background:new    ;}
	.st10{fill:none;stroke:#343636;stroke-width:4.9065;stroke-miterlimit:10;}
	.st11{fill:none;}
	.st12{fill:#EFEFF0;}
	.st13{fill:#89C240;}
	.st14{fill:#8CC63F;}
	.st15{fill:#173E68;}
	.st16{clip-path:url(#SVGID_2_);fill:#E3CCA4;}
	.st17{clip-path:url(#SVGID_2_);fill:#D4C5A3;}
	.st18{clip-path:url(#SVGID_2_);fill:#CCBC97;}
	.st19{clip-path:url(#SVGID_2_);fill:#2C3E50;}
	.st20{clip-path:url(#SVGID_2_);fill:#ECF0F1;}
	.st21{clip-path:url(#SVGID_2_);fill:#FFE7BD;}
	.st22{clip-path:url(#SVGID_2_);fill:#DAE1E6;}
	.st23{clip-path:url(#SVGID_2_);fill:#E8D6AC;}
	.st24{clip-path:url(#SVGID_2_);fill:#B3B3B3;}
</style>
<rect class="st0" width="2048" height="1000"/>
<rect class="st1" width="1012.9" height="1000"/>
<rect x="1013" y="672" class="st2" width="1035" height="328"/>
<g>
	<g>
		<g>
			<polygon class="st3" points="1988.4,604.8 1988.4,528.7 1988.4,332.2 1833.4,191.5 1078,191.5 1078,604.8 			"/>
			<g>
				<polygon class="st4" points="1833.4,332.2 1988.4,332.2 1833.4,191.5 				"/>
				<polygon class="st5" points="1988.4,332.2 1833.4,332.2 1988.4,473 				"/>
			</g>
		</g>
	</g>
</g>
<line class="st6" x1="1053.4" y1="54" x2="2025.4" y2="54"/>
<g>
	<g>
		<path class="st7" d="M1163.4,355.6c-0.7-3.5-3.5-5.3-7-5.3c-6,0-8.5,4.9-8.5,10.1c0,5.7,2.5,10.5,8.5,10.5c4.3,0,6.9-3.1,7.2-7.2
			h3.3c-0.7,6.3-4.5,10-10.8,10c-7.7,0-11.6-5.7-11.6-13s4.1-13.2,11.8-13.2c5.2,0,9.6,2.8,10.3,8.1H1163.4z"/>
		<path class="st7" d="M1170.8,348.1h3v25h-3V348.1z"/>
		<path class="st7" d="M1181.5,351.7h-3v-3.6h3V351.7z M1178.5,355h3V373h-3V355z"/>
		<path class="st7" d="M1201.6,367.3c-0.8,4-3.6,6.2-7.7,6.2c-5.8,0-8.5-4-8.7-9.5c0-5.5,3.6-9.4,8.5-9.4c6.4,0,8.4,6,8.2,10.4
			h-13.5c-0.1,3.2,1.7,6,5.6,6c2.5,0,4.2-1.2,4.7-3.5H1201.6z M1198.7,362.3c-0.2-2.8-2.2-5.1-5.2-5.1c-3.1,0-5,2.3-5.2,5.1H1198.7z
			"/>
		<path class="st7" d="M1204.9,355h2.8v2.9h0.1c1.3-2.2,3.3-3.3,5.9-3.3c4.8,0,6.2,2.7,6.2,6.6V373h-3v-12.3c0-2.2-1.4-3.6-3.7-3.6
			c-3.6,0-5.4,2.4-5.4,5.7V373h-3V355z"/>
		<path class="st7" d="M1228.5,355h3.6v2.6h-3.6v11.2c0,1.4,0.4,1.6,2.2,1.6h1.4v2.6h-2.3c-3.1,0-4.3-0.6-4.3-4v-11.5h-3.1V355h3.1
			v-5.4h3V355z"/>
		<path class="st7" d="M1247,367.3c0.1,2.7,2.5,3.5,4.9,3.5c1.9,0,4.4-0.4,4.4-2.7c0-4.7-11.8-1.5-11.8-8.5c0-3.6,3.6-5.1,6.8-5.1
			c4.1,0,7.1,1.3,7.4,5.7h-3c-0.2-2.3-2.3-3-4.2-3c-1.8,0-3.9,0.5-3.9,2.3c0,2.1,3.2,2.5,5.9,3.2c3,0.7,5.9,1.7,5.9,5.1
			c0,4.3-4,5.7-7.7,5.7c-4.1,0-7.5-1.6-7.7-6.1H1247z"/>
		<path class="st7" d="M1262.7,355h3v2.5h0.1c1-2,3.3-2.9,5.8-2.9c5.6,0,8.3,4.4,8.3,9.5c0,5.1-2.7,9.4-8.3,9.4
			c-1.8,0-4.6-0.7-5.8-2.8h-0.1v9.3h-3V355z M1271.1,357.2c-4,0-5.5,3.5-5.5,6.8c0,3.5,1.6,6.9,5.7,6.9c4.1,0,5.4-3.5,5.4-7
			C1276.7,360.4,1275,357.2,1271.1,357.2z"/>
		<path class="st7" d="M1298.8,367.3c-0.8,4-3.6,6.2-7.7,6.2c-5.8,0-8.5-4-8.7-9.5c0-5.5,3.6-9.4,8.5-9.4c6.4,0,8.4,6,8.2,10.4
			h-13.5c-0.1,3.2,1.7,6,5.6,6c2.5,0,4.2-1.2,4.7-3.5H1298.8z M1296,362.3c-0.2-2.8-2.2-5.1-5.2-5.1c-3.1,0-5,2.3-5.2,5.1H1296z"/>
		<path class="st7" d="M1314.5,360.8c-0.5-2.3-2-3.6-4.5-3.6c-4.3,0-5.6,3.4-5.6,7.1c0,3.4,1.5,6.6,5.3,6.6c2.9,0,4.6-1.6,5-4.4h3
			c-0.7,4.4-3.4,7-8,7c-5.5,0-8.5-3.8-8.5-9.2c0-5.4,2.8-9.7,8.5-9.7c4.1,0,7.4,1.9,7.8,6.2H1314.5z"/>
		<path class="st7" d="M1324.1,351.7h-3v-3.6h3V351.7z M1321.2,355h3V373h-3V355z"/>
		<path class="st7" d="M1330,357.6h-3V355h3v-2.7c0-2.9,1.8-4.5,5-4.5c0.6,0,1.4,0.1,1.9,0.3v2.6c-0.5-0.2-1.2-0.2-1.7-0.2
			c-1.4,0-2.3,0.5-2.3,2v2.5h3.5v2.6h-3.5V373h-3V357.6z M1339.3,351.7v-3.6h3v3.6H1339.3z M1339.3,373V355h3V373H1339.3z"/>
		<path class="st7" d="M1359.2,360.8c-0.5-2.3-2-3.6-4.5-3.6c-4.3,0-5.6,3.4-5.6,7.1c0,3.4,1.5,6.6,5.3,6.6c2.9,0,4.6-1.6,5-4.4h3
			c-0.7,4.4-3.4,7-8,7c-5.5,0-8.5-3.8-8.5-9.2c0-5.4,2.8-9.7,8.5-9.7c4.1,0,7.4,1.9,7.8,6.2H1359.2z"/>
		<path class="st7" d="M1378.6,351.7h-3v-3.6h3V351.7z M1375.6,355h3V373h-3V355z"/>
		<path class="st7" d="M1383.2,355h2.8v2.9h0.1c1.3-2.2,3.3-3.3,5.9-3.3c4.8,0,6.2,2.7,6.2,6.6V373h-3v-12.3c0-2.2-1.4-3.6-3.7-3.6
			c-3.6,0-5.4,2.4-5.4,5.7V373h-3V355z"/>
		<path class="st7" d="M1404.5,367.3c0.1,2.7,2.5,3.5,4.9,3.5c1.9,0,4.4-0.4,4.4-2.7c0-4.7-11.8-1.5-11.8-8.5c0-3.6,3.6-5.1,6.8-5.1
			c4.1,0,7.1,1.3,7.4,5.7h-3c-0.2-2.3-2.3-3-4.2-3c-1.8,0-3.9,0.5-3.9,2.3c0,2.1,3.2,2.5,5.9,3.2c3,0.7,5.9,1.7,5.9,5.1
			c0,4.3-4,5.7-7.7,5.7c-4.1,0-7.5-1.6-7.7-6.1H1404.5z"/>
		<path class="st7" d="M1424.3,355h3.6v2.6h-3.6v11.2c0,1.4,0.4,1.6,2.2,1.6h1.4v2.6h-2.3c-3.1,0-4.3-0.6-4.3-4v-11.5h-3.1V355h3.1
			v-5.4h3V355z"/>
		<path class="st7" d="M1447.2,373c-0.5,0.3-1.3,0.5-2.1,0.5c-1.5,0-2.5-0.8-2.5-2.8c-1.6,2-3.9,2.8-6.4,2.8c-3.3,0-6-1.4-6-5.1
			c0-4.1,3-5,6.1-5.6c3.3-0.7,6.1-0.4,6.1-2.7c0-2.6-2.2-3-4-3c-2.5,0-4.4,0.8-4.5,3.4h-3c0.2-4.5,3.6-6.1,7.7-6.1
			c3.3,0,6.8,0.7,6.8,5v9.3c0,1.4,0,2,0.9,2c0.3,0,0.6-0.1,0.9-0.2V373z M1442.4,363.7c-2.3,1.7-9,0-9,4.5c0,2,1.7,2.7,3.5,2.7
			c3.9,0,5.5-2.4,5.5-4.1V363.7z"/>
		<path class="st7" d="M1450.1,348.1h3v25h-3V348.1z"/>
		<path class="st7" d="M1457.9,348.1h3v25h-3V348.1z"/>
		<path class="st7" d="M1481.5,373c-0.5,0.3-1.3,0.5-2.1,0.5c-1.5,0-2.5-0.8-2.5-2.8c-1.6,2-3.9,2.8-6.4,2.8c-3.3,0-6-1.4-6-5.1
			c0-4.1,3-5,6.1-5.6c3.3-0.7,6.1-0.4,6.1-2.7c0-2.6-2.2-3-4-3c-2.5,0-4.4,0.8-4.5,3.4h-3c0.2-4.5,3.6-6.1,7.7-6.1
			c3.3,0,6.8,0.7,6.8,5v9.3c0,1.4,0,2,0.9,2c0.3,0,0.6-0.1,0.9-0.2V373z M1476.7,363.7c-2.3,1.7-9,0-9,4.5c0,2,1.7,2.7,3.5,2.7
			c3.9,0,5.5-2.4,5.5-4.1V363.7z"/>
		<path class="st7" d="M1488.4,355h3.6v2.6h-3.6v11.2c0,1.4,0.4,1.6,2.2,1.6h1.4v2.6h-2.3c-3.1,0-4.3-0.6-4.3-4v-11.5h-3.1V355h3.1
			v-5.4h3V355z"/>
		<path class="st7" d="M1498.5,351.7h-3v-3.6h3V351.7z M1495.5,355h3V373h-3V355z"/>
		<path class="st7" d="M1510.9,354.5c5.7,0,8.8,4.2,8.8,9.5c0,5.3-3,9.5-8.8,9.5c-5.7,0-8.8-4.2-8.8-9.5
			C1502.1,358.7,1505.2,354.5,1510.9,354.5z M1510.9,370.8c3.1,0,5.6-2.5,5.6-6.8s-2.5-6.9-5.6-6.9s-5.6,2.5-5.6,6.9
			S1507.8,370.8,1510.9,370.8z"/>
		<path class="st7" d="M1523.2,355h2.8v2.9h0.1c1.3-2.2,3.3-3.3,5.9-3.3c4.8,0,6.2,2.7,6.2,6.6V373h-3v-12.3c0-2.2-1.4-3.6-3.7-3.6
			c-3.6,0-5.4,2.4-5.4,5.7V373h-3V355z"/>
		<path class="st7" d="M1544.5,367.3c0.1,2.7,2.5,3.5,4.9,3.5c1.9,0,4.4-0.4,4.4-2.7c0-4.7-11.8-1.5-11.8-8.5c0-3.6,3.6-5.1,6.8-5.1
			c4.1,0,7.1,1.3,7.4,5.7h-3c-0.2-2.3-2.3-3-4.2-3c-1.8,0-3.9,0.5-3.9,2.3c0,2.1,3.2,2.5,5.9,3.2c3,0.7,5.9,1.7,5.9,5.1
			c0,4.3-4,5.7-7.7,5.7c-4.1,0-7.5-1.6-7.7-6.1H1544.5z"/>
		<path class="st7" d="M1574,355h3.6v2.6h-3.6v11.2c0,1.4,0.4,1.6,2.2,1.6h1.4v2.6h-2.3c-3.1,0-4.3-0.6-4.3-4v-11.5h-3.1V355h3.1
			v-5.4h3V355z"/>
		<path class="st7" d="M1588.7,354.5c5.7,0,8.8,4.2,8.8,9.5c0,5.3-3,9.5-8.8,9.5c-5.7,0-8.8-4.2-8.8-9.5
			C1579.9,358.7,1583,354.5,1588.7,354.5z M1588.7,370.8c3.1,0,5.6-2.5,5.6-6.8s-2.5-6.9-5.6-6.9s-5.6,2.5-5.6,6.9
			S1585.6,370.8,1588.7,370.8z"/>
		<path class="st7" d="M1610.8,355h3v2.5h0.1c1-2,3.3-2.9,5.8-2.9c5.6,0,8.3,4.4,8.3,9.5c0,5.1-2.7,9.4-8.3,9.4
			c-1.8,0-4.6-0.7-5.8-2.8h-0.1v9.3h-3V355z M1619.2,357.2c-4,0-5.5,3.5-5.5,6.8c0,3.5,1.6,6.9,5.7,6.9c4.1,0,5.4-3.5,5.4-7
			C1624.8,360.4,1623.1,357.2,1619.2,357.2z"/>
		<path class="st7" d="M1631.4,355h2.8v3.8h0.1c1.4-2.9,3.4-4.3,6.7-4.2v3.2c-4.8,0-6.5,2.7-6.5,7.3v8.1h-3V355z"/>
		<path class="st7" d="M1658.6,367.3c-0.8,4-3.6,6.2-7.7,6.2c-5.8,0-8.5-4-8.7-9.5c0-5.5,3.6-9.4,8.5-9.4c6.4,0,8.4,6,8.2,10.4
			h-13.5c-0.1,3.2,1.7,6,5.6,6c2.5,0,4.2-1.2,4.7-3.5H1658.6z M1655.7,362.3c-0.2-2.8-2.2-5.1-5.2-5.1c-3.1,0-5,2.3-5.2,5.1H1655.7z
			"/>
		<path class="st7" d="M1662,355h3v2.5h0.1c1-2,3.3-2.9,5.8-2.9c5.6,0,8.3,4.4,8.3,9.5c0,5.1-2.7,9.4-8.3,9.4
			c-1.8,0-4.6-0.7-5.8-2.8h-0.1v9.3h-3V355z M1670.4,357.2c-4,0-5.5,3.5-5.5,6.8c0,3.5,1.6,6.9,5.7,6.9c4.1,0,5.4-3.5,5.4-7
			C1676,360.4,1674.3,357.2,1670.4,357.2z"/>
		<path class="st7" d="M1698.7,373c-0.5,0.3-1.3,0.5-2.1,0.5c-1.5,0-2.5-0.8-2.5-2.8c-1.6,2-3.9,2.8-6.4,2.8c-3.3,0-6-1.4-6-5.1
			c0-4.1,3-5,6.1-5.6c3.3-0.7,6.1-0.4,6.1-2.7c0-2.6-2.2-3-4-3c-2.5,0-4.4,0.8-4.5,3.4h-3c0.2-4.5,3.6-6.1,7.7-6.1
			c3.3,0,6.8,0.7,6.8,5v9.3c0,1.4,0,2,0.9,2c0.3,0,0.6-0.1,0.9-0.2V373z M1693.9,363.7c-2.3,1.7-9,0-9,4.5c0,2,1.7,2.7,3.5,2.7
			c3.9,0,5.5-2.4,5.5-4.1V363.7z"/>
		<path class="st7" d="M1701.4,355h2.8v3.8h0.1c1.4-2.9,3.4-4.3,6.7-4.2v3.2c-4.8,0-6.5,2.7-6.5,7.3v8.1h-3V355z"/>
		<path class="st7" d="M1728.6,367.3c-0.8,4-3.6,6.2-7.7,6.2c-5.8,0-8.5-4-8.7-9.5c0-5.5,3.6-9.4,8.5-9.4c6.4,0,8.4,6,8.2,10.4
			h-13.5c-0.1,3.2,1.7,6,5.6,6c2.5,0,4.2-1.2,4.7-3.5H1728.6z M1725.7,362.3c-0.2-2.8-2.2-5.1-5.2-5.1c-3.1,0-5,2.3-5.2,5.1H1725.7z
			"/>
		<path class="st7" d="M1757.7,373c-0.5,0.3-1.3,0.5-2.1,0.5c-1.5,0-2.5-0.8-2.5-2.8c-1.6,2-3.9,2.8-6.4,2.8c-3.3,0-6-1.4-6-5.1
			c0-4.1,3-5,6.1-5.6c3.3-0.7,6.1-0.4,6.1-2.7c0-2.6-2.2-3-4-3c-2.5,0-4.4,0.8-4.5,3.4h-3c0.2-4.5,3.6-6.1,7.7-6.1
			c3.3,0,6.8,0.7,6.8,5v9.3c0,1.4,0,2,0.9,2c0.3,0,0.6-0.1,0.9-0.2V373z M1752.8,363.7c-2.3,1.7-9,0-9,4.5c0,2,1.7,2.7,3.5,2.7
			c3.9,0,5.5-2.4,5.5-4.1V363.7z"/>
		<path class="st7" d="M1760.4,355h2.8v2.9h0.1c1.3-2.2,3.3-3.3,5.9-3.3c4.8,0,6.2,2.7,6.2,6.6V373h-3v-12.3c0-2.2-1.4-3.6-3.7-3.6
			c-3.6,0-5.4,2.4-5.4,5.7V373h-3V355z"/>
		<path class="st7" d="M1233.9,395.5c7.9,0,12,6.3,12,13.1s-4,13.1-12,13.1c-7.9,0-12-6.3-12-13.1S1225.9,395.5,1233.9,395.5z
			 M1233.9,418.8c6.1,0,8.6-5.3,8.6-10.3s-2.6-10.3-8.6-10.3c-6.1,0-8.6,5.3-8.6,10.3S1227.8,418.8,1233.9,418.8z"/>
		<path class="st7" d="M1250.6,405.6h-3V403h3v-2.7c0-2.9,1.8-4.5,5-4.5c0.6,0,1.4,0.1,1.9,0.3v2.6c-0.5-0.2-1.2-0.2-1.7-0.2
			c-1.4,0-2.3,0.5-2.3,2v2.5h3.5v2.6h-3.5V421h-3V405.6z"/>
		<path class="st7" d="M1261,405.6h-3V403h3v-2.7c0-2.9,1.8-4.5,5-4.5c0.6,0,1.4,0.1,1.9,0.3v2.6c-0.5-0.2-1.2-0.2-1.7-0.2
			c-1.4,0-2.3,0.5-2.3,2v2.5h3.5v2.6h-3.5V421h-3V405.6z"/>
		<path class="st7" d="M1285.5,415.3c-0.8,4-3.6,6.2-7.7,6.2c-5.8,0-8.5-4-8.7-9.5c0-5.5,3.6-9.4,8.5-9.4c6.4,0,8.4,6,8.2,10.4
			h-13.5c-0.1,3.2,1.7,6,5.6,6c2.5,0,4.2-1.2,4.7-3.5H1285.5z M1282.7,410.3c-0.2-2.8-2.2-5.1-5.2-5.1c-3.1,0-5,2.3-5.2,5.1H1282.7z
			"/>
		<path class="st7" d="M1288.8,403h2.8v3.8h0.1c1.4-2.9,3.4-4.3,6.7-4.2v3.2c-4.8,0-6.5,2.7-6.5,7.3v8.1h-3V403z"/>
		<path class="st7" d="M1303.7,399.7h-3v-3.6h3V399.7z M1300.7,403h3V421h-3V403z"/>
		<path class="st7" d="M1308.3,403h2.8v2.9h0.1c1.3-2.2,3.3-3.3,5.9-3.3c4.8,0,6.2,2.7,6.2,6.6V421h-3v-12.3c0-2.2-1.4-3.6-3.7-3.6
			c-3.6,0-5.4,2.4-5.4,5.7V421h-3V403z"/>
		<path class="st7" d="M1343.4,419.5c0,5.9-2.7,8.9-8.4,8.9c-3.4,0-7.3-1.4-7.5-5.3h3c0.1,2.1,2.8,2.9,4.7,2.9
			c3.9,0,5.4-2.8,5.4-6.9V418h-0.1c-1,2.2-3.3,3.3-5.6,3.3c-5.4,0-8.1-4.2-8.1-9.2c0-4.3,2.1-9.6,8.4-9.6c2.3,0,4.3,1,5.4,3h0V403
			h2.8V419.5z M1340.5,411.6c0-3.2-1.4-6.5-5.1-6.5c-3.8,0-5.4,3.1-5.4,6.6c0,3.3,1.2,6.9,5.1,6.9
			C1339,418.6,1340.5,415,1340.5,411.6z"/>
		<path class="st7" d="M1358.8,405.6h-3V403h3v-2.7c0-2.9,1.8-4.5,5-4.5c0.6,0,1.4,0.1,1.9,0.3v2.6c-0.5-0.2-1.2-0.2-1.7-0.2
			c-1.4,0-2.3,0.5-2.3,2v2.5h3.5v2.6h-3.5V421h-3V405.6z"/>
		<path class="st7" d="M1375.8,402.5c5.7,0,8.8,4.2,8.8,9.5c0,5.3-3,9.5-8.8,9.5c-5.7,0-8.8-4.2-8.8-9.5
			C1367,406.7,1370,402.5,1375.8,402.5z M1375.8,418.8c3.1,0,5.6-2.5,5.6-6.8s-2.5-6.9-5.6-6.9s-5.6,2.5-5.6,6.9
			S1372.7,418.8,1375.8,418.8z"/>
		<path class="st7" d="M1388,403h2.8v3.8h0.1c1.4-2.9,3.4-4.3,6.7-4.2v3.2c-4.8,0-6.5,2.7-6.5,7.3v8.1h-3V403z"/>
		<path class="st7" d="M1425.6,421h-3v-2.5h-0.1c-1,2-3.3,2.9-5.8,2.9c-5.6,0-8.3-4.4-8.3-9.5c0-5.1,2.7-9.4,8.3-9.4
			c1.8,0,4.5,0.7,5.8,2.8h0.1v-9.3h3V421z M1417.2,418.8c4,0,5.5-3.5,5.5-6.8c0-3.5-1.6-6.9-5.7-6.9c-4.1,0-5.4,3.5-5.4,7
			C1411.6,415.6,1413.4,418.8,1417.2,418.8z"/>
		<path class="st7" d="M1445.6,415.3c-0.8,4-3.6,6.2-7.7,6.2c-5.8,0-8.5-4-8.7-9.5c0-5.5,3.6-9.4,8.5-9.4c6.4,0,8.4,6,8.2,10.4
			h-13.5c-0.1,3.2,1.7,6,5.6,6c2.5,0,4.2-1.2,4.7-3.5H1445.6z M1442.8,410.3c-0.2-2.8-2.2-5.1-5.2-5.1c-3.1,0-5,2.3-5.2,5.1H1442.8z
			"/>
		<path class="st7" d="M1449.2,396.1h3v25h-3V396.1z"/>
		<path class="st7" d="M1459.9,399.7h-3v-3.6h3V399.7z M1456.9,403h3V421h-3V403z"/>
		<path class="st7" d="M1472.7,421h-3.2l-6.7-18.1h3.3l5.1,15.1h0.1l4.9-15.1h3.1L1472.7,421z"/>
		<path class="st7" d="M1497.5,415.3c-0.8,4-3.6,6.2-7.7,6.2c-5.8,0-8.5-4-8.7-9.5c0-5.5,3.6-9.4,8.5-9.4c6.4,0,8.4,6,8.2,10.4
			h-13.5c-0.1,3.2,1.7,6,5.6,6c2.5,0,4.2-1.2,4.7-3.5H1497.5z M1494.6,410.3c-0.2-2.8-2.2-5.1-5.2-5.1c-3.1,0-5,2.3-5.2,5.1H1494.6z
			"/>
		<path class="st7" d="M1500.7,403h2.8v3.8h0.1c1.4-2.9,3.4-4.3,6.7-4.2v3.2c-4.8,0-6.5,2.7-6.5,7.3v8.1h-3V403z"/>
		<path class="st7" d="M1519.6,423.5c-1.4,3.5-2.6,4.8-5.2,4.8c-0.7,0-1.4-0.1-2.1-0.3v-2.7c0.6,0.2,1.2,0.4,1.8,0.4
			c1.2,0,1.9-0.6,2.5-1.6l1.2-3.1l-7.2-18h3.4l5.3,14.8h0.1l5.1-14.8h3.2L1519.6,423.5z"/>
		<path class="st7" d="M1543.8,403h3.6v2.6h-3.6v11.2c0,1.4,0.4,1.6,2.2,1.6h1.4v2.6h-2.3c-3.1,0-4.3-0.6-4.3-4v-11.5h-3.1V403h3.1
			v-5.4h3V403z"/>
		<path class="st7" d="M1558.5,402.5c5.7,0,8.8,4.2,8.8,9.5c0,5.3-3,9.5-8.8,9.5c-5.7,0-8.8-4.2-8.8-9.5
			C1549.8,406.7,1552.8,402.5,1558.5,402.5z M1558.5,418.8c3.1,0,5.6-2.5,5.6-6.8s-2.5-6.9-5.6-6.9s-5.6,2.5-5.6,6.9
			S1555.4,418.8,1558.5,418.8z"/>
		<path class="st7" d="M1596.6,421c-0.5,0.3-1.3,0.5-2.1,0.5c-1.5,0-2.5-0.8-2.5-2.8c-1.6,2-3.9,2.8-6.4,2.8c-3.3,0-6-1.4-6-5.1
			c0-4.1,3-5,6.1-5.6c3.3-0.7,6.1-0.4,6.1-2.7c0-2.6-2.2-3-4-3c-2.5,0-4.4,0.8-4.5,3.4h-3c0.2-4.5,3.6-6.1,7.7-6.1
			c3.3,0,6.8,0.7,6.8,5v9.3c0,1.4,0,2,0.9,2c0.3,0,0.6-0.1,0.9-0.2V421z M1591.8,411.7c-2.3,1.7-9,0-9,4.5c0,2,1.7,2.7,3.5,2.7
			c3.9,0,5.5-2.4,5.5-4.1V411.7z"/>
		<path class="st7" d="M1621.4,408.8c-0.5-2.3-2-3.6-4.5-3.6c-4.3,0-5.6,3.4-5.6,7.1c0,3.4,1.5,6.6,5.3,6.6c2.9,0,4.6-1.6,5-4.4h3
			c-0.7,4.4-3.4,7-8,7c-5.5,0-8.5-3.8-8.5-9.2c0-5.4,2.8-9.7,8.5-9.7c4.1,0,7.4,1.9,7.8,6.2H1621.4z"/>
		<path class="st7" d="M1628.1,396.1h3v25h-3V396.1z"/>
		<path class="st7" d="M1638.8,399.7h-3v-3.6h3V399.7z M1635.8,403h3V421h-3V403z"/>
		<path class="st7" d="M1658.9,415.3c-0.8,4-3.6,6.2-7.7,6.2c-5.8,0-8.5-4-8.7-9.5c0-5.5,3.6-9.4,8.5-9.4c6.4,0,8.4,6,8.2,10.4
			h-13.5c-0.1,3.2,1.7,6,5.6,6c2.5,0,4.2-1.2,4.7-3.5H1658.9z M1656,410.3c-0.2-2.8-2.2-5.1-5.2-5.1c-3.1,0-5,2.3-5.2,5.1H1656z"/>
		<path class="st7" d="M1662.2,403h2.8v2.9h0.1c1.3-2.2,3.3-3.3,5.9-3.3c4.8,0,6.2,2.7,6.2,6.6V421h-3v-12.3c0-2.2-1.4-3.6-3.7-3.6
			c-3.6,0-5.4,2.4-5.4,5.7V421h-3V403z"/>
		<path class="st7" d="M1685.8,403h3.6v2.6h-3.6v11.2c0,1.4,0.4,1.6,2.2,1.6h1.4v2.6h-2.3c-3.1,0-4.3-0.6-4.3-4v-11.5h-3.1V403h3.1
			v-5.4h3V403z"/>
		<path class="st7" d="M1693.4,417.2h3.9v3.9h-3.9V417.2z"/>
	</g>
</g>
<g>
	<g>
		<path class="st3" d="M1111.1,749.4h3.6l4.5,25h-3.4l-1.2-7.5h-10.5l-4.4,7.5h-3.7L1111.1,749.4z M1105.7,764.1h8.6l-1.9-11.7h-0.1
			L1105.7,764.1z"/>
		<path class="st3" d="M1125,756.3h2.9l-0.6,2.7h0.1c1.5-2.1,3.9-3.2,6.4-3.2c3.4,0,5,1.4,5,4.7c0,0.8-0.2,2.1-0.5,3.5l-2.2,10.3h-3
			l2.3-10.6c0.1-0.7,0.4-2.2,0.4-2.8c0-1.7-1.4-2.5-3.2-2.5c-1.6,0-3.4,0.9-4.5,2.1c-1.1,0.9-1.6,2.3-2,3.8l-2.1,10h-3L1125,756.3z"
			/>
		<path class="st3" d="M1146.5,777.5c-1.5,2.3-2.8,4.3-5.8,4.3c-0.7,0-1.5-0.2-2.1-0.5l0.5-2.4c0.5,0.3,1.2,0.5,1.7,0.5
			c1.4,0,2.1-0.8,2.8-2l1.8-3l-3.2-18.1h3.2l2.1,14.4h0.1l7.6-14.4h3.3L1146.5,777.5z"/>
		<path class="st3" d="M1181.9,762.1c0-2.2-1.5-3.5-3.8-3.5c-4.6,0-7,4.6-7,8.5c0,2.8,1.1,5.2,4.5,5.2c2.6,0,4.4-1.5,5.3-3.7h3
			c-1.1,4.1-4.1,6.3-8.3,6.3c-4.9,0-7.5-2.9-7.5-7.8c0-5.7,3.5-11.1,10-11.1c4.1,0,6.7,1.9,6.8,6.2H1181.9z"/>
		<path class="st3" d="M1191.3,749.4h3l-2.1,9.6l0.1,0.1c1.5-2.1,3.9-3.2,6.4-3.2c3.4,0,5,1.4,5,4.7c0,0.8-0.2,2.1-0.5,3.5
			l-2.2,10.3h-3l2.3-10.6c0.1-0.7,0.4-2.2,0.4-2.8c0-1.7-1.4-2.5-3.2-2.5c-1.6,0-3.4,0.9-4.5,2.1c-1.1,0.9-1.6,2.3-2,3.8l-2.1,10h-3
			L1191.3,749.4z"/>
		<path class="st3" d="M1207.5,761.8c0.6-4,4-5.9,7.8-5.9c3.5,0,6.6,1,6.6,4.6c0,1-0.3,2.3-0.6,3.3l-1.2,4.9
			c-0.1,0.7-0.5,1.8-0.5,2.6s0.3,1.1,0.9,1.1c0.3,0,0.7-0.1,0.9-0.2l-0.5,2.2c-0.5,0.2-1.3,0.4-1.8,0.4c-1.6,0-2.5-1-2.3-2.6
			l-0.1-0.1c-1.3,1.7-3,2.6-6.1,2.6c-3,0-5.5-1.4-5.5-5.1c0-5.3,5.1-5.6,9.1-6c3.2-0.3,4.5-0.5,4.5-2.9c0-1.9-2.1-2.4-3.6-2.4
			c-2.3,0-4.5,0.9-4.9,3.3H1207.5z M1211.5,772.2c2.3,0,4.1-0.8,5.1-2.4c1-1.4,1.2-3,1.6-4.7h-0.1c-2.5,1.8-9.8-0.1-9.8,4.5
			C1208.3,771.4,1209.8,772.2,1211.5,772.2z"/>
		<path class="st3" d="M1227.4,756.3h2.9l-0.6,2.7h0.1c1.5-2.1,3.9-3.2,6.4-3.2c3.4,0,5,1.4,5,4.7c0,0.8-0.2,2.1-0.5,3.5l-2.2,10.3
			h-3l2.3-10.6c0.1-0.7,0.4-2.2,0.4-2.8c0-1.7-1.4-2.5-3.2-2.5c-1.6,0-3.4,0.9-4.5,2.1c-1.1,0.9-1.6,2.3-2,3.8l-2.1,10h-3
			L1227.4,756.3z"/>
		<path class="st3" d="M1259.3,771.8c-0.4,1.9-0.9,3.7-1.4,4.9c-1.5,3.6-4.3,5-8.2,5c-3.7,0-7.1-1.6-7.2-5.6h3c0.2,2.4,2.3,3,4.6,3
			c4.6,0,5.6-3.7,6.5-7.3l-0.1-0.1c-1.3,2-3.4,2.8-5.6,2.8c-4.5,0-6.8-3.2-6.8-7.5c0-5.3,3.5-11.2,9.4-11.2c2.7,0,5.2,1.4,5.7,3.7
			v0.1h0.1l0.6-3.3h2.8L1259.3,771.8z M1251.4,771.9c4.5,0,6.6-5,6.6-8.7c0-2.8-1.5-4.7-4.6-4.7c-4.2,0-6.4,5.2-6.4,8.5
			C1247,769.7,1248.4,771.9,1251.4,771.9z"/>
		<path class="st3" d="M1266.8,766.3c-0.1,0.5-0.1,1.1-0.1,1.6c0,2.8,2.3,4.4,4.7,4.4c2.6,0,4.4-1.2,5.2-3.5h3
			c-0.9,4-4.3,6.1-8.2,6.1c-6,0-7.7-4.1-7.7-7.3c0-6.9,4.3-11.7,9.3-11.7c5.3,0,7.7,2.9,7.7,8c0,0.9-0.2,1.8-0.3,2.3H1266.8z
			 M1277.7,763.7c0.2-2.6-0.9-5.1-4.2-5.1c-3.5,0-5.4,2.3-6.3,5.1H1277.7z"/>
		<path class="st3" d="M1309.2,774.4h-3.2l-0.9-14.1h-0.1l-6.5,14.1h-3.2l-2.1-18.1h3.2l1.1,14.4h0.1l6.5-14.4h3.4l0.9,14.4h0.1
			l6.9-14.4h3.2L1309.2,774.4z"/>
		<path class="st3" d="M1323.5,749.4h3l-2.1,9.6l0.1,0.1c1.5-2.1,3.9-3.2,6.4-3.2c3.4,0,5,1.4,5,4.7c0,0.8-0.2,2.1-0.5,3.5
			l-2.2,10.3h-3l2.3-10.6c0.1-0.7,0.4-2.2,0.4-2.8c0-1.7-1.4-2.5-3.2-2.5c-1.6,0-3.4,0.9-4.5,2.1c-1.1,0.9-1.6,2.3-2,3.8l-2.1,10h-3
			L1323.5,749.4z"/>
		<path class="st3" d="M1341.5,756.3h3l-3.8,18.1h-3L1341.5,756.3z M1345.2,753.1h-3l0.8-3.6h3L1345.2,753.1z"/>
		<path class="st3" d="M1360.2,762.1c0-2.2-1.5-3.5-3.8-3.5c-4.6,0-7,4.6-7,8.5c0,2.8,1.1,5.2,4.5,5.2c2.6,0,4.4-1.5,5.3-3.7h3
			c-1.1,4.1-4.1,6.3-8.3,6.3c-4.9,0-7.5-2.9-7.5-7.8c0-5.7,3.5-11.1,10-11.1c4.1,0,6.7,1.9,6.8,6.2H1360.2z"/>
		<path class="st3" d="M1369.6,749.4h3l-2.1,9.6l0.1,0.1c1.5-2.1,3.9-3.2,6.4-3.2c3.4,0,5,1.4,5,4.7c0,0.8-0.2,2.1-0.5,3.5
			l-2.2,10.3h-3l2.3-10.6c0.1-0.7,0.4-2.2,0.4-2.8c0-1.7-1.4-2.5-3.2-2.5c-1.6,0-3.4,0.9-4.5,2.1c-1.1,0.9-1.6,2.3-2,3.8l-2.1,10h-3
			L1369.6,749.4z"/>
		<path class="st3" d="M1395.5,761.8c0.6-4,4-5.9,7.8-5.9c3.5,0,6.6,1,6.6,4.6c0,1-0.3,2.3-0.6,3.3l-1.2,4.9
			c-0.1,0.7-0.5,1.8-0.5,2.6s0.3,1.1,0.9,1.1c0.3,0,0.7-0.1,0.9-0.2l-0.5,2.2c-0.5,0.2-1.3,0.4-1.8,0.4c-1.6,0-2.5-1-2.3-2.6
			l-0.1-0.1c-1.3,1.7-3,2.6-6.1,2.6c-3,0-5.5-1.4-5.5-5.1c0-5.3,5.1-5.6,9.1-6c3.2-0.3,4.5-0.5,4.5-2.9c0-1.9-2.1-2.4-3.6-2.4
			c-2.3,0-4.5,0.9-4.9,3.3H1395.5z M1399.5,772.2c2.3,0,4.1-0.8,5.1-2.4c1-1.4,1.2-3,1.6-4.7h-0.1c-2.5,1.8-9.8-0.1-9.8,4.5
			C1396.3,771.4,1397.9,772.2,1399.5,772.2z"/>
		<path class="st3" d="M1427.7,774.4h-2.8l0.6-2.6h-0.1c-1.8,2.3-3.6,3-6,3c-4.6,0-7.1-3-7.1-7.4c0-5.5,3.7-11.5,10-11.5
			c2.2,0,4.9,0.8,5.6,3.2h0.1l1.9-9.7h2.9L1427.7,774.4z M1420,772.2c4.5,0,7.1-5.2,7.1-9c0-2.7-1.6-4.7-4.6-4.7
			c-4.7,0-7.2,4.9-7.2,8.9C1415.4,770.4,1416.8,772.2,1420,772.2z"/>
		<path class="st3" d="M1448.5,774.4h-2.8l0.6-2.6h-0.1c-1.8,2.3-3.6,3-6,3c-4.6,0-7.1-3-7.1-7.4c0-5.5,3.7-11.5,10-11.5
			c2.2,0,4.9,0.8,5.6,3.2h0.1l1.9-9.7h2.9L1448.5,774.4z M1440.8,772.2c4.5,0,7.1-5.2,7.1-9c0-2.7-1.6-4.7-4.6-4.7
			c-4.7,0-7.2,4.9-7.2,8.9C1436.1,770.4,1437.5,772.2,1440.8,772.2z"/>
		<path class="st3" d="M1465.8,761.7c0.1-2.1-1.6-3.1-3.7-3.1c-1.8,0-3.9,0.5-3.9,2.3c0,1.6,2.4,2.4,4.8,3.3
			c2.4,1.1,4.8,2.2,4.8,5.1c0,4-3.9,5.6-7.4,5.6c-4.1,0-7.3-1.5-7.3-6.1h3c-0.2,2.7,2.1,3.5,4.6,3.5c2,0,4.1-0.7,4.1-2.8
			c0-1.8-2.4-2.4-4.8-3.4c-2.4-0.9-4.8-2.2-4.8-4.9c0-3.4,3.4-5.2,6.7-5.2s6.8,1.5,6.8,5.7H1465.8z"/>
		<path class="st3" d="M1490.6,755.9c4.9,0,7.5,2.6,7.5,7.5c0,5.9-3.7,11.4-10,11.4c-4.8,0-7.6-3.2-7.6-7.6
			C1480.5,761.4,1484.3,755.9,1490.6,755.9z M1488.4,772.2c4.3,0,6.7-5,6.7-8.6c0-2.8-1.5-5.1-4.8-5.1c-4.6,0-6.9,5-6.9,8.7
			C1483.5,770.2,1485.2,772.2,1488.4,772.2z"/>
		<path class="st3" d="M1503.6,756.3h2.8l-0.9,3.9h0.1c1.4-2.5,3.5-4.3,6.6-4.3c0.4,0,0.7-0.1,1,0l-0.7,3.2c-0.1,0-0.3,0-0.5,0h-0.4
			c-0.7,0-1.1,0-1.8,0.2c-1.6,0.4-2.9,1.5-3.9,2.9c-0.8,1.2-1.2,2.9-1.5,4.2l-1.7,8h-3L1503.6,756.3z"/>
		<path class="st3" d="M1525,756.3h2.8l-0.7,2.7l0.1,0.1c1.5-1.9,3.8-3.2,6.3-3.2c2.3,0,4,0.9,4.5,3.3c1.4-2,3.8-3.3,6.2-3.3
			c2.6,0,5,1.1,5,4.1c0,1.1-0.3,2.6-0.5,3.6l-2.3,10.9h-3l2.5-11.5c0.1-0.6,0.3-1.4,0.3-2c0-1.4-1.2-2.4-2.8-2.4
			c-1.7,0-3.5,1.2-4.6,2.5c-1,1.1-1.4,2.5-1.7,4.1l-2,9.3h-3l2.2-10.3c0.3-1.4,0.6-2.8,0.6-3.2c0-1.5-0.9-2.4-2.5-2.4
			c-1.6,0-3.4,1.1-4.4,2.3c-1.3,1.2-1.5,2.3-1.9,4.1l-2,9.5h-3L1525,756.3z"/>
		<path class="st3" d="M1561.9,755.9c4.9,0,7.5,2.6,7.5,7.5c0,5.9-3.7,11.4-10,11.4c-4.8,0-7.6-3.2-7.6-7.6
			C1551.8,761.4,1555.6,755.9,1561.9,755.9z M1559.7,772.2c4.3,0,6.7-5,6.7-8.6c0-2.8-1.5-5.1-4.8-5.1c-4.6,0-6.9,5-6.9,8.7
			C1554.8,770.2,1556.5,772.2,1559.7,772.2z"/>
		<path class="st3" d="M1587.2,774.4h-2.8l0.6-2.6h-0.1c-1.8,2.3-3.6,3-6,3c-4.6,0-7.1-3-7.1-7.4c0-5.5,3.7-11.5,10-11.5
			c2.2,0,4.9,0.8,5.6,3.2h0.1l1.9-9.7h2.9L1587.2,774.4z M1579.5,772.2c4.5,0,7.1-5.2,7.1-9c0-2.7-1.6-4.7-4.6-4.7
			c-4.7,0-7.2,4.9-7.2,8.9C1574.8,770.4,1576.2,772.2,1579.5,772.2z"/>
		<path class="st3" d="M1595.6,756.3h3l-3.8,18.1h-3L1595.6,756.3z M1599.3,753.1h-3l0.8-3.6h3L1599.3,753.1z"/>
		<path class="st3" d="M1604,759h-3.1l0.5-2.6h3.1c0.9-3.6,1.1-7.2,5.8-7.2c0.8,0,1.7,0,2.5,0.3l-0.5,2.5c-0.5-0.1-1-0.2-1.4-0.2
			c-2.9,0-2.9,2.3-3.5,4.6h3.5l-0.5,2.6h-3.5l-3.3,15.5h-3L1604,759z M1613.8,756.3h3l-3.8,18.1h-3L1613.8,756.3z M1617.5,753.1h-3
			l0.8-3.6h3L1617.5,753.1z"/>
		<path class="st3" d="M1621.4,766.3c-0.1,0.5-0.1,1.1-0.1,1.6c0,2.8,2.3,4.4,4.7,4.4c2.6,0,4.4-1.2,5.2-3.5h3
			c-0.9,4-4.3,6.1-8.2,6.1c-6,0-7.7-4.1-7.7-7.3c0-6.9,4.3-11.7,9.3-11.7c5.3,0,7.7,2.9,7.7,8c0,0.9-0.2,1.8-0.3,2.3H1621.4z
			 M1632.3,763.7c0.2-2.6-0.9-5.1-4.2-5.1c-3.5,0-5.4,2.3-6.3,5.1H1632.3z"/>
		<path class="st3" d="M1649.2,761.7c0.1-2.1-1.6-3.1-3.7-3.1c-1.8,0-3.9,0.5-3.9,2.3c0,1.6,2.4,2.4,4.8,3.3
			c2.4,1.1,4.8,2.2,4.8,5.1c0,4-3.9,5.6-7.4,5.6c-4.1,0-7.3-1.5-7.3-6.1h3c-0.2,2.7,2.1,3.5,4.6,3.5c2,0,4.1-0.7,4.1-2.8
			c0-1.8-2.4-2.4-4.8-3.4c-2.4-0.9-4.8-2.2-4.8-4.9c0-3.4,3.4-5.2,6.7-5.2s6.8,1.5,6.8,5.7H1649.2z"/>
		<path class="st3" d="M1665.2,761.8c0.6-4,4-5.9,7.8-5.9c3.5,0,6.6,1,6.6,4.6c0,1-0.3,2.3-0.6,3.3l-1.2,4.9
			c-0.1,0.7-0.5,1.8-0.5,2.6s0.3,1.1,0.9,1.1c0.3,0,0.7-0.1,0.9-0.2l-0.5,2.2c-0.5,0.2-1.3,0.4-1.8,0.4c-1.6,0-2.5-1-2.3-2.6
			l-0.1-0.1c-1.3,1.7-3,2.6-6.1,2.6c-3,0-5.5-1.4-5.5-5.1c0-5.3,5.1-5.6,9.1-6c3.2-0.3,4.5-0.5,4.5-2.9c0-1.9-2.1-2.4-3.6-2.4
			c-2.3,0-4.5,0.9-4.9,3.3H1665.2z M1669.2,772.2c2.3,0,4.1-0.8,5.1-2.4c1-1.4,1.2-3,1.6-4.7h-0.1c-2.5,1.8-9.8-0.1-9.8,4.5
			C1666,771.4,1667.5,772.2,1669.2,772.2z"/>
		<path class="st3" d="M1685.1,756.3h2.9l-0.6,2.7h0.1c1.5-2.1,3.9-3.2,6.4-3.2c3.4,0,5,1.4,5,4.7c0,0.8-0.2,2.1-0.5,3.5l-2.2,10.3
			h-3l2.3-10.6c0.1-0.7,0.4-2.2,0.4-2.8c0-1.7-1.4-2.5-3.2-2.5c-1.6,0-3.4,0.9-4.5,2.1c-1.1,0.9-1.6,2.3-2,3.8l-2.1,10h-3
			L1685.1,756.3z"/>
		<path class="st3" d="M1725.7,748.8c6.5,0,10.4,4.9,10.4,11.1c0,7.8-5.1,15.1-13.4,15.1c-6.8,0-10.7-4.1-10.7-11
			C1712,756,1717.2,748.8,1725.7,748.8z M1722.7,772.2c6.6,0,10.1-6.3,10.1-12.3c0-4.6-2.5-8.3-7.1-8.3c-7,0-10.4,6.4-10.4,12.4
			C1715.3,768.9,1717.7,772.2,1722.7,772.2z"/>
		<path class="st3" d="M1741.4,759h-3.1l0.5-2.6h3.1c0.9-3.6,1.1-7.2,5.8-7.2c0.8,0,1.7,0,2.5,0.3l-0.5,2.5c-0.5-0.1-1-0.2-1.4-0.2
			c-2.9,0-2.9,2.3-3.5,4.6h3.5l-0.5,2.6h-3.5l-3.3,15.5h-3L1741.4,759z"/>
		<path class="st3" d="M1751.8,759h-3.1l0.5-2.6h3.1c0.9-3.6,1.1-7.2,5.8-7.2c0.8,0,1.7,0,2.5,0.3l-0.5,2.5c-0.5-0.1-1-0.2-1.4-0.2
			c-2.9,0-2.9,2.3-3.5,4.6h3.5l-0.5,2.6h-3.5l-3.3,15.5h-3L1751.8,759z"/>
		<path class="st3" d="M1761.4,766.3c-0.1,0.5-0.1,1.1-0.1,1.6c0,2.8,2.3,4.4,4.7,4.4c2.6,0,4.4-1.2,5.2-3.5h3
			c-0.9,4-4.3,6.1-8.2,6.1c-6,0-7.7-4.1-7.7-7.3c0-6.9,4.3-11.7,9.3-11.7c5.3,0,7.7,2.9,7.7,8c0,0.9-0.2,1.8-0.3,2.3H1761.4z
			 M1772.3,763.7c0.2-2.6-0.9-5.1-4.2-5.1c-3.5,0-5.4,2.3-6.3,5.1H1772.3z"/>
		<path class="st3" d="M1780.4,756.3h2.8l-0.9,3.9h0.1c1.4-2.5,3.5-4.3,6.6-4.3c0.4,0,0.7-0.1,1,0l-0.7,3.2c-0.1,0-0.3,0-0.5,0h-0.4
			c-0.7,0-1.1,0-1.8,0.2c-1.6,0.4-2.9,1.5-3.9,2.9c-0.8,1.2-1.2,2.9-1.5,4.2l-1.7,8h-3L1780.4,756.3z"/>
		<path class="st3" d="M1792,756.3h3l-3.8,18.1h-3L1792,756.3z M1795.7,753.1h-3l0.8-3.6h3L1795.7,753.1z"/>
		<path class="st3" d="M1799.8,756.3h2.9l-0.6,2.7h0.1c1.5-2.1,3.9-3.2,6.4-3.2c3.4,0,5,1.4,5,4.7c0,0.8-0.2,2.1-0.5,3.5l-2.2,10.3
			h-3l2.3-10.6c0.1-0.7,0.4-2.2,0.4-2.8c0-1.7-1.4-2.5-3.2-2.5c-1.6,0-3.4,0.9-4.5,2.1c-1.1,0.9-1.6,2.3-2,3.8l-2.1,10h-3
			L1799.8,756.3z"/>
		<path class="st3" d="M1831.7,771.8c-0.4,1.9-0.9,3.7-1.4,4.9c-1.5,3.6-4.3,5-8.2,5c-3.7,0-7.1-1.6-7.2-5.6h3c0.2,2.4,2.3,3,4.6,3
			c4.6,0,5.6-3.7,6.5-7.3l-0.1-0.1c-1.3,2-3.4,2.8-5.6,2.8c-4.5,0-6.8-3.2-6.8-7.5c0-5.3,3.5-11.2,9.4-11.2c2.7,0,5.2,1.4,5.7,3.7
			v0.1h0.1l0.6-3.3h2.8L1831.7,771.8z M1823.8,771.9c4.5,0,6.6-5,6.6-8.7c0-2.8-1.5-4.7-4.6-4.7c-4.2,0-6.4,5.2-6.4,8.5
			C1819.4,769.7,1820.8,771.9,1823.8,771.9z"/>
		<path class="st3" d="M1841.4,749.4h3.9c-0.9,3.9-0.9,8.6-5.8,9l0.4-1.7c1.9-0.3,2.2-1.9,2.7-3.5h-2L1841.4,749.4z"/>
		<path class="st3" d="M1857.9,761.7c0.1-2.1-1.6-3.1-3.7-3.1c-1.8,0-3.9,0.5-3.9,2.3c0,1.6,2.4,2.4,4.8,3.3
			c2.4,1.1,4.8,2.2,4.8,5.1c0,4-3.9,5.6-7.4,5.6c-4.1,0-7.3-1.5-7.3-6.1h3c-0.2,2.7,2.1,3.5,4.6,3.5c2,0,4.1-0.7,4.1-2.8
			c0-1.8-2.4-2.4-4.8-3.4c-2.4-0.9-4.8-2.2-4.8-4.9c0-3.4,3.4-5.2,6.7-5.2s6.8,1.5,6.8,5.7H1857.9z"/>
		<path class="st3" d="M1102.2,803h-3.1l0.5-2.6h3.1c0.9-3.6,1.1-7.2,5.8-7.2c0.8,0,1.7,0,2.5,0.3l-0.5,2.5c-0.5-0.1-1-0.2-1.4-0.2
			c-2.9,0-2.9,2.3-3.5,4.6h3.5l-0.5,2.6h-3.5l-3.3,15.5h-3L1102.2,803z"/>
		<path class="st3" d="M1122.8,818.4h-2.9l0.6-2.7h-0.1c-1.5,2.1-3.9,3.2-6.4,3.2c-3.4,0-5-1.4-5-4.7c0-0.8,0.2-2.1,0.5-3.5
			l2.2-10.3h3l-2.3,10.6c-0.2,0.7-0.4,2.2-0.4,2.8c0,1.7,1.4,2.5,3.2,2.5c3.3,0,5.8-2.9,6.5-5.9l2.1-10h3L1122.8,818.4z"/>
		<path class="st3" d="M1131.5,800.3h2.9l-0.6,2.7h0.1c1.5-2.1,3.9-3.2,6.4-3.2c3.4,0,5,1.4,5,4.7c0,0.8-0.2,2.1-0.5,3.5l-2.2,10.3
			h-3l2.3-10.6c0.1-0.7,0.4-2.2,0.4-2.8c0-1.7-1.4-2.5-3.2-2.5c-1.6,0-3.4,0.9-4.5,2.1c-1.1,0.9-1.6,2.3-2,3.8l-2.1,10h-3
			L1131.5,800.3z"/>
		<path class="st3" d="M1161.8,806.1c0-2.2-1.5-3.5-3.8-3.5c-4.6,0-7,4.6-7,8.5c0,2.8,1.1,5.2,4.5,5.2c2.6,0,4.4-1.5,5.3-3.7h3
			c-1.1,4.1-4.1,6.3-8.3,6.3c-4.9,0-7.5-2.9-7.5-7.8c0-5.7,3.5-11.1,10-11.1c4.1,0,6.7,1.9,6.8,6.2H1161.8z"/>
		<path class="st3" d="M1173.8,800.3h3.6l-0.6,2.6h-3.6l-2.2,10.6c0,0.4-0.1,0.8-0.1,1.2c0,0.9,0.8,1.2,1.8,1.2
			c0.6,0,1.2-0.1,1.7-0.3l-0.5,2.7c-0.7,0.1-1.4,0.2-2.1,0.2c-2.2,0-4.1-0.6-4.1-2.9c0-0.5,0.1-0.9,0.2-1.5l2.4-11.2h-3l0.6-2.6h3
			l1.1-5.4h3L1173.8,800.3z"/>
		<path class="st3" d="M1180.7,800.3h3l-3.8,18.1h-3L1180.7,800.3z M1184.4,797.1h-3l0.8-3.6h3L1184.4,797.1z"/>
		<path class="st3" d="M1195.6,799.9c4.9,0,7.5,2.6,7.5,7.5c0,5.9-3.7,11.4-10,11.4c-4.8,0-7.6-3.2-7.6-7.6
			C1185.5,805.4,1189.3,799.9,1195.6,799.9z M1193.4,816.2c4.3,0,6.7-5,6.7-8.6c0-2.8-1.5-5.1-4.8-5.1c-4.6,0-6.9,5-6.9,8.7
			C1188.4,814.2,1190.2,816.2,1193.4,816.2z"/>
		<path class="st3" d="M1208.6,800.3h2.9l-0.6,2.7h0.1c1.5-2.1,3.9-3.2,6.4-3.2c3.4,0,5,1.4,5,4.7c0,0.8-0.2,2.1-0.5,3.5l-2.2,10.3
			h-3l2.3-10.6c0.1-0.7,0.4-2.2,0.4-2.8c0-1.7-1.4-2.5-3.2-2.5c-1.6,0-3.4,0.9-4.5,2.1c-1.1,0.9-1.6,2.3-2,3.8l-2.1,10h-3
			L1208.6,800.3z"/>
		<path class="st3" d="M1226.3,805.8c0.6-4,4-5.9,7.8-5.9c3.5,0,6.6,1,6.6,4.6c0,1-0.3,2.3-0.6,3.3l-1.2,4.9
			c-0.1,0.7-0.5,1.8-0.5,2.6s0.3,1.1,0.9,1.1c0.3,0,0.7-0.1,0.9-0.2l-0.5,2.2c-0.5,0.2-1.3,0.4-1.8,0.4c-1.6,0-2.5-1-2.3-2.6
			l-0.1-0.1c-1.3,1.7-3,2.6-6.1,2.6c-3,0-5.5-1.4-5.5-5.1c0-5.3,5.1-5.6,9.1-6c3.2-0.3,4.5-0.5,4.5-2.9c0-1.9-2.1-2.4-3.6-2.4
			c-2.3,0-4.5,0.9-4.9,3.3H1226.3z M1230.3,816.2c2.3,0,4.1-0.8,5.1-2.4c1-1.4,1.2-3,1.6-4.7h-0.1c-2.5,1.8-9.8-0.1-9.8,4.5
			C1227.1,815.4,1228.6,816.2,1230.3,816.2z"/>
		<path class="st3" d="M1247.7,793.4h3l-5.3,25h-3L1247.7,793.4z"/>
		<path class="st3" d="M1254,800.3h3l-3.8,18.1h-3L1254,800.3z M1257.6,797.1h-3l0.8-3.6h3L1257.6,797.1z"/>
		<path class="st3" d="M1265.9,800.3h3.6l-0.6,2.6h-3.6l-2.2,10.6c0,0.4-0.1,0.8-0.1,1.2c0,0.9,0.8,1.2,1.8,1.2
			c0.6,0,1.2-0.1,1.7-0.3l-0.5,2.7c-0.7,0.1-1.4,0.2-2.1,0.2c-2.2,0-4.1-0.6-4.1-2.9c0-0.5,0.1-0.9,0.2-1.5l2.4-11.2h-3l0.6-2.6h3
			l1.1-5.4h3L1265.9,800.3z"/>
		<path class="st3" d="M1274.9,821.5c-1.5,2.3-2.8,4.3-5.8,4.3c-0.7,0-1.5-0.2-2.1-0.5l0.5-2.4c0.5,0.3,1.2,0.5,1.7,0.5
			c1.4,0,2.1-0.8,2.8-2l1.8-3l-3.2-18.1h3.2l2.1,14.4h0.1l7.6-14.4h3.3L1274.9,821.5z"/>
		<path class="st3" d="M1299.3,800.3h3l-3.8,18.1h-3L1299.3,800.3z M1303,797.1h-3l0.8-3.6h3L1303,797.1z"/>
		<path class="st3" d="M1315.9,805.7c0.1-2.1-1.6-3.1-3.7-3.1c-1.8,0-3.9,0.5-3.9,2.3c0,1.6,2.4,2.4,4.8,3.3
			c2.4,1.1,4.8,2.2,4.8,5.1c0,4-3.9,5.6-7.4,5.6c-4.1,0-7.3-1.5-7.3-6.1h3c-0.2,2.7,2.1,3.5,4.6,3.5c2,0,4.1-0.7,4.1-2.8
			c0-1.8-2.4-2.4-4.8-3.4c-2.4-0.9-4.8-2.2-4.8-4.9c0-3.4,3.4-5.2,6.7-5.2s6.8,1.5,6.8,5.7H1315.9z"/>
		<path class="st3" d="M1333.7,800.3h2.9l-0.6,2.7h0.1c1.5-2.1,3.9-3.2,6.4-3.2c3.4,0,5,1.4,5,4.7c0,0.8-0.2,2.1-0.5,3.5l-2.2,10.3
			h-3l2.3-10.6c0.1-0.7,0.4-2.2,0.4-2.8c0-1.7-1.4-2.5-3.2-2.5c-1.6,0-3.4,0.9-4.5,2.1c-1.1,0.9-1.6,2.3-2,3.8l-2.1,10h-3
			L1333.7,800.3z"/>
		<path class="st3" d="M1360.2,799.9c4.9,0,7.5,2.6,7.5,7.5c0,5.9-3.7,11.4-10,11.4c-4.8,0-7.6-3.2-7.6-7.6
			C1350.1,805.4,1353.9,799.9,1360.2,799.9z M1358.1,816.2c4.3,0,6.7-5,6.7-8.6c0-2.8-1.5-5.1-4.8-5.1c-4.6,0-6.9,5-6.9,8.7
			C1353.1,814.2,1354.8,816.2,1358.1,816.2z"/>
		<path class="st3" d="M1377.3,800.3h3.6l-0.6,2.6h-3.6l-2.2,10.6c0,0.4-0.1,0.8-0.1,1.2c0,0.9,0.8,1.2,1.8,1.2
			c0.6,0,1.2-0.1,1.7-0.3l-0.5,2.7c-0.7,0.1-1.4,0.2-2.1,0.2c-2.2,0-4.1-0.6-4.1-2.9c0-0.5,0.1-0.9,0.2-1.5l2.4-11.2h-3l0.6-2.6h3
			l1.1-5.4h3L1377.3,800.3z"/>
		<path class="st3" d="M1394,800.3h3l-3.8,18.1h-3L1394,800.3z M1397.6,797.1h-3l0.8-3.6h3L1397.6,797.1z"/>
		<path class="st3" d="M1401.8,800.3h2.9l-0.6,2.7h0.1c1.5-2.1,3.9-3.2,6.4-3.2c3.4,0,5,1.4,5,4.7c0,0.8-0.2,2.1-0.5,3.5l-2.2,10.3
			h-3l2.3-10.6c0.1-0.7,0.4-2.2,0.4-2.8c0-1.7-1.4-2.5-3.2-2.5c-1.6,0-3.4,0.9-4.5,2.1c-1.1,0.9-1.6,2.3-2,3.8l-2.1,10h-3
			L1401.8,800.3z"/>
		<path class="st3" d="M1435.1,800.3h3.6l-0.6,2.6h-3.6l-2.2,10.6c0,0.4-0.1,0.8-0.1,1.2c0,0.9,0.8,1.2,1.8,1.2
			c0.6,0,1.2-0.1,1.7-0.3l-0.5,2.7c-0.7,0.1-1.4,0.2-2.1,0.2c-2.2,0-4.1-0.6-4.1-2.9c0-0.5,0.1-0.9,0.2-1.5l2.4-11.2h-3l0.6-2.6h3
			l1.1-5.4h3L1435.1,800.3z"/>
		<path class="st3" d="M1443.5,793.4h3l-2.1,9.6l0.1,0.1c1.5-2.1,3.9-3.2,6.4-3.2c3.4,0,5,1.4,5,4.7c0,0.8-0.2,2.1-0.5,3.5
			l-2.2,10.3h-3l2.3-10.6c0.1-0.7,0.4-2.2,0.4-2.8c0-1.7-1.4-2.5-3.2-2.5c-1.6,0-3.4,0.9-4.5,2.1c-1.1,0.9-1.6,2.3-2,3.8l-2.1,10h-3
			L1443.5,793.4z"/>
		<path class="st3" d="M1461.2,810.3c-0.1,0.5-0.1,1.1-0.1,1.6c0,2.8,2.3,4.4,4.7,4.4c2.6,0,4.4-1.2,5.2-3.5h3
			c-0.9,4-4.3,6.1-8.2,6.1c-6,0-7.7-4.1-7.7-7.3c0-6.9,4.3-11.7,9.3-11.7c5.3,0,7.7,2.9,7.7,8c0,0.9-0.2,1.8-0.3,2.3H1461.2z
			 M1472.2,807.7c0.2-2.6-0.9-5.1-4.2-5.1c-3.5,0-5.4,2.3-6.3,5.1H1472.2z"/>
		<path class="st3" d="M1498.8,805.7c0.1-2.1-1.6-3.1-3.7-3.1c-1.8,0-3.9,0.5-3.9,2.3c0,1.6,2.4,2.4,4.8,3.3
			c2.4,1.1,4.8,2.2,4.8,5.1c0,4-3.9,5.6-7.4,5.6c-4.1,0-7.3-1.5-7.3-6.1h3c-0.2,2.7,2.1,3.5,4.6,3.5c2,0,4.1-0.7,4.1-2.8
			c0-1.8-2.4-2.4-4.8-3.4c-2.4-0.9-4.8-2.2-4.8-4.9c0-3.4,3.4-5.2,6.7-5.2s6.8,1.5,6.8,5.7H1498.8z"/>
		<path class="st3" d="M1517.7,806.1c0-2.2-1.5-3.5-3.8-3.5c-4.6,0-7,4.6-7,8.5c0,2.8,1.1,5.2,4.5,5.2c2.6,0,4.4-1.5,5.3-3.7h3
			c-1.1,4.1-4.1,6.3-8.3,6.3c-4.9,0-7.5-2.9-7.5-7.8c0-5.7,3.5-11.1,10-11.1c4.1,0,6.7,1.9,6.8,6.2H1517.7z"/>
		<path class="st3" d="M1532.7,799.9c4.9,0,7.5,2.6,7.5,7.5c0,5.9-3.7,11.4-10,11.4c-4.8,0-7.6-3.2-7.6-7.6
			C1522.6,805.4,1526.3,799.9,1532.7,799.9z M1530.5,816.2c4.3,0,6.7-5,6.7-8.6c0-2.8-1.5-5.1-4.8-5.1c-4.6,0-6.9,5-6.9,8.7
			C1525.5,814.2,1527.2,816.2,1530.5,816.2z"/>
		<path class="st3" d="M1545.6,800.3h2.8l-0.6,2.6h0.1c1.8-2.3,3.6-3,6-3c4.6,0,7.1,3,7.1,7.4c0,5.5-3.7,11.5-10,11.5
			c-2.2,0-5-0.8-5.6-3.2h-0.1l-1.9,9.7h-2.9L1545.6,800.3z M1553.3,802.5c-4.5,0-7.1,5.2-7.1,9c0,2.7,1.6,4.7,4.6,4.7
			c4.7,0,7.2-4.9,7.2-8.9C1558,804.4,1556.6,802.5,1553.3,802.5z"/>
		<path class="st3" d="M1566.2,810.3c-0.1,0.5-0.1,1.1-0.1,1.6c0,2.8,2.3,4.4,4.7,4.4c2.6,0,4.4-1.2,5.2-3.5h3
			c-0.9,4-4.3,6.1-8.2,6.1c-6,0-7.7-4.1-7.7-7.3c0-6.9,4.3-11.7,9.3-11.7c5.3,0,7.7,2.9,7.7,8c0,0.9-0.2,1.8-0.3,2.3H1566.2z
			 M1577.2,807.7c0.2-2.6-0.9-5.1-4.2-5.1c-3.5,0-5.4,2.3-6.3,5.1H1577.2z"/>
		<path class="st3" d="M1602,799.9c4.9,0,7.5,2.6,7.5,7.5c0,5.9-3.7,11.4-10,11.4c-4.8,0-7.6-3.2-7.6-7.6
			C1591.9,805.4,1595.7,799.9,1602,799.9z M1599.9,816.2c4.3,0,6.7-5,6.7-8.6c0-2.8-1.5-5.1-4.8-5.1c-4.6,0-6.9,5-6.9,8.7
			C1594.9,814.2,1596.6,816.2,1599.9,816.2z"/>
		<path class="st3" d="M1615.6,803h-3.1l0.5-2.6h3.1c0.9-3.6,1.1-7.2,5.8-7.2c0.8,0,1.7,0,2.5,0.3l-0.5,2.5c-0.5-0.1-1-0.2-1.4-0.2
			c-2.9,0-2.9,2.3-3.5,4.6h3.5l-0.5,2.6h-3.5l-3.3,15.5h-3L1615.6,803z"/>
		<path class="st3" d="M1639.2,800.3h3.6l-0.6,2.6h-3.6l-2.2,10.6c0,0.4-0.1,0.8-0.1,1.2c0,0.9,0.8,1.2,1.8,1.2
			c0.6,0,1.2-0.1,1.7-0.3l-0.5,2.7c-0.7,0.1-1.4,0.2-2.1,0.2c-2.2,0-4.1-0.6-4.1-2.9c0-0.5,0.1-0.9,0.2-1.5l2.4-11.2h-3l0.6-2.6h3
			l1.1-5.4h3L1639.2,800.3z"/>
		<path class="st3" d="M1647.6,793.4h3l-2.1,9.6l0.1,0.1c1.5-2.1,3.9-3.2,6.4-3.2c3.4,0,5,1.4,5,4.7c0,0.8-0.2,2.1-0.5,3.5
			l-2.2,10.3h-3l2.3-10.6c0.1-0.7,0.4-2.2,0.4-2.8c0-1.7-1.4-2.5-3.2-2.5c-1.6,0-3.4,0.9-4.5,2.1c-1.1,0.9-1.6,2.3-2,3.8l-2.1,10h-3
			L1647.6,793.4z"/>
		<path class="st3" d="M1665.6,800.3h3l-3.8,18.1h-3L1665.6,800.3z M1669.3,797.1h-3l0.8-3.6h3L1669.3,797.1z"/>
		<path class="st3" d="M1682.2,805.7c0.1-2.1-1.6-3.1-3.7-3.1c-1.8,0-3.9,0.5-3.9,2.3c0,1.6,2.4,2.4,4.8,3.3
			c2.4,1.1,4.8,2.2,4.8,5.1c0,4-3.9,5.6-7.4,5.6c-4.1,0-7.3-1.5-7.3-6.1h3c-0.2,2.7,2.1,3.5,4.6,3.5c2,0,4.1-0.7,4.1-2.8
			c0-1.8-2.4-2.4-4.8-3.4c-2.4-0.9-4.8-2.2-4.8-4.9c0-3.4,3.4-5.2,6.7-5.2s6.8,1.5,6.8,5.7H1682.2z"/>
		<path class="st3" d="M1699.9,800.3h2.8l-0.6,2.6h0.1c1.8-2.3,3.6-3,6-3c4.6,0,7.1,3,7.1,7.4c0,5.5-3.7,11.5-10,11.5
			c-2.2,0-5-0.8-5.6-3.2h-0.1l-1.9,9.7h-2.9L1699.9,800.3z M1707.6,802.5c-4.5,0-7.1,5.2-7.1,9c0,2.7,1.6,4.7,4.6,4.7
			c4.7,0,7.2-4.9,7.2-8.9C1712.3,804.4,1710.9,802.5,1707.6,802.5z"/>
		<path class="st3" d="M1720.7,800.3h2.8l-0.9,3.9h0.1c1.4-2.5,3.5-4.3,6.6-4.3c0.4,0,0.7-0.1,1,0l-0.7,3.2c-0.1,0-0.3,0-0.5,0h-0.4
			c-0.7,0-1.1,0-1.8,0.2c-1.6,0.4-2.9,1.5-3.9,2.9c-0.8,1.2-1.2,2.9-1.5,4.2l-1.7,8h-3L1720.7,800.3z"/>
		<path class="st3" d="M1739.4,799.9c4.9,0,7.5,2.6,7.5,7.5c0,5.9-3.7,11.4-10,11.4c-4.8,0-7.6-3.2-7.6-7.6
			C1729.3,805.4,1733.1,799.9,1739.4,799.9z M1737.3,816.2c4.3,0,6.7-5,6.7-8.6c0-2.8-1.5-5.1-4.8-5.1c-4.6,0-6.9,5-6.9,8.7
			C1732.3,814.2,1734,816.2,1737.3,816.2z"/>
		<path class="st3" d="M1763.4,806.1c0-2.2-1.5-3.5-3.8-3.5c-4.6,0-7,4.6-7,8.5c0,2.8,1.1,5.2,4.5,5.2c2.6,0,4.4-1.5,5.3-3.7h3
			c-1.1,4.1-4.1,6.3-8.3,6.3c-4.9,0-7.5-2.9-7.5-7.8c0-5.7,3.5-11.1,10-11.1c4.1,0,6.7,1.9,6.8,6.2H1763.4z"/>
		<path class="st3" d="M1771.1,810.3c-0.1,0.5-0.1,1.1-0.1,1.6c0,2.8,2.3,4.4,4.7,4.4c2.6,0,4.4-1.2,5.2-3.5h3
			c-0.9,4-4.3,6.1-8.2,6.1c-6,0-7.7-4.1-7.7-7.3c0-6.9,4.3-11.7,9.3-11.7c5.3,0,7.7,2.9,7.7,8c0,0.9-0.2,1.8-0.3,2.3H1771.1z
			 M1782,807.7c0.2-2.6-0.9-5.1-4.2-5.1c-3.5,0-5.4,2.3-6.3,5.1H1782z"/>
		<path class="st3" d="M1802.3,818.4h-2.8l0.6-2.6h-0.1c-1.8,2.3-3.6,3-6,3c-4.6,0-7.1-3-7.1-7.4c0-5.5,3.7-11.5,10-11.5
			c2.2,0,4.9,0.8,5.6,3.2h0.1l1.9-9.7h2.9L1802.3,818.4z M1794.6,816.2c4.5,0,7.1-5.2,7.1-9c0-2.7-1.6-4.7-4.6-4.7
			c-4.7,0-7.2,4.9-7.2,8.9C1790,814.4,1791.4,816.2,1794.6,816.2z"/>
		<path class="st3" d="M1821.6,818.4h-2.9l0.6-2.7h-0.1c-1.5,2.1-3.9,3.2-6.4,3.2c-3.4,0-5-1.4-5-4.7c0-0.8,0.2-2.1,0.5-3.5
			l2.2-10.3h3l-2.3,10.6c-0.2,0.7-0.4,2.2-0.4,2.8c0,1.7,1.4,2.5,3.2,2.5c3.3,0,5.8-2.9,6.5-5.9l2.1-10h3L1821.6,818.4z"/>
		<path class="st3" d="M1830.2,800.3h2.8l-0.9,3.9h0.1c1.4-2.5,3.5-4.3,6.6-4.3c0.4,0,0.7-0.1,1,0l-0.7,3.2c-0.1,0-0.3,0-0.5,0h-0.4
			c-0.7,0-1.1,0-1.8,0.2c-1.6,0.4-2.9,1.5-3.9,2.9c-0.8,1.2-1.2,2.9-1.5,4.2l-1.7,8h-3L1830.2,800.3z"/>
		<path class="st3" d="M1841.7,810.3c-0.1,0.5-0.1,1.1-0.1,1.6c0,2.8,2.3,4.4,4.7,4.4c2.6,0,4.4-1.2,5.2-3.5h3
			c-0.9,4-4.3,6.1-8.2,6.1c-6,0-7.7-4.1-7.7-7.3c0-6.9,4.3-11.7,9.3-11.7c5.3,0,7.7,2.9,7.7,8c0,0.9-0.2,1.8-0.3,2.3H1841.7z
			 M1852.6,807.7c0.2-2.6-0.9-5.1-4.2-5.1c-3.5,0-5.4,2.3-6.3,5.1H1852.6z"/>
		<path class="st3" d="M1858.4,814.5h3.9l-0.8,3.9h-3.9L1858.4,814.5z"/>
		<path class="st3" d="M1898.8,796.2h-8.4l-4.7,22.2h-3.3l4.7-22.2h-8.4l0.6-2.8h20.2L1898.8,796.2z"/>
		<path class="st3" d="M1901.7,793.4h3l-2.1,9.6l0.1,0.1c1.5-2.1,3.9-3.2,6.4-3.2c3.4,0,5,1.4,5,4.7c0,0.8-0.2,2.1-0.5,3.5
			l-2.2,10.3h-3l2.3-10.6c0.1-0.7,0.4-2.2,0.4-2.8c0-1.7-1.4-2.5-3.2-2.5c-1.6,0-3.4,0.9-4.5,2.1c-1.1,0.9-1.6,2.3-2,3.8l-2.1,10h-3
			L1901.7,793.4z"/>
		<path class="st3" d="M1919.7,800.3h3l-3.8,18.1h-3L1919.7,800.3z M1923.4,797.1h-3l0.8-3.6h3L1923.4,797.1z"/>
		<path class="st3" d="M1936.3,805.7c0.1-2.1-1.6-3.1-3.7-3.1c-1.8,0-3.9,0.5-3.9,2.3c0,1.6,2.4,2.4,4.8,3.3
			c2.4,1.1,4.8,2.2,4.8,5.1c0,4-3.9,5.6-7.4,5.6c-4.1,0-7.3-1.5-7.3-6.1h3c-0.2,2.7,2.1,3.5,4.6,3.5c2,0,4.1-0.7,4.1-2.8
			c0-1.8-2.4-2.4-4.8-3.4c-2.4-0.9-4.8-2.2-4.8-4.9c0-3.4,3.4-5.2,6.7-5.2s6.8,1.5,6.8,5.7H1936.3z"/>
		<path class="st3" d="M1105.7,844.3h3.6l-0.6,2.6h-3.6l-2.2,10.6c0,0.4-0.1,0.8-0.1,1.2c0,0.9,0.8,1.2,1.8,1.2
			c0.6,0,1.2-0.1,1.7-0.3l-0.5,2.7c-0.7,0.1-1.4,0.2-2.1,0.2c-2.2,0-4.1-0.6-4.1-2.9c0-0.5,0.1-0.9,0.2-1.5l2.4-11.2h-3l0.6-2.6h3
			l1.1-5.4h3L1105.7,844.3z"/>
		<path class="st3" d="M1114.7,865.5c-1.5,2.3-2.8,4.3-5.8,4.3c-0.7,0-1.5-0.2-2.1-0.5l0.5-2.4c0.5,0.3,1.2,0.5,1.7,0.5
			c1.4,0,2.1-0.8,2.8-2l1.8-3l-3.2-18.1h3.2l2.1,14.4h0.1l7.6-14.4h3.3L1114.7,865.5z"/>
		<path class="st3" d="M1129.4,844.3h2.8l-0.6,2.6h0.1c1.8-2.3,3.6-3,6-3c4.6,0,7.1,3,7.1,7.4c0,5.5-3.7,11.5-10,11.5
			c-2.2,0-5-0.8-5.6-3.2h-0.1l-1.9,9.7h-2.9L1129.4,844.3z M1137.1,846.5c-4.5,0-7.1,5.2-7.1,9c0,2.7,1.6,4.7,4.6,4.7
			c4.7,0,7.2-4.9,7.2-8.9C1141.8,848.4,1140.4,846.5,1137.1,846.5z"/>
		<path class="st3" d="M1150.1,854.3c-0.1,0.5-0.1,1.1-0.1,1.6c0,2.8,2.3,4.4,4.7,4.4c2.6,0,4.4-1.2,5.2-3.5h3
			c-0.9,4-4.3,6.1-8.2,6.1c-6,0-7.7-4.1-7.7-7.3c0-6.9,4.3-11.7,9.3-11.7c5.3,0,7.7,2.9,7.7,8c0,0.9-0.2,1.8-0.3,2.3H1150.1z
			 M1161,851.7c0.2-2.6-0.9-5.1-4.2-5.1c-3.5,0-5.4,2.3-6.3,5.1H1161z"/>
		<path class="st3" d="M1185.9,843.9c4.9,0,7.5,2.6,7.5,7.5c0,5.9-3.7,11.4-10,11.4c-4.8,0-7.6-3.2-7.6-7.6
			C1175.7,849.4,1179.5,843.9,1185.9,843.9z M1183.7,860.2c4.3,0,6.7-5,6.7-8.6c0-2.8-1.5-5.1-4.8-5.1c-4.6,0-6.9,5-6.9,8.7
			C1178.7,858.2,1180.4,860.2,1183.7,860.2z"/>
		<path class="st3" d="M1199.4,847h-3.1l0.5-2.6h3.1c0.9-3.6,1.1-7.2,5.8-7.2c0.8,0,1.7,0,2.5,0.3l-0.5,2.5c-0.5-0.1-1-0.2-1.4-0.2
			c-2.9,0-2.9,2.3-3.5,4.6h3.5l-0.5,2.6h-3.5l-3.3,15.5h-3L1199.4,847z"/>
		<path class="st3" d="M1229.9,850.1c0-2.2-1.5-3.5-3.8-3.5c-4.6,0-7,4.6-7,8.5c0,2.8,1.1,5.2,4.5,5.2c2.6,0,4.4-1.5,5.3-3.7h3
			c-1.1,4.1-4.1,6.3-8.3,6.3c-4.9,0-7.5-2.9-7.5-7.8c0-5.7,3.5-11.1,10-11.1c4.1,0,6.7,1.9,6.8,6.2H1229.9z"/>
		<path class="st3" d="M1239.2,837.4h3l-2.1,9.6l0.1,0.1c1.5-2.1,3.9-3.2,6.4-3.2c3.4,0,5,1.4,5,4.7c0,0.8-0.2,2.1-0.5,3.5
			l-2.2,10.3h-3l2.3-10.6c0.1-0.7,0.4-2.2,0.4-2.8c0-1.7-1.4-2.5-3.2-2.5c-1.6,0-3.4,0.9-4.5,2.1c-1.1,0.9-1.6,2.3-2,3.8l-2.1,10h-3
			L1239.2,837.4z"/>
		<path class="st3" d="M1255.4,849.8c0.6-4,4-5.9,7.8-5.9c3.5,0,6.6,1,6.6,4.6c0,1-0.3,2.3-0.6,3.3l-1.2,4.9
			c-0.1,0.7-0.5,1.8-0.5,2.6s0.3,1.1,0.9,1.1c0.3,0,0.7-0.1,0.9-0.2l-0.5,2.2c-0.5,0.2-1.3,0.4-1.8,0.4c-1.6,0-2.5-1-2.3-2.6
			l-0.1-0.1c-1.3,1.7-3,2.6-6.1,2.6c-3,0-5.5-1.4-5.5-5.1c0-5.3,5.1-5.6,9.1-6c3.2-0.3,4.5-0.5,4.5-2.9c0-1.9-2.1-2.4-3.6-2.4
			c-2.3,0-4.5,0.9-4.9,3.3H1255.4z M1259.5,860.2c2.3,0,4.1-0.8,5.1-2.4c1-1.4,1.2-3,1.6-4.7h-0.1c-2.5,1.8-9.8-0.1-9.8,4.5
			C1256.2,859.4,1257.8,860.2,1259.5,860.2z"/>
		<path class="st3" d="M1275.4,844.3h2.9l-0.6,2.7h0.1c1.5-2.1,3.9-3.2,6.4-3.2c3.4,0,5,1.4,5,4.7c0,0.8-0.2,2.1-0.5,3.5l-2.2,10.3
			h-3l2.3-10.6c0.1-0.7,0.4-2.2,0.4-2.8c0-1.7-1.4-2.5-3.2-2.5c-1.6,0-3.4,0.9-4.5,2.1c-1.1,0.9-1.6,2.3-2,3.8l-2.1,10h-3
			L1275.4,844.3z"/>
		<path class="st3" d="M1307.3,859.8c-0.4,1.9-0.9,3.7-1.4,4.9c-1.5,3.6-4.3,5-8.2,5c-3.7,0-7.1-1.6-7.2-5.6h3c0.2,2.4,2.3,3,4.6,3
			c4.6,0,5.6-3.7,6.5-7.3l-0.1-0.1c-1.3,2-3.4,2.8-5.6,2.8c-4.5,0-6.8-3.2-6.8-7.5c0-5.3,3.5-11.2,9.4-11.2c2.7,0,5.2,1.4,5.7,3.7
			v0.1h0.1l0.6-3.3h2.8L1307.3,859.8z M1299.4,859.9c4.5,0,6.6-5,6.6-8.7c0-2.8-1.5-4.7-4.6-4.7c-4.2,0-6.4,5.2-6.4,8.5
			C1294.9,857.7,1296.4,859.9,1299.4,859.9z"/>
		<path class="st3" d="M1314.7,854.3c-0.1,0.5-0.1,1.1-0.1,1.6c0,2.8,2.3,4.4,4.7,4.4c2.6,0,4.4-1.2,5.2-3.5h3
			c-0.9,4-4.3,6.1-8.2,6.1c-6,0-7.7-4.1-7.7-7.3c0-6.9,4.3-11.7,9.3-11.7c5.3,0,7.7,2.9,7.7,8c0,0.9-0.2,1.8-0.3,2.3H1314.7z
			 M1325.6,851.7c0.2-2.6-0.9-5.1-4.2-5.1c-3.5,0-5.4,2.3-6.3,5.1H1325.6z"/>
		<path class="st3" d="M1343.5,844.3h2.8l-0.7,2.7l0.1,0.1c1.5-1.9,3.8-3.2,6.3-3.2c2.3,0,4,0.9,4.5,3.3c1.4-2,3.8-3.3,6.2-3.3
			c2.6,0,5,1.1,5,4.1c0,1.1-0.3,2.6-0.5,3.6l-2.3,10.9h-3l2.5-11.5c0.1-0.6,0.3-1.4,0.3-2c0-1.4-1.2-2.4-2.8-2.4
			c-1.7,0-3.5,1.2-4.6,2.5c-1,1.1-1.4,2.5-1.7,4.1l-2,9.3h-3l2.2-10.3c0.3-1.4,0.6-2.8,0.6-3.2c0-1.5-0.9-2.4-2.5-2.4
			c-1.6,0-3.4,1.1-4.4,2.3c-1.3,1.2-1.5,2.3-1.9,4.1l-2,9.5h-3L1343.5,844.3z"/>
		<path class="st3" d="M1384,862.4h-2.9l0.6-2.7h-0.1c-1.5,2.1-3.9,3.2-6.4,3.2c-3.4,0-5-1.4-5-4.7c0-0.8,0.2-2.1,0.5-3.5l2.2-10.3
			h3l-2.3,10.6c-0.2,0.7-0.4,2.2-0.4,2.8c0,1.7,1.4,2.5,3.2,2.5c3.3,0,5.8-2.9,6.5-5.9l2.1-10h3L1384,862.4z"/>
		<path class="st3" d="M1401.5,849.7c0.1-2.1-1.6-3.1-3.7-3.1c-1.8,0-3.9,0.5-3.9,2.3c0,1.6,2.4,2.4,4.8,3.3
			c2.4,1.1,4.8,2.2,4.8,5.1c0,4-3.9,5.6-7.4,5.6c-4.1,0-7.3-1.5-7.3-6.1h3c-0.2,2.7,2.1,3.5,4.6,3.5c2,0,4.1-0.7,4.1-2.8
			c0-1.8-2.4-2.4-4.8-3.4c-2.4-0.9-4.8-2.2-4.8-4.9c0-3.4,3.4-5.2,6.7-5.2s6.8,1.5,6.8,5.7H1401.5z"/>
		<path class="st3" d="M1413.7,844.3h3.6l-0.6,2.6h-3.6l-2.2,10.6c0,0.4-0.1,0.8-0.1,1.2c0,0.9,0.8,1.2,1.8,1.2
			c0.6,0,1.2-0.1,1.7-0.3l-0.5,2.7c-0.7,0.1-1.4,0.2-2.1,0.2c-2.2,0-4.1-0.6-4.1-2.9c0-0.5,0.1-0.9,0.2-1.5l2.4-11.2h-3l0.6-2.6h3
			l1.1-5.4h3L1413.7,844.3z"/>
		<path class="st3" d="M1430.9,847h-3.1l0.5-2.6h3.1c0.9-3.6,1.1-7.2,5.8-7.2c0.8,0,1.7,0,2.5,0.3l-0.5,2.5c-0.5-0.1-1-0.2-1.4-0.2
			c-2.9,0-2.9,2.3-3.5,4.6h3.5l-0.5,2.6h-3.5l-3.3,15.5h-3L1430.9,847z"/>
		<path class="st3" d="M1447.8,843.9c4.9,0,7.5,2.6,7.5,7.5c0,5.9-3.7,11.4-10,11.4c-4.8,0-7.6-3.2-7.6-7.6
			C1437.6,849.4,1441.4,843.9,1447.8,843.9z M1445.6,860.2c4.3,0,6.7-5,6.7-8.6c0-2.8-1.5-5.1-4.8-5.1c-4.6,0-6.9,5-6.9,8.7
			C1440.6,858.2,1442.3,860.2,1445.6,860.2z"/>
		<path class="st3" d="M1462.2,837.4h3l-5.2,25h-3L1462.2,837.4z"/>
		<path class="st3" d="M1470,837.4h3l-5.2,25h-3L1470,837.4z"/>
		<path class="st3" d="M1483.4,843.9c4.9,0,7.5,2.6,7.5,7.5c0,5.9-3.7,11.4-10,11.4c-4.8,0-7.6-3.2-7.6-7.6
			C1473.3,849.4,1477.1,843.9,1483.4,843.9z M1481.2,860.2c4.3,0,6.7-5,6.7-8.6c0-2.8-1.5-5.1-4.8-5.1c-4.6,0-6.9,5-6.9,8.7
			C1476.3,858.2,1478,860.2,1481.2,860.2z"/>
		<path class="st3" d="M1510.1,862.4h-3.2l-0.9-14.1h-0.1l-6.5,14.1h-3.2l-2.1-18.1h3.2l1.1,14.4h0.1l6.5-14.4h3.4l0.9,14.4h0.1
			l6.9-14.4h3.2L1510.1,862.4z"/>
		<path class="st3" d="M1536.8,844.3h3.6l-0.6,2.6h-3.6l-2.2,10.6c0,0.4-0.1,0.8-0.1,1.2c0,0.9,0.8,1.2,1.8,1.2
			c0.6,0,1.2-0.1,1.7-0.3l-0.5,2.7c-0.7,0.1-1.4,0.2-2.1,0.2c-2.2,0-4.1-0.6-4.1-2.9c0-0.5,0.1-0.9,0.2-1.5l2.4-11.2h-3l0.6-2.6h3
			l1.1-5.4h3L1536.8,844.3z"/>
		<path class="st3" d="M1545.2,837.4h3l-2.1,9.6l0.1,0.1c1.5-2.1,3.9-3.2,6.4-3.2c3.4,0,5,1.4,5,4.7c0,0.8-0.2,2.1-0.5,3.5
			l-2.2,10.3h-3l2.3-10.6c0.1-0.7,0.4-2.2,0.4-2.8c0-1.7-1.4-2.5-3.2-2.5c-1.6,0-3.4,0.9-4.5,2.1c-1.1,0.9-1.6,2.3-2,3.8l-2.1,10h-3
			L1545.2,837.4z"/>
		<path class="st3" d="M1563,854.3c-0.1,0.5-0.1,1.1-0.1,1.6c0,2.8,2.3,4.4,4.7,4.4c2.6,0,4.4-1.2,5.2-3.5h3c-0.9,4-4.3,6.1-8.2,6.1
			c-6,0-7.7-4.1-7.7-7.3c0-6.9,4.3-11.7,9.3-11.7c5.3,0,7.7,2.9,7.7,8c0,0.9-0.2,1.8-0.3,2.3H1563z M1573.9,851.7
			c0.2-2.6-0.9-5.1-4.2-5.1c-3.5,0-5.4,2.3-6.3,5.1H1573.9z"/>
		<path class="st3" d="M1593.6,837.4h8.8c6.2,0,9.5,3.6,9.5,9.6c0,9.4-5.6,15.4-13.9,15.4h-9.6L1593.6,837.4z M1592.2,859.6h5.8
			c7.1,0,10.5-6.2,10.5-12.3c0-3.7-1.4-7.1-6.9-7.1h-5.3L1592.2,859.6z"/>
		<path class="st3" d="M1616.1,854.3c-0.1,0.5-0.1,1.1-0.1,1.6c0,2.8,2.3,4.4,4.7,4.4c2.6,0,4.4-1.2,5.2-3.5h3
			c-0.9,4-4.3,6.1-8.2,6.1c-6,0-7.7-4.1-7.7-7.3c0-6.9,4.3-11.7,9.3-11.7c5.3,0,7.7,2.9,7.7,8c0,0.9-0.2,1.8-0.3,2.3H1616.1z
			 M1627.1,851.7c0.2-2.6-0.9-5.1-4.2-5.1c-3.5,0-5.4,2.3-6.3,5.1H1627.1z"/>
		<path class="st3" d="M1643.9,849.7c0.1-2.1-1.6-3.1-3.7-3.1c-1.8,0-3.9,0.5-3.9,2.3c0,1.6,2.4,2.4,4.8,3.3
			c2.4,1.1,4.8,2.2,4.8,5.1c0,4-3.9,5.6-7.4,5.6c-4.1,0-7.3-1.5-7.3-6.1h3c-0.2,2.7,2.1,3.5,4.6,3.5c2,0,4.1-0.7,4.1-2.8
			c0-1.8-2.4-2.4-4.8-3.4c-2.4-0.9-4.8-2.2-4.8-4.9c0-3.4,3.4-5.2,6.7-5.2s6.8,1.5,6.8,5.7H1643.9z"/>
		<path class="st3" d="M1652,844.3h3l-3.8,18.1h-3L1652,844.3z M1655.6,841.1h-3l0.8-3.6h3L1655.6,841.1z"/>
		<path class="st3" d="M1672.2,859.8c-0.4,1.9-0.9,3.7-1.4,4.9c-1.5,3.6-4.3,5-8.2,5c-3.7,0-7.1-1.6-7.2-5.6h3c0.2,2.4,2.3,3,4.6,3
			c4.6,0,5.6-3.7,6.5-7.3l-0.1-0.1c-1.3,2-3.4,2.8-5.6,2.8c-4.5,0-6.8-3.2-6.8-7.5c0-5.3,3.5-11.2,9.4-11.2c2.7,0,5.2,1.4,5.7,3.7
			v0.1h0.1l0.6-3.3h2.8L1672.2,859.8z M1664.3,859.9c4.5,0,6.6-5,6.6-8.7c0-2.8-1.5-4.7-4.6-4.7c-4.2,0-6.4,5.2-6.4,8.5
			C1659.8,857.7,1661.3,859.9,1664.3,859.9z"/>
		<path class="st3" d="M1679.8,844.3h2.9l-0.6,2.7h0.1c1.5-2.1,3.9-3.2,6.4-3.2c3.4,0,5,1.4,5,4.7c0,0.8-0.2,2.1-0.5,3.5l-2.2,10.3
			h-3l2.3-10.6c0.1-0.7,0.4-2.2,0.4-2.8c0-1.7-1.4-2.5-3.2-2.5c-1.6,0-3.4,0.9-4.5,2.1c-1.1,0.9-1.6,2.3-2,3.8l-2.1,10h-3
			L1679.8,844.3z"/>
		<path class="st3" d="M1728.5,854c-1.3,5.6-4.9,9-11.1,9c-6.8,0-10.7-4.1-10.7-11c0-8.1,5.2-15.2,13.7-15.2c5.4,0,9.5,2.9,9.5,8.6
			h-3.3c0-3.9-2.6-5.8-6.2-5.8c-7,0-10.4,6.4-10.4,12.4c0,4.9,2.4,8.2,7.4,8.2c4.1,0,6.7-2.3,7.7-6.2H1728.5z"/>
		<path class="st3" d="M1735.8,837.4h3l-2.1,9.6l0.1,0.1c1.5-2.1,3.9-3.2,6.4-3.2c3.4,0,5,1.4,5,4.7c0,0.8-0.2,2.1-0.5,3.5
			l-2.2,10.3h-3l2.3-10.6c0.1-0.7,0.4-2.2,0.4-2.8c0-1.7-1.4-2.5-3.2-2.5c-1.6,0-3.4,0.9-4.5,2.1c-1.1,0.9-1.6,2.3-2,3.8l-2.1,10h-3
			L1735.8,837.4z"/>
		<path class="st3" d="M1752,849.8c0.6-4,4-5.9,7.8-5.9c3.5,0,6.6,1,6.6,4.6c0,1-0.3,2.3-0.6,3.3l-1.2,4.9c-0.1,0.7-0.5,1.8-0.5,2.6
			s0.3,1.1,0.9,1.1c0.3,0,0.7-0.1,0.9-0.2l-0.5,2.2c-0.5,0.2-1.3,0.4-1.8,0.4c-1.6,0-2.5-1-2.3-2.6l-0.1-0.1c-1.3,1.7-3,2.6-6.1,2.6
			c-3,0-5.5-1.4-5.5-5.1c0-5.3,5.1-5.6,9.1-6c3.2-0.3,4.5-0.5,4.5-2.9c0-1.9-2.1-2.4-3.6-2.4c-2.3,0-4.5,0.9-4.9,3.3H1752z
			 M1756,860.2c2.3,0,4.1-0.8,5.1-2.4c1-1.4,1.2-3,1.6-4.7h-0.1c-2.5,1.8-9.8-0.1-9.8,4.5C1752.7,859.4,1754.3,860.2,1756,860.2z"/>
		<path class="st3" d="M1771.9,844.3h2.9l-0.6,2.7h0.1c1.5-2.1,3.9-3.2,6.4-3.2c3.4,0,5,1.4,5,4.7c0,0.8-0.2,2.1-0.5,3.5l-2.2,10.3
			h-3l2.3-10.6c0.1-0.7,0.4-2.2,0.4-2.8c0-1.7-1.4-2.5-3.2-2.5c-1.6,0-3.4,0.9-4.5,2.1c-1.1,0.9-1.6,2.3-2,3.8l-2.1,10h-3
			L1771.9,844.3z"/>
		<path class="st3" d="M1803.8,859.8c-0.4,1.9-0.9,3.7-1.4,4.9c-1.5,3.6-4.3,5-8.2,5c-3.7,0-7.1-1.6-7.2-5.6h3c0.2,2.4,2.3,3,4.6,3
			c4.6,0,5.6-3.7,6.5-7.3l-0.1-0.1c-1.3,2-3.4,2.8-5.6,2.8c-4.5,0-6.8-3.2-6.8-7.5c0-5.3,3.5-11.2,9.4-11.2c2.7,0,5.2,1.4,5.7,3.7
			v0.1h0.1l0.6-3.3h2.8L1803.8,859.8z M1795.9,859.9c4.5,0,6.6-5,6.6-8.7c0-2.8-1.5-4.7-4.6-4.7c-4.2,0-6.4,5.2-6.4,8.5
			C1791.5,857.7,1792.9,859.9,1795.9,859.9z"/>
		<path class="st3" d="M1811.3,854.3c-0.1,0.5-0.1,1.1-0.1,1.6c0,2.8,2.3,4.4,4.7,4.4c2.6,0,4.4-1.2,5.2-3.5h3
			c-0.9,4-4.3,6.1-8.2,6.1c-6,0-7.7-4.1-7.7-7.3c0-6.9,4.3-11.7,9.3-11.7c5.3,0,7.7,2.9,7.7,8c0,0.9-0.2,1.8-0.3,2.3H1811.3z
			 M1822.2,851.7c0.2-2.6-0.9-5.1-4.2-5.1c-3.5,0-5.4,2.3-6.3,5.1H1822.2z"/>
		<path class="st3" d="M1839.1,849.7c0.1-2.1-1.6-3.1-3.7-3.1c-1.8,0-3.9,0.5-3.9,2.3c0,1.6,2.4,2.4,4.8,3.3
			c2.4,1.1,4.8,2.2,4.8,5.1c0,4-3.9,5.6-7.4,5.6c-4.1,0-7.3-1.5-7.3-6.1h3c-0.2,2.7,2.1,3.5,4.6,3.5c2,0,4.1-0.7,4.1-2.8
			c0-1.8-2.4-2.4-4.8-3.4c-2.4-0.9-4.8-2.2-4.8-4.9c0-3.4,3.4-5.2,6.7-5.2s6.8,1.5,6.8,5.7H1839.1z"/>
		<path class="st3" d="M1871.4,844.8c0.1-4-2.3-5.2-5.7-5.2c-2.4,0-5.8,1.2-5.8,4.1c0,2.4,1.8,3.4,4.1,4l3.4,0.9
			c3.1,0.8,6,2.3,6,6.8c0,5.2-5.2,7.6-9.7,7.6c-6,0-10.3-2.7-9.8-8.8h3.3c-0.2,4.5,2.6,6,6.7,6c3.1,0,6.3-1.4,6.3-4.8
			c0-2.6-2-3.5-4.4-4.1l-3.4-0.9c-3-0.8-5.6-2.6-5.6-6.3c0-4.8,4.7-7.2,9.1-7.2c4.9,0,9.2,2.4,9.1,8H1871.4z"/>
		<path class="st3" d="M1890.9,836.8c6.5,0,10.4,4.9,10.4,11.1c0,7.8-5.1,15.1-13.4,15.1c-6.8,0-10.7-4.1-10.7-11
			C1877.2,844,1882.4,836.8,1890.9,836.8z M1887.9,860.2c6.6,0,10.1-6.3,10.1-12.3c0-4.6-2.5-8.3-7.1-8.3c-7,0-10.4,6.4-10.4,12.4
			C1880.5,856.9,1882.9,860.2,1887.9,860.2z"/>
		<path class="st3" d="M1907.9,837.4h9.8c4.8,0,7.4,2.3,7.4,6.9c0,3.1-2.2,7.9-9.6,7.9h-7.4l-2.2,10.2h-3.3L1907.9,837.4z
			 M1908.8,849.4h7.5c3.6,0,5.5-2.1,5.5-5.1c0-3.1-1.9-4.1-4.1-4.1h-7L1908.8,849.4z"/>
		<path class="st3" d="M1102.1,913.4c-1.7-3.6-2.8-8.8-2.8-12.9c0-7.9,3.9-13.8,9-19.6h2.5c-5.1,6.1-8.5,12.8-8.5,20.9
			c0,4,0.5,7.8,1.8,11.6H1102.1z"/>
		<path class="st3" d="M1130,906.4h-3.5l-1.6-21.6h-0.1l-9.9,21.6h-3.6l-1.6-25h3.3l0.9,21h0.1l9.6-21h3.8l1.4,21.1h0.1l9.1-21.1
			h3.4L1130,906.4z"/>
		<path class="st3" d="M1145,881.4h3.4l-2.3,10.7h13.1l2.2-10.7h3.3l-5.2,25h-3.3l2.4-11.4h-13.1l-2.4,11.4h-3.3L1145,881.4z"/>
		<path class="st3" d="M1164.8,909.1h17.5v1.8h-17.5V909.1z"/>
		<path class="st3" d="M1203.6,909l-3.5-3.4c-1.7,0.9-3.6,1.4-5.8,1.4c-6.8,0-10.7-4.1-10.7-11c0-8.1,5.2-15.2,13.7-15.2
			c6.5,0,10.4,4.9,10.4,11.1c0,4.8-1.9,9.4-5.3,12.2l3,2.9L1203.6,909z M1197.5,899.3l2.8,2.7c2.8-2.3,4.2-6.4,4.2-10.1
			c0-4.6-2.5-8.3-7.1-8.3c-7,0-10.4,6.4-10.4,12.4c0,4.9,2.4,8.2,7.4,8.2c1.3,0,2.5-0.2,3.6-0.7l-2.3-2.2L1197.5,899.3z"/>
		<path class="st3" d="M1214.3,881.4h4.6l3.3,21.5h0.1l12.4-21.5h4.6l-5.3,25h-3.2l5.1-21.9h-0.1l-12.7,21.9h-3.2l-3.3-21.9h-0.1
			l-4.4,21.9h-3.2L1214.3,881.4z"/>
		<path class="st3" d="M1257.4,888.8c0.1-4-2.3-5.2-5.7-5.2c-2.4,0-5.8,1.2-5.8,4.1c0,2.4,1.8,3.4,4.1,4l3.4,0.9
			c3.1,0.8,6,2.3,6,6.8c0,5.2-5.2,7.6-9.7,7.6c-6,0-10.3-2.7-9.8-8.8h3.3c-0.2,4.5,2.6,6,6.7,6c3.1,0,6.3-1.4,6.3-4.8
			c0-2.6-2-3.5-4.4-4.1l-3.4-0.9c-3-0.8-5.6-2.6-5.6-6.3c0-4.8,4.7-7.2,9.1-7.2c4.9,0,9.2,2.4,9.1,8H1257.4z"/>
		<path class="st3" d="M1261.9,909.1h17.5v1.8h-17.5V909.1z"/>
		<path class="st3" d="M1297.6,888.8c0.1-4-2.3-5.2-5.7-5.2c-2.4,0-5.8,1.2-5.8,4.1c0,2.4,1.8,3.4,4.1,4l3.4,0.9
			c3.1,0.8,6,2.3,6,6.8c0,5.2-5.2,7.6-9.7,7.6c-6,0-10.3-2.7-9.8-8.8h3.3c-0.2,4.5,2.6,6,6.7,6c3.1,0,6.3-1.4,6.3-4.8
			c0-2.6-2-3.5-4.4-4.1l-3.4-0.9c-3-0.8-5.6-2.6-5.6-6.3c0-4.8,4.7-7.2,9.1-7.2c4.9,0,9.2,2.4,9.1,8H1297.6z"/>
		<path class="st3" d="M1317.2,880.8c6.5,0,10.4,4.9,10.4,11.1c0,7.8-5.1,15.1-13.4,15.1c-6.8,0-10.7-4.1-10.7-11
			C1303.5,888,1308.6,880.8,1317.2,880.8z M1314.2,904.2c6.6,0,10.1-6.3,10.1-12.3c0-4.6-2.5-8.3-7.1-8.3c-7,0-10.4,6.4-10.4,12.4
			C1306.8,900.9,1309.2,904.2,1314.2,904.2z"/>
		<path class="st3" d="M1334.2,881.4h9.8c4.8,0,7.4,2.3,7.4,6.9c0,3.1-2.2,7.9-9.6,7.9h-7.4l-2.2,10.2h-3.3L1334.2,881.4z
			 M1335,893.4h7.5c3.6,0,5.5-2.1,5.5-5.1c0-3.1-1.9-4.1-4.1-4.1h-7L1335,893.4z"/>
		<path class="st3" d="M1351.4,909.1h17.5v1.8h-17.5V909.1z"/>
		<path class="st3" d="M1380.6,881.6c4.3,0,6.7,2.8,6.7,9.4c0,4.6-2.5,15.9-10.7,15.9c-5.2,0-6.9-4.3-6.9-9.6
			C1369.7,891.6,1372.8,881.6,1380.6,881.6z M1376.9,904.2c5.5,0,7.2-10.2,7.2-12.4c0-2.8,0.5-7.6-3.8-7.6c-5.4,0-7.5,10-7.5,13.5
			C1372.9,901.7,1374,904.2,1376.9,904.2z"/>
		<path class="st3" d="M1400.1,881.6c4.3,0,6.7,2.8,6.7,9.4c0,4.6-2.5,15.9-10.7,15.9c-5.2,0-6.9-4.3-6.9-9.6
			C1389.2,891.6,1392.3,881.6,1400.1,881.6z M1396.4,904.2c5.5,0,7.2-10.2,7.2-12.4c0-2.8,0.5-7.6-3.8-7.6c-5.4,0-7.5,10-7.5,13.5
			C1392.4,901.7,1393.4,904.2,1396.4,904.2z"/>
		<path class="st3" d="M1410.2,890.1c0.6-5.1,3.6-8.4,8.9-8.4c4,0,7,2.5,7,6.6c0,6.1-6.7,8.6-11,11.3c-1.6,1-3.4,2.5-4.1,4.3h12.9
			l-0.6,2.6h-15.8c0.6-7.5,7.2-9.1,12.1-12.8c1.8-1.4,3.2-2.8,3.2-5.3c0-2.6-1.6-4.2-4.2-4.2c-3.4,0-5.2,2.7-5.4,5.8H1410.2z"/>
		<path class="st3" d="M1430.5,900.5c0,2.4,1.1,3.7,3.6,3.7c4.7,0,6.4-4.9,7.5-8.5l-0.1-0.1c-1.2,1.7-3.4,2.5-5.5,2.5
			c-4.1,0-7-3.3-7-7.3c0-5,3.4-9.2,8.6-9.2c5.2,0,7.6,3.4,7.6,8.3c0,3.3-0.8,7.1-2.1,10c-1.9,4.2-4.2,6.9-9.2,6.9
			c-4.1,0-6.9-2-6.8-6.3H1430.5z M1442.3,889.3c0-3.1-1.6-5.1-4.8-5.1c-3.4,0-5.2,3.4-5.2,6.4c0,2.8,1.6,4.8,4.5,4.8
			C1440.4,895.4,1442.3,892.6,1442.3,889.3z"/>
		<path class="st3" d="M1442.6,913.4c5.1-6,8.5-12.8,8.5-20.9c0-4-0.5-7.9-1.8-11.7h2c1.6,3.8,2.8,8.8,2.8,12.9c0,8-3.9,13.8-9,19.6
			H1442.6z"/>
		<path class="st3" d="M1467.4,893.8c0.6-4,4-5.9,7.8-5.9c3.5,0,6.6,1,6.6,4.6c0,1-0.3,2.3-0.6,3.3l-1.2,4.9
			c-0.1,0.7-0.5,1.8-0.5,2.6s0.3,1.1,0.9,1.1c0.3,0,0.7-0.1,0.9-0.2l-0.5,2.2c-0.5,0.2-1.3,0.4-1.8,0.4c-1.6,0-2.5-1-2.3-2.6
			l-0.1-0.1c-1.3,1.7-3,2.6-6.1,2.6c-3,0-5.5-1.4-5.5-5.1c0-5.3,5.1-5.6,9.1-6c3.2-0.3,4.5-0.5,4.5-2.9c0-1.9-2.1-2.4-3.6-2.4
			c-2.3,0-4.5,0.9-4.9,3.3H1467.4z M1471.4,904.2c2.3,0,4.1-0.8,5.1-2.4c1-1.4,1.2-3,1.6-4.7h-0.1c-2.5,1.8-9.8-0.1-9.8,4.5
			C1468.1,903.4,1469.7,904.2,1471.4,904.2z"/>
		<path class="st3" d="M1487.3,888.3h2.9l-0.6,2.7h0.1c1.5-2.1,3.9-3.2,6.4-3.2c3.4,0,5,1.4,5,4.7c0,0.8-0.2,2.1-0.5,3.5l-2.2,10.3
			h-3l2.3-10.6c0.1-0.7,0.4-2.2,0.4-2.8c0-1.7-1.4-2.5-3.2-2.5c-1.6,0-3.4,0.9-4.5,2.1c-1.1,0.9-1.6,2.3-2,3.8l-2.1,10h-3
			L1487.3,888.3z"/>
		<path class="st3" d="M1519.1,906.4h-2.8l0.6-2.6h-0.1c-1.8,2.3-3.6,3-6,3c-4.6,0-7.1-3-7.1-7.4c0-5.5,3.7-11.5,10-11.5
			c2.2,0,4.9,0.8,5.6,3.2h0.1l1.9-9.7h2.9L1519.1,906.4z M1511.4,904.2c4.5,0,7.1-5.2,7.1-9c0-2.7-1.6-4.7-4.6-4.7
			c-4.7,0-7.2,4.9-7.2,8.9C1506.7,902.4,1508.1,904.2,1511.4,904.2z"/>
		<path class="st3" d="M1541.4,888.3h3.6l-0.6,2.6h-3.6l-2.2,10.6c0,0.4-0.1,0.8-0.1,1.2c0,0.9,0.8,1.2,1.8,1.2
			c0.6,0,1.2-0.1,1.7-0.3l-0.5,2.7c-0.7,0.1-1.4,0.2-2.1,0.2c-2.2,0-4.1-0.6-4.1-2.9c0-0.5,0.1-0.9,0.2-1.5l2.4-11.2h-3l0.6-2.6h3
			l1.1-5.4h3L1541.4,888.3z"/>
		<path class="st3" d="M1549.8,881.4h3l-2.1,9.6l0.1,0.1c1.5-2.1,3.9-3.2,6.4-3.2c3.4,0,5,1.4,5,4.7c0,0.8-0.2,2.1-0.5,3.5
			l-2.2,10.3h-3l2.3-10.6c0.1-0.7,0.4-2.2,0.4-2.8c0-1.7-1.4-2.5-3.2-2.5c-1.6,0-3.4,0.9-4.5,2.1c-1.1,0.9-1.6,2.3-2,3.8l-2.1,10h-3
			L1549.8,881.4z"/>
		<path class="st3" d="M1567.5,898.3c-0.1,0.5-0.1,1.1-0.1,1.6c0,2.8,2.3,4.4,4.7,4.4c2.6,0,4.4-1.2,5.2-3.5h3
			c-0.9,4-4.3,6.1-8.2,6.1c-6,0-7.7-4.1-7.7-7.3c0-6.9,4.3-11.7,9.3-11.7c5.3,0,7.7,2.9,7.7,8c0,0.9-0.2,1.8-0.3,2.3H1567.5z
			 M1578.5,895.7c0.2-2.6-0.9-5.1-4.2-5.1c-3.5,0-5.4,2.3-6.3,5.1H1578.5z"/>
		<path class="st3" d="M1607.7,880.8c6.5,0,10.4,4.9,10.4,11.1c0,7.8-5.1,15.1-13.4,15.1c-6.8,0-10.7-4.1-10.7-11
			C1594,888,1599.1,880.8,1607.7,880.8z M1604.7,904.2c6.6,0,10.1-6.3,10.1-12.3c0-4.6-2.5-8.3-7.1-8.3c-7,0-10.4,6.4-10.4,12.4
			C1597.3,900.9,1599.7,904.2,1604.7,904.2z"/>
		<path class="st3" d="M1626.4,906.4h-3.2l-2.6-18.1h3.2l1.5,15.1h0.1l7.8-15.1h3.2L1626.4,906.4z"/>
		<path class="st3" d="M1639.5,898.3c-0.1,0.5-0.1,1.1-0.1,1.6c0,2.8,2.3,4.4,4.7,4.4c2.6,0,4.4-1.2,5.2-3.5h3
			c-0.9,4-4.3,6.1-8.2,6.1c-6,0-7.7-4.1-7.7-7.3c0-6.9,4.3-11.7,9.3-11.7c5.3,0,7.7,2.9,7.7,8c0,0.9-0.2,1.8-0.3,2.3H1639.5z
			 M1650.4,895.7c0.2-2.6-0.9-5.1-4.2-5.1c-3.5,0-5.4,2.3-6.3,5.1H1650.4z"/>
		<path class="st3" d="M1658.4,888.3h2.8l-0.9,3.9h0.1c1.4-2.5,3.5-4.3,6.6-4.3c0.4,0,0.7-0.1,1,0l-0.7,3.2c-0.1,0-0.3,0-0.5,0h-0.4
			c-0.7,0-1.1,0-1.8,0.2c-1.6,0.4-2.9,1.5-3.9,2.9c-0.8,1.2-1.2,2.9-1.5,4.2l-1.7,8h-3L1658.4,888.3z"/>
		<path class="st3" d="M1668.3,893.8c0.6-4,4-5.9,7.8-5.9c3.5,0,6.6,1,6.6,4.6c0,1-0.3,2.3-0.6,3.3l-1.2,4.9
			c-0.1,0.7-0.5,1.8-0.5,2.6s0.3,1.1,0.9,1.1c0.3,0,0.7-0.1,0.9-0.2l-0.5,2.2c-0.5,0.2-1.3,0.4-1.8,0.4c-1.6,0-2.5-1-2.3-2.6
			l-0.1-0.1c-1.3,1.7-3,2.6-6.1,2.6c-3,0-5.5-1.4-5.5-5.1c0-5.3,5.1-5.6,9.1-6c3.2-0.3,4.5-0.5,4.5-2.9c0-1.9-2.1-2.4-3.6-2.4
			c-2.3,0-4.5,0.9-4.9,3.3H1668.3z M1672.4,904.2c2.3,0,4.1-0.8,5.1-2.4c1-1.4,1.2-3,1.6-4.7h-0.1c-2.5,1.8-9.8-0.1-9.8,4.5
			C1669.1,903.4,1670.7,904.2,1672.4,904.2z"/>
		<path class="st3" d="M1689.7,881.4h3l-5.2,25h-3L1689.7,881.4z"/>
		<path class="st3" d="M1697.5,881.4h3l-5.2,25h-3L1697.5,881.4z"/>
		<path class="st3" d="M1715.4,881.4h8.8c6.2,0,9.5,3.6,9.5,9.6c0,9.4-5.6,15.4-13.9,15.4h-9.6L1715.4,881.4z M1714,903.6h5.8
			c7.1,0,10.5-6.2,10.5-12.3c0-3.7-1.4-7.1-6.9-7.1h-5.3L1714,903.6z"/>
		<path class="st3" d="M1738,898.3c-0.1,0.5-0.1,1.1-0.1,1.6c0,2.8,2.3,4.4,4.7,4.4c2.6,0,4.4-1.2,5.2-3.5h3c-0.9,4-4.3,6.1-8.2,6.1
			c-6,0-7.7-4.1-7.7-7.3c0-6.9,4.3-11.7,9.3-11.7c5.3,0,7.7,2.9,7.7,8c0,0.9-0.2,1.8-0.3,2.3H1738z M1748.9,895.7
			c0.2-2.6-0.9-5.1-4.2-5.1c-3.5,0-5.4,2.3-6.3,5.1H1748.9z"/>
		<path class="st3" d="M1765.8,893.7c0.1-2.1-1.6-3.1-3.7-3.1c-1.8,0-3.9,0.5-3.9,2.3c0,1.6,2.4,2.4,4.8,3.3
			c2.4,1.1,4.8,2.2,4.8,5.1c0,4-3.9,5.6-7.4,5.6c-4.1,0-7.3-1.5-7.3-6.1h3c-0.2,2.7,2.1,3.5,4.6,3.5c2,0,4.1-0.7,4.1-2.8
			c0-1.8-2.4-2.4-4.8-3.4c-2.4-0.9-4.8-2.2-4.8-4.9c0-3.4,3.4-5.2,6.7-5.2s6.8,1.5,6.8,5.7H1765.8z"/>
		<path class="st3" d="M1773.8,888.3h3l-3.8,18.1h-3L1773.8,888.3z M1777.5,885.1h-3l0.8-3.6h3L1777.5,885.1z"/>
		<path class="st3" d="M1794,903.8c-0.4,1.9-0.9,3.7-1.4,4.9c-1.5,3.6-4.3,5-8.2,5c-3.7,0-7.1-1.6-7.2-5.6h3c0.2,2.4,2.3,3,4.6,3
			c4.6,0,5.6-3.7,6.5-7.3l-0.1-0.1c-1.3,2-3.4,2.8-5.6,2.8c-4.5,0-6.8-3.2-6.8-7.5c0-5.3,3.5-11.2,9.4-11.2c2.7,0,5.2,1.4,5.7,3.7
			v0.1h0.1l0.6-3.3h2.8L1794,903.8z M1786.1,903.9c4.5,0,6.6-5,6.6-8.7c0-2.8-1.5-4.7-4.6-4.7c-4.2,0-6.4,5.2-6.4,8.5
			C1781.7,901.7,1783.1,903.9,1786.1,903.9z"/>
		<path class="st3" d="M1801.7,888.3h2.9l-0.6,2.7h0.1c1.5-2.1,3.9-3.2,6.4-3.2c3.4,0,5,1.4,5,4.7c0,0.8-0.2,2.1-0.5,3.5l-2.2,10.3
			h-3l2.3-10.6c0.1-0.7,0.4-2.2,0.4-2.8c0-1.7-1.4-2.5-3.2-2.5c-1.6,0-3.4,0.9-4.5,2.1c-1.1,0.9-1.6,2.3-2,3.8l-2.1,10h-3
			L1801.7,888.3z"/>
		<path class="st3" d="M1850.3,898c-1.3,5.6-4.9,9-11.1,9c-6.8,0-10.7-4.1-10.7-11c0-8.1,5.2-15.2,13.7-15.2c5.4,0,9.5,2.9,9.5,8.6
			h-3.3c0-3.9-2.6-5.8-6.2-5.8c-7,0-10.4,6.4-10.4,12.4c0,4.9,2.4,8.2,7.4,8.2c4.1,0,6.7-2.3,7.7-6.2H1850.3z"/>
		<path class="st3" d="M1863.2,887.9c4.9,0,7.5,2.6,7.5,7.5c0,5.9-3.7,11.4-10,11.4c-4.8,0-7.6-3.2-7.6-7.6
			C1853.1,893.4,1856.9,887.9,1863.2,887.9z M1861,904.2c4.3,0,6.7-5,6.7-8.6c0-2.8-1.5-5.1-4.8-5.1c-4.6,0-6.9,5-6.9,8.7
			C1856.1,902.2,1857.8,904.2,1861,904.2z"/>
		<path class="st3" d="M1876.2,888.3h2.9l-0.6,2.7h0.1c1.5-2.1,3.9-3.2,6.4-3.2c3.4,0,5,1.4,5,4.7c0,0.8-0.2,2.1-0.5,3.5l-2.2,10.3
			h-3l2.3-10.6c0.1-0.7,0.4-2.2,0.4-2.8c0-1.7-1.4-2.5-3.2-2.5c-1.6,0-3.4,0.9-4.5,2.1c-1.1,0.9-1.6,2.3-2,3.8l-2.1,10h-3
			L1876.2,888.3z"/>
		<path class="st3" d="M1899.8,888.3h3.6l-0.6,2.6h-3.6l-2.2,10.6c0,0.4-0.1,0.8-0.1,1.2c0,0.9,0.8,1.2,1.8,1.2
			c0.6,0,1.2-0.1,1.7-0.3l-0.5,2.7c-0.7,0.1-1.4,0.2-2.1,0.2c-2.2,0-4.1-0.6-4.1-2.9c0-0.5,0.1-0.9,0.2-1.5l2.4-11.2h-3l0.6-2.6h3
			l1.1-5.4h3L1899.8,888.3z"/>
		<path class="st3" d="M1906.7,888.3h2.8l-0.9,3.9h0.1c1.4-2.5,3.5-4.3,6.6-4.3c0.4,0,0.7-0.1,1,0l-0.7,3.2c-0.1,0-0.3,0-0.5,0h-0.4
			c-0.7,0-1.1,0-1.8,0.2c-1.6,0.4-2.9,1.5-3.9,2.9c-0.8,1.2-1.2,2.9-1.5,4.2l-1.7,8h-3L1906.7,888.3z"/>
		<path class="st3" d="M1925.4,887.9c4.9,0,7.5,2.6,7.5,7.5c0,5.9-3.7,11.4-10,11.4c-4.8,0-7.6-3.2-7.6-7.6
			C1915.3,893.4,1919.1,887.9,1925.4,887.9z M1923.3,904.2c4.3,0,6.7-5,6.7-8.6c0-2.8-1.5-5.1-4.8-5.1c-4.6,0-6.9,5-6.9,8.7
			C1918.3,902.2,1920,904.2,1923.3,904.2z"/>
		<path class="st3" d="M1939.9,881.4h3l-5.3,25h-3L1939.9,881.4z"/>
		<path class="st3" d="M1116.2,932.8c0.1-4-2.3-5.2-5.7-5.2c-2.4,0-5.8,1.2-5.8,4.1c0,2.4,1.8,3.4,4.1,4l3.4,0.9
			c3.1,0.8,6,2.3,6,6.8c0,5.2-5.2,7.6-9.7,7.6c-6,0-10.3-2.7-9.8-8.8h3.3c-0.2,4.5,2.6,6,6.7,6c3.1,0,6.3-1.4,6.3-4.8
			c0-2.6-2-3.5-4.4-4.1l-3.4-0.9c-3-0.8-5.6-2.6-5.6-6.3c0-4.8,4.7-7.2,9.1-7.2c4.9,0,9.2,2.4,9.1,8H1116.2z"/>
		<path class="st3" d="M1135.7,924.8c6.5,0,10.4,4.9,10.4,11.1c0,7.8-5.1,15.1-13.4,15.1c-6.8,0-10.7-4.1-10.7-11
			C1122,932,1127.2,924.8,1135.7,924.8z M1132.7,948.2c6.6,0,10.1-6.3,10.1-12.3c0-4.6-2.5-8.3-7.1-8.3c-7,0-10.4,6.4-10.4,12.4
			C1125.3,944.9,1127.7,948.2,1132.7,948.2z"/>
		<path class="st3" d="M1152.7,925.4h9.8c4.8,0,7.4,2.3,7.4,6.9c0,3.1-2.2,7.9-9.6,7.9h-7.4l-2.2,10.2h-3.3L1152.7,925.4z
			 M1153.6,937.4h7.5c3.6,0,5.5-2.1,5.5-5.1c0-3.1-1.9-4.1-4.1-4.1h-7L1153.6,937.4z"/>
		<path class="st3" d="M1183.7,957.4c-1.7-3.6-2.8-8.8-2.8-12.9c0-7.9,3.9-13.8,9-19.6h2.5c-5.1,6.1-8.5,12.8-8.5,20.9
			c0,4,0.5,7.8,1.8,11.6H1183.7z"/>
		<path class="st3" d="M1211.7,950.4h-3.5l-1.6-21.6h-0.1l-9.9,21.6h-3.6l-1.6-25h3.3l0.9,21h0.1l9.6-21h3.8l1.4,21.1h0.1l9.1-21.1
			h3.4L1211.7,950.4z"/>
		<path class="st3" d="M1226.6,925.4h3.4l-2.3,10.7h13.1l2.2-10.7h3.3l-5.2,25h-3.3l2.4-11.4h-13.1l-2.4,11.4h-3.3L1226.6,925.4z"/>
		<path class="st3" d="M1246.4,953.1h17.5v1.8h-17.5V953.1z"/>
		<path class="st3" d="M1285.2,953l-3.5-3.4c-1.7,0.9-3.6,1.4-5.8,1.4c-6.8,0-10.7-4.1-10.7-11c0-8.1,5.2-15.2,13.7-15.2
			c6.5,0,10.4,4.9,10.4,11.1c0,4.8-1.9,9.4-5.3,12.2l3,2.9L1285.2,953z M1279.1,943.3l2.8,2.7c2.8-2.3,4.2-6.4,4.2-10.1
			c0-4.6-2.5-8.3-7.1-8.3c-7,0-10.4,6.4-10.4,12.4c0,4.9,2.4,8.2,7.4,8.2c1.3,0,2.5-0.2,3.6-0.7l-2.3-2.2L1279.1,943.3z"/>
		<path class="st3" d="M1296,925.4h4.6l3.3,21.5h0.1l12.4-21.5h4.6l-5.3,25h-3.2l5.1-21.9h-0.1l-12.7,21.9h-3.2l-3.3-21.9h-0.1
			l-4.4,21.9h-3.2L1296,925.4z"/>
		<path class="st3" d="M1339.1,932.8c0.1-4-2.3-5.2-5.7-5.2c-2.4,0-5.8,1.2-5.8,4.1c0,2.4,1.8,3.4,4.1,4l3.4,0.9
			c3.1,0.8,6,2.3,6,6.8c0,5.2-5.2,7.6-9.7,7.6c-6,0-10.3-2.7-9.8-8.8h3.3c-0.2,4.5,2.6,6,6.7,6c3.1,0,6.3-1.4,6.3-4.8
			c0-2.6-2-3.5-4.4-4.1l-3.4-0.9c-3-0.8-5.6-2.6-5.6-6.3c0-4.8,4.7-7.2,9.1-7.2c4.9,0,9.2,2.4,9.1,8H1339.1z"/>
		<path class="st3" d="M1343.6,953.1h17.5v1.8h-17.5V953.1z"/>
		<path class="st3" d="M1379.3,932.8c0.1-4-2.3-5.2-5.7-5.2c-2.4,0-5.8,1.2-5.8,4.1c0,2.4,1.8,3.4,4.1,4l3.4,0.9
			c3.1,0.8,6,2.3,6,6.8c0,5.2-5.2,7.6-9.7,7.6c-6,0-10.3-2.7-9.8-8.8h3.3c-0.2,4.5,2.6,6,6.7,6c3.1,0,6.3-1.4,6.3-4.8
			c0-2.6-2-3.5-4.4-4.1l-3.4-0.9c-3-0.8-5.6-2.6-5.6-6.3c0-4.8,4.7-7.2,9.1-7.2c4.9,0,9.2,2.4,9.1,8H1379.3z"/>
		<path class="st3" d="M1398.8,924.8c6.5,0,10.4,4.9,10.4,11.1c0,7.8-5.1,15.1-13.4,15.1c-6.8,0-10.7-4.1-10.7-11
			C1385.1,932,1390.3,924.8,1398.8,924.8z M1395.8,948.2c6.6,0,10.1-6.3,10.1-12.3c0-4.6-2.5-8.3-7.1-8.3c-7,0-10.4,6.4-10.4,12.4
			C1388.4,944.9,1390.8,948.2,1395.8,948.2z"/>
		<path class="st3" d="M1415.8,925.4h9.8c4.8,0,7.4,2.3,7.4,6.9c0,3.1-2.2,7.9-9.6,7.9h-7.4l-2.2,10.2h-3.3L1415.8,925.4z
			 M1416.7,937.4h7.5c3.6,0,5.5-2.1,5.5-5.1c0-3.1-1.9-4.1-4.1-4.1h-7L1416.7,937.4z"/>
		<path class="st3" d="M1433,953.1h17.5v1.8H1433V953.1z"/>
		<path class="st3" d="M1462.3,925.6c4.3,0,6.7,2.8,6.7,9.4c0,4.6-2.5,15.9-10.7,15.9c-5.2,0-6.9-4.3-6.9-9.6
			C1451.4,935.6,1454.5,925.6,1462.3,925.6z M1458.6,948.2c5.5,0,7.2-10.2,7.2-12.4c0-2.8,0.5-7.6-3.8-7.6c-5.4,0-7.5,10-7.5,13.5
			C1454.6,945.7,1455.6,948.2,1458.6,948.2z"/>
		<path class="st3" d="M1481.7,925.6c4.3,0,6.7,2.8,6.7,9.4c0,4.6-2.5,15.9-10.7,15.9c-5.2,0-6.9-4.3-6.9-9.6
			C1470.9,935.6,1473.9,925.6,1481.7,925.6z M1478,948.2c5.5,0,7.2-10.2,7.2-12.4c0-2.8,0.5-7.6-3.8-7.6c-5.4,0-7.5,10-7.5,13.5
			C1474,945.7,1475.1,948.2,1478,948.2z"/>
		<path class="st3" d="M1501.2,925.6c4.3,0,6.7,2.8,6.7,9.4c0,4.6-2.5,15.9-10.7,15.9c-5.2,0-6.9-4.3-6.9-9.6
			C1490.3,935.6,1493.4,925.6,1501.2,925.6z M1497.5,948.2c5.5,0,7.2-10.2,7.2-12.4c0-2.8,0.5-7.6-3.8-7.6c-5.4,0-7.5,10-7.5,13.5
			C1493.5,945.7,1494.6,948.2,1497.5,948.2z"/>
		<path class="st3" d="M1511.3,934.1c0.6-5.1,3.6-8.4,8.9-8.4c4,0,7,2.5,7,6.6c0,6.1-6.7,8.6-11,11.3c-1.6,1-3.4,2.5-4.1,4.3h12.9
			l-0.6,2.6h-15.8c0.6-7.5,7.2-9.1,12.1-12.8c1.8-1.4,3.2-2.8,3.2-5.3c0-2.6-1.6-4.2-4.2-4.2c-3.4,0-5.2,2.7-5.4,5.8H1511.3z"/>
		<path class="st3" d="M1524.3,957.4c5.1-6,8.5-12.8,8.5-20.9c0-4-0.5-7.9-1.8-11.7h2c1.6,3.8,2.8,8.8,2.8,12.9c0,8-3.9,13.8-9,19.6
			H1524.3z"/>
		<path class="st3" d="M1538.8,946.5h3.9l-0.8,3.9h-3.9L1538.8,946.5z"/>
	</g>
</g>
<g>
	<g>
		<line class="st8" x1="870.4" y1="305.5" x2="870.4" y2="347.9"/>
		<g>
			<polygon class="st1" points="858.2,338 860.4,335.9 870.4,346.8 880.5,335.9 882.7,338 870.4,351.2 			"/>
		</g>
	</g>
</g>
<g class="st9">
	<path class="st3" d="M82.7,110.7h-7.2L70,88.3h-0.1l-5.5,22.4h-7.3l-8.7-32.8h7.2l5.2,22.4h0.1l5.7-22.4h6.8l5.6,22.6h0.1l5.4-22.6
		h7.1L82.7,110.7z"/>
	<path class="st3" d="M94.1,77.8h6.5v12.4h0.1c1.7-2.7,4.5-4,6.9-4c6.9,0,8.7,3.9,8.7,9.8v14.6h-6.5V97.2c0-3.9-1.1-5.8-4.2-5.8
		c-3.5,0-5.1,2-5.1,6.8v12.5h-6.5V77.8z"/>
	<path class="st3" d="M133,86.2c7.5,0,12.3,5,12.3,12.6c0,7.5-4.8,12.5-12.3,12.5c-7.5,0-12.3-5-12.3-12.5
		C120.7,91.2,125.5,86.2,133,86.2z M133,106.4c4.5,0,5.8-3.8,5.8-7.6s-1.3-7.6-5.8-7.6c-4.4,0-5.8,3.8-5.8,7.6
		S128.6,106.4,133,106.4z"/>
</g>
<line class="st10" x1="48.2" y1="52.2" x2="958.9" y2="52.2"/>
<g>
	<rect x="1053.4" y="72.2" class="st11" width="202.5" height="49.5"/>
	<path d="M1087.9,105.1h-7.2l-5.6-22.4h-0.1l-5.5,22.4h-7.3l-8.7-32.8h7.2l5.2,22.4h0.1l5.7-22.4h6.8l5.6,22.6h0.1l5.4-22.6h7.1
		L1087.9,105.1z"/>
	<path d="M1099.3,72.2h6.5v12.4h0.1c1.7-2.7,4.5-4,6.9-4c6.9,0,8.7,3.9,8.7,9.8v14.6h-6.5V91.6c0-3.9-1.1-5.8-4.2-5.8
		c-3.5,0-5.1,2-5.1,6.8v12.5h-6.5V72.2z"/>
	<path d="M1126.3,88.6c0.4-6.1,5.8-8,11.2-8c4.7,0,10.4,1.1,10.4,6.8v12.4c0,2.2,0.2,4.3,0.8,5.3h-6.6c-0.2-0.7-0.4-1.5-0.5-2.3
		c-2.1,2.2-5.1,2.9-8,2.9c-4.6,0-8.1-2.3-8.1-7.1c0.1-10.8,16.1-5,15.8-10.4c0-2.8-1.9-3.2-4.2-3.2c-2.5,0-4.1,1-4.3,3.6H1126.3z
		 M1141.4,93.4c-1.1,1-3.4,1-5.4,1.4c-2,0.4-3.9,1.1-3.9,3.5c0,2.4,1.9,3,4,3c5.1,0,5.3-4,5.3-5.5V93.4z"/>
	<path d="M1161.3,81.3h4.8v4.4h-4.8v11.8c0,2.2,0.6,2.8,2.8,2.8c0.7,0,1.4,0,2-0.2v5.1c-1.1,0.2-2.5,0.2-3.8,0.2
		c-4,0-7.5-0.9-7.5-5.7v-14h-4v-4.4h4v-7.1h6.5V81.3z"/>
</g>
<path class="st3" d="M740.9,658.2c0,11.9-9.6,21.5-21.5,21.5H229.7c-11.9,0-21.5-9.6-21.5-21.5V167.5c0-11.9,9.6-21.5,21.5-21.5
	h489.7c11.9,0,21.5,9.6,21.5,21.5V658.2z"/>
<path class="st12" d="M740.9,698.6c0,7.7-9.6,13.9-21.5,13.9H229.7c-11.9,0-21.5-6.2-21.5-13.9v-317h532.6V698.6z"/>
<g>
	<path class="st13" d="M512.1,311.7H404.6c-6.2,0-11.2-5.1-11.2-11.2V179.4c0-6.2,5.1-11.2,11.2-11.2h107.5
		c6.2,0,11.2,5.1,11.2,11.2v121.2C523.3,306.7,518.2,311.7,512.1,311.7"/>
	<g>
		<rect x="373.2" y="347.5" class="st14" width="1.3" height="14.4"/>
		<path class="st14" d="M377.2,347.5h6.1c2.4,0,4.6,0.8,4.6,3.5c0,1.5-1,2.9-2.5,3.3c1.9,0.2,3,1.7,3,3.5c0,1.3-0.4,4-5.2,4h-6.1
			V347.5z M378.6,353.8h4.7c2.1,0,3.3-1.1,3.3-2.5c0-1.8-1.1-2.7-3.3-2.7h-4.7V353.8z M378.6,360.6h4.7c2,0,3.8-0.7,3.8-2.9
			c0-1.9-1.3-2.8-3.8-2.8h-4.7V360.6z"/>
		<polygon class="st14" points="390.7,347.5 392.7,347.5 397.7,360 402.6,347.5 404.6,347.5 404.6,361.8 403.3,361.8 403.3,349.4 
			398.3,361.8 397,361.8 392.1,349.4 392.1,361.8 390.7,361.8 		"/>
		<polygon class="st15" points="423.9,361.7 420.8,361.7 418.3,352 416,361.7 412.7,361.7 408.9,347.4 412,347.4 414.3,357.1 
			416.8,347.4 419.7,347.4 422.1,357.2 424.5,347.4 427.6,347.4 		"/>
		<path class="st15" d="M428.1,354.4c0.2-2.7,2.6-3.5,4.9-3.5c2,0,4.6,0.4,4.6,2.9v5.4c0,0.9,0.1,1.9,0.3,2.4h-2.9
			c-0.1-0.3-0.2-0.7-0.2-1c-0.9,0.9-2.2,1.3-3.5,1.3c-2,0-3.5-1-3.5-3.1c0-4.7,7.1-2.2,7-4.5c0-1.2-0.8-1.3-1.9-1.3
			c-1.1,0-1.8,0.5-1.9,1.6h-2.9V354.4z M434.7,356.6c-0.4,0.4-1.5,0.4-2.4,0.6c-0.9,0.2-1.7,0.4-1.7,1.6c0,1.1,0.8,1.3,1.8,1.3
			c2.2,0,2.4-1.8,2.4-2.4v-1.1H434.7z"/>
		<path class="st15" d="M443.4,351.3h2.1v1.9h-2.1v5.2c0,1,0.2,1.2,1.2,1.2c0.3,0,0.7,0,0.9-0.1v2.2c-0.4,0.1-1.1,0.1-1.7,0.1
			c-1.8,0-3.3-0.3-3.3-2.5v-6.2h-1.8v-1.9h1.8v-3.1h2.9L443.4,351.3z"/>
		<path class="st15" d="M449.1,358.4c0,1.2,1.1,1.8,2.2,1.8c0.8,0,1.9-0.3,1.9-1.3c0-0.9-1.2-1.2-3.3-1.6c-1.7-0.3-3.4-0.9-3.4-2.8
			c0-2.7,2.4-3.4,4.5-3.4c2.2,0,4.4,0.8,4.6,3.4H453c-0.1-1.1-0.9-1.3-1.9-1.3c-0.7,0-1.6,0.1-1.6,1c0,1,1.7,1.1,3.3,1.6
			c1.7,0.3,3.4,1,3.4,2.9c0,2.7-2.4,3.6-4.7,3.6c-2.4,0-4.8-0.9-4.9-3.7h2.6V358.4z"/>
		<path class="st15" d="M462.6,351.1c3.3,0,5.4,2.1,5.4,5.5c0,3.4-2.1,5.5-5.4,5.5c-3.3,0-5.4-2.1-5.4-5.5
			C457.2,353.2,459.2,351.1,462.6,351.1 M462.6,359.8c1.9,0,2.6-1.7,2.6-3.4c0-1.7-0.6-3.4-2.6-3.4c-1.9,0-2.5,1.7-2.5,3.4
			C460.1,358.1,460.5,359.8,462.6,359.8"/>
		<path class="st15" d="M469.3,351.3h2.7v1.5h0.1c0.8-1.2,1.9-1.8,3.1-1.8c3,0,3.8,1.7,3.8,4.3v6.4h-2.9v-5.8c0-1.7-0.4-2.6-1.8-2.6
			c-1.6,0-2.2,0.9-2.2,2.9v5.5h-2.9L469.3,351.3z"/>
		<polygon class="st15" points="484.8,347.4 487.9,347.4 487.9,352.9 493.8,352.9 493.8,347.4 496.9,347.4 496.9,361.7 493.8,361.7 
			493.8,355.6 487.9,355.6 487.9,361.7 484.8,361.7 		"/>
		<path class="st15" d="M501.6,357.2c0.1,1.8,0.9,2.7,2.6,2.7c1.1,0,2-0.7,2.2-1.3h2.5c-0.8,2.5-2.5,3.5-4.8,3.5
			c-3.3,0-5.3-2.2-5.3-5.5c0-3.1,2.1-5.5,5.3-5.5c3.5,0,5.3,2.9,5.1,6.2H501.6z M506.2,355.3c-0.2-1.5-0.9-2.2-2.2-2.2
			c-1.9,0-2.4,1.3-2.4,2.2H506.2z"/>
		<path class="st15" d="M510.8,354.4c0.2-2.7,2.6-3.5,4.9-3.5c2,0,4.6,0.4,4.6,2.9v5.4c0,0.9,0.1,1.9,0.3,2.4h-2.9
			c-0.1-0.3-0.2-0.7-0.2-1c-0.9,0.9-2.2,1.3-3.5,1.3c-2,0-3.5-1-3.5-3.1c0-4.7,7.1-2.2,7-4.5c0-1.2-0.8-1.3-1.9-1.3
			c-1.1,0-1.8,0.5-1.9,1.6h-2.9V354.4z M517.4,356.6c-0.4,0.4-1.5,0.4-2.4,0.6c-0.9,0.2-1.7,0.4-1.7,1.6c0,1.1,0.8,1.3,1.8,1.3
			c2.2,0,2.4-1.8,2.4-2.4v-1.1H517.4z"/>
		<path class="st15" d="M531.2,351.3h2.1v1.9h-2.1v5.2c0,1,0.2,1.2,1.2,1.2c0.3,0,0.7,0,0.9-0.1v2.2c-0.4,0.1-1.1,0.1-1.7,0.1
			c-1.8,0-3.3-0.3-3.3-2.5v-6.2h-1.8v-1.9h1.8v-3.1h2.9v3.1H531.2z"/>
		<path class="st15" d="M535.1,347.4h2.9v5.4h0.1c0.8-1.2,1.9-1.8,3-1.8c3,0,3.8,1.7,3.8,4.3v6.4h-2.9v-5.8c0-1.7-0.4-2.6-1.8-2.6
			c-1.6,0-2.2,0.9-2.2,2.9v5.5h-2.9V347.4z"/>
		<rect x="522.4" y="347.4" class="st15" width="2.9" height="14.4"/>
	</g>
	<g>
		<defs>
			<path id="SVGID_1_" d="M405.3,168.1c-6.2,0-11.2,5.1-11.2,11.2v121.2c0,6.2,5.1,11.2,11.2,11.2h107.5c6.2,0,11.2-5.1,11.2-11.2
				V179.4c0-6.2-5.1-11.2-11.2-11.2H405.3z"/>
		</defs>
		<clipPath id="SVGID_2_">
			<use xlink:href="#SVGID_1_"  style="overflow:visible;"/>
		</clipPath>
		<path class="st16" d="M443.4,229.8h31.3l3.4,35.6c0.2,2.5,2.4,4.4,5.1,4.5h0.6l-3.9,13.4l-41.5-3.3l-3-10.1l1.1-0.2
			c2.5-0.3,4.3-2.1,4.4-4.5L443.4,229.8z"/>
		<path class="st17" d="M459.2,281.7l-21.1-1.7l-3-10.1l1.1-0.2c2.5-0.3,4.3-2.1,4.4-4.5l2-25.2h16.7L459.2,281.7z"/>
		<path class="st18" d="M443.4,229.8h31.3l2.5,26.9c-0.6,0.9-1,1.5-1.6,2.4c-4.6,6.3-10.6,10.6-16.3,10.6c-5.7,0-11.7-4.3-16.3-10.6
			c-0.7-1-1.2-1.7-1.8-2.7L443.4,229.8z"/>
		<path class="st19" d="M459.2,260.3c-7.3,0-14.6-4.7-20.1-11.7c-5.4-6.8-9-15.9-9-24.7v-0.2v-0.1v-1.8c0-21-3.8-38.1,29.2-38.1
			c33,0,29.1,17.1,29.1,38.1v1.7v0.1v0.2c0,8.8-3.6,17.9-9,24.7C474,255.6,466.5,260.3,459.2,260.3"/>
		<path class="st20" d="M440.4,266.4c-12.7,8.3-36.2,9-36.2,26.5v17.4c0,4.7,4,8.5,9.1,8.5h91.7c5.1,0,9.1-3.8,9.1-8.5V293
			c0-17.7-23.1-18.4-36-26.5C465.2,275,455.7,278,440.4,266.4"/>
		<path class="st21" d="M439.8,252.5c5.5,7,12.6,11.7,19.4,11.7c6.8,0,14-4.7,19.4-11.7c5.6-7.2,9.4-16.6,9.5-25.7l-1.9-7.3
			c-0.7-2.6-0.8-5.1-0.8-7.3c-0.1-3-0.1-5.8-1.9-8.1c-2.8-3.7-7.3-2.5-12.6-1.1c-3.6,1-7.5,2-11.7,2c-4.3,0-8.1-1-11.7-2
			c-5.3-1.5-9.8-2.6-12.6,1c-1.8,2.2-1.8,5.1-1.9,8.1c0,2.4-0.1,4.7-0.8,7.3l-1.9,7.3C430.4,235.8,434.2,245.4,439.8,252.5"/>
		<path class="st22" d="M436.8,268.4c3.1,6.1,11.7,13.2,22.6,13.2c10.3,0,18.9-7.1,22.6-13.1c-3.7,7-11.9,14.4-22.6,14.3
			C448.7,282.8,439.8,275.3,436.8,268.4"/>
		<path class="st23" d="M439.8,252.5c5.5,7,12.6,11.7,19.4,11.7V205c-4.3,0-8.1-1-11.7-2c-5.3-1.5-9.8-2.6-12.6,1
			c-1.8,2.2-1.8,5.1-1.9,8.1c0,2.4-0.1,4.7-0.8,7.3l-1.9,7.3C430.4,235.8,434.2,245.4,439.8,252.5"/>
		<path class="st22" d="M433.3,269c-12,5.2-29.1,6.3-29.1,23.8v17.4c0,4.7,4,8.5,9.1,8.5h45.9h45.9c5.1,0,9.1-3.8,9.1-8.5v-17.3
			c0-17.5-17.1-18.8-29.1-23.9c-7.4,11.5-16.7,17.3-25.9,17.4C450,286.4,440.7,280.5,433.3,269"/>
		<path class="st24" d="M433.3,268.9c-1.7,0.8-3.5,1.3-5.3,2c10.2,16.2,22.3,21,31.3,21.1c8.9-0.1,21.1-4.9,31.3-21.1
			c-1.8-0.7-3.6-1.2-5.3-2c-7.4,11.5-16.8,17.5-26,17.6C450,286.4,440.7,280.4,433.3,268.9"/>
	</g>
</g>
<g>
	<rect x="238.4" y="420.5" class="st11" width="473.4" height="405.3"/>
	<path class="st7" d="M247,426.7c3.4,0,6.2,2.7,6.2,6.1s-2.8,6.2-6.2,6.2c-3.4,0-6.1-2.8-6.1-6.2S243.6,426.7,247,426.7z"/>
	<path class="st7" d="M274.6,420.5h3.6l9.6,24.7h-3.6l-2.7-7.4h-10.4l-2.8,7.4H265L274.6,420.5z M272.2,435h8.4l-4.1-11.5h-0.1
		L272.2,435z"/>
	<path class="st7" d="M289.9,427.3h2.9v2.4h0.1c1-2,3.2-2.8,5.7-2.8c5.5,0,8.2,4.4,8.2,9.4c0,5.1-2.7,9.3-8.2,9.3
		c-1.8,0-4.5-0.7-5.8-2.8h-0.1v9.2h-2.9V427.3z M298.2,429.5c-4,0-5.5,3.4-5.5,6.7c0,3.5,1.6,6.8,5.6,6.8c4,0,5.4-3.4,5.4-6.9
		C303.8,432.7,302,429.5,298.2,429.5z"/>
	<path class="st7" d="M310.4,427.3h2.9v2.4h0.1c1-2,3.2-2.8,5.7-2.8c5.5,0,8.2,4.4,8.2,9.4c0,5.1-2.7,9.3-8.2,9.3
		c-1.8,0-4.5-0.7-5.8-2.8h-0.1v9.2h-2.9V427.3z M318.7,429.5c-4,0-5.5,3.4-5.5,6.7c0,3.5,1.6,6.8,5.6,6.8c4,0,5.4-3.4,5.4-6.9
		C324.2,432.7,322.5,429.5,318.7,429.5z"/>
	<path class="st7" d="M331,420.5h2.9v24.7H331V420.5z"/>
	<path class="st7" d="M341.6,424.1h-2.9v-3.6h2.9V424.1z M338.7,427.3h2.9v17.9h-2.9V427.3z"/>
	<path class="st7" d="M361.4,439.5c-0.8,4-3.6,6.1-7.6,6.1c-5.7,0-8.4-4-8.6-9.4c0-5.4,3.5-9.3,8.4-9.3c6.3,0,8.3,5.9,8.1,10.2
		h-13.4c-0.1,3.1,1.7,5.9,5.6,5.9c2.5,0,4.1-1.1,4.6-3.5H361.4z M358.6,434.5c-0.2-2.8-2.2-5-5.1-5c-3,0-4.9,2.3-5.1,5H358.6z"/>
	<path class="st7" d="M366.5,439.5c0.1,2.6,2.4,3.5,4.8,3.5c1.8,0,4.3-0.4,4.3-2.7c0-4.6-11.7-1.5-11.7-8.4c0-3.6,3.5-5.1,6.7-5.1
		c4,0,7,1.2,7.3,5.6H375c-0.2-2.3-2.2-3-4.1-3c-1.8,0-3.8,0.5-3.8,2.3c0,2.1,3.1,2.5,5.8,3.1c2.9,0.7,5.8,1.7,5.8,5.1
		c0,4.3-4,5.6-7.6,5.6c-4,0-7.4-1.6-7.6-6H366.5z"/>
	<path class="st7" d="M395.7,427.3h3.6v2.6h-3.6V441c0,1.4,0.4,1.6,2.2,1.6h1.3v2.6H397c-3,0-4.2-0.6-4.2-3.9v-11.4h-3v-2.6h3v-5.4
		h2.9V427.3z"/>
	<path class="st7" d="M410.2,426.9c5.7,0,8.7,4.1,8.7,9.4c0,5.2-3,9.3-8.7,9.3s-8.7-4.1-8.7-9.3C401.5,431,404.5,426.9,410.2,426.9z
		 M410.2,443c3.1,0,5.6-2.4,5.6-6.7s-2.5-6.8-5.6-6.8c-3.1,0-5.6,2.5-5.6,6.8S407.1,443,410.2,443z"/>
	<path class="st7" d="M447.7,445.1c-0.5,0.3-1.2,0.5-2.1,0.5c-1.5,0-2.5-0.8-2.5-2.8c-1.6,1.9-3.8,2.8-6.3,2.8c-3.2,0-5.9-1.4-5.9-5
		c0-4,3-4.9,6-5.5c3.2-0.7,6-0.4,6-2.6c0-2.6-2.1-3-4-3c-2.5,0-4.3,0.8-4.5,3.4h-2.9c0.2-4.4,3.6-6,7.6-6c3.2,0,6.7,0.7,6.7,4.9v9.2
		c0,1.4,0,2,0.9,2c0.3,0,0.6-0.1,0.9-0.2V445.1z M443,435.9c-2.3,1.7-8.9,0-8.9,4.4c0,1.9,1.7,2.6,3.5,2.6c3.9,0,5.5-2.4,5.5-4
		V435.9z"/>
	<path class="st7" d="M450.6,420.5h2.9v24.7h-2.9V420.5z"/>
	<path class="st7" d="M458.3,420.5h2.9v24.7h-2.9V420.5z"/>
	<path class="st7" d="M498.2,445.2h-3.4l-5.6-20.7h-0.1l-5.7,20.7h-3.4l-6.3-24.7h3.4l4.8,20.5h0.1l5.5-20.5h3.6l5.5,20.5h0.1
		l5-20.5h3.3L498.2,445.2z"/>
	<path class="st7" d="M523.2,445.1c-0.5,0.3-1.2,0.5-2.1,0.5c-1.5,0-2.5-0.8-2.5-2.8c-1.6,1.9-3.8,2.8-6.3,2.8c-3.2,0-5.9-1.4-5.9-5
		c0-4,3-4.9,6-5.5c3.2-0.7,6-0.4,6-2.6c0-2.6-2.1-3-4-3c-2.5,0-4.3,0.8-4.5,3.4h-2.9c0.2-4.4,3.6-6,7.6-6c3.2,0,6.7,0.7,6.7,4.9v9.2
		c0,1.4,0,2,0.9,2c0.3,0,0.6-0.1,0.9-0.2V445.1z M518.5,435.9c-2.3,1.7-8.9,0-8.9,4.4c0,1.9,1.7,2.6,3.5,2.6c3.9,0,5.5-2.4,5.5-4
		V435.9z"/>
	<path class="st7" d="M530,427.3h3.6v2.6H530V441c0,1.4,0.4,1.6,2.2,1.6h1.3v2.6h-2.2c-3,0-4.2-0.6-4.2-3.9v-11.4h-3v-2.6h3v-5.4
		h2.9V427.3z"/>
	<path class="st7" d="M538.6,439.5c0.1,2.6,2.4,3.5,4.8,3.5c1.8,0,4.3-0.4,4.3-2.7c0-4.6-11.7-1.5-11.7-8.4c0-3.6,3.5-5.1,6.7-5.1
		c4,0,7,1.2,7.3,5.6h-2.9c-0.2-2.3-2.2-3-4.1-3c-1.8,0-3.8,0.5-3.8,2.3c0,2.1,3.1,2.5,5.8,3.1c2.9,0.7,5.8,1.7,5.8,5.1
		c0,4.3-4,5.6-7.6,5.6c-4,0-7.4-1.6-7.6-6H538.6z"/>
	<path class="st7" d="M561.8,426.9c5.7,0,8.7,4.1,8.7,9.4c0,5.2-3,9.3-8.7,9.3s-8.7-4.1-8.7-9.3C553.1,431,556.2,426.9,561.8,426.9z
		 M561.8,443c3.1,0,5.6-2.4,5.6-6.7s-2.5-6.8-5.6-6.8c-3.1,0-5.6,2.5-5.6,6.8S558.7,443,561.8,443z"/>
	<path class="st7" d="M573.9,427.3h2.8v2.8h0.1c1.2-2.2,3.2-3.2,5.8-3.2c4.7,0,6.1,2.7,6.1,6.5v11.7h-2.9v-12.1
		c0-2.2-1.4-3.6-3.6-3.6c-3.6,0-5.3,2.4-5.3,5.6v10.1h-2.9V427.3z"/>
	<path class="st7" d="M603.2,420.5h3.3v10.6h13v-10.6h3.3v24.7h-3.3v-11.3h-13v11.3h-3.3V420.5z"/>
	<path class="st7" d="M642.9,439.5c-0.8,4-3.6,6.1-7.6,6.1c-5.7,0-8.4-4-8.6-9.4c0-5.4,3.5-9.3,8.4-9.3c6.3,0,8.3,5.9,8.1,10.2
		h-13.4c-0.1,3.1,1.7,5.9,5.6,5.9c2.5,0,4.1-1.1,4.6-3.5H642.9z M640.1,434.5c-0.2-2.8-2.2-5-5.1-5c-3,0-4.9,2.3-5.1,5H640.1z"/>
	<path class="st7" d="M662.1,445.1c-0.5,0.3-1.2,0.5-2.1,0.5c-1.5,0-2.5-0.8-2.5-2.8c-1.6,1.9-3.8,2.8-6.3,2.8c-3.2,0-5.9-1.4-5.9-5
		c0-4,3-4.9,6-5.5c3.2-0.7,6-0.4,6-2.6c0-2.6-2.1-3-4-3c-2.5,0-4.3,0.8-4.5,3.4H646c0.2-4.4,3.6-6,7.6-6c3.2,0,6.7,0.7,6.7,4.9v9.2
		c0,1.4,0,2,0.9,2c0.3,0,0.6-0.1,0.9-0.2V445.1z M657.3,435.9c-2.3,1.7-8.9,0-8.9,4.4c0,1.9,1.7,2.6,3.5,2.6c3.9,0,5.5-2.4,5.5-4
		V435.9z"/>
	<path class="st7" d="M665,420.5h2.9v24.7H665V420.5z"/>
	<path class="st7" d="M676.6,427.3h3.6v2.6h-3.6V441c0,1.4,0.4,1.6,2.2,1.6h1.3v2.6h-2.2c-3,0-4.2-0.6-4.2-3.9v-11.4h-3v-2.6h3v-5.4
		h2.9V427.3z"/>
	<path class="st7" d="M683.4,420.5h2.9v9.4h0.1c0.9-2.2,3.5-3,5.6-3c4.7,0,6.1,2.7,6.1,6.5v11.7h-2.9v-12.1c0-2.2-1.4-3.6-3.6-3.6
		c-3.6,0-5.3,2.4-5.3,5.6v10.1h-2.9V420.5z"/>
	<path class="st7" d="M266.6,468.8h2.9v2.4h0.1c1-2,3.2-2.8,5.7-2.8c5.5,0,8.2,4.4,8.2,9.4c0,5.1-2.7,9.3-8.2,9.3
		c-1.8,0-4.5-0.7-5.8-2.8h-0.1v9.2h-2.9V468.8z M274.9,470.9c-4,0-5.5,3.4-5.5,6.7c0,3.5,1.6,6.8,5.6,6.8c4,0,5.4-3.4,5.4-6.9
		C280.4,474.2,278.7,470.9,274.9,470.9z"/>
	<path class="st7" d="M302.2,480.9c-0.8,4-3.6,6.1-7.6,6.1c-5.7,0-8.4-4-8.6-9.4c0-5.4,3.5-9.3,8.4-9.3c6.3,0,8.3,5.9,8.1,10.2
		h-13.4c-0.1,3.1,1.7,5.9,5.6,5.9c2.5,0,4.1-1.1,4.6-3.5H302.2z M299.4,476c-0.2-2.8-2.2-5-5.1-5c-3,0-4.9,2.3-5.1,5H299.4z"/>
	<path class="st7" d="M305.4,468.8h2.8v3.8h0.1c1.4-2.9,3.4-4.3,6.6-4.2v3.1c-4.7,0-6.5,2.7-6.5,7.2v7.9h-2.9V468.8z"/>
	<path class="st7" d="M318.8,481c0.1,2.6,2.4,3.5,4.8,3.5c1.8,0,4.3-0.4,4.3-2.7c0-4.6-11.7-1.5-11.7-8.4c0-3.6,3.5-5.1,6.7-5.1
		c4,0,7,1.2,7.3,5.6h-2.9c-0.2-2.3-2.2-3-4.1-3c-1.8,0-3.8,0.5-3.8,2.3c0,2.1,3.1,2.5,5.8,3.1c2.9,0.7,5.8,1.7,5.8,5.1
		c0,4.3-4,5.6-7.6,5.6c-4,0-7.4-1.6-7.6-6H318.8z"/>
	<path class="st7" d="M342,468.3c5.7,0,8.7,4.1,8.7,9.4c0,5.2-3,9.3-8.7,9.3s-8.7-4.1-8.7-9.3C333.3,472.4,336.3,468.3,342,468.3z
		 M342,484.4c3.1,0,5.6-2.4,5.6-6.7s-2.5-6.8-5.6-6.8c-3.1,0-5.6,2.5-5.6,6.8S338.9,484.4,342,484.4z"/>
	<path class="st7" d="M354.1,468.8h2.8v2.8h0.1c1.2-2.2,3.2-3.2,5.8-3.2c4.7,0,6.1,2.7,6.1,6.5v11.7H366v-12.1
		c0-2.2-1.4-3.6-3.6-3.6c-3.6,0-5.3,2.4-5.3,5.6v10.1h-2.9V468.8z"/>
	<path class="st7" d="M373.3,468.8h2.8v2.8h0.1c1.2-2.2,3.2-3.2,5.8-3.2c4.7,0,6.1,2.7,6.1,6.5v11.7h-2.9v-12.1
		c0-2.2-1.4-3.6-3.6-3.6c-3.6,0-5.3,2.4-5.3,5.6v10.1h-2.9V468.8z"/>
	<path class="st7" d="M407.8,480.9c-0.8,4-3.6,6.1-7.6,6.1c-5.7,0-8.4-4-8.6-9.4c0-5.4,3.5-9.3,8.4-9.3c6.3,0,8.3,5.9,8.1,10.2
		h-13.4c-0.1,3.1,1.7,5.9,5.6,5.9c2.5,0,4.1-1.1,4.6-3.5H407.8z M405,476c-0.2-2.8-2.2-5-5.1-5c-3,0-4.9,2.3-5.1,5H405z"/>
	<path class="st7" d="M411.3,461.9h2.9v24.7h-2.9V461.9z"/>
	<path class="st7" d="M446.1,486.6H443l-3.6-14.2h-0.1l-3.6,14.2h-3.2l-5.7-17.9h3.2l4,14.6h0.1l3.6-14.6h3.2l3.7,14.6h0.1l4-14.6h3
		L446.1,486.6z"/>
	<path class="st7" d="M454.6,461.9h2.9v9.4h0.1c0.9-2.2,3.5-3,5.6-3c4.7,0,6.1,2.7,6.1,6.5v11.7h-2.9v-12.1c0-2.2-1.4-3.6-3.6-3.6
		c-3.6,0-5.3,2.4-5.3,5.6v10.1h-2.9V461.9z"/>
	<path class="st7" d="M481.5,468.3c5.7,0,8.7,4.1,8.7,9.4c0,5.2-3,9.3-8.7,9.3s-8.7-4.1-8.7-9.3
		C472.8,472.4,475.8,468.3,481.5,468.3z M481.5,484.4c3.1,0,5.6-2.4,5.6-6.7s-2.5-6.8-5.6-6.8c-3.1,0-5.6,2.5-5.6,6.8
		S478.4,484.4,481.5,484.4z"/>
	<path class="st7" d="M503.3,468.8h2.9v2.4h0.1c1-2,3.2-2.8,5.7-2.8c5.5,0,8.2,4.4,8.2,9.4c0,5.1-2.7,9.3-8.2,9.3
		c-1.8,0-4.5-0.7-5.8-2.8h-0.1v9.2h-2.9V468.8z M511.6,470.9c-4,0-5.5,3.4-5.5,6.7c0,3.5,1.6,6.8,5.6,6.8c4,0,5.4-3.4,5.4-6.9
		C517.1,474.2,515.4,470.9,511.6,470.9z"/>
	<path class="st7" d="M538.9,480.9c-0.8,4-3.6,6.1-7.6,6.1c-5.7,0-8.4-4-8.6-9.4c0-5.4,3.5-9.3,8.4-9.3c6.3,0,8.3,5.9,8.1,10.2
		h-13.4c-0.1,3.1,1.7,5.9,5.6,5.9c2.5,0,4.1-1.1,4.6-3.5H538.9z M536.1,476c-0.2-2.8-2.2-5-5.1-5c-3,0-4.9,2.3-5.1,5H536.1z"/>
	<path class="st7" d="M542.2,468.8h2.8v3.8h0.1c1.4-2.9,3.4-4.3,6.6-4.2v3.1c-4.7,0-6.5,2.7-6.5,7.2v7.9h-2.9V468.8z"/>
	<path class="st7" d="M555,471.3h-3v-2.6h3v-2.7c0-2.9,1.7-4.4,4.9-4.4c0.6,0,1.3,0.1,1.9,0.3v2.6c-0.5-0.2-1.1-0.2-1.7-0.2
		c-1.4,0-2.2,0.4-2.2,2v2.5h3.5v2.6h-3.5v15.3H555V471.3z"/>
	<path class="st7" d="M571.7,468.3c5.7,0,8.7,4.1,8.7,9.4c0,5.2-3,9.3-8.7,9.3s-8.7-4.1-8.7-9.3C563,472.4,566,468.3,571.7,468.3z
		 M571.7,484.4c3.1,0,5.6-2.4,5.6-6.7s-2.5-6.8-5.6-6.8s-5.6,2.5-5.6,6.8S568.6,484.4,571.7,484.4z"/>
	<path class="st7" d="M583.7,468.8h2.8v3.8h0.1c1.4-2.9,3.4-4.3,6.6-4.2v3.1c-4.7,0-6.5,2.7-6.5,7.2v7.9h-2.9V468.8z"/>
	<path class="st7" d="M595.3,468.8h2.8v2.6h0.1c1.3-2,3.2-3,5.8-3c2.2,0,4.2,0.8,4.9,3c1.2-1.9,3.3-3,5.6-3c3.6,0,5.9,1.5,5.9,5.2
		v13.1h-2.9v-11.7c0-2.2-0.6-4-3.5-4s-4.7,1.8-4.7,4.6v11.1h-2.9v-11.7c0-2.3-0.7-4-3.4-4c-3.5,0-4.8,3.2-4.8,4.6v11.1h-2.9V468.8z"
		/>
	<path class="st7" d="M642.1,468.3c5.7,0,8.7,4.1,8.7,9.4c0,5.2-3,9.3-8.7,9.3s-8.7-4.1-8.7-9.3
		C633.4,472.4,636.5,468.3,642.1,468.3z M642.1,484.4c3.1,0,5.6-2.4,5.6-6.7s-2.5-6.8-5.6-6.8s-5.6,2.5-5.6,6.8
		S639,484.4,642.1,484.4z"/>
	<path class="st7" d="M654.1,468.8h2.8v3.8h0.1c1.4-2.9,3.4-4.3,6.6-4.2v3.1c-4.7,0-6.5,2.7-6.5,7.2v7.9h-2.9V468.8z"/>
	<path class="st7" d="M266.4,510.2h2.8v3.8h0.1c1.4-2.9,3.4-4.3,6.6-4.2v3.1c-4.7,0-6.5,2.7-6.5,7.2v7.9h-2.9V510.2z"/>
	<path class="st7" d="M293.2,522.4c-0.8,4-3.6,6.1-7.6,6.1c-5.7,0-8.4-4-8.6-9.4c0-5.4,3.5-9.3,8.4-9.3c6.3,0,8.3,5.9,8.1,10.2
		h-13.4c-0.1,3.1,1.7,5.9,5.6,5.9c2.5,0,4.1-1.1,4.6-3.5H293.2z M290.4,517.4c-0.2-2.8-2.2-5-5.1-5c-3,0-4.9,2.3-5.1,5H290.4z"/>
	<path class="st7" d="M304.6,528.1h-3.1l-6.6-17.9h3.3l5,14.9h0.1l4.9-14.9h3.1L304.6,528.1z"/>
	<path class="st7" d="M316.9,507H314v-3.6h2.9V507z M314,510.2h2.9v17.9H314V510.2z"/>
	<path class="st7" d="M336.7,522.4c-0.8,4-3.6,6.1-7.6,6.1c-5.7,0-8.4-4-8.6-9.4c0-5.4,3.5-9.3,8.4-9.3c6.3,0,8.3,5.9,8.1,10.2
		h-13.4c-0.1,3.1,1.7,5.9,5.6,5.9c2.5,0,4.1-1.1,4.6-3.5H336.7z M333.9,517.4c-0.2-2.8-2.2-5-5.1-5c-3,0-4.9,2.3-5.1,5H333.9z"/>
	<path class="st7" d="M357.7,528.1h-3.1l-3.6-14.2h-0.1l-3.6,14.2h-3.2l-5.7-17.9h3.2l4,14.6h0.1l3.6-14.6h3.2l3.7,14.6h0.1l4-14.6
		h3L357.7,528.1z"/>
	<path class="st7" d="M388,515.9c-0.4-2.2-2-3.6-4.4-3.6c-4.2,0-5.6,3.4-5.6,7c0,3.3,1.5,6.5,5.2,6.5c2.9,0,4.5-1.6,4.9-4.4h3
		c-0.7,4.4-3.4,6.9-7.9,6.9c-5.5,0-8.4-3.8-8.4-9.1c0-5.4,2.8-9.6,8.4-9.6c4.1,0,7.3,1.9,7.7,6.1H388z"/>
	<path class="st7" d="M394.6,503.4h2.9v24.7h-2.9V503.4z"/>
	<path class="st7" d="M405.2,507h-2.9v-3.6h2.9V507z M402.2,510.2h2.9v17.9h-2.9V510.2z"/>
	<path class="st7" d="M425,522.4c-0.8,4-3.6,6.1-7.6,6.1c-5.7,0-8.4-4-8.6-9.4c0-5.4,3.5-9.3,8.4-9.3c6.3,0,8.3,5.9,8.1,10.2h-13.4
		c-0.1,3.1,1.7,5.9,5.6,5.9c2.5,0,4.1-1.1,4.6-3.5H425z M422.1,517.4c-0.2-2.8-2.2-5-5.1-5c-3,0-4.9,2.3-5.1,5H422.1z"/>
	<path class="st7" d="M428.3,510.2h2.8v2.8h0.1c1.2-2.2,3.2-3.2,5.8-3.2c4.7,0,6.1,2.7,6.1,6.5v11.7h-2.9V516c0-2.2-1.4-3.6-3.6-3.6
		c-3.6,0-5.3,2.4-5.3,5.6v10.1h-2.9V510.2z"/>
	<path class="st7" d="M451.6,510.2h3.6v2.6h-3.6v11.1c0,1.4,0.4,1.6,2.2,1.6h1.3v2.6h-2.2c-3,0-4.2-0.6-4.2-3.9v-11.4h-3v-2.6h3
		v-5.4h2.9V510.2z"/>
	<path class="st7" d="M469.8,522.4c0.1,2.6,2.4,3.5,4.8,3.5c1.8,0,4.3-0.4,4.3-2.7c0-4.6-11.7-1.5-11.7-8.4c0-3.6,3.5-5.1,6.7-5.1
		c4,0,7,1.2,7.3,5.6h-2.9c-0.2-2.3-2.2-3-4.1-3c-1.8,0-3.8,0.5-3.8,2.3c0,2.1,3.1,2.5,5.8,3.1c2.9,0.7,5.8,1.7,5.8,5.1
		c0,4.3-4,5.6-7.6,5.6c-4,0-7.4-1.6-7.6-6H469.8z"/>
	<path class="st7" d="M485.4,510.2h2.9v2.4h0.1c1-2,3.2-2.8,5.7-2.8c5.5,0,8.2,4.4,8.2,9.4c0,5.1-2.7,9.3-8.2,9.3
		c-1.8,0-4.5-0.7-5.8-2.8h-0.1v9.2h-2.9V510.2z M493.7,512.4c-4,0-5.5,3.4-5.5,6.7c0,3.5,1.6,6.8,5.6,6.8c4,0,5.4-3.4,5.4-6.9
		C499.2,515.6,497.5,512.4,493.7,512.4z"/>
	<path class="st7" d="M521,522.4c-0.8,4-3.6,6.1-7.6,6.1c-5.7,0-8.4-4-8.6-9.4c0-5.4,3.5-9.3,8.4-9.3c6.3,0,8.3,5.9,8.1,10.2h-13.4
		c-0.1,3.1,1.7,5.9,5.6,5.9c2.5,0,4.1-1.1,4.6-3.5H521z M518.1,517.4c-0.2-2.8-2.2-5-5.1-5c-3,0-4.9,2.3-5.1,5H518.1z"/>
	<path class="st7" d="M536.4,515.9c-0.4-2.2-2-3.6-4.4-3.6c-4.2,0-5.6,3.4-5.6,7c0,3.3,1.5,6.5,5.2,6.5c2.9,0,4.5-1.6,4.9-4.4h3
		c-0.7,4.4-3.4,6.9-7.9,6.9c-5.5,0-8.4-3.8-8.4-9.1c0-5.4,2.8-9.6,8.4-9.6c4.1,0,7.3,1.9,7.7,6.1H536.4z"/>
	<path class="st7" d="M546,507H543v-3.6h2.9V507z M543,510.2h2.9v17.9H543V510.2z"/>
	<path class="st7" d="M551.7,512.8h-3v-2.6h3v-2.7c0-2.9,1.7-4.4,4.9-4.4c0.6,0,1.3,0.1,1.9,0.3v2.6c-0.5-0.2-1.1-0.2-1.7-0.2
		c-1.4,0-2.2,0.4-2.2,2v2.5h3.5v2.6h-3.5v15.3h-2.9V512.8z M560.9,507v-3.6h2.9v3.6H560.9z M560.9,528.1v-17.9h2.9v17.9H560.9z"/>
	<path class="st7" d="M580.5,515.9c-0.4-2.2-2-3.6-4.4-3.6c-4.2,0-5.6,3.4-5.6,7c0,3.3,1.5,6.5,5.2,6.5c2.9,0,4.5-1.6,4.9-4.4h3
		c-0.7,4.4-3.4,6.9-7.9,6.9c-5.5,0-8.4-3.8-8.4-9.1c0-5.4,2.8-9.6,8.4-9.6c4.1,0,7.3,1.9,7.7,6.1H580.5z"/>
	<path class="st7" d="M269.6,548.5h-2.9v-3.6h2.9V548.5z M266.7,551.7h2.9v17.9h-2.9V551.7z"/>
	<path class="st7" d="M274.2,551.7h2.8v2.8h0.1c1.2-2.2,3.2-3.2,5.8-3.2c4.7,0,6.1,2.7,6.1,6.5v11.7H286v-12.1
		c0-2.2-1.4-3.6-3.6-3.6c-3.6,0-5.3,2.4-5.3,5.6v10.1h-2.9V551.7z"/>
	<path class="st7" d="M295.2,563.9c0.1,2.6,2.4,3.5,4.8,3.5c1.8,0,4.3-0.4,4.3-2.7c0-4.6-11.7-1.5-11.7-8.4c0-3.6,3.5-5.1,6.7-5.1
		c4,0,7,1.2,7.3,5.6h-2.9c-0.2-2.3-2.2-3-4.1-3c-1.8,0-3.8,0.5-3.8,2.3c0,2.1,3.1,2.5,5.8,3.1c2.9,0.7,5.8,1.7,5.8,5.1
		c0,4.3-4,5.6-7.6,5.6c-4,0-7.4-1.6-7.6-6H295.2z"/>
	<path class="st7" d="M314.7,551.7h3.6v2.6h-3.6v11.1c0,1.4,0.4,1.6,2.2,1.6h1.3v2.6H316c-3,0-4.2-0.6-4.2-3.9v-11.4h-3v-2.6h3v-5.4
		h2.9V551.7z"/>
	<path class="st7" d="M337.3,569.5c-0.5,0.3-1.2,0.5-2.1,0.5c-1.5,0-2.5-0.8-2.5-2.8c-1.6,1.9-3.8,2.8-6.3,2.8c-3.2,0-5.9-1.4-5.9-5
		c0-4,3-4.9,6-5.5c3.2-0.7,6-0.4,6-2.6c0-2.6-2.1-3-4-3c-2.5,0-4.3,0.8-4.5,3.4h-2.9c0.2-4.4,3.6-6,7.6-6c3.2,0,6.7,0.7,6.7,4.9v9.2
		c0,1.4,0,2,0.9,2c0.3,0,0.6-0.1,0.9-0.2V569.5z M332.6,560.3c-2.3,1.7-8.9,0-8.9,4.4c0,1.9,1.7,2.6,3.5,2.6c3.9,0,5.5-2.4,5.5-4
		V560.3z"/>
	<path class="st7" d="M340.2,544.9h2.9v24.7h-2.9V544.9z"/>
	<path class="st7" d="M347.9,544.9h2.9v24.7h-2.9V544.9z"/>
	<path class="st7" d="M371.2,569.5c-0.5,0.3-1.2,0.5-2.1,0.5c-1.5,0-2.5-0.8-2.5-2.8c-1.6,1.9-3.8,2.8-6.3,2.8c-3.2,0-5.9-1.4-5.9-5
		c0-4,3-4.9,6-5.5c3.2-0.7,6-0.4,6-2.6c0-2.6-2.1-3-4-3c-2.5,0-4.3,0.8-4.5,3.4h-2.9c0.2-4.4,3.6-6,7.6-6c3.2,0,6.7,0.7,6.7,4.9v9.2
		c0,1.4,0,2,0.9,2c0.3,0,0.6-0.1,0.9-0.2V569.5z M366.5,560.3c-2.3,1.7-8.9,0-8.9,4.4c0,1.9,1.7,2.6,3.5,2.6c3.9,0,5.5-2.4,5.5-4
		V560.3z"/>
	<path class="st7" d="M378,551.7h3.6v2.6H378v11.1c0,1.4,0.4,1.6,2.2,1.6h1.3v2.6h-2.2c-3,0-4.2-0.6-4.2-3.9v-11.4h-3v-2.6h3v-5.4
		h2.9V551.7z"/>
	<path class="st7" d="M388,548.5H385v-3.6h2.9V548.5z M385,551.7h2.9v17.9H385V551.7z"/>
	<path class="st7" d="M400.2,551.3c5.7,0,8.7,4.1,8.7,9.4c0,5.2-3,9.3-8.7,9.3s-8.7-4.1-8.7-9.3
		C391.6,555.4,394.6,551.3,400.2,551.3z M400.2,567.4c3.1,0,5.6-2.4,5.6-6.7s-2.5-6.8-5.6-6.8c-3.1,0-5.6,2.5-5.6,6.8
		S397.2,567.4,400.2,567.4z"/>
	<path class="st7" d="M412.4,551.7h2.8v2.8h0.1c1.2-2.2,3.2-3.2,5.8-3.2c4.7,0,6.1,2.7,6.1,6.5v11.7h-2.9v-12.1
		c0-2.2-1.4-3.6-3.6-3.6c-3.6,0-5.3,2.4-5.3,5.6v10.1h-2.9V551.7z"/>
	<path class="st7" d="M433.4,563.9c0.1,2.6,2.4,3.5,4.8,3.5c1.8,0,4.3-0.4,4.3-2.7c0-4.6-11.7-1.5-11.7-8.4c0-3.6,3.5-5.1,6.7-5.1
		c4,0,7,1.2,7.3,5.6h-2.9c-0.2-2.3-2.2-3-4.1-3c-1.8,0-3.8,0.5-3.8,2.3c0,2.1,3.1,2.5,5.8,3.1c2.9,0.7,5.8,1.7,5.8,5.1
		c0,4.3-4,5.6-7.6,5.6c-4,0-7.4-1.6-7.6-6H433.4z"/>
	<path class="st7" d="M473.2,569.5h-2.8v-2.8h-0.1c-1.2,2.2-3.2,3.2-5.8,3.2c-4.7,0-6.1-2.7-6.1-6.5v-11.7h2.9v12.1
		c0,2.2,1.4,3.6,3.6,3.6c3.6,0,5.3-2.4,5.3-5.6v-10.1h2.9V569.5z"/>
	<path class="st7" d="M477.7,551.7h2.8v2.8h0.1c1.2-2.2,3.2-3.2,5.8-3.2c4.7,0,6.1,2.7,6.1,6.5v11.7h-2.9v-12.1
		c0-2.2-1.4-3.6-3.6-3.6c-3.6,0-5.3,2.4-5.3,5.6v10.1h-2.9V551.7z"/>
	<path class="st7" d="M512.8,569.5h-2.9v-2.4h-0.1c-1,2-3.2,2.8-5.7,2.8c-5.5,0-8.2-4.4-8.2-9.4c0-5,2.7-9.3,8.2-9.3
		c1.8,0,4.5,0.7,5.8,2.8h0.1v-9.2h2.9V569.5z M504.5,567.4c4,0,5.5-3.4,5.5-6.7c0-3.5-1.6-6.8-5.6-6.8c-4,0-5.4,3.4-5.4,6.9
		C499,564.1,500.7,567.4,504.5,567.4z"/>
	<path class="st7" d="M532.6,563.9c-0.8,4-3.6,6.1-7.6,6.1c-5.7,0-8.4-4-8.6-9.4c0-5.4,3.5-9.3,8.4-9.3c6.3,0,8.3,5.9,8.1,10.2
		h-13.4c-0.1,3.1,1.7,5.9,5.6,5.9c2.5,0,4.1-1.1,4.6-3.5H532.6z M529.8,558.9c-0.2-2.8-2.2-5-5.1-5c-3,0-4.9,2.3-5.1,5H529.8z"/>
	<path class="st7" d="M535.8,551.7h2.8v3.8h0.1c1.4-2.9,3.4-4.3,6.6-4.2v3.1c-4.7,0-6.5,2.7-6.5,7.2v7.9h-2.9V551.7z"/>
	<path class="st7" d="M561.1,551.7h3.6v2.6h-3.6v11.1c0,1.4,0.4,1.6,2.2,1.6h1.3v2.6h-2.2c-3,0-4.2-0.6-4.2-3.9v-11.4h-3v-2.6h3
		v-5.4h2.9V551.7z"/>
	<path class="st7" d="M567.9,544.9h2.9v9.4h0.1c0.9-2.2,3.5-3,5.6-3c4.7,0,6.1,2.7,6.1,6.5v11.7h-2.9v-12.1c0-2.2-1.4-3.6-3.6-3.6
		c-3.6,0-5.3,2.4-5.3,5.6v10.1h-2.9V544.9z"/>
	<path class="st7" d="M602.3,563.9c-0.8,4-3.6,6.1-7.6,6.1c-5.7,0-8.4-4-8.6-9.4c0-5.4,3.5-9.3,8.4-9.3c6.3,0,8.3,5.9,8.1,10.2
		h-13.4c-0.1,3.1,1.7,5.9,5.6,5.9c2.5,0,4.1-1.1,4.6-3.5H602.3z M599.5,558.9c-0.2-2.8-2.2-5-5.1-5c-3,0-4.9,2.3-5.1,5H599.5z"/>
	<path class="st7" d="M289.2,611h-3.4l-5.6-20.7h-0.1l-5.7,20.7H271l-6.3-24.7h3.4l4.8,20.5h0.1l5.5-20.5h3.6l5.5,20.5h0.1l5-20.5
		h3.3L289.2,611z"/>
	<path class="st7" d="M314.3,610.9c-0.5,0.3-1.2,0.5-2.1,0.5c-1.5,0-2.5-0.8-2.5-2.8c-1.6,1.9-3.8,2.8-6.3,2.8c-3.2,0-5.9-1.4-5.9-5
		c0-4,3-4.9,6-5.5c3.2-0.7,6-0.4,6-2.6c0-2.6-2.1-3-4-3c-2.5,0-4.3,0.8-4.5,3.4h-2.9c0.2-4.4,3.6-6,7.6-6c3.2,0,6.7,0.7,6.7,4.9v9.2
		c0,1.4,0,2,0.9,2c0.3,0,0.6-0.1,0.9-0.2V610.9z M309.5,601.8c-2.3,1.7-8.9,0-8.9,4.4c0,1.9,1.7,2.6,3.5,2.6c3.9,0,5.5-2.4,5.5-4
		V601.8z"/>
	<path class="st7" d="M321.1,593.1h3.6v2.6h-3.6v11.1c0,1.4,0.4,1.6,2.2,1.6h1.3v2.6h-2.2c-3,0-4.2-0.6-4.2-3.9v-11.4h-3v-2.6h3
		v-5.4h2.9V593.1z"/>
	<path class="st7" d="M329.7,605.4c0.1,2.6,2.4,3.5,4.8,3.5c1.8,0,4.3-0.4,4.3-2.7c0-4.6-11.7-1.5-11.7-8.4c0-3.6,3.5-5.1,6.7-5.1
		c4,0,7,1.2,7.3,5.6h-2.9c-0.2-2.3-2.2-3-4.1-3c-1.8,0-3.8,0.5-3.8,2.3c0,2.1,3.1,2.5,5.8,3.1c2.9,0.7,5.8,1.7,5.8,5.1
		c0,4.3-4,5.6-7.6,5.6c-4,0-7.4-1.6-7.6-6H329.7z"/>
	<path class="st7" d="M352.9,592.7c5.7,0,8.7,4.1,8.7,9.4c0,5.2-3,9.3-8.7,9.3s-8.7-4.1-8.7-9.3
		C344.2,596.8,347.2,592.7,352.9,592.7z M352.9,608.8c3.1,0,5.6-2.4,5.6-6.7s-2.5-6.8-5.6-6.8c-3.1,0-5.6,2.5-5.6,6.8
		S349.8,608.8,352.9,608.8z"/>
	<path class="st7" d="M365,593.1h2.8v2.8h0.1c1.2-2.2,3.2-3.2,5.8-3.2c4.7,0,6.1,2.7,6.1,6.5V611h-2.9v-12.1c0-2.2-1.4-3.6-3.6-3.6
		c-3.6,0-5.3,2.4-5.3,5.6V611H365V593.1z"/>
	<path class="st7" d="M394.3,586.3h3.3v10.6h13v-10.6h3.3V611h-3.3v-11.3h-13V611h-3.3V586.3z"/>
	<path class="st7" d="M434,605.3c-0.8,4-3.6,6.1-7.6,6.1c-5.7,0-8.4-4-8.6-9.4c0-5.4,3.5-9.3,8.4-9.3c6.3,0,8.3,5.9,8.1,10.2h-13.4
		c-0.1,3.1,1.7,5.9,5.6,5.9c2.5,0,4.1-1.1,4.6-3.5H434z M431.2,600.4c-0.2-2.8-2.2-5-5.1-5c-3,0-4.9,2.3-5.1,5H431.2z"/>
	<path class="st7" d="M453.2,610.9c-0.5,0.3-1.2,0.5-2.1,0.5c-1.5,0-2.5-0.8-2.5-2.8c-1.6,1.9-3.8,2.8-6.3,2.8c-3.2,0-5.9-1.4-5.9-5
		c0-4,3-4.9,6-5.5c3.2-0.7,6-0.4,6-2.6c0-2.6-2.1-3-4-3c-2.5,0-4.3,0.8-4.5,3.4h-2.9c0.2-4.4,3.6-6,7.6-6c3.2,0,6.7,0.7,6.7,4.9v9.2
		c0,1.4,0,2,0.9,2c0.3,0,0.6-0.1,0.9-0.2V610.9z M448.4,601.8c-2.3,1.7-8.9,0-8.9,4.4c0,1.9,1.7,2.6,3.5,2.6c3.9,0,5.5-2.4,5.5-4
		V601.8z"/>
	<path class="st7" d="M456.1,586.3h2.9V611h-2.9V586.3z"/>
	<path class="st7" d="M467.6,593.1h3.6v2.6h-3.6v11.1c0,1.4,0.4,1.6,2.2,1.6h1.3v2.6h-2.2c-3,0-4.2-0.6-4.2-3.9v-11.4h-3v-2.6h3
		v-5.4h2.9V593.1z"/>
	<path class="st7" d="M474.4,586.3h2.9v9.4h0.1c0.9-2.2,3.5-3,5.6-3c4.7,0,6.1,2.7,6.1,6.5V611h-2.9v-12.1c0-2.2-1.4-3.6-3.6-3.6
		c-3.6,0-5.3,2.4-5.3,5.6V611h-2.9V586.3z"/>
	<path class="st7" d="M523.8,613.1l-3.8-3c-1.7,1-3.6,1.5-5.9,1.5c-7.8,0-11.8-6.2-11.8-12.9s4-12.9,11.8-12.9s11.8,6.2,11.8,12.9
		c0,3.8-1.2,7.4-3.7,9.8l3.2,2.6L523.8,613.1z M516.6,603.9l3.3,2.6c1.9-1.9,2.8-4.9,2.8-7.9c0-5-2.5-10.2-8.5-10.2
		s-8.5,5.2-8.5,10.2s2.5,10.2,8.5,10.2c1.2,0,2.3-0.2,3.4-0.7l-2.7-2.2L516.6,603.9z"/>
	<path class="st7" d="M544.3,611h-2.8v-2.8h-0.1c-1.2,2.2-3.2,3.2-5.8,3.2c-4.7,0-6.1-2.7-6.1-6.5v-11.7h2.9v12.1
		c0,2.2,1.4,3.6,3.6,3.6c3.6,0,5.3-2.4,5.3-5.6v-10.1h2.9V611z"/>
	<path class="st7" d="M564.5,610.9c-0.5,0.3-1.2,0.5-2.1,0.5c-1.5,0-2.5-0.8-2.5-2.8c-1.6,1.9-3.8,2.8-6.3,2.8c-3.2,0-5.9-1.4-5.9-5
		c0-4,3-4.9,6-5.5c3.2-0.7,6-0.4,6-2.6c0-2.6-2.1-3-4-3c-2.5,0-4.3,0.8-4.5,3.4h-2.9c0.2-4.4,3.6-6,7.6-6c3.2,0,6.7,0.7,6.7,4.9v9.2
		c0,1.4,0,2,0.9,2c0.3,0,0.6-0.1,0.9-0.2V610.9z M559.8,601.8c-2.3,1.7-8.9,0-8.9,4.4c0,1.9,1.7,2.6,3.5,2.6c3.9,0,5.5-2.4,5.5-4
		V601.8z"/>
	<path class="st7" d="M567.5,586.3h2.9V611h-2.9V586.3z"/>
	<path class="st7" d="M578.1,589.9h-2.9v-3.6h2.9V589.9z M575.1,593.1h2.9V611h-2.9V593.1z"/>
	<path class="st7" d="M586.7,593.1h3.6v2.6h-3.6v11.1c0,1.4,0.4,1.6,2.2,1.6h1.3v2.6H588c-3,0-4.2-0.6-4.2-3.9v-11.4h-3v-2.6h3v-5.4
		h2.9V593.1z"/>
	<path class="st7" d="M600.5,613.4c-1.4,3.5-2.6,4.8-5.2,4.8c-0.7,0-1.4-0.1-2-0.3v-2.7c0.6,0.2,1.1,0.4,1.7,0.4
		c1.2,0,1.9-0.6,2.4-1.6l1.2-3l-7.1-17.8h3.3l5.2,14.6h0.1l5-14.6h3.1L600.5,613.4z"/>
	<path class="st7" d="M267,627.8h4.5l7.8,20.7l7.8-20.7h4.5v24.7h-3.1v-20.5h-0.1l-7.7,20.5h-2.8l-7.7-20.5h-0.1v20.5H267V627.8z"/>
	<path class="st7" d="M312.4,652.4c-0.5,0.3-1.2,0.5-2.1,0.5c-1.5,0-2.5-0.8-2.5-2.8c-1.6,1.9-3.8,2.8-6.3,2.8c-3.2,0-5.9-1.4-5.9-5
		c0-4,3-4.9,6-5.5c3.2-0.7,6-0.4,6-2.6c0-2.6-2.1-3-4-3c-2.5,0-4.3,0.8-4.5,3.4h-2.9c0.2-4.4,3.6-6,7.6-6c3.2,0,6.7,0.7,6.7,4.9v9.2
		c0,1.4,0,2,0.9,2c0.3,0,0.6-0.1,0.9-0.2V652.4z M307.6,643.2c-2.3,1.7-8.9,0-8.9,4.4c0,1.9,1.7,2.6,3.5,2.6c3.9,0,5.5-2.4,5.5-4
		V643.2z"/>
	<path class="st7" d="M315.1,634.6h2.8v2.8h0.1c1.2-2.2,3.2-3.2,5.8-3.2c4.7,0,6.1,2.7,6.1,6.5v11.7H327v-12.1
		c0-2.2-1.4-3.6-3.6-3.6c-3.6,0-5.3,2.4-5.3,5.6v10.1h-2.9V634.6z"/>
	<path class="st7" d="M350.2,652.4c-0.5,0.3-1.2,0.5-2.1,0.5c-1.5,0-2.5-0.8-2.5-2.8c-1.6,1.9-3.8,2.8-6.3,2.8c-3.2,0-5.9-1.4-5.9-5
		c0-4,3-4.9,6-5.5c3.2-0.7,6-0.4,6-2.6c0-2.6-2.1-3-4-3c-2.5,0-4.3,0.8-4.5,3.4h-2.9c0.2-4.4,3.6-6,7.6-6c3.2,0,6.7,0.7,6.7,4.9v9.2
		c0,1.4,0,2,0.9,2c0.3,0,0.6-0.1,0.9-0.2V652.4z M345.4,643.2c-2.3,1.7-8.9,0-8.9,4.4c0,1.9,1.7,2.6,3.5,2.6c3.9,0,5.5-2.4,5.5-4
		V643.2z"/>
	<path class="st7" d="M368.3,650.9c0,5.8-2.6,8.8-8.3,8.8c-3.4,0-7.2-1.4-7.4-5.3h2.9c0.1,2.1,2.7,2.9,4.6,2.9
		c3.8,0,5.4-2.8,5.4-6.8v-1.2h-0.1c-1,2.2-3.3,3.2-5.6,3.2c-5.3,0-8-4.2-8-9.1c0-4.2,2-9.4,8.3-9.4c2.2,0,4.2,1,5.3,3h0v-2.6h2.8
		V650.9z M365.4,643.2c0-3.1-1.4-6.4-5.1-6.4c-3.8,0-5.3,3.1-5.3,6.5c0,3.2,1.2,6.8,5,6.8S365.4,646.5,365.4,643.2z"/>
	<path class="st7" d="M388,646.8c-0.8,4-3.6,6.1-7.6,6.1c-5.7,0-8.4-4-8.6-9.4c0-5.4,3.5-9.3,8.4-9.3c6.3,0,8.3,5.9,8.1,10.2h-13.4
		c-0.1,3.1,1.7,5.9,5.6,5.9c2.5,0,4.1-1.1,4.6-3.5H388z M385.1,641.8c-0.2-2.8-2.2-5-5.1-5c-3,0-4.9,2.3-5.1,5H385.1z"/>
	<path class="st7" d="M391.3,634.6h2.8v2.6h0.1c1.3-2,3.2-3,5.8-3c2.2,0,4.2,0.8,4.9,3c1.2-1.9,3.3-3,5.6-3c3.6,0,5.9,1.5,5.9,5.2
		v13.1h-2.9v-11.7c0-2.2-0.6-4-3.5-4s-4.7,1.8-4.7,4.6v11.1h-2.9v-11.7c0-2.3-0.7-4-3.4-4c-3.5,0-4.8,3.2-4.8,4.6v11.1h-2.9V634.6z"
		/>
	<path class="st7" d="M436,646.8c-0.8,4-3.6,6.1-7.6,6.1c-5.7,0-8.4-4-8.6-9.4c0-5.4,3.5-9.3,8.4-9.3c6.3,0,8.3,5.9,8.1,10.2h-13.4
		c-0.1,3.1,1.7,5.9,5.6,5.9c2.5,0,4.1-1.1,4.6-3.5H436z M433.2,641.8c-0.2-2.8-2.2-5-5.1-5c-3,0-4.9,2.3-5.1,5H433.2z"/>
	<path class="st7" d="M439.3,634.6h2.8v2.8h0.1c1.2-2.2,3.2-3.2,5.8-3.2c4.7,0,6.1,2.7,6.1,6.5v11.7h-2.9v-12.1
		c0-2.2-1.4-3.6-3.6-3.6c-3.6,0-5.3,2.4-5.3,5.6v10.1h-2.9V634.6z"/>
	<path class="st7" d="M462.6,634.6h3.6v2.6h-3.6v11.1c0,1.4,0.4,1.6,2.2,1.6h1.3v2.6h-2.2c-3,0-4.2-0.6-4.2-3.9v-11.4h-3v-2.6h3
		v-5.4h2.9V634.6z"/>
	<path class="st7" d="M493.8,635c-0.4-3.6-2.7-5-6.1-5c-2.8,0-5.5,1-5.5,4.2c0,6.1,15.8,1.8,15.8,11.5c0,5.3-5.1,7.4-9.6,7.4
		c-5.5,0-10.2-2.7-10.2-8.7h3.1c0,4.1,3.5,5.9,7.2,5.9c3,0,6.3-0.9,6.3-4.5c0-6.8-15.8-2.3-15.8-11.4c0-5,4.4-7.2,8.9-7.2
		c5,0,8.9,2.4,9.1,7.8H493.8z"/>
	<path class="st7" d="M508.4,654.8c-1.4,3.5-2.6,4.8-5.2,4.8c-0.7,0-1.4-0.1-2-0.3v-2.7c0.6,0.2,1.1,0.4,1.7,0.4
		c1.2,0,1.9-0.6,2.4-1.6l1.2-3l-7.1-17.8h3.3l5.2,14.6h0.1l5-14.6h3.1L508.4,654.8z"/>
	<path class="st7" d="M520.5,646.8c0.1,2.6,2.4,3.5,4.8,3.5c1.8,0,4.3-0.4,4.3-2.7c0-4.6-11.7-1.5-11.7-8.4c0-3.6,3.5-5.1,6.7-5.1
		c4,0,7,1.2,7.3,5.6H529c-0.2-2.3-2.2-3-4.1-3c-1.8,0-3.8,0.5-3.8,2.3c0,2.1,3.1,2.5,5.8,3.1c2.9,0.7,5.8,1.7,5.8,5.1
		c0,4.3-4,5.6-7.6,5.6c-4,0-7.4-1.6-7.6-6H520.5z"/>
	<path class="st7" d="M540,634.6h3.6v2.6H540v11.1c0,1.4,0.4,1.6,2.2,1.6h1.3v2.6h-2.2c-3,0-4.2-0.6-4.2-3.9v-11.4h-3v-2.6h3v-5.4
		h2.9V634.6z"/>
	<path class="st7" d="M562.1,646.8c-0.8,4-3.6,6.1-7.6,6.1c-5.7,0-8.4-4-8.6-9.4c0-5.4,3.5-9.3,8.4-9.3c6.3,0,8.3,5.9,8.1,10.2H549
		c-0.1,3.1,1.7,5.9,5.6,5.9c2.5,0,4.1-1.1,4.6-3.5H562.1z M559.2,641.8c-0.2-2.8-2.2-5-5.1-5c-3,0-4.9,2.3-5.1,5H559.2z"/>
	<path class="st7" d="M565.4,634.6h2.8v2.6h0.1c1.3-2,3.2-3,5.8-3c2.2,0,4.2,0.8,4.9,3c1.2-1.9,3.3-3,5.6-3c3.6,0,5.9,1.5,5.9,5.2
		v13.1h-2.9v-11.7c0-2.2-0.6-4-3.5-4s-4.7,1.8-4.7,4.6v11.1h-2.9v-11.7c0-2.3-0.7-4-3.4-4c-3.5,0-4.8,3.2-4.8,4.6v11.1h-2.9V634.6z"
		/>
	<path class="st7" d="M609.3,659.3c-3.3-5.1-5.4-10.1-5.4-16.2c0-5.4,1.9-11.2,5.4-15.9h2.2c-3.3,5.2-4.6,10.3-4.6,15.9
		c0,5.8,1.3,10.9,4.6,16.2H609.3z"/>
	<path class="st7" d="M634,654.6l-3.8-3c-1.7,1-3.6,1.5-5.9,1.5c-7.8,0-11.8-6.2-11.8-12.9s4-12.9,11.8-12.9s11.8,6.2,11.8,12.9
		c0,3.8-1.2,7.4-3.7,9.8l3.2,2.6L634,654.6z M626.7,645.4l3.3,2.6c1.9-1.9,2.8-4.9,2.8-7.9c0-5-2.5-10.2-8.5-10.2s-8.5,5.2-8.5,10.2
		s2.5,10.2,8.5,10.2c1.2,0,2.3-0.2,3.4-0.7l-2.7-2.2L626.7,645.4z"/>
	<path class="st7" d="M640.2,627.8h4.5l7.8,20.7l7.8-20.7h4.5v24.7h-3.1v-20.5h-0.1l-7.7,20.5h-2.8l-7.7-20.5h-0.1v20.5h-3.1V627.8z
		"/>
	<path class="st7" d="M684.5,635c-0.4-3.6-2.7-5-6.1-5c-2.8,0-5.5,1-5.5,4.2c0,6.1,15.8,1.8,15.8,11.5c0,5.3-5.1,7.4-9.6,7.4
		c-5.5,0-10.2-2.7-10.2-8.7h3.1c0,4.1,3.5,5.9,7.2,5.9c3,0,6.3-0.9,6.3-4.5c0-6.8-15.8-2.3-15.8-11.4c0-5,4.4-7.2,8.9-7.2
		c5,0,8.9,2.4,9.1,7.8H684.5z"/>
	<path class="st7" d="M689.6,659.3c3.3-5.2,4.6-10.3,4.6-15.9c0-5.8-1.3-10.9-4.6-16.2h2.2c3.3,5.1,5.4,10.1,5.4,16.2
		c0,5.4-1.9,11.2-5.4,15.9H689.6z"/>
</g>
<g>
</g>
<g>
</g>
<g>
</g>
<g>
</g>
<g>
</g>
<g>
</g>
</svg>
