<?xml version="1.0" encoding="utf-8"?>
<!-- Generator: Adobe Illustrator 19.2.0, SVG Export Plug-In . SVG Version: 6.00 Build 0)  -->
<svg version="1.1" id="Layer_1" xmlns="http://www.w3.org/2000/svg" xmlns:xlink="http://www.w3.org/1999/xlink" x="0px" y="0px"
	 viewBox="0 0 2048 1000" style="enable-background:new 0 0 2048 1000;" xml:space="preserve">
<style type="text/css">
	.st0{fill:#89BE46;}
	.st1{fill:none;}
	.st2{fill:#333333;}
	.st3{fill:none;stroke:#343636;stroke-width:4;stroke-miterlimit:10;}
	.st4{fill:#FFFFFF;}
	.st5{fill:#3D566E;}
	.st6{fill:#D1D1D1;}
	.st7{fill:#2C3E50;}
	.st8{fill:#DAE1E6;}
	.st9{fill:#ECF0F1;}
	.st10{fill:#666666;}
	.st11{fill:#E02828;}
	.st12{fill:#FFCB05;}
	.st13{fill:#6699FF;}
	.st14{fill:#999999;}
	.st15{fill:#B3B3B3;}
	.st16{fill:#FACC4D;}
	.st17{fill:#6EBCC6;}
	.st18{fill:#121220;}
	.st19{fill:#2980B9;}
	.st20{fill:#9B59B6;}
	.st21{fill:#95A5A6;}
	.st22{enable-background:new    ;}
</style>
<rect class="st0" width="2048" height="1000"/>
<g>
	<rect x="111.4" y="282.6" class="st1" width="1392.3" height="616"/>
	<path class="st2" d="M158.4,286.3h-10.9v-3.7h26.3v3.7h-10.9v29.2h-4.4V286.3z"/>
	<path class="st2" d="M187,291.1c7.5,0,11.5,5.5,11.5,12.5c0,6.9-4,12.4-11.5,12.4s-11.5-5.5-11.5-12.4
		C175.4,296.6,179.4,291.1,187,291.1z M187,312.6c4.1,0,7.4-3.2,7.4-9c0-5.8-3.3-9-7.4-9c-4.1,0-7.4,3.3-7.4,9
		C179.6,309.4,182.9,312.6,187,312.6z"/>
	<path class="st2" d="M216,291.7h3.9v3.2h0.1c1.3-2.6,4.3-3.8,7.6-3.8c7.3,0,10.9,5.8,10.9,12.5c0,6.8-3.6,12.4-10.9,12.4
		c-2.4,0-6-0.9-7.7-3.7H220v12.3H216V291.7z M227.1,294.6c-5.3,0-7.3,4.6-7.3,9c0,4.6,2.1,9,7.5,9c5.3,0,7.1-4.6,7.1-9.2
		C234.4,298.9,232.1,294.6,227.1,294.6z"/>
	<path class="st2" d="M243,291.7h3.7v5h0.1c1.9-3.9,4.5-5.7,8.7-5.6v4.1c-6.3,0-8.6,3.5-8.6,9.6v10.6H243V291.7z"/>
	<path class="st2" d="M268.8,291.1c7.5,0,11.5,5.5,11.5,12.5c0,6.9-4,12.4-11.5,12.4s-11.5-5.5-11.5-12.4
		C257.2,296.6,261.2,291.1,268.8,291.1z M268.8,312.6c4.1,0,7.4-3.2,7.4-9c0-5.8-3.3-9-7.4-9c-4.1,0-7.4,3.3-7.4,9
		C261.4,309.4,264.7,312.6,268.8,312.6z"/>
	<path class="st2" d="M295.6,315.5h-4.2l-8.8-23.8h4.4l6.7,19.8h0.1l6.5-19.8h4.1L295.6,315.5z"/>
	<path class="st2" d="M312,287.4h-3.9v-4.8h3.9V287.4z M308.1,291.7h3.9v23.8h-3.9V291.7z"/>
	<path class="st2" d="M339.4,315.5h-3.9v-3.2h-0.1c-1.3,2.6-4.3,3.8-7.6,3.8c-7.3,0-10.9-5.8-10.9-12.5s3.6-12.4,10.9-12.4
		c2.4,0,6,0.9,7.7,3.7h0.1v-12.2h3.9V315.5z M328.3,312.6c5.3,0,7.3-4.6,7.3-9c0-4.6-2.1-9-7.5-9c-5.3,0-7.1,4.6-7.1,9.2
		C321,308.3,323.3,312.6,328.3,312.6z"/>
	<path class="st2" d="M365.7,307.9c-1.1,5.3-4.8,8.1-10.2,8.1c-7.6,0-11.2-5.3-11.4-12.5c0-7.2,4.7-12.4,11.2-12.4
		c8.4,0,11,7.9,10.8,13.6h-17.8c-0.1,4.1,2.2,7.8,7.4,7.8c3.3,0,5.5-1.5,6.2-4.6H365.7z M361.9,301.3c-0.2-3.7-2.9-6.7-6.9-6.7
		c-4,0-6.6,3-6.8,6.7H361.9z"/>
	<path class="st2" d="M403.4,313.5c0,7.8-3.5,11.7-11,11.7c-4.5,0-9.6-1.8-9.8-7h3.9c0.1,2.8,3.6,3.9,6.2,3.9c5.1,0,7.1-3.7,7.1-9
		v-1.6h-0.1c-1.3,2.9-4.4,4.3-7.4,4.3c-7.1,0-10.6-5.6-10.6-12.1c0-5.6,2.7-12.6,11-12.6c3,0,5.7,1.3,7.1,4h0v-3.4h3.7V313.5z
		 M399.5,303.1c0-4.2-1.8-8.5-6.8-8.5c-5,0-7,4.1-7,8.6c0,4.3,1.6,9.1,6.7,9.1C397.6,312.3,399.5,307.6,399.5,303.1z"/>
	<path class="st2" d="M429,315.5h-3.7v-3.8h-0.1c-1.7,2.9-4.3,4.3-7.7,4.3c-6.3,0-8.2-3.6-8.2-8.7v-15.6h3.9v16.1
		c0,2.9,1.8,4.8,4.8,4.8c4.7,0,7-3.2,7-7.5v-13.4h3.9V315.5z"/>
	<path class="st2" d="M439,287.4h-3.9v-4.8h3.9V287.4z M435.1,291.7h3.9v23.8h-3.9V291.7z"/>
	<path class="st2" d="M466.3,315.5h-3.9v-3.2h-0.1c-1.3,2.6-4.3,3.8-7.6,3.8c-7.3,0-10.9-5.8-10.9-12.5s3.6-12.4,10.9-12.4
		c2.4,0,6,0.9,7.7,3.7h0.1v-12.2h3.9V315.5z M455.3,312.6c5.3,0,7.3-4.6,7.3-9c0-4.6-2.1-9-7.5-9c-5.3,0-7.1,4.6-7.1,9.2
		C447.9,308.3,450.2,312.6,455.3,312.6z"/>
	<path class="st2" d="M493.4,315.4c-0.7,0.4-1.7,0.6-2.8,0.6c-2,0-3.3-1.1-3.3-3.7c-2.2,2.6-5.1,3.7-8.4,3.7c-4.3,0-7.9-1.9-7.9-6.7
		c0-5.4,4-6.6,8.1-7.3c4.3-0.9,8-0.5,8-3.5c0-3.5-2.9-4-5.3-4c-3.3,0-5.8,1-5.9,4.5H472c0.2-5.9,4.7-8,10.1-8c4.3,0,8.9,1,8.9,6.5
		v12.2c0,1.8,0,2.7,1.2,2.7c0.4,0,0.8-0.1,1.2-0.2V315.4z M487.1,303.2c-3,2.3-11.9,0-11.9,5.9c0,2.6,2.2,3.5,4.6,3.5
		c5.2,0,7.3-3.2,7.3-5.4V303.2z"/>
	<path class="st2" d="M497.1,291.7h3.7v3.8h0.1c1.7-2.9,4.3-4.3,7.7-4.3c6.3,0,8.2,3.6,8.2,8.7v15.6h-3.9v-16.1
		c0-2.9-1.8-4.8-4.8-4.8c-4.7,0-7,3.2-7,7.5v13.4h-3.9V291.7z"/>
	<path class="st2" d="M538.8,299.3c-0.6-3-2.6-4.7-5.9-4.7c-5.7,0-7.4,4.5-7.4,9.3c0,4.4,2,8.7,6.9,8.7c3.8,0,6-2.2,6.5-5.8h4
		c-0.9,5.8-4.5,9.2-10.5,9.2c-7.3,0-11.1-5-11.1-12.1s3.7-12.7,11.2-12.7c5.4,0,9.7,2.5,10.3,8.2H538.8z"/>
	<path class="st2" d="M567.6,307.9c-1.1,5.3-4.8,8.1-10.2,8.1c-7.6,0-11.2-5.3-11.4-12.5c0-7.2,4.7-12.4,11.2-12.4
		c8.4,0,11,7.9,10.8,13.6h-17.8c-0.1,4.1,2.2,7.8,7.4,7.8c3.3,0,5.5-1.5,6.2-4.6H567.6z M563.8,301.3c-0.2-3.7-2.9-6.7-6.9-6.7
		c-4,0-6.6,3-6.8,6.7H563.8z"/>
	<path class="st2" d="M605.9,315.4c-0.7,0.4-1.7,0.6-2.8,0.6c-2,0-3.3-1.1-3.3-3.7c-2.2,2.6-5.1,3.7-8.4,3.7c-4.3,0-7.9-1.9-7.9-6.7
		c0-5.4,4-6.6,8.1-7.3c4.3-0.9,8-0.5,8-3.5c0-3.5-2.9-4-5.3-4c-3.3,0-5.8,1-5.9,4.5h-3.9c0.2-5.9,4.7-8,10.1-8c4.3,0,8.9,1,8.9,6.5
		v12.2c0,1.8,0,2.7,1.2,2.7c0.4,0,0.8-0.1,1.2-0.2V315.4z M599.5,303.2c-3,2.3-11.9,0-11.9,5.9c0,2.6,2.2,3.5,4.6,3.5
		c5.2,0,7.3-3.2,7.3-5.4V303.2z"/>
	<path class="st2" d="M611.9,308c0.1,3.5,3.2,4.6,6.4,4.6c2.4,0,5.8-0.6,5.8-3.5c0-6.1-15.5-2-15.5-11.1c0-4.8,4.7-6.8,8.9-6.8
		c5.3,0,9.4,1.7,9.8,7.5h-3.9c-0.2-3-3-4-5.5-4c-2.3,0-5.1,0.6-5.1,3c0,2.8,4.1,3.3,7.8,4.1c3.9,0.9,7.8,2.2,7.8,6.8
		c0,5.7-5.3,7.5-10.1,7.5c-5.3,0-9.8-2.2-10.1-8.1H611.9z"/>
	<path class="st2" d="M650.7,291.7h4.7v3.5h-4.7v14.8c0,1.8,0.5,2.1,2.9,2.1h1.8v3.5h-3c-4,0-5.7-0.8-5.7-5.2v-15.1h-4v-3.5h4v-7.1
		h3.9V291.7z"/>
	<path class="st2" d="M670.1,291.1c7.5,0,11.5,5.5,11.5,12.5c0,6.9-4,12.4-11.5,12.4s-11.5-5.5-11.5-12.4
		C658.5,296.6,662.5,291.1,670.1,291.1z M670.1,312.6c4.1,0,7.4-3.2,7.4-9c0-5.8-3.3-9-7.4-9c-4.1,0-7.4,3.3-7.4,9
		C662.6,309.4,666,312.6,670.1,312.6z"/>
	<path class="st2" d="M699,282.6h3.9v12.6h0.1c1.2-2.9,4.7-4,7.5-4c6.3,0,8.2,3.6,8.2,8.7v15.6h-3.9v-16.1c0-2.9-1.8-4.8-4.8-4.8
		c-4.7,0-7,3.2-7,7.5v13.4H699V282.6z"/>
	<path class="st2" d="M734.8,291.1c7.5,0,11.5,5.5,11.5,12.5c0,6.9-4,12.4-11.5,12.4s-11.5-5.5-11.5-12.4
		C723.3,296.6,727.3,291.1,734.8,291.1z M734.8,312.6c4.1,0,7.4-3.2,7.4-9c0-5.8-3.3-9-7.4-9c-4.1,0-7.4,3.3-7.4,9
		C727.4,309.4,730.7,312.6,734.8,312.6z"/>
	<path class="st2" d="M774.5,315.5h-4.1l-4.8-18.9h-0.1l-4.8,18.9h-4.2l-7.6-23.8h4.3l5.4,19.5h0.1l4.8-19.5h4.3l5,19.5h0.1
		l5.3-19.5h4L774.5,315.5z"/>
	<path class="st2" d="M799.5,282.6h4.4v32.8h-4.4V282.6z"/>
	<path class="st2" d="M811.2,282.6h11.9c2.9,0,6.8,0,8.7,1.2c2.2,1.3,3.9,3.6,3.9,6.9c0,3.5-1.8,6.1-4.9,7.4v0.1
		c4,0.9,6.3,3.9,6.3,7.9c0,4.8-3.5,9.4-10,9.4h-15.9V282.6z M815.6,296.8h8.7c5,0,7-1.7,7-5.2c0-4.6-3.2-5.2-7-5.2h-8.7V296.8z
		 M815.6,311.8h10.9c3.8,0,6.2-2.3,6.2-5.9c0-4.3-3.5-5.5-7.1-5.5h-10V311.8z"/>
	<path class="st2" d="M842.8,282.6h6l10.4,27.6l10.4-27.6h6v32.8h-4.1v-27.3h-0.1L861,315.5h-3.7L847,288.2h-0.1v27.3h-4.1V282.6z"
		/>
	<path class="st2" d="M925.2,315.5h-4.6l-7.5-27.6h-0.1l-7.6,27.6h-4.6l-8.4-32.8h4.5l6.4,27.3h0.1l7.4-27.3h4.7l7.3,27.3h0.1
		l6.7-27.3h4.4L925.2,315.5z"/>
	<path class="st2" d="M958.6,315.4c-0.7,0.4-1.7,0.6-2.8,0.6c-2,0-3.3-1.1-3.3-3.7c-2.2,2.6-5.1,3.7-8.4,3.7c-4.3,0-7.9-1.9-7.9-6.7
		c0-5.4,4-6.6,8.1-7.3c4.3-0.9,8-0.5,8-3.5c0-3.5-2.9-4-5.3-4c-3.3,0-5.8,1-5.9,4.5h-3.9c0.2-5.9,4.7-8,10.1-8c4.3,0,8.9,1,8.9,6.5
		v12.2c0,1.8,0,2.7,1.2,2.7c0.4,0,0.8-0.1,1.2-0.2V315.4z M952.2,303.2c-3,2.3-11.9,0-11.9,5.9c0,2.6,2.2,3.5,4.6,3.5
		c5.2,0,7.3-3.2,7.3-5.4V303.2z"/>
	<path class="st2" d="M967.6,291.7h4.7v3.5h-4.7v14.8c0,1.8,0.5,2.1,2.9,2.1h1.8v3.5h-3c-4,0-5.7-0.8-5.7-5.2v-15.1h-4v-3.5h4v-7.1
		h3.9V291.7z"/>
	<path class="st2" d="M979.1,308c0.1,3.5,3.2,4.6,6.4,4.6c2.4,0,5.8-0.6,5.8-3.5c0-6.1-15.5-2-15.5-11.1c0-4.8,4.7-6.8,8.9-6.8
		c5.3,0,9.4,1.7,9.8,7.5h-3.9c-0.2-3-3-4-5.5-4c-2.3,0-5.1,0.6-5.1,3c0,2.8,4.1,3.3,7.8,4.1c3.9,0.9,7.8,2.2,7.8,6.8
		c0,5.7-5.3,7.5-10.1,7.5c-5.3,0-9.8-2.2-10.1-8.1H979.1z"/>
	<path class="st2" d="M1009.9,291.1c7.5,0,11.5,5.5,11.5,12.5c0,6.9-4,12.4-11.5,12.4s-11.5-5.5-11.5-12.4
		C998.4,296.6,1002.4,291.1,1009.9,291.1z M1009.9,312.6c4.1,0,7.4-3.2,7.4-9c0-5.8-3.3-9-7.4-9c-4.1,0-7.4,3.3-7.4,9
		C1002.5,309.4,1005.9,312.6,1009.9,312.6z"/>
	<path class="st2" d="M1026.1,291.7h3.7v3.8h0.1c1.7-2.9,4.3-4.3,7.7-4.3c6.3,0,8.2,3.6,8.2,8.7v15.6h-3.9v-16.1
		c0-2.9-1.8-4.8-4.8-4.8c-4.7,0-7,3.2-7,7.5v13.4h-3.9V291.7z"/>
	<path class="st2" d="M1065.1,282.6h4.4v14.1h17.3v-14.1h4.4v32.8h-4.4v-15h-17.3v15h-4.4V282.6z"/>
	<path class="st2" d="M1118,307.9c-1.1,5.3-4.8,8.1-10.2,8.1c-7.6,0-11.2-5.3-11.4-12.5c0-7.2,4.7-12.4,11.2-12.4
		c8.4,0,11,7.9,10.8,13.6h-17.8c-0.1,4.1,2.2,7.8,7.4,7.8c3.3,0,5.5-1.5,6.2-4.6H1118z M1114.2,301.3c-0.2-3.7-2.9-6.7-6.9-6.7
		c-4,0-6.6,3-6.8,6.7H1114.2z"/>
	<path class="st2" d="M1143.4,315.4c-0.7,0.4-1.7,0.6-2.8,0.6c-2,0-3.3-1.1-3.3-3.7c-2.2,2.6-5.1,3.7-8.4,3.7
		c-4.3,0-7.9-1.9-7.9-6.7c0-5.4,4-6.6,8.1-7.3c4.3-0.9,8-0.5,8-3.5c0-3.5-2.9-4-5.3-4c-3.3,0-5.8,1-5.9,4.5h-3.9
		c0.2-5.9,4.7-8,10.1-8c4.3,0,8.9,1,8.9,6.5v12.2c0,1.8,0,2.7,1.2,2.7c0.4,0,0.8-0.1,1.2-0.2V315.4z M1137.1,303.2
		c-3,2.3-11.9,0-11.9,5.9c0,2.6,2.2,3.5,4.6,3.5c5.2,0,7.3-3.2,7.3-5.4V303.2z"/>
	<path class="st2" d="M1147.3,282.6h3.9v32.8h-3.9V282.6z"/>
	<path class="st2" d="M1162.7,291.7h4.7v3.5h-4.7v14.8c0,1.8,0.5,2.1,2.9,2.1h1.8v3.5h-3c-4,0-5.7-0.8-5.7-5.2v-15.1h-4v-3.5h4v-7.1
		h3.9V291.7z"/>
	<path class="st2" d="M1171.8,282.6h3.9v12.6h0.1c1.2-2.9,4.7-4,7.5-4c6.3,0,8.2,3.6,8.2,8.7v15.6h-3.9v-16.1c0-2.9-1.8-4.8-4.8-4.8
		c-4.7,0-7,3.2-7,7.5v13.4h-3.9V282.6z"/>
	<path class="st2" d="M1233.7,315.5h-4.1l-4.8-18.9h-0.1l-4.8,18.9h-4.2l-7.6-23.8h4.3l5.4,19.5h0.1l4.8-19.5h4.3l5,19.5h0.1
		l5.3-19.5h4L1233.7,315.5z"/>
	<path class="st2" d="M1249.1,287.4h-3.9v-4.8h3.9V287.4z M1245.2,291.7h3.9v23.8h-3.9V291.7z"/>
	<path class="st2" d="M1255.4,282.6h3.9v32.8h-3.9V282.6z"/>
	<path class="st2" d="M1265.7,282.6h3.9v32.8h-3.9V282.6z"/>
	<path class="st2" d="M154.4,345.7h3.9v3.2h0.1c1.3-2.6,4.3-3.8,7.6-3.8c7.3,0,10.9,5.8,10.9,12.5c0,6.8-3.6,12.4-10.9,12.4
		c-2.4,0-6-0.9-7.7-3.7h-0.1v12.3h-3.9V345.7z M165.5,348.6c-5.3,0-7.3,4.6-7.3,9c0,4.6,2.1,9,7.5,9c5.3,0,7.1-4.6,7.1-9.2
		C172.8,352.9,170.5,348.6,165.5,348.6z"/>
	<path class="st2" d="M201.9,361.9c-1.1,5.3-4.8,8.1-10.2,8.1c-7.6,0-11.2-5.3-11.4-12.5c0-7.2,4.7-12.4,11.2-12.4
		c8.4,0,11,7.9,10.8,13.6h-17.8c-0.1,4.1,2.2,7.8,7.4,7.8c3.3,0,5.5-1.5,6.2-4.6H201.9z M198.1,355.3c-0.2-3.7-2.9-6.7-6.9-6.7
		c-4,0-6.6,3-6.8,6.7H198.1z"/>
	<path class="st2" d="M206.1,345.7h3.7v5h0.1c1.9-3.9,4.5-5.7,8.7-5.6v4.1c-6.3,0-8.6,3.5-8.6,9.6v10.6h-3.9V345.7z"/>
	<path class="st2" d="M223.2,349.1h-4v-3.5h4v-3.5c0-3.9,2.3-5.9,6.6-5.9c0.7,0,1.8,0.1,2.5,0.4v3.4c-0.7-0.2-1.5-0.3-2.2-0.3
		c-1.9,0-3,0.6-3,2.7v3.3h4.6v3.5h-4.6v20.3h-3.9V349.1z"/>
	<path class="st2" d="M245.5,345.1c7.5,0,11.5,5.5,11.5,12.5c0,6.9-4,12.4-11.5,12.4s-11.5-5.5-11.5-12.4
		C233.9,350.6,237.9,345.1,245.5,345.1z M245.5,366.6c4.1,0,7.4-3.2,7.4-9c0-5.8-3.3-9-7.4-9c-4.1,0-7.4,3.3-7.4,9
		C238.1,363.4,241.4,366.6,245.5,366.6z"/>
	<path class="st2" d="M261.5,345.7h3.7v5h0.1c1.9-3.9,4.5-5.7,8.7-5.6v4.1c-6.3,0-8.6,3.5-8.6,9.6v10.6h-3.9V345.7z"/>
	<path class="st2" d="M276.9,345.7h3.7v3.5h0.1c1.8-2.7,4.3-4,7.7-4c2.9,0,5.6,1.1,6.5,4c1.6-2.6,4.4-4,7.5-4c4.7,0,7.9,2,7.9,6.9
		v17.4h-3.9v-15.6c0-2.9-0.8-5.3-4.6-5.3s-6.2,2.4-6.2,6.1v14.8h-3.9v-15.6c0-3.1-1-5.3-4.5-5.3c-4.6,0-6.3,4.2-6.3,6.1v14.8h-3.9
		V345.7z"/>
	<path class="st2" d="M343.5,335.9c10.4,0,15.7,8.2,15.7,17.2s-5.3,17.2-15.7,17.2s-15.7-8.2-15.7-17.2S333.1,335.9,343.5,335.9z
		 M343.5,366.6c8,0,11.4-6.9,11.4-13.5c0-6.6-3.4-13.5-11.4-13.5s-11.4,6.9-11.4,13.5C332.1,359.7,335.5,366.6,343.5,366.6z"/>
	<path class="st2" d="M365.5,349.1h-4v-3.5h4v-3.5c0-3.9,2.3-5.9,6.6-5.9c0.7,0,1.8,0.1,2.5,0.4v3.4c-0.7-0.2-1.5-0.3-2.2-0.3
		c-1.9,0-3,0.6-3,2.7v3.3h4.6v3.5h-4.6v20.3h-3.9V349.1z"/>
	<path class="st2" d="M379.2,349.1h-4v-3.5h4v-3.5c0-3.9,2.3-5.9,6.6-5.9c0.7,0,1.8,0.1,2.5,0.4v3.4c-0.7-0.2-1.5-0.3-2.2-0.3
		c-1.9,0-3,0.6-3,2.7v3.3h4.6v3.5h-4.6v20.3h-3.9V349.1z"/>
	<path class="st2" d="M411.4,361.9c-1.1,5.3-4.8,8.1-10.2,8.1c-7.6,0-11.2-5.3-11.4-12.5c0-7.2,4.7-12.4,11.2-12.4
		c8.4,0,11,7.9,10.8,13.6H394c-0.1,4.1,2.2,7.8,7.4,7.8c3.3,0,5.5-1.5,6.2-4.6H411.4z M407.7,355.3c-0.2-3.7-2.9-6.7-6.9-6.7
		c-4,0-6.6,3-6.8,6.7H407.7z"/>
	<path class="st2" d="M415.7,345.7h3.7v5h0.1c1.9-3.9,4.5-5.7,8.7-5.6v4.1c-6.3,0-8.6,3.5-8.6,9.6v10.6h-3.9V345.7z"/>
	<path class="st2" d="M435.3,341.4h-3.9v-4.8h3.9V341.4z M431.4,345.7h3.9v23.8h-3.9V345.7z"/>
	<path class="st2" d="M441.4,345.7h3.7v3.8h0.1c1.7-2.9,4.3-4.3,7.7-4.3c6.3,0,8.2,3.6,8.2,8.7v15.6h-3.9v-16.1
		c0-2.9-1.8-4.8-4.8-4.8c-4.7,0-7,3.2-7,7.5v13.4h-3.9V345.7z"/>
	<path class="st2" d="M487.5,367.5c0,7.8-3.5,11.7-11,11.7c-4.5,0-9.6-1.8-9.8-7h3.9c0.1,2.8,3.6,3.9,6.2,3.9c5.1,0,7.1-3.7,7.1-9
		v-1.6h-0.1c-1.3,2.9-4.4,4.3-7.4,4.3c-7.1,0-10.6-5.6-10.6-12.1c0-5.6,2.7-12.6,11-12.6c3,0,5.7,1.3,7.1,4h0v-3.4h3.7V367.5z
		 M483.6,357.1c0-4.2-1.8-8.5-6.8-8.5c-5,0-7,4.1-7,8.6c0,4.3,1.6,9.1,6.7,9.1C481.7,366.3,483.6,361.6,483.6,357.1z"/>
	<path class="st2" d="M510.3,341.4h-3.9v-4.8h3.9V341.4z M506.4,345.7h3.9v23.8h-3.9V345.7z"/>
	<path class="st2" d="M516.4,345.7h3.7v3.8h0.1c1.7-2.9,4.3-4.3,7.7-4.3c6.3,0,8.2,3.6,8.2,8.7v15.6h-3.9v-16.1
		c0-2.9-1.8-4.8-4.8-4.8c-4.7,0-7,3.2-7,7.5v13.4h-3.9V345.7z"/>
	<path class="st2" d="M544.3,362c0.1,3.5,3.2,4.6,6.4,4.6c2.4,0,5.8-0.6,5.8-3.5c0-6.1-15.5-2-15.5-11.1c0-4.8,4.7-6.8,8.9-6.8
		c5.3,0,9.4,1.7,9.8,7.5h-3.9c-0.2-3-3-4-5.5-4c-2.3,0-5.1,0.6-5.1,3c0,2.8,4.1,3.3,7.8,4.1c3.9,0.9,7.8,2.2,7.8,6.8
		c0,5.7-5.3,7.5-10.1,7.5c-5.3,0-9.8-2.2-10.1-8.1H544.3z"/>
	<path class="st2" d="M570.4,345.7h4.7v3.5h-4.7v14.8c0,1.8,0.5,2.1,2.9,2.1h1.8v3.5h-3c-4,0-5.7-0.8-5.7-5.2v-15.1h-4v-3.5h4v-7.1
		h3.9V345.7z"/>
	<path class="st2" d="M600.5,369.4c-0.7,0.4-1.7,0.6-2.8,0.6c-2,0-3.3-1.1-3.3-3.7c-2.2,2.6-5.1,3.7-8.4,3.7c-4.3,0-7.9-1.9-7.9-6.7
		c0-5.4,4-6.6,8.1-7.3c4.3-0.9,8-0.5,8-3.5c0-3.5-2.9-4-5.3-4c-3.3,0-5.8,1-5.9,4.5h-3.9c0.2-5.9,4.7-8,10.1-8c4.3,0,8.9,1,8.9,6.5
		v12.2c0,1.8,0,2.7,1.2,2.7c0.4,0,0.8-0.1,1.2-0.2V369.4z M594.2,357.2c-3,2.3-11.9,0-11.9,5.9c0,2.6,2.2,3.5,4.6,3.5
		c5.2,0,7.3-3.2,7.3-5.4V357.2z"/>
	<path class="st2" d="M604.4,336.6h3.9v32.8h-3.9V336.6z"/>
	<path class="st2" d="M614.6,336.6h3.9v32.8h-3.9V336.6z"/>
	<path class="st2" d="M645.6,369.4c-0.7,0.4-1.7,0.6-2.8,0.6c-2,0-3.3-1.1-3.3-3.7c-2.2,2.6-5.1,3.7-8.4,3.7c-4.3,0-7.9-1.9-7.9-6.7
		c0-5.4,4-6.6,8.1-7.3c4.3-0.9,8-0.5,8-3.5c0-3.5-2.9-4-5.3-4c-3.3,0-5.8,1-5.9,4.5h-3.9c0.2-5.9,4.7-8,10.1-8c4.3,0,8.9,1,8.9,6.5
		v12.2c0,1.8,0,2.7,1.2,2.7c0.4,0,0.8-0.1,1.2-0.2V369.4z M639.3,357.2c-3,2.3-11.9,0-11.9,5.9c0,2.6,2.2,3.5,4.6,3.5
		c5.2,0,7.3-3.2,7.3-5.4V357.2z"/>
	<path class="st2" d="M654.7,345.7h4.7v3.5h-4.7v14.8c0,1.8,0.5,2.1,2.9,2.1h1.8v3.5h-3c-4,0-5.7-0.8-5.7-5.2v-15.1h-4v-3.5h4v-7.1
		h3.9V345.7z"/>
	<path class="st2" d="M667.9,341.4H664v-4.8h3.9V341.4z M664,345.7h3.9v23.8H664V345.7z"/>
	<path class="st2" d="M684.2,345.1c7.5,0,11.5,5.5,11.5,12.5c0,6.9-4,12.4-11.5,12.4s-11.5-5.5-11.5-12.4
		C672.7,350.6,676.7,345.1,684.2,345.1z M684.2,366.6c4.1,0,7.4-3.2,7.4-9c0-5.8-3.3-9-7.4-9c-4.1,0-7.4,3.3-7.4,9
		C676.8,363.4,680.1,366.6,684.2,366.6z"/>
	<path class="st2" d="M700.4,345.7h3.7v3.8h0.1c1.7-2.9,4.3-4.3,7.7-4.3c6.3,0,8.2,3.6,8.2,8.7v15.6h-3.9v-16.1
		c0-2.9-1.8-4.8-4.8-4.8c-4.7,0-7,3.2-7,7.5v13.4h-3.9V345.7z"/>
	<path class="st2" d="M728.3,362c0.1,3.5,3.2,4.6,6.4,4.6c2.4,0,5.8-0.6,5.8-3.5c0-6.1-15.5-2-15.5-11.1c0-4.8,4.7-6.8,8.9-6.8
		c5.3,0,9.4,1.7,9.8,7.5h-3.9c-0.2-3-3-4-5.5-4c-2.3,0-5.1,0.6-5.1,3c0,2.8,4.1,3.3,7.8,4.1c3.9,0.9,7.8,2.2,7.8,6.8
		c0,5.7-5.3,7.5-10.1,7.5c-5.3,0-9.8-2.2-10.1-8.1H728.3z"/>
	<path class="st2" d="M782.8,369.4c-0.7,0.4-1.7,0.6-2.8,0.6c-2,0-3.3-1.1-3.3-3.7c-2.2,2.6-5.1,3.7-8.4,3.7c-4.3,0-7.9-1.9-7.9-6.7
		c0-5.4,4-6.6,8.1-7.3c4.3-0.9,8-0.5,8-3.5c0-3.5-2.9-4-5.3-4c-3.3,0-5.8,1-5.9,4.5h-3.9c0.2-5.9,4.7-8,10.1-8c4.3,0,8.9,1,8.9,6.5
		v12.2c0,1.8,0,2.7,1.2,2.7c0.4,0,0.8-0.1,1.2-0.2V369.4z M776.5,357.2c-3,2.3-11.9,0-11.9,5.9c0,2.6,2.2,3.5,4.6,3.5
		c5.2,0,7.3-3.2,7.3-5.4V357.2z"/>
	<path class="st2" d="M786.4,345.7h3.7v3.8h0.1c1.7-2.9,4.3-4.3,7.7-4.3c6.3,0,8.2,3.6,8.2,8.7v15.6h-3.9v-16.1
		c0-2.9-1.8-4.8-4.8-4.8c-4.7,0-7,3.2-7,7.5v13.4h-3.9V345.7z"/>
	<path class="st2" d="M833.3,369.5h-3.9v-3.2h-0.1c-1.3,2.6-4.3,3.8-7.6,3.8c-7.3,0-10.9-5.8-10.9-12.5s3.6-12.4,10.9-12.4
		c2.4,0,6,0.9,7.7,3.7h0.1v-12.2h3.9V369.5z M822.2,366.6c5.3,0,7.3-4.6,7.3-9c0-4.6-2.1-9-7.5-9c-5.3,0-7.1,4.6-7.1,9.2
		C814.9,362.3,817.2,366.6,822.2,366.6z"/>
	<path class="st2" d="M851.9,345.7h3.7v5h0.1c1.9-3.9,4.5-5.7,8.7-5.6v4.1c-6.3,0-8.6,3.5-8.6,9.6v10.6h-3.9V345.7z"/>
	<path class="st2" d="M887.7,361.9c-1.1,5.3-4.8,8.1-10.2,8.1c-7.6,0-11.2-5.3-11.4-12.5c0-7.2,4.7-12.4,11.2-12.4
		c8.4,0,11,7.9,10.8,13.6h-17.8c-0.1,4.1,2.2,7.8,7.4,7.8c3.3,0,5.5-1.5,6.2-4.6H887.7z M883.9,355.3c-0.2-3.7-2.9-6.7-6.9-6.7
		c-4,0-6.6,3-6.8,6.7H883.9z"/>
	<path class="st2" d="M892.3,336.6h3.9v32.8h-3.9V336.6z"/>
	<path class="st2" d="M922.6,361.9c-1.1,5.3-4.8,8.1-10.2,8.1c-7.6,0-11.2-5.3-11.4-12.5c0-7.2,4.7-12.4,11.2-12.4
		c8.4,0,11,7.9,10.8,13.6h-17.8c-0.1,4.1,2.2,7.8,7.4,7.8c3.3,0,5.5-1.5,6.2-4.6H922.6z M918.8,355.3c-0.2-3.7-2.9-6.7-6.9-6.7
		c-4,0-6.6,3-6.8,6.7H918.8z"/>
	<path class="st2" d="M948.1,369.4c-0.7,0.4-1.7,0.6-2.8,0.6c-2,0-3.3-1.1-3.3-3.7c-2.2,2.6-5.1,3.7-8.4,3.7c-4.3,0-7.9-1.9-7.9-6.7
		c0-5.4,4-6.6,8.1-7.3c4.3-0.9,8-0.5,8-3.5c0-3.5-2.9-4-5.3-4c-3.3,0-5.8,1-5.9,4.5h-3.9c0.2-5.9,4.7-8,10.1-8c4.3,0,8.9,1,8.9,6.5
		v12.2c0,1.8,0,2.7,1.2,2.7c0.4,0,0.8-0.1,1.2-0.2V369.4z M941.7,357.2c-3,2.3-11.9,0-11.9,5.9c0,2.6,2.2,3.5,4.6,3.5
		c5.2,0,7.3-3.2,7.3-5.4V357.2z"/>
	<path class="st2" d="M954.1,362c0.1,3.5,3.2,4.6,6.4,4.6c2.4,0,5.8-0.6,5.8-3.5c0-6.1-15.5-2-15.5-11.1c0-4.8,4.7-6.8,8.9-6.8
		c5.3,0,9.4,1.7,9.8,7.5h-3.9c-0.2-3-3-4-5.5-4c-2.3,0-5.1,0.6-5.1,3c0,2.8,4.1,3.3,7.8,4.1c3.9,0.9,7.8,2.2,7.8,6.8
		c0,5.7-5.3,7.5-10.1,7.5c-5.3,0-9.8-2.2-10.1-8.1H954.1z"/>
	<path class="st2" d="M995,361.9c-1.1,5.3-4.8,8.1-10.2,8.1c-7.6,0-11.2-5.3-11.4-12.5c0-7.2,4.7-12.4,11.2-12.4
		c8.4,0,11,7.9,10.8,13.6h-17.8c-0.1,4.1,2.2,7.8,7.4,7.8c3.3,0,5.5-1.5,6.2-4.6H995z M991.2,355.3c-0.2-3.7-2.9-6.7-6.9-6.7
		c-4,0-6.6,3-6.8,6.7H991.2z"/>
	<path class="st2" d="M1026.7,335.9c10.4,0,15.7,8.2,15.7,17.2s-5.3,17.2-15.7,17.2c-10.4,0-15.7-8.2-15.7-17.2
		S1016.3,335.9,1026.7,335.9z M1026.7,366.6c8,0,11.4-6.9,11.4-13.5c0-6.6-3.4-13.5-11.4-13.5s-11.4,6.9-11.4,13.5
		C1015.4,359.7,1018.7,366.6,1026.7,366.6z"/>
	<path class="st2" d="M1048.8,349.1h-4v-3.5h4v-3.5c0-3.9,2.3-5.9,6.6-5.9c0.7,0,1.8,0.1,2.5,0.4v3.4c-0.7-0.2-1.5-0.3-2.2-0.3
		c-1.9,0-3,0.6-3,2.7v3.3h4.6v3.5h-4.6v20.3h-3.9V349.1z"/>
	<path class="st2" d="M1062.4,349.1h-4v-3.5h4v-3.5c0-3.9,2.3-5.9,6.6-5.9c0.7,0,1.8,0.1,2.5,0.4v3.4c-0.7-0.2-1.5-0.3-2.2-0.3
		c-1.9,0-3,0.6-3,2.7v3.3h4.6v3.5h-4.6v20.3h-3.9V349.1z"/>
	<path class="st2" d="M1094.7,361.9c-1.1,5.3-4.8,8.1-10.2,8.1c-7.6,0-11.2-5.3-11.4-12.5c0-7.2,4.7-12.4,11.2-12.4
		c8.4,0,11,7.9,10.8,13.6h-17.8c-0.1,4.1,2.2,7.8,7.4,7.8c3.3,0,5.5-1.5,6.2-4.6H1094.7z M1090.9,355.3c-0.2-3.7-2.9-6.7-6.9-6.7
		c-4,0-6.6,3-6.8,6.7H1090.9z"/>
	<path class="st2" d="M1098.9,345.7h3.7v5h0.1c1.9-3.9,4.5-5.7,8.7-5.6v4.1c-6.3,0-8.6,3.5-8.6,9.6v10.6h-3.9V345.7z"/>
	<path class="st2" d="M1118.5,341.4h-3.9v-4.8h3.9V341.4z M1114.6,345.7h3.9v23.8h-3.9V345.7z"/>
	<path class="st2" d="M1124.6,345.7h3.7v3.8h0.1c1.7-2.9,4.3-4.3,7.7-4.3c6.3,0,8.2,3.6,8.2,8.7v15.6h-3.9v-16.1
		c0-2.9-1.8-4.8-4.8-4.8c-4.7,0-7,3.2-7,7.5v13.4h-3.9V345.7z"/>
	<path class="st2" d="M1170.7,367.5c0,7.8-3.5,11.7-11,11.7c-4.5,0-9.6-1.8-9.8-7h3.9c0.1,2.8,3.6,3.9,6.2,3.9c5.1,0,7.1-3.7,7.1-9
		v-1.6h-0.1c-1.3,2.9-4.4,4.3-7.4,4.3c-7.1,0-10.6-5.6-10.6-12.1c0-5.6,2.7-12.6,11-12.6c3,0,5.7,1.3,7.1,4h0v-3.4h3.7V367.5z
		 M1166.8,357.1c0-4.2-1.8-8.5-6.8-8.5c-5,0-7,4.1-7,8.6c0,4.3,1.6,9.1,6.7,9.1S1166.8,361.6,1166.8,357.1z"/>
	<path class="st2" d="M1179,362c0.1,3.5,3.2,4.6,6.4,4.6c2.4,0,5.8-0.6,5.8-3.5c0-6.1-15.5-2-15.5-11.1c0-4.8,4.7-6.8,8.9-6.8
		c5.3,0,9.4,1.7,9.8,7.5h-3.9c-0.2-3-3-4-5.5-4c-2.3,0-5.1,0.6-5.1,3c0,2.8,4.1,3.3,7.8,4.1c3.9,0.9,7.8,2.2,7.8,6.8
		c0,5.7-5.3,7.5-10.1,7.5c-5.3,0-9.8-2.2-10.1-8.1H1179z"/>
	<path class="st2" d="M1217.8,345.7h4.7v3.5h-4.7v14.8c0,1.8,0.5,2.1,2.9,2.1h1.8v3.5h-3c-4,0-5.7-0.8-5.7-5.2v-15.1h-4v-3.5h4v-7.1
		h3.9V345.7z"/>
	<path class="st2" d="M1237.1,345.1c7.5,0,11.5,5.5,11.5,12.5c0,6.9-4,12.4-11.5,12.4s-11.5-5.5-11.5-12.4
		C1225.6,350.6,1229.6,345.1,1237.1,345.1z M1237.1,366.6c4.1,0,7.4-3.2,7.4-9c0-5.8-3.3-9-7.4-9c-4.1,0-7.4,3.3-7.4,9
		C1229.7,363.4,1233,366.6,1237.1,366.6z"/>
	<path class="st2" d="M1282.2,353.3c-0.6-3-2.6-4.7-5.9-4.7c-5.7,0-7.4,4.5-7.4,9.3c0,4.4,2,8.7,6.9,8.7c3.8,0,6-2.2,6.5-5.8h4
		c-0.9,5.8-4.5,9.2-10.5,9.2c-7.3,0-11.1-5-11.1-12.1s3.7-12.7,11.2-12.7c5.4,0,9.7,2.5,10.3,8.2H1282.2z"/>
	<path class="st2" d="M1291,336.6h3.9v32.8h-3.9V336.6z"/>
	<path class="st2" d="M1305.1,341.4h-3.9v-4.8h3.9V341.4z M1301.2,345.7h3.9v23.8h-3.9V345.7z"/>
	<path class="st2" d="M1331.5,361.9c-1.1,5.3-4.8,8.1-10.2,8.1c-7.6,0-11.2-5.3-11.4-12.5c0-7.2,4.7-12.4,11.2-12.4
		c8.4,0,11,7.9,10.8,13.6H1314c-0.1,4.1,2.2,7.8,7.4,7.8c3.3,0,5.5-1.5,6.2-4.6H1331.5z M1327.7,355.3c-0.2-3.7-2.9-6.7-6.9-6.7
		c-4,0-6.6,3-6.8,6.7H1327.7z"/>
	<path class="st2" d="M1335.9,345.7h3.7v3.8h0.1c1.7-2.9,4.3-4.3,7.7-4.3c6.3,0,8.2,3.6,8.2,8.7v15.6h-3.9v-16.1
		c0-2.9-1.8-4.8-4.8-4.8c-4.7,0-7,3.2-7,7.5v13.4h-3.9V345.7z"/>
	<path class="st2" d="M1366.9,345.7h4.7v3.5h-4.7v14.8c0,1.8,0.5,2.1,2.9,2.1h1.8v3.5h-3c-4,0-5.7-0.8-5.7-5.2v-15.1h-4v-3.5h4v-7.1
		h3.9V345.7z"/>
	<path class="st2" d="M1378.3,362c0.1,3.5,3.2,4.6,6.4,4.6c2.4,0,5.8-0.6,5.8-3.5c0-6.1-15.5-2-15.5-11.1c0-4.8,4.7-6.8,8.9-6.8
		c5.3,0,9.4,1.7,9.8,7.5h-3.9c-0.2-3-3-4-5.5-4c-2.3,0-5.1,0.6-5.1,3c0,2.8,4.1,3.3,7.8,4.1c3.9,0.9,7.8,2.2,7.8,6.8
		c0,5.7-5.3,7.5-10.1,7.5c-5.3,0-9.8-2.2-10.1-8.1H1378.3z"/>
	<path class="st2" d="M151,450.6h22.7v3.7h-18.3v10.4h17.1v3.7h-17.1v11.4h18.4v3.7H151V450.6z"/>
	<path class="st2" d="M178.4,459.7h3.7v3.8h0.1c1.7-2.9,4.3-4.3,7.7-4.3c6.3,0,8.2,3.6,8.2,8.7v15.6h-3.9v-16.1
		c0-2.9-1.8-4.8-4.8-4.8c-4.7,0-7,3.2-7,7.5v13.4h-3.9V459.7z"/>
	<path class="st2" d="M206.4,476c0.1,3.5,3.2,4.6,6.4,4.6c2.4,0,5.8-0.6,5.8-3.5c0-6.1-15.5-2-15.5-11.1c0-4.8,4.7-6.8,8.9-6.8
		c5.3,0,9.4,1.7,9.8,7.5h-3.9c-0.2-3-3-4-5.5-4c-2.3,0-5.1,0.6-5.1,3c0,2.8,4.1,3.3,7.8,4.1c3.9,0.9,7.8,2.2,7.8,6.8
		c0,5.7-5.3,7.5-10.1,7.5c-5.3,0-9.8-2.2-10.1-8.1H206.4z"/>
	<path class="st2" d="M246.7,483.5H243v-3.8h-0.1c-1.7,2.9-4.3,4.3-7.7,4.3c-6.3,0-8.2-3.6-8.2-8.7v-15.6h3.9v16.1
		c0,2.9,1.8,4.8,4.8,4.8c4.7,0,7-3.2,7-7.5v-13.4h3.9V483.5z"/>
	<path class="st2" d="M252.4,459.7h3.7v5h0.1c1.9-3.9,4.5-5.7,8.7-5.6v4.1c-6.3,0-8.6,3.5-8.6,9.6v10.6h-3.9V459.7z"/>
	<path class="st2" d="M288.2,475.9c-1.1,5.3-4.8,8.1-10.2,8.1c-7.6,0-11.2-5.3-11.4-12.5c0-7.2,4.7-12.4,11.2-12.4
		c8.4,0,11,7.9,10.8,13.6h-17.8c-0.1,4.1,2.2,7.8,7.4,7.8c3.3,0,5.5-1.5,6.2-4.6H288.2z M284.4,469.3c-0.2-3.7-2.9-6.7-6.9-6.7
		c-4,0-6.6,3-6.8,6.7H284.4z"/>
	<path class="st2" d="M295,476c0.1,3.5,3.2,4.6,6.4,4.6c2.4,0,5.8-0.6,5.8-3.5c0-6.1-15.5-2-15.5-11.1c0-4.8,4.7-6.8,8.9-6.8
		c5.3,0,9.4,1.7,9.8,7.5h-3.9c-0.2-3-3-4-5.5-4c-2.3,0-5.1,0.6-5.1,3c0,2.8,4.1,3.3,7.8,4.1c3.9,0.9,7.8,2.2,7.8,6.8
		c0,5.7-5.3,7.5-10.1,7.5c-5.3,0-9.8-2.2-10.1-8.1H295z"/>
	<path class="st2" d="M332.5,455.4h-3.9v-4.8h3.9V455.4z M328.6,459.7h3.9v23.8h-3.9V459.7z"/>
	<path class="st2" d="M338.6,459.7h3.7v3.8h0.1c1.7-2.9,4.3-4.3,7.7-4.3c6.3,0,8.2,3.6,8.2,8.7v15.6h-3.9v-16.1
		c0-2.9-1.8-4.8-4.8-4.8c-4.7,0-7,3.2-7,7.5v13.4h-3.9V459.7z"/>
	<path class="st2" d="M366.6,476c0.1,3.5,3.2,4.6,6.4,4.6c2.4,0,5.8-0.6,5.8-3.5c0-6.1-15.5-2-15.5-11.1c0-4.8,4.7-6.8,8.9-6.8
		c5.3,0,9.4,1.7,9.8,7.5h-3.9c-0.2-3-3-4-5.5-4c-2.3,0-5.1,0.6-5.1,3c0,2.8,4.1,3.3,7.8,4.1c3.9,0.9,7.8,2.2,7.8,6.8
		c0,5.7-5.3,7.5-10.1,7.5c-5.3,0-9.8-2.2-10.1-8.1H366.6z"/>
	<path class="st2" d="M392.6,459.7h4.7v3.5h-4.7v14.8c0,1.8,0.5,2.1,2.9,2.1h1.8v3.5h-3c-4,0-5.7-0.8-5.7-5.2v-15.1h-4v-3.5h4v-7.1
		h3.9V459.7z"/>
	<path class="st2" d="M422.7,483.4c-0.7,0.4-1.7,0.6-2.8,0.6c-2,0-3.3-1.1-3.3-3.7c-2.2,2.6-5.1,3.7-8.4,3.7c-4.3,0-7.9-1.9-7.9-6.7
		c0-5.4,4-6.6,8.1-7.3c4.3-0.9,8-0.5,8-3.5c0-3.5-2.9-4-5.3-4c-3.3,0-5.8,1-5.9,4.5h-3.9c0.2-5.9,4.7-8,10.1-8c4.3,0,8.9,1,8.9,6.5
		v12.2c0,1.8,0,2.7,1.2,2.7c0.4,0,0.8-0.1,1.2-0.2V483.4z M416.4,471.2c-3,2.3-11.9,0-11.9,5.9c0,2.6,2.2,3.5,4.6,3.5
		c5.2,0,7.3-3.2,7.3-5.4V471.2z"/>
	<path class="st2" d="M426.6,450.6h3.9v32.8h-3.9V450.6z"/>
	<path class="st2" d="M436.8,450.6h3.9v32.8h-3.9V450.6z"/>
	<path class="st2" d="M467.8,483.4c-0.7,0.4-1.7,0.6-2.8,0.6c-2,0-3.3-1.1-3.3-3.7c-2.2,2.6-5.1,3.7-8.4,3.7c-4.3,0-7.9-1.9-7.9-6.7
		c0-5.4,4-6.6,8.1-7.3c4.3-0.9,8-0.5,8-3.5c0-3.5-2.9-4-5.3-4c-3.3,0-5.8,1-5.9,4.5h-3.9c0.2-5.9,4.7-8,10.1-8c4.3,0,8.9,1,8.9,6.5
		v12.2c0,1.8,0,2.7,1.2,2.7c0.4,0,0.8-0.1,1.2-0.2V483.4z M461.5,471.2c-3,2.3-11.9,0-11.9,5.9c0,2.6,2.2,3.5,4.6,3.5
		c5.2,0,7.3-3.2,7.3-5.4V471.2z"/>
	<path class="st2" d="M476.9,459.7h4.7v3.5h-4.7v14.8c0,1.8,0.5,2.1,2.9,2.1h1.8v3.5h-3c-4,0-5.7-0.8-5.7-5.2v-15.1h-4v-3.5h4v-7.1
		h3.9V459.7z"/>
	<path class="st2" d="M490.1,455.4h-3.9v-4.8h3.9V455.4z M486.2,459.7h3.9v23.8h-3.9V459.7z"/>
	<path class="st2" d="M506.4,459.1c7.5,0,11.5,5.5,11.5,12.5c0,6.9-4,12.4-11.5,12.4s-11.5-5.5-11.5-12.4
		C494.9,464.6,498.9,459.1,506.4,459.1z M506.4,480.6c4.1,0,7.4-3.2,7.4-9c0-5.8-3.3-9-7.4-9c-4.1,0-7.4,3.3-7.4,9
		C499,477.4,502.3,480.6,506.4,480.6z"/>
	<path class="st2" d="M522.6,459.7h3.7v3.8h0.1c1.7-2.9,4.3-4.3,7.7-4.3c6.3,0,8.2,3.6,8.2,8.7v15.6h-3.9v-16.1
		c0-2.9-1.8-4.8-4.8-4.8c-4.7,0-7,3.2-7,7.5v13.4h-3.9V459.7z"/>
	<path class="st2" d="M582,483.4c-0.7,0.4-1.7,0.6-2.8,0.6c-2,0-3.3-1.1-3.3-3.7c-2.2,2.6-5.1,3.7-8.4,3.7c-4.3,0-7.9-1.9-7.9-6.7
		c0-5.4,4-6.6,8.1-7.3c4.3-0.9,8-0.5,8-3.5c0-3.5-2.9-4-5.3-4c-3.3,0-5.8,1-5.9,4.5h-3.9c0.2-5.9,4.7-8,10.1-8c4.3,0,8.9,1,8.9,6.5
		v12.2c0,1.8,0,2.7,1.2,2.7c0.4,0,0.8-0.1,1.2-0.2V483.4z M575.7,471.2c-3,2.3-11.9,0-11.9,5.9c0,2.6,2.2,3.5,4.6,3.5
		c5.2,0,7.3-3.2,7.3-5.4V471.2z"/>
	<path class="st2" d="M601.8,467.3c-0.6-3-2.6-4.7-5.9-4.7c-5.7,0-7.4,4.5-7.4,9.3c0,4.4,2,8.7,6.9,8.7c3.8,0,6-2.2,6.5-5.8h4
		c-0.9,5.8-4.5,9.2-10.5,9.2c-7.3,0-11.1-5-11.1-12.1s3.7-12.7,11.2-12.7c5.4,0,9.7,2.5,10.3,8.2H601.8z"/>
	<path class="st2" d="M615.8,459.7h4.7v3.5h-4.7v14.8c0,1.8,0.5,2.1,2.9,2.1h1.8v3.5h-3c-4,0-5.7-0.8-5.7-5.2v-15.1h-4v-3.5h4v-7.1
		h3.9V459.7z"/>
	<path class="st2" d="M629,455.4h-3.9v-4.8h3.9V455.4z M625.1,459.7h3.9v23.8h-3.9V459.7z"/>
	<path class="st2" d="M645.8,483.5h-4.2l-8.8-23.8h4.4l6.7,19.8h0.1l6.5-19.8h4.1L645.8,483.5z"/>
	<path class="st2" d="M662.2,455.4h-3.9v-4.8h3.9V455.4z M658.3,459.7h3.9v23.8h-3.9V459.7z"/>
	<path class="st2" d="M673.7,459.7h4.7v3.5h-4.7v14.8c0,1.8,0.5,2.1,2.9,2.1h1.8v3.5h-3c-4,0-5.7-0.8-5.7-5.2v-15.1h-4v-3.5h4v-7.1
		h3.9V459.7z"/>
	<path class="st2" d="M686.9,455.4H683v-4.8h3.9V455.4z M683,459.7h3.9v23.8H683V459.7z"/>
	<path class="st2" d="M713.2,475.9c-1.1,5.3-4.8,8.1-10.2,8.1c-7.6,0-11.2-5.3-11.4-12.5c0-7.2,4.7-12.4,11.2-12.4
		c8.4,0,11,7.9,10.8,13.6h-17.8c-0.1,4.1,2.2,7.8,7.4,7.8c3.3,0,5.5-1.5,6.2-4.6H713.2z M709.5,469.3c-0.2-3.7-2.9-6.7-6.9-6.7
		c-4,0-6.6,3-6.8,6.7H709.5z"/>
	<path class="st2" d="M720.1,476c0.1,3.5,3.2,4.6,6.4,4.6c2.4,0,5.8-0.6,5.8-3.5c0-6.1-15.5-2-15.5-11.1c0-4.8,4.7-6.8,8.9-6.8
		c5.3,0,9.4,1.7,9.8,7.5h-3.9c-0.2-3-3-4-5.5-4c-2.3,0-5.1,0.6-5.1,3c0,2.8,4.1,3.3,7.8,4.1c3.9,0.9,7.8,2.2,7.8,6.8
		c0,5.7-5.3,7.5-10.1,7.5c-5.3,0-9.8-2.2-10.1-8.1H720.1z"/>
	<path class="st2" d="M774.5,483.4c-0.7,0.4-1.7,0.6-2.8,0.6c-2,0-3.3-1.1-3.3-3.7c-2.2,2.6-5.1,3.7-8.4,3.7c-4.3,0-7.9-1.9-7.9-6.7
		c0-5.4,4-6.6,8.1-7.3c4.3-0.9,8-0.5,8-3.5c0-3.5-2.9-4-5.3-4c-3.3,0-5.8,1-5.9,4.5h-3.9c0.2-5.9,4.7-8,10.1-8c4.3,0,8.9,1,8.9,6.5
		v12.2c0,1.8,0,2.7,1.2,2.7c0.4,0,0.8-0.1,1.2-0.2V483.4z M768.2,471.2c-3,2.3-11.9,0-11.9,5.9c0,2.6,2.2,3.5,4.6,3.5
		c5.2,0,7.3-3.2,7.3-5.4V471.2z"/>
	<path class="st2" d="M778,459.7h3.7v5h0.1c1.9-3.9,4.5-5.7,8.7-5.6v4.1c-6.3,0-8.6,3.5-8.6,9.6v10.6H778V459.7z"/>
	<path class="st2" d="M813.8,475.9c-1.1,5.3-4.8,8.1-10.2,8.1c-7.6,0-11.2-5.3-11.4-12.5c0-7.2,4.7-12.4,11.2-12.4
		c8.4,0,11,7.9,10.8,13.6h-17.8c-0.1,4.1,2.2,7.8,7.4,7.8c3.3,0,5.5-1.5,6.2-4.6H813.8z M810,469.3c-0.2-3.7-2.9-6.7-6.9-6.7
		c-4,0-6.6,3-6.8,6.7H810z"/>
	<path class="st2" d="M832.6,463.1h-4v-3.5h4v-3.5c0-3.9,2.3-5.9,6.6-5.9c0.7,0,1.8,0.1,2.5,0.4v3.4c-0.7-0.2-1.5-0.3-2.2-0.3
		c-1.9,0-3,0.6-3,2.7v3.3h4.6v3.5h-4.6v20.3h-3.9V463.1z"/>
	<path class="st2" d="M864.3,483.5h-3.7v-3.8h-0.1c-1.7,2.9-4.3,4.3-7.7,4.3c-6.3,0-8.2-3.6-8.2-8.7v-15.6h3.9v16.1
		c0,2.9,1.8,4.8,4.8,4.8c4.7,0,7-3.2,7-7.5v-13.4h3.9V483.5z"/>
	<path class="st2" d="M870.4,450.6h3.9v32.8h-3.9V450.6z"/>
	<path class="st2" d="M880.6,450.6h3.9v32.8h-3.9V450.6z"/>
	<path class="st2" d="M899.9,486.7c-1.8,4.6-3.4,6.3-6.9,6.3c-0.9,0-1.8-0.1-2.7-0.4V489c0.7,0.2,1.5,0.6,2.3,0.6
		c1.6,0,2.5-0.7,3.2-2.2l1.6-4l-9.4-23.6h4.4l6.9,19.5h0.1l6.7-19.5h4.1L899.9,486.7z"/>
	<path class="st2" d="M947.6,483.5h-3.9v-3.2h-0.1c-1.3,2.6-4.3,3.8-7.6,3.8c-7.3,0-10.9-5.8-10.9-12.5s3.6-12.4,10.9-12.4
		c2.4,0,6,0.9,7.7,3.7h0.1v-12.2h3.9V483.5z M936.6,480.6c5.3,0,7.3-4.6,7.3-9c0-4.6-2.1-9-7.5-9c-5.3,0-7.1,4.6-7.1,9.2
		C929.2,476.3,931.5,480.6,936.6,480.6z"/>
	<path class="st2" d="M963.9,459.1c7.5,0,11.5,5.5,11.5,12.5c0,6.9-4,12.4-11.5,12.4s-11.5-5.5-11.5-12.4
		C952.4,464.6,956.4,459.1,963.9,459.1z M963.9,480.6c4.1,0,7.4-3.2,7.4-9c0-5.8-3.3-9-7.4-9c-4.1,0-7.4,3.3-7.4,9
		C956.5,477.4,959.8,480.6,963.9,480.6z"/>
	<path class="st2" d="M996.2,467.3c-0.6-3-2.6-4.7-5.9-4.7c-5.7,0-7.4,4.5-7.4,9.3c0,4.4,2,8.7,6.9,8.7c3.8,0,6-2.2,6.5-5.8h4
		c-0.9,5.8-4.5,9.2-10.5,9.2c-7.3,0-11.1-5-11.1-12.1s3.7-12.7,11.2-12.7c5.4,0,9.7,2.5,10.3,8.2H996.2z"/>
	<path class="st2" d="M1024.4,483.5h-3.7v-3.8h-0.1c-1.7,2.9-4.3,4.3-7.7,4.3c-6.3,0-8.2-3.6-8.2-8.7v-15.6h3.9v16.1
		c0,2.9,1.8,4.8,4.8,4.8c4.7,0,7-3.2,7-7.5v-13.4h3.9V483.5z"/>
	<path class="st2" d="M1030.3,459.7h3.7v3.5h0.1c1.8-2.7,4.3-4,7.7-4c2.9,0,5.6,1.1,6.5,4c1.6-2.6,4.4-4,7.5-4c4.7,0,7.9,2,7.9,6.9
		v17.4h-3.9v-15.6c0-2.9-0.8-5.3-4.6-5.3s-6.2,2.4-6.2,6.1v14.8h-3.9v-15.6c0-3.1-1-5.3-4.5-5.3c-4.6,0-6.3,4.2-6.3,6.1v14.8h-3.9
		V459.7z"/>
	<path class="st2" d="M1089.8,475.9c-1.1,5.3-4.8,8.1-10.2,8.1c-7.6,0-11.2-5.3-11.4-12.5c0-7.2,4.7-12.4,11.2-12.4
		c8.4,0,11,7.9,10.8,13.6h-17.8c-0.1,4.1,2.2,7.8,7.4,7.8c3.3,0,5.5-1.5,6.2-4.6H1089.8z M1086.1,469.3c-0.2-3.7-2.9-6.7-6.9-6.7
		c-4,0-6.6,3-6.8,6.7H1086.1z"/>
	<path class="st2" d="M1094.3,459.7h3.7v3.8h0.1c1.7-2.9,4.3-4.3,7.7-4.3c6.3,0,8.2,3.6,8.2,8.7v15.6h-3.9v-16.1
		c0-2.9-1.8-4.8-4.8-4.8c-4.7,0-7,3.2-7,7.5v13.4h-3.9V459.7z"/>
	<path class="st2" d="M1125.3,459.7h4.7v3.5h-4.7v14.8c0,1.8,0.5,2.1,2.9,2.1h1.8v3.5h-3c-4,0-5.7-0.8-5.7-5.2v-15.1h-4v-3.5h4v-7.1
		h3.9V459.7z"/>
	<path class="st2" d="M1154.6,475.9c-1.1,5.3-4.8,8.1-10.2,8.1c-7.6,0-11.2-5.3-11.4-12.5c0-7.2,4.7-12.4,11.2-12.4
		c8.4,0,11,7.9,10.8,13.6h-17.8c-0.1,4.1,2.2,7.8,7.4,7.8c3.3,0,5.5-1.5,6.2-4.6H1154.6z M1150.8,469.3c-0.2-3.7-2.9-6.7-6.9-6.7
		c-4,0-6.6,3-6.8,6.7H1150.8z"/>
	<path class="st2" d="M1180.3,483.5h-3.9v-3.2h-0.1c-1.3,2.6-4.3,3.8-7.6,3.8c-7.3,0-10.9-5.8-10.9-12.5s3.6-12.4,10.9-12.4
		c2.4,0,6,0.9,7.7,3.7h0.1v-12.2h3.9V483.5z M1169.2,480.6c5.3,0,7.3-4.6,7.3-9c0-4.6-2.1-9-7.5-9c-5.3,0-7.1,4.6-7.1,9.2
		C1161.9,476.3,1164.2,480.6,1169.2,480.6z"/>
	<path class="st2" d="M151,564.6h14.4c6.6,0,10.1,3.6,10.1,9.7s-3.5,9.8-10.1,9.7h-10v13.4H151V564.6z M155.3,580.4h8.6
		c5,0,7.2-2.1,7.2-6s-2.2-6-7.2-6h-8.6V580.4z"/>
	<path class="st2" d="M180,573.7h3.7v5h0.1c1.9-3.9,4.5-5.7,8.7-5.6v4.1c-6.3,0-8.6,3.5-8.6,9.6v10.6H180V573.7z"/>
	<path class="st2" d="M205.7,573.1c7.5,0,11.5,5.5,11.5,12.5c0,6.9-4,12.4-11.5,12.4s-11.5-5.5-11.5-12.4
		C194.1,578.6,198.1,573.1,205.7,573.1z M205.7,594.6c4.1,0,7.4-3.2,7.4-9c0-5.8-3.3-9-7.4-9c-4.1,0-7.4,3.3-7.4,9
		C198.3,591.4,201.6,594.6,205.7,594.6z"/>
	<path class="st2" d="M232.6,597.5h-4.2l-8.8-23.8h4.4l6.7,19.8h0.1l6.5-19.8h4.1L232.6,597.5z"/>
	<path class="st2" d="M249,569.4h-3.9v-4.8h3.9V569.4z M245.1,573.7h3.9v23.8h-3.9V573.7z"/>
	<path class="st2" d="M276.3,597.5h-3.9v-3.2h-0.1c-1.3,2.6-4.3,3.8-7.6,3.8c-7.3,0-10.9-5.8-10.9-12.5s3.6-12.4,10.9-12.4
		c2.4,0,6,0.9,7.7,3.7h0.1v-12.2h3.9V597.5z M265.3,594.6c5.3,0,7.3-4.6,7.3-9c0-4.6-2.1-9-7.5-9c-5.3,0-7.1,4.6-7.1,9.2
		C257.9,590.3,260.2,594.6,265.3,594.6z"/>
	<path class="st2" d="M302.6,589.9c-1.1,5.3-4.8,8.1-10.2,8.1c-7.6,0-11.2-5.3-11.4-12.5c0-7.2,4.7-12.4,11.2-12.4
		c8.4,0,11,7.9,10.8,13.6h-17.8c-0.1,4.1,2.2,7.8,7.4,7.8c3.3,0,5.5-1.5,6.2-4.6H302.6z M298.8,583.3c-0.2-3.7-2.9-6.7-6.9-6.7
		c-4,0-6.6,3-6.8,6.7H298.8z"/>
	<path class="st2" d="M309.4,590c0.1,3.5,3.2,4.6,6.4,4.6c2.4,0,5.8-0.6,5.8-3.5c0-6.1-15.5-2-15.5-11.1c0-4.8,4.7-6.8,8.9-6.8
		c5.3,0,9.4,1.7,9.8,7.5h-3.9c-0.2-3-3-4-5.5-4c-2.3,0-5.1,0.6-5.1,3c0,2.8,4.1,3.3,7.8,4.1c3.9,0.9,7.8,2.2,7.8,6.8
		c0,5.7-5.3,7.5-10.1,7.5c-5.3,0-9.8-2.2-10.1-8.1H309.4z"/>
	<path class="st2" d="M363.9,597.4c-0.7,0.4-1.7,0.6-2.8,0.6c-2,0-3.3-1.1-3.3-3.7c-2.2,2.6-5.1,3.7-8.4,3.7c-4.3,0-7.9-1.9-7.9-6.7
		c0-5.4,4-6.6,8.1-7.3c4.3-0.9,8-0.5,8-3.5c0-3.5-2.9-4-5.3-4c-3.3,0-5.8,1-5.9,4.5h-3.9c0.2-5.9,4.7-8,10.1-8c4.3,0,8.9,1,8.9,6.5
		v12.2c0,1.8,0,2.7,1.2,2.7c0.4,0,0.8-0.1,1.2-0.2V597.4z M357.5,585.2c-3,2.3-11.9,0-11.9,5.9c0,2.6,2.2,3.5,4.6,3.5
		c5.2,0,7.3-3.2,7.3-5.4V585.2z"/>
	<path class="st2" d="M382.7,590c0.1,3.5,3.2,4.6,6.4,4.6c2.4,0,5.8-0.6,5.8-3.5c0-6.1-15.5-2-15.5-11.1c0-4.8,4.7-6.8,8.9-6.8
		c5.3,0,9.4,1.7,9.8,7.5H394c-0.2-3-3-4-5.5-4c-2.3,0-5.1,0.6-5.1,3c0,2.8,4.1,3.3,7.8,4.1c3.9,0.9,7.8,2.2,7.8,6.8
		c0,5.7-5.3,7.5-10.1,7.5c-5.3,0-9.8-2.2-10.1-8.1H382.7z"/>
	<path class="st2" d="M408.7,573.7h4.7v3.5h-4.7v14.8c0,1.8,0.5,2.1,2.9,2.1h1.8v3.5h-3c-4,0-5.7-0.8-5.7-5.2v-15.1h-4v-3.5h4v-7.1
		h3.9V573.7z"/>
	<path class="st2" d="M438.9,597.4c-0.7,0.4-1.7,0.6-2.8,0.6c-2,0-3.3-1.1-3.3-3.7c-2.2,2.6-5.1,3.7-8.4,3.7c-4.3,0-7.9-1.9-7.9-6.7
		c0-5.4,4-6.6,8.1-7.3c4.3-0.9,8-0.5,8-3.5c0-3.5-2.9-4-5.3-4c-3.3,0-5.8,1-5.9,4.5h-3.9c0.2-5.9,4.7-8,10.1-8c4.3,0,8.9,1,8.9,6.5
		v12.2c0,1.8,0,2.7,1.2,2.7c0.4,0,0.8-0.1,1.2-0.2V597.4z M432.5,585.2c-3,2.3-11.9,0-11.9,5.9c0,2.6,2.2,3.5,4.6,3.5
		c5.2,0,7.3-3.2,7.3-5.4V585.2z"/>
	<path class="st2" d="M442.5,573.7h3.7v3.8h0.1c1.7-2.9,4.3-4.3,7.7-4.3c6.3,0,8.2,3.6,8.2,8.7v15.6h-3.9v-16.1
		c0-2.9-1.8-4.8-4.8-4.8c-4.7,0-7,3.2-7,7.5v13.4h-3.9V573.7z"/>
	<path class="st2" d="M489.3,597.5h-3.9v-3.2h-0.1c-1.3,2.6-4.3,3.8-7.6,3.8c-7.3,0-10.9-5.8-10.9-12.5s3.6-12.4,10.9-12.4
		c2.4,0,6,0.9,7.7,3.7h0.1v-12.2h3.9V597.5z M478.3,594.6c5.3,0,7.3-4.6,7.3-9c0-4.6-2.1-9-7.5-9c-5.3,0-7.1,4.6-7.1,9.2
		C470.9,590.3,473.2,594.6,478.3,594.6z"/>
	<path class="st2" d="M516.4,597.4c-0.7,0.4-1.7,0.6-2.8,0.6c-2,0-3.3-1.1-3.3-3.7c-2.2,2.6-5.1,3.7-8.4,3.7c-4.3,0-7.9-1.9-7.9-6.7
		c0-5.4,4-6.6,8.1-7.3c4.3-0.9,8-0.5,8-3.5c0-3.5-2.9-4-5.3-4c-3.3,0-5.8,1-5.9,4.5H495c0.2-5.9,4.7-8,10.1-8c4.3,0,8.9,1,8.9,6.5
		v12.2c0,1.8,0,2.7,1.2,2.7c0.4,0,0.8-0.1,1.2-0.2V597.4z M510.1,585.2c-3,2.3-11.9,0-11.9,5.9c0,2.6,2.2,3.5,4.6,3.5
		c5.2,0,7.3-3.2,7.3-5.4V585.2z"/>
	<path class="st2" d="M519.9,573.7h3.7v5h0.1c1.9-3.9,4.5-5.7,8.7-5.6v4.1c-6.3,0-8.6,3.5-8.6,9.6v10.6h-3.9V573.7z"/>
	<path class="st2" d="M556.6,597.5h-3.9v-3.2h-0.1c-1.3,2.6-4.3,3.8-7.6,3.8c-7.3,0-10.9-5.8-10.9-12.5s3.6-12.4,10.9-12.4
		c2.4,0,6,0.9,7.7,3.7h0.1v-12.2h3.9V597.5z M545.6,594.6c5.3,0,7.3-4.6,7.3-9c0-4.6-2.1-9-7.5-9c-5.3,0-7.1,4.6-7.1,9.2
		C538.2,590.3,540.5,594.6,545.6,594.6z"/>
	<path class="st2" d="M566.8,569.4h-3.9v-4.8h3.9V569.4z M562.9,573.7h3.9v23.8h-3.9V573.7z"/>
	<path class="st2" d="M570.9,594.5l14.4-17.3h-13.4v-3.5h18.5v2.7L575.8,594H591v3.5h-20.1V594.5z"/>
	<path class="st2" d="M615.2,589.9c-1.1,5.3-4.8,8.1-10.2,8.1c-7.6,0-11.2-5.3-11.4-12.5c0-7.2,4.7-12.4,11.2-12.4
		c8.4,0,11,7.9,10.8,13.6h-17.8c-0.1,4.1,2.2,7.8,7.4,7.8c3.3,0,5.5-1.5,6.2-4.6H615.2z M611.5,583.3c-0.2-3.7-2.9-6.7-6.9-6.7
		c-4,0-6.6,3-6.8,6.7H611.5z"/>
	<path class="st2" d="M640.9,597.5H637v-3.2h-0.1c-1.3,2.6-4.3,3.8-7.6,3.8c-7.3,0-10.9-5.8-10.9-12.5s3.6-12.4,10.9-12.4
		c2.4,0,6,0.9,7.7,3.7h0.1v-12.2h3.9V597.5z M629.9,594.6c5.3,0,7.3-4.6,7.3-9c0-4.6-2.1-9-7.5-9c-5.3,0-7.1,4.6-7.1,9.2
		C622.5,590.3,624.8,594.6,629.9,594.6z"/>
	<path class="st2" d="M659.8,573.7h3.9v3.2h0.1c1.3-2.6,4.3-3.8,7.6-3.8c7.3,0,10.9,5.8,10.9,12.5c0,6.8-3.6,12.4-10.9,12.4
		c-2.4,0-6-0.9-7.7-3.7h-0.1v12.3h-3.9V573.7z M670.9,576.6c-5.3,0-7.3,4.6-7.3,9c0,4.6,2.1,9,7.5,9c5.3,0,7.1-4.6,7.1-9.2
		C678.2,580.9,675.9,576.6,670.9,576.6z"/>
	<path class="st2" d="M686.8,573.7h3.7v5h0.1c1.9-3.9,4.5-5.7,8.7-5.6v4.1c-6.3,0-8.6,3.5-8.6,9.6v10.6h-3.9V573.7z"/>
	<path class="st2" d="M712.6,573.1c7.5,0,11.5,5.5,11.5,12.5c0,6.9-4,12.4-11.5,12.4s-11.5-5.5-11.5-12.4
		C701,578.6,705,573.1,712.6,573.1z M712.6,594.6c4.1,0,7.4-3.2,7.4-9c0-5.8-3.3-9-7.4-9c-4.1,0-7.4,3.3-7.4,9
		C705.2,591.4,708.5,594.6,712.6,594.6z"/>
	<path class="st2" d="M744.9,581.3c-0.6-3-2.6-4.7-5.9-4.7c-5.7,0-7.4,4.5-7.4,9.3c0,4.4,2,8.7,6.9,8.7c3.8,0,6-2.2,6.5-5.8h4
		c-0.9,5.8-4.5,9.2-10.5,9.2c-7.3,0-11.1-5-11.1-12.1s3.7-12.7,11.2-12.7c5.4,0,9.7,2.5,10.3,8.2H744.9z"/>
	<path class="st2" d="M773.7,589.9c-1.1,5.3-4.8,8.1-10.2,8.1c-7.6,0-11.2-5.3-11.4-12.5c0-7.2,4.7-12.4,11.2-12.4
		c8.4,0,11,7.9,10.8,13.6h-17.8c-0.1,4.1,2.2,7.8,7.4,7.8c3.3,0,5.5-1.5,6.2-4.6H773.7z M769.9,583.3c-0.2-3.7-2.9-6.7-6.9-6.7
		c-4,0-6.6,3-6.8,6.7H769.9z"/>
	<path class="st2" d="M780.5,590c0.1,3.5,3.2,4.6,6.4,4.6c2.4,0,5.8-0.6,5.8-3.5c0-6.1-15.5-2-15.5-11.1c0-4.8,4.7-6.8,8.9-6.8
		c5.3,0,9.4,1.7,9.8,7.5h-3.9c-0.2-3-3-4-5.5-4c-2.3,0-5.1,0.6-5.1,3c0,2.8,4.1,3.3,7.8,4.1c3.9,0.9,7.8,2.2,7.8,6.8
		c0,5.7-5.3,7.5-10.1,7.5c-5.3,0-9.8-2.2-10.1-8.1H780.5z"/>
	<path class="st2" d="M803.5,590c0.1,3.5,3.2,4.6,6.4,4.6c2.4,0,5.8-0.6,5.8-3.5c0-6.1-15.5-2-15.5-11.1c0-4.8,4.7-6.8,8.9-6.8
		c5.3,0,9.4,1.7,9.8,7.5h-3.9c-0.2-3-3-4-5.5-4c-2.3,0-5.1,0.6-5.1,3c0,2.8,4.1,3.3,7.8,4.1c3.9,0.9,7.8,2.2,7.8,6.8
		c0,5.7-5.3,7.5-10.1,7.5c-5.3,0-9.8-2.2-10.1-8.1H803.5z"/>
	<path class="st2" d="M838.5,577.1h-4v-3.5h4v-3.5c0-3.9,2.3-5.9,6.6-5.9c0.7,0,1.8,0.1,2.5,0.4v3.4c-0.7-0.2-1.5-0.3-2.2-0.3
		c-1.9,0-3,0.6-3,2.7v3.3h4.6v3.5h-4.6v20.3h-3.9V577.1z"/>
	<path class="st2" d="M860.8,573.1c7.5,0,11.5,5.5,11.5,12.5c0,6.9-4,12.4-11.5,12.4s-11.5-5.5-11.5-12.4
		C849.2,578.6,853.2,573.1,860.8,573.1z M860.8,594.6c4.1,0,7.4-3.2,7.4-9c0-5.8-3.3-9-7.4-9c-4.1,0-7.4,3.3-7.4,9
		C853.4,591.4,856.7,594.6,860.8,594.6z"/>
	<path class="st2" d="M876.8,573.7h3.7v5h0.1c1.9-3.9,4.5-5.7,8.7-5.6v4.1c-6.3,0-8.6,3.5-8.6,9.6v10.6h-3.9V573.7z"/>
	<path class="st2" d="M904.9,573.7h3.7v5h0.1c1.9-3.9,4.5-5.7,8.7-5.6v4.1c-6.3,0-8.6,3.5-8.6,9.6v10.6h-3.9V573.7z"/>
	<path class="st2" d="M940.6,589.9c-1.1,5.3-4.8,8.1-10.2,8.1c-7.6,0-11.2-5.3-11.4-12.5c0-7.2,4.7-12.4,11.2-12.4
		c8.4,0,11,7.9,10.8,13.6h-17.8c-0.1,4.1,2.2,7.8,7.4,7.8c3.3,0,5.5-1.5,6.2-4.6H940.6z M936.9,583.3c-0.2-3.7-2.9-6.7-6.9-6.7
		c-4,0-6.6,3-6.8,6.7H936.9z"/>
	<path class="st2" d="M945.3,564.6h3.9v32.8h-3.9V564.6z"/>
	<path class="st2" d="M975.5,589.9c-1.1,5.3-4.8,8.1-10.2,8.1c-7.6,0-11.2-5.3-11.4-12.5c0-7.2,4.7-12.4,11.2-12.4
		c8.4,0,11,7.9,10.8,13.6h-17.8c-0.1,4.1,2.2,7.8,7.4,7.8c3.3,0,5.5-1.5,6.2-4.6H975.5z M971.8,583.3c-0.2-3.7-2.9-6.7-6.9-6.7
		c-4,0-6.6,3-6.8,6.7H971.8z"/>
	<path class="st2" d="M1001,597.4c-0.7,0.4-1.7,0.6-2.8,0.6c-2,0-3.3-1.1-3.3-3.7c-2.2,2.6-5.1,3.7-8.4,3.7c-4.3,0-7.9-1.9-7.9-6.7
		c0-5.4,4-6.6,8.1-7.3c4.3-0.9,8-0.5,8-3.5c0-3.5-2.9-4-5.3-4c-3.3,0-5.8,1-5.9,4.5h-3.9c0.2-5.9,4.7-8,10.1-8c4.3,0,8.9,1,8.9,6.5
		v12.2c0,1.8,0,2.7,1.2,2.7c0.4,0,0.8-0.1,1.2-0.2V597.4z M994.7,585.2c-3,2.3-11.9,0-11.9,5.9c0,2.6,2.2,3.5,4.6,3.5
		c5.2,0,7.3-3.2,7.3-5.4V585.2z"/>
	<path class="st2" d="M1007,590c0.1,3.5,3.2,4.6,6.4,4.6c2.4,0,5.8-0.6,5.8-3.5c0-6.1-15.5-2-15.5-11.1c0-4.8,4.7-6.8,8.9-6.8
		c5.3,0,9.4,1.7,9.8,7.5h-3.9c-0.2-3-3-4-5.5-4c-2.3,0-5.1,0.6-5.1,3c0,2.8,4.1,3.3,7.8,4.1c3.9,0.9,7.8,2.2,7.8,6.8
		c0,5.7-5.3,7.5-10.1,7.5c-5.3,0-9.8-2.2-10.1-8.1H1007z"/>
	<path class="st2" d="M1031.8,569.4h-3.9v-4.8h3.9V569.4z M1027.9,573.7h3.9v23.8h-3.9V573.7z"/>
	<path class="st2" d="M1037.9,573.7h3.7v3.8h0.1c1.7-2.9,4.3-4.3,7.7-4.3c6.3,0,8.2,3.6,8.2,8.7v15.6h-3.9v-16.1
		c0-2.9-1.8-4.8-4.8-4.8c-4.7,0-7,3.2-7,7.5v13.4h-3.9V573.7z"/>
	<path class="st2" d="M1084,595.5c0,7.8-3.5,11.7-11,11.7c-4.5,0-9.6-1.8-9.8-7h3.9c0.1,2.8,3.6,3.9,6.2,3.9c5.1,0,7.1-3.7,7.1-9
		v-1.6h-0.1c-1.3,2.9-4.4,4.3-7.4,4.3c-7.1,0-10.6-5.6-10.6-12.1c0-5.6,2.7-12.6,11-12.6c3,0,5.7,1.3,7.1,4h0v-3.4h3.7V595.5z
		 M1080.1,585.1c0-4.2-1.8-8.5-6.8-8.5c-5,0-7,4.1-7,8.6c0,4.3,1.6,9.1,6.7,9.1S1080.1,589.6,1080.1,585.1z"/>
	<path class="st2" d="M1123.7,597.4c-0.7,0.4-1.7,0.6-2.8,0.6c-2,0-3.3-1.1-3.3-3.7c-2.2,2.6-5.1,3.7-8.4,3.7
		c-4.3,0-7.9-1.9-7.9-6.7c0-5.4,4-6.6,8.1-7.3c4.3-0.9,8-0.5,8-3.5c0-3.5-2.9-4-5.3-4c-3.3,0-5.8,1-5.9,4.5h-3.9
		c0.2-5.9,4.7-8,10.1-8c4.3,0,8.9,1,8.9,6.5v12.2c0,1.8,0,2.7,1.2,2.7c0.4,0,0.8-0.1,1.2-0.2V597.4z M1117.4,585.2
		c-3,2.3-11.9,0-11.9,5.9c0,2.6,2.2,3.5,4.6,3.5c5.2,0,7.3-3.2,7.3-5.4V585.2z"/>
	<path class="st2" d="M1127.3,573.7h3.7v3.8h0.1c1.7-2.9,4.3-4.3,7.7-4.3c6.3,0,8.2,3.6,8.2,8.7v15.6h-3.9v-16.1
		c0-2.9-1.8-4.8-4.8-4.8c-4.7,0-7,3.2-7,7.5v13.4h-3.9V573.7z"/>
	<path class="st2" d="M168.8,617.9c10.4,0,15.7,8.2,15.7,17.2s-5.3,17.2-15.7,17.2s-15.7-8.2-15.7-17.2S158.4,617.9,168.8,617.9z
		 M168.8,648.6c8,0,11.4-6.9,11.4-13.5s-3.4-13.5-11.4-13.5s-11.4,6.9-11.4,13.5S160.8,648.6,168.8,648.6z"/>
	<path class="st2" d="M190.9,631.1h-4v-3.5h4v-3.5c0-3.9,2.3-5.9,6.6-5.9c0.7,0,1.8,0.1,2.5,0.4v3.4c-0.7-0.2-1.5-0.3-2.2-0.3
		c-1.9,0-3,0.6-3,2.7v3.3h4.6v3.5h-4.6v20.3h-3.9V631.1z"/>
	<path class="st2" d="M204.5,631.1h-4v-3.5h4v-3.5c0-3.9,2.3-5.9,6.6-5.9c0.7,0,1.8,0.1,2.5,0.4v3.4c-0.7-0.2-1.5-0.3-2.2-0.3
		c-1.9,0-3,0.6-3,2.7v3.3h4.6v3.5h-4.6v20.3h-3.9V631.1z"/>
	<path class="st2" d="M236.8,643.9c-1.1,5.3-4.8,8.1-10.2,8.1c-7.6,0-11.2-5.3-11.4-12.5c0-7.2,4.7-12.4,11.2-12.4
		c8.4,0,11,7.9,10.8,13.6h-17.8c-0.1,4.1,2.2,7.8,7.4,7.8c3.3,0,5.5-1.5,6.2-4.6H236.8z M233,637.3c-0.2-3.7-2.9-6.7-6.9-6.7
		c-4,0-6.6,3-6.8,6.7H233z"/>
	<path class="st2" d="M241.1,627.7h3.7v5h0.1c1.9-3.9,4.5-5.7,8.7-5.6v4.1c-6.3,0-8.6,3.5-8.6,9.6v10.6h-3.9V627.7z"/>
	<path class="st2" d="M260.7,623.4h-3.9v-4.8h3.9V623.4z M256.8,627.7h3.9v23.8h-3.9V627.7z"/>
	<path class="st2" d="M266.7,627.7h3.7v3.8h0.1c1.7-2.9,4.3-4.3,7.7-4.3c6.3,0,8.2,3.6,8.2,8.7v15.6h-3.9v-16.1
		c0-2.9-1.8-4.8-4.8-4.8c-4.7,0-7,3.2-7,7.5v13.4h-3.9V627.7z"/>
	<path class="st2" d="M312.8,649.5c0,7.8-3.5,11.7-11,11.7c-4.5,0-9.6-1.8-9.8-7h3.9c0.1,2.8,3.6,3.9,6.2,3.9c5.1,0,7.1-3.7,7.1-9
		v-1.6h-0.1c-1.3,2.9-4.4,4.3-7.4,4.3c-7.1,0-10.6-5.6-10.6-12.1c0-5.6,2.7-12.6,11-12.6c3,0,5.7,1.3,7.1,4h0v-3.4h3.7V649.5z
		 M309,639.1c0-4.2-1.8-8.5-6.8-8.5c-5,0-7,4.1-7,8.6c0,4.3,1.6,9.1,6.7,9.1C307,648.3,309,643.6,309,639.1z"/>
	<path class="st2" d="M336.9,627.7h4.7v3.5h-4.7v14.8c0,1.8,0.5,2.1,2.9,2.1h1.8v3.5h-3c-4,0-5.7-0.8-5.7-5.2v-15.1h-4v-3.5h4v-7.1
		h3.9V627.7z"/>
	<path class="st2" d="M356.2,627.1c7.5,0,11.5,5.5,11.5,12.5c0,6.9-4,12.4-11.5,12.4s-11.5-5.5-11.5-12.4
		C344.7,632.6,348.7,627.1,356.2,627.1z M356.2,648.6c4.1,0,7.4-3.2,7.4-9c0-5.8-3.3-9-7.4-9c-4.1,0-7.4,3.3-7.4,9
		C348.8,645.4,352.2,648.6,356.2,648.6z"/>
	<path class="st2" d="M406.2,651.4c-0.7,0.4-1.7,0.6-2.8,0.6c-2,0-3.3-1.1-3.3-3.7c-2.2,2.6-5.1,3.7-8.4,3.7c-4.3,0-7.9-1.9-7.9-6.7
		c0-5.4,4-6.6,8.1-7.3c4.3-0.9,8-0.5,8-3.5c0-3.5-2.9-4-5.3-4c-3.3,0-5.8,1-5.9,4.5h-3.9c0.2-5.9,4.7-8,10.1-8c4.3,0,8.9,1,8.9,6.5
		v12.2c0,1.8,0,2.7,1.2,2.7c0.4,0,0.8-0.1,1.2-0.2V651.4z M399.9,639.2c-3,2.3-11.9,0-11.9,5.9c0,2.6,2.2,3.5,4.6,3.5
		c5.2,0,7.3-3.2,7.3-5.4V639.2z"/>
	<path class="st2" d="M438.8,635.3c-0.6-3-2.6-4.7-5.9-4.7c-5.7,0-7.4,4.5-7.4,9.3c0,4.4,2,8.7,6.9,8.7c3.8,0,6-2.2,6.5-5.8h4
		c-0.9,5.8-4.5,9.2-10.5,9.2c-7.3,0-11.1-5-11.1-12.1s3.7-12.7,11.2-12.7c5.4,0,9.7,2.5,10.3,8.2H438.8z"/>
	<path class="st2" d="M447.6,618.6h3.9v32.8h-3.9V618.6z"/>
	<path class="st2" d="M461.7,623.4h-3.9v-4.8h3.9V623.4z M457.8,627.7h3.9v23.8h-3.9V627.7z"/>
	<path class="st2" d="M488.1,643.9c-1.1,5.3-4.8,8.1-10.2,8.1c-7.6,0-11.2-5.3-11.4-12.5c0-7.2,4.7-12.4,11.2-12.4
		c8.4,0,11,7.9,10.8,13.6h-17.8c-0.1,4.1,2.2,7.8,7.4,7.8c3.3,0,5.5-1.5,6.2-4.6H488.1z M484.3,637.3c-0.2-3.7-2.9-6.7-6.9-6.7
		c-4,0-6.6,3-6.8,6.7H484.3z"/>
	<path class="st2" d="M492.5,627.7h3.7v3.8h0.1c1.7-2.9,4.3-4.3,7.7-4.3c6.3,0,8.2,3.6,8.2,8.7v15.6h-3.9v-16.1
		c0-2.9-1.8-4.8-4.8-4.8c-4.7,0-7,3.2-7,7.5v13.4h-3.9V627.7z"/>
	<path class="st2" d="M523.5,627.7h4.7v3.5h-4.7v14.8c0,1.8,0.5,2.1,2.9,2.1h1.8v3.5h-3c-4,0-5.7-0.8-5.7-5.2v-15.1h-4v-3.5h4v-7.1
		h3.9V627.7z"/>
</g>
<line class="st3" x1="53.3" y1="54.1" x2="1919.9" y2="54.1"/>
<g>
	<path class="st4" d="M1692.7,678.4c-0.8,0-1.4-0.6-1.4-1.4c0-0.8,0.6-1.4,1.4-1.4c3.3,0,6.7-0.1,10-0.3c0.8-0.1,1.5,0.6,1.5,1.4
		c0,0.8-0.6,1.5-1.4,1.5C1699.5,678.3,1696.1,678.4,1692.7,678.4L1692.7,678.4L1692.7,678.4z M1682.6,678.2
		C1682.6,678.2,1682.5,678.2,1682.6,678.2c-3.5-0.2-6.9-0.4-10.2-0.8c-0.8-0.1-1.4-0.8-1.3-1.6c0.1-0.8,0.8-1.4,1.6-1.3
		c3.3,0.3,6.7,0.6,10,0.8c0.8,0,1.4,0.7,1.4,1.5C1684,677.6,1683.4,678.2,1682.6,678.2L1682.6,678.2z M1712.8,677.3
		c-0.7,0-1.4-0.5-1.4-1.3c-0.1-0.8,0.5-1.5,1.3-1.6c3.3-0.4,6.6-0.8,9.9-1.4c0.8-0.1,1.5,0.4,1.7,1.2c0.1,0.8-0.4,1.5-1.2,1.7
		c-3.3,0.6-6.7,1-10.1,1.4C1712.9,677.3,1712.9,677.3,1712.8,677.3L1712.8,677.3z M1662.5,676.1c-0.1,0-0.2,0-0.2,0
		c-3.3-0.5-6.7-1.2-10-1.9c-0.8-0.2-1.3-0.9-1.1-1.7c0.2-0.8,0.9-1.3,1.7-1.1c3.2,0.7,6.6,1.3,9.8,1.8c0.8,0.1,1.3,0.9,1.2,1.6
		C1663.8,675.6,1663.2,676.1,1662.5,676.1L1662.5,676.1z M1732.7,674c-0.7,0-1.3-0.5-1.4-1.1c-0.2-0.8,0.3-1.5,1.1-1.7
		c3.2-0.7,6.5-1.5,9.7-2.4c0.8-0.2,1.6,0.2,1.8,1c0.2,0.8-0.2,1.6-1,1.8c-3.2,0.9-6.6,1.7-9.9,2.5C1732.9,674,1732.8,674,1732.7,674
		L1732.7,674z M1642.8,671.9c-0.1,0-0.3,0-0.4-0.1c-3.3-0.9-6.5-1.9-9.7-2.9c-0.8-0.3-1.2-1.1-0.9-1.8c0.2-0.8,1.1-1.2,1.8-0.9
		c3.2,1,6.4,2,9.6,2.9c0.8,0.2,1.2,1,1,1.8C1644,671.5,1643.4,671.9,1642.8,671.9L1642.8,671.9z M1752.1,668.5c-0.6,0-1.2-0.4-1.4-1
		c-0.3-0.8,0.1-1.6,0.9-1.8c3.2-1.1,6.3-2.2,9.4-3.5c0.7-0.3,1.6,0.1,1.9,0.8c0.3,0.7-0.1,1.6-0.8,1.9c-3.1,1.3-6.3,2.4-9.5,3.5
		C1752.4,668.5,1752.3,668.5,1752.1,668.5L1752.1,668.5z M1623.6,665.5c-0.2,0-0.4,0-0.5-0.1c-3.1-1.2-6.3-2.6-9.4-4
		c-0.7-0.3-1-1.2-0.7-1.9c0.3-0.7,1.2-1,1.9-0.7c3,1.4,6.1,2.7,9.2,3.9c0.7,0.3,1.1,1.1,0.8,1.9
		C1624.7,665.2,1624.2,665.5,1623.6,665.5L1623.6,665.5z M1770.8,661c-0.5,0-1.1-0.3-1.3-0.8c-0.3-0.7,0-1.6,0.7-1.9
		c3-1.4,6-2.9,8.9-4.5c0.7-0.4,1.6-0.1,2,0.6c0.4,0.7,0.1,1.6-0.6,1.9c-3,1.6-6,3.1-9.1,4.5C1771.2,661,1771,661,1770.8,661
		L1770.8,661z M1605.3,657.1c-0.2,0-0.5-0.1-0.7-0.2c-3-1.6-6-3.2-8.9-5c-0.7-0.4-0.9-1.3-0.5-2c0.4-0.7,1.3-0.9,2-0.5
		c2.9,1.7,5.8,3.4,8.7,4.9c0.7,0.4,1,1.2,0.6,1.9C1606.3,656.9,1605.8,657.1,1605.3,657.1L1605.3,657.1z M1788.6,651.5
		c-0.5,0-1-0.2-1.2-0.7c-0.4-0.7-0.2-1.6,0.5-2c2.8-1.7,5.7-3.5,8.4-5.4c0.7-0.5,1.6-0.3,2,0.4c0.4,0.7,0.3,1.6-0.4,2
		c-2.8,1.9-5.7,3.7-8.5,5.5C1789.1,651.5,1788.9,651.5,1788.6,651.5L1788.6,651.5z M1587.9,646.8c-0.3,0-0.6-0.1-0.8-0.2
		c-2.8-1.9-5.6-3.9-8.3-5.9c-0.6-0.5-0.8-1.4-0.3-2c0.5-0.6,1.4-0.8,2-0.3c2.7,2,5.4,4,8.2,5.8c0.7,0.4,0.8,1.3,0.4,2
		C1588.8,646.6,1588.4,646.8,1587.9,646.8L1587.9,646.8z M1805.3,640.2c-0.4,0-0.9-0.2-1.1-0.6c-0.5-0.6-0.4-1.5,0.3-2
		c2.6-2,5.3-4.1,7.8-6.3c0.6-0.5,1.5-0.4,2,0.2c0.5,0.6,0.4,1.5-0.2,2c-2.6,2.2-5.2,4.3-7.9,6.4
		C1805.9,640.1,1805.6,640.2,1805.3,640.2L1805.3,640.2z M1571.8,634.6c-0.3,0-0.7-0.1-0.9-0.3c-2.6-2.2-5.1-4.4-7.6-6.8
		c-0.6-0.5-0.6-1.5-0.1-2c0.5-0.6,1.5-0.6,2-0.1c2.4,2.3,4.9,4.5,7.5,6.7c0.6,0.5,0.7,1.4,0.2,2
		C1572.6,634.5,1572.2,634.6,1571.8,634.6L1571.8,634.6z M1820.6,627.1c-0.4,0-0.8-0.2-1-0.5c-0.5-0.6-0.5-1.5,0.1-2
		c2.4-2.3,4.8-4.7,7.1-7.1c0.5-0.6,1.5-0.6,2-0.1c0.6,0.5,0.6,1.5,0.1,2c-2.3,2.5-4.7,4.9-7.2,7.2
		C1821.3,626.9,1821,627.1,1820.6,627.1L1820.6,627.1z M1557.1,620.8c-0.4,0-0.8-0.1-1-0.4c-2.3-2.4-4.6-5-6.8-7.5
		c-0.5-0.6-0.4-1.5,0.2-2c0.6-0.5,1.5-0.5,2,0.2c2.2,2.5,4.4,5,6.7,7.4c0.6,0.6,0.5,1.5,0,2C1557.8,620.7,1557.4,620.8,1557.1,620.8
		L1557.1,620.8z M1834.5,612.4c-0.3,0-0.7-0.1-0.9-0.3c-0.6-0.5-0.7-1.4-0.2-2c2.1-2.5,4.3-5.2,6.3-7.8c0.5-0.6,1.4-0.8,2-0.3
		c0.6,0.5,0.8,1.4,0.3,2c-2,2.7-4.2,5.4-6.4,7.9C1835.3,612.2,1834.9,612.4,1834.5,612.4L1834.5,612.4z M1543.9,605.5
		c-0.4,0-0.9-0.2-1.1-0.6c-2.1-2.7-4.1-5.4-6-8.2c-0.5-0.7-0.3-1.6,0.4-2c0.7-0.5,1.6-0.3,2,0.4c1.9,2.7,3.9,5.5,5.9,8.1
		c0.5,0.6,0.4,1.5-0.3,2C1544.5,605.5,1544.2,605.5,1543.9,605.5L1543.9,605.5z M1846.7,596.3c-0.3,0-0.6-0.1-0.8-0.2
		c-0.7-0.4-0.8-1.3-0.4-2c1.9-2.8,3.7-5.6,5.4-8.4c0.4-0.7,1.3-0.9,2-0.5c0.7,0.4,0.9,1.3,0.5,2c-1.7,2.9-3.6,5.8-5.5,8.6
		C1847.6,596.1,1847.1,596.3,1846.7,596.3L1846.7,596.3z M1532.5,588.9c-0.5,0-1-0.2-1.2-0.7c-1.8-2.9-3.5-5.8-5.1-8.8
		c-0.4-0.7-0.1-1.6,0.6-2c0.7-0.4,1.6-0.1,2,0.6c1.6,2.9,3.3,5.8,5,8.7c0.4,0.7,0.2,1.6-0.5,2C1533,588.9,1532.8,588.9,1532.5,588.9
		L1532.5,588.9z M1857.1,579c-0.2,0-0.5-0.1-0.7-0.2c-0.7-0.4-1-1.2-0.6-1.9c1.6-2.9,3.1-6,4.5-9c0.3-0.7,1.2-1,1.9-0.7
		c0.7,0.3,1,1.2,0.7,1.9c-1.4,3.1-2.9,6.1-4.5,9.1C1858.1,578.7,1857.6,579,1857.1,579L1857.1,579z M1522.9,571.2
		c-0.5,0-1.1-0.3-1.3-0.8c-1.4-3-2.8-6.2-4.1-9.3c-0.3-0.7,0.1-1.6,0.8-1.9c0.7-0.3,1.6,0.1,1.9,0.8c1.3,3.1,2.6,6.2,4,9.2
		c0.3,0.7,0,1.6-0.7,1.9C1523.4,571.2,1523.1,571.2,1522.9,571.2L1522.9,571.2z M1865.5,560.7c-0.2,0-0.4,0-0.5-0.1
		c-0.7-0.3-1.1-1.1-0.8-1.9c1.2-3.1,2.4-6.3,3.5-9.4c0.3-0.8,1.1-1.2,1.8-0.9c0.8,0.3,1.2,1.1,0.9,1.8c-1.1,3.2-2.3,6.4-3.5,9.6
		C1866.7,560.3,1866.1,560.7,1865.5,560.7L1865.5,560.7z M1515.3,552.5c-0.6,0-1.2-0.4-1.4-1c-1.1-3.2-2.1-6.5-3.1-9.7
		c-0.2-0.8,0.2-1.6,1-1.8c0.8-0.2,1.6,0.2,1.8,1c0.9,3.2,1.9,6.4,3,9.5c0.3,0.8-0.1,1.6-0.9,1.8
		C1515.7,552.5,1515.5,552.5,1515.3,552.5L1515.3,552.5z M1872,541.5c-0.1,0-0.3,0-0.4-0.1c-0.8-0.2-1.2-1-1-1.8
		c0.9-3.2,1.7-6.5,2.4-9.7c0.2-0.8,0.9-1.3,1.7-1.1c0.8,0.2,1.3,0.9,1.1,1.7c-0.7,3.3-1.5,6.6-2.4,9.9
		C1873.2,541.1,1872.6,541.5,1872,541.5L1872,541.5z M1509.8,533.1c-0.7,0-1.3-0.5-1.4-1.1c-0.7-3.3-1.4-6.7-2-10
		c-0.1-0.8,0.4-1.5,1.2-1.7c0.8-0.1,1.5,0.4,1.7,1.2c0.6,3.3,1.2,6.6,1.9,9.8c0.2,0.8-0.3,1.6-1.1,1.7
		C1510,533.1,1509.9,533.1,1509.8,533.1L1509.8,533.1z M1876.3,521.8c-0.1,0-0.2,0-0.2,0c-0.8-0.1-1.3-0.9-1.2-1.7
		c0.5-3.3,1-6.6,1.3-9.9c0.1-0.8,0.8-1.4,1.6-1.3c0.8,0.1,1.4,0.8,1.3,1.6c-0.4,3.4-0.8,6.7-1.4,10.1
		C1877.6,521.3,1877,521.8,1876.3,521.8L1876.3,521.8z M1506.4,513.3c-0.7,0-1.3-0.5-1.4-1.3c-0.4-3.4-0.7-6.8-0.9-10.1
		c0-0.8,0.6-1.5,1.4-1.5c0.8,0,1.5,0.6,1.5,1.4c0.2,3.3,0.5,6.7,0.9,10c0.1,0.8-0.5,1.5-1.3,1.6
		C1506.6,513.2,1506.5,513.3,1506.4,513.3L1506.4,513.3z M1878.4,501.8C1878.4,501.8,1878.4,501.8,1878.4,501.8
		c-0.9,0-1.5-0.7-1.4-1.5c0.2-3.3,0.3-6.7,0.3-10c0-0.9,0-1.9,0-2.8c0-0.8,0.6-1.5,1.4-1.5c0.8,0,1.5,0.6,1.5,1.4c0,1,0,1.9,0,2.9
		c0,3.4-0.1,6.8-0.3,10.2C1879.8,501.2,1879.2,501.8,1878.4,501.8L1878.4,501.8z M1505.2,493.1c-0.8,0-1.4-0.6-1.4-1.4l0-1.4
		c0-2.9,0.1-5.8,0.2-8.7c0-0.8,0.7-1.4,1.5-1.4c0.8,0,1.4,0.7,1.4,1.5c-0.1,2.9-0.2,5.8-0.2,8.6l0,1.4
		C1506.7,492.5,1506,493.1,1505.2,493.1C1505.2,493.1,1505.2,493.1,1505.2,493.1L1505.2,493.1z M1878.3,478.8
		c-0.8,0-1.4-0.6-1.4-1.3c-0.2-3.3-0.5-6.7-1-10c-0.1-0.8,0.5-1.5,1.3-1.6c0.8-0.1,1.5,0.5,1.6,1.3c0.4,3.3,0.7,6.8,1,10.1
		C1879.8,478,1879.2,478.7,1878.3,478.8C1878.3,478.7,1878.3,478.8,1878.3,478.8L1878.3,478.8z M1506.1,473c0,0-0.1,0-0.1,0
		c-0.8-0.1-1.4-0.8-1.3-1.6c0.3-3.4,0.8-6.8,1.3-10.1c0.1-0.8,0.9-1.3,1.6-1.2c0.8,0.1,1.3,0.9,1.2,1.6c-0.5,3.3-0.9,6.6-1.3,9.9
		C1507.5,472.4,1506.9,473,1506.1,473L1506.1,473z M1875.8,458.7c-0.7,0-1.3-0.5-1.4-1.2c-0.6-3.3-1.3-6.6-2-9.8
		c-0.2-0.8,0.3-1.6,1.1-1.7c0.8-0.2,1.6,0.3,1.7,1.1c0.8,3.3,1.5,6.6,2.1,10c0.1,0.8-0.4,1.5-1.2,1.7
		C1876,458.7,1875.9,458.7,1875.8,458.7L1875.8,458.7z M1509.2,453c-0.1,0-0.2,0-0.3,0c-0.8-0.2-1.3-0.9-1.1-1.7
		c0.7-3.3,1.5-6.6,2.4-9.9c0.2-0.8,1-1.2,1.8-1c0.8,0.2,1.2,1,1,1.8c-0.9,3.2-1.6,6.5-2.3,9.7C1510.5,452.6,1509.9,453,1509.2,453
		L1509.2,453z M1871.2,439.1c-0.6,0-1.2-0.4-1.4-1c-0.9-3.2-2-6.4-3.1-9.5c-0.3-0.8,0.1-1.6,0.9-1.8c0.8-0.3,1.6,0.1,1.8,0.9
		c1.1,3.2,2.2,6.5,3.1,9.7c0.2,0.8-0.2,1.6-1,1.8C1871.5,439.1,1871.3,439.1,1871.2,439.1L1871.2,439.1z M1514.4,433.5
		c-0.1,0-0.3,0-0.4-0.1c-0.8-0.2-1.2-1.1-0.9-1.8c1.1-3.2,2.2-6.5,3.4-9.6c0.3-0.7,1.1-1.1,1.9-0.8c0.7,0.3,1.1,1.1,0.8,1.9
		c-1.2,3.1-2.3,6.3-3.4,9.4C1515.6,433.2,1515,433.5,1514.4,433.5L1514.4,433.5z M1864.5,420.1c-0.6,0-1.1-0.3-1.3-0.9
		c-1.3-3.1-2.6-6.1-4.1-9.1c-0.3-0.7,0-1.6,0.7-1.9c0.7-0.3,1.6,0,1.9,0.7c1.5,3,2.9,6.2,4.1,9.3c0.3,0.7,0,1.6-0.8,1.9
		C1864.9,420.1,1864.7,420.1,1864.5,420.1L1864.5,420.1z M1521.8,414.7c-0.2,0-0.4,0-0.6-0.1c-0.7-0.3-1-1.2-0.7-1.9
		c1.4-3.1,2.9-6.2,4.5-9.2c0.4-0.7,1.2-1,1.9-0.6c0.7,0.4,1,1.2,0.6,1.9c-1.5,3-3,6-4.4,9C1522.8,414.4,1522.3,414.7,1521.8,414.7
		L1521.8,414.7z M1855.8,401.9c-0.5,0-1-0.3-1.3-0.7c-1.6-2.9-3.3-5.8-5-8.6c-0.4-0.7-0.2-1.6,0.5-2c0.7-0.4,1.6-0.2,2,0.5
		c1.8,2.9,3.5,5.8,5.1,8.8c0.4,0.7,0.1,1.6-0.6,2C1856.2,401.9,1856,401.9,1855.8,401.9L1855.8,401.9z M1531.1,396.8
		c-0.2,0-0.5-0.1-0.7-0.2c-0.7-0.4-0.9-1.3-0.5-2c1.7-2.9,3.5-5.8,5.4-8.6c0.4-0.7,1.3-0.8,2-0.4c0.7,0.4,0.8,1.3,0.4,2
		c-1.9,2.8-3.6,5.6-5.3,8.5C1532.1,396.5,1531.6,396.8,1531.1,396.8L1531.1,396.8z M1845.1,384.8c-0.5,0-0.9-0.2-1.2-0.6
		c-1.9-2.7-3.9-5.4-6-8c-0.5-0.6-0.4-1.5,0.2-2c0.6-0.5,1.5-0.4,2,0.2c2.1,2.7,4.1,5.4,6,8.2c0.5,0.7,0.3,1.6-0.4,2
		C1845.7,384.7,1845.4,384.8,1845.1,384.8L1845.1,384.8z M1542.3,380c-0.3,0-0.6-0.1-0.9-0.3c-0.6-0.5-0.8-1.4-0.3-2
		c2-2.7,4.1-5.4,6.3-8c0.5-0.6,1.4-0.7,2-0.2c0.6,0.5,0.7,1.4,0.2,2c-2.1,2.6-4.2,5.2-6.2,7.9C1543.2,379.8,1542.7,380,1542.3,380
		L1542.3,380z M1832.7,368.9c-0.4,0-0.8-0.2-1.1-0.5c-2.2-2.5-4.5-5-6.8-7.4c-0.6-0.6-0.5-1.5,0-2c0.6-0.6,1.5-0.5,2,0
		c2.3,2.4,4.7,4.9,6.9,7.5c0.5,0.6,0.5,1.5-0.1,2C1833.4,368.8,1833,368.9,1832.7,368.9L1832.7,368.9z M1555.2,364.5
		c-0.4,0-0.7-0.1-1-0.4c-0.6-0.5-0.6-1.5-0.1-2c2.3-2.5,4.7-4.9,7.1-7.3c0.6-0.6,1.5-0.5,2,0c0.6,0.6,0.5,1.5,0,2
		c-2.4,2.3-4.8,4.7-7,7.1C1556,364.3,1555.6,364.5,1555.2,364.5L1555.2,364.5z M1818.6,354.5c-0.3,0-0.7-0.1-1-0.4
		c-2.4-2.3-5-4.5-7.5-6.6c-0.6-0.5-0.7-1.4-0.2-2c0.5-0.6,1.4-0.7,2-0.2c2.6,2.2,5.2,4.4,7.7,6.7c0.6,0.5,0.6,1.5,0.1,2
		C1819.4,354.3,1819,354.5,1818.6,354.5L1818.6,354.5z M1569.7,350.5c-0.4,0-0.8-0.2-1.1-0.5c-0.5-0.6-0.5-1.5,0.1-2
		c2.5-2.2,5.2-4.4,7.9-6.4c0.6-0.5,1.5-0.4,2,0.3c0.5,0.6,0.4,1.5-0.3,2c-2.6,2-5.2,4.2-7.7,6.3
		C1570.4,350.4,1570.1,350.5,1569.7,350.5L1569.7,350.5z M1803.1,341.6c-0.3,0-0.6-0.1-0.9-0.3c-2.7-2-5.4-3.9-8.2-5.7
		c-0.7-0.4-0.8-1.3-0.4-2c0.4-0.7,1.3-0.8,2-0.4c2.8,1.9,5.6,3.8,8.3,5.8c0.6,0.5,0.8,1.4,0.3,2
		C1804,341.4,1803.5,341.6,1803.1,341.6L1803.1,341.6z M1585.7,338.1c-0.5,0-0.9-0.2-1.2-0.6c-0.5-0.7-0.3-1.6,0.4-2
		c2.8-1.9,5.6-3.8,8.5-5.6c0.7-0.4,1.6-0.2,2,0.5c0.4,0.7,0.2,1.6-0.5,2c-2.8,1.7-5.6,3.6-8.4,5.5
		C1586.2,338,1586,338.1,1585.7,338.1L1585.7,338.1z M1786.3,330.5c-0.2,0-0.5-0.1-0.7-0.2c-2.9-1.7-5.8-3.3-8.8-4.8
		c-0.7-0.4-1-1.2-0.6-1.9c0.4-0.7,1.2-1,1.9-0.6c3,1.5,6,3.2,8.9,4.9c0.7,0.4,0.9,1.3,0.5,2C1787.2,330.2,1786.7,330.5,1786.3,330.5
		L1786.3,330.5z M1602.8,327.5c-0.5,0-1-0.3-1.3-0.8c-0.4-0.7-0.1-1.6,0.6-2c3-1.6,6-3.2,9-4.6c0.7-0.3,1.6,0,1.9,0.7
		c0.3,0.7,0,1.6-0.7,1.9c-3,1.4-6,2.9-8.9,4.5C1603.3,327.5,1603.1,327.5,1602.8,327.5L1602.8,327.5z M1768.3,321.2
		c-0.2,0-0.4,0-0.6-0.1c-3-1.4-6.2-2.7-9.3-3.9c-0.7-0.3-1.1-1.1-0.8-1.9c0.3-0.7,1.1-1.1,1.9-0.8c3.2,1.2,6.3,2.5,9.4,3.9
		c0.7,0.3,1.1,1.2,0.7,1.9C1769.4,320.9,1768.8,321.2,1768.3,321.2L1768.3,321.2z M1621,318.9c-0.6,0-1.1-0.3-1.3-0.9
		c-0.3-0.7,0.1-1.6,0.8-1.9c3.1-1.3,6.3-2.5,9.5-3.6c0.8-0.3,1.6,0.1,1.8,0.9c0.3,0.8-0.1,1.6-0.9,1.8c-3.1,1.1-6.3,2.3-9.4,3.6
		C1621.4,318.9,1621.2,318.9,1621,318.9L1621,318.9z M1749.4,314c-0.1,0-0.3,0-0.4-0.1c-3.2-1-6.4-2-9.6-2.8c-0.8-0.2-1.2-1-1-1.8
		c0.2-0.8,1-1.2,1.8-1c3.3,0.9,6.5,1.8,9.8,2.9c0.8,0.2,1.2,1.1,0.9,1.8C1750.6,313.6,1750,314,1749.4,314L1749.4,314z
		 M1640.1,312.2c-0.6,0-1.2-0.4-1.4-1c-0.2-0.8,0.2-1.6,1-1.8c3.2-0.9,6.6-1.8,9.8-2.6c0.8-0.2,1.6,0.3,1.7,1.1
		c0.2,0.8-0.3,1.5-1.1,1.7c-3.2,0.7-6.5,1.6-9.7,2.5C1640.3,312.2,1640.2,312.2,1640.1,312.2L1640.1,312.2z M1729.9,308.8
		c-0.1,0-0.2,0-0.3,0c-3.3-0.7-6.6-1.3-9.9-1.8c-0.8-0.1-1.3-0.9-1.2-1.6c0.1-0.8,0.8-1.3,1.6-1.2c3.3,0.5,6.7,1.1,10,1.8
		c0.8,0.2,1.3,0.9,1.1,1.7C1731.2,308.3,1730.6,308.8,1729.9,308.8L1729.9,308.8z M1659.7,307.7c-0.7,0-1.3-0.5-1.4-1.2
		c-0.1-0.8,0.4-1.5,1.2-1.7c3.3-0.6,6.7-1.1,10.1-1.5c0.8-0.1,1.5,0.5,1.6,1.3c0.1,0.8-0.5,1.5-1.3,1.6c-3.3,0.4-6.6,0.9-9.9,1.4
		C1659.9,307.7,1659.8,307.7,1659.7,307.7L1659.7,307.7z M1710,305.8c0,0-0.1,0-0.1,0c-3.3-0.3-6.7-0.5-10-0.7
		c-0.8,0-1.4-0.7-1.4-1.5c0-0.8,0.7-1.4,1.5-1.4c3.4,0.1,6.8,0.4,10.1,0.7c0.8,0.1,1.4,0.8,1.3,1.6
		C1711.3,305.2,1710.7,305.8,1710,305.8L1710,305.8z M1679.7,305.3c-0.8,0-1.4-0.6-1.4-1.3c-0.1-0.8,0.6-1.5,1.3-1.5
		c3.4-0.2,6.8-0.3,10.2-0.4c0,0,0,0,0,0c0.8,0,1.4,0.6,1.4,1.4c0,0.8-0.6,1.4-1.4,1.5C1686.5,305,1683.1,305.1,1679.7,305.3
		C1679.8,305.3,1679.8,305.3,1679.7,305.3L1679.7,305.3z"/>
</g>
<g>
	<path class="st5" d="M1607.8,366.4c-1.8,3.2-3.9,6-6.4,8.5l-0.2,0.1c-2.4,2.4-5.2,4.5-8.3,6.2c-2,1.1-4.1,1.5-6.2,1.2
		c-2.1-0.3-4-1.2-5.6-2.8l0,0v0l-18.4-18.4l-6.2-6.2l17.2-17.2l7-1.5c1.8-0.4,3.6-1,5.2-1.9l20.2,20.3c1.6,1.6,2.5,3.6,2.8,5.6
		C1609.3,362.2,1608.9,364.4,1607.8,366.4z"/>
	<polygon class="st6" points="1548.3,326.7 1532.1,310.6 1526.8,310.8 1512.7,293.5 1520.2,286 1537.5,300.1 1537.2,305.4 
		1548.6,316.8 1553.4,321.6 	"/>
	<path class="st7" d="M1607.8,366.4c-1.8,3.2-3.9,6-6.4,8.5l-0.2,0.1c-2.4,2.4-5.2,4.5-8.3,6.2c-2,1.1-4.1,1.5-6.2,1.2
		c-2.1-0.3-4-1.2-5.6-2.8l0,0v0l-18.4-18.4l-6.2-6.2l3.5-3.5l24.6,24.7l0,0c0.8,0.8,1.8,1.3,2.8,1.4c0.5,0.1,0.9,0.1,1.4,0
		l-27.4-27.5l12.3-12.3l28.4,28.4c0.5-0.7,0.9-1.4,1.3-2.2c0.5-1,0.7-2,0.6-3.1c-0.1-1-0.6-2-1.4-2.8l-21.9-21.9
		c1.8-0.4,3.6-1,5.2-1.9l20.2,20.3c1.6,1.6,2.5,3.6,2.8,5.6C1609.3,362.2,1608.9,364.4,1607.8,366.4z"/>
	<path class="st6" d="M1579.3,315.2c-4.4-4.3-7.1-10.3-3.9-13.5l13.2-13.2l-1.8-1.8c-5.8-5.8-24.2,4.3-30.5,13.7
		c-3.2,4.8-4.2,11.8,0.7,17.7l-42.8,42.8c-1.6,1.6-2.5,3.5-2.8,5.6c-1.1,8.1,8.7,17.9,16.8,16.8c2.1-0.3,4-1.2,5.6-2.8l42.6-42.6
		c5.4,5.3,12.7,3.8,17.8,0.4c9.4-6.3,19.5-24.7,13.7-30.5l-1.8-1.8l-13.2,13.2C1589.7,322.3,1583.6,319.5,1579.3,315.2L1579.3,315.2
		z M1521.1,373.4c-3.9-3.9-3.9-10.2,0-14.1c3.9-3.9,10.2-3.9,14.1,0c3.9,3.9,3.9,10.2,0,14.1C1531.3,377.3,1525,377.3,1521.1,373.4z
		"/>
	<path class="st8" d="M1516.2,378.2l4.9-4.9c-3.8-3.9-3.8-10.2,0.1-14.1c3.9-3.9,10.2-3.9,14,0l44.2-44.1
		c-4.4-4.3-7.1-10.3-3.9-13.5l13.2-13.2l-1.8-1.8c-5.8-5.8-24.2,4.3-30.5,13.7c-3.2,4.8-4.2,11.8,0.7,17.7l-42.8,42.8
		c-1.6,1.6-2.5,3.5-2.8,5.6C1510.8,370.4,1512.9,374.9,1516.2,378.2z"/>
</g>
<g>
	<path class="st7" d="M1459.7,636.7h93.7c3.9,0,7.1-3.2,7.1-7.1V505.2c0-3.9-3.2-7.1-7.1-7.1h-15.2h-9h-45.3h-7.9h-16.3
		c-3.9,0-7.1,3.2-7.1,7.1v124.4C1452.6,633.5,1455.8,636.7,1459.7,636.7z"/>
	<path class="st9" d="M1549.1,508.2v118.5h-85.2V508.2C1492.3,508.2,1520.7,508.2,1549.1,508.2z"/>
	<rect x="1463.9" y="508.2" class="st8" width="42.6" height="118.5"/>
	<path class="st10" d="M1486.2,518.1v-20h40.6v20H1486.2L1486.2,518.1z M1522.2,514.2c0-4.4,0-7.8,0-12.1c-10.4,0-20.9,0-31.3,0
		c0,4.4,0,7.8,0,12.1C1501.3,514.2,1511.7,514.2,1522.2,514.2z"/>
	<path class="st11" d="M1477,537.3L1477,537.3c1.7,0,3,1.4,3,3l0,0c0,1.7-1.4,3-3,3l0,0c-1.7,0-3-1.4-3-3l0,0
		C1474,538.6,1475.3,537.3,1477,537.3z"/>
	<path class="st12" d="M1477,553.6L1477,553.6c1.7,0,3,1.4,3,3l0,0c0,1.7-1.4,3-3,3l0,0c-1.7,0-3-1.4-3-3l0,0
		C1474,555,1475.3,553.6,1477,553.6z"/>
	<path class="st13" d="M1477,571L1477,571c1.7,0,3,1.4,3,3l0,0c0,1.7-1.4,3-3,3l0,0c-1.7,0-3-1.4-3-3l0,0
		C1474,572.3,1475.3,571,1477,571z"/>
	<rect x="1486.2" y="538.8" class="st7" width="47.1" height="3"/>
	<rect x="1486.2" y="555.1" class="st7" width="51" height="3"/>
	<rect x="1486.2" y="572.5" class="st7" width="40.2" height="3"/>
	<path class="st14" d="M1486.2,508.1v-10h40.6v10h-4.6v-6.1c-10.4,0-20.9,0-31.3,0v6.1H1486.2z"/>
</g>
<g>
	<polygon class="st8" points="1725.6,631.6 1724,630.1 1724.1,630.1 	"/>
	<path class="st8" d="M1741.3,738.7h-76.4c-4,0-7.3-3.3-7.3-7.3v-106c0-4,3.3-7.3,7.3-7.3h52.1l31.6,31.6v81.7
		C1748.6,735.5,1745.3,738.7,1741.3,738.7z"/>
	<polygon class="st15" points="1737.4,638.6 1748.6,649.8 1748.6,677.1 1719.2,647.7 	"/>
	<path class="st9" d="M1748.6,649.8h-24.3c-4,0-7.3-3.3-7.3-7.3v-24.3L1748.6,649.8z"/>
	<path class="st7" d="M1710.5,729.6h-40.3h-2v-2v-14.1v-17.2v-29.3v-17.2v-13.5v-2h2h46.8v3.9h-44.8v11.5v17.2v29.3v17.2v12.2h38.4
		V729.6L1710.5,729.6z M1671.4,649.9h-0.6h-0.3h-0.7h-0.4h-0.4v17.2h0.4h0.4h0.7h0.3h0.6V649.9L1671.4,649.9z M1671.4,696.4h-0.4
		h-0.4h-0.7h-0.4h-0.4v17.2h0.4h0.4h0.7h0.4h0.4V696.4z"/>
	<rect x="1727.5" y="649.8" class="st7" width="3.9" height="5.3"/>
	<polygon class="st7" points="1714.2,680.1 1727.5,680.1 1727.5,672.2 1731.4,672.2 1731.4,682.1 1731.4,684 1729.5,684 1714.2,684 
			"/>
	<rect x="1670.2" y="680.1" class="st7" width="26.9" height="3.9"/>
	<path class="st15" d="M1741.3,738.7h-22.5l-9.9-9.8l0,0l0-0.1c0,0-0.1-0.1-0.1-0.1l-0.1-0.1l-0.1-0.1l0,0l0-0.1l0,0l0-0.1l0,0
		l0-0.1l0,0l0-0.1l0,0l0-0.1l0,0l0-0.1v0l0-0.1l0,0l0-0.1l0,0l0-0.1v0l0-0.1l0,0l0-0.1l0,0l0-0.1l0,0l0-0.1l0,0l0,0v0v0l0,0v0l0,0
		l0,0l0,0v0l0,0v-0.1l0,0l0,0l0,0v0l0,0v0l0,0l0,0l0,0v0l0,0l0,0l0,0v0l0,0v0l0,0v0v0v0l0,0v0l0,0v0v0l0,0l0,0v0l0,0v-0.1l0,0v0l0,0
		v0l0,0v-0.1v0l0,0v0l0,0v0l0,0v0l0,0v0l0,0l0,0l0,0v0l0,0v0v0v0l0,0v0l0,0v0l0,0v0l0,0v0l0,0v0l0,0v0l0,0l0,0l0,0v0l0,0v0l0,0l0,0
		l0,0v0l0,0v0l0,0v0l0,0l0,0l0,0v0l0,0v0l0,0v0l0,0h0v0v0v0v0v0l0,0v0l1.4-4.7l2.2-7.6l0,0l5.6-18.7v0l13.8-13.8l17.3-17.3v67
		C1748.6,735.5,1745.3,738.7,1741.3,738.7z"/>
	<polygon class="st15" points="1748.6,664.4 1748.6,677.1 1742.2,670.7 	"/>
	<g>
		<path class="st16" d="M1777.5,645.5c3.2,1.8,6,3.9,8.4,6.3l0.1,0.1c2.4,2.4,4.5,5.2,6.2,8.3c1.1,1.9,1.5,4.1,1.2,6.1
			c-0.3,2.1-1.2,4-2.8,5.6h0h0l-48.3,48.3l-30.9,9.2c-1.3,0.4-2.7-0.4-3.1-1.7c-0.1-0.4-0.1-0.9,0-1.4l9.2-30.9l48.3-48.3
			c1.6-1.6,3.5-2.5,5.6-2.8C1773.4,644.1,1775.6,644.5,1777.5,645.5z"/>
		<path class="st7" d="M1725.6,702.9l51.7-51.7c-0.7-0.5-1.4-0.9-2.2-1.3c-1-0.6-2-0.7-3-0.6c-1,0.2-2,0.6-2.8,1.4l-46.9,46.9
			L1725.6,702.9z"/>
		<path class="st7" d="M1723.8,725.8l-12.4,3.7c-1.3,0.4-2.7-0.4-3.1-1.7c-0.1-0.5-0.1-0.9,0-1.4l3.6-12.3l2,4.3l6.9,0.4
			L1723.8,725.8z"/>
		<path class="st7" d="M1777.5,645.5c3.2,1.8,6,3.9,8.4,6.3l0.1,0.1c2.4,2.4,4.5,5.2,6.2,8.3c1.1,1.9,1.5,4.1,1.2,6.1
			c-0.3,2.1-1.2,4-2.8,5.6h0h0l-48.3,48.3l-3.3-6.7c-5.2-2.7-10.4-5.3-15.6-8l-5.9-10.1l48.3-48.3c1.6-1.6,3.5-2.5,5.6-2.8
			C1773.4,644.1,1775.6,644.5,1777.5,645.5z"/>
		<path class="st5" d="M1777.5,645.5c1.3,0.7,2.5,1.5,3.6,2.3l-57.7,57.8l-5.9-10.1l48.3-48.3c1.6-1.6,3.5-2.5,5.6-2.8
			C1773.4,644.1,1775.6,644.5,1777.5,645.5z"/>
		<path class="st5" d="M1792.3,660.3c1.1,1.9,1.4,4.1,1.2,6.1c-0.3,2.1-1.2,4-2.8,5.6h0h0l-48.3,48.3l-3.3-6.7L1792.3,660.3z"/>
	</g>
</g>
<g>
	<path class="st7" d="M1807,298l6.1,2.5l10.7-5.5c3.6,3.6,7.3,7.3,10.9,10.9l-5.5,10.7l2.5,6.1l11.5,3.7c0,5.1,0,10.3,0,15.5
		l-11.5,3.7l-2.5,6.1l5.5,10.7c-3.6,3.6-7.3,7.3-10.9,10.9l-10.7-5.5l-6.1,2.5l-3.7,11.4c-5.1,0-10.3,0-15.5,0l-3.6-11.4l-6.1-2.5
		l-10.7,5.5c-3.6-3.6-7.3-7.3-10.9-10.9l5.5-10.7l-2.5-6.1l-11.4-3.7c0-5.1,0-10.3,0-15.5l11.4-3.7l2.5-6.1l-5.5-10.7
		c3.6-3.6,7.3-7.3,10.9-10.9l10.7,5.5l6.1-2.5l3.6-11.4c5.1,0,10.3,0,15.5,0L1807,298L1807,298z M1795.7,324.3
		c-5.4,0-9.8,4.4-9.8,9.8c0,5.4,4.4,9.8,9.8,9.8c5.4,0,9.8-4.4,9.8-9.8C1805.4,328.7,1801.1,324.3,1795.7,324.3z"/>
	<path class="st5" d="M1796.6,381.7h-8.6l-3.6-11.4l-6.1-2.5l-10.7,5.5c-3.6-3.6-7.3-7.3-10.9-10.9l5.5-10.7l-2.5-6.1l-11.4-3.7
		c0-5.1,0-10.3,0-15.5l11.4-3.7l2.5-6.1l-5.5-10.7c3.6-3.6,7.3-7.3,10.9-10.9l10.7,5.5l6.1-2.5l3.6-11.4h8.6v37.8
		c-0.3,0-0.6,0-0.9,0c-5.4,0-9.8,4.4-9.8,9.8c0,5.4,4.4,9.8,9.8,9.8c0.3,0,0.6,0,0.9,0V381.7z"/>
	<path class="st12" d="M1795.7,306.8c15.1,0,27.3,12.2,27.3,27.3c0,15.1-12.2,27.3-27.3,27.3c-15.1,0-27.3-12.3-27.3-27.3
		C1768.3,319,1780.6,306.8,1795.7,306.8L1795.7,306.8z M1795.7,324.3c-5.4,0-9.8,4.4-9.8,9.8c0,5.4,4.4,9.8,9.8,9.8
		c5.4,0,9.8-4.4,9.8-9.8C1805.4,328.7,1801.1,324.3,1795.7,324.3z"/>
	<path class="st5" d="M1795.7,354.9c11.5,0,20.8-9.3,20.8-20.8c0-11.5-9.3-20.8-20.8-20.8c-11.5,0-20.8,9.3-20.8,20.8
		C1774.9,345.6,1784.2,354.9,1795.7,354.9L1795.7,354.9z M1795.7,324.3c5.4,0,9.8,4.4,9.8,9.8c0,5.4-4.4,9.8-9.8,9.8
		c-5.4,0-9.8-4.4-9.8-9.8C1785.9,328.7,1790.3,324.3,1795.7,324.3z"/>
</g>
<g>
	<path class="st7" d="M1820.8,459.4l114.8,0c4.7,0,8.5,3.8,8.5,8.5l0,70.5c0,4.7-3.8,8.5-8.5,8.5l-114.8,0c-4.7,0-8.5-3.9-8.5-8.5
		l0-70.6C1812.3,463.2,1816.1,459.4,1820.8,459.4z"/>
	<path class="st17" d="M1822.4,465.6l29.7,0l82,0c2.1,0,3.8,1.7,3.8,3.8l0,67.4c0,2.1-1.7,3.8-3.8,3.8l-92.5,0h-19.1
		c-2.1,0-3.8-1.7-3.8-3.8l0-67.4C1818.5,467.3,1820.2,465.6,1822.4,465.6z"/>
	<path class="st18" d="M1955,547l-153.4-0.1v0.2c0,5.4,4.4,9.7,9.7,9.7l133.9,0.1c5.4,0,9.7-4.4,9.7-9.7V547z"/>
	<rect x="1861.4" y="547" class="st9" width="33.9" height="1.6"/>
	<path class="st17" d="M1878.2,465.6l0,75.1l-55.8,0c-2.1,0-3.8-1.7-3.8-3.8l0-67.4c0-2.1,1.7-3.8,3.8-3.8l29.7,0H1878.2z"/>
	<rect x="1838.7" y="482.5" class="st8" width="78.9" height="47.1"/>
	<rect x="1838.7" y="475.7" class="st19" width="78.9" height="6.8"/>
	<path class="st20" d="M1858.7,493.7L1858.7,493.7c1.1,0,1.9,0.9,1.9,1.9l0,0c0,1.1-0.9,1.9-1.9,1.9l0,0c-1.1,0-1.9-0.9-1.9-1.9l0,0
		C1856.8,494.6,1857.7,493.7,1858.7,493.7z"/>
	<path class="st12" d="M1858.7,504.1L1858.7,504.1c1.1,0,1.9,0.9,1.9,1.9l0,0c0,1.1-0.9,1.9-1.9,1.9l0,0c-1.1,0-1.9-0.9-1.9-1.9l0,0
		C1856.8,505,1857.7,504.1,1858.7,504.1z"/>
	<path class="st13" d="M1858.7,515.2L1858.7,515.2c1.1,0,1.9,0.9,1.9,1.9l0,0c0,1.1-0.9,1.9-1.9,1.9l0,0c-1.1,0-1.9-0.9-1.9-1.9l0,0
		C1856.8,516,1857.7,515.2,1858.7,515.2z"/>
	<rect x="1864.6" y="494.7" class="st21" width="30" height="1.9"/>
	<rect x="1864.6" y="505.1" class="st21" width="32.4" height="1.9"/>
	<rect x="1864.6" y="516.1" class="st21" width="25.6" height="1.9"/>
</g>
<path class="st4" d="M106.5,283.6c-5.6-5.6-13.4-9.1-22-9.1c-8.6,0-16.4,3.5-22,9.1c-5.7,5.6-9.1,13.4-9.1,22c0,8.6,3.5,16.4,9.1,22
	c5.6,5.6,13.4,9.1,22,9.1c8.6,0,16.4-3.5,22-9.1c5.6-5.6,9.1-13.4,9.1-22C115.6,297.1,112.1,289.2,106.5,283.6z M102.4,323.6
	c-4.6,4.6-10.9,7.4-17.9,7.4c-7,0-13.3-2.8-17.9-7.4c-4.6-4.6-7.4-10.9-7.4-18c0-7,2.8-13.3,7.4-17.9c4.6-4.6,10.9-7.4,17.9-7.4
	c7,0,13.3,2.8,18,7.4c4.6,4.6,7.4,10.9,7.4,17.9C109.8,312.7,107,319,102.4,323.6z M89.6,292H81l10.5,10.5H68.4v6.1h23L81,319h8.6
	l13.5-13.5L89.6,292z"/>
<path class="st4" d="M106.5,444.3c-5.6-5.6-13.4-9.1-22-9.1c-8.6,0-16.4,3.5-22,9.1c-5.7,5.6-9.1,13.4-9.1,22c0,8.6,3.5,16.4,9.1,22
	c5.6,5.6,13.4,9.1,22,9.1c8.6,0,16.4-3.5,22-9.1c5.6-5.6,9.1-13.4,9.1-22C115.6,457.7,112.1,449.9,106.5,444.3z M102.4,484.2
	c-4.6,4.6-10.9,7.4-17.9,7.4c-7,0-13.3-2.8-17.9-7.4c-4.6-4.6-7.4-10.9-7.4-18c0-7,2.8-13.3,7.4-17.9c4.6-4.6,10.9-7.4,17.9-7.4
	c7,0,13.3,2.8,18,7.4c4.6,4.6,7.4,10.9,7.4,17.9C109.8,473.3,107,479.6,102.4,484.2z M89.6,452.6H81l10.5,10.5H68.4v6.1h23L81,479.6
	h8.6l13.5-13.5L89.6,452.6z"/>
<path class="st4" d="M106.5,558.1c-5.6-5.6-13.4-9.1-22-9.1c-8.6,0-16.4,3.5-22,9.1c-5.7,5.6-9.1,13.4-9.1,22c0,8.6,3.5,16.4,9.1,22
	c5.6,5.6,13.4,9.1,22,9.1c8.6,0,16.4-3.5,22-9.1c5.6-5.6,9.1-13.4,9.1-22C115.6,571.5,112.1,563.7,106.5,558.1z M102.4,598.1
	c-4.6,4.6-10.9,7.4-17.9,7.4c-7,0-13.3-2.8-17.9-7.4c-4.6-4.6-7.4-10.9-7.4-18c0-7,2.8-13.3,7.4-17.9c4.6-4.6,10.9-7.4,17.9-7.4
	c7,0,13.3,2.8,18,7.4c4.6,4.6,7.4,10.9,7.4,17.9C109.8,587.2,107,593.5,102.4,598.1z M89.6,566.5H81L91.4,577H68.4v6.1h23L81,593.5
	h8.6l13.5-13.5L89.6,566.5z"/>
<g class="st22">
	<path class="st4" d="M82.7,110.7h-7.2L70,88.3h-0.1l-5.5,22.4h-7.3l-8.7-32.8h7.2l5.2,22.4h0.1l5.7-22.4h6.8l5.6,22.6h0.1l5.4-22.6
		h7.1L82.7,110.7z"/>
	<path class="st4" d="M94.1,77.8h6.5v12.4h0.1c1.7-2.7,4.5-4,6.9-4c6.9,0,8.7,3.9,8.7,9.8v14.6h-6.5V97.2c0-3.9-1.1-5.8-4.2-5.8
		c-3.5,0-5.1,2-5.1,6.8v12.5h-6.5V77.8z"/>
	<path class="st4" d="M133.2,113.6c-1.4,3.8-3.7,5.4-8.2,5.4c-1.3,0-2.7-0.1-4-0.2v-5.4c1.2,0.1,2.5,0.3,3.8,0.2
		c1.7-0.2,2.5-1.5,2.5-3c0-0.5-0.1-1-0.3-1.5l-8.4-22.3h7l5.4,16.3h0.1l5.2-16.3h6.8L133.2,113.6z"/>
	<path class="st4" d="M175.1,107.6L175.1,107.6c-1.6,2.6-4.2,3.7-7.3,3.7c-7.2,0-10.7-6.1-10.7-12.7c0-6.4,3.5-12.3,10.5-12.3
		c2.8,0,5.6,1.2,7,3.5h0.1v-12h6.5v32.8h-6.2V107.6z M169.4,91.2c-4.3,0-5.8,3.7-5.8,7.6c0,3.7,1.7,7.6,5.8,7.6
		c4.3,0,5.6-3.8,5.6-7.7C175,94.8,173.6,91.2,169.4,91.2z"/>
	<path class="st4" d="M197.7,86.2c7.5,0,12.3,5,12.3,12.6c0,7.5-4.8,12.5-12.3,12.5c-7.5,0-12.3-5-12.3-12.5
		C185.5,91.2,190.3,86.2,197.7,86.2z M197.7,106.4c4.5,0,5.8-3.8,5.8-7.6s-1.3-7.6-5.8-7.6c-4.4,0-5.8,3.8-5.8,7.6
		S193.3,106.4,197.7,106.4z"/>
	<path class="st4" d="M254.3,110.7h-6.7l-4.2-16h-0.1l-4,16h-6.8l-7.5-23.8h6.9l4.4,16.1h0.1l4-16.1h6.3l4,16.1h0.1l4.4-16.1h6.7
		L254.3,110.7z"/>
	<path class="st4" d="M269.9,100.4c0.2,4.2,2.2,6,5.8,6c2.6,0,4.7-1.6,5.2-3.1h5.8c-1.8,5.7-5.8,8-11.1,8c-7.5,0-12.1-5.2-12.1-12.5
		c0-7.1,4.9-12.6,12.1-12.6c8.1,0,12.1,6.8,11.5,14.1H269.9z M280.5,96.2c-0.6-3.3-2-5.1-5.2-5.1c-4.2,0-5.3,3.2-5.4,5.1H280.5z"/>
	<path class="st4" d="M303.7,86.9h6.2v3.3h0.1c1.7-2.7,4.5-4,7.3-4c6.9,0,8.7,3.9,8.7,9.8v14.6h-6.5V97.2c0-3.9-1.1-5.8-4.2-5.8
		c-3.5,0-5.1,2-5.1,6.8v12.5h-6.5V86.9z"/>
	<path class="st4" d="M336.4,100.4c0.2,4.2,2.2,6,5.8,6c2.6,0,4.7-1.6,5.2-3.1h5.8c-1.8,5.7-5.8,8-11.1,8c-7.5,0-12.1-5.2-12.1-12.5
		c0-7.1,4.9-12.6,12.1-12.6c8.1,0,12.1,6.8,11.5,14.1H336.4z M347,96.2c-0.6-3.3-2-5.1-5.2-5.1c-4.2,0-5.3,3.2-5.4,5.1H347z"/>
	<path class="st4" d="M362.8,100.4c0.2,4.2,2.2,6,5.8,6c2.6,0,4.7-1.6,5.2-3.1h5.8c-1.8,5.7-5.8,8-11.1,8c-7.5,0-12.1-5.2-12.1-12.5
		c0-7.1,4.9-12.6,12.1-12.6c8.1,0,12.1,6.8,11.5,14.1H362.8z M373.4,96.2c-0.6-3.3-2-5.1-5.2-5.1c-4.2,0-5.3,3.2-5.4,5.1H373.4z"/>
	<path class="st4" d="M400.8,107.6L400.8,107.6c-1.6,2.6-4.2,3.7-7.3,3.7c-7.2,0-10.7-6.1-10.7-12.7c0-6.4,3.5-12.3,10.5-12.3
		c2.8,0,5.6,1.2,7,3.5h0.1v-12h6.5v32.8h-6.2V107.6z M395.1,91.2c-4.3,0-5.8,3.7-5.8,7.6c0,3.7,1.7,7.6,5.8,7.6
		c4.3,0,5.6-3.8,5.6-7.7C400.7,94.8,399.3,91.2,395.1,91.2z"/>
	<path class="st4" d="M424.4,94.2c0.4-6.1,5.8-8,11.2-8c4.7,0,10.4,1.1,10.4,6.8v12.4c0,2.2,0.2,4.3,0.8,5.3h-6.6
		c-0.2-0.7-0.4-1.5-0.5-2.3c-2.1,2.2-5.1,2.9-8,2.9c-4.6,0-8.1-2.3-8.1-7.1c0.1-10.8,16.1-5,15.8-10.4c0-2.8-1.9-3.2-4.2-3.2
		c-2.5,0-4.1,1-4.3,3.6H424.4z M439.5,99c-1.1,1-3.4,1-5.4,1.4c-2,0.4-3.9,1.1-3.9,3.5s1.9,3,4,3c5.1,0,5.3-4,5.3-5.5V99z"/>
	<path class="st4" d="M463.9,86.9h6.2v3h0.1c1.6-2.6,4.1-3.7,7.1-3.7c7.5,0,10.8,6,10.8,12.8c0,6.3-3.5,12.3-10.4,12.3
		c-2.9,0-5.5-1.2-7.1-3.6h-0.1V119h-6.5V86.9z M481.6,98.8c0-3.8-1.5-7.7-5.7-7.7c-4.3,0-5.7,3.8-5.7,7.7s1.5,7.5,5.7,7.5
		C480.2,106.4,481.6,102.7,481.6,98.8z"/>
	<path class="st4" d="M492,86.9h6.2v4.4h0.1c1.2-3,4.3-5.1,7.6-5.1c0.5,0,1,0.1,1.4,0.2v6.1c-0.6-0.1-1.6-0.2-2.3-0.2
		c-4.8,0-6.4,3.4-6.4,7.6v10.7H492V86.9z"/>
	<path class="st4" d="M521.4,86.2c7.5,0,12.3,5,12.3,12.6c0,7.5-4.8,12.5-12.3,12.5c-7.5,0-12.3-5-12.3-12.5
		C509.1,91.2,514,86.2,521.4,86.2z M521.4,106.4c4.5,0,5.8-3.8,5.8-7.6s-1.3-7.6-5.8-7.6c-4.4,0-5.8,3.8-5.8,7.6
		S517,106.4,521.4,106.4z"/>
	<path class="st4" d="M554.2,95.2c-0.4-2.7-2-4.1-4.8-4.1c-4.2,0-5.6,4.2-5.6,7.7c0,3.5,1.3,7.5,5.4,7.5c3.1,0,4.8-1.9,5.2-4.8h6.3
		c-0.9,6.3-5.2,9.8-11.5,9.8c-7.2,0-12-5.1-12-12.2c0-7.4,4.4-12.9,12.1-12.9c5.6,0,10.8,2.9,11.2,9H554.2z"/>
	<path class="st4" d="M569.8,100.4c0.2,4.2,2.2,6,5.8,6c2.6,0,4.7-1.6,5.2-3.1h5.8c-1.8,5.7-5.8,8-11.1,8c-7.5,0-12.1-5.2-12.1-12.5
		c0-7.1,4.9-12.6,12.1-12.6c8.1,0,12.1,6.8,11.5,14.1H569.8z M580.4,96.2c-0.6-3.3-2-5.1-5.2-5.1c-4.2,0-5.3,3.2-5.4,5.1H580.4z"/>
	<path class="st4" d="M607.8,107.6L607.8,107.6c-1.6,2.6-4.2,3.7-7.3,3.7c-7.2,0-10.7-6.1-10.7-12.7c0-6.4,3.5-12.3,10.5-12.3
		c2.8,0,5.6,1.2,7,3.5h0.1v-12h6.5v32.8h-6.2V107.6z M602.1,91.2c-4.3,0-5.8,3.7-5.8,7.6c0,3.7,1.7,7.6,5.8,7.6
		c4.3,0,5.6-3.8,5.6-7.7C607.7,94.8,606.3,91.2,602.1,91.2z"/>
	<path class="st4" d="M641.2,110.7H635v-3.3h-0.1c-1.7,2.7-4.5,4-7.3,4c-6.9,0-8.7-3.9-8.7-9.8V86.9h6.5v13.4c0,3.9,1.1,5.8,4.2,5.8
		c3.5,0,5.1-2,5.1-6.8V86.9h6.5V110.7z"/>
	<path class="st4" d="M646.2,86.9h6.2v4.4h0.1c1.2-3,4.3-5.1,7.6-5.1c0.5,0,1,0.1,1.4,0.2v6.1c-0.6-0.1-1.6-0.2-2.3-0.2
		c-4.8,0-6.4,3.4-6.4,7.6v10.7h-6.5V86.9z"/>
	<path class="st4" d="M669.5,100.4c0.2,4.2,2.2,6,5.8,6c2.6,0,4.7-1.6,5.2-3.1h5.8c-1.8,5.7-5.8,8-11.1,8c-7.5,0-12.1-5.2-12.1-12.5
		c0-7.1,4.9-12.6,12.1-12.6c8.1,0,12.1,6.8,11.5,14.1H669.5z M680.1,96.2c-0.6-3.3-2-5.1-5.2-5.1c-4.2,0-5.3,3.2-5.4,5.1H680.1z"/>
	<path class="st4" d="M711.5,86.9h4.8v4.4h-4.8V103c0,2.2,0.6,2.8,2.8,2.8c0.7,0,1.4,0,2-0.2v5.1c-1.1,0.2-2.5,0.2-3.8,0.2
		c-4,0-7.5-0.9-7.5-5.7v-14h-4v-4.4h4v-7.1h6.5V86.9z"/>
	<path class="st4" d="M731,86.2c7.5,0,12.3,5,12.3,12.6c0,7.5-4.8,12.5-12.3,12.5c-7.5,0-12.3-5-12.3-12.5
		C718.7,91.2,723.6,86.2,731,86.2z M731,106.4c4.5,0,5.8-3.8,5.8-7.6s-1.3-7.6-5.8-7.6c-4.4,0-5.8,3.8-5.8,7.6
		S726.6,106.4,731,106.4z"/>
	<path class="st4" d="M767.1,83.2h-6.5v-5.4h6.5V83.2z M760.5,86.9h6.5v23.8h-6.5V86.9z"/>
	<path class="st4" d="M772.2,86.9h6.2v3.3h0.1c1.7-2.7,4.5-4,7.3-4c6.9,0,8.7,3.9,8.7,9.8v14.6H788V97.2c0-3.9-1.1-5.8-4.2-5.8
		c-3.5,0-5.1,2-5.1,6.8v12.5h-6.5V86.9z"/>
	<path class="st4" d="M804.6,102.9c0,2.8,2.5,4,5,4c1.8,0,4.3-0.7,4.3-3c0-2-2.8-2.7-7.4-3.7c-3.8-0.9-7.5-2.1-7.5-6.3
		c0-6.1,5.2-7.6,10.4-7.6c5.2,0,10,1.7,10.5,7.6h-6.2c-0.2-2.5-2.1-3.2-4.5-3.2c-1.5,0-3.6,0.2-3.6,2.2c0,2.3,3.7,2.7,7.4,3.5
		c3.8,0.9,7.5,2.3,7.5,6.7c0,6.3-5.5,8.3-10.9,8.3c-5.5,0-10.9-2.1-11.2-8.4H804.6z"/>
	<path class="st4" d="M832.5,86.9h4.8v4.4h-4.8V103c0,2.2,0.6,2.8,2.8,2.8c0.7,0,1.4,0,2-0.2v5.1c-1.1,0.2-2.5,0.2-3.8,0.2
		c-4,0-7.5-0.9-7.5-5.7v-14h-4v-4.4h4v-7.1h6.5V86.9z"/>
	<path class="st4" d="M840.1,94.2c0.4-6.1,5.8-8,11.2-8c4.7,0,10.4,1.1,10.4,6.8v12.4c0,2.2,0.2,4.3,0.8,5.3h-6.6
		c-0.2-0.7-0.4-1.5-0.5-2.3c-2.1,2.2-5.1,2.9-8,2.9c-4.6,0-8.1-2.3-8.1-7.1c0.1-10.8,16.1-5,15.8-10.4c0-2.8-1.9-3.2-4.2-3.2
		c-2.5,0-4.1,1-4.3,3.6H840.1z M855.2,99c-1.1,1-3.4,1-5.4,1.4c-2,0.4-3.9,1.1-3.9,3.5s1.9,3,4,3c5.1,0,5.3-4,5.3-5.5V99z"/>
	<path class="st4" d="M867,77.8h6.5v32.8H867V77.8z"/>
	<path class="st4" d="M878.8,77.8h6.5v32.8h-6.5V77.8z"/>
	<path class="st4" d="M903,94.2c0.4-6.1,5.8-8,11.2-8c4.7,0,10.4,1.1,10.4,6.8v12.4c0,2.2,0.2,4.3,0.8,5.3h-6.6
		c-0.2-0.7-0.4-1.5-0.5-2.3c-2.1,2.2-5.1,2.9-8,2.9c-4.6,0-8.1-2.3-8.1-7.1c0.1-10.8,16.1-5,15.8-10.4c0-2.8-1.9-3.2-4.2-3.2
		c-2.5,0-4.1,1-4.3,3.6H903z M918.1,99c-1.1,1-3.4,1-5.4,1.4c-2,0.4-3.9,1.1-3.9,3.5s1.9,3,4,3c5.1,0,5.3-4,5.3-5.5V99z"/>
	<path class="st4" d="M929.7,86.9h6.2v3.3h0.1c1.7-2.7,4.5-4,7.3-4c6.9,0,8.7,3.9,8.7,9.8v14.6h-6.5V97.2c0-3.9-1.1-5.8-4.2-5.8
		c-3.5,0-5.1,2-5.1,6.8v12.5h-6.5V86.9z"/>
	<path class="st4" d="M985.2,77c10.1,0,16.1,7.6,16.1,17.3c0,9.5-6,17.1-16.1,17.1s-16.1-7.6-16.1-17.1
		C969.1,84.6,975.1,77,985.2,77z M985.2,105.4c6.5,0,8.9-5.5,8.9-11c0-5.8-2.4-11.3-8.9-11.3s-8.9,5.5-8.9,11.3
		C976.3,99.8,978.7,105.4,985.2,105.4z"/>
	<path class="st4" d="M1007,91.2h-3.9v-4.4h3.9V85c0-4.2,2.6-7.2,8-7.2c1.2,0,2.3,0.1,3.5,0.2v4.9c-0.8-0.1-1.6-0.1-2.4-0.1
		c-1.8,0-2.5,0.7-2.5,2.7v1.4h4.5v4.4h-4.5v19.4h-6.5V91.2z"/>
	<path class="st4" d="M1022.3,91.2h-3.9v-4.4h3.9V85c0-4.2,2.6-7.2,8-7.2c1.2,0,2.3,0.1,3.5,0.2v4.9c-0.8-0.1-1.6-0.1-2.4-0.1
		c-1.8,0-2.5,0.7-2.5,2.7v1.4h4.5v4.4h-4.5v19.4h-6.5V91.2z"/>
	<path class="st4" d="M1041.6,100.4c0.2,4.2,2.2,6,5.8,6c2.6,0,4.7-1.6,5.2-3.1h5.8c-1.8,5.7-5.8,8-11.1,8
		c-7.5,0-12.1-5.2-12.1-12.5c0-7.1,4.9-12.6,12.1-12.6c8.1,0,12.1,6.8,11.5,14.1H1041.6z M1052.2,96.2c-0.6-3.3-2-5.1-5.2-5.1
		c-4.2,0-5.3,3.2-5.4,5.1H1052.2z"/>
	<path class="st4" d="M1062.6,86.9h6.2v4.4h0.1c1.2-3,4.3-5.1,7.6-5.1c0.5,0,1,0.1,1.4,0.2v6.1c-0.6-0.1-1.6-0.2-2.3-0.2
		c-4.8,0-6.4,3.4-6.4,7.6v10.7h-6.5V86.9z"/>
	<path class="st4" d="M1087.2,83.2h-6.5v-5.4h6.5V83.2z M1080.7,86.9h6.5v23.8h-6.5V86.9z"/>
	<path class="st4" d="M1092.4,86.9h6.2v3.3h0.1c1.7-2.7,4.5-4,7.3-4c6.9,0,8.7,3.9,8.7,9.8v14.6h-6.5V97.2c0-3.9-1.1-5.8-4.2-5.8
		c-3.5,0-5.1,2-5.1,6.8v12.5h-6.5V86.9z"/>
	<path class="st4" d="M1142.5,109.1c0,3.9-1.4,10.5-12.3,10.5c-4.7,0-10.1-2.3-10.5-7.6h6.5c0.6,2.4,2.5,3.3,4.9,3.3
		c3.6,0,5.3-2.4,5.2-5.9v-3.1h-0.1c-1.4,2.5-4.2,3.7-7.1,3.7c-7.2,0-10.2-5.4-10.2-12c0-6.2,3.6-11.8,10.2-11.8
		c3.1,0,5.5,1.1,7.1,3.8h0.1v-3.2h6.2V109.1z M1136.3,98.5c0-3.9-1.3-7.3-5.6-7.3c-3.7,0-5.3,3.2-5.3,6.8c0,3.4,1.2,7.1,5.3,7.1
		C1134.5,105,1136.3,101.9,1136.3,98.5z"/>
	<path class="st4" d="M1146.7,88.4c0.1-6.6,4.4-11.4,11.2-11.4c8.6,0,11.5,5.4,11.5,8.9c0,8.8-7.6,7.6-8.4,13.2v1.7h-6.2v-2.1
		c0.6-8,7.5-7.2,7.4-12.2c0-2.8-1.5-4.1-3.9-4.1c-3.3,0-4.7,2.7-4.7,6H1146.7z M1154.2,103.6h7.2v7.1h-7.2V103.6z"/>
</g>
<g>
</g>
<g>
</g>
<g>
</g>
<g>
</g>
<g>
</g>
<g>
</g>
</svg>
