<?xml version="1.0" encoding="utf-8"?>
<!-- Generator: Adobe Illustrator 19.2.0, SVG Export Plug-In . SVG Version: 6.00 Build 0)  -->
<svg version="1.1" id="Layer_1" xmlns="http://www.w3.org/2000/svg" xmlns:xlink="http://www.w3.org/1999/xlink" x="0px" y="0px"
	 viewBox="0 0 2048 1000" style="enable-background:new 0 0 2048 1000;" xml:space="preserve">
<style type="text/css">
	.st0{fill:#4EA8DE;}
	.st1{fill:#B9E5FB;}
	.st2{fill:none;stroke:#343636;stroke-width:3.2048;stroke-miterlimit:10;}
	.st3{fill:none;stroke:#343636;stroke-width:3;stroke-miterlimit:10;}
	.st4{fill:none;}
	.st5{fill:#231F20;}
	.st6{fill:#B8D890;}
	.st7{fill:none;stroke:#FFFFFF;stroke-width:6;stroke-miterlimit:10;}
	.st8{fill:#FFFFFF;}
	.st9{fill:none;stroke:#89C240;stroke-width:6;stroke-miterlimit:10;}
	.st10{fill:#89C240;}
	.st11{fill:none;stroke:#ED1C24;stroke-width:6;stroke-miterlimit:10;}
	.st12{fill:#ED1C24;}
	.st13{fill:#333333;}
	.st14{fill:#FF0000;}
	.st15{fill:#D1ECFB;}
</style>
<rect class="st0" width="2047.5" height="1000"/>
<rect class="st1" width="1261.6" height="1000"/>
<rect x="1258.6" class="st1" width="789.4" height="500.6"/>
<line class="st2" x1="93.4" y1="53.7" x2="2017.5" y2="53.7"/>
<line class="st3" x1="1306.1" y1="530.7" x2="1982" y2="530.7"/>
<g>
	<rect x="91.4" y="69.4" class="st4" width="373.2" height="49.6"/>
	<path class="st5" d="M94.9,69.4h5.8v32.8h-5.8V69.4z"/>
	<path class="st5" d="M106.9,78.4h5v3.5L112,82c1.6-2.6,4.3-4.2,7.4-4.2c5.2,0,8.4,2.7,8.4,8.1v16.3h-5.2v-15
		c-0.1-3.7-1.5-5.3-4.6-5.3c-3.5,0-5.8,2.8-5.8,6.3v14h-5.2V78.4z"/>
	<path class="st5" d="M137.3,94.6c0.3,3.1,2.6,4.1,5.4,4.1c2,0,5.4-0.4,5.3-3.1c-0.1-2.8-4-3.1-7.8-4c-3.9-0.8-7.6-2.2-7.6-7
		c0-5.2,5.6-6.8,9.9-6.8c4.9,0,9.3,2,9.9,7.3h-5.5c-0.5-2.5-2.5-3.2-4.8-3.2c-1.5,0-4.3,0.4-4.3,2.4c0,2.6,3.9,3,7.7,3.8
		c3.8,0.9,7.7,2.3,7.7,6.9c0,5.7-5.7,7.7-10.6,7.7c-6,0-10.4-2.7-10.5-8.3H137.3z"/>
	<path class="st5" d="M154.8,78.4h4v-7.1h5.2v7.1h4.7v3.9H164v12.7c0,2.2,0.2,3.3,2.5,3.3c0.7,0,1.5,0,2.2-0.2v4
		c-1.1,0.1-2.3,0.3-3.4,0.3c-5.5,0-6.4-2.1-6.6-6.1v-14h-4V78.4z"/>
	<path class="st5" d="M192.4,96.9c0,1.3,0.3,1.8,1.2,1.8h0.6c0.2,0,0.5,0,0.7-0.1v3.6c-0.8,0.3-2.4,0.6-3.3,0.6
		c-2.2,0-3.6-0.7-4-2.9c-2.1,2-5.4,2.9-8.2,2.9c-4.3,0-8.1-2.3-8.1-6.9c0-5.9,4.7-6.9,9.2-7.4c3.8-0.7,7.1-0.2,7.1-3.4
		c0-2.8-2.9-3.2-4.9-3.2c-2.9,0-5,1.2-5.2,3.8h-5.2c0.4-6.1,5.5-7.9,10.8-7.9c4.6,0,9.5,1.9,9.5,6.9V96.9z M187.2,90.3
		c-1.6,1.1-4.1,1-6.4,1.4c-2.3,0.4-4.3,1.2-4.3,4c0,2.4,3,3,4.8,3c2.3,0,5.9-1.2,5.9-4.5V90.3z"/>
	<path class="st5" d="M198.2,69.4h5.2v32.8h-5.2V69.4z"/>
	<path class="st5" d="M209.3,69.4h5.2v32.8h-5.2V69.4z"/>
	<path class="st5" d="M224.4,91.7c0,3.7,2,7,6.4,7c3.1,0,4.9-1.3,5.8-4h5c-1.1,5.2-5.6,8.1-10.8,8.1c-7.5,0-11.6-5.2-11.6-12.5
		c0-6.8,4.4-12.6,11.5-12.6c7.5,0,12.1,6.8,11.2,13.9H224.4z M236.6,88.2c-0.2-3.3-2.4-6.3-6-6.3c-3.6,0-6.1,2.8-6.3,6.3H236.6z"/>
	<path class="st5" d="M245.8,78.4h4.9V83h0.1c0.6-2.5,3.8-5.2,6.9-5.2c1.2,0,1.5,0.1,2,0.1V83c-0.7-0.1-1.5-0.2-2.3-0.2
		c-3.5,0-6.4,2.9-6.4,8.1v11.3h-5.2V78.4z"/>
</g>
<g>
	<rect x="1306.1" y="546.4" class="st4" width="373.2" height="49.6"/>
	<path class="st5" d="M1309.6,546.4h15.7c7.2,0,10.9,3.3,10.9,8.9c0,6.3-4.3,7.9-5.4,8.3v0.1c2,0.2,4.9,1.8,4.9,6.9
		c0,3.9,0.6,7.3,1.8,8.6h-6.2c-0.9-1.4-0.9-3.2-0.9-4.8c0-6-1.2-8.7-6.5-8.7h-8.5v13.5h-5.8V546.4z M1315.3,561.3h9.4
		c3.7,0,5.6-1.7,5.6-5.2c0-4.2-2.7-5-5.7-5h-9.3V561.3z"/>
	<path class="st5" d="M1345.3,568.7c0,3.7,2,7,6.4,7c3.1,0,4.9-1.3,5.8-4h5c-1.1,5.2-5.6,8.1-10.8,8.1c-7.5,0-11.6-5.2-11.6-12.5
		c0-6.8,4.4-12.6,11.5-12.6c7.5,0,12.1,6.8,11.2,13.9H1345.3z M1357.6,565.2c-0.2-3.3-2.4-6.3-6-6.3c-3.6,0-6.1,2.8-6.3,6.3H1357.6z
		"/>
	<path class="st5" d="M1382.9,563.4c-0.4-2.9-2.5-4.5-5.4-4.5c-2.7,0-6.5,1.5-6.5,8.6c0,4,1.7,8.1,6.3,8.1c3.1,0,5.2-2,5.7-5.4h5.2
		c-1,6.2-4.8,9.6-10.9,9.6c-7.5,0-11.5-5.3-11.5-12.3c0-7.2,3.9-12.8,11.7-12.8c5.5,0,10.2,2.8,10.7,8.6H1382.9z"/>
	<path class="st5" d="M1391.3,567.3c0-7.2,4.4-12.5,12-12.5s12,5.3,12,12.5c0,7.3-4.4,12.6-12,12.6S1391.3,574.6,1391.3,567.3z
		 M1410.1,567.3c0-4.1-2.1-8.4-6.8-8.4s-6.8,4.3-6.8,8.4c0,4.1,2.1,8.4,6.8,8.4S1410.1,571.4,1410.1,567.3z"/>
	<path class="st5" d="M1419.7,555.4h4.9v4.6h0.1c0.6-2.5,3.8-5.2,6.9-5.2c1.2,0,1.5,0.1,2,0.1v5.1c-0.7-0.1-1.5-0.2-2.3-0.2
		c-3.5,0-6.4,2.9-6.4,8.1v11.3h-5.2V555.4z"/>
	<path class="st5" d="M1458.3,579.2h-5V576h-0.1c-1.4,2.8-4.4,3.9-7.4,3.9c-7.5,0-11.1-5.6-11.1-12.7c0-8.6,5.1-12.4,10.3-12.4
		c2.9,0,6.3,1.1,7.9,3.7h0.1v-12.1h5.2V579.2z M1446.5,575.7c4.6,0,6.7-4.3,6.7-8.4c0-5.3-2.5-8.4-6.6-8.4c-4.9,0-6.7,4.4-6.7,8.6
		C1440,571.7,1442,575.7,1446.5,575.7z"/>
	<path class="st5" d="M1475.7,567.3c0-7.2,4.4-12.5,12-12.5s12,5.3,12,12.5c0,7.3-4.4,12.6-12,12.6S1475.7,574.6,1475.7,567.3z
		 M1494.4,567.3c0-4.1-2.1-8.4-6.8-8.4s-6.8,4.3-6.8,8.4c0,4.1,2.1,8.4,6.8,8.4S1494.4,571.4,1494.4,567.3z"/>
	<path class="st5" d="M1501.9,555.4h5.6l4.6,17.8h0.1l4.5-17.8h5.3l4.3,17.8h0.1l4.8-17.8h5.3l-7.5,23.8h-5.4l-4.4-17.7h-0.1
		l-4.4,17.7h-5.5L1501.9,555.4z"/>
	<path class="st5" d="M1539.8,555.4h5v3.5l0.1,0.1c1.6-2.6,4.3-4.2,7.4-4.2c5.2,0,8.4,2.7,8.4,8.1v16.3h-5.2v-15
		c-0.1-3.7-1.5-5.3-4.6-5.3c-3.5,0-5.8,2.8-5.8,6.3v14h-5.2V555.4z"/>
	<path class="st5" d="M1570.3,568.7c0,3.7,2,7,6.4,7c3.1,0,4.9-1.3,5.8-4h5c-1.1,5.2-5.6,8.1-10.8,8.1c-7.5,0-11.6-5.2-11.6-12.5
		c0-6.8,4.4-12.6,11.5-12.6c7.5,0,12.1,6.8,11.2,13.9H1570.3z M1582.6,565.2c-0.2-3.3-2.4-6.3-6-6.3c-3.6,0-6.1,2.8-6.3,6.3H1582.6z
		"/>
	<path class="st5" d="M1591.8,555.4h4.9v4.6h0.1c0.6-2.5,3.8-5.2,6.9-5.2c1.2,0,1.5,0.1,2,0.1v5.1c-0.7-0.1-1.5-0.2-2.3-0.2
		c-3.5,0-6.4,2.9-6.4,8.1v11.3h-5.2V555.4z"/>
</g>
<g>
	<g>
		<g>
			<line class="st6" x1="552.7" y1="523.6" x2="676.6" y2="523.6"/>
			<g>
				<line class="st7" x1="552.7" y1="523.6" x2="669.7" y2="523.6"/>
				<g>
					<polygon class="st8" points="657.8,533.7 668,523.6 657.8,513.4 666.4,513.4 676.6,523.6 666.4,533.7 					"/>
				</g>
			</g>
		</g>
	</g>
</g>
<g>
	<g>
		<g>
			<line class="st6" x1="1066" y1="714.8" x2="1416.7" y2="714.8"/>
			<g>
				<line class="st9" x1="1066" y1="714.8" x2="1409.8" y2="714.8"/>
				<g>
					<polygon class="st10" points="1397.9,725 1408,714.8 1397.9,704.7 1406.5,704.7 1416.7,714.8 1406.5,725 					"/>
				</g>
			</g>
		</g>
	</g>
</g>
<g>
	<g>
		<g>
			<line class="st6" x1="1066" y1="377.3" x2="1416.7" y2="377.3"/>
			<g>
				<line class="st11" x1="1066" y1="377.3" x2="1409.8" y2="377.3"/>
				<g>
					<polygon class="st12" points="1397.9,387.5 1408,377.3 1397.9,367.2 1406.5,367.2 1416.7,377.3 1406.5,387.5 					"/>
				</g>
			</g>
		</g>
	</g>
</g>
<g>
	<g>
		<g>
			<line class="st0" x1="879.4" y1="783.4" x2="879.4" y2="826.2"/>
			<g>
				<line class="st11" x1="879.4" y1="783.4" x2="879.4" y2="819.3"/>
				<g>
					<polygon class="st12" points="869.2,807.4 879.4,817.6 889.5,807.4 889.5,816 879.4,826.2 869.2,816 					"/>
				</g>
			</g>
		</g>
	</g>
</g>
<g>
	<g>
		<g>
			<path class="st6" d="M880.3,724.1"/>
		</g>
	</g>
</g>
<g>
	<rect x="58.4" y="921.7" class="st4" width="255.9" height="17"/>
	<path class="st13" d="M65.9,930.1v5.8H64v-5.8l-5.5-8.4h2.3l4.3,6.8l4.2-6.8h2.2L65.9,930.1z"/>
	<path class="st13" d="M81.5,932.7c-0.5,2.3-2.1,3.5-4.4,3.5c-3.3,0-4.9-2.3-5-5.4c0-3.1,2-5.4,4.9-5.4c3.7,0,4.8,3.4,4.7,5.9h-7.7
		c-0.1,1.8,1,3.4,3.2,3.4c1.4,0,2.4-0.7,2.7-2H81.5z M79.8,929.8c-0.1-1.6-1.3-2.9-3-2.9c-1.8,0-2.9,1.3-3,2.9H79.8z"/>
	<path class="st13" d="M84.4,932.7c0.1,1.5,1.4,2,2.8,2c1.1,0,2.5-0.2,2.5-1.5c0-2.7-6.8-0.9-6.8-4.8c0-2.1,2-2.9,3.9-2.9
		c2.3,0,4.1,0.7,4.2,3.2h-1.7c-0.1-1.3-1.3-1.7-2.4-1.7c-1,0-2.2,0.3-2.2,1.3c0,1.2,1.8,1.4,3.4,1.8c1.7,0.4,3.4,1,3.4,2.9
		c0,2.5-2.3,3.3-4.4,3.3c-2.3,0-4.3-0.9-4.4-3.5H84.4z"/>
</g>
<rect x="25.7" y="917.9" class="st10" width="23.8" height="23.8"/>
<g>
	<rect x="58.4" y="961.9" class="st4" width="185.9" height="17"/>
	<path class="st13" d="M59.9,961.9h2l7.5,11.6h0v-11.6h1.8v14.3h-2.1l-7.5-11.5h0v11.5h-1.8V961.9z"/>
	<path class="st13" d="M78.6,965.6c3.3,0,5,2.4,5,5.4c0,3-1.7,5.4-5,5.4s-5-2.4-5-5.4C73.6,968,75.3,965.6,78.6,965.6z M78.6,974.9
		c1.8,0,3.2-1.4,3.2-3.9s-1.4-3.9-3.2-3.9s-3.2,1.4-3.2,3.9S76.8,974.9,78.6,974.9z"/>
</g>
<rect x="25.7" y="958.1" class="st14" width="23.8" height="23.8"/>
<g>
	<polygon class="st8" points="547.4,834.8 547.4,490.5 547.4,317.9 423.7,194.2 78.7,194.2 78.7,322 78.7,490.5 78.7,834.8 	"/>
	<polygon class="st10" points="423.7,317.9 547.4,317.9 423.7,194.2 	"/>
	<polygon class="st15" points="547.4,317.9 423.7,317.9 547.4,441.6 	"/>
</g>
<g>
	<g>
		<path class="st5" d="M120.3,321.3h5.8v32.8h-5.8V321.3z"/>
		<path class="st5" d="M132.3,330.3h5v3.5l0.1,0.1c1.6-2.6,4.3-4.2,7.4-4.2c5.2,0,8.4,2.7,8.4,8.1v16.3H148v-15
			c-0.1-3.7-1.5-5.3-4.6-5.3c-3.5,0-5.8,2.8-5.8,6.3v14h-5.2V330.3z"/>
		<path class="st5" d="M158.9,330.3h5v3.2h0.1c1.5-2.8,4.3-3.9,7.4-3.9c7.5,0,11.1,5.7,11.1,12.7c0,6.4-3.3,12.4-10.3,12.4
			c-3,0-6.3-1.1-8-3.7h-0.1v11.9h-5.2V330.3z M170.6,333.8c-4.4,0-6.7,3.3-6.7,8.4c0,4.8,2.4,8.4,6.7,8.4c4.8,0,6.6-4.2,6.6-8.4
			C177.2,338,174.9,333.8,170.6,333.8z"/>
		<path class="st5" d="M207.7,354.1h-5.2v-3.3h-0.1c-1.3,2.4-4.1,4-6.8,4c-6.3,0-8.9-3.1-8.9-9.3v-15.1h5.2v14.6
			c0,4.2,1.7,5.7,4.6,5.7c4.4,0,5.8-2.8,5.8-6.5v-13.8h5.2V354.1z"/>
		<path class="st5" d="M210.8,330.3h4v-7.1h5.2v7.1h4.7v3.9H220v12.7c0,2.2,0.2,3.3,2.5,3.3c0.7,0,1.5,0,2.2-0.2v4
			c-1.1,0.1-2.3,0.3-3.4,0.3c-5.5,0-6.4-2.1-6.6-6.1v-14h-4V330.3z"/>
	</g>
</g>
<g>
	<g>
		<path class="st13" d="M122,428.1h12.1c4.9,0,7.8,2.6,7.8,6.7c0,3.1-1.3,5.7-4.5,6.5v0.1c3,0.6,3.6,2.8,3.9,5.3
			c0.2,2.5,0.1,5.4,1.5,7.1H139c-1-1-0.4-3.8-0.9-6.3c-0.4-2.5-1-4.6-4.3-4.6h-8.4v11H122V428.1z M132.5,440c3.2,0,5.9-0.8,5.9-4.6
			c0-2.6-1.4-4.4-4.6-4.4h-8.5v9H132.5z"/>
		<path class="st13" d="M162,447.9c-0.8,4.1-3.7,6.3-8,6.3c-5.9,0-8.7-4.1-8.9-9.8c0-5.6,3.7-9.7,8.7-9.7c6.6,0,8.6,6.2,8.4,10.7
			h-13.9c-0.1,3.2,1.7,6.1,5.8,6.1c2.6,0,4.3-1.2,4.8-3.6H162z M159.1,442.7c-0.2-2.9-2.3-5.3-5.4-5.3c-3.2,0-5.1,2.4-5.3,5.3H159.1
			z"/>
		<path class="st13" d="M182.1,461h-3.1v-9.6H179c-1,2.1-3.3,3-5.9,3c-5.7,0-8.6-4.5-8.6-9.8s2.8-9.7,8.5-9.7c1.9,0,4.7,0.7,6,2.9
			h0.1v-2.5h3.1V461z M173.5,451.6c4.1,0,5.7-3.6,5.7-7c0-3.6-1.7-7.1-5.9-7.1c-4.2,0-5.6,3.6-5.6,7.2
			C167.7,448.2,169.5,451.6,173.5,451.6z"/>
		<path class="st13" d="M202.2,453.8h-2.9v-3h-0.1c-1.3,2.3-3.3,3.4-6,3.4c-4.9,0-6.4-2.8-6.4-6.8v-12.2h3.1v12.6
			c0,2.3,1.4,3.7,3.8,3.7c3.7,0,5.5-2.5,5.5-5.8v-10.5h3.1V453.8z"/>
		<path class="st13" d="M222.7,447.9c-0.8,4.1-3.7,6.3-8,6.3c-5.9,0-8.7-4.1-8.9-9.8c0-5.6,3.7-9.7,8.7-9.7c6.6,0,8.6,6.2,8.4,10.7
			h-13.9c-0.1,3.2,1.7,6.1,5.8,6.1c2.6,0,4.3-1.2,4.8-3.6H222.7z M219.8,442.7c-0.2-2.9-2.3-5.3-5.4-5.3c-3.2,0-5.1,2.4-5.3,5.3
			H219.8z"/>
		<path class="st13" d="M228.1,448c0.1,2.7,2.5,3.6,5,3.6c1.9,0,4.5-0.4,4.5-2.8c0-4.8-12.2-1.5-12.2-8.7c0-3.7,3.7-5.3,6.9-5.3
			c4.2,0,7.3,1.3,7.6,5.8h-3.1c-0.2-2.4-2.3-3.1-4.3-3.1c-1.8,0-4,0.5-4,2.4c0,2.2,3.2,2.6,6.1,3.2c3.1,0.7,6.1,1.7,6.1,5.3
			c0,4.5-4.1,5.9-7.9,5.9c-4.2,0-7.7-1.7-7.9-6.3H228.1z"/>
		<path class="st13" d="M248.4,435.2h3.7v2.7h-3.7v11.6c0,1.4,0.4,1.7,2.3,1.7h1.4v2.7h-2.3c-3.2,0-4.4-0.6-4.4-4.1v-11.8h-3.2v-2.7
			h3.2v-5.6h3.1V435.2z"/>
		<path class="st13" d="M269.8,435.2h3.7v2.7h-3.7v11.6c0,1.4,0.4,1.7,2.3,1.7h1.4v2.7h-2.3c-3.2,0-4.4-0.6-4.4-4.1v-11.8h-3.2v-2.7
			h3.2v-5.6h3.1V435.2z"/>
		<path class="st13" d="M284.9,434.8c5.9,0,9,4.3,9,9.8c0,5.4-3.1,9.7-9,9.7s-9-4.3-9-9.7C275.9,439.1,279,434.8,284.9,434.8z
			 M284.9,451.6c3.2,0,5.8-2.5,5.8-7c0-4.5-2.6-7.1-5.8-7.1s-5.8,2.6-5.8,7.1C279.1,449,281.7,451.6,284.9,451.6z"/>
		<path class="st13" d="M310.8,431.9h-3.1v-3.7h3.1V431.9z M307.7,435.2h3.1v18.6h-3.1V435.2z"/>
		<path class="st13" d="M315.5,435.2h2.9v3h0.1c1.3-2.3,3.3-3.4,6-3.4c4.9,0,6.4,2.8,6.4,6.8v12.2h-3.1v-12.6c0-2.3-1.4-3.7-3.8-3.7
			c-3.7,0-5.5,2.5-5.5,5.8v10.5h-3.1V435.2z"/>
		<path class="st13" d="M337.4,448c0.1,2.7,2.5,3.6,5,3.6c1.9,0,4.5-0.4,4.5-2.8c0-4.8-12.2-1.5-12.2-8.7c0-3.7,3.7-5.3,6.9-5.3
			c4.2,0,7.3,1.3,7.6,5.8h-3.1c-0.2-2.4-2.3-3.1-4.3-3.1c-1.8,0-4,0.5-4,2.4c0,2.2,3.2,2.6,6.1,3.2c3.1,0.7,6.1,1.7,6.1,5.3
			c0,4.5-4.1,5.9-7.9,5.9c-4.2,0-7.7-1.7-7.9-6.3H337.4z"/>
		<path class="st13" d="M357.8,435.2h3.7v2.7h-3.7v11.6c0,1.4,0.4,1.7,2.3,1.7h1.4v2.7h-2.3c-3.2,0-4.4-0.6-4.4-4.1v-11.8h-3.2v-2.7
			h3.2v-5.6h3.1V435.2z"/>
		<path class="st13" d="M381.4,453.8c-0.5,0.3-1.3,0.5-2.2,0.5c-1.6,0-2.6-0.9-2.6-2.9c-1.7,2-4,2.9-6.6,2.9c-3.4,0-6.2-1.5-6.2-5.2
			c0-4.2,3.1-5.1,6.3-5.7c3.3-0.7,6.3-0.4,6.3-2.7c0-2.7-2.2-3.1-4.1-3.1c-2.6,0-4.5,0.8-4.6,3.5h-3.1c0.2-4.6,3.7-6.2,7.9-6.2
			c3.3,0,7,0.8,7,5.1v9.6c0,1.4,0,2.1,1,2.1c0.3,0,0.6-0.1,0.9-0.2V453.8z M376.4,444.2c-2.4,1.8-9.3,0-9.3,4.6c0,2,1.7,2.7,3.6,2.7
			c4,0,5.7-2.5,5.7-4.2V444.2z"/>
		<path class="st13" d="M384.4,428.1h3.1v25.7h-3.1V428.1z"/>
		<path class="st13" d="M392.4,428.1h3.1v25.7h-3.1V428.1z"/>
		<path class="st13" d="M426.7,453.8c-0.5,0.3-1.3,0.5-2.2,0.5c-1.6,0-2.6-0.9-2.6-2.9c-1.7,2-4,2.9-6.6,2.9c-3.4,0-6.2-1.5-6.2-5.2
			c0-4.2,3.1-5.1,6.3-5.7c3.3-0.7,6.3-0.4,6.3-2.7c0-2.7-2.2-3.1-4.1-3.1c-2.6,0-4.5,0.8-4.6,3.5h-3.1c0.2-4.6,3.7-6.2,7.9-6.2
			c3.3,0,7,0.8,7,5.1v9.6c0,1.4,0,2.1,1,2.1c0.3,0,0.6-0.1,0.9-0.2V453.8z M421.7,444.2c-2.4,1.8-9.3,0-9.3,4.6c0,2,1.7,2.7,3.6,2.7
			c4,0,5.7-2.5,5.7-4.2V444.2z"/>
		<path class="st13" d="M429.5,435.2h2.9v3h0.1c1.3-2.3,3.3-3.4,6-3.4c4.9,0,6.4,2.8,6.4,6.8v12.2h-3.1v-12.6c0-2.3-1.4-3.7-3.8-3.7
			c-3.7,0-5.5,2.5-5.5,5.8v10.5h-3.1V435.2z"/>
		<path class="st13" d="M129.5,478c5.9,0,9,4.3,9,9.8c0,5.4-3.1,9.7-9,9.7s-9-4.3-9-9.7C120.5,482.3,123.6,478,129.5,478z
			 M129.5,494.8c3.2,0,5.8-2.5,5.8-7c0-4.5-2.6-7.1-5.8-7.1s-5.8,2.6-5.8,7.1C123.7,492.2,126.3,494.8,129.5,494.8z"/>
		<path class="st13" d="M143.4,481.1h-3.1v-2.7h3.1v-2.8c0-3,1.8-4.6,5.1-4.6c0.6,0,1.4,0.1,2,0.3v2.7c-0.5-0.2-1.2-0.3-1.7-0.3
			c-1.5,0-2.3,0.5-2.3,2.1v2.6h3.6v2.7h-3.6V497h-3.1V481.1z"/>
		<path class="st13" d="M154.1,481.1h-3.1v-2.7h3.1v-2.8c0-3,1.8-4.6,5.1-4.6c0.6,0,1.4,0.1,2,0.3v2.7c-0.5-0.2-1.2-0.3-1.7-0.3
			c-1.5,0-2.3,0.5-2.3,2.1v2.6h3.6v2.7h-3.6V497h-3.1V481.1z"/>
		<path class="st13" d="M179.3,491.1c-0.8,4.1-3.7,6.3-8,6.3c-5.9,0-8.7-4.1-8.9-9.8c0-5.6,3.7-9.7,8.7-9.7c6.6,0,8.6,6.2,8.4,10.7
			h-13.9c-0.1,3.2,1.7,6.1,5.8,6.1c2.6,0,4.3-1.2,4.8-3.6H179.3z M176.4,485.9c-0.2-2.9-2.3-5.3-5.4-5.3c-3.2,0-5.1,2.4-5.3,5.3
			H176.4z"/>
		<path class="st13" d="M182.7,478.4h2.9v3.9h0.1c1.5-3,3.5-4.5,6.8-4.4v3.2c-4.9,0-6.7,2.8-6.7,7.5v8.3h-3.1V478.4z"/>
		<path class="st13" d="M198,475.1H195v-3.7h3.1V475.1z M195,478.4h3.1V497H195V478.4z"/>
		<path class="st13" d="M202.8,478.4h2.9v3h0.1c1.3-2.3,3.3-3.4,6-3.4c4.9,0,6.4,2.8,6.4,6.8V497h-3.1v-12.6c0-2.3-1.4-3.7-3.8-3.7
			c-3.7,0-5.5,2.5-5.5,5.8V497h-3.1V478.4z"/>
		<path class="st13" d="M238.9,495.4c0,6.1-2.7,9.1-8.6,9.1c-3.5,0-7.5-1.4-7.7-5.5h3.1c0.1,2.2,2.8,3,4.8,3c4,0,5.6-2.9,5.6-7.1
			v-1.2h-0.1c-1,2.3-3.4,3.4-5.8,3.4c-5.5,0-8.3-4.4-8.3-9.4c0-4.4,2.1-9.8,8.6-9.8c2.3,0,4.4,1,5.5,3.1h0v-2.7h2.9V495.4z
			 M235.8,487.3c0-3.3-1.4-6.7-5.3-6.7c-3.9,0-5.5,3.2-5.5,6.8c0,3.3,1.2,7.1,5.3,7.1C234.3,494.5,235.8,490.8,235.8,487.3z"/>
	</g>
</g>
<g>
	<polygon class="st8" points="1157.9,846.8 1157.9,502.5 1157.9,329.9 1034.2,206.2 689.2,206.2 689.2,334 689.2,502.5 689.2,846.8 
			"/>
	<polygon class="st10" points="1034.2,329.9 1157.9,329.9 1034.2,206.2 	"/>
	<polygon class="st15" points="1157.9,329.9 1034.2,329.9 1157.9,453.6 	"/>
</g>
<g>
	<g>
		<path class="st5" d="M739.5,333.3h6.1l12.7,32.8h-6.2l-3.1-8.7h-13.1l-3.1,8.7h-5.9L739.5,333.3z M737.5,353.1h10l-4.9-14.1h-0.1
			L737.5,353.1z"/>
		<path class="st5" d="M776.7,350.3c-0.4-2.9-2.5-4.5-5.4-4.5c-2.7,0-6.5,1.5-6.5,8.6c0,4,1.7,8.1,6.3,8.1c3.1,0,5.2-2,5.7-5.4h5.2
			c-1,6.2-4.8,9.6-10.9,9.6c-7.5,0-11.5-5.3-11.5-12.3c0-7.2,3.9-12.8,11.7-12.8c5.5,0,10.2,2.8,10.7,8.6H776.7z"/>
		<path class="st5" d="M783.9,342.3h4v-7.1h5.2v7.1h4.7v3.9h-4.7v12.7c0,2.2,0.2,3.3,2.5,3.3c0.7,0,1.5,0,2.2-0.2v4
			c-1.1,0.1-2.3,0.3-3.4,0.3c-5.5,0-6.4-2.1-6.6-6.1v-14h-4V342.3z"/>
		<path class="st5" d="M801.7,333.3h5.2v5h-5.2V333.3z M801.7,342.3h5.2v23.8h-5.2V342.3z"/>
		<path class="st5" d="M810.3,342.3h5.7l6,18.3h0.1l5.8-18.3h5.4l-8.5,23.8H819L810.3,342.3z"/>
		<path class="st5" d="M836.7,333.3h5.2v5h-5.2V333.3z M836.7,342.3h5.2v23.8h-5.2V342.3z"/>
		<path class="st5" d="M845.2,342.3h4v-7.1h5.2v7.1h4.7v3.9h-4.7v12.7c0,2.2,0.2,3.3,2.5,3.3c0.7,0,1.5,0,2.2-0.2v4
			c-1.1,0.1-2.3,0.3-3.4,0.3c-5.5,0-6.4-2.1-6.6-6.1v-14h-4V342.3z"/>
		<path class="st5" d="M860.3,342.3h5.8l6.2,17.8h0.1l6-17.8h5.5l-9.2,25.1c-1.7,4.3-2.9,8.1-8.4,8.1c-1.2,0-2.4-0.1-3.6-0.3v-4.4
			c0.9,0.1,1.6,0.3,2.5,0.3c2.4,0,3.1-1.3,3.7-3.3l0.6-1.8L860.3,342.3z"/>
	</g>
</g>
<g>
	<g>
		<path class="st13" d="M732.6,428.1h3.4v25.7h-3.4V428.1z"/>
		<path class="st13" d="M743.2,448c0.1,2.7,2.5,3.6,5,3.6c1.9,0,4.5-0.4,4.5-2.8c0-4.8-12.2-1.5-12.2-8.7c0-3.7,3.7-5.3,6.9-5.3
			c4.2,0,7.3,1.3,7.6,5.8H752c-0.2-2.4-2.3-3.1-4.3-3.1c-1.8,0-4,0.5-4,2.4c0,2.2,3.2,2.6,6.1,3.2c3.1,0.7,6.1,1.7,6.1,5.3
			c0,4.5-4.1,5.9-7.9,5.9c-4.2,0-7.7-1.7-7.9-6.3H743.2z"/>
		<path class="st13" d="M773.5,435.2h3.7v2.7h-3.7v11.6c0,1.4,0.4,1.7,2.3,1.7h1.4v2.7h-2.3c-3.2,0-4.4-0.6-4.4-4.1v-11.8h-3.2v-2.7
			h3.2v-5.6h3.1V435.2z"/>
		<path class="st13" d="M780.6,428.1h3.1v9.8h0.1c1-2.3,3.7-3.2,5.9-3.2c4.9,0,6.4,2.8,6.4,6.8v12.2H793v-12.6
			c0-2.3-1.4-3.7-3.8-3.7c-3.7,0-5.5,2.5-5.5,5.8v10.5h-3.1V428.1z"/>
		<path class="st13" d="M803.9,431.9h-3.1v-3.7h3.1V431.9z M800.8,435.2h3.1v18.6h-3.1V435.2z"/>
		<path class="st13" d="M810.5,448c0.1,2.7,2.5,3.6,5,3.6c1.9,0,4.5-0.4,4.5-2.8c0-4.8-12.2-1.5-12.2-8.7c0-3.7,3.7-5.3,6.9-5.3
			c4.2,0,7.3,1.3,7.6,5.8h-3.1c-0.2-2.4-2.3-3.1-4.3-3.1c-1.8,0-4,0.5-4,2.4c0,2.2,3.2,2.6,6.1,3.2c3.1,0.7,6.1,1.7,6.1,5.3
			c0,4.5-4.1,5.9-7.9,5.9c-4.2,0-7.7-1.7-7.9-6.3H810.5z"/>
		<path class="st13" d="M840.9,435.2h3.7v2.7h-3.7v11.6c0,1.4,0.4,1.7,2.3,1.7h1.4v2.7h-2.3c-3.2,0-4.4-0.6-4.4-4.1v-11.8h-3.2v-2.7
			h3.2v-5.6h3.1V435.2z"/>
		<path class="st13" d="M848,428.1h3.1v9.8h0.1c1-2.3,3.7-3.2,5.9-3.2c4.9,0,6.4,2.8,6.4,6.8v12.2h-3.1v-12.6c0-2.3-1.4-3.7-3.8-3.7
			c-3.7,0-5.5,2.5-5.5,5.8v10.5H848V428.1z"/>
		<path class="st13" d="M883.9,447.9c-0.8,4.1-3.7,6.3-8,6.3c-5.9,0-8.7-4.1-8.9-9.8c0-5.6,3.7-9.7,8.7-9.7c6.6,0,8.6,6.2,8.4,10.7
			h-13.9c-0.1,3.2,1.7,6.1,5.8,6.1c2.6,0,4.3-1.2,4.8-3.6H883.9z M880.9,442.7c-0.2-2.9-2.3-5.3-5.4-5.3c-3.2,0-5.1,2.4-5.3,5.3
			H880.9z"/>
		<path class="st13" d="M898.6,437.9h-3.1v-2.7h3.1v-2.8c0-3,1.8-4.6,5.1-4.6c0.6,0,1.4,0.1,2,0.3v2.7c-0.5-0.2-1.2-0.3-1.7-0.3
			c-1.5,0-2.3,0.5-2.3,2.1v2.6h3.6v2.7h-3.6v15.9h-3.1V437.9z M908.2,431.9v-3.7h3.1v3.7H908.2z M908.2,453.8v-18.6h3.1v18.6H908.2z
			"/>
		<path class="st13" d="M915.9,435.2h2.9v3.9h0.1c1.5-3,3.5-4.5,6.8-4.4v3.2c-4.9,0-6.7,2.8-6.7,7.5v8.3h-3.1V435.2z"/>
		<path class="st13" d="M929.9,448c0.1,2.7,2.5,3.6,5,3.6c1.9,0,4.5-0.4,4.5-2.8c0-4.8-12.2-1.5-12.2-8.7c0-3.7,3.7-5.3,6.9-5.3
			c4.2,0,7.3,1.3,7.6,5.8h-3.1c-0.2-2.4-2.3-3.1-4.3-3.1c-1.8,0-4,0.5-4,2.4c0,2.2,3.2,2.6,6.1,3.2c3.1,0.7,6.1,1.7,6.1,5.3
			c0,4.5-4.1,5.9-7.9,5.9c-4.2,0-7.7-1.7-7.9-6.3H929.9z"/>
		<path class="st13" d="M950.2,435.2h3.7v2.7h-3.7v11.6c0,1.4,0.4,1.7,2.3,1.7h1.4v2.7h-2.3c-3.2,0-4.4-0.6-4.4-4.1v-11.8H944v-2.7
			h3.2v-5.6h3.1V435.2z"/>
		<path class="st13" d="M980,441.2c-0.5-2.3-2.1-3.7-4.6-3.7c-4.4,0-5.8,3.5-5.8,7.3c0,3.5,1.5,6.8,5.4,6.8c3,0,4.7-1.7,5.1-4.5h3.1
			c-0.7,4.6-3.5,7.2-8.2,7.2c-5.7,0-8.7-3.9-8.7-9.5c0-5.6,2.9-10,8.8-10c4.2,0,7.6,2,8,6.4H980z"/>
		<path class="st13" d="M986.8,428.1h3.1v25.7h-3.1V428.1z"/>
		<path class="st13" d="M997.9,431.9h-3.1v-3.7h3.1V431.9z M994.8,435.2h3.1v18.6h-3.1V435.2z"/>
		<path class="st13" d="M1018.5,447.9c-0.8,4.1-3.7,6.3-8,6.3c-5.9,0-8.7-4.1-8.9-9.8c0-5.6,3.7-9.7,8.7-9.7c6.6,0,8.6,6.2,8.4,10.7
			h-13.9c-0.1,3.2,1.7,6.1,5.8,6.1c2.6,0,4.3-1.2,4.8-3.6H1018.5z M1015.6,442.7c-0.2-2.9-2.3-5.3-5.4-5.3c-3.2,0-5.1,2.4-5.3,5.3
			H1015.6z"/>
		<path class="st13" d="M1022,435.2h2.9v3h0.1c1.3-2.3,3.3-3.4,6-3.4c4.9,0,6.4,2.8,6.4,6.8v12.2h-3.1v-12.6c0-2.3-1.4-3.7-3.8-3.7
			c-3.7,0-5.5,2.5-5.5,5.8v10.5h-3.1V435.2z"/>
		<path class="st13" d="M1046.2,435.2h3.7v2.7h-3.7v11.6c0,1.4,0.4,1.7,2.3,1.7h1.4v2.7h-2.3c-3.2,0-4.4-0.6-4.4-4.1v-11.8h-3.2
			v-2.7h3.2v-5.6h3.1V435.2z"/>
		<path class="st13" d="M733.8,485.2c0.1,2.7,2.5,3.6,5,3.6c1.9,0,4.5-0.4,4.5-2.8c0-4.8-12.2-1.5-12.2-8.7c0-3.7,3.7-5.3,6.9-5.3
			c4.2,0,7.3,1.3,7.6,5.8h-3.1c-0.2-2.4-2.3-3.1-4.3-3.1c-1.8,0-4,0.5-4,2.4c0,2.2,3.2,2.6,6.1,3.2c3.1,0.7,6.1,1.7,6.1,5.3
			c0,4.5-4.1,5.9-7.9,5.9c-4.2,0-7.7-1.7-7.9-6.3H733.8z"/>
		<path class="st13" d="M750.1,472.4h3.1v2.5h0.1c1-2.1,3.3-3,5.9-3c5.7,0,8.6,4.5,8.6,9.8c0,5.3-2.8,9.7-8.5,9.7
			c-1.9,0-4.7-0.7-6-2.9h-0.1v9.6h-3.1V472.4z M758.7,474.7c-4.1,0-5.7,3.6-5.7,7c0,3.6,1.7,7.1,5.9,7.1c4.2,0,5.6-3.6,5.6-7.2
			C764.5,478.1,762.7,474.7,758.7,474.7z"/>
		<path class="st13" d="M787.2,485.1c-0.8,4.1-3.7,6.3-8,6.3c-5.9,0-8.7-4.1-8.9-9.8c0-5.6,3.7-9.7,8.7-9.7c6.6,0,8.6,6.2,8.4,10.7
			h-13.9c-0.1,3.2,1.7,6.1,5.8,6.1c2.6,0,4.3-1.2,4.8-3.6H787.2z M784.2,479.9c-0.2-2.9-2.3-5.3-5.4-5.3c-3.2,0-5.1,2.4-5.3,5.3
			H784.2z"/>
		<path class="st13" d="M803.3,478.4c-0.5-2.3-2.1-3.7-4.6-3.7c-4.4,0-5.8,3.5-5.8,7.3c0,3.5,1.5,6.8,5.4,6.8c3,0,4.7-1.7,5.1-4.5
			h3.1c-0.7,4.6-3.5,7.2-8.2,7.2c-5.7,0-8.7-3.9-8.7-9.5c0-5.6,2.9-10,8.8-10c4.2,0,7.6,2,8,6.4H803.3z"/>
		<path class="st13" d="M813.2,469.1h-3.1v-3.7h3.1V469.1z M810.2,472.4h3.1V491h-3.1V472.4z"/>
		<path class="st13" d="M819.2,475.1h-3.1v-2.7h3.1v-2.8c0-3,1.8-4.6,5.1-4.6c0.6,0,1.4,0.1,2,0.3v2.7c-0.5-0.2-1.2-0.3-1.7-0.3
			c-1.5,0-2.3,0.5-2.3,2.1v2.6h3.6v2.7h-3.6V491h-3.1V475.1z M828.8,469.1v-3.7h3.1v3.7H828.8z M828.8,491v-18.6h3.1V491H828.8z"/>
		<path class="st13" d="M849.3,478.4c-0.5-2.3-2.1-3.7-4.6-3.7c-4.4,0-5.8,3.5-5.8,7.3c0,3.5,1.5,6.8,5.4,6.8c3,0,4.7-1.7,5.1-4.5
			h3.1c-0.7,4.6-3.5,7.2-8.2,7.2c-5.7,0-8.7-3.9-8.7-9.5c0-5.6,2.9-10,8.8-10c4.2,0,7.6,2,8,6.4H849.3z"/>
		<path class="st13" d="M869.2,469.1h-3.1v-3.7h3.1V469.1z M866.1,472.4h3.1V491h-3.1V472.4z"/>
		<path class="st13" d="M873.9,472.4h2.9v3h0.1c1.3-2.3,3.3-3.4,6-3.4c4.9,0,6.4,2.8,6.4,6.8V491h-3.1v-12.6c0-2.3-1.4-3.7-3.8-3.7
			c-3.7,0-5.5,2.5-5.5,5.8V491h-3.1V472.4z"/>
		<path class="st13" d="M895.8,485.2c0.1,2.7,2.5,3.6,5,3.6c1.9,0,4.5-0.4,4.5-2.8c0-4.8-12.2-1.5-12.2-8.7c0-3.7,3.7-5.3,6.9-5.3
			c4.2,0,7.3,1.3,7.6,5.8h-3.1c-0.2-2.4-2.3-3.1-4.3-3.1c-1.8,0-4,0.5-4,2.4c0,2.2,3.2,2.6,6.1,3.2c3.1,0.7,6.1,1.7,6.1,5.3
			c0,4.5-4.1,5.9-7.9,5.9c-4.2,0-7.7-1.7-7.9-6.3H895.8z"/>
		<path class="st13" d="M916.2,472.4h3.7v2.7h-3.7v11.6c0,1.4,0.4,1.7,2.3,1.7h1.4v2.7h-2.3c-3.2,0-4.4-0.6-4.4-4.1v-11.8H910v-2.7
			h3.2v-5.6h3.1V472.4z"/>
		<path class="st13" d="M939.8,491c-0.5,0.3-1.3,0.5-2.2,0.5c-1.6,0-2.6-0.9-2.6-2.9c-1.7,2-4,2.9-6.6,2.9c-3.4,0-6.2-1.5-6.2-5.2
			c0-4.2,3.1-5.1,6.3-5.7c3.3-0.7,6.3-0.4,6.3-2.7c0-2.7-2.2-3.1-4.1-3.1c-2.6,0-4.5,0.8-4.6,3.5H923c0.2-4.6,3.7-6.2,7.9-6.2
			c3.3,0,7,0.8,7,5.1v9.6c0,1.4,0,2.1,1,2.1c0.3,0,0.6-0.1,0.9-0.2V491z M934.8,481.4c-2.4,1.8-9.3,0-9.3,4.6c0,2,1.7,2.7,3.6,2.7
			c4,0,5.7-2.5,5.7-4.2V481.4z"/>
		<path class="st13" d="M942.8,465.3h3.1V491h-3.1V465.3z"/>
		<path class="st13" d="M950.8,465.3h3.1V491h-3.1V465.3z"/>
		<path class="st13" d="M975.1,491c-0.5,0.3-1.3,0.5-2.2,0.5c-1.6,0-2.6-0.9-2.6-2.9c-1.7,2-4,2.9-6.6,2.9c-3.4,0-6.2-1.5-6.2-5.2
			c0-4.2,3.1-5.1,6.3-5.7c3.3-0.7,6.3-0.4,6.3-2.7c0-2.7-2.2-3.1-4.1-3.1c-2.6,0-4.5,0.8-4.6,3.5h-3.1c0.2-4.6,3.7-6.2,7.9-6.2
			c3.3,0,7,0.8,7,5.1v9.6c0,1.4,0,2.1,1,2.1c0.3,0,0.6-0.1,0.9-0.2V491z M970.1,481.4c-2.4,1.8-9.3,0-9.3,4.6c0,2,1.7,2.7,3.6,2.7
			c4,0,5.7-2.5,5.7-4.2V481.4z"/>
		<path class="st13" d="M982.2,472.4h3.7v2.7h-3.7v11.6c0,1.4,0.4,1.7,2.3,1.7h1.4v2.7h-2.3c-3.2,0-4.4-0.6-4.4-4.1v-11.8H976v-2.7
			h3.2v-5.6h3.1V472.4z"/>
		<path class="st13" d="M992.5,469.1h-3.1v-3.7h3.1V469.1z M989.5,472.4h3.1V491h-3.1V472.4z"/>
		<path class="st13" d="M1005.3,472c5.9,0,9,4.3,9,9.8c0,5.4-3.1,9.7-9,9.7s-9-4.3-9-9.7C996.3,476.3,999.4,472,1005.3,472z
			 M1005.3,488.8c3.2,0,5.8-2.5,5.8-7c0-4.5-2.6-7.1-5.8-7.1s-5.8,2.6-5.8,7.1C999.5,486.2,1002.1,488.8,1005.3,488.8z"/>
		<path class="st13" d="M1017.9,472.4h2.9v3h0.1c1.3-2.3,3.3-3.4,6-3.4c4.9,0,6.4,2.8,6.4,6.8V491h-3.1v-12.6c0-2.3-1.4-3.7-3.8-3.7
			c-3.7,0-5.5,2.5-5.5,5.8V491h-3.1V472.4z"/>
		<path class="st13" d="M1049.2,475.1h-3.1v-2.7h3.1v-2.8c0-3,1.8-4.6,5.1-4.6c0.6,0,1.4,0.1,2,0.3v2.7c-0.5-0.2-1.2-0.3-1.7-0.3
			c-1.5,0-2.3,0.5-2.3,2.1v2.6h3.6v2.7h-3.6V491h-3.1V475.1z"/>
		<path class="st13" d="M1066.7,472c5.9,0,9,4.3,9,9.8c0,5.4-3.1,9.7-9,9.7s-9-4.3-9-9.7C1057.6,476.3,1060.7,472,1066.7,472z
			 M1066.7,488.8c3.2,0,5.8-2.5,5.8-7c0-4.5-2.6-7.1-5.8-7.1s-5.8,2.6-5.8,7.1C1060.9,486.2,1063.4,488.8,1066.7,488.8z"/>
		<path class="st13" d="M1079.2,472.4h2.9v3.9h0.1c1.5-3,3.5-4.5,6.8-4.4v3.2c-4.9,0-6.7,2.8-6.7,7.5v8.3h-3.1V472.4z"/>
		<path class="st13" d="M736.2,509.6h3.7v2.7h-3.7v11.6c0,1.4,0.4,1.7,2.3,1.7h1.4v2.7h-2.3c-3.2,0-4.4-0.6-4.4-4.1v-11.8H730v-2.7
			h3.2V504h3.1V509.6z"/>
		<path class="st13" d="M743.3,502.5h3.1v9.8h0.1c1-2.3,3.7-3.2,5.9-3.2c4.9,0,6.4,2.8,6.4,6.8v12.2h-3.1v-12.6
			c0-2.3-1.4-3.7-3.8-3.7c-3.7,0-5.5,2.5-5.5,5.8v10.5h-3.1V502.5z"/>
		<path class="st13" d="M766.6,506.3h-3.1v-3.7h3.1V506.3z M763.5,509.6h3.1v18.6h-3.1V509.6z"/>
		<path class="st13" d="M773.2,522.4c0.1,2.7,2.5,3.6,5,3.6c1.9,0,4.5-0.4,4.5-2.8c0-4.8-12.2-1.5-12.2-8.7c0-3.7,3.7-5.3,6.9-5.3
			c4.2,0,7.3,1.3,7.6,5.8H782c-0.2-2.4-2.3-3.1-4.3-3.1c-1.8,0-4,0.5-4,2.4c0,2.2,3.2,2.6,6.1,3.2c3.1,0.7,6.1,1.7,6.1,5.3
			c0,4.5-4.1,5.9-7.9,5.9c-4.2,0-7.7-1.7-7.9-6.3H773.2z"/>
		<path class="st13" d="M810.7,501.9c8.2,0,12.3,6.4,12.3,13.5c0,7-4.1,13.5-12.3,13.5s-12.3-6.4-12.3-13.5
			C798.4,508.4,802.5,501.9,810.7,501.9z M810.7,526c6.3,0,8.9-5.4,8.9-10.6c0-5.2-2.6-10.6-8.9-10.6s-8.9,5.4-8.9,10.6
			C801.8,520.6,804.4,526,810.7,526z"/>
		<path class="st13" d="M827.9,512.3h-3.1v-2.7h3.1v-2.8c0-3,1.8-4.6,5.1-4.6c0.6,0,1.4,0.1,2,0.3v2.7c-0.5-0.2-1.2-0.3-1.7-0.3
			c-1.5,0-2.3,0.5-2.3,2.1v2.6h3.6v2.7H831v15.9h-3.1V512.3z"/>
		<path class="st13" d="M838.6,512.3h-3.1v-2.7h3.1v-2.8c0-3,1.8-4.6,5.1-4.6c0.6,0,1.4,0.1,2,0.3v2.7c-0.5-0.2-1.2-0.3-1.7-0.3
			c-1.5,0-2.3,0.5-2.3,2.1v2.6h3.6v2.7h-3.6v15.9h-3.1V512.3z"/>
		<path class="st13" d="M863.9,522.3c-0.8,4.1-3.7,6.3-8,6.3c-5.9,0-8.7-4.1-8.9-9.8c0-5.6,3.7-9.7,8.7-9.7c6.6,0,8.6,6.2,8.4,10.7
			h-13.9c-0.1,3.2,1.7,6.1,5.8,6.1c2.6,0,4.3-1.2,4.8-3.6H863.9z M860.9,517.1c-0.2-2.9-2.3-5.3-5.4-5.3c-3.2,0-5.1,2.4-5.3,5.3
			H860.9z"/>
		<path class="st13" d="M867.2,509.6h2.9v3.9h0.1c1.5-3,3.5-4.5,6.8-4.4v3.2c-4.9,0-6.7,2.8-6.7,7.5v8.3h-3.1V509.6z"/>
		<path class="st13" d="M882.6,506.3h-3.1v-3.7h3.1V506.3z M879.5,509.6h3.1v18.6h-3.1V509.6z"/>
		<path class="st13" d="M887.3,509.6h2.9v3h0.1c1.3-2.3,3.3-3.4,6-3.4c4.9,0,6.4,2.8,6.4,6.8v12.2h-3.1v-12.6c0-2.3-1.4-3.7-3.8-3.7
			c-3.7,0-5.5,2.5-5.5,5.8v10.5h-3.1V509.6z"/>
		<path class="st13" d="M923.4,526.6c0,6.1-2.7,9.1-8.6,9.1c-3.5,0-7.5-1.4-7.7-5.5h3.1c0.1,2.2,2.8,3,4.8,3c4,0,5.6-2.9,5.6-7.1
			v-1.2h-0.1c-1,2.3-3.4,3.4-5.8,3.4c-5.5,0-8.3-4.4-8.3-9.4c0-4.4,2.1-9.8,8.6-9.8c2.3,0,4.4,1,5.5,3.1h0v-2.7h2.9V526.6z
			 M920.4,518.5c0-3.3-1.4-6.7-5.3-6.7c-3.9,0-5.5,3.2-5.5,6.8c0,3.3,1.2,7.1,5.3,7.1C918.8,525.7,920.4,522,920.4,518.5z"/>
		<path class="st13" d="M927.7,510.6c-0.1-4.9,3.1-8.6,8.1-8.6c4.5,0,7.6,2.6,7.6,7.2c0,3-1.5,4.6-3.1,6.1c-1.5,1.4-3.1,2.9-3.1,5.3
			v1.4H934v-1.7c0.3-6,6.3-6.2,6-11.4c-0.2-2.6-1.8-4.2-4.4-4.2c-3.5,0-5,2.6-5,5.9H927.7z M933.5,524.2h4v4h-4V524.2z"/>
	</g>
</g>
<g>
	<polygon class="st8" points="1943.8,457.1 1943.8,412.5 1943.8,239.9 1820.2,116.2 1431.6,116.2 1431.6,412.5 1431.6,457.1 	"/>
	<polygon class="st10" points="1820.2,239.9 1943.8,239.9 1820.2,116.2 	"/>
	<polygon class="st15" points="1943.8,239.9 1820.2,239.9 1943.8,363.6 	"/>
</g>
<g>
	<g>
		<path class="st5" d="M1498.4,178.7c0,9.4-5.9,17.2-15.7,17.2s-15.7-7.8-15.7-17.2c0-9.3,5.9-17.2,15.7-17.2
			S1498.4,169.4,1498.4,178.7z M1472.7,178.7c0,6.3,2.9,12.5,10,12.5s10-6.2,10-12.5s-2.9-12.5-10-12.5S1472.7,172.4,1472.7,178.7z"
			/>
		<path class="st5" d="M1523.8,195.1h-5.2v-3.3h-0.1c-1.3,2.4-4.1,4-6.8,4c-6.3,0-8.9-3.1-8.9-9.3v-15.1h5.2v14.6
			c0,4.2,1.7,5.7,4.6,5.7c4.4,0,5.8-2.8,5.8-6.5v-13.8h5.2V195.1z"/>
		<path class="st5" d="M1526.9,171.3h4v-7.1h5.2v7.1h4.7v3.9h-4.7V188c0,2.2,0.2,3.3,2.5,3.3c0.7,0,1.5,0,2.2-0.2v4
			c-1.2,0.1-2.3,0.3-3.4,0.3c-5.5,0-6.4-2.1-6.6-6.1v-14h-4V171.3z"/>
		<path class="st5" d="M1544.8,171.3h5v3.2h0.1c1.5-2.8,4.3-3.9,7.4-3.9c7.5,0,11.1,5.7,11.1,12.7c0,6.4-3.3,12.4-10.3,12.4
			c-3,0-6.3-1.1-8-3.7h-0.1v11.9h-5.2V171.3z M1556.5,174.8c-4.4,0-6.7,3.3-6.7,8.4c0,4.8,2.4,8.4,6.7,8.4c4.8,0,6.6-4.2,6.6-8.4
			C1563.1,179,1560.8,174.8,1556.5,174.8z"/>
		<path class="st5" d="M1593.6,195.1h-5.2v-3.3h-0.1c-1.3,2.4-4.1,4-6.8,4c-6.3,0-8.9-3.1-8.9-9.3v-15.1h5.2v14.6
			c0,4.2,1.7,5.7,4.6,5.7c4.4,0,5.8-2.8,5.8-6.5v-13.8h5.2V195.1z"/>
		<path class="st5" d="M1596.8,171.3h4v-7.1h5.2v7.1h4.7v3.9h-4.7V188c0,2.2,0.2,3.3,2.5,3.3c0.7,0,1.5,0,2.2-0.2v4
			c-1.2,0.1-2.3,0.3-3.4,0.3c-5.5,0-6.4-2.1-6.6-6.1v-14h-4V171.3z"/>
	</g>
</g>
<g>
	<g>
		<path class="st13" d="M1491,296c0,6.5-3.7,9.9-10.1,9.9c-6.6,0-10.5-3.1-10.5-9.9v-16.4h3.4V296c0,4.6,2.6,7,7.1,7
			c4.4,0,6.7-2.4,6.7-7v-16.4h3.4V296z"/>
		<path class="st13" d="M1497.8,299.5c0.1,2.7,2.5,3.6,5,3.6c1.9,0,4.5-0.4,4.5-2.8c0-4.8-12.2-1.5-12.2-8.7c0-3.7,3.7-5.3,6.9-5.3
			c4.2,0,7.3,1.3,7.6,5.8h-3.1c-0.2-2.4-2.3-3.1-4.3-3.1c-1.8,0-4,0.5-4,2.4c0,2.2,3.2,2.6,6.1,3.2c3.1,0.7,6.1,1.7,6.1,5.3
			c0,4.5-4.1,5.9-7.9,5.9c-4.2,0-7.7-1.7-7.9-6.3H1497.8z"/>
		<path class="st13" d="M1529.8,299.4c-0.8,4.1-3.7,6.3-8,6.3c-5.9,0-8.7-4.1-8.9-9.8c0-5.6,3.7-9.7,8.7-9.7c6.6,0,8.6,6.2,8.4,10.7
			h-13.9c-0.1,3.2,1.7,6.1,5.8,6.1c2.6,0,4.3-1.2,4.8-3.6H1529.8z M1526.8,294.2c-0.2-2.9-2.3-5.3-5.4-5.3c-3.2,0-5.1,2.4-5.3,5.3
			H1526.8z"/>
		<path class="st13" d="M1555.9,292.7c-0.5-2.3-2.1-3.7-4.6-3.7c-4.4,0-5.8,3.5-5.8,7.3c0,3.5,1.5,6.8,5.4,6.8c3,0,4.7-1.7,5.1-4.5
			h3.1c-0.7,4.6-3.5,7.2-8.2,7.2c-5.7,0-8.7-3.9-8.7-9.5c0-5.6,2.9-10,8.8-10c4.2,0,7.6,2,8,6.4H1555.9z"/>
		<path class="st13" d="M1578,305.3h-2.9v-3h-0.1c-1.3,2.3-3.3,3.4-6,3.4c-4.9,0-6.4-2.8-6.4-6.8v-12.2h3.1v12.6
			c0,2.3,1.4,3.7,3.8,3.7c3.7,0,5.5-2.5,5.5-5.8v-10.5h3.1V305.3z"/>
		<path class="st13" d="M1582.5,286.7h2.9v3.9h0.1c1.5-3,3.5-4.5,6.8-4.4v3.2c-4.9,0-6.7,2.8-6.7,7.5v8.3h-3.1V286.7z"/>
		<path class="st13" d="M1594.5,286.7h2.9v3.9h0.1c1.5-3,3.5-4.5,6.8-4.4v3.2c-4.9,0-6.7,2.8-6.7,7.5v8.3h-3.1V286.7z"/>
		<path class="st13" d="M1622.5,299.4c-0.8,4.1-3.7,6.3-8,6.3c-5.9,0-8.7-4.1-8.9-9.8c0-5.6,3.7-9.7,8.7-9.7c6.6,0,8.6,6.2,8.4,10.7
			h-13.9c-0.1,3.2,1.7,6.1,5.8,6.1c2.6,0,4.3-1.2,4.8-3.6H1622.5z M1619.5,294.2c-0.2-2.9-2.3-5.3-5.4-5.3c-3.2,0-5.1,2.4-5.3,5.3
			H1619.5z"/>
		<path class="st13" d="M1625.9,286.7h2.9v3h0.1c1.3-2.3,3.3-3.4,6-3.4c4.9,0,6.4,2.8,6.4,6.8v12.2h-3.1v-12.6
			c0-2.3-1.4-3.7-3.8-3.7c-3.7,0-5.5,2.5-5.5,5.8v10.5h-3.1V286.7z"/>
		<path class="st13" d="M1650.2,286.7h3.7v2.7h-3.7V301c0,1.4,0.4,1.7,2.3,1.7h1.4v2.7h-2.3c-3.2,0-4.4-0.6-4.4-4.1v-11.8h-3.2v-2.7
			h3.2v-5.6h3.1V286.7z"/>
		<path class="st13" d="M1675.7,305.3h-3.3l-6.9-18.6h3.4l5.2,15.5h0.1l5.1-15.5h3.2L1675.7,305.3z"/>
		<path class="st13" d="M1701.2,299.4c-0.8,4.1-3.7,6.3-8,6.3c-5.9,0-8.7-4.1-8.9-9.8c0-5.6,3.7-9.7,8.7-9.7c6.6,0,8.6,6.2,8.4,10.7
			h-13.9c-0.1,3.2,1.7,6.1,5.8,6.1c2.6,0,4.3-1.2,4.8-3.6H1701.2z M1698.2,294.2c-0.2-2.9-2.3-5.3-5.4-5.3c-3.2,0-5.1,2.4-5.3,5.3
			H1698.2z"/>
		<path class="st13" d="M1704.5,286.7h2.9v3.9h0.1c1.5-3,3.5-4.5,6.8-4.4v3.2c-4.9,0-6.7,2.8-6.7,7.5v8.3h-3.1V286.7z"/>
		<path class="st13" d="M1718.5,299.5c0.1,2.7,2.5,3.6,5,3.6c1.9,0,4.5-0.4,4.5-2.8c0-4.8-12.2-1.5-12.2-8.7c0-3.7,3.7-5.3,6.9-5.3
			c4.2,0,7.3,1.3,7.6,5.8h-3.1c-0.2-2.4-2.3-3.1-4.3-3.1c-1.8,0-4,0.5-4,2.4c0,2.2,3.2,2.6,6.1,3.2c3.1,0.7,6.1,1.7,6.1,5.3
			c0,4.5-4.1,5.9-7.9,5.9c-4.2,0-7.7-1.7-7.9-6.3H1718.5z"/>
		<path class="st13" d="M1737.8,283.4h-3.1v-3.7h3.1V283.4z M1734.8,286.7h3.1v18.6h-3.1V286.7z"/>
		<path class="st13" d="M1750.6,286.3c5.9,0,9,4.3,9,9.8c0,5.4-3.1,9.7-9,9.7c-5.9,0-9-4.3-9-9.7
			C1741.6,290.6,1744.7,286.3,1750.6,286.3z M1750.6,303.1c3.2,0,5.8-2.5,5.8-7c0-4.5-2.6-7.1-5.8-7.1c-3.2,0-5.8,2.6-5.8,7.1
			C1744.8,300.5,1747.4,303.1,1750.6,303.1z"/>
		<path class="st13" d="M1763.3,286.7h2.9v3h0.1c1.3-2.3,3.3-3.4,6-3.4c4.9,0,6.4,2.8,6.4,6.8v12.2h-3.1v-12.6
			c0-2.3-1.4-3.7-3.8-3.7c-3.7,0-5.5,2.5-5.5,5.8v10.5h-3.1V286.7z"/>
		<path class="st13" d="M1801.3,286.3c5.9,0,9,4.3,9,9.8c0,5.4-3.1,9.7-9,9.7c-5.9,0-9-4.3-9-9.7
			C1792.3,290.6,1795.4,286.3,1801.3,286.3z M1801.3,303.1c3.2,0,5.8-2.5,5.8-7c0-4.5-2.6-7.1-5.8-7.1c-3.2,0-5.8,2.6-5.8,7.1
			C1795.5,300.5,1798.1,303.1,1801.3,303.1z"/>
		<path class="st13" d="M1815.2,289.4h-3.1v-2.7h3.1V284c0-3,1.8-4.6,5.1-4.6c0.6,0,1.4,0.1,2,0.3v2.7c-0.5-0.2-1.2-0.3-1.7-0.3
			c-1.5,0-2.3,0.5-2.3,2.1v2.6h3.6v2.7h-3.6v15.9h-3.1V289.4z"/>
		<path class="st13" d="M1470.4,322.8h8.8c7.9,0,12.3,4,12.3,12.2c0,8.6-3.8,13.5-12.3,13.5h-8.8V322.8z M1473.9,345.7h5.7
			c2.3,0,8.6-0.6,8.6-10.1c0-6.1-2.3-9.8-8.6-9.8h-5.8V345.7z"/>
		<path class="st13" d="M1495.8,322.8h3.4v11.1h13.5v-11.1h3.4v25.7h-3.4v-11.8h-13.5v11.8h-3.4V322.8z"/>
		<path class="st13" d="M1521.8,322.8h12.1c4.9,0,7.8,2.6,7.8,6.7c0,3.1-1.3,5.7-4.5,6.5v0.1c3,0.6,3.6,2.8,3.9,5.3
			c0.2,2.5,0.1,5.4,1.5,7.1h-3.8c-1-1-0.4-3.8-0.9-6.3c-0.4-2.5-1-4.6-4.3-4.6h-8.4v11h-3.4V322.8z M1532.3,334.7
			c3.2,0,5.9-0.8,5.9-4.6c0-2.6-1.4-4.4-4.6-4.4h-8.5v9H1532.3z"/>
		<path class="st13" d="M1557.2,332.6h-3.1v-2.7h3.1v-2.8c0-3,1.8-4.6,5.1-4.6c0.6,0,1.4,0.1,2,0.3v2.7c-0.5-0.2-1.2-0.3-1.7-0.3
			c-1.5,0-2.3,0.5-2.3,2.1v2.6h3.6v2.7h-3.6v15.9h-3.1V332.6z"/>
		<path class="st13" d="M1574.6,329.5c5.9,0,9,4.3,9,9.8c0,5.4-3.1,9.7-9,9.7s-9-4.3-9-9.7C1565.6,333.8,1568.7,329.5,1574.6,329.5z
			 M1574.6,346.3c3.2,0,5.8-2.5,5.8-7c0-4.5-2.6-7.1-5.8-7.1s-5.8,2.6-5.8,7.1C1568.8,343.7,1571.4,346.3,1574.6,346.3z"/>
		<path class="st13" d="M1587.1,329.9h2.9v3.9h0.1c1.5-3,3.5-4.5,6.8-4.4v3.2c-4.9,0-6.7,2.8-6.7,7.5v8.3h-3.1V329.9z"/>
		<path class="st13" d="M1613.5,329.9h3.7v2.7h-3.7v11.6c0,1.4,0.4,1.7,2.3,1.7h1.4v2.7h-2.3c-3.2,0-4.4-0.6-4.4-4.1v-11.8h-3.2
			v-2.7h3.2v-5.6h3.1V329.9z"/>
		<path class="st13" d="M1620.6,322.8h3.1v9.8h0.1c1-2.3,3.7-3.2,5.9-3.2c4.9,0,6.4,2.8,6.4,6.8v12.2h-3.1v-12.6
			c0-2.3-1.4-3.7-3.8-3.7c-3.7,0-5.5,2.5-5.5,5.8v10.5h-3.1V322.8z"/>
		<path class="st13" d="M1643.8,326.6h-3.1v-3.7h3.1V326.6z M1640.8,329.9h3.1v18.6h-3.1V329.9z"/>
		<path class="st13" d="M1650.5,342.7c0.1,2.7,2.5,3.6,5,3.6c1.9,0,4.5-0.4,4.5-2.8c0-4.8-12.2-1.5-12.2-8.7c0-3.7,3.7-5.3,6.9-5.3
			c4.2,0,7.3,1.3,7.6,5.8h-3.1c-0.2-2.4-2.3-3.1-4.3-3.1c-1.8,0-4,0.5-4,2.4c0,2.2,3.2,2.6,6.1,3.2c3.1,0.7,6.1,1.7,6.1,5.3
			c0,4.5-4.1,5.9-7.9,5.9c-4.2,0-7.7-1.7-7.9-6.3H1650.5z"/>
		<path class="st13" d="M1688,322.2c8.2,0,12.3,6.4,12.3,13.5c0,7-4.1,13.5-12.3,13.5c-8.2,0-12.3-6.4-12.3-13.5
			C1675.7,328.7,1679.8,322.2,1688,322.2z M1688,346.3c6.3,0,8.9-5.4,8.9-10.6c0-5.2-2.6-10.6-8.9-10.6c-6.3,0-8.9,5.4-8.9,10.6
			C1679.1,340.9,1681.7,346.3,1688,346.3z"/>
		<path class="st13" d="M1705.2,332.6h-3.1v-2.7h3.1v-2.8c0-3,1.8-4.6,5.1-4.6c0.6,0,1.4,0.1,2,0.3v2.7c-0.5-0.2-1.2-0.3-1.7-0.3
			c-1.5,0-2.3,0.5-2.3,2.1v2.6h3.6v2.7h-3.6v15.9h-3.1V332.6z"/>
		<path class="st13" d="M1715.9,332.6h-3.1v-2.7h3.1v-2.8c0-3,1.8-4.6,5.1-4.6c0.6,0,1.4,0.1,2,0.3v2.7c-0.5-0.2-1.2-0.3-1.7-0.3
			c-1.5,0-2.3,0.5-2.3,2.1v2.6h3.6v2.7h-3.6v15.9h-3.1V332.6z"/>
		<path class="st13" d="M1741.1,342.6c-0.8,4.1-3.7,6.3-8,6.3c-5.9,0-8.7-4.1-8.9-9.8c0-5.6,3.7-9.7,8.7-9.7c6.6,0,8.6,6.2,8.4,10.7
			h-13.9c-0.1,3.2,1.7,6.1,5.8,6.1c2.6,0,4.3-1.2,4.8-3.6H1741.1z M1738.2,337.4c-0.2-2.9-2.3-5.3-5.4-5.3c-3.2,0-5.1,2.4-5.3,5.3
			H1738.2z"/>
		<path class="st13" d="M1744.5,329.9h2.9v3.9h0.1c1.5-3,3.5-4.5,6.8-4.4v3.2c-4.9,0-6.7,2.8-6.7,7.5v8.3h-3.1V329.9z"/>
		<path class="st13" d="M1759.8,326.6h-3.1v-3.7h3.1V326.6z M1756.8,329.9h3.1v18.6h-3.1V329.9z"/>
		<path class="st13" d="M1764.6,329.9h2.9v3h0.1c1.3-2.3,3.3-3.4,6-3.4c4.9,0,6.4,2.8,6.4,6.8v12.2h-3.1v-12.6
			c0-2.3-1.4-3.7-3.8-3.7c-3.7,0-5.5,2.5-5.5,5.8v10.5h-3.1V329.9z"/>
		<path class="st13" d="M1800.7,346.9c0,6.1-2.7,9.1-8.6,9.1c-3.5,0-7.5-1.4-7.7-5.5h3.1c0.1,2.2,2.8,3,4.8,3c4,0,5.6-2.9,5.6-7.1
			v-1.2h-0.1c-1,2.3-3.4,3.4-5.8,3.4c-5.5,0-8.3-4.4-8.3-9.4c0-4.4,2.1-9.8,8.6-9.8c2.3,0,4.4,1,5.5,3.1h0v-2.7h2.9V346.9z
			 M1797.6,338.9c0-3.3-1.4-6.7-5.3-6.7c-3.9,0-5.5,3.2-5.5,6.8c0,3.3,1.2,7.1,5.3,7.1S1797.6,342.3,1797.6,338.9z"/>
		<path class="st13" d="M1470,366h3.1v9.6h0.1c1-2.1,3.3-3,5.9-3c5.7,0,8.6,4.5,8.6,9.8c0,5.3-2.8,9.7-8.5,9.7c-1.9,0-4.7-0.7-6-2.9
			h-0.1v2.5h-3.1V366z M1478.7,375.4c-4.1,0-5.7,3.6-5.7,7c0,3.6,1.7,7.1,5.9,7.1c4.2,0,5.6-3.6,5.6-7.2
			C1484.4,378.8,1482.6,375.4,1478.7,375.4z"/>
		<path class="st13" d="M1506.7,391.7h-2.9v-3h-0.1c-1.3,2.3-3.3,3.4-6,3.4c-4.9,0-6.4-2.8-6.4-6.8v-12.2h3.1v12.6
			c0,2.3,1.4,3.7,3.8,3.7c3.7,0,5.5-2.5,5.5-5.8v-10.5h3.1V391.7z"/>
		<path class="st13" d="M1514.5,369.8h-3.1V366h3.1V369.8z M1511.5,373.1h3.1v18.6h-3.1V373.1z"/>
		<path class="st13" d="M1519.5,366h3.1v25.7h-3.1V366z"/>
		<path class="st13" d="M1543.9,391.7h-3.1v-2.5h-0.1c-1,2.1-3.3,3-5.9,3c-5.7,0-8.6-4.5-8.6-9.8s2.8-9.7,8.5-9.7
			c1.9,0,4.7,0.7,6,2.9h0.1V366h3.1V391.7z M1535.3,389.5c4.1,0,5.7-3.6,5.7-7c0-3.6-1.7-7.1-5.9-7.1c-4.2,0-5.6,3.6-5.6,7.2
			C1529.5,386.1,1531.3,389.5,1535.3,389.5z"/>
	</g>
</g>
<g>
	<g>
		<polygon class="st8" points="1943.8,958.1 1943.8,913.5 1943.8,740.9 1820.2,617.2 1431.6,617.2 1431.6,913.5 1431.6,958.1 		"/>
		<polygon class="st10" points="1820.2,740.9 1943.8,740.9 1820.2,617.2 		"/>
		<polygon class="st15" points="1943.8,740.9 1820.2,740.9 1943.8,864.6 		"/>
	</g>
	<g>
		<g>
			<path class="st5" d="M1498.4,679.7c0,9.4-5.9,17.2-15.7,17.2s-15.7-7.8-15.7-17.2c0-9.3,5.9-17.2,15.7-17.2
				S1498.4,670.3,1498.4,679.7z M1472.7,679.7c0,6.3,2.9,12.5,10,12.5s10-6.2,10-12.5s-2.9-12.5-10-12.5S1472.7,673.4,1472.7,679.7z
				"/>
			<path class="st5" d="M1523.8,696.1h-5.2v-3.3h-0.1c-1.3,2.4-4.1,4-6.8,4c-6.3,0-8.9-3.1-8.9-9.3v-15.1h5.2v14.6
				c0,4.2,1.7,5.7,4.6,5.7c4.4,0,5.8-2.8,5.8-6.5v-13.8h5.2V696.1z"/>
			<path class="st5" d="M1526.9,672.3h4v-7.1h5.2v7.1h4.7v3.9h-4.7v12.7c0,2.2,0.2,3.3,2.5,3.3c0.7,0,1.5,0,2.2-0.2v4
				c-1.2,0.1-2.3,0.3-3.4,0.3c-5.5,0-6.4-2.1-6.6-6.1v-14h-4V672.3z"/>
			<path class="st5" d="M1544.8,672.3h5v3.2h0.1c1.5-2.8,4.3-3.9,7.4-3.9c7.5,0,11.1,5.7,11.1,12.7c0,6.4-3.3,12.4-10.3,12.4
				c-3,0-6.3-1.1-8-3.7h-0.1v11.9h-5.2V672.3z M1556.5,675.8c-4.4,0-6.7,3.3-6.7,8.4c0,4.8,2.4,8.4,6.7,8.4c4.8,0,6.6-4.2,6.6-8.4
				C1563.1,680,1560.8,675.8,1556.5,675.8z"/>
			<path class="st5" d="M1593.6,696.1h-5.2v-3.3h-0.1c-1.3,2.4-4.1,4-6.8,4c-6.3,0-8.9-3.1-8.9-9.3v-15.1h5.2v14.6
				c0,4.2,1.7,5.7,4.6,5.7c4.4,0,5.8-2.8,5.8-6.5v-13.8h5.2V696.1z"/>
			<path class="st5" d="M1596.8,672.3h4v-7.1h5.2v7.1h4.7v3.9h-4.7v12.7c0,2.2,0.2,3.3,2.5,3.3c0.7,0,1.5,0,2.2-0.2v4
				c-1.2,0.1-2.3,0.3-3.4,0.3c-5.5,0-6.4-2.1-6.6-6.1v-14h-4V672.3z"/>
		</g>
	</g>
	<g>
		<g>
			<path class="st13" d="M1488.5,788.3c-0.8-3.6-3.6-5.5-7.2-5.5c-6.1,0-8.7,5-8.7,10.4c0,5.9,2.6,10.8,8.7,10.8
				c4.5,0,7.1-3.2,7.4-7.4h3.4c-0.7,6.4-4.6,10.3-11.1,10.3c-8,0-11.9-5.9-11.9-13.4c0-7.5,4.2-13.5,12.2-13.5
				c5.4,0,9.8,2.9,10.6,8.3H1488.5z"/>
			<path class="st13" d="M1495.8,787.7h2.9v3.9h0.1c1.5-3,3.5-4.5,6.8-4.4v3.2c-4.9,0-6.7,2.8-6.7,7.5v8.3h-3.1V787.7z"/>
			<path class="st13" d="M1523.8,800.4c-0.8,4.1-3.7,6.3-8,6.3c-5.9,0-8.7-4.1-8.9-9.8c0-5.6,3.7-9.7,8.7-9.7
				c6.6,0,8.6,6.2,8.4,10.7h-13.9c-0.1,3.2,1.7,6.1,5.8,6.1c2.6,0,4.3-1.2,4.8-3.6H1523.8z M1520.8,795.2c-0.2-2.9-2.3-5.3-5.4-5.3
				c-3.2,0-5.1,2.4-5.3,5.3H1520.8z"/>
			<path class="st13" d="M1543.7,806.2c-0.5,0.3-1.3,0.5-2.2,0.5c-1.6,0-2.6-0.9-2.6-2.9c-1.7,2-4,2.9-6.6,2.9
				c-3.4,0-6.2-1.5-6.2-5.2c0-4.2,3.1-5.1,6.3-5.7c3.3-0.7,6.3-0.4,6.3-2.7c0-2.7-2.2-3.1-4.1-3.1c-2.6,0-4.5,0.8-4.6,3.5h-3.1
				c0.2-4.6,3.7-6.2,7.9-6.2c3.3,0,7,0.8,7,5.1v9.6c0,1.4,0,2.1,1,2.1c0.3,0,0.6-0.1,0.9-0.2V806.2z M1538.8,796.7
				c-2.4,1.8-9.3,0-9.3,4.6c0,2,1.7,2.7,3.6,2.7c4,0,5.7-2.5,5.7-4.2V796.7z"/>
			<path class="st13" d="M1550.8,787.7h3.7v2.7h-3.7V802c0,1.4,0.4,1.7,2.3,1.7h1.4v2.7h-2.3c-3.2,0-4.4-0.6-4.4-4.1v-11.8h-3.2
				v-2.7h3.2v-5.6h3.1V787.7z"/>
			<path class="st13" d="M1573.8,800.4c-0.8,4.1-3.7,6.3-8,6.3c-5.9,0-8.7-4.1-8.9-9.8c0-5.6,3.7-9.7,8.7-9.7
				c6.6,0,8.6,6.2,8.4,10.7h-13.9c-0.1,3.2,1.7,6.1,5.8,6.1c2.6,0,4.3-1.2,4.8-3.6H1573.8z M1570.8,795.2c-0.2-2.9-2.3-5.3-5.4-5.3
				c-3.2,0-5.1,2.4-5.3,5.3H1570.8z"/>
			<path class="st13" d="M1587.2,787.7h2.9v3h0.1c1.3-2.3,3.3-3.4,6-3.4c4.9,0,6.4,2.8,6.4,6.8v12.2h-3.1v-12.6
				c0-2.3-1.4-3.7-3.8-3.7c-3.7,0-5.5,2.5-5.5,5.8v10.5h-3.1V787.7z"/>
			<path class="st13" d="M1623.1,800.4c-0.8,4.1-3.7,6.3-8,6.3c-5.9,0-8.7-4.1-8.9-9.8c0-5.6,3.7-9.7,8.7-9.7
				c6.6,0,8.6,6.2,8.4,10.7h-13.9c-0.1,3.2,1.7,6.1,5.8,6.1c2.6,0,4.3-1.2,4.8-3.6H1623.1z M1620.2,795.2c-0.2-2.9-2.3-5.3-5.4-5.3
				c-3.2,0-5.1,2.4-5.3,5.3H1620.2z"/>
			<path class="st13" d="M1645,806.3h-3.2l-3.8-14.8h-0.1l-3.7,14.8h-3.3l-6-18.6h3.4l4.2,15.2h0.1l3.7-15.2h3.3l3.9,15.2h0.1
				l4.2-15.2h3.2L1645,806.3z"/>
			<path class="st13" d="M1664.4,780.6h8.8c7.9,0,12.3,4,12.3,12.2c0,8.6-3.8,13.5-12.3,13.5h-8.8V780.6z M1667.8,803.4h5.7
				c2.3,0,8.6-0.6,8.6-10.1c0-6.1-2.3-9.8-8.6-9.8h-5.8V803.4z"/>
			<path class="st13" d="M1689.8,780.6h4.7l8.1,21.6l8.1-21.6h4.7v25.7h-3.2v-21.4h-0.1l-8,21.4h-2.9l-8-21.4h-0.1v21.4h-3.2V780.6z
				"/>
			<path class="st13" d="M1721.1,780.6h12.1c4.9,0,7.8,2.6,7.8,6.7c0,3.1-1.3,5.7-4.5,6.5v0.1c3,0.6,3.6,2.8,3.9,5.3
				c0.2,2.5,0.1,5.4,1.5,7.1h-3.8c-1-1-0.4-3.8-0.9-6.3c-0.4-2.5-1-4.6-4.3-4.6h-8.4v11h-3.4V780.6z M1731.6,792.4
				c3.2,0,5.9-0.8,5.9-4.6c0-2.6-1.4-4.4-4.6-4.4h-8.5v9H1731.6z"/>
			<path class="st13" d="M1771.7,806.2c-0.5,0.3-1.3,0.5-2.2,0.5c-1.6,0-2.6-0.9-2.6-2.9c-1.7,2-4,2.9-6.6,2.9
				c-3.4,0-6.2-1.5-6.2-5.2c0-4.2,3.1-5.1,6.3-5.7c3.3-0.7,6.3-0.4,6.3-2.7c0-2.7-2.2-3.1-4.1-3.1c-2.6,0-4.5,0.8-4.6,3.5h-3.1
				c0.2-4.6,3.7-6.2,7.9-6.2c3.3,0,7,0.8,7,5.1v9.6c0,1.4,0,2.1,1,2.1c0.3,0,0.6-0.1,0.9-0.2V806.2z M1766.8,796.7
				c-2.4,1.8-9.3,0-9.3,4.6c0,2,1.7,2.7,3.6,2.7c4,0,5.7-2.5,5.7-4.2V796.7z"/>
			<path class="st13" d="M1774.6,787.7h2.9v3h0.1c1.3-2.3,3.3-3.4,6-3.4c4.9,0,6.4,2.8,6.4,6.8v12.2h-3.1v-12.6
				c0-2.3-1.4-3.7-3.8-3.7c-3.7,0-5.5,2.5-5.5,5.8v10.5h-3.1V787.7z"/>
			<path class="st13" d="M1811.2,806.3h-3.1v-2.5h-0.1c-1,2.1-3.3,3-5.9,3c-5.7,0-8.6-4.5-8.6-9.8s2.8-9.7,8.5-9.7
				c1.9,0,4.7,0.7,6,2.9h0.1v-9.6h3.1V806.3z M1802.6,804c4.1,0,5.7-3.6,5.7-7c0-3.6-1.7-7.1-5.9-7.1c-4.2,0-5.6,3.6-5.6,7.2
				C1796.8,800.7,1798.6,804,1802.6,804z"/>
			<path class="st13" d="M1470.4,823.8h8.8c7.9,0,12.3,4,12.3,12.2c0,8.6-3.8,13.5-12.3,13.5h-8.8V823.8z M1473.9,846.6h5.7
				c2.3,0,8.6-0.6,8.6-10.1c0-6.1-2.3-9.8-8.6-9.8h-5.8V846.6z"/>
			<path class="st13" d="M1495.8,823.8h3.4v11h13.5v-11h3.4v25.7h-3.4v-11.8h-13.5v11.8h-3.4V823.8z"/>
			<path class="st13" d="M1521.8,823.8h12.1c4.9,0,7.8,2.6,7.8,6.7c0,3.1-1.3,5.7-4.5,6.5v0.1c3,0.6,3.6,2.8,3.9,5.3
				c0.2,2.5,0.1,5.4,1.5,7.1h-3.8c-1-1-0.4-3.8-0.9-6.3c-0.4-2.5-1-4.6-4.3-4.6h-8.4v11h-3.4V823.8z M1532.3,835.7
				c3.2,0,5.9-0.8,5.9-4.6c0-2.6-1.4-4.4-4.6-4.4h-8.5v9H1532.3z"/>
			<path class="st13" d="M1557.2,833.6h-3.1v-2.7h3.1v-2.8c0-3,1.8-4.6,5.1-4.6c0.6,0,1.4,0.1,2,0.3v2.7c-0.5-0.2-1.2-0.3-1.7-0.3
				c-1.5,0-2.3,0.5-2.3,2.1v2.6h3.6v2.7h-3.6v15.9h-3.1V833.6z"/>
			<path class="st13" d="M1574.6,830.5c5.9,0,9,4.3,9,9.8c0,5.4-3.1,9.7-9,9.7s-9-4.3-9-9.7C1565.6,834.8,1568.7,830.5,1574.6,830.5
				z M1574.6,847.2c3.2,0,5.8-2.5,5.8-7s-2.6-7.1-5.8-7.1s-5.8,2.6-5.8,7.1S1571.4,847.2,1574.6,847.2z"/>
			<path class="st13" d="M1587.1,830.9h2.9v3.9h0.1c1.5-3,3.5-4.5,6.8-4.4v3.2c-4.9,0-6.7,2.8-6.7,7.5v8.3h-3.1V830.9z"/>
			<path class="st13" d="M1620.6,823.2c8.2,0,12.3,6.4,12.3,13.5s-4.1,13.5-12.3,13.5s-12.3-6.4-12.3-13.5
				S1612.5,823.2,1620.6,823.2z M1620.6,847.2c6.3,0,8.9-5.4,8.9-10.6s-2.6-10.6-8.9-10.6s-8.9,5.4-8.9,10.6
				S1614.4,847.2,1620.6,847.2z"/>
			<path class="st13" d="M1637.9,833.6h-3.1v-2.7h3.1v-2.8c0-3,1.8-4.6,5.1-4.6c0.6,0,1.4,0.1,2,0.3v2.7c-0.5-0.2-1.2-0.3-1.7-0.3
				c-1.5,0-2.3,0.5-2.3,2.1v2.6h3.6v2.7h-3.6v15.9h-3.1V833.6z"/>
			<path class="st13" d="M1648.5,833.6h-3.1v-2.7h3.1v-2.8c0-3,1.8-4.6,5.1-4.6c0.6,0,1.4,0.1,2,0.3v2.7c-0.5-0.2-1.2-0.3-1.7-0.3
				c-1.5,0-2.3,0.5-2.3,2.1v2.6h3.6v2.7h-3.6v15.9h-3.1V833.6z"/>
			<path class="st13" d="M1673.8,843.6c-0.8,4.1-3.7,6.3-8,6.3c-5.9,0-8.7-4.1-8.9-9.8c0-5.6,3.7-9.7,8.7-9.7
				c6.6,0,8.6,6.2,8.4,10.7h-13.9c-0.1,3.2,1.7,6.1,5.8,6.1c2.6,0,4.3-1.2,4.8-3.6H1673.8z M1670.8,838.4c-0.2-2.9-2.3-5.3-5.4-5.3
				c-3.2,0-5.1,2.4-5.3,5.3H1670.8z"/>
			<path class="st13" d="M1677.1,830.9h2.9v3.9h0.1c1.5-3,3.5-4.5,6.8-4.4v3.2c-4.9,0-6.7,2.8-6.7,7.5v8.3h-3.1V830.9z"/>
			<path class="st13" d="M1692.5,827.6h-3.1v-3.7h3.1V827.6z M1689.4,830.9h3.1v18.6h-3.1V830.9z"/>
			<path class="st13" d="M1697.2,830.9h2.9v3h0.1c1.3-2.3,3.3-3.4,6-3.4c4.9,0,6.4,2.8,6.4,6.8v12.2h-3.1v-12.6
				c0-2.3-1.4-3.7-3.8-3.7c-3.7,0-5.5,2.5-5.5,5.8v10.5h-3.1V830.9z"/>
			<path class="st13" d="M1733.3,847.9c0,6.1-2.7,9.1-8.6,9.1c-3.5,0-7.5-1.4-7.7-5.5h3.1c0.1,2.2,2.8,3,4.8,3c4,0,5.6-2.9,5.6-7.1
				v-1.2h-0.1c-1,2.3-3.4,3.4-5.8,3.4c-5.5,0-8.3-4.4-8.3-9.4c0-4.4,2.1-9.8,8.6-9.8c2.3,0,4.4,1,5.5,3.1h0v-2.7h2.9V847.9z
				 M1730.3,839.8c0-3.3-1.4-6.7-5.3-6.7c-3.9,0-5.5,3.2-5.5,6.8c0,3.3,1.2,7.1,5.3,7.1S1730.3,843.3,1730.3,839.8z"/>
			<path class="st13" d="M1748,823.8h3.1v9.6h0.1c1-2.1,3.3-3,5.9-3c5.7,0,8.6,4.5,8.6,9.8c0,5.3-2.8,9.7-8.5,9.7
				c-1.9,0-4.7-0.7-6-2.9h-0.1v2.5h-3.1V823.8z M1756.7,833.2c-4.1,0-5.7,3.6-5.7,7c0,3.6,1.7,7.1,5.9,7.1c4.2,0,5.6-3.6,5.6-7.2
				C1762.4,836.5,1760.6,833.2,1756.7,833.2z"/>
			<path class="st13" d="M1784.7,849.5h-2.9v-3h-0.1c-1.3,2.3-3.3,3.4-6,3.4c-4.9,0-6.4-2.8-6.4-6.8v-12.2h3.1v12.6
				c0,2.3,1.4,3.7,3.8,3.7c3.7,0,5.5-2.5,5.5-5.8v-10.5h3.1V849.5z"/>
			<path class="st13" d="M1792.5,827.6h-3.1v-3.7h3.1V827.6z M1789.5,830.9h3.1v18.6h-3.1V830.9z"/>
			<path class="st13" d="M1797.5,823.8h3.1v25.7h-3.1V823.8z"/>
			<path class="st13" d="M1821.9,849.5h-3.1V847h-0.1c-1,2.1-3.3,3-5.9,3c-5.7,0-8.6-4.5-8.6-9.8s2.8-9.7,8.5-9.7
				c1.9,0,4.7,0.7,6,2.9h0.1v-9.6h3.1V849.5z M1813.3,847.2c4.1,0,5.7-3.6,5.7-7c0-3.6-1.7-7.1-5.9-7.1c-4.2,0-5.6,3.6-5.6,7.2
				C1807.5,843.9,1809.3,847.2,1813.3,847.2z"/>
		</g>
	</g>
</g>
<g>
</g>
</svg>
