<?xml version="1.0" encoding="utf-8"?>
<!-- Generator: Adobe Illustrator 19.2.0, SVG Export Plug-In . SVG Version: 6.00 Build 0)  -->
<svg version="1.1" id="Layer_1" xmlns="http://www.w3.org/2000/svg" xmlns:xlink="http://www.w3.org/1999/xlink" x="0px" y="0px"
	 viewBox="0 0 2048 1000" style="enable-background:new 0 0 2048 1000;" xml:space="preserve">
<style type="text/css">
	.st0{fill:#B9E5FB;}
	.st1{fill:#4EA8DE;}
	.st2{fill:#116BB4;}
	.st3{fill:#FFFFFF;}
	.st4{fill:#EFEFF0;}
	.st5{fill:#2C5871;}
	.st6{fill:#D1ECFB;}
	.st7{fill:none;stroke:#343636;stroke-width:4;stroke-miterlimit:10;}
	.st8{fill:#89C240;}
	.st9{fill:#333333;}
	.st10{fill:none;}
	.st11{fill:none;stroke:#4EA8DE;stroke-width:2;stroke-miterlimit:10;}
	.st12{enable-background:new    ;}
	.st13{fill-rule:evenodd;clip-rule:evenodd;fill:#2C3E50;}
	.st14{fill-rule:evenodd;clip-rule:evenodd;fill:#6EBCC6;}
	.st15{fill-rule:evenodd;clip-rule:evenodd;fill:#121220;}
	.st16{fill-rule:evenodd;clip-rule:evenodd;fill:#ECF0F1;}
	.st17{fill-rule:evenodd;clip-rule:evenodd;fill:#DAE1E6;}
	.st18{fill-rule:evenodd;clip-rule:evenodd;fill:#2980B9;}
	.st19{fill-rule:evenodd;clip-rule:evenodd;fill:#9B59B6;}
	.st20{fill-rule:evenodd;clip-rule:evenodd;fill:#FFCB05;}
	.st21{fill-rule:evenodd;clip-rule:evenodd;fill:#6699FF;}
	.st22{fill-rule:evenodd;clip-rule:evenodd;fill:#95A5A6;}
	.st23{fill:#E3CCA4;}
	.st24{fill:#D4C5A3;}
	.st25{fill:#CCBC97;}
	.st26{fill:#2C3E50;}
	.st27{fill:#ECF0F1;}
	.st28{fill:#DAE1E6;}
	.st29{fill:#FFE7BD;}
	.st30{fill:#E8D6AC;}
	.st31{fill:#3D566E;}
</style>
<rect class="st0" width="2048" height="1000"/>
<rect class="st1" width="1012.9" height="1000"/>
<rect x="1" y="710" class="st2" width="1011.9" height="288.9"/>
<path class="st3" d="M824.9,881.5c0,13.7-11.1,24.9-24.9,24.9H233.1c-13.7,0-24.9-11.1-24.9-24.9V313.4c0-13.7,11.1-24.9,24.9-24.9
	H800c13.7,0,24.9,11.1,24.9,24.9V881.5z"/>
<path class="st4" d="M824.9,931c0,8.9-11.1,16.2-24.9,16.2H233.1c-13.7,0-24.9-7.2-24.9-16.2V561.2h616.6V931z"/>
<g>
	<g>
		<g>
			<polygon class="st3" points="1934.9,947.2 1934.9,639.3 1934.9,442.9 1780,302.1 1187.6,302.1 1187.6,947.2 			"/>
			<g>
				<polygon class="st5" points="1780,442.9 1934.9,442.9 1780,302.1 				"/>
				<polygon class="st6" points="1934.9,442.9 1780,442.9 1934.9,583.6 				"/>
			</g>
		</g>
	</g>
</g>
<line class="st7" x1="1053.4" y1="209.5" x2="2025.4" y2="209.5"/>
<g>
	<path class="st8" d="M560,513.5H435.6c-7.1,0-13-5.8-13-13V360.2c0-7.1,5.8-13,13-13H560c7.1,0,13,5.8,13,13v140.3
		C573,507.6,567.1,513.5,560,513.5"/>
</g>
<g>
	<g>
		<path class="st9" d="M1226.6,369.8c4,0,7.2,3.2,7.2,7.1c0,4-3.2,7.2-7.2,7.2c-4,0-7.1-3.2-7.1-7.2
			C1219.5,373,1222.7,369.8,1226.6,369.8z"/>
		<path class="st9" d="M1257.3,365.9h-9.5v-3.2h22.8v3.2h-9.5v25.4h-3.8V365.9z"/>
		<path class="st9" d="M1273.3,362.7h3.4v10.9h0.1c1.1-2.5,4.1-3.5,6.5-3.5c5.4,0,7.1,3.1,7.1,7.6v13.6h-3.4v-14
			c0-2.6-1.6-4.2-4.2-4.2c-4.1,0-6.1,2.8-6.1,6.5v11.7h-3.4V362.7z"/>
		<path class="st9" d="M1313.1,384.7c-0.9,4.6-4.2,7-8.8,7c-6.6,0-9.7-4.6-9.9-10.9c0-6.2,4.1-10.8,9.7-10.8c7.3,0,9.6,6.8,9.4,11.8
			H1298c-0.1,3.6,1.9,6.8,6.4,6.8c2.8,0,4.8-1.3,5.4-4H1313.1z M1309.9,378.9c-0.2-3.2-2.6-5.8-6-5.8c-3.5,0-5.7,2.6-5.9,5.8H1309.9
			z"/>
		<path class="st9" d="M1328.7,362.7h13.4c5.4,0,8.7,2.9,8.7,7.5c0,3.5-1.5,6.3-5,7.2v0.1c3.3,0.6,4,3.1,4.3,5.9
			c0.2,2.8,0.1,6,1.7,7.9h-4.2c-1.1-1.2-0.5-4.2-1-7c-0.4-2.8-1.1-5.2-4.8-5.2h-9.3v12.2h-3.8V362.7z M1340.4,375.8
			c3.5,0,6.6-0.9,6.6-5.1c0-2.8-1.5-4.9-5.1-4.9h-9.4v10H1340.4z"/>
		<path class="st9" d="M1373.1,384.7c-0.9,4.6-4.2,7-8.8,7c-6.6,0-9.7-4.6-9.9-10.9c0-6.2,4.1-10.8,9.7-10.8c7.3,0,9.6,6.8,9.4,11.8
			H1358c-0.1,3.6,1.9,6.8,6.4,6.8c2.8,0,4.8-1.3,5.4-4H1373.1z M1369.9,378.9c-0.2-3.2-2.6-5.8-6-5.8c-3.5,0-5.7,2.6-5.9,5.8H1369.9
			z"/>
		<path class="st9" d="M1377.2,362.7h3.4v28.6h-3.4V362.7z"/>
		<path class="st9" d="M1403.5,384.7c-0.9,4.6-4.2,7-8.8,7c-6.6,0-9.7-4.6-9.9-10.9c0-6.2,4.1-10.8,9.7-10.8c7.3,0,9.6,6.8,9.4,11.8
			h-15.5c-0.1,3.6,1.9,6.8,6.4,6.8c2.8,0,4.8-1.3,5.4-4H1403.5z M1400.2,378.9c-0.2-3.2-2.6-5.8-6-5.8c-3.5,0-5.7,2.6-5.9,5.8
			H1400.2z"/>
		<path class="st9" d="M1425.7,391.2c-0.6,0.4-1.4,0.6-2.4,0.6c-1.8,0-2.9-1-2.9-3.2c-1.9,2.2-4.4,3.2-7.3,3.2
			c-3.8,0-6.8-1.6-6.8-5.8c0-4.7,3.5-5.7,7-6.4c3.7-0.8,7-0.4,7-3c0-3-2.5-3.4-4.6-3.4c-2.9,0-5,0.9-5.2,3.9h-3.4
			c0.2-5.1,4.1-6.9,8.8-6.9c3.7,0,7.8,0.8,7.8,5.7v10.6c0,1.6,0,2.3,1.1,2.3c0.3,0,0.7-0.1,1-0.2V391.2z M1420.1,380.6
			c-2.6,2-10.3,0-10.3,5.1c0,2.2,1.9,3,4,3c4.5,0,6.3-2.8,6.3-4.7V380.6z"/>
		<path class="st9" d="M1430.9,384.7c0.1,3,2.8,4,5.6,4c2.1,0,5-0.5,5-3.1c0-5.3-13.5-1.7-13.5-9.7c0-4.2,4.1-5.9,7.7-5.9
			c4.6,0,8.2,1.4,8.5,6.5h-3.4c-0.2-2.6-2.6-3.5-4.8-3.5c-2,0-4.4,0.6-4.4,2.6c0,2.4,3.6,2.9,6.8,3.6c3.4,0.8,6.8,1.9,6.8,5.9
			c0,5-4.6,6.5-8.8,6.5c-4.6,0-8.6-1.9-8.8-7H1430.9z"/>
		<path class="st9" d="M1466.5,384.7c-0.9,4.6-4.2,7-8.8,7c-6.6,0-9.7-4.6-9.9-10.9c0-6.2,4.1-10.8,9.7-10.8c7.3,0,9.6,6.8,9.4,11.8
			h-15.5c-0.1,3.6,1.9,6.8,6.4,6.8c2.8,0,4.8-1.3,5.4-4H1466.5z M1463.2,378.9c-0.2-3.2-2.6-5.8-6-5.8c-3.5,0-5.7,2.6-5.9,5.8
			H1463.2z"/>
		<path class="st9" d="M1482.1,362.7h3.8v28.6h-3.8V362.7z"/>
		<path class="st9" d="M1491.8,370.6h3.2v3.3h0.1c1.4-2.6,3.7-3.8,6.7-3.8c5.4,0,7.1,3.1,7.1,7.6v13.6h-3.4v-14
			c0-2.6-1.6-4.2-4.2-4.2c-4.1,0-6.1,2.8-6.1,6.5v11.7h-3.4V370.6z"/>
		<path class="st9" d="M1532.5,391.2h-3.4v-2.8h-0.1c-1.1,2.3-3.7,3.3-6.6,3.3c-6.4,0-9.5-5-9.5-10.9c0-5.8,3.1-10.8,9.4-10.8
			c2.1,0,5.2,0.8,6.7,3.2h0.1v-10.6h3.4V391.2z M1522.9,388.7c4.6,0,6.3-4,6.3-7.8c0-4-1.8-7.8-6.5-7.8c-4.6,0-6.2,4-6.2,8
			C1516.5,385,1518.5,388.7,1522.9,388.7z"/>
		<path class="st9" d="M1541.3,366.8h-3.4v-4.2h3.4V366.8z M1537.9,370.6h3.4v20.7h-3.4V370.6z"/>
		<path class="st9" d="M1555.9,391.2h-3.6l-7.7-20.7h3.8l5.8,17.2h0.1l5.6-17.2h3.6L1555.9,391.2z"/>
		<path class="st9" d="M1570.2,366.8h-3.4v-4.2h3.4V366.8z M1566.8,370.6h3.4v20.7h-3.4V370.6z"/>
		<path class="st9" d="M1594,391.2h-3.4v-2.8h-0.1c-1.1,2.3-3.7,3.3-6.6,3.3c-6.4,0-9.5-5-9.5-10.9c0-5.8,3.1-10.8,9.4-10.8
			c2.1,0,5.2,0.8,6.7,3.2h0.1v-10.6h3.4V391.2z M1584.4,388.7c4.6,0,6.3-4,6.3-7.8c0-4-1.8-7.8-6.5-7.8c-4.6,0-6.2,4-6.2,8
			C1578,385,1580,388.7,1584.4,388.7z"/>
		<path class="st9" d="M1616.3,391.2h-3.2V388h-0.1c-1.4,2.6-3.7,3.8-6.7,3.8c-5.4,0-7.1-3.1-7.1-7.6v-13.6h3.4v14
			c0,2.6,1.6,4.2,4.2,4.2c4.1,0,6.1-2.8,6.1-6.5v-11.7h3.4V391.2z"/>
		<path class="st9" d="M1639.8,391.2c-0.6,0.4-1.4,0.6-2.4,0.6c-1.8,0-2.9-1-2.9-3.2c-1.9,2.2-4.4,3.2-7.3,3.2
			c-3.8,0-6.8-1.6-6.8-5.8c0-4.7,3.5-5.7,7-6.4c3.7-0.8,7-0.4,7-3c0-3-2.5-3.4-4.6-3.4c-2.9,0-5,0.9-5.2,3.9h-3.4
			c0.2-5.1,4.1-6.9,8.8-6.9c3.7,0,7.8,0.8,7.8,5.7v10.6c0,1.6,0,2.3,1.1,2.3c0.3,0,0.7-0.1,1-0.2V391.2z M1634.3,380.6
			c-2.6,2-10.3,0-10.3,5.1c0,2.2,1.9,3,4,3c4.5,0,6.3-2.8,6.3-4.7V380.6z"/>
		<path class="st9" d="M1643.1,362.7h3.4v28.6h-3.4V362.7z"/>
		<path class="st9" d="M1267.7,441.2h-3.4v-2.8h-0.1c-1.1,2.3-3.7,3.3-6.6,3.3c-6.4,0-9.5-5-9.5-10.9c0-5.8,3.1-10.8,9.4-10.8
			c2.1,0,5.2,0.8,6.7,3.2h0.1v-10.6h3.4V441.2z M1258.1,438.7c4.6,0,6.3-4,6.3-7.8c0-4-1.8-7.8-6.5-7.8c-4.6,0-6.2,4-6.2,8
			C1251.7,435,1253.7,438.7,1258.1,438.7z"/>
		<path class="st9" d="M1281.8,420.1c6.6,0,10,4.8,10,10.8c0,6-3.5,10.8-10,10.8c-6.6,0-10-4.8-10-10.8
			C1271.8,424.8,1275.3,420.1,1281.8,420.1z M1281.8,438.7c3.6,0,6.4-2.8,6.4-7.8s-2.9-7.8-6.4-7.8c-3.6,0-6.4,2.8-6.4,7.8
			S1278.3,438.7,1281.8,438.7z"/>
		<path class="st9" d="M1309.9,427.2c-0.5-2.6-2.3-4.1-5.1-4.1c-4.9,0-6.4,3.9-6.4,8.1c0,3.8,1.7,7.6,6,7.6c3.3,0,5.2-1.9,5.7-5h3.5
			c-0.8,5.1-3.9,8-9.1,8c-6.3,0-9.7-4.4-9.7-10.6c0-6.2,3.2-11.1,9.8-11.1c4.7,0,8.4,2.2,8.9,7.1H1309.9z"/>
		<path class="st9" d="M1334.5,441.2h-3.2V438h-0.1c-1.4,2.6-3.7,3.8-6.7,3.8c-5.4,0-7.1-3.1-7.1-7.6v-13.6h3.4v14
			c0,2.6,1.6,4.2,4.2,4.2c4.1,0,6.1-2.8,6.1-6.5v-11.7h3.4V441.2z"/>
		<path class="st9" d="M1339.6,420.6h3.2v3h0.1c1.6-2.4,3.8-3.5,6.7-3.5c2.6,0,4.8,1,5.7,3.5c1.4-2.2,3.8-3.5,6.5-3.5
			c4.1,0,6.9,1.7,6.9,6v15.2h-3.4v-13.6c0-2.6-0.7-4.6-4-4.6s-5.4,2.1-5.4,5.3v12.9h-3.4v-13.6c0-2.7-0.8-4.6-3.9-4.6
			c-4,0-5.5,3.7-5.5,5.3v12.9h-3.4V420.6z"/>
		<path class="st9" d="M1391.3,434.7c-0.9,4.6-4.2,7-8.8,7c-6.6,0-9.7-4.6-9.9-10.9c0-6.2,4.1-10.8,9.7-10.8c7.3,0,9.6,6.8,9.4,11.8
			h-15.5c-0.1,3.6,1.9,6.8,6.4,6.8c2.8,0,4.8-1.3,5.4-4H1391.3z M1388.1,428.9c-0.2-3.2-2.6-5.8-6-5.8c-3.5,0-5.7,2.6-5.9,5.8
			H1388.1z"/>
		<path class="st9" d="M1395.2,420.6h3.2v3.3h0.1c1.4-2.6,3.7-3.8,6.7-3.8c5.4,0,7.1,3.1,7.1,7.6v13.6h-3.4v-14
			c0-2.6-1.6-4.2-4.2-4.2c-4.1,0-6.1,2.8-6.1,6.5v11.7h-3.4V420.6z"/>
		<path class="st9" d="M1422.1,420.6h4.1v3h-4.1v12.8c0,1.6,0.4,1.8,2.6,1.8h1.6v3h-2.6c-3.5,0-4.9-0.7-4.9-4.5v-13.2h-3.5v-3h3.5
			v-6.2h3.4V420.6z"/>
		<path class="st9" d="M1432.1,434.7c0.1,3,2.8,4,5.6,4c2.1,0,5-0.5,5-3.1c0-5.3-13.5-1.7-13.5-9.7c0-4.2,4.1-5.9,7.7-5.9
			c4.6,0,8.2,1.4,8.5,6.5h-3.4c-0.2-2.6-2.6-3.5-4.8-3.5c-2,0-4.4,0.6-4.4,2.6c0,2.4,3.6,2.9,6.8,3.6c3.4,0.8,6.8,1.9,6.8,5.9
			c0,5-4.6,6.5-8.8,6.5c-4.6,0-8.6-1.9-8.8-7H1432.1z"/>
		<path class="st9" d="M1465.9,420.6h4.1v3h-4.1v12.8c0,1.6,0.4,1.8,2.6,1.8h1.6v3h-2.6c-3.5,0-4.9-0.7-4.9-4.5v-13.2h-3.5v-3h3.5
			v-6.2h3.4V420.6z"/>
		<path class="st9" d="M1473.7,412.7h3.4v10.9h0.1c1.1-2.5,4.1-3.5,6.5-3.5c5.4,0,7.1,3.1,7.1,7.6v13.6h-3.4v-14
			c0-2.6-1.6-4.2-4.2-4.2c-4.1,0-6.1,2.8-6.1,6.5v11.7h-3.4V412.7z"/>
		<path class="st9" d="M1513.6,434.7c-0.9,4.6-4.2,7-8.8,7c-6.6,0-9.7-4.6-9.9-10.9c0-6.2,4.1-10.8,9.7-10.8c7.3,0,9.6,6.8,9.4,11.8
			h-15.5c-0.1,3.6,1.9,6.8,6.4,6.8c2.8,0,4.8-1.3,5.4-4H1513.6z M1510.3,428.9c-0.2-3.2-2.6-5.8-6-5.8c-3.5,0-5.7,2.6-5.9,5.8
			H1510.3z"/>
		<path class="st9" d="M1521.1,416.8h-3.4v-4.2h3.4V416.8z M1517.7,420.6h3.4v20.7h-3.4V420.6z"/>
		<path class="st9" d="M1526.2,420.6h3.2v4.4h0.1c1.6-3.4,3.9-5,7.6-4.8v3.6c-5.5,0-7.5,3.1-7.5,8.4v9.2h-3.4V420.6z"/>
		<path class="st9" d="M1550.7,420.6h3.2v4.4h0.1c1.6-3.4,3.9-5,7.6-4.8v3.6c-5.5,0-7.5,3.1-7.5,8.4v9.2h-3.4V420.6z"/>
		<path class="st9" d="M1581.7,434.7c-0.9,4.6-4.2,7-8.8,7c-6.6,0-9.7-4.6-9.9-10.9c0-6.2,4.1-10.8,9.7-10.8c7.3,0,9.6,6.8,9.4,11.8
			h-15.5c-0.1,3.6,1.9,6.8,6.4,6.8c2.8,0,4.8-1.3,5.4-4H1581.7z M1578.5,428.9c-0.2-3.2-2.6-5.8-6-5.8c-3.5,0-5.7,2.6-5.9,5.8
			H1578.5z"/>
		<path class="st9" d="M1594.9,441.2h-3.6l-7.7-20.7h3.8l5.8,17.2h0.1l5.6-17.2h3.6L1594.9,441.2z"/>
		<path class="st9" d="M1609.2,416.8h-3.4v-4.2h3.4V416.8z M1605.8,420.6h3.4v20.7h-3.4V420.6z"/>
		<path class="st9" d="M1632.1,434.7c-0.9,4.6-4.2,7-8.8,7c-6.6,0-9.7-4.6-9.9-10.9c0-6.2,4.1-10.8,9.7-10.8c7.3,0,9.6,6.8,9.4,11.8
			h-15.5c-0.1,3.6,1.9,6.8,6.4,6.8c2.8,0,4.8-1.3,5.4-4H1632.1z M1628.8,428.9c-0.2-3.2-2.6-5.8-6-5.8c-3.5,0-5.7,2.6-5.9,5.8
			H1628.8z"/>
		<path class="st9" d="M1656.4,441.2h-3.6l-4.2-16.4h-0.1l-4.2,16.4h-3.7l-6.6-20.7h3.8l4.7,16.9h0.1l4.2-16.9h3.7l4.3,16.9h0.1
			l4.6-16.9h3.5L1656.4,441.2z"/>
		<path class="st9" d="M1686.3,420.1c6.6,0,10,4.8,10,10.8c0,6-3.5,10.8-10,10.8c-6.6,0-10-4.8-10-10.8
			C1676.3,424.8,1679.7,420.1,1686.3,420.1z M1686.3,438.7c3.6,0,6.4-2.8,6.4-7.8s-2.9-7.8-6.4-7.8c-3.6,0-6.4,2.8-6.4,7.8
			S1682.7,438.7,1686.3,438.7z"/>
		<path class="st9" d="M1700.3,420.6h3.2v3.3h0.1c1.4-2.6,3.7-3.8,6.7-3.8c5.4,0,7.1,3.1,7.1,7.6v13.6h-3.4v-14
			c0-2.6-1.6-4.2-4.2-4.2c-4.1,0-6.1,2.8-6.1,6.5v11.7h-3.4V420.6z"/>
		<path class="st9" d="M1267.5,491.2c-0.6,0.4-1.4,0.6-2.4,0.6c-1.8,0-2.9-1-2.9-3.2c-1.9,2.2-4.4,3.2-7.3,3.2
			c-3.8,0-6.8-1.6-6.8-5.8c0-4.7,3.5-5.7,7-6.4c3.7-0.8,7-0.4,7-3c0-3-2.5-3.4-4.6-3.4c-2.9,0-5,0.9-5.2,3.9h-3.4
			c0.2-5.1,4.1-6.9,8.8-6.9c3.7,0,7.8,0.8,7.8,5.7v10.6c0,1.6,0,2.3,1.1,2.3c0.3,0,0.7-0.1,1-0.2V491.2z M1262,480.6
			c-2.6,2-10.3,0-10.3,5.1c0,2.2,1.9,3,4,3c4.5,0,6.3-2.8,6.3-4.7V480.6z"/>
		<path class="st9" d="M1270.7,470.6h3.2v3.3h0.1c1.4-2.6,3.7-3.8,6.7-3.8c5.4,0,7.1,3.1,7.1,7.6v13.6h-3.4v-14
			c0-2.6-1.6-4.2-4.2-4.2c-4.1,0-6.1,2.8-6.1,6.5v11.7h-3.4V470.6z"/>
		<path class="st9" d="M1316.7,462c9.1,0,13.7,7.2,13.7,15c0,7.8-4.6,15-13.7,15c-9.1,0-13.7-7.2-13.7-15
			C1303,469.2,1307.6,462,1316.7,462z M1316.7,488.7c7,0,9.9-6,9.9-11.8c0-5.8-2.9-11.8-9.9-11.8s-9.9,6-9.9,11.8
			C1306.8,482.7,1309.7,488.7,1316.7,488.7z"/>
		<path class="st9" d="M1335.8,473.6h-3.5v-3h3.5v-3.1c0-3.4,2-5.1,5.7-5.1c0.6,0,1.6,0.1,2.2,0.3v3c-0.6-0.2-1.3-0.3-1.9-0.3
			c-1.6,0-2.6,0.5-2.6,2.3v2.9h4v3h-4v17.7h-3.4V473.6z"/>
		<path class="st9" d="M1347.7,473.6h-3.5v-3h3.5v-3.1c0-3.4,2-5.1,5.7-5.1c0.6,0,1.6,0.1,2.2,0.3v3c-0.6-0.2-1.3-0.3-1.9-0.3
			c-1.6,0-2.6,0.5-2.6,2.3v2.9h4v3h-4v17.7h-3.4V473.6z"/>
		<path class="st9" d="M1375.7,484.7c-0.9,4.6-4.2,7-8.8,7c-6.6,0-9.7-4.6-9.9-10.9c0-6.2,4.1-10.8,9.7-10.8c7.3,0,9.6,6.8,9.4,11.8
			h-15.5c-0.1,3.6,1.9,6.8,6.4,6.8c2.8,0,4.8-1.3,5.4-4H1375.7z M1372.5,478.9c-0.2-3.2-2.6-5.8-6-5.8c-3.5,0-5.7,2.6-5.9,5.8
			H1372.5z"/>
		<path class="st9" d="M1379.5,470.6h3.2v4.4h0.1c1.6-3.4,3.9-5,7.6-4.8v3.6c-5.5,0-7.5,3.1-7.5,8.4v9.2h-3.4V470.6z"/>
		<path class="st9" d="M1396.5,466.8h-3.4v-4.2h3.4V466.8z M1393.1,470.6h3.4v20.7h-3.4V470.6z"/>
		<path class="st9" d="M1401.8,470.6h3.2v3.3h0.1c1.4-2.6,3.7-3.8,6.7-3.8c5.4,0,7.1,3.1,7.1,7.6v13.6h-3.4v-14
			c0-2.6-1.6-4.2-4.2-4.2c-4.1,0-6.1,2.8-6.1,6.5v11.7h-3.4V470.6z"/>
		<path class="st9" d="M1441.9,489.5c0,6.8-3,10.2-9.6,10.2c-3.9,0-8.4-1.6-8.6-6.1h3.4c0.1,2.4,3.2,3.4,5.4,3.4
			c4.4,0,6.2-3.2,6.2-7.8v-1.4h-0.1c-1.2,2.5-3.8,3.8-6.4,3.8c-6.2,0-9.2-4.8-9.2-10.5c0-4.9,2.4-10.9,9.6-10.9
			c2.6,0,4.9,1.2,6.2,3.4h0v-3h3.2V489.5z M1438.5,480.5c0-3.6-1.6-7.4-5.9-7.4c-4.4,0-6.1,3.6-6.1,7.5c0,3.7,1.4,7.9,5.8,7.9
			S1438.5,484.4,1438.5,480.5z"/>
		<path class="st9" d="M1458.7,462.7h13.4c5.4,0,8.7,2.9,8.7,7.5c0,3.5-1.5,6.3-5,7.2v0.1c3.3,0.6,4,3.1,4.3,5.9
			c0.2,2.8,0.1,6,1.7,7.9h-4.2c-1.1-1.2-0.5-4.2-1-7c-0.4-2.8-1.1-5.2-4.8-5.2h-9.3v12.2h-3.8V462.7z M1470.4,475.8
			c3.5,0,6.6-0.9,6.6-5.1c0-2.8-1.5-4.9-5.1-4.9h-9.4v10H1470.4z"/>
		<path class="st9" d="M1503.1,484.7c-0.9,4.6-4.2,7-8.8,7c-6.6,0-9.7-4.6-9.9-10.9c0-6.2,4.1-10.8,9.7-10.8c7.3,0,9.6,6.8,9.4,11.8
			H1488c-0.1,3.6,1.9,6.8,6.4,6.8c2.8,0,4.8-1.3,5.4-4H1503.1z M1499.9,478.9c-0.2-3.2-2.6-5.8-6-5.8c-3.5,0-5.7,2.6-5.9,5.8H1499.9
			z"/>
		<path class="st9" d="M1507.2,462.7h3.4v28.6h-3.4V462.7z"/>
		<path class="st9" d="M1533.5,484.7c-0.9,4.6-4.2,7-8.8,7c-6.6,0-9.7-4.6-9.9-10.9c0-6.2,4.1-10.8,9.7-10.8c7.3,0,9.6,6.8,9.4,11.8
			h-15.5c-0.1,3.6,1.9,6.8,6.4,6.8c2.8,0,4.8-1.3,5.4-4H1533.5z M1530.2,478.9c-0.2-3.2-2.6-5.8-6-5.8c-3.5,0-5.7,2.6-5.9,5.8
			H1530.2z"/>
		<path class="st9" d="M1555.7,491.2c-0.6,0.4-1.4,0.6-2.4,0.6c-1.8,0-2.9-1-2.9-3.2c-1.9,2.2-4.4,3.2-7.3,3.2
			c-3.8,0-6.8-1.6-6.8-5.8c0-4.7,3.5-5.7,7-6.4c3.7-0.8,7-0.4,7-3c0-3-2.5-3.4-4.6-3.4c-2.9,0-5,0.9-5.2,3.9h-3.4
			c0.2-5.1,4.1-6.9,8.8-6.9c3.7,0,7.8,0.8,7.8,5.7v10.6c0,1.6,0,2.3,1.1,2.3c0.3,0,0.7-0.1,1-0.2V491.2z M1550.1,480.6
			c-2.6,2-10.3,0-10.3,5.1c0,2.2,1.9,3,4,3c4.5,0,6.3-2.8,6.3-4.7V480.6z"/>
		<path class="st9" d="M1560.9,484.7c0.1,3,2.8,4,5.6,4c2.1,0,5-0.5,5-3.1c0-5.3-13.5-1.7-13.5-9.7c0-4.2,4.1-5.9,7.7-5.9
			c4.6,0,8.2,1.4,8.5,6.5h-3.4c-0.2-2.6-2.6-3.5-4.8-3.5c-2,0-4.4,0.6-4.4,2.6c0,2.4,3.6,2.9,6.8,3.6c3.4,0.8,6.8,1.9,6.8,5.9
			c0,5-4.6,6.5-8.8,6.5c-4.6,0-8.6-1.9-8.8-7H1560.9z"/>
		<path class="st9" d="M1596.5,484.7c-0.9,4.6-4.2,7-8.8,7c-6.6,0-9.7-4.6-9.9-10.9c0-6.2,4.1-10.8,9.7-10.8c7.3,0,9.6,6.8,9.4,11.8
			h-15.5c-0.1,3.6,1.9,6.8,6.4,6.8c2.8,0,4.8-1.3,5.4-4H1596.5z M1593.2,478.9c-0.2-3.2-2.6-5.8-6-5.8c-3.5,0-5.7,2.6-5.9,5.8
			H1593.2z"/>
		<path class="st9" d="M1612,462.7h13.4c5.4,0,8.7,2.9,8.7,7.5c0,3.5-1.5,6.3-5,7.2v0.1c3.3,0.6,4,3.1,4.3,5.9
			c0.2,2.8,0.1,6,1.7,7.9h-4.2c-1.1-1.2-0.5-4.2-1-7c-0.4-2.8-1.1-5.2-4.8-5.2h-9.3v12.2h-3.8V462.7z M1623.7,475.8
			c3.5,0,6.6-0.9,6.6-5.1c0-2.8-1.5-4.9-5.1-4.9h-9.4v10H1623.7z"/>
		<path class="st9" d="M1656.5,484.7c-0.9,4.6-4.2,7-8.8,7c-6.6,0-9.7-4.6-9.9-10.9c0-6.2,4.1-10.8,9.7-10.8c7.3,0,9.6,6.8,9.4,11.8
			h-15.5c-0.1,3.6,1.9,6.8,6.4,6.8c2.8,0,4.8-1.3,5.4-4H1656.5z M1653.2,478.9c-0.2-3.2-2.6-5.8-6-5.8c-3.5,0-5.7,2.6-5.9,5.8
			H1653.2z"/>
		<path class="st9" d="M1674.3,477.2c-0.5-2.6-2.3-4.1-5.1-4.1c-4.9,0-6.4,3.9-6.4,8.1c0,3.8,1.7,7.6,6,7.6c3.3,0,5.2-1.9,5.7-5h3.5
			c-0.8,5.1-3.9,8-9.1,8c-6.3,0-9.7-4.4-9.7-10.6c0-6.2,3.2-11.1,9.8-11.1c4.7,0,8.4,2.2,8.9,7.1H1674.3z"/>
		<path class="st9" d="M1690.7,470.1c6.6,0,10,4.8,10,10.8c0,6-3.5,10.8-10,10.8c-6.6,0-10-4.8-10-10.8
			C1680.7,474.8,1684.1,470.1,1690.7,470.1z M1690.7,488.7c3.6,0,6.4-2.8,6.4-7.8s-2.9-7.8-6.4-7.8c-3.6,0-6.4,2.8-6.4,7.8
			S1687.1,488.7,1690.7,488.7z"/>
		<path class="st9" d="M1704.6,470.6h3.2v4.4h0.1c1.6-3.4,3.9-5,7.6-4.8v3.6c-5.5,0-7.5,3.1-7.5,8.4v9.2h-3.4V470.6z"/>
		<path class="st9" d="M1736.5,491.2h-3.4v-2.8h-0.1c-1.1,2.3-3.7,3.3-6.6,3.3c-6.4,0-9.5-5-9.5-10.9c0-5.8,3.1-10.8,9.4-10.8
			c2.1,0,5.2,0.8,6.7,3.2h0.1v-10.6h3.4V491.2z M1726.9,488.7c4.6,0,6.3-4,6.3-7.8c0-4-1.8-7.8-6.5-7.8c-4.6,0-6.2,4-6.2,8
			C1720.5,485,1722.5,488.7,1726.9,488.7z"/>
		<path class="st9" d="M1742.5,486.8h4.4v4.4h-4.4V486.8z"/>
		<path class="st9" d="M1226.6,534.8c4,0,7.2,3.2,7.2,7.1c0,4-3.2,7.2-7.2,7.2c-4,0-7.1-3.2-7.1-7.2
			C1219.5,538,1222.7,534.8,1226.6,534.8z"/>
		<path class="st9" d="M1262.9,527c9.1,0,13.7,7.2,13.7,15s-4.6,15-13.7,15c-9.1,0-13.7-7.2-13.7-15S1253.9,527,1262.9,527z
			 M1262.9,553.7c7,0,9.9-6,9.9-11.8c0-5.8-2.9-11.8-9.9-11.8s-9.9,6-9.9,11.8C1253.1,547.7,1256,553.7,1262.9,553.7z"/>
		<path class="st9" d="M1280.7,535.6h3.2v3.3h0.1c1.4-2.6,3.7-3.8,6.7-3.8c5.4,0,7.1,3.1,7.1,7.6v13.6h-3.4v-14
			c0-2.6-1.6-4.2-4.2-4.2c-4.1,0-6.1,2.8-6.1,6.5v11.7h-3.4V535.6z"/>
		<path class="st9" d="M1317,542.2c-0.5-2.6-2.3-4.1-5.1-4.1c-4.9,0-6.4,3.9-6.4,8.1c0,3.8,1.7,7.6,6,7.6c3.3,0,5.2-1.9,5.7-5h3.5
			c-0.8,5.1-3.9,8-9.1,8c-6.3,0-9.7-4.4-9.7-10.6s3.2-11.1,9.8-11.1c4.7,0,8.4,2.2,8.9,7.1H1317z"/>
		<path class="st9" d="M1342.1,549.7c-0.9,4.6-4.2,7-8.8,7c-6.6,0-9.7-4.6-9.9-10.9c0-6.2,4.1-10.8,9.7-10.8c7.3,0,9.6,6.8,9.4,11.8
			h-15.5c-0.1,3.6,1.9,6.8,6.4,6.8c2.8,0,4.8-1.3,5.4-4H1342.1z M1338.8,543.9c-0.2-3.2-2.6-5.8-6-5.8c-3.5,0-5.7,2.6-5.9,5.8
			H1338.8z"/>
		<path class="st9" d="M1361.7,535.6h4.1v3h-4.1v12.8c0,1.6,0.4,1.8,2.6,1.8h1.6v3h-2.6c-3.5,0-4.9-0.7-4.9-4.5v-13.2h-3.5v-3h3.5
			v-6.2h3.4V535.6z"/>
		<path class="st9" d="M1369.6,527.7h3.4v10.9h0.1c1.1-2.5,4.1-3.5,6.5-3.5c5.4,0,7.1,3.1,7.1,7.6v13.6h-3.4v-14
			c0-2.6-1.6-4.2-4.2-4.2c-4.1,0-6.1,2.8-6.1,6.5v11.7h-3.4V527.7z"/>
		<path class="st9" d="M1409.5,549.7c-0.9,4.6-4.2,7-8.8,7c-6.6,0-9.7-4.6-9.9-10.9c0-6.2,4.1-10.8,9.7-10.8c7.3,0,9.6,6.8,9.4,11.8
			h-15.5c-0.1,3.6,1.9,6.8,6.4,6.8c2.8,0,4.8-1.3,5.4-4H1409.5z M1406.2,543.9c-0.2-3.2-2.6-5.8-6-5.8c-3.5,0-5.7,2.6-5.9,5.8
			H1406.2z"/>
		<path class="st9" d="M1437.1,527c9.1,0,13.7,7.2,13.7,15s-4.6,15-13.7,15c-9.1,0-13.7-7.2-13.7-15S1428,527,1437.1,527z
			 M1437.1,553.7c7,0,9.9-6,9.9-11.8c0-5.8-2.9-11.8-9.9-11.8s-9.9,6-9.9,11.8C1427.2,547.7,1430.1,553.7,1437.1,553.7z"/>
		<path class="st9" d="M1456.3,538.6h-3.5v-3h3.5v-3.1c0-3.4,2-5.1,5.7-5.1c0.6,0,1.6,0.1,2.2,0.3v3c-0.6-0.2-1.3-0.3-1.9-0.3
			c-1.6,0-2.6,0.5-2.6,2.3v2.9h4v3h-4v17.7h-3.4V538.6z"/>
		<path class="st9" d="M1468.1,538.6h-3.5v-3h3.5v-3.1c0-3.4,2-5.1,5.7-5.1c0.6,0,1.6,0.1,2.2,0.3v3c-0.6-0.2-1.3-0.3-1.9-0.3
			c-1.6,0-2.6,0.5-2.6,2.3v2.9h4v3h-4v17.7h-3.4V538.6z"/>
		<path class="st9" d="M1496.2,549.7c-0.9,4.6-4.2,7-8.8,7c-6.6,0-9.7-4.6-9.9-10.9c0-6.2,4.1-10.8,9.7-10.8c7.3,0,9.6,6.8,9.4,11.8
			H1481c-0.1,3.6,1.9,6.8,6.4,6.8c2.8,0,4.8-1.3,5.4-4H1496.2z M1492.9,543.9c-0.2-3.2-2.6-5.8-6-5.8c-3.5,0-5.7,2.6-5.9,5.8H1492.9
			z"/>
		<path class="st9" d="M1499.9,535.6h3.2v4.4h0.1c1.6-3.4,3.9-5,7.6-4.8v3.6c-5.5,0-7.5,3.1-7.5,8.4v9.2h-3.4V535.6z"/>
		<path class="st9" d="M1516.9,531.8h-3.4v-4.2h3.4V531.8z M1513.5,535.6h3.4v20.7h-3.4V535.6z"/>
		<path class="st9" d="M1522.2,535.6h3.2v3.3h0.1c1.4-2.6,3.7-3.8,6.7-3.8c5.4,0,7.1,3.1,7.1,7.6v13.6h-3.4v-14
			c0-2.6-1.6-4.2-4.2-4.2c-4.1,0-6.1,2.8-6.1,6.5v11.7h-3.4V535.6z"/>
		<path class="st9" d="M1562.3,554.5c0,6.8-3,10.2-9.6,10.2c-3.9,0-8.4-1.6-8.6-6.1h3.4c0.1,2.4,3.2,3.4,5.4,3.4
			c4.4,0,6.2-3.2,6.2-7.8v-1.4h-0.1c-1.2,2.5-3.8,3.8-6.4,3.8c-6.2,0-9.2-4.8-9.2-10.5c0-4.9,2.4-10.9,9.6-10.9
			c2.6,0,4.9,1.2,6.2,3.4h0v-3h3.2V554.5z M1558.9,545.5c0-3.6-1.6-7.4-5.9-7.4c-4.4,0-6.1,3.6-6.1,7.5c0,3.7,1.4,7.9,5.8,7.9
			S1558.9,549.4,1558.9,545.5z"/>
		<path class="st9" d="M1579.1,527.7h13.4c5.4,0,8.7,2.9,8.7,7.5c0,3.5-1.5,6.3-5,7.2v0.1c3.3,0.6,4,3.1,4.3,5.9
			c0.2,2.8,0.1,6,1.7,7.9h-4.2c-1.1-1.2-0.5-4.2-1-7c-0.4-2.8-1.1-5.2-4.8-5.2h-9.3v12.2h-3.8V527.7z M1590.8,540.8
			c3.5,0,6.6-0.9,6.6-5.1c0-2.8-1.5-4.9-5.1-4.9h-9.4v10H1590.8z"/>
		<path class="st9" d="M1623.6,549.7c-0.9,4.6-4.2,7-8.8,7c-6.6,0-9.7-4.6-9.9-10.9c0-6.2,4.1-10.8,9.7-10.8c7.3,0,9.6,6.8,9.4,11.8
			h-15.5c-0.1,3.6,1.9,6.8,6.4,6.8c2.8,0,4.8-1.3,5.4-4H1623.6z M1620.3,543.9c-0.2-3.2-2.6-5.8-6-5.8c-3.5,0-5.7,2.6-5.9,5.8
			H1620.3z"/>
		<path class="st9" d="M1627.6,527.7h3.4v28.6h-3.4V527.7z"/>
		<path class="st9" d="M1653.9,549.7c-0.9,4.6-4.2,7-8.8,7c-6.6,0-9.7-4.6-9.9-10.9c0-6.2,4.1-10.8,9.7-10.8c7.3,0,9.6,6.8,9.4,11.8
			h-15.5c-0.1,3.6,1.9,6.8,6.4,6.8c2.8,0,4.8-1.3,5.4-4H1653.9z M1650.7,543.9c-0.2-3.2-2.6-5.8-6-5.8c-3.5,0-5.7,2.6-5.9,5.8
			H1650.7z"/>
		<path class="st9" d="M1676.1,556.2c-0.6,0.4-1.4,0.6-2.4,0.6c-1.8,0-2.9-1-2.9-3.2c-1.9,2.2-4.4,3.2-7.3,3.2
			c-3.8,0-6.8-1.6-6.8-5.8c0-4.7,3.5-5.7,7-6.4c3.7-0.8,7-0.4,7-3c0-3-2.5-3.4-4.6-3.4c-2.9,0-5,0.9-5.2,3.9h-3.4
			c0.2-5.1,4.1-6.9,8.8-6.9c3.7,0,7.8,0.8,7.8,5.7v10.6c0,1.6,0,2.3,1.1,2.3c0.3,0,0.7-0.1,1-0.2V556.2z M1670.6,545.6
			c-2.6,2-10.3,0-10.3,5.1c0,2.2,1.9,3,4,3c4.5,0,6.3-2.8,6.3-4.7V545.6z"/>
		<path class="st9" d="M1681.3,549.7c0.1,3,2.8,4,5.6,4c2.1,0,5-0.5,5-3.1c0-5.3-13.5-1.7-13.5-9.7c0-4.2,4.1-5.9,7.7-5.9
			c4.6,0,8.2,1.4,8.5,6.5h-3.4c-0.2-2.6-2.6-3.5-4.8-3.5c-2,0-4.4,0.6-4.4,2.6c0,2.4,3.6,2.9,6.8,3.6c3.4,0.8,6.8,1.9,6.8,5.9
			c0,5-4.6,6.5-8.8,6.5c-4.6,0-8.6-1.9-8.8-7H1681.3z"/>
		<path class="st9" d="M1716.9,549.7c-0.9,4.6-4.2,7-8.8,7c-6.6,0-9.7-4.6-9.9-10.9c0-6.2,4.1-10.8,9.7-10.8c7.3,0,9.6,6.8,9.4,11.8
			h-15.5c-0.1,3.6,1.9,6.8,6.4,6.8c2.8,0,4.8-1.3,5.4-4H1716.9z M1713.6,543.9c-0.2-3.2-2.6-5.8-6-5.8c-3.5,0-5.7,2.6-5.9,5.8
			H1713.6z"/>
		<path class="st9" d="M1249.7,577.7h13.4c5.4,0,8.7,2.9,8.7,7.5c0,3.5-1.5,6.3-5,7.2v0.1c3.3,0.6,4,3.1,4.3,5.9
			c0.2,2.8,0.1,6,1.7,7.9h-4.2c-1.1-1.2-0.5-4.2-1-7c-0.4-2.8-1.1-5.2-4.8-5.2h-9.3v12.2h-3.8V577.7z M1261.5,590.8
			c3.5,0,6.6-0.9,6.6-5.1c0-2.8-1.5-4.9-5.1-4.9h-9.4v10H1261.5z"/>
		<path class="st9" d="M1294.2,599.7c-0.9,4.6-4.2,7-8.8,7c-6.6,0-9.7-4.6-9.9-10.9c0-6.2,4.1-10.8,9.7-10.8c7.3,0,9.6,6.8,9.4,11.8
			h-15.5c-0.1,3.6,1.9,6.8,6.4,6.8c2.8,0,4.8-1.3,5.4-4H1294.2z M1290.9,593.9c-0.2-3.2-2.6-5.8-6-5.8c-3.5,0-5.7,2.6-5.9,5.8
			H1290.9z"/>
		<path class="st9" d="M1312.1,592.2c-0.5-2.6-2.3-4.1-5.1-4.1c-4.9,0-6.4,3.9-6.4,8.1c0,3.8,1.7,7.6,6,7.6c3.3,0,5.2-1.9,5.7-5h3.5
			c-0.8,5.1-3.9,8-9.1,8c-6.3,0-9.7-4.4-9.7-10.6s3.2-11.1,9.8-11.1c4.7,0,8.4,2.2,8.9,7.1H1312.1z"/>
		<path class="st9" d="M1328.5,585.1c6.6,0,10,4.8,10,10.8c0,6-3.5,10.8-10,10.8c-6.6,0-10-4.8-10-10.8
			C1318.4,589.8,1321.9,585.1,1328.5,585.1z M1328.5,603.7c3.6,0,6.4-2.8,6.4-7.8s-2.9-7.8-6.4-7.8c-3.6,0-6.4,2.8-6.4,7.8
			S1324.9,603.7,1328.5,603.7z"/>
		<path class="st9" d="M1342.4,585.6h3.2v4.4h0.1c1.6-3.4,3.9-5,7.6-4.8v3.6c-5.5,0-7.5,3.1-7.5,8.4v9.2h-3.4V585.6z"/>
		<path class="st9" d="M1374.3,606.2h-3.4v-2.8h-0.1c-1.1,2.3-3.7,3.3-6.6,3.3c-6.4,0-9.5-5-9.5-10.9s3.1-10.8,9.4-10.8
			c2.1,0,5.2,0.8,6.7,3.2h0.1v-10.6h3.4V606.2z M1364.7,603.7c4.6,0,6.3-4,6.3-7.8c0-4-1.8-7.8-6.5-7.8c-4.6,0-6.2,4-6.2,8
			C1358.3,600,1360.3,603.7,1364.7,603.7z"/>
		<path class="st9" d="M1394.3,581.8h-3.4v-4.2h3.4V581.8z M1390.9,585.6h3.4v20.7h-3.4V585.6z"/>
		<path class="st9" d="M1401.6,599.7c0.1,3,2.8,4,5.6,4c2.1,0,5-0.5,5-3.1c0-5.3-13.5-1.7-13.5-9.7c0-4.2,4.1-5.9,7.7-5.9
			c4.6,0,8.2,1.4,8.5,6.5h-3.4c-0.2-2.6-2.6-3.5-4.8-3.5c-2,0-4.4,0.6-4.4,2.6c0,2.4,3.6,2.9,6.8,3.6c3.4,0.8,6.8,1.9,6.8,5.9
			c0,5-4.6,6.5-8.8,6.5c-4.6,0-8.6-1.9-8.8-7H1401.6z"/>
		<path class="st9" d="M1430.5,585.6h3.2v4.4h0.1c1.6-3.4,3.9-5,7.6-4.8v3.6c-5.5,0-7.5,3.1-7.5,8.4v9.2h-3.4V585.6z"/>
		<path class="st9" d="M1461.6,599.7c-0.9,4.6-4.2,7-8.8,7c-6.6,0-9.7-4.6-9.9-10.9c0-6.2,4.1-10.8,9.7-10.8c7.3,0,9.6,6.8,9.4,11.8
			h-15.5c-0.1,3.6,1.9,6.8,6.4,6.8c2.8,0,4.8-1.3,5.4-4H1461.6z M1458.3,593.9c-0.2-3.2-2.6-5.8-6-5.8c-3.5,0-5.7,2.6-5.9,5.8
			H1458.3z"/>
		<path class="st9" d="M1474.8,606.2h-3.6l-7.7-20.7h3.8l5.8,17.2h0.1l5.6-17.2h3.6L1474.8,606.2z"/>
		<path class="st9" d="M1489.1,581.8h-3.4v-4.2h3.4V581.8z M1485.7,585.6h3.4v20.7h-3.4V585.6z"/>
		<path class="st9" d="M1512,599.7c-0.9,4.6-4.2,7-8.8,7c-6.6,0-9.7-4.6-9.9-10.9c0-6.2,4.1-10.8,9.7-10.8c7.3,0,9.6,6.8,9.4,11.8
			h-15.5c-0.1,3.6,1.9,6.8,6.4,6.8c2.8,0,4.8-1.3,5.4-4H1512z M1508.7,593.9c-0.2-3.2-2.6-5.8-6-5.8c-3.5,0-5.7,2.6-5.9,5.8H1508.7z
			"/>
		<path class="st9" d="M1536.3,606.2h-3.6l-4.2-16.4h-0.1l-4.2,16.4h-3.7l-6.6-20.7h3.8l4.7,16.9h0.1l4.2-16.9h3.7l4.3,16.9h0.1
			l4.6-16.9h3.5L1536.3,606.2z"/>
		<path class="st9" d="M1557.3,577.7h3.4v10.9h0.1c1.1-2.5,4.1-3.5,6.5-3.5c5.4,0,7.1,3.1,7.1,7.6v13.6h-3.4v-14
			c0-2.6-1.6-4.2-4.2-4.2c-4.1,0-6.1,2.8-6.1,6.5v11.7h-3.4V577.7z"/>
		<path class="st9" d="M1597.8,606.2c-0.6,0.4-1.4,0.6-2.4,0.6c-1.8,0-2.9-1-2.9-3.2c-1.9,2.2-4.4,3.2-7.3,3.2
			c-3.8,0-6.8-1.6-6.8-5.8c0-4.7,3.5-5.7,7-6.4c3.7-0.8,7-0.4,7-3c0-3-2.5-3.4-4.6-3.4c-2.9,0-5,0.9-5.2,3.9h-3.4
			c0.2-5.1,4.1-6.9,8.8-6.9c3.7,0,7.8,0.8,7.8,5.7v10.6c0,1.6,0,2.3,1.1,2.3c0.3,0,0.7-0.1,1-0.2V606.2z M1592.3,595.6
			c-2.6,2-10.3,0-10.3,5.1c0,2.2,1.9,3,4,3c4.5,0,6.3-2.8,6.3-4.7V595.6z"/>
		<path class="st9" d="M1603.1,599.7c0.1,3,2.8,4,5.6,4c2.1,0,5-0.5,5-3.1c0-5.3-13.5-1.7-13.5-9.7c0-4.2,4.1-5.9,7.7-5.9
			c4.6,0,8.2,1.4,8.5,6.5h-3.4c-0.2-2.6-2.6-3.5-4.8-3.5c-2,0-4.4,0.6-4.4,2.6c0,2.4,3.6,2.9,6.8,3.6c3.4,0.8,6.8,1.9,6.8,5.9
			c0,5-4.6,6.5-8.8,6.5c-4.6,0-8.6-1.9-8.8-7H1603.1z"/>
		<path class="st9" d="M1632.2,577.7h3.4v10.7h0.1c1.1-2.3,3.7-3.3,6.6-3.3c6.4,0,9.5,5,9.5,10.9c0,5.9-3.1,10.8-9.4,10.8
			c-2.1,0-5.2-0.8-6.7-3.2h-0.1v2.8h-3.4V577.7z M1641.8,588.1c-4.6,0-6.3,4-6.3,7.8c0,4,1.8,7.8,6.5,7.8c4.6,0,6.2-4,6.2-8
			C1648.2,591.8,1646.2,588.1,1641.8,588.1z"/>
		<path class="st9" d="M1673.5,599.7c-0.9,4.6-4.2,7-8.8,7c-6.6,0-9.7-4.6-9.9-10.9c0-6.2,4.1-10.8,9.7-10.8c7.3,0,9.6,6.8,9.4,11.8
			h-15.5c-0.1,3.6,1.9,6.8,6.4,6.8c2.8,0,4.8-1.3,5.4-4H1673.5z M1670.2,593.9c-0.2-3.2-2.6-5.8-6-5.8c-3.5,0-5.7,2.6-5.9,5.8
			H1670.2z"/>
		<path class="st9" d="M1694.9,599.7c-0.9,4.6-4.2,7-8.8,7c-6.6,0-9.7-4.6-9.9-10.9c0-6.2,4.1-10.8,9.7-10.8c7.3,0,9.6,6.8,9.4,11.8
			h-15.5c-0.1,3.6,1.9,6.8,6.4,6.8c2.8,0,4.8-1.3,5.4-4H1694.9z M1691.7,593.9c-0.2-3.2-2.6-5.8-6-5.8c-3.5,0-5.7,2.6-5.9,5.8
			H1691.7z"/>
		<path class="st9" d="M1698.8,585.6h3.2v3.3h0.1c1.4-2.6,3.7-3.8,6.7-3.8c5.4,0,7.1,3.1,7.1,7.6v13.6h-3.4v-14
			c0-2.6-1.6-4.2-4.2-4.2c-4.1,0-6.1,2.8-6.1,6.5v11.7h-3.4V585.6z"/>
		<path class="st9" d="M1263.2,642.2c-0.5-2.6-2.3-4.1-5.1-4.1c-4.9,0-6.4,3.9-6.4,8.1c0,3.8,1.7,7.6,6,7.6c3.3,0,5.2-1.9,5.7-5h3.5
			c-0.8,5.1-3.9,8-9.1,8c-6.3,0-9.7-4.4-9.7-10.6s3.2-11.1,9.8-11.1c4.7,0,8.4,2.2,8.9,7.1H1263.2z"/>
		<path class="st9" d="M1279.6,635.1c6.6,0,10,4.8,10,10.8c0,6-3.5,10.8-10,10.8c-6.6,0-10-4.8-10-10.8
			C1269.5,639.8,1273,635.1,1279.6,635.1z M1279.6,653.7c3.6,0,6.4-2.8,6.4-7.8s-2.9-7.8-6.4-7.8c-3.6,0-6.4,2.8-6.4,7.8
			S1276,653.7,1279.6,653.7z"/>
		<path class="st9" d="M1293.6,635.6h3.2v3h0.1c1.6-2.4,3.8-3.5,6.7-3.5c2.6,0,4.8,1,5.7,3.5c1.4-2.2,3.8-3.5,6.5-3.5
			c4.1,0,6.9,1.7,6.9,6v15.2h-3.4v-13.6c0-2.6-0.7-4.6-4-4.6s-5.4,2.1-5.4,5.3v12.9h-3.4v-13.6c0-2.7-0.8-4.6-3.9-4.6
			c-4,0-5.5,3.7-5.5,5.3v12.9h-3.4V635.6z"/>
		<path class="st9" d="M1327.9,635.6h3.4v2.8h0.1c1.1-2.3,3.7-3.3,6.6-3.3c6.4,0,9.5,5,9.5,10.9c0,5.9-3.1,10.8-9.4,10.8
			c-2.1,0-5.2-0.8-6.7-3.2h-0.1v10.7h-3.4V635.6z M1337.5,638.1c-4.6,0-6.3,4-6.3,7.8c0,4,1.8,7.8,6.5,7.8c4.6,0,6.2-4,6.2-8
			C1343.9,641.8,1341.9,638.1,1337.5,638.1z"/>
		<path class="st9" d="M1351.7,627.7h3.4v28.6h-3.4V627.7z"/>
		<path class="st9" d="M1378,649.7c-0.9,4.6-4.2,7-8.8,7c-6.6,0-9.7-4.6-9.9-10.9c0-6.2,4.1-10.8,9.7-10.8c7.3,0,9.6,6.8,9.4,11.8
			h-15.5c-0.1,3.6,1.9,6.8,6.4,6.8c2.8,0,4.8-1.3,5.4-4H1378z M1374.7,643.9c-0.2-3.2-2.6-5.8-6-5.8c-3.5,0-5.7,2.6-5.9,5.8H1374.7z
			"/>
		<path class="st9" d="M1386.5,635.6h4.1v3h-4.1v12.8c0,1.6,0.4,1.8,2.6,1.8h1.6v3h-2.6c-3.5,0-4.9-0.7-4.9-4.5v-13.2h-3.5v-3h3.5
			v-6.2h3.4V635.6z"/>
		<path class="st9" d="M1412.1,649.7c-0.9,4.6-4.2,7-8.8,7c-6.6,0-9.7-4.6-9.9-10.9c0-6.2,4.1-10.8,9.7-10.8c7.3,0,9.6,6.8,9.4,11.8
			h-15.5c-0.1,3.6,1.9,6.8,6.4,6.8c2.8,0,4.8-1.3,5.4-4H1412.1z M1408.8,643.9c-0.2-3.2-2.6-5.8-6-5.8c-3.5,0-5.7,2.6-5.9,5.8
			H1408.8z"/>
		<path class="st9" d="M1434.4,656.2h-3.4v-2.8h-0.1c-1.1,2.3-3.7,3.3-6.6,3.3c-6.4,0-9.5-5-9.5-10.9s3.1-10.8,9.4-10.8
			c2.1,0,5.2,0.8,6.7,3.2h0.1v-10.6h3.4V656.2z M1424.8,653.7c4.6,0,6.3-4,6.3-7.8c0-4-1.8-7.8-6.5-7.8c-4.6,0-6.2,4-6.2,8
			C1418.4,650,1420.4,653.7,1424.8,653.7z"/>
		<path class="st9" d="M1440.4,651.8h4.4v4c0,3-1.3,5.4-4.4,6.3v-2c1.8-0.6,2.4-2.6,2.3-3.9h-2.4V651.8z"/>
		<path class="st9" d="M1466.6,635.6h4.1v3h-4.1v12.8c0,1.6,0.4,1.8,2.6,1.8h1.6v3h-2.6c-3.5,0-4.9-0.7-4.9-4.5v-13.2h-3.5v-3h3.5
			v-6.2h3.4V635.6z"/>
		<path class="st9" d="M1474.5,627.7h3.4v10.9h0.1c1.1-2.5,4.1-3.5,6.5-3.5c5.4,0,7.1,3.1,7.1,7.6v13.6h-3.4v-14
			c0-2.6-1.6-4.2-4.2-4.2c-4.1,0-6.1,2.8-6.1,6.5v11.7h-3.4V627.7z"/>
		<path class="st9" d="M1514.3,649.7c-0.9,4.6-4.2,7-8.8,7c-6.6,0-9.7-4.6-9.9-10.9c0-6.2,4.1-10.8,9.7-10.8c7.3,0,9.6,6.8,9.4,11.8
			h-15.5c-0.1,3.6,1.9,6.8,6.4,6.8c2.8,0,4.8-1.3,5.4-4H1514.3z M1511.1,643.9c-0.2-3.2-2.6-5.8-6-5.8c-3.5,0-5.7,2.6-5.9,5.8
			H1511.1z"/>
		<path class="st9" d="M1529.9,627.7h13.4c5.4,0,8.7,2.9,8.7,7.5c0,3.5-1.5,6.3-5,7.2v0.1c3.3,0.6,4,3.1,4.3,5.9
			c0.2,2.8,0.1,6,1.7,7.9h-4.2c-1.1-1.2-0.5-4.2-1-7c-0.4-2.8-1.1-5.2-4.8-5.2h-9.3v12.2h-3.8V627.7z M1541.6,640.8
			c3.5,0,6.6-0.9,6.6-5.1c0-2.8-1.5-4.9-5.1-4.9h-9.4v10H1541.6z"/>
		<path class="st9" d="M1574.3,649.7c-0.9,4.6-4.2,7-8.8,7c-6.6,0-9.7-4.6-9.9-10.9c0-6.2,4.1-10.8,9.7-10.8c7.3,0,9.6,6.8,9.4,11.8
			h-15.5c-0.1,3.6,1.9,6.8,6.4,6.8c2.8,0,4.8-1.3,5.4-4H1574.3z M1571.1,643.9c-0.2-3.2-2.6-5.8-6-5.8c-3.5,0-5.7,2.6-5.9,5.8
			H1571.1z"/>
		<path class="st9" d="M1578.4,627.7h3.4v28.6h-3.4V627.7z"/>
		<path class="st9" d="M1604.7,649.7c-0.9,4.6-4.2,7-8.8,7c-6.6,0-9.7-4.6-9.9-10.9c0-6.2,4.1-10.8,9.7-10.8c7.3,0,9.6,6.8,9.4,11.8
			h-15.5c-0.1,3.6,1.9,6.8,6.4,6.8c2.8,0,4.8-1.3,5.4-4H1604.7z M1601.4,643.9c-0.2-3.2-2.6-5.8-6-5.8c-3.5,0-5.7,2.6-5.9,5.8
			H1601.4z"/>
		<path class="st9" d="M1626.9,656.2c-0.6,0.4-1.4,0.6-2.4,0.6c-1.8,0-2.9-1-2.9-3.2c-1.9,2.2-4.4,3.2-7.3,3.2
			c-3.8,0-6.8-1.6-6.8-5.8c0-4.7,3.5-5.7,7-6.4c3.7-0.8,7-0.4,7-3c0-3-2.5-3.4-4.6-3.4c-2.9,0-5,0.9-5.2,3.9h-3.4
			c0.2-5.1,4.1-6.9,8.8-6.9c3.7,0,7.8,0.8,7.8,5.7v10.6c0,1.6,0,2.3,1.1,2.3c0.3,0,0.7-0.1,1-0.2V656.2z M1621.3,645.6
			c-2.6,2-10.3,0-10.3,5.1c0,2.2,1.9,3,4,3c4.5,0,6.3-2.8,6.3-4.7V645.6z"/>
		<path class="st9" d="M1632.1,649.7c0.1,3,2.8,4,5.6,4c2.1,0,5-0.5,5-3.1c0-5.3-13.5-1.7-13.5-9.7c0-4.2,4.1-5.9,7.7-5.9
			c4.6,0,8.2,1.4,8.5,6.5h-3.4c-0.2-2.6-2.6-3.5-4.8-3.5c-2,0-4.4,0.6-4.4,2.6c0,2.4,3.6,2.9,6.8,3.6c3.4,0.8,6.8,1.9,6.8,5.9
			c0,5-4.6,6.5-8.8,6.5c-4.6,0-8.6-1.9-8.8-7H1632.1z"/>
		<path class="st9" d="M1667.7,649.7c-0.9,4.6-4.2,7-8.8,7c-6.6,0-9.7-4.6-9.9-10.9c0-6.2,4.1-10.8,9.7-10.8c7.3,0,9.6,6.8,9.4,11.8
			h-15.5c-0.1,3.6,1.9,6.8,6.4,6.8c2.8,0,4.8-1.3,5.4-4H1667.7z M1664.4,643.9c-0.2-3.2-2.6-5.8-6-5.8c-3.5,0-5.7,2.6-5.9,5.8
			H1664.4z"/>
		<path class="st9" d="M1249.9,677.7h3.8v28.6h-3.8V677.7z"/>
		<path class="st9" d="M1259.5,685.6h3.2v3.3h0.1c1.4-2.6,3.7-3.8,6.7-3.8c5.4,0,7.1,3.1,7.1,7.6v13.6h-3.4v-14
			c0-2.6-1.6-4.2-4.2-4.2c-4.1,0-6.1,2.8-6.1,6.5v11.7h-3.4V685.6z"/>
		<path class="st9" d="M1300.3,706.2h-3.4v-2.8h-0.1c-1.1,2.3-3.7,3.3-6.6,3.3c-6.4,0-9.5-5-9.5-10.9s3.1-10.8,9.4-10.8
			c2.1,0,5.2,0.8,6.7,3.2h0.1v-10.6h3.4V706.2z M1290.7,703.7c4.6,0,6.3-4,6.3-7.8c0-4-1.8-7.8-6.5-7.8c-4.6,0-6.2,4-6.2,8
			C1284.3,700,1286.3,703.7,1290.7,703.7z"/>
		<path class="st9" d="M1309.1,681.8h-3.4v-4.2h3.4V681.8z M1305.7,685.6h3.4v20.7h-3.4V685.6z"/>
		<path class="st9" d="M1323.7,706.2h-3.6l-7.7-20.7h3.8l5.8,17.2h0.1l5.6-17.2h3.6L1323.7,706.2z"/>
		<path class="st9" d="M1338,681.8h-3.4v-4.2h3.4V681.8z M1334.6,685.6h3.4v20.7h-3.4V685.6z"/>
		<path class="st9" d="M1361.7,706.2h-3.4v-2.8h-0.1c-1.1,2.3-3.7,3.3-6.6,3.3c-6.4,0-9.5-5-9.5-10.9s3.1-10.8,9.4-10.8
			c2.1,0,5.2,0.8,6.7,3.2h0.1v-10.6h3.4V706.2z M1352.1,703.7c4.6,0,6.3-4,6.3-7.8c0-4-1.8-7.8-6.5-7.8c-4.6,0-6.2,4-6.2,8
			C1345.7,700,1347.7,703.7,1352.1,703.7z"/>
		<path class="st9" d="M1384.1,706.2h-3.2V703h-0.1c-1.4,2.6-3.7,3.8-6.7,3.8c-5.4,0-7.1-3.1-7.1-7.6v-13.6h3.4v14
			c0,2.6,1.6,4.2,4.2,4.2c4.1,0,6.1-2.8,6.1-6.5v-11.7h3.4V706.2z"/>
		<path class="st9" d="M1407.5,706.2c-0.6,0.4-1.4,0.6-2.4,0.6c-1.8,0-2.9-1-2.9-3.2c-1.9,2.2-4.4,3.2-7.3,3.2
			c-3.8,0-6.8-1.6-6.8-5.8c0-4.7,3.5-5.7,7-6.4c3.7-0.8,7-0.4,7-3c0-3-2.5-3.4-4.6-3.4c-2.9,0-5,0.9-5.2,3.9h-3.4
			c0.2-5.1,4.1-6.9,8.8-6.9c3.7,0,7.8,0.8,7.8,5.7v10.6c0,1.6,0,2.3,1.1,2.3c0.3,0,0.7-0.1,1-0.2V706.2z M1402,695.6
			c-2.6,2-10.3,0-10.3,5.1c0,2.2,1.9,3,4,3c4.5,0,6.3-2.8,6.3-4.7V695.6z"/>
		<path class="st9" d="M1410.9,677.7h3.4v28.6h-3.4V677.7z"/>
		<path class="st9" d="M1449.2,706.2h-3.4v-2.8h-0.1c-1.1,2.3-3.7,3.3-6.6,3.3c-6.4,0-9.5-5-9.5-10.9s3.1-10.8,9.4-10.8
			c2.1,0,5.2,0.8,6.7,3.2h0.1v-10.6h3.4V706.2z M1439.6,703.7c4.6,0,6.3-4,6.3-7.8c0-4-1.8-7.8-6.5-7.8c-4.6,0-6.2,4-6.2,8
			C1433.2,700,1435.2,703.7,1439.6,703.7z"/>
		<path class="st9" d="M1472.1,699.7c-0.9,4.6-4.2,7-8.8,7c-6.6,0-9.7-4.6-9.9-10.9c0-6.2,4.1-10.8,9.7-10.8c7.3,0,9.6,6.8,9.4,11.8
			h-15.5c-0.1,3.6,1.9,6.8,6.4,6.8c2.8,0,4.8-1.3,5.4-4H1472.1z M1468.8,693.9c-0.2-3.2-2.6-5.8-6-5.8c-3.5,0-5.7,2.6-5.9,5.8
			H1468.8z"/>
		<path class="st9" d="M1476,685.6h3.4v2.8h0.1c1.1-2.3,3.7-3.3,6.6-3.3c6.4,0,9.5,5,9.5,10.9c0,5.9-3.1,10.8-9.4,10.8
			c-2.1,0-5.2-0.8-6.7-3.2h-0.1v10.7h-3.4V685.6z M1485.6,688.1c-4.6,0-6.3,4-6.3,7.8c0,4,1.8,7.8,6.5,7.8c4.6,0,6.2-4,6.2-8
			C1492,691.8,1490,688.1,1485.6,688.1z"/>
		<path class="st9" d="M1499.8,677.7h3.4v28.6h-3.4V677.7z"/>
		<path class="st9" d="M1517.4,685.1c6.6,0,10,4.8,10,10.8c0,6-3.5,10.8-10,10.8c-6.6,0-10-4.8-10-10.8
			C1507.4,689.8,1510.9,685.1,1517.4,685.1z M1517.4,703.7c3.6,0,6.4-2.8,6.4-7.8s-2.9-7.8-6.4-7.8c-3.6,0-6.4,2.8-6.4,7.8
			S1513.9,703.7,1517.4,703.7z"/>
		<path class="st9" d="M1539.6,709c-1.6,4-3,5.5-6,5.5c-0.8,0-1.6-0.1-2.4-0.4V711c0.6,0.2,1.3,0.5,2,0.5c1.4,0,2.2-0.6,2.8-1.9
			l1.4-3.5l-8.2-20.6h3.8l6,16.9h0.1l5.8-16.9h3.6L1539.6,709z"/>
		<path class="st9" d="M1553.5,699.7c0.1,3,2.8,4,5.6,4c2.1,0,5-0.5,5-3.1c0-5.3-13.5-1.7-13.5-9.7c0-4.2,4.1-5.9,7.7-5.9
			c4.6,0,8.2,1.4,8.5,6.5h-3.4c-0.2-2.6-2.6-3.5-4.8-3.5c-2,0-4.4,0.6-4.4,2.6c0,2.4,3.6,2.9,6.8,3.6c3.4,0.8,6.8,1.9,6.8,5.9
			c0,5-4.6,6.5-8.8,6.5c-4.6,0-8.6-1.9-8.8-7H1553.5z"/>
		<path class="st9" d="M1600.9,706.2c-0.6,0.4-1.4,0.6-2.4,0.6c-1.8,0-2.9-1-2.9-3.2c-1.9,2.2-4.4,3.2-7.3,3.2
			c-3.8,0-6.8-1.6-6.8-5.8c0-4.7,3.5-5.7,7-6.4c3.7-0.8,7-0.4,7-3c0-3-2.5-3.4-4.6-3.4c-2.9,0-5,0.9-5.2,3.9h-3.4
			c0.2-5.1,4.1-6.9,8.8-6.9c3.7,0,7.8,0.8,7.8,5.7v10.6c0,1.6,0,2.3,1.1,2.3c0.3,0,0.7-0.1,1-0.2V706.2z M1595.4,695.6
			c-2.6,2-10.3,0-10.3,5.1c0,2.2,1.9,3,4,3c4.5,0,6.3-2.8,6.3-4.7V695.6z"/>
		<path class="st9" d="M1604.1,685.6h3.2v3.3h0.1c1.4-2.6,3.7-3.8,6.7-3.8c5.4,0,7.1,3.1,7.1,7.6v13.6h-3.4v-14
			c0-2.6-1.6-4.2-4.2-4.2c-4.1,0-6.1,2.8-6.1,6.5v11.7h-3.4V685.6z"/>
		<path class="st9" d="M1261.8,727c9.1,0,13.7,7.2,13.7,15s-4.6,15-13.7,15c-9.1,0-13.7-7.2-13.7-15S1252.7,727,1261.8,727z
			 M1261.8,753.7c7,0,9.9-6,9.9-11.8c0-5.8-2.9-11.8-9.9-11.8s-9.9,6-9.9,11.8C1251.9,747.7,1254.9,753.7,1261.8,753.7z"/>
		<path class="st9" d="M1281,738.6h-3.5v-3h3.5v-3.1c0-3.4,2-5.1,5.7-5.1c0.6,0,1.6,0.1,2.2,0.3v3c-0.6-0.2-1.3-0.3-1.9-0.3
			c-1.6,0-2.6,0.5-2.6,2.3v2.9h4v3h-4v17.7h-3.4V738.6z"/>
		<path class="st9" d="M1292.8,738.6h-3.5v-3h3.5v-3.1c0-3.4,2-5.1,5.7-5.1c0.6,0,1.6,0.1,2.2,0.3v3c-0.6-0.2-1.3-0.3-1.9-0.3
			c-1.6,0-2.6,0.5-2.6,2.3v2.9h4v3h-4v17.7h-3.4V738.6z"/>
		<path class="st9" d="M1320.9,749.7c-0.9,4.6-4.2,7-8.8,7c-6.6,0-9.7-4.6-9.9-10.9c0-6.2,4.1-10.8,9.7-10.8c7.3,0,9.6,6.8,9.4,11.8
			h-15.5c-0.1,3.6,1.9,6.8,6.4,6.8c2.8,0,4.8-1.3,5.4-4H1320.9z M1317.6,743.9c-0.2-3.2-2.6-5.8-6-5.8c-3.5,0-5.7,2.6-5.9,5.8
			H1317.6z"/>
		<path class="st9" d="M1324.6,735.6h3.2v4.4h0.1c1.6-3.4,3.9-5,7.6-4.8v3.6c-5.5,0-7.5,3.1-7.5,8.4v9.2h-3.4V735.6z"/>
		<path class="st9" d="M1341.7,731.8h-3.4v-4.2h3.4V731.8z M1338.3,735.6h3.4v20.7h-3.4V735.6z"/>
		<path class="st9" d="M1346.9,735.6h3.2v3.3h0.1c1.4-2.6,3.7-3.8,6.7-3.8c5.4,0,7.1,3.1,7.1,7.6v13.6h-3.4v-14
			c0-2.6-1.6-4.2-4.2-4.2c-4.1,0-6.1,2.8-6.1,6.5v11.7h-3.4V735.6z"/>
		<path class="st9" d="M1387,754.5c0,6.8-3,10.2-9.6,10.2c-3.9,0-8.4-1.6-8.6-6.1h3.4c0.1,2.4,3.2,3.4,5.4,3.4
			c4.4,0,6.2-3.2,6.2-7.8v-1.4h-0.1c-1.2,2.5-3.8,3.8-6.4,3.8c-6.2,0-9.2-4.8-9.2-10.5c0-4.9,2.4-10.9,9.6-10.9
			c2.6,0,4.9,1.2,6.2,3.4h0v-3h3.2V754.5z M1383.7,745.5c0-3.6-1.6-7.4-5.9-7.4c-4.4,0-6.1,3.6-6.1,7.5c0,3.7,1.4,7.9,5.8,7.9
			S1383.7,749.4,1383.7,745.5z"/>
		<path class="st9" d="M1404.7,738.6h-3.5v-3h3.5v-3.1c0-3.4,2-5.1,5.7-5.1c0.6,0,1.6,0.1,2.2,0.3v3c-0.6-0.2-1.3-0.3-1.9-0.3
			c-1.6,0-2.6,0.5-2.6,2.3v2.9h4v3h-4v17.7h-3.4V738.6z"/>
		<path class="st9" d="M1415,735.6h3.2v4.4h0.1c1.6-3.4,3.9-5,7.6-4.8v3.6c-5.5,0-7.5,3.1-7.5,8.4v9.2h-3.4V735.6z"/>
		<path class="st9" d="M1437.3,735.1c6.6,0,10,4.8,10,10.8c0,6-3.5,10.8-10,10.8c-6.6,0-10-4.8-10-10.8
			C1427.3,739.8,1430.8,735.1,1437.3,735.1z M1437.3,753.7c3.6,0,6.4-2.8,6.4-7.8s-2.9-7.8-6.4-7.8c-3.6,0-6.4,2.8-6.4,7.8
			S1433.8,753.7,1437.3,753.7z"/>
		<path class="st9" d="M1451.4,735.6h3.2v3h0.1c1.6-2.4,3.8-3.5,6.7-3.5c2.6,0,4.8,1,5.7,3.5c1.4-2.2,3.8-3.5,6.5-3.5
			c4.1,0,6.9,1.7,6.9,6v15.2h-3.4v-13.6c0-2.6-0.7-4.6-4-4.6s-5.4,2.1-5.4,5.3v12.9h-3.4v-13.6c0-2.7-0.8-4.6-3.9-4.6
			c-4,0-5.5,3.7-5.5,5.3v12.9h-3.4V735.6z"/>
		<path class="st9" d="M1501.3,735.6h4.1v3h-4.1v12.8c0,1.6,0.4,1.8,2.6,1.8h1.6v3h-2.6c-3.5,0-4.9-0.7-4.9-4.5v-13.2h-3.5v-3h3.5
			v-6.2h3.4V735.6z"/>
		<path class="st9" d="M1509.2,727.7h3.4v10.9h0.1c1.1-2.5,4.1-3.5,6.5-3.5c5.4,0,7.1,3.1,7.1,7.6v13.6h-3.4v-14
			c0-2.6-1.6-4.2-4.2-4.2c-4.1,0-6.1,2.8-6.1,6.5v11.7h-3.4V727.7z"/>
		<path class="st9" d="M1549.1,749.7c-0.9,4.6-4.2,7-8.8,7c-6.6,0-9.7-4.6-9.9-10.9c0-6.2,4.1-10.8,9.7-10.8c7.3,0,9.6,6.8,9.4,11.8
			h-15.5c-0.1,3.6,1.9,6.8,6.4,6.8c2.8,0,4.8-1.3,5.4-4H1549.1z M1545.8,743.9c-0.2-3.2-2.6-5.8-6-5.8c-3.5,0-5.7,2.6-5.9,5.8
			H1545.8z"/>
		<path class="st9" d="M1249.3,785.6h3.4v2.8h0.1c1.1-2.3,3.7-3.3,6.6-3.3c6.4,0,9.5,5,9.5,10.9c0,5.9-3.1,10.8-9.4,10.8
			c-2.1,0-5.2-0.8-6.7-3.2h-0.1v10.7h-3.4V785.6z M1258.9,788.1c-4.6,0-6.3,4-6.3,7.8c0,4,1.8,7.8,6.5,7.8c4.6,0,6.2-4,6.2-8
			C1265.3,791.8,1263.3,788.1,1258.9,788.1z"/>
		<path class="st9" d="M1272.8,785.6h3.2v4.4h0.1c1.6-3.4,3.9-5,7.6-4.8v3.6c-5.5,0-7.5,3.1-7.5,8.4v9.2h-3.4V785.6z"/>
		<path class="st9" d="M1303.9,799.7c-0.9,4.6-4.2,7-8.8,7c-6.6,0-9.7-4.6-9.9-10.9c0-6.2,4.1-10.8,9.7-10.8c7.3,0,9.6,6.8,9.4,11.8
			h-15.5c-0.1,3.6,1.9,6.8,6.4,6.8c2.8,0,4.8-1.3,5.4-4H1303.9z M1300.6,793.9c-0.2-3.2-2.6-5.8-6-5.8c-3.5,0-5.7,2.6-5.9,5.8
			H1300.6z"/>
		<path class="st9" d="M1307.1,793.5h11.6v3.2h-11.6V793.5z"/>
		<path class="st9" d="M1323.4,785.6h3.4v2.8h0.1c1.1-2.3,3.7-3.3,6.6-3.3c6.4,0,9.5,5,9.5,10.9c0,5.9-3.1,10.8-9.4,10.8
			c-2.1,0-5.2-0.8-6.7-3.2h-0.1v10.7h-3.4V785.6z M1333,788.1c-4.6,0-6.3,4-6.3,7.8c0,4,1.8,7.8,6.5,7.8c4.6,0,6.2-4,6.2-8
			C1339.4,791.8,1337.4,788.1,1333,788.1z"/>
		<path class="st9" d="M1346.9,785.6h3.2v4.4h0.1c1.6-3.4,3.9-5,7.6-4.8v3.6c-5.5,0-7.5,3.1-7.5,8.4v9.2h-3.4V785.6z"/>
		<path class="st9" d="M1369.2,785.1c6.6,0,10,4.8,10,10.8c0,6-3.5,10.8-10,10.8c-6.6,0-10-4.8-10-10.8
			C1359.2,789.8,1362.7,785.1,1369.2,785.1z M1369.2,803.7c3.6,0,6.4-2.8,6.4-7.8s-2.9-7.8-6.4-7.8c-3.6,0-6.4,2.8-6.4,7.8
			S1365.7,803.7,1369.2,803.7z"/>
		<path class="st9" d="M1401.7,806.2h-3.4v-2.8h-0.1c-1.1,2.3-3.7,3.3-6.6,3.3c-6.4,0-9.5-5-9.5-10.9s3.1-10.8,9.4-10.8
			c2.1,0,5.2,0.8,6.7,3.2h0.1v-10.6h3.4V806.2z M1392.1,803.7c4.6,0,6.3-4,6.3-7.8c0-4-1.8-7.8-6.5-7.8c-4.6,0-6.2,4-6.2,8
			C1385.7,800,1387.7,803.7,1392.1,803.7z"/>
		<path class="st9" d="M1424.1,806.2h-3.2V803h-0.1c-1.4,2.6-3.7,3.8-6.7,3.8c-5.4,0-7.1-3.1-7.1-7.6v-13.6h3.4v14
			c0,2.6,1.6,4.2,4.2,4.2c4.1,0,6.1-2.8,6.1-6.5v-11.7h3.4V806.2z"/>
		<path class="st9" d="M1443.3,792.2c-0.5-2.6-2.3-4.1-5.1-4.1c-4.9,0-6.4,3.9-6.4,8.1c0,3.8,1.7,7.6,6,7.6c3.3,0,5.2-1.9,5.7-5h3.5
			c-0.8,5.1-3.9,8-9.1,8c-6.3,0-9.7-4.4-9.7-10.6s3.2-11.1,9.8-11.1c4.7,0,8.4,2.2,8.9,7.1H1443.3z"/>
		<path class="st9" d="M1455.4,785.6h4.1v3h-4.1v12.8c0,1.6,0.4,1.8,2.6,1.8h1.6v3h-2.6c-3.5,0-4.9-0.7-4.9-4.5v-13.2h-3.5v-3h3.5
			v-6.2h3.4V785.6z"/>
		<path class="st9" d="M1466.9,781.8h-3.4v-4.2h3.4V781.8z M1463.5,785.6h3.4v20.7h-3.4V785.6z"/>
		<path class="st9" d="M1481.1,785.1c6.6,0,10,4.8,10,10.8c0,6-3.5,10.8-10,10.8c-6.6,0-10-4.8-10-10.8
			C1471.1,789.8,1474.5,785.1,1481.1,785.1z M1481.1,803.7c3.6,0,6.4-2.8,6.4-7.8s-2.9-7.8-6.4-7.8c-3.6,0-6.4,2.8-6.4,7.8
			S1477.5,803.7,1481.1,803.7z"/>
		<path class="st9" d="M1495.1,785.6h3.2v3.3h0.1c1.4-2.6,3.7-3.8,6.7-3.8c5.4,0,7.1,3.1,7.1,7.6v13.6h-3.4v-14
			c0-2.6-1.6-4.2-4.2-4.2c-4.1,0-6.1,2.8-6.1,6.5v11.7h-3.4V785.6z"/>
		<path class="st9" d="M1533.2,785.6h4.1v3h-4.1v12.8c0,1.6,0.4,1.8,2.6,1.8h1.6v3h-2.6c-3.5,0-4.9-0.7-4.9-4.5v-13.2h-3.5v-3h3.5
			v-6.2h3.4V785.6z"/>
		<path class="st9" d="M1550,785.1c6.6,0,10,4.8,10,10.8c0,6-3.5,10.8-10,10.8c-6.6,0-10-4.8-10-10.8
			C1540,789.8,1543.5,785.1,1550,785.1z M1550,803.7c3.6,0,6.4-2.8,6.4-7.8s-2.9-7.8-6.4-7.8c-3.6,0-6.4,2.8-6.4,7.8
			S1546.5,803.7,1550,803.7z"/>
		<path class="st9" d="M1579.9,785.6h4.1v3h-4.1v12.8c0,1.6,0.4,1.8,2.6,1.8h1.6v3h-2.6c-3.5,0-4.9-0.7-4.9-4.5v-13.2h-3.5v-3h3.5
			v-6.2h3.4V785.6z"/>
		<path class="st9" d="M1587.8,777.7h3.4v10.9h0.1c1.1-2.5,4.1-3.5,6.5-3.5c5.4,0,7.1,3.1,7.1,7.6v13.6h-3.4v-14
			c0-2.6-1.6-4.2-4.2-4.2c-4.1,0-6.1,2.8-6.1,6.5v11.7h-3.4V777.7z"/>
		<path class="st9" d="M1627.7,799.7c-0.9,4.6-4.2,7-8.8,7c-6.6,0-9.7-4.6-9.9-10.9c0-6.2,4.1-10.8,9.7-10.8c7.3,0,9.6,6.8,9.4,11.8
			h-15.5c-0.1,3.6,1.9,6.8,6.4,6.8c2.8,0,4.8-1.3,5.4-4H1627.7z M1624.4,793.9c-0.2-3.2-2.6-5.8-6-5.8c-3.5,0-5.7,2.6-5.9,5.8
			H1624.4z"/>
		<path class="st9" d="M1656.7,792.2c-0.5-2.6-2.3-4.1-5.1-4.1c-4.9,0-6.4,3.9-6.4,8.1c0,3.8,1.7,7.6,6,7.6c3.3,0,5.2-1.9,5.7-5h3.5
			c-0.8,5.1-3.9,8-9.1,8c-6.3,0-9.7-4.4-9.7-10.6s3.2-11.1,9.8-11.1c4.7,0,8.4,2.2,8.9,7.1H1656.7z"/>
		<path class="st9" d="M1664.3,777.7h3.4v28.6h-3.4V777.7z"/>
		<path class="st9" d="M1676.6,781.8h-3.4v-4.2h3.4V781.8z M1673.2,785.6h3.4v20.7h-3.4V785.6z"/>
		<path class="st9" d="M1699.5,799.7c-0.9,4.6-4.2,7-8.8,7c-6.6,0-9.7-4.6-9.9-10.9c0-6.2,4.1-10.8,9.7-10.8c7.3,0,9.6,6.8,9.4,11.8
			h-15.5c-0.1,3.6,1.9,6.8,6.4,6.8c2.8,0,4.8-1.3,5.4-4H1699.5z M1696.2,793.9c-0.2-3.2-2.6-5.8-6-5.8c-3.5,0-5.7,2.6-5.9,5.8
			H1696.2z"/>
		<path class="st9" d="M1703.3,785.6h3.2v3.3h0.1c1.4-2.6,3.7-3.8,6.7-3.8c5.4,0,7.1,3.1,7.1,7.6v13.6h-3.4v-14
			c0-2.6-1.6-4.2-4.2-4.2c-4.1,0-6.1,2.8-6.1,6.5v11.7h-3.4V785.6z"/>
		<path class="st9" d="M1730.3,785.6h4.1v3h-4.1v12.8c0,1.6,0.4,1.8,2.6,1.8h1.6v3h-2.6c-3.5,0-4.9-0.7-4.9-4.5v-13.2h-3.5v-3h3.5
			v-6.2h3.4V785.6z"/>
		<path class="st9" d="M1249.3,835.6h3.4v2.8h0.1c1.1-2.3,3.7-3.3,6.6-3.3c6.4,0,9.5,5,9.5,10.9c0,5.9-3.1,10.8-9.4,10.8
			c-2.1,0-5.2-0.8-6.7-3.2h-0.1v10.7h-3.4V835.6z M1258.9,838.1c-4.6,0-6.3,4-6.3,7.8c0,4,1.8,7.8,6.5,7.8c4.6,0,6.2-4,6.2-8
			C1265.3,841.8,1263.3,838.1,1258.9,838.1z"/>
		<path class="st9" d="M1272.8,835.6h3.2v4.4h0.1c1.6-3.4,3.9-5,7.6-4.8v3.6c-5.5,0-7.5,3.1-7.5,8.4v9.2h-3.4V835.6z"/>
		<path class="st9" d="M1295.1,835.1c6.6,0,10,4.8,10,10.8c0,6-3.5,10.8-10,10.8c-6.6,0-10-4.8-10-10.8
			C1285.1,839.8,1288.6,835.1,1295.1,835.1z M1295.1,853.7c3.6,0,6.4-2.8,6.4-7.8s-2.9-7.8-6.4-7.8c-3.6,0-6.4,2.8-6.4,7.8
			S1291.6,853.7,1295.1,853.7z"/>
		<path class="st9" d="M1327.7,856.2h-3.4v-2.8h-0.1c-1.1,2.3-3.7,3.3-6.6,3.3c-6.4,0-9.5-5-9.5-10.9s3.1-10.8,9.4-10.8
			c2.1,0,5.2,0.8,6.7,3.2h0.1v-10.6h3.4V856.2z M1318.1,853.7c4.6,0,6.3-4,6.3-7.8c0-4-1.8-7.8-6.5-7.8c-4.6,0-6.2,4-6.2,8
			C1311.7,850,1313.7,853.7,1318.1,853.7z"/>
		<path class="st9" d="M1350,856.2h-3.2V853h-0.1c-1.4,2.6-3.7,3.8-6.7,3.8c-5.4,0-7.1-3.1-7.1-7.6v-13.6h3.4v14
			c0,2.6,1.6,4.2,4.2,4.2c4.1,0,6.1-2.8,6.1-6.5v-11.7h3.4V856.2z"/>
		<path class="st9" d="M1369.2,842.2c-0.5-2.6-2.3-4.1-5.1-4.1c-4.9,0-6.4,3.9-6.4,8.1c0,3.8,1.7,7.6,6,7.6c3.3,0,5.2-1.9,5.7-5h3.5
			c-0.8,5.1-3.9,8-9.1,8c-6.3,0-9.7-4.4-9.7-10.6s3.2-11.1,9.8-11.1c4.7,0,8.4,2.2,8.9,7.1H1369.2z"/>
		<path class="st9" d="M1381.3,835.6h4.1v3h-4.1v12.8c0,1.6,0.4,1.8,2.6,1.8h1.6v3h-2.6c-3.5,0-4.9-0.7-4.9-4.5v-13.2h-3.5v-3h3.5
			v-6.2h3.4V835.6z"/>
		<path class="st9" d="M1392.8,831.8h-3.4v-4.2h3.4V831.8z M1389.4,835.6h3.4v20.7h-3.4V835.6z"/>
		<path class="st9" d="M1407,835.1c6.6,0,10,4.8,10,10.8c0,6-3.5,10.8-10,10.8c-6.6,0-10-4.8-10-10.8
			C1397,839.8,1400.5,835.1,1407,835.1z M1407,853.7c3.6,0,6.4-2.8,6.4-7.8s-2.9-7.8-6.4-7.8c-3.6,0-6.4,2.8-6.4,7.8
			S1403.5,853.7,1407,853.7z"/>
		<path class="st9" d="M1421.1,835.6h3.2v3.3h0.1c1.4-2.6,3.7-3.8,6.7-3.8c5.4,0,7.1,3.1,7.1,7.6v13.6h-3.4v-14
			c0-2.6-1.6-4.2-4.2-4.2c-4.1,0-6.1,2.8-6.1,6.5v11.7h-3.4V835.6z"/>
		<path class="st9" d="M1472.1,849.7c-0.9,4.6-4.2,7-8.8,7c-6.6,0-9.7-4.6-9.9-10.9c0-6.2,4.1-10.8,9.7-10.8c7.3,0,9.6,6.8,9.4,11.8
			h-15.5c-0.1,3.6,1.9,6.8,6.4,6.8c2.8,0,4.8-1.3,5.4-4H1472.1z M1468.8,843.9c-0.2-3.2-2.6-5.8-6-5.8c-3.5,0-5.7,2.6-5.9,5.8
			H1468.8z"/>
		<path class="st9" d="M1475.9,835.6h3.2v3.3h0.1c1.4-2.6,3.7-3.8,6.7-3.8c5.4,0,7.1,3.1,7.1,7.6v13.6h-3.4v-14
			c0-2.6-1.6-4.2-4.2-4.2c-4.1,0-6.1,2.8-6.1,6.5v11.7h-3.4V835.6z"/>
		<path class="st9" d="M1507.5,856.2h-3.6l-7.7-20.7h3.8l5.8,17.2h0.1l5.6-17.2h3.6L1507.5,856.2z"/>
		<path class="st9" d="M1521.7,831.8h-3.4v-4.2h3.4V831.8z M1518.3,835.6h3.4v20.7h-3.4V835.6z"/>
		<path class="st9" d="M1526.9,835.6h3.2v4.4h0.1c1.6-3.4,3.9-5,7.6-4.8v3.6c-5.5,0-7.5,3.1-7.5,8.4v9.2h-3.4V835.6z"/>
		<path class="st9" d="M1549.3,835.1c6.6,0,10,4.8,10,10.8c0,6-3.5,10.8-10,10.8c-6.6,0-10-4.8-10-10.8
			C1539.2,839.8,1542.7,835.1,1549.3,835.1z M1549.3,853.7c3.6,0,6.4-2.8,6.4-7.8s-2.9-7.8-6.4-7.8c-3.6,0-6.4,2.8-6.4,7.8
			S1545.7,853.7,1549.3,853.7z"/>
		<path class="st9" d="M1563.3,835.6h3.2v3.3h0.1c1.4-2.6,3.7-3.8,6.7-3.8c5.4,0,7.1,3.1,7.1,7.6v13.6h-3.4v-14
			c0-2.6-1.6-4.2-4.2-4.2c-4.1,0-6.1,2.8-6.1,6.5v11.7h-3.4V835.6z"/>
		<path class="st9" d="M1585.5,835.6h3.2v3h0.1c1.6-2.4,3.8-3.5,6.7-3.5c2.6,0,4.8,1,5.7,3.5c1.4-2.2,3.8-3.5,6.5-3.5
			c4.1,0,6.9,1.7,6.9,6v15.2h-3.4v-13.6c0-2.6-0.7-4.6-4-4.6s-5.4,2.1-5.4,5.3v12.9h-3.4v-13.6c0-2.7-0.8-4.6-3.9-4.6
			c-4,0-5.5,3.7-5.5,5.3v12.9h-3.4V835.6z"/>
		<path class="st9" d="M1637.3,849.7c-0.9,4.6-4.2,7-8.8,7c-6.6,0-9.7-4.6-9.9-10.9c0-6.2,4.1-10.8,9.7-10.8c7.3,0,9.6,6.8,9.4,11.8
			h-15.5c-0.1,3.6,1.9,6.8,6.4,6.8c2.8,0,4.8-1.3,5.4-4H1637.3z M1634,843.9c-0.2-3.2-2.6-5.8-6-5.8c-3.5,0-5.7,2.6-5.9,5.8H1634z"
			/>
		<path class="st9" d="M1641.1,835.6h3.2v3.3h0.1c1.4-2.6,3.7-3.8,6.7-3.8c5.4,0,7.1,3.1,7.1,7.6v13.6h-3.4v-14
			c0-2.6-1.6-4.2-4.2-4.2c-4.1,0-6.1,2.8-6.1,6.5v11.7h-3.4V835.6z"/>
		<path class="st9" d="M1668.1,835.6h4.1v3h-4.1v12.8c0,1.6,0.4,1.8,2.6,1.8h1.6v3h-2.6c-3.5,0-4.9-0.7-4.9-4.5v-13.2h-3.5v-3h3.5
			v-6.2h3.4V835.6z"/>
	</g>
</g>
<g>
	<rect x="243.1" y="606.2" class="st10" width="548" height="379.5"/>
	<path class="st9" d="M252.2,611.5h-8.6v-5.3H267v5.3h-8.6v23.3h-6.3V611.5z"/>
	<path class="st9" d="M269.7,606.2h5.7V617h0.1c1.4-2.4,3.9-3.4,6-3.4c6,0,7.6,3.4,7.6,8.5v12.7h-5.7v-11.7c0-3.4-1-5.1-3.6-5.1
		c-3.1,0-4.4,1.7-4.4,5.9v10.8h-5.7V606.2z"/>
	<path class="st9" d="M298.1,625.8c0.2,3.6,1.9,5.2,5.1,5.2c2.3,0,4.1-1.4,4.5-2.7h5c-1.6,4.9-5,7-9.7,7c-6.5,0-10.6-4.5-10.6-10.9
		c0-6.2,4.3-10.9,10.6-10.9c7,0,10.5,5.9,10,12.3H298.1z M307.3,622.2c-0.5-2.9-1.8-4.4-4.5-4.4c-3.7,0-4.6,2.8-4.7,4.4H307.3z"/>
	<path class="st9" d="M328.1,606.2h15.4c5.1,0,8.4,3.6,8.4,7.9c0,3.4-1.3,5.9-4.5,7.2v0.1c3.1,0.8,4,3.8,4.2,6.7
		c0.1,1.8,0,5.2,1.2,6.8h-6.3c-0.7-1.8-0.7-4.6-1-6.8c-0.4-3-1.6-4.3-4.8-4.3h-6.3v11.2h-6.3V606.2z M334.4,619.2h6.9
		c2.8,0,4.3-1.2,4.3-4.1c0-2.8-1.5-4-4.3-4h-6.9V619.2z"/>
	<path class="st9" d="M361.1,625.8c0.2,3.6,1.9,5.2,5.1,5.2c2.3,0,4.1-1.4,4.5-2.7h5c-1.6,4.9-5,7-9.7,7c-6.5,0-10.6-4.5-10.6-10.9
		c0-6.2,4.3-10.9,10.6-10.9c7,0,10.5,5.9,10,12.3H361.1z M370.3,622.2c-0.5-2.9-1.8-4.4-4.5-4.4c-3.7,0-4.6,2.8-4.7,4.4H370.3z"/>
	<path class="st9" d="M379.5,606.2h5.7v28.6h-5.7V606.2z"/>
	<path class="st9" d="M394.3,625.8c0.2,3.6,1.9,5.2,5.1,5.2c2.3,0,4.1-1.4,4.5-2.7h5c-1.6,4.9-5,7-9.7,7c-6.5,0-10.6-4.5-10.6-10.9
		c0-6.2,4.3-10.9,10.6-10.9c7,0,10.5,5.9,10,12.3H394.3z M403.6,622.2c-0.5-2.9-1.8-4.4-4.5-4.4c-3.7,0-4.6,2.8-4.7,4.4H403.6z"/>
	<path class="st9" d="M412.4,620.5c0.3-5.3,5.1-6.9,9.7-6.9c4.1,0,9.1,0.9,9.1,5.9v10.8c0,1.9,0.2,3.8,0.7,4.6h-5.8
		c-0.2-0.6-0.4-1.3-0.4-2c-1.8,1.9-4.4,2.6-7,2.6c-4,0-7-2-7-6.2c0.1-9.4,14-4.4,13.8-9c0-2.4-1.7-2.8-3.7-2.8
		c-2.2,0-3.6,0.9-3.8,3.1H412.4z M425.5,624.7c-1,0.8-3,0.9-4.7,1.2c-1.8,0.3-3.4,1-3.4,3s1.6,2.6,3.5,2.6c4.4,0,4.6-3.5,4.6-4.8
		V624.7z"/>
	<path class="st9" d="M440,628.1c0,2.4,2.2,3.5,4.4,3.5c1.6,0,3.7-0.6,3.7-2.6c0-1.7-2.4-2.4-6.4-3.2c-3.3-0.8-6.6-1.8-6.6-5.5
		c0-5.3,4.6-6.6,9-6.6c4.5,0,8.7,1.5,9.1,6.6h-5.4c-0.2-2.2-1.8-2.8-3.9-2.8c-1.3,0-3.2,0.2-3.2,1.9c0,2,3.2,2.3,6.4,3.1
		c3.3,0.8,6.6,2,6.6,5.8c0,5.4-4.8,7.2-9.4,7.2c-4.8,0-9.5-1.8-9.7-7.3H440z"/>
	<path class="st9" d="M461.7,625.8c0.2,3.6,1.9,5.2,5.1,5.2c2.3,0,4.1-1.4,4.5-2.7h5c-1.6,4.9-5,7-9.7,7c-6.5,0-10.6-4.5-10.6-10.9
		c0-6.2,4.3-10.9,10.6-10.9c7,0,10.5,5.9,10,12.3H461.7z M471,622.2c-0.5-2.9-1.8-4.4-4.5-4.4c-3.7,0-4.6,2.8-4.7,4.4H471z"/>
	<path class="st9" d="M491.7,606.2h6.3v28.6h-6.3V606.2z"/>
	<path class="st9" d="M502.9,614.1h5.4v2.9h0.1c1.4-2.4,3.9-3.4,6.3-3.4c6,0,7.6,3.4,7.6,8.5v12.7h-5.7v-11.7c0-3.4-1-5.1-3.6-5.1
		c-3.1,0-4.4,1.7-4.4,5.9v10.8h-5.7V614.1z"/>
	<path class="st9" d="M541.4,632.2L541.4,632.2c-1.4,2.2-3.7,3.2-6.4,3.2c-6.2,0-9.3-5.3-9.3-11.1c0-5.6,3.1-10.7,9.2-10.7
		c2.4,0,4.8,1,6.1,3.1h0.1v-10.4h5.7v28.6h-5.4V632.2z M536.5,617.8c-3.7,0-5,3.2-5,6.6c0,3.2,1.5,6.6,5,6.6c3.7,0,4.9-3.3,4.9-6.7
		C541.3,621,540.1,617.8,536.5,617.8z"/>
	<path class="st9" d="M556.9,610.9h-5.7v-4.7h5.7V610.9z M551.3,614.1h5.7v20.7h-5.7V614.1z"/>
	<path class="st9" d="M572.9,634.8h-6.3l-7.1-20.7h6l4.4,14.1h0.1l4.4-14.1h5.6L572.9,634.8z"/>
	<path class="st9" d="M588.1,610.9h-5.7v-4.7h5.7V610.9z M582.4,614.1h5.7v20.7h-5.7V614.1z"/>
	<path class="st9" d="M607.3,632.2L607.3,632.2c-1.4,2.2-3.7,3.2-6.4,3.2c-6.2,0-9.3-5.3-9.3-11.1c0-5.6,3.1-10.7,9.2-10.7
		c2.4,0,4.8,1,6.1,3.1h0.1v-10.4h5.7v28.6h-5.4V632.2z M602.3,617.8c-3.7,0-5,3.2-5,6.6c0,3.2,1.5,6.6,5,6.6c3.7,0,4.9-3.3,4.9-6.7
		C607.2,621,606,617.8,602.3,617.8z"/>
	<path class="st9" d="M636.4,634.8H631v-2.9h-0.1c-1.4,2.4-3.9,3.4-6.3,3.4c-6,0-7.6-3.4-7.6-8.5v-12.7h5.7v11.7
		c0,3.4,1,5.1,3.6,5.1c3.1,0,4.4-1.7,4.4-5.9v-10.8h5.7V634.8z"/>
	<path class="st9" d="M640.5,620.5c0.3-5.3,5.1-6.9,9.7-6.9c4.1,0,9.1,0.9,9.1,5.9v10.8c0,1.9,0.2,3.8,0.7,4.6h-5.8
		c-0.2-0.6-0.4-1.3-0.4-2c-1.8,1.9-4.4,2.6-7,2.6c-4,0-7-2-7-6.2c0.1-9.4,14-4.4,13.8-9c0-2.4-1.7-2.8-3.7-2.8
		c-2.2,0-3.6,0.9-3.8,3.1H640.5z M653.6,624.7c-1,0.8-3,0.9-4.7,1.2c-1.8,0.3-3.4,1-3.4,3s1.6,2.6,3.5,2.6c4.4,0,4.6-3.5,4.6-4.8
		V624.7z"/>
	<path class="st9" d="M663.8,606.2h5.7v28.6h-5.7V606.2z"/>
	<path class="st9" d="M246.2,674.2h13.4c5.4,0,8.7,2.9,8.7,7.5c0,3.5-1.5,6.3-5,7.2v0.1c3.3,0.6,4,3.1,4.3,5.9
		c0.2,2.8,0.1,6,1.7,7.9h-4.2c-1.1-1.2-0.5-4.2-1-7c-0.4-2.8-1.1-5.2-4.8-5.2H250v12.2h-3.8V674.2z M257.9,687.4
		c3.5,0,6.6-0.9,6.6-5.1c0-2.8-1.5-4.9-5.1-4.9H250v10H257.9z"/>
	<path class="st9" d="M290.7,696.2c-0.9,4.6-4.2,7-8.8,7c-6.6,0-9.7-4.6-9.9-10.9c0-6.2,4.1-10.8,9.7-10.8c7.3,0,9.6,6.8,9.4,11.8
		h-15.5c-0.1,3.6,1.9,6.8,6.4,6.8c2.8,0,4.8-1.3,5.4-4H290.7z M287.4,690.5c-0.2-3.2-2.6-5.8-6-5.8c-3.5,0-5.7,2.6-5.9,5.8H287.4z"
		/>
	<path class="st9" d="M296.6,696.3c0.1,3,2.8,4,5.6,4c2.1,0,5-0.5,5-3.1c0-5.3-13.5-1.7-13.5-9.7c0-4.2,4.1-5.9,7.7-5.9
		c4.6,0,8.2,1.4,8.5,6.5h-3.4c-0.2-2.6-2.6-3.5-4.8-3.5c-2,0-4.4,0.6-4.4,2.6c0,2.4,3.6,2.9,6.8,3.6c3.4,0.8,6.8,1.9,6.8,5.9
		c0,5-4.6,6.5-8.8,6.5c-4.6,0-8.6-1.9-8.8-7H296.6z"/>
	<path class="st9" d="M314.7,682.1h3.4v2.8h0.1c1.1-2.3,3.7-3.3,6.6-3.3c6.4,0,9.5,5,9.5,10.9c0,5.9-3.1,10.8-9.4,10.8
		c-2.1,0-5.2-0.8-6.7-3.2h-0.1v10.7h-3.4V682.1z M324.3,684.6c-4.6,0-6.3,4-6.3,7.8c0,4,1.8,7.8,6.5,7.8c4.6,0,6.2-4,6.2-8
		C330.7,688.4,328.7,684.6,324.3,684.6z"/>
	<path class="st9" d="M347.2,681.6c6.6,0,10,4.8,10,10.8c0,6-3.5,10.8-10,10.8s-10-4.8-10-10.8C337.1,686.4,340.6,681.6,347.2,681.6
		z M347.2,700.3c3.6,0,6.4-2.8,6.4-7.8s-2.9-7.8-6.4-7.8s-6.4,2.8-6.4,7.8S343.6,700.3,347.2,700.3z"/>
	<path class="st9" d="M361.2,682.1h3.2v3.3h0.1c1.4-2.6,3.7-3.8,6.7-3.8c5.4,0,7.1,3.1,7.1,7.6v13.6h-3.4v-14c0-2.6-1.6-4.2-4.2-4.2
		c-4.1,0-6.1,2.8-6.1,6.5v11.7h-3.4V682.1z"/>
	<path class="st9" d="M385.5,696.3c0.1,3,2.8,4,5.6,4c2.1,0,5-0.5,5-3.1c0-5.3-13.5-1.7-13.5-9.7c0-4.2,4.1-5.9,7.7-5.9
		c4.6,0,8.2,1.4,8.5,6.5h-3.4c-0.2-2.6-2.6-3.5-4.8-3.5c-2,0-4.4,0.6-4.4,2.6c0,2.4,3.6,2.9,6.8,3.6c3.4,0.8,6.8,1.9,6.8,5.9
		c0,5-4.6,6.5-8.8,6.5c-4.6,0-8.6-1.9-8.8-7H385.5z"/>
	<path class="st9" d="M407.1,678.4h-3.4v-4.2h3.4V678.4z M403.7,682.1h3.4v20.7h-3.4V682.1z"/>
	<path class="st9" d="M412.5,674.2h3.4v10.7h0.1c1.1-2.3,3.7-3.3,6.6-3.3c6.4,0,9.5,5,9.5,10.9c0,5.9-3.1,10.8-9.4,10.8
		c-2.1,0-5.2-0.8-6.7-3.2h-0.1v2.8h-3.4V674.2z M422.1,684.6c-4.6,0-6.3,4-6.3,7.8c0,4,1.8,7.8,6.5,7.8c4.6,0,6.2-4,6.2-8
		C428.5,688.4,426.5,684.6,422.1,684.6z"/>
	<path class="st9" d="M436.3,674.2h3.4v28.6h-3.4V674.2z"/>
	<path class="st9" d="M462.6,696.2c-0.9,4.6-4.2,7-8.8,7c-6.6,0-9.7-4.6-9.9-10.9c0-6.2,4.1-10.8,9.7-10.8c7.3,0,9.6,6.8,9.4,11.8
		h-15.5c-0.1,3.6,1.9,6.8,6.4,6.8c2.8,0,4.8-1.3,5.4-4H462.6z M459.3,690.5c-0.2-3.2-2.6-5.8-6-5.8c-3.5,0-5.7,2.6-5.9,5.8H459.3z"
		/>
	<path class="st9" d="M478.9,685.1h-3.5v-3h3.5V679c0-3.4,2-5.1,5.7-5.1c0.6,0,1.6,0.1,2.2,0.3v3c-0.6-0.2-1.3-0.3-1.9-0.3
		c-1.6,0-2.6,0.5-2.6,2.3v2.9h4v3h-4v17.7h-3.4V685.1z"/>
	<path class="st9" d="M498.3,681.6c6.6,0,10,4.8,10,10.8c0,6-3.5,10.8-10,10.8s-10-4.8-10-10.8C488.3,686.4,491.7,681.6,498.3,681.6
		z M498.3,700.3c3.6,0,6.4-2.8,6.4-7.8s-2.9-7.8-6.4-7.8s-6.4,2.8-6.4,7.8S494.7,700.3,498.3,700.3z"/>
	<path class="st9" d="M512.2,682.1h3.2v4.4h0.1c1.6-3.4,3.9-5,7.6-4.8v3.6c-5.5,0-7.5,3.1-7.5,8.4v9.2h-3.4V682.1z"/>
	<path class="st9" d="M554.4,696.2c-0.9,4.6-4.2,7-8.8,7c-6.6,0-9.7-4.6-9.9-10.9c0-6.2,4.1-10.8,9.7-10.8c7.3,0,9.6,6.8,9.4,11.8
		h-15.5c-0.1,3.6,1.9,6.8,6.4,6.8c2.8,0,4.8-1.3,5.4-4H554.4z M551.1,690.5c-0.2-3.2-2.6-5.8-6-5.8c-3.5,0-5.7,2.6-5.9,5.8H551.1z"
		/>
	<path class="st9" d="M558.3,682.1h3.2v3.3h0.1c1.4-2.6,3.7-3.8,6.7-3.8c5.4,0,7.1,3.1,7.1,7.6v13.6H572v-14c0-2.6-1.6-4.2-4.2-4.2
		c-4.1,0-6.1,2.8-6.1,6.5v11.7h-3.4V682.1z"/>
	<path class="st9" d="M582.6,696.3c0.1,3,2.8,4,5.6,4c2.1,0,5-0.5,5-3.1c0-5.3-13.5-1.7-13.5-9.7c0-4.2,4.1-5.9,7.7-5.9
		c4.6,0,8.2,1.4,8.5,6.5h-3.4c-0.2-2.6-2.6-3.5-4.8-3.5c-2,0-4.4,0.6-4.4,2.6c0,2.4,3.6,2.9,6.8,3.6c3.4,0.8,6.8,1.9,6.8,5.9
		c0,5-4.6,6.5-8.8,6.5c-4.6,0-8.6-1.9-8.8-7H582.6z"/>
	<path class="st9" d="M617.6,702.8h-3.2v-3.3h-0.1c-1.4,2.6-3.7,3.8-6.7,3.8c-5.4,0-7.1-3.1-7.1-7.6v-13.6h3.4v14
		c0,2.6,1.6,4.2,4.2,4.2c4.1,0,6.1-2.8,6.1-6.5v-11.7h3.4V702.8z"/>
	<path class="st9" d="M622.6,682.1h3.2v4.4h0.1c1.6-3.4,3.9-5,7.6-4.8v3.6c-5.5,0-7.5,3.1-7.5,8.4v9.2h-3.4V682.1z"/>
	<path class="st9" d="M639.7,678.4h-3.4v-4.2h3.4V678.4z M636.3,682.1h3.4v20.7h-3.4V682.1z"/>
	<path class="st9" d="M644.9,682.1h3.2v3.3h0.1c1.4-2.6,3.7-3.8,6.7-3.8c5.4,0,7.1,3.1,7.1,7.6v13.6h-3.4v-14c0-2.6-1.6-4.2-4.2-4.2
		c-4.1,0-6.1,2.8-6.1,6.5v11.7h-3.4V682.1z"/>
	<path class="st9" d="M685,701c0,6.8-3,10.2-9.6,10.2c-3.9,0-8.4-1.6-8.6-6.1h3.4c0.1,2.4,3.2,3.4,5.4,3.4c4.4,0,6.2-3.2,6.2-7.8
		v-1.4h-0.1c-1.2,2.5-3.8,3.8-6.4,3.8c-6.2,0-9.2-4.8-9.2-10.5c0-4.9,2.4-10.9,9.6-10.9c2.6,0,4.9,1.2,6.2,3.4h0v-3h3.2V701z
		 M681.7,692c0-3.6-1.6-7.4-5.9-7.4c-4.4,0-6.1,3.6-6.1,7.5c0,3.7,1.4,7.9,5.8,7.9C680,700,681.7,695.9,681.7,692z"/>
	<path class="st9" d="M706,682.1h4.1v3H706V698c0,1.6,0.4,1.8,2.6,1.8h1.6v3h-2.6c-3.5,0-4.9-0.7-4.9-4.5v-13.2h-3.5v-3h3.5v-6.2
		h3.4V682.1z"/>
	<path class="st9" d="M713.9,674.2h3.4v10.9h0.1c1.1-2.5,4.1-3.5,6.5-3.5c5.4,0,7.1,3.1,7.1,7.6v13.6h-3.4v-14
		c0-2.6-1.6-4.2-4.2-4.2c-4.1,0-6.1,2.8-6.1,6.5v11.7h-3.4V674.2z"/>
	<path class="st9" d="M754.4,702.7c-0.6,0.4-1.4,0.6-2.4,0.6c-1.8,0-2.9-1-2.9-3.2c-1.9,2.2-4.4,3.2-7.3,3.2c-3.8,0-6.8-1.6-6.8-5.8
		c0-4.7,3.5-5.7,7-6.4c3.7-0.8,7-0.4,7-3c0-3-2.5-3.4-4.6-3.4c-2.9,0-5,0.9-5.2,3.9h-3.4c0.2-5.1,4.1-6.9,8.8-6.9
		c3.7,0,7.8,0.8,7.8,5.7V698c0,1.6,0,2.3,1.1,2.3c0.3,0,0.7-0.1,1-0.2V702.7z M748.9,692.1c-2.6,2-10.3,0-10.3,5.1c0,2.2,1.9,3,4,3
		c4.5,0,6.3-2.8,6.3-4.7V692.1z"/>
	<path class="st9" d="M762.3,682.1h4.1v3h-4.1V698c0,1.6,0.4,1.8,2.6,1.8h1.6v3h-2.6c-3.5,0-4.9-0.7-4.9-4.5v-13.2h-3.5v-3h3.5v-6.2
		h3.4V682.1z"/>
	<path class="st9" d="M264,750.7c-0.6,0.4-1.4,0.6-2.4,0.6c-1.8,0-2.9-1-2.9-3.2c-1.9,2.2-4.4,3.2-7.3,3.2c-3.8,0-6.8-1.6-6.8-5.8
		c0-4.7,3.5-5.7,7-6.4c3.7-0.8,7-0.4,7-3c0-3-2.5-3.4-4.6-3.4c-2.9,0-5,0.9-5.2,3.9h-3.4c0.2-5.1,4.1-6.9,8.8-6.9
		c3.7,0,7.8,0.8,7.8,5.7V746c0,1.6,0,2.3,1.1,2.3c0.3,0,0.7-0.1,1-0.2V750.7z M258.5,740.1c-2.6,2-10.3,0-10.3,5.1c0,2.2,1.9,3,4,3
		c4.5,0,6.3-2.8,6.3-4.7V740.1z"/>
	<path class="st9" d="M267.3,722.2h3.4v28.6h-3.4V722.2z"/>
	<path class="st9" d="M276.2,722.2h3.4v28.6h-3.4V722.2z"/>
	<path class="st9" d="M295.9,730.1h3.2v4.4h0.1c1.6-3.4,3.9-5,7.6-4.8v3.6c-5.5,0-7.5,3.1-7.5,8.4v9.2h-3.4V730.1z"/>
	<path class="st9" d="M327,744.2c-0.9,4.6-4.2,7-8.8,7c-6.6,0-9.7-4.6-9.9-10.9c0-6.2,4.1-10.8,9.7-10.8c7.3,0,9.6,6.8,9.4,11.8
		h-15.5c-0.1,3.6,1.9,6.8,6.4,6.8c2.8,0,4.8-1.3,5.4-4H327z M323.7,738.5c-0.2-3.2-2.6-5.8-6-5.8c-3.5,0-5.7,2.6-5.9,5.8H323.7z"/>
	<path class="st9" d="M349.3,758.7h-3.4V748h-0.1c-1.1,2.3-3.7,3.3-6.6,3.3c-6.4,0-9.5-5-9.5-10.9s3.1-10.8,9.4-10.8
		c2.1,0,5.2,0.8,6.7,3.2h0.1v-2.8h3.4V758.7z M339.7,748.3c4.6,0,6.3-4,6.3-7.8c0-4-1.8-7.8-6.5-7.8c-4.6,0-6.2,4-6.2,8
		C333.3,744.5,335.3,748.3,339.7,748.3z"/>
	<path class="st9" d="M371.7,750.8h-3.2v-3.3h-0.1c-1.4,2.6-3.7,3.8-6.7,3.8c-5.4,0-7.1-3.1-7.1-7.6v-13.6h3.4v14
		c0,2.6,1.6,4.2,4.2,4.2c4.1,0,6.1-2.8,6.1-6.5v-11.7h3.4V750.8z"/>
	<path class="st9" d="M380.4,726.4H377v-4.2h3.4V726.4z M377,730.1h3.4v20.7H377V730.1z"/>
	<path class="st9" d="M385.5,730.1h3.2v4.4h0.1c1.6-3.4,3.9-5,7.6-4.8v3.6c-5.5,0-7.5,3.1-7.5,8.4v9.2h-3.4V730.1z"/>
	<path class="st9" d="M416.6,744.2c-0.9,4.6-4.2,7-8.8,7c-6.6,0-9.7-4.6-9.9-10.9c0-6.2,4.1-10.8,9.7-10.8c7.3,0,9.6,6.8,9.4,11.8
		h-15.5c-0.1,3.6,1.9,6.8,6.4,6.8c2.8,0,4.8-1.3,5.4-4H416.6z M413.3,738.5c-0.2-3.2-2.6-5.8-6-5.8c-3.5,0-5.7,2.6-5.9,5.8H413.3z"
		/>
	<path class="st9" d="M438.9,750.8h-3.4V748h-0.1c-1.1,2.3-3.7,3.3-6.6,3.3c-6.4,0-9.5-5-9.5-10.9s3.1-10.8,9.4-10.8
		c2.1,0,5.2,0.8,6.7,3.2h0.1v-10.6h3.4V750.8z M429.3,748.3c4.6,0,6.3-4,6.3-7.8c0-4-1.8-7.8-6.5-7.8c-4.6,0-6.2,4-6.2,8
		C422.9,744.5,424.9,748.3,429.3,748.3z"/>
	<path class="st9" d="M464.6,750.8H461l-7.7-20.7h3.8l5.8,17.2h0.1l5.6-17.2h3.6L464.6,750.8z"/>
	<path class="st9" d="M492.9,744.2c-0.9,4.6-4.2,7-8.8,7c-6.6,0-9.7-4.6-9.9-10.9c0-6.2,4.1-10.8,9.7-10.8c7.3,0,9.6,6.8,9.4,11.8
		h-15.5c-0.1,3.6,1.9,6.8,6.4,6.8c2.8,0,4.8-1.3,5.4-4H492.9z M489.7,738.5c-0.2-3.2-2.6-5.8-6-5.8c-3.5,0-5.7,2.6-5.9,5.8H489.7z"
		/>
	<path class="st9" d="M496.7,730.1h3.2v4.4h0.1c1.6-3.4,3.9-5,7.6-4.8v3.6c-5.5,0-7.5,3.1-7.5,8.4v9.2h-3.4V730.1z"/>
	<path class="st9" d="M513.7,726.4h-3.4v-4.2h3.4V726.4z M510.3,730.1h3.4v20.7h-3.4V730.1z"/>
	<path class="st9" d="M520.4,733.1h-3.5v-3h3.5V727c0-3.4,2-5.1,5.7-5.1c0.6,0,1.6,0.1,2.2,0.3v3c-0.6-0.2-1.3-0.3-1.9-0.3
		c-1.6,0-2.6,0.5-2.6,2.3v2.9h4v3h-4v17.7h-3.4V733.1z M531,726.4v-4.2h3.4v4.2H531z M531,750.8v-20.7h3.4v20.7H531z"/>
	<path class="st9" d="M553.7,736.8c-0.5-2.6-2.3-4.1-5.1-4.1c-4.9,0-6.4,3.9-6.4,8.1c0,3.8,1.7,7.6,6,7.6c3.3,0,5.2-1.9,5.7-5h3.5
		c-0.8,5.1-3.9,8-9.1,8c-6.3,0-9.7-4.4-9.7-10.6c0-6.2,3.2-11.1,9.8-11.1c4.7,0,8.4,2.2,8.9,7.1H553.7z"/>
	<path class="st9" d="M579.5,750.7c-0.6,0.4-1.4,0.6-2.4,0.6c-1.8,0-2.9-1-2.9-3.2c-1.9,2.2-4.4,3.2-7.3,3.2c-3.8,0-6.8-1.6-6.8-5.8
		c0-4.7,3.5-5.7,7-6.4c3.7-0.8,7-0.4,7-3c0-3-2.5-3.4-4.6-3.4c-2.9,0-5,0.9-5.2,3.9h-3.4c0.2-5.1,4.1-6.9,8.8-6.9
		c3.7,0,7.8,0.8,7.8,5.7V746c0,1.6,0,2.3,1.1,2.3c0.3,0,0.7-0.1,1-0.2V750.7z M574,740.1c-2.6,2-10.3,0-10.3,5.1c0,2.2,1.9,3,4,3
		c4.5,0,6.3-2.8,6.3-4.7V740.1z"/>
	<path class="st9" d="M587.4,730.1h4.1v3h-4.1V746c0,1.6,0.4,1.8,2.6,1.8h1.6v3h-2.6c-3.5,0-4.9-0.7-4.9-4.5v-13.2h-3.5v-3h3.5v-6.2
		h3.4V730.1z"/>
	<path class="st9" d="M598.9,726.4h-3.4v-4.2h3.4V726.4z M595.5,730.1h3.4v20.7h-3.4V730.1z"/>
	<path class="st9" d="M613.1,729.6c6.6,0,10,4.8,10,10.8c0,6-3.5,10.8-10,10.8s-10-4.8-10-10.8C603,734.4,606.5,729.6,613.1,729.6z
		 M613.1,748.3c3.6,0,6.4-2.8,6.4-7.8s-2.9-7.8-6.4-7.8s-6.4,2.8-6.4,7.8S609.5,748.3,613.1,748.3z"/>
	<path class="st9" d="M627.1,730.1h3.2v3.3h0.1c1.4-2.6,3.7-3.8,6.7-3.8c5.4,0,7.1,3.1,7.1,7.6v13.6h-3.4v-14c0-2.6-1.6-4.2-4.2-4.2
		c-4.1,0-6.1,2.8-6.1,6.5v11.7h-3.4V730.1z"/>
	<path class="st9" d="M264,798.7c-0.6,0.4-1.4,0.6-2.4,0.6c-1.8,0-2.9-1-2.9-3.2c-1.9,2.2-4.4,3.2-7.3,3.2c-3.8,0-6.8-1.6-6.8-5.8
		c0-4.7,3.5-5.7,7-6.4c3.7-0.8,7-0.4,7-3c0-3-2.5-3.4-4.6-3.4c-2.9,0-5,0.9-5.2,3.9h-3.4c0.2-5.1,4.1-6.9,8.8-6.9
		c3.7,0,7.8,0.8,7.8,5.7V794c0,1.6,0,2.3,1.1,2.3c0.3,0,0.7-0.1,1-0.2V798.7z M258.5,788.1c-2.6,2-10.3,0-10.3,5.1c0,2.2,1.9,3,4,3
		c4.5,0,6.3-2.8,6.3-4.7V788.1z"/>
	<path class="st9" d="M281.2,784.8c-0.5-2.6-2.3-4.1-5.1-4.1c-4.9,0-6.4,3.9-6.4,8.1c0,3.8,1.7,7.6,6,7.6c3.3,0,5.2-1.9,5.7-5h3.5
		c-0.8,5.1-3.9,8-9.1,8c-6.3,0-9.7-4.4-9.7-10.6c0-6.2,3.2-11.1,9.8-11.1c4.7,0,8.4,2.2,8.9,7.1H281.2z"/>
	<path class="st9" d="M293.3,778.1h4.1v3h-4.1V794c0,1.6,0.4,1.8,2.6,1.8h1.6v3h-2.6c-3.5,0-4.9-0.7-4.9-4.5v-13.2h-3.5v-3h3.5v-6.2
		h3.4V778.1z"/>
	<path class="st9" d="M304.8,774.4h-3.4v-4.2h3.4V774.4z M301.4,778.1h3.4v20.7h-3.4V778.1z"/>
	<path class="st9" d="M319.4,798.8h-3.6l-7.7-20.7h3.8l5.8,17.2h0.1l5.6-17.2h3.6L319.4,798.8z"/>
	<path class="st9" d="M333.7,774.4h-3.4v-4.2h3.4V774.4z M330.3,778.1h3.4v20.7h-3.4V778.1z"/>
	<path class="st9" d="M343.7,778.1h4.1v3h-4.1V794c0,1.6,0.4,1.8,2.6,1.8h1.6v3h-2.6c-3.5,0-4.9-0.7-4.9-4.5v-13.2h-3.5v-3h3.5v-6.2
		h3.4V778.1z"/>
	<path class="st9" d="M355.2,774.4h-3.4v-4.2h3.4V774.4z M351.8,778.1h3.4v20.7h-3.4V778.1z"/>
	<path class="st9" d="M378.1,792.2c-0.9,4.6-4.2,7-8.8,7c-6.6,0-9.7-4.6-9.9-10.9c0-6.2,4.1-10.8,9.7-10.8c7.3,0,9.6,6.8,9.4,11.8
		h-15.5c-0.1,3.6,1.9,6.8,6.4,6.8c2.8,0,4.8-1.3,5.4-4H378.1z M374.8,786.5c-0.2-3.2-2.6-5.8-6-5.8c-3.5,0-5.7,2.6-5.9,5.8H374.8z"
		/>
	<path class="st9" d="M384,792.3c0.1,3,2.8,4,5.6,4c2.1,0,5-0.5,5-3.1c0-5.3-13.5-1.7-13.5-9.7c0-4.2,4.1-5.9,7.7-5.9
		c4.6,0,8.2,1.4,8.5,6.5h-3.4c-0.2-2.6-2.6-3.5-4.8-3.5c-2,0-4.4,0.6-4.4,2.6c0,2.4,3.6,2.9,6.8,3.6c3.4,0.8,6.8,1.9,6.8,5.9
		c0,5-4.6,6.5-8.8,6.5c-4.6,0-8.6-1.9-8.8-7H384z"/>
	<path class="st9" d="M413.1,770.2h3.4v10.9h0.1c1.1-2.5,4.1-3.5,6.5-3.5c5.4,0,7.1,3.1,7.1,7.6v13.6h-3.4v-14
		c0-2.6-1.6-4.2-4.2-4.2c-4.1,0-6.1,2.8-6.1,6.5v11.7h-3.4V770.2z"/>
	<path class="st9" d="M453.6,798.7c-0.6,0.4-1.4,0.6-2.4,0.6c-1.8,0-2.9-1-2.9-3.2c-1.9,2.2-4.4,3.2-7.3,3.2c-3.8,0-6.8-1.6-6.8-5.8
		c0-4.7,3.5-5.7,7-6.4c3.7-0.8,7-0.4,7-3c0-3-2.5-3.4-4.6-3.4c-2.9,0-5,0.9-5.2,3.9H435c0.2-5.1,4.1-6.9,8.8-6.9
		c3.7,0,7.8,0.8,7.8,5.7V794c0,1.6,0,2.3,1.1,2.3c0.3,0,0.7-0.1,1-0.2V798.7z M448.1,788.1c-2.6,2-10.3,0-10.3,5.1c0,2.2,1.9,3,4,3
		c4.5,0,6.3-2.8,6.3-4.7V788.1z"/>
	<path class="st9" d="M466.1,798.8h-3.6l-7.7-20.7h3.8l5.8,17.2h0.1l5.6-17.2h3.6L466.1,798.8z"/>
	<path class="st9" d="M494.4,792.2c-0.9,4.6-4.2,7-8.8,7c-6.6,0-9.7-4.6-9.9-10.9c0-6.2,4.1-10.8,9.7-10.8c7.3,0,9.6,6.8,9.4,11.8
		h-15.5c-0.1,3.6,1.9,6.8,6.4,6.8c2.8,0,4.8-1.3,5.4-4H494.4z M491.1,786.5c-0.2-3.2-2.6-5.8-6-5.8c-3.5,0-5.7,2.6-5.9,5.8H491.1z"
		/>
	<path class="st9" d="M509.5,770.2h3.4v10.7h0.1c1.1-2.3,3.7-3.3,6.6-3.3c6.4,0,9.5,5,9.5,10.9c0,5.9-3.1,10.8-9.4,10.8
		c-2.1,0-5.2-0.8-6.7-3.2h-0.1v2.8h-3.4V770.2z M519.1,780.6c-4.6,0-6.3,4-6.3,7.8c0,4,1.8,7.8,6.5,7.8c4.6,0,6.2-4,6.2-8
		C525.5,784.4,523.5,780.6,519.1,780.6z"/>
	<path class="st9" d="M550.7,792.2c-0.9,4.6-4.2,7-8.8,7c-6.6,0-9.7-4.6-9.9-10.9c0-6.2,4.1-10.8,9.7-10.8c7.3,0,9.6,6.8,9.4,11.8
		h-15.5c-0.1,3.6,1.9,6.8,6.4,6.8c2.8,0,4.8-1.3,5.4-4H550.7z M547.5,786.5c-0.2-3.2-2.6-5.8-6-5.8c-3.5,0-5.7,2.6-5.9,5.8H547.5z"
		/>
	<path class="st9" d="M572.2,792.2c-0.9,4.6-4.2,7-8.8,7c-6.6,0-9.7-4.6-9.9-10.9c0-6.2,4.1-10.8,9.7-10.8c7.3,0,9.6,6.8,9.4,11.8
		h-15.5c-0.1,3.6,1.9,6.8,6.4,6.8c2.8,0,4.8-1.3,5.4-4H572.2z M568.9,786.5c-0.2-3.2-2.6-5.8-6-5.8c-3.5,0-5.7,2.6-5.9,5.8H568.9z"
		/>
	<path class="st9" d="M576.1,778.1h3.2v3.3h0.1c1.4-2.6,3.7-3.8,6.7-3.8c5.4,0,7.1,3.1,7.1,7.6v13.6h-3.4v-14c0-2.6-1.6-4.2-4.2-4.2
		c-4.1,0-6.1,2.8-6.1,6.5v11.7h-3.4V778.1z"/>
	<path class="st9" d="M245.8,826.1h3.4v2.8h0.1c1.1-2.3,3.7-3.3,6.6-3.3c6.4,0,9.5,5,9.5,10.9c0,5.9-3.1,10.8-9.4,10.8
		c-2.1,0-5.2-0.8-6.7-3.2h-0.1v10.7h-3.4V826.1z M255.4,828.6c-4.6,0-6.3,4-6.3,7.8c0,4,1.8,7.8,6.5,7.8c4.6,0,6.2-4,6.2-8
		C261.8,832.4,259.8,828.6,255.4,828.6z"/>
	<path class="st9" d="M287,840.2c-0.9,4.6-4.2,7-8.8,7c-6.6,0-9.7-4.6-9.9-10.9c0-6.2,4.1-10.8,9.7-10.8c7.3,0,9.6,6.8,9.4,11.8
		h-15.5c-0.1,3.6,1.9,6.8,6.4,6.8c2.8,0,4.8-1.3,5.4-4H287z M283.7,834.5c-0.2-3.2-2.6-5.8-6-5.8c-3.5,0-5.7,2.6-5.9,5.8H283.7z"/>
	<path class="st9" d="M290.7,826.1h3.2v4.4h0.1c1.6-3.4,3.9-5,7.6-4.8v3.6c-5.5,0-7.5,3.1-7.5,8.4v9.2h-3.4V826.1z"/>
	<path class="st9" d="M305.6,829.1h-3.5v-3h3.5V823c0-3.4,2-5.1,5.7-5.1c0.6,0,1.6,0.1,2.2,0.3v3c-0.6-0.2-1.3-0.3-1.9-0.3
		c-1.6,0-2.6,0.5-2.6,2.3v2.9h4v3h-4v17.7h-3.4V829.1z"/>
	<path class="st9" d="M324.9,825.6c6.6,0,10,4.8,10,10.8c0,6-3.5,10.8-10,10.8s-10-4.8-10-10.8C314.9,830.4,318.4,825.6,324.9,825.6
		z M324.9,844.3c3.6,0,6.4-2.8,6.4-7.8s-2.9-7.8-6.4-7.8s-6.4,2.8-6.4,7.8S321.4,844.3,324.9,844.3z"/>
	<path class="st9" d="M338.9,826.1h3.2v4.4h0.1c1.6-3.4,3.9-5,7.6-4.8v3.6c-5.5,0-7.5,3.1-7.5,8.4v9.2h-3.4V826.1z"/>
	<path class="st9" d="M352.3,826.1h3.2v3h0.1c1.6-2.4,3.8-3.5,6.7-3.5c2.6,0,4.8,1,5.7,3.5c1.4-2.2,3.8-3.5,6.5-3.5
		c4.1,0,6.9,1.7,6.9,6v15.2h-3.4v-13.6c0-2.6-0.7-4.6-4-4.6c-3.3,0-5.4,2.1-5.4,5.3v12.9h-3.4v-13.6c0-2.7-0.8-4.6-3.9-4.6
		c-4,0-5.5,3.7-5.5,5.3v12.9h-3.4V826.1z"/>
	<path class="st9" d="M404.1,840.2c-0.9,4.6-4.2,7-8.8,7c-6.6,0-9.7-4.6-9.9-10.9c0-6.2,4.1-10.8,9.7-10.8c7.3,0,9.6,6.8,9.4,11.8
		h-15.5c-0.1,3.6,1.9,6.8,6.4,6.8c2.8,0,4.8-1.3,5.4-4H404.1z M400.8,834.5c-0.2-3.2-2.6-5.8-6-5.8c-3.5,0-5.7,2.6-5.9,5.8H400.8z"
		/>
	<path class="st9" d="M426.4,846.8H423V844h-0.1c-1.1,2.3-3.7,3.3-6.6,3.3c-6.4,0-9.5-5-9.5-10.9s3.1-10.8,9.4-10.8
		c2.1,0,5.2,0.8,6.7,3.2h0.1v-10.6h3.4V846.8z M416.8,844.3c4.6,0,6.3-4,6.3-7.8c0-4-1.8-7.8-6.5-7.8c-4.6,0-6.2,4-6.2,8
		C410.4,840.5,412.4,844.3,416.8,844.3z"/>
	<path class="st9" d="M461.1,846.7c-0.6,0.4-1.4,0.6-2.4,0.6c-1.8,0-2.9-1-2.9-3.2c-1.9,2.2-4.4,3.2-7.3,3.2c-3.8,0-6.8-1.6-6.8-5.8
		c0-4.7,3.5-5.7,7-6.4c3.7-0.8,7-0.4,7-3c0-3-2.5-3.4-4.6-3.4c-2.9,0-5,0.9-5.2,3.9h-3.4c0.2-5.1,4.1-6.9,8.8-6.9
		c3.7,0,7.8,0.8,7.8,5.7V842c0,1.6,0,2.3,1.1,2.3c0.3,0,0.7-0.1,1-0.2V846.7z M455.5,836.1c-2.6,2-10.3,0-10.3,5.1c0,2.2,1.9,3,4,3
		c4.5,0,6.3-2.8,6.3-4.7V836.1z"/>
	<path class="st9" d="M464.2,826.1h3.2v3.3h0.1c1.4-2.6,3.7-3.8,6.7-3.8c5.4,0,7.1,3.1,7.1,7.6v13.6h-3.4v-14c0-2.6-1.6-4.2-4.2-4.2
		c-4.1,0-6.1,2.8-6.1,6.5v11.7h-3.4V826.1z"/>
	<path class="st9" d="M504.9,846.8h-3.4V844h-0.1c-1.1,2.3-3.7,3.3-6.6,3.3c-6.4,0-9.5-5-9.5-10.9s3.1-10.8,9.4-10.8
		c2.1,0,5.2,0.8,6.7,3.2h0.1v-10.6h3.4V846.8z M495.3,844.3c4.6,0,6.3-4,6.3-7.8c0-4-1.8-7.8-6.5-7.8c-4.6,0-6.2,4-6.2,8
		C488.9,840.5,490.9,844.3,495.3,844.3z"/>
	<path class="st9" d="M526,826.1h4.1v3H526V842c0,1.6,0.4,1.8,2.6,1.8h1.6v3h-2.6c-3.5,0-4.9-0.7-4.9-4.5v-13.2h-3.5v-3h3.5v-6.2
		h3.4V826.1z"/>
	<path class="st9" d="M533.9,818.2h3.4v10.9h0.1c1.1-2.5,4.1-3.5,6.5-3.5c5.4,0,7.1,3.1,7.1,7.6v13.6h-3.4v-14
		c0-2.6-1.6-4.2-4.2-4.2c-4.1,0-6.1,2.8-6.1,6.5v11.7h-3.4V818.2z"/>
	<path class="st9" d="M574.5,846.7c-0.6,0.4-1.4,0.6-2.4,0.6c-1.8,0-2.9-1-2.9-3.2c-1.9,2.2-4.4,3.2-7.3,3.2c-3.8,0-6.8-1.6-6.8-5.8
		c0-4.7,3.5-5.7,7-6.4c3.7-0.8,7-0.4,7-3c0-3-2.5-3.4-4.6-3.4c-2.9,0-5,0.9-5.2,3.9h-3.4c0.2-5.1,4.1-6.9,8.8-6.9
		c3.7,0,7.8,0.8,7.8,5.7V842c0,1.6,0,2.3,1.1,2.3c0.3,0,0.7-0.1,1-0.2V846.7z M568.9,836.1c-2.6,2-10.3,0-10.3,5.1c0,2.2,1.9,3,4,3
		c4.5,0,6.3-2.8,6.3-4.7V836.1z"/>
	<path class="st9" d="M582.3,826.1h4.1v3h-4.1V842c0,1.6,0.4,1.8,2.6,1.8h1.6v3h-2.6c-3.5,0-4.9-0.7-4.9-4.5v-13.2h-3.5v-3h3.5v-6.2
		h3.4V826.1z"/>
	<path class="st9" d="M619.7,846.7c-0.6,0.4-1.4,0.6-2.4,0.6c-1.8,0-2.9-1-2.9-3.2c-1.9,2.2-4.4,3.2-7.3,3.2c-3.8,0-6.8-1.6-6.8-5.8
		c0-4.7,3.5-5.7,7-6.4c3.7-0.8,7-0.4,7-3c0-3-2.5-3.4-4.6-3.4c-2.9,0-5,0.9-5.2,3.9H601c0.2-5.1,4.1-6.9,8.8-6.9
		c3.7,0,7.8,0.8,7.8,5.7V842c0,1.6,0,2.3,1.1,2.3c0.3,0,0.7-0.1,1-0.2V846.7z M614.1,836.1c-2.6,2-10.3,0-10.3,5.1c0,2.2,1.9,3,4,3
		c4.5,0,6.3-2.8,6.3-4.7V836.1z"/>
	<path class="st9" d="M623,818.2h3.4v28.6H623V818.2z"/>
	<path class="st9" d="M631.9,818.2h3.4v28.6h-3.4V818.2z"/>
	<path class="st9" d="M651.6,826.1h3.2v4.4h0.1c1.6-3.4,3.9-5,7.6-4.8v3.6c-5.5,0-7.5,3.1-7.5,8.4v9.2h-3.4V826.1z"/>
	<path class="st9" d="M682.7,840.2c-0.9,4.6-4.2,7-8.8,7c-6.6,0-9.7-4.6-9.9-10.9c0-6.2,4.1-10.8,9.7-10.8c7.3,0,9.6,6.8,9.4,11.8
		h-15.5c-0.1,3.6,1.9,6.8,6.4,6.8c2.8,0,4.8-1.3,5.4-4H682.7z M679.4,834.5c-0.2-3.2-2.6-5.8-6-5.8c-3.5,0-5.7,2.6-5.9,5.8H679.4z"
		/>
	<path class="st9" d="M688.6,840.3c0.1,3,2.8,4,5.6,4c2.1,0,5-0.5,5-3.1c0-5.3-13.5-1.7-13.5-9.7c0-4.2,4.1-5.9,7.7-5.9
		c4.6,0,8.2,1.4,8.5,6.5h-3.4c-0.2-2.6-2.6-3.5-4.8-3.5c-2,0-4.4,0.6-4.4,2.6c0,2.4,3.6,2.9,6.8,3.6c3.4,0.8,6.8,1.9,6.8,5.9
		c0,5-4.6,6.5-8.8,6.5c-4.6,0-8.6-1.9-8.8-7H688.6z"/>
	<path class="st9" d="M723.6,846.8h-3.2v-3.3h-0.1c-1.4,2.6-3.7,3.8-6.7,3.8c-5.4,0-7.1-3.1-7.1-7.6v-13.6h3.4v14
		c0,2.6,1.6,4.2,4.2,4.2c4.1,0,6.1-2.8,6.1-6.5v-11.7h3.4V846.8z"/>
	<path class="st9" d="M728.9,818.2h3.4v28.6h-3.4V818.2z"/>
	<path class="st9" d="M742.3,826.1h4.1v3h-4.1V842c0,1.6,0.4,1.8,2.6,1.8h1.6v3h-2.6c-3.5,0-4.9-0.7-4.9-4.5v-13.2h-3.5v-3h3.5v-6.2
		h3.4V826.1z"/>
	<path class="st9" d="M752.3,840.3c0.1,3,2.8,4,5.6,4c2.1,0,5-0.5,5-3.1c0-5.3-13.5-1.7-13.5-9.7c0-4.2,4.1-5.9,7.7-5.9
		c4.6,0,8.2,1.4,8.5,6.5h-3.4c-0.2-2.6-2.6-3.5-4.8-3.5c-2,0-4.4,0.6-4.4,2.6c0,2.4,3.6,2.9,6.8,3.6c3.4,0.8,6.8,1.9,6.8,5.9
		c0,5-4.6,6.5-8.8,6.5c-4.6,0-8.6-1.9-8.8-7H752.3z"/>
	<path class="st9" d="M264,894.7c-0.6,0.4-1.4,0.6-2.4,0.6c-1.8,0-2.9-1-2.9-3.2c-1.9,2.2-4.4,3.2-7.3,3.2c-3.8,0-6.8-1.6-6.8-5.8
		c0-4.7,3.5-5.7,7-6.4c3.7-0.8,7-0.4,7-3c0-3-2.5-3.4-4.6-3.4c-2.9,0-5,0.9-5.2,3.9h-3.4c0.2-5.1,4.1-6.9,8.8-6.9
		c3.7,0,7.8,0.8,7.8,5.7V890c0,1.6,0,2.3,1.1,2.3c0.3,0,0.7-0.1,1-0.2V894.7z M258.5,884.1c-2.6,2-10.3,0-10.3,5.1c0,2.2,1.9,3,4,3
		c4.5,0,6.3-2.8,6.3-4.7V884.1z"/>
	<path class="st9" d="M267,874.1h3.2v4.4h0.1c1.6-3.4,3.9-5,7.6-4.8v3.6c-5.5,0-7.5,3.1-7.5,8.4v9.2H267V874.1z"/>
	<path class="st9" d="M298.1,888.2c-0.9,4.6-4.2,7-8.8,7c-6.6,0-9.7-4.6-9.9-10.9c0-6.2,4.1-10.8,9.7-10.8c7.3,0,9.6,6.8,9.4,11.8
		h-15.5c-0.1,3.6,1.9,6.8,6.4,6.8c2.8,0,4.8-1.3,5.4-4H298.1z M294.8,882.5c-0.2-3.2-2.6-5.8-6-5.8c-3.5,0-5.7,2.6-5.9,5.8H294.8z"
		/>
	<path class="st9" d="M331.4,894.7c-0.6,0.4-1.4,0.6-2.4,0.6c-1.8,0-2.9-1-2.9-3.2c-1.9,2.2-4.4,3.2-7.3,3.2c-3.8,0-6.8-1.6-6.8-5.8
		c0-4.7,3.5-5.7,7-6.4c3.7-0.8,7-0.4,7-3c0-3-2.5-3.4-4.6-3.4c-2.9,0-5,0.9-5.2,3.9h-3.4c0.2-5.1,4.1-6.9,8.8-6.9
		c3.7,0,7.8,0.8,7.8,5.7V890c0,1.6,0,2.3,1.1,2.3c0.3,0,0.7-0.1,1-0.2V894.7z M325.9,884.1c-2.6,2-10.3,0-10.3,5.1c0,2.2,1.9,3,4,3
		c4.5,0,6.3-2.8,6.3-4.7V884.1z"/>
	<path class="st9" d="M348.6,880.8c-0.5-2.6-2.3-4.1-5.1-4.1c-4.9,0-6.4,3.9-6.4,8.1c0,3.8,1.7,7.6,6,7.6c3.3,0,5.2-1.9,5.7-5h3.5
		c-0.8,5.1-3.9,8-9.1,8c-6.3,0-9.7-4.4-9.7-10.6s3.2-11.1,9.8-11.1c4.7,0,8.4,2.2,8.9,7.1H348.6z"/>
	<path class="st9" d="M370.1,880.8c-0.5-2.6-2.3-4.1-5.1-4.1c-4.9,0-6.4,3.9-6.4,8.1c0,3.8,1.7,7.6,6,7.6c3.3,0,5.2-1.9,5.7-5h3.5
		c-0.8,5.1-3.9,8-9.1,8c-6.3,0-9.7-4.4-9.7-10.6s3.2-11.1,9.8-11.1c4.7,0,8.4,2.2,8.9,7.1H370.1z"/>
	<path class="st9" d="M395.1,888.2c-0.9,4.6-4.2,7-8.8,7c-6.6,0-9.7-4.6-9.9-10.9c0-6.2,4.1-10.8,9.7-10.8c7.3,0,9.6,6.8,9.4,11.8
		H380c-0.1,3.6,1.9,6.8,6.4,6.8c2.8,0,4.8-1.3,5.4-4H395.1z M391.9,882.5c-0.2-3.2-2.6-5.8-6-5.8c-3.5,0-5.7,2.6-5.9,5.8H391.9z"/>
	<path class="st9" d="M399.1,874.1h3.4v2.8h0.1c1.1-2.3,3.7-3.3,6.6-3.3c6.4,0,9.5,5,9.5,10.9c0,5.9-3.1,10.8-9.4,10.8
		c-2.1,0-5.2-0.8-6.7-3.2h-0.1v10.7h-3.4V874.1z M408.7,876.6c-4.6,0-6.3,4-6.3,7.8c0,4,1.8,7.8,6.5,7.8c4.6,0,6.2-4,6.2-8
		C415.1,880.4,413.1,876.6,408.7,876.6z"/>
	<path class="st9" d="M427.4,874.1h4.1v3h-4.1V890c0,1.6,0.4,1.8,2.6,1.8h1.6v3h-2.6c-3.5,0-4.9-0.7-4.9-4.5v-13.2h-3.5v-3h3.5v-6.2
		h3.4V874.1z"/>
	<path class="st9" d="M453.6,894.7c-0.6,0.4-1.4,0.6-2.4,0.6c-1.8,0-2.9-1-2.9-3.2c-1.9,2.2-4.4,3.2-7.3,3.2c-3.8,0-6.8-1.6-6.8-5.8
		c0-4.7,3.5-5.7,7-6.4c3.7-0.8,7-0.4,7-3c0-3-2.5-3.4-4.6-3.4c-2.9,0-5,0.9-5.2,3.9H435c0.2-5.1,4.1-6.9,8.8-6.9
		c3.7,0,7.8,0.8,7.8,5.7V890c0,1.6,0,2.3,1.1,2.3c0.3,0,0.7-0.1,1-0.2V894.7z M448.1,884.1c-2.6,2-10.3,0-10.3,5.1c0,2.2,1.9,3,4,3
		c4.5,0,6.3-2.8,6.3-4.7V884.1z"/>
	<path class="st9" d="M456.9,866.2h3.4v10.7h0.1c1.1-2.3,3.7-3.3,6.6-3.3c6.4,0,9.5,5,9.5,10.9c0,5.9-3.1,10.8-9.4,10.8
		c-2.1,0-5.2-0.8-6.7-3.2h-0.1v2.8h-3.4V866.2z M466.5,876.6c-4.6,0-6.3,4-6.3,7.8c0,4,1.8,7.8,6.5,7.8c4.6,0,6.2-4,6.2-8
		C472.9,880.4,470.9,876.6,466.5,876.6z"/>
	<path class="st9" d="M480.7,866.2h3.4v28.6h-3.4V866.2z"/>
	<path class="st9" d="M507,888.2c-0.9,4.6-4.2,7-8.8,7c-6.6,0-9.7-4.6-9.9-10.9c0-6.2,4.1-10.8,9.7-10.8c7.3,0,9.6,6.8,9.4,11.8
		h-15.5c-0.1,3.6,1.9,6.8,6.4,6.8c2.8,0,4.8-1.3,5.4-4H507z M503.7,882.5c-0.2-3.2-2.6-5.8-6-5.8c-3.5,0-5.7,2.6-5.9,5.8H503.7z"/>
</g>
<g>
	<g>
		<line class="st11" x1="870.4" y1="448" x2="870.4" y2="490.4"/>
		<g>
			<polygon class="st1" points="858.2,480.4 860.4,478.4 870.4,489.2 880.5,478.4 882.7,480.4 870.4,493.6 			"/>
		</g>
	</g>
</g>
<g class="st12">
	<path class="st3" d="M82.7,266.2h-7.2L70,243.8h-0.1l-5.5,22.4h-7.3l-8.7-32.8h7.2l5.2,22.4h0.1l5.7-22.4h6.8L79,256h0.1l5.4-22.6
		h7.1L82.7,266.2z"/>
	<path class="st3" d="M94.1,233.3h6.5v12.4h0.1c1.7-2.7,4.5-4,6.9-4c6.9,0,8.7,3.9,8.7,9.8v14.6h-6.5v-13.4c0-3.9-1.1-5.8-4.2-5.8
		c-3.5,0-5.1,2-5.1,6.8v12.5h-6.5V233.3z"/>
	<path class="st3" d="M133,241.8c7.5,0,12.3,5,12.3,12.6c0,7.5-4.8,12.5-12.3,12.5c-7.5,0-12.3-5-12.3-12.5
		C120.7,246.7,125.5,241.8,133,241.8z M133,261.9c4.5,0,5.8-3.8,5.8-7.6s-1.3-7.6-5.8-7.6c-4.4,0-5.8,3.8-5.8,7.6
		S128.6,261.9,133,261.9z"/>
</g>
<line class="st7" x1="48.2" y1="207.7" x2="958.9" y2="207.7"/>
<g>
	<rect x="1053.4" y="227.8" class="st10" width="202.5" height="49.5"/>
	<path d="M1056.6,227.8h7.2v12.6h13.3v-12.6h7.2v32.8h-7.2v-14.2h-13.3v14.2h-7.2V227.8z"/>
	<path d="M1101.5,236.2c7.5,0,12.3,5,12.3,12.6c0,7.5-4.8,12.5-12.3,12.5c-7.5,0-12.3-5-12.3-12.5
		C1089.2,241.1,1094.1,236.2,1101.5,236.2z M1101.5,256.3c4.5,0,5.8-3.8,5.8-7.6c0-3.8-1.3-7.6-5.8-7.6c-4.4,0-5.8,3.8-5.8,7.6
		C1095.8,252.5,1097.1,256.3,1101.5,256.3z"/>
	<path d="M1145.3,260.6h-6.7l-4.2-16h-0.1l-4,16h-6.8l-7.5-23.8h6.9l4.4,16.1h0.1l4-16.1h6.3l4,16.1h0.1l4.4-16.1h6.7L1145.3,260.6z
		"/>
</g>
<g>
	<path class="st10" d="M560,513.5H435.6c-7.1,0-13-5.8-13-13V360.2c0-7.1,5.8-13,13-13H560c7.1,0,13,5.8,13,13v140.3
		C573,507.6,567.1,513.5,560,513.5"/>
</g>
<rect x="-1" class="st2" width="2049" height="185.5"/>
<path class="st1" d="M181,92.6c0,36.2-29.3,65.5-65.5,65.5c-36.2,0-65.5-29.3-65.5-65.5c0-36.2,29.3-65.5,65.5-65.5
	C151.7,27.1,181,56.4,181,92.6"/>
<g>
	<g>
		<path class="st3" d="M218.9,95.4c0,4.4,3.4,6.1,7.3,6.1c2.5,0,6.4-0.7,6.4-4.1c0-3.6-5-4.1-9.8-5.4c-4.9-1.2-9.8-3.3-9.8-9.3
			c0-6.8,6.3-9.9,12.3-9.9c6.9,0,13.2,3,13.2,10.6h-7c-0.2-3.9-3-5-6.5-5c-2.3,0-5,1-5,3.7c0,2.5,1.6,2.9,9.8,5
			c2.4,0.6,9.8,2.2,9.8,9.6c0,6-4.7,10.5-13.7,10.5c-7.3,0-14.1-3.6-14-11.7H218.9z"/>
		<path class="st3" d="M251.4,82.6h4.8v4.4h-4.8v11.8c0,2.2,0.6,2.8,2.8,2.8c0.7,0,1.4,0,2-0.2v5.1c-1.1,0.2-2.5,0.2-3.8,0.2
			c-4,0-7.5-0.9-7.5-5.7v-14h-4v-4.4h4v-7.1h6.5V82.6z"/>
		<path class="st3" d="M264.7,96c0.2,4.2,2.2,6,5.8,6c2.6,0,4.7-1.6,5.2-3.1h5.8c-1.8,5.7-5.8,8-11.1,8c-7.5,0-12.1-5.2-12.1-12.5
			c0-7.1,4.9-12.6,12.1-12.6c8.1,0,12.1,6.8,11.5,14.1H264.7z M275.3,91.9c-0.6-3.3-2-5.1-5.2-5.1c-4.2,0-5.3,3.2-5.4,5.1H275.3z"/>
		<path class="st3" d="M285.7,82.6h6.2v3h0.1c1.6-2.6,4.1-3.7,7.1-3.7c7.5,0,10.8,6,10.8,12.8c0,6.3-3.5,12.3-10.4,12.3
			c-2.9,0-5.5-1.2-7.1-3.6h-0.1v11.3h-6.5V82.6z M303.4,94.5c0-3.8-1.5-7.7-5.7-7.7c-4.3,0-5.7,3.8-5.7,7.7s1.5,7.5,5.7,7.5
			C302,102.1,303.4,98.4,303.4,94.5z"/>
		<path class="st3" d="M334.6,87.2c2.8,0.2,6.9-0.3,6.9-4c0-2.8-2.2-4.3-4.6-4.3c-3.3,0-5,2.4-5,5.8h-6.2
			c0.2-6.6,4.5-11.1,11.1-11.1c5.2,0,10.8,3.2,10.8,8.9c0,3.1-1.5,5.7-4.5,6.6v0.1c3.5,0.8,5.7,3.7,5.7,7.3c0,6.8-5.7,10.6-12,10.6
			c-7.2,0-12.1-4.3-12-11.7h6.2c0.1,3.5,1.9,6.3,5.7,6.3c2.9,0,5.2-2,5.2-5.1c0-4.9-4.3-4.8-7.5-4.8V87.2z"/>
		<path class="st3" d="M359.7,90.1h-7.2V83h7.2V90.1z M352.5,99.3h7.2v7.1h-7.2V99.3z"/>
		<path class="st3" d="M378.4,73.5h17.7c5.9,0,9.6,4.1,9.6,9.1c0,3.9-1.5,6.8-5.2,8.2v0.1c3.5,1,4.6,4.3,4.8,7.7
			c0.1,2.1,0,6,1.4,7.8h-7.2c-0.8-2.1-0.8-5.2-1.2-7.9c-0.5-3.5-1.8-5-5.5-5h-7.2v12.8h-7.2V73.5z M385.7,88.4h7.9
			c3.3,0,5-1.4,5-4.7c0-3.2-1.7-4.6-5-4.6h-7.9V88.4z"/>
		<path class="st3" d="M416.3,96c0.2,4.2,2.2,6,5.8,6c2.6,0,4.7-1.6,5.2-3.1h5.8c-1.8,5.7-5.8,8-11.1,8c-7.5,0-12.1-5.2-12.1-12.5
			c0-7.1,4.9-12.6,12.1-12.6c8.1,0,12.1,6.8,11.5,14.1H416.3z M427,91.9c-0.6-3.3-2-5.1-5.2-5.1c-4.2,0-5.3,3.2-5.4,5.1H427z"/>
		<path class="st3" d="M450.5,106.4h-7.3l-8.1-23.8h6.9l5,16.2h0.1l5-16.2h6.5L450.5,106.4z"/>
		<path class="st3" d="M468,78.9h-6.5v-5.4h6.5V78.9z M461.5,82.6h6.5v23.8h-6.5V82.6z"/>
		<path class="st3" d="M478.5,96c0.2,4.2,2.2,6,5.8,6c2.6,0,4.7-1.6,5.2-3.1h5.8c-1.8,5.7-5.8,8-11.1,8c-7.5,0-12.1-5.2-12.1-12.5
			c0-7.1,4.9-12.6,12.1-12.6c8.1,0,12.1,6.8,11.5,14.1H478.5z M489.2,91.9c-0.6-3.3-2-5.1-5.2-5.1c-4.2,0-5.3,3.2-5.4,5.1H489.2z"/>
		<path class="st3" d="M526.7,106.4H520l-4.2-16h-0.1l-4,16h-6.8l-7.5-23.8h6.9l4.4,16.1h0.1l4-16.1h6.3l4,16.1h0.1l4.4-16.1h6.7
			L526.7,106.4z"/>
		<path class="st3" d="M549.5,89.9c0.4-6.1,5.8-8,11.2-8c4.7,0,10.4,1.1,10.4,6.8v12.4c0,2.2,0.2,4.3,0.8,5.3h-6.6
			c-0.2-0.7-0.4-1.5-0.5-2.3c-2.1,2.2-5.1,2.9-8,2.9c-4.6,0-8.1-2.3-8.1-7.1c0.1-10.8,16.1-5,15.8-10.4c0-2.8-1.9-3.2-4.2-3.2
			c-2.5,0-4.1,1-4.3,3.6H549.5z M564.6,94.7c-1.1,1-3.4,1-5.4,1.4c-2,0.4-3.9,1.1-3.9,3.5s1.9,3,4,3c5.1,0,5.3-4,5.3-5.5V94.7z"/>
		<path class="st3" d="M576.2,82.6h6.2v3.3h0.1c1.7-2.7,4.5-4,7.3-4c6.9,0,8.7,3.9,8.7,9.8v14.6H592V92.9c0-3.9-1.1-5.8-4.2-5.8
			c-3.5,0-5.1,2-5.1,6.8v12.5h-6.5V82.6z"/>
		<path class="st3" d="M620.4,103.3L620.4,103.3c-1.6,2.6-4.2,3.7-7.3,3.7c-7.2,0-10.7-6.1-10.7-12.7c0-6.4,3.5-12.3,10.5-12.3
			c2.8,0,5.6,1.2,7,3.5h0.1v-12h6.5v32.8h-6.2V103.3z M614.7,86.8c-4.3,0-5.8,3.7-5.8,7.6c0,3.7,1.7,7.6,5.8,7.6
			c4.3,0,5.6-3.8,5.6-7.7C620.3,90.5,619,86.8,614.7,86.8z"/>
		<path class="st3" d="M645,73.5h17.7c5.9,0,9.6,4.1,9.6,9.1c0,3.9-1.5,6.8-5.2,8.2v0.1c3.5,1,4.6,4.3,4.8,7.7c0.1,2.1,0,6,1.4,7.8
			h-7.2c-0.8-2.1-0.8-5.2-1.2-7.9c-0.5-3.5-1.8-5-5.5-5h-7.2v12.8H645V73.5z M652.3,88.4h7.9c3.3,0,5-1.4,5-4.7c0-3.2-1.7-4.6-5-4.6
			h-7.9V88.4z"/>
		<path class="st3" d="M682.9,96c0.2,4.2,2.2,6,5.8,6c2.6,0,4.7-1.6,5.2-3.1h5.8c-1.8,5.7-5.8,8-11.1,8c-7.5,0-12.1-5.2-12.1-12.5
			c0-7.1,4.9-12.6,12.1-12.6c8.1,0,12.1,6.8,11.5,14.1H682.9z M693.6,91.9c-0.6-3.3-2-5.1-5.2-5.1c-4.2,0-5.3,3.2-5.4,5.1H693.6z"/>
		<path class="st3" d="M704.2,73.5h6.5v32.8h-6.5V73.5z"/>
		<path class="st3" d="M721.2,96c0.2,4.2,2.2,6,5.8,6c2.6,0,4.7-1.6,5.2-3.1h5.8c-1.8,5.7-5.8,8-11.1,8c-7.5,0-12.1-5.2-12.1-12.5
			c0-7.1,4.9-12.6,12.1-12.6c8.1,0,12.1,6.8,11.5,14.1H721.2z M731.8,91.9c-0.6-3.3-2-5.1-5.2-5.1c-4.2,0-5.3,3.2-5.4,5.1H731.8z"/>
		<path class="st3" d="M742,89.9c0.4-6.1,5.8-8,11.2-8c4.7,0,10.4,1.1,10.4,6.8v12.4c0,2.2,0.2,4.3,0.8,5.3h-6.6
			c-0.2-0.7-0.4-1.5-0.5-2.3c-2.1,2.2-5.1,2.9-8,2.9c-4.6,0-8.1-2.3-8.1-7.1c0.1-10.8,16.1-5,15.8-10.4c0-2.8-1.9-3.2-4.2-3.2
			c-2.5,0-4.1,1-4.3,3.6H742z M757.1,94.7c-1.1,1-3.4,1-5.4,1.4c-2,0.4-3.9,1.1-3.9,3.5s1.9,3,4,3c5.1,0,5.3-4,5.3-5.5V94.7z"/>
		<path class="st3" d="M773.7,98.6c0,2.8,2.5,4,5,4c1.8,0,4.3-0.7,4.3-3c0-2-2.8-2.7-7.4-3.7c-3.8-0.9-7.5-2.1-7.5-6.3
			c0-6.1,5.2-7.6,10.4-7.6c5.2,0,10,1.7,10.5,7.6h-6.2c-0.2-2.5-2.1-3.2-4.5-3.2c-1.5,0-3.6,0.2-3.6,2.2c0,2.3,3.7,2.7,7.4,3.5
			c3.8,0.9,7.5,2.3,7.5,6.7c0,6.3-5.5,8.3-10.9,8.3c-5.5,0-10.9-2.1-11.2-8.4H773.7z"/>
		<path class="st3" d="M798.7,96c0.2,4.2,2.2,6,5.8,6c2.6,0,4.7-1.6,5.2-3.1h5.8c-1.8,5.7-5.8,8-11.1,8c-7.5,0-12.1-5.2-12.1-12.5
			c0-7.1,4.9-12.6,12.1-12.6c8.1,0,12.1,6.8,11.5,14.1H798.7z M809.4,91.9c-0.6-3.3-2-5.1-5.2-5.1c-4.2,0-5.3,3.2-5.4,5.1H809.4z"/>
	</g>
</g>
<g>
	<path class="st13" d="M80.3,59.3l70.2,0c2.9,0,5.2,2.3,5.2,5.2l0,43.1c0,2.9-2.3,5.2-5.2,5.2l-70.2,0c-2.9,0-5.2-2.4-5.2-5.2
		l0-43.2C75.1,61.7,77.5,59.3,80.3,59.3z"/>
	<path class="st14" d="M81.3,63.1l18.2,0l50.1,0c1.3,0,2.3,1,2.3,2.3l0,41.2c0,1.3-1.1,2.3-2.3,2.3l-56.6,0H81.3
		c-1.3,0-2.3-1.1-2.3-2.3l0-41.2C78.9,64.2,80,63.1,81.3,63.1z"/>
	<path class="st15" d="M162.4,112.9l-93.8,0v0.1c0,3.3,2.7,6,5.9,6l81.9,0c3.3,0,6-2.7,6-5.9V112.9z"/>
	<rect x="105.2" y="112.9" class="st16" width="20.7" height="1"/>
	<path class="st14" d="M115.4,63.2l0,45.9l-34.2,0c-1.3,0-2.3-1.1-2.3-2.3l0-41.2c0-1.3,1-2.3,2.3-2.3l18.2,0L115.4,63.2z"/>
	<rect x="91.3" y="73.5" class="st17" width="48.3" height="28.8"/>
	<rect x="91.3" y="69.3" class="st18" width="48.3" height="4.2"/>
	<path class="st19" d="M103.5,80.3L103.5,80.3c0.6,0,1.2,0.5,1.2,1.2l0,0c0,0.7-0.5,1.2-1.2,1.2l0,0c-0.6,0-1.2-0.5-1.2-1.2l0,0
		C102.3,80.9,102.9,80.3,103.5,80.3z"/>
	<path class="st20" d="M103.5,86.7L103.5,86.7c0.6,0,1.2,0.5,1.2,1.2l0,0c0,0.6-0.5,1.2-1.2,1.2l0,0c-0.6,0-1.2-0.5-1.2-1.2l0,0
		C102.3,87.2,102.9,86.7,103.5,86.7z"/>
	<path class="st21" d="M103.5,93.5L103.5,93.5c0.6,0,1.2,0.5,1.2,1.2l0,0c0,0.6-0.5,1.2-1.2,1.2l0,0c-0.6,0-1.2-0.5-1.2-1.2l0,0
		C102.3,94,102.9,93.5,103.5,93.5z"/>
	<rect x="107.1" y="80.9" class="st22" width="18.3" height="1.2"/>
	<rect x="107.1" y="87.3" class="st22" width="19.8" height="1.2"/>
	<rect x="107.1" y="94.1" class="st22" width="15.6" height="1.2"/>
</g>
<g>
	<path class="st23" d="M480.1,414.5h34.8l3.7,39.6c0.3,2.8,2.6,4.9,5.6,5l0.7,0l-4.4,14.8l-46.2-3.6l-3.4-11.2l1.3-0.2
		c2.7-0.4,4.7-2.4,4.9-5L480.1,414.5z"/>
	<path class="st24" d="M497.8,472.1l-23.5-1.8l-3.4-11.2l1.3-0.2c2.7-0.4,4.7-2.4,4.9-5l2.2-27.9h18.6L497.8,472.1L497.8,472.1z"/>
	<path class="st25" d="M480.1,414.5h34.8l2.8,29.9c-0.6,1-1.1,1.6-1.8,2.6c-5.1,7-11.7,11.8-18.1,11.8c-6.4,0-13-4.7-18.1-11.8
		c-0.8-1.1-1.3-1.8-2-3L480.1,414.5z"/>
	<path class="st26" d="M497.8,448.4c-8.1,0-16.3-5.3-22.3-13c-6-7.6-10-17.7-10-27.5v-0.2l0-0.1c0-0.6,0-1.3,0-1.9
		c0-23.4-4.3-42.4,32.4-42.4c36.7,0,32.4,19,32.4,42.4c0,0.6,0,1.3,0,1.9l0,0.1v0.2c0,9.8-4,19.9-10,27.5
		C514.1,443.2,505.9,448.4,497.8,448.4z"/>
	<path class="st27" d="M503.4,467.3h-10.9l-15.7-12.1l-6,3.9c-19.3,4-34.1,12.5-34.1,25.6c0,6.4,0,12.9,0,19.3
		c0,5.2,4.5,9.5,10.1,9.5h18.9h25.5h13.6h22.3h21.7c5.6,0,10.1-4.3,10.1-9.5l0-19.3c0-13.1-14.8-21.6-34.1-25.6l-5.9-3.8
		L503.4,467.3z"/>
	<polygon class="st28" points="503.4,467.3 492.5,467.3 476.8,455.2 470.7,459.1 502.1,491.6 504.8,513.5 506.1,513.5 502.9,483.2 
		526.9,459.6 524.8,459.1 518.9,455.3 	"/>
	<path class="st29" d="M476.2,439.8c6.1,7.7,14,13,21.6,13c7.6,0,15.5-5.3,21.6-13c6.2-8,10.5-18.4,10.6-28.6l-2.1-8.1
		c-0.8-2.9-0.8-5.6-0.9-8.1c-0.1-3.3-0.1-6.4-2.1-9c-3.2-4.1-8.1-2.8-14-1.2c-4,1.1-8.3,2.2-13,2.2c-4.7,0-9-1.1-13-2.2h0
		c-5.8-1.6-10.8-2.9-14,1.2c-2,2.5-2,5.6-2.1,9c-0.1,2.6-0.1,5.3-0.9,8.1l-2.1,8.1C465.7,421.3,469.9,431.8,476.2,439.8z"/>
	<path class="st30" d="M476.2,439.8c6.1,7.7,14,13,21.6,13V387c-4.7,0-9-1.1-13-2.2h0c-5.8-1.6-10.8-2.9-14,1.2c-2,2.5-2,5.6-2.1,9
		c-0.1,2.6-0.1,5.3-0.9,8.1l-2.1,8.1C465.7,421.3,469.9,431.8,476.2,439.8z"/>
	<path class="st31" d="M491.2,513.5h13.6c-1.5-12.1-2.9-21.6-4.4-33.7c-0.1-0.7,0.1-1.2,0.5-1.8l3.7-9c0.2-0.4,0.3-0.8,0-1.2
		c-0.2-0.4-0.6-0.6-1.1-0.6c-3.6,0-7.3,0-10.9,0c-0.5,0-0.9,0.2-1.1,0.6c-0.2,0.4-0.2,0.8,0,1.2l3.7,9c0.3,0.6,0.5,1.1,0.4,1.8
		C494.1,491.9,492.6,501.4,491.2,513.5z"/>
	<path class="st26" d="M500.4,479.8c-0.1-0.7,0.1-1.2,0.4-1.8l3.7-9c0.2-0.4,0.3-0.8,0-1.2c-0.2-0.4-0.6-0.6-1.1-0.6
		c-3.6,0-7.3,0-10.9,0c-0.5,0-0.9,0.2-1.1,0.6c-0.2,0.4-0.2,0.8,0,1.2l3.7,9c0.3,0.6,0.5,1.1,0.4,1.8l-0.5,4.5l6.6,5.6L500.4,479.8z
		"/>
	<polygon class="st27" points="498,467.3 476.8,455.2 470.7,459.1 491.5,479 	"/>
	<polygon class="st27" points="498,467.3 518.9,455.3 524.9,459.1 504.4,479 	"/>
	<path class="st26" d="M436.6,484.7c0,6.4,0,12.9,0,19.3c0,5.2,4.5,9.5,10.1,9.5H496l-4-7.1c-9.6-17.5-15.2-25.1-21.3-47.3
		C451.4,463.1,436.6,471.6,436.6,484.7L436.6,484.7z M499.5,513.5h49.3c5.6,0,10.1-4.3,10.1-9.5l0-19.3c0-13.1-14.8-21.6-34.1-25.6
		c-6,22-11.5,29.6-21,46.7L499.5,513.5z"/>
</g>
<g>
	<polygon class="st8" points="1895.5,903.4 1909,916.9 1895.5,930.4 1900.9,935.7 1919.7,916.9 1900.9,898.1 	"/>
	<polygon class="st8" points="1883.4,935.7 1902.2,916.9 1883.4,898.1 1878,903.4 1891.5,916.9 1878,930.4 	"/>
</g>
<g>
	<rect x="1303.4" y="908" class="st10" width="569.3" height="21.8"/>
	<path class="st9" d="M1306.6,908h9.8l-0.3,1.6h-7.9l-1,4.5h7.4l-0.3,1.6h-7.4l-1,4.9h8l-0.4,1.6h-9.9L1306.6,908z"/>
	<path class="st9" d="M1319.1,916.8l-2.3-4.9h2l1.6,3.8l3.1-3.8h2.1l-4.4,5l2.6,5.3h-1.9l-1.9-4.2l-3.5,4.2h-2.1L1319.1,916.8z"/>
	<path class="st9" d="M1326.3,915.1c0.3-2.3,2.3-3.4,4.5-3.4c2,0,3.8,0.6,3.8,2.6c0,0.6-0.2,1.3-0.3,1.9l-0.7,2.8
		c-0.1,0.4-0.3,1-0.3,1.5c0,0.5,0.2,0.6,0.5,0.6c0.2,0,0.4-0.1,0.5-0.1l-0.3,1.3c-0.3,0.1-0.7,0.2-1,0.2c-0.9,0-1.4-0.6-1.3-1.5l0,0
		c-0.7,1-1.7,1.5-3.5,1.5c-1.7,0-3.2-0.8-3.2-2.9c0-3,2.9-3.2,5.2-3.4c1.8-0.2,2.6-0.3,2.6-1.6c0-1.1-1.2-1.4-2.1-1.4
		c-1.3,0-2.6,0.5-2.8,1.9H1326.3z M1328.6,921c1.3,0,2.3-0.5,2.9-1.4c0.6-0.8,0.7-1.7,0.9-2.7h0c-1.4,1-5.6,0-5.6,2.6
		C1326.7,920.5,1327.6,921,1328.6,921z"/>
	<path class="st9" d="M1337.7,911.9h1.6l-0.4,1.5l0,0c0.9-1.1,2.2-1.8,3.6-1.8c1.3,0,2.3,0.5,2.6,1.9c0.8-1.1,2.2-1.9,3.5-1.9
		c1.5,0,2.9,0.6,2.9,2.3c0,0.6-0.2,1.5-0.3,2.1l-1.3,6.2h-1.7l1.4-6.6c0.1-0.3,0.2-0.8,0.2-1.1c0-0.8-0.7-1.4-1.6-1.4
		c-1,0-2,0.7-2.6,1.4c-0.6,0.6-0.8,1.4-1,2.3l-1.1,5.3h-1.7l1.2-5.9c0.2-0.8,0.3-1.6,0.3-1.8c0-0.9-0.5-1.4-1.4-1.4
		c-0.9,0-1.9,0.6-2.5,1.3c-0.7,0.7-0.9,1.3-1.1,2.3l-1.2,5.4h-1.7L1337.7,911.9z"/>
	<path class="st9" d="M1354.7,911.9h1.6l-0.4,1.5h0c1-1.3,2-1.7,3.4-1.7c2.6,0,4.1,1.7,4.1,4.2c0,3.1-2.1,6.6-5.7,6.6
		c-1.2,0-2.8-0.4-3.2-1.8h0l-1.1,5.5h-1.7L1354.7,911.9z M1359.1,913.2c-2.6,0-4,3-4,5.1c0,1.5,0.9,2.7,2.6,2.7
		c2.7,0,4.1-2.8,4.1-5.1C1361.8,914.3,1361,913.2,1359.1,913.2z"/>
	<path class="st9" d="M1367.4,908h1.7l-3,14.3h-1.7L1367.4,908z"/>
	<path class="st9" d="M1370.9,917.6c0,0.3-0.1,0.6-0.1,0.9c0,1.6,1.3,2.5,2.7,2.5c1.5,0,2.5-0.7,3-2h1.7c-0.5,2.3-2.4,3.5-4.7,3.5
		c-3.4,0-4.4-2.4-4.4-4.2c0-4,2.5-6.7,5.3-6.7c3,0,4.4,1.7,4.4,4.6c0,0.5-0.1,1-0.2,1.3H1370.9z M1377.2,916.1
		c0.1-1.5-0.5-2.9-2.4-2.9c-2,0-3.1,1.3-3.6,2.9H1377.2z"/>
	<path class="st9" d="M1391.4,911.7c2.8,0,4.3,1.5,4.3,4.3c0,3.4-2.1,6.5-5.7,6.5c-2.7,0-4.4-1.8-4.4-4.3
		C1385.6,914.8,1387.8,911.7,1391.4,911.7z M1390.1,921c2.5,0,3.8-2.9,3.8-4.9c0-1.6-0.9-2.9-2.7-2.9c-2.6,0-4,2.8-4,5
		C1387.3,919.9,1388.3,921,1390.1,921z"/>
	<path class="st9" d="M1399.1,913.4h-1.8l0.3-1.5h1.8c0.5-2.1,0.6-4.1,3.3-4.1c0.5,0,1,0,1.4,0.2l-0.3,1.4c-0.3-0.1-0.6-0.1-0.8-0.1
		c-1.7,0-1.6,1.3-2,2.6h2l-0.3,1.5h-2l-1.9,8.8h-1.7L1399.1,913.4z"/>
	<path class="st9" d="M1409.3,915.1c0.3-2.3,2.3-3.4,4.5-3.4c2,0,3.8,0.6,3.8,2.6c0,0.6-0.2,1.3-0.3,1.9l-0.7,2.8
		c-0.1,0.4-0.3,1-0.3,1.5c0,0.5,0.2,0.6,0.5,0.6c0.2,0,0.4-0.1,0.5-0.1l-0.3,1.3c-0.3,0.1-0.7,0.2-1,0.2c-0.9,0-1.4-0.6-1.3-1.5l0,0
		c-0.7,1-1.7,1.5-3.5,1.5c-1.7,0-3.2-0.8-3.2-2.9c0-3,2.9-3.2,5.2-3.4c1.8-0.2,2.6-0.3,2.6-1.6c0-1.1-1.2-1.4-2.1-1.4
		c-1.3,0-2.6,0.5-2.8,1.9H1409.3z M1411.6,921c1.3,0,2.3-0.5,2.9-1.4c0.6-0.8,0.7-1.7,0.9-2.7h0c-1.4,1-5.6,0-5.6,2.6
		C1409.7,920.5,1410.6,921,1411.6,921z"/>
	<path class="st9" d="M1432.5,915.2c0-1.3-0.8-2-2.2-2c-2.6,0-4,2.6-4,4.9c0,1.6,0.6,3,2.6,3c1.5,0,2.5-0.8,3-2.1h1.7
		c-0.6,2.3-2.3,3.6-4.7,3.6c-2.8,0-4.3-1.7-4.3-4.5c0-3.3,2-6.4,5.7-6.4c2.3,0,3.8,1.1,3.9,3.5H1432.5z"/>
	<path class="st9" d="M1441,911.7c2.8,0,4.3,1.5,4.3,4.3c0,3.4-2.1,6.5-5.7,6.5c-2.7,0-4.4-1.8-4.4-4.3
		C1435.2,914.8,1437.4,911.7,1441,911.7z M1439.8,921c2.5,0,3.8-2.9,3.8-4.9c0-1.6-0.9-2.9-2.7-2.9c-2.6,0-4,2.8-4,5
		C1436.9,919.9,1437.9,921,1439.8,921z"/>
	<path class="st9" d="M1448.5,911.9h1.6l-0.4,1.5l0,0c0.9-1.1,2.2-1.8,3.6-1.8c1.3,0,2.3,0.5,2.6,1.9c0.8-1.1,2.2-1.9,3.5-1.9
		c1.5,0,2.9,0.6,2.9,2.3c0,0.6-0.2,1.5-0.3,2.1l-1.3,6.2h-1.7l1.4-6.6c0.1-0.3,0.2-0.8,0.2-1.1c0-0.8-0.7-1.4-1.6-1.4
		c-1,0-2,0.7-2.6,1.4c-0.6,0.6-0.8,1.4-1,2.3l-1.1,5.3h-1.7l1.2-5.9c0.2-0.8,0.3-1.6,0.3-1.8c0-0.9-0.5-1.4-1.4-1.4
		c-0.9,0-1.9,0.6-2.5,1.3c-0.7,0.7-0.9,1.3-1.1,2.3l-1.2,5.4h-1.7L1448.5,911.9z"/>
	<path class="st9" d="M1465.5,911.9h1.6l-0.4,1.5h0c1-1.3,2-1.7,3.4-1.7c2.6,0,4.1,1.7,4.1,4.2c0,3.1-2.1,6.6-5.7,6.6
		c-1.2,0-2.8-0.4-3.2-1.8h0l-1.1,5.5h-1.7L1465.5,911.9z M1469.9,913.2c-2.6,0-4,3-4,5.1c0,1.5,0.9,2.7,2.6,2.7
		c2.7,0,4.1-2.8,4.1-5.1C1472.5,914.3,1471.7,913.2,1469.9,913.2z"/>
	<path class="st9" d="M1478.2,908h1.7l-3,14.3h-1.7L1478.2,908z"/>
	<path class="st9" d="M1481.7,917.6c0,0.3-0.1,0.6-0.1,0.9c0,1.6,1.3,2.5,2.7,2.5c1.5,0,2.5-0.7,3-2h1.7c-0.5,2.3-2.4,3.5-4.7,3.5
		c-3.4,0-4.4-2.4-4.4-4.2c0-4,2.5-6.7,5.3-6.7c3,0,4.4,1.7,4.4,4.6c0,0.5-0.1,1-0.2,1.3H1481.7z M1487.9,916.1
		c0.1-1.5-0.5-2.9-2.4-2.9c-2,0-3.1,1.3-3.6,2.9H1487.9z"/>
	<path class="st9" d="M1494.9,911.9h2.1l-0.3,1.5h-2.1l-1.3,6.1c0,0.2-0.1,0.4-0.1,0.7c0,0.5,0.5,0.7,1,0.7c0.3,0,0.7-0.1,1-0.2
		l-0.3,1.6c-0.4,0.1-0.8,0.1-1.2,0.1c-1.3,0-2.3-0.4-2.3-1.7c0-0.3,0-0.5,0.1-0.9l1.4-6.4h-1.7l0.3-1.5h1.7l0.6-3.1h1.7
		L1494.9,911.9z"/>
	<path class="st9" d="M1498.7,917.6c0,0.3-0.1,0.6-0.1,0.9c0,1.6,1.3,2.5,2.7,2.5c1.5,0,2.5-0.7,3-2h1.7c-0.5,2.3-2.4,3.5-4.7,3.5
		c-3.4,0-4.4-2.4-4.4-4.2c0-4,2.5-6.7,5.3-6.7c3,0,4.4,1.7,4.4,4.6c0,0.5-0.1,1-0.2,1.3H1498.7z M1505,916.1
		c0.1-1.5-0.5-2.9-2.4-2.9c-2,0-3.1,1.3-3.6,2.9H1505z"/>
	<path class="st9" d="M1516.6,922.3h-1.6l0.4-1.5h0c-1,1.3-2,1.7-3.4,1.7c-2.6,0-4.1-1.7-4.1-4.2c0-3.1,2.1-6.6,5.7-6.6
		c1.3,0,2.8,0.4,3.2,1.8h0l1.1-5.5h1.7L1516.6,922.3z M1512.2,921c2.6,0,4-3,4-5.1c0-1.5-0.9-2.7-2.6-2.7c-2.7,0-4.1,2.8-4.1,5.1
		C1509.5,920,1510.3,921,1512.2,921z"/>
	<path class="st9" d="M1533.5,907.6c3.7,0,6,2.8,6,6.3c0,4.5-2.9,8.6-7.7,8.6c-3.9,0-6.1-2.3-6.1-6.3
		C1525.7,911.7,1528.6,907.6,1533.5,907.6z M1531.8,921c3.8,0,5.8-3.6,5.8-7c0-2.6-1.4-4.7-4.1-4.7c-4,0-5.9,3.7-5.9,7.1
		C1527.6,919.1,1528.9,921,1531.8,921z"/>
	<path class="st9" d="M1542.5,913.4h-1.8l0.3-1.5h1.8c0.5-2.1,0.6-4.1,3.3-4.1c0.5,0,1,0,1.4,0.2l-0.3,1.4c-0.3-0.1-0.6-0.1-0.8-0.1
		c-1.7,0-1.6,1.3-2,2.6h2l-0.3,1.5h-2l-1.9,8.8h-1.7L1542.5,913.4z"/>
	<path class="st9" d="M1548.4,913.4h-1.8l0.3-1.5h1.8c0.5-2.1,0.6-4.1,3.3-4.1c0.5,0,1,0,1.4,0.2l-0.3,1.4c-0.3-0.1-0.6-0.1-0.8-0.1
		c-1.7,0-1.6,1.3-2,2.6h2l-0.3,1.5h-2l-1.9,8.8h-1.7L1548.4,913.4z"/>
	<path class="st9" d="M1553.9,917.6c0,0.3-0.1,0.6-0.1,0.9c0,1.6,1.3,2.5,2.7,2.5c1.5,0,2.5-0.7,3-2h1.7c-0.5,2.3-2.4,3.5-4.7,3.5
		c-3.4,0-4.4-2.4-4.4-4.2c0-4,2.5-6.7,5.3-6.7c3,0,4.4,1.7,4.4,4.6c0,0.5-0.1,1-0.2,1.3H1553.9z M1560.1,916.1
		c0.1-1.5-0.5-2.9-2.4-2.9c-2,0-3.1,1.3-3.6,2.9H1560.1z"/>
	<path class="st9" d="M1564.7,911.9h1.6l-0.5,2.2h0c0.8-1.4,2-2.5,3.8-2.5c0.2,0,0.4-0.1,0.6,0l-0.4,1.8c-0.1,0-0.2,0-0.3,0h-0.2
		c-0.4,0-0.6,0-1,0.1c-0.9,0.2-1.7,0.9-2.2,1.7c-0.5,0.7-0.7,1.6-0.9,2.4l-1,4.6h-1.7L1564.7,911.9z"/>
	<path class="st9" d="M1571.4,911.9h1.7l-2.2,10.3h-1.7L1571.4,911.9z M1573.5,910.1h-1.7l0.4-2.1h1.7L1573.5,910.1z"/>
	<path class="st9" d="M1575.9,911.9h1.6l-0.3,1.6h0c0.9-1.2,2.2-1.8,3.7-1.8c1.9,0,2.9,0.8,2.9,2.7c0,0.5-0.1,1.2-0.3,2l-1.3,5.9
		h-1.7l1.3-6c0.1-0.4,0.2-1.2,0.2-1.6c0-1-0.8-1.4-1.8-1.4c-0.9,0-1.9,0.5-2.6,1.2c-0.6,0.5-0.9,1.3-1.1,2.2l-1.2,5.7h-1.7
		L1575.9,911.9z"/>
	<path class="st9" d="M1594.1,920.8c-0.2,1.1-0.5,2.1-0.8,2.8c-0.9,2.1-2.5,2.9-4.7,2.9c-2.1,0-4.1-0.9-4.1-3.2h1.7
		c0.1,1.4,1.3,1.7,2.6,1.7c2.6,0,3.2-2.1,3.7-4.2l0,0c-0.7,1.1-1.9,1.6-3.2,1.6c-2.6,0-3.9-1.8-3.9-4.3c0-3,2-6.4,5.4-6.4
		c1.5,0,3,0.8,3.3,2.1v0h0l0.3-1.9h1.6L1594.1,920.8z M1589.6,920.9c2.6,0,3.8-2.9,3.8-5c0-1.6-0.9-2.7-2.6-2.7
		c-2.4,0-3.7,3-3.7,4.9C1587,919.6,1587.9,920.9,1589.6,920.9z"/>
	<path class="st9" d="M1605.1,908h5.5c2.4,0,4.7,0.8,4.7,3.6c0,1.9-1.3,3.6-3.2,3.8v0c1.2,0.4,1.6,1.7,1.5,3.1
		c-0.1,1.3-0.6,2.5,0,3.7h-2c-0.2-0.5-0.3-1.6,0-3.1c0.4-2.6-0.5-3-1.4-3h-0.8h-4.2l-1.3,6.1h-1.9L1605.1,908z M1605.6,914.6h4.3
		c3,0,3.5-1.8,3.5-2.8c0-1.8-1.4-2.2-2.8-2.2h-3.9L1605.6,914.6z"/>
	<path class="st9" d="M1617.6,917.6c0,0.3-0.1,0.6-0.1,0.9c0,1.6,1.3,2.5,2.7,2.5c1.5,0,2.5-0.7,3-2h1.7c-0.5,2.3-2.4,3.5-4.7,3.5
		c-3.4,0-4.4-2.4-4.4-4.2c0-4,2.5-6.7,5.3-6.7c3,0,4.4,1.7,4.4,4.6c0,0.5-0.1,1-0.2,1.3H1617.6z M1623.8,916.1
		c0.1-1.5-0.5-2.9-2.4-2.9c-2,0-3.1,1.3-3.6,2.9H1623.8z"/>
	<path class="st9" d="M1629.3,908h1.7l-3,14.3h-1.7L1629.3,908z"/>
	<path class="st9" d="M1632.8,917.6c0,0.3-0.1,0.6-0.1,0.9c0,1.6,1.3,2.5,2.7,2.5c1.5,0,2.5-0.7,3-2h1.7c-0.5,2.3-2.4,3.5-4.7,3.5
		c-3.4,0-4.4-2.4-4.4-4.2c0-4,2.5-6.7,5.3-6.7c3,0,4.4,1.7,4.4,4.6c0,0.5-0.1,1-0.2,1.3H1632.8z M1639,916.1
		c0.1-1.5-0.5-2.9-2.4-2.9c-2,0-3.1,1.3-3.6,2.9H1639z"/>
	<path class="st9" d="M1642.6,915.1c0.3-2.3,2.3-3.4,4.5-3.4c2,0,3.8,0.6,3.8,2.6c0,0.6-0.2,1.3-0.3,1.9l-0.7,2.8
		c-0.1,0.4-0.3,1-0.3,1.5c0,0.5,0.2,0.6,0.5,0.6c0.2,0,0.4-0.1,0.5-0.1l-0.3,1.3c-0.3,0.1-0.7,0.2-1,0.2c-0.9,0-1.4-0.6-1.3-1.5l0,0
		c-0.7,1-1.7,1.5-3.5,1.5c-1.7,0-3.2-0.8-3.2-2.9c0-3,2.9-3.2,5.2-3.4c1.8-0.2,2.6-0.3,2.6-1.6c0-1.1-1.2-1.4-2.1-1.4
		c-1.3,0-2.6,0.5-2.8,1.9H1642.6z M1644.9,921c1.3,0,2.3-0.5,2.9-1.4c0.6-0.8,0.7-1.7,0.9-2.7h0c-1.4,1-5.6,0-5.6,2.6
		C1643.1,920.5,1644,921,1644.9,921z"/>
	<path class="st9" d="M1659,915c0.1-1.2-0.9-1.8-2.1-1.8c-1,0-2.2,0.3-2.2,1.3c0,0.9,1.4,1.4,2.7,1.9c1.4,0.6,2.7,1.3,2.7,2.9
		c0,2.3-2.2,3.2-4.2,3.2c-2.4,0-4.2-0.9-4.2-3.5h1.7c-0.1,1.5,1.2,2,2.6,2c1.1,0,2.4-0.4,2.4-1.6c0-1-1.4-1.4-2.7-2
		c-1.4-0.5-2.7-1.2-2.7-2.8c0-1.9,1.9-3,3.8-3s3.9,0.9,3.9,3.3H1659z"/>
	<path class="st9" d="M1663.5,917.6c0,0.3-0.1,0.6-0.1,0.9c0,1.6,1.3,2.5,2.7,2.5c1.5,0,2.5-0.7,3-2h1.7c-0.5,2.3-2.4,3.5-4.7,3.5
		c-3.4,0-4.4-2.4-4.4-4.2c0-4,2.5-6.7,5.3-6.7c3,0,4.4,1.7,4.4,4.6c0,0.5-0.1,1-0.2,1.3H1663.5z M1669.8,916.1
		c0.1-1.5-0.5-2.9-2.4-2.9c-2,0-3.1,1.3-3.6,2.9H1669.8z"/>
	<path class="st9" d="M1681,908h5.5c2.4,0,4.7,0.8,4.7,3.6c0,1.9-1.3,3.6-3.2,3.8v0c1.2,0.4,1.6,1.7,1.5,3.1c-0.1,1.3-0.6,2.5,0,3.7
		h-2c-0.2-0.5-0.3-1.6,0-3.1c0.4-2.6-0.5-3-1.4-3h-0.8h-4.2l-1.3,6.1h-1.9L1681,908z M1681.5,914.6h4.3c3,0,3.5-1.8,3.5-2.8
		c0-1.8-1.4-2.2-2.8-2.2h-3.9L1681.5,914.6z"/>
	<path class="st9" d="M1693.5,917.6c0,0.3-0.1,0.6-0.1,0.9c0,1.6,1.3,2.5,2.7,2.5c1.5,0,2.5-0.7,3-2h1.7c-0.5,2.3-2.4,3.5-4.7,3.5
		c-3.4,0-4.4-2.4-4.4-4.2c0-4,2.5-6.7,5.3-6.7c3,0,4.4,1.7,4.4,4.6c0,0.5-0.1,1-0.2,1.3H1693.5z M1699.8,916.1
		c0.1-1.5-0.5-2.9-2.4-2.9c-2,0-3.1,1.3-3.6,2.9H1699.8z"/>
	<path class="st9" d="M1710.6,915.2c0-1.3-0.8-2-2.2-2c-2.6,0-4,2.6-4,4.9c0,1.6,0.6,3,2.6,3c1.5,0,2.5-0.8,3-2.1h1.7
		c-0.6,2.3-2.3,3.6-4.7,3.6c-2.8,0-4.3-1.7-4.3-4.5c0-3.3,2-6.4,5.7-6.4c2.3,0,3.8,1.1,3.9,3.5H1710.6z"/>
	<path class="st9" d="M1719.2,911.7c2.8,0,4.3,1.5,4.3,4.3c0,3.4-2.1,6.5-5.7,6.5c-2.7,0-4.4-1.8-4.4-4.3
		C1713.4,914.8,1715.5,911.7,1719.2,911.7z M1717.9,921c2.5,0,3.8-2.9,3.8-4.9c0-1.6-0.9-2.9-2.7-2.9c-2.6,0-4,2.8-4,5
		C1715.1,919.9,1716.1,921,1717.9,921z"/>
	<path class="st9" d="M1726.6,911.9h1.6l-0.5,2.2h0c0.8-1.4,2-2.5,3.8-2.5c0.2,0,0.4-0.1,0.6,0l-0.4,1.8c-0.1,0-0.2,0-0.3,0h-0.2
		c-0.4,0-0.6,0-1,0.1c-0.9,0.2-1.7,0.9-2.2,1.7c-0.5,0.7-0.7,1.6-0.9,2.4l-1,4.6h-1.7L1726.6,911.9z"/>
	<path class="st9" d="M1740.3,922.3h-1.6l0.4-1.5h0c-1,1.3-2,1.7-3.4,1.7c-2.6,0-4.1-1.7-4.1-4.2c0-3.1,2.1-6.6,5.7-6.6
		c1.3,0,2.8,0.4,3.2,1.8h0l1.1-5.5h1.7L1740.3,922.3z M1735.9,921c2.6,0,4-3,4-5.1c0-1.5-0.9-2.7-2.6-2.7c-2.7,0-4.1,2.8-4.1,5.1
		C1733.2,920,1734,921,1735.9,921z"/>
	<path class="st9" d="M1754.7,911.7c2.8,0,4.3,1.5,4.3,4.3c0,3.4-2.1,6.5-5.7,6.5c-2.7,0-4.4-1.8-4.4-4.3
		C1748.9,914.8,1751.1,911.7,1754.7,911.7z M1753.5,921c2.5,0,3.8-2.9,3.8-4.9c0-1.6-0.9-2.9-2.7-2.9c-2.6,0-4,2.8-4,5
		C1750.6,919.9,1751.6,921,1753.5,921z"/>
	<path class="st9" d="M1762.2,911.9h1.6l-0.3,1.6h0c0.9-1.2,2.2-1.8,3.7-1.8c1.9,0,2.9,0.8,2.9,2.7c0,0.5-0.1,1.2-0.3,2l-1.3,5.9
		h-1.7l1.3-6c0.1-0.4,0.2-1.2,0.2-1.6c0-1-0.8-1.4-1.8-1.4c-0.9,0-1.9,0.5-2.6,1.2c-0.6,0.5-0.9,1.3-1.1,2.2l-1.2,5.7h-1.7
		L1762.2,911.9z"/>
	<path class="st9" d="M1778.8,911.9h1.6l-0.3,1.6h0c0.9-1.2,2.2-1.8,3.7-1.8c1.9,0,2.9,0.8,2.9,2.7c0,0.5-0.1,1.2-0.3,2l-1.3,5.9
		h-1.7l1.3-6c0.1-0.4,0.2-1.2,0.2-1.6c0-1-0.8-1.4-1.8-1.4c-0.9,0-1.9,0.5-2.6,1.2c-0.6,0.5-0.9,1.3-1.1,2.2l-1.2,5.7h-1.7
		L1778.8,911.9z"/>
	<path class="st9" d="M1789.8,917.6c0,0.3-0.1,0.6-0.1,0.9c0,1.6,1.3,2.5,2.7,2.5c1.5,0,2.5-0.7,3-2h1.7c-0.5,2.3-2.4,3.5-4.7,3.5
		c-3.4,0-4.4-2.4-4.4-4.2c0-4,2.5-6.7,5.3-6.7c3,0,4.4,1.7,4.4,4.6c0,0.5-0.1,1-0.2,1.3H1789.8z M1796.1,916.1
		c0.1-1.5-0.5-2.9-2.4-2.9c-2,0-3.1,1.3-3.6,2.9H1796.1z"/>
	<path class="st9" d="M1802.1,916.8l-2.3-4.9h2l1.6,3.8l3.1-3.8h2.1l-4.4,5l2.6,5.3h-1.9l-1.9-4.2l-3.5,4.2h-2.1L1802.1,916.8z"/>
	<path class="st9" d="M1812.7,911.9h2.1l-0.3,1.5h-2.1l-1.3,6.1c0,0.2-0.1,0.4-0.1,0.7c0,0.5,0.5,0.7,1,0.7c0.3,0,0.7-0.1,1-0.2
		l-0.3,1.6c-0.4,0.1-0.8,0.1-1.2,0.1c-1.3,0-2.3-0.4-2.3-1.7c0-0.3,0-0.5,0.1-0.9l1.4-6.4h-1.7l0.3-1.5h1.7l0.6-3.1h1.7
		L1812.7,911.9z"/>
	<path class="st9" d="M1827.2,915c0.1-1.2-0.9-1.8-2.1-1.8c-1,0-2.2,0.3-2.2,1.3c0,0.9,1.4,1.4,2.7,1.9c1.4,0.6,2.7,1.3,2.7,2.9
		c0,2.3-2.2,3.2-4.2,3.2c-2.4,0-4.2-0.9-4.2-3.5h1.7c-0.1,1.5,1.2,2,2.6,2c1.1,0,2.4-0.4,2.4-1.6c0-1-1.4-1.4-2.7-2
		c-1.4-0.5-2.7-1.2-2.7-2.8c0-1.9,1.9-3,3.8-3s3.9,0.9,3.9,3.3H1827.2z"/>
	<path class="st9" d="M1832.6,908h1.7l-3,14.3h-1.7L1832.6,908z"/>
	<path class="st9" d="M1836.2,911.9h1.7l-2.2,10.3h-1.7L1836.2,911.9z M1838.3,910.1h-1.7l0.4-2.1h1.7L1838.3,910.1z"/>
	<path class="st9" d="M1847.7,922.3h-1.6l0.4-1.5h0c-1,1.3-2,1.7-3.4,1.7c-2.6,0-4.1-1.7-4.1-4.2c0-3.1,2.1-6.6,5.7-6.6
		c1.3,0,2.8,0.4,3.2,1.8h0l1.1-5.5h1.7L1847.7,922.3z M1843.3,921c2.6,0,4-3,4-5.1c0-1.5-0.9-2.7-2.6-2.7c-2.7,0-4.1,2.8-4.1,5.1
		C1840.6,920,1841.4,921,1843.3,921z"/>
	<path class="st9" d="M1852.4,917.6c0,0.3-0.1,0.6-0.1,0.9c0,1.6,1.3,2.5,2.7,2.5c1.5,0,2.5-0.7,3-2h1.7c-0.5,2.3-2.4,3.5-4.7,3.5
		c-3.4,0-4.4-2.4-4.4-4.2c0-4,2.5-6.7,5.3-6.7c3,0,4.4,1.7,4.4,4.6c0,0.5-0.1,1-0.2,1.3H1852.4z M1858.7,916.1
		c0.1-1.5-0.5-2.9-2.4-2.9c-2,0-3.1,1.3-3.6,2.9H1858.7z"/>
</g>
<g>
</g>
<g>
</g>
<g>
</g>
<g>
</g>
<g>
</g>
<g>
</g>
</svg>
