<?xml version="1.0" encoding="utf-8"?>
<!-- Generator: Adobe Illustrator 19.2.0, SVG Export Plug-In . SVG Version: 6.00 Build 0)  -->
<svg version="1.1" id="Layer_1" xmlns="http://www.w3.org/2000/svg" xmlns:xlink="http://www.w3.org/1999/xlink" x="0px" y="0px"
	 viewBox="0 0 2048 1000" style="enable-background:new 0 0 2048 1000;" xml:space="preserve">
<style type="text/css">
	.st0{fill:#4EA8DE;}
	.st1{fill:#B9E5FB;}
	.st2{fill:none;stroke:#343636;stroke-width:3.2048;stroke-miterlimit:10;}
	.st3{fill:none;}
	.st4{fill:#231F20;}
	.st5{fill:#B8D890;}
	.st6{fill:none;stroke:#FFFFFF;stroke-width:6;stroke-miterlimit:10;}
	.st7{fill:#FFFFFF;}
	.st8{fill:none;stroke:#89C240;stroke-width:6;stroke-miterlimit:10;}
	.st9{fill:#89C240;}
	.st10{fill:none;stroke:#ED1C24;stroke-width:6;stroke-miterlimit:10;}
	.st11{fill:#ED1C24;}
	.st12{fill:#D1ECFB;}
	.st13{fill:#333333;}
	.st14{fill:#CD202D;}
	.st15{fill:#1365A8;}
	.st16{fill:#666666;}
	.st17{fill:#E3CCA4;}
	.st18{fill:#D4C5A3;}
	.st19{fill:#CCBC97;}
	.st20{fill:#ECF0F1;}
	.st21{fill:#2C3E50;}
	.st22{fill:#FFE7BD;}
	.st23{fill:#E8D6AC;}
	.st24{fill:#DAE1E6;}
	.st25{fill:#999999;}
	.st26{fill-rule:evenodd;clip-rule:evenodd;fill:#916F45;}
	.st27{fill-rule:evenodd;clip-rule:evenodd;fill:#85633C;}
	.st28{fill-rule:evenodd;clip-rule:evenodd;fill:#735735;}
	.st29{fill-rule:evenodd;clip-rule:evenodd;fill:#2C3E50;}
	.st30{fill-rule:evenodd;clip-rule:evenodd;fill:#AA8150;}
	.st31{fill-rule:evenodd;clip-rule:evenodd;fill:#977042;}
	.st32{fill-rule:evenodd;clip-rule:evenodd;fill:#ECF0F1;}
	.st33{fill-rule:evenodd;clip-rule:evenodd;fill:#DAE1E6;}
	.st34{fill-rule:evenodd;clip-rule:evenodd;fill:#2980B9;}
	.st35{fill-rule:evenodd;clip-rule:evenodd;fill:#B3B3B3;}
</style>
<rect class="st0" width="2047.5" height="1000"/>
<rect class="st1" width="1261.6" height="1000"/>
<line class="st2" x1="176.1" y1="53.7" x2="1226.9" y2="53.7"/>
<line class="st2" x1="1405.4" y1="53.7" x2="2029.6" y2="53.7"/>
<g>
	<rect x="176.1" y="69.4" class="st3" width="373.2" height="49.6"/>
	<path class="st4" d="M179.6,69.4h5.8v32.8h-5.8V69.4z"/>
	<path class="st4" d="M191.6,78.4h5v3.5l0.1,0.1c1.6-2.6,4.3-4.2,7.4-4.2c5.2,0,8.4,2.7,8.4,8.1v16.3h-5.2v-15
		c-0.1-3.7-1.5-5.3-4.6-5.3c-3.5,0-5.8,2.8-5.8,6.3v14h-5.2V78.4z"/>
	<path class="st4" d="M222,94.6c0.3,3.1,2.6,4.1,5.4,4.1c2,0,5.4-0.4,5.3-3.1c-0.1-2.8-4-3.1-7.8-4c-3.9-0.8-7.6-2.2-7.6-7
		c0-5.2,5.6-6.8,9.9-6.8c4.9,0,9.3,2,9.9,7.3h-5.5c-0.5-2.5-2.5-3.2-4.8-3.2c-1.5,0-4.3,0.4-4.3,2.4c0,2.6,3.9,3,7.7,3.8
		c3.8,0.9,7.7,2.3,7.7,6.9c0,5.7-5.7,7.7-10.6,7.7c-6,0-10.4-2.7-10.5-8.3H222z"/>
	<path class="st4" d="M239.5,78.4h4v-7.1h5.2v7.1h4.7v3.9h-4.7v12.7c0,2.2,0.2,3.3,2.5,3.3c0.7,0,1.5,0,2.2-0.2v4
		c-1.1,0.1-2.3,0.3-3.4,0.3c-5.5,0-6.4-2.1-6.6-6.1v-14h-4V78.4z"/>
	<path class="st4" d="M277.1,96.9c0,1.3,0.3,1.8,1.2,1.8h0.6c0.2,0,0.5,0,0.7-0.1v3.6c-0.8,0.3-2.4,0.6-3.3,0.6
		c-2.2,0-3.6-0.7-4-2.9c-2.1,2-5.4,2.9-8.2,2.9c-4.3,0-8.1-2.3-8.1-6.9c0-5.9,4.7-6.9,9.2-7.4c3.8-0.7,7.1-0.2,7.1-3.4
		c0-2.8-2.9-3.2-4.9-3.2c-2.9,0-5,1.2-5.2,3.8h-5.2c0.4-6.1,5.5-7.9,10.8-7.9c4.6,0,9.5,1.9,9.5,6.9V96.9z M271.9,90.3
		c-1.6,1.1-4.1,1-6.4,1.4c-2.3,0.4-4.3,1.2-4.3,4c0,2.4,3,3,4.8,3c2.3,0,5.9-1.2,5.9-4.5V90.3z"/>
	<path class="st4" d="M282.9,69.4h5.2v32.8h-5.2V69.4z"/>
	<path class="st4" d="M294,69.4h5.2v32.8H294V69.4z"/>
	<path class="st4" d="M309.1,91.7c0,3.7,2,7,6.4,7c3.1,0,4.9-1.3,5.8-4h5c-1.1,5.2-5.6,8.1-10.8,8.1c-7.5,0-11.6-5.2-11.6-12.5
		c0-6.8,4.4-12.6,11.5-12.6c7.5,0,12.1,6.8,11.2,13.9H309.1z M321.3,88.2c-0.2-3.3-2.4-6.3-6-6.3c-3.6,0-6.1,2.8-6.3,6.3H321.3z"/>
	<path class="st4" d="M330.5,78.4h4.9V83h0.1c0.6-2.5,3.8-5.2,6.9-5.2c1.2,0,1.5,0.1,2,0.1V83c-0.7-0.1-1.5-0.2-2.3-0.2
		c-3.5,0-6.4,2.9-6.4,8.1v11.3h-5.2V78.4z"/>
</g>
<g>
	<rect x="1405.4" y="69.4" class="st3" width="373.2" height="49.6"/>
	<path class="st4" d="M1408.9,69.4h15.7c7.2,0,10.9,3.3,10.9,8.9c0,6.3-4.3,7.9-5.4,8.3v0.1c2,0.2,4.9,1.8,4.9,6.9
		c0,3.9,0.6,7.3,1.8,8.6h-6.2c-0.9-1.4-0.9-3.2-0.9-4.8c0-6-1.2-8.7-6.5-8.7h-8.5v13.5h-5.8V69.4z M1414.7,84.3h9.4
		c3.7,0,5.6-1.7,5.6-5.2c0-4.2-2.7-5-5.7-5h-9.3V84.3z"/>
	<path class="st4" d="M1444.7,91.7c0,3.7,2,7,6.4,7c3.1,0,4.9-1.3,5.8-4h5c-1.1,5.2-5.6,8.1-10.8,8.1c-7.5,0-11.6-5.2-11.6-12.5
		c0-6.8,4.4-12.6,11.5-12.6c7.5,0,12.1,6.8,11.2,13.9H1444.7z M1456.9,88.2c-0.2-3.3-2.4-6.3-6-6.3c-3.6,0-6.1,2.8-6.3,6.3H1456.9z"
		/>
	<path class="st4" d="M1482.2,86.4c-0.4-2.9-2.5-4.5-5.4-4.5c-2.7,0-6.5,1.5-6.5,8.6c0,4,1.7,8.1,6.3,8.1c3.1,0,5.2-2,5.7-5.4h5.2
		c-1,6.2-4.8,9.6-10.9,9.6c-7.5,0-11.5-5.3-11.5-12.3c0-7.2,3.9-12.8,11.7-12.8c5.5,0,10.2,2.8,10.7,8.6H1482.2z"/>
	<path class="st4" d="M1490.6,90.3c0-7.2,4.4-12.5,12-12.5s12,5.3,12,12.5c0,7.3-4.4,12.6-12,12.6S1490.6,97.6,1490.6,90.3z
		 M1509.4,90.3c0-4.1-2.1-8.4-6.8-8.4s-6.8,4.3-6.8,8.4c0,4.1,2.1,8.4,6.8,8.4S1509.4,94.5,1509.4,90.3z"/>
	<path class="st4" d="M1519,78.4h4.9V83h0.1c0.6-2.5,3.8-5.2,6.9-5.2c1.2,0,1.5,0.1,2,0.1V83c-0.7-0.1-1.5-0.2-2.3-0.2
		c-3.5,0-6.4,2.9-6.4,8.1v11.3h-5.2V78.4z"/>
	<path class="st4" d="M1557.6,102.2h-5V99h-0.1c-1.4,2.8-4.4,3.9-7.4,3.9c-7.5,0-11.1-5.6-11.1-12.7c0-8.6,5.1-12.4,10.3-12.4
		c2.9,0,6.3,1.1,7.9,3.7h0.1V69.4h5.2V102.2z M1545.9,98.7c4.6,0,6.7-4.3,6.7-8.4c0-5.3-2.5-8.4-6.6-8.4c-4.9,0-6.7,4.4-6.7,8.6
		C1539.3,94.7,1541.3,98.7,1545.9,98.7z"/>
	<path class="st4" d="M1575,90.3c0-7.2,4.4-12.5,12-12.5s12,5.3,12,12.5c0,7.3-4.4,12.6-12,12.6S1575,97.6,1575,90.3z M1593.8,90.3
		c0-4.1-2.1-8.4-6.8-8.4s-6.8,4.3-6.8,8.4c0,4.1,2.1,8.4,6.8,8.4S1593.8,94.5,1593.8,90.3z"/>
	<path class="st4" d="M1601.2,78.4h5.6l4.6,17.8h0.1l4.5-17.8h5.3l4.3,17.8h0.1l4.8-17.8h5.3l-7.5,23.8h-5.4l-4.4-17.7h-0.1
		l-4.4,17.7h-5.5L1601.2,78.4z"/>
	<path class="st4" d="M1639.2,78.4h5v3.5l0.1,0.1c1.6-2.6,4.3-4.2,7.4-4.2c5.2,0,8.4,2.7,8.4,8.1v16.3h-5.2v-15
		c-0.1-3.7-1.5-5.3-4.6-5.3c-3.5,0-5.8,2.8-5.8,6.3v14h-5.2V78.4z"/>
	<path class="st4" d="M1669.7,91.7c0,3.7,2,7,6.4,7c3.1,0,4.9-1.3,5.8-4h5c-1.1,5.2-5.6,8.1-10.8,8.1c-7.5,0-11.6-5.2-11.6-12.5
		c0-6.8,4.4-12.6,11.5-12.6c7.5,0,12.1,6.8,11.2,13.9H1669.7z M1681.9,88.2c-0.2-3.3-2.4-6.3-6-6.3c-3.6,0-6.1,2.8-6.3,6.3H1681.9z"
		/>
	<path class="st4" d="M1691.1,78.4h4.9V83h0.1c0.6-2.5,3.8-5.2,6.9-5.2c1.2,0,1.5,0.1,2,0.1V83c-0.7-0.1-1.5-0.2-2.3-0.2
		c-3.5,0-6.4,2.9-6.4,8.1v11.3h-5.2V78.4z"/>
</g>
<g>
	<g>
		<g>
			<line class="st5" x1="552.7" y1="523.6" x2="676.6" y2="523.6"/>
			<g>
				<line class="st6" x1="552.7" y1="523.6" x2="669.7" y2="523.6"/>
				<g>
					<polygon class="st7" points="657.8,533.7 668,523.6 657.8,513.4 666.4,513.4 676.6,523.6 666.4,533.7 					"/>
				</g>
			</g>
		</g>
	</g>
</g>
<g>
	<g>
		<g>
			<line class="st5" x1="1066" y1="714.8" x2="1416.7" y2="714.8"/>
			<g>
				<line class="st8" x1="1066" y1="714.8" x2="1409.8" y2="714.8"/>
				<g>
					<polygon class="st9" points="1397.9,725 1408,714.8 1397.9,704.7 1406.5,704.7 1416.7,714.8 1406.5,725 					"/>
				</g>
			</g>
		</g>
	</g>
</g>
<g>
	<g>
		<g>
			<line class="st5" x1="1066" y1="377.3" x2="1416.7" y2="377.3"/>
			<g>
				<line class="st10" x1="1066" y1="377.3" x2="1409.8" y2="377.3"/>
				<g>
					<polygon class="st11" points="1397.9,387.5 1408,377.3 1397.9,367.2 1406.5,367.2 1416.7,377.3 1406.5,387.5 					"/>
				</g>
			</g>
		</g>
	</g>
</g>
<g>
	<g>
		<g>
			<line class="st0" x1="879.4" y1="783.4" x2="879.4" y2="826.2"/>
			<g>
				<line class="st10" x1="879.4" y1="783.4" x2="879.4" y2="819.3"/>
				<g>
					<polygon class="st11" points="869.2,807.4 879.4,817.6 889.5,807.4 889.5,816 879.4,826.2 869.2,816 					"/>
				</g>
			</g>
		</g>
	</g>
</g>
<g>
	<g>
		<g>
			<path class="st5" d="M880.3,724.1"/>
		</g>
	</g>
</g>
<g>
	<polygon class="st7" points="547.4,834.8 547.4,490.5 547.4,317.9 423.7,194.2 78.7,194.2 78.7,322 78.7,490.5 78.7,834.8 	"/>
	<polygon class="st9" points="423.7,317.9 547.4,317.9 423.7,194.2 	"/>
	<polygon class="st12" points="547.4,317.9 423.7,317.9 547.4,441.6 	"/>
</g>
<g>
	<g>
		<path class="st4" d="M120.3,321.3h5.8v32.8h-5.8V321.3z"/>
		<path class="st4" d="M132.3,330.3h5v3.5l0.1,0.1c1.6-2.6,4.3-4.2,7.4-4.2c5.2,0,8.4,2.7,8.4,8.1v16.3H148v-15
			c-0.1-3.7-1.5-5.3-4.6-5.3c-3.5,0-5.8,2.8-5.8,6.3v14h-5.2V330.3z"/>
		<path class="st4" d="M158.9,330.3h5v3.2h0.1c1.5-2.8,4.3-3.9,7.4-3.9c7.5,0,11.1,5.7,11.1,12.7c0,6.4-3.3,12.4-10.3,12.4
			c-3,0-6.3-1.1-8-3.7h-0.1v11.9h-5.2V330.3z M170.6,333.8c-4.4,0-6.7,3.3-6.7,8.4c0,4.8,2.4,8.4,6.7,8.4c4.8,0,6.6-4.2,6.6-8.4
			C177.2,338,174.9,333.8,170.6,333.8z"/>
		<path class="st4" d="M207.7,354.1h-5.2v-3.3h-0.1c-1.3,2.4-4.1,4-6.8,4c-6.3,0-8.9-3.1-8.9-9.3v-15.1h5.2v14.6
			c0,4.2,1.7,5.7,4.6,5.7c4.4,0,5.8-2.8,5.8-6.5v-13.8h5.2V354.1z"/>
		<path class="st4" d="M210.8,330.3h4v-7.1h5.2v7.1h4.7v3.9H220v12.7c0,2.2,0.2,3.3,2.5,3.3c0.7,0,1.5,0,2.2-0.2v4
			c-1.1,0.1-2.3,0.3-3.4,0.3c-5.5,0-6.4-2.1-6.6-6.1v-14h-4V330.3z"/>
	</g>
</g>
<g>
	<g>
		<path class="st13" d="M122,428.1h12.1c4.9,0,7.8,2.6,7.8,6.7c0,3.1-1.3,5.7-4.5,6.5v0.1c3,0.6,3.6,2.8,3.9,5.3
			c0.2,2.5,0.1,5.4,1.5,7.1H139c-1-1-0.4-3.8-0.9-6.3c-0.4-2.5-1-4.6-4.3-4.6h-8.4v11H122V428.1z M132.5,440c3.2,0,5.9-0.8,5.9-4.6
			c0-2.6-1.4-4.4-4.6-4.4h-8.5v9H132.5z"/>
		<path class="st13" d="M162,447.9c-0.8,4.1-3.7,6.3-8,6.3c-5.9,0-8.7-4.1-8.9-9.8c0-5.6,3.7-9.7,8.7-9.7c6.6,0,8.6,6.2,8.4,10.7
			h-13.9c-0.1,3.2,1.7,6.1,5.8,6.1c2.6,0,4.3-1.2,4.8-3.6H162z M159.1,442.7c-0.2-2.9-2.3-5.3-5.4-5.3c-3.2,0-5.1,2.4-5.3,5.3H159.1
			z"/>
		<path class="st13" d="M182.1,461h-3.1v-9.6H179c-1,2.1-3.3,3-5.9,3c-5.7,0-8.6-4.5-8.6-9.8s2.8-9.7,8.5-9.7c1.9,0,4.7,0.7,6,2.9
			h0.1v-2.5h3.1V461z M173.5,451.6c4.1,0,5.7-3.6,5.7-7c0-3.6-1.7-7.1-5.9-7.1c-4.2,0-5.6,3.6-5.6,7.2
			C167.7,448.2,169.5,451.6,173.5,451.6z"/>
		<path class="st13" d="M202.2,453.8h-2.9v-3h-0.1c-1.3,2.3-3.3,3.4-6,3.4c-4.9,0-6.4-2.8-6.4-6.8v-12.2h3.1v12.6
			c0,2.3,1.4,3.7,3.8,3.7c3.7,0,5.5-2.5,5.5-5.8v-10.5h3.1V453.8z"/>
		<path class="st13" d="M222.7,447.9c-0.8,4.1-3.7,6.3-8,6.3c-5.9,0-8.7-4.1-8.9-9.8c0-5.6,3.7-9.7,8.7-9.7c6.6,0,8.6,6.2,8.4,10.7
			h-13.9c-0.1,3.2,1.7,6.1,5.8,6.1c2.6,0,4.3-1.2,4.8-3.6H222.7z M219.8,442.7c-0.2-2.9-2.3-5.3-5.4-5.3c-3.2,0-5.1,2.4-5.3,5.3
			H219.8z"/>
		<path class="st13" d="M228.1,448c0.1,2.7,2.5,3.6,5,3.6c1.9,0,4.5-0.4,4.5-2.8c0-4.8-12.2-1.5-12.2-8.7c0-3.7,3.7-5.3,6.9-5.3
			c4.2,0,7.3,1.3,7.6,5.8h-3.1c-0.2-2.4-2.3-3.1-4.3-3.1c-1.8,0-4,0.5-4,2.4c0,2.2,3.2,2.6,6.1,3.2c3.1,0.7,6.1,1.7,6.1,5.3
			c0,4.5-4.1,5.9-7.9,5.9c-4.2,0-7.7-1.7-7.9-6.3H228.1z"/>
		<path class="st13" d="M248.4,435.2h3.7v2.7h-3.7v11.6c0,1.4,0.4,1.7,2.3,1.7h1.4v2.7h-2.3c-3.2,0-4.4-0.6-4.4-4.1v-11.8h-3.2v-2.7
			h3.2v-5.6h3.1V435.2z"/>
		<path class="st13" d="M269.8,435.2h3.7v2.7h-3.7v11.6c0,1.4,0.4,1.7,2.3,1.7h1.4v2.7h-2.3c-3.2,0-4.4-0.6-4.4-4.1v-11.8h-3.2v-2.7
			h3.2v-5.6h3.1V435.2z"/>
		<path class="st13" d="M284.9,434.8c5.9,0,9,4.3,9,9.8c0,5.4-3.1,9.7-9,9.7s-9-4.3-9-9.7C275.9,439.1,279,434.8,284.9,434.8z
			 M284.9,451.6c3.2,0,5.8-2.5,5.8-7c0-4.5-2.6-7.1-5.8-7.1s-5.8,2.6-5.8,7.1C279.1,449,281.7,451.6,284.9,451.6z"/>
		<path class="st13" d="M310.8,431.9h-3.1v-3.7h3.1V431.9z M307.7,435.2h3.1v18.6h-3.1V435.2z"/>
		<path class="st13" d="M315.5,435.2h2.9v3h0.1c1.3-2.3,3.3-3.4,6-3.4c4.9,0,6.4,2.8,6.4,6.8v12.2h-3.1v-12.6c0-2.3-1.4-3.7-3.8-3.7
			c-3.7,0-5.5,2.5-5.5,5.8v10.5h-3.1V435.2z"/>
		<path class="st13" d="M337.4,448c0.1,2.7,2.5,3.6,5,3.6c1.9,0,4.5-0.4,4.5-2.8c0-4.8-12.2-1.5-12.2-8.7c0-3.7,3.7-5.3,6.9-5.3
			c4.2,0,7.3,1.3,7.6,5.8h-3.1c-0.2-2.4-2.3-3.1-4.3-3.1c-1.8,0-4,0.5-4,2.4c0,2.2,3.2,2.6,6.1,3.2c3.1,0.7,6.1,1.7,6.1,5.3
			c0,4.5-4.1,5.9-7.9,5.9c-4.2,0-7.7-1.7-7.9-6.3H337.4z"/>
		<path class="st13" d="M357.8,435.2h3.7v2.7h-3.7v11.6c0,1.4,0.4,1.7,2.3,1.7h1.4v2.7h-2.3c-3.2,0-4.4-0.6-4.4-4.1v-11.8h-3.2v-2.7
			h3.2v-5.6h3.1V435.2z"/>
		<path class="st13" d="M381.4,453.8c-0.5,0.3-1.3,0.5-2.2,0.5c-1.6,0-2.6-0.9-2.6-2.9c-1.7,2-4,2.9-6.6,2.9c-3.4,0-6.2-1.5-6.2-5.2
			c0-4.2,3.1-5.1,6.3-5.7c3.3-0.7,6.3-0.4,6.3-2.7c0-2.7-2.2-3.1-4.1-3.1c-2.6,0-4.5,0.8-4.6,3.5h-3.1c0.2-4.6,3.7-6.2,7.9-6.2
			c3.3,0,7,0.8,7,5.1v9.6c0,1.4,0,2.1,1,2.1c0.3,0,0.6-0.1,0.9-0.2V453.8z M376.4,444.2c-2.4,1.8-9.3,0-9.3,4.6c0,2,1.7,2.7,3.6,2.7
			c4,0,5.7-2.5,5.7-4.2V444.2z"/>
		<path class="st13" d="M384.4,428.1h3.1v25.7h-3.1V428.1z"/>
		<path class="st13" d="M392.4,428.1h3.1v25.7h-3.1V428.1z"/>
		<path class="st13" d="M426.7,453.8c-0.5,0.3-1.3,0.5-2.2,0.5c-1.6,0-2.6-0.9-2.6-2.9c-1.7,2-4,2.9-6.6,2.9c-3.4,0-6.2-1.5-6.2-5.2
			c0-4.2,3.1-5.1,6.3-5.7c3.3-0.7,6.3-0.4,6.3-2.7c0-2.7-2.2-3.1-4.1-3.1c-2.6,0-4.5,0.8-4.6,3.5h-3.1c0.2-4.6,3.7-6.2,7.9-6.2
			c3.3,0,7,0.8,7,5.1v9.6c0,1.4,0,2.1,1,2.1c0.3,0,0.6-0.1,0.9-0.2V453.8z M421.7,444.2c-2.4,1.8-9.3,0-9.3,4.6c0,2,1.7,2.7,3.6,2.7
			c4,0,5.7-2.5,5.7-4.2V444.2z"/>
		<path class="st13" d="M429.5,435.2h2.9v3h0.1c1.3-2.3,3.3-3.4,6-3.4c4.9,0,6.4,2.8,6.4,6.8v12.2h-3.1v-12.6c0-2.3-1.4-3.7-3.8-3.7
			c-3.7,0-5.5,2.5-5.5,5.8v10.5h-3.1V435.2z"/>
		<path class="st13" d="M132.9,470.7c8.2,0,12.3,6.4,12.3,13.5c0,7-4.1,13.5-12.3,13.5s-12.3-6.4-12.3-13.5
			C120.6,477.2,124.7,470.7,132.9,470.7z M132.9,494.8c6.3,0,8.9-5.4,8.9-10.6c0-5.2-2.6-10.6-8.9-10.6s-8.9,5.4-8.9,10.6
			C124,489.4,126.6,494.8,132.9,494.8z"/>
		<path class="st13" d="M150.1,481.1H147v-2.7h3.1v-2.8c0-3,1.8-4.6,5.1-4.6c0.6,0,1.4,0.1,2,0.3v2.7c-0.5-0.2-1.2-0.3-1.7-0.3
			c-1.5,0-2.3,0.5-2.3,2.1v2.6h3.6v2.7h-3.6V497h-3.1V481.1z"/>
		<path class="st13" d="M160.8,481.1h-3.1v-2.7h3.1v-2.8c0-3,1.8-4.6,5.1-4.6c0.6,0,1.4,0.1,2,0.3v2.7c-0.5-0.2-1.2-0.3-1.7-0.3
			c-1.5,0-2.3,0.5-2.3,2.1v2.6h3.6v2.7h-3.6V497h-3.1V481.1z"/>
		<path class="st13" d="M186,491.1c-0.8,4.1-3.7,6.3-8,6.3c-5.9,0-8.7-4.1-8.9-9.8c0-5.6,3.7-9.7,8.7-9.7c6.6,0,8.6,6.2,8.4,10.7
			h-13.9c-0.1,3.2,1.7,6.1,5.8,6.1c2.6,0,4.3-1.2,4.8-3.6H186z M183.1,485.9c-0.2-2.9-2.3-5.3-5.4-5.3c-3.2,0-5.1,2.4-5.3,5.3H183.1
			z"/>
		<path class="st13" d="M189.4,478.4h2.9v3.9h0.1c1.5-3,3.5-4.5,6.8-4.4v3.2c-4.9,0-6.7,2.8-6.7,7.5v8.3h-3.1V478.4z"/>
		<path class="st13" d="M204.7,475.1h-3.1v-3.7h3.1V475.1z M201.7,478.4h3.1V497h-3.1V478.4z"/>
		<path class="st13" d="M209.5,478.4h2.9v3h0.1c1.3-2.3,3.3-3.4,6-3.4c4.9,0,6.4,2.8,6.4,6.8V497h-3.1v-12.6c0-2.3-1.4-3.7-3.8-3.7
			c-3.7,0-5.5,2.5-5.5,5.8V497h-3.1V478.4z"/>
		<path class="st13" d="M245.5,495.4c0,6.1-2.7,9.1-8.6,9.1c-3.5,0-7.5-1.4-7.7-5.5h3.1c0.1,2.2,2.8,3,4.8,3c4,0,5.6-2.9,5.6-7.1
			v-1.2h-0.1c-1,2.3-3.4,3.4-5.8,3.4c-5.5,0-8.3-4.4-8.3-9.4c0-4.4,2.1-9.8,8.6-9.8c2.3,0,4.4,1,5.5,3.1h0v-2.7h2.9V495.4z
			 M242.5,487.3c0-3.3-1.4-6.7-5.3-6.7c-3.9,0-5.5,3.2-5.5,6.8c0,3.3,1.2,7.1,5.3,7.1C241,494.5,242.5,490.8,242.5,487.3z"/>
	</g>
</g>
<g>
	<polygon class="st7" points="1157.9,846.8 1157.9,502.5 1157.9,329.9 1034.2,206.2 689.2,206.2 689.2,334 689.2,502.5 689.2,846.8 
			"/>
	<polygon class="st9" points="1034.2,329.9 1157.9,329.9 1034.2,206.2 	"/>
	<polygon class="st12" points="1157.9,329.9 1034.2,329.9 1157.9,453.6 	"/>
</g>
<g>
	<g>
		<path class="st4" d="M739.5,333.3h6.1l12.7,32.8h-6.2l-3.1-8.7h-13.1l-3.1,8.7h-5.9L739.5,333.3z M737.5,353.1h10l-4.9-14.1h-0.1
			L737.5,353.1z"/>
		<path class="st4" d="M776.7,350.3c-0.4-2.9-2.5-4.5-5.4-4.5c-2.7,0-6.5,1.5-6.5,8.6c0,4,1.7,8.1,6.3,8.1c3.1,0,5.2-2,5.7-5.4h5.2
			c-1,6.2-4.8,9.6-10.9,9.6c-7.5,0-11.5-5.3-11.5-12.3c0-7.2,3.9-12.8,11.7-12.8c5.5,0,10.2,2.8,10.7,8.6H776.7z"/>
		<path class="st4" d="M783.9,342.3h4v-7.1h5.2v7.1h4.7v3.9h-4.7v12.7c0,2.2,0.2,3.3,2.5,3.3c0.7,0,1.5,0,2.2-0.2v4
			c-1.1,0.1-2.3,0.3-3.4,0.3c-5.5,0-6.4-2.1-6.6-6.1v-14h-4V342.3z"/>
		<path class="st4" d="M801.7,333.3h5.2v5h-5.2V333.3z M801.7,342.3h5.2v23.8h-5.2V342.3z"/>
		<path class="st4" d="M810.3,342.3h5.7l6,18.3h0.1l5.8-18.3h5.4l-8.5,23.8H819L810.3,342.3z"/>
		<path class="st4" d="M836.7,333.3h5.2v5h-5.2V333.3z M836.7,342.3h5.2v23.8h-5.2V342.3z"/>
		<path class="st4" d="M845.2,342.3h4v-7.1h5.2v7.1h4.7v3.9h-4.7v12.7c0,2.2,0.2,3.3,2.5,3.3c0.7,0,1.5,0,2.2-0.2v4
			c-1.1,0.1-2.3,0.3-3.4,0.3c-5.5,0-6.4-2.1-6.6-6.1v-14h-4V342.3z"/>
		<path class="st4" d="M860.3,342.3h5.8l6.2,17.8h0.1l6-17.8h5.5l-9.2,25.1c-1.7,4.3-2.9,8.1-8.4,8.1c-1.2,0-2.4-0.1-3.6-0.3v-4.4
			c0.9,0.1,1.6,0.3,2.5,0.3c2.4,0,3.1-1.3,3.7-3.3l0.6-1.8L860.3,342.3z"/>
	</g>
</g>
<g>
	<g>
		<path class="st13" d="M732.6,428.1h3.4v25.7h-3.4V428.1z"/>
		<path class="st13" d="M743.2,448c0.1,2.7,2.5,3.6,5,3.6c1.9,0,4.5-0.4,4.5-2.8c0-4.8-12.2-1.5-12.2-8.7c0-3.7,3.7-5.3,6.9-5.3
			c4.2,0,7.3,1.3,7.6,5.8H752c-0.2-2.4-2.3-3.1-4.3-3.1c-1.8,0-4,0.5-4,2.4c0,2.2,3.2,2.6,6.1,3.2c3.1,0.7,6.1,1.7,6.1,5.3
			c0,4.5-4.1,5.9-7.9,5.9c-4.2,0-7.7-1.7-7.9-6.3H743.2z"/>
		<path class="st13" d="M773.5,435.2h3.7v2.7h-3.7v11.6c0,1.4,0.4,1.7,2.3,1.7h1.4v2.7h-2.3c-3.2,0-4.4-0.6-4.4-4.1v-11.8h-3.2v-2.7
			h3.2v-5.6h3.1V435.2z"/>
		<path class="st13" d="M780.6,428.1h3.1v9.8h0.1c1-2.3,3.7-3.2,5.9-3.2c4.9,0,6.4,2.8,6.4,6.8v12.2H793v-12.6
			c0-2.3-1.4-3.7-3.8-3.7c-3.7,0-5.5,2.5-5.5,5.8v10.5h-3.1V428.1z"/>
		<path class="st13" d="M803.9,431.9h-3.1v-3.7h3.1V431.9z M800.8,435.2h3.1v18.6h-3.1V435.2z"/>
		<path class="st13" d="M810.5,448c0.1,2.7,2.5,3.6,5,3.6c1.9,0,4.5-0.4,4.5-2.8c0-4.8-12.2-1.5-12.2-8.7c0-3.7,3.7-5.3,6.9-5.3
			c4.2,0,7.3,1.3,7.6,5.8h-3.1c-0.2-2.4-2.3-3.1-4.3-3.1c-1.8,0-4,0.5-4,2.4c0,2.2,3.2,2.6,6.1,3.2c3.1,0.7,6.1,1.7,6.1,5.3
			c0,4.5-4.1,5.9-7.9,5.9c-4.2,0-7.7-1.7-7.9-6.3H810.5z"/>
		<path class="st13" d="M840.9,435.2h3.7v2.7h-3.7v11.6c0,1.4,0.4,1.7,2.3,1.7h1.4v2.7h-2.3c-3.2,0-4.4-0.6-4.4-4.1v-11.8h-3.2v-2.7
			h3.2v-5.6h3.1V435.2z"/>
		<path class="st13" d="M848,428.1h3.1v9.8h0.1c1-2.3,3.7-3.2,5.9-3.2c4.9,0,6.4,2.8,6.4,6.8v12.2h-3.1v-12.6c0-2.3-1.4-3.7-3.8-3.7
			c-3.7,0-5.5,2.5-5.5,5.8v10.5H848V428.1z"/>
		<path class="st13" d="M883.9,447.9c-0.8,4.1-3.7,6.3-8,6.3c-5.9,0-8.7-4.1-8.9-9.8c0-5.6,3.7-9.7,8.7-9.7c6.6,0,8.6,6.2,8.4,10.7
			h-13.9c-0.1,3.2,1.7,6.1,5.8,6.1c2.6,0,4.3-1.2,4.8-3.6H883.9z M880.9,442.7c-0.2-2.9-2.3-5.3-5.4-5.3c-3.2,0-5.1,2.4-5.3,5.3
			H880.9z"/>
		<path class="st13" d="M898.6,437.9h-3.1v-2.7h3.1v-2.8c0-3,1.8-4.6,5.1-4.6c0.6,0,1.4,0.1,2,0.3v2.7c-0.5-0.2-1.2-0.3-1.7-0.3
			c-1.5,0-2.3,0.5-2.3,2.1v2.6h3.6v2.7h-3.6v15.9h-3.1V437.9z M908.2,431.9v-3.7h3.1v3.7H908.2z M908.2,453.8v-18.6h3.1v18.6H908.2z
			"/>
		<path class="st13" d="M915.9,435.2h2.9v3.9h0.1c1.5-3,3.5-4.5,6.8-4.4v3.2c-4.9,0-6.7,2.8-6.7,7.5v8.3h-3.1V435.2z"/>
		<path class="st13" d="M929.9,448c0.1,2.7,2.5,3.6,5,3.6c1.9,0,4.5-0.4,4.5-2.8c0-4.8-12.2-1.5-12.2-8.7c0-3.7,3.7-5.3,6.9-5.3
			c4.2,0,7.3,1.3,7.6,5.8h-3.1c-0.2-2.4-2.3-3.1-4.3-3.1c-1.8,0-4,0.5-4,2.4c0,2.2,3.2,2.6,6.1,3.2c3.1,0.7,6.1,1.7,6.1,5.3
			c0,4.5-4.1,5.9-7.9,5.9c-4.2,0-7.7-1.7-7.9-6.3H929.9z"/>
		<path class="st13" d="M950.2,435.2h3.7v2.7h-3.7v11.6c0,1.4,0.4,1.7,2.3,1.7h1.4v2.7h-2.3c-3.2,0-4.4-0.6-4.4-4.1v-11.8H944v-2.7
			h3.2v-5.6h3.1V435.2z"/>
		<path class="st13" d="M735.2,477.1h-3.1v-3.7h3.1V477.1z M732.1,480.4h3.1V499h-3.1V480.4z"/>
		<path class="st13" d="M740,480.4h2.9v3h0.1c1.3-2.3,3.3-3.4,6-3.4c4.9,0,6.4,2.8,6.4,6.8V499h-3.1v-12.6c0-2.3-1.4-3.7-3.8-3.7
			c-3.7,0-5.5,2.5-5.5,5.8V499H740V480.4z"/>
		<path class="st13" d="M761.8,493.2c0.1,2.7,2.5,3.6,5,3.6c1.9,0,4.5-0.4,4.5-2.8c0-4.8-12.2-1.5-12.2-8.7c0-3.7,3.7-5.3,6.9-5.3
			c4.2,0,7.3,1.3,7.6,5.8h-3.1c-0.2-2.4-2.3-3.1-4.3-3.1c-1.8,0-4,0.5-4,2.4c0,2.2,3.2,2.6,6.1,3.2c3.1,0.7,6.1,1.7,6.1,5.3
			c0,4.5-4.1,5.9-7.9,5.9c-4.2,0-7.7-1.7-7.9-6.3H761.8z"/>
		<path class="st13" d="M782.2,480.4h3.7v2.7h-3.7v11.6c0,1.4,0.4,1.7,2.3,1.7h1.4v2.7h-2.3c-3.2,0-4.4-0.6-4.4-4.1v-11.8H776v-2.7
			h3.2v-5.6h3.1V480.4z"/>
		<path class="st13" d="M805.8,499c-0.5,0.3-1.3,0.5-2.2,0.5c-1.6,0-2.6-0.9-2.6-2.9c-1.7,2-4,2.9-6.6,2.9c-3.4,0-6.2-1.5-6.2-5.2
			c0-4.2,3.1-5.1,6.3-5.7c3.3-0.7,6.3-0.4,6.3-2.7c0-2.7-2.2-3.1-4.1-3.1c-2.6,0-4.5,0.8-4.6,3.5H789c0.2-4.6,3.7-6.2,7.9-6.2
			c3.3,0,7,0.8,7,5.1v9.6c0,1.4,0,2.1,1,2.1c0.3,0,0.6-0.1,0.9-0.2V499z M800.8,489.4c-2.4,1.8-9.3,0-9.3,4.6c0,2,1.7,2.7,3.6,2.7
			c4,0,5.7-2.5,5.7-4.2V489.4z"/>
		<path class="st13" d="M808.8,473.3h3.1V499h-3.1V473.3z"/>
		<path class="st13" d="M816.8,473.3h3.1V499h-3.1V473.3z"/>
		<path class="st13" d="M841.1,499c-0.5,0.3-1.3,0.5-2.2,0.5c-1.6,0-2.6-0.9-2.6-2.9c-1.7,2-4,2.9-6.6,2.9c-3.4,0-6.2-1.5-6.2-5.2
			c0-4.2,3.1-5.1,6.3-5.7c3.3-0.7,6.3-0.4,6.3-2.7c0-2.7-2.2-3.1-4.1-3.1c-2.6,0-4.5,0.8-4.6,3.5h-3.1c0.2-4.6,3.7-6.2,7.9-6.2
			c3.3,0,7,0.8,7,5.1v9.6c0,1.4,0,2.1,1,2.1c0.3,0,0.6-0.1,0.9-0.2V499z M836.1,489.4c-2.4,1.8-9.3,0-9.3,4.6c0,2,1.7,2.7,3.6,2.7
			c4,0,5.7-2.5,5.7-4.2V489.4z"/>
		<path class="st13" d="M848.2,480.4h3.7v2.7h-3.7v11.6c0,1.4,0.4,1.7,2.3,1.7h1.4v2.7h-2.3c-3.2,0-4.4-0.6-4.4-4.1v-11.8H842v-2.7
			h3.2v-5.6h3.1V480.4z"/>
		<path class="st13" d="M858.5,477.1h-3.1v-3.7h3.1V477.1z M855.5,480.4h3.1V499h-3.1V480.4z"/>
		<path class="st13" d="M871.3,480c5.9,0,9,4.3,9,9.8c0,5.4-3.1,9.7-9,9.7s-9-4.3-9-9.7C862.3,484.3,865.4,480,871.3,480z
			 M871.3,496.8c3.2,0,5.8-2.5,5.8-7c0-4.5-2.6-7.1-5.8-7.1s-5.8,2.6-5.8,7.1C865.5,494.2,868.1,496.8,871.3,496.8z"/>
		<path class="st13" d="M884,480.4h2.9v3h0.1c1.3-2.3,3.3-3.4,6-3.4c4.9,0,6.4,2.8,6.4,6.8V499h-3.1v-12.6c0-2.3-1.4-3.7-3.8-3.7
			c-3.7,0-5.5,2.5-5.5,5.8V499H884V480.4z"/>
		<path class="st13" d="M915.2,483.1h-3.1v-2.7h3.1v-2.8c0-3,1.8-4.6,5.1-4.6c0.6,0,1.4,0.1,2,0.3v2.7c-0.5-0.2-1.2-0.3-1.7-0.3
			c-1.5,0-2.3,0.5-2.3,2.1v2.6h3.6v2.7h-3.6V499h-3.1V483.1z"/>
		<path class="st13" d="M932.7,480c5.9,0,9,4.3,9,9.8c0,5.4-3.1,9.7-9,9.7s-9-4.3-9-9.7C923.6,484.3,926.8,480,932.7,480z
			 M932.7,496.8c3.2,0,5.8-2.5,5.8-7c0-4.5-2.6-7.1-5.8-7.1s-5.8,2.6-5.8,7.1C926.9,494.2,929.5,496.8,932.7,496.8z"/>
		<path class="st13" d="M945.2,480.4h2.9v3.9h0.1c1.5-3,3.5-4.5,6.8-4.4v3.2c-4.9,0-6.7,2.8-6.7,7.5v8.3h-3.1V480.4z"/>
		<path class="st13" d="M971.5,480.4h3.7v2.7h-3.7v11.6c0,1.4,0.4,1.7,2.3,1.7h1.4v2.7h-2.3c-3.2,0-4.4-0.6-4.4-4.1v-11.8h-3.2v-2.7
			h3.2v-5.6h3.1V480.4z"/>
		<path class="st13" d="M978.6,473.3h3.1v9.8h0.1c1-2.3,3.7-3.2,5.9-3.2c4.9,0,6.4,2.8,6.4,6.8V499H991v-12.6c0-2.3-1.4-3.7-3.8-3.7
			c-3.7,0-5.5,2.5-5.5,5.8V499h-3.1V473.3z"/>
		<path class="st13" d="M1001.9,477.1h-3.1v-3.7h3.1V477.1z M998.8,480.4h3.1V499h-3.1V480.4z"/>
		<path class="st13" d="M1008.5,493.2c0.1,2.7,2.5,3.6,5,3.6c1.9,0,4.5-0.4,4.5-2.8c0-4.8-12.2-1.5-12.2-8.7c0-3.7,3.7-5.3,6.9-5.3
			c4.2,0,7.3,1.3,7.6,5.8h-3.1c-0.2-2.4-2.3-3.1-4.3-3.1c-1.8,0-4,0.5-4,2.4c0,2.2,3.2,2.6,6.1,3.2c3.1,0.7,6.1,1.7,6.1,5.3
			c0,4.5-4.1,5.9-7.9,5.9c-4.2,0-7.7-1.7-7.9-6.3H1008.5z"/>
		<path class="st13" d="M743.3,517.9c8.2,0,12.3,6.4,12.3,13.5c0,7-4.1,13.5-12.3,13.5s-12.3-6.4-12.3-13.5
			C731,524.4,735.2,517.9,743.3,517.9z M743.3,542c6.3,0,8.9-5.4,8.9-10.6c0-5.2-2.6-10.6-8.9-10.6s-8.9,5.4-8.9,10.6
			C734.5,536.6,737.1,542,743.3,542z"/>
		<path class="st13" d="M760.6,528.3h-3.1v-2.7h3.1v-2.8c0-3,1.8-4.6,5.1-4.6c0.6,0,1.4,0.1,2,0.3v2.7c-0.5-0.2-1.2-0.3-1.7-0.3
			c-1.5,0-2.3,0.5-2.3,2.1v2.6h3.6v2.7h-3.6v15.9h-3.1V528.3z"/>
		<path class="st13" d="M771.2,528.3h-3.1v-2.7h3.1v-2.8c0-3,1.8-4.6,5.1-4.6c0.6,0,1.4,0.1,2,0.3v2.7c-0.5-0.2-1.2-0.3-1.7-0.3
			c-1.5,0-2.3,0.5-2.3,2.1v2.6h3.6v2.7h-3.6v15.9h-3.1V528.3z"/>
		<path class="st13" d="M796.5,538.3c-0.8,4.1-3.7,6.3-8,6.3c-5.9,0-8.7-4.1-8.9-9.8c0-5.6,3.7-9.7,8.7-9.7c6.6,0,8.6,6.2,8.4,10.7
			h-13.9c-0.1,3.2,1.7,6.1,5.8,6.1c2.6,0,4.3-1.2,4.8-3.6H796.5z M793.6,533.1c-0.2-2.9-2.3-5.3-5.4-5.3c-3.2,0-5.1,2.4-5.3,5.3
			H793.6z"/>
		<path class="st13" d="M799.9,525.6h2.9v3.9h0.1c1.5-3,3.5-4.5,6.8-4.4v3.2c-4.9,0-6.7,2.8-6.7,7.5v8.3h-3.1V525.6z"/>
		<path class="st13" d="M815.2,522.3h-3.1v-3.7h3.1V522.3z M812.1,525.6h3.1v18.6h-3.1V525.6z"/>
		<path class="st13" d="M819.9,525.6h2.9v3h0.1c1.3-2.3,3.3-3.4,6-3.4c4.9,0,6.4,2.8,6.4,6.8v12.2h-3.1v-12.6c0-2.3-1.4-3.7-3.8-3.7
			c-3.7,0-5.5,2.5-5.5,5.8v10.5h-3.1V525.6z"/>
		<path class="st13" d="M856,542.6c0,6.1-2.7,9.1-8.6,9.1c-3.5,0-7.5-1.4-7.7-5.5h3.1c0.1,2.2,2.8,3,4.8,3c4,0,5.6-2.9,5.6-7.1v-1.2
			h-0.1c-1,2.3-3.4,3.4-5.8,3.4c-5.5,0-8.3-4.4-8.3-9.4c0-4.4,2.1-9.8,8.6-9.8c2.3,0,4.4,1,5.5,3.1h0v-2.7h2.9V542.6z M853,534.5
			c0-3.3-1.4-6.7-5.3-6.7c-3.9,0-5.5,3.2-5.5,6.8c0,3.3,1.2,7.1,5.3,7.1C851.5,541.7,853,538,853,534.5z"/>
		<path class="st13" d="M879,544.2h-3.3l-6.9-18.6h3.4l5.2,15.5h0.1l5.1-15.5h3.2L879,544.2z"/>
		<path class="st13" d="M904.5,538.3c-0.8,4.1-3.7,6.3-8,6.3c-5.9,0-8.7-4.1-8.9-9.8c0-5.6,3.7-9.7,8.7-9.7c6.6,0,8.6,6.2,8.4,10.7
			h-13.9c-0.1,3.2,1.7,6.1,5.8,6.1c2.6,0,4.3-1.2,4.8-3.6H904.5z M901.6,533.1c-0.2-2.9-2.3-5.3-5.4-5.3c-3.2,0-5.1,2.4-5.3,5.3
			H901.6z"/>
		<path class="st13" d="M907.9,525.6h2.9v3.9h0.1c1.5-3,3.5-4.5,6.8-4.4v3.2c-4.9,0-6.7,2.8-6.7,7.5v8.3h-3.1V525.6z"/>
		<path class="st13" d="M921.8,538.4c0.1,2.7,2.5,3.6,5,3.6c1.9,0,4.5-0.4,4.5-2.8c0-4.8-12.2-1.5-12.2-8.7c0-3.7,3.7-5.3,6.9-5.3
			c4.2,0,7.3,1.3,7.6,5.8h-3.1c-0.2-2.4-2.3-3.1-4.3-3.1c-1.8,0-4,0.5-4,2.4c0,2.2,3.2,2.6,6.1,3.2c3.1,0.7,6.1,1.7,6.1,5.3
			c0,4.5-4.1,5.9-7.9,5.9c-4.2,0-7.7-1.7-7.9-6.3H921.8z"/>
		<path class="st13" d="M941.2,522.3h-3.1v-3.7h3.1V522.3z M938.1,525.6h3.1v18.6h-3.1V525.6z"/>
		<path class="st13" d="M954,525.2c5.9,0,9,4.3,9,9.8c0,5.4-3.1,9.7-9,9.7s-9-4.3-9-9.7C944.9,529.5,948.1,525.2,954,525.2z
			 M954,542c3.2,0,5.8-2.5,5.8-7c0-4.5-2.6-7.1-5.8-7.1s-5.8,2.6-5.8,7.1C948.2,539.4,950.8,542,954,542z"/>
		<path class="st13" d="M966.6,525.6h2.9v3h0.1c1.3-2.3,3.3-3.4,6-3.4c4.9,0,6.4,2.8,6.4,6.8v12.2H979v-12.6c0-2.3-1.4-3.7-3.8-3.7
			c-3.7,0-5.5,2.5-5.5,5.8v10.5h-3.1V525.6z"/>
		<path class="st13" d="M986.3,526.6c-0.1-4.9,3.1-8.6,8.1-8.6c4.5,0,7.6,2.6,7.6,7.2c0,3-1.5,4.6-3.1,6.1c-1.5,1.4-3.1,2.9-3.1,5.3
			v1.4h-3.1v-1.7c0.3-6,6.3-6.2,6-11.4c-0.2-2.6-1.8-4.2-4.4-4.2c-3.5,0-5,2.6-5,5.9H986.3z M992.2,540.2h4v4h-4V540.2z"/>
	</g>
</g>
<g>
	<polygon class="st7" points="1943.8,500.3 1943.8,455.7 1943.8,283.1 1820.2,159.4 1431.6,159.4 1431.6,455.7 1431.6,500.3 	"/>
	<polygon class="st9" points="1820.2,283.1 1943.8,283.1 1820.2,159.4 	"/>
	<polygon class="st12" points="1943.8,283.1 1820.2,283.1 1943.8,406.8 	"/>
</g>
<g>
	<g>
		<path class="st4" d="M1498.4,221.9c0,9.4-5.9,17.2-15.7,17.2s-15.7-7.8-15.7-17.2c0-9.3,5.9-17.2,15.7-17.2
			S1498.4,212.6,1498.4,221.9z M1472.7,221.9c0,6.3,2.9,12.5,10,12.5s10-6.2,10-12.5s-2.9-12.5-10-12.5S1472.7,215.6,1472.7,221.9z"
			/>
		<path class="st4" d="M1523.8,238.4h-5.2v-3.3h-0.1c-1.3,2.4-4.1,4-6.8,4c-6.3,0-8.9-3.1-8.9-9.3v-15.1h5.2v14.6
			c0,4.2,1.7,5.7,4.6,5.7c4.4,0,5.8-2.8,5.8-6.5v-13.8h5.2V238.4z"/>
		<path class="st4" d="M1526.9,214.6h4v-7.1h5.2v7.1h4.7v3.9h-4.7v12.7c0,2.2,0.2,3.3,2.5,3.3c0.7,0,1.5,0,2.2-0.2v4
			c-1.2,0.1-2.3,0.3-3.4,0.3c-5.5,0-6.4-2.1-6.6-6.1v-14h-4V214.6z"/>
		<path class="st4" d="M1544.8,214.6h5v3.2h0.1c1.5-2.8,4.3-3.9,7.4-3.9c7.5,0,11.1,5.7,11.1,12.7c0,6.4-3.3,12.4-10.3,12.4
			c-3,0-6.3-1.1-8-3.7h-0.1v11.9h-5.2V214.6z M1556.5,218.1c-4.4,0-6.7,3.3-6.7,8.4c0,4.8,2.4,8.4,6.7,8.4c4.8,0,6.6-4.2,6.6-8.4
			C1563.1,222.2,1560.8,218.1,1556.5,218.1z"/>
		<path class="st4" d="M1593.6,238.4h-5.2v-3.3h-0.1c-1.3,2.4-4.1,4-6.8,4c-6.3,0-8.9-3.1-8.9-9.3v-15.1h5.2v14.6
			c0,4.2,1.7,5.7,4.6,5.7c4.4,0,5.8-2.8,5.8-6.5v-13.8h5.2V238.4z"/>
		<path class="st4" d="M1596.8,214.6h4v-7.1h5.2v7.1h4.7v3.9h-4.7v12.7c0,2.2,0.2,3.3,2.5,3.3c0.7,0,1.5,0,2.2-0.2v4
			c-1.2,0.1-2.3,0.3-3.4,0.3c-5.5,0-6.4-2.1-6.6-6.1v-14h-4V214.6z"/>
	</g>
</g>
<g>
	<g>
		<path class="st13" d="M1491,339.3c0,6.5-3.7,9.9-10.1,9.9c-6.6,0-10.5-3.1-10.5-9.9v-16.4h3.4v16.4c0,4.6,2.6,7,7.1,7
			c4.4,0,6.7-2.4,6.7-7v-16.4h3.4V339.3z"/>
		<path class="st13" d="M1497.8,342.7c0.1,2.7,2.5,3.6,5,3.6c1.9,0,4.5-0.4,4.5-2.8c0-4.8-12.2-1.5-12.2-8.7c0-3.7,3.7-5.3,6.9-5.3
			c4.2,0,7.3,1.3,7.6,5.8h-3.1c-0.2-2.4-2.3-3.1-4.3-3.1c-1.8,0-4,0.5-4,2.4c0,2.2,3.2,2.6,6.1,3.2c3.1,0.7,6.1,1.7,6.1,5.3
			c0,4.5-4.1,5.9-7.9,5.9c-4.2,0-7.7-1.7-7.9-6.3H1497.8z"/>
		<path class="st13" d="M1529.8,342.7c-0.8,4.1-3.7,6.3-8,6.3c-5.9,0-8.7-4.1-8.9-9.8c0-5.6,3.7-9.7,8.7-9.7c6.6,0,8.6,6.2,8.4,10.7
			h-13.9c-0.1,3.2,1.7,6.1,5.8,6.1c2.6,0,4.3-1.2,4.8-3.6H1529.8z M1526.8,337.5c-0.2-2.9-2.3-5.3-5.4-5.3c-3.2,0-5.1,2.4-5.3,5.3
			H1526.8z"/>
		<path class="st13" d="M1555.9,335.9c-0.5-2.3-2.1-3.7-4.6-3.7c-4.4,0-5.8,3.5-5.8,7.3c0,3.5,1.5,6.8,5.4,6.8c3,0,4.7-1.7,5.1-4.5
			h3.1c-0.7,4.6-3.5,7.2-8.2,7.2c-5.7,0-8.7-3.9-8.7-9.5c0-5.6,2.9-10,8.8-10c4.2,0,7.6,2,8,6.4H1555.9z"/>
		<path class="st13" d="M1578,348.6h-2.9v-3h-0.1c-1.3,2.3-3.3,3.4-6,3.4c-4.9,0-6.4-2.8-6.4-6.8V330h3.1v12.6
			c0,2.3,1.4,3.7,3.8,3.7c3.7,0,5.5-2.5,5.5-5.8V330h3.1V348.6z"/>
		<path class="st13" d="M1582.5,330h2.9v3.9h0.1c1.5-3,3.5-4.5,6.8-4.4v3.2c-4.9,0-6.7,2.8-6.7,7.5v8.3h-3.1V330z"/>
		<path class="st13" d="M1594.5,330h2.9v3.9h0.1c1.5-3,3.5-4.5,6.8-4.4v3.2c-4.9,0-6.7,2.8-6.7,7.5v8.3h-3.1V330z"/>
		<path class="st13" d="M1622.5,342.7c-0.8,4.1-3.7,6.3-8,6.3c-5.9,0-8.7-4.1-8.9-9.8c0-5.6,3.7-9.7,8.7-9.7c6.6,0,8.6,6.2,8.4,10.7
			h-13.9c-0.1,3.2,1.7,6.1,5.8,6.1c2.6,0,4.3-1.2,4.8-3.6H1622.5z M1619.5,337.5c-0.2-2.9-2.3-5.3-5.4-5.3c-3.2,0-5.1,2.4-5.3,5.3
			H1619.5z"/>
		<path class="st13" d="M1625.9,330h2.9v3h0.1c1.3-2.3,3.3-3.4,6-3.4c4.9,0,6.4,2.8,6.4,6.8v12.2h-3.1V336c0-2.3-1.4-3.7-3.8-3.7
			c-3.7,0-5.5,2.5-5.5,5.8v10.5h-3.1V330z"/>
		<path class="st13" d="M1650.2,330h3.7v2.7h-3.7v11.6c0,1.4,0.4,1.7,2.3,1.7h1.4v2.7h-2.3c-3.2,0-4.4-0.6-4.4-4.1v-11.8h-3.2V330
			h3.2v-5.6h3.1V330z"/>
		<path class="st13" d="M1675.7,348.6h-3.3l-6.9-18.6h3.4l5.2,15.5h0.1l5.1-15.5h3.2L1675.7,348.6z"/>
		<path class="st13" d="M1701.2,342.7c-0.8,4.1-3.7,6.3-8,6.3c-5.9,0-8.7-4.1-8.9-9.8c0-5.6,3.7-9.7,8.7-9.7c6.6,0,8.6,6.2,8.4,10.7
			h-13.9c-0.1,3.2,1.7,6.1,5.8,6.1c2.6,0,4.3-1.2,4.8-3.6H1701.2z M1698.2,337.5c-0.2-2.9-2.3-5.3-5.4-5.3c-3.2,0-5.1,2.4-5.3,5.3
			H1698.2z"/>
		<path class="st13" d="M1704.5,330h2.9v3.9h0.1c1.5-3,3.5-4.5,6.8-4.4v3.2c-4.9,0-6.7,2.8-6.7,7.5v8.3h-3.1V330z"/>
		<path class="st13" d="M1718.5,342.7c0.1,2.7,2.5,3.6,5,3.6c1.9,0,4.5-0.4,4.5-2.8c0-4.8-12.2-1.5-12.2-8.7c0-3.7,3.7-5.3,6.9-5.3
			c4.2,0,7.3,1.3,7.6,5.8h-3.1c-0.2-2.4-2.3-3.1-4.3-3.1c-1.8,0-4,0.5-4,2.4c0,2.2,3.2,2.6,6.1,3.2c3.1,0.7,6.1,1.7,6.1,5.3
			c0,4.5-4.1,5.9-7.9,5.9c-4.2,0-7.7-1.7-7.9-6.3H1718.5z"/>
		<path class="st13" d="M1737.8,326.6h-3.1v-3.7h3.1V326.6z M1734.8,330h3.1v18.6h-3.1V330z"/>
		<path class="st13" d="M1750.6,329.5c5.9,0,9,4.3,9,9.8c0,5.4-3.1,9.7-9,9.7c-5.9,0-9-4.3-9-9.7
			C1741.6,333.8,1744.7,329.5,1750.6,329.5z M1750.6,346.3c3.2,0,5.8-2.5,5.8-7c0-4.5-2.6-7.1-5.8-7.1c-3.2,0-5.8,2.6-5.8,7.1
			C1744.8,343.8,1747.4,346.3,1750.6,346.3z"/>
		<path class="st13" d="M1763.3,330h2.9v3h0.1c1.3-2.3,3.3-3.4,6-3.4c4.9,0,6.4,2.8,6.4,6.8v12.2h-3.1V336c0-2.3-1.4-3.7-3.8-3.7
			c-3.7,0-5.5,2.5-5.5,5.8v10.5h-3.1V330z"/>
		<path class="st13" d="M1801.3,329.5c5.9,0,9,4.3,9,9.8c0,5.4-3.1,9.7-9,9.7c-5.9,0-9-4.3-9-9.7
			C1792.3,333.8,1795.4,329.5,1801.3,329.5z M1801.3,346.3c3.2,0,5.8-2.5,5.8-7c0-4.5-2.6-7.1-5.8-7.1c-3.2,0-5.8,2.6-5.8,7.1
			C1795.5,343.8,1798.1,346.3,1801.3,346.3z"/>
		<path class="st13" d="M1815.2,332.7h-3.1V330h3.1v-2.8c0-3,1.8-4.6,5.1-4.6c0.6,0,1.4,0.1,2,0.3v2.7c-0.5-0.2-1.2-0.3-1.7-0.3
			c-1.5,0-2.3,0.5-2.3,2.1v2.6h3.6v2.7h-3.6v15.9h-3.1V332.7z"/>
		<path class="st13" d="M1470.4,366.1h8.8c7.9,0,12.3,4,12.3,12.2c0,8.6-3.8,13.5-12.3,13.5h-8.8V366.1z M1473.9,388.9h5.7
			c2.3,0,8.6-0.6,8.6-10.1c0-6.1-2.3-9.8-8.6-9.8h-5.8V388.9z"/>
		<path class="st13" d="M1495.8,366.1h3.4v11.1h13.5v-11.1h3.4v25.7h-3.4V380h-13.5v11.8h-3.4V366.1z"/>
		<path class="st13" d="M1521.8,366.1h12.1c4.9,0,7.8,2.6,7.8,6.7c0,3.1-1.3,5.7-4.5,6.5v0.1c3,0.6,3.6,2.8,3.9,5.3
			c0.2,2.5,0.1,5.4,1.5,7.1h-3.8c-1-1-0.4-3.8-0.9-6.3c-0.4-2.5-1-4.6-4.3-4.6h-8.4v11h-3.4V366.1z M1532.3,377.9
			c3.2,0,5.9-0.8,5.9-4.6c0-2.6-1.4-4.4-4.6-4.4h-8.5v9H1532.3z"/>
		<path class="st13" d="M1557.2,375.9h-3.1v-2.7h3.1v-2.8c0-3,1.8-4.6,5.1-4.6c0.6,0,1.4,0.1,2,0.3v2.7c-0.5-0.2-1.2-0.3-1.7-0.3
			c-1.5,0-2.3,0.5-2.3,2.1v2.6h3.6v2.7h-3.6v15.9h-3.1V375.9z"/>
		<path class="st13" d="M1574.6,372.7c5.9,0,9,4.3,9,9.8c0,5.4-3.1,9.7-9,9.7s-9-4.3-9-9.7C1565.6,377,1568.7,372.7,1574.6,372.7z
			 M1574.6,389.5c3.2,0,5.8-2.5,5.8-7c0-4.5-2.6-7.1-5.8-7.1s-5.8,2.6-5.8,7.1C1568.8,387,1571.4,389.5,1574.6,389.5z"/>
		<path class="st13" d="M1587.1,373.2h2.9v3.9h0.1c1.5-3,3.5-4.5,6.8-4.4v3.2c-4.9,0-6.7,2.8-6.7,7.5v8.3h-3.1V373.2z"/>
		<path class="st13" d="M1613.5,373.2h3.7v2.7h-3.7v11.6c0,1.4,0.4,1.7,2.3,1.7h1.4v2.7h-2.3c-3.2,0-4.4-0.6-4.4-4.1v-11.8h-3.2
			v-2.7h3.2v-5.6h3.1V373.2z"/>
		<path class="st13" d="M1620.6,366.1h3.1v9.8h0.1c1-2.3,3.7-3.2,5.9-3.2c4.9,0,6.4,2.8,6.4,6.8v12.2h-3.1v-12.6
			c0-2.3-1.4-3.7-3.8-3.7c-3.7,0-5.5,2.5-5.5,5.8v10.5h-3.1V366.1z"/>
		<path class="st13" d="M1643.8,369.8h-3.1v-3.7h3.1V369.8z M1640.8,373.2h3.1v18.6h-3.1V373.2z"/>
		<path class="st13" d="M1650.5,385.9c0.1,2.7,2.5,3.6,5,3.6c1.9,0,4.5-0.4,4.5-2.8c0-4.8-12.2-1.5-12.2-8.7c0-3.7,3.7-5.3,6.9-5.3
			c4.2,0,7.3,1.3,7.6,5.8h-3.1c-0.2-2.4-2.3-3.1-4.3-3.1c-1.8,0-4,0.5-4,2.4c0,2.2,3.2,2.6,6.1,3.2c3.1,0.7,6.1,1.7,6.1,5.3
			c0,4.5-4.1,5.9-7.9,5.9c-4.2,0-7.7-1.7-7.9-6.3H1650.5z"/>
		<path class="st13" d="M1688,365.5c8.2,0,12.3,6.4,12.3,13.5c0,7-4.1,13.5-12.3,13.5c-8.2,0-12.3-6.4-12.3-13.5
			C1675.7,371.9,1679.8,365.5,1688,365.5z M1688,389.5c6.3,0,8.9-5.4,8.9-10.6c0-5.2-2.6-10.6-8.9-10.6c-6.3,0-8.9,5.4-8.9,10.6
			C1679.1,384.1,1681.7,389.5,1688,389.5z"/>
		<path class="st13" d="M1705.2,375.9h-3.1v-2.7h3.1v-2.8c0-3,1.8-4.6,5.1-4.6c0.6,0,1.4,0.1,2,0.3v2.7c-0.5-0.2-1.2-0.3-1.7-0.3
			c-1.5,0-2.3,0.5-2.3,2.1v2.6h3.6v2.7h-3.6v15.9h-3.1V375.9z"/>
		<path class="st13" d="M1715.9,375.9h-3.1v-2.7h3.1v-2.8c0-3,1.8-4.6,5.1-4.6c0.6,0,1.4,0.1,2,0.3v2.7c-0.5-0.2-1.2-0.3-1.7-0.3
			c-1.5,0-2.3,0.5-2.3,2.1v2.6h3.6v2.7h-3.6v15.9h-3.1V375.9z"/>
		<path class="st13" d="M1741.1,385.9c-0.8,4.1-3.7,6.3-8,6.3c-5.9,0-8.7-4.1-8.9-9.8c0-5.6,3.7-9.7,8.7-9.7c6.6,0,8.6,6.2,8.4,10.7
			h-13.9c-0.1,3.2,1.7,6.1,5.8,6.1c2.6,0,4.3-1.2,4.8-3.6H1741.1z M1738.2,380.7c-0.2-2.9-2.3-5.3-5.4-5.3c-3.2,0-5.1,2.4-5.3,5.3
			H1738.2z"/>
		<path class="st13" d="M1744.5,373.2h2.9v3.9h0.1c1.5-3,3.5-4.5,6.8-4.4v3.2c-4.9,0-6.7,2.8-6.7,7.5v8.3h-3.1V373.2z"/>
		<path class="st13" d="M1759.8,369.8h-3.1v-3.7h3.1V369.8z M1756.8,373.2h3.1v18.6h-3.1V373.2z"/>
		<path class="st13" d="M1764.6,373.2h2.9v3h0.1c1.3-2.3,3.3-3.4,6-3.4c4.9,0,6.4,2.8,6.4,6.8v12.2h-3.1v-12.6
			c0-2.3-1.4-3.7-3.8-3.7c-3.7,0-5.5,2.5-5.5,5.8v10.5h-3.1V373.2z"/>
		<path class="st13" d="M1800.7,390.2c0,6.1-2.7,9.1-8.6,9.1c-3.5,0-7.5-1.4-7.7-5.5h3.1c0.1,2.2,2.8,3,4.8,3c4,0,5.6-2.9,5.6-7.1
			v-1.2h-0.1c-1,2.3-3.4,3.4-5.8,3.4c-5.5,0-8.3-4.4-8.3-9.4c0-4.4,2.1-9.8,8.6-9.8c2.3,0,4.4,1,5.5,3.1h0v-2.7h2.9V390.2z
			 M1797.6,382.1c0-3.3-1.4-6.7-5.3-6.7c-3.9,0-5.5,3.2-5.5,6.8c0,3.3,1.2,7.1,5.3,7.1S1797.6,385.6,1797.6,382.1z"/>
		<path class="st13" d="M1478.3,435h-3.3l-6.9-18.6h3.4l5.2,15.5h0.1l5.1-15.5h3.2L1478.3,435z"/>
		<path class="st13" d="M1503.8,429.1c-0.8,4.1-3.7,6.3-8,6.3c-5.9,0-8.7-4.1-8.9-9.8c0-5.6,3.7-9.7,8.7-9.7c6.6,0,8.6,6.2,8.4,10.7
			h-13.9c-0.1,3.2,1.7,6.1,5.8,6.1c2.6,0,4.3-1.2,4.8-3.6H1503.8z M1500.9,423.9c-0.2-2.9-2.3-5.3-5.4-5.3c-3.2,0-5.1,2.4-5.3,5.3
			H1500.9z"/>
		<path class="st13" d="M1507.2,416.4h2.9v3.9h0.1c1.5-3,3.5-4.5,6.8-4.4v3.2c-4.9,0-6.7,2.8-6.7,7.5v8.3h-3.1V416.4z"/>
		<path class="st13" d="M1521.1,429.1c0.1,2.7,2.5,3.6,5,3.6c1.9,0,4.5-0.4,4.5-2.8c0-4.8-12.2-1.5-12.2-8.7c0-3.7,3.7-5.3,6.9-5.3
			c4.2,0,7.3,1.3,7.6,5.8h-3.1c-0.2-2.4-2.3-3.1-4.3-3.1c-1.8,0-4,0.5-4,2.4c0,2.2,3.2,2.6,6.1,3.2c3.1,0.7,6.1,1.7,6.1,5.3
			c0,4.5-4.1,5.9-7.9,5.9c-4.2,0-7.7-1.7-7.9-6.3H1521.1z"/>
		<path class="st13" d="M1540.5,413h-3.1v-3.7h3.1V413z M1537.4,416.4h3.1V435h-3.1V416.4z"/>
		<path class="st13" d="M1553.3,415.9c5.9,0,9,4.3,9,9.8c0,5.4-3.1,9.7-9,9.7c-5.9,0-9-4.3-9-9.7
			C1544.2,420.2,1547.4,415.9,1553.3,415.9z M1553.3,432.7c3.2,0,5.8-2.5,5.8-7c0-4.5-2.6-7.1-5.8-7.1c-3.2,0-5.8,2.6-5.8,7.1
			C1547.5,430.2,1550.1,432.7,1553.3,432.7z"/>
		<path class="st13" d="M1565.9,416.4h2.9v3h0.1c1.3-2.3,3.3-3.4,6-3.4c4.9,0,6.4,2.8,6.4,6.8V435h-3.1v-12.6c0-2.3-1.4-3.7-3.8-3.7
			c-3.7,0-5.5,2.5-5.5,5.8V435h-3.1V416.4z"/>
	</g>
</g>
<g>
	<g>
		<polygon class="st7" points="1943.8,921.7 1943.8,877.1 1943.8,704.5 1820.2,580.8 1431.6,580.8 1431.6,877.1 1431.6,921.7 		"/>
		<polygon class="st9" points="1820.2,704.5 1943.8,704.5 1820.2,580.8 		"/>
		<polygon class="st12" points="1943.8,704.5 1820.2,704.5 1943.8,828.2 		"/>
	</g>
	<g>
		<g>
			<path class="st4" d="M1498.4,643.3c0,9.4-5.9,17.2-15.7,17.2s-15.7-7.8-15.7-17.2c0-9.3,5.9-17.2,15.7-17.2
				S1498.4,634,1498.4,643.3z M1472.7,643.3c0,6.3,2.9,12.5,10,12.5s10-6.2,10-12.5s-2.9-12.5-10-12.5S1472.7,637,1472.7,643.3z"/>
			<path class="st4" d="M1523.8,659.7h-5.2v-3.3h-0.1c-1.3,2.4-4.1,4-6.8,4c-6.3,0-8.9-3.1-8.9-9.3V636h5.2v14.6
				c0,4.2,1.7,5.7,4.6,5.7c4.4,0,5.8-2.8,5.8-6.5V636h5.2V659.7z"/>
			<path class="st4" d="M1526.9,636h4v-7.1h5.2v7.1h4.7v3.9h-4.7v12.7c0,2.2,0.2,3.3,2.5,3.3c0.7,0,1.5,0,2.2-0.2v4
				c-1.2,0.1-2.3,0.3-3.4,0.3c-5.5,0-6.4-2.1-6.6-6.1v-14h-4V636z"/>
			<path class="st4" d="M1544.8,636h5v3.2h0.1c1.5-2.8,4.3-3.9,7.4-3.9c7.5,0,11.1,5.7,11.1,12.7c0,6.4-3.3,12.4-10.3,12.4
				c-3,0-6.3-1.1-8-3.7h-0.1v11.9h-5.2V636z M1556.5,639.5c-4.4,0-6.7,3.3-6.7,8.4c0,4.8,2.4,8.4,6.7,8.4c4.8,0,6.6-4.2,6.6-8.4
				C1563.1,643.6,1560.8,639.5,1556.5,639.5z"/>
			<path class="st4" d="M1593.6,659.7h-5.2v-3.3h-0.1c-1.3,2.4-4.1,4-6.8,4c-6.3,0-8.9-3.1-8.9-9.3V636h5.2v14.6
				c0,4.2,1.7,5.7,4.6,5.7c4.4,0,5.8-2.8,5.8-6.5V636h5.2V659.7z"/>
			<path class="st4" d="M1596.8,636h4v-7.1h5.2v7.1h4.7v3.9h-4.7v12.7c0,2.2,0.2,3.3,2.5,3.3c0.7,0,1.5,0,2.2-0.2v4
				c-1.2,0.1-2.3,0.3-3.4,0.3c-5.5,0-6.4-2.1-6.6-6.1v-14h-4V636z"/>
		</g>
	</g>
	<g>
		<g>
			<path class="st13" d="M1488.5,752c-0.8-3.6-3.6-5.5-7.2-5.5c-6.1,0-8.7,5-8.7,10.4c0,5.9,2.6,10.8,8.7,10.8
				c4.5,0,7.1-3.2,7.4-7.4h3.4c-0.7,6.4-4.6,10.3-11.1,10.3c-8,0-11.9-5.9-11.9-13.4c0-7.5,4.2-13.5,12.2-13.5
				c5.4,0,9.8,2.9,10.6,8.3H1488.5z"/>
			<path class="st13" d="M1495.8,751.3h2.9v3.9h0.1c1.5-3,3.5-4.5,6.8-4.4v3.2c-4.9,0-6.7,2.8-6.7,7.5v8.3h-3.1V751.3z"/>
			<path class="st13" d="M1523.8,764c-0.8,4.1-3.7,6.3-8,6.3c-5.9,0-8.7-4.1-8.9-9.8c0-5.6,3.7-9.7,8.7-9.7c6.6,0,8.6,6.2,8.4,10.7
				h-13.9c-0.1,3.2,1.7,6.1,5.8,6.1c2.6,0,4.3-1.2,4.8-3.6H1523.8z M1520.8,758.9c-0.2-2.9-2.3-5.3-5.4-5.3c-3.2,0-5.1,2.4-5.3,5.3
				H1520.8z"/>
			<path class="st13" d="M1543.7,769.9c-0.5,0.3-1.3,0.5-2.2,0.5c-1.6,0-2.6-0.9-2.6-2.9c-1.7,2-4,2.9-6.6,2.9
				c-3.4,0-6.2-1.5-6.2-5.2c0-4.2,3.1-5.1,6.3-5.7c3.3-0.7,6.3-0.4,6.3-2.7c0-2.7-2.2-3.1-4.1-3.1c-2.6,0-4.5,0.8-4.6,3.5h-3.1
				c0.2-4.6,3.7-6.2,7.9-6.2c3.3,0,7,0.8,7,5.1v9.6c0,1.4,0,2.1,1,2.1c0.3,0,0.6-0.1,0.9-0.2V769.9z M1538.8,760.3
				c-2.4,1.8-9.3,0-9.3,4.6c0,2,1.7,2.7,3.6,2.7c4,0,5.7-2.5,5.7-4.2V760.3z"/>
			<path class="st13" d="M1550.8,751.3h3.7v2.7h-3.7v11.6c0,1.4,0.4,1.7,2.3,1.7h1.4v2.7h-2.3c-3.2,0-4.4-0.6-4.4-4.1V754h-3.2v-2.7
				h3.2v-5.6h3.1V751.3z"/>
			<path class="st13" d="M1573.8,764c-0.8,4.1-3.7,6.3-8,6.3c-5.9,0-8.7-4.1-8.9-9.8c0-5.6,3.7-9.7,8.7-9.7c6.6,0,8.6,6.2,8.4,10.7
				h-13.9c-0.1,3.2,1.7,6.1,5.8,6.1c2.6,0,4.3-1.2,4.8-3.6H1573.8z M1570.8,758.9c-0.2-2.9-2.3-5.3-5.4-5.3c-3.2,0-5.1,2.4-5.3,5.3
				H1570.8z"/>
			<path class="st13" d="M1587.2,751.3h2.9v3h0.1c1.3-2.3,3.3-3.4,6-3.4c4.9,0,6.4,2.8,6.4,6.8v12.2h-3.1v-12.6
				c0-2.3-1.4-3.7-3.8-3.7c-3.7,0-5.5,2.5-5.5,5.8v10.5h-3.1V751.3z"/>
			<path class="st13" d="M1623.1,764c-0.8,4.1-3.7,6.3-8,6.3c-5.9,0-8.7-4.1-8.9-9.8c0-5.6,3.7-9.7,8.7-9.7c6.6,0,8.6,6.2,8.4,10.7
				h-13.9c-0.1,3.2,1.7,6.1,5.8,6.1c2.6,0,4.3-1.2,4.8-3.6H1623.1z M1620.2,758.9c-0.2-2.9-2.3-5.3-5.4-5.3c-3.2,0-5.1,2.4-5.3,5.3
				H1620.2z"/>
			<path class="st13" d="M1645,769.9h-3.2l-3.8-14.8h-0.1l-3.7,14.8h-3.3l-6-18.6h3.4l4.2,15.2h0.1l3.7-15.2h3.3l3.9,15.2h0.1
				l4.2-15.2h3.2L1645,769.9z"/>
			<path class="st13" d="M1664.4,744.2h8.8c7.9,0,12.3,4,12.3,12.2c0,8.6-3.8,13.5-12.3,13.5h-8.8V744.2z M1667.8,767.1h5.7
				c2.3,0,8.6-0.6,8.6-10.1c0-6.1-2.3-9.8-8.6-9.8h-5.8V767.1z"/>
			<path class="st13" d="M1689.8,744.2h4.7l8.1,21.6l8.1-21.6h4.7v25.7h-3.2v-21.4h-0.1l-8,21.4h-2.9l-8-21.4h-0.1v21.4h-3.2V744.2z
				"/>
			<path class="st13" d="M1721.1,744.2h12.1c4.9,0,7.8,2.6,7.8,6.7c0,3.1-1.3,5.7-4.5,6.5v0.1c3,0.6,3.6,2.8,3.9,5.3
				c0.2,2.5,0.1,5.4,1.5,7.1h-3.8c-1-1-0.4-3.8-0.9-6.3c-0.4-2.5-1-4.6-4.3-4.6h-8.4v11h-3.4V744.2z M1731.6,756.1
				c3.2,0,5.9-0.8,5.9-4.6c0-2.6-1.4-4.4-4.6-4.4h-8.5v9H1731.6z"/>
			<path class="st13" d="M1771.7,769.9c-0.5,0.3-1.3,0.5-2.2,0.5c-1.6,0-2.6-0.9-2.6-2.9c-1.7,2-4,2.9-6.6,2.9
				c-3.4,0-6.2-1.5-6.2-5.2c0-4.2,3.1-5.1,6.3-5.7c3.3-0.7,6.3-0.4,6.3-2.7c0-2.7-2.2-3.1-4.1-3.1c-2.6,0-4.5,0.8-4.6,3.5h-3.1
				c0.2-4.6,3.7-6.2,7.9-6.2c3.3,0,7,0.8,7,5.1v9.6c0,1.4,0,2.1,1,2.1c0.3,0,0.6-0.1,0.9-0.2V769.9z M1766.8,760.3
				c-2.4,1.8-9.3,0-9.3,4.6c0,2,1.7,2.7,3.6,2.7c4,0,5.7-2.5,5.7-4.2V760.3z"/>
			<path class="st13" d="M1774.6,751.3h2.9v3h0.1c1.3-2.3,3.3-3.4,6-3.4c4.9,0,6.4,2.8,6.4,6.8v12.2h-3.1v-12.6
				c0-2.3-1.4-3.7-3.8-3.7c-3.7,0-5.5,2.5-5.5,5.8v10.5h-3.1V751.3z"/>
			<path class="st13" d="M1811.2,769.9h-3.1v-2.5h-0.1c-1,2.1-3.3,3-5.9,3c-5.7,0-8.6-4.5-8.6-9.8s2.8-9.7,8.5-9.7
				c1.9,0,4.7,0.7,6,2.9h0.1v-9.6h3.1V769.9z M1802.6,767.7c4.1,0,5.7-3.6,5.7-7c0-3.6-1.7-7.1-5.9-7.1c-4.2,0-5.6,3.6-5.6,7.2
				C1796.8,764.3,1798.6,767.7,1802.6,767.7z"/>
			<path class="st13" d="M1470.4,787.4h8.8c7.9,0,12.3,4,12.3,12.2c0,8.6-3.8,13.5-12.3,13.5h-8.8V787.4z M1473.9,810.3h5.7
				c2.3,0,8.6-0.6,8.6-10.1c0-6.1-2.3-9.8-8.6-9.8h-5.8V810.3z"/>
			<path class="st13" d="M1495.8,787.4h3.4v11h13.5v-11h3.4v25.7h-3.4v-11.8h-13.5v11.8h-3.4V787.4z"/>
			<path class="st13" d="M1521.8,787.4h12.1c4.9,0,7.8,2.6,7.8,6.7c0,3.1-1.3,5.7-4.5,6.5v0.1c3,0.6,3.6,2.8,3.9,5.3
				c0.2,2.5,0.1,5.4,1.5,7.1h-3.8c-1-1-0.4-3.8-0.9-6.3c-0.4-2.5-1-4.6-4.3-4.6h-8.4v11h-3.4V787.4z M1532.3,799.3
				c3.2,0,5.9-0.8,5.9-4.6c0-2.6-1.4-4.4-4.6-4.4h-8.5v9H1532.3z"/>
			<path class="st13" d="M1557.2,797.2h-3.1v-2.7h3.1v-2.8c0-3,1.8-4.6,5.1-4.6c0.6,0,1.4,0.1,2,0.3v2.7c-0.5-0.2-1.2-0.3-1.7-0.3
				c-1.5,0-2.3,0.5-2.3,2.1v2.6h3.6v2.7h-3.6v15.9h-3.1V797.2z"/>
			<path class="st13" d="M1574.6,794.1c5.9,0,9,4.3,9,9.8c0,5.4-3.1,9.7-9,9.7s-9-4.3-9-9.7C1565.6,798.4,1568.7,794.1,1574.6,794.1
				z M1574.6,810.9c3.2,0,5.8-2.5,5.8-7s-2.6-7.1-5.8-7.1s-5.8,2.6-5.8,7.1S1571.4,810.9,1574.6,810.9z"/>
			<path class="st13" d="M1587.1,794.5h2.9v3.9h0.1c1.5-3,3.5-4.5,6.8-4.4v3.2c-4.9,0-6.7,2.8-6.7,7.5v8.3h-3.1V794.5z"/>
			<path class="st13" d="M1620.6,786.8c8.2,0,12.3,6.4,12.3,13.5s-4.1,13.5-12.3,13.5s-12.3-6.4-12.3-13.5
				S1612.5,786.8,1620.6,786.8z M1620.6,810.9c6.3,0,8.9-5.4,8.9-10.6s-2.6-10.6-8.9-10.6s-8.9,5.4-8.9,10.6
				S1614.4,810.9,1620.6,810.9z"/>
			<path class="st13" d="M1637.9,797.2h-3.1v-2.7h3.1v-2.8c0-3,1.8-4.6,5.1-4.6c0.6,0,1.4,0.1,2,0.3v2.7c-0.5-0.2-1.2-0.3-1.7-0.3
				c-1.5,0-2.3,0.5-2.3,2.1v2.6h3.6v2.7h-3.6v15.9h-3.1V797.2z"/>
			<path class="st13" d="M1648.5,797.2h-3.1v-2.7h3.1v-2.8c0-3,1.8-4.6,5.1-4.6c0.6,0,1.4,0.1,2,0.3v2.7c-0.5-0.2-1.2-0.3-1.7-0.3
				c-1.5,0-2.3,0.5-2.3,2.1v2.6h3.6v2.7h-3.6v15.9h-3.1V797.2z"/>
			<path class="st13" d="M1673.8,807.2c-0.8,4.1-3.7,6.3-8,6.3c-5.9,0-8.7-4.1-8.9-9.8c0-5.6,3.7-9.7,8.7-9.7
				c6.6,0,8.6,6.2,8.4,10.7h-13.9c-0.1,3.2,1.7,6.1,5.8,6.1c2.6,0,4.3-1.2,4.8-3.6H1673.8z M1670.8,802.1c-0.2-2.9-2.3-5.3-5.4-5.3
				c-3.2,0-5.1,2.4-5.3,5.3H1670.8z"/>
			<path class="st13" d="M1677.1,794.5h2.9v3.9h0.1c1.5-3,3.5-4.5,6.8-4.4v3.2c-4.9,0-6.7,2.8-6.7,7.5v8.3h-3.1V794.5z"/>
			<path class="st13" d="M1692.5,791.2h-3.1v-3.7h3.1V791.2z M1689.4,794.5h3.1v18.6h-3.1V794.5z"/>
			<path class="st13" d="M1697.2,794.5h2.9v3h0.1c1.3-2.3,3.3-3.4,6-3.4c4.9,0,6.4,2.8,6.4,6.8v12.2h-3.1v-12.6
				c0-2.3-1.4-3.7-3.8-3.7c-3.7,0-5.5,2.5-5.5,5.8v10.5h-3.1V794.5z"/>
			<path class="st13" d="M1733.3,811.6c0,6.1-2.7,9.1-8.6,9.1c-3.5,0-7.5-1.4-7.7-5.5h3.1c0.1,2.2,2.8,3,4.8,3c4,0,5.6-2.9,5.6-7.1
				V810h-0.1c-1,2.3-3.4,3.4-5.8,3.4c-5.5,0-8.3-4.4-8.3-9.4c0-4.4,2.1-9.8,8.6-9.8c2.3,0,4.4,1,5.5,3.1h0v-2.7h2.9V811.6z
				 M1730.3,803.5c0-3.3-1.4-6.7-5.3-6.7c-3.9,0-5.5,3.2-5.5,6.8c0,3.3,1.2,7.1,5.3,7.1S1730.3,807,1730.3,803.5z"/>
			<path class="st13" d="M1478.3,856.3h-3.3l-6.9-18.6h3.4l5.2,15.5h0.1l5.1-15.5h3.2L1478.3,856.3z"/>
			<path class="st13" d="M1503.8,850.4c-0.8,4.1-3.7,6.3-8,6.3c-5.9,0-8.7-4.1-8.9-9.8c0-5.6,3.7-9.7,8.7-9.7
				c6.6,0,8.6,6.2,8.4,10.7h-13.9c-0.1,3.2,1.7,6.1,5.8,6.1c2.6,0,4.3-1.2,4.8-3.6H1503.8z M1500.9,845.3c-0.2-2.9-2.3-5.3-5.4-5.3
				c-3.2,0-5.1,2.4-5.3,5.3H1500.9z"/>
			<path class="st13" d="M1507.2,837.7h2.9v3.9h0.1c1.5-3,3.5-4.5,6.8-4.4v3.2c-4.9,0-6.7,2.8-6.7,7.5v8.3h-3.1V837.7z"/>
			<path class="st13" d="M1521.1,850.5c0.1,2.7,2.5,3.6,5,3.6c1.9,0,4.5-0.4,4.5-2.8c0-4.8-12.2-1.5-12.2-8.7c0-3.7,3.7-5.3,6.9-5.3
				c4.2,0,7.3,1.3,7.6,5.8h-3.1c-0.2-2.4-2.3-3.1-4.3-3.1c-1.8,0-4,0.5-4,2.4c0,2.2,3.2,2.6,6.1,3.2c3.1,0.7,6.1,1.7,6.1,5.3
				c0,4.5-4.1,5.9-7.9,5.9c-4.2,0-7.7-1.7-7.9-6.3H1521.1z"/>
			<path class="st13" d="M1540.5,834.4h-3.1v-3.7h3.1V834.4z M1537.4,837.7h3.1v18.6h-3.1V837.7z"/>
			<path class="st13" d="M1553.3,837.3c5.9,0,9,4.3,9,9.8c0,5.4-3.1,9.7-9,9.7c-5.9,0-9-4.3-9-9.7
				C1544.2,841.6,1547.4,837.3,1553.3,837.3z M1553.3,854.1c3.2,0,5.8-2.5,5.8-7c0-4.5-2.6-7.1-5.8-7.1c-3.2,0-5.8,2.6-5.8,7.1
				C1547.5,851.6,1550.1,854.1,1553.3,854.1z"/>
			<path class="st13" d="M1565.9,837.7h2.9v3h0.1c1.3-2.3,3.3-3.4,6-3.4c4.9,0,6.4,2.8,6.4,6.8v12.2h-3.1v-12.6
				c0-2.3-1.4-3.7-3.8-3.7c-3.7,0-5.5,2.5-5.5,5.8v10.5h-3.1V837.7z"/>
		</g>
	</g>
</g>
<path class="st9" d="M1261.6,680.1c19.2,0,34.7,15.5,34.7,34.7c0,19.2-15.5,34.7-34.7,34.7c-19.2,0-34.7-15.5-34.7-34.7
	C1226.9,695.6,1242.4,680.1,1261.6,680.1"/>
<g>
	<path class="st7" d="M1243.2,716.7v10.5h-3.4v-10.5l-9.9-15.1h4.1l7.7,12.2l7.5-12.2h3.9L1243.2,716.7z"/>
	<path class="st7" d="M1271.2,721.3c-0.8,4.1-3.7,6.3-7.9,6.3c-5.9,0-8.7-4.1-8.9-9.8c0-5.6,3.7-9.7,8.7-9.7c6.6,0,8.6,6.1,8.4,10.6
		h-13.9c-0.1,3.2,1.7,6.1,5.8,6.1c2.5,0,4.3-1.2,4.8-3.6H1271.2z M1268.2,716.1c-0.2-2.9-2.3-5.2-5.3-5.2c-3.2,0-5.1,2.4-5.3,5.2
		H1268.2z"/>
	<path class="st7" d="M1276.5,721.3c0.1,2.7,2.5,3.6,5,3.6c1.9,0,4.5-0.4,4.5-2.8c0-4.8-12.1-1.5-12.1-8.7c0-3.7,3.7-5.3,6.9-5.3
		c4.2,0,7.3,1.3,7.6,5.8h-3.1c-0.2-2.4-2.3-3.1-4.3-3.1c-1.8,0-3.9,0.5-3.9,2.4c0,2.2,3.2,2.6,6.1,3.2c3,0.7,6.1,1.7,6.1,5.3
		c0,4.5-4.1,5.8-7.9,5.8c-4.2,0-7.7-1.7-7.9-6.3H1276.5z"/>
</g>
<path class="st14" d="M1261.6,342.6c19.2,0,34.7,15.5,34.7,34.7c0,19.2-15.5,34.7-34.7,34.7c-19.2,0-34.7-15.5-34.7-34.7
	C1226.9,358.2,1242.4,342.6,1261.6,342.6"/>
<g>
	<path class="st7" d="M1240.6,363.7h3.6l13.5,20.8h0.1v-20.8h3.2v25.6h-3.7l-13.4-20.6h-0.1v20.6h-3.2V363.7z"/>
	<path class="st7" d="M1274.1,370.4c5.9,0,9,4.3,9,9.7c0,5.4-3.1,9.7-9,9.7s-9-4.3-9-9.7C1265.1,374.6,1268.2,370.4,1274.1,370.4z
		 M1274.1,387.1c3.2,0,5.8-2.5,5.8-7s-2.6-7-5.8-7s-5.8,2.5-5.8,7S1270.9,387.1,1274.1,387.1z"/>
</g>
<circle class="st15" cx="85.7" cy="77" r="59.9"/>
<circle class="st15" cx="1337" cy="77" r="59.9"/>
<rect x="176.1" y="137.8" class="st3" width="159.1" height="26.6"/>
<g>
	<path class="st16" d="M75,71.7l0.1,0.1L75,71.7z"/>
	<polygon class="st16" points="72.9,67.5 72.9,67.5 72.9,67.5 	"/>
	<polygon class="st16" points="72.1,65.1 72.1,65.2 72.1,65.2 	"/>
	<polygon class="st16" points="71.4,62.4 71.4,62.7 71.4,62.7 	"/>
	<path class="st16" d="M70.8,58L70.8,58L70.8,58z"/>
	<polygon class="st16" points="70.8,57.8 70.8,57.8 70.8,57.8 70.8,57.9 70.8,57.9 70.8,57.9 70.8,57.9 70.8,57.8 	"/>
	<path class="st16" d="M70.8,57.7L70.8,57.7L70.8,57.7z"/>
	<polygon class="st16" points="70.8,57.6 70.8,57.7 70.8,57.6 	"/>
	<polygon class="st16" points="70.8,57.3 70.8,57.4 70.8,57.4 70.8,57.4 70.8,57.4 70.8,57.4 70.8,57.4 	"/>
	<polygon class="st16" points="70.8,56.5 70.8,56.6 70.8,56.6 70.8,56.6 70.8,56.6 	"/>
	<polygon class="st16" points="70.8,56.4 70.8,56.4 70.8,56.4 70.8,56.4 70.8,56.4 	"/>
	<polygon class="st16" points="70.8,56.2 70.8,56.3 70.8,56.3 70.8,56.3 70.8,56.3 	"/>
	<polygon class="st16" points="70.8,56.1 70.8,56.1 70.8,56.1 70.8,56.2 70.8,56.2 70.8,56.2 70.8,56.2 70.8,56.1 	"/>
	<polygon class="st16" points="70.8,55.9 70.8,56 70.8,56 70.8,56 70.8,56 70.8,56 70.8,56.1 70.8,56.1 70.8,56.1 70.8,56.1 
		70.8,56 70.8,56 70.8,56 70.8,56 	"/>
	<polygon class="st16" points="70.8,55.8 70.8,55.8 70.8,55.8 	"/>
	<path class="st16" d="M70.8,55.6L70.8,55.6L70.8,55.6z"/>
	<path class="st16" d="M70.8,55.5L70.8,55.5L70.8,55.5z"/>
	<path class="st16" d="M70.8,55.4L70.8,55.4L70.8,55.4z"/>
	<path class="st16" d="M70.9,55.1L70.9,55.1L70.9,55.1z"/>
	<path class="st16" d="M70.9,55.1L70.9,55.1L70.9,55.1z"/>
	<polygon class="st16" points="70.9,54.9 70.9,54.9 70.9,54.9 	"/>
	<polygon class="st16" points="70.9,54.7 70.9,54.7 70.9,54.7 	"/>
	<polygon class="st16" points="70.9,54.5 70.9,54.6 70.9,54.6 	"/>
	<polygon class="st16" points="70.9,54.5 70.9,54.5 70.9,54.5 	"/>
	<polygon class="st16" points="80.4,44.8 80.4,44.8 80.4,44.8 	"/>
	<polygon class="st16" points="98.2,67.3 98.3,67.1 98.3,67.1 	"/>
	<path class="st16" d="M98,67.8c0.1-0.2,0.1-0.3,0.2-0.5C98.2,67.5,98.1,67.7,98,67.8z"/>
	<path class="st17" d="M76.4,57.3l17.8,0l1.9,22c0.1,1.5,1.4,2.7,2.9,2.8l0.3,0l-3.6,7.7l-10.2,9.9L74,88.5l-2.3-6.4l0.7-0.1
		c1.4-0.2,2.4-1.3,2.5-2.8L76.4,57.3z"/>
	<path class="st18" d="M85.5,99.8L85.5,99.8l-9.7-6.6l-4.1-11.1l0.7-0.1c1.4-0.2,2.4-1.3,2.5-2.8l1.3-17.7h9.4L85.5,99.8z"/>
	<path class="st19" d="M75.3,72.8l20.3,0.1l0.1,0.9c-0.3,0.6-0.5,0.9-0.9,1.4c-2.6,3.9-6,6.5-9.2,6.5c-3.3,0-6.6-2.6-9.2-6.5
		c-0.4-0.6-0.7-1-1-1.7L75.3,72.8z"/>
	<path class="st20" d="M73.8,81.3c7.1,6.9,14.5,8.3,23.1-0.1c2.4,0.5,4.9,0.9,7,1.8c9.9,4.2,10.3,14.6,10.3,23.9
		c0,2.9-2.3,5.2-5.1,5.2l-47.2,0c-2.8,0-5.1-2.3-5.1-5.2c0-9.4,0.6-19.4,9.6-23.6C69,82.1,71.1,81.8,73.8,81.3z"/>
	<path class="st21" d="M71.9,72c-20-32.5,11.3-44.8,12.5-40.3c0.3,1.2,0.4,0.6,1.1,0.1c9.6-6.7,30.3,14.9,13.6,40.4
		c-1.1,0.3-2.4,0.5-3.8,0.7L95.2,73c1.2-1.7,2.3-3.7,3.1-5.9h0c0.4-1.3,0.8-2.7,1.2-4.1c0.3-1.4,0.6-2.8,0.7-4.2h0
		c0.1-0.6,0.1-1.2,0.1-1.8c0-0.5,0-1.2,0-1.8c0-0.5,0-0.9,0-1.2c0-0.3,0-0.7-0.1-1.1c-0.4-3.1-4.5-3.8-9-4.5
		c-5.2-0.9-10.8-1.8-13.1-6.5l0,0C76,44,71.8,47.6,71,54.3c-0.1,0.6-0.1,1.2-0.2,1.9c0,0.6,0,1.3,0,2l0,0c0.4,5.9,2.3,11,4.9,14.8
		C74.2,72.6,72.9,72.3,71.9,72z"/>
	<path class="st22" d="M98.3,67.1c0.4-1.3,0.8-2.7,1.2-4.1c0.3-1.4,0.6-2.8,0.7-4.2l0,0c0.1-0.6,0.1-1.2,0.1-1.8c0-0.5,0-1.2,0-1.8
		c0-0.5,0-0.9,0-1.2c0-0.3,0-0.7-0.1-1.1c-0.4-3.1-4.5-3.8-9-4.5c-5.2-0.9-10.8-1.8-13.1-6.5l0,0C76,44,71.8,47.6,71,54.3
		c-0.1,0.6-0.1,1.2-0.2,1.9c0,0.6,0,1.3,0,2l0,0c0.5,6,2.3,11.2,5.1,14.9h0c2.6,3.6,6,5.7,9.7,5.7c2.6,0,5.1-1.1,7.2-3l0,0
		C95,73.7,97,70.7,98.3,67.1L98.3,67.1L98.3,67.1z"/>
	<path class="st23" d="M85.5,47.3c-3.1-0.9-5.8-2.4-7.2-5.3l0,0C76,44,71.8,47.6,71,54.3c-0.1,0.6-0.1,1.2-0.2,1.9c0,0.6,0,1.3,0,2
		l0,0c0.5,6,2.3,11.2,5.1,14.9h0c2.6,3.6,6,5.7,9.7,5.7L85.5,47.3z"/>
	<path class="st24" d="M71.7,81.7c1.9,3.7,7,8,13.6,8c6.2,0,11.4-4.2,13.6-7.9l0,0c-2.2,4.2-7.2,8.6-13.6,8.6
		C78.9,90.3,73.6,85.8,71.7,81.7L71.7,81.7z"/>
	<path class="st24" d="M72.6,81.3c3,7.5,7.5,18.1,13,22.8c6-6.2,10.7-15.8,12.9-22.8c2.4,0.5,4.9,0.9,7,1.8l0,0l0,0
		c9.7,4,8.9,14.2,8.8,23.9c0,2.9-2.3,5.2-5.1,5.2l-47.2,0c-2.8,0-5.1-2.3-5.1-5.2c0-9.4-0.7-19.5,8.3-23.6v0l0,0
		C67.7,82,69.7,81.8,72.6,81.3z"/>
	<path class="st25" d="M72.5,81.2c3,7.5,7.5,18.1,13,22.8c6-6.2,10.7-15.8,12.8-22.9c0.7,0.2,1.4,0.3,2.2,0.4
		c-2.1,7.6-9.4,21.3-15,25.7C80.3,105.3,74,92,70.7,81.6C71.3,81.4,71.9,81.3,72.5,81.2z"/>
</g>
<g>
	<path class="st26" d="M1329,59.6h18.4l1.9,20.9c0.1,1.5,1.4,2.6,3,2.6l0.4,0l-2.3,7.8l-24.5-1.9l-1.8-5.9l0.7-0.1
		c1.4-0.2,2.5-1.3,2.6-2.6L1329,59.6z"/>
	<path class="st27" d="M1338.3,90.1l-12.4-1l-1.8-5.9l0.7-0.1c1.4-0.2,2.5-1.3,2.6-2.6l1.2-14.8h9.8L1338.3,90.1z"/>
	<path class="st28" d="M1329,59.6h18.4l1.5,15.8c-0.3,0.6-0.6,0.9-0.9,1.4c-2.7,3.7-6.2,6.2-9.6,6.2c-3.4,0-6.9-2.5-9.6-6.2
		c-0.4-0.6-0.7-1-1.1-1.6L1329,59.6z"/>
	<path class="st29" d="M1338.3,77.6c-4.3,0-8.6-2.8-11.8-6.9c-3.2-4-5.3-9.4-5.3-14.5V56l0-0.1c0-0.4,0-0.7,0-1
		c0-12.4-2.3-22.4,17.1-22.4c19.4,0,17.1,10,17.1,22.4c0,0.3,0,0.7,0,1l0,0.1v0.1c0,5.2-2.1,10.5-5.3,14.5
		C1346.9,74.8,1342.6,77.6,1338.3,77.6z"/>
	<path class="st30" d="M1326.9,73c3.2,4.1,7.4,6.9,11.4,6.9c4,0,8.2-2.8,11.4-6.9c3.3-4.2,5.5-9.8,5.6-15.1l-1.1-4.3
		c-0.4-1.5-0.4-3-0.5-4.3c0-1.8-0.1-3.4-1.1-4.8c-1.7-2.2-4.3-1.5-7.4-0.6c-2.1,0.6-4.4,1.2-6.9,1.2c-2.5,0-4.8-0.6-6.9-1.2l0,0
		c-3.1-0.8-5.7-1.5-7.4,0.6c-1,1.3-1.1,3-1.1,4.7c0,1.4-0.1,2.8-0.5,4.3l-1.1,4.3C1321.4,63.2,1323.6,68.8,1326.9,73z"/>
	<path class="st31" d="M1326.9,73c3.2,4.1,7.4,6.9,11.4,6.9l0-34.8c-2.5,0-4.8-0.6-6.9-1.2l0,0c-3.1-0.8-5.7-1.5-7.4,0.6
		c-1,1.3-1.1,3-1.1,4.7c0,1.4-0.1,2.8-0.5,4.3l-1.1,4.3C1321.4,63.2,1323.6,68.8,1326.9,73z"/>
	<path class="st32" d="M1327.2,80.5c-7.5,4.9-21.2,5.3-21.2,15.6c0,3.4,0,6.8,0,10.2c0,2.8,2.4,5,5.4,5c18,0,36,0,54,0
		c3,0,5.4-2.3,5.4-5l0-10.2c0-10.4-13.6-10.8-21.2-15.6C1341.8,85.6,1336.2,87.3,1327.2,80.5z"/>
	<path class="st33" d="M1325.1,81.7c1.8,3.6,6.9,7.8,13.3,7.8c6.1,0,11.1-4.1,13.3-7.7l0,0c-2.2,4.1-7,8.4-13.3,8.4
		C1332.1,90.2,1326.9,85.8,1325.1,81.7L1325.1,81.7z"/>
	<path class="st34" d="M1323.1,82.1c-7.1,3-17.1,3.7-17.1,14c0,3.4,0,6.8,0,10.2c0,2.8,2.4,5,5.4,5l27,0l27,0c3,0,5.4-2.3,5.4-5
		c0-3.4,0-6.8,0-10.2c0-10.3-10-11-17.1-14c-4.4,6.8-9.9,10.2-15.3,10.3C1332.9,92.3,1327.4,88.8,1323.1,82.1z"/>
	<path class="st35" d="M1323.1,82c-1,0.4-2.1,0.8-3.1,1.2c6,9.5,13.1,12.3,18.4,12.4c5.3,0,12.4-2.9,18.5-12.4
		c-1.1-0.4-2.1-0.7-3.1-1.2c-4.3,6.8-9.9,10.3-15.3,10.4C1332.9,92.3,1327.4,88.8,1323.1,82z"/>
</g>
<g>
</g>
</svg>
