<?xml version="1.0" encoding="utf-8"?>
<!-- Generator: Adobe Illustrator 19.2.0, SVG Export Plug-In . SVG Version: 6.00 Build 0)  -->
<svg version="1.1" id="Layer_1" xmlns="http://www.w3.org/2000/svg" xmlns:xlink="http://www.w3.org/1999/xlink" x="0px" y="0px"
	 viewBox="0 0 2048 1000" style="enable-background:new 0 0 2048 1000;" xml:space="preserve">
<style type="text/css">
	.st0{fill:#B9E5FB;}
	.st1{fill:#4EA8DE;}
	.st2{fill:#ED1C24;}
	.st3{fill:#FFFFFF;}
	.st4{fill:#2C5871;}
	.st5{fill:#D1ECFB;}
	.st6{fill:none;stroke:#343636;stroke-width:3.5217;stroke-miterlimit:10;}
	.st7{fill:#333333;}
	.st8{fill:none;stroke:#4EA8DE;stroke-width:2;stroke-miterlimit:10;}
	.st9{enable-background:new    ;}
	.st10{fill:none;stroke:#343636;stroke-width:4.9065;stroke-miterlimit:10;}
	.st11{fill:none;}
	.st12{fill:#EFEFF0;}
	.st13{fill:#89C240;}
	.st14{fill:#8CC63F;}
	.st15{fill:#173E68;}
	.st16{clip-path:url(#SVGID_2_);fill:#E3CCA4;}
	.st17{clip-path:url(#SVGID_2_);fill:#D4C5A3;}
	.st18{clip-path:url(#SVGID_2_);fill:#CCBC97;}
	.st19{clip-path:url(#SVGID_2_);fill:#2C3E50;}
	.st20{clip-path:url(#SVGID_2_);fill:#ECF0F1;}
	.st21{clip-path:url(#SVGID_2_);fill:#FFE7BD;}
	.st22{clip-path:url(#SVGID_2_);fill:#DAE1E6;}
	.st23{clip-path:url(#SVGID_2_);fill:#E8D6AC;}
	.st24{clip-path:url(#SVGID_2_);fill:#B3B3B3;}
</style>
<rect class="st0" width="2048" height="1000"/>
<rect class="st1" width="1012.9" height="1000"/>
<rect x="1013" y="672" class="st2" width="1035" height="328"/>
<g>
	<g>
		<g>
			<polygon class="st3" points="1988.4,604.8 1988.4,528.7 1988.4,332.2 1833.4,191.5 1078,191.5 1078,604.8 			"/>
			<g>
				<polygon class="st4" points="1833.4,332.2 1988.4,332.2 1833.4,191.5 				"/>
				<polygon class="st5" points="1988.4,332.2 1833.4,332.2 1988.4,473 				"/>
			</g>
		</g>
	</g>
</g>
<line class="st6" x1="1053.4" y1="54" x2="2025.4" y2="54"/>
<g>
	<g>
		<path class="st7" d="M1163.4,355.6c-0.7-3.5-3.5-5.3-7-5.3c-6,0-8.5,4.9-8.5,10.1c0,5.7,2.5,10.5,8.5,10.5c4.3,0,6.9-3.1,7.2-7.2
			h3.3c-0.7,6.3-4.5,10-10.8,10c-7.7,0-11.6-5.7-11.6-13s4.1-13.2,11.8-13.2c5.2,0,9.6,2.8,10.3,8.1H1163.4z"/>
		<path class="st7" d="M1170.8,348.1h3v25h-3V348.1z"/>
		<path class="st7" d="M1181.5,351.7h-3v-3.6h3V351.7z M1178.5,355h3V373h-3V355z"/>
		<path class="st7" d="M1201.6,367.3c-0.8,4-3.6,6.2-7.7,6.2c-5.8,0-8.5-4-8.7-9.5c0-5.5,3.6-9.4,8.5-9.4c6.4,0,8.4,6,8.2,10.4
			h-13.5c-0.1,3.2,1.7,6,5.6,6c2.5,0,4.2-1.2,4.7-3.5H1201.6z M1198.7,362.3c-0.2-2.8-2.2-5.1-5.2-5.1c-3.1,0-5,2.3-5.2,5.1H1198.7z
			"/>
		<path class="st7" d="M1204.9,355h2.8v2.9h0.1c1.3-2.2,3.3-3.3,5.9-3.3c4.8,0,6.2,2.7,6.2,6.6V373h-3v-12.3c0-2.2-1.4-3.6-3.7-3.6
			c-3.6,0-5.4,2.4-5.4,5.7V373h-3V355z"/>
		<path class="st7" d="M1228.5,355h3.6v2.6h-3.6v11.2c0,1.4,0.4,1.6,2.2,1.6h1.4v2.6h-2.3c-3.1,0-4.3-0.6-4.3-4v-11.5h-3.1V355h3.1
			v-5.4h3V355z"/>
		<path class="st7" d="M1247,367.3c0.1,2.7,2.5,3.5,4.9,3.5c1.9,0,4.4-0.4,4.4-2.7c0-4.7-11.8-1.5-11.8-8.5c0-3.6,3.6-5.1,6.8-5.1
			c4.1,0,7.1,1.3,7.4,5.7h-3c-0.2-2.3-2.3-3-4.2-3c-1.8,0-3.9,0.5-3.9,2.3c0,2.1,3.2,2.5,5.9,3.2c3,0.7,5.9,1.7,5.9,5.1
			c0,4.3-4,5.7-7.7,5.7c-4.1,0-7.5-1.6-7.7-6.1H1247z"/>
		<path class="st7" d="M1262.7,355h3v2.5h0.1c1-2,3.3-2.9,5.8-2.9c5.6,0,8.3,4.4,8.3,9.5c0,5.1-2.7,9.4-8.3,9.4
			c-1.8,0-4.6-0.7-5.8-2.8h-0.1v9.3h-3V355z M1271.1,357.2c-4,0-5.5,3.5-5.5,6.8c0,3.5,1.6,6.9,5.7,6.9c4.1,0,5.4-3.5,5.4-7
			C1276.7,360.4,1275,357.2,1271.1,357.2z"/>
		<path class="st7" d="M1298.8,367.3c-0.8,4-3.6,6.2-7.7,6.2c-5.8,0-8.5-4-8.7-9.5c0-5.5,3.6-9.4,8.5-9.4c6.4,0,8.4,6,8.2,10.4
			h-13.5c-0.1,3.2,1.7,6,5.6,6c2.5,0,4.2-1.2,4.7-3.5H1298.8z M1296,362.3c-0.2-2.8-2.2-5.1-5.2-5.1c-3.1,0-5,2.3-5.2,5.1H1296z"/>
		<path class="st7" d="M1314.5,360.8c-0.5-2.3-2-3.6-4.5-3.6c-4.3,0-5.6,3.4-5.6,7.1c0,3.4,1.5,6.6,5.3,6.6c2.9,0,4.6-1.6,5-4.4h3
			c-0.7,4.4-3.4,7-8,7c-5.5,0-8.5-3.8-8.5-9.2c0-5.4,2.8-9.7,8.5-9.7c4.1,0,7.4,1.9,7.8,6.2H1314.5z"/>
		<path class="st7" d="M1324.1,351.7h-3v-3.6h3V351.7z M1321.2,355h3V373h-3V355z"/>
		<path class="st7" d="M1330,357.6h-3V355h3v-2.7c0-2.9,1.8-4.5,5-4.5c0.6,0,1.4,0.1,1.9,0.3v2.6c-0.5-0.2-1.2-0.2-1.7-0.2
			c-1.4,0-2.3,0.5-2.3,2v2.5h3.5v2.6h-3.5V373h-3V357.6z M1339.3,351.7v-3.6h3v3.6H1339.3z M1339.3,373V355h3V373H1339.3z"/>
		<path class="st7" d="M1359.2,360.8c-0.5-2.3-2-3.6-4.5-3.6c-4.3,0-5.6,3.4-5.6,7.1c0,3.4,1.5,6.6,5.3,6.6c2.9,0,4.6-1.6,5-4.4h3
			c-0.7,4.4-3.4,7-8,7c-5.5,0-8.5-3.8-8.5-9.2c0-5.4,2.8-9.7,8.5-9.7c4.1,0,7.4,1.9,7.8,6.2H1359.2z"/>
		<path class="st7" d="M1378.6,351.7h-3v-3.6h3V351.7z M1375.6,355h3V373h-3V355z"/>
		<path class="st7" d="M1383.2,355h2.8v2.9h0.1c1.3-2.2,3.3-3.3,5.9-3.3c4.8,0,6.2,2.7,6.2,6.6V373h-3v-12.3c0-2.2-1.4-3.6-3.7-3.6
			c-3.6,0-5.4,2.4-5.4,5.7V373h-3V355z"/>
		<path class="st7" d="M1404.5,367.3c0.1,2.7,2.5,3.5,4.9,3.5c1.9,0,4.4-0.4,4.4-2.7c0-4.7-11.8-1.5-11.8-8.5c0-3.6,3.6-5.1,6.8-5.1
			c4.1,0,7.1,1.3,7.4,5.7h-3c-0.2-2.3-2.3-3-4.2-3c-1.8,0-3.9,0.5-3.9,2.3c0,2.1,3.2,2.5,5.9,3.2c3,0.7,5.9,1.7,5.9,5.1
			c0,4.3-4,5.7-7.7,5.7c-4.1,0-7.5-1.6-7.7-6.1H1404.5z"/>
		<path class="st7" d="M1424.3,355h3.6v2.6h-3.6v11.2c0,1.4,0.4,1.6,2.2,1.6h1.4v2.6h-2.3c-3.1,0-4.3-0.6-4.3-4v-11.5h-3.1V355h3.1
			v-5.4h3V355z"/>
		<path class="st7" d="M1447.2,373c-0.5,0.3-1.3,0.5-2.1,0.5c-1.5,0-2.5-0.8-2.5-2.8c-1.6,2-3.9,2.8-6.4,2.8c-3.3,0-6-1.4-6-5.1
			c0-4.1,3-5,6.1-5.6c3.3-0.7,6.1-0.4,6.1-2.7c0-2.6-2.2-3-4-3c-2.5,0-4.4,0.8-4.5,3.4h-3c0.2-4.5,3.6-6.1,7.7-6.1
			c3.3,0,6.8,0.7,6.8,5v9.3c0,1.4,0,2,0.9,2c0.3,0,0.6-0.1,0.9-0.2V373z M1442.4,363.7c-2.3,1.7-9,0-9,4.5c0,2,1.7,2.7,3.5,2.7
			c3.9,0,5.5-2.4,5.5-4.1V363.7z"/>
		<path class="st7" d="M1450.1,348.1h3v25h-3V348.1z"/>
		<path class="st7" d="M1457.9,348.1h3v25h-3V348.1z"/>
		<path class="st7" d="M1481.5,373c-0.5,0.3-1.3,0.5-2.1,0.5c-1.5,0-2.5-0.8-2.5-2.8c-1.6,2-3.9,2.8-6.4,2.8c-3.3,0-6-1.4-6-5.1
			c0-4.1,3-5,6.1-5.6c3.3-0.7,6.1-0.4,6.1-2.7c0-2.6-2.2-3-4-3c-2.5,0-4.4,0.8-4.5,3.4h-3c0.2-4.5,3.6-6.1,7.7-6.1
			c3.3,0,6.8,0.7,6.8,5v9.3c0,1.4,0,2,0.9,2c0.3,0,0.6-0.1,0.9-0.2V373z M1476.7,363.7c-2.3,1.7-9,0-9,4.5c0,2,1.7,2.7,3.5,2.7
			c3.9,0,5.5-2.4,5.5-4.1V363.7z"/>
		<path class="st7" d="M1488.4,355h3.6v2.6h-3.6v11.2c0,1.4,0.4,1.6,2.2,1.6h1.4v2.6h-2.3c-3.1,0-4.3-0.6-4.3-4v-11.5h-3.1V355h3.1
			v-5.4h3V355z"/>
		<path class="st7" d="M1498.5,351.7h-3v-3.6h3V351.7z M1495.5,355h3V373h-3V355z"/>
		<path class="st7" d="M1510.9,354.5c5.7,0,8.8,4.2,8.8,9.5c0,5.3-3,9.5-8.8,9.5c-5.7,0-8.8-4.2-8.8-9.5
			C1502.1,358.7,1505.2,354.5,1510.9,354.5z M1510.9,370.8c3.1,0,5.6-2.5,5.6-6.8s-2.5-6.9-5.6-6.9s-5.6,2.5-5.6,6.9
			S1507.8,370.8,1510.9,370.8z"/>
		<path class="st7" d="M1523.2,355h2.8v2.9h0.1c1.3-2.2,3.3-3.3,5.9-3.3c4.8,0,6.2,2.7,6.2,6.6V373h-3v-12.3c0-2.2-1.4-3.6-3.7-3.6
			c-3.6,0-5.4,2.4-5.4,5.7V373h-3V355z"/>
		<path class="st7" d="M1544.5,367.3c0.1,2.7,2.5,3.5,4.9,3.5c1.9,0,4.4-0.4,4.4-2.7c0-4.7-11.8-1.5-11.8-8.5c0-3.6,3.6-5.1,6.8-5.1
			c4.1,0,7.1,1.3,7.4,5.7h-3c-0.2-2.3-2.3-3-4.2-3c-1.8,0-3.9,0.5-3.9,2.3c0,2.1,3.2,2.5,5.9,3.2c3,0.7,5.9,1.7,5.9,5.1
			c0,4.3-4,5.7-7.7,5.7c-4.1,0-7.5-1.6-7.7-6.1H1544.5z"/>
		<path class="st7" d="M1574,355h3.6v2.6h-3.6v11.2c0,1.4,0.4,1.6,2.2,1.6h1.4v2.6h-2.3c-3.1,0-4.3-0.6-4.3-4v-11.5h-3.1V355h3.1
			v-5.4h3V355z"/>
		<path class="st7" d="M1588.7,354.5c5.7,0,8.8,4.2,8.8,9.5c0,5.3-3,9.5-8.8,9.5c-5.7,0-8.8-4.2-8.8-9.5
			C1579.9,358.7,1583,354.5,1588.7,354.5z M1588.7,370.8c3.1,0,5.6-2.5,5.6-6.8s-2.5-6.9-5.6-6.9s-5.6,2.5-5.6,6.9
			S1585.6,370.8,1588.7,370.8z"/>
		<path class="st7" d="M1610.8,355h3v2.5h0.1c1-2,3.3-2.9,5.8-2.9c5.6,0,8.3,4.4,8.3,9.5c0,5.1-2.7,9.4-8.3,9.4
			c-1.8,0-4.6-0.7-5.8-2.8h-0.1v9.3h-3V355z M1619.2,357.2c-4,0-5.5,3.5-5.5,6.8c0,3.5,1.6,6.9,5.7,6.9c4.1,0,5.4-3.5,5.4-7
			C1624.8,360.4,1623.1,357.2,1619.2,357.2z"/>
		<path class="st7" d="M1631.4,355h2.8v3.8h0.1c1.4-2.9,3.4-4.3,6.7-4.2v3.2c-4.8,0-6.5,2.7-6.5,7.3v8.1h-3V355z"/>
		<path class="st7" d="M1658.6,367.3c-0.8,4-3.6,6.2-7.7,6.2c-5.8,0-8.5-4-8.7-9.5c0-5.5,3.6-9.4,8.5-9.4c6.4,0,8.4,6,8.2,10.4
			h-13.5c-0.1,3.2,1.7,6,5.6,6c2.5,0,4.2-1.2,4.7-3.5H1658.6z M1655.7,362.3c-0.2-2.8-2.2-5.1-5.2-5.1c-3.1,0-5,2.3-5.2,5.1H1655.7z
			"/>
		<path class="st7" d="M1662,355h3v2.5h0.1c1-2,3.3-2.9,5.8-2.9c5.6,0,8.3,4.4,8.3,9.5c0,5.1-2.7,9.4-8.3,9.4
			c-1.8,0-4.6-0.7-5.8-2.8h-0.1v9.3h-3V355z M1670.4,357.2c-4,0-5.5,3.5-5.5,6.8c0,3.5,1.6,6.9,5.7,6.9c4.1,0,5.4-3.5,5.4-7
			C1676,360.4,1674.3,357.2,1670.4,357.2z"/>
		<path class="st7" d="M1698.7,373c-0.5,0.3-1.3,0.5-2.1,0.5c-1.5,0-2.5-0.8-2.5-2.8c-1.6,2-3.9,2.8-6.4,2.8c-3.3,0-6-1.4-6-5.1
			c0-4.1,3-5,6.1-5.6c3.3-0.7,6.1-0.4,6.1-2.7c0-2.6-2.2-3-4-3c-2.5,0-4.4,0.8-4.5,3.4h-3c0.2-4.5,3.6-6.1,7.7-6.1
			c3.3,0,6.8,0.7,6.8,5v9.3c0,1.4,0,2,0.9,2c0.3,0,0.6-0.1,0.9-0.2V373z M1693.9,363.7c-2.3,1.7-9,0-9,4.5c0,2,1.7,2.7,3.5,2.7
			c3.9,0,5.5-2.4,5.5-4.1V363.7z"/>
		<path class="st7" d="M1701.4,355h2.8v3.8h0.1c1.4-2.9,3.4-4.3,6.7-4.2v3.2c-4.8,0-6.5,2.7-6.5,7.3v8.1h-3V355z"/>
		<path class="st7" d="M1728.6,367.3c-0.8,4-3.6,6.2-7.7,6.2c-5.8,0-8.5-4-8.7-9.5c0-5.5,3.6-9.4,8.5-9.4c6.4,0,8.4,6,8.2,10.4
			h-13.5c-0.1,3.2,1.7,6,5.6,6c2.5,0,4.2-1.2,4.7-3.5H1728.6z M1725.7,362.3c-0.2-2.8-2.2-5.1-5.2-5.1c-3.1,0-5,2.3-5.2,5.1H1725.7z
			"/>
		<path class="st7" d="M1757.7,373c-0.5,0.3-1.3,0.5-2.1,0.5c-1.5,0-2.5-0.8-2.5-2.8c-1.6,2-3.9,2.8-6.4,2.8c-3.3,0-6-1.4-6-5.1
			c0-4.1,3-5,6.1-5.6c3.3-0.7,6.1-0.4,6.1-2.7c0-2.6-2.2-3-4-3c-2.5,0-4.4,0.8-4.5,3.4h-3c0.2-4.5,3.6-6.1,7.7-6.1
			c3.3,0,6.8,0.7,6.8,5v9.3c0,1.4,0,2,0.9,2c0.3,0,0.6-0.1,0.9-0.2V373z M1752.8,363.7c-2.3,1.7-9,0-9,4.5c0,2,1.7,2.7,3.5,2.7
			c3.9,0,5.5-2.4,5.5-4.1V363.7z"/>
		<path class="st7" d="M1760.4,355h2.8v2.9h0.1c1.3-2.2,3.3-3.3,5.9-3.3c4.8,0,6.2,2.7,6.2,6.6V373h-3v-12.3c0-2.2-1.4-3.6-3.7-3.6
			c-3.6,0-5.4,2.4-5.4,5.7V373h-3V355z"/>
		<path class="st7" d="M1233.9,395.5c7.9,0,12,6.3,12,13.1s-4,13.1-12,13.1c-7.9,0-12-6.3-12-13.1S1225.9,395.5,1233.9,395.5z
			 M1233.9,418.8c6.1,0,8.6-5.3,8.6-10.3s-2.6-10.3-8.6-10.3c-6.1,0-8.6,5.3-8.6,10.3S1227.8,418.8,1233.9,418.8z"/>
		<path class="st7" d="M1250.6,405.6h-3V403h3v-2.7c0-2.9,1.8-4.5,5-4.5c0.6,0,1.4,0.1,1.9,0.3v2.6c-0.5-0.2-1.2-0.2-1.7-0.2
			c-1.4,0-2.3,0.5-2.3,2v2.5h3.5v2.6h-3.5V421h-3V405.6z"/>
		<path class="st7" d="M1261,405.6h-3V403h3v-2.7c0-2.9,1.8-4.5,5-4.5c0.6,0,1.4,0.1,1.9,0.3v2.6c-0.5-0.2-1.2-0.2-1.7-0.2
			c-1.4,0-2.3,0.5-2.3,2v2.5h3.5v2.6h-3.5V421h-3V405.6z"/>
		<path class="st7" d="M1285.5,415.3c-0.8,4-3.6,6.2-7.7,6.2c-5.8,0-8.5-4-8.7-9.5c0-5.5,3.6-9.4,8.5-9.4c6.4,0,8.4,6,8.2,10.4
			h-13.5c-0.1,3.2,1.7,6,5.6,6c2.5,0,4.2-1.2,4.7-3.5H1285.5z M1282.7,410.3c-0.2-2.8-2.2-5.1-5.2-5.1c-3.1,0-5,2.3-5.2,5.1H1282.7z
			"/>
		<path class="st7" d="M1288.8,403h2.8v3.8h0.1c1.4-2.9,3.4-4.3,6.7-4.2v3.2c-4.8,0-6.5,2.7-6.5,7.3v8.1h-3V403z"/>
		<path class="st7" d="M1303.7,399.7h-3v-3.6h3V399.7z M1300.7,403h3V421h-3V403z"/>
		<path class="st7" d="M1308.3,403h2.8v2.9h0.1c1.3-2.2,3.3-3.3,5.9-3.3c4.8,0,6.2,2.7,6.2,6.6V421h-3v-12.3c0-2.2-1.4-3.6-3.7-3.6
			c-3.6,0-5.4,2.4-5.4,5.7V421h-3V403z"/>
		<path class="st7" d="M1343.4,419.5c0,5.9-2.7,8.9-8.4,8.9c-3.4,0-7.3-1.4-7.5-5.3h3c0.1,2.1,2.8,2.9,4.7,2.9
			c3.9,0,5.4-2.8,5.4-6.9V418h-0.1c-1,2.2-3.3,3.3-5.6,3.3c-5.4,0-8.1-4.2-8.1-9.2c0-4.3,2.1-9.6,8.4-9.6c2.3,0,4.3,1,5.4,3h0V403
			h2.8V419.5z M1340.5,411.6c0-3.2-1.4-6.5-5.1-6.5c-3.8,0-5.4,3.1-5.4,6.6c0,3.3,1.2,6.9,5.1,6.9
			C1339,418.6,1340.5,415,1340.5,411.6z"/>
		<path class="st7" d="M1358.8,405.6h-3V403h3v-2.7c0-2.9,1.8-4.5,5-4.5c0.6,0,1.4,0.1,1.9,0.3v2.6c-0.5-0.2-1.2-0.2-1.7-0.2
			c-1.4,0-2.3,0.5-2.3,2v2.5h3.5v2.6h-3.5V421h-3V405.6z"/>
		<path class="st7" d="M1375.8,402.5c5.7,0,8.8,4.2,8.8,9.5c0,5.3-3,9.5-8.8,9.5c-5.7,0-8.8-4.2-8.8-9.5
			C1367,406.7,1370,402.5,1375.8,402.5z M1375.8,418.8c3.1,0,5.6-2.5,5.6-6.8s-2.5-6.9-5.6-6.9s-5.6,2.5-5.6,6.9
			S1372.7,418.8,1375.8,418.8z"/>
		<path class="st7" d="M1388,403h2.8v3.8h0.1c1.4-2.9,3.4-4.3,6.7-4.2v3.2c-4.8,0-6.5,2.7-6.5,7.3v8.1h-3V403z"/>
		<path class="st7" d="M1425.6,421h-3v-2.5h-0.1c-1,2-3.3,2.9-5.8,2.9c-5.6,0-8.3-4.4-8.3-9.5c0-5.1,2.7-9.4,8.3-9.4
			c1.8,0,4.5,0.7,5.8,2.8h0.1v-9.3h3V421z M1417.2,418.8c4,0,5.5-3.5,5.5-6.8c0-3.5-1.6-6.9-5.7-6.9c-4.1,0-5.4,3.5-5.4,7
			C1411.6,415.6,1413.4,418.8,1417.2,418.8z"/>
		<path class="st7" d="M1445.6,415.3c-0.8,4-3.6,6.2-7.7,6.2c-5.8,0-8.5-4-8.7-9.5c0-5.5,3.6-9.4,8.5-9.4c6.4,0,8.4,6,8.2,10.4
			h-13.5c-0.1,3.2,1.7,6,5.6,6c2.5,0,4.2-1.2,4.7-3.5H1445.6z M1442.8,410.3c-0.2-2.8-2.2-5.1-5.2-5.1c-3.1,0-5,2.3-5.2,5.1H1442.8z
			"/>
		<path class="st7" d="M1449.2,396.1h3v25h-3V396.1z"/>
		<path class="st7" d="M1459.9,399.7h-3v-3.6h3V399.7z M1456.9,403h3V421h-3V403z"/>
		<path class="st7" d="M1472.7,421h-3.2l-6.7-18.1h3.3l5.1,15.1h0.1l4.9-15.1h3.1L1472.7,421z"/>
		<path class="st7" d="M1497.5,415.3c-0.8,4-3.6,6.2-7.7,6.2c-5.8,0-8.5-4-8.7-9.5c0-5.5,3.6-9.4,8.5-9.4c6.4,0,8.4,6,8.2,10.4
			h-13.5c-0.1,3.2,1.7,6,5.6,6c2.5,0,4.2-1.2,4.7-3.5H1497.5z M1494.6,410.3c-0.2-2.8-2.2-5.1-5.2-5.1c-3.1,0-5,2.3-5.2,5.1H1494.6z
			"/>
		<path class="st7" d="M1500.7,403h2.8v3.8h0.1c1.4-2.9,3.4-4.3,6.7-4.2v3.2c-4.8,0-6.5,2.7-6.5,7.3v8.1h-3V403z"/>
		<path class="st7" d="M1519.6,423.5c-1.4,3.5-2.6,4.8-5.2,4.8c-0.7,0-1.4-0.1-2.1-0.3v-2.7c0.6,0.2,1.2,0.4,1.8,0.4
			c1.2,0,1.9-0.6,2.5-1.6l1.2-3.1l-7.2-18h3.4l5.3,14.8h0.1l5.1-14.8h3.2L1519.6,423.5z"/>
		<path class="st7" d="M1543.8,403h3.6v2.6h-3.6v11.2c0,1.4,0.4,1.6,2.2,1.6h1.4v2.6h-2.3c-3.1,0-4.3-0.6-4.3-4v-11.5h-3.1V403h3.1
			v-5.4h3V403z"/>
		<path class="st7" d="M1558.5,402.5c5.7,0,8.8,4.2,8.8,9.5c0,5.3-3,9.5-8.8,9.5c-5.7,0-8.8-4.2-8.8-9.5
			C1549.8,406.7,1552.8,402.5,1558.5,402.5z M1558.5,418.8c3.1,0,5.6-2.5,5.6-6.8s-2.5-6.9-5.6-6.9s-5.6,2.5-5.6,6.9
			S1555.4,418.8,1558.5,418.8z"/>
		<path class="st7" d="M1596.6,421c-0.5,0.3-1.3,0.5-2.1,0.5c-1.5,0-2.5-0.8-2.5-2.8c-1.6,2-3.9,2.8-6.4,2.8c-3.3,0-6-1.4-6-5.1
			c0-4.1,3-5,6.1-5.6c3.3-0.7,6.1-0.4,6.1-2.7c0-2.6-2.2-3-4-3c-2.5,0-4.4,0.8-4.5,3.4h-3c0.2-4.5,3.6-6.1,7.7-6.1
			c3.3,0,6.8,0.7,6.8,5v9.3c0,1.4,0,2,0.9,2c0.3,0,0.6-0.1,0.9-0.2V421z M1591.8,411.7c-2.3,1.7-9,0-9,4.5c0,2,1.7,2.7,3.5,2.7
			c3.9,0,5.5-2.4,5.5-4.1V411.7z"/>
		<path class="st7" d="M1621.4,408.8c-0.5-2.3-2-3.6-4.5-3.6c-4.3,0-5.6,3.4-5.6,7.1c0,3.4,1.5,6.6,5.3,6.6c2.9,0,4.6-1.6,5-4.4h3
			c-0.7,4.4-3.4,7-8,7c-5.5,0-8.5-3.8-8.5-9.2c0-5.4,2.8-9.7,8.5-9.7c4.1,0,7.4,1.9,7.8,6.2H1621.4z"/>
		<path class="st7" d="M1628.1,396.1h3v25h-3V396.1z"/>
		<path class="st7" d="M1638.8,399.7h-3v-3.6h3V399.7z M1635.8,403h3V421h-3V403z"/>
		<path class="st7" d="M1658.9,415.3c-0.8,4-3.6,6.2-7.7,6.2c-5.8,0-8.5-4-8.7-9.5c0-5.5,3.6-9.4,8.5-9.4c6.4,0,8.4,6,8.2,10.4
			h-13.5c-0.1,3.2,1.7,6,5.6,6c2.5,0,4.2-1.2,4.7-3.5H1658.9z M1656,410.3c-0.2-2.8-2.2-5.1-5.2-5.1c-3.1,0-5,2.3-5.2,5.1H1656z"/>
		<path class="st7" d="M1662.2,403h2.8v2.9h0.1c1.3-2.2,3.3-3.3,5.9-3.3c4.8,0,6.2,2.7,6.2,6.6V421h-3v-12.3c0-2.2-1.4-3.6-3.7-3.6
			c-3.6,0-5.4,2.4-5.4,5.7V421h-3V403z"/>
		<path class="st7" d="M1685.8,403h3.6v2.6h-3.6v11.2c0,1.4,0.4,1.6,2.2,1.6h1.4v2.6h-2.3c-3.1,0-4.3-0.6-4.3-4v-11.5h-3.1V403h3.1
			v-5.4h3V403z"/>
		<path class="st7" d="M1693.4,417.2h3.9v3.9h-3.9V417.2z"/>
	</g>
</g>
<g>
	<g>
		<path class="st3" d="M1063.2,789.4h3.7l9.8,25h-3.7l-2.7-7.5h-10.6l-2.8,7.5h-3.4L1063.2,789.4z M1060.7,804.1h8.5l-4.2-11.7h-0.1
			L1060.7,804.1z"/>
		<path class="st3" d="M1078.6,796.3h2.8v2.9h0.1c1.3-2.2,3.3-3.3,5.9-3.3c4.8,0,6.2,2.7,6.2,6.6v11.9h-3v-12.2
			c0-2.2-1.4-3.6-3.7-3.6c-3.6,0-5.4,2.4-5.4,5.7v10.2h-3V796.3z"/>
		<path class="st3" d="M1105.1,816.8c-1.4,3.5-2.6,4.8-5.2,4.8c-0.7,0-1.4-0.1-2.1-0.3v-2.7c0.6,0.2,1.2,0.4,1.8,0.4
			c1.2,0,1.9-0.6,2.5-1.6l1.2-3.1l-7.2-18h3.4l5.3,14.8h0.1l5.1-14.8h3.2L1105.1,816.8z"/>
		<path class="st3" d="M1137.5,802.1c-0.5-2.3-2-3.6-4.5-3.6c-4.3,0-5.6,3.4-5.6,7.1c0,3.4,1.5,6.6,5.3,6.6c2.9,0,4.6-1.6,5-4.4h3
			c-0.7,4.4-3.4,7-8,7c-5.5,0-8.5-3.8-8.5-9.2s2.8-9.7,8.5-9.7c4.1,0,7.4,1.9,7.8,6.2H1137.5z"/>
		<path class="st3" d="M1144.1,789.4h3v9.6h0.1c0.9-2.2,3.6-3.1,5.7-3.1c4.8,0,6.2,2.7,6.2,6.6v11.9h-3v-12.2c0-2.2-1.4-3.6-3.7-3.6
			c-3.6,0-5.4,2.4-5.4,5.7v10.2h-3V789.4z"/>
		<path class="st3" d="M1179.5,814.4c-0.5,0.3-1.3,0.5-2.1,0.5c-1.5,0-2.5-0.8-2.5-2.8c-1.6,2-3.9,2.8-6.4,2.8c-3.3,0-6-1.4-6-5.1
			c0-4.1,3-5,6.1-5.6c3.3-0.7,6.1-0.4,6.1-2.7c0-2.6-2.2-3-4-3c-2.5,0-4.4,0.8-4.5,3.4h-3c0.2-4.5,3.6-6.1,7.7-6.1
			c3.3,0,6.8,0.7,6.8,5v9.3c0,1.4,0,2,0.9,2c0.3,0,0.6-0.1,0.9-0.2V814.4z M1174.7,805.1c-2.3,1.7-9,0-9,4.5c0,2,1.7,2.7,3.5,2.7
			c3.9,0,5.5-2.4,5.5-4.1V805.1z"/>
		<path class="st3" d="M1182.3,796.3h2.8v2.9h0.1c1.3-2.2,3.3-3.3,5.9-3.3c4.8,0,6.2,2.7,6.2,6.6v11.9h-3v-12.2
			c0-2.2-1.4-3.6-3.7-3.6c-3.6,0-5.4,2.4-5.4,5.7v10.2h-3V796.3z"/>
		<path class="st3" d="M1217.4,812.9c0,5.9-2.7,8.9-8.4,8.9c-3.4,0-7.3-1.4-7.5-5.3h3c0.1,2.1,2.8,2.9,4.7,2.9
			c3.9,0,5.4-2.8,5.4-6.9v-1.2h-0.1c-1,2.2-3.3,3.3-5.6,3.3c-5.4,0-8.1-4.2-8.1-9.2c0-4.3,2.1-9.6,8.4-9.6c2.3,0,4.3,1,5.4,3h0v-2.6
			h2.8V812.9z M1214.4,805c0-3.2-1.4-6.5-5.1-6.5c-3.8,0-5.4,3.1-5.4,6.6c0,3.3,1.2,6.9,5.1,6.9C1213,812,1214.4,808.4,1214.4,805z"
			/>
		<path class="st3" d="M1237.3,808.7c-0.8,4-3.6,6.2-7.7,6.2c-5.8,0-8.5-4-8.7-9.5c0-5.5,3.6-9.4,8.5-9.4c6.4,0,8.4,6,8.2,10.4H1224
			c-0.1,3.2,1.7,6,5.6,6c2.5,0,4.2-1.2,4.7-3.5H1237.3z M1234.4,803.7c-0.2-2.8-2.2-5.1-5.2-5.1c-3.1,0-5,2.3-5.2,5.1H1234.4z"/>
		<path class="st3" d="M1268.3,814.4h-3.2l-3.7-14.4h-0.1l-3.6,14.4h-3.2l-5.8-18.1h3.3l4.1,14.8h0.1l3.6-14.8h3.3l3.8,14.8h0.1
			l4.1-14.8h3.1L1268.3,814.4z"/>
		<path class="st3" d="M1276.9,789.4h3v9.6h0.1c0.9-2.2,3.6-3.1,5.7-3.1c4.8,0,6.2,2.7,6.2,6.6v11.9h-3v-12.2c0-2.2-1.4-3.6-3.7-3.6
			c-3.6,0-5.4,2.4-5.4,5.7v10.2h-3V789.4z"/>
		<path class="st3" d="M1299.5,793.1h-3v-3.6h3V793.1z M1296.5,796.3h3v18.1h-3V796.3z"/>
		<path class="st3" d="M1316.4,802.1c-0.5-2.3-2-3.6-4.5-3.6c-4.3,0-5.6,3.4-5.6,7.1c0,3.4,1.5,6.6,5.3,6.6c2.9,0,4.6-1.6,5-4.4h3
			c-0.7,4.4-3.4,7-8,7c-5.5,0-8.5-3.8-8.5-9.2s2.8-9.7,8.5-9.7c4.1,0,7.4,1.9,7.8,6.2H1316.4z"/>
		<path class="st3" d="M1322.9,789.4h3v9.6h0.1c0.9-2.2,3.6-3.1,5.7-3.1c4.8,0,6.2,2.7,6.2,6.6v11.9h-3v-12.2c0-2.2-1.4-3.6-3.7-3.6
			c-3.6,0-5.4,2.4-5.4,5.7v10.2h-3V789.4z"/>
		<path class="st3" d="M1368.2,814.4c-0.5,0.3-1.3,0.5-2.1,0.5c-1.5,0-2.5-0.8-2.5-2.8c-1.6,2-3.9,2.8-6.4,2.8c-3.3,0-6-1.4-6-5.1
			c0-4.1,3-5,6.1-5.6c3.3-0.7,6.1-0.4,6.1-2.7c0-2.6-2.2-3-4-3c-2.5,0-4.4,0.8-4.5,3.4h-3c0.2-4.5,3.6-6.1,7.7-6.1
			c3.3,0,6.8,0.7,6.8,5v9.3c0,1.4,0,2,0.9,2c0.3,0,0.6-0.1,0.9-0.2V814.4z M1363.3,805.1c-2.3,1.7-9,0-9,4.5c0,2,1.7,2.7,3.5,2.7
			c3.9,0,5.5-2.4,5.5-4.1V805.1z"/>
		<path class="st3" d="M1387.1,814.4h-3V812h-0.1c-1,2-3.3,2.9-5.8,2.9c-5.6,0-8.3-4.4-8.3-9.5c0-5.1,2.7-9.4,8.3-9.4
			c1.8,0,4.6,0.7,5.8,2.8h0.1v-9.3h3V814.4z M1378.7,812.2c4,0,5.5-3.5,5.5-6.8c0-3.5-1.6-6.9-5.7-6.9c-4.1,0-5.4,3.5-5.4,7
			C1373.1,808.9,1374.8,812.2,1378.7,812.2z"/>
		<path class="st3" d="M1407.9,814.4h-3V812h-0.1c-1,2-3.3,2.9-5.8,2.9c-5.6,0-8.3-4.4-8.3-9.5c0-5.1,2.7-9.4,8.3-9.4
			c1.8,0,4.5,0.7,5.8,2.8h0.1v-9.3h3V814.4z M1399.4,812.2c4,0,5.5-3.5,5.5-6.8c0-3.5-1.6-6.9-5.7-6.9c-4.1,0-5.4,3.5-5.4,7
			C1393.8,808.9,1395.6,812.2,1399.4,812.2z"/>
		<path class="st3" d="M1414.3,808.7c0.1,2.7,2.5,3.5,4.9,3.5c1.9,0,4.4-0.4,4.4-2.7c0-4.7-11.8-1.5-11.8-8.5c0-3.6,3.6-5.1,6.8-5.1
			c4.1,0,7.1,1.3,7.4,5.7h-3c-0.2-2.3-2.3-3-4.2-3c-1.8,0-3.9,0.5-3.9,2.3c0,2.1,3.2,2.5,5.9,3.2c3,0.7,5.9,1.7,5.9,5.1
			c0,4.3-4,5.7-7.7,5.7c-4.1,0-7.5-1.6-7.7-6.1H1414.3z"/>
		<path class="st3" d="M1447.5,795.9c5.7,0,8.8,4.2,8.8,9.5c0,5.3-3,9.5-8.8,9.5c-5.7,0-8.8-4.2-8.8-9.5
			C1438.7,800.1,1441.7,795.9,1447.5,795.9z M1447.5,812.2c3.1,0,5.6-2.4,5.6-6.8c0-4.4-2.5-6.9-5.6-6.9s-5.6,2.5-5.6,6.9
			C1441.8,809.8,1444.4,812.2,1447.5,812.2z"/>
		<path class="st3" d="M1459.6,796.3h2.8v3.8h0.1c1.4-2.9,3.4-4.3,6.7-4.2v3.2c-4.8,0-6.5,2.7-6.5,7.3v8.1h-3V796.3z"/>
		<path class="st3" d="M1481.1,796.3h2.8v2.7h0.1c1.4-2.1,3.3-3.1,5.8-3.1c2.2,0,4.2,0.8,5,3.1c1.2-2,3.3-3.1,5.7-3.1
			c3.6,0,6,1.5,6,5.2v13.3h-3v-11.9c0-2.2-0.6-4-3.5-4s-4.7,1.8-4.7,4.6v11.3h-3v-11.9c0-2.3-0.7-4-3.4-4c-3.5,0-4.8,3.2-4.8,4.6
			v11.3h-3V796.3z"/>
		<path class="st3" d="M1518.8,795.9c5.7,0,8.8,4.2,8.8,9.5c0,5.3-3,9.5-8.8,9.5c-5.7,0-8.8-4.2-8.8-9.5
			C1510,800.1,1513.1,795.9,1518.8,795.9z M1518.8,812.2c3.1,0,5.6-2.4,5.6-6.8c0-4.4-2.5-6.9-5.6-6.9s-5.6,2.5-5.6,6.9
			C1513.2,809.8,1515.7,812.2,1518.8,812.2z"/>
		<path class="st3" d="M1547.3,814.4h-3V812h-0.1c-1,2-3.3,2.9-5.8,2.9c-5.6,0-8.3-4.4-8.3-9.5c0-5.1,2.7-9.4,8.3-9.4
			c1.8,0,4.5,0.7,5.8,2.8h0.1v-9.3h3V814.4z M1538.9,812.2c4,0,5.5-3.5,5.5-6.8c0-3.5-1.6-6.9-5.7-6.9c-4.1,0-5.4,3.5-5.4,7
			C1533.3,808.9,1535,812.2,1538.9,812.2z"/>
		<path class="st3" d="M1555,793.1h-3v-3.6h3V793.1z M1552,796.3h3v18.1h-3V796.3z"/>
		<path class="st3" d="M1560.8,799h-3v-2.6h3v-2.7c0-2.9,1.8-4.5,5-4.5c0.6,0,1.4,0.1,1.9,0.3v2.6c-0.5-0.2-1.2-0.2-1.7-0.2
			c-1.4,0-2.3,0.5-2.3,2v2.5h3.5v2.6h-3.5v15.5h-3V799z M1570.1,793.1v-3.6h3v3.6H1570.1z M1570.1,814.4v-18.1h3v18.1H1570.1z"/>
		<path class="st3" d="M1593.2,808.7c-0.8,4-3.6,6.2-7.7,6.2c-5.8,0-8.5-4-8.7-9.5c0-5.5,3.6-9.4,8.5-9.4c6.4,0,8.4,6,8.2,10.4
			h-13.5c-0.1,3.2,1.7,6,5.6,6c2.5,0,4.2-1.2,4.7-3.5H1593.2z M1590.3,803.7c-0.2-2.8-2.2-5.1-5.2-5.1c-3.1,0-5,2.3-5.2,5.1H1590.3z
			"/>
		<path class="st3" d="M1598.4,808.7c0.1,2.7,2.5,3.5,4.9,3.5c1.9,0,4.4-0.4,4.4-2.7c0-4.7-11.8-1.5-11.8-8.5c0-3.6,3.6-5.1,6.8-5.1
			c4.1,0,7.1,1.3,7.4,5.7h-3c-0.2-2.3-2.3-3-4.2-3c-1.8,0-3.9,0.5-3.9,2.3c0,2.1,3.2,2.5,5.9,3.2c3,0.7,5.9,1.7,5.9,5.1
			c0,4.3-4,5.7-7.7,5.7c-4.1,0-7.5-1.6-7.7-6.1H1598.4z"/>
		<path class="st3" d="M1639.8,814.4c-0.5,0.3-1.3,0.5-2.1,0.5c-1.5,0-2.5-0.8-2.5-2.8c-1.6,2-3.9,2.8-6.4,2.8c-3.3,0-6-1.4-6-5.1
			c0-4.1,3-5,6.1-5.6c3.3-0.7,6.1-0.4,6.1-2.7c0-2.6-2.2-3-4-3c-2.5,0-4.4,0.8-4.5,3.4h-3c0.2-4.5,3.6-6.1,7.7-6.1
			c3.3,0,6.8,0.7,6.8,5v9.3c0,1.4,0,2,0.9,2c0.3,0,0.6-0.1,0.9-0.2V814.4z M1635,805.1c-2.3,1.7-9,0-9,4.5c0,2,1.7,2.7,3.5,2.7
			c3.9,0,5.5-2.4,5.5-4.1V805.1z"/>
		<path class="st3" d="M1642.6,796.3h2.8v2.9h0.1c1.3-2.2,3.3-3.3,5.9-3.3c4.8,0,6.2,2.7,6.2,6.6v11.9h-3v-12.2
			c0-2.2-1.4-3.6-3.7-3.6c-3.6,0-5.4,2.4-5.4,5.7v10.2h-3V796.3z"/>
		<path class="st3" d="M1682.8,788.8c7.9,0,12,6.3,12,13.1s-4,13.1-12,13.1c-7.9,0-12-6.3-12-13.1S1674.9,788.8,1682.8,788.8z
			 M1682.8,812.2c6.1,0,8.6-5.2,8.6-10.3s-2.6-10.3-8.6-10.3c-6.1,0-8.6,5.2-8.6,10.3S1676.7,812.2,1682.8,812.2z"/>
		<path class="st3" d="M1699.6,799h-3v-2.6h3v-2.7c0-2.9,1.8-4.5,5-4.5c0.6,0,1.4,0.1,1.9,0.3v2.6c-0.5-0.2-1.2-0.2-1.7-0.2
			c-1.4,0-2.3,0.5-2.3,2v2.5h3.5v2.6h-3.5v15.5h-3V799z"/>
		<path class="st3" d="M1709.9,799h-3v-2.6h3v-2.7c0-2.9,1.8-4.5,5-4.5c0.6,0,1.4,0.1,1.9,0.3v2.6c-0.5-0.2-1.2-0.2-1.7-0.2
			c-1.4,0-2.3,0.5-2.3,2v2.5h3.5v2.6h-3.5v15.5h-3V799z"/>
		<path class="st3" d="M1734.5,808.7c-0.8,4-3.6,6.2-7.7,6.2c-5.8,0-8.5-4-8.7-9.5c0-5.5,3.6-9.4,8.5-9.4c6.4,0,8.4,6,8.2,10.4
			h-13.5c-0.1,3.2,1.7,6,5.6,6c2.5,0,4.2-1.2,4.7-3.5H1734.5z M1731.6,803.7c-0.2-2.8-2.2-5.1-5.2-5.1c-3.1,0-5,2.3-5.2,5.1H1731.6z
			"/>
		<path class="st3" d="M1737.8,796.3h2.8v3.8h0.1c1.4-2.9,3.4-4.3,6.7-4.2v3.2c-4.8,0-6.5,2.7-6.5,7.3v8.1h-3V796.3z"/>
		<path class="st3" d="M1752.7,793.1h-3v-3.6h3V793.1z M1749.7,796.3h3v18.1h-3V796.3z"/>
		<path class="st3" d="M1757.3,796.3h2.8v2.9h0.1c1.3-2.2,3.3-3.3,5.9-3.3c4.8,0,6.2,2.7,6.2,6.6v11.9h-3v-12.2
			c0-2.2-1.4-3.6-3.7-3.6c-3.6,0-5.4,2.4-5.4,5.7v10.2h-3V796.3z"/>
		<path class="st3" d="M1792.4,812.9c0,5.9-2.7,8.9-8.4,8.9c-3.4,0-7.3-1.4-7.5-5.3h3c0.1,2.1,2.8,2.9,4.7,2.9
			c3.9,0,5.4-2.8,5.4-6.9v-1.2h-0.1c-1,2.2-3.3,3.3-5.6,3.3c-5.4,0-8.1-4.2-8.1-9.2c0-4.3,2.1-9.6,8.4-9.6c2.3,0,4.3,1,5.4,3h0v-2.6
			h2.8V812.9z M1789.4,805c0-3.2-1.4-6.5-5.1-6.5c-3.8,0-5.4,3.1-5.4,6.6c0,3.3,1.2,6.9,5.1,6.9C1787.9,812,1789.4,808.4,1789.4,805
			z"/>
		<path class="st3" d="M1797.5,789.4h3.9v3.9c0,2.8-1.2,5.1-3.9,5.1v-1.8c1.6,0,2-1.8,2-3.4h-2.1V789.4z"/>
		<path class="st3" d="M1808.4,808.7c0.1,2.7,2.5,3.5,4.9,3.5c1.9,0,4.4-0.4,4.4-2.7c0-4.7-11.8-1.5-11.8-8.5c0-3.6,3.6-5.1,6.8-5.1
			c4.1,0,7.1,1.3,7.4,5.7h-3c-0.2-2.3-2.3-3-4.2-3c-1.8,0-3.9,0.5-3.9,2.3c0,2.1,3.2,2.5,5.9,3.2c3,0.7,5.9,1.7,5.9,5.1
			c0,4.3-4,5.7-7.7,5.7c-4.1,0-7.5-1.6-7.7-6.1H1808.4z"/>
		<path class="st3" d="M1057.1,843h-3v-2.6h3v-2.7c0-2.9,1.8-4.5,5-4.5c0.6,0,1.4,0.1,1.9,0.3v2.6c-0.5-0.2-1.2-0.2-1.7-0.2
			c-1.4,0-2.3,0.5-2.3,2v2.5h3.5v2.6h-3.5v15.5h-3V843z"/>
		<path class="st3" d="M1081.2,858.4h-2.8v-2.9h-0.1c-1.3,2.2-3.3,3.3-5.9,3.3c-4.8,0-6.2-2.7-6.2-6.6v-11.9h3v12.2
			c0,2.2,1.4,3.6,3.7,3.6c3.6,0,5.4-2.4,5.4-5.7v-10.2h3V858.4z"/>
		<path class="st3" d="M1085.7,840.3h2.8v2.9h0.1c1.3-2.2,3.3-3.3,5.9-3.3c4.8,0,6.2,2.7,6.2,6.6v11.9h-3v-12.2
			c0-2.2-1.4-3.6-3.7-3.6c-3.6,0-5.4,2.4-5.4,5.7v10.2h-3V840.3z"/>
		<path class="st3" d="M1117.5,846.1c-0.5-2.3-2-3.6-4.5-3.6c-4.3,0-5.6,3.4-5.6,7.1c0,3.4,1.5,6.6,5.3,6.6c2.9,0,4.6-1.6,5-4.4h3
			c-0.7,4.4-3.4,7-8,7c-5.5,0-8.5-3.8-8.5-9.2s2.8-9.7,8.5-9.7c4.1,0,7.4,1.9,7.8,6.2H1117.5z"/>
		<path class="st3" d="M1128.1,840.3h3.6v2.6h-3.6v11.2c0,1.4,0.4,1.6,2.2,1.6h1.4v2.6h-2.3c-3.1,0-4.3-0.6-4.3-4V843h-3.1v-2.6h3.1
			v-5.4h3V840.3z"/>
		<path class="st3" d="M1138.1,837.1h-3v-3.6h3V837.1z M1135.2,840.3h3v18.1h-3V840.3z"/>
		<path class="st3" d="M1150.6,839.9c5.7,0,8.8,4.2,8.8,9.5c0,5.3-3,9.5-8.8,9.5c-5.7,0-8.8-4.2-8.8-9.5
			C1141.8,844.1,1144.8,839.9,1150.6,839.9z M1150.6,856.2c3.1,0,5.6-2.4,5.6-6.8c0-4.4-2.5-6.9-5.6-6.9s-5.6,2.5-5.6,6.9
			C1144.9,853.8,1147.4,856.2,1150.6,856.2z"/>
		<path class="st3" d="M1162.8,840.3h2.8v2.9h0.1c1.3-2.2,3.3-3.3,5.9-3.3c4.8,0,6.2,2.7,6.2,6.6v11.9h-3v-12.2
			c0-2.2-1.4-3.6-3.7-3.6c-3.6,0-5.4,2.4-5.4,5.7v10.2h-3V840.3z"/>
		<path class="st3" d="M1198.3,858.4c-0.5,0.3-1.3,0.5-2.1,0.5c-1.5,0-2.5-0.8-2.5-2.8c-1.6,2-3.9,2.8-6.4,2.8c-3.3,0-6-1.4-6-5.1
			c0-4.1,3-5,6.1-5.6c3.3-0.7,6.1-0.4,6.1-2.7c0-2.6-2.2-3-4-3c-2.5,0-4.4,0.8-4.5,3.4h-3c0.2-4.5,3.6-6.1,7.7-6.1
			c3.3,0,6.8,0.7,6.8,5v9.3c0,1.4,0,2,0.9,2c0.3,0,0.6-0.1,0.9-0.2V858.4z M1193.5,849.1c-2.3,1.7-9,0-9,4.5c0,2,1.7,2.7,3.5,2.7
			c3.9,0,5.5-2.4,5.5-4.1V849.1z"/>
		<path class="st3" d="M1201.3,833.4h3v25h-3V833.4z"/>
		<path class="st3" d="M1212,837.1h-3v-3.6h3V837.1z M1209,840.3h3v18.1h-3V840.3z"/>
		<path class="st3" d="M1220.8,840.3h3.6v2.6h-3.6v11.2c0,1.4,0.4,1.6,2.2,1.6h1.4v2.6h-2.3c-3.1,0-4.3-0.6-4.3-4V843h-3.1v-2.6h3.1
			v-5.4h3V840.3z"/>
		<path class="st3" d="M1234.8,860.8c-1.4,3.5-2.6,4.8-5.2,4.8c-0.7,0-1.4-0.1-2.1-0.3v-2.7c0.6,0.2,1.2,0.4,1.8,0.4
			c1.2,0,1.9-0.6,2.5-1.6l1.2-3.1l-7.2-18h3.4l5.3,14.8h0.1l5.1-14.8h3.2L1234.8,860.8z"/>
		<path class="st3" d="M1258,837.1h-3v-3.6h3V837.1z M1255.1,840.3h3v18.1h-3V840.3z"/>
		<path class="st3" d="M1264.5,852.7c0.1,2.7,2.5,3.5,4.9,3.5c1.9,0,4.4-0.4,4.4-2.7c0-4.7-11.8-1.5-11.8-8.5c0-3.6,3.6-5.1,6.8-5.1
			c4.1,0,7.1,1.3,7.4,5.7h-3c-0.2-2.3-2.3-3-4.2-3c-1.8,0-3.9,0.5-3.9,2.3c0,2.1,3.2,2.5,5.9,3.2c3,0.7,5.9,1.7,5.9,5.1
			c0,4.3-4,5.7-7.7,5.7c-4.1,0-7.5-1.6-7.7-6.1H1264.5z"/>
		<path class="st3" d="M1289.9,840.3h2.8v2.9h0.1c1.3-2.2,3.3-3.3,5.9-3.3c4.8,0,6.2,2.7,6.2,6.6v11.9h-3v-12.2
			c0-2.2-1.4-3.6-3.7-3.6c-3.6,0-5.4,2.4-5.4,5.7v10.2h-3V840.3z"/>
		<path class="st3" d="M1317.2,839.9c5.7,0,8.8,4.2,8.8,9.5c0,5.3-3,9.5-8.8,9.5c-5.7,0-8.8-4.2-8.8-9.5
			C1308.4,844.1,1311.4,839.9,1317.2,839.9z M1317.2,856.2c3.1,0,5.6-2.4,5.6-6.8c0-4.4-2.5-6.9-5.6-6.9s-5.6,2.5-5.6,6.9
			C1311.5,853.8,1314,856.2,1317.2,856.2z"/>
		<path class="st3" d="M1333.6,840.3h3.6v2.6h-3.6v11.2c0,1.4,0.4,1.6,2.2,1.6h1.4v2.6h-2.3c-3.1,0-4.3-0.6-4.3-4V843h-3.1v-2.6h3.1
			v-5.4h3V840.3z"/>
		<path class="st3" d="M1353.4,837.1h-3v-3.6h3V837.1z M1350.4,840.3h3v18.1h-3V840.3z"/>
		<path class="st3" d="M1358,840.3h2.8v2.9h0.1c1.3-2.2,3.3-3.3,5.9-3.3c4.8,0,6.2,2.7,6.2,6.6v11.9h-3v-12.2c0-2.2-1.4-3.6-3.7-3.6
			c-3.6,0-5.4,2.4-5.4,5.7v10.2h-3V840.3z"/>
		<path class="st3" d="M1391.3,840.3h3.6v2.6h-3.6v11.2c0,1.4,0.4,1.6,2.2,1.6h1.4v2.6h-2.3c-3.1,0-4.3-0.6-4.3-4V843h-3.1v-2.6h3.1
			v-5.4h3V840.3z"/>
		<path class="st3" d="M1398.2,833.4h3v9.6h0.1c0.9-2.2,3.6-3.1,5.7-3.1c4.8,0,6.2,2.7,6.2,6.6v11.9h-3v-12.2c0-2.2-1.4-3.6-3.7-3.6
			c-3.6,0-5.4,2.4-5.4,5.7v10.2h-3V833.4z"/>
		<path class="st3" d="M1433.1,852.7c-0.8,4-3.6,6.2-7.7,6.2c-5.8,0-8.5-4-8.7-9.5c0-5.5,3.6-9.4,8.5-9.4c6.4,0,8.4,6,8.2,10.4
			h-13.5c-0.1,3.2,1.7,6,5.6,6c2.5,0,4.2-1.2,4.7-3.5H1433.1z M1430.2,847.7c-0.2-2.8-2.2-5.1-5.2-5.1c-3.1,0-5,2.3-5.2,5.1H1430.2z
			"/>
		<path class="st3" d="M1448,852.7c0.1,2.7,2.5,3.5,4.9,3.5c1.9,0,4.4-0.4,4.4-2.7c0-4.7-11.8-1.5-11.8-8.5c0-3.6,3.6-5.1,6.8-5.1
			c4.1,0,7.1,1.3,7.4,5.7h-3c-0.2-2.3-2.3-3-4.2-3c-1.8,0-3.9,0.5-3.9,2.3c0,2.1,3.2,2.5,5.9,3.2c3,0.7,5.9,1.7,5.9,5.1
			c0,4.3-4,5.7-7.7,5.7c-4.1,0-7.5-1.6-7.7-6.1H1448z"/>
		<path class="st3" d="M1476,846.1c-0.5-2.3-2-3.6-4.5-3.6c-4.3,0-5.6,3.4-5.6,7.1c0,3.4,1.5,6.6,5.3,6.6c2.9,0,4.6-1.6,5-4.4h3
			c-0.7,4.4-3.4,7-8,7c-5.5,0-8.5-3.8-8.5-9.2s2.8-9.7,8.5-9.7c4.1,0,7.4,1.9,7.8,6.2H1476z"/>
		<path class="st3" d="M1490.3,839.9c5.7,0,8.8,4.2,8.8,9.5c0,5.3-3,9.5-8.8,9.5c-5.7,0-8.8-4.2-8.8-9.5
			C1481.5,844.1,1484.5,839.9,1490.3,839.9z M1490.3,856.2c3.1,0,5.6-2.4,5.6-6.8c0-4.4-2.5-6.9-5.6-6.9s-5.6,2.5-5.6,6.9
			C1484.6,853.8,1487.2,856.2,1490.3,856.2z"/>
		<path class="st3" d="M1502.7,840.3h3v2.4h0.1c1-2,3.3-2.9,5.8-2.9c5.6,0,8.3,4.4,8.3,9.5c0,5.1-2.7,9.4-8.3,9.4
			c-1.8,0-4.6-0.7-5.8-2.8h-0.1v9.3h-3V840.3z M1511.1,842.5c-4,0-5.5,3.5-5.5,6.8c0,3.5,1.6,6.9,5.7,6.9c4.1,0,5.4-3.5,5.4-7
			C1516.7,845.8,1514.9,842.5,1511.1,842.5z"/>
		<path class="st3" d="M1538.7,852.7c-0.8,4-3.6,6.2-7.7,6.2c-5.8,0-8.5-4-8.7-9.5c0-5.5,3.6-9.4,8.5-9.4c6.4,0,8.4,6,8.2,10.4
			h-13.5c-0.1,3.2,1.7,6,5.6,6c2.5,0,4.2-1.2,4.7-3.5H1538.7z M1535.9,847.7c-0.2-2.8-2.2-5.1-5.2-5.1c-3.1,0-5,2.3-5.2,5.1H1535.9z
			"/>
		<path class="st3" d="M1559.6,839.9c5.7,0,8.8,4.2,8.8,9.5c0,5.3-3,9.5-8.8,9.5c-5.7,0-8.8-4.2-8.8-9.5
			C1550.9,844.1,1553.9,839.9,1559.6,839.9z M1559.6,856.2c3.1,0,5.6-2.4,5.6-6.8c0-4.4-2.5-6.9-5.6-6.9s-5.6,2.5-5.6,6.9
			C1554,853.8,1556.5,856.2,1559.6,856.2z"/>
		<path class="st3" d="M1573.2,843h-3v-2.6h3v-2.7c0-2.9,1.8-4.5,5-4.5c0.6,0,1.4,0.1,1.9,0.3v2.6c-0.5-0.2-1.2-0.2-1.7-0.2
			c-1.4,0-2.3,0.5-2.3,2v2.5h3.5v2.6h-3.5v15.5h-3V843z"/>
		<path class="st3" d="M1596.1,840.3h3.6v2.6h-3.6v11.2c0,1.4,0.4,1.6,2.2,1.6h1.4v2.6h-2.3c-3.1,0-4.3-0.6-4.3-4V843h-3.1v-2.6h3.1
			v-5.4h3V840.3z"/>
		<path class="st3" d="M1603,833.4h3v9.6h0.1c0.9-2.2,3.6-3.1,5.7-3.1c4.8,0,6.2,2.7,6.2,6.6v11.9h-3v-12.2c0-2.2-1.4-3.6-3.7-3.6
			c-3.6,0-5.4,2.4-5.4,5.7v10.2h-3V833.4z"/>
		<path class="st3" d="M1625.6,837.1h-3v-3.6h3V837.1z M1622.7,840.3h3v18.1h-3V840.3z"/>
		<path class="st3" d="M1632.1,852.7c0.1,2.7,2.5,3.5,4.9,3.5c1.9,0,4.4-0.4,4.4-2.7c0-4.7-11.8-1.5-11.8-8.5c0-3.6,3.6-5.1,6.8-5.1
			c4.1,0,7.1,1.3,7.4,5.7h-3c-0.2-2.3-2.3-3-4.2-3c-1.8,0-3.9,0.5-3.9,2.3c0,2.1,3.2,2.5,5.9,3.2c3,0.7,5.9,1.7,5.9,5.1
			c0,4.3-4,5.7-7.7,5.7c-4.1,0-7.5-1.6-7.7-6.1H1632.1z"/>
		<path class="st3" d="M1657.6,840.3h3v2.4h0.1c1-2,3.3-2.9,5.8-2.9c5.6,0,8.3,4.4,8.3,9.5c0,5.1-2.7,9.4-8.3,9.4
			c-1.8,0-4.6-0.7-5.8-2.8h-0.1v9.3h-3V840.3z M1666,842.5c-4,0-5.5,3.5-5.5,6.8c0,3.5,1.6,6.9,5.7,6.9c4.1,0,5.4-3.5,5.4-7
			C1671.6,845.8,1669.9,842.5,1666,842.5z"/>
		<path class="st3" d="M1678.1,840.3h2.8v3.8h0.1c1.4-2.9,3.4-4.3,6.7-4.2v3.2c-4.8,0-6.5,2.7-6.5,7.3v8.1h-3V840.3z"/>
		<path class="st3" d="M1697.7,839.9c5.7,0,8.8,4.2,8.8,9.5c0,5.3-3,9.5-8.8,9.5c-5.7,0-8.8-4.2-8.8-9.5
			C1688.9,844.1,1692,839.9,1697.7,839.9z M1697.7,856.2c3.1,0,5.6-2.4,5.6-6.8c0-4.4-2.5-6.9-5.6-6.9s-5.6,2.5-5.6,6.9
			C1692.1,853.8,1694.6,856.2,1697.7,856.2z"/>
		<path class="st3" d="M1722.3,846.1c-0.5-2.3-2-3.6-4.5-3.6c-4.3,0-5.6,3.4-5.6,7.1c0,3.4,1.5,6.6,5.3,6.6c2.9,0,4.6-1.6,5-4.4h3
			c-0.7,4.4-3.4,7-8,7c-5.5,0-8.5-3.8-8.5-9.2s2.8-9.7,8.5-9.7c4.1,0,7.4,1.9,7.8,6.2H1722.3z"/>
		<path class="st3" d="M1744.2,852.7c-0.8,4-3.6,6.2-7.7,6.2c-5.8,0-8.5-4-8.7-9.5c0-5.5,3.6-9.4,8.5-9.4c6.4,0,8.4,6,8.2,10.4H1731
			c-0.1,3.2,1.7,6,5.6,6c2.5,0,4.2-1.2,4.7-3.5H1744.2z M1741.4,847.7c-0.2-2.8-2.2-5.1-5.2-5.1c-3.1,0-5,2.3-5.2,5.1H1741.4z"/>
		<path class="st3" d="M1763.8,858.4h-3V856h-0.1c-1,2-3.3,2.9-5.8,2.9c-5.6,0-8.3-4.4-8.3-9.5c0-5.1,2.7-9.4,8.3-9.4
			c1.8,0,4.6,0.7,5.8,2.8h0.1v-9.3h3V858.4z M1755.4,856.2c4,0,5.5-3.5,5.5-6.8c0-3.5-1.6-6.9-5.7-6.9c-4.1,0-5.4,3.5-5.4,7
			C1749.8,852.9,1751.5,856.2,1755.4,856.2z"/>
		<path class="st3" d="M1783.3,858.4h-2.8v-2.9h-0.1c-1.3,2.2-3.3,3.3-5.9,3.3c-4.8,0-6.2-2.7-6.2-6.6v-11.9h3v12.2
			c0,2.2,1.4,3.6,3.7,3.6c3.6,0,5.4-2.4,5.4-5.7v-10.2h3V858.4z"/>
		<path class="st3" d="M1787.7,840.3h2.8v3.8h0.1c1.4-2.9,3.4-4.3,6.7-4.2v3.2c-4.8,0-6.5,2.7-6.5,7.3v8.1h-3V840.3z"/>
		<path class="st3" d="M1814.9,852.7c-0.8,4-3.6,6.2-7.7,6.2c-5.8,0-8.5-4-8.7-9.5c0-5.5,3.6-9.4,8.5-9.4c6.4,0,8.4,6,8.2,10.4
			h-13.5c-0.1,3.2,1.7,6,5.6,6c2.5,0,4.2-1.2,4.7-3.5H1814.9z M1812,847.7c-0.2-2.8-2.2-5.1-5.2-5.1c-3.1,0-5,2.3-5.2,5.1H1812z"/>
		<path class="st3" d="M1818.9,854.5h3.9v3.9h-3.9V854.5z"/>
		<path class="st3" d="M1843.9,836.2h-8.3v-2.8h20v2.8h-8.3v22.2h-3.3V836.2z"/>
		<path class="st3" d="M1857.8,833.4h3v9.6h0.1c0.9-2.2,3.6-3.1,5.7-3.1c4.8,0,6.2,2.7,6.2,6.6v11.9h-3v-12.2c0-2.2-1.4-3.6-3.7-3.6
			c-3.6,0-5.4,2.4-5.4,5.7v10.2h-3V833.4z"/>
		<path class="st3" d="M1880.4,837.1h-3v-3.6h3V837.1z M1877.4,840.3h3v18.1h-3V840.3z"/>
		<path class="st3" d="M1886.9,852.7c0.1,2.7,2.5,3.5,4.9,3.5c1.9,0,4.4-0.4,4.4-2.7c0-4.7-11.8-1.5-11.8-8.5c0-3.6,3.6-5.1,6.8-5.1
			c4.1,0,7.1,1.3,7.4,5.7h-3c-0.2-2.3-2.3-3-4.2-3c-1.8,0-3.9,0.5-3.9,2.3c0,2.1,3.2,2.5,5.9,3.2c3,0.7,5.9,1.7,5.9,5.1
			c0,4.3-4,5.7-7.7,5.7c-4.1,0-7.5-1.6-7.7-6.1H1886.9z"/>
		<path class="st3" d="M1916.4,840.3h3.6v2.6h-3.6v11.2c0,1.4,0.4,1.6,2.2,1.6h1.4v2.6h-2.3c-3.1,0-4.3-0.6-4.3-4V843h-3.1v-2.6h3.1
			v-5.4h3V840.3z"/>
		<path class="st3" d="M1930.4,860.8c-1.4,3.5-2.6,4.8-5.2,4.8c-0.7,0-1.4-0.1-2.1-0.3v-2.7c0.6,0.2,1.2,0.4,1.8,0.4
			c1.2,0,1.9-0.6,2.5-1.6l1.2-3.1l-7.2-18h3.4l5.3,14.8h0.1l5.1-14.8h3.2L1930.4,860.8z"/>
		<path class="st3" d="M1940.9,840.3h3v2.4h0.1c1-2,3.3-2.9,5.8-2.9c5.6,0,8.3,4.4,8.3,9.5c0,5.1-2.7,9.4-8.3,9.4
			c-1.8,0-4.6-0.7-5.8-2.8h-0.1v9.3h-3V840.3z M1949.3,842.5c-4,0-5.5,3.5-5.5,6.8c0,3.5,1.6,6.9,5.7,6.9c4.1,0,5.4-3.5,5.4-7
			C1954.9,845.8,1953.1,842.5,1949.3,842.5z"/>
		<path class="st3" d="M1977,852.7c-0.8,4-3.6,6.2-7.7,6.2c-5.8,0-8.5-4-8.7-9.5c0-5.5,3.6-9.4,8.5-9.4c6.4,0,8.4,6,8.2,10.4h-13.5
			c-0.1,3.2,1.7,6,5.6,6c2.5,0,4.2-1.2,4.7-3.5H1977z M1974.1,847.7c-0.2-2.8-2.2-5.1-5.2-5.1c-3.1,0-5,2.3-5.2,5.1H1974.1z"/>
		<path class="st3" d="M1063.7,883.9c5.7,0,8.8,4.2,8.8,9.5c0,5.3-3,9.5-8.8,9.5c-5.7,0-8.8-4.2-8.8-9.5
			C1054.9,888.1,1058,883.9,1063.7,883.9z M1063.7,900.2c3.1,0,5.6-2.4,5.6-6.8c0-4.4-2.5-6.9-5.6-6.9s-5.6,2.5-5.6,6.9
			C1058.1,897.8,1060.6,900.2,1063.7,900.2z"/>
		<path class="st3" d="M1077.2,887h-3v-2.6h3v-2.7c0-2.9,1.8-4.5,5-4.5c0.6,0,1.4,0.1,1.9,0.3v2.6c-0.5-0.2-1.2-0.2-1.7-0.2
			c-1.4,0-2.3,0.5-2.3,2v2.5h3.5v2.6h-3.5v15.5h-3V887z"/>
		<path class="st3" d="M1108.4,890.1c-0.5-2.3-2-3.6-4.5-3.6c-4.3,0-5.6,3.4-5.6,7.1c0,3.4,1.5,6.6,5.3,6.6c2.9,0,4.6-1.6,5-4.4h3
			c-0.7,4.4-3.4,7-8,7c-5.5,0-8.5-3.8-8.5-9.2s2.8-9.7,8.5-9.7c4.1,0,7.4,1.9,7.8,6.2H1108.4z"/>
		<path class="st3" d="M1114.9,877.4h3v9.6h0.1c0.9-2.2,3.6-3.1,5.7-3.1c4.8,0,6.2,2.7,6.2,6.6v11.9h-3v-12.2c0-2.2-1.4-3.6-3.7-3.6
			c-3.6,0-5.4,2.4-5.4,5.7v10.2h-3V877.4z"/>
		<path class="st3" d="M1150.4,902.4c-0.5,0.3-1.3,0.5-2.1,0.5c-1.5,0-2.5-0.8-2.5-2.8c-1.6,2-3.9,2.8-6.4,2.8c-3.3,0-6-1.4-6-5.1
			c0-4.1,3-5,6.1-5.6c3.3-0.7,6.1-0.4,6.1-2.7c0-2.6-2.2-3-4-3c-2.5,0-4.4,0.8-4.5,3.4h-3c0.2-4.5,3.6-6.1,7.7-6.1
			c3.3,0,6.8,0.7,6.8,5v9.3c0,1.4,0,2,0.9,2c0.3,0,0.6-0.1,0.9-0.2V902.4z M1145.5,893.1c-2.3,1.7-9,0-9,4.5c0,2,1.7,2.7,3.5,2.7
			c3.9,0,5.5-2.4,5.5-4.1V893.1z"/>
		<path class="st3" d="M1153.1,884.3h2.8v2.9h0.1c1.3-2.2,3.3-3.3,5.9-3.3c4.8,0,6.2,2.7,6.2,6.6v11.9h-3v-12.2
			c0-2.2-1.4-3.6-3.7-3.6c-3.6,0-5.4,2.4-5.4,5.7v10.2h-3V884.3z"/>
		<path class="st3" d="M1188.2,900.9c0,5.9-2.7,8.9-8.4,8.9c-3.4,0-7.3-1.4-7.5-5.3h3c0.1,2.1,2.8,2.9,4.7,2.9
			c3.9,0,5.4-2.8,5.4-6.9v-1.2h-0.1c-1,2.2-3.3,3.3-5.6,3.3c-5.4,0-8.1-4.2-8.1-9.2c0-4.3,2.1-9.6,8.4-9.6c2.3,0,4.3,1,5.4,3h0v-2.6
			h2.8V900.9z M1185.2,893c0-3.2-1.4-6.5-5.1-6.5c-3.8,0-5.4,3.1-5.4,6.6c0,3.3,1.2,6.9,5.1,6.9C1183.8,900,1185.2,896.4,1185.2,893
			z"/>
		<path class="st3" d="M1208.1,896.7c-0.8,4-3.6,6.2-7.7,6.2c-5.8,0-8.5-4-8.7-9.5c0-5.5,3.6-9.4,8.5-9.4c6.4,0,8.4,6,8.2,10.4
			h-13.5c-0.1,3.2,1.7,6,5.6,6c2.5,0,4.2-1.2,4.7-3.5H1208.1z M1205.2,891.7c-0.2-2.8-2.2-5.1-5.2-5.1c-3.1,0-5,2.3-5.2,5.1H1205.2z
			"/>
		<path class="st3" d="M1221.2,884.3h2.8v2.7h0.1c1.4-2.1,3.3-3.1,5.8-3.1c2.2,0,4.2,0.8,5,3.1c1.2-2,3.3-3.1,5.7-3.1
			c3.6,0,6,1.5,6,5.2v13.3h-3v-11.9c0-2.2-0.6-4-3.5-4s-4.7,1.8-4.7,4.6v11.3h-3v-11.9c0-2.3-0.7-4-3.4-4c-3.5,0-4.8,3.2-4.8,4.6
			v11.3h-3V884.3z"/>
		<path class="st3" d="M1266,902.4h-2.8v-2.9h-0.1c-1.3,2.2-3.3,3.3-5.9,3.3c-4.8,0-6.2-2.7-6.2-6.6v-11.9h3v12.2
			c0,2.2,1.4,3.6,3.7,3.6c3.6,0,5.4-2.4,5.4-5.7v-10.2h3V902.4z"/>
		<path class="st3" d="M1272.3,896.7c0.1,2.7,2.5,3.5,4.9,3.5c1.9,0,4.4-0.4,4.4-2.7c0-4.7-11.8-1.5-11.8-8.5c0-3.6,3.6-5.1,6.8-5.1
			c4.1,0,7.1,1.3,7.4,5.7h-3c-0.2-2.3-2.3-3-4.2-3c-1.8,0-3.9,0.5-3.9,2.3c0,2.1,3.2,2.5,5.9,3.2c3,0.7,5.9,1.7,5.9,5.1
			c0,4.3-4,5.7-7.7,5.7c-4.1,0-7.5-1.6-7.7-6.1H1272.3z"/>
		<path class="st3" d="M1292.1,884.3h3.6v2.6h-3.6v11.2c0,1.4,0.4,1.6,2.2,1.6h1.4v2.6h-2.3c-3.1,0-4.3-0.6-4.3-4V887h-3.1v-2.6h3.1
			v-5.4h3V884.3z"/>
		<path class="st3" d="M1310,887h-3v-2.6h3v-2.7c0-2.9,1.8-4.5,5-4.5c0.6,0,1.4,0.1,1.9,0.3v2.6c-0.5-0.2-1.2-0.2-1.7-0.2
			c-1.4,0-2.3,0.5-2.3,2v2.5h3.5v2.6h-3.5v15.5h-3V887z"/>
		<path class="st3" d="M1326.9,883.9c5.7,0,8.8,4.2,8.8,9.5c0,5.3-3,9.5-8.8,9.5c-5.7,0-8.8-4.2-8.8-9.5
			C1318.1,888.1,1321.2,883.9,1326.9,883.9z M1326.9,900.2c3.1,0,5.6-2.4,5.6-6.8c0-4.4-2.5-6.9-5.6-6.9s-5.6,2.5-5.6,6.9
			C1321.3,897.8,1323.8,900.2,1326.9,900.2z"/>
		<path class="st3" d="M1339.4,877.4h3v25h-3V877.4z"/>
		<path class="st3" d="M1347.2,877.4h3v25h-3V877.4z"/>
		<path class="st3" d="M1362.6,883.9c5.7,0,8.8,4.2,8.8,9.5c0,5.3-3,9.5-8.8,9.5c-5.7,0-8.8-4.2-8.8-9.5
			C1353.8,888.1,1356.8,883.9,1362.6,883.9z M1362.6,900.2c3.1,0,5.6-2.4,5.6-6.8c0-4.4-2.5-6.9-5.6-6.9s-5.6,2.5-5.6,6.9
			C1356.9,897.8,1359.4,900.2,1362.6,900.2z"/>
		<path class="st3" d="M1392.8,902.4h-3.2l-3.7-14.4h-0.1l-3.6,14.4h-3.2l-5.8-18.1h3.3l4.1,14.8h0.1l3.6-14.8h3.3l3.8,14.8h0.1
			l4.1-14.8h3.1L1392.8,902.4z"/>
		<path class="st3" d="M1415.2,884.3h3.6v2.6h-3.6v11.2c0,1.4,0.4,1.6,2.2,1.6h1.4v2.6h-2.3c-3.1,0-4.3-0.6-4.3-4V887h-3.1v-2.6h3.1
			v-5.4h3V884.3z"/>
		<path class="st3" d="M1422.1,877.4h3v9.6h0.1c0.9-2.2,3.6-3.1,5.7-3.1c4.8,0,6.2,2.7,6.2,6.6v11.9h-3v-12.2c0-2.2-1.4-3.6-3.7-3.6
			c-3.6,0-5.4,2.4-5.4,5.7v10.2h-3V877.4z"/>
		<path class="st3" d="M1457,896.7c-0.8,4-3.6,6.2-7.7,6.2c-5.8,0-8.5-4-8.7-9.5c0-5.5,3.6-9.4,8.5-9.4c6.4,0,8.4,6,8.2,10.4h-13.5
			c-0.1,3.2,1.7,6,5.6,6c2.5,0,4.2-1.2,4.7-3.5H1457z M1454.2,891.7c-0.2-2.8-2.2-5.1-5.2-5.1c-3.1,0-5,2.3-5.2,5.1H1454.2z"/>
		<path class="st3" d="M1470.6,877.4h8.6c7.7,0,12,3.9,12,11.9c0,8.4-3.7,13.1-12,13.1h-8.6V877.4z M1473.9,899.6h5.5
			c2.3,0,8.4-0.6,8.4-9.8c0-5.9-2.2-9.6-8.3-9.6h-5.6V899.6z"/>
		<path class="st3" d="M1510.2,896.7c-0.8,4-3.6,6.2-7.7,6.2c-5.8,0-8.5-4-8.7-9.5c0-5.5,3.6-9.4,8.5-9.4c6.4,0,8.4,6,8.2,10.4
			h-13.5c-0.1,3.2,1.7,6,5.6,6c2.5,0,4.2-1.2,4.7-3.5H1510.2z M1507.3,891.7c-0.2-2.8-2.2-5.1-5.2-5.1c-3.1,0-5,2.3-5.2,5.1H1507.3z
			"/>
		<path class="st3" d="M1515.4,896.7c0.1,2.7,2.5,3.5,4.9,3.5c1.9,0,4.4-0.4,4.4-2.7c0-4.7-11.8-1.5-11.8-8.5c0-3.6,3.6-5.1,6.8-5.1
			c4.1,0,7.1,1.3,7.4,5.7h-3c-0.2-2.3-2.3-3-4.2-3c-1.8,0-3.9,0.5-3.9,2.3c0,2.1,3.2,2.5,5.9,3.2c3,0.7,5.9,1.7,5.9,5.1
			c0,4.3-4,5.7-7.7,5.7c-4.1,0-7.5-1.6-7.7-6.1H1515.4z"/>
		<path class="st3" d="M1534.2,881.1h-3v-3.6h3V881.1z M1531.2,884.3h3v18.1h-3V884.3z"/>
		<path class="st3" d="M1554.4,900.9c0,5.9-2.7,8.9-8.4,8.9c-3.4,0-7.3-1.4-7.5-5.3h3c0.1,2.1,2.8,2.9,4.7,2.9
			c3.9,0,5.4-2.8,5.4-6.9v-1.2h-0.1c-1,2.2-3.3,3.3-5.6,3.3c-5.4,0-8.1-4.2-8.1-9.2c0-4.3,2.1-9.6,8.4-9.6c2.3,0,4.3,1,5.4,3h0v-2.6
			h2.8V900.9z M1551.5,893c0-3.2-1.4-6.5-5.1-6.5c-3.8,0-5.4,3.1-5.4,6.6c0,3.3,1.2,6.9,5.1,6.9C1550,900,1551.5,896.4,1551.5,893z"
			/>
		<path class="st3" d="M1558.9,884.3h2.8v2.9h0.1c1.3-2.2,3.3-3.3,5.9-3.3c4.8,0,6.2,2.7,6.2,6.6v11.9h-3v-12.2
			c0-2.2-1.4-3.6-3.7-3.6c-3.6,0-5.4,2.4-5.4,5.7v10.2h-3V884.3z"/>
		<path class="st3" d="M1606.2,885c-0.7-3.5-3.5-5.3-7-5.3c-6,0-8.5,4.9-8.5,10.1c0,5.7,2.5,10.5,8.5,10.5c4.3,0,6.9-3.1,7.2-7.2
			h3.3c-0.7,6.3-4.5,10-10.8,10c-7.7,0-11.6-5.7-11.6-13s4.1-13.2,11.8-13.2c5.2,0,9.6,2.8,10.3,8.1H1606.2z"/>
		<path class="st3" d="M1613.4,877.4h3v9.6h0.1c0.9-2.2,3.6-3.1,5.7-3.1c4.8,0,6.2,2.7,6.2,6.6v11.9h-3v-12.2c0-2.2-1.4-3.6-3.7-3.6
			c-3.6,0-5.4,2.4-5.4,5.7v10.2h-3V877.4z"/>
		<path class="st3" d="M1648.9,902.4c-0.5,0.3-1.3,0.5-2.1,0.5c-1.5,0-2.5-0.8-2.5-2.8c-1.6,2-3.9,2.8-6.4,2.8c-3.3,0-6-1.4-6-5.1
			c0-4.1,3-5,6.1-5.6c3.3-0.7,6.1-0.4,6.1-2.7c0-2.6-2.2-3-4-3c-2.5,0-4.4,0.8-4.5,3.4h-3c0.2-4.5,3.6-6.1,7.7-6.1
			c3.3,0,6.8,0.7,6.8,5v9.3c0,1.4,0,2,0.9,2c0.3,0,0.6-0.1,0.9-0.2V902.4z M1644,893.1c-2.3,1.7-9,0-9,4.5c0,2,1.7,2.7,3.5,2.7
			c3.9,0,5.5-2.4,5.5-4.1V893.1z"/>
		<path class="st3" d="M1651.6,884.3h2.8v2.9h0.1c1.3-2.2,3.3-3.3,5.9-3.3c4.8,0,6.2,2.7,6.2,6.6v11.9h-3v-12.2
			c0-2.2-1.4-3.6-3.7-3.6c-3.6,0-5.4,2.4-5.4,5.7v10.2h-3V884.3z"/>
		<path class="st3" d="M1686.7,900.9c0,5.9-2.7,8.9-8.4,8.9c-3.4,0-7.3-1.4-7.5-5.3h3c0.1,2.1,2.8,2.9,4.7,2.9
			c3.9,0,5.4-2.8,5.4-6.9v-1.2h-0.1c-1,2.2-3.3,3.3-5.6,3.3c-5.4,0-8.1-4.2-8.1-9.2c0-4.3,2.1-9.6,8.4-9.6c2.3,0,4.3,1,5.4,3h0v-2.6
			h2.8V900.9z M1683.8,893c0-3.2-1.4-6.5-5.1-6.5c-3.8,0-5.4,3.1-5.4,6.6c0,3.3,1.2,6.9,5.1,6.9C1682.3,900,1683.8,896.4,1683.8,893
			z"/>
		<path class="st3" d="M1706.6,896.7c-0.8,4-3.6,6.2-7.7,6.2c-5.8,0-8.5-4-8.7-9.5c0-5.5,3.6-9.4,8.5-9.4c6.4,0,8.4,6,8.2,10.4
			h-13.5c-0.1,3.2,1.7,6,5.6,6c2.5,0,4.2-1.2,4.7-3.5H1706.6z M1703.7,891.7c-0.2-2.8-2.2-5.1-5.2-5.1c-3.1,0-5,2.3-5.2,5.1H1703.7z
			"/>
		<path class="st3" d="M1711.8,896.7c0.1,2.7,2.5,3.5,4.9,3.5c1.9,0,4.4-0.4,4.4-2.7c0-4.7-11.8-1.5-11.8-8.5c0-3.6,3.6-5.1,6.8-5.1
			c4.1,0,7.1,1.3,7.4,5.7h-3c-0.2-2.3-2.3-3-4.2-3c-1.8,0-3.9,0.5-3.9,2.3c0,2.1,3.2,2.5,5.9,3.2c3,0.7,5.9,1.7,5.9,5.1
			c0,4.3-4,5.7-7.7,5.7c-4.1,0-7.5-1.6-7.7-6.1H1711.8z"/>
		<path class="st3" d="M1752.1,884.8c-0.4-3.6-2.7-5.1-6.2-5.1c-2.8,0-5.6,1-5.6,4.3c0,6.2,16,1.8,16,11.7c0,5.3-5.2,7.5-9.8,7.5
			c-5.6,0-10.3-2.8-10.3-8.8h3.2c0,4.2,3.5,6,7.3,6c3,0,6.3-0.9,6.3-4.6c0-6.9-16-2.3-16-11.5c0-5,4.5-7.3,9.1-7.3
			c5.1,0,9,2.4,9.2,7.9H1752.1z"/>
		<path class="st3" d="M1770.9,876.8c7.9,0,12,6.3,12,13.1s-4,13.1-12,13.1c-7.9,0-12-6.3-12-13.1S1763,876.8,1770.9,876.8z
			 M1770.9,900.2c6.1,0,8.6-5.2,8.6-10.3s-2.6-10.3-8.6-10.3c-6.1,0-8.6,5.2-8.6,10.3S1764.8,900.2,1770.9,900.2z"/>
		<path class="st3" d="M1787,877.4h11c5,0,7.7,2.7,7.7,7.4c0,4.7-2.7,7.4-7.7,7.4h-7.6v10.2h-3.3V877.4z M1790.3,889.4h6.5
			c3.8,0,5.5-1.6,5.5-4.6c0-3-1.7-4.6-5.5-4.6h-6.5V889.4z"/>
		<path class="st3" d="M1060.8,953.4c-3.4-5.2-5.5-10.3-5.5-16.4c0-5.5,1.9-11.3,5.5-16.1h2.3c-3.4,5.3-4.6,10.4-4.6,16.1
			c0,5.9,1.3,11,4.6,16.4H1060.8z"/>
		<path class="st3" d="M1088,946.4h-3.5l-5.7-21h-0.1l-5.8,21h-3.5l-6.4-25h3.4l4.9,20.8h0.1l5.6-20.8h3.6l5.5,20.8h0.1l5.1-20.8
			h3.3L1088,946.4z"/>
		<path class="st3" d="M1097.9,921.4h3.3v10.7h13.2v-10.7h3.3v25h-3.3V935h-13.2v11.4h-3.3V921.4z"/>
		<path class="st3" d="M1120.4,949.1h17.5v1.8h-17.5V949.1z"/>
		<path class="st3" d="M1161,948.6l-3.8-3.1c-1.7,1-3.7,1.5-6,1.5c-7.9,0-12-6.3-12-13.1s4-13.1,12-13.1c7.9,0,12,6.3,12,13.1
			c0,3.8-1.3,7.5-3.8,9.9l3.3,2.6L1161,948.6z M1153.6,939.3l3.3,2.7c2-2,2.9-5,2.9-8c0-5-2.6-10.3-8.6-10.3
			c-6.1,0-8.6,5.2-8.6,10.3s2.6,10.3,8.6,10.3c1.2,0,2.4-0.2,3.5-0.7l-2.8-2.2L1153.6,939.3z"/>
		<path class="st3" d="M1167.3,921.4h4.6l7.9,21l7.9-21h4.5v25h-3.2v-20.8h-0.1l-7.8,20.8h-2.8l-7.8-20.8h-0.1v20.8h-3.2V921.4z"/>
		<path class="st3" d="M1212.2,928.8c-0.4-3.6-2.7-5.1-6.2-5.1c-2.8,0-5.6,1-5.6,4.3c0,6.2,16,1.8,16,11.7c0,5.3-5.2,7.5-9.8,7.5
			c-5.6,0-10.3-2.8-10.3-8.8h3.2c0,4.2,3.5,6,7.3,6c3,0,6.3-0.9,6.3-4.6c0-6.9-16-2.3-16-11.5c0-5,4.5-7.3,9.1-7.3
			c5.1,0,9,2.4,9.2,7.9H1212.2z"/>
		<path class="st3" d="M1217.7,949.1h17.5v1.8h-17.5V949.1z"/>
		<path class="st3" d="M1252.3,928.8c-0.4-3.6-2.7-5.1-6.2-5.1c-2.8,0-5.6,1-5.6,4.3c0,6.2,16,1.8,16,11.7c0,5.3-5.2,7.5-9.8,7.5
			c-5.6,0-10.3-2.8-10.3-8.8h3.2c0,4.2,3.5,6,7.3,6c3,0,6.3-0.9,6.3-4.6c0-6.9-16-2.3-16-11.5c0-5,4.5-7.3,9.1-7.3
			c5.1,0,9,2.4,9.2,7.9H1252.3z"/>
		<path class="st3" d="M1271.1,920.8c7.9,0,12,6.3,12,13.1s-4,13.1-12,13.1c-7.9,0-12-6.3-12-13.1S1263.2,920.8,1271.1,920.8z
			 M1271.1,944.2c6.1,0,8.6-5.2,8.6-10.3s-2.6-10.3-8.6-10.3c-6.1,0-8.6,5.2-8.6,10.3S1265,944.2,1271.1,944.2z"/>
		<path class="st3" d="M1287.2,921.4h11c5,0,7.7,2.7,7.7,7.4c0,4.7-2.7,7.4-7.7,7.4h-7.6v10.2h-3.3V921.4z M1290.5,933.4h6.5
			c3.8,0,5.5-1.6,5.5-4.6c0-3-1.7-4.6-5.5-4.6h-6.5V933.4z"/>
		<path class="st3" d="M1307.1,949.1h17.5v1.8h-17.5V949.1z"/>
		<path class="st3" d="M1334.3,921.6c7.8,0,8.3,7.2,8.3,12.6c0,5.5-0.5,12.6-8.3,12.6c-7.8,0-8.3-7.1-8.3-12.6
			C1326.1,928.8,1326.6,921.6,1334.3,921.6z M1334.3,944.2c5.1,0,5.1-6.3,5.1-10c0-3.7,0-10-5.1-10c-5.1,0-5.1,6.3-5.1,10
			C1329.2,937.9,1329.3,944.2,1334.3,944.2z"/>
		<path class="st3" d="M1353.8,921.6c7.8,0,8.3,7.2,8.3,12.6c0,5.5-0.5,12.6-8.3,12.6c-7.8,0-8.3-7.1-8.3-12.6
			C1345.5,928.8,1346,921.6,1353.8,921.6z M1353.8,944.2c5.1,0,5.1-6.3,5.1-10c0-3.7,0-10-5.1-10c-5.1,0-5.1,6.3-5.1,10
			C1348.7,937.9,1348.7,944.2,1353.8,944.2z"/>
		<path class="st3" d="M1365.1,930.4c-0.3-5,2.7-8.8,8-8.8c4.3,0,7.8,2.5,7.8,7.1c0,4.4-2.9,6.5-6,8.5c-3.1,1.9-6.4,3.5-7,6.5h12.7
			v2.6h-16.2c0.5-5.8,3.5-8.1,7-10.2c4.2-2.6,6.3-4.1,6.3-7.6c0-2.7-2.2-4.5-4.8-4.5c-3.5,0-4.9,3.2-4.8,6.2H1365.1z"/>
		<path class="st3" d="M1392.6,921.6c5.4,0,7.5,3.2,7.5,6.3c0,2.2-1.4,4.2-3.4,5.1c3,0.9,4.4,3.1,4.4,6.2c0,4.8-3.6,7.6-8.2,7.6
			c-4.8,0-8.4-2.5-8.4-7.6c0-2.9,1.5-5.2,4.3-6.2c-2.1-0.8-3.5-2.9-3.5-5.1C1385.3,923.9,1388.7,921.6,1392.6,921.6z M1392.8,944.2
			c3,0,5.1-2.1,5.1-4.8c0-2.7-2.3-4.7-5.1-4.7c-2.9,0-5.2,1.9-5.2,4.8C1387.5,942.4,1389.8,944.2,1392.8,944.2z M1392.8,932
			c2.4,0,4.1-1.5,4.1-4c0-2.5-1.8-3.8-4.2-3.8c-2.4,0-4.3,1.3-4.3,3.8C1388.4,930.8,1390.4,932,1392.8,932z"/>
		<path class="st3" d="M1402.1,953.4c3.4-5.3,4.6-10.4,4.6-16.1c0-5.9-1.3-11-4.6-16.4h2.3c3.4,5.2,5.5,10.3,5.5,16.4
			c0,5.5-1.9,11.3-5.5,16.1H1402.1z"/>
		<path class="st3" d="M1414.4,942.5h3.9v3.9h-3.9V942.5z"/>
	</g>
</g>
<g>
	<g>
		<line class="st8" x1="870.4" y1="305.5" x2="870.4" y2="347.9"/>
		<g>
			<polygon class="st1" points="858.2,338 860.4,335.9 870.4,346.8 880.5,335.9 882.7,338 870.4,351.2 			"/>
		</g>
	</g>
</g>
<g class="st9">
	<path class="st3" d="M82.7,110.7h-7.2L70,88.3h-0.1l-5.5,22.4h-7.3l-8.7-32.8h7.2l5.2,22.4h0.1l5.7-22.4h6.8l5.6,22.6h0.1l5.4-22.6
		h7.1L82.7,110.7z"/>
	<path class="st3" d="M94.1,77.8h6.5v12.4h0.1c1.7-2.7,4.5-4,6.9-4c6.9,0,8.7,3.9,8.7,9.8v14.6h-6.5V97.2c0-3.9-1.1-5.8-4.2-5.8
		c-3.5,0-5.1,2-5.1,6.8v12.5h-6.5V77.8z"/>
	<path class="st3" d="M133,86.2c7.5,0,12.3,5,12.3,12.6c0,7.5-4.8,12.5-12.3,12.5c-7.5,0-12.3-5-12.3-12.5
		C120.7,91.2,125.5,86.2,133,86.2z M133,106.4c4.5,0,5.8-3.8,5.8-7.6s-1.3-7.6-5.8-7.6c-4.4,0-5.8,3.8-5.8,7.6
		S128.6,106.4,133,106.4z"/>
</g>
<line class="st10" x1="48.2" y1="52.2" x2="958.9" y2="52.2"/>
<g>
	<rect x="1053.4" y="72.2" class="st11" width="202.5" height="49.5"/>
	<path d="M1087.9,105.1h-7.2l-5.6-22.4h-0.1l-5.5,22.4h-7.3l-8.7-32.8h7.2l5.2,22.4h0.1l5.7-22.4h6.8l5.6,22.6h0.1l5.4-22.6h7.1
		L1087.9,105.1z"/>
	<path d="M1099.3,72.2h6.5v12.4h0.1c1.7-2.7,4.5-4,6.9-4c6.9,0,8.7,3.9,8.7,9.8v14.6h-6.5V91.6c0-3.9-1.1-5.8-4.2-5.8
		c-3.5,0-5.1,2-5.1,6.8v12.5h-6.5V72.2z"/>
	<path d="M1126.3,88.6c0.4-6.1,5.8-8,11.2-8c4.7,0,10.4,1.1,10.4,6.8v12.4c0,2.2,0.2,4.3,0.8,5.3h-6.6c-0.2-0.7-0.4-1.5-0.5-2.3
		c-2.1,2.2-5.1,2.9-8,2.9c-4.6,0-8.1-2.3-8.1-7.1c0.1-10.8,16.1-5,15.8-10.4c0-2.8-1.9-3.2-4.2-3.2c-2.5,0-4.1,1-4.3,3.6H1126.3z
		 M1141.4,93.4c-1.1,1-3.4,1-5.4,1.4c-2,0.4-3.9,1.1-3.9,3.5c0,2.4,1.9,3,4,3c5.1,0,5.3-4,5.3-5.5V93.4z"/>
	<path d="M1161.3,81.3h4.8v4.4h-4.8v11.8c0,2.2,0.6,2.8,2.8,2.8c0.7,0,1.4,0,2-0.2v5.1c-1.1,0.2-2.5,0.2-3.8,0.2
		c-4,0-7.5-0.9-7.5-5.7v-14h-4v-4.4h4v-7.1h6.5V81.3z"/>
</g>
<g>
	<rect x="1053.4" y="712.4" class="st11" width="394" height="49.5"/>
	<path class="st3" d="M1056.6,712.4h24.6v6.1h-17.3v7h15.9v5.6h-15.9v8.1h17.7v6.1h-24.9V712.4z"/>
	<path class="st3" d="M1091.8,732.8l-7.8-11.3h7.5l4.2,6.2l4.1-6.2h7.2l-7.8,11.1l8.8,12.7h-7.5l-5-7.5l-5,7.5h-7.3L1091.8,732.8z"
		/>
	<path class="st3" d="M1126.6,729.9c-0.4-2.7-2-4.1-4.8-4.1c-4.2,0-5.6,4.2-5.6,7.7c0,3.5,1.3,7.5,5.4,7.5c3.1,0,4.8-1.9,5.2-4.8
		h6.3c-0.9,6.3-5.2,9.8-11.5,9.8c-7.2,0-12-5.1-12-12.2c0-7.4,4.4-12.9,12.1-12.9c5.6,0,10.8,2.9,11.2,9H1126.6z"/>
	<path class="st3" d="M1142.2,735c0.2,4.2,2.2,6,5.8,6c2.6,0,4.7-1.6,5.2-3.1h5.8c-1.8,5.7-5.8,8-11.1,8c-7.5,0-12.1-5.2-12.1-12.5
		c0-7.1,4.9-12.6,12.1-12.6c8.1,0,12.1,6.8,11.5,14.1H1142.2z M1152.8,730.8c-0.6-3.3-2-5.1-5.2-5.1c-4.2,0-5.3,3.2-5.4,5.1H1152.8z
		"/>
	<path class="st3" d="M1163.2,721.5h6.2v3h0.1c1.6-2.6,4.1-3.7,7.1-3.7c7.5,0,10.8,6,10.8,12.8c0,6.3-3.5,12.3-10.4,12.3
		c-2.9,0-5.5-1.2-7.1-3.6h-0.1v11.3h-6.5V721.5z M1180.9,733.5c0-3.8-1.5-7.7-5.7-7.7c-4.3,0-5.7,3.8-5.7,7.7c0,3.9,1.5,7.5,5.7,7.5
		C1179.5,741,1180.9,737.3,1180.9,733.5z"/>
	<path class="st3" d="M1199.6,721.5h4.8v4.4h-4.8v11.8c0,2.2,0.6,2.8,2.8,2.8c0.7,0,1.4,0,2-0.2v5.1c-1.1,0.2-2.5,0.2-3.8,0.2
		c-4,0-7.5-0.9-7.5-5.7v-14h-4v-4.4h4v-7.1h6.5V721.5z"/>
	<path class="st3" d="M1214.2,717.8h-6.5v-5.4h6.5V717.8z M1207.7,721.5h6.5v23.8h-6.5V721.5z"/>
	<path class="st3" d="M1230.9,720.9c7.5,0,12.3,5,12.3,12.6c0,7.5-4.8,12.5-12.3,12.5c-7.5,0-12.3-5-12.3-12.5
		C1218.6,725.8,1223.5,720.9,1230.9,720.9z M1230.9,741c4.5,0,5.8-3.8,5.8-7.6c0-3.8-1.3-7.6-5.8-7.6c-4.4,0-5.8,3.8-5.8,7.6
		C1225.2,737.2,1226.5,741,1230.9,741z"/>
	<path class="st3" d="M1247.5,721.5h6.2v3.3h0.1c1.7-2.7,4.5-4,7.3-4c6.9,0,8.7,3.9,8.7,9.8v14.6h-6.5v-13.4c0-3.9-1.1-5.8-4.2-5.8
		c-3.5,0-5.1,2-5.1,6.8v12.5h-6.5V721.5z"/>
</g>
<path class="st3" d="M740.9,658.2c0,11.9-9.6,21.5-21.5,21.5H229.7c-11.9,0-21.5-9.6-21.5-21.5V167.5c0-11.9,9.6-21.5,21.5-21.5
	h489.7c11.9,0,21.5,9.6,21.5,21.5V658.2z"/>
<path class="st12" d="M740.9,698.6c0,7.7-9.6,13.9-21.5,13.9H229.7c-11.9,0-21.5-6.2-21.5-13.9v-317h532.6V698.6z"/>
<g>
	<path class="st13" d="M512.1,311.7H404.6c-6.2,0-11.2-5.1-11.2-11.2V179.4c0-6.2,5.1-11.2,11.2-11.2h107.5
		c6.2,0,11.2,5.1,11.2,11.2v121.2C523.3,306.7,518.2,311.7,512.1,311.7"/>
	<g>
		<rect x="373.2" y="347.5" class="st14" width="1.3" height="14.4"/>
		<path class="st14" d="M377.2,347.5h6.1c2.4,0,4.6,0.8,4.6,3.5c0,1.5-1,2.9-2.5,3.3c1.9,0.2,3,1.7,3,3.5c0,1.3-0.4,4-5.2,4h-6.1
			V347.5z M378.6,353.8h4.7c2.1,0,3.3-1.1,3.3-2.5c0-1.8-1.1-2.7-3.3-2.7h-4.7V353.8z M378.6,360.6h4.7c2,0,3.8-0.7,3.8-2.9
			c0-1.9-1.3-2.8-3.8-2.8h-4.7V360.6z"/>
		<polygon class="st14" points="390.7,347.5 392.7,347.5 397.7,360 402.6,347.5 404.6,347.5 404.6,361.8 403.3,361.8 403.3,349.4 
			398.3,361.8 397,361.8 392.1,349.4 392.1,361.8 390.7,361.8 		"/>
		<polygon class="st15" points="423.9,361.7 420.8,361.7 418.3,352 416,361.7 412.7,361.7 408.9,347.4 412,347.4 414.3,357.1 
			416.8,347.4 419.7,347.4 422.1,357.2 424.5,347.4 427.6,347.4 		"/>
		<path class="st15" d="M428.1,354.4c0.2-2.7,2.6-3.5,4.9-3.5c2,0,4.6,0.4,4.6,2.9v5.4c0,0.9,0.1,1.9,0.3,2.4h-2.9
			c-0.1-0.3-0.2-0.7-0.2-1c-0.9,0.9-2.2,1.3-3.5,1.3c-2,0-3.5-1-3.5-3.1c0-4.7,7.1-2.2,7-4.5c0-1.2-0.8-1.3-1.9-1.3
			c-1.1,0-1.8,0.5-1.9,1.6h-2.9V354.4z M434.7,356.6c-0.4,0.4-1.5,0.4-2.4,0.6c-0.9,0.2-1.7,0.4-1.7,1.6c0,1.1,0.8,1.3,1.8,1.3
			c2.2,0,2.4-1.8,2.4-2.4v-1.1H434.7z"/>
		<path class="st15" d="M443.4,351.3h2.1v1.9h-2.1v5.2c0,1,0.2,1.2,1.2,1.2c0.3,0,0.7,0,0.9-0.1v2.2c-0.4,0.1-1.1,0.1-1.7,0.1
			c-1.8,0-3.3-0.3-3.3-2.5v-6.2h-1.8v-1.9h1.8v-3.1h2.9L443.4,351.3z"/>
		<path class="st15" d="M449.1,358.4c0,1.2,1.1,1.8,2.2,1.8c0.8,0,1.9-0.3,1.9-1.3c0-0.9-1.2-1.2-3.3-1.6c-1.7-0.3-3.4-0.9-3.4-2.8
			c0-2.7,2.4-3.4,4.5-3.4c2.2,0,4.4,0.8,4.6,3.4H453c-0.1-1.1-0.9-1.3-1.9-1.3c-0.7,0-1.6,0.1-1.6,1c0,1,1.7,1.1,3.3,1.6
			c1.7,0.3,3.4,1,3.4,2.9c0,2.7-2.4,3.6-4.7,3.6c-2.4,0-4.8-0.9-4.9-3.7h2.6V358.4z"/>
		<path class="st15" d="M462.6,351.1c3.3,0,5.4,2.1,5.4,5.5c0,3.4-2.1,5.5-5.4,5.5c-3.3,0-5.4-2.1-5.4-5.5
			C457.2,353.2,459.2,351.1,462.6,351.1 M462.6,359.8c1.9,0,2.6-1.7,2.6-3.4c0-1.7-0.6-3.4-2.6-3.4c-1.9,0-2.5,1.7-2.5,3.4
			C460.1,358.1,460.5,359.8,462.6,359.8"/>
		<path class="st15" d="M469.3,351.3h2.7v1.5h0.1c0.8-1.2,1.9-1.8,3.1-1.8c3,0,3.8,1.7,3.8,4.3v6.4h-2.9v-5.8c0-1.7-0.4-2.6-1.8-2.6
			c-1.6,0-2.2,0.9-2.2,2.9v5.5h-2.9L469.3,351.3z"/>
		<polygon class="st15" points="484.8,347.4 487.9,347.4 487.9,352.9 493.8,352.9 493.8,347.4 496.9,347.4 496.9,361.7 493.8,361.7 
			493.8,355.6 487.9,355.6 487.9,361.7 484.8,361.7 		"/>
		<path class="st15" d="M501.6,357.2c0.1,1.8,0.9,2.7,2.6,2.7c1.1,0,2-0.7,2.2-1.3h2.5c-0.8,2.5-2.5,3.5-4.8,3.5
			c-3.3,0-5.3-2.2-5.3-5.5c0-3.1,2.1-5.5,5.3-5.5c3.5,0,5.3,2.9,5.1,6.2H501.6z M506.2,355.3c-0.2-1.5-0.9-2.2-2.2-2.2
			c-1.9,0-2.4,1.3-2.4,2.2H506.2z"/>
		<path class="st15" d="M510.8,354.4c0.2-2.7,2.6-3.5,4.9-3.5c2,0,4.6,0.4,4.6,2.9v5.4c0,0.9,0.1,1.9,0.3,2.4h-2.9
			c-0.1-0.3-0.2-0.7-0.2-1c-0.9,0.9-2.2,1.3-3.5,1.3c-2,0-3.5-1-3.5-3.1c0-4.7,7.1-2.2,7-4.5c0-1.2-0.8-1.3-1.9-1.3
			c-1.1,0-1.8,0.5-1.9,1.6h-2.9V354.4z M517.4,356.6c-0.4,0.4-1.5,0.4-2.4,0.6c-0.9,0.2-1.7,0.4-1.7,1.6c0,1.1,0.8,1.3,1.8,1.3
			c2.2,0,2.4-1.8,2.4-2.4v-1.1H517.4z"/>
		<path class="st15" d="M531.2,351.3h2.1v1.9h-2.1v5.2c0,1,0.2,1.2,1.2,1.2c0.3,0,0.7,0,0.9-0.1v2.2c-0.4,0.1-1.1,0.1-1.7,0.1
			c-1.8,0-3.3-0.3-3.3-2.5v-6.2h-1.8v-1.9h1.8v-3.1h2.9v3.1H531.2z"/>
		<path class="st15" d="M535.1,347.4h2.9v5.4h0.1c0.8-1.2,1.9-1.8,3-1.8c3,0,3.8,1.7,3.8,4.3v6.4h-2.9v-5.8c0-1.7-0.4-2.6-1.8-2.6
			c-1.6,0-2.2,0.9-2.2,2.9v5.5h-2.9V347.4z"/>
		<rect x="522.4" y="347.4" class="st15" width="2.9" height="14.4"/>
	</g>
	<g>
		<defs>
			<path id="SVGID_1_" d="M405.3,168.1c-6.2,0-11.2,5.1-11.2,11.2v121.2c0,6.2,5.1,11.2,11.2,11.2h107.5c6.2,0,11.2-5.1,11.2-11.2
				V179.4c0-6.2-5.1-11.2-11.2-11.2H405.3z"/>
		</defs>
		<clipPath id="SVGID_2_">
			<use xlink:href="#SVGID_1_"  style="overflow:visible;"/>
		</clipPath>
		<path class="st16" d="M443.4,229.8h31.3l3.4,35.6c0.2,2.5,2.4,4.4,5.1,4.5h0.6l-3.9,13.4l-41.5-3.3l-3-10.1l1.1-0.2
			c2.5-0.3,4.3-2.1,4.4-4.5L443.4,229.8z"/>
		<path class="st17" d="M459.2,281.7l-21.1-1.7l-3-10.1l1.1-0.2c2.5-0.3,4.3-2.1,4.4-4.5l2-25.2h16.7L459.2,281.7z"/>
		<path class="st18" d="M443.4,229.8h31.3l2.5,26.9c-0.6,0.9-1,1.5-1.6,2.4c-4.6,6.3-10.6,10.6-16.3,10.6c-5.7,0-11.7-4.3-16.3-10.6
			c-0.7-1-1.2-1.7-1.8-2.7L443.4,229.8z"/>
		<path class="st19" d="M459.2,260.3c-7.3,0-14.6-4.7-20.1-11.7c-5.4-6.8-9-15.9-9-24.7v-0.2v-0.1v-1.8c0-21-3.8-38.1,29.2-38.1
			c33,0,29.1,17.1,29.1,38.1v1.7v0.1v0.2c0,8.8-3.6,17.9-9,24.7C474,255.6,466.5,260.3,459.2,260.3"/>
		<path class="st20" d="M440.4,266.4c-12.7,8.3-36.2,9-36.2,26.5v17.4c0,4.7,4,8.5,9.1,8.5h91.7c5.1,0,9.1-3.8,9.1-8.5V293
			c0-17.7-23.1-18.4-36-26.5C465.2,275,455.7,278,440.4,266.4"/>
		<path class="st21" d="M439.8,252.5c5.5,7,12.6,11.7,19.4,11.7c6.8,0,14-4.7,19.4-11.7c5.6-7.2,9.4-16.6,9.5-25.7l-1.9-7.3
			c-0.7-2.6-0.8-5.1-0.8-7.3c-0.1-3-0.1-5.8-1.9-8.1c-2.8-3.7-7.3-2.5-12.6-1.1c-3.6,1-7.5,2-11.7,2c-4.3,0-8.1-1-11.7-2
			c-5.3-1.5-9.8-2.6-12.6,1c-1.8,2.2-1.8,5.1-1.9,8.1c0,2.4-0.1,4.7-0.8,7.3l-1.9,7.3C430.4,235.8,434.2,245.4,439.8,252.5"/>
		<path class="st22" d="M436.8,268.4c3.1,6.1,11.7,13.2,22.6,13.2c10.3,0,18.9-7.1,22.6-13.1c-3.7,7-11.9,14.4-22.6,14.3
			C448.7,282.8,439.8,275.3,436.8,268.4"/>
		<path class="st23" d="M439.8,252.5c5.5,7,12.6,11.7,19.4,11.7V205c-4.3,0-8.1-1-11.7-2c-5.3-1.5-9.8-2.6-12.6,1
			c-1.8,2.2-1.8,5.1-1.9,8.1c0,2.4-0.1,4.7-0.8,7.3l-1.9,7.3C430.4,235.8,434.2,245.4,439.8,252.5"/>
		<path class="st22" d="M433.3,269c-12,5.2-29.1,6.3-29.1,23.8v17.4c0,4.7,4,8.5,9.1,8.5h45.9h45.9c5.1,0,9.1-3.8,9.1-8.5v-17.3
			c0-17.5-17.1-18.8-29.1-23.9c-7.4,11.5-16.7,17.3-25.9,17.4C450,286.4,440.7,280.5,433.3,269"/>
		<path class="st24" d="M433.3,268.9c-1.7,0.8-3.5,1.3-5.3,2c10.2,16.2,22.3,21,31.3,21.1c8.9-0.1,21.1-4.9,31.3-21.1
			c-1.8-0.7-3.6-1.2-5.3-2c-7.4,11.5-16.8,17.5-26,17.6C450,286.4,440.7,280.4,433.3,268.9"/>
	</g>
</g>
<g>
	<rect x="238.4" y="420.5" class="st11" width="473.4" height="405.3"/>
	<path class="st7" d="M247,426.7c3.4,0,6.2,2.7,6.2,6.1s-2.8,6.2-6.2,6.2c-3.4,0-6.1-2.8-6.1-6.2S243.6,426.7,247,426.7z"/>
	<path class="st7" d="M274.6,420.5h3.6l9.6,24.7h-3.6l-2.7-7.4h-10.4l-2.8,7.4H265L274.6,420.5z M272.2,435h8.4l-4.1-11.5h-0.1
		L272.2,435z"/>
	<path class="st7" d="M289.9,427.3h2.9v2.4h0.1c1-2,3.2-2.8,5.7-2.8c5.5,0,8.2,4.4,8.2,9.4c0,5.1-2.7,9.3-8.2,9.3
		c-1.8,0-4.5-0.7-5.8-2.8h-0.1v9.2h-2.9V427.3z M298.2,429.5c-4,0-5.5,3.4-5.5,6.7c0,3.5,1.6,6.8,5.6,6.8c4,0,5.4-3.4,5.4-6.9
		C303.8,432.7,302,429.5,298.2,429.5z"/>
	<path class="st7" d="M310.4,427.3h2.9v2.4h0.1c1-2,3.2-2.8,5.7-2.8c5.5,0,8.2,4.4,8.2,9.4c0,5.1-2.7,9.3-8.2,9.3
		c-1.8,0-4.5-0.7-5.8-2.8h-0.1v9.2h-2.9V427.3z M318.7,429.5c-4,0-5.5,3.4-5.5,6.7c0,3.5,1.6,6.8,5.6,6.8c4,0,5.4-3.4,5.4-6.9
		C324.2,432.7,322.5,429.5,318.7,429.5z"/>
	<path class="st7" d="M331,420.5h2.9v24.7H331V420.5z"/>
	<path class="st7" d="M341.6,424.1h-2.9v-3.6h2.9V424.1z M338.7,427.3h2.9v17.9h-2.9V427.3z"/>
	<path class="st7" d="M361.4,439.5c-0.8,4-3.6,6.1-7.6,6.1c-5.7,0-8.4-4-8.6-9.4c0-5.4,3.5-9.3,8.4-9.3c6.3,0,8.3,5.9,8.1,10.2
		h-13.4c-0.1,3.1,1.7,5.9,5.6,5.9c2.5,0,4.1-1.1,4.6-3.5H361.4z M358.6,434.5c-0.2-2.8-2.2-5-5.1-5c-3,0-4.9,2.3-5.1,5H358.6z"/>
	<path class="st7" d="M366.5,439.5c0.1,2.6,2.4,3.5,4.8,3.5c1.8,0,4.3-0.4,4.3-2.7c0-4.6-11.7-1.5-11.7-8.4c0-3.6,3.5-5.1,6.7-5.1
		c4,0,7,1.2,7.3,5.6H375c-0.2-2.3-2.2-3-4.1-3c-1.8,0-3.8,0.5-3.8,2.3c0,2.1,3.1,2.5,5.8,3.1c2.9,0.7,5.8,1.7,5.8,5.1
		c0,4.3-4,5.6-7.6,5.6c-4,0-7.4-1.6-7.6-6H366.5z"/>
	<path class="st7" d="M395.7,427.3h3.6v2.6h-3.6V441c0,1.4,0.4,1.6,2.2,1.6h1.3v2.6H397c-3,0-4.2-0.6-4.2-3.9v-11.4h-3v-2.6h3v-5.4
		h2.9V427.3z"/>
	<path class="st7" d="M410.2,426.9c5.7,0,8.7,4.1,8.7,9.4c0,5.2-3,9.3-8.7,9.3s-8.7-4.1-8.7-9.3C401.5,431,404.5,426.9,410.2,426.9z
		 M410.2,443c3.1,0,5.6-2.4,5.6-6.7s-2.5-6.8-5.6-6.8c-3.1,0-5.6,2.5-5.6,6.8S407.1,443,410.2,443z"/>
	<path class="st7" d="M447.7,445.1c-0.5,0.3-1.2,0.5-2.1,0.5c-1.5,0-2.5-0.8-2.5-2.8c-1.6,1.9-3.8,2.8-6.3,2.8c-3.2,0-5.9-1.4-5.9-5
		c0-4,3-4.9,6-5.5c3.2-0.7,6-0.4,6-2.6c0-2.6-2.1-3-4-3c-2.5,0-4.3,0.8-4.5,3.4h-2.9c0.2-4.4,3.6-6,7.6-6c3.2,0,6.7,0.7,6.7,4.9v9.2
		c0,1.4,0,2,0.9,2c0.3,0,0.6-0.1,0.9-0.2V445.1z M443,435.9c-2.3,1.7-8.9,0-8.9,4.4c0,1.9,1.7,2.6,3.5,2.6c3.9,0,5.5-2.4,5.5-4
		V435.9z"/>
	<path class="st7" d="M450.6,420.5h2.9v24.7h-2.9V420.5z"/>
	<path class="st7" d="M458.3,420.5h2.9v24.7h-2.9V420.5z"/>
	<path class="st7" d="M498.2,445.2h-3.4l-5.6-20.7h-0.1l-5.7,20.7h-3.4l-6.3-24.7h3.4l4.8,20.5h0.1l5.5-20.5h3.6l5.5,20.5h0.1
		l5-20.5h3.3L498.2,445.2z"/>
	<path class="st7" d="M523.2,445.1c-0.5,0.3-1.2,0.5-2.1,0.5c-1.5,0-2.5-0.8-2.5-2.8c-1.6,1.9-3.8,2.8-6.3,2.8c-3.2,0-5.9-1.4-5.9-5
		c0-4,3-4.9,6-5.5c3.2-0.7,6-0.4,6-2.6c0-2.6-2.1-3-4-3c-2.5,0-4.3,0.8-4.5,3.4h-2.9c0.2-4.4,3.6-6,7.6-6c3.2,0,6.7,0.7,6.7,4.9v9.2
		c0,1.4,0,2,0.9,2c0.3,0,0.6-0.1,0.9-0.2V445.1z M518.5,435.9c-2.3,1.7-8.9,0-8.9,4.4c0,1.9,1.7,2.6,3.5,2.6c3.9,0,5.5-2.4,5.5-4
		V435.9z"/>
	<path class="st7" d="M530,427.3h3.6v2.6H530V441c0,1.4,0.4,1.6,2.2,1.6h1.3v2.6h-2.2c-3,0-4.2-0.6-4.2-3.9v-11.4h-3v-2.6h3v-5.4
		h2.9V427.3z"/>
	<path class="st7" d="M538.6,439.5c0.1,2.6,2.4,3.5,4.8,3.5c1.8,0,4.3-0.4,4.3-2.7c0-4.6-11.7-1.5-11.7-8.4c0-3.6,3.5-5.1,6.7-5.1
		c4,0,7,1.2,7.3,5.6h-2.9c-0.2-2.3-2.2-3-4.1-3c-1.8,0-3.8,0.5-3.8,2.3c0,2.1,3.1,2.5,5.8,3.1c2.9,0.7,5.8,1.7,5.8,5.1
		c0,4.3-4,5.6-7.6,5.6c-4,0-7.4-1.6-7.6-6H538.6z"/>
	<path class="st7" d="M561.8,426.9c5.7,0,8.7,4.1,8.7,9.4c0,5.2-3,9.3-8.7,9.3s-8.7-4.1-8.7-9.3C553.1,431,556.2,426.9,561.8,426.9z
		 M561.8,443c3.1,0,5.6-2.4,5.6-6.7s-2.5-6.8-5.6-6.8c-3.1,0-5.6,2.5-5.6,6.8S558.7,443,561.8,443z"/>
	<path class="st7" d="M573.9,427.3h2.8v2.8h0.1c1.2-2.2,3.2-3.2,5.8-3.2c4.7,0,6.1,2.7,6.1,6.5v11.7h-2.9v-12.1
		c0-2.2-1.4-3.6-3.6-3.6c-3.6,0-5.3,2.4-5.3,5.6v10.1h-2.9V427.3z"/>
	<path class="st7" d="M603.2,420.5h3.3v10.6h13v-10.6h3.3v24.7h-3.3v-11.3h-13v11.3h-3.3V420.5z"/>
	<path class="st7" d="M642.9,439.5c-0.8,4-3.6,6.1-7.6,6.1c-5.7,0-8.4-4-8.6-9.4c0-5.4,3.5-9.3,8.4-9.3c6.3,0,8.3,5.9,8.1,10.2
		h-13.4c-0.1,3.1,1.7,5.9,5.6,5.9c2.5,0,4.1-1.1,4.6-3.5H642.9z M640.1,434.5c-0.2-2.8-2.2-5-5.1-5c-3,0-4.9,2.3-5.1,5H640.1z"/>
	<path class="st7" d="M662.1,445.1c-0.5,0.3-1.2,0.5-2.1,0.5c-1.5,0-2.5-0.8-2.5-2.8c-1.6,1.9-3.8,2.8-6.3,2.8c-3.2,0-5.9-1.4-5.9-5
		c0-4,3-4.9,6-5.5c3.2-0.7,6-0.4,6-2.6c0-2.6-2.1-3-4-3c-2.5,0-4.3,0.8-4.5,3.4H646c0.2-4.4,3.6-6,7.6-6c3.2,0,6.7,0.7,6.7,4.9v9.2
		c0,1.4,0,2,0.9,2c0.3,0,0.6-0.1,0.9-0.2V445.1z M657.3,435.9c-2.3,1.7-8.9,0-8.9,4.4c0,1.9,1.7,2.6,3.5,2.6c3.9,0,5.5-2.4,5.5-4
		V435.9z"/>
	<path class="st7" d="M665,420.5h2.9v24.7H665V420.5z"/>
	<path class="st7" d="M676.6,427.3h3.6v2.6h-3.6V441c0,1.4,0.4,1.6,2.2,1.6h1.3v2.6h-2.2c-3,0-4.2-0.6-4.2-3.9v-11.4h-3v-2.6h3v-5.4
		h2.9V427.3z"/>
	<path class="st7" d="M683.4,420.5h2.9v9.4h0.1c0.9-2.2,3.5-3,5.6-3c4.7,0,6.1,2.7,6.1,6.5v11.7h-2.9v-12.1c0-2.2-1.4-3.6-3.6-3.6
		c-3.6,0-5.3,2.4-5.3,5.6v10.1h-2.9V420.5z"/>
	<path class="st7" d="M266.6,468.8h2.9v2.4h0.1c1-2,3.2-2.8,5.7-2.8c5.5,0,8.2,4.4,8.2,9.4c0,5.1-2.7,9.3-8.2,9.3
		c-1.8,0-4.5-0.7-5.8-2.8h-0.1v9.2h-2.9V468.8z M274.9,470.9c-4,0-5.5,3.4-5.5,6.7c0,3.5,1.6,6.8,5.6,6.8c4,0,5.4-3.4,5.4-6.9
		C280.4,474.2,278.7,470.9,274.9,470.9z"/>
	<path class="st7" d="M302.2,480.9c-0.8,4-3.6,6.1-7.6,6.1c-5.7,0-8.4-4-8.6-9.4c0-5.4,3.5-9.3,8.4-9.3c6.3,0,8.3,5.9,8.1,10.2
		h-13.4c-0.1,3.1,1.7,5.9,5.6,5.9c2.5,0,4.1-1.1,4.6-3.5H302.2z M299.4,476c-0.2-2.8-2.2-5-5.1-5c-3,0-4.9,2.3-5.1,5H299.4z"/>
	<path class="st7" d="M305.4,468.8h2.8v3.8h0.1c1.4-2.9,3.4-4.3,6.6-4.2v3.1c-4.7,0-6.5,2.7-6.5,7.2v7.9h-2.9V468.8z"/>
	<path class="st7" d="M318.8,481c0.1,2.6,2.4,3.5,4.8,3.5c1.8,0,4.3-0.4,4.3-2.7c0-4.6-11.7-1.5-11.7-8.4c0-3.6,3.5-5.1,6.7-5.1
		c4,0,7,1.2,7.3,5.6h-2.9c-0.2-2.3-2.2-3-4.1-3c-1.8,0-3.8,0.5-3.8,2.3c0,2.1,3.1,2.5,5.8,3.1c2.9,0.7,5.8,1.7,5.8,5.1
		c0,4.3-4,5.6-7.6,5.6c-4,0-7.4-1.6-7.6-6H318.8z"/>
	<path class="st7" d="M342,468.3c5.7,0,8.7,4.1,8.7,9.4c0,5.2-3,9.3-8.7,9.3s-8.7-4.1-8.7-9.3C333.3,472.4,336.3,468.3,342,468.3z
		 M342,484.4c3.1,0,5.6-2.4,5.6-6.7s-2.5-6.8-5.6-6.8c-3.1,0-5.6,2.5-5.6,6.8S338.9,484.4,342,484.4z"/>
	<path class="st7" d="M354.1,468.8h2.8v2.8h0.1c1.2-2.2,3.2-3.2,5.8-3.2c4.7,0,6.1,2.7,6.1,6.5v11.7H366v-12.1
		c0-2.2-1.4-3.6-3.6-3.6c-3.6,0-5.3,2.4-5.3,5.6v10.1h-2.9V468.8z"/>
	<path class="st7" d="M373.3,468.8h2.8v2.8h0.1c1.2-2.2,3.2-3.2,5.8-3.2c4.7,0,6.1,2.7,6.1,6.5v11.7h-2.9v-12.1
		c0-2.2-1.4-3.6-3.6-3.6c-3.6,0-5.3,2.4-5.3,5.6v10.1h-2.9V468.8z"/>
	<path class="st7" d="M407.8,480.9c-0.8,4-3.6,6.1-7.6,6.1c-5.7,0-8.4-4-8.6-9.4c0-5.4,3.5-9.3,8.4-9.3c6.3,0,8.3,5.9,8.1,10.2
		h-13.4c-0.1,3.1,1.7,5.9,5.6,5.9c2.5,0,4.1-1.1,4.6-3.5H407.8z M405,476c-0.2-2.8-2.2-5-5.1-5c-3,0-4.9,2.3-5.1,5H405z"/>
	<path class="st7" d="M411.3,461.9h2.9v24.7h-2.9V461.9z"/>
	<path class="st7" d="M446.1,486.6H443l-3.6-14.2h-0.1l-3.6,14.2h-3.2l-5.7-17.9h3.2l4,14.6h0.1l3.6-14.6h3.2l3.7,14.6h0.1l4-14.6h3
		L446.1,486.6z"/>
	<path class="st7" d="M454.6,461.9h2.9v9.4h0.1c0.9-2.2,3.5-3,5.6-3c4.7,0,6.1,2.7,6.1,6.5v11.7h-2.9v-12.1c0-2.2-1.4-3.6-3.6-3.6
		c-3.6,0-5.3,2.4-5.3,5.6v10.1h-2.9V461.9z"/>
	<path class="st7" d="M481.5,468.3c5.7,0,8.7,4.1,8.7,9.4c0,5.2-3,9.3-8.7,9.3s-8.7-4.1-8.7-9.3
		C472.8,472.4,475.8,468.3,481.5,468.3z M481.5,484.4c3.1,0,5.6-2.4,5.6-6.7s-2.5-6.8-5.6-6.8c-3.1,0-5.6,2.5-5.6,6.8
		S478.4,484.4,481.5,484.4z"/>
	<path class="st7" d="M503.3,468.8h2.9v2.4h0.1c1-2,3.2-2.8,5.7-2.8c5.5,0,8.2,4.4,8.2,9.4c0,5.1-2.7,9.3-8.2,9.3
		c-1.8,0-4.5-0.7-5.8-2.8h-0.1v9.2h-2.9V468.8z M511.6,470.9c-4,0-5.5,3.4-5.5,6.7c0,3.5,1.6,6.8,5.6,6.8c4,0,5.4-3.4,5.4-6.9
		C517.1,474.2,515.4,470.9,511.6,470.9z"/>
	<path class="st7" d="M538.9,480.9c-0.8,4-3.6,6.1-7.6,6.1c-5.7,0-8.4-4-8.6-9.4c0-5.4,3.5-9.3,8.4-9.3c6.3,0,8.3,5.9,8.1,10.2
		h-13.4c-0.1,3.1,1.7,5.9,5.6,5.9c2.5,0,4.1-1.1,4.6-3.5H538.9z M536.1,476c-0.2-2.8-2.2-5-5.1-5c-3,0-4.9,2.3-5.1,5H536.1z"/>
	<path class="st7" d="M542.2,468.8h2.8v3.8h0.1c1.4-2.9,3.4-4.3,6.6-4.2v3.1c-4.7,0-6.5,2.7-6.5,7.2v7.9h-2.9V468.8z"/>
	<path class="st7" d="M555,471.3h-3v-2.6h3v-2.7c0-2.9,1.7-4.4,4.9-4.4c0.6,0,1.3,0.1,1.9,0.3v2.6c-0.5-0.2-1.1-0.2-1.7-0.2
		c-1.4,0-2.2,0.4-2.2,2v2.5h3.5v2.6h-3.5v15.3H555V471.3z"/>
	<path class="st7" d="M571.7,468.3c5.7,0,8.7,4.1,8.7,9.4c0,5.2-3,9.3-8.7,9.3s-8.7-4.1-8.7-9.3C563,472.4,566,468.3,571.7,468.3z
		 M571.7,484.4c3.1,0,5.6-2.4,5.6-6.7s-2.5-6.8-5.6-6.8s-5.6,2.5-5.6,6.8S568.6,484.4,571.7,484.4z"/>
	<path class="st7" d="M583.7,468.8h2.8v3.8h0.1c1.4-2.9,3.4-4.3,6.6-4.2v3.1c-4.7,0-6.5,2.7-6.5,7.2v7.9h-2.9V468.8z"/>
	<path class="st7" d="M595.3,468.8h2.8v2.6h0.1c1.3-2,3.2-3,5.8-3c2.2,0,4.2,0.8,4.9,3c1.2-1.9,3.3-3,5.6-3c3.6,0,5.9,1.5,5.9,5.2
		v13.1h-2.9v-11.7c0-2.2-0.6-4-3.5-4s-4.7,1.8-4.7,4.6v11.1h-2.9v-11.7c0-2.3-0.7-4-3.4-4c-3.5,0-4.8,3.2-4.8,4.6v11.1h-2.9V468.8z"
		/>
	<path class="st7" d="M642.1,468.3c5.7,0,8.7,4.1,8.7,9.4c0,5.2-3,9.3-8.7,9.3s-8.7-4.1-8.7-9.3
		C633.4,472.4,636.5,468.3,642.1,468.3z M642.1,484.4c3.1,0,5.6-2.4,5.6-6.7s-2.5-6.8-5.6-6.8s-5.6,2.5-5.6,6.8
		S639,484.4,642.1,484.4z"/>
	<path class="st7" d="M654.1,468.8h2.8v3.8h0.1c1.4-2.9,3.4-4.3,6.6-4.2v3.1c-4.7,0-6.5,2.7-6.5,7.2v7.9h-2.9V468.8z"/>
	<path class="st7" d="M266.4,510.2h2.8v3.8h0.1c1.4-2.9,3.4-4.3,6.6-4.2v3.1c-4.7,0-6.5,2.7-6.5,7.2v7.9h-2.9V510.2z"/>
	<path class="st7" d="M293.2,522.4c-0.8,4-3.6,6.1-7.6,6.1c-5.7,0-8.4-4-8.6-9.4c0-5.4,3.5-9.3,8.4-9.3c6.3,0,8.3,5.9,8.1,10.2
		h-13.4c-0.1,3.1,1.7,5.9,5.6,5.9c2.5,0,4.1-1.1,4.6-3.5H293.2z M290.4,517.4c-0.2-2.8-2.2-5-5.1-5c-3,0-4.9,2.3-5.1,5H290.4z"/>
	<path class="st7" d="M304.6,528.1h-3.1l-6.6-17.9h3.3l5,14.9h0.1l4.9-14.9h3.1L304.6,528.1z"/>
	<path class="st7" d="M316.9,507H314v-3.6h2.9V507z M314,510.2h2.9v17.9H314V510.2z"/>
	<path class="st7" d="M336.7,522.4c-0.8,4-3.6,6.1-7.6,6.1c-5.7,0-8.4-4-8.6-9.4c0-5.4,3.5-9.3,8.4-9.3c6.3,0,8.3,5.9,8.1,10.2
		h-13.4c-0.1,3.1,1.7,5.9,5.6,5.9c2.5,0,4.1-1.1,4.6-3.5H336.7z M333.9,517.4c-0.2-2.8-2.2-5-5.1-5c-3,0-4.9,2.3-5.1,5H333.9z"/>
	<path class="st7" d="M357.7,528.1h-3.1l-3.6-14.2h-0.1l-3.6,14.2h-3.2l-5.7-17.9h3.2l4,14.6h0.1l3.6-14.6h3.2l3.7,14.6h0.1l4-14.6
		h3L357.7,528.1z"/>
	<path class="st7" d="M388,515.9c-0.4-2.2-2-3.6-4.4-3.6c-4.2,0-5.6,3.4-5.6,7c0,3.3,1.5,6.5,5.2,6.5c2.9,0,4.5-1.6,4.9-4.4h3
		c-0.7,4.4-3.4,6.9-7.9,6.9c-5.5,0-8.4-3.8-8.4-9.1s2.8-9.6,8.4-9.6c4.1,0,7.3,1.9,7.7,6.1H388z"/>
	<path class="st7" d="M394.6,503.4h2.9v24.7h-2.9V503.4z"/>
	<path class="st7" d="M405.2,507h-2.9v-3.6h2.9V507z M402.2,510.2h2.9v17.9h-2.9V510.2z"/>
	<path class="st7" d="M425,522.4c-0.8,4-3.6,6.1-7.6,6.1c-5.7,0-8.4-4-8.6-9.4c0-5.4,3.5-9.3,8.4-9.3c6.3,0,8.3,5.9,8.1,10.2h-13.4
		c-0.1,3.1,1.7,5.9,5.6,5.9c2.5,0,4.1-1.1,4.6-3.5H425z M422.1,517.4c-0.2-2.8-2.2-5-5.1-5c-3,0-4.9,2.3-5.1,5H422.1z"/>
	<path class="st7" d="M428.3,510.2h2.8v2.8h0.1c1.2-2.2,3.2-3.2,5.8-3.2c4.7,0,6.1,2.7,6.1,6.5v11.7h-2.9V516c0-2.2-1.4-3.6-3.6-3.6
		c-3.6,0-5.3,2.4-5.3,5.6v10.1h-2.9V510.2z"/>
	<path class="st7" d="M451.6,510.2h3.6v2.6h-3.6v11.1c0,1.4,0.4,1.6,2.2,1.6h1.3v2.6h-2.2c-3,0-4.2-0.6-4.2-3.9v-11.4h-3v-2.6h3
		v-5.4h2.9V510.2z"/>
	<path class="st7" d="M469.8,522.4c0.1,2.6,2.4,3.5,4.8,3.5c1.8,0,4.3-0.4,4.3-2.7c0-4.6-11.7-1.5-11.7-8.4c0-3.6,3.5-5.1,6.7-5.1
		c4,0,7,1.2,7.3,5.6h-2.9c-0.2-2.3-2.2-3-4.1-3c-1.8,0-3.8,0.5-3.8,2.3c0,2.1,3.1,2.5,5.8,3.1c2.9,0.7,5.8,1.7,5.8,5.1
		c0,4.3-4,5.6-7.6,5.6c-4,0-7.4-1.6-7.6-6H469.8z"/>
	<path class="st7" d="M485.4,510.2h2.9v2.4h0.1c1-2,3.2-2.8,5.7-2.8c5.5,0,8.2,4.4,8.2,9.4c0,5.1-2.7,9.3-8.2,9.3
		c-1.8,0-4.5-0.7-5.8-2.8h-0.1v9.2h-2.9V510.2z M493.7,512.4c-4,0-5.5,3.4-5.5,6.7c0,3.5,1.6,6.8,5.6,6.8c4,0,5.4-3.4,5.4-6.9
		C499.2,515.6,497.5,512.4,493.7,512.4z"/>
	<path class="st7" d="M521,522.4c-0.8,4-3.6,6.1-7.6,6.1c-5.7,0-8.4-4-8.6-9.4c0-5.4,3.5-9.3,8.4-9.3c6.3,0,8.3,5.9,8.1,10.2h-13.4
		c-0.1,3.1,1.7,5.9,5.6,5.9c2.5,0,4.1-1.1,4.6-3.5H521z M518.1,517.4c-0.2-2.8-2.2-5-5.1-5c-3,0-4.9,2.3-5.1,5H518.1z"/>
	<path class="st7" d="M536.4,515.9c-0.4-2.2-2-3.6-4.4-3.6c-4.2,0-5.6,3.4-5.6,7c0,3.3,1.5,6.5,5.2,6.5c2.9,0,4.5-1.6,4.9-4.4h3
		c-0.7,4.4-3.4,6.9-7.9,6.9c-5.5,0-8.4-3.8-8.4-9.1s2.8-9.6,8.4-9.6c4.1,0,7.3,1.9,7.7,6.1H536.4z"/>
	<path class="st7" d="M546,507H543v-3.6h2.9V507z M543,510.2h2.9v17.9H543V510.2z"/>
	<path class="st7" d="M551.7,512.8h-3v-2.6h3v-2.7c0-2.9,1.7-4.4,4.9-4.4c0.6,0,1.3,0.1,1.9,0.3v2.6c-0.5-0.2-1.1-0.2-1.7-0.2
		c-1.4,0-2.2,0.4-2.2,2v2.5h3.5v2.6h-3.5v15.3h-2.9V512.8z M560.9,507v-3.6h2.9v3.6H560.9z M560.9,528.1v-17.9h2.9v17.9H560.9z"/>
	<path class="st7" d="M580.5,515.9c-0.4-2.2-2-3.6-4.4-3.6c-4.2,0-5.6,3.4-5.6,7c0,3.3,1.5,6.5,5.2,6.5c2.9,0,4.5-1.6,4.9-4.4h3
		c-0.7,4.4-3.4,6.9-7.9,6.9c-5.5,0-8.4-3.8-8.4-9.1s2.8-9.6,8.4-9.6c4.1,0,7.3,1.9,7.7,6.1H580.5z"/>
	<path class="st7" d="M269.6,548.5h-2.9v-3.6h2.9V548.5z M266.7,551.7h2.9v17.9h-2.9V551.7z"/>
	<path class="st7" d="M274.2,551.7h2.8v2.8h0.1c1.2-2.2,3.2-3.2,5.8-3.2c4.7,0,6.1,2.7,6.1,6.5v11.7H286v-12.1
		c0-2.2-1.4-3.6-3.6-3.6c-3.6,0-5.3,2.4-5.3,5.6v10.1h-2.9V551.7z"/>
	<path class="st7" d="M295.2,563.9c0.1,2.6,2.4,3.5,4.8,3.5c1.8,0,4.3-0.4,4.3-2.7c0-4.6-11.7-1.5-11.7-8.4c0-3.6,3.5-5.1,6.7-5.1
		c4,0,7,1.2,7.3,5.6h-2.9c-0.2-2.3-2.2-3-4.1-3c-1.8,0-3.8,0.5-3.8,2.3c0,2.1,3.1,2.5,5.8,3.1c2.9,0.7,5.8,1.7,5.8,5.1
		c0,4.3-4,5.6-7.6,5.6c-4,0-7.4-1.6-7.6-6H295.2z"/>
	<path class="st7" d="M314.7,551.7h3.6v2.6h-3.6v11.1c0,1.4,0.4,1.6,2.2,1.6h1.3v2.6H316c-3,0-4.2-0.6-4.2-3.9v-11.4h-3v-2.6h3v-5.4
		h2.9V551.7z"/>
	<path class="st7" d="M337.3,569.5c-0.5,0.3-1.2,0.5-2.1,0.5c-1.5,0-2.5-0.8-2.5-2.8c-1.6,1.9-3.8,2.8-6.3,2.8c-3.2,0-5.9-1.4-5.9-5
		c0-4,3-4.9,6-5.5c3.2-0.7,6-0.4,6-2.6c0-2.6-2.1-3-4-3c-2.5,0-4.3,0.8-4.5,3.4h-2.9c0.2-4.4,3.6-6,7.6-6c3.2,0,6.7,0.7,6.7,4.9v9.2
		c0,1.4,0,2,0.9,2c0.3,0,0.6-0.1,0.9-0.2V569.5z M332.6,560.3c-2.3,1.7-8.9,0-8.9,4.4c0,1.9,1.7,2.6,3.5,2.6c3.9,0,5.5-2.4,5.5-4
		V560.3z"/>
	<path class="st7" d="M340.2,544.9h2.9v24.7h-2.9V544.9z"/>
	<path class="st7" d="M347.9,544.9h2.9v24.7h-2.9V544.9z"/>
	<path class="st7" d="M371.2,569.5c-0.5,0.3-1.2,0.5-2.1,0.5c-1.5,0-2.5-0.8-2.5-2.8c-1.6,1.9-3.8,2.8-6.3,2.8c-3.2,0-5.9-1.4-5.9-5
		c0-4,3-4.9,6-5.5c3.2-0.7,6-0.4,6-2.6c0-2.6-2.1-3-4-3c-2.5,0-4.3,0.8-4.5,3.4h-2.9c0.2-4.4,3.6-6,7.6-6c3.2,0,6.7,0.7,6.7,4.9v9.2
		c0,1.4,0,2,0.9,2c0.3,0,0.6-0.1,0.9-0.2V569.5z M366.5,560.3c-2.3,1.7-8.9,0-8.9,4.4c0,1.9,1.7,2.6,3.5,2.6c3.9,0,5.5-2.4,5.5-4
		V560.3z"/>
	<path class="st7" d="M378,551.7h3.6v2.6H378v11.1c0,1.4,0.4,1.6,2.2,1.6h1.3v2.6h-2.2c-3,0-4.2-0.6-4.2-3.9v-11.4h-3v-2.6h3v-5.4
		h2.9V551.7z"/>
	<path class="st7" d="M388,548.5H385v-3.6h2.9V548.5z M385,551.7h2.9v17.9H385V551.7z"/>
	<path class="st7" d="M400.2,551.3c5.7,0,8.7,4.1,8.7,9.4c0,5.2-3,9.3-8.7,9.3s-8.7-4.1-8.7-9.3
		C391.6,555.4,394.6,551.3,400.2,551.3z M400.2,567.4c3.1,0,5.6-2.4,5.6-6.7s-2.5-6.8-5.6-6.8c-3.1,0-5.6,2.5-5.6,6.8
		S397.2,567.4,400.2,567.4z"/>
	<path class="st7" d="M412.4,551.7h2.8v2.8h0.1c1.2-2.2,3.2-3.2,5.8-3.2c4.7,0,6.1,2.7,6.1,6.5v11.7h-2.9v-12.1
		c0-2.2-1.4-3.6-3.6-3.6c-3.6,0-5.3,2.4-5.3,5.6v10.1h-2.9V551.7z"/>
	<path class="st7" d="M433.4,563.9c0.1,2.6,2.4,3.5,4.8,3.5c1.8,0,4.3-0.4,4.3-2.7c0-4.6-11.7-1.5-11.7-8.4c0-3.6,3.5-5.1,6.7-5.1
		c4,0,7,1.2,7.3,5.6h-2.9c-0.2-2.3-2.2-3-4.1-3c-1.8,0-3.8,0.5-3.8,2.3c0,2.1,3.1,2.5,5.8,3.1c2.9,0.7,5.8,1.7,5.8,5.1
		c0,4.3-4,5.6-7.6,5.6c-4,0-7.4-1.6-7.6-6H433.4z"/>
	<path class="st7" d="M473.2,569.5h-2.8v-2.8h-0.1c-1.2,2.2-3.2,3.2-5.8,3.2c-4.7,0-6.1-2.7-6.1-6.5v-11.7h2.9v12.1
		c0,2.2,1.4,3.6,3.6,3.6c3.6,0,5.3-2.4,5.3-5.6v-10.1h2.9V569.5z"/>
	<path class="st7" d="M477.7,551.7h2.8v2.8h0.1c1.2-2.2,3.2-3.2,5.8-3.2c4.7,0,6.1,2.7,6.1,6.5v11.7h-2.9v-12.1
		c0-2.2-1.4-3.6-3.6-3.6c-3.6,0-5.3,2.4-5.3,5.6v10.1h-2.9V551.7z"/>
	<path class="st7" d="M512.8,569.5h-2.9v-2.4h-0.1c-1,2-3.2,2.8-5.7,2.8c-5.5,0-8.2-4.4-8.2-9.4s2.7-9.3,8.2-9.3
		c1.8,0,4.5,0.7,5.8,2.8h0.1v-9.2h2.9V569.5z M504.5,567.4c4,0,5.5-3.4,5.5-6.7c0-3.5-1.6-6.8-5.6-6.8c-4,0-5.4,3.4-5.4,6.9
		C499,564.1,500.7,567.4,504.5,567.4z"/>
	<path class="st7" d="M532.6,563.9c-0.8,4-3.6,6.1-7.6,6.1c-5.7,0-8.4-4-8.6-9.4c0-5.4,3.5-9.3,8.4-9.3c6.3,0,8.3,5.9,8.1,10.2
		h-13.4c-0.1,3.1,1.7,5.9,5.6,5.9c2.5,0,4.1-1.1,4.6-3.5H532.6z M529.8,558.9c-0.2-2.8-2.2-5-5.1-5c-3,0-4.9,2.3-5.1,5H529.8z"/>
	<path class="st7" d="M535.8,551.7h2.8v3.8h0.1c1.4-2.9,3.4-4.3,6.6-4.2v3.1c-4.7,0-6.5,2.7-6.5,7.2v7.9h-2.9V551.7z"/>
	<path class="st7" d="M561.1,551.7h3.6v2.6h-3.6v11.1c0,1.4,0.4,1.6,2.2,1.6h1.3v2.6h-2.2c-3,0-4.2-0.6-4.2-3.9v-11.4h-3v-2.6h3
		v-5.4h2.9V551.7z"/>
	<path class="st7" d="M567.9,544.9h2.9v9.4h0.1c0.9-2.2,3.5-3,5.6-3c4.7,0,6.1,2.7,6.1,6.5v11.7h-2.9v-12.1c0-2.2-1.4-3.6-3.6-3.6
		c-3.6,0-5.3,2.4-5.3,5.6v10.1h-2.9V544.9z"/>
	<path class="st7" d="M602.3,563.9c-0.8,4-3.6,6.1-7.6,6.1c-5.7,0-8.4-4-8.6-9.4c0-5.4,3.5-9.3,8.4-9.3c6.3,0,8.3,5.9,8.1,10.2
		h-13.4c-0.1,3.1,1.7,5.9,5.6,5.9c2.5,0,4.1-1.1,4.6-3.5H602.3z M599.5,558.9c-0.2-2.8-2.2-5-5.1-5c-3,0-4.9,2.3-5.1,5H599.5z"/>
	<path class="st7" d="M289.2,611h-3.4l-5.6-20.7h-0.1l-5.7,20.7H271l-6.3-24.7h3.4l4.8,20.5h0.1l5.5-20.5h3.6l5.5,20.5h0.1l5-20.5
		h3.3L289.2,611z"/>
	<path class="st7" d="M314.3,610.9c-0.5,0.3-1.2,0.5-2.1,0.5c-1.5,0-2.5-0.8-2.5-2.8c-1.6,1.9-3.8,2.8-6.3,2.8c-3.2,0-5.9-1.4-5.9-5
		c0-4,3-4.9,6-5.5c3.2-0.7,6-0.4,6-2.6c0-2.6-2.1-3-4-3c-2.5,0-4.3,0.8-4.5,3.4h-2.9c0.2-4.4,3.6-6,7.6-6c3.2,0,6.7,0.7,6.7,4.9v9.2
		c0,1.4,0,2,0.9,2c0.3,0,0.6-0.1,0.9-0.2V610.9z M309.5,601.8c-2.3,1.7-8.9,0-8.9,4.4c0,1.9,1.7,2.6,3.5,2.6c3.9,0,5.5-2.4,5.5-4
		V601.8z"/>
	<path class="st7" d="M321.1,593.1h3.6v2.6h-3.6v11.1c0,1.4,0.4,1.6,2.2,1.6h1.3v2.6h-2.2c-3,0-4.2-0.6-4.2-3.9v-11.4h-3v-2.6h3
		v-5.4h2.9V593.1z"/>
	<path class="st7" d="M329.7,605.4c0.1,2.6,2.4,3.5,4.8,3.5c1.8,0,4.3-0.4,4.3-2.7c0-4.6-11.7-1.5-11.7-8.4c0-3.6,3.5-5.1,6.7-5.1
		c4,0,7,1.2,7.3,5.6h-2.9c-0.2-2.3-2.2-3-4.1-3c-1.8,0-3.8,0.5-3.8,2.3c0,2.1,3.1,2.5,5.8,3.1c2.9,0.7,5.8,1.7,5.8,5.1
		c0,4.3-4,5.6-7.6,5.6c-4,0-7.4-1.6-7.6-6H329.7z"/>
	<path class="st7" d="M352.9,592.7c5.7,0,8.7,4.1,8.7,9.4c0,5.2-3,9.3-8.7,9.3s-8.7-4.1-8.7-9.3
		C344.2,596.8,347.2,592.7,352.9,592.7z M352.9,608.8c3.1,0,5.6-2.4,5.6-6.7s-2.5-6.8-5.6-6.8c-3.1,0-5.6,2.5-5.6,6.8
		S349.8,608.8,352.9,608.8z"/>
	<path class="st7" d="M365,593.1h2.8v2.8h0.1c1.2-2.2,3.2-3.2,5.8-3.2c4.7,0,6.1,2.7,6.1,6.5V611h-2.9v-12.1c0-2.2-1.4-3.6-3.6-3.6
		c-3.6,0-5.3,2.4-5.3,5.6V611H365V593.1z"/>
	<path class="st7" d="M394.3,586.3h3.3v10.6h13v-10.6h3.3V611h-3.3v-11.3h-13V611h-3.3V586.3z"/>
	<path class="st7" d="M434,605.3c-0.8,4-3.6,6.1-7.6,6.1c-5.7,0-8.4-4-8.6-9.4c0-5.4,3.5-9.3,8.4-9.3c6.3,0,8.3,5.9,8.1,10.2h-13.4
		c-0.1,3.1,1.7,5.9,5.6,5.9c2.5,0,4.1-1.1,4.6-3.5H434z M431.2,600.4c-0.2-2.8-2.2-5-5.1-5c-3,0-4.9,2.3-5.1,5H431.2z"/>
	<path class="st7" d="M453.2,610.9c-0.5,0.3-1.2,0.5-2.1,0.5c-1.5,0-2.5-0.8-2.5-2.8c-1.6,1.9-3.8,2.8-6.3,2.8c-3.2,0-5.9-1.4-5.9-5
		c0-4,3-4.9,6-5.5c3.2-0.7,6-0.4,6-2.6c0-2.6-2.1-3-4-3c-2.5,0-4.3,0.8-4.5,3.4h-2.9c0.2-4.4,3.6-6,7.6-6c3.2,0,6.7,0.7,6.7,4.9v9.2
		c0,1.4,0,2,0.9,2c0.3,0,0.6-0.1,0.9-0.2V610.9z M448.4,601.8c-2.3,1.7-8.9,0-8.9,4.4c0,1.9,1.7,2.6,3.5,2.6c3.9,0,5.5-2.4,5.5-4
		V601.8z"/>
	<path class="st7" d="M456.1,586.3h2.9V611h-2.9V586.3z"/>
	<path class="st7" d="M467.6,593.1h3.6v2.6h-3.6v11.1c0,1.4,0.4,1.6,2.2,1.6h1.3v2.6h-2.2c-3,0-4.2-0.6-4.2-3.9v-11.4h-3v-2.6h3
		v-5.4h2.9V593.1z"/>
	<path class="st7" d="M474.4,586.3h2.9v9.4h0.1c0.9-2.2,3.5-3,5.6-3c4.7,0,6.1,2.7,6.1,6.5V611h-2.9v-12.1c0-2.2-1.4-3.6-3.6-3.6
		c-3.6,0-5.3,2.4-5.3,5.6V611h-2.9V586.3z"/>
	<path class="st7" d="M523.8,613.1l-3.8-3c-1.7,1-3.6,1.5-5.9,1.5c-7.8,0-11.8-6.2-11.8-12.9s4-12.9,11.8-12.9s11.8,6.2,11.8,12.9
		c0,3.8-1.2,7.4-3.7,9.8l3.2,2.6L523.8,613.1z M516.6,603.9l3.3,2.6c1.9-1.9,2.8-4.9,2.8-7.9c0-5-2.5-10.2-8.5-10.2
		s-8.5,5.2-8.5,10.2s2.5,10.2,8.5,10.2c1.2,0,2.3-0.2,3.4-0.7l-2.7-2.2L516.6,603.9z"/>
	<path class="st7" d="M544.3,611h-2.8v-2.8h-0.1c-1.2,2.2-3.2,3.2-5.8,3.2c-4.7,0-6.1-2.7-6.1-6.5v-11.7h2.9v12.1
		c0,2.2,1.4,3.6,3.6,3.6c3.6,0,5.3-2.4,5.3-5.6v-10.1h2.9V611z"/>
	<path class="st7" d="M564.5,610.9c-0.5,0.3-1.2,0.5-2.1,0.5c-1.5,0-2.5-0.8-2.5-2.8c-1.6,1.9-3.8,2.8-6.3,2.8c-3.2,0-5.9-1.4-5.9-5
		c0-4,3-4.9,6-5.5c3.2-0.7,6-0.4,6-2.6c0-2.6-2.1-3-4-3c-2.5,0-4.3,0.8-4.5,3.4h-2.9c0.2-4.4,3.6-6,7.6-6c3.2,0,6.7,0.7,6.7,4.9v9.2
		c0,1.4,0,2,0.9,2c0.3,0,0.6-0.1,0.9-0.2V610.9z M559.8,601.8c-2.3,1.7-8.9,0-8.9,4.4c0,1.9,1.7,2.6,3.5,2.6c3.9,0,5.5-2.4,5.5-4
		V601.8z"/>
	<path class="st7" d="M567.5,586.3h2.9V611h-2.9V586.3z"/>
	<path class="st7" d="M578.1,589.9h-2.9v-3.6h2.9V589.9z M575.1,593.1h2.9V611h-2.9V593.1z"/>
	<path class="st7" d="M586.7,593.1h3.6v2.6h-3.6v11.1c0,1.4,0.4,1.6,2.2,1.6h1.3v2.6H588c-3,0-4.2-0.6-4.2-3.9v-11.4h-3v-2.6h3v-5.4
		h2.9V593.1z"/>
	<path class="st7" d="M600.5,613.4c-1.4,3.5-2.6,4.8-5.2,4.8c-0.7,0-1.4-0.1-2-0.3v-2.7c0.6,0.2,1.1,0.4,1.7,0.4
		c1.2,0,1.9-0.6,2.4-1.6l1.2-3l-7.1-17.8h3.3l5.2,14.6h0.1l5-14.6h3.1L600.5,613.4z"/>
	<path class="st7" d="M267,627.8h4.5l7.8,20.7l7.8-20.7h4.5v24.7h-3.1v-20.5h-0.1l-7.7,20.5h-2.8l-7.7-20.5h-0.1v20.5H267V627.8z"/>
	<path class="st7" d="M312.4,652.4c-0.5,0.3-1.2,0.5-2.1,0.5c-1.5,0-2.5-0.8-2.5-2.8c-1.6,1.9-3.8,2.8-6.3,2.8c-3.2,0-5.9-1.4-5.9-5
		c0-4,3-4.9,6-5.5c3.2-0.7,6-0.4,6-2.6c0-2.6-2.1-3-4-3c-2.5,0-4.3,0.8-4.5,3.4h-2.9c0.2-4.4,3.6-6,7.6-6c3.2,0,6.7,0.7,6.7,4.9v9.2
		c0,1.4,0,2,0.9,2c0.3,0,0.6-0.1,0.9-0.2V652.4z M307.6,643.2c-2.3,1.7-8.9,0-8.9,4.4c0,1.9,1.7,2.6,3.5,2.6c3.9,0,5.5-2.4,5.5-4
		V643.2z"/>
	<path class="st7" d="M315.1,634.6h2.8v2.8h0.1c1.2-2.2,3.2-3.2,5.8-3.2c4.7,0,6.1,2.7,6.1,6.5v11.7H327v-12.1
		c0-2.2-1.4-3.6-3.6-3.6c-3.6,0-5.3,2.4-5.3,5.6v10.1h-2.9V634.6z"/>
	<path class="st7" d="M350.2,652.4c-0.5,0.3-1.2,0.5-2.1,0.5c-1.5,0-2.5-0.8-2.5-2.8c-1.6,1.9-3.8,2.8-6.3,2.8c-3.2,0-5.9-1.4-5.9-5
		c0-4,3-4.9,6-5.5c3.2-0.7,6-0.4,6-2.6c0-2.6-2.1-3-4-3c-2.5,0-4.3,0.8-4.5,3.4h-2.9c0.2-4.4,3.6-6,7.6-6c3.2,0,6.7,0.7,6.7,4.9v9.2
		c0,1.4,0,2,0.9,2c0.3,0,0.6-0.1,0.9-0.2V652.4z M345.4,643.2c-2.3,1.7-8.9,0-8.9,4.4c0,1.9,1.7,2.6,3.5,2.6c3.9,0,5.5-2.4,5.5-4
		V643.2z"/>
	<path class="st7" d="M368.3,650.9c0,5.8-2.6,8.8-8.3,8.8c-3.4,0-7.2-1.4-7.4-5.3h2.9c0.1,2.1,2.7,2.9,4.6,2.9
		c3.8,0,5.4-2.8,5.4-6.8v-1.2h-0.1c-1,2.2-3.3,3.2-5.6,3.2c-5.3,0-8-4.2-8-9.1c0-4.2,2-9.4,8.3-9.4c2.2,0,4.2,1,5.3,3h0v-2.6h2.8
		V650.9z M365.4,643.2c0-3.1-1.4-6.4-5.1-6.4c-3.8,0-5.3,3.1-5.3,6.5c0,3.2,1.2,6.8,5,6.8S365.4,646.5,365.4,643.2z"/>
	<path class="st7" d="M388,646.8c-0.8,4-3.6,6.1-7.6,6.1c-5.7,0-8.4-4-8.6-9.4c0-5.4,3.5-9.3,8.4-9.3c6.3,0,8.3,5.9,8.1,10.2h-13.4
		c-0.1,3.1,1.7,5.9,5.6,5.9c2.5,0,4.1-1.1,4.6-3.5H388z M385.1,641.8c-0.2-2.8-2.2-5-5.1-5c-3,0-4.9,2.3-5.1,5H385.1z"/>
	<path class="st7" d="M391.3,634.6h2.8v2.6h0.1c1.3-2,3.2-3,5.8-3c2.2,0,4.2,0.8,4.9,3c1.2-1.9,3.3-3,5.6-3c3.6,0,5.9,1.5,5.9,5.2
		v13.1h-2.9v-11.7c0-2.2-0.6-4-3.5-4s-4.7,1.8-4.7,4.6v11.1h-2.9v-11.7c0-2.3-0.7-4-3.4-4c-3.5,0-4.8,3.2-4.8,4.6v11.1h-2.9V634.6z"
		/>
	<path class="st7" d="M436,646.8c-0.8,4-3.6,6.1-7.6,6.1c-5.7,0-8.4-4-8.6-9.4c0-5.4,3.5-9.3,8.4-9.3c6.3,0,8.3,5.9,8.1,10.2h-13.4
		c-0.1,3.1,1.7,5.9,5.6,5.9c2.5,0,4.1-1.1,4.6-3.5H436z M433.2,641.8c-0.2-2.8-2.2-5-5.1-5c-3,0-4.9,2.3-5.1,5H433.2z"/>
	<path class="st7" d="M439.3,634.6h2.8v2.8h0.1c1.2-2.2,3.2-3.2,5.8-3.2c4.7,0,6.1,2.7,6.1,6.5v11.7h-2.9v-12.1
		c0-2.2-1.4-3.6-3.6-3.6c-3.6,0-5.3,2.4-5.3,5.6v10.1h-2.9V634.6z"/>
	<path class="st7" d="M462.6,634.6h3.6v2.6h-3.6v11.1c0,1.4,0.4,1.6,2.2,1.6h1.3v2.6h-2.2c-3,0-4.2-0.6-4.2-3.9v-11.4h-3v-2.6h3
		v-5.4h2.9V634.6z"/>
	<path class="st7" d="M493.8,635c-0.4-3.6-2.7-5-6.1-5c-2.8,0-5.5,1-5.5,4.2c0,6.1,15.8,1.8,15.8,11.5c0,5.3-5.1,7.4-9.6,7.4
		c-5.5,0-10.2-2.7-10.2-8.7h3.1c0,4.1,3.5,5.9,7.2,5.9c3,0,6.3-0.9,6.3-4.5c0-6.8-15.8-2.3-15.8-11.4c0-5,4.4-7.2,8.9-7.2
		c5,0,8.9,2.4,9.1,7.8H493.8z"/>
	<path class="st7" d="M508.4,654.8c-1.4,3.5-2.6,4.8-5.2,4.8c-0.7,0-1.4-0.1-2-0.3v-2.7c0.6,0.2,1.1,0.4,1.7,0.4
		c1.2,0,1.9-0.6,2.4-1.6l1.2-3l-7.1-17.8h3.3l5.2,14.6h0.1l5-14.6h3.1L508.4,654.8z"/>
	<path class="st7" d="M520.5,646.8c0.1,2.6,2.4,3.5,4.8,3.5c1.8,0,4.3-0.4,4.3-2.7c0-4.6-11.7-1.5-11.7-8.4c0-3.6,3.5-5.1,6.7-5.1
		c4,0,7,1.2,7.3,5.6H529c-0.2-2.3-2.2-3-4.1-3c-1.8,0-3.8,0.5-3.8,2.3c0,2.1,3.1,2.5,5.8,3.1c2.9,0.7,5.8,1.7,5.8,5.1
		c0,4.3-4,5.6-7.6,5.6c-4,0-7.4-1.6-7.6-6H520.5z"/>
	<path class="st7" d="M540,634.6h3.6v2.6H540v11.1c0,1.4,0.4,1.6,2.2,1.6h1.3v2.6h-2.2c-3,0-4.2-0.6-4.2-3.9v-11.4h-3v-2.6h3v-5.4
		h2.9V634.6z"/>
	<path class="st7" d="M562.1,646.8c-0.8,4-3.6,6.1-7.6,6.1c-5.7,0-8.4-4-8.6-9.4c0-5.4,3.5-9.3,8.4-9.3c6.3,0,8.3,5.9,8.1,10.2H549
		c-0.1,3.1,1.7,5.9,5.6,5.9c2.5,0,4.1-1.1,4.6-3.5H562.1z M559.2,641.8c-0.2-2.8-2.2-5-5.1-5c-3,0-4.9,2.3-5.1,5H559.2z"/>
	<path class="st7" d="M565.4,634.6h2.8v2.6h0.1c1.3-2,3.2-3,5.8-3c2.2,0,4.2,0.8,4.9,3c1.2-1.9,3.3-3,5.6-3c3.6,0,5.9,1.5,5.9,5.2
		v13.1h-2.9v-11.7c0-2.2-0.6-4-3.5-4s-4.7,1.8-4.7,4.6v11.1h-2.9v-11.7c0-2.3-0.7-4-3.4-4c-3.5,0-4.8,3.2-4.8,4.6v11.1h-2.9V634.6z"
		/>
	<path class="st7" d="M609.3,659.3c-3.3-5.1-5.4-10.1-5.4-16.2c0-5.4,1.9-11.2,5.4-15.9h2.2c-3.3,5.2-4.6,10.3-4.6,15.9
		c0,5.8,1.3,10.9,4.6,16.2H609.3z"/>
	<path class="st7" d="M634,654.6l-3.8-3c-1.7,1-3.6,1.5-5.9,1.5c-7.8,0-11.8-6.2-11.8-12.9s4-12.9,11.8-12.9s11.8,6.2,11.8,12.9
		c0,3.8-1.2,7.4-3.7,9.8l3.2,2.6L634,654.6z M626.7,645.4l3.3,2.6c1.9-1.9,2.8-4.9,2.8-7.9c0-5-2.5-10.2-8.5-10.2s-8.5,5.2-8.5,10.2
		s2.5,10.2,8.5,10.2c1.2,0,2.3-0.2,3.4-0.7l-2.7-2.2L626.7,645.4z"/>
	<path class="st7" d="M640.2,627.8h4.5l7.8,20.7l7.8-20.7h4.5v24.7h-3.1v-20.5h-0.1l-7.7,20.5h-2.8l-7.7-20.5h-0.1v20.5h-3.1V627.8z
		"/>
	<path class="st7" d="M684.5,635c-0.4-3.6-2.7-5-6.1-5c-2.8,0-5.5,1-5.5,4.2c0,6.1,15.8,1.8,15.8,11.5c0,5.3-5.1,7.4-9.6,7.4
		c-5.5,0-10.2-2.7-10.2-8.7h3.1c0,4.1,3.5,5.9,7.2,5.9c3,0,6.3-0.9,6.3-4.5c0-6.8-15.8-2.3-15.8-11.4c0-5,4.4-7.2,8.9-7.2
		c5,0,8.9,2.4,9.1,7.8H684.5z"/>
	<path class="st7" d="M689.6,659.3c3.3-5.2,4.6-10.3,4.6-15.9c0-5.8-1.3-10.9-4.6-16.2h2.2c3.3,5.1,5.4,10.1,5.4,16.2
		c0,5.4-1.9,11.2-5.4,15.9H689.6z"/>
</g>
<g>
</g>
<g>
</g>
<g>
</g>
<g>
</g>
<g>
</g>
<g>
</g>
</svg>
