<?xml version="1.0" encoding="utf-8"?>
<!-- Generator: Adobe Illustrator 16.0.3, SVG Export Plug-In . SVG Version: 6.00 Build 0)  -->
<!DOCTYPE svg PUBLIC "-//W3C//DTD SVG 1.1//EN" "http://www.w3.org/Graphics/SVG/1.1/DTD/svg11.dtd">
<svg version="1.1" id="Layer_1" xmlns="http://www.w3.org/2000/svg" xmlns:xlink="http://www.w3.org/1999/xlink" x="0px" y="0px"
	 width="2048px" height="1000px" viewBox="0 0 2048 1000" enable-background="new 0 0 2048 1000" xml:space="preserve">
<rect fill="#B9E5FB" width="2048" height="1000"/>
<rect x="1.5" y="640.118" fill="#116BB4" width="2046.5" height="360.601"/>
<g>
	<g>
		<polygon fill="#FFFFFF" points="1723.199,982.567 1723.199,468.739 1723.199,242.58 1544.737,80.508 324.801,80.508 
			324.801,982.567 		"/>
		<g>
			<polygon fill="#2C5871" points="1544.737,242.58 1723.199,242.58 1544.737,80.508 			"/>
			<polygon fill="#D1ECFB" points="1723.199,242.58 1544.737,242.58 1723.199,404.626 			"/>
		</g>
	</g>
</g>
<line fill="none" stroke="#343636" stroke-width="4" stroke-miterlimit="10" x1="53.283" y1="54.113" x2="1919.92" y2="54.113"/>
<g>
	<path fill="#333333" d="M724.117,162.697h11.582c5.292,0,8.104,2.886,8.104,7.808s-2.812,7.845-8.104,7.808h-8.066v10.805h-3.516
		V162.697z M727.633,175.352h6.883c3.996,0.037,5.772-1.702,5.772-4.847s-1.776-4.847-5.772-4.847h-6.883V175.352z"/>
	<path fill="#333333" d="M747.464,169.987h2.961v4.033h0.073c1.518-3.108,3.627-4.588,7.031-4.477v3.33
		c-5.069,0-6.92,2.849-6.92,7.733v8.511h-3.146V169.987z"/>
	<path fill="#333333" d="M776.214,183.049c-0.852,4.255-3.849,6.512-8.178,6.512c-6.105,0-8.991-4.255-9.177-10.064
		c0-5.772,3.774-9.954,8.991-9.954c6.771,0,8.844,6.327,8.659,10.953h-14.32c-0.11,3.33,1.776,6.291,5.958,6.291
		c2.627,0,4.403-1.221,4.958-3.737H776.214z M773.18,177.72c-0.186-2.997-2.368-5.402-5.514-5.402c-3.256,0-5.291,2.442-5.477,5.402
		H773.18z"/>
	<path fill="#333333" d="M779.875,169.987h3.145v2.59h0.074c1.036-2.109,3.441-3.034,6.105-3.034c5.884,0,8.807,4.662,8.807,10.064
		c0,5.439-2.886,9.954-8.732,9.954c-1.924,0-4.811-0.74-6.18-2.997h-0.074v9.88h-3.145V169.987z M788.755,172.318
		c-4.255,0-5.846,3.664-5.846,7.216c0,3.737,1.702,7.252,6.031,7.252c4.292,0,5.735-3.664,5.735-7.4
		C794.676,175.796,792.825,172.318,788.755,172.318z"/>
	<path fill="#333333" d="M818.651,189.043c-0.555,0.333-1.332,0.518-2.257,0.518c-1.629,0-2.665-0.888-2.665-2.96
		c-1.738,2.072-4.07,2.96-6.734,2.96c-3.478,0-6.327-1.517-6.327-5.365c0-4.329,3.22-5.292,6.476-5.883
		c3.441-0.703,6.438-0.407,6.438-2.812c0-2.775-2.294-3.183-4.256-3.183c-2.664,0-4.625,0.814-4.772,3.626h-3.146
		c0.185-4.736,3.812-6.401,8.104-6.401c3.441,0,7.179,0.777,7.179,5.254v9.842c0,1.48,0,2.146,0.999,2.146
		c0.296,0,0.629-0.074,0.962-0.185V189.043z M813.545,179.237c-2.442,1.813-9.547,0.037-9.547,4.736c0,2.072,1.776,2.812,3.7,2.812
		c4.145,0,5.847-2.553,5.847-4.33V179.237z"/>
	<path fill="#333333" d="M821.461,169.987h2.961v4.033h0.073c1.518-3.108,3.627-4.588,7.031-4.477v3.33
		c-5.069,0-6.92,2.849-6.92,7.733v8.511h-3.146V169.987z"/>
	<path fill="#333333" d="M850.211,183.049c-0.852,4.255-3.849,6.512-8.178,6.512c-6.105,0-8.991-4.255-9.177-10.064
		c0-5.772,3.774-9.954,8.991-9.954c6.771,0,8.844,6.327,8.659,10.953h-14.32c-0.11,3.33,1.776,6.291,5.958,6.291
		c2.627,0,4.403-1.221,4.958-3.737H850.211z M847.177,177.72c-0.186-2.997-2.368-5.402-5.514-5.402
		c-3.256,0-5.291,2.442-5.477,5.402H847.177z"/>
	<path fill="#333333" d="M865.342,172.762h-3.219v-2.775h3.219v-2.849c0-3.108,1.851-4.736,5.292-4.736
		c0.592,0,1.442,0.111,2.035,0.296v2.738c-0.556-0.185-1.222-0.259-1.776-0.259c-1.518,0-2.405,0.481-2.405,2.146v2.664h3.7v2.775
		h-3.7v16.355h-3.146V172.762z"/>
	<path fill="#333333" d="M883.25,169.543c6.068,0,9.287,4.403,9.287,10.027c0,5.587-3.219,9.991-9.287,9.991
		s-9.288-4.403-9.288-9.991C873.962,173.946,877.182,169.543,883.25,169.543z M883.25,186.786c3.293,0,5.957-2.59,5.957-7.216
		c0-4.625-2.664-7.252-5.957-7.252c-3.294,0-5.958,2.627-5.958,7.252C877.292,184.196,879.956,186.786,883.25,186.786z"/>
	<path fill="#333333" d="M896.124,169.987h2.961v4.033h0.073c1.518-3.108,3.627-4.588,7.031-4.477v3.33
		c-5.069,0-6.92,2.849-6.92,7.733v8.511h-3.146V169.987z"/>
	<path fill="#333333" d="M922.172,166.545h-3.146v-3.848h3.146V166.545z M919.026,169.987h3.146v19.13h-3.146V169.987z"/>
	<path fill="#333333" d="M927.056,169.987h2.96v3.034h0.074c1.332-2.368,3.441-3.478,6.217-3.478c5.032,0,6.586,2.886,6.586,6.993
		v12.581h-3.146v-12.951c0-2.368-1.479-3.849-3.885-3.849c-3.812,0-5.661,2.553-5.661,5.995v10.805h-3.146V169.987z"/>
	<path fill="#333333" d="M949.552,183.086c0.111,2.812,2.591,3.7,5.144,3.7c1.961,0,4.625-0.444,4.625-2.849
		c0-4.921-12.507-1.591-12.507-8.955c0-3.849,3.774-5.439,7.142-5.439c4.293,0,7.549,1.332,7.845,5.994h-3.146
		c-0.185-2.442-2.404-3.219-4.439-3.219c-1.888,0-4.07,0.518-4.07,2.442c0,2.22,3.33,2.664,6.253,3.33
		c3.146,0.703,6.254,1.776,6.254,5.439c0,4.588-4.256,6.031-8.141,6.031c-4.293,0-7.919-1.739-8.104-6.475H949.552z"/>
	<path fill="#333333" d="M970.494,169.987h3.812v2.775h-3.812v11.877c0,1.48,0.407,1.702,2.368,1.702h1.443v2.775H971.9
		c-3.256,0-4.552-0.666-4.552-4.181v-12.174h-3.256v-2.775h3.256v-5.735h3.146V169.987z"/>
	<path fill="#333333" d="M994.729,189.043c-0.555,0.333-1.332,0.518-2.257,0.518c-1.629,0-2.665-0.888-2.665-2.96
		c-1.738,2.072-4.07,2.96-6.734,2.96c-3.478,0-6.327-1.517-6.327-5.365c0-4.329,3.22-5.292,6.476-5.883
		c3.441-0.703,6.438-0.407,6.438-2.812c0-2.775-2.294-3.183-4.256-3.183c-2.664,0-4.625,0.814-4.772,3.626h-3.146
		c0.185-4.736,3.812-6.401,8.104-6.401c3.441,0,7.179,0.777,7.179,5.254v9.842c0,1.48,0,2.146,0.999,2.146
		c0.296,0,0.629-0.074,0.962-0.185V189.043z M989.623,179.237c-2.442,1.813-9.547,0.037-9.547,4.736c0,2.072,1.776,2.812,3.7,2.812
		c4.145,0,5.847-2.553,5.847-4.33V179.237z"/>
	<path fill="#333333" d="M997.835,162.697h3.146v26.42h-3.146V162.697z"/>
	<path fill="#333333" d="M1006.049,162.697h3.146v26.42h-3.146V162.697z"/>
	<path fill="#333333" d="M1031.025,189.043c-0.555,0.333-1.332,0.518-2.257,0.518c-1.629,0-2.665-0.888-2.665-2.96
		c-1.738,2.072-4.07,2.96-6.734,2.96c-3.478,0-6.327-1.517-6.327-5.365c0-4.329,3.22-5.292,6.476-5.883
		c3.441-0.703,6.438-0.407,6.438-2.812c0-2.775-2.294-3.183-4.256-3.183c-2.664,0-4.625,0.814-4.772,3.626h-3.146
		c0.185-4.736,3.812-6.401,8.104-6.401c3.441,0,7.179,0.777,7.179,5.254v9.842c0,1.48,0,2.146,0.999,2.146
		c0.296,0,0.629-0.074,0.962-0.185V189.043z M1025.919,179.237c-2.442,1.813-9.547,0.037-9.547,4.736c0,2.072,1.776,2.812,3.7,2.812
		c4.145,0,5.847-2.553,5.847-4.33V179.237z"/>
	<path fill="#333333" d="M1038.312,169.987h3.812v2.775h-3.812v11.877c0,1.48,0.407,1.702,2.368,1.702h1.443v2.775h-2.405
		c-3.256,0-4.552-0.666-4.552-4.181v-12.174h-3.256v-2.775h3.256v-5.735h3.146V169.987z"/>
	<path fill="#333333" d="M1048.931,166.545h-3.146v-3.848h3.146V166.545z M1045.785,169.987h3.146v19.13h-3.146V169.987z"/>
	<path fill="#333333" d="M1062.066,169.543c6.068,0,9.287,4.403,9.287,10.027c0,5.587-3.219,9.991-9.287,9.991
		s-9.288-4.403-9.288-9.991C1052.778,173.946,1055.998,169.543,1062.066,169.543z M1062.066,186.786c3.293,0,5.957-2.59,5.957-7.216
		c0-4.625-2.664-7.252-5.957-7.252c-3.294,0-5.958,2.627-5.958,7.252C1056.108,184.196,1058.772,186.786,1062.066,186.786z"/>
	<path fill="#333333" d="M1075.052,169.987h2.96v3.034h0.074c1.332-2.368,3.441-3.478,6.217-3.478c5.032,0,6.586,2.886,6.586,6.993
		v12.581h-3.146v-12.951c0-2.368-1.479-3.849-3.885-3.849c-3.812,0-5.661,2.553-5.661,5.995v10.805h-3.146V169.987z"/>
</g>
<g>
	<path fill="#333333" d="M726.617,367.194h11.582c5.292,0,8.104,2.886,8.104,7.808s-2.812,7.845-8.104,7.808h-8.066v10.805h-3.516
		V367.194z M730.133,379.849h6.883c3.996,0.037,5.772-1.702,5.772-4.847s-1.776-4.847-5.772-4.847h-6.883V379.849z"/>
	<path fill="#333333" d="M766.394,387.546c-0.852,4.255-3.849,6.512-8.178,6.512c-6.105,0-8.991-4.255-9.177-10.064
		c0-5.772,3.774-9.954,8.991-9.954c6.771,0,8.844,6.327,8.659,10.953h-14.32c-0.11,3.33,1.776,6.291,5.958,6.291
		c2.627,0,4.403-1.221,4.958-3.737H766.394z M763.359,382.217c-0.186-2.997-2.368-5.402-5.514-5.402
		c-3.256,0-5.291,2.442-5.477,5.402H763.359z"/>
	<path fill="#333333" d="M769.832,374.484h2.961v4.033h0.073c1.518-3.108,3.627-4.588,7.031-4.477v3.33
		c-5.069,0-6.92,2.849-6.92,7.733v8.511h-3.146V374.484z"/>
	<path fill="#333333" d="M783.559,377.259h-3.219v-2.775h3.219v-2.849c0-3.108,1.851-4.736,5.292-4.736
		c0.592,0,1.442,0.111,2.035,0.296v2.738c-0.556-0.185-1.222-0.259-1.776-0.259c-1.518,0-2.405,0.481-2.405,2.146v2.664h3.7v2.775
		h-3.7v16.355h-3.146V377.259z"/>
	<path fill="#333333" d="M801.467,374.04c6.068,0,9.287,4.403,9.287,10.027c0,5.587-3.219,9.991-9.287,9.991
		s-9.288-4.403-9.288-9.991C792.179,378.443,795.398,374.04,801.467,374.04z M801.467,391.283c3.293,0,5.957-2.59,5.957-7.216
		c0-4.625-2.664-7.252-5.957-7.252c-3.294,0-5.958,2.627-5.958,7.252C795.509,388.693,798.173,391.283,801.467,391.283z"/>
	<path fill="#333333" d="M814.341,374.484h2.961v4.033h0.073c1.518-3.108,3.627-4.588,7.031-4.477v3.33
		c-5.069,0-6.92,2.849-6.92,7.733v8.511h-3.146V374.484z"/>
	<path fill="#333333" d="M826.772,374.484h2.96v2.812h0.074c1.443-2.183,3.479-3.256,6.18-3.256c2.368,0,4.478,0.888,5.254,3.256
		c1.295-2.072,3.516-3.256,5.995-3.256c3.811,0,6.364,1.591,6.364,5.55v14.024h-3.146V381.07c0-2.368-0.629-4.255-3.7-4.255
		s-4.995,1.924-4.995,4.884v11.915h-3.146V381.07c0-2.479-0.777-4.255-3.589-4.255c-3.7,0-5.106,3.404-5.106,4.884v11.915h-3.146
		V374.484z"/>
	<path fill="#333333" d="M871.949,371.042h-3.146v-3.848h3.146V371.042z M868.804,374.484h3.146v19.13h-3.146V374.484z"/>
	<path fill="#333333" d="M876.833,374.484h2.96v3.034h0.074c1.332-2.368,3.441-3.478,6.217-3.478c5.032,0,6.586,2.886,6.586,6.993
		v12.581h-3.146v-12.951c0-2.368-1.479-3.849-3.885-3.849c-3.812,0-5.661,2.553-5.661,5.995v10.805h-3.146V374.484z"/>
	<path fill="#333333" d="M899.329,387.583c0.111,2.812,2.591,3.7,5.144,3.7c1.961,0,4.625-0.444,4.625-2.849
		c0-4.921-12.507-1.591-12.507-8.955c0-3.849,3.774-5.439,7.142-5.439c4.293,0,7.549,1.332,7.845,5.994h-3.146
		c-0.185-2.442-2.404-3.219-4.439-3.219c-1.888,0-4.07,0.518-4.07,2.442c0,2.22,3.33,2.664,6.253,3.33
		c3.146,0.703,6.254,1.776,6.254,5.439c0,4.588-4.256,6.031-8.141,6.031c-4.293,0-7.919-1.739-8.104-6.475H899.329z"/>
	<path fill="#333333" d="M920.271,374.484h3.812v2.775h-3.812v11.877c0,1.48,0.407,1.702,2.368,1.702h1.443v2.775h-2.405
		c-3.256,0-4.552-0.666-4.552-4.181v-12.174h-3.256v-2.775h3.256v-5.735h3.146V374.484z"/>
	<path fill="#333333" d="M944.507,393.54c-0.555,0.333-1.332,0.518-2.257,0.518c-1.629,0-2.665-0.888-2.665-2.96
		c-1.738,2.072-4.07,2.96-6.734,2.96c-3.478,0-6.327-1.517-6.327-5.365c0-4.329,3.22-5.292,6.476-5.883
		c3.441-0.703,6.438-0.407,6.438-2.812c0-2.775-2.294-3.183-4.256-3.183c-2.664,0-4.625,0.814-4.772,3.626h-3.146
		c0.185-4.736,3.812-6.401,8.104-6.401c3.441,0,7.179,0.777,7.179,5.254v9.842c0,1.48,0,2.146,0.999,2.146
		c0.296,0,0.629-0.074,0.962-0.185V393.54z M939.4,383.734c-2.442,1.813-9.547,0.037-9.547,4.736c0,2.072,1.776,2.812,3.7,2.812
		c4.145,0,5.847-2.553,5.847-4.33V383.734z"/>
	<path fill="#333333" d="M947.612,367.194h3.146v26.42h-3.146V367.194z"/>
	<path fill="#333333" d="M955.826,367.194h3.146v26.42h-3.146V367.194z"/>
	<path fill="#333333" d="M980.803,393.54c-0.555,0.333-1.332,0.518-2.257,0.518c-1.629,0-2.665-0.888-2.665-2.96
		c-1.738,2.072-4.07,2.96-6.734,2.96c-3.478,0-6.327-1.517-6.327-5.365c0-4.329,3.22-5.292,6.476-5.883
		c3.441-0.703,6.438-0.407,6.438-2.812c0-2.775-2.294-3.183-4.256-3.183c-2.664,0-4.625,0.814-4.772,3.626h-3.146
		c0.185-4.736,3.812-6.401,8.104-6.401c3.441,0,7.179,0.777,7.179,5.254v9.842c0,1.48,0,2.146,0.999,2.146
		c0.296,0,0.629-0.074,0.962-0.185V393.54z M975.696,383.734c-2.442,1.813-9.547,0.037-9.547,4.736c0,2.072,1.776,2.812,3.7,2.812
		c4.145,0,5.847-2.553,5.847-4.33V383.734z"/>
	<path fill="#333333" d="M988.09,374.484h3.812v2.775h-3.812v11.877c0,1.48,0.407,1.702,2.368,1.702h1.443v2.775h-2.405
		c-3.256,0-4.552-0.666-4.552-4.181v-12.174h-3.256v-2.775h3.256v-5.735h3.146V374.484z"/>
	<path fill="#333333" d="M998.708,371.042h-3.146v-3.848h3.146V371.042z M995.562,374.484h3.146v19.13h-3.146V374.484z"/>
	<path fill="#333333" d="M1011.844,374.04c6.068,0,9.287,4.403,9.287,10.027c0,5.587-3.219,9.991-9.287,9.991
		s-9.288-4.403-9.288-9.991C1002.556,378.443,1005.775,374.04,1011.844,374.04z M1011.844,391.283c3.293,0,5.957-2.59,5.957-7.216
		c0-4.625-2.664-7.252-5.957-7.252c-3.294,0-5.958,2.627-5.958,7.252C1005.886,388.693,1008.55,391.283,1011.844,391.283z"/>
	<path fill="#333333" d="M1024.829,374.484h2.96v3.034h0.074c1.332-2.368,3.441-3.478,6.217-3.478c5.032,0,6.586,2.886,6.586,6.993
		v12.581h-3.146v-12.951c0-2.368-1.479-3.849-3.885-3.849c-3.812,0-5.661,2.553-5.661,5.995v10.805h-3.146V374.484z"/>
</g>
<g>
	<path fill="#333333" d="M914.607,462.685h-8.807v-2.96h21.128v2.96h-8.807v23.459h-3.515V462.685z"/>
	<path fill="#333333" d="M929.221,467.014h2.961v4.033h0.073c1.518-3.108,3.627-4.588,7.031-4.477v3.33
		c-5.069,0-6.92,2.849-6.92,7.733v8.511h-3.146V467.014z"/>
	<path fill="#333333" d="M958.6,486.07c-0.555,0.333-1.332,0.518-2.257,0.518c-1.629,0-2.665-0.888-2.665-2.96
		c-1.738,2.072-4.07,2.96-6.734,2.96c-3.478,0-6.327-1.517-6.327-5.365c0-4.329,3.22-5.292,6.476-5.883
		c3.441-0.703,6.438-0.407,6.438-2.812c0-2.775-2.294-3.183-4.256-3.183c-2.664,0-4.625,0.814-4.772,3.626h-3.146
		c0.185-4.736,3.812-6.401,8.104-6.401c3.441,0,7.179,0.777,7.179,5.254v9.842c0,1.48,0,2.146,0.999,2.146
		c0.296,0,0.629-0.074,0.962-0.185V486.07z M953.493,476.265c-2.442,1.813-9.547,0.037-9.547,4.736c0,2.072,1.776,2.812,3.7,2.812
		c4.145,0,5.847-2.553,5.847-4.33V476.265z"/>
	<path fill="#333333" d="M961.521,467.014h2.96v3.034h0.074c1.332-2.368,3.441-3.478,6.217-3.478c5.032,0,6.586,2.886,6.586,6.993
		v12.581h-3.146v-12.951c0-2.368-1.479-3.849-3.885-3.849c-3.812,0-5.661,2.553-5.661,5.995v10.805h-3.146V467.014z"/>
	<path fill="#333333" d="M984.017,480.113c0.111,2.812,2.591,3.7,5.144,3.7c1.961,0,4.625-0.444,4.625-2.849
		c0-4.921-12.507-1.591-12.507-8.955c0-3.849,3.774-5.439,7.142-5.439c4.293,0,7.549,1.332,7.845,5.994h-3.146
		c-0.185-2.442-2.404-3.219-4.439-3.219c-1.888,0-4.07,0.518-4.07,2.442c0,2.22,3.33,2.664,6.253,3.33
		c3.146,0.703,6.254,1.776,6.254,5.439c0,4.588-4.256,6.031-8.141,6.031c-4.293,0-7.919-1.739-8.104-6.475H984.017z"/>
	<path fill="#333333" d="M1001.888,469.79h-3.219v-2.775h3.219v-2.849c0-3.108,1.851-4.736,5.292-4.736
		c0.592,0,1.442,0.111,2.035,0.296v2.738c-0.556-0.185-1.222-0.259-1.776-0.259c-1.518,0-2.405,0.481-2.405,2.146v2.664h3.7v2.775
		h-3.7v16.355h-3.146V469.79z"/>
	<path fill="#333333" d="M1027.862,480.076c-0.852,4.255-3.849,6.512-8.178,6.512c-6.105,0-8.991-4.255-9.177-10.064
		c0-5.772,3.774-9.954,8.991-9.954c6.771,0,8.844,6.327,8.659,10.953h-14.32c-0.11,3.33,1.776,6.291,5.958,6.291
		c2.627,0,4.403-1.221,4.958-3.737H1027.862z M1024.828,474.748c-0.186-2.997-2.368-5.402-5.514-5.402
		c-3.256,0-5.291,2.442-5.477,5.402H1024.828z"/>
	<path fill="#333333" d="M1031.301,467.014h2.961v4.033h0.073c1.518-3.108,3.627-4.588,7.031-4.477v3.33
		c-5.069,0-6.92,2.849-6.92,7.733v8.511h-3.146V467.014z"/>
	<path fill="#333333" d="M1058.385,467.014h3.812v2.775h-3.812v11.877c0,1.48,0.407,1.702,2.368,1.702h1.443v2.775h-2.405
		c-3.256,0-4.552-0.666-4.552-4.181V469.79h-3.256v-2.775h3.256v-5.735h3.146V467.014z"/>
	<path fill="#333333" d="M1073.925,466.57c6.068,0,9.287,4.403,9.287,10.027c0,5.587-3.219,9.991-9.287,9.991
		s-9.288-4.403-9.288-9.991C1064.637,470.974,1067.856,466.57,1073.925,466.57z M1073.925,483.813c3.293,0,5.957-2.59,5.957-7.216
		c0-4.625-2.664-7.252-5.957-7.252c-3.294,0-5.958,2.627-5.958,7.252C1067.967,481.223,1070.631,483.813,1073.925,483.813z"/>
	<path fill="#333333" d="M1097.308,467.014h3.145v2.59h0.074c1.036-2.109,3.441-3.034,6.105-3.034c5.884,0,8.807,4.662,8.807,10.064
		c0,5.439-2.886,9.954-8.732,9.954c-1.924,0-4.811-0.74-6.18-2.997h-0.074v9.88h-3.145V467.014z M1106.188,469.345
		c-4.255,0-5.846,3.664-5.846,7.216c0,3.737,1.702,7.252,6.031,7.252c4.292,0,5.735-3.664,5.735-7.4
		C1112.108,472.824,1110.258,469.345,1106.188,469.345z"/>
	<path fill="#333333" d="M1119.025,467.014h2.961v4.033h0.073c1.518-3.108,3.627-4.588,7.031-4.477v3.33
		c-5.069,0-6.92,2.849-6.92,7.733v8.511h-3.146V467.014z"/>
	<path fill="#333333" d="M1147.775,480.076c-0.852,4.255-3.849,6.512-8.178,6.512c-6.105,0-8.991-4.255-9.177-10.064
		c0-5.772,3.774-9.954,8.991-9.954c6.771,0,8.844,6.327,8.659,10.953h-14.32c-0.11,3.33,1.776,6.291,5.958,6.291
		c2.627,0,4.403-1.221,4.958-3.737H1147.775z M1144.741,474.748c-0.186-2.997-2.368-5.402-5.514-5.402
		c-3.256,0-5.291,2.442-5.477,5.402H1144.741z"/>
	<path fill="#333333" d="M1150.808,474.378h10.693v2.96h-10.693V474.378z"/>
	<path fill="#333333" d="M1165.829,467.014h3.145v2.59h0.074c1.036-2.109,3.441-3.034,6.105-3.034c5.884,0,8.807,4.662,8.807,10.064
		c0,5.439-2.886,9.954-8.732,9.954c-1.924,0-4.811-0.74-6.18-2.997h-0.074v9.88h-3.145V467.014z M1174.709,469.345
		c-4.255,0-5.846,3.664-5.846,7.216c0,3.737,1.702,7.252,6.031,7.252c4.292,0,5.735-3.664,5.735-7.4
		C1180.63,472.824,1178.779,469.345,1174.709,469.345z"/>
	<path fill="#333333" d="M1187.547,467.014h2.961v4.033h0.073c1.518-3.108,3.627-4.588,7.031-4.477v3.33
		c-5.069,0-6.92,2.849-6.92,7.733v8.511h-3.146V467.014z"/>
	<path fill="#333333" d="M1208.23,466.57c6.068,0,9.287,4.403,9.287,10.027c0,5.587-3.219,9.991-9.287,9.991
		s-9.288-4.403-9.288-9.991C1198.942,470.974,1202.162,466.57,1208.23,466.57z M1208.23,483.813c3.293,0,5.957-2.59,5.957-7.216
		c0-4.625-2.664-7.252-5.957-7.252c-3.294,0-5.958,2.627-5.958,7.252C1202.272,481.223,1204.937,483.813,1208.23,483.813z"/>
	<path fill="#333333" d="M1238.311,486.145h-3.145v-2.59h-0.074c-1.036,2.109-3.441,3.034-6.105,3.034
		c-5.884,0-8.807-4.662-8.807-10.064s2.887-9.954,8.732-9.954c1.925,0,4.811,0.74,6.18,2.997h0.074v-9.843h3.145V486.145z
		 M1229.431,483.813c4.255,0,5.846-3.664,5.846-7.216c0-3.737-1.702-7.252-6.031-7.252c-4.292,0-5.735,3.664-5.735,7.401
		C1223.51,480.335,1225.36,483.813,1229.431,483.813z"/>
	<path fill="#333333" d="M1258.993,486.145h-2.96v-3.034h-0.074c-1.332,2.368-3.441,3.478-6.216,3.478
		c-5.033,0-6.587-2.886-6.587-6.993v-12.581h3.146v12.951c0,2.368,1.479,3.848,3.885,3.848c3.812,0,5.661-2.553,5.661-5.995v-10.805
		h3.146V486.145z"/>
	<path fill="#333333" d="M1276.717,473.157c-0.481-2.405-2.109-3.812-4.736-3.812c-4.552,0-5.958,3.626-5.958,7.475
		c0,3.552,1.592,6.994,5.588,6.994c3.071,0,4.847-1.739,5.254-4.663h3.22c-0.703,4.7-3.59,7.438-8.437,7.438
		c-5.847,0-8.955-4.033-8.955-9.769s2.96-10.25,9.028-10.25c4.366,0,7.771,2.035,8.252,6.586H1276.717z"/>
	<path fill="#333333" d="M1287.963,467.014h3.812v2.775h-3.812v11.877c0,1.48,0.407,1.702,2.368,1.702h1.443v2.775h-2.405
		c-3.256,0-4.552-0.666-4.552-4.181V469.79h-3.256v-2.775h3.256v-5.735h3.146V467.014z"/>
	<path fill="#333333" d="M1298.581,463.573h-3.146v-3.848h3.146V463.573z M1295.436,467.014h3.146v19.13h-3.146V467.014z"/>
	<path fill="#333333" d="M1311.717,466.57c6.068,0,9.287,4.403,9.287,10.027c0,5.587-3.219,9.991-9.287,9.991
		s-9.288-4.403-9.288-9.991C1302.429,470.974,1305.648,466.57,1311.717,466.57z M1311.717,483.813c3.293,0,5.957-2.59,5.957-7.216
		c0-4.625-2.664-7.252-5.957-7.252c-3.294,0-5.958,2.627-5.958,7.252C1305.759,481.223,1308.423,483.813,1311.717,483.813z"/>
	<path fill="#333333" d="M1324.702,467.014h2.96v3.034h0.074c1.332-2.368,3.441-3.478,6.217-3.478c5.032,0,6.586,2.886,6.586,6.993
		v12.581h-3.146v-12.951c0-2.368-1.479-3.849-3.885-3.849c-3.812,0-5.661,2.553-5.661,5.995v10.805h-3.146V467.014z"/>
</g>
<path fill="#1365A8" d="M679.164,441.291c20.472,0,37.067,16.595,37.067,37.067c0,20.472-16.596,37.067-37.067,37.067
	s-37.067-16.596-37.067-37.067C642.097,457.885,658.692,441.291,679.164,441.291"/>
<g>
	<path fill="#333333" d="M919.011,580.639h-3.996l-9.325-26.42h3.812l7.549,22.905h0.073l7.623-22.905h3.663L919.011,580.639z"/>
	<path fill="#333333" d="M947.02,574.57c-0.852,4.256-3.849,6.513-8.178,6.513c-6.105,0-8.991-4.255-9.177-10.064
		c0-5.772,3.774-9.954,8.991-9.954c6.771,0,8.844,6.328,8.659,10.953h-14.32c-0.11,3.33,1.776,6.291,5.958,6.291
		c2.627,0,4.403-1.222,4.958-3.738H947.02z M943.985,569.242c-0.186-2.997-2.368-5.402-5.514-5.402
		c-3.256,0-5.291,2.442-5.477,5.402H943.985z"/>
	<path fill="#333333" d="M950.458,561.509h2.961v4.033h0.073c1.518-3.108,3.627-4.589,7.031-4.478v3.33
		c-5.069,0-6.92,2.85-6.92,7.734v8.51h-3.146V561.509z"/>
	<path fill="#333333" d="M966.22,558.067h-3.146v-3.849h3.146V558.067z M963.074,561.509h3.146v19.13h-3.146V561.509z"/>
	<path fill="#333333" d="M972.398,564.284h-3.219v-2.775h3.219v-2.849c0-3.109,1.851-4.736,5.292-4.736
		c0.592,0,1.442,0.11,2.035,0.295v2.738c-0.556-0.185-1.222-0.258-1.776-0.258c-1.518,0-2.405,0.48-2.405,2.146v2.664h3.7v2.775
		h-3.7v16.354h-3.146V564.284z"/>
	<path fill="#333333" d="M989.566,583.192c-1.48,3.7-2.738,5.106-5.551,5.106c-0.74,0-1.479-0.074-2.183-0.333v-2.886
		c0.592,0.185,1.221,0.443,1.85,0.443c1.295,0,1.998-0.592,2.591-1.739l1.295-3.256l-7.586-19.02h3.553l5.587,15.652h0.074
		l5.365-15.652h3.33L989.566,583.192z"/>
	<path fill="#333333" d="M1022.533,553.59c8.4,0,12.655,6.624,12.655,13.84c0,7.215-4.255,13.838-12.655,13.838
		c-8.399,0-12.654-6.623-12.654-13.838C1009.879,560.214,1014.134,553.59,1022.533,553.59z M1022.533,578.309
		c6.438,0,9.14-5.551,9.14-10.879s-2.701-10.879-9.14-10.879s-9.14,5.551-9.14,10.879S1016.095,578.309,1022.533,578.309z"/>
	<path fill="#333333" d="M1040.256,564.284h-3.219v-2.775h3.219v-2.849c0-3.109,1.851-4.736,5.292-4.736
		c0.592,0,1.442,0.11,2.035,0.295v2.738c-0.556-0.185-1.222-0.258-1.776-0.258c-1.518,0-2.405,0.48-2.405,2.146v2.664h3.7v2.775
		h-3.7v16.354h-3.146V564.284z"/>
	<path fill="#333333" d="M1051.207,564.284h-3.219v-2.775h3.219v-2.849c0-3.109,1.851-4.736,5.292-4.736
		c0.592,0,1.442,0.11,2.035,0.295v2.738c-0.556-0.185-1.222-0.258-1.776-0.258c-1.518,0-2.405,0.48-2.405,2.146v2.664h3.7v2.775
		h-3.7v16.354h-3.146V564.284z"/>
	<path fill="#333333" d="M1077.182,574.57c-0.852,4.256-3.849,6.513-8.178,6.513c-6.105,0-8.991-4.255-9.177-10.064
		c0-5.772,3.774-9.954,8.991-9.954c6.771,0,8.844,6.328,8.659,10.953h-14.32c-0.11,3.33,1.776,6.291,5.958,6.291
		c2.627,0,4.403-1.222,4.958-3.738H1077.182z M1074.147,569.242c-0.186-2.997-2.368-5.402-5.514-5.402
		c-3.256,0-5.291,2.442-5.477,5.402H1074.147z"/>
	<path fill="#333333" d="M1080.62,561.509h2.961v4.033h0.073c1.518-3.108,3.627-4.589,7.031-4.478v3.33
		c-5.069,0-6.92,2.85-6.92,7.734v8.51h-3.146V561.509z"/>
	<path fill="#333333" d="M1096.382,558.067h-3.146v-3.849h3.146V558.067z M1093.236,561.509h3.146v19.13h-3.146V561.509z"/>
	<path fill="#333333" d="M1101.266,561.509h2.96v3.034h0.074c1.332-2.368,3.441-3.479,6.217-3.479c5.032,0,6.586,2.887,6.586,6.994
		v12.58h-3.146v-12.95c0-2.368-1.479-3.849-3.885-3.849c-3.812,0-5.661,2.553-5.661,5.994v10.805h-3.146V561.509z"/>
	<path fill="#333333" d="M1138.341,579.012c0,6.253-2.812,9.398-8.881,9.398c-3.589,0-7.733-1.48-7.918-5.625h3.146
		c0.11,2.258,2.923,3.108,4.958,3.108c4.107,0,5.735-2.96,5.735-7.253v-1.258h-0.074c-1.073,2.331-3.515,3.479-5.957,3.479
		c-5.698,0-8.548-4.478-8.548-9.695c0-4.514,2.184-10.102,8.844-10.102c2.405,0,4.551,1.073,5.698,3.183h0.037v-2.738h2.96V579.012z
		 M1135.232,570.686c0-3.367-1.479-6.846-5.439-6.846c-4.033,0-5.661,3.293-5.661,6.957c0,3.441,1.259,7.289,5.402,7.289
		C1133.679,578.086,1135.232,574.275,1135.232,570.686z"/>
	<path fill="#333333" d="M1154.656,564.284h-3.219v-2.775h3.219v-2.849c0-3.109,1.851-4.736,5.292-4.736
		c0.592,0,1.442,0.11,2.035,0.295v2.738c-0.556-0.185-1.222-0.258-1.776-0.258c-1.518,0-2.405,0.48-2.405,2.146v2.664h3.7v2.775
		h-3.7v16.354h-3.146V564.284z"/>
	<path fill="#333333" d="M1180.149,580.639h-2.96v-3.033h-0.074c-1.332,2.367-3.441,3.478-6.216,3.478
		c-5.033,0-6.587-2.886-6.587-6.993v-12.581h3.146v12.951c0,2.368,1.479,3.849,3.885,3.849c3.812,0,5.661-2.554,5.661-5.995v-10.805
		h3.146V580.639z"/>
	<path fill="#333333" d="M1184.885,561.509h2.96v3.034h0.074c1.332-2.368,3.441-3.479,6.217-3.479c5.032,0,6.586,2.887,6.586,6.994
		v12.58h-3.146v-12.95c0-2.368-1.479-3.849-3.885-3.849c-3.812,0-5.661,2.553-5.661,5.994v10.805h-3.146V561.509z"/>
	<path fill="#333333" d="M1218.445,567.651c-0.481-2.405-2.109-3.812-4.736-3.812c-4.552,0-5.958,3.627-5.958,7.475
		c0,3.553,1.592,6.994,5.588,6.994c3.071,0,4.847-1.74,5.254-4.663h3.22c-0.703,4.7-3.59,7.438-8.437,7.438
		c-5.847,0-8.955-4.033-8.955-9.769s2.96-10.25,9.028-10.25c4.366,0,7.771,2.035,8.252,6.587H1218.445z"/>
	<path fill="#333333" d="M1229.691,561.509h3.812v2.775h-3.812v11.878c0,1.48,0.407,1.701,2.368,1.701h1.443v2.775h-2.405
		c-3.256,0-4.552-0.666-4.552-4.181v-12.174h-3.256v-2.775h3.256v-5.735h3.146V561.509z"/>
	<path fill="#333333" d="M1240.31,558.067h-3.146v-3.849h3.146V558.067z M1237.164,561.509h3.146v19.13h-3.146V561.509z"/>
	<path fill="#333333" d="M1253.445,561.064c6.068,0,9.287,4.404,9.287,10.027c0,5.588-3.219,9.991-9.287,9.991
		s-9.288-4.403-9.288-9.991C1244.157,565.469,1247.377,561.064,1253.445,561.064z M1253.445,578.309
		c3.293,0,5.957-2.591,5.957-7.217c0-4.625-2.664-7.252-5.957-7.252c-3.294,0-5.958,2.627-5.958,7.252
		C1247.487,575.718,1250.151,578.309,1253.445,578.309z"/>
	<path fill="#333333" d="M1266.431,561.509h2.96v3.034h0.074c1.332-2.368,3.441-3.479,6.217-3.479c5.032,0,6.586,2.887,6.586,6.994
		v12.58h-3.146v-12.95c0-2.368-1.479-3.849-3.885-3.849c-3.812,0-5.661,2.553-5.661,5.994v10.805h-3.146V561.509z"/>
	<path fill="#333333" d="M1303.95,580.564c-0.555,0.334-1.332,0.519-2.257,0.519c-1.629,0-2.665-0.888-2.665-2.96
		c-1.738,2.072-4.07,2.96-6.734,2.96c-3.478,0-6.327-1.517-6.327-5.365c0-4.329,3.22-5.292,6.476-5.884
		c3.441-0.703,6.438-0.406,6.438-2.812c0-2.775-2.294-3.183-4.256-3.183c-2.664,0-4.625,0.814-4.772,3.627h-3.146
		c0.185-4.736,3.812-6.402,8.104-6.402c3.441,0,7.179,0.777,7.179,5.255v9.843c0,1.48,0,2.146,0.999,2.146
		c0.296,0,0.629-0.074,0.962-0.186V580.564z M1298.844,570.76c-2.442,1.812-9.547,0.037-9.547,4.736c0,2.072,1.776,2.812,3.7,2.812
		c4.145,0,5.847-2.554,5.847-4.33V570.76z"/>
	<path fill="#333333" d="M1307.056,554.219h3.146v26.42h-3.146V554.219z"/>
	<path fill="#333333" d="M1318.415,558.067h-3.146v-3.849h3.146V558.067z M1315.27,561.509h3.146v19.13h-3.146V561.509z"/>
	<path fill="#333333" d="M1327.665,561.509h3.812v2.775h-3.812v11.878c0,1.48,0.407,1.701,2.368,1.701h1.443v2.775h-2.405
		c-3.256,0-4.552-0.666-4.552-4.181v-12.174h-3.256v-2.775h3.256v-5.735h3.146V561.509z"/>
	<path fill="#333333" d="M1342.465,583.192c-1.48,3.7-2.738,5.106-5.551,5.106c-0.74,0-1.479-0.074-2.183-0.333v-2.886
		c0.592,0.185,1.221,0.443,1.85,0.443c1.295,0,1.998-0.592,2.591-1.739l1.295-3.256l-7.586-19.02h3.553l5.587,15.652h0.074
		l5.365-15.652h3.33L1342.465,583.192z"/>
</g>
<path fill="#1365A8" d="M679.164,535.785c20.472,0,37.067,16.595,37.067,37.067c0,20.471-16.596,37.066-37.067,37.066
	s-37.067-16.596-37.067-37.066C642.097,552.38,658.692,535.785,679.164,535.785"/>
<g>
	<path fill="#333333" d="M908.612,645.715h12.434c4.995,0,8.029,2.664,8.029,6.92c0,3.219-1.369,5.81-4.588,6.697v0.074
		c3.07,0.592,3.663,2.887,3.959,5.439c0.185,2.553,0.074,5.514,1.554,7.289h-3.922c-0.999-1.072-0.444-3.922-0.962-6.512
		c-0.407-2.553-0.999-4.773-4.403-4.773h-8.585v11.285h-3.516V645.715z M919.454,657.889c3.257,0,6.105-0.851,6.105-4.699
		c0-2.627-1.405-4.514-4.699-4.514h-8.732v9.213H919.454z"/>
	<path fill="#333333" d="M949.758,666.066c-0.852,4.256-3.849,6.513-8.178,6.513c-6.105,0-8.991-4.255-9.177-10.064
		c0-5.772,3.774-9.954,8.991-9.954c6.771,0,8.844,6.328,8.659,10.953h-14.32c-0.11,3.33,1.776,6.291,5.958,6.291
		c2.627,0,4.403-1.222,4.958-3.738H949.758z M946.724,660.738c-0.186-2.997-2.368-5.402-5.514-5.402
		c-3.256,0-5.291,2.442-5.477,5.402H946.724z"/>
	<path fill="#333333" d="M961.93,672.135h-3.368l-7.104-19.13h3.516l5.365,15.948h0.074l5.218-15.948h3.293L961.93,672.135z"/>
	<path fill="#333333" d="M975.138,649.563h-3.146v-3.849h3.146V649.563z M971.992,653.005h3.146v19.13h-3.146V653.005z"/>
	<path fill="#333333" d="M996.34,666.066c-0.852,4.256-3.849,6.513-8.178,6.513c-6.105,0-8.991-4.255-9.177-10.064
		c0-5.772,3.774-9.954,8.991-9.954c6.771,0,8.844,6.328,8.659,10.953h-14.32c-0.11,3.33,1.776,6.291,5.958,6.291
		c2.627,0,4.403-1.222,4.958-3.738H996.34z M993.306,660.738c-0.186-2.997-2.368-5.402-5.514-5.402
		c-3.256,0-5.291,2.442-5.477,5.402H993.306z"/>
	<path fill="#333333" d="M1018.835,672.135h-3.33l-3.886-15.207h-0.073l-3.849,15.207h-3.404l-6.143-19.13h3.479l4.329,15.652h0.074
		l3.848-15.652h3.441l3.996,15.652h0.074l4.293-15.652h3.256L1018.835,672.135z"/>
	<path fill="#333333" d="M1055.169,672.061c-0.555,0.334-1.332,0.519-2.257,0.519c-1.629,0-2.665-0.888-2.665-2.96
		c-1.738,2.072-4.07,2.96-6.734,2.96c-3.478,0-6.327-1.517-6.327-5.365c0-4.329,3.22-5.292,6.476-5.884
		c3.441-0.703,6.438-0.406,6.438-2.812c0-2.775-2.294-3.183-4.256-3.183c-2.664,0-4.625,0.814-4.772,3.627h-3.146
		c0.185-4.736,3.812-6.402,8.104-6.402c3.441,0,7.179,0.777,7.179,5.255v9.843c0,1.48,0,2.146,0.999,2.146
		c0.296,0,0.629-0.074,0.962-0.186V672.061z M1050.062,662.256c-2.442,1.812-9.547,0.037-9.547,4.736c0,2.072,1.776,2.812,3.7,2.812
		c4.145,0,5.847-2.554,5.847-4.33V662.256z"/>
	<path fill="#333333" d="M1058.09,653.005h2.96v3.034h0.074c1.332-2.368,3.441-3.479,6.217-3.479c5.032,0,6.586,2.887,6.586,6.994
		v12.58h-3.146v-12.95c0-2.368-1.479-3.849-3.885-3.849c-3.812,0-5.661,2.553-5.661,5.994v10.805h-3.146V653.005z"/>
	<path fill="#333333" d="M1095.757,672.135h-3.145v-2.59h-0.074c-1.036,2.109-3.441,3.034-6.105,3.034
		c-5.884,0-8.807-4.662-8.807-10.064s2.887-9.954,8.732-9.954c1.925,0,4.811,0.74,6.18,2.998h0.074v-9.844h3.145V672.135z
		 M1086.877,669.805c4.255,0,5.846-3.664,5.846-7.217c0-3.736-1.702-7.252-6.031-7.252c-4.292,0-5.735,3.664-5.735,7.4
		C1080.956,666.326,1082.807,669.805,1086.877,669.805z"/>
	<path fill="#333333" d="M1110.777,653.005h2.961v4.033h0.073c1.518-3.108,3.627-4.589,7.031-4.478v3.33
		c-5.069,0-6.92,2.85-6.92,7.734v8.51h-3.146V653.005z"/>
	<path fill="#333333" d="M1139.527,666.066c-0.852,4.256-3.849,6.513-8.178,6.513c-6.105,0-8.991-4.255-9.177-10.064
		c0-5.772,3.774-9.954,8.991-9.954c6.771,0,8.844,6.328,8.659,10.953h-14.32c-0.11,3.33,1.776,6.291,5.958,6.291
		c2.627,0,4.403-1.222,4.958-3.738H1139.527z M1136.493,660.738c-0.186-2.997-2.368-5.402-5.514-5.402
		c-3.256,0-5.291,2.442-5.477,5.402H1136.493z"/>
	<path fill="#333333" d="M1143.262,645.715h3.146v26.42h-3.146V645.715z"/>
	<path fill="#333333" d="M1167.609,666.066c-0.852,4.256-3.849,6.513-8.178,6.513c-6.105,0-8.991-4.255-9.177-10.064
		c0-5.772,3.774-9.954,8.991-9.954c6.771,0,8.844,6.328,8.659,10.953h-14.32c-0.11,3.33,1.776,6.291,5.958,6.291
		c2.627,0,4.403-1.222,4.958-3.738H1167.609z M1164.575,660.738c-0.186-2.997-2.368-5.402-5.514-5.402
		c-3.256,0-5.291,2.442-5.477,5.402H1164.575z"/>
	<path fill="#333333" d="M1188.106,672.061c-0.555,0.334-1.332,0.519-2.257,0.519c-1.629,0-2.665-0.888-2.665-2.96
		c-1.738,2.072-4.07,2.96-6.734,2.96c-3.478,0-6.327-1.517-6.327-5.365c0-4.329,3.22-5.292,6.476-5.884
		c3.441-0.703,6.438-0.406,6.438-2.812c0-2.775-2.294-3.183-4.256-3.183c-2.664,0-4.625,0.814-4.772,3.627h-3.146
		c0.185-4.736,3.812-6.402,8.104-6.402c3.441,0,7.179,0.777,7.179,5.255v9.843c0,1.48,0,2.146,0.999,2.146
		c0.296,0,0.629-0.074,0.962-0.186V672.061z M1183,662.256c-2.442,1.812-9.547,0.037-9.547,4.736c0,2.072,1.776,2.812,3.7,2.812
		c4.145,0,5.847-2.554,5.847-4.33V662.256z"/>
	<path fill="#333333" d="M1192.951,666.104c0.111,2.812,2.591,3.701,5.144,3.701c1.961,0,4.625-0.445,4.625-2.85
		c0-4.922-12.507-1.592-12.507-8.955c0-3.848,3.774-5.439,7.142-5.439c4.293,0,7.549,1.332,7.845,5.994h-3.146
		c-0.185-2.441-2.404-3.219-4.439-3.219c-1.888,0-4.07,0.518-4.07,2.442c0,2.22,3.33,2.664,6.253,3.33
		c3.146,0.703,6.254,1.776,6.254,5.439c0,4.589-4.256,6.031-8.141,6.031c-4.293,0-7.919-1.739-8.104-6.476H1192.951z"/>
	<path fill="#333333" d="M1225.846,666.066c-0.852,4.256-3.849,6.513-8.178,6.513c-6.105,0-8.991-4.255-9.177-10.064
		c0-5.772,3.774-9.954,8.991-9.954c6.771,0,8.844,6.328,8.659,10.953h-14.32c-0.11,3.33,1.776,6.291,5.958,6.291
		c2.627,0,4.403-1.222,4.958-3.738H1225.846z M1222.812,660.738c-0.186-2.997-2.368-5.402-5.514-5.402
		c-3.256,0-5.291,2.442-5.477,5.402H1222.812z"/>
	<path fill="#333333" d="M1251.374,645.086c8.4,0,12.655,6.624,12.655,13.84c0,7.215-4.255,13.838-12.655,13.838
		c-8.399,0-12.654-6.623-12.654-13.838C1238.72,651.71,1242.975,645.086,1251.374,645.086z M1251.374,669.805
		c6.438,0,9.14-5.551,9.14-10.879s-2.701-10.879-9.14-10.879s-9.14,5.551-9.14,10.879S1244.936,669.805,1251.374,669.805z"/>
	<path fill="#333333" d="M1269.097,655.78h-3.219v-2.775h3.219v-2.849c0-3.109,1.851-4.736,5.292-4.736
		c0.592,0,1.442,0.11,2.035,0.295v2.738c-0.556-0.185-1.222-0.258-1.776-0.258c-1.518,0-2.405,0.48-2.405,2.146v2.664h3.7v2.775
		h-3.7v16.354h-3.146V655.78z"/>
	<path fill="#333333" d="M1280.048,655.78h-3.219v-2.775h3.219v-2.849c0-3.109,1.851-4.736,5.292-4.736
		c0.592,0,1.442,0.11,2.035,0.295v2.738c-0.556-0.185-1.222-0.258-1.776-0.258c-1.518,0-2.405,0.48-2.405,2.146v2.664h3.7v2.775
		h-3.7v16.354h-3.146V655.78z"/>
	<path fill="#333333" d="M1306.022,666.066c-0.852,4.256-3.849,6.513-8.178,6.513c-6.105,0-8.991-4.255-9.177-10.064
		c0-5.772,3.774-9.954,8.991-9.954c6.771,0,8.844,6.328,8.659,10.953h-14.32c-0.11,3.33,1.776,6.291,5.958,6.291
		c2.627,0,4.403-1.222,4.958-3.738H1306.022z M1302.988,660.738c-0.186-2.997-2.368-5.402-5.514-5.402
		c-3.256,0-5.291,2.442-5.477,5.402H1302.988z"/>
	<path fill="#333333" d="M1309.461,653.005h2.961v4.033h0.073c1.518-3.108,3.627-4.589,7.031-4.478v3.33
		c-5.069,0-6.92,2.85-6.92,7.734v8.51h-3.146V653.005z"/>
	<path fill="#333333" d="M1325.223,649.563h-3.146v-3.849h3.146V649.563z M1322.077,653.005h3.146v19.13h-3.146V653.005z"/>
	<path fill="#333333" d="M1330.106,653.005h2.96v3.034h0.074c1.332-2.368,3.441-3.479,6.217-3.479c5.032,0,6.586,2.887,6.586,6.994
		v12.58h-3.146v-12.95c0-2.368-1.479-3.849-3.885-3.849c-3.812,0-5.661,2.553-5.661,5.994v10.805h-3.146V653.005z"/>
	<path fill="#333333" d="M1367.182,670.508c0,6.253-2.812,9.398-8.881,9.398c-3.589,0-7.733-1.48-7.918-5.625h3.146
		c0.11,2.258,2.923,3.108,4.958,3.108c4.107,0,5.735-2.96,5.735-7.253v-1.258h-0.074c-1.073,2.331-3.515,3.479-5.957,3.479
		c-5.698,0-8.548-4.478-8.548-9.695c0-4.514,2.184-10.102,8.844-10.102c2.405,0,4.551,1.073,5.698,3.183h0.037v-2.738h2.96V670.508z
		 M1364.073,662.182c0-3.367-1.479-6.846-5.439-6.846c-4.033,0-5.661,3.293-5.661,6.957c0,3.441,1.258,7.289,5.402,7.289
		S1364.073,665.771,1364.073,662.182z"/>
	<path fill="#333333" d="M1386.568,653.005h3.812v2.775h-3.812v11.878c0,1.48,0.407,1.701,2.368,1.701h1.443v2.775h-2.405
		c-3.256,0-4.552-0.666-4.552-4.181V655.78h-3.256v-2.775h3.256v-5.735h3.146V653.005z"/>
	<path fill="#333333" d="M1402.108,652.561c6.068,0,9.287,4.404,9.287,10.027c0,5.588-3.219,9.991-9.287,9.991
		s-9.288-4.403-9.288-9.991C1392.82,656.965,1396.04,652.561,1402.108,652.561z M1402.108,669.805c3.293,0,5.957-2.591,5.957-7.217
		c0-4.625-2.664-7.252-5.957-7.252c-3.294,0-5.958,2.627-5.958,7.252C1396.15,667.214,1398.814,669.805,1402.108,669.805z"/>
	<path fill="#333333" d="M1425.491,653.005h3.145v2.591h0.074c1.036-2.109,3.441-3.035,6.105-3.035
		c5.884,0,8.807,4.662,8.807,10.064c0,5.439-2.886,9.954-8.732,9.954c-1.924,0-4.811-0.739-6.18-2.997h-0.074v9.88h-3.145V653.005z
		 M1434.371,655.336c-4.255,0-5.846,3.664-5.846,7.216c0,3.737,1.702,7.253,6.031,7.253c4.292,0,5.735-3.664,5.735-7.4
		C1440.292,658.814,1438.441,655.336,1434.371,655.336z"/>
	<path fill="#333333" d="M1447.209,653.005h2.961v4.033h0.073c1.518-3.108,3.627-4.589,7.031-4.478v3.33
		c-5.069,0-6.92,2.85-6.92,7.734v8.51h-3.146V653.005z"/>
	<path fill="#333333" d="M1467.893,652.561c6.068,0,9.287,4.404,9.287,10.027c0,5.588-3.219,9.991-9.287,9.991
		s-9.288-4.403-9.288-9.991C1458.604,656.965,1461.824,652.561,1467.893,652.561z M1467.893,669.805
		c3.293,0,5.957-2.591,5.957-7.217c0-4.625-2.664-7.252-5.957-7.252c-3.294,0-5.958,2.627-5.958,7.252
		C1461.935,667.214,1464.599,669.805,1467.893,669.805z"/>
	<path fill="#333333" d="M1497.973,672.135h-3.145v-2.59h-0.074c-1.036,2.109-3.441,3.034-6.105,3.034
		c-5.884,0-8.807-4.662-8.807-10.064s2.887-9.954,8.732-9.954c1.925,0,4.811,0.74,6.18,2.998h0.074v-9.844h3.145V672.135z
		 M1489.093,669.805c4.255,0,5.846-3.664,5.846-7.217c0-3.736-1.702-7.252-6.031-7.252c-4.292,0-5.735,3.664-5.735,7.4
		C1483.172,666.326,1485.022,669.805,1489.093,669.805z"/>
	<path fill="#333333" d="M1518.655,672.135h-2.96v-3.033h-0.074c-1.332,2.367-3.441,3.478-6.216,3.478
		c-5.033,0-6.587-2.886-6.587-6.993v-12.581h3.146v12.951c0,2.368,1.479,3.849,3.885,3.849c3.812,0,5.661-2.554,5.661-5.995v-10.805
		h3.146V672.135z"/>
	<path fill="#333333" d="M1536.379,659.147c-0.481-2.405-2.109-3.812-4.736-3.812c-4.552,0-5.958,3.627-5.958,7.475
		c0,3.553,1.592,6.994,5.588,6.994c3.071,0,4.847-1.74,5.254-4.663h3.22c-0.703,4.7-3.59,7.438-8.437,7.438
		c-5.847,0-8.955-4.033-8.955-9.769s2.96-10.25,9.028-10.25c4.366,0,7.771,2.035,8.252,6.587H1536.379z"/>
	<path fill="#333333" d="M1547.625,653.005h3.812v2.775h-3.812v11.878c0,1.48,0.407,1.701,2.368,1.701h1.443v2.775h-2.405
		c-3.256,0-4.552-0.666-4.552-4.181V655.78h-3.256v-2.775h3.256v-5.735h3.146V653.005z"/>
	<path fill="#333333" d="M1558.243,649.563h-3.146v-3.849h3.146V649.563z M1555.098,653.005h3.146v19.13h-3.146V653.005z"/>
	<path fill="#333333" d="M1571.379,652.561c6.068,0,9.287,4.404,9.287,10.027c0,5.588-3.219,9.991-9.287,9.991
		s-9.288-4.403-9.288-9.991C1562.091,656.965,1565.311,652.561,1571.379,652.561z M1571.379,669.805
		c3.293,0,5.957-2.591,5.957-7.217c0-4.625-2.664-7.252-5.957-7.252c-3.294,0-5.958,2.627-5.958,7.252
		C1565.421,667.214,1568.085,669.805,1571.379,669.805z"/>
	<path fill="#333333" d="M1584.364,653.005h2.96v3.034h0.074c1.332-2.368,3.441-3.479,6.217-3.479c5.032,0,6.586,2.887,6.586,6.994
		v12.58h-3.146v-12.95c0-2.368-1.479-3.849-3.885-3.849c-3.812,0-5.661,2.553-5.661,5.994v10.805h-3.146V653.005z"/>
</g>
<path fill="#1365A8" d="M679.164,627.281c20.472,0,37.067,16.595,37.067,37.067c0,20.471-16.596,37.066-37.067,37.066
	s-37.067-16.596-37.067-37.066C642.097,643.876,658.692,627.281,679.164,627.281"/>
<path fill="#1365A8" d="M520.776,176.29c0,39.077-31.678,70.754-70.754,70.754c-39.078,0-70.755-31.677-70.755-70.754
	s31.678-70.755,70.755-70.755C489.098,105.535,520.776,137.213,520.776,176.29"/>
<g>
	<path fill="#333333" d="M747.709,836.904c0,6.698-3.774,10.176-10.397,10.176c-6.809,0-10.842-3.145-10.842-10.176v-16.873h3.516
		v16.873c0,4.7,2.627,7.217,7.326,7.217c4.478,0,6.883-2.517,6.883-7.217v-16.873h3.515V836.904z"/>
	<path fill="#333333" d="M752.813,827.321h2.96v3.034h0.074c1.332-2.368,3.441-3.479,6.217-3.479c5.032,0,6.586,2.887,6.586,6.994
		v12.58h-3.146v-12.95c0-2.368-1.479-3.849-3.885-3.849c-3.812,0-5.661,2.553-5.661,5.994v10.805h-3.146V827.321z"/>
	<path fill="#333333" d="M789.704,840.383c-0.852,4.256-3.849,6.513-8.178,6.513c-6.105,0-8.991-4.255-9.177-10.064
		c0-5.772,3.774-9.954,8.991-9.954c6.771,0,8.844,6.328,8.659,10.953h-14.32c-0.11,3.33,1.776,6.291,5.958,6.291
		c2.627,0,4.403-1.222,4.958-3.738H789.704z M786.67,835.055c-0.186-2.997-2.368-5.402-5.514-5.402
		c-3.256,0-5.291,2.442-5.477,5.402H786.67z"/>
	<path fill="#333333" d="M798.397,836.387l-6.661-9.065h4.034l4.588,6.697l4.773-6.697h3.774l-6.587,8.807l7.4,10.323h-4.033
		l-5.328-7.918l-5.328,7.918h-3.812L798.397,836.387z"/>
	<path fill="#333333" d="M812.531,827.321h3.145v2.591h0.074c1.036-2.109,3.441-3.035,6.105-3.035c5.884,0,8.807,4.662,8.807,10.064
		c0,5.439-2.886,9.954-8.732,9.954c-1.924,0-4.811-0.739-6.18-2.997h-0.074v9.88h-3.145V827.321z M821.411,829.652
		c-4.255,0-5.846,3.664-5.846,7.216c0,3.737,1.702,7.253,6.031,7.253c4.292,0,5.735-3.664,5.735-7.4
		C827.332,833.131,825.481,829.652,821.411,829.652z"/>
	<path fill="#333333" d="M850.679,840.383c-0.852,4.256-3.849,6.513-8.178,6.513c-6.105,0-8.991-4.255-9.177-10.064
		c0-5.772,3.774-9.954,8.991-9.954c6.771,0,8.844,6.328,8.659,10.953h-14.32c-0.11,3.33,1.776,6.291,5.958,6.291
		c2.627,0,4.403-1.222,4.958-3.738H850.679z M847.645,835.055c-0.186-2.997-2.368-5.402-5.514-5.402
		c-3.256,0-5.291,2.442-5.477,5.402H847.645z"/>
	<path fill="#333333" d="M867.217,833.464c-0.481-2.405-2.109-3.812-4.736-3.812c-4.552,0-5.958,3.627-5.958,7.475
		c0,3.553,1.592,6.994,5.588,6.994c3.071,0,4.847-1.74,5.254-4.663h3.22c-0.703,4.7-3.59,7.438-8.437,7.438
		c-5.847,0-8.955-4.033-8.955-9.769s2.96-10.25,9.028-10.25c4.366,0,7.771,2.035,8.252,6.587H867.217z"/>
	<path fill="#333333" d="M878.463,827.321h3.812v2.775h-3.812v11.878c0,1.48,0.407,1.701,2.368,1.701h1.443v2.775h-2.405
		c-3.256,0-4.552-0.666-4.552-4.181v-12.174h-3.256v-2.775h3.256v-5.735h3.146V827.321z"/>
	<path fill="#333333" d="M902.069,840.383c-0.852,4.256-3.849,6.513-8.178,6.513c-6.105,0-8.991-4.255-9.177-10.064
		c0-5.772,3.774-9.954,8.991-9.954c6.771,0,8.844,6.328,8.659,10.953h-14.32c-0.11,3.33,1.776,6.291,5.958,6.291
		c2.627,0,4.403-1.222,4.958-3.738H902.069z M899.035,835.055c-0.186-2.997-2.368-5.402-5.514-5.402
		c-3.256,0-5.291,2.442-5.477,5.402H899.035z"/>
	<path fill="#333333" d="M922.714,846.451h-3.145v-2.59h-0.074c-1.036,2.109-3.441,3.034-6.105,3.034
		c-5.884,0-8.807-4.662-8.807-10.064s2.887-9.954,8.732-9.954c1.925,0,4.811,0.74,6.18,2.998h0.074v-9.844h3.145V846.451z
		 M913.834,844.121c4.255,0,5.846-3.664,5.846-7.217c0-3.736-1.702-7.252-6.031-7.252c-4.292,0-5.735,3.664-5.735,7.4
		C907.913,840.643,909.764,844.121,913.834,844.121z"/>
	<path fill="#333333" d="M941.176,823.88h-3.146v-3.849h3.146V823.88z M938.03,827.321h3.146v19.13h-3.146V827.321z"/>
	<path fill="#333333" d="M947.983,840.42c0.111,2.812,2.591,3.701,5.144,3.701c1.961,0,4.625-0.445,4.625-2.85
		c0-4.922-12.507-1.592-12.507-8.955c0-3.848,3.774-5.439,7.142-5.439c4.293,0,7.549,1.332,7.845,5.994h-3.146
		c-0.185-2.441-2.404-3.219-4.439-3.219c-1.888,0-4.07,0.518-4.07,2.442c0,2.22,3.33,2.664,6.253,3.33
		c3.146,0.703,6.254,1.776,6.254,5.439c0,4.589-4.256,6.031-8.141,6.031c-4.293,0-7.919-1.739-8.104-6.476H947.983z"/>
	<path fill="#333333" d="M966.483,840.42c0.111,2.812,2.591,3.701,5.144,3.701c1.961,0,4.625-0.445,4.625-2.85
		c0-4.922-12.507-1.592-12.507-8.955c0-3.848,3.774-5.439,7.142-5.439c4.293,0,7.549,1.332,7.845,5.994h-3.146
		c-0.185-2.441-2.404-3.219-4.439-3.219c-1.888,0-4.07,0.518-4.07,2.442c0,2.22,3.33,2.664,6.253,3.33
		c3.146,0.703,6.254,1.776,6.254,5.439c0,4.589-4.256,6.031-8.141,6.031c-4.293,0-7.919-1.739-8.104-6.476H966.483z"/>
	<path fill="#333333" d="M998.896,846.451h-2.96v-3.033h-0.074c-1.332,2.367-3.441,3.478-6.216,3.478
		c-5.033,0-6.587-2.886-6.587-6.993v-12.581h3.146v12.951c0,2.368,1.479,3.849,3.885,3.849c3.812,0,5.661-2.554,5.661-5.995v-10.805
		h3.146V846.451z"/>
	<path fill="#333333" d="M1019.95,840.383c-0.852,4.256-3.849,6.513-8.178,6.513c-6.105,0-8.991-4.255-9.177-10.064
		c0-5.772,3.774-9.954,8.991-9.954c6.771,0,8.844,6.328,8.659,10.953h-14.32c-0.11,3.33,1.776,6.291,5.958,6.291
		c2.627,0,4.403-1.222,4.958-3.738H1019.95z M1016.916,835.055c-0.186-2.997-2.368-5.402-5.514-5.402
		c-3.256,0-5.291,2.442-5.477,5.402H1016.916z"/>
	<path fill="#333333" d="M1025.424,840.42c0.111,2.812,2.591,3.701,5.144,3.701c1.961,0,4.625-0.445,4.625-2.85
		c0-4.922-12.507-1.592-12.507-8.955c0-3.848,3.774-5.439,7.142-5.439c4.293,0,7.549,1.332,7.845,5.994h-3.146
		c-0.185-2.441-2.404-3.219-4.439-3.219c-1.888,0-4.07,0.518-4.07,2.442c0,2.22,3.33,2.664,6.253,3.33
		c3.146,0.703,6.254,1.776,6.254,5.439c0,4.589-4.256,6.031-8.141,6.031c-4.293,0-7.919-1.739-8.104-6.476H1025.424z"/>
</g>
<path fill="#1365A8" d="M520.776,833.087c0,39.076-31.678,70.754-70.754,70.754c-39.078,0-70.755-31.678-70.755-70.754
	c0-39.077,31.678-70.756,70.755-70.756C489.098,762.331,520.776,794.01,520.776,833.087"/>
<path fill="#1365A8" d="M520.776,385.265c0,39.077-31.678,70.754-70.754,70.754c-39.078,0-70.755-31.677-70.755-70.754
	s31.678-70.755,70.755-70.755C489.098,314.51,520.776,346.188,520.776,385.265"/>
<g>
	<path fill-rule="evenodd" clip-rule="evenodd" fill="#2C3E50" d="M662.241,649.453l33.772,0.014c1.378,0,2.507,1.129,2.507,2.51
		l-0.009,20.754c0,1.378-1.128,2.507-2.511,2.507l-33.768-0.014c-1.377,0-2.506-1.134-2.506-2.507l0.009-20.76
		C659.734,650.58,660.863,649.451,662.241,649.453z"/>
	<path fill-rule="evenodd" clip-rule="evenodd" fill="#6EBCC6" d="M662.702,651.294l8.731,0.004l24.12,0.013
		c0.622,0,1.124,0.504,1.124,1.124l-0.009,19.835c0,0.622-0.506,1.129-1.124,1.124l-27.216-0.014h-5.635
		c-0.622,0-1.125-0.506-1.125-1.124l0.01-19.835C661.578,651.799,662.08,651.294,662.702,651.294z"/>
	<path fill-rule="evenodd" clip-rule="evenodd" fill="#121220" d="M701.731,675.241l-45.135-0.022v0.069
		c0,1.58,1.286,2.865,2.861,2.865l39.408,0.02c1.581,0,2.866-1.286,2.866-2.861V675.241z"/>
	<rect x="674.183" y="675.229" fill-rule="evenodd" clip-rule="evenodd" fill="#ECF0F1" width="9.962" height="0.461"/>
	<path fill-rule="evenodd" clip-rule="evenodd" fill="#6EBCC6" d="M679.127,651.303l-0.009,22.087l-16.426-0.01
		c-0.622,0-1.125-0.506-1.125-1.124l0.01-19.835c0-0.622,0.502-1.127,1.124-1.127l8.731,0.004L679.127,651.303z"/>
	<rect x="667.516" y="656.266" fill-rule="evenodd" clip-rule="evenodd" fill="#DAE1E6" width="23.217" height="13.861"/>
	<rect x="667.516" y="654.266" fill-rule="evenodd" clip-rule="evenodd" fill="#2980B9" width="23.217" height="2"/>
	<path fill-rule="evenodd" clip-rule="evenodd" fill="#9B59B6" d="M673.4,659.566L673.4,659.566c0.313,0,0.571,0.258,0.571,0.569
		l0,0c0,0.313-0.258,0.569-0.571,0.569l0,0c-0.309,0-0.566-0.256-0.566-0.569l0,0C672.833,659.824,673.091,659.566,673.4,659.566z"
		/>
	<path fill-rule="evenodd" clip-rule="evenodd" fill="#FFCB05" d="M673.4,662.627L673.4,662.627c0.313,0,0.571,0.255,0.571,0.569
		l0,0c0,0.312-0.258,0.568-0.571,0.568l0,0c-0.309,0-0.566-0.256-0.566-0.568l0,0C672.833,662.882,673.091,662.627,673.4,662.627z"
		/>
	<path fill-rule="evenodd" clip-rule="evenodd" fill="#6699FF" d="M673.4,665.875L673.4,665.875c0.313,0,0.571,0.258,0.571,0.569
		l0,0c0,0.312-0.258,0.568-0.571,0.568l0,0c-0.309,0-0.566-0.256-0.566-0.568l0,0C672.833,666.133,673.091,665.875,673.4,665.875z"
		/>
	<rect x="675.133" y="659.853" fill-rule="evenodd" clip-rule="evenodd" fill="#95A5A6" width="8.823" height="0.566"/>
	<rect x="675.133" y="662.91" fill-rule="evenodd" clip-rule="evenodd" fill="#95A5A6" width="9.547" height="0.571"/>
	<rect x="675.133" y="666.159" fill-rule="evenodd" clip-rule="evenodd" fill="#95A5A6" width="7.519" height="0.57"/>
</g>
<g>
	<path fill-rule="evenodd" clip-rule="evenodd" fill="#2C3E50" d="M522.658-169.033l5.723,2.369l10.061-5.19
		c3.437,3.43,6.867,6.866,10.303,10.299l-5.194,10.061l2.372,5.723l10.782,3.442c0,4.851,0,9.695,0,14.539l-10.782,3.448
		l-2.372,5.723l5.194,10.062c-3.436,3.436-6.866,6.866-10.303,10.296l-10.061-5.188l-5.723,2.371l-3.442,10.782
		c-4.845,0-9.695,0-14.544,0l-3.442-10.782l-5.718-2.371l-10.066,5.188c-3.43-3.43-6.867-6.861-10.297-10.296l5.188-10.062
		l-2.366-5.723l-10.782-3.448c0-4.844,0-9.692,0-14.539l10.782-3.442l2.366-5.723l-5.188-10.061
		c3.431-3.433,6.867-6.87,10.297-10.299l10.066,5.19l5.718-2.371l3.447-10.782c4.844,0,9.694,0,14.539,0L522.658-169.033
		L522.658-169.033z M511.944-144.261c-5.082,0-9.205,4.121-9.205,9.205c0,5.081,4.123,9.205,9.205,9.205
		c5.086,0,9.204-4.124,9.204-9.205C521.148-140.141,517.03-144.261,511.944-144.261z"/>
	<path fill-rule="evenodd" clip-rule="evenodd" fill="#3D566E" d="M512.789-90.296h-8.117l-3.442-10.782l-5.718-2.371l-10.066,5.188
		c-3.43-3.43-6.867-6.861-10.297-10.296l5.188-10.062l-2.366-5.723l-10.782-3.448c0-4.844,0-9.692,0-14.539l10.782-3.442
		l2.366-5.723l-5.188-10.061c3.431-3.433,6.867-6.87,10.297-10.299l10.066,5.19l5.718-2.371l3.447-10.782h8.112v35.593
		c-0.276-0.023-0.558-0.037-0.845-0.037c-5.082,0-9.205,4.121-9.205,9.205c0,5.081,4.123,9.205,9.205,9.205
		c0.287,0,0.568-0.011,0.845-0.04V-90.296z"/>
	<path fill-rule="evenodd" clip-rule="evenodd" fill="#FFCB05" d="M511.944-160.794c14.217,0,25.737,11.522,25.737,25.737
		c0,14.212-11.52,25.731-25.737,25.731c-14.213,0-25.732-11.52-25.732-25.731C486.212-149.271,497.731-160.794,511.944-160.794
		L511.944-160.794z M511.944-144.261c-5.082,0-9.205,4.121-9.205,9.205c0,5.081,4.123,9.205,9.205,9.205
		c5.086,0,9.204-4.124,9.204-9.205C521.148-140.141,517.03-144.261,511.944-144.261z"/>
	<path fill-rule="evenodd" clip-rule="evenodd" fill="#3D566E" d="M511.944-115.516c10.792,0,19.54-8.748,19.54-19.541
		c0-10.793-8.748-19.543-19.54-19.543c-10.793,0-19.542,8.75-19.542,19.543C492.402-124.263,501.15-115.516,511.944-115.516
		L511.944-115.516z M511.944-144.261c5.086,0,9.204,4.121,9.204,9.205c0,5.081-4.118,9.205-9.204,9.205
		c-5.082,0-9.205-4.124-9.205-9.205C502.739-140.141,506.862-144.261,511.944-144.261z"/>
</g>
<g>
	<path fill-rule="evenodd" clip-rule="evenodd" fill="#3D566E" d="M491.432,411.939c-1.46,2.651-3.229,4.995-5.278,7.044
		l-0.128,0.116c-2.023,2.01-4.328,3.728-6.942,5.187c-1.614,0.896-3.406,1.217-5.136,0.975c-1.729-0.231-3.369-1.038-4.681-2.344
		v-0.014l-0.007,0.014l-15.344-15.359l-5.175-5.174l14.327-14.319l5.814-1.281c1.513-0.333,2.979-0.864,4.349-1.55l16.856,16.869
		c1.319,1.319,2.113,2.972,2.344,4.688C492.675,408.52,492.354,410.326,491.432,411.939z"/>
	<polygon fill-rule="evenodd" clip-rule="evenodd" fill="#D1D1D1" points="441.856,378.958 428.383,365.47 423.938,365.663 
		412.25,351.298 418.526,345.034 432.878,356.729 432.687,361.179 442.132,370.64 446.154,374.66 	"/>
	<path fill-rule="evenodd" clip-rule="evenodd" fill="#2C3E50" d="M491.432,411.939c-1.46,2.651-3.229,4.995-5.278,7.044
		l-0.128,0.116c-2.023,2.01-4.328,3.728-6.942,5.187c-1.614,0.896-3.406,1.217-5.136,0.975c-1.729-0.231-3.369-1.038-4.681-2.344
		v-0.014l-0.007,0.014l-15.344-15.359l-5.175-5.174l2.947-2.945l20.531,20.531h-0.013c0.654,0.653,1.474,1.063,2.319,1.166
		c0.384,0.063,0.768,0.052,1.165,0l-22.843-22.863l10.221-10.208l23.651,23.67c0.384-0.589,0.742-1.192,1.102-1.818
		c0.46-0.808,0.615-1.691,0.486-2.549c-0.103-0.834-0.513-1.653-1.178-2.319l-18.247-18.265c1.513-0.333,2.979-0.864,4.349-1.55
		l16.856,16.869c1.319,1.319,2.113,2.972,2.344,4.688C492.675,408.52,492.354,410.326,491.432,411.939z"/>
	<path fill-rule="evenodd" clip-rule="evenodd" fill="#D1D1D1" d="M467.736,369.306c-3.625-3.573-5.943-8.613-3.273-11.277
		l10.997-10.989l-1.512-1.506c-4.783-4.803-20.166,3.6-25.399,11.426c-2.664,3.983-3.458,9.851,0.57,14.743l-35.671,35.64
		c-1.299,1.293-2.094,2.933-2.331,4.648c-0.941,6.763,7.23,14.936,13.988,14c1.716-0.243,3.342-1.024,4.648-2.319l35.485-35.459
		c4.497,4.451,10.541,3.156,14.833,0.302c7.825-5.226,16.24-20.604,11.45-25.4l-1.511-1.511l-10.99,10.989
		C476.343,375.262,471.31,372.937,467.736,369.306L467.736,369.306z M419.263,417.831c-3.241-3.253-3.241-8.505,0.006-11.758
		c3.24-3.229,8.499-3.229,11.745,0.013c3.242,3.24,3.242,8.505-0.006,11.745C427.761,421.072,422.503,421.072,419.263,417.831z"/>
	<path fill-rule="evenodd" clip-rule="evenodd" fill="#DAE1E6" d="M415.176,421.827l4.041-4.047
		c-3.195-3.24-3.183-8.479,0.052-11.707c3.227-3.215,8.447-3.229,11.7-0.026l36.767-36.741c-3.625-3.573-5.943-8.613-3.273-11.277
		l10.997-10.989l-1.512-1.506c-4.783-4.803-20.166,3.6-25.399,11.426c-2.664,3.983-3.458,9.851,0.57,14.743l-35.671,35.64
		c-1.299,1.293-2.094,2.933-2.331,4.648C410.649,415.346,412.43,419.061,415.176,421.827z"/>
</g>
<g>
	<path fill="#F9B256" d="M488.525,218.353c0,3.731-3.025,6.757-6.758,6.757h-63.07c-3.732,0-6.757-3.026-6.757-6.757v-76.586
		c0-3.733,3.024-6.758,6.757-6.758h63.07c3.733,0,6.758,3.025,6.758,6.758V218.353z"/>
	<path fill="#FFFFFF" d="M483.621,213.449c0,3.255-2.639,5.894-5.89,5.894h-54.997c-3.253,0-5.89-2.639-5.89-5.894v-66.777
		c0-3.255,2.637-5.894,5.89-5.894h54.997c3.251,0,5.89,2.639,5.89,5.894V213.449z"/>
	<path fill="#D1D3D4" d="M441.463,164.734c0,2.309-1.873,4.18-4.18,4.18h-8.36c-2.307,0-4.181-1.872-4.181-4.18v-8.36
		c0-2.31,1.874-4.179,4.181-4.179h8.36c2.307,0,4.18,1.869,4.18,4.179V164.734z"/>
	<path fill="#D1D3D4" d="M441.463,184.24c0,2.307-1.873,4.178-4.18,4.178h-8.36c-2.307,0-4.181-1.871-4.181-4.178v-8.36
		c0-2.31,1.874-4.178,4.181-4.178h8.36c2.307,0,4.18,1.869,4.18,4.178V184.24z"/>
	<path fill="#D1D3D4" d="M441.463,203.745c0,2.307-1.873,4.18-4.18,4.18h-8.36c-2.307,0-4.181-1.873-4.181-4.18v-8.358
		c0-2.309,1.874-4.183,4.181-4.183h8.36c2.307,0,4.18,1.874,4.18,4.183V203.745z"/>
	<path fill="#686472" d="M459.812,132.552H459.1c-0.692,0-1.257-0.562-1.257-1.255v-0.046c0-1.719-1.396-3.116-3.119-3.116h-8.988
		c-1.719,0-3.115,1.397-3.115,3.116v0.046c0,0.693-0.564,1.255-1.257,1.255h-0.711c-5.284,0-9.569,4.287-9.569,9.573v0.126
		c0,1.697,1.375,3.071,3.067,3.071h32.163c1.693,0,3.069-1.374,3.069-3.071v-0.126C469.382,136.839,465.097,132.552,459.812,132.552
		z M450.23,133.296c-1.118,0-2.026-0.909-2.026-2.03c0-1.119,0.909-2.026,2.026-2.026c1.122,0,2.031,0.907,2.031,2.026
		C452.261,132.387,451.353,133.296,450.23,133.296z"/>
</g>
<path fill="#E6E7E8" d="M492.375,859.424c0,2.521-1.9,4.554-4.248,4.554h-8.235v17.089l-20.185-17.089h-52.564
	c-2.351,0-4.251-2.033-4.251-4.554v-51.711c0-2.519,1.9-4.556,4.251-4.556h80.984c2.348,0,4.248,2.037,4.248,4.556V859.424z"/>
<g>
	<path fill="#A6DAE9" d="M410.36,837.65h2.658c0.616,0,1.288-0.477,1.477-1.064l0.497-1.2c0.275-0.552,0.146-1.358-0.289-1.798
		l-1.88-1.881c-0.439-0.434-0.439-1.15,0-1.581l2.902-2.912c0.436-0.435,1.153-0.435,1.59,0l1.884,1.882
		c0.436,0.436,1.239,0.564,1.792,0.29l1.2-0.495c0.582-0.195,1.061-0.858,1.061-1.479v-2.656c0-0.612,0.51-1.122,1.123-1.122h4.115
		c0.616,0,1.116,0.51,1.116,1.122v2.656c0,0.621,0.482,1.284,1.068,1.479l1.201,0.495c0.558,0.274,1.362,0.146,1.799-0.29
		l1.879-1.882c0.434-0.435,1.151-0.435,1.585,0l2.909,2.912c0.436,0.431,0.436,1.147,0,1.581l-1.884,1.881
		c-0.432,0.439-0.561,1.246-0.292,1.798l0.496,1.2c0.199,0.588,0.863,1.064,1.479,1.064h2.662c0.614,0,1.121,0.505,1.121,1.123
		v4.108c0,0.617-0.506,1.125-1.121,1.125h-2.662c-0.616,0-1.28,0.478-1.479,1.061l-0.496,1.205c-0.269,0.55-0.14,1.36,0.292,1.796
		l1.884,1.881c0.436,0.434,0.436,1.149,0,1.587l-2.909,2.909c-0.434,0.433-1.151,0.433-1.585,0l-1.879-1.885
		c-0.437-0.437-1.241-0.566-1.799-0.293l-1.201,0.5c-0.586,0.196-1.068,0.857-1.068,1.474v2.66c0,0.619-0.5,1.123-1.116,1.123
		h-4.115c-0.613,0-1.123-0.504-1.123-1.123v-2.66c0-0.616-0.479-1.277-1.061-1.474l-1.2-0.5c-0.553-0.273-1.356-0.144-1.792,0.293
		l-1.884,1.885c-0.438,0.433-1.155,0.433-1.59,0l-2.902-2.909c-0.439-0.438-0.439-1.153,0-1.587l1.88-1.881
		c0.434-0.436,0.563-1.246,0.289-1.796l-0.497-1.205c-0.189-0.583-0.861-1.061-1.477-1.061h-2.658c-0.618,0-1.123-0.508-1.123-1.125
		v-4.108C409.238,838.155,409.742,837.65,410.36,837.65z M426.435,846.248c2.993,0,5.417-2.426,5.417-5.419
		c0-2.994-2.424-5.421-5.417-5.421s-5.419,2.427-5.419,5.421C421.016,843.822,423.442,846.248,426.435,846.248z"/>
	<path fill="#8FC4D7" d="M426.378,846.247c0.018,0,0.034,0.001,0.057,0.001c2.993,0,5.417-2.426,5.417-5.419
		c0-2.994-2.424-5.421-5.417-5.421c-0.023,0-0.039,0-0.057,0v-11.775h2.114c0.616,0,1.116,0.51,1.116,1.122v2.656
		c0,0.621,0.482,1.284,1.068,1.479l1.201,0.495c0.558,0.274,1.362,0.146,1.799-0.29l1.879-1.882c0.434-0.435,1.151-0.435,1.585,0
		l2.909,2.912c0.436,0.431,0.436,1.147,0,1.581l-1.884,1.881c-0.432,0.439-0.561,1.246-0.292,1.798l0.496,1.2
		c0.199,0.588,0.863,1.064,1.479,1.064h2.662c0.614,0,1.121,0.505,1.121,1.123v4.108c0,0.617-0.506,1.125-1.121,1.125h-2.662
		c-0.616,0-1.28,0.478-1.479,1.061l-0.496,1.205c-0.269,0.55-0.14,1.36,0.292,1.796l1.884,1.881c0.436,0.434,0.436,1.149,0,1.587
		l-2.909,2.909c-0.434,0.433-1.151,0.433-1.585,0l-1.879-1.885c-0.437-0.437-1.241-0.566-1.799-0.293l-1.201,0.5
		c-0.586,0.196-1.068,0.857-1.068,1.474v2.66c0,0.619-0.5,1.123-1.116,1.123h-2.114V846.247z"/>
</g>
<g>
	<g>
		<path fill="#FD6120" d="M429.155,818.416c0.354-16.837,11.312-29.088,28.617-29.088c22.151,0,29.33,13.779,29.33,22.732
			c0,22.494-19.429,19.438-21.438,33.685v4.48h-15.89v-5.312c1.645-20.37,19.198-18.479,18.84-31.212
			c0-7.176-3.772-10.595-10.012-10.595c-8.478,0-12.13,6.95-12.13,15.309H429.155z M448.123,857.285h18.491v18.146h-18.491V857.285z
			"/>
	</g>
	<g>
		<path fill="#DE3F18" d="M457.772,789.328c-0.17,0-0.33,0.02-0.5,0.021v13.826c0.429-0.041,0.872-0.068,1.33-0.068
			c6.24,0,10.012,3.419,10.012,10.595c0.216,7.619-5.974,10.023-11.342,15.072v21.451h8.392v-4.48
			c2.009-14.247,21.438-11.19,21.438-33.685C487.102,803.107,479.923,789.328,457.772,789.328z"/>
		<rect x="457.272" y="857.285" fill="#DE3F18" width="9.341" height="18.146"/>
	</g>
</g>
<g>
	<path fill-rule="evenodd" clip-rule="evenodd" fill="#2C3E50" d="M684.575,463.55l2.495,1.03l4.385-2.26
		c1.501,1.496,2.998,2.992,4.494,4.488l-2.266,4.39l1.036,2.491l4.699,1.501c0,2.114,0,4.228,0,6.341l-4.703,1.501l-1.032,2.49
		l2.266,4.39c-1.496,1.495-2.998,2.992-4.494,4.488l-4.385-2.266l-2.495,1.036l-1.501,4.698c-2.113,0-4.222,0-6.335,0l-1.501-4.698
		l-2.496-1.036l-4.384,2.266c-1.496-1.497-2.998-2.993-4.494-4.488l2.266-4.39l-1.03-2.49l-4.704-1.501c0-2.114,0-4.228,0-6.341
		l4.704-1.501l1.03-2.491l-2.266-4.39c1.497-1.496,2.999-2.992,4.494-4.488l4.384,2.26l2.496-1.03l1.501-4.703
		c2.114,0,4.222,0,6.335,0L684.575,463.55L684.575,463.55z M679.909,474.348c-2.219,0-4.013,1.795-4.013,4.013
		c0,2.213,1.794,4.013,4.013,4.013c2.212,0,4.007-1.799,4.007-4.013C683.916,476.143,682.121,474.348,679.909,474.348z"/>
	<path fill-rule="evenodd" clip-rule="evenodd" fill="#3D566E" d="M680.275,497.869h-3.537l-1.501-4.698l-2.496-1.036l-4.384,2.266
		c-1.496-1.497-2.998-2.993-4.494-4.488l2.266-4.39l-1.03-2.49l-4.704-1.501c0-2.114,0-4.228,0-6.341l4.704-1.501l1.03-2.491
		l-2.266-4.39c1.497-1.496,2.999-2.992,4.494-4.488l4.384,2.26l2.496-1.03l1.501-4.703h3.537v15.517
		c-0.12-0.01-0.246-0.016-0.366-0.016c-2.219,0-4.013,1.795-4.013,4.013c0,2.213,1.794,4.013,4.013,4.013
		c0.12,0,0.246-0.006,0.366-0.021V497.869z"/>
	<path fill-rule="evenodd" clip-rule="evenodd" fill="#FFCB05" d="M679.909,467.144c6.195,0,11.216,5.022,11.216,11.217
		c0,6.194-5.021,11.216-11.216,11.216c-6.2,0-11.222-5.022-11.222-11.216C668.687,472.166,673.709,467.144,679.909,467.144
		L679.909,467.144z M679.909,474.348c-2.219,0-4.013,1.795-4.013,4.013c0,2.213,1.794,4.013,4.013,4.013
		c2.212,0,4.007-1.799,4.007-4.013C683.916,476.143,682.121,474.348,679.909,474.348z"/>
	<path fill-rule="evenodd" clip-rule="evenodd" fill="#3D566E" d="M679.909,486.878c4.703,0,8.516-3.814,8.516-8.517
		s-3.813-8.517-8.516-8.517c-4.709,0-8.522,3.814-8.522,8.517S675.2,486.878,679.909,486.878L679.909,486.878z M679.909,474.348
		c2.212,0,4.007,1.795,4.007,4.013c0,2.213-1.795,4.013-4.007,4.013c-2.219,0-4.013-1.799-4.013-4.013
		C675.896,476.143,677.69,474.348,679.909,474.348z"/>
</g>
<polygon fill-rule="evenodd" clip-rule="evenodd" fill="#DAE1E6" points="662.056,554.629 698.488,566.867 686.052,573.611 
	696.534,584.096 691.494,589.135 681.013,578.645 674.258,591.076 "/>
<polygon fill-rule="evenodd" clip-rule="evenodd" fill="#CCCCCC" points="662.056,554.629 698.494,566.867 686.052,573.611 
	696.534,584.096 694.01,586.611 "/>
<g>
	<g>
		<path fill="#4EA8DE" d="M554.079,180.311c0,4.033,2.997,5.661,6.697,5.661c4.07,0,5.587-2.035,5.587-3.996
			c0-2.035-1.109-2.849-2.183-3.256c-1.888-0.703-4.219-1.185-7.882-2.184c-4.551-1.184-5.847-3.959-5.847-6.697
			c0-5.328,4.885-7.771,9.658-7.771c5.477,0,10.139,2.923,10.139,8.437h-4.625c-0.26-3.404-2.479-4.662-5.699-4.662
			c-2.146,0-4.847,0.776-4.847,3.441c0,1.887,1.258,2.849,3.145,3.404c0.407,0.11,6.254,1.628,7.623,2.035
			c3.441,1.072,5.144,3.922,5.144,6.734c0,5.92-5.292,8.288-10.509,8.288c-6.031,0-10.916-2.886-11.027-9.436H554.079z"/>
		<path fill="#4EA8DE" d="M572.504,169.988h3.183v-5.735h4.218v5.735h3.812v3.145h-3.812v10.213c0,1.739,0.148,2.627,2.035,2.627
			c0.592,0,1.185,0,1.776-0.147v3.256c-0.925,0.111-1.813,0.222-2.738,0.222c-4.44,0-5.181-1.702-5.291-4.884v-11.286h-3.183
			V169.988z"/>
		<path fill="#4EA8DE" d="M590.042,180.644c0,2.997,1.628,5.661,5.144,5.661c2.479,0,3.922-1.073,4.662-3.182h3.996
			c-0.888,4.181-4.515,6.512-8.658,6.512c-6.032,0-9.362-4.144-9.362-10.064c0-5.439,3.553-10.102,9.251-10.102
			c6.031,0,9.731,5.439,9.028,11.175H590.042z M599.885,177.869c-0.186-2.664-1.925-5.069-4.811-5.069
			c-2.924,0-4.922,2.221-5.032,5.069H599.885z"/>
		<path fill="#4EA8DE" d="M607.432,169.988h3.996v2.59h0.074c1.185-2.221,3.441-3.108,5.921-3.108c6.031,0,8.954,4.552,8.954,10.176
			c0,5.181-2.627,9.99-8.252,9.99c-2.441,0-5.105-0.888-6.401-2.997h-0.073v9.547h-4.219V169.988z M616.867,172.799
			c-3.552,0-5.365,2.664-5.365,6.771c0,3.849,1.961,6.734,5.365,6.734c3.849,0,5.292-3.404,5.292-6.734
			C622.159,176.129,620.346,172.799,616.867,172.799z"/>
		<path fill="#4EA8DE" d="M647.873,162.698h4.921l10.176,26.42h-4.958l-2.479-6.993h-10.546l-2.479,6.993h-4.773L647.873,162.698z
			 M646.245,178.609h8.066l-3.96-11.359h-0.11L646.245,178.609z"/>
	</g>
</g>
<g>
	<g>
		<path fill="#4EA8DE" d="M554.079,385.654c0,4.033,2.997,5.661,6.697,5.661c4.07,0,5.587-2.035,5.587-3.996
			c0-2.035-1.109-2.849-2.183-3.256c-1.888-0.703-4.219-1.185-7.882-2.184c-4.551-1.184-5.847-3.959-5.847-6.697
			c0-5.328,4.885-7.771,9.658-7.771c5.477,0,10.139,2.923,10.139,8.437h-4.625c-0.26-3.404-2.479-4.662-5.699-4.662
			c-2.146,0-4.847,0.776-4.847,3.441c0,1.887,1.258,2.849,3.145,3.404c0.407,0.11,6.254,1.628,7.623,2.035
			c3.441,1.072,5.144,3.922,5.144,6.734c0,5.92-5.292,8.288-10.509,8.288c-6.031,0-10.916-2.886-11.027-9.436H554.079z"/>
		<path fill="#4EA8DE" d="M572.504,375.331h3.183v-5.735h4.218v5.735h3.812v3.145h-3.812v10.213c0,1.739,0.148,2.627,2.035,2.627
			c0.592,0,1.185,0,1.776-0.147v3.256c-0.925,0.111-1.813,0.222-2.738,0.222c-4.44,0-5.181-1.702-5.291-4.884v-11.286h-3.183
			V375.331z"/>
		<path fill="#4EA8DE" d="M590.042,385.987c0,2.997,1.628,5.661,5.144,5.661c2.479,0,3.922-1.073,4.662-3.182h3.996
			c-0.888,4.181-4.515,6.512-8.658,6.512c-6.032,0-9.362-4.144-9.362-10.064c0-5.439,3.553-10.102,9.251-10.102
			c6.031,0,9.731,5.439,9.028,11.175H590.042z M599.885,383.212c-0.186-2.664-1.925-5.069-4.811-5.069
			c-2.924,0-4.922,2.221-5.032,5.069H599.885z"/>
		<path fill="#4EA8DE" d="M607.432,375.331h3.996v2.59h0.074c1.185-2.221,3.441-3.108,5.921-3.108c6.031,0,8.954,4.552,8.954,10.176
			c0,5.181-2.627,9.99-8.252,9.99c-2.441,0-5.105-0.888-6.401-2.997h-0.073v9.547h-4.219V375.331z M616.867,378.143
			c-3.552,0-5.365,2.664-5.365,6.771c0,3.849,1.961,6.734,5.365,6.734c3.849,0,5.292-3.404,5.292-6.734
			C622.159,381.473,620.346,378.143,616.867,378.143z"/>
		<path fill="#4EA8DE" d="M640.806,368.041h12.84c4.736,0,7.845,2.146,7.845,6.55c0,2.664-1.369,4.588-3.774,5.624v0.074
			c3.256,0.703,4.958,3.219,4.958,6.809c0,4.145-2.886,7.363-9.731,7.363h-12.137V368.041z M645.431,379.104h7.549
			c2.22,0,3.885-1.295,3.885-3.663c0-2.664-1.369-3.626-3.885-3.626h-7.549V379.104z M645.431,390.687h8.178
			c2.812,0,4.44-1.517,4.44-4.181c0-2.628-1.628-4.07-4.44-4.07h-8.178V390.687z"/>
	</g>
</g>
<g>
	<g>
		<path fill="#4EA8DE" d="M746.079,478.071c0,4.033,2.997,5.661,6.697,5.661c4.07,0,5.587-2.035,5.587-3.996
			c0-2.035-1.109-2.849-2.183-3.256c-1.888-0.703-4.219-1.185-7.882-2.184c-4.551-1.184-5.847-3.959-5.847-6.697
			c0-5.328,4.885-7.771,9.658-7.771c5.477,0,10.139,2.923,10.139,8.437h-4.625c-0.26-3.404-2.479-4.662-5.699-4.662
			c-2.146,0-4.847,0.776-4.847,3.441c0,1.887,1.258,2.849,3.145,3.404c0.407,0.11,6.254,1.628,7.623,2.035
			c3.441,1.072,5.144,3.922,5.144,6.734c0,5.92-5.292,8.288-10.509,8.288c-6.031,0-10.916-2.886-11.027-9.436H746.079z"/>
		<path fill="#4EA8DE" d="M764.504,467.748h3.183v-5.735h4.218v5.735h3.812v3.145h-3.812v10.213c0,1.739,0.148,2.627,2.035,2.627
			c0.592,0,1.185,0,1.776-0.147v3.256c-0.925,0.111-1.813,0.222-2.738,0.222c-4.44,0-5.181-1.702-5.291-4.884v-11.286h-3.183
			V467.748z"/>
		<path fill="#4EA8DE" d="M782.042,478.404c0,2.997,1.628,5.661,5.144,5.661c2.479,0,3.922-1.073,4.662-3.182h3.996
			c-0.888,4.181-4.515,6.512-8.658,6.512c-6.032,0-9.362-4.144-9.362-10.064c0-5.439,3.553-10.102,9.251-10.102
			c6.031,0,9.731,5.439,9.028,11.175H782.042z M791.885,475.628c-0.186-2.664-1.925-5.069-4.811-5.069
			c-2.924,0-4.922,2.221-5.032,5.069H791.885z"/>
		<path fill="#4EA8DE" d="M799.432,467.748h3.996v2.59h0.074c1.185-2.221,3.441-3.108,5.921-3.108c6.031,0,8.954,4.552,8.954,10.176
			c0,5.181-2.627,9.99-8.252,9.99c-2.441,0-5.105-0.888-6.401-2.997h-0.073v9.547h-4.219V467.748z M808.867,470.559
			c-3.552,0-5.365,2.664-5.365,6.771c0,3.849,1.961,6.734,5.365,6.734c3.849,0,5.292-3.404,5.292-6.734
			C814.159,473.889,812.346,470.559,808.867,470.559z"/>
		<path fill="#4EA8DE" d="M831.954,465.268c3.516,0,6.957-1.147,7.549-4.292h3.441v25.901h-4.626v-18.279h-6.364V465.268z"/>
	</g>
</g>
<g>
	<g>
		<path fill="#4EA8DE" d="M746.079,573.299c0,4.033,2.997,5.66,6.697,5.66c4.07,0,5.587-2.035,5.587-3.996
			c0-2.035-1.109-2.848-2.183-3.256c-1.888-0.703-4.219-1.184-7.882-2.184c-4.551-1.184-5.847-3.959-5.847-6.697
			c0-5.328,4.885-7.77,9.658-7.77c5.477,0,10.139,2.922,10.139,8.436h-4.625c-0.26-3.404-2.479-4.662-5.699-4.662
			c-2.146,0-4.847,0.777-4.847,3.441c0,1.887,1.258,2.85,3.145,3.404c0.407,0.111,6.254,1.629,7.623,2.035
			c3.441,1.072,5.144,3.922,5.144,6.734c0,5.92-5.292,8.289-10.509,8.289c-6.031,0-10.916-2.887-11.027-9.436H746.079z"/>
		<path fill="#4EA8DE" d="M764.504,562.975h3.183v-5.734h4.218v5.734h3.812v3.145h-3.812v10.213c0,1.74,0.148,2.627,2.035,2.627
			c0.592,0,1.185,0,1.776-0.146v3.256c-0.925,0.111-1.813,0.221-2.738,0.221c-4.44,0-5.181-1.701-5.291-4.883v-11.287h-3.183
			V562.975z"/>
		<path fill="#4EA8DE" d="M782.042,573.631c0,2.998,1.628,5.662,5.144,5.662c2.479,0,3.922-1.074,4.662-3.182h3.996
			c-0.888,4.18-4.515,6.512-8.658,6.512c-6.032,0-9.362-4.145-9.362-10.064c0-5.439,3.553-10.102,9.251-10.102
			c6.031,0,9.731,5.439,9.028,11.174H782.042z M791.885,570.855c-0.186-2.664-1.925-5.068-4.811-5.068
			c-2.924,0-4.922,2.221-5.032,5.068H791.885z"/>
		<path fill="#4EA8DE" d="M799.432,562.975h3.996v2.59h0.074c1.185-2.221,3.441-3.107,5.921-3.107c6.031,0,8.954,4.551,8.954,10.176
			c0,5.18-2.627,9.99-8.252,9.99c-2.441,0-5.105-0.889-6.401-2.998h-0.073v9.547h-4.219V562.975z M808.867,565.787
			c-3.552,0-5.365,2.664-5.365,6.771c0,3.848,1.961,6.734,5.365,6.734c3.849,0,5.292-3.404,5.292-6.734
			C814.159,569.117,812.346,565.787,808.867,565.787z"/>
		<path fill="#4EA8DE" d="M849.123,582.105h-17.687c0.037-4.293,2.183-7.438,5.698-9.807c3.367-2.479,7.696-4.477,7.808-8.51
			c0-1.85-0.703-4.588-4.366-4.588c-3.33,0-4.329,2.811-4.44,6.475h-4.219c0-5.734,3.146-9.99,8.918-9.99
			c6.327,0,8.325,4.625,8.325,7.955c0,8.289-11.248,10.064-12.654,14.689h12.617V582.105z"/>
	</g>
</g>
<g>
	<g>
		<path fill="#4EA8DE" d="M746.079,662.244c0,4.033,2.997,5.66,6.697,5.66c4.07,0,5.587-2.035,5.587-3.996
			c0-2.035-1.109-2.848-2.183-3.256c-1.888-0.703-4.219-1.184-7.882-2.184c-4.551-1.184-5.847-3.959-5.847-6.697
			c0-5.328,4.885-7.77,9.658-7.77c5.477,0,10.139,2.922,10.139,8.436h-4.625c-0.26-3.404-2.479-4.662-5.699-4.662
			c-2.146,0-4.847,0.777-4.847,3.441c0,1.887,1.258,2.85,3.145,3.404c0.407,0.111,6.254,1.629,7.623,2.035
			c3.441,1.072,5.144,3.922,5.144,6.734c0,5.92-5.292,8.289-10.509,8.289c-6.031,0-10.916-2.887-11.027-9.436H746.079z"/>
		<path fill="#4EA8DE" d="M764.504,651.92h3.183v-5.734h4.218v5.734h3.812v3.145h-3.812v10.213c0,1.74,0.148,2.627,2.035,2.627
			c0.592,0,1.185,0,1.776-0.146v3.256c-0.925,0.111-1.813,0.221-2.738,0.221c-4.44,0-5.181-1.701-5.291-4.883v-11.287h-3.183V651.92
			z"/>
		<path fill="#4EA8DE" d="M782.042,662.576c0,2.998,1.628,5.662,5.144,5.662c2.479,0,3.922-1.074,4.662-3.182h3.996
			c-0.888,4.18-4.515,6.512-8.658,6.512c-6.032,0-9.362-4.145-9.362-10.064c0-5.439,3.553-10.102,9.251-10.102
			c6.031,0,9.731,5.439,9.028,11.174H782.042z M791.885,659.801c-0.186-2.664-1.925-5.068-4.811-5.068
			c-2.924,0-4.922,2.221-5.032,5.068H791.885z"/>
		<path fill="#4EA8DE" d="M799.432,651.92h3.996v2.59h0.074c1.185-2.221,3.441-3.107,5.921-3.107c6.031,0,8.954,4.551,8.954,10.176
			c0,5.18-2.627,9.99-8.252,9.99c-2.441,0-5.105-0.889-6.401-2.998h-0.073v9.547h-4.219V651.92z M808.867,654.732
			c-3.552,0-5.365,2.664-5.365,6.771c0,3.848,1.961,6.734,5.365,6.734c3.849,0,5.292-3.404,5.292-6.734
			C814.159,658.062,812.346,654.732,808.867,654.732z"/>
		<path fill="#4EA8DE" d="M838.43,655.879c2.812,0.111,5.735-0.889,5.735-4.07c0-2.221-1.665-3.662-4.033-3.662
			c-2.923,0-4.403,2.627-4.292,5.291h-4.219c0.186-5.033,3.404-8.807,8.585-8.807c4.033,0,8.178,2.33,8.178,6.92
			c0,2.627-1.147,4.662-3.664,5.549v0.074c2.961,0.592,4.7,3.109,4.7,6.477c0,4.883-4.256,7.918-9.177,7.918
			c-5.995,0-8.992-3.59-9.103-9.029h4.218c-0.111,3.146,1.591,5.514,4.885,5.514c2.812,0,4.958-1.664,4.958-4.625
			c0-4.033-3.441-4.514-6.771-4.402V655.879z"/>
	</g>
</g>
<g>
	<g>
		<path fill="#4EA8DE" d="M554.079,835.764c0,4.033,2.997,5.661,6.697,5.661c4.07,0,5.587-2.035,5.587-3.996
			c0-2.035-1.109-2.849-2.183-3.256c-1.888-0.703-4.219-1.185-7.882-2.184c-4.551-1.184-5.847-3.959-5.847-6.697
			c0-5.328,4.885-7.771,9.658-7.771c5.477,0,10.139,2.923,10.139,8.437h-4.625c-0.26-3.404-2.479-4.662-5.699-4.662
			c-2.146,0-4.847,0.776-4.847,3.441c0,1.887,1.258,2.849,3.145,3.404c0.407,0.11,6.254,1.628,7.623,2.035
			c3.441,1.072,5.144,3.922,5.144,6.734c0,5.92-5.292,8.288-10.509,8.288c-6.031,0-10.916-2.886-11.027-9.436H554.079z"/>
		<path fill="#4EA8DE" d="M572.504,825.44h3.183v-5.735h4.218v5.735h3.812v3.145h-3.812v10.213c0,1.739,0.148,2.627,2.035,2.627
			c0.592,0,1.185,0,1.776-0.147v3.256c-0.925,0.111-1.813,0.222-2.738,0.222c-4.44,0-5.181-1.702-5.291-4.884v-11.286h-3.183V825.44
			z"/>
		<path fill="#4EA8DE" d="M590.042,836.097c0,2.997,1.628,5.661,5.144,5.661c2.479,0,3.922-1.073,4.662-3.182h3.996
			c-0.888,4.181-4.515,6.512-8.658,6.512c-6.032,0-9.362-4.144-9.362-10.064c0-5.439,3.553-10.102,9.251-10.102
			c6.031,0,9.731,5.439,9.028,11.175H590.042z M599.885,833.321c-0.186-2.664-1.925-5.069-4.811-5.069
			c-2.924,0-4.922,2.221-5.032,5.069H599.885z"/>
		<path fill="#4EA8DE" d="M607.432,825.44h3.996v2.59h0.074c1.185-2.221,3.441-3.108,5.921-3.108c6.031,0,8.954,4.552,8.954,10.176
			c0,5.181-2.627,9.99-8.252,9.99c-2.441,0-5.105-0.888-6.401-2.997h-0.073v9.547h-4.219V825.44z M616.867,828.252
			c-3.552,0-5.365,2.664-5.365,6.771c0,3.849,1.961,6.734,5.365,6.734c3.849,0,5.292-3.404,5.292-6.734
			C622.159,831.582,620.346,828.252,616.867,828.252z"/>
		<path fill="#4EA8DE" d="M658.641,826.55c-0.777-3.071-2.738-5.254-6.587-5.254c-5.661,0-8.029,4.995-8.029,10.064
			s2.368,10.064,8.029,10.064c4.145,0,6.328-3.071,6.735-6.919h4.514c-0.407,6.327-4.847,10.693-11.249,10.693
			c-7.881,0-12.654-6.253-12.654-13.839c0-7.512,4.773-13.839,12.654-13.839c5.995,0,10.62,3.33,11.212,9.028H658.641z"/>
	</g>
</g>
</svg>
