<?xml version="1.0" encoding="utf-8"?>
<!-- Generator: Adobe Illustrator 16.0.3, SVG Export Plug-In . SVG Version: 6.00 Build 0)  -->
<!DOCTYPE svg PUBLIC "-//W3C//DTD SVG 1.1//EN" "http://www.w3.org/Graphics/SVG/1.1/DTD/svg11.dtd">
<svg version="1.1" id="Layer_1" xmlns="http://www.w3.org/2000/svg" xmlns:xlink="http://www.w3.org/1999/xlink" x="0px" y="0px"
	 width="2048px" height="1000px" viewBox="0 0 2048 1000" enable-background="new 0 0 2048 1000" xml:space="preserve">
<rect fill="#89BE46" width="2048" height="1000"/>
<rect x="0.5" y="695.942" fill="#678F35" width="2048" height="304.058"/>
<g>
	<path fill="#333333" d="M195.273,230.753c4.554,0,8.235,3.634,8.235,8.189s-3.681,8.235-8.235,8.235
		c-4.555,0-8.189-3.68-8.189-8.235S190.719,230.753,195.273,230.753z"/>
	<path fill="#333333" d="M230.602,226.199h-10.95v-3.68h26.269v3.68h-10.949v29.167h-4.37V226.199z"/>
	<path fill="#333333" d="M259.167,231.029c7.545,0,11.547,5.475,11.547,12.468c0,6.947-4.002,12.421-11.547,12.421
		s-11.547-5.475-11.547-12.421C247.62,236.504,251.622,231.029,259.167,231.029z M259.167,252.468c4.094,0,7.407-3.22,7.407-8.971
		c0-5.751-3.312-9.017-7.407-9.017c-4.095,0-7.407,3.266-7.407,9.017C251.76,249.248,255.072,252.468,259.167,252.468z"/>
	<path fill="#333333" d="M288.237,231.582h3.91v3.22h0.092c1.288-2.622,4.278-3.772,7.591-3.772c7.315,0,10.949,5.797,10.949,12.514
		c0,6.763-3.588,12.375-10.857,12.375c-2.392,0-5.98-0.92-7.683-3.727h-0.092v12.283h-3.91V231.582z M299.278,234.48
		c-5.291,0-7.269,4.554-7.269,8.971c0,4.646,2.116,9.017,7.499,9.017c5.337,0,7.131-4.554,7.131-9.201
		C306.639,238.804,304.339,234.48,299.278,234.48z"/>
	<path fill="#333333" d="M315.238,231.582h3.681v5.015h0.092c1.886-3.865,4.509-5.705,8.741-5.567v4.141
		c-6.303,0-8.603,3.542-8.603,9.615v10.581h-3.911V231.582z"/>
	<path fill="#333333" d="M340.954,231.029c7.545,0,11.547,5.475,11.547,12.468c0,6.947-4.002,12.421-11.547,12.421
		s-11.547-5.475-11.547-12.421C329.406,236.504,333.409,231.029,340.954,231.029z M340.954,252.468c4.094,0,7.407-3.22,7.407-8.971
		c0-5.751-3.312-9.017-7.407-9.017c-4.095,0-7.407,3.266-7.407,9.017C333.547,249.248,336.859,252.468,340.954,252.468z"/>
	<path fill="#333333" d="M367.817,255.366h-4.187l-8.833-23.785h4.371l6.671,19.828h0.092l6.487-19.828h4.094L367.817,255.366z"/>
	<path fill="#333333" d="M384.238,227.303h-3.911v-4.785h3.911V227.303z M380.328,231.582h3.911v23.785h-3.911V231.582z"/>
	<path fill="#333333" d="M411.563,255.366h-3.911v-3.22h-0.092c-1.288,2.622-4.278,3.772-7.591,3.772
		c-7.315,0-10.949-5.797-10.949-12.514s3.588-12.375,10.857-12.375c2.393,0,5.981,0.92,7.683,3.727h0.092v-12.237h3.911V255.366z
		 M400.522,252.468c5.291,0,7.269-4.554,7.269-8.971c0-4.647-2.116-9.017-7.499-9.017c-5.336,0-7.13,4.554-7.13,9.201
		C393.162,248.144,395.462,252.468,400.522,252.468z"/>
	<path fill="#333333" d="M437.875,247.821c-1.058,5.291-4.784,8.097-10.167,8.097c-7.591,0-11.179-5.291-11.409-12.514
		c0-7.177,4.692-12.375,11.179-12.375c8.419,0,10.995,7.867,10.765,13.618h-17.804c-0.138,4.141,2.208,7.821,7.407,7.821
		c3.266,0,5.475-1.518,6.165-4.646H437.875z M434.103,241.197c-0.23-3.727-2.944-6.717-6.855-6.717
		c-4.048,0-6.579,3.036-6.809,6.717H434.103z"/>
	<path fill="#333333" d="M475.595,253.342c0,7.775-3.497,11.686-11.042,11.686c-4.462,0-9.615-1.84-9.845-6.993h3.911
		c0.138,2.806,3.634,3.864,6.165,3.864c5.106,0,7.131-3.68,7.131-9.017v-1.564h-0.092c-1.334,2.898-4.371,4.324-7.407,4.324
		c-7.084,0-10.627-5.566-10.627-12.053c0-5.613,2.714-12.56,10.995-12.56c2.99,0,5.659,1.334,7.085,3.957h0.046v-3.404h3.681
		V253.342z M471.73,242.991c0-4.187-1.84-8.511-6.763-8.511c-5.015,0-7.039,4.094-7.039,8.649c0,4.278,1.564,9.063,6.717,9.063
		C469.798,252.192,471.73,247.453,471.73,242.991z"/>
	<path fill="#333333" d="M501.17,255.366h-3.681v-3.772h-0.092c-1.656,2.944-4.279,4.325-7.729,4.325
		c-6.257,0-8.189-3.588-8.189-8.695v-15.642h3.911v16.102c0,2.944,1.84,4.785,4.831,4.785c4.738,0,7.039-3.174,7.039-7.453v-13.434
		h3.911V255.366z"/>
	<path fill="#333333" d="M511.196,227.303h-3.911v-4.785h3.911V227.303z M507.286,231.582h3.911v23.785h-3.911V231.582z"/>
	<path fill="#333333" d="M538.521,255.366h-3.911v-3.22h-0.092c-1.288,2.622-4.278,3.772-7.591,3.772
		c-7.315,0-10.949-5.797-10.949-12.514s3.588-12.375,10.857-12.375c2.393,0,5.981,0.92,7.683,3.727h0.092v-12.237h3.911V255.366z
		 M527.48,252.468c5.291,0,7.269-4.554,7.269-8.971c0-4.647-2.116-9.017-7.499-9.017c-5.336,0-7.13,4.554-7.13,9.201
		C520.12,248.144,522.42,252.468,527.48,252.468z"/>
	<path fill="#333333" d="M565.615,255.274c-0.69,0.414-1.656,0.644-2.806,0.644c-2.024,0-3.312-1.104-3.312-3.681
		c-2.162,2.576-5.061,3.681-8.373,3.681c-4.324,0-7.867-1.886-7.867-6.671c0-5.383,4.002-6.579,8.051-7.315
		c4.279-0.874,8.005-0.506,8.005-3.496c0-3.451-2.852-3.957-5.291-3.957c-3.312,0-5.75,1.012-5.935,4.508h-3.911
		c0.23-5.889,4.739-7.959,10.075-7.959c4.279,0,8.925,0.966,8.925,6.533V249.8c0,1.84,0,2.668,1.242,2.668
		c0.368,0,0.782-0.092,1.196-0.23V255.274z M559.266,243.083c-3.036,2.254-11.869,0.046-11.869,5.889c0,2.576,2.208,3.496,4.6,3.496
		c5.153,0,7.269-3.174,7.269-5.382V243.083z"/>
	<path fill="#333333" d="M569.246,231.582h3.681v3.772h0.092c1.656-2.944,4.278-4.325,7.729-4.325c6.256,0,8.189,3.588,8.189,8.695
		v15.642h-3.911v-16.102c0-2.944-1.84-4.784-4.831-4.784c-4.738,0-7.039,3.174-7.039,7.453v13.434h-3.911V231.582z"/>
	<path fill="#333333" d="M610.97,239.218c-0.598-2.99-2.623-4.738-5.889-4.738c-5.659,0-7.407,4.508-7.407,9.293
		c0,4.417,1.978,8.695,6.947,8.695c3.818,0,6.026-2.162,6.533-5.796h4.002c-0.874,5.842-4.463,9.247-10.489,9.247
		c-7.269,0-11.133-5.015-11.133-12.146s3.68-12.744,11.225-12.744c5.429,0,9.661,2.53,10.259,8.189H610.97z"/>
	<path fill="#333333" d="M639.812,247.821c-1.058,5.291-4.784,8.097-10.167,8.097c-7.591,0-11.179-5.291-11.409-12.514
		c0-7.177,4.692-12.375,11.179-12.375c8.419,0,10.995,7.867,10.765,13.618h-17.804c-0.138,4.141,2.208,7.821,7.407,7.821
		c3.266,0,5.475-1.518,6.165-4.646H639.812z M636.04,241.197c-0.23-3.727-2.944-6.717-6.855-6.717c-4.048,0-6.579,3.036-6.809,6.717
		H636.04z"/>
	<path fill="#333333" d="M678.083,255.274c-0.69,0.414-1.656,0.644-2.806,0.644c-2.024,0-3.312-1.104-3.312-3.681
		c-2.162,2.576-5.061,3.681-8.373,3.681c-4.324,0-7.867-1.886-7.867-6.671c0-5.383,4.002-6.579,8.051-7.315
		c4.278-0.874,8.005-0.506,8.005-3.496c0-3.451-2.852-3.957-5.291-3.957c-3.312,0-5.75,1.012-5.935,4.508h-3.911
		c0.23-5.889,4.739-7.959,10.075-7.959c4.278,0,8.925,0.966,8.925,6.533V249.8c0,1.84,0,2.668,1.242,2.668
		c0.368,0,0.782-0.092,1.196-0.23V255.274z M671.734,243.083c-3.036,2.254-11.869,0.046-11.869,5.889c0,2.576,2.208,3.496,4.6,3.496
		c5.153,0,7.269-3.174,7.269-5.382V243.083z"/>
	<path fill="#333333" d="M684.106,247.867c0.138,3.497,3.221,4.601,6.395,4.601c2.438,0,5.75-0.552,5.75-3.542
		c0-6.119-15.55-1.978-15.55-11.133c0-4.784,4.693-6.763,8.879-6.763c5.337,0,9.385,1.656,9.753,7.453h-3.911
		c-0.23-3.037-2.99-4.002-5.521-4.002c-2.346,0-5.061,0.644-5.061,3.036c0,2.76,4.141,3.312,7.775,4.141
		c3.91,0.874,7.775,2.208,7.775,6.763c0,5.705-5.291,7.499-10.121,7.499c-5.337,0-9.845-2.163-10.075-8.051H684.106z"/>
	<path fill="#333333" d="M722.931,231.582h4.738v3.45h-4.738V249.8c0,1.84,0.506,2.116,2.944,2.116h1.794v3.45h-2.99
		c-4.048,0-5.659-0.828-5.659-5.199v-15.136h-4.048v-3.45h4.048v-7.131h3.911V231.582z"/>
	<path fill="#333333" d="M742.25,231.029c7.545,0,11.547,5.475,11.547,12.468c0,6.947-4.002,12.421-11.547,12.421
		s-11.547-5.475-11.547-12.421C730.703,236.504,734.706,231.029,742.25,231.029z M742.25,252.468c4.094,0,7.407-3.22,7.407-8.971
		c0-5.751-3.312-9.017-7.407-9.017c-4.095,0-7.407,3.266-7.407,9.017C734.844,249.248,738.156,252.468,742.25,252.468z"/>
	<path fill="#333333" d="M771.183,222.519h3.911v12.56h0.092c1.242-2.898,4.692-4.049,7.499-4.049c6.256,0,8.189,3.588,8.189,8.695
		v15.642h-3.911v-16.102c0-2.944-1.84-4.784-4.831-4.784c-4.738,0-7.039,3.174-7.039,7.453v13.434h-3.911V222.519z"/>
	<path fill="#333333" d="M807.018,231.029c7.545,0,11.547,5.475,11.547,12.468c0,6.947-4.002,12.421-11.547,12.421
		s-11.547-5.475-11.547-12.421C795.471,236.504,799.473,231.029,807.018,231.029z M807.018,252.468c4.094,0,7.407-3.22,7.407-8.971
		c0-5.751-3.312-9.017-7.407-9.017c-4.095,0-7.407,3.266-7.407,9.017C799.611,249.248,802.923,252.468,807.018,252.468z"/>
	<path fill="#333333" d="M846.717,255.366h-4.141l-4.831-18.908h-0.092l-4.785,18.908h-4.232L821,231.582h4.324l5.383,19.46h0.092
		l4.785-19.46h4.278l4.969,19.46h0.092l5.337-19.46h4.048L846.717,255.366z"/>
	<path fill="#333333" d="M871.646,222.519h4.371v32.848h-4.371V222.519z"/>
	<path fill="#333333" d="M883.375,222.519h11.916c2.852,0,6.763,0,8.695,1.196c2.162,1.288,3.864,3.588,3.864,6.854
		c0,3.497-1.794,6.119-4.876,7.361v0.092c4.049,0.874,6.257,3.864,6.257,7.913c0,4.785-3.497,9.431-9.983,9.431h-15.872V222.519z
		 M887.746,236.642h8.741c4.969,0,6.993-1.748,6.993-5.245c0-4.601-3.174-5.199-6.993-5.199h-8.741V236.642z M887.746,251.686
		h10.949c3.818,0,6.165-2.254,6.165-5.889c0-4.278-3.45-5.475-7.131-5.475h-9.983V251.686z"/>
	<path fill="#333333" d="M914.978,222.519h5.98l10.352,27.603l10.396-27.603h5.981v32.848h-4.141v-27.327h-0.093l-10.259,27.327
		h-3.727l-10.259-27.327h-0.092v27.327h-4.14V222.519z"/>
	<path fill="#333333" d="M997.412,255.366h-4.555l-7.499-27.603h-0.092l-7.591,27.603h-4.555l-8.419-32.848h4.463l6.44,27.327h0.092
		l7.361-27.327h4.738l7.27,27.327h0.092l6.671-27.327h4.37L997.412,255.366z"/>
	<path fill="#333333" d="M1030.761,255.274c-0.69,0.414-1.656,0.644-2.807,0.644c-2.023,0-3.312-1.104-3.312-3.681
		c-2.163,2.576-5.061,3.681-8.373,3.681c-4.325,0-7.867-1.886-7.867-6.671c0-5.383,4.002-6.579,8.051-7.315
		c4.278-0.874,8.005-0.506,8.005-3.496c0-3.451-2.853-3.957-5.29-3.957c-3.312,0-5.751,1.012-5.936,4.508h-3.91
		c0.23-5.889,4.738-7.959,10.075-7.959c4.278,0,8.925,0.966,8.925,6.533V249.8c0,1.84,0,2.668,1.242,2.668
		c0.368,0,0.782-0.092,1.196-0.23V255.274z M1024.412,243.083c-3.036,2.254-11.869,0.046-11.869,5.889
		c0,2.576,2.208,3.496,4.601,3.496c5.152,0,7.269-3.174,7.269-5.382V243.083z"/>
	<path fill="#333333" d="M1039.82,231.582h4.738v3.45h-4.738V249.8c0,1.84,0.506,2.116,2.944,2.116h1.794v3.45h-2.99
		c-4.049,0-5.658-0.828-5.658-5.199v-15.136h-4.049v-3.45h4.049v-7.131h3.91V231.582z"/>
	<path fill="#333333" d="M1051.273,247.867c0.138,3.497,3.22,4.601,6.395,4.601c2.438,0,5.751-0.552,5.751-3.542
		c0-6.119-15.55-1.978-15.55-11.133c0-4.784,4.692-6.763,8.879-6.763c5.336,0,9.385,1.656,9.753,7.453h-3.91
		c-0.23-3.037-2.991-4.002-5.521-4.002c-2.346,0-5.061,0.644-5.061,3.036c0,2.76,4.141,3.312,7.775,4.141
		c3.91,0.874,7.774,2.208,7.774,6.763c0,5.705-5.29,7.499-10.121,7.499c-5.336,0-9.845-2.163-10.075-8.051H1051.273z"/>
	<path fill="#333333" d="M1082.14,231.029c7.545,0,11.548,5.475,11.548,12.468c0,6.947-4.003,12.421-11.548,12.421
		s-11.547-5.475-11.547-12.421C1070.593,236.504,1074.595,231.029,1082.14,231.029z M1082.14,252.468
		c4.095,0,7.407-3.22,7.407-8.971c0-5.751-3.312-9.017-7.407-9.017c-4.094,0-7.406,3.266-7.406,9.017
		C1074.733,249.248,1078.046,252.468,1082.14,252.468z"/>
	<path fill="#333333" d="M1098.284,231.582h3.681v3.772h0.092c1.656-2.944,4.278-4.325,7.729-4.325c6.257,0,8.189,3.588,8.189,8.695
		v15.642h-3.91v-16.102c0-2.944-1.841-4.784-4.831-4.784c-4.738,0-7.039,3.174-7.039,7.453v13.434h-3.91V231.582z"/>
	<path fill="#333333" d="M1137.293,222.519h4.37v14.124h17.298v-14.124h4.37v32.848h-4.37v-15.044h-17.298v15.044h-4.37V222.519z"/>
	<path fill="#333333" d="M1190.147,247.821c-1.058,5.291-4.784,8.097-10.167,8.097c-7.591,0-11.18-5.291-11.409-12.514
		c0-7.177,4.692-12.375,11.18-12.375c8.419,0,10.995,7.867,10.765,13.618h-17.804c-0.139,4.141,2.208,7.821,7.406,7.821
		c3.267,0,5.475-1.518,6.165-4.646H1190.147z M1186.375,241.197c-0.229-3.727-2.944-6.717-6.854-6.717
		c-4.049,0-6.579,3.036-6.809,6.717H1186.375z"/>
	<path fill="#333333" d="M1215.631,255.274c-0.69,0.414-1.656,0.644-2.807,0.644c-2.023,0-3.312-1.104-3.312-3.681
		c-2.163,2.576-5.061,3.681-8.373,3.681c-4.325,0-7.867-1.886-7.867-6.671c0-5.383,4.002-6.579,8.051-7.315
		c4.278-0.874,8.005-0.506,8.005-3.496c0-3.451-2.853-3.957-5.29-3.957c-3.312,0-5.751,1.012-5.936,4.508h-3.91
		c0.23-5.889,4.738-7.959,10.075-7.959c4.278,0,8.925,0.966,8.925,6.533V249.8c0,1.84,0,2.668,1.242,2.668
		c0.368,0,0.782-0.092,1.196-0.23V255.274z M1209.282,243.083c-3.036,2.254-11.869,0.046-11.869,5.889
		c0,2.576,2.208,3.496,4.601,3.496c5.152,0,7.269-3.174,7.269-5.382V243.083z"/>
	<path fill="#333333" d="M1219.492,222.519h3.91v32.848h-3.91V222.519z"/>
	<path fill="#333333" d="M1234.901,231.582h4.738v3.45h-4.738V249.8c0,1.84,0.506,2.116,2.944,2.116h1.794v3.45h-2.99
		c-4.049,0-5.658-0.828-5.658-5.199v-15.136h-4.049v-3.45h4.049v-7.131h3.91V231.582z"/>
	<path fill="#333333" d="M1243.962,222.519h3.91v12.56h0.093c1.241-2.898,4.692-4.049,7.498-4.049c6.257,0,8.189,3.588,8.189,8.695
		v15.642h-3.91v-16.102c0-2.944-1.841-4.784-4.831-4.784c-4.738,0-7.039,3.174-7.039,7.453v13.434h-3.91V222.519z"/>
	<path fill="#333333" d="M250.271,309.366h-4.141l-4.831-18.908h-0.092l-4.785,18.908h-4.232l-7.637-23.785h4.324l5.383,19.46h0.092
		l4.785-19.46h4.278l4.969,19.46h0.092l5.337-19.46h4.048L250.271,309.366z"/>
	<path fill="#333333" d="M265.725,281.303h-3.911v-4.785h3.911V281.303z M261.814,285.582h3.911v23.785h-3.911V285.582z"/>
	<path fill="#333333" d="M272.025,276.519h3.911v32.848h-3.911V276.519z"/>
	<path fill="#333333" d="M282.237,276.519h3.911v32.848h-3.911V276.519z"/>
	<path fill="#333333" d="M305.145,285.582h3.91v3.22h0.092c1.288-2.622,4.278-3.772,7.591-3.772c7.315,0,10.949,5.797,10.949,12.514
		c0,6.763-3.588,12.375-10.857,12.375c-2.392,0-5.98-0.92-7.683-3.727h-0.092v12.283h-3.91V285.582z M316.186,288.48
		c-5.291,0-7.269,4.554-7.269,8.971c0,4.646,2.116,9.017,7.499,9.017c5.337,0,7.131-4.554,7.131-9.201
		C323.546,292.804,321.246,288.48,316.186,288.48z"/>
	<path fill="#333333" d="M352.572,301.821c-1.058,5.291-4.784,8.097-10.167,8.097c-7.591,0-11.179-5.291-11.409-12.514
		c0-7.177,4.692-12.375,11.179-12.375c8.419,0,10.995,7.867,10.765,13.618h-17.804c-0.138,4.141,2.208,7.821,7.407,7.821
		c3.266,0,5.475-1.518,6.165-4.646H352.572z M348.8,295.197c-0.23-3.727-2.944-6.717-6.855-6.717c-4.048,0-6.579,3.036-6.809,6.717
		H348.8z"/>
	<path fill="#333333" d="M356.847,285.582h3.681v5.015h0.092c1.886-3.865,4.509-5.705,8.741-5.567v4.141
		c-6.303,0-8.603,3.542-8.603,9.615v10.581h-3.911V285.582z"/>
	<path fill="#333333" d="M373.914,289.032h-4.002v-3.45h4.002v-3.542c0-3.864,2.3-5.889,6.579-5.889c0.736,0,1.794,0.138,2.53,0.368
		v3.404c-0.69-0.23-1.518-0.322-2.208-0.322c-1.886,0-2.99,0.598-2.99,2.668v3.312h4.601v3.45h-4.601v20.334h-3.91V289.032z"/>
	<path fill="#333333" d="M396.178,285.029c7.545,0,11.547,5.475,11.547,12.468c0,6.947-4.002,12.421-11.547,12.421
		s-11.547-5.475-11.547-12.421C384.631,290.504,388.633,285.029,396.178,285.029z M396.178,306.468c4.094,0,7.407-3.22,7.407-8.971
		c0-5.751-3.312-9.017-7.407-9.017c-4.095,0-7.407,3.266-7.407,9.017C388.771,303.248,392.083,306.468,396.178,306.468z"/>
	<path fill="#333333" d="M412.184,285.582h3.681v5.015h0.092c1.886-3.865,4.509-5.705,8.741-5.567v4.141
		c-6.303,0-8.603,3.542-8.603,9.615v10.581h-3.911V285.582z"/>
	<path fill="#333333" d="M427.64,285.582h3.68v3.497h0.092c1.794-2.714,4.325-4.049,7.683-4.049c2.944,0,5.567,1.104,6.533,4.049
		c1.61-2.577,4.37-4.049,7.453-4.049c4.738,0,7.913,1.979,7.913,6.901v17.436h-3.911v-15.596c0-2.944-0.782-5.291-4.601-5.291
		s-6.21,2.392-6.21,6.073v14.813h-3.911v-15.596c0-3.083-0.966-5.291-4.462-5.291c-4.601,0-6.349,4.232-6.349,6.073v14.813h-3.911
		V285.582z"/>
	<path fill="#333333" d="M494.204,275.736c10.443,0,15.734,8.235,15.734,17.206s-5.291,17.206-15.734,17.206
		s-15.734-8.235-15.734-17.206S483.76,275.736,494.204,275.736z M494.204,306.468c8.005,0,11.363-6.901,11.363-13.525
		c0-6.625-3.358-13.525-11.363-13.525s-11.363,6.9-11.363,13.525C482.84,299.567,486.199,306.468,494.204,306.468z"/>
	<path fill="#333333" d="M516.236,289.032h-4.002v-3.45h4.002v-3.542c0-3.864,2.3-5.889,6.579-5.889c0.736,0,1.794,0.138,2.53,0.368
		v3.404c-0.69-0.23-1.518-0.322-2.208-0.322c-1.886,0-2.99,0.598-2.99,2.668v3.312h4.601v3.45h-4.601v20.334h-3.91V289.032z"/>
	<path fill="#333333" d="M529.852,289.032h-4.002v-3.45h4.002v-3.542c0-3.864,2.3-5.889,6.579-5.889c0.736,0,1.794,0.138,2.53,0.368
		v3.404c-0.69-0.23-1.518-0.322-2.208-0.322c-1.886,0-2.99,0.598-2.99,2.668v3.312h4.601v3.45h-4.601v20.334h-3.91V289.032z"/>
	<path fill="#333333" d="M562.146,301.821c-1.058,5.291-4.784,8.097-10.167,8.097c-7.591,0-11.179-5.291-11.409-12.514
		c0-7.177,4.692-12.375,11.179-12.375c8.419,0,10.995,7.867,10.765,13.618H544.71c-0.138,4.141,2.208,7.821,7.407,7.821
		c3.266,0,5.475-1.518,6.165-4.646H562.146z M558.374,295.197c-0.23-3.727-2.944-6.717-6.855-6.717
		c-4.048,0-6.579,3.036-6.809,6.717H558.374z"/>
	<path fill="#333333" d="M566.42,285.582h3.681v5.015h0.092c1.886-3.865,4.509-5.705,8.741-5.567v4.141
		c-6.303,0-8.603,3.542-8.603,9.615v10.581h-3.911V285.582z"/>
	<path fill="#333333" d="M586.017,281.303h-3.911v-4.785h3.911V281.303z M582.106,285.582h3.911v23.785h-3.911V285.582z"/>
	<path fill="#333333" d="M592.088,285.582h3.681v3.772h0.092c1.656-2.944,4.278-4.325,7.729-4.325c6.256,0,8.189,3.588,8.189,8.695
		v15.642h-3.911v-16.102c0-2.944-1.84-4.784-4.831-4.784c-4.738,0-7.039,3.174-7.039,7.453v13.434h-3.911V285.582z"/>
	<path fill="#333333" d="M638.183,307.342c0,7.775-3.497,11.686-11.042,11.686c-4.462,0-9.615-1.84-9.845-6.993h3.911
		c0.138,2.806,3.634,3.864,6.165,3.864c5.106,0,7.131-3.68,7.131-9.017v-1.564h-0.092c-1.334,2.898-4.371,4.324-7.407,4.324
		c-7.084,0-10.627-5.566-10.627-12.053c0-5.613,2.714-12.56,10.995-12.56c2.99,0,5.659,1.334,7.085,3.957h0.046v-3.404h3.681
		V307.342z M634.318,296.991c0-4.187-1.84-8.511-6.763-8.511c-5.015,0-7.039,4.094-7.039,8.649c0,4.278,1.564,9.063,6.717,9.063
		C632.386,306.192,634.318,301.453,634.318,296.991z"/>
	<path fill="#333333" d="M660.996,281.303h-3.911v-4.785h3.911V281.303z M657.085,285.582h3.911v23.785h-3.911V285.582z"/>
	<path fill="#333333" d="M667.067,285.582h3.68v3.772h0.092c1.656-2.944,4.278-4.325,7.729-4.325c6.256,0,8.189,3.588,8.189,8.695
		v15.642h-3.911v-16.102c0-2.944-1.84-4.784-4.831-4.784c-4.738,0-7.039,3.174-7.039,7.453v13.434h-3.911V285.582z"/>
	<path fill="#333333" d="M695.035,301.867c0.138,3.497,3.221,4.601,6.395,4.601c2.438,0,5.75-0.552,5.75-3.542
		c0-6.119-15.55-1.978-15.55-11.133c0-4.784,4.692-6.763,8.879-6.763c5.337,0,9.385,1.656,9.753,7.453h-3.911
		c-0.23-3.037-2.99-4.002-5.521-4.002c-2.346,0-5.061,0.644-5.061,3.036c0,2.76,4.141,3.312,7.775,4.141
		c3.91,0.874,7.775,2.208,7.775,6.763c0,5.705-5.291,7.499-10.121,7.499c-5.337,0-9.845-2.163-10.075-8.051H695.035z"/>
	<path fill="#333333" d="M721.072,285.582h4.738v3.45h-4.738V303.8c0,1.84,0.506,2.116,2.944,2.116h1.794v3.45h-2.99
		c-4.048,0-5.659-0.828-5.659-5.199v-15.136h-4.048v-3.45h4.048v-7.131h3.911V285.582z"/>
	<path fill="#333333" d="M751.203,309.274c-0.69,0.414-1.656,0.644-2.806,0.644c-2.024,0-3.312-1.104-3.312-3.681
		c-2.162,2.576-5.061,3.681-8.373,3.681c-4.324,0-7.867-1.886-7.867-6.671c0-5.383,4.002-6.579,8.051-7.315
		c4.279-0.874,8.005-0.506,8.005-3.496c0-3.451-2.852-3.957-5.291-3.957c-3.312,0-5.75,1.012-5.935,4.508h-3.911
		c0.23-5.889,4.739-7.959,10.075-7.959c4.279,0,8.925,0.966,8.925,6.533V303.8c0,1.84,0,2.668,1.242,2.668
		c0.368,0,0.782-0.092,1.196-0.23V309.274z M744.854,297.083c-3.036,2.254-11.869,0.046-11.869,5.889c0,2.576,2.208,3.496,4.6,3.496
		c5.153,0,7.269-3.174,7.269-5.382V297.083z"/>
	<path fill="#333333" d="M755.064,276.519h3.911v32.848h-3.911V276.519z"/>
	<path fill="#333333" d="M765.275,276.519h3.911v32.848h-3.911V276.519z"/>
	<path fill="#333333" d="M796.327,309.274c-0.69,0.414-1.656,0.644-2.806,0.644c-2.024,0-3.312-1.104-3.312-3.681
		c-2.162,2.576-5.061,3.681-8.373,3.681c-4.324,0-7.867-1.886-7.867-6.671c0-5.383,4.002-6.579,8.051-7.315
		c4.278-0.874,8.005-0.506,8.005-3.496c0-3.451-2.852-3.957-5.291-3.957c-3.312,0-5.75,1.012-5.935,4.508h-3.911
		c0.23-5.889,4.739-7.959,10.075-7.959c4.278,0,8.925,0.966,8.925,6.533V303.8c0,1.84,0,2.668,1.242,2.668
		c0.368,0,0.782-0.092,1.196-0.23V309.274z M789.979,297.083c-3.036,2.254-11.869,0.046-11.869,5.889c0,2.576,2.208,3.496,4.6,3.496
		c5.153,0,7.269-3.174,7.269-5.382V297.083z"/>
	<path fill="#333333" d="M805.387,285.582h4.738v3.45h-4.738V303.8c0,1.84,0.506,2.116,2.944,2.116h1.794v3.45h-2.99
		c-4.048,0-5.659-0.828-5.659-5.199v-15.136h-4.048v-3.45h4.048v-7.131h3.911V285.582z"/>
	<path fill="#333333" d="M818.588,281.303h-3.911v-4.785h3.911V281.303z M814.677,285.582h3.911v23.785h-3.911V285.582z"/>
	<path fill="#333333" d="M834.918,285.029c7.545,0,11.547,5.475,11.547,12.468c0,6.947-4.002,12.421-11.547,12.421
		s-11.547-5.475-11.547-12.421C823.371,290.504,827.373,285.029,834.918,285.029z M834.918,306.468c4.094,0,7.407-3.22,7.407-8.971
		c0-5.751-3.312-9.017-7.407-9.017c-4.095,0-7.407,3.266-7.407,9.017C827.511,303.248,830.823,306.468,834.918,306.468z"/>
	<path fill="#333333" d="M851.062,285.582h3.68v3.772h0.092c1.656-2.944,4.278-4.325,7.729-4.325c6.256,0,8.189,3.588,8.189,8.695
		v15.642h-3.911v-16.102c0-2.944-1.84-4.784-4.831-4.784c-4.738,0-7.039,3.174-7.039,7.453v13.434h-3.911V285.582z"/>
	<path fill="#333333" d="M879.03,301.867c0.138,3.497,3.221,4.601,6.395,4.601c2.438,0,5.75-0.552,5.75-3.542
		c0-6.119-15.55-1.978-15.55-11.133c0-4.784,4.692-6.763,8.879-6.763c5.337,0,9.385,1.656,9.753,7.453h-3.911
		c-0.23-3.037-2.99-4.002-5.521-4.002c-2.346,0-5.061,0.644-5.061,3.036c0,2.76,4.141,3.312,7.775,4.141
		c3.91,0.874,7.775,2.208,7.775,6.763c0,5.705-5.291,7.499-10.121,7.499c-5.337,0-9.845-2.163-10.075-8.051H879.03z"/>
	<path fill="#333333" d="M933.497,309.274c-0.69,0.414-1.656,0.644-2.807,0.644c-2.024,0-3.312-1.104-3.312-3.681
		c-2.162,2.576-5.061,3.681-8.373,3.681c-4.324,0-7.867-1.886-7.867-6.671c0-5.383,4.002-6.579,8.051-7.315
		c4.279-0.874,8.005-0.506,8.005-3.496c0-3.451-2.853-3.957-5.291-3.957c-3.312,0-5.75,1.012-5.935,4.508h-3.911
		c0.23-5.889,4.739-7.959,10.076-7.959c4.278,0,8.925,0.966,8.925,6.533V303.8c0,1.84,0,2.668,1.242,2.668
		c0.368,0,0.782-0.092,1.196-0.23V309.274z M927.148,297.083c-3.037,2.254-11.87,0.046-11.87,5.889c0,2.576,2.208,3.496,4.6,3.496
		c5.152,0,7.27-3.174,7.27-5.382V297.083z"/>
	<path fill="#333333" d="M937.128,285.582h3.681v3.772h0.092c1.656-2.944,4.278-4.325,7.729-4.325c6.257,0,8.189,3.588,8.189,8.695
		v15.642h-3.91v-16.102c0-2.944-1.841-4.784-4.831-4.784c-4.738,0-7.039,3.174-7.039,7.453v13.434h-3.91V285.582z"/>
	<path fill="#333333" d="M983.959,309.366h-3.911v-3.22h-0.092c-1.288,2.622-4.278,3.772-7.591,3.772
		c-7.314,0-10.949-5.797-10.949-12.514s3.588-12.375,10.857-12.375c2.392,0,5.98,0.92,7.683,3.727h0.092v-12.237h3.911V309.366z
		 M972.917,306.468c5.291,0,7.27-4.554,7.27-8.971c0-4.647-2.116-9.017-7.499-9.017c-5.337,0-7.131,4.554-7.131,9.201
		C965.557,302.144,967.856,306.468,972.917,306.468z"/>
	<path fill="#333333" d="M1002.632,285.582h3.68v5.015h0.093c1.886-3.865,4.508-5.705,8.74-5.567v4.141
		c-6.303,0-8.603,3.542-8.603,9.615v10.581h-3.91V285.582z"/>
	<path fill="#333333" d="M1038.375,301.821c-1.058,5.291-4.784,8.097-10.167,8.097c-7.591,0-11.18-5.291-11.409-12.514
		c0-7.177,4.692-12.375,11.18-12.375c8.419,0,10.995,7.867,10.765,13.618h-17.804c-0.139,4.141,2.208,7.821,7.406,7.821
		c3.267,0,5.475-1.518,6.165-4.646H1038.375z M1034.603,295.197c-0.229-3.727-2.944-6.717-6.854-6.717
		c-4.049,0-6.579,3.036-6.809,6.717H1034.603z"/>
	<path fill="#333333" d="M1043.019,276.519h3.91v32.848h-3.91V276.519z"/>
	<path fill="#333333" d="M1073.287,301.821c-1.058,5.291-4.784,8.097-10.167,8.097c-7.591,0-11.18-5.291-11.409-12.514
		c0-7.177,4.692-12.375,11.18-12.375c8.419,0,10.995,7.867,10.765,13.618h-17.804c-0.139,4.141,2.208,7.821,7.406,7.821
		c3.267,0,5.475-1.518,6.165-4.646H1073.287z M1069.515,295.197c-0.229-3.727-2.944-6.717-6.854-6.717
		c-4.049,0-6.579,3.036-6.809,6.717H1069.515z"/>
	<path fill="#333333" d="M1098.771,309.274c-0.69,0.414-1.656,0.644-2.807,0.644c-2.023,0-3.312-1.104-3.312-3.681
		c-2.163,2.576-5.061,3.681-8.373,3.681c-4.325,0-7.867-1.886-7.867-6.671c0-5.383,4.002-6.579,8.051-7.315
		c4.278-0.874,8.005-0.506,8.005-3.496c0-3.451-2.853-3.957-5.29-3.957c-3.312,0-5.751,1.012-5.936,4.508h-3.91
		c0.23-5.889,4.738-7.959,10.075-7.959c4.278,0,8.925,0.966,8.925,6.533V303.8c0,1.84,0,2.668,1.242,2.668
		c0.368,0,0.782-0.092,1.196-0.23V309.274z M1092.422,297.083c-3.036,2.254-11.869,0.046-11.869,5.889
		c0,2.576,2.208,3.496,4.601,3.496c5.152,0,7.269-3.174,7.269-5.382V297.083z"/>
	<path fill="#333333" d="M1104.794,301.867c0.138,3.497,3.22,4.601,6.395,4.601c2.438,0,5.751-0.552,5.751-3.542
		c0-6.119-15.55-1.978-15.55-11.133c0-4.784,4.692-6.763,8.879-6.763c5.336,0,9.385,1.656,9.753,7.453h-3.91
		c-0.23-3.037-2.991-4.002-5.521-4.002c-2.346,0-5.061,0.644-5.061,3.036c0,2.76,4.141,3.312,7.775,4.141
		c3.91,0.874,7.774,2.208,7.774,6.763c0,5.705-5.29,7.499-10.121,7.499c-5.336,0-9.845-2.163-10.075-8.051H1104.794z"/>
	<path fill="#333333" d="M1145.689,301.821c-1.058,5.291-4.784,8.097-10.167,8.097c-7.591,0-11.18-5.291-11.409-12.514
		c0-7.177,4.692-12.375,11.18-12.375c8.419,0,10.995,7.867,10.765,13.618h-17.804c-0.139,4.141,2.208,7.821,7.406,7.821
		c3.267,0,5.475-1.518,6.165-4.646H1145.689z M1141.917,295.197c-0.229-3.727-2.944-6.717-6.854-6.717
		c-4.049,0-6.579,3.036-6.809,6.717H1141.917z"/>
	<path fill="#333333" d="M241.254,329.736c10.443,0,15.734,8.235,15.734,17.206s-5.291,17.206-15.734,17.206
		s-15.734-8.235-15.734-17.206S230.811,329.736,241.254,329.736z M241.254,360.468c8.005,0,11.363-6.901,11.363-13.525
		c0-6.625-3.358-13.525-11.363-13.525s-11.363,6.9-11.363,13.525C229.891,353.567,233.249,360.468,241.254,360.468z"/>
	<path fill="#333333" d="M263.287,343.032h-4.002v-3.45h4.002v-3.542c0-3.864,2.3-5.889,6.579-5.889c0.736,0,1.794,0.138,2.53,0.368
		v3.404c-0.69-0.23-1.518-0.322-2.208-0.322c-1.886,0-2.99,0.598-2.99,2.668v3.312h4.601v3.45h-4.601v20.334h-3.91V343.032z"/>
	<path fill="#333333" d="M276.902,343.032H272.9v-3.45h4.002v-3.542c0-3.864,2.3-5.889,6.579-5.889c0.736,0,1.794,0.138,2.53,0.368
		v3.404c-0.69-0.23-1.518-0.322-2.208-0.322c-1.886,0-2.99,0.598-2.99,2.668v3.312h4.601v3.45h-4.601v20.334h-3.91V343.032z"/>
	<path fill="#333333" d="M309.196,355.821c-1.058,5.291-4.784,8.097-10.167,8.097c-7.591,0-11.179-5.291-11.409-12.514
		c0-7.177,4.692-12.375,11.179-12.375c8.419,0,10.995,7.867,10.765,13.618H291.76c-0.138,4.141,2.208,7.821,7.407,7.821
		c3.266,0,5.475-1.518,6.165-4.646H309.196z M305.424,349.197c-0.23-3.727-2.944-6.717-6.855-6.717
		c-4.048,0-6.579,3.036-6.809,6.717H305.424z"/>
	<path fill="#333333" d="M313.471,339.582h3.681v5.015h0.092c1.886-3.865,4.509-5.705,8.741-5.567v4.141
		c-6.303,0-8.603,3.542-8.603,9.615v10.581h-3.911V339.582z"/>
	<path fill="#333333" d="M333.068,335.303h-3.911v-4.785h3.911V335.303z M329.157,339.582h3.911v23.785h-3.911V339.582z"/>
	<path fill="#333333" d="M339.139,339.582h3.681v3.772h0.092c1.656-2.944,4.278-4.325,7.729-4.325c6.256,0,8.189,3.588,8.189,8.695
		v15.642h-3.911v-16.102c0-2.944-1.84-4.784-4.831-4.784c-4.738,0-7.039,3.174-7.039,7.453v13.434h-3.911V339.582z"/>
	<path fill="#333333" d="M385.233,361.342c0,7.775-3.497,11.686-11.042,11.686c-4.462,0-9.615-1.84-9.845-6.993h3.911
		c0.138,2.806,3.634,3.864,6.165,3.864c5.106,0,7.131-3.68,7.131-9.017v-1.564h-0.092c-1.334,2.898-4.371,4.324-7.407,4.324
		c-7.084,0-10.627-5.566-10.627-12.053c0-5.613,2.714-12.56,10.995-12.56c2.99,0,5.659,1.334,7.085,3.957h0.046v-3.404h3.681
		V361.342z M381.369,350.991c0-4.187-1.84-8.511-6.763-8.511c-5.015,0-7.039,4.094-7.039,8.649c0,4.278,1.564,9.063,6.717,9.063
		C379.437,360.192,381.369,355.453,381.369,350.991z"/>
	<path fill="#333333" d="M393.51,355.867c0.138,3.497,3.221,4.601,6.395,4.601c2.438,0,5.75-0.552,5.75-3.542
		c0-6.119-15.55-1.978-15.55-11.133c0-4.784,4.693-6.763,8.879-6.763c5.337,0,9.385,1.656,9.753,7.453h-3.911
		c-0.23-3.037-2.99-4.002-5.521-4.002c-2.346,0-5.061,0.644-5.061,3.036c0,2.76,4.141,3.312,7.775,4.141
		c3.91,0.874,7.775,2.208,7.775,6.763c0,5.705-5.291,7.499-10.121,7.499c-5.337,0-9.845-2.163-10.075-8.051H393.51z"/>
	<path fill="#333333" d="M432.335,339.582h4.738v3.45h-4.738V357.8c0,1.84,0.506,2.116,2.944,2.116h1.794v3.45h-2.99
		c-4.048,0-5.659-0.828-5.659-5.199v-15.136h-4.048v-3.45h4.048v-7.131h3.911V339.582z"/>
	<path fill="#333333" d="M451.655,339.029c7.545,0,11.547,5.475,11.547,12.468c0,6.947-4.002,12.421-11.547,12.421
		s-11.547-5.475-11.547-12.421C440.107,344.504,444.11,339.029,451.655,339.029z M451.655,360.468c4.094,0,7.407-3.22,7.407-8.971
		c0-5.751-3.312-9.017-7.407-9.017c-4.095,0-7.407,3.266-7.407,9.017C444.248,357.248,447.56,360.468,451.655,360.468z"/>
	<path fill="#333333" d="M496.735,347.218c-0.598-2.99-2.623-4.738-5.889-4.738c-5.659,0-7.407,4.508-7.407,9.293
		c0,4.417,1.978,8.695,6.947,8.695c3.818,0,6.026-2.162,6.533-5.796h4.002c-0.874,5.842-4.463,9.247-10.489,9.247
		c-7.269,0-11.133-5.015-11.133-12.146s3.68-12.744,11.225-12.744c5.429,0,9.661,2.53,10.259,8.189H496.735z"/>
	<path fill="#333333" d="M505.518,330.519h3.911v32.848h-3.911V330.519z"/>
	<path fill="#333333" d="M519.64,335.303h-3.911v-4.785h3.911V335.303z M515.729,339.582h3.911v23.785h-3.911V339.582z"/>
	<path fill="#333333" d="M545.999,355.821c-1.058,5.291-4.784,8.097-10.167,8.097c-7.591,0-11.179-5.291-11.409-12.514
		c0-7.177,4.692-12.375,11.179-12.375c8.419,0,10.995,7.867,10.765,13.618h-17.804c-0.138,4.141,2.208,7.821,7.407,7.821
		c3.266,0,5.475-1.518,6.165-4.646H545.999z M542.227,349.197c-0.23-3.727-2.944-6.717-6.855-6.717
		c-4.048,0-6.579,3.036-6.809,6.717H542.227z"/>
	<path fill="#333333" d="M550.412,339.582h3.681v3.772h0.092c1.656-2.944,4.278-4.325,7.729-4.325c6.256,0,8.189,3.588,8.189,8.695
		v15.642h-3.911v-16.102c0-2.944-1.84-4.784-4.831-4.784c-4.738,0-7.039,3.174-7.039,7.453v13.434h-3.911V339.582z"/>
	<path fill="#333333" d="M581.417,339.582h4.738v3.45h-4.738V357.8c0,1.84,0.506,2.116,2.944,2.116h1.794v3.45h-2.99
		c-4.048,0-5.659-0.828-5.659-5.199v-15.136h-4.048v-3.45h4.048v-7.131h3.911V339.582z"/>
	<path fill="#333333" d="M592.87,355.867c0.138,3.497,3.221,4.601,6.395,4.601c2.438,0,5.75-0.552,5.75-3.542
		c0-6.119-15.55-1.978-15.55-11.133c0-4.784,4.693-6.763,8.879-6.763c5.337,0,9.385,1.656,9.753,7.453h-3.911
		c-0.23-3.037-2.99-4.002-5.521-4.002c-2.346,0-5.061,0.644-5.061,3.036c0,2.76,4.141,3.312,7.775,4.141
		c3.91,0.874,7.775,2.208,7.775,6.763c0,5.705-5.291,7.499-10.121,7.499c-5.337,0-9.845-2.163-10.075-8.051H592.87z"/>
	<path fill="#333333" d="M195.273,422.753c4.554,0,8.235,3.634,8.235,8.189s-3.681,8.235-8.235,8.235
		c-4.555,0-8.189-3.68-8.189-8.235S190.719,422.753,195.273,422.753z"/>
	<path fill="#333333" d="M223.148,414.519h22.681v3.68h-18.31v10.443h17.068v3.68h-17.068v11.363h18.448v3.681h-22.819V414.519z"/>
	<path fill="#333333" d="M250.61,423.582h3.68v3.772h0.092c1.656-2.944,4.278-4.325,7.729-4.325c6.256,0,8.189,3.588,8.189,8.695
		v15.642h-3.911v-16.102c0-2.944-1.84-4.784-4.831-4.784c-4.738,0-7.039,3.174-7.039,7.453v13.434h-3.911V423.582z"/>
	<path fill="#333333" d="M278.578,439.867c0.138,3.497,3.221,4.601,6.395,4.601c2.438,0,5.75-0.552,5.75-3.542
		c0-6.119-15.55-1.978-15.55-11.133c0-4.784,4.692-6.763,8.879-6.763c5.337,0,9.385,1.656,9.753,7.453h-3.911
		c-0.23-3.037-2.99-4.002-5.521-4.002c-2.346,0-5.061,0.644-5.061,3.036c0,2.76,4.141,3.312,7.775,4.141
		c3.91,0.874,7.775,2.208,7.775,6.763c0,5.705-5.291,7.499-10.121,7.499c-5.337,0-9.845-2.163-10.075-8.051H278.578z"/>
	<path fill="#333333" d="M318.876,447.366h-3.681v-3.772h-0.092c-1.656,2.944-4.279,4.325-7.729,4.325
		c-6.257,0-8.189-3.588-8.189-8.695v-15.642h3.911v16.102c0,2.944,1.84,4.785,4.831,4.785c4.738,0,7.039-3.174,7.039-7.453v-13.434
		h3.911V447.366z"/>
	<path fill="#333333" d="M324.624,423.582h3.681v5.015h0.092c1.886-3.865,4.509-5.705,8.741-5.567v4.141
		c-6.303,0-8.603,3.542-8.603,9.615v10.581h-3.911V423.582z"/>
	<path fill="#333333" d="M360.368,439.821c-1.058,5.291-4.784,8.097-10.167,8.097c-7.591,0-11.179-5.291-11.409-12.514
		c0-7.177,4.692-12.375,11.179-12.375c8.419,0,10.995,7.867,10.765,13.618h-17.804c-0.138,4.141,2.208,7.821,7.407,7.821
		c3.266,0,5.475-1.518,6.165-4.646H360.368z M356.596,433.197c-0.23-3.727-2.944-6.717-6.855-6.717
		c-4.048,0-6.579,3.036-6.809,6.717H356.596z"/>
	<path fill="#333333" d="M367.173,439.867c0.138,3.497,3.221,4.601,6.395,4.601c2.438,0,5.75-0.552,5.75-3.542
		c0-6.119-15.55-1.978-15.55-11.133c0-4.784,4.693-6.763,8.879-6.763c5.337,0,9.385,1.656,9.753,7.453h-3.911
		c-0.23-3.037-2.99-4.002-5.521-4.002c-2.346,0-5.061,0.644-5.061,3.036c0,2.76,4.141,3.312,7.775,4.141
		c3.91,0.874,7.775,2.208,7.775,6.763c0,5.705-5.291,7.499-10.121,7.499c-5.337,0-9.845-2.163-10.075-8.051H367.173z"/>
	<path fill="#333333" d="M404.71,419.303h-3.911v-4.785h3.911V419.303z M400.799,423.582h3.911v23.785h-3.911V423.582z"/>
	<path fill="#333333" d="M410.781,423.582h3.68v3.772h0.092c1.656-2.944,4.278-4.325,7.729-4.325c6.256,0,8.189,3.588,8.189,8.695
		v15.642h-3.911v-16.102c0-2.944-1.84-4.784-4.831-4.784c-4.738,0-7.039,3.174-7.039,7.453v13.434h-3.911V423.582z"/>
	<path fill="#333333" d="M438.749,439.867c0.138,3.497,3.221,4.601,6.395,4.601c2.438,0,5.75-0.552,5.75-3.542
		c0-6.119-15.55-1.978-15.55-11.133c0-4.784,4.692-6.763,8.879-6.763c5.337,0,9.385,1.656,9.753,7.453h-3.911
		c-0.23-3.037-2.99-4.002-5.521-4.002c-2.346,0-5.061,0.644-5.061,3.036c0,2.76,4.141,3.312,7.775,4.141
		c3.91,0.874,7.775,2.208,7.775,6.763c0,5.705-5.291,7.499-10.121,7.499c-5.337,0-9.845-2.163-10.075-8.051H438.749z"/>
	<path fill="#333333" d="M464.786,423.582h4.738v3.45h-4.738V441.8c0,1.84,0.506,2.116,2.944,2.116h1.794v3.45h-2.99
		c-4.048,0-5.659-0.828-5.659-5.199v-15.136h-4.048v-3.45h4.048v-7.131h3.911V423.582z"/>
	<path fill="#333333" d="M494.917,447.274c-0.69,0.414-1.656,0.644-2.806,0.644c-2.024,0-3.312-1.104-3.312-3.681
		c-2.162,2.576-5.061,3.681-8.373,3.681c-4.324,0-7.867-1.886-7.867-6.671c0-5.383,4.002-6.579,8.051-7.315
		c4.279-0.874,8.005-0.506,8.005-3.496c0-3.451-2.852-3.957-5.291-3.957c-3.312,0-5.75,1.012-5.935,4.508h-3.911
		c0.23-5.889,4.739-7.959,10.075-7.959c4.279,0,8.925,0.966,8.925,6.533V441.8c0,1.84,0,2.668,1.242,2.668
		c0.368,0,0.782-0.092,1.196-0.23V447.274z M488.568,435.083c-3.036,2.254-11.869,0.046-11.869,5.889c0,2.576,2.208,3.496,4.6,3.496
		c5.153,0,7.269-3.174,7.269-5.382V435.083z"/>
	<path fill="#333333" d="M498.778,414.519h3.911v32.848h-3.911V414.519z"/>
	<path fill="#333333" d="M508.989,414.519h3.911v32.848h-3.911V414.519z"/>
	<path fill="#333333" d="M540.041,447.274c-0.69,0.414-1.656,0.644-2.806,0.644c-2.024,0-3.312-1.104-3.312-3.681
		c-2.162,2.576-5.061,3.681-8.373,3.681c-4.324,0-7.867-1.886-7.867-6.671c0-5.383,4.002-6.579,8.051-7.315
		c4.278-0.874,8.005-0.506,8.005-3.496c0-3.451-2.852-3.957-5.291-3.957c-3.312,0-5.75,1.012-5.935,4.508h-3.911
		c0.23-5.889,4.739-7.959,10.075-7.959c4.278,0,8.925,0.966,8.925,6.533V441.8c0,1.84,0,2.668,1.242,2.668
		c0.368,0,0.782-0.092,1.196-0.23V447.274z M533.692,435.083c-3.036,2.254-11.869,0.046-11.869,5.889c0,2.576,2.208,3.496,4.6,3.496
		c5.153,0,7.269-3.174,7.269-5.382V435.083z"/>
	<path fill="#333333" d="M549.101,423.582h4.738v3.45h-4.738V441.8c0,1.84,0.506,2.116,2.944,2.116h1.794v3.45h-2.99
		c-4.048,0-5.659-0.828-5.659-5.199v-15.136h-4.048v-3.45h4.048v-7.131h3.911V423.582z"/>
	<path fill="#333333" d="M562.302,419.303h-3.911v-4.785h3.911V419.303z M558.391,423.582h3.911v23.785h-3.911V423.582z"/>
	<path fill="#333333" d="M578.632,423.029c7.545,0,11.547,5.475,11.547,12.468c0,6.947-4.002,12.421-11.547,12.421
		s-11.547-5.475-11.547-12.421C567.084,428.504,571.087,423.029,578.632,423.029z M578.632,444.468c4.094,0,7.407-3.22,7.407-8.971
		c0-5.751-3.312-9.017-7.407-9.017c-4.095,0-7.407,3.266-7.407,9.017C571.225,441.248,574.537,444.468,578.632,444.468z"/>
	<path fill="#333333" d="M594.776,423.582h3.68v3.772h0.092c1.656-2.944,4.278-4.325,7.729-4.325c6.256,0,8.189,3.588,8.189,8.695
		v15.642h-3.911v-16.102c0-2.944-1.84-4.784-4.831-4.784c-4.738,0-7.039,3.174-7.039,7.453v13.434h-3.911V423.582z"/>
	<path fill="#333333" d="M654.21,447.274c-0.69,0.414-1.656,0.644-2.806,0.644c-2.024,0-3.312-1.104-3.312-3.681
		c-2.162,2.576-5.061,3.681-8.373,3.681c-4.324,0-7.867-1.886-7.867-6.671c0-5.383,4.002-6.579,8.051-7.315
		c4.279-0.874,8.005-0.506,8.005-3.496c0-3.451-2.852-3.957-5.291-3.957c-3.312,0-5.75,1.012-5.935,4.508h-3.911
		c0.23-5.889,4.739-7.959,10.075-7.959c4.279,0,8.925,0.966,8.925,6.533V441.8c0,1.84,0,2.668,1.242,2.668
		c0.368,0,0.782-0.092,1.196-0.23V447.274z M647.862,435.083c-3.036,2.254-11.869,0.046-11.869,5.889c0,2.576,2.208,3.496,4.6,3.496
		c5.153,0,7.269-3.174,7.269-5.382V435.083z"/>
	<path fill="#333333" d="M673.99,431.218c-0.598-2.99-2.623-4.738-5.889-4.738c-5.659,0-7.407,4.508-7.407,9.293
		c0,4.417,1.978,8.695,6.947,8.695c3.818,0,6.026-2.162,6.533-5.796h4.002c-0.874,5.842-4.463,9.247-10.489,9.247
		c-7.269,0-11.133-5.015-11.133-12.146s3.68-12.744,11.225-12.744c5.429,0,9.661,2.53,10.259,8.189H673.99z"/>
	<path fill="#333333" d="M687.972,423.582h4.738v3.45h-4.738V441.8c0,1.84,0.506,2.116,2.944,2.116h1.794v3.45h-2.99
		c-4.048,0-5.659-0.828-5.659-5.199v-15.136h-4.048v-3.45h4.048v-7.131h3.911V423.582z"/>
	<path fill="#333333" d="M701.173,419.303h-3.911v-4.785h3.911V419.303z M697.262,423.582h3.911v23.785h-3.911V423.582z"/>
	<path fill="#333333" d="M717.963,447.366h-4.187l-8.833-23.785h4.371l6.671,19.828h0.092l6.487-19.828h4.094L717.963,447.366z"/>
	<path fill="#333333" d="M734.384,419.303h-3.911v-4.785h3.911V419.303z M730.474,423.582h3.911v23.785h-3.911V423.582z"/>
	<path fill="#333333" d="M745.884,423.582h4.738v3.45h-4.738V441.8c0,1.84,0.506,2.116,2.944,2.116h1.794v3.45h-2.99
		c-4.048,0-5.659-0.828-5.659-5.199v-15.136h-4.048v-3.45h4.048v-7.131h3.911V423.582z"/>
	<path fill="#333333" d="M759.085,419.303h-3.911v-4.785h3.911V419.303z M755.174,423.582h3.911v23.785h-3.911V423.582z"/>
	<path fill="#333333" d="M785.444,439.821c-1.058,5.291-4.784,8.097-10.167,8.097c-7.591,0-11.179-5.291-11.409-12.514
		c0-7.177,4.692-12.375,11.179-12.375c8.419,0,10.995,7.867,10.765,13.618h-17.804c-0.138,4.141,2.208,7.821,7.407,7.821
		c3.266,0,5.475-1.518,6.165-4.646H785.444z M781.672,433.197c-0.23-3.727-2.944-6.717-6.855-6.717
		c-4.048,0-6.579,3.036-6.809,6.717H781.672z"/>
	<path fill="#333333" d="M792.25,439.867c0.138,3.497,3.221,4.601,6.395,4.601c2.438,0,5.75-0.552,5.75-3.542
		c0-6.119-15.55-1.978-15.55-11.133c0-4.784,4.693-6.763,8.879-6.763c5.337,0,9.385,1.656,9.753,7.453h-3.911
		c-0.23-3.037-2.99-4.002-5.521-4.002c-2.346,0-5.061,0.644-5.061,3.036c0,2.76,4.141,3.312,7.775,4.141
		c3.91,0.874,7.775,2.208,7.775,6.763c0,5.705-5.291,7.499-10.121,7.499c-5.337,0-9.845-2.163-10.075-8.051H792.25z"/>
	<path fill="#333333" d="M846.716,447.274c-0.69,0.414-1.656,0.644-2.806,0.644c-2.024,0-3.312-1.104-3.312-3.681
		c-2.162,2.576-5.061,3.681-8.373,3.681c-4.324,0-7.867-1.886-7.867-6.671c0-5.383,4.002-6.579,8.051-7.315
		c4.278-0.874,8.005-0.506,8.005-3.496c0-3.451-2.852-3.957-5.291-3.957c-3.312,0-5.75,1.012-5.935,4.508h-3.911
		c0.23-5.889,4.739-7.959,10.075-7.959c4.278,0,8.925,0.966,8.925,6.533V441.8c0,1.84,0,2.668,1.242,2.668
		c0.368,0,0.782-0.092,1.196-0.23V447.274z M840.367,435.083c-3.036,2.254-11.869,0.046-11.869,5.889c0,2.576,2.208,3.496,4.6,3.496
		c5.153,0,7.269-3.174,7.269-5.382V435.083z"/>
	<path fill="#333333" d="M850.208,423.582h3.681v5.015h0.092c1.886-3.865,4.509-5.705,8.741-5.567v4.141
		c-6.303,0-8.603,3.542-8.603,9.615v10.581h-3.911V423.582z"/>
	<path fill="#333333" d="M885.953,439.821c-1.058,5.291-4.784,8.097-10.167,8.097c-7.591,0-11.179-5.291-11.409-12.514
		c0-7.177,4.692-12.375,11.179-12.375c8.419,0,10.995,7.867,10.765,13.618h-17.804c-0.138,4.141,2.208,7.821,7.407,7.821
		c3.266,0,5.475-1.518,6.165-4.646H885.953z M882.181,433.197c-0.23-3.727-2.944-6.717-6.855-6.717
		c-4.048,0-6.579,3.036-6.809,6.717H882.181z"/>
	<path fill="#333333" d="M904.765,427.032h-4.002v-3.45h4.002v-3.542c0-3.864,2.3-5.889,6.579-5.889c0.736,0,1.794,0.138,2.53,0.368
		v3.404c-0.69-0.23-1.518-0.322-2.208-0.322c-1.886,0-2.99,0.598-2.99,2.668v3.312h4.601v3.45h-4.601v20.334h-3.91V427.032z"/>
	<path fill="#333333" d="M936.46,447.366h-3.68v-3.772h-0.093c-1.656,2.944-4.278,4.325-7.729,4.325
		c-6.257,0-8.189-3.588-8.189-8.695v-15.642h3.911v16.102c0,2.944,1.84,4.785,4.83,4.785c4.739,0,7.039-3.174,7.039-7.453v-13.434
		h3.91V447.366z"/>
	<path fill="#333333" d="M942.576,414.519h3.91v32.848h-3.91V414.519z"/>
	<path fill="#333333" d="M952.787,414.519h3.91v32.848h-3.91V414.519z"/>
	<path fill="#333333" d="M972.106,450.541c-1.84,4.601-3.404,6.349-6.9,6.349c-0.92,0-1.841-0.092-2.715-0.414v-3.588
		c0.736,0.23,1.519,0.552,2.301,0.552c1.61,0,2.484-0.736,3.22-2.162l1.61-4.049l-9.431-23.646h4.416l6.947,19.46h0.092l6.671-19.46
		h4.141L972.106,450.541z"/>
	<path fill="#333333" d="M1019.811,447.366h-3.911v-3.22h-0.092c-1.288,2.622-4.278,3.772-7.591,3.772
		c-7.314,0-10.949-5.797-10.949-12.514s3.588-12.375,10.857-12.375c2.392,0,5.98,0.92,7.683,3.727h0.092v-12.237h3.911V447.366z
		 M1008.769,444.468c5.291,0,7.27-4.554,7.27-8.971c0-4.647-2.116-9.017-7.499-9.017c-5.337,0-7.131,4.554-7.131,9.201
		C1001.408,440.144,1003.708,444.468,1008.769,444.468z"/>
	<path fill="#333333" d="M1036.092,423.029c7.545,0,11.548,5.475,11.548,12.468c0,6.947-4.003,12.421-11.548,12.421
		s-11.547-5.475-11.547-12.421C1024.545,428.504,1028.547,423.029,1036.092,423.029z M1036.092,444.468
		c4.095,0,7.407-3.22,7.407-8.971c0-5.751-3.312-9.017-7.407-9.017c-4.094,0-7.406,3.266-7.406,9.017
		C1028.686,441.248,1031.998,444.468,1036.092,444.468z"/>
	<path fill="#333333" d="M1068.384,431.218c-0.598-2.99-2.622-4.738-5.889-4.738c-5.658,0-7.406,4.508-7.406,9.293
		c0,4.417,1.978,8.695,6.946,8.695c3.818,0,6.027-2.162,6.533-5.796h4.002c-0.874,5.842-4.462,9.247-10.489,9.247
		c-7.269,0-11.133-5.015-11.133-12.146s3.681-12.744,11.226-12.744c5.429,0,9.661,2.53,10.259,8.189H1068.384z"/>
	<path fill="#333333" d="M1096.628,447.366h-3.681v-3.772h-0.092c-1.656,2.944-4.278,4.325-7.729,4.325
		c-6.256,0-8.188-3.588-8.188-8.695v-15.642h3.91v16.102c0,2.944,1.841,4.785,4.831,4.785c4.738,0,7.039-3.174,7.039-7.453v-13.434
		h3.91V447.366z"/>
	<path fill="#333333" d="M1102.514,423.582h3.681v3.497h0.092c1.794-2.714,4.324-4.049,7.683-4.049c2.944,0,5.566,1.104,6.533,4.049
		c1.61-2.577,4.37-4.049,7.452-4.049c4.739,0,7.913,1.979,7.913,6.901v17.436h-3.91v-15.596c0-2.944-0.782-5.291-4.601-5.291
		s-6.211,2.392-6.211,6.073v14.813h-3.91v-15.596c0-3.083-0.966-5.291-4.463-5.291c-4.601,0-6.349,4.232-6.349,6.073v14.813h-3.91
		V423.582z"/>
	<path fill="#333333" d="M1162.04,439.821c-1.058,5.291-4.784,8.097-10.167,8.097c-7.591,0-11.18-5.291-11.409-12.514
		c0-7.177,4.692-12.375,11.18-12.375c8.419,0,10.995,7.867,10.765,13.618h-17.804c-0.139,4.141,2.208,7.821,7.406,7.821
		c3.267,0,5.475-1.518,6.165-4.646H1162.04z M1158.268,433.197c-0.229-3.727-2.944-6.717-6.854-6.717
		c-4.049,0-6.579,3.036-6.809,6.717H1158.268z"/>
	<path fill="#333333" d="M1166.453,423.582h3.681v3.772h0.092c1.656-2.944,4.278-4.325,7.729-4.325c6.257,0,8.189,3.588,8.189,8.695
		v15.642h-3.91v-16.102c0-2.944-1.841-4.784-4.831-4.784c-4.738,0-7.039,3.174-7.039,7.453v13.434h-3.91V423.582z"/>
	<path fill="#333333" d="M1197.458,423.582h4.738v3.45h-4.738V441.8c0,1.84,0.506,2.116,2.944,2.116h1.794v3.45h-2.99
		c-4.049,0-5.658-0.828-5.658-5.199v-15.136h-4.049v-3.45h4.049v-7.131h3.91V423.582z"/>
	<path fill="#333333" d="M1226.807,439.821c-1.058,5.291-4.784,8.097-10.167,8.097c-7.591,0-11.18-5.291-11.409-12.514
		c0-7.177,4.692-12.375,11.18-12.375c8.419,0,10.995,7.867,10.765,13.618h-17.804c-0.139,4.141,2.208,7.821,7.406,7.821
		c3.267,0,5.475-1.518,6.165-4.646H1226.807z M1223.034,433.197c-0.229-3.727-2.944-6.717-6.854-6.717
		c-4.049,0-6.579,3.036-6.809,6.717H1223.034z"/>
	<path fill="#333333" d="M1252.475,447.366h-3.911v-3.22h-0.092c-1.288,2.622-4.278,3.772-7.591,3.772
		c-7.314,0-10.949-5.797-10.949-12.514s3.588-12.375,10.857-12.375c2.392,0,5.98,0.92,7.683,3.727h0.092v-12.237h3.911V447.366z
		 M1241.433,444.468c5.291,0,7.27-4.554,7.27-8.971c0-4.647-2.116-9.017-7.499-9.017c-5.337,0-7.131,4.554-7.131,9.201
		C1234.072,440.144,1236.372,444.468,1241.433,444.468z"/>
	<path fill="#333333" d="M195.273,506.754c4.554,0,8.235,3.634,8.235,8.188s-3.681,8.235-8.235,8.235
		c-4.555,0-8.189-3.681-8.189-8.235S190.719,506.754,195.273,506.754z"/>
	<path fill="#333333" d="M223.148,498.519h14.4c6.579,0,10.075,3.589,10.075,9.707s-3.496,9.753-10.075,9.707h-10.029v13.434h-4.371
		V498.519z M227.519,514.252h8.557c4.968,0.047,7.177-2.115,7.177-6.026s-2.208-6.026-7.177-6.026h-8.557V514.252z"/>
	<path fill="#333333" d="M252.174,507.582h3.681v5.014h0.092c1.886-3.864,4.509-5.704,8.741-5.566v4.141
		c-6.303,0-8.603,3.543-8.603,9.615v10.581h-3.911V507.582z"/>
	<path fill="#333333" d="M277.889,507.029c7.545,0,11.547,5.475,11.547,12.468c0,6.946-4.002,12.421-11.547,12.421
		s-11.547-5.475-11.547-12.421C266.342,512.504,270.344,507.029,277.889,507.029z M277.889,528.468c4.094,0,7.407-3.22,7.407-8.971
		s-3.312-9.017-7.407-9.017c-4.095,0-7.407,3.266-7.407,9.017S273.794,528.468,277.889,528.468z"/>
	<path fill="#333333" d="M304.752,531.366h-4.187l-8.833-23.784h4.371l6.671,19.828h0.092l6.487-19.828h4.094L304.752,531.366z"/>
	<path fill="#333333" d="M321.174,503.303h-3.911v-4.784h3.911V503.303z M317.263,507.582h3.911v23.784h-3.911V507.582z"/>
	<path fill="#333333" d="M348.499,531.366h-3.911v-3.22h-0.092c-1.288,2.621-4.278,3.771-7.591,3.771
		c-7.315,0-10.949-5.797-10.949-12.514s3.588-12.375,10.857-12.375c2.393,0,5.981,0.92,7.683,3.727h0.092v-12.237h3.911V531.366z
		 M337.458,528.468c5.291,0,7.269-4.554,7.269-8.971c0-4.647-2.116-9.017-7.499-9.017c-5.336,0-7.13,4.554-7.13,9.2
		C330.097,524.144,332.397,528.468,337.458,528.468z"/>
	<path fill="#333333" d="M374.81,523.821c-1.058,5.29-4.784,8.097-10.167,8.097c-7.591,0-11.179-5.291-11.409-12.514
		c0-7.176,4.692-12.375,11.179-12.375c8.419,0,10.995,7.867,10.765,13.617h-17.804c-0.138,4.141,2.208,7.821,7.407,7.821
		c3.266,0,5.475-1.519,6.165-4.646H374.81z M371.038,517.197c-0.23-3.727-2.944-6.717-6.855-6.717c-4.048,0-6.579,3.035-6.809,6.717
		H371.038z"/>
	<path fill="#333333" d="M381.616,523.867c0.138,3.496,3.221,4.601,6.395,4.601c2.438,0,5.75-0.552,5.75-3.542
		c0-6.119-15.55-1.979-15.55-11.134c0-4.784,4.693-6.763,8.879-6.763c5.337,0,9.385,1.656,9.753,7.453h-3.911
		c-0.23-3.037-2.99-4.002-5.521-4.002c-2.346,0-5.061,0.644-5.061,3.035c0,2.761,4.141,3.312,7.775,4.141
		c3.91,0.875,7.775,2.209,7.775,6.764c0,5.704-5.291,7.498-10.121,7.498c-5.337,0-9.845-2.162-10.075-8.051H381.616z"/>
	<path fill="#333333" d="M436.082,531.274c-0.69,0.414-1.656,0.644-2.806,0.644c-2.024,0-3.312-1.104-3.312-3.68
		c-2.162,2.576-5.061,3.68-8.373,3.68c-4.324,0-7.867-1.886-7.867-6.67c0-5.383,4.002-6.579,8.051-7.315
		c4.278-0.874,8.005-0.506,8.005-3.496c0-3.45-2.852-3.956-5.291-3.956c-3.312,0-5.75,1.012-5.935,4.508h-3.911
		c0.23-5.889,4.739-7.959,10.075-7.959c4.278,0,8.925,0.967,8.925,6.533V525.8c0,1.84,0,2.668,1.242,2.668
		c0.368,0,0.782-0.092,1.196-0.229V531.274z M429.733,519.083c-3.036,2.254-11.869,0.046-11.869,5.889
		c0,2.576,2.208,3.496,4.6,3.496c5.153,0,7.269-3.175,7.269-5.382V519.083z"/>
	<path fill="#333333" d="M452.639,507.582h3.91v3.22h0.092c1.288-2.622,4.278-3.772,7.591-3.772c7.315,0,10.949,5.797,10.949,12.514
		c0,6.763-3.588,12.375-10.857,12.375c-2.392,0-5.98-0.92-7.683-3.727h-0.092v12.283h-3.91V507.582z M463.68,510.48
		c-5.291,0-7.269,4.554-7.269,8.971c0,4.646,2.116,9.017,7.499,9.017c5.337,0,7.131-4.554,7.131-9.201
		C471.041,514.805,468.741,510.48,463.68,510.48z"/>
	<path fill="#333333" d="M479.64,507.582h3.681v5.014h0.092c1.886-3.864,4.509-5.704,8.741-5.566v4.141
		c-6.303,0-8.603,3.543-8.603,9.615v10.581h-3.911V507.582z"/>
	<path fill="#333333" d="M505.355,507.029c7.545,0,11.547,5.475,11.547,12.468c0,6.946-4.002,12.421-11.547,12.421
		s-11.547-5.475-11.547-12.421C493.808,512.504,497.811,507.029,505.355,507.029z M505.355,528.468c4.094,0,7.407-3.22,7.407-8.971
		s-3.312-9.017-7.407-9.017c-4.095,0-7.407,3.266-7.407,9.017S501.261,528.468,505.355,528.468z"/>
	<path fill="#333333" d="M537.647,515.219c-0.598-2.99-2.623-4.738-5.889-4.738c-5.659,0-7.407,4.508-7.407,9.293
		c0,4.416,1.978,8.694,6.947,8.694c3.818,0,6.026-2.162,6.533-5.796h4.002c-0.874,5.842-4.463,9.246-10.489,9.246
		c-7.269,0-11.133-5.014-11.133-12.145s3.68-12.744,11.225-12.744c5.429,0,9.661,2.53,10.259,8.189H537.647z"/>
	<path fill="#333333" d="M566.489,523.821c-1.058,5.29-4.784,8.097-10.167,8.097c-7.591,0-11.179-5.291-11.409-12.514
		c0-7.176,4.692-12.375,11.179-12.375c8.419,0,10.995,7.867,10.765,13.617h-17.804c-0.138,4.141,2.208,7.821,7.407,7.821
		c3.266,0,5.475-1.519,6.165-4.646H566.489z M562.717,517.197c-0.23-3.727-2.944-6.717-6.855-6.717
		c-4.048,0-6.579,3.035-6.809,6.717H562.717z"/>
	<path fill="#333333" d="M573.294,523.867c0.138,3.496,3.221,4.601,6.395,4.601c2.438,0,5.75-0.552,5.75-3.542
		c0-6.119-15.55-1.979-15.55-11.134c0-4.784,4.693-6.763,8.879-6.763c5.337,0,9.385,1.656,9.753,7.453h-3.911
		c-0.23-3.037-2.99-4.002-5.521-4.002c-2.346,0-5.061,0.644-5.061,3.035c0,2.761,4.141,3.312,7.775,4.141
		c3.91,0.875,7.775,2.209,7.775,6.764c0,5.704-5.291,7.498-10.121,7.498c-5.337,0-9.845-2.162-10.075-8.051H573.294z"/>
	<path fill="#333333" d="M596.294,523.867c0.138,3.496,3.221,4.601,6.395,4.601c2.438,0,5.75-0.552,5.75-3.542
		c0-6.119-15.55-1.979-15.55-11.134c0-4.784,4.693-6.763,8.879-6.763c5.337,0,9.385,1.656,9.753,7.453h-3.911
		c-0.23-3.037-2.99-4.002-5.521-4.002c-2.346,0-5.061,0.644-5.061,3.035c0,2.761,4.141,3.312,7.775,4.141
		c3.91,0.875,7.775,2.209,7.775,6.764c0,5.704-5.291,7.498-10.121,7.498c-5.337,0-9.845-2.162-10.075-8.051H596.294z"/>
	<path fill="#333333" d="M631.301,511.031h-4.002v-3.449h4.002v-3.543c0-3.864,2.3-5.889,6.579-5.889
		c0.736,0,1.794,0.138,2.53,0.368v3.404c-0.69-0.229-1.518-0.322-2.208-0.322c-1.886,0-2.99,0.599-2.99,2.669v3.312h4.601v3.449
		h-4.601v20.335h-3.91V511.031z"/>
	<path fill="#333333" d="M653.565,507.029c7.545,0,11.547,5.475,11.547,12.468c0,6.946-4.002,12.421-11.547,12.421
		s-11.547-5.475-11.547-12.421C642.018,512.504,646.021,507.029,653.565,507.029z M653.565,528.468c4.094,0,7.407-3.22,7.407-8.971
		s-3.312-9.017-7.407-9.017c-4.095,0-7.407,3.266-7.407,9.017S649.471,528.468,653.565,528.468z"/>
	<path fill="#333333" d="M669.571,507.582h3.681v5.014h0.092c1.886-3.864,4.509-5.704,8.741-5.566v4.141
		c-6.303,0-8.603,3.543-8.603,9.615v10.581h-3.911V507.582z"/>
	<path fill="#333333" d="M697.677,507.582h3.681v5.014h0.092c1.886-3.864,4.509-5.704,8.741-5.566v4.141
		c-6.303,0-8.603,3.543-8.603,9.615v10.581h-3.911V507.582z"/>
	<path fill="#333333" d="M733.421,523.821c-1.058,5.29-4.784,8.097-10.167,8.097c-7.591,0-11.179-5.291-11.409-12.514
		c0-7.176,4.692-12.375,11.179-12.375c8.419,0,10.995,7.867,10.765,13.617h-17.804c-0.138,4.141,2.208,7.821,7.407,7.821
		c3.266,0,5.475-1.519,6.165-4.646H733.421z M729.649,517.197c-0.23-3.727-2.944-6.717-6.855-6.717
		c-4.048,0-6.579,3.035-6.809,6.717H729.649z"/>
	<path fill="#333333" d="M738.065,498.519h3.911v32.848h-3.911V498.519z"/>
	<path fill="#333333" d="M768.334,523.821c-1.058,5.29-4.784,8.097-10.167,8.097c-7.591,0-11.179-5.291-11.409-12.514
		c0-7.176,4.692-12.375,11.179-12.375c8.419,0,10.995,7.867,10.765,13.617h-17.804c-0.138,4.141,2.208,7.821,7.407,7.821
		c3.266,0,5.475-1.519,6.165-4.646H768.334z M764.562,517.197c-0.23-3.727-2.944-6.717-6.855-6.717
		c-4.048,0-6.579,3.035-6.809,6.717H764.562z"/>
	<path fill="#333333" d="M793.818,531.274c-0.69,0.414-1.656,0.644-2.806,0.644c-2.024,0-3.312-1.104-3.312-3.68
		c-2.162,2.576-5.061,3.68-8.373,3.68c-4.324,0-7.867-1.886-7.867-6.67c0-5.383,4.002-6.579,8.051-7.315
		c4.278-0.874,8.005-0.506,8.005-3.496c0-3.45-2.852-3.956-5.291-3.956c-3.312,0-5.75,1.012-5.935,4.508h-3.911
		c0.23-5.889,4.739-7.959,10.075-7.959c4.278,0,8.925,0.967,8.925,6.533V525.8c0,1.84,0,2.668,1.242,2.668
		c0.368,0,0.782-0.092,1.196-0.229V531.274z M787.47,519.083c-3.036,2.254-11.869,0.046-11.869,5.889c0,2.576,2.208,3.496,4.6,3.496
		c5.153,0,7.269-3.175,7.269-5.382V519.083z"/>
	<path fill="#333333" d="M799.841,523.867c0.138,3.496,3.221,4.601,6.395,4.601c2.438,0,5.75-0.552,5.75-3.542
		c0-6.119-15.55-1.979-15.55-11.134c0-4.784,4.693-6.763,8.879-6.763c5.337,0,9.385,1.656,9.753,7.453h-3.911
		c-0.23-3.037-2.99-4.002-5.521-4.002c-2.346,0-5.061,0.644-5.061,3.035c0,2.761,4.141,3.312,7.775,4.141
		c3.91,0.875,7.775,2.209,7.775,6.764c0,5.704-5.291,7.498-10.121,7.498c-5.337,0-9.845-2.162-10.075-8.051H799.841z"/>
	<path fill="#333333" d="M824.59,503.303h-3.911v-4.784h3.911V503.303z M820.679,507.582h3.911v23.784h-3.911V507.582z"/>
	<path fill="#333333" d="M830.661,507.582h3.68v3.771h0.092c1.656-2.943,4.278-4.324,7.729-4.324c6.256,0,8.189,3.588,8.189,8.695
		v15.642h-3.911v-16.103c0-2.943-1.84-4.783-4.831-4.783c-4.738,0-7.039,3.174-7.039,7.452v13.434h-3.911V507.582z"/>
	<path fill="#333333" d="M876.755,529.342c0,7.775-3.497,11.686-11.042,11.686c-4.462,0-9.615-1.84-9.845-6.992h3.911
		c0.138,2.806,3.634,3.863,6.165,3.863c5.106,0,7.131-3.68,7.131-9.017v-1.563h-0.092c-1.334,2.898-4.371,4.324-7.407,4.324
		c-7.084,0-10.627-5.566-10.627-12.054c0-5.612,2.714-12.56,10.995-12.56c2.99,0,5.659,1.334,7.085,3.957h0.046v-3.404h3.681
		V529.342z M872.891,518.99c0-4.186-1.84-8.51-6.763-8.51c-5.015,0-7.039,4.094-7.039,8.648c0,4.278,1.564,9.062,6.716,9.062
		C870.958,528.191,872.891,523.453,872.891,518.99z"/>
	<path fill="#333333" d="M916.499,531.274c-0.69,0.414-1.656,0.644-2.806,0.644c-2.024,0-3.312-1.104-3.312-3.68
		c-2.162,2.576-5.061,3.68-8.373,3.68c-4.324,0-7.867-1.886-7.867-6.67c0-5.383,4.002-6.579,8.051-7.315
		c4.279-0.874,8.005-0.506,8.005-3.496c0-3.45-2.852-3.956-5.291-3.956c-3.312,0-5.75,1.012-5.935,4.508h-3.911
		c0.23-5.889,4.739-7.959,10.075-7.959c4.279,0,8.925,0.967,8.925,6.533V525.8c0,1.84,0,2.668,1.242,2.668
		c0.368,0,0.782-0.092,1.196-0.229V531.274z M910.15,519.083c-3.036,2.254-11.869,0.046-11.869,5.889c0,2.576,2.208,3.496,4.6,3.496
		c5.153,0,7.269-3.175,7.269-5.382V519.083z"/>
	<path fill="#333333" d="M920.13,507.582h3.681v3.771h0.092c1.656-2.943,4.278-4.324,7.729-4.324c6.257,0,8.189,3.588,8.189,8.695
		v15.642h-3.91v-16.103c0-2.943-1.841-4.783-4.831-4.783c-4.738,0-7.039,3.174-7.039,7.452v13.434h-3.91V507.582z"/>
	<path fill="#333333" d="M973.032,497.736c10.442,0,15.733,8.234,15.733,17.206s-5.291,17.206-15.733,17.206
		c-10.443,0-15.734-8.234-15.734-17.206S962.589,497.736,973.032,497.736z M973.032,528.468c8.005,0,11.363-6.901,11.363-13.525
		c0-6.625-3.358-13.525-11.363-13.525s-11.363,6.9-11.363,13.525C961.669,521.566,965.027,528.468,973.032,528.468z"/>
	<path fill="#333333" d="M995.064,511.031h-4.003v-3.449h4.003v-3.543c0-3.864,2.3-5.889,6.578-5.889
		c0.736,0,1.795,0.138,2.53,0.368v3.404c-0.689-0.229-1.518-0.322-2.208-0.322c-1.886,0-2.99,0.599-2.99,2.669v3.312h4.601v3.449
		h-4.601v20.335h-3.91V511.031z"/>
	<path fill="#333333" d="M1008.68,511.031h-4.003v-3.449h4.003v-3.543c0-3.864,2.3-5.889,6.578-5.889
		c0.736,0,1.795,0.138,2.53,0.368v3.404c-0.689-0.229-1.518-0.322-2.208-0.322c-1.886,0-2.99,0.599-2.99,2.669v3.312h4.601v3.449
		h-4.601v20.335h-3.91V511.031z"/>
	<path fill="#333333" d="M1040.973,523.821c-1.058,5.29-4.784,8.097-10.167,8.097c-7.591,0-11.18-5.291-11.409-12.514
		c0-7.176,4.692-12.375,11.18-12.375c8.419,0,10.995,7.867,10.765,13.617h-17.804c-0.139,4.141,2.208,7.821,7.406,7.821
		c3.267,0,5.475-1.519,6.165-4.646H1040.973z M1037.2,517.197c-0.229-3.727-2.944-6.717-6.854-6.717
		c-4.049,0-6.579,3.035-6.809,6.717H1037.2z"/>
	<path fill="#333333" d="M1045.248,507.582h3.68v5.014h0.093c1.886-3.864,4.508-5.704,8.74-5.566v4.141
		c-6.303,0-8.603,3.543-8.603,9.615v10.581h-3.91V507.582z"/>
	<path fill="#333333" d="M1064.844,503.303h-3.91v-4.784h3.91V503.303z M1060.934,507.582h3.91v23.784h-3.91V507.582z"/>
	<path fill="#333333" d="M1070.914,507.582h3.681v3.771h0.092c1.656-2.943,4.278-4.324,7.729-4.324c6.257,0,8.189,3.588,8.189,8.695
		v15.642h-3.91v-16.103c0-2.943-1.841-4.783-4.831-4.783c-4.738,0-7.039,3.174-7.039,7.452v13.434h-3.91V507.582z"/>
	<path fill="#333333" d="M1117.009,529.342c0,7.775-3.497,11.686-11.041,11.686c-4.463,0-9.615-1.84-9.846-6.992h3.91
		c0.139,2.806,3.635,3.863,6.165,3.863c5.106,0,7.131-3.68,7.131-9.017v-1.563h-0.092c-1.334,2.898-4.371,4.324-7.407,4.324
		c-7.085,0-10.627-5.566-10.627-12.054c0-5.612,2.714-12.56,10.995-12.56c2.99,0,5.659,1.334,7.085,3.957h0.046v-3.404h3.681
		V529.342z M1113.145,518.99c0-4.186-1.841-8.51-6.763-8.51c-5.015,0-7.039,4.094-7.039,8.648c0,4.278,1.563,9.062,6.717,9.062
		C1111.212,528.191,1113.145,523.453,1113.145,518.99z"/>
	<path fill="#333333" d="M1141.11,507.582h4.738v3.449h-4.738V525.8c0,1.84,0.506,2.116,2.944,2.116h1.794v3.45h-2.99
		c-4.049,0-5.658-0.828-5.658-5.198v-15.137h-4.049v-3.449h4.049v-7.131h3.91V507.582z"/>
	<path fill="#333333" d="M1160.43,507.029c7.545,0,11.548,5.475,11.548,12.468c0,6.946-4.003,12.421-11.548,12.421
		s-11.547-5.475-11.547-12.421C1148.883,512.504,1152.885,507.029,1160.43,507.029z M1160.43,528.468
		c4.095,0,7.407-3.22,7.407-8.971s-3.312-9.017-7.407-9.017c-4.094,0-7.406,3.266-7.406,9.017S1156.336,528.468,1160.43,528.468z"/>
	<path fill="#333333" d="M1210.433,531.274c-0.69,0.414-1.656,0.644-2.807,0.644c-2.023,0-3.312-1.104-3.312-3.68
		c-2.163,2.576-5.061,3.68-8.373,3.68c-4.325,0-7.867-1.886-7.867-6.67c0-5.383,4.002-6.579,8.051-7.315
		c4.278-0.874,8.005-0.506,8.005-3.496c0-3.45-2.853-3.956-5.29-3.956c-3.312,0-5.751,1.012-5.936,4.508h-3.91
		c0.23-5.889,4.738-7.959,10.075-7.959c4.278,0,8.925,0.967,8.925,6.533V525.8c0,1.84,0,2.668,1.242,2.668
		c0.368,0,0.782-0.092,1.196-0.229V531.274z M1204.084,519.083c-3.036,2.254-11.869,0.046-11.869,5.889
		c0,2.576,2.208,3.496,4.601,3.496c5.152,0,7.269-3.175,7.269-5.382V519.083z"/>
	<path fill="#333333" d="M1242.999,515.219c-0.598-2.99-2.622-4.738-5.889-4.738c-5.658,0-7.406,4.508-7.406,9.293
		c0,4.416,1.978,8.694,6.946,8.694c3.818,0,6.027-2.162,6.533-5.796h4.002c-0.874,5.842-4.462,9.246-10.489,9.246
		c-7.269,0-11.133-5.014-11.133-12.145s3.681-12.744,11.226-12.744c5.429,0,9.661,2.53,10.259,8.189H1242.999z"/>
	<path fill="#333333" d="M1251.783,498.519h3.91v32.848h-3.91V498.519z"/>
	<path fill="#333333" d="M1265.904,503.303h-3.91v-4.784h3.91V503.303z M1261.994,507.582h3.91v23.784h-3.91V507.582z"/>
	<path fill="#333333" d="M1292.263,523.821c-1.058,5.29-4.784,8.097-10.167,8.097c-7.591,0-11.18-5.291-11.409-12.514
		c0-7.176,4.692-12.375,11.18-12.375c8.419,0,10.995,7.867,10.765,13.617h-17.804c-0.139,4.141,2.208,7.821,7.406,7.821
		c3.267,0,5.475-1.519,6.165-4.646H1292.263z M1288.49,517.197c-0.229-3.727-2.944-6.717-6.854-6.717
		c-4.049,0-6.579,3.035-6.809,6.717H1288.49z"/>
	<path fill="#333333" d="M1296.676,507.582h3.681v3.771h0.092c1.656-2.943,4.278-4.324,7.729-4.324c6.257,0,8.189,3.588,8.189,8.695
		v15.642h-3.91v-16.103c0-2.943-1.841-4.783-4.831-4.783c-4.738,0-7.039,3.174-7.039,7.452v13.434h-3.91V507.582z"/>
	<path fill="#333333" d="M1327.681,507.582h4.738v3.449h-4.738V525.8c0,1.84,0.506,2.116,2.944,2.116h1.794v3.45h-2.99
		c-4.049,0-5.658-0.828-5.658-5.198v-15.137h-4.049v-3.449h4.049v-7.131h3.91V507.582z"/>
</g>
<line fill="none" stroke="#343636" stroke-width="4" stroke-miterlimit="10" x1="53.283" y1="54.113" x2="1919.92" y2="54.113"/>
<g>
	<path fill="#FFFFFF" d="M1680.849,576.322c-0.795,0-1.439-0.643-1.444-1.437c-0.001-0.798,0.643-1.445,1.439-1.447
		c3.322-0.013,6.691-0.114,10.008-0.305c0.778-0.054,1.476,0.563,1.522,1.357c0.044,0.796-0.564,1.479-1.359,1.522
		c-3.367,0.193-6.785,0.296-10.163,0.309H1680.849L1680.849,576.322z M1670.762,576.093c-0.025,0-0.05-0.002-0.074-0.002
		c-3.377-0.167-6.787-0.428-10.136-0.773c-0.792-0.081-1.369-0.792-1.286-1.585c0.083-0.79,0.792-1.356,1.584-1.284
		c3.296,0.34,6.656,0.599,9.981,0.762c0.794,0.041,1.408,0.716,1.368,1.512C1672.162,575.492,1671.524,576.093,1670.762,576.093
		L1670.762,576.093z M1700.985,575.174c-0.725,0-1.35-0.545-1.431-1.284c-0.088-0.791,0.482-1.502,1.273-1.593
		c3.307-0.368,6.644-0.828,9.917-1.372c0.789-0.134,1.529,0.4,1.658,1.185c0.131,0.787-0.4,1.529-1.186,1.659
		c-3.324,0.553-6.712,1.021-10.07,1.396C1701.094,575.171,1701.041,575.174,1700.985,575.174L1700.985,575.174z M1650.695,574.018
		c-0.074,0-0.15-0.006-0.229-0.018c-3.339-0.53-6.7-1.155-9.995-1.863c-0.777-0.167-1.273-0.933-1.107-1.713
		c0.169-0.776,0.936-1.277,1.713-1.107c3.243,0.697,6.554,1.312,9.843,1.835c0.786,0.124,1.321,0.863,1.198,1.649
		C1652.005,573.511,1651.393,574.018,1650.695,574.018L1650.695,574.018z M1720.884,571.865c-0.661,0-1.257-0.456-1.405-1.128
		c-0.175-0.776,0.315-1.549,1.093-1.721c3.249-0.724,6.516-1.546,9.709-2.442c0.775-0.215,1.564,0.236,1.778,1
		c0.215,0.766-0.232,1.562-0.999,1.777c-3.245,0.908-6.562,1.743-9.859,2.479C1721.095,571.854,1720.988,571.865,1720.884,571.865
		L1720.884,571.865z M1630.973,569.788c-0.126,0-0.252-0.019-0.38-0.054c-3.253-0.884-6.527-1.872-9.735-2.936
		c-0.756-0.251-1.165-1.067-0.913-1.824c0.248-0.754,1.068-1.16,1.822-0.914c3.156,1.049,6.382,2.021,9.584,2.892
		c0.767,0.209,1.222,1.001,1.013,1.771C1632.188,569.364,1631.607,569.788,1630.973,569.788L1630.973,569.788z M1740.309,566.42
		c-0.601,0-1.162-0.379-1.366-0.98c-0.256-0.753,0.147-1.572,0.9-1.828c3.151-1.072,6.31-2.244,9.388-3.48
		c0.731-0.298,1.579,0.056,1.876,0.798c0.297,0.739-0.062,1.579-0.801,1.875c-3.126,1.259-6.334,2.449-9.532,3.538
		C1740.619,566.393,1740.46,566.42,1740.309,566.42L1740.309,566.42z M1611.802,563.43c-0.175,0-0.354-0.032-0.527-0.101
		c-3.144-1.237-6.298-2.577-9.373-3.985c-0.724-0.33-1.043-1.187-0.712-1.912c0.331-0.721,1.18-1.044,1.912-0.709
		c3.028,1.386,6.133,2.705,9.23,3.922c0.74,0.292,1.104,1.129,0.812,1.872C1612.921,563.084,1612.378,563.43,1611.802,563.43
		L1611.802,563.43z M1759.008,558.9c-0.543,0-1.062-0.309-1.309-0.834c-0.337-0.72-0.022-1.578,0.698-1.915
		c3.005-1.402,6.013-2.905,8.94-4.472c0.706-0.374,1.577-0.11,1.951,0.593c0.375,0.702,0.109,1.575-0.591,1.949
		c-2.976,1.591-6.031,3.118-9.081,4.542C1759.42,558.855,1759.212,558.9,1759.008,558.9L1759.008,558.9z M1593.43,555.021
		c-0.228,0-0.455-0.053-0.668-0.164c-2.995-1.573-5.983-3.248-8.883-4.977c-0.684-0.408-0.906-1.293-0.5-1.978
		c0.407-0.684,1.296-0.909,1.978-0.5c2.854,1.703,5.797,3.351,8.745,4.898c0.705,0.371,0.977,1.244,0.605,1.947
		C1594.449,554.74,1593.949,555.021,1593.43,555.021L1593.43,555.021z M1776.776,549.403c-0.488,0-0.963-0.246-1.234-0.693
		c-0.414-0.681-0.195-1.569,0.484-1.98c2.841-1.725,5.672-3.542,8.413-5.413c0.658-0.452,1.558-0.28,2.005,0.379
		c0.449,0.658,0.279,1.554-0.378,2.004c-2.785,1.898-5.659,3.748-8.544,5.497C1777.288,549.338,1777.03,549.403,1776.776,549.403
		L1776.776,549.403z M1576.086,544.678c-0.276,0-0.557-0.079-0.802-0.245c-2.801-1.88-5.589-3.865-8.289-5.901
		c-0.636-0.478-0.764-1.383-0.286-2.021c0.481-0.633,1.385-0.761,2.021-0.281c2.659,2.003,5.405,3.957,8.16,5.811
		c0.662,0.444,0.837,1.342,0.394,2.002C1577.005,544.455,1576.551,544.678,1576.086,544.678L1576.086,544.678z M1793.429,538.044
		c-0.436,0-0.863-0.194-1.148-0.565c-0.482-0.634-0.361-1.54,0.271-2.021c2.635-2.017,5.257-4.132,7.785-6.29
		c0.605-0.514,1.514-0.447,2.034,0.161c0.516,0.605,0.445,1.516-0.162,2.034c-2.567,2.189-5.228,4.339-7.907,6.385
		C1794.041,537.947,1793.733,538.044,1793.429,538.044L1793.429,538.044z M1559.964,532.531c-0.328,0-0.658-0.111-0.929-0.339
		c-2.585-2.173-5.144-4.447-7.602-6.753c-0.582-0.545-0.61-1.459-0.064-2.04c0.544-0.58,1.459-0.607,2.038-0.064
		c2.42,2.271,4.94,4.511,7.484,6.652c0.61,0.512,0.689,1.422,0.176,2.029C1560.782,532.356,1560.373,532.531,1559.964,532.531
		L1559.964,532.531z M1808.768,524.955c-0.38,0-0.763-0.151-1.045-0.451c-0.549-0.575-0.524-1.488,0.053-2.037
		c2.409-2.289,4.788-4.674,7.07-7.091c0.548-0.578,1.46-0.604,2.038-0.059c0.578,0.549,0.604,1.46,0.059,2.038
		c-2.318,2.454-4.734,4.877-7.182,7.203C1809.482,524.823,1809.124,524.955,1808.768,524.955L1808.768,524.955z M1545.245,518.73
		c-0.381,0-0.758-0.148-1.042-0.443c-2.343-2.448-4.642-4.98-6.833-7.529c-0.518-0.604-0.448-1.514,0.155-2.034
		c0.601-0.518,1.511-0.452,2.034,0.153c2.154,2.51,4.42,5.006,6.727,7.414c0.551,0.575,0.531,1.488-0.045,2.038
		C1545.962,518.597,1545.604,518.73,1545.245,518.73L1545.245,518.73z M1822.626,510.287c-0.33,0-0.662-0.112-0.934-0.343
		c-0.607-0.515-0.682-1.424-0.166-2.031c2.145-2.525,4.254-5.155,6.272-7.812c0.48-0.634,1.388-0.758,2.021-0.277
		c0.635,0.483,0.758,1.388,0.275,2.022c-2.05,2.697-4.192,5.366-6.368,7.931C1823.441,510.114,1823.034,510.287,1822.626,510.287
		L1822.626,510.287z M1532.099,503.438c-0.433,0-0.857-0.195-1.143-0.563c-2.061-2.674-4.074-5.438-5.984-8.213
		c-0.45-0.656-0.285-1.554,0.371-2.007c0.658-0.451,1.555-0.282,2.007,0.373c1.879,2.731,3.861,5.454,5.891,8.087
		c0.487,0.633,0.369,1.538-0.263,2.023C1532.716,503.339,1532.406,503.438,1532.099,503.438L1532.099,503.438z M1834.835,494.211
		c-0.279,0-0.561-0.079-0.808-0.247c-0.66-0.447-0.833-1.343-0.387-2.005c1.867-2.753,3.683-5.595,5.396-8.444
		c0.411-0.681,1.296-0.902,1.978-0.491c0.686,0.41,0.905,1.297,0.494,1.979c-1.74,2.892-3.584,5.777-5.479,8.576
		C1835.751,493.992,1835.297,494.211,1834.835,494.211L1834.835,494.211z M1520.675,486.828c-0.484,0-0.959-0.245-1.23-0.691
		c-1.759-2.877-3.463-5.841-5.062-8.805c-0.378-0.701-0.116-1.577,0.584-1.955c0.702-0.378,1.575-0.115,1.954,0.585
		c1.575,2.92,3.252,5.838,4.982,8.672c0.416,0.68,0.201,1.567-0.477,1.981C1521.191,486.76,1520.932,486.828,1520.675,486.828
		L1520.675,486.828z M1845.243,476.907c-0.229,0-0.459-0.054-0.676-0.17c-0.701-0.371-0.971-1.244-0.598-1.946
		c1.555-2.937,3.053-5.959,4.453-8.984c0.332-0.724,1.192-1.039,1.914-0.704c0.723,0.333,1.038,1.191,0.702,1.914
		c-1.419,3.073-2.94,6.142-4.521,9.123C1846.26,476.627,1845.759,476.907,1845.243,476.907L1845.243,476.907z M1511.112,469.097
		c-0.542,0-1.061-0.307-1.307-0.828c-1.433-3.043-2.803-6.17-4.075-9.297c-0.301-0.737,0.053-1.578,0.792-1.879
		c0.729-0.3,1.578,0.055,1.878,0.792c1.253,3.078,2.604,6.159,4.015,9.154c0.34,0.721,0.031,1.579-0.689,1.918
		C1511.526,469.053,1511.317,469.097,1511.112,469.097L1511.112,469.097z M1853.723,458.567c-0.177,0-0.356-0.033-0.531-0.101
		c-0.741-0.295-1.104-1.134-0.809-1.873c1.236-3.113,2.398-6.282,3.451-9.421c0.256-0.754,1.072-1.162,1.825-0.906
		c0.757,0.252,1.161,1.069,0.909,1.824c-1.071,3.188-2.251,6.406-3.505,9.566C1854.837,458.224,1854.298,458.567,1853.723,458.567
		L1853.723,458.567z M1503.52,450.424c-0.598,0-1.155-0.375-1.362-0.971c-1.101-3.196-2.127-6.459-3.051-9.702
		c-0.217-0.768,0.229-1.565,0.995-1.783c0.767-0.219,1.563,0.227,1.781,0.994c0.906,3.192,1.917,6.404,3.001,9.549
		c0.26,0.753-0.142,1.575-0.892,1.834C1503.835,450.4,1503.676,450.424,1503.52,450.424L1503.52,450.424z M1860.154,439.426
		c-0.128,0-0.257-0.018-0.387-0.053c-0.767-0.211-1.217-1.005-1.005-1.772c0.887-3.214,1.695-6.485,2.402-9.72
		c0.17-0.779,0.939-1.272,1.716-1.101c0.777,0.169,1.271,0.937,1.102,1.715c-0.718,3.287-1.539,6.607-2.438,9.871
		C1861.365,439.006,1860.786,439.426,1860.154,439.426L1860.154,439.426z M1497.998,431.023c-0.658,0-1.254-0.455-1.406-1.125
		c-0.747-3.301-1.411-6.657-1.976-9.973c-0.131-0.787,0.396-1.531,1.182-1.666c0.786-0.129,1.529,0.396,1.663,1.183
		c0.556,3.266,1.209,6.569,1.945,9.819c0.177,0.777-0.312,1.55-1.088,1.726C1498.21,431.012,1498.104,431.023,1497.998,431.023
		L1497.998,431.023z M1864.462,419.717c-0.076,0-0.153-0.006-0.232-0.018c-0.787-0.128-1.321-0.869-1.192-1.655
		c0.531-3.281,0.98-6.619,1.335-9.923c0.084-0.791,0.784-1.369,1.588-1.279c0.791,0.085,1.364,0.797,1.279,1.589
		c-0.357,3.352-0.816,6.742-1.355,10.074C1865.769,419.214,1865.156,419.717,1864.462,419.717L1864.462,419.717z M1494.614,411.139
		c-0.725,0-1.346-0.542-1.432-1.278c-0.385-3.353-0.685-6.76-0.889-10.129c-0.047-0.795,0.559-1.479,1.354-1.526
		c0.755-0.03,1.478,0.556,1.524,1.352c0.2,3.317,0.495,6.671,0.875,9.972c0.092,0.792-0.477,1.506-1.267,1.598
		C1494.724,411.135,1494.669,411.139,1494.614,411.139L1494.614,411.139z M1866.614,399.661c-0.025,0-0.053,0-0.078-0.002
		c-0.796-0.042-1.407-0.721-1.363-1.516c0.176-3.307,0.264-6.673,0.264-10.007c0.001-0.95-0.006-1.895-0.02-2.835
		c-0.014-0.797,0.622-1.453,1.42-1.465c0.836-0.018,1.451,0.622,1.463,1.42c0.018,0.96,0.023,1.919,0.022,2.883
		c0,3.383-0.091,6.801-0.271,10.158C1868.012,399.066,1867.375,399.661,1866.614,399.661L1866.614,399.661z M1493.389,391.002
		c-0.792,0-1.437-0.641-1.442-1.433l-0.005-1.434c0-2.892,0.069-5.828,0.199-8.729c0.036-0.797,0.729-1.391,1.508-1.375
		c0.796,0.036,1.411,0.71,1.375,1.506c-0.131,2.857-0.196,5.752-0.196,8.599l0.005,1.415c0.003,0.797-0.638,1.446-1.436,1.452
		C1493.395,391.002,1493.392,391.002,1493.389,391.002L1493.389,391.002z M1866.435,376.638c-0.753,0-1.387-0.584-1.437-1.346
		c-0.228-3.314-0.547-6.667-0.95-9.966c-0.099-0.79,0.465-1.508,1.254-1.606c0.795-0.098,1.51,0.465,1.606,1.255
		c0.413,3.349,0.737,6.755,0.966,10.123c0.054,0.793-0.547,1.481-1.341,1.538C1866.499,376.636,1866.468,376.638,1866.435,376.638
		L1866.435,376.638z M1494.313,370.851c-0.049,0-0.096-0.002-0.145-0.007c-0.792-0.078-1.371-0.784-1.292-1.577
		c0.335-3.358,0.765-6.753,1.279-10.087c0.124-0.787,0.86-1.331,1.646-1.203c0.786,0.12,1.327,0.857,1.204,1.643
		c-0.507,3.285-0.93,6.626-1.258,9.933C1495.673,370.295,1495.046,370.851,1494.313,370.851L1494.313,370.851z M1863.981,356.615
		c-0.688,0-1.295-0.489-1.42-1.188c-0.583-3.271-1.263-6.568-2.021-9.805c-0.182-0.775,0.299-1.552,1.074-1.733
		c0.775-0.181,1.551,0.299,1.733,1.075c0.771,3.285,1.463,6.636,2.055,9.958c0.139,0.783-0.382,1.534-1.168,1.674
		C1864.148,356.609,1864.063,356.615,1863.981,356.615L1863.981,356.615z M1497.394,350.916c-0.098,0-0.199-0.009-0.298-0.029
		c-0.78-0.166-1.279-0.93-1.115-1.709c0.695-3.299,1.49-6.629,2.365-9.889c0.206-0.77,0.996-1.227,1.767-1.02
		c0.768,0.207,1.226,0.996,1.021,1.768c-0.862,3.21-1.646,6.485-2.33,9.735C1498.661,350.45,1498.061,350.916,1497.394,350.916
		L1497.394,350.916z M1859.368,336.98c-0.625,0-1.201-0.41-1.385-1.04c-0.927-3.171-1.962-6.375-3.073-9.525
		c-0.266-0.752,0.128-1.575,0.878-1.84c0.752-0.267,1.575,0.128,1.841,0.879c1.13,3.201,2.182,6.457,3.124,9.677
		c0.223,0.766-0.217,1.566-0.98,1.79C1859.637,336.958,1859.503,336.98,1859.368,336.98L1859.368,336.98z M1502.613,331.432
		c-0.147,0-0.299-0.024-0.448-0.073c-0.757-0.249-1.17-1.062-0.924-1.818c1.056-3.222,2.211-6.45,3.436-9.596
		c0.291-0.743,1.13-1.106,1.866-0.82c0.743,0.289,1.11,1.126,0.822,1.867c-1.206,3.097-2.344,6.274-3.381,9.446
		C1503.785,331.045,1503.222,331.432,1502.613,331.432L1502.613,331.432z M1852.663,317.979c-0.565,0-1.103-0.336-1.333-0.89
		c-1.271-3.059-2.644-6.127-4.083-9.121c-0.347-0.718-0.043-1.579,0.675-1.925c0.723-0.347,1.579-0.043,1.925,0.675
		c1.461,3.043,2.857,6.159,4.146,9.266c0.307,0.735-0.043,1.579-0.778,1.885C1853.034,317.943,1852.846,317.979,1852.663,317.979
		L1852.663,317.979z M1509.939,312.594c-0.198,0-0.401-0.042-0.595-0.129c-0.725-0.329-1.047-1.183-0.717-1.909
		c1.393-3.075,2.891-6.155,4.452-9.157c0.366-0.706,1.235-0.981,1.945-0.614c0.705,0.367,0.981,1.238,0.613,1.946
		c-1.535,2.953-3.012,5.988-4.385,9.017C1511.013,312.279,1510.488,312.594,1509.939,312.594L1509.939,312.594z M1843.938,299.824
		c-0.508,0-1.002-0.271-1.264-0.749c-1.598-2.908-3.297-5.812-5.05-8.632c-0.421-0.677-0.214-1.566,0.465-1.986
		c0.675-0.422,1.563-0.213,1.984,0.463c1.78,2.865,3.507,5.814,5.128,8.767c0.383,0.698,0.129,1.576-0.57,1.959
		C1844.411,299.767,1844.175,299.824,1843.938,299.824L1843.938,299.824z M1519.261,294.673c-0.248,0-0.501-0.066-0.732-0.201
		c-0.685-0.406-0.912-1.29-0.508-1.976c1.712-2.896,3.533-5.795,5.415-8.617c0.442-0.664,1.335-0.844,2-0.401
		c0.663,0.441,0.842,1.337,0.4,2c-1.854,2.78-3.646,5.636-5.333,8.486C1520.235,294.419,1519.754,294.673,1519.261,294.673
		L1519.261,294.673z M1833.296,282.708c-0.456,0-0.902-0.214-1.185-0.616c-1.903-2.725-3.905-5.432-5.95-8.044
		c-0.49-0.627-0.38-1.534,0.248-2.024c0.627-0.491,1.535-0.377,2.024,0.247c2.075,2.654,4.108,5.402,6.043,8.169
		c0.456,0.653,0.296,1.552-0.356,2.008C1833.868,282.624,1833.58,282.708,1833.296,282.708L1833.296,282.708z M1530.46,277.873
		c-0.299,0-0.603-0.093-0.862-0.287c-0.637-0.476-0.767-1.38-0.292-2.019c2.023-2.705,4.146-5.39,6.31-7.981
		c0.508-0.608,1.418-0.696,2.031-0.183c0.609,0.511,0.69,1.42,0.181,2.031c-2.129,2.551-4.219,5.195-6.211,7.859
		C1531.335,277.673,1530.9,277.873,1530.46,277.873L1530.46,277.873z M1820.87,266.826c-0.4,0-0.801-0.166-1.086-0.493
		c-2.189-2.511-4.475-4.987-6.783-7.362c-0.557-0.571-0.543-1.485,0.028-2.04c0.569-0.555,1.483-0.542,2.038,0.029
		c2.346,2.413,4.664,4.928,6.892,7.477c0.521,0.599,0.46,1.511-0.14,2.034C1821.546,266.709,1821.207,266.826,1820.87,266.826
		L1820.87,266.826z M1543.396,262.381c-0.352,0-0.703-0.127-0.982-0.386c-0.582-0.542-0.614-1.455-0.073-2.039
		c2.29-2.459,4.685-4.901,7.123-7.254c0.571-0.554,1.485-0.538,2.04,0.036c0.552,0.572,0.537,1.485-0.035,2.039
		c-2.401,2.317-4.76,4.721-7.018,7.145C1544.166,262.228,1543.781,262.381,1543.396,262.381L1543.396,262.381z M1806.81,252.363
		c-0.349,0-0.701-0.127-0.978-0.383c-2.442-2.255-4.979-4.475-7.538-6.596c-0.613-0.508-0.699-1.417-0.191-2.031
		c0.508-0.611,1.414-0.699,2.031-0.19c2.6,2.155,5.175,4.408,7.654,6.698c0.585,0.542,0.621,1.454,0.081,2.038
		C1807.586,252.208,1807.199,252.363,1806.81,252.363L1806.81,252.363z M1557.915,248.374c-0.404,0-0.806-0.168-1.091-0.498
		c-0.521-0.602-0.455-1.513,0.146-2.034c2.55-2.207,5.192-4.376,7.859-6.445c0.63-0.488,1.535-0.374,2.022,0.254
		c0.488,0.629,0.374,1.534-0.255,2.023c-2.625,2.038-5.229,4.173-7.738,6.348C1558.585,248.258,1558.248,248.374,1557.915,248.374
		L1557.915,248.374z M1791.269,239.484c-0.3,0-0.6-0.092-0.859-0.283c-2.673-1.984-5.435-3.918-8.205-5.749
		c-0.663-0.439-0.846-1.334-0.407-1.999c0.438-0.664,1.336-0.846,1.998-0.407c2.814,1.859,5.618,3.823,8.333,5.838
		c0.641,0.475,0.774,1.378,0.3,2.018C1792.145,239.283,1791.708,239.484,1791.269,239.484L1791.269,239.484z M1573.842,236.009
		c-0.457,0-0.907-0.216-1.188-0.621c-0.454-0.654-0.288-1.553,0.364-2.007c2.779-1.927,5.639-3.798,8.502-5.561
		c0.679-0.417,1.566-0.206,1.984,0.471c0.416,0.678,0.204,1.566-0.472,1.984c-2.817,1.736-5.635,3.579-8.372,5.477
		C1574.411,235.925,1574.125,236.009,1573.842,236.009L1573.842,236.009z M1774.426,228.35c-0.247,0-0.5-0.063-0.728-0.198
		c-2.873-1.684-5.828-3.31-8.784-4.833c-0.707-0.364-0.984-1.234-0.621-1.942c0.364-0.709,1.232-0.988,1.943-0.621
		c3.003,1.546,6.002,3.198,8.92,4.909c0.688,0.403,0.917,1.286,0.515,1.973C1775.402,228.096,1774.922,228.35,1774.426,228.35
		L1774.426,228.35z M1590.998,225.434c-0.51,0-1.006-0.272-1.268-0.752c-0.38-0.7-0.122-1.575,0.577-1.956
		c2.971-1.618,6.017-3.169,9.048-4.61c0.721-0.344,1.579-0.036,1.921,0.683c0.343,0.719,0.037,1.58-0.683,1.921
		c-2.985,1.42-5.981,2.947-8.908,4.539C1591.468,225.377,1591.23,225.434,1590.998,225.434L1590.998,225.434z M1756.47,219.096
		c-0.195,0-0.397-0.042-0.589-0.128c-3.035-1.36-6.15-2.657-9.261-3.853c-0.742-0.286-1.113-1.121-0.827-1.863
		c0.285-0.745,1.118-1.115,1.864-0.829c3.157,1.215,6.321,2.531,9.404,3.914c0.726,0.325,1.052,1.179,0.726,1.906
		C1757.548,218.778,1757.021,219.096,1756.47,219.096L1756.47,219.096z M1609.182,216.779c-0.566,0-1.104-0.337-1.334-0.894
		c-0.301-0.737,0.05-1.58,0.786-1.882c3.123-1.285,6.323-2.499,9.508-3.609c0.751-0.266,1.572,0.134,1.836,0.887
		c0.262,0.753-0.136,1.575-0.888,1.837c-3.135,1.093-6.284,2.289-9.36,3.553C1609.552,216.745,1609.364,216.779,1609.182,216.779
		L1609.182,216.779z M1737.605,211.841c-0.146,0-0.297-0.023-0.443-0.07c-3.166-1.023-6.398-1.971-9.607-2.818
		c-0.769-0.204-1.229-0.992-1.025-1.762c0.202-0.77,0.993-1.226,1.761-1.027c3.26,0.861,6.544,1.824,9.759,2.862
		c0.758,0.245,1.173,1.058,0.929,1.816C1738.78,211.453,1738.214,211.841,1737.605,211.841L1737.605,211.841z M1628.231,210.137
		c-0.627,0-1.203-0.411-1.387-1.043c-0.22-0.765,0.22-1.564,0.985-1.786c3.244-0.937,6.556-1.795,9.842-2.553
		c0.785-0.178,1.551,0.305,1.73,1.082c0.178,0.775-0.307,1.55-1.082,1.729c-3.235,0.746-6.496,1.592-9.688,2.514
		C1628.498,210.119,1628.361,210.137,1628.231,210.137L1628.231,210.137z M1718.103,206.692c-0.097,0-0.195-0.01-0.293-0.03
		c-3.256-0.672-6.573-1.264-9.854-1.759c-0.788-0.119-1.329-0.854-1.213-1.642c0.119-0.788,0.849-1.329,1.642-1.21
		c3.335,0.502,6.703,1.104,10.01,1.787c0.778,0.161,1.282,0.923,1.121,1.704C1719.372,206.223,1718.773,206.692,1718.103,206.692
		L1718.103,206.692z M1647.886,205.604c-0.688,0-1.297-0.494-1.418-1.195c-0.139-0.785,0.387-1.532,1.173-1.667
		c3.319-0.578,6.704-1.072,10.059-1.472c0.779-0.096,1.507,0.47,1.604,1.261c0.093,0.792-0.471,1.508-1.264,1.603
		c-3.304,0.393-6.636,0.881-9.904,1.449C1648.05,205.596,1647.968,205.604,1647.886,205.604L1647.886,205.604z M1698.155,203.688
		c-0.046,0-0.092-0.002-0.137-0.007c-3.303-0.316-6.661-0.548-9.99-0.687c-0.794-0.033-1.413-0.705-1.379-1.501
		s0.71-1.421,1.501-1.38c3.378,0.141,6.79,0.376,10.141,0.698c0.794,0.076,1.375,0.78,1.299,1.573
		C1699.519,203.13,1698.891,203.688,1698.155,203.688L1698.155,203.688z M1667.914,203.223c-0.753,0-1.388-0.586-1.438-1.35
		c-0.05-0.795,0.553-1.48,1.346-1.532c3.362-0.217,6.78-0.347,10.16-0.385c0.006,0,0.012,0,0.017,0c0.788,0,1.434,0.635,1.441,1.426
		c0.01,0.796-0.628,1.449-1.425,1.458c-3.329,0.036-6.695,0.164-10.006,0.379C1667.976,203.221,1667.945,203.223,1667.914,203.223
		L1667.914,203.223z"/>
</g>
<g>
	<path fill-rule="evenodd" clip-rule="evenodd" fill="#3D566E" d="M1595.979,264.242c-1.786,3.183-3.891,5.996-6.352,8.457
		l-0.154,0.14c-2.433,2.414-5.215,4.475-8.322,6.227c-1.953,1.078-4.105,1.463-6.181,1.172c-2.061-0.277-4.045-1.246-5.615-2.816
		l-0.016-0.016v0.016l-18.425-18.44l-6.212-6.214l17.193-17.194l6.998-1.539c1.816-0.399,3.568-1.037,5.215-1.86l20.238,20.257
		c1.568,1.582,2.523,3.566,2.814,5.628C1597.454,260.132,1597.07,262.302,1595.979,264.242z"/>
	<polygon fill-rule="evenodd" clip-rule="evenodd" fill="#D1D1D1" points="1536.427,224.636 1520.247,208.441 1514.926,208.672 
		1500.884,191.423 1508.421,183.902 1525.661,197.944 1525.416,203.289 1536.764,214.647 1541.595,219.476 	"/>
	<path fill-rule="evenodd" clip-rule="evenodd" fill="#2C3E50" d="M1595.979,264.242c-1.786,3.183-3.891,5.996-6.352,8.457
		l-0.154,0.14c-2.433,2.414-5.215,4.475-8.322,6.227c-1.953,1.078-4.105,1.463-6.181,1.172c-2.061-0.277-4.045-1.246-5.615-2.816
		l-0.016-0.016v0.016l-18.425-18.44l-6.212-6.214l3.537-3.535l24.639,24.653l0,0c0.799,0.783,1.77,1.276,2.782,1.401
		c0.464,0.076,0.94,0.061,1.4,0l-27.424-27.456l12.259-12.257l28.408,28.424c0.46-0.709,0.907-1.432,1.323-2.186
		c0.537-0.969,0.738-2.044,0.598-3.06c-0.137-1-0.614-1.984-1.415-2.785l-21.916-21.932c1.816-0.399,3.568-1.037,5.215-1.86
		l20.238,20.257c1.568,1.582,2.523,3.566,2.814,5.628C1597.454,260.132,1597.07,262.302,1595.979,264.242z"/>
	<path fill-rule="evenodd" clip-rule="evenodd" fill="#D1D1D1" d="M1567.51,213.048c-4.353-4.292-7.136-10.344-3.923-13.542
		l13.197-13.196l-1.814-1.815c-5.752-5.76-24.209,4.329-30.5,13.727c-3.199,4.775-4.152,11.827,0.677,17.702l-42.833,42.795
		c-1.553,1.554-2.506,3.523-2.783,5.581c-1.14,8.121,8.676,17.935,16.78,16.812c2.06-0.293,4.029-1.23,5.597-2.785l42.604-42.578
		c5.398,5.345,12.658,3.791,17.81,0.361c9.411-6.275,19.501-24.739,13.749-30.499l-1.813-1.815l-13.196,13.197
		C1577.846,220.199,1571.8,217.408,1567.51,213.048L1567.51,213.048z M1509.295,271.315c-3.874-3.905-3.874-10.214,0.016-14.12
		c3.893-3.875,10.215-3.875,14.105,0.015c3.891,3.891,3.891,10.214-0.016,14.104C1519.51,275.206,1513.203,275.206,1509.295,271.315
		z"/>
	<path fill-rule="evenodd" clip-rule="evenodd" fill="#DAE1E6" d="M1504.39,276.112l4.86-4.859
		c-3.829-3.891-3.813-10.181,0.061-14.058c3.877-3.859,10.152-3.875,14.042-0.032l44.157-44.115
		c-4.353-4.292-7.136-10.344-3.923-13.542l13.197-13.196l-1.814-1.807c-5.752-5.768-24.209,4.321-30.5,13.719
		c-3.199,4.775-4.152,11.827,0.677,17.702l-42.833,42.795c-1.553,1.554-2.506,3.523-2.783,5.581
		C1498.959,268.331,1501.099,272.792,1504.39,276.112z"/>
</g>
<g>
	<path fill-rule="evenodd" clip-rule="evenodd" fill="#2C3E50" d="M1447.854,534.592h93.665c3.894,0,7.075-3.182,7.075-7.076
		v-124.44c0-3.895-3.182-7.075-7.075-7.075h-15.173h-9.03h-45.259h-7.876h-16.327c-3.893,0-7.076,3.181-7.076,7.075v124.44
		C1440.778,531.41,1443.962,534.592,1447.854,534.592z"/>
	<path fill-rule="evenodd" clip-rule="evenodd" fill="#ECF0F1" d="M1537.3,406.052V524.54h-85.228V406.052
		C1480.477,406.052,1508.898,406.052,1537.3,406.052z"/>
	<rect x="1452.072" y="406.052" fill-rule="evenodd" clip-rule="evenodd" fill="#DAE1E6" width="42.605" height="118.488"/>
	<path fill-rule="evenodd" clip-rule="evenodd" fill="#666666" d="M1474.405,416.036V396h40.563v20.036H1474.405L1474.405,416.036z
		 M1510.345,412.089c0-4.378,0-7.764,0-12.145c-10.444,0-20.869,0-31.313,0c0,4.381,0,7.766,0,12.145
		C1489.476,412.089,1499.9,412.089,1510.345,412.089z"/>
	<path fill-rule="evenodd" clip-rule="evenodd" fill="#E02828" d="M1465.17,435.153L1465.17,435.153
		c1.667,0,3.025,1.369,3.025,3.045l0,0c0,1.665-1.358,3.035-3.025,3.035l0,0c-1.685,0-3.045-1.37-3.045-3.035l0,0
		C1462.125,436.521,1463.485,435.153,1465.17,435.153z"/>
	<path fill-rule="evenodd" clip-rule="evenodd" fill="#FFCB05" d="M1465.17,451.489L1465.17,451.489
		c1.667,0,3.025,1.369,3.025,3.045l0,0c0,1.666-1.358,3.036-3.025,3.036l0,0c-1.685,0-3.045-1.37-3.045-3.036l0,0
		C1462.125,452.858,1463.485,451.489,1465.17,451.489z"/>
	<path fill-rule="evenodd" clip-rule="evenodd" fill="#6699FF" d="M1465.17,468.847L1465.17,468.847
		c1.667,0,3.025,1.369,3.025,3.034l0,0c0,1.668-1.358,3.029-3.025,3.029l0,0c-1.685,0-3.045-1.361-3.045-3.029l0,0
		C1462.125,470.216,1463.485,468.847,1465.17,468.847z"/>
	<rect x="1474.405" y="436.674" fill-rule="evenodd" clip-rule="evenodd" fill="#2C3E50" width="47.128" height="3.037"/>
	<rect x="1474.405" y="453.002" fill-rule="evenodd" clip-rule="evenodd" fill="#2C3E50" width="50.992" height="3.046"/>
	<rect x="1474.405" y="470.359" fill-rule="evenodd" clip-rule="evenodd" fill="#2C3E50" width="40.154" height="3.037"/>
	<path fill-rule="evenodd" clip-rule="evenodd" fill="#999999" d="M1474.405,406.017V396h40.563v10.017h-4.624v-6.072
		c-10.444,0-20.869,0-31.313,0v6.072H1474.405z"/>
</g>
<g>
	<polygon fill-rule="evenodd" clip-rule="evenodd" fill="#DAE1E6" points="1713.726,529.496 1712.223,528.009 1712.257,528.009 	"/>
	<path fill-rule="evenodd" clip-rule="evenodd" fill="#DAE1E6" d="M1729.45,636.628h-76.427c-4.007,0-7.292-3.285-7.292-7.292
		V523.31c0-4.027,3.285-7.292,7.292-7.292h52.098l31.622,31.621v81.697C1736.743,633.343,1733.459,636.628,1729.45,636.628z"/>
	<polygon fill-rule="evenodd" clip-rule="evenodd" fill="#B3B3B3" points="1725.547,536.441 1736.743,547.639 1736.743,574.991 
		1707.333,545.566 	"/>
	<path fill-rule="evenodd" clip-rule="evenodd" fill="#ECF0F1" d="M1736.743,547.639h-24.329c-4.027,0-7.293-3.283-7.293-7.293
		v-24.328L1736.743,547.639z"/>
	<path fill-rule="evenodd" clip-rule="evenodd" fill="#2C3E50" d="M1698.676,627.488h-40.347h-1.953v-1.955v-14.116v-17.175v-29.255
		v-17.159v-13.462v-1.95h1.953h46.792v3.906h-44.841v11.506v17.159v29.255v17.175v12.165h38.396V627.488L1698.676,627.488z
		 M1659.538,547.828h-0.553h-0.294h-0.726h-0.432h-0.415v17.159h0.415h0.432h0.726h0.294h0.553V547.828L1659.538,547.828z
		 M1659.538,594.242h-0.414h-0.433h-0.726h-0.432h-0.415v17.175h0.415h0.432h0.726h0.433h0.414V594.242z"/>
	<rect x="1715.678" y="547.639" fill-rule="evenodd" clip-rule="evenodd" fill="#2C3E50" width="3.906" height="5.253"/>
	<polygon fill-rule="evenodd" clip-rule="evenodd" fill="#2C3E50" points="1702.409,577.998 1715.678,577.998 1715.678,570.067 
		1719.584,570.067 1719.584,579.95 1719.584,581.904 1717.632,581.904 1702.409,581.904 	"/>
	<rect x="1658.329" y="577.998" fill-rule="evenodd" clip-rule="evenodd" fill="#2C3E50" width="26.92" height="3.906"/>
	<path fill-rule="evenodd" clip-rule="evenodd" fill="#B3B3B3" d="M1729.45,636.628h-22.48l-9.85-9.848l-0.017-0.019l-0.035-0.052
		c-0.035-0.034-0.069-0.069-0.104-0.104l-0.087-0.105l-0.068-0.103l0,0l-0.033-0.053l0,0l-0.037-0.052l0,0l-0.033-0.052l0,0
		l-0.034-0.052l0,0l-0.034-0.052l0,0l-0.019-0.051v-0.019l-0.034-0.051l0,0l-0.018-0.052l0,0l-0.034-0.053v-0.017l-0.017-0.052l0,0
		l-0.018-0.053l0,0l-0.019-0.068l0,0l-0.017-0.07l0,0l-0.018-0.017v-0.018v-0.017l0,0v-0.035l0,0l-0.017-0.017l0,0v-0.019l0,0
		v-0.052l0,0l-0.018-0.017l0,0v-0.018l0,0v-0.05l0,0l-0.018-0.036l0,0v-0.017l0,0l-0.017-0.034l0,0v-0.018l0,0v-0.017l0,0v-0.018
		v-0.019v-0.017l0,0v-0.018l0,0v-0.034v-0.018l-0.018-0.034l0,0v-0.017l0,0v-0.053l0,0v-0.018l0,0v-0.017l0,0v-0.053v-0.018l0,0
		v-0.017l0,0v-0.018l0,0v-0.034l0,0v-0.018l0,0l0.018-0.017l0,0v-0.019l0,0v-0.017v-0.018v-0.018l0,0v-0.017l0,0v-0.018l0,0v-0.017
		l0,0v-0.033l0,0v-0.02l0,0v-0.018l0,0l0.017-0.016l0,0v-0.034l0,0v-0.018l0,0l0.018-0.019l0,0v-0.017l0,0v-0.018l0,0v-0.034l0,0
		l0.018-0.018l0,0v-0.017l0,0v-0.018l0,0v-0.036l0,0h0.017v-0.016v-0.018v-0.018v-0.017v-0.019l0.018-0.016v-0.018l1.398-4.701
		l2.248-7.568l0,0l5.563-18.661v-0.018l13.806-13.789l17.264-17.261v67.043C1736.743,633.343,1733.459,636.628,1729.45,636.628z"/>
	<polygon fill-rule="evenodd" clip-rule="evenodd" fill="#B3B3B3" points="1736.743,562.293 1736.743,574.991 1730.384,568.633 	"/>
	<g>
		<path fill-rule="evenodd" clip-rule="evenodd" fill="#FACC4D" d="M1765.686,543.422c3.162,1.763,5.962,3.871,8.413,6.325
			l0.123,0.121c2.401,2.436,4.457,5.185,6.188,8.277c1.069,1.935,1.45,4.077,1.174,6.134c-0.293,2.055-1.245,4.007-2.8,5.581h-0.017
			h0.017l-48.33,48.33l-30.931,9.177c-1.313,0.378-2.696-0.381-3.059-1.713c-0.139-0.448-0.12-0.932,0-1.363l9.21-30.931
			l48.296-48.297c1.557-1.571,3.525-2.522,5.581-2.8C1761.607,541.971,1763.75,542.351,1765.686,543.422z"/>
		<path fill-rule="evenodd" clip-rule="evenodd" fill="#2C3E50" d="M1713.76,600.756l51.685-51.683
			c-0.711-0.466-1.419-0.917-2.161-1.314c-0.968-0.553-2.039-0.726-3.04-0.604c-1.003,0.155-1.988,0.622-2.766,1.417l-46.932,46.93
			L1713.76,600.756z"/>
		<path fill-rule="evenodd" clip-rule="evenodd" fill="#2C3E50" d="M1711.962,623.668l-12.439,3.716
			c-1.313,0.361-2.679-0.397-3.059-1.729c-0.139-0.465-0.12-0.932,0-1.363l3.646-12.27l2.038,4.32l6.913,0.414L1711.962,623.668z"/>
		<path fill-rule="evenodd" clip-rule="evenodd" fill="#2C3E50" d="M1765.686,543.422c3.162,1.779,5.962,3.871,8.413,6.325
			l0.123,0.121c2.401,2.436,4.457,5.185,6.188,8.277c1.069,1.935,1.45,4.077,1.174,6.134c-0.293,2.055-1.245,4.007-2.8,5.581h-0.017
			h0.017l-48.33,48.33l-3.302-6.721c-5.183-2.662-10.384-5.341-15.568-7.985l-5.909-10.124l48.296-48.297
			c1.573-1.571,3.525-2.522,5.581-2.8C1761.607,541.971,1763.75,542.351,1765.686,543.422z"/>
		<path fill-rule="evenodd" clip-rule="evenodd" fill="#3D566E" d="M1765.686,543.422c1.277,0.709,2.488,1.486,3.645,2.3
			l-57.747,57.763l-5.909-10.124l48.296-48.297c1.573-1.571,3.525-2.522,5.581-2.8
			C1761.607,541.971,1763.75,542.351,1765.686,543.422z"/>
		<path fill-rule="evenodd" clip-rule="evenodd" fill="#3D566E" d="M1780.425,558.179c1.054,1.937,1.435,4.062,1.158,6.101
			c-0.293,2.055-1.245,4.007-2.8,5.581h-0.017h0.017l-48.33,48.33l-3.302-6.721L1780.425,558.179z"/>
	</g>
</g>
<g>
	<path fill-rule="evenodd" clip-rule="evenodd" fill="#2C3E50" d="M1795.22,195.911l6.082,2.524l10.684-5.521
		c3.646,3.646,7.305,7.293,10.938,10.938l-5.508,10.697l2.512,6.069l11.46,3.659c0,5.15,0,10.301,0,15.452l-11.46,3.659
		l-2.512,6.082l5.508,10.683c-3.634,3.646-7.292,7.292-10.938,10.939l-10.684-5.507l-6.082,2.511l-3.659,11.448
		c-5.15,0-10.302,0-15.452,0l-3.646-11.448l-6.08-2.511l-10.697,5.507c-3.646-3.647-7.293-7.293-10.939-10.939l5.521-10.683
		l-2.525-6.082l-11.449-3.659c0-5.15,0-10.301,0-15.452l11.449-3.659l2.525-6.069l-5.521-10.697
		c3.646-3.646,7.293-7.292,10.939-10.938l10.697,5.521l6.08-2.524l3.646-11.448c5.15,0,10.302,0,15.452,0L1795.22,195.911
		L1795.22,195.911z M1783.835,222.226c-5.393,0-9.779,4.385-9.779,9.778c0,5.406,4.387,9.778,9.779,9.778
		c5.406,0,9.777-4.373,9.777-9.778C1793.612,226.611,1789.241,222.226,1783.835,222.226z"/>
	<path fill-rule="evenodd" clip-rule="evenodd" fill="#3D566E" d="M1784.74,279.545h-8.632l-3.646-11.448l-6.08-2.511l-10.697,5.507
		c-3.646-3.647-7.293-7.293-10.939-10.939l5.521-10.683l-2.525-6.082l-11.449-3.659c0-5.15,0-10.301,0-15.452l11.449-3.659
		l2.525-6.069l-5.521-10.697c3.646-3.646,7.293-7.292,10.939-10.938l10.697,5.521l6.08-2.524l3.646-11.448h8.632v37.8
		c-0.308-0.025-0.6-0.038-0.905-0.038c-5.393,0-9.779,4.385-9.779,9.778c0,5.406,4.387,9.778,9.779,9.778
		c0.306,0,0.598-0.011,0.905-0.037V279.545z"/>
	<path fill-rule="evenodd" clip-rule="evenodd" fill="#FFCB05" d="M1783.835,204.67c15.107,0,27.346,12.239,27.346,27.334
		s-12.238,27.347-27.346,27.347c-15.096,0-27.335-12.252-27.335-27.347S1768.739,204.67,1783.835,204.67L1783.835,204.67z
		 M1783.835,222.226c-5.393,0-9.779,4.385-9.779,9.778c0,5.406,4.387,9.778,9.779,9.778c5.406,0,9.777-4.373,9.777-9.778
		C1793.612,226.611,1789.241,222.226,1783.835,222.226z"/>
	<path fill-rule="evenodd" clip-rule="evenodd" fill="#3D566E" d="M1783.835,252.759c11.46,0,20.755-9.293,20.755-20.755
		s-9.295-20.755-20.755-20.755c-11.462,0-20.756,9.293-20.756,20.755S1772.373,252.759,1783.835,252.759L1783.835,252.759z
		 M1783.835,222.226c5.406,0,9.777,4.385,9.777,9.778c0,5.406-4.371,9.778-9.777,9.778c-5.393,0-9.779-4.373-9.779-9.778
		C1774.056,226.611,1778.442,222.226,1783.835,222.226z"/>
</g>
<g>
	<path fill-rule="evenodd" clip-rule="evenodd" fill="#2C3E50" d="M1808.96,357.253l114.774,0.047c4.681,0,8.517,3.836,8.517,8.518
		l-0.031,70.538c0,4.684-3.837,8.519-8.535,8.519l-114.756-0.045c-4.681,0-8.519-3.854-8.519-8.518l0.033-70.555
		C1800.443,361.09,1804.279,357.238,1808.96,357.253z"/>
	<path fill-rule="evenodd" clip-rule="evenodd" fill="#6EBCC6" d="M1810.524,363.501l29.674,0.029l81.969,0.032
		c2.114,0,3.82,1.722,3.82,3.822l-0.03,67.406c0,2.115-1.723,3.836-3.82,3.819l-92.493-0.044h-19.147
		c-2.115,0-3.822-1.725-3.822-3.822l0.033-67.406C1806.707,365.224,1808.413,363.501,1810.524,363.501z"/>
	<path fill-rule="evenodd" clip-rule="evenodd" fill="#121220" d="M1943.164,444.891l-153.384-0.079v0.236
		c0,5.369,4.367,9.739,9.723,9.739l133.922,0.064c5.369,0,9.739-4.37,9.739-9.727V444.891z"/>
	<rect x="1849.546" y="444.853" fill-rule="evenodd" clip-rule="evenodd" fill="#ECF0F1" width="33.854" height="1.564"/>
	<path fill-rule="evenodd" clip-rule="evenodd" fill="#6EBCC6" d="M1866.349,363.531l-0.034,75.065l-55.818-0.029
		c-2.115,0-3.822-1.725-3.822-3.822l0.033-67.406c0-2.115,1.706-3.837,3.817-3.837l29.674,0.029H1866.349z"/>
	<rect x="1826.888" y="380.412" fill-rule="evenodd" clip-rule="evenodd" fill="#DAE1E6" width="78.901" height="47.099"/>
	<rect x="1826.888" y="373.616" fill-rule="evenodd" clip-rule="evenodd" fill="#2980B9" width="78.901" height="6.796"/>
	<path fill-rule="evenodd" clip-rule="evenodd" fill="#9B59B6" d="M1846.887,391.622L1846.887,391.622
		c1.062,0,1.939,0.877,1.939,1.943l0,0c0,1.063-0.877,1.925-1.939,1.925l0,0c-1.052,0-1.928-0.862-1.928-1.925l0,0
		C1844.959,392.499,1845.835,391.622,1846.887,391.622z"/>
	<path fill-rule="evenodd" clip-rule="evenodd" fill="#FFCB05" d="M1846.887,402.019L1846.887,402.019
		c1.062,0,1.939,0.877,1.939,1.943l0,0c0,1.063-0.877,1.925-1.939,1.925l0,0c-1.052,0-1.928-0.862-1.928-1.925l0,0
		C1844.959,402.896,1845.835,402.019,1846.887,402.019z"/>
	<path fill-rule="evenodd" clip-rule="evenodd" fill="#6699FF" d="M1846.887,413.057L1846.887,413.057
		c1.062,0,1.939,0.879,1.939,1.928l0,0c0,1.063-0.877,1.94-1.939,1.94l0,0c-1.052,0-1.928-0.877-1.928-1.94l0,0
		C1844.959,413.936,1845.835,413.057,1846.887,413.057z"/>
	<rect x="1852.771" y="392.592" fill-rule="evenodd" clip-rule="evenodd" fill="#95A5A6" width="29.984" height="1.925"/>
	<rect x="1852.771" y="402.991" fill-rule="evenodd" clip-rule="evenodd" fill="#95A5A6" width="32.446" height="1.941"/>
	<rect x="1852.771" y="414.029" fill-rule="evenodd" clip-rule="evenodd" fill="#95A5A6" width="25.554" height="1.926"/>
</g>
</svg>
