<?xml version="1.0" encoding="utf-8"?>
<!-- Generator: Adobe Illustrator 16.0.3, SVG Export Plug-In . SVG Version: 6.00 Build 0)  -->
<!DOCTYPE svg PUBLIC "-//W3C//DTD SVG 1.1//EN" "http://www.w3.org/Graphics/SVG/1.1/DTD/svg11.dtd">
<svg version="1.1" id="Layer_1" xmlns="http://www.w3.org/2000/svg" xmlns:xlink="http://www.w3.org/1999/xlink" x="0px" y="0px"
	 width="2048px" height="1000px" viewBox="0 0 2048 1000" enable-background="new 0 0 2048 1000" xml:space="preserve">
<rect fill="#B9E5FB" width="2048" height="1000"/>
<line fill="none" stroke="#343636" stroke-width="3" stroke-miterlimit="10" x1="50" y1="53.718" x2="2010.762" y2="53.718"/>
<g>
	<g>
		<path fill="#333333" d="M1546.418,692.971c-0.84-4.039-4-6.078-7.998-6.078c-6.799,0-9.678,5.599-9.678,11.558
			c0,6.519,2.879,11.958,9.717,11.958c4.959,0,7.92-3.52,8.238-8.238h3.801c-0.76,7.158-5.119,11.438-12.357,11.438
			c-8.84,0-13.199-6.559-13.199-14.877s4.719-15.037,13.518-15.037c5.959,0,10.918,3.199,11.758,9.277H1546.418z"/>
		<path fill="#333333" d="M1554.662,684.373h3.398v10.918h0.08c1.08-2.52,4.08-3.52,6.52-3.52c5.439,0,7.119,3.119,7.119,7.559
			v13.598h-3.4V698.93c0-2.559-1.6-4.158-4.199-4.158c-4.119,0-6.119,2.759-6.119,6.479v11.678h-3.398V684.373z"/>
		<path fill="#333333" d="M1595.219,712.848c-0.6,0.359-1.439,0.561-2.439,0.561c-1.76,0-2.879-0.961-2.879-3.2
			c-1.881,2.239-4.4,3.2-7.279,3.2c-3.76,0-6.84-1.641-6.84-5.8c0-4.679,3.48-5.719,7-6.358c3.719-0.76,6.959-0.44,6.959-3.04
			c0-2.999-2.48-3.438-4.6-3.438c-2.879,0-5,0.879-5.16,3.918h-3.398c0.199-5.119,4.119-6.918,8.758-6.918
			c3.721,0,7.76,0.84,7.76,5.679v10.638c0,1.601,0,2.32,1.08,2.32c0.318,0,0.68-0.08,1.039-0.2V712.848z M1589.699,702.25
			c-2.639,1.959-10.318,0.039-10.318,5.119c0,2.239,1.92,3.039,4,3.039c4.479,0,6.318-2.76,6.318-4.68V702.25z"/>
		<path fill="#333333" d="M1598.381,692.251h3.199v3.28h0.08c1.439-2.561,3.721-3.76,6.719-3.76c5.439,0,7.119,3.119,7.119,7.559
			v13.598h-3.398V698.93c0-2.559-1.6-4.158-4.199-4.158c-4.119,0-6.119,2.759-6.119,6.479v11.678h-3.4V692.251z"/>
		<path fill="#333333" d="M1638.459,711.168c0,6.759-3.039,10.158-9.6,10.158c-3.879,0-8.357-1.6-8.559-6.078h3.4
			c0.119,2.439,3.16,3.359,5.359,3.359c4.439,0,6.199-3.2,6.199-7.84v-1.359h-0.08c-1.16,2.52-3.801,3.76-6.439,3.76
			c-6.158,0-9.238-4.84-9.238-10.479c0-4.879,2.359-10.918,9.559-10.918c2.6,0,4.918,1.16,6.158,3.439h0.041v-2.96h3.199V711.168z
			 M1635.1,702.17c0-3.64-1.6-7.398-5.879-7.398c-4.359,0-6.119,3.559-6.119,7.518c0,3.72,1.359,7.879,5.838,7.879
			C1633.42,710.168,1635.1,706.049,1635.1,702.17z"/>
		<path fill="#333333" d="M1661.219,706.369c-0.92,4.6-4.16,7.039-8.838,7.039c-6.6,0-9.719-4.6-9.92-10.879
			c0-6.238,4.08-10.758,9.719-10.758c7.318,0,9.559,6.839,9.359,11.838h-15.479c-0.119,3.6,1.92,6.799,6.439,6.799
			c2.84,0,4.76-1.32,5.359-4.039H1661.219z M1657.939,700.609c-0.201-3.239-2.561-5.838-5.959-5.838c-3.52,0-5.719,2.639-5.92,5.838
			H1657.939z"/>
		<path fill="#333333" d="M1676.74,684.373h13.439c5.398,0,8.678,2.879,8.678,7.479c0,3.479-1.48,6.279-4.959,7.238v0.08
			c3.318,0.641,3.959,3.119,4.279,5.879c0.199,2.76,0.08,5.959,1.68,7.879h-4.24c-1.08-1.16-0.479-4.239-1.039-7.039
			c-0.439-2.76-1.08-5.158-4.76-5.158h-9.277v12.197h-3.801V684.373z M1688.459,697.53c3.52,0,6.6-0.92,6.6-5.079
			c0-2.84-1.52-4.879-5.08-4.879h-9.438v9.958H1688.459z"/>
		<path fill="#333333" d="M1721.219,706.369c-0.92,4.6-4.16,7.039-8.838,7.039c-6.6,0-9.719-4.6-9.92-10.879
			c0-6.238,4.08-10.758,9.719-10.758c7.318,0,9.559,6.839,9.359,11.838h-15.479c-0.119,3.6,1.92,6.799,6.439,6.799
			c2.84,0,4.76-1.32,5.359-4.039H1721.219z M1717.939,700.609c-0.201-3.239-2.561-5.838-5.959-5.838c-3.52,0-5.719,2.639-5.92,5.838
			H1717.939z"/>
		<path fill="#333333" d="M1743.537,720.846h-3.398v-10.717h-0.08c-1.119,2.279-3.719,3.279-6.6,3.279
			c-6.357,0-9.518-5.039-9.518-10.879c0-5.839,3.119-10.758,9.438-10.758c2.08,0,5.199,0.8,6.68,3.239h0.08v-2.76h3.398V720.846z
			 M1733.939,710.408c4.6,0,6.318-3.959,6.318-7.799c0-4.039-1.84-7.838-6.518-7.838c-4.641,0-6.199,3.959-6.199,7.998
			C1727.541,706.648,1729.541,710.408,1733.939,710.408z"/>
		<path fill="#333333" d="M1765.898,712.928h-3.199v-3.279h-0.08c-1.441,2.56-3.721,3.76-6.719,3.76
			c-5.439,0-7.119-3.12-7.119-7.559v-13.599h3.398v13.998c0,2.56,1.6,4.159,4.199,4.159c4.119,0,6.119-2.76,6.119-6.479v-11.679h3.4
			V712.928z"/>
		<path fill="#333333" d="M1788.658,706.369c-0.92,4.6-4.16,7.039-8.838,7.039c-6.6,0-9.719-4.6-9.92-10.879
			c0-6.238,4.08-10.758,9.719-10.758c7.318,0,9.559,6.839,9.359,11.838H1773.5c-0.119,3.6,1.92,6.799,6.439,6.799
			c2.84,0,4.76-1.32,5.359-4.039H1788.658z M1785.379,700.609c-0.201-3.239-2.561-5.838-5.959-5.838c-3.52,0-5.719,2.639-5.92,5.838
			H1785.379z"/>
		<path fill="#333333" d="M1794.58,706.408c0.119,3.04,2.799,4,5.559,4c2.121,0,5-0.48,5-3.08c0-5.318-13.518-1.719-13.518-9.678
			c0-4.159,4.078-5.879,7.719-5.879c4.639,0,8.158,1.439,8.479,6.479h-3.4c-0.199-2.639-2.6-3.479-4.799-3.479
			c-2.039,0-4.398,0.559-4.398,2.639c0,2.4,3.6,2.88,6.758,3.6c3.4,0.76,6.76,1.92,6.76,5.879c0,4.959-4.6,6.52-8.799,6.52
			c-4.639,0-8.559-1.881-8.758-7H1794.58z"/>
		<path fill="#333333" d="M1817.219,692.251h4.121v2.999h-4.121v12.838c0,1.601,0.441,1.84,2.561,1.84h1.561v3h-2.6
			c-3.52,0-4.92-0.72-4.92-4.52V695.25h-3.52v-2.999h3.52v-6.198h3.398V692.251z"/>
	</g>
</g>
<g>
	<g>
		<path fill="#333333" d="M441.881,233.31h9.799c8.799,0,13.718,4.439,13.718,13.598c0,9.559-4.199,14.958-13.718,14.958h-9.799
			V233.31z M445.681,258.666h6.318c2.6,0,9.599-0.72,9.599-11.238c0-6.799-2.52-10.918-9.519-10.918h-6.398V258.666z"/>
		<path fill="#333333" d="M487.118,255.306c-0.92,4.6-4.159,7.039-8.838,7.039c-6.6,0-9.719-4.599-9.919-10.878
			c0-6.239,4.08-10.758,9.719-10.758c7.318,0,9.559,6.839,9.358,11.838h-15.478c-0.12,3.599,1.92,6.799,6.439,6.799
			c2.839,0,4.759-1.32,5.358-4.04H487.118z M483.839,249.547c-0.2-3.24-2.56-5.839-5.959-5.839c-3.52,0-5.719,2.639-5.919,5.839
			H483.839z"/>
		<path fill="#333333" d="M493.041,255.346c0.119,3.04,2.799,4,5.559,4c2.12,0,4.999-0.48,4.999-3.08
			c0-5.319-13.518-1.72-13.518-9.678c0-4.159,4.079-5.879,7.719-5.879c4.64,0,8.158,1.439,8.479,6.479h-3.399
			c-0.2-2.639-2.6-3.479-4.799-3.479c-2.04,0-4.399,0.56-4.399,2.639c0,2.4,3.6,2.88,6.759,3.6c3.399,0.76,6.759,1.919,6.759,5.879
			c0,4.959-4.6,6.519-8.799,6.519c-4.639,0-8.559-1.88-8.758-6.999H493.041z"/>
		<path fill="#333333" d="M524.999,247.828c-0.521-2.6-2.28-4.119-5.119-4.119c-4.92,0-6.439,3.919-6.439,8.079
			c0,3.839,1.72,7.559,6.039,7.559c3.319,0,5.239-1.88,5.679-5.039h3.479c-0.76,5.079-3.879,8.039-9.118,8.039
			c-6.319,0-9.679-4.359-9.679-10.558c0-6.199,3.2-11.078,9.759-11.078c4.719,0,8.398,2.199,8.918,7.119H524.999z"/>
		<path fill="#333333" d="M532.32,241.188h3.199v4.359h0.08c1.64-3.359,3.92-4.959,7.599-4.839v3.599
			c-5.479,0-7.479,3.08-7.479,8.359v9.198h-3.399V241.188z"/>
		<path fill="#333333" d="M549.359,237.469h-3.399v-4.159h3.399V237.469z M545.96,241.188h3.399v20.677h-3.399V241.188z"/>
		<path fill="#333333" d="M554.76,241.188h3.399v2.8h0.08c1.119-2.28,3.719-3.279,6.599-3.279c6.359,0,9.519,5.039,9.519,10.878
			c0,5.879-3.119,10.758-9.438,10.758c-2.08,0-5.199-0.8-6.679-3.24h-0.08v10.678h-3.399V241.188z M564.358,243.708
			c-4.6,0-6.319,3.959-6.319,7.798c0,4.04,1.84,7.839,6.519,7.839c4.64,0,6.199-3.959,6.199-7.999
			C570.757,247.468,568.757,243.708,564.358,243.708z"/>
		<path fill="#333333" d="M583.078,241.188h4.12v3h-4.12v12.838c0,1.6,0.44,1.84,2.56,1.84h1.561v3h-2.6
			c-3.52,0-4.92-0.72-4.92-4.519v-13.158h-3.519v-3h3.519v-6.199h3.399V241.188z"/>
		<path fill="#333333" d="M594.559,237.469h-3.399v-4.159h3.399V237.469z M591.159,241.188h3.399v20.677h-3.399V241.188z"/>
		<path fill="#333333" d="M608.758,240.709c6.559,0,10.038,4.759,10.038,10.838c0,6.039-3.479,10.798-10.038,10.798
			c-6.56,0-10.039-4.759-10.039-10.798C598.719,245.468,602.198,240.709,608.758,240.709z M608.758,259.346
			c3.559,0,6.438-2.8,6.438-7.799s-2.88-7.838-6.438-7.838c-3.56,0-6.439,2.839-6.439,7.838S605.198,259.346,608.758,259.346z"/>
		<path fill="#333333" d="M622.799,241.188h3.199v3.28h0.08c1.439-2.56,3.72-3.759,6.719-3.759c5.439,0,7.119,3.119,7.119,7.559
			v13.598h-3.399v-13.998c0-2.56-1.6-4.159-4.199-4.159c-4.119,0-6.119,2.759-6.119,6.479v11.678h-3.399V241.188z"/>
		<path fill="#333333" d="M665.078,240.709c6.559,0,10.038,4.759,10.038,10.838c0,6.039-3.479,10.798-10.038,10.798
			c-6.56,0-10.039-4.759-10.039-10.798C655.039,245.468,658.519,240.709,665.078,240.709z M665.078,259.346
			c3.559,0,6.438-2.8,6.438-7.799s-2.88-7.838-6.438-7.838c-3.56,0-6.439,2.839-6.439,7.838S661.519,259.346,665.078,259.346z"/>
		<path fill="#333333" d="M680.519,244.188h-3.479v-3h3.479v-3.079c0-3.359,2-5.119,5.72-5.119c0.64,0,1.56,0.12,2.199,0.32v2.959
			c-0.6-0.2-1.319-0.28-1.92-0.28c-1.64,0-2.6,0.52-2.6,2.319v2.879h4v3h-4v17.677h-3.399V244.188z"/>
		<path fill="#333333" d="M441.441,291.188h3.399v2.8h0.08c1.119-2.28,3.719-3.279,6.599-3.279c6.359,0,9.519,5.039,9.519,10.878
			c0,5.879-3.119,10.758-9.438,10.758c-2.08,0-5.199-0.8-6.679-3.24h-0.08v10.678h-3.399V291.188z M451.04,293.708
			c-4.6,0-6.319,3.959-6.319,7.798c0,4.04,1.84,7.839,6.519,7.839c4.64,0,6.199-3.959,6.199-7.999
			C457.438,297.468,455.438,293.708,451.04,293.708z"/>
		<path fill="#333333" d="M464.921,291.188h3.199v4.359h0.08c1.64-3.359,3.92-4.959,7.599-4.839v3.599
			c-5.479,0-7.479,3.08-7.479,8.359v9.198h-3.399V291.188z"/>
		<path fill="#333333" d="M487.279,290.709c6.559,0,10.038,4.759,10.038,10.838c0,6.039-3.479,10.798-10.038,10.798
			c-6.56,0-10.039-4.759-10.039-10.798C477.24,295.468,480.72,290.709,487.279,290.709z M487.279,309.346
			c3.559,0,6.438-2.8,6.438-7.799s-2.88-7.838-6.438-7.838c-3.56,0-6.439,2.839-6.439,7.838S483.72,309.346,487.279,309.346z"/>
		<path fill="#333333" d="M501.44,291.188h3.399v2.8h0.08c1.119-2.28,3.719-3.279,6.599-3.279c6.359,0,9.519,5.039,9.519,10.878
			c0,5.879-3.119,10.758-9.438,10.758c-2.08,0-5.199-0.8-6.679-3.24h-0.08v10.678h-3.399V291.188z M511.039,293.708
			c-4.6,0-6.319,3.959-6.319,7.798c0,4.04,1.84,7.839,6.519,7.839c4.64,0,6.199-3.959,6.199-7.999
			C517.438,297.468,515.438,293.708,511.039,293.708z"/>
		<path fill="#333333" d="M533.959,290.709c6.559,0,10.038,4.759,10.038,10.838c0,6.039-3.479,10.798-10.038,10.798
			c-6.56,0-10.039-4.759-10.039-10.798C523.92,295.468,527.399,290.709,533.959,290.709z M533.959,309.346
			c3.559,0,6.438-2.8,6.438-7.799s-2.88-7.838-6.438-7.838c-3.56,0-6.439,2.839-6.439,7.838S530.399,309.346,533.959,309.346z"/>
		<path fill="#333333" d="M550.08,305.346c0.119,3.04,2.799,4,5.559,4c2.12,0,4.999-0.48,4.999-3.08
			c0-5.319-13.518-1.72-13.518-9.678c0-4.159,4.079-5.879,7.719-5.879c4.64,0,8.158,1.439,8.479,6.479h-3.399
			c-0.2-2.639-2.6-3.479-4.799-3.479c-2.04,0-4.399,0.56-4.399,2.639c0,2.4,3.6,2.88,6.759,3.6c3.399,0.76,6.759,1.919,6.759,5.879
			c0,4.959-4.6,6.519-8.799,6.519c-4.639,0-8.559-1.88-8.758-6.999H550.08z"/>
		<path fill="#333333" d="M585.637,305.306c-0.92,4.6-4.159,7.039-8.838,7.039c-6.6,0-9.719-4.599-9.919-10.878
			c0-6.239,4.08-10.758,9.719-10.758c7.318,0,9.559,6.839,9.358,11.838h-15.478c-0.12,3.599,1.92,6.799,6.439,6.799
			c2.839,0,4.759-1.32,5.358-4.04H585.637z M582.357,299.547c-0.2-3.24-2.56-5.839-5.959-5.839c-3.52,0-5.719,2.639-5.919,5.839
			H582.357z"/>
		<path fill="#333333" d="M607.956,311.865h-3.399v-2.799h-0.08c-1.119,2.279-3.719,3.279-6.599,3.279
			c-6.358,0-9.519-5.039-9.519-10.878c0-5.839,3.12-10.758,9.438-10.758c2.08,0,5.199,0.8,6.679,3.239h0.08V283.31h3.399V311.865z
			 M598.358,309.346c4.599,0,6.318-3.959,6.318-7.799c0-4.039-1.84-7.838-6.519-7.838c-4.64,0-6.199,3.959-6.199,7.999
			C591.959,305.586,593.959,309.346,598.358,309.346z"/>
		<path fill="#333333" d="M638.357,297.828c-0.521-2.6-2.28-4.119-5.119-4.119c-4.92,0-6.439,3.919-6.439,8.079
			c0,3.839,1.72,7.559,6.039,7.559c3.319,0,5.239-1.88,5.679-5.039h3.479c-0.76,5.079-3.879,8.039-9.118,8.039
			c-6.319,0-9.679-4.359-9.679-10.558c0-6.199,3.2-11.078,9.759-11.078c4.719,0,8.398,2.199,8.918,7.119H638.357z"/>
		<path fill="#333333" d="M645.799,283.31h3.399v10.918h0.08c1.08-2.52,4.079-3.519,6.519-3.519c5.439,0,7.119,3.119,7.119,7.559
			v13.598h-3.399v-13.998c0-2.56-1.6-4.159-4.199-4.159c-4.119,0-6.119,2.759-6.119,6.479v11.678h-3.399V283.31z"/>
		<path fill="#333333" d="M686.356,311.785c-0.601,0.36-1.44,0.56-2.44,0.56c-1.76,0-2.879-0.96-2.879-3.2
			c-1.88,2.24-4.399,3.2-7.279,3.2c-3.759,0-6.839-1.64-6.839-5.799c0-4.679,3.479-5.719,6.999-6.359
			c3.72-0.76,6.959-0.44,6.959-3.039c0-3-2.479-3.439-4.6-3.439c-2.879,0-4.999,0.88-5.159,3.919h-3.399
			c0.2-5.119,4.12-6.918,8.759-6.918c3.72,0,7.759,0.84,7.759,5.679v10.638c0,1.6,0,2.32,1.08,2.32c0.319,0,0.68-0.08,1.04-0.2
			V311.785z M680.837,301.187c-2.64,1.959-10.318,0.04-10.318,5.119c0,2.24,1.92,3.04,3.999,3.04c4.479,0,6.319-2.76,6.319-4.679
			V301.187z"/>
		<path fill="#333333" d="M689.519,291.188h3.199v3.28h0.08c1.439-2.56,3.72-3.759,6.719-3.759c5.439,0,7.119,3.119,7.119,7.559
			v13.598h-3.399v-13.998c0-2.56-1.6-4.159-4.199-4.159c-4.119,0-6.119,2.759-6.119,6.479v11.678h-3.399V291.188z"/>
		<path fill="#333333" d="M729.596,310.105c0,6.759-3.039,10.158-9.599,10.158c-3.879,0-8.358-1.6-8.559-6.079h3.399
			c0.12,2.439,3.16,3.359,5.359,3.359c4.439,0,6.199-3.2,6.199-7.839v-1.36h-0.08c-1.16,2.52-3.8,3.759-6.439,3.759
			c-6.158,0-9.238-4.839-9.238-10.478c0-4.879,2.36-10.918,9.559-10.918c2.6,0,4.919,1.16,6.159,3.439h0.04v-2.96h3.199V310.105z
			 M726.236,301.107c0-3.639-1.6-7.398-5.879-7.398c-4.359,0-6.119,3.559-6.119,7.519c0,3.719,1.359,7.878,5.839,7.878
			S726.236,304.986,726.236,301.107z"/>
		<path fill="#333333" d="M752.355,305.306c-0.92,4.6-4.159,7.039-8.838,7.039c-6.6,0-9.719-4.599-9.919-10.878
			c0-6.239,4.08-10.758,9.719-10.758c7.318,0,9.559,6.839,9.358,11.838h-15.478c-0.12,3.599,1.92,6.799,6.439,6.799
			c2.839,0,4.759-1.32,5.358-4.04H752.355z M749.076,299.547c-0.2-3.24-2.56-5.839-5.959-5.839c-3.52,0-5.719,2.639-5.919,5.839
			H749.076z"/>
	</g>
</g>
<path fill="#1365A8" d="M1663.978,316.223c93.52,0,169.336,75.807,169.336,169.332c0,93.527-75.816,169.346-169.336,169.346
	c-93.525,0-169.342-75.818-169.342-169.346C1494.636,392.029,1570.452,316.223,1663.978,316.223"/>
<g>
	<polygon fill="#FFFFFF" points="1756.879,598.11 1756.879,469.798 1756.879,405.466 1710.783,359.372 1582.192,359.372 
		1582.192,406.997 1582.192,469.798 1582.192,598.11 	"/>
	<polygon fill="#C2D64C" points="1710.783,405.466 1756.879,405.466 1710.783,359.372 	"/>
	<polygon fill="#D1ECFB" points="1756.879,405.468 1710.783,405.468 1756.879,451.563 	"/>
	<rect x="1615.269" y="414.042" fill="#15B0BF" width="53.456" height="4.361"/>
	<g>
		<rect x="1615.269" y="435.509" fill="#A6DAE9" width="108.53" height="4.363"/>
		<rect x="1615.269" y="449.218" fill="#A6DAE9" width="108.53" height="4.359"/>
		<rect x="1615.269" y="462.926" fill="#A6DAE9" width="108.53" height="4.36"/>
		<rect x="1615.269" y="476.631" fill="#A6DAE9" width="108.53" height="4.365"/>
		<rect x="1615.269" y="490.337" fill="#A6DAE9" width="108.53" height="4.363"/>
		<rect x="1615.269" y="504.047" fill="#A6DAE9" width="108.53" height="4.363"/>
		<rect x="1615.269" y="517.756" fill="#A6DAE9" width="108.53" height="4.361"/>
	</g>
</g>
<path fill="#1365A8" d="M312.315,189.373c51.883,0,93.946,42.057,93.946,93.944c0,51.889-42.062,93.951-93.946,93.951
	c-51.888,0-93.951-42.062-93.951-93.951C218.365,231.43,260.427,189.373,312.315,189.373"/>
<g>
	<polygon fill-rule="evenodd" clip-rule="evenodd" fill="#DAE1E6" points="341.571,227.275 340.198,225.902 340.228,225.902 	"/>
	<path fill-rule="evenodd" clip-rule="evenodd" fill="#BDC3C7" d="M355.837,324.817l-69.587-0.03c-3.662,0-6.638-2.976-6.638-6.638
		l0.046-96.55c0-3.654,2.982-6.638,6.638-6.638l47.432,0.022l28.778,28.809l-0.016,74.402
		C362.491,321.857,359.5,324.833,355.837,324.817z"/>
	<polygon fill-rule="evenodd" clip-rule="evenodd" fill="#95A5A6" points="352.329,233.6 362.506,243.792 362.491,268.695 
		335.727,241.901 	"/>
	<path fill-rule="evenodd" clip-rule="evenodd" fill="#C0C0C0" d="M355.837,324.817h-13.03l0.03-60.074l19.653,19.692v33.76
		C362.491,321.857,359.5,324.833,355.837,324.817z"/>
	<path fill-rule="evenodd" clip-rule="evenodd" fill="#DAE1E6" d="M362.506,243.792l-22.141-0.007c-3.662,0-6.653-2.983-6.653-6.646
		l0.016-22.156L362.506,243.792z"/>
	<polygon fill-rule="evenodd" clip-rule="evenodd" fill="#DAE1E6" points="321.872,248.218 320.514,246.844 320.544,246.844 	"/>
	<path fill-rule="evenodd" clip-rule="evenodd" fill="#DAE1E6" d="M336.154,345.783l-69.588-0.03
		c-3.654-0.016-6.645-2.991-6.645-6.653l0.046-96.55c0.007-3.662,2.99-6.646,6.652-6.646l47.417,0.023l28.801,28.815l-0.046,74.387
		C342.792,342.792,339.816,345.783,336.154,345.783z"/>
	<polygon fill-rule="evenodd" clip-rule="evenodd" fill="#B3B3B3" points="332.644,254.535 342.837,264.743 342.807,289.645 
		316.05,262.843 	"/>
	<path fill-rule="evenodd" clip-rule="evenodd" fill="#ECF0F1" d="M342.837,264.736l-22.171-0.008c-3.647,0-6.638-2.983-6.638-6.646
		l0.008-22.155L342.837,264.736z"/>
</g>
<g>
	<g>
		<path fill="#333333" d="M456.398,495.114c0,3.839-2.039,7.798-8.438,7.798c-5.319,0-8.318-2.919-8.318-8.318v-1.76h3.8v1.2
			c0,3.319,0.879,5.679,4.599,5.679c3.479,0,4.56-2,4.56-5.159v-20.876h3.799V495.114z"/>
		<path fill="#333333" d="M479.198,502.232h-3.199v-3.279h-0.08c-1.44,2.56-3.72,3.76-6.719,3.76c-5.439,0-7.119-3.12-7.119-7.559
			v-13.598h3.399v13.998c0,2.56,1.6,4.159,4.199,4.159c4.119,0,6.119-2.76,6.119-6.479v-11.678h3.399V502.232z"/>
		<path fill="#333333" d="M486.401,495.713c0.119,3.04,2.799,4,5.559,4c2.12,0,4.999-0.48,4.999-3.08
			c0-5.319-13.518-1.72-13.518-9.678c0-4.159,4.079-5.879,7.719-5.879c4.64,0,8.158,1.439,8.479,6.479h-3.399
			c-0.2-2.639-2.6-3.479-4.799-3.479c-2.04,0-4.399,0.56-4.399,2.639c0,2.4,3.6,2.88,6.759,3.6c3.399,0.76,6.759,1.919,6.759,5.879
			c0,4.959-4.6,6.52-8.799,6.52c-4.639,0-8.559-1.88-8.758-7H486.401z"/>
		<path fill="#333333" d="M509.04,481.556h4.12v3h-4.12v12.838c0,1.6,0.44,1.84,2.56,1.84h1.561v3h-2.6
			c-3.52,0-4.92-0.72-4.92-4.519v-13.158h-3.519v-3h3.519v-6.199h3.399V481.556z"/>
		<path fill="#333333" d="M520.521,477.836h-3.399v-4.159h3.399V477.836z M517.121,481.556h3.399v20.677h-3.399V481.556z"/>
		<path fill="#333333" d="M527.199,484.555h-3.479v-3h3.479v-3.079c0-3.359,2-5.119,5.72-5.119c0.64,0,1.56,0.12,2.199,0.32v2.959
			c-0.6-0.2-1.319-0.28-1.92-0.28c-1.64,0-2.6,0.52-2.6,2.319v2.879h4v3h-4v17.677h-3.399V484.555z M537.838,477.836v-4.159h3.399
			v4.159H537.838z M537.838,502.232v-20.677h3.399v20.677H537.838z"/>
		<path fill="#333333" d="M560.558,488.195c-0.521-2.6-2.28-4.119-5.119-4.119c-4.92,0-6.439,3.919-6.439,8.079
			c0,3.839,1.72,7.559,6.039,7.559c3.319,0,5.239-1.88,5.679-5.039h3.479c-0.76,5.079-3.879,8.039-9.118,8.039
			c-6.319,0-9.679-4.36-9.679-10.559c0-6.199,3.2-11.078,9.759-11.078c4.719,0,8.398,2.199,8.918,7.119H560.558z"/>
		<path fill="#333333" d="M586.316,502.152c-0.601,0.359-1.44,0.561-2.44,0.561c-1.76,0-2.879-0.961-2.879-3.2
			c-1.88,2.239-4.399,3.2-7.279,3.2c-3.759,0-6.839-1.641-6.839-5.8c0-4.679,3.479-5.719,6.999-6.359
			c3.72-0.76,6.959-0.44,6.959-3.039c0-3-2.479-3.439-4.6-3.439c-2.879,0-4.999,0.88-5.159,3.919h-3.399
			c0.2-5.119,4.12-6.918,8.759-6.918c3.72,0,7.759,0.84,7.759,5.679v10.638c0,1.6,0,2.32,1.08,2.32c0.319,0,0.68-0.08,1.04-0.2
			V502.152z M580.797,491.554c-2.64,1.959-10.318,0.04-10.318,5.119c0,2.24,1.92,3.04,3.999,3.04c4.479,0,6.319-2.76,6.319-4.679
			V491.554z"/>
		<path fill="#333333" d="M594.197,481.556h4.12v3h-4.12v12.838c0,1.6,0.44,1.84,2.56,1.84h1.561v3h-2.6
			c-3.52,0-4.92-0.72-4.92-4.519v-13.158h-3.519v-3h3.519v-6.199h3.399V481.556z"/>
		<path fill="#333333" d="M605.678,477.836h-3.399v-4.159h3.399V477.836z M602.278,481.556h3.399v20.677h-3.399V481.556z"/>
		<path fill="#333333" d="M619.877,481.076c6.559,0,10.038,4.759,10.038,10.838c0,6.039-3.479,10.799-10.038,10.799
			c-6.56,0-10.039-4.76-10.039-10.799C609.838,485.835,613.317,481.076,619.877,481.076z M619.877,499.713
			c3.559,0,6.438-2.8,6.438-7.799s-2.88-7.838-6.438-7.838c-3.56,0-6.439,2.839-6.439,7.838S616.317,499.713,619.877,499.713z"/>
		<path fill="#333333" d="M633.918,481.556h3.199v3.28h0.08c1.439-2.56,3.72-3.759,6.719-3.759c5.439,0,7.119,3.119,7.119,7.559
			v13.598h-3.399v-13.998c0-2.56-1.6-4.159-4.199-4.159c-4.119,0-6.119,2.759-6.119,6.479v11.678h-3.399V481.556z"/>
		<path fill="#333333" d="M668.678,484.555h-3.479v-3h3.479v-3.079c0-3.359,2-5.119,5.72-5.119c0.64,0,1.56,0.12,2.199,0.32v2.959
			c-0.6-0.2-1.319-0.28-1.92-0.28c-1.64,0-2.6,0.52-2.6,2.319v2.879h4v3h-4v17.677h-3.399V484.555z"/>
		<path fill="#333333" d="M688.037,481.076c6.559,0,10.038,4.759,10.038,10.838c0,6.039-3.479,10.799-10.038,10.799
			c-6.56,0-10.039-4.76-10.039-10.799C677.998,485.835,681.478,481.076,688.037,481.076z M688.037,499.713
			c3.559,0,6.438-2.8,6.438-7.799s-2.88-7.838-6.438-7.838c-3.56,0-6.439,2.839-6.439,7.838S684.478,499.713,688.037,499.713z"/>
		<path fill="#333333" d="M701.958,481.556h3.199v4.359h0.08c1.64-3.359,3.92-4.959,7.599-4.839v3.599
			c-5.479,0-7.479,3.08-7.479,8.359v9.198h-3.399V481.556z"/>
		<path fill="#333333" d="M455.359,538.195c-0.521-2.6-2.28-4.119-5.119-4.119c-4.92,0-6.439,3.918-6.439,8.078
			c0,3.84,1.72,7.559,6.039,7.559c3.319,0,5.239-1.88,5.679-5.039h3.479c-0.76,5.079-3.879,8.039-9.118,8.039
			c-6.319,0-9.679-4.359-9.679-10.559s3.2-11.078,9.759-11.078c4.719,0,8.398,2.199,8.918,7.119H455.359z"/>
		<path fill="#333333" d="M462.801,523.678h3.399v10.918h0.08c1.08-2.52,4.079-3.52,6.519-3.52c5.439,0,7.119,3.119,7.119,7.559
			v13.598h-3.399v-13.998c0-2.559-1.6-4.158-4.199-4.158c-4.119,0-6.119,2.759-6.119,6.479v11.678h-3.399V523.678z"/>
		<path fill="#333333" d="M503.358,552.152c-0.601,0.359-1.44,0.561-2.44,0.561c-1.76,0-2.879-0.961-2.879-3.2
			c-1.88,2.239-4.399,3.2-7.279,3.2c-3.759,0-6.839-1.641-6.839-5.8c0-4.679,3.479-5.719,6.999-6.358
			c3.72-0.76,6.959-0.44,6.959-3.039c0-3-2.479-3.439-4.6-3.439c-2.879,0-4.999,0.879-5.159,3.918h-3.399
			c0.2-5.119,4.12-6.918,8.759-6.918c3.72,0,7.759,0.84,7.759,5.679v10.638c0,1.601,0,2.32,1.08,2.32c0.319,0,0.68-0.08,1.04-0.2
			V552.152z M497.839,541.555c-2.64,1.959-10.318,0.039-10.318,5.119c0,2.239,1.92,3.039,3.999,3.039c4.479,0,6.319-2.76,6.319-4.68
			V541.555z"/>
		<path fill="#333333" d="M506.521,531.556h3.199v3.28h0.08c1.439-2.561,3.72-3.76,6.719-3.76c5.439,0,7.119,3.119,7.119,7.559
			v13.598h-3.399v-13.998c0-2.559-1.6-4.158-4.199-4.158c-4.119,0-6.119,2.759-6.119,6.479v11.678h-3.399V531.556z"/>
		<path fill="#333333" d="M546.598,550.473c0,6.759-3.039,10.158-9.599,10.158c-3.879,0-8.358-1.6-8.559-6.078h3.399
			c0.12,2.439,3.16,3.359,5.359,3.359c4.439,0,6.199-3.2,6.199-7.84v-1.359h-0.08c-1.16,2.52-3.8,3.76-6.439,3.76
			c-6.158,0-9.238-4.84-9.238-10.479c0-4.879,2.36-10.918,9.559-10.918c2.6,0,4.919,1.16,6.159,3.439h0.04v-2.96h3.199V550.473z
			 M543.238,541.475c0-3.64-1.6-7.398-5.879-7.398c-4.359,0-6.119,3.559-6.119,7.518c0,3.72,1.359,7.879,5.839,7.879
			S543.238,545.354,543.238,541.475z"/>
		<path fill="#333333" d="M569.357,545.674c-0.92,4.6-4.159,7.039-8.838,7.039c-6.6,0-9.719-4.6-9.919-10.879
			c0-6.238,4.08-10.758,9.719-10.758c7.318,0,9.559,6.839,9.358,11.838H554.2c-0.12,3.6,1.92,6.799,6.439,6.799
			c2.839,0,4.759-1.32,5.358-4.039H569.357z M566.078,539.914c-0.2-3.239-2.56-5.838-5.959-5.838c-3.52,0-5.719,2.639-5.919,5.838
			H566.078z"/>
	</g>
</g>
<path fill="#1365A8" d="M312.315,429.74c51.883,0,93.946,42.057,93.946,93.944c0,51.889-42.062,93.951-93.946,93.951
	c-51.888,0-93.951-42.062-93.951-93.951C218.365,471.797,260.427,429.74,312.315,429.74"/>
<g>
	<path fill-rule="evenodd" clip-rule="evenodd" fill="#2C3E50" d="M306.316,529.054c-16.844,16.852-39.752-9.927-24.843-24.843
		c1.299-1.292,3.41-1.292,4.703,0l0.873,0.874l16.505-16.513l7.769-7.762l-0.865-0.873c-1.3-1.293-1.3-3.411,0-4.704
		c14.996-15.001,41.605,8.073,24.849,24.844c-1.3,1.292-3.411,1.292-4.711,0l0.461,0.467l-5.549,5.542l-18.732,18.732l-0.419-0.427
		C307.615,525.691,307.587,527.769,306.316,529.054z"/>
	<path fill-rule="evenodd" clip-rule="evenodd" fill="#3D566E" d="M279.158,524.669c-3.552-6.267-3.783-14.36,2.315-20.458
		c1.299-1.292,3.41-1.292,4.703,0l0.873,0.874l16.505-16.513l7.769-7.762l-0.865-0.873c-1.3-1.293-1.3-3.411,0-4.704
		c6.144-6.138,14.211-5.9,20.477-2.32L279.158,524.669z"/>
	<path fill-rule="evenodd" clip-rule="evenodd" fill="#2C3E50" d="M323.369,510.653c4.845,4.454,38.331,36.74,47.967,47.662
		c7.755,8.759,1.583,14.063-6.253,7.377c-10.693-9.123-43.771-43.655-48.183-48.556L323.369,510.653z"/>
	<path fill-rule="evenodd" clip-rule="evenodd" fill="#F39C12" d="M265.976,545.933h56.284c3.491,0,6.361,2.489,6.632,5.737
		l0.541,6.578h-70.569l0.474-6.523C259.574,548.449,262.47,545.933,265.976,545.933z"/>
	<path fill-rule="evenodd" clip-rule="evenodd" fill="#2C3E50" d="M265.976,545.933h56.284c3.491,0,6.361,2.489,6.632,5.737v0.055
		h-69.555C259.574,548.449,262.47,545.933,265.976,545.933z"/>
	<path fill-rule="evenodd" clip-rule="evenodd" fill="#3D566E" d="M265.976,545.933h56.284c2.436,0,4.574,1.218,5.725,3.059h-67.741
		C261.401,547.15,263.546,545.933,265.976,545.933z"/>
	<polygon fill-rule="evenodd" clip-rule="evenodd" fill="#F39C12" points="328.783,505.248 311.485,522.545 288.179,499.238 
		305.477,481.934 	"/>
	<polygon fill-rule="evenodd" clip-rule="evenodd" fill="#FACC4D" points="313.691,490.149 296.381,507.446 288.179,499.238 
		305.477,481.934 	"/>
	<path fill-rule="evenodd" clip-rule="evenodd" fill="#2C3E50" d="M335.4,568.413l-0.365-8.622
		c-0.149-3.316-2.869-5.928-6.198-5.928h-69.352c-3.323,0-6.051,2.611-6.192,5.928l-0.373,8.622H335.4z"/>
	<path fill-rule="evenodd" clip-rule="evenodd" fill="#3D566E" d="M334.169,556.908c-1.083-1.827-3.072-3.045-5.332-3.045h-69.352
		c-2.267,0-4.257,1.218-5.339,3.045H334.169z"/>
	<polygon fill-rule="evenodd" clip-rule="evenodd" fill="#F39C12" points="307.832,523.77 306.775,524.818 287.049,505.085 
		288.091,504.05 	"/>
	<polygon fill-rule="evenodd" clip-rule="evenodd" fill="#F39C12" points="331.057,500.544 330.014,501.579 310.295,481.852 
		311.323,480.811 	"/>
</g>
<g>
	<g>
		<path fill="#333333" d="M441.881,725.053h13.438c5.398,0,8.678,2.88,8.678,7.479c0,3.48-1.479,6.279-4.959,7.239v0.08
			c3.319,0.64,3.96,3.12,4.279,5.879c0.2,2.76,0.08,5.96,1.68,7.879h-4.239c-1.08-1.159-0.479-4.239-1.04-7.038
			c-0.439-2.76-1.079-5.16-4.759-5.16h-9.278v12.198h-3.8V725.053z M453.6,738.211c3.519,0,6.599-0.92,6.599-5.079
			c0-2.839-1.52-4.88-5.079-4.88h-9.438v9.959H453.6z"/>
		<path fill="#333333" d="M486.358,747.049c-0.92,4.6-4.159,7.039-8.838,7.039c-6.6,0-9.719-4.599-9.919-10.878
			c0-6.239,4.08-10.758,9.719-10.758c7.318,0,9.559,6.839,9.358,11.838h-15.478c-0.12,3.599,1.92,6.799,6.439,6.799
			c2.839,0,4.759-1.319,5.358-4.04H486.358z M483.079,741.291c-0.2-3.24-2.56-5.84-5.959-5.84c-3.52,0-5.719,2.64-5.919,5.84
			H483.079z"/>
		<path fill="#333333" d="M508.678,761.527h-3.399v-10.719h-0.08c-1.119,2.279-3.719,3.279-6.599,3.279
			c-6.358,0-9.519-5.039-9.519-10.878s3.12-10.758,9.438-10.758c2.08,0,5.199,0.8,6.679,3.239h0.08v-2.76h3.399V761.527z
			 M499.08,751.089c4.599,0,6.318-3.96,6.318-7.799c0-4.039-1.84-7.839-6.519-7.839c-4.64,0-6.199,3.959-6.199,7.999
			C492.681,747.33,494.681,751.089,499.08,751.089z"/>
		<path fill="#333333" d="M531.038,753.608h-3.199v-3.279h-0.08c-1.44,2.56-3.72,3.759-6.719,3.759
			c-5.439,0-7.119-3.119-7.119-7.559v-13.598h3.399v13.998c0,2.56,1.6,4.159,4.199,4.159c4.119,0,6.119-2.76,6.119-6.479v-11.678
			h3.399V753.608z"/>
		<path fill="#333333" d="M553.798,747.049c-0.92,4.6-4.159,7.039-8.838,7.039c-6.6,0-9.719-4.599-9.919-10.878
			c0-6.239,4.08-10.758,9.719-10.758c7.318,0,9.559,6.839,9.358,11.838h-15.478c-0.12,3.599,1.92,6.799,6.439,6.799
			c2.839,0,4.759-1.319,5.358-4.04H553.798z M550.519,741.291c-0.2-3.24-2.56-5.84-5.959-5.84c-3.52,0-5.719,2.64-5.919,5.84
			H550.519z"/>
		<path fill="#333333" d="M559.721,747.09c0.119,3.039,2.799,3.999,5.559,3.999c2.12,0,4.999-0.479,4.999-3.079
			c0-5.319-13.518-1.721-13.518-9.679c0-4.159,4.079-5.879,7.719-5.879c4.64,0,8.158,1.439,8.479,6.479h-3.399
			c-0.2-2.64-2.6-3.479-4.799-3.479c-2.04,0-4.399,0.561-4.399,2.64c0,2.399,3.6,2.88,6.759,3.6c3.399,0.76,6.759,1.919,6.759,5.879
			c0,4.96-4.6,6.519-8.799,6.519c-4.639,0-8.559-1.879-8.758-6.998H559.721z"/>
		<path fill="#333333" d="M582.359,732.932h4.12v3h-4.12v12.838c0,1.6,0.44,1.84,2.56,1.84h1.561v2.999h-2.6
			c-3.52,0-4.92-0.72-4.92-4.519v-13.158h-3.519v-3h3.519v-6.199h3.399V732.932z"/>
		<path fill="#333333" d="M607.877,747.049c-0.92,4.6-4.159,7.039-8.838,7.039c-6.6,0-9.719-4.599-9.919-10.878
			c0-6.239,4.08-10.758,9.719-10.758c7.318,0,9.559,6.839,9.358,11.838H592.72c-0.12,3.599,1.92,6.799,6.439,6.799
			c2.839,0,4.759-1.319,5.358-4.04H607.877z M604.598,741.291c-0.2-3.24-2.56-5.84-5.959-5.84c-3.52,0-5.719,2.64-5.919,5.84
			H604.598z"/>
		<path fill="#333333" d="M630.196,753.608h-3.399v-2.8h-0.08c-1.119,2.279-3.719,3.279-6.599,3.279
			c-6.358,0-9.519-5.039-9.519-10.878s3.12-10.758,9.438-10.758c2.08,0,5.199,0.8,6.679,3.239h0.08v-10.639h3.399V753.608z
			 M620.599,751.089c4.599,0,6.318-3.96,6.318-7.799c0-4.039-1.84-7.839-6.519-7.839c-4.64,0-6.199,3.959-6.199,7.999
			C614.199,747.33,616.199,751.089,620.599,751.089z"/>
		<path fill="#333333" d="M458.958,797.049c-0.92,4.6-4.159,7.039-8.838,7.039c-6.6,0-9.719-4.599-9.919-10.878
			c0-6.239,4.08-10.758,9.719-10.758c7.318,0,9.559,6.839,9.358,11.838h-15.478c-0.12,3.599,1.92,6.799,6.439,6.799
			c2.839,0,4.759-1.319,5.358-4.04H458.958z M455.679,791.291c-0.2-3.24-2.56-5.84-5.959-5.84c-3.52,0-5.719,2.64-5.919,5.84
			H455.679z"/>
		<path fill="#333333" d="M464.2,785.932h-3.479v-3h3.479v-3.079c0-3.359,2-5.119,5.72-5.119c0.64,0,1.56,0.12,2.199,0.319v2.96
			c-0.6-0.2-1.319-0.28-1.92-0.28c-1.64,0-2.6,0.52-2.6,2.32v2.879h4v3h-4v17.677H464.2V785.932z"/>
		<path fill="#333333" d="M476.04,785.932h-3.479v-3h3.479v-3.079c0-3.359,2-5.119,5.72-5.119c0.64,0,1.56,0.12,2.199,0.319v2.96
			c-0.6-0.2-1.319-0.28-1.92-0.28c-1.64,0-2.6,0.52-2.6,2.32v2.879h4v3h-4v17.677h-3.399V785.932z"/>
		<path fill="#333333" d="M504.117,797.049c-0.92,4.6-4.159,7.039-8.838,7.039c-6.6,0-9.719-4.599-9.919-10.878
			c0-6.239,4.08-10.758,9.719-10.758c7.318,0,9.559,6.839,9.358,11.838H488.96c-0.12,3.599,1.92,6.799,6.439,6.799
			c2.839,0,4.759-1.319,5.358-4.04H504.117z M500.838,791.291c-0.2-3.24-2.56-5.84-5.959-5.84c-3.52,0-5.719,2.64-5.919,5.84
			H500.838z"/>
		<path fill="#333333" d="M521.998,789.57c-0.521-2.6-2.28-4.119-5.119-4.119c-4.92,0-6.439,3.92-6.439,8.079
			c0,3.839,1.72,7.559,6.039,7.559c3.319,0,5.239-1.88,5.679-5.039h3.479c-0.76,5.079-3.879,8.038-9.118,8.038
			c-6.319,0-9.679-4.359-9.679-10.558c0-6.199,3.2-11.078,9.759-11.078c4.719,0,8.398,2.199,8.918,7.118H521.998z"/>
		<path fill="#333333" d="M534.158,782.932h4.12v3h-4.12v12.838c0,1.6,0.44,1.84,2.56,1.84h1.561v2.999h-2.6
			c-3.52,0-4.92-0.72-4.92-4.519v-13.158h-3.519v-3h3.519v-6.199h3.399V782.932z"/>
		<path fill="#333333" d="M545.639,779.213h-3.399v-4.16h3.399V779.213z M542.239,782.932h3.399v20.677h-3.399V782.932z"/>
		<path fill="#333333" d="M560.237,803.608h-3.64l-7.679-20.677h3.8l5.799,17.237h0.08l5.639-17.237h3.56L560.237,803.608z"/>
		<path fill="#333333" d="M588.556,797.049c-0.92,4.6-4.159,7.039-8.838,7.039c-6.6,0-9.719-4.599-9.919-10.878
			c0-6.239,4.08-10.758,9.719-10.758c7.318,0,9.559,6.839,9.358,11.838h-15.478c-0.12,3.599,1.92,6.799,6.439,6.799
			c2.839,0,4.759-1.319,5.358-4.04H588.556z M585.276,791.291c-0.2-3.24-2.56-5.84-5.959-5.84c-3.52,0-5.719,2.64-5.919,5.84
			H585.276z"/>
		<path fill="#333333" d="M621.995,803.608h-3.399v-2.8h-0.08c-1.119,2.279-3.719,3.279-6.599,3.279
			c-6.358,0-9.519-5.039-9.519-10.878s3.12-10.758,9.438-10.758c2.08,0,5.199,0.8,6.679,3.239h0.08v-10.639h3.399V803.608z
			 M612.397,801.089c4.599,0,6.318-3.96,6.318-7.799c0-4.039-1.84-7.839-6.519-7.839c-4.64,0-6.199,3.959-6.199,7.999
			C605.998,797.33,607.998,801.089,612.397,801.089z"/>
		<path fill="#333333" d="M645.556,803.528c-0.601,0.36-1.44,0.56-2.44,0.56c-1.76,0-2.879-0.959-2.879-3.199
			c-1.88,2.24-4.399,3.199-7.279,3.199c-3.759,0-6.839-1.639-6.839-5.799c0-4.68,3.479-5.719,6.999-6.359
			c3.72-0.76,6.959-0.439,6.959-3.039c0-2.999-2.479-3.439-4.6-3.439c-2.879,0-4.999,0.881-5.159,3.92h-3.399
			c0.2-5.119,4.12-6.919,8.759-6.919c3.72,0,7.759,0.84,7.759,5.679v10.639c0,1.6,0,2.319,1.08,2.319c0.319,0,0.68-0.08,1.04-0.2
			V803.528z M640.036,792.93c-2.64,1.96-10.318,0.041-10.318,5.119c0,2.24,1.92,3.04,3.999,3.04c4.479,0,6.319-2.76,6.319-4.679
			V792.93z"/>
		<path fill="#333333" d="M653.437,782.932h4.12v3h-4.12v12.838c0,1.6,0.44,1.84,2.56,1.84h1.561v2.999h-2.6
			c-3.52,0-4.92-0.72-4.92-4.519v-13.158h-3.519v-3h3.519v-6.199h3.399V782.932z"/>
		<path fill="#333333" d="M678.954,797.049c-0.92,4.6-4.159,7.039-8.838,7.039c-6.6,0-9.719-4.599-9.919-10.878
			c0-6.239,4.08-10.758,9.719-10.758c7.318,0,9.559,6.839,9.358,11.838h-15.478c-0.12,3.599,1.92,6.799,6.439,6.799
			c2.839,0,4.759-1.319,5.358-4.04H678.954z M675.675,791.291c-0.2-3.24-2.56-5.84-5.959-5.84c-3.52,0-5.719,2.64-5.919,5.84
			H675.675z"/>
	</g>
</g>
<path fill="#1365A8" d="M312.315,681.116c51.883,0,93.946,42.058,93.946,93.944c0,51.889-42.062,93.951-93.946,93.951
	c-51.888,0-93.951-42.062-93.951-93.951C218.365,723.174,260.427,681.116,312.315,681.116"/>
<g>
	<polygon fill-rule="evenodd" clip-rule="evenodd" fill="#2E2E3D" points="265.575,728.223 265.575,759.157 359.243,759.157 
		359.243,728.223 347.491,728.223 	"/>
	<rect x="265.575" y="759.157" fill-rule="evenodd" clip-rule="evenodd" fill="#FFFFFF" width="93.668" height="70.716"/>
	<rect x="265.575" y="759.157" fill-rule="evenodd" clip-rule="evenodd" fill="#E6E6E6" width="46.842" height="70.716"/>
	<path fill-rule="evenodd" clip-rule="evenodd" fill="#26262E" d="M341.205,728.223v10.255c0,1.582,1.299,2.867,2.881,2.867
		c0.169,0,0.353,0,0.522,0c1.582,0,2.882-1.285,2.882-2.867v-10.255H341.205z"/>
	<path fill-rule="evenodd" clip-rule="evenodd" fill="#26262E" d="M280.957,728.223v10.255c0,1.582,1.3,2.867,2.882,2.867
		c0.169,0,0.353,0,0.522,0c1.582,0,2.882-1.285,2.882-2.867v-10.255H280.957z"/>
	<path fill-rule="evenodd" clip-rule="evenodd" fill="#626270" d="M282.737,719.026c-0.169,0-0.353,0-0.523,0
		c-1.582,0-2.881,1.285-2.881,2.882v14.889c0,1.582,1.3,2.882,2.881,2.882c0.17,0,0.354,0,0.523,0c1.582,0,2.881-1.3,2.881-2.882
		v-14.889C285.619,720.312,284.319,719.026,282.737,719.026z"/>
	<path fill-rule="evenodd" clip-rule="evenodd" fill="#626270" d="M342.984,719.026c-0.169,0-0.353,0-0.522,0
		c-1.582,0-2.882,1.285-2.882,2.882v14.889c0,1.582,1.3,2.882,2.882,2.882c0.169,0,0.354,0,0.522,0c1.583,0,2.882-1.3,2.882-2.882
		v-14.889C345.866,720.312,344.567,719.026,342.984,719.026z"/>
	<polygon fill-rule="evenodd" clip-rule="evenodd" fill="#2E2E3D" points="265.575,728.223 265.575,759.157 359.243,759.157 
		359.243,728.223 347.491,728.223 	"/>
	<rect x="265.575" y="759.157" fill-rule="evenodd" clip-rule="evenodd" fill="#FFFFFF" width="93.668" height="70.716"/>
	<rect x="265.575" y="759.157" fill-rule="evenodd" clip-rule="evenodd" fill="#E6E6E6" width="46.842" height="70.716"/>
	<path fill-rule="evenodd" clip-rule="evenodd" fill="#26262E" d="M341.205,728.223v10.255c0,1.582,1.299,2.867,2.881,2.867
		c0.169,0,0.353,0,0.522,0c1.582,0,2.882-1.285,2.882-2.867v-10.255H341.205z"/>
	<path fill-rule="evenodd" clip-rule="evenodd" fill="#26262E" d="M280.957,728.223v10.255c0,1.582,1.3,2.867,2.882,2.867
		c0.169,0,0.353,0,0.522,0c1.582,0,2.882-1.285,2.882-2.867v-10.255H280.957z"/>
	<path fill-rule="evenodd" clip-rule="evenodd" fill="#626270" d="M282.737,719.026c-0.169,0-0.353,0-0.523,0
		c-1.582,0-2.881,1.285-2.881,2.882v14.889c0,1.582,1.3,2.882,2.881,2.882c0.17,0,0.354,0,0.523,0c1.582,0,2.881-1.3,2.881-2.882
		v-14.889C285.619,720.312,284.319,719.026,282.737,719.026z"/>
	<path fill-rule="evenodd" clip-rule="evenodd" fill="#626270" d="M342.984,719.026c-0.169,0-0.353,0-0.522,0
		c-1.582,0-2.882,1.285-2.882,2.882v14.889c0,1.582,1.3,2.882,2.882,2.882c0.169,0,0.354,0,0.522,0c1.583,0,2.882-1.3,2.882-2.882
		v-14.889C345.866,720.312,344.567,719.026,342.984,719.026z"/>
	<polygon fill-rule="evenodd" clip-rule="evenodd" fill="#26262E" points="265.575,760.542 265.575,758.649 359.243,758.649 
		359.243,760.542 347.491,760.542 	"/>
	<g>
		<path fill-rule="evenodd" clip-rule="evenodd" fill="#343B4A" d="M327.065,773.128c-3.574,0-7.134,0-10.693,0
			c0,3.56,0,7.133,0,10.693c3.559,0,7.119,0,10.693,0C327.065,780.261,327.065,776.688,327.065,773.128z"/>
		<path fill-rule="evenodd" clip-rule="evenodd" fill="#DD2622" d="M308.446,773.128c-3.56,0-7.119,0-10.693,0
			c0,3.56,0,7.133,0,10.693c3.574,0,7.133,0,10.693,0C308.446,780.261,308.446,776.688,308.446,773.128z"/>
		<rect x="334.99" y="773.128" fill-rule="evenodd" clip-rule="evenodd" fill="#DD2622" width="10.679" height="10.693"/>
		<rect x="279.149" y="789.16" fill-rule="evenodd" clip-rule="evenodd" fill="#343B4A" width="10.693" height="10.694"/>
		<path fill-rule="evenodd" clip-rule="evenodd" fill="#DD2622" d="M327.065,789.16c-3.574,0-7.134,0-10.693,0
			c0,3.561,0,7.134,0,10.694c3.559,0,7.119,0,10.693,0C327.065,796.294,327.065,792.721,327.065,789.16z"/>
		<path fill-rule="evenodd" clip-rule="evenodd" fill="#343B4A" d="M308.446,789.16c-3.56,0-7.119,0-10.693,0
			c0,3.561,0,7.134,0,10.694c3.574,0,7.133,0,10.693,0C308.446,796.294,308.446,792.721,308.446,789.16z"/>
		<rect x="334.99" y="789.16" fill-rule="evenodd" clip-rule="evenodd" fill="#343B4A" width="10.679" height="10.694"/>
		<rect x="279.149" y="805.193" fill-rule="evenodd" clip-rule="evenodd" fill="#DD2622" width="10.693" height="10.694"/>
		<path fill-rule="evenodd" clip-rule="evenodd" fill="#343B4A" d="M327.065,805.193c-3.574,0-7.134,0-10.693,0
			c0,3.574,0,7.134,0,10.694c3.559,0,7.119,0,10.693,0C327.065,812.327,327.065,808.768,327.065,805.193z"/>
		<path fill-rule="evenodd" clip-rule="evenodd" fill="#343B4A" d="M308.446,805.193c-3.56,0-7.119,0-10.693,0
			c0,3.574,0,7.134,0,10.694c3.574,0,7.133,0,10.693,0C308.446,812.327,308.446,808.768,308.446,805.193z"/>
	</g>
</g>
<line fill="none" stroke="#074164" stroke-width="2" stroke-miterlimit="10" x1="779.603" y1="272.102" x2="961.094" y2="272.102"/>
<polyline fill="none" stroke="#074164" stroke-width="2" stroke-miterlimit="10" points="779.603,771.576 961.094,771.576 
	961.094,270.602 "/>
<g>
	<g>
		
			<line fill="none" stroke="#074164" stroke-width="2" stroke-miterlimit="10" x1="749.604" y1="488.091" x2="1464.399" y2="488.091"/>
		<g>
			<polygon fill="#074164" points="1457.772,496.271 1456.408,494.806 1463.632,488.093 1456.408,481.378 1457.772,479.914 
				1466.568,488.093 			"/>
		</g>
	</g>
</g>
</svg>
