<?xml version="1.0" encoding="utf-8"?>
<!-- Generator: Adobe Illustrator 19.2.0, SVG Export Plug-In . SVG Version: 6.00 Build 0)  -->
<svg version="1.1" xmlns="http://www.w3.org/2000/svg" xmlns:xlink="http://www.w3.org/1999/xlink" x="0px" y="0px"
	 viewBox="0 0 2048 1000" style="enable-background:new 0 0 2048 1000;" xml:space="preserve">
<style type="text/css">
	.st0{fill:#B9E5FB;}
	.st1{fill:#4EA8DE;}
	.st2{fill:#116BB4;}
	.st3{fill:#FFFFFF;}
	.st4{font-family:'HelveticaNeueLTPro-Bd';}
	.st5{font-size:46px;}
	.st6{fill:none;}
	.st7{fill:#89C240;}
	.st8{fill:#EFEFF0;}
	.st9{fill-rule:evenodd;clip-rule:evenodd;fill:#2C3E50;}
	.st10{clip-path:url(#SVGID_2_);}
	.st11{fill-rule:evenodd;clip-rule:evenodd;fill:#E3CCA4;}
	.st12{fill-rule:evenodd;clip-rule:evenodd;fill:#D4C5A3;}
	.st13{fill-rule:evenodd;clip-rule:evenodd;fill:#CCBC97;}
	.st14{fill-rule:evenodd;clip-rule:evenodd;fill:#ECF0F1;}
	.st15{fill-rule:evenodd;clip-rule:evenodd;fill:#7D7662;}
	.st16{fill-rule:evenodd;clip-rule:evenodd;fill:#FFE7BD;}
	.st17{fill-rule:evenodd;clip-rule:evenodd;fill:#E8D6AC;}
	.st18{fill:none;stroke:#343636;stroke-width:4;stroke-miterlimit:10;}
	.st19{fill:#231F20;}
	.st20{font-family:'HelveticaNeueLTPro-Md';}
	.st21{font-size:28px;}
	.st22{fill:#333333;}
	.st23{font-family:'HelveticaNeueLTPro-Roman';}
	.st24{font-size:24px;}
	.st25{fill:#8CC63F;}
	.st26{fill:#173E68;}
	.st27{clip-path:url(#SVGID_4_);}
	.st28{fill-rule:evenodd;clip-rule:evenodd;fill:#DAE1E6;}
	.st29{fill-rule:evenodd;clip-rule:evenodd;fill:#B3B3B3;}
	.st30{font-family:'HelveticaNeueLTPro-Lt';}
	.st31{font-size:26px;}
	.st32{font-family:'HelveticaNeue-Medium';}
	.st33{font-size:25px;}
	.st34{font-size:32px;}
	.st35{fill:#3A3A3C;}
	.st36{fill-rule:evenodd;clip-rule:evenodd;fill:#275B8B;}
	.st37{fill-rule:evenodd;clip-rule:evenodd;fill:#FFFFFF;}
	.st38{fill-rule:evenodd;clip-rule:evenodd;fill:#F8F8F9;}
	.st39{fill-rule:evenodd;clip-rule:evenodd;fill:#666666;}
	.st40{fill-rule:evenodd;clip-rule:evenodd;fill:#3A3A3C;}
	.st41{fill-rule:evenodd;clip-rule:evenodd;fill:none;}
	.st42{font-family:'FontAwesome';}
	.st43{font-size:22px;}
	.st44{fill:#275B8B;}
</style>
<g id="Layer_1">
	<rect y="0" class="st0" width="2048" height="1000"/>
	<rect x="1" y="0" class="st1" width="689.1" height="1000"/>
	<rect x="1" y="638.3" class="st2" width="689.1" height="360.6"/>
	<text transform="matrix(1 0 0 1 62.2469 110.3976)" class="st3 st4 st5">Who</text>
	<rect x="-769.6" y="61.9" class="st6" width="511.5" height="792"/>
	<rect x="-819.9" y="61.9" class="st6" width="612" height="792"/>
	<path class="st3" d="M597.6,425.9H72.2c-5.5,0-10-4.5-10-10V172.1c0-5.5,4.5-10,10-10h525.4c5.5,0,10,4.5,10,10v243.8
		C607.6,421.4,603.1,425.9,597.6,425.9z"/>
	<path class="st7" d="M202.1,325.2h-95.7c-5.5,0-10-4.5-10-10V207.3c0-5.5,4.5-10,10-10h95.7c5.5,0,10,4.5,10,10v107.9
		C212.1,320.7,207.6,325.2,202.1,325.2z"/>
	<path class="st8" d="M598.7,162.1H262.5v263.8h336.2c4.9,0,8.9-4,8.9-8.9V171C607.6,166.1,603.6,162.1,598.7,162.1z"/>
	<path class="st3" d="M597.6,713.9H72.2c-5.5,0-10-4.5-10-10V460.1c0-5.5,4.5-10,10-10h525.4c5.5,0,10,4.5,10,10v243.8
		C607.6,709.4,603.1,713.9,597.6,713.9z"/>
	<path class="st8" d="M598.7,450.1H262.5v263.8h336.2c4.9,0,8.9-4,8.9-8.9V459C607.6,454.1,603.6,450.1,598.7,450.1z"/>
	<path class="st9" d="M139.6,271.5h6c1,0,1.9,0.7,2.2,1.6c5.9-1,10.3-3.7,13.6-7.5c2.8-3.2,4.6-7.2,5.8-11.6l-1.3-0.1l1.1-14.7
		l0.1-1.9l5,0.3l-0.2,2.8l1.7,0.1l-0.8,11.1l-1.7-0.1l-0.2,2.8l-1.9-0.1c-1.2,4.7-3.2,9.1-6.2,12.6c-3.5,4.1-8.4,7.1-14.8,8.1v0
		c0,1.3-1.1,2.4-2.4,2.4h-6c-1.3,0-2.4-1.1-2.4-2.4v-1C137.2,272.5,138.3,271.5,139.6,271.5z"/>
	<g>
		<defs>
			<path id="SVGID_1_" d="M202.1,325.2h-95.7c-5.5,0-10-4.5-10-10V207.3c0-5.5,4.5-10,10-10h95.7c5.5,0,10,4.5,10,10v107.9
				C212.1,320.7,207.6,325.2,202.1,325.2z"/>
		</defs>
		<clipPath id="SVGID_2_">
			<use xlink:href="#SVGID_1_"  style="overflow:visible;"/>
		</clipPath>
		<g class="st10">
			<path class="st11" d="M140.7,254.9h26.1l2.8,32.4c0.2,2.3,2,4,4.2,4l0.5,0l-6.8,6.4l-13.4,19.5l-13.3-19.9l-7-6l1-0.2
				c2-0.3,3.5-2,3.7-4.1L140.7,254.9z"/>
			<path class="st12" d="M154.1,317.3L154.1,317.3l-13.3-19.9l-7-6l1-0.2c2-0.3,3.5-2,3.7-4.1l1.9-25.9h13.8V317.3z"/>
			<path class="st13" d="M139.1,277.7l29.7,0.1l0.1,1.4c-0.5,0.8-0.8,1.3-1.3,2.1c-3.8,5.7-8.8,9.5-13.6,9.5
				c-4.8,0-9.8-3.9-13.6-9.5c-0.6-0.9-1-1.5-1.5-2.4L139.1,277.7z"/>
			<path class="st14" d="M130,291.5l6.9-1.3l6.9,2.8c1.2,0.5,2,1.3,2.5,2.5l7.8,17.1l7.8-17.9c0.5-1.1,1.4-1.8,2.5-2.3l6.5-2.4
				l6,1.3l4.4,1.3l7.5,42.8h-69.3l6.5-42.3L130,291.5z"/>
			<path class="st9" d="M196.3,327.8c0.1-15.5-1-31.9-19.1-36.4c1.5,2.9,0.4,5.4,3.3,13.6l-13.7-7.6c-4.3,10.4-8.7,20.9-13,31.3
				l-13-31.3l-13.7,7.6c2.9-8,1.9-10.7,3.2-13.5c-17.4,4.8-18.5,21-18.4,36.2c0,4.2,3.4,7.7,7.5,7.7c23.1,0,46.2,0,69.3,0
				C192.9,335.4,196.3,332,196.3,327.8z"/>
			<path class="st15" d="M134,276.5c-29.4-47.7,16.5-65.7,18.3-59.1c0.5,1.7,0.6,0.9,1.7,0.1c14-9.9,44.6,21.8,20,59.3
				c-1.6,0.4-3.5,0.8-5.6,1.1l-0.1,0.2c1.8-2.5,3.4-5.4,4.6-8.7l0,0c0.6-1.9,1.2-4,1.7-6c0.5-2.1,0.8-4.2,1.1-6.2h0
				c0.1-0.9,0.1-1.7,0.2-2.6c0-0.8,0.1-1.7,0.1-2.7c0-0.7,0-1.3,0-1.7c0-0.5,0-1-0.1-1.6c-0.5-4.5-6.6-5.5-13.2-6.6
				c-7.7-1.3-15.9-2.6-19.2-9.5l-0.1,0c-3.3,2.8-9.4,8.1-10.7,17.9c-0.1,0.9-0.2,1.8-0.2,2.7c0,0.9,0,1.9,0,2.9h0
				c0.7,8.6,3.3,16.2,7.2,21.7C137.5,277.4,135.6,277,134,276.5z"/>
			<path class="st16" d="M172.9,269.4c0.6-1.9,1.2-4,1.7-6c0.5-2.1,0.8-4.2,1.1-6.2h0c0.1-0.9,0.1-1.7,0.2-2.6
				c0-0.8,0.1-1.7,0.1-2.7c0-0.7,0-1.3,0-1.7c0-0.5,0-1-0.1-1.6c-0.5-4.5-6.6-5.5-13.2-6.6c-7.7-1.3-15.9-2.6-19.2-9.5l-0.1,0
				c-3.3,2.8-9.5,8.1-10.7,17.9c-0.1,0.9-0.2,1.8-0.2,2.7c0,0.9,0,1.9,0,2.9h0c0.7,8.7,3.4,16.5,7.4,22h0c3.8,5.2,8.8,8.4,14.2,8.4
				c3.8,0,7.4-1.6,10.6-4.4l0,0C168.1,279,170.9,274.7,172.9,269.4L172.9,269.4z"/>
			<path class="st17" d="M154.1,240.3c-4.6-1.3-8.6-3.5-10.6-7.8l-0.1,0c-3.3,2.8-9.4,8.1-10.7,17.9c-0.1,0.9-0.2,1.8-0.2,2.7
				c0,0.9,0,1.9,0,2.9h0c0.7,8.7,3.4,16.5,7.4,21.9h0c3.8,5.2,8.8,8.4,14.2,8.4V240.3z"/>
		</g>
	</g>
	<line class="st18" x1="62.2" y1="51.9" x2="667.5" y2="51.9"/>
	<g>
		<text transform="matrix(1 0 0 1 741.7129 110.3976)" class="st19 st20 st5">How</text>
	</g>
	<line class="st18" x1="741.7" y1="51.9" x2="1995.6" y2="51.9"/>
	<text transform="matrix(1 0 0 1 286.813 231.1976)"><tspan x="0" y="0" class="st19 st20 st21">Watson Health </tspan><tspan x="0" y="33.6" class="st19 st20 st21">employee</tspan></text>
	<g>
		<rect x="286.8" y="304.1" class="st6" width="290.8" height="121.8"/>
		<text transform="matrix(1 0 0 1 286.8131 321.2539)"><tspan x="0" y="0" class="st22 st23 st24">can receive Offering Event </tspan><tspan x="0" y="28.8" class="st22 st23 st24">information. Information </tspan><tspan x="0" y="57.6" class="st22 st23 st24">can come from multiple </tspan><tspan x="0" y="86.4" class="st22 st23 st24">sources</tspan></text>
	</g>
	<g>
		<g>
			<path class="st25" d="M86.5,384.7h1.2v12.8h-1.2V384.7z"/>
			<path class="st25" d="M90.1,384.7h5.4c2.1,0,4.1,0.7,4.1,3.1c0,1.3-0.9,2.6-2.2,2.9v0c1.7,0.2,2.7,1.5,2.7,3.1
				c0,1.2-0.4,3.6-4.6,3.6h-5.4V384.7z M91.3,390.3h4.2c1.9,0,2.9-1,2.9-2.2c0-1.6-1-2.4-2.9-2.4h-4.2V390.3z M91.3,396.4h4.2
				c1.8,0,3.4-0.6,3.4-2.6c0-1.7-1.2-2.5-3.4-2.5h-4.2V396.4z"/>
			<path class="st25" d="M102.1,384.7h1.8l4.4,11.2l4.4-11.2h1.8v12.8h-1.2v-11.1h0l-4.4,11.1h-1.2l-4.4-11.1h0v11.1h-1.2
				L102.1,384.7L102.1,384.7z"/>
		</g>
		<g>
			<path class="st26" d="M131.7,397.4h-2.8l-2.2-8.7h0l-2.1,8.7h-2.9l-3.4-12.8h2.8l2,8.7h0l2.2-8.7h2.6l2.2,8.8h0l2.1-8.8h2.8
				L131.7,397.4z"/>
			<path class="st26" d="M135.4,390.9c0.2-2.4,2.3-3.1,4.4-3.1c1.8,0,4.1,0.4,4.1,2.6v4.8c0,0.8,0.1,1.7,0.3,2.1h-2.6
				c-0.1-0.3-0.2-0.6-0.2-0.9c-0.8,0.8-2,1.2-3.1,1.2c-1.8,0-3.1-0.9-3.1-2.8c0-4.2,6.3-2,6.2-4c0-1.1-0.7-1.2-1.7-1.2
				c-1,0-1.6,0.4-1.7,1.4H135.4L135.4,390.9z M141.3,392.8c-0.4,0.4-1.3,0.4-2.1,0.5c-0.8,0.2-1.5,0.4-1.5,1.4s0.7,1.2,1.6,1.2
				c2,0,2.1-1.6,2.1-2.1V392.8L141.3,392.8z"/>
			<path class="st26" d="M149,388.1h1.9v1.7H149v4.6c0,0.9,0.2,1.1,1.1,1.1c0.3,0,0.6,0,0.8-0.1v2c-0.4,0.1-1,0.1-1.5,0.1
				c-1.6,0-2.9-0.3-2.9-2.2v-5.5h-1.6v-1.7h1.6v-2.8h2.6L149,388.1L149,388.1z"/>
			<path class="st26" d="M154.1,394.3c0,1.1,1,1.6,2,1.6c0.7,0,1.7-0.3,1.7-1.2c0-0.8-1.1-1.1-2.9-1.4c-1.5-0.3-3-0.8-3-2.5
				c0-2.4,2.1-3,4-3c2,0,3.9,0.7,4.1,3h-2.4c-0.1-1-0.8-1.2-1.7-1.2c-0.6,0-1.4,0.1-1.4,0.9c0,0.9,1.5,1,2.9,1.4
				c1.5,0.3,3,0.9,3,2.6c0,2.4-2.1,3.2-4.2,3.2c-2.1,0-4.3-0.8-4.4-3.3L154.1,394.3L154.1,394.3z"/>
			<path class="st26" d="M166.1,387.8c2.9,0,4.8,1.9,4.8,4.9c0,3-1.9,4.9-4.8,4.9s-4.8-1.9-4.8-4.9
				C161.3,389.8,163.1,387.8,166.1,387.8z M166.1,395.7c1.7,0,2.3-1.5,2.3-3s-0.5-3-2.3-3c-1.7,0-2.2,1.5-2.2,3
				S164.3,395.7,166.1,395.7z"/>
			<path class="st26" d="M172.1,388.1h2.4v1.3h0.1c0.7-1.1,1.7-1.6,2.8-1.6c2.7,0,3.4,1.5,3.4,3.8v5.7h-2.6v-5.2
				c0-1.5-0.4-2.3-1.6-2.3c-1.4,0-2,0.8-2,2.6v4.9h-2.6L172.1,388.1L172.1,388.1z"/>
		</g>
		<g id="Logotypes_1_">
			<g>
				<path class="st26" d="M185.9,384.5h2.8v4.9h5.2v-4.9h2.8v12.8h-2.8v-5.5h-5.2v5.5h-2.8V384.5z"/>
				<path class="st26" d="M200.9,393.3c0.1,1.6,0.8,2.4,2.3,2.4c1,0,1.8-0.6,2-1.2h2.2c-0.7,2.2-2.2,3.1-4.3,3.1
					c-2.9,0-4.7-2-4.7-4.9c0-2.8,1.9-4.9,4.7-4.9c3.1,0,4.7,2.6,4.5,5.5H200.9z M205,391.7c-0.2-1.3-0.8-2-2-2c-1.7,0-2.1,1.2-2.1,2
					H205z"/>
				<path class="st26" d="M209.1,390.9c0.2-2.4,2.3-3.1,4.4-3.1c1.8,0,4.1,0.4,4.1,2.6v4.8c0,0.8,0.1,1.7,0.3,2.1h-2.6
					c-0.1-0.3-0.2-0.6-0.2-0.9c-0.8,0.8-2,1.2-3.1,1.2c-1.8,0-3.1-0.9-3.1-2.8c0-4.2,6.3-2,6.2-4c0-1.1-0.7-1.2-1.7-1.2
					c-1,0-1.6,0.4-1.7,1.4H209.1L209.1,390.9z M214.9,392.8c-0.4,0.4-1.3,0.4-2.1,0.5c-0.8,0.2-1.5,0.4-1.5,1.4s0.7,1.2,1.6,1.2
					c2,0,2.1-1.6,2.1-2.1V392.8L214.9,392.8z"/>
				<path class="st26" d="M227.2,388.1h1.9v1.7h-1.9v4.6c0,0.9,0.2,1.1,1.1,1.1c0.3,0,0.6,0,0.8-0.1v2c-0.4,0.1-1,0.1-1.5,0.1
					c-1.6,0-2.9-0.3-2.9-2.2v-5.5h-1.6v-1.7h1.6v-2.8h2.6V388.1L227.2,388.1z"/>
				<path class="st26" d="M230.7,384.5h2.6v4.8h0.1c0.7-1.1,1.7-1.6,2.7-1.6c2.7,0,3.4,1.5,3.4,3.8v5.7h-2.6v-5.2
					c0-1.5-0.4-2.3-1.6-2.3c-1.4,0-2,0.8-2,2.6v4.9h-2.6L230.7,384.5L230.7,384.5z"/>
				<path class="st26" d="M219.4,384.5h2.6v12.8h-2.6V384.5z"/>
			</g>
		</g>
	</g>
	<path class="st7" d="M202.1,638.3h-95.7c-5.5,0-10-4.5-10-10V520.4c0-5.5,4.5-10,10-10h95.7c5.5,0,10,4.5,10,10v107.9
		C212.1,633.8,207.6,638.3,202.1,638.3z"/>
	<text transform="matrix(1 0 0 1 286.813 521.7206)"><tspan x="0" y="0" class="st19 st20 st21">Customer interface</tspan><tspan x="0" y="33.6" class="st19 st20 st21">team representative</tspan></text>
	<g>
		<rect x="286.8" y="594.6" class="st6" width="299.8" height="166.9"/>
		<text transform="matrix(1 0 0 1 286.8131 611.7775)"><tspan x="0" y="0" class="st22 st23 st24">receives Offering Event </tspan><tspan x="0" y="28.8" class="st22 st23 st24">information from Watson </tspan><tspan x="0" y="57.6" class="st22 st23 st24">Health employees</tspan></text>
	</g>
	<g>
		<g>
			<path class="st25" d="M84.5,667.4h1.2v12.8h-1.2V667.4z"/>
			<path class="st25" d="M88.1,667.4h5.4c2.1,0,4.1,0.7,4.1,3.1c0,1.3-0.9,2.6-2.2,2.9v0c1.7,0.2,2.7,1.5,2.7,3.1
				c0,1.2-0.4,3.6-4.6,3.6h-5.4V667.4z M89.3,673h4.2c1.9,0,2.9-1,2.9-2.2c0-1.6-1-2.4-2.9-2.4h-4.2V673z M89.3,679.1h4.2
				c1.8,0,3.4-0.6,3.4-2.6c0-1.7-1.2-2.5-3.4-2.5h-4.2V679.1z"/>
			<path class="st25" d="M100.1,667.4h1.8l4.4,11.2l4.4-11.2h1.8v12.8h-1.2v-11.1h0l-4.4,11.1h-1.2l-4.4-11.1h0v11.1h-1.2
				L100.1,667.4L100.1,667.4z"/>
		</g>
		<g>
			<path class="st26" d="M129.7,680.1h-2.8l-2.2-8.7h0l-2.1,8.7h-2.9l-3.4-12.8h2.8l2,8.7h0l2.2-8.7h2.6l2.2,8.8h0l2.1-8.8h2.8
				L129.7,680.1z"/>
			<path class="st26" d="M133.4,673.6c0.2-2.4,2.3-3.1,4.4-3.1c1.8,0,4.1,0.4,4.1,2.6v4.8c0,0.8,0.1,1.7,0.3,2.1h-2.6
				c-0.1-0.3-0.2-0.6-0.2-0.9c-0.8,0.8-2,1.2-3.1,1.2c-1.8,0-3.1-0.9-3.1-2.8c0-4.2,6.3-2,6.2-4c0-1.1-0.7-1.2-1.7-1.2
				c-1,0-1.6,0.4-1.7,1.4H133.4L133.4,673.6z M139.3,675.5c-0.4,0.4-1.3,0.4-2.1,0.5c-0.8,0.2-1.5,0.4-1.5,1.4s0.7,1.2,1.6,1.2
				c2,0,2.1-1.6,2.1-2.1V675.5L139.3,675.5z"/>
			<path class="st26" d="M147,670.8h1.9v1.7H147v4.6c0,0.9,0.2,1.1,1.1,1.1c0.3,0,0.6,0,0.8-0.1v2c-0.4,0.1-1,0.1-1.5,0.1
				c-1.6,0-2.9-0.3-2.9-2.2v-5.5h-1.6v-1.7h1.6V668h2.6L147,670.8L147,670.8z"/>
			<path class="st26" d="M152.1,677.1c0,1.1,1,1.6,2,1.6c0.7,0,1.7-0.3,1.7-1.2c0-0.8-1.1-1.1-2.9-1.4c-1.5-0.3-3-0.8-3-2.5
				c0-2.4,2.1-3,4-3c2,0,3.9,0.7,4.1,3h-2.4c-0.1-1-0.8-1.2-1.7-1.2c-0.6,0-1.4,0.1-1.4,0.9c0,0.9,1.5,1,2.9,1.4
				c1.5,0.3,3,0.9,3,2.6c0,2.4-2.1,3.2-4.2,3.2c-2.1,0-4.3-0.8-4.4-3.3H152.1L152.1,677.1z"/>
			<path class="st26" d="M164.1,670.6c2.9,0,4.8,1.9,4.8,4.9s-1.9,4.9-4.8,4.9s-4.8-1.9-4.8-4.9S161.1,670.6,164.1,670.6z
				 M164.1,678.4c1.7,0,2.3-1.5,2.3-3s-0.5-3-2.3-3c-1.7,0-2.2,1.5-2.2,3S162.3,678.4,164.1,678.4z"/>
			<path class="st26" d="M170.1,670.8h2.4v1.3h0.1c0.7-1.1,1.7-1.6,2.8-1.6c2.7,0,3.4,1.5,3.4,3.8v5.7h-2.6v-5.2
				c0-1.5-0.4-2.3-1.6-2.3c-1.4,0-2,0.8-2,2.6v4.9h-2.6L170.1,670.8L170.1,670.8z"/>
		</g>
		<g id="Logotypes_2_">
			<g>
				<path class="st26" d="M183.9,667.3h2.8v4.9h5.2v-4.9h2.8v12.8h-2.8v-5.5h-5.2v5.5h-2.8V667.3z"/>
				<path class="st26" d="M198.9,676.1c0.1,1.6,0.8,2.4,2.3,2.4c1,0,1.8-0.6,2-1.2h2.2c-0.7,2.2-2.2,3.1-4.3,3.1
					c-2.9,0-4.7-2-4.7-4.9c0-2.8,1.9-4.9,4.7-4.9c3.1,0,4.7,2.6,4.5,5.5H198.9z M203,674.4c-0.2-1.3-0.8-2-2-2c-1.7,0-2.1,1.2-2.1,2
					H203z"/>
				<path class="st26" d="M207.1,673.6c0.2-2.4,2.3-3.1,4.4-3.1c1.8,0,4.1,0.4,4.1,2.6v4.8c0,0.8,0.1,1.7,0.3,2.1h-2.6
					c-0.1-0.3-0.2-0.6-0.2-0.9c-0.8,0.8-2,1.2-3.1,1.2c-1.8,0-3.1-0.9-3.1-2.8c0-4.2,6.3-2,6.2-4c0-1.1-0.7-1.2-1.7-1.2
					c-1,0-1.6,0.4-1.7,1.4H207.1L207.1,673.6z M212.9,675.5c-0.4,0.4-1.3,0.4-2.1,0.5c-0.8,0.2-1.5,0.4-1.5,1.4s0.7,1.2,1.6,1.2
					c2,0,2.1-1.6,2.1-2.1V675.5L212.9,675.5z"/>
				<path class="st26" d="M225.2,670.8h1.9v1.7h-1.9v4.6c0,0.9,0.2,1.1,1.1,1.1c0.3,0,0.6,0,0.8-0.1v2c-0.4,0.1-1,0.1-1.5,0.1
					c-1.6,0-2.9-0.3-2.9-2.2v-5.5h-1.6v-1.7h1.6V668h2.6V670.8L225.2,670.8z"/>
				<path class="st26" d="M228.7,667.3h2.6v4.8h0.1c0.7-1.1,1.7-1.6,2.7-1.6c2.7,0,3.4,1.5,3.4,3.8v5.7h-2.6v-5.2
					c0-1.5-0.4-2.3-1.6-2.3c-1.4,0-2,0.8-2,2.6v4.9h-2.6L228.7,667.3L228.7,667.3z"/>
				<path class="st26" d="M217.4,667.3h2.6v12.8h-2.6V667.3z"/>
			</g>
		</g>
	</g>
	<g>
		<defs>
			<path id="SVGID_3_" d="M202.1,638.3h-95.7c-5.5,0-10-4.5-10-10V520.4c0-5.5,4.5-10,10-10h95.7c5.5,0,10,4.5,10,10v107.9
				C212.1,633.8,207.6,638.3,202.1,638.3z"/>
		</defs>
		<clipPath id="SVGID_4_">
			<use xlink:href="#SVGID_3_"  style="overflow:visible;"/>
		</clipPath>
		<g class="st27">
			<path class="st11" d="M140.3,565.3l27.9,0l3,31.7c0.2,2.2,2.1,3.9,4.5,4l0.5,0l-3.5,11.9l-37-2.9l-2.7-9l1-0.2
				c2.2-0.3,3.8-1.9,3.9-4L140.3,565.3z"/>
			<path class="st12" d="M154.4,611.5l-18.8-1.5l-2.7-9l1-0.2c2.2-0.3,3.8-1.9,3.9-4l1.8-22.4h14.9L154.4,611.5z"/>
			<path class="st13" d="M140.3,565.3l27.9,0l2.2,24c-0.5,0.8-0.9,1.3-1.4,2.1c-4.1,5.6-9.4,9.4-14.5,9.4c-5.1,0-10.4-3.8-14.5-9.4
				c-0.6-0.9-1.1-1.5-1.6-2.4L140.3,565.3z"/>
			<path class="st9" d="M154.4,592.5c-6.5,0-13-4.2-17.9-10.4c-4.8-6.1-8-14.2-8-22v-0.2l0-0.1c0-0.5,0-1,0-1.6
				c0-18.7-3.4-33.9,26-33.9c29.4,0,25.9,15.2,25.9,33.9c0,0.5,0,1,0,1.5l0,0.1v0.2c0,7.8-3.2,15.9-8,22
				C167.5,588.3,160.9,592.5,154.4,592.5z"/>
			<path class="st14" d="M137.6,597.9c-11.3,7.4-32.2,8-32.2,23.6c0,5.2,0,10.3,0,15.5c0,4.2,3.6,7.6,8.1,7.6c27.2,0,54.5,0,81.7,0
				c4.5,0,8.1-3.4,8.1-7.6l0-15.4c0-15.8-20.6-16.4-32.1-23.6C159.7,605.6,151.2,608.2,137.6,597.9z"/>
			<path class="st16" d="M137.1,585.5c4.9,6.2,11.2,10.4,17.3,10.4c6.1,0,12.5-4.2,17.3-10.4c5-6.4,8.4-14.8,8.5-22.9l-1.7-6.5
				c-0.6-2.3-0.7-4.5-0.7-6.5c-0.1-2.7-0.1-5.2-1.7-7.2c-2.5-3.3-6.5-2.2-11.2-1c-3.2,0.9-6.7,1.8-10.4,1.8c-3.8,0-7.2-0.9-10.4-1.8
				h0c-4.7-1.3-8.7-2.3-11.2,0.9c-1.6,2-1.6,4.5-1.7,7.2c0,2.1-0.1,4.2-0.7,6.5l-1.7,6.5C128.7,570.7,132.1,579.2,137.1,585.5z"/>
			<path class="st28" d="M134.4,599.7c2.8,5.4,10.4,11.8,20.1,11.8c9.2,0,16.8-6.3,20.1-11.7l0,0c-3.3,6.2-10.6,12.8-20.1,12.7
				C145,612.5,137.1,605.8,134.4,599.7L134.4,599.7z"/>
			<path class="st17" d="M137.1,585.5c4.9,6.2,11.2,10.4,17.3,10.4l0-52.7c-3.8,0-7.2-0.9-10.4-1.8h0c-4.7-1.3-8.7-2.3-11.2,0.9
				c-1.6,2-1.6,4.5-1.7,7.2c0,2.1-0.1,4.2-0.7,6.5l-1.7,6.5C128.7,570.7,132.1,579.2,137.1,585.5z"/>
			<path class="st28" d="M131.3,600.2c-10.7,4.6-25.9,5.6-25.9,21.2c0,5.2,0,10.3,0,15.5c0,4.2,3.6,7.6,8.1,7.6l40.9,0l40.9,0
				c4.5,0,8.1-3.4,8.1-7.6c0-5.2,0-10.3,0-15.4c0-15.6-15.2-16.7-25.9-21.3c-6.6,10.2-14.9,15.4-23.1,15.5
				C146.2,615.7,137.9,610.5,131.3,600.2z"/>
			<path class="st29" d="M131.3,600.1c-1.5,0.7-3.1,1.2-4.7,1.8c9.1,14.4,19.9,18.7,27.9,18.8c7.9-0.1,18.8-4.4,27.9-18.8
				c-1.6-0.6-3.2-1.1-4.7-1.8c-6.6,10.2-15,15.6-23.2,15.7C146.2,615.7,137.9,610.4,131.3,600.1z"/>
			<path class="st9" d="M154.8,592.6h6c1,0,1.9,0.7,2.2,1.6c5.9-1,10.3-3.7,13.6-7.5c2.8-3.2,4.6-7.2,5.8-11.6L181,575l1.1-14.7
				l0.1-1.9l5,0.3l-0.2,2.8l1.7,0.1l-0.8,11.1l-1.7-0.1l-0.2,2.8l-1.9-0.1c-1.2,4.7-3.2,9.1-6.2,12.6c-3.5,4.1-8.4,7.1-14.8,8.1v0
				c0,1.3-1.1,2.4-2.4,2.4h-6c-1.3,0-2.4-1.1-2.4-2.4v-1C152.4,593.7,153.4,592.6,154.8,592.6z"/>
		</g>
	</g>
	<rect x="64" y="851.7" class="st6" width="331.1" height="66.5"/>
	<text transform="matrix(1 0 0 1 64.0205 870.2692)"><tspan x="0" y="0" class="st3 st30 st31">• Customer calls &amp; E-mails</tspan><tspan x="0" y="40.2" class="st3 st30 st31">• Sales representatives</tspan></text>
	<text transform="matrix(1 0 0 1 404.2509 870.2695)"><tspan x="0" y="0" class="st3 st30 st31">• Internal analysis</tspan><tspan x="0" y="40.2" class="st3 st30 st31">• Business partners </tspan></text>
	<text transform="matrix(1 0 0 1 64.0206 779.3878)"><tspan x="0" y="0" class="st0 st32 st33">Examples</tspan><tspan x="0" y="38.4" class="st3 st32 st34">Offering Event Information sources</tspan></text>
	<circle class="st3" cx="918.7" cy="455.4" r="177"/>
	<rect x="801.7" y="340.2" class="st6" width="233.9" height="269.5"/>
	<text transform="matrix(1 0 0 1 845.0016 358.7521)"><tspan x="0" y="0" class="st35 st4 st31">The Watson </tspan><tspan x="-30.3" y="31.2" class="st35 st4 st31">Health employee </tspan><tspan x="0.7" y="62.4" class="st35 st23 st31">forwards the </tspan><tspan x="-9.2" y="93.6" class="st35 st23 st31">Offering Event </tspan><tspan x="-28.9" y="124.8" class="st35 st23 st31">information</tspan><tspan x="102.1" y="124.8" class="st35 st4 st31"> </tspan><tspan x="109.3" y="124.8" class="st35 st23 st31">to the </tspan><tspan x="-19.3" y="156" class="st35 st23 st31">Offering Entity’s </tspan><tspan x="-37.8" y="187.2" class="st35 st23 st31">Customer Interface </tspan><tspan x="41.2" y="218.4" class="st35 st23 st31">Team</tspan></text>
	<path class="st36" d="M1250.3,964.4h650.8c24.6,0,44.7-20.1,44.7-44.7V134.6c0-24.6-20.1-44.7-44.7-44.7h-155.7h-56.9h-285.7h-49.7
		h-102.9c-24.7,0-44.8,20.1-44.8,44.7v785.1C1205.5,944.3,1225.6,964.4,1250.3,964.4z"/>
	<path class="st37" d="M1911,131.9v795h-665.7v-795C1447.2,131.9,1709.2,131.9,1911,131.9z"/>
	<rect x="1245.3" y="131.9" class="st38" width="302.9" height="795"/>
	<path class="st39" d="M1497.7,175.4V90h173.1v85.4H1497.7L1497.7,175.4z M1651,158.6c0-18.6,0-33.1,0-51.7c-44.5,0-89.1,0-133.6,0
		c0,18.6,0,33.1,0,51.7C1561.9,158.6,1606.5,158.6,1651,158.6z"/>
	<path class="st40" d="M1497.7,132.7V90h173.1v42.7H1651v-25.9c-44.5,0-89.1,0-133.6,0v25.9H1497.7z"/>
	<rect x="1299" y="207.3" class="st6" width="583.3" height="103.8"/>
	<text transform="matrix(1 0 0 1 1298.9691 225.8166)"><tspan x="0" y="0" class="st35 st4 st31">The Customer Interface Team attempts to </tspan><tspan x="0" y="31.2" class="st35 st4 st31">collect the following:</tspan></text>
	<rect x="1318.6" y="293.5" class="st41" width="582" height="613.7"/>
	<text transform="matrix(1 0 0 1 1318.5774 312.8842)"><tspan x="0" y="0" class="st0 st42 st43">    </tspan><tspan x="42.4" y="0" class="st44 st23 st43">Client who submitted the complaint</tspan><tspan x="0" y="41.4" class="st0 st42 st43">    </tspan><tspan x="42.4" y="41.4" class="st44 st23 st43">Offering name</tspan><tspan x="0" y="82.8" class="st0 st42 st43">    </tspan><tspan x="42.4" y="82.8" class="st44 st23 st43">Description of Offering and what the client  </tspan><tspan x="0" y="109.2" class="st44 st23 st43">       is using it for (e.g., diagnoses, data trending)</tspan><tspan x="0" y="150.6" class="st0 st42 st43">    </tspan><tspan x="42.4" y="150.6" class="st44 st23 st43">Serial number (if applicable)</tspan><tspan x="0" y="192" class="st0 st42 st43">    </tspan><tspan x="42.4" y="192" class="st44 st23 st43">Version of the offering</tspan><tspan x="0" y="233.4" class="st0 st42 st43">    </tspan><tspan x="42.4" y="233.4" class="st44 st23 st43">Date Complaint received</tspan><tspan x="0" y="274.8" class="st0 st42 st43">    </tspan><tspan x="42.4" y="274.8" class="st44 st23 st43">Complaint taken by</tspan><tspan x="0" y="316.2" class="st0 st42 st43">    </tspan><tspan x="42.4" y="316.2" class="st44 st23 st43">Complainant name</tspan><tspan x="0" y="357.6" class="st0 st42 st43">    </tspan><tspan x="42.4" y="357.6" class="st44 st23 st43">Complainant reference number  </tspan><tspan x="0" y="384" class="st44 st23 st43">       (from relevant system)</tspan><tspan x="0" y="425.4" class="st0 st42 st43">    </tspan><tspan x="42.4" y="425.4" class="st44 st23 st43">Complainant phone # / email address</tspan><tspan x="0" y="466.8" class="st0 st42 st43">    </tspan><tspan x="42.4" y="466.8" class="st44 st23 st43">Complainant Address  </tspan><tspan x="0" y="493.2" class="st44 st23 st43">       (street, city, state, country, postal code)</tspan><tspan x="0" y="534.6" class="st0 st42 st43">    </tspan><tspan x="42.4" y="534.6" class="st44 st23 st43">Event description / Customer allegations</tspan><tspan x="0" y="576" class="st0 st42 st43">    </tspan><tspan x="42.4" y="576" class="st44 st23 st43">Any immediate actions taken</tspan></text>
	<g>
		<polygon class="st7" points="1157.8,413.2 1198.7,454.2 1157.8,495.2 1174,511.4 1231.2,454.2 1174,397 		"/>
		<polygon class="st7" points="1120.8,511.4 1178,454.2 1120.8,397 1104.6,413.2 1145.6,454.2 1104.6,495.2 		"/>
	</g>
</g>
<g id="Layer_2">
</g>
</svg>
