<?xml version="1.0" encoding="utf-8"?>
<!-- Generator: Adobe Illustrator 16.0.3, SVG Export Plug-In . SVG Version: 6.00 Build 0)  -->
<!DOCTYPE svg PUBLIC "-//W3C//DTD SVG 1.1//EN" "http://www.w3.org/Graphics/SVG/1.1/DTD/svg11.dtd">
<svg version="1.1" id="Layer_1" xmlns="http://www.w3.org/2000/svg" xmlns:xlink="http://www.w3.org/1999/xlink" x="0px" y="0px"
	 width="2048px" height="1000px" viewBox="0 0 2048 1000" enable-background="new 0 0 2048 1000" xml:space="preserve">
<rect fill="#89BE46" width="2048" height="1000"/>
<g enable-background="new    ">
	<g>
		<defs>
			<rect id="SVGID_1_" x="287.905" y="117.148" width="1558.206" height="138.84"/>
		</defs>
		<clipPath id="SVGID_2_">
			<use xlink:href="#SVGID_1_"  overflow="visible"/>
		</clipPath>
		<g clip-path="url(#SVGID_2_)" enable-background="new    ">
			<g>
				<defs>
					<rect id="SVGID_3_" x="287.905" y="117.148" width="1558.206" height="42.84"/>
				</defs>
				<clipPath id="SVGID_4_">
					<use xlink:href="#SVGID_3_"  overflow="visible"/>
				</clipPath>
				<g clip-path="url(#SVGID_4_)">
					<text transform="matrix(1 0 0 1 288.1841 151.4277)" fill="#333333" font-family="'HelveticaNeueLTPro-Roman'" font-size="40">Any allegation of a deﬁciency related to the identity, quality, durability, reliability, safety,</text>
				</g>
			</g>
		</g>
		<g clip-path="url(#SVGID_2_)" enable-background="new    ">
			<g>
				<defs>
					<rect id="SVGID_5_" x="288.184" y="165.148" width="1049.706" height="42.84"/>
				</defs>
				<clipPath id="SVGID_6_">
					<use xlink:href="#SVGID_5_"  overflow="visible"/>
				</clipPath>
				<g clip-path="url(#SVGID_6_)">
					<text transform="matrix(1 0 0 1 288.1841 199.4277)" fill="#333333" font-family="'HelveticaNeueLTPro-Roman'" font-size="40">effectiveness, or performance of a Watson Health Offering </text>
				</g>
			</g>
		</g>
		<g clip-path="url(#SVGID_2_)" enable-background="new    ">
			<g>
				<defs>
					<polygon id="SVGID_7_" points="288.184,255.988 288.184,255.988 288.184,213.148 					"/>
				</defs>
				<clipPath id="SVGID_8_">
					<use xlink:href="#SVGID_7_"  overflow="visible"/>
				</clipPath>
			</g>
		</g>
	</g>
</g>
<g enable-background="new    ">
	<g>
		<defs>
			<rect id="SVGID_9_" x="287.905" y="63.859" width="196.157" height="42.999"/>
		</defs>
		<clipPath id="SVGID_10_">
			<use xlink:href="#SVGID_9_"  overflow="visible"/>
		</clipPath>
		<g clip-path="url(#SVGID_10_)">
			<text transform="matrix(1 0 0 1 287.9048 98.1387)" fill="#FFFFFF" font-family="'HelveticaNeueLTPro-Bd'" font-size="40">Complaint</text>
		</g>
	</g>
</g>
<g enable-background="new    ">
	<g>
		<defs>
			<rect id="SVGID_11_" x="287.905" y="325.445" width="1591.335" height="138.84"/>
		</defs>
		<clipPath id="SVGID_12_">
			<use xlink:href="#SVGID_11_"  overflow="visible"/>
		</clipPath>
		<g clip-path="url(#SVGID_12_)" enable-background="new    ">
			<g>
				<defs>
					<rect id="SVGID_13_" x="287.905" y="325.445" width="1591.335" height="42.84"/>
				</defs>
				<clipPath id="SVGID_14_">
					<use xlink:href="#SVGID_13_"  overflow="visible"/>
				</clipPath>
				<g clip-path="url(#SVGID_14_)">
					<text transform="matrix(1 0 0 1 287.9048 359.7246)" fill="#333333" font-family="'HelveticaNeueLTPro-Roman'" font-size="40">Quality Assurance Complaint Coordinator and one or more business representatives who</text>
				</g>
			</g>
		</g>
		<g clip-path="url(#SVGID_12_)" enable-background="new    ">
			<g>
				<defs>
					<rect id="SVGID_15_" x="287.905" y="373.445" width="1535.775" height="42.84"/>
				</defs>
				<clipPath id="SVGID_16_">
					<use xlink:href="#SVGID_15_"  overflow="visible"/>
				</clipPath>
				<g clip-path="url(#SVGID_16_)">
					<text transform="matrix(1 0 0 1 287.9048 407.7246)" fill="#333333" font-family="'HelveticaNeueLTPro-Roman'" font-size="40">have been chartered to process complaints and perform failure analysis investigations</text>
				</g>
			</g>
		</g>
		<g clip-path="url(#SVGID_12_)" enable-background="new    ">
			<g>
				<defs>
					<polygon id="SVGID_17_" points="287.905,464.285 287.905,464.285 287.905,421.445 					"/>
				</defs>
				<clipPath id="SVGID_18_">
					<use xlink:href="#SVGID_17_"  overflow="visible"/>
				</clipPath>
			</g>
		</g>
	</g>
</g>
<g enable-background="new    ">
	<g>
		<defs>
			<rect id="SVGID_19_" x="287.905" y="277.077" width="285.036" height="42.999"/>
		</defs>
		<clipPath id="SVGID_20_">
			<use xlink:href="#SVGID_19_"  overflow="visible"/>
		</clipPath>
		<g clip-path="url(#SVGID_20_)">
			<text transform="matrix(1 0 0 1 287.9048 311.3564)" fill="#FFFFFF" font-family="'HelveticaNeueLTPro-Bd'" font-size="40">Complaint Unit</text>
		</g>
	</g>
</g>
<g enable-background="new    ">
	<g>
		<defs>
			<rect id="SVGID_21_" x="287.905" y="566.984" width="1195.656" height="90.84"/>
		</defs>
		<clipPath id="SVGID_22_">
			<use xlink:href="#SVGID_21_"  overflow="visible"/>
		</clipPath>
		<g clip-path="url(#SVGID_22_)" enable-background="new    ">
			<g>
				<defs>
					<rect id="SVGID_23_" x="287.905" y="566.984" width="1195.656" height="90.84"/>
				</defs>
				<clipPath id="SVGID_24_">
					<use xlink:href="#SVGID_23_"  overflow="visible"/>
				</clipPath>
				<g clip-path="url(#SVGID_24_)">
					<text transform="matrix(1 0 0 1 287.9048 601.2637)" fill="#333333" font-family="'HelveticaNeueLTPro-Roman'" font-size="40">Subset of Watson Health representing a speciﬁc function or group/</text>
				</g>
				<g clip-path="url(#SVGID_24_)">
					<text transform="matrix(1 0 0 1 287.9048 649.2637)" fill="#333333" font-family="'HelveticaNeueLTPro-Roman'" font-size="40">type of Offering</text>
				</g>
			</g>
		</g>
		<g clip-path="url(#SVGID_22_)" enable-background="new    ">
			<g>
				<defs>
					<polygon id="SVGID_25_" points="287.905,657.824 287.905,657.824 287.905,614.984 					"/>
				</defs>
				<clipPath id="SVGID_26_">
					<use xlink:href="#SVGID_25_"  overflow="visible"/>
				</clipPath>
			</g>
		</g>
	</g>
</g>
<g enable-background="new    ">
	<g>
		<defs>
			<rect id="SVGID_27_" x="287.905" y="516.682" width="274.996" height="42.999"/>
		</defs>
		<clipPath id="SVGID_28_">
			<use xlink:href="#SVGID_27_"  overflow="visible"/>
		</clipPath>
		<g clip-path="url(#SVGID_28_)">
			<text transform="matrix(1 0 0 1 287.9048 550.9619)" fill="#FFFFFF" font-family="'HelveticaNeueLTPro-Bd'" font-size="40">Offering Entity</text>
		</g>
	</g>
</g>
<g enable-background="new    ">
	<g>
		<defs>
			<rect id="SVGID_29_" x="288.044" y="786.614" width="1209.506" height="90.84"/>
		</defs>
		<clipPath id="SVGID_30_">
			<use xlink:href="#SVGID_29_"  overflow="visible"/>
		</clipPath>
		<g clip-path="url(#SVGID_30_)" enable-background="new    ">
			<g>
				<defs>
					<rect id="SVGID_31_" x="288.044" y="786.614" width="1209.506" height="42.84"/>
				</defs>
				<clipPath id="SVGID_32_">
					<use xlink:href="#SVGID_31_"  overflow="visible"/>
				</clipPath>
				<g clip-path="url(#SVGID_32_)">
					<text transform="matrix(1 0 0 1 288.3237 820.8936)" fill="#333333" font-family="'HelveticaNeueLTPro-Roman'" font-size="40">Any Offering feedback, issues, recommendations, complaints, etc., </text>
				</g>
			</g>
		</g>
		<g clip-path="url(#SVGID_30_)" enable-background="new    ">
			<g>
				<defs>
					<rect id="SVGID_33_" x="288.044" y="834.614" width="532.67" height="42.84"/>
				</defs>
				<clipPath id="SVGID_34_">
					<use xlink:href="#SVGID_33_"  overflow="visible"/>
				</clipPath>
				<g clip-path="url(#SVGID_34_)">
					<text transform="matrix(1 0 0 1 288.0444 868.8936)" fill="#333333" font-family="'HelveticaNeueLTPro-Roman'" font-size="40">reported to the Offering Entity</text>
				</g>
			</g>
		</g>
	</g>
</g>
<path fill="#1365A8" d="M240.256,136.673c0,45.973-37.268,83.241-83.241,83.241c-45.973,0-83.241-37.268-83.241-83.241
	c0-45.973,37.268-83.241,83.241-83.241C202.988,53.433,240.256,90.701,240.256,136.673"/>
<path fill="#1365A8" d="M240.256,343.834c0,45.973-37.268,83.241-83.241,83.241c-45.973,0-83.241-37.268-83.241-83.241
	c0-45.973,37.268-83.241,83.241-83.241C202.988,260.593,240.256,297.861,240.256,343.834"/>
<path fill="#1365A8" d="M240.256,572.994c0,45.973-37.268,83.241-83.241,83.241c-45.973,0-83.241-37.269-83.241-83.241
	s37.268-83.241,83.241-83.241C202.988,489.753,240.256,527.021,240.256,572.994"/>
<path fill="#1365A8" d="M240.256,806.243c0,45.973-37.268,83.241-83.241,83.241c-45.973,0-83.241-37.269-83.241-83.241
	s37.268-83.241,83.241-83.241C202.988,723.002,240.256,760.271,240.256,806.243"/>
<g enable-background="new    ">
	<g>
		<defs>
			<rect id="SVGID_35_" x="288.184" y="726.879" width="273.356" height="42.999"/>
		</defs>
		<clipPath id="SVGID_36_">
			<use xlink:href="#SVGID_35_"  overflow="visible"/>
		</clipPath>
		<g clip-path="url(#SVGID_36_)">
			<text transform="matrix(1 0 0 1 288.1841 761.1582)" fill="#FFFFFF" font-family="'HelveticaNeueLTPro-Bd'" font-size="40">Offering Event</text>
		</g>
	</g>
</g>
<path fill="#1365A8" d="M1952.544,762.205h-17.868c-1.295-6.286-3.016-12.379-5.186-18.293l14.938-8.615
	c3.568-2.084,4.8-6.648,2.745-10.26l-14.972-25.921c-2.096-3.586-6.686-4.802-10.236-2.751l-15.521,8.971
	c-4.182-4.761-8.73-9.199-13.604-13.256l8.646-14.954c2.058-3.61,0.829-8.175-2.751-10.243l-25.927-14.993
	c-3.572-2.033-8.143-0.818-10.229,2.768l-8.94,15.51c-5.962-2.043-12.117-3.579-18.425-4.667v-17.297
	c0-4.126-3.341-7.493-7.494-7.493h-29.919c-4.182,0-7.531,3.367-7.531,7.493v17.889c-6.252,1.257-12.36,2.987-18.271,5.155
	l-8.602-14.937c-2.09-3.604-6.664-4.809-10.283-2.741l-25.934,14.993c-3.564,2.041-4.779,6.632-2.722,10.219l8.964,15.534
	c-4.754,4.177-9.199,8.699-13.241,13.566l-14.948-8.632c-3.615-2.067-8.18-0.81-10.256,2.761l-15.003,25.92
	c-2.049,3.577-0.825,8.167,2.761,10.229l15.5,8.952c-2.01,5.947-3.568,12.101-4.643,18.411h-17.283
	c-4.155,0-7.506,3.366-7.502,7.492l-0.004,29.945c0,4.144,3.351,7.484,7.51,7.484h17.886c1.241,6.296,2.973,12.421,5.146,18.311
	l-14.947,8.624c-3.588,2.075-4.783,6.649-2.738,10.217l14.965,25.939c2.062,3.567,6.658,4.81,10.247,2.74l15.526-8.952
	c4.188,4.76,8.729,9.224,13.595,13.256l-8.646,14.978c-2.067,3.578-0.844,8.168,2.733,10.221l25.963,14.968
	c3.578,2.068,8.156,0.844,10.201-2.726l8.971-15.51c5.957,2.009,12.086,3.569,18.406,4.633l-0.006,17.322
	c0.006,4.127,3.352,7.467,7.479,7.459l29.971,0.026c4.136,0,7.488-3.358,7.492-7.485v-17.896c6.253-1.266,12.361-2.995,18.28-5.155
	l8.642,14.927c2.071,3.604,6.609,4.801,10.209,2.742l25.955-14.978c3.565-2.051,4.803-6.648,2.723-10.235l-8.971-15.524
	c4.775-4.168,9.218-8.709,13.273-13.576l14.969,8.646c3.594,2.069,8.143,0.828,10.234-2.75l14.969-25.953
	c2.062-3.562,0.827-8.16-2.722-10.22l-15.53-8.961c2.025-5.924,3.57-12.092,4.676-18.377h17.28c4.125,0,7.468-3.366,7.477-7.511
	V769.69C1960.036,765.548,1956.661,762.205,1952.544,762.205 M1814.423,864.033c-42.909,0-77.694-34.807-77.694-77.704
	c0-42.906,34.785-77.704,77.694-77.704c42.913,0,77.689,34.798,77.689,77.704C1892.112,829.228,1857.336,864.033,1814.423,864.033"
	/>
<path fill="#3D85B2" d="M1811.816,863.948c-41.699-1.366-75.088-35.581-75.088-77.619c0-42.046,33.389-76.262,75.088-77.628
	l-0.004-67.992h-14.011c-4.182,0-7.53,3.367-7.53,7.493v17.889c-6.253,1.257-12.361,2.987-18.272,5.155l-8.603-14.937
	c-2.089-3.604-6.662-4.809-10.282-2.741l-25.934,14.992c-3.564,2.042-4.779,6.633-2.722,10.22l8.964,15.534
	c-4.754,4.177-9.199,8.699-13.241,13.566l-14.948-8.632c-3.615-2.067-8.18-0.81-10.255,2.761l-15.004,25.92
	c-2.049,3.577-0.826,8.167,2.761,10.229l15.5,8.952c-2.01,5.947-3.568,12.101-4.643,18.411h-17.283
	c-4.155,0-7.506,3.366-7.502,7.492l-0.004,29.945c0,4.144,3.351,7.484,7.511,7.484h17.885c1.242,6.296,2.973,12.421,5.146,18.311
	l-14.948,8.624c-3.587,2.075-4.782,6.649-2.737,10.217l14.965,25.939c2.063,3.567,6.658,4.81,10.247,2.74l15.525-8.952
	c4.189,4.76,8.729,9.224,13.596,13.256l-8.646,14.978c-2.067,3.578-0.844,8.168,2.733,10.221l25.963,14.968
	c3.578,2.067,8.156,0.844,10.201-2.726l8.971-15.51c5.957,2.009,12.086,3.569,18.406,4.633l-0.006,17.322
	c0.006,4.127,3.352,7.467,7.479,7.459l10.72,0.018L1811.816,863.948z"/>
<path fill="#1365A8" d="M1814.416,691.725c-52.255,0-94.605,42.351-94.605,94.613c0,52.229,42.352,94.605,94.605,94.605
	s94.622-42.376,94.622-94.605C1909.038,734.074,1866.676,691.725,1814.416,691.725 M1814.423,864.033
	c-42.909,0-77.694-34.807-77.694-77.704c0-42.906,34.785-77.704,77.694-77.704c42.913,0,77.689,34.798,77.689,77.704
	C1892.112,829.228,1857.336,864.033,1814.423,864.033"/>
<path fill="#3D85B2" d="M1814.416,691.725c-0.881,0-1.737,0.025-2.6,0.06v16.918c0.861-0.025,1.719-0.076,2.605-0.076
	c42.913,0,77.689,34.798,77.689,77.704c0,42.897-34.776,77.704-77.689,77.704c-0.888,0-1.744-0.05-2.605-0.085v16.937
	c0.861,0.016,1.723,0.06,2.6,0.06c52.255,0,94.622-42.376,94.622-94.605C1909.038,734.074,1866.676,691.725,1814.416,691.725"/>
<path fill="#074164" d="M1976.972,949.753c-0.025,0.009-0.034,0.035-0.052,0.052c-11.771,11.721-30.823,11.669-42.552-0.094
	l-91.745-92.182c-11.703-11.772-11.66-30.791,0.053-42.503c0.023-0.018,0.041-0.034,0.049-0.052
	c11.784-11.728,30.838-11.686,42.547,0.094l91.76,92.184C1988.721,919.023,1988.691,938.024,1976.972,949.753"/>
<path fill="#2C5871" d="M1963.881,949.18c-4.52,4.505-11.911,4.481-16.441-0.065l-91.744-92.186
	c-4.512-4.54-4.512-11.914,0.017-16.443c4.573-4.55,11.965-4.533,16.492,0.016l91.75,92.184c4.508,4.55,4.508,11.914-0.021,16.453
	L1963.881,949.18z"/>
<path fill="#074164" d="M1663.666,635.639v-0.009c22.296-22.302,51.914-34.545,83.374-34.495
	c64.837,0.119,117.495,52.965,117.378,117.793c-0.052,31.287-12.299,60.743-34.476,82.929c-22.289,22.283-51.88,34.52-83.327,34.477
	c-31.368-0.051-60.872-12.36-83.072-34.628c-22.196-22.278-34.393-51.817-34.334-83.189
	C1629.266,687.243,1641.495,657.804,1663.666,635.639"/>
<path fill="#D1ECFB" d="M1684.963,656.894c-16.505,16.506-25.616,38.419-25.668,61.697c-0.092,48.247,39.084,87.576,87.339,87.652
	c23.408,0.041,45.438-9.071,62.062-25.686c16.501-16.505,25.609-38.4,25.652-61.664c0.04-23.331-9.047-45.312-25.572-61.898
	c-16.523-16.59-38.477-25.736-61.819-25.778C1723.583,631.182,1701.56,640.295,1684.963,656.894"/>
<path fill="#FFFFFF" d="M1808.774,656.995c-16.523-16.59-38.477-25.736-61.819-25.778c-6.572-0.009-13.032,0.727-19.301,2.125
	c-9.525,4.306-18.305,10.321-25.931,17.965c-16.509,16.495-25.612,38.408-25.654,61.698c-0.093,48.238,39.093,87.567,87.34,87.66
	c6.574,0.009,13.046-0.728,19.312-2.125c9.541-4.32,18.337-10.346,25.973-17.981c16.501-16.505,25.609-38.4,25.652-61.664
	C1834.388,695.562,1825.301,673.582,1808.774,656.995"/>
<path fill="#0E303F" d="M1854.509,827.345c-5.878,5.866-15.403,5.84-21.271-0.049l-18.736-19.341
	c-5.854-5.889-5.848-15.391,0.018-21.255c0,0,0.025-0.009,0.035-0.025c5.886-5.854,15.397-5.848,21.271,0.052l18.734,19.348
	c5.854,5.874,5.844,15.383-0.021,21.247C1854.538,827.32,1854.512,827.337,1854.509,827.345"/>
<path fill="#2C5871" d="M1747.026,607.785c61.171,0.117,110.85,49.977,110.738,111.134c-0.062,29.541-11.613,57.318-32.532,78.237
	c-20.959,20.975-48.796,32.519-78.392,32.519h-0.208l0.026-14.8h0.182c25.644,0,49.753-10.008,67.919-28.191
	c18.135-18.123,28.15-42.196,28.206-67.789c0.092-52.998-42.959-96.198-95.969-96.31L1747.026,607.785z"/>
<path fill="#A6DAE9" d="M1736.729,786.329c0-42.906,34.785-77.704,77.694-77.704c6.769,0,13.299,0.953,19.56,2.582
	c-1.735-20.438-10.512-39.464-25.207-54.212c-5.168-5.181-10.913-9.554-17.017-13.231c-0.928,1.248-1.487,2.775-1.487,4.438v17.889
	c-6.252,1.257-12.36,2.987-18.271,5.155l-8.602-14.937c-2.09-3.604-6.663-4.809-10.283-2.741l-25.934,14.992
	c-3.564,2.042-4.779,6.633-2.722,10.22l8.964,15.534c-4.754,4.177-9.199,8.699-13.241,13.566l-14.948-8.632
	c-3.615-2.067-8.18-0.81-10.256,2.761l-15.003,25.92c-2.049,3.577-0.825,8.167,2.761,10.229l15.5,8.952
	c-2.01,5.947-3.568,12.101-4.643,18.411h-17.283c-1.06,0-2.065,0.22-2.975,0.615c14.314,22.115,38.298,37.362,65.968,39.717
	C1737.684,799.61,1736.729,793.087,1736.729,786.329"/>
<path fill="#8FC4D7" d="M1693.604,765.487c-0.005,0.008-0.01,0.018-0.01,0.034h-17.283c-1.06,0-2.065,0.22-2.975,0.615
	c0.734,1.13,1.511,2.236,2.294,3.342c0.533,0.742,1.085,1.468,1.638,2.192c1.274,1.671,2.606,3.3,3.999,4.87
	c0.607,0.683,1.216,1.366,1.841,2.034c1.291,1.365,2.628,2.689,4,3.98c0.845,0.785,1.679,1.57,2.549,2.321
	c1.004,0.868,2.031,1.712,3.079,2.531c0.797,0.633,1.62,1.23,2.438,1.839c1.61,1.182,3.261,2.312,4.952,3.384
	c0.81,0.517,1.625,1.012,2.447,1.493c1.735,1.028,3.518,1.983,5.328,2.886c0.905,0.455,1.815,0.912,2.745,1.333
	c1.224,0.559,2.455,1.099,3.714,1.595c1.149,0.465,2.329,0.879,3.507,1.293c1.731,0.614,3.492,1.172,5.275,1.679
	c0.92,0.253,1.857,0.489,2.793,0.717c2.067,0.515,4.165,0.944,6.286,1.3c0.979,0.16,1.949,0.321,2.938,0.455
	c1.373,0.187,2.752,0.354,4.145,0.473c-0.775-2.993-1.393-6.05-1.832-9.171C1719.743,791.131,1704.505,780.026,1693.604,765.487"/>
<g>
	<path fill-rule="evenodd" clip-rule="evenodd" fill="#ECF0F1" d="M195.332,575.634c0,1.761,0,3.527,0,5.294
		c0,0.487-0.39,0.885-0.877,0.885h-1.267c-0.487,0-0.877-0.397-0.877-0.885v-3.155c0-0.487-0.401-0.877-0.889-0.877h-32.9
		c0,1.339,0,2.687,0,4.028c0,0.487-0.39,0.881-0.877,0.881h-1.255c-0.476,0-0.877-0.394-0.877-0.881v-4.028h-32.9
		c-0.488,0-0.877,0.39-0.877,0.877v3.155c0,0.487-0.403,0.885-0.89,0.885h-1.254c-0.488,0-0.89-0.397-0.89-0.885v-5.3
		c0-0.975,0.792-1.767,1.767-1.767h35.045c0-1.335,0-2.669,0-4.01c0-0.482,0.402-0.884,0.877-0.884h1.255
		c0.487,0,0.877,0.401,0.877,0.884v4.01c11.686,0,23.371,0,35.045,0C194.54,573.861,195.332,574.659,195.332,575.634z"/>
	<linearGradient id="SVGID_37_" gradientUnits="userSpaceOnUse" x1="160.3115" y1="557.3379" x2="160.3115" y2="557.3379">
		<stop  offset="0" style="stop-color:#345955"/>
		<stop  offset="0.5728" style="stop-color:#528881"/>
		<stop  offset="1" style="stop-color:#6AADA4"/>
	</linearGradient>
	<path fill-rule="evenodd" clip-rule="evenodd" fill="url(#SVGID_37_)" d="M160.312,557.338"/>
	<linearGradient id="SVGID_38_" gradientUnits="userSpaceOnUse" x1="160.3232" y1="557.3301" x2="160.3232" y2="557.3301">
		<stop  offset="0" style="stop-color:#345955"/>
		<stop  offset="0.5728" style="stop-color:#528881"/>
		<stop  offset="1" style="stop-color:#6AADA4"/>
	</linearGradient>
	<path fill-rule="evenodd" clip-rule="evenodd" fill="url(#SVGID_38_)" d="M160.323,557.33"/>
	<linearGradient id="SVGID_39_" gradientUnits="userSpaceOnUse" x1="160.3359" y1="557.3184" x2="160.3359" y2="557.3184">
		<stop  offset="0" style="stop-color:#345955"/>
		<stop  offset="0.5728" style="stop-color:#528881"/>
		<stop  offset="1" style="stop-color:#6AADA4"/>
	</linearGradient>
	<path fill-rule="evenodd" clip-rule="evenodd" fill="url(#SVGID_39_)" d="M160.336,557.318"/>
	<linearGradient id="SVGID_40_" gradientUnits="userSpaceOnUse" x1="160.3359" y1="557.3184" x2="160.3359" y2="557.3184">
		<stop  offset="0" style="stop-color:#345955"/>
		<stop  offset="0.5728" style="stop-color:#528881"/>
		<stop  offset="1" style="stop-color:#6AADA4"/>
	</linearGradient>
	<path fill-rule="evenodd" clip-rule="evenodd" fill="url(#SVGID_40_)" d="M160.336,557.318"/>
	<linearGradient id="SVGID_41_" gradientUnits="userSpaceOnUse" x1="160.3359" y1="557.3184" x2="160.3359" y2="557.3184">
		<stop  offset="0" style="stop-color:#345955"/>
		<stop  offset="0.5728" style="stop-color:#528881"/>
		<stop  offset="1" style="stop-color:#6AADA4"/>
	</linearGradient>
	<path fill-rule="evenodd" clip-rule="evenodd" fill="url(#SVGID_41_)" d="M160.336,557.318"/>
	<linearGradient id="SVGID_42_" gradientUnits="userSpaceOnUse" x1="160.3359" y1="557.3184" x2="160.3359" y2="557.3184">
		<stop  offset="0" style="stop-color:#345955"/>
		<stop  offset="0.5728" style="stop-color:#528881"/>
		<stop  offset="1" style="stop-color:#6AADA4"/>
	</linearGradient>
	<path fill-rule="evenodd" clip-rule="evenodd" fill="url(#SVGID_42_)" d="M160.336,557.318"/>
	<linearGradient id="SVGID_43_" gradientUnits="userSpaceOnUse" x1="160.3232" y1="557.3301" x2="160.3232" y2="557.3301">
		<stop  offset="0" style="stop-color:#345955"/>
		<stop  offset="0.5728" style="stop-color:#528881"/>
		<stop  offset="1" style="stop-color:#6AADA4"/>
	</linearGradient>
	<path fill-rule="evenodd" clip-rule="evenodd" fill="url(#SVGID_43_)" d="M160.323,557.33"/>
	<linearGradient id="SVGID_44_" gradientUnits="userSpaceOnUse" x1="160.3115" y1="557.3379" x2="160.3115" y2="557.3379">
		<stop  offset="0" style="stop-color:#345955"/>
		<stop  offset="0.5728" style="stop-color:#528881"/>
		<stop  offset="1" style="stop-color:#6AADA4"/>
	</linearGradient>
	<path fill-rule="evenodd" clip-rule="evenodd" fill="url(#SVGID_44_)" d="M160.312,557.338"/>
	<g>
		<path fill-rule="evenodd" clip-rule="evenodd" fill="#E3CCA4" d="M152.159,538.48h9.578l1.012,10.888
			c0.074,0.756,0.731,1.341,1.548,1.364h0.183l-1.221,4.075l-12.721-0.992l-0.938-3.077l0.354-0.055
			c0.743-0.104,1.292-0.657,1.352-1.358L152.159,538.48z"/>
		<path fill-rule="evenodd" clip-rule="evenodd" fill="#D4C5A3" d="M157.009,554.32l-6.47-0.505l-0.938-3.077l0.354-0.055
			c0.743-0.104,1.292-0.657,1.352-1.358l0.609-7.689h5.094V554.32z"/>
		<path fill-rule="evenodd" clip-rule="evenodd" fill="#CCBC97" d="M152.159,538.48h9.578l0.768,8.231
			c-0.183,0.293-0.292,0.457-0.487,0.724c-1.402,1.927-3.217,3.23-4.972,3.23s-3.571-1.304-4.972-3.23
			c-0.219-0.298-0.366-0.511-0.561-0.834L152.159,538.48z"/>
		<path fill-rule="evenodd" clip-rule="evenodd" fill="#2C3E50" d="M157.009,547.803c-2.229,0-4.472-1.445-6.142-3.578
			c-1.645-2.09-2.754-4.866-2.754-7.549v-0.066l0.013-0.031c-0.013-0.176-0.013-0.359-0.013-0.534
			c0-6.442-1.182-11.655,8.896-11.655c10.103,0,8.908,5.213,8.908,11.655c0,0.175,0,0.358-0.014,0.534l0.014,0.031v0.066
			c0,2.683-1.109,5.459-2.755,7.549C161.493,546.357,159.251,547.803,157.009,547.803z"/>
		<path fill-rule="evenodd" clip-rule="evenodd" fill="#ECF0F1" d="M158.568,552.98h-3.009l-4.326-3.326l-1.657,1.084
			c-5.313,1.098-9.383,3.443-9.383,7.044c0,1.767,0,3.533,0,5.308c0,1.437,1.255,2.606,2.791,2.606h5.178h7.032h3.74h6.131h5.981
			c1.537,0,2.792-1.17,2.792-2.606v-5.308c0-3.601-4.071-5.954-9.384-7.05l-1.632-1.035L158.568,552.98z"/>
		<polygon fill-rule="evenodd" clip-rule="evenodd" fill="#DAE1E6" points="158.568,552.98 155.559,552.98 151.233,549.654 
			149.576,550.738 158.216,559.682 158.934,565.696 159.312,565.696 158.422,557.379 165.026,550.861 164.455,550.732 
			162.823,549.697 		"/>
		<path fill-rule="evenodd" clip-rule="evenodd" fill="#FFE7BD" d="M151.062,545.42c1.682,2.127,3.851,3.575,5.946,3.575
			c2.108,0,4.278-1.448,5.946-3.575c1.72-2.193,2.89-5.075,2.913-7.867l-0.597-2.217c-0.207-0.791-0.22-1.534-0.232-2.236
			c-0.025-0.926-0.049-1.778-0.585-2.472c-0.866-1.123-2.242-0.757-3.851-0.33c-1.097,0.293-2.291,0.608-3.595,0.608
			c-1.292,0-2.486-0.315-3.583-0.608l0,0c-1.608-0.427-2.985-0.793-3.851,0.33c-0.536,0.693-0.561,1.546-0.585,2.472
			c-0.012,0.702-0.024,1.445-0.244,2.236l-0.585,2.217C148.187,540.345,149.345,543.227,151.062,545.42z"/>
		<path fill-rule="evenodd" clip-rule="evenodd" fill="#E8D6AC" d="M151.062,545.42c1.682,2.127,3.851,3.575,5.946,3.575v-18.089
			c-1.292,0-2.486-0.315-3.583-0.608l0,0c-1.608-0.427-2.985-0.793-3.851,0.33c-0.536,0.693-0.561,1.546-0.585,2.472
			c-0.012,0.702-0.024,1.445-0.244,2.236l-0.585,2.217C148.187,540.345,149.345,543.227,151.062,545.42z"/>
		<path fill-rule="evenodd" clip-rule="evenodd" fill="#3D566E" d="M155.194,565.696h3.74c-0.402-3.326-0.804-5.94-1.206-9.267
			c-0.024-0.178,0.024-0.336,0.122-0.493l0.999-2.469c0.073-0.104,0.073-0.22,0.012-0.321c-0.06-0.098-0.17-0.166-0.292-0.166
			c-0.999,0-1.998,0-3.009,0c-0.122,0-0.232,0.068-0.292,0.166c-0.061,0.102-0.049,0.218,0.012,0.321l1,2.469
			c0.097,0.157,0.146,0.315,0.122,0.493C155.998,559.756,155.595,562.37,155.194,565.696z"/>
		<path fill-rule="evenodd" clip-rule="evenodd" fill="#2C3E50" d="M157.728,556.43c-0.024-0.178,0.024-0.336,0.122-0.493
			l0.999-2.469c0.073-0.104,0.073-0.22,0.012-0.321c-0.06-0.098-0.17-0.166-0.292-0.166c-0.999,0-1.998,0-3.009,0
			c-0.122,0-0.232,0.068-0.292,0.166c-0.061,0.102-0.049,0.218,0.012,0.321l1,2.469c0.097,0.157,0.146,0.315,0.122,0.493
			l-0.146,1.242l1.816,1.548L157.728,556.43z"/>
		<polygon fill-rule="evenodd" clip-rule="evenodd" fill="#ECF0F1" points="157.058,552.98 151.233,549.654 149.576,550.738 
			155.291,556.197 		"/>
		<polygon fill-rule="evenodd" clip-rule="evenodd" fill="#ECF0F1" points="157.058,552.98 162.823,549.697 164.48,550.732 
			158.836,556.197 		"/>
		<path fill-rule="evenodd" clip-rule="evenodd" fill="#2C3E50" d="M140.193,557.782c0,1.767,0,3.533,0,5.308
			c0,1.437,1.255,2.606,2.791,2.606h13.538l-1.097-1.955c-2.644-4.82-4.192-6.891-5.849-13.003
			C144.263,551.836,140.193,554.182,140.193,557.782L140.193,557.782z M157.496,565.696h13.55c1.537,0,2.792-1.17,2.792-2.606
			v-5.308c0-3.601-4.071-5.954-9.384-7.05c-1.646,6.044-3.168,8.14-5.776,12.856L157.496,565.696z"/>
	</g>
	<linearGradient id="SVGID_45_" gradientUnits="userSpaceOnUse" x1="119.7944" y1="608.626" x2="119.7944" y2="608.626">
		<stop  offset="0" style="stop-color:#345955"/>
		<stop  offset="0.5728" style="stop-color:#528881"/>
		<stop  offset="1" style="stop-color:#6AADA4"/>
	</linearGradient>
	<path fill-rule="evenodd" clip-rule="evenodd" fill="url(#SVGID_45_)" d="M119.794,608.626"/>
	<linearGradient id="SVGID_46_" gradientUnits="userSpaceOnUse" x1="119.7944" y1="608.6123" x2="119.7944" y2="608.6123">
		<stop  offset="0" style="stop-color:#345955"/>
		<stop  offset="0.5728" style="stop-color:#528881"/>
		<stop  offset="1" style="stop-color:#6AADA4"/>
	</linearGradient>
	<path fill-rule="evenodd" clip-rule="evenodd" fill="url(#SVGID_46_)" d="M119.794,608.612"/>
	<linearGradient id="SVGID_47_" gradientUnits="userSpaceOnUse" x1="119.8071" y1="608.6123" x2="119.8071" y2="608.6123">
		<stop  offset="0" style="stop-color:#345955"/>
		<stop  offset="0.5728" style="stop-color:#528881"/>
		<stop  offset="1" style="stop-color:#6AADA4"/>
	</linearGradient>
	<path fill-rule="evenodd" clip-rule="evenodd" fill="url(#SVGID_47_)" d="M119.807,608.612"/>
	<linearGradient id="SVGID_48_" gradientUnits="userSpaceOnUse" x1="119.8071" y1="608.6123" x2="119.8071" y2="608.6123">
		<stop  offset="0" style="stop-color:#345955"/>
		<stop  offset="0.5728" style="stop-color:#528881"/>
		<stop  offset="1" style="stop-color:#6AADA4"/>
	</linearGradient>
	<path fill-rule="evenodd" clip-rule="evenodd" fill="url(#SVGID_48_)" d="M119.807,608.612"/>
	<linearGradient id="SVGID_49_" gradientUnits="userSpaceOnUse" x1="119.8071" y1="608.6123" x2="119.8071" y2="608.6123">
		<stop  offset="0" style="stop-color:#345955"/>
		<stop  offset="0.5728" style="stop-color:#528881"/>
		<stop  offset="1" style="stop-color:#6AADA4"/>
	</linearGradient>
	<path fill-rule="evenodd" clip-rule="evenodd" fill="url(#SVGID_49_)" d="M119.807,608.612"/>
	<linearGradient id="SVGID_50_" gradientUnits="userSpaceOnUse" x1="119.8071" y1="608.6123" x2="119.8071" y2="608.6123">
		<stop  offset="0" style="stop-color:#345955"/>
		<stop  offset="0.5728" style="stop-color:#528881"/>
		<stop  offset="1" style="stop-color:#6AADA4"/>
	</linearGradient>
	<path fill-rule="evenodd" clip-rule="evenodd" fill="url(#SVGID_50_)" d="M119.807,608.612"/>
	<linearGradient id="SVGID_51_" gradientUnits="userSpaceOnUse" x1="119.7944" y1="608.6123" x2="119.7944" y2="608.6123">
		<stop  offset="0" style="stop-color:#345955"/>
		<stop  offset="0.5728" style="stop-color:#528881"/>
		<stop  offset="1" style="stop-color:#6AADA4"/>
	</linearGradient>
	<path fill-rule="evenodd" clip-rule="evenodd" fill="url(#SVGID_51_)" d="M119.794,608.612"/>
	<linearGradient id="SVGID_52_" gradientUnits="userSpaceOnUse" x1="119.7944" y1="608.626" x2="119.7944" y2="608.626">
		<stop  offset="0" style="stop-color:#345955"/>
		<stop  offset="0.5728" style="stop-color:#528881"/>
		<stop  offset="1" style="stop-color:#6AADA4"/>
	</linearGradient>
	<path fill-rule="evenodd" clip-rule="evenodd" fill="url(#SVGID_52_)" d="M119.794,608.626"/>
	<path fill-rule="evenodd" clip-rule="evenodd" fill="#E3CCA4" d="M114.433,595.223h6.812l0.731,7.736
		c0.049,0.538,0.512,0.951,1.097,0.975h0.122l-0.865,2.901l-9.042-0.706l-0.658-2.195l0.244-0.035
		c0.524-0.074,0.915-0.476,0.963-0.963L114.433,595.223z"/>
	<path fill-rule="evenodd" clip-rule="evenodd" fill="#D4C5A3" d="M117.894,606.493l-4.606-0.364l-0.658-2.195l0.244-0.035
		c0.524-0.074,0.915-0.476,0.963-0.963l0.426-5.471h3.631V606.493z"/>
	<path fill-rule="evenodd" clip-rule="evenodd" fill="#CCBC97" d="M114.433,595.223h6.812l0.548,5.849
		c-0.122,0.207-0.207,0.327-0.341,0.522c-1,1.365-2.291,2.293-3.534,2.293c-1.255,0-2.546-0.928-3.534-2.293
		c-0.158-0.219-0.268-0.364-0.401-0.608L114.433,595.223z"/>
	<path fill-rule="evenodd" clip-rule="evenodd" fill="#E8D6AC" d="M117.894,601.852c-1.596,0-3.18-1.037-4.374-2.547
		c-1.17-1.487-1.962-3.463-1.962-5.361v-0.051l0.013-0.023c-0.013-0.121-0.013-0.256-0.013-0.39c0-4.57-0.84-8.28,6.336-8.28
		c7.178,0,6.336,3.71,6.336,8.28c0,0.134-0.012,0.269-0.012,0.39v0.023v0.051c0,1.898-0.78,3.874-1.95,5.361
		C121.074,600.814,119.478,601.852,117.894,601.852z"/>
	<path fill-rule="evenodd" clip-rule="evenodd" fill="#ECF0F1" d="M118.99,605.53h-2.132l-3.07-2.363l-1.183,0.767
		c-3.778,0.779-6.678,2.45-6.678,5.009c0,1.255,0,2.522,0,3.778c0,1.023,0.89,1.853,1.987,1.853h3.691h4.996h2.657h4.362h4.253
		c1.084,0,1.974-0.829,1.974-1.853v-3.778c0-2.559-2.888-4.229-6.666-5.009l-1.157-0.743L118.99,605.53z"/>
	<polygon fill-rule="evenodd" clip-rule="evenodd" fill="#DAE1E6" points="118.99,605.53 116.858,605.53 113.788,603.167 
		112.605,603.934 118.747,610.295 119.258,614.573 119.526,614.573 118.893,608.663 123.584,604.031 123.182,603.934 
		122.025,603.19 	"/>
	<path fill-rule="evenodd" clip-rule="evenodd" fill="#FFE7BD" d="M113.666,600.157c1.182,1.511,2.741,2.534,4.228,2.534
		c1.499,0,3.035-1.023,4.229-2.534c1.219-1.56,2.047-3.607,2.059-5.605l-0.415-1.571c-0.146-0.562-0.158-1.084-0.17-1.585
		c-0.012-0.646-0.024-1.268-0.415-1.767c-0.621-0.792-1.596-0.53-2.741-0.225c-0.78,0.199-1.621,0.431-2.547,0.431
		c-0.926,0-1.767-0.231-2.546-0.431l0,0c-1.158-0.306-2.12-0.567-2.742,0.225c-0.39,0.499-0.402,1.121-0.415,1.767
		c-0.012,0.501-0.024,1.023-0.17,1.585l-0.415,1.571C111.618,596.55,112.447,598.598,113.666,600.157z"/>
	<path fill-rule="evenodd" clip-rule="evenodd" fill="#E8D6AC" d="M113.666,600.157c1.182,1.511,2.741,2.534,4.228,2.534v-12.856
		c-0.926,0-1.767-0.231-2.546-0.431l0,0c-1.158-0.306-2.12-0.567-2.742,0.225c-0.39,0.499-0.402,1.121-0.415,1.767
		c-0.012,0.501-0.024,1.023-0.17,1.585l-0.415,1.571C111.618,596.55,112.447,598.598,113.666,600.157z"/>
	<path fill-rule="evenodd" clip-rule="evenodd" fill="#3D566E" d="M116.602,614.573h2.657c-0.28-2.365-0.572-4.229-0.853-6.593
		c-0.024-0.122,0.013-0.245,0.086-0.354l0.707-1.743c0.049-0.072,0.061-0.169,0.012-0.241c-0.049-0.074-0.122-0.111-0.219-0.111
		c-0.707,0-1.414,0-2.132,0c-0.085,0-0.17,0.037-0.208,0.111c-0.049,0.072-0.036,0.169,0,0.241l0.72,1.743
		c0.073,0.109,0.097,0.232,0.084,0.354C117.175,610.344,116.882,612.208,116.602,614.573z"/>
	<path fill-rule="evenodd" clip-rule="evenodd" fill="#2C3E50" d="M118.405,607.98c-0.024-0.122,0.013-0.245,0.086-0.354
		l0.707-1.743c0.049-0.072,0.061-0.169,0.012-0.241c-0.049-0.074-0.122-0.111-0.219-0.111c-0.707,0-1.414,0-2.132,0
		c-0.085,0-0.17,0.037-0.208,0.111c-0.049,0.072-0.036,0.169,0,0.241l0.72,1.743c0.073,0.109,0.097,0.232,0.084,0.354l-0.109,0.878
		l1.292,1.107L118.405,607.98z"/>
	<polygon fill-rule="evenodd" clip-rule="evenodd" fill="#ECF0F1" points="117.931,605.53 113.788,603.167 112.605,603.934 
		116.675,607.81 	"/>
	<polygon fill-rule="evenodd" clip-rule="evenodd" fill="#ECF0F1" points="117.931,605.53 122.025,603.19 123.194,603.934 
		119.185,607.81 	"/>
	<linearGradient id="SVGID_53_" gradientUnits="userSpaceOnUse" x1="158.9224" y1="608.626" x2="158.9224" y2="608.626">
		<stop  offset="0" style="stop-color:#345955"/>
		<stop  offset="0.5728" style="stop-color:#528881"/>
		<stop  offset="1" style="stop-color:#6AADA4"/>
	</linearGradient>
	<path fill-rule="evenodd" clip-rule="evenodd" fill="url(#SVGID_53_)" d="M158.922,608.626"/>
	<linearGradient id="SVGID_54_" gradientUnits="userSpaceOnUse" x1="158.9224" y1="608.6123" x2="158.9224" y2="608.6123">
		<stop  offset="0" style="stop-color:#345955"/>
		<stop  offset="0.5728" style="stop-color:#528881"/>
		<stop  offset="1" style="stop-color:#6AADA4"/>
	</linearGradient>
	<path fill-rule="evenodd" clip-rule="evenodd" fill="url(#SVGID_54_)" d="M158.922,608.612"/>
	<linearGradient id="SVGID_55_" gradientUnits="userSpaceOnUse" x1="158.9341" y1="608.6123" x2="158.9341" y2="608.6123">
		<stop  offset="0" style="stop-color:#345955"/>
		<stop  offset="0.5728" style="stop-color:#528881"/>
		<stop  offset="1" style="stop-color:#6AADA4"/>
	</linearGradient>
	<path fill-rule="evenodd" clip-rule="evenodd" fill="url(#SVGID_55_)" d="M158.934,608.612"/>
	<linearGradient id="SVGID_56_" gradientUnits="userSpaceOnUse" x1="158.9341" y1="608.6123" x2="158.9341" y2="608.6123">
		<stop  offset="0" style="stop-color:#345955"/>
		<stop  offset="0.5728" style="stop-color:#528881"/>
		<stop  offset="1" style="stop-color:#6AADA4"/>
	</linearGradient>
	<path fill-rule="evenodd" clip-rule="evenodd" fill="url(#SVGID_56_)" d="M158.934,608.612"/>
	<linearGradient id="SVGID_57_" gradientUnits="userSpaceOnUse" x1="158.9341" y1="608.6123" x2="158.9341" y2="608.6123">
		<stop  offset="0" style="stop-color:#345955"/>
		<stop  offset="0.5728" style="stop-color:#528881"/>
		<stop  offset="1" style="stop-color:#6AADA4"/>
	</linearGradient>
	<path fill-rule="evenodd" clip-rule="evenodd" fill="url(#SVGID_57_)" d="M158.934,608.612"/>
	<linearGradient id="SVGID_58_" gradientUnits="userSpaceOnUse" x1="158.9341" y1="608.6123" x2="158.9341" y2="608.6123">
		<stop  offset="0" style="stop-color:#345955"/>
		<stop  offset="0.5728" style="stop-color:#528881"/>
		<stop  offset="1" style="stop-color:#6AADA4"/>
	</linearGradient>
	<path fill-rule="evenodd" clip-rule="evenodd" fill="url(#SVGID_58_)" d="M158.934,608.612"/>
	<linearGradient id="SVGID_59_" gradientUnits="userSpaceOnUse" x1="158.9224" y1="608.6123" x2="158.9224" y2="608.6123">
		<stop  offset="0" style="stop-color:#345955"/>
		<stop  offset="0.5728" style="stop-color:#528881"/>
		<stop  offset="1" style="stop-color:#6AADA4"/>
	</linearGradient>
	<path fill-rule="evenodd" clip-rule="evenodd" fill="url(#SVGID_59_)" d="M158.922,608.612"/>
	<linearGradient id="SVGID_60_" gradientUnits="userSpaceOnUse" x1="158.9224" y1="608.626" x2="158.9224" y2="608.626">
		<stop  offset="0" style="stop-color:#345955"/>
		<stop  offset="0.5728" style="stop-color:#528881"/>
		<stop  offset="1" style="stop-color:#6AADA4"/>
	</linearGradient>
	<path fill-rule="evenodd" clip-rule="evenodd" fill="url(#SVGID_60_)" d="M158.922,608.626"/>
	<path fill-rule="evenodd" clip-rule="evenodd" fill="#E3CCA4" d="M153.561,595.223h6.812l0.719,7.736
		c0.061,0.538,0.523,0.951,1.097,0.975h0.134l-0.865,2.901l-9.042-0.706l-0.671-2.195l0.256-0.035
		c0.523-0.074,0.914-0.476,0.951-0.963L153.561,595.223z"/>
	<path fill-rule="evenodd" clip-rule="evenodd" fill="#D4C5A3" d="M157.021,606.493l-4.606-0.364l-0.671-2.195l0.256-0.035
		c0.523-0.074,0.914-0.476,0.951-0.963l0.438-5.471h3.631V606.493z"/>
	<path fill-rule="evenodd" clip-rule="evenodd" fill="#CCBC97" d="M153.561,595.223h6.812l0.549,5.849
		c-0.122,0.207-0.208,0.327-0.341,0.522c-0.999,1.365-2.291,2.293-3.546,2.293c-1.243,0-2.535-0.928-3.521-2.293
		c-0.159-0.219-0.268-0.364-0.403-0.608L153.561,595.223z"/>
	<path fill-rule="evenodd" clip-rule="evenodd" fill="#E8D6AC" d="M157.021,601.852c-1.597,0-3.192-1.037-4.375-2.547
		c-1.17-1.487-1.961-3.463-1.961-5.361v-0.051l0.012-0.023c-0.012-0.121-0.012-0.256-0.012-0.39c0-4.57-0.841-8.28,6.336-8.28
		c7.166,0,6.335,3.71,6.335,8.28c0,0.134-0.012,0.269-0.012,0.39v0.023v0.051c0,1.898-0.78,3.874-1.961,5.361
		C160.201,600.814,158.605,601.852,157.021,601.852z"/>
	<path fill-rule="evenodd" clip-rule="evenodd" fill="#ECF0F1" d="M158.118,605.53h-2.133l-3.083-2.363l-1.17,0.767
		c-3.777,0.779-6.678,2.45-6.678,5.009c0,1.255,0,2.522,0,3.778c0,1.023,0.889,1.853,1.986,1.853h3.68h4.996h2.669h4.362h4.252
		c1.086,0,1.975-0.829,1.975-1.853v-3.778c0-2.559-2.901-4.229-6.679-5.009l-1.157-0.743L158.118,605.53z"/>
	<polygon fill-rule="evenodd" clip-rule="evenodd" fill="#DAE1E6" points="158.118,605.53 155.985,605.53 152.903,603.167 
		151.733,603.934 157.862,610.295 158.386,614.573 158.654,614.573 158.021,608.663 162.711,604.031 162.297,603.934 161.14,603.19 
			"/>
	<path fill-rule="evenodd" clip-rule="evenodd" fill="#FFE7BD" d="M152.792,600.157c1.183,1.511,2.729,2.534,4.229,2.534
		c1.487,0,3.034-1.023,4.228-2.534c1.218-1.56,2.047-3.607,2.061-5.605l-0.415-1.571c-0.146-0.562-0.17-1.084-0.17-1.585
		c-0.025-0.646-0.039-1.268-0.415-1.767c-0.622-0.792-1.597-0.53-2.742-0.225c-0.78,0.199-1.633,0.431-2.546,0.431
		c-0.926,0-1.768-0.231-2.547-0.431h-0.012c-1.146-0.306-2.108-0.567-2.729,0.225c-0.39,0.499-0.402,1.121-0.414,1.767
		c-0.013,0.501-0.024,1.023-0.171,1.585l-0.427,1.571C150.734,596.55,151.562,598.598,152.792,600.157z"/>
	<path fill-rule="evenodd" clip-rule="evenodd" fill="#E8D6AC" d="M152.792,600.157c1.183,1.511,2.729,2.534,4.229,2.534v-12.856
		c-0.926,0-1.768-0.231-2.547-0.431h-0.012c-1.146-0.306-2.108-0.567-2.729,0.225c-0.39,0.499-0.402,1.121-0.414,1.767
		c-0.013,0.501-0.024,1.023-0.171,1.585l-0.427,1.571C150.734,596.55,151.562,598.598,152.792,600.157z"/>
	<path fill-rule="evenodd" clip-rule="evenodd" fill="#3D566E" d="M155.717,614.573h2.669c-0.281-2.365-0.573-4.229-0.866-6.593
		c-0.012-0.122,0.024-0.245,0.086-0.354l0.718-1.743c0.049-0.072,0.049-0.169,0.013-0.241c-0.049-0.074-0.122-0.111-0.219-0.111
		c-0.707,0-1.426,0-2.133,0c-0.085,0-0.171,0.037-0.207,0.111c-0.048,0.072-0.037,0.169,0,0.241l0.719,1.743
		c0.062,0.109,0.098,0.232,0.086,0.354C156.291,610.344,156.01,612.208,155.717,614.573z"/>
	<path fill-rule="evenodd" clip-rule="evenodd" fill="#2C3E50" d="M157.521,607.98c-0.012-0.122,0.024-0.245,0.086-0.354
		l0.718-1.743c0.049-0.072,0.049-0.169,0.013-0.241c-0.049-0.074-0.122-0.111-0.219-0.111c-0.707,0-1.426,0-2.133,0
		c-0.085,0-0.171,0.037-0.207,0.111c-0.048,0.072-0.037,0.169,0,0.241l0.719,1.743c0.062,0.109,0.098,0.232,0.086,0.354l-0.11,0.878
		l1.292,1.107L157.521,607.98z"/>
	<polygon fill-rule="evenodd" clip-rule="evenodd" fill="#ECF0F1" points="157.058,605.53 152.903,603.167 151.733,603.934 
		155.79,607.81 	"/>
	<polygon fill-rule="evenodd" clip-rule="evenodd" fill="#ECF0F1" points="157.058,605.53 161.14,603.19 162.322,603.934 
		158.313,607.81 	"/>
	<linearGradient id="SVGID_61_" gradientUnits="userSpaceOnUse" x1="198.0493" y1="608.626" x2="198.0493" y2="608.626">
		<stop  offset="0" style="stop-color:#345955"/>
		<stop  offset="0.5728" style="stop-color:#528881"/>
		<stop  offset="1" style="stop-color:#6AADA4"/>
	</linearGradient>
	<path fill-rule="evenodd" clip-rule="evenodd" fill="url(#SVGID_61_)" d="M198.049,608.626"/>
	<linearGradient id="SVGID_62_" gradientUnits="userSpaceOnUse" x1="198.0493" y1="608.6123" x2="198.0493" y2="608.6123">
		<stop  offset="0" style="stop-color:#345955"/>
		<stop  offset="0.5728" style="stop-color:#528881"/>
		<stop  offset="1" style="stop-color:#6AADA4"/>
	</linearGradient>
	<path fill-rule="evenodd" clip-rule="evenodd" fill="url(#SVGID_62_)" d="M198.049,608.612"/>
	<linearGradient id="SVGID_63_" gradientUnits="userSpaceOnUse" x1="198.061" y1="608.6123" x2="198.061" y2="608.6123">
		<stop  offset="0" style="stop-color:#345955"/>
		<stop  offset="0.5728" style="stop-color:#528881"/>
		<stop  offset="1" style="stop-color:#6AADA4"/>
	</linearGradient>
	<path fill-rule="evenodd" clip-rule="evenodd" fill="url(#SVGID_63_)" d="M198.061,608.612"/>
	<linearGradient id="SVGID_64_" gradientUnits="userSpaceOnUse" x1="198.061" y1="608.6123" x2="198.061" y2="608.6123">
		<stop  offset="0" style="stop-color:#345955"/>
		<stop  offset="0.5728" style="stop-color:#528881"/>
		<stop  offset="1" style="stop-color:#6AADA4"/>
	</linearGradient>
	<path fill-rule="evenodd" clip-rule="evenodd" fill="url(#SVGID_64_)" d="M198.061,608.612"/>
	<linearGradient id="SVGID_65_" gradientUnits="userSpaceOnUse" x1="198.061" y1="608.6123" x2="198.061" y2="608.6123">
		<stop  offset="0" style="stop-color:#345955"/>
		<stop  offset="0.5728" style="stop-color:#528881"/>
		<stop  offset="1" style="stop-color:#6AADA4"/>
	</linearGradient>
	<path fill-rule="evenodd" clip-rule="evenodd" fill="url(#SVGID_65_)" d="M198.061,608.612"/>
	<linearGradient id="SVGID_66_" gradientUnits="userSpaceOnUse" x1="198.061" y1="608.6123" x2="198.061" y2="608.6123">
		<stop  offset="0" style="stop-color:#345955"/>
		<stop  offset="0.5728" style="stop-color:#528881"/>
		<stop  offset="1" style="stop-color:#6AADA4"/>
	</linearGradient>
	<path fill-rule="evenodd" clip-rule="evenodd" fill="url(#SVGID_66_)" d="M198.061,608.612"/>
	<linearGradient id="SVGID_67_" gradientUnits="userSpaceOnUse" x1="198.0493" y1="608.6123" x2="198.0493" y2="608.6123">
		<stop  offset="0" style="stop-color:#345955"/>
		<stop  offset="0.5728" style="stop-color:#528881"/>
		<stop  offset="1" style="stop-color:#6AADA4"/>
	</linearGradient>
	<path fill-rule="evenodd" clip-rule="evenodd" fill="url(#SVGID_67_)" d="M198.049,608.612"/>
	<linearGradient id="SVGID_68_" gradientUnits="userSpaceOnUse" x1="198.0493" y1="608.626" x2="198.0493" y2="608.626">
		<stop  offset="0" style="stop-color:#345955"/>
		<stop  offset="0.5728" style="stop-color:#528881"/>
		<stop  offset="1" style="stop-color:#6AADA4"/>
	</linearGradient>
	<path fill-rule="evenodd" clip-rule="evenodd" fill="url(#SVGID_68_)" d="M198.049,608.626"/>
	<path fill-rule="evenodd" clip-rule="evenodd" fill="#E3CCA4" d="M192.688,595.223h6.812l0.72,7.736
		c0.048,0.538,0.524,0.951,1.098,0.975h0.132l-0.866,2.901l-9.041-0.706l-0.671-2.195l0.244-0.035
		c0.537-0.074,0.926-0.476,0.963-0.963L192.688,595.223z"/>
	<path fill-rule="evenodd" clip-rule="evenodd" fill="#D4C5A3" d="M196.15,606.493l-4.607-0.364l-0.671-2.195l0.244-0.035
		c0.537-0.074,0.926-0.476,0.963-0.963l0.438-5.471h3.632V606.493z"/>
	<path fill-rule="evenodd" clip-rule="evenodd" fill="#CCBC97" d="M192.688,595.223h6.812l0.55,5.849
		c-0.136,0.207-0.208,0.327-0.355,0.522c-0.986,1.365-2.277,2.293-3.533,2.293c-1.244,0-2.535-0.928-3.535-2.293
		c-0.146-0.219-0.255-0.364-0.39-0.608L192.688,595.223z"/>
	<path fill-rule="evenodd" clip-rule="evenodd" fill="#E8D6AC" d="M196.137,601.852c-1.585,0-3.18-1.037-4.361-2.547
		c-1.17-1.487-1.963-3.463-1.963-5.361v-0.051v-0.023c0-0.121,0-0.256,0-0.39c0-4.57-0.84-8.28,6.325-8.28
		c7.177,0,6.336,3.71,6.336,8.28c0,0.134,0,0.269,0,0.39v0.023v0.051c0,1.898-0.792,3.874-1.961,5.361
		C199.329,600.814,197.734,601.852,196.137,601.852z"/>
	<path fill-rule="evenodd" clip-rule="evenodd" fill="#ECF0F1" d="M197.246,605.53h-2.133l-3.083-2.363l-1.183,0.767
		c-3.777,0.779-6.664,2.45-6.664,5.009c0,1.255,0,2.522,0,3.778c0,1.023,0.889,1.853,1.984,1.853h3.681h4.995h2.671h4.348h4.254
		c1.096,0,1.985-0.829,1.985-1.853v-3.778c0-2.559-2.899-4.229-6.676-5.009l-1.158-0.743L197.246,605.53z"/>
	<polygon fill-rule="evenodd" clip-rule="evenodd" fill="#DAE1E6" points="197.246,605.53 195.113,605.53 192.031,603.167 
		190.848,603.934 196.989,610.295 197.515,614.573 197.782,614.573 197.149,608.663 201.84,604.031 201.426,603.934 200.268,603.19 
			"/>
	<path fill-rule="evenodd" clip-rule="evenodd" fill="#FFE7BD" d="M191.92,600.157c1.183,1.511,2.729,2.534,4.217,2.534
		c1.5,0,3.047-1.023,4.241-2.534c1.219-1.56,2.047-3.607,2.059-5.605l-0.414-1.571c-0.16-0.562-0.16-1.084-0.171-1.585
		c-0.023-0.646-0.035-1.268-0.414-1.767c-0.622-0.792-1.597-0.53-2.741-0.225c-0.78,0.199-1.634,0.431-2.56,0.431
		c-0.914,0-1.766-0.231-2.546-0.431l0,0c-1.145-0.306-2.12-0.567-2.743,0.225c-0.376,0.499-0.39,1.121-0.414,1.767
		c0,0.501-0.012,1.023-0.171,1.585l-0.414,1.571C189.861,596.55,190.691,598.598,191.92,600.157z"/>
	<path fill-rule="evenodd" clip-rule="evenodd" fill="#E8D6AC" d="M191.92,600.157c1.183,1.511,2.729,2.534,4.23,2.534v-12.856
		c-0.928,0-1.78-0.231-2.56-0.431l0,0c-1.145-0.306-2.12-0.567-2.743,0.225c-0.376,0.499-0.39,1.121-0.414,1.767
		c0,0.501-0.012,1.023-0.171,1.585l-0.414,1.571C189.861,596.55,190.691,598.598,191.92,600.157z"/>
	<path fill-rule="evenodd" clip-rule="evenodd" fill="#3D566E" d="M194.844,614.573h2.671c-0.292-2.365-0.573-4.229-0.866-6.593
		c-0.012-0.122,0.023-0.245,0.086-0.354l0.718-1.743c0.048-0.072,0.048-0.169,0-0.241c-0.035-0.074-0.121-0.111-0.207-0.111
		c-0.706,0-1.427,0-2.133,0c-0.098,0-0.171,0.037-0.218,0.111c-0.037,0.072-0.025,0.169,0.012,0.241l0.717,1.743
		c0.062,0.109,0.098,0.232,0.086,0.354C195.417,610.344,195.137,612.208,194.844,614.573z"/>
	<path fill-rule="evenodd" clip-rule="evenodd" fill="#2C3E50" d="M196.649,607.98c-0.012-0.122,0.023-0.245,0.086-0.354
		l0.718-1.743c0.048-0.072,0.048-0.169,0-0.241c-0.035-0.074-0.121-0.111-0.207-0.111c-0.706,0-1.427,0-2.133,0
		c-0.098,0-0.171,0.037-0.218,0.111c-0.037,0.072-0.025,0.169,0.012,0.241l0.706,1.743c0.074,0.109,0.109,0.232,0.098,0.354
		l-0.109,0.878l1.291,1.107L196.649,607.98z"/>
	<polygon fill-rule="evenodd" clip-rule="evenodd" fill="#ECF0F1" points="196.174,605.53 192.031,603.167 190.848,603.934 
		194.918,607.81 	"/>
	<polygon fill-rule="evenodd" clip-rule="evenodd" fill="#ECF0F1" points="196.174,605.53 200.268,603.19 201.45,603.934 
		197.441,607.81 	"/>
</g>
<g>
	<defs>
		<path id="SVGID_69_" d="M240.256,343.834c0,45.973-37.268,83.241-83.241,83.241c-45.973,0-83.241-37.268-83.241-83.241
			c0-45.973,37.268-83.241,83.241-83.241C202.988,260.593,240.256,297.861,240.256,343.834"/>
	</defs>
	<clipPath id="SVGID_70_">
		<use xlink:href="#SVGID_69_"  overflow="visible"/>
	</clipPath>
	<g clip-path="url(#SVGID_70_)">
		<g>
			<path fill-rule="evenodd" clip-rule="evenodd" fill="#E3CCA4" d="M141.721,329.498h33.581l3.578,41.635
				c0.245,2.894,2.555,5.115,5.404,5.204l0.641,0.022l-8.777,8.215l-17.261,25.131l-17.127-25.626l-9-7.715l1.23-0.2
				c2.605-0.412,4.531-2.533,4.72-5.216L141.721,329.498z"/>
			<path fill-rule="evenodd" clip-rule="evenodd" fill="#D4C5A3" d="M158.887,409.705L158.887,409.705l-17.121-25.626l-9.006-7.715
				l1.23-0.2c2.605-0.412,4.531-2.533,4.72-5.216l2.427-33.363h17.75V409.705z"/>
			<path fill-rule="evenodd" clip-rule="evenodd" fill="#CCBC97" d="M139.595,358.759l38.239,0.189l0.149,1.792
				c-0.617,1.091-1.002,1.682-1.68,2.699c-4.904,7.286-11.283,12.246-17.439,12.246c-6.162,0-12.54-4.96-17.444-12.246
				c-0.763-1.135-1.258-1.908-1.937-3.139L139.595,358.759z"/>
			<path fill-rule="evenodd" clip-rule="evenodd" fill="#ECF0F1" d="M127.956,376.576l8.828-1.703l8.856,3.64
				c1.52,0.624,2.532,1.715,3.2,3.173l10.047,22.003l9.997-22.96c0.611-1.408,1.748-2.35,3.229-2.906l8.377-3.15l7.715,1.648
				l5.621,1.714l9.662,54.987H114.38l8.382-54.425L127.956,376.576z"/>
			<path fill-rule="evenodd" clip-rule="evenodd" fill="#2C3E50" d="M213.195,423.158c0.077-19.926-1.325-40.978-24.624-46.838
				c1.926,3.673,0.45,6.969,4.279,17.555l-17.588-9.796c-5.584,13.437-11.166,26.873-16.749,40.31l-16.748-40.31l-17.589,9.796
				c3.735-10.342,2.416-13.726,4.146-17.299c-22.365,6.178-23.728,27.023-23.65,46.582c0.022,5.438,4.37,9.863,9.708,9.863
				c29.701,0,59.402,0,89.107,0C208.825,433.021,213.179,428.597,213.195,423.158z"/>
			<path fill-rule="evenodd" clip-rule="evenodd" fill="#7D7662" d="M133.077,357.301c-37.816-61.328,21.268-84.549,23.556-76.061
				c0.596,2.199,0.712,1.169,2.138,0.167c18.056-12.696,57.342,28.086,25.721,76.206c-2.01,0.546-4.441,1.024-7.197,1.413
				l-0.167,0.218c2.327-3.173,4.325-6.93,5.899-11.132l0.006,0.005c0.835-2.46,1.57-5.087,2.177-7.759
				c0.601-2.644,1.074-5.338,1.386-7.977h0.006c0.105-1.097,0.189-2.204,0.244-3.334c0.051-1.035,0.078-2.182,0.078-3.435
				c0-0.924-0.011-1.647-0.027-2.176c-0.017-0.607-0.051-1.286-0.095-2.01c-0.701-5.783-8.511-7.085-16.915-8.477
				c-9.875-1.636-20.422-3.384-24.664-12.223l-0.073,0.062c-4.241,3.651-12.15,10.47-13.776,23.004
				c-0.139,1.113-0.25,2.288-0.306,3.512c-0.05,1.191-0.061,2.427-0.017,3.701h0.005c0.852,11.055,4.286,20.846,9.323,27.881
				C137.53,358.447,135.053,357.907,133.077,357.301z"/>
			<path fill-rule="evenodd" clip-rule="evenodd" fill="#FFE7BD" d="M183.032,348.116c0.835-2.46,1.57-5.087,2.177-7.759
				c0.601-2.644,1.074-5.338,1.386-7.977h0.006c0.105-1.097,0.189-2.204,0.244-3.334c0.051-1.035,0.078-2.182,0.078-3.439
				c0-0.919-0.011-1.643-0.027-2.166c-0.017-0.612-0.051-1.286-0.095-2.015c-0.701-5.783-8.511-7.085-16.915-8.477
				c-9.875-1.636-20.422-3.384-24.664-12.223l-0.067,0.062c-4.247,3.651-12.156,10.47-13.782,23.004
				c-0.139,1.113-0.25,2.282-0.306,3.512c-0.05,1.191-0.061,2.427-0.017,3.696h0.005c0.868,11.243,4.397,21.173,9.58,28.231h0.005
				c4.92,6.701,11.316,10.775,18.246,10.775c4.921,0,9.579-2.054,13.614-5.645l0.006,0.006c4.342-3.862,7.982-9.484,10.52-16.258
				L183.032,348.116z"/>
			<path fill-rule="evenodd" clip-rule="evenodd" fill="#E8D6AC" d="M158.887,310.701c-5.883-1.687-11.01-4.442-13.665-9.975
				l-0.073,0.062c-4.241,3.651-12.15,10.47-13.776,23.004c-0.139,1.113-0.25,2.288-0.306,3.512c-0.05,1.191-0.061,2.427-0.017,3.701
				h0.005c0.868,11.238,4.397,21.168,9.58,28.227h0.005c4.92,6.707,11.316,10.775,18.246,10.775V310.701z"/>
		</g>
		<path fill-rule="evenodd" clip-rule="evenodd" fill="#2C3E50" d="M155.324,360.039h6.97c1.207,0,2.242,0.773,2.627,1.854
			c6.901-1.18,12.117-4.375,15.891-8.794c3.24-3.78,5.443-8.455,6.779-13.531l-1.553-0.117l1.291-17.261l0.173-2.237l5.833,0.395
			l-0.244,3.295l1.942,0.15l-0.969,12.947l-1.948-0.145l-0.244,3.29l-2.183-0.162c-1.397,5.511-3.769,10.604-7.297,14.728
			c-4.119,4.809-9.796,8.282-17.311,9.518v0.056c0,1.536-1.253,2.788-2.788,2.788h-6.97c-1.53,0-2.789-1.252-2.789-2.788v-1.196
			C152.536,361.291,153.794,360.039,155.324,360.039z"/>
	</g>
</g>
<g>
	<g>
		<path fill="#C2D64C" d="M138.583,110.822c-20.844,0-37.742,13.317-37.742,29.742c0,11.874,8.855,22.089,21.605,26.858
			c-0.25,0.516-0.477,1.045-0.767,1.544c-2.494,4.184-6.145,7.354-10.493,9.486c9.633,0.687,18.549-2.196,24.431-8.265
			c0.98,0.06,1.965,0.12,2.965,0.12c20.835,0,37.726-13.318,37.726-29.743C176.309,124.139,159.419,110.822,138.583,110.822z"/>
		<path fill="#A1B400" d="M164.552,162.126c-23.329-0.518-42.044-15.58-42.044-34.099c0-5.741,1.806-11.149,4.988-15.896
			c3.505-0.849,7.228-1.309,11.087-1.309c20.835,0,37.726,13.317,37.726,29.742C176.309,149.053,171.788,156.706,164.552,162.126z"
			/>
		<path fill="#FFFFFF" d="M170.79,86.406c23.911,0,43.299,15.276,43.299,34.123c0,13.622-10.16,25.341-24.786,30.813
			c0.288,0.59,0.542,1.197,0.875,1.771c2.864,4.799,7.054,8.436,12.038,10.881c-11.051,0.789-21.276-2.52-28.023-9.48
			c-1.125,0.069-2.257,0.138-3.403,0.138c-23.905,0-43.278-15.277-43.278-34.123C127.512,101.683,146.884,86.406,170.79,86.406z"/>
		<path fill="#D1ECFB" d="M214.083,120.641c-0.059,13.573-10.193,25.242-24.78,30.701c0.288,0.59,0.542,1.197,0.875,1.771
			c2.864,4.799,7.054,8.436,12.038,10.881c-11.051,0.789-21.276-2.52-28.023-9.48c-1.125,0.069-2.257,0.138-3.403,0.138
			c-23.856,0-43.199-15.218-43.278-34.01H214.083z"/>
		<g>
			<g>
				<path fill="#1695A4" d="M183.219,121.153c0,3.35,2.718,6.076,6.083,6.076c3.345,0,6.069-2.726,6.069-6.076
					c0-3.355-2.724-6.081-6.069-6.081C185.937,115.072,183.219,117.798,183.219,121.153z"/>
				<path fill="#1695A4" d="M164.583,121.153c0,3.35,2.723,6.076,6.088,6.076c3.345,0,6.065-2.726,6.065-6.076
					c0-3.355-2.72-6.081-6.065-6.081C167.305,115.072,164.583,117.798,164.583,121.153z"/>
				<path fill="#1695A4" d="M145.952,121.153c0,3.35,2.718,6.076,6.078,6.076c3.35,0,6.073-2.726,6.073-6.076
					c0-3.355-2.723-6.081-6.073-6.081C148.67,115.072,145.952,117.798,145.952,121.153z"/>
			</g>
			<g>
				<path fill="#15B0BF" d="M195.319,120.641h-12.048c0.262-3.112,2.846-5.569,6.032-5.569
					C192.476,115.072,195.054,117.529,195.319,120.641z"/>
				<path fill="#15B0BF" d="M176.683,120.641h-12.047c0.266-3.112,2.847-5.569,6.035-5.569
					C173.841,115.072,176.417,117.529,176.683,120.641z"/>
				<path fill="#15B0BF" d="M158.05,120.641H146c0.264-3.112,2.846-5.569,6.03-5.569
					C155.207,115.072,157.787,117.529,158.05,120.641z"/>
			</g>
		</g>
	</g>
</g>
<g>
	<polygon fill-rule="evenodd" clip-rule="evenodd" fill="#DAE1E6" points="181.25,765.254 180.179,764.172 180.198,764.172 	"/>
	<path fill-rule="evenodd" clip-rule="evenodd" fill="#BDC3C7" d="M192.471,841.989l-54.725-0.027c-2.879,0-5.222-2.365-5.222-5.23
		l0.031-75.93c0-2.88,2.351-5.231,5.229-5.231l37.294,0.014l22.646,22.662l-0.024,58.513
		C197.7,839.638,195.35,841.989,192.471,841.989z"/>
	<polygon fill-rule="evenodd" clip-rule="evenodd" fill="#95A5A6" points="189.708,770.226 197.724,778.246 197.712,797.831 
		176.66,776.759 	"/>
	<path fill-rule="evenodd" clip-rule="evenodd" fill="#C0C0C0" d="M192.471,841.989l-10.252-0.014l0.02-47.242l15.474,15.478
		l-0.013,26.548C197.7,839.638,195.35,841.989,192.471,841.989z"/>
	<path fill-rule="evenodd" clip-rule="evenodd" fill="#DAE1E6" d="M197.724,778.246h-17.429c-2.873,0-5.224-2.352-5.224-5.231
		l0.007-17.431L197.724,778.246z"/>
	<polygon fill-rule="evenodd" clip-rule="evenodd" fill="#DAE1E6" points="165.77,781.717 164.691,780.646 164.718,780.646 	"/>
	<path fill-rule="evenodd" clip-rule="evenodd" fill="#DAE1E6" d="M176.99,858.45l-54.73-0.027c-2.879,0-5.224-2.352-5.217-5.23
		l0.033-75.93c0-2.88,2.343-5.218,5.221-5.218l37.301,0.014l22.641,22.661l-0.02,58.513
		C182.213,856.112,179.869,858.45,176.99,858.45z"/>
	<polygon fill-rule="evenodd" clip-rule="evenodd" fill="#B3B3B3" points="174.22,786.699 182.239,794.72 182.232,814.307 
		161.179,793.235 	"/>
	<path fill-rule="evenodd" clip-rule="evenodd" fill="#ECF0F1" d="M182.239,794.72l-17.424-0.014c-2.879,0-5.224-2.351-5.224-5.23
		l0.007-17.417L182.239,794.72z"/>
</g>
</svg>
